<?xml version="1.0" encoding="UTF-8" standalone="no"?><svg xmlns="http://www.w3.org/2000/svg" xmlns:xlink="http://www.w3.org/1999/xlink" contentStyleType="text/css" height="1311px" preserveAspectRatio="none" style="width:1895px;height:1311px;background:#FFFFFF;" version="1.1" viewBox="0 0 1895 1311" width="1895px" zoomAndPan="magnify"><defs/><g><!--cluster <<aggregate>> Exam--><g id="cluster_&lt;&lt;aggregate&gt;&gt; Exam"><path d="M8.5,500.36 L190.875,500.36 A3.75,3.75 0 0 1 193.375,502.86 L200.375,533.6 L832.5,533.6 A2.5,2.5 0 0 1 835,536.1 L835,1072.86 A2.5,2.5 0 0 1 832.5,1075.36 L8.5,1075.36 A2.5,2.5 0 0 1 6,1072.86 L6,502.86 A2.5,2.5 0 0 1 8.5,500.36 " fill="none" style="stroke:#000000;stroke-width:1.5;"/><line style="stroke:#000000;stroke-width:1.5;" x1="6" x2="200.375" y1="533.6" y2="533.6"/><text fill="#000000" font-family="sans-serif" font-size="20" font-weight="bold" lengthAdjust="spacing" textLength="181.375" x="10" y="523.74">«aggregate» Exam</text></g><!--cluster <<aggregate>> FormativeExam--><g id="cluster_&lt;&lt;aggregate&gt;&gt; FormativeExam"><path d="M861.5,748.36 L1142.5,748.36 A3.75,3.75 0 0 1 1145,750.86 L1152,781.6 L1152.5,781.6 A2.5,2.5 0 0 1 1155,784.1 L1155,899.86 A2.5,2.5 0 0 1 1152.5,902.36 L861.5,902.36 A2.5,2.5 0 0 1 859,899.86 L859,750.86 A2.5,2.5 0 0 1 861.5,748.36 " fill="none" style="stroke:#000000;stroke-width:1.5;"/><line style="stroke:#000000;stroke-width:1.5;" x1="859" x2="1152" y1="781.6" y2="781.6"/><text fill="#000000" font-family="sans-serif" font-size="20" font-weight="bold" lengthAdjust="spacing" textLength="280" x="863" y="771.74">«aggregate» FormativeExam</text></g><!--cluster <<aggregate>> EvaluationExam--><g id="cluster_&lt;&lt;aggregate&gt;&gt; EvaluationExam"><path d="M1501.5,517.86 L1786.125,517.86 A3.75,3.75 0 0 1 1788.625,520.36 L1795.625,551.1 L1885.5,551.1 A2.5,2.5 0 0 1 1888,553.6 L1888,1072.86 A2.5,2.5 0 0 1 1885.5,1075.36 L1501.5,1075.36 A2.5,2.5 0 0 1 1499,1072.86 L1499,520.36 A2.5,2.5 0 0 1 1501.5,517.86 " fill="none" style="stroke:#000000;stroke-width:1.5;"/><line style="stroke:#000000;stroke-width:1.5;" x1="1499" x2="1795.625" y1="551.1" y2="551.1"/><text fill="#000000" font-family="sans-serif" font-size="20" font-weight="bold" lengthAdjust="spacing" textLength="283.625" x="1503" y="541.24">«aggregate» EvaluationExam</text></g><!--cluster <<agregate>> Question--><g id="cluster_&lt;&lt;agregate&gt;&gt; Question"><path d="M25.5,1150.36 L230.75,1150.36 A3.75,3.75 0 0 1 233.25,1152.86 L240.25,1183.6 L240.5,1183.6 A2.5,2.5 0 0 1 243,1186.1 L243,1301.86 A2.5,2.5 0 0 1 240.5,1304.36 L25.5,1304.36 A2.5,2.5 0 0 1 23,1301.86 L23,1152.86 A2.5,2.5 0 0 1 25.5,1150.36 " fill="none" style="stroke:#000000;stroke-width:1.5;"/><line style="stroke:#000000;stroke-width:1.5;" x1="23" x2="240.25" y1="1183.6" y2="1183.6"/><text fill="#000000" font-family="sans-serif" font-size="20" font-weight="bold" lengthAdjust="spacing" textLength="204.25" x="27" y="1173.74">«agregate» Question</text></g><!--cluster <<aggregate>> Student--><g id="cluster_&lt;&lt;aggregate&gt;&gt; Student"><path d="M662.5,8.36 L866.75,8.36 A3.75,3.75 0 0 1 869.25,10.86 L876.25,41.6 L876.5,41.6 A2.5,2.5 0 0 1 879,44.1 L879,159.86 A2.5,2.5 0 0 1 876.5,162.36 L662.5,162.36 A2.5,2.5 0 0 1 660,159.86 L660,10.86 A2.5,2.5 0 0 1 662.5,8.36 " fill="none" style="stroke:#000000;stroke-width:1.5;"/><line style="stroke:#000000;stroke-width:1.5;" x1="660" x2="876.25" y1="41.6" y2="41.6"/><text fill="#000000" font-family="sans-serif" font-size="20" font-weight="bold" lengthAdjust="spacing" textLength="203.25" x="664" y="31.74">«aggregate» Student</text></g><!--cluster <<aggregate>> Course--><g id="cluster_&lt;&lt;aggregate&gt;&gt; Course"><path d="M1020.5,935.36 L1218.125,935.36 A3.75,3.75 0 0 1 1220.625,937.86 L1227.625,968.6 L1227.5,968.6 A2.5,2.5 0 0 1 1230,971.1 L1230,1086.86 A2.5,2.5 0 0 1 1227.5,1089.36 L1020.5,1089.36 A2.5,2.5 0 0 1 1018,1086.86 L1018,937.86 A2.5,2.5 0 0 1 1020.5,935.36 " fill="none" style="stroke:#000000;stroke-width:1.5;"/><line style="stroke:#000000;stroke-width:1.5;" x1="1018" x2="1227.625" y1="968.6" y2="968.6"/><text fill="#000000" font-family="sans-serif" font-size="20" font-weight="bold" lengthAdjust="spacing" textLength="196.625" x="1022" y="958.74">«aggregate» Course</text></g><!--cluster <<aggregate>> ExamAnswer--><g id="cluster_&lt;&lt;aggregate&gt;&gt; ExamAnswer"><path d="M636.5,223.36 L892.625,223.36 A3.75,3.75 0 0 1 895.125,225.86 L902.125,256.6 L902.5,256.6 A2.5,2.5 0 0 1 905,259.1 L905,374.86 A2.5,2.5 0 0 1 902.5,377.36 L636.5,377.36 A2.5,2.5 0 0 1 634,374.86 L634,225.86 A2.5,2.5 0 0 1 636.5,223.36 " fill="none" style="stroke:#000000;stroke-width:1.5;"/><line style="stroke:#000000;stroke-width:1.5;" x1="634" x2="902.125" y1="256.6" y2="256.6"/><text fill="#000000" font-family="sans-serif" font-size="20" font-weight="bold" lengthAdjust="spacing" textLength="255.125" x="638" y="246.74">«aggregate» ExamAnswer</text></g><!--cluster <<aggregate>> Teacher--><g id="cluster_&lt;&lt;aggregate&gt;&gt; Teacher"><path d="M1256.5,935.36 L1462.75,935.36 A3.75,3.75 0 0 1 1465.25,937.86 L1472.25,968.6 L1472.5,968.6 A2.5,2.5 0 0 1 1475,971.1 L1475,1086.86 A2.5,2.5 0 0 1 1472.5,1089.36 L1256.5,1089.36 A2.5,2.5 0 0 1 1254,1086.86 L1254,937.86 A2.5,2.5 0 0 1 1256.5,935.36 " fill="none" style="stroke:#000000;stroke-width:1.5;"/><line style="stroke:#000000;stroke-width:1.5;" x1="1254" x2="1472.25" y1="968.6" y2="968.6"/><text fill="#000000" font-family="sans-serif" font-size="20" font-weight="bold" lengthAdjust="spacing" textLength="205.25" x="1258" y="958.74">«aggregate» Teacher</text></g><!--class Exam--><g id="elem_Exam"><rect codeLine="78" fill="#F5F5DC" height="126.9599" id="Exam" rx="2.5" ry="2.5" style="stroke:#181818;stroke-width:0.5;" width="100" x="719" y="546.36"/><ellipse cx="735" cy="592.22" fill="#ADD1B2" rx="12" ry="12" style="stroke:#181818;stroke-width:1.0;"/><path d="M739.0469,599.72 L730.4375,599.72 L730.4375,584.8137 L739.0469,584.8137 L739.0469,587.0168 L732.8594,587.0168 L732.8594,590.8606 L738.6875,590.8606 L738.6875,593.0325 L732.8594,593.0325 L732.8594,597.5168 L739.0469,597.5168 L739.0469,599.72 Z " fill="#000000"/><text fill="#000000" font-family="sans-serif" font-size="20" font-style="italic" lengthAdjust="spacing" textLength="70" x="748" y="572.74">«entity»</text><text fill="#000000" font-family="sans-serif" font-size="20" font-style="italic" lengthAdjust="spacing" textLength="57" x="754.5" y="599.9799">«root»</text><text fill="#000000" font-family="sans-serif" font-size="20" lengthAdjust="spacing" textLength="52" x="757" y="627.2199">Exam</text><line style="stroke:#181818;stroke-width:0.5;" x1="720" x2="818" y1="638.0799" y2="638.0799"/><text fill="#000000" font-family="sans-serif" font-size="20" lengthAdjust="spacing" textLength="47" x="725" y="663.4599">-date</text></g><!--class Section--><g id="elem_Section"><rect codeLine="82" fill="#F5F5DC" height="64.4799" id="Section" rx="2.5" ry="2.5" style="stroke:#181818;stroke-width:0.5;" width="102" x="412" y="808.36"/><ellipse cx="428" cy="840.6" fill="#ADD1B2" rx="12" ry="12" style="stroke:#181818;stroke-width:1.0;"/><path d="M432.0469,848.1 L423.4375,848.1 L423.4375,833.1937 L432.0469,833.1937 L432.0469,835.3968 L425.8594,835.3968 L425.8594,839.2406 L431.6875,839.2406 L431.6875,841.4125 L425.8594,841.4125 L425.8594,845.8968 L432.0469,845.8968 L432.0469,848.1 Z " fill="#000000"/><text fill="#000000" font-family="sans-serif" font-size="20" font-style="italic" lengthAdjust="spacing" textLength="70" x="442" y="834.74">«entity»</text><text fill="#000000" font-family="sans-serif" font-size="20" lengthAdjust="spacing" textLength="68" x="443" y="861.9799">Section</text></g><!--class Description--><g id="elem_Description"><rect codeLine="89" fill="#F5F5DC" height="64.4799" id="Description" rx="2.5" ry="2.5" style="stroke:#181818;stroke-width:0.5;" width="156" x="549" y="808.36"/><ellipse cx="565" cy="840.6" fill="#FF8B40" rx="12" ry="12" style="stroke:#181818;stroke-width:1.0;"/><path d="M571.25,834.4437 L565.9375,849.35 L563.6875,849.35 L558.375,834.4437 L560.9063,834.4437 L564.2031,843.8031 Q564.4219,844.3968 564.5781,844.9437 Q564.75,845.4906 564.875,845.9906 Q565.0156,846.475 564.8125,846.5218 Q564.5938,846.4906 564.7344,845.975 Q564.875,845.4593 565.0469,844.9281 Q565.2188,844.3812 565.4219,843.7718 L568.6875,834.4437 L571.25,834.4437 Z " fill="#000000"/><text fill="#000000" font-family="sans-serif" font-size="20" font-style="italic" lengthAdjust="spacing" textLength="126" x="578" y="834.74">«value object»</text><text fill="#000000" font-family="sans-serif" font-size="20" lengthAdjust="spacing" textLength="107" x="587.5" y="861.9799">Description</text></g><!--class SectionQuestion--><g id="elem_SectionQuestion"><rect codeLine="51" fill="#F5F5DC" height="64.4799" id="SectionQuestion" rx="2.5" ry="2.5" style="stroke:#181818;stroke-width:0.5;" width="187" x="22.5" y="995.36"/><ellipse cx="38.5" cy="1027.6" fill="#ADD1B2" rx="12" ry="12" style="stroke:#181818;stroke-width:1.0;"/><path d="M42.5469,1035.1 L33.9375,1035.1 L33.9375,1020.1937 L42.5469,1020.1937 L42.5469,1022.3968 L36.3594,1022.3968 L36.3594,1026.2406 L42.1875,1026.2406 L42.1875,1028.4125 L36.3594,1028.4125 L36.3594,1032.8968 L42.5469,1032.8968 L42.5469,1035.1 Z " fill="#000000"/><text fill="#000000" font-family="sans-serif" font-size="20" font-style="italic" lengthAdjust="spacing" textLength="70" x="95" y="1021.74">«entity»</text><text fill="#000000" font-family="sans-serif" font-size="20" lengthAdjust="spacing" textLength="153" x="53.5" y="1048.9799">SectionQuestion</text></g><!--class Score--><g id="elem_Score"><rect codeLine="91" fill="#F5F5DC" height="64.4799" id="Score" rx="2.5" ry="2.5" style="stroke:#181818;stroke-width:0.5;" width="156" x="279" y="995.36"/><ellipse cx="295" cy="1027.6" fill="#FF8B40" rx="12" ry="12" style="stroke:#181818;stroke-width:1.0;"/><path d="M301.25,1021.4437 L295.9375,1036.35 L293.6875,1036.35 L288.375,1021.4437 L290.9063,1021.4437 L294.2031,1030.8031 Q294.4219,1031.3968 294.5781,1031.9437 Q294.75,1032.4906 294.875,1032.9906 Q295.0156,1033.475 294.8125,1033.5218 Q294.5938,1033.4906 294.7344,1032.975 Q294.875,1032.4593 295.0469,1031.9281 Q295.2188,1031.3812 295.4219,1030.7718 L298.6875,1021.4437 L301.25,1021.4437 Z " fill="#000000"/><text fill="#000000" font-family="sans-serif" font-size="20" font-style="italic" lengthAdjust="spacing" textLength="126" x="308" y="1021.74">«value object»</text><text fill="#000000" font-family="sans-serif" font-size="20" lengthAdjust="spacing" textLength="52" x="345" y="1048.9799">Score</text></g><!--class State--><g id="elem_State"><rect codeLine="85" fill="#F5F5DC" height="64.4799" id="State" rx="2.5" ry="2.5" style="stroke:#181818;stroke-width:0.5;" width="156" x="663" y="995.36"/><ellipse cx="679" cy="1027.6" fill="#FF8B40" rx="12" ry="12" style="stroke:#181818;stroke-width:1.0;"/><path d="M685.25,1021.4437 L679.9375,1036.35 L677.6875,1036.35 L672.375,1021.4437 L674.9063,1021.4437 L678.2031,1030.8031 Q678.4219,1031.3968 678.5781,1031.9437 Q678.75,1032.4906 678.875,1032.9906 Q679.0156,1033.475 678.8125,1033.5218 Q678.5938,1033.4906 678.7344,1032.975 Q678.875,1032.4593 679.0469,1031.9281 Q679.2188,1031.3812 679.4219,1030.7718 L682.6875,1021.4437 L685.25,1021.4437 Z " fill="#000000"/><text fill="#000000" font-family="sans-serif" font-size="20" font-style="italic" lengthAdjust="spacing" textLength="126" x="692" y="1021.74">«value object»</text><text fill="#000000" font-family="sans-serif" font-size="20" lengthAdjust="spacing" textLength="47" x="731.5" y="1048.9799">State</text></g><!--class SectionName--><g id="elem_SectionName"><rect codeLine="84" fill="#F5F5DC" height="64.4799" id="SectionName" rx="2.5" ry="2.5" style="stroke:#181818;stroke-width:0.5;" width="158" x="470" y="995.36"/><ellipse cx="486" cy="1027.6" fill="#FF8B40" rx="12" ry="12" style="stroke:#181818;stroke-width:1.0;"/><path d="M492.25,1021.4437 L486.9375,1036.35 L484.6875,1036.35 L479.375,1021.4437 L481.9063,1021.4437 L485.2031,1030.8031 Q485.4219,1031.3968 485.5781,1031.9437 Q485.75,1032.4906 485.875,1032.9906 Q486.0156,1033.475 485.8125,1033.5218 Q485.5938,1033.4906 485.7344,1032.975 Q485.875,1032.4593 486.0469,1031.9281 Q486.2188,1031.3812 486.4219,1030.7718 L489.6875,1021.4437 L492.25,1021.4437 Z " fill="#000000"/><text fill="#000000" font-family="sans-serif" font-size="20" font-style="italic" lengthAdjust="spacing" textLength="126" x="500" y="1021.74">«value object»</text><text fill="#000000" font-family="sans-serif" font-size="20" lengthAdjust="spacing" textLength="124" x="501" y="1048.9799">SectionName</text></g><!--class FormativeExam--><g id="elem_FormativeExam"><rect codeLine="29" fill="#F5F5DC" height="91.7199" id="FormativeExam" rx="2.5" ry="2.5" style="stroke:#181818;stroke-width:0.5;" width="179" x="875.5" y="794.36"/><ellipse cx="891.5" cy="840.22" fill="#ADD1B2" rx="12" ry="12" style="stroke:#181818;stroke-width:1.0;"/><path d="M895.5469,847.72 L886.9375,847.72 L886.9375,832.8137 L895.5469,832.8137 L895.5469,835.0168 L889.3594,835.0168 L889.3594,838.8606 L895.1875,838.8606 L895.1875,841.0325 L889.3594,841.0325 L889.3594,845.5168 L895.5469,845.5168 L895.5469,847.72 Z " fill="#000000"/><text fill="#000000" font-family="sans-serif" font-size="20" font-style="italic" lengthAdjust="spacing" textLength="70" x="944" y="820.74">«entity»</text><text fill="#000000" font-family="sans-serif" font-size="20" font-style="italic" lengthAdjust="spacing" textLength="57" x="950.5" y="847.9799">«root»</text><text fill="#000000" font-family="sans-serif" font-size="20" lengthAdjust="spacing" textLength="145" x="906.5" y="875.2199">FormativeExam</text></g><!--class EvaluationExam--><g id="elem_EvaluationExam"><rect codeLine="40" fill="#F5F5DC" height="91.7199" id="EvaluationExam" rx="2.5" ry="2.5" style="stroke:#181818;stroke-width:0.5;" width="182" x="1591" y="563.86"/><ellipse cx="1607" cy="609.72" fill="#ADD1B2" rx="12" ry="12" style="stroke:#181818;stroke-width:1.0;"/><path d="M1611.0469,617.22 L1602.4375,617.22 L1602.4375,602.3137 L1611.0469,602.3137 L1611.0469,604.5168 L1604.8594,604.5168 L1604.8594,608.3606 L1610.6875,608.3606 L1610.6875,610.5325 L1604.8594,610.5325 L1604.8594,615.0168 L1611.0469,615.0168 L1611.0469,617.22 Z " fill="#000000"/><text fill="#000000" font-family="sans-serif" font-size="20" font-style="italic" lengthAdjust="spacing" textLength="70" x="1661" y="590.24">«entity»</text><text fill="#000000" font-family="sans-serif" font-size="20" font-style="italic" lengthAdjust="spacing" textLength="57" x="1667.5" y="617.4799">«root»</text><text fill="#000000" font-family="sans-serif" font-size="20" lengthAdjust="spacing" textLength="148" x="1622" y="644.7199">EvaluationExam</text></g><!--class Time--><g id="elem_Time"><rect codeLine="90" fill="#F5F5DC" height="64.4799" id="Time" rx="2.5" ry="2.5" style="stroke:#181818;stroke-width:0.5;" width="156" x="1548" y="808.36"/><ellipse cx="1564" cy="840.6" fill="#FF8B40" rx="12" ry="12" style="stroke:#181818;stroke-width:1.0;"/><path d="M1570.25,834.4437 L1564.9375,849.35 L1562.6875,849.35 L1557.375,834.4437 L1559.9063,834.4437 L1563.2031,843.8031 Q1563.4219,844.3968 1563.5781,844.9437 Q1563.75,845.4906 1563.875,845.9906 Q1564.0156,846.475 1563.8125,846.5218 Q1563.5938,846.4906 1563.7344,845.975 Q1563.875,845.4593 1564.0469,844.9281 Q1564.2188,844.3812 1564.4219,843.7718 L1567.6875,834.4437 L1570.25,834.4437 Z " fill="#000000"/><text fill="#000000" font-family="sans-serif" font-size="20" font-style="italic" lengthAdjust="spacing" textLength="126" x="1577" y="834.74">«value object»</text><text fill="#000000" font-family="sans-serif" font-size="20" lengthAdjust="spacing" textLength="46" x="1617" y="861.9799">Time</text></g><!--class FeedbackType--><g id="elem_FeedbackType"><rect codeLine="87" fill="#F5F5DC" height="64.4799" id="FeedbackType" rx="2.5" ry="2.5" style="stroke:#181818;stroke-width:0.5;" width="166" x="1515" y="995.36"/><ellipse cx="1531" cy="1027.6" fill="#FF8B40" rx="12" ry="12" style="stroke:#181818;stroke-width:1.0;"/><path d="M1537.25,1021.4437 L1531.9375,1036.35 L1529.6875,1036.35 L1524.375,1021.4437 L1526.9063,1021.4437 L1530.2031,1030.8031 Q1530.4219,1031.3968 1530.5781,1031.9437 Q1530.75,1032.4906 1530.875,1032.9906 Q1531.0156,1033.475 1530.8125,1033.5218 Q1530.5938,1033.4906 1530.7344,1032.975 Q1530.875,1032.4593 1531.0469,1031.9281 Q1531.2188,1031.3812 1531.4219,1030.7718 L1534.6875,1021.4437 L1537.25,1021.4437 Z " fill="#000000"/><text fill="#000000" font-family="sans-serif" font-size="20" font-style="italic" lengthAdjust="spacing" textLength="126" x="1549" y="1021.74">«value object»</text><text fill="#000000" font-family="sans-serif" font-size="20" lengthAdjust="spacing" textLength="132" x="1546" y="1048.9799">FeedbackType</text></g><!--class GradeType--><g id="elem_GradeType"><rect codeLine="88" fill="#F5F5DC" height="64.4799" id="GradeType" rx="2.5" ry="2.5" style="stroke:#181818;stroke-width:0.5;" width="156" x="1716" y="995.36"/><ellipse cx="1732" cy="1027.6" fill="#FF8B40" rx="12" ry="12" style="stroke:#181818;stroke-width:1.0;"/><path d="M1738.25,1021.4437 L1732.9375,1036.35 L1730.6875,1036.35 L1725.375,1021.4437 L1727.9063,1021.4437 L1731.2031,1030.8031 Q1731.4219,1031.3968 1731.5781,1031.9437 Q1731.75,1032.4906 1731.875,1032.9906 Q1732.0156,1033.475 1731.8125,1033.5218 Q1731.5938,1033.4906 1731.7344,1032.975 Q1731.875,1032.4593 1732.0469,1031.9281 Q1732.2188,1031.3812 1732.4219,1030.7718 L1735.6875,1021.4437 L1738.25,1021.4437 Z " fill="#000000"/><text fill="#000000" font-family="sans-serif" font-size="20" font-style="italic" lengthAdjust="spacing" textLength="126" x="1745" y="1021.74">«value object»</text><text fill="#000000" font-family="sans-serif" font-size="20" lengthAdjust="spacing" textLength="101" x="1757.5" y="1048.9799">GradeType</text></g><!--class Question--><g id="elem_Question"><rect codeLine="93" fill="#F5F5DC" height="91.7199" id="Question" rx="2.5" ry="2.5" style="stroke:#181818;stroke-width:0.5;" width="119" x="56.5" y="1196.36"/><ellipse cx="72.5" cy="1242.22" fill="#ADD1B2" rx="12" ry="12" style="stroke:#181818;stroke-width:1.0;"/><path d="M76.5469,1249.72 L67.9375,1249.72 L67.9375,1234.8137 L76.5469,1234.8137 L76.5469,1237.0168 L70.3594,1237.0168 L70.3594,1240.8606 L76.1875,1240.8606 L76.1875,1243.0325 L70.3594,1243.0325 L70.3594,1247.5168 L76.5469,1247.5168 L76.5469,1249.72 Z " fill="#000000"/><text fill="#000000" font-family="sans-serif" font-size="20" font-style="italic" lengthAdjust="spacing" textLength="70" x="95" y="1222.74">«entity»</text><text fill="#000000" font-family="sans-serif" font-size="20" font-style="italic" lengthAdjust="spacing" textLength="57" x="101.5" y="1249.9799">«root»</text><text fill="#000000" font-family="sans-serif" font-size="20" lengthAdjust="spacing" textLength="85" x="87.5" y="1277.2199">Question</text></g><!--class Student--><g id="elem_Student"><rect codeLine="54" fill="#F5F5DC" height="91.7199" id="Student" rx="2.5" ry="2.5" style="stroke:#181818;stroke-width:0.5;" width="106" x="716" y="54.36"/><ellipse cx="732" cy="100.22" fill="#ADD1B2" rx="12" ry="12" style="stroke:#181818;stroke-width:1.0;"/><path d="M736.0469,107.72 L727.4375,107.72 L727.4375,92.8137 L736.0469,92.8137 L736.0469,95.0168 L729.8594,95.0168 L729.8594,98.8606 L735.6875,98.8606 L735.6875,101.0325 L729.8594,101.0325 L729.8594,105.5168 L736.0469,105.5168 L736.0469,107.72 Z " fill="#000000"/><text fill="#000000" font-family="sans-serif" font-size="20" font-style="italic" lengthAdjust="spacing" textLength="70" x="748" y="80.74">«entity»</text><text fill="#000000" font-family="sans-serif" font-size="20" font-style="italic" lengthAdjust="spacing" textLength="57" x="754.5" y="107.9799">«root»</text><text fill="#000000" font-family="sans-serif" font-size="20" lengthAdjust="spacing" textLength="72" x="747" y="135.2199">Student</text></g><!--class Course--><g id="elem_Course"><rect codeLine="61" fill="#F5F5DC" height="91.7199" id="Course" rx="2.5" ry="2.5" style="stroke:#181818;stroke-width:0.5;" width="100" x="1114" y="981.36"/><ellipse cx="1130" cy="1027.22" fill="#ADD1B2" rx="12" ry="12" style="stroke:#181818;stroke-width:1.0;"/><path d="M1134.0469,1034.72 L1125.4375,1034.72 L1125.4375,1019.8137 L1134.0469,1019.8137 L1134.0469,1022.0168 L1127.8594,1022.0168 L1127.8594,1025.8606 L1133.6875,1025.8606 L1133.6875,1028.0325 L1127.8594,1028.0325 L1127.8594,1032.5168 L1134.0469,1032.5168 L1134.0469,1034.72 Z " fill="#000000"/><text fill="#000000" font-family="sans-serif" font-size="20" font-style="italic" lengthAdjust="spacing" textLength="70" x="1143" y="1007.74">«entity»</text><text fill="#000000" font-family="sans-serif" font-size="20" font-style="italic" lengthAdjust="spacing" textLength="57" x="1149.5" y="1034.9799">«root»</text><text fill="#000000" font-family="sans-serif" font-size="20" lengthAdjust="spacing" textLength="66" x="1145" y="1062.2199">Course</text></g><!--class ExamAnswer--><g id="elem_ExamAnswer"><rect codeLine="68" fill="#F5F5DC" height="91.7199" id="ExamAnswer" rx="2.5" ry="2.5" style="stroke:#181818;stroke-width:0.5;" width="156" x="691" y="269.36"/><ellipse cx="707" cy="315.22" fill="#ADD1B2" rx="12" ry="12" style="stroke:#181818;stroke-width:1.0;"/><path d="M711.0469,322.72 L702.4375,322.72 L702.4375,307.8137 L711.0469,307.8137 L711.0469,310.0168 L704.8594,310.0168 L704.8594,313.8606 L710.6875,313.8606 L710.6875,316.0325 L704.8594,316.0325 L704.8594,320.5168 L711.0469,320.5168 L711.0469,322.72 Z " fill="#000000"/><text fill="#000000" font-family="sans-serif" font-size="20" font-style="italic" lengthAdjust="spacing" textLength="70" x="748" y="295.74">«entity»</text><text fill="#000000" font-family="sans-serif" font-size="20" font-style="italic" lengthAdjust="spacing" textLength="57" x="754.5" y="322.9799">«root»</text><text fill="#000000" font-family="sans-serif" font-size="20" lengthAdjust="spacing" textLength="122" x="722" y="350.2199">ExamAnswer</text></g><!--class Teacher--><g id="elem_Teacher"><rect codeLine="75" fill="#F5F5DC" height="91.7199" id="Teacher" rx="2.5" ry="2.5" style="stroke:#181818;stroke-width:0.5;" width="108" x="1290" y="981.36"/><ellipse cx="1306" cy="1027.22" fill="#ADD1B2" rx="12" ry="12" style="stroke:#181818;stroke-width:1.0;"/><path d="M1310.0469,1034.72 L1301.4375,1034.72 L1301.4375,1019.8137 L1310.0469,1019.8137 L1310.0469,1022.0168 L1303.8594,1022.0168 L1303.8594,1025.8606 L1309.6875,1025.8606 L1309.6875,1028.0325 L1303.8594,1028.0325 L1303.8594,1032.5168 L1310.0469,1032.5168 L1310.0469,1034.72 Z " fill="#000000"/><text fill="#000000" font-family="sans-serif" font-size="20" font-style="italic" lengthAdjust="spacing" textLength="70" x="1323" y="1007.74">«entity»</text><text fill="#000000" font-family="sans-serif" font-size="20" font-style="italic" lengthAdjust="spacing" textLength="57" x="1329.5" y="1034.9799">«root»</text><text fill="#000000" font-family="sans-serif" font-size="20" lengthAdjust="spacing" textLength="74" x="1321" y="1062.2199">Teacher</text></g><g id="elem_GMN32"><path d="M676,1210.36 L676,1274.8399 A0,0 0 0 0 676,1274.8399 L806,1274.8399 A0,0 0 0 0 806,1274.8399 L806,1220.36 L796,1210.36 L745,1210.36 L741,1059.79 L737,1210.36 L676,1210.36 A0,0 0 0 0 676,1210.36 " fill="#FEFFDD" style="stroke:#181818;stroke-width:0.5;"/><path d="M796,1210.36 L796,1220.36 L806,1220.36 L796,1210.36 " fill="#FEFFDD" style="stroke:#181818;stroke-width:0.5;"/><text fill="#000000" font-family="sans-serif" font-size="20" lengthAdjust="spacing" textLength="61" x="682" y="1236.74">DRAFT</text><text fill="#000000" font-family="sans-serif" font-size="20" lengthAdjust="spacing" textLength="109" x="682" y="1263.9799">PUBLISHED</text></g><g id="elem_GMN41"><path d="M1504,1196.36 L1504,1288.0799 A0,0 0 0 0 1504,1288.0799 L1678,1288.0799 A0,0 0 0 0 1678,1288.0799 L1678,1206.36 L1668,1196.36 L1596.49,1196.36 L1596.97,1059.79 L1588.49,1196.36 L1504,1196.36 A0,0 0 0 0 1504,1196.36 " fill="#FEFFDD" style="stroke:#181818;stroke-width:0.5;"/><path d="M1668,1196.36 L1668,1206.36 L1678,1206.36 L1668,1196.36 " fill="#FEFFDD" style="stroke:#181818;stroke-width:0.5;"/><text fill="#000000" font-family="sans-serif" font-size="20" lengthAdjust="spacing" textLength="57" x="1510" y="1222.74">NONE</text><text fill="#000000" font-family="sans-serif" font-size="20" lengthAdjust="spacing" textLength="153" x="1510" y="1249.9799">ON_SUBMITION</text><text fill="#000000" font-family="sans-serif" font-size="20" lengthAdjust="spacing" textLength="153" x="1510" y="1277.2199">AFTER_CLOSING</text></g><g id="elem_GMN44"><path d="M1713,1196.36 L1713,1288.0799 A0,0 0 0 0 1713,1288.0799 L1887,1288.0799 A0,0 0 0 0 1887,1288.0799 L1887,1206.36 L1877,1196.36 L1802.72,1196.36 L1794.89,1059.79 L1794.72,1196.36 L1713,1196.36 A0,0 0 0 0 1713,1196.36 " fill="#FEFFDD" style="stroke:#181818;stroke-width:0.5;"/><path d="M1877,1196.36 L1877,1206.36 L1887,1206.36 L1877,1196.36 " fill="#FEFFDD" style="stroke:#181818;stroke-width:0.5;"/><text fill="#000000" font-family="sans-serif" font-size="20" lengthAdjust="spacing" textLength="57" x="1719" y="1222.74">NONE</text><text fill="#000000" font-family="sans-serif" font-size="20" lengthAdjust="spacing" textLength="153" x="1719" y="1249.9799">ON_SUBMITION</text><text fill="#000000" font-family="sans-serif" font-size="20" lengthAdjust="spacing" textLength="153" x="1719" y="1277.2199">AFTER_CLOSING</text></g><!--reverse link Exam to EvaluationExam--><g id="link_Exam_EvaluationExam"><path codeLine="95" d="M840.84,609.86 C1090.76,609.86 1340.68,609.86 1590.6,609.86 " fill="none" id="Exam-backto-EvaluationExam" style="stroke:#222222;stroke-width:1.0;"/><polygon fill="none" points="840.89,616.86,820.89,609.86,840.89,602.86,840.89,616.86" style="stroke:#222222;stroke-width:1.0;"/></g><!--reverse link Exam to FormativeExam--><g id="link_Exam_FormativeExam"><path codeLine="96" d="M833.17,685.68 C863.87,721.47 899.62,763.14 926.14,794.06 " fill="none" id="Exam-backto-FormativeExam" style="stroke:#222222;stroke-width:1.0;"/><polygon fill="none" points="828.17,690.59,820.46,670.85,838.79,681.48,828.17,690.59" style="stroke:#222222;stroke-width:1.0;"/></g><!--link EvaluationExam to Time--><g id="link_EvaluationExam_Time"><path codeLine="98" d="M1590.56,655.41 C1573.06,668.35 1557.07,684.26 1547,703.36 C1528.75,737.98 1555.7,776.47 1582.96,803.64 " fill="none" id="EvaluationExam-to-Time" style="stroke:#222222;stroke-width:1.0;"/><polygon fill="#222222" points="1586.25,806.84,1582.6035,797.691,1582.672,803.3475,1577.0155,803.4159,1586.25,806.84" style="stroke:#222222;stroke-width:1.0;"/><text fill="#000000" font-family="sans-serif" font-size="20" lengthAdjust="spacing" textLength="90" x="1548" y="725.74">start time</text><text fill="#000000" font-family="sans-serif" font-size="20" lengthAdjust="spacing" textLength="32" x="1545.9336" y="794.36">0..1</text></g><!--link EvaluationExam to Time--><g id="link_EvaluationExam_Time"><path codeLine="99" d="M1670.87,656.28 C1660.42,698.9 1644.98,761.9 1635.21,801.77 " fill="none" id="EvaluationExam-to-Time-1" style="stroke:#222222;stroke-width:1.0;"/><polygon fill="#222222" points="1634.05,806.49,1640.0756,798.6995,1635.2391,801.6334,1632.3051,796.7969,1634.05,806.49" style="stroke:#222222;stroke-width:1.0;"/><text fill="#000000" font-family="sans-serif" font-size="20" lengthAdjust="spacing" textLength="82" x="1660" y="725.74">end time</text><text fill="#000000" font-family="sans-serif" font-size="20" lengthAdjust="spacing" textLength="32" x="1600.2617" y="794.4303">0..1</text></g><!--link Exam to State--><g id="link_Exam_State"><path codeLine="101" d="M764.78,673.51 C758.88,761.1 748.34,917.41 743.53,988.86 " fill="none" id="Exam-to-State" style="stroke:#222222;stroke-width:1.0;"/><polygon fill="#222222" points="743.21,993.58,747.818,984.8756,743.553,988.5918,739.8369,984.3268,743.21,993.58" style="stroke:#222222;stroke-width:1.0;"/><text fill="#000000" font-family="sans-serif" font-size="20" lengthAdjust="spacing" textLength="37" x="761" y="848.24">is in</text><text fill="#000000" font-family="sans-serif" font-size="20" lengthAdjust="spacing" textLength="11" x="731.5273" y="981.5826">1</text></g><!--reverse link Exam to Section--><g id="link_Exam_Section"><path codeLine="108" d="M705.42,635.91 C654.6,658.08 583.59,694.09 532,740.36 C510.48,759.66 492.11,786.92 479.75,807.95 " fill="none" id="Exam-backto-Section" style="stroke:#222222;stroke-width:1.0;"/><polygon fill="#222222" points="717.14,630.9,710.0498,629.5849,706.1089,635.6238,713.1991,636.939,717.14,630.9" style="stroke:#222222;stroke-width:1.0;"/><text fill="#000000" font-family="sans-serif" font-size="20" lengthAdjust="spacing" textLength="32" x="447.8789" y="794.4186">1..*</text></g><!--link Exam to Course--><g id="link_Exam_Course"><path codeLine="109" d="M819.49,619.23 C886.28,632.91 1003.39,666.32 1071,740.36 C1131.25,806.34 1152.51,911.9 1159.98,974.65 " fill="none" id="Exam-to-Course" style="stroke:#222222;stroke-width:1.0;"/><polygon fill="#222222" points="1160.53,979.45,1163.4761,970.0521,1159.959,974.4827,1155.5284,970.9656,1160.53,979.45" style="stroke:#222222;stroke-width:1.0;"/><text fill="#000000" font-family="sans-serif" font-size="20" lengthAdjust="spacing" textLength="66" x="1149" y="848.24">is from</text><text fill="#000000" font-family="sans-serif" font-size="20" lengthAdjust="spacing" textLength="11" x="1148.5175" y="967.3259">1</text></g><!--link Exam to Teacher--><g id="link_Exam_Teacher"><path codeLine="110" d="M819.4,611.54 C911.12,615.42 1106.63,636.29 1224,740.36 C1293.57,802.05 1323.89,910.64 1336.25,974.8 " fill="none" id="Exam-to-Teacher" style="stroke:#222222;stroke-width:1.0;"/><polygon fill="#222222" points="1337.11,979.38,1339.3694,969.7938,1336.1817,974.4669,1331.5085,971.2792,1337.11,979.38" style="stroke:#222222;stroke-width:1.0;"/><text fill="#000000" font-family="sans-serif" font-size="20" lengthAdjust="spacing" textLength="117" x="1321" y="848.24">is created by</text><text fill="#000000" font-family="sans-serif" font-size="20" lengthAdjust="spacing" textLength="11" x="1324.8384" y="967.5858">1</text></g><!--reverse link EvaluationExam to FeedbackType--><g id="link_EvaluationExam_FeedbackType"><path codeLine="112" d="M1732.94,667.67 C1740.36,678.82 1746.88,690.93 1751,703.36 C1770.21,761.23 1800.71,781.38 1722,910.36 C1715.38,921.21 1708.67,919.11 1699,927.36 C1673.96,948.71 1647.46,974.83 1627.89,994.88 " fill="none" id="EvaluationExam-backto-FeedbackType" style="stroke:#222222;stroke-width:1.0;"/><polygon fill="#222222" points="1725.49,657.22,1725.7207,664.4274,1732.4624,666.9866,1732.2317,659.7792,1725.49,657.22" style="stroke:#222222;stroke-width:1.0;"/><text fill="#000000" font-family="sans-serif" font-size="20" lengthAdjust="spacing" textLength="11" x="1620.9296" y="981.6247">1</text></g><!--reverse link EvaluationExam to GradeType--><g id="link_EvaluationExam_GradeType"><path codeLine="113" d="M1742.22,666.89 C1751.24,678.11 1759.38,690.45 1765,703.36 C1808.24,802.74 1802.85,935.3 1797.51,994.94 " fill="none" id="EvaluationExam-backto-GradeType" style="stroke:#222222;stroke-width:1.0;"/><polygon fill="#222222" points="1733.95,657.22,1734.8049,664.3802,1741.7432,666.345,1740.8883,659.1848,1733.95,657.22" style="stroke:#222222;stroke-width:1.0;"/><text fill="#000000" font-family="sans-serif" font-size="20" lengthAdjust="spacing" textLength="11" x="1786.168" y="981.4069">1</text></g><!--reverse link Exam to Description--><g id="link_Exam_Description"><path codeLine="114" d="M722.37,685.9 C696.61,727.35 665.99,776.62 646.52,807.94 " fill="none" id="Exam-backto-Description" style="stroke:#222222;stroke-width:1.0;"/><polygon fill="#222222" points="729.21,674.89,722.6467,677.8771,722.8797,685.0845,729.443,682.0973,729.21,674.89" style="stroke:#222222;stroke-width:1.0;"/><text fill="#000000" font-family="sans-serif" font-size="20" lengthAdjust="spacing" textLength="11" x="637.9297" y="794.4069">1</text></g><!--reverse link Section to SectionQuestion--><g id="link_Section_SectionQuestion"><path codeLine="128" d="M398.42,865.1 C358,880.87 305.36,903.08 261,927.36 C224.37,947.41 185.42,974.35 157.12,995.07 " fill="none" id="Section-backto-SectionQuestion" style="stroke:#222222;stroke-width:1.0;"/><polygon fill="#222222" points="410.49,860.45,403.4517,858.881,399.2963,864.7745,406.3347,866.3435,410.49,860.45" style="stroke:#222222;stroke-width:1.0;"/><text fill="#000000" font-family="sans-serif" font-size="20" lengthAdjust="spacing" textLength="32" x="129.4375" y="981.5592">1..*</text></g><!--link SectionQuestion to Question--><g id="link_SectionQuestion_Question"><path codeLine="129" d="M116,1059.79 C116,1093.95 116,1149.08 116,1189.64 " fill="none" id="SectionQuestion-to-Question" style="stroke:#222222;stroke-width:1.0;"/><polygon fill="#222222" points="116,1194.51,120,1185.51,116,1189.51,112,1185.51,116,1194.51" style="stroke:#222222;stroke-width:1.0;"/><text fill="#000000" font-family="sans-serif" font-size="20" lengthAdjust="spacing" textLength="141" x="117" y="1127.74">corresponds to</text><text fill="#000000" font-family="sans-serif" font-size="20" lengthAdjust="spacing" textLength="11" x="104.2609" y="1182.3939">1</text></g><!--link SectionQuestion to Score--><g id="link_SectionQuestion_Score"><path codeLine="130" d="M209.87,1027.36 C230.38,1027.36 251.98,1027.36 272.11,1027.36 " fill="none" id="SectionQuestion-to-Score" style="stroke:#222222;stroke-width:1.0;"/><polygon fill="#222222" points="277.08,1027.36,268.08,1023.36,272.08,1027.36,268.08,1031.36,277.08,1027.36" style="stroke:#222222;stroke-width:1.0;"/><text fill="#000000" font-family="sans-serif" font-size="20" lengthAdjust="spacing" textLength="33" x="227.75" y="1017.74">has</text><text fill="#000000" font-family="sans-serif" font-size="20" lengthAdjust="spacing" textLength="11" x="260.1277" y="1020.5269">1</text></g><!--reverse link Section to SectionName--><g id="link_Section_SectionName"><path codeLine="132" d="M483.52,885.5 C499.23,919.29 520.51,965.06 534.48,995.13 " fill="none" id="Section-backto-SectionName" style="stroke:#222222;stroke-width:1.0;"/><polygon fill="#222222" points="478.23,874.12,477.1284,881.2465,483.2829,885.0043,484.3846,877.8778,478.23,874.12" style="stroke:#222222;stroke-width:1.0;"/></g><!--link Student to ExamAnswer--><g id="link_Student_ExamAnswer"><path codeLine="134" d="M769,146.79 C769,180.72 769,227.15 769,262.53 " fill="none" id="Student-to-ExamAnswer" style="stroke:#222222;stroke-width:1.0;"/><polygon fill="#222222" points="769,267.48,773,258.48,769,262.48,765,258.48,769,267.48" style="stroke:#222222;stroke-width:1.0;"/><text fill="#000000" font-family="sans-serif" font-size="20" lengthAdjust="spacing" textLength="33" x="770" y="200.74">has</text><text fill="#000000" font-family="sans-serif" font-size="20" lengthAdjust="spacing" textLength="32" x="734.85" y="255.3712">0..*</text></g><!--link ExamAnswer to Exam--><g id="link_ExamAnswer_Exam"><path codeLine="136" d="M769,361.74 C769,409.33 769,484.7 769,539.7 " fill="none" id="ExamAnswer-to-Exam" style="stroke:#222222;stroke-width:1.0;"/><polygon fill="#222222" points="769,544.45,773,535.45,769,539.45,765,535.45,769,544.45" style="stroke:#222222;stroke-width:1.0;"/><text fill="#000000" font-family="sans-serif" font-size="20" lengthAdjust="spacing" textLength="47" x="770" y="446.74">is for</text><text fill="#000000" font-family="sans-serif" font-size="20" lengthAdjust="spacing" textLength="11" x="757.4328" y="532.3836">1</text></g><!--SRC=[bLLRRzem57xthpXA7xPL2z1g3nD2bQ10XzJ1rj2zLYO-3LwJEBATTbst_pxdYfEK5NW9_ivtBZutgmSU9rJIA1J-0p9WU4_JKCz5h3t-6-5yGDvjjKxKiDzFGXhhD0fxleZwVaYLSXcdWL4cH5Ls81UCjPPyasfS-2BE3Gt8bZC4Z1Bz3BGIAnkDK6y5KsrR4-e_15AaCRiKeP2mGHwWHHfBAPuAqSbv_YCaCJeqG7168ne44WEgyU82PhzevC0B8G0OQsvyPeXrzD3NNCGPalk6AIfVygG2cxJlAQfSKh4zNqZSANlQkBMEXTQIHaZ-xernBcH4DN_4AjZQQqEIMNWDXz6eW8sfqKWAeSsVb__ucptICALPO1s7JT7k8cjkRb0TveXiOqoldvCTU2KfmnpPXTcqTc2STPXLhXi1rWNOVprFfyom6sebPiNMAgWTt8jDAnIFpl6bIAN2HWm5PDakWEFBPt8vZjKJocRfQjYkG0qUxMQDrD-sV9IOvQ14zbkt0jb30d21PMFJAKwZA4RQ6If3UF_Zuyby_ddoQV01idP349kVXb6eM5Fv9fTqk_j0-tNl7yYtLio16jdy7NhPR2EzVTdMFBrU6yCh2lV7RQ-62dTRIugqXjvrBy0Pz7fdJd698IXDfGQTRPGtkHYpWabAGiOmugAYG-0Ak5dJiJ2dZT1QH23kooqCCBqPpzVc- -rsShtmlioc9BENaKjxfoPyvwpNEtNgTw3ffnpHtD6z555BN7L_BlSb6hSCDi-T91W_RgxGM9txIBjLQWNfD1-crerRAtcvMixCPxMyysudNnVhnMffZYOPivkxo-kLjrXUMQbesTgvFzPGDRRTjDPhkxrsgqpMm11C_qfKYOYP0Ysw6cK7v6q-X2rLJSVscqkgzLrrbed8MecbjeNKbSqpNvHTIF8F]--></g></svg>