<?xml version="1.0" encoding="UTF-8" standalone="no"?><svg xmlns="http://www.w3.org/2000/svg" xmlns:xlink="http://www.w3.org/1999/xlink" contentStyleType="text/css" height="391px" preserveAspectRatio="none" style="width:557px;height:391px;background:#FFFFFF;" version="1.1" viewBox="0 0 557 391" width="557px" zoomAndPan="magnify"><defs/><g><ellipse cx="243.5" cy="16" fill="#222222" rx="10" ry="10" style="stroke:none;stroke-width:1.0;"/><g id="PENDING"><rect fill="#F1F1F1" height="50" rx="12.5" ry="12.5" style="stroke:#181818;stroke-width:0.5;" width="110" x="188.5" y="115"/><line style="stroke:#181818;stroke-width:0.5;" x1="188.5" x2="298.5" y1="152.24" y2="152.24"/><text fill="#000000" font-family="sans-serif" font-size="20" lengthAdjust="spacing" textLength="90" x="198.5" y="141.38">PENDING</text></g><g id="ACCEPT"><rect fill="#F1F1F1" height="50" rx="12.5" ry="12.5" style="stroke:#181818;stroke-width:0.5;" width="93" x="7" y="254"/><line style="stroke:#181818;stroke-width:0.5;" x1="7" x2="100" y1="291.24" y2="291.24"/><text fill="#000000" font-family="sans-serif" font-size="20" lengthAdjust="spacing" textLength="73" x="17" y="280.38">ACCEPT</text></g><g id="REJECT"><rect fill="#F1F1F1" height="50" rx="12.5" ry="12.5" style="stroke:#181818;stroke-width:0.5;" width="83" x="135" y="254"/><line style="stroke:#181818;stroke-width:0.5;" x1="135" x2="218" y1="291.24" y2="291.24"/><text fill="#000000" font-family="sans-serif" font-size="20" lengthAdjust="spacing" textLength="63" x="145" y="280.38">REJECT</text></g><g id="NO_ANSWER"><rect fill="#F1F1F1" height="50" rx="12.5" ry="12.5" style="stroke:#181818;stroke-width:0.5;" width="141" x="253" y="254"/><line style="stroke:#181818;stroke-width:0.5;" x1="253" x2="394" y1="291.24" y2="291.24"/><text fill="#000000" font-family="sans-serif" font-size="20" lengthAdjust="spacing" textLength="121" x="263" y="280.38">NO_ANSWER</text></g><g id="CANCELED"><rect fill="#F1F1F1" height="50" rx="12.5" ry="12.5" style="stroke:#181818;stroke-width:0.5;" width="121" x="429" y="254"/><line style="stroke:#181818;stroke-width:0.5;" x1="429" x2="550" y1="291.24" y2="291.24"/><text fill="#000000" font-family="sans-serif" font-size="20" lengthAdjust="spacing" textLength="101" x="439" y="280.38">CANCELED</text></g><ellipse cx="249.5" cy="375" fill="none" rx="10" ry="10" style="stroke:#222222;stroke-width:1.0;"/><ellipse cx="250" cy="375.5" fill="#222222" rx="6" ry="6" style="stroke:none;stroke-width:1.0;"/><!--link *start to PENDING--><g id="link_*start_PENDING"><path d="M243.5,26.17 C243.5,43.41 243.5,81.35 243.5,108.47 " fill="none" id="*start-to-PENDING" style="stroke:#181818;stroke-width:1.0;"/><polygon fill="#181818" points="243.5,113.26,247.5,104.26,243.5,108.26,239.5,104.26,243.5,113.26" style="stroke:#181818;stroke-width:1.0;"/><text fill="#000000" font-family="sans-serif" font-size="20" lengthAdjust="spacing" textLength="58" x="244.5" y="78.38">create</text></g><!--link PENDING to ACCEPT--><g id="link_PENDING_ACCEPT"><path d="M188.19,158.43 C165.53,167.2 139.89,179.34 119.5,195 C100.44,209.63 83.67,230.92 71.79,248.27 " fill="none" id="PENDING-to-ACCEPT" style="stroke:#181818;stroke-width:1.0;"/><polygon fill="#181818" points="69.11,252.26,77.443,247.0101,71.8934,248.1063,70.7972,242.5567,69.11,252.26" style="stroke:#181818;stroke-width:1.0;"/><text fill="#000000" font-family="sans-serif" font-size="20" lengthAdjust="spacing" textLength="61" x="120.5" y="217.38">accept</text></g><!--link PENDING to REJECT--><g id="link_PENDING_REJECT"><path d="M222.79,165.44 C215.97,174.33 208.79,184.73 203.5,195 C194.98,211.53 188.42,231.28 183.91,247.37 " fill="none" id="PENDING-to-REJECT" style="stroke:#181818;stroke-width:1.0;"/><polygon fill="#181818" points="182.61,252.11,188.8333,244.4765,183.9232,247.2855,181.1141,242.3754,182.61,252.11" style="stroke:#181818;stroke-width:1.0;"/><text fill="#000000" font-family="sans-serif" font-size="20" lengthAdjust="spacing" textLength="52" x="204.5" y="217.38">reject</text></g><!--link PENDING to NO_ANSWER--><g id="link_PENDING_NO_ANSWER"><path d="M257.8,165.49 C271.34,188.68 291.69,223.52 306.15,248.28 " fill="none" id="PENDING-to-NO_ANSWER" style="stroke:#181818;stroke-width:1.0;"/><polygon fill="#181818" points="308.56,252.41,307.4601,242.6227,306.0318,248.0963,300.5582,246.6679,308.56,252.41" style="stroke:#181818;stroke-width:1.0;"/><text fill="#000000" font-family="sans-serif" font-size="20" lengthAdjust="spacing" textLength="97" x="291.5" y="217.38">no answer</text></g><!--link PENDING to CANCELED--><g id="link_PENDING_CANCELED"><path d="M298.92,154.64 C329.32,163.52 366.92,176.85 397.5,195 C422.23,209.68 446.22,231.66 463.49,249.31 " fill="none" id="PENDING-to-CANCELED" style="stroke:#181818;stroke-width:1.0;"/><polygon fill="#181818" points="466.69,252.61,463.3222,243.3549,463.2193,249.0108,457.5634,248.9079,466.69,252.61" style="stroke:#181818;stroke-width:1.0;"/><text fill="#000000" font-family="sans-serif" font-size="20" lengthAdjust="spacing" textLength="82" x="436.5" y="217.38">canceled</text></g><!--link ACCEPT to *end--><g id="link_ACCEPT_*end"><path d="M100.45,302.52 C144.25,323.52 206.92,353.58 234.97,367.03 " fill="none" id="ACCEPT-to-*end" style="stroke:#181818;stroke-width:1.0;"/><polygon fill="#181818" points="239.35,369.13,232.9734,361.6241,234.8442,366.9626,229.5056,368.8334,239.35,369.13" style="stroke:#181818;stroke-width:1.0;"/></g><!--link REJECT to *end--><g id="link_REJECT_*end"><path d="M195.3,304.21 C209.6,322.62 228.67,347.18 239.97,361.72 " fill="none" id="REJECT-to-*end" style="stroke:#181818;stroke-width:1.0;"/><polygon fill="#181818" points="242.82,365.4,240.4615,355.8377,239.7542,361.4502,234.1418,360.7429,242.82,365.4" style="stroke:#181818;stroke-width:1.0;"/></g><!--link NO_ANSWER to *end--><g id="link_NO_ANSWER_*end"><path d="M304.44,304.21 C289.95,322.62 270.61,347.18 259.16,361.72 " fill="none" id="NO_ANSWER-to-*end" style="stroke:#181818;stroke-width:1.0;"/><polygon fill="#181818" points="256.26,365.41,264.9649,360.803,259.3485,361.4779,258.6736,355.8615,256.26,365.41" style="stroke:#181818;stroke-width:1.0;"/></g><!--link CANCELED to *end--><g id="link_CANCELED_*end"><path d="M428.63,303.84 C373.69,325.36 296.7,355.51 264.54,368.11 " fill="none" id="CANCELED-to-*end" style="stroke:#181818;stroke-width:1.0;"/><polygon fill="#181818" points="260.14,369.83,269.9793,370.264,264.7941,368.0026,267.0555,362.8174,260.14,369.83" style="stroke:#181818;stroke-width:1.0;"/></g><!--SRC=[LSx12i8m30RWUvuYPs4W7Zq8eukYI1sRu454GXTXRdQZgmW-lIjOPSVyNyYVeQbjpuuVRMSQgR2I6pzRl-wiB-ktu68ES9vTC4bMc9FEjdg3IpHEs0j0J8AcIb5-796DaTvFhA0TgM1ExcAcfW_NL9SdAaQs7R8TNk8c6ohLYlQKXMAsHbgf0BvrmSV_uDiGn__HcFoEnE03]--></g></svg>