<?xml version="1.0" encoding="UTF-8" standalone="no"?><svg xmlns="http://www.w3.org/2000/svg" xmlns:xlink="http://www.w3.org/1999/xlink" contentStyleType="text/css" height="1036px" preserveAspectRatio="none" style="width:1217px;height:1036px;background:#FFFFFF;" version="1.1" viewBox="0 0 1217 1036" width="1217px" zoomAndPan="magnify"><defs/><g><!--class MeetingResponseUI--><g id="elem_MeetingResponseUI"><rect codeLine="2" fill="#F1F1F1" height="53.24" id="MeetingResponseUI" rx="2.5" ry="2.5" style="stroke:#181818;stroke-width:0.5;" width="222" x="471" y="7"/><ellipse cx="487" cy="25.62" fill="#ADD1B2" rx="12" ry="12" style="stroke:#181818;stroke-width:1.0;"/><path d="M487.125,20.2137 Q486.0469,20.2137 485.1875,20.5887 Q484.3281,20.9481 483.7344,21.6512 Q483.1406,22.3387 482.8125,23.3544 Q482.5,24.37 482.5,25.6669 Q482.5,27.37 483.0156,28.6044 Q483.5313,29.8231 484.5469,30.4794 Q485.5625,31.12 487.1094,31.12 Q488.0156,31.12 488.8281,30.9637 Q489.6406,30.8075 490.8281,30.4481 L490.8281,32.6512 Q489.7969,33.0262 488.9219,33.1669 Q488.0469,33.3231 486.8438,33.3231 Q484.5625,33.3231 483.0313,32.3856 Q481.5,31.4325 480.7344,29.6981 Q479.9688,27.9481 479.9688,25.6512 Q479.9688,23.9794 480.4375,22.5887 Q480.9063,21.1981 481.8125,20.1669 Q482.7344,19.12 484.0781,18.5731 Q485.4219,18.0106 487.1406,18.0106 Q488.2813,18.0106 489.3281,18.245 Q490.3906,18.4637 491.4844,19.0262 L490.5156,21.0887 Q489.5938,20.6825 488.8125,20.4481 Q488.0313,20.2137 487.125,20.2137 Z " fill="#000000"/><text fill="#000000" font-family="sans-serif" font-size="20" lengthAdjust="spacing" textLength="188" x="502" y="33.38">MeetingResponseUI</text><line style="stroke:#181818;stroke-width:0.5;" x1="472" x2="692" y1="44.24" y2="44.24"/><line style="stroke:#181818;stroke-width:0.5;" x1="472" x2="692" y1="52.24" y2="52.24"/></g><!--class MeetingResponseController--><g id="elem_MeetingResponseController"><rect codeLine="6" fill="#F1F1F1" height="352.8797" id="MeetingResponseController" rx="2.5" ry="2.5" style="stroke:#181818;stroke-width:0.5;" width="672" x="7" y="120"/><ellipse cx="209" cy="138.62" fill="#ADD1B2" rx="12" ry="12" style="stroke:#181818;stroke-width:1.0;"/><path d="M209.125,133.2137 Q208.0469,133.2137 207.1875,133.5887 Q206.3281,133.9481 205.7344,134.6512 Q205.1406,135.3387 204.8125,136.3544 Q204.5,137.37 204.5,138.6669 Q204.5,140.37 205.0156,141.6044 Q205.5313,142.8231 206.5469,143.4794 Q207.5625,144.12 209.1094,144.12 Q210.0156,144.12 210.8281,143.9637 Q211.6406,143.8075 212.8281,143.4481 L212.8281,145.6512 Q211.7969,146.0262 210.9219,146.1669 Q210.0469,146.3231 208.8438,146.3231 Q206.5625,146.3231 205.0313,145.3856 Q203.5,144.4325 202.7344,142.6981 Q201.9688,140.9481 201.9688,138.6512 Q201.9688,136.9794 202.4375,135.5887 Q202.9063,134.1981 203.8125,133.1669 Q204.7344,132.12 206.0781,131.5731 Q207.4219,131.0106 209.1406,131.0106 Q210.2813,131.0106 211.3281,131.245 Q212.3906,131.4637 213.4844,132.0262 L212.5156,134.0887 Q211.5938,133.6825 210.8125,133.4481 Q210.0313,133.2137 209.125,133.2137 Z " fill="#000000"/><text fill="#000000" font-family="sans-serif" font-size="20" lengthAdjust="spacing" textLength="259" x="231" y="146.38">MeetingResponseController</text><line style="stroke:#181818;stroke-width:0.5;" x1="8" x2="678" y1="157.24" y2="157.24"/><rect fill="none" height="6" style="stroke:#C82930;stroke-width:1.0;" width="6" x="15" y="173.36"/><text fill="#000000" font-family="sans-serif" font-size="20" lengthAdjust="spacing" textLength="189" x="28" y="182.62">authorizationService</text><rect fill="none" height="6" style="stroke:#C82930;stroke-width:1.0;" width="6" x="15" y="200.5999"/><text fill="#000000" font-family="sans-serif" font-size="20" lengthAdjust="spacing" textLength="176" x="28" y="209.8599">meetingRepository</text><rect fill="none" height="6" style="stroke:#C82930;stroke-width:1.0;" width="6" x="15" y="227.8399"/><text fill="#000000" font-family="sans-serif" font-size="20" lengthAdjust="spacing" textLength="149" x="28" y="237.0999">inviteRepository</text><rect fill="none" height="6" style="stroke:#C82930;stroke-width:1.0;" width="6" x="15" y="255.0799"/><text fill="#000000" font-family="sans-serif" font-size="20" lengthAdjust="spacing" textLength="143" x="28" y="264.3399">meetingService</text><line style="stroke:#181818;stroke-width:0.5;" x1="8" x2="678" y1="274.1999" y2="274.1999"/><ellipse cx="18" cy="293.3199" fill="#84BE84" rx="3" ry="3" style="stroke:#038048;stroke-width:1.0;"/><text fill="#000000" font-family="sans-serif" font-size="20" lengthAdjust="spacing" textLength="645" x="28" y="299.5799">MeetingResponseController(authorizationService, meetingRepository,</text><text fill="#000000" font-family="sans-serif" font-size="20" lengthAdjust="spacing" textLength="155" x="28" y="326.8198">inviteRepository)</text><text fill="#000000" font-family="sans-serif" font-size="20" lengthAdjust="spacing" textLength="5" x="28" y="354.0598"> </text><ellipse cx="18" cy="375.0398" fill="#84BE84" rx="3" ry="3" style="stroke:#038048;stroke-width:1.0;"/><text fill="#000000" font-family="sans-serif" font-size="20" lengthAdjust="spacing" textLength="104" x="28" y="381.2998">getInvites()</text><ellipse cx="18" cy="402.2798" fill="#84BE84" rx="3" ry="3" style="stroke:#038048;stroke-width:1.0;"/><text fill="#000000" font-family="sans-serif" font-size="20" lengthAdjust="spacing" textLength="190" x="28" y="408.5398">changeInviteStatus()</text><ellipse cx="18" cy="429.5197" fill="#84BE84" rx="3" ry="3" style="stroke:#038048;stroke-width:1.0;"/><text fill="#000000" font-family="sans-serif" font-size="20" lengthAdjust="spacing" textLength="216" x="28" y="435.7797">getAuthenticatedUser()</text><rect fill="#F24D5C" height="6" style="stroke:#C82930;stroke-width:1.0;" width="6" x="15" y="453.7597"/><text fill="#000000" font-family="sans-serif" font-size="20" lengthAdjust="spacing" textLength="129" x="28" y="463.0197">updateInvite()</text></g><!--class Invite--><g id="elem_Invite"><rect codeLine="21" fill="#F1F1F1" height="162.1999" id="Invite" rx="2.5" ry="2.5" style="stroke:#181818;stroke-width:0.5;" width="104" x="275" y="686.5"/><ellipse cx="299.1" cy="705.12" fill="#ADD1B2" rx="12" ry="12" style="stroke:#181818;stroke-width:1.0;"/><path d="M299.225,699.7137 Q298.1469,699.7137 297.2875,700.0887 Q296.4281,700.4481 295.8344,701.1512 Q295.2406,701.8387 294.9125,702.8544 Q294.6,703.87 294.6,705.1669 Q294.6,706.87 295.1156,708.1044 Q295.6313,709.3231 296.6469,709.9794 Q297.6625,710.62 299.2094,710.62 Q300.1156,710.62 300.9281,710.4637 Q301.7406,710.3075 302.9281,709.9481 L302.9281,712.1512 Q301.8969,712.5262 301.0219,712.6669 Q300.1469,712.8231 298.9438,712.8231 Q296.6625,712.8231 295.1313,711.8856 Q293.6,710.9325 292.8344,709.1981 Q292.0688,707.4481 292.0688,705.1512 Q292.0688,703.4794 292.5375,702.0887 Q293.0063,700.6981 293.9125,699.6669 Q294.8344,698.62 296.1781,698.0731 Q297.5219,697.5106 299.2406,697.5106 Q300.3813,697.5106 301.4281,697.745 Q302.4906,697.9637 303.5844,698.5262 L302.6156,700.5887 Q301.6938,700.1825 300.9125,699.9481 Q300.1313,699.7137 299.225,699.7137 Z " fill="#000000"/><text fill="#000000" font-family="sans-serif" font-size="20" lengthAdjust="spacing" textLength="52" x="315.9" y="712.88">Invite</text><line style="stroke:#181818;stroke-width:0.5;" x1="276" x2="378" y1="723.74" y2="723.74"/><rect fill="none" height="6" style="stroke:#C82930;stroke-width:1.0;" width="6" x="283" y="739.86"/><text fill="#000000" font-family="sans-serif" font-size="20" lengthAdjust="spacing" textLength="17" x="296" y="749.12">id</text><rect fill="none" height="6" style="stroke:#C82930;stroke-width:1.0;" width="6" x="283" y="767.0999"/><text fill="#000000" font-family="sans-serif" font-size="20" lengthAdjust="spacing" textLength="77" x="296" y="776.3599">meeting</text><rect fill="none" height="6" style="stroke:#C82930;stroke-width:1.0;" width="6" x="283" y="794.3399"/><text fill="#000000" font-family="sans-serif" font-size="20" lengthAdjust="spacing" textLength="41" x="296" y="803.5999">user</text><rect fill="none" height="6" style="stroke:#C82930;stroke-width:1.0;" width="6" x="283" y="821.5799"/><text fill="#000000" font-family="sans-serif" font-size="20" lengthAdjust="spacing" textLength="57" x="296" y="830.8399">status</text><line style="stroke:#181818;stroke-width:0.5;" x1="276" x2="378" y1="840.6999" y2="840.6999"/></g><!--class InviteDTO--><g id="elem_InviteDTO"><rect codeLine="28" fill="#F1F1F1" height="189.4398" id="InviteDTO" rx="2.5" ry="2.5" style="stroke:#181818;stroke-width:0.5;" width="128" x="414" y="673"/><ellipse cx="430" cy="691.62" fill="#ADD1B2" rx="12" ry="12" style="stroke:#181818;stroke-width:1.0;"/><path d="M430.125,686.2137 Q429.0469,686.2137 428.1875,686.5887 Q427.3281,686.9481 426.7344,687.6512 Q426.1406,688.3387 425.8125,689.3544 Q425.5,690.37 425.5,691.6669 Q425.5,693.37 426.0156,694.6044 Q426.5313,695.8231 427.5469,696.4794 Q428.5625,697.12 430.1094,697.12 Q431.0156,697.12 431.8281,696.9637 Q432.6406,696.8075 433.8281,696.4481 L433.8281,698.6512 Q432.7969,699.0262 431.9219,699.1669 Q431.0469,699.3231 429.8438,699.3231 Q427.5625,699.3231 426.0313,698.3856 Q424.5,697.4325 423.7344,695.6981 Q422.9688,693.9481 422.9688,691.6512 Q422.9688,689.9794 423.4375,688.5887 Q423.9063,687.1981 424.8125,686.1669 Q425.7344,685.12 427.0781,684.5731 Q428.4219,684.0106 430.1406,684.0106 Q431.2813,684.0106 432.3281,684.245 Q433.3906,684.4637 434.4844,685.0262 L433.5156,687.0887 Q432.5938,686.6825 431.8125,686.4481 Q431.0313,686.2137 430.125,686.2137 Z " fill="#000000"/><text fill="#000000" font-family="sans-serif" font-size="20" lengthAdjust="spacing" textLength="94" x="445" y="699.38">InviteDTO</text><line style="stroke:#181818;stroke-width:0.5;" x1="415" x2="541" y1="710.24" y2="710.24"/><rect fill="none" height="6" style="stroke:#C82930;stroke-width:1.0;" width="6" x="422" y="726.36"/><text fill="#000000" font-family="sans-serif" font-size="20" lengthAdjust="spacing" textLength="17" x="435" y="735.62">id</text><rect fill="none" height="6" style="stroke:#C82930;stroke-width:1.0;" width="6" x="422" y="753.5999"/><text fill="#000000" font-family="sans-serif" font-size="20" lengthAdjust="spacing" textLength="77" x="435" y="762.8599">meeting</text><rect fill="none" height="6" style="stroke:#C82930;stroke-width:1.0;" width="6" x="422" y="780.8399"/><text fill="#000000" font-family="sans-serif" font-size="20" lengthAdjust="spacing" textLength="57" x="435" y="790.0999">status</text><rect fill="none" height="6" style="stroke:#C82930;stroke-width:1.0;" width="6" x="422" y="808.0799"/><text fill="#000000" font-family="sans-serif" font-size="20" lengthAdjust="spacing" textLength="42" x="435" y="817.3399">time</text><rect fill="none" height="6" style="stroke:#C82930;stroke-width:1.0;" width="6" x="422" y="835.3199"/><text fill="#000000" font-family="sans-serif" font-size="20" lengthAdjust="spacing" textLength="41" x="435" y="844.5799">user</text><line style="stroke:#181818;stroke-width:0.5;" x1="415" x2="541" y1="854.4398" y2="854.4398"/></g><!--class MeetingService--><g id="elem_MeetingService"><rect codeLine="36" fill="#F1F1F1" height="80.4799" id="MeetingService" rx="2.5" ry="2.5" style="stroke:#181818;stroke-width:0.5;" width="301" x="282.5" y="533"/><ellipse cx="357.5" cy="551.62" fill="#ADD1B2" rx="12" ry="12" style="stroke:#181818;stroke-width:1.0;"/><path d="M357.625,546.2137 Q356.5469,546.2137 355.6875,546.5887 Q354.8281,546.9481 354.2344,547.6512 Q353.6406,548.3387 353.3125,549.3544 Q353,550.37 353,551.6669 Q353,553.37 353.5156,554.6044 Q354.0313,555.8231 355.0469,556.4794 Q356.0625,557.12 357.6094,557.12 Q358.5156,557.12 359.3281,556.9637 Q360.1406,556.8075 361.3281,556.4481 L361.3281,558.6512 Q360.2969,559.0262 359.4219,559.1669 Q358.5469,559.3231 357.3438,559.3231 Q355.0625,559.3231 353.5313,558.3856 Q352,557.4325 351.2344,555.6981 Q350.4688,553.9481 350.4688,551.6512 Q350.4688,549.9794 350.9375,548.5887 Q351.4063,547.1981 352.3125,546.1669 Q353.2344,545.12 354.5781,544.5731 Q355.9219,544.0106 357.6406,544.0106 Q358.7813,544.0106 359.8281,544.245 Q360.8906,544.4637 361.9844,545.0262 L361.0156,547.0887 Q360.0938,546.6825 359.3125,546.4481 Q358.5313,546.2137 357.625,546.2137 Z " fill="#000000"/><text fill="#000000" font-family="sans-serif" font-size="20" lengthAdjust="spacing" textLength="142" x="379.5" y="559.38">MeetingService</text><line style="stroke:#181818;stroke-width:0.5;" x1="283.5" x2="582.5" y1="570.24" y2="570.24"/><line style="stroke:#181818;stroke-width:0.5;" x1="283.5" x2="582.5" y1="578.24" y2="578.24"/><ellipse cx="293.5" cy="597.36" fill="#84BE84" rx="3" ry="3" style="stroke:#038048;stroke-width:1.0;"/><text fill="#000000" font-family="sans-serif" font-size="20" lengthAdjust="spacing" textLength="274" x="303.5" y="603.62">getInvitesPending(username)</text></g><!--class InviteRepository--><g id="elem_InviteRepository"><rect codeLine="40" fill="#F1F1F1" height="107.7199" id="InviteRepository" rx="2.5" ry="2.5" style="stroke:#181818;stroke-width:0.5;" width="395" x="600.5" y="713.5"/><ellipse cx="722.5" cy="732.12" fill="#B4A7E5" rx="12" ry="12" style="stroke:#181818;stroke-width:1.0;"/><path d="M725.0781,739.62 L719.2969,739.62 L719.2969,738.0106 L720.9844,737.6356 L720.9844,726.7137 L719.2969,726.3231 L719.2969,724.7137 L725.0781,724.7137 L725.0781,726.3231 L723.4063,726.7137 L723.4063,737.6356 L725.0781,738.0106 L725.0781,739.62 Z " fill="#000000"/><text fill="#000000" font-family="sans-serif" font-size="20" font-style="italic" lengthAdjust="spacing" textLength="142" x="744.5" y="739.88">InviteRepository</text><line style="stroke:#181818;stroke-width:0.5;" x1="601.5" x2="994.5" y1="750.74" y2="750.74"/><line style="stroke:#181818;stroke-width:0.5;" x1="601.5" x2="994.5" y1="758.74" y2="758.74"/><ellipse cx="611.5" cy="777.86" fill="#84BE84" rx="3" ry="3" style="stroke:#038048;stroke-width:1.0;"/><text fill="#000000" font-family="sans-serif" font-size="20" lengthAdjust="spacing" textLength="368" x="621.5" y="784.12">findAllPendingForUsername(username)</text><ellipse cx="611.5" cy="805.0999" fill="#84BE84" rx="3" ry="3" style="stroke:#038048;stroke-width:1.0;"/><text fill="#000000" font-family="sans-serif" font-size="20" lengthAdjust="spacing" textLength="159" x="621.5" y="811.3599">findInviteById(id)</text></g><!--class InMemoryInviteRepository--><g id="elem_InMemoryInviteRepository"><rect codeLine="45" fill="#F1F1F1" height="107.7199" id="InMemoryInviteRepository" rx="2.5" ry="2.5" style="stroke:#181818;stroke-width:0.5;" width="395" x="385.5" y="922"/><ellipse cx="454.5" cy="940.62" fill="#ADD1B2" rx="12" ry="12" style="stroke:#181818;stroke-width:1.0;"/><path d="M454.625,935.2137 Q453.5469,935.2137 452.6875,935.5887 Q451.8281,935.9481 451.2344,936.6512 Q450.6406,937.3387 450.3125,938.3544 Q450,939.37 450,940.6669 Q450,942.37 450.5156,943.6044 Q451.0313,944.8231 452.0469,945.4794 Q453.0625,946.12 454.6094,946.12 Q455.5156,946.12 456.3281,945.9637 Q457.1406,945.8075 458.3281,945.4481 L458.3281,947.6512 Q457.2969,948.0262 456.4219,948.1669 Q455.5469,948.3231 454.3438,948.3231 Q452.0625,948.3231 450.5313,947.3856 Q449,946.4325 448.2344,944.6981 Q447.4688,942.9481 447.4688,940.6512 Q447.4688,938.9794 447.9375,937.5887 Q448.4063,936.1981 449.3125,935.1669 Q450.2344,934.12 451.5781,933.5731 Q452.9219,933.0106 454.6406,933.0106 Q455.7813,933.0106 456.8281,933.245 Q457.8906,933.4637 458.9844,934.0262 L458.0156,936.0887 Q457.0938,935.6825 456.3125,935.4481 Q455.5313,935.2137 454.625,935.2137 Z " fill="#000000"/><text fill="#000000" font-family="sans-serif" font-size="20" lengthAdjust="spacing" textLength="248" x="476.5" y="948.38">InMemoryInviteRepository</text><line style="stroke:#181818;stroke-width:0.5;" x1="386.5" x2="779.5" y1="959.24" y2="959.24"/><line style="stroke:#181818;stroke-width:0.5;" x1="386.5" x2="779.5" y1="967.24" y2="967.24"/><ellipse cx="396.5" cy="986.36" fill="#84BE84" rx="3" ry="3" style="stroke:#038048;stroke-width:1.0;"/><text fill="#000000" font-family="sans-serif" font-size="20" lengthAdjust="spacing" textLength="368" x="406.5" y="992.62">findAllPendingForUsername(username)</text><ellipse cx="396.5" cy="1013.5999" fill="#84BE84" rx="3" ry="3" style="stroke:#038048;stroke-width:1.0;"/><text fill="#000000" font-family="sans-serif" font-size="20" lengthAdjust="spacing" textLength="159" x="406.5" y="1019.8599">findInviteById(id)</text></g><!--class JpaInviteRepository--><g id="elem_JpaInviteRepository"><rect codeLine="50" fill="#F1F1F1" height="107.7199" id="JpaInviteRepository" rx="2.5" ry="2.5" style="stroke:#181818;stroke-width:0.5;" width="395" x="815.5" y="922"/><ellipse cx="919" cy="940.62" fill="#ADD1B2" rx="12" ry="12" style="stroke:#181818;stroke-width:1.0;"/><path d="M919.125,935.2137 Q918.0469,935.2137 917.1875,935.5887 Q916.3281,935.9481 915.7344,936.6512 Q915.1406,937.3387 914.8125,938.3544 Q914.5,939.37 914.5,940.6669 Q914.5,942.37 915.0156,943.6044 Q915.5313,944.8231 916.5469,945.4794 Q917.5625,946.12 919.1094,946.12 Q920.0156,946.12 920.8281,945.9637 Q921.6406,945.8075 922.8281,945.4481 L922.8281,947.6512 Q921.7969,948.0262 920.9219,948.1669 Q920.0469,948.3231 918.8438,948.3231 Q916.5625,948.3231 915.0313,947.3856 Q913.5,946.4325 912.7344,944.6981 Q911.9688,942.9481 911.9688,940.6512 Q911.9688,938.9794 912.4375,937.5887 Q912.9063,936.1981 913.8125,935.1669 Q914.7344,934.12 916.0781,933.5731 Q917.4219,933.0106 919.1406,933.0106 Q920.2813,933.0106 921.3281,933.245 Q922.3906,933.4637 923.4844,934.0262 L922.5156,936.0887 Q921.5938,935.6825 920.8125,935.4481 Q920.0313,935.2137 919.125,935.2137 Z " fill="#000000"/><text fill="#000000" font-family="sans-serif" font-size="20" lengthAdjust="spacing" textLength="179" x="941" y="948.38">JpaInviteRepository</text><line style="stroke:#181818;stroke-width:0.5;" x1="816.5" x2="1209.5" y1="959.24" y2="959.24"/><line style="stroke:#181818;stroke-width:0.5;" x1="816.5" x2="1209.5" y1="967.24" y2="967.24"/><ellipse cx="826.5" cy="986.36" fill="#84BE84" rx="3" ry="3" style="stroke:#038048;stroke-width:1.0;"/><text fill="#000000" font-family="sans-serif" font-size="20" lengthAdjust="spacing" textLength="368" x="836.5" y="992.62">findAllPendingForUsername(username)</text><ellipse cx="826.5" cy="1013.5999" fill="#84BE84" rx="3" ry="3" style="stroke:#038048;stroke-width:1.0;"/><text fill="#000000" font-family="sans-serif" font-size="20" lengthAdjust="spacing" textLength="159" x="836.5" y="1019.8599">findInviteById(id)</text></g><!--class RepositoryFactory--><g id="elem_RepositoryFactory"><rect codeLine="55" fill="#F1F1F1" height="80.4799" id="RepositoryFactory" rx="2.5" ry="2.5" style="stroke:#181818;stroke-width:0.5;" width="206" x="706" y="533"/><ellipse cx="724.25" cy="551.62" fill="#ADD1B2" rx="12" ry="12" style="stroke:#181818;stroke-width:1.0;"/><path d="M724.375,546.2137 Q723.2969,546.2137 722.4375,546.5887 Q721.5781,546.9481 720.9844,547.6512 Q720.3906,548.3387 720.0625,549.3544 Q719.75,550.37 719.75,551.6669 Q719.75,553.37 720.2656,554.6044 Q720.7813,555.8231 721.7969,556.4794 Q722.8125,557.12 724.3594,557.12 Q725.2656,557.12 726.0781,556.9637 Q726.8906,556.8075 728.0781,556.4481 L728.0781,558.6512 Q727.0469,559.0262 726.1719,559.1669 Q725.2969,559.3231 724.0938,559.3231 Q721.8125,559.3231 720.2813,558.3856 Q718.75,557.4325 717.9844,555.6981 Q717.2188,553.9481 717.2188,551.6512 Q717.2188,549.9794 717.6875,548.5887 Q718.1563,547.1981 719.0625,546.1669 Q719.9844,545.12 721.3281,544.5731 Q722.6719,544.0106 724.3906,544.0106 Q725.5313,544.0106 726.5781,544.245 Q727.6406,544.4637 728.7344,545.0262 L727.7656,547.0887 Q726.8438,546.6825 726.0625,546.4481 Q725.2813,546.2137 724.375,546.2137 Z " fill="#000000"/><text fill="#000000" font-family="sans-serif" font-size="20" lengthAdjust="spacing" textLength="167" x="739.75" y="559.38">RepositoryFactory</text><line style="stroke:#181818;stroke-width:0.5;" x1="707" x2="911" y1="570.24" y2="570.24"/><line style="stroke:#181818;stroke-width:0.5;" x1="707" x2="911" y1="578.24" y2="578.24"/><ellipse cx="717" cy="597.36" fill="#84BE84" rx="3" ry="3" style="stroke:#038048;stroke-width:1.0;"/><text fill="#000000" font-family="sans-serif" font-size="20" lengthAdjust="spacing" textLength="179" x="727" y="603.62">RepositoryFactory()</text></g><!--class PersistenceContext--><g id="elem_PersistenceContext"><rect codeLine="60" fill="#F1F1F1" height="80.4799" id="PersistenceContext" rx="2.5" ry="2.5" style="stroke:#181818;stroke-width:0.5;" width="214" x="714" y="256.5"/><ellipse cx="730" cy="275.12" fill="#ADD1B2" rx="12" ry="12" style="stroke:#181818;stroke-width:1.0;"/><path d="M730.125,269.7137 Q729.0469,269.7137 728.1875,270.0887 Q727.3281,270.4481 726.7344,271.1512 Q726.1406,271.8387 725.8125,272.8544 Q725.5,273.87 725.5,275.1669 Q725.5,276.87 726.0156,278.1044 Q726.5313,279.3231 727.5469,279.9794 Q728.5625,280.62 730.1094,280.62 Q731.0156,280.62 731.8281,280.4637 Q732.6406,280.3075 733.8281,279.9481 L733.8281,282.1512 Q732.7969,282.5262 731.9219,282.6669 Q731.0469,282.8231 729.8438,282.8231 Q727.5625,282.8231 726.0313,281.8856 Q724.5,280.9325 723.7344,279.1981 Q722.9688,277.4481 722.9688,275.1512 Q722.9688,273.4794 723.4375,272.0887 Q723.9063,270.6981 724.8125,269.6669 Q725.7344,268.62 727.0781,268.0731 Q728.4219,267.5106 730.1406,267.5106 Q731.2813,267.5106 732.3281,267.745 Q733.3906,267.9637 734.4844,268.5262 L733.5156,270.5887 Q732.5938,270.1825 731.8125,269.9481 Q731.0313,269.7137 730.125,269.7137 Z " fill="#000000"/><text fill="#000000" font-family="sans-serif" font-size="20" lengthAdjust="spacing" textLength="180" x="745" y="282.88">PersistenceContext</text><line style="stroke:#181818;stroke-width:0.5;" x1="715" x2="927" y1="293.74" y2="293.74"/><line style="stroke:#181818;stroke-width:0.5;" x1="715" x2="927" y1="301.74" y2="301.74"/><rect fill="#F24D5C" height="6" style="stroke:#C82930;stroke-width:1.0;" width="6" x="722" y="317.86"/><text fill="#000000" font-family="sans-serif" font-size="20" lengthAdjust="spacing" textLength="123" x="735" y="327.12">repositories()</text></g><!--link MeetingService to Invite--><g id="link_MeetingService_Invite"><path codeLine="66" d="M411.29,613.42 C400.58,632.87 387.22,657.14 374.31,680.59 " fill="none" id="MeetingService-to-Invite" style="stroke:#181818;stroke-width:1.0;stroke-dasharray:7.0,7.0;"/><polygon fill="#181818" points="371.94,684.88,379.7844,678.9247,374.3512,680.4998,372.7761,675.0667,371.94,684.88" style="stroke:#181818;stroke-width:1.0;"/></g><!--link MeetingService to InviteDTO--><g id="link_MeetingService_InviteDTO"><path codeLine="67" d="M442.22,613.42 C445.87,629.07 450.26,647.84 454.69,666.8 " fill="none" id="MeetingService-to-InviteDTO" style="stroke:#181818;stroke-width:1.0;stroke-dasharray:7.0,7.0;"/><polygon fill="#181818" points="455.72,671.21,457.5586,661.5343,454.578,666.3422,449.7701,663.3615,455.72,671.21" style="stroke:#181818;stroke-width:1.0;"/></g><!--link MeetingService to InviteRepository--><g id="link_MeetingService_InviteRepository"><path codeLine="68" d="M507.74,613.42 C560.58,641.29 632.19,679.05 691.06,710.1 " fill="none" id="MeetingService-to-InviteRepository" style="stroke:#181818;stroke-width:1.0;stroke-dasharray:7.0,7.0;"/><polygon fill="#181818" points="695.38,712.38,689.2859,704.6429,690.9576,710.0471,685.5534,711.7188,695.38,712.38" style="stroke:#181818;stroke-width:1.0;"/></g><!--reverse link InviteRepository to InMemoryInviteRepository--><g id="link_InviteRepository_InMemoryInviteRepository"><path codeLine="70" d="M727.24,836.47 C698.37,864.19 665.49,895.78 638.41,921.78 " fill="none" id="InviteRepository-backto-InMemoryInviteRepository" style="stroke:#181818;stroke-width:1.0;stroke-dasharray:7.0,7.0;"/><polygon fill="none" points="721.99,831.8,741.26,823,731.69,841.9,721.99,831.8" style="stroke:#181818;stroke-width:1.0;"/></g><!--reverse link InviteRepository to JpaInviteRepository--><g id="link_InviteRepository_JpaInviteRepository"><path codeLine="71" d="M868.76,836.47 C897.63,864.19 930.51,895.78 957.59,921.78 " fill="none" id="InviteRepository-backto-JpaInviteRepository" style="stroke:#181818;stroke-width:1.0;stroke-dasharray:7.0,7.0;"/><polygon fill="none" points="864.31,841.9,854.74,823,874.01,831.8,864.31,841.9" style="stroke:#181818;stroke-width:1.0;"/></g><!--link MeetingResponseController to MeetingService--><g id="link_MeetingResponseController_MeetingService"><path codeLine="73" d="M400.64,473.29 C407.06,492.89 413.12,511.35 418.21,526.89 " fill="none" id="MeetingResponseController-to-MeetingService" style="stroke:#181818;stroke-width:1.0;"/><polygon fill="#181818" points="419.71,531.48,420.7118,521.6822,418.1546,526.7281,413.1087,524.1709,419.71,531.48" style="stroke:#181818;stroke-width:1.0;"/></g><!--link MeetingResponseUI to PersistenceContext--><g id="link_MeetingResponseUI_PersistenceContext"><path codeLine="75" d="M622.68,60.44 C645.61,76.13 673.97,97.42 696,120 C735.22,160.19 771.42,213.6 794.66,250.89 " fill="none" id="MeetingResponseUI-to-PersistenceContext" style="stroke:#181818;stroke-width:1.0;stroke-dasharray:7.0,7.0;"/><polygon fill="#181818" points="797.2,254.99,795.8752,245.2307,794.5731,250.7356,789.0682,249.4336,797.2,254.99" style="stroke:#181818;stroke-width:1.0;"/></g><!--link PersistenceContext to RepositoryFactory--><g id="link_PersistenceContext_RepositoryFactory"><path codeLine="76" d="M819.28,336.83 C817.09,386.97 813.31,473.5 810.99,526.46 " fill="none" id="PersistenceContext-to-RepositoryFactory" style="stroke:#181818;stroke-width:1.0;stroke-dasharray:7.0,7.0;"/><polygon fill="#181818" points="810.78,531.23,815.1617,522.4095,810.9941,526.2346,807.169,522.067,810.78,531.23" style="stroke:#181818;stroke-width:1.0;"/></g><!--link RepositoryFactory to InviteRepository--><g id="link_RepositoryFactory_InviteRepository"><path codeLine="77" d="M806.75,613.42 C805.21,640.33 803.15,676.46 801.41,706.87 " fill="none" id="RepositoryFactory-to-InviteRepository" style="stroke:#181818;stroke-width:1.0;"/><polygon fill="#181818" points="801.13,711.75,805.6384,702.9936,801.4161,706.7582,797.6515,702.5359,801.13,711.75" style="stroke:#181818;stroke-width:1.0;"/></g><!--link MeetingResponseUI to MeetingResponseController--><g id="link_MeetingResponseUI_MeetingResponseController"><path codeLine="79" d="M558.21,60.48 C545.09,74.8 527.53,93.98 508.08,115.22 " fill="none" id="MeetingResponseUI-to-MeetingResponseController" style="stroke:#181818;stroke-width:1.0;stroke-dasharray:7.0,7.0;"/><polygon fill="#181818" points="504.92,118.67,513.946,114.729,508.2947,114.9807,508.0431,109.3294,504.92,118.67" style="stroke:#181818;stroke-width:1.0;"/></g><!--SRC=[jLJBQiCm4BphAtHqI6nApoMGjWHS20rDym72sYHBRCb8ScZIzj-xjkKy_A2dd8ncPsPVakqULIwCo5ATx45o2HjHf6wkbLlX2VZZ0sD9Agpb2m27Qli1DjVAmZhctupz3aHVI6zqce8XLiX5uNRQu4aur6e5ve0949mrebnRTDeS2KDrG0StaASrEZOUpXRqPPfq4qrOEy-ezDs2YolS1YCw9ZkXjb0ZAoTSKSF4cb4QK0uJuK2kBIKUKQ55BkbSymau3wT6gacWl3HKAaXA7rkPjmMld-zz6ayEkSCC6e_s8dphfB_kQWbAKZ0e9KfaKDM8oe7P22B7hPbKwWqgEKjJBvrhi_RYAvUQLSkVZx4CKDwqlu2CxEva_vQBEpbV3ESYyRwSZxjulMolMeAnQ1sefBgOyEKgMSXD8yFgVfKArbfN54tz5eOZT2s6WrSFXtMcylGJHOFR6A3tJFTSTSzh3yDfwmfssFJdAEljZedrJAvaTiRDkeify_vRfyyyM3tx0m00]--></g></svg>