<?xml version="1.0" encoding="UTF-8" standalone="no"?><svg xmlns="http://www.w3.org/2000/svg" xmlns:xlink="http://www.w3.org/1999/xlink" contentStyleType="text/css" height="599px" preserveAspectRatio="none" style="width:1154px;height:599px;background:#FFFFFF;" version="1.1" viewBox="0 0 1154 599" width="1154px" zoomAndPan="magnify"><defs/><g><!--cluster <<aggregate>> Meeting--><g id="cluster_&lt;&lt;aggregate&gt;&gt; Meeting"><path d="M366.5,221.36 L574.75,221.36 A3.75,3.75 0 0 1 577.25,223.86 L584.25,254.6 L931.5,254.6 A2.5,2.5 0 0 1 934,257.1 L934,589.86 A2.5,2.5 0 0 1 931.5,592.36 L366.5,592.36 A2.5,2.5 0 0 1 364,589.86 L364,223.86 A2.5,2.5 0 0 1 366.5,221.36 " fill="none" style="stroke:#000000;stroke-width:1.5;"/><line style="stroke:#000000;stroke-width:1.5;" x1="364" x2="584.25" y1="254.6" y2="254.6"/><text fill="#000000" font-family="sans-serif" font-size="20" font-weight="bold" lengthAdjust="spacing" textLength="207.25" x="368" y="244.74">«aggregate» Meeting</text></g><!--cluster <<aggregate>> Invite--><g id="cluster_&lt;&lt;aggregate&gt;&gt; Invite"><path d="M144.5,8.36 L328.125,8.36 A3.75,3.75 0 0 1 330.625,10.86 L337.625,41.6 L337.5,41.6 A2.5,2.5 0 0 1 340,44.1 L340,358.86 A2.5,2.5 0 0 1 337.5,361.36 L144.5,361.36 A2.5,2.5 0 0 1 142,358.86 L142,10.86 A2.5,2.5 0 0 1 144.5,8.36 " fill="none" style="stroke:#000000;stroke-width:1.5;"/><line style="stroke:#000000;stroke-width:1.5;" x1="142" x2="337.625" y1="41.6" y2="41.6"/><text fill="#000000" font-family="sans-serif" font-size="20" font-weight="bold" lengthAdjust="spacing" textLength="182.625" x="146" y="31.74">«aggregate» Invite</text></g><!--cluster <<aggregate>> User--><g id="cluster_&lt;&lt;aggregate&gt;&gt; User"><path d="M960.5,434.36 L1134.875,434.36 A3.75,3.75 0 0 1 1137.375,436.86 L1144.375,467.6 L1144.5,467.6 A2.5,2.5 0 0 1 1147,470.1 L1147,585.86 A2.5,2.5 0 0 1 1144.5,588.36 L960.5,588.36 A2.5,2.5 0 0 1 958,585.86 L958,436.86 A2.5,2.5 0 0 1 960.5,434.36 " fill="none" style="stroke:#000000;stroke-width:1.5;"/><line style="stroke:#000000;stroke-width:1.5;" x1="958" x2="1144.375" y1="467.6" y2="467.6"/><text fill="#000000" font-family="sans-serif" font-size="20" font-weight="bold" lengthAdjust="spacing" textLength="173.375" x="962" y="457.74">«aggregate» User</text></g><!--class Meeting--><g id="elem_Meeting"><rect codeLine="20" fill="#F5F5DC" height="91.7199" id="Meeting" rx="2.5" ry="2.5" style="stroke:#181818;stroke-width:0.5;" width="110" x="594" y="267.36"/><ellipse cx="610" cy="313.22" fill="#ADD1B2" rx="12" ry="12" style="stroke:#181818;stroke-width:1.0;"/><path d="M614.0469,320.72 L605.4375,320.72 L605.4375,305.8137 L614.0469,305.8137 L614.0469,308.0168 L607.8594,308.0168 L607.8594,311.8606 L613.6875,311.8606 L613.6875,314.0325 L607.8594,314.0325 L607.8594,318.5168 L614.0469,318.5168 L614.0469,320.72 Z " fill="#000000"/><text fill="#000000" font-family="sans-serif" font-size="20" font-style="italic" lengthAdjust="spacing" textLength="70" x="628" y="293.74">«entity»</text><text fill="#000000" font-family="sans-serif" font-size="20" font-style="italic" lengthAdjust="spacing" textLength="57" x="634.5" y="320.9799">«root»</text><text fill="#000000" font-family="sans-serif" font-size="20" lengthAdjust="spacing" textLength="76" x="625" y="348.2199">Meeting</text></g><!--class Canceled--><g id="elem_Canceled"><rect codeLine="16" fill="#F5F5DC" height="99.7199" id="Canceled" rx="2.5" ry="2.5" style="stroke:#181818;stroke-width:0.5;" width="156" x="380" y="476.36"/><ellipse cx="396" cy="508.6" fill="#FF8B40" rx="12" ry="12" style="stroke:#181818;stroke-width:1.0;"/><path d="M402.25,502.4437 L396.9375,517.35 L394.6875,517.35 L389.375,502.4437 L391.9063,502.4437 L395.2031,511.8031 Q395.4219,512.3968 395.5781,512.9437 Q395.75,513.4906 395.875,513.9906 Q396.0156,514.475 395.8125,514.5218 Q395.5938,514.4906 395.7344,513.975 Q395.875,513.4593 396.0469,512.9281 Q396.2188,512.3812 396.4219,511.7718 L399.6875,502.4437 L402.25,502.4437 Z " fill="#000000"/><text fill="#000000" font-family="sans-serif" font-size="20" font-style="italic" lengthAdjust="spacing" textLength="126" x="409" y="502.74">«value object»</text><text fill="#000000" font-family="sans-serif" font-size="20" lengthAdjust="spacing" textLength="85" x="429.5" y="529.9799">Canceled</text><line style="stroke:#181818;stroke-width:0.5;" x1="381" x2="535" y1="540.8399" y2="540.8399"/><text fill="#000000" font-family="sans-serif" font-size="20" lengthAdjust="spacing" textLength="108" x="386" y="566.2199">-canceledAt</text></g><!--class Time--><g id="elem_Time"><rect codeLine="12" fill="#F5F5DC" height="64.4799" id="Time" rx="2.5" ry="2.5" style="stroke:#181818;stroke-width:0.5;" width="156" x="571" y="494.36"/><ellipse cx="587" cy="526.6" fill="#FF8B40" rx="12" ry="12" style="stroke:#181818;stroke-width:1.0;"/><path d="M593.25,520.4437 L587.9375,535.35 L585.6875,535.35 L580.375,520.4437 L582.9063,520.4437 L586.2031,529.8031 Q586.4219,530.3968 586.5781,530.9437 Q586.75,531.4906 586.875,531.9906 Q587.0156,532.475 586.8125,532.5218 Q586.5938,532.4906 586.7344,531.975 Q586.875,531.4593 587.0469,530.9281 Q587.2188,530.3812 587.4219,529.7718 L590.6875,520.4437 L593.25,520.4437 Z " fill="#000000"/><text fill="#000000" font-family="sans-serif" font-size="20" font-style="italic" lengthAdjust="spacing" textLength="126" x="600" y="520.74">«value object»</text><text fill="#000000" font-family="sans-serif" font-size="20" lengthAdjust="spacing" textLength="46" x="640" y="547.9799">Time</text></g><!--class Duration--><g id="elem_Duration"><rect codeLine="13" fill="#F5F5DC" height="64.4799" id="Duration" rx="2.5" ry="2.5" style="stroke:#181818;stroke-width:0.5;" width="156" x="762" y="494.36"/><ellipse cx="778" cy="526.6" fill="#FF8B40" rx="12" ry="12" style="stroke:#181818;stroke-width:1.0;"/><path d="M784.25,520.4437 L778.9375,535.35 L776.6875,535.35 L771.375,520.4437 L773.9063,520.4437 L777.2031,529.8031 Q777.4219,530.3968 777.5781,530.9437 Q777.75,531.4906 777.875,531.9906 Q778.0156,532.475 777.8125,532.5218 Q777.5938,532.4906 777.7344,531.975 Q777.875,531.4593 778.0469,530.9281 Q778.2188,530.3812 778.4219,529.7718 L781.6875,520.4437 L784.25,520.4437 Z " fill="#000000"/><text fill="#000000" font-family="sans-serif" font-size="20" font-style="italic" lengthAdjust="spacing" textLength="126" x="791" y="520.74">«value object»</text><text fill="#000000" font-family="sans-serif" font-size="20" lengthAdjust="spacing" textLength="82" x="813" y="547.9799">Duration</text></g><!--class Invite--><g id="elem_Invite"><rect codeLine="38" fill="#F5F5DC" height="91.7199" id="Invite" rx="2.5" ry="2.5" style="stroke:#181818;stroke-width:0.5;" width="100" x="224" y="54.36"/><ellipse cx="240" cy="100.22" fill="#ADD1B2" rx="12" ry="12" style="stroke:#181818;stroke-width:1.0;"/><path d="M244.0469,107.72 L235.4375,107.72 L235.4375,92.8137 L244.0469,92.8137 L244.0469,95.0168 L237.8594,95.0168 L237.8594,98.8606 L243.6875,98.8606 L243.6875,101.0325 L237.8594,101.0325 L237.8594,105.5168 L244.0469,105.5168 L244.0469,107.72 Z " fill="#000000"/><text fill="#000000" font-family="sans-serif" font-size="20" font-style="italic" lengthAdjust="spacing" textLength="70" x="253" y="80.74">«entity»</text><text fill="#000000" font-family="sans-serif" font-size="20" font-style="italic" lengthAdjust="spacing" textLength="57" x="259.5" y="107.9799">«root»</text><text fill="#000000" font-family="sans-serif" font-size="20" lengthAdjust="spacing" textLength="52" x="262" y="135.2199">Invite</text></g><!--class Status--><g id="elem_Status"><rect codeLine="30" fill="#F5F5DC" height="64.4799" id="Status" rx="2.5" ry="2.5" style="stroke:#181818;stroke-width:0.5;" width="156" x="168" y="281.36"/><ellipse cx="184" cy="313.6" fill="#FF8B40" rx="12" ry="12" style="stroke:#181818;stroke-width:1.0;"/><path d="M190.25,307.4437 L184.9375,322.35 L182.6875,322.35 L177.375,307.4437 L179.9063,307.4437 L183.2031,316.8031 Q183.4219,317.3968 183.5781,317.9437 Q183.75,318.4906 183.875,318.9906 Q184.0156,319.475 183.8125,319.5218 Q183.5938,319.4906 183.7344,318.975 Q183.875,318.4593 184.0469,317.9281 Q184.2188,317.3812 184.4219,316.7718 L187.6875,307.4437 L190.25,307.4437 Z " fill="#000000"/><text fill="#000000" font-family="sans-serif" font-size="20" font-style="italic" lengthAdjust="spacing" textLength="126" x="197" y="307.74">«value object»</text><text fill="#000000" font-family="sans-serif" font-size="20" lengthAdjust="spacing" textLength="58" x="231" y="334.9799">Status</text></g><!--class User--><g id="elem_User"><rect codeLine="46" fill="#F5F5DC" height="91.7199" id="User" rx="2.5" ry="2.5" style="stroke:#181818;stroke-width:0.5;" width="100" x="974" y="480.36"/><ellipse cx="990" cy="526.22" fill="#ADD1B2" rx="12" ry="12" style="stroke:#181818;stroke-width:1.0;"/><path d="M994.0469,533.72 L985.4375,533.72 L985.4375,518.8137 L994.0469,518.8137 L994.0469,521.0168 L987.8594,521.0168 L987.8594,524.8606 L993.6875,524.8606 L993.6875,527.0325 L987.8594,527.0325 L987.8594,531.5168 L994.0469,531.5168 L994.0469,533.72 Z " fill="#000000"/><text fill="#000000" font-family="sans-serif" font-size="20" font-style="italic" lengthAdjust="spacing" textLength="70" x="1003" y="506.74">«entity»</text><text fill="#000000" font-family="sans-serif" font-size="20" font-style="italic" lengthAdjust="spacing" textLength="57" x="1009.5" y="533.9799">«root»</text><text fill="#000000" font-family="sans-serif" font-size="20" lengthAdjust="spacing" textLength="44" x="1016" y="561.2199">User</text></g><g id="elem_GMN10"><path d="M6,267.36 L6,359.0799 A0,0 0 0 0 6,359.0799 L126,359.0799 A0,0 0 0 0 126,359.0799 L126,317.36 L167.56,313.36 L126,309.36 L126,277.36 L116,267.36 L6,267.36 A0,0 0 0 0 6,267.36 " fill="#FEFFDD" style="stroke:#181818;stroke-width:0.5;"/><path d="M116,267.36 L116,277.36 L126,277.36 L116,267.36 " fill="#FEFFDD" style="stroke:#181818;stroke-width:0.5;"/><text fill="#000000" font-family="sans-serif" font-size="20" lengthAdjust="spacing" textLength="90" x="12" y="293.74">PENDING</text><text fill="#000000" font-family="sans-serif" font-size="20" lengthAdjust="spacing" textLength="99" x="12" y="320.9799">ACCEPTED</text><text fill="#000000" font-family="sans-serif" font-size="20" lengthAdjust="spacing" textLength="89" x="12" y="348.2199">REJECTED</text></g><!--link Invite to User--><g id="link_Invite_User"><path codeLine="50" d="M324.4,103.16 C462.67,109.12 843.64,132.65 934,213.36 C1008.49,279.89 1022.98,403.75 1024.84,473.73 " fill="none" id="Invite-to-User" style="stroke:#222222;stroke-width:1.0;"/><polygon fill="#222222" points="1024.95,478.41,1028.7433,469.3209,1024.8357,473.4113,1020.7454,469.5037,1024.95,478.41" style="stroke:#222222;stroke-width:1.0;"/><text fill="#000000" font-family="sans-serif" font-size="20" lengthAdjust="spacing" textLength="60" x="1014" y="321.24">invites</text><text fill="#000000" font-family="sans-serif" font-size="20" lengthAdjust="spacing" textLength="11" x="1013.4009" y="466.6535">1</text></g><!--link Invite to Meeting--><g id="link_Invite_Meeting"><path codeLine="51" d="M324.19,129.6 C392.46,168.01 514.5,236.68 587.98,278.03 " fill="none" id="Invite-to-Meeting" style="stroke:#222222;stroke-width:1.0;"/><polygon fill="#222222" points="592.31,280.46,586.4355,272.5549,587.9548,278.0039,582.5058,279.5233,592.31,280.46" style="stroke:#222222;stroke-width:1.0;"/><text fill="#000000" font-family="sans-serif" font-size="20" lengthAdjust="spacing" textLength="109" x="451" y="198.74">is related to</text><text fill="#000000" font-family="sans-serif" font-size="20" lengthAdjust="spacing" textLength="11" x="574.831" y="269.7631">1</text></g><!--link Invite to Status--><g id="link_Invite_Status"><path codeLine="52" d="M267.99,146.62 C262.9,184.97 255.7,239.29 250.94,275.15 " fill="none" id="Invite-to-Status" style="stroke:#222222;stroke-width:1.0;"/><polygon fill="#222222" points="250.34,279.68,255.488,271.2837,250.9971,274.7234,247.5574,270.2324,250.34,279.68" style="stroke:#222222;stroke-width:1.0;"/><text fill="#000000" font-family="sans-serif" font-size="20" lengthAdjust="spacing" textLength="33" x="264" y="198.74">has</text><text fill="#000000" font-family="sans-serif" font-size="20" lengthAdjust="spacing" textLength="11" x="238.8977" y="267.4019">1</text></g><!--link Meeting to User--><g id="link_Meeting_User"><path codeLine="54" d="M704.25,345.31 C754.09,372.68 824.03,409.59 854,418.36 C888.3,428.39 902.08,410.29 934,426.36 C956.28,437.58 975.71,456.81 990.75,475.35 " fill="none" id="Meeting-to-User" style="stroke:#222222;stroke-width:1.0;"/><polygon fill="#222222" points="993.54,478.86,991.0881,469.3212,990.4358,474.9403,984.8166,474.288,993.54,478.86" style="stroke:#222222;stroke-width:1.0;"/><text fill="#000000" font-family="sans-serif" font-size="20" lengthAdjust="spacing" textLength="122" x="855" y="411.74">scheduled by</text><text fill="#000000" font-family="sans-serif" font-size="20" lengthAdjust="spacing" textLength="11" x="978.7742" y="466.4279">1</text></g><!--link Meeting to Canceled--><g id="link_Meeting_Canceled"><path codeLine="55" d="M593.62,344.41 C574.22,356.66 553.25,372.04 537,389.36 C514.76,413.06 496.12,444.13 482.55,470.58 " fill="none" id="Meeting-to-Canceled" style="stroke:#222222;stroke-width:1.0;"/><polygon fill="#222222" points="480.41,474.8,488.0446,468.578,482.6689,470.3394,480.9075,464.9637,480.41,474.8" style="stroke:#222222;stroke-width:1.0;"/><text fill="#000000" font-family="sans-serif" font-size="20" lengthAdjust="spacing" textLength="102" x="538" y="411.74">is canceled</text><text fill="#000000" font-family="sans-serif" font-size="20" lengthAdjust="spacing" textLength="32" x="448.4642" y="462.4004">0..1</text></g><!--link Meeting to Time--><g id="link_Meeting_Time"><path codeLine="57" d="M649,359.62 C649,397.81 649,451.84 649,487.7 " fill="none" id="Meeting-to-Time" style="stroke:#222222;stroke-width:1.0;"/><polygon fill="#222222" points="649,492.66,653,483.66,649,487.66,645,483.66,649,492.66" style="stroke:#222222;stroke-width:1.0;"/><text fill="#000000" font-family="sans-serif" font-size="20" lengthAdjust="spacing" textLength="33" x="650" y="411.74">has</text><text fill="#000000" font-family="sans-serif" font-size="20" lengthAdjust="spacing" textLength="11" x="637.0203" y="480.4019">1</text></g><!--link Meeting to Duration--><g id="link_Meeting_Duration"><path codeLine="58" d="M689.97,359.62 C725.12,398.45 775.07,453.64 807.51,489.47 " fill="none" id="Meeting-to-Duration" style="stroke:#222222;stroke-width:1.0;"/><polygon fill="#222222" points="810.76,493.06,807.6926,483.701,807.4073,489.3506,801.7576,489.0653,810.76,493.06" style="stroke:#222222;stroke-width:1.0;"/><text fill="#000000" font-family="sans-serif" font-size="20" lengthAdjust="spacing" textLength="33" x="739" y="411.74">has</text><text fill="#000000" font-family="sans-serif" font-size="20" lengthAdjust="spacing" textLength="11" x="794.7618" y="480.4019">1</text></g><!--SRC=[bL9HJy8m47xlhxZWYoPYqFXWo4A2OnXC94JKzx8Uep9QqjumIFZlTYkRR4Q9VRf-zttttLtEBgLQSyDNgOwNA43Wd6Sf3RMYgVn4kEamPaiEn2ctjazav2mZ7CLQ5QGEMqY1WAirRO6NQNkChf0MMjXchNiUBnEZCoL2dMe3CvG97f7wnkWFdpgxAHvZQwVX2K8h27YI64muOQy7JuWaLTA27GD0HTAv7Z3caC8EGgvYJ55Km8jS8GJ1-TlbsN1uTt_RkO0DJpC4FNl7c5pTtRuY3pB3IMfrKh1dhEvtGk4SsX0Vk7tAzVK9dDu3ZXq4Hcilouc_h6EaDfAmjWqFVIzZIfmo-zsi_vySZYbD22dE2VIyB08mYSQ3qVZ1HVqmZ2OlqS25pz5Z5EOXAW6vhXhCD_F_kLujcjfKEN2qiFpxHzM3RRlTWzProxEx80lKDhFbyXt1Wi7KTI20T9Dss5iN5jmoLeeQ5ZPUeCZoKvXjwvpErPMZLPTIc9MtyBDSSR3UgfcgpjEdlm00]--></g></svg>