<?xml version="1.0" encoding="UTF-8" standalone="no"?><svg xmlns="http://www.w3.org/2000/svg" xmlns:xlink="http://www.w3.org/1999/xlink" contentStyleType="text/css" height="722px" preserveAspectRatio="none" style="width:873px;height:722px;background:#FFFFFF;" version="1.1" viewBox="0 0 873 722" width="873px" zoomAndPan="magnify"><defs/><g><!--cluster <<aggregate>> Class--><g id="cluster_&lt;&lt;aggregate&gt;&gt; Class"><path d="M19.91,8.36 L204.91,8.36 A3.75,3.75 0 0 1 207.41,10.86 L214.41,41.6 L467.91,41.6 A2.5,2.5 0 0 1 470.41,44.1 L470.41,698.86 A2.5,2.5 0 0 1 467.91,701.36 L19.91,701.36 A2.5,2.5 0 0 1 17.41,698.86 L17.41,10.86 A2.5,2.5 0 0 1 19.91,8.36 " fill="none" style="stroke:#000000;stroke-width:1.5;"/><line style="stroke:#000000;stroke-width:1.5;" x1="17.41" x2="214.41" y1="41.6" y2="41.6"/><text fill="#000000" font-family="sans-serif" font-size="20" font-weight="bold" lengthAdjust="spacing" textLength="184" x="21.41" y="31.74">«aggregate» Class</text></g><!--cluster <<aggregate>> Course--><g id="cluster_&lt;&lt;aggregate&gt;&gt; Course"><path d="M496.91,221.36 L700.535,221.36 A3.75,3.75 0 0 1 703.035,223.86 L710.035,254.6 L709.91,254.6 A2.5,2.5 0 0 1 712.41,257.1 L712.41,372.86 A2.5,2.5 0 0 1 709.91,375.36 L496.91,375.36 A2.5,2.5 0 0 1 494.41,372.86 L494.41,223.86 A2.5,2.5 0 0 1 496.91,221.36 " fill="none" style="stroke:#000000;stroke-width:1.5;"/><line style="stroke:#000000;stroke-width:1.5;" x1="494.41" x2="710.035" y1="254.6" y2="254.6"/><text fill="#000000" font-family="sans-serif" font-size="20" font-weight="bold" lengthAdjust="spacing" textLength="202.625" x="498.41" y="244.74">«aggregate» Course</text></g><!--cluster <<aggregate>> Teacher--><g id="cluster_&lt;&lt;aggregate&gt;&gt; Teacher"><path d="M634.91,561.36 L849.16,561.36 A3.75,3.75 0 0 1 851.66,563.86 L858.66,594.6 L858.91,594.6 A2.5,2.5 0 0 1 861.41,597.1 L861.41,712.86 A2.5,2.5 0 0 1 858.91,715.36 L634.91,715.36 A2.5,2.5 0 0 1 632.41,712.86 L632.41,563.86 A2.5,2.5 0 0 1 634.91,561.36 " fill="none" style="stroke:#000000;stroke-width:1.5;"/><line style="stroke:#000000;stroke-width:1.5;" x1="632.41" x2="858.66" y1="594.6" y2="594.6"/><text fill="#000000" font-family="sans-serif" font-size="20" font-weight="bold" lengthAdjust="spacing" textLength="213.25" x="636.41" y="584.74">«aggregate» Teacher</text></g><!--class Class--><g id="elem_Class"><rect codeLine="24" fill="#F5F5DC" height="91.7199" id="Class" rx="2.5" ry="2.5" style="stroke:#181818;stroke-width:0.5;" width="100" x="337.41" y="54.36"/><ellipse cx="353.41" cy="100.22" fill="#ADD1B2" rx="12" ry="12" style="stroke:#181818;stroke-width:1.0;"/><path d="M357.4569,107.72 L348.8475,107.72 L348.8475,92.8137 L357.4569,92.8137 L357.4569,95.0168 L351.2694,95.0168 L351.2694,98.8606 L357.0975,98.8606 L357.0975,101.0325 L351.2694,101.0325 L351.2694,105.5168 L357.4569,105.5168 L357.4569,107.72 Z " fill="#000000"/><text fill="#000000" font-family="sans-serif" font-size="20" font-style="italic" lengthAdjust="spacing" textLength="70" x="366.41" y="80.74">«entity»</text><text fill="#000000" font-family="sans-serif" font-size="20" font-style="italic" lengthAdjust="spacing" textLength="57" x="372.91" y="107.9799">«root»</text><text fill="#000000" font-family="sans-serif" font-size="20" lengthAdjust="spacing" textLength="49" x="376.91" y="135.2199">Class</text></g><!--class SpecialClass--><g id="elem_SpecialClass"><rect codeLine="18" fill="#F5F5DC" height="64.4799" id="SpecialClass" rx="2.5" ry="2.5" style="stroke:#181818;stroke-width:0.5;" width="150" x="131.41" y="391.36"/><ellipse cx="147.41" cy="423.6" fill="#ADD1B2" rx="12" ry="12" style="stroke:#181818;stroke-width:1.0;"/><path d="M151.4569,431.1 L142.8475,431.1 L142.8475,416.1937 L151.4569,416.1937 L151.4569,418.3968 L145.2694,418.3968 L145.2694,422.2406 L151.0975,422.2406 L151.0975,424.4125 L145.2694,424.4125 L145.2694,428.8968 L151.4569,428.8968 L151.4569,431.1 Z " fill="#000000"/><text fill="#000000" font-family="sans-serif" font-size="20" font-style="italic" lengthAdjust="spacing" textLength="70" x="185.41" y="417.74">«entity»</text><text fill="#000000" font-family="sans-serif" font-size="20" lengthAdjust="spacing" textLength="116" x="162.41" y="444.9799">SpecialClass</text></g><!--class Duration--><g id="elem_Duration"><rect codeLine="21" fill="#F5F5DC" height="64.4799" id="Duration" rx="2.5" ry="2.5" style="stroke:#181818;stroke-width:0.5;" width="156" x="70.41" y="281.36"/><ellipse cx="86.41" cy="313.6" fill="#FF8B40" rx="12" ry="12" style="stroke:#181818;stroke-width:1.0;"/><path d="M92.66,307.4437 L87.3475,322.35 L85.0975,322.35 L79.785,307.4437 L82.3163,307.4437 L85.6131,316.8031 Q85.8319,317.3968 85.9881,317.9437 Q86.16,318.4906 86.285,318.9906 Q86.4256,319.475 86.2225,319.5218 Q86.0038,319.4906 86.1444,318.975 Q86.285,318.4593 86.4569,317.9281 Q86.6288,317.3812 86.8319,316.7718 L90.0975,307.4437 L92.66,307.4437 Z " fill="#000000"/><text fill="#000000" font-family="sans-serif" font-size="20" font-style="italic" lengthAdjust="spacing" textLength="126" x="99.41" y="307.74">«value object»</text><text fill="#000000" font-family="sans-serif" font-size="20" lengthAdjust="spacing" textLength="86" x="119.41" y="334.9799">Duration</text></g><!--class DayInWeek--><g id="elem_DayInWeek"><rect codeLine="22" fill="#F5F5DC" height="64.4799" id="DayInWeek" rx="2.5" ry="2.5" style="stroke:#181818;stroke-width:0.5;" width="156" x="261.41" y="281.36"/><ellipse cx="277.41" cy="313.6" fill="#FF8B40" rx="12" ry="12" style="stroke:#181818;stroke-width:1.0;"/><path d="M283.66,307.4437 L278.3475,322.35 L276.0975,322.35 L270.785,307.4437 L273.3163,307.4437 L276.6131,316.8031 Q276.8319,317.3968 276.9881,317.9437 Q277.16,318.4906 277.285,318.9906 Q277.4256,319.475 277.2225,319.5218 Q277.0038,319.4906 277.1444,318.975 Q277.285,318.4593 277.4569,317.9281 Q277.6288,317.3812 277.8319,316.7718 L281.0975,307.4437 L283.66,307.4437 Z " fill="#000000"/><text fill="#000000" font-family="sans-serif" font-size="20" font-style="italic" lengthAdjust="spacing" textLength="126" x="290.41" y="307.74">«value object»</text><text fill="#000000" font-family="sans-serif" font-size="20" lengthAdjust="spacing" textLength="107" x="299.91" y="334.9799">DayInWeek</text></g><!--class Hours--><g id="elem_Hours"><rect codeLine="20" fill="#F5F5DC" height="64.4799" id="Hours" rx="2.5" ry="2.5" style="stroke:#181818;stroke-width:0.5;" width="156" x="213.41" y="621.36"/><ellipse cx="229.41" cy="653.6" fill="#FF8B40" rx="12" ry="12" style="stroke:#181818;stroke-width:1.0;"/><path d="M235.66,647.4437 L230.3475,662.35 L228.0975,662.35 L222.785,647.4437 L225.3163,647.4437 L228.6131,656.8031 Q228.8319,657.3968 228.9881,657.9437 Q229.16,658.4906 229.285,658.9906 Q229.4256,659.475 229.2225,659.5218 Q229.0038,659.4906 229.1444,658.975 Q229.285,658.4593 229.4569,657.9281 Q229.6288,657.3812 229.8319,656.7718 L233.0975,647.4437 L235.66,647.4437 Z " fill="#000000"/><text fill="#000000" font-family="sans-serif" font-size="20" font-style="italic" lengthAdjust="spacing" textLength="126" x="242.41" y="647.74">«value object»</text><text fill="#000000" font-family="sans-serif" font-size="20" lengthAdjust="spacing" textLength="59" x="275.91" y="674.9799">Hours</text></g><!--class Course--><g id="elem_Course"><rect codeLine="31" fill="#F5F5DC" height="91.7199" id="Course" rx="2.5" ry="2.5" style="stroke:#181818;stroke-width:0.5;" width="101" x="510.91" y="267.36"/><ellipse cx="526.91" cy="313.22" fill="#ADD1B2" rx="12" ry="12" style="stroke:#181818;stroke-width:1.0;"/><path d="M530.9569,320.72 L522.3475,320.72 L522.3475,305.8137 L530.9569,305.8137 L530.9569,308.0168 L524.7694,308.0168 L524.7694,311.8606 L530.5975,311.8606 L530.5975,314.0325 L524.7694,314.0325 L524.7694,318.5168 L530.9569,318.5168 L530.9569,320.72 Z " fill="#000000"/><text fill="#000000" font-family="sans-serif" font-size="20" font-style="italic" lengthAdjust="spacing" textLength="70" x="540.41" y="293.74">«entity»</text><text fill="#000000" font-family="sans-serif" font-size="20" font-style="italic" lengthAdjust="spacing" textLength="57" x="546.91" y="320.9799">«root»</text><text fill="#000000" font-family="sans-serif" font-size="20" lengthAdjust="spacing" textLength="67" x="541.91" y="348.2199">Course</text></g><!--class Teacher--><g id="elem_Teacher"><rect codeLine="38" fill="#F5F5DC" height="91.7199" id="Teacher" rx="2.5" ry="2.5" style="stroke:#181818;stroke-width:0.5;" width="111" x="690.91" y="607.36"/><ellipse cx="706.91" cy="653.22" fill="#ADD1B2" rx="12" ry="12" style="stroke:#181818;stroke-width:1.0;"/><path d="M710.9569,660.72 L702.3475,660.72 L702.3475,645.8137 L710.9569,645.8137 L710.9569,648.0168 L704.7694,648.0168 L704.7694,651.8606 L710.5975,651.8606 L710.5975,654.0325 L704.7694,654.0325 L704.7694,658.5168 L710.9569,658.5168 L710.9569,660.72 Z " fill="#000000"/><text fill="#000000" font-family="sans-serif" font-size="20" font-style="italic" lengthAdjust="spacing" textLength="70" x="725.41" y="633.74">«entity»</text><text fill="#000000" font-family="sans-serif" font-size="20" font-style="italic" lengthAdjust="spacing" textLength="57" x="731.91" y="660.9799">«root»</text><text fill="#000000" font-family="sans-serif" font-size="20" lengthAdjust="spacing" textLength="77" x="721.91" y="688.2199">Teacher</text></g><!--link Class to Course--><g id="link_Class_Course"><path codeLine="42" d="M434.99,146.68 C444.36,156.23 453.91,166.42 462.41,176.36 C485.92,203.86 509.85,236.59 528.3,263.05 " fill="none" id="Class-to-Course" style="stroke:#222222;stroke-width:1.0;"/><polygon fill="#222222" points="531.22,267.24,529.3719,257.5661,528.368,263.1331,522.801,262.1292,531.22,267.24" style="stroke:#222222;stroke-width:1.0;"/><text fill="#000000" font-family="sans-serif" font-size="20" lengthAdjust="spacing" textLength="115" x="486.41" y="198.74">is related to</text><text fill="#000000" font-family="sans-serif" font-size="20" lengthAdjust="spacing" textLength="11" x="515.4242" y="253.6435">1</text></g><!--link Class to Teacher--><g id="link_Class_Teacher"><path codeLine="43" d="M437.73,106.96 C486.96,114.81 561.48,133.34 610.41,176.36 C735.8,286.61 749.2,503.66 748.37,601.91 " fill="none" id="Class-to-Teacher" style="stroke:#222222;stroke-width:1.0;"/><polygon fill="#222222" points="748.32,607.07,752.4226,598.1163,748.3771,602.0703,744.4231,598.0249,748.32,607.07" style="stroke:#222222;stroke-width:1.0;"/><text fill="#000000" font-family="sans-serif" font-size="20" lengthAdjust="spacing" textLength="127" x="738.41" y="431.24">scheduled by</text><text fill="#000000" font-family="sans-serif" font-size="20" lengthAdjust="spacing" textLength="11" x="736.8376" y="593.4506">1</text></g><!--link Class to Hours--><g id="link_Class_Hours"><path codeLine="44" d="M411.75,146.58 C421.12,166.46 430.71,190.46 435.41,213.36 C450.6,287.37 453.79,310.07 435.41,383.36 C412.71,473.88 353.05,567.22 318.05,616.62 " fill="none" id="Class-to-Hours" style="stroke:#222222;stroke-width:1.0;"/><polygon fill="#222222" points="314.96,620.97,323.4394,615.9601,317.8608,616.8975,316.9234,611.3188,314.96,620.97" style="stroke:#222222;stroke-width:1.0;"/><text fill="#000000" font-family="sans-serif" font-size="20" lengthAdjust="spacing" textLength="34" x="433.41" y="431.24">has</text><text fill="#000000" font-family="sans-serif" font-size="20" lengthAdjust="spacing" textLength="11" x="307.0623" y="607.442">1</text></g><!--link Class to SpecialClass--><g id="link_Class_SpecialClass"><path codeLine="46" d="M337.22,101.27 C261,104.19 117.99,122.29 52.41,213.36 C8.26,274.67 6,323.74 52.41,383.36 C62.1,395.81 93.87,404.92 126.06,411.19 " fill="none" id="Class-to-SpecialClass" style="stroke:#222222;stroke-width:1.0;"/><polygon fill="#222222" points="131.23,412.17,123.1321,406.5642,126.3174,411.239,121.6426,414.4243,131.23,412.17" style="stroke:#222222;stroke-width:1.0;"/><text fill="#000000" font-family="sans-serif" font-size="20" lengthAdjust="spacing" textLength="34" x="85.41" y="198.74">has</text><text fill="#000000" font-family="sans-serif" font-size="20" lengthAdjust="spacing" textLength="32" x="91.3942" y="404.4179">0..*</text></g><!--link Class to DayInWeek--><g id="link_Class_DayInWeek"><path codeLine="47" d="M377.17,146.37 C368.38,185.01 355.87,240.01 347.69,275.94 " fill="none" id="Class-to-DayInWeek" style="stroke:#222222;stroke-width:1.0;"/><polygon fill="#222222" points="346.52,281.1,352.3991,273.1984,347.6182,276.2221,344.5945,271.4412,346.52,281.1" style="stroke:#222222;stroke-width:1.0;"/><text fill="#000000" font-family="sans-serif" font-size="20" lengthAdjust="spacing" textLength="34" x="369.41" y="198.74">has</text><text fill="#000000" font-family="sans-serif" font-size="20" lengthAdjust="spacing" textLength="11" x="335.7967" y="267.5944">1</text></g><!--link Class to Duration--><g id="link_Class_Duration"><path codeLine="48" d="M337.09,138.11 C309.05,159.24 273.95,186.79 244.41,213.36 C222.05,233.48 198.52,257.69 180.35,277.13 " fill="none" id="Class-to-Duration" style="stroke:#222222;stroke-width:1.0;"/><polygon fill="#222222" points="176.79,280.96,185.84,277.0745,180.1873,277.2915,179.9704,271.6388,176.79,280.96" style="stroke:#222222;stroke-width:1.0;"/><text fill="#000000" font-family="sans-serif" font-size="20" lengthAdjust="spacing" textLength="34" x="286.41" y="198.74">has</text><text fill="#000000" font-family="sans-serif" font-size="20" lengthAdjust="spacing" textLength="11" x="169.7225" y="267.4303">1</text></g><!--link SpecialClass to Hours--><g id="link_SpecialClass_Hours"><path codeLine="49" d="M218.05,455.58 C233.71,497.59 261.5,572.14 278.01,616.43 " fill="none" id="SpecialClass-to-Hours" style="stroke:#222222;stroke-width:1.0;"/><polygon fill="#222222" points="279.77,621.15,280.3815,611.3201,278.0269,616.4637,272.8834,614.1091,279.77,621.15" style="stroke:#222222;stroke-width:1.0;"/><text fill="#000000" font-family="sans-serif" font-size="20" lengthAdjust="spacing" textLength="34" x="240.41" y="507.74">has</text><text fill="#000000" font-family="sans-serif" font-size="20" lengthAdjust="spacing" textLength="11" x="265.7169" y="607.3665">1</text></g><!--SRC=[bL9DJuD04BtlhvZGWn-nBHeFfY5Dsfh6dclqFC08AmjBTXTDRVplRjbIGDkeN0ZllNdpPWQTyQ94XRcGKKOnnFI2bJ1BMPWr_o2uyTbPQaof9-DnAR0mLIv6aSp7aK2jXp77n1OpfXiVg8cPCOg7bQ5L98lQo6SfZmaeByq6iA5r5yt9f3BMtxtc66M9abKHBwIG2aBY2NL4CwNakwC6D_N3M6bhC27mWW2JH562XgPJMEpyFDWo02eCjprhXBNVwv8YZiB1u0B0VQNGS5cq06vMnJDHTa0UPAKq-sJiY0y4WKDjWgsLT2eiTVvqDLWkx-Qt_WMyeQW8PFXAaN7YVe2_ofjul-fPTmtTd46WfAn5kw5EhNCt0hbzjXkjmSug7F1lyqV2A2NLkzOUwvZlaTFkp8qs74x1k_QQC1FW6XG9soe68m-YHjROJa3RTrm9AmitFsJkXXD8KVSQ-QFHfTV_1voe7wQzqr6sEReZUsx70dm1]--></g></svg>