<?xml version="1.0" encoding="UTF-8" standalone="no"?><svg xmlns="http://www.w3.org/2000/svg" xmlns:xlink="http://www.w3.org/1999/xlink" contentStyleType="text/css" height="1189px" preserveAspectRatio="none" style="width:1993px;height:1189px;background:#FFFFFF;" version="1.1" viewBox="0 0 1993 1189" width="1993px" zoomAndPan="magnify"><defs/><g><rect fill="#FFFFFF" height="939.7995" style="stroke:#181818;stroke-width:1.0;" width="10" x="40" y="115.4799"/><rect fill="#FFFFFF" height="291.6798" style="stroke:#181818;stroke-width:1.0;" width="10" x="500.25" y="148.7199"/><rect fill="#FFFFFF" height="41.24" style="stroke:#181818;stroke-width:1.0;" width="10" x="500.25" y="481.6397"/><rect fill="#FFFFFF" height="153.7199" style="stroke:#181818;stroke-width:1.0;" width="10" x="500.25" y="564.1197"/><rect fill="#FFFFFF" height="296.1999" style="stroke:#181818;stroke-width:1.0;" width="10" x="500.25" y="759.0796"/><rect fill="#FFFFFF" height="217.1999" style="stroke:#181818;stroke-width:1.0;" width="10" x="910.875" y="189.9599"/><rect fill="#FFFFFF" height="71.24" style="stroke:#181818;stroke-width:1.0;" width="10" x="910.875" y="605.3596"/><rect fill="#FFFFFF" height="263.9599" style="stroke:#181818;stroke-width:1.0;" width="10" x="910.875" y="800.3195"/><rect fill="#FFFFFF" height="175.9599" style="stroke:#181818;stroke-width:1.0;" width="10" x="1141.5" y="231.1999"/><rect fill="#FFFFFF" height="71.24" style="stroke:#181818;stroke-width:1.0;" width="10" x="1305.125" y="320.9198"/><rect fill="#FFFFFF" height="30" style="stroke:#181818;stroke-width:1.0;" width="10" x="1305.125" y="912.7995"/><rect fill="#FFFFFF" height="30" style="stroke:#181818;stroke-width:1.0;" width="10" x="1432.125" y="362.1598"/><rect fill="#FFFFFF" height="30" style="stroke:#181818;stroke-width:1.0;" width="10" x="1626.125" y="646.5996"/><rect fill="#FFFFFF" height="30" style="stroke:#181818;stroke-width:1.0;" width="10" x="1877.625" y="841.5595"/><rect fill="#FFFFFF" height="30" style="stroke:#181818;stroke-width:1.0;" width="10" x="1877.625" y="984.0395"/><rect fill="none" height="153.9599" style="stroke:#000000;stroke-width:1.5;" width="427.625" x="1072" y="246.1999"/><line style="stroke:#181818;stroke-width:0.5;stroke-dasharray:5.0,5.0;" x1="45" x2="45" y1="105.4799" y2="1073.2794"/><line style="stroke:#181818;stroke-width:0.5;stroke-dasharray:5.0,5.0;" x1="504.75" x2="504.75" y1="105.4799" y2="1073.2794"/><line style="stroke:#181818;stroke-width:0.5;stroke-dasharray:5.0,5.0;" x1="915.875" x2="915.875" y1="105.4799" y2="1073.2794"/><line style="stroke:#181818;stroke-width:0.5;stroke-dasharray:5.0,5.0;" x1="1146" x2="1146" y1="105.4799" y2="1073.2794"/><line style="stroke:#181818;stroke-width:0.5;stroke-dasharray:5.0,5.0;" x1="1309.625" x2="1309.625" y1="105.4799" y2="1073.2794"/><line style="stroke:#181818;stroke-width:0.5;stroke-dasharray:5.0,5.0;" x1="1436.625" x2="1436.625" y1="105.4799" y2="1073.2794"/><line style="stroke:#181818;stroke-width:0.5;stroke-dasharray:5.0,5.0;" x1="1630.625" x2="1630.625" y1="105.4799" y2="1073.2794"/><line style="stroke:#181818;stroke-width:0.5;stroke-dasharray:5.0,5.0;" x1="1882.625" x2="1882.625" y1="105.4799" y2="1073.2794"/><text fill="#000000" font-family="sans-serif" font-size="20" lengthAdjust="spacing" textLength="74" x="5" y="99.62">Teacher</text><ellipse cx="45" cy="26.74" fill="#E2E2F0" rx="8" ry="8" style="stroke:#181818;stroke-width:0.5;"/><path d="M45,34.74 L45,61.74 M32,42.74 L58,42.74 M45,61.74 L32,76.74 M45,61.74 L58,76.74 " fill="none" style="stroke:#181818;stroke-width:0.5;"/><text fill="#000000" font-family="sans-serif" font-size="20" lengthAdjust="spacing" textLength="74" x="5" y="1093.6594">Teacher</text><ellipse cx="45" cy="1108.0194" fill="#E2E2F0" rx="8" ry="8" style="stroke:#181818;stroke-width:0.5;"/><path d="M45,1116.0194 L45,1143.0194 M32,1124.0194 L58,1124.0194 M45,1143.0194 L32,1158.0194 M45,1143.0194 L58,1158.0194 " fill="none" style="stroke:#181818;stroke-width:0.5;"/><rect fill="#E2E2F0" height="68.4799" rx="2.5" ry="2.5" style="stroke:#181818;stroke-width:0.5;" width="237" x="386.75" y="36"/><text fill="#000000" font-family="sans-serif" font-size="20" font-style="italic" lengthAdjust="spacing" textLength="134" x="438.25" y="64.38">«presentation»</text><text fill="#000000" font-family="sans-serif" font-size="20" lengthAdjust="spacing" textLength="223" x="393.75" y="91.62">UpdateClassScheduleUI</text><rect fill="#E2E2F0" height="68.4799" rx="2.5" ry="2.5" style="stroke:#181818;stroke-width:0.5;" width="237" x="386.75" y="1072.2794"/><text fill="#000000" font-family="sans-serif" font-size="20" font-style="italic" lengthAdjust="spacing" textLength="134" x="438.25" y="1100.6594">«presentation»</text><text fill="#000000" font-family="sans-serif" font-size="20" lengthAdjust="spacing" textLength="223" x="393.75" y="1127.8994">UpdateClassScheduleUI</text><rect fill="#E2E2F0" height="68.4799" rx="2.5" ry="2.5" style="stroke:#181818;stroke-width:0.5;" width="308" x="761.875" y="36"/><text fill="#000000" font-family="sans-serif" font-size="20" font-style="italic" lengthAdjust="spacing" textLength="120" x="855.875" y="64.38">«application»</text><text fill="#000000" font-family="sans-serif" font-size="20" lengthAdjust="spacing" textLength="294" x="768.875" y="91.62">UpdateClassScheduleController</text><rect fill="#E2E2F0" height="68.4799" rx="2.5" ry="2.5" style="stroke:#181818;stroke-width:0.5;" width="308" x="761.875" y="1072.2794"/><text fill="#000000" font-family="sans-serif" font-size="20" font-style="italic" lengthAdjust="spacing" textLength="120" x="855.875" y="1100.6594">«application»</text><text fill="#000000" font-family="sans-serif" font-size="20" lengthAdjust="spacing" textLength="294" x="768.875" y="1127.8994">UpdateClassScheduleController</text><rect fill="#E2E2F0" height="68.4799" rx="2.5" ry="2.5" style="stroke:#181818;stroke-width:0.5;" width="129" x="1082" y="36"/><text fill="#000000" font-family="sans-serif" font-size="20" font-style="italic" lengthAdjust="spacing" textLength="80" x="1106.5" y="64.38">«service»</text><text fill="#000000" font-family="sans-serif" font-size="20" lengthAdjust="spacing" textLength="115" x="1089" y="91.62">ClassService</text><rect fill="#E2E2F0" height="68.4799" rx="2.5" ry="2.5" style="stroke:#181818;stroke-width:0.5;" width="129" x="1082" y="1072.2794"/><text fill="#000000" font-family="sans-serif" font-size="20" font-style="italic" lengthAdjust="spacing" textLength="80" x="1106.5" y="1100.6594">«service»</text><text fill="#000000" font-family="sans-serif" font-size="20" lengthAdjust="spacing" textLength="115" x="1089" y="1127.8994">ClassService</text><rect fill="#E2E2F0" height="68.4799" rx="2.5" ry="2.5" style="stroke:#181818;stroke-width:0.5;" width="129" x="1245.625" y="36"/><text fill="#000000" font-family="sans-serif" font-size="20" font-style="italic" lengthAdjust="spacing" textLength="89" x="1265.625" y="64.38">«domain»</text><text fill="#000000" font-family="sans-serif" font-size="20" lengthAdjust="spacing" textLength="115" x="1252.625" y="91.62">CourseClass</text><rect fill="#E2E2F0" height="68.4799" rx="2.5" ry="2.5" style="stroke:#181818;stroke-width:0.5;" width="129" x="1245.625" y="1072.2794"/><text fill="#000000" font-family="sans-serif" font-size="20" font-style="italic" lengthAdjust="spacing" textLength="89" x="1265.625" y="1100.6594">«domain»</text><text fill="#000000" font-family="sans-serif" font-size="20" lengthAdjust="spacing" textLength="115" x="1252.625" y="1127.8994">CourseClass</text><rect fill="#E2E2F0" height="68.4799" rx="2.5" ry="2.5" style="stroke:#181818;stroke-width:0.5;" width="105" x="1384.625" y="36"/><text fill="#000000" font-family="sans-serif" font-size="20" font-style="italic" lengthAdjust="spacing" textLength="50" x="1412.125" y="64.38">«dto»</text><text fill="#000000" font-family="sans-serif" font-size="20" lengthAdjust="spacing" textLength="91" x="1391.625" y="91.62">ClassDTO</text><rect fill="#E2E2F0" height="68.4799" rx="2.5" ry="2.5" style="stroke:#181818;stroke-width:0.5;" width="105" x="1384.625" y="1072.2794"/><text fill="#000000" font-family="sans-serif" font-size="20" font-style="italic" lengthAdjust="spacing" textLength="50" x="1412.125" y="1100.6594">«dto»</text><text fill="#000000" font-family="sans-serif" font-size="20" lengthAdjust="spacing" textLength="91" x="1391.625" y="1127.8994">ClassDTO</text><rect fill="#E2E2F0" height="68.4799" rx="2.5" ry="2.5" style="stroke:#181818;stroke-width:0.5;" width="263" x="1499.625" y="36"/><text fill="#000000" font-family="sans-serif" font-size="20" font-style="italic" lengthAdjust="spacing" textLength="80" x="1591.125" y="64.38">«service»</text><text fill="#000000" font-family="sans-serif" font-size="20" lengthAdjust="spacing" textLength="249" x="1506.625" y="91.62">ScheduleAvailabilityService</text><rect fill="#E2E2F0" height="68.4799" rx="2.5" ry="2.5" style="stroke:#181818;stroke-width:0.5;" width="263" x="1499.625" y="1072.2794"/><text fill="#000000" font-family="sans-serif" font-size="20" font-style="italic" lengthAdjust="spacing" textLength="80" x="1591.125" y="1100.6594">«service»</text><text fill="#000000" font-family="sans-serif" font-size="20" lengthAdjust="spacing" textLength="249" x="1506.625" y="1127.8994">ScheduleAvailabilityService</text><text fill="#000000" font-family="sans-serif" font-size="20" font-style="italic" lengthAdjust="spacing" textLength="110" x="1824.625" y="72.38">«repository»</text><text fill="#000000" font-family="sans-serif" font-size="20" lengthAdjust="spacing" textLength="214" x="1772.625" y="99.62">CourseClassRepository</text><path d="M1864.625,15 C1864.625,5 1882.625,5 1882.625,5 C1882.625,5 1900.625,5 1900.625,15 L1900.625,41 C1900.625,51 1882.625,51 1882.625,51 C1882.625,51 1864.625,51 1864.625,41 L1864.625,15 " fill="#E2E2F0" style="stroke:#181818;stroke-width:1.5;"/><path d="M1864.625,15 C1864.625,25 1882.625,25 1882.625,25 C1882.625,25 1900.625,25 1900.625,15 " fill="none" style="stroke:#181818;stroke-width:1.5;"/><text fill="#000000" font-family="sans-serif" font-size="20" font-style="italic" lengthAdjust="spacing" textLength="110" x="1824.625" y="1093.6594">«repository»</text><text fill="#000000" font-family="sans-serif" font-size="20" lengthAdjust="spacing" textLength="214" x="1772.625" y="1120.8994">CourseClassRepository</text><path d="M1864.625,1136.7594 C1864.625,1126.7594 1882.625,1126.7594 1882.625,1126.7594 C1882.625,1126.7594 1900.625,1126.7594 1900.625,1136.7594 L1900.625,1162.7594 C1900.625,1172.7594 1882.625,1172.7594 1882.625,1172.7594 C1882.625,1172.7594 1864.625,1172.7594 1864.625,1162.7594 L1864.625,1136.7594 " fill="#E2E2F0" style="stroke:#181818;stroke-width:1.5;"/><path d="M1864.625,1136.7594 C1864.625,1146.7594 1882.625,1146.7594 1882.625,1146.7594 C1882.625,1146.7594 1900.625,1146.7594 1900.625,1136.7594 " fill="none" style="stroke:#181818;stroke-width:1.5;"/><rect fill="#FFFFFF" height="939.7995" style="stroke:#181818;stroke-width:1.0;" width="10" x="40" y="115.4799"/><rect fill="#FFFFFF" height="291.6798" style="stroke:#181818;stroke-width:1.0;" width="10" x="500.25" y="148.7199"/><rect fill="#FFFFFF" height="41.24" style="stroke:#181818;stroke-width:1.0;" width="10" x="500.25" y="481.6397"/><rect fill="#FFFFFF" height="153.7199" style="stroke:#181818;stroke-width:1.0;" width="10" x="500.25" y="564.1197"/><rect fill="#FFFFFF" height="296.1999" style="stroke:#181818;stroke-width:1.0;" width="10" x="500.25" y="759.0796"/><rect fill="#FFFFFF" height="217.1999" style="stroke:#181818;stroke-width:1.0;" width="10" x="910.875" y="189.9599"/><rect fill="#FFFFFF" height="71.24" style="stroke:#181818;stroke-width:1.0;" width="10" x="910.875" y="605.3596"/><rect fill="#FFFFFF" height="263.9599" style="stroke:#181818;stroke-width:1.0;" width="10" x="910.875" y="800.3195"/><rect fill="#FFFFFF" height="175.9599" style="stroke:#181818;stroke-width:1.0;" width="10" x="1141.5" y="231.1999"/><rect fill="#FFFFFF" height="71.24" style="stroke:#181818;stroke-width:1.0;" width="10" x="1305.125" y="320.9198"/><rect fill="#FFFFFF" height="30" style="stroke:#181818;stroke-width:1.0;" width="10" x="1305.125" y="912.7995"/><rect fill="#FFFFFF" height="30" style="stroke:#181818;stroke-width:1.0;" width="10" x="1432.125" y="362.1598"/><rect fill="#FFFFFF" height="30" style="stroke:#181818;stroke-width:1.0;" width="10" x="1626.125" y="646.5996"/><rect fill="#FFFFFF" height="30" style="stroke:#181818;stroke-width:1.0;" width="10" x="1877.625" y="841.5595"/><rect fill="#FFFFFF" height="30" style="stroke:#181818;stroke-width:1.0;" width="10" x="1877.625" y="984.0395"/><polygon fill="#181818" points="488.25,144.7199,498.25,148.7199,488.25,152.7199,492.25,148.7199" style="stroke:#181818;stroke-width:1.0;"/><line style="stroke:#181818;stroke-width:1.0;" x1="50" x2="494.25" y1="148.7199" y2="148.7199"/><text fill="#000000" font-family="sans-serif" font-size="20" font-weight="bold" lengthAdjust="spacing" textLength="11.625" x="57" y="140.8599">1</text><text fill="#000000" font-family="sans-serif" font-size="20" lengthAdjust="spacing" textLength="310" x="72.625" y="140.8599">asks to update the class schedule</text><polygon fill="#181818" points="898.875,185.9599,908.875,189.9599,898.875,193.9599,902.875,189.9599" style="stroke:#181818;stroke-width:1.0;"/><line style="stroke:#181818;stroke-width:1.0;" x1="510.25" x2="904.875" y1="189.9599" y2="189.9599"/><text fill="#000000" font-family="sans-serif" font-size="20" font-weight="bold" lengthAdjust="spacing" textLength="11.625" x="517.25" y="182.0999">2</text><text fill="#000000" font-family="sans-serif" font-size="20" lengthAdjust="spacing" textLength="366" x="532.875" y="182.0999">listAllClassesForAuthenticatedTeacher()</text><polygon fill="#181818" points="1129.5,227.1999,1139.5,231.1999,1129.5,235.1999,1133.5,231.1999" style="stroke:#181818;stroke-width:1.0;"/><line style="stroke:#181818;stroke-width:1.0;" x1="920.875" x2="1135.5" y1="231.1999" y2="231.1999"/><text fill="#000000" font-family="sans-serif" font-size="20" font-weight="bold" lengthAdjust="spacing" textLength="11.625" x="927.875" y="223.3399">3</text><text fill="#000000" font-family="sans-serif" font-size="20" lengthAdjust="spacing" textLength="186" x="943.5" y="223.3399">getTeacherClasses()</text><path d="M1072,246.1999 L1160.5,246.1999 L1160.5,265.4398 L1150.5,275.4398 L1072,275.4398 L1072,246.1999 " fill="#EEEEEE" style="stroke:#000000;stroke-width:1.5;"/><rect fill="none" height="153.9599" style="stroke:#000000;stroke-width:1.5;" width="427.625" x="1072" y="246.1999"/><text fill="#000000" font-family="sans-serif" font-size="20" font-weight="bold" lengthAdjust="spacing" textLength="43.5" x="1087" y="268.5799">loop</text><text fill="#000000" font-family="sans-serif" font-size="20" font-weight="bold" lengthAdjust="spacing" textLength="149.75" x="1175.5" y="269.5799">[for each class]</text><polygon fill="#181818" points="1293.125,316.9198,1303.125,320.9198,1293.125,324.9198,1297.125,320.9198" style="stroke:#181818;stroke-width:1.0;"/><line style="stroke:#181818;stroke-width:1.0;" x1="1151.5" x2="1299.125" y1="320.9198" y2="320.9198"/><text fill="#000000" font-family="sans-serif" font-size="20" font-weight="bold" lengthAdjust="spacing" textLength="11.625" x="1158.5" y="313.0598">4</text><text fill="#000000" font-family="sans-serif" font-size="20" lengthAdjust="spacing" textLength="119" x="1174.125" y="313.0598">toDTO(class)</text><polygon fill="#181818" points="1420.125,358.1598,1430.125,362.1598,1420.125,366.1598,1424.125,362.1598" style="stroke:#181818;stroke-width:1.0;"/><line style="stroke:#181818;stroke-width:1.0;" x1="1315.125" x2="1426.125" y1="362.1598" y2="362.1598"/><text fill="#000000" font-family="sans-serif" font-size="20" font-weight="bold" lengthAdjust="spacing" textLength="11.625" x="1322.125" y="354.2998">5</text><text fill="#000000" font-family="sans-serif" font-size="20" lengthAdjust="spacing" textLength="39" x="1337.75" y="354.2998">new</text><polygon fill="#181818" points="61,436.3997,51,440.3997,61,444.3997,57,440.3997" style="stroke:#181818;stroke-width:1.0;"/><line style="stroke:#181818;stroke-width:1.0;stroke-dasharray:2.0,2.0;" x1="55" x2="504.25" y1="440.3997" y2="440.3997"/><text fill="#000000" font-family="sans-serif" font-size="20" font-weight="bold" lengthAdjust="spacing" textLength="11.625" x="67" y="432.5398">6</text><text fill="#000000" font-family="sans-serif" font-size="20" lengthAdjust="spacing" textLength="184" x="82.625" y="432.5398">lists teacher classes</text><polygon fill="#181818" points="488.25,477.6397,498.25,481.6397,488.25,485.6397,492.25,481.6397" style="stroke:#181818;stroke-width:1.0;"/><line style="stroke:#181818;stroke-width:1.0;" x1="50" x2="494.25" y1="481.6397" y2="481.6397"/><text fill="#000000" font-family="sans-serif" font-size="20" font-weight="bold" lengthAdjust="spacing" textLength="11.625" x="57" y="473.7797">7</text><text fill="#000000" font-family="sans-serif" font-size="20" lengthAdjust="spacing" textLength="115" x="72.625" y="473.7797">selects class</text><polygon fill="#181818" points="61,518.8797,51,522.8797,61,526.8797,57,522.8797" style="stroke:#181818;stroke-width:1.0;"/><line style="stroke:#181818;stroke-width:1.0;stroke-dasharray:2.0,2.0;" x1="55" x2="504.25" y1="522.8797" y2="522.8797"/><text fill="#000000" font-family="sans-serif" font-size="20" font-weight="bold" lengthAdjust="spacing" textLength="11.625" x="67" y="515.0197">8</text><text fill="#000000" font-family="sans-serif" font-size="20" lengthAdjust="spacing" textLength="317" x="82.625" y="515.0197">requests data (Day Of Week, time)</text><polygon fill="#181818" points="488.25,560.1197,498.25,564.1197,488.25,568.1197,492.25,564.1197" style="stroke:#181818;stroke-width:1.0;"/><line style="stroke:#181818;stroke-width:1.0;" x1="50" x2="494.25" y1="564.1197" y2="564.1197"/><text fill="#000000" font-family="sans-serif" font-size="20" font-weight="bold" lengthAdjust="spacing" textLength="11.625" x="57" y="556.2597">9</text><text fill="#000000" font-family="sans-serif" font-size="20" lengthAdjust="spacing" textLength="195" x="72.625" y="556.2597">types requested data</text><polygon fill="#181818" points="898.875,601.3596,908.875,605.3596,898.875,609.3596,902.875,605.3596" style="stroke:#181818;stroke-width:1.0;"/><line style="stroke:#181818;stroke-width:1.0;" x1="510.25" x2="904.875" y1="605.3596" y2="605.3596"/><text fill="#000000" font-family="sans-serif" font-size="20" font-weight="bold" lengthAdjust="spacing" textLength="23.25" x="517.25" y="597.4997">10</text><text fill="#000000" font-family="sans-serif" font-size="20" lengthAdjust="spacing" textLength="249" x="544.5" y="597.4997">checkIfUsersAreAvailable()</text><polygon fill="#181818" points="1614.125,642.5996,1624.125,646.5996,1614.125,650.5996,1618.125,646.5996" style="stroke:#181818;stroke-width:1.0;"/><line style="stroke:#181818;stroke-width:1.0;" x1="920.875" x2="1620.125" y1="646.5996" y2="646.5996"/><text fill="#000000" font-family="sans-serif" font-size="20" font-weight="bold" lengthAdjust="spacing" textLength="23.25" x="927.875" y="638.7396">11</text><text fill="#000000" font-family="sans-serif" font-size="20" lengthAdjust="spacing" textLength="148" x="955.125" y="638.7396">areAllAvailable()</text><polygon fill="#181818" points="61,713.8396,51,717.8396,61,721.8396,57,717.8396" style="stroke:#181818;stroke-width:1.0;"/><line style="stroke:#181818;stroke-width:1.0;stroke-dasharray:2.0,2.0;" x1="55" x2="504.25" y1="717.8396" y2="717.8396"/><text fill="#000000" font-family="sans-serif" font-size="20" font-weight="bold" lengthAdjust="spacing" textLength="23.25" x="67" y="709.9796">12</text><text fill="#000000" font-family="sans-serif" font-size="20" lengthAdjust="spacing" textLength="399" x="94.25" y="709.9796">shows if teacher and students are available</text><polygon fill="#181818" points="488.25,755.0796,498.25,759.0796,488.25,763.0796,492.25,759.0796" style="stroke:#181818;stroke-width:1.0;"/><line style="stroke:#181818;stroke-width:1.0;" x1="50" x2="494.25" y1="759.0796" y2="759.0796"/><text fill="#000000" font-family="sans-serif" font-size="20" font-weight="bold" lengthAdjust="spacing" textLength="23.25" x="57" y="751.2196">13</text><text fill="#000000" font-family="sans-serif" font-size="20" lengthAdjust="spacing" textLength="129" x="84.25" y="751.2196">confirms data</text><polygon fill="#181818" points="898.875,796.3195,908.875,800.3195,898.875,804.3195,902.875,800.3195" style="stroke:#181818;stroke-width:1.0;"/><line style="stroke:#181818;stroke-width:1.0;" x1="510.25" x2="904.875" y1="800.3195" y2="800.3195"/><text fill="#000000" font-family="sans-serif" font-size="20" font-weight="bold" lengthAdjust="spacing" textLength="23.25" x="517.25" y="792.4596">14</text><text fill="#000000" font-family="sans-serif" font-size="20" lengthAdjust="spacing" textLength="210" x="544.5" y="792.4596">updateScheduleClass()</text><polygon fill="#181818" points="1865.625,837.5595,1875.625,841.5595,1865.625,845.5595,1869.625,841.5595" style="stroke:#181818;stroke-width:1.0;"/><line style="stroke:#181818;stroke-width:1.0;" x1="920.875" x2="1871.625" y1="841.5595" y2="841.5595"/><text fill="#000000" font-family="sans-serif" font-size="20" font-weight="bold" lengthAdjust="spacing" textLength="23.25" x="927.875" y="833.6995">15</text><text fill="#000000" font-family="sans-serif" font-size="20" lengthAdjust="spacing" textLength="91" x="955.125" y="833.6995">getClass()</text><polygon fill="#181818" points="1293.125,908.7995,1303.125,912.7995,1293.125,916.7995,1297.125,912.7995" style="stroke:#181818;stroke-width:1.0;"/><line style="stroke:#181818;stroke-width:1.0;" x1="920.875" x2="1299.125" y1="912.7995" y2="912.7995"/><text fill="#000000" font-family="sans-serif" font-size="20" font-weight="bold" lengthAdjust="spacing" textLength="23.25" x="927.875" y="904.9395">16</text><text fill="#000000" font-family="sans-serif" font-size="20" lengthAdjust="spacing" textLength="161" x="955.125" y="904.9395">addSpecialClass()</text><polygon fill="#181818" points="1865.625,980.0395,1875.625,984.0395,1865.625,988.0395,1869.625,984.0395" style="stroke:#181818;stroke-width:1.0;"/><line style="stroke:#181818;stroke-width:1.0;" x1="920.875" x2="1871.625" y1="984.0395" y2="984.0395"/><text fill="#000000" font-family="sans-serif" font-size="20" font-weight="bold" lengthAdjust="spacing" textLength="23.25" x="927.875" y="976.1795">17</text><text fill="#000000" font-family="sans-serif" font-size="20" lengthAdjust="spacing" textLength="54" x="955.125" y="976.1795">save()</text><polygon fill="#181818" points="56,1051.2794,46,1055.2794,56,1059.2794,52,1055.2794" style="stroke:#181818;stroke-width:1.0;"/><line style="stroke:#181818;stroke-width:1.0;stroke-dasharray:2.0,2.0;" x1="50" x2="504.25" y1="1055.2794" y2="1055.2794"/><text fill="#000000" font-family="sans-serif" font-size="20" font-weight="bold" lengthAdjust="spacing" textLength="23.25" x="62" y="1047.4195">18</text><text fill="#000000" font-family="sans-serif" font-size="20" lengthAdjust="spacing" textLength="246" x="89.25" y="1047.4195">informs operation success</text><!--SRC=[XLHTZzem47pthrZT4qYjLFKHdP0Gnqb89r6Hf7qspgPOc3ZrEfpeh-ywviCGKfvGpCpixkpOjDDr8vtS6wjsM4A9bMoDVxUrp_HVXE_VX6ozhTlz1fqGKddhu2L7gRReNa0Iv4AmWDTADxBsy58qfVGuDv8eOr3P6YoM7R9Omkjhuv2mzj9hMq-dJwbpRiHPOqx5vldwWqLaqnYj7cf4Dhg3LXWf7xCionRhdylvWgaK_-hHREiebewiLR7E5XsNIQNTI_sur5k-wWZy6u3UtgFEaymEKXkvqKRxOzfVDbilVjmq9jW5kP64a7IrniQIPlUFWHGfxd8MMBmRVM3_maPo-3eDVayOl2Fm5jhEM_1R11NqW4vzNNd5KWZcCBEpUG96avyPqzL7UhTkrZA_zi5wB4yX68sl2e4dHCSEAgdp4_YD_aGv2Tum4wmGnje6AavQmCT-1Tpg1VraHnEUaLSmwh1Z1b-LhwYWaN1O8cnj0ZL-fWm-vCyIXmzIJQnB2Ftosl3nEEbvPr0mcOldqM5UJxGb3egK4i9EhiiaDAYO41tfBIveCihXdnQ3RiWHZDxa4LOL_4BSVG6lzpWUBk2F3T9P83m7hF2VW73NQhUi2iukpTmvuWQ7Cn7Jph5aj34F2HqaRJ4Uz4y6VGrERUqdWQuktafU4_csvFXIg0xoN7lO3MNhIhizFRCXtgtBanMMC-n0d9ylGmztDrCtzEKktMHTbcNMeDBIz8ibqHn8x5qh90_uh8t4MLtpnMHFR8EkUu61MgMGUh5DltFn3m00]--></g></svg>