<?xml version="1.0" encoding="UTF-8" standalone="no"?><svg xmlns="http://www.w3.org/2000/svg" xmlns:xlink="http://www.w3.org/1999/xlink" contentStyleType="text/css" height="533px" preserveAspectRatio="none" style="width:540px;height:533px;background:#FFFFFF;" version="1.1" viewBox="0 0 540 533" width="540px" zoomAndPan="magnify"><defs/><g><rect fill="#FFFFFF" height="321.9198" style="stroke:#181818;stroke-width:1.0;" width="10" x="40" y="102.24"/><rect fill="#FFFFFF" height="41.24" style="stroke:#181818;stroke-width:1.0;" width="10" x="488.625" y="135.4799"/><rect fill="#FFFFFF" height="41.24" style="stroke:#181818;stroke-width:1.0;" width="10" x="488.625" y="217.9599"/><rect fill="#FFFFFF" height="41.24" style="stroke:#181818;stroke-width:1.0;" width="10" x="488.625" y="300.4398"/><rect fill="#FFFFFF" height="41.24" style="stroke:#181818;stroke-width:1.0;" width="10" x="488.625" y="382.9198"/><line style="stroke:#181818;stroke-width:0.5;stroke-dasharray:5.0,5.0;" x1="45" x2="45" y1="92.24" y2="442.1598"/><line style="stroke:#181818;stroke-width:0.5;stroke-dasharray:5.0,5.0;" x1="493.625" x2="493.625" y1="92.24" y2="442.1598"/><text fill="#000000" font-family="sans-serif" font-size="20" lengthAdjust="spacing" textLength="74" x="5" y="86.38">Teacher</text><ellipse cx="45" cy="13.5" fill="#E2E2F0" rx="8" ry="8" style="stroke:#181818;stroke-width:0.5;"/><path d="M45,21.5 L45,48.5 M32,29.5 L58,29.5 M45,48.5 L32,63.5 M45,48.5 L58,63.5 " fill="none" style="stroke:#181818;stroke-width:0.5;"/><text fill="#000000" font-family="sans-serif" font-size="20" lengthAdjust="spacing" textLength="74" x="5" y="462.5398">Teacher</text><ellipse cx="45" cy="476.8997" fill="#E2E2F0" rx="8" ry="8" style="stroke:#181818;stroke-width:0.5;"/><path d="M45,484.8997 L45,511.8997 M32,492.8997 L58,492.8997 M45,511.8997 L32,526.8997 M45,511.8997 L58,526.8997 " fill="none" style="stroke:#181818;stroke-width:0.5;"/><rect fill="#E2E2F0" height="41.24" rx="2.5" ry="2.5" style="stroke:#181818;stroke-width:0.5;" width="82" x="452.625" y="50"/><text fill="#000000" font-family="sans-serif" font-size="20" lengthAdjust="spacing" textLength="68" x="459.625" y="78.38">System</text><rect fill="#E2E2F0" height="41.24" rx="2.5" ry="2.5" style="stroke:#181818;stroke-width:0.5;" width="82" x="452.625" y="441.1598"/><text fill="#000000" font-family="sans-serif" font-size="20" lengthAdjust="spacing" textLength="68" x="459.625" y="469.5398">System</text><rect fill="#FFFFFF" height="321.9198" style="stroke:#181818;stroke-width:1.0;" width="10" x="40" y="102.24"/><rect fill="#FFFFFF" height="41.24" style="stroke:#181818;stroke-width:1.0;" width="10" x="488.625" y="135.4799"/><rect fill="#FFFFFF" height="41.24" style="stroke:#181818;stroke-width:1.0;" width="10" x="488.625" y="217.9599"/><rect fill="#FFFFFF" height="41.24" style="stroke:#181818;stroke-width:1.0;" width="10" x="488.625" y="300.4398"/><rect fill="#FFFFFF" height="41.24" style="stroke:#181818;stroke-width:1.0;" width="10" x="488.625" y="382.9198"/><polygon fill="#181818" points="476.625,131.4799,486.625,135.4799,476.625,139.4799,480.625,135.4799" style="stroke:#181818;stroke-width:1.0;"/><line style="stroke:#181818;stroke-width:1.0;" x1="50" x2="482.625" y1="135.4799" y2="135.4799"/><text fill="#000000" font-family="sans-serif" font-size="20" font-weight="bold" lengthAdjust="spacing" textLength="11.625" x="57" y="127.62">1</text><text fill="#000000" font-family="sans-serif" font-size="20" lengthAdjust="spacing" textLength="310" x="72.625" y="127.62">asks to update the class schedule</text><polygon fill="#181818" points="61,172.7199,51,176.7199,61,180.7199,57,176.7199" style="stroke:#181818;stroke-width:1.0;"/><line style="stroke:#181818;stroke-width:1.0;stroke-dasharray:2.0,2.0;" x1="55" x2="492.625" y1="176.7199" y2="176.7199"/><text fill="#000000" font-family="sans-serif" font-size="20" font-weight="bold" lengthAdjust="spacing" textLength="11.625" x="67" y="168.8599">2</text><text fill="#000000" font-family="sans-serif" font-size="20" lengthAdjust="spacing" textLength="184" x="82.625" y="168.8599">lists teacher classes</text><polygon fill="#181818" points="476.625,213.9599,486.625,217.9599,476.625,221.9599,480.625,217.9599" style="stroke:#181818;stroke-width:1.0;"/><line style="stroke:#181818;stroke-width:1.0;" x1="50" x2="482.625" y1="217.9599" y2="217.9599"/><text fill="#000000" font-family="sans-serif" font-size="20" font-weight="bold" lengthAdjust="spacing" textLength="11.625" x="57" y="210.0999">3</text><text fill="#000000" font-family="sans-serif" font-size="20" lengthAdjust="spacing" textLength="115" x="72.625" y="210.0999">selects class</text><polygon fill="#181818" points="61,255.1999,51,259.1999,61,263.1999,57,259.1999" style="stroke:#181818;stroke-width:1.0;"/><line style="stroke:#181818;stroke-width:1.0;stroke-dasharray:2.0,2.0;" x1="55" x2="492.625" y1="259.1999" y2="259.1999"/><text fill="#000000" font-family="sans-serif" font-size="20" font-weight="bold" lengthAdjust="spacing" textLength="11.625" x="67" y="251.3399">4</text><text fill="#000000" font-family="sans-serif" font-size="20" lengthAdjust="spacing" textLength="317" x="82.625" y="251.3399">requests data (Day Of Week, time)</text><polygon fill="#181818" points="476.625,296.4398,486.625,300.4398,476.625,304.4398,480.625,300.4398" style="stroke:#181818;stroke-width:1.0;"/><line style="stroke:#181818;stroke-width:1.0;" x1="50" x2="482.625" y1="300.4398" y2="300.4398"/><text fill="#000000" font-family="sans-serif" font-size="20" font-weight="bold" lengthAdjust="spacing" textLength="11.625" x="57" y="292.5799">5</text><text fill="#000000" font-family="sans-serif" font-size="20" lengthAdjust="spacing" textLength="195" x="72.625" y="292.5799">types requested data</text><polygon fill="#181818" points="61,337.6798,51,341.6798,61,345.6798,57,341.6798" style="stroke:#181818;stroke-width:1.0;"/><line style="stroke:#181818;stroke-width:1.0;stroke-dasharray:2.0,2.0;" x1="55" x2="492.625" y1="341.6798" y2="341.6798"/><text fill="#000000" font-family="sans-serif" font-size="20" font-weight="bold" lengthAdjust="spacing" textLength="11.625" x="67" y="333.8198">6</text><text fill="#000000" font-family="sans-serif" font-size="20" lengthAdjust="spacing" textLength="399" x="82.625" y="333.8198">shows if teacher and students are available</text><polygon fill="#181818" points="476.625,378.9198,486.625,382.9198,476.625,386.9198,480.625,382.9198" style="stroke:#181818;stroke-width:1.0;"/><line style="stroke:#181818;stroke-width:1.0;" x1="50" x2="482.625" y1="382.9198" y2="382.9198"/><text fill="#000000" font-family="sans-serif" font-size="20" font-weight="bold" lengthAdjust="spacing" textLength="11.625" x="57" y="375.0598">7</text><text fill="#000000" font-family="sans-serif" font-size="20" lengthAdjust="spacing" textLength="129" x="72.625" y="375.0598">confirms data</text><polygon fill="#181818" points="56,420.1598,46,424.1598,56,428.1598,52,424.1598" style="stroke:#181818;stroke-width:1.0;"/><line style="stroke:#181818;stroke-width:1.0;stroke-dasharray:2.0,2.0;" x1="50" x2="492.625" y1="424.1598" y2="424.1598"/><text fill="#000000" font-family="sans-serif" font-size="20" font-weight="bold" lengthAdjust="spacing" textLength="11.625" x="62" y="416.2998">8</text><text fill="#000000" font-family="sans-serif" font-size="20" lengthAdjust="spacing" textLength="246" x="77.625" y="416.2998">informs operation success</text><!--SRC=[ZP71IiGm48RlUOgX9mKNnECU1D5Tl0bsGJpE9bCsD4rgPh9IdzvfrwxAWkij9V_t_PCfjpxscB4BoRRam5639SWwHQdz1y7DjJ5O9CNIRIdhsKhAi5dTtJ-kdW4PgWsXtL6kZ6h4MzzZ5AXVw-co7bYegoRExr5eHesP7OlRARtKVCiW2Khlng3i26n0Pc3rknBeMwA0CIErKFfBj8JWMTHmcEV04Xj7lx6JNgP0Li49-Bj3qvdU2eqzEYJ2nGCEyDJ02r5x1U8xkZnVA4DFF8l6dQlfR2_lqZk3Ruxlm-Y0fJYAEWnc0joZ3xZLFPsTmARO-Dpn_wfzRD8OJZrb59yYSB6M-7ItFxwF__aJ]--></g></svg>