<?xml version="1.0" encoding="UTF-8" standalone="no"?><svg xmlns="http://www.w3.org/2000/svg" xmlns:xlink="http://www.w3.org/1999/xlink" contentStyleType="text/css" height="1086px" preserveAspectRatio="none" style="width:1159px;height:1086px;background:#FFFFFF;" version="1.1" viewBox="0 0 1159 1086" width="1159px" zoomAndPan="magnify"><defs/><g><!--class RepositoryFactory--><g id="elem_RepositoryFactory"><rect codeLine="2" fill="#F1F1F1" height="73.2813" id="RepositoryFactory" rx="2.5" ry="2.5" style="stroke:#181818;stroke-width:0.5;" width="223" x="118.5" y="436.5"/><ellipse cx="138.55" cy="453.5" fill="#ADD1B2" rx="12" ry="12" style="stroke:#181818;stroke-width:1.0;"/><path d="M141.6125,460.5781 Q140.925,460.9375 140.175,461.1094 Q139.425,461.2813 138.5969,461.2813 Q135.6438,461.2813 134.0813,459.3438 Q132.5344,457.3906 132.5344,453.7188 Q132.5344,450.0469 134.0813,448.1094 Q135.6438,446.1563 138.5969,446.1563 Q139.425,446.1563 140.175,446.3281 Q140.9406,446.5 141.6125,446.8594 L141.6125,450.0625 Q140.8625,449.375 140.1594,449.0625 Q139.4719,448.75 138.7219,448.75 Q137.1438,448.75 136.3313,450 Q135.5344,451.25 135.5344,453.7188 Q135.5344,456.1875 136.3313,457.4375 Q137.1438,458.6875 138.7219,458.6875 Q139.4719,458.6875 140.1594,458.375 Q140.8625,458.0625 141.6125,457.375 L141.6125,460.5781 Z " fill="#000000"/><text fill="#000000" font-family="sans-serif" font-size="20" lengthAdjust="spacing" textLength="180" x="154.45" y="460.4238">RepositoryFactory</text><line style="stroke:#181818;stroke-width:0.5;" x1="119.5" x2="340.5" y1="470.5" y2="470.5"/><line style="stroke:#181818;stroke-width:0.5;" x1="119.5" x2="340.5" y1="478.5" y2="478.5"/><ellipse cx="129.5" cy="495.6406" fill="#84BE84" rx="3" ry="3" style="stroke:#038048;stroke-width:1.0;"/><text fill="#000000" font-family="sans-serif" font-size="20" lengthAdjust="spacing" textLength="196" x="139.5" y="501.0645">RepositoryFactory()</text></g><!--class CourseRepository--><g id="elem_CourseRepository"><rect codeLine="6" fill="#F1F1F1" height="96.5625" id="CourseRepository" rx="2.5" ry="2.5" style="stroke:#181818;stroke-width:0.5;" width="210" x="355" y="697.5"/><ellipse cx="371" cy="714.5" fill="#B4A7E5" rx="12" ry="12" style="stroke:#181818;stroke-width:1.0;"/><path d="M366.1875,709.9531 L366.1875,707.4219 L374.8594,707.4219 L374.8594,709.9531 L371.9688,709.9531 L371.9688,719.4531 L374.8594,719.4531 L374.8594,722 L366.1875,722 L366.1875,719.4531 L369.0781,719.4531 L369.0781,709.9531 L366.1875,709.9531 Z " fill="#000000"/><text fill="#000000" font-family="sans-serif" font-size="20" font-style="italic" lengthAdjust="spacing" textLength="176" x="386" y="721.4238">CourseRepository</text><line style="stroke:#181818;stroke-width:0.5;" x1="356" x2="564" y1="731.5" y2="731.5"/><line style="stroke:#181818;stroke-width:0.5;" x1="356" x2="564" y1="739.5" y2="739.5"/><text fill="#000000" font-family="sans-serif" font-size="20" font-style="italic" lengthAdjust="spacing" textLength="183" x="361" y="762.0645">findAllNotClosed()</text><text fill="#000000" font-family="sans-serif" font-size="20" font-style="italic" lengthAdjust="spacing" textLength="128" x="361" y="785.3457">save(course)</text></g><!--class InMemoryCourseRepository--><g id="elem_InMemoryCourseRepository"><rect codeLine="11" fill="#F1F1F1" height="96.5625" id="InMemoryCourseRepository" rx="2.5" ry="2.5" style="stroke:#181818;stroke-width:0.5;" width="308" x="7" y="959"/><ellipse cx="23" cy="976" fill="#ADD1B2" rx="12" ry="12" style="stroke:#181818;stroke-width:1.0;"/><path d="M26.0625,983.0781 Q25.375,983.4375 24.625,983.6094 Q23.875,983.7813 23.0469,983.7813 Q20.0938,983.7813 18.5313,981.8438 Q16.9844,979.8906 16.9844,976.2188 Q16.9844,972.5469 18.5313,970.6094 Q20.0938,968.6563 23.0469,968.6563 Q23.875,968.6563 24.625,968.8281 Q25.3906,969 26.0625,969.3594 L26.0625,972.5625 Q25.3125,971.875 24.6094,971.5625 Q23.9219,971.25 23.1719,971.25 Q21.5938,971.25 20.7813,972.5 Q19.9844,973.75 19.9844,976.2188 Q19.9844,978.6875 20.7813,979.9375 Q21.5938,981.1875 23.1719,981.1875 Q23.9219,981.1875 24.6094,980.875 Q25.3125,980.5625 26.0625,979.875 L26.0625,983.0781 Z " fill="#000000"/><text fill="#000000" font-family="sans-serif" font-size="20" lengthAdjust="spacing" textLength="274" x="38" y="982.9238">InMemoryCourseRepository</text><line style="stroke:#181818;stroke-width:0.5;" x1="8" x2="314" y1="993" y2="993"/><line style="stroke:#181818;stroke-width:0.5;" x1="8" x2="314" y1="1001" y2="1001"/><ellipse cx="18" cy="1018.1406" fill="#84BE84" rx="3" ry="3" style="stroke:#038048;stroke-width:1.0;"/><text fill="#000000" font-family="sans-serif" font-size="20" lengthAdjust="spacing" textLength="183" x="28" y="1023.5645">findAllNotClosed()</text><ellipse cx="18" cy="1041.4219" fill="#84BE84" rx="3" ry="3" style="stroke:#038048;stroke-width:1.0;"/><text fill="#000000" font-family="sans-serif" font-size="20" lengthAdjust="spacing" textLength="127" x="28" y="1046.8457">save(course)</text></g><!--class JpaCourseRepository--><g id="elem_JpaCourseRepository"><rect codeLine="16" fill="#F1F1F1" height="96.5625" id="JpaCourseRepository" rx="2.5" ry="2.5" style="stroke:#181818;stroke-width:0.5;" width="240" x="350" y="959"/><ellipse cx="366" cy="976" fill="#ADD1B2" rx="12" ry="12" style="stroke:#181818;stroke-width:1.0;"/><path d="M369.0625,983.0781 Q368.375,983.4375 367.625,983.6094 Q366.875,983.7813 366.0469,983.7813 Q363.0938,983.7813 361.5313,981.8438 Q359.9844,979.8906 359.9844,976.2188 Q359.9844,972.5469 361.5313,970.6094 Q363.0938,968.6563 366.0469,968.6563 Q366.875,968.6563 367.625,968.8281 Q368.3906,969 369.0625,969.3594 L369.0625,972.5625 Q368.3125,971.875 367.6094,971.5625 Q366.9219,971.25 366.1719,971.25 Q364.5938,971.25 363.7813,972.5 Q362.9844,973.75 362.9844,976.2188 Q362.9844,978.6875 363.7813,979.9375 Q364.5938,981.1875 366.1719,981.1875 Q366.9219,981.1875 367.6094,980.875 Q368.3125,980.5625 369.0625,979.875 L369.0625,983.0781 Z " fill="#000000"/><text fill="#000000" font-family="sans-serif" font-size="20" lengthAdjust="spacing" textLength="206" x="381" y="982.9238">JpaCourseRepository</text><line style="stroke:#181818;stroke-width:0.5;" x1="351" x2="589" y1="993" y2="993"/><line style="stroke:#181818;stroke-width:0.5;" x1="351" x2="589" y1="1001" y2="1001"/><ellipse cx="361" cy="1018.1406" fill="#84BE84" rx="3" ry="3" style="stroke:#038048;stroke-width:1.0;"/><text fill="#000000" font-family="sans-serif" font-size="20" lengthAdjust="spacing" textLength="183" x="371" y="1023.5645">findAllNotClosed()</text><ellipse cx="361" cy="1041.4219" fill="#84BE84" rx="3" ry="3" style="stroke:#038048;stroke-width:1.0;"/><text fill="#000000" font-family="sans-serif" font-size="20" lengthAdjust="spacing" textLength="127" x="371" y="1046.8457">save(course)</text></g><!--class PersistenceContext--><g id="elem_PersistenceContext"><rect codeLine="21" fill="#F1F1F1" height="73.2813" id="PersistenceContext" rx="2.5" ry="2.5" style="stroke:#181818;stroke-width:0.5;" width="226" x="52" y="187"/><ellipse cx="68" cy="204" fill="#ADD1B2" rx="12" ry="12" style="stroke:#181818;stroke-width:1.0;"/><path d="M71.0625,211.0781 Q70.375,211.4375 69.625,211.6094 Q68.875,211.7813 68.0469,211.7813 Q65.0938,211.7813 63.5313,209.8438 Q61.9844,207.8906 61.9844,204.2188 Q61.9844,200.5469 63.5313,198.6094 Q65.0938,196.6563 68.0469,196.6563 Q68.875,196.6563 69.625,196.8281 Q70.3906,197 71.0625,197.3594 L71.0625,200.5625 Q70.3125,199.875 69.6094,199.5625 Q68.9219,199.25 68.1719,199.25 Q66.5938,199.25 65.7813,200.5 Q64.9844,201.75 64.9844,204.2188 Q64.9844,206.6875 65.7813,207.9375 Q66.5938,209.1875 68.1719,209.1875 Q68.9219,209.1875 69.6094,208.875 Q70.3125,208.5625 71.0625,207.875 L71.0625,211.0781 Z " fill="#000000"/><text fill="#000000" font-family="sans-serif" font-size="20" lengthAdjust="spacing" textLength="192" x="83" y="210.9238">PersistenceContext</text><line style="stroke:#181818;stroke-width:0.5;" x1="53" x2="277" y1="221" y2="221"/><line style="stroke:#181818;stroke-width:0.5;" x1="53" x2="277" y1="229" y2="229"/><ellipse cx="63" cy="246.1406" fill="#84BE84" rx="3" ry="3" style="stroke:#038048;stroke-width:1.0;"/><text fill="#000000" font-family="sans-serif" font-size="20" lengthAdjust="spacing" textLength="133" x="73" y="251.5645">repositories()</text></g><!--class CourseListService--><g id="elem_CourseListService"><rect codeLine="25" fill="#F1F1F1" height="166.4063" id="CourseListService" rx="2.5" ry="2.5" style="stroke:#181818;stroke-width:0.5;" width="392" x="537" y="390"/><ellipse cx="640" cy="407" fill="#ADD1B2" rx="12" ry="12" style="stroke:#181818;stroke-width:1.0;"/><path d="M643.0625,414.0781 Q642.375,414.4375 641.625,414.6094 Q640.875,414.7813 640.0469,414.7813 Q637.0938,414.7813 635.5313,412.8438 Q633.9844,410.8906 633.9844,407.2188 Q633.9844,403.5469 635.5313,401.6094 Q637.0938,399.6563 640.0469,399.6563 Q640.875,399.6563 641.625,399.8281 Q642.3906,400 643.0625,400.3594 L643.0625,403.5625 Q642.3125,402.875 641.6094,402.5625 Q640.9219,402.25 640.1719,402.25 Q638.5938,402.25 637.7813,403.5 Q636.9844,404.75 636.9844,407.2188 Q636.9844,409.6875 637.7813,410.9375 Q638.5938,412.1875 640.1719,412.1875 Q640.9219,412.1875 641.6094,411.875 Q642.3125,411.5625 643.0625,410.875 L643.0625,414.0781 Z " fill="#000000"/><text fill="#000000" font-family="sans-serif" font-size="20" lengthAdjust="spacing" textLength="177" x="662" y="413.9238">CourseListService</text><line style="stroke:#181818;stroke-width:0.5;" x1="538" x2="928" y1="424" y2="424"/><rect fill="none" height="6" style="stroke:#C82930;stroke-width:1.0;" width="6" x="545" y="438.1406"/><text fill="#000000" font-family="sans-serif" font-size="20" lengthAdjust="spacing" textLength="172" x="558" y="446.5645">courseRepository</text><line style="stroke:#181818;stroke-width:0.5;" x1="538" x2="928" y1="455.2813" y2="455.2813"/><ellipse cx="548" cy="472.4219" fill="#84BE84" rx="3" ry="3" style="stroke:#038048;stroke-width:1.0;"/><text fill="#000000" font-family="sans-serif" font-size="20" lengthAdjust="spacing" textLength="365" x="558" y="477.8457">CourseListService(courseRepository)</text><text fill="#000000" font-family="sans-serif" font-size="20" lengthAdjust="spacing" textLength="6" x="558" y="501.127"> </text><ellipse cx="548" cy="518.9844" fill="#84BE84" rx="3" ry="3" style="stroke:#038048;stroke-width:1.0;"/><text fill="#000000" font-family="sans-serif" font-size="20" lengthAdjust="spacing" textLength="227" x="558" y="524.4082">listNotClosedCourses()</text><ellipse cx="548" cy="542.2656" fill="#84BE84" rx="3" ry="3" style="stroke:#038048;stroke-width:1.0;"/><text fill="#000000" font-family="sans-serif" font-size="20" lengthAdjust="spacing" textLength="304" x="558" y="547.6895">toggleEnrolmentState(course)</text></g><!--class ManageCourseEnrolmentStateUI--><g id="elem_ManageCourseEnrolmentStateUI"><rect codeLine="34" fill="#F1F1F1" height="50" id="ManageCourseEnrolmentStateUI" rx="2.5" ry="2.5" style="stroke:#181818;stroke-width:0.5;" width="361" x="268.5" y="7"/><ellipse cx="284.5" cy="24" fill="#ADD1B2" rx="12" ry="12" style="stroke:#181818;stroke-width:1.0;"/><path d="M287.5625,31.0781 Q286.875,31.4375 286.125,31.6094 Q285.375,31.7813 284.5469,31.7813 Q281.5938,31.7813 280.0313,29.8438 Q278.4844,27.8906 278.4844,24.2188 Q278.4844,20.5469 280.0313,18.6094 Q281.5938,16.6563 284.5469,16.6563 Q285.375,16.6563 286.125,16.8281 Q286.8906,17 287.5625,17.3594 L287.5625,20.5625 Q286.8125,19.875 286.1094,19.5625 Q285.4219,19.25 284.6719,19.25 Q283.0938,19.25 282.2813,20.5 Q281.4844,21.75 281.4844,24.2188 Q281.4844,26.6875 282.2813,27.9375 Q283.0938,29.1875 284.6719,29.1875 Q285.4219,29.1875 286.1094,28.875 Q286.8125,28.5625 287.5625,27.875 L287.5625,31.0781 Z " fill="#000000"/><text fill="#000000" font-family="sans-serif" font-size="20" lengthAdjust="spacing" textLength="327" x="299.5" y="30.9238">ManageCourseEnrolmentStateUI</text><line style="stroke:#181818;stroke-width:0.5;" x1="269.5" x2="628.5" y1="41" y2="41"/><line style="stroke:#181818;stroke-width:0.5;" x1="269.5" x2="628.5" y1="49" y2="49"/></g><!--class ManageCourseEnrolmentStateController--><g id="elem_ManageCourseEnrolmentStateController"><rect codeLine="36" fill="#F1F1F1" height="212.9688" id="ManageCourseEnrolmentStateController" rx="2.5" ry="2.5" style="stroke:#181818;stroke-width:0.5;" width="839" x="313.5" y="117"/><ellipse cx="526" cy="134" fill="#ADD1B2" rx="12" ry="12" style="stroke:#181818;stroke-width:1.0;"/><path d="M529.0625,141.0781 Q528.375,141.4375 527.625,141.6094 Q526.875,141.7813 526.0469,141.7813 Q523.0938,141.7813 521.5313,139.8438 Q519.9844,137.8906 519.9844,134.2188 Q519.9844,130.5469 521.5313,128.6094 Q523.0938,126.6563 526.0469,126.6563 Q526.875,126.6563 527.625,126.8281 Q528.3906,127 529.0625,127.3594 L529.0625,130.5625 Q528.3125,129.875 527.6094,129.5625 Q526.9219,129.25 526.1719,129.25 Q524.5938,129.25 523.7813,130.5 Q522.9844,131.75 522.9844,134.2188 Q522.9844,136.6875 523.7813,137.9375 Q524.5938,139.1875 526.1719,139.1875 Q526.9219,139.1875 527.6094,138.875 Q528.3125,138.5625 529.0625,137.875 L529.0625,141.0781 Z " fill="#000000"/><text fill="#000000" font-family="sans-serif" font-size="20" lengthAdjust="spacing" textLength="405" x="548" y="140.9238">ManageCourseEnrolmentStateController</text><line style="stroke:#181818;stroke-width:0.5;" x1="314.5" x2="1151.5" y1="151" y2="151"/><rect fill="none" height="6" style="stroke:#C82930;stroke-width:1.0;" width="6" x="321.5" y="165.1406"/><text fill="#000000" font-family="sans-serif" font-size="20" lengthAdjust="spacing" textLength="172" x="334.5" y="173.5645">courseRepository</text><rect fill="none" height="6" style="stroke:#C82930;stroke-width:1.0;" width="6" x="321.5" y="188.4219"/><text fill="#000000" font-family="sans-serif" font-size="20" lengthAdjust="spacing" textLength="207" x="334.5" y="196.8457">authorizationService</text><rect fill="none" height="6" style="stroke:#C82930;stroke-width:1.0;" width="6" x="321.5" y="211.7031"/><text fill="#000000" font-family="sans-serif" font-size="20" lengthAdjust="spacing" textLength="174" x="334.5" y="220.127">courseListService</text><line style="stroke:#181818;stroke-width:0.5;" x1="314.5" x2="1151.5" y1="228.8438" y2="228.8438"/><ellipse cx="324.5" cy="245.9844" fill="#84BE84" rx="3" ry="3" style="stroke:#038048;stroke-width:1.0;"/><text fill="#000000" font-family="sans-serif" font-size="20" lengthAdjust="spacing" textLength="812" x="334.5" y="251.4082">ManageCourseEnrolmentStateController(courseRepository, authorizationService)</text><text fill="#000000" font-family="sans-serif" font-size="20" lengthAdjust="spacing" textLength="6" x="334.5" y="274.6895"> </text><ellipse cx="324.5" cy="292.5469" fill="#84BE84" rx="3" ry="3" style="stroke:#038048;stroke-width:1.0;"/><text fill="#000000" font-family="sans-serif" font-size="20" lengthAdjust="spacing" textLength="227" x="334.5" y="297.9707">listNotClosedCourses()</text><ellipse cx="324.5" cy="315.8281" fill="#84BE84" rx="3" ry="3" style="stroke:#038048;stroke-width:1.0;"/><text fill="#000000" font-family="sans-serif" font-size="20" lengthAdjust="spacing" textLength="304" x="334.5" y="321.252">toggleEnrolmentState(course)</text></g><!--class Course--><g id="elem_Course"><rect codeLine="47" fill="#F1F1F1" height="259.5313" id="Course" rx="2.5" ry="2.5" style="stroke:#181818;stroke-width:0.5;" width="265" x="600.5" y="616"/><ellipse cx="694" cy="633" fill="#ADD1B2" rx="12" ry="12" style="stroke:#181818;stroke-width:1.0;"/><path d="M697.0625,640.0781 Q696.375,640.4375 695.625,640.6094 Q694.875,640.7813 694.0469,640.7813 Q691.0938,640.7813 689.5313,638.8438 Q687.9844,636.8906 687.9844,633.2188 Q687.9844,629.5469 689.5313,627.6094 Q691.0938,625.6563 694.0469,625.6563 Q694.875,625.6563 695.625,625.8281 Q696.3906,626 697.0625,626.3594 L697.0625,629.5625 Q696.3125,628.875 695.6094,628.5625 Q694.9219,628.25 694.1719,628.25 Q692.5938,628.25 691.7813,629.5 Q690.9844,630.75 690.9844,633.2188 Q690.9844,635.6875 691.7813,636.9375 Q692.5938,638.1875 694.1719,638.1875 Q694.9219,638.1875 695.6094,637.875 Q696.3125,637.5625 697.0625,636.875 L697.0625,640.0781 Z " fill="#000000"/><text fill="#000000" font-family="sans-serif" font-size="20" lengthAdjust="spacing" textLength="69" x="716" y="639.9238">Course</text><line style="stroke:#181818;stroke-width:0.5;" x1="601.5" x2="864.5" y1="650" y2="650"/><rect fill="none" height="6" style="stroke:#C82930;stroke-width:1.0;" width="6" x="608.5" y="664.1406"/><text fill="#000000" font-family="sans-serif" font-size="20" lengthAdjust="spacing" textLength="48" x="621.5" y="672.5645">code</text><rect fill="none" height="6" style="stroke:#C82930;stroke-width:1.0;" width="6" x="608.5" y="687.4219"/><text fill="#000000" font-family="sans-serif" font-size="20" lengthAdjust="spacing" textLength="40" x="621.5" y="695.8457">title</text><rect fill="none" height="6" style="stroke:#C82930;stroke-width:1.0;" width="6" x="608.5" y="710.7031"/><text fill="#000000" font-family="sans-serif" font-size="20" lengthAdjust="spacing" textLength="112" x="621.5" y="719.127">description</text><rect fill="none" height="6" style="stroke:#C82930;stroke-width:1.0;" width="6" x="608.5" y="733.9844"/><text fill="#000000" font-family="sans-serif" font-size="20" lengthAdjust="spacing" textLength="165" x="621.5" y="742.4082">enrolmentLimits</text><rect fill="none" height="6" style="stroke:#C82930;stroke-width:1.0;" width="6" x="608.5" y="757.2656"/><text fill="#000000" font-family="sans-serif" font-size="20" lengthAdjust="spacing" textLength="119" x="621.5" y="765.6895">courseState</text><rect fill="none" height="6" style="stroke:#C82930;stroke-width:1.0;" width="6" x="608.5" y="780.5469"/><text fill="#000000" font-family="sans-serif" font-size="20" lengthAdjust="spacing" textLength="224" x="621.5" y="788.9707">courseEnrolmentState</text><rect fill="none" height="6" style="stroke:#C82930;stroke-width:1.0;" width="6" x="608.5" y="803.8281"/><text fill="#000000" font-family="sans-serif" font-size="20" lengthAdjust="spacing" textLength="98" x="621.5" y="812.252">createdAt</text><line style="stroke:#181818;stroke-width:0.5;" x1="601.5" x2="864.5" y1="820.9688" y2="820.9688"/><ellipse cx="611.5" cy="838.1094" fill="#84BE84" rx="3" ry="3" style="stroke:#038048;stroke-width:1.0;"/><text fill="#000000" font-family="sans-serif" font-size="20" lengthAdjust="spacing" textLength="238" x="621.5" y="843.5332">toggleEnrolmentState()</text><ellipse cx="611.5" cy="861.3906" fill="#84BE84" rx="3" ry="3" style="stroke:#038048;stroke-width:1.0;"/><text fill="#000000" font-family="sans-serif" font-size="20" lengthAdjust="spacing" textLength="71" x="621.5" y="866.8145">toDto()</text></g><!--class CourseState--><g id="elem_CourseState"><rect codeLine="60" fill="#F1F1F1" height="143.125" id="CourseState" rx="2.5" ry="2.5" style="stroke:#181818;stroke-width:0.5;" width="156" x="645" y="936"/><ellipse cx="661" cy="953" fill="#EB937F" rx="12" ry="12" style="stroke:#181818;stroke-width:1.0;"/><path d="M665.7188,960.5 L656.6406,960.5 L656.6406,945.9219 L665.7188,945.9219 L665.7188,948.4531 L659.5156,948.4531 L659.5156,951.6094 L665.1406,951.6094 L665.1406,954.1406 L659.5156,954.1406 L659.5156,957.9531 L665.7188,957.9531 L665.7188,960.5 Z " fill="#000000"/><text fill="#000000" font-family="sans-serif" font-size="20" lengthAdjust="spacing" textLength="122" x="676" y="959.9238">CourseState</text><line style="stroke:#181818;stroke-width:0.5;" x1="646" x2="800" y1="970" y2="970"/><text fill="#000000" font-family="sans-serif" font-size="20" lengthAdjust="spacing" textLength="82" x="651" y="992.5645">CLOSED</text><text fill="#000000" font-family="sans-serif" font-size="20" lengthAdjust="spacing" textLength="56" x="651" y="1015.8457">OPEN</text><text fill="#000000" font-family="sans-serif" font-size="20" lengthAdjust="spacing" textLength="142" x="651" y="1039.127">IN_PROGRESS</text><text fill="#000000" font-family="sans-serif" font-size="20" lengthAdjust="spacing" textLength="95" x="651" y="1062.4082">FINISHED</text><line style="stroke:#181818;stroke-width:0.5;" x1="646" x2="800" y1="1071.125" y2="1071.125"/></g><!--class CourseEnrolmentState--><g id="elem_CourseEnrolmentState"><rect codeLine="67" fill="#F1F1F1" height="96.5625" id="CourseEnrolmentState" rx="2.5" ry="2.5" style="stroke:#181818;stroke-width:0.5;" width="261" x="836.5" y="959"/><ellipse cx="852.5" cy="976" fill="#EB937F" rx="12" ry="12" style="stroke:#181818;stroke-width:1.0;"/><path d="M857.2188,983.5 L848.1406,983.5 L848.1406,968.9219 L857.2188,968.9219 L857.2188,971.4531 L851.0156,971.4531 L851.0156,974.6094 L856.6406,974.6094 L856.6406,977.1406 L851.0156,977.1406 L851.0156,980.9531 L857.2188,980.9531 L857.2188,983.5 Z " fill="#000000"/><text fill="#000000" font-family="sans-serif" font-size="20" lengthAdjust="spacing" textLength="227" x="867.5" y="982.9238">CourseEnrolmentState</text><line style="stroke:#181818;stroke-width:0.5;" x1="837.5" x2="1096.5" y1="993" y2="993"/><text fill="#000000" font-family="sans-serif" font-size="20" lengthAdjust="spacing" textLength="56" x="842.5" y="1015.5645">OPEN</text><text fill="#000000" font-family="sans-serif" font-size="20" lengthAdjust="spacing" textLength="82" x="842.5" y="1038.8457">CLOSED</text><line style="stroke:#181818;stroke-width:0.5;" x1="837.5" x2="1096.5" y1="1047.5625" y2="1047.5625"/></g><!--class CourseDTO--><g id="elem_CourseDTO"><rect codeLine="72" fill="#F1F1F1" height="212.9688" id="CourseDTO" rx="2.5" ry="2.5" style="stroke:#181818;stroke-width:0.5;" width="251" x="900.5" y="639.5"/><ellipse cx="965.5" cy="656.5" fill="#ADD1B2" rx="12" ry="12" style="stroke:#181818;stroke-width:1.0;"/><path d="M968.5625,663.5781 Q967.875,663.9375 967.125,664.1094 Q966.375,664.2813 965.5469,664.2813 Q962.5938,664.2813 961.0313,662.3438 Q959.4844,660.3906 959.4844,656.7188 Q959.4844,653.0469 961.0313,651.1094 Q962.5938,649.1563 965.5469,649.1563 Q966.375,649.1563 967.125,649.3281 Q967.8906,649.5 968.5625,649.8594 L968.5625,653.0625 Q967.8125,652.375 967.1094,652.0625 Q966.4219,651.75 965.6719,651.75 Q964.0938,651.75 963.2813,653 Q962.4844,654.25 962.4844,656.7188 Q962.4844,659.1875 963.2813,660.4375 Q964.0938,661.6875 965.6719,661.6875 Q966.4219,661.6875 967.1094,661.375 Q967.8125,661.0625 968.5625,660.375 L968.5625,663.5781 Z " fill="#000000"/><text fill="#000000" font-family="sans-serif" font-size="20" lengthAdjust="spacing" textLength="112" x="987.5" y="663.4238">CourseDTO</text><line style="stroke:#181818;stroke-width:0.5;" x1="901.5" x2="1150.5" y1="673.5" y2="673.5"/><rect fill="none" height="6" style="stroke:#C82930;stroke-width:1.0;" width="6" x="908.5" y="687.6406"/><text fill="#000000" font-family="sans-serif" font-size="20" lengthAdjust="spacing" textLength="48" x="921.5" y="696.0645">code</text><rect fill="none" height="6" style="stroke:#C82930;stroke-width:1.0;" width="6" x="908.5" y="710.9219"/><text fill="#000000" font-family="sans-serif" font-size="20" lengthAdjust="spacing" textLength="40" x="921.5" y="719.3457">title</text><rect fill="none" height="6" style="stroke:#C82930;stroke-width:1.0;" width="6" x="908.5" y="734.2031"/><text fill="#000000" font-family="sans-serif" font-size="20" lengthAdjust="spacing" textLength="112" x="921.5" y="742.627">description</text><rect fill="none" height="6" style="stroke:#C82930;stroke-width:1.0;" width="6" x="908.5" y="757.4844"/><text fill="#000000" font-family="sans-serif" font-size="20" lengthAdjust="spacing" textLength="165" x="921.5" y="765.9082">enrolmentLimits</text><rect fill="none" height="6" style="stroke:#C82930;stroke-width:1.0;" width="6" x="908.5" y="780.7656"/><text fill="#000000" font-family="sans-serif" font-size="20" lengthAdjust="spacing" textLength="119" x="921.5" y="789.1895">courseState</text><rect fill="none" height="6" style="stroke:#C82930;stroke-width:1.0;" width="6" x="908.5" y="804.0469"/><text fill="#000000" font-family="sans-serif" font-size="20" lengthAdjust="spacing" textLength="224" x="921.5" y="812.4707">courseEnrolmentState</text><rect fill="none" height="6" style="stroke:#C82930;stroke-width:1.0;" width="6" x="908.5" y="827.3281"/><text fill="#000000" font-family="sans-serif" font-size="20" lengthAdjust="spacing" textLength="98" x="921.5" y="835.752">createdAt</text><line style="stroke:#181818;stroke-width:0.5;" x1="901.5" x2="1150.5" y1="844.4688" y2="844.4688"/></g><!--link ManageCourseEnrolmentStateUI to ManageCourseEnrolmentStateController--><g id="link_ManageCourseEnrolmentStateUI_ManageCourseEnrolmentStateController"><path codeLine="82" d="M484.97,57 C507.47,72.01 538.22,92.53 570.41,114.01 " fill="none" id="ManageCourseEnrolmentStateUI-to-ManageCourseEnrolmentStateController" style="stroke:#181818;stroke-width:1.0;stroke-dasharray:7.0,7.0;"/><polygon fill="#181818" points="574.75,116.91,569.4803,108.5895,570.5897,114.1365,565.0427,115.2459,574.75,116.91" style="stroke:#181818;stroke-width:1.0;"/></g><!--link ManageCourseEnrolmentStateUI to PersistenceContext--><g id="link_ManageCourseEnrolmentStateUI_PersistenceContext"><path codeLine="83" d="M400.17,57.01 C369.48,72.78 329.49,94.58 296,117 C265.83,137.2 234.06,162.67 209.36,183.52 " fill="none" id="ManageCourseEnrolmentStateUI-to-PersistenceContext" style="stroke:#181818;stroke-width:1.0;stroke-dasharray:7.0,7.0;"/><polygon fill="#181818" points="205.46,186.83,214.9138,184.0685,209.2764,183.5996,209.7452,177.9623,205.46,186.83" style="stroke:#181818;stroke-width:1.0;"/></g><!--link ManageCourseEnrolmentStateController to CourseListService--><g id="link_ManageCourseEnrolmentStateController_CourseListService"><path codeLine="84" d="M733,330.18 C733,348.28 733,366.9 733,384.46 " fill="none" id="ManageCourseEnrolmentStateController-to-CourseListService" style="stroke:#181818;stroke-width:1.0;"/><polygon fill="#181818" points="733,389.88,737,380.88,733,384.88,729,380.88,733,389.88" style="stroke:#181818;stroke-width:1.0;"/></g><!--link PersistenceContext to RepositoryFactory--><g id="link_PersistenceContext_RepositoryFactory"><path codeLine="85" d="M174.38,260.22 C186.29,305.56 206.78,383.58 219.29,431.2 " fill="none" id="PersistenceContext-to-RepositoryFactory" style="stroke:#181818;stroke-width:1.0;stroke-dasharray:7.0,7.0;"/><polygon fill="#181818" points="220.62,436.29,222.1964,426.5681,219.3468,431.4548,214.4601,428.6052,220.62,436.29" style="stroke:#181818;stroke-width:1.0;"/></g><!--link RepositoryFactory to CourseRepository--><g id="link_RepositoryFactory_CourseRepository"><path codeLine="86" d="M260.3,509.71 C300.21,556.73 370.65,639.72 416.31,693.52 " fill="none" id="RepositoryFactory-to-CourseRepository" style="stroke:#181818;stroke-width:1.0;"/><polygon fill="#181818" points="419.55,697.35,416.7504,687.9074,416.3043,693.5467,410.6651,693.1006,419.55,697.35" style="stroke:#181818;stroke-width:1.0;"/></g><!--link CourseListService to Course--><g id="link_CourseListService_Course"><path codeLine="88" d="M733,556.04 C733,573.35 733,592.03 733,610.69 " fill="none" id="CourseListService-to-Course" style="stroke:#181818;stroke-width:1.0;stroke-dasharray:7.0,7.0;"/><polygon fill="#181818" points="733,615.95,737,606.95,733,610.95,729,606.95,733,615.95" style="stroke:#181818;stroke-width:1.0;"/></g><!--link CourseListService to CourseDTO--><g id="link_CourseListService_CourseDTO"><path codeLine="89" d="M821.7,556.04 C848.87,581.17 879.18,609.21 907.98,635.84 " fill="none" id="CourseListService-to-CourseDTO" style="stroke:#181818;stroke-width:1.0;stroke-dasharray:7.0,7.0;"/><polygon fill="#181818" points="911.84,639.42,907.9355,630.3782,908.1643,636.0304,902.5121,636.2592,911.84,639.42" style="stroke:#181818;stroke-width:1.0;"/></g><!--link CourseListService to CourseRepository--><g id="link_CourseListService_CourseRepository"><path codeLine="90" d="M644.63,556.23 C624.2,575.63 602.69,596.38 583,616 C557.82,641.09 530.48,669.63 507.98,693.48 " fill="none" id="CourseListService-to-CourseRepository" style="stroke:#181818;stroke-width:1.0;stroke-dasharray:7.0,7.0;"/><polygon fill="#181818" points="504.41,697.26,513.4985,693.4655,507.844,693.6257,507.6837,687.9711,504.41,697.26" style="stroke:#181818;stroke-width:1.0;"/></g><!--link ManageCourseEnrolmentStateController to CourseRepository--><g id="link_ManageCourseEnrolmentStateController_CourseRepository"><path codeLine="91" d="M568.93,330.22 C550.11,348.2 533.04,368.19 520,390 C463.07,485.22 456.24,619.05 457.41,692.18 " fill="none" id="ManageCourseEnrolmentStateController-to-CourseRepository" style="stroke:#181818;stroke-width:1.0;"/><polygon fill="#181818" points="457.5,697.34,461.3451,688.2728,457.4143,692.3407,453.3463,688.4099,457.5,697.34" style="stroke:#181818;stroke-width:1.0;"/></g><!--reverse link CourseRepository to InMemoryCourseRepository--><g id="link_CourseRepository_InMemoryCourseRepository"><path codeLine="93" d="M390.01,807.75 C336.84,853.89 264.74,916.46 215.75,958.99 " fill="none" id="CourseRepository-backto-InMemoryCourseRepository" style="stroke:#181818;stroke-width:1.0;stroke-dasharray:7.0,7.0;"/><polygon fill="none" points="385.47,802.42,405.16,794.6,394.64,812.99,385.47,802.42" style="stroke:#181818;stroke-width:1.0;"/></g><!--reverse link CourseRepository to JpaCourseRepository--><g id="link_CourseRepository_JpaCourseRepository"><path codeLine="94" d="M462.61,814.66 C464.35,859.91 466.6,918.34 468.16,958.77 " fill="none" id="CourseRepository-backto-JpaCourseRepository" style="stroke:#181818;stroke-width:1.0;stroke-dasharray:7.0,7.0;"/><polygon fill="none" points="455.61,814.85,461.83,794.6,469.6,814.31,455.61,814.85" style="stroke:#181818;stroke-width:1.0;"/></g><!--link Course to CourseState--><g id="link_Course_CourseState"><path codeLine="96" d="M728.01,876.37 C727.3,894.89 726.59,913.43 725.93,930.46 " fill="none" id="Course-to-CourseState" style="stroke:#181818;stroke-width:1.0;"/><polygon fill="#181818" points="725.73,935.7,730.0865,926.8671,725.9298,930.704,722.0929,926.5473,725.73,935.7" style="stroke:#181818;stroke-width:1.0;"/></g><!--link Course to CourseEnrolmentState--><g id="link_Course_CourseEnrolmentState"><path codeLine="97" d="M849.66,876.37 C874.76,904.21 899.89,932.08 920.42,954.84 " fill="none" id="Course-to-CourseEnrolmentState" style="stroke:#181818;stroke-width:1.0;"/><polygon fill="#181818" points="923.93,958.74,920.8626,949.381,920.5773,955.0306,914.9276,954.7453,923.93,958.74" style="stroke:#181818;stroke-width:1.0;"/></g><!--SRC=[lLHDJ-Cm4BtxL_XOL5gXFQ-GK3zsW_gbPZaZaqoxLXsxigS8AFptTUmKd3hf5WbnYkrvxysRYJrcm-MMQLO8bMqWfpcis4xWM4bC-GlG7rU4P88PGvUmLOQZqizZbfKVkYUKTkFppWLv8uHB1BrY6T21sca37p37sxC7WzeItkYAo_n6Y9d2WL06SiklnGrxX4xcH9oojvF8AHHMhL6zsopQRT6wtRAla5c0DjmWo0m6jd_mX9MAFiXoC9s0u9DEB2S5_SXjhqfyZsP7PeXJYT2TOzo51meBUNViMQOoZcgz5Z2IMea2x2z6XWs5J9baQ_3CElOkeVipO6NvTYz0jrLK7h8T_hKzUM78bQng2j11fRwkS_95FRbiJFDLdVASzo9pxnyv2h_AmMIQRylCRWy7lGalE9gWMfSWsDSp-u06kynlaBGxF9WVel8t3UIkg6mwXFCwcCpJqT0kvelHp7wIsVrYEV-r7AMftOsJMPB-jl4wlPx9wLJqIkweAyC_yszlZBLmylBs-zTdNQF_gyIFdPpr7dgzw_WbauRHKIQ9PYk9f_27O3Wmuj5IwldJaq7xrqx6WoIVh3Us5upRdw_zVkjCRu4tZEs3Sf3MNvFe-EWQ_GC0]--></g></svg>