<?xml version="1.0" encoding="UTF-8" standalone="no"?><svg xmlns="http://www.w3.org/2000/svg" xmlns:xlink="http://www.w3.org/1999/xlink" contentStyleType="text/css" height="450px" preserveAspectRatio="none" style="width:480px;height:450px;background:#FFFFFF;" version="1.1" viewBox="0 0 480 450" width="480px" zoomAndPan="magnify"><defs/><g><ellipse cx="47.93" cy="171" fill="#222222" rx="10" ry="10" style="stroke:none;stroke-width:1.0;"/><g id="CLOSED"><rect fill="#F1F1F1" height="50" rx="12.5" ry="12.5" style="stroke:#181818;stroke-width:0.5;" width="94" x="101.93" y="285"/><line style="stroke:#181818;stroke-width:0.5;" x1="101.93" x2="195.93" y1="322.24" y2="322.24"/><text fill="#000000" font-family="sans-serif" font-size="20" lengthAdjust="spacing" textLength="74" x="111.93" y="311.38">CLOSED</text></g><g id="OPEN"><rect fill="#F1F1F1" height="50" rx="12.5" ry="12.5" style="stroke:#181818;stroke-width:0.5;" width="74" x="192.93" y="146"/><line style="stroke:#181818;stroke-width:0.5;" x1="192.93" x2="266.93" y1="183.24" y2="183.24"/><text fill="#000000" font-family="sans-serif" font-size="20" lengthAdjust="spacing" textLength="54" x="202.93" y="172.38">OPEN</text></g><g id="ENROLL"><rect fill="#F1F1F1" height="50" rx="12.5" ry="12.5" style="stroke:#181818;stroke-width:0.5;" width="96" x="181.93" y="7"/><line style="stroke:#181818;stroke-width:0.5;" x1="181.93" x2="277.93" y1="44.24" y2="44.24"/><text fill="#000000" font-family="sans-serif" font-size="20" lengthAdjust="spacing" textLength="76" x="191.93" y="33.38">ENROLL</text></g><g id="IN_PROGRESS"><rect fill="#F1F1F1" height="50" rx="12.5" ry="12.5" style="stroke:#181818;stroke-width:0.5;" width="150" x="306.93" y="285"/><line style="stroke:#181818;stroke-width:0.5;" x1="306.93" x2="456.93" y1="322.24" y2="322.24"/><text fill="#000000" font-family="sans-serif" font-size="20" lengthAdjust="spacing" textLength="130" x="316.93" y="311.38">IN_PROGRESS</text></g><ellipse cx="381.93" cy="434" fill="none" rx="10" ry="10" style="stroke:#222222;stroke-width:1.0;"/><ellipse cx="382.43" cy="434.5" fill="#222222" rx="6" ry="6" style="stroke:none;stroke-width:1.0;"/><!--link *start to CLOSED--><g id="link_*start_CLOSED"><path d="M47.87,181.1 C48.21,197.38 50.91,231.93 66.93,255 C74.81,266.35 85.91,275.92 97.42,283.71 " fill="none" id="*start-to-CLOSED" style="stroke:#181818;stroke-width:1.0;"/><polygon fill="#181818" points="101.67,286.5,96.3346,278.2215,97.4879,283.7595,91.9499,284.9128,101.67,286.5" style="stroke:#181818;stroke-width:1.0;"/><text fill="#000000" font-family="sans-serif" font-size="20" lengthAdjust="spacing" textLength="59" x="67.93" y="248.38">create</text></g><!--link CLOSED to OPEN--><g id="link_CLOSED_OPEN"><path d="M175.66,284.98 C184.28,276.2 193.3,265.76 199.93,255 C210.19,238.33 217.69,217.62 222.62,201.06 " fill="none" id="CLOSED-to-OPEN" style="stroke:#181818;stroke-width:1.0;"/><polygon fill="#181818" points="224.06,196.06,217.7207,203.5974,222.6732,200.8638,225.4068,205.8163,224.06,196.06" style="stroke:#181818;stroke-width:1.0;"/><text fill="#000000" font-family="sans-serif" font-size="20" lengthAdjust="spacing" textLength="49" x="214.93" y="248.38">open</text></g><!--link OPEN to CLOSED--><g id="link_OPEN_CLOSED"><path d="M192.52,184.79 C173.77,193.33 152.78,206.6 141.93,226 C132.84,242.24 134.66,263.13 138.71,279.88 " fill="none" id="OPEN-to-CLOSED" style="stroke:#181818;stroke-width:1.0;"/><polygon fill="#181818" points="140.04,284.94,141.6164,275.2181,138.7668,280.1048,133.8801,277.2552,140.04,284.94" style="stroke:#181818;stroke-width:1.0;"/><text fill="#000000" font-family="sans-serif" font-size="20" lengthAdjust="spacing" textLength="48" x="142.93" y="248.38">close</text></g><!--link OPEN to ENROLL--><g id="link_OPEN_ENROLL"><path d="M228.3,145.82 C227.75,136.5 227.2,125.76 226.93,116 C226.57,103.12 226.57,99.88 226.93,87 C227.15,79.07 227.55,70.49 227.99,62.56 " fill="none" id="OPEN-to-ENROLL" style="stroke:#181818;stroke-width:1.0;"/><polygon fill="#181818" points="228.3,57.18,223.7931,65.9371,228.0148,62.1719,231.78,66.3935,228.3,57.18" style="stroke:#181818;stroke-width:1.0;"/><text fill="#000000" font-family="sans-serif" font-size="20" lengthAdjust="spacing" textLength="172" x="227.93" y="109.38">open enrollments</text></g><!--link ENROLL to OPEN--><g id="link_ENROLL_OPEN"><path d="M181.78,38.2 C124.6,45.47 34.36,60.84 13.93,87 C6,97.16 6,105.84 13.93,116 C35.06,143.06 130.87,158.57 187.54,165.53 " fill="none" id="ENROLL-to-OPEN" style="stroke:#181818;stroke-width:1.0;"/><polygon fill="#181818" points="192.56,166.13,184.1041,161.0804,187.596,165.5309,183.1456,169.0228,192.56,166.13" style="stroke:#181818;stroke-width:1.0;"/><text fill="#000000" font-family="sans-serif" font-size="20" lengthAdjust="spacing" textLength="171" x="14.93" y="109.38">close enrollments</text></g><!--link ENROLL to IN_PROGRESS--><g id="link_ENROLL_IN_PROGRESS"><path d="M278.09,33.18 C319.18,36.21 376.04,47.86 404.93,87 C447.33,144.46 416.77,234.23 396.31,280.02 " fill="none" id="ENROLL-to-IN_PROGRESS" style="stroke:#181818;stroke-width:1.0;"/><polygon fill="#181818" points="394.12,284.85,401.4934,278.3206,396.1944,280.3006,394.2144,275.0016,394.12,284.85" style="stroke:#181818;stroke-width:1.0;"/><text fill="#000000" font-family="sans-serif" font-size="20" lengthAdjust="spacing" textLength="46" x="426.93" y="178.88">start</text></g><!--link OPEN to IN_PROGRESS--><g id="link_OPEN_IN_PROGRESS"><path d="M256.75,196.18 C283.15,219.97 323.43,256.27 351.13,281.24 " fill="none" id="OPEN-to-IN_PROGRESS" style="stroke:#181818;stroke-width:1.0;"/><polygon fill="#181818" points="355.12,284.83,351.1062,275.8361,351.4035,281.4852,345.7545,281.7825,355.12,284.83" style="stroke:#181818;stroke-width:1.0;"/><text fill="#000000" font-family="sans-serif" font-size="20" lengthAdjust="spacing" textLength="46" x="319.93" y="248.38">start</text></g><!--link IN_PROGRESS to *end--><g id="link_IN_PROGRESS_*end"><path d="M381.93,335.1 C381.93,360.09 381.93,398.31 381.93,418.82 " fill="none" id="IN_PROGRESS-to-*end" style="stroke:#181818;stroke-width:1.0;"/><polygon fill="#181818" points="381.93,423.87,385.93,414.87,381.93,418.87,377.93,414.87,381.93,423.87" style="stroke:#181818;stroke-width:1.0;"/><text fill="#000000" font-family="sans-serif" font-size="20" lengthAdjust="spacing" textLength="48" x="382.93" y="387.38">close</text></g><!--SRC=[RO-z2i8m54RtFCMTXO8uEhXe524a9Hb59BHNA4sJaiJ5fpSfaIXqktpdtBym3dRMNa_6TIFsqEDJlqmyEnlLy4RORGcvRUxGD0SuCg7e2VRGUTGH2Ib1PgAbF14teoLB_TzWNC2QKou5OqK7jDuPCw6DWHHI1owTgqfohlpHId6HLAcaXgXzh4lMu6-MdVpPzxeF]--></g></svg>