<?xml version="1.0" encoding="UTF-8" standalone="no"?><svg xmlns="http://www.w3.org/2000/svg" xmlns:xlink="http://www.w3.org/1999/xlink" contentStyleType="text/css" height="1136px" preserveAspectRatio="none" style="width:1943px;height:1136px;background:#FFFFFF;" version="1.1" viewBox="0 0 1943 1136" width="1943px" zoomAndPan="magnify"><defs/><g><rect fill="#FFFFFF" height="902.75" style="stroke:#181818;stroke-width:1.0;" width="10" x="46.5" y="107.5625"/><rect fill="#FFFFFF" height="457.6563" style="stroke:#181818;stroke-width:1.0;" width="10" x="541.5" y="136.8438"/><rect fill="#FFFFFF" height="87.5625" style="stroke:#181818;stroke-width:1.0;" width="10" x="541.5" y="631.7813"/><rect fill="#FFFFFF" height="253.6875" style="stroke:#181818;stroke-width:1.0;" width="10" x="541.5" y="756.625"/><rect fill="#FFFFFF" height="37.2813" style="stroke:#181818;stroke-width:1.0;" width="10" x="997.5" y="174.125"/><rect fill="#FFFFFF" height="308.5313" style="stroke:#181818;stroke-width:1.0;" width="10" x="997.5" y="248.6875"/><rect fill="#FFFFFF" height="179.125" style="stroke:#181818;stroke-width:1.0;" width="10" x="997.5" y="793.9063"/><rect fill="#FFFFFF" height="233.9688" style="stroke:#181818;stroke-width:1.0;" width="10" x="1361.5" y="285.9688"/><rect fill="#FFFFFF" height="37.2813" style="stroke:#181818;stroke-width:1.0;" width="10" x="1553.5" y="438.375"/><rect fill="#FFFFFF" height="30" style="stroke:#181818;stroke-width:1.0;" width="10" x="1553.5" y="831.1875"/><rect fill="#FFFFFF" height="37.2813" style="stroke:#181818;stroke-width:1.0;" width="10" x="1847" y="323.25"/><rect fill="#FFFFFF" height="37.2813" style="stroke:#181818;stroke-width:1.0;" width="10" x="1847" y="898.4688"/><rect fill="none" height="108.125" style="stroke:#000000;stroke-width:1.5;" width="500.5" x="1261" y="375.5313"/><line style="stroke:#181818;stroke-width:0.5;stroke-dasharray:5.0,5.0;" x1="51" x2="51" y1="97.5625" y2="1028.3125"/><line style="stroke:#181818;stroke-width:0.5;stroke-dasharray:5.0,5.0;" x1="546" x2="546" y1="97.5625" y2="1028.3125"/><line style="stroke:#181818;stroke-width:0.5;stroke-dasharray:5.0,5.0;" x1="1002" x2="1002" y1="97.5625" y2="1028.3125"/><line style="stroke:#181818;stroke-width:0.5;stroke-dasharray:5.0,5.0;" x1="1366" x2="1366" y1="97.5625" y2="1028.3125"/><line style="stroke:#181818;stroke-width:0.5;stroke-dasharray:5.0,5.0;" x1="1558.5" x2="1558.5" y1="97.5625" y2="1028.3125"/><line style="stroke:#181818;stroke-width:0.5;stroke-dasharray:5.0,5.0;" x1="1688.5" x2="1688.5" y1="97.5625" y2="1028.3125"/><line style="stroke:#181818;stroke-width:0.5;stroke-dasharray:5.0,5.0;" x1="1851.5" x2="1851.5" y1="97.5625" y2="1028.3125"/><text fill="#000000" font-family="sans-serif" font-size="20" lengthAdjust="spacing" textLength="87" x="5" y="92.8457">Manager</text><ellipse cx="51.5" cy="22.7813" fill="#E2E2F0" rx="8" ry="8" style="stroke:#181818;stroke-width:0.5;"/><path d="M51.5,30.7813 L51.5,57.7813 M38.5,38.7813 L64.5,38.7813 M51.5,57.7813 L38.5,72.7813 M51.5,57.7813 L64.5,72.7813 " fill="none" style="stroke:#181818;stroke-width:0.5;"/><text fill="#000000" font-family="sans-serif" font-size="20" lengthAdjust="spacing" textLength="87" x="5" y="1045.877">Manager</text><ellipse cx="51.5" cy="1059.0938" fill="#E2E2F0" rx="8" ry="8" style="stroke:#181818;stroke-width:0.5;"/><path d="M51.5,1067.0938 L51.5,1094.0938 M38.5,1075.0938 L64.5,1075.0938 M51.5,1094.0938 L38.5,1109.0938 M51.5,1094.0938 L64.5,1109.0938 " fill="none" style="stroke:#181818;stroke-width:0.5;"/><rect fill="#E2E2F0" height="60.5625" rx="2.5" ry="2.5" style="stroke:#181818;stroke-width:0.5;" width="229" x="432" y="36"/><text fill="#000000" font-family="sans-serif" font-size="20" font-style="italic" lengthAdjust="spacing" textLength="151" x="471" y="61.5645">«presentation»</text><text fill="#000000" font-family="sans-serif" font-size="20" lengthAdjust="spacing" textLength="215" x="439" y="84.8457">ManageEnrolmentsUI</text><rect fill="#E2E2F0" height="60.5625" rx="2.5" ry="2.5" style="stroke:#181818;stroke-width:0.5;" width="229" x="432" y="1027.3125"/><text fill="#000000" font-family="sans-serif" font-size="20" font-style="italic" lengthAdjust="spacing" textLength="151" x="471" y="1052.877">«presentation»</text><text fill="#000000" font-family="sans-serif" font-size="20" lengthAdjust="spacing" textLength="215" x="439" y="1076.1582">ManageEnrolmentsUI</text><rect fill="#E2E2F0" height="60.5625" rx="2.5" ry="2.5" style="stroke:#181818;stroke-width:0.5;" width="297" x="854" y="36"/><text fill="#000000" font-family="sans-serif" font-size="20" font-style="italic" lengthAdjust="spacing" textLength="136" x="934.5" y="61.5645">«application»</text><text fill="#000000" font-family="sans-serif" font-size="20" lengthAdjust="spacing" textLength="283" x="861" y="84.8457">ManageEnrolmentController</text><rect fill="#E2E2F0" height="60.5625" rx="2.5" ry="2.5" style="stroke:#181818;stroke-width:0.5;" width="297" x="854" y="1027.3125"/><text fill="#000000" font-family="sans-serif" font-size="20" font-style="italic" lengthAdjust="spacing" textLength="136" x="934.5" y="1052.877">«application»</text><text fill="#000000" font-family="sans-serif" font-size="20" lengthAdjust="spacing" textLength="283" x="861" y="1076.1582">ManageEnrolmentController</text><rect fill="#E2E2F0" height="60.5625" rx="2.5" ry="2.5" style="stroke:#181818;stroke-width:0.5;" width="191" x="1271" y="36"/><text fill="#000000" font-family="sans-serif" font-size="20" font-style="italic" lengthAdjust="spacing" textLength="95" x="1319" y="61.5645">«service»</text><text fill="#000000" font-family="sans-serif" font-size="20" lengthAdjust="spacing" textLength="177" x="1278" y="84.8457">CourseListService</text><rect fill="#E2E2F0" height="60.5625" rx="2.5" ry="2.5" style="stroke:#181818;stroke-width:0.5;" width="191" x="1271" y="1027.3125"/><text fill="#000000" font-family="sans-serif" font-size="20" font-style="italic" lengthAdjust="spacing" textLength="95" x="1319" y="1052.877">«service»</text><text fill="#000000" font-family="sans-serif" font-size="20" lengthAdjust="spacing" textLength="177" x="1278" y="1076.1582">CourseListService</text><rect fill="#E2E2F0" height="60.5625" rx="2.5" ry="2.5" style="stroke:#181818;stroke-width:0.5;" width="114" x="1501.5" y="36"/><text fill="#000000" font-family="sans-serif" font-size="20" font-style="italic" lengthAdjust="spacing" textLength="100" x="1508.5" y="61.5645">«domain»</text><text fill="#000000" font-family="sans-serif" font-size="20" lengthAdjust="spacing" textLength="69" x="1524" y="84.8457">Course</text><rect fill="#E2E2F0" height="60.5625" rx="2.5" ry="2.5" style="stroke:#181818;stroke-width:0.5;" width="114" x="1501.5" y="1027.3125"/><text fill="#000000" font-family="sans-serif" font-size="20" font-style="italic" lengthAdjust="spacing" textLength="100" x="1508.5" y="1052.877">«domain»</text><text fill="#000000" font-family="sans-serif" font-size="20" lengthAdjust="spacing" textLength="69" x="1524" y="1076.1582">Course</text><rect fill="#E2E2F0" height="60.5625" rx="2.5" ry="2.5" style="stroke:#181818;stroke-width:0.5;" width="126" x="1625.5" y="36"/><text fill="#000000" font-family="sans-serif" font-size="20" font-style="italic" lengthAdjust="spacing" textLength="57" x="1660" y="61.5645">«dto»</text><text fill="#000000" font-family="sans-serif" font-size="20" lengthAdjust="spacing" textLength="112" x="1632.5" y="84.8457">CourseDTO</text><rect fill="#E2E2F0" height="60.5625" rx="2.5" ry="2.5" style="stroke:#181818;stroke-width:0.5;" width="126" x="1625.5" y="1027.3125"/><text fill="#000000" font-family="sans-serif" font-size="20" font-style="italic" lengthAdjust="spacing" textLength="57" x="1660" y="1052.877">«dto»</text><text fill="#000000" font-family="sans-serif" font-size="20" lengthAdjust="spacing" textLength="112" x="1632.5" y="1076.1582">CourseDTO</text><text fill="#000000" font-family="sans-serif" font-size="20" font-style="italic" lengthAdjust="spacing" textLength="125" x="1786.5" y="69.5645">«repository»</text><text fill="#000000" font-family="sans-serif" font-size="20" lengthAdjust="spacing" textLength="175" x="1761.5" y="92.8457">CourseRepository</text><path d="M1834,15 C1834,5 1852,5 1852,5 C1852,5 1870,5 1870,15 L1870,41 C1870,51 1852,51 1852,51 C1852,51 1834,51 1834,41 L1834,15 " fill="#E2E2F0" style="stroke:#181818;stroke-width:1.5;"/><path d="M1834,15 C1834,25 1852,25 1852,25 C1852,25 1870,25 1870,15 " fill="none" style="stroke:#181818;stroke-width:1.5;"/><text fill="#000000" font-family="sans-serif" font-size="20" font-style="italic" lengthAdjust="spacing" textLength="125" x="1786.5" y="1045.877">«repository»</text><text fill="#000000" font-family="sans-serif" font-size="20" lengthAdjust="spacing" textLength="175" x="1761.5" y="1069.1582">CourseRepository</text><path d="M1834,1083.875 C1834,1073.875 1852,1073.875 1852,1073.875 C1852,1073.875 1870,1073.875 1870,1083.875 L1870,1109.875 C1870,1119.875 1852,1119.875 1852,1119.875 C1852,1119.875 1834,1119.875 1834,1109.875 L1834,1083.875 " fill="#E2E2F0" style="stroke:#181818;stroke-width:1.5;"/><path d="M1834,1083.875 C1834,1093.875 1852,1093.875 1852,1093.875 C1852,1093.875 1870,1093.875 1870,1083.875 " fill="none" style="stroke:#181818;stroke-width:1.5;"/><rect fill="#FFFFFF" height="902.75" style="stroke:#181818;stroke-width:1.0;" width="10" x="46.5" y="107.5625"/><rect fill="#FFFFFF" height="457.6563" style="stroke:#181818;stroke-width:1.0;" width="10" x="541.5" y="136.8438"/><rect fill="#FFFFFF" height="87.5625" style="stroke:#181818;stroke-width:1.0;" width="10" x="541.5" y="631.7813"/><rect fill="#FFFFFF" height="253.6875" style="stroke:#181818;stroke-width:1.0;" width="10" x="541.5" y="756.625"/><rect fill="#FFFFFF" height="37.2813" style="stroke:#181818;stroke-width:1.0;" width="10" x="997.5" y="174.125"/><rect fill="#FFFFFF" height="308.5313" style="stroke:#181818;stroke-width:1.0;" width="10" x="997.5" y="248.6875"/><rect fill="#FFFFFF" height="179.125" style="stroke:#181818;stroke-width:1.0;" width="10" x="997.5" y="793.9063"/><rect fill="#FFFFFF" height="233.9688" style="stroke:#181818;stroke-width:1.0;" width="10" x="1361.5" y="285.9688"/><rect fill="#FFFFFF" height="37.2813" style="stroke:#181818;stroke-width:1.0;" width="10" x="1553.5" y="438.375"/><rect fill="#FFFFFF" height="30" style="stroke:#181818;stroke-width:1.0;" width="10" x="1553.5" y="831.1875"/><rect fill="#FFFFFF" height="37.2813" style="stroke:#181818;stroke-width:1.0;" width="10" x="1847" y="323.25"/><rect fill="#FFFFFF" height="37.2813" style="stroke:#181818;stroke-width:1.0;" width="10" x="1847" y="898.4688"/><polygon fill="#181818" points="529.5,132.8438,539.5,136.8438,529.5,140.8438,533.5,136.8438" style="stroke:#181818;stroke-width:1.0;"/><line style="stroke:#181818;stroke-width:1.0;" x1="56.5" x2="535.5" y1="136.8438" y2="136.8438"/><text fill="#000000" font-family="sans-serif" font-size="20" font-weight="bold" lengthAdjust="spacing" textLength="14" x="63.5" y="130.127">1</text><text fill="#000000" font-family="sans-serif" font-size="20" lengthAdjust="spacing" textLength="420" x="81.5" y="130.127">asks to list all the courses and their states</text><polygon fill="#181818" points="985.5,170.125,995.5,174.125,985.5,178.125,989.5,174.125" style="stroke:#181818;stroke-width:1.0;"/><line style="stroke:#181818;stroke-width:1.0;" x1="551.5" x2="991.5" y1="174.125" y2="174.125"/><text fill="#000000" font-family="sans-serif" font-size="20" font-weight="bold" lengthAdjust="spacing" textLength="14" x="558.5" y="167.4082">2</text><text fill="#000000" font-family="sans-serif" font-size="20" lengthAdjust="spacing" textLength="230" x="576.5" y="167.4082">new(courseRepository)</text><polygon fill="#181818" points="1354.5,207.4063,1364.5,211.4063,1354.5,215.4063,1358.5,211.4063" style="stroke:#181818;stroke-width:1.0;"/><line style="stroke:#181818;stroke-width:1.0;" x1="1002.5" x2="1360.5" y1="211.4063" y2="211.4063"/><text fill="#000000" font-family="sans-serif" font-size="20" font-weight="bold" lengthAdjust="spacing" textLength="14" x="1009.5" y="204.6895">3</text><text fill="#000000" font-family="sans-serif" font-size="20" lengthAdjust="spacing" textLength="317" x="1027.5" y="204.6895">service=new(courseRepository)</text><polygon fill="#181818" points="985.5,244.6875,995.5,248.6875,985.5,252.6875,989.5,248.6875" style="stroke:#181818;stroke-width:1.0;"/><line style="stroke:#181818;stroke-width:1.0;" x1="551.5" x2="991.5" y1="248.6875" y2="248.6875"/><text fill="#000000" font-family="sans-serif" font-size="20" font-weight="bold" lengthAdjust="spacing" textLength="14" x="558.5" y="241.9707">4</text><text fill="#000000" font-family="sans-serif" font-size="20" lengthAdjust="spacing" textLength="227" x="576.5" y="241.9707">listNotClosedCourses()</text><polygon fill="#181818" points="1349.5,281.9688,1359.5,285.9688,1349.5,289.9688,1353.5,285.9688" style="stroke:#181818;stroke-width:1.0;"/><line style="stroke:#181818;stroke-width:1.0;" x1="1007.5" x2="1355.5" y1="285.9688" y2="285.9688"/><text fill="#000000" font-family="sans-serif" font-size="20" font-weight="bold" lengthAdjust="spacing" textLength="14" x="1014.5" y="279.252">5</text><text fill="#000000" font-family="sans-serif" font-size="20" lengthAdjust="spacing" textLength="227" x="1032.5" y="279.252">listNotClosedCourses()</text><polygon fill="#181818" points="1835,319.25,1845,323.25,1835,327.25,1839,323.25" style="stroke:#181818;stroke-width:1.0;"/><line style="stroke:#181818;stroke-width:1.0;" x1="1371.5" x2="1841" y1="323.25" y2="323.25"/><text fill="#000000" font-family="sans-serif" font-size="20" font-weight="bold" lengthAdjust="spacing" textLength="14" x="1378.5" y="316.5332">6</text><text fill="#000000" font-family="sans-serif" font-size="20" lengthAdjust="spacing" textLength="183" x="1396.5" y="316.5332">findAllNotClosed()</text><polygon fill="#181818" points="1382.5,356.5313,1372.5,360.5313,1382.5,364.5313,1378.5,360.5313" style="stroke:#181818;stroke-width:1.0;"/><line style="stroke:#181818;stroke-width:1.0;stroke-dasharray:2.0,2.0;" x1="1376.5" x2="1851" y1="360.5313" y2="360.5313"/><text fill="#000000" font-family="sans-serif" font-size="20" font-weight="bold" lengthAdjust="spacing" textLength="14" x="1388.5" y="353.8145">7</text><text fill="#000000" font-family="sans-serif" font-size="20" lengthAdjust="spacing" textLength="76" x="1406.5" y="353.8145">courses</text><path d="M1261,375.5313 L1355,375.5313 L1355,390.8125 L1345,400.8125 L1261,400.8125 L1261,375.5313 " fill="#EEEEEE" style="stroke:#000000;stroke-width:1.5;"/><rect fill="none" height="108.125" style="stroke:#000000;stroke-width:1.5;" width="500.5" x="1261" y="375.5313"/><text fill="#000000" font-family="sans-serif" font-size="20" font-weight="bold" lengthAdjust="spacing" textLength="49" x="1276" y="395.0957">loop</text><text fill="#000000" font-family="sans-serif" font-size="20" font-weight="bold" lengthAdjust="spacing" textLength="195" x="1370" y="396.0957">[for each course]</text><polygon fill="#181818" points="1541.5,434.375,1551.5,438.375,1541.5,442.375,1545.5,438.375" style="stroke:#181818;stroke-width:1.0;"/><line style="stroke:#181818;stroke-width:1.0;" x1="1371.5" x2="1547.5" y1="438.375" y2="438.375"/><text fill="#000000" font-family="sans-serif" font-size="20" font-weight="bold" lengthAdjust="spacing" textLength="14" x="1378.5" y="431.6582">8</text><text fill="#000000" font-family="sans-serif" font-size="20" lengthAdjust="spacing" textLength="145" x="1396.5" y="431.6582">toDTO(course)</text><polygon fill="#181818" points="1676.5,471.6563,1686.5,475.6563,1676.5,479.6563,1680.5,475.6563" style="stroke:#181818;stroke-width:1.0;"/><line style="stroke:#181818;stroke-width:1.0;" x1="1558.5" x2="1682.5" y1="475.6563" y2="475.6563"/><text fill="#000000" font-family="sans-serif" font-size="20" font-weight="bold" lengthAdjust="spacing" textLength="14" x="1565.5" y="468.9395">9</text><text fill="#000000" font-family="sans-serif" font-size="20" lengthAdjust="spacing" textLength="42" x="1583.5" y="468.9395">new</text><polygon fill="#181818" points="1018.5,515.9375,1008.5,519.9375,1018.5,523.9375,1014.5,519.9375" style="stroke:#181818;stroke-width:1.0;"/><line style="stroke:#181818;stroke-width:1.0;stroke-dasharray:2.0,2.0;" x1="1012.5" x2="1365.5" y1="519.9375" y2="519.9375"/><text fill="#000000" font-family="sans-serif" font-size="20" font-weight="bold" lengthAdjust="spacing" textLength="28" x="1024.5" y="513.2207">10</text><text fill="#000000" font-family="sans-serif" font-size="20" lengthAdjust="spacing" textLength="76" x="1056.5" y="513.2207">courses</text><polygon fill="#181818" points="562.5,553.2188,552.5,557.2188,562.5,561.2188,558.5,557.2188" style="stroke:#181818;stroke-width:1.0;"/><line style="stroke:#181818;stroke-width:1.0;stroke-dasharray:2.0,2.0;" x1="556.5" x2="1001.5" y1="557.2188" y2="557.2188"/><text fill="#000000" font-family="sans-serif" font-size="20" font-weight="bold" lengthAdjust="spacing" textLength="28" x="568.5" y="550.502">11</text><text fill="#000000" font-family="sans-serif" font-size="20" lengthAdjust="spacing" textLength="76" x="600.5" y="550.502">courses</text><polygon fill="#181818" points="67.5,590.5,57.5,594.5,67.5,598.5,63.5,594.5" style="stroke:#181818;stroke-width:1.0;"/><line style="stroke:#181818;stroke-width:1.0;stroke-dasharray:2.0,2.0;" x1="61.5" x2="545.5" y1="594.5" y2="594.5"/><text fill="#000000" font-family="sans-serif" font-size="20" font-weight="bold" lengthAdjust="spacing" textLength="28" x="73.5" y="587.7832">12</text><text fill="#000000" font-family="sans-serif" font-size="20" lengthAdjust="spacing" textLength="321" x="105.5" y="587.7832">lists all the non finished courses</text><polygon fill="#181818" points="529.5,627.7813,539.5,631.7813,529.5,635.7813,533.5,631.7813" style="stroke:#181818;stroke-width:1.0;"/><line style="stroke:#181818;stroke-width:1.0;" x1="56.5" x2="535.5" y1="631.7813" y2="631.7813"/><text fill="#000000" font-family="sans-serif" font-size="20" font-weight="bold" lengthAdjust="spacing" textLength="28" x="63.5" y="625.0645">13</text><text fill="#000000" font-family="sans-serif" font-size="20" lengthAdjust="spacing" textLength="260" x="95.5" y="625.0645">selects the desired course</text><line style="stroke:#181818;stroke-width:1.0;" x1="551.5" x2="593.5" y1="669.0625" y2="669.0625"/><line style="stroke:#181818;stroke-width:1.0;" x1="593.5" x2="593.5" y1="669.0625" y2="682.0625"/><line style="stroke:#181818;stroke-width:1.0;" x1="552.5" x2="593.5" y1="682.0625" y2="682.0625"/><polygon fill="#181818" points="562.5,678.0625,552.5,682.0625,562.5,686.0625,558.5,682.0625" style="stroke:#181818;stroke-width:1.0;"/><text fill="#000000" font-family="sans-serif" font-size="20" font-weight="bold" lengthAdjust="spacing" textLength="28" x="558.5" y="662.3457">14</text><text fill="#000000" font-family="sans-serif" font-size="20" lengthAdjust="spacing" textLength="400" x="590.5" y="662.3457">selectedCourse = select(courses, index)</text><polygon fill="#181818" points="67.5,715.3438,57.5,719.3438,67.5,723.3438,63.5,719.3438" style="stroke:#181818;stroke-width:1.0;"/><line style="stroke:#181818;stroke-width:1.0;stroke-dasharray:2.0,2.0;" x1="61.5" x2="545.5" y1="719.3438" y2="719.3438"/><text fill="#000000" font-family="sans-serif" font-size="20" font-weight="bold" lengthAdjust="spacing" textLength="28" x="73.5" y="712.627">15</text><text fill="#000000" font-family="sans-serif" font-size="20" lengthAdjust="spacing" textLength="221" x="105.5" y="712.627">asks to confirm action</text><polygon fill="#181818" points="529.5,752.625,539.5,756.625,529.5,760.625,533.5,756.625" style="stroke:#181818;stroke-width:1.0;"/><line style="stroke:#181818;stroke-width:1.0;" x1="56.5" x2="535.5" y1="756.625" y2="756.625"/><text fill="#000000" font-family="sans-serif" font-size="20" font-weight="bold" lengthAdjust="spacing" textLength="28" x="63.5" y="749.9082">16</text><text fill="#000000" font-family="sans-serif" font-size="20" lengthAdjust="spacing" textLength="194" x="95.5" y="749.9082">confirms the action</text><polygon fill="#181818" points="985.5,789.9063,995.5,793.9063,985.5,797.9063,989.5,793.9063" style="stroke:#181818;stroke-width:1.0;"/><line style="stroke:#181818;stroke-width:1.0;" x1="551.5" x2="991.5" y1="793.9063" y2="793.9063"/><text fill="#000000" font-family="sans-serif" font-size="20" font-weight="bold" lengthAdjust="spacing" textLength="28" x="558.5" y="787.1895">17</text><text fill="#000000" font-family="sans-serif" font-size="20" lengthAdjust="spacing" textLength="391" x="590.5" y="787.1895">toggleEnrolmentState(selectedCourse)</text><polygon fill="#181818" points="1541.5,827.1875,1551.5,831.1875,1541.5,835.1875,1545.5,831.1875" style="stroke:#181818;stroke-width:1.0;"/><line style="stroke:#181818;stroke-width:1.0;" x1="1007.5" x2="1547.5" y1="831.1875" y2="831.1875"/><text fill="#000000" font-family="sans-serif" font-size="20" font-weight="bold" lengthAdjust="spacing" textLength="28" x="1014.5" y="824.4707">18</text><text fill="#000000" font-family="sans-serif" font-size="20" lengthAdjust="spacing" textLength="321" x="1046.5" y="824.4707">course=toggleEnrolmentState()</text><polygon fill="#181818" points="1835,894.4688,1845,898.4688,1835,902.4688,1839,898.4688" style="stroke:#181818;stroke-width:1.0;"/><line style="stroke:#181818;stroke-width:1.0;" x1="1007.5" x2="1841" y1="898.4688" y2="898.4688"/><text fill="#000000" font-family="sans-serif" font-size="20" font-weight="bold" lengthAdjust="spacing" textLength="28" x="1014.5" y="891.752">19</text><text fill="#000000" font-family="sans-serif" font-size="20" lengthAdjust="spacing" textLength="127" x="1046.5" y="891.752">save(course)</text><polygon fill="#181818" points="1018.5,931.75,1008.5,935.75,1018.5,939.75,1014.5,935.75" style="stroke:#181818;stroke-width:1.0;"/><line style="stroke:#181818;stroke-width:1.0;stroke-dasharray:2.0,2.0;" x1="1012.5" x2="1851" y1="935.75" y2="935.75"/><text fill="#000000" font-family="sans-serif" font-size="20" font-weight="bold" lengthAdjust="spacing" textLength="28" x="1024.5" y="929.0332">20</text><text fill="#000000" font-family="sans-serif" font-size="20" lengthAdjust="spacing" textLength="111" x="1056.5" y="929.0332">newCourse</text><polygon fill="#181818" points="562.5,969.0313,552.5,973.0313,562.5,977.0313,558.5,973.0313" style="stroke:#181818;stroke-width:1.0;"/><line style="stroke:#181818;stroke-width:1.0;stroke-dasharray:2.0,2.0;" x1="556.5" x2="1001.5" y1="973.0313" y2="973.0313"/><text fill="#000000" font-family="sans-serif" font-size="20" font-weight="bold" lengthAdjust="spacing" textLength="28" x="568.5" y="966.3145">21</text><text fill="#000000" font-family="sans-serif" font-size="20" lengthAdjust="spacing" textLength="111" x="600.5" y="966.3145">newCourse</text><polygon fill="#181818" points="62.5,1006.3125,52.5,1010.3125,62.5,1014.3125,58.5,1010.3125" style="stroke:#181818;stroke-width:1.0;"/><line style="stroke:#181818;stroke-width:1.0;stroke-dasharray:2.0,2.0;" x1="56.5" x2="545.5" y1="1010.3125" y2="1010.3125"/><text fill="#000000" font-family="sans-serif" font-size="20" font-weight="bold" lengthAdjust="spacing" textLength="28" x="68.5" y="1003.5957">22</text><text fill="#000000" font-family="sans-serif" font-size="20" lengthAdjust="spacing" textLength="429" x="100.5" y="1003.5957">reports the success of the toggle operation</text><!--SRC=[XPHRRnen48NV_Ij6UGAfaQe-ee1KRLC9ARGLXBuxtW4iZ6VbCVJowplUDNj9blG9x3rdVFpDxFBH-ae7VN9aZbX2YJjzTl4h-RYnVn4-VLJw7CcVJoyObD8cKe2xbVPwZ-4EDCDAYJzQOolju_NHem_aJkWZRvUrQhk4XuSg8CkUZfRyOl6khv00yjVbGuhdzPCKq5Nbh1dr5tGEZ4-MumR3nHgiVPlrJx5nipDkQUgBggIJjZVgVdd-NklaDoaZYKoLEkeNpGYDPeqLiHK-Vv9o_VX3bA7TImQXPoyweZ1JAxXV92ep4HyP8e6JxA2TWtX0C7L91ktBjBO1MBWXTpMsIwN4BrLgE3Fm-6jYNYMPTlgaKhLKB8dB33AN-RYpnA5tU5fA-urYuOYnR03mvFtZ_cSHbKfACIHwCzXPNtvshlNqnQ9GINNVbi_8-hcJI3cY2dOojh9_o2e5a4ygn1b9-fe9JELHTmbP54cL-buJbeq-5uNIdtI0Qf9tV4RIfFirHAwj7n5rg4MqojIudGjFFc6nV92NTSIUfg8RBKQ7Hjp9MIBRq9e6SzGqjkUujWVcUIF3uGyWBS7Vqtx0w_mQyZiRJZKzyhT3PLsJAelVfiaO8-tthliiRD9BC1c6l3LqHGjuFbgbxnjqeAtGJ27h2xR3CJf_tGlO97ezWiEcZyhgvDlbbMdwReJSE3uRWyn0kthPt0Memg37GFUMA_KF]--></g></svg>