<?xml version="1.0" encoding="UTF-8" standalone="no"?><svg xmlns="http://www.w3.org/2000/svg" xmlns:xlink="http://www.w3.org/1999/xlink" contentStyleType="text/css" height="1277px" preserveAspectRatio="none" style="width:1774px;height:1277px;background:#FFFFFF;" version="1.1" viewBox="0 0 1774 1277" width="1774px" zoomAndPan="magnify"><defs/><g><rect fill="#FFFFFF" height="1027.7594" style="stroke:#181818;stroke-width:1.0;" width="10" x="46" y="115.4799"/><rect fill="#FFFFFF" height="509.1197" style="stroke:#181818;stroke-width:1.0;" width="10" x="523.25" y="148.7199"/><rect fill="#FFFFFF" height="95.4799" style="stroke:#181818;stroke-width:1.0;" width="10" x="523.25" y="699.0796"/><rect fill="#FFFFFF" height="307.4398" style="stroke:#181818;stroke-width:1.0;" width="10" x="523.25" y="835.7995"/><rect fill="#FFFFFF" height="41.24" style="stroke:#181818;stroke-width:1.0;" width="10" x="951.5" y="189.9599"/><rect fill="#FFFFFF" height="344.1598" style="stroke:#181818;stroke-width:1.0;" width="10" x="951.5" y="272.4398"/><rect fill="#FFFFFF" height="224.9599" style="stroke:#181818;stroke-width:1.0;" width="10" x="951.5" y="877.0395"/><rect fill="#FFFFFF" height="261.6798" style="stroke:#181818;stroke-width:1.0;" width="10" x="1215.125" y="313.6798"/><rect fill="#FFFFFF" height="41.24" style="stroke:#181818;stroke-width:1.0;" width="10" x="1397.75" y="485.8797"/><rect fill="#FFFFFF" height="30" style="stroke:#181818;stroke-width:1.0;" width="10" x="1397.75" y="918.2794"/><rect fill="#FFFFFF" height="41.24" style="stroke:#181818;stroke-width:1.0;" width="10" x="1680.25" y="354.9198"/><rect fill="#FFFFFF" height="30" style="stroke:#181818;stroke-width:1.0;" width="10" x="1680.25" y="989.5194"/><rect fill="none" height="123.9599" style="stroke:#000000;stroke-width:1.5;" width="461.125" x="1136.125" y="411.1598"/><line style="stroke:#181818;stroke-width:0.5;stroke-dasharray:5.0,5.0;" x1="51" x2="51" y1="105.4799" y2="1161.2393"/><line style="stroke:#181818;stroke-width:0.5;stroke-dasharray:5.0,5.0;" x1="527.75" x2="527.75" y1="105.4799" y2="1161.2393"/><line style="stroke:#181818;stroke-width:0.5;stroke-dasharray:5.0,5.0;" x1="956" x2="956" y1="105.4799" y2="1161.2393"/><line style="stroke:#181818;stroke-width:0.5;stroke-dasharray:5.0,5.0;" x1="1220.125" x2="1220.125" y1="105.4799" y2="1161.2393"/><line style="stroke:#181818;stroke-width:0.5;stroke-dasharray:5.0,5.0;" x1="1402.25" x2="1402.25" y1="105.4799" y2="1161.2393"/><line style="stroke:#181818;stroke-width:0.5;stroke-dasharray:5.0,5.0;" x1="1525.25" x2="1525.25" y1="105.4799" y2="1161.2393"/><line style="stroke:#181818;stroke-width:0.5;stroke-dasharray:5.0,5.0;" x1="1685.25" x2="1685.25" y1="105.4799" y2="1161.2393"/><text fill="#000000" font-family="sans-serif" font-size="20" lengthAdjust="spacing" textLength="86" x="5" y="99.62">Manager</text><ellipse cx="51" cy="26.74" fill="#E2E2F0" rx="8" ry="8" style="stroke:#181818;stroke-width:0.5;"/><path d="M51,34.74 L51,61.74 M38,42.74 L64,42.74 M51,61.74 L38,76.74 M51,61.74 L64,76.74 " fill="none" style="stroke:#181818;stroke-width:0.5;"/><text fill="#000000" font-family="sans-serif" font-size="20" lengthAdjust="spacing" textLength="86" x="5" y="1181.6193">Manager</text><ellipse cx="51" cy="1195.9793" fill="#E2E2F0" rx="8" ry="8" style="stroke:#181818;stroke-width:0.5;"/><path d="M51,1203.9793 L51,1230.9793 M38,1211.9793 L64,1211.9793 M51,1230.9793 L38,1245.9793 M51,1230.9793 L64,1245.9793 " fill="none" style="stroke:#181818;stroke-width:0.5;"/><rect fill="#E2E2F0" height="68.4799" rx="2.5" ry="2.5" style="stroke:#181818;stroke-width:0.5;" width="225" x="415.75" y="36"/><text fill="#000000" font-family="sans-serif" font-size="20" font-style="italic" lengthAdjust="spacing" textLength="134" x="461.25" y="64.38">«presentation»</text><text fill="#000000" font-family="sans-serif" font-size="20" lengthAdjust="spacing" textLength="211" x="422.75" y="91.62">ManageEnrolmentsUI</text><rect fill="#E2E2F0" height="68.4799" rx="2.5" ry="2.5" style="stroke:#181818;stroke-width:0.5;" width="225" x="415.75" y="1160.2393"/><text fill="#000000" font-family="sans-serif" font-size="20" font-style="italic" lengthAdjust="spacing" textLength="134" x="461.25" y="1188.6193">«presentation»</text><text fill="#000000" font-family="sans-serif" font-size="20" lengthAdjust="spacing" textLength="211" x="422.75" y="1215.8593">ManageEnrolmentsUI</text><rect fill="#E2E2F0" height="68.4799" rx="2.5" ry="2.5" style="stroke:#181818;stroke-width:0.5;" width="291" x="811" y="36"/><text fill="#000000" font-family="sans-serif" font-size="20" font-style="italic" lengthAdjust="spacing" textLength="120" x="896.5" y="64.38">«application»</text><text fill="#000000" font-family="sans-serif" font-size="20" lengthAdjust="spacing" textLength="277" x="818" y="91.62">ManageEnrolmentController</text><rect fill="#E2E2F0" height="68.4799" rx="2.5" ry="2.5" style="stroke:#181818;stroke-width:0.5;" width="291" x="811" y="1160.2393"/><text fill="#000000" font-family="sans-serif" font-size="20" font-style="italic" lengthAdjust="spacing" textLength="120" x="896.5" y="1188.6193">«application»</text><text fill="#000000" font-family="sans-serif" font-size="20" lengthAdjust="spacing" textLength="277" x="818" y="1215.8593">ManageEnrolmentController</text><rect fill="#E2E2F0" height="68.4799" rx="2.5" ry="2.5" style="stroke:#181818;stroke-width:0.5;" width="148" x="1146.125" y="36"/><text fill="#000000" font-family="sans-serif" font-size="20" font-style="italic" lengthAdjust="spacing" textLength="80" x="1180.125" y="64.38">«service»</text><text fill="#000000" font-family="sans-serif" font-size="20" lengthAdjust="spacing" textLength="134" x="1153.125" y="91.62">CourseService</text><rect fill="#E2E2F0" height="68.4799" rx="2.5" ry="2.5" style="stroke:#181818;stroke-width:0.5;" width="148" x="1146.125" y="1160.2393"/><text fill="#000000" font-family="sans-serif" font-size="20" font-style="italic" lengthAdjust="spacing" textLength="80" x="1180.125" y="1188.6193">«service»</text><text fill="#000000" font-family="sans-serif" font-size="20" lengthAdjust="spacing" textLength="134" x="1153.125" y="1215.8593">CourseService</text><rect fill="#E2E2F0" height="68.4799" rx="2.5" ry="2.5" style="stroke:#181818;stroke-width:0.5;" width="103" x="1351.25" y="36"/><text fill="#000000" font-family="sans-serif" font-size="20" font-style="italic" lengthAdjust="spacing" textLength="89" x="1358.25" y="64.38">«domain»</text><text fill="#000000" font-family="sans-serif" font-size="20" lengthAdjust="spacing" textLength="67" x="1369.25" y="91.62">Course</text><rect fill="#E2E2F0" height="68.4799" rx="2.5" ry="2.5" style="stroke:#181818;stroke-width:0.5;" width="103" x="1351.25" y="1160.2393"/><text fill="#000000" font-family="sans-serif" font-size="20" font-style="italic" lengthAdjust="spacing" textLength="89" x="1358.25" y="1188.6193">«domain»</text><text fill="#000000" font-family="sans-serif" font-size="20" lengthAdjust="spacing" textLength="67" x="1369.25" y="1215.8593">Course</text><rect fill="#E2E2F0" height="68.4799" rx="2.5" ry="2.5" style="stroke:#181818;stroke-width:0.5;" width="123" x="1464.25" y="36"/><text fill="#000000" font-family="sans-serif" font-size="20" font-style="italic" lengthAdjust="spacing" textLength="50" x="1500.75" y="64.38">«dto»</text><text fill="#000000" font-family="sans-serif" font-size="20" lengthAdjust="spacing" textLength="109" x="1471.25" y="91.62">CourseDTO</text><rect fill="#E2E2F0" height="68.4799" rx="2.5" ry="2.5" style="stroke:#181818;stroke-width:0.5;" width="123" x="1464.25" y="1160.2393"/><text fill="#000000" font-family="sans-serif" font-size="20" font-style="italic" lengthAdjust="spacing" textLength="50" x="1500.75" y="1188.6193">«dto»</text><text fill="#000000" font-family="sans-serif" font-size="20" lengthAdjust="spacing" textLength="109" x="1471.25" y="1215.8593">CourseDTO</text><text fill="#000000" font-family="sans-serif" font-size="20" font-style="italic" lengthAdjust="spacing" textLength="110" x="1627.25" y="72.38">«repository»</text><text fill="#000000" font-family="sans-serif" font-size="20" lengthAdjust="spacing" textLength="170" x="1597.25" y="99.62">CourseRepository</text><path d="M1667.25,15 C1667.25,5 1685.25,5 1685.25,5 C1685.25,5 1703.25,5 1703.25,15 L1703.25,41 C1703.25,51 1685.25,51 1685.25,51 C1685.25,51 1667.25,51 1667.25,41 L1667.25,15 " fill="#E2E2F0" style="stroke:#181818;stroke-width:1.5;"/><path d="M1667.25,15 C1667.25,25 1685.25,25 1685.25,25 C1685.25,25 1703.25,25 1703.25,15 " fill="none" style="stroke:#181818;stroke-width:1.5;"/><text fill="#000000" font-family="sans-serif" font-size="20" font-style="italic" lengthAdjust="spacing" textLength="110" x="1627.25" y="1181.6193">«repository»</text><text fill="#000000" font-family="sans-serif" font-size="20" lengthAdjust="spacing" textLength="170" x="1597.25" y="1208.8593">CourseRepository</text><path d="M1667.25,1224.7193 C1667.25,1214.7193 1685.25,1214.7193 1685.25,1214.7193 C1685.25,1214.7193 1703.25,1214.7193 1703.25,1224.7193 L1703.25,1250.7193 C1703.25,1260.7193 1685.25,1260.7193 1685.25,1260.7193 C1685.25,1260.7193 1667.25,1260.7193 1667.25,1250.7193 L1667.25,1224.7193 " fill="#E2E2F0" style="stroke:#181818;stroke-width:1.5;"/><path d="M1667.25,1224.7193 C1667.25,1234.7193 1685.25,1234.7193 1685.25,1234.7193 C1685.25,1234.7193 1703.25,1234.7193 1703.25,1224.7193 " fill="none" style="stroke:#181818;stroke-width:1.5;"/><rect fill="#FFFFFF" height="1027.7594" style="stroke:#181818;stroke-width:1.0;" width="10" x="46" y="115.4799"/><rect fill="#FFFFFF" height="509.1197" style="stroke:#181818;stroke-width:1.0;" width="10" x="523.25" y="148.7199"/><rect fill="#FFFFFF" height="95.4799" style="stroke:#181818;stroke-width:1.0;" width="10" x="523.25" y="699.0796"/><rect fill="#FFFFFF" height="307.4398" style="stroke:#181818;stroke-width:1.0;" width="10" x="523.25" y="835.7995"/><rect fill="#FFFFFF" height="41.24" style="stroke:#181818;stroke-width:1.0;" width="10" x="951.5" y="189.9599"/><rect fill="#FFFFFF" height="344.1598" style="stroke:#181818;stroke-width:1.0;" width="10" x="951.5" y="272.4398"/><rect fill="#FFFFFF" height="224.9599" style="stroke:#181818;stroke-width:1.0;" width="10" x="951.5" y="877.0395"/><rect fill="#FFFFFF" height="261.6798" style="stroke:#181818;stroke-width:1.0;" width="10" x="1215.125" y="313.6798"/><rect fill="#FFFFFF" height="41.24" style="stroke:#181818;stroke-width:1.0;" width="10" x="1397.75" y="485.8797"/><rect fill="#FFFFFF" height="30" style="stroke:#181818;stroke-width:1.0;" width="10" x="1397.75" y="918.2794"/><rect fill="#FFFFFF" height="41.24" style="stroke:#181818;stroke-width:1.0;" width="10" x="1680.25" y="354.9198"/><rect fill="#FFFFFF" height="30" style="stroke:#181818;stroke-width:1.0;" width="10" x="1680.25" y="989.5194"/><polygon fill="#181818" points="511.25,144.7199,521.25,148.7199,511.25,152.7199,515.25,148.7199" style="stroke:#181818;stroke-width:1.0;"/><line style="stroke:#181818;stroke-width:1.0;" x1="56" x2="517.25" y1="148.7199" y2="148.7199"/><text fill="#000000" font-family="sans-serif" font-size="20" font-weight="bold" lengthAdjust="spacing" textLength="11.625" x="63" y="140.8599">1</text><text fill="#000000" font-family="sans-serif" font-size="20" lengthAdjust="spacing" textLength="403" x="78.625" y="140.8599">asks to list all the courses and their states</text><polygon fill="#181818" points="939.5,185.9599,949.5,189.9599,939.5,193.9599,943.5,189.9599" style="stroke:#181818;stroke-width:1.0;"/><line style="stroke:#181818;stroke-width:1.0;" x1="533.25" x2="945.5" y1="189.9599" y2="189.9599"/><text fill="#000000" font-family="sans-serif" font-size="20" font-weight="bold" lengthAdjust="spacing" textLength="11.625" x="540.25" y="182.0999">2</text><text fill="#000000" font-family="sans-serif" font-size="20" lengthAdjust="spacing" textLength="40" x="555.875" y="182.0999">new</text><polygon fill="#181818" points="1208.125,227.1999,1218.125,231.1999,1208.125,235.1999,1212.125,231.1999" style="stroke:#181818;stroke-width:1.0;"/><line style="stroke:#181818;stroke-width:1.0;" x1="956.5" x2="1214.125" y1="231.1999" y2="231.1999"/><text fill="#000000" font-family="sans-serif" font-size="20" font-weight="bold" lengthAdjust="spacing" textLength="11.625" x="963.5" y="223.3399">3</text><text fill="#000000" font-family="sans-serif" font-size="20" lengthAdjust="spacing" textLength="219" x="979.125" y="223.3399">new(courseRepository)</text><polygon fill="#181818" points="939.5,268.4398,949.5,272.4398,939.5,276.4398,943.5,272.4398" style="stroke:#181818;stroke-width:1.0;"/><line style="stroke:#181818;stroke-width:1.0;" x1="533.25" x2="945.5" y1="272.4398" y2="272.4398"/><text fill="#000000" font-family="sans-serif" font-size="20" font-weight="bold" lengthAdjust="spacing" textLength="11.625" x="540.25" y="264.5799">4</text><text fill="#000000" font-family="sans-serif" font-size="20" lengthAdjust="spacing" textLength="219" x="555.875" y="264.5799">listNotClosedCourses()</text><polygon fill="#181818" points="1203.125,309.6798,1213.125,313.6798,1203.125,317.6798,1207.125,313.6798" style="stroke:#181818;stroke-width:1.0;"/><line style="stroke:#181818;stroke-width:1.0;" x1="961.5" x2="1209.125" y1="313.6798" y2="313.6798"/><text fill="#000000" font-family="sans-serif" font-size="20" font-weight="bold" lengthAdjust="spacing" textLength="11.625" x="968.5" y="305.8198">5</text><text fill="#000000" font-family="sans-serif" font-size="20" lengthAdjust="spacing" textLength="219" x="984.125" y="305.8198">listNotClosedCourses()</text><polygon fill="#181818" points="1668.25,350.9198,1678.25,354.9198,1668.25,358.9198,1672.25,354.9198" style="stroke:#181818;stroke-width:1.0;"/><line style="stroke:#181818;stroke-width:1.0;" x1="1225.125" x2="1674.25" y1="354.9198" y2="354.9198"/><text fill="#000000" font-family="sans-serif" font-size="20" font-weight="bold" lengthAdjust="spacing" textLength="11.625" x="1232.125" y="347.0598">6</text><text fill="#000000" font-family="sans-serif" font-size="20" lengthAdjust="spacing" textLength="177" x="1247.75" y="347.0598">findAllNotClosed()</text><polygon fill="#181818" points="1236.125,392.1598,1226.125,396.1598,1236.125,400.1598,1232.125,396.1598" style="stroke:#181818;stroke-width:1.0;"/><line style="stroke:#181818;stroke-width:1.0;stroke-dasharray:2.0,2.0;" x1="1230.125" x2="1684.25" y1="396.1598" y2="396.1598"/><text fill="#000000" font-family="sans-serif" font-size="20" font-weight="bold" lengthAdjust="spacing" textLength="11.625" x="1242.125" y="388.2998">7</text><text fill="#000000" font-family="sans-serif" font-size="20" lengthAdjust="spacing" textLength="74" x="1257.75" y="388.2998">courses</text><path d="M1136.125,411.1598 L1226.625,411.1598 L1226.625,430.3997 L1216.625,440.3997 L1136.125,440.3997 L1136.125,411.1598 " fill="#EEEEEE" style="stroke:#000000;stroke-width:1.5;"/><rect fill="none" height="123.9599" style="stroke:#000000;stroke-width:1.5;" width="461.125" x="1136.125" y="411.1598"/><text fill="#000000" font-family="sans-serif" font-size="20" font-weight="bold" lengthAdjust="spacing" textLength="45.5" x="1151.125" y="433.5398">loop</text><text fill="#000000" font-family="sans-serif" font-size="20" font-weight="bold" lengthAdjust="spacing" textLength="169.375" x="1241.625" y="434.5398">[for each course]</text><polygon fill="#181818" points="1385.75,481.8797,1395.75,485.8797,1385.75,489.8797,1389.75,485.8797" style="stroke:#181818;stroke-width:1.0;"/><line style="stroke:#181818;stroke-width:1.0;" x1="1225.125" x2="1391.75" y1="485.8797" y2="485.8797"/><text fill="#000000" font-family="sans-serif" font-size="20" font-weight="bold" lengthAdjust="spacing" textLength="11.625" x="1232.125" y="478.0197">8</text><text fill="#000000" font-family="sans-serif" font-size="20" lengthAdjust="spacing" textLength="138" x="1247.75" y="478.0197">toDTO(course)</text><polygon fill="#181818" points="1513.75,523.1197,1523.75,527.1197,1513.75,531.1197,1517.75,527.1197" style="stroke:#181818;stroke-width:1.0;"/><line style="stroke:#181818;stroke-width:1.0;" x1="1402.75" x2="1519.75" y1="527.1197" y2="527.1197"/><text fill="#000000" font-family="sans-serif" font-size="20" font-weight="bold" lengthAdjust="spacing" textLength="11.625" x="1409.75" y="519.2597">9</text><text fill="#000000" font-family="sans-serif" font-size="20" lengthAdjust="spacing" textLength="40" x="1425.375" y="519.2597">new</text><polygon fill="#181818" points="972.5,571.3596,962.5,575.3596,972.5,579.3596,968.5,575.3596" style="stroke:#181818;stroke-width:1.0;"/><line style="stroke:#181818;stroke-width:1.0;stroke-dasharray:2.0,2.0;" x1="966.5" x2="1219.125" y1="575.3596" y2="575.3596"/><text fill="#000000" font-family="sans-serif" font-size="20" font-weight="bold" lengthAdjust="spacing" textLength="23.25" x="978.5" y="567.4997">10</text><text fill="#000000" font-family="sans-serif" font-size="20" lengthAdjust="spacing" textLength="74" x="1005.75" y="567.4997">courses</text><polygon fill="#181818" points="544.25,612.5996,534.25,616.5996,544.25,620.5996,540.25,616.5996" style="stroke:#181818;stroke-width:1.0;"/><line style="stroke:#181818;stroke-width:1.0;stroke-dasharray:2.0,2.0;" x1="538.25" x2="955.5" y1="616.5996" y2="616.5996"/><text fill="#000000" font-family="sans-serif" font-size="20" font-weight="bold" lengthAdjust="spacing" textLength="23.25" x="550.25" y="608.7396">11</text><text fill="#000000" font-family="sans-serif" font-size="20" lengthAdjust="spacing" textLength="74" x="577.5" y="608.7396">courses</text><polygon fill="#181818" points="67,653.8396,57,657.8396,67,661.8396,63,657.8396" style="stroke:#181818;stroke-width:1.0;"/><line style="stroke:#181818;stroke-width:1.0;stroke-dasharray:2.0,2.0;" x1="61" x2="527.25" y1="657.8396" y2="657.8396"/><text fill="#000000" font-family="sans-serif" font-size="20" font-weight="bold" lengthAdjust="spacing" textLength="23.25" x="73" y="649.9796">12</text><text fill="#000000" font-family="sans-serif" font-size="20" lengthAdjust="spacing" textLength="312" x="100.25" y="649.9796">lists all the non finished courses</text><polygon fill="#181818" points="511.25,695.0796,521.25,699.0796,511.25,703.0796,515.25,699.0796" style="stroke:#181818;stroke-width:1.0;"/><line style="stroke:#181818;stroke-width:1.0;" x1="56" x2="517.25" y1="699.0796" y2="699.0796"/><text fill="#000000" font-family="sans-serif" font-size="20" font-weight="bold" lengthAdjust="spacing" textLength="23.25" x="63" y="691.2196">13</text><text fill="#000000" font-family="sans-serif" font-size="20" lengthAdjust="spacing" textLength="249" x="90.25" y="691.2196">selects the desired course</text><line style="stroke:#181818;stroke-width:1.0;" x1="533.25" x2="575.25" y1="740.3195" y2="740.3195"/><line style="stroke:#181818;stroke-width:1.0;" x1="575.25" x2="575.25" y1="740.3195" y2="753.3195"/><line style="stroke:#181818;stroke-width:1.0;" x1="534.25" x2="575.25" y1="753.3195" y2="753.3195"/><polygon fill="#181818" points="544.25,749.3195,534.25,753.3195,544.25,757.3195,540.25,753.3195" style="stroke:#181818;stroke-width:1.0;"/><text fill="#000000" font-family="sans-serif" font-size="20" font-weight="bold" lengthAdjust="spacing" textLength="23.25" x="540.25" y="732.4596">14</text><text fill="#000000" font-family="sans-serif" font-size="20" lengthAdjust="spacing" textLength="372" x="567.5" y="732.4596">selectedCourse = select(courses, index)</text><polygon fill="#181818" points="67,790.5595,57,794.5595,67,798.5595,63,794.5595" style="stroke:#181818;stroke-width:1.0;"/><line style="stroke:#181818;stroke-width:1.0;stroke-dasharray:2.0,2.0;" x1="61" x2="527.25" y1="794.5595" y2="794.5595"/><text fill="#000000" font-family="sans-serif" font-size="20" font-weight="bold" lengthAdjust="spacing" textLength="23.25" x="73" y="786.6995">15</text><text fill="#000000" font-family="sans-serif" font-size="20" lengthAdjust="spacing" textLength="212" x="100.25" y="786.6995">asks to confirm action</text><polygon fill="#181818" points="511.25,831.7995,521.25,835.7995,511.25,839.7995,515.25,835.7995" style="stroke:#181818;stroke-width:1.0;"/><line style="stroke:#181818;stroke-width:1.0;" x1="56" x2="517.25" y1="835.7995" y2="835.7995"/><text fill="#000000" font-family="sans-serif" font-size="20" font-weight="bold" lengthAdjust="spacing" textLength="23.25" x="63" y="827.9395">16</text><text fill="#000000" font-family="sans-serif" font-size="20" lengthAdjust="spacing" textLength="187" x="90.25" y="827.9395">confirms the action</text><polygon fill="#181818" points="939.5,873.0395,949.5,877.0395,939.5,881.0395,943.5,877.0395" style="stroke:#181818;stroke-width:1.0;"/><line style="stroke:#181818;stroke-width:1.0;" x1="533.25" x2="945.5" y1="877.0395" y2="877.0395"/><text fill="#000000" font-family="sans-serif" font-size="20" font-weight="bold" lengthAdjust="spacing" textLength="23.25" x="540.25" y="869.1795">17</text><text fill="#000000" font-family="sans-serif" font-size="20" lengthAdjust="spacing" textLength="372" x="567.5" y="869.1795">toggleEnrolmentState(selectedCourse)</text><polygon fill="#181818" points="1385.75,914.2794,1395.75,918.2794,1385.75,922.2794,1389.75,918.2794" style="stroke:#181818;stroke-width:1.0;"/><line style="stroke:#181818;stroke-width:1.0;" x1="961.5" x2="1391.75" y1="918.2794" y2="918.2794"/><text fill="#000000" font-family="sans-serif" font-size="20" font-weight="bold" lengthAdjust="spacing" textLength="23.25" x="968.5" y="910.4195">18</text><text fill="#000000" font-family="sans-serif" font-size="20" lengthAdjust="spacing" textLength="301" x="995.75" y="910.4195">course=toggleEnrolmentState()</text><polygon fill="#181818" points="1668.25,985.5194,1678.25,989.5194,1668.25,993.5194,1672.25,989.5194" style="stroke:#181818;stroke-width:1.0;"/><line style="stroke:#181818;stroke-width:1.0;" x1="961.5" x2="1674.25" y1="989.5194" y2="989.5194"/><text fill="#000000" font-family="sans-serif" font-size="20" font-weight="bold" lengthAdjust="spacing" textLength="23.25" x="968.5" y="981.6594">19</text><text fill="#000000" font-family="sans-serif" font-size="20" lengthAdjust="spacing" textLength="118" x="995.75" y="981.6594">save(course)</text><polygon fill="#181818" points="972.5,1056.7594,962.5,1060.7594,972.5,1064.7594,968.5,1060.7594" style="stroke:#181818;stroke-width:1.0;"/><line style="stroke:#181818;stroke-width:1.0;stroke-dasharray:2.0,2.0;" x1="966.5" x2="1219.125" y1="1060.7594" y2="1060.7594"/><text fill="#000000" font-family="sans-serif" font-size="20" font-weight="bold" lengthAdjust="spacing" textLength="23.25" x="978.5" y="1052.8994">20</text><text fill="#000000" font-family="sans-serif" font-size="20" lengthAdjust="spacing" textLength="107" x="1005.75" y="1052.8994">newCourse</text><polygon fill="#181818" points="544.25,1097.9994,534.25,1101.9994,544.25,1105.9994,540.25,1101.9994" style="stroke:#181818;stroke-width:1.0;"/><line style="stroke:#181818;stroke-width:1.0;stroke-dasharray:2.0,2.0;" x1="538.25" x2="955.5" y1="1101.9994" y2="1101.9994"/><text fill="#000000" font-family="sans-serif" font-size="20" font-weight="bold" lengthAdjust="spacing" textLength="23.25" x="550.25" y="1094.1394">21</text><text fill="#000000" font-family="sans-serif" font-size="20" lengthAdjust="spacing" textLength="107" x="577.5" y="1094.1394">newCourse</text><polygon fill="#181818" points="62,1139.2393,52,1143.2393,62,1147.2393,58,1143.2393" style="stroke:#181818;stroke-width:1.0;"/><line style="stroke:#181818;stroke-width:1.0;stroke-dasharray:2.0,2.0;" x1="56" x2="527.25" y1="1143.2393" y2="1143.2393"/><text fill="#000000" font-family="sans-serif" font-size="20" font-weight="bold" lengthAdjust="spacing" textLength="23.25" x="68" y="1135.3794">22</text><text fill="#000000" font-family="sans-serif" font-size="20" lengthAdjust="spacing" textLength="416" x="95.25" y="1135.3794">reports the success of the toggle operation</text><!--SRC=[XPJBZXen44Nt_ehIh43AI56MQ0Ofwamaf914C6JlwIx0mhXQBaCUNvzos_I3D6G5jiyjbszTu8DnjVRwQAayO0KLRlN9Xi_amjhyGVZmNkbJ87Swlg5NIfU1F3mijTCxz0-W6PPAzC6KfjOkN8vUd2TxH1TuisYepGAUdcgFB7iw67Bp-LrT8Gt8LvilALvNNwI0hcjhob5zGIVFk4P_DYKsclNgXqWuxOpZgRPG5HsrkL7pq-ktXfFFI0OIJ5Kww3VD28bPOKrin9lVaLozV1VIjtjH8CwPimueVgabFCwZ8pE13mo1m1eEeAs5i4Secv8CsbLnRJomU8RSrTWib1AzL6cCcO73dzrft5FDWG3HXUPyKbvrEbKL3ZN3ch6dhnGAIunLUYPFfdUl-Pz4A1L94KIFPh0rhlfeRQlfmqAeI3ssvRCn_RuZf2nH3Li9fkplCwK0yas5A0F9zB83Kpdg7Y6B8b9nkib7WBul2cKAyGALEk_y6UaclYyvSXdm2DHPBT0okyRjz1svQ8lXlVmSH-Hnzbs062sMeexA2jduLZH8InfiJt4P3ppdZMmElmCP2VwQzXkyfBGajpN-sBX7xdPJcKjTPVZVRhADWNOxs_tmrp7gas6Jjq9Nj0O_ZrRfwmOJQ2ka5B8-OnkEGRIkadQL04bBQl1-1aQnvY6RnSNY-6VXynpvL9R83BHjbkbfG3LwFUPxRxbKVm40]--></g></svg>