<?xml version="1.0" encoding="UTF-8" standalone="no"?><svg xmlns="http://www.w3.org/2000/svg" xmlns:xlink="http://www.w3.org/1999/xlink" contentStyleType="text/css" height="822px" preserveAspectRatio="none" style="width:1520px;height:822px;background:#FFFFFF;" version="1.1" viewBox="0 0 1520 822" width="1520px" zoomAndPan="magnify"><defs/><g><!--cluster <<aggregate>> Course--><g id="cluster_&lt;&lt;aggregate&gt;&gt; Course"><path d="M8.5,223.36 L206.125,223.36 A3.75,3.75 0 0 1 208.625,225.86 L215.625,256.6 L1200.5,256.6 A2.5,2.5 0 0 1 1203,259.1 L1203,625.86 A2.5,2.5 0 0 1 1200.5,628.36 L8.5,628.36 A2.5,2.5 0 0 1 6,625.86 L6,225.86 A2.5,2.5 0 0 1 8.5,223.36 " fill="none" style="stroke:#000000;stroke-width:1.5;"/><line style="stroke:#000000;stroke-width:1.5;" x1="6" x2="215.625" y1="256.6" y2="256.6"/><text fill="#000000" font-family="sans-serif" font-size="20" font-weight="bold" lengthAdjust="spacing" textLength="196.625" x="10" y="246.74">«aggregate» Course</text></g><!--cluster <<aggregate>> Enrolment--><g id="cluster_&lt;&lt;aggregate&gt;&gt; Enrolment"><path d="M678.5,8.36 L909,8.36 A3.75,3.75 0 0 1 911.5,10.86 L918.5,41.6 L918.5,41.6 A2.5,2.5 0 0 1 921,44.1 L921,159.86 A2.5,2.5 0 0 1 918.5,162.36 L678.5,162.36 A2.5,2.5 0 0 1 676,159.86 L676,10.86 A2.5,2.5 0 0 1 678.5,8.36 " fill="none" style="stroke:#000000;stroke-width:1.5;"/><line style="stroke:#000000;stroke-width:1.5;" x1="676" x2="918.5" y1="41.6" y2="41.6"/><text fill="#000000" font-family="sans-serif" font-size="20" font-weight="bold" lengthAdjust="spacing" textLength="229.5" x="680" y="31.74">«aggregate» Enrolment</text></g><!--cluster <<aggregate>> Teacher--><g id="cluster_&lt;&lt;aggregate&gt;&gt; Teacher"><path d="M1201.5,661.36 L1407.75,661.36 A3.75,3.75 0 0 1 1410.25,663.86 L1417.25,694.6 L1417.5,694.6 A2.5,2.5 0 0 1 1420,697.1 L1420,812.86 A2.5,2.5 0 0 1 1417.5,815.36 L1201.5,815.36 A2.5,2.5 0 0 1 1199,812.86 L1199,663.86 A2.5,2.5 0 0 1 1201.5,661.36 " fill="none" style="stroke:#000000;stroke-width:1.5;"/><line style="stroke:#000000;stroke-width:1.5;" x1="1199" x2="1417.25" y1="694.6" y2="694.6"/><text fill="#000000" font-family="sans-serif" font-size="20" font-weight="bold" lengthAdjust="spacing" textLength="205.25" x="1203" y="684.74">«aggregate» Teacher</text></g><!--class Course--><g id="elem_Course"><rect codeLine="32" fill="#F5F5DC" height="126.9599" id="Course" rx="2.5" ry="2.5" style="stroke:#181818;stroke-width:0.5;" width="108" x="744" y="269.36"/><ellipse cx="763.6" cy="315.22" fill="#ADD1B2" rx="12" ry="12" style="stroke:#181818;stroke-width:1.0;"/><path d="M767.6469,322.72 L759.0375,322.72 L759.0375,307.8137 L767.6469,307.8137 L767.6469,310.0168 L761.4594,310.0168 L761.4594,313.8606 L767.2875,313.8606 L767.2875,316.0325 L761.4594,316.0325 L761.4594,320.5168 L767.6469,320.5168 L767.6469,322.72 Z " fill="#000000"/><text fill="#000000" font-family="sans-serif" font-size="20" font-style="italic" lengthAdjust="spacing" textLength="70" x="777.4" y="295.74">«entity»</text><text fill="#000000" font-family="sans-serif" font-size="20" font-style="italic" lengthAdjust="spacing" textLength="57" x="783.9" y="322.9799">«root»</text><text fill="#000000" font-family="sans-serif" font-size="20" lengthAdjust="spacing" textLength="66" x="779.4" y="350.2199">Course</text><line style="stroke:#181818;stroke-width:0.5;" x1="745" x2="851" y1="361.0799" y2="361.0799"/><text fill="#000000" font-family="sans-serif" font-size="20" lengthAdjust="spacing" textLength="96" x="750" y="386.4599">-createdAt</text></g><!--class Title--><g id="elem_Title"><rect codeLine="49" fill="#F5F5DC" height="64.4799" id="Title" rx="2.5" ry="2.5" style="stroke:#181818;stroke-width:0.5;" width="156" x="22" y="516.86"/><ellipse cx="38" cy="549.1" fill="#FF8B40" rx="12" ry="12" style="stroke:#181818;stroke-width:1.0;"/><path d="M44.25,542.9437 L38.9375,557.85 L36.6875,557.85 L31.375,542.9437 L33.9063,542.9437 L37.2031,552.3031 Q37.4219,552.8968 37.5781,553.4437 Q37.75,553.9906 37.875,554.4906 Q38.0156,554.975 37.8125,555.0218 Q37.5938,554.9906 37.7344,554.475 Q37.875,553.9593 38.0469,553.4281 Q38.2188,552.8812 38.4219,552.2718 L41.6875,542.9437 L44.25,542.9437 Z " fill="#000000"/><text fill="#000000" font-family="sans-serif" font-size="20" font-style="italic" lengthAdjust="spacing" textLength="126" x="51" y="543.24">«value object»</text><text fill="#000000" font-family="sans-serif" font-size="20" lengthAdjust="spacing" textLength="39" x="94.5" y="570.4799">Title</text></g><!--class CourseState--><g id="elem_CourseState"><rect codeLine="51" fill="#F5F5DC" height="64.4799" id="CourseState" rx="2.5" ry="2.5" style="stroke:#181818;stroke-width:0.5;" width="156" x="213" y="516.86"/><ellipse cx="229" cy="549.1" fill="#FF8B40" rx="12" ry="12" style="stroke:#181818;stroke-width:1.0;"/><path d="M235.25,542.9437 L229.9375,557.85 L227.6875,557.85 L222.375,542.9437 L224.9063,542.9437 L228.2031,552.3031 Q228.4219,552.8968 228.5781,553.4437 Q228.75,553.9906 228.875,554.4906 Q229.0156,554.975 228.8125,555.0218 Q228.5938,554.9906 228.7344,554.475 Q228.875,553.9593 229.0469,553.4281 Q229.2188,552.8812 229.4219,552.2718 L232.6875,542.9437 L235.25,542.9437 Z " fill="#000000"/><text fill="#000000" font-family="sans-serif" font-size="20" font-style="italic" lengthAdjust="spacing" textLength="126" x="242" y="543.24">«value object»</text><text fill="#000000" font-family="sans-serif" font-size="20" lengthAdjust="spacing" textLength="113" x="248.5" y="570.4799">CourseState</text></g><!--class EnrolmentState--><g id="elem_EnrolmentState"><rect codeLine="50" fill="#F5F5DC" height="64.4799" id="EnrolmentState" rx="2.5" ry="2.5" style="stroke:#181818;stroke-width:0.5;" width="178" x="404" y="516.86"/><ellipse cx="420" cy="549.1" fill="#FF8B40" rx="12" ry="12" style="stroke:#181818;stroke-width:1.0;"/><path d="M426.25,542.9437 L420.9375,557.85 L418.6875,557.85 L413.375,542.9437 L415.9063,542.9437 L419.2031,552.3031 Q419.4219,552.8968 419.5781,553.4437 Q419.75,553.9906 419.875,554.4906 Q420.0156,554.975 419.8125,555.0218 Q419.5938,554.9906 419.7344,554.475 Q419.875,553.9593 420.0469,553.4281 Q420.2188,552.8812 420.4219,552.2718 L423.6875,542.9437 L426.25,542.9437 Z " fill="#000000"/><text fill="#000000" font-family="sans-serif" font-size="20" font-style="italic" lengthAdjust="spacing" textLength="126" x="444" y="543.24">«value object»</text><text fill="#000000" font-family="sans-serif" font-size="20" lengthAdjust="spacing" textLength="144" x="435" y="570.4799">EnrolmentState</text></g><!--class EnrolmentLimits--><g id="elem_EnrolmentLimits"><rect codeLine="23" fill="#F5F5DC" height="126.9599" id="EnrolmentLimits" rx="2.5" ry="2.5" style="stroke:#181818;stroke-width:0.5;" width="187" x="617.5" y="485.36"/><ellipse cx="633.5" cy="517.6" fill="#FF8B40" rx="12" ry="12" style="stroke:#181818;stroke-width:1.0;"/><path d="M639.75,511.4437 L634.4375,526.35 L632.1875,526.35 L626.875,511.4437 L629.4063,511.4437 L632.7031,520.8031 Q632.9219,521.3968 633.0781,521.9437 Q633.25,522.4906 633.375,522.9906 Q633.5156,523.475 633.3125,523.5218 Q633.0938,523.4906 633.2344,522.975 Q633.375,522.4593 633.5469,521.9281 Q633.7188,521.3812 633.9219,520.7718 L637.1875,511.4437 L639.75,511.4437 Z " fill="#000000"/><text fill="#000000" font-family="sans-serif" font-size="20" font-style="italic" lengthAdjust="spacing" textLength="126" x="662" y="511.74">«value object»</text><text fill="#000000" font-family="sans-serif" font-size="20" lengthAdjust="spacing" textLength="153" x="648.5" y="538.9799">EnrolmentLimits</text><line style="stroke:#181818;stroke-width:0.5;" x1="618.5" x2="803.5" y1="549.8399" y2="549.8399"/><text fill="#000000" font-family="sans-serif" font-size="20" lengthAdjust="spacing" textLength="42" x="623.5" y="575.2199">-min</text><text fill="#000000" font-family="sans-serif" font-size="20" lengthAdjust="spacing" textLength="47" x="623.5" y="602.4599">-max</text></g><!--class Description--><g id="elem_Description"><rect codeLine="22" fill="#F5F5DC" height="64.4799" id="Description" rx="2.5" ry="2.5" style="stroke:#181818;stroke-width:0.5;" width="156" x="840" y="516.86"/><ellipse cx="856" cy="549.1" fill="#FF8B40" rx="12" ry="12" style="stroke:#181818;stroke-width:1.0;"/><path d="M862.25,542.9437 L856.9375,557.85 L854.6875,557.85 L849.375,542.9437 L851.9063,542.9437 L855.2031,552.3031 Q855.4219,552.8968 855.5781,553.4437 Q855.75,553.9906 855.875,554.4906 Q856.0156,554.975 855.8125,555.0218 Q855.5938,554.9906 855.7344,554.475 Q855.875,553.9593 856.0469,553.4281 Q856.2188,552.8812 856.4219,552.2718 L859.6875,542.9437 L862.25,542.9437 Z " fill="#000000"/><text fill="#000000" font-family="sans-serif" font-size="20" font-style="italic" lengthAdjust="spacing" textLength="126" x="869" y="543.24">«value object»</text><text fill="#000000" font-family="sans-serif" font-size="20" lengthAdjust="spacing" textLength="107" x="878.5" y="570.4799">Description</text></g><!--class Code--><g id="elem_Code"><rect codeLine="52" fill="#F5F5DC" height="64.4799" id="Code" rx="2.5" ry="2.5" style="stroke:#181818;stroke-width:0.5;" width="156" x="1031" y="516.86"/><ellipse cx="1047" cy="549.1" fill="#FF8B40" rx="12" ry="12" style="stroke:#181818;stroke-width:1.0;"/><path d="M1053.25,542.9437 L1047.9375,557.85 L1045.6875,557.85 L1040.375,542.9437 L1042.9063,542.9437 L1046.2031,552.3031 Q1046.4219,552.8968 1046.5781,553.4437 Q1046.75,553.9906 1046.875,554.4906 Q1047.0156,554.975 1046.8125,555.0218 Q1046.5938,554.9906 1046.7344,554.475 Q1046.875,553.9593 1047.0469,553.4281 Q1047.2188,552.8812 1047.4219,552.2718 L1050.6875,542.9437 L1053.25,542.9437 Z " fill="#000000"/><text fill="#000000" font-family="sans-serif" font-size="20" font-style="italic" lengthAdjust="spacing" textLength="126" x="1060" y="543.24">«value object»</text><text fill="#000000" font-family="sans-serif" font-size="20" lengthAdjust="spacing" textLength="48" x="1099" y="570.4799">Code</text></g><!--class Enrolment--><g id="elem_Enrolment"><rect codeLine="36" fill="#F5F5DC" height="91.7199" id="Enrolment" rx="2.5" ry="2.5" style="stroke:#181818;stroke-width:0.5;" width="131" x="732.5" y="54.36"/><ellipse cx="748.5" cy="100.22" fill="#ADD1B2" rx="12" ry="12" style="stroke:#181818;stroke-width:1.0;"/><path d="M752.5469,107.72 L743.9375,107.72 L743.9375,92.8137 L752.5469,92.8137 L752.5469,95.0168 L746.3594,95.0168 L746.3594,98.8606 L752.1875,98.8606 L752.1875,101.0325 L746.3594,101.0325 L746.3594,105.5168 L752.5469,105.5168 L752.5469,107.72 Z " fill="#000000"/><text fill="#000000" font-family="sans-serif" font-size="20" font-style="italic" lengthAdjust="spacing" textLength="70" x="777" y="80.74">«entity»</text><text fill="#000000" font-family="sans-serif" font-size="20" font-style="italic" lengthAdjust="spacing" textLength="57" x="783.5" y="107.9799">«root»</text><text fill="#000000" font-family="sans-serif" font-size="20" lengthAdjust="spacing" textLength="97" x="763.5" y="135.2199">Enrolment</text></g><!--class Teacher--><g id="elem_Teacher"><rect codeLine="43" fill="#F5F5DC" height="91.7199" id="Teacher" rx="2.5" ry="2.5" style="stroke:#181818;stroke-width:0.5;" width="108" x="1256" y="707.36"/><ellipse cx="1272" cy="753.22" fill="#ADD1B2" rx="12" ry="12" style="stroke:#181818;stroke-width:1.0;"/><path d="M1276.0469,760.72 L1267.4375,760.72 L1267.4375,745.8137 L1276.0469,745.8137 L1276.0469,748.0168 L1269.8594,748.0168 L1269.8594,751.8606 L1275.6875,751.8606 L1275.6875,754.0325 L1269.8594,754.0325 L1269.8594,758.5168 L1276.0469,758.5168 L1276.0469,760.72 Z " fill="#000000"/><text fill="#000000" font-family="sans-serif" font-size="20" font-style="italic" lengthAdjust="spacing" textLength="70" x="1289" y="733.74">«entity»</text><text fill="#000000" font-family="sans-serif" font-size="20" font-style="italic" lengthAdjust="spacing" textLength="57" x="1295.5" y="760.9799">«root»</text><text fill="#000000" font-family="sans-serif" font-size="20" lengthAdjust="spacing" textLength="74" x="1287" y="788.2199">Teacher</text></g><g id="elem_GMN14"><path d="M215,693.86 L215,812.8199 A0,0 0 0 0 215,812.8199 L367,812.8199 A0,0 0 0 0 367,812.8199 L367,703.86 L357,693.86 L295,693.86 L291,581.06 L287,693.86 L215,693.86 A0,0 0 0 0 215,693.86 " fill="#FEFFDD" style="stroke:#181818;stroke-width:0.5;"/><path d="M357,693.86 L357,703.86 L367,703.86 L357,693.86 " fill="#FEFFDD" style="stroke:#181818;stroke-width:0.5;"/><text fill="#000000" font-family="sans-serif" font-size="20" lengthAdjust="spacing" textLength="76" x="221" y="720.24">CLOSED</text><text fill="#000000" font-family="sans-serif" font-size="20" lengthAdjust="spacing" textLength="54" x="221" y="747.4799">OPEN</text><text fill="#000000" font-family="sans-serif" font-size="20" lengthAdjust="spacing" textLength="131" x="221" y="774.7199">IN_PROGRESS</text><text fill="#000000" font-family="sans-serif" font-size="20" lengthAdjust="spacing" textLength="91" x="221" y="801.9599">FINISHED</text></g><g id="elem_GMN17"><path d="M444.5,721.36 L444.5,785.8399 A0,0 0 0 0 444.5,785.8399 L541.5,785.8399 A0,0 0 0 0 541.5,785.8399 L541.5,731.36 L531.5,721.36 L497,721.36 L493,581.06 L489,721.36 L444.5,721.36 A0,0 0 0 0 444.5,721.36 " fill="#FEFFDD" style="stroke:#181818;stroke-width:0.5;"/><path d="M531.5,721.36 L531.5,731.36 L541.5,731.36 L531.5,721.36 " fill="#FEFFDD" style="stroke:#181818;stroke-width:0.5;"/><text fill="#000000" font-family="sans-serif" font-size="20" lengthAdjust="spacing" textLength="76" x="450.5" y="747.74">CLOSED</text><text fill="#000000" font-family="sans-serif" font-size="20" lengthAdjust="spacing" textLength="54" x="450.5" y="774.9799">OPEN</text></g><!--link Course to Title--><g id="link_Course_Title"><path codeLine="54" d="M743.59,340.1 C634.89,354.13 385.12,394.33 196,485.36 C179.88,493.12 163.24,503.14 148.43,512.88 " fill="none" id="Course-to-Title" style="stroke:#222222;stroke-width:1.0;"/><polygon fill="#222222" points="144.32,515.61,154.0273,513.9459,148.4803,512.8365,149.5897,507.2895,144.32,515.61" style="stroke:#222222;stroke-width:1.0;"/><text fill="#000000" font-family="sans-serif" font-size="20" lengthAdjust="spacing" textLength="67" x="338" y="448.74">is titled</text><text fill="#000000" font-family="sans-serif" font-size="20" lengthAdjust="spacing" textLength="11" x="138.5156" y="502.9186">1</text></g><!--link Course to Teacher--><g id="link_Course_Teacher"><path codeLine="55" d="M852.15,337.12 C940.98,345.59 1116.58,376.03 1205,485.36 C1257.13,549.82 1285.86,643.32 1299.58,700.85 " fill="none" id="Course-to-Teacher" style="stroke:#222222;stroke-width:1.0;"/><polygon fill="#222222" points="1300.67,705.52,1302.5355,695.8494,1299.5415,700.649,1294.742,697.655,1300.67,705.52" style="stroke:#222222;stroke-width:1.0;"/><text fill="#000000" font-family="sans-serif" font-size="20" lengthAdjust="spacing" textLength="33" x="1281" y="556.74">has</text><text fill="#000000" font-family="sans-serif" font-size="20" lengthAdjust="spacing" textLength="32" x="1265.6633" y="693.3712">1..*</text></g><!--link Course to Teacher--><g id="link_Course_Teacher"><path codeLine="56" d="M852.08,340.7 C975.28,357.56 1270.25,405.66 1323,485.36 C1365.63,549.77 1347.34,643.28 1329.32,700.84 " fill="none" id="Course-to-Teacher-1" style="stroke:#222222;stroke-width:1.0;"/><polygon fill="#222222" points="1327.81,705.54,1334.3715,698.1951,1329.3396,700.7797,1326.755,695.7478,1327.81,705.54" style="stroke:#222222;stroke-width:1.0;"/><text fill="#000000" font-family="sans-serif" font-size="20" lengthAdjust="spacing" textLength="162" x="1350" y="556.74">has a responsible</text><text fill="#000000" font-family="sans-serif" font-size="20" lengthAdjust="spacing" textLength="11" x="1317.9423" y="693.3485">1</text></g><!--link Course to CourseState--><g id="link_Course_CourseState"><path codeLine="57" d="M743.52,349.65 C663.26,373.87 509.51,423.88 387,485.36 C371.17,493.3 354.73,503.29 340.03,512.93 " fill="none" id="Course-to-CourseState" style="stroke:#222222;stroke-width:1.0;"/><polygon fill="#222222" points="335.96,515.62,345.6738,513.9944,340.1312,512.863,341.2626,507.3204,335.96,515.62" style="stroke:#222222;stroke-width:1.0;"/><text fill="#000000" font-family="sans-serif" font-size="20" lengthAdjust="spacing" textLength="37" x="520" y="448.74">is in</text><text fill="#000000" font-family="sans-serif" font-size="20" lengthAdjust="spacing" textLength="11" x="330.2656" y="502.9303">1</text></g><!--link Course to EnrolmentState--><g id="link_Course_EnrolmentState"><path codeLine="58" d="M743.82,371.87 C686.94,411.78 598.25,474.01 542.99,512.78 " fill="none" id="Course-to-EnrolmentState" style="stroke:#222222;stroke-width:1.0;"/><polygon fill="#222222" points="538.99,515.59,548.6534,513.6876,543.0808,512.715,544.0534,507.1424,538.99,515.59" style="stroke:#222222;stroke-width:1.0;"/><text fill="#000000" font-family="sans-serif" font-size="20" lengthAdjust="spacing" textLength="37" x="664" y="448.74">is in</text><text fill="#000000" font-family="sans-serif" font-size="20" lengthAdjust="spacing" textLength="11" x="533.4961" y="502.9303">1</text></g><!--link Course to Description--><g id="link_Course_Description"><path codeLine="59" d="M833.19,396.62 C854.05,433.81 879.76,479.66 897.37,511.06 " fill="none" id="Course-to-Description" style="stroke:#222222;stroke-width:1.0;"/><polygon fill="#222222" points="899.6,515.04,898.6633,505.2358,897.1439,510.6848,891.6949,509.1655,899.6,515.04" style="stroke:#222222;stroke-width:1.0;"/><text fill="#000000" font-family="sans-serif" font-size="20" lengthAdjust="spacing" textLength="33" x="866" y="448.74">has</text><text fill="#000000" font-family="sans-serif" font-size="20" lengthAdjust="spacing" textLength="11" x="885.5041" y="503.1014">1</text></g><!--link Course to EnrolmentLimits--><g id="link_Course_EnrolmentLimits"><path codeLine="60" d="M772.48,396.62 C761.95,422.53 749.71,452.65 738.93,479.15 " fill="none" id="Course-to-EnrolmentLimits" style="stroke:#222222;stroke-width:1.0;"/><polygon fill="#222222" points="737.08,483.7,744.18,476.8744,738.9665,479.0695,736.7713,473.856,737.08,483.7" style="stroke:#222222;stroke-width:1.0;"/><text fill="#000000" font-family="sans-serif" font-size="20" lengthAdjust="spacing" textLength="33" x="760" y="448.74">has</text><text fill="#000000" font-family="sans-serif" font-size="20" lengthAdjust="spacing" textLength="11" x="727.5735" y="471.527">1</text></g><!--link Course to Code--><g id="link_Course_Code"><path codeLine="61" d="M852.17,371.14 C910.28,411.12 1001.84,474.12 1058.5,513.11 " fill="none" id="Course-to-Code" style="stroke:#222222;stroke-width:1.0;"/><polygon fill="#222222" points="1062.28,515.71,1057.1297,507.3151,1058.1598,512.8774,1052.5975,513.9074,1062.28,515.71" style="stroke:#222222;stroke-width:1.0;"/><text fill="#000000" font-family="sans-serif" font-size="20" lengthAdjust="spacing" textLength="134" x="973" y="448.74">is identified by</text><text fill="#000000" font-family="sans-serif" font-size="20" lengthAdjust="spacing" textLength="11" x="1043.7695" y="503.0592">1</text></g><!--link Enrolment to Course--><g id="link_Enrolment_Course"><path codeLine="63" d="M798,146.62 C798,179.72 798,225.2 798,262.81 " fill="none" id="Enrolment-to-Course" style="stroke:#222222;stroke-width:1.0;"/><polygon fill="#222222" points="798,267.74,802,258.74,798,262.74,794,258.74,798,267.74" style="stroke:#222222;stroke-width:1.0;"/><text fill="#000000" font-family="sans-serif" font-size="20" lengthAdjust="spacing" textLength="47" x="799" y="200.74">is for</text><text fill="#000000" font-family="sans-serif" font-size="20" lengthAdjust="spacing" textLength="11" x="786.4328" y="255.6924">1</text></g><!--SRC=[bLJBRjim4BppAnRAeG_KZmOz58PWmF6ZDH3OGHJqPA2WnBNCMk8A9DKs2VBlfILRbcGRINMHE3ipI-ukPRPIPLppDA5eYm84hdcUs1af6yWdXEi-UxUnDZE3NYzBkB9vcdGZIdjHmetf2CbZ9sRC77oW28oirJBCBSuZKeLHdssaGC0qiu_03s5JHrEq6nAcxNN3essiALTYJ0bf2576M2EDjAO_PUZgkdWOovo6nmYUx_CurXXpYyCXZ2dN1ZruPW2eh7H9IuWve4W63z8cMAtAQ62TlCAcIbEIEda9d-AtCfNMLFW4JQHbPYKfLZCMo5uOEw60xx__yUbgDljwywN_0Nxp94UWy1T6rXtW-OMTJVQAogNjG2fL-UP_TvalbAWoRbIfGdVAHkLSvdBjjBwlYOu98utEKupgeiheWkxonXwGHnlKZMtjiPh_7hdihiWYX6GjfK3hUeDX0EFRPJ2ThDJoRhfOgVdYvztzyjlzD0XMQZPVp8FlqqdRe3aDBOz3VukX-j_EbePl4zMFyLQ5U9tAzZtkT8RWVVRsvnY0D61td-98A1ZTxaUlQi40DjoSEDI3m46ZoKWP6RfBrw8sM-DIklbjKKwAVvPLlrrdDzM-J6T9HS7A368tMslfVfVX8sF7aMxkl2IlIRD_]--></g></svg>