<?xml version="1.0" encoding="UTF-8" standalone="no"?><svg xmlns="http://www.w3.org/2000/svg" xmlns:xlink="http://www.w3.org/1999/xlink" contentStyleType="text/css" height="1348px" preserveAspectRatio="none" style="width:2122px;height:1348px;background:#FFFFFF;" version="1.1" viewBox="0 0 2122 1348" width="2122px" zoomAndPan="magnify"><defs/><g><rect fill="#FFFFFF" height="1098.9994" style="stroke:#181818;stroke-width:1.0;" width="10" x="46" y="115.4799"/><rect fill="#FFFFFF" height="497.8797" style="stroke:#181818;stroke-width:1.0;" width="10" x="523.25" y="148.7199"/><rect fill="#FFFFFF" height="95.4799" style="stroke:#181818;stroke-width:1.0;" width="10" x="523.25" y="687.8396"/><rect fill="#FFFFFF" height="389.9198" style="stroke:#181818;stroke-width:1.0;" width="10" x="523.25" y="824.5595"/><rect fill="#FFFFFF" height="41.24" style="stroke:#181818;stroke-width:1.0;" width="10" x="951.5" y="189.9599"/><rect fill="#FFFFFF" height="332.9198" style="stroke:#181818;stroke-width:1.0;" width="10" x="951.5" y="272.4398"/><rect fill="#FFFFFF" height="307.4398" style="stroke:#181818;stroke-width:1.0;" width="10" x="951.5" y="865.7995"/><rect fill="#FFFFFF" height="250.4398" style="stroke:#181818;stroke-width:1.0;" width="10" x="1297.75" y="313.6798"/><rect fill="#FFFFFF" height="71.24" style="stroke:#181818;stroke-width:1.0;" width="10" x="1297.75" y="907.0395"/><rect fill="#FFFFFF" height="112.4799" style="stroke:#181818;stroke-width:1.0;" width="10" x="1297.75" y="1019.5194"/><rect fill="#FFFFFF" height="30" style="stroke:#181818;stroke-width:1.0;" width="10" x="1580" y="948.2794"/><rect fill="#FFFFFF" height="30" style="stroke:#181818;stroke-width:1.0;" width="10" x="1719.5" y="485.8797"/><rect fill="#FFFFFF" height="41.24" style="stroke:#181818;stroke-width:1.0;" width="10" x="2028.5" y="354.9198"/><rect fill="#FFFFFF" height="30" style="stroke:#181818;stroke-width:1.0;" width="10" x="2028.5" y="1060.7594"/><rect fill="none" height="112.7199" style="stroke:#000000;stroke-width:1.5;" width="593.75" x="1218.75" y="411.1598"/><line style="stroke:#181818;stroke-width:0.5;stroke-dasharray:5.0,5.0;" x1="51" x2="51" y1="105.4799" y2="1232.4793"/><line style="stroke:#181818;stroke-width:0.5;stroke-dasharray:5.0,5.0;" x1="527.75" x2="527.75" y1="105.4799" y2="1232.4793"/><line style="stroke:#181818;stroke-width:0.5;stroke-dasharray:5.0,5.0;" x1="956" x2="956" y1="105.4799" y2="1232.4793"/><line style="stroke:#181818;stroke-width:0.5;stroke-dasharray:5.0,5.0;" x1="1302.75" x2="1302.75" y1="105.4799" y2="1232.4793"/><line style="stroke:#181818;stroke-width:0.5;stroke-dasharray:5.0,5.0;" x1="1584.5" x2="1584.5" y1="105.4799" y2="1232.4793"/><line style="stroke:#181818;stroke-width:0.5;stroke-dasharray:5.0,5.0;" x1="1724.5" x2="1724.5" y1="105.4799" y2="1232.4793"/><line style="stroke:#181818;stroke-width:0.5;stroke-dasharray:5.0,5.0;" x1="1873.5" x2="1873.5" y1="105.4799" y2="1232.4793"/><line style="stroke:#181818;stroke-width:0.5;stroke-dasharray:5.0,5.0;" x1="2033.5" x2="2033.5" y1="105.4799" y2="1232.4793"/><text fill="#000000" font-family="sans-serif" font-size="20" lengthAdjust="spacing" textLength="86" x="5" y="99.62">Manager</text><ellipse cx="51" cy="26.74" fill="#E2E2F0" rx="8" ry="8" style="stroke:#181818;stroke-width:0.5;"/><path d="M51,34.74 L51,61.74 M38,42.74 L64,42.74 M51,61.74 L38,76.74 M51,61.74 L64,76.74 " fill="none" style="stroke:#181818;stroke-width:0.5;"/><text fill="#000000" font-family="sans-serif" font-size="20" lengthAdjust="spacing" textLength="86" x="5" y="1252.8593">Manager</text><ellipse cx="51" cy="1267.2193" fill="#E2E2F0" rx="8" ry="8" style="stroke:#181818;stroke-width:0.5;"/><path d="M51,1275.2193 L51,1302.2193 M38,1283.2193 L64,1283.2193 M51,1302.2193 L38,1317.2193 M51,1302.2193 L64,1317.2193 " fill="none" style="stroke:#181818;stroke-width:0.5;"/><rect fill="#E2E2F0" height="68.4799" rx="2.5" ry="2.5" style="stroke:#181818;stroke-width:0.5;" width="225" x="415.75" y="36"/><text fill="#000000" font-family="sans-serif" font-size="20" font-style="italic" lengthAdjust="spacing" textLength="134" x="461.25" y="64.38">«presentation»</text><text fill="#000000" font-family="sans-serif" font-size="20" lengthAdjust="spacing" textLength="211" x="422.75" y="91.62">ManageEnrolmentsUI</text><rect fill="#E2E2F0" height="68.4799" rx="2.5" ry="2.5" style="stroke:#181818;stroke-width:0.5;" width="225" x="415.75" y="1231.4793"/><text fill="#000000" font-family="sans-serif" font-size="20" font-style="italic" lengthAdjust="spacing" textLength="134" x="461.25" y="1259.8593">«presentation»</text><text fill="#000000" font-family="sans-serif" font-size="20" lengthAdjust="spacing" textLength="211" x="422.75" y="1287.0993">ManageEnrolmentsUI</text><rect fill="#E2E2F0" height="68.4799" rx="2.5" ry="2.5" style="stroke:#181818;stroke-width:0.5;" width="291" x="811" y="36"/><text fill="#000000" font-family="sans-serif" font-size="20" font-style="italic" lengthAdjust="spacing" textLength="120" x="896.5" y="64.38">«application»</text><text fill="#000000" font-family="sans-serif" font-size="20" lengthAdjust="spacing" textLength="277" x="818" y="91.62">ManageEnrolmentController</text><rect fill="#E2E2F0" height="68.4799" rx="2.5" ry="2.5" style="stroke:#181818;stroke-width:0.5;" width="291" x="811" y="1231.4793"/><text fill="#000000" font-family="sans-serif" font-size="20" font-style="italic" lengthAdjust="spacing" textLength="120" x="896.5" y="1259.8593">«application»</text><text fill="#000000" font-family="sans-serif" font-size="20" lengthAdjust="spacing" textLength="277" x="818" y="1287.0993">ManageEnrolmentController</text><rect fill="#E2E2F0" height="68.4799" rx="2.5" ry="2.5" style="stroke:#181818;stroke-width:0.5;" width="148" x="1228.75" y="36"/><text fill="#000000" font-family="sans-serif" font-size="20" font-style="italic" lengthAdjust="spacing" textLength="80" x="1262.75" y="64.38">«service»</text><text fill="#000000" font-family="sans-serif" font-size="20" lengthAdjust="spacing" textLength="134" x="1235.75" y="91.62">CourseService</text><rect fill="#E2E2F0" height="68.4799" rx="2.5" ry="2.5" style="stroke:#181818;stroke-width:0.5;" width="148" x="1228.75" y="1231.4793"/><text fill="#000000" font-family="sans-serif" font-size="20" font-style="italic" lengthAdjust="spacing" textLength="80" x="1262.75" y="1259.8593">«service»</text><text fill="#000000" font-family="sans-serif" font-size="20" lengthAdjust="spacing" textLength="134" x="1235.75" y="1287.0993">CourseService</text><rect fill="#E2E2F0" height="68.4799" rx="2.5" ry="2.5" style="stroke:#181818;stroke-width:0.5;" width="103" x="1533.5" y="36"/><text fill="#000000" font-family="sans-serif" font-size="20" font-style="italic" lengthAdjust="spacing" textLength="89" x="1540.5" y="64.38">«domain»</text><text fill="#000000" font-family="sans-serif" font-size="20" lengthAdjust="spacing" textLength="67" x="1551.5" y="91.62">Course</text><rect fill="#E2E2F0" height="68.4799" rx="2.5" ry="2.5" style="stroke:#181818;stroke-width:0.5;" width="103" x="1533.5" y="1231.4793"/><text fill="#000000" font-family="sans-serif" font-size="20" font-style="italic" lengthAdjust="spacing" textLength="89" x="1540.5" y="1259.8593">«domain»</text><text fill="#000000" font-family="sans-serif" font-size="20" lengthAdjust="spacing" textLength="67" x="1551.5" y="1287.0993">Course</text><rect fill="#E2E2F0" height="68.4799" rx="2.5" ry="2.5" style="stroke:#181818;stroke-width:0.5;" width="156" x="1646.5" y="36"/><text fill="#000000" font-family="sans-serif" font-size="20" font-style="italic" lengthAdjust="spacing" textLength="91" x="1679" y="64.38">«mapper»</text><text fill="#000000" font-family="sans-serif" font-size="20" lengthAdjust="spacing" textLength="142" x="1653.5" y="91.62">CourseMapper</text><rect fill="#E2E2F0" height="68.4799" rx="2.5" ry="2.5" style="stroke:#181818;stroke-width:0.5;" width="156" x="1646.5" y="1231.4793"/><text fill="#000000" font-family="sans-serif" font-size="20" font-style="italic" lengthAdjust="spacing" textLength="91" x="1679" y="1259.8593">«mapper»</text><text fill="#000000" font-family="sans-serif" font-size="20" lengthAdjust="spacing" textLength="142" x="1653.5" y="1287.0993">CourseMapper</text><rect fill="#E2E2F0" height="68.4799" rx="2.5" ry="2.5" style="stroke:#181818;stroke-width:0.5;" width="123" x="1812.5" y="36"/><text fill="#000000" font-family="sans-serif" font-size="20" font-style="italic" lengthAdjust="spacing" textLength="50" x="1849" y="64.38">«dto»</text><text fill="#000000" font-family="sans-serif" font-size="20" lengthAdjust="spacing" textLength="109" x="1819.5" y="91.62">CourseDTO</text><rect fill="#E2E2F0" height="68.4799" rx="2.5" ry="2.5" style="stroke:#181818;stroke-width:0.5;" width="123" x="1812.5" y="1231.4793"/><text fill="#000000" font-family="sans-serif" font-size="20" font-style="italic" lengthAdjust="spacing" textLength="50" x="1849" y="1259.8593">«dto»</text><text fill="#000000" font-family="sans-serif" font-size="20" lengthAdjust="spacing" textLength="109" x="1819.5" y="1287.0993">CourseDTO</text><text fill="#000000" font-family="sans-serif" font-size="20" font-style="italic" lengthAdjust="spacing" textLength="110" x="1975.5" y="72.38">«repository»</text><text fill="#000000" font-family="sans-serif" font-size="20" lengthAdjust="spacing" textLength="170" x="1945.5" y="99.62">CourseRepository</text><path d="M2015.5,15 C2015.5,5 2033.5,5 2033.5,5 C2033.5,5 2051.5,5 2051.5,15 L2051.5,41 C2051.5,51 2033.5,51 2033.5,51 C2033.5,51 2015.5,51 2015.5,41 L2015.5,15 " fill="#E2E2F0" style="stroke:#181818;stroke-width:1.5;"/><path d="M2015.5,15 C2015.5,25 2033.5,25 2033.5,25 C2033.5,25 2051.5,25 2051.5,15 " fill="none" style="stroke:#181818;stroke-width:1.5;"/><text fill="#000000" font-family="sans-serif" font-size="20" font-style="italic" lengthAdjust="spacing" textLength="110" x="1975.5" y="1252.8593">«repository»</text><text fill="#000000" font-family="sans-serif" font-size="20" lengthAdjust="spacing" textLength="170" x="1945.5" y="1280.0993">CourseRepository</text><path d="M2015.5,1295.9593 C2015.5,1285.9593 2033.5,1285.9593 2033.5,1285.9593 C2033.5,1285.9593 2051.5,1285.9593 2051.5,1295.9593 L2051.5,1321.9593 C2051.5,1331.9593 2033.5,1331.9593 2033.5,1331.9593 C2033.5,1331.9593 2015.5,1331.9593 2015.5,1321.9593 L2015.5,1295.9593 " fill="#E2E2F0" style="stroke:#181818;stroke-width:1.5;"/><path d="M2015.5,1295.9593 C2015.5,1305.9593 2033.5,1305.9593 2033.5,1305.9593 C2033.5,1305.9593 2051.5,1305.9593 2051.5,1295.9593 " fill="none" style="stroke:#181818;stroke-width:1.5;"/><rect fill="#FFFFFF" height="1098.9994" style="stroke:#181818;stroke-width:1.0;" width="10" x="46" y="115.4799"/><rect fill="#FFFFFF" height="497.8797" style="stroke:#181818;stroke-width:1.0;" width="10" x="523.25" y="148.7199"/><rect fill="#FFFFFF" height="95.4799" style="stroke:#181818;stroke-width:1.0;" width="10" x="523.25" y="687.8396"/><rect fill="#FFFFFF" height="389.9198" style="stroke:#181818;stroke-width:1.0;" width="10" x="523.25" y="824.5595"/><rect fill="#FFFFFF" height="41.24" style="stroke:#181818;stroke-width:1.0;" width="10" x="951.5" y="189.9599"/><rect fill="#FFFFFF" height="332.9198" style="stroke:#181818;stroke-width:1.0;" width="10" x="951.5" y="272.4398"/><rect fill="#FFFFFF" height="307.4398" style="stroke:#181818;stroke-width:1.0;" width="10" x="951.5" y="865.7995"/><rect fill="#FFFFFF" height="250.4398" style="stroke:#181818;stroke-width:1.0;" width="10" x="1297.75" y="313.6798"/><rect fill="#FFFFFF" height="71.24" style="stroke:#181818;stroke-width:1.0;" width="10" x="1297.75" y="907.0395"/><rect fill="#FFFFFF" height="112.4799" style="stroke:#181818;stroke-width:1.0;" width="10" x="1297.75" y="1019.5194"/><rect fill="#FFFFFF" height="30" style="stroke:#181818;stroke-width:1.0;" width="10" x="1580" y="948.2794"/><rect fill="#FFFFFF" height="30" style="stroke:#181818;stroke-width:1.0;" width="10" x="1719.5" y="485.8797"/><rect fill="#FFFFFF" height="41.24" style="stroke:#181818;stroke-width:1.0;" width="10" x="2028.5" y="354.9198"/><rect fill="#FFFFFF" height="30" style="stroke:#181818;stroke-width:1.0;" width="10" x="2028.5" y="1060.7594"/><polygon fill="#181818" points="511.25,144.7199,521.25,148.7199,511.25,152.7199,515.25,148.7199" style="stroke:#181818;stroke-width:1.0;"/><line style="stroke:#181818;stroke-width:1.0;" x1="56" x2="517.25" y1="148.7199" y2="148.7199"/><text fill="#000000" font-family="sans-serif" font-size="20" font-weight="bold" lengthAdjust="spacing" textLength="11.625" x="63" y="140.8599">1</text><text fill="#000000" font-family="sans-serif" font-size="20" lengthAdjust="spacing" textLength="403" x="78.625" y="140.8599">asks to list all the courses and their states</text><polygon fill="#181818" points="939.5,185.9599,949.5,189.9599,939.5,193.9599,943.5,189.9599" style="stroke:#181818;stroke-width:1.0;"/><line style="stroke:#181818;stroke-width:1.0;" x1="533.25" x2="945.5" y1="189.9599" y2="189.9599"/><text fill="#000000" font-family="sans-serif" font-size="20" font-weight="bold" lengthAdjust="spacing" textLength="11.625" x="540.25" y="182.0999">2</text><text fill="#000000" font-family="sans-serif" font-size="20" lengthAdjust="spacing" textLength="40" x="555.875" y="182.0999">new</text><polygon fill="#181818" points="1290.75,227.1999,1300.75,231.1999,1290.75,235.1999,1294.75,231.1999" style="stroke:#181818;stroke-width:1.0;"/><line style="stroke:#181818;stroke-width:1.0;" x1="956.5" x2="1296.75" y1="231.1999" y2="231.1999"/><text fill="#000000" font-family="sans-serif" font-size="20" font-weight="bold" lengthAdjust="spacing" textLength="11.625" x="963.5" y="223.3399">3</text><text fill="#000000" font-family="sans-serif" font-size="20" lengthAdjust="spacing" textLength="219" x="979.125" y="223.3399">new(courseRepository)</text><polygon fill="#181818" points="939.5,268.4398,949.5,272.4398,939.5,276.4398,943.5,272.4398" style="stroke:#181818;stroke-width:1.0;"/><line style="stroke:#181818;stroke-width:1.0;" x1="533.25" x2="945.5" y1="272.4398" y2="272.4398"/><text fill="#000000" font-family="sans-serif" font-size="20" font-weight="bold" lengthAdjust="spacing" textLength="11.625" x="540.25" y="264.5799">4</text><text fill="#000000" font-family="sans-serif" font-size="20" lengthAdjust="spacing" textLength="219" x="555.875" y="264.5799">listNotClosedCourses()</text><polygon fill="#181818" points="1285.75,309.6798,1295.75,313.6798,1285.75,317.6798,1289.75,313.6798" style="stroke:#181818;stroke-width:1.0;"/><line style="stroke:#181818;stroke-width:1.0;" x1="961.5" x2="1291.75" y1="313.6798" y2="313.6798"/><text fill="#000000" font-family="sans-serif" font-size="20" font-weight="bold" lengthAdjust="spacing" textLength="11.625" x="968.5" y="305.8198">5</text><text fill="#000000" font-family="sans-serif" font-size="20" lengthAdjust="spacing" textLength="219" x="984.125" y="305.8198">listNotClosedCourses()</text><polygon fill="#181818" points="2016.5,350.9198,2026.5,354.9198,2016.5,358.9198,2020.5,354.9198" style="stroke:#181818;stroke-width:1.0;"/><line style="stroke:#181818;stroke-width:1.0;" x1="1307.75" x2="2022.5" y1="354.9198" y2="354.9198"/><text fill="#000000" font-family="sans-serif" font-size="20" font-weight="bold" lengthAdjust="spacing" textLength="11.625" x="1314.75" y="347.0598">6</text><text fill="#000000" font-family="sans-serif" font-size="20" lengthAdjust="spacing" textLength="177" x="1330.375" y="347.0598">findAllNotClosed()</text><polygon fill="#181818" points="1318.75,392.1598,1308.75,396.1598,1318.75,400.1598,1314.75,396.1598" style="stroke:#181818;stroke-width:1.0;"/><line style="stroke:#181818;stroke-width:1.0;stroke-dasharray:2.0,2.0;" x1="1312.75" x2="2032.5" y1="396.1598" y2="396.1598"/><text fill="#000000" font-family="sans-serif" font-size="20" font-weight="bold" lengthAdjust="spacing" textLength="11.625" x="1324.75" y="388.2998">7</text><text fill="#000000" font-family="sans-serif" font-size="20" lengthAdjust="spacing" textLength="74" x="1340.375" y="388.2998">courses</text><path d="M1218.75,411.1598 L1309.25,411.1598 L1309.25,430.3997 L1299.25,440.3997 L1218.75,440.3997 L1218.75,411.1598 " fill="#EEEEEE" style="stroke:#000000;stroke-width:1.5;"/><rect fill="none" height="112.7199" style="stroke:#000000;stroke-width:1.5;" width="593.75" x="1218.75" y="411.1598"/><text fill="#000000" font-family="sans-serif" font-size="20" font-weight="bold" lengthAdjust="spacing" textLength="45.5" x="1233.75" y="433.5398">loop</text><text fill="#000000" font-family="sans-serif" font-size="20" font-weight="bold" lengthAdjust="spacing" textLength="169.375" x="1324.25" y="434.5398">[for each course]</text><polygon fill="#181818" points="1707.5,481.8797,1717.5,485.8797,1707.5,489.8797,1711.5,485.8797" style="stroke:#181818;stroke-width:1.0;"/><line style="stroke:#181818;stroke-width:1.0;" x1="1307.75" x2="1713.5" y1="485.8797" y2="485.8797"/><text fill="#000000" font-family="sans-serif" font-size="20" font-weight="bold" lengthAdjust="spacing" textLength="11.625" x="1314.75" y="478.0197">8</text><text fill="#000000" font-family="sans-serif" font-size="20" lengthAdjust="spacing" textLength="148" x="1330.375" y="478.0197">toDTO(courses)</text><polygon fill="#181818" points="972.5,560.1197,962.5,564.1197,972.5,568.1197,968.5,564.1197" style="stroke:#181818;stroke-width:1.0;"/><line style="stroke:#181818;stroke-width:1.0;stroke-dasharray:2.0,2.0;" x1="966.5" x2="1301.75" y1="564.1197" y2="564.1197"/><text fill="#000000" font-family="sans-serif" font-size="20" font-weight="bold" lengthAdjust="spacing" textLength="11.625" x="978.5" y="556.2597">9</text><text fill="#000000" font-family="sans-serif" font-size="20" lengthAdjust="spacing" textLength="74" x="994.125" y="556.2597">courses</text><polygon fill="#181818" points="544.25,601.3596,534.25,605.3596,544.25,609.3596,540.25,605.3596" style="stroke:#181818;stroke-width:1.0;"/><line style="stroke:#181818;stroke-width:1.0;stroke-dasharray:2.0,2.0;" x1="538.25" x2="955.5" y1="605.3596" y2="605.3596"/><text fill="#000000" font-family="sans-serif" font-size="20" font-weight="bold" lengthAdjust="spacing" textLength="23.25" x="550.25" y="597.4997">10</text><text fill="#000000" font-family="sans-serif" font-size="20" lengthAdjust="spacing" textLength="74" x="577.5" y="597.4997">courses</text><polygon fill="#181818" points="67,642.5996,57,646.5996,67,650.5996,63,646.5996" style="stroke:#181818;stroke-width:1.0;"/><line style="stroke:#181818;stroke-width:1.0;stroke-dasharray:2.0,2.0;" x1="61" x2="527.25" y1="646.5996" y2="646.5996"/><text fill="#000000" font-family="sans-serif" font-size="20" font-weight="bold" lengthAdjust="spacing" textLength="23.25" x="73" y="638.7396">11</text><text fill="#000000" font-family="sans-serif" font-size="20" lengthAdjust="spacing" textLength="312" x="100.25" y="638.7396">lists all the non finished courses</text><polygon fill="#181818" points="511.25,683.8396,521.25,687.8396,511.25,691.8396,515.25,687.8396" style="stroke:#181818;stroke-width:1.0;"/><line style="stroke:#181818;stroke-width:1.0;" x1="56" x2="517.25" y1="687.8396" y2="687.8396"/><text fill="#000000" font-family="sans-serif" font-size="20" font-weight="bold" lengthAdjust="spacing" textLength="23.25" x="63" y="679.9796">12</text><text fill="#000000" font-family="sans-serif" font-size="20" lengthAdjust="spacing" textLength="249" x="90.25" y="679.9796">selects the desired course</text><line style="stroke:#181818;stroke-width:1.0;" x1="533.25" x2="575.25" y1="729.0796" y2="729.0796"/><line style="stroke:#181818;stroke-width:1.0;" x1="575.25" x2="575.25" y1="729.0796" y2="742.0796"/><line style="stroke:#181818;stroke-width:1.0;" x1="534.25" x2="575.25" y1="742.0796" y2="742.0796"/><polygon fill="#181818" points="544.25,738.0796,534.25,742.0796,544.25,746.0796,540.25,742.0796" style="stroke:#181818;stroke-width:1.0;"/><text fill="#000000" font-family="sans-serif" font-size="20" font-weight="bold" lengthAdjust="spacing" textLength="23.25" x="540.25" y="721.2196">13</text><text fill="#000000" font-family="sans-serif" font-size="20" lengthAdjust="spacing" textLength="372" x="567.5" y="721.2196">selectedCourse = select(courses, index)</text><polygon fill="#181818" points="67,779.3195,57,783.3195,67,787.3195,63,783.3195" style="stroke:#181818;stroke-width:1.0;"/><line style="stroke:#181818;stroke-width:1.0;stroke-dasharray:2.0,2.0;" x1="61" x2="527.25" y1="783.3195" y2="783.3195"/><text fill="#000000" font-family="sans-serif" font-size="20" font-weight="bold" lengthAdjust="spacing" textLength="23.25" x="73" y="775.4596">14</text><text fill="#000000" font-family="sans-serif" font-size="20" lengthAdjust="spacing" textLength="212" x="100.25" y="775.4596">asks to confirm action</text><polygon fill="#181818" points="511.25,820.5595,521.25,824.5595,511.25,828.5595,515.25,824.5595" style="stroke:#181818;stroke-width:1.0;"/><line style="stroke:#181818;stroke-width:1.0;" x1="56" x2="517.25" y1="824.5595" y2="824.5595"/><text fill="#000000" font-family="sans-serif" font-size="20" font-weight="bold" lengthAdjust="spacing" textLength="23.25" x="63" y="816.6995">15</text><text fill="#000000" font-family="sans-serif" font-size="20" lengthAdjust="spacing" textLength="187" x="90.25" y="816.6995">confirms the action</text><polygon fill="#181818" points="939.5,861.7995,949.5,865.7995,939.5,869.7995,943.5,865.7995" style="stroke:#181818;stroke-width:1.0;"/><line style="stroke:#181818;stroke-width:1.0;" x1="533.25" x2="945.5" y1="865.7995" y2="865.7995"/><text fill="#000000" font-family="sans-serif" font-size="20" font-weight="bold" lengthAdjust="spacing" textLength="23.25" x="540.25" y="857.9395">16</text><text fill="#000000" font-family="sans-serif" font-size="20" lengthAdjust="spacing" textLength="372" x="567.5" y="857.9395">toggleEnrolmentState(selectedCourse)</text><polygon fill="#181818" points="1285.75,903.0395,1295.75,907.0395,1285.75,911.0395,1289.75,907.0395" style="stroke:#181818;stroke-width:1.0;"/><line style="stroke:#181818;stroke-width:1.0;" x1="961.5" x2="1291.75" y1="907.0395" y2="907.0395"/><text fill="#000000" font-family="sans-serif" font-size="20" font-weight="bold" lengthAdjust="spacing" textLength="23.25" x="968.5" y="899.1795">17</text><text fill="#000000" font-family="sans-serif" font-size="20" lengthAdjust="spacing" textLength="290" x="995.75" y="899.1795">toggleEnrolmentState(course)</text><polygon fill="#181818" points="1568,944.2794,1578,948.2794,1568,952.2794,1572,948.2794" style="stroke:#181818;stroke-width:1.0;"/><line style="stroke:#181818;stroke-width:1.0;" x1="1307.75" x2="1574" y1="948.2794" y2="948.2794"/><text fill="#000000" font-family="sans-serif" font-size="20" font-weight="bold" lengthAdjust="spacing" textLength="23.25" x="1314.75" y="940.4195">18</text><text fill="#000000" font-family="sans-serif" font-size="20" lengthAdjust="spacing" textLength="226" x="1342" y="940.4195">toggleEnrolmentState()</text><polygon fill="#181818" points="1285.75,1015.5194,1295.75,1019.5194,1285.75,1023.5194,1289.75,1019.5194" style="stroke:#181818;stroke-width:1.0;"/><line style="stroke:#181818;stroke-width:1.0;" x1="961.5" x2="1291.75" y1="1019.5194" y2="1019.5194"/><text fill="#000000" font-family="sans-serif" font-size="20" font-weight="bold" lengthAdjust="spacing" textLength="23.25" x="968.5" y="1011.6594">19</text><text fill="#000000" font-family="sans-serif" font-size="20" lengthAdjust="spacing" textLength="118" x="995.75" y="1011.6594">save(course)</text><polygon fill="#181818" points="2016.5,1056.7594,2026.5,1060.7594,2016.5,1064.7594,2020.5,1060.7594" style="stroke:#181818;stroke-width:1.0;"/><line style="stroke:#181818;stroke-width:1.0;" x1="1307.75" x2="2022.5" y1="1060.7594" y2="1060.7594"/><text fill="#000000" font-family="sans-serif" font-size="20" font-weight="bold" lengthAdjust="spacing" textLength="23.25" x="1314.75" y="1052.8994">20</text><text fill="#000000" font-family="sans-serif" font-size="20" lengthAdjust="spacing" textLength="200" x="1342" y="1052.8994">save(selectedCourse)</text><polygon fill="#181818" points="972.5,1127.9994,962.5,1131.9994,972.5,1135.9994,968.5,1131.9994" style="stroke:#181818;stroke-width:1.0;"/><line style="stroke:#181818;stroke-width:1.0;stroke-dasharray:2.0,2.0;" x1="966.5" x2="1301.75" y1="1131.9994" y2="1131.9994"/><text fill="#000000" font-family="sans-serif" font-size="20" font-weight="bold" lengthAdjust="spacing" textLength="23.25" x="978.5" y="1124.1394">21</text><text fill="#000000" font-family="sans-serif" font-size="20" lengthAdjust="spacing" textLength="107" x="1005.75" y="1124.1394">newCourse</text><polygon fill="#181818" points="544.25,1169.2393,534.25,1173.2393,544.25,1177.2393,540.25,1173.2393" style="stroke:#181818;stroke-width:1.0;"/><line style="stroke:#181818;stroke-width:1.0;stroke-dasharray:2.0,2.0;" x1="538.25" x2="955.5" y1="1173.2393" y2="1173.2393"/><text fill="#000000" font-family="sans-serif" font-size="20" font-weight="bold" lengthAdjust="spacing" textLength="23.25" x="550.25" y="1165.3794">22</text><text fill="#000000" font-family="sans-serif" font-size="20" lengthAdjust="spacing" textLength="107" x="577.5" y="1165.3794">newCourse</text><polygon fill="#181818" points="62,1210.4793,52,1214.4793,62,1218.4793,58,1214.4793" style="stroke:#181818;stroke-width:1.0;"/><line style="stroke:#181818;stroke-width:1.0;stroke-dasharray:2.0,2.0;" x1="56" x2="527.25" y1="1214.4793" y2="1214.4793"/><text fill="#000000" font-family="sans-serif" font-size="20" font-weight="bold" lengthAdjust="spacing" textLength="23.25" x="68" y="1206.6193">23</text><text fill="#000000" font-family="sans-serif" font-size="20" lengthAdjust="spacing" textLength="416" x="95.25" y="1206.6193">reports the success of the toggle operation</text><!--SRC=[XLHTZzem47pthrZT4qWzgUeZkY8XUfMGIdk2e-y-Pm4BnuwyXdxy-kuw2GbSe4-GzSnwFJCs7QolTDIb2-Q01HIurKUNlWQVrlOlmgUFIXzJyCVo3QDIsgGGuM6flTvXV01Di5JCJzROIllKBZtx65o9Fj5caL6R1JmzLH69QphPuAVJkxmv3y1_NRF9_7NrZHlegdBM3FBduHW9rnXFrc3ch5S_cK9rPHXUzsPK4KfjR_HSygxjMMSl32vpOHZyvVL7HlAlj4s1OQhGIRzfGgWnAwm2MHRoZo1Npz8pdcj2O9djIITaSTKI7gSYtuJ11u8Km5bAe9s3j4SmkIM1zeLysmZ40YDrFJOBfPZFNRAA4_3ugrkLcieB3139ylh8N4qwLWLUSYvxoapVGvgxG5ZKnwJH-Eus_wCmIWcI2QBH1BRM5pFdpfm-c15AK8_dzeqm_Ra5f5m85MmvnLpVDoW5qEma3azOPFQlqO36lDePCdlXprvFAI1hBsrLFM-doi0CSgfQXzRM0L0di8pKQ4Ldpttm8eQbFT_O0ReutiM6qA5XjZ0B91lFf8kCr7Rs6AqfyBafj89y03O2Vu_x0xRPDC5lRIopOC7V7gh1rLCruFVJD3AciDkvxcrOIy17bqFUZzfW0tDDx0LkVelKt-V2iM6Fsm58d-vlM2SymsuUJE9xbUQhlF7DhLdt4pS8ox9j5gsXyY359ZLqD0Q986ppPoqC17u4zP3B_TkX_W40]--></g></svg>