<?xml version="1.0" encoding="UTF-8" standalone="no"?><svg xmlns="http://www.w3.org/2000/svg" xmlns:xlink="http://www.w3.org/1999/xlink" contentStyleType="text/css" height="778px" preserveAspectRatio="none" style="width:1504px;height:778px;background:#FFFFFF;" version="1.1" viewBox="0 0 1504 778" width="1504px" zoomAndPan="magnify"><defs/><g><rect fill="#FFFFFF" height="528.1197" style="stroke:#181818;stroke-width:1.0;" width="10" x="46" y="115.4799"/><rect fill="#FFFFFF" height="247.4398" style="stroke:#181818;stroke-width:1.0;" width="10" x="786.25" y="148.7199"/><rect fill="#FFFFFF" height="123.7199" style="stroke:#181818;stroke-width:1.0;" width="10" x="786.25" y="437.3997"/><rect fill="#FFFFFF" height="41.24" style="stroke:#181818;stroke-width:1.0;" width="10" x="786.25" y="602.3596"/><rect fill="#FFFFFF" height="123.7199" style="stroke:#181818;stroke-width:1.0;" width="10" x="1054.25" y="231.1999"/><rect fill="#FFFFFF" height="41.24" style="stroke:#181818;stroke-width:1.0;" width="10" x="1054.25" y="478.6397"/><rect fill="#FFFFFF" height="41.24" style="stroke:#181818;stroke-width:1.0;" width="10" x="1410.75" y="272.4398"/><line style="stroke:#181818;stroke-width:0.5;stroke-dasharray:5.0,5.0;" x1="51" x2="51" y1="105.4799" y2="661.5996"/><line style="stroke:#181818;stroke-width:0.5;stroke-dasharray:5.0,5.0;" x1="790.75" x2="790.75" y1="105.4799" y2="661.5996"/><line style="stroke:#181818;stroke-width:0.5;stroke-dasharray:5.0,5.0;" x1="1058.75" x2="1058.75" y1="105.4799" y2="661.5996"/><line style="stroke:#181818;stroke-width:0.5;stroke-dasharray:5.0,5.0;" x1="1265.75" x2="1265.75" y1="105.4799" y2="661.5996"/><line style="stroke:#181818;stroke-width:0.5;stroke-dasharray:5.0,5.0;" x1="1415.75" x2="1415.75" y1="105.4799" y2="661.5996"/><text fill="#000000" font-family="sans-serif" font-size="20" lengthAdjust="spacing" textLength="86" x="5" y="99.62">Manager</text><ellipse cx="51" cy="26.74" fill="#E2E2F0" rx="8" ry="8" style="stroke:#181818;stroke-width:0.5;"/><path d="M51,34.74 L51,61.74 M38,42.74 L64,42.74 M51,61.74 L38,76.74 M51,61.74 L64,76.74 " fill="none" style="stroke:#181818;stroke-width:0.5;"/><text fill="#000000" font-family="sans-serif" font-size="20" lengthAdjust="spacing" textLength="86" x="5" y="681.9796">Manager</text><ellipse cx="51" cy="696.3396" fill="#E2E2F0" rx="8" ry="8" style="stroke:#181818;stroke-width:0.5;"/><path d="M51,704.3396 L51,731.3396 M38,712.3396 L64,712.3396 M51,731.3396 L38,746.3396 M51,731.3396 L64,746.3396 " fill="none" style="stroke:#181818;stroke-width:0.5;"/><rect fill="#E2E2F0" height="68.4799" rx="2.5" ry="2.5" style="stroke:#181818;stroke-width:0.5;" width="225" x="678.75" y="36"/><text fill="#000000" font-family="sans-serif" font-size="20" font-style="italic" lengthAdjust="spacing" textLength="134" x="724.25" y="64.38">«presentation»</text><text fill="#000000" font-family="sans-serif" font-size="20" lengthAdjust="spacing" textLength="211" x="685.75" y="91.62">ManageEnrolmentsUI</text><rect fill="#E2E2F0" height="68.4799" rx="2.5" ry="2.5" style="stroke:#181818;stroke-width:0.5;" width="225" x="678.75" y="660.5996"/><text fill="#000000" font-family="sans-serif" font-size="20" font-style="italic" lengthAdjust="spacing" textLength="134" x="724.25" y="688.9796">«presentation»</text><text fill="#000000" font-family="sans-serif" font-size="20" lengthAdjust="spacing" textLength="211" x="685.75" y="716.2196">ManageEnrolmentsUI</text><rect fill="#E2E2F0" height="68.4799" rx="2.5" ry="2.5" style="stroke:#181818;stroke-width:0.5;" width="291" x="913.75" y="36"/><text fill="#000000" font-family="sans-serif" font-size="20" font-style="italic" lengthAdjust="spacing" textLength="120" x="999.25" y="64.38">«application»</text><text fill="#000000" font-family="sans-serif" font-size="20" lengthAdjust="spacing" textLength="277" x="920.75" y="91.62">ManageEnrolmentController</text><rect fill="#E2E2F0" height="68.4799" rx="2.5" ry="2.5" style="stroke:#181818;stroke-width:0.5;" width="291" x="913.75" y="660.5996"/><text fill="#000000" font-family="sans-serif" font-size="20" font-style="italic" lengthAdjust="spacing" textLength="120" x="999.25" y="688.9796">«application»</text><text fill="#000000" font-family="sans-serif" font-size="20" lengthAdjust="spacing" textLength="277" x="920.75" y="716.2196">ManageEnrolmentController</text><rect fill="#E2E2F0" height="68.4799" rx="2.5" ry="2.5" style="stroke:#181818;stroke-width:0.5;" width="103" x="1214.75" y="36"/><text fill="#000000" font-family="sans-serif" font-size="20" font-style="italic" lengthAdjust="spacing" textLength="89" x="1221.75" y="64.38">«domain»</text><text fill="#000000" font-family="sans-serif" font-size="20" lengthAdjust="spacing" textLength="67" x="1232.75" y="91.62">Course</text><rect fill="#E2E2F0" height="68.4799" rx="2.5" ry="2.5" style="stroke:#181818;stroke-width:0.5;" width="103" x="1214.75" y="660.5996"/><text fill="#000000" font-family="sans-serif" font-size="20" font-style="italic" lengthAdjust="spacing" textLength="89" x="1221.75" y="688.9796">«domain»</text><text fill="#000000" font-family="sans-serif" font-size="20" lengthAdjust="spacing" textLength="67" x="1232.75" y="716.2196">Course</text><text fill="#000000" font-family="sans-serif" font-size="20" font-style="italic" lengthAdjust="spacing" textLength="110" x="1357.75" y="72.38">«repository»</text><text fill="#000000" font-family="sans-serif" font-size="20" lengthAdjust="spacing" textLength="170" x="1327.75" y="99.62">CourseRepository</text><path d="M1397.75,15 C1397.75,5 1415.75,5 1415.75,5 C1415.75,5 1433.75,5 1433.75,15 L1433.75,41 C1433.75,51 1415.75,51 1415.75,51 C1415.75,51 1397.75,51 1397.75,41 L1397.75,15 " fill="#E2E2F0" style="stroke:#181818;stroke-width:1.5;"/><path d="M1397.75,15 C1397.75,25 1415.75,25 1415.75,25 C1415.75,25 1433.75,25 1433.75,15 " fill="none" style="stroke:#181818;stroke-width:1.5;"/><text fill="#000000" font-family="sans-serif" font-size="20" font-style="italic" lengthAdjust="spacing" textLength="110" x="1357.75" y="681.9796">«repository»</text><text fill="#000000" font-family="sans-serif" font-size="20" lengthAdjust="spacing" textLength="170" x="1327.75" y="709.2196">CourseRepository</text><path d="M1397.75,725.0796 C1397.75,715.0796 1415.75,715.0796 1415.75,715.0796 C1415.75,715.0796 1433.75,715.0796 1433.75,725.0796 L1433.75,751.0796 C1433.75,761.0796 1415.75,761.0796 1415.75,761.0796 C1415.75,761.0796 1397.75,761.0796 1397.75,751.0796 L1397.75,725.0796 " fill="#E2E2F0" style="stroke:#181818;stroke-width:1.5;"/><path d="M1397.75,725.0796 C1397.75,735.0796 1415.75,735.0796 1415.75,735.0796 C1415.75,735.0796 1433.75,735.0796 1433.75,725.0796 " fill="none" style="stroke:#181818;stroke-width:1.5;"/><rect fill="#FFFFFF" height="528.1197" style="stroke:#181818;stroke-width:1.0;" width="10" x="46" y="115.4799"/><rect fill="#FFFFFF" height="247.4398" style="stroke:#181818;stroke-width:1.0;" width="10" x="786.25" y="148.7199"/><rect fill="#FFFFFF" height="123.7199" style="stroke:#181818;stroke-width:1.0;" width="10" x="786.25" y="437.3997"/><rect fill="#FFFFFF" height="41.24" style="stroke:#181818;stroke-width:1.0;" width="10" x="786.25" y="602.3596"/><rect fill="#FFFFFF" height="123.7199" style="stroke:#181818;stroke-width:1.0;" width="10" x="1054.25" y="231.1999"/><rect fill="#FFFFFF" height="41.24" style="stroke:#181818;stroke-width:1.0;" width="10" x="1054.25" y="478.6397"/><rect fill="#FFFFFF" height="41.24" style="stroke:#181818;stroke-width:1.0;" width="10" x="1410.75" y="272.4398"/><polygon fill="#181818" points="774.25,144.7199,784.25,148.7199,774.25,152.7199,778.25,148.7199" style="stroke:#181818;stroke-width:1.0;"/><line style="stroke:#181818;stroke-width:1.0;" x1="56" x2="780.25" y1="148.7199" y2="148.7199"/><text fill="#000000" font-family="sans-serif" font-size="20" font-weight="bold" lengthAdjust="spacing" textLength="11.625" x="63" y="140.8599">1</text><text fill="#000000" font-family="sans-serif" font-size="20" lengthAdjust="spacing" textLength="403" x="78.625" y="140.8599">asks to list all the courses and their states</text><polygon fill="#181818" points="1047.25,185.9599,1057.25,189.9599,1047.25,193.9599,1051.25,189.9599" style="stroke:#181818;stroke-width:1.0;"/><line style="stroke:#181818;stroke-width:1.0;" x1="796.25" x2="1053.25" y1="189.9599" y2="189.9599"/><text fill="#000000" font-family="sans-serif" font-size="20" font-weight="bold" lengthAdjust="spacing" textLength="11.625" x="803.25" y="182.0999">2</text><text fill="#000000" font-family="sans-serif" font-size="20" lengthAdjust="spacing" textLength="40" x="818.875" y="182.0999">new</text><polygon fill="#181818" points="1042.25,227.1999,1052.25,231.1999,1042.25,235.1999,1046.25,231.1999" style="stroke:#181818;stroke-width:1.0;"/><line style="stroke:#181818;stroke-width:1.0;" x1="796.25" x2="1048.25" y1="231.1999" y2="231.1999"/><text fill="#000000" font-family="sans-serif" font-size="20" font-weight="bold" lengthAdjust="spacing" textLength="11.625" x="803.25" y="223.3399">3</text><text fill="#000000" font-family="sans-serif" font-size="20" lengthAdjust="spacing" textLength="219" x="818.875" y="223.3399">listNotClosedCourses()</text><polygon fill="#181818" points="1398.75,268.4398,1408.75,272.4398,1398.75,276.4398,1402.75,272.4398" style="stroke:#181818;stroke-width:1.0;"/><line style="stroke:#181818;stroke-width:1.0;" x1="1064.25" x2="1404.75" y1="272.4398" y2="272.4398"/><text fill="#000000" font-family="sans-serif" font-size="20" font-weight="bold" lengthAdjust="spacing" textLength="11.625" x="1071.25" y="264.5799">4</text><text fill="#000000" font-family="sans-serif" font-size="20" lengthAdjust="spacing" textLength="205" x="1086.875" y="264.5799">notFinishedCourses()</text><polygon fill="#181818" points="1075.25,309.6798,1065.25,313.6798,1075.25,317.6798,1071.25,313.6798" style="stroke:#181818;stroke-width:1.0;"/><line style="stroke:#181818;stroke-width:1.0;stroke-dasharray:2.0,2.0;" x1="1069.25" x2="1414.75" y1="313.6798" y2="313.6798"/><text fill="#000000" font-family="sans-serif" font-size="20" font-weight="bold" lengthAdjust="spacing" textLength="11.625" x="1081.25" y="305.8198">5</text><text fill="#000000" font-family="sans-serif" font-size="20" lengthAdjust="spacing" textLength="74" x="1096.875" y="305.8198">courses</text><polygon fill="#181818" points="807.25,350.9198,797.25,354.9198,807.25,358.9198,803.25,354.9198" style="stroke:#181818;stroke-width:1.0;"/><line style="stroke:#181818;stroke-width:1.0;stroke-dasharray:2.0,2.0;" x1="801.25" x2="1058.25" y1="354.9198" y2="354.9198"/><text fill="#000000" font-family="sans-serif" font-size="20" font-weight="bold" lengthAdjust="spacing" textLength="11.625" x="813.25" y="347.0598">6</text><text fill="#000000" font-family="sans-serif" font-size="20" lengthAdjust="spacing" textLength="74" x="828.875" y="347.0598">courses</text><polygon fill="#181818" points="67,392.1598,57,396.1598,67,400.1598,63,396.1598" style="stroke:#181818;stroke-width:1.0;"/><line style="stroke:#181818;stroke-width:1.0;stroke-dasharray:2.0,2.0;" x1="61" x2="790.25" y1="396.1598" y2="396.1598"/><text fill="#000000" font-family="sans-serif" font-size="20" font-weight="bold" lengthAdjust="spacing" textLength="11.625" x="73" y="388.2998">7</text><text fill="#000000" font-family="sans-serif" font-size="20" lengthAdjust="spacing" textLength="312" x="88.625" y="388.2998">lists all the non finished courses</text><polygon fill="#181818" points="774.25,433.3997,784.25,437.3997,774.25,441.3997,778.25,437.3997" style="stroke:#181818;stroke-width:1.0;"/><line style="stroke:#181818;stroke-width:1.0;" x1="56" x2="780.25" y1="437.3997" y2="437.3997"/><text fill="#000000" font-family="sans-serif" font-size="20" font-weight="bold" lengthAdjust="spacing" textLength="11.625" x="63" y="429.5398">8</text><text fill="#000000" font-family="sans-serif" font-size="20" lengthAdjust="spacing" textLength="249" x="78.625" y="429.5398">selects the desired course</text><polygon fill="#181818" points="1042.25,474.6397,1052.25,478.6397,1042.25,482.6397,1046.25,478.6397" style="stroke:#181818;stroke-width:1.0;"/><line style="stroke:#181818;stroke-width:1.0;" x1="796.25" x2="1048.25" y1="478.6397" y2="478.6397"/><text fill="#000000" font-family="sans-serif" font-size="20" font-weight="bold" lengthAdjust="spacing" textLength="11.625" x="803.25" y="470.7797">9</text><text fill="#000000" font-family="sans-serif" font-size="20" lengthAdjust="spacing" textLength="98" x="818.875" y="470.7797">get(index)</text><polygon fill="#181818" points="807.25,515.8797,797.25,519.8797,807.25,523.8797,803.25,519.8797" style="stroke:#181818;stroke-width:1.0;"/><line style="stroke:#181818;stroke-width:1.0;stroke-dasharray:2.0,2.0;" x1="801.25" x2="1058.25" y1="519.8797" y2="519.8797"/><text fill="#000000" font-family="sans-serif" font-size="20" font-weight="bold" lengthAdjust="spacing" textLength="23.25" x="813.25" y="512.0197">10</text><text fill="#000000" font-family="sans-serif" font-size="20" lengthAdjust="spacing" textLength="146" x="840.5" y="512.0197">selectedCourse</text><polygon fill="#181818" points="67,557.1197,57,561.1197,67,565.1197,63,561.1197" style="stroke:#181818;stroke-width:1.0;"/><line style="stroke:#181818;stroke-width:1.0;stroke-dasharray:2.0,2.0;" x1="61" x2="790.25" y1="561.1197" y2="561.1197"/><text fill="#000000" font-family="sans-serif" font-size="20" font-weight="bold" lengthAdjust="spacing" textLength="23.25" x="73" y="553.2597">11</text><text fill="#000000" font-family="sans-serif" font-size="20" lengthAdjust="spacing" textLength="679" x="100.25" y="553.2597">asks the manager to select the desired action (open/close enrollments)</text><polygon fill="#181818" points="774.25,598.3596,784.25,602.3596,774.25,606.3596,778.25,602.3596" style="stroke:#181818;stroke-width:1.0;"/><line style="stroke:#181818;stroke-width:1.0;" x1="56" x2="780.25" y1="602.3596" y2="602.3596"/><text fill="#000000" font-family="sans-serif" font-size="20" font-weight="bold" lengthAdjust="spacing" textLength="23.25" x="63" y="594.4997">12</text><text fill="#000000" font-family="sans-serif" font-size="20" lengthAdjust="spacing" textLength="244" x="90.25" y="594.4997">selects the desired action</text><polygon fill="#181818" points="62,639.5996,52,643.5996,62,647.5996,58,643.5996" style="stroke:#181818;stroke-width:1.0;"/><line style="stroke:#181818;stroke-width:1.0;stroke-dasharray:2.0,2.0;" x1="56" x2="790.25" y1="643.5996" y2="643.5996"/><text fill="#000000" font-family="sans-serif" font-size="20" font-weight="bold" lengthAdjust="spacing" textLength="23.25" x="68" y="635.7396">13</text><text fill="#000000" font-family="sans-serif" font-size="20" lengthAdjust="spacing" textLength="348" x="95.25" y="635.7396">reports the success of the operation</text><!--SRC=[bLBBJiCm4BpxArQSsWC2SQnGBnL8bGX2XNx0rjvIguuTUHrUNyywJX-128bRrfcPdTbTtblVOCJQ1Rqd0uQssBfq7tnwjby4DzSAsnHyMsyeAeKwXGWN5NfyfNW1o50fuIUhROC-7NxT-HXSJJxnUjcXrakulMqYiRnXii7Fvt_o5c90FbtVPF6oUX01R1fdzIX_4Th8LC22DA56cq7AOC8DCa51hAW9R2N5PuQkxfu478zlcI0PxHicacIgWijvzZuJy9uX1N2M4w1pa7O4kfDaG6zoRIEmf2C-QQoNIWbVLBe8C_3qFdp8WeyXBLnWCiKZJwOdXGnJ7LOusQzeX7HllUNTA44mAkCkJprwdyhG05LK3mb7G5tlpgw0gjui7-Fxu67R6ncZv_2d2J8vqiBEJ4Diuv4q6DTWEA-K9jOR-XWVo53wC8rV2Su2b3MAWxgSS5vfOGzyPRw4cuI6_9NEgm7AfrbkUlg_a4NiLyZUKJw-s3EurPgO8MoxKhh7xjX_zZihA_KD]--></g></svg>