<?xml version="1.0" encoding="us-ascii" standalone="no"?><svg xmlns="http://www.w3.org/2000/svg" xmlns:xlink="http://www.w3.org/1999/xlink" contentStyleType="text/css" height="640.2px" preserveAspectRatio="none" style="width:1302px;height:640px;background:#FFFFFF;" version="1.1" viewBox="0 0 1302 640" width="1302.6px" zoomAndPan="magnify"><defs/><g><!--class ListFutureExamsUI--><g id="elem_ListFutureExamsUI"><rect codeLine="2" fill="#F1F1F1" height="28.8" id="ListFutureExamsUI" rx="1.5" ry="1.5" style="stroke:#181818;stroke-width:0.3;" width="89.4" x="422.1" y="4.2"/><ellipse cx="431.1" cy="13.8" fill="#ADD1B2" rx="6.6" ry="6.6" style="stroke:#181818;stroke-width:0.6;"/><path d="M432.7594,11.325 Q432.8531,11.1938 432.9656,11.1281 Q433.0781,11.0625 433.2094,11.0625 Q433.4344,11.0625 433.575,11.2219 Q433.7156,11.3719 433.7156,11.7375 L433.7156,12.6094 Q433.7156,12.975 433.575,13.1344 Q433.4344,13.2938 433.2094,13.2938 Q433.0031,13.2938 432.8812,13.1719 Q432.7594,13.0594 432.6937,12.75 Q432.6656,12.5344 432.5531,12.4219 Q432.3563,12.1969 431.9906,12.0656 Q431.625,11.9344 431.25,11.9344 Q430.7906,11.9344 430.4063,12.1313 Q430.0313,12.3281 429.7313,12.7781 Q429.4406,13.2281 429.4406,13.8469 L429.4406,14.5031 Q429.4406,15.2437 429.975,15.7406 Q430.5094,16.2281 431.4656,16.2281 Q432.0281,16.2281 432.4219,16.0781 Q432.6563,15.9844 432.9094,15.7219 Q433.0687,15.5625 433.1531,15.5156 Q433.2469,15.4688 433.3688,15.4688 Q433.5656,15.4688 433.7156,15.6281 Q433.875,15.7781 433.875,15.9844 Q433.875,16.1906 433.6688,16.4344 Q433.3688,16.7813 432.8906,16.9781 Q432.2438,17.25 431.4656,17.25 Q430.5563,17.25 429.8344,16.875 Q429.2438,16.575 428.8313,15.9375 Q428.4188,15.2906 428.4188,14.5219 L428.4188,13.8281 Q428.4188,13.0313 428.7844,12.3469 Q429.1594,11.6531 429.8156,11.2875 Q430.4719,10.9125 431.2125,10.9125 Q431.6531,10.9125 432.0375,11.0156 Q432.4313,11.1094 432.7594,11.325 Z " fill="#000000"/><text fill="#000000" font-family="sans-serif" font-size="8.4" lengthAdjust="spacing" textLength="70.2" x="439.5" y="17.2781">ListFutureExamsUI</text><line style="stroke:#181818;stroke-width:0.3;" x1="422.7" x2="510.9" y1="23.4" y2="23.4"/><line style="stroke:#181818;stroke-width:0.3;" x1="422.7" x2="510.9" y1="28.2" y2="28.2"/></g><!--class ListFutureExamsController--><g id="elem_ListFutureExamsController"><rect codeLine="6" fill="#F1F1F1" height="107.0086" id="ListFutureExamsController" rx="1.5" ry="1.5" style="stroke:#181818;stroke-width:0.3;" width="119.4" x="407.1" y="69"/><ellipse cx="416.1" cy="78.6" fill="#ADD1B2" rx="6.6" ry="6.6" style="stroke:#181818;stroke-width:0.6;"/><path d="M417.7594,76.125 Q417.8531,75.9937 417.9656,75.9281 Q418.0781,75.8625 418.2094,75.8625 Q418.4344,75.8625 418.575,76.0219 Q418.7156,76.1719 418.7156,76.5375 L418.7156,77.4094 Q418.7156,77.775 418.575,77.9344 Q418.4344,78.0938 418.2094,78.0938 Q418.0031,78.0938 417.8812,77.9719 Q417.7594,77.8594 417.6937,77.55 Q417.6656,77.3344 417.5531,77.2219 Q417.3563,76.9969 416.9906,76.8656 Q416.625,76.7344 416.25,76.7344 Q415.7906,76.7344 415.4063,76.9312 Q415.0313,77.1281 414.7313,77.5781 Q414.4406,78.0281 414.4406,78.6469 L414.4406,79.3031 Q414.4406,80.0438 414.975,80.5406 Q415.5094,81.0281 416.4656,81.0281 Q417.0281,81.0281 417.4219,80.8781 Q417.6563,80.7844 417.9094,80.5219 Q418.0687,80.3625 418.1531,80.3156 Q418.2469,80.2688 418.3688,80.2688 Q418.5656,80.2688 418.7156,80.4281 Q418.875,80.5781 418.875,80.7844 Q418.875,80.9906 418.6688,81.2344 Q418.3688,81.5813 417.8906,81.7781 Q417.2438,82.05 416.4656,82.05 Q415.5563,82.05 414.8344,81.675 Q414.2438,81.375 413.8313,80.7375 Q413.4188,80.0906 413.4188,79.3219 L413.4188,78.6281 Q413.4188,77.8313 413.7844,77.1469 Q414.1594,76.4531 414.8156,76.0875 Q415.4719,75.7125 416.2125,75.7125 Q416.6531,75.7125 417.0375,75.8156 Q417.4313,75.9094 417.7594,76.125 Z " fill="#000000"/><text fill="#000000" font-family="sans-serif" font-size="8.4" lengthAdjust="spacing" textLength="100.2" x="424.5" y="82.0781">ListFutureExamsController</text><line style="stroke:#181818;stroke-width:0.3;" x1="407.7" x2="525.9" y1="88.2" y2="88.2"/><rect fill="none" height="3.6" style="stroke:#C82930;stroke-width:0.6;" width="3.6" x="411.9" y="95.2863"/><text fill="#000000" font-family="sans-serif" font-size="8.4" lengthAdjust="spacing" textLength="78.6" x="419.1" y="99.6645">enrolmentRepository</text><rect fill="none" height="3.6" style="stroke:#C82930;stroke-width:0.6;" width="3.6" x="411.9" y="106.459"/><text fill="#000000" font-family="sans-serif" font-size="8.4" lengthAdjust="spacing" textLength="66.6" x="419.1" y="110.8371">courseRepository</text><rect fill="none" height="3.6" style="stroke:#C82930;stroke-width:0.6;" width="3.6" x="411.9" y="117.6316"/><text fill="#000000" font-family="sans-serif" font-size="8.4" lengthAdjust="spacing" textLength="69" x="419.1" y="122.0098">studentRepository</text><rect fill="none" height="3.6" style="stroke:#C82930;stroke-width:0.6;" width="3.6" x="411.9" y="128.8043"/><text fill="#000000" font-family="sans-serif" font-size="8.4" lengthAdjust="spacing" textLength="76.8" x="419.1" y="133.1824">authorizationService</text><rect fill="none" height="3.6" style="stroke:#C82930;stroke-width:0.6;" width="3.6" x="411.9" y="139.977"/><text fill="#000000" font-family="sans-serif" font-size="8.4" lengthAdjust="spacing" textLength="61.2" x="419.1" y="144.3551">examListService</text><line style="stroke:#181818;stroke-width:0.3;" x1="407.7" x2="525.9" y1="148.8633" y2="148.8633"/><ellipse cx="413.7" cy="157.7496" fill="#84BE84" rx="1.8" ry="1.8" style="stroke:#038048;stroke-width:0.6;"/><text fill="#000000" font-family="sans-serif" font-size="8.4" lengthAdjust="spacing" textLength="77.4" x="419.1" y="160.3277">listStudentCourses()</text><ellipse cx="413.7" cy="168.9223" fill="#84BE84" rx="1.8" ry="1.8" style="stroke:#038048;stroke-width:0.6;"/><text fill="#000000" font-family="sans-serif" font-size="8.4" lengthAdjust="spacing" textLength="96.6" x="419.1" y="171.5004">futureExams(courseDTO)</text></g><!--class StudentRepository--><g id="elem_StudentRepository"><rect codeLine="16" fill="#F1F1F1" height="39.9727" id="StudentRepository" rx="1.5" ry="1.5" style="stroke:#181818;stroke-width:0.3;" width="121.2" x="594.6" y="520.2"/><ellipse cx="617.91" cy="529.8" fill="#B4A7E5" rx="6.6" ry="6.6" style="stroke:#181818;stroke-width:0.6;"/><path d="M618.4819,527.7844 L618.4819,531.7781 L619.5131,531.7781 Q619.8788,531.7781 620.0381,531.9187 Q620.1975,532.0594 620.1975,532.2937 Q620.1975,532.5188 620.0381,532.6594 Q619.8788,532.8 619.5131,532.8 L616.4287,532.8 Q616.0631,532.8 615.9038,532.6594 Q615.7444,532.5188 615.7444,532.2844 Q615.7444,532.0594 615.9038,531.9187 Q616.0631,531.7781 616.4287,531.7781 L617.46,531.7781 L617.46,527.7844 L616.4287,527.7844 Q616.0631,527.7844 615.9038,527.6438 Q615.7444,527.5031 615.7444,527.2688 Q615.7444,527.0437 615.9038,526.9031 Q616.0631,526.7625 616.4287,526.7625 L619.5131,526.7625 Q619.8788,526.7625 620.0381,526.9031 Q620.1975,527.0437 620.1975,527.2688 Q620.1975,527.5031 620.0381,527.6438 Q619.8788,527.7844 619.5131,527.7844 L618.4819,527.7844 Z " fill="#000000"/><text fill="#000000" font-family="sans-serif" font-size="8.4" font-style="italic" lengthAdjust="spacing" textLength="70.2" x="629.49" y="533.2781">StudentRepository</text><line style="stroke:#181818;stroke-width:0.3;" x1="595.2" x2="715.2" y1="539.4" y2="539.4"/><line style="stroke:#181818;stroke-width:0.3;" x1="595.2" x2="715.2" y1="544.2" y2="544.2"/><ellipse cx="601.2" cy="553.0863" fill="#84BE84" rx="1.8" ry="1.8" style="stroke:#038048;stroke-width:0.6;"/><text fill="#000000" font-family="sans-serif" font-size="8.4" lengthAdjust="spacing" textLength="105.6" x="606.6" y="555.6645">findByUsername(username)</text></g><!--class InMemoryStudentRepository--><g id="elem_InMemoryStudentRepository"><rect codeLine="20" fill="#F1F1F1" height="39.9727" id="InMemoryStudentRepository" rx="1.5" ry="1.5" style="stroke:#181818;stroke-width:0.3;" width="126" x="592.2" y="596.4"/><ellipse cx="601.2" cy="606" fill="#ADD1B2" rx="6.6" ry="6.6" style="stroke:#181818;stroke-width:0.6;"/><path d="M602.8594,603.525 Q602.9531,603.3938 603.0656,603.3281 Q603.1781,603.2625 603.3094,603.2625 Q603.5344,603.2625 603.675,603.4219 Q603.8156,603.5719 603.8156,603.9375 L603.8156,604.8094 Q603.8156,605.175 603.675,605.3344 Q603.5344,605.4938 603.3094,605.4938 Q603.1031,605.4938 602.9812,605.3719 Q602.8594,605.2594 602.7937,604.95 Q602.7656,604.7344 602.6531,604.6219 Q602.4563,604.3969 602.0906,604.2656 Q601.725,604.1344 601.35,604.1344 Q600.8906,604.1344 600.5063,604.3313 Q600.1313,604.5281 599.8313,604.9781 Q599.5406,605.4281 599.5406,606.0469 L599.5406,606.7031 Q599.5406,607.4438 600.075,607.9406 Q600.6094,608.4281 601.5656,608.4281 Q602.1281,608.4281 602.5219,608.2781 Q602.7563,608.1844 603.0094,607.9219 Q603.1687,607.7625 603.2531,607.7156 Q603.3469,607.6687 603.4688,607.6687 Q603.6656,607.6687 603.8156,607.8281 Q603.975,607.9781 603.975,608.1844 Q603.975,608.3906 603.7688,608.6344 Q603.4688,608.9812 602.9906,609.1781 Q602.3438,609.45 601.5656,609.45 Q600.6563,609.45 599.9344,609.075 Q599.3438,608.775 598.9313,608.1375 Q598.5188,607.4906 598.5188,606.7219 L598.5188,606.0281 Q598.5188,605.2312 598.8844,604.5469 Q599.2594,603.8531 599.9156,603.4875 Q600.5719,603.1125 601.3125,603.1125 Q601.7531,603.1125 602.1375,603.2156 Q602.5313,603.3094 602.8594,603.525 Z " fill="#000000"/><text fill="#000000" font-family="sans-serif" font-size="8.4" lengthAdjust="spacing" textLength="106.8" x="609.6" y="609.4781">InMemoryStudentRepository</text><line style="stroke:#181818;stroke-width:0.3;" x1="592.8" x2="717.6" y1="615.6" y2="615.6"/><line style="stroke:#181818;stroke-width:0.3;" x1="592.8" x2="717.6" y1="620.4" y2="620.4"/><ellipse cx="598.8" cy="629.2863" fill="#84BE84" rx="1.8" ry="1.8" style="stroke:#038048;stroke-width:0.6;"/><text fill="#000000" font-family="sans-serif" font-size="8.4" lengthAdjust="spacing" textLength="105.6" x="604.2" y="631.8645">findByUsername(username)</text></g><!--class JpaStudentRepository--><g id="elem_JpaStudentRepository"><rect codeLine="24" fill="#F1F1F1" height="39.9727" id="JpaStudentRepository" rx="1.5" ry="1.5" style="stroke:#181818;stroke-width:0.3;" width="121.2" x="739.2" y="596.4"/><ellipse cx="756.57" cy="606" fill="#ADD1B2" rx="6.6" ry="6.6" style="stroke:#181818;stroke-width:0.6;"/><path d="M758.2294,603.525 Q758.3231,603.3938 758.4356,603.3281 Q758.5481,603.2625 758.6794,603.2625 Q758.9044,603.2625 759.045,603.4219 Q759.1856,603.5719 759.1856,603.9375 L759.1856,604.8094 Q759.1856,605.175 759.045,605.3344 Q758.9044,605.4938 758.6794,605.4938 Q758.4731,605.4938 758.3513,605.3719 Q758.2294,605.2594 758.1638,604.95 Q758.1356,604.7344 758.0231,604.6219 Q757.8263,604.3969 757.4606,604.2656 Q757.095,604.1344 756.72,604.1344 Q756.2606,604.1344 755.8763,604.3313 Q755.5013,604.5281 755.2013,604.9781 Q754.9106,605.4281 754.9106,606.0469 L754.9106,606.7031 Q754.9106,607.4438 755.445,607.9406 Q755.9794,608.4281 756.9356,608.4281 Q757.4981,608.4281 757.8919,608.2781 Q758.1263,608.1844 758.3794,607.9219 Q758.5388,607.7625 758.6231,607.7156 Q758.7169,607.6687 758.8388,607.6687 Q759.0356,607.6687 759.1856,607.8281 Q759.345,607.9781 759.345,608.1844 Q759.345,608.3906 759.1388,608.6344 Q758.8388,608.9812 758.3606,609.1781 Q757.7138,609.45 756.9356,609.45 Q756.0263,609.45 755.3044,609.075 Q754.7138,608.775 754.3013,608.1375 Q753.8888,607.4906 753.8888,606.7219 L753.8888,606.0281 Q753.8888,605.2312 754.2544,604.5469 Q754.6294,603.8531 755.2856,603.4875 Q755.9419,603.1125 756.6825,603.1125 Q757.1231,603.1125 757.5075,603.2156 Q757.9013,603.3094 758.2294,603.525 Z " fill="#000000"/><text fill="#000000" font-family="sans-serif" font-size="8.4" lengthAdjust="spacing" textLength="83.4" x="766.83" y="609.4781">JpaStudentRepository</text><line style="stroke:#181818;stroke-width:0.3;" x1="739.8" x2="859.8" y1="615.6" y2="615.6"/><line style="stroke:#181818;stroke-width:0.3;" x1="739.8" x2="859.8" y1="620.4" y2="620.4"/><ellipse cx="745.8" cy="629.2863" fill="#84BE84" rx="1.8" ry="1.8" style="stroke:#038048;stroke-width:0.6;"/><text fill="#000000" font-family="sans-serif" font-size="8.4" lengthAdjust="spacing" textLength="105.6" x="751.2" y="631.8645">findByUsername(username)</text></g><!--class Course--><g id="elem_Course"><rect codeLine="28" fill="#F1F1F1" height="118.1812" id="Course" rx="1.5" ry="1.5" style="stroke:#181818;stroke-width:0.3;" width="99.6" x="84" y="211.8"/><ellipse cx="117.45" cy="221.4" fill="#ADD1B2" rx="6.6" ry="6.6" style="stroke:#181818;stroke-width:0.6;"/><path d="M119.1094,218.925 Q119.2031,218.7938 119.3156,218.7281 Q119.4281,218.6625 119.5594,218.6625 Q119.7844,218.6625 119.925,218.8219 Q120.0656,218.9719 120.0656,219.3375 L120.0656,220.2094 Q120.0656,220.575 119.925,220.7344 Q119.7844,220.8937 119.5594,220.8937 Q119.3531,220.8937 119.2312,220.7719 Q119.1094,220.6594 119.0437,220.35 Q119.0156,220.1344 118.9031,220.0219 Q118.7063,219.7969 118.3406,219.6656 Q117.975,219.5344 117.6,219.5344 Q117.1406,219.5344 116.7563,219.7313 Q116.3813,219.9281 116.0813,220.3781 Q115.7906,220.8281 115.7906,221.4469 L115.7906,222.1031 Q115.7906,222.8438 116.325,223.3406 Q116.8594,223.8281 117.8156,223.8281 Q118.3781,223.8281 118.7719,223.6781 Q119.0063,223.5844 119.2594,223.3219 Q119.4187,223.1625 119.5031,223.1156 Q119.5969,223.0688 119.7188,223.0688 Q119.9156,223.0688 120.0656,223.2281 Q120.225,223.3781 120.225,223.5844 Q120.225,223.7906 120.0188,224.0344 Q119.7188,224.3813 119.2406,224.5781 Q118.5938,224.85 117.8156,224.85 Q116.9063,224.85 116.1844,224.475 Q115.5938,224.175 115.1812,223.5375 Q114.7688,222.8906 114.7688,222.1219 L114.7688,221.4281 Q114.7688,220.6313 115.1344,219.9469 Q115.5094,219.2531 116.1656,218.8875 Q116.8219,218.5125 117.5625,218.5125 Q118.0031,218.5125 118.3875,218.6156 Q118.7813,218.7094 119.1094,218.925 Z " fill="#000000"/><text fill="#000000" font-family="sans-serif" font-size="8.4" lengthAdjust="spacing" textLength="27.6" x="129.75" y="224.8781">Course</text><line style="stroke:#181818;stroke-width:0.3;" x1="84.6" x2="183" y1="231" y2="231"/><rect fill="none" height="3.6" style="stroke:#C82930;stroke-width:0.6;" width="3.6" x="88.8" y="238.0863"/><text fill="#000000" font-family="sans-serif" font-size="8.4" lengthAdjust="spacing" textLength="18.6" x="96" y="242.4645">code</text><rect fill="none" height="3.6" style="stroke:#C82930;stroke-width:0.6;" width="3.6" x="88.8" y="249.259"/><text fill="#000000" font-family="sans-serif" font-size="8.4" lengthAdjust="spacing" textLength="13.2" x="96" y="253.6371">title</text><rect fill="none" height="3.6" style="stroke:#C82930;stroke-width:0.6;" width="3.6" x="88.8" y="260.4316"/><text fill="#000000" font-family="sans-serif" font-size="8.4" lengthAdjust="spacing" textLength="41.4" x="96" y="264.8098">description</text><rect fill="none" height="3.6" style="stroke:#C82930;stroke-width:0.6;" width="3.6" x="88.8" y="271.6043"/><text fill="#000000" font-family="sans-serif" font-size="8.4" lengthAdjust="spacing" textLength="59.4" x="96" y="275.9824">enrolmentLimits</text><rect fill="none" height="3.6" style="stroke:#C82930;stroke-width:0.6;" width="3.6" x="88.8" y="282.777"/><text fill="#000000" font-family="sans-serif" font-size="8.4" lengthAdjust="spacing" textLength="45.6" x="96" y="287.1551">courseState</text><rect fill="none" height="3.6" style="stroke:#C82930;stroke-width:0.6;" width="3.6" x="88.8" y="293.9496"/><text fill="#000000" font-family="sans-serif" font-size="8.4" lengthAdjust="spacing" textLength="84" x="96" y="298.3277">courseEnrolmentState</text><rect fill="none" height="3.6" style="stroke:#C82930;stroke-width:0.6;" width="3.6" x="88.8" y="305.1223"/><text fill="#000000" font-family="sans-serif" font-size="8.4" lengthAdjust="spacing" textLength="36.6" x="96" y="309.5004">createdAt</text><line style="stroke:#181818;stroke-width:0.3;" x1="84.6" x2="183" y1="314.0086" y2="314.0086"/><ellipse cx="90.6" cy="322.8949" fill="#84BE84" rx="1.8" ry="1.8" style="stroke:#038048;stroke-width:0.6;"/><text fill="#000000" font-family="sans-serif" font-size="8.4" lengthAdjust="spacing" textLength="26.4" x="96" y="325.473">toDto()</text></g><!--class CourseDTO--><g id="elem_CourseDTO"><rect codeLine="39" fill="#F1F1F1" height="107.0086" id="CourseDTO" rx="1.5" ry="1.5" style="stroke:#181818;stroke-width:0.3;" width="99.6" x="204.6" y="217.5"/><ellipse cx="229.26" cy="227.1" fill="#ADD1B2" rx="6.6" ry="6.6" style="stroke:#181818;stroke-width:0.6;"/><path d="M230.9194,224.625 Q231.0131,224.4938 231.1256,224.4281 Q231.2381,224.3625 231.3694,224.3625 Q231.5944,224.3625 231.735,224.5219 Q231.8756,224.6719 231.8756,225.0375 L231.8756,225.9094 Q231.8756,226.275 231.735,226.4344 Q231.5944,226.5938 231.3694,226.5938 Q231.1631,226.5938 231.0413,226.4719 Q230.9194,226.3594 230.8538,226.05 Q230.8256,225.8344 230.7131,225.7219 Q230.5163,225.4969 230.1506,225.3656 Q229.785,225.2344 229.41,225.2344 Q228.9506,225.2344 228.5663,225.4313 Q228.1913,225.6281 227.8913,226.0781 Q227.6006,226.5281 227.6006,227.1469 L227.6006,227.8031 Q227.6006,228.5438 228.135,229.0406 Q228.6694,229.5281 229.6256,229.5281 Q230.1881,229.5281 230.5819,229.3781 Q230.8163,229.2844 231.0694,229.0219 Q231.2288,228.8625 231.3131,228.8156 Q231.4069,228.7687 231.5288,228.7687 Q231.7256,228.7687 231.8756,228.9281 Q232.035,229.0781 232.035,229.2844 Q232.035,229.4906 231.8288,229.7344 Q231.5288,230.0812 231.0506,230.2781 Q230.4038,230.55 229.6256,230.55 Q228.7163,230.55 227.9944,230.175 Q227.4038,229.875 226.9913,229.2375 Q226.5788,228.5906 226.5788,227.8219 L226.5788,227.1281 Q226.5788,226.3312 226.9444,225.6469 Q227.3194,224.9531 227.9756,224.5875 Q228.6319,224.2125 229.3725,224.2125 Q229.8131,224.2125 230.1975,224.3156 Q230.5913,224.4094 230.9194,224.625 Z " fill="#000000"/><text fill="#000000" font-family="sans-serif" font-size="8.4" lengthAdjust="spacing" textLength="45.6" x="241.14" y="230.5781">CourseDTO</text><line style="stroke:#181818;stroke-width:0.3;" x1="205.2" x2="303.6" y1="236.7" y2="236.7"/><rect fill="none" height="3.6" style="stroke:#C82930;stroke-width:0.6;" width="3.6" x="209.4" y="243.7863"/><text fill="#000000" font-family="sans-serif" font-size="8.4" lengthAdjust="spacing" textLength="18.6" x="216.6" y="248.1645">code</text><rect fill="none" height="3.6" style="stroke:#C82930;stroke-width:0.6;" width="3.6" x="209.4" y="254.959"/><text fill="#000000" font-family="sans-serif" font-size="8.4" lengthAdjust="spacing" textLength="13.2" x="216.6" y="259.3371">title</text><rect fill="none" height="3.6" style="stroke:#C82930;stroke-width:0.6;" width="3.6" x="209.4" y="266.1316"/><text fill="#000000" font-family="sans-serif" font-size="8.4" lengthAdjust="spacing" textLength="41.4" x="216.6" y="270.5098">description</text><rect fill="none" height="3.6" style="stroke:#C82930;stroke-width:0.6;" width="3.6" x="209.4" y="277.3043"/><text fill="#000000" font-family="sans-serif" font-size="8.4" lengthAdjust="spacing" textLength="59.4" x="216.6" y="281.6824">enrolmentLimits</text><rect fill="none" height="3.6" style="stroke:#C82930;stroke-width:0.6;" width="3.6" x="209.4" y="288.477"/><text fill="#000000" font-family="sans-serif" font-size="8.4" lengthAdjust="spacing" textLength="45.6" x="216.6" y="292.8551">courseState</text><rect fill="none" height="3.6" style="stroke:#C82930;stroke-width:0.6;" width="3.6" x="209.4" y="299.6496"/><text fill="#000000" font-family="sans-serif" font-size="8.4" lengthAdjust="spacing" textLength="84" x="216.6" y="304.0277">courseEnrolmentState</text><rect fill="none" height="3.6" style="stroke:#C82930;stroke-width:0.6;" width="3.6" x="209.4" y="310.8223"/><text fill="#000000" font-family="sans-serif" font-size="8.4" lengthAdjust="spacing" textLength="36.6" x="216.6" y="315.2004">createdAt</text><line style="stroke:#181818;stroke-width:0.3;" x1="205.2" x2="303.6" y1="319.7086" y2="319.7086"/></g><!--class CourseRepository--><g id="elem_CourseRepository"><rect codeLine="49" fill="#F1F1F1" height="39.9727" id="CourseRepository" rx="1.5" ry="1.5" style="stroke:#181818;stroke-width:0.3;" width="87.6" x="477" y="520.2"/><ellipse cx="486" cy="529.8" fill="#B4A7E5" rx="6.6" ry="6.6" style="stroke:#181818;stroke-width:0.6;"/><path d="M486.5719,527.7844 L486.5719,531.7781 L487.6031,531.7781 Q487.9688,531.7781 488.1281,531.9187 Q488.2875,532.0594 488.2875,532.2937 Q488.2875,532.5188 488.1281,532.6594 Q487.9688,532.8 487.6031,532.8 L484.5187,532.8 Q484.1531,532.8 483.9938,532.6594 Q483.8344,532.5188 483.8344,532.2844 Q483.8344,532.0594 483.9938,531.9187 Q484.1531,531.7781 484.5187,531.7781 L485.55,531.7781 L485.55,527.7844 L484.5187,527.7844 Q484.1531,527.7844 483.9938,527.6438 Q483.8344,527.5031 483.8344,527.2688 Q483.8344,527.0437 483.9938,526.9031 Q484.1531,526.7625 484.5187,526.7625 L487.6031,526.7625 Q487.9688,526.7625 488.1281,526.9031 Q488.2875,527.0437 488.2875,527.2688 Q488.2875,527.5031 488.1281,527.6438 Q487.9688,527.7844 487.6031,527.7844 L486.5719,527.7844 Z " fill="#000000"/><text fill="#000000" font-family="sans-serif" font-size="8.4" font-style="italic" lengthAdjust="spacing" textLength="68.4" x="494.4" y="533.2781">CourseRepository</text><line style="stroke:#181818;stroke-width:0.3;" x1="477.6" x2="564" y1="539.4" y2="539.4"/><line style="stroke:#181818;stroke-width:0.3;" x1="477.6" x2="564" y1="544.2" y2="544.2"/><ellipse cx="483.6" cy="553.0863" fill="#84BE84" rx="1.8" ry="1.8" style="stroke:#038048;stroke-width:0.6;"/><text fill="#000000" font-family="sans-serif" font-size="8.4" lengthAdjust="spacing" textLength="68.4" x="489" y="555.6645">findByCode(code)</text></g><!--class InMemoryCourseRepository--><g id="elem_InMemoryCourseRepository"><rect codeLine="53" fill="#F1F1F1" height="39.9727" id="InMemoryCourseRepository" rx="1.5" ry="1.5" style="stroke:#181818;stroke-width:0.3;" width="124.2" x="324.9" y="596.4"/><ellipse cx="333.9" cy="606" fill="#ADD1B2" rx="6.6" ry="6.6" style="stroke:#181818;stroke-width:0.6;"/><path d="M335.5594,603.525 Q335.6531,603.3938 335.7656,603.3281 Q335.8781,603.2625 336.0094,603.2625 Q336.2344,603.2625 336.375,603.4219 Q336.5156,603.5719 336.5156,603.9375 L336.5156,604.8094 Q336.5156,605.175 336.375,605.3344 Q336.2344,605.4938 336.0094,605.4938 Q335.8031,605.4938 335.6813,605.3719 Q335.5594,605.2594 335.4938,604.95 Q335.4656,604.7344 335.3531,604.6219 Q335.1563,604.3969 334.7906,604.2656 Q334.425,604.1344 334.05,604.1344 Q333.5906,604.1344 333.2063,604.3313 Q332.8313,604.5281 332.5313,604.9781 Q332.2406,605.4281 332.2406,606.0469 L332.2406,606.7031 Q332.2406,607.4438 332.775,607.9406 Q333.3094,608.4281 334.2656,608.4281 Q334.8281,608.4281 335.2219,608.2781 Q335.4563,608.1844 335.7094,607.9219 Q335.8688,607.7625 335.9531,607.7156 Q336.0469,607.6687 336.1688,607.6687 Q336.3656,607.6687 336.5156,607.8281 Q336.675,607.9781 336.675,608.1844 Q336.675,608.3906 336.4688,608.6344 Q336.1688,608.9812 335.6906,609.1781 Q335.0438,609.45 334.2656,609.45 Q333.3563,609.45 332.6344,609.075 Q332.0438,608.775 331.6312,608.1375 Q331.2188,607.4906 331.2188,606.7219 L331.2188,606.0281 Q331.2188,605.2312 331.5844,604.5469 Q331.9594,603.8531 332.6156,603.4875 Q333.2719,603.1125 334.0125,603.1125 Q334.4531,603.1125 334.8375,603.2156 Q335.2313,603.3094 335.5594,603.525 Z " fill="#000000"/><text fill="#000000" font-family="sans-serif" font-size="8.4" lengthAdjust="spacing" textLength="105" x="342.3" y="609.4781">InMemoryCourseRepository</text><line style="stroke:#181818;stroke-width:0.3;" x1="325.5" x2="448.5" y1="615.6" y2="615.6"/><line style="stroke:#181818;stroke-width:0.3;" x1="325.5" x2="448.5" y1="620.4" y2="620.4"/><ellipse cx="331.5" cy="629.2863" fill="#84BE84" rx="1.8" ry="1.8" style="stroke:#038048;stroke-width:0.6;"/><text fill="#000000" font-family="sans-serif" font-size="8.4" lengthAdjust="spacing" textLength="68.4" x="336.9" y="631.8645">findByCode(code)</text></g><!--class JpaCourseRepository--><g id="elem_JpaCourseRepository"><rect codeLine="57" fill="#F1F1F1" height="39.9727" id="JpaCourseRepository" rx="1.5" ry="1.5" style="stroke:#181818;stroke-width:0.3;" width="100.8" x="470.4" y="596.4"/><ellipse cx="479.4" cy="606" fill="#ADD1B2" rx="6.6" ry="6.6" style="stroke:#181818;stroke-width:0.6;"/><path d="M481.0594,603.525 Q481.1531,603.3938 481.2656,603.3281 Q481.3781,603.2625 481.5094,603.2625 Q481.7344,603.2625 481.875,603.4219 Q482.0156,603.5719 482.0156,603.9375 L482.0156,604.8094 Q482.0156,605.175 481.875,605.3344 Q481.7344,605.4938 481.5094,605.4938 Q481.3031,605.4938 481.1813,605.3719 Q481.0594,605.2594 480.9938,604.95 Q480.9656,604.7344 480.8531,604.6219 Q480.6563,604.3969 480.2906,604.2656 Q479.925,604.1344 479.55,604.1344 Q479.0906,604.1344 478.7062,604.3313 Q478.3312,604.5281 478.0313,604.9781 Q477.7406,605.4281 477.7406,606.0469 L477.7406,606.7031 Q477.7406,607.4438 478.275,607.9406 Q478.8094,608.4281 479.7656,608.4281 Q480.3281,608.4281 480.7219,608.2781 Q480.9562,608.1844 481.2094,607.9219 Q481.3688,607.7625 481.4531,607.7156 Q481.5469,607.6687 481.6688,607.6687 Q481.8656,607.6687 482.0156,607.8281 Q482.175,607.9781 482.175,608.1844 Q482.175,608.3906 481.9688,608.6344 Q481.6688,608.9812 481.1906,609.1781 Q480.5438,609.45 479.7656,609.45 Q478.8563,609.45 478.1344,609.075 Q477.5438,608.775 477.1312,608.1375 Q476.7188,607.4906 476.7188,606.7219 L476.7188,606.0281 Q476.7188,605.2312 477.0844,604.5469 Q477.4594,603.8531 478.1156,603.4875 Q478.7719,603.1125 479.5125,603.1125 Q479.9531,603.1125 480.3375,603.2156 Q480.7313,603.3094 481.0594,603.525 Z " fill="#000000"/><text fill="#000000" font-family="sans-serif" font-size="8.4" lengthAdjust="spacing" textLength="81.6" x="487.8" y="609.4781">JpaCourseRepository</text><line style="stroke:#181818;stroke-width:0.3;" x1="471" x2="570.6" y1="615.6" y2="615.6"/><line style="stroke:#181818;stroke-width:0.3;" x1="471" x2="570.6" y1="620.4" y2="620.4"/><ellipse cx="477" cy="629.2863" fill="#84BE84" rx="1.8" ry="1.8" style="stroke:#038048;stroke-width:0.6;"/><text fill="#000000" font-family="sans-serif" font-size="8.4" lengthAdjust="spacing" textLength="68.4" x="482.4" y="631.8645">findByCode(code)</text></g><!--class Exam--><g id="elem_Exam"><rect codeLine="62" fill="#F1F1F1" height="118.1812" id="Exam" rx="1.5" ry="1.5" style="stroke:#181818;stroke-width:0.3;" width="57" x="253.5" y="366"/><ellipse cx="270.33" cy="375.6" fill="#ADD1B2" rx="6.6" ry="6.6" style="stroke:#181818;stroke-width:0.6;"/><path d="M271.9894,373.125 Q272.0831,372.9938 272.1956,372.9281 Q272.3081,372.8625 272.4394,372.8625 Q272.6644,372.8625 272.805,373.0219 Q272.9456,373.1719 272.9456,373.5375 L272.9456,374.4094 Q272.9456,374.775 272.805,374.9344 Q272.6644,375.0938 272.4394,375.0938 Q272.2331,375.0938 272.1113,374.9719 Q271.9894,374.8594 271.9238,374.55 Q271.8956,374.3344 271.7831,374.2219 Q271.5863,373.9969 271.2206,373.8656 Q270.855,373.7344 270.48,373.7344 Q270.0206,373.7344 269.6363,373.9313 Q269.2613,374.1281 268.9613,374.5781 Q268.6706,375.0281 268.6706,375.6469 L268.6706,376.3031 Q268.6706,377.0438 269.205,377.5406 Q269.7394,378.0281 270.6956,378.0281 Q271.2581,378.0281 271.6519,377.8781 Q271.8863,377.7844 272.1394,377.5219 Q272.2988,377.3625 272.3831,377.3156 Q272.4769,377.2688 272.5988,377.2688 Q272.7956,377.2688 272.9456,377.4281 Q273.105,377.5781 273.105,377.7844 Q273.105,377.9906 272.8988,378.2344 Q272.5988,378.5813 272.1206,378.7781 Q271.4738,379.05 270.6956,379.05 Q269.7863,379.05 269.0644,378.675 Q268.4738,378.375 268.0613,377.7375 Q267.6488,377.0906 267.6488,376.3219 L267.6488,375.6281 Q267.6488,374.8313 268.0144,374.1469 Q268.3894,373.4531 269.0456,373.0875 Q269.7019,372.7125 270.4425,372.7125 Q270.8831,372.7125 271.2675,372.8156 Q271.6613,372.9094 271.9894,373.125 Z " fill="#000000"/><text fill="#000000" font-family="sans-serif" font-size="8.4" lengthAdjust="spacing" textLength="20.4" x="280.47" y="379.0781">Exam</text><line style="stroke:#181818;stroke-width:0.3;" x1="254.1" x2="309.9" y1="385.2" y2="385.2"/><rect fill="none" height="3.6" style="stroke:#C82930;stroke-width:0.6;" width="3.6" x="258.3" y="392.2863"/><text fill="#000000" font-family="sans-serif" font-size="8.4" lengthAdjust="spacing" textLength="18.6" x="265.5" y="396.6645">code</text><rect fill="none" height="3.6" style="stroke:#C82930;stroke-width:0.6;" width="3.6" x="258.3" y="403.459"/><text fill="#000000" font-family="sans-serif" font-size="8.4" lengthAdjust="spacing" textLength="25.8" x="265.5" y="407.8371">course</text><rect fill="none" height="3.6" style="stroke:#C82930;stroke-width:0.6;" width="3.6" x="258.3" y="414.6316"/><text fill="#000000" font-family="sans-serif" font-size="8.4" lengthAdjust="spacing" textLength="28.8" x="265.5" y="419.0098">teacher</text><rect fill="none" height="3.6" style="stroke:#C82930;stroke-width:0.6;" width="3.6" x="258.3" y="425.8043"/><text fill="#000000" font-family="sans-serif" font-size="8.4" lengthAdjust="spacing" textLength="32.4" x="265.5" y="430.1824">identifier</text><rect fill="none" height="3.6" style="stroke:#C82930;stroke-width:0.6;" width="3.6" x="258.3" y="436.977"/><text fill="#000000" font-family="sans-serif" font-size="8.4" lengthAdjust="spacing" textLength="13.2" x="265.5" y="441.3551">title</text><rect fill="none" height="3.6" style="stroke:#C82930;stroke-width:0.6;" width="3.6" x="258.3" y="448.1496"/><text fill="#000000" font-family="sans-serif" font-size="8.4" lengthAdjust="spacing" textLength="41.4" x="265.5" y="452.5277">description</text><rect fill="none" height="3.6" style="stroke:#C82930;stroke-width:0.6;" width="3.6" x="258.3" y="459.3223"/><text fill="#000000" font-family="sans-serif" font-size="8.4" lengthAdjust="spacing" textLength="18.6" x="265.5" y="463.7004">state</text><line style="stroke:#181818;stroke-width:0.3;" x1="254.1" x2="309.9" y1="468.2086" y2="468.2086"/><ellipse cx="260.1" cy="477.0949" fill="#84BE84" rx="1.8" ry="1.8" style="stroke:#038048;stroke-width:0.6;"/><text fill="#000000" font-family="sans-serif" font-size="8.4" lengthAdjust="spacing" textLength="26.4" x="265.5" y="479.673">toDto()</text></g><!--class ExamDTO--><g id="elem_ExamDTO"><rect codeLine="73" fill="#F1F1F1" height="107.0086" id="ExamDTO" rx="1.5" ry="1.5" style="stroke:#181818;stroke-width:0.3;" width="57.6" x="331.8" y="371.7"/><ellipse cx="340.8" cy="381.3" fill="#ADD1B2" rx="6.6" ry="6.6" style="stroke:#181818;stroke-width:0.6;"/><path d="M342.4594,378.825 Q342.5531,378.6937 342.6656,378.6281 Q342.7781,378.5625 342.9094,378.5625 Q343.1344,378.5625 343.275,378.7219 Q343.4156,378.8719 343.4156,379.2375 L343.4156,380.1094 Q343.4156,380.475 343.275,380.6344 Q343.1344,380.7938 342.9094,380.7938 Q342.7031,380.7938 342.5813,380.6719 Q342.4594,380.5594 342.3938,380.25 Q342.3656,380.0344 342.2531,379.9219 Q342.0563,379.6969 341.6906,379.5656 Q341.325,379.4344 340.95,379.4344 Q340.4906,379.4344 340.1063,379.6312 Q339.7313,379.8281 339.4313,380.2781 Q339.1406,380.7281 339.1406,381.3469 L339.1406,382.0031 Q339.1406,382.7438 339.675,383.2406 Q340.2094,383.7281 341.1656,383.7281 Q341.7281,383.7281 342.1219,383.5781 Q342.3563,383.4844 342.6094,383.2219 Q342.7688,383.0625 342.8531,383.0156 Q342.9469,382.9688 343.0687,382.9688 Q343.2656,382.9688 343.4156,383.1281 Q343.575,383.2781 343.575,383.4844 Q343.575,383.6906 343.3688,383.9344 Q343.0687,384.2813 342.5906,384.4781 Q341.9437,384.75 341.1656,384.75 Q340.2562,384.75 339.5344,384.375 Q338.9437,384.075 338.5313,383.4375 Q338.1188,382.7906 338.1188,382.0219 L338.1188,381.3281 Q338.1188,380.5313 338.4844,379.8469 Q338.8594,379.1531 339.5156,378.7875 Q340.1719,378.4125 340.9125,378.4125 Q341.3531,378.4125 341.7375,378.5156 Q342.1312,378.6094 342.4594,378.825 Z " fill="#000000"/><text fill="#000000" font-family="sans-serif" font-size="8.4" lengthAdjust="spacing" textLength="38.4" x="349.2" y="384.7781">ExamDTO</text><line style="stroke:#181818;stroke-width:0.3;" x1="332.4" x2="388.8" y1="390.9" y2="390.9"/><rect fill="none" height="3.6" style="stroke:#C82930;stroke-width:0.6;" width="3.6" x="336.6" y="397.9863"/><text fill="#000000" font-family="sans-serif" font-size="8.4" lengthAdjust="spacing" textLength="18.6" x="343.8" y="402.3645">code</text><rect fill="none" height="3.6" style="stroke:#C82930;stroke-width:0.6;" width="3.6" x="336.6" y="409.159"/><text fill="#000000" font-family="sans-serif" font-size="8.4" lengthAdjust="spacing" textLength="25.8" x="343.8" y="413.5371">course</text><rect fill="none" height="3.6" style="stroke:#C82930;stroke-width:0.6;" width="3.6" x="336.6" y="420.3316"/><text fill="#000000" font-family="sans-serif" font-size="8.4" lengthAdjust="spacing" textLength="28.8" x="343.8" y="424.7098">teacher</text><rect fill="none" height="3.6" style="stroke:#C82930;stroke-width:0.6;" width="3.6" x="336.6" y="431.5043"/><text fill="#000000" font-family="sans-serif" font-size="8.4" lengthAdjust="spacing" textLength="32.4" x="343.8" y="435.8824">identifier</text><rect fill="none" height="3.6" style="stroke:#C82930;stroke-width:0.6;" width="3.6" x="336.6" y="442.677"/><text fill="#000000" font-family="sans-serif" font-size="8.4" lengthAdjust="spacing" textLength="13.2" x="343.8" y="447.0551">title</text><rect fill="none" height="3.6" style="stroke:#C82930;stroke-width:0.6;" width="3.6" x="336.6" y="453.8496"/><text fill="#000000" font-family="sans-serif" font-size="8.4" lengthAdjust="spacing" textLength="41.4" x="343.8" y="458.2277">description</text><rect fill="none" height="3.6" style="stroke:#C82930;stroke-width:0.6;" width="3.6" x="336.6" y="465.0223"/><text fill="#000000" font-family="sans-serif" font-size="8.4" lengthAdjust="spacing" textLength="18.6" x="343.8" y="469.4004">state</text><line style="stroke:#181818;stroke-width:0.3;" x1="332.4" x2="388.8" y1="473.9086" y2="473.9086"/></g><!--class ExamListService--><g id="elem_ExamListService"><rect codeLine="83" fill="#F1F1F1" height="51.1453" id="ExamListService" rx="1.5" ry="1.5" style="stroke:#181818;stroke-width:0.3;" width="144" x="325.2" y="245.4"/><ellipse cx="363.75" cy="255" fill="#ADD1B2" rx="6.6" ry="6.6" style="stroke:#181818;stroke-width:0.6;"/><path d="M365.4094,252.525 Q365.5031,252.3937 365.6156,252.3281 Q365.7281,252.2625 365.8594,252.2625 Q366.0844,252.2625 366.225,252.4219 Q366.3656,252.5719 366.3656,252.9375 L366.3656,253.8094 Q366.3656,254.175 366.225,254.3344 Q366.0844,254.4937 365.8594,254.4937 Q365.6531,254.4937 365.5313,254.3719 Q365.4094,254.2594 365.3438,253.95 Q365.3156,253.7344 365.2031,253.6219 Q365.0062,253.3969 364.6406,253.2656 Q364.275,253.1344 363.9,253.1344 Q363.4406,253.1344 363.0563,253.3312 Q362.6813,253.5281 362.3812,253.9781 Q362.0906,254.4281 362.0906,255.0469 L362.0906,255.7031 Q362.0906,256.4437 362.625,256.9406 Q363.1594,257.4281 364.1156,257.4281 Q364.6781,257.4281 365.0719,257.2781 Q365.3063,257.1844 365.5594,256.9219 Q365.7188,256.7625 365.8031,256.7156 Q365.8969,256.6688 366.0188,256.6688 Q366.2156,256.6688 366.3656,256.8281 Q366.525,256.9781 366.525,257.1844 Q366.525,257.3906 366.3187,257.6344 Q366.0188,257.9813 365.5406,258.1781 Q364.8938,258.45 364.1156,258.45 Q363.2063,258.45 362.4844,258.075 Q361.8938,257.775 361.4813,257.1375 Q361.0687,256.4906 361.0687,255.7219 L361.0687,255.0281 Q361.0687,254.2313 361.4344,253.5469 Q361.8094,252.8531 362.4656,252.4875 Q363.1219,252.1125 363.8625,252.1125 Q364.3031,252.1125 364.6875,252.2156 Q365.0813,252.3094 365.4094,252.525 Z " fill="#000000"/><text fill="#000000" font-family="sans-serif" font-size="8.4" lengthAdjust="spacing" textLength="61.8" x="376.05" y="258.4781">ExamListService</text><line style="stroke:#181818;stroke-width:0.3;" x1="325.8" x2="468.6" y1="264.6" y2="264.6"/><rect fill="none" height="3.6" style="stroke:#C82930;stroke-width:0.6;" width="3.6" x="330" y="271.6863"/><text fill="#000000" font-family="sans-serif" font-size="8.4" lengthAdjust="spacing" textLength="60.6" x="337.2" y="276.0645">examRepository</text><line style="stroke:#181818;stroke-width:0.3;" x1="325.8" x2="468.6" y1="280.5727" y2="280.5727"/><ellipse cx="331.8" cy="289.459" fill="#84BE84" rx="1.8" ry="1.8" style="stroke:#038048;stroke-width:0.6;"/><text fill="#000000" font-family="sans-serif" font-size="8.4" lengthAdjust="spacing" textLength="128.4" x="337.2" y="292.0371">listAllFutureCourseExams(course)</text></g><!--class StudentService--><g id="elem_StudentService"><rect codeLine="88" fill="#F1F1F1" height="51.1453" id="StudentService" rx="1.5" ry="1.5" style="stroke:#181818;stroke-width:0.3;" width="130.2" x="590.1" y="399.6"/><ellipse cx="623.85" cy="409.2" fill="#ADD1B2" rx="6.6" ry="6.6" style="stroke:#181818;stroke-width:0.6;"/><path d="M625.5094,406.725 Q625.6031,406.5938 625.7156,406.5281 Q625.8281,406.4625 625.9594,406.4625 Q626.1844,406.4625 626.325,406.6219 Q626.4656,406.7719 626.4656,407.1375 L626.4656,408.0094 Q626.4656,408.375 626.325,408.5344 Q626.1844,408.6937 625.9594,408.6937 Q625.7531,408.6937 625.6313,408.5719 Q625.5094,408.4594 625.4438,408.15 Q625.4156,407.9344 625.3031,407.8219 Q625.1062,407.5969 624.7406,407.4656 Q624.375,407.3344 624,407.3344 Q623.5406,407.3344 623.1563,407.5313 Q622.7813,407.7281 622.4812,408.1781 Q622.1906,408.6281 622.1906,409.2469 L622.1906,409.9031 Q622.1906,410.6438 622.725,411.1406 Q623.2594,411.6281 624.2156,411.6281 Q624.7781,411.6281 625.1719,411.4781 Q625.4063,411.3844 625.6594,411.1219 Q625.8188,410.9625 625.9031,410.9156 Q625.9969,410.8688 626.1188,410.8688 Q626.3156,410.8688 626.4656,411.0281 Q626.625,411.1781 626.625,411.3844 Q626.625,411.5906 626.4187,411.8344 Q626.1188,412.1813 625.6406,412.3781 Q624.9938,412.65 624.2156,412.65 Q623.3063,412.65 622.5844,412.275 Q621.9938,411.975 621.5813,411.3375 Q621.1687,410.6906 621.1687,409.9219 L621.1687,409.2281 Q621.1687,408.4313 621.5344,407.7469 Q621.9094,407.0531 622.5656,406.6875 Q623.2219,406.3125 623.9625,406.3125 Q624.4031,406.3125 624.7875,406.4156 Q625.1813,406.5094 625.5094,406.725 Z " fill="#000000"/><text fill="#000000" font-family="sans-serif" font-size="8.4" lengthAdjust="spacing" textLength="57.6" x="636.15" y="412.6781">StudentService</text><line style="stroke:#181818;stroke-width:0.3;" x1="590.7" x2="719.7" y1="418.8" y2="418.8"/><rect fill="none" height="3.6" style="stroke:#C82930;stroke-width:0.6;" width="3.6" x="594.9" y="425.8863"/><text fill="#000000" font-family="sans-serif" font-size="8.4" lengthAdjust="spacing" textLength="69" x="602.1" y="430.2645">studentRepository</text><line style="stroke:#181818;stroke-width:0.3;" x1="590.7" x2="719.7" y1="434.7727" y2="434.7727"/><ellipse cx="596.7" cy="443.659" fill="#84BE84" rx="1.8" ry="1.8" style="stroke:#038048;stroke-width:0.6;"/><text fill="#000000" font-family="sans-serif" font-size="8.4" lengthAdjust="spacing" textLength="114.6" x="602.1" y="446.2371">findStudentUserByUsername()</text></g><!--class ListEnrolmentService--><g id="elem_ListEnrolmentService"><rect codeLine="93" fill="#F1F1F1" height="51.1453" id="ListEnrolmentService" rx="1.5" ry="1.5" style="stroke:#181818;stroke-width:0.3;" width="162" x="784.2" y="399.6"/><ellipse cx="822.75" cy="409.2" fill="#ADD1B2" rx="6.6" ry="6.6" style="stroke:#181818;stroke-width:0.6;"/><path d="M824.4094,406.725 Q824.5031,406.5938 824.6156,406.5281 Q824.7281,406.4625 824.8594,406.4625 Q825.0844,406.4625 825.225,406.6219 Q825.3656,406.7719 825.3656,407.1375 L825.3656,408.0094 Q825.3656,408.375 825.225,408.5344 Q825.0844,408.6937 824.8594,408.6937 Q824.6531,408.6937 824.5313,408.5719 Q824.4094,408.4594 824.3438,408.15 Q824.3156,407.9344 824.2031,407.8219 Q824.0063,407.5969 823.6406,407.4656 Q823.275,407.3344 822.9,407.3344 Q822.4406,407.3344 822.0563,407.5313 Q821.6813,407.7281 821.3813,408.1781 Q821.0906,408.6281 821.0906,409.2469 L821.0906,409.9031 Q821.0906,410.6438 821.625,411.1406 Q822.1594,411.6281 823.1156,411.6281 Q823.6781,411.6281 824.0719,411.4781 Q824.3063,411.3844 824.5594,411.1219 Q824.7188,410.9625 824.8031,410.9156 Q824.8969,410.8688 825.0188,410.8688 Q825.2156,410.8688 825.3656,411.0281 Q825.525,411.1781 825.525,411.3844 Q825.525,411.5906 825.3188,411.8344 Q825.0188,412.1813 824.5406,412.3781 Q823.8938,412.65 823.1156,412.65 Q822.2063,412.65 821.4844,412.275 Q820.8938,411.975 820.4812,411.3375 Q820.0688,410.6906 820.0688,409.9219 L820.0688,409.2281 Q820.0688,408.4313 820.4344,407.7469 Q820.8094,407.0531 821.4656,406.6875 Q822.1219,406.3125 822.8625,406.3125 Q823.3031,406.3125 823.6875,406.4156 Q824.0813,406.5094 824.4094,406.725 Z " fill="#000000"/><text fill="#000000" font-family="sans-serif" font-size="8.4" lengthAdjust="spacing" textLength="79.8" x="835.05" y="412.6781">ListEnrolmentService</text><line style="stroke:#181818;stroke-width:0.3;" x1="784.8" x2="945.6" y1="418.8" y2="418.8"/><rect fill="none" height="3.6" style="stroke:#C82930;stroke-width:0.6;" width="3.6" x="789" y="425.8863"/><text fill="#000000" font-family="sans-serif" font-size="8.4" lengthAdjust="spacing" textLength="78.6" x="796.2" y="430.2645">enrolmentRepository</text><line style="stroke:#181818;stroke-width:0.3;" x1="784.8" x2="945.6" y1="434.7727" y2="434.7727"/><ellipse cx="790.8" cy="443.659" fill="#84BE84" rx="1.8" ry="1.8" style="stroke:#038048;stroke-width:0.6;"/><text fill="#000000" font-family="sans-serif" font-size="8.4" lengthAdjust="spacing" textLength="146.4" x="796.2" y="446.2371">findByStudentMecanographicNumber()</text></g><!--class ExamRepository--><g id="elem_ExamRepository"><rect codeLine="98" fill="#F1F1F1" height="39.9727" id="ExamRepository" rx="1.5" ry="1.5" style="stroke:#181818;stroke-width:0.3;" width="147.6" x="234.6" y="520.2"/><ellipse cx="275.25" cy="529.8" fill="#B4A7E5" rx="6.6" ry="6.6" style="stroke:#181818;stroke-width:0.6;"/><path d="M275.8219,527.7844 L275.8219,531.7781 L276.8531,531.7781 Q277.2188,531.7781 277.3781,531.9187 Q277.5375,532.0594 277.5375,532.2937 Q277.5375,532.5188 277.3781,532.6594 Q277.2188,532.8 276.8531,532.8 L273.7688,532.8 Q273.4031,532.8 273.2438,532.6594 Q273.0844,532.5188 273.0844,532.2844 Q273.0844,532.0594 273.2438,531.9187 Q273.4031,531.7781 273.7688,531.7781 L274.8,531.7781 L274.8,527.7844 L273.7688,527.7844 Q273.4031,527.7844 273.2438,527.6438 Q273.0844,527.5031 273.0844,527.2688 Q273.0844,527.0437 273.2438,526.9031 Q273.4031,526.7625 273.7688,526.7625 L276.8531,526.7625 Q277.2188,526.7625 277.3781,526.9031 Q277.5375,527.0437 277.5375,527.2688 Q277.5375,527.5031 277.3781,527.6438 Q277.2188,527.7844 276.8531,527.7844 L275.8219,527.7844 Z " fill="#000000"/><text fill="#000000" font-family="sans-serif" font-size="8.4" font-style="italic" lengthAdjust="spacing" textLength="61.2" x="287.55" y="533.2781">ExamRepository</text><line style="stroke:#181818;stroke-width:0.3;" x1="235.2" x2="381.6" y1="539.4" y2="539.4"/><line style="stroke:#181818;stroke-width:0.3;" x1="235.2" x2="381.6" y1="544.2" y2="544.2"/><ellipse cx="241.2" cy="553.0863" fill="#84BE84" rx="1.8" ry="1.8" style="stroke:#038048;stroke-width:0.6;"/><text fill="#000000" font-family="sans-serif" font-size="8.4" lengthAdjust="spacing" textLength="132" x="246.6" y="555.6645">findAllFutureCourseExams(course)</text></g><!--class InMemoryExamRepository--><g id="elem_InMemoryExamRepository"><rect codeLine="103" fill="#F1F1F1" height="39.9727" id="InMemoryExamRepository" rx="1.5" ry="1.5" style="stroke:#181818;stroke-width:0.3;" width="139.2" x="4.2" y="596.4"/><ellipse cx="23.19" cy="606" fill="#ADD1B2" rx="6.6" ry="6.6" style="stroke:#181818;stroke-width:0.6;"/><path d="M24.8494,603.525 Q24.9431,603.3938 25.0556,603.3281 Q25.1681,603.2625 25.2994,603.2625 Q25.5244,603.2625 25.665,603.4219 Q25.8056,603.5719 25.8056,603.9375 L25.8056,604.8094 Q25.8056,605.175 25.665,605.3344 Q25.5244,605.4938 25.2994,605.4938 Q25.0931,605.4938 24.9712,605.3719 Q24.8494,605.2594 24.7837,604.95 Q24.7556,604.7344 24.6431,604.6219 Q24.4463,604.3969 24.0806,604.2656 Q23.715,604.1344 23.34,604.1344 Q22.8806,604.1344 22.4963,604.3313 Q22.1213,604.5281 21.8213,604.9781 Q21.5306,605.4281 21.5306,606.0469 L21.5306,606.7031 Q21.5306,607.4438 22.065,607.9406 Q22.5994,608.4281 23.5556,608.4281 Q24.1181,608.4281 24.5119,608.2781 Q24.7463,608.1844 24.9994,607.9219 Q25.1587,607.7625 25.2431,607.7156 Q25.3369,607.6687 25.4588,607.6687 Q25.6556,607.6687 25.8056,607.8281 Q25.965,607.9781 25.965,608.1844 Q25.965,608.3906 25.7588,608.6344 Q25.4588,608.9812 24.9806,609.1781 Q24.3338,609.45 23.5556,609.45 Q22.6463,609.45 21.9244,609.075 Q21.3338,608.775 20.9212,608.1375 Q20.5088,607.4906 20.5088,606.7219 L20.5088,606.0281 Q20.5088,605.2312 20.8744,604.5469 Q21.2494,603.8531 21.9056,603.4875 Q22.5619,603.1125 23.3025,603.1125 Q23.7431,603.1125 24.1275,603.2156 Q24.5213,603.3094 24.8494,603.525 Z " fill="#000000"/><text fill="#000000" font-family="sans-serif" font-size="8.4" lengthAdjust="spacing" textLength="97.8" x="33.81" y="609.4781">InMemoryExamRepository</text><line style="stroke:#181818;stroke-width:0.3;" x1="4.8" x2="142.8" y1="615.6" y2="615.6"/><line style="stroke:#181818;stroke-width:0.3;" x1="4.8" x2="142.8" y1="620.4" y2="620.4"/><text fill="#000000" font-family="sans-serif" font-size="8.4" lengthAdjust="spacing" textLength="132" x="7.8" y="631.8645">findAllFutureCourseExams(course)</text></g><!--class JpaExamRepository--><g id="elem_JpaExamRepository"><rect codeLine="107" fill="#F1F1F1" height="39.9727" id="JpaExamRepository" rx="1.5" ry="1.5" style="stroke:#181818;stroke-width:0.3;" width="139.2" x="164.4" y="596.4"/><ellipse cx="194.25" cy="606" fill="#ADD1B2" rx="6.6" ry="6.6" style="stroke:#181818;stroke-width:0.6;"/><path d="M195.9094,603.525 Q196.0031,603.3938 196.1156,603.3281 Q196.2281,603.2625 196.3594,603.2625 Q196.5844,603.2625 196.725,603.4219 Q196.8656,603.5719 196.8656,603.9375 L196.8656,604.8094 Q196.8656,605.175 196.725,605.3344 Q196.5844,605.4938 196.3594,605.4938 Q196.1531,605.4938 196.0313,605.3719 Q195.9094,605.2594 195.8438,604.95 Q195.8156,604.7344 195.7031,604.6219 Q195.5063,604.3969 195.1406,604.2656 Q194.775,604.1344 194.4,604.1344 Q193.9406,604.1344 193.5563,604.3313 Q193.1813,604.5281 192.8813,604.9781 Q192.5906,605.4281 192.5906,606.0469 L192.5906,606.7031 Q192.5906,607.4438 193.125,607.9406 Q193.6594,608.4281 194.6156,608.4281 Q195.1781,608.4281 195.5719,608.2781 Q195.8063,608.1844 196.0594,607.9219 Q196.2188,607.7625 196.3031,607.7156 Q196.3969,607.6687 196.5187,607.6687 Q196.7156,607.6687 196.8656,607.8281 Q197.025,607.9781 197.025,608.1844 Q197.025,608.3906 196.8188,608.6344 Q196.5187,608.9812 196.0406,609.1781 Q195.3937,609.45 194.6156,609.45 Q193.7062,609.45 192.9844,609.075 Q192.3937,608.775 191.9813,608.1375 Q191.5688,607.4906 191.5688,606.7219 L191.5688,606.0281 Q191.5688,605.2312 191.9344,604.5469 Q192.3094,603.8531 192.9656,603.4875 Q193.6219,603.1125 194.3625,603.1125 Q194.8031,603.1125 195.1875,603.2156 Q195.5812,603.3094 195.9094,603.525 Z " fill="#000000"/><text fill="#000000" font-family="sans-serif" font-size="8.4" lengthAdjust="spacing" textLength="74.4" x="206.55" y="609.4781">JpaExamRepository</text><line style="stroke:#181818;stroke-width:0.3;" x1="165" x2="303" y1="615.6" y2="615.6"/><line style="stroke:#181818;stroke-width:0.3;" x1="165" x2="303" y1="620.4" y2="620.4"/><text fill="#000000" font-family="sans-serif" font-size="8.4" lengthAdjust="spacing" textLength="132" x="168" y="631.8645">findAllFutureCourseExams(course)</text></g><!--class RepositoryFactory--><g id="elem_RepositoryFactory"><rect codeLine="112" fill="#F1F1F1" height="39.9727" id="RepositoryFactory" rx="1.5" ry="1.5" style="stroke:#181818;stroke-width:0.3;" width="91.2" x="477.6" y="405"/><ellipse cx="487.68" cy="414.6" fill="#ADD1B2" rx="6.6" ry="6.6" style="stroke:#181818;stroke-width:0.6;"/><path d="M489.3394,412.125 Q489.4331,411.9938 489.5456,411.9281 Q489.6581,411.8625 489.7894,411.8625 Q490.0144,411.8625 490.155,412.0219 Q490.2956,412.1719 490.2956,412.5375 L490.2956,413.4094 Q490.2956,413.775 490.155,413.9344 Q490.0144,414.0938 489.7894,414.0938 Q489.5831,414.0938 489.4612,413.9719 Q489.3394,413.8594 489.2737,413.55 Q489.2456,413.3344 489.1331,413.2219 Q488.9363,412.9969 488.5706,412.8656 Q488.205,412.7344 487.83,412.7344 Q487.3706,412.7344 486.9862,412.9313 Q486.6112,413.1281 486.3113,413.5781 Q486.0206,414.0281 486.0206,414.6469 L486.0206,415.3031 Q486.0206,416.0438 486.555,416.5406 Q487.0894,417.0281 488.0456,417.0281 Q488.6081,417.0281 489.0019,416.8781 Q489.2362,416.7844 489.4894,416.5219 Q489.6487,416.3625 489.7331,416.3156 Q489.8269,416.2688 489.9487,416.2688 Q490.1456,416.2688 490.2956,416.4281 Q490.455,416.5781 490.455,416.7844 Q490.455,416.9906 490.2488,417.2344 Q489.9487,417.5813 489.4706,417.7781 Q488.8237,418.05 488.0456,418.05 Q487.1362,418.05 486.4144,417.675 Q485.8237,417.375 485.4112,416.7375 Q484.9988,416.0906 484.9988,415.3219 L484.9988,414.6281 Q484.9988,413.8313 485.3644,413.1469 Q485.7394,412.4531 486.3956,412.0875 Q487.0519,411.7125 487.7925,411.7125 Q488.2331,411.7125 488.6175,411.8156 Q489.0112,411.9094 489.3394,412.125 Z " fill="#000000"/><text fill="#000000" font-family="sans-serif" font-size="8.4" lengthAdjust="spacing" textLength="69.6" x="496.32" y="418.0781">RepositoryFactory</text><line style="stroke:#181818;stroke-width:0.3;" x1="478.2" x2="568.2" y1="424.2" y2="424.2"/><line style="stroke:#181818;stroke-width:0.3;" x1="478.2" x2="568.2" y1="429" y2="429"/><ellipse cx="484.2" cy="437.8863" fill="#84BE84" rx="1.8" ry="1.8" style="stroke:#038048;stroke-width:0.6;"/><text fill="#000000" font-family="sans-serif" font-size="8.4" lengthAdjust="spacing" textLength="75.6" x="489.6" y="440.4645">RepositoryFactory()</text></g><!--class PersistenceContext--><g id="elem_PersistenceContext"><rect codeLine="117" fill="#F1F1F1" height="39.9727" id="PersistenceContext" rx="1.5" ry="1.5" style="stroke:#181818;stroke-width:0.3;" width="92.4" x="490.2" y="250.8"/><ellipse cx="499.2" cy="260.4" fill="#ADD1B2" rx="6.6" ry="6.6" style="stroke:#181818;stroke-width:0.6;"/><path d="M500.8594,257.925 Q500.9531,257.7938 501.0656,257.7281 Q501.1781,257.6625 501.3094,257.6625 Q501.5344,257.6625 501.675,257.8219 Q501.8156,257.9719 501.8156,258.3375 L501.8156,259.2094 Q501.8156,259.575 501.675,259.7344 Q501.5344,259.8938 501.3094,259.8938 Q501.1031,259.8938 500.9813,259.7719 Q500.8594,259.6594 500.7938,259.35 Q500.7656,259.1344 500.6531,259.0219 Q500.4562,258.7969 500.0906,258.6656 Q499.725,258.5344 499.35,258.5344 Q498.8906,258.5344 498.5062,258.7313 Q498.1312,258.9281 497.8312,259.3781 Q497.5406,259.8281 497.5406,260.4469 L497.5406,261.1031 Q497.5406,261.8438 498.075,262.3406 Q498.6094,262.8281 499.5656,262.8281 Q500.1281,262.8281 500.5219,262.6781 Q500.7562,262.5844 501.0094,262.3219 Q501.1688,262.1625 501.2531,262.1156 Q501.3469,262.0687 501.4688,262.0687 Q501.6656,262.0687 501.8156,262.2281 Q501.975,262.3781 501.975,262.5844 Q501.975,262.7906 501.7687,263.0344 Q501.4688,263.3812 500.9906,263.5781 Q500.3438,263.85 499.5656,263.85 Q498.6563,263.85 497.9344,263.475 Q497.3438,263.175 496.9313,262.5375 Q496.5187,261.8906 496.5187,261.1219 L496.5187,260.4281 Q496.5187,259.6312 496.8844,258.9469 Q497.2594,258.2531 497.9156,257.8875 Q498.5719,257.5125 499.3125,257.5125 Q499.7531,257.5125 500.1375,257.6156 Q500.5313,257.7094 500.8594,257.925 Z " fill="#000000"/><text fill="#000000" font-family="sans-serif" font-size="8.4" lengthAdjust="spacing" textLength="73.2" x="507.6" y="263.8781">PersistenceContext</text><line style="stroke:#181818;stroke-width:0.3;" x1="490.8" x2="582" y1="270" y2="270"/><line style="stroke:#181818;stroke-width:0.3;" x1="490.8" x2="582" y1="274.8" y2="274.8"/><rect fill="#F24D5C" height="3.6" style="stroke:#C82930;stroke-width:0.6;" width="3.6" x="495" y="281.8863"/><text fill="#000000" font-family="sans-serif" font-size="8.4" lengthAdjust="spacing" textLength="50.4" x="502.2" y="286.2645">repositories()</text></g><!--class EnrolmentRepository--><g id="elem_EnrolmentRepository"><rect codeLine="122" fill="#F1F1F1" height="39.9727" id="EnrolmentRepository" rx="1.5" ry="1.5" style="stroke:#181818;stroke-width:0.3;" width="198" x="808.8" y="520.2"/><ellipse cx="865.65" cy="529.8" fill="#B4A7E5" rx="6.6" ry="6.6" style="stroke:#181818;stroke-width:0.6;"/><path d="M866.2219,527.7844 L866.2219,531.7781 L867.2531,531.7781 Q867.6188,531.7781 867.7781,531.9187 Q867.9375,532.0594 867.9375,532.2937 Q867.9375,532.5188 867.7781,532.6594 Q867.6188,532.8 867.2531,532.8 L864.1687,532.8 Q863.8031,532.8 863.6438,532.6594 Q863.4844,532.5188 863.4844,532.2844 Q863.4844,532.0594 863.6438,531.9187 Q863.8031,531.7781 864.1687,531.7781 L865.2,531.7781 L865.2,527.7844 L864.1687,527.7844 Q863.8031,527.7844 863.6438,527.6438 Q863.4844,527.5031 863.4844,527.2688 Q863.4844,527.0437 863.6438,526.9031 Q863.8031,526.7625 864.1687,526.7625 L867.2531,526.7625 Q867.6188,526.7625 867.7781,526.9031 Q867.9375,527.0437 867.9375,527.2688 Q867.9375,527.5031 867.7781,527.6438 Q867.6188,527.7844 867.2531,527.7844 L866.2219,527.7844 Z " fill="#000000"/><text fill="#000000" font-family="sans-serif" font-size="8.4" font-style="italic" lengthAdjust="spacing" textLength="79.2" x="877.95" y="533.2781">EnrolmentRepository</text><line style="stroke:#181818;stroke-width:0.3;" x1="809.4" x2="1006.2" y1="539.4" y2="539.4"/><line style="stroke:#181818;stroke-width:0.3;" x1="809.4" x2="1006.2" y1="544.2" y2="544.2"/><ellipse cx="815.4" cy="553.0863" fill="#84BE84" rx="1.8" ry="1.8" style="stroke:#038048;stroke-width:0.6;"/><text fill="#000000" font-family="sans-serif" font-size="8.4" lengthAdjust="spacing" textLength="182.4" x="820.8" y="555.6645">findByStudentMecanographicNumber(studentID)</text></g><!--class InMemoryEnrolmentRepository--><g id="elem_InMemoryEnrolmentRepository"><rect codeLine="126" fill="#F1F1F1" height="39.9727" id="InMemoryEnrolmentRepository" rx="1.5" ry="1.5" style="stroke:#181818;stroke-width:0.3;" width="198" x="881.4" y="596.4"/><ellipse cx="919.95" cy="606" fill="#ADD1B2" rx="6.6" ry="6.6" style="stroke:#181818;stroke-width:0.6;"/><path d="M921.6094,603.525 Q921.7031,603.3938 921.8156,603.3281 Q921.9281,603.2625 922.0594,603.2625 Q922.2844,603.2625 922.425,603.4219 Q922.5656,603.5719 922.5656,603.9375 L922.5656,604.8094 Q922.5656,605.175 922.425,605.3344 Q922.2844,605.4938 922.0594,605.4938 Q921.8531,605.4938 921.7312,605.3719 Q921.6094,605.2594 921.5437,604.95 Q921.5156,604.7344 921.4031,604.6219 Q921.2063,604.3969 920.8406,604.2656 Q920.475,604.1344 920.1,604.1344 Q919.6406,604.1344 919.2563,604.3313 Q918.8813,604.5281 918.5813,604.9781 Q918.2906,605.4281 918.2906,606.0469 L918.2906,606.7031 Q918.2906,607.4438 918.825,607.9406 Q919.3594,608.4281 920.3156,608.4281 Q920.8781,608.4281 921.2719,608.2781 Q921.5063,608.1844 921.7594,607.9219 Q921.9187,607.7625 922.0031,607.7156 Q922.0969,607.6687 922.2188,607.6687 Q922.4156,607.6687 922.5656,607.8281 Q922.725,607.9781 922.725,608.1844 Q922.725,608.3906 922.5188,608.6344 Q922.2188,608.9812 921.7406,609.1781 Q921.0938,609.45 920.3156,609.45 Q919.4063,609.45 918.6844,609.075 Q918.0938,608.775 917.6813,608.1375 Q917.2688,607.4906 917.2688,606.7219 L917.2688,606.0281 Q917.2688,605.2312 917.6344,604.5469 Q918.0094,603.8531 918.6656,603.4875 Q919.3219,603.1125 920.0625,603.1125 Q920.5031,603.1125 920.8875,603.2156 Q921.2813,603.3094 921.6094,603.525 Z " fill="#000000"/><text fill="#000000" font-family="sans-serif" font-size="8.4" lengthAdjust="spacing" textLength="115.8" x="932.25" y="609.4781">InMemoryEnrolmentRepository</text><line style="stroke:#181818;stroke-width:0.3;" x1="882" x2="1078.8" y1="615.6" y2="615.6"/><line style="stroke:#181818;stroke-width:0.3;" x1="882" x2="1078.8" y1="620.4" y2="620.4"/><ellipse cx="888" cy="629.2863" fill="#84BE84" rx="1.8" ry="1.8" style="stroke:#038048;stroke-width:0.6;"/><text fill="#000000" font-family="sans-serif" font-size="8.4" lengthAdjust="spacing" textLength="182.4" x="893.4" y="631.8645">findByStudentMecanographicNumber(studentID)</text></g><!--class JpaEnrolmentRepository--><g id="elem_JpaEnrolmentRepository"><rect codeLine="130" fill="#F1F1F1" height="39.9727" id="JpaEnrolmentRepository" rx="1.5" ry="1.5" style="stroke:#181818;stroke-width:0.3;" width="198" x="1100.4" y="596.4"/><ellipse cx="1150.65" cy="606" fill="#ADD1B2" rx="6.6" ry="6.6" style="stroke:#181818;stroke-width:0.6;"/><path d="M1152.3094,603.525 Q1152.4031,603.3938 1152.5156,603.3281 Q1152.6281,603.2625 1152.7594,603.2625 Q1152.9844,603.2625 1153.125,603.4219 Q1153.2656,603.5719 1153.2656,603.9375 L1153.2656,604.8094 Q1153.2656,605.175 1153.125,605.3344 Q1152.9844,605.4938 1152.7594,605.4938 Q1152.5531,605.4938 1152.4312,605.3719 Q1152.3094,605.2594 1152.2437,604.95 Q1152.2156,604.7344 1152.1031,604.6219 Q1151.9063,604.3969 1151.5406,604.2656 Q1151.175,604.1344 1150.8,604.1344 Q1150.3406,604.1344 1149.9563,604.3313 Q1149.5813,604.5281 1149.2813,604.9781 Q1148.9906,605.4281 1148.9906,606.0469 L1148.9906,606.7031 Q1148.9906,607.4438 1149.525,607.9406 Q1150.0594,608.4281 1151.0156,608.4281 Q1151.5781,608.4281 1151.9719,608.2781 Q1152.2063,608.1844 1152.4594,607.9219 Q1152.6187,607.7625 1152.7031,607.7156 Q1152.7969,607.6687 1152.9188,607.6687 Q1153.1156,607.6687 1153.2656,607.8281 Q1153.425,607.9781 1153.425,608.1844 Q1153.425,608.3906 1153.2188,608.6344 Q1152.9188,608.9812 1152.4406,609.1781 Q1151.7938,609.45 1151.0156,609.45 Q1150.1063,609.45 1149.3844,609.075 Q1148.7938,608.775 1148.3813,608.1375 Q1147.9688,607.4906 1147.9688,606.7219 L1147.9688,606.0281 Q1147.9688,605.2312 1148.3344,604.5469 Q1148.7094,603.8531 1149.3656,603.4875 Q1150.0219,603.1125 1150.7625,603.1125 Q1151.2031,603.1125 1151.5875,603.2156 Q1151.9813,603.3094 1152.3094,603.525 Z " fill="#000000"/><text fill="#000000" font-family="sans-serif" font-size="8.4" lengthAdjust="spacing" textLength="92.4" x="1162.95" y="609.4781">JpaEnrolmentRepository</text><line style="stroke:#181818;stroke-width:0.3;" x1="1101" x2="1297.8" y1="615.6" y2="615.6"/><line style="stroke:#181818;stroke-width:0.3;" x1="1101" x2="1297.8" y1="620.4" y2="620.4"/><ellipse cx="1107" cy="629.2863" fill="#84BE84" rx="1.8" ry="1.8" style="stroke:#038048;stroke-width:0.6;"/><text fill="#000000" font-family="sans-serif" font-size="8.4" lengthAdjust="spacing" textLength="182.4" x="1112.4" y="631.8645">findByStudentMecanographicNumber(studentID)</text></g><!--link PersistenceContext to RepositoryFactory--><g id="link_PersistenceContext_RepositoryFactory"><path codeLine="136" d="M534.714,291.03 C532.266,319.386 527.748,371.814 525.156,401.832 " fill="none" id="PersistenceContext-to-RepositoryFactory" style="stroke:#181818;stroke-width:0.6;stroke-dasharray:7.0,7.0;"/><polygon fill="#181818" points="524.898,404.844,527.7664,399.6775,525.1634,401.8558,522.9852,399.2528,524.898,404.844" style="stroke:#181818;stroke-width:0.6;"/></g><!--link RepositoryFactory to CourseRepository--><g id="link_RepositoryFactory_CourseRepository"><path codeLine="138" d="M522.786,445.296 C522.366,465.258 521.718,496.182 521.274,517.152 " fill="none" id="RepositoryFactory-to-CourseRepository" style="stroke:#181818;stroke-width:0.6;"/><polygon fill="#181818" points="521.214,520.17,523.7215,514.8191,521.274,517.1706,518.9225,514.7231,521.214,520.17" style="stroke:#181818;stroke-width:0.6;"/></g><!--link RepositoryFactory to ExamRepository--><g id="link_RepositoryFactory_ExamRepository"><path codeLine="139" d="M497.16,445.212 C480.42,457.278 457.926,472.614 436.8,484.2 C413.118,497.19 385.77,509.364 362.424,518.988 " fill="none" id="RepositoryFactory-to-ExamRepository" style="stroke:#181818;stroke-width:0.6;"/><polygon fill="#181818" points="359.598,520.146,365.5051,520.3092,362.372,519.0038,363.6775,515.8707,359.598,520.146" style="stroke:#181818;stroke-width:0.6;"/></g><!--link RepositoryFactory to StudentRepository--><g id="link_RepositoryFactory_StudentRepository"><path codeLine="140" d="M540.456,445.218 C551.244,457.002 565.686,472.038 579.6,484.2 C593.388,496.254 609.66,508.434 623.568,518.298 " fill="none" id="RepositoryFactory-to-StudentRepository" style="stroke:#181818;stroke-width:0.6;"/><polygon fill="#181818" points="626.136,520.116,623.1098,515.0404,623.6856,518.3853,620.3407,518.961,626.136,520.116" style="stroke:#181818;stroke-width:0.6;"/></g><!--link RepositoryFactory to EnrolmentRepository--><g id="link_RepositoryFactory_EnrolmentRepository"><path codeLine="141" d="M536.904,445.452 C547.122,458.586 562.26,475.05 579.6,484.2 C617.982,504.456 724.296,520.044 805.62,529.476 " fill="none" id="RepositoryFactory-to-EnrolmentRepository" style="stroke:#181818;stroke-width:0.6;"/><polygon fill="#181818" points="808.746,529.836,803.6564,526.8334,805.7657,529.4925,803.1067,531.6018,808.746,529.836" style="stroke:#181818;stroke-width:0.6;"/></g><!--reverse link CourseRepository to InMemoryCourseRepository--><g id="link_CourseRepository_InMemoryCourseRepository"><path codeLine="143" d="M475.428,566.334 C457.926,576.144 438.222,587.19 421.866,596.358 " fill="none" id="CourseRepository-backto-InMemoryCourseRepository" style="stroke:#181818;stroke-width:0.6;stroke-dasharray:7.0,7.0;"/><polygon fill="none" points="473.472,562.614,485.994,560.412,477.582,569.94,473.472,562.614" style="stroke:#181818;stroke-width:0.6;"/></g><!--reverse link CourseRepository to JpaCourseRepository--><g id="link_CourseRepository_JpaCourseRepository"><path codeLine="144" d="M520.8,572.52 C520.8,580.566 520.8,588.978 520.8,596.226 " fill="none" id="CourseRepository-backto-JpaCourseRepository" style="stroke:#181818;stroke-width:0.6;stroke-dasharray:7.0,7.0;"/><polygon fill="none" points="516.6,572.412,520.8,560.412,525,572.412,516.6,572.412" style="stroke:#181818;stroke-width:0.6;"/></g><!--reverse link ExamRepository to InMemoryExamRepository--><g id="link_ExamRepository_InMemoryExamRepository"><path codeLine="145" d="M235.944,564.066 C203.574,574.41 165.846,586.476 134.928,596.358 " fill="none" id="ExamRepository-backto-InMemoryExamRepository" style="stroke:#181818;stroke-width:0.6;stroke-dasharray:7.0,7.0;"/><polygon fill="none" points="234.666,560.064,247.374,560.412,237.222,568.062,234.666,560.064" style="stroke:#181818;stroke-width:0.6;"/></g><!--reverse link ExamRepository to JpaExamRepository--><g id="link_ExamRepository_JpaExamRepository"><path codeLine="146" d="M280.422,569.1 C271.458,578.136 261.738,587.94 253.518,596.226 " fill="none" id="ExamRepository-backto-JpaExamRepository" style="stroke:#181818;stroke-width:0.6;stroke-dasharray:7.0,7.0;"/><polygon fill="none" points="277.614,565.968,289.044,560.412,283.578,571.884,277.614,565.968" style="stroke:#181818;stroke-width:0.6;"/></g><!--reverse link StudentRepository to InMemoryStudentRepository--><g id="link_StudentRepository_InMemoryStudentRepository"><path codeLine="147" d="M655.2,572.52 C655.2,580.566 655.2,588.978 655.2,596.226 " fill="none" id="StudentRepository-backto-InMemoryStudentRepository" style="stroke:#181818;stroke-width:0.6;stroke-dasharray:7.0,7.0;"/><polygon fill="none" points="651,572.412,655.2,560.412,659.4,572.412,651,572.412" style="stroke:#181818;stroke-width:0.6;"/></g><!--reverse link StudentRepository to JpaStudentRepository--><g id="link_StudentRepository_JpaStudentRepository"><path codeLine="148" d="M703.698,566.052 C722.748,575.934 744.276,587.1 762.12,596.358 " fill="none" id="StudentRepository-backto-JpaStudentRepository" style="stroke:#181818;stroke-width:0.6;stroke-dasharray:7.0,7.0;"/><polygon fill="none" points="701.532,569.664,692.814,560.412,705.402,562.206,701.532,569.664" style="stroke:#181818;stroke-width:0.6;"/></g><!--reverse link EnrolmentRepository to InMemoryEnrolmentRepository--><g id="link_EnrolmentRepository_InMemoryEnrolmentRepository"><path codeLine="149" d="M935.1,569.1 C943.848,578.136 953.334,587.94 961.356,596.226 " fill="none" id="EnrolmentRepository-backto-InMemoryEnrolmentRepository" style="stroke:#181818;stroke-width:0.6;stroke-dasharray:7.0,7.0;"/><polygon fill="none" points="932.016,571.95,926.688,560.412,938.052,566.112,932.016,571.95" style="stroke:#181818;stroke-width:0.6;"/></g><!--reverse link EnrolmentRepository to JpaEnrolmentRepository--><g id="link_EnrolmentRepository_JpaEnrolmentRepository"><path codeLine="150" d="M995.496,563.454 C1036.242,573.936 1084.236,586.278 1123.422,596.358 " fill="none" id="EnrolmentRepository-backto-JpaEnrolmentRepository" style="stroke:#181818;stroke-width:0.6;stroke-dasharray:7.0,7.0;"/><polygon fill="none" points="994.23,567.468,983.652,560.412,996.324,559.332,994.23,567.468" style="stroke:#181818;stroke-width:0.6;"/></g><!--link ListFutureExamsController to ListEnrolmentService--><g id="link_ListFutureExamsController_ListEnrolmentService"><path codeLine="152" d="M526.602,150.396 C559.218,166.44 599.628,188.166 633,211.8 C715.074,269.916 799.092,354.342 839.886,397.254 " fill="none" id="ListFutureExamsController-to-ListEnrolmentService" style="stroke:#181818;stroke-width:0.6;"/><polygon fill="#181818" points="842.028,399.516,840.0522,393.9468,839.9631,397.3397,836.5702,397.2506,842.028,399.516" style="stroke:#181818;stroke-width:0.6;"/></g><!--link ListFutureExamsController to ExamListService--><g id="link_ListFutureExamsController_ExamListService"><path codeLine="153" d="M441.774,175.968 C431.112,198.534 419.118,223.914 410.262,242.658 " fill="none" id="ListFutureExamsController-to-ExamListService" style="stroke:#181818;stroke-width:0.6;"/><polygon fill="#181818" points="408.978,245.376,413.4471,241.5099,410.2542,242.661,409.103,239.468,408.978,245.376" style="stroke:#181818;stroke-width:0.6;"/></g><!--link ListFutureExamsController to StudentService--><g id="link_ListFutureExamsController_StudentService"><path codeLine="154" d="M526.608,153.546 C550.23,168.276 575.748,187.968 592.8,211.8 C633.81,269.106 648.078,353.25 652.878,396.522 " fill="none" id="ListFutureExamsController-to-StudentService" style="stroke:#181818;stroke-width:0.6;"/><polygon fill="#181818" points="653.208,399.57,655.0236,393.9465,652.8908,396.5868,650.2505,394.454,653.208,399.57" style="stroke:#181818;stroke-width:0.6;"/></g><!--link ListFutureExamsController to Course--><g id="link_ListFutureExamsController_Course"><path codeLine="155" d="M407.04,134.172 C349.392,146.79 261.198,171.072 193.8,211.8 C191.232,213.354 188.688,215.034 186.18,216.816 " fill="none" id="ListFutureExamsController-to-Course" style="stroke:#181818;stroke-width:0.6;stroke-dasharray:7.0,7.0;"/><polygon fill="#181818" points="183.69,218.628,189.4683,217.3904,186.1155,216.8625,186.6434,213.5097,183.69,218.628" style="stroke:#181818;stroke-width:0.6;"/></g><!--link ListFutureExamsController to CourseDTO--><g id="link_ListFutureExamsController_CourseDTO"><path codeLine="156" d="M406.944,153.426 C377.934,169.266 343.224,189.882 314.4,211.8 C311.826,213.756 309.252,215.814 306.69,217.938 " fill="none" id="ListFutureExamsController-to-CourseDTO" style="stroke:#181818;stroke-width:0.6;stroke-dasharray:7.0,7.0;"/><polygon fill="#181818" points="304.344,219.906,310.0229,218.2719,306.6416,217.977,306.9365,214.5958,304.344,219.906" style="stroke:#181818;stroke-width:0.6;"/></g><!--link ListFutureExamsController to PersistenceContext--><g id="link_ListFutureExamsController_PersistenceContext"><path codeLine="157" d="M491.826,175.968 C503.532,200.736 516.834,228.888 525.84,247.944 " fill="none" id="ListFutureExamsController-to-PersistenceContext" style="stroke:#181818;stroke-width:0.6;stroke-dasharray:7.0,7.0;"/><polygon fill="#181818" points="527.136,250.692,527.0038,244.7842,525.8565,247.9785,522.6622,246.8313,527.136,250.692" style="stroke:#181818;stroke-width:0.6;"/></g><!--link ListFutureExamsUI to ListFutureExamsController--><g id="link_ListFutureExamsUI_ListFutureExamsController"><path codeLine="159" d="M466.8,33.036 C466.8,41.712 466.8,53.526 466.8,65.7 " fill="none" id="ListFutureExamsUI-to-ListFutureExamsController" style="stroke:#181818;stroke-width:0.6;stroke-dasharray:7.0,7.0;"/><polygon fill="#181818" points="466.8,68.802,469.2,63.402,466.8,65.802,464.4,63.402,466.8,68.802" style="stroke:#181818;stroke-width:0.6;"/></g><!--link StudentService to StudentRepository--><g id="link_StudentService_StudentRepository"><path codeLine="161" d="M655.2,450.72 C655.2,470.418 655.2,497.664 655.2,516.798 " fill="none" id="StudentService-to-StudentRepository" style="stroke:#181818;stroke-width:0.6;stroke-dasharray:7.0,7.0;"/><polygon fill="#181818" points="655.2,520.032,657.6,514.632,655.2,517.032,652.8,514.632,655.2,520.032" style="stroke:#181818;stroke-width:0.6;"/></g><!--link ListEnrolmentService to EnrolmentRepository--><g id="link_ListEnrolmentService_EnrolmentRepository"><path codeLine="162" d="M874.548,450.72 C881.94,470.502 892.176,497.886 899.328,517.032 " fill="none" id="ListEnrolmentService-to-EnrolmentRepository" style="stroke:#181818;stroke-width:0.6;stroke-dasharray:7.0,7.0;"/><polygon fill="#181818" points="900.45,520.032,900.8011,514.1331,899.3966,517.223,896.3067,515.8185,900.45,520.032" style="stroke:#181818;stroke-width:0.6;"/></g><!--link ExamListService to Exam--><g id="link_ExamListService_Exam"><path codeLine="164" d="M376.026,296.478 C360.372,315.252 338.772,341.79 321,366 C318.126,369.912 315.21,374.016 312.324,378.168 " fill="none" id="ExamListService-to-Exam" style="stroke:#181818;stroke-width:0.6;stroke-dasharray:7.0,7.0;"/><polygon fill="#181818" points="310.536,380.754,315.5802,377.6757,312.2414,378.2859,311.6312,374.9471,310.536,380.754" style="stroke:#181818;stroke-width:0.6;"/></g><!--link ExamListService to ExamDTO--><g id="link_ExamListService_ExamDTO"><path codeLine="165" d="M391.236,296.424 C386.568,315.954 379.89,343.872 373.956,368.664 " fill="none" id="ExamListService-to-ExamDTO" style="stroke:#181818;stroke-width:0.6;stroke-dasharray:7.0,7.0;"/><polygon fill="#181818" points="373.236,371.67,376.832,366.9808,373.9374,368.7531,372.1651,365.8585,373.236,371.67" style="stroke:#181818;stroke-width:0.6;"/></g><!--link ExamListService to ExamRepository--><g id="link_ExamListService_ExamRepository"><path codeLine="166" d="M405.006,296.406 C416.562,338.256 433.434,424.002 399.6,484.2 C391.35,498.876 377.472,510.126 362.994,518.532 " fill="none" id="ExamListService-to-ExamRepository" style="stroke:#181818;stroke-width:0.6;stroke-dasharray:7.0,7.0;"/><polygon fill="#181818" points="360.288,520.068,366.1683,519.4831,362.8954,518.5842,363.7942,515.3113,360.288,520.068" style="stroke:#181818;stroke-width:0.6;"/></g><!--SRC=[lLRRRkCW47tdA_peg4g-O5MfcwHILcrtjTb-04ic3P9j8i2hTY__lZF6Ji10qqPHtm2VEGndRXOLDwQuayRUjhRLi7pcjNbS5NyO-yUOI7sTgyPgLLMW4JKjeC5D3Otz3djbf5Nw1K-5QhM1uCZOTZE6yTRkb9Q_kPMgMOF-9GKG9zv3jmudLqL5EqSmxwXDES7ZxT6jqbsv-F5rGgxBneBUSW75UdmlkesMijbyVdaqe1jUGzdsYydnsQlc7cg4dsl_PS_FDNLFH71Ha9GRw1PMsigjDc24bdiIhTiVOd0dQsbDRqOSQyijUFlbWFG-QC3bviRYxggmQc5L6Vc2idwuEq4KvwE4whmPj9oZJoKvbWZVkmqnRk-mwOqe1RjowEGPdeSB2rpiGEDAKYh8hUmsJhnGEYeHKY4H1A9t8RZ83G6lLsYkeF7CAr9NUpTLvLg0ayQlEC_DFjzzjhZgdOuzbAh0guL9s7MEwU7xbsWuGsnwrdiGl55FckztKZoqzK_GvQWhB8DN7khor3j7oHMnl8NZa6PdMVVcHxjRBhmSZSvBt-eRQ8EwGYE0sZWysxwgzM0ckyvA5fvMiU9U8tj5ypxugqMYBYzAIc9UXe-nX4QpsNKiB6Dn3ARJwwXJPM1Xy3EWQ83ao18rmQ8kzkdlR9RjYnbueXkoKTu6jADdfQ1HvhDuJWQSiGePWzJ8PQd425rEY9SrIcSQO_cV98fFgfcTC1crvXFeiFE-0gPKTW5z4mY7pWbSN2wH6FW_ISWi3sEZmK7eE939YK3GP436ewq3ubds0pqrzyqd_Wy0]--></g></svg>