<?xml version="1.0" encoding="us-ascii" standalone="no"?><svg xmlns="http://www.w3.org/2000/svg" xmlns:xlink="http://www.w3.org/1999/xlink" contentStyleType="text/css" height="665.4px" preserveAspectRatio="none" style="width:1623px;height:665px;background:#FFFFFF;" version="1.1" viewBox="0 0 1623 665" width="1623px" zoomAndPan="magnify"><defs/><g><rect fill="#FFFFFF" height="326.6953" style="stroke:#181818;stroke-width:0.6;" width="6" x="225.9" y="72.9199"/><rect fill="#FFFFFF" height="182.5969" style="stroke:#181818;stroke-width:0.6;" width="6" x="225.9" y="418.3898"/><rect fill="#FFFFFF" height="18" style="stroke:#181818;stroke-width:0.6;" width="6" x="534.3" y="91.6945"/><rect fill="#FFFFFF" height="257.1715" style="stroke:#181818;stroke-width:0.6;" width="6" x="534.3" y="128.4691"/><rect fill="#FFFFFF" height="16.8" style="stroke:#181818;stroke-width:0.6;" width="6" x="537.3" y="351.4406"/><rect fill="#FFFFFF" height="117.873" style="stroke:#181818;stroke-width:0.6;" width="6" x="534.3" y="463.7391"/><rect fill="#FFFFFF" height="18" style="stroke:#181818;stroke-width:0.6;" width="6" x="740.1" y="147.2438"/><rect fill="#FFFFFF" height="99.0984" style="stroke:#181818;stroke-width:0.6;" width="6" x="909.9" y="482.5137"/><rect fill="#FFFFFF" height="18.7746" style="stroke:#181818;stroke-width:0.6;" width="6" x="984.3" y="553.8375"/><rect fill="#FFFFFF" height="18.7746" style="stroke:#181818;stroke-width:0.6;" width="6" x="1088.7" y="304.8914"/><rect fill="#FFFFFF" height="18" style="stroke:#181818;stroke-width:0.6;" width="6" x="1345.2" y="184.0184"/><rect fill="#FFFFFF" height="18" style="stroke:#181818;stroke-width:0.6;" width="6" x="1498.5" y="501.2883"/><rect fill="#FFFFFF" height="18" style="stroke:#181818;stroke-width:0.6;" width="6" x="1578.3" y="220.793"/><rect fill="none" height="133.6477" style="stroke:#000000;stroke-width:0.8999999999999999;" width="727.5" x="465" y="247.793"/><rect fill="none" height="113.673" style="stroke:#000000;stroke-width:0.8999999999999999;" width="715.5" x="471" y="263.5676"/><rect fill="none" height="49.1238" style="stroke:#000000;stroke-width:0.8999999999999999;" width="703.5" x="477" y="279.3422"/><rect fill="none" height="49.1238" style="stroke:#000000;stroke-width:0.8999999999999999;" width="361.5" x="871.8" y="528.2883"/><line style="stroke:#181818;stroke-width:0.3;stroke-dasharray:5.0,5.0;" x1="19.2" x2="19.2" y1="52.9453" y2="606.3867"/><line style="stroke:#181818;stroke-width:0.3;stroke-dasharray:5.0,5.0;" x1="228.6" x2="228.6" y1="52.9453" y2="606.3867"/><line style="stroke:#181818;stroke-width:0.3;stroke-dasharray:5.0,5.0;" x1="537" x2="537" y1="52.9453" y2="606.3867"/><line style="stroke:#181818;stroke-width:0.3;stroke-dasharray:5.0,5.0;" x1="742.8" x2="742.8" y1="52.9453" y2="606.3867"/><line style="stroke:#181818;stroke-width:0.3;stroke-dasharray:5.0,5.0;" x1="832.8" x2="832.8" y1="52.9453" y2="606.3867"/><line style="stroke:#181818;stroke-width:0.3;stroke-dasharray:5.0,5.0;" x1="912.6" x2="912.6" y1="52.9453" y2="606.3867"/><line style="stroke:#181818;stroke-width:0.3;stroke-dasharray:5.0,5.0;" x1="987.3" x2="987.3" y1="52.9453" y2="606.3867"/><line style="stroke:#181818;stroke-width:0.3;stroke-dasharray:5.0,5.0;" x1="1039.5" x2="1039.5" y1="52.9453" y2="606.3867"/><line style="stroke:#181818;stroke-width:0.3;stroke-dasharray:5.0,5.0;" x1="1091.7" x2="1091.7" y1="52.9453" y2="606.3867"/><line style="stroke:#181818;stroke-width:0.3;stroke-dasharray:5.0,5.0;" x1="1147.5" x2="1147.5" y1="52.9453" y2="606.3867"/><line style="stroke:#181818;stroke-width:0.3;stroke-dasharray:5.0,5.0;" x1="1203.9" x2="1203.9" y1="52.9453" y2="606.3867"/><line style="stroke:#181818;stroke-width:0.3;stroke-dasharray:5.0,5.0;" x1="1269.3" x2="1269.3" y1="52.9453" y2="606.3867"/><line style="stroke:#181818;stroke-width:0.3;stroke-dasharray:5.0,5.0;" x1="1347.9" x2="1347.9" y1="52.9453" y2="606.3867"/><line style="stroke:#181818;stroke-width:0.3;stroke-dasharray:5.0,5.0;" x1="1427.1" x2="1427.1" y1="52.9453" y2="606.3867"/><line style="stroke:#181818;stroke-width:0.3;stroke-dasharray:5.0,5.0;" x1="1501.5" x2="1501.5" y1="52.9453" y2="606.3867"/><line style="stroke:#181818;stroke-width:0.3;stroke-dasharray:5.0,5.0;" x1="1581.3" x2="1581.3" y1="52.9453" y2="606.3867"/><text fill="#000000" font-family="sans-serif" font-size="8.4" lengthAdjust="spacing" textLength="29.4" x="3" y="50.8371">Student</text><ellipse cx="19.5" cy="10.8727" fill="#E2E2F0" rx="4.8" ry="4.8" style="stroke:#181818;stroke-width:0.3;"/><path d="M19.5,15.6727 L19.5,31.8727 M11.7,20.4727 L27.3,20.4727 M19.5,31.8727 L11.7,40.8727 M19.5,31.8727 L27.3,40.8727 " fill="none" style="stroke:#181818;stroke-width:0.3;"/><text fill="#000000" font-family="sans-serif" font-size="8.4" lengthAdjust="spacing" textLength="29.4" x="3" y="614.8512">Student</text><ellipse cx="19.5" cy="622.0594" fill="#E2E2F0" rx="4.8" ry="4.8" style="stroke:#181818;stroke-width:0.3;"/><path d="M19.5,626.8594 L19.5,643.0594 M11.7,631.6594 L27.3,631.6594 M19.5,643.0594 L11.7,652.0594 M19.5,643.0594 L27.3,652.0594 " fill="none" style="stroke:#181818;stroke-width:0.3;"/><rect fill="#E2E2F0" height="30.7453" rx="1.5" ry="1.5" style="stroke:#181818;stroke-width:0.3;" width="78.6" x="189.6" y="21.6"/><text fill="#000000" font-family="sans-serif" font-size="8.4" font-style="italic" lengthAdjust="spacing" textLength="57" x="200.4" y="34.8645">&#171;presentation&#187;</text><text fill="#000000" font-family="sans-serif" font-size="8.4" lengthAdjust="spacing" textLength="70.2" x="193.8" y="46.0371">ListFutureExamsUI</text><rect fill="#E2E2F0" height="30.7453" rx="1.5" ry="1.5" style="stroke:#181818;stroke-width:0.3;" width="78.6" x="189.6" y="605.7867"/><text fill="#000000" font-family="sans-serif" font-size="8.4" font-style="italic" lengthAdjust="spacing" textLength="57" x="200.4" y="619.0512">&#171;presentation&#187;</text><text fill="#000000" font-family="sans-serif" font-size="8.4" lengthAdjust="spacing" textLength="70.2" x="193.8" y="630.2238">ListFutureExamsUI</text><rect fill="#E2E2F0" height="30.7453" rx="1.5" ry="1.5" style="stroke:#181818;stroke-width:0.3;" width="108.6" x="483" y="21.6"/><text fill="#000000" font-family="sans-serif" font-size="8.4" font-style="italic" lengthAdjust="spacing" textLength="50.4" x="512.1" y="34.8645">&#171;application&#187;</text><text fill="#000000" font-family="sans-serif" font-size="8.4" lengthAdjust="spacing" textLength="100.2" x="487.2" y="46.0371">ListFutureExamsController</text><rect fill="#E2E2F0" height="30.7453" rx="1.5" ry="1.5" style="stroke:#181818;stroke-width:0.3;" width="108.6" x="483" y="605.7867"/><text fill="#000000" font-family="sans-serif" font-size="8.4" font-style="italic" lengthAdjust="spacing" textLength="50.4" x="512.1" y="619.0512">&#171;application&#187;</text><text fill="#000000" font-family="sans-serif" font-size="8.4" lengthAdjust="spacing" textLength="100.2" x="487.2" y="630.2238">ListFutureExamsController</text><rect fill="#E2E2F0" height="30.7453" rx="1.5" ry="1.5" style="stroke:#181818;stroke-width:0.3;" width="90.6" x="697.8" y="21.6"/><text fill="#000000" font-family="sans-serif" font-size="8.4" font-style="italic" lengthAdjust="spacing" textLength="36" x="725.1" y="34.8645">&#171;service&#187;</text><text fill="#000000" font-family="sans-serif" font-size="8.4" lengthAdjust="spacing" textLength="82.2" x="702" y="46.0371">AuthenticationService</text><rect fill="#E2E2F0" height="30.7453" rx="1.5" ry="1.5" style="stroke:#181818;stroke-width:0.3;" width="90.6" x="697.8" y="605.7867"/><text fill="#000000" font-family="sans-serif" font-size="8.4" font-style="italic" lengthAdjust="spacing" textLength="36" x="725.1" y="619.0512">&#171;service&#187;</text><text fill="#000000" font-family="sans-serif" font-size="8.4" lengthAdjust="spacing" textLength="82.2" x="702" y="630.2238">AuthenticationService</text><rect fill="#E2E2F0" height="30.7453" rx="1.5" ry="1.5" style="stroke:#181818;stroke-width:0.3;" width="77.4" x="794.4" y="21.6"/><text fill="#000000" font-family="sans-serif" font-size="8.4" font-style="italic" lengthAdjust="spacing" textLength="36" x="815.1" y="34.8645">&#171;service&#187;</text><text fill="#000000" font-family="sans-serif" font-size="8.4" lengthAdjust="spacing" textLength="69" x="798.6" y="46.0371">CourseListService</text><rect fill="#E2E2F0" height="30.7453" rx="1.5" ry="1.5" style="stroke:#181818;stroke-width:0.3;" width="77.4" x="794.4" y="605.7867"/><text fill="#000000" font-family="sans-serif" font-size="8.4" font-style="italic" lengthAdjust="spacing" textLength="36" x="815.1" y="619.0512">&#171;service&#187;</text><text fill="#000000" font-family="sans-serif" font-size="8.4" lengthAdjust="spacing" textLength="69" x="798.6" y="630.2238">CourseListService</text><rect fill="#E2E2F0" height="30.7453" rx="1.5" ry="1.5" style="stroke:#181818;stroke-width:0.3;" width="70.2" x="877.8" y="21.6"/><text fill="#000000" font-family="sans-serif" font-size="8.4" font-style="italic" lengthAdjust="spacing" textLength="36" x="894.9" y="34.8645">&#171;service&#187;</text><text fill="#000000" font-family="sans-serif" font-size="8.4" lengthAdjust="spacing" textLength="61.8" x="882" y="46.0371">ExamListService</text><rect fill="#E2E2F0" height="30.7453" rx="1.5" ry="1.5" style="stroke:#181818;stroke-width:0.3;" width="70.2" x="877.8" y="605.7867"/><text fill="#000000" font-family="sans-serif" font-size="8.4" font-style="italic" lengthAdjust="spacing" textLength="36" x="894.9" y="619.0512">&#171;service&#187;</text><text fill="#000000" font-family="sans-serif" font-size="8.4" lengthAdjust="spacing" textLength="61.8" x="882" y="630.2238">ExamListService</text><rect fill="#E2E2F0" height="30.7453" rx="1.5" ry="1.5" style="stroke:#181818;stroke-width:0.3;" width="45.6" x="964.5" y="21.6"/><text fill="#000000" font-family="sans-serif" font-size="8.4" font-style="italic" lengthAdjust="spacing" textLength="37.2" x="968.7" y="34.8645">&#171;domain&#187;</text><text fill="#000000" font-family="sans-serif" font-size="8.4" lengthAdjust="spacing" textLength="20.4" x="977.1" y="46.0371">Exam</text><rect fill="#E2E2F0" height="30.7453" rx="1.5" ry="1.5" style="stroke:#181818;stroke-width:0.3;" width="45.6" x="964.5" y="605.7867"/><text fill="#000000" font-family="sans-serif" font-size="8.4" font-style="italic" lengthAdjust="spacing" textLength="37.2" x="968.7" y="619.0512">&#171;domain&#187;</text><text fill="#000000" font-family="sans-serif" font-size="8.4" lengthAdjust="spacing" textLength="20.4" x="977.1" y="630.2238">Exam</text><rect fill="#E2E2F0" height="30.7453" rx="1.5" ry="1.5" style="stroke:#181818;stroke-width:0.3;" width="46.8" x="1016.1" y="21.6"/><text fill="#000000" font-family="sans-serif" font-size="8.4" font-style="italic" lengthAdjust="spacing" textLength="37.2" x="1020.9" y="34.8645">&#171;domain&#187;</text><text fill="#000000" font-family="sans-serif" font-size="8.4" lengthAdjust="spacing" textLength="38.4" x="1020.3" y="46.0371">Enrolment</text><rect fill="#E2E2F0" height="30.7453" rx="1.5" ry="1.5" style="stroke:#181818;stroke-width:0.3;" width="46.8" x="1016.1" y="605.7867"/><text fill="#000000" font-family="sans-serif" font-size="8.4" font-style="italic" lengthAdjust="spacing" textLength="37.2" x="1020.9" y="619.0512">&#171;domain&#187;</text><text fill="#000000" font-family="sans-serif" font-size="8.4" lengthAdjust="spacing" textLength="38.4" x="1020.3" y="630.2238">Enrolment</text><rect fill="#E2E2F0" height="30.7453" rx="1.5" ry="1.5" style="stroke:#181818;stroke-width:0.3;" width="45.6" x="1068.9" y="21.6"/><text fill="#000000" font-family="sans-serif" font-size="8.4" font-style="italic" lengthAdjust="spacing" textLength="37.2" x="1073.1" y="34.8645">&#171;domain&#187;</text><text fill="#000000" font-family="sans-serif" font-size="8.4" lengthAdjust="spacing" textLength="27.6" x="1077.9" y="46.0371">Course</text><rect fill="#E2E2F0" height="30.7453" rx="1.5" ry="1.5" style="stroke:#181818;stroke-width:0.3;" width="45.6" x="1068.9" y="605.7867"/><text fill="#000000" font-family="sans-serif" font-size="8.4" font-style="italic" lengthAdjust="spacing" textLength="37.2" x="1073.1" y="619.0512">&#171;domain&#187;</text><text fill="#000000" font-family="sans-serif" font-size="8.4" lengthAdjust="spacing" textLength="27.6" x="1077.9" y="630.2238">Course</text><rect fill="#E2E2F0" height="30.7453" rx="1.5" ry="1.5" style="stroke:#181818;stroke-width:0.3;" width="54" x="1120.5" y="21.6"/><text fill="#000000" font-family="sans-serif" font-size="8.4" font-style="italic" lengthAdjust="spacing" textLength="21.6" x="1136.7" y="34.8645">&#171;dto&#187;</text><text fill="#000000" font-family="sans-serif" font-size="8.4" lengthAdjust="spacing" textLength="45.6" x="1124.7" y="46.0371">CourseDTO</text><rect fill="#E2E2F0" height="30.7453" rx="1.5" ry="1.5" style="stroke:#181818;stroke-width:0.3;" width="54" x="1120.5" y="605.7867"/><text fill="#000000" font-family="sans-serif" font-size="8.4" font-style="italic" lengthAdjust="spacing" textLength="21.6" x="1136.7" y="619.0512">&#171;dto&#187;</text><text fill="#000000" font-family="sans-serif" font-size="8.4" lengthAdjust="spacing" textLength="45.6" x="1124.7" y="630.2238">CourseDTO</text><rect fill="#E2E2F0" height="30.7453" rx="1.5" ry="1.5" style="stroke:#181818;stroke-width:0.3;" width="46.8" x="1180.5" y="21.6"/><text fill="#000000" font-family="sans-serif" font-size="8.4" font-style="italic" lengthAdjust="spacing" textLength="21.6" x="1193.1" y="34.8645">&#171;dto&#187;</text><text fill="#000000" font-family="sans-serif" font-size="8.4" lengthAdjust="spacing" textLength="38.4" x="1184.7" y="46.0371">ExamDTO</text><rect fill="#E2E2F0" height="30.7453" rx="1.5" ry="1.5" style="stroke:#181818;stroke-width:0.3;" width="46.8" x="1180.5" y="605.7867"/><text fill="#000000" font-family="sans-serif" font-size="8.4" font-style="italic" lengthAdjust="spacing" textLength="21.6" x="1193.1" y="619.0512">&#171;dto&#187;</text><text fill="#000000" font-family="sans-serif" font-size="8.4" lengthAdjust="spacing" textLength="38.4" x="1184.7" y="630.2238">ExamDTO</text><text fill="#000000" font-family="sans-serif" font-size="8.4" font-style="italic" lengthAdjust="spacing" textLength="47.4" x="1243.8" y="39.6645">&#171;repository&#187;</text><text fill="#000000" font-family="sans-serif" font-size="8.4" lengthAdjust="spacing" textLength="68.4" x="1233.3" y="50.8371">CourseRepository</text><path d="M1258.5,9 C1258.5,3 1269.3,3 1269.3,3 C1269.3,3 1280.1,3 1280.1,9 L1280.1,24.6 C1280.1,30.6 1269.3,30.6 1269.3,30.6 C1269.3,30.6 1258.5,30.6 1258.5,24.6 L1258.5,9 " fill="#E2E2F0" style="stroke:#181818;stroke-width:0.8999999999999999;"/><path d="M1258.5,9 C1258.5,15 1269.3,15 1269.3,15 C1269.3,15 1280.1,15 1280.1,9 " fill="none" style="stroke:#181818;stroke-width:0.8999999999999999;"/><text fill="#000000" font-family="sans-serif" font-size="8.4" font-style="italic" lengthAdjust="spacing" textLength="47.4" x="1243.8" y="614.8512">&#171;repository&#187;</text><text fill="#000000" font-family="sans-serif" font-size="8.4" lengthAdjust="spacing" textLength="68.4" x="1233.3" y="626.0238">CourseRepository</text><path d="M1258.5,634.132 C1258.5,628.132 1269.3,628.132 1269.3,628.132 C1269.3,628.132 1280.1,628.132 1280.1,634.132 L1280.1,649.732 C1280.1,655.732 1269.3,655.732 1269.3,655.732 C1269.3,655.732 1258.5,655.732 1258.5,649.732 L1258.5,634.132 " fill="#E2E2F0" style="stroke:#181818;stroke-width:0.8999999999999999;"/><path d="M1258.5,634.132 C1258.5,640.132 1269.3,640.132 1269.3,640.132 C1269.3,640.132 1280.1,640.132 1280.1,634.132 " fill="none" style="stroke:#181818;stroke-width:0.8999999999999999;"/><text fill="#000000" font-family="sans-serif" font-size="8.4" font-style="italic" lengthAdjust="spacing" textLength="47.4" x="1322.7" y="39.6645">&#171;repository&#187;</text><text fill="#000000" font-family="sans-serif" font-size="8.4" lengthAdjust="spacing" textLength="70.2" x="1311.3" y="50.8371">StudentRepository</text><path d="M1337.4,9 C1337.4,3 1348.2,3 1348.2,3 C1348.2,3 1359,3 1359,9 L1359,24.6 C1359,30.6 1348.2,30.6 1348.2,30.6 C1348.2,30.6 1337.4,30.6 1337.4,24.6 L1337.4,9 " fill="#E2E2F0" style="stroke:#181818;stroke-width:0.8999999999999999;"/><path d="M1337.4,9 C1337.4,15 1348.2,15 1348.2,15 C1348.2,15 1359,15 1359,9 " fill="none" style="stroke:#181818;stroke-width:0.8999999999999999;"/><text fill="#000000" font-family="sans-serif" font-size="8.4" font-style="italic" lengthAdjust="spacing" textLength="47.4" x="1322.7" y="614.8512">&#171;repository&#187;</text><text fill="#000000" font-family="sans-serif" font-size="8.4" lengthAdjust="spacing" textLength="70.2" x="1311.3" y="626.0238">StudentRepository</text><path d="M1337.4,634.132 C1337.4,628.132 1348.2,628.132 1348.2,628.132 C1348.2,628.132 1359,628.132 1359,634.132 L1359,649.732 C1359,655.732 1348.2,655.732 1348.2,655.732 C1348.2,655.732 1337.4,655.732 1337.4,649.732 L1337.4,634.132 " fill="#E2E2F0" style="stroke:#181818;stroke-width:0.8999999999999999;"/><path d="M1337.4,634.132 C1337.4,640.132 1348.2,640.132 1348.2,640.132 C1348.2,640.132 1359,640.132 1359,634.132 " fill="none" style="stroke:#181818;stroke-width:0.8999999999999999;"/><text fill="#000000" font-family="sans-serif" font-size="8.4" font-style="italic" lengthAdjust="spacing" textLength="47.4" x="1401.6" y="39.6645">&#171;repository&#187;</text><text fill="#000000" font-family="sans-serif" font-size="8.4" lengthAdjust="spacing" textLength="68.4" x="1391.1" y="50.8371">CourseRepository</text><path d="M1416.3,9 C1416.3,3 1427.1,3 1427.1,3 C1427.1,3 1437.9,3 1437.9,9 L1437.9,24.6 C1437.9,30.6 1427.1,30.6 1427.1,30.6 C1427.1,30.6 1416.3,30.6 1416.3,24.6 L1416.3,9 " fill="#E2E2F0" style="stroke:#181818;stroke-width:0.8999999999999999;"/><path d="M1416.3,9 C1416.3,15 1427.1,15 1427.1,15 C1427.1,15 1437.9,15 1437.9,9 " fill="none" style="stroke:#181818;stroke-width:0.8999999999999999;"/><text fill="#000000" font-family="sans-serif" font-size="8.4" font-style="italic" lengthAdjust="spacing" textLength="47.4" x="1401.6" y="614.8512">&#171;repository&#187;</text><text fill="#000000" font-family="sans-serif" font-size="8.4" lengthAdjust="spacing" textLength="68.4" x="1391.1" y="626.0238">CourseRepository</text><path d="M1416.3,634.132 C1416.3,628.132 1427.1,628.132 1427.1,628.132 C1427.1,628.132 1437.9,628.132 1437.9,634.132 L1437.9,649.732 C1437.9,655.732 1427.1,655.732 1427.1,655.732 C1427.1,655.732 1416.3,655.732 1416.3,649.732 L1416.3,634.132 " fill="#E2E2F0" style="stroke:#181818;stroke-width:0.8999999999999999;"/><path d="M1416.3,634.132 C1416.3,640.132 1427.1,640.132 1427.1,640.132 C1427.1,640.132 1437.9,640.132 1437.9,634.132 " fill="none" style="stroke:#181818;stroke-width:0.8999999999999999;"/><text fill="#000000" font-family="sans-serif" font-size="8.4" font-style="italic" lengthAdjust="spacing" textLength="47.4" x="1476" y="39.6645">&#171;repository&#187;</text><text fill="#000000" font-family="sans-serif" font-size="8.4" lengthAdjust="spacing" textLength="61.2" x="1469.1" y="50.8371">ExamRepository</text><path d="M1490.7,9 C1490.7,3 1501.5,3 1501.5,3 C1501.5,3 1512.3,3 1512.3,9 L1512.3,24.6 C1512.3,30.6 1501.5,30.6 1501.5,30.6 C1501.5,30.6 1490.7,30.6 1490.7,24.6 L1490.7,9 " fill="#E2E2F0" style="stroke:#181818;stroke-width:0.8999999999999999;"/><path d="M1490.7,9 C1490.7,15 1501.5,15 1501.5,15 C1501.5,15 1512.3,15 1512.3,9 " fill="none" style="stroke:#181818;stroke-width:0.8999999999999999;"/><text fill="#000000" font-family="sans-serif" font-size="8.4" font-style="italic" lengthAdjust="spacing" textLength="47.4" x="1476" y="614.8512">&#171;repository&#187;</text><text fill="#000000" font-family="sans-serif" font-size="8.4" lengthAdjust="spacing" textLength="61.2" x="1469.1" y="626.0238">ExamRepository</text><path d="M1490.7,634.132 C1490.7,628.132 1501.5,628.132 1501.5,628.132 C1501.5,628.132 1512.3,628.132 1512.3,634.132 L1512.3,649.732 C1512.3,655.732 1501.5,655.732 1501.5,655.732 C1501.5,655.732 1490.7,655.732 1490.7,649.732 L1490.7,634.132 " fill="#E2E2F0" style="stroke:#181818;stroke-width:0.8999999999999999;"/><path d="M1490.7,634.132 C1490.7,640.132 1501.5,640.132 1501.5,640.132 C1501.5,640.132 1512.3,640.132 1512.3,634.132 " fill="none" style="stroke:#181818;stroke-width:0.8999999999999999;"/><text fill="#000000" font-family="sans-serif" font-size="8.4" font-style="italic" lengthAdjust="spacing" textLength="47.4" x="1555.8" y="39.6645">&#171;repository&#187;</text><text fill="#000000" font-family="sans-serif" font-size="8.4" lengthAdjust="spacing" textLength="79.2" x="1539.9" y="50.8371">EnrolmentRepository</text><path d="M1570.5,9 C1570.5,3 1581.3,3 1581.3,3 C1581.3,3 1592.1,3 1592.1,9 L1592.1,24.6 C1592.1,30.6 1581.3,30.6 1581.3,30.6 C1581.3,30.6 1570.5,30.6 1570.5,24.6 L1570.5,9 " fill="#E2E2F0" style="stroke:#181818;stroke-width:0.8999999999999999;"/><path d="M1570.5,9 C1570.5,15 1581.3,15 1581.3,15 C1581.3,15 1592.1,15 1592.1,9 " fill="none" style="stroke:#181818;stroke-width:0.8999999999999999;"/><text fill="#000000" font-family="sans-serif" font-size="8.4" font-style="italic" lengthAdjust="spacing" textLength="47.4" x="1555.8" y="614.8512">&#171;repository&#187;</text><text fill="#000000" font-family="sans-serif" font-size="8.4" lengthAdjust="spacing" textLength="79.2" x="1539.9" y="626.0238">EnrolmentRepository</text><path d="M1570.5,634.132 C1570.5,628.132 1581.3,628.132 1581.3,628.132 C1581.3,628.132 1592.1,628.132 1592.1,634.132 L1592.1,649.732 C1592.1,655.732 1581.3,655.732 1581.3,655.732 C1581.3,655.732 1570.5,655.732 1570.5,649.732 L1570.5,634.132 " fill="#E2E2F0" style="stroke:#181818;stroke-width:0.8999999999999999;"/><path d="M1570.5,634.132 C1570.5,640.132 1581.3,640.132 1581.3,640.132 C1581.3,640.132 1592.1,640.132 1592.1,634.132 " fill="none" style="stroke:#181818;stroke-width:0.8999999999999999;"/><rect fill="#FFFFFF" height="326.6953" style="stroke:#181818;stroke-width:0.6;" width="6" x="225.9" y="72.9199"/><rect fill="#FFFFFF" height="182.5969" style="stroke:#181818;stroke-width:0.6;" width="6" x="225.9" y="418.3898"/><rect fill="#FFFFFF" height="18" style="stroke:#181818;stroke-width:0.6;" width="6" x="534.3" y="91.6945"/><rect fill="#FFFFFF" height="257.1715" style="stroke:#181818;stroke-width:0.6;" width="6" x="534.3" y="128.4691"/><rect fill="#FFFFFF" height="16.8" style="stroke:#181818;stroke-width:0.6;" width="6" x="537.3" y="351.4406"/><rect fill="#FFFFFF" height="117.873" style="stroke:#181818;stroke-width:0.6;" width="6" x="534.3" y="463.7391"/><rect fill="#FFFFFF" height="18" style="stroke:#181818;stroke-width:0.6;" width="6" x="740.1" y="147.2438"/><rect fill="#FFFFFF" height="99.0984" style="stroke:#181818;stroke-width:0.6;" width="6" x="909.9" y="482.5137"/><rect fill="#FFFFFF" height="18.7746" style="stroke:#181818;stroke-width:0.6;" width="6" x="984.3" y="553.8375"/><rect fill="#FFFFFF" height="18.7746" style="stroke:#181818;stroke-width:0.6;" width="6" x="1088.7" y="304.8914"/><rect fill="#FFFFFF" height="18" style="stroke:#181818;stroke-width:0.6;" width="6" x="1345.2" y="184.0184"/><rect fill="#FFFFFF" height="18" style="stroke:#181818;stroke-width:0.6;" width="6" x="1498.5" y="501.2883"/><rect fill="#FFFFFF" height="18" style="stroke:#181818;stroke-width:0.6;" width="6" x="1578.3" y="220.793"/><polygon fill="#181818" points="218.7,70.5199,224.7,72.9199,218.7,75.3199,221.1,72.9199" style="stroke:#181818;stroke-width:0.6;"/><line style="stroke:#181818;stroke-width:0.6;" x1="19.5" x2="222.3" y1="72.9199" y2="72.9199"/><text fill="#000000" font-family="sans-serif" font-size="7.8" font-weight="bold" lengthAdjust="spacing" textLength="4.2" x="23.7" y="69.7623">1</text><text fill="#000000" font-family="sans-serif" font-size="7.8" lengthAdjust="spacing" textLength="157.2" x="30.3" y="69.7623">requests to view the future exams in a course</text><polygon fill="#181818" points="527.1,89.2945,533.1,91.6945,527.1,94.0945,529.5,91.6945" style="stroke:#181818;stroke-width:0.6;"/><line style="stroke:#181818;stroke-width:0.6;" x1="231.9" x2="530.7" y1="91.6945" y2="91.6945"/><text fill="#000000" font-family="sans-serif" font-size="7.8" font-weight="bold" lengthAdjust="spacing" textLength="4.2" x="236.1" y="88.5369">2</text><text fill="#000000" font-family="sans-serif" font-size="7.8" lengthAdjust="spacing" textLength="284.4" x="242.7" y="88.5369">new(examRepository, enrolmentRepository, studentRepository, courseRepository)</text><polygon fill="#181818" points="527.1,126.0691,533.1,128.4691,527.1,130.8691,529.5,128.4691" style="stroke:#181818;stroke-width:0.6;"/><line style="stroke:#181818;stroke-width:0.6;" x1="231.9" x2="530.7" y1="128.4691" y2="128.4691"/><text fill="#000000" font-family="sans-serif" font-size="7.8" font-weight="bold" lengthAdjust="spacing" textLength="4.2" x="236.1" y="125.3115">3</text><text fill="#000000" font-family="sans-serif" font-size="7.8" lengthAdjust="spacing" textLength="108" x="242.7" y="125.3115">courses = listStudentCourses()</text><polygon fill="#181818" points="732.9,144.8438,738.9,147.2438,732.9,149.6437,735.3,147.2438" style="stroke:#181818;stroke-width:0.6;"/><line style="stroke:#181818;stroke-width:0.6;" x1="540.3" x2="736.5" y1="147.2438" y2="147.2438"/><text fill="#000000" font-family="sans-serif" font-size="7.8" font-weight="bold" lengthAdjust="spacing" textLength="4.2" x="544.5" y="144.0861">4</text><text fill="#000000" font-family="sans-serif" font-size="7.8" lengthAdjust="spacing" textLength="181.8" x="551.1" y="144.0861">authenticatedUser = loggedinUserWithPermissions()</text><polygon fill="#181818" points="1338,181.6184,1344,184.0184,1338,186.4184,1340.4,184.0184" style="stroke:#181818;stroke-width:0.6;"/><line style="stroke:#181818;stroke-width:0.6;" x1="540.3" x2="1341.6" y1="184.0184" y2="184.0184"/><text fill="#000000" font-family="sans-serif" font-size="7.8" font-weight="bold" lengthAdjust="spacing" textLength="4.2" x="544.5" y="180.8607">5</text><text fill="#000000" font-family="sans-serif" font-size="7.8" lengthAdjust="spacing" textLength="201.6" x="551.1" y="180.8607">student = findByUsername(authenticatedUser.username())</text><polygon fill="#181818" points="1571.1,218.393,1577.1,220.793,1571.1,223.193,1573.5,220.793" style="stroke:#181818;stroke-width:0.6;"/><line style="stroke:#181818;stroke-width:0.6;" x1="540.3" x2="1574.7" y1="220.793" y2="220.793"/><text fill="#000000" font-family="sans-serif" font-size="7.8" font-weight="bold" lengthAdjust="spacing" textLength="4.2" x="544.5" y="217.6354">6</text><text fill="#000000" font-family="sans-serif" font-size="7.8" lengthAdjust="spacing" textLength="276.6" x="551.1" y="217.6354">enrolments = findByStudentMecanographicNumber(authenticatedUser.identity())</text><path d="M465,247.793 L508.8,247.793 L508.8,253.3676 L502.8,259.3676 L465,259.3676 L465,247.793 " fill="#EEEEEE" style="stroke:#000000;stroke-width:0.8999999999999999;"/><rect fill="none" height="133.6477" style="stroke:#000000;stroke-width:0.8999999999999999;" width="727.5" x="465" y="247.793"/><text fill="#000000" font-family="sans-serif" font-size="7.8" font-weight="bold" lengthAdjust="spacing" textLength="16.8" x="474" y="256.81">loop</text><text fill="#000000" font-family="sans-serif" font-size="6.6" font-weight="bold" lengthAdjust="spacing" textLength="68.4" x="517.8" y="256.115">[for each enrolment]</text><path d="M471,263.5676 L507.6,263.5676 L507.6,269.1422 L501.6,275.1422 L471,275.1422 L471,263.5676 " fill="#EEEEEE" style="stroke:#000000;stroke-width:0.8999999999999999;"/><rect fill="none" height="113.673" style="stroke:#000000;stroke-width:0.8999999999999999;" width="715.5" x="471" y="263.5676"/><text fill="#000000" font-family="sans-serif" font-size="7.8" font-weight="bold" lengthAdjust="spacing" textLength="9.6" x="480" y="272.5846">alt</text><text fill="#000000" font-family="sans-serif" font-size="6.6" font-weight="bold" lengthAdjust="spacing" textLength="89.4" x="516.6" y="271.8896">[if enrolment.isAccepted()]</text><path d="M477,279.3422 L520.8,279.3422 L520.8,284.9168 L514.8,290.9168 L477,290.9168 L477,279.3422 " fill="#EEEEEE" style="stroke:#000000;stroke-width:0.8999999999999999;"/><rect fill="none" height="49.1238" style="stroke:#000000;stroke-width:0.8999999999999999;" width="703.5" x="477" y="279.3422"/><text fill="#000000" font-family="sans-serif" font-size="7.8" font-weight="bold" lengthAdjust="spacing" textLength="16.8" x="486" y="288.3592">loop</text><text fill="#000000" font-family="sans-serif" font-size="6.6" font-weight="bold" lengthAdjust="spacing" textLength="93.6" x="529.8" y="287.6643">[for each enrolment course]</text><polygon fill="#181818" points="1081.5,302.4914,1087.5,304.8914,1081.5,307.2914,1083.9,304.8914" style="stroke:#181818;stroke-width:0.6;"/><line style="stroke:#181818;stroke-width:0.6;" x1="540.3" x2="1085.1" y1="304.8914" y2="304.8914"/><text fill="#000000" font-family="sans-serif" font-size="7.8" font-weight="bold" lengthAdjust="spacing" textLength="4.2" x="544.5" y="301.7338">7</text><text fill="#000000" font-family="sans-serif" font-size="7.8" lengthAdjust="spacing" textLength="99" x="551.1" y="301.7338">courseDTO = toDTO(course)</text><polygon fill="#181818" points="1140.3,321.266,1146.3,323.666,1140.3,326.066,1142.7,323.666" style="stroke:#181818;stroke-width:0.6;"/><line style="stroke:#181818;stroke-width:0.6;" x1="1091.7" x2="1143.9" y1="323.666" y2="323.666"/><text fill="#000000" font-family="sans-serif" font-size="7.8" font-weight="bold" lengthAdjust="spacing" textLength="4.2" x="1095.9" y="320.5084">8</text><text fill="#000000" font-family="sans-serif" font-size="7.8" lengthAdjust="spacing" textLength="13.8" x="1102.5" y="320.5084">new</text><line style="stroke:#181818;stroke-width:0.6;" x1="543.3" x2="568.5" y1="346.6406" y2="346.6406"/><line style="stroke:#181818;stroke-width:0.6;" x1="568.5" x2="568.5" y1="346.6406" y2="354.4406"/><line style="stroke:#181818;stroke-width:0.6;" x1="543.9" x2="568.5" y1="354.4406" y2="354.4406"/><polygon fill="#181818" points="549.9,352.0406,543.9,354.4406,549.9,356.8406,547.5,354.4406" style="stroke:#181818;stroke-width:0.6;"/><text fill="#000000" font-family="sans-serif" font-size="7.8" font-weight="bold" lengthAdjust="spacing" textLength="4.2" x="547.5" y="343.483">9</text><text fill="#000000" font-family="sans-serif" font-size="7.8" lengthAdjust="spacing" textLength="93.6" x="554.1" y="343.483">courses = add(courseDTO)</text><polygon fill="#181818" points="26.1,397.2152,20.1,399.6152,26.1,402.0152,23.7,399.6152" style="stroke:#181818;stroke-width:0.6;"/><line style="stroke:#181818;stroke-width:0.6;stroke-dasharray:2.0,2.0;" x1="22.5" x2="228.3" y1="399.6152" y2="399.6152"/><text fill="#000000" font-family="sans-serif" font-size="7.8" font-weight="bold" lengthAdjust="spacing" textLength="8.4" x="29.7" y="396.4576">10</text><text fill="#000000" font-family="sans-serif" font-size="7.8" lengthAdjust="spacing" textLength="181.2" x="40.5" y="396.4576">lists all the available courses and asks to select one</text><polygon fill="#181818" points="218.7,415.9898,224.7,418.3898,218.7,420.7898,221.1,418.3898" style="stroke:#181818;stroke-width:0.6;"/><line style="stroke:#181818;stroke-width:0.6;" x1="19.5" x2="222.3" y1="418.3898" y2="418.3898"/><text fill="#000000" font-family="sans-serif" font-size="7.8" font-weight="bold" lengthAdjust="spacing" textLength="8.4" x="23.7" y="415.2322">11</text><text fill="#000000" font-family="sans-serif" font-size="7.8" lengthAdjust="spacing" textLength="91.8" x="34.5" y="415.2322">selects the desired course</text><line style="stroke:#181818;stroke-width:0.6;" x1="231.9" x2="257.1" y1="437.1645" y2="437.1645"/><line style="stroke:#181818;stroke-width:0.6;" x1="257.1" x2="257.1" y1="437.1645" y2="444.9645"/><line style="stroke:#181818;stroke-width:0.6;" x1="232.5" x2="257.1" y1="444.9645" y2="444.9645"/><polygon fill="#181818" points="238.5,442.5645,232.5,444.9645,238.5,447.3645,236.1,444.9645" style="stroke:#181818;stroke-width:0.6;"/><text fill="#000000" font-family="sans-serif" font-size="7.8" font-weight="bold" lengthAdjust="spacing" textLength="8.4" x="236.1" y="434.0068">12</text><text fill="#000000" font-family="sans-serif" font-size="7.8" lengthAdjust="spacing" textLength="109.8" x="246.9" y="434.0068">course = select(courses, index)</text><polygon fill="#181818" points="527.1,461.3391,533.1,463.7391,527.1,466.1391,529.5,463.7391" style="stroke:#181818;stroke-width:0.6;"/><line style="stroke:#181818;stroke-width:0.6;" x1="231.9" x2="530.7" y1="463.7391" y2="463.7391"/><text fill="#000000" font-family="sans-serif" font-size="7.8" font-weight="bold" lengthAdjust="spacing" textLength="8.4" x="236.1" y="460.5814">13</text><text fill="#000000" font-family="sans-serif" font-size="7.8" lengthAdjust="spacing" textLength="105" x="246.9" y="460.5814">exams = futureExams(course)</text><polygon fill="#181818" points="902.7,480.1137,908.7,482.5137,902.7,484.9137,905.1,482.5137" style="stroke:#181818;stroke-width:0.6;"/><line style="stroke:#181818;stroke-width:0.6;" x1="540.3" x2="906.3" y1="482.5137" y2="482.5137"/><text fill="#000000" font-family="sans-serif" font-size="7.8" font-weight="bold" lengthAdjust="spacing" textLength="8.4" x="544.5" y="479.3561">14</text><text fill="#000000" font-family="sans-serif" font-size="7.8" lengthAdjust="spacing" textLength="118.8" x="555.3" y="479.3561">listAllFutureCourseExams(course)</text><polygon fill="#181818" points="1491.3,498.8883,1497.3,501.2883,1491.3,503.6883,1493.7,501.2883" style="stroke:#181818;stroke-width:0.6;"/><line style="stroke:#181818;stroke-width:0.6;" x1="915.9" x2="1494.9" y1="501.2883" y2="501.2883"/><text fill="#000000" font-family="sans-serif" font-size="7.8" font-weight="bold" lengthAdjust="spacing" textLength="8.4" x="920.1" y="498.1307">15</text><text fill="#000000" font-family="sans-serif" font-size="7.8" lengthAdjust="spacing" textLength="120.6" x="930.9" y="498.1307">findAllFutureCourseExams(course)</text><path d="M871.8,528.2883 L915.6,528.2883 L915.6,533.8629 L909.6,539.8629 L871.8,539.8629 L871.8,528.2883 " fill="#EEEEEE" style="stroke:#000000;stroke-width:0.8999999999999999;"/><rect fill="none" height="49.1238" style="stroke:#000000;stroke-width:0.8999999999999999;" width="361.5" x="871.8" y="528.2883"/><text fill="#000000" font-family="sans-serif" font-size="7.8" font-weight="bold" lengthAdjust="spacing" textLength="16.8" x="880.8" y="537.3053">loop</text><text fill="#000000" font-family="sans-serif" font-size="6.6" font-weight="bold" lengthAdjust="spacing" textLength="51.6" x="924.6" y="536.6104">[for each exam]</text><polygon fill="#181818" points="977.1,551.4375,983.1,553.8375,977.1,556.2375,979.5,553.8375" style="stroke:#181818;stroke-width:0.6;"/><line style="stroke:#181818;stroke-width:0.6;" x1="915.9" x2="980.7" y1="553.8375" y2="553.8375"/><text fill="#000000" font-family="sans-serif" font-size="7.8" font-weight="bold" lengthAdjust="spacing" textLength="8.4" x="920.1" y="550.6799">16</text><text fill="#000000" font-family="sans-serif" font-size="7.8" lengthAdjust="spacing" textLength="46.2" x="930.9" y="550.6799">toDTO(exam)</text><polygon fill="#181818" points="1196.7,570.2121,1202.7,572.6121,1196.7,575.0121,1199.1,572.6121" style="stroke:#181818;stroke-width:0.6;"/><line style="stroke:#181818;stroke-width:0.6;" x1="987.3" x2="1200.3" y1="572.6121" y2="572.6121"/><text fill="#000000" font-family="sans-serif" font-size="7.8" font-weight="bold" lengthAdjust="spacing" textLength="8.4" x="991.5" y="569.4545">17</text><text fill="#000000" font-family="sans-serif" font-size="7.8" lengthAdjust="spacing" textLength="13.8" x="1002.3" y="569.4545">new</text><polygon fill="#181818" points="26.1,593.1867,20.1,595.5867,26.1,597.9867,23.7,595.5867" style="stroke:#181818;stroke-width:0.6;"/><line style="stroke:#181818;stroke-width:0.6;stroke-dasharray:2.0,2.0;" x1="22.5" x2="225.3" y1="595.5867" y2="595.5867"/><text fill="#000000" font-family="sans-serif" font-size="7.8" font-weight="bold" lengthAdjust="spacing" textLength="8.4" x="29.7" y="592.4291">18</text><text fill="#000000" font-family="sans-serif" font-size="7.8" lengthAdjust="spacing" textLength="161.4" x="40.5" y="592.4291">displays all future exams of the chosen course</text><!--SRC=[ZLRBRjim4BphAnOvsO2R3n2I0AxheW7I9l2ZFHQCk8w9ogHAKaxyzrqkzRQSD9U8vCxCBZbBMfJUwFBmZ3P9HEQDXQkrBoLgVmN2mIP92c6zobGXj8Uh1-NyrzAN5fTluk2sznorlOURcyAY8vZmokYxktTX2wEzDNcEbk6BpUg124HHv2eRnSzBloVkQdMDzgWoPEnyk_b6M1UdXhY5AQt3eDx5B7wlLpylWqAAGyZoOqYCemyAa-OWr5aLIqr57-gjRKONusFsCMN-_23oo-Qnge- -GgmtOudMOSjUM2A55y-2H2BP2WlZ51dY569NooUAjCqS0PhuoYzzmFezn9Z2WW2F5n4XxtxyyltuUdFFoZZ391luT4SMJi7YtnATT-0D71M-0faETcnRmE1RK1e4P9nzw1Pr51u9cb0344VmSGeQNoVOItS6U9xE3DnmtsOLTJipRLK2UIAnF-u9Hx23MyY3UoDxt6et6J8bt7I4vGPAGRGTXd9BDWyqvkK5fT9X-4lv_HFQWtAEEh375nYwcV6ufcSVf7MjHBfJMdu-1Kej3ZWvqxqkwwLfHoFGT3Lut8Y4OqtRJNQDJBK9tp4JshnOKUnLzeDlkn5X5KALF_M40tLNcCT9Ram1ExeiQM7V2YS08lUWTktKjNBpBCE2H6ZF02uWQrC1_zLrLLrV7srerrio9_sVn9bf1MZFjaSJuO68MvszMQrrdHJkjf7fbWgrvCIJ4Lnp24CJ2YadJTuV6ParaaRdR3tud3GsANlRqJRdt9tYA5GkddDiX0Ln2FU7czXXZfa7ex5BIFtQzdmCSKmcqIcBSgp1gqOBYBXA1KPeLQERqUKWyMtQxybuRTnMjmW_VitHNMX8VcfYdVCyZwzcF8iBS0OayOKA-DWDeG7-4p_qU9mOE9Mmx8LM9pnrQMN7i1pDsB8qY138XVLDE6h1RXgHe355TudZHs_3w1AfN96BKpHAxmetEpxhR6_erqfzrFy0]--></g></svg>