<?xml version="1.0" encoding="us-ascii" standalone="no"?><svg xmlns="http://www.w3.org/2000/svg" xmlns:xlink="http://www.w3.org/1999/xlink" contentStyleType="text/css" height="774.9px" preserveAspectRatio="none" style="width:1958px;height:774px;background:#FFFFFF;" version="1.1" viewBox="0 0 1958 774" width="1958.6px" zoomAndPan="magnify"><defs/><g><rect fill="#FFFFFF" height="379.7445" style="stroke:#181818;stroke-width:0.6999999999999998;" width="7" x="263.55" y="85.0732"/><rect fill="#FFFFFF" height="213.0297" style="stroke:#181818;stroke-width:0.6999999999999998;" width="7" x="263.55" y="486.7215"/><rect fill="#FFFFFF" height="21" style="stroke:#181818;stroke-width:0.6999999999999998;" width="7" x="623.35" y="106.977"/><rect fill="#FFFFFF" height="298.6334" style="stroke:#181818;stroke-width:0.6999999999999998;" width="7" x="623.35" y="149.8807"/><rect fill="#FFFFFF" height="19.6" style="stroke:#181818;stroke-width:0.6999999999999998;" width="7" x="626.85" y="408.6141"/><rect fill="#FFFFFF" height="137.5186" style="stroke:#181818;stroke-width:0.6999999999999998;" width="7" x="623.35" y="539.6289"/><rect fill="#FFFFFF" height="21" style="stroke:#181818;stroke-width:0.6999999999999998;" width="7" x="863.45" y="171.7844"/><rect fill="#FFFFFF" height="42.9037" style="stroke:#181818;stroke-width:0.6999999999999998;" width="7" x="974.75" y="257.5918"/><rect fill="#FFFFFF" height="115.6148" style="stroke:#181818;stroke-width:0.6999999999999998;" width="7" x="1074.15" y="561.5326"/><rect fill="#FFFFFF" height="21.9037" style="stroke:#181818;stroke-width:0.6999999999999998;" width="7" x="1160.95" y="644.7437"/><rect fill="#FFFFFF" height="21.9037" style="stroke:#181818;stroke-width:0.6999999999999998;" width="7" x="1282.75" y="359.2066"/><rect fill="#FFFFFF" height="21" style="stroke:#181818;stroke-width:0.6999999999999998;" width="7" x="1582" y="214.6881"/><rect fill="#FFFFFF" height="21" style="stroke:#181818;stroke-width:0.6999999999999998;" width="7" x="1760.85" y="583.4363"/><rect fill="#FFFFFF" height="21" style="stroke:#181818;stroke-width:0.6999999999999998;" width="7" x="1853.95" y="279.4955"/><rect fill="none" height="132.6186" style="stroke:#000000;stroke-width:1.0499999999999998;" width="847.35" x="549.5" y="310.9955"/><rect fill="none" height="109.3148" style="stroke:#000000;stroke-width:1.0499999999999998;" width="833.35" x="556.5" y="329.3992"/><rect fill="none" height="57.3111" style="stroke:#000000;stroke-width:1.0499999999999998;" width="421.75" x="1029.7" y="614.9363"/><line style="stroke:#181818;stroke-width:0.3499999999999999;stroke-dasharray:5.0,5.0;" x1="22.4" x2="22.4" y1="61.7695" y2="706.0512"/><line style="stroke:#181818;stroke-width:0.3499999999999999;stroke-dasharray:5.0,5.0;" x1="266.7" x2="266.7" y1="61.7695" y2="706.0512"/><line style="stroke:#181818;stroke-width:0.3499999999999999;stroke-dasharray:5.0,5.0;" x1="626.5" x2="626.5" y1="61.7695" y2="706.0512"/><line style="stroke:#181818;stroke-width:0.3499999999999999;stroke-dasharray:5.0,5.0;" x1="866.6" x2="866.6" y1="61.7695" y2="706.0512"/><line style="stroke:#181818;stroke-width:0.3499999999999999;stroke-dasharray:5.0,5.0;" x1="977.9" x2="977.9" y1="61.7695" y2="706.0512"/><line style="stroke:#181818;stroke-width:0.3499999999999999;stroke-dasharray:5.0,5.0;" x1="1077.3" x2="1077.3" y1="61.7695" y2="706.0512"/><line style="stroke:#181818;stroke-width:0.3499999999999999;stroke-dasharray:5.0,5.0;" x1="1164.45" x2="1164.45" y1="61.7695" y2="706.0512"/><line style="stroke:#181818;stroke-width:0.3499999999999999;stroke-dasharray:5.0,5.0;" x1="1225.35" x2="1225.35" y1="61.7695" y2="706.0512"/><line style="stroke:#181818;stroke-width:0.3499999999999999;stroke-dasharray:5.0,5.0;" x1="1286.25" x2="1286.25" y1="61.7695" y2="706.0512"/><line style="stroke:#181818;stroke-width:0.3499999999999999;stroke-dasharray:5.0,5.0;" x1="1351.35" x2="1351.35" y1="61.7695" y2="706.0512"/><line style="stroke:#181818;stroke-width:0.3499999999999999;stroke-dasharray:5.0,5.0;" x1="1417.15" x2="1417.15" y1="61.7695" y2="706.0512"/><line style="stroke:#181818;stroke-width:0.3499999999999999;stroke-dasharray:5.0,5.0;" x1="1493.45" x2="1493.45" y1="61.7695" y2="706.0512"/><line style="stroke:#181818;stroke-width:0.3499999999999999;stroke-dasharray:5.0,5.0;" x1="1585.15" x2="1585.15" y1="61.7695" y2="706.0512"/><line style="stroke:#181818;stroke-width:0.3499999999999999;stroke-dasharray:5.0,5.0;" x1="1677.55" x2="1677.55" y1="61.7695" y2="706.0512"/><line style="stroke:#181818;stroke-width:0.3499999999999999;stroke-dasharray:5.0,5.0;" x1="1764.35" x2="1764.35" y1="61.7695" y2="706.0512"/><line style="stroke:#181818;stroke-width:0.3499999999999999;stroke-dasharray:5.0,5.0;" x1="1857.45" x2="1857.45" y1="61.7695" y2="706.0512"/><line style="stroke:#181818;stroke-width:0.3499999999999999;stroke-dasharray:5.0,5.0;" x1="1933.75" x2="1933.75" y1="61.7695" y2="706.0512"/><text fill="#000000" font-family="sans-serif" font-size="9.8" lengthAdjust="spacing" textLength="34.3" x="3.5" y="59.31">Student</text><ellipse cx="22.75" cy="12.6848" fill="#E2E2F0" rx="5.6" ry="5.6" style="stroke:#181818;stroke-width:0.3499999999999999;"/><path d="M22.75,18.2848 L22.75,37.1848 M13.65,23.8848 L31.85,23.8848 M22.75,37.1848 L13.65,47.6848 M22.75,37.1848 L31.85,47.6848 " fill="none" style="stroke:#181818;stroke-width:0.3499999999999999;"/><text fill="#000000" font-family="sans-serif" font-size="9.8" lengthAdjust="spacing" textLength="34.3" x="3.5" y="715.9264">Student</text><ellipse cx="22.75" cy="724.3359" fill="#E2E2F0" rx="5.6" ry="5.6" style="stroke:#181818;stroke-width:0.3499999999999999;"/><path d="M22.75,729.9359 L22.75,748.8359 M13.65,735.5359 L31.85,735.5359 M22.75,748.8359 L13.65,759.3359 M22.75,748.8359 L31.85,759.3359 " fill="none" style="stroke:#181818;stroke-width:0.3499999999999999;"/><rect fill="#E2E2F0" height="35.8695" rx="1.75" ry="1.75" style="stroke:#181818;stroke-width:0.3499999999999999;" width="91.7" x="221.2" y="25.2"/><text fill="#000000" font-family="sans-serif" font-size="9.8" font-style="italic" lengthAdjust="spacing" textLength="66.5" x="233.8" y="40.6752">&#171;presentation&#187;</text><text fill="#000000" font-family="sans-serif" font-size="9.8" lengthAdjust="spacing" textLength="81.9" x="226.1" y="53.71">ListFutureExamsUI</text><rect fill="#E2E2F0" height="35.8695" rx="1.75" ry="1.75" style="stroke:#181818;stroke-width:0.3499999999999999;" width="91.7" x="221.2" y="705.3512"/><text fill="#000000" font-family="sans-serif" font-size="9.8" font-style="italic" lengthAdjust="spacing" textLength="66.5" x="233.8" y="720.8264">&#171;presentation&#187;</text><text fill="#000000" font-family="sans-serif" font-size="9.8" lengthAdjust="spacing" textLength="81.9" x="226.1" y="733.8611">ListFutureExamsUI</text><rect fill="#E2E2F0" height="35.8695" rx="1.75" ry="1.75" style="stroke:#181818;stroke-width:0.3499999999999999;" width="126.7" x="563.5" y="25.2"/><text fill="#000000" font-family="sans-serif" font-size="9.8" font-style="italic" lengthAdjust="spacing" textLength="58.8" x="597.45" y="40.6752">&#171;application&#187;</text><text fill="#000000" font-family="sans-serif" font-size="9.8" lengthAdjust="spacing" textLength="116.9" x="568.4" y="53.71">ListFutureExamsController</text><rect fill="#E2E2F0" height="35.8695" rx="1.75" ry="1.75" style="stroke:#181818;stroke-width:0.3499999999999999;" width="126.7" x="563.5" y="705.3512"/><text fill="#000000" font-family="sans-serif" font-size="9.8" font-style="italic" lengthAdjust="spacing" textLength="58.8" x="597.45" y="720.8264">&#171;application&#187;</text><text fill="#000000" font-family="sans-serif" font-size="9.8" lengthAdjust="spacing" textLength="116.9" x="568.4" y="733.8611">ListFutureExamsController</text><rect fill="#E2E2F0" height="35.8695" rx="1.75" ry="1.75" style="stroke:#181818;stroke-width:0.3499999999999999;" width="105.7" x="814.1" y="25.2"/><text fill="#000000" font-family="sans-serif" font-size="9.8" font-style="italic" lengthAdjust="spacing" textLength="42" x="845.95" y="40.6752">&#171;service&#187;</text><text fill="#000000" font-family="sans-serif" font-size="9.8" lengthAdjust="spacing" textLength="95.9" x="819" y="53.71">AuthenticationService</text><rect fill="#E2E2F0" height="35.8695" rx="1.75" ry="1.75" style="stroke:#181818;stroke-width:0.3499999999999999;" width="105.7" x="814.1" y="705.3512"/><text fill="#000000" font-family="sans-serif" font-size="9.8" font-style="italic" lengthAdjust="spacing" textLength="42" x="845.95" y="720.8264">&#171;service&#187;</text><text fill="#000000" font-family="sans-serif" font-size="9.8" lengthAdjust="spacing" textLength="95.9" x="819" y="733.8611">AuthenticationService</text><rect fill="#E2E2F0" height="35.8695" rx="1.75" ry="1.75" style="stroke:#181818;stroke-width:0.3499999999999999;" width="102.9" x="926.8" y="25.2"/><text fill="#000000" font-family="sans-serif" font-size="9.8" font-style="italic" lengthAdjust="spacing" textLength="42" x="957.25" y="40.6752">&#171;service&#187;</text><text fill="#000000" font-family="sans-serif" font-size="9.8" lengthAdjust="spacing" textLength="93.1" x="931.7" y="53.71">EnrolmentListService</text><rect fill="#E2E2F0" height="35.8695" rx="1.75" ry="1.75" style="stroke:#181818;stroke-width:0.3499999999999999;" width="102.9" x="926.8" y="705.3512"/><text fill="#000000" font-family="sans-serif" font-size="9.8" font-style="italic" lengthAdjust="spacing" textLength="42" x="957.25" y="720.8264">&#171;service&#187;</text><text fill="#000000" font-family="sans-serif" font-size="9.8" lengthAdjust="spacing" textLength="93.1" x="931.7" y="733.8611">EnrolmentListService</text><rect fill="#E2E2F0" height="35.8695" rx="1.75" ry="1.75" style="stroke:#181818;stroke-width:0.3499999999999999;" width="81.9" x="1036.7" y="25.2"/><text fill="#000000" font-family="sans-serif" font-size="9.8" font-style="italic" lengthAdjust="spacing" textLength="42" x="1056.65" y="40.6752">&#171;service&#187;</text><text fill="#000000" font-family="sans-serif" font-size="9.8" lengthAdjust="spacing" textLength="72.1" x="1041.6" y="53.71">ExamListService</text><rect fill="#E2E2F0" height="35.8695" rx="1.75" ry="1.75" style="stroke:#181818;stroke-width:0.3499999999999999;" width="81.9" x="1036.7" y="705.3512"/><text fill="#000000" font-family="sans-serif" font-size="9.8" font-style="italic" lengthAdjust="spacing" textLength="42" x="1056.65" y="720.8264">&#171;service&#187;</text><text fill="#000000" font-family="sans-serif" font-size="9.8" lengthAdjust="spacing" textLength="72.1" x="1041.6" y="733.8611">ExamListService</text><rect fill="#E2E2F0" height="35.8695" rx="1.75" ry="1.75" style="stroke:#181818;stroke-width:0.3499999999999999;" width="53.2" x="1137.85" y="25.2"/><text fill="#000000" font-family="sans-serif" font-size="9.8" font-style="italic" lengthAdjust="spacing" textLength="43.4" x="1142.75" y="40.6752">&#171;domain&#187;</text><text fill="#000000" font-family="sans-serif" font-size="9.8" lengthAdjust="spacing" textLength="23.8" x="1152.55" y="53.71">Exam</text><rect fill="#E2E2F0" height="35.8695" rx="1.75" ry="1.75" style="stroke:#181818;stroke-width:0.3499999999999999;" width="53.2" x="1137.85" y="705.3512"/><text fill="#000000" font-family="sans-serif" font-size="9.8" font-style="italic" lengthAdjust="spacing" textLength="43.4" x="1142.75" y="720.8264">&#171;domain&#187;</text><text fill="#000000" font-family="sans-serif" font-size="9.8" lengthAdjust="spacing" textLength="23.8" x="1152.55" y="733.8611">Exam</text><rect fill="#E2E2F0" height="35.8695" rx="1.75" ry="1.75" style="stroke:#181818;stroke-width:0.3499999999999999;" width="54.6" x="1198.05" y="25.2"/><text fill="#000000" font-family="sans-serif" font-size="9.8" font-style="italic" lengthAdjust="spacing" textLength="43.4" x="1203.65" y="40.6752">&#171;domain&#187;</text><text fill="#000000" font-family="sans-serif" font-size="9.8" lengthAdjust="spacing" textLength="44.8" x="1202.95" y="53.71">Enrolment</text><rect fill="#E2E2F0" height="35.8695" rx="1.75" ry="1.75" style="stroke:#181818;stroke-width:0.3499999999999999;" width="54.6" x="1198.05" y="705.3512"/><text fill="#000000" font-family="sans-serif" font-size="9.8" font-style="italic" lengthAdjust="spacing" textLength="43.4" x="1203.65" y="720.8264">&#171;domain&#187;</text><text fill="#000000" font-family="sans-serif" font-size="9.8" lengthAdjust="spacing" textLength="44.8" x="1202.95" y="733.8611">Enrolment</text><rect fill="#E2E2F0" height="35.8695" rx="1.75" ry="1.75" style="stroke:#181818;stroke-width:0.3499999999999999;" width="53.2" x="1259.65" y="25.2"/><text fill="#000000" font-family="sans-serif" font-size="9.8" font-style="italic" lengthAdjust="spacing" textLength="43.4" x="1264.55" y="40.6752">&#171;domain&#187;</text><text fill="#000000" font-family="sans-serif" font-size="9.8" lengthAdjust="spacing" textLength="32.2" x="1270.15" y="53.71">Course</text><rect fill="#E2E2F0" height="35.8695" rx="1.75" ry="1.75" style="stroke:#181818;stroke-width:0.3499999999999999;" width="53.2" x="1259.65" y="705.3512"/><text fill="#000000" font-family="sans-serif" font-size="9.8" font-style="italic" lengthAdjust="spacing" textLength="43.4" x="1264.55" y="720.8264">&#171;domain&#187;</text><text fill="#000000" font-family="sans-serif" font-size="9.8" lengthAdjust="spacing" textLength="32.2" x="1270.15" y="733.8611">Course</text><rect fill="#E2E2F0" height="35.8695" rx="1.75" ry="1.75" style="stroke:#181818;stroke-width:0.3499999999999999;" width="63" x="1319.85" y="25.2"/><text fill="#000000" font-family="sans-serif" font-size="9.8" font-style="italic" lengthAdjust="spacing" textLength="25.2" x="1338.75" y="40.6752">&#171;dto&#187;</text><text fill="#000000" font-family="sans-serif" font-size="9.8" lengthAdjust="spacing" textLength="53.2" x="1324.75" y="53.71">CourseDTO</text><rect fill="#E2E2F0" height="35.8695" rx="1.75" ry="1.75" style="stroke:#181818;stroke-width:0.3499999999999999;" width="63" x="1319.85" y="705.3512"/><text fill="#000000" font-family="sans-serif" font-size="9.8" font-style="italic" lengthAdjust="spacing" textLength="25.2" x="1338.75" y="720.8264">&#171;dto&#187;</text><text fill="#000000" font-family="sans-serif" font-size="9.8" lengthAdjust="spacing" textLength="53.2" x="1324.75" y="733.8611">CourseDTO</text><rect fill="#E2E2F0" height="35.8695" rx="1.75" ry="1.75" style="stroke:#181818;stroke-width:0.3499999999999999;" width="54.6" x="1389.85" y="25.2"/><text fill="#000000" font-family="sans-serif" font-size="9.8" font-style="italic" lengthAdjust="spacing" textLength="25.2" x="1404.55" y="40.6752">&#171;dto&#187;</text><text fill="#000000" font-family="sans-serif" font-size="9.8" lengthAdjust="spacing" textLength="44.8" x="1394.75" y="53.71">ExamDTO</text><rect fill="#E2E2F0" height="35.8695" rx="1.75" ry="1.75" style="stroke:#181818;stroke-width:0.3499999999999999;" width="54.6" x="1389.85" y="705.3512"/><text fill="#000000" font-family="sans-serif" font-size="9.8" font-style="italic" lengthAdjust="spacing" textLength="25.2" x="1404.55" y="720.8264">&#171;dto&#187;</text><text fill="#000000" font-family="sans-serif" font-size="9.8" lengthAdjust="spacing" textLength="44.8" x="1394.75" y="733.8611">ExamDTO</text><text fill="#000000" font-family="sans-serif" font-size="9.8" font-style="italic" lengthAdjust="spacing" textLength="55.3" x="1463.7" y="46.2752">&#171;repository&#187;</text><text fill="#000000" font-family="sans-serif" font-size="9.8" lengthAdjust="spacing" textLength="79.8" x="1451.45" y="59.31">CourseRepository</text><path d="M1480.85,10.5 C1480.85,3.5 1493.45,3.5 1493.45,3.5 C1493.45,3.5 1506.05,3.5 1506.05,10.5 L1506.05,28.7 C1506.05,35.7 1493.45,35.7 1493.45,35.7 C1493.45,35.7 1480.85,35.7 1480.85,28.7 L1480.85,10.5 " fill="#E2E2F0" style="stroke:#181818;stroke-width:1.0499999999999998;"/><path d="M1480.85,10.5 C1480.85,17.5 1493.45,17.5 1493.45,17.5 C1493.45,17.5 1506.05,17.5 1506.05,10.5 " fill="none" style="stroke:#181818;stroke-width:1.0499999999999998;"/><text fill="#000000" font-family="sans-serif" font-size="9.8" font-style="italic" lengthAdjust="spacing" textLength="55.3" x="1463.7" y="715.9264">&#171;repository&#187;</text><text fill="#000000" font-family="sans-serif" font-size="9.8" lengthAdjust="spacing" textLength="79.8" x="1451.45" y="728.9611">CourseRepository</text><path d="M1480.85,738.4207 C1480.85,731.4207 1493.45,731.4207 1493.45,731.4207 C1493.45,731.4207 1506.05,731.4207 1506.05,738.4207 L1506.05,756.6207 C1506.05,763.6207 1493.45,763.6207 1493.45,763.6207 C1493.45,763.6207 1480.85,763.6207 1480.85,756.6207 L1480.85,738.4207 " fill="#E2E2F0" style="stroke:#181818;stroke-width:1.0499999999999998;"/><path d="M1480.85,738.4207 C1480.85,745.4207 1493.45,745.4207 1493.45,745.4207 C1493.45,745.4207 1506.05,745.4207 1506.05,738.4207 " fill="none" style="stroke:#181818;stroke-width:1.0499999999999998;"/><text fill="#000000" font-family="sans-serif" font-size="9.8" font-style="italic" lengthAdjust="spacing" textLength="55.3" x="1555.75" y="46.2752">&#171;repository&#187;</text><text fill="#000000" font-family="sans-serif" font-size="9.8" lengthAdjust="spacing" textLength="81.9" x="1542.45" y="59.31">StudentRepository</text><path d="M1572.9,10.5 C1572.9,3.5 1585.5,3.5 1585.5,3.5 C1585.5,3.5 1598.1,3.5 1598.1,10.5 L1598.1,28.7 C1598.1,35.7 1585.5,35.7 1585.5,35.7 C1585.5,35.7 1572.9,35.7 1572.9,28.7 L1572.9,10.5 " fill="#E2E2F0" style="stroke:#181818;stroke-width:1.0499999999999998;"/><path d="M1572.9,10.5 C1572.9,17.5 1585.5,17.5 1585.5,17.5 C1585.5,17.5 1598.1,17.5 1598.1,10.5 " fill="none" style="stroke:#181818;stroke-width:1.0499999999999998;"/><text fill="#000000" font-family="sans-serif" font-size="9.8" font-style="italic" lengthAdjust="spacing" textLength="55.3" x="1555.75" y="715.9264">&#171;repository&#187;</text><text fill="#000000" font-family="sans-serif" font-size="9.8" lengthAdjust="spacing" textLength="81.9" x="1542.45" y="728.9611">StudentRepository</text><path d="M1572.9,738.4207 C1572.9,731.4207 1585.5,731.4207 1585.5,731.4207 C1585.5,731.4207 1598.1,731.4207 1598.1,738.4207 L1598.1,756.6207 C1598.1,763.6207 1585.5,763.6207 1585.5,763.6207 C1585.5,763.6207 1572.9,763.6207 1572.9,756.6207 L1572.9,738.4207 " fill="#E2E2F0" style="stroke:#181818;stroke-width:1.0499999999999998;"/><path d="M1572.9,738.4207 C1572.9,745.4207 1585.5,745.4207 1585.5,745.4207 C1585.5,745.4207 1598.1,745.4207 1598.1,738.4207 " fill="none" style="stroke:#181818;stroke-width:1.0499999999999998;"/><text fill="#000000" font-family="sans-serif" font-size="9.8" font-style="italic" lengthAdjust="spacing" textLength="55.3" x="1647.8" y="46.2752">&#171;repository&#187;</text><text fill="#000000" font-family="sans-serif" font-size="9.8" lengthAdjust="spacing" textLength="79.8" x="1635.55" y="59.31">CourseRepository</text><path d="M1664.95,10.5 C1664.95,3.5 1677.55,3.5 1677.55,3.5 C1677.55,3.5 1690.15,3.5 1690.15,10.5 L1690.15,28.7 C1690.15,35.7 1677.55,35.7 1677.55,35.7 C1677.55,35.7 1664.95,35.7 1664.95,28.7 L1664.95,10.5 " fill="#E2E2F0" style="stroke:#181818;stroke-width:1.0499999999999998;"/><path d="M1664.95,10.5 C1664.95,17.5 1677.55,17.5 1677.55,17.5 C1677.55,17.5 1690.15,17.5 1690.15,10.5 " fill="none" style="stroke:#181818;stroke-width:1.0499999999999998;"/><text fill="#000000" font-family="sans-serif" font-size="9.8" font-style="italic" lengthAdjust="spacing" textLength="55.3" x="1647.8" y="715.9264">&#171;repository&#187;</text><text fill="#000000" font-family="sans-serif" font-size="9.8" lengthAdjust="spacing" textLength="79.8" x="1635.55" y="728.9611">CourseRepository</text><path d="M1664.95,738.4207 C1664.95,731.4207 1677.55,731.4207 1677.55,731.4207 C1677.55,731.4207 1690.15,731.4207 1690.15,738.4207 L1690.15,756.6207 C1690.15,763.6207 1677.55,763.6207 1677.55,763.6207 C1677.55,763.6207 1664.95,763.6207 1664.95,756.6207 L1664.95,738.4207 " fill="#E2E2F0" style="stroke:#181818;stroke-width:1.0499999999999998;"/><path d="M1664.95,738.4207 C1664.95,745.4207 1677.55,745.4207 1677.55,745.4207 C1677.55,745.4207 1690.15,745.4207 1690.15,738.4207 " fill="none" style="stroke:#181818;stroke-width:1.0499999999999998;"/><text fill="#000000" font-family="sans-serif" font-size="9.8" font-style="italic" lengthAdjust="spacing" textLength="55.3" x="1734.6" y="46.2752">&#171;repository&#187;</text><text fill="#000000" font-family="sans-serif" font-size="9.8" lengthAdjust="spacing" textLength="71.4" x="1726.55" y="59.31">ExamRepository</text><path d="M1751.75,10.5 C1751.75,3.5 1764.35,3.5 1764.35,3.5 C1764.35,3.5 1776.95,3.5 1776.95,10.5 L1776.95,28.7 C1776.95,35.7 1764.35,35.7 1764.35,35.7 C1764.35,35.7 1751.75,35.7 1751.75,28.7 L1751.75,10.5 " fill="#E2E2F0" style="stroke:#181818;stroke-width:1.0499999999999998;"/><path d="M1751.75,10.5 C1751.75,17.5 1764.35,17.5 1764.35,17.5 C1764.35,17.5 1776.95,17.5 1776.95,10.5 " fill="none" style="stroke:#181818;stroke-width:1.0499999999999998;"/><text fill="#000000" font-family="sans-serif" font-size="9.8" font-style="italic" lengthAdjust="spacing" textLength="55.3" x="1734.6" y="715.9264">&#171;repository&#187;</text><text fill="#000000" font-family="sans-serif" font-size="9.8" lengthAdjust="spacing" textLength="71.4" x="1726.55" y="728.9611">ExamRepository</text><path d="M1751.75,738.4207 C1751.75,731.4207 1764.35,731.4207 1764.35,731.4207 C1764.35,731.4207 1776.95,731.4207 1776.95,738.4207 L1776.95,756.6207 C1776.95,763.6207 1764.35,763.6207 1764.35,763.6207 C1764.35,763.6207 1751.75,763.6207 1751.75,756.6207 L1751.75,738.4207 " fill="#E2E2F0" style="stroke:#181818;stroke-width:1.0499999999999998;"/><path d="M1751.75,738.4207 C1751.75,745.4207 1764.35,745.4207 1764.35,745.4207 C1764.35,745.4207 1776.95,745.4207 1776.95,738.4207 " fill="none" style="stroke:#181818;stroke-width:1.0499999999999998;"/><text fill="#000000" font-family="sans-serif" font-size="9.8" font-style="italic" lengthAdjust="spacing" textLength="55.3" x="1827.7" y="46.2752">&#171;repository&#187;</text><text fill="#000000" font-family="sans-serif" font-size="9.8" lengthAdjust="spacing" textLength="92.4" x="1809.15" y="59.31">EnrolmentRepository</text><path d="M1844.85,10.5 C1844.85,3.5 1857.45,3.5 1857.45,3.5 C1857.45,3.5 1870.05,3.5 1870.05,10.5 L1870.05,28.7 C1870.05,35.7 1857.45,35.7 1857.45,35.7 C1857.45,35.7 1844.85,35.7 1844.85,28.7 L1844.85,10.5 " fill="#E2E2F0" style="stroke:#181818;stroke-width:1.0499999999999998;"/><path d="M1844.85,10.5 C1844.85,17.5 1857.45,17.5 1857.45,17.5 C1857.45,17.5 1870.05,17.5 1870.05,10.5 " fill="none" style="stroke:#181818;stroke-width:1.0499999999999998;"/><text fill="#000000" font-family="sans-serif" font-size="9.8" font-style="italic" lengthAdjust="spacing" textLength="55.3" x="1827.7" y="715.9264">&#171;repository&#187;</text><text fill="#000000" font-family="sans-serif" font-size="9.8" lengthAdjust="spacing" textLength="92.4" x="1809.15" y="728.9611">EnrolmentRepository</text><path d="M1844.85,738.4207 C1844.85,731.4207 1857.45,731.4207 1857.45,731.4207 C1857.45,731.4207 1870.05,731.4207 1870.05,738.4207 L1870.05,756.6207 C1870.05,763.6207 1857.45,763.6207 1857.45,763.6207 C1857.45,763.6207 1844.85,763.6207 1844.85,756.6207 L1844.85,738.4207 " fill="#E2E2F0" style="stroke:#181818;stroke-width:1.0499999999999998;"/><path d="M1844.85,738.4207 C1844.85,745.4207 1857.45,745.4207 1857.45,745.4207 C1857.45,745.4207 1870.05,745.4207 1870.05,738.4207 " fill="none" style="stroke:#181818;stroke-width:1.0499999999999998;"/><rect fill="#E2E2F0" height="22.8348" rx="1.75" ry="1.75" style="stroke:#181818;stroke-width:0.3499999999999999;" width="42" x="1912.75" y="38.2348"/><text fill="#000000" font-family="sans-serif" font-size="9.8" lengthAdjust="spacing" textLength="32.2" x="1917.65" y="53.71">C_SRV</text><rect fill="#E2E2F0" height="22.8348" rx="1.75" ry="1.75" style="stroke:#181818;stroke-width:0.3499999999999999;" width="42" x="1912.75" y="705.3512"/><text fill="#000000" font-family="sans-serif" font-size="9.8" lengthAdjust="spacing" textLength="32.2" x="1917.65" y="720.8264">C_SRV</text><rect fill="#FFFFFF" height="379.7445" style="stroke:#181818;stroke-width:0.6999999999999998;" width="7" x="263.55" y="85.0732"/><rect fill="#FFFFFF" height="213.0297" style="stroke:#181818;stroke-width:0.6999999999999998;" width="7" x="263.55" y="486.7215"/><rect fill="#FFFFFF" height="21" style="stroke:#181818;stroke-width:0.6999999999999998;" width="7" x="623.35" y="106.977"/><rect fill="#FFFFFF" height="298.6334" style="stroke:#181818;stroke-width:0.6999999999999998;" width="7" x="623.35" y="149.8807"/><rect fill="#FFFFFF" height="19.6" style="stroke:#181818;stroke-width:0.6999999999999998;" width="7" x="626.85" y="408.6141"/><rect fill="#FFFFFF" height="137.5186" style="stroke:#181818;stroke-width:0.6999999999999998;" width="7" x="623.35" y="539.6289"/><rect fill="#FFFFFF" height="21" style="stroke:#181818;stroke-width:0.6999999999999998;" width="7" x="863.45" y="171.7844"/><rect fill="#FFFFFF" height="42.9037" style="stroke:#181818;stroke-width:0.6999999999999998;" width="7" x="974.75" y="257.5918"/><rect fill="#FFFFFF" height="115.6148" style="stroke:#181818;stroke-width:0.6999999999999998;" width="7" x="1074.15" y="561.5326"/><rect fill="#FFFFFF" height="21.9037" style="stroke:#181818;stroke-width:0.6999999999999998;" width="7" x="1160.95" y="644.7437"/><rect fill="#FFFFFF" height="21.9037" style="stroke:#181818;stroke-width:0.6999999999999998;" width="7" x="1282.75" y="359.2066"/><rect fill="#FFFFFF" height="21" style="stroke:#181818;stroke-width:0.6999999999999998;" width="7" x="1582" y="214.6881"/><rect fill="#FFFFFF" height="21" style="stroke:#181818;stroke-width:0.6999999999999998;" width="7" x="1760.85" y="583.4363"/><rect fill="#FFFFFF" height="21" style="stroke:#181818;stroke-width:0.6999999999999998;" width="7" x="1853.95" y="279.4955"/><polygon fill="#181818" points="255.15,82.2732,262.15,85.0732,255.15,87.8732,257.95,85.0732" style="stroke:#181818;stroke-width:0.6999999999999998;"/><line style="stroke:#181818;stroke-width:0.6999999999999998;" x1="22.75" x2="259.35" y1="85.0732" y2="85.0732"/><text fill="#000000" font-family="sans-serif" font-size="9.1" font-weight="bold" lengthAdjust="spacing" textLength="4.9" x="27.65" y="81.3894">1</text><text fill="#000000" font-family="sans-serif" font-size="9.1" lengthAdjust="spacing" textLength="183.4" x="35.35" y="81.3894">requests to view the future exams in a course</text><polygon fill="#181818" points="614.95,104.177,621.95,106.977,614.95,109.777,617.75,106.977" style="stroke:#181818;stroke-width:0.6999999999999998;"/><line style="stroke:#181818;stroke-width:0.6999999999999998;" x1="270.55" x2="619.15" y1="106.977" y2="106.977"/><text fill="#000000" font-family="sans-serif" font-size="9.1" font-weight="bold" lengthAdjust="spacing" textLength="4.9" x="275.45" y="103.2931">2</text><text fill="#000000" font-family="sans-serif" font-size="9.1" lengthAdjust="spacing" textLength="331.8" x="283.15" y="103.2931">new(examRepository, enrolmentRepository, studentRepository, courseRepository)</text><polygon fill="#181818" points="614.95,147.0807,621.95,149.8807,614.95,152.6807,617.75,149.8807" style="stroke:#181818;stroke-width:0.6999999999999998;"/><line style="stroke:#181818;stroke-width:0.6999999999999998;" x1="270.55" x2="619.15" y1="149.8807" y2="149.8807"/><text fill="#000000" font-family="sans-serif" font-size="9.1" font-weight="bold" lengthAdjust="spacing" textLength="4.9" x="275.45" y="146.1968">3</text><text fill="#000000" font-family="sans-serif" font-size="9.1" lengthAdjust="spacing" textLength="126" x="283.15" y="146.1968">courses = listStudentCourses()</text><polygon fill="#181818" points="855.05,168.9844,862.05,171.7844,855.05,174.5844,857.85,171.7844" style="stroke:#181818;stroke-width:0.6999999999999998;"/><line style="stroke:#181818;stroke-width:0.6999999999999998;" x1="630.35" x2="859.25" y1="171.7844" y2="171.7844"/><text fill="#000000" font-family="sans-serif" font-size="9.1" font-weight="bold" lengthAdjust="spacing" textLength="4.9" x="635.25" y="168.1005">4</text><text fill="#000000" font-family="sans-serif" font-size="9.1" lengthAdjust="spacing" textLength="212.1" x="642.95" y="168.1005">authenticatedUser = loggedinUserWithPermissions()</text><polygon fill="#181818" points="1573.6,211.8881,1580.6,214.6881,1573.6,217.4881,1576.4,214.6881" style="stroke:#181818;stroke-width:0.6999999999999998;"/><line style="stroke:#181818;stroke-width:0.6999999999999998;" x1="630.35" x2="1577.8" y1="214.6881" y2="214.6881"/><text fill="#000000" font-family="sans-serif" font-size="9.1" font-weight="bold" lengthAdjust="spacing" textLength="4.9" x="635.25" y="211.0042">5</text><text fill="#000000" font-family="sans-serif" font-size="9.1" lengthAdjust="spacing" textLength="235.2" x="642.95" y="211.0042">student = findByUsername(authenticatedUser.username())</text><polygon fill="#181818" points="966.35,254.7918,973.35,257.5918,966.35,260.3918,969.15,257.5918" style="stroke:#181818;stroke-width:0.6999999999999998;"/><line style="stroke:#181818;stroke-width:0.6999999999999998;" x1="630.35" x2="970.55" y1="257.5918" y2="257.5918"/><text fill="#000000" font-family="sans-serif" font-size="9.1" font-weight="bold" lengthAdjust="spacing" textLength="4.9" x="635.25" y="253.9079">6</text><text fill="#000000" font-family="sans-serif" font-size="9.1" lengthAdjust="spacing" textLength="322.7" x="642.95" y="253.9079">enrolments = findByStudentMecanographicNumber(authenticatedUser.identity())</text><polygon fill="#181818" points="1845.55,276.6955,1852.55,279.4955,1845.55,282.2955,1848.35,279.4955" style="stroke:#181818;stroke-width:0.6999999999999998;"/><line style="stroke:#181818;stroke-width:0.6999999999999998;" x1="981.75" x2="1849.75" y1="279.4955" y2="279.4955"/><text fill="#000000" font-family="sans-serif" font-size="9.1" font-weight="bold" lengthAdjust="spacing" textLength="4.9" x="986.65" y="275.8116">7</text><text fill="#000000" font-family="sans-serif" font-size="9.1" lengthAdjust="spacing" textLength="163.8" x="994.35" y="275.8116">findByStudentMecanographicNumber(ID)</text><path d="M549.5,310.9955 L600.6,310.9955 L600.6,317.4992 L593.6,324.4992 L549.5,324.4992 L549.5,310.9955 " fill="#EEEEEE" style="stroke:#000000;stroke-width:1.0499999999999998;"/><rect fill="none" height="132.6186" style="stroke:#000000;stroke-width:1.0499999999999998;" width="847.35" x="549.5" y="310.9955"/><text fill="#000000" font-family="sans-serif" font-size="9.1" font-weight="bold" lengthAdjust="spacing" textLength="19.6" x="560" y="321.5153">loop</text><text fill="#000000" font-family="sans-serif" font-size="7.7" font-weight="bold" lengthAdjust="spacing" textLength="79.8" x="611.1" y="320.7046">[for each enrolment]</text><path d="M556.5,329.3992 L599.2,329.3992 L599.2,335.9029 L592.2,342.9029 L556.5,342.9029 L556.5,329.3992 " fill="#EEEEEE" style="stroke:#000000;stroke-width:1.0499999999999998;"/><rect fill="none" height="109.3148" style="stroke:#000000;stroke-width:1.0499999999999998;" width="833.35" x="556.5" y="329.3992"/><text fill="#000000" font-family="sans-serif" font-size="9.1" font-weight="bold" lengthAdjust="spacing" textLength="11.2" x="567" y="339.919">alt</text><text fill="#000000" font-family="sans-serif" font-size="7.7" font-weight="bold" lengthAdjust="spacing" textLength="104.3" x="609.7" y="339.1083">[if enrolment.isAccepted()]</text><polygon fill="#181818" points="1274.35,356.4066,1281.35,359.2066,1274.35,362.0066,1277.15,359.2066" style="stroke:#181818;stroke-width:0.6999999999999998;"/><line style="stroke:#181818;stroke-width:0.6999999999999998;" x1="630.35" x2="1278.55" y1="359.2066" y2="359.2066"/><text fill="#000000" font-family="sans-serif" font-size="9.1" font-weight="bold" lengthAdjust="spacing" textLength="4.9" x="635.25" y="355.5228">8</text><text fill="#000000" font-family="sans-serif" font-size="9.1" lengthAdjust="spacing" textLength="163.8" x="642.95" y="355.5228">courseDTO = toDTO(enrolment.course())</text><polygon fill="#181818" points="1342.95,378.3104,1349.95,381.1104,1342.95,383.9104,1345.75,381.1104" style="stroke:#181818;stroke-width:0.6999999999999998;"/><line style="stroke:#181818;stroke-width:0.6999999999999998;" x1="1286.25" x2="1347.15" y1="381.1104" y2="381.1104"/><text fill="#000000" font-family="sans-serif" font-size="9.1" font-weight="bold" lengthAdjust="spacing" textLength="4.9" x="1291.15" y="377.4265">9</text><text fill="#000000" font-family="sans-serif" font-size="9.1" lengthAdjust="spacing" textLength="16.1" x="1298.85" y="377.4265">new</text><line style="stroke:#181818;stroke-width:0.6999999999999998;" x1="633.85" x2="663.25" y1="403.0141" y2="403.0141"/><line style="stroke:#181818;stroke-width:0.6999999999999998;" x1="663.25" x2="663.25" y1="403.0141" y2="412.1141"/><line style="stroke:#181818;stroke-width:0.6999999999999998;" x1="634.55" x2="663.25" y1="412.1141" y2="412.1141"/><polygon fill="#181818" points="641.55,409.3141,634.55,412.1141,641.55,414.9141,638.75,412.1141" style="stroke:#181818;stroke-width:0.6999999999999998;"/><text fill="#000000" font-family="sans-serif" font-size="9.1" font-weight="bold" lengthAdjust="spacing" textLength="9.8" x="638.75" y="399.3302">10</text><text fill="#000000" font-family="sans-serif" font-size="9.1" lengthAdjust="spacing" textLength="109.2" x="651.35" y="399.3302">courses = add(courseDTO)</text><polygon fill="#181818" points="30.45,462.0178,23.45,464.8178,30.45,467.6178,27.65,464.8178" style="stroke:#181818;stroke-width:0.6999999999999998;"/><line style="stroke:#181818;stroke-width:0.6999999999999998;stroke-dasharray:2.0,2.0;" x1="26.25" x2="266.35" y1="464.8178" y2="464.8178"/><text fill="#000000" font-family="sans-serif" font-size="9.1" font-weight="bold" lengthAdjust="spacing" textLength="9.8" x="34.65" y="461.1339">11</text><text fill="#000000" font-family="sans-serif" font-size="9.1" lengthAdjust="spacing" textLength="211.4" x="47.25" y="461.1339">lists all the available courses and asks to select one</text><polygon fill="#181818" points="255.15,483.9215,262.15,486.7215,255.15,489.5215,257.95,486.7215" style="stroke:#181818;stroke-width:0.6999999999999998;"/><line style="stroke:#181818;stroke-width:0.6999999999999998;" x1="22.75" x2="259.35" y1="486.7215" y2="486.7215"/><text fill="#000000" font-family="sans-serif" font-size="9.1" font-weight="bold" lengthAdjust="spacing" textLength="9.8" x="27.65" y="483.0376">12</text><text fill="#000000" font-family="sans-serif" font-size="9.1" lengthAdjust="spacing" textLength="107.1" x="40.25" y="483.0376">selects the desired course</text><line style="stroke:#181818;stroke-width:0.6999999999999998;" x1="270.55" x2="299.95" y1="508.6252" y2="508.6252"/><line style="stroke:#181818;stroke-width:0.6999999999999998;" x1="299.95" x2="299.95" y1="508.6252" y2="517.7252"/><line style="stroke:#181818;stroke-width:0.6999999999999998;" x1="271.25" x2="299.95" y1="517.7252" y2="517.7252"/><polygon fill="#181818" points="278.25,514.9252,271.25,517.7252,278.25,520.5252,275.45,517.7252" style="stroke:#181818;stroke-width:0.6999999999999998;"/><text fill="#000000" font-family="sans-serif" font-size="9.1" font-weight="bold" lengthAdjust="spacing" textLength="9.8" x="275.45" y="504.9413">13</text><text fill="#000000" font-family="sans-serif" font-size="9.1" lengthAdjust="spacing" textLength="128.1" x="288.05" y="504.9413">course = select(courses, index)</text><polygon fill="#181818" points="614.95,536.8289,621.95,539.6289,614.95,542.4289,617.75,539.6289" style="stroke:#181818;stroke-width:0.6999999999999998;"/><line style="stroke:#181818;stroke-width:0.6999999999999998;" x1="270.55" x2="619.15" y1="539.6289" y2="539.6289"/><text fill="#000000" font-family="sans-serif" font-size="9.1" font-weight="bold" lengthAdjust="spacing" textLength="9.8" x="275.45" y="535.945">14</text><text fill="#000000" font-family="sans-serif" font-size="9.1" lengthAdjust="spacing" textLength="122.5" x="288.05" y="535.945">exams = futureExams(course)</text><polygon fill="#181818" points="1065.75,558.7326,1072.75,561.5326,1065.75,564.3326,1068.55,561.5326" style="stroke:#181818;stroke-width:0.6999999999999998;"/><line style="stroke:#181818;stroke-width:0.6999999999999998;" x1="630.35" x2="1069.95" y1="561.5326" y2="561.5326"/><text fill="#000000" font-family="sans-serif" font-size="9.1" font-weight="bold" lengthAdjust="spacing" textLength="9.8" x="635.25" y="557.8487">15</text><text fill="#000000" font-family="sans-serif" font-size="9.1" lengthAdjust="spacing" textLength="138.6" x="647.85" y="557.8487">listAllFutureCourseExams(course)</text><polygon fill="#181818" points="1752.45,580.6363,1759.45,583.4363,1752.45,586.2363,1755.25,583.4363" style="stroke:#181818;stroke-width:0.6999999999999998;"/><line style="stroke:#181818;stroke-width:0.6999999999999998;" x1="1081.15" x2="1756.65" y1="583.4363" y2="583.4363"/><text fill="#000000" font-family="sans-serif" font-size="9.1" font-weight="bold" lengthAdjust="spacing" textLength="9.8" x="1086.05" y="579.7524">16</text><text fill="#000000" font-family="sans-serif" font-size="9.1" lengthAdjust="spacing" textLength="140.7" x="1098.65" y="579.7524">findAllFutureCourseExams(course)</text><path d="M1029.7,614.9363 L1080.8,614.9363 L1080.8,621.44 L1073.8,628.44 L1029.7,628.44 L1029.7,614.9363 " fill="#EEEEEE" style="stroke:#000000;stroke-width:1.0499999999999998;"/><rect fill="none" height="57.3111" style="stroke:#000000;stroke-width:1.0499999999999998;" width="421.75" x="1029.7" y="614.9363"/><text fill="#000000" font-family="sans-serif" font-size="9.1" font-weight="bold" lengthAdjust="spacing" textLength="19.6" x="1040.2" y="625.4562">loop</text><text fill="#000000" font-family="sans-serif" font-size="7.7" font-weight="bold" lengthAdjust="spacing" textLength="60.2" x="1091.3" y="624.6454">[for each exam]</text><polygon fill="#181818" points="1152.55,641.9437,1159.55,644.7437,1152.55,647.5437,1155.35,644.7437" style="stroke:#181818;stroke-width:0.6999999999999998;"/><line style="stroke:#181818;stroke-width:0.6999999999999998;" x1="1081.15" x2="1156.75" y1="644.7437" y2="644.7437"/><text fill="#000000" font-family="sans-serif" font-size="9.1" font-weight="bold" lengthAdjust="spacing" textLength="9.8" x="1086.05" y="641.0599">17</text><text fill="#000000" font-family="sans-serif" font-size="9.1" lengthAdjust="spacing" textLength="53.9" x="1098.65" y="641.0599">toDTO(exam)</text><polygon fill="#181818" points="1408.75,663.8475,1415.75,666.6475,1408.75,669.4475,1411.55,666.6475" style="stroke:#181818;stroke-width:0.6999999999999998;"/><line style="stroke:#181818;stroke-width:0.6999999999999998;" x1="1164.45" x2="1412.95" y1="666.6475" y2="666.6475"/><text fill="#000000" font-family="sans-serif" font-size="9.1" font-weight="bold" lengthAdjust="spacing" textLength="9.8" x="1169.35" y="662.9636">18</text><text fill="#000000" font-family="sans-serif" font-size="9.1" lengthAdjust="spacing" textLength="16.1" x="1181.95" y="662.9636">new</text><polygon fill="#181818" points="30.45,690.6512,23.45,693.4512,30.45,696.2512,27.65,693.4512" style="stroke:#181818;stroke-width:0.6999999999999998;"/><line style="stroke:#181818;stroke-width:0.6999999999999998;stroke-dasharray:2.0,2.0;" x1="26.25" x2="262.85" y1="693.4512" y2="693.4512"/><text fill="#000000" font-family="sans-serif" font-size="9.1" font-weight="bold" lengthAdjust="spacing" textLength="9.8" x="34.65" y="689.7673">19</text><text fill="#000000" font-family="sans-serif" font-size="9.1" lengthAdjust="spacing" textLength="188.3" x="47.25" y="689.7673">displays all future exams of the chosen course</text><!--SRC=[ZLRRJjmm47tFLunuMgGj7n01qdP9LIHQq5xQHsJYMTPgravjPs7_lkDBxdif4YAsppapuvoPm2ghPBLxGvqaBBTAmzNILXoblG9cO9Ka9TDMvA9aqiBLap3sMsKhZTadsvdreqUj7-7sjjHeYCQiKFB-_YnjhgJLgYXGU_fyjNWY0LQMXSYFycULtP9sF5sYteiSFNUsNdqdhWbRGrucASoEc2w1BYsJhyl5hpD4IdF4kKm9E7eW65Sx9kJ9Z68QSNKIFrULDY5-UBo0V5Wz1_0hFJciLSSIhM5P3vPmPjaReo11R86bCe9CSN3OHVP2IDti4Q71Hy_q2SjpZ6CHvaHuFibmUVVnsNbyVRcZCaQSP0LVxid6AMZyMw6n1go2lS0F8EF1nbiNq7aNX0G6kS_UTOpOCuj4JQW9ICDvEGM97nFifJi57ASp1JEyjscKRdUksoXEFE7ON_S21xA1EoYSUuDwk6ep6Iebll68wvie1TPs6V8rsTp9gFTtv4AwvMzXjo-eTy8OwiAUdbFePkRNjRptGLhNIg8R8VdNWvEKR8UJKToRgZwwxiHmCjqOVjq42HsTjjTica3n6dvWpgHwrwpSYloddtb7GWi75VRG2nt4apWrA9epKNfP_l6X8-8utVo7wnWaAPGgOKEJc8wsRJq902iiY4sxTIFCBC-nfDpfPO3_gUyZJelQ4gxDxyZKz7VIyiEPApMGMty4VqV98EL4_RZm_evdNJVMdEvUAAb9Qc1InlcaoU-IqO4AvmdzWhkXP7Jk-e1Yh5BlVKEtLVZkPNic2lPMO1EOaGOpVtoJ6ommjw0aTWMfdzkP4236Yt4qGYC_DW1Y8pf6EAK20pNMQAOqF3X-NlTxDeoLkpXb_0So4ausR1QyxkgS5KNuieRhFq7FWdzh-sQjV_-JFpAhtnXObRZU5cqSzobCQzlH8XYjLMaO3kWBwnjiPAN1PXHeJD4zylYZqpAuX0jJ5kmGZD8RyMhZttM-LVGVJVsg_m40]--></g></svg>