<?xml version="1.0" encoding="us-ascii" standalone="no"?><svg xmlns="http://www.w3.org/2000/svg" xmlns:xlink="http://www.w3.org/1999/xlink" contentStyleType="text/css" height="561.5px" preserveAspectRatio="none" style="width:1085px;height:561px;background:#FFFFFF;" version="1.1" viewBox="0 0 1085 561" width="1085.5px" zoomAndPan="magnify"><defs/><g><!--class ListFutureExamsUI--><g id="elem_ListFutureExamsUI"><rect codeLine="2" fill="#F1F1F1" height="24" id="ListFutureExamsUI" rx="1.25" ry="1.25" style="stroke:#181818;stroke-width:0.25;" width="74.5" x="338.25" y="3.5"/><ellipse cx="345.75" cy="11.5" fill="#ADD1B2" rx="5.5" ry="5.5" style="stroke:#181818;stroke-width:0.5;"/><path d="M347.1328,9.4375 Q347.2109,9.3281 347.3047,9.2734 Q347.3984,9.2188 347.5078,9.2188 Q347.6953,9.2188 347.8125,9.3516 Q347.9297,9.4766 347.9297,9.7813 L347.9297,10.5078 Q347.9297,10.8125 347.8125,10.9453 Q347.6953,11.0781 347.5078,11.0781 Q347.3359,11.0781 347.2344,10.9766 Q347.1328,10.8828 347.0781,10.625 Q347.0547,10.4453 346.9609,10.3516 Q346.7969,10.1641 346.4922,10.0547 Q346.1875,9.9453 345.875,9.9453 Q345.4922,9.9453 345.1719,10.1094 Q344.8594,10.2734 344.6094,10.6484 Q344.3672,11.0234 344.3672,11.5391 L344.3672,12.0859 Q344.3672,12.7031 344.8125,13.1172 Q345.2578,13.5234 346.0547,13.5234 Q346.5234,13.5234 346.8516,13.3984 Q347.0469,13.3203 347.2578,13.1016 Q347.3906,12.9688 347.4609,12.9297 Q347.5391,12.8906 347.6406,12.8906 Q347.8047,12.8906 347.9297,13.0234 Q348.0625,13.1484 348.0625,13.3203 Q348.0625,13.4922 347.8906,13.6953 Q347.6406,13.9844 347.2422,14.1484 Q346.7031,14.375 346.0547,14.375 Q345.2969,14.375 344.6953,14.0625 Q344.2031,13.8125 343.8594,13.2813 Q343.5156,12.7422 343.5156,12.1016 L343.5156,11.5234 Q343.5156,10.8594 343.8203,10.2891 Q344.1328,9.7109 344.6797,9.4063 Q345.2266,9.0938 345.8438,9.0938 Q346.2109,9.0938 346.5313,9.1797 Q346.8594,9.2578 347.1328,9.4375 Z " fill="#000000"/><text fill="#000000" font-family="sans-serif" font-size="7" lengthAdjust="spacing" textLength="58.5" x="352.75" y="14.3984">ListFutureExamsUI</text><line style="stroke:#181818;stroke-width:0.25;" x1="338.75" x2="412.25" y1="19.5" y2="19.5"/><line style="stroke:#181818;stroke-width:0.25;" x1="338.75" x2="412.25" y1="23.5" y2="23.5"/></g><!--class ListFutureExamsController--><g id="elem_ListFutureExamsController"><rect codeLine="6" fill="#F1F1F1" height="117.1055" id="ListFutureExamsController" rx="1.25" ry="1.25" style="stroke:#181818;stroke-width:0.25;" width="252.5" x="249.25" y="57.5"/><ellipse cx="331.625" cy="65.5" fill="#ADD1B2" rx="5.5" ry="5.5" style="stroke:#181818;stroke-width:0.5;"/><path d="M333.0078,63.4375 Q333.0859,63.3281 333.1797,63.2734 Q333.2734,63.2188 333.3828,63.2188 Q333.5703,63.2188 333.6875,63.3516 Q333.8047,63.4766 333.8047,63.7813 L333.8047,64.5078 Q333.8047,64.8125 333.6875,64.9453 Q333.5703,65.0781 333.3828,65.0781 Q333.2109,65.0781 333.1094,64.9766 Q333.0078,64.8828 332.9531,64.625 Q332.9297,64.4453 332.8359,64.3516 Q332.6719,64.1641 332.3672,64.0547 Q332.0625,63.9453 331.75,63.9453 Q331.3672,63.9453 331.0469,64.1094 Q330.7344,64.2734 330.4844,64.6484 Q330.2422,65.0234 330.2422,65.5391 L330.2422,66.0859 Q330.2422,66.7031 330.6875,67.1172 Q331.1328,67.5234 331.9297,67.5234 Q332.3984,67.5234 332.7266,67.3984 Q332.9219,67.3203 333.1328,67.1016 Q333.2656,66.9688 333.3359,66.9297 Q333.4141,66.8906 333.5156,66.8906 Q333.6797,66.8906 333.8047,67.0234 Q333.9375,67.1484 333.9375,67.3203 Q333.9375,67.4922 333.7656,67.6953 Q333.5156,67.9844 333.1172,68.1484 Q332.5781,68.375 331.9297,68.375 Q331.1719,68.375 330.5703,68.0625 Q330.0781,67.8125 329.7344,67.2813 Q329.3906,66.7422 329.3906,66.1016 L329.3906,65.5234 Q329.3906,64.8594 329.6953,64.2891 Q330.0078,63.7109 330.5547,63.4063 Q331.1016,63.0938 331.7188,63.0938 Q332.0859,63.0938 332.4063,63.1797 Q332.7344,63.2578 333.0078,63.4375 Z " fill="#000000"/><text fill="#000000" font-family="sans-serif" font-size="7" lengthAdjust="spacing" textLength="83.5" x="341.875" y="68.3984">ListFutureExamsController</text><line style="stroke:#181818;stroke-width:0.25;" x1="249.75" x2="501.25" y1="73.5" y2="73.5"/><rect fill="none" height="3" style="stroke:#C82930;stroke-width:0.5;" width="3" x="253.25" y="79.4053"/><text fill="#000000" font-family="sans-serif" font-size="7" lengthAdjust="spacing" textLength="65.5" x="259.25" y="83.0537">enrolmentRepository</text><rect fill="none" height="3" style="stroke:#C82930;stroke-width:0.5;" width="3" x="253.25" y="88.7158"/><text fill="#000000" font-family="sans-serif" font-size="7" lengthAdjust="spacing" textLength="55.5" x="259.25" y="92.3643">courseRepository</text><rect fill="none" height="3" style="stroke:#C82930;stroke-width:0.5;" width="3" x="253.25" y="98.0264"/><text fill="#000000" font-family="sans-serif" font-size="7" lengthAdjust="spacing" textLength="57.5" x="259.25" y="101.6748">studentRepository</text><rect fill="none" height="3" style="stroke:#C82930;stroke-width:0.5;" width="3" x="253.25" y="107.3369"/><text fill="#000000" font-family="sans-serif" font-size="7" lengthAdjust="spacing" textLength="64" x="259.25" y="110.9854">authorizationService</text><rect fill="none" height="3" style="stroke:#C82930;stroke-width:0.5;" width="3" x="253.25" y="116.6475"/><text fill="#000000" font-family="sans-serif" font-size="7" lengthAdjust="spacing" textLength="51" x="259.25" y="120.2959">examListService</text><line style="stroke:#181818;stroke-width:0.25;" x1="249.75" x2="501.25" y1="124.0527" y2="124.0527"/><ellipse cx="254.75" cy="131.458" fill="#84BE84" rx="1.5" ry="1.5" style="stroke:#038048;stroke-width:0.5;"/><text fill="#000000" font-family="sans-serif" font-size="7" lengthAdjust="spacing" textLength="239.5" x="259.25" y="133.6064">ListFutureExamsController(authorizationService, evaluationExamRepository,</text><text fill="#000000" font-family="sans-serif" font-size="7" lengthAdjust="spacing" textLength="189" x="259.25" y="142.917">enrolmentRepository, courseRepository, studentRepository)</text><text fill="#000000" font-family="sans-serif" font-size="7" lengthAdjust="spacing" textLength="2" x="259.25" y="152.2275">&#160;</text><ellipse cx="254.75" cy="159.3896" fill="#84BE84" rx="1.5" ry="1.5" style="stroke:#038048;stroke-width:0.5;"/><text fill="#000000" font-family="sans-serif" font-size="7" lengthAdjust="spacing" textLength="64.5" x="259.25" y="161.5381">listStudentCourses()</text><ellipse cx="254.75" cy="168.7002" fill="#84BE84" rx="1.5" ry="1.5" style="stroke:#038048;stroke-width:0.5;"/><text fill="#000000" font-family="sans-serif" font-size="7" lengthAdjust="spacing" textLength="80.5" x="259.25" y="170.8486">futureExams(courseDTO)</text></g><!--class StudentRepository--><g id="elem_StudentRepository"><rect codeLine="19" fill="#F1F1F1" height="33.3105" id="StudentRepository" rx="1.25" ry="1.25" style="stroke:#181818;stroke-width:0.25;" width="101" x="393" y="461.5"/><ellipse cx="412.425" cy="469.5" fill="#B4A7E5" rx="5.5" ry="5.5" style="stroke:#181818;stroke-width:0.5;"/><path d="M412.9016,467.8203 L412.9016,471.1484 L413.7609,471.1484 Q414.0656,471.1484 414.1984,471.2656 Q414.3313,471.3828 414.3313,471.5781 Q414.3313,471.7656 414.1984,471.8828 Q414.0656,472 413.7609,472 L411.1906,472 Q410.8859,472 410.7531,471.8828 Q410.6203,471.7656 410.6203,471.5703 Q410.6203,471.3828 410.7531,471.2656 Q410.8859,471.1484 411.1906,471.1484 L412.05,471.1484 L412.05,467.8203 L411.1906,467.8203 Q410.8859,467.8203 410.7531,467.7031 Q410.6203,467.5859 410.6203,467.3906 Q410.6203,467.2031 410.7531,467.0859 Q410.8859,466.9688 411.1906,466.9688 L413.7609,466.9688 Q414.0656,466.9688 414.1984,467.0859 Q414.3313,467.2031 414.3313,467.3906 Q414.3313,467.5859 414.1984,467.7031 Q414.0656,467.8203 413.7609,467.8203 L412.9016,467.8203 Z " fill="#000000"/><text fill="#000000" font-family="sans-serif" font-size="7" font-style="italic" lengthAdjust="spacing" textLength="58.5" x="422.075" y="472.3984">StudentRepository</text><line style="stroke:#181818;stroke-width:0.25;" x1="393.5" x2="493.5" y1="477.5" y2="477.5"/><line style="stroke:#181818;stroke-width:0.25;" x1="393.5" x2="493.5" y1="481.5" y2="481.5"/><ellipse cx="398.5" cy="488.9053" fill="#84BE84" rx="1.5" ry="1.5" style="stroke:#038048;stroke-width:0.5;"/><text fill="#000000" font-family="sans-serif" font-size="7" lengthAdjust="spacing" textLength="88" x="403" y="491.0537">findByUsername(username)</text></g><!--class InMemoryStudentRepository--><g id="elem_InMemoryStudentRepository"><rect codeLine="23" fill="#F1F1F1" height="33.3105" id="InMemoryStudentRepository" rx="1.25" ry="1.25" style="stroke:#181818;stroke-width:0.25;" width="105" x="270.5" y="525"/><ellipse cx="278" cy="533" fill="#ADD1B2" rx="5.5" ry="5.5" style="stroke:#181818;stroke-width:0.5;"/><path d="M279.3828,530.9375 Q279.4609,530.8281 279.5547,530.7734 Q279.6484,530.7188 279.7578,530.7188 Q279.9453,530.7188 280.0625,530.8516 Q280.1797,530.9766 280.1797,531.2813 L280.1797,532.0078 Q280.1797,532.3125 280.0625,532.4453 Q279.9453,532.5781 279.7578,532.5781 Q279.5859,532.5781 279.4844,532.4766 Q279.3828,532.3828 279.3281,532.125 Q279.3047,531.9453 279.2109,531.8516 Q279.0469,531.6641 278.7422,531.5547 Q278.4375,531.4453 278.125,531.4453 Q277.7422,531.4453 277.4219,531.6094 Q277.1094,531.7734 276.8594,532.1484 Q276.6172,532.5234 276.6172,533.0391 L276.6172,533.5859 Q276.6172,534.2031 277.0625,534.6172 Q277.5078,535.0234 278.3047,535.0234 Q278.7734,535.0234 279.1016,534.8984 Q279.2969,534.8203 279.5078,534.6016 Q279.6406,534.4688 279.7109,534.4297 Q279.7891,534.3906 279.8906,534.3906 Q280.0547,534.3906 280.1797,534.5234 Q280.3125,534.6484 280.3125,534.8203 Q280.3125,534.9922 280.1406,535.1953 Q279.8906,535.4844 279.4922,535.6484 Q278.9531,535.875 278.3047,535.875 Q277.5469,535.875 276.9453,535.5625 Q276.4531,535.3125 276.1094,534.7813 Q275.7656,534.2422 275.7656,533.6016 L275.7656,533.0234 Q275.7656,532.3594 276.0703,531.7891 Q276.3828,531.2109 276.9297,530.9063 Q277.4766,530.5938 278.0938,530.5938 Q278.4609,530.5938 278.7813,530.6797 Q279.1094,530.7578 279.3828,530.9375 Z " fill="#000000"/><text fill="#000000" font-family="sans-serif" font-size="7" lengthAdjust="spacing" textLength="89" x="285" y="535.8984">InMemoryStudentRepository</text><line style="stroke:#181818;stroke-width:0.25;" x1="271" x2="375" y1="541" y2="541"/><line style="stroke:#181818;stroke-width:0.25;" x1="271" x2="375" y1="545" y2="545"/><ellipse cx="276" cy="552.4053" fill="#84BE84" rx="1.5" ry="1.5" style="stroke:#038048;stroke-width:0.5;"/><text fill="#000000" font-family="sans-serif" font-size="7" lengthAdjust="spacing" textLength="88" x="280.5" y="554.5537">findByUsername(username)</text></g><!--class JpaStudentRepository--><g id="elem_JpaStudentRepository"><rect codeLine="27" fill="#F1F1F1" height="33.3105" id="JpaStudentRepository" rx="1.25" ry="1.25" style="stroke:#181818;stroke-width:0.25;" width="101" x="393" y="525"/><ellipse cx="407.475" cy="533" fill="#ADD1B2" rx="5.5" ry="5.5" style="stroke:#181818;stroke-width:0.5;"/><path d="M408.8578,530.9375 Q408.9359,530.8281 409.0297,530.7734 Q409.1234,530.7188 409.2328,530.7188 Q409.4203,530.7188 409.5375,530.8516 Q409.6547,530.9766 409.6547,531.2813 L409.6547,532.0078 Q409.6547,532.3125 409.5375,532.4453 Q409.4203,532.5781 409.2328,532.5781 Q409.0609,532.5781 408.9594,532.4766 Q408.8578,532.3828 408.8031,532.125 Q408.7797,531.9453 408.6859,531.8516 Q408.5219,531.6641 408.2172,531.5547 Q407.9125,531.4453 407.6,531.4453 Q407.2172,531.4453 406.8969,531.6094 Q406.5844,531.7734 406.3344,532.1484 Q406.0922,532.5234 406.0922,533.0391 L406.0922,533.5859 Q406.0922,534.2031 406.5375,534.6172 Q406.9828,535.0234 407.7797,535.0234 Q408.2484,535.0234 408.5766,534.8984 Q408.7719,534.8203 408.9828,534.6016 Q409.1156,534.4688 409.1859,534.4297 Q409.2641,534.3906 409.3656,534.3906 Q409.5297,534.3906 409.6547,534.5234 Q409.7875,534.6484 409.7875,534.8203 Q409.7875,534.9922 409.6156,535.1953 Q409.3656,535.4844 408.9672,535.6484 Q408.4281,535.875 407.7797,535.875 Q407.0219,535.875 406.4203,535.5625 Q405.9281,535.3125 405.5844,534.7813 Q405.2406,534.2422 405.2406,533.6016 L405.2406,533.0234 Q405.2406,532.3594 405.5453,531.7891 Q405.8578,531.2109 406.4047,530.9063 Q406.9516,530.5938 407.5688,530.5938 Q407.9359,530.5938 408.2563,530.6797 Q408.5844,530.7578 408.8578,530.9375 Z " fill="#000000"/><text fill="#000000" font-family="sans-serif" font-size="7" lengthAdjust="spacing" textLength="69.5" x="416.025" y="535.8984">JpaStudentRepository</text><line style="stroke:#181818;stroke-width:0.25;" x1="393.5" x2="493.5" y1="541" y2="541"/><line style="stroke:#181818;stroke-width:0.25;" x1="393.5" x2="493.5" y1="545" y2="545"/><ellipse cx="398.5" cy="552.4053" fill="#84BE84" rx="1.5" ry="1.5" style="stroke:#038048;stroke-width:0.5;"/><text fill="#000000" font-family="sans-serif" font-size="7" lengthAdjust="spacing" textLength="88" x="403" y="554.5537">findByUsername(username)</text></g><!--class Course--><g id="elem_Course"><rect codeLine="31" fill="#F1F1F1" height="98.4844" id="Course" rx="1.25" ry="1.25" style="stroke:#181818;stroke-width:0.25;" width="83" x="114.5" y="204.5"/><ellipse cx="142.375" cy="212.5" fill="#ADD1B2" rx="5.5" ry="5.5" style="stroke:#181818;stroke-width:0.5;"/><path d="M143.7578,210.4375 Q143.8359,210.3281 143.9297,210.2734 Q144.0234,210.2188 144.1328,210.2188 Q144.3203,210.2188 144.4375,210.3516 Q144.5547,210.4766 144.5547,210.7813 L144.5547,211.5078 Q144.5547,211.8125 144.4375,211.9453 Q144.3203,212.0781 144.1328,212.0781 Q143.9609,212.0781 143.8594,211.9766 Q143.7578,211.8828 143.7031,211.625 Q143.6797,211.4453 143.5859,211.3516 Q143.4219,211.1641 143.1172,211.0547 Q142.8125,210.9453 142.5,210.9453 Q142.1172,210.9453 141.7969,211.1094 Q141.4844,211.2734 141.2344,211.6484 Q140.9922,212.0234 140.9922,212.5391 L140.9922,213.0859 Q140.9922,213.7031 141.4375,214.1172 Q141.8828,214.5234 142.6797,214.5234 Q143.1484,214.5234 143.4766,214.3984 Q143.6719,214.3203 143.8828,214.1016 Q144.0156,213.9688 144.0859,213.9297 Q144.1641,213.8906 144.2656,213.8906 Q144.4297,213.8906 144.5547,214.0234 Q144.6875,214.1484 144.6875,214.3203 Q144.6875,214.4922 144.5156,214.6953 Q144.2656,214.9844 143.8672,215.1484 Q143.3281,215.375 142.6797,215.375 Q141.9219,215.375 141.3203,215.0625 Q140.8281,214.8125 140.4844,214.2813 Q140.1406,213.7422 140.1406,213.1016 L140.1406,212.5234 Q140.1406,211.8594 140.4453,211.2891 Q140.7578,210.7109 141.3047,210.4063 Q141.8516,210.0938 142.4688,210.0938 Q142.8359,210.0938 143.1563,210.1797 Q143.4844,210.2578 143.7578,210.4375 Z " fill="#000000"/><text fill="#000000" font-family="sans-serif" font-size="7" lengthAdjust="spacing" textLength="23" x="152.625" y="215.3984">Course</text><line style="stroke:#181818;stroke-width:0.25;" x1="115" x2="197" y1="220.5" y2="220.5"/><rect fill="none" height="3" style="stroke:#C82930;stroke-width:0.5;" width="3" x="118.5" y="226.4053"/><text fill="#000000" font-family="sans-serif" font-size="7" lengthAdjust="spacing" textLength="15.5" x="124.5" y="230.0537">code</text><rect fill="none" height="3" style="stroke:#C82930;stroke-width:0.5;" width="3" x="118.5" y="235.7158"/><text fill="#000000" font-family="sans-serif" font-size="7" lengthAdjust="spacing" textLength="11" x="124.5" y="239.3643">title</text><rect fill="none" height="3" style="stroke:#C82930;stroke-width:0.5;" width="3" x="118.5" y="245.0264"/><text fill="#000000" font-family="sans-serif" font-size="7" lengthAdjust="spacing" textLength="34.5" x="124.5" y="248.6748">description</text><rect fill="none" height="3" style="stroke:#C82930;stroke-width:0.5;" width="3" x="118.5" y="254.3369"/><text fill="#000000" font-family="sans-serif" font-size="7" lengthAdjust="spacing" textLength="49.5" x="124.5" y="257.9854">enrolmentLimits</text><rect fill="none" height="3" style="stroke:#C82930;stroke-width:0.5;" width="3" x="118.5" y="263.6475"/><text fill="#000000" font-family="sans-serif" font-size="7" lengthAdjust="spacing" textLength="38" x="124.5" y="267.2959">courseState</text><rect fill="none" height="3" style="stroke:#C82930;stroke-width:0.5;" width="3" x="118.5" y="272.958"/><text fill="#000000" font-family="sans-serif" font-size="7" lengthAdjust="spacing" textLength="70" x="124.5" y="276.6064">courseEnrolmentState</text><rect fill="none" height="3" style="stroke:#C82930;stroke-width:0.5;" width="3" x="118.5" y="282.2686"/><text fill="#000000" font-family="sans-serif" font-size="7" lengthAdjust="spacing" textLength="30.5" x="124.5" y="285.917">createdAt</text><line style="stroke:#181818;stroke-width:0.25;" x1="115" x2="197" y1="289.6738" y2="289.6738"/><ellipse cx="120" cy="297.0791" fill="#84BE84" rx="1.5" ry="1.5" style="stroke:#038048;stroke-width:0.5;"/><text fill="#000000" font-family="sans-serif" font-size="7" lengthAdjust="spacing" textLength="22" x="124.5" y="299.2275">toDto()</text></g><!--class CourseDTO--><g id="elem_CourseDTO"><rect codeLine="42" fill="#F1F1F1" height="89.1738" id="CourseDTO" rx="1.25" ry="1.25" style="stroke:#181818;stroke-width:0.25;" width="83" x="215" y="209.25"/><ellipse cx="235.55" cy="217.25" fill="#ADD1B2" rx="5.5" ry="5.5" style="stroke:#181818;stroke-width:0.5;"/><path d="M236.9328,215.1875 Q237.0109,215.0781 237.1047,215.0234 Q237.1984,214.9688 237.3078,214.9688 Q237.4953,214.9688 237.6125,215.1016 Q237.7297,215.2266 237.7297,215.5313 L237.7297,216.2578 Q237.7297,216.5625 237.6125,216.6953 Q237.4953,216.8281 237.3078,216.8281 Q237.1359,216.8281 237.0344,216.7266 Q236.9328,216.6328 236.8781,216.375 Q236.8547,216.1953 236.7609,216.1016 Q236.5969,215.9141 236.2922,215.8047 Q235.9875,215.6953 235.675,215.6953 Q235.2922,215.6953 234.9719,215.8594 Q234.6594,216.0234 234.4094,216.3984 Q234.1672,216.7734 234.1672,217.2891 L234.1672,217.8359 Q234.1672,218.4531 234.6125,218.8672 Q235.0578,219.2734 235.8547,219.2734 Q236.3234,219.2734 236.6516,219.1484 Q236.8469,219.0703 237.0578,218.8516 Q237.1906,218.7188 237.2609,218.6797 Q237.3391,218.6406 237.4406,218.6406 Q237.6047,218.6406 237.7297,218.7734 Q237.8625,218.8984 237.8625,219.0703 Q237.8625,219.2422 237.6906,219.4453 Q237.4406,219.7344 237.0422,219.8984 Q236.5031,220.125 235.8547,220.125 Q235.0969,220.125 234.4953,219.8125 Q234.0031,219.5625 233.6594,219.0313 Q233.3156,218.4922 233.3156,217.8516 L233.3156,217.2734 Q233.3156,216.6094 233.6203,216.0391 Q233.9328,215.4609 234.4797,215.1563 Q235.0266,214.8438 235.6438,214.8438 Q236.0109,214.8438 236.3313,214.9297 Q236.6594,215.0078 236.9328,215.1875 Z " fill="#000000"/><text fill="#000000" font-family="sans-serif" font-size="7" lengthAdjust="spacing" textLength="38" x="245.45" y="220.1484">CourseDTO</text><line style="stroke:#181818;stroke-width:0.25;" x1="215.5" x2="297.5" y1="225.25" y2="225.25"/><rect fill="none" height="3" style="stroke:#C82930;stroke-width:0.5;" width="3" x="219" y="231.1553"/><text fill="#000000" font-family="sans-serif" font-size="7" lengthAdjust="spacing" textLength="15.5" x="225" y="234.8037">code</text><rect fill="none" height="3" style="stroke:#C82930;stroke-width:0.5;" width="3" x="219" y="240.4658"/><text fill="#000000" font-family="sans-serif" font-size="7" lengthAdjust="spacing" textLength="11" x="225" y="244.1143">title</text><rect fill="none" height="3" style="stroke:#C82930;stroke-width:0.5;" width="3" x="219" y="249.7764"/><text fill="#000000" font-family="sans-serif" font-size="7" lengthAdjust="spacing" textLength="34.5" x="225" y="253.4248">description</text><rect fill="none" height="3" style="stroke:#C82930;stroke-width:0.5;" width="3" x="219" y="259.0869"/><text fill="#000000" font-family="sans-serif" font-size="7" lengthAdjust="spacing" textLength="49.5" x="225" y="262.7354">enrolmentLimits</text><rect fill="none" height="3" style="stroke:#C82930;stroke-width:0.5;" width="3" x="219" y="268.3975"/><text fill="#000000" font-family="sans-serif" font-size="7" lengthAdjust="spacing" textLength="38" x="225" y="272.0459">courseState</text><rect fill="none" height="3" style="stroke:#C82930;stroke-width:0.5;" width="3" x="219" y="277.708"/><text fill="#000000" font-family="sans-serif" font-size="7" lengthAdjust="spacing" textLength="70" x="225" y="281.3564">courseEnrolmentState</text><rect fill="none" height="3" style="stroke:#C82930;stroke-width:0.5;" width="3" x="219" y="287.0186"/><text fill="#000000" font-family="sans-serif" font-size="7" lengthAdjust="spacing" textLength="30.5" x="225" y="290.667">createdAt</text><line style="stroke:#181818;stroke-width:0.25;" x1="215.5" x2="297.5" y1="294.4238" y2="294.4238"/></g><!--class CourseRepository--><g id="elem_CourseRepository"><rect codeLine="52" fill="#F1F1F1" height="33.3105" id="CourseRepository" rx="1.25" ry="1.25" style="stroke:#181818;stroke-width:0.25;" width="73" x="527" y="461.5"/><ellipse cx="534.5" cy="469.5" fill="#B4A7E5" rx="5.5" ry="5.5" style="stroke:#181818;stroke-width:0.5;"/><path d="M534.9766,467.8203 L534.9766,471.1484 L535.8359,471.1484 Q536.1406,471.1484 536.2734,471.2656 Q536.4063,471.3828 536.4063,471.5781 Q536.4063,471.7656 536.2734,471.8828 Q536.1406,472 535.8359,472 L533.2656,472 Q532.9609,472 532.8281,471.8828 Q532.6953,471.7656 532.6953,471.5703 Q532.6953,471.3828 532.8281,471.2656 Q532.9609,471.1484 533.2656,471.1484 L534.125,471.1484 L534.125,467.8203 L533.2656,467.8203 Q532.9609,467.8203 532.8281,467.7031 Q532.6953,467.5859 532.6953,467.3906 Q532.6953,467.2031 532.8281,467.0859 Q532.9609,466.9688 533.2656,466.9688 L535.8359,466.9688 Q536.1406,466.9688 536.2734,467.0859 Q536.4063,467.2031 536.4063,467.3906 Q536.4063,467.5859 536.2734,467.7031 Q536.1406,467.8203 535.8359,467.8203 L534.9766,467.8203 Z " fill="#000000"/><text fill="#000000" font-family="sans-serif" font-size="7" font-style="italic" lengthAdjust="spacing" textLength="57" x="541.5" y="472.3984">CourseRepository</text><line style="stroke:#181818;stroke-width:0.25;" x1="527.5" x2="599.5" y1="477.5" y2="477.5"/><line style="stroke:#181818;stroke-width:0.25;" x1="527.5" x2="599.5" y1="481.5" y2="481.5"/><ellipse cx="532.5" cy="488.9053" fill="#84BE84" rx="1.5" ry="1.5" style="stroke:#038048;stroke-width:0.5;"/><text fill="#000000" font-family="sans-serif" font-size="7" lengthAdjust="spacing" textLength="57" x="537" y="491.0537">findByCode(code)</text></g><!--class InMemoryCourseRepository--><g id="elem_InMemoryCourseRepository"><rect codeLine="56" fill="#F1F1F1" height="33.3105" id="InMemoryCourseRepository" rx="1.25" ry="1.25" style="stroke:#181818;stroke-width:0.25;" width="103.5" x="511.75" y="525"/><ellipse cx="519.25" cy="533" fill="#ADD1B2" rx="5.5" ry="5.5" style="stroke:#181818;stroke-width:0.5;"/><path d="M520.6328,530.9375 Q520.7109,530.8281 520.8047,530.7734 Q520.8984,530.7188 521.0078,530.7188 Q521.1953,530.7188 521.3125,530.8516 Q521.4297,530.9766 521.4297,531.2813 L521.4297,532.0078 Q521.4297,532.3125 521.3125,532.4453 Q521.1953,532.5781 521.0078,532.5781 Q520.8359,532.5781 520.7344,532.4766 Q520.6328,532.3828 520.5781,532.125 Q520.5547,531.9453 520.4609,531.8516 Q520.2969,531.6641 519.9922,531.5547 Q519.6875,531.4453 519.375,531.4453 Q518.9922,531.4453 518.6719,531.6094 Q518.3594,531.7734 518.1094,532.1484 Q517.8672,532.5234 517.8672,533.0391 L517.8672,533.5859 Q517.8672,534.2031 518.3125,534.6172 Q518.7578,535.0234 519.5547,535.0234 Q520.0234,535.0234 520.3516,534.8984 Q520.5469,534.8203 520.7578,534.6016 Q520.8906,534.4688 520.9609,534.4297 Q521.0391,534.3906 521.1406,534.3906 Q521.3047,534.3906 521.4297,534.5234 Q521.5625,534.6484 521.5625,534.8203 Q521.5625,534.9922 521.3906,535.1953 Q521.1406,535.4844 520.7422,535.6484 Q520.2031,535.875 519.5547,535.875 Q518.7969,535.875 518.1953,535.5625 Q517.7031,535.3125 517.3594,534.7813 Q517.0156,534.2422 517.0156,533.6016 L517.0156,533.0234 Q517.0156,532.3594 517.3203,531.7891 Q517.6328,531.2109 518.1797,530.9063 Q518.7266,530.5938 519.3438,530.5938 Q519.7109,530.5938 520.0313,530.6797 Q520.3594,530.7578 520.6328,530.9375 Z " fill="#000000"/><text fill="#000000" font-family="sans-serif" font-size="7" lengthAdjust="spacing" textLength="87.5" x="526.25" y="535.8984">InMemoryCourseRepository</text><line style="stroke:#181818;stroke-width:0.25;" x1="512.25" x2="614.75" y1="541" y2="541"/><line style="stroke:#181818;stroke-width:0.25;" x1="512.25" x2="614.75" y1="545" y2="545"/><ellipse cx="517.25" cy="552.4053" fill="#84BE84" rx="1.5" ry="1.5" style="stroke:#038048;stroke-width:0.5;"/><text fill="#000000" font-family="sans-serif" font-size="7" lengthAdjust="spacing" textLength="57" x="521.75" y="554.5537">findByCode(code)</text></g><!--class JpaCourseRepository--><g id="elem_JpaCourseRepository"><rect codeLine="60" fill="#F1F1F1" height="33.3105" id="JpaCourseRepository" rx="1.25" ry="1.25" style="stroke:#181818;stroke-width:0.25;" width="84" x="633" y="525"/><ellipse cx="640.5" cy="533" fill="#ADD1B2" rx="5.5" ry="5.5" style="stroke:#181818;stroke-width:0.5;"/><path d="M641.8828,530.9375 Q641.9609,530.8281 642.0547,530.7734 Q642.1484,530.7188 642.2578,530.7188 Q642.4453,530.7188 642.5625,530.8516 Q642.6797,530.9766 642.6797,531.2813 L642.6797,532.0078 Q642.6797,532.3125 642.5625,532.4453 Q642.4453,532.5781 642.2578,532.5781 Q642.0859,532.5781 641.9844,532.4766 Q641.8828,532.3828 641.8281,532.125 Q641.8047,531.9453 641.7109,531.8516 Q641.5469,531.6641 641.2422,531.5547 Q640.9375,531.4453 640.625,531.4453 Q640.2422,531.4453 639.9219,531.6094 Q639.6094,531.7734 639.3594,532.1484 Q639.1172,532.5234 639.1172,533.0391 L639.1172,533.5859 Q639.1172,534.2031 639.5625,534.6172 Q640.0078,535.0234 640.8047,535.0234 Q641.2734,535.0234 641.6016,534.8984 Q641.7969,534.8203 642.0078,534.6016 Q642.1406,534.4688 642.2109,534.4297 Q642.2891,534.3906 642.3906,534.3906 Q642.5547,534.3906 642.6797,534.5234 Q642.8125,534.6484 642.8125,534.8203 Q642.8125,534.9922 642.6406,535.1953 Q642.3906,535.4844 641.9922,535.6484 Q641.4531,535.875 640.8047,535.875 Q640.0469,535.875 639.4453,535.5625 Q638.9531,535.3125 638.6094,534.7813 Q638.2656,534.2422 638.2656,533.6016 L638.2656,533.0234 Q638.2656,532.3594 638.5703,531.7891 Q638.8828,531.2109 639.4297,530.9063 Q639.9766,530.5938 640.5938,530.5938 Q640.9609,530.5938 641.2813,530.6797 Q641.6094,530.7578 641.8828,530.9375 Z " fill="#000000"/><text fill="#000000" font-family="sans-serif" font-size="7" lengthAdjust="spacing" textLength="68" x="647.5" y="535.8984">JpaCourseRepository</text><line style="stroke:#181818;stroke-width:0.25;" x1="633.5" x2="716.5" y1="541" y2="541"/><line style="stroke:#181818;stroke-width:0.25;" x1="633.5" x2="716.5" y1="545" y2="545"/><ellipse cx="638.5" cy="552.4053" fill="#84BE84" rx="1.5" ry="1.5" style="stroke:#038048;stroke-width:0.5;"/><text fill="#000000" font-family="sans-serif" font-size="7" lengthAdjust="spacing" textLength="57" x="643" y="554.5537">findByCode(code)</text></g><!--class Exam--><g id="elem_Exam"><rect codeLine="65" fill="#F1F1F1" height="98.4844" id="Exam" rx="1.25" ry="1.25" style="stroke:#181818;stroke-width:0.25;" width="47.5" x="260.75" y="333"/><ellipse cx="274.775" cy="341" fill="#ADD1B2" rx="5.5" ry="5.5" style="stroke:#181818;stroke-width:0.5;"/><path d="M276.1578,338.9375 Q276.2359,338.8281 276.3297,338.7734 Q276.4234,338.7188 276.5328,338.7188 Q276.7203,338.7188 276.8375,338.8516 Q276.9547,338.9766 276.9547,339.2813 L276.9547,340.0078 Q276.9547,340.3125 276.8375,340.4453 Q276.7203,340.5781 276.5328,340.5781 Q276.3609,340.5781 276.2594,340.4766 Q276.1578,340.3828 276.1031,340.125 Q276.0797,339.9453 275.9859,339.8516 Q275.8219,339.6641 275.5172,339.5547 Q275.2125,339.4453 274.9,339.4453 Q274.5172,339.4453 274.1969,339.6094 Q273.8844,339.7734 273.6344,340.1484 Q273.3922,340.5234 273.3922,341.0391 L273.3922,341.5859 Q273.3922,342.2031 273.8375,342.6172 Q274.2828,343.0234 275.0797,343.0234 Q275.5484,343.0234 275.8766,342.8984 Q276.0719,342.8203 276.2828,342.6016 Q276.4156,342.4688 276.4859,342.4297 Q276.5641,342.3906 276.6656,342.3906 Q276.8297,342.3906 276.9547,342.5234 Q277.0875,342.6484 277.0875,342.8203 Q277.0875,342.9922 276.9156,343.1953 Q276.6656,343.4844 276.2672,343.6484 Q275.7281,343.875 275.0797,343.875 Q274.3219,343.875 273.7203,343.5625 Q273.2281,343.3125 272.8844,342.7813 Q272.5406,342.2422 272.5406,341.6016 L272.5406,341.0234 Q272.5406,340.3594 272.8453,339.7891 Q273.1578,339.2109 273.7047,338.9063 Q274.2516,338.5938 274.8688,338.5938 Q275.2359,338.5938 275.5563,338.6797 Q275.8844,338.7578 276.1578,338.9375 Z " fill="#000000"/><text fill="#000000" font-family="sans-serif" font-size="7" lengthAdjust="spacing" textLength="17" x="283.225" y="343.8984">Exam</text><line style="stroke:#181818;stroke-width:0.25;" x1="261.25" x2="307.75" y1="349" y2="349"/><rect fill="none" height="3" style="stroke:#C82930;stroke-width:0.5;" width="3" x="264.75" y="354.9053"/><text fill="#000000" font-family="sans-serif" font-size="7" lengthAdjust="spacing" textLength="15.5" x="270.75" y="358.5537">code</text><rect fill="none" height="3" style="stroke:#C82930;stroke-width:0.5;" width="3" x="264.75" y="364.2158"/><text fill="#000000" font-family="sans-serif" font-size="7" lengthAdjust="spacing" textLength="21.5" x="270.75" y="367.8643">course</text><rect fill="none" height="3" style="stroke:#C82930;stroke-width:0.5;" width="3" x="264.75" y="373.5264"/><text fill="#000000" font-family="sans-serif" font-size="7" lengthAdjust="spacing" textLength="24" x="270.75" y="377.1748">teacher</text><rect fill="none" height="3" style="stroke:#C82930;stroke-width:0.5;" width="3" x="264.75" y="382.8369"/><text fill="#000000" font-family="sans-serif" font-size="7" lengthAdjust="spacing" textLength="27" x="270.75" y="386.4854">identifier</text><rect fill="none" height="3" style="stroke:#C82930;stroke-width:0.5;" width="3" x="264.75" y="392.1475"/><text fill="#000000" font-family="sans-serif" font-size="7" lengthAdjust="spacing" textLength="11" x="270.75" y="395.7959">title</text><rect fill="none" height="3" style="stroke:#C82930;stroke-width:0.5;" width="3" x="264.75" y="401.458"/><text fill="#000000" font-family="sans-serif" font-size="7" lengthAdjust="spacing" textLength="34.5" x="270.75" y="405.1064">description</text><rect fill="none" height="3" style="stroke:#C82930;stroke-width:0.5;" width="3" x="264.75" y="410.7686"/><text fill="#000000" font-family="sans-serif" font-size="7" lengthAdjust="spacing" textLength="15.5" x="270.75" y="414.417">state</text><line style="stroke:#181818;stroke-width:0.25;" x1="261.25" x2="307.75" y1="418.1738" y2="418.1738"/><ellipse cx="266.25" cy="425.5791" fill="#84BE84" rx="1.5" ry="1.5" style="stroke:#038048;stroke-width:0.5;"/><text fill="#000000" font-family="sans-serif" font-size="7" lengthAdjust="spacing" textLength="22" x="270.75" y="427.7275">toDto()</text></g><!--class ExamDTO--><g id="elem_ExamDTO"><rect codeLine="76" fill="#F1F1F1" height="89.1738" id="ExamDTO" rx="1.25" ry="1.25" style="stroke:#181818;stroke-width:0.25;" width="48" x="326" y="337.75"/><ellipse cx="333.5" cy="345.75" fill="#ADD1B2" rx="5.5" ry="5.5" style="stroke:#181818;stroke-width:0.5;"/><path d="M334.8828,343.6875 Q334.9609,343.5781 335.0547,343.5234 Q335.1484,343.4688 335.2578,343.4688 Q335.4453,343.4688 335.5625,343.6016 Q335.6797,343.7266 335.6797,344.0313 L335.6797,344.7578 Q335.6797,345.0625 335.5625,345.1953 Q335.4453,345.3281 335.2578,345.3281 Q335.0859,345.3281 334.9844,345.2266 Q334.8828,345.1328 334.8281,344.875 Q334.8047,344.6953 334.7109,344.6016 Q334.5469,344.4141 334.2422,344.3047 Q333.9375,344.1953 333.625,344.1953 Q333.2422,344.1953 332.9219,344.3594 Q332.6094,344.5234 332.3594,344.8984 Q332.1172,345.2734 332.1172,345.7891 L332.1172,346.3359 Q332.1172,346.9531 332.5625,347.3672 Q333.0078,347.7734 333.8047,347.7734 Q334.2734,347.7734 334.6016,347.6484 Q334.7969,347.5703 335.0078,347.3516 Q335.1406,347.2188 335.2109,347.1797 Q335.2891,347.1406 335.3906,347.1406 Q335.5547,347.1406 335.6797,347.2734 Q335.8125,347.3984 335.8125,347.5703 Q335.8125,347.7422 335.6406,347.9453 Q335.3906,348.2344 334.9922,348.3984 Q334.4531,348.625 333.8047,348.625 Q333.0469,348.625 332.4453,348.3125 Q331.9531,348.0625 331.6094,347.5313 Q331.2656,346.9922 331.2656,346.3516 L331.2656,345.7734 Q331.2656,345.1094 331.5703,344.5391 Q331.8828,343.9609 332.4297,343.6563 Q332.9766,343.3438 333.5938,343.3438 Q333.9609,343.3438 334.2813,343.4297 Q334.6094,343.5078 334.8828,343.6875 Z " fill="#000000"/><text fill="#000000" font-family="sans-serif" font-size="7" lengthAdjust="spacing" textLength="32" x="340.5" y="348.6484">ExamDTO</text><line style="stroke:#181818;stroke-width:0.25;" x1="326.5" x2="373.5" y1="353.75" y2="353.75"/><rect fill="none" height="3" style="stroke:#C82930;stroke-width:0.5;" width="3" x="330" y="359.6553"/><text fill="#000000" font-family="sans-serif" font-size="7" lengthAdjust="spacing" textLength="15.5" x="336" y="363.3037">code</text><rect fill="none" height="3" style="stroke:#C82930;stroke-width:0.5;" width="3" x="330" y="368.9658"/><text fill="#000000" font-family="sans-serif" font-size="7" lengthAdjust="spacing" textLength="21.5" x="336" y="372.6143">course</text><rect fill="none" height="3" style="stroke:#C82930;stroke-width:0.5;" width="3" x="330" y="378.2764"/><text fill="#000000" font-family="sans-serif" font-size="7" lengthAdjust="spacing" textLength="24" x="336" y="381.9248">teacher</text><rect fill="none" height="3" style="stroke:#C82930;stroke-width:0.5;" width="3" x="330" y="387.5869"/><text fill="#000000" font-family="sans-serif" font-size="7" lengthAdjust="spacing" textLength="27" x="336" y="391.2354">identifier</text><rect fill="none" height="3" style="stroke:#C82930;stroke-width:0.5;" width="3" x="330" y="396.8975"/><text fill="#000000" font-family="sans-serif" font-size="7" lengthAdjust="spacing" textLength="11" x="336" y="400.5459">title</text><rect fill="none" height="3" style="stroke:#C82930;stroke-width:0.5;" width="3" x="330" y="406.208"/><text fill="#000000" font-family="sans-serif" font-size="7" lengthAdjust="spacing" textLength="34.5" x="336" y="409.8564">description</text><rect fill="none" height="3" style="stroke:#C82930;stroke-width:0.5;" width="3" x="330" y="415.5186"/><text fill="#000000" font-family="sans-serif" font-size="7" lengthAdjust="spacing" textLength="15.5" x="336" y="419.167">state</text><line style="stroke:#181818;stroke-width:0.25;" x1="326.5" x2="373.5" y1="422.9238" y2="422.9238"/></g><!--class ExamListService--><g id="elem_ExamListService"><rect codeLine="86" fill="#F1F1F1" height="42.6211" id="ExamListService" rx="1.25" ry="1.25" style="stroke:#181818;stroke-width:0.25;" width="120" x="315.5" y="232.5"/><ellipse cx="347.625" cy="240.5" fill="#ADD1B2" rx="5.5" ry="5.5" style="stroke:#181818;stroke-width:0.5;"/><path d="M349.0078,238.4375 Q349.0859,238.3281 349.1797,238.2734 Q349.2734,238.2188 349.3828,238.2188 Q349.5703,238.2188 349.6875,238.3516 Q349.8047,238.4766 349.8047,238.7813 L349.8047,239.5078 Q349.8047,239.8125 349.6875,239.9453 Q349.5703,240.0781 349.3828,240.0781 Q349.2109,240.0781 349.1094,239.9766 Q349.0078,239.8828 348.9531,239.625 Q348.9297,239.4453 348.8359,239.3516 Q348.6719,239.1641 348.3672,239.0547 Q348.0625,238.9453 347.75,238.9453 Q347.3672,238.9453 347.0469,239.1094 Q346.7344,239.2734 346.4844,239.6484 Q346.2422,240.0234 346.2422,240.5391 L346.2422,241.0859 Q346.2422,241.7031 346.6875,242.1172 Q347.1328,242.5234 347.9297,242.5234 Q348.3984,242.5234 348.7266,242.3984 Q348.9219,242.3203 349.1328,242.1016 Q349.2656,241.9688 349.3359,241.9297 Q349.4141,241.8906 349.5156,241.8906 Q349.6797,241.8906 349.8047,242.0234 Q349.9375,242.1484 349.9375,242.3203 Q349.9375,242.4922 349.7656,242.6953 Q349.5156,242.9844 349.1172,243.1484 Q348.5781,243.375 347.9297,243.375 Q347.1719,243.375 346.5703,243.0625 Q346.0781,242.8125 345.7344,242.2813 Q345.3906,241.7422 345.3906,241.1016 L345.3906,240.5234 Q345.3906,239.8594 345.6953,239.2891 Q346.0078,238.7109 346.5547,238.4063 Q347.1016,238.0938 347.7188,238.0938 Q348.0859,238.0938 348.4063,238.1797 Q348.7344,238.2578 349.0078,238.4375 Z " fill="#000000"/><text fill="#000000" font-family="sans-serif" font-size="7" lengthAdjust="spacing" textLength="51.5" x="357.875" y="243.3984">ExamListService</text><line style="stroke:#181818;stroke-width:0.25;" x1="316" x2="435" y1="248.5" y2="248.5"/><rect fill="none" height="3" style="stroke:#C82930;stroke-width:0.5;" width="3" x="319.5" y="254.4053"/><text fill="#000000" font-family="sans-serif" font-size="7" lengthAdjust="spacing" textLength="50.5" x="325.5" y="258.0537">examRepository</text><line style="stroke:#181818;stroke-width:0.25;" x1="316" x2="435" y1="261.8105" y2="261.8105"/><ellipse cx="321" cy="269.2158" fill="#84BE84" rx="1.5" ry="1.5" style="stroke:#038048;stroke-width:0.5;"/><text fill="#000000" font-family="sans-serif" font-size="7" lengthAdjust="spacing" textLength="107" x="325.5" y="271.3643">listAllFutureCourseExams(course)</text></g><!--class ListEnrolmentService--><g id="elem_ListEnrolmentService"><rect codeLine="91" fill="#F1F1F1" height="42.6211" id="ListEnrolmentService" rx="1.25" ry="1.25" style="stroke:#181818;stroke-width:0.25;" width="135" x="643" y="361"/><ellipse cx="675.125" cy="369" fill="#ADD1B2" rx="5.5" ry="5.5" style="stroke:#181818;stroke-width:0.5;"/><path d="M676.5078,366.9375 Q676.5859,366.8281 676.6797,366.7734 Q676.7734,366.7188 676.8828,366.7188 Q677.0703,366.7188 677.1875,366.8516 Q677.3047,366.9766 677.3047,367.2813 L677.3047,368.0078 Q677.3047,368.3125 677.1875,368.4453 Q677.0703,368.5781 676.8828,368.5781 Q676.7109,368.5781 676.6094,368.4766 Q676.5078,368.3828 676.4531,368.125 Q676.4297,367.9453 676.3359,367.8516 Q676.1719,367.6641 675.8672,367.5547 Q675.5625,367.4453 675.25,367.4453 Q674.8672,367.4453 674.5469,367.6094 Q674.2344,367.7734 673.9844,368.1484 Q673.7422,368.5234 673.7422,369.0391 L673.7422,369.5859 Q673.7422,370.2031 674.1875,370.6172 Q674.6328,371.0234 675.4297,371.0234 Q675.8984,371.0234 676.2266,370.8984 Q676.4219,370.8203 676.6328,370.6016 Q676.7656,370.4688 676.8359,370.4297 Q676.9141,370.3906 677.0156,370.3906 Q677.1797,370.3906 677.3047,370.5234 Q677.4375,370.6484 677.4375,370.8203 Q677.4375,370.9922 677.2656,371.1953 Q677.0156,371.4844 676.6172,371.6484 Q676.0781,371.875 675.4297,371.875 Q674.6719,371.875 674.0703,371.5625 Q673.5781,371.3125 673.2344,370.7813 Q672.8906,370.2422 672.8906,369.6016 L672.8906,369.0234 Q672.8906,368.3594 673.1953,367.7891 Q673.5078,367.2109 674.0547,366.9063 Q674.6016,366.5938 675.2188,366.5938 Q675.5859,366.5938 675.9063,366.6797 Q676.2344,366.7578 676.5078,366.9375 Z " fill="#000000"/><text fill="#000000" font-family="sans-serif" font-size="7" lengthAdjust="spacing" textLength="66.5" x="685.375" y="371.8984">ListEnrolmentService</text><line style="stroke:#181818;stroke-width:0.25;" x1="643.5" x2="777.5" y1="377" y2="377"/><rect fill="none" height="3" style="stroke:#C82930;stroke-width:0.5;" width="3" x="647" y="382.9053"/><text fill="#000000" font-family="sans-serif" font-size="7" lengthAdjust="spacing" textLength="65.5" x="653" y="386.5537">enrolmentRepository</text><line style="stroke:#181818;stroke-width:0.25;" x1="643.5" x2="777.5" y1="390.3105" y2="390.3105"/><ellipse cx="648.5" cy="397.7158" fill="#84BE84" rx="1.5" ry="1.5" style="stroke:#038048;stroke-width:0.5;"/><text fill="#000000" font-family="sans-serif" font-size="7" lengthAdjust="spacing" textLength="122" x="653" y="399.8643">findByStudentMecanographicNumber()</text></g><!--class ExamRepository--><g id="elem_ExamRepository"><rect codeLine="96" fill="#F1F1F1" height="33.3105" id="ExamRepository" rx="1.25" ry="1.25" style="stroke:#181818;stroke-width:0.25;" width="123" x="193" y="461.5"/><ellipse cx="226.875" cy="469.5" fill="#B4A7E5" rx="5.5" ry="5.5" style="stroke:#181818;stroke-width:0.5;"/><path d="M227.3516,467.8203 L227.3516,471.1484 L228.2109,471.1484 Q228.5156,471.1484 228.6484,471.2656 Q228.7813,471.3828 228.7813,471.5781 Q228.7813,471.7656 228.6484,471.8828 Q228.5156,472 228.2109,472 L225.6406,472 Q225.3359,472 225.2031,471.8828 Q225.0703,471.7656 225.0703,471.5703 Q225.0703,471.3828 225.2031,471.2656 Q225.3359,471.1484 225.6406,471.1484 L226.5,471.1484 L226.5,467.8203 L225.6406,467.8203 Q225.3359,467.8203 225.2031,467.7031 Q225.0703,467.5859 225.0703,467.3906 Q225.0703,467.2031 225.2031,467.0859 Q225.3359,466.9688 225.6406,466.9688 L228.2109,466.9688 Q228.5156,466.9688 228.6484,467.0859 Q228.7813,467.2031 228.7813,467.3906 Q228.7813,467.5859 228.6484,467.7031 Q228.5156,467.8203 228.2109,467.8203 L227.3516,467.8203 Z " fill="#000000"/><text fill="#000000" font-family="sans-serif" font-size="7" font-style="italic" lengthAdjust="spacing" textLength="51" x="237.125" y="472.3984">ExamRepository</text><line style="stroke:#181818;stroke-width:0.25;" x1="193.5" x2="315.5" y1="477.5" y2="477.5"/><line style="stroke:#181818;stroke-width:0.25;" x1="193.5" x2="315.5" y1="481.5" y2="481.5"/><ellipse cx="198.5" cy="488.9053" fill="#84BE84" rx="1.5" ry="1.5" style="stroke:#038048;stroke-width:0.5;"/><text fill="#000000" font-family="sans-serif" font-size="7" lengthAdjust="spacing" textLength="110" x="203" y="491.0537">findAllFutureCourseExams(course)</text></g><!--class InMemoryExamRepository--><g id="elem_InMemoryExamRepository"><rect codeLine="101" fill="#F1F1F1" height="33.3105" id="InMemoryExamRepository" rx="1.25" ry="1.25" style="stroke:#181818;stroke-width:0.25;" width="116" x="3.5" y="525"/><ellipse cx="19.325" cy="533" fill="#ADD1B2" rx="5.5" ry="5.5" style="stroke:#181818;stroke-width:0.5;"/><path d="M20.7078,530.9375 Q20.7859,530.8281 20.8797,530.7734 Q20.9734,530.7188 21.0828,530.7188 Q21.2703,530.7188 21.3875,530.8516 Q21.5047,530.9766 21.5047,531.2813 L21.5047,532.0078 Q21.5047,532.3125 21.3875,532.4453 Q21.2703,532.5781 21.0828,532.5781 Q20.9109,532.5781 20.8094,532.4766 Q20.7078,532.3828 20.6531,532.125 Q20.6297,531.9453 20.5359,531.8516 Q20.3719,531.6641 20.0672,531.5547 Q19.7625,531.4453 19.45,531.4453 Q19.0672,531.4453 18.7469,531.6094 Q18.4344,531.7734 18.1844,532.1484 Q17.9422,532.5234 17.9422,533.0391 L17.9422,533.5859 Q17.9422,534.2031 18.3875,534.6172 Q18.8328,535.0234 19.6297,535.0234 Q20.0984,535.0234 20.4266,534.8984 Q20.6219,534.8203 20.8328,534.6016 Q20.9656,534.4688 21.0359,534.4297 Q21.1141,534.3906 21.2156,534.3906 Q21.3797,534.3906 21.5047,534.5234 Q21.6375,534.6484 21.6375,534.8203 Q21.6375,534.9922 21.4656,535.1953 Q21.2156,535.4844 20.8172,535.6484 Q20.2781,535.875 19.6297,535.875 Q18.8719,535.875 18.2703,535.5625 Q17.7781,535.3125 17.4344,534.7813 Q17.0906,534.2422 17.0906,533.6016 L17.0906,533.0234 Q17.0906,532.3594 17.3953,531.7891 Q17.7078,531.2109 18.2547,530.9063 Q18.8016,530.5938 19.4188,530.5938 Q19.7859,530.5938 20.1063,530.6797 Q20.4344,530.7578 20.7078,530.9375 Z " fill="#000000"/><text fill="#000000" font-family="sans-serif" font-size="7" lengthAdjust="spacing" textLength="81.5" x="28.175" y="535.8984">InMemoryExamRepository</text><line style="stroke:#181818;stroke-width:0.25;" x1="4" x2="119" y1="541" y2="541"/><line style="stroke:#181818;stroke-width:0.25;" x1="4" x2="119" y1="545" y2="545"/><text fill="#000000" font-family="sans-serif" font-size="7" lengthAdjust="spacing" textLength="110" x="6.5" y="554.5537">findAllFutureCourseExams(course)</text></g><!--class JpaExamRepository--><g id="elem_JpaExamRepository"><rect codeLine="105" fill="#F1F1F1" height="33.3105" id="JpaExamRepository" rx="1.25" ry="1.25" style="stroke:#181818;stroke-width:0.25;" width="116" x="137" y="525"/><ellipse cx="161.875" cy="533" fill="#ADD1B2" rx="5.5" ry="5.5" style="stroke:#181818;stroke-width:0.5;"/><path d="M163.2578,530.9375 Q163.3359,530.8281 163.4297,530.7734 Q163.5234,530.7188 163.6328,530.7188 Q163.8203,530.7188 163.9375,530.8516 Q164.0547,530.9766 164.0547,531.2813 L164.0547,532.0078 Q164.0547,532.3125 163.9375,532.4453 Q163.8203,532.5781 163.6328,532.5781 Q163.4609,532.5781 163.3594,532.4766 Q163.2578,532.3828 163.2031,532.125 Q163.1797,531.9453 163.0859,531.8516 Q162.9219,531.6641 162.6172,531.5547 Q162.3125,531.4453 162,531.4453 Q161.6172,531.4453 161.2969,531.6094 Q160.9844,531.7734 160.7344,532.1484 Q160.4922,532.5234 160.4922,533.0391 L160.4922,533.5859 Q160.4922,534.2031 160.9375,534.6172 Q161.3828,535.0234 162.1797,535.0234 Q162.6484,535.0234 162.9766,534.8984 Q163.1719,534.8203 163.3828,534.6016 Q163.5156,534.4688 163.5859,534.4297 Q163.6641,534.3906 163.7656,534.3906 Q163.9297,534.3906 164.0547,534.5234 Q164.1875,534.6484 164.1875,534.8203 Q164.1875,534.9922 164.0156,535.1953 Q163.7656,535.4844 163.3672,535.6484 Q162.8281,535.875 162.1797,535.875 Q161.4219,535.875 160.8203,535.5625 Q160.3281,535.3125 159.9844,534.7813 Q159.6406,534.2422 159.6406,533.6016 L159.6406,533.0234 Q159.6406,532.3594 159.9453,531.7891 Q160.2578,531.2109 160.8047,530.9063 Q161.3516,530.5938 161.9688,530.5938 Q162.3359,530.5938 162.6563,530.6797 Q162.9844,530.7578 163.2578,530.9375 Z " fill="#000000"/><text fill="#000000" font-family="sans-serif" font-size="7" lengthAdjust="spacing" textLength="62" x="172.125" y="535.8984">JpaExamRepository</text><line style="stroke:#181818;stroke-width:0.25;" x1="137.5" x2="252.5" y1="541" y2="541"/><line style="stroke:#181818;stroke-width:0.25;" x1="137.5" x2="252.5" y1="545" y2="545"/><text fill="#000000" font-family="sans-serif" font-size="7" lengthAdjust="spacing" textLength="110" x="140" y="554.5537">findAllFutureCourseExams(course)</text></g><!--class RepositoryFactory--><g id="elem_RepositoryFactory"><rect codeLine="110" fill="#F1F1F1" height="33.3105" id="RepositoryFactory" rx="1.25" ry="1.25" style="stroke:#181818;stroke-width:0.25;" width="76" x="453.5" y="365.5"/><ellipse cx="461.9" cy="373.5" fill="#ADD1B2" rx="5.5" ry="5.5" style="stroke:#181818;stroke-width:0.5;"/><path d="M463.2828,371.4375 Q463.3609,371.3281 463.4547,371.2734 Q463.5484,371.2188 463.6578,371.2188 Q463.8453,371.2188 463.9625,371.3516 Q464.0797,371.4766 464.0797,371.7813 L464.0797,372.5078 Q464.0797,372.8125 463.9625,372.9453 Q463.8453,373.0781 463.6578,373.0781 Q463.4859,373.0781 463.3844,372.9766 Q463.2828,372.8828 463.2281,372.625 Q463.2047,372.4453 463.1109,372.3516 Q462.9469,372.1641 462.6422,372.0547 Q462.3375,371.9453 462.025,371.9453 Q461.6422,371.9453 461.3219,372.1094 Q461.0094,372.2734 460.7594,372.6484 Q460.5172,373.0234 460.5172,373.5391 L460.5172,374.0859 Q460.5172,374.7031 460.9625,375.1172 Q461.4078,375.5234 462.2047,375.5234 Q462.6734,375.5234 463.0016,375.3984 Q463.1969,375.3203 463.4078,375.1016 Q463.5406,374.9688 463.6109,374.9297 Q463.6891,374.8906 463.7906,374.8906 Q463.9547,374.8906 464.0797,375.0234 Q464.2125,375.1484 464.2125,375.3203 Q464.2125,375.4922 464.0406,375.6953 Q463.7906,375.9844 463.3922,376.1484 Q462.8531,376.375 462.2047,376.375 Q461.4469,376.375 460.8453,376.0625 Q460.3531,375.8125 460.0094,375.2813 Q459.6656,374.7422 459.6656,374.1016 L459.6656,373.5234 Q459.6656,372.8594 459.9703,372.2891 Q460.2828,371.7109 460.8297,371.4063 Q461.3766,371.0938 461.9938,371.0938 Q462.3609,371.0938 462.6813,371.1797 Q463.0094,371.2578 463.2828,371.4375 Z " fill="#000000"/><text fill="#000000" font-family="sans-serif" font-size="7" lengthAdjust="spacing" textLength="58" x="469.1" y="376.3984">RepositoryFactory</text><line style="stroke:#181818;stroke-width:0.25;" x1="454" x2="529" y1="381.5" y2="381.5"/><line style="stroke:#181818;stroke-width:0.25;" x1="454" x2="529" y1="385.5" y2="385.5"/><ellipse cx="459" cy="392.9053" fill="#84BE84" rx="1.5" ry="1.5" style="stroke:#038048;stroke-width:0.5;"/><text fill="#000000" font-family="sans-serif" font-size="7" lengthAdjust="spacing" textLength="63" x="463.5" y="395.0537">RepositoryFactory()</text></g><!--class PersistenceContext--><g id="elem_PersistenceContext"><rect codeLine="115" fill="#F1F1F1" height="33.3105" id="PersistenceContext" rx="1.25" ry="1.25" style="stroke:#181818;stroke-width:0.25;" width="77" x="453" y="237"/><ellipse cx="460.5" cy="245" fill="#ADD1B2" rx="5.5" ry="5.5" style="stroke:#181818;stroke-width:0.5;"/><path d="M461.8828,242.9375 Q461.9609,242.8281 462.0547,242.7734 Q462.1484,242.7188 462.2578,242.7188 Q462.4453,242.7188 462.5625,242.8516 Q462.6797,242.9766 462.6797,243.2813 L462.6797,244.0078 Q462.6797,244.3125 462.5625,244.4453 Q462.4453,244.5781 462.2578,244.5781 Q462.0859,244.5781 461.9844,244.4766 Q461.8828,244.3828 461.8281,244.125 Q461.8047,243.9453 461.7109,243.8516 Q461.5469,243.6641 461.2422,243.5547 Q460.9375,243.4453 460.625,243.4453 Q460.2422,243.4453 459.9219,243.6094 Q459.6094,243.7734 459.3594,244.1484 Q459.1172,244.5234 459.1172,245.0391 L459.1172,245.5859 Q459.1172,246.2031 459.5625,246.6172 Q460.0078,247.0234 460.8047,247.0234 Q461.2734,247.0234 461.6016,246.8984 Q461.7969,246.8203 462.0078,246.6016 Q462.1406,246.4688 462.2109,246.4297 Q462.2891,246.3906 462.3906,246.3906 Q462.5547,246.3906 462.6797,246.5234 Q462.8125,246.6484 462.8125,246.8203 Q462.8125,246.9922 462.6406,247.1953 Q462.3906,247.4844 461.9922,247.6484 Q461.4531,247.875 460.8047,247.875 Q460.0469,247.875 459.4453,247.5625 Q458.9531,247.3125 458.6094,246.7813 Q458.2656,246.2422 458.2656,245.6016 L458.2656,245.0234 Q458.2656,244.3594 458.5703,243.7891 Q458.8828,243.2109 459.4297,242.9063 Q459.9766,242.5938 460.5938,242.5938 Q460.9609,242.5938 461.2813,242.6797 Q461.6094,242.7578 461.8828,242.9375 Z " fill="#000000"/><text fill="#000000" font-family="sans-serif" font-size="7" lengthAdjust="spacing" textLength="61" x="467.5" y="247.8984">PersistenceContext</text><line style="stroke:#181818;stroke-width:0.25;" x1="453.5" x2="529.5" y1="253" y2="253"/><line style="stroke:#181818;stroke-width:0.25;" x1="453.5" x2="529.5" y1="257" y2="257"/><rect fill="#F24D5C" height="3" style="stroke:#C82930;stroke-width:0.5;" width="3" x="457" y="262.9053"/><text fill="#000000" font-family="sans-serif" font-size="7" lengthAdjust="spacing" textLength="42" x="463" y="266.5537">repositories()</text></g><!--class EnrolmentRepository--><g id="elem_EnrolmentRepository"><rect codeLine="120" fill="#F1F1F1" height="33.3105" id="EnrolmentRepository" rx="1.25" ry="1.25" style="stroke:#181818;stroke-width:0.25;" width="165" x="676" y="461.5"/><ellipse cx="723.375" cy="469.5" fill="#B4A7E5" rx="5.5" ry="5.5" style="stroke:#181818;stroke-width:0.5;"/><path d="M723.8516,467.8203 L723.8516,471.1484 L724.7109,471.1484 Q725.0156,471.1484 725.1484,471.2656 Q725.2813,471.3828 725.2813,471.5781 Q725.2813,471.7656 725.1484,471.8828 Q725.0156,472 724.7109,472 L722.1406,472 Q721.8359,472 721.7031,471.8828 Q721.5703,471.7656 721.5703,471.5703 Q721.5703,471.3828 721.7031,471.2656 Q721.8359,471.1484 722.1406,471.1484 L723,471.1484 L723,467.8203 L722.1406,467.8203 Q721.8359,467.8203 721.7031,467.7031 Q721.5703,467.5859 721.5703,467.3906 Q721.5703,467.2031 721.7031,467.0859 Q721.8359,466.9688 722.1406,466.9688 L724.7109,466.9688 Q725.0156,466.9688 725.1484,467.0859 Q725.2813,467.2031 725.2813,467.3906 Q725.2813,467.5859 725.1484,467.7031 Q725.0156,467.8203 724.7109,467.8203 L723.8516,467.8203 Z " fill="#000000"/><text fill="#000000" font-family="sans-serif" font-size="7" font-style="italic" lengthAdjust="spacing" textLength="66" x="733.625" y="472.3984">EnrolmentRepository</text><line style="stroke:#181818;stroke-width:0.25;" x1="676.5" x2="840.5" y1="477.5" y2="477.5"/><line style="stroke:#181818;stroke-width:0.25;" x1="676.5" x2="840.5" y1="481.5" y2="481.5"/><ellipse cx="681.5" cy="488.9053" fill="#84BE84" rx="1.5" ry="1.5" style="stroke:#038048;stroke-width:0.5;"/><text fill="#000000" font-family="sans-serif" font-size="7" lengthAdjust="spacing" textLength="152" x="686" y="491.0537">findByStudentMecanographicNumber(studentID)</text></g><!--class InMemoryEnrolmentRepository--><g id="elem_InMemoryEnrolmentRepository"><rect codeLine="124" fill="#F1F1F1" height="33.3105" id="InMemoryEnrolmentRepository" rx="1.25" ry="1.25" style="stroke:#181818;stroke-width:0.25;" width="165" x="734.5" y="525"/><ellipse cx="766.625" cy="533" fill="#ADD1B2" rx="5.5" ry="5.5" style="stroke:#181818;stroke-width:0.5;"/><path d="M768.0078,530.9375 Q768.0859,530.8281 768.1797,530.7734 Q768.2734,530.7188 768.3828,530.7188 Q768.5703,530.7188 768.6875,530.8516 Q768.8047,530.9766 768.8047,531.2813 L768.8047,532.0078 Q768.8047,532.3125 768.6875,532.4453 Q768.5703,532.5781 768.3828,532.5781 Q768.2109,532.5781 768.1094,532.4766 Q768.0078,532.3828 767.9531,532.125 Q767.9297,531.9453 767.8359,531.8516 Q767.6719,531.6641 767.3672,531.5547 Q767.0625,531.4453 766.75,531.4453 Q766.3672,531.4453 766.0469,531.6094 Q765.7344,531.7734 765.4844,532.1484 Q765.2422,532.5234 765.2422,533.0391 L765.2422,533.5859 Q765.2422,534.2031 765.6875,534.6172 Q766.1328,535.0234 766.9297,535.0234 Q767.3984,535.0234 767.7266,534.8984 Q767.9219,534.8203 768.1328,534.6016 Q768.2656,534.4688 768.3359,534.4297 Q768.4141,534.3906 768.5156,534.3906 Q768.6797,534.3906 768.8047,534.5234 Q768.9375,534.6484 768.9375,534.8203 Q768.9375,534.9922 768.7656,535.1953 Q768.5156,535.4844 768.1172,535.6484 Q767.5781,535.875 766.9297,535.875 Q766.1719,535.875 765.5703,535.5625 Q765.0781,535.3125 764.7344,534.7813 Q764.3906,534.2422 764.3906,533.6016 L764.3906,533.0234 Q764.3906,532.3594 764.6953,531.7891 Q765.0078,531.2109 765.5547,530.9063 Q766.1016,530.5938 766.7188,530.5938 Q767.0859,530.5938 767.4063,530.6797 Q767.7344,530.7578 768.0078,530.9375 Z " fill="#000000"/><text fill="#000000" font-family="sans-serif" font-size="7" lengthAdjust="spacing" textLength="96.5" x="776.875" y="535.8984">InMemoryEnrolmentRepository</text><line style="stroke:#181818;stroke-width:0.25;" x1="735" x2="899" y1="541" y2="541"/><line style="stroke:#181818;stroke-width:0.25;" x1="735" x2="899" y1="545" y2="545"/><ellipse cx="740" cy="552.4053" fill="#84BE84" rx="1.5" ry="1.5" style="stroke:#038048;stroke-width:0.5;"/><text fill="#000000" font-family="sans-serif" font-size="7" lengthAdjust="spacing" textLength="152" x="744.5" y="554.5537">findByStudentMecanographicNumber(studentID)</text></g><!--class JpaEnrolmentRepository--><g id="elem_JpaEnrolmentRepository"><rect codeLine="128" fill="#F1F1F1" height="33.3105" id="JpaEnrolmentRepository" rx="1.25" ry="1.25" style="stroke:#181818;stroke-width:0.25;" width="165" x="917" y="525"/><ellipse cx="958.875" cy="533" fill="#ADD1B2" rx="5.5" ry="5.5" style="stroke:#181818;stroke-width:0.5;"/><path d="M960.2578,530.9375 Q960.3359,530.8281 960.4297,530.7734 Q960.5234,530.7188 960.6328,530.7188 Q960.8203,530.7188 960.9375,530.8516 Q961.0547,530.9766 961.0547,531.2813 L961.0547,532.0078 Q961.0547,532.3125 960.9375,532.4453 Q960.8203,532.5781 960.6328,532.5781 Q960.4609,532.5781 960.3594,532.4766 Q960.2578,532.3828 960.2031,532.125 Q960.1797,531.9453 960.0859,531.8516 Q959.9219,531.6641 959.6172,531.5547 Q959.3125,531.4453 959,531.4453 Q958.6172,531.4453 958.2969,531.6094 Q957.9844,531.7734 957.7344,532.1484 Q957.4922,532.5234 957.4922,533.0391 L957.4922,533.5859 Q957.4922,534.2031 957.9375,534.6172 Q958.3828,535.0234 959.1797,535.0234 Q959.6484,535.0234 959.9766,534.8984 Q960.1719,534.8203 960.3828,534.6016 Q960.5156,534.4688 960.5859,534.4297 Q960.6641,534.3906 960.7656,534.3906 Q960.9297,534.3906 961.0547,534.5234 Q961.1875,534.6484 961.1875,534.8203 Q961.1875,534.9922 961.0156,535.1953 Q960.7656,535.4844 960.3672,535.6484 Q959.8281,535.875 959.1797,535.875 Q958.4219,535.875 957.8203,535.5625 Q957.3281,535.3125 956.9844,534.7813 Q956.6406,534.2422 956.6406,533.6016 L956.6406,533.0234 Q956.6406,532.3594 956.9453,531.7891 Q957.2578,531.2109 957.8047,530.9063 Q958.3516,530.5938 958.9688,530.5938 Q959.3359,530.5938 959.6563,530.6797 Q959.9844,530.7578 960.2578,530.9375 Z " fill="#000000"/><text fill="#000000" font-family="sans-serif" font-size="7" lengthAdjust="spacing" textLength="77" x="969.125" y="535.8984">JpaEnrolmentRepository</text><line style="stroke:#181818;stroke-width:0.25;" x1="917.5" x2="1081.5" y1="541" y2="541"/><line style="stroke:#181818;stroke-width:0.25;" x1="917.5" x2="1081.5" y1="545" y2="545"/><ellipse cx="922.5" cy="552.4053" fill="#84BE84" rx="1.5" ry="1.5" style="stroke:#038048;stroke-width:0.5;"/><text fill="#000000" font-family="sans-serif" font-size="7" lengthAdjust="spacing" textLength="152" x="927" y="554.5537">findByStudentMecanographicNumber(studentID)</text></g><!--link PersistenceContext to RepositoryFactory--><g id="link_PersistenceContext_RepositoryFactory"><path codeLine="134" d="M491.5,270.525 C491.5,294.155 491.5,337.845 491.5,362.86 " fill="none" id="PersistenceContext-to-RepositoryFactory" style="stroke:#181818;stroke-width:0.5;stroke-dasharray:7.0,7.0;"/><polygon fill="#181818" points="491.5,365.37,493.5,360.87,491.5,362.87,489.5,360.87,491.5,365.37" style="stroke:#181818;stroke-width:0.5;"/></g><!--link RepositoryFactory to CourseRepository--><g id="link_RepositoryFactory_CourseRepository"><path codeLine="136" d="M503.875,399.08 C516.59,415.855 536.335,441.905 549.58,459.385 " fill="none" id="RepositoryFactory-to-CourseRepository" style="stroke:#181818;stroke-width:0.5;"/><polygon fill="#181818" points="551.165,461.475,550.0349,456.682,549.6525,459.4845,546.85,459.102,551.165,461.475" style="stroke:#181818;stroke-width:0.5;"/></g><!--link RepositoryFactory to ExamRepository--><g id="link_RepositoryFactory_ExamRepository"><path codeLine="137" d="M469.05,399.11 C453.945,409.52 433.25,422.66 413.5,431.5 C383.32,445.01 348.165,455.715 318.595,463.41 " fill="none" id="RepositoryFactory-to-ExamRepository" style="stroke:#181818;stroke-width:0.5;"/><polygon fill="#181818" points="316.115,464.05,320.9732,464.8552,318.5348,463.4219,319.9681,460.9835,316.115,464.05" style="stroke:#181818;stroke-width:0.5;"/></g><!--link RepositoryFactory to StudentRepository--><g id="link_RepositoryFactory_StudentRepository"><path codeLine="138" d="M483.25,399.08 C474.81,415.785 461.715,441.695 452.885,459.17 " fill="none" id="RepositoryFactory-to-StudentRepository" style="stroke:#181818;stroke-width:0.5;"/><polygon fill="#181818" points="451.725,461.475,455.5423,458.364,452.8545,459.2447,451.9738,456.5569,451.725,461.475" style="stroke:#181818;stroke-width:0.5;"/></g><!--link RepositoryFactory to EnrolmentRepository--><g id="link_RepositoryFactory_EnrolmentRepository"><path codeLine="139" d="M529.615,396.31 C577.125,413.215 658.385,442.13 710.21,460.57 " fill="none" id="RepositoryFactory-to-EnrolmentRepository" style="stroke:#181818;stroke-width:0.5;"/><polygon fill="#181818" points="712.655,461.44,709.0911,458.0416,710.301,460.5983,707.7443,461.8081,712.655,461.44" style="stroke:#181818;stroke-width:0.5;"/></g><!--reverse link CourseRepository to InMemoryCourseRepository--><g id="link_CourseRepository_InMemoryCourseRepository"><path codeLine="141" d="M563.5,505.1 C563.5,511.805 563.5,518.815 563.5,524.855 " fill="none" id="CourseRepository-backto-InMemoryCourseRepository" style="stroke:#181818;stroke-width:0.5;stroke-dasharray:7.0,7.0;"/><polygon fill="none" points="560,505.01,563.5,495.01,567,505.01,560,505.01" style="stroke:#181818;stroke-width:0.5;"/></g><!--reverse link CourseRepository to JpaCourseRepository--><g id="link_CourseRepository_JpaCourseRepository"><path codeLine="142" d="M601.31,499.945 C615.895,508.12 632.315,517.325 645.945,524.965 " fill="none" id="CourseRepository-backto-JpaCourseRepository" style="stroke:#181818;stroke-width:0.5;stroke-dasharray:7.0,7.0;"/><polygon fill="none" points="599.515,502.95,592.505,495.01,602.94,496.845,599.515,502.95" style="stroke:#181818;stroke-width:0.5;"/></g><!--reverse link ExamRepository to InMemoryExamRepository--><g id="link_ExamRepository_InMemoryExamRepository"><path codeLine="143" d="M194.715,498.11 C168.125,506.72 137.165,516.745 111.79,524.965 " fill="none" id="ExamRepository-backto-InMemoryExamRepository" style="stroke:#181818;stroke-width:0.5;stroke-dasharray:7.0,7.0;"/><polygon fill="none" points="193.705,494.76,204.295,495.01,195.86,501.42,193.705,494.76" style="stroke:#181818;stroke-width:0.5;"/></g><!--reverse link ExamRepository to JpaExamRepository--><g id="link_ExamRepository_JpaExamRepository"><path codeLine="144" d="M232.125,502.25 C224.96,509.78 217.18,517.95 210.605,524.855 " fill="none" id="ExamRepository-backto-JpaExamRepository" style="stroke:#181818;stroke-width:0.5;stroke-dasharray:7.0,7.0;"/><polygon fill="none" points="229.59,499.835,239.02,495.01,234.66,504.665,229.59,499.835" style="stroke:#181818;stroke-width:0.5;"/></g><!--reverse link StudentRepository to InMemoryStudentRepository--><g id="link_StudentRepository_InMemoryStudentRepository"><path codeLine="145" d="M403.085,499.71 C387.21,507.945 369.27,517.25 354.4,524.965 " fill="none" id="StudentRepository-backto-InMemoryStudentRepository" style="stroke:#181818;stroke-width:0.5;stroke-dasharray:7.0,7.0;"/><polygon fill="none" points="401.665,496.505,412.155,495.01,404.89,502.72,401.665,496.505" style="stroke:#181818;stroke-width:0.5;"/></g><!--reverse link StudentRepository to JpaStudentRepository--><g id="link_StudentRepository_JpaStudentRepository"><path codeLine="146" d="M443.5,505.1 C443.5,511.805 443.5,518.815 443.5,524.855 " fill="none" id="StudentRepository-backto-JpaStudentRepository" style="stroke:#181818;stroke-width:0.5;stroke-dasharray:7.0,7.0;"/><polygon fill="none" points="440,505.01,443.5,495.01,447,505.01,440,505.01" style="stroke:#181818;stroke-width:0.5;"/></g><!--reverse link EnrolmentRepository to InMemoryEnrolmentRepository--><g id="link_EnrolmentRepository_InMemoryEnrolmentRepository"><path codeLine="147" d="M780.72,502.49 C787.705,509.95 795.26,518.02 801.655,524.855 " fill="none" id="EnrolmentRepository-backto-InMemoryEnrolmentRepository" style="stroke:#181818;stroke-width:0.5;stroke-dasharray:7.0,7.0;"/><polygon fill="none" points="777.995,504.7,773.715,495.01,783.105,499.915,777.995,504.7" style="stroke:#181818;stroke-width:0.5;"/></g><!--reverse link EnrolmentRepository to JpaEnrolmentRepository--><g id="link_EnrolmentRepository_JpaEnrolmentRepository"><path codeLine="148" d="M830.975,497.545 C864.655,506.28 904.32,516.565 936.705,524.965 " fill="none" id="EnrolmentRepository-backto-JpaEnrolmentRepository" style="stroke:#181818;stroke-width:0.5;stroke-dasharray:7.0,7.0;"/><polygon fill="none" points="829.99,500.905,821.19,495.01,831.75,494.13,829.99,500.905" style="stroke:#181818;stroke-width:0.5;"/></g><!--link ListFutureExamsController to ListEnrolmentService--><g id="link_ListFutureExamsController_ListEnrolmentService"><path codeLine="150" d="M493.505,174.575 C509.11,183.865 524.525,193.925 538.5,204.5 C601.36,252.065 662.64,322.72 692.19,358.775 " fill="none" id="ListFutureExamsController-to-ListEnrolmentService" style="stroke:#181818;stroke-width:0.5;"/><polygon fill="#181818" points="693.915,360.89,692.6105,356.1415,692.3307,358.9561,689.5162,358.6763,693.915,360.89" style="stroke:#181818;stroke-width:0.5;"/></g><!--link ListFutureExamsController to ExamListService--><g id="link_ListFutureExamsController_ExamListService"><path codeLine="151" d="M375.5,174.695 C375.5,194.07 375.5,214.565 375.5,229.76 " fill="none" id="ListFutureExamsController-to-ExamListService" style="stroke:#181818;stroke-width:0.5;"/><polygon fill="#181818" points="375.5,232.345,377.5,227.845,375.5,229.845,373.5,227.845,375.5,232.345" style="stroke:#181818;stroke-width:0.5;"/></g><!--link ListFutureExamsController to Course--><g id="link_ListFutureExamsController_Course"><path codeLine="152" d="M252.995,174.56 C236.74,183.85 220.645,193.915 206,204.5 C203.855,206.05 201.715,207.69 199.59,209.39 " fill="none" id="ListFutureExamsController-to-Course" style="stroke:#181818;stroke-width:0.5;stroke-dasharray:7.0,7.0;"/><polygon fill="#181818" points="197.645,210.975,202.3987,209.6896,199.5853,209.3985,199.8763,206.5851,197.645,210.975" style="stroke:#181818;stroke-width:0.5;"/></g><!--link ListFutureExamsController to CourseDTO--><g id="link_ListFutureExamsController_CourseDTO"><path codeLine="153" d="M324.86,174.695 C315.39,185.575 305.615,196.805 296.525,207.255 " fill="none" id="ListFutureExamsController-to-CourseDTO" style="stroke:#181818;stroke-width:0.5;stroke-dasharray:7.0,7.0;"/><polygon fill="#181818" points="294.835,209.2,299.2945,207.1112,296.4731,207.3115,296.2728,204.4902,294.835,209.2" style="stroke:#181818;stroke-width:0.5;"/></g><!--link ListFutureExamsController to PersistenceContext--><g id="link_ListFutureExamsController_PersistenceContext"><path codeLine="154" d="M424.865,174.695 C443.215,196.33 462.75,219.36 475.89,234.85 " fill="none" id="ListFutureExamsController-to-PersistenceContext" style="stroke:#181818;stroke-width:0.5;stroke-dasharray:7.0,7.0;"/><polygon fill="#181818" points="477.62,236.89,476.2392,232.1631,476.0048,234.9818,473.1861,234.7474,477.62,236.89" style="stroke:#181818;stroke-width:0.5;"/></g><!--link ListFutureExamsUI to ListFutureExamsController--><g id="link_ListFutureExamsUI_ListFutureExamsController"><path codeLine="156" d="M375.5,27.61 C375.5,34.725 375.5,44.45 375.5,54.84 " fill="none" id="ListFutureExamsUI-to-ListFutureExamsController" style="stroke:#181818;stroke-width:0.5;stroke-dasharray:7.0,7.0;"/><polygon fill="#181818" points="375.5,57.35,377.5,52.85,375.5,54.85,373.5,52.85,375.5,57.35" style="stroke:#181818;stroke-width:0.5;"/></g><!--link ListEnrolmentService to EnrolmentRepository--><g id="link_ListEnrolmentService_EnrolmentRepository"><path codeLine="158" d="M721.035,403.6 C729.4,420.155 740.99,443.095 749.055,459.055 " fill="none" id="ListEnrolmentService-to-EnrolmentRepository" style="stroke:#181818;stroke-width:0.5;stroke-dasharray:7.0,7.0;"/><polygon fill="#181818" points="750.22,461.36,749.9776,456.4415,749.0934,459.1282,746.4067,458.2441,750.22,461.36" style="stroke:#181818;stroke-width:0.5;"/></g><!--link ExamListService to Exam--><g id="link_ExamListService_Exam"><path codeLine="160" d="M359.565,275.095 C347.63,290.845 331.02,313.085 317,333 C314.625,336.375 312.185,339.905 309.76,343.455 " fill="none" id="ExamListService-to-Exam" style="stroke:#181818;stroke-width:0.5;stroke-dasharray:7.0,7.0;"/><polygon fill="#181818" points="308.255,345.67,312.4422,343.0782,309.6631,343.6043,309.137,340.8252,308.255,345.67" style="stroke:#181818;stroke-width:0.5;"/></g><!--link ExamListService to ExamDTO--><g id="link_ExamListService_ExamDTO"><path codeLine="161" d="M371.345,275.02 C368.09,291.295 363.44,314.56 359.305,335.22 " fill="none" id="ExamListService-to-ExamDTO" style="stroke:#181818;stroke-width:0.5;stroke-dasharray:7.0,7.0;"/><polygon fill="#181818" points="358.805,337.725,361.6397,333.6983,359.2898,335.2725,357.7156,332.9226,358.805,337.725" style="stroke:#181818;stroke-width:0.5;"/></g><!--link ExamListService to ExamRepository--><g id="link_ExamListService_ExamRepository"><path codeLine="162" d="M383.76,275.095 C396.395,310.735 415.765,384.11 382.5,431.5 C367.8,452.44 342.635,463.94 318.49,470.24 " fill="none" id="ExamListService-to-ExamRepository" style="stroke:#181818;stroke-width:0.5;stroke-dasharray:7.0,7.0;"/><polygon fill="#181818" points="316.005,470.87,320.8586,471.7021,318.4282,470.2553,319.875,467.8249,316.005,470.87" style="stroke:#181818;stroke-width:0.5;"/></g><!--SRC=[lLPRRjim4FpdAVGf8RPFK0H8xGHmaRH5tHo0fTSr0JqCaWgIFkxUNL6oI96C4yFe7nyxezNixaYYv5fdzrARkzQq2cwVUQKVrzblnluo9cAtowOsgYbBK1Wrpw36JGMr-GQ7HalJg1Sy5KshD7X7shJRQHXlpRvHyXStigate9wa0EB4vz1JXvEhT0vvZ6AMmHCls-w8uiTdpbWiuLcGxonCjs2OHqbPsPjb1z5vWSUxCRNSKgs-Vob8GbaRK3ik8DjC2L4-HCfw-_7bKOEgUGLvso-AKVvr_G0LXf-B_tJWvqBjAs9mbb59jz0jZ3IbNMr12oKF97EtFqfxBojfT0yZZetX1fpzxH3fN2Z0vVR6uEugCytAD7cG2yhwtzFnghYSD4gNpQ3b4dFAAR58-TuDnBgz0zE3g0MxiUpa6LuF5mQus8F2bQHMa3lPRQnuldGqggH2f0X4RqjmaITulCx0MsFn1hUVlPkoj3PWfN4dhl0TQoofonangq7FVaWUGF2w-QduOI_5vxRwWHupcMJVKewpT2gtIKC4B6_XEBR6MUWUFkBkk73wAZZFNTHNK1frXLe0sIyyctuIrG2JdHiImj4gLDmndrSqx_rtlOhCqaL9ISpBy34MqMYnk0w5PIoimNn-7RXB8imlVY8eCFqKMMGcME0y7_ui5aalIuH778nD-jQZdRnMB3JeV1P-sppEK8K48FQPPB76y5EEY9S4nJkDiVGF5jKdPcOd81CxVIMQkjFMw4r1wFqdui892DuFVoyfCibZ0O5_4oOgt_JZqGNYMVA2tY9rvnB_0m00]--></g></svg>