<?xml version="1.0" encoding="UTF-8" standalone="no"?><svg xmlns="http://www.w3.org/2000/svg" xmlns:xlink="http://www.w3.org/1999/xlink" contentStyleType="text/css" height="1397px" preserveAspectRatio="none" style="width:4227px;height:1397px;background:#FFFFFF;" version="1.1" viewBox="0 0 4227 1397" width="4227px" zoomAndPan="magnify"><defs/><g><rect fill="#FFFFFF" height="686.3596" style="stroke:#181818;stroke-width:1.0;" width="10" x="586.75" y="148.7199"/><rect fill="#FFFFFF" height="396.1598" style="stroke:#181818;stroke-width:1.0;" width="10" x="586.75" y="876.3195"/><rect fill="#FFFFFF" height="30" style="stroke:#181818;stroke-width:1.0;" width="10" x="1419.375" y="189.9599"/><rect fill="#FFFFFF" height="540.6397" style="stroke:#181818;stroke-width:1.0;" width="10" x="1419.375" y="261.1999"/><rect fill="#FFFFFF" height="28" style="stroke:#181818;stroke-width:1.0;" width="10" x="1424.375" y="744.8396"/><rect fill="#FFFFFF" height="258.4398" style="stroke:#181818;stroke-width:1.0;" width="10" x="1419.375" y="971.7995"/><rect fill="#FFFFFF" height="30" style="stroke:#181818;stroke-width:1.0;" width="10" x="1973" y="302.4398"/><rect fill="#FFFFFF" height="71.24" style="stroke:#181818;stroke-width:1.0;" width="10" x="2250" y="444.9198"/><rect fill="#FFFFFF" height="217.1999" style="stroke:#181818;stroke-width:1.0;" width="10" x="2453" y="1013.0395"/><rect fill="#FFFFFF" height="41.24" style="stroke:#181818;stroke-width:1.0;" width="10" x="2635.25" y="1173.9994"/><rect fill="#FFFFFF" height="41.24" style="stroke:#181818;stroke-width:1.0;" width="10" x="2874.25" y="654.3596"/><rect fill="#FFFFFF" height="30" style="stroke:#181818;stroke-width:1.0;" width="10" x="3465.75" y="373.6798"/><rect fill="#FFFFFF" height="30" style="stroke:#181818;stroke-width:1.0;" width="10" x="3835.25" y="1054.2794"/><rect fill="#FFFFFF" height="30" style="stroke:#181818;stroke-width:1.0;" width="10" x="4031.25" y="486.1598"/><rect fill="none" height="263.6798" style="stroke:#000000;stroke-width:1.5;" width="1816.375" x="1267.375" y="531.1598"/><rect fill="none" height="208.1999" style="stroke:#000000;stroke-width:1.5;" width="1796.375" x="1277.375" y="579.6397"/><rect fill="none" height="123.9599" style="stroke:#000000;stroke-width:1.5;" width="827.75" x="2364" y="1099.2794"/><line style="stroke:#181818;stroke-width:0.5;stroke-dasharray:5.0,5.0;" x1="46" x2="46" y1="105.4799" y2="1281.4793"/><line style="stroke:#181818;stroke-width:0.5;stroke-dasharray:5.0,5.0;" x1="591.75" x2="591.75" y1="105.4799" y2="1281.4793"/><line style="stroke:#181818;stroke-width:0.5;stroke-dasharray:5.0,5.0;" x1="1424.375" x2="1424.375" y1="105.4799" y2="1281.4793"/><line style="stroke:#181818;stroke-width:0.5;stroke-dasharray:5.0,5.0;" x1="1977.5" x2="1977.5" y1="105.4799" y2="1281.4793"/><line style="stroke:#181818;stroke-width:0.5;stroke-dasharray:5.0,5.0;" x1="2255" x2="2255" y1="105.4799" y2="1281.4793"/><line style="stroke:#181818;stroke-width:0.5;stroke-dasharray:5.0,5.0;" x1="2458" x2="2458" y1="105.4799" y2="1281.4793"/><line style="stroke:#181818;stroke-width:0.5;stroke-dasharray:5.0,5.0;" x1="2639.75" x2="2639.75" y1="105.4799" y2="1281.4793"/><line style="stroke:#181818;stroke-width:0.5;stroke-dasharray:5.0,5.0;" x1="2759.75" x2="2759.75" y1="105.4799" y2="1281.4793"/><line style="stroke:#181818;stroke-width:0.5;stroke-dasharray:5.0,5.0;" x1="2878.75" x2="2878.75" y1="105.4799" y2="1281.4793"/><line style="stroke:#181818;stroke-width:0.5;stroke-dasharray:5.0,5.0;" x1="3001.75" x2="3001.75" y1="105.4799" y2="1281.4793"/><line style="stroke:#181818;stroke-width:0.5;stroke-dasharray:5.0,5.0;" x1="3127.75" x2="3127.75" y1="105.4799" y2="1281.4793"/><line style="stroke:#181818;stroke-width:0.5;stroke-dasharray:5.0,5.0;" x1="3279.75" x2="3279.75" y1="105.4799" y2="1281.4793"/><line style="stroke:#181818;stroke-width:0.5;stroke-dasharray:5.0,5.0;" x1="3470.75" x2="3470.75" y1="105.4799" y2="1281.4793"/><line style="stroke:#181818;stroke-width:0.5;stroke-dasharray:5.0,5.0;" x1="3661.75" x2="3661.75" y1="105.4799" y2="1281.4793"/><line style="stroke:#181818;stroke-width:0.5;stroke-dasharray:5.0,5.0;" x1="3839.75" x2="3839.75" y1="105.4799" y2="1281.4793"/><line style="stroke:#181818;stroke-width:0.5;stroke-dasharray:5.0,5.0;" x1="4035.75" x2="4035.75" y1="105.4799" y2="1281.4793"/><line style="stroke:#181818;stroke-width:0.5;stroke-dasharray:5.0,5.0;" x1="4186.75" x2="4186.75" y1="105.4799" y2="1281.4793"/><text fill="#000000" font-family="sans-serif" font-size="20" lengthAdjust="spacing" textLength="77" x="5" y="99.62">Student</text><ellipse cx="46.5" cy="26.74" fill="#E2E2F0" rx="8" ry="8" style="stroke:#181818;stroke-width:0.5;"/><path d="M46.5,34.74 L46.5,61.74 M33.5,42.74 L59.5,42.74 M46.5,61.74 L33.5,76.74 M46.5,61.74 L59.5,76.74 " fill="none" style="stroke:#181818;stroke-width:0.5;"/><text fill="#000000" font-family="sans-serif" font-size="20" lengthAdjust="spacing" textLength="77" x="5" y="1301.8593">Student</text><ellipse cx="46.5" cy="1316.2193" fill="#E2E2F0" rx="8" ry="8" style="stroke:#181818;stroke-width:0.5;"/><path d="M46.5,1324.2193 L46.5,1351.2193 M33.5,1332.2193 L59.5,1332.2193 M46.5,1351.2193 L33.5,1366.2193 M46.5,1351.2193 L59.5,1366.2193 " fill="none" style="stroke:#181818;stroke-width:0.5;"/><rect fill="#E2E2F0" height="68.4799" rx="2.5" ry="2.5" style="stroke:#181818;stroke-width:0.5;" width="198" x="492.75" y="36"/><text fill="#000000" font-family="sans-serif" font-size="20" font-style="italic" lengthAdjust="spacing" textLength="134" x="524.75" y="64.38">«presentation»</text><text fill="#000000" font-family="sans-serif" font-size="20" lengthAdjust="spacing" textLength="184" x="499.75" y="91.62">ListFutureExamsUI</text><rect fill="#E2E2F0" height="68.4799" rx="2.5" ry="2.5" style="stroke:#181818;stroke-width:0.5;" width="198" x="492.75" y="1280.4793"/><text fill="#000000" font-family="sans-serif" font-size="20" font-style="italic" lengthAdjust="spacing" textLength="134" x="524.75" y="1308.8593">«presentation»</text><text fill="#000000" font-family="sans-serif" font-size="20" lengthAdjust="spacing" textLength="184" x="499.75" y="1336.0993">ListFutureExamsUI</text><rect fill="#E2E2F0" height="68.4799" rx="2.5" ry="2.5" style="stroke:#181818;stroke-width:0.5;" width="274" x="1287.375" y="36"/><text fill="#000000" font-family="sans-serif" font-size="20" font-style="italic" lengthAdjust="spacing" textLength="120" x="1364.375" y="64.38">«application»</text><text fill="#000000" font-family="sans-serif" font-size="20" lengthAdjust="spacing" textLength="260" x="1294.375" y="91.62">ListFutureExamsController</text><rect fill="#E2E2F0" height="68.4799" rx="2.5" ry="2.5" style="stroke:#181818;stroke-width:0.5;" width="274" x="1287.375" y="1280.4793"/><text fill="#000000" font-family="sans-serif" font-size="20" font-style="italic" lengthAdjust="spacing" textLength="120" x="1364.375" y="1308.8593">«application»</text><text fill="#000000" font-family="sans-serif" font-size="20" lengthAdjust="spacing" textLength="260" x="1294.375" y="1336.0993">ListFutureExamsController</text><rect fill="#E2E2F0" height="68.4799" rx="2.5" ry="2.5" style="stroke:#181818;stroke-width:0.5;" width="225" x="1865.5" y="36"/><text fill="#000000" font-family="sans-serif" font-size="20" font-style="italic" lengthAdjust="spacing" textLength="80" x="1938" y="64.38">«service»</text><text fill="#000000" font-family="sans-serif" font-size="20" lengthAdjust="spacing" textLength="211" x="1872.5" y="91.62">AuthenticationService</text><rect fill="#E2E2F0" height="68.4799" rx="2.5" ry="2.5" style="stroke:#181818;stroke-width:0.5;" width="225" x="1865.5" y="1280.4793"/><text fill="#000000" font-family="sans-serif" font-size="20" font-style="italic" lengthAdjust="spacing" textLength="80" x="1938" y="1308.8593">«service»</text><text fill="#000000" font-family="sans-serif" font-size="20" lengthAdjust="spacing" textLength="211" x="1872.5" y="1336.0993">AuthenticationService</text><rect fill="#E2E2F0" height="68.4799" rx="2.5" ry="2.5" style="stroke:#181818;stroke-width:0.5;" width="218" x="2146" y="36"/><text fill="#000000" font-family="sans-serif" font-size="20" font-style="italic" lengthAdjust="spacing" textLength="80" x="2215" y="64.38">«service»</text><text fill="#000000" font-family="sans-serif" font-size="20" lengthAdjust="spacing" textLength="204" x="2153" y="91.62">EnrolmentListService</text><rect fill="#E2E2F0" height="68.4799" rx="2.5" ry="2.5" style="stroke:#181818;stroke-width:0.5;" width="218" x="2146" y="1280.4793"/><text fill="#000000" font-family="sans-serif" font-size="20" font-style="italic" lengthAdjust="spacing" textLength="80" x="2215" y="1308.8593">«service»</text><text fill="#000000" font-family="sans-serif" font-size="20" lengthAdjust="spacing" textLength="204" x="2153" y="1336.0993">EnrolmentListService</text><rect fill="#E2E2F0" height="68.4799" rx="2.5" ry="2.5" style="stroke:#181818;stroke-width:0.5;" width="168" x="2374" y="36"/><text fill="#000000" font-family="sans-serif" font-size="20" font-style="italic" lengthAdjust="spacing" textLength="80" x="2418" y="64.38">«service»</text><text fill="#000000" font-family="sans-serif" font-size="20" lengthAdjust="spacing" textLength="154" x="2381" y="91.62">ExamListService</text><rect fill="#E2E2F0" height="68.4799" rx="2.5" ry="2.5" style="stroke:#181818;stroke-width:0.5;" width="168" x="2374" y="1280.4793"/><text fill="#000000" font-family="sans-serif" font-size="20" font-style="italic" lengthAdjust="spacing" textLength="80" x="2418" y="1308.8593">«service»</text><text fill="#000000" font-family="sans-serif" font-size="20" lengthAdjust="spacing" textLength="154" x="2381" y="1336.0993">ExamListService</text><rect fill="#E2E2F0" height="68.4799" rx="2.5" ry="2.5" style="stroke:#181818;stroke-width:0.5;" width="103" x="2588.75" y="36"/><text fill="#000000" font-family="sans-serif" font-size="20" font-style="italic" lengthAdjust="spacing" textLength="89" x="2595.75" y="64.38">«domain»</text><text fill="#000000" font-family="sans-serif" font-size="20" lengthAdjust="spacing" textLength="52" x="2614.25" y="91.62">Exam</text><rect fill="#E2E2F0" height="68.4799" rx="2.5" ry="2.5" style="stroke:#181818;stroke-width:0.5;" width="103" x="2588.75" y="1280.4793"/><text fill="#000000" font-family="sans-serif" font-size="20" font-style="italic" lengthAdjust="spacing" textLength="89" x="2595.75" y="1308.8593">«domain»</text><text fill="#000000" font-family="sans-serif" font-size="20" lengthAdjust="spacing" textLength="52" x="2614.25" y="1336.0993">Exam</text><rect fill="#E2E2F0" height="68.4799" rx="2.5" ry="2.5" style="stroke:#181818;stroke-width:0.5;" width="116" x="2701.75" y="36"/><text fill="#000000" font-family="sans-serif" font-size="20" font-style="italic" lengthAdjust="spacing" textLength="89" x="2715.25" y="64.38">«domain»</text><text fill="#000000" font-family="sans-serif" font-size="20" lengthAdjust="spacing" textLength="102" x="2708.75" y="91.62">Enrolment</text><rect fill="#E2E2F0" height="68.4799" rx="2.5" ry="2.5" style="stroke:#181818;stroke-width:0.5;" width="116" x="2701.75" y="1280.4793"/><text fill="#000000" font-family="sans-serif" font-size="20" font-style="italic" lengthAdjust="spacing" textLength="89" x="2715.25" y="1308.8593">«domain»</text><text fill="#000000" font-family="sans-serif" font-size="20" lengthAdjust="spacing" textLength="102" x="2708.75" y="1336.0993">Enrolment</text><rect fill="#E2E2F0" height="68.4799" rx="2.5" ry="2.5" style="stroke:#181818;stroke-width:0.5;" width="103" x="2827.75" y="36"/><text fill="#000000" font-family="sans-serif" font-size="20" font-style="italic" lengthAdjust="spacing" textLength="89" x="2834.75" y="64.38">«domain»</text><text fill="#000000" font-family="sans-serif" font-size="20" lengthAdjust="spacing" textLength="67" x="2845.75" y="91.62">Course</text><rect fill="#E2E2F0" height="68.4799" rx="2.5" ry="2.5" style="stroke:#181818;stroke-width:0.5;" width="103" x="2827.75" y="1280.4793"/><text fill="#000000" font-family="sans-serif" font-size="20" font-style="italic" lengthAdjust="spacing" textLength="89" x="2834.75" y="1308.8593">«domain»</text><text fill="#000000" font-family="sans-serif" font-size="20" lengthAdjust="spacing" textLength="67" x="2845.75" y="1336.0993">Course</text><rect fill="#E2E2F0" height="68.4799" rx="2.5" ry="2.5" style="stroke:#181818;stroke-width:0.5;" width="123" x="2940.75" y="36"/><text fill="#000000" font-family="sans-serif" font-size="20" font-style="italic" lengthAdjust="spacing" textLength="50" x="2977.25" y="64.38">«dto»</text><text fill="#000000" font-family="sans-serif" font-size="20" lengthAdjust="spacing" textLength="109" x="2947.75" y="91.62">CourseDTO</text><rect fill="#E2E2F0" height="68.4799" rx="2.5" ry="2.5" style="stroke:#181818;stroke-width:0.5;" width="123" x="2940.75" y="1280.4793"/><text fill="#000000" font-family="sans-serif" font-size="20" font-style="italic" lengthAdjust="spacing" textLength="50" x="2977.25" y="1308.8593">«dto»</text><text fill="#000000" font-family="sans-serif" font-size="20" lengthAdjust="spacing" textLength="109" x="2947.75" y="1336.0993">CourseDTO</text><rect fill="#E2E2F0" height="68.4799" rx="2.5" ry="2.5" style="stroke:#181818;stroke-width:0.5;" width="108" x="3073.75" y="36"/><text fill="#000000" font-family="sans-serif" font-size="20" font-style="italic" lengthAdjust="spacing" textLength="50" x="3102.75" y="64.38">«dto»</text><text fill="#000000" font-family="sans-serif" font-size="20" lengthAdjust="spacing" textLength="94" x="3080.75" y="91.62">ExamDTO</text><rect fill="#E2E2F0" height="68.4799" rx="2.5" ry="2.5" style="stroke:#181818;stroke-width:0.5;" width="108" x="3073.75" y="1280.4793"/><text fill="#000000" font-family="sans-serif" font-size="20" font-style="italic" lengthAdjust="spacing" textLength="50" x="3102.75" y="1308.8593">«dto»</text><text fill="#000000" font-family="sans-serif" font-size="20" lengthAdjust="spacing" textLength="94" x="3080.75" y="1336.0993">ExamDTO</text><text fill="#000000" font-family="sans-serif" font-size="20" font-style="italic" lengthAdjust="spacing" textLength="110" x="3221.75" y="72.38">«repository»</text><text fill="#000000" font-family="sans-serif" font-size="20" lengthAdjust="spacing" textLength="170" x="3191.75" y="99.62">CourseRepository</text><path d="M3261.75,15 C3261.75,5 3279.75,5 3279.75,5 C3279.75,5 3297.75,5 3297.75,15 L3297.75,41 C3297.75,51 3279.75,51 3279.75,51 C3279.75,51 3261.75,51 3261.75,41 L3261.75,15 " fill="#E2E2F0" style="stroke:#181818;stroke-width:1.5;"/><path d="M3261.75,15 C3261.75,25 3279.75,25 3279.75,25 C3279.75,25 3297.75,25 3297.75,15 " fill="none" style="stroke:#181818;stroke-width:1.5;"/><text fill="#000000" font-family="sans-serif" font-size="20" font-style="italic" lengthAdjust="spacing" textLength="110" x="3221.75" y="1301.8593">«repository»</text><text fill="#000000" font-family="sans-serif" font-size="20" lengthAdjust="spacing" textLength="170" x="3191.75" y="1329.0993">CourseRepository</text><path d="M3261.75,1344.9593 C3261.75,1334.9593 3279.75,1334.9593 3279.75,1334.9593 C3279.75,1334.9593 3297.75,1334.9593 3297.75,1344.9593 L3297.75,1370.9593 C3297.75,1380.9593 3279.75,1380.9593 3279.75,1380.9593 C3279.75,1380.9593 3261.75,1380.9593 3261.75,1370.9593 L3261.75,1344.9593 " fill="#E2E2F0" style="stroke:#181818;stroke-width:1.5;"/><path d="M3261.75,1344.9593 C3261.75,1354.9593 3279.75,1354.9593 3279.75,1354.9593 C3279.75,1354.9593 3297.75,1354.9593 3297.75,1344.9593 " fill="none" style="stroke:#181818;stroke-width:1.5;"/><text fill="#000000" font-family="sans-serif" font-size="20" font-style="italic" lengthAdjust="spacing" textLength="110" x="3412.75" y="72.38">«repository»</text><text fill="#000000" font-family="sans-serif" font-size="20" lengthAdjust="spacing" textLength="180" x="3377.75" y="99.62">StudentRepository</text><path d="M3452.75,15 C3452.75,5 3470.75,5 3470.75,5 C3470.75,5 3488.75,5 3488.75,15 L3488.75,41 C3488.75,51 3470.75,51 3470.75,51 C3470.75,51 3452.75,51 3452.75,41 L3452.75,15 " fill="#E2E2F0" style="stroke:#181818;stroke-width:1.5;"/><path d="M3452.75,15 C3452.75,25 3470.75,25 3470.75,25 C3470.75,25 3488.75,25 3488.75,15 " fill="none" style="stroke:#181818;stroke-width:1.5;"/><text fill="#000000" font-family="sans-serif" font-size="20" font-style="italic" lengthAdjust="spacing" textLength="110" x="3412.75" y="1301.8593">«repository»</text><text fill="#000000" font-family="sans-serif" font-size="20" lengthAdjust="spacing" textLength="180" x="3377.75" y="1329.0993">StudentRepository</text><path d="M3452.75,1344.9593 C3452.75,1334.9593 3470.75,1334.9593 3470.75,1334.9593 C3470.75,1334.9593 3488.75,1334.9593 3488.75,1344.9593 L3488.75,1370.9593 C3488.75,1380.9593 3470.75,1380.9593 3470.75,1380.9593 C3470.75,1380.9593 3452.75,1380.9593 3452.75,1370.9593 L3452.75,1344.9593 " fill="#E2E2F0" style="stroke:#181818;stroke-width:1.5;"/><path d="M3452.75,1344.9593 C3452.75,1354.9593 3470.75,1354.9593 3470.75,1354.9593 C3470.75,1354.9593 3488.75,1354.9593 3488.75,1344.9593 " fill="none" style="stroke:#181818;stroke-width:1.5;"/><text fill="#000000" font-family="sans-serif" font-size="20" font-style="italic" lengthAdjust="spacing" textLength="110" x="3603.75" y="72.38">«repository»</text><text fill="#000000" font-family="sans-serif" font-size="20" lengthAdjust="spacing" textLength="170" x="3573.75" y="99.62">CourseRepository</text><path d="M3643.75,15 C3643.75,5 3661.75,5 3661.75,5 C3661.75,5 3679.75,5 3679.75,15 L3679.75,41 C3679.75,51 3661.75,51 3661.75,51 C3661.75,51 3643.75,51 3643.75,41 L3643.75,15 " fill="#E2E2F0" style="stroke:#181818;stroke-width:1.5;"/><path d="M3643.75,15 C3643.75,25 3661.75,25 3661.75,25 C3661.75,25 3679.75,25 3679.75,15 " fill="none" style="stroke:#181818;stroke-width:1.5;"/><text fill="#000000" font-family="sans-serif" font-size="20" font-style="italic" lengthAdjust="spacing" textLength="110" x="3603.75" y="1301.8593">«repository»</text><text fill="#000000" font-family="sans-serif" font-size="20" lengthAdjust="spacing" textLength="170" x="3573.75" y="1329.0993">CourseRepository</text><path d="M3643.75,1344.9593 C3643.75,1334.9593 3661.75,1334.9593 3661.75,1334.9593 C3661.75,1334.9593 3679.75,1334.9593 3679.75,1344.9593 L3679.75,1370.9593 C3679.75,1380.9593 3661.75,1380.9593 3661.75,1380.9593 C3661.75,1380.9593 3643.75,1380.9593 3643.75,1370.9593 L3643.75,1344.9593 " fill="#E2E2F0" style="stroke:#181818;stroke-width:1.5;"/><path d="M3643.75,1344.9593 C3643.75,1354.9593 3661.75,1354.9593 3661.75,1354.9593 C3661.75,1354.9593 3679.75,1354.9593 3679.75,1344.9593 " fill="none" style="stroke:#181818;stroke-width:1.5;"/><text fill="#000000" font-family="sans-serif" font-size="20" font-style="italic" lengthAdjust="spacing" textLength="110" x="3782.25" y="72.38">«repository»</text><text fill="#000000" font-family="sans-serif" font-size="20" lengthAdjust="spacing" textLength="155" x="3759.75" y="99.62">ExamRepository</text><path d="M3822.25,15 C3822.25,5 3840.25,5 3840.25,5 C3840.25,5 3858.25,5 3858.25,15 L3858.25,41 C3858.25,51 3840.25,51 3840.25,51 C3840.25,51 3822.25,51 3822.25,41 L3822.25,15 " fill="#E2E2F0" style="stroke:#181818;stroke-width:1.5;"/><path d="M3822.25,15 C3822.25,25 3840.25,25 3840.25,25 C3840.25,25 3858.25,25 3858.25,15 " fill="none" style="stroke:#181818;stroke-width:1.5;"/><text fill="#000000" font-family="sans-serif" font-size="20" font-style="italic" lengthAdjust="spacing" textLength="110" x="3782.25" y="1301.8593">«repository»</text><text fill="#000000" font-family="sans-serif" font-size="20" lengthAdjust="spacing" textLength="155" x="3759.75" y="1329.0993">ExamRepository</text><path d="M3822.25,1344.9593 C3822.25,1334.9593 3840.25,1334.9593 3840.25,1334.9593 C3840.25,1334.9593 3858.25,1334.9593 3858.25,1344.9593 L3858.25,1370.9593 C3858.25,1380.9593 3840.25,1380.9593 3840.25,1380.9593 C3840.25,1380.9593 3822.25,1380.9593 3822.25,1370.9593 L3822.25,1344.9593 " fill="#E2E2F0" style="stroke:#181818;stroke-width:1.5;"/><path d="M3822.25,1344.9593 C3822.25,1354.9593 3840.25,1354.9593 3840.25,1354.9593 C3840.25,1354.9593 3858.25,1354.9593 3858.25,1344.9593 " fill="none" style="stroke:#181818;stroke-width:1.5;"/><text fill="#000000" font-family="sans-serif" font-size="20" font-style="italic" lengthAdjust="spacing" textLength="110" x="3978.25" y="72.38">«repository»</text><text fill="#000000" font-family="sans-serif" font-size="20" lengthAdjust="spacing" textLength="205" x="3930.75" y="99.62">EnrolmentRepository</text><path d="M4018.25,15 C4018.25,5 4036.25,5 4036.25,5 C4036.25,5 4054.25,5 4054.25,15 L4054.25,41 C4054.25,51 4036.25,51 4036.25,51 C4036.25,51 4018.25,51 4018.25,41 L4018.25,15 " fill="#E2E2F0" style="stroke:#181818;stroke-width:1.5;"/><path d="M4018.25,15 C4018.25,25 4036.25,25 4036.25,25 C4036.25,25 4054.25,25 4054.25,15 " fill="none" style="stroke:#181818;stroke-width:1.5;"/><text fill="#000000" font-family="sans-serif" font-size="20" font-style="italic" lengthAdjust="spacing" textLength="110" x="3978.25" y="1301.8593">«repository»</text><text fill="#000000" font-family="sans-serif" font-size="20" lengthAdjust="spacing" textLength="205" x="3930.75" y="1329.0993">EnrolmentRepository</text><path d="M4018.25,1344.9593 C4018.25,1334.9593 4036.25,1334.9593 4036.25,1334.9593 C4036.25,1334.9593 4054.25,1334.9593 4054.25,1344.9593 L4054.25,1370.9593 C4054.25,1380.9593 4036.25,1380.9593 4036.25,1380.9593 C4036.25,1380.9593 4018.25,1380.9593 4018.25,1370.9593 L4018.25,1344.9593 " fill="#E2E2F0" style="stroke:#181818;stroke-width:1.5;"/><path d="M4018.25,1344.9593 C4018.25,1354.9593 4036.25,1354.9593 4036.25,1354.9593 C4036.25,1354.9593 4054.25,1354.9593 4054.25,1344.9593 " fill="none" style="stroke:#181818;stroke-width:1.5;"/><rect fill="#E2E2F0" height="41.24" rx="2.5" ry="2.5" style="stroke:#181818;stroke-width:0.5;" width="70" x="4151.75" y="63.24"/><text fill="#000000" font-family="sans-serif" font-size="20" lengthAdjust="spacing" textLength="56" x="4158.75" y="91.62">C_SRV</text><rect fill="#E2E2F0" height="41.24" rx="2.5" ry="2.5" style="stroke:#181818;stroke-width:0.5;" width="70" x="4151.75" y="1280.4793"/><text fill="#000000" font-family="sans-serif" font-size="20" lengthAdjust="spacing" textLength="56" x="4158.75" y="1308.8593">C_SRV</text><rect fill="#FFFFFF" height="686.3596" style="stroke:#181818;stroke-width:1.0;" width="10" x="586.75" y="148.7199"/><rect fill="#FFFFFF" height="396.1598" style="stroke:#181818;stroke-width:1.0;" width="10" x="586.75" y="876.3195"/><rect fill="#FFFFFF" height="30" style="stroke:#181818;stroke-width:1.0;" width="10" x="1419.375" y="189.9599"/><rect fill="#FFFFFF" height="540.6397" style="stroke:#181818;stroke-width:1.0;" width="10" x="1419.375" y="261.1999"/><rect fill="#FFFFFF" height="28" style="stroke:#181818;stroke-width:1.0;" width="10" x="1424.375" y="744.8396"/><rect fill="#FFFFFF" height="258.4398" style="stroke:#181818;stroke-width:1.0;" width="10" x="1419.375" y="971.7995"/><rect fill="#FFFFFF" height="30" style="stroke:#181818;stroke-width:1.0;" width="10" x="1973" y="302.4398"/><rect fill="#FFFFFF" height="71.24" style="stroke:#181818;stroke-width:1.0;" width="10" x="2250" y="444.9198"/><rect fill="#FFFFFF" height="217.1999" style="stroke:#181818;stroke-width:1.0;" width="10" x="2453" y="1013.0395"/><rect fill="#FFFFFF" height="41.24" style="stroke:#181818;stroke-width:1.0;" width="10" x="2635.25" y="1173.9994"/><rect fill="#FFFFFF" height="41.24" style="stroke:#181818;stroke-width:1.0;" width="10" x="2874.25" y="654.3596"/><rect fill="#FFFFFF" height="30" style="stroke:#181818;stroke-width:1.0;" width="10" x="3465.75" y="373.6798"/><rect fill="#FFFFFF" height="30" style="stroke:#181818;stroke-width:1.0;" width="10" x="3835.25" y="1054.2794"/><rect fill="#FFFFFF" height="30" style="stroke:#181818;stroke-width:1.0;" width="10" x="4031.25" y="486.1598"/><polygon fill="#181818" points="574.75,144.7199,584.75,148.7199,574.75,152.7199,578.75,148.7199" style="stroke:#181818;stroke-width:1.0;"/><line style="stroke:#181818;stroke-width:1.0;" x1="46.5" x2="580.75" y1="148.7199" y2="148.7199"/><text fill="#000000" font-family="sans-serif" font-size="20" font-weight="bold" lengthAdjust="spacing" textLength="11.625" x="53.5" y="140.8599">1</text><text fill="#000000" font-family="sans-serif" font-size="20" lengthAdjust="spacing" textLength="438" x="69.125" y="140.8599">requests to view the future exams in a course</text><polygon fill="#181818" points="1407.375,185.9599,1417.375,189.9599,1407.375,193.9599,1411.375,189.9599" style="stroke:#181818;stroke-width:1.0;"/><line style="stroke:#181818;stroke-width:1.0;" x1="596.75" x2="1413.375" y1="189.9599" y2="189.9599"/><text fill="#000000" font-family="sans-serif" font-size="20" font-weight="bold" lengthAdjust="spacing" textLength="11.625" x="603.75" y="182.0999">2</text><text fill="#000000" font-family="sans-serif" font-size="20" lengthAdjust="spacing" textLength="788" x="619.375" y="182.0999">new(examRepository, enrolmentRepository, studentRepository, courseRepository)</text><polygon fill="#181818" points="1407.375,257.1999,1417.375,261.1999,1407.375,265.1999,1411.375,261.1999" style="stroke:#181818;stroke-width:1.0;"/><line style="stroke:#181818;stroke-width:1.0;" x1="596.75" x2="1413.375" y1="261.1999" y2="261.1999"/><text fill="#000000" font-family="sans-serif" font-size="20" font-weight="bold" lengthAdjust="spacing" textLength="11.625" x="603.75" y="253.3399">3</text><text fill="#000000" font-family="sans-serif" font-size="20" lengthAdjust="spacing" textLength="291" x="619.375" y="253.3399">courses = listStudentCourses()</text><polygon fill="#181818" points="1961,298.4398,1971,302.4398,1961,306.4398,1965,302.4398" style="stroke:#181818;stroke-width:1.0;"/><line style="stroke:#181818;stroke-width:1.0;" x1="1429.375" x2="1967" y1="302.4398" y2="302.4398"/><text fill="#000000" font-family="sans-serif" font-size="20" font-weight="bold" lengthAdjust="spacing" textLength="11.625" x="1436.375" y="294.5799">4</text><text fill="#000000" font-family="sans-serif" font-size="20" lengthAdjust="spacing" textLength="509" x="1452" y="294.5799">authenticatedUser = loggedinUserWithPermissions()</text><polygon fill="#181818" points="3453.75,369.6798,3463.75,373.6798,3453.75,377.6798,3457.75,373.6798" style="stroke:#181818;stroke-width:1.0;"/><line style="stroke:#181818;stroke-width:1.0;" x1="1429.375" x2="3459.75" y1="373.6798" y2="373.6798"/><text fill="#000000" font-family="sans-serif" font-size="20" font-weight="bold" lengthAdjust="spacing" textLength="11.625" x="1436.375" y="365.8198">5</text><text fill="#000000" font-family="sans-serif" font-size="20" lengthAdjust="spacing" textLength="565" x="1452" y="365.8198">student = findByUsername(authenticatedUser.username())</text><polygon fill="#181818" points="2238,440.9198,2248,444.9198,2238,448.9198,2242,444.9198" style="stroke:#181818;stroke-width:1.0;"/><line style="stroke:#181818;stroke-width:1.0;" x1="1429.375" x2="2244" y1="444.9198" y2="444.9198"/><text fill="#000000" font-family="sans-serif" font-size="20" font-weight="bold" lengthAdjust="spacing" textLength="11.625" x="1436.375" y="437.0598">6</text><text fill="#000000" font-family="sans-serif" font-size="20" lengthAdjust="spacing" textLength="786" x="1452" y="437.0598">enrolments = findByStudentMecanographicNumber(authenticatedUser.identity())</text><polygon fill="#181818" points="4019.25,482.1598,4029.25,486.1598,4019.25,490.1598,4023.25,486.1598" style="stroke:#181818;stroke-width:1.0;"/><line style="stroke:#181818;stroke-width:1.0;" x1="2260" x2="4025.25" y1="486.1598" y2="486.1598"/><text fill="#000000" font-family="sans-serif" font-size="20" font-weight="bold" lengthAdjust="spacing" textLength="11.625" x="2267" y="478.2998">7</text><text fill="#000000" font-family="sans-serif" font-size="20" lengthAdjust="spacing" textLength="402" x="2282.625" y="478.2998">findByStudentMecanographicNumber(ID)</text><path d="M1267.375,531.1598 L1357.875,531.1598 L1357.875,550.3997 L1347.875,560.3997 L1267.375,560.3997 L1267.375,531.1598 " fill="#EEEEEE" style="stroke:#000000;stroke-width:1.5;"/><rect fill="none" height="263.6798" style="stroke:#000000;stroke-width:1.5;" width="1816.375" x="1267.375" y="531.1598"/><text fill="#000000" font-family="sans-serif" font-size="20" font-weight="bold" lengthAdjust="spacing" textLength="45.5" x="1282.375" y="553.5398">loop</text><text fill="#000000" font-family="sans-serif" font-size="20" font-weight="bold" lengthAdjust="spacing" textLength="209.25" x="1372.875" y="554.5398">[for each enrolment]</text><path d="M1277.375,579.6397 L1349.25,579.6397 L1349.25,598.8797 L1339.25,608.8797 L1277.375,608.8797 L1277.375,579.6397 " fill="#EEEEEE" style="stroke:#000000;stroke-width:1.5;"/><rect fill="none" height="208.1999" style="stroke:#000000;stroke-width:1.5;" width="1796.375" x="1277.375" y="579.6397"/><text fill="#000000" font-family="sans-serif" font-size="20" font-weight="bold" lengthAdjust="spacing" textLength="26.875" x="1292.375" y="602.0197">alt</text><text fill="#000000" font-family="sans-serif" font-size="20" font-weight="bold" lengthAdjust="spacing" textLength="270.25" x="1364.25" y="603.0197">[if enrolment.isAccepted()]</text><polygon fill="#181818" points="2862.25,650.3596,2872.25,654.3596,2862.25,658.3596,2866.25,654.3596" style="stroke:#181818;stroke-width:1.0;"/><line style="stroke:#181818;stroke-width:1.0;" x1="1429.375" x2="2868.25" y1="654.3596" y2="654.3596"/><text fill="#000000" font-family="sans-serif" font-size="20" font-weight="bold" lengthAdjust="spacing" textLength="11.625" x="1436.375" y="646.4997">8</text><text fill="#000000" font-family="sans-serif" font-size="20" lengthAdjust="spacing" textLength="384" x="1452" y="646.4997">courseDTO = toDTO(enrolment.course())</text><polygon fill="#181818" points="2990.25,691.5996,3000.25,695.5996,2990.25,699.5996,2994.25,695.5996" style="stroke:#181818;stroke-width:1.0;"/><line style="stroke:#181818;stroke-width:1.0;" x1="2879.25" x2="2996.25" y1="695.5996" y2="695.5996"/><text fill="#000000" font-family="sans-serif" font-size="20" font-weight="bold" lengthAdjust="spacing" textLength="11.625" x="2886.25" y="687.7396">9</text><text fill="#000000" font-family="sans-serif" font-size="20" lengthAdjust="spacing" textLength="40" x="2901.875" y="687.7396">new</text><line style="stroke:#181818;stroke-width:1.0;" x1="1434.375" x2="1476.375" y1="736.8396" y2="736.8396"/><line style="stroke:#181818;stroke-width:1.0;" x1="1476.375" x2="1476.375" y1="736.8396" y2="749.8396"/><line style="stroke:#181818;stroke-width:1.0;" x1="1435.375" x2="1476.375" y1="749.8396" y2="749.8396"/><polygon fill="#181818" points="1445.375,745.8396,1435.375,749.8396,1445.375,753.8396,1441.375,749.8396" style="stroke:#181818;stroke-width:1.0;"/><text fill="#000000" font-family="sans-serif" font-size="20" font-weight="bold" lengthAdjust="spacing" textLength="23.25" x="1441.375" y="728.9796">10</text><text fill="#000000" font-family="sans-serif" font-size="20" lengthAdjust="spacing" textLength="250" x="1468.625" y="728.9796">courses = add(courseDTO)</text><polygon fill="#181818" points="57.5,831.0796,47.5,835.0796,57.5,839.0796,53.5,835.0796" style="stroke:#181818;stroke-width:1.0;"/><line style="stroke:#181818;stroke-width:1.0;stroke-dasharray:2.0,2.0;" x1="51.5" x2="590.75" y1="835.0796" y2="835.0796"/><text fill="#000000" font-family="sans-serif" font-size="20" font-weight="bold" lengthAdjust="spacing" textLength="23.25" x="63.5" y="827.2196">11</text><text fill="#000000" font-family="sans-serif" font-size="20" lengthAdjust="spacing" textLength="489" x="90.75" y="827.2196">lists all the available courses and asks to select one</text><polygon fill="#181818" points="574.75,872.3195,584.75,876.3195,574.75,880.3195,578.75,876.3195" style="stroke:#181818;stroke-width:1.0;"/><line style="stroke:#181818;stroke-width:1.0;" x1="46.5" x2="580.75" y1="876.3195" y2="876.3195"/><text fill="#000000" font-family="sans-serif" font-size="20" font-weight="bold" lengthAdjust="spacing" textLength="23.25" x="53.5" y="868.4596">12</text><text fill="#000000" font-family="sans-serif" font-size="20" lengthAdjust="spacing" textLength="249" x="80.75" y="868.4596">selects the desired course</text><line style="stroke:#181818;stroke-width:1.0;" x1="596.75" x2="638.75" y1="917.5595" y2="917.5595"/><line style="stroke:#181818;stroke-width:1.0;" x1="638.75" x2="638.75" y1="917.5595" y2="930.5595"/><line style="stroke:#181818;stroke-width:1.0;" x1="597.75" x2="638.75" y1="930.5595" y2="930.5595"/><polygon fill="#181818" points="607.75,926.5595,597.75,930.5595,607.75,934.5595,603.75,930.5595" style="stroke:#181818;stroke-width:1.0;"/><text fill="#000000" font-family="sans-serif" font-size="20" font-weight="bold" lengthAdjust="spacing" textLength="23.25" x="603.75" y="909.6995">13</text><text fill="#000000" font-family="sans-serif" font-size="20" lengthAdjust="spacing" textLength="290" x="631" y="909.6995">course = select(courses, index)</text><polygon fill="#181818" points="1407.375,967.7995,1417.375,971.7995,1407.375,975.7995,1411.375,971.7995" style="stroke:#181818;stroke-width:1.0;"/><line style="stroke:#181818;stroke-width:1.0;" x1="596.75" x2="1413.375" y1="971.7995" y2="971.7995"/><text fill="#000000" font-family="sans-serif" font-size="20" font-weight="bold" lengthAdjust="spacing" textLength="23.25" x="603.75" y="963.9395">14</text><text fill="#000000" font-family="sans-serif" font-size="20" lengthAdjust="spacing" textLength="283" x="631" y="963.9395">exams = futureExams(course)</text><polygon fill="#181818" points="2441,1009.0395,2451,1013.0395,2441,1017.0395,2445,1013.0395" style="stroke:#181818;stroke-width:1.0;"/><line style="stroke:#181818;stroke-width:1.0;" x1="1429.375" x2="2447" y1="1013.0395" y2="1013.0395"/><text fill="#000000" font-family="sans-serif" font-size="20" font-weight="bold" lengthAdjust="spacing" textLength="23.25" x="1436.375" y="1005.1795">15</text><text fill="#000000" font-family="sans-serif" font-size="20" lengthAdjust="spacing" textLength="325" x="1463.625" y="1005.1795">listAllFutureCourseExams(course)</text><polygon fill="#181818" points="3823.25,1050.2794,3833.25,1054.2794,3823.25,1058.2794,3827.25,1054.2794" style="stroke:#181818;stroke-width:1.0;"/><line style="stroke:#181818;stroke-width:1.0;" x1="2463" x2="3829.25" y1="1054.2794" y2="1054.2794"/><text fill="#000000" font-family="sans-serif" font-size="20" font-weight="bold" lengthAdjust="spacing" textLength="23.25" x="2470" y="1046.4195">16</text><text fill="#000000" font-family="sans-serif" font-size="20" lengthAdjust="spacing" textLength="335" x="2497.25" y="1046.4195">findAllFutureCourseExams(course)</text><path d="M2364,1099.2794 L2454.5,1099.2794 L2454.5,1118.5194 L2444.5,1128.5194 L2364,1128.5194 L2364,1099.2794 " fill="#EEEEEE" style="stroke:#000000;stroke-width:1.5;"/><rect fill="none" height="123.9599" style="stroke:#000000;stroke-width:1.5;" width="827.75" x="2364" y="1099.2794"/><text fill="#000000" font-family="sans-serif" font-size="20" font-weight="bold" lengthAdjust="spacing" textLength="45.5" x="2379" y="1121.6594">loop</text><text fill="#000000" font-family="sans-serif" font-size="20" font-weight="bold" lengthAdjust="spacing" textLength="156.125" x="2469.5" y="1122.6594">[for each exam]</text><polygon fill="#181818" points="2623.25,1169.9994,2633.25,1173.9994,2623.25,1177.9994,2627.25,1173.9994" style="stroke:#181818;stroke-width:1.0;"/><line style="stroke:#181818;stroke-width:1.0;" x1="2463" x2="2629.25" y1="1173.9994" y2="1173.9994"/><text fill="#000000" font-family="sans-serif" font-size="20" font-weight="bold" lengthAdjust="spacing" textLength="23.25" x="2470" y="1166.1394">17</text><text fill="#000000" font-family="sans-serif" font-size="20" lengthAdjust="spacing" textLength="126" x="2497.25" y="1166.1394">toDTO(exam)</text><polygon fill="#181818" points="3115.75,1211.2393,3125.75,1215.2393,3115.75,1219.2393,3119.75,1215.2393" style="stroke:#181818;stroke-width:1.0;"/><line style="stroke:#181818;stroke-width:1.0;" x1="2640.25" x2="3121.75" y1="1215.2393" y2="1215.2393"/><text fill="#000000" font-family="sans-serif" font-size="20" font-weight="bold" lengthAdjust="spacing" textLength="23.25" x="2647.25" y="1207.3794">18</text><text fill="#000000" font-family="sans-serif" font-size="20" lengthAdjust="spacing" textLength="40" x="2674.5" y="1207.3794">new</text><polygon fill="#181818" points="57.5,1259.4793,47.5,1263.4793,57.5,1267.4793,53.5,1263.4793" style="stroke:#181818;stroke-width:1.0;"/><line style="stroke:#181818;stroke-width:1.0;stroke-dasharray:2.0,2.0;" x1="51.5" x2="585.75" y1="1263.4793" y2="1263.4793"/><text fill="#000000" font-family="sans-serif" font-size="20" font-weight="bold" lengthAdjust="spacing" textLength="23.25" x="63.5" y="1255.6193">19</text><text fill="#000000" font-family="sans-serif" font-size="20" lengthAdjust="spacing" textLength="445" x="90.75" y="1255.6193">displays all future exams of the chosen course</text><!--SRC=[ZLRRJjmm47tFLunuMgGjgleO0T9s2IeIBMWlxICoyInhuRNJs5cw_VgEBxbjzb8aH6oVSsR6EJF1l0jLi99jfCxVaGF75QkalTVApiLVX2-V4rPPhQhDAvP9mdAhIxYOsugZiXV032oIX0Iio4N1b8MBHs7iVMMh4hC_R6EM3nwrV83hww94GpHcXLQtjoTfKqgWr59YwUdJnUoH15XHI94Vv4ygkoRjU3h7SYjozDp9Sl6Dk2PixVCoHM4sn7G9T6cPUfdFVfuWKfe3pdbAmD43mRZUCA6EPXJJYAkZ-AckIXFYXySpoBl5Km2_q9F3MdqeqHgMzM09PvQzCWeIn6POQ2F853k7dMNFX2oRFI8q-EYPFc5-Yd4emfG8JqSPBky-FZkDhoztKCQ0aopWqotPE8KIVrTeh06hOIlm0yXuiFBM1NJU1Q60GUwpTnqZjimYKHDg0j9mNav1uSS8U-cE0OVfZC7itziuIhSxbsqK9vvmxAzxWGFPm0r8vzwW7gxQZFQL4jzunFLDb09hkmpvacpkPFJR6tAXtFANiEjdB3V26Eh2dfvJw6RcrxMyzq5QrqgYAw7urvsJL6o3eq7Sgwe-kkp4S3BT67xT10aTdRRNR9f0yHg-OywKVYjPiHRv3p_p3eGM3YhihXSwY2TnQb0qPwBqlFp3NKV4SRhvxwzZa4HgNS2A9Z4ThTjw4W0cBOXLktKbp2JFiQ3SwMM0_wdl8qwBsXAkpM_8rFHtrFB3cIira5j_17z7oI3bHFsuyFwEPrqtrfpkNYYfIMhFf8ppKPFVEQC35SuJ-WLtGydWtFK1nLYatlk6RalwxcLR9YHxbTW4PgJ1pBjlSeCISmjQOLUG-hcT2G5Yl1X78qhwb1uO0B4H7IESKe616ciqOneU7FzSzdisZ9MRE6Ny1p8IZZPi5hpkwfn86RwiuVgFqBFWtzg-MUlV_-GFpEetzgnAN6-BDexx5AQrxMWHZDQgD0m7z8Nr3JQmqjvc56XCqJto-8FJChY42rD8jWj6wOrulVBlEbzh-e-cVjN_0000]--></g></svg>