<?xml version="1.0" encoding="UTF-8" standalone="no"?><svg xmlns="http://www.w3.org/2000/svg" xmlns:xlink="http://www.w3.org/1999/xlink" contentStyleType="text/css" height="819px" preserveAspectRatio="none" style="width:1895px;height:819px;background:#FFFFFF;" version="1.1" viewBox="0 0 1895 819" width="1895px" zoomAndPan="magnify"><defs/><g><!--cluster <<aggregate>> Exam--><g id="cluster_&lt;&lt;aggregate&gt;&gt; Exam"><path d="M8.5,8.36 L190.875,8.36 A3.75,3.75 0 0 1 193.375,10.86 L200.375,41.6 L832.5,41.6 A2.5,2.5 0 0 1 835,44.1 L835,580.86 A2.5,2.5 0 0 1 832.5,583.36 L8.5,583.36 A2.5,2.5 0 0 1 6,580.86 L6,10.86 A2.5,2.5 0 0 1 8.5,8.36 " fill="none" style="stroke:#000000;stroke-width:1.5;"/><line style="stroke:#000000;stroke-width:1.5;" x1="6" x2="200.375" y1="41.6" y2="41.6"/><text fill="#000000" font-family="sans-serif" font-size="20" font-weight="bold" lengthAdjust="spacing" textLength="181.375" x="10" y="31.74">«aggregate» Exam</text></g><!--cluster <<aggregate>> FormativeExam--><g id="cluster_&lt;&lt;aggregate&gt;&gt; FormativeExam"><path d="M861.5,256.36 L1142.5,256.36 A3.75,3.75 0 0 1 1145,258.86 L1152,289.6 L1152.5,289.6 A2.5,2.5 0 0 1 1155,292.1 L1155,407.86 A2.5,2.5 0 0 1 1152.5,410.36 L861.5,410.36 A2.5,2.5 0 0 1 859,407.86 L859,258.86 A2.5,2.5 0 0 1 861.5,256.36 " fill="none" style="stroke:#000000;stroke-width:1.5;"/><line style="stroke:#000000;stroke-width:1.5;" x1="859" x2="1152" y1="289.6" y2="289.6"/><text fill="#000000" font-family="sans-serif" font-size="20" font-weight="bold" lengthAdjust="spacing" textLength="280" x="863" y="279.74">«aggregate» FormativeExam</text></g><!--cluster <<aggregate>> EvaluationExam--><g id="cluster_&lt;&lt;aggregate&gt;&gt; EvaluationExam"><path d="M1501.5,25.86 L1786.125,25.86 A3.75,3.75 0 0 1 1788.625,28.36 L1795.625,59.1 L1885.5,59.1 A2.5,2.5 0 0 1 1888,61.6 L1888,580.86 A2.5,2.5 0 0 1 1885.5,583.36 L1501.5,583.36 A2.5,2.5 0 0 1 1499,580.86 L1499,28.36 A2.5,2.5 0 0 1 1501.5,25.86 " fill="none" style="stroke:#000000;stroke-width:1.5;"/><line style="stroke:#000000;stroke-width:1.5;" x1="1499" x2="1795.625" y1="59.1" y2="59.1"/><text fill="#000000" font-family="sans-serif" font-size="20" font-weight="bold" lengthAdjust="spacing" textLength="283.625" x="1503" y="49.24">«aggregate» EvaluationExam</text></g><!--cluster <<agregate>> Question--><g id="cluster_&lt;&lt;agregate&gt;&gt; Question"><path d="M25.5,658.36 L230.75,658.36 A3.75,3.75 0 0 1 233.25,660.86 L240.25,691.6 L240.5,691.6 A2.5,2.5 0 0 1 243,694.1 L243,809.86 A2.5,2.5 0 0 1 240.5,812.36 L25.5,812.36 A2.5,2.5 0 0 1 23,809.86 L23,660.86 A2.5,2.5 0 0 1 25.5,658.36 " fill="none" style="stroke:#000000;stroke-width:1.5;"/><line style="stroke:#000000;stroke-width:1.5;" x1="23" x2="240.25" y1="691.6" y2="691.6"/><text fill="#000000" font-family="sans-serif" font-size="20" font-weight="bold" lengthAdjust="spacing" textLength="204.25" x="27" y="681.74">«agregate» Question</text></g><!--cluster <<aggregate>> Course--><g id="cluster_&lt;&lt;aggregate&gt;&gt; Course"><path d="M1020.5,443.36 L1218.125,443.36 A3.75,3.75 0 0 1 1220.625,445.86 L1227.625,476.6 L1227.5,476.6 A2.5,2.5 0 0 1 1230,479.1 L1230,594.86 A2.5,2.5 0 0 1 1227.5,597.36 L1020.5,597.36 A2.5,2.5 0 0 1 1018,594.86 L1018,445.86 A2.5,2.5 0 0 1 1020.5,443.36 " fill="none" style="stroke:#000000;stroke-width:1.5;"/><line style="stroke:#000000;stroke-width:1.5;" x1="1018" x2="1227.625" y1="476.6" y2="476.6"/><text fill="#000000" font-family="sans-serif" font-size="20" font-weight="bold" lengthAdjust="spacing" textLength="196.625" x="1022" y="466.74">«aggregate» Course</text></g><!--cluster <<aggregate>> Teacher--><g id="cluster_&lt;&lt;aggregate&gt;&gt; Teacher"><path d="M1256.5,443.36 L1462.75,443.36 A3.75,3.75 0 0 1 1465.25,445.86 L1472.25,476.6 L1472.5,476.6 A2.5,2.5 0 0 1 1475,479.1 L1475,594.86 A2.5,2.5 0 0 1 1472.5,597.36 L1256.5,597.36 A2.5,2.5 0 0 1 1254,594.86 L1254,445.86 A2.5,2.5 0 0 1 1256.5,443.36 " fill="none" style="stroke:#000000;stroke-width:1.5;"/><line style="stroke:#000000;stroke-width:1.5;" x1="1254" x2="1472.25" y1="476.6" y2="476.6"/><text fill="#000000" font-family="sans-serif" font-size="20" font-weight="bold" lengthAdjust="spacing" textLength="205.25" x="1258" y="466.74">«aggregate» Teacher</text></g><!--class Exam--><g id="elem_Exam"><rect codeLine="66" fill="#F5F5DC" height="126.9599" id="Exam" rx="2.5" ry="2.5" style="stroke:#181818;stroke-width:0.5;" width="100" x="719" y="54.36"/><ellipse cx="735" cy="100.22" fill="#ADD1B2" rx="12" ry="12" style="stroke:#181818;stroke-width:1.0;"/><path d="M739.0469,107.72 L730.4375,107.72 L730.4375,92.8137 L739.0469,92.8137 L739.0469,95.0168 L732.8594,95.0168 L732.8594,98.8606 L738.6875,98.8606 L738.6875,101.0325 L732.8594,101.0325 L732.8594,105.5168 L739.0469,105.5168 L739.0469,107.72 Z " fill="#000000"/><text fill="#000000" font-family="sans-serif" font-size="20" font-style="italic" lengthAdjust="spacing" textLength="70" x="748" y="80.74">«entity»</text><text fill="#000000" font-family="sans-serif" font-size="20" font-style="italic" lengthAdjust="spacing" textLength="57" x="754.5" y="107.9799">«root»</text><text fill="#000000" font-family="sans-serif" font-size="20" lengthAdjust="spacing" textLength="52" x="757" y="135.2199">Exam</text><line style="stroke:#181818;stroke-width:0.5;" x1="720" x2="818" y1="146.0799" y2="146.0799"/><text fill="#000000" font-family="sans-serif" font-size="20" lengthAdjust="spacing" textLength="47" x="725" y="171.4599">-date</text></g><!--class Section--><g id="elem_Section"><rect codeLine="70" fill="#F5F5DC" height="64.4799" id="Section" rx="2.5" ry="2.5" style="stroke:#181818;stroke-width:0.5;" width="102" x="412" y="316.36"/><ellipse cx="428" cy="348.6" fill="#ADD1B2" rx="12" ry="12" style="stroke:#181818;stroke-width:1.0;"/><path d="M432.0469,356.1 L423.4375,356.1 L423.4375,341.1937 L432.0469,341.1937 L432.0469,343.3968 L425.8594,343.3968 L425.8594,347.2406 L431.6875,347.2406 L431.6875,349.4125 L425.8594,349.4125 L425.8594,353.8968 L432.0469,353.8968 L432.0469,356.1 Z " fill="#000000"/><text fill="#000000" font-family="sans-serif" font-size="20" font-style="italic" lengthAdjust="spacing" textLength="70" x="442" y="342.74">«entity»</text><text fill="#000000" font-family="sans-serif" font-size="20" lengthAdjust="spacing" textLength="68" x="443" y="369.9799">Section</text></g><!--class Description--><g id="elem_Description"><rect codeLine="77" fill="#F5F5DC" height="64.4799" id="Description" rx="2.5" ry="2.5" style="stroke:#181818;stroke-width:0.5;" width="156" x="549" y="316.36"/><ellipse cx="565" cy="348.6" fill="#FF8B40" rx="12" ry="12" style="stroke:#181818;stroke-width:1.0;"/><path d="M571.25,342.4437 L565.9375,357.35 L563.6875,357.35 L558.375,342.4437 L560.9063,342.4437 L564.2031,351.8031 Q564.4219,352.3968 564.5781,352.9437 Q564.75,353.4906 564.875,353.9906 Q565.0156,354.475 564.8125,354.5218 Q564.5938,354.4906 564.7344,353.975 Q564.875,353.4593 565.0469,352.9281 Q565.2188,352.3812 565.4219,351.7718 L568.6875,342.4437 L571.25,342.4437 Z " fill="#000000"/><text fill="#000000" font-family="sans-serif" font-size="20" font-style="italic" lengthAdjust="spacing" textLength="126" x="578" y="342.74">«value object»</text><text fill="#000000" font-family="sans-serif" font-size="20" lengthAdjust="spacing" textLength="107" x="587.5" y="369.9799">Description</text></g><!--class SectionQuestion--><g id="elem_SectionQuestion"><rect codeLine="47" fill="#F5F5DC" height="64.4799" id="SectionQuestion" rx="2.5" ry="2.5" style="stroke:#181818;stroke-width:0.5;" width="187" x="22.5" y="503.36"/><ellipse cx="38.5" cy="535.6" fill="#ADD1B2" rx="12" ry="12" style="stroke:#181818;stroke-width:1.0;"/><path d="M42.5469,543.1 L33.9375,543.1 L33.9375,528.1937 L42.5469,528.1937 L42.5469,530.3968 L36.3594,530.3968 L36.3594,534.2406 L42.1875,534.2406 L42.1875,536.4125 L36.3594,536.4125 L36.3594,540.8968 L42.5469,540.8968 L42.5469,543.1 Z " fill="#000000"/><text fill="#000000" font-family="sans-serif" font-size="20" font-style="italic" lengthAdjust="spacing" textLength="70" x="95" y="529.74">«entity»</text><text fill="#000000" font-family="sans-serif" font-size="20" lengthAdjust="spacing" textLength="153" x="53.5" y="556.9799">SectionQuestion</text></g><!--class Score--><g id="elem_Score"><rect codeLine="79" fill="#F5F5DC" height="64.4799" id="Score" rx="2.5" ry="2.5" style="stroke:#181818;stroke-width:0.5;" width="156" x="279" y="503.36"/><ellipse cx="295" cy="535.6" fill="#FF8B40" rx="12" ry="12" style="stroke:#181818;stroke-width:1.0;"/><path d="M301.25,529.4437 L295.9375,544.35 L293.6875,544.35 L288.375,529.4437 L290.9063,529.4437 L294.2031,538.8031 Q294.4219,539.3968 294.5781,539.9437 Q294.75,540.4906 294.875,540.9906 Q295.0156,541.475 294.8125,541.5218 Q294.5938,541.4906 294.7344,540.975 Q294.875,540.4593 295.0469,539.9281 Q295.2188,539.3812 295.4219,538.7718 L298.6875,529.4437 L301.25,529.4437 Z " fill="#000000"/><text fill="#000000" font-family="sans-serif" font-size="20" font-style="italic" lengthAdjust="spacing" textLength="126" x="308" y="529.74">«value object»</text><text fill="#000000" font-family="sans-serif" font-size="20" lengthAdjust="spacing" textLength="52" x="345" y="556.9799">Score</text></g><!--class State--><g id="elem_State"><rect codeLine="73" fill="#F5F5DC" height="64.4799" id="State" rx="2.5" ry="2.5" style="stroke:#181818;stroke-width:0.5;" width="156" x="663" y="503.36"/><ellipse cx="679" cy="535.6" fill="#FF8B40" rx="12" ry="12" style="stroke:#181818;stroke-width:1.0;"/><path d="M685.25,529.4437 L679.9375,544.35 L677.6875,544.35 L672.375,529.4437 L674.9063,529.4437 L678.2031,538.8031 Q678.4219,539.3968 678.5781,539.9437 Q678.75,540.4906 678.875,540.9906 Q679.0156,541.475 678.8125,541.5218 Q678.5938,541.4906 678.7344,540.975 Q678.875,540.4593 679.0469,539.9281 Q679.2188,539.3812 679.4219,538.7718 L682.6875,529.4437 L685.25,529.4437 Z " fill="#000000"/><text fill="#000000" font-family="sans-serif" font-size="20" font-style="italic" lengthAdjust="spacing" textLength="126" x="692" y="529.74">«value object»</text><text fill="#000000" font-family="sans-serif" font-size="20" lengthAdjust="spacing" textLength="47" x="731.5" y="556.9799">State</text></g><!--class SectionName--><g id="elem_SectionName"><rect codeLine="72" fill="#F5F5DC" height="64.4799" id="SectionName" rx="2.5" ry="2.5" style="stroke:#181818;stroke-width:0.5;" width="158" x="470" y="503.36"/><ellipse cx="486" cy="535.6" fill="#FF8B40" rx="12" ry="12" style="stroke:#181818;stroke-width:1.0;"/><path d="M492.25,529.4437 L486.9375,544.35 L484.6875,544.35 L479.375,529.4437 L481.9063,529.4437 L485.2031,538.8031 Q485.4219,539.3968 485.5781,539.9437 Q485.75,540.4906 485.875,540.9906 Q486.0156,541.475 485.8125,541.5218 Q485.5938,541.4906 485.7344,540.975 Q485.875,540.4593 486.0469,539.9281 Q486.2188,539.3812 486.4219,538.7718 L489.6875,529.4437 L492.25,529.4437 Z " fill="#000000"/><text fill="#000000" font-family="sans-serif" font-size="20" font-style="italic" lengthAdjust="spacing" textLength="126" x="500" y="529.74">«value object»</text><text fill="#000000" font-family="sans-serif" font-size="20" lengthAdjust="spacing" textLength="124" x="501" y="556.9799">SectionName</text></g><!--class FormativeExam--><g id="elem_FormativeExam"><rect codeLine="28" fill="#F5F5DC" height="91.7199" id="FormativeExam" rx="2.5" ry="2.5" style="stroke:#181818;stroke-width:0.5;" width="179" x="875.5" y="302.36"/><ellipse cx="891.5" cy="348.22" fill="#ADD1B2" rx="12" ry="12" style="stroke:#181818;stroke-width:1.0;"/><path d="M895.5469,355.72 L886.9375,355.72 L886.9375,340.8137 L895.5469,340.8137 L895.5469,343.0168 L889.3594,343.0168 L889.3594,346.8606 L895.1875,346.8606 L895.1875,349.0325 L889.3594,349.0325 L889.3594,353.5168 L895.5469,353.5168 L895.5469,355.72 Z " fill="#000000"/><text fill="#000000" font-family="sans-serif" font-size="20" font-style="italic" lengthAdjust="spacing" textLength="70" x="944" y="328.74">«entity»</text><text fill="#000000" font-family="sans-serif" font-size="20" font-style="italic" lengthAdjust="spacing" textLength="57" x="950.5" y="355.9799">«root»</text><text fill="#000000" font-family="sans-serif" font-size="20" lengthAdjust="spacing" textLength="145" x="906.5" y="383.2199">FormativeExam</text></g><!--class EvaluationExam--><g id="elem_EvaluationExam"><rect codeLine="39" fill="#F5F5DC" height="91.7199" id="EvaluationExam" rx="2.5" ry="2.5" style="stroke:#181818;stroke-width:0.5;" width="182" x="1591" y="71.86"/><ellipse cx="1607" cy="117.72" fill="#ADD1B2" rx="12" ry="12" style="stroke:#181818;stroke-width:1.0;"/><path d="M1611.0469,125.22 L1602.4375,125.22 L1602.4375,110.3137 L1611.0469,110.3137 L1611.0469,112.5168 L1604.8594,112.5168 L1604.8594,116.3606 L1610.6875,116.3606 L1610.6875,118.5325 L1604.8594,118.5325 L1604.8594,123.0168 L1611.0469,123.0168 L1611.0469,125.22 Z " fill="#000000"/><text fill="#000000" font-family="sans-serif" font-size="20" font-style="italic" lengthAdjust="spacing" textLength="70" x="1661" y="98.24">«entity»</text><text fill="#000000" font-family="sans-serif" font-size="20" font-style="italic" lengthAdjust="spacing" textLength="57" x="1667.5" y="125.4799">«root»</text><text fill="#000000" font-family="sans-serif" font-size="20" lengthAdjust="spacing" textLength="148" x="1622" y="152.7199">EvaluationExam</text></g><!--class Time--><g id="elem_Time"><rect codeLine="78" fill="#F5F5DC" height="64.4799" id="Time" rx="2.5" ry="2.5" style="stroke:#181818;stroke-width:0.5;" width="156" x="1548" y="316.36"/><ellipse cx="1564" cy="348.6" fill="#FF8B40" rx="12" ry="12" style="stroke:#181818;stroke-width:1.0;"/><path d="M1570.25,342.4437 L1564.9375,357.35 L1562.6875,357.35 L1557.375,342.4437 L1559.9063,342.4437 L1563.2031,351.8031 Q1563.4219,352.3968 1563.5781,352.9437 Q1563.75,353.4906 1563.875,353.9906 Q1564.0156,354.475 1563.8125,354.5218 Q1563.5938,354.4906 1563.7344,353.975 Q1563.875,353.4593 1564.0469,352.9281 Q1564.2188,352.3812 1564.4219,351.7718 L1567.6875,342.4437 L1570.25,342.4437 Z " fill="#000000"/><text fill="#000000" font-family="sans-serif" font-size="20" font-style="italic" lengthAdjust="spacing" textLength="126" x="1577" y="342.74">«value object»</text><text fill="#000000" font-family="sans-serif" font-size="20" lengthAdjust="spacing" textLength="46" x="1617" y="369.9799">Time</text></g><!--class FeedbackType--><g id="elem_FeedbackType"><rect codeLine="75" fill="#F5F5DC" height="64.4799" id="FeedbackType" rx="2.5" ry="2.5" style="stroke:#181818;stroke-width:0.5;" width="166" x="1515" y="503.36"/><ellipse cx="1531" cy="535.6" fill="#FF8B40" rx="12" ry="12" style="stroke:#181818;stroke-width:1.0;"/><path d="M1537.25,529.4437 L1531.9375,544.35 L1529.6875,544.35 L1524.375,529.4437 L1526.9063,529.4437 L1530.2031,538.8031 Q1530.4219,539.3968 1530.5781,539.9437 Q1530.75,540.4906 1530.875,540.9906 Q1531.0156,541.475 1530.8125,541.5218 Q1530.5938,541.4906 1530.7344,540.975 Q1530.875,540.4593 1531.0469,539.9281 Q1531.2188,539.3812 1531.4219,538.7718 L1534.6875,529.4437 L1537.25,529.4437 Z " fill="#000000"/><text fill="#000000" font-family="sans-serif" font-size="20" font-style="italic" lengthAdjust="spacing" textLength="126" x="1549" y="529.74">«value object»</text><text fill="#000000" font-family="sans-serif" font-size="20" lengthAdjust="spacing" textLength="132" x="1546" y="556.9799">FeedbackType</text></g><!--class GradeType--><g id="elem_GradeType"><rect codeLine="76" fill="#F5F5DC" height="64.4799" id="GradeType" rx="2.5" ry="2.5" style="stroke:#181818;stroke-width:0.5;" width="156" x="1716" y="503.36"/><ellipse cx="1732" cy="535.6" fill="#FF8B40" rx="12" ry="12" style="stroke:#181818;stroke-width:1.0;"/><path d="M1738.25,529.4437 L1732.9375,544.35 L1730.6875,544.35 L1725.375,529.4437 L1727.9063,529.4437 L1731.2031,538.8031 Q1731.4219,539.3968 1731.5781,539.9437 Q1731.75,540.4906 1731.875,540.9906 Q1732.0156,541.475 1731.8125,541.5218 Q1731.5938,541.4906 1731.7344,540.975 Q1731.875,540.4593 1732.0469,539.9281 Q1732.2188,539.3812 1732.4219,538.7718 L1735.6875,529.4437 L1738.25,529.4437 Z " fill="#000000"/><text fill="#000000" font-family="sans-serif" font-size="20" font-style="italic" lengthAdjust="spacing" textLength="126" x="1745" y="529.74">«value object»</text><text fill="#000000" font-family="sans-serif" font-size="20" lengthAdjust="spacing" textLength="101" x="1757.5" y="556.9799">GradeType</text></g><!--class Question--><g id="elem_Question"><rect codeLine="81" fill="#F5F5DC" height="91.7199" id="Question" rx="2.5" ry="2.5" style="stroke:#181818;stroke-width:0.5;" width="119" x="56.5" y="704.36"/><ellipse cx="72.5" cy="750.22" fill="#ADD1B2" rx="12" ry="12" style="stroke:#181818;stroke-width:1.0;"/><path d="M76.5469,757.72 L67.9375,757.72 L67.9375,742.8137 L76.5469,742.8137 L76.5469,745.0168 L70.3594,745.0168 L70.3594,748.8606 L76.1875,748.8606 L76.1875,751.0325 L70.3594,751.0325 L70.3594,755.5168 L76.5469,755.5168 L76.5469,757.72 Z " fill="#000000"/><text fill="#000000" font-family="sans-serif" font-size="20" font-style="italic" lengthAdjust="spacing" textLength="70" x="95" y="730.74">«entity»</text><text fill="#000000" font-family="sans-serif" font-size="20" font-style="italic" lengthAdjust="spacing" textLength="57" x="101.5" y="757.9799">«root»</text><text fill="#000000" font-family="sans-serif" font-size="20" lengthAdjust="spacing" textLength="85" x="87.5" y="785.2199">Question</text></g><!--class Course--><g id="elem_Course"><rect codeLine="55" fill="#F5F5DC" height="91.7199" id="Course" rx="2.5" ry="2.5" style="stroke:#181818;stroke-width:0.5;" width="100" x="1114" y="489.36"/><ellipse cx="1130" cy="535.22" fill="#ADD1B2" rx="12" ry="12" style="stroke:#181818;stroke-width:1.0;"/><path d="M1134.0469,542.72 L1125.4375,542.72 L1125.4375,527.8137 L1134.0469,527.8137 L1134.0469,530.0168 L1127.8594,530.0168 L1127.8594,533.8606 L1133.6875,533.8606 L1133.6875,536.0325 L1127.8594,536.0325 L1127.8594,540.5168 L1134.0469,540.5168 L1134.0469,542.72 Z " fill="#000000"/><text fill="#000000" font-family="sans-serif" font-size="20" font-style="italic" lengthAdjust="spacing" textLength="70" x="1143" y="515.74">«entity»</text><text fill="#000000" font-family="sans-serif" font-size="20" font-style="italic" lengthAdjust="spacing" textLength="57" x="1149.5" y="542.9799">«root»</text><text fill="#000000" font-family="sans-serif" font-size="20" lengthAdjust="spacing" textLength="66" x="1145" y="570.2199">Course</text></g><!--class Teacher--><g id="elem_Teacher"><rect codeLine="63" fill="#F5F5DC" height="91.7199" id="Teacher" rx="2.5" ry="2.5" style="stroke:#181818;stroke-width:0.5;" width="108" x="1290" y="489.36"/><ellipse cx="1306" cy="535.22" fill="#ADD1B2" rx="12" ry="12" style="stroke:#181818;stroke-width:1.0;"/><path d="M1310.0469,542.72 L1301.4375,542.72 L1301.4375,527.8137 L1310.0469,527.8137 L1310.0469,530.0168 L1303.8594,530.0168 L1303.8594,533.8606 L1309.6875,533.8606 L1309.6875,536.0325 L1303.8594,536.0325 L1303.8594,540.5168 L1310.0469,540.5168 L1310.0469,542.72 Z " fill="#000000"/><text fill="#000000" font-family="sans-serif" font-size="20" font-style="italic" lengthAdjust="spacing" textLength="70" x="1323" y="515.74">«entity»</text><text fill="#000000" font-family="sans-serif" font-size="20" font-style="italic" lengthAdjust="spacing" textLength="57" x="1329.5" y="542.9799">«root»</text><text fill="#000000" font-family="sans-serif" font-size="20" lengthAdjust="spacing" textLength="74" x="1321" y="570.2199">Teacher</text></g><g id="elem_GMN28"><path d="M676,718.36 L676,782.8399 A0,0 0 0 0 676,782.8399 L806,782.8399 A0,0 0 0 0 806,782.8399 L806,728.36 L796,718.36 L745,718.36 L741,567.79 L737,718.36 L676,718.36 A0,0 0 0 0 676,718.36 " fill="#FEFFDD" style="stroke:#181818;stroke-width:0.5;"/><path d="M796,718.36 L796,728.36 L806,728.36 L796,718.36 " fill="#FEFFDD" style="stroke:#181818;stroke-width:0.5;"/><text fill="#000000" font-family="sans-serif" font-size="20" lengthAdjust="spacing" textLength="61" x="682" y="744.74">DRAFT</text><text fill="#000000" font-family="sans-serif" font-size="20" lengthAdjust="spacing" textLength="109" x="682" y="771.9799">PUBLISHED</text></g><g id="elem_GMN37"><path d="M1504,704.36 L1504,796.0799 A0,0 0 0 0 1504,796.0799 L1678,796.0799 A0,0 0 0 0 1678,796.0799 L1678,714.36 L1668,704.36 L1596.49,704.36 L1596.97,567.79 L1588.49,704.36 L1504,704.36 A0,0 0 0 0 1504,704.36 " fill="#FEFFDD" style="stroke:#181818;stroke-width:0.5;"/><path d="M1668,704.36 L1668,714.36 L1678,714.36 L1668,704.36 " fill="#FEFFDD" style="stroke:#181818;stroke-width:0.5;"/><text fill="#000000" font-family="sans-serif" font-size="20" lengthAdjust="spacing" textLength="57" x="1510" y="730.74">NONE</text><text fill="#000000" font-family="sans-serif" font-size="20" lengthAdjust="spacing" textLength="153" x="1510" y="757.9799">ON_SUBMITION</text><text fill="#000000" font-family="sans-serif" font-size="20" lengthAdjust="spacing" textLength="153" x="1510" y="785.2199">AFTER_CLOSING</text></g><g id="elem_GMN40"><path d="M1713,704.36 L1713,796.0799 A0,0 0 0 0 1713,796.0799 L1887,796.0799 A0,0 0 0 0 1887,796.0799 L1887,714.36 L1877,704.36 L1802.72,704.36 L1794.89,567.79 L1794.72,704.36 L1713,704.36 A0,0 0 0 0 1713,704.36 " fill="#FEFFDD" style="stroke:#181818;stroke-width:0.5;"/><path d="M1877,704.36 L1877,714.36 L1887,714.36 L1877,704.36 " fill="#FEFFDD" style="stroke:#181818;stroke-width:0.5;"/><text fill="#000000" font-family="sans-serif" font-size="20" lengthAdjust="spacing" textLength="57" x="1719" y="730.74">NONE</text><text fill="#000000" font-family="sans-serif" font-size="20" lengthAdjust="spacing" textLength="153" x="1719" y="757.9799">ON_SUBMITION</text><text fill="#000000" font-family="sans-serif" font-size="20" lengthAdjust="spacing" textLength="153" x="1719" y="785.2199">AFTER_CLOSING</text></g><!--reverse link Exam to EvaluationExam--><g id="link_Exam_EvaluationExam"><path codeLine="83" d="M840.84,117.86 C1090.76,117.86 1340.68,117.86 1590.6,117.86 " fill="none" id="Exam-backto-EvaluationExam" style="stroke:#222222;stroke-width:1.0;"/><polygon fill="none" points="840.89,124.86,820.89,117.86,840.89,110.86,840.89,124.86" style="stroke:#222222;stroke-width:1.0;"/></g><!--reverse link Exam to FormativeExam--><g id="link_Exam_FormativeExam"><path codeLine="84" d="M833.17,193.68 C863.87,229.47 899.62,271.14 926.14,302.06 " fill="none" id="Exam-backto-FormativeExam" style="stroke:#222222;stroke-width:1.0;"/><polygon fill="none" points="828.17,198.59,820.46,178.85,838.79,189.48,828.17,198.59" style="stroke:#222222;stroke-width:1.0;"/></g><!--link EvaluationExam to Time--><g id="link_EvaluationExam_Time"><path codeLine="86" d="M1590.56,163.41 C1573.06,176.35 1557.07,192.26 1547,211.36 C1528.75,245.98 1555.7,284.47 1582.96,311.64 " fill="none" id="EvaluationExam-to-Time" style="stroke:#222222;stroke-width:1.0;"/><polygon fill="#222222" points="1586.25,314.84,1582.6035,305.691,1582.672,311.3475,1577.0155,311.4159,1586.25,314.84" style="stroke:#222222;stroke-width:1.0;"/><text fill="#000000" font-family="sans-serif" font-size="20" lengthAdjust="spacing" textLength="90" x="1548" y="233.74">start time</text><text fill="#000000" font-family="sans-serif" font-size="20" lengthAdjust="spacing" textLength="32" x="1545.9336" y="302.36">0..1</text></g><!--link EvaluationExam to Time--><g id="link_EvaluationExam_Time"><path codeLine="87" d="M1670.87,164.28 C1660.42,206.9 1644.98,269.9 1635.21,309.77 " fill="none" id="EvaluationExam-to-Time-1" style="stroke:#222222;stroke-width:1.0;"/><polygon fill="#222222" points="1634.05,314.49,1640.0756,306.6995,1635.2391,309.6334,1632.3051,304.7969,1634.05,314.49" style="stroke:#222222;stroke-width:1.0;"/><text fill="#000000" font-family="sans-serif" font-size="20" lengthAdjust="spacing" textLength="82" x="1660" y="233.74">end time</text><text fill="#000000" font-family="sans-serif" font-size="20" lengthAdjust="spacing" textLength="32" x="1600.2617" y="302.4303">0..1</text></g><!--link Exam to State--><g id="link_Exam_State"><path codeLine="89" d="M764.78,181.51 C758.88,269.1 748.34,425.41 743.53,496.86 " fill="none" id="Exam-to-State" style="stroke:#222222;stroke-width:1.0;"/><polygon fill="#222222" points="743.21,501.58,747.818,492.8756,743.553,496.5918,739.8369,492.3268,743.21,501.58" style="stroke:#222222;stroke-width:1.0;"/><text fill="#000000" font-family="sans-serif" font-size="20" lengthAdjust="spacing" textLength="37" x="761" y="356.24">is in</text><text fill="#000000" font-family="sans-serif" font-size="20" lengthAdjust="spacing" textLength="11" x="731.5273" y="489.5826">1</text></g><!--reverse link Exam to Section--><g id="link_Exam_Section"><path codeLine="96" d="M705.42,143.91 C654.6,166.08 583.59,202.09 532,248.36 C510.48,267.66 492.11,294.92 479.75,315.95 " fill="none" id="Exam-backto-Section" style="stroke:#222222;stroke-width:1.0;"/><polygon fill="#222222" points="717.14,138.9,710.0498,137.5849,706.1089,143.6238,713.1991,144.939,717.14,138.9" style="stroke:#222222;stroke-width:1.0;"/><text fill="#000000" font-family="sans-serif" font-size="20" lengthAdjust="spacing" textLength="32" x="447.8789" y="302.4186">1..*</text></g><!--link Exam to Course--><g id="link_Exam_Course"><path codeLine="97" d="M819.49,127.23 C886.28,140.91 1003.39,174.32 1071,248.36 C1131.25,314.34 1152.51,419.9 1159.98,482.65 " fill="none" id="Exam-to-Course" style="stroke:#222222;stroke-width:1.0;"/><polygon fill="#222222" points="1160.53,487.45,1163.4761,478.0521,1159.959,482.4827,1155.5284,478.9656,1160.53,487.45" style="stroke:#222222;stroke-width:1.0;"/><text fill="#000000" font-family="sans-serif" font-size="20" lengthAdjust="spacing" textLength="66" x="1149" y="356.24">is from</text><text fill="#000000" font-family="sans-serif" font-size="20" lengthAdjust="spacing" textLength="11" x="1148.5175" y="475.3259">1</text></g><!--link Exam to Teacher--><g id="link_Exam_Teacher"><path codeLine="98" d="M819.4,119.54 C911.12,123.42 1106.63,144.29 1224,248.36 C1293.57,310.05 1323.89,418.64 1336.25,482.8 " fill="none" id="Exam-to-Teacher" style="stroke:#222222;stroke-width:1.0;"/><polygon fill="#222222" points="1337.11,487.38,1339.3694,477.7938,1336.1817,482.4669,1331.5085,479.2792,1337.11,487.38" style="stroke:#222222;stroke-width:1.0;"/><text fill="#000000" font-family="sans-serif" font-size="20" lengthAdjust="spacing" textLength="117" x="1321" y="356.24">is created by</text><text fill="#000000" font-family="sans-serif" font-size="20" lengthAdjust="spacing" textLength="11" x="1324.8384" y="475.5858">1</text></g><!--reverse link EvaluationExam to FeedbackType--><g id="link_EvaluationExam_FeedbackType"><path codeLine="100" d="M1732.94,175.67 C1740.36,186.82 1746.88,198.93 1751,211.36 C1770.21,269.23 1800.71,289.38 1722,418.36 C1715.38,429.21 1708.67,427.11 1699,435.36 C1673.96,456.71 1647.46,482.83 1627.89,502.88 " fill="none" id="EvaluationExam-backto-FeedbackType" style="stroke:#222222;stroke-width:1.0;"/><polygon fill="#222222" points="1725.49,165.22,1725.7207,172.4274,1732.4624,174.9866,1732.2317,167.7792,1725.49,165.22" style="stroke:#222222;stroke-width:1.0;"/><text fill="#000000" font-family="sans-serif" font-size="20" lengthAdjust="spacing" textLength="11" x="1620.9296" y="489.6247">1</text></g><!--reverse link EvaluationExam to GradeType--><g id="link_EvaluationExam_GradeType"><path codeLine="101" d="M1742.22,174.89 C1751.24,186.11 1759.38,198.45 1765,211.36 C1808.24,310.74 1802.85,443.3 1797.51,502.94 " fill="none" id="EvaluationExam-backto-GradeType" style="stroke:#222222;stroke-width:1.0;"/><polygon fill="#222222" points="1733.95,165.22,1734.8049,172.3802,1741.7432,174.345,1740.8883,167.1848,1733.95,165.22" style="stroke:#222222;stroke-width:1.0;"/><text fill="#000000" font-family="sans-serif" font-size="20" lengthAdjust="spacing" textLength="11" x="1786.168" y="489.4069">1</text></g><!--reverse link Exam to Description--><g id="link_Exam_Description"><path codeLine="102" d="M722.37,193.9 C696.61,235.35 665.99,284.62 646.52,315.94 " fill="none" id="Exam-backto-Description" style="stroke:#222222;stroke-width:1.0;"/><polygon fill="#222222" points="729.21,182.89,722.6467,185.8771,722.8797,193.0845,729.443,190.0973,729.21,182.89" style="stroke:#222222;stroke-width:1.0;"/><text fill="#000000" font-family="sans-serif" font-size="20" lengthAdjust="spacing" textLength="11" x="637.9297" y="302.4069">1</text></g><!--reverse link Section to SectionQuestion--><g id="link_Section_SectionQuestion"><path codeLine="116" d="M398.42,373.1 C358,388.87 305.36,411.08 261,435.36 C224.37,455.41 185.42,482.35 157.12,503.07 " fill="none" id="Section-backto-SectionQuestion" style="stroke:#222222;stroke-width:1.0;"/><polygon fill="#222222" points="410.49,368.45,403.4517,366.881,399.2963,372.7745,406.3347,374.3435,410.49,368.45" style="stroke:#222222;stroke-width:1.0;"/><text fill="#000000" font-family="sans-serif" font-size="20" lengthAdjust="spacing" textLength="32" x="129.4375" y="489.5592">1..*</text></g><!--link SectionQuestion to Question--><g id="link_SectionQuestion_Question"><path codeLine="117" d="M116,567.79 C116,601.95 116,657.08 116,697.64 " fill="none" id="SectionQuestion-to-Question" style="stroke:#222222;stroke-width:1.0;"/><polygon fill="#222222" points="116,702.51,120,693.51,116,697.51,112,693.51,116,702.51" style="stroke:#222222;stroke-width:1.0;"/><text fill="#000000" font-family="sans-serif" font-size="20" lengthAdjust="spacing" textLength="141" x="117" y="635.74">corresponds to</text><text fill="#000000" font-family="sans-serif" font-size="20" lengthAdjust="spacing" textLength="11" x="104.2609" y="690.3939">1</text></g><!--link SectionQuestion to Score--><g id="link_SectionQuestion_Score"><path codeLine="118" d="M209.87,535.36 C230.38,535.36 251.98,535.36 272.11,535.36 " fill="none" id="SectionQuestion-to-Score" style="stroke:#222222;stroke-width:1.0;"/><polygon fill="#222222" points="277.08,535.36,268.08,531.36,272.08,535.36,268.08,539.36,277.08,535.36" style="stroke:#222222;stroke-width:1.0;"/><text fill="#000000" font-family="sans-serif" font-size="20" lengthAdjust="spacing" textLength="33" x="227.75" y="525.74">has</text><text fill="#000000" font-family="sans-serif" font-size="20" lengthAdjust="spacing" textLength="11" x="260.1277" y="528.5269">1</text></g><!--reverse link Section to SectionName--><g id="link_Section_SectionName"><path codeLine="120" d="M483.52,393.5 C499.23,427.29 520.51,473.06 534.48,503.13 " fill="none" id="Section-backto-SectionName" style="stroke:#222222;stroke-width:1.0;"/><polygon fill="#222222" points="478.23,382.12,477.1284,389.2465,483.2829,393.0043,484.3846,385.8778,478.23,382.12" style="stroke:#222222;stroke-width:1.0;"/></g><!--SRC=[bLLDRnen4BtxLumsbpOgY4GzL0WXyPaYfT1cIQ-HsHt0XLslR6_QDCr_hxrVs0jRA1VmcpTlnkEPGUvOd511epqFTXX2Y6kQxjMKnyfdln5kEuJ8aWF1daevK4gmLQfm5l0u8tN8beK862Ng1MXfbZOQeThoKDQrXZJORGHFut34zrp02ja6BT902FupDrtTPXz24kr3DmXUhqSt6u4Rgh3VXyal6ddmIWW0nehfc0QnZZu6Yl7O85bi6ACC14jAqALzIr5cbfBj1rpWmTbNEgnrpBtcD4BorfZZb8k8AlQCPR9LLCTY54xXqElbi9RgzGJdIlzu_KUyoJFTfzGaTXJGDHqkicJw1kLXYXYkjFJo9Jc0TuA6c267D5sr2_EiqYnhxIHOFO1s8wVVnewJoJVLOSHJ8T6Hpo7h2ZdGd7gJzX9fi4NXY1UOfLuWpV9MppQG05eGcgPxgzV3gOEs7hMa9hpx_k5gElqq_DXv3-Qn4FZgXsRaBbPFd-MIuzwuKB_gd0lvre1Uw66wzzBBcda-VzbQDvv-6ytB7-vFgpvO9TwgZJYfZKohrGUlqsxVUFabkY0L5GgKcSUpN8p3d4aAWc5eS_wYNM0Ic5voCTUd5LUAHy3NnGu363yCfalz_VLnU3_pFq_6nEWPSg5thTFtRjhjQw_QecwSOdYoG6l1evgvxFxC7WZKOKDOlHmLGSTfPGxEucaY7HQHbQJdhlNQZMiBRRwOJ_JNOlxaFmw_p9QpnLmVTJ4c3q-Z-uK_czzPfQXf7SB_hr0vjiTbhPPUVTELbQo0BkZ-5IWJ7eSI53_sA3eWQ_CkRAbq0zl_MEGl]--></g></svg>