<?xml version="1.0" encoding="us-ascii" standalone="no"?><svg xmlns="http://www.w3.org/2000/svg" xmlns:xlink="http://www.w3.org/1999/xlink" contentStyleType="text/css" height="640.2px" preserveAspectRatio="none" style="width:1302px;height:640px;background:#FFFFFF;" version="1.1" viewBox="0 0 1302 640" width="1302.6px" zoomAndPan="magnify"><defs/><g><!--class ListFutureExamsUI--><g id="elem_ListFutureExamsUI"><rect codeLine="2" fill="#F1F1F1" height="28.8" id="ListFutureExamsUI" rx="1.5" ry="1.5" style="stroke:#181818;stroke-width:0.3;" width="89.4" x="641.1" y="4.2"/><ellipse cx="650.1" cy="13.8" fill="#ADD1B2" rx="6.6" ry="6.6" style="stroke:#181818;stroke-width:0.6;"/><path d="M651.7594,11.325 Q651.8531,11.1938 651.9656,11.1281 Q652.0781,11.0625 652.2094,11.0625 Q652.4344,11.0625 652.575,11.2219 Q652.7156,11.3719 652.7156,11.7375 L652.7156,12.6094 Q652.7156,12.975 652.575,13.1344 Q652.4344,13.2938 652.2094,13.2938 Q652.0031,13.2938 651.8813,13.1719 Q651.7594,13.0594 651.6938,12.75 Q651.6656,12.5344 651.5531,12.4219 Q651.3562,12.1969 650.9906,12.0656 Q650.625,11.9344 650.25,11.9344 Q649.7906,11.9344 649.4063,12.1313 Q649.0313,12.3281 648.7312,12.7781 Q648.4406,13.2281 648.4406,13.8469 L648.4406,14.5031 Q648.4406,15.2437 648.975,15.7406 Q649.5094,16.2281 650.4656,16.2281 Q651.0281,16.2281 651.4219,16.0781 Q651.6563,15.9844 651.9094,15.7219 Q652.0688,15.5625 652.1531,15.5156 Q652.2469,15.4688 652.3688,15.4688 Q652.5656,15.4688 652.7156,15.6281 Q652.875,15.7781 652.875,15.9844 Q652.875,16.1906 652.6687,16.4344 Q652.3688,16.7813 651.8906,16.9781 Q651.2438,17.25 650.4656,17.25 Q649.5563,17.25 648.8344,16.875 Q648.2438,16.575 647.8313,15.9375 Q647.4187,15.2906 647.4187,14.5219 L647.4187,13.8281 Q647.4187,13.0313 647.7844,12.3469 Q648.1594,11.6531 648.8156,11.2875 Q649.4719,10.9125 650.2125,10.9125 Q650.6531,10.9125 651.0375,11.0156 Q651.4313,11.1094 651.7594,11.325 Z " fill="#000000"/><text fill="#000000" font-family="sans-serif" font-size="8.4" lengthAdjust="spacing" textLength="70.2" x="658.5" y="17.2781">ListFutureExamsUI</text><line style="stroke:#181818;stroke-width:0.3;" x1="641.7" x2="729.9" y1="23.4" y2="23.4"/><line style="stroke:#181818;stroke-width:0.3;" x1="641.7" x2="729.9" y1="28.2" y2="28.2"/></g><!--class ListFutureExamsController--><g id="elem_ListFutureExamsController"><rect codeLine="6" fill="#F1F1F1" height="107.0086" id="ListFutureExamsController" rx="1.5" ry="1.5" style="stroke:#181818;stroke-width:0.3;" width="119.4" x="626.1" y="69"/><ellipse cx="635.1" cy="78.6" fill="#ADD1B2" rx="6.6" ry="6.6" style="stroke:#181818;stroke-width:0.6;"/><path d="M636.7594,76.125 Q636.8531,75.9937 636.9656,75.9281 Q637.0781,75.8625 637.2094,75.8625 Q637.4344,75.8625 637.575,76.0219 Q637.7156,76.1719 637.7156,76.5375 L637.7156,77.4094 Q637.7156,77.775 637.575,77.9344 Q637.4344,78.0938 637.2094,78.0938 Q637.0031,78.0938 636.8813,77.9719 Q636.7594,77.8594 636.6938,77.55 Q636.6656,77.3344 636.5531,77.2219 Q636.3562,76.9969 635.9906,76.8656 Q635.625,76.7344 635.25,76.7344 Q634.7906,76.7344 634.4063,76.9312 Q634.0313,77.1281 633.7312,77.5781 Q633.4406,78.0281 633.4406,78.6469 L633.4406,79.3031 Q633.4406,80.0438 633.975,80.5406 Q634.5094,81.0281 635.4656,81.0281 Q636.0281,81.0281 636.4219,80.8781 Q636.6563,80.7844 636.9094,80.5219 Q637.0688,80.3625 637.1531,80.3156 Q637.2469,80.2688 637.3688,80.2688 Q637.5656,80.2688 637.7156,80.4281 Q637.875,80.5781 637.875,80.7844 Q637.875,80.9906 637.6687,81.2344 Q637.3688,81.5813 636.8906,81.7781 Q636.2438,82.05 635.4656,82.05 Q634.5563,82.05 633.8344,81.675 Q633.2438,81.375 632.8313,80.7375 Q632.4187,80.0906 632.4187,79.3219 L632.4187,78.6281 Q632.4187,77.8313 632.7844,77.1469 Q633.1594,76.4531 633.8156,76.0875 Q634.4719,75.7125 635.2125,75.7125 Q635.6531,75.7125 636.0375,75.8156 Q636.4313,75.9094 636.7594,76.125 Z " fill="#000000"/><text fill="#000000" font-family="sans-serif" font-size="8.4" lengthAdjust="spacing" textLength="100.2" x="643.5" y="82.0781">ListFutureExamsController</text><line style="stroke:#181818;stroke-width:0.3;" x1="626.7" x2="744.9" y1="88.2" y2="88.2"/><rect fill="none" height="3.6" style="stroke:#C82930;stroke-width:0.6;" width="3.6" x="630.9" y="95.2863"/><text fill="#000000" font-family="sans-serif" font-size="8.4" lengthAdjust="spacing" textLength="78.6" x="638.1" y="99.6645">enrolmentRepository</text><rect fill="none" height="3.6" style="stroke:#C82930;stroke-width:0.6;" width="3.6" x="630.9" y="106.459"/><text fill="#000000" font-family="sans-serif" font-size="8.4" lengthAdjust="spacing" textLength="66.6" x="638.1" y="110.8371">courseRepository</text><rect fill="none" height="3.6" style="stroke:#C82930;stroke-width:0.6;" width="3.6" x="630.9" y="117.6316"/><text fill="#000000" font-family="sans-serif" font-size="8.4" lengthAdjust="spacing" textLength="69" x="638.1" y="122.0098">studentRepository</text><rect fill="none" height="3.6" style="stroke:#C82930;stroke-width:0.6;" width="3.6" x="630.9" y="128.8043"/><text fill="#000000" font-family="sans-serif" font-size="8.4" lengthAdjust="spacing" textLength="76.8" x="638.1" y="133.1824">authorizationService</text><rect fill="none" height="3.6" style="stroke:#C82930;stroke-width:0.6;" width="3.6" x="630.9" y="139.977"/><text fill="#000000" font-family="sans-serif" font-size="8.4" lengthAdjust="spacing" textLength="61.2" x="638.1" y="144.3551">examListService</text><line style="stroke:#181818;stroke-width:0.3;" x1="626.7" x2="744.9" y1="148.8633" y2="148.8633"/><ellipse cx="632.7" cy="157.7496" fill="#84BE84" rx="1.8" ry="1.8" style="stroke:#038048;stroke-width:0.6;"/><text fill="#000000" font-family="sans-serif" font-size="8.4" lengthAdjust="spacing" textLength="77.4" x="638.1" y="160.3277">listStudentCourses()</text><ellipse cx="632.7" cy="168.9223" fill="#84BE84" rx="1.8" ry="1.8" style="stroke:#038048;stroke-width:0.6;"/><text fill="#000000" font-family="sans-serif" font-size="8.4" lengthAdjust="spacing" textLength="96.6" x="638.1" y="171.5004">futureExams(courseDTO)</text></g><!--class StudentRepository--><g id="elem_StudentRepository"><rect codeLine="16" fill="#F1F1F1" height="39.9727" id="StudentRepository" rx="1.5" ry="1.5" style="stroke:#181818;stroke-width:0.3;" width="121.2" x="231" y="520.2"/><ellipse cx="254.31" cy="529.8" fill="#B4A7E5" rx="6.6" ry="6.6" style="stroke:#181818;stroke-width:0.6;"/><path d="M254.8819,527.7844 L254.8819,531.7781 L255.9131,531.7781 Q256.2788,531.7781 256.4381,531.9187 Q256.5975,532.0594 256.5975,532.2937 Q256.5975,532.5188 256.4381,532.6594 Q256.2788,532.8 255.9131,532.8 L252.8288,532.8 Q252.4631,532.8 252.3038,532.6594 Q252.1444,532.5188 252.1444,532.2844 Q252.1444,532.0594 252.3038,531.9187 Q252.4631,531.7781 252.8288,531.7781 L253.86,531.7781 L253.86,527.7844 L252.8288,527.7844 Q252.4631,527.7844 252.3038,527.6438 Q252.1444,527.5031 252.1444,527.2688 Q252.1444,527.0437 252.3038,526.9031 Q252.4631,526.7625 252.8288,526.7625 L255.9131,526.7625 Q256.2788,526.7625 256.4381,526.9031 Q256.5975,527.0437 256.5975,527.2688 Q256.5975,527.5031 256.4381,527.6438 Q256.2788,527.7844 255.9131,527.7844 L254.8819,527.7844 Z " fill="#000000"/><text fill="#000000" font-family="sans-serif" font-size="8.4" font-style="italic" lengthAdjust="spacing" textLength="70.2" x="265.89" y="533.2781">StudentRepository</text><line style="stroke:#181818;stroke-width:0.3;" x1="231.6" x2="351.6" y1="539.4" y2="539.4"/><line style="stroke:#181818;stroke-width:0.3;" x1="231.6" x2="351.6" y1="544.2" y2="544.2"/><ellipse cx="237.6" cy="553.0863" fill="#84BE84" rx="1.8" ry="1.8" style="stroke:#038048;stroke-width:0.6;"/><text fill="#000000" font-family="sans-serif" font-size="8.4" lengthAdjust="spacing" textLength="105.6" x="243" y="555.6645">findByUsername(username)</text></g><!--class InMemoryStudentRepository--><g id="elem_InMemoryStudentRepository"><rect codeLine="20" fill="#F1F1F1" height="39.9727" id="InMemoryStudentRepository" rx="1.5" ry="1.5" style="stroke:#181818;stroke-width:0.3;" width="126" x="4.2" y="596.4"/><ellipse cx="13.2" cy="606" fill="#ADD1B2" rx="6.6" ry="6.6" style="stroke:#181818;stroke-width:0.6;"/><path d="M14.8594,603.525 Q14.9531,603.3938 15.0656,603.3281 Q15.1781,603.2625 15.3094,603.2625 Q15.5344,603.2625 15.675,603.4219 Q15.8156,603.5719 15.8156,603.9375 L15.8156,604.8094 Q15.8156,605.175 15.675,605.3344 Q15.5344,605.4938 15.3094,605.4938 Q15.1031,605.4938 14.9813,605.3719 Q14.8594,605.2594 14.7938,604.95 Q14.7656,604.7344 14.6531,604.6219 Q14.4562,604.3969 14.0906,604.2656 Q13.725,604.1344 13.35,604.1344 Q12.8906,604.1344 12.5063,604.3313 Q12.1313,604.5281 11.8312,604.9781 Q11.5406,605.4281 11.5406,606.0469 L11.5406,606.7031 Q11.5406,607.4438 12.075,607.9406 Q12.6094,608.4281 13.5656,608.4281 Q14.1281,608.4281 14.5219,608.2781 Q14.7563,608.1844 15.0094,607.9219 Q15.1688,607.7625 15.2531,607.7156 Q15.3469,607.6687 15.4688,607.6687 Q15.6656,607.6687 15.8156,607.8281 Q15.975,607.9781 15.975,608.1844 Q15.975,608.3906 15.7687,608.6344 Q15.4688,608.9812 14.9906,609.1781 Q14.3438,609.45 13.5656,609.45 Q12.6563,609.45 11.9344,609.075 Q11.3438,608.775 10.9313,608.1375 Q10.5187,607.4906 10.5187,606.7219 L10.5187,606.0281 Q10.5187,605.2312 10.8844,604.5469 Q11.2594,603.8531 11.9156,603.4875 Q12.5719,603.1125 13.3125,603.1125 Q13.7531,603.1125 14.1375,603.2156 Q14.5313,603.3094 14.8594,603.525 Z " fill="#000000"/><text fill="#000000" font-family="sans-serif" font-size="8.4" lengthAdjust="spacing" textLength="106.8" x="21.6" y="609.4781">InMemoryStudentRepository</text><line style="stroke:#181818;stroke-width:0.3;" x1="4.8" x2="129.6" y1="615.6" y2="615.6"/><line style="stroke:#181818;stroke-width:0.3;" x1="4.8" x2="129.6" y1="620.4" y2="620.4"/><ellipse cx="10.8" cy="629.2863" fill="#84BE84" rx="1.8" ry="1.8" style="stroke:#038048;stroke-width:0.6;"/><text fill="#000000" font-family="sans-serif" font-size="8.4" lengthAdjust="spacing" textLength="105.6" x="16.2" y="631.8645">findByUsername(username)</text></g><!--class JpaStudentRepository--><g id="elem_JpaStudentRepository"><rect codeLine="24" fill="#F1F1F1" height="39.9727" id="JpaStudentRepository" rx="1.5" ry="1.5" style="stroke:#181818;stroke-width:0.3;" width="121.2" x="151.2" y="596.4"/><ellipse cx="168.57" cy="606" fill="#ADD1B2" rx="6.6" ry="6.6" style="stroke:#181818;stroke-width:0.6;"/><path d="M170.2294,603.525 Q170.3231,603.3938 170.4356,603.3281 Q170.5481,603.2625 170.6794,603.2625 Q170.9044,603.2625 171.045,603.4219 Q171.1856,603.5719 171.1856,603.9375 L171.1856,604.8094 Q171.1856,605.175 171.045,605.3344 Q170.9044,605.4938 170.6794,605.4938 Q170.4731,605.4938 170.3513,605.3719 Q170.2294,605.2594 170.1638,604.95 Q170.1356,604.7344 170.0231,604.6219 Q169.8263,604.3969 169.4606,604.2656 Q169.095,604.1344 168.72,604.1344 Q168.2606,604.1344 167.8763,604.3313 Q167.5013,604.5281 167.2013,604.9781 Q166.9106,605.4281 166.9106,606.0469 L166.9106,606.7031 Q166.9106,607.4438 167.445,607.9406 Q167.9794,608.4281 168.9356,608.4281 Q169.4981,608.4281 169.8919,608.2781 Q170.1263,608.1844 170.3794,607.9219 Q170.5388,607.7625 170.6231,607.7156 Q170.7169,607.6687 170.8387,607.6687 Q171.0356,607.6687 171.1856,607.8281 Q171.345,607.9781 171.345,608.1844 Q171.345,608.3906 171.1388,608.6344 Q170.8387,608.9812 170.3606,609.1781 Q169.7137,609.45 168.9356,609.45 Q168.0262,609.45 167.3044,609.075 Q166.7137,608.775 166.3012,608.1375 Q165.8888,607.4906 165.8888,606.7219 L165.8888,606.0281 Q165.8888,605.2312 166.2544,604.5469 Q166.6294,603.8531 167.2856,603.4875 Q167.9419,603.1125 168.6825,603.1125 Q169.1231,603.1125 169.5075,603.2156 Q169.9012,603.3094 170.2294,603.525 Z " fill="#000000"/><text fill="#000000" font-family="sans-serif" font-size="8.4" lengthAdjust="spacing" textLength="83.4" x="178.83" y="609.4781">JpaStudentRepository</text><line style="stroke:#181818;stroke-width:0.3;" x1="151.8" x2="271.8" y1="615.6" y2="615.6"/><line style="stroke:#181818;stroke-width:0.3;" x1="151.8" x2="271.8" y1="620.4" y2="620.4"/><ellipse cx="157.8" cy="629.2863" fill="#84BE84" rx="1.8" ry="1.8" style="stroke:#038048;stroke-width:0.6;"/><text fill="#000000" font-family="sans-serif" font-size="8.4" lengthAdjust="spacing" textLength="105.6" x="163.2" y="631.8645">findByUsername(username)</text></g><!--class Course--><g id="elem_Course"><rect codeLine="28" fill="#F1F1F1" height="118.1812" id="Course" rx="1.5" ry="1.5" style="stroke:#181818;stroke-width:0.3;" width="99.6" x="908.4" y="211.8"/><ellipse cx="941.85" cy="221.4" fill="#ADD1B2" rx="6.6" ry="6.6" style="stroke:#181818;stroke-width:0.6;"/><path d="M943.5094,218.925 Q943.6031,218.7938 943.7156,218.7281 Q943.8281,218.6625 943.9594,218.6625 Q944.1844,218.6625 944.325,218.8219 Q944.4656,218.9719 944.4656,219.3375 L944.4656,220.2094 Q944.4656,220.575 944.325,220.7344 Q944.1844,220.8937 943.9594,220.8937 Q943.7531,220.8937 943.6312,220.7719 Q943.5094,220.6594 943.4437,220.35 Q943.4156,220.1344 943.3031,220.0219 Q943.1062,219.7969 942.7406,219.6656 Q942.375,219.5344 942,219.5344 Q941.5406,219.5344 941.1563,219.7313 Q940.7813,219.9281 940.4812,220.3781 Q940.1906,220.8281 940.1906,221.4469 L940.1906,222.1031 Q940.1906,222.8438 940.725,223.3406 Q941.2594,223.8281 942.2156,223.8281 Q942.7781,223.8281 943.1719,223.6781 Q943.4063,223.5844 943.6594,223.3219 Q943.8187,223.1625 943.9031,223.1156 Q943.9969,223.0688 944.1188,223.0688 Q944.3156,223.0688 944.4656,223.2281 Q944.625,223.3781 944.625,223.5844 Q944.625,223.7906 944.4187,224.0344 Q944.1188,224.3813 943.6406,224.5781 Q942.9938,224.85 942.2156,224.85 Q941.3063,224.85 940.5844,224.475 Q939.9938,224.175 939.5813,223.5375 Q939.1687,222.8906 939.1687,222.1219 L939.1687,221.4281 Q939.1687,220.6313 939.5344,219.9469 Q939.9094,219.2531 940.5656,218.8875 Q941.2219,218.5125 941.9625,218.5125 Q942.4031,218.5125 942.7875,218.6156 Q943.1813,218.7094 943.5094,218.925 Z " fill="#000000"/><text fill="#000000" font-family="sans-serif" font-size="8.4" lengthAdjust="spacing" textLength="27.6" x="954.15" y="224.8781">Course</text><line style="stroke:#181818;stroke-width:0.3;" x1="909" x2="1007.4" y1="231" y2="231"/><rect fill="none" height="3.6" style="stroke:#C82930;stroke-width:0.6;" width="3.6" x="913.2" y="238.0863"/><text fill="#000000" font-family="sans-serif" font-size="8.4" lengthAdjust="spacing" textLength="18.6" x="920.4" y="242.4645">code</text><rect fill="none" height="3.6" style="stroke:#C82930;stroke-width:0.6;" width="3.6" x="913.2" y="249.259"/><text fill="#000000" font-family="sans-serif" font-size="8.4" lengthAdjust="spacing" textLength="13.2" x="920.4" y="253.6371">title</text><rect fill="none" height="3.6" style="stroke:#C82930;stroke-width:0.6;" width="3.6" x="913.2" y="260.4316"/><text fill="#000000" font-family="sans-serif" font-size="8.4" lengthAdjust="spacing" textLength="41.4" x="920.4" y="264.8098">description</text><rect fill="none" height="3.6" style="stroke:#C82930;stroke-width:0.6;" width="3.6" x="913.2" y="271.6043"/><text fill="#000000" font-family="sans-serif" font-size="8.4" lengthAdjust="spacing" textLength="59.4" x="920.4" y="275.9824">enrolmentLimits</text><rect fill="none" height="3.6" style="stroke:#C82930;stroke-width:0.6;" width="3.6" x="913.2" y="282.777"/><text fill="#000000" font-family="sans-serif" font-size="8.4" lengthAdjust="spacing" textLength="45.6" x="920.4" y="287.1551">courseState</text><rect fill="none" height="3.6" style="stroke:#C82930;stroke-width:0.6;" width="3.6" x="913.2" y="293.9496"/><text fill="#000000" font-family="sans-serif" font-size="8.4" lengthAdjust="spacing" textLength="84" x="920.4" y="298.3277">courseEnrolmentState</text><rect fill="none" height="3.6" style="stroke:#C82930;stroke-width:0.6;" width="3.6" x="913.2" y="305.1223"/><text fill="#000000" font-family="sans-serif" font-size="8.4" lengthAdjust="spacing" textLength="36.6" x="920.4" y="309.5004">createdAt</text><line style="stroke:#181818;stroke-width:0.3;" x1="909" x2="1007.4" y1="314.0086" y2="314.0086"/><ellipse cx="915" cy="322.8949" fill="#84BE84" rx="1.8" ry="1.8" style="stroke:#038048;stroke-width:0.6;"/><text fill="#000000" font-family="sans-serif" font-size="8.4" lengthAdjust="spacing" textLength="26.4" x="920.4" y="325.473">toDto()</text></g><!--class CourseDTO--><g id="elem_CourseDTO"><rect codeLine="39" fill="#F1F1F1" height="107.0086" id="CourseDTO" rx="1.5" ry="1.5" style="stroke:#181818;stroke-width:0.3;" width="99.6" x="1029" y="217.5"/><ellipse cx="1053.66" cy="227.1" fill="#ADD1B2" rx="6.6" ry="6.6" style="stroke:#181818;stroke-width:0.6;"/><path d="M1055.3194,224.625 Q1055.4131,224.4938 1055.5256,224.4281 Q1055.6381,224.3625 1055.7694,224.3625 Q1055.9944,224.3625 1056.135,224.5219 Q1056.2756,224.6719 1056.2756,225.0375 L1056.2756,225.9094 Q1056.2756,226.275 1056.135,226.4344 Q1055.9944,226.5938 1055.7694,226.5938 Q1055.5631,226.5938 1055.4412,226.4719 Q1055.3194,226.3594 1055.2537,226.05 Q1055.2256,225.8344 1055.1131,225.7219 Q1054.9163,225.4969 1054.5506,225.3656 Q1054.185,225.2344 1053.81,225.2344 Q1053.3506,225.2344 1052.9663,225.4313 Q1052.5913,225.6281 1052.2913,226.0781 Q1052.0006,226.5281 1052.0006,227.1469 L1052.0006,227.8031 Q1052.0006,228.5438 1052.535,229.0406 Q1053.0694,229.5281 1054.0256,229.5281 Q1054.5881,229.5281 1054.9819,229.3781 Q1055.2163,229.2844 1055.4694,229.0219 Q1055.6287,228.8625 1055.7131,228.8156 Q1055.8069,228.7687 1055.9287,228.7687 Q1056.1256,228.7687 1056.2756,228.9281 Q1056.435,229.0781 1056.435,229.2844 Q1056.435,229.4906 1056.2288,229.7344 Q1055.9287,230.0812 1055.4506,230.2781 Q1054.8037,230.55 1054.0256,230.55 Q1053.1162,230.55 1052.3944,230.175 Q1051.8037,229.875 1051.3913,229.2375 Q1050.9788,228.5906 1050.9788,227.8219 L1050.9788,227.1281 Q1050.9788,226.3312 1051.3444,225.6469 Q1051.7194,224.9531 1052.3756,224.5875 Q1053.0319,224.2125 1053.7725,224.2125 Q1054.2131,224.2125 1054.5975,224.3156 Q1054.9912,224.4094 1055.3194,224.625 Z " fill="#000000"/><text fill="#000000" font-family="sans-serif" font-size="8.4" lengthAdjust="spacing" textLength="45.6" x="1065.54" y="230.5781">CourseDTO</text><line style="stroke:#181818;stroke-width:0.3;" x1="1029.6" x2="1128" y1="236.7" y2="236.7"/><rect fill="none" height="3.6" style="stroke:#C82930;stroke-width:0.6;" width="3.6" x="1033.8" y="243.7863"/><text fill="#000000" font-family="sans-serif" font-size="8.4" lengthAdjust="spacing" textLength="18.6" x="1041" y="248.1645">code</text><rect fill="none" height="3.6" style="stroke:#C82930;stroke-width:0.6;" width="3.6" x="1033.8" y="254.959"/><text fill="#000000" font-family="sans-serif" font-size="8.4" lengthAdjust="spacing" textLength="13.2" x="1041" y="259.3371">title</text><rect fill="none" height="3.6" style="stroke:#C82930;stroke-width:0.6;" width="3.6" x="1033.8" y="266.1316"/><text fill="#000000" font-family="sans-serif" font-size="8.4" lengthAdjust="spacing" textLength="41.4" x="1041" y="270.5098">description</text><rect fill="none" height="3.6" style="stroke:#C82930;stroke-width:0.6;" width="3.6" x="1033.8" y="277.3043"/><text fill="#000000" font-family="sans-serif" font-size="8.4" lengthAdjust="spacing" textLength="59.4" x="1041" y="281.6824">enrolmentLimits</text><rect fill="none" height="3.6" style="stroke:#C82930;stroke-width:0.6;" width="3.6" x="1033.8" y="288.477"/><text fill="#000000" font-family="sans-serif" font-size="8.4" lengthAdjust="spacing" textLength="45.6" x="1041" y="292.8551">courseState</text><rect fill="none" height="3.6" style="stroke:#C82930;stroke-width:0.6;" width="3.6" x="1033.8" y="299.6496"/><text fill="#000000" font-family="sans-serif" font-size="8.4" lengthAdjust="spacing" textLength="84" x="1041" y="304.0277">courseEnrolmentState</text><rect fill="none" height="3.6" style="stroke:#C82930;stroke-width:0.6;" width="3.6" x="1033.8" y="310.8223"/><text fill="#000000" font-family="sans-serif" font-size="8.4" lengthAdjust="spacing" textLength="36.6" x="1041" y="315.2004">createdAt</text><line style="stroke:#181818;stroke-width:0.3;" x1="1029.6" x2="1128" y1="319.7086" y2="319.7086"/></g><!--class CourseRepository--><g id="elem_CourseRepository"><rect codeLine="49" fill="#F1F1F1" height="39.9727" id="CourseRepository" rx="1.5" ry="1.5" style="stroke:#181818;stroke-width:0.3;" width="87.6" x="441.6" y="520.2"/><ellipse cx="450.6" cy="529.8" fill="#B4A7E5" rx="6.6" ry="6.6" style="stroke:#181818;stroke-width:0.6;"/><path d="M451.1719,527.7844 L451.1719,531.7781 L452.2031,531.7781 Q452.5687,531.7781 452.7281,531.9187 Q452.8875,532.0594 452.8875,532.2937 Q452.8875,532.5188 452.7281,532.6594 Q452.5687,532.8 452.2031,532.8 L449.1188,532.8 Q448.7531,532.8 448.5938,532.6594 Q448.4344,532.5188 448.4344,532.2844 Q448.4344,532.0594 448.5938,531.9187 Q448.7531,531.7781 449.1188,531.7781 L450.15,531.7781 L450.15,527.7844 L449.1188,527.7844 Q448.7531,527.7844 448.5938,527.6438 Q448.4344,527.5031 448.4344,527.2688 Q448.4344,527.0437 448.5938,526.9031 Q448.7531,526.7625 449.1188,526.7625 L452.2031,526.7625 Q452.5687,526.7625 452.7281,526.9031 Q452.8875,527.0437 452.8875,527.2688 Q452.8875,527.5031 452.7281,527.6438 Q452.5687,527.7844 452.2031,527.7844 L451.1719,527.7844 Z " fill="#000000"/><text fill="#000000" font-family="sans-serif" font-size="8.4" font-style="italic" lengthAdjust="spacing" textLength="68.4" x="459" y="533.2781">CourseRepository</text><line style="stroke:#181818;stroke-width:0.3;" x1="442.2" x2="528.6" y1="539.4" y2="539.4"/><line style="stroke:#181818;stroke-width:0.3;" x1="442.2" x2="528.6" y1="544.2" y2="544.2"/><ellipse cx="448.2" cy="553.0863" fill="#84BE84" rx="1.8" ry="1.8" style="stroke:#038048;stroke-width:0.6;"/><text fill="#000000" font-family="sans-serif" font-size="8.4" lengthAdjust="spacing" textLength="68.4" x="453.6" y="555.6645">findByCode(code)</text></g><!--class InMemoryCourseRepository--><g id="elem_InMemoryCourseRepository"><rect codeLine="53" fill="#F1F1F1" height="39.9727" id="InMemoryCourseRepository" rx="1.5" ry="1.5" style="stroke:#181818;stroke-width:0.3;" width="124.2" x="293.7" y="596.4"/><ellipse cx="302.7" cy="606" fill="#ADD1B2" rx="6.6" ry="6.6" style="stroke:#181818;stroke-width:0.6;"/><path d="M304.3594,603.525 Q304.4531,603.3938 304.5656,603.3281 Q304.6781,603.2625 304.8094,603.2625 Q305.0344,603.2625 305.175,603.4219 Q305.3156,603.5719 305.3156,603.9375 L305.3156,604.8094 Q305.3156,605.175 305.175,605.3344 Q305.0344,605.4938 304.8094,605.4938 Q304.6031,605.4938 304.4813,605.3719 Q304.3594,605.2594 304.2938,604.95 Q304.2656,604.7344 304.1531,604.6219 Q303.9563,604.3969 303.5906,604.2656 Q303.225,604.1344 302.85,604.1344 Q302.3906,604.1344 302.0062,604.3313 Q301.6312,604.5281 301.3313,604.9781 Q301.0406,605.4281 301.0406,606.0469 L301.0406,606.7031 Q301.0406,607.4438 301.575,607.9406 Q302.1094,608.4281 303.0656,608.4281 Q303.6281,608.4281 304.0219,608.2781 Q304.2562,608.1844 304.5094,607.9219 Q304.6688,607.7625 304.7531,607.7156 Q304.8469,607.6687 304.9688,607.6687 Q305.1656,607.6687 305.3156,607.8281 Q305.475,607.9781 305.475,608.1844 Q305.475,608.3906 305.2688,608.6344 Q304.9688,608.9812 304.4906,609.1781 Q303.8438,609.45 303.0656,609.45 Q302.1563,609.45 301.4344,609.075 Q300.8438,608.775 300.4313,608.1375 Q300.0188,607.4906 300.0188,606.7219 L300.0188,606.0281 Q300.0188,605.2312 300.3844,604.5469 Q300.7594,603.8531 301.4156,603.4875 Q302.0719,603.1125 302.8125,603.1125 Q303.2531,603.1125 303.6375,603.2156 Q304.0313,603.3094 304.3594,603.525 Z " fill="#000000"/><text fill="#000000" font-family="sans-serif" font-size="8.4" lengthAdjust="spacing" textLength="105" x="311.1" y="609.4781">InMemoryCourseRepository</text><line style="stroke:#181818;stroke-width:0.3;" x1="294.3" x2="417.3" y1="615.6" y2="615.6"/><line style="stroke:#181818;stroke-width:0.3;" x1="294.3" x2="417.3" y1="620.4" y2="620.4"/><ellipse cx="300.3" cy="629.2863" fill="#84BE84" rx="1.8" ry="1.8" style="stroke:#038048;stroke-width:0.6;"/><text fill="#000000" font-family="sans-serif" font-size="8.4" lengthAdjust="spacing" textLength="68.4" x="305.7" y="631.8645">findByCode(code)</text></g><!--class JpaCourseRepository--><g id="elem_JpaCourseRepository"><rect codeLine="57" fill="#F1F1F1" height="39.9727" id="JpaCourseRepository" rx="1.5" ry="1.5" style="stroke:#181818;stroke-width:0.3;" width="100.8" x="439.2" y="596.4"/><ellipse cx="448.2" cy="606" fill="#ADD1B2" rx="6.6" ry="6.6" style="stroke:#181818;stroke-width:0.6;"/><path d="M449.8594,603.525 Q449.9531,603.3938 450.0656,603.3281 Q450.1781,603.2625 450.3094,603.2625 Q450.5344,603.2625 450.675,603.4219 Q450.8156,603.5719 450.8156,603.9375 L450.8156,604.8094 Q450.8156,605.175 450.675,605.3344 Q450.5344,605.4938 450.3094,605.4938 Q450.1031,605.4938 449.9813,605.3719 Q449.8594,605.2594 449.7938,604.95 Q449.7656,604.7344 449.6531,604.6219 Q449.4563,604.3969 449.0906,604.2656 Q448.725,604.1344 448.35,604.1344 Q447.8906,604.1344 447.5062,604.3313 Q447.1312,604.5281 446.8313,604.9781 Q446.5406,605.4281 446.5406,606.0469 L446.5406,606.7031 Q446.5406,607.4438 447.075,607.9406 Q447.6094,608.4281 448.5656,608.4281 Q449.1281,608.4281 449.5219,608.2781 Q449.7562,608.1844 450.0094,607.9219 Q450.1688,607.7625 450.2531,607.7156 Q450.3469,607.6687 450.4688,607.6687 Q450.6656,607.6687 450.8156,607.8281 Q450.975,607.9781 450.975,608.1844 Q450.975,608.3906 450.7688,608.6344 Q450.4688,608.9812 449.9906,609.1781 Q449.3438,609.45 448.5656,609.45 Q447.6563,609.45 446.9344,609.075 Q446.3438,608.775 445.9313,608.1375 Q445.5188,607.4906 445.5188,606.7219 L445.5188,606.0281 Q445.5188,605.2312 445.8844,604.5469 Q446.2594,603.8531 446.9156,603.4875 Q447.5719,603.1125 448.3125,603.1125 Q448.7531,603.1125 449.1375,603.2156 Q449.5313,603.3094 449.8594,603.525 Z " fill="#000000"/><text fill="#000000" font-family="sans-serif" font-size="8.4" lengthAdjust="spacing" textLength="81.6" x="456.6" y="609.4781">JpaCourseRepository</text><line style="stroke:#181818;stroke-width:0.3;" x1="439.8" x2="539.4" y1="615.6" y2="615.6"/><line style="stroke:#181818;stroke-width:0.3;" x1="439.8" x2="539.4" y1="620.4" y2="620.4"/><ellipse cx="445.8" cy="629.2863" fill="#84BE84" rx="1.8" ry="1.8" style="stroke:#038048;stroke-width:0.6;"/><text fill="#000000" font-family="sans-serif" font-size="8.4" lengthAdjust="spacing" textLength="68.4" x="451.2" y="631.8645">findByCode(code)</text></g><!--class Exam--><g id="elem_Exam"><rect codeLine="62" fill="#F1F1F1" height="118.1812" id="Exam" rx="1.5" ry="1.5" style="stroke:#181818;stroke-width:0.3;" width="57" x="708.9" y="366"/><ellipse cx="725.73" cy="375.6" fill="#ADD1B2" rx="6.6" ry="6.6" style="stroke:#181818;stroke-width:0.6;"/><path d="M727.3894,373.125 Q727.4831,372.9938 727.5956,372.9281 Q727.7081,372.8625 727.8394,372.8625 Q728.0644,372.8625 728.205,373.0219 Q728.3456,373.1719 728.3456,373.5375 L728.3456,374.4094 Q728.3456,374.775 728.205,374.9344 Q728.0644,375.0938 727.8394,375.0938 Q727.6331,375.0938 727.5112,374.9719 Q727.3894,374.8594 727.3237,374.55 Q727.2956,374.3344 727.1831,374.2219 Q726.9862,373.9969 726.6206,373.8656 Q726.255,373.7344 725.88,373.7344 Q725.4206,373.7344 725.0363,373.9313 Q724.6613,374.1281 724.3612,374.5781 Q724.0706,375.0281 724.0706,375.6469 L724.0706,376.3031 Q724.0706,377.0438 724.605,377.5406 Q725.1394,378.0281 726.0956,378.0281 Q726.6581,378.0281 727.0519,377.8781 Q727.2863,377.7844 727.5394,377.5219 Q727.6987,377.3625 727.7831,377.3156 Q727.8769,377.2688 727.9988,377.2688 Q728.1956,377.2688 728.3456,377.4281 Q728.505,377.5781 728.505,377.7844 Q728.505,377.9906 728.2987,378.2344 Q727.9988,378.5813 727.5206,378.7781 Q726.8738,379.05 726.0956,379.05 Q725.1863,379.05 724.4644,378.675 Q723.8738,378.375 723.4613,377.7375 Q723.0487,377.0906 723.0487,376.3219 L723.0487,375.6281 Q723.0487,374.8313 723.4144,374.1469 Q723.7894,373.4531 724.4456,373.0875 Q725.1019,372.7125 725.8425,372.7125 Q726.2831,372.7125 726.6675,372.8156 Q727.0613,372.9094 727.3894,373.125 Z " fill="#000000"/><text fill="#000000" font-family="sans-serif" font-size="8.4" lengthAdjust="spacing" textLength="20.4" x="735.87" y="379.0781">Exam</text><line style="stroke:#181818;stroke-width:0.3;" x1="709.5" x2="765.3" y1="385.2" y2="385.2"/><rect fill="none" height="3.6" style="stroke:#C82930;stroke-width:0.6;" width="3.6" x="713.7" y="392.2863"/><text fill="#000000" font-family="sans-serif" font-size="8.4" lengthAdjust="spacing" textLength="18.6" x="720.9" y="396.6645">code</text><rect fill="none" height="3.6" style="stroke:#C82930;stroke-width:0.6;" width="3.6" x="713.7" y="403.459"/><text fill="#000000" font-family="sans-serif" font-size="8.4" lengthAdjust="spacing" textLength="25.8" x="720.9" y="407.8371">course</text><rect fill="none" height="3.6" style="stroke:#C82930;stroke-width:0.6;" width="3.6" x="713.7" y="414.6316"/><text fill="#000000" font-family="sans-serif" font-size="8.4" lengthAdjust="spacing" textLength="28.8" x="720.9" y="419.0098">teacher</text><rect fill="none" height="3.6" style="stroke:#C82930;stroke-width:0.6;" width="3.6" x="713.7" y="425.8043"/><text fill="#000000" font-family="sans-serif" font-size="8.4" lengthAdjust="spacing" textLength="32.4" x="720.9" y="430.1824">identifier</text><rect fill="none" height="3.6" style="stroke:#C82930;stroke-width:0.6;" width="3.6" x="713.7" y="436.977"/><text fill="#000000" font-family="sans-serif" font-size="8.4" lengthAdjust="spacing" textLength="13.2" x="720.9" y="441.3551">title</text><rect fill="none" height="3.6" style="stroke:#C82930;stroke-width:0.6;" width="3.6" x="713.7" y="448.1496"/><text fill="#000000" font-family="sans-serif" font-size="8.4" lengthAdjust="spacing" textLength="41.4" x="720.9" y="452.5277">description</text><rect fill="none" height="3.6" style="stroke:#C82930;stroke-width:0.6;" width="3.6" x="713.7" y="459.3223"/><text fill="#000000" font-family="sans-serif" font-size="8.4" lengthAdjust="spacing" textLength="18.6" x="720.9" y="463.7004">state</text><line style="stroke:#181818;stroke-width:0.3;" x1="709.5" x2="765.3" y1="468.2086" y2="468.2086"/><ellipse cx="715.5" cy="477.0949" fill="#84BE84" rx="1.8" ry="1.8" style="stroke:#038048;stroke-width:0.6;"/><text fill="#000000" font-family="sans-serif" font-size="8.4" lengthAdjust="spacing" textLength="26.4" x="720.9" y="479.673">toDto()</text></g><!--class ExamDTO--><g id="elem_ExamDTO"><rect codeLine="73" fill="#F1F1F1" height="107.0086" id="ExamDTO" rx="1.5" ry="1.5" style="stroke:#181818;stroke-width:0.3;" width="57.6" x="787.2" y="371.7"/><ellipse cx="796.2" cy="381.3" fill="#ADD1B2" rx="6.6" ry="6.6" style="stroke:#181818;stroke-width:0.6;"/><path d="M797.8594,378.825 Q797.9531,378.6937 798.0656,378.6281 Q798.1781,378.5625 798.3094,378.5625 Q798.5344,378.5625 798.675,378.7219 Q798.8156,378.8719 798.8156,379.2375 L798.8156,380.1094 Q798.8156,380.475 798.675,380.6344 Q798.5344,380.7938 798.3094,380.7938 Q798.1031,380.7938 797.9812,380.6719 Q797.8594,380.5594 797.7937,380.25 Q797.7656,380.0344 797.6531,379.9219 Q797.4563,379.6969 797.0906,379.5656 Q796.725,379.4344 796.35,379.4344 Q795.8906,379.4344 795.5063,379.6312 Q795.1313,379.8281 794.8313,380.2781 Q794.5406,380.7281 794.5406,381.3469 L794.5406,382.0031 Q794.5406,382.7438 795.075,383.2406 Q795.6094,383.7281 796.5656,383.7281 Q797.1281,383.7281 797.5219,383.5781 Q797.7563,383.4844 798.0094,383.2219 Q798.1687,383.0625 798.2531,383.0156 Q798.3469,382.9688 798.4688,382.9688 Q798.6656,382.9688 798.8156,383.1281 Q798.975,383.2781 798.975,383.4844 Q798.975,383.6906 798.7688,383.9344 Q798.4688,384.2813 797.9906,384.4781 Q797.3438,384.75 796.5656,384.75 Q795.6563,384.75 794.9344,384.375 Q794.3438,384.075 793.9313,383.4375 Q793.5188,382.7906 793.5188,382.0219 L793.5188,381.3281 Q793.5188,380.5313 793.8844,379.8469 Q794.2594,379.1531 794.9156,378.7875 Q795.5719,378.4125 796.3125,378.4125 Q796.7531,378.4125 797.1375,378.5156 Q797.5313,378.6094 797.8594,378.825 Z " fill="#000000"/><text fill="#000000" font-family="sans-serif" font-size="8.4" lengthAdjust="spacing" textLength="38.4" x="804.6" y="384.7781">ExamDTO</text><line style="stroke:#181818;stroke-width:0.3;" x1="787.8" x2="844.2" y1="390.9" y2="390.9"/><rect fill="none" height="3.6" style="stroke:#C82930;stroke-width:0.6;" width="3.6" x="792" y="397.9863"/><text fill="#000000" font-family="sans-serif" font-size="8.4" lengthAdjust="spacing" textLength="18.6" x="799.2" y="402.3645">code</text><rect fill="none" height="3.6" style="stroke:#C82930;stroke-width:0.6;" width="3.6" x="792" y="409.159"/><text fill="#000000" font-family="sans-serif" font-size="8.4" lengthAdjust="spacing" textLength="25.8" x="799.2" y="413.5371">course</text><rect fill="none" height="3.6" style="stroke:#C82930;stroke-width:0.6;" width="3.6" x="792" y="420.3316"/><text fill="#000000" font-family="sans-serif" font-size="8.4" lengthAdjust="spacing" textLength="28.8" x="799.2" y="424.7098">teacher</text><rect fill="none" height="3.6" style="stroke:#C82930;stroke-width:0.6;" width="3.6" x="792" y="431.5043"/><text fill="#000000" font-family="sans-serif" font-size="8.4" lengthAdjust="spacing" textLength="32.4" x="799.2" y="435.8824">identifier</text><rect fill="none" height="3.6" style="stroke:#C82930;stroke-width:0.6;" width="3.6" x="792" y="442.677"/><text fill="#000000" font-family="sans-serif" font-size="8.4" lengthAdjust="spacing" textLength="13.2" x="799.2" y="447.0551">title</text><rect fill="none" height="3.6" style="stroke:#C82930;stroke-width:0.6;" width="3.6" x="792" y="453.8496"/><text fill="#000000" font-family="sans-serif" font-size="8.4" lengthAdjust="spacing" textLength="41.4" x="799.2" y="458.2277">description</text><rect fill="none" height="3.6" style="stroke:#C82930;stroke-width:0.6;" width="3.6" x="792" y="465.0223"/><text fill="#000000" font-family="sans-serif" font-size="8.4" lengthAdjust="spacing" textLength="18.6" x="799.2" y="469.4004">state</text><line style="stroke:#181818;stroke-width:0.3;" x1="787.8" x2="844.2" y1="473.9086" y2="473.9086"/></g><!--class ExamListService--><g id="elem_ExamListService"><rect codeLine="83" fill="#F1F1F1" height="51.1453" id="ExamListService" rx="1.5" ry="1.5" style="stroke:#181818;stroke-width:0.3;" width="144" x="666" y="245.4"/><ellipse cx="704.55" cy="255" fill="#ADD1B2" rx="6.6" ry="6.6" style="stroke:#181818;stroke-width:0.6;"/><path d="M706.2094,252.525 Q706.3031,252.3937 706.4156,252.3281 Q706.5281,252.2625 706.6594,252.2625 Q706.8844,252.2625 707.025,252.4219 Q707.1656,252.5719 707.1656,252.9375 L707.1656,253.8094 Q707.1656,254.175 707.025,254.3344 Q706.8844,254.4937 706.6594,254.4937 Q706.4531,254.4937 706.3313,254.3719 Q706.2094,254.2594 706.1438,253.95 Q706.1156,253.7344 706.0031,253.6219 Q705.8063,253.3969 705.4406,253.2656 Q705.075,253.1344 704.7,253.1344 Q704.2406,253.1344 703.8562,253.3312 Q703.4812,253.5281 703.1813,253.9781 Q702.8906,254.4281 702.8906,255.0469 L702.8906,255.7031 Q702.8906,256.4437 703.425,256.9406 Q703.9594,257.4281 704.9156,257.4281 Q705.4781,257.4281 705.8719,257.2781 Q706.1062,257.1844 706.3594,256.9219 Q706.5188,256.7625 706.6031,256.7156 Q706.6969,256.6688 706.8188,256.6688 Q707.0156,256.6688 707.1656,256.8281 Q707.325,256.9781 707.325,257.1844 Q707.325,257.3906 707.1188,257.6344 Q706.8188,257.9813 706.3406,258.1781 Q705.6938,258.45 704.9156,258.45 Q704.0063,258.45 703.2844,258.075 Q702.6938,257.775 702.2813,257.1375 Q701.8688,256.4906 701.8688,255.7219 L701.8688,255.0281 Q701.8688,254.2313 702.2344,253.5469 Q702.6094,252.8531 703.2656,252.4875 Q703.9219,252.1125 704.6625,252.1125 Q705.1031,252.1125 705.4875,252.2156 Q705.8813,252.3094 706.2094,252.525 Z " fill="#000000"/><text fill="#000000" font-family="sans-serif" font-size="8.4" lengthAdjust="spacing" textLength="61.8" x="716.85" y="258.4781">ExamListService</text><line style="stroke:#181818;stroke-width:0.3;" x1="666.6" x2="809.4" y1="264.6" y2="264.6"/><rect fill="none" height="3.6" style="stroke:#C82930;stroke-width:0.6;" width="3.6" x="670.8" y="271.6863"/><text fill="#000000" font-family="sans-serif" font-size="8.4" lengthAdjust="spacing" textLength="60.6" x="678" y="276.0645">examRepository</text><line style="stroke:#181818;stroke-width:0.3;" x1="666.6" x2="809.4" y1="280.5727" y2="280.5727"/><ellipse cx="672.6" cy="289.459" fill="#84BE84" rx="1.8" ry="1.8" style="stroke:#038048;stroke-width:0.6;"/><text fill="#000000" font-family="sans-serif" font-size="8.4" lengthAdjust="spacing" textLength="128.4" x="678" y="292.0371">listAllFutureCourseExams(course)</text></g><!--class ExamRepository--><g id="elem_ExamRepository"><rect codeLine="88" fill="#F1F1F1" height="39.9727" id="ExamRepository" rx="1.5" ry="1.5" style="stroke:#181818;stroke-width:0.3;" width="147.6" x="560.4" y="520.2"/><ellipse cx="601.05" cy="529.8" fill="#B4A7E5" rx="6.6" ry="6.6" style="stroke:#181818;stroke-width:0.6;"/><path d="M601.6219,527.7844 L601.6219,531.7781 L602.6531,531.7781 Q603.0188,531.7781 603.1781,531.9187 Q603.3375,532.0594 603.3375,532.2937 Q603.3375,532.5188 603.1781,532.6594 Q603.0188,532.8 602.6531,532.8 L599.5688,532.8 Q599.2031,532.8 599.0437,532.6594 Q598.8844,532.5188 598.8844,532.2844 Q598.8844,532.0594 599.0437,531.9187 Q599.2031,531.7781 599.5688,531.7781 L600.6,531.7781 L600.6,527.7844 L599.5688,527.7844 Q599.2031,527.7844 599.0437,527.6438 Q598.8844,527.5031 598.8844,527.2688 Q598.8844,527.0437 599.0437,526.9031 Q599.2031,526.7625 599.5688,526.7625 L602.6531,526.7625 Q603.0188,526.7625 603.1781,526.9031 Q603.3375,527.0437 603.3375,527.2688 Q603.3375,527.5031 603.1781,527.6438 Q603.0188,527.7844 602.6531,527.7844 L601.6219,527.7844 Z " fill="#000000"/><text fill="#000000" font-family="sans-serif" font-size="8.4" font-style="italic" lengthAdjust="spacing" textLength="61.2" x="613.35" y="533.2781">ExamRepository</text><line style="stroke:#181818;stroke-width:0.3;" x1="561" x2="707.4" y1="539.4" y2="539.4"/><line style="stroke:#181818;stroke-width:0.3;" x1="561" x2="707.4" y1="544.2" y2="544.2"/><ellipse cx="567" cy="553.0863" fill="#84BE84" rx="1.8" ry="1.8" style="stroke:#038048;stroke-width:0.6;"/><text fill="#000000" font-family="sans-serif" font-size="8.4" lengthAdjust="spacing" textLength="132" x="572.4" y="555.6645">findAllFutureCourseExams(course)</text></g><!--class InMemoryExamRepository--><g id="elem_InMemoryExamRepository"><rect codeLine="93" fill="#F1F1F1" height="39.9727" id="InMemoryExamRepository" rx="1.5" ry="1.5" style="stroke:#181818;stroke-width:0.3;" width="139.2" x="561" y="596.4"/><ellipse cx="579.99" cy="606" fill="#ADD1B2" rx="6.6" ry="6.6" style="stroke:#181818;stroke-width:0.6;"/><path d="M581.6494,603.525 Q581.7431,603.3938 581.8556,603.3281 Q581.9681,603.2625 582.0994,603.2625 Q582.3244,603.2625 582.465,603.4219 Q582.6056,603.5719 582.6056,603.9375 L582.6056,604.8094 Q582.6056,605.175 582.465,605.3344 Q582.3244,605.4938 582.0994,605.4938 Q581.8931,605.4938 581.7713,605.3719 Q581.6494,605.2594 581.5838,604.95 Q581.5556,604.7344 581.4431,604.6219 Q581.2462,604.3969 580.8806,604.2656 Q580.515,604.1344 580.14,604.1344 Q579.6806,604.1344 579.2963,604.3313 Q578.9213,604.5281 578.6212,604.9781 Q578.3306,605.4281 578.3306,606.0469 L578.3306,606.7031 Q578.3306,607.4438 578.865,607.9406 Q579.3994,608.4281 580.3556,608.4281 Q580.9181,608.4281 581.3119,608.2781 Q581.5463,608.1844 581.7994,607.9219 Q581.9588,607.7625 582.0431,607.7156 Q582.1369,607.6687 582.2588,607.6687 Q582.4556,607.6687 582.6056,607.8281 Q582.765,607.9781 582.765,608.1844 Q582.765,608.3906 582.5587,608.6344 Q582.2588,608.9812 581.7806,609.1781 Q581.1338,609.45 580.3556,609.45 Q579.4463,609.45 578.7244,609.075 Q578.1338,608.775 577.7212,608.1375 Q577.3087,607.4906 577.3087,606.7219 L577.3087,606.0281 Q577.3087,605.2312 577.6744,604.5469 Q578.0494,603.8531 578.7056,603.4875 Q579.3619,603.1125 580.1025,603.1125 Q580.5431,603.1125 580.9275,603.2156 Q581.3213,603.3094 581.6494,603.525 Z " fill="#000000"/><text fill="#000000" font-family="sans-serif" font-size="8.4" lengthAdjust="spacing" textLength="97.8" x="590.61" y="609.4781">InMemoryExamRepository</text><line style="stroke:#181818;stroke-width:0.3;" x1="561.6" x2="699.6" y1="615.6" y2="615.6"/><line style="stroke:#181818;stroke-width:0.3;" x1="561.6" x2="699.6" y1="620.4" y2="620.4"/><text fill="#000000" font-family="sans-serif" font-size="8.4" lengthAdjust="spacing" textLength="132" x="564.6" y="631.8645">findAllFutureCourseExams(course)</text></g><!--class JpaExamRepository--><g id="elem_JpaExamRepository"><rect codeLine="97" fill="#F1F1F1" height="39.9727" id="JpaExamRepository" rx="1.5" ry="1.5" style="stroke:#181818;stroke-width:0.3;" width="139.2" x="721.2" y="596.4"/><ellipse cx="751.05" cy="606" fill="#ADD1B2" rx="6.6" ry="6.6" style="stroke:#181818;stroke-width:0.6;"/><path d="M752.7094,603.525 Q752.8031,603.3938 752.9156,603.3281 Q753.0281,603.2625 753.1594,603.2625 Q753.3844,603.2625 753.525,603.4219 Q753.6656,603.5719 753.6656,603.9375 L753.6656,604.8094 Q753.6656,605.175 753.525,605.3344 Q753.3844,605.4938 753.1594,605.4938 Q752.9531,605.4938 752.8313,605.3719 Q752.7094,605.2594 752.6438,604.95 Q752.6156,604.7344 752.5031,604.6219 Q752.3063,604.3969 751.9406,604.2656 Q751.575,604.1344 751.2,604.1344 Q750.7406,604.1344 750.3562,604.3313 Q749.9812,604.5281 749.6813,604.9781 Q749.3906,605.4281 749.3906,606.0469 L749.3906,606.7031 Q749.3906,607.4438 749.925,607.9406 Q750.4594,608.4281 751.4156,608.4281 Q751.9781,608.4281 752.3719,608.2781 Q752.6062,608.1844 752.8594,607.9219 Q753.0188,607.7625 753.1031,607.7156 Q753.1969,607.6687 753.3188,607.6687 Q753.5156,607.6687 753.6656,607.8281 Q753.825,607.9781 753.825,608.1844 Q753.825,608.3906 753.6188,608.6344 Q753.3188,608.9812 752.8406,609.1781 Q752.1938,609.45 751.4156,609.45 Q750.5063,609.45 749.7844,609.075 Q749.1938,608.775 748.7813,608.1375 Q748.3688,607.4906 748.3688,606.7219 L748.3688,606.0281 Q748.3688,605.2312 748.7344,604.5469 Q749.1094,603.8531 749.7656,603.4875 Q750.4219,603.1125 751.1625,603.1125 Q751.6031,603.1125 751.9875,603.2156 Q752.3813,603.3094 752.7094,603.525 Z " fill="#000000"/><text fill="#000000" font-family="sans-serif" font-size="8.4" lengthAdjust="spacing" textLength="74.4" x="763.35" y="609.4781">JpaExamRepository</text><line style="stroke:#181818;stroke-width:0.3;" x1="721.8" x2="859.8" y1="615.6" y2="615.6"/><line style="stroke:#181818;stroke-width:0.3;" x1="721.8" x2="859.8" y1="620.4" y2="620.4"/><text fill="#000000" font-family="sans-serif" font-size="8.4" lengthAdjust="spacing" textLength="132" x="724.8" y="631.8645">findAllFutureCourseExams(course)</text></g><!--class RepositoryFactory--><g id="elem_RepositoryFactory"><rect codeLine="102" fill="#F1F1F1" height="39.9727" id="RepositoryFactory" rx="1.5" ry="1.5" style="stroke:#181818;stroke-width:0.3;" width="91.2" x="510.6" y="405"/><ellipse cx="520.68" cy="414.6" fill="#ADD1B2" rx="6.6" ry="6.6" style="stroke:#181818;stroke-width:0.6;"/><path d="M522.3394,412.125 Q522.4331,411.9938 522.5456,411.9281 Q522.6581,411.8625 522.7894,411.8625 Q523.0144,411.8625 523.155,412.0219 Q523.2956,412.1719 523.2956,412.5375 L523.2956,413.4094 Q523.2956,413.775 523.155,413.9344 Q523.0144,414.0938 522.7894,414.0938 Q522.5831,414.0938 522.4613,413.9719 Q522.3394,413.8594 522.2738,413.55 Q522.2456,413.3344 522.1331,413.2219 Q521.9363,412.9969 521.5706,412.8656 Q521.205,412.7344 520.83,412.7344 Q520.3706,412.7344 519.9862,412.9313 Q519.6112,413.1281 519.3113,413.5781 Q519.0206,414.0281 519.0206,414.6469 L519.0206,415.3031 Q519.0206,416.0438 519.555,416.5406 Q520.0894,417.0281 521.0456,417.0281 Q521.6081,417.0281 522.0019,416.8781 Q522.2362,416.7844 522.4894,416.5219 Q522.6488,416.3625 522.7331,416.3156 Q522.8269,416.2688 522.9487,416.2688 Q523.1456,416.2688 523.2956,416.4281 Q523.455,416.5781 523.455,416.7844 Q523.455,416.9906 523.2488,417.2344 Q522.9487,417.5813 522.4706,417.7781 Q521.8237,418.05 521.0456,418.05 Q520.1362,418.05 519.4144,417.675 Q518.8237,417.375 518.4113,416.7375 Q517.9988,416.0906 517.9988,415.3219 L517.9988,414.6281 Q517.9988,413.8313 518.3644,413.1469 Q518.7394,412.4531 519.3956,412.0875 Q520.0519,411.7125 520.7925,411.7125 Q521.2331,411.7125 521.6175,411.8156 Q522.0112,411.9094 522.3394,412.125 Z " fill="#000000"/><text fill="#000000" font-family="sans-serif" font-size="8.4" lengthAdjust="spacing" textLength="69.6" x="529.32" y="418.0781">RepositoryFactory</text><line style="stroke:#181818;stroke-width:0.3;" x1="511.2" x2="601.2" y1="424.2" y2="424.2"/><line style="stroke:#181818;stroke-width:0.3;" x1="511.2" x2="601.2" y1="429" y2="429"/><ellipse cx="517.2" cy="437.8863" fill="#84BE84" rx="1.8" ry="1.8" style="stroke:#038048;stroke-width:0.6;"/><text fill="#000000" font-family="sans-serif" font-size="8.4" lengthAdjust="spacing" textLength="75.6" x="522.6" y="440.4645">RepositoryFactory()</text></g><!--class PersistenceContext--><g id="elem_PersistenceContext"><rect codeLine="107" fill="#F1F1F1" height="39.9727" id="PersistenceContext" rx="1.5" ry="1.5" style="stroke:#181818;stroke-width:0.3;" width="92.4" x="510" y="250.8"/><ellipse cx="519" cy="260.4" fill="#ADD1B2" rx="6.6" ry="6.6" style="stroke:#181818;stroke-width:0.6;"/><path d="M520.6594,257.925 Q520.7531,257.7938 520.8656,257.7281 Q520.9781,257.6625 521.1094,257.6625 Q521.3344,257.6625 521.475,257.8219 Q521.6156,257.9719 521.6156,258.3375 L521.6156,259.2094 Q521.6156,259.575 521.475,259.7344 Q521.3344,259.8938 521.1094,259.8938 Q520.9031,259.8938 520.7813,259.7719 Q520.6594,259.6594 520.5938,259.35 Q520.5656,259.1344 520.4531,259.0219 Q520.2563,258.7969 519.8906,258.6656 Q519.525,258.5344 519.15,258.5344 Q518.6906,258.5344 518.3063,258.7313 Q517.9313,258.9281 517.6313,259.3781 Q517.3406,259.8281 517.3406,260.4469 L517.3406,261.1031 Q517.3406,261.8438 517.875,262.3406 Q518.4094,262.8281 519.3656,262.8281 Q519.9281,262.8281 520.3219,262.6781 Q520.5563,262.5844 520.8094,262.3219 Q520.9688,262.1625 521.0531,262.1156 Q521.1469,262.0687 521.2688,262.0687 Q521.4656,262.0687 521.6156,262.2281 Q521.775,262.3781 521.775,262.5844 Q521.775,262.7906 521.5688,263.0344 Q521.2688,263.3812 520.7906,263.5781 Q520.1438,263.85 519.3656,263.85 Q518.4563,263.85 517.7344,263.475 Q517.1438,263.175 516.7312,262.5375 Q516.3188,261.8906 516.3188,261.1219 L516.3188,260.4281 Q516.3188,259.6312 516.6844,258.9469 Q517.0594,258.2531 517.7156,257.8875 Q518.3719,257.5125 519.1125,257.5125 Q519.5531,257.5125 519.9375,257.6156 Q520.3313,257.7094 520.6594,257.925 Z " fill="#000000"/><text fill="#000000" font-family="sans-serif" font-size="8.4" lengthAdjust="spacing" textLength="73.2" x="527.4" y="263.8781">PersistenceContext</text><line style="stroke:#181818;stroke-width:0.3;" x1="510.6" x2="601.8" y1="270" y2="270"/><line style="stroke:#181818;stroke-width:0.3;" x1="510.6" x2="601.8" y1="274.8" y2="274.8"/><rect fill="#F24D5C" height="3.6" style="stroke:#C82930;stroke-width:0.6;" width="3.6" x="514.8" y="281.8863"/><text fill="#000000" font-family="sans-serif" font-size="8.4" lengthAdjust="spacing" textLength="50.4" x="522" y="286.2645">repositories()</text></g><!--class EnrolmentRepository--><g id="elem_EnrolmentRepository"><rect codeLine="112" fill="#F1F1F1" height="39.9727" id="EnrolmentRepository" rx="1.5" ry="1.5" style="stroke:#181818;stroke-width:0.3;" width="198" x="831" y="520.2"/><ellipse cx="887.85" cy="529.8" fill="#B4A7E5" rx="6.6" ry="6.6" style="stroke:#181818;stroke-width:0.6;"/><path d="M888.4219,527.7844 L888.4219,531.7781 L889.4531,531.7781 Q889.8188,531.7781 889.9781,531.9187 Q890.1375,532.0594 890.1375,532.2937 Q890.1375,532.5188 889.9781,532.6594 Q889.8188,532.8 889.4531,532.8 L886.3688,532.8 Q886.0031,532.8 885.8438,532.6594 Q885.6844,532.5188 885.6844,532.2844 Q885.6844,532.0594 885.8438,531.9187 Q886.0031,531.7781 886.3688,531.7781 L887.4,531.7781 L887.4,527.7844 L886.3688,527.7844 Q886.0031,527.7844 885.8438,527.6438 Q885.6844,527.5031 885.6844,527.2688 Q885.6844,527.0437 885.8438,526.9031 Q886.0031,526.7625 886.3688,526.7625 L889.4531,526.7625 Q889.8188,526.7625 889.9781,526.9031 Q890.1375,527.0437 890.1375,527.2688 Q890.1375,527.5031 889.9781,527.6438 Q889.8188,527.7844 889.4531,527.7844 L888.4219,527.7844 Z " fill="#000000"/><text fill="#000000" font-family="sans-serif" font-size="8.4" font-style="italic" lengthAdjust="spacing" textLength="79.2" x="900.15" y="533.2781">EnrolmentRepository</text><line style="stroke:#181818;stroke-width:0.3;" x1="831.6" x2="1028.4" y1="539.4" y2="539.4"/><line style="stroke:#181818;stroke-width:0.3;" x1="831.6" x2="1028.4" y1="544.2" y2="544.2"/><ellipse cx="837.6" cy="553.0863" fill="#84BE84" rx="1.8" ry="1.8" style="stroke:#038048;stroke-width:0.6;"/><text fill="#000000" font-family="sans-serif" font-size="8.4" lengthAdjust="spacing" textLength="182.4" x="843" y="555.6645">findByStudentMecanographicNumber(studentID)</text></g><!--class InMemoryEnrolmentRepository--><g id="elem_InMemoryEnrolmentRepository"><rect codeLine="116" fill="#F1F1F1" height="39.9727" id="InMemoryEnrolmentRepository" rx="1.5" ry="1.5" style="stroke:#181818;stroke-width:0.3;" width="198" x="881.4" y="596.4"/><ellipse cx="919.95" cy="606" fill="#ADD1B2" rx="6.6" ry="6.6" style="stroke:#181818;stroke-width:0.6;"/><path d="M921.6094,603.525 Q921.7031,603.3938 921.8156,603.3281 Q921.9281,603.2625 922.0594,603.2625 Q922.2844,603.2625 922.425,603.4219 Q922.5656,603.5719 922.5656,603.9375 L922.5656,604.8094 Q922.5656,605.175 922.425,605.3344 Q922.2844,605.4938 922.0594,605.4938 Q921.8531,605.4938 921.7312,605.3719 Q921.6094,605.2594 921.5437,604.95 Q921.5156,604.7344 921.4031,604.6219 Q921.2063,604.3969 920.8406,604.2656 Q920.475,604.1344 920.1,604.1344 Q919.6406,604.1344 919.2563,604.3313 Q918.8813,604.5281 918.5813,604.9781 Q918.2906,605.4281 918.2906,606.0469 L918.2906,606.7031 Q918.2906,607.4438 918.825,607.9406 Q919.3594,608.4281 920.3156,608.4281 Q920.8781,608.4281 921.2719,608.2781 Q921.5063,608.1844 921.7594,607.9219 Q921.9187,607.7625 922.0031,607.7156 Q922.0969,607.6687 922.2188,607.6687 Q922.4156,607.6687 922.5656,607.8281 Q922.725,607.9781 922.725,608.1844 Q922.725,608.3906 922.5188,608.6344 Q922.2188,608.9812 921.7406,609.1781 Q921.0938,609.45 920.3156,609.45 Q919.4063,609.45 918.6844,609.075 Q918.0938,608.775 917.6813,608.1375 Q917.2688,607.4906 917.2688,606.7219 L917.2688,606.0281 Q917.2688,605.2312 917.6344,604.5469 Q918.0094,603.8531 918.6656,603.4875 Q919.3219,603.1125 920.0625,603.1125 Q920.5031,603.1125 920.8875,603.2156 Q921.2813,603.3094 921.6094,603.525 Z " fill="#000000"/><text fill="#000000" font-family="sans-serif" font-size="8.4" lengthAdjust="spacing" textLength="115.8" x="932.25" y="609.4781">InMemoryEnrolmentRepository</text><line style="stroke:#181818;stroke-width:0.3;" x1="882" x2="1078.8" y1="615.6" y2="615.6"/><line style="stroke:#181818;stroke-width:0.3;" x1="882" x2="1078.8" y1="620.4" y2="620.4"/><ellipse cx="888" cy="629.2863" fill="#84BE84" rx="1.8" ry="1.8" style="stroke:#038048;stroke-width:0.6;"/><text fill="#000000" font-family="sans-serif" font-size="8.4" lengthAdjust="spacing" textLength="182.4" x="893.4" y="631.8645">findByStudentMecanographicNumber(studentID)</text></g><!--class JpaEnrolmentRepository--><g id="elem_JpaEnrolmentRepository"><rect codeLine="120" fill="#F1F1F1" height="39.9727" id="JpaEnrolmentRepository" rx="1.5" ry="1.5" style="stroke:#181818;stroke-width:0.3;" width="198" x="1100.4" y="596.4"/><ellipse cx="1150.65" cy="606" fill="#ADD1B2" rx="6.6" ry="6.6" style="stroke:#181818;stroke-width:0.6;"/><path d="M1152.3094,603.525 Q1152.4031,603.3938 1152.5156,603.3281 Q1152.6281,603.2625 1152.7594,603.2625 Q1152.9844,603.2625 1153.125,603.4219 Q1153.2656,603.5719 1153.2656,603.9375 L1153.2656,604.8094 Q1153.2656,605.175 1153.125,605.3344 Q1152.9844,605.4938 1152.7594,605.4938 Q1152.5531,605.4938 1152.4312,605.3719 Q1152.3094,605.2594 1152.2437,604.95 Q1152.2156,604.7344 1152.1031,604.6219 Q1151.9063,604.3969 1151.5406,604.2656 Q1151.175,604.1344 1150.8,604.1344 Q1150.3406,604.1344 1149.9563,604.3313 Q1149.5813,604.5281 1149.2813,604.9781 Q1148.9906,605.4281 1148.9906,606.0469 L1148.9906,606.7031 Q1148.9906,607.4438 1149.525,607.9406 Q1150.0594,608.4281 1151.0156,608.4281 Q1151.5781,608.4281 1151.9719,608.2781 Q1152.2063,608.1844 1152.4594,607.9219 Q1152.6187,607.7625 1152.7031,607.7156 Q1152.7969,607.6687 1152.9188,607.6687 Q1153.1156,607.6687 1153.2656,607.8281 Q1153.425,607.9781 1153.425,608.1844 Q1153.425,608.3906 1153.2188,608.6344 Q1152.9188,608.9812 1152.4406,609.1781 Q1151.7938,609.45 1151.0156,609.45 Q1150.1063,609.45 1149.3844,609.075 Q1148.7938,608.775 1148.3813,608.1375 Q1147.9688,607.4906 1147.9688,606.7219 L1147.9688,606.0281 Q1147.9688,605.2312 1148.3344,604.5469 Q1148.7094,603.8531 1149.3656,603.4875 Q1150.0219,603.1125 1150.7625,603.1125 Q1151.2031,603.1125 1151.5875,603.2156 Q1151.9813,603.3094 1152.3094,603.525 Z " fill="#000000"/><text fill="#000000" font-family="sans-serif" font-size="8.4" lengthAdjust="spacing" textLength="92.4" x="1162.95" y="609.4781">JpaEnrolmentRepository</text><line style="stroke:#181818;stroke-width:0.3;" x1="1101" x2="1297.8" y1="615.6" y2="615.6"/><line style="stroke:#181818;stroke-width:0.3;" x1="1101" x2="1297.8" y1="620.4" y2="620.4"/><ellipse cx="1107" cy="629.2863" fill="#84BE84" rx="1.8" ry="1.8" style="stroke:#038048;stroke-width:0.6;"/><text fill="#000000" font-family="sans-serif" font-size="8.4" lengthAdjust="spacing" textLength="182.4" x="1112.4" y="631.8645">findByStudentMecanographicNumber(studentID)</text></g><!--link PersistenceContext to RepositoryFactory--><g id="link_PersistenceContext_RepositoryFactory"><path codeLine="126" d="M556.2,291.03 C556.2,319.386 556.2,371.814 556.2,401.832 " fill="none" id="PersistenceContext-to-RepositoryFactory" style="stroke:#181818;stroke-width:0.6;stroke-dasharray:7.0,7.0;"/><polygon fill="#181818" points="556.2,404.844,558.6,399.444,556.2,401.844,553.8,399.444,556.2,404.844" style="stroke:#181818;stroke-width:0.6;"/></g><!--link RepositoryFactory to CourseRepository--><g id="link_RepositoryFactory_CourseRepository"><path codeLine="128" d="M544.032,445.296 C531.582,465.342 512.268,496.434 499.248,517.404 " fill="none" id="RepositoryFactory-to-CourseRepository" style="stroke:#181818;stroke-width:0.6;"/><polygon fill="#181818" points="497.532,520.17,502.4161,516.8435,499.112,517.6198,498.3357,514.3156,497.532,520.17" style="stroke:#181818;stroke-width:0.6;"/></g><!--link RepositoryFactory to ExamRepository--><g id="link_RepositoryFactory_ExamRepository"><path codeLine="129" d="M569.61,445.296 C583.38,465.426 604.77,496.686 619.122,517.662 " fill="none" id="RepositoryFactory-to-ExamRepository" style="stroke:#181818;stroke-width:0.6;"/><polygon fill="#181818" points="620.838,520.17,619.7658,514.3588,619.1424,517.6951,615.806,517.0717,620.838,520.17" style="stroke:#181818;stroke-width:0.6;"/></g><!--link RepositoryFactory to StudentRepository--><g id="link_RepositoryFactory_StudentRepository"><path codeLine="130" d="M510.864,445.23 C463.224,465.756 388.578,497.916 339.87,518.904 " fill="none" id="RepositoryFactory-to-StudentRepository" style="stroke:#181818;stroke-width:0.6;"/><polygon fill="#181818" points="336.99,520.146,342.8988,520.2248,339.7474,518.9642,341.008,515.8129,336.99,520.146" style="stroke:#181818;stroke-width:0.6;"/></g><!--link RepositoryFactory to EnrolmentRepository--><g id="link_RepositoryFactory_EnrolmentRepository"><path codeLine="131" d="M598.8,445.26 C626.718,457.566 664.236,473.154 698.4,484.2 C741.24,498.054 789.534,510.162 830.892,519.504 " fill="none" id="RepositoryFactory-to-EnrolmentRepository" style="stroke:#181818;stroke-width:0.6;"/><polygon fill="#181818" points="833.862,520.17,829.1134,516.6528,830.9338,519.5174,828.0692,521.3378,833.862,520.17" style="stroke:#181818;stroke-width:0.6;"/></g><!--reverse link CourseRepository to InMemoryCourseRepository--><g id="link_CourseRepository_InMemoryCourseRepository"><path codeLine="133" d="M441.216,566.472 C424.32,576.246 405.342,587.232 389.568,596.358 " fill="none" id="CourseRepository-backto-InMemoryCourseRepository" style="stroke:#181818;stroke-width:0.6;stroke-dasharray:7.0,7.0;"/><polygon fill="none" points="439.2,562.782,451.686,560.412,443.406,570.054,439.2,562.782" style="stroke:#181818;stroke-width:0.6;"/></g><!--reverse link CourseRepository to JpaCourseRepository--><g id="link_CourseRepository_JpaCourseRepository"><path codeLine="134" d="M487.17,572.52 C487.62,580.566 488.094,588.978 488.496,596.226 " fill="none" id="CourseRepository-backto-JpaCourseRepository" style="stroke:#181818;stroke-width:0.6;stroke-dasharray:7.0,7.0;"/><polygon fill="none" points="482.97,572.628,486.492,560.412,491.358,572.154,482.97,572.628" style="stroke:#181818;stroke-width:0.6;"/></g><!--reverse link ExamRepository to InMemoryExamRepository--><g id="link_ExamRepository_InMemoryExamRepository"><path codeLine="135" d="M632.682,572.52 C632.298,580.566 631.89,588.978 631.542,596.226 " fill="none" id="ExamRepository-backto-InMemoryExamRepository" style="stroke:#181818;stroke-width:0.6;stroke-dasharray:7.0,7.0;"/><polygon fill="none" points="628.494,572.196,633.264,560.412,636.882,572.598,628.494,572.196" style="stroke:#181818;stroke-width:0.6;"/></g><!--reverse link ExamRepository to JpaExamRepository--><g id="link_ExamRepository_JpaExamRepository"><path codeLine="136" d="M685.854,565.638 C706.698,575.622 730.398,586.974 749.994,596.358 " fill="none" id="ExamRepository-backto-JpaExamRepository" style="stroke:#181818;stroke-width:0.6;stroke-dasharray:7.0,7.0;"/><polygon fill="none" points="683.946,569.382,674.934,560.412,687.57,561.804,683.946,569.382" style="stroke:#181818;stroke-width:0.6;"/></g><!--reverse link StudentRepository to InMemoryStudentRepository--><g id="link_StudentRepository_InMemoryStudentRepository"><path codeLine="137" d="M221.682,564.27 C190.86,574.572 155.046,586.542 125.67,596.358 " fill="none" id="StudentRepository-backto-InMemoryStudentRepository" style="stroke:#181818;stroke-width:0.6;stroke-dasharray:7.0,7.0;"/><polygon fill="none" points="220.512,560.232,233.226,560.412,223.176,568.194,220.512,560.232" style="stroke:#181818;stroke-width:0.6;"/></g><!--reverse link StudentRepository to JpaStudentRepository--><g id="link_StudentRepository_JpaStudentRepository"><path codeLine="138" d="M261.894,568.818 C252.198,577.932 241.644,587.856 232.734,596.226 " fill="none" id="StudentRepository-backto-JpaStudentRepository" style="stroke:#181818;stroke-width:0.6;stroke-dasharray:7.0,7.0;"/><polygon fill="none" points="259.224,565.566,270.84,560.412,264.972,571.686,259.224,565.566" style="stroke:#181818;stroke-width:0.6;"/></g><!--reverse link EnrolmentRepository to InMemoryEnrolmentRepository--><g id="link_EnrolmentRepository_InMemoryEnrolmentRepository"><path codeLine="139" d="M949.902,570.522 C955.704,579.156 961.902,588.372 967.182,596.226 " fill="none" id="EnrolmentRepository-backto-InMemoryEnrolmentRepository" style="stroke:#181818;stroke-width:0.6;stroke-dasharray:7.0,7.0;"/><polygon fill="none" points="946.32,572.712,943.11,560.412,953.292,568.026,946.32,572.712" style="stroke:#181818;stroke-width:0.6;"/></g><!--reverse link EnrolmentRepository to JpaEnrolmentRepository--><g id="link_EnrolmentRepository_JpaEnrolmentRepository"><path codeLine="140" d="M1011.744,563.658 C1049.238,574.098 1093.236,586.344 1129.206,596.358 " fill="none" id="EnrolmentRepository-backto-JpaEnrolmentRepository" style="stroke:#181818;stroke-width:0.6;stroke-dasharray:7.0,7.0;"/><polygon fill="none" points="1010.514,567.672,1000.08,560.412,1012.764,559.584,1010.514,567.672" style="stroke:#181818;stroke-width:0.6;"/></g><!--link ListFutureExamsController to ExamListService--><g id="link_ListFutureExamsController_ExamListService"><path codeLine="143" d="M704.574,175.968 C712.536,198.438 721.488,223.704 728.124,242.43 " fill="none" id="ListFutureExamsController-to-ExamListService" style="stroke:#181818;stroke-width:0.6;"/><polygon fill="#181818" points="729.168,245.376,729.6255,239.4844,728.1655,242.5485,725.1015,241.0884,729.168,245.376" style="stroke:#181818;stroke-width:0.6;"/></g><!--link ListFutureExamsController to Course--><g id="link_ListFutureExamsController_Course"><path codeLine="144" d="M745.674,142.974 C788.28,158.544 845.934,182.418 892.2,211.8 C896.778,214.71 901.356,217.932 905.844,221.328 " fill="none" id="ListFutureExamsController-to-Course" style="stroke:#181818;stroke-width:0.6;stroke-dasharray:7.0,7.0;"/><polygon fill="#181818" points="908.328,223.236,905.5102,218.0418,905.9498,221.4073,902.5843,221.8469,908.328,223.236" style="stroke:#181818;stroke-width:0.6;"/></g><!--link ListFutureExamsController to CourseDTO--><g id="link_ListFutureExamsController_CourseDTO"><path codeLine="145" d="M745.5,129.618 C814.956,139.35 931.272,162.072 1018.8,211.8 C1021.362,213.258 1023.894,214.848 1026.384,216.54 " fill="none" id="ListFutureExamsController-to-CourseDTO" style="stroke:#181818;stroke-width:0.6;stroke-dasharray:7.0,7.0;"/><polygon fill="#181818" points="1028.862,218.274,1025.8038,213.2176,1026.4007,216.5588,1023.0595,217.1557,1028.862,218.274" style="stroke:#181818;stroke-width:0.6;"/></g><!--link ListFutureExamsController to PersistenceContext--><g id="link_ListFutureExamsController_PersistenceContext"><path codeLine="146" d="M639.192,175.968 C617.226,200.934 592.224,229.35 575.454,248.412 " fill="none" id="ListFutureExamsController-to-PersistenceContext" style="stroke:#181818;stroke-width:0.6;stroke-dasharray:7.0,7.0;"/><polygon fill="#181818" points="573.456,250.692,578.8228,248.2186,575.4358,248.438,575.2164,245.051,573.456,250.692" style="stroke:#181818;stroke-width:0.6;"/></g><!--link ListFutureExamsUI to ListFutureExamsController--><g id="link_ListFutureExamsUI_ListFutureExamsController"><path codeLine="148" d="M685.8,33.036 C685.8,41.712 685.8,53.526 685.8,65.7 " fill="none" id="ListFutureExamsUI-to-ListFutureExamsController" style="stroke:#181818;stroke-width:0.6;stroke-dasharray:7.0,7.0;"/><polygon fill="#181818" points="685.8,68.802,688.2,63.402,685.8,65.802,683.4,63.402,685.8,68.802" style="stroke:#181818;stroke-width:0.6;"/></g><!--link ExamListService to Exam--><g id="link_ExamListService_Exam"><path codeLine="150" d="M737.904,296.424 C737.832,314.412 737.736,339.528 737.64,362.754 " fill="none" id="ExamListService-to-Exam" style="stroke:#181818;stroke-width:0.6;stroke-dasharray:7.0,7.0;"/><polygon fill="#181818" points="737.628,365.868,740.0434,360.4749,737.6366,362.868,735.2434,360.4612,737.628,365.868" style="stroke:#181818;stroke-width:0.6;"/></g><!--link ExamListService to ExamDTO--><g id="link_ExamListService_ExamDTO"><path codeLine="151" d="M750.708,296.424 C760.704,316.032 775.014,344.1 787.692,368.97 " fill="none" id="ExamListService-to-ExamDTO" style="stroke:#181818;stroke-width:0.6;stroke-dasharray:7.0,7.0;"/><polygon fill="#181818" points="789.066,371.67,788.7524,365.769,787.7038,368.9971,784.4758,367.9485,789.066,371.67" style="stroke:#181818;stroke-width:0.6;"/></g><!--link ExamListService to ExamRepository--><g id="link_ExamListService_ExamRepository"><path codeLine="152" d="M727.2,296.448 C719.07,315.432 707.76,342.252 698.4,366 C677.172,419.862 654.042,483.888 642.192,517.134 " fill="none" id="ExamListService-to-ExamRepository" style="stroke:#181818;stroke-width:0.6;stroke-dasharray:7.0,7.0;"/><polygon fill="#181818" points="641.148,520.062,645.2145,515.7744,642.1505,517.2345,640.6905,514.1704,641.148,520.062" style="stroke:#181818;stroke-width:0.6;"/></g><!--link ListFutureExamsController to ExamRepository--><g id="link_ListFutureExamsController_ExamRepository"><path codeLine="153" d="M664.992,175.89 C661.128,187.56 657.57,199.968 655.2,211.8 C632.574,324.63 632.568,463.248 633.582,516.954 " fill="none" id="ListFutureExamsController-to-ExamRepository" style="stroke:#181818;stroke-width:0.6;"/><polygon fill="#181818" points="633.642,520.062,635.9335,514.6151,633.582,517.0626,631.1345,514.7111,633.642,520.062" style="stroke:#181818;stroke-width:0.6;"/></g><!--link ListFutureExamsController to StudentRepository--><g id="link_ListFutureExamsController_StudentRepository"><path codeLine="154" d="M626.004,133.758 C575.79,145.47 504.816,168.6 457.2,211.8 C359.988,300 312.048,458.322 296.988,517.008 " fill="none" id="ListFutureExamsController-to-StudentRepository" style="stroke:#181818;stroke-width:0.6;"/><polygon fill="#181818" points="296.214,520.062,299.8649,515.4154,296.9497,517.1536,295.2115,514.2383,296.214,520.062" style="stroke:#181818;stroke-width:0.6;"/></g><!--link ListFutureExamsController to EnrolmentRepository--><g id="link_ListFutureExamsController_EnrolmentRepository"><path codeLine="155" d="M745.542,151.026 C771.624,165.876 800.652,186.348 820.2,211.8 C894.948,309.108 920.328,460.044 927.528,516.954 " fill="none" id="ListFutureExamsController-to-EnrolmentRepository" style="stroke:#181818;stroke-width:0.6;"/><polygon fill="#181818" points="927.912,520.08,929.6297,514.4258,927.5431,517.1028,924.8661,515.0161,927.912,520.08" style="stroke:#181818;stroke-width:0.6;"/></g><!--link ListFutureExamsController to CourseRepository--><g id="link_ListFutureExamsController_CourseRepository"><path codeLine="156" d="M626.046,134.436 C582.984,146.076 527.652,168.786 499.2,211.8 C434.892,309.03 464.556,460.278 479.064,517.104 " fill="none" id="ListFutureExamsController-to-CourseRepository" style="stroke:#181818;stroke-width:0.6;"/><polygon fill="#181818" points="479.832,520.062,480.8143,514.2349,479.0863,517.1562,476.165,515.4281,479.832,520.062" style="stroke:#181818;stroke-width:0.6;"/></g><!--SRC=[lLPRRjim4FpdAVGf8x1FK0H8RGTmaQH5tHo0fTSr0OaqIAf8-hXxTqN9faIoTWmZV-HoPxYSVKYYujOM3zAw-yOr1fOllBRFg-8tOtyP4wdJkLREwAe2WrxJ0XHkQb3kA-orbKwRLxGAtHWB0vDrpMRinXktqqR-uavgjGRpKmeWJho7RkqjDqL5EqymRwbjEK7pzXXMwQzSVFiyeT2bSc2sN42n7j-BOIDIgit7rsSBHl4QogPRJ8xFNgb7gD7zKlodFRyKwf-8paL1KcwWNJZfAh_QW1L6xacqTd_8mOEifRCTZ3ZMZZi8zilUCpWmWClDdSFTJU7qmkaoYWLbVVTm1bcSZmggZQRNSeunbHHO8drl1cBUte3fG5I2RJkqylJFmuK3BdPWS2Mf5EHMjXiltb0wQX5I8P44elSfkCeD0zwWqNn3eoreKjzxTrNbHu2N9kouKRij1_13mPyY66KjOZc7uv2_Yz0T_8Yxvo98VcGlGzGNC1Pb0YM0vYEykAvTJ0-JxSWYHA1LF3k32T5DZqSGNEaVXkztKZmrzNSmPJTBLuj4mL-LbCIy3XzZ2OrcizjOMCRY74odjz48oBWDavznYYPpZYpnTMFHUFZmPpRB3foCUsBCi57T3cX7pqgvHfNFuW_GW3DM8GD8VSjOgZ268IV4ouBIbOPba__zwBCT_YhalQdMlE9dEU6uFU4NrtCKBFv9aMUMXx7n12PticKFAAxSMQ3RQTNETeupVu8yaSR_8w96OEmV]--></g></svg>