<?xml version="1.0" encoding="us-ascii" standalone="no"?><svg xmlns="http://www.w3.org/2000/svg" xmlns:xlink="http://www.w3.org/1999/xlink" contentStyleType="text/css" height="608.4px" preserveAspectRatio="none" style="width:1618px;height:608px;background:#FFFFFF;" version="1.1" viewBox="0 0 1618 608" width="1618.8px" zoomAndPan="magnify"><defs/><g><rect fill="#FFFFFF" height="269.1715" style="stroke:#181818;stroke-width:0.6;" width="6" x="221.7" y="72.9199"/><rect fill="#FFFFFF" height="182.5969" style="stroke:#181818;stroke-width:0.6;" width="6" x="221.7" y="360.866"/><rect fill="#FFFFFF" height="18" style="stroke:#181818;stroke-width:0.6;" width="6" x="530.1" y="91.6945"/><rect fill="#FFFFFF" height="199.6477" style="stroke:#181818;stroke-width:0.6;" width="6" x="530.1" y="128.4691"/><rect fill="#FFFFFF" height="16.8" style="stroke:#181818;stroke-width:0.6;" width="6" x="533.1" y="293.9168"/><rect fill="#FFFFFF" height="117.873" style="stroke:#181818;stroke-width:0.6;" width="6" x="530.1" y="406.2152"/><rect fill="#FFFFFF" height="18" style="stroke:#181818;stroke-width:0.6;" width="6" x="735.9" y="147.2438"/><rect fill="#FFFFFF" height="99.0984" style="stroke:#181818;stroke-width:0.6;" width="6" x="905.7" y="424.9898"/><rect fill="#FFFFFF" height="18.7746" style="stroke:#181818;stroke-width:0.6;" width="6" x="980.1" y="496.3137"/><rect fill="#FFFFFF" height="18" style="stroke:#181818;stroke-width:0.6;" width="6" x="1341" y="184.0184"/><rect fill="#FFFFFF" height="18" style="stroke:#181818;stroke-width:0.6;" width="6" x="1494.3" y="443.7645"/><rect fill="#FFFFFF" height="18" style="stroke:#181818;stroke-width:0.6;" width="6" x="1574.1" y="220.793"/><rect fill="none" height="76.1238" style="stroke:#000000;stroke-width:0.8999999999999999;" width="215.7" x="466.8" y="247.793"/><rect fill="none" height="56.1492" style="stroke:#000000;stroke-width:0.8999999999999999;" width="203.7" x="472.8" y="263.5676"/><rect fill="none" height="49.1238" style="stroke:#000000;stroke-width:0.8999999999999999;" width="361.5" x="867.6" y="470.7645"/><line style="stroke:#181818;stroke-width:0.3;stroke-dasharray:5.0,5.0;" x1="19.2" x2="19.2" y1="52.9453" y2="548.8629"/><line style="stroke:#181818;stroke-width:0.3;stroke-dasharray:5.0,5.0;" x1="224.4" x2="224.4" y1="52.9453" y2="548.8629"/><line style="stroke:#181818;stroke-width:0.3;stroke-dasharray:5.0,5.0;" x1="532.8" x2="532.8" y1="52.9453" y2="548.8629"/><line style="stroke:#181818;stroke-width:0.3;stroke-dasharray:5.0,5.0;" x1="738.6" x2="738.6" y1="52.9453" y2="548.8629"/><line style="stroke:#181818;stroke-width:0.3;stroke-dasharray:5.0,5.0;" x1="828.6" x2="828.6" y1="52.9453" y2="548.8629"/><line style="stroke:#181818;stroke-width:0.3;stroke-dasharray:5.0,5.0;" x1="908.4" x2="908.4" y1="52.9453" y2="548.8629"/><line style="stroke:#181818;stroke-width:0.3;stroke-dasharray:5.0,5.0;" x1="983.1" x2="983.1" y1="52.9453" y2="548.8629"/><line style="stroke:#181818;stroke-width:0.3;stroke-dasharray:5.0,5.0;" x1="1035.3" x2="1035.3" y1="52.9453" y2="548.8629"/><line style="stroke:#181818;stroke-width:0.3;stroke-dasharray:5.0,5.0;" x1="1087.5" x2="1087.5" y1="52.9453" y2="548.8629"/><line style="stroke:#181818;stroke-width:0.3;stroke-dasharray:5.0,5.0;" x1="1143.3" x2="1143.3" y1="52.9453" y2="548.8629"/><line style="stroke:#181818;stroke-width:0.3;stroke-dasharray:5.0,5.0;" x1="1199.7" x2="1199.7" y1="52.9453" y2="548.8629"/><line style="stroke:#181818;stroke-width:0.3;stroke-dasharray:5.0,5.0;" x1="1265.1" x2="1265.1" y1="52.9453" y2="548.8629"/><line style="stroke:#181818;stroke-width:0.3;stroke-dasharray:5.0,5.0;" x1="1343.7" x2="1343.7" y1="52.9453" y2="548.8629"/><line style="stroke:#181818;stroke-width:0.3;stroke-dasharray:5.0,5.0;" x1="1422.9" x2="1422.9" y1="52.9453" y2="548.8629"/><line style="stroke:#181818;stroke-width:0.3;stroke-dasharray:5.0,5.0;" x1="1497.3" x2="1497.3" y1="52.9453" y2="548.8629"/><line style="stroke:#181818;stroke-width:0.3;stroke-dasharray:5.0,5.0;" x1="1577.1" x2="1577.1" y1="52.9453" y2="548.8629"/><text fill="#000000" font-family="sans-serif" font-size="8.4" lengthAdjust="spacing" textLength="29.4" x="3" y="50.8371">Student</text><ellipse cx="19.5" cy="10.8727" fill="#E2E2F0" rx="4.8" ry="4.8" style="stroke:#181818;stroke-width:0.3;"/><path d="M19.5,15.6727 L19.5,31.8727 M11.7,20.4727 L27.3,20.4727 M19.5,31.8727 L11.7,40.8727 M19.5,31.8727 L27.3,40.8727 " fill="none" style="stroke:#181818;stroke-width:0.3;"/><text fill="#000000" font-family="sans-serif" font-size="8.4" lengthAdjust="spacing" textLength="29.4" x="3" y="557.3273">Student</text><ellipse cx="19.5" cy="564.5355" fill="#E2E2F0" rx="4.8" ry="4.8" style="stroke:#181818;stroke-width:0.3;"/><path d="M19.5,569.3355 L19.5,585.5355 M11.7,574.1355 L27.3,574.1355 M19.5,585.5355 L11.7,594.5355 M19.5,585.5355 L27.3,594.5355 " fill="none" style="stroke:#181818;stroke-width:0.3;"/><rect fill="#E2E2F0" height="30.7453" rx="1.5" ry="1.5" style="stroke:#181818;stroke-width:0.3;" width="78.6" x="185.4" y="21.6"/><text fill="#000000" font-family="sans-serif" font-size="8.4" font-style="italic" lengthAdjust="spacing" textLength="57" x="196.2" y="34.8645">&#171;presentation&#187;</text><text fill="#000000" font-family="sans-serif" font-size="8.4" lengthAdjust="spacing" textLength="70.2" x="189.6" y="46.0371">ListFutureExamsUI</text><rect fill="#E2E2F0" height="30.7453" rx="1.5" ry="1.5" style="stroke:#181818;stroke-width:0.3;" width="78.6" x="185.4" y="548.2629"/><text fill="#000000" font-family="sans-serif" font-size="8.4" font-style="italic" lengthAdjust="spacing" textLength="57" x="196.2" y="561.5273">&#171;presentation&#187;</text><text fill="#000000" font-family="sans-serif" font-size="8.4" lengthAdjust="spacing" textLength="70.2" x="189.6" y="572.7">ListFutureExamsUI</text><rect fill="#E2E2F0" height="30.7453" rx="1.5" ry="1.5" style="stroke:#181818;stroke-width:0.3;" width="108.6" x="478.8" y="21.6"/><text fill="#000000" font-family="sans-serif" font-size="8.4" font-style="italic" lengthAdjust="spacing" textLength="50.4" x="507.9" y="34.8645">&#171;application&#187;</text><text fill="#000000" font-family="sans-serif" font-size="8.4" lengthAdjust="spacing" textLength="100.2" x="483" y="46.0371">ListFutureExamsController</text><rect fill="#E2E2F0" height="30.7453" rx="1.5" ry="1.5" style="stroke:#181818;stroke-width:0.3;" width="108.6" x="478.8" y="548.2629"/><text fill="#000000" font-family="sans-serif" font-size="8.4" font-style="italic" lengthAdjust="spacing" textLength="50.4" x="507.9" y="561.5273">&#171;application&#187;</text><text fill="#000000" font-family="sans-serif" font-size="8.4" lengthAdjust="spacing" textLength="100.2" x="483" y="572.7">ListFutureExamsController</text><rect fill="#E2E2F0" height="30.7453" rx="1.5" ry="1.5" style="stroke:#181818;stroke-width:0.3;" width="90.6" x="693.6" y="21.6"/><text fill="#000000" font-family="sans-serif" font-size="8.4" font-style="italic" lengthAdjust="spacing" textLength="36" x="720.9" y="34.8645">&#171;service&#187;</text><text fill="#000000" font-family="sans-serif" font-size="8.4" lengthAdjust="spacing" textLength="82.2" x="697.8" y="46.0371">AuthenticationService</text><rect fill="#E2E2F0" height="30.7453" rx="1.5" ry="1.5" style="stroke:#181818;stroke-width:0.3;" width="90.6" x="693.6" y="548.2629"/><text fill="#000000" font-family="sans-serif" font-size="8.4" font-style="italic" lengthAdjust="spacing" textLength="36" x="720.9" y="561.5273">&#171;service&#187;</text><text fill="#000000" font-family="sans-serif" font-size="8.4" lengthAdjust="spacing" textLength="82.2" x="697.8" y="572.7">AuthenticationService</text><rect fill="#E2E2F0" height="30.7453" rx="1.5" ry="1.5" style="stroke:#181818;stroke-width:0.3;" width="77.4" x="790.2" y="21.6"/><text fill="#000000" font-family="sans-serif" font-size="8.4" font-style="italic" lengthAdjust="spacing" textLength="36" x="810.9" y="34.8645">&#171;service&#187;</text><text fill="#000000" font-family="sans-serif" font-size="8.4" lengthAdjust="spacing" textLength="69" x="794.4" y="46.0371">CourseListService</text><rect fill="#E2E2F0" height="30.7453" rx="1.5" ry="1.5" style="stroke:#181818;stroke-width:0.3;" width="77.4" x="790.2" y="548.2629"/><text fill="#000000" font-family="sans-serif" font-size="8.4" font-style="italic" lengthAdjust="spacing" textLength="36" x="810.9" y="561.5273">&#171;service&#187;</text><text fill="#000000" font-family="sans-serif" font-size="8.4" lengthAdjust="spacing" textLength="69" x="794.4" y="572.7">CourseListService</text><rect fill="#E2E2F0" height="30.7453" rx="1.5" ry="1.5" style="stroke:#181818;stroke-width:0.3;" width="70.2" x="873.6" y="21.6"/><text fill="#000000" font-family="sans-serif" font-size="8.4" font-style="italic" lengthAdjust="spacing" textLength="36" x="890.7" y="34.8645">&#171;service&#187;</text><text fill="#000000" font-family="sans-serif" font-size="8.4" lengthAdjust="spacing" textLength="61.8" x="877.8" y="46.0371">ExamListService</text><rect fill="#E2E2F0" height="30.7453" rx="1.5" ry="1.5" style="stroke:#181818;stroke-width:0.3;" width="70.2" x="873.6" y="548.2629"/><text fill="#000000" font-family="sans-serif" font-size="8.4" font-style="italic" lengthAdjust="spacing" textLength="36" x="890.7" y="561.5273">&#171;service&#187;</text><text fill="#000000" font-family="sans-serif" font-size="8.4" lengthAdjust="spacing" textLength="61.8" x="877.8" y="572.7">ExamListService</text><rect fill="#E2E2F0" height="30.7453" rx="1.5" ry="1.5" style="stroke:#181818;stroke-width:0.3;" width="45.6" x="960.3" y="21.6"/><text fill="#000000" font-family="sans-serif" font-size="8.4" font-style="italic" lengthAdjust="spacing" textLength="37.2" x="964.5" y="34.8645">&#171;domain&#187;</text><text fill="#000000" font-family="sans-serif" font-size="8.4" lengthAdjust="spacing" textLength="20.4" x="972.9" y="46.0371">Exam</text><rect fill="#E2E2F0" height="30.7453" rx="1.5" ry="1.5" style="stroke:#181818;stroke-width:0.3;" width="45.6" x="960.3" y="548.2629"/><text fill="#000000" font-family="sans-serif" font-size="8.4" font-style="italic" lengthAdjust="spacing" textLength="37.2" x="964.5" y="561.5273">&#171;domain&#187;</text><text fill="#000000" font-family="sans-serif" font-size="8.4" lengthAdjust="spacing" textLength="20.4" x="972.9" y="572.7">Exam</text><rect fill="#E2E2F0" height="30.7453" rx="1.5" ry="1.5" style="stroke:#181818;stroke-width:0.3;" width="46.8" x="1011.9" y="21.6"/><text fill="#000000" font-family="sans-serif" font-size="8.4" font-style="italic" lengthAdjust="spacing" textLength="37.2" x="1016.7" y="34.8645">&#171;domain&#187;</text><text fill="#000000" font-family="sans-serif" font-size="8.4" lengthAdjust="spacing" textLength="38.4" x="1016.1" y="46.0371">Enrolment</text><rect fill="#E2E2F0" height="30.7453" rx="1.5" ry="1.5" style="stroke:#181818;stroke-width:0.3;" width="46.8" x="1011.9" y="548.2629"/><text fill="#000000" font-family="sans-serif" font-size="8.4" font-style="italic" lengthAdjust="spacing" textLength="37.2" x="1016.7" y="561.5273">&#171;domain&#187;</text><text fill="#000000" font-family="sans-serif" font-size="8.4" lengthAdjust="spacing" textLength="38.4" x="1016.1" y="572.7">Enrolment</text><rect fill="#E2E2F0" height="30.7453" rx="1.5" ry="1.5" style="stroke:#181818;stroke-width:0.3;" width="45.6" x="1064.7" y="21.6"/><text fill="#000000" font-family="sans-serif" font-size="8.4" font-style="italic" lengthAdjust="spacing" textLength="37.2" x="1068.9" y="34.8645">&#171;domain&#187;</text><text fill="#000000" font-family="sans-serif" font-size="8.4" lengthAdjust="spacing" textLength="27.6" x="1073.7" y="46.0371">Course</text><rect fill="#E2E2F0" height="30.7453" rx="1.5" ry="1.5" style="stroke:#181818;stroke-width:0.3;" width="45.6" x="1064.7" y="548.2629"/><text fill="#000000" font-family="sans-serif" font-size="8.4" font-style="italic" lengthAdjust="spacing" textLength="37.2" x="1068.9" y="561.5273">&#171;domain&#187;</text><text fill="#000000" font-family="sans-serif" font-size="8.4" lengthAdjust="spacing" textLength="27.6" x="1073.7" y="572.7">Course</text><rect fill="#E2E2F0" height="30.7453" rx="1.5" ry="1.5" style="stroke:#181818;stroke-width:0.3;" width="54" x="1116.3" y="21.6"/><text fill="#000000" font-family="sans-serif" font-size="8.4" font-style="italic" lengthAdjust="spacing" textLength="21.6" x="1132.5" y="34.8645">&#171;dto&#187;</text><text fill="#000000" font-family="sans-serif" font-size="8.4" lengthAdjust="spacing" textLength="45.6" x="1120.5" y="46.0371">CourseDTO</text><rect fill="#E2E2F0" height="30.7453" rx="1.5" ry="1.5" style="stroke:#181818;stroke-width:0.3;" width="54" x="1116.3" y="548.2629"/><text fill="#000000" font-family="sans-serif" font-size="8.4" font-style="italic" lengthAdjust="spacing" textLength="21.6" x="1132.5" y="561.5273">&#171;dto&#187;</text><text fill="#000000" font-family="sans-serif" font-size="8.4" lengthAdjust="spacing" textLength="45.6" x="1120.5" y="572.7">CourseDTO</text><rect fill="#E2E2F0" height="30.7453" rx="1.5" ry="1.5" style="stroke:#181818;stroke-width:0.3;" width="46.8" x="1176.3" y="21.6"/><text fill="#000000" font-family="sans-serif" font-size="8.4" font-style="italic" lengthAdjust="spacing" textLength="21.6" x="1188.9" y="34.8645">&#171;dto&#187;</text><text fill="#000000" font-family="sans-serif" font-size="8.4" lengthAdjust="spacing" textLength="38.4" x="1180.5" y="46.0371">ExamDTO</text><rect fill="#E2E2F0" height="30.7453" rx="1.5" ry="1.5" style="stroke:#181818;stroke-width:0.3;" width="46.8" x="1176.3" y="548.2629"/><text fill="#000000" font-family="sans-serif" font-size="8.4" font-style="italic" lengthAdjust="spacing" textLength="21.6" x="1188.9" y="561.5273">&#171;dto&#187;</text><text fill="#000000" font-family="sans-serif" font-size="8.4" lengthAdjust="spacing" textLength="38.4" x="1180.5" y="572.7">ExamDTO</text><text fill="#000000" font-family="sans-serif" font-size="8.4" font-style="italic" lengthAdjust="spacing" textLength="47.4" x="1239.6" y="39.6645">&#171;repository&#187;</text><text fill="#000000" font-family="sans-serif" font-size="8.4" lengthAdjust="spacing" textLength="68.4" x="1229.1" y="50.8371">CourseRepository</text><path d="M1254.3,9 C1254.3,3 1265.1,3 1265.1,3 C1265.1,3 1275.9,3 1275.9,9 L1275.9,24.6 C1275.9,30.6 1265.1,30.6 1265.1,30.6 C1265.1,30.6 1254.3,30.6 1254.3,24.6 L1254.3,9 " fill="#E2E2F0" style="stroke:#181818;stroke-width:0.8999999999999999;"/><path d="M1254.3,9 C1254.3,15 1265.1,15 1265.1,15 C1265.1,15 1275.9,15 1275.9,9 " fill="none" style="stroke:#181818;stroke-width:0.8999999999999999;"/><text fill="#000000" font-family="sans-serif" font-size="8.4" font-style="italic" lengthAdjust="spacing" textLength="47.4" x="1239.6" y="557.3273">&#171;repository&#187;</text><text fill="#000000" font-family="sans-serif" font-size="8.4" lengthAdjust="spacing" textLength="68.4" x="1229.1" y="568.5">CourseRepository</text><path d="M1254.3,576.6082 C1254.3,570.6082 1265.1,570.6082 1265.1,570.6082 C1265.1,570.6082 1275.9,570.6082 1275.9,576.6082 L1275.9,592.2082 C1275.9,598.2082 1265.1,598.2082 1265.1,598.2082 C1265.1,598.2082 1254.3,598.2082 1254.3,592.2082 L1254.3,576.6082 " fill="#E2E2F0" style="stroke:#181818;stroke-width:0.8999999999999999;"/><path d="M1254.3,576.6082 C1254.3,582.6082 1265.1,582.6082 1265.1,582.6082 C1265.1,582.6082 1275.9,582.6082 1275.9,576.6082 " fill="none" style="stroke:#181818;stroke-width:0.8999999999999999;"/><text fill="#000000" font-family="sans-serif" font-size="8.4" font-style="italic" lengthAdjust="spacing" textLength="47.4" x="1318.5" y="39.6645">&#171;repository&#187;</text><text fill="#000000" font-family="sans-serif" font-size="8.4" lengthAdjust="spacing" textLength="70.2" x="1307.1" y="50.8371">StudentRepository</text><path d="M1333.2,9 C1333.2,3 1344,3 1344,3 C1344,3 1354.8,3 1354.8,9 L1354.8,24.6 C1354.8,30.6 1344,30.6 1344,30.6 C1344,30.6 1333.2,30.6 1333.2,24.6 L1333.2,9 " fill="#E2E2F0" style="stroke:#181818;stroke-width:0.8999999999999999;"/><path d="M1333.2,9 C1333.2,15 1344,15 1344,15 C1344,15 1354.8,15 1354.8,9 " fill="none" style="stroke:#181818;stroke-width:0.8999999999999999;"/><text fill="#000000" font-family="sans-serif" font-size="8.4" font-style="italic" lengthAdjust="spacing" textLength="47.4" x="1318.5" y="557.3273">&#171;repository&#187;</text><text fill="#000000" font-family="sans-serif" font-size="8.4" lengthAdjust="spacing" textLength="70.2" x="1307.1" y="568.5">StudentRepository</text><path d="M1333.2,576.6082 C1333.2,570.6082 1344,570.6082 1344,570.6082 C1344,570.6082 1354.8,570.6082 1354.8,576.6082 L1354.8,592.2082 C1354.8,598.2082 1344,598.2082 1344,598.2082 C1344,598.2082 1333.2,598.2082 1333.2,592.2082 L1333.2,576.6082 " fill="#E2E2F0" style="stroke:#181818;stroke-width:0.8999999999999999;"/><path d="M1333.2,576.6082 C1333.2,582.6082 1344,582.6082 1344,582.6082 C1344,582.6082 1354.8,582.6082 1354.8,576.6082 " fill="none" style="stroke:#181818;stroke-width:0.8999999999999999;"/><text fill="#000000" font-family="sans-serif" font-size="8.4" font-style="italic" lengthAdjust="spacing" textLength="47.4" x="1397.4" y="39.6645">&#171;repository&#187;</text><text fill="#000000" font-family="sans-serif" font-size="8.4" lengthAdjust="spacing" textLength="68.4" x="1386.9" y="50.8371">CourseRepository</text><path d="M1412.1,9 C1412.1,3 1422.9,3 1422.9,3 C1422.9,3 1433.7,3 1433.7,9 L1433.7,24.6 C1433.7,30.6 1422.9,30.6 1422.9,30.6 C1422.9,30.6 1412.1,30.6 1412.1,24.6 L1412.1,9 " fill="#E2E2F0" style="stroke:#181818;stroke-width:0.8999999999999999;"/><path d="M1412.1,9 C1412.1,15 1422.9,15 1422.9,15 C1422.9,15 1433.7,15 1433.7,9 " fill="none" style="stroke:#181818;stroke-width:0.8999999999999999;"/><text fill="#000000" font-family="sans-serif" font-size="8.4" font-style="italic" lengthAdjust="spacing" textLength="47.4" x="1397.4" y="557.3273">&#171;repository&#187;</text><text fill="#000000" font-family="sans-serif" font-size="8.4" lengthAdjust="spacing" textLength="68.4" x="1386.9" y="568.5">CourseRepository</text><path d="M1412.1,576.6082 C1412.1,570.6082 1422.9,570.6082 1422.9,570.6082 C1422.9,570.6082 1433.7,570.6082 1433.7,576.6082 L1433.7,592.2082 C1433.7,598.2082 1422.9,598.2082 1422.9,598.2082 C1422.9,598.2082 1412.1,598.2082 1412.1,592.2082 L1412.1,576.6082 " fill="#E2E2F0" style="stroke:#181818;stroke-width:0.8999999999999999;"/><path d="M1412.1,576.6082 C1412.1,582.6082 1422.9,582.6082 1422.9,582.6082 C1422.9,582.6082 1433.7,582.6082 1433.7,576.6082 " fill="none" style="stroke:#181818;stroke-width:0.8999999999999999;"/><text fill="#000000" font-family="sans-serif" font-size="8.4" font-style="italic" lengthAdjust="spacing" textLength="47.4" x="1471.8" y="39.6645">&#171;repository&#187;</text><text fill="#000000" font-family="sans-serif" font-size="8.4" lengthAdjust="spacing" textLength="61.2" x="1464.9" y="50.8371">ExamRepository</text><path d="M1486.5,9 C1486.5,3 1497.3,3 1497.3,3 C1497.3,3 1508.1,3 1508.1,9 L1508.1,24.6 C1508.1,30.6 1497.3,30.6 1497.3,30.6 C1497.3,30.6 1486.5,30.6 1486.5,24.6 L1486.5,9 " fill="#E2E2F0" style="stroke:#181818;stroke-width:0.8999999999999999;"/><path d="M1486.5,9 C1486.5,15 1497.3,15 1497.3,15 C1497.3,15 1508.1,15 1508.1,9 " fill="none" style="stroke:#181818;stroke-width:0.8999999999999999;"/><text fill="#000000" font-family="sans-serif" font-size="8.4" font-style="italic" lengthAdjust="spacing" textLength="47.4" x="1471.8" y="557.3273">&#171;repository&#187;</text><text fill="#000000" font-family="sans-serif" font-size="8.4" lengthAdjust="spacing" textLength="61.2" x="1464.9" y="568.5">ExamRepository</text><path d="M1486.5,576.6082 C1486.5,570.6082 1497.3,570.6082 1497.3,570.6082 C1497.3,570.6082 1508.1,570.6082 1508.1,576.6082 L1508.1,592.2082 C1508.1,598.2082 1497.3,598.2082 1497.3,598.2082 C1497.3,598.2082 1486.5,598.2082 1486.5,592.2082 L1486.5,576.6082 " fill="#E2E2F0" style="stroke:#181818;stroke-width:0.8999999999999999;"/><path d="M1486.5,576.6082 C1486.5,582.6082 1497.3,582.6082 1497.3,582.6082 C1497.3,582.6082 1508.1,582.6082 1508.1,576.6082 " fill="none" style="stroke:#181818;stroke-width:0.8999999999999999;"/><text fill="#000000" font-family="sans-serif" font-size="8.4" font-style="italic" lengthAdjust="spacing" textLength="47.4" x="1551.6" y="39.6645">&#171;repository&#187;</text><text fill="#000000" font-family="sans-serif" font-size="8.4" lengthAdjust="spacing" textLength="79.2" x="1535.7" y="50.8371">EnrolmentRepository</text><path d="M1566.3,9 C1566.3,3 1577.1,3 1577.1,3 C1577.1,3 1587.9,3 1587.9,9 L1587.9,24.6 C1587.9,30.6 1577.1,30.6 1577.1,30.6 C1577.1,30.6 1566.3,30.6 1566.3,24.6 L1566.3,9 " fill="#E2E2F0" style="stroke:#181818;stroke-width:0.8999999999999999;"/><path d="M1566.3,9 C1566.3,15 1577.1,15 1577.1,15 C1577.1,15 1587.9,15 1587.9,9 " fill="none" style="stroke:#181818;stroke-width:0.8999999999999999;"/><text fill="#000000" font-family="sans-serif" font-size="8.4" font-style="italic" lengthAdjust="spacing" textLength="47.4" x="1551.6" y="557.3273">&#171;repository&#187;</text><text fill="#000000" font-family="sans-serif" font-size="8.4" lengthAdjust="spacing" textLength="79.2" x="1535.7" y="568.5">EnrolmentRepository</text><path d="M1566.3,576.6082 C1566.3,570.6082 1577.1,570.6082 1577.1,570.6082 C1577.1,570.6082 1587.9,570.6082 1587.9,576.6082 L1587.9,592.2082 C1587.9,598.2082 1577.1,598.2082 1577.1,598.2082 C1577.1,598.2082 1566.3,598.2082 1566.3,592.2082 L1566.3,576.6082 " fill="#E2E2F0" style="stroke:#181818;stroke-width:0.8999999999999999;"/><path d="M1566.3,576.6082 C1566.3,582.6082 1577.1,582.6082 1577.1,582.6082 C1577.1,582.6082 1587.9,582.6082 1587.9,576.6082 " fill="none" style="stroke:#181818;stroke-width:0.8999999999999999;"/><rect fill="#FFFFFF" height="269.1715" style="stroke:#181818;stroke-width:0.6;" width="6" x="221.7" y="72.9199"/><rect fill="#FFFFFF" height="182.5969" style="stroke:#181818;stroke-width:0.6;" width="6" x="221.7" y="360.866"/><rect fill="#FFFFFF" height="18" style="stroke:#181818;stroke-width:0.6;" width="6" x="530.1" y="91.6945"/><rect fill="#FFFFFF" height="199.6477" style="stroke:#181818;stroke-width:0.6;" width="6" x="530.1" y="128.4691"/><rect fill="#FFFFFF" height="16.8" style="stroke:#181818;stroke-width:0.6;" width="6" x="533.1" y="293.9168"/><rect fill="#FFFFFF" height="117.873" style="stroke:#181818;stroke-width:0.6;" width="6" x="530.1" y="406.2152"/><rect fill="#FFFFFF" height="18" style="stroke:#181818;stroke-width:0.6;" width="6" x="735.9" y="147.2438"/><rect fill="#FFFFFF" height="99.0984" style="stroke:#181818;stroke-width:0.6;" width="6" x="905.7" y="424.9898"/><rect fill="#FFFFFF" height="18.7746" style="stroke:#181818;stroke-width:0.6;" width="6" x="980.1" y="496.3137"/><rect fill="#FFFFFF" height="18" style="stroke:#181818;stroke-width:0.6;" width="6" x="1341" y="184.0184"/><rect fill="#FFFFFF" height="18" style="stroke:#181818;stroke-width:0.6;" width="6" x="1494.3" y="443.7645"/><rect fill="#FFFFFF" height="18" style="stroke:#181818;stroke-width:0.6;" width="6" x="1574.1" y="220.793"/><polygon fill="#181818" points="214.5,70.5199,220.5,72.9199,214.5,75.3199,216.9,72.9199" style="stroke:#181818;stroke-width:0.6;"/><line style="stroke:#181818;stroke-width:0.6;" x1="19.5" x2="218.1" y1="72.9199" y2="72.9199"/><text fill="#000000" font-family="sans-serif" font-size="7.8" font-weight="bold" lengthAdjust="spacing" textLength="4.2" x="23.7" y="69.7623">1</text><text fill="#000000" font-family="sans-serif" font-size="7.8" lengthAdjust="spacing" textLength="157.2" x="30.3" y="69.7623">requests to view the future exams in a course</text><polygon fill="#181818" points="522.9,89.2945,528.9,91.6945,522.9,94.0945,525.3,91.6945" style="stroke:#181818;stroke-width:0.6;"/><line style="stroke:#181818;stroke-width:0.6;" x1="227.7" x2="526.5" y1="91.6945" y2="91.6945"/><text fill="#000000" font-family="sans-serif" font-size="7.8" font-weight="bold" lengthAdjust="spacing" textLength="4.2" x="231.9" y="88.5369">2</text><text fill="#000000" font-family="sans-serif" font-size="7.8" lengthAdjust="spacing" textLength="284.4" x="238.5" y="88.5369">new(examRepository, enrolmentRepository, studentRepository, courseRepository)</text><polygon fill="#181818" points="522.9,126.0691,528.9,128.4691,522.9,130.8691,525.3,128.4691" style="stroke:#181818;stroke-width:0.6;"/><line style="stroke:#181818;stroke-width:0.6;" x1="227.7" x2="526.5" y1="128.4691" y2="128.4691"/><text fill="#000000" font-family="sans-serif" font-size="7.8" font-weight="bold" lengthAdjust="spacing" textLength="4.2" x="231.9" y="125.3115">3</text><text fill="#000000" font-family="sans-serif" font-size="7.8" lengthAdjust="spacing" textLength="108" x="238.5" y="125.3115">courses = listStudentCourses()</text><polygon fill="#181818" points="728.7,144.8438,734.7,147.2438,728.7,149.6437,731.1,147.2438" style="stroke:#181818;stroke-width:0.6;"/><line style="stroke:#181818;stroke-width:0.6;" x1="536.1" x2="732.3" y1="147.2438" y2="147.2438"/><text fill="#000000" font-family="sans-serif" font-size="7.8" font-weight="bold" lengthAdjust="spacing" textLength="4.2" x="540.3" y="144.0861">4</text><text fill="#000000" font-family="sans-serif" font-size="7.8" lengthAdjust="spacing" textLength="181.8" x="546.9" y="144.0861">authenticatedUser = loggedinUserWithPermissions()</text><polygon fill="#181818" points="1333.8,181.6184,1339.8,184.0184,1333.8,186.4184,1336.2,184.0184" style="stroke:#181818;stroke-width:0.6;"/><line style="stroke:#181818;stroke-width:0.6;" x1="536.1" x2="1337.4" y1="184.0184" y2="184.0184"/><text fill="#000000" font-family="sans-serif" font-size="7.8" font-weight="bold" lengthAdjust="spacing" textLength="4.2" x="540.3" y="180.8607">5</text><text fill="#000000" font-family="sans-serif" font-size="7.8" lengthAdjust="spacing" textLength="201.6" x="546.9" y="180.8607">student = findByUsername(authenticatedUser.username())</text><polygon fill="#181818" points="1566.9,218.393,1572.9,220.793,1566.9,223.193,1569.3,220.793" style="stroke:#181818;stroke-width:0.6;"/><line style="stroke:#181818;stroke-width:0.6;" x1="536.1" x2="1570.5" y1="220.793" y2="220.793"/><text fill="#000000" font-family="sans-serif" font-size="7.8" font-weight="bold" lengthAdjust="spacing" textLength="4.2" x="540.3" y="217.6354">6</text><text fill="#000000" font-family="sans-serif" font-size="7.8" lengthAdjust="spacing" textLength="276.6" x="546.9" y="217.6354">enrolments = findByStudentMecanographicNumber(authenticatedUser.identity())</text><path d="M466.8,247.793 L510.6,247.793 L510.6,253.3676 L504.6,259.3676 L466.8,259.3676 L466.8,247.793 " fill="#EEEEEE" style="stroke:#000000;stroke-width:0.8999999999999999;"/><rect fill="none" height="76.1238" style="stroke:#000000;stroke-width:0.8999999999999999;" width="215.7" x="466.8" y="247.793"/><text fill="#000000" font-family="sans-serif" font-size="7.8" font-weight="bold" lengthAdjust="spacing" textLength="16.8" x="475.8" y="256.81">loop</text><text fill="#000000" font-family="sans-serif" font-size="6.6" font-weight="bold" lengthAdjust="spacing" textLength="68.4" x="519.6" y="256.115">[for each enrolment]</text><path d="M472.8,263.5676 L509.4,263.5676 L509.4,269.1422 L503.4,275.1422 L472.8,275.1422 L472.8,263.5676 " fill="#EEEEEE" style="stroke:#000000;stroke-width:0.8999999999999999;"/><rect fill="none" height="56.1492" style="stroke:#000000;stroke-width:0.8999999999999999;" width="203.7" x="472.8" y="263.5676"/><text fill="#000000" font-family="sans-serif" font-size="7.8" font-weight="bold" lengthAdjust="spacing" textLength="9.6" x="481.8" y="272.5846">alt</text><text fill="#000000" font-family="sans-serif" font-size="6.6" font-weight="bold" lengthAdjust="spacing" textLength="89.4" x="518.4" y="271.8896">[if enrolment.isAccepted()]</text><line style="stroke:#181818;stroke-width:0.6;" x1="539.1" x2="564.3" y1="289.1168" y2="289.1168"/><line style="stroke:#181818;stroke-width:0.6;" x1="564.3" x2="564.3" y1="289.1168" y2="296.9168"/><line style="stroke:#181818;stroke-width:0.6;" x1="539.7" x2="564.3" y1="296.9168" y2="296.9168"/><polygon fill="#181818" points="545.7,294.5168,539.7,296.9168,545.7,299.3168,543.3,296.9168" style="stroke:#181818;stroke-width:0.6;"/><text fill="#000000" font-family="sans-serif" font-size="7.8" font-weight="bold" lengthAdjust="spacing" textLength="4.2" x="543.3" y="285.9592">7</text><text fill="#000000" font-family="sans-serif" font-size="7.8" lengthAdjust="spacing" textLength="119.4" x="549.9" y="285.9592">courses = add(enrolment.course())</text><polygon fill="#181818" points="26.1,339.6914,20.1,342.0914,26.1,344.4914,23.7,342.0914" style="stroke:#181818;stroke-width:0.6;"/><line style="stroke:#181818;stroke-width:0.6;stroke-dasharray:2.0,2.0;" x1="22.5" x2="224.1" y1="342.0914" y2="342.0914"/><text fill="#000000" font-family="sans-serif" font-size="7.8" font-weight="bold" lengthAdjust="spacing" textLength="4.2" x="29.7" y="338.9338">8</text><text fill="#000000" font-family="sans-serif" font-size="7.8" lengthAdjust="spacing" textLength="181.2" x="36.3" y="338.9338">lists all the available courses and asks to select one</text><polygon fill="#181818" points="214.5,358.466,220.5,360.866,214.5,363.266,216.9,360.866" style="stroke:#181818;stroke-width:0.6;"/><line style="stroke:#181818;stroke-width:0.6;" x1="19.5" x2="218.1" y1="360.866" y2="360.866"/><text fill="#000000" font-family="sans-serif" font-size="7.8" font-weight="bold" lengthAdjust="spacing" textLength="4.2" x="23.7" y="357.7084">9</text><text fill="#000000" font-family="sans-serif" font-size="7.8" lengthAdjust="spacing" textLength="91.8" x="30.3" y="357.7084">selects the desired course</text><line style="stroke:#181818;stroke-width:0.6;" x1="227.7" x2="252.9" y1="379.6406" y2="379.6406"/><line style="stroke:#181818;stroke-width:0.6;" x1="252.9" x2="252.9" y1="379.6406" y2="387.4406"/><line style="stroke:#181818;stroke-width:0.6;" x1="228.3" x2="252.9" y1="387.4406" y2="387.4406"/><polygon fill="#181818" points="234.3,385.0406,228.3,387.4406,234.3,389.8406,231.9,387.4406" style="stroke:#181818;stroke-width:0.6;"/><text fill="#000000" font-family="sans-serif" font-size="7.8" font-weight="bold" lengthAdjust="spacing" textLength="8.4" x="231.9" y="376.483">10</text><text fill="#000000" font-family="sans-serif" font-size="7.8" lengthAdjust="spacing" textLength="109.8" x="242.7" y="376.483">course = select(courses, index)</text><polygon fill="#181818" points="522.9,403.8152,528.9,406.2152,522.9,408.6152,525.3,406.2152" style="stroke:#181818;stroke-width:0.6;"/><line style="stroke:#181818;stroke-width:0.6;" x1="227.7" x2="526.5" y1="406.2152" y2="406.2152"/><text fill="#000000" font-family="sans-serif" font-size="7.8" font-weight="bold" lengthAdjust="spacing" textLength="8.4" x="231.9" y="403.0576">11</text><text fill="#000000" font-family="sans-serif" font-size="7.8" lengthAdjust="spacing" textLength="105" x="242.7" y="403.0576">exams = futureExams(course)</text><polygon fill="#181818" points="898.5,422.5898,904.5,424.9898,898.5,427.3898,900.9,424.9898" style="stroke:#181818;stroke-width:0.6;"/><line style="stroke:#181818;stroke-width:0.6;" x1="536.1" x2="902.1" y1="424.9898" y2="424.9898"/><text fill="#000000" font-family="sans-serif" font-size="7.8" font-weight="bold" lengthAdjust="spacing" textLength="8.4" x="540.3" y="421.8322">12</text><text fill="#000000" font-family="sans-serif" font-size="7.8" lengthAdjust="spacing" textLength="118.8" x="551.1" y="421.8322">listAllFutureCourseExams(course)</text><polygon fill="#181818" points="1487.1,441.3645,1493.1,443.7645,1487.1,446.1645,1489.5,443.7645" style="stroke:#181818;stroke-width:0.6;"/><line style="stroke:#181818;stroke-width:0.6;" x1="911.7" x2="1490.7" y1="443.7645" y2="443.7645"/><text fill="#000000" font-family="sans-serif" font-size="7.8" font-weight="bold" lengthAdjust="spacing" textLength="8.4" x="915.9" y="440.6068">13</text><text fill="#000000" font-family="sans-serif" font-size="7.8" lengthAdjust="spacing" textLength="120.6" x="926.7" y="440.6068">findAllFutureCourseExams(course)</text><path d="M867.6,470.7645 L911.4,470.7645 L911.4,476.3391 L905.4,482.3391 L867.6,482.3391 L867.6,470.7645 " fill="#EEEEEE" style="stroke:#000000;stroke-width:0.8999999999999999;"/><rect fill="none" height="49.1238" style="stroke:#000000;stroke-width:0.8999999999999999;" width="361.5" x="867.6" y="470.7645"/><text fill="#000000" font-family="sans-serif" font-size="7.8" font-weight="bold" lengthAdjust="spacing" textLength="16.8" x="876.6" y="479.7814">loop</text><text fill="#000000" font-family="sans-serif" font-size="6.6" font-weight="bold" lengthAdjust="spacing" textLength="51.6" x="920.4" y="479.0865">[for each exam]</text><polygon fill="#181818" points="972.9,493.9137,978.9,496.3137,972.9,498.7137,975.3,496.3137" style="stroke:#181818;stroke-width:0.6;"/><line style="stroke:#181818;stroke-width:0.6;" x1="911.7" x2="976.5" y1="496.3137" y2="496.3137"/><text fill="#000000" font-family="sans-serif" font-size="7.8" font-weight="bold" lengthAdjust="spacing" textLength="8.4" x="915.9" y="493.1561">14</text><text fill="#000000" font-family="sans-serif" font-size="7.8" lengthAdjust="spacing" textLength="46.2" x="926.7" y="493.1561">toDTO(exam)</text><polygon fill="#181818" points="1192.5,512.6883,1198.5,515.0883,1192.5,517.4883,1194.9,515.0883" style="stroke:#181818;stroke-width:0.6;"/><line style="stroke:#181818;stroke-width:0.6;" x1="983.1" x2="1196.1" y1="515.0883" y2="515.0883"/><text fill="#000000" font-family="sans-serif" font-size="7.8" font-weight="bold" lengthAdjust="spacing" textLength="8.4" x="987.3" y="511.9307">15</text><text fill="#000000" font-family="sans-serif" font-size="7.8" lengthAdjust="spacing" textLength="13.8" x="998.1" y="511.9307">new</text><polygon fill="#181818" points="26.1,535.6629,20.1,538.0629,26.1,540.4629,23.7,538.0629" style="stroke:#181818;stroke-width:0.6;"/><line style="stroke:#181818;stroke-width:0.6;stroke-dasharray:2.0,2.0;" x1="22.5" x2="221.1" y1="538.0629" y2="538.0629"/><text fill="#000000" font-family="sans-serif" font-size="7.8" font-weight="bold" lengthAdjust="spacing" textLength="8.4" x="29.7" y="534.9053">16</text><text fill="#000000" font-family="sans-serif" font-size="7.8" lengthAdjust="spacing" textLength="161.4" x="40.5" y="534.9053">displays all future exams of the chosen course</text><!--SRC=[ZLNRRjim37tNLn1zIe2i7s2q1R8immfqQv7BzZYe5jC8SonFajFcxqTHliTfzn0WadZE8QL3MfRUvENX6QqGClN6mjNQbmfpVmNImKQ8GbglKrt8tCFLWtR-Q-bBYyitUN3RUuxQtiFDJM7H4KnwRVAxktTX2vDxQx8CBSCNczK34SYYo7GwYf-NVa_SrUaQxL6doDZvTlEDi2vk3N4BKrg7GRsBMVnUhtvU1eKKXv3bnv0OHtyeJ9c3r6TLB7Cg-b1VRREw61-pZodptmyYlsmUg_heNuZrPYpHEcpP2nDAUlaiIIIIhR0mJfCXJY5sjNoYIDli4Q29h_pI1wpVGumfB0ZmU14Hykx7Bz-Fho_th8mpZDZ0fpkoS08M_vRel0DluAZn5SXqi6FR0WRVWiv1GihPXsxHH-cHe88QW3Y2ZnF8yNM2lNHdWEVfpC0DxsrMKRSxqrOba0k5_NLFE88Tt48Mt1lPurMxoP19SDCHbXie0Tbs6AejsJpGc9SNL3eFor_Qxv_G7hHpr84zli3GpOpNDJtx8Abh9TATpjNdKw3CvG4dPxhNPNqqxMW4cgu6hnkHyAn9UyckaQakuJkcCZSlLXPxdVxWQJSYh4EezgUUSA3k2lDQPCOKiADXIGVxLbW0oCo3thLRrzhDqnGB4g4xgnCUFfXKQj92udulZT7N1v9HWduGyX5dvy4S9BP9s12ESilOql8eTIQVCsmoaCGXtHzsliCCKmycnouXcRnjb1ZYc4oXqnRLM5TKxWo8U4gLHkYa4fvHHobyc_QD77ljjcez_c9KW8ikvlaSwvndMVpKHEjVW3D0nB4UyD52mJN_YHyQ8suCZ45OUYM0LYTy7nAwPXgzF2McVDwoD8WGo8M58SrJXVUxRymb33OhWiOKtIEE7nqXqILAkoAJfsYKtjmpEtxhT6_e4ry_zJy0]--></g></svg>