<?xml version="1.0" encoding="us-ascii" standalone="no"?><svg xmlns="http://www.w3.org/2000/svg" xmlns:xlink="http://www.w3.org/1999/xlink" contentStyleType="text/css" height="498px" preserveAspectRatio="none" style="width:1085px;height:498px;background:#FFFFFF;" version="1.1" viewBox="0 0 1085 498" width="1085.5px" zoomAndPan="magnify"><defs/><g><!--class ListFutureExamsUI--><g id="elem_ListFutureExamsUI"><rect codeLine="2" fill="#F1F1F1" height="24" id="ListFutureExamsUI" rx="1.25" ry="1.25" style="stroke:#181818;stroke-width:0.25;" width="74.5" x="485.25" y="3.5"/><ellipse cx="492.75" cy="11.5" fill="#ADD1B2" rx="5.5" ry="5.5" style="stroke:#181818;stroke-width:0.5;"/><path d="M494.1328,9.4375 Q494.2109,9.3281 494.3047,9.2734 Q494.3984,9.2188 494.5078,9.2188 Q494.6953,9.2188 494.8125,9.3516 Q494.9297,9.4766 494.9297,9.7813 L494.9297,10.5078 Q494.9297,10.8125 494.8125,10.9453 Q494.6953,11.0781 494.5078,11.0781 Q494.3359,11.0781 494.2344,10.9766 Q494.1328,10.8828 494.0781,10.625 Q494.0547,10.4453 493.9609,10.3516 Q493.7969,10.1641 493.4922,10.0547 Q493.1875,9.9453 492.875,9.9453 Q492.4922,9.9453 492.1719,10.1094 Q491.8594,10.2734 491.6094,10.6484 Q491.3672,11.0234 491.3672,11.5391 L491.3672,12.0859 Q491.3672,12.7031 491.8125,13.1172 Q492.2578,13.5234 493.0547,13.5234 Q493.5234,13.5234 493.8516,13.3984 Q494.0469,13.3203 494.2578,13.1016 Q494.3906,12.9688 494.4609,12.9297 Q494.5391,12.8906 494.6406,12.8906 Q494.8047,12.8906 494.9297,13.0234 Q495.0625,13.1484 495.0625,13.3203 Q495.0625,13.4922 494.8906,13.6953 Q494.6406,13.9844 494.2422,14.1484 Q493.7031,14.375 493.0547,14.375 Q492.2969,14.375 491.6953,14.0625 Q491.2031,13.8125 490.8594,13.2813 Q490.5156,12.7422 490.5156,12.1016 L490.5156,11.5234 Q490.5156,10.8594 490.8203,10.2891 Q491.1328,9.7109 491.6797,9.4063 Q492.2266,9.0938 492.8438,9.0938 Q493.2109,9.0938 493.5313,9.1797 Q493.8594,9.2578 494.1328,9.4375 Z " fill="#000000"/><text fill="#000000" font-family="sans-serif" font-size="7" lengthAdjust="spacing" textLength="58.5" x="499.75" y="14.3984">ListFutureExamsUI</text><line style="stroke:#181818;stroke-width:0.25;" x1="485.75" x2="559.25" y1="19.5" y2="19.5"/><line style="stroke:#181818;stroke-width:0.25;" x1="485.75" x2="559.25" y1="23.5" y2="23.5"/></g><!--class ListFutureExamsController--><g id="elem_ListFutureExamsController"><rect codeLine="6" fill="#F1F1F1" height="117.1055" id="ListFutureExamsController" rx="1.25" ry="1.25" style="stroke:#181818;stroke-width:0.25;" width="252.5" x="305.25" y="57.5"/><ellipse cx="387.625" cy="65.5" fill="#ADD1B2" rx="5.5" ry="5.5" style="stroke:#181818;stroke-width:0.5;"/><path d="M389.0078,63.4375 Q389.0859,63.3281 389.1797,63.2734 Q389.2734,63.2188 389.3828,63.2188 Q389.5703,63.2188 389.6875,63.3516 Q389.8047,63.4766 389.8047,63.7813 L389.8047,64.5078 Q389.8047,64.8125 389.6875,64.9453 Q389.5703,65.0781 389.3828,65.0781 Q389.2109,65.0781 389.1094,64.9766 Q389.0078,64.8828 388.9531,64.625 Q388.9297,64.4453 388.8359,64.3516 Q388.6719,64.1641 388.3672,64.0547 Q388.0625,63.9453 387.75,63.9453 Q387.3672,63.9453 387.0469,64.1094 Q386.7344,64.2734 386.4844,64.6484 Q386.2422,65.0234 386.2422,65.5391 L386.2422,66.0859 Q386.2422,66.7031 386.6875,67.1172 Q387.1328,67.5234 387.9297,67.5234 Q388.3984,67.5234 388.7266,67.3984 Q388.9219,67.3203 389.1328,67.1016 Q389.2656,66.9688 389.3359,66.9297 Q389.4141,66.8906 389.5156,66.8906 Q389.6797,66.8906 389.8047,67.0234 Q389.9375,67.1484 389.9375,67.3203 Q389.9375,67.4922 389.7656,67.6953 Q389.5156,67.9844 389.1172,68.1484 Q388.5781,68.375 387.9297,68.375 Q387.1719,68.375 386.5703,68.0625 Q386.0781,67.8125 385.7344,67.2813 Q385.3906,66.7422 385.3906,66.1016 L385.3906,65.5234 Q385.3906,64.8594 385.6953,64.2891 Q386.0078,63.7109 386.5547,63.4063 Q387.1016,63.0938 387.7188,63.0938 Q388.0859,63.0938 388.4063,63.1797 Q388.7344,63.2578 389.0078,63.4375 Z " fill="#000000"/><text fill="#000000" font-family="sans-serif" font-size="7" lengthAdjust="spacing" textLength="83.5" x="397.875" y="68.3984">ListFutureExamsController</text><line style="stroke:#181818;stroke-width:0.25;" x1="305.75" x2="557.25" y1="73.5" y2="73.5"/><rect fill="none" height="3" style="stroke:#C82930;stroke-width:0.5;" width="3" x="309.25" y="79.4053"/><text fill="#000000" font-family="sans-serif" font-size="7" lengthAdjust="spacing" textLength="65.5" x="315.25" y="83.0537">enrolmentRepository</text><rect fill="none" height="3" style="stroke:#C82930;stroke-width:0.5;" width="3" x="309.25" y="88.7158"/><text fill="#000000" font-family="sans-serif" font-size="7" lengthAdjust="spacing" textLength="55.5" x="315.25" y="92.3643">courseRepository</text><rect fill="none" height="3" style="stroke:#C82930;stroke-width:0.5;" width="3" x="309.25" y="98.0264"/><text fill="#000000" font-family="sans-serif" font-size="7" lengthAdjust="spacing" textLength="57.5" x="315.25" y="101.6748">studentRepository</text><rect fill="none" height="3" style="stroke:#C82930;stroke-width:0.5;" width="3" x="309.25" y="107.3369"/><text fill="#000000" font-family="sans-serif" font-size="7" lengthAdjust="spacing" textLength="64" x="315.25" y="110.9854">authorizationService</text><rect fill="none" height="3" style="stroke:#C82930;stroke-width:0.5;" width="3" x="309.25" y="116.6475"/><text fill="#000000" font-family="sans-serif" font-size="7" lengthAdjust="spacing" textLength="51" x="315.25" y="120.2959">examListService</text><line style="stroke:#181818;stroke-width:0.25;" x1="305.75" x2="557.25" y1="124.0527" y2="124.0527"/><ellipse cx="310.75" cy="131.458" fill="#84BE84" rx="1.5" ry="1.5" style="stroke:#038048;stroke-width:0.5;"/><text fill="#000000" font-family="sans-serif" font-size="7" lengthAdjust="spacing" textLength="239.5" x="315.25" y="133.6064">ListFutureExamsController(authorizationService, evaluationExamRepository,</text><text fill="#000000" font-family="sans-serif" font-size="7" lengthAdjust="spacing" textLength="189" x="315.25" y="142.917">enrolmentRepository, courseRepository, studentRepository)</text><text fill="#000000" font-family="sans-serif" font-size="7" lengthAdjust="spacing" textLength="2" x="315.25" y="152.2275">&#160;</text><ellipse cx="310.75" cy="159.3896" fill="#84BE84" rx="1.5" ry="1.5" style="stroke:#038048;stroke-width:0.5;"/><text fill="#000000" font-family="sans-serif" font-size="7" lengthAdjust="spacing" textLength="64.5" x="315.25" y="161.5381">listStudentCourses()</text><ellipse cx="310.75" cy="168.7002" fill="#84BE84" rx="1.5" ry="1.5" style="stroke:#038048;stroke-width:0.5;"/><text fill="#000000" font-family="sans-serif" font-size="7" lengthAdjust="spacing" textLength="80.5" x="315.25" y="170.8486">futureExams(courseDTO)</text></g><!--class StudentRepository--><g id="elem_StudentRepository"><rect codeLine="19" fill="#F1F1F1" height="33.3105" id="StudentRepository" rx="1.25" ry="1.25" style="stroke:#181818;stroke-width:0.25;" width="101" x="637.5" y="365.5"/><ellipse cx="656.925" cy="373.5" fill="#B4A7E5" rx="5.5" ry="5.5" style="stroke:#181818;stroke-width:0.5;"/><path d="M657.4016,371.8203 L657.4016,375.1484 L658.2609,375.1484 Q658.5656,375.1484 658.6984,375.2656 Q658.8313,375.3828 658.8313,375.5781 Q658.8313,375.7656 658.6984,375.8828 Q658.5656,376 658.2609,376 L655.6906,376 Q655.3859,376 655.2531,375.8828 Q655.1203,375.7656 655.1203,375.5703 Q655.1203,375.3828 655.2531,375.2656 Q655.3859,375.1484 655.6906,375.1484 L656.55,375.1484 L656.55,371.8203 L655.6906,371.8203 Q655.3859,371.8203 655.2531,371.7031 Q655.1203,371.5859 655.1203,371.3906 Q655.1203,371.2031 655.2531,371.0859 Q655.3859,370.9688 655.6906,370.9688 L658.2609,370.9688 Q658.5656,370.9688 658.6984,371.0859 Q658.8313,371.2031 658.8313,371.3906 Q658.8313,371.5859 658.6984,371.7031 Q658.5656,371.8203 658.2609,371.8203 L657.4016,371.8203 Z " fill="#000000"/><text fill="#000000" font-family="sans-serif" font-size="7" font-style="italic" lengthAdjust="spacing" textLength="58.5" x="666.575" y="376.3984">StudentRepository</text><line style="stroke:#181818;stroke-width:0.25;" x1="638" x2="738" y1="381.5" y2="381.5"/><line style="stroke:#181818;stroke-width:0.25;" x1="638" x2="738" y1="385.5" y2="385.5"/><ellipse cx="643" cy="392.9053" fill="#84BE84" rx="1.5" ry="1.5" style="stroke:#038048;stroke-width:0.5;"/><text fill="#000000" font-family="sans-serif" font-size="7" lengthAdjust="spacing" textLength="88" x="647.5" y="395.0537">findByUsername(username)</text></g><!--class InMemoryStudentRepository--><g id="elem_InMemoryStudentRepository"><rect codeLine="23" fill="#F1F1F1" height="33.3105" id="InMemoryStudentRepository" rx="1.25" ry="1.25" style="stroke:#181818;stroke-width:0.25;" width="105" x="635.5" y="461.5"/><ellipse cx="643" cy="469.5" fill="#ADD1B2" rx="5.5" ry="5.5" style="stroke:#181818;stroke-width:0.5;"/><path d="M644.3828,467.4375 Q644.4609,467.3281 644.5547,467.2734 Q644.6484,467.2188 644.7578,467.2188 Q644.9453,467.2188 645.0625,467.3516 Q645.1797,467.4766 645.1797,467.7813 L645.1797,468.5078 Q645.1797,468.8125 645.0625,468.9453 Q644.9453,469.0781 644.7578,469.0781 Q644.5859,469.0781 644.4844,468.9766 Q644.3828,468.8828 644.3281,468.625 Q644.3047,468.4453 644.2109,468.3516 Q644.0469,468.1641 643.7422,468.0547 Q643.4375,467.9453 643.125,467.9453 Q642.7422,467.9453 642.4219,468.1094 Q642.1094,468.2734 641.8594,468.6484 Q641.6172,469.0234 641.6172,469.5391 L641.6172,470.0859 Q641.6172,470.7031 642.0625,471.1172 Q642.5078,471.5234 643.3047,471.5234 Q643.7734,471.5234 644.1016,471.3984 Q644.2969,471.3203 644.5078,471.1016 Q644.6406,470.9688 644.7109,470.9297 Q644.7891,470.8906 644.8906,470.8906 Q645.0547,470.8906 645.1797,471.0234 Q645.3125,471.1484 645.3125,471.3203 Q645.3125,471.4922 645.1406,471.6953 Q644.8906,471.9844 644.4922,472.1484 Q643.9531,472.375 643.3047,472.375 Q642.5469,472.375 641.9453,472.0625 Q641.4531,471.8125 641.1094,471.2813 Q640.7656,470.7422 640.7656,470.1016 L640.7656,469.5234 Q640.7656,468.8594 641.0703,468.2891 Q641.3828,467.7109 641.9297,467.4063 Q642.4766,467.0938 643.0938,467.0938 Q643.4609,467.0938 643.7813,467.1797 Q644.1094,467.2578 644.3828,467.4375 Z " fill="#000000"/><text fill="#000000" font-family="sans-serif" font-size="7" lengthAdjust="spacing" textLength="89" x="650" y="472.3984">InMemoryStudentRepository</text><line style="stroke:#181818;stroke-width:0.25;" x1="636" x2="740" y1="477.5" y2="477.5"/><line style="stroke:#181818;stroke-width:0.25;" x1="636" x2="740" y1="481.5" y2="481.5"/><ellipse cx="641" cy="488.9053" fill="#84BE84" rx="1.5" ry="1.5" style="stroke:#038048;stroke-width:0.5;"/><text fill="#000000" font-family="sans-serif" font-size="7" lengthAdjust="spacing" textLength="88" x="645.5" y="491.0537">findByUsername(username)</text></g><!--class JpaStudentRepository--><g id="elem_JpaStudentRepository"><rect codeLine="27" fill="#F1F1F1" height="33.3105" id="JpaStudentRepository" rx="1.25" ry="1.25" style="stroke:#181818;stroke-width:0.25;" width="101" x="758" y="461.5"/><ellipse cx="772.475" cy="469.5" fill="#ADD1B2" rx="5.5" ry="5.5" style="stroke:#181818;stroke-width:0.5;"/><path d="M773.8578,467.4375 Q773.9359,467.3281 774.0297,467.2734 Q774.1234,467.2188 774.2328,467.2188 Q774.4203,467.2188 774.5375,467.3516 Q774.6547,467.4766 774.6547,467.7813 L774.6547,468.5078 Q774.6547,468.8125 774.5375,468.9453 Q774.4203,469.0781 774.2328,469.0781 Q774.0609,469.0781 773.9594,468.9766 Q773.8578,468.8828 773.8031,468.625 Q773.7797,468.4453 773.6859,468.3516 Q773.5219,468.1641 773.2172,468.0547 Q772.9125,467.9453 772.6,467.9453 Q772.2172,467.9453 771.8969,468.1094 Q771.5844,468.2734 771.3344,468.6484 Q771.0922,469.0234 771.0922,469.5391 L771.0922,470.0859 Q771.0922,470.7031 771.5375,471.1172 Q771.9828,471.5234 772.7797,471.5234 Q773.2484,471.5234 773.5766,471.3984 Q773.7719,471.3203 773.9828,471.1016 Q774.1156,470.9688 774.1859,470.9297 Q774.2641,470.8906 774.3656,470.8906 Q774.5297,470.8906 774.6547,471.0234 Q774.7875,471.1484 774.7875,471.3203 Q774.7875,471.4922 774.6156,471.6953 Q774.3656,471.9844 773.9672,472.1484 Q773.4281,472.375 772.7797,472.375 Q772.0219,472.375 771.4203,472.0625 Q770.9281,471.8125 770.5844,471.2813 Q770.2406,470.7422 770.2406,470.1016 L770.2406,469.5234 Q770.2406,468.8594 770.5453,468.2891 Q770.8578,467.7109 771.4047,467.4063 Q771.9516,467.0938 772.5688,467.0938 Q772.9359,467.0938 773.2563,467.1797 Q773.5844,467.2578 773.8578,467.4375 Z " fill="#000000"/><text fill="#000000" font-family="sans-serif" font-size="7" lengthAdjust="spacing" textLength="69.5" x="781.025" y="472.3984">JpaStudentRepository</text><line style="stroke:#181818;stroke-width:0.25;" x1="758.5" x2="858.5" y1="477.5" y2="477.5"/><line style="stroke:#181818;stroke-width:0.25;" x1="758.5" x2="858.5" y1="481.5" y2="481.5"/><ellipse cx="763.5" cy="488.9053" fill="#84BE84" rx="1.5" ry="1.5" style="stroke:#038048;stroke-width:0.5;"/><text fill="#000000" font-family="sans-serif" font-size="7" lengthAdjust="spacing" textLength="88" x="768" y="491.0537">findByUsername(username)</text></g><!--class Course--><g id="elem_Course"><rect codeLine="31" fill="#F1F1F1" height="98.4844" id="Course" rx="1.25" ry="1.25" style="stroke:#181818;stroke-width:0.25;" width="83" x="263.5" y="204.5"/><ellipse cx="291.375" cy="212.5" fill="#ADD1B2" rx="5.5" ry="5.5" style="stroke:#181818;stroke-width:0.5;"/><path d="M292.7578,210.4375 Q292.8359,210.3281 292.9297,210.2734 Q293.0234,210.2188 293.1328,210.2188 Q293.3203,210.2188 293.4375,210.3516 Q293.5547,210.4766 293.5547,210.7813 L293.5547,211.5078 Q293.5547,211.8125 293.4375,211.9453 Q293.3203,212.0781 293.1328,212.0781 Q292.9609,212.0781 292.8594,211.9766 Q292.7578,211.8828 292.7031,211.625 Q292.6797,211.4453 292.5859,211.3516 Q292.4219,211.1641 292.1172,211.0547 Q291.8125,210.9453 291.5,210.9453 Q291.1172,210.9453 290.7969,211.1094 Q290.4844,211.2734 290.2344,211.6484 Q289.9922,212.0234 289.9922,212.5391 L289.9922,213.0859 Q289.9922,213.7031 290.4375,214.1172 Q290.8828,214.5234 291.6797,214.5234 Q292.1484,214.5234 292.4766,214.3984 Q292.6719,214.3203 292.8828,214.1016 Q293.0156,213.9688 293.0859,213.9297 Q293.1641,213.8906 293.2656,213.8906 Q293.4297,213.8906 293.5547,214.0234 Q293.6875,214.1484 293.6875,214.3203 Q293.6875,214.4922 293.5156,214.6953 Q293.2656,214.9844 292.8672,215.1484 Q292.3281,215.375 291.6797,215.375 Q290.9219,215.375 290.3203,215.0625 Q289.8281,214.8125 289.4844,214.2813 Q289.1406,213.7422 289.1406,213.1016 L289.1406,212.5234 Q289.1406,211.8594 289.4453,211.2891 Q289.7578,210.7109 290.3047,210.4063 Q290.8516,210.0938 291.4688,210.0938 Q291.8359,210.0938 292.1563,210.1797 Q292.4844,210.2578 292.7578,210.4375 Z " fill="#000000"/><text fill="#000000" font-family="sans-serif" font-size="7" lengthAdjust="spacing" textLength="23" x="301.625" y="215.3984">Course</text><line style="stroke:#181818;stroke-width:0.25;" x1="264" x2="346" y1="220.5" y2="220.5"/><rect fill="none" height="3" style="stroke:#C82930;stroke-width:0.5;" width="3" x="267.5" y="226.4053"/><text fill="#000000" font-family="sans-serif" font-size="7" lengthAdjust="spacing" textLength="15.5" x="273.5" y="230.0537">code</text><rect fill="none" height="3" style="stroke:#C82930;stroke-width:0.5;" width="3" x="267.5" y="235.7158"/><text fill="#000000" font-family="sans-serif" font-size="7" lengthAdjust="spacing" textLength="11" x="273.5" y="239.3643">title</text><rect fill="none" height="3" style="stroke:#C82930;stroke-width:0.5;" width="3" x="267.5" y="245.0264"/><text fill="#000000" font-family="sans-serif" font-size="7" lengthAdjust="spacing" textLength="34.5" x="273.5" y="248.6748">description</text><rect fill="none" height="3" style="stroke:#C82930;stroke-width:0.5;" width="3" x="267.5" y="254.3369"/><text fill="#000000" font-family="sans-serif" font-size="7" lengthAdjust="spacing" textLength="49.5" x="273.5" y="257.9854">enrolmentLimits</text><rect fill="none" height="3" style="stroke:#C82930;stroke-width:0.5;" width="3" x="267.5" y="263.6475"/><text fill="#000000" font-family="sans-serif" font-size="7" lengthAdjust="spacing" textLength="38" x="273.5" y="267.2959">courseState</text><rect fill="none" height="3" style="stroke:#C82930;stroke-width:0.5;" width="3" x="267.5" y="272.958"/><text fill="#000000" font-family="sans-serif" font-size="7" lengthAdjust="spacing" textLength="70" x="273.5" y="276.6064">courseEnrolmentState</text><rect fill="none" height="3" style="stroke:#C82930;stroke-width:0.5;" width="3" x="267.5" y="282.2686"/><text fill="#000000" font-family="sans-serif" font-size="7" lengthAdjust="spacing" textLength="30.5" x="273.5" y="285.917">createdAt</text><line style="stroke:#181818;stroke-width:0.25;" x1="264" x2="346" y1="289.6738" y2="289.6738"/><ellipse cx="269" cy="297.0791" fill="#84BE84" rx="1.5" ry="1.5" style="stroke:#038048;stroke-width:0.5;"/><text fill="#000000" font-family="sans-serif" font-size="7" lengthAdjust="spacing" textLength="22" x="273.5" y="299.2275">toDto()</text></g><!--class CourseDTO--><g id="elem_CourseDTO"><rect codeLine="42" fill="#F1F1F1" height="89.1738" id="CourseDTO" rx="1.25" ry="1.25" style="stroke:#181818;stroke-width:0.25;" width="83" x="516.5" y="209.25"/><ellipse cx="537.05" cy="217.25" fill="#ADD1B2" rx="5.5" ry="5.5" style="stroke:#181818;stroke-width:0.5;"/><path d="M538.4328,215.1875 Q538.5109,215.0781 538.6047,215.0234 Q538.6984,214.9688 538.8078,214.9688 Q538.9953,214.9688 539.1125,215.1016 Q539.2297,215.2266 539.2297,215.5313 L539.2297,216.2578 Q539.2297,216.5625 539.1125,216.6953 Q538.9953,216.8281 538.8078,216.8281 Q538.6359,216.8281 538.5344,216.7266 Q538.4328,216.6328 538.3781,216.375 Q538.3547,216.1953 538.2609,216.1016 Q538.0969,215.9141 537.7922,215.8047 Q537.4875,215.6953 537.175,215.6953 Q536.7922,215.6953 536.4719,215.8594 Q536.1594,216.0234 535.9094,216.3984 Q535.6672,216.7734 535.6672,217.2891 L535.6672,217.8359 Q535.6672,218.4531 536.1125,218.8672 Q536.5578,219.2734 537.3547,219.2734 Q537.8234,219.2734 538.1516,219.1484 Q538.3469,219.0703 538.5578,218.8516 Q538.6906,218.7188 538.7609,218.6797 Q538.8391,218.6406 538.9406,218.6406 Q539.1047,218.6406 539.2297,218.7734 Q539.3625,218.8984 539.3625,219.0703 Q539.3625,219.2422 539.1906,219.4453 Q538.9406,219.7344 538.5422,219.8984 Q538.0031,220.125 537.3547,220.125 Q536.5969,220.125 535.9953,219.8125 Q535.5031,219.5625 535.1594,219.0313 Q534.8156,218.4922 534.8156,217.8516 L534.8156,217.2734 Q534.8156,216.6094 535.1203,216.0391 Q535.4328,215.4609 535.9797,215.1563 Q536.5266,214.8438 537.1438,214.8438 Q537.5109,214.8438 537.8313,214.9297 Q538.1594,215.0078 538.4328,215.1875 Z " fill="#000000"/><text fill="#000000" font-family="sans-serif" font-size="7" lengthAdjust="spacing" textLength="38" x="546.95" y="220.1484">CourseDTO</text><line style="stroke:#181818;stroke-width:0.25;" x1="517" x2="599" y1="225.25" y2="225.25"/><rect fill="none" height="3" style="stroke:#C82930;stroke-width:0.5;" width="3" x="520.5" y="231.1553"/><text fill="#000000" font-family="sans-serif" font-size="7" lengthAdjust="spacing" textLength="15.5" x="526.5" y="234.8037">code</text><rect fill="none" height="3" style="stroke:#C82930;stroke-width:0.5;" width="3" x="520.5" y="240.4658"/><text fill="#000000" font-family="sans-serif" font-size="7" lengthAdjust="spacing" textLength="11" x="526.5" y="244.1143">title</text><rect fill="none" height="3" style="stroke:#C82930;stroke-width:0.5;" width="3" x="520.5" y="249.7764"/><text fill="#000000" font-family="sans-serif" font-size="7" lengthAdjust="spacing" textLength="34.5" x="526.5" y="253.4248">description</text><rect fill="none" height="3" style="stroke:#C82930;stroke-width:0.5;" width="3" x="520.5" y="259.0869"/><text fill="#000000" font-family="sans-serif" font-size="7" lengthAdjust="spacing" textLength="49.5" x="526.5" y="262.7354">enrolmentLimits</text><rect fill="none" height="3" style="stroke:#C82930;stroke-width:0.5;" width="3" x="520.5" y="268.3975"/><text fill="#000000" font-family="sans-serif" font-size="7" lengthAdjust="spacing" textLength="38" x="526.5" y="272.0459">courseState</text><rect fill="none" height="3" style="stroke:#C82930;stroke-width:0.5;" width="3" x="520.5" y="277.708"/><text fill="#000000" font-family="sans-serif" font-size="7" lengthAdjust="spacing" textLength="70" x="526.5" y="281.3564">courseEnrolmentState</text><rect fill="none" height="3" style="stroke:#C82930;stroke-width:0.5;" width="3" x="520.5" y="287.0186"/><text fill="#000000" font-family="sans-serif" font-size="7" lengthAdjust="spacing" textLength="30.5" x="526.5" y="290.667">createdAt</text><line style="stroke:#181818;stroke-width:0.25;" x1="517" x2="599" y1="294.4238" y2="294.4238"/></g><!--class CourseRepository--><g id="elem_CourseRepository"><rect codeLine="52" fill="#F1F1F1" height="33.3105" id="CourseRepository" rx="1.25" ry="1.25" style="stroke:#181818;stroke-width:0.25;" width="73" x="892" y="365.5"/><ellipse cx="899.5" cy="373.5" fill="#B4A7E5" rx="5.5" ry="5.5" style="stroke:#181818;stroke-width:0.5;"/><path d="M899.9766,371.8203 L899.9766,375.1484 L900.8359,375.1484 Q901.1406,375.1484 901.2734,375.2656 Q901.4063,375.3828 901.4063,375.5781 Q901.4063,375.7656 901.2734,375.8828 Q901.1406,376 900.8359,376 L898.2656,376 Q897.9609,376 897.8281,375.8828 Q897.6953,375.7656 897.6953,375.5703 Q897.6953,375.3828 897.8281,375.2656 Q897.9609,375.1484 898.2656,375.1484 L899.125,375.1484 L899.125,371.8203 L898.2656,371.8203 Q897.9609,371.8203 897.8281,371.7031 Q897.6953,371.5859 897.6953,371.3906 Q897.6953,371.2031 897.8281,371.0859 Q897.9609,370.9688 898.2656,370.9688 L900.8359,370.9688 Q901.1406,370.9688 901.2734,371.0859 Q901.4063,371.2031 901.4063,371.3906 Q901.4063,371.5859 901.2734,371.7031 Q901.1406,371.8203 900.8359,371.8203 L899.9766,371.8203 Z " fill="#000000"/><text fill="#000000" font-family="sans-serif" font-size="7" font-style="italic" lengthAdjust="spacing" textLength="57" x="906.5" y="376.3984">CourseRepository</text><line style="stroke:#181818;stroke-width:0.25;" x1="892.5" x2="964.5" y1="381.5" y2="381.5"/><line style="stroke:#181818;stroke-width:0.25;" x1="892.5" x2="964.5" y1="385.5" y2="385.5"/><ellipse cx="897.5" cy="392.9053" fill="#84BE84" rx="1.5" ry="1.5" style="stroke:#038048;stroke-width:0.5;"/><text fill="#000000" font-family="sans-serif" font-size="7" lengthAdjust="spacing" textLength="57" x="902" y="395.0537">findByCode(code)</text></g><!--class InMemoryCourseRepository--><g id="elem_InMemoryCourseRepository"><rect codeLine="56" fill="#F1F1F1" height="33.3105" id="InMemoryCourseRepository" rx="1.25" ry="1.25" style="stroke:#181818;stroke-width:0.25;" width="103.5" x="876.75" y="461.5"/><ellipse cx="884.25" cy="469.5" fill="#ADD1B2" rx="5.5" ry="5.5" style="stroke:#181818;stroke-width:0.5;"/><path d="M885.6328,467.4375 Q885.7109,467.3281 885.8047,467.2734 Q885.8984,467.2188 886.0078,467.2188 Q886.1953,467.2188 886.3125,467.3516 Q886.4297,467.4766 886.4297,467.7813 L886.4297,468.5078 Q886.4297,468.8125 886.3125,468.9453 Q886.1953,469.0781 886.0078,469.0781 Q885.8359,469.0781 885.7344,468.9766 Q885.6328,468.8828 885.5781,468.625 Q885.5547,468.4453 885.4609,468.3516 Q885.2969,468.1641 884.9922,468.0547 Q884.6875,467.9453 884.375,467.9453 Q883.9922,467.9453 883.6719,468.1094 Q883.3594,468.2734 883.1094,468.6484 Q882.8672,469.0234 882.8672,469.5391 L882.8672,470.0859 Q882.8672,470.7031 883.3125,471.1172 Q883.7578,471.5234 884.5547,471.5234 Q885.0234,471.5234 885.3516,471.3984 Q885.5469,471.3203 885.7578,471.1016 Q885.8906,470.9688 885.9609,470.9297 Q886.0391,470.8906 886.1406,470.8906 Q886.3047,470.8906 886.4297,471.0234 Q886.5625,471.1484 886.5625,471.3203 Q886.5625,471.4922 886.3906,471.6953 Q886.1406,471.9844 885.7422,472.1484 Q885.2031,472.375 884.5547,472.375 Q883.7969,472.375 883.1953,472.0625 Q882.7031,471.8125 882.3594,471.2813 Q882.0156,470.7422 882.0156,470.1016 L882.0156,469.5234 Q882.0156,468.8594 882.3203,468.2891 Q882.6328,467.7109 883.1797,467.4063 Q883.7266,467.0938 884.3438,467.0938 Q884.7109,467.0938 885.0313,467.1797 Q885.3594,467.2578 885.6328,467.4375 Z " fill="#000000"/><text fill="#000000" font-family="sans-serif" font-size="7" lengthAdjust="spacing" textLength="87.5" x="891.25" y="472.3984">InMemoryCourseRepository</text><line style="stroke:#181818;stroke-width:0.25;" x1="877.25" x2="979.75" y1="477.5" y2="477.5"/><line style="stroke:#181818;stroke-width:0.25;" x1="877.25" x2="979.75" y1="481.5" y2="481.5"/><ellipse cx="882.25" cy="488.9053" fill="#84BE84" rx="1.5" ry="1.5" style="stroke:#038048;stroke-width:0.5;"/><text fill="#000000" font-family="sans-serif" font-size="7" lengthAdjust="spacing" textLength="57" x="886.75" y="491.0537">findByCode(code)</text></g><!--class JpaCourseRepository--><g id="elem_JpaCourseRepository"><rect codeLine="60" fill="#F1F1F1" height="33.3105" id="JpaCourseRepository" rx="1.25" ry="1.25" style="stroke:#181818;stroke-width:0.25;" width="84" x="998" y="461.5"/><ellipse cx="1005.5" cy="469.5" fill="#ADD1B2" rx="5.5" ry="5.5" style="stroke:#181818;stroke-width:0.5;"/><path d="M1006.8828,467.4375 Q1006.9609,467.3281 1007.0547,467.2734 Q1007.1484,467.2188 1007.2578,467.2188 Q1007.4453,467.2188 1007.5625,467.3516 Q1007.6797,467.4766 1007.6797,467.7813 L1007.6797,468.5078 Q1007.6797,468.8125 1007.5625,468.9453 Q1007.4453,469.0781 1007.2578,469.0781 Q1007.0859,469.0781 1006.9844,468.9766 Q1006.8828,468.8828 1006.8281,468.625 Q1006.8047,468.4453 1006.7109,468.3516 Q1006.5469,468.1641 1006.2422,468.0547 Q1005.9375,467.9453 1005.625,467.9453 Q1005.2422,467.9453 1004.9219,468.1094 Q1004.6094,468.2734 1004.3594,468.6484 Q1004.1172,469.0234 1004.1172,469.5391 L1004.1172,470.0859 Q1004.1172,470.7031 1004.5625,471.1172 Q1005.0078,471.5234 1005.8047,471.5234 Q1006.2734,471.5234 1006.6016,471.3984 Q1006.7969,471.3203 1007.0078,471.1016 Q1007.1406,470.9688 1007.2109,470.9297 Q1007.2891,470.8906 1007.3906,470.8906 Q1007.5547,470.8906 1007.6797,471.0234 Q1007.8125,471.1484 1007.8125,471.3203 Q1007.8125,471.4922 1007.6406,471.6953 Q1007.3906,471.9844 1006.9922,472.1484 Q1006.4531,472.375 1005.8047,472.375 Q1005.0469,472.375 1004.4453,472.0625 Q1003.9531,471.8125 1003.6094,471.2813 Q1003.2656,470.7422 1003.2656,470.1016 L1003.2656,469.5234 Q1003.2656,468.8594 1003.5703,468.2891 Q1003.8828,467.7109 1004.4297,467.4063 Q1004.9766,467.0938 1005.5938,467.0938 Q1005.9609,467.0938 1006.2813,467.1797 Q1006.6094,467.2578 1006.8828,467.4375 Z " fill="#000000"/><text fill="#000000" font-family="sans-serif" font-size="7" lengthAdjust="spacing" textLength="68" x="1012.5" y="472.3984">JpaCourseRepository</text><line style="stroke:#181818;stroke-width:0.25;" x1="998.5" x2="1081.5" y1="477.5" y2="477.5"/><line style="stroke:#181818;stroke-width:0.25;" x1="998.5" x2="1081.5" y1="481.5" y2="481.5"/><ellipse cx="1003.5" cy="488.9053" fill="#84BE84" rx="1.5" ry="1.5" style="stroke:#038048;stroke-width:0.5;"/><text fill="#000000" font-family="sans-serif" font-size="7" lengthAdjust="spacing" textLength="57" x="1008" y="491.0537">findByCode(code)</text></g><!--class Exam--><g id="elem_Exam"><rect codeLine="65" fill="#F1F1F1" height="98.4844" id="Exam" rx="1.25" ry="1.25" style="stroke:#181818;stroke-width:0.25;" width="47.5" x="16.75" y="333"/><ellipse cx="30.775" cy="341" fill="#ADD1B2" rx="5.5" ry="5.5" style="stroke:#181818;stroke-width:0.5;"/><path d="M32.1578,338.9375 Q32.2359,338.8281 32.3297,338.7734 Q32.4234,338.7188 32.5328,338.7188 Q32.7203,338.7188 32.8375,338.8516 Q32.9547,338.9766 32.9547,339.2813 L32.9547,340.0078 Q32.9547,340.3125 32.8375,340.4453 Q32.7203,340.5781 32.5328,340.5781 Q32.3609,340.5781 32.2594,340.4766 Q32.1578,340.3828 32.1031,340.125 Q32.0797,339.9453 31.9859,339.8516 Q31.8219,339.6641 31.5172,339.5547 Q31.2125,339.4453 30.9,339.4453 Q30.5172,339.4453 30.1969,339.6094 Q29.8844,339.7734 29.6344,340.1484 Q29.3922,340.5234 29.3922,341.0391 L29.3922,341.5859 Q29.3922,342.2031 29.8375,342.6172 Q30.2828,343.0234 31.0797,343.0234 Q31.5484,343.0234 31.8766,342.8984 Q32.0719,342.8203 32.2828,342.6016 Q32.4156,342.4688 32.4859,342.4297 Q32.5641,342.3906 32.6656,342.3906 Q32.8297,342.3906 32.9547,342.5234 Q33.0875,342.6484 33.0875,342.8203 Q33.0875,342.9922 32.9156,343.1953 Q32.6656,343.4844 32.2672,343.6484 Q31.7281,343.875 31.0797,343.875 Q30.3219,343.875 29.7203,343.5625 Q29.2281,343.3125 28.8844,342.7813 Q28.5406,342.2422 28.5406,341.6016 L28.5406,341.0234 Q28.5406,340.3594 28.8453,339.7891 Q29.1578,339.2109 29.7047,338.9063 Q30.2516,338.5938 30.8688,338.5938 Q31.2359,338.5938 31.5563,338.6797 Q31.8844,338.7578 32.1578,338.9375 Z " fill="#000000"/><text fill="#000000" font-family="sans-serif" font-size="7" lengthAdjust="spacing" textLength="17" x="39.225" y="343.8984">Exam</text><line style="stroke:#181818;stroke-width:0.25;" x1="17.25" x2="63.75" y1="349" y2="349"/><rect fill="none" height="3" style="stroke:#C82930;stroke-width:0.5;" width="3" x="20.75" y="354.9053"/><text fill="#000000" font-family="sans-serif" font-size="7" lengthAdjust="spacing" textLength="15.5" x="26.75" y="358.5537">code</text><rect fill="none" height="3" style="stroke:#C82930;stroke-width:0.5;" width="3" x="20.75" y="364.2158"/><text fill="#000000" font-family="sans-serif" font-size="7" lengthAdjust="spacing" textLength="21.5" x="26.75" y="367.8643">course</text><rect fill="none" height="3" style="stroke:#C82930;stroke-width:0.5;" width="3" x="20.75" y="373.5264"/><text fill="#000000" font-family="sans-serif" font-size="7" lengthAdjust="spacing" textLength="24" x="26.75" y="377.1748">teacher</text><rect fill="none" height="3" style="stroke:#C82930;stroke-width:0.5;" width="3" x="20.75" y="382.8369"/><text fill="#000000" font-family="sans-serif" font-size="7" lengthAdjust="spacing" textLength="27" x="26.75" y="386.4854">identifier</text><rect fill="none" height="3" style="stroke:#C82930;stroke-width:0.5;" width="3" x="20.75" y="392.1475"/><text fill="#000000" font-family="sans-serif" font-size="7" lengthAdjust="spacing" textLength="11" x="26.75" y="395.7959">title</text><rect fill="none" height="3" style="stroke:#C82930;stroke-width:0.5;" width="3" x="20.75" y="401.458"/><text fill="#000000" font-family="sans-serif" font-size="7" lengthAdjust="spacing" textLength="34.5" x="26.75" y="405.1064">description</text><rect fill="none" height="3" style="stroke:#C82930;stroke-width:0.5;" width="3" x="20.75" y="410.7686"/><text fill="#000000" font-family="sans-serif" font-size="7" lengthAdjust="spacing" textLength="15.5" x="26.75" y="414.417">state</text><line style="stroke:#181818;stroke-width:0.25;" x1="17.25" x2="63.75" y1="418.1738" y2="418.1738"/><ellipse cx="22.25" cy="425.5791" fill="#84BE84" rx="1.5" ry="1.5" style="stroke:#038048;stroke-width:0.5;"/><text fill="#000000" font-family="sans-serif" font-size="7" lengthAdjust="spacing" textLength="22" x="26.75" y="427.7275">toDto()</text></g><!--class ExamDTO--><g id="elem_ExamDTO"><rect codeLine="76" fill="#F1F1F1" height="89.1738" id="ExamDTO" rx="1.25" ry="1.25" style="stroke:#181818;stroke-width:0.25;" width="48" x="82" y="337.75"/><ellipse cx="89.5" cy="345.75" fill="#ADD1B2" rx="5.5" ry="5.5" style="stroke:#181818;stroke-width:0.5;"/><path d="M90.8828,343.6875 Q90.9609,343.5781 91.0547,343.5234 Q91.1484,343.4688 91.2578,343.4688 Q91.4453,343.4688 91.5625,343.6016 Q91.6797,343.7266 91.6797,344.0313 L91.6797,344.7578 Q91.6797,345.0625 91.5625,345.1953 Q91.4453,345.3281 91.2578,345.3281 Q91.0859,345.3281 90.9844,345.2266 Q90.8828,345.1328 90.8281,344.875 Q90.8047,344.6953 90.7109,344.6016 Q90.5469,344.4141 90.2422,344.3047 Q89.9375,344.1953 89.625,344.1953 Q89.2422,344.1953 88.9219,344.3594 Q88.6094,344.5234 88.3594,344.8984 Q88.1172,345.2734 88.1172,345.7891 L88.1172,346.3359 Q88.1172,346.9531 88.5625,347.3672 Q89.0078,347.7734 89.8047,347.7734 Q90.2734,347.7734 90.6016,347.6484 Q90.7969,347.5703 91.0078,347.3516 Q91.1406,347.2188 91.2109,347.1797 Q91.2891,347.1406 91.3906,347.1406 Q91.5547,347.1406 91.6797,347.2734 Q91.8125,347.3984 91.8125,347.5703 Q91.8125,347.7422 91.6406,347.9453 Q91.3906,348.2344 90.9922,348.3984 Q90.4531,348.625 89.8047,348.625 Q89.0469,348.625 88.4453,348.3125 Q87.9531,348.0625 87.6094,347.5313 Q87.2656,346.9922 87.2656,346.3516 L87.2656,345.7734 Q87.2656,345.1094 87.5703,344.5391 Q87.8828,343.9609 88.4297,343.6563 Q88.9766,343.3438 89.5938,343.3438 Q89.9609,343.3438 90.2813,343.4297 Q90.6094,343.5078 90.8828,343.6875 Z " fill="#000000"/><text fill="#000000" font-family="sans-serif" font-size="7" lengthAdjust="spacing" textLength="32" x="96.5" y="348.6484">ExamDTO</text><line style="stroke:#181818;stroke-width:0.25;" x1="82.5" x2="129.5" y1="353.75" y2="353.75"/><rect fill="none" height="3" style="stroke:#C82930;stroke-width:0.5;" width="3" x="86" y="359.6553"/><text fill="#000000" font-family="sans-serif" font-size="7" lengthAdjust="spacing" textLength="15.5" x="92" y="363.3037">code</text><rect fill="none" height="3" style="stroke:#C82930;stroke-width:0.5;" width="3" x="86" y="368.9658"/><text fill="#000000" font-family="sans-serif" font-size="7" lengthAdjust="spacing" textLength="21.5" x="92" y="372.6143">course</text><rect fill="none" height="3" style="stroke:#C82930;stroke-width:0.5;" width="3" x="86" y="378.2764"/><text fill="#000000" font-family="sans-serif" font-size="7" lengthAdjust="spacing" textLength="24" x="92" y="381.9248">teacher</text><rect fill="none" height="3" style="stroke:#C82930;stroke-width:0.5;" width="3" x="86" y="387.5869"/><text fill="#000000" font-family="sans-serif" font-size="7" lengthAdjust="spacing" textLength="27" x="92" y="391.2354">identifier</text><rect fill="none" height="3" style="stroke:#C82930;stroke-width:0.5;" width="3" x="86" y="396.8975"/><text fill="#000000" font-family="sans-serif" font-size="7" lengthAdjust="spacing" textLength="11" x="92" y="400.5459">title</text><rect fill="none" height="3" style="stroke:#C82930;stroke-width:0.5;" width="3" x="86" y="406.208"/><text fill="#000000" font-family="sans-serif" font-size="7" lengthAdjust="spacing" textLength="34.5" x="92" y="409.8564">description</text><rect fill="none" height="3" style="stroke:#C82930;stroke-width:0.5;" width="3" x="86" y="415.5186"/><text fill="#000000" font-family="sans-serif" font-size="7" lengthAdjust="spacing" textLength="15.5" x="92" y="419.167">state</text><line style="stroke:#181818;stroke-width:0.25;" x1="82.5" x2="129.5" y1="422.9238" y2="422.9238"/></g><!--class ExamListService--><g id="elem_ExamListService"><rect codeLine="86" fill="#F1F1F1" height="42.6211" id="ExamListService" rx="1.25" ry="1.25" style="stroke:#181818;stroke-width:0.25;" width="120" x="97.5" y="232.5"/><ellipse cx="129.625" cy="240.5" fill="#ADD1B2" rx="5.5" ry="5.5" style="stroke:#181818;stroke-width:0.5;"/><path d="M131.0078,238.4375 Q131.0859,238.3281 131.1797,238.2734 Q131.2734,238.2188 131.3828,238.2188 Q131.5703,238.2188 131.6875,238.3516 Q131.8047,238.4766 131.8047,238.7813 L131.8047,239.5078 Q131.8047,239.8125 131.6875,239.9453 Q131.5703,240.0781 131.3828,240.0781 Q131.2109,240.0781 131.1094,239.9766 Q131.0078,239.8828 130.9531,239.625 Q130.9297,239.4453 130.8359,239.3516 Q130.6719,239.1641 130.3672,239.0547 Q130.0625,238.9453 129.75,238.9453 Q129.3672,238.9453 129.0469,239.1094 Q128.7344,239.2734 128.4844,239.6484 Q128.2422,240.0234 128.2422,240.5391 L128.2422,241.0859 Q128.2422,241.7031 128.6875,242.1172 Q129.1328,242.5234 129.9297,242.5234 Q130.3984,242.5234 130.7266,242.3984 Q130.9219,242.3203 131.1328,242.1016 Q131.2656,241.9688 131.3359,241.9297 Q131.4141,241.8906 131.5156,241.8906 Q131.6797,241.8906 131.8047,242.0234 Q131.9375,242.1484 131.9375,242.3203 Q131.9375,242.4922 131.7656,242.6953 Q131.5156,242.9844 131.1172,243.1484 Q130.5781,243.375 129.9297,243.375 Q129.1719,243.375 128.5703,243.0625 Q128.0781,242.8125 127.7344,242.2813 Q127.3906,241.7422 127.3906,241.1016 L127.3906,240.5234 Q127.3906,239.8594 127.6953,239.2891 Q128.0078,238.7109 128.5547,238.4063 Q129.1016,238.0938 129.7188,238.0938 Q130.0859,238.0938 130.4063,238.1797 Q130.7344,238.2578 131.0078,238.4375 Z " fill="#000000"/><text fill="#000000" font-family="sans-serif" font-size="7" lengthAdjust="spacing" textLength="51.5" x="139.875" y="243.3984">ExamListService</text><line style="stroke:#181818;stroke-width:0.25;" x1="98" x2="217" y1="248.5" y2="248.5"/><rect fill="none" height="3" style="stroke:#C82930;stroke-width:0.5;" width="3" x="101.5" y="254.4053"/><text fill="#000000" font-family="sans-serif" font-size="7" lengthAdjust="spacing" textLength="50.5" x="107.5" y="258.0537">examRepository</text><line style="stroke:#181818;stroke-width:0.25;" x1="98" x2="217" y1="261.8105" y2="261.8105"/><ellipse cx="103" cy="269.2158" fill="#84BE84" rx="1.5" ry="1.5" style="stroke:#038048;stroke-width:0.5;"/><text fill="#000000" font-family="sans-serif" font-size="7" lengthAdjust="spacing" textLength="107" x="107.5" y="271.3643">listAllFutureCourseExams(course)</text></g><!--class ListEnrolmentService--><g id="elem_ListEnrolmentService"><rect codeLine="91" fill="#F1F1F1" height="42.6211" id="ListEnrolmentService" rx="1.25" ry="1.25" style="stroke:#181818;stroke-width:0.25;" width="135" x="364" y="232.5"/><ellipse cx="396.125" cy="240.5" fill="#ADD1B2" rx="5.5" ry="5.5" style="stroke:#181818;stroke-width:0.5;"/><path d="M397.5078,238.4375 Q397.5859,238.3281 397.6797,238.2734 Q397.7734,238.2188 397.8828,238.2188 Q398.0703,238.2188 398.1875,238.3516 Q398.3047,238.4766 398.3047,238.7813 L398.3047,239.5078 Q398.3047,239.8125 398.1875,239.9453 Q398.0703,240.0781 397.8828,240.0781 Q397.7109,240.0781 397.6094,239.9766 Q397.5078,239.8828 397.4531,239.625 Q397.4297,239.4453 397.3359,239.3516 Q397.1719,239.1641 396.8672,239.0547 Q396.5625,238.9453 396.25,238.9453 Q395.8672,238.9453 395.5469,239.1094 Q395.2344,239.2734 394.9844,239.6484 Q394.7422,240.0234 394.7422,240.5391 L394.7422,241.0859 Q394.7422,241.7031 395.1875,242.1172 Q395.6328,242.5234 396.4297,242.5234 Q396.8984,242.5234 397.2266,242.3984 Q397.4219,242.3203 397.6328,242.1016 Q397.7656,241.9688 397.8359,241.9297 Q397.9141,241.8906 398.0156,241.8906 Q398.1797,241.8906 398.3047,242.0234 Q398.4375,242.1484 398.4375,242.3203 Q398.4375,242.4922 398.2656,242.6953 Q398.0156,242.9844 397.6172,243.1484 Q397.0781,243.375 396.4297,243.375 Q395.6719,243.375 395.0703,243.0625 Q394.5781,242.8125 394.2344,242.2813 Q393.8906,241.7422 393.8906,241.1016 L393.8906,240.5234 Q393.8906,239.8594 394.1953,239.2891 Q394.5078,238.7109 395.0547,238.4063 Q395.6016,238.0938 396.2188,238.0938 Q396.5859,238.0938 396.9063,238.1797 Q397.2344,238.2578 397.5078,238.4375 Z " fill="#000000"/><text fill="#000000" font-family="sans-serif" font-size="7" lengthAdjust="spacing" textLength="66.5" x="406.375" y="243.3984">ListEnrolmentService</text><line style="stroke:#181818;stroke-width:0.25;" x1="364.5" x2="498.5" y1="248.5" y2="248.5"/><rect fill="none" height="3" style="stroke:#C82930;stroke-width:0.5;" width="3" x="368" y="254.4053"/><text fill="#000000" font-family="sans-serif" font-size="7" lengthAdjust="spacing" textLength="65.5" x="374" y="258.0537">enrolmentRepository</text><line style="stroke:#181818;stroke-width:0.25;" x1="364.5" x2="498.5" y1="261.8105" y2="261.8105"/><ellipse cx="369.5" cy="269.2158" fill="#84BE84" rx="1.5" ry="1.5" style="stroke:#038048;stroke-width:0.5;"/><text fill="#000000" font-family="sans-serif" font-size="7" lengthAdjust="spacing" textLength="122" x="374" y="271.3643">findByStudentMecanographicNumber()</text></g><!--class ExamRepository--><g id="elem_ExamRepository"><rect codeLine="96" fill="#F1F1F1" height="33.3105" id="ExamRepository" rx="1.25" ry="1.25" style="stroke:#181818;stroke-width:0.25;" width="123" x="147.5" y="365.5"/><ellipse cx="181.375" cy="373.5" fill="#B4A7E5" rx="5.5" ry="5.5" style="stroke:#181818;stroke-width:0.5;"/><path d="M181.8516,371.8203 L181.8516,375.1484 L182.7109,375.1484 Q183.0156,375.1484 183.1484,375.2656 Q183.2813,375.3828 183.2813,375.5781 Q183.2813,375.7656 183.1484,375.8828 Q183.0156,376 182.7109,376 L180.1406,376 Q179.8359,376 179.7031,375.8828 Q179.5703,375.7656 179.5703,375.5703 Q179.5703,375.3828 179.7031,375.2656 Q179.8359,375.1484 180.1406,375.1484 L181,375.1484 L181,371.8203 L180.1406,371.8203 Q179.8359,371.8203 179.7031,371.7031 Q179.5703,371.5859 179.5703,371.3906 Q179.5703,371.2031 179.7031,371.0859 Q179.8359,370.9688 180.1406,370.9688 L182.7109,370.9688 Q183.0156,370.9688 183.1484,371.0859 Q183.2813,371.2031 183.2813,371.3906 Q183.2813,371.5859 183.1484,371.7031 Q183.0156,371.8203 182.7109,371.8203 L181.8516,371.8203 Z " fill="#000000"/><text fill="#000000" font-family="sans-serif" font-size="7" font-style="italic" lengthAdjust="spacing" textLength="51" x="191.625" y="376.3984">ExamRepository</text><line style="stroke:#181818;stroke-width:0.25;" x1="148" x2="270" y1="381.5" y2="381.5"/><line style="stroke:#181818;stroke-width:0.25;" x1="148" x2="270" y1="385.5" y2="385.5"/><ellipse cx="153" cy="392.9053" fill="#84BE84" rx="1.5" ry="1.5" style="stroke:#038048;stroke-width:0.5;"/><text fill="#000000" font-family="sans-serif" font-size="7" lengthAdjust="spacing" textLength="110" x="157.5" y="395.0537">findAllFutureCourseExams(course)</text></g><!--class InMemoryExamRepository--><g id="elem_InMemoryExamRepository"><rect codeLine="101" fill="#F1F1F1" height="33.3105" id="InMemoryExamRepository" rx="1.25" ry="1.25" style="stroke:#181818;stroke-width:0.25;" width="116" x="3.5" y="461.5"/><ellipse cx="19.325" cy="469.5" fill="#ADD1B2" rx="5.5" ry="5.5" style="stroke:#181818;stroke-width:0.5;"/><path d="M20.7078,467.4375 Q20.7859,467.3281 20.8797,467.2734 Q20.9734,467.2188 21.0828,467.2188 Q21.2703,467.2188 21.3875,467.3516 Q21.5047,467.4766 21.5047,467.7813 L21.5047,468.5078 Q21.5047,468.8125 21.3875,468.9453 Q21.2703,469.0781 21.0828,469.0781 Q20.9109,469.0781 20.8094,468.9766 Q20.7078,468.8828 20.6531,468.625 Q20.6297,468.4453 20.5359,468.3516 Q20.3719,468.1641 20.0672,468.0547 Q19.7625,467.9453 19.45,467.9453 Q19.0672,467.9453 18.7469,468.1094 Q18.4344,468.2734 18.1844,468.6484 Q17.9422,469.0234 17.9422,469.5391 L17.9422,470.0859 Q17.9422,470.7031 18.3875,471.1172 Q18.8328,471.5234 19.6297,471.5234 Q20.0984,471.5234 20.4266,471.3984 Q20.6219,471.3203 20.8328,471.1016 Q20.9656,470.9688 21.0359,470.9297 Q21.1141,470.8906 21.2156,470.8906 Q21.3797,470.8906 21.5047,471.0234 Q21.6375,471.1484 21.6375,471.3203 Q21.6375,471.4922 21.4656,471.6953 Q21.2156,471.9844 20.8172,472.1484 Q20.2781,472.375 19.6297,472.375 Q18.8719,472.375 18.2703,472.0625 Q17.7781,471.8125 17.4344,471.2813 Q17.0906,470.7422 17.0906,470.1016 L17.0906,469.5234 Q17.0906,468.8594 17.3953,468.2891 Q17.7078,467.7109 18.2547,467.4063 Q18.8016,467.0938 19.4188,467.0938 Q19.7859,467.0938 20.1063,467.1797 Q20.4344,467.2578 20.7078,467.4375 Z " fill="#000000"/><text fill="#000000" font-family="sans-serif" font-size="7" lengthAdjust="spacing" textLength="81.5" x="28.175" y="472.3984">InMemoryExamRepository</text><line style="stroke:#181818;stroke-width:0.25;" x1="4" x2="119" y1="477.5" y2="477.5"/><line style="stroke:#181818;stroke-width:0.25;" x1="4" x2="119" y1="481.5" y2="481.5"/><text fill="#000000" font-family="sans-serif" font-size="7" lengthAdjust="spacing" textLength="110" x="6.5" y="491.0537">findAllFutureCourseExams(course)</text></g><!--class JpaExamRepository--><g id="elem_JpaExamRepository"><rect codeLine="105" fill="#F1F1F1" height="33.3105" id="JpaExamRepository" rx="1.25" ry="1.25" style="stroke:#181818;stroke-width:0.25;" width="116" x="137" y="461.5"/><ellipse cx="161.875" cy="469.5" fill="#ADD1B2" rx="5.5" ry="5.5" style="stroke:#181818;stroke-width:0.5;"/><path d="M163.2578,467.4375 Q163.3359,467.3281 163.4297,467.2734 Q163.5234,467.2188 163.6328,467.2188 Q163.8203,467.2188 163.9375,467.3516 Q164.0547,467.4766 164.0547,467.7813 L164.0547,468.5078 Q164.0547,468.8125 163.9375,468.9453 Q163.8203,469.0781 163.6328,469.0781 Q163.4609,469.0781 163.3594,468.9766 Q163.2578,468.8828 163.2031,468.625 Q163.1797,468.4453 163.0859,468.3516 Q162.9219,468.1641 162.6172,468.0547 Q162.3125,467.9453 162,467.9453 Q161.6172,467.9453 161.2969,468.1094 Q160.9844,468.2734 160.7344,468.6484 Q160.4922,469.0234 160.4922,469.5391 L160.4922,470.0859 Q160.4922,470.7031 160.9375,471.1172 Q161.3828,471.5234 162.1797,471.5234 Q162.6484,471.5234 162.9766,471.3984 Q163.1719,471.3203 163.3828,471.1016 Q163.5156,470.9688 163.5859,470.9297 Q163.6641,470.8906 163.7656,470.8906 Q163.9297,470.8906 164.0547,471.0234 Q164.1875,471.1484 164.1875,471.3203 Q164.1875,471.4922 164.0156,471.6953 Q163.7656,471.9844 163.3672,472.1484 Q162.8281,472.375 162.1797,472.375 Q161.4219,472.375 160.8203,472.0625 Q160.3281,471.8125 159.9844,471.2813 Q159.6406,470.7422 159.6406,470.1016 L159.6406,469.5234 Q159.6406,468.8594 159.9453,468.2891 Q160.2578,467.7109 160.8047,467.4063 Q161.3516,467.0938 161.9688,467.0938 Q162.3359,467.0938 162.6563,467.1797 Q162.9844,467.2578 163.2578,467.4375 Z " fill="#000000"/><text fill="#000000" font-family="sans-serif" font-size="7" lengthAdjust="spacing" textLength="62" x="172.125" y="472.3984">JpaExamRepository</text><line style="stroke:#181818;stroke-width:0.25;" x1="137.5" x2="252.5" y1="477.5" y2="477.5"/><line style="stroke:#181818;stroke-width:0.25;" x1="137.5" x2="252.5" y1="481.5" y2="481.5"/><text fill="#000000" font-family="sans-serif" font-size="7" lengthAdjust="spacing" textLength="110" x="140" y="491.0537">findAllFutureCourseExams(course)</text></g><!--class RepositoryFactory--><g id="elem_RepositoryFactory"><rect codeLine="110" fill="#F1F1F1" height="33.3105" id="RepositoryFactory" rx="1.25" ry="1.25" style="stroke:#181818;stroke-width:0.25;" width="76" x="617" y="237"/><ellipse cx="625.4" cy="245" fill="#ADD1B2" rx="5.5" ry="5.5" style="stroke:#181818;stroke-width:0.5;"/><path d="M626.7828,242.9375 Q626.8609,242.8281 626.9547,242.7734 Q627.0484,242.7188 627.1578,242.7188 Q627.3453,242.7188 627.4625,242.8516 Q627.5797,242.9766 627.5797,243.2813 L627.5797,244.0078 Q627.5797,244.3125 627.4625,244.4453 Q627.3453,244.5781 627.1578,244.5781 Q626.9859,244.5781 626.8844,244.4766 Q626.7828,244.3828 626.7281,244.125 Q626.7047,243.9453 626.6109,243.8516 Q626.4469,243.6641 626.1422,243.5547 Q625.8375,243.4453 625.525,243.4453 Q625.1422,243.4453 624.8219,243.6094 Q624.5094,243.7734 624.2594,244.1484 Q624.0172,244.5234 624.0172,245.0391 L624.0172,245.5859 Q624.0172,246.2031 624.4625,246.6172 Q624.9078,247.0234 625.7047,247.0234 Q626.1734,247.0234 626.5016,246.8984 Q626.6969,246.8203 626.9078,246.6016 Q627.0406,246.4688 627.1109,246.4297 Q627.1891,246.3906 627.2906,246.3906 Q627.4547,246.3906 627.5797,246.5234 Q627.7125,246.6484 627.7125,246.8203 Q627.7125,246.9922 627.5406,247.1953 Q627.2906,247.4844 626.8922,247.6484 Q626.3531,247.875 625.7047,247.875 Q624.9469,247.875 624.3453,247.5625 Q623.8531,247.3125 623.5094,246.7813 Q623.1656,246.2422 623.1656,245.6016 L623.1656,245.0234 Q623.1656,244.3594 623.4703,243.7891 Q623.7828,243.2109 624.3297,242.9063 Q624.8766,242.5938 625.4938,242.5938 Q625.8609,242.5938 626.1813,242.6797 Q626.5094,242.7578 626.7828,242.9375 Z " fill="#000000"/><text fill="#000000" font-family="sans-serif" font-size="7" lengthAdjust="spacing" textLength="58" x="632.6" y="247.8984">RepositoryFactory</text><line style="stroke:#181818;stroke-width:0.25;" x1="617.5" x2="692.5" y1="253" y2="253"/><line style="stroke:#181818;stroke-width:0.25;" x1="617.5" x2="692.5" y1="257" y2="257"/><ellipse cx="622.5" cy="264.4053" fill="#84BE84" rx="1.5" ry="1.5" style="stroke:#038048;stroke-width:0.5;"/><text fill="#000000" font-family="sans-serif" font-size="7" lengthAdjust="spacing" textLength="63" x="627" y="266.5537">RepositoryFactory()</text></g><!--class PersistenceContext--><g id="elem_PersistenceContext"><rect codeLine="115" fill="#F1F1F1" height="33.3105" id="PersistenceContext" rx="1.25" ry="1.25" style="stroke:#181818;stroke-width:0.25;" width="77" x="596" y="99.25"/><ellipse cx="603.5" cy="107.25" fill="#ADD1B2" rx="5.5" ry="5.5" style="stroke:#181818;stroke-width:0.5;"/><path d="M604.8828,105.1875 Q604.9609,105.0781 605.0547,105.0234 Q605.1484,104.9688 605.2578,104.9688 Q605.4453,104.9688 605.5625,105.1016 Q605.6797,105.2266 605.6797,105.5313 L605.6797,106.2578 Q605.6797,106.5625 605.5625,106.6953 Q605.4453,106.8281 605.2578,106.8281 Q605.0859,106.8281 604.9844,106.7266 Q604.8828,106.6328 604.8281,106.375 Q604.8047,106.1953 604.7109,106.1016 Q604.5469,105.9141 604.2422,105.8047 Q603.9375,105.6953 603.625,105.6953 Q603.2422,105.6953 602.9219,105.8594 Q602.6094,106.0234 602.3594,106.3984 Q602.1172,106.7734 602.1172,107.2891 L602.1172,107.8359 Q602.1172,108.4531 602.5625,108.8672 Q603.0078,109.2734 603.8047,109.2734 Q604.2734,109.2734 604.6016,109.1484 Q604.7969,109.0703 605.0078,108.8516 Q605.1406,108.7188 605.2109,108.6797 Q605.2891,108.6406 605.3906,108.6406 Q605.5547,108.6406 605.6797,108.7734 Q605.8125,108.8984 605.8125,109.0703 Q605.8125,109.2422 605.6406,109.4453 Q605.3906,109.7344 604.9922,109.8984 Q604.4531,110.125 603.8047,110.125 Q603.0469,110.125 602.4453,109.8125 Q601.9531,109.5625 601.6094,109.0313 Q601.2656,108.4922 601.2656,107.8516 L601.2656,107.2734 Q601.2656,106.6094 601.5703,106.0391 Q601.8828,105.4609 602.4297,105.1563 Q602.9766,104.8438 603.5938,104.8438 Q603.9609,104.8438 604.2813,104.9297 Q604.6094,105.0078 604.8828,105.1875 Z " fill="#000000"/><text fill="#000000" font-family="sans-serif" font-size="7" lengthAdjust="spacing" textLength="61" x="610.5" y="110.1484">PersistenceContext</text><line style="stroke:#181818;stroke-width:0.25;" x1="596.5" x2="672.5" y1="115.25" y2="115.25"/><line style="stroke:#181818;stroke-width:0.25;" x1="596.5" x2="672.5" y1="119.25" y2="119.25"/><rect fill="#F24D5C" height="3" style="stroke:#C82930;stroke-width:0.5;" width="3" x="600" y="125.1553"/><text fill="#000000" font-family="sans-serif" font-size="7" lengthAdjust="spacing" textLength="42" x="606" y="128.8037">repositories()</text></g><!--class EnrolmentRepository--><g id="elem_EnrolmentRepository"><rect codeLine="120" fill="#F1F1F1" height="33.3105" id="EnrolmentRepository" rx="1.25" ry="1.25" style="stroke:#181818;stroke-width:0.25;" width="165" x="363.5" y="365.5"/><ellipse cx="410.875" cy="373.5" fill="#B4A7E5" rx="5.5" ry="5.5" style="stroke:#181818;stroke-width:0.5;"/><path d="M411.3516,371.8203 L411.3516,375.1484 L412.2109,375.1484 Q412.5156,375.1484 412.6484,375.2656 Q412.7813,375.3828 412.7813,375.5781 Q412.7813,375.7656 412.6484,375.8828 Q412.5156,376 412.2109,376 L409.6406,376 Q409.3359,376 409.2031,375.8828 Q409.0703,375.7656 409.0703,375.5703 Q409.0703,375.3828 409.2031,375.2656 Q409.3359,375.1484 409.6406,375.1484 L410.5,375.1484 L410.5,371.8203 L409.6406,371.8203 Q409.3359,371.8203 409.2031,371.7031 Q409.0703,371.5859 409.0703,371.3906 Q409.0703,371.2031 409.2031,371.0859 Q409.3359,370.9688 409.6406,370.9688 L412.2109,370.9688 Q412.5156,370.9688 412.6484,371.0859 Q412.7813,371.2031 412.7813,371.3906 Q412.7813,371.5859 412.6484,371.7031 Q412.5156,371.8203 412.2109,371.8203 L411.3516,371.8203 Z " fill="#000000"/><text fill="#000000" font-family="sans-serif" font-size="7" font-style="italic" lengthAdjust="spacing" textLength="66" x="421.125" y="376.3984">EnrolmentRepository</text><line style="stroke:#181818;stroke-width:0.25;" x1="364" x2="528" y1="381.5" y2="381.5"/><line style="stroke:#181818;stroke-width:0.25;" x1="364" x2="528" y1="385.5" y2="385.5"/><ellipse cx="369" cy="392.9053" fill="#84BE84" rx="1.5" ry="1.5" style="stroke:#038048;stroke-width:0.5;"/><text fill="#000000" font-family="sans-serif" font-size="7" lengthAdjust="spacing" textLength="152" x="373.5" y="395.0537">findByStudentMecanographicNumber(studentID)</text></g><!--class InMemoryEnrolmentRepository--><g id="elem_InMemoryEnrolmentRepository"><rect codeLine="124" fill="#F1F1F1" height="33.3105" id="InMemoryEnrolmentRepository" rx="1.25" ry="1.25" style="stroke:#181818;stroke-width:0.25;" width="165" x="270.5" y="461.5"/><ellipse cx="302.625" cy="469.5" fill="#ADD1B2" rx="5.5" ry="5.5" style="stroke:#181818;stroke-width:0.5;"/><path d="M304.0078,467.4375 Q304.0859,467.3281 304.1797,467.2734 Q304.2734,467.2188 304.3828,467.2188 Q304.5703,467.2188 304.6875,467.3516 Q304.8047,467.4766 304.8047,467.7813 L304.8047,468.5078 Q304.8047,468.8125 304.6875,468.9453 Q304.5703,469.0781 304.3828,469.0781 Q304.2109,469.0781 304.1094,468.9766 Q304.0078,468.8828 303.9531,468.625 Q303.9297,468.4453 303.8359,468.3516 Q303.6719,468.1641 303.3672,468.0547 Q303.0625,467.9453 302.75,467.9453 Q302.3672,467.9453 302.0469,468.1094 Q301.7344,468.2734 301.4844,468.6484 Q301.2422,469.0234 301.2422,469.5391 L301.2422,470.0859 Q301.2422,470.7031 301.6875,471.1172 Q302.1328,471.5234 302.9297,471.5234 Q303.3984,471.5234 303.7266,471.3984 Q303.9219,471.3203 304.1328,471.1016 Q304.2656,470.9688 304.3359,470.9297 Q304.4141,470.8906 304.5156,470.8906 Q304.6797,470.8906 304.8047,471.0234 Q304.9375,471.1484 304.9375,471.3203 Q304.9375,471.4922 304.7656,471.6953 Q304.5156,471.9844 304.1172,472.1484 Q303.5781,472.375 302.9297,472.375 Q302.1719,472.375 301.5703,472.0625 Q301.0781,471.8125 300.7344,471.2813 Q300.3906,470.7422 300.3906,470.1016 L300.3906,469.5234 Q300.3906,468.8594 300.6953,468.2891 Q301.0078,467.7109 301.5547,467.4063 Q302.1016,467.0938 302.7188,467.0938 Q303.0859,467.0938 303.4063,467.1797 Q303.7344,467.2578 304.0078,467.4375 Z " fill="#000000"/><text fill="#000000" font-family="sans-serif" font-size="7" lengthAdjust="spacing" textLength="96.5" x="312.875" y="472.3984">InMemoryEnrolmentRepository</text><line style="stroke:#181818;stroke-width:0.25;" x1="271" x2="435" y1="477.5" y2="477.5"/><line style="stroke:#181818;stroke-width:0.25;" x1="271" x2="435" y1="481.5" y2="481.5"/><ellipse cx="276" cy="488.9053" fill="#84BE84" rx="1.5" ry="1.5" style="stroke:#038048;stroke-width:0.5;"/><text fill="#000000" font-family="sans-serif" font-size="7" lengthAdjust="spacing" textLength="152" x="280.5" y="491.0537">findByStudentMecanographicNumber(studentID)</text></g><!--class JpaEnrolmentRepository--><g id="elem_JpaEnrolmentRepository"><rect codeLine="128" fill="#F1F1F1" height="33.3105" id="JpaEnrolmentRepository" rx="1.25" ry="1.25" style="stroke:#181818;stroke-width:0.25;" width="165" x="453" y="461.5"/><ellipse cx="494.875" cy="469.5" fill="#ADD1B2" rx="5.5" ry="5.5" style="stroke:#181818;stroke-width:0.5;"/><path d="M496.2578,467.4375 Q496.3359,467.3281 496.4297,467.2734 Q496.5234,467.2188 496.6328,467.2188 Q496.8203,467.2188 496.9375,467.3516 Q497.0547,467.4766 497.0547,467.7813 L497.0547,468.5078 Q497.0547,468.8125 496.9375,468.9453 Q496.8203,469.0781 496.6328,469.0781 Q496.4609,469.0781 496.3594,468.9766 Q496.2578,468.8828 496.2031,468.625 Q496.1797,468.4453 496.0859,468.3516 Q495.9219,468.1641 495.6172,468.0547 Q495.3125,467.9453 495,467.9453 Q494.6172,467.9453 494.2969,468.1094 Q493.9844,468.2734 493.7344,468.6484 Q493.4922,469.0234 493.4922,469.5391 L493.4922,470.0859 Q493.4922,470.7031 493.9375,471.1172 Q494.3828,471.5234 495.1797,471.5234 Q495.6484,471.5234 495.9766,471.3984 Q496.1719,471.3203 496.3828,471.1016 Q496.5156,470.9688 496.5859,470.9297 Q496.6641,470.8906 496.7656,470.8906 Q496.9297,470.8906 497.0547,471.0234 Q497.1875,471.1484 497.1875,471.3203 Q497.1875,471.4922 497.0156,471.6953 Q496.7656,471.9844 496.3672,472.1484 Q495.8281,472.375 495.1797,472.375 Q494.4219,472.375 493.8203,472.0625 Q493.3281,471.8125 492.9844,471.2813 Q492.6406,470.7422 492.6406,470.1016 L492.6406,469.5234 Q492.6406,468.8594 492.9453,468.2891 Q493.2578,467.7109 493.8047,467.4063 Q494.3516,467.0938 494.9688,467.0938 Q495.3359,467.0938 495.6563,467.1797 Q495.9844,467.2578 496.2578,467.4375 Z " fill="#000000"/><text fill="#000000" font-family="sans-serif" font-size="7" lengthAdjust="spacing" textLength="77" x="505.125" y="472.3984">JpaEnrolmentRepository</text><line style="stroke:#181818;stroke-width:0.25;" x1="453.5" x2="617.5" y1="477.5" y2="477.5"/><line style="stroke:#181818;stroke-width:0.25;" x1="453.5" x2="617.5" y1="481.5" y2="481.5"/><ellipse cx="458.5" cy="488.9053" fill="#84BE84" rx="1.5" ry="1.5" style="stroke:#038048;stroke-width:0.5;"/><text fill="#000000" font-family="sans-serif" font-size="7" lengthAdjust="spacing" textLength="152" x="463" y="491.0537">findByStudentMecanographicNumber(studentID)</text></g><!--link PersistenceContext to RepositoryFactory--><g id="link_PersistenceContext_RepositoryFactory"><path codeLine="134" d="M636.95,132.86 C640.77,158.34 648.12,207.37 652.165,234.335 " fill="none" id="PersistenceContext-to-RepositoryFactory" style="stroke:#181818;stroke-width:0.5;stroke-dasharray:7.0,7.0;"/><polygon fill="#181818" points="652.545,236.87,653.854,232.1227,652.1735,234.3978,649.8984,232.7172,652.545,236.87" style="stroke:#181818;stroke-width:0.5;"/></g><!--link RepositoryFactory to CourseRepository--><g id="link_RepositoryFactory_CourseRepository"><path codeLine="136" d="M689.915,270.525 C741.64,294.64 838.2,339.655 891.24,364.38 " fill="none" id="RepositoryFactory-to-CourseRepository" style="stroke:#181818;stroke-width:0.5;"/><polygon fill="#181818" points="893.575,365.47,890.3436,361.7541,891.3097,364.4124,888.6514,365.3785,893.575,365.47" style="stroke:#181818;stroke-width:0.5;"/></g><!--link RepositoryFactory to ExamRepository--><g id="link_RepositoryFactory_ExamRepository"><path codeLine="137" d="M643.875,270.7 C635.415,281.79 622.745,295.68 608,303 C506.375,353.44 465.205,308.18 354.5,333 C319.48,340.85 281.025,353.94 252.45,364.58 " fill="none" id="RepositoryFactory-to-ExamRepository" style="stroke:#181818;stroke-width:0.5;"/><polygon fill="#181818" points="250.065,365.47,254.9799,365.7758,252.4082,364.5985,253.5855,362.0267,250.065,365.47" style="stroke:#181818;stroke-width:0.5;"/></g><!--link RepositoryFactory to StudentRepository--><g id="link_RepositoryFactory_StudentRepository"><path codeLine="138" d="M659.215,270.525 C665.33,294.155 676.635,337.845 683.11,362.86 " fill="none" id="RepositoryFactory-to-StudentRepository" style="stroke:#181818;stroke-width:0.5;"/><polygon fill="#181818" points="683.76,365.37,684.5786,360.5141,683.1385,362.9485,680.7042,361.5084,683.76,365.37" style="stroke:#181818;stroke-width:0.5;"/></g><!--link RepositoryFactory to EnrolmentRepository--><g id="link_RepositoryFactory_EnrolmentRepository"><path codeLine="139" d="M641.835,270.605 C633.025,280.82 620.745,293.745 608,303 C571.92,329.2 525.78,350.64 491.975,364.5 " fill="none" id="RepositoryFactory-to-EnrolmentRepository" style="stroke:#181818;stroke-width:0.5;"/><polygon fill="#181818" points="489.565,365.485,494.487,365.6393,491.8802,364.5418,492.9778,361.935,489.565,365.485" style="stroke:#181818;stroke-width:0.5;"/></g><!--reverse link CourseRepository to InMemoryCourseRepository--><g id="link_CourseRepository_InMemoryCourseRepository"><path codeLine="141" d="M928.5,409.11 C928.5,425.895 928.5,447.105 928.5,461.475 " fill="none" id="CourseRepository-backto-InMemoryCourseRepository" style="stroke:#181818;stroke-width:0.5;stroke-dasharray:7.0,7.0;"/><polygon fill="none" points="925,409.08,928.5,399.08,932,409.08,925,409.08" style="stroke:#181818;stroke-width:0.5;"/></g><!--reverse link CourseRepository to JpaCourseRepository--><g id="link_CourseRepository_JpaCourseRepository"><path codeLine="142" d="M955.315,405.6 C975.555,422.845 1002.835,446.085 1020.895,461.475 " fill="none" id="CourseRepository-backto-JpaCourseRepository" style="stroke:#181818;stroke-width:0.5;stroke-dasharray:7.0,7.0;"/><polygon fill="none" points="953.01,408.23,947.67,399.08,957.55,402.9,953.01,408.23" style="stroke:#181818;stroke-width:0.5;"/></g><!--reverse link ExamRepository to InMemoryExamRepository--><g id="link_ExamRepository_InMemoryExamRepository"><path codeLine="143" d="M177.955,404.855 C165.77,413.36 151.595,423.055 138.5,431.5 C122.515,441.815 104.275,452.8 89.565,461.48 " fill="none" id="ExamRepository-backto-InMemoryExamRepository" style="stroke:#181818;stroke-width:0.5;stroke-dasharray:7.0,7.0;"/><polygon fill="none" points="176.035,401.925,186.23,399.045,180.055,407.655,176.035,401.925" style="stroke:#181818;stroke-width:0.5;"/></g><!--reverse link ExamRepository to JpaExamRepository--><g id="link_ExamRepository_JpaExamRepository"><path codeLine="144" d="M205.115,409.11 C202.64,425.895 199.515,447.105 197.4,461.475 " fill="none" id="ExamRepository-backto-JpaExamRepository" style="stroke:#181818;stroke-width:0.5;stroke-dasharray:7.0,7.0;"/><polygon fill="none" points="201.675,408.465,206.595,399.08,208.6,409.485,201.675,408.465" style="stroke:#181818;stroke-width:0.5;"/></g><!--reverse link StudentRepository to InMemoryStudentRepository--><g id="link_StudentRepository_InMemoryStudentRepository"><path codeLine="145" d="M688,409.11 C688,425.895 688,447.105 688,461.475 " fill="none" id="StudentRepository-backto-InMemoryStudentRepository" style="stroke:#181818;stroke-width:0.5;stroke-dasharray:7.0,7.0;"/><polygon fill="none" points="684.5,409.08,688,399.08,691.5,409.08,684.5,409.08" style="stroke:#181818;stroke-width:0.5;"/></g><!--reverse link StudentRepository to JpaStudentRepository--><g id="link_StudentRepository_JpaStudentRepository"><path codeLine="146" d="M716.69,405.37 C738.595,422.635 768.245,446.015 787.855,461.475 " fill="none" id="StudentRepository-backto-JpaStudentRepository" style="stroke:#181818;stroke-width:0.5;stroke-dasharray:7.0,7.0;"/><polygon fill="none" points="714.4,408.02,708.715,399.08,718.735,402.525,714.4,408.02" style="stroke:#181818;stroke-width:0.5;"/></g><!--reverse link EnrolmentRepository to InMemoryEnrolmentRepository--><g id="link_EnrolmentRepository_InMemoryEnrolmentRepository"><path codeLine="147" d="M422.955,406.29 C406.15,423.46 383.8,446.29 368.935,461.475 " fill="none" id="EnrolmentRepository-backto-InMemoryEnrolmentRepository" style="stroke:#181818;stroke-width:0.5;stroke-dasharray:7.0,7.0;"/><polygon fill="none" points="420.515,403.78,430.015,399.08,425.52,408.675,420.515,403.78" style="stroke:#181818;stroke-width:0.5;"/></g><!--reverse link EnrolmentRepository to JpaEnrolmentRepository--><g id="link_EnrolmentRepository_JpaEnrolmentRepository"><path codeLine="148" d="M468.395,406.52 C484.545,423.665 505.925,446.355 520.165,461.475 " fill="none" id="EnrolmentRepository-backto-JpaEnrolmentRepository" style="stroke:#181818;stroke-width:0.5;stroke-dasharray:7.0,7.0;"/><polygon fill="none" points="465.695,408.76,461.385,399.08,470.79,403.96,465.695,408.76" style="stroke:#181818;stroke-width:0.5;"/></g><!--link ListFutureExamsController to ListEnrolmentService--><g id="link_ListFutureExamsController_ListEnrolmentService"><path codeLine="150" d="M431.5,174.695 C431.5,194.07 431.5,214.565 431.5,229.76 " fill="none" id="ListFutureExamsController-to-ListEnrolmentService" style="stroke:#181818;stroke-width:0.5;"/><polygon fill="#181818" points="431.5,232.345,433.5,227.845,431.5,229.845,429.5,227.845,431.5,232.345" style="stroke:#181818;stroke-width:0.5;"/></g><!--link ListFutureExamsController to ExamListService--><g id="link_ListFutureExamsController_ExamListService"><path codeLine="151" d="M314.595,174.535 C294.54,184.515 273.915,194.795 254.5,204.5 C236.995,213.25 217.73,222.925 201.015,231.33 " fill="none" id="ListFutureExamsController-to-ExamListService" style="stroke:#181818;stroke-width:0.5;"/><polygon fill="#181818" points="198.78,232.455,203.6988,232.2188,201.0132,231.3312,201.9008,228.6457,198.78,232.455" style="stroke:#181818;stroke-width:0.5;"/></g><!--link ListFutureExamsController to Course--><g id="link_ListFutureExamsController_Course"><path codeLine="152" d="M377.67,174.695 C367.855,185.3 357.735,196.24 348.275,206.465 " fill="none" id="ListFutureExamsController-to-Course" style="stroke:#181818;stroke-width:0.5;stroke-dasharray:7.0,7.0;"/><polygon fill="#181818" points="346.52,208.365,351.045,206.4222,348.2187,206.5307,348.1102,203.7044,346.52,208.365" style="stroke:#181818;stroke-width:0.5;"/></g><!--link ListFutureExamsController to CourseDTO--><g id="link_ListFutureExamsController_CourseDTO"><path codeLine="153" d="M485.33,174.695 C495.395,185.575 505.79,196.805 515.455,207.255 " fill="none" id="ListFutureExamsController-to-CourseDTO" style="stroke:#181818;stroke-width:0.5;stroke-dasharray:7.0,7.0;"/><polygon fill="#181818" points="517.25,209.2,515.6696,204.5361,515.5552,207.3622,512.7291,207.2478,517.25,209.2" style="stroke:#181818;stroke-width:0.5;"/></g><!--link ListFutureExamsUI to PersistenceContext--><g id="link_ListFutureExamsUI_PersistenceContext"><path codeLine="155" d="M535.565,27.61 C554.93,44.81 591.41,77.22 614.25,97.51 " fill="none" id="ListFutureExamsUI-to-PersistenceContext" style="stroke:#181818;stroke-width:0.5;stroke-dasharray:7.0,7.0;"/><polygon fill="#181818" points="616.145,99.195,614.1104,94.7105,614.2765,97.5341,611.4529,97.7002,616.145,99.195" style="stroke:#181818;stroke-width:0.5;"/></g><!--link ListFutureExamsUI to ListFutureExamsController--><g id="link_ListFutureExamsUI_ListFutureExamsController"><path codeLine="156" d="M511.885,27.61 C505.235,34.88 496.105,44.86 486.375,55.5 " fill="none" id="ListFutureExamsUI-to-ListFutureExamsController" style="stroke:#181818;stroke-width:0.5;stroke-dasharray:7.0,7.0;"/><polygon fill="#181818" points="484.68,57.35,489.1892,55.3708,486.3638,55.5021,486.2325,52.6767,484.68,57.35" style="stroke:#181818;stroke-width:0.5;"/></g><!--link ListEnrolmentService to EnrolmentRepository--><g id="link_ListEnrolmentService_EnrolmentRepository"><path codeLine="158" d="M433.86,275.02 C436.635,299.395 441.19,339.455 443.86,362.945 " fill="none" id="ListEnrolmentService-to-EnrolmentRepository" style="stroke:#181818;stroke-width:0.5;stroke-dasharray:7.0,7.0;"/><polygon fill="#181818" points="444.145,365.445,445.6314,360.7503,443.8666,362.9606,441.6563,361.1957,444.145,365.445" style="stroke:#181818;stroke-width:0.5;"/></g><!--link ExamListService to Exam--><g id="link_ExamListService_Exam"><path codeLine="160" d="M132.18,275.09 C114.575,290.215 91.115,311.68 73,333 C70.59,335.835 68.21,338.855 65.89,341.945 " fill="none" id="ExamListService-to-Exam" style="stroke:#181818;stroke-width:0.5;stroke-dasharray:7.0,7.0;"/><polygon fill="#181818" points="64.3,344.1,68.5848,341.673,65.7874,342.0906,65.3698,339.2932,64.3,344.1" style="stroke:#181818;stroke-width:0.5;"/></g><!--link ExamListService to ExamDTO--><g id="link_ExamListService_ExamDTO"><path codeLine="161" d="M149.11,275.02 C142.525,291.325 133.1,314.655 124.745,335.345 " fill="none" id="ExamListService-to-ExamDTO" style="stroke:#181818;stroke-width:0.5;stroke-dasharray:7.0,7.0;"/><polygon fill="#181818" points="123.78,337.725,127.3173,334.299,124.7146,335.4063,123.6073,332.8036,123.78,337.725" style="stroke:#181818;stroke-width:0.5;"/></g><!--link ExamListService to ExamRepository--><g id="link_ExamListService_ExamRepository"><path codeLine="162" d="M165.89,275.02 C175.755,299.44 191.98,339.62 201.465,363.09 " fill="none" id="ExamListService-to-ExamRepository" style="stroke:#181818;stroke-width:0.5;stroke-dasharray:7.0,7.0;"/><polygon fill="#181818" points="202.415,365.445,202.5877,360.5236,201.4804,363.1263,198.8777,362.019,202.415,365.445" style="stroke:#181818;stroke-width:0.5;"/></g><!--SRC=[lLPPRjim4FtdAVGf8RPFK0H8xGHmaQMecmEmzBWceCKWgI3fSlVEY995YcGMm-WVbtbFepSpJn8brpgxbThSjAPLSFtCA_supdupzfSn4RjTDhLHJLc2mgXv1ZLkAgZDDpWqMff6lU2fQ5gbmJlIfjrEmtXhzesIlxYHJRq1zIG542S-Xvuwd5oaSyXZ5BCCddZPTaSKFpvpnc89pu9yPs6w1SCyIihAtYmxYCuBFDwDgUMMQlNzeI09PMr0xRY0R3CbHFaGAUljvvT73Qhc5UHjloX6-TVr7LGOVYh-ou6V2hMlYC5PHYNTGhSmqfHsjGKjb3oGpDt-AEsjhAJHFOmuDeORSFRNGwHpeG2Nsok3kulCD2lJv44kAEj_JyUhudBIA5qsWvPBp2cdn2Bb-p0Gw_O1J0-Y5kp6ifDdU3rS6E1Y3mfNabf1xcItiUBvqj6eaWgH8X2zBS5Pdk3nEWDlZSKRt7xshihIse2LnfsumdUiiQGkPyIi1Ztx8Ra3mUlcf-A7lHJtRVK3FMOooRwb76VfhTmc3H6ml8VZs1edeNluYBlXmkchu3ntKLz1QTGLQW5al_1i-abK0qnsRaW8HwjGSSTyNj6yzz_rAZ9BPoKbCS_3nrX4eyNYCXIMiR06y_bbu2w9CB_uYQ30z5DaaPbWWVDy-hDO9Bqi4HvnC3RfMuzsybgnqA3pMVXjypX35HA0s6UInHh3JpaYNX8KxpJ6qZzOL9-OcRq1cTZfAz7KdRP6xmf2xm_InRz52WXRFn6OV8vb3doRC57PfX-DBX3FaXUKVUhE9Vu7]--></g></svg>