<?xml version="1.0" encoding="us-ascii" standalone="no"?><svg xmlns="http://www.w3.org/2000/svg" xmlns:xlink="http://www.w3.org/1999/xlink" contentStyleType="text/css" height="996px" preserveAspectRatio="none" style="width:1220px;height:996px;background:#FFFFFF;" version="1.1" viewBox="0 0 1220 996" width="1220px" zoomAndPan="magnify"><defs/><g><!--class CancelMeetingUI--><g id="elem_CancelMeetingUI"><rect codeLine="2" fill="#F1F1F1" height="48" id="CancelMeetingUI" rx="2.5" ry="2.5" style="stroke:#181818;stroke-width:0.5;" width="138" x="365.5" y="7"/><ellipse cx="380.5" cy="23" fill="#ADD1B2" rx="11" ry="11" style="stroke:#181818;stroke-width:1.0;"/><path d="M383.2656,18.875 Q383.4219,18.6563 383.6094,18.5469 Q383.7969,18.4375 384.0156,18.4375 Q384.3906,18.4375 384.625,18.7031 Q384.8594,18.9531 384.8594,19.5625 L384.8594,21.0156 Q384.8594,21.625 384.625,21.8906 Q384.3906,22.1563 384.0156,22.1563 Q383.6719,22.1563 383.4688,21.9531 Q383.2656,21.7656 383.1563,21.25 Q383.1094,20.8906 382.9219,20.7031 Q382.5938,20.3281 381.9844,20.1094 Q381.375,19.8906 380.75,19.8906 Q379.9844,19.8906 379.3438,20.2188 Q378.7188,20.5469 378.2188,21.2969 Q377.7344,22.0469 377.7344,23.0781 L377.7344,24.1719 Q377.7344,25.4063 378.625,26.2344 Q379.5156,27.0469 381.1094,27.0469 Q382.0469,27.0469 382.7031,26.7969 Q383.0938,26.6406 383.5156,26.2031 Q383.7813,25.9375 383.9219,25.8594 Q384.0781,25.7813 384.2813,25.7813 Q384.6094,25.7813 384.8594,26.0469 Q385.125,26.2969 385.125,26.6406 Q385.125,26.9844 384.7813,27.3906 Q384.2813,27.9688 383.4844,28.2969 Q382.4063,28.75 381.1094,28.75 Q379.5938,28.75 378.3906,28.125 Q377.4063,27.625 376.7188,26.5625 Q376.0313,25.4844 376.0313,24.2031 L376.0313,23.0469 Q376.0313,21.7188 376.6406,20.5781 Q377.2656,19.4219 378.3594,18.8125 Q379.4531,18.1875 380.6875,18.1875 Q381.4219,18.1875 382.0625,18.3594 Q382.7188,18.5156 383.2656,18.875 Z " fill="#000000"/><text fill="#000000" font-family="sans-serif" font-size="14" lengthAdjust="spacing" textLength="106" x="394.5" y="28.7969">CancelMeetingUI</text><line style="stroke:#181818;stroke-width:0.5;" x1="366.5" x2="502.5" y1="39" y2="39"/><line style="stroke:#181818;stroke-width:0.5;" x1="366.5" x2="502.5" y1="47" y2="47"/></g><!--class CancelMeetingController--><g id="elem_CancelMeetingController"><rect codeLine="6" fill="#F1F1F1" height="234.2109" id="CancelMeetingController" rx="2.5" ry="2.5" style="stroke:#181818;stroke-width:0.5;" width="445" x="45" y="115"/><ellipse cx="185.25" cy="131" fill="#ADD1B2" rx="11" ry="11" style="stroke:#181818;stroke-width:1.0;"/><path d="M188.0156,126.875 Q188.1719,126.6563 188.3594,126.5469 Q188.5469,126.4375 188.7656,126.4375 Q189.1406,126.4375 189.375,126.7031 Q189.6094,126.9531 189.6094,127.5625 L189.6094,129.0156 Q189.6094,129.625 189.375,129.8906 Q189.1406,130.1563 188.7656,130.1563 Q188.4219,130.1563 188.2188,129.9531 Q188.0156,129.7656 187.9063,129.25 Q187.8594,128.8906 187.6719,128.7031 Q187.3438,128.3281 186.7344,128.1094 Q186.125,127.8906 185.5,127.8906 Q184.7344,127.8906 184.0938,128.2188 Q183.4688,128.5469 182.9688,129.2969 Q182.4844,130.0469 182.4844,131.0781 L182.4844,132.1719 Q182.4844,133.4063 183.375,134.2344 Q184.2656,135.0469 185.8594,135.0469 Q186.7969,135.0469 187.4531,134.7969 Q187.8438,134.6406 188.2656,134.2031 Q188.5313,133.9375 188.6719,133.8594 Q188.8281,133.7813 189.0313,133.7813 Q189.3594,133.7813 189.6094,134.0469 Q189.875,134.2969 189.875,134.6406 Q189.875,134.9844 189.5313,135.3906 Q189.0313,135.9688 188.2344,136.2969 Q187.1563,136.75 185.8594,136.75 Q184.3438,136.75 183.1406,136.125 Q182.1563,135.625 181.4688,134.5625 Q180.7813,133.4844 180.7813,132.2031 L180.7813,131.0469 Q180.7813,129.7188 181.3906,128.5781 Q182.0156,127.4219 183.1094,126.8125 Q184.2031,126.1875 185.4375,126.1875 Q186.1719,126.1875 186.8125,126.3594 Q187.4688,126.5156 188.0156,126.875 Z " fill="#000000"/><text fill="#000000" font-family="sans-serif" font-size="14" lengthAdjust="spacing" textLength="156" x="205.75" y="136.7969">CancelMeetingController</text><line style="stroke:#181818;stroke-width:0.5;" x1="46" x2="489" y1="147" y2="147"/><rect fill="none" height="6" style="stroke:#C82930;stroke-width:1.0;" width="6" x="53" y="158.8105"/><text fill="#000000" font-family="sans-serif" font-size="14" lengthAdjust="spacing" textLength="128" x="65" y="166.1074">authorizationService</text><rect fill="none" height="6" style="stroke:#C82930;stroke-width:1.0;" width="6" x="53" y="177.4316"/><text fill="#000000" font-family="sans-serif" font-size="14" lengthAdjust="spacing" textLength="118" x="65" y="184.7285">meetingRepository</text><rect fill="none" height="6" style="stroke:#C82930;stroke-width:1.0;" width="6" x="53" y="196.0527"/><text fill="#000000" font-family="sans-serif" font-size="14" lengthAdjust="spacing" textLength="101" x="65" y="203.3496">inviteRepository</text><rect fill="none" height="6" style="stroke:#C82930;stroke-width:1.0;" width="6" x="53" y="214.6738"/><text fill="#000000" font-family="sans-serif" font-size="14" lengthAdjust="spacing" textLength="97" x="65" y="221.9707">meetingService</text><line style="stroke:#181818;stroke-width:0.5;" x1="46" x2="489" y1="229.4844" y2="229.4844"/><ellipse cx="56" cy="244.2949" fill="#84BE84" rx="3" ry="3" style="stroke:#038048;stroke-width:1.0;"/><text fill="#000000" font-family="sans-serif" font-size="14" lengthAdjust="spacing" textLength="419" x="65" y="248.5918">CancelMeetingController(authorizationService, meetingRepository,</text><text fill="#000000" font-family="sans-serif" font-size="14" lengthAdjust="spacing" textLength="106" x="65" y="267.2129">inviteRepository)</text><text fill="#000000" font-family="sans-serif" font-size="14" lengthAdjust="spacing" textLength="4" x="65" y="285.834">&#160;</text><ellipse cx="56" cy="300.1582" fill="#84BE84" rx="3" ry="3" style="stroke:#038048;stroke-width:1.0;"/><text fill="#000000" font-family="sans-serif" font-size="14" lengthAdjust="spacing" textLength="232" x="65" y="304.4551">listNotCanceledScheduledMeetings()</text><ellipse cx="56" cy="318.7793" fill="#84BE84" rx="3" ry="3" style="stroke:#038048;stroke-width:1.0;"/><text fill="#000000" font-family="sans-serif" font-size="14" lengthAdjust="spacing" textLength="151" x="65" y="323.0762">cancelMeeting(meeting)</text><ellipse cx="56" cy="337.4004" fill="#84BE84" rx="3" ry="3" style="stroke:#038048;stroke-width:1.0;"/><text fill="#000000" font-family="sans-serif" font-size="14" lengthAdjust="spacing" textLength="146" x="65" y="341.6973">getAuthenticatedUser()</text></g><!--class Meeting--><g id="elem_Meeting"><rect codeLine="21" fill="#F1F1F1" height="178.3477" id="Meeting" rx="2.5" ry="2.5" style="stroke:#181818;stroke-width:0.5;" width="107" x="154" y="610"/><ellipse cx="180.25" cy="626" fill="#ADD1B2" rx="11" ry="11" style="stroke:#181818;stroke-width:1.0;"/><path d="M183.0156,621.875 Q183.1719,621.6563 183.3594,621.5469 Q183.5469,621.4375 183.7656,621.4375 Q184.1406,621.4375 184.375,621.7031 Q184.6094,621.9531 184.6094,622.5625 L184.6094,624.0156 Q184.6094,624.625 184.375,624.8906 Q184.1406,625.1563 183.7656,625.1563 Q183.4219,625.1563 183.2188,624.9531 Q183.0156,624.7656 182.9063,624.25 Q182.8594,623.8906 182.6719,623.7031 Q182.3438,623.3281 181.7344,623.1094 Q181.125,622.8906 180.5,622.8906 Q179.7344,622.8906 179.0938,623.2188 Q178.4688,623.5469 177.9688,624.2969 Q177.4844,625.0469 177.4844,626.0781 L177.4844,627.1719 Q177.4844,628.4063 178.375,629.2344 Q179.2656,630.0469 180.8594,630.0469 Q181.7969,630.0469 182.4531,629.7969 Q182.8438,629.6406 183.2656,629.2031 Q183.5313,628.9375 183.6719,628.8594 Q183.8281,628.7813 184.0313,628.7813 Q184.3594,628.7813 184.6094,629.0469 Q184.875,629.2969 184.875,629.6406 Q184.875,629.9844 184.5313,630.3906 Q184.0313,630.9688 183.2344,631.2969 Q182.1563,631.75 180.8594,631.75 Q179.3438,631.75 178.1406,631.125 Q177.1563,630.625 176.4688,629.5625 Q175.7813,628.4844 175.7813,627.2031 L175.7813,626.0469 Q175.7813,624.7188 176.3906,623.5781 Q177.0156,622.4219 178.1094,621.8125 Q179.2031,621.1875 180.4375,621.1875 Q181.1719,621.1875 181.8125,621.3594 Q182.4688,621.5156 183.0156,621.875 Z " fill="#000000"/><text fill="#000000" font-family="sans-serif" font-size="14" lengthAdjust="spacing" textLength="50" x="196.75" y="631.7969">Meeting</text><line style="stroke:#181818;stroke-width:0.5;" x1="155" x2="260" y1="642" y2="642"/><rect fill="none" height="6" style="stroke:#C82930;stroke-width:1.0;" width="6" x="162" y="653.8105"/><text fill="#000000" font-family="sans-serif" font-size="14" lengthAdjust="spacing" textLength="11" x="174" y="661.1074">id</text><rect fill="none" height="6" style="stroke:#C82930;stroke-width:1.0;" width="6" x="162" y="672.4316"/><text fill="#000000" font-family="sans-serif" font-size="14" lengthAdjust="spacing" textLength="52" x="174" y="679.7285">duration</text><rect fill="none" height="6" style="stroke:#C82930;stroke-width:1.0;" width="6" x="162" y="691.0527"/><text fill="#000000" font-family="sans-serif" font-size="14" lengthAdjust="spacing" textLength="81" x="174" y="698.3496">scheduledBy</text><rect fill="none" height="6" style="stroke:#C82930;stroke-width:1.0;" width="6" x="162" y="709.6738"/><text fill="#000000" font-family="sans-serif" font-size="14" lengthAdjust="spacing" textLength="70" x="174" y="716.9707">canceledAt</text><rect fill="none" height="6" style="stroke:#C82930;stroke-width:1.0;" width="6" x="162" y="728.2949"/><text fill="#000000" font-family="sans-serif" font-size="14" lengthAdjust="spacing" textLength="26" x="174" y="735.5918">time</text><line style="stroke:#181818;stroke-width:0.5;" x1="155" x2="260" y1="743.1055" y2="743.1055"/><ellipse cx="165" cy="757.916" fill="#84BE84" rx="3" ry="3" style="stroke:#038048;stroke-width:1.0;"/><text fill="#000000" font-family="sans-serif" font-size="14" lengthAdjust="spacing" textLength="44" x="174" y="762.2129">toDto()</text><ellipse cx="165" cy="776.5371" fill="#84BE84" rx="3" ry="3" style="stroke:#038048;stroke-width:1.0;"/><text fill="#000000" font-family="sans-serif" font-size="14" lengthAdjust="spacing" textLength="51" x="174" y="780.834">cancel()</text></g><!--class MeetingDTO--><g id="elem_MeetingDTO"><rect codeLine="32" fill="#F1F1F1" height="141.1055" id="MeetingDTO" rx="2.5" ry="2.5" style="stroke:#181818;stroke-width:0.5;" width="112" x="296.5" y="628.5"/><ellipse cx="311.5" cy="644.5" fill="#ADD1B2" rx="11" ry="11" style="stroke:#181818;stroke-width:1.0;"/><path d="M314.2656,640.375 Q314.4219,640.1563 314.6094,640.0469 Q314.7969,639.9375 315.0156,639.9375 Q315.3906,639.9375 315.625,640.2031 Q315.8594,640.4531 315.8594,641.0625 L315.8594,642.5156 Q315.8594,643.125 315.625,643.3906 Q315.3906,643.6563 315.0156,643.6563 Q314.6719,643.6563 314.4688,643.4531 Q314.2656,643.2656 314.1563,642.75 Q314.1094,642.3906 313.9219,642.2031 Q313.5938,641.8281 312.9844,641.6094 Q312.375,641.3906 311.75,641.3906 Q310.9844,641.3906 310.3438,641.7188 Q309.7188,642.0469 309.2188,642.7969 Q308.7344,643.5469 308.7344,644.5781 L308.7344,645.6719 Q308.7344,646.9063 309.625,647.7344 Q310.5156,648.5469 312.1094,648.5469 Q313.0469,648.5469 313.7031,648.2969 Q314.0938,648.1406 314.5156,647.7031 Q314.7813,647.4375 314.9219,647.3594 Q315.0781,647.2813 315.2813,647.2813 Q315.6094,647.2813 315.8594,647.5469 Q316.125,647.7969 316.125,648.1406 Q316.125,648.4844 315.7813,648.8906 Q315.2813,649.4688 314.4844,649.7969 Q313.4063,650.25 312.1094,650.25 Q310.5938,650.25 309.3906,649.625 Q308.4063,649.125 307.7188,648.0625 Q307.0313,646.9844 307.0313,645.7031 L307.0313,644.5469 Q307.0313,643.2188 307.6406,642.0781 Q308.2656,640.9219 309.3594,640.3125 Q310.4531,639.6875 311.6875,639.6875 Q312.4219,639.6875 313.0625,639.8594 Q313.7188,640.0156 314.2656,640.375 Z " fill="#000000"/><text fill="#000000" font-family="sans-serif" font-size="14" lengthAdjust="spacing" textLength="80" x="325.5" y="650.2969">MeetingDTO</text><line style="stroke:#181818;stroke-width:0.5;" x1="297.5" x2="407.5" y1="660.5" y2="660.5"/><rect fill="none" height="6" style="stroke:#C82930;stroke-width:1.0;" width="6" x="304.5" y="672.3105"/><text fill="#000000" font-family="sans-serif" font-size="14" lengthAdjust="spacing" textLength="11" x="316.5" y="679.6074">id</text><rect fill="none" height="6" style="stroke:#C82930;stroke-width:1.0;" width="6" x="304.5" y="690.9316"/><text fill="#000000" font-family="sans-serif" font-size="14" lengthAdjust="spacing" textLength="52" x="316.5" y="698.2285">duration</text><rect fill="none" height="6" style="stroke:#C82930;stroke-width:1.0;" width="6" x="304.5" y="709.5527"/><text fill="#000000" font-family="sans-serif" font-size="14" lengthAdjust="spacing" textLength="81" x="316.5" y="716.8496">scheduledBy</text><rect fill="none" height="6" style="stroke:#C82930;stroke-width:1.0;" width="6" x="304.5" y="728.1738"/><text fill="#000000" font-family="sans-serif" font-size="14" lengthAdjust="spacing" textLength="70" x="316.5" y="735.4707">canceledAt</text><rect fill="none" height="6" style="stroke:#C82930;stroke-width:1.0;" width="6" x="304.5" y="746.7949"/><text fill="#000000" font-family="sans-serif" font-size="14" lengthAdjust="spacing" textLength="26" x="316.5" y="754.0918">time</text><line style="stroke:#181818;stroke-width:0.5;" x1="297.5" x2="407.5" y1="761.6055" y2="761.6055"/></g><!--class Invite--><g id="elem_Invite"><rect codeLine="40" fill="#F1F1F1" height="141.1055" id="Invite" rx="2.5" ry="2.5" style="stroke:#181818;stroke-width:0.5;" width="76" x="59.5" y="409"/><ellipse cx="79.45" cy="425" fill="#ADD1B2" rx="11" ry="11" style="stroke:#181818;stroke-width:1.0;"/><path d="M82.2156,420.875 Q82.3719,420.6563 82.5594,420.5469 Q82.7469,420.4375 82.9656,420.4375 Q83.3406,420.4375 83.575,420.7031 Q83.8094,420.9531 83.8094,421.5625 L83.8094,423.0156 Q83.8094,423.625 83.575,423.8906 Q83.3406,424.1563 82.9656,424.1563 Q82.6219,424.1563 82.4188,423.9531 Q82.2156,423.7656 82.1063,423.25 Q82.0594,422.8906 81.8719,422.7031 Q81.5438,422.3281 80.9344,422.1094 Q80.325,421.8906 79.7,421.8906 Q78.9344,421.8906 78.2938,422.2188 Q77.6688,422.5469 77.1688,423.2969 Q76.6844,424.0469 76.6844,425.0781 L76.6844,426.1719 Q76.6844,427.4063 77.575,428.2344 Q78.4656,429.0469 80.0594,429.0469 Q80.9969,429.0469 81.6531,428.7969 Q82.0438,428.6406 82.4656,428.2031 Q82.7313,427.9375 82.8719,427.8594 Q83.0281,427.7813 83.2313,427.7813 Q83.5594,427.7813 83.8094,428.0469 Q84.075,428.2969 84.075,428.6406 Q84.075,428.9844 83.7313,429.3906 Q83.2313,429.9688 82.4344,430.2969 Q81.3563,430.75 80.0594,430.75 Q78.5438,430.75 77.3406,430.125 Q76.3563,429.625 75.6688,428.5625 Q74.9813,427.4844 74.9813,426.2031 L74.9813,425.0469 Q74.9813,423.7188 75.5906,422.5781 Q76.2156,421.4219 77.3094,420.8125 Q78.4031,420.1875 79.6375,420.1875 Q80.3719,420.1875 81.0125,420.3594 Q81.6688,420.5156 82.2156,420.875 Z " fill="#000000"/><text fill="#000000" font-family="sans-serif" font-size="14" lengthAdjust="spacing" textLength="33" x="94.55" y="430.7969">Invite</text><line style="stroke:#181818;stroke-width:0.5;" x1="60.5" x2="134.5" y1="441" y2="441"/><rect fill="none" height="6" style="stroke:#C82930;stroke-width:1.0;" width="6" x="67.5" y="452.8105"/><text fill="#000000" font-family="sans-serif" font-size="14" lengthAdjust="spacing" textLength="11" x="79.5" y="460.1074">id</text><rect fill="none" height="6" style="stroke:#C82930;stroke-width:1.0;" width="6" x="67.5" y="471.4316"/><text fill="#000000" font-family="sans-serif" font-size="14" lengthAdjust="spacing" textLength="38" x="79.5" y="478.7285">status</text><rect fill="none" height="6" style="stroke:#C82930;stroke-width:1.0;" width="6" x="67.5" y="490.0527"/><text fill="#000000" font-family="sans-serif" font-size="14" lengthAdjust="spacing" textLength="50" x="79.5" y="497.3496">meeting</text><rect fill="none" height="6" style="stroke:#C82930;stroke-width:1.0;" width="6" x="67.5" y="508.6738"/><text fill="#000000" font-family="sans-serif" font-size="14" lengthAdjust="spacing" textLength="28" x="79.5" y="515.9707">user</text><line style="stroke:#181818;stroke-width:0.5;" x1="60.5" x2="134.5" y1="523.4844" y2="523.4844"/><ellipse cx="70.5" cy="538.2949" fill="#84BE84" rx="3" ry="3" style="stroke:#038048;stroke-width:1.0;"/><text fill="#000000" font-family="sans-serif" font-size="14" lengthAdjust="spacing" textLength="48" x="79.5" y="542.5918">status()</text></g><!--class InviteStatus--><g id="elem_InviteStatus"><rect codeLine="49" fill="#F1F1F1" height="85.2422" id="InviteStatus" rx="2.5" ry="2.5" style="stroke:#181818;stroke-width:0.5;" width="105" x="8" y="656.5"/><ellipse cx="23" cy="672.5" fill="#ADD1B2" rx="11" ry="11" style="stroke:#181818;stroke-width:1.0;"/><path d="M25.7656,668.375 Q25.9219,668.1563 26.1094,668.0469 Q26.2969,667.9375 26.5156,667.9375 Q26.8906,667.9375 27.125,668.2031 Q27.3594,668.4531 27.3594,669.0625 L27.3594,670.5156 Q27.3594,671.125 27.125,671.3906 Q26.8906,671.6563 26.5156,671.6563 Q26.1719,671.6563 25.9688,671.4531 Q25.7656,671.2656 25.6563,670.75 Q25.6094,670.3906 25.4219,670.2031 Q25.0938,669.8281 24.4844,669.6094 Q23.875,669.3906 23.25,669.3906 Q22.4844,669.3906 21.8438,669.7188 Q21.2188,670.0469 20.7188,670.7969 Q20.2344,671.5469 20.2344,672.5781 L20.2344,673.6719 Q20.2344,674.9063 21.125,675.7344 Q22.0156,676.5469 23.6094,676.5469 Q24.5469,676.5469 25.2031,676.2969 Q25.5938,676.1406 26.0156,675.7031 Q26.2813,675.4375 26.4219,675.3594 Q26.5781,675.2813 26.7813,675.2813 Q27.1094,675.2813 27.3594,675.5469 Q27.625,675.7969 27.625,676.1406 Q27.625,676.4844 27.2813,676.8906 Q26.7813,677.4688 25.9844,677.7969 Q24.9063,678.25 23.6094,678.25 Q22.0938,678.25 20.8906,677.625 Q19.9063,677.125 19.2188,676.0625 Q18.5313,674.9844 18.5313,673.7031 L18.5313,672.5469 Q18.5313,671.2188 19.1406,670.0781 Q19.7656,668.9219 20.8594,668.3125 Q21.9531,667.6875 23.1875,667.6875 Q23.9219,667.6875 24.5625,667.8594 Q25.2188,668.0156 25.7656,668.375 Z " fill="#000000"/><text fill="#000000" font-family="sans-serif" font-size="14" lengthAdjust="spacing" textLength="73" x="37" y="678.2969">InviteStatus</text><line style="stroke:#181818;stroke-width:0.5;" x1="9" x2="112" y1="688.5" y2="688.5"/><rect fill="none" height="6" style="stroke:#C82930;stroke-width:1.0;" width="6" x="16" y="700.3105"/><text fill="#000000" font-family="sans-serif" font-size="14" lengthAdjust="spacing" textLength="38" x="28" y="707.6074">status</text><line style="stroke:#181818;stroke-width:0.5;" x1="9" x2="112" y1="715.1211" y2="715.1211"/><ellipse cx="19" cy="729.9316" fill="#84BE84" rx="3" ry="3" style="stroke:#038048;stroke-width:1.0;"/><text fill="#000000" font-family="sans-serif" font-size="14" lengthAdjust="spacing" textLength="51" x="28" y="734.2285">cancel()</text></g><!--class Status--><g id="elem_Status"><rect codeLine="55" fill="#F1F1F1" height="141.1055" id="Status" rx="2.5" ry="2.5" style="stroke:#181818;stroke-width:0.5;" width="99" x="7" y="848"/><ellipse cx="34.15" cy="864" fill="#EB937F" rx="11" ry="11" style="stroke:#181818;stroke-width:1.0;"/><path d="M33.0094,864.7969 L33.0094,867.2969 L37.3375,867.2969 L37.3375,866.375 Q37.3375,865.7656 37.5719,865.5 Q37.8219,865.2344 38.1969,865.2344 Q38.5719,865.2344 38.8063,865.5 Q39.0406,865.7656 39.0406,866.375 L39.0406,869 L31.0406,869 Q30.4156,869 30.15,868.7656 Q29.9,868.5313 29.9,868.1406 Q29.9,867.7656 30.1656,867.5313 Q30.4313,867.2969 31.0406,867.2969 L31.3063,867.2969 L31.3063,860.6406 L31.0406,860.6406 Q30.4156,860.6406 30.15,860.4063 Q29.9,860.1719 29.9,859.7813 Q29.9,859.4063 30.15,859.1719 Q30.4156,858.9375 31.0406,858.9375 L38.6656,858.9375 L38.6656,861.5313 Q38.6656,862.1406 38.4313,862.4063 Q38.2125,862.6563 37.8219,862.6563 Q37.4469,862.6563 37.2125,862.4063 Q36.9781,862.1406 36.9781,861.5313 L36.9781,860.6406 L33.0094,860.6406 L33.0094,863.0938 L34.4938,863.0938 Q34.4938,862.4375 34.6188,862.25 Q34.8844,861.8438 35.3531,861.8438 Q35.7281,861.8438 35.9625,862.1094 Q36.1969,862.3594 36.1969,862.9688 L36.1969,864.9375 Q36.1969,865.4844 36.0719,865.6719 Q35.8063,866.0625 35.3531,866.0625 Q34.8844,866.0625 34.6188,865.6563 Q34.4938,865.4688 34.4938,864.7969 L33.0094,864.7969 Z " fill="#000000"/><text fill="#000000" font-family="sans-serif" font-size="14" lengthAdjust="spacing" textLength="40" x="50.85" y="869.7969">Status</text><line style="stroke:#181818;stroke-width:0.5;" x1="8" x2="105" y1="880" y2="880"/><text fill="#000000" font-family="sans-serif" font-size="14" lengthAdjust="spacing" textLength="60" x="13" y="899.1074">PENDING</text><text fill="#000000" font-family="sans-serif" font-size="14" lengthAdjust="spacing" textLength="75" x="13" y="917.7285">ACCEPTED</text><text fill="#000000" font-family="sans-serif" font-size="14" lengthAdjust="spacing" textLength="72" x="13" y="936.3496">REJECTED</text><text fill="#000000" font-family="sans-serif" font-size="14" lengthAdjust="spacing" textLength="74" x="13" y="954.9707">CANCELED</text><text fill="#000000" font-family="sans-serif" font-size="14" lengthAdjust="spacing" textLength="87" x="13" y="973.5918">NO_AWNSER</text><line style="stroke:#181818;stroke-width:0.5;" x1="8" x2="105" y1="981.1055" y2="981.1055"/></g><!--class MeetingService--><g id="elem_MeetingService"><rect codeLine="65" fill="#F1F1F1" height="122.4844" id="MeetingService" rx="2.5" ry="2.5" style="stroke:#181818;stroke-width:0.5;" width="284" x="195.5" y="418.5"/><ellipse cx="284.75" cy="434.5" fill="#ADD1B2" rx="11" ry="11" style="stroke:#181818;stroke-width:1.0;"/><path d="M287.5156,430.375 Q287.6719,430.1563 287.8594,430.0469 Q288.0469,429.9375 288.2656,429.9375 Q288.6406,429.9375 288.875,430.2031 Q289.1094,430.4531 289.1094,431.0625 L289.1094,432.5156 Q289.1094,433.125 288.875,433.3906 Q288.6406,433.6563 288.2656,433.6563 Q287.9219,433.6563 287.7188,433.4531 Q287.5156,433.2656 287.4063,432.75 Q287.3594,432.3906 287.1719,432.2031 Q286.8438,431.8281 286.2344,431.6094 Q285.625,431.3906 285,431.3906 Q284.2344,431.3906 283.5938,431.7188 Q282.9688,432.0469 282.4688,432.7969 Q281.9844,433.5469 281.9844,434.5781 L281.9844,435.6719 Q281.9844,436.9063 282.875,437.7344 Q283.7656,438.5469 285.3594,438.5469 Q286.2969,438.5469 286.9531,438.2969 Q287.3438,438.1406 287.7656,437.7031 Q288.0313,437.4375 288.1719,437.3594 Q288.3281,437.2813 288.5313,437.2813 Q288.8594,437.2813 289.1094,437.5469 Q289.375,437.7969 289.375,438.1406 Q289.375,438.4844 289.0313,438.8906 Q288.5313,439.4688 287.7344,439.7969 Q286.6563,440.25 285.3594,440.25 Q283.8438,440.25 282.6406,439.625 Q281.6563,439.125 280.9688,438.0625 Q280.2813,436.9844 280.2813,435.7031 L280.2813,434.5469 Q280.2813,433.2188 280.8906,432.0781 Q281.5156,430.9219 282.6094,430.3125 Q283.7031,429.6875 284.9375,429.6875 Q285.6719,429.6875 286.3125,429.8594 Q286.9688,430.0156 287.5156,430.375 Z " fill="#000000"/><text fill="#000000" font-family="sans-serif" font-size="14" lengthAdjust="spacing" textLength="97" x="305.25" y="440.2969">MeetingService</text><line style="stroke:#181818;stroke-width:0.5;" x1="196.5" x2="478.5" y1="450.5" y2="450.5"/><rect fill="none" height="6" style="stroke:#C82930;stroke-width:1.0;" width="6" x="203.5" y="462.3105"/><text fill="#000000" font-family="sans-serif" font-size="14" lengthAdjust="spacing" textLength="118" x="215.5" y="469.6074">meetingRepository</text><line style="stroke:#181818;stroke-width:0.5;" x1="196.5" x2="478.5" y1="477.1211" y2="477.1211"/><ellipse cx="206.5" cy="491.9316" fill="#84BE84" rx="3" ry="3" style="stroke:#038048;stroke-width:1.0;"/><text fill="#000000" font-family="sans-serif" font-size="14" lengthAdjust="spacing" textLength="225" x="215.5" y="496.2285">MeetingService(meetingRepository)</text><text fill="#000000" font-family="sans-serif" font-size="14" lengthAdjust="spacing" textLength="4" x="215.5" y="514.8496">&#160;</text><ellipse cx="206.5" cy="529.1738" fill="#84BE84" rx="3" ry="3" style="stroke:#038048;stroke-width:1.0;"/><text fill="#000000" font-family="sans-serif" font-size="14" lengthAdjust="spacing" textLength="258" x="215.5" y="533.4707">notCanceledMeetingsScheduledBy(user)</text></g><!--class MeetingRepository--><g id="elem_MeetingRepository"><rect codeLine="73" fill="#F1F1F1" height="66.6211" id="MeetingRepository" rx="2.5" ry="2.5" style="stroke:#181818;stroke-width:0.5;" width="282" x="446.5" y="665.5"/><ellipse cx="523.75" cy="681.5" fill="#B4A7E5" rx="11" ry="11" style="stroke:#181818;stroke-width:1.0;"/><path d="M524.7031,678.1406 L524.7031,684.7969 L526.4219,684.7969 Q527.0313,684.7969 527.2969,685.0313 Q527.5625,685.2656 527.5625,685.6563 Q527.5625,686.0313 527.2969,686.2656 Q527.0313,686.5 526.4219,686.5 L521.2813,686.5 Q520.6719,686.5 520.4063,686.2656 Q520.1406,686.0313 520.1406,685.6406 Q520.1406,685.2656 520.4063,685.0313 Q520.6719,684.7969 521.2813,684.7969 L523,684.7969 L523,678.1406 L521.2813,678.1406 Q520.6719,678.1406 520.4063,677.9063 Q520.1406,677.6719 520.1406,677.2813 Q520.1406,676.9063 520.4063,676.6719 Q520.6719,676.4375 521.2813,676.4375 L526.4219,676.4375 Q527.0313,676.4375 527.2969,676.6719 Q527.5625,676.9063 527.5625,677.2813 Q527.5625,677.6719 527.2969,677.9063 Q527.0313,678.1406 526.4219,678.1406 L524.7031,678.1406 Z " fill="#000000"/><text fill="#000000" font-family="sans-serif" font-size="14" font-style="italic" lengthAdjust="spacing" textLength="119" x="544.25" y="687.2969">MeetingRepository</text><line style="stroke:#181818;stroke-width:0.5;" x1="447.5" x2="727.5" y1="697.5" y2="697.5"/><line style="stroke:#181818;stroke-width:0.5;" x1="447.5" x2="727.5" y1="705.5" y2="705.5"/><ellipse cx="457.5" cy="720.3105" fill="#84BE84" rx="3" ry="3" style="stroke:#038048;stroke-width:1.0;"/><text fill="#000000" font-family="sans-serif" font-size="14" lengthAdjust="spacing" textLength="256" x="466.5" y="724.6074">findNotCanceledMeetingsByOwner(user)</text></g><!--class InMemoryMeetingRepository--><g id="elem_InMemoryMeetingRepository"><rect codeLine="77" fill="#F1F1F1" height="66.6211" id="InMemoryMeetingRepository" rx="2.5" ry="2.5" style="stroke:#181818;stroke-width:0.5;" width="282" x="141.5" y="885"/><ellipse cx="188.75" cy="901" fill="#ADD1B2" rx="11" ry="11" style="stroke:#181818;stroke-width:1.0;"/><path d="M191.5156,896.875 Q191.6719,896.6563 191.8594,896.5469 Q192.0469,896.4375 192.2656,896.4375 Q192.6406,896.4375 192.875,896.7031 Q193.1094,896.9531 193.1094,897.5625 L193.1094,899.0156 Q193.1094,899.625 192.875,899.8906 Q192.6406,900.1563 192.2656,900.1563 Q191.9219,900.1563 191.7188,899.9531 Q191.5156,899.7656 191.4063,899.25 Q191.3594,898.8906 191.1719,898.7031 Q190.8438,898.3281 190.2344,898.1094 Q189.625,897.8906 189,897.8906 Q188.2344,897.8906 187.5938,898.2188 Q186.9688,898.5469 186.4688,899.2969 Q185.9844,900.0469 185.9844,901.0781 L185.9844,902.1719 Q185.9844,903.4063 186.875,904.2344 Q187.7656,905.0469 189.3594,905.0469 Q190.2969,905.0469 190.9531,904.7969 Q191.3438,904.6406 191.7656,904.2031 Q192.0313,903.9375 192.1719,903.8594 Q192.3281,903.7813 192.5313,903.7813 Q192.8594,903.7813 193.1094,904.0469 Q193.375,904.2969 193.375,904.6406 Q193.375,904.9844 193.0313,905.3906 Q192.5313,905.9688 191.7344,906.2969 Q190.6563,906.75 189.3594,906.75 Q187.8438,906.75 186.6406,906.125 Q185.6563,905.625 184.9688,904.5625 Q184.2813,903.4844 184.2813,902.2031 L184.2813,901.0469 Q184.2813,899.7188 184.8906,898.5781 Q185.5156,897.4219 186.6094,896.8125 Q187.7031,896.1875 188.9375,896.1875 Q189.6719,896.1875 190.3125,896.3594 Q190.9688,896.5156 191.5156,896.875 Z " fill="#000000"/><text fill="#000000" font-family="sans-serif" font-size="14" lengthAdjust="spacing" textLength="179" x="209.25" y="906.7969">InMemoryMeetingRepository</text><line style="stroke:#181818;stroke-width:0.5;" x1="142.5" x2="422.5" y1="917" y2="917"/><line style="stroke:#181818;stroke-width:0.5;" x1="142.5" x2="422.5" y1="925" y2="925"/><ellipse cx="152.5" cy="939.8105" fill="#84BE84" rx="3" ry="3" style="stroke:#038048;stroke-width:1.0;"/><text fill="#000000" font-family="sans-serif" font-size="14" lengthAdjust="spacing" textLength="256" x="161.5" y="944.1074">findNotCanceledMeetingsByOwner(user)</text></g><!--class JpaMeetingRepository--><g id="elem_JpaMeetingRepository"><rect codeLine="81" fill="#F1F1F1" height="66.6211" id="JpaMeetingRepository" rx="2.5" ry="2.5" style="stroke:#181818;stroke-width:0.5;" width="282" x="458.5" y="885"/><ellipse cx="525.25" cy="901" fill="#ADD1B2" rx="11" ry="11" style="stroke:#181818;stroke-width:1.0;"/><path d="M528.0156,896.875 Q528.1719,896.6563 528.3594,896.5469 Q528.5469,896.4375 528.7656,896.4375 Q529.1406,896.4375 529.375,896.7031 Q529.6094,896.9531 529.6094,897.5625 L529.6094,899.0156 Q529.6094,899.625 529.375,899.8906 Q529.1406,900.1563 528.7656,900.1563 Q528.4219,900.1563 528.2188,899.9531 Q528.0156,899.7656 527.9063,899.25 Q527.8594,898.8906 527.6719,898.7031 Q527.3438,898.3281 526.7344,898.1094 Q526.125,897.8906 525.5,897.8906 Q524.7344,897.8906 524.0938,898.2188 Q523.4688,898.5469 522.9688,899.2969 Q522.4844,900.0469 522.4844,901.0781 L522.4844,902.1719 Q522.4844,903.4063 523.375,904.2344 Q524.2656,905.0469 525.8594,905.0469 Q526.7969,905.0469 527.4531,904.7969 Q527.8438,904.6406 528.2656,904.2031 Q528.5313,903.9375 528.6719,903.8594 Q528.8281,903.7813 529.0313,903.7813 Q529.3594,903.7813 529.6094,904.0469 Q529.875,904.2969 529.875,904.6406 Q529.875,904.9844 529.5313,905.3906 Q529.0313,905.9688 528.2344,906.2969 Q527.1563,906.75 525.8594,906.75 Q524.3438,906.75 523.1406,906.125 Q522.1563,905.625 521.4688,904.5625 Q520.7813,903.4844 520.7813,902.2031 L520.7813,901.0469 Q520.7813,899.7188 521.3906,898.5781 Q522.0156,897.4219 523.1094,896.8125 Q524.2031,896.1875 525.4375,896.1875 Q526.1719,896.1875 526.8125,896.3594 Q527.4688,896.5156 528.0156,896.875 Z " fill="#000000"/><text fill="#000000" font-family="sans-serif" font-size="14" lengthAdjust="spacing" textLength="140" x="545.75" y="906.7969">JpaMeetingRepository</text><line style="stroke:#181818;stroke-width:0.5;" x1="459.5" x2="739.5" y1="917" y2="917"/><line style="stroke:#181818;stroke-width:0.5;" x1="459.5" x2="739.5" y1="925" y2="925"/><ellipse cx="469.5" cy="939.8105" fill="#84BE84" rx="3" ry="3" style="stroke:#038048;stroke-width:1.0;"/><text fill="#000000" font-family="sans-serif" font-size="14" lengthAdjust="spacing" textLength="256" x="478.5" y="944.1074">findNotCanceledMeetingsByOwner(user)</text></g><!--class InviteRepository--><g id="elem_InviteRepository"><rect codeLine="85" fill="#F1F1F1" height="85.2422" id="InviteRepository" rx="2.5" ry="2.5" style="stroke:#181818;stroke-width:0.5;" width="201" x="776" y="656.5"/><ellipse cx="821.75" cy="672.5" fill="#B4A7E5" rx="11" ry="11" style="stroke:#181818;stroke-width:1.0;"/><path d="M822.7031,669.1406 L822.7031,675.7969 L824.4219,675.7969 Q825.0313,675.7969 825.2969,676.0313 Q825.5625,676.2656 825.5625,676.6563 Q825.5625,677.0313 825.2969,677.2656 Q825.0313,677.5 824.4219,677.5 L819.2813,677.5 Q818.6719,677.5 818.4063,677.2656 Q818.1406,677.0313 818.1406,676.6406 Q818.1406,676.2656 818.4063,676.0313 Q818.6719,675.7969 819.2813,675.7969 L821,675.7969 L821,669.1406 L819.2813,669.1406 Q818.6719,669.1406 818.4063,668.9063 Q818.1406,668.6719 818.1406,668.2813 Q818.1406,667.9063 818.4063,667.6719 Q818.6719,667.4375 819.2813,667.4375 L824.4219,667.4375 Q825.0313,667.4375 825.2969,667.6719 Q825.5625,667.9063 825.5625,668.2813 Q825.5625,668.6719 825.2969,668.9063 Q825.0313,669.1406 824.4219,669.1406 L822.7031,669.1406 Z " fill="#000000"/><text fill="#000000" font-family="sans-serif" font-size="14" font-style="italic" lengthAdjust="spacing" textLength="101" x="842.25" y="678.2969">InviteRepository</text><line style="stroke:#181818;stroke-width:0.5;" x1="777" x2="976" y1="688.5" y2="688.5"/><line style="stroke:#181818;stroke-width:0.5;" x1="777" x2="976" y1="696.5" y2="696.5"/><ellipse cx="787" cy="711.3105" fill="#84BE84" rx="3" ry="3" style="stroke:#038048;stroke-width:1.0;"/><text fill="#000000" font-family="sans-serif" font-size="14" lengthAdjust="spacing" textLength="175" x="796" y="715.6074">findByMeetingID(meetingID)</text><ellipse cx="787" cy="729.9316" fill="#84BE84" rx="3" ry="3" style="stroke:#038048;stroke-width:1.0;"/><text fill="#000000" font-family="sans-serif" font-size="14" lengthAdjust="spacing" textLength="73" x="796" y="734.2285">save(invite)</text></g><!--class InMemoryInviteRepository--><g id="elem_InMemoryInviteRepository"><rect codeLine="90" fill="#F1F1F1" height="66.6211" id="InMemoryInviteRepository" rx="2.5" ry="2.5" style="stroke:#181818;stroke-width:0.5;" width="201" x="776" y="885"/><ellipse cx="794.15" cy="901" fill="#ADD1B2" rx="11" ry="11" style="stroke:#181818;stroke-width:1.0;"/><path d="M796.9156,896.875 Q797.0719,896.6563 797.2594,896.5469 Q797.4469,896.4375 797.6656,896.4375 Q798.0406,896.4375 798.275,896.7031 Q798.5094,896.9531 798.5094,897.5625 L798.5094,899.0156 Q798.5094,899.625 798.275,899.8906 Q798.0406,900.1563 797.6656,900.1563 Q797.3219,900.1563 797.1188,899.9531 Q796.9156,899.7656 796.8063,899.25 Q796.7594,898.8906 796.5719,898.7031 Q796.2438,898.3281 795.6344,898.1094 Q795.025,897.8906 794.4,897.8906 Q793.6344,897.8906 792.9938,898.2188 Q792.3688,898.5469 791.8688,899.2969 Q791.3844,900.0469 791.3844,901.0781 L791.3844,902.1719 Q791.3844,903.4063 792.275,904.2344 Q793.1656,905.0469 794.7594,905.0469 Q795.6969,905.0469 796.3531,904.7969 Q796.7438,904.6406 797.1656,904.2031 Q797.4313,903.9375 797.5719,903.8594 Q797.7281,903.7813 797.9313,903.7813 Q798.2594,903.7813 798.5094,904.0469 Q798.775,904.2969 798.775,904.6406 Q798.775,904.9844 798.4313,905.3906 Q797.9313,905.9688 797.1344,906.2969 Q796.0563,906.75 794.7594,906.75 Q793.2438,906.75 792.0406,906.125 Q791.0563,905.625 790.3688,904.5625 Q789.6813,903.4844 789.6813,902.2031 L789.6813,901.0469 Q789.6813,899.7188 790.2906,898.5781 Q790.9156,897.4219 792.0094,896.8125 Q793.1031,896.1875 794.3375,896.1875 Q795.0719,896.1875 795.7125,896.3594 Q796.3688,896.5156 796.9156,896.875 Z " fill="#000000"/><text fill="#000000" font-family="sans-serif" font-size="14" lengthAdjust="spacing" textLength="162" x="808.85" y="906.7969">InMemoryInviteRepository</text><line style="stroke:#181818;stroke-width:0.5;" x1="777" x2="976" y1="917" y2="917"/><line style="stroke:#181818;stroke-width:0.5;" x1="777" x2="976" y1="925" y2="925"/><ellipse cx="787" cy="939.8105" fill="#84BE84" rx="3" ry="3" style="stroke:#038048;stroke-width:1.0;"/><text fill="#000000" font-family="sans-serif" font-size="14" lengthAdjust="spacing" textLength="175" x="796" y="944.1074">findByMeetingID(meetingID)</text></g><!--class JpaInviteRepository--><g id="elem_JpaInviteRepository"><rect codeLine="94" fill="#F1F1F1" height="66.6211" id="JpaInviteRepository" rx="2.5" ry="2.5" style="stroke:#181818;stroke-width:0.5;" width="201" x="1012" y="885"/><ellipse cx="1047.7" cy="901" fill="#ADD1B2" rx="11" ry="11" style="stroke:#181818;stroke-width:1.0;"/><path d="M1050.4656,896.875 Q1050.6219,896.6563 1050.8094,896.5469 Q1050.9969,896.4375 1051.2156,896.4375 Q1051.5906,896.4375 1051.825,896.7031 Q1052.0594,896.9531 1052.0594,897.5625 L1052.0594,899.0156 Q1052.0594,899.625 1051.825,899.8906 Q1051.5906,900.1563 1051.2156,900.1563 Q1050.8719,900.1563 1050.6688,899.9531 Q1050.4656,899.7656 1050.3563,899.25 Q1050.3094,898.8906 1050.1219,898.7031 Q1049.7938,898.3281 1049.1844,898.1094 Q1048.575,897.8906 1047.95,897.8906 Q1047.1844,897.8906 1046.5438,898.2188 Q1045.9188,898.5469 1045.4188,899.2969 Q1044.9344,900.0469 1044.9344,901.0781 L1044.9344,902.1719 Q1044.9344,903.4063 1045.825,904.2344 Q1046.7156,905.0469 1048.3094,905.0469 Q1049.2469,905.0469 1049.9031,904.7969 Q1050.2938,904.6406 1050.7156,904.2031 Q1050.9813,903.9375 1051.1219,903.8594 Q1051.2781,903.7813 1051.4813,903.7813 Q1051.8094,903.7813 1052.0594,904.0469 Q1052.325,904.2969 1052.325,904.6406 Q1052.325,904.9844 1051.9813,905.3906 Q1051.4813,905.9688 1050.6844,906.2969 Q1049.6063,906.75 1048.3094,906.75 Q1046.7938,906.75 1045.5906,906.125 Q1044.6063,905.625 1043.9188,904.5625 Q1043.2313,903.4844 1043.2313,902.2031 L1043.2313,901.0469 Q1043.2313,899.7188 1043.8406,898.5781 Q1044.4656,897.4219 1045.5594,896.8125 Q1046.6531,896.1875 1047.8875,896.1875 Q1048.6219,896.1875 1049.2625,896.3594 Q1049.9188,896.5156 1050.4656,896.875 Z " fill="#000000"/><text fill="#000000" font-family="sans-serif" font-size="14" lengthAdjust="spacing" textLength="123" x="1066.3" y="906.7969">JpaInviteRepository</text><line style="stroke:#181818;stroke-width:0.5;" x1="1013" x2="1212" y1="917" y2="917"/><line style="stroke:#181818;stroke-width:0.5;" x1="1013" x2="1212" y1="925" y2="925"/><ellipse cx="1023" cy="939.8105" fill="#84BE84" rx="3" ry="3" style="stroke:#038048;stroke-width:1.0;"/><text fill="#000000" font-family="sans-serif" font-size="14" lengthAdjust="spacing" textLength="175" x="1032" y="944.1074">findByMeetingID(meetingID)</text></g><!--class RepositoryFactory--><g id="elem_RepositoryFactory"><rect codeLine="98" fill="#F1F1F1" height="66.6211" id="RepositoryFactory" rx="2.5" ry="2.5" style="stroke:#181818;stroke-width:0.5;" width="152" x="526.5" y="446"/><ellipse cx="543.3" cy="462" fill="#ADD1B2" rx="11" ry="11" style="stroke:#181818;stroke-width:1.0;"/><path d="M546.0656,457.875 Q546.2219,457.6563 546.4094,457.5469 Q546.5969,457.4375 546.8156,457.4375 Q547.1906,457.4375 547.425,457.7031 Q547.6594,457.9531 547.6594,458.5625 L547.6594,460.0156 Q547.6594,460.625 547.425,460.8906 Q547.1906,461.1563 546.8156,461.1563 Q546.4719,461.1563 546.2688,460.9531 Q546.0656,460.7656 545.9563,460.25 Q545.9094,459.8906 545.7219,459.7031 Q545.3938,459.3281 544.7844,459.1094 Q544.175,458.8906 543.55,458.8906 Q542.7844,458.8906 542.1438,459.2188 Q541.5188,459.5469 541.0188,460.2969 Q540.5344,461.0469 540.5344,462.0781 L540.5344,463.1719 Q540.5344,464.4063 541.425,465.2344 Q542.3156,466.0469 543.9094,466.0469 Q544.8469,466.0469 545.5031,465.7969 Q545.8938,465.6406 546.3156,465.2031 Q546.5813,464.9375 546.7219,464.8594 Q546.8781,464.7813 547.0813,464.7813 Q547.4094,464.7813 547.6594,465.0469 Q547.925,465.2969 547.925,465.6406 Q547.925,465.9844 547.5813,466.3906 Q547.0813,466.9688 546.2844,467.2969 Q545.2063,467.75 543.9094,467.75 Q542.3938,467.75 541.1906,467.125 Q540.2063,466.625 539.5188,465.5625 Q538.8313,464.4844 538.8313,463.2031 L538.8313,462.0469 Q538.8313,460.7188 539.4406,459.5781 Q540.0656,458.4219 541.1594,457.8125 Q542.2531,457.1875 543.4875,457.1875 Q544.2219,457.1875 544.8625,457.3594 Q545.5188,457.5156 546.0656,457.875 Z " fill="#000000"/><text fill="#000000" font-family="sans-serif" font-size="14" lengthAdjust="spacing" textLength="116" x="557.7" y="467.7969">RepositoryFactory</text><line style="stroke:#181818;stroke-width:0.5;" x1="527.5" x2="677.5" y1="478" y2="478"/><line style="stroke:#181818;stroke-width:0.5;" x1="527.5" x2="677.5" y1="486" y2="486"/><ellipse cx="537.5" cy="500.8105" fill="#84BE84" rx="3" ry="3" style="stroke:#038048;stroke-width:1.0;"/><text fill="#000000" font-family="sans-serif" font-size="14" lengthAdjust="spacing" textLength="126" x="546.5" y="505.1074">RepositoryFactory()</text></g><!--class PersistenceContext--><g id="elem_PersistenceContext"><rect codeLine="103" fill="#F1F1F1" height="66.6211" id="PersistenceContext" rx="2.5" ry="2.5" style="stroke:#181818;stroke-width:0.5;" width="154" x="525.5" y="198.5"/><ellipse cx="540.5" cy="214.5" fill="#ADD1B2" rx="11" ry="11" style="stroke:#181818;stroke-width:1.0;"/><path d="M543.2656,210.375 Q543.4219,210.1563 543.6094,210.0469 Q543.7969,209.9375 544.0156,209.9375 Q544.3906,209.9375 544.625,210.2031 Q544.8594,210.4531 544.8594,211.0625 L544.8594,212.5156 Q544.8594,213.125 544.625,213.3906 Q544.3906,213.6563 544.0156,213.6563 Q543.6719,213.6563 543.4688,213.4531 Q543.2656,213.2656 543.1563,212.75 Q543.1094,212.3906 542.9219,212.2031 Q542.5938,211.8281 541.9844,211.6094 Q541.375,211.3906 540.75,211.3906 Q539.9844,211.3906 539.3438,211.7188 Q538.7188,212.0469 538.2188,212.7969 Q537.7344,213.5469 537.7344,214.5781 L537.7344,215.6719 Q537.7344,216.9063 538.625,217.7344 Q539.5156,218.5469 541.1094,218.5469 Q542.0469,218.5469 542.7031,218.2969 Q543.0938,218.1406 543.5156,217.7031 Q543.7813,217.4375 543.9219,217.3594 Q544.0781,217.2813 544.2813,217.2813 Q544.6094,217.2813 544.8594,217.5469 Q545.125,217.7969 545.125,218.1406 Q545.125,218.4844 544.7813,218.8906 Q544.2813,219.4688 543.4844,219.7969 Q542.4063,220.25 541.1094,220.25 Q539.5938,220.25 538.3906,219.625 Q537.4063,219.125 536.7188,218.0625 Q536.0313,216.9844 536.0313,215.7031 L536.0313,214.5469 Q536.0313,213.2188 536.6406,212.0781 Q537.2656,210.9219 538.3594,210.3125 Q539.4531,209.6875 540.6875,209.6875 Q541.4219,209.6875 542.0625,209.8594 Q542.7188,210.0156 543.2656,210.375 Z " fill="#000000"/><text fill="#000000" font-family="sans-serif" font-size="14" lengthAdjust="spacing" textLength="122" x="554.5" y="220.2969">PersistenceContext</text><line style="stroke:#181818;stroke-width:0.5;" x1="526.5" x2="678.5" y1="230.5" y2="230.5"/><line style="stroke:#181818;stroke-width:0.5;" x1="526.5" x2="678.5" y1="238.5" y2="238.5"/><rect fill="#F24D5C" height="6" style="stroke:#C82930;stroke-width:1.0;" width="6" x="533.5" y="250.3105"/><text fill="#000000" font-family="sans-serif" font-size="14" lengthAdjust="spacing" textLength="84" x="545.5" y="257.6074">repositories()</text></g><!--link MeetingService to Meeting--><g id="link_MeetingService_Meeting"><path codeLine="108" d="M301.63,540.51 C289.66,560.55 276.01,583.37 262.9,605.31 " fill="none" id="MeetingService-to-Meeting" style="stroke:#181818;stroke-width:1.0;stroke-dasharray:7.0,7.0;"/><polygon fill="#181818" points="260.29,609.68,268.3282,603.989,262.8457,605.3825,261.4522,599.9,260.29,609.68" style="stroke:#181818;stroke-width:1.0;"/></g><!--link MeetingService to MeetingDTO--><g id="link_MeetingService_MeetingDTO"><path codeLine="109" d="M341.64,540.51 C343.4,566.08 345.48,596.18 347.34,623.18 " fill="none" id="MeetingService-to-MeetingDTO" style="stroke:#181818;stroke-width:1.0;stroke-dasharray:7.0,7.0;"/><polygon fill="#181818" points="347.68,628.18,351.0549,618.9274,347.3379,623.1917,343.0737,619.4747,347.68,628.18" style="stroke:#181818;stroke-width:1.0;"/></g><!--link MeetingService to MeetingRepository--><g id="link_MeetingService_MeetingRepository"><path codeLine="110" d="M406.48,540.51 C451.24,579.45 508.09,628.91 546.02,661.91 " fill="none" id="MeetingService-to-MeetingRepository" style="stroke:#181818;stroke-width:1.0;stroke-dasharray:7.0,7.0;"/><polygon fill="#181818" points="550.09,665.45,545.9124,656.5311,546.313,662.1737,540.6703,662.5743,550.09,665.45" style="stroke:#181818;stroke-width:1.0;"/></g><!--reverse link MeetingRepository to InMemoryMeetingRepository--><g id="link_MeetingRepository_InMemoryMeetingRepository"><path codeLine="112" d="M525.41,744.27 C467.02,785.92 380.94,847.3 328.47,884.72 " fill="none" id="MeetingRepository-backto-InMemoryMeetingRepository" style="stroke:#181818;stroke-width:1.0;stroke-dasharray:7.0,7.0;"/><polygon fill="none" points="521.49,738.47,541.84,732.56,529.62,749.87,521.49,738.47" style="stroke:#181818;stroke-width:1.0;"/></g><!--reverse link MeetingRepository to JpaMeetingRepository--><g id="link_MeetingRepository_JpaMeetingRepository"><path codeLine="113" d="M590.4,752.55 C592.67,793.72 595.76,849.71 597.69,884.72 " fill="none" id="MeetingRepository-backto-JpaMeetingRepository" style="stroke:#181818;stroke-width:1.0;stroke-dasharray:7.0,7.0;"/><polygon fill="none" points="583.41,752.92,589.3,732.56,597.39,752.15,583.41,752.92" style="stroke:#181818;stroke-width:1.0;"/></g><!--reverse link InviteRepository to InMemoryInviteRepository--><g id="link_InviteRepository_InMemoryInviteRepository"><path codeLine="115" d="M876.5,761.79 C876.5,801.83 876.5,852.38 876.5,884.83 " fill="none" id="InviteRepository-backto-InMemoryInviteRepository" style="stroke:#181818;stroke-width:1.0;stroke-dasharray:7.0,7.0;"/><polygon fill="none" points="869.5,761.68,876.5,741.68,883.5,761.68,869.5,761.68" style="stroke:#181818;stroke-width:1.0;"/></g><!--reverse link InviteRepository to JpaInviteRepository--><g id="link_InviteRepository_JpaInviteRepository"><path codeLine="116" d="M936.47,755.27 C980.88,796.2 1039.9,850.59 1077.05,884.83 " fill="none" id="InviteRepository-backto-JpaInviteRepository" style="stroke:#181818;stroke-width:1.0;stroke-dasharray:7.0,7.0;"/><polygon fill="none" points="931.69,760.38,921.72,741.68,941.17,750.09,931.69,760.38" style="stroke:#181818;stroke-width:1.0;"/></g><!--link CancelMeetingController to MeetingService--><g id="link_CancelMeetingController_MeetingService"><path codeLine="118" d="M300.66,349.28 C306.94,371.33 313.31,393.66 318.94,413.41 " fill="none" id="CancelMeetingController-to-MeetingService" style="stroke:#181818;stroke-width:1.0;"/><polygon fill="#181818" points="320.36,418.38,321.7413,408.6285,318.9902,413.5713,314.0473,410.8202,320.36,418.38" style="stroke:#181818;stroke-width:1.0;"/></g><!--link CancelMeetingController to Invite--><g id="link_CancelMeetingController_Invite"><path codeLine="119" d="M186.98,349.28 C170.17,373.56 153.12,398.18 138.47,419.33 " fill="none" id="CancelMeetingController-to-Invite" style="stroke:#181818;stroke-width:1.0;stroke-dasharray:7.0,7.0;"/><polygon fill="#181818" points="135.58,423.51,144.0074,418.413,138.4387,419.4078,137.4439,413.8391,135.58,423.51" style="stroke:#181818;stroke-width:1.0;"/></g><!--link Invite to InviteStatus--><g id="link_Invite_InviteStatus"><path codeLine="121" d="M85.64,550.22 C80.03,583.22 73.47,621.76 68.46,651.2 " fill="none" id="Invite-to-InviteStatus" style="stroke:#181818;stroke-width:1.0;"/><polygon fill="#181818" points="67.61,656.22,73.0467,648.0077,68.4389,651.2892,65.1575,646.6814,67.61,656.22" style="stroke:#181818;stroke-width:1.0;"/></g><!--link InviteStatus to Status--><g id="link_InviteStatus_Status"><path codeLine="122" d="M59.73,741.68 C59.21,770.13 58.5,808.63 57.88,842.35 " fill="none" id="InviteStatus-to-Status" style="stroke:#181818;stroke-width:1.0;"/><polygon fill="#181818" points="57.78,847.72,61.9337,838.7899,57.8657,842.7207,53.9349,838.6528,57.78,847.72" style="stroke:#181818;stroke-width:1.0;"/></g><!--link CancelMeetingUI to PersistenceContext--><g id="link_CancelMeetingUI_PersistenceContext"><path codeLine="125" d="M455.17,55.06 C469.91,71.61 490.11,94.52 507.5,115 C529.79,141.26 554.43,171.37 573.02,194.34 " fill="none" id="CancelMeetingUI-to-PersistenceContext" style="stroke:#181818;stroke-width:1.0;stroke-dasharray:7.0,7.0;"/><polygon fill="#181818" points="576.19,198.25,573.6402,188.7369,573.0457,194.3624,567.4201,193.7679,576.19,198.25" style="stroke:#181818;stroke-width:1.0;"/></g><!--link PersistenceContext to RepositoryFactory--><g id="link_PersistenceContext_RepositoryFactory"><path codeLine="126" d="M602.5,265.6 C602.5,310.9 602.5,392.72 602.5,440.66 " fill="none" id="PersistenceContext-to-RepositoryFactory" style="stroke:#181818;stroke-width:1.0;stroke-dasharray:7.0,7.0;"/><polygon fill="#181818" points="602.5,445.76,606.5,436.76,602.5,440.76,598.5,436.76,602.5,445.76" style="stroke:#181818;stroke-width:1.0;"/></g><!--link RepositoryFactory to MeetingRepository--><g id="link_RepositoryFactory_MeetingRepository"><path codeLine="127" d="M600.25,513.06 C597.54,552.38 592.99,618.41 590.12,660.02 " fill="none" id="RepositoryFactory-to-MeetingRepository" style="stroke:#181818;stroke-width:1.0;"/><polygon fill="#181818" points="589.76,665.22,594.368,656.5156,590.103,660.2318,586.3869,655.9668,589.76,665.22" style="stroke:#181818;stroke-width:1.0;"/></g><!--link RepositoryFactory to InviteRepository--><g id="link_RepositoryFactory_InviteRepository"><path codeLine="128" d="M643.52,513.06 C690.37,550.25 767.32,611.33 819.86,653.04 " fill="none" id="RepositoryFactory-to-InviteRepository" style="stroke:#181818;stroke-width:1.0;"/><polygon fill="#181818" points="823.92,656.26,819.348,647.5366,820.0004,653.1558,814.3812,653.8081,823.92,656.26" style="stroke:#181818;stroke-width:1.0;"/></g><!--link CancelMeetingUI to CancelMeetingController--><g id="link_CancelMeetingUI_CancelMeetingController"><path codeLine="130" d="M415.02,55.22 C402.87,69.7 386.2,89.56 368.43,110.73 " fill="none" id="CancelMeetingUI-to-CancelMeetingController" style="stroke:#181818;stroke-width:1.0;stroke-dasharray:7.0,7.0;"/><polygon fill="#181818" points="365.1,114.7,373.9504,110.3791,368.315,110.8706,367.8234,105.2352,365.1,114.7" style="stroke:#181818;stroke-width:1.0;"/></g><!--SRC=[hLNRRgCm47ttL_18b2PViAf4WAweDYHAMktZoe9fQucO2W_PxLx-VSV6X8kXgstx4ZbpENFcpDXa1LVA2xdCeDW2e92FzudtYx4_Z6MkBombLcLHG4KnAu_N-5HMuYT7KSeZL6UH0PbFJV01daibiAnUo2RaMI0CJ3QipMFBkLh-L9qhjymL6rTPQDH2A4nBRC0XFsPFaDTqi7MKlw2Wh5_Qjz3QyGWOK7cGA3AEaDyh8hJG-bY1R8uHHEJqazUL8Kf7rTRQw8Opoo10-eFYP7h6CiAoHw717a17TxiteLzm4YDBXw6GOwsw4T2ffhOqdSRL9z4a7utTGDZi4MEGzScxHEtZD4hIpom8mtX_5qVi4D_6eJw4GHh6N-YGxhu5NzDZV31Q3ZksCpRbt6sYoiCutuanWvVTqDjP7pl9VDsoeIuaGlN0gTvsZ4CCbjw3a7dgOcrUTjybBSC5fzLh2oTA_GYissV-FfYkjMHqDIumcvPf4hKw9f7UHyNFu3StQgAz_yNhz_Jct2xbXcSsq_EMhdrmG_TGANe3WBJIZmhyG9EsygesJO1TUJPQmFNwkbsALrnqGL_nzZVNdUQdt-lr_CxC9Kmj1cEEhWFmiNScV68-ZCrz1LQhwz5Td0tLYZJ0BL6JtNzUsE2jqLvh7n6WJvH6S-VA9aQj8vtzOEuczLhfTJuTzm-1BByP9TXV]--></g></svg>