<?xml version="1.0" encoding="us-ascii" standalone="no"?><svg xmlns="http://www.w3.org/2000/svg" xmlns:xlink="http://www.w3.org/1999/xlink" contentStyleType="text/css" height="763.7px" preserveAspectRatio="none" style="width:1136px;height:763px;background:#FFFFFF;" version="1.1" viewBox="0 0 1136 763" width="1136.1px" zoomAndPan="magnify"><defs/><g><rect fill="#FFFFFF" height="175.726" style="stroke:#181818;stroke-width:0.6999999999999998;" width="7" x="201.25" y="85.0732"/><rect fill="#FFFFFF" height="52.9074" style="stroke:#181818;stroke-width:0.6999999999999998;" width="7" x="201.25" y="282.7029"/><rect fill="#FFFFFF" height="330.8334" style="stroke:#181818;stroke-width:0.6999999999999998;" width="7" x="201.25" y="357.5141"/><rect fill="#FFFFFF" height="127.0186" style="stroke:#181818;stroke-width:0.6999999999999998;" width="7" x="444.85" y="106.977"/><rect fill="#FFFFFF" height="286.326" style="stroke:#181818;stroke-width:0.6999999999999998;" width="7" x="444.85" y="379.4178"/><rect fill="#FFFFFF" height="105.1148" style="stroke:#181818;stroke-width:0.6999999999999998;" width="7" x="637.35" y="128.8807"/><rect fill="#FFFFFF" height="21.9037" style="stroke:#181818;stroke-width:0.6999999999999998;" width="7" x="729.05" y="212.0918"/><rect fill="#FFFFFF" height="21" style="stroke:#181818;stroke-width:0.6999999999999998;" width="7" x="729.05" y="444.2252"/><rect fill="#FFFFFF" height="21" style="stroke:#181818;stroke-width:0.6999999999999998;" width="7" x="926.1" y="591.34"/><rect fill="#FFFFFF" height="21" style="stroke:#181818;stroke-width:0.6999999999999998;" width="7" x="1001" y="530.0326"/><rect fill="#FFFFFF" height="21" style="stroke:#181818;stroke-width:0.6999999999999998;" width="7" x="1001" y="634.2437"/><rect fill="#FFFFFF" height="21" style="stroke:#181818;stroke-width:0.6999999999999998;" width="7" x="1088.85" y="150.7844"/><rect fill="#FFFFFF" height="21" style="stroke:#181818;stroke-width:0.6999999999999998;" width="7" x="1088.85" y="401.3215"/><rect fill="#FFFFFF" height="21" style="stroke:#181818;stroke-width:0.6999999999999998;" width="7" x="1088.85" y="487.1289"/><rect fill="none" height="57.3111" style="stroke:#000000;stroke-width:1.0499999999999998;" width="243.95" x="595" y="182.2844"/><rect fill="none" height="99.3111" style="stroke:#000000;stroke-width:1.0499999999999998;" width="667.1" x="381.85" y="561.5326"/><line style="stroke:#181818;stroke-width:0.3499999999999999;stroke-dasharray:5.0,5.0;" x1="15.4" x2="15.4" y1="61.7695" y2="694.6475"/><line style="stroke:#181818;stroke-width:0.3499999999999999;stroke-dasharray:5.0,5.0;" x1="204.75" x2="204.75" y1="61.7695" y2="694.6475"/><line style="stroke:#181818;stroke-width:0.3499999999999999;stroke-dasharray:5.0,5.0;" x1="448.35" x2="448.35" y1="61.7695" y2="694.6475"/><line style="stroke:#181818;stroke-width:0.3499999999999999;stroke-dasharray:5.0,5.0;" x1="640.5" x2="640.5" y1="61.7695" y2="694.6475"/><line style="stroke:#181818;stroke-width:0.3499999999999999;stroke-dasharray:5.0,5.0;" x1="732.55" x2="732.55" y1="61.7695" y2="694.6475"/><line style="stroke:#181818;stroke-width:0.3499999999999999;stroke-dasharray:5.0,5.0;" x1="799.05" x2="799.05" y1="61.7695" y2="694.6475"/><line style="stroke:#181818;stroke-width:0.3499999999999999;stroke-dasharray:5.0,5.0;" x1="865.55" x2="865.55" y1="61.7695" y2="694.6475"/><line style="stroke:#181818;stroke-width:0.3499999999999999;stroke-dasharray:5.0,5.0;" x1="929.25" x2="929.25" y1="61.7695" y2="694.6475"/><line style="stroke:#181818;stroke-width:0.3499999999999999;stroke-dasharray:5.0,5.0;" x1="1004.15" x2="1004.15" y1="61.7695" y2="694.6475"/><line style="stroke:#181818;stroke-width:0.3499999999999999;stroke-dasharray:5.0,5.0;" x1="1092.35" x2="1092.35" y1="61.7695" y2="694.6475"/><text fill="#000000" font-family="sans-serif" font-size="9.8" lengthAdjust="spacing" textLength="20.3" x="3.5" y="59.31">User</text><ellipse cx="15.75" cy="12.6848" fill="#E2E2F0" rx="5.6" ry="5.6" style="stroke:#181818;stroke-width:0.3499999999999999;"/><path d="M15.75,18.2848 L15.75,37.1848 M6.65,23.8848 L24.85,23.8848 M15.75,37.1848 L6.65,47.6848 M15.75,37.1848 L24.85,47.6848 " fill="none" style="stroke:#181818;stroke-width:0.3499999999999999;"/><text fill="#000000" font-family="sans-serif" font-size="9.8" lengthAdjust="spacing" textLength="20.3" x="3.5" y="704.5227">User</text><ellipse cx="15.75" cy="712.9322" fill="#E2E2F0" rx="5.6" ry="5.6" style="stroke:#181818;stroke-width:0.3499999999999999;"/><path d="M15.75,718.5322 L15.75,737.4322 M6.65,724.1322 L24.85,724.1322 M15.75,737.4322 L6.65,747.9322 M15.75,737.4322 L24.85,747.9322 " fill="none" style="stroke:#181818;stroke-width:0.3499999999999999;"/><rect fill="#E2E2F0" height="35.8695" rx="1.75" ry="1.75" style="stroke:#181818;stroke-width:0.3499999999999999;" width="84" x="162.75" y="25.2"/><text fill="#000000" font-family="sans-serif" font-size="9.8" font-style="italic" lengthAdjust="spacing" textLength="66.5" x="171.5" y="40.6752">&#171;presentation&#187;</text><text fill="#000000" font-family="sans-serif" font-size="9.8" lengthAdjust="spacing" textLength="74.2" x="167.65" y="53.71">CancelMeetingUI</text><rect fill="#E2E2F0" height="35.8695" rx="1.75" ry="1.75" style="stroke:#181818;stroke-width:0.3499999999999999;" width="84" x="162.75" y="693.9475"/><text fill="#000000" font-family="sans-serif" font-size="9.8" font-style="italic" lengthAdjust="spacing" textLength="66.5" x="171.5" y="709.4227">&#171;presentation&#187;</text><text fill="#000000" font-family="sans-serif" font-size="9.8" lengthAdjust="spacing" textLength="74.2" x="167.65" y="722.4574">CancelMeetingUI</text><rect fill="#E2E2F0" height="35.8695" rx="1.75" ry="1.75" style="stroke:#181818;stroke-width:0.3499999999999999;" width="119" x="388.85" y="25.2"/><text fill="#000000" font-family="sans-serif" font-size="9.8" font-style="italic" lengthAdjust="spacing" textLength="52.5" x="422.1" y="40.6752">&#171;controller&#187;</text><text fill="#000000" font-family="sans-serif" font-size="9.8" lengthAdjust="spacing" textLength="109.2" x="393.75" y="53.71">CancelMeetingController</text><rect fill="#E2E2F0" height="35.8695" rx="1.75" ry="1.75" style="stroke:#181818;stroke-width:0.3499999999999999;" width="119" x="388.85" y="693.9475"/><text fill="#000000" font-family="sans-serif" font-size="9.8" font-style="italic" lengthAdjust="spacing" textLength="52.5" x="422.1" y="709.4227">&#171;controller&#187;</text><text fill="#000000" font-family="sans-serif" font-size="9.8" lengthAdjust="spacing" textLength="109.2" x="393.75" y="722.4574">CancelMeetingController</text><rect fill="#E2E2F0" height="35.8695" rx="1.75" ry="1.75" style="stroke:#181818;stroke-width:0.3499999999999999;" width="77.7" x="602" y="25.2"/><text fill="#000000" font-family="sans-serif" font-size="9.8" font-style="italic" lengthAdjust="spacing" textLength="42" x="619.85" y="40.6752">&#171;service&#187;</text><text fill="#000000" font-family="sans-serif" font-size="9.8" lengthAdjust="spacing" textLength="67.9" x="606.9" y="53.71">MeetingService</text><rect fill="#E2E2F0" height="35.8695" rx="1.75" ry="1.75" style="stroke:#181818;stroke-width:0.3499999999999999;" width="77.7" x="602" y="693.9475"/><text fill="#000000" font-family="sans-serif" font-size="9.8" font-style="italic" lengthAdjust="spacing" textLength="42" x="619.85" y="709.4227">&#171;service&#187;</text><text fill="#000000" font-family="sans-serif" font-size="9.8" lengthAdjust="spacing" textLength="67.9" x="606.9" y="722.4574">MeetingService</text><rect fill="#E2E2F0" height="35.8695" rx="1.75" ry="1.75" style="stroke:#181818;stroke-width:0.3499999999999999;" width="53.2" x="705.95" y="25.2"/><text fill="#000000" font-family="sans-serif" font-size="9.8" font-style="italic" lengthAdjust="spacing" textLength="43.4" x="710.85" y="40.6752">&#171;domain&#187;</text><text fill="#000000" font-family="sans-serif" font-size="9.8" lengthAdjust="spacing" textLength="35" x="715.05" y="53.71">Meeting</text><rect fill="#E2E2F0" height="35.8695" rx="1.75" ry="1.75" style="stroke:#181818;stroke-width:0.3499999999999999;" width="53.2" x="705.95" y="693.9475"/><text fill="#000000" font-family="sans-serif" font-size="9.8" font-style="italic" lengthAdjust="spacing" textLength="43.4" x="710.85" y="709.4227">&#171;domain&#187;</text><text fill="#000000" font-family="sans-serif" font-size="9.8" lengthAdjust="spacing" textLength="35" x="715.05" y="722.4574">Meeting</text><rect fill="#E2E2F0" height="35.8695" rx="1.75" ry="1.75" style="stroke:#181818;stroke-width:0.3499999999999999;" width="65.8" x="766.15" y="25.2"/><text fill="#000000" font-family="sans-serif" font-size="9.8" font-style="italic" lengthAdjust="spacing" textLength="25.2" x="786.45" y="40.6752">&#171;dto&#187;</text><text fill="#000000" font-family="sans-serif" font-size="9.8" lengthAdjust="spacing" textLength="56" x="771.05" y="53.71">MeetingDTO</text><rect fill="#E2E2F0" height="35.8695" rx="1.75" ry="1.75" style="stroke:#181818;stroke-width:0.3499999999999999;" width="65.8" x="766.15" y="693.9475"/><text fill="#000000" font-family="sans-serif" font-size="9.8" font-style="italic" lengthAdjust="spacing" textLength="25.2" x="786.45" y="709.4227">&#171;dto&#187;</text><text fill="#000000" font-family="sans-serif" font-size="9.8" lengthAdjust="spacing" textLength="56" x="771.05" y="722.4574">MeetingDTO</text><rect fill="#E2E2F0" height="35.8695" rx="1.75" ry="1.75" style="stroke:#181818;stroke-width:0.3499999999999999;" width="53.2" x="838.95" y="25.2"/><text fill="#000000" font-family="sans-serif" font-size="9.8" font-style="italic" lengthAdjust="spacing" textLength="43.4" x="843.85" y="40.6752">&#171;domain&#187;</text><text fill="#000000" font-family="sans-serif" font-size="9.8" lengthAdjust="spacing" textLength="23.1" x="854" y="53.71">Invite</text><rect fill="#E2E2F0" height="35.8695" rx="1.75" ry="1.75" style="stroke:#181818;stroke-width:0.3499999999999999;" width="53.2" x="838.95" y="693.9475"/><text fill="#000000" font-family="sans-serif" font-size="9.8" font-style="italic" lengthAdjust="spacing" textLength="43.4" x="843.85" y="709.4227">&#171;domain&#187;</text><text fill="#000000" font-family="sans-serif" font-size="9.8" lengthAdjust="spacing" textLength="23.1" x="854" y="722.4574">Invite</text><rect fill="#E2E2F0" height="35.8695" rx="1.75" ry="1.75" style="stroke:#181818;stroke-width:0.3499999999999999;" width="60.9" x="899.15" y="25.2"/><text fill="#000000" font-family="sans-serif" font-size="9.8" font-style="italic" lengthAdjust="spacing" textLength="43.4" x="907.9" y="40.6752">&#171;domain&#187;</text><text fill="#000000" font-family="sans-serif" font-size="9.8" lengthAdjust="spacing" textLength="51.1" x="904.05" y="53.71">InviteStatus</text><rect fill="#E2E2F0" height="35.8695" rx="1.75" ry="1.75" style="stroke:#181818;stroke-width:0.3499999999999999;" width="60.9" x="899.15" y="693.9475"/><text fill="#000000" font-family="sans-serif" font-size="9.8" font-style="italic" lengthAdjust="spacing" textLength="43.4" x="907.9" y="709.4227">&#171;domain&#187;</text><text fill="#000000" font-family="sans-serif" font-size="9.8" lengthAdjust="spacing" textLength="51.1" x="904.05" y="722.4574">InviteStatus</text><text fill="#000000" font-family="sans-serif" font-size="9.8" font-style="italic" lengthAdjust="spacing" textLength="55.3" x="974.75" y="46.2752">&#171;repository&#187;</text><text fill="#000000" font-family="sans-serif" font-size="9.8" lengthAdjust="spacing" textLength="70.7" x="967.05" y="59.31">InviteRepository</text><path d="M991.9,10.5 C991.9,3.5 1004.5,3.5 1004.5,3.5 C1004.5,3.5 1017.1,3.5 1017.1,10.5 L1017.1,28.7 C1017.1,35.7 1004.5,35.7 1004.5,35.7 C1004.5,35.7 991.9,35.7 991.9,28.7 L991.9,10.5 " fill="#E2E2F0" style="stroke:#181818;stroke-width:1.0499999999999998;"/><path d="M991.9,10.5 C991.9,17.5 1004.5,17.5 1004.5,17.5 C1004.5,17.5 1017.1,17.5 1017.1,10.5 " fill="none" style="stroke:#181818;stroke-width:1.0499999999999998;"/><text fill="#000000" font-family="sans-serif" font-size="9.8" font-style="italic" lengthAdjust="spacing" textLength="55.3" x="974.75" y="704.5227">&#171;repository&#187;</text><text fill="#000000" font-family="sans-serif" font-size="9.8" lengthAdjust="spacing" textLength="70.7" x="967.05" y="717.5574">InviteRepository</text><path d="M991.9,727.017 C991.9,720.017 1004.5,720.017 1004.5,720.017 C1004.5,720.017 1017.1,720.017 1017.1,727.017 L1017.1,745.217 C1017.1,752.217 1004.5,752.217 1004.5,752.217 C1004.5,752.217 991.9,752.217 991.9,745.217 L991.9,727.017 " fill="#E2E2F0" style="stroke:#181818;stroke-width:1.0499999999999998;"/><path d="M991.9,727.017 C991.9,734.017 1004.5,734.017 1004.5,734.017 C1004.5,734.017 1017.1,734.017 1017.1,727.017 " fill="none" style="stroke:#181818;stroke-width:1.0499999999999998;"/><text fill="#000000" font-family="sans-serif" font-size="9.8" font-style="italic" lengthAdjust="spacing" textLength="55.3" x="1062.6" y="46.2752">&#171;repository&#187;</text><text fill="#000000" font-family="sans-serif" font-size="9.8" lengthAdjust="spacing" textLength="82.6" x="1048.95" y="59.31">MeetingRepository</text><path d="M1079.75,10.5 C1079.75,3.5 1092.35,3.5 1092.35,3.5 C1092.35,3.5 1104.95,3.5 1104.95,10.5 L1104.95,28.7 C1104.95,35.7 1092.35,35.7 1092.35,35.7 C1092.35,35.7 1079.75,35.7 1079.75,28.7 L1079.75,10.5 " fill="#E2E2F0" style="stroke:#181818;stroke-width:1.0499999999999998;"/><path d="M1079.75,10.5 C1079.75,17.5 1092.35,17.5 1092.35,17.5 C1092.35,17.5 1104.95,17.5 1104.95,10.5 " fill="none" style="stroke:#181818;stroke-width:1.0499999999999998;"/><text fill="#000000" font-family="sans-serif" font-size="9.8" font-style="italic" lengthAdjust="spacing" textLength="55.3" x="1062.6" y="704.5227">&#171;repository&#187;</text><text fill="#000000" font-family="sans-serif" font-size="9.8" lengthAdjust="spacing" textLength="82.6" x="1048.95" y="717.5574">MeetingRepository</text><path d="M1079.75,727.017 C1079.75,720.017 1092.35,720.017 1092.35,720.017 C1092.35,720.017 1104.95,720.017 1104.95,727.017 L1104.95,745.217 C1104.95,752.217 1092.35,752.217 1092.35,752.217 C1092.35,752.217 1079.75,752.217 1079.75,745.217 L1079.75,727.017 " fill="#E2E2F0" style="stroke:#181818;stroke-width:1.0499999999999998;"/><path d="M1079.75,727.017 C1079.75,734.017 1092.35,734.017 1092.35,734.017 C1092.35,734.017 1104.95,734.017 1104.95,727.017 " fill="none" style="stroke:#181818;stroke-width:1.0499999999999998;"/><rect fill="#FFFFFF" height="175.726" style="stroke:#181818;stroke-width:0.6999999999999998;" width="7" x="201.25" y="85.0732"/><rect fill="#FFFFFF" height="52.9074" style="stroke:#181818;stroke-width:0.6999999999999998;" width="7" x="201.25" y="282.7029"/><rect fill="#FFFFFF" height="330.8334" style="stroke:#181818;stroke-width:0.6999999999999998;" width="7" x="201.25" y="357.5141"/><rect fill="#FFFFFF" height="127.0186" style="stroke:#181818;stroke-width:0.6999999999999998;" width="7" x="444.85" y="106.977"/><rect fill="#FFFFFF" height="286.326" style="stroke:#181818;stroke-width:0.6999999999999998;" width="7" x="444.85" y="379.4178"/><rect fill="#FFFFFF" height="105.1148" style="stroke:#181818;stroke-width:0.6999999999999998;" width="7" x="637.35" y="128.8807"/><rect fill="#FFFFFF" height="21.9037" style="stroke:#181818;stroke-width:0.6999999999999998;" width="7" x="729.05" y="212.0918"/><rect fill="#FFFFFF" height="21" style="stroke:#181818;stroke-width:0.6999999999999998;" width="7" x="729.05" y="444.2252"/><rect fill="#FFFFFF" height="21" style="stroke:#181818;stroke-width:0.6999999999999998;" width="7" x="926.1" y="591.34"/><rect fill="#FFFFFF" height="21" style="stroke:#181818;stroke-width:0.6999999999999998;" width="7" x="1001" y="530.0326"/><rect fill="#FFFFFF" height="21" style="stroke:#181818;stroke-width:0.6999999999999998;" width="7" x="1001" y="634.2437"/><rect fill="#FFFFFF" height="21" style="stroke:#181818;stroke-width:0.6999999999999998;" width="7" x="1088.85" y="150.7844"/><rect fill="#FFFFFF" height="21" style="stroke:#181818;stroke-width:0.6999999999999998;" width="7" x="1088.85" y="401.3215"/><rect fill="#FFFFFF" height="21" style="stroke:#181818;stroke-width:0.6999999999999998;" width="7" x="1088.85" y="487.1289"/><polygon fill="#181818" points="192.85,82.2732,199.85,85.0732,192.85,87.8732,195.65,85.0732" style="stroke:#181818;stroke-width:0.6999999999999998;"/><line style="stroke:#181818;stroke-width:0.6999999999999998;" x1="15.75" x2="197.05" y1="85.0732" y2="85.0732"/><text fill="#000000" font-family="sans-serif" font-size="9.1" font-weight="bold" lengthAdjust="spacing" textLength="4.9" x="20.65" y="81.3894">1</text><text fill="#000000" font-family="sans-serif" font-size="9.1" lengthAdjust="spacing" textLength="161.7" x="28.35" y="81.3894">requests to cancel a scheduled meeting</text><polygon fill="#181818" points="436.45,104.177,443.45,106.977,436.45,109.777,439.25,106.977" style="stroke:#181818;stroke-width:0.6999999999999998;"/><line style="stroke:#181818;stroke-width:0.6999999999999998;" x1="208.25" x2="440.65" y1="106.977" y2="106.977"/><text fill="#000000" font-family="sans-serif" font-size="9.1" font-weight="bold" lengthAdjust="spacing" textLength="4.9" x="213.15" y="103.2931">2</text><text fill="#000000" font-family="sans-serif" font-size="9.1" lengthAdjust="spacing" textLength="215.6" x="220.85" y="103.2931">meetingsDTO = listNotCanceledScheduledMeetings()</text><polygon fill="#181818" points="628.95,126.0807,635.95,128.8807,628.95,131.6807,631.75,128.8807" style="stroke:#181818;stroke-width:0.6999999999999998;"/><line style="stroke:#181818;stroke-width:0.6999999999999998;" x1="451.85" x2="633.15" y1="128.8807" y2="128.8807"/><text fill="#000000" font-family="sans-serif" font-size="9.1" font-weight="bold" lengthAdjust="spacing" textLength="4.9" x="456.75" y="125.1968">3</text><text fill="#000000" font-family="sans-serif" font-size="9.1" lengthAdjust="spacing" textLength="164.5" x="464.45" y="125.1968">notCanceledMeetingsScheduledBy(user)</text><polygon fill="#181818" points="1080.45,147.9844,1087.45,150.7844,1080.45,153.5844,1083.25,150.7844" style="stroke:#181818;stroke-width:0.6999999999999998;"/><line style="stroke:#181818;stroke-width:0.6999999999999998;" x1="644.35" x2="1084.65" y1="150.7844" y2="150.7844"/><text fill="#000000" font-family="sans-serif" font-size="9.1" font-weight="bold" lengthAdjust="spacing" textLength="4.9" x="649.25" y="147.1005">4</text><text fill="#000000" font-family="sans-serif" font-size="9.1" lengthAdjust="spacing" textLength="169.4" x="656.95" y="147.1005">findNotCanceledMeetingsByOwner(owner)</text><path d="M595,182.2844 L646.1,182.2844 L646.1,188.7881 L639.1,195.7881 L595,195.7881 L595,182.2844 " fill="#EEEEEE" style="stroke:#000000;stroke-width:1.0499999999999998;"/><rect fill="none" height="57.3111" style="stroke:#000000;stroke-width:1.0499999999999998;" width="243.95" x="595" y="182.2844"/><text fill="#000000" font-family="sans-serif" font-size="9.1" font-weight="bold" lengthAdjust="spacing" textLength="19.6" x="605.5" y="192.8042">loop</text><text fill="#000000" font-family="sans-serif" font-size="7.7" font-weight="bold" lengthAdjust="spacing" textLength="71.4" x="656.6" y="191.9935">[for each meeting]</text><polygon fill="#181818" points="720.65,209.2918,727.65,212.0918,720.65,214.8918,723.45,212.0918" style="stroke:#181818;stroke-width:0.6999999999999998;"/><line style="stroke:#181818;stroke-width:0.6999999999999998;" x1="644.35" x2="724.85" y1="212.0918" y2="212.0918"/><text fill="#000000" font-family="sans-serif" font-size="9.1" font-weight="bold" lengthAdjust="spacing" textLength="4.9" x="649.25" y="208.4079">5</text><text fill="#000000" font-family="sans-serif" font-size="9.1" lengthAdjust="spacing" textLength="63.7" x="656.95" y="208.4079">toDTO(meeting)</text><polygon fill="#181818" points="790.65,231.1955,797.65,233.9955,790.65,236.7955,793.45,233.9955" style="stroke:#181818;stroke-width:0.6999999999999998;"/><line style="stroke:#181818;stroke-width:0.6999999999999998;" x1="732.55" x2="794.85" y1="233.9955" y2="233.9955"/><text fill="#000000" font-family="sans-serif" font-size="9.1" font-weight="bold" lengthAdjust="spacing" textLength="4.9" x="737.45" y="230.3116">6</text><text fill="#000000" font-family="sans-serif" font-size="9.1" lengthAdjust="spacing" textLength="16.1" x="745.15" y="230.3116">new</text><polygon fill="#181818" points="23.45,257.9992,16.45,260.7992,23.45,263.5992,20.65,260.7992" style="stroke:#181818;stroke-width:0.6999999999999998;"/><line style="stroke:#181818;stroke-width:0.6999999999999998;stroke-dasharray:2.0,2.0;" x1="19.25" x2="204.05" y1="260.7992" y2="260.7992"/><text fill="#000000" font-family="sans-serif" font-size="9.1" font-weight="bold" lengthAdjust="spacing" textLength="4.9" x="27.65" y="257.1153">7</text><text fill="#000000" font-family="sans-serif" font-size="9.1" lengthAdjust="spacing" textLength="161" x="35.35" y="257.1153">lists all meetings scheduled by the user</text><polygon fill="#181818" points="192.85,279.9029,199.85,282.7029,192.85,285.5029,195.65,282.7029" style="stroke:#181818;stroke-width:0.6999999999999998;"/><line style="stroke:#181818;stroke-width:0.6999999999999998;" x1="15.75" x2="197.05" y1="282.7029" y2="282.7029"/><text fill="#000000" font-family="sans-serif" font-size="9.1" font-weight="bold" lengthAdjust="spacing" textLength="4.9" x="20.65" y="279.019">8</text><text fill="#000000" font-family="sans-serif" font-size="9.1" lengthAdjust="spacing" textLength="112" x="28.35" y="279.019">selects the desired meeting</text><line style="stroke:#181818;stroke-width:0.6999999999999998;" x1="208.25" x2="237.65" y1="304.6066" y2="304.6066"/><line style="stroke:#181818;stroke-width:0.6999999999999998;" x1="237.65" x2="237.65" y1="304.6066" y2="313.7066"/><line style="stroke:#181818;stroke-width:0.6999999999999998;" x1="208.95" x2="237.65" y1="313.7066" y2="313.7066"/><polygon fill="#181818" points="215.95,310.9066,208.95,313.7066,215.95,316.5066,213.15,313.7066" style="stroke:#181818;stroke-width:0.6999999999999998;"/><text fill="#000000" font-family="sans-serif" font-size="9.1" font-weight="bold" lengthAdjust="spacing" textLength="4.9" x="213.15" y="300.9228">9</text><text fill="#000000" font-family="sans-serif" font-size="9.1" lengthAdjust="spacing" textLength="190.4" x="220.85" y="300.9228">selectedMeeting = select(meetingsDTO, index)</text><polygon fill="#181818" points="23.45,332.8104,16.45,335.6104,23.45,338.4104,20.65,335.6104" style="stroke:#181818;stroke-width:0.6999999999999998;"/><line style="stroke:#181818;stroke-width:0.6999999999999998;stroke-dasharray:2.0,2.0;" x1="19.25" x2="204.05" y1="335.6104" y2="335.6104"/><text fill="#000000" font-family="sans-serif" font-size="9.1" font-weight="bold" lengthAdjust="spacing" textLength="9.8" x="27.65" y="331.9265">10</text><text fill="#000000" font-family="sans-serif" font-size="9.1" lengthAdjust="spacing" textLength="133" x="40.25" y="331.9265">requests to confirm the operation</text><polygon fill="#181818" points="192.85,354.7141,199.85,357.5141,192.85,360.3141,195.65,357.5141" style="stroke:#181818;stroke-width:0.6999999999999998;"/><line style="stroke:#181818;stroke-width:0.6999999999999998;" x1="15.75" x2="197.05" y1="357.5141" y2="357.5141"/><text fill="#000000" font-family="sans-serif" font-size="9.1" font-weight="bold" lengthAdjust="spacing" textLength="9.8" x="20.65" y="353.8302">11</text><text fill="#000000" font-family="sans-serif" font-size="9.1" lengthAdjust="spacing" textLength="74.2" x="33.25" y="353.8302">confirms operation</text><polygon fill="#181818" points="436.45,376.6178,443.45,379.4178,436.45,382.2178,439.25,379.4178" style="stroke:#181818;stroke-width:0.6999999999999998;"/><line style="stroke:#181818;stroke-width:0.6999999999999998;" x1="208.25" x2="440.65" y1="379.4178" y2="379.4178"/><text fill="#000000" font-family="sans-serif" font-size="9.1" font-weight="bold" lengthAdjust="spacing" textLength="9.8" x="213.15" y="375.7339">12</text><text fill="#000000" font-family="sans-serif" font-size="9.1" lengthAdjust="spacing" textLength="130.9" x="225.75" y="375.7339">cancelMeeting(selectedMeeting)</text><polygon fill="#181818" points="1080.45,398.5215,1087.45,401.3215,1080.45,404.1215,1083.25,401.3215" style="stroke:#181818;stroke-width:0.6999999999999998;"/><line style="stroke:#181818;stroke-width:0.6999999999999998;" x1="451.85" x2="1084.65" y1="401.3215" y2="401.3215"/><text fill="#000000" font-family="sans-serif" font-size="9.1" font-weight="bold" lengthAdjust="spacing" textLength="9.8" x="456.75" y="397.6376">13</text><text fill="#000000" font-family="sans-serif" font-size="9.1" lengthAdjust="spacing" textLength="185.5" x="469.35" y="397.6376">meeting = findById(selectedMeeting.identity())</text><polygon fill="#181818" points="720.65,441.4252,727.65,444.2252,720.65,447.0252,723.45,444.2252" style="stroke:#181818;stroke-width:0.6999999999999998;"/><line style="stroke:#181818;stroke-width:0.6999999999999998;" x1="451.85" x2="724.85" y1="444.2252" y2="444.2252"/><text fill="#000000" font-family="sans-serif" font-size="9.1" font-weight="bold" lengthAdjust="spacing" textLength="9.8" x="456.75" y="440.5413">14</text><text fill="#000000" font-family="sans-serif" font-size="9.1" lengthAdjust="spacing" textLength="75.6" x="469.35" y="440.5413">meeting = cancel()</text><polygon fill="#181818" points="1080.45,484.3289,1087.45,487.1289,1080.45,489.9289,1083.25,487.1289" style="stroke:#181818;stroke-width:0.6999999999999998;"/><line style="stroke:#181818;stroke-width:0.6999999999999998;" x1="451.85" x2="1084.65" y1="487.1289" y2="487.1289"/><text fill="#000000" font-family="sans-serif" font-size="9.1" font-weight="bold" lengthAdjust="spacing" textLength="9.8" x="456.75" y="483.445">15</text><text fill="#000000" font-family="sans-serif" font-size="9.1" lengthAdjust="spacing" textLength="56" x="469.35" y="483.445">save(meeting)</text><polygon fill="#181818" points="992.6,527.2326,999.6,530.0326,992.6,532.8326,995.4,530.0326" style="stroke:#181818;stroke-width:0.6999999999999998;"/><line style="stroke:#181818;stroke-width:0.6999999999999998;" x1="451.85" x2="996.8" y1="530.0326" y2="530.0326"/><text fill="#000000" font-family="sans-serif" font-size="9.1" font-weight="bold" lengthAdjust="spacing" textLength="9.8" x="456.75" y="526.3487">16</text><text fill="#000000" font-family="sans-serif" font-size="9.1" lengthAdjust="spacing" textLength="210.7" x="469.35" y="526.3487">invites = findByMeetingId(selectedMeeting.identity())</text><path d="M381.85,561.5326 L432.95,561.5326 L432.95,568.0363 L425.95,575.0363 L381.85,575.0363 L381.85,561.5326 " fill="#EEEEEE" style="stroke:#000000;stroke-width:1.0499999999999998;"/><rect fill="none" height="99.3111" style="stroke:#000000;stroke-width:1.0499999999999998;" width="667.1" x="381.85" y="561.5326"/><text fill="#000000" font-family="sans-serif" font-size="9.1" font-weight="bold" lengthAdjust="spacing" textLength="19.6" x="392.35" y="572.0524">loop</text><text fill="#000000" font-family="sans-serif" font-size="7.7" font-weight="bold" lengthAdjust="spacing" textLength="60.2" x="443.45" y="571.2417">[for each invite]</text><polygon fill="#181818" points="917.7,588.54,924.7,591.34,917.7,594.14,920.5,591.34" style="stroke:#181818;stroke-width:0.6999999999999998;"/><line style="stroke:#181818;stroke-width:0.6999999999999998;" x1="451.85" x2="921.9" y1="591.34" y2="591.34"/><text fill="#000000" font-family="sans-serif" font-size="9.1" font-weight="bold" lengthAdjust="spacing" textLength="9.8" x="456.75" y="587.6562">17</text><text fill="#000000" font-family="sans-serif" font-size="9.1" lengthAdjust="spacing" textLength="63.7" x="469.35" y="587.6562">invite = cancel()</text><polygon fill="#181818" points="992.6,631.4437,999.6,634.2437,992.6,637.0437,995.4,634.2437" style="stroke:#181818;stroke-width:0.6999999999999998;"/><line style="stroke:#181818;stroke-width:0.6999999999999998;" x1="451.85" x2="996.8" y1="634.2437" y2="634.2437"/><text fill="#000000" font-family="sans-serif" font-size="9.1" font-weight="bold" lengthAdjust="spacing" textLength="9.8" x="456.75" y="630.5599">18</text><text fill="#000000" font-family="sans-serif" font-size="9.1" lengthAdjust="spacing" textLength="44.1" x="469.35" y="630.5599">save(invite)</text><polygon fill="#181818" points="23.45,679.2475,16.45,682.0475,23.45,684.8475,20.65,682.0475" style="stroke:#181818;stroke-width:0.6999999999999998;"/><line style="stroke:#181818;stroke-width:0.6999999999999998;stroke-dasharray:2.0,2.0;" x1="19.25" x2="200.55" y1="682.0475" y2="682.0475"/><text fill="#000000" font-family="sans-serif" font-size="9.1" font-weight="bold" lengthAdjust="spacing" textLength="9.8" x="27.65" y="678.3636">19</text><text fill="#000000" font-family="sans-serif" font-size="9.1" lengthAdjust="spacing" textLength="147" x="40.25" y="678.3636">informs the success of the operation</text><!--SRC=[ZLJBZjem5DtxAwvO1Qdj1qHJ5j1Df6P6IeOFCCcbM0fsQZjCy_UzjeDZGc6Q1IJsEVTrZiq7g-HmFg1cZ3TMQLZj3UeLS0DxndgkhMX4pwM5rOxB1hiIqGhvQry4J04lBxr6Wz9oAvJSR9wGTafQhRfkIh1xhtuIlOchI_94gr5VH8EUKzR4C67X0JpWmZk1MtNcGZx0_dX_yt3wTr2hbhX2NeGDgSFhmuXXkwOn32R1XuMKnLZBBJzmWnEambuPGSCVFQqYi8vBH8ZmgUXRV7c7fsSFNpSaJWuQVmzeh06heF5Q00VJdB0TEcpX728wxSM5KtVxWf6cH7RYvDTzu-Rp7JfXxAkoGLDiwskOgIwJhUT0Zi-ymXIih7EGC_6AZm6sOpQGg6isyykQaTQEM-Lm5B9zlUTlnxSFYJfJxZV9NLQinVIhKwg78xcRLa-nQQ1doZ6v9QSnKQlPX5Xxo1mevKqC8hlPK7luuJVInFNTIX8XMVQp0a3PWglKA-3qo_t43V2kYqeauXr6i2S4DxcqNv9mrj_Gl1edFm5RD48_5Nrcn26Jx64bIxpm1KWG_4DwpQNUE4t9ez1ddrNrgFtLiAWnbZY1JO9yPCSclKsoHQMfUsxTLqKZKpVEIzknQ9VqRwAbIqpOCLi_ir8C6bXfv51TUWYkUl_30cbnXbzmzjpdkGlY27zrcDZG5FT_-ofkOjFNueo4yDweCMjodrtpfrtVd9KKlBJxtLxQbvz52BuCMTq5gbWyCsnvdcPd2abjdSCPC4FJe26l7HVc_0i0]--></g></svg>