<?xml version="1.0" encoding="UTF-8" standalone="no"?><svg xmlns="http://www.w3.org/2000/svg" xmlns:xlink="http://www.w3.org/1999/xlink" contentStyleType="text/css" height="2493px" preserveAspectRatio="none" style="width:3252px;height:2493px;background:#FFFFFF;" version="1.1" viewBox="0 0 3252 2493" width="3252px" zoomAndPan="magnify"><defs/><g><rect fill="#FFFFFF" height="2243.5188" style="stroke:#181818;stroke-width:1.0;" width="10" x="25" y="115.4799"/><rect fill="#FFFFFF" height="569.1197" style="stroke:#181818;stroke-width:1.0;" width="10" x="668.25" y="148.7199"/><rect fill="#FFFFFF" height="527.8797" style="stroke:#181818;stroke-width:1.0;" width="10" x="668.25" y="759.0796"/><rect fill="#FFFFFF" height="41.24" style="stroke:#181818;stroke-width:1.0;" width="10" x="668.25" y="1328.1992"/><rect fill="#FFFFFF" height="444.1598" style="stroke:#181818;stroke-width:1.0;" width="10" x="668.25" y="1410.6792"/><rect fill="#FFFFFF" height="462.9198" style="stroke:#181818;stroke-width:1.0;" width="10" x="668.25" y="1896.0789"/><rect fill="#FFFFFF" height="486.6397" style="stroke:#181818;stroke-width:1.0;" width="10" x="1324.5" y="189.9599"/><rect fill="#FFFFFF" height="445.3997" style="stroke:#181818;stroke-width:1.0;" width="10" x="1324.5" y="800.3195"/><rect fill="#FFFFFF" height="361.6798" style="stroke:#181818;stroke-width:1.0;" width="10" x="1324.5" y="1451.9192"/><rect fill="#FFFFFF" height="380.4398" style="stroke:#181818;stroke-width:1.0;" width="10" x="1324.5" y="1937.3189"/><rect fill="#FFFFFF" height="76.24" style="stroke:#181818;stroke-width:1.0;" width="10" x="1329.5" y="2200.2788"/><rect fill="#FFFFFF" height="30" style="stroke:#181818;stroke-width:1.0;" width="10" x="1660.125" y="231.1999"/><rect fill="#FFFFFF" height="291.6798" style="stroke:#181818;stroke-width:1.0;" width="10" x="1660.125" y="343.6798"/><rect fill="#FFFFFF" height="30" style="stroke:#181818;stroke-width:1.0;" width="10" x="1837.625" y="841.5595"/><rect fill="#FFFFFF" height="291.6798" style="stroke:#181818;stroke-width:1.0;" width="10" x="1837.625" y="912.7995"/><rect fill="#FFFFFF" height="30" style="stroke:#181818;stroke-width:1.0;" width="10" x="1999.125" y="1493.1591"/><rect fill="#FFFFFF" height="207.9599" style="stroke:#181818;stroke-width:1.0;" width="10" x="1999.125" y="1564.3991"/><rect fill="#FFFFFF" height="28" style="stroke:#181818;stroke-width:1.0;" width="10" x="2004.125" y="1696.119"/><rect fill="#FFFFFF" height="30" style="stroke:#181818;stroke-width:1.0;" width="10" x="2328.375" y="1978.5589"/><rect fill="#FFFFFF" height="30" style="stroke:#181818;stroke-width:1.0;" width="10" x="2328.375" y="2049.7989"/><rect fill="#FFFFFF" height="71.24" style="stroke:#181818;stroke-width:1.0;" width="10" x="2497.875" y="515.8797"/><rect fill="#FFFFFF" height="71.24" style="stroke:#181818;stroke-width:1.0;" width="10" x="2610.875" y="1084.9994"/><rect fill="#FFFFFF" height="30" style="stroke:#181818;stroke-width:1.0;" width="10" x="2610.875" y="2121.0388"/><rect fill="#FFFFFF" height="30" style="stroke:#181818;stroke-width:1.0;" width="10" x="2728.375" y="557.1197"/><rect fill="#FFFFFF" height="30" style="stroke:#181818;stroke-width:1.0;" width="10" x="2849.875" y="1126.2393"/><rect fill="#FFFFFF" height="41.24" style="stroke:#181818;stroke-width:1.0;" width="10" x="2995.875" y="384.9198"/><rect fill="#FFFFFF" height="41.24" style="stroke:#181818;stroke-width:1.0;" width="10" x="3166.375" y="954.0395"/><rect fill="#FFFFFF" height="41.24" style="stroke:#181818;stroke-width:1.0;" width="10" x="3166.375" y="1605.6391"/><rect fill="#FFFFFF" height="30" style="stroke:#181818;stroke-width:1.0;" width="10" x="3166.375" y="2246.5188"/><rect fill="none" height="153.9599" style="stroke:#000000;stroke-width:1.5;" width="1228.25" x="1571.125" y="441.1598"/><rect fill="none" height="153.9599" style="stroke:#000000;stroke-width:1.5;" width="1171.25" x="1749.125" y="1010.2794"/><line style="stroke:#181818;stroke-width:0.5;stroke-dasharray:5.0,5.0;" x1="30" x2="30" y1="105.4799" y2="2376.9987"/><line style="stroke:#181818;stroke-width:0.5;stroke-dasharray:5.0,5.0;" x1="673.25" x2="673.25" y1="105.4799" y2="2376.9987"/><line style="stroke:#181818;stroke-width:0.5;stroke-dasharray:5.0,5.0;" x1="1329" x2="1329" y1="105.4799" y2="2376.9987"/><line style="stroke:#181818;stroke-width:0.5;stroke-dasharray:5.0,5.0;" x1="1665.125" x2="1665.125" y1="105.4799" y2="2376.9987"/><line style="stroke:#181818;stroke-width:0.5;stroke-dasharray:5.0,5.0;" x1="1842.125" x2="1842.125" y1="105.4799" y2="2376.9987"/><line style="stroke:#181818;stroke-width:0.5;stroke-dasharray:5.0,5.0;" x1="2004.125" x2="2004.125" y1="105.4799" y2="2376.9987"/><line style="stroke:#181818;stroke-width:0.5;stroke-dasharray:5.0,5.0;" x1="2333.375" x2="2333.375" y1="105.4799" y2="2376.9987"/><line style="stroke:#181818;stroke-width:0.5;stroke-dasharray:5.0,5.0;" x1="2502.375" x2="2502.375" y1="105.4799" y2="2376.9987"/><line style="stroke:#181818;stroke-width:0.5;stroke-dasharray:5.0,5.0;" x1="2615.375" x2="2615.375" y1="105.4799" y2="2376.9987"/><line style="stroke:#181818;stroke-width:0.5;stroke-dasharray:5.0,5.0;" x1="2733.375" x2="2733.375" y1="105.4799" y2="2376.9987"/><line style="stroke:#181818;stroke-width:0.5;stroke-dasharray:5.0,5.0;" x1="2854.375" x2="2854.375" y1="105.4799" y2="2376.9987"/><line style="stroke:#181818;stroke-width:0.5;stroke-dasharray:5.0,5.0;" x1="3000.375" x2="3000.375" y1="105.4799" y2="2376.9987"/><line style="stroke:#181818;stroke-width:0.5;stroke-dasharray:5.0,5.0;" x1="3171.375" x2="3171.375" y1="105.4799" y2="2376.9987"/><text fill="#000000" font-family="sans-serif" font-size="20" lengthAdjust="spacing" textLength="44" x="5" y="99.62">User</text><ellipse cx="30" cy="26.74" fill="#E2E2F0" rx="8" ry="8" style="stroke:#181818;stroke-width:0.5;"/><path d="M30,34.74 L30,61.74 M17,42.74 L43,42.74 M30,61.74 L17,76.74 M30,61.74 L43,76.74 " fill="none" style="stroke:#181818;stroke-width:0.5;"/><text fill="#000000" font-family="sans-serif" font-size="20" lengthAdjust="spacing" textLength="44" x="5" y="2397.3787">User</text><ellipse cx="30" cy="2411.7387" fill="#E2E2F0" rx="8" ry="8" style="stroke:#181818;stroke-width:0.5;"/><path d="M30,2419.7387 L30,2446.7387 M17,2427.7387 L43,2427.7387 M30,2446.7387 L17,2461.7387 M30,2446.7387 L43,2461.7387 " fill="none" style="stroke:#181818;stroke-width:0.5;"/><rect fill="#E2E2F0" height="68.4799" rx="2.5" ry="2.5" style="stroke:#181818;stroke-width:0.5;" width="162" x="592.25" y="36"/><text fill="#000000" font-family="sans-serif" font-size="20" font-style="italic" lengthAdjust="spacing" textLength="134" x="606.25" y="64.38">«presentation»</text><text fill="#000000" font-family="sans-serif" font-size="20" lengthAdjust="spacing" textLength="148" x="599.25" y="91.62">ChangePostItUI</text><rect fill="#E2E2F0" height="68.4799" rx="2.5" ry="2.5" style="stroke:#181818;stroke-width:0.5;" width="162" x="592.25" y="2375.9987"/><text fill="#000000" font-family="sans-serif" font-size="20" font-style="italic" lengthAdjust="spacing" textLength="134" x="606.25" y="2404.3787">«presentation»</text><text fill="#000000" font-family="sans-serif" font-size="20" lengthAdjust="spacing" textLength="148" x="599.25" y="2431.6187">ChangePostItUI</text><rect fill="#E2E2F0" height="68.4799" rx="2.5" ry="2.5" style="stroke:#181818;stroke-width:0.5;" width="233" x="1213" y="36"/><text fill="#000000" font-family="sans-serif" font-size="20" font-style="italic" lengthAdjust="spacing" textLength="120" x="1269.5" y="64.38">«application»</text><text fill="#000000" font-family="sans-serif" font-size="20" lengthAdjust="spacing" textLength="219" x="1220" y="91.62">ChangePostItController</text><rect fill="#E2E2F0" height="68.4799" rx="2.5" ry="2.5" style="stroke:#181818;stroke-width:0.5;" width="233" x="1213" y="2375.9987"/><text fill="#000000" font-family="sans-serif" font-size="20" font-style="italic" lengthAdjust="spacing" textLength="120" x="1269.5" y="2404.3787">«application»</text><text fill="#000000" font-family="sans-serif" font-size="20" lengthAdjust="spacing" textLength="219" x="1220" y="2431.6187">ChangePostItController</text><rect fill="#E2E2F0" height="68.4799" rx="2.5" ry="2.5" style="stroke:#181818;stroke-width:0.5;" width="168" x="1581.125" y="36"/><text fill="#000000" font-family="sans-serif" font-size="20" font-style="italic" lengthAdjust="spacing" textLength="80" x="1625.125" y="64.38">«service»</text><text fill="#000000" font-family="sans-serif" font-size="20" lengthAdjust="spacing" textLength="154" x="1588.125" y="91.62">ListBoardService</text><rect fill="#E2E2F0" height="68.4799" rx="2.5" ry="2.5" style="stroke:#181818;stroke-width:0.5;" width="168" x="1581.125" y="2375.9987"/><text fill="#000000" font-family="sans-serif" font-size="20" font-style="italic" lengthAdjust="spacing" textLength="80" x="1625.125" y="2404.3787">«service»</text><text fill="#000000" font-family="sans-serif" font-size="20" lengthAdjust="spacing" textLength="154" x="1588.125" y="2431.6187">ListBoardService</text><rect fill="#E2E2F0" height="68.4799" rx="2.5" ry="2.5" style="stroke:#181818;stroke-width:0.5;" width="167" x="1759.125" y="36"/><text fill="#000000" font-family="sans-serif" font-size="20" font-style="italic" lengthAdjust="spacing" textLength="80" x="1802.625" y="64.38">«service»</text><text fill="#000000" font-family="sans-serif" font-size="20" lengthAdjust="spacing" textLength="153" x="1766.125" y="91.62">ListPostItService</text><rect fill="#E2E2F0" height="68.4799" rx="2.5" ry="2.5" style="stroke:#181818;stroke-width:0.5;" width="167" x="1759.125" y="2375.9987"/><text fill="#000000" font-family="sans-serif" font-size="20" font-style="italic" lengthAdjust="spacing" textLength="80" x="1802.625" y="2404.3787">«service»</text><text fill="#000000" font-family="sans-serif" font-size="20" lengthAdjust="spacing" textLength="153" x="1766.125" y="2431.6187">ListPostItService</text><rect fill="#E2E2F0" height="68.4799" rx="2.5" ry="2.5" style="stroke:#181818;stroke-width:0.5;" width="136" x="1936.125" y="36"/><text fill="#000000" font-family="sans-serif" font-size="20" font-style="italic" lengthAdjust="spacing" textLength="80" x="1964.125" y="64.38">«service»</text><text fill="#000000" font-family="sans-serif" font-size="20" lengthAdjust="spacing" textLength="122" x="1943.125" y="91.62">BoardService</text><rect fill="#E2E2F0" height="68.4799" rx="2.5" ry="2.5" style="stroke:#181818;stroke-width:0.5;" width="136" x="1936.125" y="2375.9987"/><text fill="#000000" font-family="sans-serif" font-size="20" font-style="italic" lengthAdjust="spacing" textLength="80" x="1964.125" y="2404.3787">«service»</text><text fill="#000000" font-family="sans-serif" font-size="20" lengthAdjust="spacing" textLength="122" x="1943.125" y="2431.6187">BoardService</text><rect fill="#E2E2F0" height="68.4799" rx="2.5" ry="2.5" style="stroke:#181818;stroke-width:0.5;" width="216" x="2225.375" y="36"/><text fill="#000000" font-family="sans-serif" font-size="20" font-style="italic" lengthAdjust="spacing" textLength="80" x="2293.375" y="64.38">«service»</text><text fill="#000000" font-family="sans-serif" font-size="20" lengthAdjust="spacing" textLength="202" x="2232.375" y="91.62">ImageEncoderService</text><rect fill="#E2E2F0" height="68.4799" rx="2.5" ry="2.5" style="stroke:#181818;stroke-width:0.5;" width="216" x="2225.375" y="2375.9987"/><text fill="#000000" font-family="sans-serif" font-size="20" font-style="italic" lengthAdjust="spacing" textLength="80" x="2293.375" y="2404.3787">«service»</text><text fill="#000000" font-family="sans-serif" font-size="20" lengthAdjust="spacing" textLength="202" x="2232.375" y="2431.6187">ImageEncoderService</text><rect fill="#E2E2F0" height="68.4799" rx="2.5" ry="2.5" style="stroke:#181818;stroke-width:0.5;" width="103" x="2451.375" y="36"/><text fill="#000000" font-family="sans-serif" font-size="20" font-style="italic" lengthAdjust="spacing" textLength="89" x="2458.375" y="64.38">«domain»</text><text fill="#000000" font-family="sans-serif" font-size="20" lengthAdjust="spacing" textLength="56" x="2474.875" y="91.62">Board</text><rect fill="#E2E2F0" height="68.4799" rx="2.5" ry="2.5" style="stroke:#181818;stroke-width:0.5;" width="103" x="2451.375" y="2375.9987"/><text fill="#000000" font-family="sans-serif" font-size="20" font-style="italic" lengthAdjust="spacing" textLength="89" x="2458.375" y="2404.3787">«domain»</text><text fill="#000000" font-family="sans-serif" font-size="20" lengthAdjust="spacing" textLength="56" x="2474.875" y="2431.6187">Board</text><rect fill="#E2E2F0" height="68.4799" rx="2.5" ry="2.5" style="stroke:#181818;stroke-width:0.5;" width="103" x="2564.375" y="36"/><text fill="#000000" font-family="sans-serif" font-size="20" font-style="italic" lengthAdjust="spacing" textLength="89" x="2571.375" y="64.38">«domain»</text><text fill="#000000" font-family="sans-serif" font-size="20" lengthAdjust="spacing" textLength="55" x="2588.375" y="91.62">PostIt</text><rect fill="#E2E2F0" height="68.4799" rx="2.5" ry="2.5" style="stroke:#181818;stroke-width:0.5;" width="103" x="2564.375" y="2375.9987"/><text fill="#000000" font-family="sans-serif" font-size="20" font-style="italic" lengthAdjust="spacing" textLength="89" x="2571.375" y="2404.3787">«domain»</text><text fill="#000000" font-family="sans-serif" font-size="20" lengthAdjust="spacing" textLength="55" x="2588.375" y="2431.6187">PostIt</text><rect fill="#E2E2F0" height="68.4799" rx="2.5" ry="2.5" style="stroke:#181818;stroke-width:0.5;" width="112" x="2677.375" y="36"/><text fill="#000000" font-family="sans-serif" font-size="20" font-style="italic" lengthAdjust="spacing" textLength="50" x="2708.375" y="64.38">«dto»</text><text fill="#000000" font-family="sans-serif" font-size="20" lengthAdjust="spacing" textLength="98" x="2684.375" y="91.62">BoardDTO</text><rect fill="#E2E2F0" height="68.4799" rx="2.5" ry="2.5" style="stroke:#181818;stroke-width:0.5;" width="112" x="2677.375" y="2375.9987"/><text fill="#000000" font-family="sans-serif" font-size="20" font-style="italic" lengthAdjust="spacing" textLength="50" x="2708.375" y="2404.3787">«dto»</text><text fill="#000000" font-family="sans-serif" font-size="20" lengthAdjust="spacing" textLength="98" x="2684.375" y="2431.6187">BoardDTO</text><rect fill="#E2E2F0" height="68.4799" rx="2.5" ry="2.5" style="stroke:#181818;stroke-width:0.5;" width="111" x="2799.375" y="36"/><text fill="#000000" font-family="sans-serif" font-size="20" font-style="italic" lengthAdjust="spacing" textLength="50" x="2829.875" y="64.38">«dto»</text><text fill="#000000" font-family="sans-serif" font-size="20" lengthAdjust="spacing" textLength="97" x="2806.375" y="91.62">PostItDTO</text><rect fill="#E2E2F0" height="68.4799" rx="2.5" ry="2.5" style="stroke:#181818;stroke-width:0.5;" width="111" x="2799.375" y="2375.9987"/><text fill="#000000" font-family="sans-serif" font-size="20" font-style="italic" lengthAdjust="spacing" textLength="50" x="2829.875" y="2404.3787">«dto»</text><text fill="#000000" font-family="sans-serif" font-size="20" lengthAdjust="spacing" textLength="97" x="2806.375" y="2431.6187">PostItDTO</text><text fill="#000000" font-family="sans-serif" font-size="20" font-style="italic" lengthAdjust="spacing" textLength="110" x="2942.875" y="72.38">«repository»</text><text fill="#000000" font-family="sans-serif" font-size="20" lengthAdjust="spacing" textLength="155" x="2920.375" y="99.62">BoardRepository</text><path d="M2982.875,15 C2982.875,5 3000.875,5 3000.875,5 C3000.875,5 3018.875,5 3018.875,15 L3018.875,41 C3018.875,51 3000.875,51 3000.875,51 C3000.875,51 2982.875,51 2982.875,41 L2982.875,15 " fill="#E2E2F0" style="stroke:#181818;stroke-width:1.5;"/><path d="M2982.875,15 C2982.875,25 3000.875,25 3000.875,25 C3000.875,25 3018.875,25 3018.875,15 " fill="none" style="stroke:#181818;stroke-width:1.5;"/><text fill="#000000" font-family="sans-serif" font-size="20" font-style="italic" lengthAdjust="spacing" textLength="110" x="2942.875" y="2397.3787">«repository»</text><text fill="#000000" font-family="sans-serif" font-size="20" lengthAdjust="spacing" textLength="155" x="2920.375" y="2424.6187">BoardRepository</text><path d="M2982.875,2440.4787 C2982.875,2430.4787 3000.875,2430.4787 3000.875,2430.4787 C3000.875,2430.4787 3018.875,2430.4787 3018.875,2440.4787 L3018.875,2466.4787 C3018.875,2476.4787 3000.875,2476.4787 3000.875,2476.4787 C3000.875,2476.4787 2982.875,2476.4787 2982.875,2466.4787 L2982.875,2440.4787 " fill="#E2E2F0" style="stroke:#181818;stroke-width:1.5;"/><path d="M2982.875,2440.4787 C2982.875,2450.4787 3000.875,2450.4787 3000.875,2450.4787 C3000.875,2450.4787 3018.875,2450.4787 3018.875,2440.4787 " fill="none" style="stroke:#181818;stroke-width:1.5;"/><text fill="#000000" font-family="sans-serif" font-size="20" font-style="italic" lengthAdjust="spacing" textLength="110" x="3113.375" y="72.38">«repository»</text><text fill="#000000" font-family="sans-serif" font-size="20" lengthAdjust="spacing" textLength="154" x="3091.375" y="99.62">PostItRepository</text><path d="M3153.375,15 C3153.375,5 3171.375,5 3171.375,5 C3171.375,5 3189.375,5 3189.375,15 L3189.375,41 C3189.375,51 3171.375,51 3171.375,51 C3171.375,51 3153.375,51 3153.375,41 L3153.375,15 " fill="#E2E2F0" style="stroke:#181818;stroke-width:1.5;"/><path d="M3153.375,15 C3153.375,25 3171.375,25 3171.375,25 C3171.375,25 3189.375,25 3189.375,15 " fill="none" style="stroke:#181818;stroke-width:1.5;"/><text fill="#000000" font-family="sans-serif" font-size="20" font-style="italic" lengthAdjust="spacing" textLength="110" x="3113.375" y="2397.3787">«repository»</text><text fill="#000000" font-family="sans-serif" font-size="20" lengthAdjust="spacing" textLength="154" x="3091.375" y="2424.6187">PostItRepository</text><path d="M3153.375,2440.4787 C3153.375,2430.4787 3171.375,2430.4787 3171.375,2430.4787 C3171.375,2430.4787 3189.375,2430.4787 3189.375,2440.4787 L3189.375,2466.4787 C3189.375,2476.4787 3171.375,2476.4787 3171.375,2476.4787 C3171.375,2476.4787 3153.375,2476.4787 3153.375,2466.4787 L3153.375,2440.4787 " fill="#E2E2F0" style="stroke:#181818;stroke-width:1.5;"/><path d="M3153.375,2440.4787 C3153.375,2450.4787 3171.375,2450.4787 3171.375,2450.4787 C3171.375,2450.4787 3189.375,2450.4787 3189.375,2440.4787 " fill="none" style="stroke:#181818;stroke-width:1.5;"/><rect fill="#FFFFFF" height="2243.5188" style="stroke:#181818;stroke-width:1.0;" width="10" x="25" y="115.4799"/><rect fill="#FFFFFF" height="569.1197" style="stroke:#181818;stroke-width:1.0;" width="10" x="668.25" y="148.7199"/><rect fill="#FFFFFF" height="527.8797" style="stroke:#181818;stroke-width:1.0;" width="10" x="668.25" y="759.0796"/><rect fill="#FFFFFF" height="41.24" style="stroke:#181818;stroke-width:1.0;" width="10" x="668.25" y="1328.1992"/><rect fill="#FFFFFF" height="444.1598" style="stroke:#181818;stroke-width:1.0;" width="10" x="668.25" y="1410.6792"/><rect fill="#FFFFFF" height="462.9198" style="stroke:#181818;stroke-width:1.0;" width="10" x="668.25" y="1896.0789"/><rect fill="#FFFFFF" height="486.6397" style="stroke:#181818;stroke-width:1.0;" width="10" x="1324.5" y="189.9599"/><rect fill="#FFFFFF" height="445.3997" style="stroke:#181818;stroke-width:1.0;" width="10" x="1324.5" y="800.3195"/><rect fill="#FFFFFF" height="361.6798" style="stroke:#181818;stroke-width:1.0;" width="10" x="1324.5" y="1451.9192"/><rect fill="#FFFFFF" height="380.4398" style="stroke:#181818;stroke-width:1.0;" width="10" x="1324.5" y="1937.3189"/><rect fill="#FFFFFF" height="76.24" style="stroke:#181818;stroke-width:1.0;" width="10" x="1329.5" y="2200.2788"/><rect fill="#FFFFFF" height="30" style="stroke:#181818;stroke-width:1.0;" width="10" x="1660.125" y="231.1999"/><rect fill="#FFFFFF" height="291.6798" style="stroke:#181818;stroke-width:1.0;" width="10" x="1660.125" y="343.6798"/><rect fill="#FFFFFF" height="30" style="stroke:#181818;stroke-width:1.0;" width="10" x="1837.625" y="841.5595"/><rect fill="#FFFFFF" height="291.6798" style="stroke:#181818;stroke-width:1.0;" width="10" x="1837.625" y="912.7995"/><rect fill="#FFFFFF" height="30" style="stroke:#181818;stroke-width:1.0;" width="10" x="1999.125" y="1493.1591"/><rect fill="#FFFFFF" height="207.9599" style="stroke:#181818;stroke-width:1.0;" width="10" x="1999.125" y="1564.3991"/><rect fill="#FFFFFF" height="28" style="stroke:#181818;stroke-width:1.0;" width="10" x="2004.125" y="1696.119"/><rect fill="#FFFFFF" height="30" style="stroke:#181818;stroke-width:1.0;" width="10" x="2328.375" y="1978.5589"/><rect fill="#FFFFFF" height="30" style="stroke:#181818;stroke-width:1.0;" width="10" x="2328.375" y="2049.7989"/><rect fill="#FFFFFF" height="71.24" style="stroke:#181818;stroke-width:1.0;" width="10" x="2497.875" y="515.8797"/><rect fill="#FFFFFF" height="71.24" style="stroke:#181818;stroke-width:1.0;" width="10" x="2610.875" y="1084.9994"/><rect fill="#FFFFFF" height="30" style="stroke:#181818;stroke-width:1.0;" width="10" x="2610.875" y="2121.0388"/><rect fill="#FFFFFF" height="30" style="stroke:#181818;stroke-width:1.0;" width="10" x="2728.375" y="557.1197"/><rect fill="#FFFFFF" height="30" style="stroke:#181818;stroke-width:1.0;" width="10" x="2849.875" y="1126.2393"/><rect fill="#FFFFFF" height="41.24" style="stroke:#181818;stroke-width:1.0;" width="10" x="2995.875" y="384.9198"/><rect fill="#FFFFFF" height="41.24" style="stroke:#181818;stroke-width:1.0;" width="10" x="3166.375" y="954.0395"/><rect fill="#FFFFFF" height="41.24" style="stroke:#181818;stroke-width:1.0;" width="10" x="3166.375" y="1605.6391"/><rect fill="#FFFFFF" height="30" style="stroke:#181818;stroke-width:1.0;" width="10" x="3166.375" y="2246.5188"/><polygon fill="#181818" points="656.25,144.7199,666.25,148.7199,656.25,152.7199,660.25,148.7199" style="stroke:#181818;stroke-width:1.0;"/><line style="stroke:#181818;stroke-width:1.0;" x1="35" x2="662.25" y1="148.7199" y2="148.7199"/><text fill="#000000" font-family="sans-serif" font-size="20" font-weight="bold" lengthAdjust="spacing" textLength="11.625" x="42" y="140.8599">1</text><text fill="#000000" font-family="sans-serif" font-size="20" lengthAdjust="spacing" textLength="209" x="57.625" y="140.8599">asks to create a post-it</text><polygon fill="#181818" points="1312.5,185.9599,1322.5,189.9599,1312.5,193.9599,1316.5,189.9599" style="stroke:#181818;stroke-width:1.0;"/><line style="stroke:#181818;stroke-width:1.0;" x1="678.25" x2="1318.5" y1="189.9599" y2="189.9599"/><text fill="#000000" font-family="sans-serif" font-size="20" font-weight="bold" lengthAdjust="spacing" textLength="11.625" x="685.25" y="182.0999">2</text><text fill="#000000" font-family="sans-serif" font-size="20" lengthAdjust="spacing" textLength="369" x="700.875" y="182.0999">new(boardRepository, postItRepository)</text><polygon fill="#181818" points="1648.125,227.1999,1658.125,231.1999,1648.125,235.1999,1652.125,231.1999" style="stroke:#181818;stroke-width:1.0;"/><line style="stroke:#181818;stroke-width:1.0;" x1="1334.5" x2="1654.125" y1="231.1999" y2="231.1999"/><text fill="#000000" font-family="sans-serif" font-size="20" font-weight="bold" lengthAdjust="spacing" textLength="11.625" x="1341.5" y="223.3399">3</text><text fill="#000000" font-family="sans-serif" font-size="20" lengthAdjust="spacing" textLength="205" x="1357.125" y="223.3399">new(boardRepository)</text><polygon fill="#181818" points="1312.5,298.4398,1322.5,302.4398,1312.5,306.4398,1316.5,302.4398" style="stroke:#181818;stroke-width:1.0;"/><line style="stroke:#181818;stroke-width:1.0;" x1="678.25" x2="1318.5" y1="302.4398" y2="302.4398"/><text fill="#000000" font-family="sans-serif" font-size="20" font-weight="bold" lengthAdjust="spacing" textLength="11.625" x="685.25" y="294.5799">4</text><text fill="#000000" font-family="sans-serif" font-size="20" lengthAdjust="spacing" textLength="227" x="700.875" y="294.5799">listUserWritableBoards()</text><polygon fill="#181818" points="1648.125,339.6798,1658.125,343.6798,1648.125,347.6798,1652.125,343.6798" style="stroke:#181818;stroke-width:1.0;"/><line style="stroke:#181818;stroke-width:1.0;" x1="1334.5" x2="1654.125" y1="343.6798" y2="343.6798"/><text fill="#000000" font-family="sans-serif" font-size="20" font-weight="bold" lengthAdjust="spacing" textLength="11.625" x="1341.5" y="335.8198">5</text><text fill="#000000" font-family="sans-serif" font-size="20" lengthAdjust="spacing" textLength="291" x="1357.125" y="335.8198">userWritableBoards(username)</text><polygon fill="#181818" points="2983.875,380.9198,2993.875,384.9198,2983.875,388.9198,2987.875,384.9198" style="stroke:#181818;stroke-width:1.0;"/><line style="stroke:#181818;stroke-width:1.0;" x1="1670.125" x2="2989.875" y1="384.9198" y2="384.9198"/><text fill="#000000" font-family="sans-serif" font-size="20" font-weight="bold" lengthAdjust="spacing" textLength="11.625" x="1677.125" y="377.0598">6</text><text fill="#000000" font-family="sans-serif" font-size="20" lengthAdjust="spacing" textLength="528" x="1692.75" y="377.0598">findAllActiveBoardsWithUserWritePermission(username)</text><polygon fill="#181818" points="1681.125,422.1598,1671.125,426.1598,1681.125,430.1598,1677.125,426.1598" style="stroke:#181818;stroke-width:1.0;"/><line style="stroke:#181818;stroke-width:1.0;stroke-dasharray:2.0,2.0;" x1="1675.125" x2="2999.875" y1="426.1598" y2="426.1598"/><text fill="#000000" font-family="sans-serif" font-size="20" font-weight="bold" lengthAdjust="spacing" textLength="11.625" x="1687.125" y="418.2998">7</text><text fill="#000000" font-family="sans-serif" font-size="20" lengthAdjust="spacing" textLength="65" x="1702.75" y="418.2998">boards</text><path d="M1571.125,441.1598 L1659.625,441.1598 L1659.625,460.3997 L1649.625,470.3997 L1571.125,470.3997 L1571.125,441.1598 " fill="#EEEEEE" style="stroke:#000000;stroke-width:1.5;"/><rect fill="none" height="153.9599" style="stroke:#000000;stroke-width:1.5;" width="1228.25" x="1571.125" y="441.1598"/><text fill="#000000" font-family="sans-serif" font-size="20" font-weight="bold" lengthAdjust="spacing" textLength="43.5" x="1586.125" y="463.5398">loop</text><text fill="#000000" font-family="sans-serif" font-size="20" font-weight="bold" lengthAdjust="spacing" textLength="158.75" x="1674.625" y="464.5398">[for each board]</text><polygon fill="#181818" points="2485.875,511.8797,2495.875,515.8797,2485.875,519.8797,2489.875,515.8797" style="stroke:#181818;stroke-width:1.0;"/><line style="stroke:#181818;stroke-width:1.0;" x1="1670.125" x2="2491.875" y1="515.8797" y2="515.8797"/><text fill="#000000" font-family="sans-serif" font-size="20" font-weight="bold" lengthAdjust="spacing" textLength="11.625" x="1677.125" y="508.0197">8</text><text fill="#000000" font-family="sans-serif" font-size="20" lengthAdjust="spacing" textLength="128" x="1692.75" y="508.0197">toDTO(board)</text><polygon fill="#181818" points="2716.375,553.1197,2726.375,557.1197,2716.375,561.1197,2720.375,557.1197" style="stroke:#181818;stroke-width:1.0;"/><line style="stroke:#181818;stroke-width:1.0;" x1="2507.875" x2="2722.375" y1="557.1197" y2="557.1197"/><text fill="#000000" font-family="sans-serif" font-size="20" font-weight="bold" lengthAdjust="spacing" textLength="11.625" x="2514.875" y="549.2597">9</text><text fill="#000000" font-family="sans-serif" font-size="20" lengthAdjust="spacing" textLength="51" x="2530.5" y="549.2597">new()</text><polygon fill="#181818" points="1345.5,631.3596,1335.5,635.3596,1345.5,639.3596,1341.5,635.3596" style="stroke:#181818;stroke-width:1.0;"/><line style="stroke:#181818;stroke-width:1.0;stroke-dasharray:2.0,2.0;" x1="1339.5" x2="1664.125" y1="635.3596" y2="635.3596"/><text fill="#000000" font-family="sans-serif" font-size="20" font-weight="bold" lengthAdjust="spacing" textLength="23.25" x="1351.5" y="627.4997">10</text><text fill="#000000" font-family="sans-serif" font-size="20" lengthAdjust="spacing" textLength="65" x="1378.75" y="627.4997">boards</text><polygon fill="#181818" points="689.25,672.5996,679.25,676.5996,689.25,680.5996,685.25,676.5996" style="stroke:#181818;stroke-width:1.0;"/><line style="stroke:#181818;stroke-width:1.0;stroke-dasharray:2.0,2.0;" x1="683.25" x2="1328.5" y1="676.5996" y2="676.5996"/><text fill="#000000" font-family="sans-serif" font-size="20" font-weight="bold" lengthAdjust="spacing" textLength="23.25" x="695.25" y="668.7396">11</text><text fill="#000000" font-family="sans-serif" font-size="20" lengthAdjust="spacing" textLength="65" x="722.5" y="668.7396">boards</text><polygon fill="#181818" points="46,713.8396,36,717.8396,46,721.8396,42,717.8396" style="stroke:#181818;stroke-width:1.0;"/><line style="stroke:#181818;stroke-width:1.0;stroke-dasharray:2.0,2.0;" x1="40" x2="672.25" y1="717.8396" y2="717.8396"/><text fill="#000000" font-family="sans-serif" font-size="20" font-weight="bold" lengthAdjust="spacing" textLength="23.25" x="52" y="709.9796">12</text><text fill="#000000" font-family="sans-serif" font-size="20" lengthAdjust="spacing" textLength="220" x="79.25" y="709.9796">asks to select the board</text><polygon fill="#181818" points="656.25,755.0796,666.25,759.0796,656.25,763.0796,660.25,759.0796" style="stroke:#181818;stroke-width:1.0;"/><line style="stroke:#181818;stroke-width:1.0;" x1="35" x2="662.25" y1="759.0796" y2="759.0796"/><text fill="#000000" font-family="sans-serif" font-size="20" font-weight="bold" lengthAdjust="spacing" textLength="23.25" x="42" y="751.2196">13</text><text fill="#000000" font-family="sans-serif" font-size="20" lengthAdjust="spacing" textLength="159" x="69.25" y="751.2196">selects the board</text><polygon fill="#181818" points="1312.5,796.3195,1322.5,800.3195,1312.5,804.3195,1316.5,800.3195" style="stroke:#181818;stroke-width:1.0;"/><line style="stroke:#181818;stroke-width:1.0;" x1="678.25" x2="1318.5" y1="800.3195" y2="800.3195"/><text fill="#000000" font-family="sans-serif" font-size="20" font-weight="bold" lengthAdjust="spacing" textLength="23.25" x="685.25" y="792.4596">14</text><text fill="#000000" font-family="sans-serif" font-size="20" lengthAdjust="spacing" textLength="374" x="712.5" y="792.4596">listBoardPostItsCreatedByUser(boardId)</text><polygon fill="#181818" points="1825.625,837.5595,1835.625,841.5595,1825.625,845.5595,1829.625,841.5595" style="stroke:#181818;stroke-width:1.0;"/><line style="stroke:#181818;stroke-width:1.0;" x1="1334.5" x2="1831.625" y1="841.5595" y2="841.5595"/><text fill="#000000" font-family="sans-serif" font-size="20" font-weight="bold" lengthAdjust="spacing" textLength="23.25" x="1341.5" y="833.6995">15</text><text fill="#000000" font-family="sans-serif" font-size="20" lengthAdjust="spacing" textLength="205" x="1368.75" y="833.6995">new(postItRepository)</text><polygon fill="#181818" points="1825.625,908.7995,1835.625,912.7995,1825.625,916.7995,1829.625,912.7995" style="stroke:#181818;stroke-width:1.0;"/><line style="stroke:#181818;stroke-width:1.0;" x1="1334.5" x2="1831.625" y1="912.7995" y2="912.7995"/><text fill="#000000" font-family="sans-serif" font-size="20" font-weight="bold" lengthAdjust="spacing" textLength="23.25" x="1341.5" y="904.9395">16</text><text fill="#000000" font-family="sans-serif" font-size="20" lengthAdjust="spacing" textLength="392" x="1368.75" y="904.9395">userUpdatablePostIts(boardId, username)</text><polygon fill="#181818" points="3154.375,950.0395,3164.375,954.0395,3154.375,958.0395,3158.375,954.0395" style="stroke:#181818;stroke-width:1.0;"/><line style="stroke:#181818;stroke-width:1.0;" x1="1847.625" x2="3160.375" y1="954.0395" y2="954.0395"/><text fill="#000000" font-family="sans-serif" font-size="20" font-weight="bold" lengthAdjust="spacing" textLength="23.25" x="1854.625" y="946.1795">17</text><text fill="#000000" font-family="sans-serif" font-size="20" lengthAdjust="spacing" textLength="473" x="1881.875" y="946.1795">findLatestFromUserByBoardId(boardId, username)</text><polygon fill="#181818" points="1858.625,991.2794,1848.625,995.2794,1858.625,999.2794,1854.625,995.2794" style="stroke:#181818;stroke-width:1.0;"/><line style="stroke:#181818;stroke-width:1.0;stroke-dasharray:2.0,2.0;" x1="1852.625" x2="3170.375" y1="995.2794" y2="995.2794"/><text fill="#000000" font-family="sans-serif" font-size="20" font-weight="bold" lengthAdjust="spacing" textLength="23.25" x="1864.625" y="987.4195">18</text><text fill="#000000" font-family="sans-serif" font-size="20" lengthAdjust="spacing" textLength="65" x="1891.875" y="987.4195">postIts</text><path d="M1749.125,1010.2794 L1837.625,1010.2794 L1837.625,1029.5194 L1827.625,1039.5194 L1749.125,1039.5194 L1749.125,1010.2794 " fill="#EEEEEE" style="stroke:#000000;stroke-width:1.5;"/><rect fill="none" height="153.9599" style="stroke:#000000;stroke-width:1.5;" width="1171.25" x="1749.125" y="1010.2794"/><text fill="#000000" font-family="sans-serif" font-size="20" font-weight="bold" lengthAdjust="spacing" textLength="43.5" x="1764.125" y="1032.6594">loop</text><text fill="#000000" font-family="sans-serif" font-size="20" font-weight="bold" lengthAdjust="spacing" textLength="159.375" x="1852.625" y="1033.6594">[for each postIt]</text><polygon fill="#181818" points="2598.875,1080.9994,2608.875,1084.9994,2598.875,1088.9994,2602.875,1084.9994" style="stroke:#181818;stroke-width:1.0;"/><line style="stroke:#181818;stroke-width:1.0;" x1="1847.625" x2="2604.875" y1="1084.9994" y2="1084.9994"/><text fill="#000000" font-family="sans-serif" font-size="20" font-weight="bold" lengthAdjust="spacing" textLength="23.25" x="1854.625" y="1077.1394">19</text><text fill="#000000" font-family="sans-serif" font-size="20" lengthAdjust="spacing" textLength="128" x="1881.875" y="1077.1394">toDTO(postIt)</text><polygon fill="#181818" points="2837.875,1122.2393,2847.875,1126.2393,2837.875,1130.2393,2841.875,1126.2393" style="stroke:#181818;stroke-width:1.0;"/><line style="stroke:#181818;stroke-width:1.0;" x1="2620.875" x2="2843.875" y1="1126.2393" y2="1126.2393"/><text fill="#000000" font-family="sans-serif" font-size="20" font-weight="bold" lengthAdjust="spacing" textLength="23.25" x="2627.875" y="1118.3794">20</text><text fill="#000000" font-family="sans-serif" font-size="20" lengthAdjust="spacing" textLength="51" x="2655.125" y="1118.3794">new()</text><polygon fill="#181818" points="1345.5,1200.4793,1335.5,1204.4793,1345.5,1208.4793,1341.5,1204.4793" style="stroke:#181818;stroke-width:1.0;"/><line style="stroke:#181818;stroke-width:1.0;stroke-dasharray:2.0,2.0;" x1="1339.5" x2="1841.625" y1="1204.4793" y2="1204.4793"/><text fill="#000000" font-family="sans-serif" font-size="20" font-weight="bold" lengthAdjust="spacing" textLength="23.25" x="1351.5" y="1196.6193">21</text><text fill="#000000" font-family="sans-serif" font-size="20" lengthAdjust="spacing" textLength="65" x="1378.75" y="1196.6193">postIts</text><polygon fill="#181818" points="689.25,1241.7193,679.25,1245.7193,689.25,1249.7193,685.25,1245.7193" style="stroke:#181818;stroke-width:1.0;"/><line style="stroke:#181818;stroke-width:1.0;stroke-dasharray:2.0,2.0;" x1="683.25" x2="1328.5" y1="1245.7193" y2="1245.7193"/><text fill="#000000" font-family="sans-serif" font-size="20" font-weight="bold" lengthAdjust="spacing" textLength="23.25" x="695.25" y="1237.8593">22</text><text fill="#000000" font-family="sans-serif" font-size="20" lengthAdjust="spacing" textLength="65" x="722.5" y="1237.8593">postIts</text><polygon fill="#181818" points="46,1282.9593,36,1286.9593,46,1290.9593,42,1286.9593" style="stroke:#181818;stroke-width:1.0;"/><line style="stroke:#181818;stroke-width:1.0;stroke-dasharray:2.0,2.0;" x1="40" x2="672.25" y1="1286.9593" y2="1286.9593"/><text fill="#000000" font-family="sans-serif" font-size="20" font-weight="bold" lengthAdjust="spacing" textLength="23.25" x="52" y="1279.0993">23</text><text fill="#000000" font-family="sans-serif" font-size="20" lengthAdjust="spacing" textLength="224" x="79.25" y="1279.0993">asks to select the post-it</text><polygon fill="#181818" points="656.25,1324.1992,666.25,1328.1992,656.25,1332.1992,660.25,1328.1992" style="stroke:#181818;stroke-width:1.0;"/><line style="stroke:#181818;stroke-width:1.0;" x1="35" x2="662.25" y1="1328.1992" y2="1328.1992"/><text fill="#000000" font-family="sans-serif" font-size="20" font-weight="bold" lengthAdjust="spacing" textLength="23.25" x="42" y="1320.3393">24</text><text fill="#000000" font-family="sans-serif" font-size="20" lengthAdjust="spacing" textLength="163" x="69.25" y="1320.3393">selects the post-it</text><polygon fill="#181818" points="46,1365.4392,36,1369.4392,46,1373.4392,42,1369.4392" style="stroke:#181818;stroke-width:1.0;"/><line style="stroke:#181818;stroke-width:1.0;stroke-dasharray:2.0,2.0;" x1="40" x2="672.25" y1="1369.4392" y2="1369.4392"/><text fill="#000000" font-family="sans-serif" font-size="20" font-weight="bold" lengthAdjust="spacing" textLength="23.25" x="52" y="1361.5792">25</text><text fill="#000000" font-family="sans-serif" font-size="20" lengthAdjust="spacing" textLength="339" x="79.25" y="1361.5792">asks to select the post-it coordinates</text><polygon fill="#181818" points="656.25,1406.6792,666.25,1410.6792,656.25,1414.6792,660.25,1410.6792" style="stroke:#181818;stroke-width:1.0;"/><line style="stroke:#181818;stroke-width:1.0;" x1="35" x2="662.25" y1="1410.6792" y2="1410.6792"/><text fill="#000000" font-family="sans-serif" font-size="20" font-weight="bold" lengthAdjust="spacing" textLength="23.25" x="42" y="1402.8192">26</text><text fill="#000000" font-family="sans-serif" font-size="20" lengthAdjust="spacing" textLength="278" x="69.25" y="1402.8192">selects the post-it coordinates</text><polygon fill="#181818" points="1312.5,1447.9192,1322.5,1451.9192,1312.5,1455.9192,1316.5,1451.9192" style="stroke:#181818;stroke-width:1.0;"/><line style="stroke:#181818;stroke-width:1.0;" x1="678.25" x2="1318.5" y1="1451.9192" y2="1451.9192"/><text fill="#000000" font-family="sans-serif" font-size="20" font-weight="bold" lengthAdjust="spacing" textLength="23.25" x="685.25" y="1444.0592">27</text><text fill="#000000" font-family="sans-serif" font-size="20" lengthAdjust="spacing" textLength="312" x="712.5" y="1444.0592">validateCoordinates(boardId, x, y)</text><polygon fill="#181818" points="1987.125,1489.1591,1997.125,1493.1591,1987.125,1497.1591,1991.125,1493.1591" style="stroke:#181818;stroke-width:1.0;"/><line style="stroke:#181818;stroke-width:1.0;" x1="1334.5" x2="1993.125" y1="1493.1591" y2="1493.1591"/><text fill="#000000" font-family="sans-serif" font-size="20" font-weight="bold" lengthAdjust="spacing" textLength="23.25" x="1341.5" y="1485.2992">28</text><text fill="#000000" font-family="sans-serif" font-size="20" lengthAdjust="spacing" textLength="205" x="1368.75" y="1485.2992">new(postItRepository)</text><polygon fill="#181818" points="1987.125,1560.3991,1997.125,1564.3991,1987.125,1568.3991,1991.125,1564.3991" style="stroke:#181818;stroke-width:1.0;"/><line style="stroke:#181818;stroke-width:1.0;" x1="1334.5" x2="1993.125" y1="1564.3991" y2="1564.3991"/><text fill="#000000" font-family="sans-serif" font-size="20" font-weight="bold" lengthAdjust="spacing" textLength="23.25" x="1341.5" y="1556.5391">29</text><text fill="#000000" font-family="sans-serif" font-size="20" lengthAdjust="spacing" textLength="343" x="1368.75" y="1556.5391">isCellAvailable(BoardID id, int x, int y)</text><polygon fill="#181818" points="3154.375,1601.6391,3164.375,1605.6391,3154.375,1609.6391,3158.375,1605.6391" style="stroke:#181818;stroke-width:1.0;"/><line style="stroke:#181818;stroke-width:1.0;" x1="2009.125" x2="3160.375" y1="1605.6391" y2="1605.6391"/><text fill="#000000" font-family="sans-serif" font-size="20" font-weight="bold" lengthAdjust="spacing" textLength="23.25" x="2016.125" y="1597.7791">30</text><text fill="#000000" font-family="sans-serif" font-size="20" lengthAdjust="spacing" textLength="327" x="2043.375" y="1597.7791">findLatestVersionOfBoard(boardId)</text><polygon fill="#181818" points="2020.125,1642.8791,2010.125,1646.8791,2020.125,1650.8791,2016.125,1646.8791" style="stroke:#181818;stroke-width:1.0;"/><line style="stroke:#181818;stroke-width:1.0;stroke-dasharray:2.0,2.0;" x1="2014.125" x2="3170.375" y1="1646.8791" y2="1646.8791"/><text fill="#000000" font-family="sans-serif" font-size="20" font-weight="bold" lengthAdjust="spacing" textLength="23.25" x="2026.125" y="1639.0191">31</text><text fill="#000000" font-family="sans-serif" font-size="20" lengthAdjust="spacing" textLength="65" x="2053.375" y="1639.0191">postIts</text><line style="stroke:#181818;stroke-width:1.0;" x1="2014.125" x2="2056.125" y1="1688.119" y2="1688.119"/><line style="stroke:#181818;stroke-width:1.0;" x1="2056.125" x2="2056.125" y1="1688.119" y2="1701.119"/><line style="stroke:#181818;stroke-width:1.0;" x1="2015.125" x2="2056.125" y1="1701.119" y2="1701.119"/><polygon fill="#181818" points="2025.125,1697.119,2015.125,1701.119,2025.125,1705.119,2021.125,1701.119" style="stroke:#181818;stroke-width:1.0;"/><text fill="#000000" font-family="sans-serif" font-size="20" font-weight="bold" lengthAdjust="spacing" textLength="23.25" x="2021.125" y="1680.2591">32</text><text fill="#000000" font-family="sans-serif" font-size="20" lengthAdjust="spacing" textLength="278" x="2048.375" y="1680.2591">existsPostIt(latestPostIts, x, y)</text><polygon fill="#181818" points="1345.5,1768.359,1335.5,1772.359,1345.5,1776.359,1341.5,1772.359" style="stroke:#181818;stroke-width:1.0;"/><line style="stroke:#181818;stroke-width:1.0;stroke-dasharray:2.0,2.0;" x1="1339.5" x2="2003.125" y1="1772.359" y2="1772.359"/><text fill="#000000" font-family="sans-serif" font-size="20" font-weight="bold" lengthAdjust="spacing" textLength="23.25" x="1351.5" y="1764.499">33</text><text fill="#000000" font-family="sans-serif" font-size="20" lengthAdjust="spacing" textLength="38" x="1378.75" y="1764.499">true</text><polygon fill="#181818" points="689.25,1809.599,679.25,1813.599,689.25,1817.599,685.25,1813.599" style="stroke:#181818;stroke-width:1.0;"/><line style="stroke:#181818;stroke-width:1.0;stroke-dasharray:2.0,2.0;" x1="683.25" x2="1328.5" y1="1813.599" y2="1813.599"/><text fill="#000000" font-family="sans-serif" font-size="20" font-weight="bold" lengthAdjust="spacing" textLength="23.25" x="695.25" y="1805.739">34</text><text fill="#000000" font-family="sans-serif" font-size="20" lengthAdjust="spacing" textLength="38" x="722.5" y="1805.739">true</text><polygon fill="#181818" points="46,1850.839,36,1854.839,46,1858.839,42,1854.839" style="stroke:#181818;stroke-width:1.0;"/><line style="stroke:#181818;stroke-width:1.0;stroke-dasharray:2.0,2.0;" x1="40" x2="672.25" y1="1854.839" y2="1854.839"/><text fill="#000000" font-family="sans-serif" font-size="20" font-weight="bold" lengthAdjust="spacing" textLength="23.25" x="52" y="1846.979">35</text><text fill="#000000" font-family="sans-serif" font-size="20" lengthAdjust="spacing" textLength="582" x="79.25" y="1846.979">asks to enter the title, description and image path of the post-it</text><polygon fill="#181818" points="656.25,1892.0789,666.25,1896.0789,656.25,1900.0789,660.25,1896.0789" style="stroke:#181818;stroke-width:1.0;"/><line style="stroke:#181818;stroke-width:1.0;stroke-dasharray:2.0,2.0;" x1="35" x2="662.25" y1="1896.0789" y2="1896.0789"/><text fill="#000000" font-family="sans-serif" font-size="20" font-weight="bold" lengthAdjust="spacing" textLength="23.25" x="42" y="1888.219">36</text><text fill="#000000" font-family="sans-serif" font-size="20" lengthAdjust="spacing" textLength="204" x="69.25" y="1888.219">enters requested data</text><polygon fill="#181818" points="1312.5,1933.3189,1322.5,1937.3189,1312.5,1941.3189,1316.5,1937.3189" style="stroke:#181818;stroke-width:1.0;"/><line style="stroke:#181818;stroke-width:1.0;" x1="678.25" x2="1318.5" y1="1937.3189" y2="1937.3189"/><text fill="#000000" font-family="sans-serif" font-size="20" font-weight="bold" lengthAdjust="spacing" textLength="23.25" x="685.25" y="1929.4589">37</text><text fill="#000000" font-family="sans-serif" font-size="20" lengthAdjust="spacing" textLength="600" x="712.5" y="1929.4589">updatePostIt(boardId, postItId, x, y, title, description, imagePath)</text><polygon fill="#181818" points="2316.375,1974.5589,2326.375,1978.5589,2316.375,1982.5589,2320.375,1978.5589" style="stroke:#181818;stroke-width:1.0;"/><line style="stroke:#181818;stroke-width:1.0;" x1="1334.5" x2="2322.375" y1="1978.5589" y2="1978.5589"/><text fill="#000000" font-family="sans-serif" font-size="20" font-weight="bold" lengthAdjust="spacing" textLength="23.25" x="1341.5" y="1970.6989">38</text><text fill="#000000" font-family="sans-serif" font-size="20" lengthAdjust="spacing" textLength="51" x="1368.75" y="1970.6989">new()</text><polygon fill="#181818" points="2316.375,2045.7989,2326.375,2049.7989,2316.375,2053.7989,2320.375,2049.7989" style="stroke:#181818;stroke-width:1.0;"/><line style="stroke:#181818;stroke-width:1.0;" x1="1334.5" x2="2322.375" y1="2049.7989" y2="2049.7989"/><text fill="#000000" font-family="sans-serif" font-size="20" font-weight="bold" lengthAdjust="spacing" textLength="23.25" x="1341.5" y="2041.9389">39</text><text fill="#000000" font-family="sans-serif" font-size="20" lengthAdjust="spacing" textLength="240" x="1368.75" y="2041.9389">encodeImage(imagePath)</text><polygon fill="#181818" points="2598.875,2117.0388,2608.875,2121.0388,2598.875,2125.0388,2602.875,2121.0388" style="stroke:#181818;stroke-width:1.0;"/><line style="stroke:#181818;stroke-width:1.0;" x1="1334.5" x2="2604.875" y1="2121.0388" y2="2121.0388"/><text fill="#000000" font-family="sans-serif" font-size="20" font-weight="bold" lengthAdjust="spacing" textLength="23.25" x="1341.5" y="2113.1789">40</text><text fill="#000000" font-family="sans-serif" font-size="20" lengthAdjust="spacing" textLength="532" x="1368.75" y="2113.1789">newPostIt = update(title, x, y, description, encodedImage)</text><line style="stroke:#181818;stroke-width:1.0;" x1="1334.5" x2="1381.5" y1="2187.2788" y2="2187.2788"/><line style="stroke:#181818;stroke-width:1.0;" x1="1381.5" x2="1381.5" y1="2187.2788" y2="2200.2788"/><line style="stroke:#181818;stroke-width:1.0;" x1="1340.5" x2="1381.5" y1="2200.2788" y2="2200.2788"/><polygon fill="#181818" points="1350.5,2196.2788,1340.5,2200.2788,1350.5,2204.2788,1346.5,2200.2788" style="stroke:#181818;stroke-width:1.0;"/><text fill="#000000" font-family="sans-serif" font-size="20" font-weight="bold" lengthAdjust="spacing" textLength="23.25" x="1346.5" y="2179.4188">41</text><text fill="#000000" font-family="sans-serif" font-size="20" lengthAdjust="spacing" textLength="164" x="1373.75" y="2179.4188">savePostIt(postIt)</text><polygon fill="#181818" points="3154.375,2242.5188,3164.375,2246.5188,3154.375,2250.5188,3158.375,2246.5188" style="stroke:#181818;stroke-width:1.0;"/><line style="stroke:#181818;stroke-width:1.0;" x1="1339.5" x2="3160.375" y1="2246.5188" y2="2246.5188"/><text fill="#000000" font-family="sans-serif" font-size="20" font-weight="bold" lengthAdjust="spacing" textLength="23.25" x="1346.5" y="2238.6588">42</text><text fill="#000000" font-family="sans-serif" font-size="20" lengthAdjust="spacing" textLength="109" x="1373.75" y="2238.6588">savePostIt()</text><polygon fill="#181818" points="689.25,2313.7588,679.25,2317.7588,689.25,2321.7588,685.25,2317.7588" style="stroke:#181818;stroke-width:1.0;"/><line style="stroke:#181818;stroke-width:1.0;stroke-dasharray:2.0,2.0;" x1="683.25" x2="1328.5" y1="2317.7588" y2="2317.7588"/><text fill="#000000" font-family="sans-serif" font-size="20" font-weight="bold" lengthAdjust="spacing" textLength="23.25" x="695.25" y="2309.8988">43</text><text fill="#000000" font-family="sans-serif" font-size="20" lengthAdjust="spacing" textLength="73" x="722.5" y="2309.8988">success</text><polygon fill="#181818" points="41,2354.9987,31,2358.9987,41,2362.9987,37,2358.9987" style="stroke:#181818;stroke-width:1.0;"/><line style="stroke:#181818;stroke-width:1.0;stroke-dasharray:2.0,2.0;" x1="35" x2="672.25" y1="2358.9987" y2="2358.9987"/><text fill="#000000" font-family="sans-serif" font-size="20" font-weight="bold" lengthAdjust="spacing" textLength="23.25" x="47" y="2351.1388">44</text><text fill="#000000" font-family="sans-serif" font-size="20" lengthAdjust="spacing" textLength="246" x="74.25" y="2351.1388">informs operation success</text><!--SRC=[bPRVJzim4CVV_LTOF1MfIDCU4KDQ2fCgWOXWtPvDSbqjt3YptGxsr-zybpI_tCAU8CxtUtU-V7orVz5LhPpQ6bkyG2bBMAkT2Tzi5PxqNv2VFmcr2xRQRP_12Q6AO9qyMtbmPr9vUI_G77IXQrK5URROgEeNvDQ7PLWjIR5Qogkhse67AgYWRNLzVTopmBJE6jD4Ntn_l4EtgckZYwJvJlkGMUNA9t1xNG3PxhAdnn_eyxoMyd2wWIa_QPeaEPrZkLM_uBOgR0ckxrhUlf-5mwEej5kb9rlcqacK7nLHe9ll3nmB_udAODEnMbtUrubI1VMiF4YAzGYrzHe__Xj5VBoDkTrX4Gq7FGST6lA48SAazoe0KYJkvSLrPEKIrIzU1YiB1_6TacW95pfqyjLI29IYWG2vb1NycJqFgvoJhL_6UHSWsWHvCGRJaWpIiv1Ab31Q69HX4AnuCduwZQqmG8tpitCnoRMRgk9IfROmoSaUD5FJB-LQL-LNOxv6LMF-gSEcJGmvkAts7WzBAcOC8YZIHQyUshVlRuzqmbXRopMUU7onOPMGigi8hS4YDTouStpN1S27Z4IHAcxlK83h-DpFELqHK9KoLY7QFdJjdXRD3UDcjpXDLVJrwSkXvhv7d0S3HP1X0yrMUwR8NCSeAtrFUXnEquueFXT-GLoNsLlyOjouPJc6ioCcx-WyGJJ91gsWXKcOICIgfgDgcfdhsnhcCiKWnM4xniax1k_mjG_VdDt6ZMHl6KSv6ItQHNwWhocAzpNuHda2FvP5_WxL7FZZTmE-Sdp8INK4m7o2MsAb3s0-0Z1HDxThI612zX44sx7t8GYJC_9Z2MHXhIjr5J_dVoKR6Fks0VvxPJJo1ejEt27oEfT7vtBs8V37OpaROD_4q7u1E37tIfl8_OnHlP4QIz3uE_ZAVoPnisFK_m0N1-p3cY8b3l4GzEmTpW_pb7NmYYF3y-cS6KhO7DL9nzBR7q_Au7OmKGqX7KicX1u8mdiSEE8Ww61WZiV55qxNyNec5PuM7Uy-ibPX8-tw7PJRz1JKImU_TxZRU0_54NLYgExY36i6M8SJDxW5QvueSCxLvLZSqP7BTxHsO1n4jDpV0YzCR42tFhe0pbB9tekJSshUc_pIR7NMx8KtDjWH9omfOn_10MTT_AQ3NktR_hN3CtqE6_Xx-Z7dOvud68rOyxkY07zw8EeAv_xMIrk3evj_oaL3JlHNxiK_]--></g></svg>