<?xml version="1.0" encoding="UTF-8" standalone="no"?><svg xmlns="http://www.w3.org/2000/svg" xmlns:xlink="http://www.w3.org/1999/xlink" contentStyleType="text/css" height="953px" preserveAspectRatio="none" style="width:1882px;height:953px;background:#FFFFFF;" version="1.1" viewBox="0 0 1882 953" width="1882px" zoomAndPan="magnify"><defs/><g><!--class BoardRepository--><g id="elem_BoardRepository"><rect codeLine="2" fill="#F1F1F1" height="73.2813" id="BoardRepository" rx="2.5" ry="2.5" style="stroke:#181818;stroke-width:0.5;" width="480" x="178" y="780.5"/><ellipse cx="330.5" cy="797.5" fill="#B4A7E5" rx="12" ry="12" style="stroke:#181818;stroke-width:1.0;"/><path d="M325.6875,792.9531 L325.6875,790.4219 L334.3594,790.4219 L334.3594,792.9531 L331.4688,792.9531 L331.4688,802.4531 L334.3594,802.4531 L334.3594,805 L325.6875,805 L325.6875,802.4531 L328.5781,802.4531 L328.5781,792.9531 L325.6875,792.9531 Z " fill="#000000"/><text fill="#000000" font-family="sans-serif" font-size="20" font-style="italic" lengthAdjust="spacing" textLength="166" x="352.5" y="804.4238">BoardRepository</text><line style="stroke:#181818;stroke-width:0.5;" x1="179" x2="657" y1="814.5" y2="814.5"/><line style="stroke:#181818;stroke-width:0.5;" x1="179" x2="657" y1="822.5" y2="822.5"/><text fill="#000000" font-family="sans-serif" font-size="20" font-style="italic" lengthAdjust="spacing" textLength="468" x="184" y="845.0645">findAllActiveBoardsWithUserWritePermission()</text></g><!--class PostItRepository--><g id="elem_PostItRepository"><rect codeLine="6" fill="#F1F1F1" height="119.8438" id="PostItRepository" rx="2.5" ry="2.5" style="stroke:#181818;stroke-width:0.5;" width="543" x="821.5" y="757"/><ellipse cx="1007" cy="774" fill="#B4A7E5" rx="12" ry="12" style="stroke:#181818;stroke-width:1.0;"/><path d="M1002.1875,769.4531 L1002.1875,766.9219 L1010.8594,766.9219 L1010.8594,769.4531 L1007.9688,769.4531 L1007.9688,778.9531 L1010.8594,778.9531 L1010.8594,781.5 L1002.1875,781.5 L1002.1875,778.9531 L1005.0781,778.9531 L1005.0781,769.4531 L1002.1875,769.4531 Z " fill="#000000"/><text fill="#000000" font-family="sans-serif" font-size="20" font-style="italic" lengthAdjust="spacing" textLength="163" x="1029" y="780.9238">PostItRepository</text><line style="stroke:#181818;stroke-width:0.5;" x1="822.5" x2="1363.5" y1="791" y2="791"/><line style="stroke:#181818;stroke-width:0.5;" x1="822.5" x2="1363.5" y1="799" y2="799"/><text fill="#000000" font-family="sans-serif" font-size="20" font-style="italic" lengthAdjust="spacing" textLength="531" x="827.5" y="821.5645">findLastestPostItsCreatedByUser(boardId, username)</text><text fill="#000000" font-family="sans-serif" font-size="20" font-style="italic" lengthAdjust="spacing" textLength="350" x="827.5" y="844.8457">findLatestVersionOfBoard(boardId)</text><text fill="#000000" font-family="sans-serif" font-size="20" font-style="italic" lengthAdjust="spacing" textLength="119" x="827.5" y="868.127">save(postIt)</text></g><!--class ListBoardService--><g id="elem_ListBoardService"><rect codeLine="12" fill="#F1F1F1" height="143.125" id="ListBoardService" rx="2.5" ry="2.5" style="stroke:#181818;stroke-width:0.5;" width="374" x="350" y="460.5"/><ellipse cx="449" cy="477.5" fill="#ADD1B2" rx="12" ry="12" style="stroke:#181818;stroke-width:1.0;"/><path d="M452.0625,484.5781 Q451.375,484.9375 450.625,485.1094 Q449.875,485.2813 449.0469,485.2813 Q446.0938,485.2813 444.5313,483.3438 Q442.9844,481.3906 442.9844,477.7188 Q442.9844,474.0469 444.5313,472.1094 Q446.0938,470.1563 449.0469,470.1563 Q449.875,470.1563 450.625,470.3281 Q451.3906,470.5 452.0625,470.8594 L452.0625,474.0625 Q451.3125,473.375 450.6094,473.0625 Q449.9219,472.75 449.1719,472.75 Q447.5938,472.75 446.7813,474 Q445.9844,475.25 445.9844,477.7188 Q445.9844,480.1875 446.7813,481.4375 Q447.5938,482.6875 449.1719,482.6875 Q449.9219,482.6875 450.6094,482.375 Q451.3125,482.0625 452.0625,481.375 L452.0625,484.5781 Z " fill="#000000"/><text fill="#000000" font-family="sans-serif" font-size="20" lengthAdjust="spacing" textLength="167" x="471" y="484.4238">ListBoardService</text><line style="stroke:#181818;stroke-width:0.5;" x1="351" x2="723" y1="494.5" y2="494.5"/><rect fill="none" height="6" style="stroke:#C82930;stroke-width:1.0;" width="6" x="358" y="508.6406"/><text fill="#000000" font-family="sans-serif" font-size="20" lengthAdjust="spacing" textLength="164" x="371" y="517.0645">boardRepository</text><line style="stroke:#181818;stroke-width:0.5;" x1="351" x2="723" y1="525.7813" y2="525.7813"/><ellipse cx="361" cy="542.9219" fill="#84BE84" rx="3" ry="3" style="stroke:#038048;stroke-width:1.0;"/><text fill="#000000" font-family="sans-serif" font-size="20" lengthAdjust="spacing" textLength="347" x="371" y="548.3457">ListBoardService(boardRepository)</text><text fill="#000000" font-family="sans-serif" font-size="20" lengthAdjust="spacing" textLength="6" x="371" y="571.627"> </text><ellipse cx="361" cy="589.4844" fill="#84BE84" rx="3" ry="3" style="stroke:#038048;stroke-width:1.0;"/><text fill="#000000" font-family="sans-serif" font-size="20" lengthAdjust="spacing" textLength="313" x="371" y="594.9082">userWritableBoards(username)</text></g><!--class ListPostItService--><g id="elem_ListPostItService"><rect codeLine="20" fill="#F1F1F1" height="166.4063" id="ListPostItService" rx="2.5" ry="2.5" style="stroke:#181818;stroke-width:0.5;" width="445" x="1200.5" y="449"/><ellipse cx="1336.5" cy="466" fill="#ADD1B2" rx="12" ry="12" style="stroke:#181818;stroke-width:1.0;"/><path d="M1339.5625,473.0781 Q1338.875,473.4375 1338.125,473.6094 Q1337.375,473.7813 1336.5469,473.7813 Q1333.5938,473.7813 1332.0313,471.8438 Q1330.4844,469.8906 1330.4844,466.2188 Q1330.4844,462.5469 1332.0313,460.6094 Q1333.5938,458.6563 1336.5469,458.6563 Q1337.375,458.6563 1338.125,458.8281 Q1338.8906,459 1339.5625,459.3594 L1339.5625,462.5625 Q1338.8125,461.875 1338.1094,461.5625 Q1337.4219,461.25 1336.6719,461.25 Q1335.0938,461.25 1334.2813,462.5 Q1333.4844,463.75 1333.4844,466.2188 Q1333.4844,468.6875 1334.2813,469.9375 Q1335.0938,471.1875 1336.6719,471.1875 Q1337.4219,471.1875 1338.1094,470.875 Q1338.8125,470.5625 1339.5625,469.875 L1339.5625,473.0781 Z " fill="#000000"/><text fill="#000000" font-family="sans-serif" font-size="20" lengthAdjust="spacing" textLength="164" x="1358.5" y="472.9238">ListPostItService</text><line style="stroke:#181818;stroke-width:0.5;" x1="1201.5" x2="1644.5" y1="483" y2="483"/><rect fill="none" height="6" style="stroke:#C82930;stroke-width:1.0;" width="6" x="1208.5" y="497.1406"/><text fill="#000000" font-family="sans-serif" font-size="20" lengthAdjust="spacing" textLength="164" x="1221.5" y="505.5645">boardRepository</text><rect fill="none" height="6" style="stroke:#C82930;stroke-width:1.0;" width="6" x="1208.5" y="520.4219"/><text fill="#000000" font-family="sans-serif" font-size="20" lengthAdjust="spacing" textLength="163" x="1221.5" y="528.8457">postItRepository</text><line style="stroke:#181818;stroke-width:0.5;" x1="1201.5" x2="1644.5" y1="537.5625" y2="537.5625"/><ellipse cx="1211.5" cy="554.7031" fill="#84BE84" rx="3" ry="3" style="stroke:#038048;stroke-width:1.0;"/><text fill="#000000" font-family="sans-serif" font-size="20" lengthAdjust="spacing" textLength="418" x="1221.5" y="560.127">userUpdatablePostIts(boardId, username)</text><text fill="#000000" font-family="sans-serif" font-size="20" lengthAdjust="spacing" textLength="6" x="1221.5" y="583.4082"> </text><ellipse cx="1211.5" cy="601.2656" fill="#84BE84" rx="3" ry="3" style="stroke:#038048;stroke-width:1.0;"/><text fill="#000000" font-family="sans-serif" font-size="20" lengthAdjust="spacing" textLength="313" x="1221.5" y="606.6895">userWritableBoards(username)</text></g><!--class BoardService--><g id="elem_BoardService"><rect codeLine="29" fill="#F1F1F1" height="189.6875" id="BoardService" rx="2.5" ry="2.5" style="stroke:#181818;stroke-width:0.5;" width="406" x="759" y="437"/><ellipse cx="891.5" cy="454" fill="#ADD1B2" rx="12" ry="12" style="stroke:#181818;stroke-width:1.0;"/><path d="M894.5625,461.0781 Q893.875,461.4375 893.125,461.6094 Q892.375,461.7813 891.5469,461.7813 Q888.5938,461.7813 887.0313,459.8438 Q885.4844,457.8906 885.4844,454.2188 Q885.4844,450.5469 887.0313,448.6094 Q888.5938,446.6563 891.5469,446.6563 Q892.375,446.6563 893.125,446.8281 Q893.8906,447 894.5625,447.3594 L894.5625,450.5625 Q893.8125,449.875 893.1094,449.5625 Q892.4219,449.25 891.6719,449.25 Q890.0938,449.25 889.2813,450.5 Q888.4844,451.75 888.4844,454.2188 Q888.4844,456.6875 889.2813,457.9375 Q890.0938,459.1875 891.6719,459.1875 Q892.4219,459.1875 893.1094,458.875 Q893.8125,458.5625 894.5625,457.875 L894.5625,461.0781 Z " fill="#000000"/><text fill="#000000" font-family="sans-serif" font-size="20" lengthAdjust="spacing" textLength="132" x="913.5" y="460.9238">BoardService</text><line style="stroke:#181818;stroke-width:0.5;" x1="760" x2="1164" y1="471" y2="471"/><rect fill="none" height="6" style="stroke:#C82930;stroke-width:1.0;" width="6" x="767" y="485.1406"/><text fill="#000000" font-family="sans-serif" font-size="20" lengthAdjust="spacing" textLength="164" x="780" y="493.5645">boardRepository</text><rect fill="none" height="6" style="stroke:#C82930;stroke-width:1.0;" width="6" x="767" y="508.4219"/><text fill="#000000" font-family="sans-serif" font-size="20" lengthAdjust="spacing" textLength="163" x="780" y="516.8457">postItRepository</text><line style="stroke:#181818;stroke-width:0.5;" x1="760" x2="1164" y1="525.5625" y2="525.5625"/><ellipse cx="770" cy="542.7031" fill="#84BE84" rx="3" ry="3" style="stroke:#038048;stroke-width:1.0;"/><text fill="#000000" font-family="sans-serif" font-size="20" lengthAdjust="spacing" textLength="312" x="780" y="548.127">BoardService(boardRepository)</text><text fill="#000000" font-family="sans-serif" font-size="20" lengthAdjust="spacing" textLength="6" x="780" y="571.4082"> </text><ellipse cx="770" cy="589.2656" fill="#84BE84" rx="3" ry="3" style="stroke:#038048;stroke-width:1.0;"/><text fill="#000000" font-family="sans-serif" font-size="20" lengthAdjust="spacing" textLength="379" x="780" y="594.6895">isCellAvailable(BoardID id, int x, int y)</text><ellipse cx="770" cy="612.5469" fill="#84BE84" rx="3" ry="3" style="stroke:#038048;stroke-width:1.0;"/><text fill="#000000" font-family="sans-serif" font-size="20" lengthAdjust="spacing" textLength="297" x="780" y="617.9707">existsPostIt(latestPostIts, x, y)</text></g><!--class ChangePostItUI--><g id="elem_ChangePostItUI"><rect codeLine="39" fill="#F1F1F1" height="50" id="ChangePostItUI" rx="2.5" ry="2.5" style="stroke:#181818;stroke-width:0.5;" width="188" x="868" y="7"/><ellipse cx="884" cy="24" fill="#ADD1B2" rx="12" ry="12" style="stroke:#181818;stroke-width:1.0;"/><path d="M887.0625,31.0781 Q886.375,31.4375 885.625,31.6094 Q884.875,31.7813 884.0469,31.7813 Q881.0938,31.7813 879.5313,29.8438 Q877.9844,27.8906 877.9844,24.2188 Q877.9844,20.5469 879.5313,18.6094 Q881.0938,16.6563 884.0469,16.6563 Q884.875,16.6563 885.625,16.8281 Q886.3906,17 887.0625,17.3594 L887.0625,20.5625 Q886.3125,19.875 885.6094,19.5625 Q884.9219,19.25 884.1719,19.25 Q882.5938,19.25 881.7813,20.5 Q880.9844,21.75 880.9844,24.2188 Q880.9844,26.6875 881.7813,27.9375 Q882.5938,29.1875 884.1719,29.1875 Q884.9219,29.1875 885.6094,28.875 Q886.3125,28.5625 887.0625,27.875 L887.0625,31.0781 Z " fill="#000000"/><text fill="#000000" font-family="sans-serif" font-size="20" lengthAdjust="spacing" textLength="154" x="899" y="30.9238">ChangePostItUI</text><line style="stroke:#181818;stroke-width:0.5;" x1="869" x2="1055" y1="41" y2="41"/><line style="stroke:#181818;stroke-width:0.5;" x1="869" x2="1055" y1="49" y2="49"/></g><!--class ChangePostItController--><g id="elem_ChangePostItController"><rect codeLine="41" fill="#F1F1F1" height="259.5313" id="ChangePostItController" rx="2.5" ry="2.5" style="stroke:#181818;stroke-width:0.5;" width="614" x="655" y="117"/><ellipse cx="841.5" cy="134" fill="#ADD1B2" rx="12" ry="12" style="stroke:#181818;stroke-width:1.0;"/><path d="M844.5625,141.0781 Q843.875,141.4375 843.125,141.6094 Q842.375,141.7813 841.5469,141.7813 Q838.5938,141.7813 837.0313,139.8438 Q835.4844,137.8906 835.4844,134.2188 Q835.4844,130.5469 837.0313,128.6094 Q838.5938,126.6563 841.5469,126.6563 Q842.375,126.6563 843.125,126.8281 Q843.8906,127 844.5625,127.3594 L844.5625,130.5625 Q843.8125,129.875 843.1094,129.5625 Q842.4219,129.25 841.6719,129.25 Q840.0938,129.25 839.2813,130.5 Q838.4844,131.75 838.4844,134.2188 Q838.4844,136.6875 839.2813,137.9375 Q840.0938,139.1875 841.6719,139.1875 Q842.4219,139.1875 843.1094,138.875 Q843.8125,138.5625 844.5625,137.875 L844.5625,141.0781 Z " fill="#000000"/><text fill="#000000" font-family="sans-serif" font-size="20" lengthAdjust="spacing" textLength="232" x="863.5" y="140.9238">ChangePostItController</text><line style="stroke:#181818;stroke-width:0.5;" x1="656" x2="1268" y1="151" y2="151"/><rect fill="none" height="6" style="stroke:#C82930;stroke-width:1.0;" width="6" x="663" y="165.1406"/><text fill="#000000" font-family="sans-serif" font-size="20" lengthAdjust="spacing" textLength="164" x="676" y="173.5645">boardRepository</text><rect fill="none" height="6" style="stroke:#C82930;stroke-width:1.0;" width="6" x="663" y="188.4219"/><text fill="#000000" font-family="sans-serif" font-size="20" lengthAdjust="spacing" textLength="163" x="676" y="196.8457">postItRepository</text><line style="stroke:#181818;stroke-width:0.5;" x1="656" x2="1268" y1="205.5625" y2="205.5625"/><ellipse cx="666" cy="222.7031" fill="#84BE84" rx="3" ry="3" style="stroke:#038048;stroke-width:1.0;"/><text fill="#000000" font-family="sans-serif" font-size="20" lengthAdjust="spacing" textLength="587" x="676" y="228.127">ChangePostItController(boardRepository, postItRepository)</text><text fill="#000000" font-family="sans-serif" font-size="20" lengthAdjust="spacing" textLength="6" x="676" y="251.4082"> </text><ellipse cx="666" cy="269.2656" fill="#84BE84" rx="3" ry="3" style="stroke:#038048;stroke-width:1.0;"/><text fill="#000000" font-family="sans-serif" font-size="20" lengthAdjust="spacing" textLength="245" x="676" y="274.6895">listUserWritableBoards()</text><ellipse cx="666" cy="292.5469" fill="#84BE84" rx="3" ry="3" style="stroke:#038048;stroke-width:1.0;"/><text fill="#000000" font-family="sans-serif" font-size="20" lengthAdjust="spacing" textLength="397" x="676" y="297.9707">listBoardPostItsCreatedByUser(boardId)</text><ellipse cx="666" cy="315.8281" fill="#84BE84" rx="3" ry="3" style="stroke:#038048;stroke-width:1.0;"/><text fill="#000000" font-family="sans-serif" font-size="20" lengthAdjust="spacing" textLength="341" x="676" y="321.252">validateCoordinates(boardID, x, y)</text><ellipse cx="666" cy="339.1094" fill="#84BE84" rx="3" ry="3" style="stroke:#038048;stroke-width:1.0;"/><text fill="#000000" font-family="sans-serif" font-size="20" lengthAdjust="spacing" textLength="406" x="676" y="344.5332">updatePostIt(boardId, postItId, x, y, title)</text><ellipse cx="666" cy="362.3906" fill="#84BE84" rx="3" ry="3" style="stroke:#038048;stroke-width:1.0;"/><text fill="#000000" font-family="sans-serif" font-size="20" lengthAdjust="spacing" textLength="174" x="676" y="367.8145">savePostIt(postIt)</text></g><!--class PostIt--><g id="elem_PostIt"><rect codeLine="54" fill="#F1F1F1" height="259.5313" id="PostIt" rx="2.5" ry="2.5" style="stroke:#181818;stroke-width:0.5;" width="200" x="1400" y="687"/><ellipse cx="1467.5" cy="704" fill="#ADD1B2" rx="12" ry="12" style="stroke:#181818;stroke-width:1.0;"/><path d="M1470.5625,711.0781 Q1469.875,711.4375 1469.125,711.6094 Q1468.375,711.7813 1467.5469,711.7813 Q1464.5938,711.7813 1463.0313,709.8438 Q1461.4844,707.8906 1461.4844,704.2188 Q1461.4844,700.5469 1463.0313,698.6094 Q1464.5938,696.6563 1467.5469,696.6563 Q1468.375,696.6563 1469.125,696.8281 Q1469.8906,697 1470.5625,697.3594 L1470.5625,700.5625 Q1469.8125,699.875 1469.1094,699.5625 Q1468.4219,699.25 1467.6719,699.25 Q1466.0938,699.25 1465.2813,700.5 Q1464.4844,701.75 1464.4844,704.2188 Q1464.4844,706.6875 1465.2813,707.9375 Q1466.0938,709.1875 1467.6719,709.1875 Q1468.4219,709.1875 1469.1094,708.875 Q1469.8125,708.5625 1470.5625,707.875 L1470.5625,711.0781 Z " fill="#000000"/><text fill="#000000" font-family="sans-serif" font-size="20" lengthAdjust="spacing" textLength="56" x="1489.5" y="710.9238">PostIt</text><line style="stroke:#181818;stroke-width:0.5;" x1="1401" x2="1599" y1="721" y2="721"/><rect fill="none" height="6" style="stroke:#C82930;stroke-width:1.0;" width="6" x="1408" y="735.1406"/><text fill="#000000" font-family="sans-serif" font-size="20" lengthAdjust="spacing" textLength="40" x="1421" y="743.5645">title</text><rect fill="none" height="6" style="stroke:#C82930;stroke-width:1.0;" width="6" x="1408" y="758.4219"/><text fill="#000000" font-family="sans-serif" font-size="20" lengthAdjust="spacing" textLength="117" x="1421" y="766.8457">coordinates</text><rect fill="none" height="6" style="stroke:#C82930;stroke-width:1.0;" width="6" x="1408" y="781.7031"/><text fill="#000000" font-family="sans-serif" font-size="20" lengthAdjust="spacing" textLength="43" x="1421" y="790.127">user</text><rect fill="none" height="6" style="stroke:#C82930;stroke-width:1.0;" width="6" x="1408" y="804.9844"/><text fill="#000000" font-family="sans-serif" font-size="20" lengthAdjust="spacing" textLength="58" x="1421" y="813.4082">board</text><rect fill="none" height="6" style="stroke:#C82930;stroke-width:1.0;" width="6" x="1408" y="828.2656"/><text fill="#000000" font-family="sans-serif" font-size="20" lengthAdjust="spacing" textLength="50" x="1421" y="836.6895">state</text><text fill="#000000" font-family="sans-serif" font-size="20" lengthAdjust="spacing" textLength="6" x="1421" y="859.9707"> </text><rect fill="none" height="6" style="stroke:#C82930;stroke-width:1.0;" width="6" x="1408" y="874.8281"/><text fill="#000000" font-family="sans-serif" font-size="20" lengthAdjust="spacing" textLength="98" x="1421" y="883.252">createdAt</text><rect fill="none" height="6" style="stroke:#C82930;stroke-width:1.0;" width="6" x="1408" y="898.1094"/><text fill="#000000" font-family="sans-serif" font-size="20" lengthAdjust="spacing" textLength="77" x="1421" y="906.5332">isLatest</text><line style="stroke:#181818;stroke-width:0.5;" x1="1401" x2="1599" y1="915.25" y2="915.25"/><ellipse cx="1411" cy="932.3906" fill="#84BE84" rx="3" ry="3" style="stroke:#038048;stroke-width:1.0;"/><text fill="#000000" font-family="sans-serif" font-size="20" lengthAdjust="spacing" textLength="173" x="1421" y="937.8145">update(title, x, y)</text></g><!--class PostItDTO--><g id="elem_PostItDTO"><rect codeLine="67" fill="#F1F1F1" height="73.2813" id="PostItDTO" rx="2.5" ry="2.5" style="stroke:#181818;stroke-width:0.5;" width="133" x="1711.5" y="780.5"/><ellipse cx="1727.5" cy="797.5" fill="#ADD1B2" rx="12" ry="12" style="stroke:#181818;stroke-width:1.0;"/><path d="M1730.5625,804.5781 Q1729.875,804.9375 1729.125,805.1094 Q1728.375,805.2813 1727.5469,805.2813 Q1724.5938,805.2813 1723.0313,803.3438 Q1721.4844,801.3906 1721.4844,797.7188 Q1721.4844,794.0469 1723.0313,792.1094 Q1724.5938,790.1563 1727.5469,790.1563 Q1728.375,790.1563 1729.125,790.3281 Q1729.8906,790.5 1730.5625,790.8594 L1730.5625,794.0625 Q1729.8125,793.375 1729.1094,793.0625 Q1728.4219,792.75 1727.6719,792.75 Q1726.0938,792.75 1725.2813,794 Q1724.4844,795.25 1724.4844,797.7188 Q1724.4844,800.1875 1725.2813,801.4375 Q1726.0938,802.6875 1727.6719,802.6875 Q1728.4219,802.6875 1729.1094,802.375 Q1729.8125,802.0625 1730.5625,801.375 L1730.5625,804.5781 Z " fill="#000000"/><text fill="#000000" font-family="sans-serif" font-size="20" lengthAdjust="spacing" textLength="99" x="1742.5" y="804.4238">PostItDTO</text><line style="stroke:#181818;stroke-width:0.5;" x1="1712.5" x2="1843.5" y1="814.5" y2="814.5"/><line style="stroke:#181818;stroke-width:0.5;" x1="1712.5" x2="1843.5" y1="822.5" y2="822.5"/><ellipse cx="1722.5" cy="839.6406" fill="#84BE84" rx="3" ry="3" style="stroke:#038048;stroke-width:1.0;"/><text fill="#000000" font-family="sans-serif" font-size="20" lengthAdjust="spacing" textLength="71" x="1732.5" y="845.0645">toDto()</text></g><!--class BoardDTOParser--><g id="elem_BoardDTOParser"><rect codeLine="83" fill="#F1F1F1" height="96.5625" id="BoardDTOParser" rx="2.5" ry="2.5" style="stroke:#181818;stroke-width:0.5;" width="198" x="85" y="483.5"/><ellipse cx="101" cy="500.5" fill="#ADD1B2" rx="12" ry="12" style="stroke:#181818;stroke-width:1.0;"/><path d="M104.0625,507.5781 Q103.375,507.9375 102.625,508.1094 Q101.875,508.2813 101.0469,508.2813 Q98.0938,508.2813 96.5313,506.3438 Q94.9844,504.3906 94.9844,500.7188 Q94.9844,497.0469 96.5313,495.1094 Q98.0938,493.1563 101.0469,493.1563 Q101.875,493.1563 102.625,493.3281 Q103.3906,493.5 104.0625,493.8594 L104.0625,497.0625 Q103.3125,496.375 102.6094,496.0625 Q101.9219,495.75 101.1719,495.75 Q99.5938,495.75 98.7813,497 Q97.9844,498.25 97.9844,500.7188 Q97.9844,503.1875 98.7813,504.4375 Q99.5938,505.6875 101.1719,505.6875 Q101.9219,505.6875 102.6094,505.375 Q103.3125,505.0625 104.0625,504.375 L104.0625,507.5781 Z " fill="#000000"/><text fill="#000000" font-family="sans-serif" font-size="20" lengthAdjust="spacing" textLength="164" x="116" y="507.4238">BoardDTOParser</text><line style="stroke:#181818;stroke-width:0.5;" x1="86" x2="282" y1="517.5" y2="517.5"/><line style="stroke:#181818;stroke-width:0.5;" x1="86" x2="282" y1="525.5" y2="525.5"/><ellipse cx="96" cy="542.6406" fill="#84BE84" rx="3" ry="3" style="stroke:#038048;stroke-width:1.0;"/><text fill="#000000" font-family="sans-serif" font-size="20" lengthAdjust="spacing" textLength="71" x="106" y="548.0645">toDto()</text><ellipse cx="96" cy="565.9219" fill="#84BE84" rx="3" ry="3" style="stroke:#038048;stroke-width:1.0;"/><text fill="#000000" font-family="sans-serif" font-size="20" lengthAdjust="spacing" textLength="71" x="106" y="571.3457">toDto()</text></g><!--class Board--><g id="elem_Board"><rect codeLine="75" fill="#F1F1F1" height="50" id="Board" rx="2.5" ry="2.5" style="stroke:#181818;stroke-width:0.5;" width="93" x="693.5" y="792"/><ellipse cx="709.5" cy="809" fill="#ADD1B2" rx="12" ry="12" style="stroke:#181818;stroke-width:1.0;"/><path d="M712.5625,816.0781 Q711.875,816.4375 711.125,816.6094 Q710.375,816.7813 709.5469,816.7813 Q706.5938,816.7813 705.0313,814.8438 Q703.4844,812.8906 703.4844,809.2188 Q703.4844,805.5469 705.0313,803.6094 Q706.5938,801.6563 709.5469,801.6563 Q710.375,801.6563 711.125,801.8281 Q711.8906,802 712.5625,802.3594 L712.5625,805.5625 Q711.8125,804.875 711.1094,804.5625 Q710.4219,804.25 709.6719,804.25 Q708.0938,804.25 707.2813,805.5 Q706.4844,806.75 706.4844,809.2188 Q706.4844,811.6875 707.2813,812.9375 Q708.0938,814.1875 709.6719,814.1875 Q710.4219,814.1875 711.1094,813.875 Q711.8125,813.5625 712.5625,812.875 L712.5625,816.0781 Z " fill="#000000"/><text fill="#000000" font-family="sans-serif" font-size="20" lengthAdjust="spacing" textLength="59" x="724.5" y="815.9238">Board</text><line style="stroke:#181818;stroke-width:0.5;" x1="694.5" x2="785.5" y1="826" y2="826"/><line style="stroke:#181818;stroke-width:0.5;" x1="694.5" x2="785.5" y1="834" y2="834"/></g><!--class BoardDTO--><g id="elem_BoardDTO"><rect codeLine="79" fill="#F1F1F1" height="73.2813" id="BoardDTO" rx="2.5" ry="2.5" style="stroke:#181818;stroke-width:0.5;" width="136" x="7" y="780.5"/><ellipse cx="23" cy="797.5" fill="#ADD1B2" rx="12" ry="12" style="stroke:#181818;stroke-width:1.0;"/><path d="M26.0625,804.5781 Q25.375,804.9375 24.625,805.1094 Q23.875,805.2813 23.0469,805.2813 Q20.0938,805.2813 18.5313,803.3438 Q16.9844,801.3906 16.9844,797.7188 Q16.9844,794.0469 18.5313,792.1094 Q20.0938,790.1563 23.0469,790.1563 Q23.875,790.1563 24.625,790.3281 Q25.3906,790.5 26.0625,790.8594 L26.0625,794.0625 Q25.3125,793.375 24.6094,793.0625 Q23.9219,792.75 23.1719,792.75 Q21.5938,792.75 20.7813,794 Q19.9844,795.25 19.9844,797.7188 Q19.9844,800.1875 20.7813,801.4375 Q21.5938,802.6875 23.1719,802.6875 Q23.9219,802.6875 24.6094,802.375 Q25.3125,802.0625 26.0625,801.375 L26.0625,804.5781 Z " fill="#000000"/><text fill="#000000" font-family="sans-serif" font-size="20" lengthAdjust="spacing" textLength="102" x="38" y="804.4238">BoardDTO</text><line style="stroke:#181818;stroke-width:0.5;" x1="8" x2="142" y1="814.5" y2="814.5"/><line style="stroke:#181818;stroke-width:0.5;" x1="8" x2="142" y1="822.5" y2="822.5"/><ellipse cx="18" cy="839.6406" fill="#84BE84" rx="3" ry="3" style="stroke:#038048;stroke-width:1.0;"/><text fill="#000000" font-family="sans-serif" font-size="20" lengthAdjust="spacing" textLength="71" x="28" y="845.0645">toDto()</text></g><!--class PostItDTOParser--><g id="elem_PostItDTOParser"><rect fill="#F1F1F1" height="50" id="PostItDTOParser" rx="2.5" ry="2.5" style="stroke:#181818;stroke-width:0.5;" width="195" x="1680.5" y="507"/><ellipse cx="1696.5" cy="524" fill="#ADD1B2" rx="12" ry="12" style="stroke:#181818;stroke-width:1.0;"/><path d="M1699.5625,531.0781 Q1698.875,531.4375 1698.125,531.6094 Q1697.375,531.7813 1696.5469,531.7813 Q1693.5938,531.7813 1692.0313,529.8438 Q1690.4844,527.8906 1690.4844,524.2188 Q1690.4844,520.5469 1692.0313,518.6094 Q1693.5938,516.6563 1696.5469,516.6563 Q1697.375,516.6563 1698.125,516.8281 Q1698.8906,517 1699.5625,517.3594 L1699.5625,520.5625 Q1698.8125,519.875 1698.1094,519.5625 Q1697.4219,519.25 1696.6719,519.25 Q1695.0938,519.25 1694.2813,520.5 Q1693.4844,521.75 1693.4844,524.2188 Q1693.4844,526.6875 1694.2813,527.9375 Q1695.0938,529.1875 1696.6719,529.1875 Q1697.4219,529.1875 1698.1094,528.875 Q1698.8125,528.5625 1699.5625,527.875 L1699.5625,531.0781 Z " fill="#000000"/><text fill="#000000" font-family="sans-serif" font-size="20" lengthAdjust="spacing" textLength="161" x="1711.5" y="530.9238">PostItDTOParser</text><line style="stroke:#181818;stroke-width:0.5;" x1="1681.5" x2="1874.5" y1="541" y2="541"/><line style="stroke:#181818;stroke-width:0.5;" x1="1681.5" x2="1874.5" y1="549" y2="549"/></g><!--link ChangePostItUI to ChangePostItController--><g id="link_ChangePostItUI_ChangePostItController"><path codeLine="88" d="M962,57.02 C962,71.32 962,90.74 962,111.7 " fill="none" id="ChangePostItUI-to-ChangePostItController" style="stroke:#181818;stroke-width:1.0;stroke-dasharray:7.0,7.0;"/><polygon fill="#181818" points="962,116.77,966,107.77,962,111.77,958,107.77,962,116.77" style="stroke:#181818;stroke-width:1.0;"/></g><!--link ChangePostItController to ListBoardService--><g id="link_ChangePostItController_ListBoardService"><path codeLine="89" d="M768.16,377.08 C726.82,404.6 684.53,432.76 647.62,457.34 " fill="none" id="ChangePostItController-to-ListBoardService" style="stroke:#181818;stroke-width:1.0;"/><polygon fill="#181818" points="643.14,460.32,652.8499,458.6713,647.3046,457.5531,648.4228,452.0078,643.14,460.32" style="stroke:#181818;stroke-width:1.0;"/></g><!--link ChangePostItController to BoardService--><g id="link_ChangePostItController_BoardService"><path codeLine="90" d="M962,377.08 C962,395.31 962,413.82 962,431.38 " fill="none" id="ChangePostItController-to-BoardService" style="stroke:#181818;stroke-width:1.0;"/><polygon fill="#181818" points="962,436.8,966,427.8,962,431.8,958,427.8,962,436.8" style="stroke:#181818;stroke-width:1.0;"/></g><!--link ChangePostItController to ListPostItService--><g id="link_ChangePostItController_ListPostItService"><path codeLine="91" d="M1172.26,377.08 C1210.49,400.54 1249.46,424.46 1284.93,446.24 " fill="none" id="ChangePostItController-to-ListPostItService" style="stroke:#181818;stroke-width:1.0;"/><polygon fill="#181818" points="1289.24,448.88,1283.6639,440.7617,1284.9793,446.2635,1279.4775,447.5789,1289.24,448.88" style="stroke:#181818;stroke-width:1.0;"/></g><!--link ListBoardService to Board--><g id="link_ListBoardService_Board"><path codeLine="93" d="M608.16,603.61 C631.38,628.71 656.25,657.97 676,687 C697.84,719.11 716.74,759.75 728.23,786.74 " fill="none" id="ListBoardService-to-Board" style="stroke:#181818;stroke-width:1.0;stroke-dasharray:7.0,7.0;"/><polygon fill="#181818" points="730.28,791.62,730.4631,781.7728,728.3346,787.014,723.0935,784.8855,730.28,791.62" style="stroke:#181818;stroke-width:1.0;"/></g><!--link ListBoardService to BoardRepository--><g id="link_ListBoardService_BoardRepository"><path codeLine="94" d="M507.28,603.68 C484.5,657.86 453.87,730.71 435.05,775.45 " fill="none" id="ListBoardService-to-BoardRepository" style="stroke:#181818;stroke-width:1.0;"/><polygon fill="#181818" points="433.04,780.23,440.2265,773.4955,434.9854,775.624,432.8569,770.3828,433.04,780.23" style="stroke:#181818;stroke-width:1.0;"/></g><!--link BoardService to PostItRepository--><g id="link_BoardService_PostItRepository"><path codeLine="95" d="M1005.62,627.23 C1024.57,668.17 1046.28,715.06 1063.31,751.87 " fill="none" id="BoardService-to-PostItRepository" style="stroke:#181818;stroke-width:1.0;"/><polygon fill="#181818" points="1065.58,756.77,1065.4344,746.9222,1063.482,752.2315,1058.1728,750.279,1065.58,756.77" style="stroke:#181818;stroke-width:1.0;"/></g><!--link ListPostItService to PostItRepository--><g id="link_ListPostItService_PostItRepository"><path codeLine="96" d="M1327.11,615.24 C1275.65,659.36 1213.25,712.88 1165.82,753.56 " fill="none" id="ListPostItService-to-PostItRepository" style="stroke:#181818;stroke-width:1.0;"/><polygon fill="#181818" points="1161.85,756.96,1171.2865,754.1399,1165.6463,753.706,1166.0801,748.0659,1161.85,756.96" style="stroke:#181818;stroke-width:1.0;"/></g><!--link BoardService to PostIt--><g id="link_BoardService_PostIt"><path codeLine="98" d="M1165.18,620.41 C1171.17,622.67 1177.12,624.87 1183,627 C1269.86,658.46 1303.8,637.82 1382,687 C1386.62,689.91 1391.18,693.04 1395.65,696.36 " fill="none" id="BoardService-to-PostIt" style="stroke:#181818;stroke-width:1.0;stroke-dasharray:7.0,7.0;"/><polygon fill="#181818" points="1399.74,699.46,1394.9745,690.8409,1395.752,696.444,1390.1489,697.2216,1399.74,699.46" style="stroke:#181818;stroke-width:1.0;"/></g><!--link ListPostItService to PostIt--><g id="link_ListPostItService_PostIt"><path codeLine="99" d="M1445.38,615.24 C1451.08,636.18 1457.35,659.25 1463.55,682.05 " fill="none" id="ListPostItService-to-PostIt" style="stroke:#181818;stroke-width:1.0;stroke-dasharray:7.0,7.0;"/><polygon fill="#181818" points="1464.88,686.91,1466.3686,677.1743,1463.5632,682.0865,1458.651,679.2812,1464.88,686.91" style="stroke:#181818;stroke-width:1.0;"/></g><!--link BoardService to Board--><g id="link_BoardService_Board"><path codeLine="100" d="M855.09,627.37 C836.86,646.12 818.99,666.41 804,687 C781,718.58 762.23,759.68 751.1,786.9 " fill="none" id="BoardService-to-Board" style="stroke:#181818;stroke-width:1.0;stroke-dasharray:7.0,7.0;"/><polygon fill="#181818" points="749.11,791.82,756.1846,784.968,750.9792,787.1826,748.7647,781.9772,749.11,791.82" style="stroke:#181818;stroke-width:1.0;"/></g><!--link BoardDTOParser to BoardDTO--><g id="link_BoardDTOParser_BoardDTO"><path codeLine="101" d="M165.63,580.69 C144.59,635.32 110.47,723.91 90.64,775.38 " fill="none" id="BoardDTOParser-to-BoardDTO" style="stroke:#181818;stroke-width:1.0;stroke-dasharray:7.0,7.0;"/><polygon fill="#181818" points="88.77,780.25,95.7385,773.2901,90.5678,775.5844,88.2735,770.4137,88.77,780.25" style="stroke:#181818;stroke-width:1.0;"/></g><!--link BoardDTOParser to Board--><g id="link_BoardDTOParser_Board"><path codeLine="102" d="M247.45,580.72 C272.87,597.73 303.18,615.5 333,627 C477.4,682.67 552.03,594.37 676,687 C708.56,711.33 725.58,756.79 733.66,786.73 " fill="none" id="BoardDTOParser-to-Board" style="stroke:#181818;stroke-width:1.0;stroke-dasharray:7.0,7.0;"/><polygon fill="#181818" points="734.98,791.76,736.5635,782.0393,733.7103,786.9239,728.8257,784.0707,734.98,791.76" style="stroke:#181818;stroke-width:1.0;"/></g><!--link PostItDTOParser to PostItDTO--><g id="link_PostItDTOParser_PostItDTO"><path codeLine="104" d="M1778,557.13 C1778,605.53 1778,714.93 1778,774.86 " fill="none" id="PostItDTOParser-to-PostItDTO" style="stroke:#181818;stroke-width:1.0;stroke-dasharray:7.0,7.0;"/><polygon fill="#181818" points="1778,780.14,1782,771.14,1778,775.14,1774,771.14,1778,780.14" style="stroke:#181818;stroke-width:1.0;"/></g><!--link PostItDTOParser to PostIt--><g id="link_PostItDTOParser_PostIt"><path codeLine="105" d="M1754.3,557.13 C1721.02,591 1658.38,654.77 1603.6,710.54 " fill="none" id="PostItDTOParser-to-PostIt" style="stroke:#181818;stroke-width:1.0;stroke-dasharray:7.0,7.0;"/><polygon fill="#181818" points="1600,714.2,1609.1635,710.5902,1603.5068,710.636,1603.461,704.9793,1600,714.2" style="stroke:#181818;stroke-width:1.0;"/></g><!--SRC=[dLJRRjim37tNL-ZHHfDYs0SKI1qC252WmRgipuhDh48Lon0PerdGVvykhkrQjf7koJ9vI1uUKi9NMLR2YAFI-IiKl823E2dweKjwad-1V__6c2m9p47amE-rCCLFg3HAqkRCBuppYzWZ6P7JEp_8ibWfjSf9rk2n-2pfPOTWdeqas88vIaIfooHbx_t4MusqeVdC3m89a08KCmE2eBW_k-p9tXNR50j-id-bE48w5k_2VuDn11uFdjz7u02EeeQayeKyqLm9HFuWaNpK4vXQMjQEv9BlFul2hF4cmYO3L1fWfqOQiLUDO4dNmQV2eUtvoivM3PJiwkogGlX2ZO9Zeds1r1LAJFEvGXg96TXTgeLKZaZYGpPhBYrXkpZyBNpEgKV3czK8GsU94hr5MJZakKSyUn7bdqQ4tOPVHXsPlG16AmNcoxsDfnbskOYYcxwLRMGNJo1jdTumTmi2j1PAse53fhKfPEaaQG3h3qdyiDrMD6oxZGZStCaX5vmaAGW1xcuqyEY617kZc8_nfxoZuF_TDdMY-XEIzRA03ZsjoFz93FUMzTWcFdKqs51z_UlH4xZXfDUaa-7AMlzM66m6EuMoJciOnFrlNZPOkTlRkuajOHCxk5pUHK_A7FPQNFIoC1QzSewjDyIkjbJl3aI0uTlEukTi5COY5W4o4jzpJb0VZAXrMDEaZx5setgkrZRZPVy0]--></g></svg>