<?xml version="1.0" encoding="UTF-8" standalone="no"?><svg xmlns="http://www.w3.org/2000/svg" xmlns:xlink="http://www.w3.org/1999/xlink" contentStyleType="text/css" height="2176px" preserveAspectRatio="none" style="width:2795px;height:2176px;background:#FFFFFF;" version="1.1" viewBox="0 0 2795 2176" width="2795px" zoomAndPan="magnify"><defs/><g><rect fill="#FFFFFF" height="1942.2188" style="stroke:#181818;stroke-width:1.0;" width="10" x="25.5" y="107.5625"/><rect fill="#FFFFFF" height="517.6563" style="stroke:#181818;stroke-width:1.0;" width="10" x="458.5" y="136.8438"/><rect fill="#FFFFFF" height="480.375" style="stroke:#181818;stroke-width:1.0;" width="10" x="458.5" y="691.7813"/><rect fill="#FFFFFF" height="37.2813" style="stroke:#181818;stroke-width:1.0;" width="10" x="458.5" y="1209.4375"/><rect fill="#FFFFFF" height="431.8125" style="stroke:#181818;stroke-width:1.0;" width="10" x="458.5" y="1284"/><rect fill="#FFFFFF" height="296.6875" style="stroke:#181818;stroke-width:1.0;" width="10" x="458.5" y="1753.0938"/><rect fill="#FFFFFF" height="443.0938" style="stroke:#181818;stroke-width:1.0;" width="10" x="925.5" y="174.125"/><rect fill="#FFFFFF" height="405.8125" style="stroke:#181818;stroke-width:1.0;" width="10" x="925.5" y="729.0625"/><rect fill="#FFFFFF" height="357.25" style="stroke:#181818;stroke-width:1.0;" width="10" x="925.5" y="1321.2813"/><rect fill="#FFFFFF" height="222.125" style="stroke:#181818;stroke-width:1.0;" width="10" x="925.5" y="1790.375"/><rect fill="#FFFFFF" height="72.2813" style="stroke:#181818;stroke-width:1.0;" width="10" x="930.5" y="1902.9375"/><rect fill="#FFFFFF" height="30" style="stroke:#181818;stroke-width:1.0;" width="10" x="1285.5" y="211.4063"/><rect fill="#FFFFFF" height="263.9688" style="stroke:#181818;stroke-width:1.0;" width="10" x="1285.5" y="315.9688"/><rect fill="#FFFFFF" height="30" style="stroke:#181818;stroke-width:1.0;" width="10" x="1475" y="766.3438"/><rect fill="#FFFFFF" height="263.9688" style="stroke:#181818;stroke-width:1.0;" width="10" x="1475" y="833.625"/><rect fill="#FFFFFF" height="30" style="stroke:#181818;stroke-width:1.0;" width="10" x="1647" y="1358.5625"/><rect fill="#FFFFFF" height="215.4063" style="stroke:#181818;stroke-width:1.0;" width="10" x="1647" y="1425.8438"/><rect fill="#FFFFFF" height="28" style="stroke:#181818;stroke-width:1.0;" width="10" x="1652" y="1568.9688"/><rect fill="#FFFFFF" height="67.2813" style="stroke:#181818;stroke-width:1.0;" width="10" x="2000" y="468.375"/><rect fill="#FFFFFF" height="67.2813" style="stroke:#181818;stroke-width:1.0;" width="10" x="2124" y="986.0313"/><rect fill="#FFFFFF" height="30" style="stroke:#181818;stroke-width:1.0;" width="10" x="2124" y="1827.6563"/><rect fill="#FFFFFF" height="30" style="stroke:#181818;stroke-width:1.0;" width="10" x="2249" y="505.6563"/><rect fill="#FFFFFF" height="30" style="stroke:#181818;stroke-width:1.0;" width="10" x="2373.5" y="1023.3125"/><rect fill="#FFFFFF" height="37.2813" style="stroke:#181818;stroke-width:1.0;" width="10" x="2525.5" y="353.25"/><rect fill="#FFFFFF" height="37.2813" style="stroke:#181818;stroke-width:1.0;" width="10" x="2705" y="870.9063"/><rect fill="#FFFFFF" height="37.2813" style="stroke:#181818;stroke-width:1.0;" width="10" x="2705" y="1486.4063"/><rect fill="#FFFFFF" height="30" style="stroke:#181818;stroke-width:1.0;" width="10" x="2705" y="1945.2188"/><rect fill="none" height="138.125" style="stroke:#000000;stroke-width:1.5;" width="1132" x="1190" y="405.5313"/><rect fill="none" height="138.125" style="stroke:#000000;stroke-width:1.5;" width="1064" x="1381" y="923.1875"/><line style="stroke:#181818;stroke-width:0.5;stroke-dasharray:5.0,5.0;" x1="30" x2="30" y1="97.5625" y2="2067.7813"/><line style="stroke:#181818;stroke-width:0.5;stroke-dasharray:5.0,5.0;" x1="463.5" x2="463.5" y1="97.5625" y2="2067.7813"/><line style="stroke:#181818;stroke-width:0.5;stroke-dasharray:5.0,5.0;" x1="930.5" x2="930.5" y1="97.5625" y2="2067.7813"/><line style="stroke:#181818;stroke-width:0.5;stroke-dasharray:5.0,5.0;" x1="1290" x2="1290" y1="97.5625" y2="2067.7813"/><line style="stroke:#181818;stroke-width:0.5;stroke-dasharray:5.0,5.0;" x1="1480" x2="1480" y1="97.5625" y2="2067.7813"/><line style="stroke:#181818;stroke-width:0.5;stroke-dasharray:5.0,5.0;" x1="1652" x2="1652" y1="97.5625" y2="2067.7813"/><line style="stroke:#181818;stroke-width:0.5;stroke-dasharray:5.0,5.0;" x1="2005" x2="2005" y1="97.5625" y2="2067.7813"/><line style="stroke:#181818;stroke-width:0.5;stroke-dasharray:5.0,5.0;" x1="2129" x2="2129" y1="97.5625" y2="2067.7813"/><line style="stroke:#181818;stroke-width:0.5;stroke-dasharray:5.0,5.0;" x1="2254" x2="2254" y1="97.5625" y2="2067.7813"/><line style="stroke:#181818;stroke-width:0.5;stroke-dasharray:5.0,5.0;" x1="2378" x2="2378" y1="97.5625" y2="2067.7813"/><line style="stroke:#181818;stroke-width:0.5;stroke-dasharray:5.0,5.0;" x1="2530" x2="2530" y1="97.5625" y2="2067.7813"/><line style="stroke:#181818;stroke-width:0.5;stroke-dasharray:5.0,5.0;" x1="2710" x2="2710" y1="97.5625" y2="2067.7813"/><text fill="#000000" font-family="sans-serif" font-size="20" lengthAdjust="spacing" textLength="45" x="5" y="92.8457">User</text><ellipse cx="30.5" cy="22.7813" fill="#E2E2F0" rx="8" ry="8" style="stroke:#181818;stroke-width:0.5;"/><path d="M30.5,30.7813 L30.5,57.7813 M17.5,38.7813 L43.5,38.7813 M30.5,57.7813 L17.5,72.7813 M30.5,57.7813 L43.5,72.7813 " fill="none" style="stroke:#181818;stroke-width:0.5;"/><text fill="#000000" font-family="sans-serif" font-size="20" lengthAdjust="spacing" textLength="45" x="5" y="2085.3457">User</text><ellipse cx="30.5" cy="2098.5625" fill="#E2E2F0" rx="8" ry="8" style="stroke:#181818;stroke-width:0.5;"/><path d="M30.5,2106.5625 L30.5,2133.5625 M17.5,2114.5625 L43.5,2114.5625 M30.5,2133.5625 L17.5,2148.5625 M30.5,2133.5625 L43.5,2148.5625 " fill="none" style="stroke:#181818;stroke-width:0.5;"/><rect fill="#E2E2F0" height="60.5625" rx="2.5" ry="2.5" style="stroke:#181818;stroke-width:0.5;" width="168" x="379.5" y="36"/><text fill="#000000" font-family="sans-serif" font-size="20" font-style="italic" lengthAdjust="spacing" textLength="151" x="388" y="61.5645">«presentation»</text><text fill="#000000" font-family="sans-serif" font-size="20" lengthAdjust="spacing" textLength="154" x="386.5" y="84.8457">ChangePostItUI</text><rect fill="#E2E2F0" height="60.5625" rx="2.5" ry="2.5" style="stroke:#181818;stroke-width:0.5;" width="168" x="379.5" y="2066.7813"/><text fill="#000000" font-family="sans-serif" font-size="20" font-style="italic" lengthAdjust="spacing" textLength="151" x="388" y="2092.3457">«presentation»</text><text fill="#000000" font-family="sans-serif" font-size="20" lengthAdjust="spacing" textLength="154" x="386.5" y="2115.627">ChangePostItUI</text><rect fill="#E2E2F0" height="60.5625" rx="2.5" ry="2.5" style="stroke:#181818;stroke-width:0.5;" width="246" x="807.5" y="36"/><text fill="#000000" font-family="sans-serif" font-size="20" font-style="italic" lengthAdjust="spacing" textLength="136" x="862.5" y="61.5645">«application»</text><text fill="#000000" font-family="sans-serif" font-size="20" lengthAdjust="spacing" textLength="232" x="814.5" y="84.8457">ChangePostItController</text><rect fill="#E2E2F0" height="60.5625" rx="2.5" ry="2.5" style="stroke:#181818;stroke-width:0.5;" width="246" x="807.5" y="2066.7813"/><text fill="#000000" font-family="sans-serif" font-size="20" font-style="italic" lengthAdjust="spacing" textLength="136" x="862.5" y="2092.3457">«application»</text><text fill="#000000" font-family="sans-serif" font-size="20" lengthAdjust="spacing" textLength="232" x="814.5" y="2115.627">ChangePostItController</text><rect fill="#E2E2F0" height="60.5625" rx="2.5" ry="2.5" style="stroke:#181818;stroke-width:0.5;" width="181" x="1200" y="36"/><text fill="#000000" font-family="sans-serif" font-size="20" font-style="italic" lengthAdjust="spacing" textLength="95" x="1243" y="61.5645">«service»</text><text fill="#000000" font-family="sans-serif" font-size="20" lengthAdjust="spacing" textLength="167" x="1207" y="84.8457">ListBoardService</text><rect fill="#E2E2F0" height="60.5625" rx="2.5" ry="2.5" style="stroke:#181818;stroke-width:0.5;" width="181" x="1200" y="2066.7813"/><text fill="#000000" font-family="sans-serif" font-size="20" font-style="italic" lengthAdjust="spacing" textLength="95" x="1243" y="2092.3457">«service»</text><text fill="#000000" font-family="sans-serif" font-size="20" lengthAdjust="spacing" textLength="167" x="1207" y="2115.627">ListBoardService</text><rect fill="#E2E2F0" height="60.5625" rx="2.5" ry="2.5" style="stroke:#181818;stroke-width:0.5;" width="178" x="1391" y="36"/><text fill="#000000" font-family="sans-serif" font-size="20" font-style="italic" lengthAdjust="spacing" textLength="95" x="1432.5" y="61.5645">«service»</text><text fill="#000000" font-family="sans-serif" font-size="20" lengthAdjust="spacing" textLength="164" x="1398" y="84.8457">ListPostItService</text><rect fill="#E2E2F0" height="60.5625" rx="2.5" ry="2.5" style="stroke:#181818;stroke-width:0.5;" width="178" x="1391" y="2066.7813"/><text fill="#000000" font-family="sans-serif" font-size="20" font-style="italic" lengthAdjust="spacing" textLength="95" x="1432.5" y="2092.3457">«service»</text><text fill="#000000" font-family="sans-serif" font-size="20" lengthAdjust="spacing" textLength="164" x="1398" y="2115.627">ListPostItService</text><rect fill="#E2E2F0" height="60.5625" rx="2.5" ry="2.5" style="stroke:#181818;stroke-width:0.5;" width="146" x="1579" y="36"/><text fill="#000000" font-family="sans-serif" font-size="20" font-style="italic" lengthAdjust="spacing" textLength="95" x="1604.5" y="61.5645">«service»</text><text fill="#000000" font-family="sans-serif" font-size="20" lengthAdjust="spacing" textLength="132" x="1586" y="84.8457">BoardService</text><rect fill="#E2E2F0" height="60.5625" rx="2.5" ry="2.5" style="stroke:#181818;stroke-width:0.5;" width="146" x="1579" y="2066.7813"/><text fill="#000000" font-family="sans-serif" font-size="20" font-style="italic" lengthAdjust="spacing" textLength="95" x="1604.5" y="2092.3457">«service»</text><text fill="#000000" font-family="sans-serif" font-size="20" lengthAdjust="spacing" textLength="132" x="1586" y="2115.627">BoardService</text><rect fill="#E2E2F0" height="60.5625" rx="2.5" ry="2.5" style="stroke:#181818;stroke-width:0.5;" width="114" x="1948" y="36"/><text fill="#000000" font-family="sans-serif" font-size="20" font-style="italic" lengthAdjust="spacing" textLength="100" x="1955" y="61.5645">«domain»</text><text fill="#000000" font-family="sans-serif" font-size="20" lengthAdjust="spacing" textLength="59" x="1975.5" y="84.8457">Board</text><rect fill="#E2E2F0" height="60.5625" rx="2.5" ry="2.5" style="stroke:#181818;stroke-width:0.5;" width="114" x="1948" y="2066.7813"/><text fill="#000000" font-family="sans-serif" font-size="20" font-style="italic" lengthAdjust="spacing" textLength="100" x="1955" y="2092.3457">«domain»</text><text fill="#000000" font-family="sans-serif" font-size="20" lengthAdjust="spacing" textLength="59" x="1975.5" y="2115.627">Board</text><rect fill="#E2E2F0" height="60.5625" rx="2.5" ry="2.5" style="stroke:#181818;stroke-width:0.5;" width="114" x="2072" y="36"/><text fill="#000000" font-family="sans-serif" font-size="20" font-style="italic" lengthAdjust="spacing" textLength="100" x="2079" y="61.5645">«domain»</text><text fill="#000000" font-family="sans-serif" font-size="20" lengthAdjust="spacing" textLength="56" x="2101" y="84.8457">PostIt</text><rect fill="#E2E2F0" height="60.5625" rx="2.5" ry="2.5" style="stroke:#181818;stroke-width:0.5;" width="114" x="2072" y="2066.7813"/><text fill="#000000" font-family="sans-serif" font-size="20" font-style="italic" lengthAdjust="spacing" textLength="100" x="2079" y="2092.3457">«domain»</text><text fill="#000000" font-family="sans-serif" font-size="20" lengthAdjust="spacing" textLength="56" x="2101" y="2115.627">PostIt</text><rect fill="#E2E2F0" height="60.5625" rx="2.5" ry="2.5" style="stroke:#181818;stroke-width:0.5;" width="116" x="2196" y="36"/><text fill="#000000" font-family="sans-serif" font-size="20" font-style="italic" lengthAdjust="spacing" textLength="57" x="2225.5" y="61.5645">«dto»</text><text fill="#000000" font-family="sans-serif" font-size="20" lengthAdjust="spacing" textLength="102" x="2203" y="84.8457">BoardDTO</text><rect fill="#E2E2F0" height="60.5625" rx="2.5" ry="2.5" style="stroke:#181818;stroke-width:0.5;" width="116" x="2196" y="2066.7813"/><text fill="#000000" font-family="sans-serif" font-size="20" font-style="italic" lengthAdjust="spacing" textLength="57" x="2225.5" y="2092.3457">«dto»</text><text fill="#000000" font-family="sans-serif" font-size="20" lengthAdjust="spacing" textLength="102" x="2203" y="2115.627">BoardDTO</text><rect fill="#E2E2F0" height="60.5625" rx="2.5" ry="2.5" style="stroke:#181818;stroke-width:0.5;" width="113" x="2322" y="36"/><text fill="#000000" font-family="sans-serif" font-size="20" font-style="italic" lengthAdjust="spacing" textLength="57" x="2350" y="61.5645">«dto»</text><text fill="#000000" font-family="sans-serif" font-size="20" lengthAdjust="spacing" textLength="99" x="2329" y="84.8457">PostItDTO</text><rect fill="#E2E2F0" height="60.5625" rx="2.5" ry="2.5" style="stroke:#181818;stroke-width:0.5;" width="113" x="2322" y="2066.7813"/><text fill="#000000" font-family="sans-serif" font-size="20" font-style="italic" lengthAdjust="spacing" textLength="57" x="2350" y="2092.3457">«dto»</text><text fill="#000000" font-family="sans-serif" font-size="20" lengthAdjust="spacing" textLength="99" x="2329" y="2115.627">PostItDTO</text><text fill="#000000" font-family="sans-serif" font-size="20" font-style="italic" lengthAdjust="spacing" textLength="125" x="2465" y="69.5645">«repository»</text><text fill="#000000" font-family="sans-serif" font-size="20" lengthAdjust="spacing" textLength="165" x="2445" y="92.8457">BoardRepository</text><path d="M2512.5,15 C2512.5,5 2530.5,5 2530.5,5 C2530.5,5 2548.5,5 2548.5,15 L2548.5,41 C2548.5,51 2530.5,51 2530.5,51 C2530.5,51 2512.5,51 2512.5,41 L2512.5,15 " fill="#E2E2F0" style="stroke:#181818;stroke-width:1.5;"/><path d="M2512.5,15 C2512.5,25 2530.5,25 2530.5,25 C2530.5,25 2548.5,25 2548.5,15 " fill="none" style="stroke:#181818;stroke-width:1.5;"/><text fill="#000000" font-family="sans-serif" font-size="20" font-style="italic" lengthAdjust="spacing" textLength="125" x="2465" y="2085.3457">«repository»</text><text fill="#000000" font-family="sans-serif" font-size="20" lengthAdjust="spacing" textLength="165" x="2445" y="2108.627">BoardRepository</text><path d="M2512.5,2123.3438 C2512.5,2113.3438 2530.5,2113.3438 2530.5,2113.3438 C2530.5,2113.3438 2548.5,2113.3438 2548.5,2123.3438 L2548.5,2149.3438 C2548.5,2159.3438 2530.5,2159.3438 2530.5,2159.3438 C2530.5,2159.3438 2512.5,2159.3438 2512.5,2149.3438 L2512.5,2123.3438 " fill="#E2E2F0" style="stroke:#181818;stroke-width:1.5;"/><path d="M2512.5,2123.3438 C2512.5,2133.3438 2530.5,2133.3438 2530.5,2133.3438 C2530.5,2133.3438 2548.5,2133.3438 2548.5,2123.3438 " fill="none" style="stroke:#181818;stroke-width:1.5;"/><text fill="#000000" font-family="sans-serif" font-size="20" font-style="italic" lengthAdjust="spacing" textLength="125" x="2644.5" y="69.5645">«repository»</text><text fill="#000000" font-family="sans-serif" font-size="20" lengthAdjust="spacing" textLength="162" x="2626" y="92.8457">PostItRepository</text><path d="M2692,15 C2692,5 2710,5 2710,5 C2710,5 2728,5 2728,15 L2728,41 C2728,51 2710,51 2710,51 C2710,51 2692,51 2692,41 L2692,15 " fill="#E2E2F0" style="stroke:#181818;stroke-width:1.5;"/><path d="M2692,15 C2692,25 2710,25 2710,25 C2710,25 2728,25 2728,15 " fill="none" style="stroke:#181818;stroke-width:1.5;"/><text fill="#000000" font-family="sans-serif" font-size="20" font-style="italic" lengthAdjust="spacing" textLength="125" x="2644.5" y="2085.3457">«repository»</text><text fill="#000000" font-family="sans-serif" font-size="20" lengthAdjust="spacing" textLength="162" x="2626" y="2108.627">PostItRepository</text><path d="M2692,2123.3438 C2692,2113.3438 2710,2113.3438 2710,2113.3438 C2710,2113.3438 2728,2113.3438 2728,2123.3438 L2728,2149.3438 C2728,2159.3438 2710,2159.3438 2710,2159.3438 C2710,2159.3438 2692,2159.3438 2692,2149.3438 L2692,2123.3438 " fill="#E2E2F0" style="stroke:#181818;stroke-width:1.5;"/><path d="M2692,2123.3438 C2692,2133.3438 2710,2133.3438 2710,2133.3438 C2710,2133.3438 2728,2133.3438 2728,2123.3438 " fill="none" style="stroke:#181818;stroke-width:1.5;"/><rect fill="#FFFFFF" height="1942.2188" style="stroke:#181818;stroke-width:1.0;" width="10" x="25.5" y="107.5625"/><rect fill="#FFFFFF" height="517.6563" style="stroke:#181818;stroke-width:1.0;" width="10" x="458.5" y="136.8438"/><rect fill="#FFFFFF" height="480.375" style="stroke:#181818;stroke-width:1.0;" width="10" x="458.5" y="691.7813"/><rect fill="#FFFFFF" height="37.2813" style="stroke:#181818;stroke-width:1.0;" width="10" x="458.5" y="1209.4375"/><rect fill="#FFFFFF" height="431.8125" style="stroke:#181818;stroke-width:1.0;" width="10" x="458.5" y="1284"/><rect fill="#FFFFFF" height="296.6875" style="stroke:#181818;stroke-width:1.0;" width="10" x="458.5" y="1753.0938"/><rect fill="#FFFFFF" height="443.0938" style="stroke:#181818;stroke-width:1.0;" width="10" x="925.5" y="174.125"/><rect fill="#FFFFFF" height="405.8125" style="stroke:#181818;stroke-width:1.0;" width="10" x="925.5" y="729.0625"/><rect fill="#FFFFFF" height="357.25" style="stroke:#181818;stroke-width:1.0;" width="10" x="925.5" y="1321.2813"/><rect fill="#FFFFFF" height="222.125" style="stroke:#181818;stroke-width:1.0;" width="10" x="925.5" y="1790.375"/><rect fill="#FFFFFF" height="72.2813" style="stroke:#181818;stroke-width:1.0;" width="10" x="930.5" y="1902.9375"/><rect fill="#FFFFFF" height="30" style="stroke:#181818;stroke-width:1.0;" width="10" x="1285.5" y="211.4063"/><rect fill="#FFFFFF" height="263.9688" style="stroke:#181818;stroke-width:1.0;" width="10" x="1285.5" y="315.9688"/><rect fill="#FFFFFF" height="30" style="stroke:#181818;stroke-width:1.0;" width="10" x="1475" y="766.3438"/><rect fill="#FFFFFF" height="263.9688" style="stroke:#181818;stroke-width:1.0;" width="10" x="1475" y="833.625"/><rect fill="#FFFFFF" height="30" style="stroke:#181818;stroke-width:1.0;" width="10" x="1647" y="1358.5625"/><rect fill="#FFFFFF" height="215.4063" style="stroke:#181818;stroke-width:1.0;" width="10" x="1647" y="1425.8438"/><rect fill="#FFFFFF" height="28" style="stroke:#181818;stroke-width:1.0;" width="10" x="1652" y="1568.9688"/><rect fill="#FFFFFF" height="67.2813" style="stroke:#181818;stroke-width:1.0;" width="10" x="2000" y="468.375"/><rect fill="#FFFFFF" height="67.2813" style="stroke:#181818;stroke-width:1.0;" width="10" x="2124" y="986.0313"/><rect fill="#FFFFFF" height="30" style="stroke:#181818;stroke-width:1.0;" width="10" x="2124" y="1827.6563"/><rect fill="#FFFFFF" height="30" style="stroke:#181818;stroke-width:1.0;" width="10" x="2249" y="505.6563"/><rect fill="#FFFFFF" height="30" style="stroke:#181818;stroke-width:1.0;" width="10" x="2373.5" y="1023.3125"/><rect fill="#FFFFFF" height="37.2813" style="stroke:#181818;stroke-width:1.0;" width="10" x="2525.5" y="353.25"/><rect fill="#FFFFFF" height="37.2813" style="stroke:#181818;stroke-width:1.0;" width="10" x="2705" y="870.9063"/><rect fill="#FFFFFF" height="37.2813" style="stroke:#181818;stroke-width:1.0;" width="10" x="2705" y="1486.4063"/><rect fill="#FFFFFF" height="30" style="stroke:#181818;stroke-width:1.0;" width="10" x="2705" y="1945.2188"/><polygon fill="#181818" points="446.5,132.8438,456.5,136.8438,446.5,140.8438,450.5,136.8438" style="stroke:#181818;stroke-width:1.0;"/><line style="stroke:#181818;stroke-width:1.0;" x1="35.5" x2="452.5" y1="136.8438" y2="136.8438"/><text fill="#000000" font-family="sans-serif" font-size="20" font-weight="bold" lengthAdjust="spacing" textLength="14" x="42.5" y="130.127">1</text><text fill="#000000" font-family="sans-serif" font-size="20" lengthAdjust="spacing" textLength="227" x="60.5" y="130.127">asks to create a post-it</text><polygon fill="#181818" points="913.5,170.125,923.5,174.125,913.5,178.125,917.5,174.125" style="stroke:#181818;stroke-width:1.0;"/><line style="stroke:#181818;stroke-width:1.0;" x1="468.5" x2="919.5" y1="174.125" y2="174.125"/><text fill="#000000" font-family="sans-serif" font-size="20" font-weight="bold" lengthAdjust="spacing" textLength="14" x="475.5" y="167.4082">2</text><text fill="#000000" font-family="sans-serif" font-size="20" lengthAdjust="spacing" textLength="397" x="493.5" y="167.4082">new(boardRepository, postItRepository)</text><polygon fill="#181818" points="1273.5,207.4063,1283.5,211.4063,1273.5,215.4063,1277.5,211.4063" style="stroke:#181818;stroke-width:1.0;"/><line style="stroke:#181818;stroke-width:1.0;" x1="935.5" x2="1279.5" y1="211.4063" y2="211.4063"/><text fill="#000000" font-family="sans-serif" font-size="20" font-weight="bold" lengthAdjust="spacing" textLength="14" x="942.5" y="204.6895">3</text><text fill="#000000" font-family="sans-serif" font-size="20" lengthAdjust="spacing" textLength="222" x="960.5" y="204.6895">new(boardRepository)</text><polygon fill="#181818" points="913.5,274.6875,923.5,278.6875,913.5,282.6875,917.5,278.6875" style="stroke:#181818;stroke-width:1.0;"/><line style="stroke:#181818;stroke-width:1.0;" x1="468.5" x2="919.5" y1="278.6875" y2="278.6875"/><text fill="#000000" font-family="sans-serif" font-size="20" font-weight="bold" lengthAdjust="spacing" textLength="14" x="475.5" y="271.9707">4</text><text fill="#000000" font-family="sans-serif" font-size="20" lengthAdjust="spacing" textLength="245" x="493.5" y="271.9707">listUserWritableBoards()</text><polygon fill="#181818" points="1273.5,311.9688,1283.5,315.9688,1273.5,319.9688,1277.5,315.9688" style="stroke:#181818;stroke-width:1.0;"/><line style="stroke:#181818;stroke-width:1.0;" x1="935.5" x2="1279.5" y1="315.9688" y2="315.9688"/><text fill="#000000" font-family="sans-serif" font-size="20" font-weight="bold" lengthAdjust="spacing" textLength="14" x="942.5" y="309.252">5</text><text fill="#000000" font-family="sans-serif" font-size="20" lengthAdjust="spacing" textLength="313" x="960.5" y="309.252">userWritableBoards(username)</text><polygon fill="#181818" points="2513.5,349.25,2523.5,353.25,2513.5,357.25,2517.5,353.25" style="stroke:#181818;stroke-width:1.0;"/><line style="stroke:#181818;stroke-width:1.0;" x1="1295.5" x2="2519.5" y1="353.25" y2="353.25"/><text fill="#000000" font-family="sans-serif" font-size="20" font-weight="bold" lengthAdjust="spacing" textLength="14" x="1302.5" y="346.5332">6</text><text fill="#000000" font-family="sans-serif" font-size="20" lengthAdjust="spacing" textLength="567" x="1320.5" y="346.5332">findAllActiveBoardsWithUserWritePermission(username)</text><polygon fill="#181818" points="1306.5,386.5313,1296.5,390.5313,1306.5,394.5313,1302.5,390.5313" style="stroke:#181818;stroke-width:1.0;"/><line style="stroke:#181818;stroke-width:1.0;stroke-dasharray:2.0,2.0;" x1="1300.5" x2="2529.5" y1="390.5313" y2="390.5313"/><text fill="#000000" font-family="sans-serif" font-size="20" font-weight="bold" lengthAdjust="spacing" textLength="14" x="1312.5" y="383.8145">7</text><text fill="#000000" font-family="sans-serif" font-size="20" lengthAdjust="spacing" textLength="68" x="1330.5" y="383.8145">boards</text><path d="M1190,405.5313 L1284,405.5313 L1284,420.8125 L1274,430.8125 L1190,430.8125 L1190,405.5313 " fill="#EEEEEE" style="stroke:#000000;stroke-width:1.5;"/><rect fill="none" height="138.125" style="stroke:#000000;stroke-width:1.5;" width="1132" x="1190" y="405.5313"/><text fill="#000000" font-family="sans-serif" font-size="20" font-weight="bold" lengthAdjust="spacing" textLength="49" x="1205" y="425.0957">loop</text><text fill="#000000" font-family="sans-serif" font-size="20" font-weight="bold" lengthAdjust="spacing" textLength="185" x="1299" y="426.0957">[for each board]</text><polygon fill="#181818" points="1988,464.375,1998,468.375,1988,472.375,1992,468.375" style="stroke:#181818;stroke-width:1.0;"/><line style="stroke:#181818;stroke-width:1.0;" x1="1295.5" x2="1994" y1="468.375" y2="468.375"/><text fill="#000000" font-family="sans-serif" font-size="20" font-weight="bold" lengthAdjust="spacing" textLength="14" x="1302.5" y="461.6582">8</text><text fill="#000000" font-family="sans-serif" font-size="20" lengthAdjust="spacing" textLength="137" x="1320.5" y="461.6582">toDTO(board)</text><polygon fill="#181818" points="2237,501.6563,2247,505.6563,2237,509.6563,2241,505.6563" style="stroke:#181818;stroke-width:1.0;"/><line style="stroke:#181818;stroke-width:1.0;" x1="2010" x2="2243" y1="505.6563" y2="505.6563"/><text fill="#000000" font-family="sans-serif" font-size="20" font-weight="bold" lengthAdjust="spacing" textLength="14" x="2017" y="498.9395">9</text><text fill="#000000" font-family="sans-serif" font-size="20" lengthAdjust="spacing" textLength="58" x="2035" y="498.9395">new()</text><polygon fill="#181818" points="946.5,575.9375,936.5,579.9375,946.5,583.9375,942.5,579.9375" style="stroke:#181818;stroke-width:1.0;"/><line style="stroke:#181818;stroke-width:1.0;stroke-dasharray:2.0,2.0;" x1="940.5" x2="1289.5" y1="579.9375" y2="579.9375"/><text fill="#000000" font-family="sans-serif" font-size="20" font-weight="bold" lengthAdjust="spacing" textLength="28" x="952.5" y="573.2207">10</text><text fill="#000000" font-family="sans-serif" font-size="20" lengthAdjust="spacing" textLength="68" x="984.5" y="573.2207">boards</text><polygon fill="#181818" points="479.5,613.2188,469.5,617.2188,479.5,621.2188,475.5,617.2188" style="stroke:#181818;stroke-width:1.0;"/><line style="stroke:#181818;stroke-width:1.0;stroke-dasharray:2.0,2.0;" x1="473.5" x2="929.5" y1="617.2188" y2="617.2188"/><text fill="#000000" font-family="sans-serif" font-size="20" font-weight="bold" lengthAdjust="spacing" textLength="28" x="485.5" y="610.502">11</text><text fill="#000000" font-family="sans-serif" font-size="20" lengthAdjust="spacing" textLength="68" x="517.5" y="610.502">boards</text><polygon fill="#181818" points="46.5,650.5,36.5,654.5,46.5,658.5,42.5,654.5" style="stroke:#181818;stroke-width:1.0;"/><line style="stroke:#181818;stroke-width:1.0;stroke-dasharray:2.0,2.0;" x1="40.5" x2="462.5" y1="654.5" y2="654.5"/><text fill="#000000" font-family="sans-serif" font-size="20" font-weight="bold" lengthAdjust="spacing" textLength="28" x="52.5" y="647.7832">12</text><text fill="#000000" font-family="sans-serif" font-size="20" lengthAdjust="spacing" textLength="238" x="84.5" y="647.7832">asks to select the board</text><polygon fill="#181818" points="446.5,687.7813,456.5,691.7813,446.5,695.7813,450.5,691.7813" style="stroke:#181818;stroke-width:1.0;"/><line style="stroke:#181818;stroke-width:1.0;" x1="35.5" x2="452.5" y1="691.7813" y2="691.7813"/><text fill="#000000" font-family="sans-serif" font-size="20" font-weight="bold" lengthAdjust="spacing" textLength="28" x="42.5" y="685.0645">13</text><text fill="#000000" font-family="sans-serif" font-size="20" lengthAdjust="spacing" textLength="172" x="74.5" y="685.0645">selects the board</text><polygon fill="#181818" points="913.5,725.0625,923.5,729.0625,913.5,733.0625,917.5,729.0625" style="stroke:#181818;stroke-width:1.0;"/><line style="stroke:#181818;stroke-width:1.0;" x1="468.5" x2="919.5" y1="729.0625" y2="729.0625"/><text fill="#000000" font-family="sans-serif" font-size="20" font-weight="bold" lengthAdjust="spacing" textLength="28" x="475.5" y="722.3457">14</text><text fill="#000000" font-family="sans-serif" font-size="20" lengthAdjust="spacing" textLength="397" x="507.5" y="722.3457">listBoardPostItsCreatedByUser(boardId)</text><polygon fill="#181818" points="1463,762.3438,1473,766.3438,1463,770.3438,1467,766.3438" style="stroke:#181818;stroke-width:1.0;"/><line style="stroke:#181818;stroke-width:1.0;" x1="935.5" x2="1469" y1="766.3438" y2="766.3438"/><text fill="#000000" font-family="sans-serif" font-size="20" font-weight="bold" lengthAdjust="spacing" textLength="28" x="942.5" y="759.627">15</text><text fill="#000000" font-family="sans-serif" font-size="20" lengthAdjust="spacing" textLength="221" x="974.5" y="759.627">new(postItRepository)</text><polygon fill="#181818" points="1463,829.625,1473,833.625,1463,837.625,1467,833.625" style="stroke:#181818;stroke-width:1.0;"/><line style="stroke:#181818;stroke-width:1.0;" x1="935.5" x2="1469" y1="833.625" y2="833.625"/><text fill="#000000" font-family="sans-serif" font-size="20" font-weight="bold" lengthAdjust="spacing" textLength="28" x="942.5" y="826.9082">16</text><text fill="#000000" font-family="sans-serif" font-size="20" lengthAdjust="spacing" textLength="418" x="974.5" y="826.9082">userUpdatablePostIts(boardId, username)</text><polygon fill="#181818" points="2693,866.9063,2703,870.9063,2693,874.9063,2697,870.9063" style="stroke:#181818;stroke-width:1.0;"/><line style="stroke:#181818;stroke-width:1.0;" x1="1485" x2="2699" y1="870.9063" y2="870.9063"/><text fill="#000000" font-family="sans-serif" font-size="20" font-weight="bold" lengthAdjust="spacing" textLength="28" x="1492" y="864.1895">17</text><text fill="#000000" font-family="sans-serif" font-size="20" lengthAdjust="spacing" textLength="530" x="1524" y="864.1895">findLastestPostItsCreatedByUser(boardId, username)</text><polygon fill="#181818" points="1496,904.1875,1486,908.1875,1496,912.1875,1492,908.1875" style="stroke:#181818;stroke-width:1.0;"/><line style="stroke:#181818;stroke-width:1.0;stroke-dasharray:2.0,2.0;" x1="1490" x2="2709" y1="908.1875" y2="908.1875"/><text fill="#000000" font-family="sans-serif" font-size="20" font-weight="bold" lengthAdjust="spacing" textLength="28" x="1502" y="901.4707">18</text><text fill="#000000" font-family="sans-serif" font-size="20" lengthAdjust="spacing" textLength="67" x="1534" y="901.4707">postIts</text><path d="M1381,923.1875 L1475,923.1875 L1475,938.4688 L1465,948.4688 L1381,948.4688 L1381,923.1875 " fill="#EEEEEE" style="stroke:#000000;stroke-width:1.5;"/><rect fill="none" height="138.125" style="stroke:#000000;stroke-width:1.5;" width="1064" x="1381" y="923.1875"/><text fill="#000000" font-family="sans-serif" font-size="20" font-weight="bold" lengthAdjust="spacing" textLength="49" x="1396" y="942.752">loop</text><text fill="#000000" font-family="sans-serif" font-size="20" font-weight="bold" lengthAdjust="spacing" textLength="186" x="1490" y="943.752">[for each postIt]</text><polygon fill="#181818" points="2112,982.0313,2122,986.0313,2112,990.0313,2116,986.0313" style="stroke:#181818;stroke-width:1.0;"/><line style="stroke:#181818;stroke-width:1.0;" x1="1485" x2="2118" y1="986.0313" y2="986.0313"/><text fill="#000000" font-family="sans-serif" font-size="20" font-weight="bold" lengthAdjust="spacing" textLength="28" x="1492" y="979.3145">19</text><text fill="#000000" font-family="sans-serif" font-size="20" lengthAdjust="spacing" textLength="136" x="1524" y="979.3145">toDTO(postIt)</text><polygon fill="#181818" points="2361.5,1019.3125,2371.5,1023.3125,2361.5,1027.3125,2365.5,1023.3125" style="stroke:#181818;stroke-width:1.0;"/><line style="stroke:#181818;stroke-width:1.0;" x1="2134" x2="2367.5" y1="1023.3125" y2="1023.3125"/><text fill="#000000" font-family="sans-serif" font-size="20" font-weight="bold" lengthAdjust="spacing" textLength="28" x="2141" y="1016.5957">20</text><text fill="#000000" font-family="sans-serif" font-size="20" lengthAdjust="spacing" textLength="58" x="2173" y="1016.5957">new()</text><polygon fill="#181818" points="946.5,1093.5938,936.5,1097.5938,946.5,1101.5938,942.5,1097.5938" style="stroke:#181818;stroke-width:1.0;"/><line style="stroke:#181818;stroke-width:1.0;stroke-dasharray:2.0,2.0;" x1="940.5" x2="1479" y1="1097.5938" y2="1097.5938"/><text fill="#000000" font-family="sans-serif" font-size="20" font-weight="bold" lengthAdjust="spacing" textLength="28" x="952.5" y="1090.877">21</text><text fill="#000000" font-family="sans-serif" font-size="20" lengthAdjust="spacing" textLength="67" x="984.5" y="1090.877">postIts</text><polygon fill="#181818" points="479.5,1130.875,469.5,1134.875,479.5,1138.875,475.5,1134.875" style="stroke:#181818;stroke-width:1.0;"/><line style="stroke:#181818;stroke-width:1.0;stroke-dasharray:2.0,2.0;" x1="473.5" x2="929.5" y1="1134.875" y2="1134.875"/><text fill="#000000" font-family="sans-serif" font-size="20" font-weight="bold" lengthAdjust="spacing" textLength="28" x="485.5" y="1128.1582">22</text><text fill="#000000" font-family="sans-serif" font-size="20" lengthAdjust="spacing" textLength="67" x="517.5" y="1128.1582">postIts</text><polygon fill="#181818" points="46.5,1168.1563,36.5,1172.1563,46.5,1176.1563,42.5,1172.1563" style="stroke:#181818;stroke-width:1.0;"/><line style="stroke:#181818;stroke-width:1.0;stroke-dasharray:2.0,2.0;" x1="40.5" x2="462.5" y1="1172.1563" y2="1172.1563"/><text fill="#000000" font-family="sans-serif" font-size="20" font-weight="bold" lengthAdjust="spacing" textLength="28" x="52.5" y="1165.4395">23</text><text fill="#000000" font-family="sans-serif" font-size="20" lengthAdjust="spacing" textLength="238" x="84.5" y="1165.4395">asks to select the board</text><polygon fill="#181818" points="446.5,1205.4375,456.5,1209.4375,446.5,1213.4375,450.5,1209.4375" style="stroke:#181818;stroke-width:1.0;"/><line style="stroke:#181818;stroke-width:1.0;" x1="35.5" x2="452.5" y1="1209.4375" y2="1209.4375"/><text fill="#000000" font-family="sans-serif" font-size="20" font-weight="bold" lengthAdjust="spacing" textLength="28" x="42.5" y="1202.7207">24</text><text fill="#000000" font-family="sans-serif" font-size="20" lengthAdjust="spacing" textLength="172" x="74.5" y="1202.7207">selects the board</text><polygon fill="#181818" points="46.5,1242.7188,36.5,1246.7188,46.5,1250.7188,42.5,1246.7188" style="stroke:#181818;stroke-width:1.0;"/><line style="stroke:#181818;stroke-width:1.0;stroke-dasharray:2.0,2.0;" x1="40.5" x2="462.5" y1="1246.7188" y2="1246.7188"/><text fill="#000000" font-family="sans-serif" font-size="20" font-weight="bold" lengthAdjust="spacing" textLength="28" x="52.5" y="1240.002">25</text><text fill="#000000" font-family="sans-serif" font-size="20" lengthAdjust="spacing" textLength="367" x="84.5" y="1240.002">asks to select the post-it coordinates</text><polygon fill="#181818" points="446.5,1280,456.5,1284,446.5,1288,450.5,1284" style="stroke:#181818;stroke-width:1.0;"/><line style="stroke:#181818;stroke-width:1.0;" x1="35.5" x2="452.5" y1="1284" y2="1284"/><text fill="#000000" font-family="sans-serif" font-size="20" font-weight="bold" lengthAdjust="spacing" textLength="28" x="42.5" y="1277.2832">26</text><text fill="#000000" font-family="sans-serif" font-size="20" lengthAdjust="spacing" textLength="301" x="74.5" y="1277.2832">selects the post-it coordinates</text><polygon fill="#181818" points="913.5,1317.2813,923.5,1321.2813,913.5,1325.2813,917.5,1321.2813" style="stroke:#181818;stroke-width:1.0;"/><line style="stroke:#181818;stroke-width:1.0;" x1="468.5" x2="919.5" y1="1321.2813" y2="1321.2813"/><text fill="#000000" font-family="sans-serif" font-size="20" font-weight="bold" lengthAdjust="spacing" textLength="28" x="475.5" y="1314.5645">27</text><text fill="#000000" font-family="sans-serif" font-size="20" lengthAdjust="spacing" textLength="339" x="507.5" y="1314.5645">validateCoordinates(boardId, x, y)</text><polygon fill="#181818" points="1635,1354.5625,1645,1358.5625,1635,1362.5625,1639,1358.5625" style="stroke:#181818;stroke-width:1.0;"/><line style="stroke:#181818;stroke-width:1.0;" x1="935.5" x2="1641" y1="1358.5625" y2="1358.5625"/><text fill="#000000" font-family="sans-serif" font-size="20" font-weight="bold" lengthAdjust="spacing" textLength="28" x="942.5" y="1351.8457">28</text><text fill="#000000" font-family="sans-serif" font-size="20" lengthAdjust="spacing" textLength="221" x="974.5" y="1351.8457">new(postItRepository)</text><polygon fill="#181818" points="1635,1421.8438,1645,1425.8438,1635,1429.8438,1639,1425.8438" style="stroke:#181818;stroke-width:1.0;"/><line style="stroke:#181818;stroke-width:1.0;" x1="935.5" x2="1641" y1="1425.8438" y2="1425.8438"/><text fill="#000000" font-family="sans-serif" font-size="20" font-weight="bold" lengthAdjust="spacing" textLength="28" x="942.5" y="1419.127">29</text><text fill="#000000" font-family="sans-serif" font-size="20" lengthAdjust="spacing" textLength="379" x="974.5" y="1419.127">isCellAvailable(BoardID id, int x, int y)</text><polygon fill="#181818" points="2693,1482.4063,2703,1486.4063,2693,1490.4063,2697,1486.4063" style="stroke:#181818;stroke-width:1.0;"/><line style="stroke:#181818;stroke-width:1.0;" x1="1657" x2="2699" y1="1486.4063" y2="1486.4063"/><text fill="#000000" font-family="sans-serif" font-size="20" font-weight="bold" lengthAdjust="spacing" textLength="28" x="1664" y="1468.0488">30</text><text fill="#000000" font-family="sans-serif" font-size="20" lengthAdjust="spacing" textLength="145" x="1696" y="1456.4082">latestPostIts =</text><text fill="#000000" font-family="sans-serif" font-size="20" lengthAdjust="spacing" textLength="350" x="1696" y="1479.6895">findLatestVersionOfBoard(boardId)</text><polygon fill="#181818" points="1668,1519.6875,1658,1523.6875,1668,1527.6875,1664,1523.6875" style="stroke:#181818;stroke-width:1.0;"/><line style="stroke:#181818;stroke-width:1.0;stroke-dasharray:2.0,2.0;" x1="1662" x2="2709" y1="1523.6875" y2="1523.6875"/><text fill="#000000" font-family="sans-serif" font-size="20" font-weight="bold" lengthAdjust="spacing" textLength="28" x="1674" y="1516.9707">31</text><text fill="#000000" font-family="sans-serif" font-size="20" lengthAdjust="spacing" textLength="67" x="1706" y="1516.9707">postIts</text><line style="stroke:#181818;stroke-width:1.0;" x1="1662" x2="1704" y1="1560.9688" y2="1560.9688"/><line style="stroke:#181818;stroke-width:1.0;" x1="1704" x2="1704" y1="1560.9688" y2="1573.9688"/><line style="stroke:#181818;stroke-width:1.0;" x1="1663" x2="1704" y1="1573.9688" y2="1573.9688"/><polygon fill="#181818" points="1673,1569.9688,1663,1573.9688,1673,1577.9688,1669,1573.9688" style="stroke:#181818;stroke-width:1.0;"/><text fill="#000000" font-family="sans-serif" font-size="20" font-weight="bold" lengthAdjust="spacing" textLength="28" x="1669" y="1554.252">32</text><text fill="#000000" font-family="sans-serif" font-size="20" lengthAdjust="spacing" textLength="297" x="1701" y="1554.252">existsPostIt(latestPostIts, x, y)</text><polygon fill="#181818" points="946.5,1637.25,936.5,1641.25,946.5,1645.25,942.5,1641.25" style="stroke:#181818;stroke-width:1.0;"/><line style="stroke:#181818;stroke-width:1.0;stroke-dasharray:2.0,2.0;" x1="940.5" x2="1651" y1="1641.25" y2="1641.25"/><text fill="#000000" font-family="sans-serif" font-size="20" font-weight="bold" lengthAdjust="spacing" textLength="28" x="952.5" y="1634.5332">33</text><text fill="#000000" font-family="sans-serif" font-size="20" lengthAdjust="spacing" textLength="47" x="984.5" y="1634.5332">false</text><polygon fill="#181818" points="479.5,1674.5313,469.5,1678.5313,479.5,1682.5313,475.5,1678.5313" style="stroke:#181818;stroke-width:1.0;"/><line style="stroke:#181818;stroke-width:1.0;stroke-dasharray:2.0,2.0;" x1="473.5" x2="929.5" y1="1678.5313" y2="1678.5313"/><text fill="#000000" font-family="sans-serif" font-size="20" font-weight="bold" lengthAdjust="spacing" textLength="28" x="485.5" y="1671.8145">34</text><text fill="#000000" font-family="sans-serif" font-size="20" lengthAdjust="spacing" textLength="41" x="517.5" y="1671.8145">true</text><polygon fill="#181818" points="46.5,1711.8125,36.5,1715.8125,46.5,1719.8125,42.5,1715.8125" style="stroke:#181818;stroke-width:1.0;"/><line style="stroke:#181818;stroke-width:1.0;stroke-dasharray:2.0,2.0;" x1="40.5" x2="462.5" y1="1715.8125" y2="1715.8125"/><text fill="#000000" font-family="sans-serif" font-size="20" font-weight="bold" lengthAdjust="spacing" textLength="28" x="52.5" y="1709.0957">35</text><text fill="#000000" font-family="sans-serif" font-size="20" lengthAdjust="spacing" textLength="348" x="84.5" y="1709.0957">asks to enter the title of the post-it</text><polygon fill="#181818" points="446.5,1749.0938,456.5,1753.0938,446.5,1757.0938,450.5,1753.0938" style="stroke:#181818;stroke-width:1.0;"/><line style="stroke:#181818;stroke-width:1.0;stroke-dasharray:2.0,2.0;" x1="35.5" x2="452.5" y1="1753.0938" y2="1753.0938"/><text fill="#000000" font-family="sans-serif" font-size="20" font-weight="bold" lengthAdjust="spacing" textLength="28" x="42.5" y="1746.377">36</text><text fill="#000000" font-family="sans-serif" font-size="20" lengthAdjust="spacing" textLength="282" x="74.5" y="1746.377">enters the title of the post-it</text><polygon fill="#181818" points="913.5,1786.375,923.5,1790.375,913.5,1794.375,917.5,1790.375" style="stroke:#181818;stroke-width:1.0;"/><line style="stroke:#181818;stroke-width:1.0;" x1="468.5" x2="919.5" y1="1790.375" y2="1790.375"/><text fill="#000000" font-family="sans-serif" font-size="20" font-weight="bold" lengthAdjust="spacing" textLength="28" x="475.5" y="1783.6582">37</text><text fill="#000000" font-family="sans-serif" font-size="20" lengthAdjust="spacing" textLength="406" x="507.5" y="1783.6582">updatePostIt(boardId, postItId, x, y, title)</text><polygon fill="#181818" points="2112,1823.6563,2122,1827.6563,2112,1831.6563,2116,1827.6563" style="stroke:#181818;stroke-width:1.0;"/><line style="stroke:#181818;stroke-width:1.0;" x1="935.5" x2="2118" y1="1827.6563" y2="1827.6563"/><text fill="#000000" font-family="sans-serif" font-size="20" font-weight="bold" lengthAdjust="spacing" textLength="28" x="942.5" y="1820.9395">38</text><text fill="#000000" font-family="sans-serif" font-size="20" lengthAdjust="spacing" textLength="300" x="974.5" y="1820.9395">newPostIt = update(title, x, y)</text><line style="stroke:#181818;stroke-width:1.0;" x1="935.5" x2="982.5" y1="1889.9375" y2="1889.9375"/><line style="stroke:#181818;stroke-width:1.0;" x1="982.5" x2="982.5" y1="1889.9375" y2="1902.9375"/><line style="stroke:#181818;stroke-width:1.0;" x1="941.5" x2="982.5" y1="1902.9375" y2="1902.9375"/><polygon fill="#181818" points="951.5,1898.9375,941.5,1902.9375,951.5,1906.9375,947.5,1902.9375" style="stroke:#181818;stroke-width:1.0;"/><text fill="#000000" font-family="sans-serif" font-size="20" font-weight="bold" lengthAdjust="spacing" textLength="28" x="947.5" y="1883.2207">39</text><text fill="#000000" font-family="sans-serif" font-size="20" lengthAdjust="spacing" textLength="174" x="979.5" y="1883.2207">savePostIt(postIt)</text><polygon fill="#181818" points="2693,1941.2188,2703,1945.2188,2693,1949.2188,2697,1945.2188" style="stroke:#181818;stroke-width:1.0;"/><line style="stroke:#181818;stroke-width:1.0;" x1="940.5" x2="2699" y1="1945.2188" y2="1945.2188"/><text fill="#000000" font-family="sans-serif" font-size="20" font-weight="bold" lengthAdjust="spacing" textLength="28" x="947.5" y="1938.502">40</text><text fill="#000000" font-family="sans-serif" font-size="20" lengthAdjust="spacing" textLength="117" x="979.5" y="1938.502">savePostIt()</text><polygon fill="#181818" points="479.5,2008.5,469.5,2012.5,479.5,2016.5,475.5,2012.5" style="stroke:#181818;stroke-width:1.0;"/><line style="stroke:#181818;stroke-width:1.0;stroke-dasharray:2.0,2.0;" x1="473.5" x2="929.5" y1="2012.5" y2="2012.5"/><text fill="#000000" font-family="sans-serif" font-size="20" font-weight="bold" lengthAdjust="spacing" textLength="28" x="485.5" y="2005.7832">41</text><text fill="#000000" font-family="sans-serif" font-size="20" lengthAdjust="spacing" textLength="77" x="517.5" y="2005.7832">success</text><polygon fill="#181818" points="41.5,2045.7813,31.5,2049.7813,41.5,2053.7813,37.5,2049.7813" style="stroke:#181818;stroke-width:1.0;"/><line style="stroke:#181818;stroke-width:1.0;stroke-dasharray:2.0,2.0;" x1="35.5" x2="462.5" y1="2049.7813" y2="2049.7813"/><text fill="#000000" font-family="sans-serif" font-size="20" font-weight="bold" lengthAdjust="spacing" textLength="28" x="47.5" y="2043.0645">42</text><text fill="#000000" font-family="sans-serif" font-size="20" lengthAdjust="spacing" textLength="261" x="79.5" y="2043.0645">informs operation success</text><!--SRC=[jPR1Jzim5CRl_YiiJaKgqhGZOaYaR5AbLbY5iiik9dbTBTmuifqEzjVlsKwQE74AbvsWplTzVdd- -RNcLPGLr_mWLVuA1IrWnsjfVwZIFeg_GBz-8RosggmFBw09uRbLcbvi3UWBoWrT4pHRaOkAbvPUBFQy_0rC6RkqswLNR9VqvgRIOA2qt0fLtjvEUnQuhLPIDkcBfyqAtRogfCYJvfKmDbDS5u-WZo87RrjbZvjdz9cmblA4xI8JEsiQRP9zB0yw51NgmCMezb235x59aG-wVte8MVYFKrgLpcfrhAyZ1RVyXHkWFci3bJ82J_7T9sw-kxtrQH4D9tq8ZGqiON1KY2EtW3YGDRswTOT-ZUfNGwsYkGRtZ5Eqs2jXE_bsIGXAqU1F-fgMy6Vs4bSvzxP-6PTTWBCHxyMCSEp9a9x5gqW1WuMe38c4ECH_Qe6jaE0RPsQNPBHNFLQvfP8VOBHdyA3PD_sQxaHPt4bvvrID-QUm-tPZOA0FmXYaFfNfGeXFkkhLuz_Rz5_FwuXKgg8xlBhuO1zKXDAk8hHQXTI4nbtYiou0FsHUvAWAxOq5k8wV-tkELmYK1NLLaBOFNRl7HOU6XMQtE8rL_lJzoQ5ctIFEW8JSKhk7vbLx9iTSnsXGcfvq6axPpffmByp2Srrax-x4GkEMnH3EZXZMqNc6Q2-BMk4NHZ6EY6tbhwfiXgTfQvZJ58C-9zWnXtKChhYnq8x4z5ib4rq4OIS2cyB2kqNdn1881fbZy5JHYS7mB6ACuGVcLHCGiX5oYPK-X6m0OQBkqBAOmeJi_sFuGNWpLsckb2v4YIxpkQrInhujml_8fK3UOD69EppUvdHoBcUV0dyubhC8-oP3c0NWn3no8HttCtyTb_TKO0a2lmVVmfzHRXPJBtaFUFgD_Yh3FN2hpw3To7tO-Up4jOwnppwW_ZHXWmxUS8YOiFCiAcFKmtH3XhDpnwM1aIncrkeQpW9xWWf_eu7sQ5XX9L2rwtEIWAhTmXlDj7DwgjPkY3KJhECfzBCbQnv29sSh2tY543pFa3dpfb5VMNH8NKXJZ-77jffs3gMnRbZgwOUG364O7S7Wd4oTvs3EpnPHuWWz6AegqFuNSShbPmRfhwp9Fm00]--></g></svg>