<?xml version="1.0" encoding="UTF-8" standalone="no"?><svg xmlns="http://www.w3.org/2000/svg" xmlns:xlink="http://www.w3.org/1999/xlink" contentStyleType="text/css" height="2378px" preserveAspectRatio="none" style="width:2615px;height:2378px;background:#FFFFFF;" version="1.1" viewBox="0 0 2615 2378" width="2615px" zoomAndPan="magnify"><defs/><g><rect fill="#FFFFFF" height="2128.2788" style="stroke:#181818;stroke-width:1.0;" width="10" x="25" y="115.4799"/><rect fill="#FFFFFF" height="569.1197" style="stroke:#181818;stroke-width:1.0;" width="10" x="425.25" y="148.7199"/><rect fill="#FFFFFF" height="527.8797" style="stroke:#181818;stroke-width:1.0;" width="10" x="425.25" y="759.0796"/><rect fill="#FFFFFF" height="41.24" style="stroke:#181818;stroke-width:1.0;" width="10" x="425.25" y="1328.1992"/><rect fill="#FFFFFF" height="471.3997" style="stroke:#181818;stroke-width:1.0;" width="10" x="425.25" y="1410.6792"/><rect fill="#FFFFFF" height="320.4398" style="stroke:#181818;stroke-width:1.0;" width="10" x="425.25" y="1923.3189"/><rect fill="#FFFFFF" height="486.6397" style="stroke:#181818;stroke-width:1.0;" width="10" x="857.5" y="189.9599"/><rect fill="#FFFFFF" height="445.3997" style="stroke:#181818;stroke-width:1.0;" width="10" x="857.5" y="800.3195"/><rect fill="#FFFFFF" height="388.9198" style="stroke:#181818;stroke-width:1.0;" width="10" x="857.5" y="1451.9192"/><rect fill="#FFFFFF" height="237.9599" style="stroke:#181818;stroke-width:1.0;" width="10" x="857.5" y="1964.5589"/><rect fill="#FFFFFF" height="76.24" style="stroke:#181818;stroke-width:1.0;" width="10" x="862.5" y="2085.0388"/><rect fill="#FFFFFF" height="30" style="stroke:#181818;stroke-width:1.0;" width="10" x="1193.125" y="231.1999"/><rect fill="#FFFFFF" height="291.6798" style="stroke:#181818;stroke-width:1.0;" width="10" x="1193.125" y="343.6798"/><rect fill="#FFFFFF" height="30" style="stroke:#181818;stroke-width:1.0;" width="10" x="1370.625" y="841.5595"/><rect fill="#FFFFFF" height="291.6798" style="stroke:#181818;stroke-width:1.0;" width="10" x="1370.625" y="912.7995"/><rect fill="#FFFFFF" height="30" style="stroke:#181818;stroke-width:1.0;" width="10" x="1532.125" y="1493.1591"/><rect fill="#FFFFFF" height="235.1999" style="stroke:#181818;stroke-width:1.0;" width="10" x="1532.125" y="1564.3991"/><rect fill="#FFFFFF" height="28" style="stroke:#181818;stroke-width:1.0;" width="10" x="1537.125" y="1723.359"/><rect fill="#FFFFFF" height="71.24" style="stroke:#181818;stroke-width:1.0;" width="10" x="1861.375" y="515.8797"/><rect fill="#FFFFFF" height="71.24" style="stroke:#181818;stroke-width:1.0;" width="10" x="1974.375" y="1084.9994"/><rect fill="#FFFFFF" height="30" style="stroke:#181818;stroke-width:1.0;" width="10" x="1974.375" y="2005.7989"/><rect fill="#FFFFFF" height="30" style="stroke:#181818;stroke-width:1.0;" width="10" x="2091.875" y="557.1197"/><rect fill="#FFFFFF" height="30" style="stroke:#181818;stroke-width:1.0;" width="10" x="2213.375" y="1126.2393"/><rect fill="#FFFFFF" height="41.24" style="stroke:#181818;stroke-width:1.0;" width="10" x="2359.375" y="384.9198"/><rect fill="#FFFFFF" height="41.24" style="stroke:#181818;stroke-width:1.0;" width="10" x="2529.875" y="954.0395"/><rect fill="#FFFFFF" height="41.24" style="stroke:#181818;stroke-width:1.0;" width="10" x="2529.875" y="1632.8791"/><rect fill="#FFFFFF" height="30" style="stroke:#181818;stroke-width:1.0;" width="10" x="2529.875" y="2131.2788"/><rect fill="none" height="153.9599" style="stroke:#000000;stroke-width:1.5;" width="1058.75" x="1104.125" y="441.1598"/><rect fill="none" height="153.9599" style="stroke:#000000;stroke-width:1.5;" width="1001.75" x="1282.125" y="1010.2794"/><line style="stroke:#181818;stroke-width:0.5;stroke-dasharray:5.0,5.0;" x1="30" x2="30" y1="105.4799" y2="2261.7588"/><line style="stroke:#181818;stroke-width:0.5;stroke-dasharray:5.0,5.0;" x1="430.25" x2="430.25" y1="105.4799" y2="2261.7588"/><line style="stroke:#181818;stroke-width:0.5;stroke-dasharray:5.0,5.0;" x1="862" x2="862" y1="105.4799" y2="2261.7588"/><line style="stroke:#181818;stroke-width:0.5;stroke-dasharray:5.0,5.0;" x1="1198.125" x2="1198.125" y1="105.4799" y2="2261.7588"/><line style="stroke:#181818;stroke-width:0.5;stroke-dasharray:5.0,5.0;" x1="1375.125" x2="1375.125" y1="105.4799" y2="2261.7588"/><line style="stroke:#181818;stroke-width:0.5;stroke-dasharray:5.0,5.0;" x1="1537.125" x2="1537.125" y1="105.4799" y2="2261.7588"/><line style="stroke:#181818;stroke-width:0.5;stroke-dasharray:5.0,5.0;" x1="1865.875" x2="1865.875" y1="105.4799" y2="2261.7588"/><line style="stroke:#181818;stroke-width:0.5;stroke-dasharray:5.0,5.0;" x1="1978.875" x2="1978.875" y1="105.4799" y2="2261.7588"/><line style="stroke:#181818;stroke-width:0.5;stroke-dasharray:5.0,5.0;" x1="2096.875" x2="2096.875" y1="105.4799" y2="2261.7588"/><line style="stroke:#181818;stroke-width:0.5;stroke-dasharray:5.0,5.0;" x1="2217.875" x2="2217.875" y1="105.4799" y2="2261.7588"/><line style="stroke:#181818;stroke-width:0.5;stroke-dasharray:5.0,5.0;" x1="2363.875" x2="2363.875" y1="105.4799" y2="2261.7588"/><line style="stroke:#181818;stroke-width:0.5;stroke-dasharray:5.0,5.0;" x1="2534.875" x2="2534.875" y1="105.4799" y2="2261.7588"/><text fill="#000000" font-family="sans-serif" font-size="20" lengthAdjust="spacing" textLength="44" x="5" y="99.62">User</text><ellipse cx="30" cy="26.74" fill="#E2E2F0" rx="8" ry="8" style="stroke:#181818;stroke-width:0.5;"/><path d="M30,34.74 L30,61.74 M17,42.74 L43,42.74 M30,61.74 L17,76.74 M30,61.74 L43,76.74 " fill="none" style="stroke:#181818;stroke-width:0.5;"/><text fill="#000000" font-family="sans-serif" font-size="20" lengthAdjust="spacing" textLength="44" x="5" y="2282.1388">User</text><ellipse cx="30" cy="2296.4987" fill="#E2E2F0" rx="8" ry="8" style="stroke:#181818;stroke-width:0.5;"/><path d="M30,2304.4987 L30,2331.4987 M17,2312.4987 L43,2312.4987 M30,2331.4987 L17,2346.4987 M30,2331.4987 L43,2346.4987 " fill="none" style="stroke:#181818;stroke-width:0.5;"/><rect fill="#E2E2F0" height="68.4799" rx="2.5" ry="2.5" style="stroke:#181818;stroke-width:0.5;" width="162" x="349.25" y="36"/><text fill="#000000" font-family="sans-serif" font-size="20" font-style="italic" lengthAdjust="spacing" textLength="134" x="363.25" y="64.38">«presentation»</text><text fill="#000000" font-family="sans-serif" font-size="20" lengthAdjust="spacing" textLength="148" x="356.25" y="91.62">ChangePostItUI</text><rect fill="#E2E2F0" height="68.4799" rx="2.5" ry="2.5" style="stroke:#181818;stroke-width:0.5;" width="162" x="349.25" y="2260.7588"/><text fill="#000000" font-family="sans-serif" font-size="20" font-style="italic" lengthAdjust="spacing" textLength="134" x="363.25" y="2289.1388">«presentation»</text><text fill="#000000" font-family="sans-serif" font-size="20" lengthAdjust="spacing" textLength="148" x="356.25" y="2316.3787">ChangePostItUI</text><rect fill="#E2E2F0" height="68.4799" rx="2.5" ry="2.5" style="stroke:#181818;stroke-width:0.5;" width="233" x="746" y="36"/><text fill="#000000" font-family="sans-serif" font-size="20" font-style="italic" lengthAdjust="spacing" textLength="120" x="802.5" y="64.38">«application»</text><text fill="#000000" font-family="sans-serif" font-size="20" lengthAdjust="spacing" textLength="219" x="753" y="91.62">ChangePostItController</text><rect fill="#E2E2F0" height="68.4799" rx="2.5" ry="2.5" style="stroke:#181818;stroke-width:0.5;" width="233" x="746" y="2260.7588"/><text fill="#000000" font-family="sans-serif" font-size="20" font-style="italic" lengthAdjust="spacing" textLength="120" x="802.5" y="2289.1388">«application»</text><text fill="#000000" font-family="sans-serif" font-size="20" lengthAdjust="spacing" textLength="219" x="753" y="2316.3787">ChangePostItController</text><rect fill="#E2E2F0" height="68.4799" rx="2.5" ry="2.5" style="stroke:#181818;stroke-width:0.5;" width="168" x="1114.125" y="36"/><text fill="#000000" font-family="sans-serif" font-size="20" font-style="italic" lengthAdjust="spacing" textLength="80" x="1158.125" y="64.38">«service»</text><text fill="#000000" font-family="sans-serif" font-size="20" lengthAdjust="spacing" textLength="154" x="1121.125" y="91.62">ListBoardService</text><rect fill="#E2E2F0" height="68.4799" rx="2.5" ry="2.5" style="stroke:#181818;stroke-width:0.5;" width="168" x="1114.125" y="2260.7588"/><text fill="#000000" font-family="sans-serif" font-size="20" font-style="italic" lengthAdjust="spacing" textLength="80" x="1158.125" y="2289.1388">«service»</text><text fill="#000000" font-family="sans-serif" font-size="20" lengthAdjust="spacing" textLength="154" x="1121.125" y="2316.3787">ListBoardService</text><rect fill="#E2E2F0" height="68.4799" rx="2.5" ry="2.5" style="stroke:#181818;stroke-width:0.5;" width="167" x="1292.125" y="36"/><text fill="#000000" font-family="sans-serif" font-size="20" font-style="italic" lengthAdjust="spacing" textLength="80" x="1335.625" y="64.38">«service»</text><text fill="#000000" font-family="sans-serif" font-size="20" lengthAdjust="spacing" textLength="153" x="1299.125" y="91.62">ListPostItService</text><rect fill="#E2E2F0" height="68.4799" rx="2.5" ry="2.5" style="stroke:#181818;stroke-width:0.5;" width="167" x="1292.125" y="2260.7588"/><text fill="#000000" font-family="sans-serif" font-size="20" font-style="italic" lengthAdjust="spacing" textLength="80" x="1335.625" y="2289.1388">«service»</text><text fill="#000000" font-family="sans-serif" font-size="20" lengthAdjust="spacing" textLength="153" x="1299.125" y="2316.3787">ListPostItService</text><rect fill="#E2E2F0" height="68.4799" rx="2.5" ry="2.5" style="stroke:#181818;stroke-width:0.5;" width="136" x="1469.125" y="36"/><text fill="#000000" font-family="sans-serif" font-size="20" font-style="italic" lengthAdjust="spacing" textLength="80" x="1497.125" y="64.38">«service»</text><text fill="#000000" font-family="sans-serif" font-size="20" lengthAdjust="spacing" textLength="122" x="1476.125" y="91.62">BoardService</text><rect fill="#E2E2F0" height="68.4799" rx="2.5" ry="2.5" style="stroke:#181818;stroke-width:0.5;" width="136" x="1469.125" y="2260.7588"/><text fill="#000000" font-family="sans-serif" font-size="20" font-style="italic" lengthAdjust="spacing" textLength="80" x="1497.125" y="2289.1388">«service»</text><text fill="#000000" font-family="sans-serif" font-size="20" lengthAdjust="spacing" textLength="122" x="1476.125" y="2316.3787">BoardService</text><rect fill="#E2E2F0" height="68.4799" rx="2.5" ry="2.5" style="stroke:#181818;stroke-width:0.5;" width="103" x="1814.875" y="36"/><text fill="#000000" font-family="sans-serif" font-size="20" font-style="italic" lengthAdjust="spacing" textLength="89" x="1821.875" y="64.38">«domain»</text><text fill="#000000" font-family="sans-serif" font-size="20" lengthAdjust="spacing" textLength="56" x="1838.375" y="91.62">Board</text><rect fill="#E2E2F0" height="68.4799" rx="2.5" ry="2.5" style="stroke:#181818;stroke-width:0.5;" width="103" x="1814.875" y="2260.7588"/><text fill="#000000" font-family="sans-serif" font-size="20" font-style="italic" lengthAdjust="spacing" textLength="89" x="1821.875" y="2289.1388">«domain»</text><text fill="#000000" font-family="sans-serif" font-size="20" lengthAdjust="spacing" textLength="56" x="1838.375" y="2316.3787">Board</text><rect fill="#E2E2F0" height="68.4799" rx="2.5" ry="2.5" style="stroke:#181818;stroke-width:0.5;" width="103" x="1927.875" y="36"/><text fill="#000000" font-family="sans-serif" font-size="20" font-style="italic" lengthAdjust="spacing" textLength="89" x="1934.875" y="64.38">«domain»</text><text fill="#000000" font-family="sans-serif" font-size="20" lengthAdjust="spacing" textLength="55" x="1951.875" y="91.62">PostIt</text><rect fill="#E2E2F0" height="68.4799" rx="2.5" ry="2.5" style="stroke:#181818;stroke-width:0.5;" width="103" x="1927.875" y="2260.7588"/><text fill="#000000" font-family="sans-serif" font-size="20" font-style="italic" lengthAdjust="spacing" textLength="89" x="1934.875" y="2289.1388">«domain»</text><text fill="#000000" font-family="sans-serif" font-size="20" lengthAdjust="spacing" textLength="55" x="1951.875" y="2316.3787">PostIt</text><rect fill="#E2E2F0" height="68.4799" rx="2.5" ry="2.5" style="stroke:#181818;stroke-width:0.5;" width="112" x="2040.875" y="36"/><text fill="#000000" font-family="sans-serif" font-size="20" font-style="italic" lengthAdjust="spacing" textLength="50" x="2071.875" y="64.38">«dto»</text><text fill="#000000" font-family="sans-serif" font-size="20" lengthAdjust="spacing" textLength="98" x="2047.875" y="91.62">BoardDTO</text><rect fill="#E2E2F0" height="68.4799" rx="2.5" ry="2.5" style="stroke:#181818;stroke-width:0.5;" width="112" x="2040.875" y="2260.7588"/><text fill="#000000" font-family="sans-serif" font-size="20" font-style="italic" lengthAdjust="spacing" textLength="50" x="2071.875" y="2289.1388">«dto»</text><text fill="#000000" font-family="sans-serif" font-size="20" lengthAdjust="spacing" textLength="98" x="2047.875" y="2316.3787">BoardDTO</text><rect fill="#E2E2F0" height="68.4799" rx="2.5" ry="2.5" style="stroke:#181818;stroke-width:0.5;" width="111" x="2162.875" y="36"/><text fill="#000000" font-family="sans-serif" font-size="20" font-style="italic" lengthAdjust="spacing" textLength="50" x="2193.375" y="64.38">«dto»</text><text fill="#000000" font-family="sans-serif" font-size="20" lengthAdjust="spacing" textLength="97" x="2169.875" y="91.62">PostItDTO</text><rect fill="#E2E2F0" height="68.4799" rx="2.5" ry="2.5" style="stroke:#181818;stroke-width:0.5;" width="111" x="2162.875" y="2260.7588"/><text fill="#000000" font-family="sans-serif" font-size="20" font-style="italic" lengthAdjust="spacing" textLength="50" x="2193.375" y="2289.1388">«dto»</text><text fill="#000000" font-family="sans-serif" font-size="20" lengthAdjust="spacing" textLength="97" x="2169.875" y="2316.3787">PostItDTO</text><text fill="#000000" font-family="sans-serif" font-size="20" font-style="italic" lengthAdjust="spacing" textLength="110" x="2306.375" y="72.38">«repository»</text><text fill="#000000" font-family="sans-serif" font-size="20" lengthAdjust="spacing" textLength="155" x="2283.875" y="99.62">BoardRepository</text><path d="M2346.375,15 C2346.375,5 2364.375,5 2364.375,5 C2364.375,5 2382.375,5 2382.375,15 L2382.375,41 C2382.375,51 2364.375,51 2364.375,51 C2364.375,51 2346.375,51 2346.375,41 L2346.375,15 " fill="#E2E2F0" style="stroke:#181818;stroke-width:1.5;"/><path d="M2346.375,15 C2346.375,25 2364.375,25 2364.375,25 C2364.375,25 2382.375,25 2382.375,15 " fill="none" style="stroke:#181818;stroke-width:1.5;"/><text fill="#000000" font-family="sans-serif" font-size="20" font-style="italic" lengthAdjust="spacing" textLength="110" x="2306.375" y="2282.1388">«repository»</text><text fill="#000000" font-family="sans-serif" font-size="20" lengthAdjust="spacing" textLength="155" x="2283.875" y="2309.3787">BoardRepository</text><path d="M2346.375,2325.2387 C2346.375,2315.2387 2364.375,2315.2387 2364.375,2315.2387 C2364.375,2315.2387 2382.375,2315.2387 2382.375,2325.2387 L2382.375,2351.2387 C2382.375,2361.2387 2364.375,2361.2387 2364.375,2361.2387 C2364.375,2361.2387 2346.375,2361.2387 2346.375,2351.2387 L2346.375,2325.2387 " fill="#E2E2F0" style="stroke:#181818;stroke-width:1.5;"/><path d="M2346.375,2325.2387 C2346.375,2335.2387 2364.375,2335.2387 2364.375,2335.2387 C2364.375,2335.2387 2382.375,2335.2387 2382.375,2325.2387 " fill="none" style="stroke:#181818;stroke-width:1.5;"/><text fill="#000000" font-family="sans-serif" font-size="20" font-style="italic" lengthAdjust="spacing" textLength="110" x="2476.875" y="72.38">«repository»</text><text fill="#000000" font-family="sans-serif" font-size="20" lengthAdjust="spacing" textLength="154" x="2454.875" y="99.62">PostItRepository</text><path d="M2516.875,15 C2516.875,5 2534.875,5 2534.875,5 C2534.875,5 2552.875,5 2552.875,15 L2552.875,41 C2552.875,51 2534.875,51 2534.875,51 C2534.875,51 2516.875,51 2516.875,41 L2516.875,15 " fill="#E2E2F0" style="stroke:#181818;stroke-width:1.5;"/><path d="M2516.875,15 C2516.875,25 2534.875,25 2534.875,25 C2534.875,25 2552.875,25 2552.875,15 " fill="none" style="stroke:#181818;stroke-width:1.5;"/><text fill="#000000" font-family="sans-serif" font-size="20" font-style="italic" lengthAdjust="spacing" textLength="110" x="2476.875" y="2282.1388">«repository»</text><text fill="#000000" font-family="sans-serif" font-size="20" lengthAdjust="spacing" textLength="154" x="2454.875" y="2309.3787">PostItRepository</text><path d="M2516.875,2325.2387 C2516.875,2315.2387 2534.875,2315.2387 2534.875,2315.2387 C2534.875,2315.2387 2552.875,2315.2387 2552.875,2325.2387 L2552.875,2351.2387 C2552.875,2361.2387 2534.875,2361.2387 2534.875,2361.2387 C2534.875,2361.2387 2516.875,2361.2387 2516.875,2351.2387 L2516.875,2325.2387 " fill="#E2E2F0" style="stroke:#181818;stroke-width:1.5;"/><path d="M2516.875,2325.2387 C2516.875,2335.2387 2534.875,2335.2387 2534.875,2335.2387 C2534.875,2335.2387 2552.875,2335.2387 2552.875,2325.2387 " fill="none" style="stroke:#181818;stroke-width:1.5;"/><rect fill="#FFFFFF" height="2128.2788" style="stroke:#181818;stroke-width:1.0;" width="10" x="25" y="115.4799"/><rect fill="#FFFFFF" height="569.1197" style="stroke:#181818;stroke-width:1.0;" width="10" x="425.25" y="148.7199"/><rect fill="#FFFFFF" height="527.8797" style="stroke:#181818;stroke-width:1.0;" width="10" x="425.25" y="759.0796"/><rect fill="#FFFFFF" height="41.24" style="stroke:#181818;stroke-width:1.0;" width="10" x="425.25" y="1328.1992"/><rect fill="#FFFFFF" height="471.3997" style="stroke:#181818;stroke-width:1.0;" width="10" x="425.25" y="1410.6792"/><rect fill="#FFFFFF" height="320.4398" style="stroke:#181818;stroke-width:1.0;" width="10" x="425.25" y="1923.3189"/><rect fill="#FFFFFF" height="486.6397" style="stroke:#181818;stroke-width:1.0;" width="10" x="857.5" y="189.9599"/><rect fill="#FFFFFF" height="445.3997" style="stroke:#181818;stroke-width:1.0;" width="10" x="857.5" y="800.3195"/><rect fill="#FFFFFF" height="388.9198" style="stroke:#181818;stroke-width:1.0;" width="10" x="857.5" y="1451.9192"/><rect fill="#FFFFFF" height="237.9599" style="stroke:#181818;stroke-width:1.0;" width="10" x="857.5" y="1964.5589"/><rect fill="#FFFFFF" height="76.24" style="stroke:#181818;stroke-width:1.0;" width="10" x="862.5" y="2085.0388"/><rect fill="#FFFFFF" height="30" style="stroke:#181818;stroke-width:1.0;" width="10" x="1193.125" y="231.1999"/><rect fill="#FFFFFF" height="291.6798" style="stroke:#181818;stroke-width:1.0;" width="10" x="1193.125" y="343.6798"/><rect fill="#FFFFFF" height="30" style="stroke:#181818;stroke-width:1.0;" width="10" x="1370.625" y="841.5595"/><rect fill="#FFFFFF" height="291.6798" style="stroke:#181818;stroke-width:1.0;" width="10" x="1370.625" y="912.7995"/><rect fill="#FFFFFF" height="30" style="stroke:#181818;stroke-width:1.0;" width="10" x="1532.125" y="1493.1591"/><rect fill="#FFFFFF" height="235.1999" style="stroke:#181818;stroke-width:1.0;" width="10" x="1532.125" y="1564.3991"/><rect fill="#FFFFFF" height="28" style="stroke:#181818;stroke-width:1.0;" width="10" x="1537.125" y="1723.359"/><rect fill="#FFFFFF" height="71.24" style="stroke:#181818;stroke-width:1.0;" width="10" x="1861.375" y="515.8797"/><rect fill="#FFFFFF" height="71.24" style="stroke:#181818;stroke-width:1.0;" width="10" x="1974.375" y="1084.9994"/><rect fill="#FFFFFF" height="30" style="stroke:#181818;stroke-width:1.0;" width="10" x="1974.375" y="2005.7989"/><rect fill="#FFFFFF" height="30" style="stroke:#181818;stroke-width:1.0;" width="10" x="2091.875" y="557.1197"/><rect fill="#FFFFFF" height="30" style="stroke:#181818;stroke-width:1.0;" width="10" x="2213.375" y="1126.2393"/><rect fill="#FFFFFF" height="41.24" style="stroke:#181818;stroke-width:1.0;" width="10" x="2359.375" y="384.9198"/><rect fill="#FFFFFF" height="41.24" style="stroke:#181818;stroke-width:1.0;" width="10" x="2529.875" y="954.0395"/><rect fill="#FFFFFF" height="41.24" style="stroke:#181818;stroke-width:1.0;" width="10" x="2529.875" y="1632.8791"/><rect fill="#FFFFFF" height="30" style="stroke:#181818;stroke-width:1.0;" width="10" x="2529.875" y="2131.2788"/><polygon fill="#181818" points="413.25,144.7199,423.25,148.7199,413.25,152.7199,417.25,148.7199" style="stroke:#181818;stroke-width:1.0;"/><line style="stroke:#181818;stroke-width:1.0;" x1="35" x2="419.25" y1="148.7199" y2="148.7199"/><text fill="#000000" font-family="sans-serif" font-size="20" font-weight="bold" lengthAdjust="spacing" textLength="11.625" x="42" y="140.8599">1</text><text fill="#000000" font-family="sans-serif" font-size="20" lengthAdjust="spacing" textLength="209" x="57.625" y="140.8599">asks to create a post-it</text><polygon fill="#181818" points="845.5,185.9599,855.5,189.9599,845.5,193.9599,849.5,189.9599" style="stroke:#181818;stroke-width:1.0;"/><line style="stroke:#181818;stroke-width:1.0;" x1="435.25" x2="851.5" y1="189.9599" y2="189.9599"/><text fill="#000000" font-family="sans-serif" font-size="20" font-weight="bold" lengthAdjust="spacing" textLength="11.625" x="442.25" y="182.0999">2</text><text fill="#000000" font-family="sans-serif" font-size="20" lengthAdjust="spacing" textLength="369" x="457.875" y="182.0999">new(boardRepository, postItRepository)</text><polygon fill="#181818" points="1181.125,227.1999,1191.125,231.1999,1181.125,235.1999,1185.125,231.1999" style="stroke:#181818;stroke-width:1.0;"/><line style="stroke:#181818;stroke-width:1.0;" x1="867.5" x2="1187.125" y1="231.1999" y2="231.1999"/><text fill="#000000" font-family="sans-serif" font-size="20" font-weight="bold" lengthAdjust="spacing" textLength="11.625" x="874.5" y="223.3399">3</text><text fill="#000000" font-family="sans-serif" font-size="20" lengthAdjust="spacing" textLength="205" x="890.125" y="223.3399">new(boardRepository)</text><polygon fill="#181818" points="845.5,298.4398,855.5,302.4398,845.5,306.4398,849.5,302.4398" style="stroke:#181818;stroke-width:1.0;"/><line style="stroke:#181818;stroke-width:1.0;" x1="435.25" x2="851.5" y1="302.4398" y2="302.4398"/><text fill="#000000" font-family="sans-serif" font-size="20" font-weight="bold" lengthAdjust="spacing" textLength="11.625" x="442.25" y="294.5799">4</text><text fill="#000000" font-family="sans-serif" font-size="20" lengthAdjust="spacing" textLength="227" x="457.875" y="294.5799">listUserWritableBoards()</text><polygon fill="#181818" points="1181.125,339.6798,1191.125,343.6798,1181.125,347.6798,1185.125,343.6798" style="stroke:#181818;stroke-width:1.0;"/><line style="stroke:#181818;stroke-width:1.0;" x1="867.5" x2="1187.125" y1="343.6798" y2="343.6798"/><text fill="#000000" font-family="sans-serif" font-size="20" font-weight="bold" lengthAdjust="spacing" textLength="11.625" x="874.5" y="335.8198">5</text><text fill="#000000" font-family="sans-serif" font-size="20" lengthAdjust="spacing" textLength="291" x="890.125" y="335.8198">userWritableBoards(username)</text><polygon fill="#181818" points="2347.375,380.9198,2357.375,384.9198,2347.375,388.9198,2351.375,384.9198" style="stroke:#181818;stroke-width:1.0;"/><line style="stroke:#181818;stroke-width:1.0;" x1="1203.125" x2="2353.375" y1="384.9198" y2="384.9198"/><text fill="#000000" font-family="sans-serif" font-size="20" font-weight="bold" lengthAdjust="spacing" textLength="11.625" x="1210.125" y="377.0598">6</text><text fill="#000000" font-family="sans-serif" font-size="20" lengthAdjust="spacing" textLength="528" x="1225.75" y="377.0598">findAllActiveBoardsWithUserWritePermission(username)</text><polygon fill="#181818" points="1214.125,422.1598,1204.125,426.1598,1214.125,430.1598,1210.125,426.1598" style="stroke:#181818;stroke-width:1.0;"/><line style="stroke:#181818;stroke-width:1.0;stroke-dasharray:2.0,2.0;" x1="1208.125" x2="2363.375" y1="426.1598" y2="426.1598"/><text fill="#000000" font-family="sans-serif" font-size="20" font-weight="bold" lengthAdjust="spacing" textLength="11.625" x="1220.125" y="418.2998">7</text><text fill="#000000" font-family="sans-serif" font-size="20" lengthAdjust="spacing" textLength="65" x="1235.75" y="418.2998">boards</text><path d="M1104.125,441.1598 L1192.625,441.1598 L1192.625,460.3997 L1182.625,470.3997 L1104.125,470.3997 L1104.125,441.1598 " fill="#EEEEEE" style="stroke:#000000;stroke-width:1.5;"/><rect fill="none" height="153.9599" style="stroke:#000000;stroke-width:1.5;" width="1058.75" x="1104.125" y="441.1598"/><text fill="#000000" font-family="sans-serif" font-size="20" font-weight="bold" lengthAdjust="spacing" textLength="43.5" x="1119.125" y="463.5398">loop</text><text fill="#000000" font-family="sans-serif" font-size="20" font-weight="bold" lengthAdjust="spacing" textLength="158.75" x="1207.625" y="464.5398">[for each board]</text><polygon fill="#181818" points="1849.375,511.8797,1859.375,515.8797,1849.375,519.8797,1853.375,515.8797" style="stroke:#181818;stroke-width:1.0;"/><line style="stroke:#181818;stroke-width:1.0;" x1="1203.125" x2="1855.375" y1="515.8797" y2="515.8797"/><text fill="#000000" font-family="sans-serif" font-size="20" font-weight="bold" lengthAdjust="spacing" textLength="11.625" x="1210.125" y="508.0197">8</text><text fill="#000000" font-family="sans-serif" font-size="20" lengthAdjust="spacing" textLength="128" x="1225.75" y="508.0197">toDTO(board)</text><polygon fill="#181818" points="2079.875,553.1197,2089.875,557.1197,2079.875,561.1197,2083.875,557.1197" style="stroke:#181818;stroke-width:1.0;"/><line style="stroke:#181818;stroke-width:1.0;" x1="1871.375" x2="2085.875" y1="557.1197" y2="557.1197"/><text fill="#000000" font-family="sans-serif" font-size="20" font-weight="bold" lengthAdjust="spacing" textLength="11.625" x="1878.375" y="549.2597">9</text><text fill="#000000" font-family="sans-serif" font-size="20" lengthAdjust="spacing" textLength="51" x="1894" y="549.2597">new()</text><polygon fill="#181818" points="878.5,631.3596,868.5,635.3596,878.5,639.3596,874.5,635.3596" style="stroke:#181818;stroke-width:1.0;"/><line style="stroke:#181818;stroke-width:1.0;stroke-dasharray:2.0,2.0;" x1="872.5" x2="1197.125" y1="635.3596" y2="635.3596"/><text fill="#000000" font-family="sans-serif" font-size="20" font-weight="bold" lengthAdjust="spacing" textLength="23.25" x="884.5" y="627.4997">10</text><text fill="#000000" font-family="sans-serif" font-size="20" lengthAdjust="spacing" textLength="65" x="911.75" y="627.4997">boards</text><polygon fill="#181818" points="446.25,672.5996,436.25,676.5996,446.25,680.5996,442.25,676.5996" style="stroke:#181818;stroke-width:1.0;"/><line style="stroke:#181818;stroke-width:1.0;stroke-dasharray:2.0,2.0;" x1="440.25" x2="861.5" y1="676.5996" y2="676.5996"/><text fill="#000000" font-family="sans-serif" font-size="20" font-weight="bold" lengthAdjust="spacing" textLength="23.25" x="452.25" y="668.7396">11</text><text fill="#000000" font-family="sans-serif" font-size="20" lengthAdjust="spacing" textLength="65" x="479.5" y="668.7396">boards</text><polygon fill="#181818" points="46,713.8396,36,717.8396,46,721.8396,42,717.8396" style="stroke:#181818;stroke-width:1.0;"/><line style="stroke:#181818;stroke-width:1.0;stroke-dasharray:2.0,2.0;" x1="40" x2="429.25" y1="717.8396" y2="717.8396"/><text fill="#000000" font-family="sans-serif" font-size="20" font-weight="bold" lengthAdjust="spacing" textLength="23.25" x="52" y="709.9796">12</text><text fill="#000000" font-family="sans-serif" font-size="20" lengthAdjust="spacing" textLength="220" x="79.25" y="709.9796">asks to select the board</text><polygon fill="#181818" points="413.25,755.0796,423.25,759.0796,413.25,763.0796,417.25,759.0796" style="stroke:#181818;stroke-width:1.0;"/><line style="stroke:#181818;stroke-width:1.0;" x1="35" x2="419.25" y1="759.0796" y2="759.0796"/><text fill="#000000" font-family="sans-serif" font-size="20" font-weight="bold" lengthAdjust="spacing" textLength="23.25" x="42" y="751.2196">13</text><text fill="#000000" font-family="sans-serif" font-size="20" lengthAdjust="spacing" textLength="159" x="69.25" y="751.2196">selects the board</text><polygon fill="#181818" points="845.5,796.3195,855.5,800.3195,845.5,804.3195,849.5,800.3195" style="stroke:#181818;stroke-width:1.0;"/><line style="stroke:#181818;stroke-width:1.0;" x1="435.25" x2="851.5" y1="800.3195" y2="800.3195"/><text fill="#000000" font-family="sans-serif" font-size="20" font-weight="bold" lengthAdjust="spacing" textLength="23.25" x="442.25" y="792.4596">14</text><text fill="#000000" font-family="sans-serif" font-size="20" lengthAdjust="spacing" textLength="374" x="469.5" y="792.4596">listBoardPostItsCreatedByUser(boardId)</text><polygon fill="#181818" points="1358.625,837.5595,1368.625,841.5595,1358.625,845.5595,1362.625,841.5595" style="stroke:#181818;stroke-width:1.0;"/><line style="stroke:#181818;stroke-width:1.0;" x1="867.5" x2="1364.625" y1="841.5595" y2="841.5595"/><text fill="#000000" font-family="sans-serif" font-size="20" font-weight="bold" lengthAdjust="spacing" textLength="23.25" x="874.5" y="833.6995">15</text><text fill="#000000" font-family="sans-serif" font-size="20" lengthAdjust="spacing" textLength="205" x="901.75" y="833.6995">new(postItRepository)</text><polygon fill="#181818" points="1358.625,908.7995,1368.625,912.7995,1358.625,916.7995,1362.625,912.7995" style="stroke:#181818;stroke-width:1.0;"/><line style="stroke:#181818;stroke-width:1.0;" x1="867.5" x2="1364.625" y1="912.7995" y2="912.7995"/><text fill="#000000" font-family="sans-serif" font-size="20" font-weight="bold" lengthAdjust="spacing" textLength="23.25" x="874.5" y="904.9395">16</text><text fill="#000000" font-family="sans-serif" font-size="20" lengthAdjust="spacing" textLength="392" x="901.75" y="904.9395">userUpdatablePostIts(boardId, username)</text><polygon fill="#181818" points="2517.875,950.0395,2527.875,954.0395,2517.875,958.0395,2521.875,954.0395" style="stroke:#181818;stroke-width:1.0;"/><line style="stroke:#181818;stroke-width:1.0;" x1="1380.625" x2="2523.875" y1="954.0395" y2="954.0395"/><text fill="#000000" font-family="sans-serif" font-size="20" font-weight="bold" lengthAdjust="spacing" textLength="23.25" x="1387.625" y="946.1795">17</text><text fill="#000000" font-family="sans-serif" font-size="20" lengthAdjust="spacing" textLength="497" x="1414.875" y="946.1795">findLastestPostItsCreatedByUser(boardId, username)</text><polygon fill="#181818" points="1391.625,991.2794,1381.625,995.2794,1391.625,999.2794,1387.625,995.2794" style="stroke:#181818;stroke-width:1.0;"/><line style="stroke:#181818;stroke-width:1.0;stroke-dasharray:2.0,2.0;" x1="1385.625" x2="2533.875" y1="995.2794" y2="995.2794"/><text fill="#000000" font-family="sans-serif" font-size="20" font-weight="bold" lengthAdjust="spacing" textLength="23.25" x="1397.625" y="987.4195">18</text><text fill="#000000" font-family="sans-serif" font-size="20" lengthAdjust="spacing" textLength="65" x="1424.875" y="987.4195">postIts</text><path d="M1282.125,1010.2794 L1370.625,1010.2794 L1370.625,1029.5194 L1360.625,1039.5194 L1282.125,1039.5194 L1282.125,1010.2794 " fill="#EEEEEE" style="stroke:#000000;stroke-width:1.5;"/><rect fill="none" height="153.9599" style="stroke:#000000;stroke-width:1.5;" width="1001.75" x="1282.125" y="1010.2794"/><text fill="#000000" font-family="sans-serif" font-size="20" font-weight="bold" lengthAdjust="spacing" textLength="43.5" x="1297.125" y="1032.6594">loop</text><text fill="#000000" font-family="sans-serif" font-size="20" font-weight="bold" lengthAdjust="spacing" textLength="159.375" x="1385.625" y="1033.6594">[for each postIt]</text><polygon fill="#181818" points="1962.375,1080.9994,1972.375,1084.9994,1962.375,1088.9994,1966.375,1084.9994" style="stroke:#181818;stroke-width:1.0;"/><line style="stroke:#181818;stroke-width:1.0;" x1="1380.625" x2="1968.375" y1="1084.9994" y2="1084.9994"/><text fill="#000000" font-family="sans-serif" font-size="20" font-weight="bold" lengthAdjust="spacing" textLength="23.25" x="1387.625" y="1077.1394">19</text><text fill="#000000" font-family="sans-serif" font-size="20" lengthAdjust="spacing" textLength="128" x="1414.875" y="1077.1394">toDTO(postIt)</text><polygon fill="#181818" points="2201.375,1122.2393,2211.375,1126.2393,2201.375,1130.2393,2205.375,1126.2393" style="stroke:#181818;stroke-width:1.0;"/><line style="stroke:#181818;stroke-width:1.0;" x1="1984.375" x2="2207.375" y1="1126.2393" y2="1126.2393"/><text fill="#000000" font-family="sans-serif" font-size="20" font-weight="bold" lengthAdjust="spacing" textLength="23.25" x="1991.375" y="1118.3794">20</text><text fill="#000000" font-family="sans-serif" font-size="20" lengthAdjust="spacing" textLength="51" x="2018.625" y="1118.3794">new()</text><polygon fill="#181818" points="878.5,1200.4793,868.5,1204.4793,878.5,1208.4793,874.5,1204.4793" style="stroke:#181818;stroke-width:1.0;"/><line style="stroke:#181818;stroke-width:1.0;stroke-dasharray:2.0,2.0;" x1="872.5" x2="1374.625" y1="1204.4793" y2="1204.4793"/><text fill="#000000" font-family="sans-serif" font-size="20" font-weight="bold" lengthAdjust="spacing" textLength="23.25" x="884.5" y="1196.6193">21</text><text fill="#000000" font-family="sans-serif" font-size="20" lengthAdjust="spacing" textLength="65" x="911.75" y="1196.6193">postIts</text><polygon fill="#181818" points="446.25,1241.7193,436.25,1245.7193,446.25,1249.7193,442.25,1245.7193" style="stroke:#181818;stroke-width:1.0;"/><line style="stroke:#181818;stroke-width:1.0;stroke-dasharray:2.0,2.0;" x1="440.25" x2="861.5" y1="1245.7193" y2="1245.7193"/><text fill="#000000" font-family="sans-serif" font-size="20" font-weight="bold" lengthAdjust="spacing" textLength="23.25" x="452.25" y="1237.8593">22</text><text fill="#000000" font-family="sans-serif" font-size="20" lengthAdjust="spacing" textLength="65" x="479.5" y="1237.8593">postIts</text><polygon fill="#181818" points="46,1282.9593,36,1286.9593,46,1290.9593,42,1286.9593" style="stroke:#181818;stroke-width:1.0;"/><line style="stroke:#181818;stroke-width:1.0;stroke-dasharray:2.0,2.0;" x1="40" x2="429.25" y1="1286.9593" y2="1286.9593"/><text fill="#000000" font-family="sans-serif" font-size="20" font-weight="bold" lengthAdjust="spacing" textLength="23.25" x="52" y="1279.0993">23</text><text fill="#000000" font-family="sans-serif" font-size="20" lengthAdjust="spacing" textLength="220" x="79.25" y="1279.0993">asks to select the board</text><polygon fill="#181818" points="413.25,1324.1992,423.25,1328.1992,413.25,1332.1992,417.25,1328.1992" style="stroke:#181818;stroke-width:1.0;"/><line style="stroke:#181818;stroke-width:1.0;" x1="35" x2="419.25" y1="1328.1992" y2="1328.1992"/><text fill="#000000" font-family="sans-serif" font-size="20" font-weight="bold" lengthAdjust="spacing" textLength="23.25" x="42" y="1320.3393">24</text><text fill="#000000" font-family="sans-serif" font-size="20" lengthAdjust="spacing" textLength="159" x="69.25" y="1320.3393">selects the board</text><polygon fill="#181818" points="46,1365.4392,36,1369.4392,46,1373.4392,42,1369.4392" style="stroke:#181818;stroke-width:1.0;"/><line style="stroke:#181818;stroke-width:1.0;stroke-dasharray:2.0,2.0;" x1="40" x2="429.25" y1="1369.4392" y2="1369.4392"/><text fill="#000000" font-family="sans-serif" font-size="20" font-weight="bold" lengthAdjust="spacing" textLength="23.25" x="52" y="1361.5792">25</text><text fill="#000000" font-family="sans-serif" font-size="20" lengthAdjust="spacing" textLength="339" x="79.25" y="1361.5792">asks to select the post-it coordinates</text><polygon fill="#181818" points="413.25,1406.6792,423.25,1410.6792,413.25,1414.6792,417.25,1410.6792" style="stroke:#181818;stroke-width:1.0;"/><line style="stroke:#181818;stroke-width:1.0;" x1="35" x2="419.25" y1="1410.6792" y2="1410.6792"/><text fill="#000000" font-family="sans-serif" font-size="20" font-weight="bold" lengthAdjust="spacing" textLength="23.25" x="42" y="1402.8192">26</text><text fill="#000000" font-family="sans-serif" font-size="20" lengthAdjust="spacing" textLength="278" x="69.25" y="1402.8192">selects the post-it coordinates</text><polygon fill="#181818" points="845.5,1447.9192,855.5,1451.9192,845.5,1455.9192,849.5,1451.9192" style="stroke:#181818;stroke-width:1.0;"/><line style="stroke:#181818;stroke-width:1.0;" x1="435.25" x2="851.5" y1="1451.9192" y2="1451.9192"/><text fill="#000000" font-family="sans-serif" font-size="20" font-weight="bold" lengthAdjust="spacing" textLength="23.25" x="442.25" y="1444.0592">27</text><text fill="#000000" font-family="sans-serif" font-size="20" lengthAdjust="spacing" textLength="312" x="469.5" y="1444.0592">validateCoordinates(boardId, x, y)</text><polygon fill="#181818" points="1520.125,1489.1591,1530.125,1493.1591,1520.125,1497.1591,1524.125,1493.1591" style="stroke:#181818;stroke-width:1.0;"/><line style="stroke:#181818;stroke-width:1.0;" x1="867.5" x2="1526.125" y1="1493.1591" y2="1493.1591"/><text fill="#000000" font-family="sans-serif" font-size="20" font-weight="bold" lengthAdjust="spacing" textLength="23.25" x="874.5" y="1485.2992">28</text><text fill="#000000" font-family="sans-serif" font-size="20" lengthAdjust="spacing" textLength="205" x="901.75" y="1485.2992">new(postItRepository)</text><polygon fill="#181818" points="1520.125,1560.3991,1530.125,1564.3991,1520.125,1568.3991,1524.125,1564.3991" style="stroke:#181818;stroke-width:1.0;"/><line style="stroke:#181818;stroke-width:1.0;" x1="867.5" x2="1526.125" y1="1564.3991" y2="1564.3991"/><text fill="#000000" font-family="sans-serif" font-size="20" font-weight="bold" lengthAdjust="spacing" textLength="23.25" x="874.5" y="1556.5391">29</text><text fill="#000000" font-family="sans-serif" font-size="20" lengthAdjust="spacing" textLength="343" x="901.75" y="1556.5391">isCellAvailable(BoardID id, int x, int y)</text><polygon fill="#181818" points="2517.875,1628.8791,2527.875,1632.8791,2517.875,1636.8791,2521.875,1632.8791" style="stroke:#181818;stroke-width:1.0;"/><line style="stroke:#181818;stroke-width:1.0;" x1="1542.125" x2="2523.875" y1="1632.8791" y2="1632.8791"/><text fill="#000000" font-family="sans-serif" font-size="20" font-weight="bold" lengthAdjust="spacing" textLength="23.25" x="1549.125" y="1611.3991">30</text><text fill="#000000" font-family="sans-serif" font-size="20" lengthAdjust="spacing" textLength="132" x="1576.375" y="1597.7791">latestPostIts =</text><text fill="#000000" font-family="sans-serif" font-size="20" lengthAdjust="spacing" textLength="327" x="1576.375" y="1625.0191">findLatestVersionOfBoard(boardId)</text><polygon fill="#181818" points="1553.125,1670.119,1543.125,1674.119,1553.125,1678.119,1549.125,1674.119" style="stroke:#181818;stroke-width:1.0;"/><line style="stroke:#181818;stroke-width:1.0;stroke-dasharray:2.0,2.0;" x1="1547.125" x2="2533.875" y1="1674.119" y2="1674.119"/><text fill="#000000" font-family="sans-serif" font-size="20" font-weight="bold" lengthAdjust="spacing" textLength="23.25" x="1559.125" y="1666.2591">31</text><text fill="#000000" font-family="sans-serif" font-size="20" lengthAdjust="spacing" textLength="65" x="1586.375" y="1666.2591">postIts</text><line style="stroke:#181818;stroke-width:1.0;" x1="1547.125" x2="1589.125" y1="1715.359" y2="1715.359"/><line style="stroke:#181818;stroke-width:1.0;" x1="1589.125" x2="1589.125" y1="1715.359" y2="1728.359"/><line style="stroke:#181818;stroke-width:1.0;" x1="1548.125" x2="1589.125" y1="1728.359" y2="1728.359"/><polygon fill="#181818" points="1558.125,1724.359,1548.125,1728.359,1558.125,1732.359,1554.125,1728.359" style="stroke:#181818;stroke-width:1.0;"/><text fill="#000000" font-family="sans-serif" font-size="20" font-weight="bold" lengthAdjust="spacing" textLength="23.25" x="1554.125" y="1707.499">32</text><text fill="#000000" font-family="sans-serif" font-size="20" lengthAdjust="spacing" textLength="278" x="1581.375" y="1707.499">existsPostIt(latestPostIts, x, y)</text><polygon fill="#181818" points="878.5,1795.599,868.5,1799.599,878.5,1803.599,874.5,1799.599" style="stroke:#181818;stroke-width:1.0;"/><line style="stroke:#181818;stroke-width:1.0;stroke-dasharray:2.0,2.0;" x1="872.5" x2="1536.125" y1="1799.599" y2="1799.599"/><text fill="#000000" font-family="sans-serif" font-size="20" font-weight="bold" lengthAdjust="spacing" textLength="23.25" x="884.5" y="1791.739">33</text><text fill="#000000" font-family="sans-serif" font-size="20" lengthAdjust="spacing" textLength="44" x="911.75" y="1791.739">false</text><polygon fill="#181818" points="446.25,1836.839,436.25,1840.839,446.25,1844.839,442.25,1840.839" style="stroke:#181818;stroke-width:1.0;"/><line style="stroke:#181818;stroke-width:1.0;stroke-dasharray:2.0,2.0;" x1="440.25" x2="861.5" y1="1840.839" y2="1840.839"/><text fill="#000000" font-family="sans-serif" font-size="20" font-weight="bold" lengthAdjust="spacing" textLength="23.25" x="452.25" y="1832.979">34</text><text fill="#000000" font-family="sans-serif" font-size="20" lengthAdjust="spacing" textLength="38" x="479.5" y="1832.979">true</text><polygon fill="#181818" points="46,1878.0789,36,1882.0789,46,1886.0789,42,1882.0789" style="stroke:#181818;stroke-width:1.0;"/><line style="stroke:#181818;stroke-width:1.0;stroke-dasharray:2.0,2.0;" x1="40" x2="429.25" y1="1882.0789" y2="1882.0789"/><text fill="#000000" font-family="sans-serif" font-size="20" font-weight="bold" lengthAdjust="spacing" textLength="23.25" x="52" y="1874.219">35</text><text fill="#000000" font-family="sans-serif" font-size="20" lengthAdjust="spacing" textLength="318" x="79.25" y="1874.219">asks to enter the title of the post-it</text><polygon fill="#181818" points="413.25,1919.3189,423.25,1923.3189,413.25,1927.3189,417.25,1923.3189" style="stroke:#181818;stroke-width:1.0;"/><line style="stroke:#181818;stroke-width:1.0;stroke-dasharray:2.0,2.0;" x1="35" x2="419.25" y1="1923.3189" y2="1923.3189"/><text fill="#000000" font-family="sans-serif" font-size="20" font-weight="bold" lengthAdjust="spacing" textLength="23.25" x="42" y="1915.4589">36</text><text fill="#000000" font-family="sans-serif" font-size="20" lengthAdjust="spacing" textLength="257" x="69.25" y="1915.4589">enters the title of the post-it</text><polygon fill="#181818" points="845.5,1960.5589,855.5,1964.5589,845.5,1968.5589,849.5,1964.5589" style="stroke:#181818;stroke-width:1.0;"/><line style="stroke:#181818;stroke-width:1.0;" x1="435.25" x2="851.5" y1="1964.5589" y2="1964.5589"/><text fill="#000000" font-family="sans-serif" font-size="20" font-weight="bold" lengthAdjust="spacing" textLength="23.25" x="442.25" y="1956.6989">37</text><text fill="#000000" font-family="sans-serif" font-size="20" lengthAdjust="spacing" textLength="376" x="469.5" y="1956.6989">updatePostIt(boardId, postItId, x, y, title)</text><polygon fill="#181818" points="1962.375,2001.7989,1972.375,2005.7989,1962.375,2009.7989,1966.375,2005.7989" style="stroke:#181818;stroke-width:1.0;"/><line style="stroke:#181818;stroke-width:1.0;" x1="867.5" x2="1968.375" y1="2005.7989" y2="2005.7989"/><text fill="#000000" font-family="sans-serif" font-size="20" font-weight="bold" lengthAdjust="spacing" textLength="23.25" x="874.5" y="1997.9389">38</text><text fill="#000000" font-family="sans-serif" font-size="20" lengthAdjust="spacing" textLength="268" x="901.75" y="1997.9389">newPostIt = update(title, x, y)</text><line style="stroke:#181818;stroke-width:1.0;" x1="867.5" x2="914.5" y1="2072.0388" y2="2072.0388"/><line style="stroke:#181818;stroke-width:1.0;" x1="914.5" x2="914.5" y1="2072.0388" y2="2085.0388"/><line style="stroke:#181818;stroke-width:1.0;" x1="873.5" x2="914.5" y1="2085.0388" y2="2085.0388"/><polygon fill="#181818" points="883.5,2081.0388,873.5,2085.0388,883.5,2089.0388,879.5,2085.0388" style="stroke:#181818;stroke-width:1.0;"/><text fill="#000000" font-family="sans-serif" font-size="20" font-weight="bold" lengthAdjust="spacing" textLength="23.25" x="879.5" y="2064.1789">39</text><text fill="#000000" font-family="sans-serif" font-size="20" lengthAdjust="spacing" textLength="164" x="906.75" y="2064.1789">savePostIt(postIt)</text><polygon fill="#181818" points="2517.875,2127.2788,2527.875,2131.2788,2517.875,2135.2788,2521.875,2131.2788" style="stroke:#181818;stroke-width:1.0;"/><line style="stroke:#181818;stroke-width:1.0;" x1="872.5" x2="2523.875" y1="2131.2788" y2="2131.2788"/><text fill="#000000" font-family="sans-serif" font-size="20" font-weight="bold" lengthAdjust="spacing" textLength="23.25" x="879.5" y="2123.4188">40</text><text fill="#000000" font-family="sans-serif" font-size="20" lengthAdjust="spacing" textLength="109" x="906.75" y="2123.4188">savePostIt()</text><polygon fill="#181818" points="446.25,2198.5188,436.25,2202.5188,446.25,2206.5188,442.25,2202.5188" style="stroke:#181818;stroke-width:1.0;"/><line style="stroke:#181818;stroke-width:1.0;stroke-dasharray:2.0,2.0;" x1="440.25" x2="861.5" y1="2202.5188" y2="2202.5188"/><text fill="#000000" font-family="sans-serif" font-size="20" font-weight="bold" lengthAdjust="spacing" textLength="23.25" x="452.25" y="2194.6588">41</text><text fill="#000000" font-family="sans-serif" font-size="20" lengthAdjust="spacing" textLength="73" x="479.5" y="2194.6588">success</text><polygon fill="#181818" points="41,2239.7588,31,2243.7588,41,2247.7588,37,2243.7588" style="stroke:#181818;stroke-width:1.0;"/><line style="stroke:#181818;stroke-width:1.0;stroke-dasharray:2.0,2.0;" x1="35" x2="429.25" y1="2243.7588" y2="2243.7588"/><text fill="#000000" font-family="sans-serif" font-size="20" font-weight="bold" lengthAdjust="spacing" textLength="23.25" x="47" y="2235.8988">42</text><text fill="#000000" font-family="sans-serif" font-size="20" lengthAdjust="spacing" textLength="246" x="74.25" y="2235.8988">informs operation success</text><!--SRC=[jPR1Jzim5CRl_YiiJaKgqhGZOaYaR5AbLbY5iiik9dbTBTmuifqEzjVlsKwQE74AbvsWplTzVdd- -RNcLPGLr_mWLVuA1IrWnsjfVwZIFeg_GBz-8RosggmFBw09uRbLcbvi3UWBoWrT4pHRaOkAbvPUBFQy_0rC6RkqswLNR9VqvgRIOA2qt0fLtjvEUnQuhLPIDkcBfyqAtRogfCYJvfKmDbDS5u-WZo87RrjbZvjdz9cmblA4xI8JEsiQRP9zB0yw51NgmCMezb235x59aG-wVte8MVYFKrgLpcfrhAyZ1RVyXHkWFci3bJ82J_7T9sw-kxtrQH4D9tq8ZGqiON1KY2EtW3YGDRswTOT-ZUfNGwsYkGRtZ5Eqs2jXE_bsIGXAqU1F-fgMy6Vs4bSvzxP-6PTTWBCHxyMCSEp9a9x5gqW1WuMe38c4ECH_Qe6jaE0RPsQNPBHNFLQvfP8VOBHdyA3PD_sQxaHPt4bvvrID-QUm-tPZOA0FmXYaFfNfGeXFkkhLuz_Rz5_FwuXKgg8xlBhuO1zKXDAk8hHQXTI4nbtYiou0FsHUvAWAxOq5k8wV-tkELmYK1NLLaBOFNRl7HOU6XMQtE8rL_lJzoQ5ctIFEW8JSKhk7vbLx9iTSnsXGcfvq6axPpffmByp2Srrax-x4GkEMnH3EZXZMqNc6Q2-BMk4NHZ6EY6tbhwfiXgTfQvZJ58C-9zWnXtKChhYnq8x4z5ib4rq4OIS2cyB2kqNdn1881fbZy5JHYS7mB6ACuGVcLHCGiX5oYPK-X6m0OQBkqBAOmeJi_sFuGNWpLsckb2v4YIxpkQrInhujml_8fK3UOD69EppUvdHoBcUV0dyubhC8-oP3c0NWn3no8HttCtyTb_TKO0a2lmVVmfzHRXPJBtaFUFgD_Yh3FN2hpw3To7tO-Up4jOwnppwW_ZHXWmxUS8YOiFCiAcFKmtH3XhDpnwM1aIncrkeQpW9xWWf_eu7sQ5XX9L2rwtEIWAhTmXlDj7DwgjPkY3KJhECfzBCbQnv29sSh2tY543pFa3dpfb5VMNH8NKXJZ-77jffs3gMnRbZgwOUG364O7S7Wd4oTvs3EpnPHuWWz6AegqFuNSShbPmRfhwp9Fm00]--></g></svg>