<?xml version="1.0" encoding="UTF-8" standalone="no"?><svg xmlns="http://www.w3.org/2000/svg" xmlns:xlink="http://www.w3.org/1999/xlink" contentStyleType="text/css" height="1060px" preserveAspectRatio="none" style="width:1734px;height:1060px;background:#FFFFFF;" version="1.1" viewBox="0 0 1734 1060" width="1734px" zoomAndPan="magnify"><defs/><g><!--class BoardRepository--><g id="elem_BoardRepository"><rect codeLine="2" fill="#F1F1F1" height="80.4799" id="BoardRepository" rx="2.5" ry="2.5" style="stroke:#181818;stroke-width:0.5;" width="421" x="174.5" y="864"/><ellipse cx="307" cy="882.62" fill="#B4A7E5" rx="12" ry="12" style="stroke:#181818;stroke-width:1.0;"/><path d="M309.5781,890.12 L303.7969,890.12 L303.7969,888.5106 L305.4844,888.1356 L305.4844,877.2137 L303.7969,876.8231 L303.7969,875.2137 L309.5781,875.2137 L309.5781,876.8231 L307.9063,877.2137 L307.9063,888.1356 L309.5781,888.5106 L309.5781,890.12 Z " fill="#000000"/><text fill="#000000" font-family="sans-serif" font-size="20" font-style="italic" lengthAdjust="spacing" textLength="147" x="329" y="890.38">BoardRepository</text><line style="stroke:#181818;stroke-width:0.5;" x1="175.5" x2="594.5" y1="901.24" y2="901.24"/><line style="stroke:#181818;stroke-width:0.5;" x1="175.5" x2="594.5" y1="909.24" y2="909.24"/><text fill="#000000" font-family="sans-serif" font-size="20" font-style="italic" lengthAdjust="spacing" textLength="409" x="180.5" y="934.62">findAllActiveBoardsWithUserWritePermission()</text></g><!--class PostItRepository--><g id="elem_PostItRepository"><rect codeLine="6" fill="#F1F1F1" height="134.9599" id="PostItRepository" rx="2.5" ry="2.5" style="stroke:#181818;stroke-width:0.5;" width="486" x="756" y="836.5"/><ellipse cx="922.5" cy="855.12" fill="#B4A7E5" rx="12" ry="12" style="stroke:#181818;stroke-width:1.0;"/><path d="M925.0781,862.62 L919.2969,862.62 L919.2969,861.0106 L920.9844,860.6356 L920.9844,849.7137 L919.2969,849.3231 L919.2969,847.7137 L925.0781,847.7137 L925.0781,849.3231 L923.4063,849.7137 L923.4063,860.6356 L925.0781,861.0106 L925.0781,862.62 Z " fill="#000000"/><text fill="#000000" font-family="sans-serif" font-size="20" font-style="italic" lengthAdjust="spacing" textLength="144" x="944.5" y="862.88">PostItRepository</text><line style="stroke:#181818;stroke-width:0.5;" x1="757" x2="1241" y1="873.74" y2="873.74"/><line style="stroke:#181818;stroke-width:0.5;" x1="757" x2="1241" y1="881.74" y2="881.74"/><text fill="#000000" font-family="sans-serif" font-size="20" font-style="italic" lengthAdjust="spacing" textLength="474" x="762" y="907.12">findLastestPostItsCreatedByUser(boardId, username)</text><text fill="#000000" font-family="sans-serif" font-size="20" font-style="italic" lengthAdjust="spacing" textLength="313" x="762" y="934.3599">findLatestVersionOfBoard(boardId)</text><text fill="#000000" font-family="sans-serif" font-size="20" font-style="italic" lengthAdjust="spacing" textLength="103" x="762" y="961.5999">save(postIt)</text></g><!--class ListBoardService--><g id="elem_ListBoardService"><rect codeLine="12" fill="#F1F1F1" height="162.1999" id="ListBoardService" rx="2.5" ry="2.5" style="stroke:#181818;stroke-width:0.5;" width="347" x="294.5" y="505.5"/><ellipse cx="386.5" cy="524.12" fill="#ADD1B2" rx="12" ry="12" style="stroke:#181818;stroke-width:1.0;"/><path d="M386.625,518.7137 Q385.5469,518.7137 384.6875,519.0887 Q383.8281,519.4481 383.2344,520.1512 Q382.6406,520.8387 382.3125,521.8544 Q382,522.87 382,524.1669 Q382,525.87 382.5156,527.1044 Q383.0313,528.3231 384.0469,528.9794 Q385.0625,529.62 386.6094,529.62 Q387.5156,529.62 388.3281,529.4637 Q389.1406,529.3075 390.3281,528.9481 L390.3281,531.1512 Q389.2969,531.5262 388.4219,531.6669 Q387.5469,531.8231 386.3438,531.8231 Q384.0625,531.8231 382.5313,530.8856 Q381,529.9325 380.2344,528.1981 Q379.4688,526.4481 379.4688,524.1512 Q379.4688,522.4794 379.9375,521.0887 Q380.4063,519.6981 381.3125,518.6669 Q382.2344,517.62 383.5781,517.0731 Q384.9219,516.5106 386.6406,516.5106 Q387.7813,516.5106 388.8281,516.745 Q389.8906,516.9637 390.9844,517.5262 L390.0156,519.5887 Q389.0938,519.1825 388.3125,518.9481 Q387.5313,518.7137 386.625,518.7137 Z " fill="#000000"/><text fill="#000000" font-family="sans-serif" font-size="20" lengthAdjust="spacing" textLength="154" x="408.5" y="531.88">ListBoardService</text><line style="stroke:#181818;stroke-width:0.5;" x1="295.5" x2="640.5" y1="542.74" y2="542.74"/><rect fill="none" height="6" style="stroke:#C82930;stroke-width:1.0;" width="6" x="302.5" y="558.86"/><text fill="#000000" font-family="sans-serif" font-size="20" lengthAdjust="spacing" textLength="154" x="315.5" y="568.12">boardRepository</text><line style="stroke:#181818;stroke-width:0.5;" x1="295.5" x2="640.5" y1="577.9799" y2="577.9799"/><ellipse cx="305.5" cy="597.0999" fill="#84BE84" rx="3" ry="3" style="stroke:#038048;stroke-width:1.0;"/><text fill="#000000" font-family="sans-serif" font-size="20" lengthAdjust="spacing" textLength="320" x="315.5" y="603.3599">ListBoardService(boardRepository)</text><text fill="#000000" font-family="sans-serif" font-size="20" lengthAdjust="spacing" textLength="5" x="315.5" y="630.5999"> </text><ellipse cx="305.5" cy="651.5799" fill="#84BE84" rx="3" ry="3" style="stroke:#038048;stroke-width:1.0;"/><text fill="#000000" font-family="sans-serif" font-size="20" lengthAdjust="spacing" textLength="291" x="315.5" y="657.8399">userWritableBoards(username)</text></g><!--class ListPostItService--><g id="elem_ListPostItService"><rect codeLine="20" fill="#F1F1F1" height="189.4398" id="ListPostItService" rx="2.5" ry="2.5" style="stroke:#181818;stroke-width:0.5;" width="419" x="1082.5" y="492"/><ellipse cx="1211" cy="510.62" fill="#ADD1B2" rx="12" ry="12" style="stroke:#181818;stroke-width:1.0;"/><path d="M1211.125,505.2137 Q1210.0469,505.2137 1209.1875,505.5887 Q1208.3281,505.9481 1207.7344,506.6512 Q1207.1406,507.3387 1206.8125,508.3544 Q1206.5,509.37 1206.5,510.6669 Q1206.5,512.37 1207.0156,513.6044 Q1207.5313,514.8231 1208.5469,515.4794 Q1209.5625,516.12 1211.1094,516.12 Q1212.0156,516.12 1212.8281,515.9637 Q1213.6406,515.8075 1214.8281,515.4481 L1214.8281,517.6512 Q1213.7969,518.0262 1212.9219,518.1669 Q1212.0469,518.3231 1210.8438,518.3231 Q1208.5625,518.3231 1207.0313,517.3856 Q1205.5,516.4325 1204.7344,514.6981 Q1203.9688,512.9481 1203.9688,510.6512 Q1203.9688,508.9794 1204.4375,507.5887 Q1204.9063,506.1981 1205.8125,505.1669 Q1206.7344,504.12 1208.0781,503.5731 Q1209.4219,503.0106 1211.1406,503.0106 Q1212.2813,503.0106 1213.3281,503.245 Q1214.3906,503.4637 1215.4844,504.0262 L1214.5156,506.0887 Q1213.5938,505.6825 1212.8125,505.4481 Q1212.0313,505.2137 1211.125,505.2137 Z " fill="#000000"/><text fill="#000000" font-family="sans-serif" font-size="20" lengthAdjust="spacing" textLength="153" x="1233" y="518.38">ListPostItService</text><line style="stroke:#181818;stroke-width:0.5;" x1="1083.5" x2="1500.5" y1="529.24" y2="529.24"/><rect fill="none" height="6" style="stroke:#C82930;stroke-width:1.0;" width="6" x="1090.5" y="545.36"/><text fill="#000000" font-family="sans-serif" font-size="20" lengthAdjust="spacing" textLength="154" x="1103.5" y="554.62">boardRepository</text><rect fill="none" height="6" style="stroke:#C82930;stroke-width:1.0;" width="6" x="1090.5" y="572.5999"/><text fill="#000000" font-family="sans-serif" font-size="20" lengthAdjust="spacing" textLength="154" x="1103.5" y="581.8599">postItRepository</text><line style="stroke:#181818;stroke-width:0.5;" x1="1083.5" x2="1500.5" y1="591.7199" y2="591.7199"/><ellipse cx="1093.5" cy="610.8399" fill="#84BE84" rx="3" ry="3" style="stroke:#038048;stroke-width:1.0;"/><text fill="#000000" font-family="sans-serif" font-size="20" lengthAdjust="spacing" textLength="392" x="1103.5" y="617.0999">userUpdatablePostIts(boardId, username)</text><text fill="#000000" font-family="sans-serif" font-size="20" lengthAdjust="spacing" textLength="5" x="1103.5" y="644.3399"> </text><ellipse cx="1093.5" cy="665.3199" fill="#84BE84" rx="3" ry="3" style="stroke:#038048;stroke-width:1.0;"/><text fill="#000000" font-family="sans-serif" font-size="20" lengthAdjust="spacing" textLength="291" x="1103.5" y="671.5799">userWritableBoards(username)</text></g><!--class BoardService--><g id="elem_BoardService"><rect codeLine="29" fill="#F1F1F1" height="216.6798" id="BoardService" rx="2.5" ry="2.5" style="stroke:#181818;stroke-width:0.5;" width="370" x="677" y="478"/><ellipse cx="796.5" cy="496.62" fill="#ADD1B2" rx="12" ry="12" style="stroke:#181818;stroke-width:1.0;"/><path d="M796.625,491.2137 Q795.5469,491.2137 794.6875,491.5887 Q793.8281,491.9481 793.2344,492.6512 Q792.6406,493.3387 792.3125,494.3544 Q792,495.37 792,496.6669 Q792,498.37 792.5156,499.6044 Q793.0313,500.8231 794.0469,501.4794 Q795.0625,502.12 796.6094,502.12 Q797.5156,502.12 798.3281,501.9637 Q799.1406,501.8075 800.3281,501.4481 L800.3281,503.6512 Q799.2969,504.0262 798.4219,504.1669 Q797.5469,504.3231 796.3438,504.3231 Q794.0625,504.3231 792.5313,503.3856 Q791,502.4325 790.2344,500.6981 Q789.4688,498.9481 789.4688,496.6512 Q789.4688,494.9794 789.9375,493.5887 Q790.4063,492.1981 791.3125,491.1669 Q792.2344,490.12 793.5781,489.5731 Q794.9219,489.0106 796.6406,489.0106 Q797.7813,489.0106 798.8281,489.245 Q799.8906,489.4637 800.9844,490.0262 L800.0156,492.0887 Q799.0938,491.6825 798.3125,491.4481 Q797.5313,491.2137 796.625,491.2137 Z " fill="#000000"/><text fill="#000000" font-family="sans-serif" font-size="20" lengthAdjust="spacing" textLength="122" x="818.5" y="504.38">BoardService</text><line style="stroke:#181818;stroke-width:0.5;" x1="678" x2="1046" y1="515.24" y2="515.24"/><rect fill="none" height="6" style="stroke:#C82930;stroke-width:1.0;" width="6" x="685" y="531.36"/><text fill="#000000" font-family="sans-serif" font-size="20" lengthAdjust="spacing" textLength="154" x="698" y="540.62">boardRepository</text><rect fill="none" height="6" style="stroke:#C82930;stroke-width:1.0;" width="6" x="685" y="558.5999"/><text fill="#000000" font-family="sans-serif" font-size="20" lengthAdjust="spacing" textLength="154" x="698" y="567.8599">postItRepository</text><line style="stroke:#181818;stroke-width:0.5;" x1="678" x2="1046" y1="577.7199" y2="577.7199"/><ellipse cx="688" cy="596.8399" fill="#84BE84" rx="3" ry="3" style="stroke:#038048;stroke-width:1.0;"/><text fill="#000000" font-family="sans-serif" font-size="20" lengthAdjust="spacing" textLength="288" x="698" y="603.0999">BoardService(boardRepository)</text><text fill="#000000" font-family="sans-serif" font-size="20" lengthAdjust="spacing" textLength="5" x="698" y="630.3399"> </text><ellipse cx="688" cy="651.3199" fill="#84BE84" rx="3" ry="3" style="stroke:#038048;stroke-width:1.0;"/><text fill="#000000" font-family="sans-serif" font-size="20" lengthAdjust="spacing" textLength="343" x="698" y="657.5799">isCellAvailable(BoardID id, int x, int y)</text><ellipse cx="688" cy="678.5598" fill="#84BE84" rx="3" ry="3" style="stroke:#038048;stroke-width:1.0;"/><text fill="#000000" font-family="sans-serif" font-size="20" lengthAdjust="spacing" textLength="278" x="698" y="684.8198">existsPostIt(latestPostIts, x, y)</text></g><!--class ChangePostItUI--><g id="elem_ChangePostItUI"><rect codeLine="39" fill="#F1F1F1" height="53.24" id="ChangePostItUI" rx="2.5" ry="2.5" style="stroke:#181818;stroke-width:0.5;" width="182" x="771" y="7"/><ellipse cx="787" cy="25.62" fill="#ADD1B2" rx="12" ry="12" style="stroke:#181818;stroke-width:1.0;"/><path d="M787.125,20.2137 Q786.0469,20.2137 785.1875,20.5887 Q784.3281,20.9481 783.7344,21.6512 Q783.1406,22.3387 782.8125,23.3544 Q782.5,24.37 782.5,25.6669 Q782.5,27.37 783.0156,28.6044 Q783.5313,29.8231 784.5469,30.4794 Q785.5625,31.12 787.1094,31.12 Q788.0156,31.12 788.8281,30.9637 Q789.6406,30.8075 790.8281,30.4481 L790.8281,32.6512 Q789.7969,33.0262 788.9219,33.1669 Q788.0469,33.3231 786.8438,33.3231 Q784.5625,33.3231 783.0313,32.3856 Q781.5,31.4325 780.7344,29.6981 Q779.9688,27.9481 779.9688,25.6512 Q779.9688,23.9794 780.4375,22.5887 Q780.9063,21.1981 781.8125,20.1669 Q782.7344,19.12 784.0781,18.5731 Q785.4219,18.0106 787.1406,18.0106 Q788.2813,18.0106 789.3281,18.245 Q790.3906,18.4637 791.4844,19.0262 L790.5156,21.0887 Q789.5938,20.6825 788.8125,20.4481 Q788.0313,20.2137 787.125,20.2137 Z " fill="#000000"/><text fill="#000000" font-family="sans-serif" font-size="20" lengthAdjust="spacing" textLength="148" x="802" y="33.38">ChangePostItUI</text><line style="stroke:#181818;stroke-width:0.5;" x1="772" x2="952" y1="44.24" y2="44.24"/><line style="stroke:#181818;stroke-width:0.5;" x1="772" x2="952" y1="52.24" y2="52.24"/></g><!--class ChangePostItController--><g id="elem_ChangePostItController"><rect codeLine="41" fill="#F1F1F1" height="298.3997" id="ChangePostItController" rx="2.5" ry="2.5" style="stroke:#181818;stroke-width:0.5;" width="576" x="574" y="120"/><ellipse cx="748" cy="138.62" fill="#ADD1B2" rx="12" ry="12" style="stroke:#181818;stroke-width:1.0;"/><path d="M748.125,133.2137 Q747.0469,133.2137 746.1875,133.5887 Q745.3281,133.9481 744.7344,134.6512 Q744.1406,135.3387 743.8125,136.3544 Q743.5,137.37 743.5,138.6669 Q743.5,140.37 744.0156,141.6044 Q744.5313,142.8231 745.5469,143.4794 Q746.5625,144.12 748.1094,144.12 Q749.0156,144.12 749.8281,143.9637 Q750.6406,143.8075 751.8281,143.4481 L751.8281,145.6512 Q750.7969,146.0262 749.9219,146.1669 Q749.0469,146.3231 747.8438,146.3231 Q745.5625,146.3231 744.0313,145.3856 Q742.5,144.4325 741.7344,142.6981 Q740.9688,140.9481 740.9688,138.6512 Q740.9688,136.9794 741.4375,135.5887 Q741.9063,134.1981 742.8125,133.1669 Q743.7344,132.12 745.0781,131.5731 Q746.4219,131.0106 748.1406,131.0106 Q749.2813,131.0106 750.3281,131.245 Q751.3906,131.4637 752.4844,132.0262 L751.5156,134.0887 Q750.5938,133.6825 749.8125,133.4481 Q749.0313,133.2137 748.125,133.2137 Z " fill="#000000"/><text fill="#000000" font-family="sans-serif" font-size="20" lengthAdjust="spacing" textLength="219" x="770" y="146.38">ChangePostItController</text><line style="stroke:#181818;stroke-width:0.5;" x1="575" x2="1149" y1="157.24" y2="157.24"/><rect fill="none" height="6" style="stroke:#C82930;stroke-width:1.0;" width="6" x="582" y="173.36"/><text fill="#000000" font-family="sans-serif" font-size="20" lengthAdjust="spacing" textLength="154" x="595" y="182.62">boardRepository</text><rect fill="none" height="6" style="stroke:#C82930;stroke-width:1.0;" width="6" x="582" y="200.5999"/><text fill="#000000" font-family="sans-serif" font-size="20" lengthAdjust="spacing" textLength="154" x="595" y="209.8599">postItRepository</text><line style="stroke:#181818;stroke-width:0.5;" x1="575" x2="1149" y1="219.7199" y2="219.7199"/><ellipse cx="585" cy="238.8399" fill="#84BE84" rx="3" ry="3" style="stroke:#038048;stroke-width:1.0;"/><text fill="#000000" font-family="sans-serif" font-size="20" lengthAdjust="spacing" textLength="549" x="595" y="245.0999">ChangePostItController(boardRepository, postItRepository)</text><text fill="#000000" font-family="sans-serif" font-size="20" lengthAdjust="spacing" textLength="5" x="595" y="272.3399"> </text><ellipse cx="585" cy="293.3199" fill="#84BE84" rx="3" ry="3" style="stroke:#038048;stroke-width:1.0;"/><text fill="#000000" font-family="sans-serif" font-size="20" lengthAdjust="spacing" textLength="227" x="595" y="299.5799">listUserWritableBoards()</text><ellipse cx="585" cy="320.5598" fill="#84BE84" rx="3" ry="3" style="stroke:#038048;stroke-width:1.0;"/><text fill="#000000" font-family="sans-serif" font-size="20" lengthAdjust="spacing" textLength="374" x="595" y="326.8198">listBoardPostItsCreatedByUser(boardId)</text><ellipse cx="585" cy="347.7998" fill="#84BE84" rx="3" ry="3" style="stroke:#038048;stroke-width:1.0;"/><text fill="#000000" font-family="sans-serif" font-size="20" lengthAdjust="spacing" textLength="315" x="595" y="354.0598">validateCoordinates(boardID, x, y)</text><ellipse cx="585" cy="375.0398" fill="#84BE84" rx="3" ry="3" style="stroke:#038048;stroke-width:1.0;"/><text fill="#000000" font-family="sans-serif" font-size="20" lengthAdjust="spacing" textLength="376" x="595" y="381.2998">updatePostIt(boardId, postItId, x, y, title)</text><ellipse cx="585" cy="402.2798" fill="#84BE84" rx="3" ry="3" style="stroke:#038048;stroke-width:1.0;"/><text fill="#000000" font-family="sans-serif" font-size="20" lengthAdjust="spacing" textLength="164" x="595" y="408.5398">savePostIt(postIt)</text></g><!--class PostIt--><g id="elem_PostIt"><rect codeLine="54" fill="#F1F1F1" height="298.3997" id="PostIt" rx="2.5" ry="2.5" style="stroke:#181818;stroke-width:0.5;" width="180" x="1277" y="755"/><ellipse cx="1335" cy="773.62" fill="#ADD1B2" rx="12" ry="12" style="stroke:#181818;stroke-width:1.0;"/><path d="M1335.125,768.2137 Q1334.0469,768.2137 1333.1875,768.5887 Q1332.3281,768.9481 1331.7344,769.6512 Q1331.1406,770.3387 1330.8125,771.3544 Q1330.5,772.37 1330.5,773.6669 Q1330.5,775.37 1331.0156,776.6044 Q1331.5313,777.8231 1332.5469,778.4794 Q1333.5625,779.12 1335.1094,779.12 Q1336.0156,779.12 1336.8281,778.9637 Q1337.6406,778.8075 1338.8281,778.4481 L1338.8281,780.6512 Q1337.7969,781.0262 1336.9219,781.1669 Q1336.0469,781.3231 1334.8438,781.3231 Q1332.5625,781.3231 1331.0313,780.3856 Q1329.5,779.4325 1328.7344,777.6981 Q1327.9688,775.9481 1327.9688,773.6512 Q1327.9688,771.9794 1328.4375,770.5887 Q1328.9063,769.1981 1329.8125,768.1669 Q1330.7344,767.12 1332.0781,766.5731 Q1333.4219,766.0106 1335.1406,766.0106 Q1336.2813,766.0106 1337.3281,766.245 Q1338.3906,766.4637 1339.4844,767.0262 L1338.5156,769.0887 Q1337.5938,768.6825 1336.8125,768.4481 Q1336.0313,768.2137 1335.125,768.2137 Z " fill="#000000"/><text fill="#000000" font-family="sans-serif" font-size="20" lengthAdjust="spacing" textLength="55" x="1357" y="781.38">PostIt</text><line style="stroke:#181818;stroke-width:0.5;" x1="1278" x2="1456" y1="792.24" y2="792.24"/><rect fill="none" height="6" style="stroke:#C82930;stroke-width:1.0;" width="6" x="1285" y="808.36"/><text fill="#000000" font-family="sans-serif" font-size="20" lengthAdjust="spacing" textLength="35" x="1298" y="817.62">title</text><rect fill="none" height="6" style="stroke:#C82930;stroke-width:1.0;" width="6" x="1285" y="835.5999"/><text fill="#000000" font-family="sans-serif" font-size="20" lengthAdjust="spacing" textLength="110" x="1298" y="844.8599">coordinates</text><rect fill="none" height="6" style="stroke:#C82930;stroke-width:1.0;" width="6" x="1285" y="862.8399"/><text fill="#000000" font-family="sans-serif" font-size="20" lengthAdjust="spacing" textLength="41" x="1298" y="872.0999">user</text><rect fill="none" height="6" style="stroke:#C82930;stroke-width:1.0;" width="6" x="1285" y="890.0799"/><text fill="#000000" font-family="sans-serif" font-size="20" lengthAdjust="spacing" textLength="55" x="1298" y="899.3399">board</text><rect fill="none" height="6" style="stroke:#C82930;stroke-width:1.0;" width="6" x="1285" y="917.3199"/><text fill="#000000" font-family="sans-serif" font-size="20" lengthAdjust="spacing" textLength="46" x="1298" y="926.5799">state</text><text fill="#000000" font-family="sans-serif" font-size="20" lengthAdjust="spacing" textLength="5" x="1298" y="953.8198"> </text><rect fill="none" height="6" style="stroke:#C82930;stroke-width:1.0;" width="6" x="1285" y="971.7998"/><text fill="#000000" font-family="sans-serif" font-size="20" lengthAdjust="spacing" textLength="90" x="1298" y="981.0598">createdAt</text><rect fill="none" height="6" style="stroke:#C82930;stroke-width:1.0;" width="6" x="1285" y="999.0398"/><text fill="#000000" font-family="sans-serif" font-size="20" lengthAdjust="spacing" textLength="71" x="1298" y="1008.2998">isLatest</text><line style="stroke:#181818;stroke-width:0.5;" x1="1278" x2="1456" y1="1018.1598" y2="1018.1598"/><ellipse cx="1288" cy="1037.2798" fill="#84BE84" rx="3" ry="3" style="stroke:#038048;stroke-width:1.0;"/><text fill="#000000" font-family="sans-serif" font-size="20" lengthAdjust="spacing" textLength="153" x="1298" y="1043.5398">update(title, x, y)</text></g><!--class PostItDTO--><g id="elem_PostItDTO"><rect codeLine="67" fill="#F1F1F1" height="80.4799" id="PostItDTO" rx="2.5" ry="2.5" style="stroke:#181818;stroke-width:0.5;" width="131" x="1566.5" y="864"/><ellipse cx="1582.5" cy="882.62" fill="#ADD1B2" rx="12" ry="12" style="stroke:#181818;stroke-width:1.0;"/><path d="M1582.625,877.2137 Q1581.5469,877.2137 1580.6875,877.5887 Q1579.8281,877.9481 1579.2344,878.6512 Q1578.6406,879.3387 1578.3125,880.3544 Q1578,881.37 1578,882.6669 Q1578,884.37 1578.5156,885.6044 Q1579.0313,886.8231 1580.0469,887.4794 Q1581.0625,888.12 1582.6094,888.12 Q1583.5156,888.12 1584.3281,887.9637 Q1585.1406,887.8075 1586.3281,887.4481 L1586.3281,889.6512 Q1585.2969,890.0262 1584.4219,890.1669 Q1583.5469,890.3231 1582.3438,890.3231 Q1580.0625,890.3231 1578.5313,889.3856 Q1577,888.4325 1576.2344,886.6981 Q1575.4688,884.9481 1575.4688,882.6512 Q1575.4688,880.9794 1575.9375,879.5887 Q1576.4063,878.1981 1577.3125,877.1669 Q1578.2344,876.12 1579.5781,875.5731 Q1580.9219,875.0106 1582.6406,875.0106 Q1583.7813,875.0106 1584.8281,875.245 Q1585.8906,875.4637 1586.9844,876.0262 L1586.0156,878.0887 Q1585.0938,877.6825 1584.3125,877.4481 Q1583.5313,877.2137 1582.625,877.2137 Z " fill="#000000"/><text fill="#000000" font-family="sans-serif" font-size="20" lengthAdjust="spacing" textLength="97" x="1597.5" y="890.38">PostItDTO</text><line style="stroke:#181818;stroke-width:0.5;" x1="1567.5" x2="1696.5" y1="901.24" y2="901.24"/><line style="stroke:#181818;stroke-width:0.5;" x1="1567.5" x2="1696.5" y1="909.24" y2="909.24"/><ellipse cx="1577.5" cy="928.36" fill="#84BE84" rx="3" ry="3" style="stroke:#038048;stroke-width:1.0;"/><text fill="#000000" font-family="sans-serif" font-size="20" lengthAdjust="spacing" textLength="65" x="1587.5" y="934.62">toDto()</text></g><!--class BoardDTOParser--><g id="elem_BoardDTOParser"><rect codeLine="83" fill="#F1F1F1" height="107.7199" id="BoardDTOParser" rx="2.5" ry="2.5" style="stroke:#181818;stroke-width:0.5;" width="192" x="59" y="532.5"/><ellipse cx="75" cy="551.12" fill="#ADD1B2" rx="12" ry="12" style="stroke:#181818;stroke-width:1.0;"/><path d="M75.125,545.7137 Q74.0469,545.7137 73.1875,546.0887 Q72.3281,546.4481 71.7344,547.1512 Q71.1406,547.8387 70.8125,548.8544 Q70.5,549.87 70.5,551.1669 Q70.5,552.87 71.0156,554.1044 Q71.5313,555.3231 72.5469,555.9794 Q73.5625,556.62 75.1094,556.62 Q76.0156,556.62 76.8281,556.4637 Q77.6406,556.3075 78.8281,555.9481 L78.8281,558.1512 Q77.7969,558.5262 76.9219,558.6669 Q76.0469,558.8231 74.8438,558.8231 Q72.5625,558.8231 71.0313,557.8856 Q69.5,556.9325 68.7344,555.1981 Q67.9688,553.4481 67.9688,551.1512 Q67.9688,549.4794 68.4375,548.0887 Q68.9063,546.6981 69.8125,545.6669 Q70.7344,544.62 72.0781,544.0731 Q73.4219,543.5106 75.1406,543.5106 Q76.2813,543.5106 77.3281,543.745 Q78.3906,543.9637 79.4844,544.5262 L78.5156,546.5887 Q77.5938,546.1825 76.8125,545.9481 Q76.0313,545.7137 75.125,545.7137 Z " fill="#000000"/><text fill="#000000" font-family="sans-serif" font-size="20" lengthAdjust="spacing" textLength="158" x="90" y="558.88">BoardDTOParser</text><line style="stroke:#181818;stroke-width:0.5;" x1="60" x2="250" y1="569.74" y2="569.74"/><line style="stroke:#181818;stroke-width:0.5;" x1="60" x2="250" y1="577.74" y2="577.74"/><ellipse cx="70" cy="596.86" fill="#84BE84" rx="3" ry="3" style="stroke:#038048;stroke-width:1.0;"/><text fill="#000000" font-family="sans-serif" font-size="20" lengthAdjust="spacing" textLength="65" x="80" y="603.12">toDto()</text><ellipse cx="70" cy="624.0999" fill="#84BE84" rx="3" ry="3" style="stroke:#038048;stroke-width:1.0;"/><text fill="#000000" font-family="sans-serif" font-size="20" lengthAdjust="spacing" textLength="65" x="80" y="630.3599">toDto()</text></g><!--class Board--><g id="elem_Board"><rect codeLine="75" fill="#F1F1F1" height="53.24" id="Board" rx="2.5" ry="2.5" style="stroke:#181818;stroke-width:0.5;" width="90" x="631" y="877.5"/><ellipse cx="647" cy="896.12" fill="#ADD1B2" rx="12" ry="12" style="stroke:#181818;stroke-width:1.0;"/><path d="M647.125,890.7137 Q646.0469,890.7137 645.1875,891.0887 Q644.3281,891.4481 643.7344,892.1512 Q643.1406,892.8387 642.8125,893.8544 Q642.5,894.87 642.5,896.1669 Q642.5,897.87 643.0156,899.1044 Q643.5313,900.3231 644.5469,900.9794 Q645.5625,901.62 647.1094,901.62 Q648.0156,901.62 648.8281,901.4637 Q649.6406,901.3075 650.8281,900.9481 L650.8281,903.1512 Q649.7969,903.5262 648.9219,903.6669 Q648.0469,903.8231 646.8438,903.8231 Q644.5625,903.8231 643.0313,902.8856 Q641.5,901.9325 640.7344,900.1981 Q639.9688,898.4481 639.9688,896.1512 Q639.9688,894.4794 640.4375,893.0887 Q640.9063,891.6981 641.8125,890.6669 Q642.7344,889.62 644.0781,889.0731 Q645.4219,888.5106 647.1406,888.5106 Q648.2813,888.5106 649.3281,888.745 Q650.3906,888.9637 651.4844,889.5262 L650.5156,891.5887 Q649.5938,891.1825 648.8125,890.9481 Q648.0313,890.7137 647.125,890.7137 Z " fill="#000000"/><text fill="#000000" font-family="sans-serif" font-size="20" lengthAdjust="spacing" textLength="56" x="662" y="903.88">Board</text><line style="stroke:#181818;stroke-width:0.5;" x1="632" x2="720" y1="914.74" y2="914.74"/><line style="stroke:#181818;stroke-width:0.5;" x1="632" x2="720" y1="922.74" y2="922.74"/></g><!--class BoardDTO--><g id="elem_BoardDTO"><rect codeLine="79" fill="#F1F1F1" height="80.4799" id="BoardDTO" rx="2.5" ry="2.5" style="stroke:#181818;stroke-width:0.5;" width="132" x="7" y="864"/><ellipse cx="23" cy="882.62" fill="#ADD1B2" rx="12" ry="12" style="stroke:#181818;stroke-width:1.0;"/><path d="M23.125,877.2137 Q22.0469,877.2137 21.1875,877.5887 Q20.3281,877.9481 19.7344,878.6512 Q19.1406,879.3387 18.8125,880.3544 Q18.5,881.37 18.5,882.6669 Q18.5,884.37 19.0156,885.6044 Q19.5313,886.8231 20.5469,887.4794 Q21.5625,888.12 23.1094,888.12 Q24.0156,888.12 24.8281,887.9637 Q25.6406,887.8075 26.8281,887.4481 L26.8281,889.6512 Q25.7969,890.0262 24.9219,890.1669 Q24.0469,890.3231 22.8438,890.3231 Q20.5625,890.3231 19.0313,889.3856 Q17.5,888.4325 16.7344,886.6981 Q15.9688,884.9481 15.9688,882.6512 Q15.9688,880.9794 16.4375,879.5887 Q16.9063,878.1981 17.8125,877.1669 Q18.7344,876.12 20.0781,875.5731 Q21.4219,875.0106 23.1406,875.0106 Q24.2813,875.0106 25.3281,875.245 Q26.3906,875.4637 27.4844,876.0262 L26.5156,878.0887 Q25.5938,877.6825 24.8125,877.4481 Q24.0313,877.2137 23.125,877.2137 Z " fill="#000000"/><text fill="#000000" font-family="sans-serif" font-size="20" lengthAdjust="spacing" textLength="98" x="38" y="890.38">BoardDTO</text><line style="stroke:#181818;stroke-width:0.5;" x1="8" x2="138" y1="901.24" y2="901.24"/><line style="stroke:#181818;stroke-width:0.5;" x1="8" x2="138" y1="909.24" y2="909.24"/><ellipse cx="18" cy="928.36" fill="#84BE84" rx="3" ry="3" style="stroke:#038048;stroke-width:1.0;"/><text fill="#000000" font-family="sans-serif" font-size="20" lengthAdjust="spacing" textLength="65" x="28" y="934.62">toDto()</text></g><!--class PostItDTOParser--><g id="elem_PostItDTOParser"><rect fill="#F1F1F1" height="53.24" id="PostItDTOParser" rx="2.5" ry="2.5" style="stroke:#181818;stroke-width:0.5;" width="191" x="1536.5" y="560"/><ellipse cx="1552.5" cy="578.62" fill="#ADD1B2" rx="12" ry="12" style="stroke:#181818;stroke-width:1.0;"/><path d="M1552.625,573.2137 Q1551.5469,573.2137 1550.6875,573.5887 Q1549.8281,573.9481 1549.2344,574.6512 Q1548.6406,575.3387 1548.3125,576.3544 Q1548,577.37 1548,578.6669 Q1548,580.37 1548.5156,581.6044 Q1549.0313,582.8231 1550.0469,583.4794 Q1551.0625,584.12 1552.6094,584.12 Q1553.5156,584.12 1554.3281,583.9637 Q1555.1406,583.8075 1556.3281,583.4481 L1556.3281,585.6512 Q1555.2969,586.0262 1554.4219,586.1669 Q1553.5469,586.3231 1552.3438,586.3231 Q1550.0625,586.3231 1548.5313,585.3856 Q1547,584.4325 1546.2344,582.6981 Q1545.4688,580.9481 1545.4688,578.6512 Q1545.4688,576.9794 1545.9375,575.5887 Q1546.4063,574.1981 1547.3125,573.1669 Q1548.2344,572.12 1549.5781,571.5731 Q1550.9219,571.0106 1552.6406,571.0106 Q1553.7813,571.0106 1554.8281,571.245 Q1555.8906,571.4637 1556.9844,572.0262 L1556.0156,574.0887 Q1555.0938,573.6825 1554.3125,573.4481 Q1553.5313,573.2137 1552.625,573.2137 Z " fill="#000000"/><text fill="#000000" font-family="sans-serif" font-size="20" lengthAdjust="spacing" textLength="157" x="1567.5" y="586.38">PostItDTOParser</text><line style="stroke:#181818;stroke-width:0.5;" x1="1537.5" x2="1726.5" y1="597.24" y2="597.24"/><line style="stroke:#181818;stroke-width:0.5;" x1="1537.5" x2="1726.5" y1="605.24" y2="605.24"/></g><!--link ChangePostItUI to ChangePostItController--><g id="link_ChangePostItUI_ChangePostItController"><path codeLine="88" d="M862,60.38 C862,74.37 862,92.91 862,113.18 " fill="none" id="ChangePostItUI-to-ChangePostItController" style="stroke:#181818;stroke-width:1.0;stroke-dasharray:7.0,7.0;"/><polygon fill="#181818" points="862,118,866,109,862,113,858,109,862,118" style="stroke:#181818;stroke-width:1.0;"/></g><!--link ChangePostItController to ListBoardService--><g id="link_ChangePostItController_ListBoardService"><path codeLine="89" d="M676.83,418.28 C641.37,446.68 605.39,475.48 573.53,501 " fill="none" id="ChangePostItController-to-ListBoardService" style="stroke:#181818;stroke-width:1.0;"/><polygon fill="#181818" points="569.63,504.12,579.1532,501.6085,573.5302,500.9913,574.1473,495.3682,569.63,504.12" style="stroke:#181818;stroke-width:1.0;"/></g><!--link ChangePostItController to BoardService--><g id="link_ChangePostItController_BoardService"><path codeLine="90" d="M862,418.05 C862,436.02 862,454.15 862,471.52 " fill="none" id="ChangePostItController-to-BoardService" style="stroke:#181818;stroke-width:1.0;"/><polygon fill="#181818" points="862,476.37,866,467.37,862,471.37,858,467.37,862,476.37" style="stroke:#181818;stroke-width:1.0;"/></g><!--link ChangePostItController to ListPostItService--><g id="link_ChangePostItController_ListPostItService"><path codeLine="91" d="M1064.09,418.28 C1096.25,441.87 1128.78,465.74 1158.82,487.78 " fill="none" id="ChangePostItController-to-ListPostItService" style="stroke:#181818;stroke-width:1.0;"/><polygon fill="#181818" points="1162.78,490.69,1157.8918,482.1399,1158.7493,487.7313,1153.1579,488.5889,1162.78,490.69" style="stroke:#181818;stroke-width:1.0;"/></g><!--link ListBoardService to Board--><g id="link_ListBoardService_Board"><path codeLine="93" d="M546.46,667.84 C569.75,694.25 594.06,724.66 613,755 C636.43,792.53 654.99,840.3 665.73,871.25 " fill="none" id="ListBoardService-to-Board" style="stroke:#181818;stroke-width:1.0;stroke-dasharray:7.0,7.0;"/><polygon fill="#181818" points="667.28,875.78,668.1312,865.968,665.6518,871.0525,660.5673,868.5731,667.28,875.78" style="stroke:#181818;stroke-width:1.0;"/></g><!--link ListBoardService to BoardRepository--><g id="link_ListBoardService_BoardRepository"><path codeLine="94" d="M446.84,667.93 C431.04,727.98 410.02,807.9 397.01,857.37 " fill="none" id="ListBoardService-to-BoardRepository" style="stroke:#181818;stroke-width:1.0;"/><polygon fill="#181818" points="395.77,862.08,401.9299,854.3952,397.0432,857.2448,394.1936,852.3581,395.77,862.08" style="stroke:#181818;stroke-width:1.0;"/></g><!--link BoardService to PostItRepository--><g id="link_BoardService_PostItRepository"><path codeLine="95" d="M908.76,695.19 C928.12,739.77 950.06,790.3 967.46,830.37 " fill="none" id="BoardService-to-PostItRepository" style="stroke:#181818;stroke-width:1.0;"/><polygon fill="#181818" points="969.39,834.81,969.4955,824.9617,967.4084,830.2195,962.1506,828.1323,969.39,834.81" style="stroke:#181818;stroke-width:1.0;"/></g><!--link ListPostItService to PostItRepository--><g id="link_ListPostItService_PostItRepository"><path codeLine="96" d="M1204.88,681.31 C1160.2,729.42 1106.64,787.1 1065.35,831.55 " fill="none" id="ListPostItService-to-PostItRepository" style="stroke:#181818;stroke-width:1.0;"/><polygon fill="#181818" points="1062.17,834.98,1071.2281,831.1134,1065.575,831.3186,1065.3698,825.6654,1062.17,834.98" style="stroke:#181818;stroke-width:1.0;"/></g><!--link BoardService to PostIt--><g id="link_BoardService_PostIt"><path codeLine="98" d="M1047.46,687.48 C1053.34,690.08 1059.2,692.6 1065,695 C1148.77,729.71 1186.29,702.19 1260,755 C1264.08,757.92 1268.06,761.05 1271.94,764.34 " fill="none" id="BoardService-to-PostIt" style="stroke:#181818;stroke-width:1.0;stroke-dasharray:7.0,7.0;"/><polygon fill="#181818" points="1275.67,767.6,1271.5308,758.6632,1271.9071,764.3075,1266.2628,764.6838,1275.67,767.6" style="stroke:#181818;stroke-width:1.0;"/></g><!--link ListPostItService to PostIt--><g id="link_ListPostItService_PostIt"><path codeLine="99" d="M1314.3,681.31 C1319.33,702.48 1324.81,725.51 1330.26,748.45 " fill="none" id="ListPostItService-to-PostIt" style="stroke:#181818;stroke-width:1.0;stroke-dasharray:7.0,7.0;"/><polygon fill="#181818" points="1331.37,753.12,1333.1818,743.4392,1330.2145,748.2554,1325.3983,745.2881,1331.37,753.12" style="stroke:#181818;stroke-width:1.0;"/></g><!--link BoardService to Board--><g id="link_BoardService_Board"><path codeLine="100" d="M777.19,695.43 C763.63,714.76 750.34,735.09 739,755 C717.23,793.21 698.4,840.43 687.13,871.1 " fill="none" id="BoardService-to-Board" style="stroke:#181818;stroke-width:1.0;stroke-dasharray:7.0,7.0;"/><polygon fill="#181818" points="685.5,875.59,692.3487,868.5122,687.2179,870.8944,684.8357,865.7636,685.5,875.59" style="stroke:#181818;stroke-width:1.0;"/></g><!--link BoardDTOParser to BoardDTO--><g id="link_BoardDTOParser_BoardDTO"><path codeLine="101" d="M141.18,640.66 C125.37,701.49 99.75,800.08 84.82,857.5 " fill="none" id="BoardDTOParser-to-BoardDTO" style="stroke:#181818;stroke-width:1.0;stroke-dasharray:7.0,7.0;"/><polygon fill="#181818" points="83.62,862.15,89.753,854.4438,84.8763,857.3104,82.0097,852.4337,83.62,862.15" style="stroke:#181818;stroke-width:1.0;"/></g><!--link BoardDTOParser to Board--><g id="link_BoardDTOParser_Board"><path codeLine="102" d="M202.94,640.74 C223.78,660.75 249.67,681.81 277,695 C413.63,760.91 494.34,660.5 613,755 C648.99,783.66 664.75,836.73 671.41,870.92 " fill="none" id="BoardDTOParser-to-Board" style="stroke:#181818;stroke-width:1.0;stroke-dasharray:7.0,7.0;"/><polygon fill="#181818" points="672.28,875.58,674.5933,866.0067,671.3793,870.6618,666.7241,867.4478,672.28,875.58" style="stroke:#181818;stroke-width:1.0;"/></g><!--link PostItDTOParser to PostItDTO--><g id="link_PostItDTOParser_PostItDTO"><path codeLine="104" d="M1632,613.32 C1632,666.78 1632,790.21 1632,857.41 " fill="none" id="PostItDTOParser-to-PostItDTO" style="stroke:#181818;stroke-width:1.0;stroke-dasharray:7.0,7.0;"/><polygon fill="#181818" points="1632,862.22,1636,853.22,1632,857.22,1628,853.22,1632,862.22" style="stroke:#181818;stroke-width:1.0;"/></g><!--link PostItDTOParser to PostIt--><g id="link_PostItDTOParser_PostIt"><path codeLine="105" d="M1610.31,613.32 C1577.97,651.83 1515.13,726.65 1461.41,790.6 " fill="none" id="PostItDTOParser-to-PostIt" style="stroke:#181818;stroke-width:1.0;stroke-dasharray:7.0,7.0;"/><polygon fill="#181818" points="1458.21,794.41,1467.0604,790.0891,1461.425,790.5806,1460.9334,784.9452,1458.21,794.41" style="stroke:#181818;stroke-width:1.0;"/></g><!--SRC=[dLJRRjim37tNL-ZHHfDYs0SKI1qC252WmRgipuhDh48Lon0PerdGVvykhkrQjf7koJ9vI1uUKi9NMLR2YAFI-IiKl823E2dweKjwad-1V__6c2m9p47amE-rCCLFg3HAqkRCBuppYzWZ6P7JEp_8ibWfjSf9rk2n-2pfPOTWdeqas88vIaIfooHbx_t4MusqeVdC3m89a08KCmE2eBW_k-p9tXNR50j-id-bE48w5k_2VuDn11uFdjz7u02EeeQayeKyqLm9HFuWaNpK4vXQMjQEv9BlFul2hF4cmYO3L1fWfqOQiLUDO4dNmQV2eUtvoivM3PJiwkogGlX2ZO9Zeds1r1LAJFEvGXg96TXTgeLKZaZYGpPhBYrXkpZyBNpEgKV3czK8GsU94hr5MJZakKSyUn7bdqQ4tOPVHXsPlG16AmNcoxsDfnbskOYYcxwLRMGNJo1jdTumTmi2j1PAse53fhKfPEaaQG3h3qdyiDrMD6oxZGZStCaX5vmaAGW1xcuqyEY617kZc8_nfxoZuF_TDdMY-XEIzRA03ZsjoFz93FUMzTWcFdKqs51z_UlH4xZXfDUaa-7AMlzM66m6EuMoJciOnFrlNZPOkTlRkuajOHCxk5pUHK_A7FPQNFIoC1QzSewjDyIkjbJl3aI0uTlEukTi5COY5W4o4jzpJb0VZAXrMDEaZx5setgkrZRZPVy0]--></g></svg>