<?xml version="1.0" encoding="UTF-8" standalone="no"?><svg xmlns="http://www.w3.org/2000/svg" xmlns:xlink="http://www.w3.org/1999/xlink" contentStyleType="text/css" height="616px" preserveAspectRatio="none" style="width:512px;height:616px;background:#FFFFFF;" version="1.1" viewBox="0 0 512 616" width="512px" zoomAndPan="magnify"><defs/><g><rect fill="#FFFFFF" height="404.3997" style="stroke:#181818;stroke-width:1.0;" width="10" x="25" y="102.24"/><rect fill="#FFFFFF" height="41.24" style="stroke:#181818;stroke-width:1.0;" width="10" x="457.625" y="135.4799"/><rect fill="#FFFFFF" height="41.24" style="stroke:#181818;stroke-width:1.0;" width="10" x="457.625" y="217.9599"/><rect fill="#FFFFFF" height="41.24" style="stroke:#181818;stroke-width:1.0;" width="10" x="457.625" y="300.4398"/><rect fill="#FFFFFF" height="41.24" style="stroke:#181818;stroke-width:1.0;" width="10" x="457.625" y="382.9198"/><rect fill="#FFFFFF" height="50.24" style="stroke:#181818;stroke-width:1.0;" width="10" x="457.625" y="465.3997"/><line style="stroke:#181818;stroke-width:0.5;stroke-dasharray:5.0,5.0;" x1="30" x2="30" y1="92.24" y2="524.6397"/><line style="stroke:#181818;stroke-width:0.5;stroke-dasharray:5.0,5.0;" x1="462.125" x2="462.125" y1="92.24" y2="524.6397"/><text fill="#000000" font-family="sans-serif" font-size="20" lengthAdjust="spacing" textLength="44" x="5" y="86.38">User</text><ellipse cx="30" cy="13.5" fill="#E2E2F0" rx="8" ry="8" style="stroke:#181818;stroke-width:0.5;"/><path d="M30,21.5 L30,48.5 M17,29.5 L43,29.5 M30,48.5 L17,63.5 M30,48.5 L43,63.5 " fill="none" style="stroke:#181818;stroke-width:0.5;"/><text fill="#000000" font-family="sans-serif" font-size="20" lengthAdjust="spacing" textLength="44" x="5" y="545.0197">User</text><ellipse cx="30" cy="559.3797" fill="#E2E2F0" rx="8" ry="8" style="stroke:#181818;stroke-width:0.5;"/><path d="M30,567.3797 L30,594.3797 M17,575.3797 L43,575.3797 M30,594.3797 L17,609.3797 M30,594.3797 L43,609.3797 " fill="none" style="stroke:#181818;stroke-width:0.5;"/><rect fill="#E2E2F0" height="41.24" rx="2.5" ry="2.5" style="stroke:#181818;stroke-width:0.5;" width="87" x="419.125" y="50"/><text fill="#000000" font-family="sans-serif" font-size="20" lengthAdjust="spacing" textLength="73" x="426.125" y="78.38">:System</text><rect fill="#E2E2F0" height="41.24" rx="2.5" ry="2.5" style="stroke:#181818;stroke-width:0.5;" width="87" x="419.125" y="523.6397"/><text fill="#000000" font-family="sans-serif" font-size="20" lengthAdjust="spacing" textLength="73" x="426.125" y="552.0197">:System</text><rect fill="#FFFFFF" height="404.3997" style="stroke:#181818;stroke-width:1.0;" width="10" x="25" y="102.24"/><rect fill="#FFFFFF" height="41.24" style="stroke:#181818;stroke-width:1.0;" width="10" x="457.625" y="135.4799"/><rect fill="#FFFFFF" height="41.24" style="stroke:#181818;stroke-width:1.0;" width="10" x="457.625" y="217.9599"/><rect fill="#FFFFFF" height="41.24" style="stroke:#181818;stroke-width:1.0;" width="10" x="457.625" y="300.4398"/><rect fill="#FFFFFF" height="41.24" style="stroke:#181818;stroke-width:1.0;" width="10" x="457.625" y="382.9198"/><rect fill="#FFFFFF" height="50.24" style="stroke:#181818;stroke-width:1.0;" width="10" x="457.625" y="465.3997"/><polygon fill="#181818" points="445.625,131.4799,455.625,135.4799,445.625,139.4799,449.625,135.4799" style="stroke:#181818;stroke-width:1.0;"/><line style="stroke:#181818;stroke-width:1.0;" x1="35" x2="451.625" y1="135.4799" y2="135.4799"/><text fill="#000000" font-family="sans-serif" font-size="20" font-weight="bold" lengthAdjust="spacing" textLength="11.625" x="42" y="127.62">1</text><text fill="#000000" font-family="sans-serif" font-size="20" lengthAdjust="spacing" textLength="219" x="57.625" y="127.62">asks to change a post-it</text><polygon fill="#181818" points="46,172.7199,36,176.7199,46,180.7199,42,176.7199" style="stroke:#181818;stroke-width:1.0;"/><line style="stroke:#181818;stroke-width:1.0;stroke-dasharray:2.0,2.0;" x1="40" x2="461.625" y1="176.7199" y2="176.7199"/><text fill="#000000" font-family="sans-serif" font-size="20" font-weight="bold" lengthAdjust="spacing" textLength="11.625" x="52" y="168.8599">2</text><text fill="#000000" font-family="sans-serif" font-size="20" lengthAdjust="spacing" textLength="220" x="67.625" y="168.8599">asks to select the board</text><polygon fill="#181818" points="445.625,213.9599,455.625,217.9599,445.625,221.9599,449.625,217.9599" style="stroke:#181818;stroke-width:1.0;"/><line style="stroke:#181818;stroke-width:1.0;" x1="35" x2="451.625" y1="217.9599" y2="217.9599"/><text fill="#000000" font-family="sans-serif" font-size="20" font-weight="bold" lengthAdjust="spacing" textLength="11.625" x="42" y="210.0999">3</text><text fill="#000000" font-family="sans-serif" font-size="20" lengthAdjust="spacing" textLength="159" x="57.625" y="210.0999">selects the board</text><polygon fill="#181818" points="46,255.1999,36,259.1999,46,263.1999,42,259.1999" style="stroke:#181818;stroke-width:1.0;"/><line style="stroke:#181818;stroke-width:1.0;stroke-dasharray:2.0,2.0;" x1="40" x2="461.625" y1="259.1999" y2="259.1999"/><text fill="#000000" font-family="sans-serif" font-size="20" font-weight="bold" lengthAdjust="spacing" textLength="11.625" x="52" y="251.3399">4</text><text fill="#000000" font-family="sans-serif" font-size="20" lengthAdjust="spacing" textLength="320" x="67.625" y="251.3399">asks to select the post it to change</text><polygon fill="#181818" points="445.625,296.4398,455.625,300.4398,445.625,304.4398,449.625,300.4398" style="stroke:#181818;stroke-width:1.0;"/><line style="stroke:#181818;stroke-width:1.0;" x1="35" x2="451.625" y1="300.4398" y2="300.4398"/><text fill="#000000" font-family="sans-serif" font-size="20" font-weight="bold" lengthAdjust="spacing" textLength="11.625" x="42" y="292.5799">5</text><text fill="#000000" font-family="sans-serif" font-size="20" lengthAdjust="spacing" textLength="162" x="57.625" y="292.5799">selects the post it</text><polygon fill="#181818" points="46,337.6798,36,341.6798,46,345.6798,42,341.6798" style="stroke:#181818;stroke-width:1.0;"/><line style="stroke:#181818;stroke-width:1.0;stroke-dasharray:2.0,2.0;" x1="40" x2="461.625" y1="341.6798" y2="341.6798"/><text fill="#000000" font-family="sans-serif" font-size="20" font-weight="bold" lengthAdjust="spacing" textLength="11.625" x="52" y="333.8198">6</text><text fill="#000000" font-family="sans-serif" font-size="20" lengthAdjust="spacing" textLength="383" x="67.625" y="333.8198">asks to select the new post-it coordinates</text><polygon fill="#181818" points="445.625,378.9198,455.625,382.9198,445.625,386.9198,449.625,382.9198" style="stroke:#181818;stroke-width:1.0;"/><line style="stroke:#181818;stroke-width:1.0;" x1="35" x2="451.625" y1="382.9198" y2="382.9198"/><text fill="#000000" font-family="sans-serif" font-size="20" font-weight="bold" lengthAdjust="spacing" textLength="11.625" x="42" y="375.0598">7</text><text fill="#000000" font-family="sans-serif" font-size="20" lengthAdjust="spacing" textLength="278" x="57.625" y="375.0598">selects the post-it coordinates</text><polygon fill="#181818" points="46,420.1598,36,424.1598,46,428.1598,42,424.1598" style="stroke:#181818;stroke-width:1.0;"/><line style="stroke:#181818;stroke-width:1.0;stroke-dasharray:2.0,2.0;" x1="40" x2="461.625" y1="424.1598" y2="424.1598"/><text fill="#000000" font-family="sans-serif" font-size="20" font-weight="bold" lengthAdjust="spacing" textLength="11.625" x="52" y="416.2998">8</text><text fill="#000000" font-family="sans-serif" font-size="20" lengthAdjust="spacing" textLength="362" x="67.625" y="416.2998">asks to enter the new title of the post-it</text><polygon fill="#181818" points="445.625,461.3997,455.625,465.3997,445.625,469.3997,449.625,465.3997" style="stroke:#181818;stroke-width:1.0;"/><line style="stroke:#181818;stroke-width:1.0;" x1="35" x2="451.625" y1="465.3997" y2="465.3997"/><text fill="#000000" font-family="sans-serif" font-size="20" font-weight="bold" lengthAdjust="spacing" textLength="11.625" x="42" y="457.5398">9</text><text fill="#000000" font-family="sans-serif" font-size="20" lengthAdjust="spacing" textLength="257" x="57.625" y="457.5398">enters the title of the post-it</text><polygon fill="#181818" points="41,502.6397,31,506.6397,41,510.6397,37,506.6397" style="stroke:#181818;stroke-width:1.0;"/><line style="stroke:#181818;stroke-width:1.0;stroke-dasharray:2.0,2.0;" x1="35" x2="456.625" y1="506.6397" y2="506.6397"/><text fill="#000000" font-family="sans-serif" font-size="20" font-weight="bold" lengthAdjust="spacing" textLength="23.25" x="47" y="498.7797">10</text><text fill="#000000" font-family="sans-serif" font-size="20" lengthAdjust="spacing" textLength="246" x="74.25" y="498.7797">informs operation suscess</text><!--SRC=[dP0nRiCm34LtdUB3ku6YOuQElK2W0p0IdGYsHKEa6xIdhvEqiT5aSBq90j_ZaxHDUQ12VIUXvOZ83OsTlKksVVfYlBuuHwD97li3b-aSJ0eyI55vvL9Thz876SCxvr6_eThjFzMuhx2Rvbg52SA9yf5164IjJZPJzsddPh2UD7w1AtSS37PY78HAT96V2HxMtpXTW9ltNiAHR7xCbeOVoVQApEVVBqGGAJ7bIQDhMnvY_dh-5yRPkDoxB5d7a6OfNnrsLTswddhMXQNSIEaLCd0XIvAXemPMTSiGxxu1]--></g></svg>