<?xml version="1.0" encoding="UTF-8" standalone="no"?><svg xmlns="http://www.w3.org/2000/svg" xmlns:xlink="http://www.w3.org/1999/xlink" contentStyleType="text/css" height="533px" preserveAspectRatio="none" style="width:675px;height:533px;background:#FFFFFF;" version="1.1" viewBox="0 0 675 533" width="675px" zoomAndPan="magnify"><defs/><g><rect fill="#FFFFFF" height="321.9198" style="stroke:#181818;stroke-width:1.0;" width="10" x="39" y="102.24"/><rect fill="#FFFFFF" height="321.9198" style="stroke:#181818;stroke-width:1.0;" width="10" x="632.625" y="102.24"/><line style="stroke:#181818;stroke-width:0.5;stroke-dasharray:5.0,5.0;" x1="44" x2="44" y1="92.24" y2="442.1598"/><line style="stroke:#181818;stroke-width:0.5;stroke-dasharray:5.0,5.0;" x1="637.625" x2="637.625" y1="92.24" y2="442.1598"/><text fill="#000000" font-family="sans-serif" font-size="20" lengthAdjust="spacing" textLength="72" x="5" y="86.38">Student</text><ellipse cx="44" cy="13.5" fill="#E2E2F0" rx="8" ry="8" style="stroke:#181818;stroke-width:0.5;"/><path d="M44,21.5 L44,48.5 M31,29.5 L57,29.5 M44,48.5 L31,63.5 M44,48.5 L57,63.5 " fill="none" style="stroke:#181818;stroke-width:0.5;"/><text fill="#000000" font-family="sans-serif" font-size="20" lengthAdjust="spacing" textLength="72" x="5" y="462.5398">Student</text><ellipse cx="44" cy="476.8997" fill="#E2E2F0" rx="8" ry="8" style="stroke:#181818;stroke-width:0.5;"/><path d="M44,484.8997 L44,511.8997 M31,492.8997 L57,492.8997 M44,511.8997 L31,526.8997 M44,511.8997 L57,526.8997 " fill="none" style="stroke:#181818;stroke-width:0.5;"/><text fill="#000000" font-family="sans-serif" font-size="20" lengthAdjust="spacing" textLength="68" x="600.625" y="86.38">System</text><ellipse cx="637.625" cy="13.5" fill="#E2E2F0" rx="8" ry="8" style="stroke:#181818;stroke-width:0.5;"/><path d="M637.625,21.5 L637.625,48.5 M624.625,29.5 L650.625,29.5 M637.625,48.5 L624.625,63.5 M637.625,48.5 L650.625,63.5 " fill="none" style="stroke:#181818;stroke-width:0.5;"/><text fill="#000000" font-family="sans-serif" font-size="20" lengthAdjust="spacing" textLength="68" x="600.625" y="462.5398">System</text><ellipse cx="637.625" cy="476.8997" fill="#E2E2F0" rx="8" ry="8" style="stroke:#181818;stroke-width:0.5;"/><path d="M637.625,484.8997 L637.625,511.8997 M624.625,492.8997 L650.625,492.8997 M637.625,511.8997 L624.625,526.8997 M637.625,511.8997 L650.625,526.8997 " fill="none" style="stroke:#181818;stroke-width:0.5;"/><rect fill="#FFFFFF" height="321.9198" style="stroke:#181818;stroke-width:1.0;" width="10" x="39" y="102.24"/><rect fill="#FFFFFF" height="321.9198" style="stroke:#181818;stroke-width:1.0;" width="10" x="632.625" y="102.24"/><polygon fill="#181818" points="620.625,131.4799,630.625,135.4799,620.625,139.4799,624.625,135.4799" style="stroke:#181818;stroke-width:1.0;"/><line style="stroke:#181818;stroke-width:1.0;" x1="49" x2="626.625" y1="135.4799" y2="135.4799"/><text fill="#000000" font-family="sans-serif" font-size="20" font-weight="bold" lengthAdjust="spacing" textLength="11.625" x="56" y="127.62">1</text><text fill="#000000" font-family="sans-serif" font-size="20" lengthAdjust="spacing" textLength="446" x="71.625" y="127.62">The Student requests to take an formative exam</text><polygon fill="#181818" points="60,172.7199,50,176.7199,60,180.7199,56,176.7199" style="stroke:#181818;stroke-width:1.0;"/><line style="stroke:#181818;stroke-width:1.0;stroke-dasharray:2.0,2.0;" x1="54" x2="631.625" y1="176.7199" y2="176.7199"/><text fill="#000000" font-family="sans-serif" font-size="20" font-weight="bold" lengthAdjust="spacing" textLength="11.625" x="66" y="168.8599">2</text><text fill="#000000" font-family="sans-serif" font-size="20" lengthAdjust="spacing" textLength="321" x="81.625" y="168.8599">The System asks to select a course</text><polygon fill="#181818" points="620.625,213.9599,630.625,217.9599,620.625,221.9599,624.625,217.9599" style="stroke:#181818;stroke-width:1.0;"/><line style="stroke:#181818;stroke-width:1.0;" x1="49" x2="626.625" y1="217.9599" y2="217.9599"/><text fill="#000000" font-family="sans-serif" font-size="20" font-weight="bold" lengthAdjust="spacing" textLength="11.625" x="56" y="210.0999">3</text><text fill="#000000" font-family="sans-serif" font-size="20" lengthAdjust="spacing" textLength="264" x="71.625" y="210.0999">The Student selects a course</text><polygon fill="#181818" points="60,255.1999,50,259.1999,60,263.1999,56,259.1999" style="stroke:#181818;stroke-width:1.0;"/><line style="stroke:#181818;stroke-width:1.0;stroke-dasharray:2.0,2.0;" x1="54" x2="631.625" y1="259.1999" y2="259.1999"/><text fill="#000000" font-family="sans-serif" font-size="20" font-weight="bold" lengthAdjust="spacing" textLength="11.625" x="66" y="251.3399">4</text><text fill="#000000" font-family="sans-serif" font-size="20" lengthAdjust="spacing" textLength="322" x="81.625" y="251.3399">The System asks to select an exam</text><polygon fill="#181818" points="620.625,296.4398,630.625,300.4398,620.625,304.4398,624.625,300.4398" style="stroke:#181818;stroke-width:1.0;"/><line style="stroke:#181818;stroke-width:1.0;" x1="49" x2="626.625" y1="300.4398" y2="300.4398"/><text fill="#000000" font-family="sans-serif" font-size="20" font-weight="bold" lengthAdjust="spacing" textLength="11.625" x="56" y="292.5799">5</text><text fill="#000000" font-family="sans-serif" font-size="20" lengthAdjust="spacing" textLength="265" x="71.625" y="292.5799">The Student selects an exam</text><polygon fill="#181818" points="60,337.6798,50,341.6798,60,345.6798,56,341.6798" style="stroke:#181818;stroke-width:1.0;"/><line style="stroke:#181818;stroke-width:1.0;stroke-dasharray:2.0,2.0;" x1="54" x2="631.625" y1="341.6798" y2="341.6798"/><text fill="#000000" font-family="sans-serif" font-size="20" font-weight="bold" lengthAdjust="spacing" textLength="11.625" x="66" y="333.8198">6</text><text fill="#000000" font-family="sans-serif" font-size="20" lengthAdjust="spacing" textLength="421" x="81.625" y="333.8198">The System presents the exam to the Student</text><polygon fill="#181818" points="620.625,378.9198,630.625,382.9198,620.625,386.9198,624.625,382.9198" style="stroke:#181818;stroke-width:1.0;"/><line style="stroke:#181818;stroke-width:1.0;" x1="49" x2="626.625" y1="382.9198" y2="382.9198"/><text fill="#000000" font-family="sans-serif" font-size="20" font-weight="bold" lengthAdjust="spacing" textLength="11.625" x="56" y="375.0598">7</text><text fill="#000000" font-family="sans-serif" font-size="20" lengthAdjust="spacing" textLength="537" x="71.625" y="375.0598">The Student answers the questions and submits the exam</text><polygon fill="#181818" points="55,420.1598,45,424.1598,55,428.1598,51,424.1598" style="stroke:#181818;stroke-width:1.0;"/><line style="stroke:#181818;stroke-width:1.0;stroke-dasharray:2.0,2.0;" x1="49" x2="636.625" y1="424.1598" y2="424.1598"/><text fill="#000000" font-family="sans-serif" font-size="20" font-weight="bold" lengthAdjust="spacing" textLength="11.625" x="61" y="416.2998">8</text><text fill="#000000" font-family="sans-serif" font-size="20" lengthAdjust="spacing" textLength="544" x="76.625" y="416.2998">The System calculates the grade and feedback of the exam</text><!--SRC=[bP9DRiGW38NtEOML_KXLbrrqsGjCB-30ImUHm1IR_fs-2OGswYRJ7R9vttisY7VXoeddAHeFInOZvqcVOj2p-mBTttMSDOOy3qXTnqPZehDcYw34GlrsxblhKnHpxPHZNqJkZHLDjokKArtNWAV71dYWvykFW19UCqI5D9Ao1t6WCQQP5mu87xmogl2qCZRP1ccHVD4B9fWbEvcOa-3Ol0fah_YdLMWHRtKADyvqJP2bk9XTwXhAWdw9nvOSv1sf0igENGnh04kIXzdjqCTf34ycJykxLj5BOek26W4xiF4KnntEuky_s5Us0Ru1]--></g></svg>