<?xml version="1.0" encoding="UTF-8" standalone="no"?><svg xmlns="http://www.w3.org/2000/svg" xmlns:xlink="http://www.w3.org/1999/xlink" contentStyleType="text/css" height="542px" preserveAspectRatio="none" style="width:1451px;height:542px;background:#FFFFFF;" version="1.1" viewBox="0 0 1451 542" width="1451px" zoomAndPan="magnify"><defs/><g><rect fill="#FFFFFF" height="338.25" style="stroke:#181818;stroke-width:1.0;" width="10" x="25.5" y="98.2813"/><rect fill="#FFFFFF" height="338.25" style="stroke:#181818;stroke-width:1.0;" width="10" x="327.5" y="98.2813"/><rect fill="#FFFFFF" height="293.9688" style="stroke:#181818;stroke-width:1.0;" width="10" x="585.5" y="98.2813"/><rect fill="#FFFFFF" height="198.125" style="stroke:#181818;stroke-width:1.0;" width="10" x="796" y="194.125"/><rect fill="#FFFFFF" height="160.8438" style="stroke:#181818;stroke-width:1.0;" width="10" x="1049" y="231.4063"/><rect fill="#FFFFFF" height="115.5625" style="stroke:#181818;stroke-width:1.0;" width="10" x="1054" y="276.6875"/><rect fill="#FFFFFF" height="73.2813" style="stroke:#181818;stroke-width:1.0;" width="10" x="1264" y="318.9688"/><rect fill="#FFFFFF" height="28" style="stroke:#181818;stroke-width:1.0;" width="10" x="1269" y="364.25"/><line style="stroke:#181818;stroke-width:0.5;stroke-dasharray:5.0,5.0;" x1="30" x2="30" y1="88.2813" y2="454.5313"/><line style="stroke:#181818;stroke-width:0.5;stroke-dasharray:5.0,5.0;" x1="332" x2="332" y1="88.2813" y2="454.5313"/><line style="stroke:#181818;stroke-width:0.5;stroke-dasharray:5.0,5.0;" x1="590" x2="590" y1="88.2813" y2="454.5313"/><line style="stroke:#181818;stroke-width:0.5;stroke-dasharray:5.0,5.0;" x1="801" x2="801" y1="88.2813" y2="454.5313"/><line style="stroke:#181818;stroke-width:0.5;stroke-dasharray:5.0,5.0;" x1="1054" x2="1054" y1="88.2813" y2="454.5313"/><line style="stroke:#181818;stroke-width:0.5;stroke-dasharray:5.0,5.0;" x1="1269" x2="1269" y1="88.2813" y2="454.5313"/><text fill="#000000" font-family="sans-serif" font-size="20" lengthAdjust="spacing" textLength="45" x="5" y="83.5645">User</text><ellipse cx="30.5" cy="13.5" fill="#E2E2F0" rx="8" ry="8" style="stroke:#181818;stroke-width:0.5;"/><path d="M30.5,21.5 L30.5,48.5 M17.5,29.5 L43.5,29.5 M30.5,48.5 L17.5,63.5 M30.5,48.5 L43.5,63.5 " fill="none" style="stroke:#181818;stroke-width:0.5;"/><text fill="#000000" font-family="sans-serif" font-size="20" lengthAdjust="spacing" textLength="45" x="5" y="472.0957">User</text><ellipse cx="30.5" cy="485.3125" fill="#E2E2F0" rx="8" ry="8" style="stroke:#181818;stroke-width:0.5;"/><path d="M30.5,493.3125 L30.5,520.3125 M17.5,501.3125 L43.5,501.3125 M30.5,520.3125 L17.5,535.3125 M30.5,520.3125 L43.5,535.3125 " fill="none" style="stroke:#181818;stroke-width:0.5;"/><rect fill="#E2E2F0" height="60.5625" rx="2.5" ry="2.5" style="stroke:#181818;stroke-width:0.5;" width="209" x="228" y="26.7188"/><text fill="#000000" font-family="sans-serif" font-size="20" font-style="italic" lengthAdjust="spacing" textLength="151" x="257" y="52.2832">«presentation»</text><text fill="#000000" font-family="sans-serif" font-size="20" lengthAdjust="spacing" textLength="195" x="235" y="75.5645">ScheduleMeetingUI</text><rect fill="#E2E2F0" height="60.5625" rx="2.5" ry="2.5" style="stroke:#181818;stroke-width:0.5;" width="209" x="228" y="453.5313"/><text fill="#000000" font-family="sans-serif" font-size="20" font-style="italic" lengthAdjust="spacing" textLength="151" x="257" y="479.0957">«presentation»</text><text fill="#000000" font-family="sans-serif" font-size="20" lengthAdjust="spacing" textLength="195" x="235" y="502.377">ScheduleMeetingUI</text><rect fill="#E2E2F0" height="60.5625" rx="2.5" ry="2.5" style="stroke:#181818;stroke-width:0.5;" width="287" x="447" y="26.7188"/><text fill="#000000" font-family="sans-serif" font-size="20" font-style="italic" lengthAdjust="spacing" textLength="136" x="522.5" y="52.2832">«application»</text><text fill="#000000" font-family="sans-serif" font-size="20" lengthAdjust="spacing" textLength="273" x="454" y="75.5645">ScheduleMeetingController</text><rect fill="#E2E2F0" height="60.5625" rx="2.5" ry="2.5" style="stroke:#181818;stroke-width:0.5;" width="287" x="447" y="453.5313"/><text fill="#000000" font-family="sans-serif" font-size="20" font-style="italic" lengthAdjust="spacing" textLength="136" x="522.5" y="479.0957">«application»</text><text fill="#000000" font-family="sans-serif" font-size="20" lengthAdjust="spacing" textLength="273" x="454" y="502.377">ScheduleMeetingController</text><rect fill="#E2E2F0" height="60.5625" rx="2.5" ry="2.5" style="stroke:#181818;stroke-width:0.5;" width="114" x="744" y="26.7188"/><text fill="#000000" font-family="sans-serif" font-size="20" font-style="italic" lengthAdjust="spacing" textLength="100" x="751" y="52.2832">«domain»</text><text fill="#000000" font-family="sans-serif" font-size="20" lengthAdjust="spacing" textLength="45" x="778.5" y="75.5645">User</text><rect fill="#E2E2F0" height="60.5625" rx="2.5" ry="2.5" style="stroke:#181818;stroke-width:0.5;" width="114" x="744" y="453.5313"/><text fill="#000000" font-family="sans-serif" font-size="20" font-style="italic" lengthAdjust="spacing" textLength="100" x="751" y="479.0957">«domain»</text><text fill="#000000" font-family="sans-serif" font-size="20" lengthAdjust="spacing" textLength="45" x="778.5" y="502.377">User</text><rect fill="#E2E2F0" height="60.5625" rx="2.5" ry="2.5" style="stroke:#181818;stroke-width:0.5;" width="180" x="964" y="26.7188"/><text fill="#000000" font-family="sans-serif" font-size="20" font-style="italic" lengthAdjust="spacing" textLength="100" x="1004" y="52.2832">«domain»</text><text fill="#000000" font-family="sans-serif" font-size="20" lengthAdjust="spacing" textLength="166" x="971" y="75.5645">ConcreteSubject</text><rect fill="#E2E2F0" height="60.5625" rx="2.5" ry="2.5" style="stroke:#181818;stroke-width:0.5;" width="180" x="964" y="453.5313"/><text fill="#000000" font-family="sans-serif" font-size="20" font-style="italic" lengthAdjust="spacing" textLength="100" x="1004" y="479.0957">«domain»</text><text fill="#000000" font-family="sans-serif" font-size="20" lengthAdjust="spacing" textLength="166" x="971" y="502.377">ConcreteSubject</text><rect fill="#E2E2F0" height="60.5625" rx="2.5" ry="2.5" style="stroke:#181818;stroke-width:0.5;" width="114" x="1212" y="26.7188"/><text fill="#000000" font-family="sans-serif" font-size="20" font-style="italic" lengthAdjust="spacing" textLength="100" x="1219" y="52.2832">«domain»</text><text fill="#000000" font-family="sans-serif" font-size="20" lengthAdjust="spacing" textLength="90" x="1224" y="75.5645">Observer</text><rect fill="#E2E2F0" height="60.5625" rx="2.5" ry="2.5" style="stroke:#181818;stroke-width:0.5;" width="114" x="1212" y="453.5313"/><text fill="#000000" font-family="sans-serif" font-size="20" font-style="italic" lengthAdjust="spacing" textLength="100" x="1219" y="479.0957">«domain»</text><text fill="#000000" font-family="sans-serif" font-size="20" lengthAdjust="spacing" textLength="90" x="1224" y="502.377">Observer</text><rect fill="#FFFFFF" height="338.25" style="stroke:#181818;stroke-width:1.0;" width="10" x="25.5" y="98.2813"/><rect fill="#FFFFFF" height="338.25" style="stroke:#181818;stroke-width:1.0;" width="10" x="327.5" y="98.2813"/><rect fill="#FFFFFF" height="293.9688" style="stroke:#181818;stroke-width:1.0;" width="10" x="585.5" y="98.2813"/><rect fill="#FFFFFF" height="198.125" style="stroke:#181818;stroke-width:1.0;" width="10" x="796" y="194.125"/><rect fill="#FFFFFF" height="160.8438" style="stroke:#181818;stroke-width:1.0;" width="10" x="1049" y="231.4063"/><rect fill="#FFFFFF" height="115.5625" style="stroke:#181818;stroke-width:1.0;" width="10" x="1054" y="276.6875"/><rect fill="#FFFFFF" height="73.2813" style="stroke:#181818;stroke-width:1.0;" width="10" x="1264" y="318.9688"/><rect fill="#FFFFFF" height="28" style="stroke:#181818;stroke-width:1.0;" width="10" x="1269" y="364.25"/><path d="M160,103.2813 L160,159.2813 L504,159.2813 L504,113.2813 L494,103.2813 L160,103.2813 " fill="#FEFFDD" style="stroke:#181818;stroke-width:0.5;"/><path d="M494,103.2813 L494,113.2813 L504,113.2813 L494,103.2813 " fill="#FEFFDD" style="stroke:#181818;stroke-width:0.5;"/><text fill="#000000" font-family="sans-serif" font-size="20" lengthAdjust="spacing" textLength="323" x="166" y="126.8457">the previous steps were omitted</text><text fill="#000000" font-family="sans-serif" font-size="20" lengthAdjust="spacing" textLength="315" x="166" y="150.127">to make it easier to understand</text><polygon fill="#181818" points="784,190.125,794,194.125,784,198.125,788,194.125" style="stroke:#181818;stroke-width:1.0;"/><line style="stroke:#181818;stroke-width:1.0;" x1="595.5" x2="790" y1="194.125" y2="194.125"/><text fill="#000000" font-family="sans-serif" font-size="20" font-weight="bold" lengthAdjust="spacing" textLength="14" x="602.5" y="187.4082">1</text><text fill="#000000" font-family="sans-serif" font-size="20" lengthAdjust="spacing" textLength="130" x="620.5" y="187.4082">sendInvites()</text><polygon fill="#181818" points="1037,227.4063,1047,231.4063,1037,235.4063,1041,231.4063" style="stroke:#181818;stroke-width:1.0;"/><line style="stroke:#181818;stroke-width:1.0;" x1="806" x2="1043" y1="231.4063" y2="231.4063"/><text fill="#000000" font-family="sans-serif" font-size="20" font-weight="bold" lengthAdjust="spacing" textLength="14" x="813" y="224.6895">2</text><text fill="#000000" font-family="sans-serif" font-size="20" lengthAdjust="spacing" textLength="206" x="831" y="224.6895">setState(someState)</text><line style="stroke:#181818;stroke-width:1.0;" x1="1059" x2="1106" y1="263.6875" y2="263.6875"/><line style="stroke:#181818;stroke-width:1.0;" x1="1106" x2="1106" y1="263.6875" y2="276.6875"/><line style="stroke:#181818;stroke-width:1.0;" x1="1065" x2="1106" y1="276.6875" y2="276.6875"/><polygon fill="#181818" points="1075,272.6875,1065,276.6875,1075,280.6875,1071,276.6875" style="stroke:#181818;stroke-width:1.0;"/><text fill="#000000" font-family="sans-serif" font-size="20" font-weight="bold" lengthAdjust="spacing" textLength="14" x="1071" y="256.9707">3</text><text fill="#000000" font-family="sans-serif" font-size="20" lengthAdjust="spacing" textLength="173" x="1089" y="256.9707">notifyObservers()</text><polygon fill="#181818" points="1252,314.9688,1262,318.9688,1252,322.9688,1256,318.9688" style="stroke:#181818;stroke-width:1.0;"/><line style="stroke:#181818;stroke-width:1.0;" x1="1064" x2="1258" y1="318.9688" y2="318.9688"/><text fill="#000000" font-family="sans-serif" font-size="20" font-weight="bold" lengthAdjust="spacing" textLength="14" x="1071" y="312.252">4</text><text fill="#000000" font-family="sans-serif" font-size="20" lengthAdjust="spacing" textLength="87" x="1089" y="312.252">update()</text><line style="stroke:#181818;stroke-width:1.0;" x1="1279" x2="1321" y1="356.25" y2="356.25"/><line style="stroke:#181818;stroke-width:1.0;" x1="1321" x2="1321" y1="356.25" y2="369.25"/><line style="stroke:#181818;stroke-width:1.0;" x1="1280" x2="1321" y1="369.25" y2="369.25"/><polygon fill="#181818" points="1290,365.25,1280,369.25,1290,373.25,1286,369.25" style="stroke:#181818;stroke-width:1.0;"/><text fill="#000000" font-family="sans-serif" font-size="20" font-weight="bold" lengthAdjust="spacing" textLength="14" x="1286" y="349.5332">5</text><text fill="#000000" font-family="sans-serif" font-size="20" lengthAdjust="spacing" textLength="140" x="1304" y="349.5332">updateState()</text><polygon fill="#181818" points="41.5,432.5313,31.5,436.5313,41.5,440.5313,37.5,436.5313" style="stroke:#181818;stroke-width:1.0;"/><line style="stroke:#181818;stroke-width:1.0;stroke-dasharray:2.0,2.0;" x1="35.5" x2="331.5" y1="436.5313" y2="436.5313"/><text fill="#000000" font-family="sans-serif" font-size="20" font-weight="bold" lengthAdjust="spacing" textLength="14" x="47.5" y="429.8145">6</text><text fill="#000000" font-family="sans-serif" font-size="20" lengthAdjust="spacing" textLength="250" x="65.5" y="429.8145">informs operation sucess</text><!--SRC=[VPB1Ri8m38RlUGgB4noGfXqHuZ2qIPKs8P7n024n8wDDeiJfj3tzd9QDmc0znSxdt_QVfeDrGKNLr5uVq831dSerFNb7qduXtDy9bScxt6mn2g4q-GYZJS8u0fLW8mHNazKsA4SmadgF9jVuWaZMlMsgdgfWFWyH4pfIPBrRBFujMtBtwElws6Jvkdvc0HL2RVNL-jCyyd7DgF6DidyebjKH2MNUlgEcNblUn5TRLcsFmgk7Cx1pmhQAi5XmEbT2ECy7ptKb0g0z0g_UMfyJ9CAGu0CZ4uqbGbC83uqw85W2LCbo8MUoCnWJAMS4EWD5TD2dE294vyjqqIyz0tRNLAwrX6ay6Gx5rq9q4CEyS459yalWEFa6kzDa82vPMlwotDhkFd_CAD9No6BF378mHNH0S5w8Sdd1zDqlGODdyUrmUHbrto3LxpnaEiVOXWgcnJAUnBgTZqq27p1sVnMah36bCvtgN5Py0m00]--></g></svg>