<?xml version="1.0" encoding="UTF-8" standalone="no"?><svg xmlns="http://www.w3.org/2000/svg" xmlns:xlink="http://www.w3.org/1999/xlink" contentStyleType="text/css" height="1106px" preserveAspectRatio="none" style="width:2366px;height:1106px;background:#FFFFFF;" version="1.1" viewBox="0 0 2366 1106" width="2366px" zoomAndPan="magnify"><defs/><g><rect fill="#FFFFFF" height="856.0796" style="stroke:#181818;stroke-width:1.0;" width="10" x="25.5" y="115.4799"/><rect fill="#FFFFFF" height="41.24" style="stroke:#181818;stroke-width:1.0;" width="10" x="716.75" y="148.7199"/><rect fill="#FFFFFF" height="153.7199" style="stroke:#181818;stroke-width:1.0;" width="10" x="716.75" y="231.1999"/><rect fill="#FFFFFF" height="153.7199" style="stroke:#181818;stroke-width:1.0;" width="10" x="716.75" y="426.1598"/><rect fill="#FFFFFF" height="350.4398" style="stroke:#181818;stroke-width:1.0;" width="10" x="716.75" y="621.1197"/><rect fill="#FFFFFF" height="71.24" style="stroke:#181818;stroke-width:1.0;" width="10" x="1016.375" y="272.4398"/><rect fill="#FFFFFF" height="71.24" style="stroke:#181818;stroke-width:1.0;" width="10" x="1016.375" y="467.3997"/><rect fill="#FFFFFF" height="318.1999" style="stroke:#181818;stroke-width:1.0;" width="10" x="1016.375" y="662.3596"/><rect fill="#FFFFFF" height="76.24" style="stroke:#181818;stroke-width:1.0;" width="10" x="1021.375" y="854.0796"/><rect fill="#FFFFFF" height="30" style="stroke:#181818;stroke-width:1.0;" width="10" x="1292.875" y="313.6798"/><rect fill="#FFFFFF" height="30" style="stroke:#181818;stroke-width:1.0;" width="10" x="1481.375" y="703.5996"/><rect fill="#FFFFFF" height="30" style="stroke:#181818;stroke-width:1.0;" width="10" x="1850.875" y="508.6397"/><rect fill="#FFFFFF" height="30" style="stroke:#181818;stroke-width:1.0;" width="10" x="2092.375" y="774.8396"/><rect fill="#FFFFFF" height="30" style="stroke:#181818;stroke-width:1.0;" width="10" x="2278.875" y="900.3195"/><line style="stroke:#181818;stroke-width:0.5;stroke-dasharray:5.0,5.0;" x1="30" x2="30" y1="105.4799" y2="989.5595"/><line style="stroke:#181818;stroke-width:0.5;stroke-dasharray:5.0,5.0;" x1="721.25" x2="721.25" y1="105.4799" y2="989.5595"/><line style="stroke:#181818;stroke-width:0.5;stroke-dasharray:5.0,5.0;" x1="1020.875" x2="1020.875" y1="105.4799" y2="989.5595"/><line style="stroke:#181818;stroke-width:0.5;stroke-dasharray:5.0,5.0;" x1="1297.875" x2="1297.875" y1="105.4799" y2="989.5595"/><line style="stroke:#181818;stroke-width:0.5;stroke-dasharray:5.0,5.0;" x1="1485.875" x2="1485.875" y1="105.4799" y2="989.5595"/><line style="stroke:#181818;stroke-width:0.5;stroke-dasharray:5.0,5.0;" x1="1627.875" x2="1627.875" y1="105.4799" y2="989.5595"/><line style="stroke:#181818;stroke-width:0.5;stroke-dasharray:5.0,5.0;" x1="1855.875" x2="1855.875" y1="105.4799" y2="989.5595"/><line style="stroke:#181818;stroke-width:0.5;stroke-dasharray:5.0,5.0;" x1="2096.875" x2="2096.875" y1="105.4799" y2="989.5595"/><line style="stroke:#181818;stroke-width:0.5;stroke-dasharray:5.0,5.0;" x1="2283.875" x2="2283.875" y1="105.4799" y2="989.5595"/><text fill="#000000" font-family="sans-serif" font-size="20" lengthAdjust="spacing" textLength="45" x="5" y="99.62">User</text><ellipse cx="30.5" cy="26.74" fill="#E2E2F0" rx="8" ry="8" style="stroke:#181818;stroke-width:0.5;"/><path d="M30.5,34.74 L30.5,61.74 M17.5,42.74 L43.5,42.74 M30.5,61.74 L17.5,76.74 M30.5,61.74 L43.5,76.74 " fill="none" style="stroke:#181818;stroke-width:0.5;"/><text fill="#000000" font-family="sans-serif" font-size="20" lengthAdjust="spacing" textLength="45" x="5" y="1009.9395">User</text><ellipse cx="30.5" cy="1024.2995" fill="#E2E2F0" rx="8" ry="8" style="stroke:#181818;stroke-width:0.5;"/><path d="M30.5,1032.2995 L30.5,1059.2995 M17.5,1040.2995 L43.5,1040.2995 M30.5,1059.2995 L17.5,1074.2995 M30.5,1059.2995 L43.5,1074.2995 " fill="none" style="stroke:#181818;stroke-width:0.5;"/><rect fill="#E2E2F0" height="68.4799" rx="2.5" ry="2.5" style="stroke:#181818;stroke-width:0.5;" width="203" x="620.25" y="36"/><text fill="#000000" font-family="sans-serif" font-size="20" font-style="italic" lengthAdjust="spacing" textLength="134" x="654.75" y="64.38">«presentation»</text><text fill="#000000" font-family="sans-serif" font-size="20" lengthAdjust="spacing" textLength="189" x="627.25" y="91.62">ScheduleMeetingUI</text><rect fill="#E2E2F0" height="68.4799" rx="2.5" ry="2.5" style="stroke:#181818;stroke-width:0.5;" width="203" x="620.25" y="988.5595"/><text fill="#000000" font-family="sans-serif" font-size="20" font-style="italic" lengthAdjust="spacing" textLength="134" x="654.75" y="1016.9395">«presentation»</text><text fill="#000000" font-family="sans-serif" font-size="20" lengthAdjust="spacing" textLength="189" x="627.25" y="1044.1795">ScheduleMeetingUI</text><rect fill="#E2E2F0" height="68.4799" rx="2.5" ry="2.5" style="stroke:#181818;stroke-width:0.5;" width="279" x="881.875" y="36"/><text fill="#000000" font-family="sans-serif" font-size="20" font-style="italic" lengthAdjust="spacing" textLength="120" x="961.375" y="64.38">«application»</text><text fill="#000000" font-family="sans-serif" font-size="20" lengthAdjust="spacing" textLength="265" x="888.875" y="91.62">ScheduleMeetingController</text><rect fill="#E2E2F0" height="68.4799" rx="2.5" ry="2.5" style="stroke:#181818;stroke-width:0.5;" width="279" x="881.875" y="988.5595"/><text fill="#000000" font-family="sans-serif" font-size="20" font-style="italic" lengthAdjust="spacing" textLength="120" x="961.375" y="1016.9395">«application»</text><text fill="#000000" font-family="sans-serif" font-size="20" lengthAdjust="spacing" textLength="265" x="888.875" y="1044.1795">ScheduleMeetingController</text><rect fill="#E2E2F0" height="68.4799" rx="2.5" ry="2.5" style="stroke:#181818;stroke-width:0.5;" width="254" x="1170.875" y="36"/><text fill="#000000" font-family="sans-serif" font-size="20" font-style="italic" lengthAdjust="spacing" textLength="80" x="1257.875" y="64.38">«service»</text><text fill="#000000" font-family="sans-serif" font-size="20" lengthAdjust="spacing" textLength="240" x="1177.875" y="91.62">UserManagementService</text><rect fill="#E2E2F0" height="68.4799" rx="2.5" ry="2.5" style="stroke:#181818;stroke-width:0.5;" width="254" x="1170.875" y="988.5595"/><text fill="#000000" font-family="sans-serif" font-size="20" font-style="italic" lengthAdjust="spacing" textLength="80" x="1257.875" y="1016.9395">«service»</text><text fill="#000000" font-family="sans-serif" font-size="20" lengthAdjust="spacing" textLength="240" x="1177.875" y="1044.1795">UserManagementService</text><rect fill="#E2E2F0" height="68.4799" rx="2.5" ry="2.5" style="stroke:#181818;stroke-width:0.5;" width="103" x="1434.875" y="36"/><text fill="#000000" font-family="sans-serif" font-size="20" font-style="italic" lengthAdjust="spacing" textLength="89" x="1441.875" y="64.38">«domain»</text><text fill="#000000" font-family="sans-serif" font-size="20" lengthAdjust="spacing" textLength="80" x="1446.375" y="91.62">Meeting</text><rect fill="#E2E2F0" height="68.4799" rx="2.5" ry="2.5" style="stroke:#181818;stroke-width:0.5;" width="103" x="1434.875" y="988.5595"/><text fill="#000000" font-family="sans-serif" font-size="20" font-style="italic" lengthAdjust="spacing" textLength="89" x="1441.875" y="1016.9395">«domain»</text><text fill="#000000" font-family="sans-serif" font-size="20" lengthAdjust="spacing" textLength="80" x="1446.375" y="1044.1795">Meeting</text><rect fill="#E2E2F0" height="68.4799" rx="2.5" ry="2.5" style="stroke:#181818;stroke-width:0.5;" width="161" x="1547.875" y="36"/><text fill="#000000" font-family="sans-serif" font-size="20" font-style="italic" lengthAdjust="spacing" textLength="80" x="1588.375" y="64.38">«service»</text><text fill="#000000" font-family="sans-serif" font-size="20" lengthAdjust="spacing" textLength="147" x="1554.875" y="91.62">MeetingService</text><rect fill="#E2E2F0" height="68.4799" rx="2.5" ry="2.5" style="stroke:#181818;stroke-width:0.5;" width="161" x="1547.875" y="988.5595"/><text fill="#000000" font-family="sans-serif" font-size="20" font-style="italic" lengthAdjust="spacing" textLength="80" x="1588.375" y="1016.9395">«service»</text><text fill="#000000" font-family="sans-serif" font-size="20" lengthAdjust="spacing" textLength="147" x="1554.875" y="1044.1795">MeetingService</text><rect fill="#E2E2F0" height="68.4799" rx="2.5" ry="2.5" style="stroke:#181818;stroke-width:0.5;" width="274" x="1718.875" y="36"/><text fill="#000000" font-family="sans-serif" font-size="20" font-style="italic" lengthAdjust="spacing" textLength="80" x="1815.875" y="64.38">«service»</text><text fill="#000000" font-family="sans-serif" font-size="20" lengthAdjust="spacing" textLength="260" x="1725.875" y="91.62">ScheduleAvailabilityService</text><rect fill="#E2E2F0" height="68.4799" rx="2.5" ry="2.5" style="stroke:#181818;stroke-width:0.5;" width="274" x="1718.875" y="988.5595"/><text fill="#000000" font-family="sans-serif" font-size="20" font-style="italic" lengthAdjust="spacing" textLength="80" x="1815.875" y="1016.9395">«service»</text><text fill="#000000" font-family="sans-serif" font-size="20" lengthAdjust="spacing" textLength="260" x="1725.875" y="1044.1795">ScheduleAvailabilityService</text><text fill="#000000" font-family="sans-serif" font-size="20" font-style="italic" lengthAdjust="spacing" textLength="110" x="2039.375" y="72.38">«repository»</text><text fill="#000000" font-family="sans-serif" font-size="20" lengthAdjust="spacing" textLength="183" x="2002.875" y="99.62">MeetingRepository</text><path d="M2079.375,15 C2079.375,5 2097.375,5 2097.375,5 C2097.375,5 2115.375,5 2115.375,15 L2115.375,41 C2115.375,51 2097.375,51 2097.375,51 C2097.375,51 2079.375,51 2079.375,41 L2079.375,15 " fill="#E2E2F0" style="stroke:#181818;stroke-width:1.5;"/><path d="M2079.375,15 C2079.375,25 2097.375,25 2097.375,25 C2097.375,25 2115.375,25 2115.375,15 " fill="none" style="stroke:#181818;stroke-width:1.5;"/><text fill="#000000" font-family="sans-serif" font-size="20" font-style="italic" lengthAdjust="spacing" textLength="110" x="2039.375" y="1009.9395">«repository»</text><text fill="#000000" font-family="sans-serif" font-size="20" lengthAdjust="spacing" textLength="183" x="2002.875" y="1037.1795">MeetingRepository</text><path d="M2079.375,1053.0395 C2079.375,1043.0395 2097.375,1043.0395 2097.375,1043.0395 C2097.375,1043.0395 2115.375,1043.0395 2115.375,1053.0395 L2115.375,1079.0395 C2115.375,1089.0395 2097.375,1089.0395 2097.375,1089.0395 C2097.375,1089.0395 2079.375,1089.0395 2079.375,1079.0395 L2079.375,1053.0395 " fill="#E2E2F0" style="stroke:#181818;stroke-width:1.5;"/><path d="M2079.375,1053.0395 C2079.375,1063.0395 2097.375,1063.0395 2097.375,1063.0395 C2097.375,1063.0395 2115.375,1063.0395 2115.375,1053.0395 " fill="none" style="stroke:#181818;stroke-width:1.5;"/><text fill="#000000" font-family="sans-serif" font-size="20" font-style="italic" lengthAdjust="spacing" textLength="110" x="2225.875" y="72.38">«repository»</text><text fill="#000000" font-family="sans-serif" font-size="20" lengthAdjust="spacing" textLength="158" x="2201.875" y="99.62">InviteRepository</text><path d="M2265.875,15 C2265.875,5 2283.875,5 2283.875,5 C2283.875,5 2301.875,5 2301.875,15 L2301.875,41 C2301.875,51 2283.875,51 2283.875,51 C2283.875,51 2265.875,51 2265.875,41 L2265.875,15 " fill="#E2E2F0" style="stroke:#181818;stroke-width:1.5;"/><path d="M2265.875,15 C2265.875,25 2283.875,25 2283.875,25 C2283.875,25 2301.875,25 2301.875,15 " fill="none" style="stroke:#181818;stroke-width:1.5;"/><text fill="#000000" font-family="sans-serif" font-size="20" font-style="italic" lengthAdjust="spacing" textLength="110" x="2225.875" y="1009.9395">«repository»</text><text fill="#000000" font-family="sans-serif" font-size="20" lengthAdjust="spacing" textLength="158" x="2201.875" y="1037.1795">InviteRepository</text><path d="M2265.875,1053.0395 C2265.875,1043.0395 2283.875,1043.0395 2283.875,1043.0395 C2283.875,1043.0395 2301.875,1043.0395 2301.875,1053.0395 L2301.875,1079.0395 C2301.875,1089.0395 2283.875,1089.0395 2283.875,1089.0395 C2283.875,1089.0395 2265.875,1089.0395 2265.875,1079.0395 L2265.875,1053.0395 " fill="#E2E2F0" style="stroke:#181818;stroke-width:1.5;"/><path d="M2265.875,1053.0395 C2265.875,1063.0395 2283.875,1063.0395 2283.875,1063.0395 C2283.875,1063.0395 2301.875,1063.0395 2301.875,1053.0395 " fill="none" style="stroke:#181818;stroke-width:1.5;"/><rect fill="#FFFFFF" height="856.0796" style="stroke:#181818;stroke-width:1.0;" width="10" x="25.5" y="115.4799"/><rect fill="#FFFFFF" height="41.24" style="stroke:#181818;stroke-width:1.0;" width="10" x="716.75" y="148.7199"/><rect fill="#FFFFFF" height="153.7199" style="stroke:#181818;stroke-width:1.0;" width="10" x="716.75" y="231.1999"/><rect fill="#FFFFFF" height="153.7199" style="stroke:#181818;stroke-width:1.0;" width="10" x="716.75" y="426.1598"/><rect fill="#FFFFFF" height="350.4398" style="stroke:#181818;stroke-width:1.0;" width="10" x="716.75" y="621.1197"/><rect fill="#FFFFFF" height="71.24" style="stroke:#181818;stroke-width:1.0;" width="10" x="1016.375" y="272.4398"/><rect fill="#FFFFFF" height="71.24" style="stroke:#181818;stroke-width:1.0;" width="10" x="1016.375" y="467.3997"/><rect fill="#FFFFFF" height="318.1999" style="stroke:#181818;stroke-width:1.0;" width="10" x="1016.375" y="662.3596"/><rect fill="#FFFFFF" height="76.24" style="stroke:#181818;stroke-width:1.0;" width="10" x="1021.375" y="854.0796"/><rect fill="#FFFFFF" height="30" style="stroke:#181818;stroke-width:1.0;" width="10" x="1292.875" y="313.6798"/><rect fill="#FFFFFF" height="30" style="stroke:#181818;stroke-width:1.0;" width="10" x="1481.375" y="703.5996"/><rect fill="#FFFFFF" height="30" style="stroke:#181818;stroke-width:1.0;" width="10" x="1850.875" y="508.6397"/><rect fill="#FFFFFF" height="30" style="stroke:#181818;stroke-width:1.0;" width="10" x="2092.375" y="774.8396"/><rect fill="#FFFFFF" height="30" style="stroke:#181818;stroke-width:1.0;" width="10" x="2278.875" y="900.3195"/><polygon fill="#181818" points="704.75,144.7199,714.75,148.7199,704.75,152.7199,708.75,148.7199" style="stroke:#181818;stroke-width:1.0;"/><line style="stroke:#181818;stroke-width:1.0;" x1="35.5" x2="710.75" y1="148.7199" y2="148.7199"/><text fill="#000000" font-family="sans-serif" font-size="20" font-weight="bold" lengthAdjust="spacing" textLength="11.625" x="42.5" y="140.8599">1</text><text fill="#000000" font-family="sans-serif" font-size="20" lengthAdjust="spacing" textLength="262" x="58.125" y="140.8599">Asks to schedule a meeting</text><polygon fill="#181818" points="46.5,185.9599,36.5,189.9599,46.5,193.9599,42.5,189.9599" style="stroke:#181818;stroke-width:1.0;"/><line style="stroke:#181818;stroke-width:1.0;stroke-dasharray:2.0,2.0;" x1="40.5" x2="720.75" y1="189.9599" y2="189.9599"/><text fill="#000000" font-family="sans-serif" font-size="20" font-weight="bold" lengthAdjust="spacing" textLength="11.625" x="52.5" y="182.0999">2</text><text fill="#000000" font-family="sans-serif" font-size="20" lengthAdjust="spacing" textLength="465" x="68.125" y="182.0999">requests the data needed to schedule a meeting</text><polygon fill="#181818" points="704.75,227.1999,714.75,231.1999,704.75,235.1999,708.75,231.1999" style="stroke:#181818;stroke-width:1.0;"/><line style="stroke:#181818;stroke-width:1.0;" x1="35.5" x2="710.75" y1="231.1999" y2="231.1999"/><text fill="#000000" font-family="sans-serif" font-size="20" font-weight="bold" lengthAdjust="spacing" textLength="11.625" x="42.5" y="223.3399">3</text><text fill="#000000" font-family="sans-serif" font-size="20" lengthAdjust="spacing" textLength="241" x="58.125" y="223.3399">types the requested data</text><polygon fill="#181818" points="1004.375,268.4398,1014.375,272.4398,1004.375,276.4398,1008.375,272.4398" style="stroke:#181818;stroke-width:1.0;"/><line style="stroke:#181818;stroke-width:1.0;" x1="726.75" x2="1010.375" y1="272.4398" y2="272.4398"/><text fill="#000000" font-family="sans-serif" font-size="20" font-weight="bold" lengthAdjust="spacing" textLength="11.625" x="733.75" y="264.5799">4</text><text fill="#000000" font-family="sans-serif" font-size="20" lengthAdjust="spacing" textLength="99" x="749.375" y="264.5799">getUsers()</text><polygon fill="#181818" points="1280.875,309.6798,1290.875,313.6798,1280.875,317.6798,1284.875,313.6798" style="stroke:#181818;stroke-width:1.0;"/><line style="stroke:#181818;stroke-width:1.0;" x1="1026.375" x2="1286.875" y1="313.6798" y2="313.6798"/><text fill="#000000" font-family="sans-serif" font-size="20" font-weight="bold" lengthAdjust="spacing" textLength="11.625" x="1033.375" y="305.8198">5</text><text fill="#000000" font-family="sans-serif" font-size="20" lengthAdjust="spacing" textLength="90" x="1049" y="305.8198">allUsers()</text><polygon fill="#181818" points="46.5,380.9198,36.5,384.9198,46.5,388.9198,42.5,384.9198" style="stroke:#181818;stroke-width:1.0;"/><line style="stroke:#181818;stroke-width:1.0;stroke-dasharray:2.0,2.0;" x1="40.5" x2="720.75" y1="384.9198" y2="384.9198"/><text fill="#000000" font-family="sans-serif" font-size="20" font-weight="bold" lengthAdjust="spacing" textLength="11.625" x="52.5" y="377.0598">6</text><text fill="#000000" font-family="sans-serif" font-size="20" lengthAdjust="spacing" textLength="306" x="68.125" y="377.0598">asks to select the users to invite</text><polygon fill="#181818" points="704.75,422.1598,714.75,426.1598,704.75,430.1598,708.75,426.1598" style="stroke:#181818;stroke-width:1.0;"/><line style="stroke:#181818;stroke-width:1.0;" x1="35.5" x2="710.75" y1="426.1598" y2="426.1598"/><text fill="#000000" font-family="sans-serif" font-size="20" font-weight="bold" lengthAdjust="spacing" textLength="11.625" x="42.5" y="418.2998">7</text><text fill="#000000" font-family="sans-serif" font-size="20" lengthAdjust="spacing" textLength="244" x="58.125" y="418.2998">selects the users to invite</text><polygon fill="#181818" points="1004.375,463.3997,1014.375,467.3997,1004.375,471.3997,1008.375,467.3997" style="stroke:#181818;stroke-width:1.0;"/><line style="stroke:#181818;stroke-width:1.0;" x1="726.75" x2="1010.375" y1="467.3997" y2="467.3997"/><text fill="#000000" font-family="sans-serif" font-size="20" font-weight="bold" lengthAdjust="spacing" textLength="11.625" x="733.75" y="459.5398">8</text><text fill="#000000" font-family="sans-serif" font-size="20" lengthAdjust="spacing" textLength="255" x="749.375" y="459.5398">checkIfUsersAreAvailable()</text><polygon fill="#181818" points="1838.875,504.6397,1848.875,508.6397,1838.875,512.6397,1842.875,508.6397" style="stroke:#181818;stroke-width:1.0;"/><line style="stroke:#181818;stroke-width:1.0;" x1="1026.375" x2="1844.875" y1="508.6397" y2="508.6397"/><text fill="#000000" font-family="sans-serif" font-size="20" font-weight="bold" lengthAdjust="spacing" textLength="11.625" x="1033.375" y="500.7797">9</text><text fill="#000000" font-family="sans-serif" font-size="20" lengthAdjust="spacing" textLength="155" x="1049" y="500.7797">areAllAvailable()</text><polygon fill="#181818" points="46.5,575.8797,36.5,579.8797,46.5,583.8797,42.5,579.8797" style="stroke:#181818;stroke-width:1.0;"/><line style="stroke:#181818;stroke-width:1.0;stroke-dasharray:2.0,2.0;" x1="40.5" x2="720.75" y1="579.8797" y2="579.8797"/><text fill="#000000" font-family="sans-serif" font-size="20" font-weight="bold" lengthAdjust="spacing" textLength="23.25" x="52.5" y="572.0197">10</text><text fill="#000000" font-family="sans-serif" font-size="20" lengthAdjust="spacing" textLength="630" x="79.75" y="572.0197">informs if the data is valid and if all users can attend the meeting</text><polygon fill="#181818" points="704.75,617.1197,714.75,621.1197,704.75,625.1197,708.75,621.1197" style="stroke:#181818;stroke-width:1.0;"/><line style="stroke:#181818;stroke-width:1.0;" x1="35.5" x2="710.75" y1="621.1197" y2="621.1197"/><text fill="#000000" font-family="sans-serif" font-size="20" font-weight="bold" lengthAdjust="spacing" textLength="23.25" x="42.5" y="613.2597">11</text><text fill="#000000" font-family="sans-serif" font-size="20" lengthAdjust="spacing" textLength="171" x="69.75" y="613.2597">confirms the data</text><polygon fill="#181818" points="1004.375,658.3596,1014.375,662.3596,1004.375,666.3596,1008.375,662.3596" style="stroke:#181818;stroke-width:1.0;"/><line style="stroke:#181818;stroke-width:1.0;" x1="726.75" x2="1010.375" y1="662.3596" y2="662.3596"/><text fill="#000000" font-family="sans-serif" font-size="20" font-weight="bold" lengthAdjust="spacing" textLength="23.25" x="733.75" y="654.4997">12</text><text fill="#000000" font-family="sans-serif" font-size="20" lengthAdjust="spacing" textLength="178" x="761" y="654.4997">scheduleMeeting()</text><polygon fill="#181818" points="1469.375,699.5996,1479.375,703.5996,1469.375,707.5996,1473.375,703.5996" style="stroke:#181818;stroke-width:1.0;"/><line style="stroke:#181818;stroke-width:1.0;" x1="1026.375" x2="1475.375" y1="703.5996" y2="703.5996"/><text fill="#000000" font-family="sans-serif" font-size="20" font-weight="bold" lengthAdjust="spacing" textLength="23.25" x="1033.375" y="695.7396">13</text><text fill="#000000" font-family="sans-serif" font-size="20" lengthAdjust="spacing" textLength="52" x="1060.625" y="695.7396">new()</text><polygon fill="#181818" points="2080.375,770.8396,2090.375,774.8396,2080.375,778.8396,2084.375,774.8396" style="stroke:#181818;stroke-width:1.0;"/><line style="stroke:#181818;stroke-width:1.0;" x1="1026.375" x2="2086.375" y1="774.8396" y2="774.8396"/><text fill="#000000" font-family="sans-serif" font-size="20" font-weight="bold" lengthAdjust="spacing" textLength="23.25" x="1033.375" y="766.9796">14</text><text fill="#000000" font-family="sans-serif" font-size="20" lengthAdjust="spacing" textLength="134" x="1060.625" y="766.9796">saveMeeting()</text><line style="stroke:#181818;stroke-width:1.0;" x1="1026.375" x2="1073.375" y1="841.0796" y2="841.0796"/><line style="stroke:#181818;stroke-width:1.0;" x1="1073.375" x2="1073.375" y1="841.0796" y2="854.0796"/><line style="stroke:#181818;stroke-width:1.0;" x1="1032.375" x2="1073.375" y1="854.0796" y2="854.0796"/><polygon fill="#181818" points="1042.375,850.0796,1032.375,854.0796,1042.375,858.0796,1038.375,854.0796" style="stroke:#181818;stroke-width:1.0;"/><text fill="#000000" font-family="sans-serif" font-size="20" font-weight="bold" lengthAdjust="spacing" textLength="23.25" x="1038.375" y="833.2196">15</text><text fill="#000000" font-family="sans-serif" font-size="20" lengthAdjust="spacing" textLength="124" x="1065.625" y="833.2196">sendInvites()</text><polygon fill="#181818" points="2266.875,896.3195,2276.875,900.3195,2266.875,904.3195,2270.875,900.3195" style="stroke:#181818;stroke-width:1.0;"/><line style="stroke:#181818;stroke-width:1.0;" x1="1031.375" x2="2272.875" y1="900.3195" y2="900.3195"/><text fill="#000000" font-family="sans-serif" font-size="20" font-weight="bold" lengthAdjust="spacing" textLength="23.25" x="1038.375" y="892.4596">16</text><text fill="#000000" font-family="sans-serif" font-size="20" lengthAdjust="spacing" textLength="109" x="1065.625" y="892.4596">saveInvite()</text><polygon fill="#181818" points="41.5,967.5595,31.5,971.5595,41.5,975.5595,37.5,971.5595" style="stroke:#181818;stroke-width:1.0;"/><line style="stroke:#181818;stroke-width:1.0;stroke-dasharray:2.0,2.0;" x1="35.5" x2="720.75" y1="971.5595" y2="971.5595"/><text fill="#000000" font-family="sans-serif" font-size="20" font-weight="bold" lengthAdjust="spacing" textLength="23.25" x="47.5" y="963.6995">17</text><text fill="#000000" font-family="sans-serif" font-size="20" lengthAdjust="spacing" textLength="245" x="74.75" y="963.6995">informs operation sucess</text><!--SRC=[XLHBRzim3BxxLn0vROS2muv14I0eki70qeFJ_016fbCYikHAieViru_o8x6JE3sI-XvysVx8faA7fRRgI3daL62jmozhmfR_4VpyaM0ThAdBFRaaGHMiWyNEari0UjWbYR03AwxG15XirGVbjQODKM1psAKTAeNdvygH9nCmi3MhrKFQYxWxgtLlylAU_H41h2hDwYu_rhD1WmSgnM9Bhc55dVLcArJVPQvflLqBtBo-lgTllmMSsnBPp637se-aXuxM3RB6FMiEfp5tkvwIanm3xj4Jz4OPLTQpJFlKMcM2TkUK4Cxur3GSQ0fFR-1nSznWeBYo7JojubAMiFP73y62xyi5XBBp7n5IOQJm53b2SVHPamz2-o28LO0XokLqxilaD1KwMuTJHPr8hnYlJ-HkZLVT1IpXG25ksd_xVW75foHf0L5PTh84rFe69o-JMYGSnvtCg4qS9aEQL6ZhhADcp74xyldMEew_IvhlJcQdZcdHLhvsm-Leckys7f5KAbYjxy85CAxoAhpfcKrXNUc1YyjosKE3cdD0ayS7cMtVaq836099FgA_NBYofk0eFsW_c8MV_X3cHp1yjakvmhzZMFymBcT8NSXPjCBcdiqccr2p2sieKHhllhq7zvWE3Xro34md1jDeTZEs8jV-0S7NYho_dlOuJFu3]--></g></svg>