<?xml version="1.0" encoding="UTF-8" standalone="no"?><svg xmlns="http://www.w3.org/2000/svg" xmlns:xlink="http://www.w3.org/1999/xlink" contentStyleType="text/css" height="451px" preserveAspectRatio="none" style="width:660px;height:451px;background:#FFFFFF;" version="1.1" viewBox="0 0 660 451" width="660px" zoomAndPan="magnify"><defs/><g><rect fill="#FFFFFF" height="248.4398" style="stroke:#181818;stroke-width:1.0;" width="10" x="25.5" y="102.24"/><rect fill="#FFFFFF" height="41.24" style="stroke:#181818;stroke-width:1.0;" width="10" x="617.125" y="135.4799"/><rect fill="#FFFFFF" height="41.24" style="stroke:#181818;stroke-width:1.0;" width="10" x="617.125" y="217.9599"/><rect fill="#FFFFFF" height="41.24" style="stroke:#181818;stroke-width:1.0;" width="10" x="617.125" y="300.4398"/><line style="stroke:#181818;stroke-width:0.5;stroke-dasharray:5.0,5.0;" x1="30" x2="30" y1="92.24" y2="359.6798"/><line style="stroke:#181818;stroke-width:0.5;stroke-dasharray:5.0,5.0;" x1="621.625" x2="621.625" y1="92.24" y2="359.6798"/><text fill="#000000" font-family="sans-serif" font-size="20" lengthAdjust="spacing" textLength="45" x="5" y="86.38">User</text><ellipse cx="30.5" cy="13.5" fill="#E2E2F0" rx="8" ry="8" style="stroke:#181818;stroke-width:0.5;"/><path d="M30.5,21.5 L30.5,48.5 M17.5,29.5 L43.5,29.5 M30.5,48.5 L17.5,63.5 M30.5,48.5 L43.5,63.5 " fill="none" style="stroke:#181818;stroke-width:0.5;"/><text fill="#000000" font-family="sans-serif" font-size="20" lengthAdjust="spacing" textLength="45" x="5" y="380.0598">User</text><ellipse cx="30.5" cy="394.4198" fill="#E2E2F0" rx="8" ry="8" style="stroke:#181818;stroke-width:0.5;"/><path d="M30.5,402.4198 L30.5,429.4198 M17.5,410.4198 L43.5,410.4198 M30.5,429.4198 L17.5,444.4198 M30.5,429.4198 L43.5,444.4198 " fill="none" style="stroke:#181818;stroke-width:0.5;"/><text fill="#000000" font-family="sans-serif" font-size="20" lengthAdjust="spacing" textLength="69" x="584.625" y="86.38">System</text><ellipse cx="622.125" cy="13.5" fill="#E2E2F0" rx="8" ry="8" style="stroke:#181818;stroke-width:0.5;"/><path d="M622.125,21.5 L622.125,48.5 M609.125,29.5 L635.125,29.5 M622.125,48.5 L609.125,63.5 M622.125,48.5 L635.125,63.5 " fill="none" style="stroke:#181818;stroke-width:0.5;"/><text fill="#000000" font-family="sans-serif" font-size="20" lengthAdjust="spacing" textLength="69" x="584.625" y="380.0598">System</text><ellipse cx="622.125" cy="394.4198" fill="#E2E2F0" rx="8" ry="8" style="stroke:#181818;stroke-width:0.5;"/><path d="M622.125,402.4198 L622.125,429.4198 M609.125,410.4198 L635.125,410.4198 M622.125,429.4198 L609.125,444.4198 M622.125,429.4198 L635.125,444.4198 " fill="none" style="stroke:#181818;stroke-width:0.5;"/><rect fill="#FFFFFF" height="248.4398" style="stroke:#181818;stroke-width:1.0;" width="10" x="25.5" y="102.24"/><rect fill="#FFFFFF" height="41.24" style="stroke:#181818;stroke-width:1.0;" width="10" x="617.125" y="135.4799"/><rect fill="#FFFFFF" height="41.24" style="stroke:#181818;stroke-width:1.0;" width="10" x="617.125" y="217.9599"/><rect fill="#FFFFFF" height="41.24" style="stroke:#181818;stroke-width:1.0;" width="10" x="617.125" y="300.4398"/><polygon fill="#181818" points="605.125,131.4799,615.125,135.4799,605.125,139.4799,609.125,135.4799" style="stroke:#181818;stroke-width:1.0;"/><line style="stroke:#181818;stroke-width:1.0;" x1="35.5" x2="611.125" y1="135.4799" y2="135.4799"/><text fill="#000000" font-family="sans-serif" font-size="20" font-weight="bold" lengthAdjust="spacing" textLength="11.625" x="42.5" y="127.62">1</text><text fill="#000000" font-family="sans-serif" font-size="20" lengthAdjust="spacing" textLength="262" x="58.125" y="127.62">Asks to schedule a meeting</text><polygon fill="#181818" points="46.5,172.7199,36.5,176.7199,46.5,180.7199,42.5,176.7199" style="stroke:#181818;stroke-width:1.0;"/><line style="stroke:#181818;stroke-width:1.0;stroke-dasharray:2.0,2.0;" x1="40.5" x2="621.125" y1="176.7199" y2="176.7199"/><text fill="#000000" font-family="sans-serif" font-size="20" font-weight="bold" lengthAdjust="spacing" textLength="11.625" x="52.5" y="168.8599">2</text><text fill="#000000" font-family="sans-serif" font-size="20" lengthAdjust="spacing" textLength="465" x="68.125" y="168.8599">requests the data needed to schedule a meeting</text><polygon fill="#181818" points="605.125,213.9599,615.125,217.9599,605.125,221.9599,609.125,217.9599" style="stroke:#181818;stroke-width:1.0;"/><line style="stroke:#181818;stroke-width:1.0;" x1="35.5" x2="611.125" y1="217.9599" y2="217.9599"/><text fill="#000000" font-family="sans-serif" font-size="20" font-weight="bold" lengthAdjust="spacing" textLength="11.625" x="42.5" y="210.0999">3</text><text fill="#000000" font-family="sans-serif" font-size="20" lengthAdjust="spacing" textLength="241" x="58.125" y="210.0999">types the requested data</text><polygon fill="#181818" points="46.5,255.1999,36.5,259.1999,46.5,263.1999,42.5,259.1999" style="stroke:#181818;stroke-width:1.0;"/><line style="stroke:#181818;stroke-width:1.0;stroke-dasharray:2.0,2.0;" x1="40.5" x2="621.125" y1="259.1999" y2="259.1999"/><text fill="#000000" font-family="sans-serif" font-size="20" font-weight="bold" lengthAdjust="spacing" textLength="11.625" x="52.5" y="251.3399">4</text><text fill="#000000" font-family="sans-serif" font-size="20" lengthAdjust="spacing" textLength="542" x="68.125" y="251.3399">shows the user the data types and asks for confirmation</text><polygon fill="#181818" points="605.125,296.4398,615.125,300.4398,605.125,304.4398,609.125,300.4398" style="stroke:#181818;stroke-width:1.0;"/><line style="stroke:#181818;stroke-width:1.0;" x1="35.5" x2="611.125" y1="300.4398" y2="300.4398"/><text fill="#000000" font-family="sans-serif" font-size="20" font-weight="bold" lengthAdjust="spacing" textLength="11.625" x="42.5" y="292.5799">5</text><text fill="#000000" font-family="sans-serif" font-size="20" lengthAdjust="spacing" textLength="171" x="58.125" y="292.5799">confirms the data</text><polygon fill="#181818" points="46.5,337.6798,36.5,341.6798,46.5,345.6798,42.5,341.6798" style="stroke:#181818;stroke-width:1.0;"/><line style="stroke:#181818;stroke-width:1.0;stroke-dasharray:2.0,2.0;" x1="40.5" x2="621.125" y1="341.6798" y2="341.6798"/><text fill="#000000" font-family="sans-serif" font-size="20" font-weight="bold" lengthAdjust="spacing" textLength="11.625" x="52.5" y="333.8198">6</text><text fill="#000000" font-family="sans-serif" font-size="20" lengthAdjust="spacing" textLength="373" x="68.125" y="333.8198">shows the user the available time slots</text><!--SRC=[dP0zRiCm38LtdOBm7g3ecA50bruWw04OwxaMh9zKf5AafwyikSsG344tWk3tuV79ukA9CmUVnWMMB2OkNjzIr8Fx1Zq_6IwQOWb7P6Dur9JfNP29XOPr6BRbuIAAqDPz7DgvExEY4SOqRlVoUxgdLrc4D96CCspn8AO0g8iVLxGV6xD1kyetpvuoFWj4gs46MLQc2DZwn7sZnOtp9f1UJkY-JRvMKisFn94vVNMsh8k_KDt9qTPkwhjJxMfCSN8viBeK7ygr0TTN_nc8p-my7silwW98V5Av4-07]--></g></svg>