<?xml version="1.0" encoding="UTF-8" standalone="no"?><svg xmlns="http://www.w3.org/2000/svg" xmlns:xlink="http://www.w3.org/1999/xlink" contentStyleType="text/css" height="1022px" preserveAspectRatio="none" style="width:2471px;height:1022px;background:#FFFFFF;" version="1.1" viewBox="0 0 2471 1022" width="2471px" zoomAndPan="magnify"><defs/><g><rect fill="#FFFFFF" height="788.7813" style="stroke:#181818;stroke-width:1.0;" width="10" x="25.5" y="107.5625"/><rect fill="#FFFFFF" height="37.2813" style="stroke:#181818;stroke-width:1.0;" width="10" x="747.5" y="136.8438"/><rect fill="#FFFFFF" height="141.8438" style="stroke:#181818;stroke-width:1.0;" width="10" x="747.5" y="211.4063"/><rect fill="#FFFFFF" height="141.8438" style="stroke:#181818;stroke-width:1.0;" width="10" x="747.5" y="390.5313"/><rect fill="#FFFFFF" height="326.6875" style="stroke:#181818;stroke-width:1.0;" width="10" x="747.5" y="569.6563"/><rect fill="#FFFFFF" height="67.2813" style="stroke:#181818;stroke-width:1.0;" width="10" x="1063.5" y="248.6875"/><rect fill="#FFFFFF" height="67.2813" style="stroke:#181818;stroke-width:1.0;" width="10" x="1063.5" y="427.8125"/><rect fill="#FFFFFF" height="298.4063" style="stroke:#181818;stroke-width:1.0;" width="10" x="1063.5" y="606.9375"/><rect fill="#FFFFFF" height="72.2813" style="stroke:#181818;stroke-width:1.0;" width="10" x="1068.5" y="786.7813"/><rect fill="#FFFFFF" height="30" style="stroke:#181818;stroke-width:1.0;" width="10" x="1349" y="285.9688"/><rect fill="#FFFFFF" height="30" style="stroke:#181818;stroke-width:1.0;" width="10" x="1548" y="644.2188"/><rect fill="#FFFFFF" height="30" style="stroke:#181818;stroke-width:1.0;" width="10" x="1938.5" y="465.0938"/><rect fill="#FFFFFF" height="30" style="stroke:#181818;stroke-width:1.0;" width="10" x="2190.5" y="711.5"/><rect fill="#FFFFFF" height="30" style="stroke:#181818;stroke-width:1.0;" width="10" x="2381" y="829.0625"/><line style="stroke:#181818;stroke-width:0.5;stroke-dasharray:5.0,5.0;" x1="30" x2="30" y1="97.5625" y2="914.3438"/><line style="stroke:#181818;stroke-width:0.5;stroke-dasharray:5.0,5.0;" x1="752" x2="752" y1="97.5625" y2="914.3438"/><line style="stroke:#181818;stroke-width:0.5;stroke-dasharray:5.0,5.0;" x1="1068" x2="1068" y1="97.5625" y2="914.3438"/><line style="stroke:#181818;stroke-width:0.5;stroke-dasharray:5.0,5.0;" x1="1354" x2="1354" y1="97.5625" y2="914.3438"/><line style="stroke:#181818;stroke-width:0.5;stroke-dasharray:5.0,5.0;" x1="1553" x2="1553" y1="97.5625" y2="914.3438"/><line style="stroke:#181818;stroke-width:0.5;stroke-dasharray:5.0,5.0;" x1="1704" x2="1704" y1="97.5625" y2="914.3438"/><line style="stroke:#181818;stroke-width:0.5;stroke-dasharray:5.0,5.0;" x1="1943" x2="1943" y1="97.5625" y2="914.3438"/><line style="stroke:#181818;stroke-width:0.5;stroke-dasharray:5.0,5.0;" x1="2195" x2="2195" y1="97.5625" y2="914.3438"/><line style="stroke:#181818;stroke-width:0.5;stroke-dasharray:5.0,5.0;" x1="2386" x2="2386" y1="97.5625" y2="914.3438"/><text fill="#000000" font-family="sans-serif" font-size="20" lengthAdjust="spacing" textLength="45" x="5" y="92.8457">User</text><ellipse cx="30.5" cy="22.7813" fill="#E2E2F0" rx="8" ry="8" style="stroke:#181818;stroke-width:0.5;"/><path d="M30.5,30.7813 L30.5,57.7813 M17.5,38.7813 L43.5,38.7813 M30.5,57.7813 L17.5,72.7813 M30.5,57.7813 L43.5,72.7813 " fill="none" style="stroke:#181818;stroke-width:0.5;"/><text fill="#000000" font-family="sans-serif" font-size="20" lengthAdjust="spacing" textLength="45" x="5" y="931.9082">User</text><ellipse cx="30.5" cy="945.125" fill="#E2E2F0" rx="8" ry="8" style="stroke:#181818;stroke-width:0.5;"/><path d="M30.5,953.125 L30.5,980.125 M17.5,961.125 L43.5,961.125 M30.5,980.125 L17.5,995.125 M30.5,980.125 L43.5,995.125 " fill="none" style="stroke:#181818;stroke-width:0.5;"/><rect fill="#E2E2F0" height="60.5625" rx="2.5" ry="2.5" style="stroke:#181818;stroke-width:0.5;" width="209" x="648" y="36"/><text fill="#000000" font-family="sans-serif" font-size="20" font-style="italic" lengthAdjust="spacing" textLength="151" x="677" y="61.5645">«presentation»</text><text fill="#000000" font-family="sans-serif" font-size="20" lengthAdjust="spacing" textLength="195" x="655" y="84.8457">ScheduleMeetingUI</text><rect fill="#E2E2F0" height="60.5625" rx="2.5" ry="2.5" style="stroke:#181818;stroke-width:0.5;" width="209" x="648" y="913.3438"/><text fill="#000000" font-family="sans-serif" font-size="20" font-style="italic" lengthAdjust="spacing" textLength="151" x="677" y="938.9082">«presentation»</text><text fill="#000000" font-family="sans-serif" font-size="20" lengthAdjust="spacing" textLength="195" x="655" y="962.1895">ScheduleMeetingUI</text><rect fill="#E2E2F0" height="60.5625" rx="2.5" ry="2.5" style="stroke:#181818;stroke-width:0.5;" width="287" x="925" y="36"/><text fill="#000000" font-family="sans-serif" font-size="20" font-style="italic" lengthAdjust="spacing" textLength="136" x="1000.5" y="61.5645">«application»</text><text fill="#000000" font-family="sans-serif" font-size="20" lengthAdjust="spacing" textLength="273" x="932" y="84.8457">ScheduleMeetingController</text><rect fill="#E2E2F0" height="60.5625" rx="2.5" ry="2.5" style="stroke:#181818;stroke-width:0.5;" width="287" x="925" y="913.3438"/><text fill="#000000" font-family="sans-serif" font-size="20" font-style="italic" lengthAdjust="spacing" textLength="136" x="1000.5" y="938.9082">«application»</text><text fill="#000000" font-family="sans-serif" font-size="20" lengthAdjust="spacing" textLength="273" x="932" y="962.1895">ScheduleMeetingController</text><rect fill="#E2E2F0" height="60.5625" rx="2.5" ry="2.5" style="stroke:#181818;stroke-width:0.5;" width="264" x="1222" y="36"/><text fill="#000000" font-family="sans-serif" font-size="20" font-style="italic" lengthAdjust="spacing" textLength="95" x="1306.5" y="61.5645">«service»</text><text fill="#000000" font-family="sans-serif" font-size="20" lengthAdjust="spacing" textLength="250" x="1229" y="84.8457">UserManagementService</text><rect fill="#E2E2F0" height="60.5625" rx="2.5" ry="2.5" style="stroke:#181818;stroke-width:0.5;" width="264" x="1222" y="913.3438"/><text fill="#000000" font-family="sans-serif" font-size="20" font-style="italic" lengthAdjust="spacing" textLength="95" x="1306.5" y="938.9082">«service»</text><text fill="#000000" font-family="sans-serif" font-size="20" lengthAdjust="spacing" textLength="250" x="1229" y="962.1895">UserManagementService</text><rect fill="#E2E2F0" height="60.5625" rx="2.5" ry="2.5" style="stroke:#181818;stroke-width:0.5;" width="114" x="1496" y="36"/><text fill="#000000" font-family="sans-serif" font-size="20" font-style="italic" lengthAdjust="spacing" textLength="100" x="1503" y="61.5645">«domain»</text><text fill="#000000" font-family="sans-serif" font-size="20" lengthAdjust="spacing" textLength="81" x="1512.5" y="84.8457">Meeting</text><rect fill="#E2E2F0" height="60.5625" rx="2.5" ry="2.5" style="stroke:#181818;stroke-width:0.5;" width="114" x="1496" y="913.3438"/><text fill="#000000" font-family="sans-serif" font-size="20" font-style="italic" lengthAdjust="spacing" textLength="100" x="1503" y="938.9082">«domain»</text><text fill="#000000" font-family="sans-serif" font-size="20" lengthAdjust="spacing" textLength="81" x="1512.5" y="962.1895">Meeting</text><rect fill="#E2E2F0" height="60.5625" rx="2.5" ry="2.5" style="stroke:#181818;stroke-width:0.5;" width="168" x="1620" y="36"/><text fill="#000000" font-family="sans-serif" font-size="20" font-style="italic" lengthAdjust="spacing" textLength="95" x="1656.5" y="61.5645">«service»</text><text fill="#000000" font-family="sans-serif" font-size="20" lengthAdjust="spacing" textLength="154" x="1627" y="84.8457">MeetingService</text><rect fill="#E2E2F0" height="60.5625" rx="2.5" ry="2.5" style="stroke:#181818;stroke-width:0.5;" width="168" x="1620" y="913.3438"/><text fill="#000000" font-family="sans-serif" font-size="20" font-style="italic" lengthAdjust="spacing" textLength="95" x="1656.5" y="938.9082">«service»</text><text fill="#000000" font-family="sans-serif" font-size="20" lengthAdjust="spacing" textLength="154" x="1627" y="962.1895">MeetingService</text><rect fill="#E2E2F0" height="60.5625" rx="2.5" ry="2.5" style="stroke:#181818;stroke-width:0.5;" width="291" x="1798" y="36"/><text fill="#000000" font-family="sans-serif" font-size="20" font-style="italic" lengthAdjust="spacing" textLength="95" x="1896" y="61.5645">«service»</text><text fill="#000000" font-family="sans-serif" font-size="20" lengthAdjust="spacing" textLength="277" x="1805" y="84.8457">ScheduleAvailabilityService</text><rect fill="#E2E2F0" height="60.5625" rx="2.5" ry="2.5" style="stroke:#181818;stroke-width:0.5;" width="291" x="1798" y="913.3438"/><text fill="#000000" font-family="sans-serif" font-size="20" font-style="italic" lengthAdjust="spacing" textLength="95" x="1896" y="938.9082">«service»</text><text fill="#000000" font-family="sans-serif" font-size="20" lengthAdjust="spacing" textLength="277" x="1805" y="962.1895">ScheduleAvailabilityService</text><text fill="#000000" font-family="sans-serif" font-size="20" font-style="italic" lengthAdjust="spacing" textLength="125" x="2130" y="69.5645">«repository»</text><text fill="#000000" font-family="sans-serif" font-size="20" lengthAdjust="spacing" textLength="187" x="2099" y="92.8457">MeetingRepository</text><path d="M2177.5,15 C2177.5,5 2195.5,5 2195.5,5 C2195.5,5 2213.5,5 2213.5,15 L2213.5,41 C2213.5,51 2195.5,51 2195.5,51 C2195.5,51 2177.5,51 2177.5,41 L2177.5,15 " fill="#E2E2F0" style="stroke:#181818;stroke-width:1.5;"/><path d="M2177.5,15 C2177.5,25 2195.5,25 2195.5,25 C2195.5,25 2213.5,25 2213.5,15 " fill="none" style="stroke:#181818;stroke-width:1.5;"/><text fill="#000000" font-family="sans-serif" font-size="20" font-style="italic" lengthAdjust="spacing" textLength="125" x="2130" y="931.9082">«repository»</text><text fill="#000000" font-family="sans-serif" font-size="20" lengthAdjust="spacing" textLength="187" x="2099" y="955.1895">MeetingRepository</text><path d="M2177.5,969.9063 C2177.5,959.9063 2195.5,959.9063 2195.5,959.9063 C2195.5,959.9063 2213.5,959.9063 2213.5,969.9063 L2213.5,995.9063 C2213.5,1005.9063 2195.5,1005.9063 2195.5,1005.9063 C2195.5,1005.9063 2177.5,1005.9063 2177.5,995.9063 L2177.5,969.9063 " fill="#E2E2F0" style="stroke:#181818;stroke-width:1.5;"/><path d="M2177.5,969.9063 C2177.5,979.9063 2195.5,979.9063 2195.5,979.9063 C2195.5,979.9063 2213.5,979.9063 2213.5,969.9063 " fill="none" style="stroke:#181818;stroke-width:1.5;"/><text fill="#000000" font-family="sans-serif" font-size="20" font-style="italic" lengthAdjust="spacing" textLength="125" x="2320.5" y="69.5645">«repository»</text><text fill="#000000" font-family="sans-serif" font-size="20" lengthAdjust="spacing" textLength="162" x="2302" y="92.8457">InviteRepository</text><path d="M2368,15 C2368,5 2386,5 2386,5 C2386,5 2404,5 2404,15 L2404,41 C2404,51 2386,51 2386,51 C2386,51 2368,51 2368,41 L2368,15 " fill="#E2E2F0" style="stroke:#181818;stroke-width:1.5;"/><path d="M2368,15 C2368,25 2386,25 2386,25 C2386,25 2404,25 2404,15 " fill="none" style="stroke:#181818;stroke-width:1.5;"/><text fill="#000000" font-family="sans-serif" font-size="20" font-style="italic" lengthAdjust="spacing" textLength="125" x="2320.5" y="931.9082">«repository»</text><text fill="#000000" font-family="sans-serif" font-size="20" lengthAdjust="spacing" textLength="162" x="2302" y="955.1895">InviteRepository</text><path d="M2368,969.9063 C2368,959.9063 2386,959.9063 2386,959.9063 C2386,959.9063 2404,959.9063 2404,969.9063 L2404,995.9063 C2404,1005.9063 2386,1005.9063 2386,1005.9063 C2386,1005.9063 2368,1005.9063 2368,995.9063 L2368,969.9063 " fill="#E2E2F0" style="stroke:#181818;stroke-width:1.5;"/><path d="M2368,969.9063 C2368,979.9063 2386,979.9063 2386,979.9063 C2386,979.9063 2404,979.9063 2404,969.9063 " fill="none" style="stroke:#181818;stroke-width:1.5;"/><rect fill="#FFFFFF" height="788.7813" style="stroke:#181818;stroke-width:1.0;" width="10" x="25.5" y="107.5625"/><rect fill="#FFFFFF" height="37.2813" style="stroke:#181818;stroke-width:1.0;" width="10" x="747.5" y="136.8438"/><rect fill="#FFFFFF" height="141.8438" style="stroke:#181818;stroke-width:1.0;" width="10" x="747.5" y="211.4063"/><rect fill="#FFFFFF" height="141.8438" style="stroke:#181818;stroke-width:1.0;" width="10" x="747.5" y="390.5313"/><rect fill="#FFFFFF" height="326.6875" style="stroke:#181818;stroke-width:1.0;" width="10" x="747.5" y="569.6563"/><rect fill="#FFFFFF" height="67.2813" style="stroke:#181818;stroke-width:1.0;" width="10" x="1063.5" y="248.6875"/><rect fill="#FFFFFF" height="67.2813" style="stroke:#181818;stroke-width:1.0;" width="10" x="1063.5" y="427.8125"/><rect fill="#FFFFFF" height="298.4063" style="stroke:#181818;stroke-width:1.0;" width="10" x="1063.5" y="606.9375"/><rect fill="#FFFFFF" height="72.2813" style="stroke:#181818;stroke-width:1.0;" width="10" x="1068.5" y="786.7813"/><rect fill="#FFFFFF" height="30" style="stroke:#181818;stroke-width:1.0;" width="10" x="1349" y="285.9688"/><rect fill="#FFFFFF" height="30" style="stroke:#181818;stroke-width:1.0;" width="10" x="1548" y="644.2188"/><rect fill="#FFFFFF" height="30" style="stroke:#181818;stroke-width:1.0;" width="10" x="1938.5" y="465.0938"/><rect fill="#FFFFFF" height="30" style="stroke:#181818;stroke-width:1.0;" width="10" x="2190.5" y="711.5"/><rect fill="#FFFFFF" height="30" style="stroke:#181818;stroke-width:1.0;" width="10" x="2381" y="829.0625"/><polygon fill="#181818" points="735.5,132.8438,745.5,136.8438,735.5,140.8438,739.5,136.8438" style="stroke:#181818;stroke-width:1.0;"/><line style="stroke:#181818;stroke-width:1.0;" x1="35.5" x2="741.5" y1="136.8438" y2="136.8438"/><text fill="#000000" font-family="sans-serif" font-size="20" font-weight="bold" lengthAdjust="spacing" textLength="14" x="42.5" y="130.127">1</text><text fill="#000000" font-family="sans-serif" font-size="20" lengthAdjust="spacing" textLength="276" x="60.5" y="130.127">Asks to schedule a meeting</text><polygon fill="#181818" points="46.5,170.125,36.5,174.125,46.5,178.125,42.5,174.125" style="stroke:#181818;stroke-width:1.0;"/><line style="stroke:#181818;stroke-width:1.0;stroke-dasharray:2.0,2.0;" x1="40.5" x2="751.5" y1="174.125" y2="174.125"/><text fill="#000000" font-family="sans-serif" font-size="20" font-weight="bold" lengthAdjust="spacing" textLength="14" x="52.5" y="167.4082">2</text><text fill="#000000" font-family="sans-serif" font-size="20" lengthAdjust="spacing" textLength="487" x="70.5" y="167.4082">requests the data needed to schedule a meeting</text><polygon fill="#181818" points="735.5,207.4063,745.5,211.4063,735.5,215.4063,739.5,211.4063" style="stroke:#181818;stroke-width:1.0;"/><line style="stroke:#181818;stroke-width:1.0;" x1="35.5" x2="741.5" y1="211.4063" y2="211.4063"/><text fill="#000000" font-family="sans-serif" font-size="20" font-weight="bold" lengthAdjust="spacing" textLength="14" x="42.5" y="204.6895">3</text><text fill="#000000" font-family="sans-serif" font-size="20" lengthAdjust="spacing" textLength="251" x="60.5" y="204.6895">types the requested data</text><polygon fill="#181818" points="1051.5,244.6875,1061.5,248.6875,1051.5,252.6875,1055.5,248.6875" style="stroke:#181818;stroke-width:1.0;"/><line style="stroke:#181818;stroke-width:1.0;" x1="757.5" x2="1057.5" y1="248.6875" y2="248.6875"/><text fill="#000000" font-family="sans-serif" font-size="20" font-weight="bold" lengthAdjust="spacing" textLength="14" x="764.5" y="241.9707">4</text><text fill="#000000" font-family="sans-serif" font-size="20" lengthAdjust="spacing" textLength="104" x="782.5" y="241.9707">getUsers()</text><polygon fill="#181818" points="1337,281.9688,1347,285.9688,1337,289.9688,1341,285.9688" style="stroke:#181818;stroke-width:1.0;"/><line style="stroke:#181818;stroke-width:1.0;" x1="1073.5" x2="1343" y1="285.9688" y2="285.9688"/><text fill="#000000" font-family="sans-serif" font-size="20" font-weight="bold" lengthAdjust="spacing" textLength="14" x="1080.5" y="279.252">5</text><text fill="#000000" font-family="sans-serif" font-size="20" lengthAdjust="spacing" textLength="95" x="1098.5" y="279.252">allUsers()</text><polygon fill="#181818" points="46.5,349.25,36.5,353.25,46.5,357.25,42.5,353.25" style="stroke:#181818;stroke-width:1.0;"/><line style="stroke:#181818;stroke-width:1.0;stroke-dasharray:2.0,2.0;" x1="40.5" x2="751.5" y1="353.25" y2="353.25"/><text fill="#000000" font-family="sans-serif" font-size="20" font-weight="bold" lengthAdjust="spacing" textLength="14" x="52.5" y="346.5332">6</text><text fill="#000000" font-family="sans-serif" font-size="20" lengthAdjust="spacing" textLength="321" x="70.5" y="346.5332">asks to select the users to invite</text><polygon fill="#181818" points="735.5,386.5313,745.5,390.5313,735.5,394.5313,739.5,390.5313" style="stroke:#181818;stroke-width:1.0;"/><line style="stroke:#181818;stroke-width:1.0;" x1="35.5" x2="741.5" y1="390.5313" y2="390.5313"/><text fill="#000000" font-family="sans-serif" font-size="20" font-weight="bold" lengthAdjust="spacing" textLength="14" x="42.5" y="383.8145">7</text><text fill="#000000" font-family="sans-serif" font-size="20" lengthAdjust="spacing" textLength="255" x="60.5" y="383.8145">selects the users to invite</text><polygon fill="#181818" points="1051.5,423.8125,1061.5,427.8125,1051.5,431.8125,1055.5,427.8125" style="stroke:#181818;stroke-width:1.0;"/><line style="stroke:#181818;stroke-width:1.0;" x1="757.5" x2="1057.5" y1="427.8125" y2="427.8125"/><text fill="#000000" font-family="sans-serif" font-size="20" font-weight="bold" lengthAdjust="spacing" textLength="14" x="764.5" y="421.0957">8</text><text fill="#000000" font-family="sans-serif" font-size="20" lengthAdjust="spacing" textLength="269" x="782.5" y="421.0957">checkIfUsersAreAvailable()</text><polygon fill="#181818" points="1926.5,461.0938,1936.5,465.0938,1926.5,469.0938,1930.5,465.0938" style="stroke:#181818;stroke-width:1.0;"/><line style="stroke:#181818;stroke-width:1.0;" x1="1073.5" x2="1932.5" y1="465.0938" y2="465.0938"/><text fill="#000000" font-family="sans-serif" font-size="20" font-weight="bold" lengthAdjust="spacing" textLength="14" x="1080.5" y="458.377">9</text><text fill="#000000" font-family="sans-serif" font-size="20" lengthAdjust="spacing" textLength="166" x="1098.5" y="458.377">areAllAvailable()</text><polygon fill="#181818" points="46.5,528.375,36.5,532.375,46.5,536.375,42.5,532.375" style="stroke:#181818;stroke-width:1.0;"/><line style="stroke:#181818;stroke-width:1.0;stroke-dasharray:2.0,2.0;" x1="40.5" x2="751.5" y1="532.375" y2="532.375"/><text fill="#000000" font-family="sans-serif" font-size="20" font-weight="bold" lengthAdjust="spacing" textLength="28" x="52.5" y="525.6582">10</text><text fill="#000000" font-family="sans-serif" font-size="20" lengthAdjust="spacing" textLength="656" x="84.5" y="525.6582">informs if the data is valid and if all users can attend the meeting</text><polygon fill="#181818" points="735.5,565.6563,745.5,569.6563,735.5,573.6563,739.5,569.6563" style="stroke:#181818;stroke-width:1.0;"/><line style="stroke:#181818;stroke-width:1.0;" x1="35.5" x2="741.5" y1="569.6563" y2="569.6563"/><text fill="#000000" font-family="sans-serif" font-size="20" font-weight="bold" lengthAdjust="spacing" textLength="28" x="42.5" y="562.9395">11</text><text fill="#000000" font-family="sans-serif" font-size="20" lengthAdjust="spacing" textLength="177" x="74.5" y="562.9395">confirms the data</text><polygon fill="#181818" points="1051.5,602.9375,1061.5,606.9375,1051.5,610.9375,1055.5,606.9375" style="stroke:#181818;stroke-width:1.0;"/><line style="stroke:#181818;stroke-width:1.0;" x1="757.5" x2="1057.5" y1="606.9375" y2="606.9375"/><text fill="#000000" font-family="sans-serif" font-size="20" font-weight="bold" lengthAdjust="spacing" textLength="28" x="764.5" y="600.2207">12</text><text fill="#000000" font-family="sans-serif" font-size="20" lengthAdjust="spacing" textLength="187" x="796.5" y="600.2207">scheduleMeeting()</text><polygon fill="#181818" points="1536,640.2188,1546,644.2188,1536,648.2188,1540,644.2188" style="stroke:#181818;stroke-width:1.0;"/><line style="stroke:#181818;stroke-width:1.0;" x1="1073.5" x2="1542" y1="644.2188" y2="644.2188"/><text fill="#000000" font-family="sans-serif" font-size="20" font-weight="bold" lengthAdjust="spacing" textLength="28" x="1080.5" y="637.502">13</text><text fill="#000000" font-family="sans-serif" font-size="20" lengthAdjust="spacing" textLength="58" x="1112.5" y="637.502">new()</text><polygon fill="#181818" points="2178.5,707.5,2188.5,711.5,2178.5,715.5,2182.5,711.5" style="stroke:#181818;stroke-width:1.0;"/><line style="stroke:#181818;stroke-width:1.0;" x1="1073.5" x2="2184.5" y1="711.5" y2="711.5"/><text fill="#000000" font-family="sans-serif" font-size="20" font-weight="bold" lengthAdjust="spacing" textLength="28" x="1080.5" y="704.7832">14</text><text fill="#000000" font-family="sans-serif" font-size="20" lengthAdjust="spacing" textLength="142" x="1112.5" y="704.7832">saveMeeting()</text><line style="stroke:#181818;stroke-width:1.0;" x1="1073.5" x2="1120.5" y1="773.7813" y2="773.7813"/><line style="stroke:#181818;stroke-width:1.0;" x1="1120.5" x2="1120.5" y1="773.7813" y2="786.7813"/><line style="stroke:#181818;stroke-width:1.0;" x1="1079.5" x2="1120.5" y1="786.7813" y2="786.7813"/><polygon fill="#181818" points="1089.5,782.7813,1079.5,786.7813,1089.5,790.7813,1085.5,786.7813" style="stroke:#181818;stroke-width:1.0;"/><text fill="#000000" font-family="sans-serif" font-size="20" font-weight="bold" lengthAdjust="spacing" textLength="28" x="1085.5" y="767.0645">15</text><text fill="#000000" font-family="sans-serif" font-size="20" lengthAdjust="spacing" textLength="130" x="1117.5" y="767.0645">sendInvites()</text><polygon fill="#181818" points="2369,825.0625,2379,829.0625,2369,833.0625,2373,829.0625" style="stroke:#181818;stroke-width:1.0;"/><line style="stroke:#181818;stroke-width:1.0;" x1="1078.5" x2="2375" y1="829.0625" y2="829.0625"/><text fill="#000000" font-family="sans-serif" font-size="20" font-weight="bold" lengthAdjust="spacing" textLength="28" x="1085.5" y="822.3457">16</text><text fill="#000000" font-family="sans-serif" font-size="20" lengthAdjust="spacing" textLength="117" x="1117.5" y="822.3457">saveInvite()</text><polygon fill="#181818" points="41.5,892.3438,31.5,896.3438,41.5,900.3438,37.5,896.3438" style="stroke:#181818;stroke-width:1.0;"/><line style="stroke:#181818;stroke-width:1.0;stroke-dasharray:2.0,2.0;" x1="35.5" x2="751.5" y1="896.3438" y2="896.3438"/><text fill="#000000" font-family="sans-serif" font-size="20" font-weight="bold" lengthAdjust="spacing" textLength="28" x="47.5" y="889.627">17</text><text fill="#000000" font-family="sans-serif" font-size="20" lengthAdjust="spacing" textLength="250" x="79.5" y="889.627">informs operation sucess</text><!--SRC=[XLHBRzim3BxxLn0vROS2muv14I0eki70qeFJ_016fbCYikHAieViru_o8x6JE3sI-XvysVx8faA7fRRgI3daL62jmozhmfR_4VpyaM0ThAdBFRaaGHMiWyNEari0UjWbYR03AwxG15XirGVbjQODKM1psAKTAeNdvygH9nCmi3MhrKFQYxWxgtLlylAU_H41h2hDwYu_rhD1WmSgnM9Bhc55dVLcArJVPQvflLqBtBo-lgTllmMSsnBPp637se-aXuxM3RB6FMiEfp5tkvwIanm3xj4Jz4OPLTQpJFlKMcM2TkUK4Cxur3GSQ0fFR-1nSznWeBYo7JojubAMiFP73y62xyi5XBBp7n5IOQJm53b2SVHPamz2-o28LO0XokLqxilaD1KwMuTJHPr8hnYlJ-HkZLVT1IpXG25ksd_xVW75foHf0L5PTh84rFe69o-JMYGSnvtCg4qS9aEQL6ZhhADcp74xyldMEew_IvhlJcQdZcdHLhvsm-Leckys7f5KAbYjxy85CAxoAhpfcKrXNUc1YyjosKE3cdD0ayS7cMtVaq836099FgA_NBYofk0eFsW_c8MV_X3cHp1yjakvmhzZMFymBcT8NSXPjCBcdiqccr2p2sieKHhllhq7zvWE3Xro34md1jDeTZEs8jV-0S7NYho_dlOuJFu3]--></g></svg>