<?xml version="1.0" encoding="UTF-8" standalone="no"?><svg xmlns="http://www.w3.org/2000/svg" xmlns:xlink="http://www.w3.org/1999/xlink" contentStyleType="text/css" height="581px" preserveAspectRatio="none" style="width:1347px;height:581px;background:#FFFFFF;" version="1.1" viewBox="0 0 1347 581" width="1347px" zoomAndPan="magnify"><defs/><g><rect fill="#FFFFFF" height="369.9198" style="stroke:#181818;stroke-width:1.0;" width="10" x="25" y="102.24"/><rect fill="#FFFFFF" height="369.9198" style="stroke:#181818;stroke-width:1.0;" width="10" x="310.625" y="102.24"/><rect fill="#FFFFFF" height="321.6798" style="stroke:#181818;stroke-width:1.0;" width="10" x="552.125" y="102.24"/><rect fill="#FFFFFF" height="213.9599" style="stroke:#181818;stroke-width:1.0;" width="10" x="747.125" y="209.9599"/><rect fill="#FFFFFF" height="172.7199" style="stroke:#181818;stroke-width:1.0;" width="10" x="977.75" y="251.1999"/><rect fill="#FFFFFF" height="123.4799" style="stroke:#181818;stroke-width:1.0;" width="10" x="982.75" y="300.4398"/><rect fill="#FFFFFF" height="77.24" style="stroke:#181818;stroke-width:1.0;" width="10" x="1178.375" y="346.6798"/><rect fill="#FFFFFF" height="28" style="stroke:#181818;stroke-width:1.0;" width="10" x="1183.375" y="395.9198"/><line style="stroke:#181818;stroke-width:0.5;stroke-dasharray:5.0,5.0;" x1="30" x2="30" y1="92.24" y2="490.1598"/><line style="stroke:#181818;stroke-width:0.5;stroke-dasharray:5.0,5.0;" x1="315.625" x2="315.625" y1="92.24" y2="490.1598"/><line style="stroke:#181818;stroke-width:0.5;stroke-dasharray:5.0,5.0;" x1="556.625" x2="556.625" y1="92.24" y2="490.1598"/><line style="stroke:#181818;stroke-width:0.5;stroke-dasharray:5.0,5.0;" x1="751.625" x2="751.625" y1="92.24" y2="490.1598"/><line style="stroke:#181818;stroke-width:0.5;stroke-dasharray:5.0,5.0;" x1="982.75" x2="982.75" y1="92.24" y2="490.1598"/><line style="stroke:#181818;stroke-width:0.5;stroke-dasharray:5.0,5.0;" x1="1182.875" x2="1182.875" y1="92.24" y2="490.1598"/><text fill="#000000" font-family="sans-serif" font-size="20" lengthAdjust="spacing" textLength="44" x="5" y="86.38">User</text><ellipse cx="30" cy="13.5" fill="#E2E2F0" rx="8" ry="8" style="stroke:#181818;stroke-width:0.5;"/><path d="M30,21.5 L30,48.5 M17,29.5 L43,29.5 M30,48.5 L17,63.5 M30,48.5 L43,63.5 " fill="none" style="stroke:#181818;stroke-width:0.5;"/><text fill="#000000" font-family="sans-serif" font-size="20" lengthAdjust="spacing" textLength="44" x="5" y="510.5398">User</text><ellipse cx="30" cy="524.8997" fill="#E2E2F0" rx="8" ry="8" style="stroke:#181818;stroke-width:0.5;"/><path d="M30,532.8997 L30,559.8997 M17,540.8997 L43,540.8997 M30,559.8997 L17,574.8997 M30,559.8997 L43,574.8997 " fill="none" style="stroke:#181818;stroke-width:0.5;"/><rect fill="#E2E2F0" height="68.4799" rx="2.5" ry="2.5" style="stroke:#181818;stroke-width:0.5;" width="196" x="217.625" y="22.76"/><text fill="#000000" font-family="sans-serif" font-size="20" font-style="italic" lengthAdjust="spacing" textLength="134" x="248.625" y="51.14">«presentation»</text><text fill="#000000" font-family="sans-serif" font-size="20" lengthAdjust="spacing" textLength="182" x="224.625" y="78.38">ScheduleMeetingUI</text><rect fill="#E2E2F0" height="68.4799" rx="2.5" ry="2.5" style="stroke:#181818;stroke-width:0.5;" width="196" x="217.625" y="489.1598"/><text fill="#000000" font-family="sans-serif" font-size="20" font-style="italic" lengthAdjust="spacing" textLength="134" x="248.625" y="517.5398">«presentation»</text><text fill="#000000" font-family="sans-serif" font-size="20" lengthAdjust="spacing" textLength="182" x="224.625" y="544.7797">ScheduleMeetingUI</text><rect fill="#E2E2F0" height="68.4799" rx="2.5" ry="2.5" style="stroke:#181818;stroke-width:0.5;" width="267" x="423.625" y="22.76"/><text fill="#000000" font-family="sans-serif" font-size="20" font-style="italic" lengthAdjust="spacing" textLength="120" x="497.125" y="51.14">«application»</text><text fill="#000000" font-family="sans-serif" font-size="20" lengthAdjust="spacing" textLength="253" x="430.625" y="78.38">ScheduleMeetingController</text><rect fill="#E2E2F0" height="68.4799" rx="2.5" ry="2.5" style="stroke:#181818;stroke-width:0.5;" width="267" x="423.625" y="489.1598"/><text fill="#000000" font-family="sans-serif" font-size="20" font-style="italic" lengthAdjust="spacing" textLength="120" x="497.125" y="517.5398">«application»</text><text fill="#000000" font-family="sans-serif" font-size="20" lengthAdjust="spacing" textLength="253" x="430.625" y="544.7797">ScheduleMeetingController</text><rect fill="#E2E2F0" height="68.4799" rx="2.5" ry="2.5" style="stroke:#181818;stroke-width:0.5;" width="103" x="700.625" y="22.76"/><text fill="#000000" font-family="sans-serif" font-size="20" font-style="italic" lengthAdjust="spacing" textLength="89" x="707.625" y="51.14">«domain»</text><text fill="#000000" font-family="sans-serif" font-size="20" lengthAdjust="spacing" textLength="44" x="730.125" y="78.38">User</text><rect fill="#E2E2F0" height="68.4799" rx="2.5" ry="2.5" style="stroke:#181818;stroke-width:0.5;" width="103" x="700.625" y="489.1598"/><text fill="#000000" font-family="sans-serif" font-size="20" font-style="italic" lengthAdjust="spacing" textLength="89" x="707.625" y="517.5398">«domain»</text><text fill="#000000" font-family="sans-serif" font-size="20" lengthAdjust="spacing" textLength="44" x="730.125" y="544.7797">User</text><rect fill="#E2E2F0" height="68.4799" rx="2.5" ry="2.5" style="stroke:#181818;stroke-width:0.5;" width="166" x="899.75" y="22.76"/><text fill="#000000" font-family="sans-serif" font-size="20" font-style="italic" lengthAdjust="spacing" textLength="89" x="938.25" y="51.14">«domain»</text><text fill="#000000" font-family="sans-serif" font-size="20" lengthAdjust="spacing" textLength="152" x="906.75" y="78.38">ConcreteSubject</text><rect fill="#E2E2F0" height="68.4799" rx="2.5" ry="2.5" style="stroke:#181818;stroke-width:0.5;" width="166" x="899.75" y="489.1598"/><text fill="#000000" font-family="sans-serif" font-size="20" font-style="italic" lengthAdjust="spacing" textLength="89" x="938.25" y="517.5398">«domain»</text><text fill="#000000" font-family="sans-serif" font-size="20" lengthAdjust="spacing" textLength="152" x="906.75" y="544.7797">ConcreteSubject</text><rect fill="#E2E2F0" height="68.4799" rx="2.5" ry="2.5" style="stroke:#181818;stroke-width:0.5;" width="103" x="1131.875" y="22.76"/><text fill="#000000" font-family="sans-serif" font-size="20" font-style="italic" lengthAdjust="spacing" textLength="89" x="1138.875" y="51.14">«domain»</text><text fill="#000000" font-family="sans-serif" font-size="20" lengthAdjust="spacing" textLength="86" x="1140.375" y="78.38">Observer</text><rect fill="#E2E2F0" height="68.4799" rx="2.5" ry="2.5" style="stroke:#181818;stroke-width:0.5;" width="103" x="1131.875" y="489.1598"/><text fill="#000000" font-family="sans-serif" font-size="20" font-style="italic" lengthAdjust="spacing" textLength="89" x="1138.875" y="517.5398">«domain»</text><text fill="#000000" font-family="sans-serif" font-size="20" lengthAdjust="spacing" textLength="86" x="1140.375" y="544.7797">Observer</text><rect fill="#FFFFFF" height="369.9198" style="stroke:#181818;stroke-width:1.0;" width="10" x="25" y="102.24"/><rect fill="#FFFFFF" height="369.9198" style="stroke:#181818;stroke-width:1.0;" width="10" x="310.625" y="102.24"/><rect fill="#FFFFFF" height="321.6798" style="stroke:#181818;stroke-width:1.0;" width="10" x="552.125" y="102.24"/><rect fill="#FFFFFF" height="213.9599" style="stroke:#181818;stroke-width:1.0;" width="10" x="747.125" y="209.9599"/><rect fill="#FFFFFF" height="172.7199" style="stroke:#181818;stroke-width:1.0;" width="10" x="977.75" y="251.1999"/><rect fill="#FFFFFF" height="123.4799" style="stroke:#181818;stroke-width:1.0;" width="10" x="982.75" y="300.4398"/><rect fill="#FFFFFF" height="77.24" style="stroke:#181818;stroke-width:1.0;" width="10" x="1178.375" y="346.6798"/><rect fill="#FFFFFF" height="28" style="stroke:#181818;stroke-width:1.0;" width="10" x="1183.375" y="395.9198"/><path d="M155,107.24 L155,171.24 L475,171.24 L475,117.24 L465,107.24 L155,107.24 " fill="#FEFFDD" style="stroke:#181818;stroke-width:0.5;"/><path d="M465,107.24 L465,117.24 L475,117.24 L465,107.24 " fill="#FEFFDD" style="stroke:#181818;stroke-width:0.5;"/><text fill="#000000" font-family="sans-serif" font-size="20" lengthAdjust="spacing" textLength="299" x="161" y="133.62">the previous steps were omitted</text><text fill="#000000" font-family="sans-serif" font-size="20" lengthAdjust="spacing" textLength="290" x="161" y="160.8599">to make it easier to understand</text><polygon fill="#181818" points="735.125,205.9599,745.125,209.9599,735.125,213.9599,739.125,209.9599" style="stroke:#181818;stroke-width:1.0;"/><line style="stroke:#181818;stroke-width:1.0;" x1="562.125" x2="741.125" y1="209.9599" y2="209.9599"/><text fill="#000000" font-family="sans-serif" font-size="20" font-weight="bold" lengthAdjust="spacing" textLength="11.625" x="569.125" y="202.0999">1</text><text fill="#000000" font-family="sans-serif" font-size="20" lengthAdjust="spacing" textLength="119" x="584.75" y="202.0999">sendInvites()</text><polygon fill="#181818" points="965.75,247.1999,975.75,251.1999,965.75,255.1999,969.75,251.1999" style="stroke:#181818;stroke-width:1.0;"/><line style="stroke:#181818;stroke-width:1.0;" x1="757.125" x2="971.75" y1="251.1999" y2="251.1999"/><text fill="#000000" font-family="sans-serif" font-size="20" font-weight="bold" lengthAdjust="spacing" textLength="11.625" x="764.125" y="243.3399">2</text><text fill="#000000" font-family="sans-serif" font-size="20" lengthAdjust="spacing" textLength="186" x="779.75" y="243.3399">setState(someState)</text><line style="stroke:#181818;stroke-width:1.0;" x1="987.75" x2="1034.75" y1="287.4398" y2="287.4398"/><line style="stroke:#181818;stroke-width:1.0;" x1="1034.75" x2="1034.75" y1="287.4398" y2="300.4398"/><line style="stroke:#181818;stroke-width:1.0;" x1="993.75" x2="1034.75" y1="300.4398" y2="300.4398"/><polygon fill="#181818" points="1003.75,296.4398,993.75,300.4398,1003.75,304.4398,999.75,300.4398" style="stroke:#181818;stroke-width:1.0;"/><text fill="#000000" font-family="sans-serif" font-size="20" font-weight="bold" lengthAdjust="spacing" textLength="11.625" x="999.75" y="279.5799">3</text><text fill="#000000" font-family="sans-serif" font-size="20" lengthAdjust="spacing" textLength="161" x="1015.375" y="279.5799">notifyObservers()</text><polygon fill="#181818" points="1166.375,342.6798,1176.375,346.6798,1166.375,350.6798,1170.375,346.6798" style="stroke:#181818;stroke-width:1.0;"/><line style="stroke:#181818;stroke-width:1.0;" x1="992.75" x2="1172.375" y1="346.6798" y2="346.6798"/><text fill="#000000" font-family="sans-serif" font-size="20" font-weight="bold" lengthAdjust="spacing" textLength="11.625" x="999.75" y="338.8198">4</text><text fill="#000000" font-family="sans-serif" font-size="20" lengthAdjust="spacing" textLength="77" x="1015.375" y="338.8198">update()</text><line style="stroke:#181818;stroke-width:1.0;" x1="1193.375" x2="1235.375" y1="387.9198" y2="387.9198"/><line style="stroke:#181818;stroke-width:1.0;" x1="1235.375" x2="1235.375" y1="387.9198" y2="400.9198"/><line style="stroke:#181818;stroke-width:1.0;" x1="1194.375" x2="1235.375" y1="400.9198" y2="400.9198"/><polygon fill="#181818" points="1204.375,396.9198,1194.375,400.9198,1204.375,404.9198,1200.375,400.9198" style="stroke:#181818;stroke-width:1.0;"/><text fill="#000000" font-family="sans-serif" font-size="20" font-weight="bold" lengthAdjust="spacing" textLength="11.625" x="1200.375" y="380.0598">5</text><text fill="#000000" font-family="sans-serif" font-size="20" lengthAdjust="spacing" textLength="124" x="1216" y="380.0598">updateState()</text><polygon fill="#181818" points="41,468.1598,31,472.1598,41,476.1598,37,472.1598" style="stroke:#181818;stroke-width:1.0;"/><line style="stroke:#181818;stroke-width:1.0;stroke-dasharray:2.0,2.0;" x1="35" x2="314.625" y1="472.1598" y2="472.1598"/><text fill="#000000" font-family="sans-serif" font-size="20" font-weight="bold" lengthAdjust="spacing" textLength="11.625" x="47" y="464.2998">6</text><text fill="#000000" font-family="sans-serif" font-size="20" lengthAdjust="spacing" textLength="236" x="62.625" y="464.2998">informs operation sucess</text><!--SRC=[VPB1Ri8m38RlUGgB4noGfXqHuZ2qIPKs8P7n024n8wDDeiJfj3tzd9QDmc0znSxdt_QVfeDrGKNLr5uVq831dSerFNb7qduXtDy9bScxt6mn2g4q-GYZJS8u0fLW8mHNazKsA4SmadgF9jVuWaZMlMsgdgfWFWyH4pfIPBrRBFujMtBtwElws6Jvkdvc0HL2RVNL-jCyyd7DgF6DidyebjKH2MNUlgEcNblUn5TRLcsFmgk7Cx1pmhQAi5XmEbT2ECy7ptKb0g0z0g_UMfyJ9CAGu0CZ4uqbGbC83uqw85W2LCbo8MUoCnWJAMS4EWD5TD2dE294vyjqqIyz0tRNLAwrX6ay6Gx5rq9q4CEyS459yalWEFa6kzDa82vPMlwotDhkFd_CAD9No6BF378mHNH0S5w8Sdd1zDqlGODdyUrmUHbrto3LxpnaEiVOXWgcnJAUnBgTZqq27p1sVnMah36bCvtgN5Py0m00]--></g></svg>