<?xml version="1.0" encoding="UTF-8" standalone="no"?><svg xmlns="http://www.w3.org/2000/svg" xmlns:xlink="http://www.w3.org/1999/xlink" contentStyleType="text/css" height="419px" preserveAspectRatio="none" style="width:779px;height:419px;background:#FFFFFF;" version="1.1" viewBox="0 0 779 419" width="779px" zoomAndPan="magnify"><defs/><g><rect fill="#FFFFFF" height="215.6875" style="stroke:#181818;stroke-width:1.0;" width="10" x="25.5" y="98.2813"/><rect fill="#FFFFFF" height="37.2813" style="stroke:#181818;stroke-width:1.0;" width="10" x="733.5" y="127.5625"/><rect fill="#FFFFFF" height="37.2813" style="stroke:#181818;stroke-width:1.0;" width="10" x="733.5" y="202.125"/><rect fill="#FFFFFF" height="37.2813" style="stroke:#181818;stroke-width:1.0;" width="10" x="733.5" y="276.6875"/><line style="stroke:#181818;stroke-width:0.5;stroke-dasharray:5.0,5.0;" x1="30" x2="30" y1="88.2813" y2="331.9688"/><line style="stroke:#181818;stroke-width:0.5;stroke-dasharray:5.0,5.0;" x1="738.5" x2="738.5" y1="88.2813" y2="331.9688"/><text fill="#000000" font-family="sans-serif" font-size="20" lengthAdjust="spacing" textLength="45" x="5" y="83.5645">User</text><ellipse cx="30.5" cy="13.5" fill="#E2E2F0" rx="8" ry="8" style="stroke:#181818;stroke-width:0.5;"/><path d="M30.5,21.5 L30.5,48.5 M17.5,29.5 L43.5,29.5 M30.5,48.5 L17.5,63.5 M30.5,48.5 L43.5,63.5 " fill="none" style="stroke:#181818;stroke-width:0.5;"/><text fill="#000000" font-family="sans-serif" font-size="20" lengthAdjust="spacing" textLength="45" x="5" y="349.5332">User</text><ellipse cx="30.5" cy="362.75" fill="#E2E2F0" rx="8" ry="8" style="stroke:#181818;stroke-width:0.5;"/><path d="M30.5,370.75 L30.5,397.75 M17.5,378.75 L43.5,378.75 M30.5,397.75 L17.5,412.75 M30.5,397.75 L43.5,412.75 " fill="none" style="stroke:#181818;stroke-width:0.5;"/><text fill="#000000" font-family="sans-serif" font-size="20" lengthAdjust="spacing" textLength="74" x="698.5" y="83.5645">System</text><ellipse cx="738.5" cy="13.5" fill="#E2E2F0" rx="8" ry="8" style="stroke:#181818;stroke-width:0.5;"/><path d="M738.5,21.5 L738.5,48.5 M725.5,29.5 L751.5,29.5 M738.5,48.5 L725.5,63.5 M738.5,48.5 L751.5,63.5 " fill="none" style="stroke:#181818;stroke-width:0.5;"/><text fill="#000000" font-family="sans-serif" font-size="20" lengthAdjust="spacing" textLength="74" x="698.5" y="349.5332">System</text><ellipse cx="738.5" cy="362.75" fill="#E2E2F0" rx="8" ry="8" style="stroke:#181818;stroke-width:0.5;"/><path d="M738.5,370.75 L738.5,397.75 M725.5,378.75 L751.5,378.75 M738.5,397.75 L725.5,412.75 M738.5,397.75 L751.5,412.75 " fill="none" style="stroke:#181818;stroke-width:0.5;"/><rect fill="#FFFFFF" height="215.6875" style="stroke:#181818;stroke-width:1.0;" width="10" x="25.5" y="98.2813"/><rect fill="#FFFFFF" height="37.2813" style="stroke:#181818;stroke-width:1.0;" width="10" x="733.5" y="127.5625"/><rect fill="#FFFFFF" height="37.2813" style="stroke:#181818;stroke-width:1.0;" width="10" x="733.5" y="202.125"/><rect fill="#FFFFFF" height="37.2813" style="stroke:#181818;stroke-width:1.0;" width="10" x="733.5" y="276.6875"/><polygon fill="#181818" points="721.5,123.5625,731.5,127.5625,721.5,131.5625,725.5,127.5625" style="stroke:#181818;stroke-width:1.0;"/><line style="stroke:#181818;stroke-width:1.0;" x1="35.5" x2="727.5" y1="127.5625" y2="127.5625"/><text fill="#000000" font-family="sans-serif" font-size="20" font-weight="bold" lengthAdjust="spacing" textLength="14" x="42.5" y="120.8457">1</text><text fill="#000000" font-family="sans-serif" font-size="20" lengthAdjust="spacing" textLength="276" x="60.5" y="120.8457">Asks to schedule a meeting</text><polygon fill="#181818" points="46.5,160.8438,36.5,164.8438,46.5,168.8438,42.5,164.8438" style="stroke:#181818;stroke-width:1.0;"/><line style="stroke:#181818;stroke-width:1.0;stroke-dasharray:2.0,2.0;" x1="40.5" x2="737.5" y1="164.8438" y2="164.8438"/><text fill="#000000" font-family="sans-serif" font-size="20" font-weight="bold" lengthAdjust="spacing" textLength="14" x="52.5" y="158.127">2</text><text fill="#000000" font-family="sans-serif" font-size="20" lengthAdjust="spacing" textLength="487" x="70.5" y="158.127">requests the data needed to schedule a meeting</text><polygon fill="#181818" points="721.5,198.125,731.5,202.125,721.5,206.125,725.5,202.125" style="stroke:#181818;stroke-width:1.0;"/><line style="stroke:#181818;stroke-width:1.0;" x1="35.5" x2="727.5" y1="202.125" y2="202.125"/><text fill="#000000" font-family="sans-serif" font-size="20" font-weight="bold" lengthAdjust="spacing" textLength="14" x="42.5" y="195.4082">3</text><text fill="#000000" font-family="sans-serif" font-size="20" lengthAdjust="spacing" textLength="251" x="60.5" y="195.4082">types the requested data</text><polygon fill="#181818" points="46.5,235.4063,36.5,239.4063,46.5,243.4063,42.5,239.4063" style="stroke:#181818;stroke-width:1.0;"/><line style="stroke:#181818;stroke-width:1.0;stroke-dasharray:2.0,2.0;" x1="40.5" x2="737.5" y1="239.4063" y2="239.4063"/><text fill="#000000" font-family="sans-serif" font-size="20" font-weight="bold" lengthAdjust="spacing" textLength="14" x="52.5" y="232.6895">4</text><text fill="#000000" font-family="sans-serif" font-size="20" lengthAdjust="spacing" textLength="656" x="70.5" y="232.6895">informs if the data is valid and if all users can attend the meeting</text><polygon fill="#181818" points="721.5,272.6875,731.5,276.6875,721.5,280.6875,725.5,276.6875" style="stroke:#181818;stroke-width:1.0;"/><line style="stroke:#181818;stroke-width:1.0;" x1="35.5" x2="727.5" y1="276.6875" y2="276.6875"/><text fill="#000000" font-family="sans-serif" font-size="20" font-weight="bold" lengthAdjust="spacing" textLength="14" x="42.5" y="269.9707">5</text><text fill="#000000" font-family="sans-serif" font-size="20" lengthAdjust="spacing" textLength="177" x="60.5" y="269.9707">confirms the data</text><polygon fill="#181818" points="41.5,309.9688,31.5,313.9688,41.5,317.9688,37.5,313.9688" style="stroke:#181818;stroke-width:1.0;"/><line style="stroke:#181818;stroke-width:1.0;stroke-dasharray:2.0,2.0;" x1="35.5" x2="737.5" y1="313.9688" y2="313.9688"/><text fill="#000000" font-family="sans-serif" font-size="20" font-weight="bold" lengthAdjust="spacing" textLength="14" x="47.5" y="307.252">6</text><text fill="#000000" font-family="sans-serif" font-size="20" lengthAdjust="spacing" textLength="250" x="65.5" y="307.252">informs operation sucess</text><!--SRC=[bP6nRWCX44Hxlc9rlQKefOj8QV83LZvW0tCnEWukx6B9_le0TvOZsKNShOQPjmF8vEF2cUUGx0H73YENe1yfwi5VGAylXekcMEOlP6FOQihqASZ4GaCRXaqyd4KnTtaTXsxt9rRqX34zjtkxMlVqBfEG9X9xX2i1n3G3wkFtBRgQZTb2kvhld3rb_1I8Li8Hv5YP8k3g9HuJ7UwOTuNql63bRV3s99Nydpe-ZYdFGdwy5V929mxU4KVN3ZW4AjKkP3aIgwBgpVrCIPlYwDkcwvfdsgK5cTMdI58iH1vj_2FrZ_i5]--></g></svg>