<?xml version="1.0" encoding="UTF-8" standalone="no"?><svg xmlns="http://www.w3.org/2000/svg" xmlns:xlink="http://www.w3.org/1999/xlink" contentStyleType="text/css" height="1327px" preserveAspectRatio="none" style="width:2343px;height:1327px;background:#FFFFFF;" version="1.1" viewBox="0 0 2343 1327" width="2343px" zoomAndPan="magnify"><defs/><g><rect fill="#FFFFFF" height="1077.7594" style="stroke:#181818;stroke-width:1.0;" width="10" x="25.5" y="115.4799"/><rect fill="#FFFFFF" height="41.24" style="stroke:#181818;stroke-width:1.0;" width="10" x="716.75" y="148.7199"/><rect fill="#FFFFFF" height="291.6798" style="stroke:#181818;stroke-width:1.0;" width="10" x="716.75" y="231.1999"/><rect fill="#FFFFFF" height="362.9198" style="stroke:#181818;stroke-width:1.0;" width="10" x="716.75" y="564.1197"/><rect fill="#FFFFFF" height="224.9599" style="stroke:#181818;stroke-width:1.0;" width="10" x="716.75" y="968.2794"/><rect fill="#FFFFFF" height="217.1999" style="stroke:#181818;stroke-width:1.0;" width="10" x="970.375" y="272.4398"/><rect fill="#FFFFFF" height="280.4398" style="stroke:#181818;stroke-width:1.0;" width="10" x="970.375" y="605.3596"/><rect fill="#FFFFFF" height="142.4799" style="stroke:#181818;stroke-width:1.0;" width="10" x="970.375" y="1009.5194"/><rect fill="#FFFFFF" height="30" style="stroke:#181818;stroke-width:1.0;" width="10" x="1219.625" y="855.7995"/><rect fill="#FFFFFF" height="175.9599" style="stroke:#181818;stroke-width:1.0;" width="10" x="1361.625" y="313.6798"/><rect fill="#FFFFFF" height="71.24" style="stroke:#181818;stroke-width:1.0;" width="10" x="1523.25" y="403.3997"/><rect fill="#FFFFFF" height="71.24" style="stroke:#181818;stroke-width:1.0;" width="10" x="1523.25" y="736.3195"/><rect fill="#FFFFFF" height="30" style="stroke:#181818;stroke-width:1.0;" width="10" x="1792.25" y="1050.7594"/><rect fill="#FFFFFF" height="175.9599" style="stroke:#181818;stroke-width:1.0;" width="10" x="1973.75" y="646.5996"/><rect fill="#FFFFFF" height="30" style="stroke:#181818;stroke-width:1.0;" width="10" x="2142.75" y="1121.9994"/><rect fill="#FFFFFF" height="30" style="stroke:#181818;stroke-width:1.0;" width="10" x="2262.75" y="444.6397"/><rect fill="#FFFFFF" height="30" style="stroke:#181818;stroke-width:1.0;" width="10" x="2262.75" y="777.5595"/><rect fill="none" height="153.9599" style="stroke:#000000;stroke-width:1.5;" width="1029.625" x="1276.125" y="328.6798"/><rect fill="none" height="153.9599" style="stroke:#000000;stroke-width:1.5;" width="839" x="1466.75" y="661.5996"/><line style="stroke:#181818;stroke-width:0.5;stroke-dasharray:5.0,5.0;" x1="30" x2="30" y1="105.4799" y2="1211.2393"/><line style="stroke:#181818;stroke-width:0.5;stroke-dasharray:5.0,5.0;" x1="721.25" x2="721.25" y1="105.4799" y2="1211.2393"/><line style="stroke:#181818;stroke-width:0.5;stroke-dasharray:5.0,5.0;" x1="974.875" x2="974.875" y1="105.4799" y2="1211.2393"/><line style="stroke:#181818;stroke-width:0.5;stroke-dasharray:5.0,5.0;" x1="1224.125" x2="1224.125" y1="105.4799" y2="1211.2393"/><line style="stroke:#181818;stroke-width:0.5;stroke-dasharray:5.0,5.0;" x1="1366.125" x2="1366.125" y1="105.4799" y2="1211.2393"/><line style="stroke:#181818;stroke-width:0.5;stroke-dasharray:5.0,5.0;" x1="1527.75" x2="1527.75" y1="105.4799" y2="1211.2393"/><line style="stroke:#181818;stroke-width:0.5;stroke-dasharray:5.0,5.0;" x1="1640.75" x2="1640.75" y1="105.4799" y2="1211.2393"/><line style="stroke:#181818;stroke-width:0.5;stroke-dasharray:5.0,5.0;" x1="1796.75" x2="1796.75" y1="105.4799" y2="1211.2393"/><line style="stroke:#181818;stroke-width:0.5;stroke-dasharray:5.0,5.0;" x1="1978.75" x2="1978.75" y1="105.4799" y2="1211.2393"/><line style="stroke:#181818;stroke-width:0.5;stroke-dasharray:5.0,5.0;" x1="2147.75" x2="2147.75" y1="105.4799" y2="1211.2393"/><line style="stroke:#181818;stroke-width:0.5;stroke-dasharray:5.0,5.0;" x1="2267.75" x2="2267.75" y1="105.4799" y2="1211.2393"/><line style="stroke:#181818;stroke-width:0.5;stroke-dasharray:5.0,5.0;" x1="2321.75" x2="2321.75" y1="105.4799" y2="1211.2393"/><text fill="#000000" font-family="sans-serif" font-size="20" lengthAdjust="spacing" textLength="45" x="5" y="99.62">User</text><ellipse cx="30.5" cy="26.74" fill="#E2E2F0" rx="8" ry="8" style="stroke:#181818;stroke-width:0.5;"/><path d="M30.5,34.74 L30.5,61.74 M17.5,42.74 L43.5,42.74 M30.5,61.74 L17.5,76.74 M30.5,61.74 L43.5,76.74 " fill="none" style="stroke:#181818;stroke-width:0.5;"/><text fill="#000000" font-family="sans-serif" font-size="20" lengthAdjust="spacing" textLength="45" x="5" y="1231.6193">User</text><ellipse cx="30.5" cy="1245.9793" fill="#E2E2F0" rx="8" ry="8" style="stroke:#181818;stroke-width:0.5;"/><path d="M30.5,1253.9793 L30.5,1280.9793 M17.5,1261.9793 L43.5,1261.9793 M30.5,1280.9793 L17.5,1295.9793 M30.5,1280.9793 L43.5,1295.9793 " fill="none" style="stroke:#181818;stroke-width:0.5;"/><rect fill="#E2E2F0" height="68.4799" rx="2.5" ry="2.5" style="stroke:#181818;stroke-width:0.5;" width="203" x="620.25" y="36"/><text fill="#000000" font-family="sans-serif" font-size="20" font-style="italic" lengthAdjust="spacing" textLength="134" x="654.75" y="64.38">«presentation»</text><text fill="#000000" font-family="sans-serif" font-size="20" lengthAdjust="spacing" textLength="189" x="627.25" y="91.62">ScheduleMeetingUI</text><rect fill="#E2E2F0" height="68.4799" rx="2.5" ry="2.5" style="stroke:#181818;stroke-width:0.5;" width="203" x="620.25" y="1210.2393"/><text fill="#000000" font-family="sans-serif" font-size="20" font-style="italic" lengthAdjust="spacing" textLength="134" x="654.75" y="1238.6193">«presentation»</text><text fill="#000000" font-family="sans-serif" font-size="20" lengthAdjust="spacing" textLength="189" x="627.25" y="1265.8593">ScheduleMeetingUI</text><rect fill="#E2E2F0" height="68.4799" rx="2.5" ry="2.5" style="stroke:#181818;stroke-width:0.5;" width="279" x="835.875" y="36"/><text fill="#000000" font-family="sans-serif" font-size="20" font-style="italic" lengthAdjust="spacing" textLength="120" x="915.375" y="64.38">«application»</text><text fill="#000000" font-family="sans-serif" font-size="20" lengthAdjust="spacing" textLength="265" x="842.875" y="91.62">ScheduleMeetingController</text><rect fill="#E2E2F0" height="68.4799" rx="2.5" ry="2.5" style="stroke:#181818;stroke-width:0.5;" width="279" x="835.875" y="1210.2393"/><text fill="#000000" font-family="sans-serif" font-size="20" font-style="italic" lengthAdjust="spacing" textLength="120" x="915.375" y="1238.6193">«application»</text><text fill="#000000" font-family="sans-serif" font-size="20" lengthAdjust="spacing" textLength="265" x="842.875" y="1265.8593">ScheduleMeetingController</text><rect fill="#E2E2F0" height="68.4799" rx="2.5" ry="2.5" style="stroke:#181818;stroke-width:0.5;" width="103" x="1173.125" y="36"/><text fill="#000000" font-family="sans-serif" font-size="20" font-style="italic" lengthAdjust="spacing" textLength="89" x="1180.125" y="64.38">«domain»</text><text fill="#000000" font-family="sans-serif" font-size="20" lengthAdjust="spacing" textLength="80" x="1184.625" y="91.62">Meeting</text><rect fill="#E2E2F0" height="68.4799" rx="2.5" ry="2.5" style="stroke:#181818;stroke-width:0.5;" width="103" x="1173.125" y="1210.2393"/><text fill="#000000" font-family="sans-serif" font-size="20" font-style="italic" lengthAdjust="spacing" textLength="89" x="1180.125" y="1238.6193">«domain»</text><text fill="#000000" font-family="sans-serif" font-size="20" lengthAdjust="spacing" textLength="80" x="1184.625" y="1265.8593">Meeting</text><rect fill="#E2E2F0" height="68.4799" rx="2.5" ry="2.5" style="stroke:#181818;stroke-width:0.5;" width="161" x="1286.125" y="36"/><text fill="#000000" font-family="sans-serif" font-size="20" font-style="italic" lengthAdjust="spacing" textLength="80" x="1326.625" y="64.38">«service»</text><text fill="#000000" font-family="sans-serif" font-size="20" lengthAdjust="spacing" textLength="147" x="1293.125" y="91.62">MeetingService</text><rect fill="#E2E2F0" height="68.4799" rx="2.5" ry="2.5" style="stroke:#181818;stroke-width:0.5;" width="161" x="1286.125" y="1210.2393"/><text fill="#000000" font-family="sans-serif" font-size="20" font-style="italic" lengthAdjust="spacing" textLength="80" x="1326.625" y="1238.6193">«service»</text><text fill="#000000" font-family="sans-serif" font-size="20" lengthAdjust="spacing" textLength="147" x="1293.125" y="1265.8593">MeetingService</text><rect fill="#E2E2F0" height="68.4799" rx="2.5" ry="2.5" style="stroke:#181818;stroke-width:0.5;" width="103" x="1476.75" y="36"/><text fill="#000000" font-family="sans-serif" font-size="20" font-style="italic" lengthAdjust="spacing" textLength="89" x="1483.75" y="64.38">«domain»</text><text fill="#000000" font-family="sans-serif" font-size="20" lengthAdjust="spacing" textLength="45" x="1505.75" y="91.62">User</text><rect fill="#E2E2F0" height="68.4799" rx="2.5" ry="2.5" style="stroke:#181818;stroke-width:0.5;" width="103" x="1476.75" y="1210.2393"/><text fill="#000000" font-family="sans-serif" font-size="20" font-style="italic" lengthAdjust="spacing" textLength="89" x="1483.75" y="1238.6193">«domain»</text><text fill="#000000" font-family="sans-serif" font-size="20" lengthAdjust="spacing" textLength="45" x="1505.75" y="1265.8593">User</text><rect fill="#E2E2F0" height="68.4799" rx="2.5" ry="2.5" style="stroke:#181818;stroke-width:0.5;" width="103" x="1589.75" y="36"/><text fill="#000000" font-family="sans-serif" font-size="20" font-style="italic" lengthAdjust="spacing" textLength="89" x="1596.75" y="64.38">«domain»</text><text fill="#000000" font-family="sans-serif" font-size="20" lengthAdjust="spacing" textLength="55" x="1613.75" y="91.62">Invite</text><rect fill="#E2E2F0" height="68.4799" rx="2.5" ry="2.5" style="stroke:#181818;stroke-width:0.5;" width="103" x="1589.75" y="1210.2393"/><text fill="#000000" font-family="sans-serif" font-size="20" font-style="italic" lengthAdjust="spacing" textLength="89" x="1596.75" y="1238.6193">«domain»</text><text fill="#000000" font-family="sans-serif" font-size="20" lengthAdjust="spacing" textLength="55" x="1613.75" y="1265.8593">Invite</text><text fill="#000000" font-family="sans-serif" font-size="20" font-style="italic" lengthAdjust="spacing" textLength="110" x="1739.25" y="72.38">«repository»</text><text fill="#000000" font-family="sans-serif" font-size="20" lengthAdjust="spacing" textLength="183" x="1702.75" y="99.62">MeetingRepository</text><path d="M1779.25,15 C1779.25,5 1797.25,5 1797.25,5 C1797.25,5 1815.25,5 1815.25,15 L1815.25,41 C1815.25,51 1797.25,51 1797.25,51 C1797.25,51 1779.25,51 1779.25,41 L1779.25,15 " fill="#E2E2F0" style="stroke:#181818;stroke-width:1.5;"/><path d="M1779.25,15 C1779.25,25 1797.25,25 1797.25,25 C1797.25,25 1815.25,25 1815.25,15 " fill="none" style="stroke:#181818;stroke-width:1.5;"/><text fill="#000000" font-family="sans-serif" font-size="20" font-style="italic" lengthAdjust="spacing" textLength="110" x="1739.25" y="1231.6193">«repository»</text><text fill="#000000" font-family="sans-serif" font-size="20" lengthAdjust="spacing" textLength="183" x="1702.75" y="1258.8593">MeetingRepository</text><path d="M1779.25,1274.7193 C1779.25,1264.7193 1797.25,1264.7193 1797.25,1264.7193 C1797.25,1264.7193 1815.25,1264.7193 1815.25,1274.7193 L1815.25,1300.7193 C1815.25,1310.7193 1797.25,1310.7193 1797.25,1310.7193 C1797.25,1310.7193 1779.25,1310.7193 1779.25,1300.7193 L1779.25,1274.7193 " fill="#E2E2F0" style="stroke:#181818;stroke-width:1.5;"/><path d="M1779.25,1274.7193 C1779.25,1284.7193 1797.25,1284.7193 1797.25,1284.7193 C1797.25,1284.7193 1815.25,1284.7193 1815.25,1274.7193 " fill="none" style="stroke:#181818;stroke-width:1.5;"/><text fill="#000000" font-family="sans-serif" font-size="20" font-style="italic" lengthAdjust="spacing" textLength="110" x="1920.75" y="72.38">«repository»</text><text fill="#000000" font-family="sans-serif" font-size="20" lengthAdjust="spacing" textLength="148" x="1901.75" y="99.62">UserRepository</text><path d="M1960.75,15 C1960.75,5 1978.75,5 1978.75,5 C1978.75,5 1996.75,5 1996.75,15 L1996.75,41 C1996.75,51 1978.75,51 1978.75,51 C1978.75,51 1960.75,51 1960.75,41 L1960.75,15 " fill="#E2E2F0" style="stroke:#181818;stroke-width:1.5;"/><path d="M1960.75,15 C1960.75,25 1978.75,25 1978.75,25 C1978.75,25 1996.75,25 1996.75,15 " fill="none" style="stroke:#181818;stroke-width:1.5;"/><text fill="#000000" font-family="sans-serif" font-size="20" font-style="italic" lengthAdjust="spacing" textLength="110" x="1920.75" y="1231.6193">«repository»</text><text fill="#000000" font-family="sans-serif" font-size="20" lengthAdjust="spacing" textLength="148" x="1901.75" y="1258.8593">UserRepository</text><path d="M1960.75,1274.7193 C1960.75,1264.7193 1978.75,1264.7193 1978.75,1264.7193 C1978.75,1264.7193 1996.75,1264.7193 1996.75,1274.7193 L1996.75,1300.7193 C1996.75,1310.7193 1978.75,1310.7193 1978.75,1310.7193 C1978.75,1310.7193 1960.75,1310.7193 1960.75,1300.7193 L1960.75,1274.7193 " fill="#E2E2F0" style="stroke:#181818;stroke-width:1.5;"/><path d="M1960.75,1274.7193 C1960.75,1284.7193 1978.75,1284.7193 1978.75,1284.7193 C1978.75,1284.7193 1996.75,1284.7193 1996.75,1274.7193 " fill="none" style="stroke:#181818;stroke-width:1.5;"/><text fill="#000000" font-family="sans-serif" font-size="20" font-style="italic" lengthAdjust="spacing" textLength="110" x="2089.75" y="72.38">«repository»</text><text fill="#000000" font-family="sans-serif" font-size="20" lengthAdjust="spacing" textLength="158" x="2065.75" y="99.62">InviteRepository</text><path d="M2129.75,15 C2129.75,5 2147.75,5 2147.75,5 C2147.75,5 2165.75,5 2165.75,15 L2165.75,41 C2165.75,51 2147.75,51 2147.75,51 C2147.75,51 2129.75,51 2129.75,41 L2129.75,15 " fill="#E2E2F0" style="stroke:#181818;stroke-width:1.5;"/><path d="M2129.75,15 C2129.75,25 2147.75,25 2147.75,25 C2147.75,25 2165.75,25 2165.75,15 " fill="none" style="stroke:#181818;stroke-width:1.5;"/><text fill="#000000" font-family="sans-serif" font-size="20" font-style="italic" lengthAdjust="spacing" textLength="110" x="2089.75" y="1231.6193">«repository»</text><text fill="#000000" font-family="sans-serif" font-size="20" lengthAdjust="spacing" textLength="158" x="2065.75" y="1258.8593">InviteRepository</text><path d="M2129.75,1274.7193 C2129.75,1264.7193 2147.75,1264.7193 2147.75,1264.7193 C2147.75,1264.7193 2165.75,1264.7193 2165.75,1274.7193 L2165.75,1300.7193 C2165.75,1310.7193 2147.75,1310.7193 2147.75,1310.7193 C2147.75,1310.7193 2129.75,1310.7193 2129.75,1300.7193 L2129.75,1274.7193 " fill="#E2E2F0" style="stroke:#181818;stroke-width:1.5;"/><path d="M2129.75,1274.7193 C2129.75,1284.7193 2147.75,1284.7193 2147.75,1284.7193 C2147.75,1284.7193 2165.75,1284.7193 2165.75,1274.7193 " fill="none" style="stroke:#181818;stroke-width:1.5;"/><rect fill="#E2E2F0" height="41.24" rx="2.5" ry="2.5" style="stroke:#181818;stroke-width:0.5;" width="56" x="2239.75" y="63.24"/><text fill="#000000" font-family="sans-serif" font-size="20" lengthAdjust="spacing" textLength="42" x="2246.75" y="91.62">DTO</text><rect fill="#E2E2F0" height="41.24" rx="2.5" ry="2.5" style="stroke:#181818;stroke-width:0.5;" width="56" x="2239.75" y="1210.2393"/><text fill="#000000" font-family="sans-serif" font-size="20" lengthAdjust="spacing" textLength="42" x="2246.75" y="1238.6193">DTO</text><rect fill="#E2E2F0" height="41.24" rx="2.5" ry="2.5" style="stroke:#181818;stroke-width:0.5;" width="32" x="2305.75" y="63.24"/><text fill="#000000" font-family="sans-serif" font-size="20" lengthAdjust="spacing" textLength="18" x="2312.75" y="91.62">M</text><rect fill="#E2E2F0" height="41.24" rx="2.5" ry="2.5" style="stroke:#181818;stroke-width:0.5;" width="32" x="2305.75" y="1210.2393"/><text fill="#000000" font-family="sans-serif" font-size="20" lengthAdjust="spacing" textLength="18" x="2312.75" y="1238.6193">M</text><rect fill="#FFFFFF" height="1077.7594" style="stroke:#181818;stroke-width:1.0;" width="10" x="25.5" y="115.4799"/><rect fill="#FFFFFF" height="41.24" style="stroke:#181818;stroke-width:1.0;" width="10" x="716.75" y="148.7199"/><rect fill="#FFFFFF" height="291.6798" style="stroke:#181818;stroke-width:1.0;" width="10" x="716.75" y="231.1999"/><rect fill="#FFFFFF" height="362.9198" style="stroke:#181818;stroke-width:1.0;" width="10" x="716.75" y="564.1197"/><rect fill="#FFFFFF" height="224.9599" style="stroke:#181818;stroke-width:1.0;" width="10" x="716.75" y="968.2794"/><rect fill="#FFFFFF" height="217.1999" style="stroke:#181818;stroke-width:1.0;" width="10" x="970.375" y="272.4398"/><rect fill="#FFFFFF" height="280.4398" style="stroke:#181818;stroke-width:1.0;" width="10" x="970.375" y="605.3596"/><rect fill="#FFFFFF" height="142.4799" style="stroke:#181818;stroke-width:1.0;" width="10" x="970.375" y="1009.5194"/><rect fill="#FFFFFF" height="30" style="stroke:#181818;stroke-width:1.0;" width="10" x="1219.625" y="855.7995"/><rect fill="#FFFFFF" height="175.9599" style="stroke:#181818;stroke-width:1.0;" width="10" x="1361.625" y="313.6798"/><rect fill="#FFFFFF" height="71.24" style="stroke:#181818;stroke-width:1.0;" width="10" x="1523.25" y="403.3997"/><rect fill="#FFFFFF" height="71.24" style="stroke:#181818;stroke-width:1.0;" width="10" x="1523.25" y="736.3195"/><rect fill="#FFFFFF" height="30" style="stroke:#181818;stroke-width:1.0;" width="10" x="1792.25" y="1050.7594"/><rect fill="#FFFFFF" height="175.9599" style="stroke:#181818;stroke-width:1.0;" width="10" x="1973.75" y="646.5996"/><rect fill="#FFFFFF" height="30" style="stroke:#181818;stroke-width:1.0;" width="10" x="2142.75" y="1121.9994"/><rect fill="#FFFFFF" height="30" style="stroke:#181818;stroke-width:1.0;" width="10" x="2262.75" y="444.6397"/><rect fill="#FFFFFF" height="30" style="stroke:#181818;stroke-width:1.0;" width="10" x="2262.75" y="777.5595"/><polygon fill="#181818" points="704.75,144.7199,714.75,148.7199,704.75,152.7199,708.75,148.7199" style="stroke:#181818;stroke-width:1.0;"/><line style="stroke:#181818;stroke-width:1.0;" x1="35.5" x2="710.75" y1="148.7199" y2="148.7199"/><text fill="#000000" font-family="sans-serif" font-size="20" font-weight="bold" lengthAdjust="spacing" textLength="11.625" x="42.5" y="140.8599">1</text><text fill="#000000" font-family="sans-serif" font-size="20" lengthAdjust="spacing" textLength="262" x="58.125" y="140.8599">Asks to schedule a meeting</text><polygon fill="#181818" points="46.5,185.9599,36.5,189.9599,46.5,193.9599,42.5,189.9599" style="stroke:#181818;stroke-width:1.0;"/><line style="stroke:#181818;stroke-width:1.0;stroke-dasharray:2.0,2.0;" x1="40.5" x2="720.75" y1="189.9599" y2="189.9599"/><text fill="#000000" font-family="sans-serif" font-size="20" font-weight="bold" lengthAdjust="spacing" textLength="11.625" x="52.5" y="182.0999">2</text><text fill="#000000" font-family="sans-serif" font-size="20" lengthAdjust="spacing" textLength="465" x="68.125" y="182.0999">requests the data needed to schedule a meeting</text><polygon fill="#181818" points="704.75,227.1999,714.75,231.1999,704.75,235.1999,708.75,231.1999" style="stroke:#181818;stroke-width:1.0;"/><line style="stroke:#181818;stroke-width:1.0;" x1="35.5" x2="710.75" y1="231.1999" y2="231.1999"/><text fill="#000000" font-family="sans-serif" font-size="20" font-weight="bold" lengthAdjust="spacing" textLength="11.625" x="42.5" y="223.3399">3</text><text fill="#000000" font-family="sans-serif" font-size="20" lengthAdjust="spacing" textLength="241" x="58.125" y="223.3399">types the requested data</text><polygon fill="#181818" points="958.375,268.4398,968.375,272.4398,958.375,276.4398,962.375,272.4398" style="stroke:#181818;stroke-width:1.0;"/><line style="stroke:#181818;stroke-width:1.0;" x1="726.75" x2="964.375" y1="272.4398" y2="272.4398"/><text fill="#000000" font-family="sans-serif" font-size="20" font-weight="bold" lengthAdjust="spacing" textLength="11.625" x="733.75" y="264.5799">4</text><text fill="#000000" font-family="sans-serif" font-size="20" lengthAdjust="spacing" textLength="209" x="749.375" y="264.5799">listAllUsersAvailable()</text><polygon fill="#181818" points="1349.625,309.6798,1359.625,313.6798,1349.625,317.6798,1353.625,313.6798" style="stroke:#181818;stroke-width:1.0;"/><line style="stroke:#181818;stroke-width:1.0;" x1="980.375" x2="1355.625" y1="313.6798" y2="313.6798"/><text fill="#000000" font-family="sans-serif" font-size="20" font-weight="bold" lengthAdjust="spacing" textLength="11.625" x="987.375" y="305.8198">5</text><text fill="#000000" font-family="sans-serif" font-size="20" lengthAdjust="spacing" textLength="285" x="1003" y="305.8198">listAllIterableUsersAvailable()</text><path d="M1276.125,328.6798 L1366.625,328.6798 L1366.625,347.9198 L1356.625,357.9198 L1276.125,357.9198 L1276.125,328.6798 " fill="#EEEEEE" style="stroke:#000000;stroke-width:1.5;"/><rect fill="none" height="153.9599" style="stroke:#000000;stroke-width:1.5;" width="1029.625" x="1276.125" y="328.6798"/><text fill="#000000" font-family="sans-serif" font-size="20" font-weight="bold" lengthAdjust="spacing" textLength="45.5" x="1291.125" y="351.0598">loop</text><text fill="#000000" font-family="sans-serif" font-size="20" font-weight="bold" lengthAdjust="spacing" textLength="147.125" x="1381.625" y="352.0598">[for each user]</text><polygon fill="#181818" points="1511.25,399.3997,1521.25,403.3997,1511.25,407.3997,1515.25,403.3997" style="stroke:#181818;stroke-width:1.0;"/><line style="stroke:#181818;stroke-width:1.0;" x1="1371.625" x2="1517.25" y1="403.3997" y2="403.3997"/><text fill="#000000" font-family="sans-serif" font-size="20" font-weight="bold" lengthAdjust="spacing" textLength="11.625" x="1378.625" y="395.5398">6</text><text fill="#000000" font-family="sans-serif" font-size="20" lengthAdjust="spacing" textLength="117" x="1394.25" y="395.5398">toDTO(user)</text><polygon fill="#181818" points="2250.75,440.6397,2260.75,444.6397,2250.75,448.6397,2254.75,444.6397" style="stroke:#181818;stroke-width:1.0;"/><line style="stroke:#181818;stroke-width:1.0;" x1="1533.25" x2="2256.75" y1="444.6397" y2="444.6397"/><text fill="#000000" font-family="sans-serif" font-size="20" font-weight="bold" lengthAdjust="spacing" textLength="11.625" x="1540.25" y="436.7797">7</text><text fill="#000000" font-family="sans-serif" font-size="20" lengthAdjust="spacing" textLength="40" x="1555.875" y="436.7797">new</text><polygon fill="#181818" points="2309.75,518.8797,2319.75,522.8797,2309.75,526.8797,2313.75,522.8797" style="stroke:#181818;stroke-width:1.0;"/><line style="stroke:#181818;stroke-width:1.0;stroke-dasharray:2.0,2.0;" x1="721.75" x2="2315.75" y1="522.8797" y2="522.8797"/><text fill="#000000" font-family="sans-serif" font-size="20" font-weight="bold" lengthAdjust="spacing" textLength="11.625" x="728.75" y="515.0197">8</text><text fill="#000000" font-family="sans-serif" font-size="20" lengthAdjust="spacing" textLength="306" x="744.375" y="515.0197">asks to select the users to invite</text><polygon fill="#181818" points="737.75,560.1197,727.75,564.1197,737.75,568.1197,733.75,564.1197" style="stroke:#181818;stroke-width:1.0;"/><line style="stroke:#181818;stroke-width:1.0;" x1="731.75" x2="2320.75" y1="564.1197" y2="564.1197"/><text fill="#000000" font-family="sans-serif" font-size="20" font-weight="bold" lengthAdjust="spacing" textLength="11.625" x="743.75" y="556.2597">9</text><text fill="#000000" font-family="sans-serif" font-size="20" lengthAdjust="spacing" textLength="244" x="759.375" y="556.2597">selects the users to invite</text><polygon fill="#181818" points="958.375,601.3596,968.375,605.3596,958.375,609.3596,962.375,605.3596" style="stroke:#181818;stroke-width:1.0;"/><line style="stroke:#181818;stroke-width:1.0;" x1="726.75" x2="964.375" y1="605.3596" y2="605.3596"/><text fill="#000000" font-family="sans-serif" font-size="20" font-weight="bold" lengthAdjust="spacing" textLength="23.25" x="733.75" y="597.4997">10</text><text fill="#000000" font-family="sans-serif" font-size="20" lengthAdjust="spacing" textLength="151" x="761" y="597.4997">createMeeting()</text><polygon fill="#181818" points="1961.75,642.5996,1971.75,646.5996,1961.75,650.5996,1965.75,646.5996" style="stroke:#181818;stroke-width:1.0;"/><line style="stroke:#181818;stroke-width:1.0;" x1="980.375" x2="1967.75" y1="646.5996" y2="646.5996"/><text fill="#000000" font-family="sans-serif" font-size="20" font-weight="bold" lengthAdjust="spacing" textLength="23.25" x="987.375" y="638.7396">11</text><text fill="#000000" font-family="sans-serif" font-size="20" lengthAdjust="spacing" textLength="150" x="1014.625" y="638.7396">findUsersById()</text><path d="M1466.75,661.5996 L1557.25,661.5996 L1557.25,680.8396 L1547.25,690.8396 L1466.75,690.8396 L1466.75,661.5996 " fill="#EEEEEE" style="stroke:#000000;stroke-width:1.5;"/><rect fill="none" height="153.9599" style="stroke:#000000;stroke-width:1.5;" width="839" x="1466.75" y="661.5996"/><text fill="#000000" font-family="sans-serif" font-size="20" font-weight="bold" lengthAdjust="spacing" textLength="45.5" x="1481.75" y="683.9796">loop</text><text fill="#000000" font-family="sans-serif" font-size="20" font-weight="bold" lengthAdjust="spacing" textLength="147.125" x="1572.25" y="684.9796">[for each user]</text><polygon fill="#181818" points="1544.25,732.3195,1534.25,736.3195,1544.25,740.3195,1540.25,736.3195" style="stroke:#181818;stroke-width:1.0;"/><line style="stroke:#181818;stroke-width:1.0;" x1="1538.25" x2="1972.75" y1="736.3195" y2="736.3195"/><text fill="#000000" font-family="sans-serif" font-size="20" font-weight="bold" lengthAdjust="spacing" textLength="23.25" x="1550.25" y="728.4596">12</text><text fill="#000000" font-family="sans-serif" font-size="20" lengthAdjust="spacing" textLength="95" x="1577.5" y="728.4596">findById()</text><polygon fill="#181818" points="2250.75,773.5595,2260.75,777.5595,2250.75,781.5595,2254.75,777.5595" style="stroke:#181818;stroke-width:1.0;"/><line style="stroke:#181818;stroke-width:1.0;" x1="1533.25" x2="2256.75" y1="777.5595" y2="777.5595"/><text fill="#000000" font-family="sans-serif" font-size="20" font-weight="bold" lengthAdjust="spacing" textLength="23.25" x="1540.25" y="769.6995">13</text><text fill="#000000" font-family="sans-serif" font-size="20" lengthAdjust="spacing" textLength="40" x="1567.5" y="769.6995">new</text><polygon fill="#181818" points="1207.625,851.7995,1217.625,855.7995,1207.625,859.7995,1211.625,855.7995" style="stroke:#181818;stroke-width:1.0;"/><line style="stroke:#181818;stroke-width:1.0;" x1="980.375" x2="1213.625" y1="855.7995" y2="855.7995"/><text fill="#000000" font-family="sans-serif" font-size="20" font-weight="bold" lengthAdjust="spacing" textLength="23.25" x="987.375" y="847.9395">14</text><text fill="#000000" font-family="sans-serif" font-size="20" lengthAdjust="spacing" textLength="193" x="1014.625" y="847.9395">containsOfIdentity()</text><polygon fill="#181818" points="46.5,923.0395,36.5,927.0395,46.5,931.0395,42.5,927.0395" style="stroke:#181818;stroke-width:1.0;"/><line style="stroke:#181818;stroke-width:1.0;stroke-dasharray:2.0,2.0;" x1="40.5" x2="720.75" y1="927.0395" y2="927.0395"/><text fill="#000000" font-family="sans-serif" font-size="20" font-weight="bold" lengthAdjust="spacing" textLength="23.25" x="52.5" y="919.1795">15</text><text fill="#000000" font-family="sans-serif" font-size="20" lengthAdjust="spacing" textLength="630" x="79.75" y="919.1795">informs if the data is valid and if all users can attend the meeting</text><polygon fill="#181818" points="704.75,964.2794,714.75,968.2794,704.75,972.2794,708.75,968.2794" style="stroke:#181818;stroke-width:1.0;"/><line style="stroke:#181818;stroke-width:1.0;" x1="35.5" x2="710.75" y1="968.2794" y2="968.2794"/><text fill="#000000" font-family="sans-serif" font-size="20" font-weight="bold" lengthAdjust="spacing" textLength="23.25" x="42.5" y="960.4195">16</text><text fill="#000000" font-family="sans-serif" font-size="20" lengthAdjust="spacing" textLength="171" x="69.75" y="960.4195">confirms the data</text><polygon fill="#181818" points="958.375,1005.5194,968.375,1009.5194,958.375,1013.5194,962.375,1009.5194" style="stroke:#181818;stroke-width:1.0;"/><line style="stroke:#181818;stroke-width:1.0;" x1="726.75" x2="964.375" y1="1009.5194" y2="1009.5194"/><text fill="#000000" font-family="sans-serif" font-size="20" font-weight="bold" lengthAdjust="spacing" textLength="23.25" x="733.75" y="1001.6594">17</text><text fill="#000000" font-family="sans-serif" font-size="20" lengthAdjust="spacing" textLength="178" x="761" y="1001.6594">scheduleMeeting()</text><polygon fill="#181818" points="1780.25,1046.7594,1790.25,1050.7594,1780.25,1054.7594,1784.25,1050.7594" style="stroke:#181818;stroke-width:1.0;"/><line style="stroke:#181818;stroke-width:1.0;" x1="980.375" x2="1786.25" y1="1050.7594" y2="1050.7594"/><text fill="#000000" font-family="sans-serif" font-size="20" font-weight="bold" lengthAdjust="spacing" textLength="23.25" x="987.375" y="1042.8994">18</text><text fill="#000000" font-family="sans-serif" font-size="20" lengthAdjust="spacing" textLength="134" x="1014.625" y="1042.8994">saveMeeting()</text><polygon fill="#181818" points="2130.75,1117.9994,2140.75,1121.9994,2130.75,1125.9994,2134.75,1121.9994" style="stroke:#181818;stroke-width:1.0;"/><line style="stroke:#181818;stroke-width:1.0;" x1="980.375" x2="2136.75" y1="1121.9994" y2="1121.9994"/><text fill="#000000" font-family="sans-serif" font-size="20" font-weight="bold" lengthAdjust="spacing" textLength="23.25" x="987.375" y="1114.1394">19</text><text fill="#000000" font-family="sans-serif" font-size="20" lengthAdjust="spacing" textLength="119" x="1014.625" y="1114.1394">saveInvites()</text><polygon fill="#181818" points="41.5,1189.2393,31.5,1193.2393,41.5,1197.2393,37.5,1193.2393" style="stroke:#181818;stroke-width:1.0;"/><line style="stroke:#181818;stroke-width:1.0;stroke-dasharray:2.0,2.0;" x1="35.5" x2="720.75" y1="1193.2393" y2="1193.2393"/><text fill="#000000" font-family="sans-serif" font-size="20" font-weight="bold" lengthAdjust="spacing" textLength="23.25" x="47.5" y="1185.3794">20</text><text fill="#000000" font-family="sans-serif" font-size="20" lengthAdjust="spacing" textLength="245" x="74.75" y="1185.3794">informs operation sucess</text><!--SRC=[lLN1Zfim4BtxAqOvxHvMgdfShIAbsxIoL7Ob2BqxC3HM79jYGvL-VMU044X2sbEF7jwR6RytO_nUsr9Lwc1SjiSSSYnKRS8NPqEYVoDy_21K7Poj3rkiX51PS1KiKe_L0fI7L0XY1vtfKja0YoJROLuRZ123jZzIsQ4alBoK5NgqGGNjx79vb_PArIjdJ5_aTHD_emIgB8tERl9xNekErkkDVFjAXDmTb9x39bWrEiEEaX3QTu5B-FcgoJgUJIfjeqENJBvzbvlr62bo5THMUOI-TeobyvgKFBRLEMqrX8WmuBdu59pEWxiUfd1v1MSBTQC2idSfF2tPdMTO-Rs7uC3tJe22GzViY2298U69EKIfy6UDFX1jXy1TW4NCQOPkfybnccWe7OubTadwZ3o6bEwwyB8RXMSmseULCIoFNpLA6xKr-F1uPZ1EY1PDBF9tuCY05QFdkL4YX76kX896dPhUGKrO0Po6U-OveAxTvytx0tzvf4_dLkahdLiGWGb3M8k_nXWAqd6anrMWpO8s1-v3ZANZvaR7xfwzAH6LKYSVqM0MMbMvnpQcsm6vD28QZEWu_YPftekiGehtaptlGSgY5ThchV2VZZ8VOzDuHlCq7cdEz9xv7oNdteP9wXyNkZQzKRJU_hsGEJrhEXmdCzJX9ixreIlxvkpa7TEM13buqCLvoxI7HXcTWw9kwOCofhShKnPK27mBHlzry-WEXURqfzntRFRJ9_hEih5JNZMta54yKMGah3onkbVCZrbomgBJFqdcIbfq_bc0hpFq_bA6yL7y0G00]--></g></svg>