<?xml version="1.0" encoding="UTF-8" standalone="no"?><svg xmlns="http://www.w3.org/2000/svg" xmlns:xlink="http://www.w3.org/1999/xlink" contentStyleType="text/css" height="1217px" preserveAspectRatio="none" style="width:2203px;height:1217px;background:#FFFFFF;" version="1.1" viewBox="0 0 2203 1217" width="2203px" zoomAndPan="magnify"><defs/><g><rect fill="#FFFFFF" height="967.7594" style="stroke:#181818;stroke-width:1.0;" width="10" x="41.5" y="115.4799"/><rect fill="#FFFFFF" height="509.1197" style="stroke:#181818;stroke-width:1.0;" width="10" x="563.125" y="148.7199"/><rect fill="#FFFFFF" height="95.4799" style="stroke:#181818;stroke-width:1.0;" width="10" x="563.125" y="699.0796"/><rect fill="#FFFFFF" height="247.4398" style="stroke:#181818;stroke-width:1.0;" width="10" x="563.125" y="835.7995"/><rect fill="#FFFFFF" height="41.24" style="stroke:#181818;stroke-width:1.0;" width="10" x="1041.75" y="189.9599"/><rect fill="#FFFFFF" height="344.1598" style="stroke:#181818;stroke-width:1.0;" width="10" x="1041.75" y="272.4398"/><rect fill="#FFFFFF" height="164.9599" style="stroke:#181818;stroke-width:1.0;" width="10" x="1041.75" y="877.0395"/><rect fill="#FFFFFF" height="261.6798" style="stroke:#181818;stroke-width:1.0;" width="10" x="1382.375" y="313.6798"/><rect fill="#FFFFFF" height="41.24" style="stroke:#181818;stroke-width:1.0;" width="10" x="1599" y="485.8797"/><rect fill="#FFFFFF" height="41.24" style="stroke:#181818;stroke-width:1.0;" width="10" x="1888" y="354.9198"/><rect fill="#FFFFFF" height="41.24" style="stroke:#181818;stroke-width:1.0;" width="10" x="2091.5" y="959.5194"/><rect fill="none" height="123.9599" style="stroke:#000000;stroke-width:1.5;" width="519.125" x="1285.875" y="411.1598"/><line style="stroke:#181818;stroke-width:0.5;stroke-dasharray:5.0,5.0;" x1="46" x2="46" y1="105.4799" y2="1101.2393"/><line style="stroke:#181818;stroke-width:0.5;stroke-dasharray:5.0,5.0;" x1="568.125" x2="568.125" y1="105.4799" y2="1101.2393"/><line style="stroke:#181818;stroke-width:0.5;stroke-dasharray:5.0,5.0;" x1="1046.75" x2="1046.75" y1="105.4799" y2="1101.2393"/><line style="stroke:#181818;stroke-width:0.5;stroke-dasharray:5.0,5.0;" x1="1386.875" x2="1386.875" y1="105.4799" y2="1101.2393"/><line style="stroke:#181818;stroke-width:0.5;stroke-dasharray:5.0,5.0;" x1="1604" x2="1604" y1="105.4799" y2="1101.2393"/><line style="stroke:#181818;stroke-width:0.5;stroke-dasharray:5.0,5.0;" x1="1733" x2="1733" y1="105.4799" y2="1101.2393"/><line style="stroke:#181818;stroke-width:0.5;stroke-dasharray:5.0,5.0;" x1="1893" x2="1893" y1="105.4799" y2="1101.2393"/><line style="stroke:#181818;stroke-width:0.5;stroke-dasharray:5.0,5.0;" x1="2096" x2="2096" y1="105.4799" y2="1101.2393"/><text fill="#000000" font-family="sans-serif" font-size="20" lengthAdjust="spacing" textLength="77" x="5" y="99.62">Student</text><ellipse cx="46.5" cy="26.74" fill="#E2E2F0" rx="8" ry="8" style="stroke:#181818;stroke-width:0.5;"/><path d="M46.5,34.74 L46.5,61.74 M33.5,42.74 L59.5,42.74 M46.5,61.74 L33.5,76.74 M46.5,61.74 L59.5,76.74 " fill="none" style="stroke:#181818;stroke-width:0.5;"/><text fill="#000000" font-family="sans-serif" font-size="20" lengthAdjust="spacing" textLength="77" x="5" y="1121.6193">Student</text><ellipse cx="46.5" cy="1135.9793" fill="#E2E2F0" rx="8" ry="8" style="stroke:#181818;stroke-width:0.5;"/><path d="M46.5,1143.9793 L46.5,1170.9793 M33.5,1151.9793 L59.5,1151.9793 M46.5,1170.9793 L33.5,1185.9793 M46.5,1170.9793 L59.5,1185.9793 " fill="none" style="stroke:#181818;stroke-width:0.5;"/><rect fill="#E2E2F0" height="68.4799" rx="2.5" ry="2.5" style="stroke:#181818;stroke-width:0.5;" width="216" x="460.125" y="36"/><text fill="#000000" font-family="sans-serif" font-size="20" font-style="italic" lengthAdjust="spacing" textLength="134" x="501.125" y="64.38">«presentation»</text><text fill="#000000" font-family="sans-serif" font-size="20" lengthAdjust="spacing" textLength="202" x="467.125" y="91.62">RequestEnrolmentUI</text><rect fill="#E2E2F0" height="68.4799" rx="2.5" ry="2.5" style="stroke:#181818;stroke-width:0.5;" width="216" x="460.125" y="1100.2393"/><text fill="#000000" font-family="sans-serif" font-size="20" font-style="italic" lengthAdjust="spacing" textLength="134" x="501.125" y="1128.6193">«presentation»</text><text fill="#000000" font-family="sans-serif" font-size="20" lengthAdjust="spacing" textLength="202" x="467.125" y="1155.8593">RequestEnrolmentUI</text><rect fill="#E2E2F0" height="68.4799" rx="2.5" ry="2.5" style="stroke:#181818;stroke-width:0.5;" width="292" x="900.75" y="36"/><text fill="#000000" font-family="sans-serif" font-size="20" font-style="italic" lengthAdjust="spacing" textLength="120" x="986.75" y="64.38">«application»</text><text fill="#000000" font-family="sans-serif" font-size="20" lengthAdjust="spacing" textLength="278" x="907.75" y="91.62">RequestEnrolmentController</text><rect fill="#E2E2F0" height="68.4799" rx="2.5" ry="2.5" style="stroke:#181818;stroke-width:0.5;" width="292" x="900.75" y="1100.2393"/><text fill="#000000" font-family="sans-serif" font-size="20" font-style="italic" lengthAdjust="spacing" textLength="120" x="986.75" y="1128.6193">«application»</text><text fill="#000000" font-family="sans-serif" font-size="20" lengthAdjust="spacing" textLength="278" x="907.75" y="1155.8593">RequestEnrolmentController</text><rect fill="#E2E2F0" height="68.4799" rx="2.5" ry="2.5" style="stroke:#181818;stroke-width:0.5;" width="183" x="1295.875" y="36"/><text fill="#000000" font-family="sans-serif" font-size="20" font-style="italic" lengthAdjust="spacing" textLength="80" x="1347.375" y="64.38">«service»</text><text fill="#000000" font-family="sans-serif" font-size="20" lengthAdjust="spacing" textLength="169" x="1302.875" y="91.62">ListCourseService</text><rect fill="#E2E2F0" height="68.4799" rx="2.5" ry="2.5" style="stroke:#181818;stroke-width:0.5;" width="183" x="1295.875" y="1100.2393"/><text fill="#000000" font-family="sans-serif" font-size="20" font-style="italic" lengthAdjust="spacing" textLength="80" x="1347.375" y="1128.6193">«service»</text><text fill="#000000" font-family="sans-serif" font-size="20" lengthAdjust="spacing" textLength="169" x="1302.875" y="1155.8593">ListCourseService</text><rect fill="#E2E2F0" height="68.4799" rx="2.5" ry="2.5" style="stroke:#181818;stroke-width:0.5;" width="116" x="1546" y="36"/><text fill="#000000" font-family="sans-serif" font-size="20" font-style="italic" lengthAdjust="spacing" textLength="89" x="1559.5" y="64.38">«domain»</text><text fill="#000000" font-family="sans-serif" font-size="20" lengthAdjust="spacing" textLength="102" x="1553" y="91.62">Enrolment</text><rect fill="#E2E2F0" height="68.4799" rx="2.5" ry="2.5" style="stroke:#181818;stroke-width:0.5;" width="116" x="1546" y="1100.2393"/><text fill="#000000" font-family="sans-serif" font-size="20" font-style="italic" lengthAdjust="spacing" textLength="89" x="1559.5" y="1128.6193">«domain»</text><text fill="#000000" font-family="sans-serif" font-size="20" lengthAdjust="spacing" textLength="102" x="1553" y="1155.8593">Enrolment</text><rect fill="#E2E2F0" height="68.4799" rx="2.5" ry="2.5" style="stroke:#181818;stroke-width:0.5;" width="123" x="1672" y="36"/><text fill="#000000" font-family="sans-serif" font-size="20" font-style="italic" lengthAdjust="spacing" textLength="50" x="1708.5" y="64.38">«dto»</text><text fill="#000000" font-family="sans-serif" font-size="20" lengthAdjust="spacing" textLength="109" x="1679" y="91.62">CourseDTO</text><rect fill="#E2E2F0" height="68.4799" rx="2.5" ry="2.5" style="stroke:#181818;stroke-width:0.5;" width="123" x="1672" y="1100.2393"/><text fill="#000000" font-family="sans-serif" font-size="20" font-style="italic" lengthAdjust="spacing" textLength="50" x="1708.5" y="1128.6193">«dto»</text><text fill="#000000" font-family="sans-serif" font-size="20" lengthAdjust="spacing" textLength="109" x="1679" y="1155.8593">CourseDTO</text><text fill="#000000" font-family="sans-serif" font-size="20" font-style="italic" lengthAdjust="spacing" textLength="110" x="1835" y="72.38">«repository»</text><text fill="#000000" font-family="sans-serif" font-size="20" lengthAdjust="spacing" textLength="170" x="1805" y="99.62">CourseRepository</text><path d="M1875,15 C1875,5 1893,5 1893,5 C1893,5 1911,5 1911,15 L1911,41 C1911,51 1893,51 1893,51 C1893,51 1875,51 1875,41 L1875,15 " fill="#E2E2F0" style="stroke:#181818;stroke-width:1.5;"/><path d="M1875,15 C1875,25 1893,25 1893,25 C1893,25 1911,25 1911,15 " fill="none" style="stroke:#181818;stroke-width:1.5;"/><text fill="#000000" font-family="sans-serif" font-size="20" font-style="italic" lengthAdjust="spacing" textLength="110" x="1835" y="1121.6193">«repository»</text><text fill="#000000" font-family="sans-serif" font-size="20" lengthAdjust="spacing" textLength="170" x="1805" y="1148.8593">CourseRepository</text><path d="M1875,1164.7193 C1875,1154.7193 1893,1154.7193 1893,1154.7193 C1893,1154.7193 1911,1154.7193 1911,1164.7193 L1911,1190.7193 C1911,1200.7193 1893,1200.7193 1893,1200.7193 C1893,1200.7193 1875,1200.7193 1875,1190.7193 L1875,1164.7193 " fill="#E2E2F0" style="stroke:#181818;stroke-width:1.5;"/><path d="M1875,1164.7193 C1875,1174.7193 1893,1174.7193 1893,1174.7193 C1893,1174.7193 1911,1174.7193 1911,1164.7193 " fill="none" style="stroke:#181818;stroke-width:1.5;"/><text fill="#000000" font-family="sans-serif" font-size="20" font-style="italic" lengthAdjust="spacing" textLength="110" x="2038.5" y="72.38">«repository»</text><text fill="#000000" font-family="sans-serif" font-size="20" lengthAdjust="spacing" textLength="205" x="1991" y="99.62">EnrolmentRepository</text><path d="M2078.5,15 C2078.5,5 2096.5,5 2096.5,5 C2096.5,5 2114.5,5 2114.5,15 L2114.5,41 C2114.5,51 2096.5,51 2096.5,51 C2096.5,51 2078.5,51 2078.5,41 L2078.5,15 " fill="#E2E2F0" style="stroke:#181818;stroke-width:1.5;"/><path d="M2078.5,15 C2078.5,25 2096.5,25 2096.5,25 C2096.5,25 2114.5,25 2114.5,15 " fill="none" style="stroke:#181818;stroke-width:1.5;"/><text fill="#000000" font-family="sans-serif" font-size="20" font-style="italic" lengthAdjust="spacing" textLength="110" x="2038.5" y="1121.6193">«repository»</text><text fill="#000000" font-family="sans-serif" font-size="20" lengthAdjust="spacing" textLength="205" x="1991" y="1148.8593">EnrolmentRepository</text><path d="M2078.5,1164.7193 C2078.5,1154.7193 2096.5,1154.7193 2096.5,1154.7193 C2096.5,1154.7193 2114.5,1154.7193 2114.5,1164.7193 L2114.5,1190.7193 C2114.5,1200.7193 2096.5,1200.7193 2096.5,1200.7193 C2096.5,1200.7193 2078.5,1200.7193 2078.5,1190.7193 L2078.5,1164.7193 " fill="#E2E2F0" style="stroke:#181818;stroke-width:1.5;"/><path d="M2078.5,1164.7193 C2078.5,1174.7193 2096.5,1174.7193 2096.5,1174.7193 C2096.5,1174.7193 2114.5,1174.7193 2114.5,1164.7193 " fill="none" style="stroke:#181818;stroke-width:1.5;"/><rect fill="#FFFFFF" height="967.7594" style="stroke:#181818;stroke-width:1.0;" width="10" x="41.5" y="115.4799"/><rect fill="#FFFFFF" height="509.1197" style="stroke:#181818;stroke-width:1.0;" width="10" x="563.125" y="148.7199"/><rect fill="#FFFFFF" height="95.4799" style="stroke:#181818;stroke-width:1.0;" width="10" x="563.125" y="699.0796"/><rect fill="#FFFFFF" height="247.4398" style="stroke:#181818;stroke-width:1.0;" width="10" x="563.125" y="835.7995"/><rect fill="#FFFFFF" height="41.24" style="stroke:#181818;stroke-width:1.0;" width="10" x="1041.75" y="189.9599"/><rect fill="#FFFFFF" height="344.1598" style="stroke:#181818;stroke-width:1.0;" width="10" x="1041.75" y="272.4398"/><rect fill="#FFFFFF" height="164.9599" style="stroke:#181818;stroke-width:1.0;" width="10" x="1041.75" y="877.0395"/><rect fill="#FFFFFF" height="261.6798" style="stroke:#181818;stroke-width:1.0;" width="10" x="1382.375" y="313.6798"/><rect fill="#FFFFFF" height="41.24" style="stroke:#181818;stroke-width:1.0;" width="10" x="1599" y="485.8797"/><rect fill="#FFFFFF" height="41.24" style="stroke:#181818;stroke-width:1.0;" width="10" x="1888" y="354.9198"/><rect fill="#FFFFFF" height="41.24" style="stroke:#181818;stroke-width:1.0;" width="10" x="2091.5" y="959.5194"/><polygon fill="#181818" points="551.125,144.7199,561.125,148.7199,551.125,152.7199,555.125,148.7199" style="stroke:#181818;stroke-width:1.0;"/><line style="stroke:#181818;stroke-width:1.0;" x1="51.5" x2="557.125" y1="148.7199" y2="148.7199"/><text fill="#000000" font-family="sans-serif" font-size="20" font-weight="bold" lengthAdjust="spacing" textLength="11.625" x="58.5" y="140.8599">1</text><text fill="#000000" font-family="sans-serif" font-size="20" lengthAdjust="spacing" textLength="477" x="74.125" y="140.8599">asks to list all the courses available for enrolment</text><polygon fill="#181818" points="1029.75,185.9599,1039.75,189.9599,1029.75,193.9599,1033.75,189.9599" style="stroke:#181818;stroke-width:1.0;"/><line style="stroke:#181818;stroke-width:1.0;" x1="573.125" x2="1035.75" y1="189.9599" y2="189.9599"/><text fill="#000000" font-family="sans-serif" font-size="20" font-weight="bold" lengthAdjust="spacing" textLength="11.625" x="580.125" y="182.0999">2</text><text fill="#000000" font-family="sans-serif" font-size="20" lengthAdjust="spacing" textLength="434" x="595.75" y="182.0999">new(courseRepository, enrolmentRepository)</text><polygon fill="#181818" points="1375.375,227.1999,1385.375,231.1999,1375.375,235.1999,1379.375,231.1999" style="stroke:#181818;stroke-width:1.0;"/><line style="stroke:#181818;stroke-width:1.0;" x1="1046.75" x2="1381.375" y1="231.1999" y2="231.1999"/><text fill="#000000" font-family="sans-serif" font-size="20" font-weight="bold" lengthAdjust="spacing" textLength="11.625" x="1053.75" y="223.3399">3</text><text fill="#000000" font-family="sans-serif" font-size="20" lengthAdjust="spacing" textLength="296" x="1069.375" y="223.3399">service=new(courseRepository)</text><polygon fill="#181818" points="1029.75,268.4398,1039.75,272.4398,1029.75,276.4398,1033.75,272.4398" style="stroke:#181818;stroke-width:1.0;"/><line style="stroke:#181818;stroke-width:1.0;" x1="573.125" x2="1035.75" y1="272.4398" y2="272.4398"/><text fill="#000000" font-family="sans-serif" font-size="20" font-weight="bold" lengthAdjust="spacing" textLength="11.625" x="580.125" y="264.5799">4</text><text fill="#000000" font-family="sans-serif" font-size="20" lengthAdjust="spacing" textLength="305" x="595.75" y="264.5799">listOpenForEnrolmentCourses()</text><polygon fill="#181818" points="1370.375,309.6798,1380.375,313.6798,1370.375,317.6798,1374.375,313.6798" style="stroke:#181818;stroke-width:1.0;"/><line style="stroke:#181818;stroke-width:1.0;" x1="1051.75" x2="1376.375" y1="313.6798" y2="313.6798"/><text fill="#000000" font-family="sans-serif" font-size="20" font-weight="bold" lengthAdjust="spacing" textLength="11.625" x="1058.75" y="305.8198">5</text><text fill="#000000" font-family="sans-serif" font-size="20" lengthAdjust="spacing" textLength="228" x="1074.375" y="305.8198">listOpenForEnrolment()</text><polygon fill="#181818" points="1876,350.9198,1886,354.9198,1876,358.9198,1880,354.9198" style="stroke:#181818;stroke-width:1.0;"/><line style="stroke:#181818;stroke-width:1.0;" x1="1392.375" x2="1882" y1="354.9198" y2="354.9198"/><text fill="#000000" font-family="sans-serif" font-size="20" font-weight="bold" lengthAdjust="spacing" textLength="11.625" x="1399.375" y="347.0598">6</text><text fill="#000000" font-family="sans-serif" font-size="20" lengthAdjust="spacing" textLength="263" x="1415" y="347.0598">findAllOpenForEnrolment()</text><polygon fill="#181818" points="1403.375,392.1598,1393.375,396.1598,1403.375,400.1598,1399.375,396.1598" style="stroke:#181818;stroke-width:1.0;"/><line style="stroke:#181818;stroke-width:1.0;stroke-dasharray:2.0,2.0;" x1="1397.375" x2="1892" y1="396.1598" y2="396.1598"/><text fill="#000000" font-family="sans-serif" font-size="20" font-weight="bold" lengthAdjust="spacing" textLength="11.625" x="1409.375" y="388.2998">7</text><text fill="#000000" font-family="sans-serif" font-size="20" lengthAdjust="spacing" textLength="74" x="1425" y="388.2998">courses</text><path d="M1285.875,411.1598 L1376.375,411.1598 L1376.375,430.3997 L1366.375,440.3997 L1285.875,440.3997 L1285.875,411.1598 " fill="#EEEEEE" style="stroke:#000000;stroke-width:1.5;"/><rect fill="none" height="123.9599" style="stroke:#000000;stroke-width:1.5;" width="519.125" x="1285.875" y="411.1598"/><text fill="#000000" font-family="sans-serif" font-size="20" font-weight="bold" lengthAdjust="spacing" textLength="45.5" x="1300.875" y="433.5398">loop</text><text fill="#000000" font-family="sans-serif" font-size="20" font-weight="bold" lengthAdjust="spacing" textLength="169.375" x="1391.375" y="434.5398">[for each course]</text><polygon fill="#181818" points="1587,481.8797,1597,485.8797,1587,489.8797,1591,485.8797" style="stroke:#181818;stroke-width:1.0;"/><line style="stroke:#181818;stroke-width:1.0;" x1="1392.375" x2="1593" y1="485.8797" y2="485.8797"/><text fill="#000000" font-family="sans-serif" font-size="20" font-weight="bold" lengthAdjust="spacing" textLength="11.625" x="1399.375" y="478.0197">8</text><text fill="#000000" font-family="sans-serif" font-size="20" lengthAdjust="spacing" textLength="138" x="1415" y="478.0197">toDTO(course)</text><polygon fill="#181818" points="1721.5,523.1197,1731.5,527.1197,1721.5,531.1197,1725.5,527.1197" style="stroke:#181818;stroke-width:1.0;"/><line style="stroke:#181818;stroke-width:1.0;" x1="1604" x2="1727.5" y1="527.1197" y2="527.1197"/><text fill="#000000" font-family="sans-serif" font-size="20" font-weight="bold" lengthAdjust="spacing" textLength="11.625" x="1611" y="519.2597">9</text><text fill="#000000" font-family="sans-serif" font-size="20" lengthAdjust="spacing" textLength="40" x="1626.625" y="519.2597">new</text><polygon fill="#181818" points="1062.75,571.3596,1052.75,575.3596,1062.75,579.3596,1058.75,575.3596" style="stroke:#181818;stroke-width:1.0;"/><line style="stroke:#181818;stroke-width:1.0;stroke-dasharray:2.0,2.0;" x1="1056.75" x2="1386.375" y1="575.3596" y2="575.3596"/><text fill="#000000" font-family="sans-serif" font-size="20" font-weight="bold" lengthAdjust="spacing" textLength="23.25" x="1068.75" y="567.4997">10</text><text fill="#000000" font-family="sans-serif" font-size="20" lengthAdjust="spacing" textLength="74" x="1096" y="567.4997">courses</text><polygon fill="#181818" points="584.125,612.5996,574.125,616.5996,584.125,620.5996,580.125,616.5996" style="stroke:#181818;stroke-width:1.0;"/><line style="stroke:#181818;stroke-width:1.0;stroke-dasharray:2.0,2.0;" x1="578.125" x2="1045.75" y1="616.5996" y2="616.5996"/><text fill="#000000" font-family="sans-serif" font-size="20" font-weight="bold" lengthAdjust="spacing" textLength="23.25" x="590.125" y="608.7396">11</text><text fill="#000000" font-family="sans-serif" font-size="20" lengthAdjust="spacing" textLength="74" x="617.375" y="608.7396">courses</text><polygon fill="#181818" points="62.5,653.8396,52.5,657.8396,62.5,661.8396,58.5,657.8396" style="stroke:#181818;stroke-width:1.0;"/><line style="stroke:#181818;stroke-width:1.0;stroke-dasharray:2.0,2.0;" x1="56.5" x2="567.125" y1="657.8396" y2="657.8396"/><text fill="#000000" font-family="sans-serif" font-size="20" font-weight="bold" lengthAdjust="spacing" textLength="23.25" x="68.5" y="649.9796">12</text><text fill="#000000" font-family="sans-serif" font-size="20" lengthAdjust="spacing" textLength="237" x="95.75" y="649.9796">lists all available courses</text><polygon fill="#181818" points="551.125,695.0796,561.125,699.0796,551.125,703.0796,555.125,699.0796" style="stroke:#181818;stroke-width:1.0;"/><line style="stroke:#181818;stroke-width:1.0;" x1="51.5" x2="557.125" y1="699.0796" y2="699.0796"/><text fill="#000000" font-family="sans-serif" font-size="20" font-weight="bold" lengthAdjust="spacing" textLength="23.25" x="58.5" y="691.2196">13</text><text fill="#000000" font-family="sans-serif" font-size="20" lengthAdjust="spacing" textLength="249" x="85.75" y="691.2196">selects the desired course</text><line style="stroke:#181818;stroke-width:1.0;" x1="573.125" x2="615.125" y1="740.3195" y2="740.3195"/><line style="stroke:#181818;stroke-width:1.0;" x1="615.125" x2="615.125" y1="740.3195" y2="753.3195"/><line style="stroke:#181818;stroke-width:1.0;" x1="574.125" x2="615.125" y1="753.3195" y2="753.3195"/><polygon fill="#181818" points="584.125,749.3195,574.125,753.3195,584.125,757.3195,580.125,753.3195" style="stroke:#181818;stroke-width:1.0;"/><text fill="#000000" font-family="sans-serif" font-size="20" font-weight="bold" lengthAdjust="spacing" textLength="23.25" x="580.125" y="732.4596">14</text><text fill="#000000" font-family="sans-serif" font-size="20" lengthAdjust="spacing" textLength="372" x="607.375" y="732.4596">selectedCourse = select(courses, index)</text><polygon fill="#181818" points="62.5,790.5595,52.5,794.5595,62.5,798.5595,58.5,794.5595" style="stroke:#181818;stroke-width:1.0;"/><line style="stroke:#181818;stroke-width:1.0;stroke-dasharray:2.0,2.0;" x1="56.5" x2="567.125" y1="794.5595" y2="794.5595"/><text fill="#000000" font-family="sans-serif" font-size="20" font-weight="bold" lengthAdjust="spacing" textLength="23.25" x="68.5" y="786.6995">15</text><text fill="#000000" font-family="sans-serif" font-size="20" lengthAdjust="spacing" textLength="212" x="95.75" y="786.6995">asks to confirm action</text><polygon fill="#181818" points="551.125,831.7995,561.125,835.7995,551.125,839.7995,555.125,835.7995" style="stroke:#181818;stroke-width:1.0;"/><line style="stroke:#181818;stroke-width:1.0;" x1="51.5" x2="557.125" y1="835.7995" y2="835.7995"/><text fill="#000000" font-family="sans-serif" font-size="20" font-weight="bold" lengthAdjust="spacing" textLength="23.25" x="58.5" y="827.9395">16</text><text fill="#000000" font-family="sans-serif" font-size="20" lengthAdjust="spacing" textLength="187" x="85.75" y="827.9395">confirms the action</text><polygon fill="#181818" points="1029.75,873.0395,1039.75,877.0395,1029.75,881.0395,1033.75,877.0395" style="stroke:#181818;stroke-width:1.0;"/><line style="stroke:#181818;stroke-width:1.0;" x1="573.125" x2="1035.75" y1="877.0395" y2="877.0395"/><text fill="#000000" font-family="sans-serif" font-size="20" font-weight="bold" lengthAdjust="spacing" textLength="23.25" x="580.125" y="869.1795">17</text><text fill="#000000" font-family="sans-serif" font-size="20" lengthAdjust="spacing" textLength="335" x="607.375" y="869.1795">requestEnrolment(selectedCourse)</text><polygon fill="#181818" points="1592,914.2794,1602,918.2794,1592,922.2794,1596,918.2794" style="stroke:#181818;stroke-width:1.0;"/><line style="stroke:#181818;stroke-width:1.0;" x1="1051.75" x2="1598" y1="918.2794" y2="918.2794"/><text fill="#000000" font-family="sans-serif" font-size="20" font-weight="bold" lengthAdjust="spacing" textLength="23.25" x="1058.75" y="910.4195">18</text><text fill="#000000" font-family="sans-serif" font-size="20" lengthAdjust="spacing" textLength="501" x="1086" y="910.4195">enrolment=new(selectedCourse, authenticatedUser)</text><polygon fill="#181818" points="2079.5,955.5194,2089.5,959.5194,2079.5,963.5194,2083.5,959.5194" style="stroke:#181818;stroke-width:1.0;"/><line style="stroke:#181818;stroke-width:1.0;" x1="1051.75" x2="2085.5" y1="959.5194" y2="959.5194"/><text fill="#000000" font-family="sans-serif" font-size="20" font-weight="bold" lengthAdjust="spacing" textLength="23.25" x="1058.75" y="951.6594">19</text><text fill="#000000" font-family="sans-serif" font-size="20" lengthAdjust="spacing" textLength="156" x="1086" y="951.6594">save(enrolment)</text><polygon fill="#181818" points="1062.75,996.7594,1052.75,1000.7594,1062.75,1004.7594,1058.75,1000.7594" style="stroke:#181818;stroke-width:1.0;"/><line style="stroke:#181818;stroke-width:1.0;stroke-dasharray:2.0,2.0;" x1="1056.75" x2="2095.5" y1="1000.7594" y2="1000.7594"/><text fill="#000000" font-family="sans-serif" font-size="20" font-weight="bold" lengthAdjust="spacing" textLength="23.25" x="1068.75" y="992.8994">20</text><text fill="#000000" font-family="sans-serif" font-size="20" lengthAdjust="spacing" textLength="102" x="1096" y="992.8994">enrolment</text><polygon fill="#181818" points="584.125,1037.9994,574.125,1041.9994,584.125,1045.9994,580.125,1041.9994" style="stroke:#181818;stroke-width:1.0;"/><line style="stroke:#181818;stroke-width:1.0;stroke-dasharray:2.0,2.0;" x1="578.125" x2="1045.75" y1="1041.9994" y2="1041.9994"/><text fill="#000000" font-family="sans-serif" font-size="20" font-weight="bold" lengthAdjust="spacing" textLength="23.25" x="590.125" y="1034.1394">21</text><text fill="#000000" font-family="sans-serif" font-size="20" lengthAdjust="spacing" textLength="102" x="617.375" y="1034.1394">enrolment</text><polygon fill="#181818" points="57.5,1079.2393,47.5,1083.2393,57.5,1087.2393,53.5,1083.2393" style="stroke:#181818;stroke-width:1.0;"/><line style="stroke:#181818;stroke-width:1.0;stroke-dasharray:2.0,2.0;" x1="51.5" x2="567.125" y1="1083.2393" y2="1083.2393"/><text fill="#000000" font-family="sans-serif" font-size="20" font-weight="bold" lengthAdjust="spacing" textLength="23.25" x="63.5" y="1075.3794">22</text><text fill="#000000" font-family="sans-serif" font-size="20" lengthAdjust="spacing" textLength="435" x="90.75" y="1075.3794">reports the success of the enrolment request</text><!--SRC=[VLJBRY8n4BpxArgSG2BIQeyeGLfb9n9IfAmWxDru6c5Xx5dRmpw-VhizdXUPS89fL_MZkknmrhQINbwCKsSieSIZh4rySJRkz3-4hr-4hAEpzUM0NWYfelCmsyMwH1jd80Fi1F6ZLhgIDi9iYxzg3B6mtfaBOVQRXDfluF6nyXWe9ADsThs-ptkc3kYlGP_up-_RLyeWgyfeDPdWLGSYrJxW3lrLAsows_uaMcWYjvIkM88M12pTHUeFgPkqtz_V4ev-6HaTmKGfepp8WD1WjbYve4cZlupS5Zy8wRiO4JfyLtjCAIOuhBg-oeYajTZ1mvhLN17w720wC3GuI6CWdX1KQYE0l4fjvC4W76bXs1RhK-qtGb0QIfQaNO75ttDrCyIoP_R1HP-4gIBnAGzBlO8izTDKkeKeSSmTjy2Jl5LeNvmV-20DDBzVTOevf11AC988BF0AZjgMtuovno6WOF13LoMBEvo2GS8uLpKwItNAA06G2nR4Z8vSa_LOq577B-YZO1IxAYs10eFyXK1R0XSGpG2zMXFTy9YDCAr99a2zy3nO5Yya1_MkcU2nOtht1JIeYCQcAp5eJuz7ddp8QFOxO63PR1IUSY2h4fP0Ay4_Ys5dhSMLiqVjBqasPpzlAkEQhZBuOpTPFt_puip73NvcE5vdTokIpSUy9T23UQ8pVgUmtDE5MFJandr1Nd7U9HbKudDHjAxBZVQtTsWCHevtFObBlUythQByiFYyjb0hXI60EwRFZjugSwlpq6ZYFm00]--></g></svg>