<?xml version="1.0" encoding="UTF-8" standalone="no"?><svg xmlns="http://www.w3.org/2000/svg" xmlns:xlink="http://www.w3.org/1999/xlink" contentStyleType="text/css" height="1946px" preserveAspectRatio="none" style="width:3300px;height:1946px;background:#FFFFFF;" version="1.1" viewBox="0 0 3300 1946" width="3300px" zoomAndPan="magnify"><defs/><g><rect fill="#FFFFFF" height="1696.0789" style="stroke:#181818;stroke-width:1.0;" width="10" x="41.5" y="115.4799"/><rect fill="#FFFFFF" height="866.2794" style="stroke:#181818;stroke-width:1.0;" width="10" x="563.125" y="148.7199"/><rect fill="#FFFFFF" height="95.4799" style="stroke:#181818;stroke-width:1.0;" width="10" x="563.125" y="1056.2393"/><rect fill="#FFFFFF" height="618.5996" style="stroke:#181818;stroke-width:1.0;" width="10" x="563.125" y="1192.9593"/><rect fill="#FFFFFF" height="41.24" style="stroke:#181818;stroke-width:1.0;" width="10" x="1449.75" y="189.9599"/><rect fill="#FFFFFF" height="701.3195" style="stroke:#181818;stroke-width:1.0;" width="10" x="1449.75" y="272.4398"/><rect fill="#FFFFFF" height="536.1197" style="stroke:#181818;stroke-width:1.0;" width="10" x="1449.75" y="1234.1992"/><rect fill="#FFFFFF" height="41.24" style="stroke:#181818;stroke-width:1.0;" width="10" x="1814" y="313.6798"/><rect fill="#FFFFFF" height="41.24" style="stroke:#181818;stroke-width:1.0;" width="10" x="1814" y="1275.4392"/><rect fill="#FFFFFF" height="371.3997" style="stroke:#181818;stroke-width:1.0;" width="10" x="2028" y="561.1197"/><rect fill="#FFFFFF" height="41.24" style="stroke:#181818;stroke-width:1.0;" width="10" x="2332.25" y="836.0395"/><rect fill="#FFFFFF" height="82.4799" style="stroke:#181818;stroke-width:1.0;" width="10" x="2332.25" y="1646.599"/><rect fill="#FFFFFF" height="41.24" style="stroke:#181818;stroke-width:1.0;" width="10" x="2789.25" y="602.3596"/><rect fill="#FFFFFF" height="41.24" style="stroke:#181818;stroke-width:1.0;" width="10" x="2789.25" y="1440.3991"/><rect fill="#FFFFFF" height="41.24" style="stroke:#181818;stroke-width:1.0;" width="10" x="2992.75" y="478.6397"/><rect fill="#FFFFFF" height="41.24" style="stroke:#181818;stroke-width:1.0;" width="10" x="2992.75" y="1564.119"/><rect fill="#FFFFFF" height="41.24" style="stroke:#181818;stroke-width:1.0;" width="10" x="3201.25" y="396.1598"/><rect fill="#FFFFFF" height="41.24" style="stroke:#181818;stroke-width:1.0;" width="10" x="3201.25" y="1357.9192"/><rect fill="none" height="233.6798" style="stroke:#000000;stroke-width:1.5;" width="626.75" x="1921.5" y="658.5996"/><rect fill="none" height="123.9599" style="stroke:#000000;stroke-width:1.5;" width="606.75" x="1931.5" y="761.3195"/><line style="stroke:#181818;stroke-width:0.5;stroke-dasharray:5.0,5.0;" x1="46" x2="46" y1="105.4799" y2="1829.5589"/><line style="stroke:#181818;stroke-width:0.5;stroke-dasharray:5.0,5.0;" x1="568.125" x2="568.125" y1="105.4799" y2="1829.5589"/><line style="stroke:#181818;stroke-width:0.5;stroke-dasharray:5.0,5.0;" x1="1454.75" x2="1454.75" y1="105.4799" y2="1829.5589"/><line style="stroke:#181818;stroke-width:0.5;stroke-dasharray:5.0,5.0;" x1="1818.5" x2="1818.5" y1="105.4799" y2="1829.5589"/><line style="stroke:#181818;stroke-width:0.5;stroke-dasharray:5.0,5.0;" x1="2032.5" x2="2032.5" y1="105.4799" y2="1829.5589"/><line style="stroke:#181818;stroke-width:0.5;stroke-dasharray:5.0,5.0;" x1="2337.25" x2="2337.25" y1="105.4799" y2="1829.5589"/><line style="stroke:#181818;stroke-width:0.5;stroke-dasharray:5.0,5.0;" x1="2466.25" x2="2466.25" y1="105.4799" y2="1829.5589"/><line style="stroke:#181818;stroke-width:0.5;stroke-dasharray:5.0,5.0;" x1="2617.25" x2="2617.25" y1="105.4799" y2="1829.5589"/><line style="stroke:#181818;stroke-width:0.5;stroke-dasharray:5.0,5.0;" x1="2794.25" x2="2794.25" y1="105.4799" y2="1829.5589"/><line style="stroke:#181818;stroke-width:0.5;stroke-dasharray:5.0,5.0;" x1="2997.25" x2="2997.25" y1="105.4799" y2="1829.5589"/><line style="stroke:#181818;stroke-width:0.5;stroke-dasharray:5.0,5.0;" x1="3206.25" x2="3206.25" y1="105.4799" y2="1829.5589"/><text fill="#000000" font-family="sans-serif" font-size="20" lengthAdjust="spacing" textLength="77" x="5" y="99.62">Student</text><ellipse cx="46.5" cy="26.74" fill="#E2E2F0" rx="8" ry="8" style="stroke:#181818;stroke-width:0.5;"/><path d="M46.5,34.74 L46.5,61.74 M33.5,42.74 L59.5,42.74 M46.5,61.74 L33.5,76.74 M46.5,61.74 L59.5,76.74 " fill="none" style="stroke:#181818;stroke-width:0.5;"/><text fill="#000000" font-family="sans-serif" font-size="20" lengthAdjust="spacing" textLength="77" x="5" y="1849.9389">Student</text><ellipse cx="46.5" cy="1864.2989" fill="#E2E2F0" rx="8" ry="8" style="stroke:#181818;stroke-width:0.5;"/><path d="M46.5,1872.2989 L46.5,1899.2989 M33.5,1880.2989 L59.5,1880.2989 M46.5,1899.2989 L33.5,1914.2989 M46.5,1899.2989 L59.5,1914.2989 " fill="none" style="stroke:#181818;stroke-width:0.5;"/><rect fill="#E2E2F0" height="68.4799" rx="2.5" ry="2.5" style="stroke:#181818;stroke-width:0.5;" width="216" x="460.125" y="36"/><text fill="#000000" font-family="sans-serif" font-size="20" font-style="italic" lengthAdjust="spacing" textLength="134" x="501.125" y="64.38">«presentation»</text><text fill="#000000" font-family="sans-serif" font-size="20" lengthAdjust="spacing" textLength="202" x="467.125" y="91.62">RequestEnrolmentUI</text><rect fill="#E2E2F0" height="68.4799" rx="2.5" ry="2.5" style="stroke:#181818;stroke-width:0.5;" width="216" x="460.125" y="1828.5589"/><text fill="#000000" font-family="sans-serif" font-size="20" font-style="italic" lengthAdjust="spacing" textLength="134" x="501.125" y="1856.9389">«presentation»</text><text fill="#000000" font-family="sans-serif" font-size="20" lengthAdjust="spacing" textLength="202" x="467.125" y="1884.1789">RequestEnrolmentUI</text><rect fill="#E2E2F0" height="68.4799" rx="2.5" ry="2.5" style="stroke:#181818;stroke-width:0.5;" width="292" x="1308.75" y="36"/><text fill="#000000" font-family="sans-serif" font-size="20" font-style="italic" lengthAdjust="spacing" textLength="120" x="1394.75" y="64.38">«application»</text><text fill="#000000" font-family="sans-serif" font-size="20" lengthAdjust="spacing" textLength="278" x="1315.75" y="91.62">RequestEnrolmentController</text><rect fill="#E2E2F0" height="68.4799" rx="2.5" ry="2.5" style="stroke:#181818;stroke-width:0.5;" width="292" x="1308.75" y="1828.5589"/><text fill="#000000" font-family="sans-serif" font-size="20" font-style="italic" lengthAdjust="spacing" textLength="120" x="1394.75" y="1856.9389">«application»</text><text fill="#000000" font-family="sans-serif" font-size="20" lengthAdjust="spacing" textLength="278" x="1315.75" y="1884.1789">RequestEnrolmentController</text><rect fill="#E2E2F0" height="68.4799" rx="2.5" ry="2.5" style="stroke:#181818;stroke-width:0.5;" width="225" x="1706.5" y="36"/><text fill="#000000" font-family="sans-serif" font-size="20" font-style="italic" lengthAdjust="spacing" textLength="80" x="1779" y="64.38">«service»</text><text fill="#000000" font-family="sans-serif" font-size="20" lengthAdjust="spacing" textLength="211" x="1713.5" y="91.62">AuthenticationService</text><rect fill="#E2E2F0" height="68.4799" rx="2.5" ry="2.5" style="stroke:#181818;stroke-width:0.5;" width="225" x="1706.5" y="1828.5589"/><text fill="#000000" font-family="sans-serif" font-size="20" font-style="italic" lengthAdjust="spacing" textLength="80" x="1779" y="1856.9389">«service»</text><text fill="#000000" font-family="sans-serif" font-size="20" lengthAdjust="spacing" textLength="211" x="1713.5" y="1884.1789">AuthenticationService</text><rect fill="#E2E2F0" height="68.4799" rx="2.5" ry="2.5" style="stroke:#181818;stroke-width:0.5;" width="183" x="1941.5" y="36"/><text fill="#000000" font-family="sans-serif" font-size="20" font-style="italic" lengthAdjust="spacing" textLength="80" x="1993" y="64.38">«service»</text><text fill="#000000" font-family="sans-serif" font-size="20" lengthAdjust="spacing" textLength="169" x="1948.5" y="91.62">ListCourseService</text><rect fill="#E2E2F0" height="68.4799" rx="2.5" ry="2.5" style="stroke:#181818;stroke-width:0.5;" width="183" x="1941.5" y="1828.5589"/><text fill="#000000" font-family="sans-serif" font-size="20" font-style="italic" lengthAdjust="spacing" textLength="80" x="1993" y="1856.9389">«service»</text><text fill="#000000" font-family="sans-serif" font-size="20" lengthAdjust="spacing" textLength="169" x="1948.5" y="1884.1789">ListCourseService</text><rect fill="#E2E2F0" height="68.4799" rx="2.5" ry="2.5" style="stroke:#181818;stroke-width:0.5;" width="116" x="2279.25" y="36"/><text fill="#000000" font-family="sans-serif" font-size="20" font-style="italic" lengthAdjust="spacing" textLength="89" x="2292.75" y="64.38">«domain»</text><text fill="#000000" font-family="sans-serif" font-size="20" lengthAdjust="spacing" textLength="102" x="2286.25" y="91.62">Enrolment</text><rect fill="#E2E2F0" height="68.4799" rx="2.5" ry="2.5" style="stroke:#181818;stroke-width:0.5;" width="116" x="2279.25" y="1828.5589"/><text fill="#000000" font-family="sans-serif" font-size="20" font-style="italic" lengthAdjust="spacing" textLength="89" x="2292.75" y="1856.9389">«domain»</text><text fill="#000000" font-family="sans-serif" font-size="20" lengthAdjust="spacing" textLength="102" x="2286.25" y="1884.1789">Enrolment</text><rect fill="#E2E2F0" height="68.4799" rx="2.5" ry="2.5" style="stroke:#181818;stroke-width:0.5;" width="123" x="2405.25" y="36"/><text fill="#000000" font-family="sans-serif" font-size="20" font-style="italic" lengthAdjust="spacing" textLength="50" x="2441.75" y="64.38">«dto»</text><text fill="#000000" font-family="sans-serif" font-size="20" lengthAdjust="spacing" textLength="109" x="2412.25" y="91.62">CourseDTO</text><rect fill="#E2E2F0" height="68.4799" rx="2.5" ry="2.5" style="stroke:#181818;stroke-width:0.5;" width="123" x="2405.25" y="1828.5589"/><text fill="#000000" font-family="sans-serif" font-size="20" font-style="italic" lengthAdjust="spacing" textLength="50" x="2441.75" y="1856.9389">«dto»</text><text fill="#000000" font-family="sans-serif" font-size="20" lengthAdjust="spacing" textLength="109" x="2412.25" y="1884.1789">CourseDTO</text><rect fill="#E2E2F0" height="68.4799" rx="2.5" ry="2.5" style="stroke:#181818;stroke-width:0.5;" width="158" x="2538.25" y="36"/><text fill="#000000" font-family="sans-serif" font-size="20" font-style="italic" lengthAdjust="spacing" textLength="50" x="2592.25" y="64.38">«dto»</text><text fill="#000000" font-family="sans-serif" font-size="20" lengthAdjust="spacing" textLength="144" x="2545.25" y="91.62">EnrolmentDTO</text><rect fill="#E2E2F0" height="68.4799" rx="2.5" ry="2.5" style="stroke:#181818;stroke-width:0.5;" width="158" x="2538.25" y="1828.5589"/><text fill="#000000" font-family="sans-serif" font-size="20" font-style="italic" lengthAdjust="spacing" textLength="50" x="2592.25" y="1856.9389">«dto»</text><text fill="#000000" font-family="sans-serif" font-size="20" lengthAdjust="spacing" textLength="144" x="2545.25" y="1884.1789">EnrolmentDTO</text><text fill="#000000" font-family="sans-serif" font-size="20" font-style="italic" lengthAdjust="spacing" textLength="110" x="2736.25" y="72.38">«repository»</text><text fill="#000000" font-family="sans-serif" font-size="20" lengthAdjust="spacing" textLength="170" x="2706.25" y="99.62">CourseRepository</text><path d="M2776.25,15 C2776.25,5 2794.25,5 2794.25,5 C2794.25,5 2812.25,5 2812.25,15 L2812.25,41 C2812.25,51 2794.25,51 2794.25,51 C2794.25,51 2776.25,51 2776.25,41 L2776.25,15 " fill="#E2E2F0" style="stroke:#181818;stroke-width:1.5;"/><path d="M2776.25,15 C2776.25,25 2794.25,25 2794.25,25 C2794.25,25 2812.25,25 2812.25,15 " fill="none" style="stroke:#181818;stroke-width:1.5;"/><text fill="#000000" font-family="sans-serif" font-size="20" font-style="italic" lengthAdjust="spacing" textLength="110" x="2736.25" y="1849.9389">«repository»</text><text fill="#000000" font-family="sans-serif" font-size="20" lengthAdjust="spacing" textLength="170" x="2706.25" y="1877.1789">CourseRepository</text><path d="M2776.25,1893.0388 C2776.25,1883.0388 2794.25,1883.0388 2794.25,1883.0388 C2794.25,1883.0388 2812.25,1883.0388 2812.25,1893.0388 L2812.25,1919.0388 C2812.25,1929.0388 2794.25,1929.0388 2794.25,1929.0388 C2794.25,1929.0388 2776.25,1929.0388 2776.25,1919.0388 L2776.25,1893.0388 " fill="#E2E2F0" style="stroke:#181818;stroke-width:1.5;"/><path d="M2776.25,1893.0388 C2776.25,1903.0388 2794.25,1903.0388 2794.25,1903.0388 C2794.25,1903.0388 2812.25,1903.0388 2812.25,1893.0388 " fill="none" style="stroke:#181818;stroke-width:1.5;"/><text fill="#000000" font-family="sans-serif" font-size="20" font-style="italic" lengthAdjust="spacing" textLength="110" x="2939.75" y="72.38">«repository»</text><text fill="#000000" font-family="sans-serif" font-size="20" lengthAdjust="spacing" textLength="205" x="2892.25" y="99.62">EnrolmentRepository</text><path d="M2979.75,15 C2979.75,5 2997.75,5 2997.75,5 C2997.75,5 3015.75,5 3015.75,15 L3015.75,41 C3015.75,51 2997.75,51 2997.75,51 C2997.75,51 2979.75,51 2979.75,41 L2979.75,15 " fill="#E2E2F0" style="stroke:#181818;stroke-width:1.5;"/><path d="M2979.75,15 C2979.75,25 2997.75,25 2997.75,25 C2997.75,25 3015.75,25 3015.75,15 " fill="none" style="stroke:#181818;stroke-width:1.5;"/><text fill="#000000" font-family="sans-serif" font-size="20" font-style="italic" lengthAdjust="spacing" textLength="110" x="2939.75" y="1849.9389">«repository»</text><text fill="#000000" font-family="sans-serif" font-size="20" lengthAdjust="spacing" textLength="205" x="2892.25" y="1877.1789">EnrolmentRepository</text><path d="M2979.75,1893.0388 C2979.75,1883.0388 2997.75,1883.0388 2997.75,1883.0388 C2997.75,1883.0388 3015.75,1883.0388 3015.75,1893.0388 L3015.75,1919.0388 C3015.75,1929.0388 2997.75,1929.0388 2997.75,1929.0388 C2997.75,1929.0388 2979.75,1929.0388 2979.75,1919.0388 L2979.75,1893.0388 " fill="#E2E2F0" style="stroke:#181818;stroke-width:1.5;"/><path d="M2979.75,1893.0388 C2979.75,1903.0388 2997.75,1903.0388 2997.75,1903.0388 C2997.75,1903.0388 3015.75,1903.0388 3015.75,1893.0388 " fill="none" style="stroke:#181818;stroke-width:1.5;"/><text fill="#000000" font-family="sans-serif" font-size="20" font-style="italic" lengthAdjust="spacing" textLength="110" x="3148.25" y="72.38">«repository»</text><text fill="#000000" font-family="sans-serif" font-size="20" lengthAdjust="spacing" textLength="180" x="3113.25" y="99.62">StudentRepository</text><path d="M3188.25,15 C3188.25,5 3206.25,5 3206.25,5 C3206.25,5 3224.25,5 3224.25,15 L3224.25,41 C3224.25,51 3206.25,51 3206.25,51 C3206.25,51 3188.25,51 3188.25,41 L3188.25,15 " fill="#E2E2F0" style="stroke:#181818;stroke-width:1.5;"/><path d="M3188.25,15 C3188.25,25 3206.25,25 3206.25,25 C3206.25,25 3224.25,25 3224.25,15 " fill="none" style="stroke:#181818;stroke-width:1.5;"/><text fill="#000000" font-family="sans-serif" font-size="20" font-style="italic" lengthAdjust="spacing" textLength="110" x="3148.25" y="1849.9389">«repository»</text><text fill="#000000" font-family="sans-serif" font-size="20" lengthAdjust="spacing" textLength="180" x="3113.25" y="1877.1789">StudentRepository</text><path d="M3188.25,1893.0388 C3188.25,1883.0388 3206.25,1883.0388 3206.25,1883.0388 C3206.25,1883.0388 3224.25,1883.0388 3224.25,1893.0388 L3224.25,1919.0388 C3224.25,1929.0388 3206.25,1929.0388 3206.25,1929.0388 C3206.25,1929.0388 3188.25,1929.0388 3188.25,1919.0388 L3188.25,1893.0388 " fill="#E2E2F0" style="stroke:#181818;stroke-width:1.5;"/><path d="M3188.25,1893.0388 C3188.25,1903.0388 3206.25,1903.0388 3206.25,1903.0388 C3206.25,1903.0388 3224.25,1903.0388 3224.25,1893.0388 " fill="none" style="stroke:#181818;stroke-width:1.5;"/><rect fill="#FFFFFF" height="1696.0789" style="stroke:#181818;stroke-width:1.0;" width="10" x="41.5" y="115.4799"/><rect fill="#FFFFFF" height="866.2794" style="stroke:#181818;stroke-width:1.0;" width="10" x="563.125" y="148.7199"/><rect fill="#FFFFFF" height="95.4799" style="stroke:#181818;stroke-width:1.0;" width="10" x="563.125" y="1056.2393"/><rect fill="#FFFFFF" height="618.5996" style="stroke:#181818;stroke-width:1.0;" width="10" x="563.125" y="1192.9593"/><rect fill="#FFFFFF" height="41.24" style="stroke:#181818;stroke-width:1.0;" width="10" x="1449.75" y="189.9599"/><rect fill="#FFFFFF" height="701.3195" style="stroke:#181818;stroke-width:1.0;" width="10" x="1449.75" y="272.4398"/><rect fill="#FFFFFF" height="536.1197" style="stroke:#181818;stroke-width:1.0;" width="10" x="1449.75" y="1234.1992"/><rect fill="#FFFFFF" height="41.24" style="stroke:#181818;stroke-width:1.0;" width="10" x="1814" y="313.6798"/><rect fill="#FFFFFF" height="41.24" style="stroke:#181818;stroke-width:1.0;" width="10" x="1814" y="1275.4392"/><rect fill="#FFFFFF" height="371.3997" style="stroke:#181818;stroke-width:1.0;" width="10" x="2028" y="561.1197"/><rect fill="#FFFFFF" height="41.24" style="stroke:#181818;stroke-width:1.0;" width="10" x="2332.25" y="836.0395"/><rect fill="#FFFFFF" height="82.4799" style="stroke:#181818;stroke-width:1.0;" width="10" x="2332.25" y="1646.599"/><rect fill="#FFFFFF" height="41.24" style="stroke:#181818;stroke-width:1.0;" width="10" x="2789.25" y="602.3596"/><rect fill="#FFFFFF" height="41.24" style="stroke:#181818;stroke-width:1.0;" width="10" x="2789.25" y="1440.3991"/><rect fill="#FFFFFF" height="41.24" style="stroke:#181818;stroke-width:1.0;" width="10" x="2992.75" y="478.6397"/><rect fill="#FFFFFF" height="41.24" style="stroke:#181818;stroke-width:1.0;" width="10" x="2992.75" y="1564.119"/><rect fill="#FFFFFF" height="41.24" style="stroke:#181818;stroke-width:1.0;" width="10" x="3201.25" y="396.1598"/><rect fill="#FFFFFF" height="41.24" style="stroke:#181818;stroke-width:1.0;" width="10" x="3201.25" y="1357.9192"/><polygon fill="#181818" points="551.125,144.7199,561.125,148.7199,551.125,152.7199,555.125,148.7199" style="stroke:#181818;stroke-width:1.0;"/><line style="stroke:#181818;stroke-width:1.0;" x1="51.5" x2="557.125" y1="148.7199" y2="148.7199"/><text fill="#000000" font-family="sans-serif" font-size="20" font-weight="bold" lengthAdjust="spacing" textLength="11.625" x="58.5" y="140.8599">1</text><text fill="#000000" font-family="sans-serif" font-size="20" lengthAdjust="spacing" textLength="477" x="74.125" y="140.8599">asks to list all the courses available for enrolment</text><polygon fill="#181818" points="1437.75,185.9599,1447.75,189.9599,1437.75,193.9599,1441.75,189.9599" style="stroke:#181818;stroke-width:1.0;"/><line style="stroke:#181818;stroke-width:1.0;" x1="573.125" x2="1443.75" y1="189.9599" y2="189.9599"/><text fill="#000000" font-family="sans-serif" font-size="20" font-weight="bold" lengthAdjust="spacing" textLength="11.625" x="580.125" y="182.0999">2</text><text fill="#000000" font-family="sans-serif" font-size="20" lengthAdjust="spacing" textLength="842" x="595.75" y="182.0999">new(courseRepository, enrolmentRepository, studentRepository, authenticationService)</text><polygon fill="#181818" points="2021,227.1999,2031,231.1999,2021,235.1999,2025,231.1999" style="stroke:#181818;stroke-width:1.0;"/><line style="stroke:#181818;stroke-width:1.0;" x1="1454.75" x2="2027" y1="231.1999" y2="231.1999"/><text fill="#000000" font-family="sans-serif" font-size="20" font-weight="bold" lengthAdjust="spacing" textLength="11.625" x="1461.75" y="223.3399">3</text><text fill="#000000" font-family="sans-serif" font-size="20" lengthAdjust="spacing" textLength="296" x="1477.375" y="223.3399">service=new(courseRepository)</text><polygon fill="#181818" points="1437.75,268.4398,1447.75,272.4398,1437.75,276.4398,1441.75,272.4398" style="stroke:#181818;stroke-width:1.0;"/><line style="stroke:#181818;stroke-width:1.0;" x1="573.125" x2="1443.75" y1="272.4398" y2="272.4398"/><text fill="#000000" font-family="sans-serif" font-size="20" font-weight="bold" lengthAdjust="spacing" textLength="11.625" x="580.125" y="264.5799">4</text><text fill="#000000" font-family="sans-serif" font-size="20" lengthAdjust="spacing" textLength="305" x="595.75" y="264.5799">listOpenForEnrolmentCourses()</text><polygon fill="#181818" points="1802,309.6798,1812,313.6798,1802,317.6798,1806,313.6798" style="stroke:#181818;stroke-width:1.0;"/><line style="stroke:#181818;stroke-width:1.0;" x1="1459.75" x2="1808" y1="313.6798" y2="313.6798"/><text fill="#000000" font-family="sans-serif" font-size="20" font-weight="bold" lengthAdjust="spacing" textLength="11.625" x="1466.75" y="305.8198">5</text><text fill="#000000" font-family="sans-serif" font-size="20" lengthAdjust="spacing" textLength="308" x="1482.375" y="305.8198">loggedinUserWithPermissions()</text><polygon fill="#181818" points="1470.75,350.9198,1460.75,354.9198,1470.75,358.9198,1466.75,354.9198" style="stroke:#181818;stroke-width:1.0;"/><line style="stroke:#181818;stroke-width:1.0;stroke-dasharray:2.0,2.0;" x1="1464.75" x2="1818" y1="354.9198" y2="354.9198"/><text fill="#000000" font-family="sans-serif" font-size="20" font-weight="bold" lengthAdjust="spacing" textLength="11.625" x="1476.75" y="347.0598">6</text><text fill="#000000" font-family="sans-serif" font-size="20" lengthAdjust="spacing" textLength="180" x="1492.375" y="347.0598">authenticatedUser</text><polygon fill="#181818" points="3189.25,392.1598,3199.25,396.1598,3189.25,400.1598,3193.25,396.1598" style="stroke:#181818;stroke-width:1.0;"/><line style="stroke:#181818;stroke-width:1.0;" x1="1459.75" x2="3195.25" y1="396.1598" y2="396.1598"/><text fill="#000000" font-family="sans-serif" font-size="20" font-weight="bold" lengthAdjust="spacing" textLength="11.625" x="1466.75" y="388.2998">7</text><text fill="#000000" font-family="sans-serif" font-size="20" lengthAdjust="spacing" textLength="468" x="1482.375" y="388.2998">findByUsername(authenticatedUser.username())</text><polygon fill="#181818" points="1470.75,433.3997,1460.75,437.3997,1470.75,441.3997,1466.75,437.3997" style="stroke:#181818;stroke-width:1.0;"/><line style="stroke:#181818;stroke-width:1.0;stroke-dasharray:2.0,2.0;" x1="1464.75" x2="3205.25" y1="437.3997" y2="437.3997"/><text fill="#000000" font-family="sans-serif" font-size="20" font-weight="bold" lengthAdjust="spacing" textLength="11.625" x="1476.75" y="429.5398">8</text><text fill="#000000" font-family="sans-serif" font-size="20" lengthAdjust="spacing" textLength="76" x="1492.375" y="429.5398">student</text><polygon fill="#181818" points="2980.75,474.6397,2990.75,478.6397,2980.75,482.6397,2984.75,478.6397" style="stroke:#181818;stroke-width:1.0;"/><line style="stroke:#181818;stroke-width:1.0;" x1="1459.75" x2="2986.75" y1="478.6397" y2="478.6397"/><text fill="#000000" font-family="sans-serif" font-size="20" font-weight="bold" lengthAdjust="spacing" textLength="11.625" x="1466.75" y="470.7797">9</text><text fill="#000000" font-family="sans-serif" font-size="20" lengthAdjust="spacing" textLength="249" x="1482.375" y="470.7797">findWithUserAndCourse()</text><polygon fill="#181818" points="1470.75,515.8797,1460.75,519.8797,1470.75,523.8797,1466.75,519.8797" style="stroke:#181818;stroke-width:1.0;"/><line style="stroke:#181818;stroke-width:1.0;stroke-dasharray:2.0,2.0;" x1="1464.75" x2="2996.75" y1="519.8797" y2="519.8797"/><text fill="#000000" font-family="sans-serif" font-size="20" font-weight="bold" lengthAdjust="spacing" textLength="23.25" x="1476.75" y="512.0197">10</text><text fill="#000000" font-family="sans-serif" font-size="20" lengthAdjust="spacing" textLength="112" x="1504" y="512.0197">enrolments</text><polygon fill="#181818" points="2016,557.1197,2026,561.1197,2016,565.1197,2020,561.1197" style="stroke:#181818;stroke-width:1.0;"/><line style="stroke:#181818;stroke-width:1.0;" x1="1459.75" x2="2022" y1="561.1197" y2="561.1197"/><text fill="#000000" font-family="sans-serif" font-size="20" font-weight="bold" lengthAdjust="spacing" textLength="23.25" x="1466.75" y="553.2597">11</text><text fill="#000000" font-family="sans-serif" font-size="20" lengthAdjust="spacing" textLength="228" x="1494" y="553.2597">listOpenForEnrolment()</text><polygon fill="#181818" points="2777.25,598.3596,2787.25,602.3596,2777.25,606.3596,2781.25,602.3596" style="stroke:#181818;stroke-width:1.0;"/><line style="stroke:#181818;stroke-width:1.0;" x1="2038" x2="2783.25" y1="602.3596" y2="602.3596"/><text fill="#000000" font-family="sans-serif" font-size="20" font-weight="bold" lengthAdjust="spacing" textLength="23.25" x="2045" y="594.4997">12</text><text fill="#000000" font-family="sans-serif" font-size="20" lengthAdjust="spacing" textLength="263" x="2072.25" y="594.4997">findAllOpenForEnrolment()</text><polygon fill="#181818" points="2049,639.5996,2039,643.5996,2049,647.5996,2045,643.5996" style="stroke:#181818;stroke-width:1.0;"/><line style="stroke:#181818;stroke-width:1.0;stroke-dasharray:2.0,2.0;" x1="2043" x2="2793.25" y1="643.5996" y2="643.5996"/><text fill="#000000" font-family="sans-serif" font-size="20" font-weight="bold" lengthAdjust="spacing" textLength="23.25" x="2055" y="635.7396">13</text><text fill="#000000" font-family="sans-serif" font-size="20" lengthAdjust="spacing" textLength="74" x="2082.25" y="635.7396">courses</text><path d="M1921.5,658.5996 L2012,658.5996 L2012,677.8396 L2002,687.8396 L1921.5,687.8396 L1921.5,658.5996 " fill="#EEEEEE" style="stroke:#000000;stroke-width:1.5;"/><rect fill="none" height="233.6798" style="stroke:#000000;stroke-width:1.5;" width="626.75" x="1921.5" y="658.5996"/><text fill="#000000" font-family="sans-serif" font-size="20" font-weight="bold" lengthAdjust="spacing" textLength="45.5" x="1936.5" y="680.9796">loop</text><text fill="#000000" font-family="sans-serif" font-size="20" font-weight="bold" lengthAdjust="spacing" textLength="169.375" x="2027" y="681.9796">[for each course]</text><line style="stroke:#181818;stroke-width:1.0;" x1="2038" x2="2080" y1="733.3195" y2="733.3195"/><line style="stroke:#181818;stroke-width:1.0;" x1="2080" x2="2080" y1="733.3195" y2="746.3195"/><line style="stroke:#181818;stroke-width:1.0;" x1="2039" x2="2080" y1="746.3195" y2="746.3195"/><polygon fill="#181818" points="2049,742.3195,2039,746.3195,2049,750.3195,2045,746.3195" style="stroke:#181818;stroke-width:1.0;"/><text fill="#000000" font-family="sans-serif" font-size="20" font-weight="bold" lengthAdjust="spacing" textLength="23.25" x="2045" y="725.4596">14</text><text fill="#000000" font-family="sans-serif" font-size="20" lengthAdjust="spacing" textLength="253" x="2072.25" y="725.4596">isEnroled(student, course)</text><path d="M1931.5,761.3195 L2011.375,761.3195 L2011.375,780.5595 L2001.375,790.5595 L1931.5,790.5595 L1931.5,761.3195 " fill="#EEEEEE" style="stroke:#000000;stroke-width:1.5;"/><rect fill="none" height="123.9599" style="stroke:#000000;stroke-width:1.5;" width="606.75" x="1931.5" y="761.3195"/><text fill="#000000" font-family="sans-serif" font-size="20" font-weight="bold" lengthAdjust="spacing" textLength="34.875" x="1946.5" y="783.6995">opt</text><text fill="#000000" font-family="sans-serif" font-size="20" font-weight="bold" lengthAdjust="spacing" textLength="176" x="2026.375" y="784.6995">[if is not enroled]</text><polygon fill="#181818" points="2320.25,832.0395,2330.25,836.0395,2320.25,840.0395,2324.25,836.0395" style="stroke:#181818;stroke-width:1.0;"/><line style="stroke:#181818;stroke-width:1.0;" x1="2038" x2="2326.25" y1="836.0395" y2="836.0395"/><text fill="#000000" font-family="sans-serif" font-size="20" font-weight="bold" lengthAdjust="spacing" textLength="23.25" x="2045" y="828.1795">15</text><text fill="#000000" font-family="sans-serif" font-size="20" lengthAdjust="spacing" textLength="138" x="2072.25" y="828.1795">toDTO(course)</text><polygon fill="#181818" points="2454.75,873.2794,2464.75,877.2794,2454.75,881.2794,2458.75,877.2794" style="stroke:#181818;stroke-width:1.0;"/><line style="stroke:#181818;stroke-width:1.0;" x1="2337.25" x2="2460.75" y1="877.2794" y2="877.2794"/><text fill="#000000" font-family="sans-serif" font-size="20" font-weight="bold" lengthAdjust="spacing" textLength="23.25" x="2344.25" y="869.4195">16</text><text fill="#000000" font-family="sans-serif" font-size="20" lengthAdjust="spacing" textLength="40" x="2371.5" y="869.4195">new</text><polygon fill="#181818" points="1470.75,928.5194,1460.75,932.5194,1470.75,936.5194,1466.75,932.5194" style="stroke:#181818;stroke-width:1.0;"/><line style="stroke:#181818;stroke-width:1.0;stroke-dasharray:2.0,2.0;" x1="1464.75" x2="2032" y1="932.5194" y2="932.5194"/><text fill="#000000" font-family="sans-serif" font-size="20" font-weight="bold" lengthAdjust="spacing" textLength="23.25" x="1476.75" y="924.6594">17</text><text fill="#000000" font-family="sans-serif" font-size="20" lengthAdjust="spacing" textLength="74" x="1504" y="924.6594">courses</text><polygon fill="#181818" points="584.125,969.7594,574.125,973.7594,584.125,977.7594,580.125,973.7594" style="stroke:#181818;stroke-width:1.0;"/><line style="stroke:#181818;stroke-width:1.0;stroke-dasharray:2.0,2.0;" x1="578.125" x2="1453.75" y1="973.7594" y2="973.7594"/><text fill="#000000" font-family="sans-serif" font-size="20" font-weight="bold" lengthAdjust="spacing" textLength="23.25" x="590.125" y="965.8994">18</text><text fill="#000000" font-family="sans-serif" font-size="20" lengthAdjust="spacing" textLength="74" x="617.375" y="965.8994">courses</text><polygon fill="#181818" points="62.5,1010.9994,52.5,1014.9994,62.5,1018.9994,58.5,1014.9994" style="stroke:#181818;stroke-width:1.0;"/><line style="stroke:#181818;stroke-width:1.0;stroke-dasharray:2.0,2.0;" x1="56.5" x2="567.125" y1="1014.9994" y2="1014.9994"/><text fill="#000000" font-family="sans-serif" font-size="20" font-weight="bold" lengthAdjust="spacing" textLength="23.25" x="68.5" y="1007.1394">19</text><text fill="#000000" font-family="sans-serif" font-size="20" lengthAdjust="spacing" textLength="237" x="95.75" y="1007.1394">lists all available courses</text><polygon fill="#181818" points="551.125,1052.2393,561.125,1056.2393,551.125,1060.2393,555.125,1056.2393" style="stroke:#181818;stroke-width:1.0;"/><line style="stroke:#181818;stroke-width:1.0;" x1="51.5" x2="557.125" y1="1056.2393" y2="1056.2393"/><text fill="#000000" font-family="sans-serif" font-size="20" font-weight="bold" lengthAdjust="spacing" textLength="23.25" x="58.5" y="1048.3794">20</text><text fill="#000000" font-family="sans-serif" font-size="20" lengthAdjust="spacing" textLength="249" x="85.75" y="1048.3794">selects the desired course</text><line style="stroke:#181818;stroke-width:1.0;" x1="573.125" x2="615.125" y1="1097.4793" y2="1097.4793"/><line style="stroke:#181818;stroke-width:1.0;" x1="615.125" x2="615.125" y1="1097.4793" y2="1110.4793"/><line style="stroke:#181818;stroke-width:1.0;" x1="574.125" x2="615.125" y1="1110.4793" y2="1110.4793"/><polygon fill="#181818" points="584.125,1106.4793,574.125,1110.4793,584.125,1114.4793,580.125,1110.4793" style="stroke:#181818;stroke-width:1.0;"/><text fill="#000000" font-family="sans-serif" font-size="20" font-weight="bold" lengthAdjust="spacing" textLength="23.25" x="580.125" y="1089.6193">21</text><text fill="#000000" font-family="sans-serif" font-size="20" lengthAdjust="spacing" textLength="372" x="607.375" y="1089.6193">selectedCourse = select(courses, index)</text><polygon fill="#181818" points="62.5,1147.7193,52.5,1151.7193,62.5,1155.7193,58.5,1151.7193" style="stroke:#181818;stroke-width:1.0;"/><line style="stroke:#181818;stroke-width:1.0;stroke-dasharray:2.0,2.0;" x1="56.5" x2="567.125" y1="1151.7193" y2="1151.7193"/><text fill="#000000" font-family="sans-serif" font-size="20" font-weight="bold" lengthAdjust="spacing" textLength="23.25" x="68.5" y="1143.8593">22</text><text fill="#000000" font-family="sans-serif" font-size="20" lengthAdjust="spacing" textLength="212" x="95.75" y="1143.8593">asks to confirm action</text><polygon fill="#181818" points="551.125,1188.9593,561.125,1192.9593,551.125,1196.9593,555.125,1192.9593" style="stroke:#181818;stroke-width:1.0;"/><line style="stroke:#181818;stroke-width:1.0;" x1="51.5" x2="557.125" y1="1192.9593" y2="1192.9593"/><text fill="#000000" font-family="sans-serif" font-size="20" font-weight="bold" lengthAdjust="spacing" textLength="23.25" x="58.5" y="1185.0993">23</text><text fill="#000000" font-family="sans-serif" font-size="20" lengthAdjust="spacing" textLength="187" x="85.75" y="1185.0993">confirms the action</text><polygon fill="#181818" points="1437.75,1230.1992,1447.75,1234.1992,1437.75,1238.1992,1441.75,1234.1992" style="stroke:#181818;stroke-width:1.0;"/><line style="stroke:#181818;stroke-width:1.0;" x1="573.125" x2="1443.75" y1="1234.1992" y2="1234.1992"/><text fill="#000000" font-family="sans-serif" font-size="20" font-weight="bold" lengthAdjust="spacing" textLength="23.25" x="580.125" y="1226.3393">24</text><text fill="#000000" font-family="sans-serif" font-size="20" lengthAdjust="spacing" textLength="335" x="607.375" y="1226.3393">requestEnrolment(selectedCourse)</text><polygon fill="#181818" points="1802,1271.4392,1812,1275.4392,1802,1279.4392,1806,1275.4392" style="stroke:#181818;stroke-width:1.0;"/><line style="stroke:#181818;stroke-width:1.0;" x1="1459.75" x2="1808" y1="1275.4392" y2="1275.4392"/><text fill="#000000" font-family="sans-serif" font-size="20" font-weight="bold" lengthAdjust="spacing" textLength="23.25" x="1466.75" y="1267.5792">25</text><text fill="#000000" font-family="sans-serif" font-size="20" lengthAdjust="spacing" textLength="308" x="1494" y="1267.5792">loggedinUserWithPermissions()</text><polygon fill="#181818" points="1470.75,1312.6792,1460.75,1316.6792,1470.75,1320.6792,1466.75,1316.6792" style="stroke:#181818;stroke-width:1.0;"/><line style="stroke:#181818;stroke-width:1.0;stroke-dasharray:2.0,2.0;" x1="1464.75" x2="1818" y1="1316.6792" y2="1316.6792"/><text fill="#000000" font-family="sans-serif" font-size="20" font-weight="bold" lengthAdjust="spacing" textLength="23.25" x="1476.75" y="1308.8192">26</text><text fill="#000000" font-family="sans-serif" font-size="20" lengthAdjust="spacing" textLength="180" x="1504" y="1308.8192">authenticatedUser</text><polygon fill="#181818" points="3189.25,1353.9192,3199.25,1357.9192,3189.25,1361.9192,3193.25,1357.9192" style="stroke:#181818;stroke-width:1.0;"/><line style="stroke:#181818;stroke-width:1.0;" x1="1459.75" x2="3195.25" y1="1357.9192" y2="1357.9192"/><text fill="#000000" font-family="sans-serif" font-size="20" font-weight="bold" lengthAdjust="spacing" textLength="23.25" x="1466.75" y="1350.0592">27</text><text fill="#000000" font-family="sans-serif" font-size="20" lengthAdjust="spacing" textLength="468" x="1494" y="1350.0592">findByUsername(authenticatedUser.username())</text><polygon fill="#181818" points="1470.75,1395.1591,1460.75,1399.1591,1470.75,1403.1591,1466.75,1399.1591" style="stroke:#181818;stroke-width:1.0;"/><line style="stroke:#181818;stroke-width:1.0;stroke-dasharray:2.0,2.0;" x1="1464.75" x2="3205.25" y1="1399.1591" y2="1399.1591"/><text fill="#000000" font-family="sans-serif" font-size="20" font-weight="bold" lengthAdjust="spacing" textLength="23.25" x="1476.75" y="1391.2992">28</text><text fill="#000000" font-family="sans-serif" font-size="20" lengthAdjust="spacing" textLength="76" x="1504" y="1391.2992">student</text><polygon fill="#181818" points="2777.25,1436.3991,2787.25,1440.3991,2777.25,1444.3991,2781.25,1440.3991" style="stroke:#181818;stroke-width:1.0;"/><line style="stroke:#181818;stroke-width:1.0;" x1="1459.75" x2="2783.25" y1="1440.3991" y2="1440.3991"/><text fill="#000000" font-family="sans-serif" font-size="20" font-weight="bold" lengthAdjust="spacing" textLength="23.25" x="1466.75" y="1432.5391">29</text><text fill="#000000" font-family="sans-serif" font-size="20" lengthAdjust="spacing" textLength="316" x="1494" y="1432.5391">ofIdentity(selectedCourse.code())</text><polygon fill="#181818" points="1470.75,1477.6391,1460.75,1481.6391,1470.75,1485.6391,1466.75,1481.6391" style="stroke:#181818;stroke-width:1.0;"/><line style="stroke:#181818;stroke-width:1.0;stroke-dasharray:2.0,2.0;" x1="1464.75" x2="2793.25" y1="1481.6391" y2="1481.6391"/><text fill="#000000" font-family="sans-serif" font-size="20" font-weight="bold" lengthAdjust="spacing" textLength="23.25" x="1476.75" y="1473.7791">30</text><text fill="#000000" font-family="sans-serif" font-size="20" lengthAdjust="spacing" textLength="64" x="1504" y="1473.7791">course</text><polygon fill="#181818" points="2325.25,1518.8791,2335.25,1522.8791,2325.25,1526.8791,2329.25,1522.8791" style="stroke:#181818;stroke-width:1.0;"/><line style="stroke:#181818;stroke-width:1.0;" x1="1459.75" x2="2331.25" y1="1522.8791" y2="1522.8791"/><text fill="#000000" font-family="sans-serif" font-size="20" font-weight="bold" lengthAdjust="spacing" textLength="23.25" x="1466.75" y="1515.0191">31</text><text fill="#000000" font-family="sans-serif" font-size="20" lengthAdjust="spacing" textLength="315" x="1494" y="1515.0191">enrolment=new(course, student)</text><polygon fill="#181818" points="2980.75,1560.119,2990.75,1564.119,2980.75,1568.119,2984.75,1564.119" style="stroke:#181818;stroke-width:1.0;"/><line style="stroke:#181818;stroke-width:1.0;" x1="1459.75" x2="2986.75" y1="1564.119" y2="1564.119"/><text fill="#000000" font-family="sans-serif" font-size="20" font-weight="bold" lengthAdjust="spacing" textLength="23.25" x="1466.75" y="1556.2591">32</text><text fill="#000000" font-family="sans-serif" font-size="20" lengthAdjust="spacing" textLength="156" x="1494" y="1556.2591">save(enrolment)</text><polygon fill="#181818" points="1470.75,1601.359,1460.75,1605.359,1470.75,1609.359,1466.75,1605.359" style="stroke:#181818;stroke-width:1.0;"/><line style="stroke:#181818;stroke-width:1.0;stroke-dasharray:2.0,2.0;" x1="1464.75" x2="2996.75" y1="1605.359" y2="1605.359"/><text fill="#000000" font-family="sans-serif" font-size="20" font-weight="bold" lengthAdjust="spacing" textLength="23.25" x="1476.75" y="1597.499">33</text><text fill="#000000" font-family="sans-serif" font-size="20" lengthAdjust="spacing" textLength="102" x="1504" y="1597.499">enrolment</text><polygon fill="#181818" points="2320.25,1642.599,2330.25,1646.599,2320.25,1650.599,2324.25,1646.599" style="stroke:#181818;stroke-width:1.0;"/><line style="stroke:#181818;stroke-width:1.0;" x1="1459.75" x2="2326.25" y1="1646.599" y2="1646.599"/><text fill="#000000" font-family="sans-serif" font-size="20" font-weight="bold" lengthAdjust="spacing" textLength="23.25" x="1466.75" y="1638.739">34</text><text fill="#000000" font-family="sans-serif" font-size="20" lengthAdjust="spacing" textLength="176" x="1494" y="1638.739">toDTO(enrolment)</text><polygon fill="#181818" points="2605.25,1683.839,2615.25,1687.839,2605.25,1691.839,2609.25,1687.839" style="stroke:#181818;stroke-width:1.0;"/><line style="stroke:#181818;stroke-width:1.0;" x1="2342.25" x2="2611.25" y1="1687.839" y2="1687.839"/><text fill="#000000" font-family="sans-serif" font-size="20" font-weight="bold" lengthAdjust="spacing" textLength="23.25" x="2349.25" y="1679.979">35</text><text fill="#000000" font-family="sans-serif" font-size="20" lengthAdjust="spacing" textLength="40" x="2376.5" y="1679.979">new</text><polygon fill="#181818" points="1470.75,1725.0789,1460.75,1729.0789,1470.75,1733.0789,1466.75,1729.0789" style="stroke:#181818;stroke-width:1.0;"/><line style="stroke:#181818;stroke-width:1.0;stroke-dasharray:2.0,2.0;" x1="1464.75" x2="2336.25" y1="1729.0789" y2="1729.0789"/><text fill="#000000" font-family="sans-serif" font-size="20" font-weight="bold" lengthAdjust="spacing" textLength="23.25" x="1476.75" y="1721.219">36</text><text fill="#000000" font-family="sans-serif" font-size="20" lengthAdjust="spacing" textLength="144" x="1504" y="1721.219">enrolmentDTO</text><polygon fill="#181818" points="584.125,1766.3189,574.125,1770.3189,584.125,1774.3189,580.125,1770.3189" style="stroke:#181818;stroke-width:1.0;"/><line style="stroke:#181818;stroke-width:1.0;stroke-dasharray:2.0,2.0;" x1="578.125" x2="1453.75" y1="1770.3189" y2="1770.3189"/><text fill="#000000" font-family="sans-serif" font-size="20" font-weight="bold" lengthAdjust="spacing" textLength="23.25" x="590.125" y="1762.4589">37</text><text fill="#000000" font-family="sans-serif" font-size="20" lengthAdjust="spacing" textLength="144" x="617.375" y="1762.4589">enrolmentDTO</text><polygon fill="#181818" points="57.5,1807.5589,47.5,1811.5589,57.5,1815.5589,53.5,1811.5589" style="stroke:#181818;stroke-width:1.0;"/><line style="stroke:#181818;stroke-width:1.0;stroke-dasharray:2.0,2.0;" x1="51.5" x2="567.125" y1="1811.5589" y2="1811.5589"/><text fill="#000000" font-family="sans-serif" font-size="20" font-weight="bold" lengthAdjust="spacing" textLength="23.25" x="63.5" y="1803.6989">38</text><text fill="#000000" font-family="sans-serif" font-size="20" lengthAdjust="spacing" textLength="435" x="90.75" y="1803.6989">reports the success of the enrolment request</text><!--SRC=[vLNDJzim5B_xhx0ufLA7fXqhGEfOq2eXWHhApYP-1Ol4pcod6_lhz-muiHCIjFjEQPtVn_FxYdaLic6QrPKgNu5J3aVMLlP6ILk8Fq2_V2QijKgszHDeGbXfbQPdXMqvI7j6cQ45GRuLfMYOjFHi3pzRC3QNMbKrOWuxZphiwCL5ey7W4RD2oQkhZtdN607-h41x_lN3_XOLMDDKefmLsBRs1NdXRG7w94hmtEtXuJjoJNSqvTqAWsQjDf1oYltZCcK8qaDp179LC_4kf4xssyETn-7J8QrQbEkHUGebd5dsn0pGJcuFZJ82o_3ceFly7f5wE4F2W1zqnvJy8qwex9XHp31SAuWJiqWXfA2Vhbo9DuX-DTGgMc5MAQigYaMXfG_SK7PYec9F5T0ZTX7quKMfmuuGb44nN-yDbV0hAoVNNaTcUcYcaQyfcsk9LRHp9iGxeQEh-8Q6Yb_E6Qy8Xp5t7Aoxyrq3yaRff8tzrRCbLz-RI5NFpy25FA3_3s5Vxa7NmXYCUaHrQE8fdw9jSalWJY0DqpFY5R6E6teKadzzSqZ9QiZUyS_R_jKgyNPauXKIxv3qrD7ZUiSyEhfhEVMjv5rIqeiv7CaduaEPJQgVf_fTqUOIdur2VoGEYOGOpxQgFk8ubpwUpYLqSHgB0v5AgQPhQ5Q-11IXD1XsN66y2V0iP6mTW2j4giPISKGCbSfsjmQEvuD6ZWfMuLB88edIc17_DtT8jpZyrFYZD6ju098xB-AUBcZI9IKcVEQ6BdLTili9dm75MN0N3WKnVlpZoC_mtBZ7rM6WWX9fRcDmC4BZvoXaCsLq8vSm8FGJlGm78KjcJR7Cy7kLHjRlfrB9ez2rJwAIoq45N1TL0B-F9kHFJxvXsJZ0_tG7T8Rgk7CeOTycMJal5H-xfACtwipfw0rR9bqMoUeUFWghwK8ox0JPGFddHRIuX-A4peeIFvnvdCvyLXxVZnmMxFhUNEBvvZhi-fPtdsqTvigqPGd6O3Nytq6XRztf8AGr9Ny1]--></g></svg>