<?xml version="1.0" encoding="UTF-8" standalone="no"?><svg xmlns="http://www.w3.org/2000/svg" xmlns:xlink="http://www.w3.org/1999/xlink" contentStyleType="text/css" height="611px" preserveAspectRatio="none" style="width:1228px;height:611px;background:#FFFFFF;" version="1.1" viewBox="0 0 1228 611" width="1228px" zoomAndPan="magnify"><defs/><g><!--cluster <<aggregate>> Enrolment--><g id="cluster_&lt;&lt;aggregate&gt;&gt; Enrolment"><path d="M742.5,221.36 L973,221.36 A3.75,3.75 0 0 1 975.5,223.86 L982.5,254.6 L982.5,254.6 A2.5,2.5 0 0 1 985,257.1 L985,601.86 A2.5,2.5 0 0 1 982.5,604.36 L742.5,604.36 A2.5,2.5 0 0 1 740,601.86 L740,223.86 A2.5,2.5 0 0 1 742.5,221.36 " fill="none" style="stroke:#000000;stroke-width:1.5;"/><line style="stroke:#000000;stroke-width:1.5;" x1="740" x2="982.5" y1="254.6" y2="254.6"/><text fill="#000000" font-family="sans-serif" font-size="20" font-weight="bold" lengthAdjust="spacing" textLength="229.5" x="744" y="244.74">«aggregate» Enrolment</text></g><!--cluster <<aggregate>> Student--><g id="cluster_&lt;&lt;aggregate&gt;&gt; Student"><path d="M8.5,8.36 L212.75,8.36 A3.75,3.75 0 0 1 215.25,10.86 L222.25,41.6 L713.5,41.6 A2.5,2.5 0 0 1 716,44.1 L716,389.86 A2.5,2.5 0 0 1 713.5,392.36 L8.5,392.36 A2.5,2.5 0 0 1 6,389.86 L6,10.86 A2.5,2.5 0 0 1 8.5,8.36 " fill="none" style="stroke:#000000;stroke-width:1.5;"/><line style="stroke:#000000;stroke-width:1.5;" x1="6" x2="222.25" y1="41.6" y2="41.6"/><text fill="#000000" font-family="sans-serif" font-size="20" font-weight="bold" lengthAdjust="spacing" textLength="203.25" x="10" y="31.74">«aggregate» Student</text></g><!--cluster <<aggregate>> Course--><g id="cluster_&lt;&lt;aggregate&gt;&gt; Course"><path d="M1011.5,252.36 L1209.125,252.36 A3.75,3.75 0 0 1 1211.625,254.86 L1218.625,285.6 L1218.5,285.6 A2.5,2.5 0 0 1 1221,288.1 L1221,403.86 A2.5,2.5 0 0 1 1218.5,406.36 L1011.5,406.36 A2.5,2.5 0 0 1 1009,403.86 L1009,254.86 A2.5,2.5 0 0 1 1011.5,252.36 " fill="none" style="stroke:#000000;stroke-width:1.5;"/><line style="stroke:#000000;stroke-width:1.5;" x1="1009" x2="1218.625" y1="285.6" y2="285.6"/><text fill="#000000" font-family="sans-serif" font-size="20" font-weight="bold" lengthAdjust="spacing" textLength="196.625" x="1013" y="275.74">«aggregate» Course</text></g><!--class Enrolment--><g id="elem_Enrolment"><rect codeLine="35" fill="#F5F5DC" height="154.1999" id="Enrolment" rx="2.5" ry="2.5" style="stroke:#181818;stroke-width:0.5;" width="131" x="769.5" y="267.36"/><ellipse cx="785.5" cy="313.22" fill="#ADD1B2" rx="12" ry="12" style="stroke:#181818;stroke-width:1.0;"/><path d="M789.5469,320.72 L780.9375,320.72 L780.9375,305.8137 L789.5469,305.8137 L789.5469,308.0168 L783.3594,308.0168 L783.3594,311.8606 L789.1875,311.8606 L789.1875,314.0325 L783.3594,314.0325 L783.3594,318.5168 L789.5469,318.5168 L789.5469,320.72 Z " fill="#000000"/><text fill="#000000" font-family="sans-serif" font-size="20" font-style="italic" lengthAdjust="spacing" textLength="70" x="814" y="293.74">«entity»</text><text fill="#000000" font-family="sans-serif" font-size="20" font-style="italic" lengthAdjust="spacing" textLength="57" x="820.5" y="320.9799">«root»</text><text fill="#000000" font-family="sans-serif" font-size="20" lengthAdjust="spacing" textLength="97" x="800.5" y="348.2199">Enrolment</text><line style="stroke:#181818;stroke-width:0.5;" x1="770.5" x2="899.5" y1="359.0799" y2="359.0799"/><text fill="#000000" font-family="sans-serif" font-size="20" lengthAdjust="spacing" textLength="96" x="775.5" y="384.4599">-createdAt</text><text fill="#000000" font-family="sans-serif" font-size="20" lengthAdjust="spacing" textLength="103" x="775.5" y="411.6999">-updatedAt</text></g><!--class State--><g id="elem_State"><rect codeLine="56" fill="#F5F5DC" height="64.4799" id="State" rx="2.5" ry="2.5" style="stroke:#181818;stroke-width:0.5;" width="156" x="757" y="524.36"/><ellipse cx="773" cy="556.6" fill="#FF8B40" rx="12" ry="12" style="stroke:#181818;stroke-width:1.0;"/><path d="M779.25,550.4437 L773.9375,565.35 L771.6875,565.35 L766.375,550.4437 L768.9063,550.4437 L772.2031,559.8031 Q772.4219,560.3968 772.5781,560.9437 Q772.75,561.4906 772.875,561.9906 Q773.0156,562.475 772.8125,562.5218 Q772.5938,562.4906 772.7344,561.975 Q772.875,561.4593 773.0469,560.9281 Q773.2188,560.3812 773.4219,559.7718 L776.6875,550.4437 L779.25,550.4437 Z " fill="#000000"/><text fill="#000000" font-family="sans-serif" font-size="20" font-style="italic" lengthAdjust="spacing" textLength="126" x="786" y="550.74">«value object»</text><text fill="#000000" font-family="sans-serif" font-size="20" lengthAdjust="spacing" textLength="47" x="825.5" y="577.9799">State</text></g><!--class Student--><g id="elem_Student"><rect codeLine="45" fill="#F5F5DC" height="91.7199" id="Student" rx="2.5" ry="2.5" style="stroke:#181818;stroke-width:0.5;" width="106" x="388" y="54.36"/><ellipse cx="404" cy="100.22" fill="#ADD1B2" rx="12" ry="12" style="stroke:#181818;stroke-width:1.0;"/><path d="M408.0469,107.72 L399.4375,107.72 L399.4375,92.8137 L408.0469,92.8137 L408.0469,95.0168 L401.8594,95.0168 L401.8594,98.8606 L407.6875,98.8606 L407.6875,101.0325 L401.8594,101.0325 L401.8594,105.5168 L408.0469,105.5168 L408.0469,107.72 Z " fill="#000000"/><text fill="#000000" font-family="sans-serif" font-size="20" font-style="italic" lengthAdjust="spacing" textLength="70" x="420" y="80.74">«entity»</text><text fill="#000000" font-family="sans-serif" font-size="20" font-style="italic" lengthAdjust="spacing" textLength="57" x="426.5" y="107.9799">«root»</text><text fill="#000000" font-family="sans-serif" font-size="20" lengthAdjust="spacing" textLength="72" x="419" y="135.2199">Student</text></g><!--class BirthDate--><g id="elem_BirthDate"><rect codeLine="68" fill="#F5F5DC" height="64.4799" id="BirthDate" rx="2.5" ry="2.5" style="stroke:#181818;stroke-width:0.5;" width="156" x="22" y="312.36"/><ellipse cx="38" cy="344.6" fill="#FF8B40" rx="12" ry="12" style="stroke:#181818;stroke-width:1.0;"/><path d="M44.25,338.4437 L38.9375,353.35 L36.6875,353.35 L31.375,338.4437 L33.9063,338.4437 L37.2031,347.8031 Q37.4219,348.3968 37.5781,348.9437 Q37.75,349.4906 37.875,349.9906 Q38.0156,350.475 37.8125,350.5218 Q37.5938,350.4906 37.7344,349.975 Q37.875,349.4593 38.0469,348.9281 Q38.2188,348.3812 38.4219,347.7718 L41.6875,338.4437 L44.25,338.4437 Z " fill="#000000"/><text fill="#000000" font-family="sans-serif" font-size="20" font-style="italic" lengthAdjust="spacing" textLength="126" x="51" y="338.74">«value object»</text><text fill="#000000" font-family="sans-serif" font-size="20" lengthAdjust="spacing" textLength="89" x="69.5" y="365.9799">BirthDate</text></g><!--class TaxPayerNumber--><g id="elem_TaxPayerNumber"><rect codeLine="69" fill="#F5F5DC" height="64.4799" id="TaxPayerNumber" rx="2.5" ry="2.5" style="stroke:#181818;stroke-width:0.5;" width="196" x="213" y="312.36"/><ellipse cx="229" cy="344.6" fill="#FF8B40" rx="12" ry="12" style="stroke:#181818;stroke-width:1.0;"/><path d="M235.25,338.4437 L229.9375,353.35 L227.6875,353.35 L222.375,338.4437 L224.9063,338.4437 L228.2031,347.8031 Q228.4219,348.3968 228.5781,348.9437 Q228.75,349.4906 228.875,349.9906 Q229.0156,350.475 228.8125,350.5218 Q228.5938,350.4906 228.7344,349.975 Q228.875,349.4593 229.0469,348.9281 Q229.2188,348.3812 229.4219,347.7718 L232.6875,338.4437 L235.25,338.4437 Z " fill="#000000"/><text fill="#000000" font-family="sans-serif" font-size="20" font-style="italic" lengthAdjust="spacing" textLength="126" x="262" y="338.74">«value object»</text><text fill="#000000" font-family="sans-serif" font-size="20" lengthAdjust="spacing" textLength="162" x="244" y="365.9799">TaxPayerNumber</text></g><!--class MecanographicNumber--><g id="elem_MecanographicNumber"><rect codeLine="70" fill="#F5F5DC" height="64.4799" id="MecanographicNumber" rx="2.5" ry="2.5" style="stroke:#181818;stroke-width:0.5;" width="255" x="444.5" y="312.36"/><ellipse cx="460.5" cy="344.6" fill="#FF8B40" rx="12" ry="12" style="stroke:#181818;stroke-width:1.0;"/><path d="M466.75,338.4437 L461.4375,353.35 L459.1875,353.35 L453.875,338.4437 L456.4063,338.4437 L459.7031,347.8031 Q459.9219,348.3968 460.0781,348.9437 Q460.25,349.4906 460.375,349.9906 Q460.5156,350.475 460.3125,350.5218 Q460.0938,350.4906 460.2344,349.975 Q460.375,349.4593 460.5469,348.9281 Q460.7188,348.3812 460.9219,347.7718 L464.1875,338.4437 L466.75,338.4437 Z " fill="#000000"/><text fill="#000000" font-family="sans-serif" font-size="20" font-style="italic" lengthAdjust="spacing" textLength="126" x="523" y="338.74">«value object»</text><text fill="#000000" font-family="sans-serif" font-size="20" lengthAdjust="spacing" textLength="221" x="475.5" y="365.9799">MecanographicNumber</text></g><!--class Course--><g id="elem_Course"><rect codeLine="53" fill="#F5F5DC" height="91.7199" id="Course" rx="2.5" ry="2.5" style="stroke:#181818;stroke-width:0.5;" width="100" x="1025" y="298.36"/><ellipse cx="1041" cy="344.22" fill="#ADD1B2" rx="12" ry="12" style="stroke:#181818;stroke-width:1.0;"/><path d="M1045.0469,351.72 L1036.4375,351.72 L1036.4375,336.8137 L1045.0469,336.8137 L1045.0469,339.0168 L1038.8594,339.0168 L1038.8594,342.8606 L1044.6875,342.8606 L1044.6875,345.0325 L1038.8594,345.0325 L1038.8594,349.5168 L1045.0469,349.5168 L1045.0469,351.72 Z " fill="#000000"/><text fill="#000000" font-family="sans-serif" font-size="20" font-style="italic" lengthAdjust="spacing" textLength="70" x="1054" y="324.74">«entity»</text><text fill="#000000" font-family="sans-serif" font-size="20" font-style="italic" lengthAdjust="spacing" textLength="57" x="1060.5" y="351.9799">«root»</text><text fill="#000000" font-family="sans-serif" font-size="20" lengthAdjust="spacing" textLength="66" x="1056" y="379.2199">Course</text></g><g id="elem_GMN12"><path d="M602,510.36 L602,602.0799 A0,0 0 0 0 602,602.0799 L722,602.0799 A0,0 0 0 0 722,602.0799 L722,560.36 L756.77,556.36 L722,552.36 L722,520.36 L712,510.36 L602,510.36 A0,0 0 0 0 602,510.36 " fill="#FEFFDD" style="stroke:#181818;stroke-width:0.5;"/><path d="M712,510.36 L712,520.36 L722,520.36 L712,510.36 " fill="#FEFFDD" style="stroke:#181818;stroke-width:0.5;"/><text fill="#000000" font-family="sans-serif" font-size="20" lengthAdjust="spacing" textLength="90" x="608" y="536.74">PENDING</text><text fill="#000000" font-family="sans-serif" font-size="20" lengthAdjust="spacing" textLength="99" x="608" y="563.9799">ACCEPTED</text><text fill="#000000" font-family="sans-serif" font-size="20" lengthAdjust="spacing" textLength="89" x="608" y="591.2199">REJECTED</text></g><!--link Enrolment to State--><g id="link_Enrolment_State"><path codeLine="63" d="M835,421.77 C835,454.45 835,491.13 835,517.77 " fill="none" id="Enrolment-to-State" style="stroke:#222222;stroke-width:1.0;"/><polygon fill="#222222" points="835,522.47,839,513.47,835,517.47,831,513.47,835,522.47" style="stroke:#222222;stroke-width:1.0;"/><text fill="#000000" font-family="sans-serif" font-size="20" lengthAdjust="spacing" textLength="33" x="836" y="473.74">has</text><text fill="#000000" font-family="sans-serif" font-size="20" lengthAdjust="spacing" textLength="11" x="823.0547" y="510.4537">1</text></g><!--link Student to Enrolment--><g id="link_Student_Enrolment"><path codeLine="65" d="M494.47,113.11 C553.73,128.26 649.66,159.3 716,213.36 C734.04,228.06 751.86,245.5 768.01,262.76 " fill="none" id="Student-to-Enrolment" style="stroke:#222222;stroke-width:1.0;"/><polygon fill="#222222" points="771.04,266.03,767.8596,256.7088,767.6427,262.3615,761.99,262.1445,771.04,266.03" style="stroke:#222222;stroke-width:1.0;"/><text fill="#000000" font-family="sans-serif" font-size="20" lengthAdjust="spacing" textLength="33" x="704" y="198.74">has</text><text fill="#000000" font-family="sans-serif" font-size="20" lengthAdjust="spacing" textLength="32" x="729.4638" y="279.9603">0..*</text></g><!--link Enrolment to Course--><g id="link_Enrolment_Course"><path codeLine="66" d="M900.9,344.36 C937.74,344.36 983.18,344.36 1018.4,344.36 " fill="none" id="Enrolment-to-Course" style="stroke:#222222;stroke-width:1.0;"/><polygon fill="#222222" points="1023.34,344.36,1014.34,340.36,1018.34,344.36,1014.34,348.36,1023.34,344.36" style="stroke:#222222;stroke-width:1.0;"/><text fill="#000000" font-family="sans-serif" font-size="20" lengthAdjust="spacing" textLength="47" x="939.25" y="334.74">is for</text><text fill="#000000" font-family="sans-serif" font-size="20" lengthAdjust="spacing" textLength="11" x="1006.0356" y="336.8781">1</text></g><!--link Student to BirthDate--><g id="link_Student_BirthDate"><path codeLine="72" d="M387.73,104.45 C331.07,110.32 241.7,127.3 183,176.36 C142.68,210.06 120.12,268.16 109.01,306.18 " fill="none" id="Student-to-BirthDate" style="stroke:#222222;stroke-width:1.0;"/><polygon fill="#222222" points="107.74,310.64,114.0586,303.0852,109.1136,305.8324,106.3664,300.8874,107.74,310.64" style="stroke:#222222;stroke-width:1.0;"/><text fill="#000000" font-family="sans-serif" font-size="20" lengthAdjust="spacing" textLength="152" x="184" y="198.74">characterized by</text><text fill="#000000" font-family="sans-serif" font-size="20" lengthAdjust="spacing" textLength="11" x="96.6445" y="298.5944">1</text></g><!--link Student to TaxPayerNumber--><g id="link_Student_TaxPayerNumber"><path codeLine="73" d="M387.57,141.45 C376.53,151.8 365.88,163.65 358,176.36 C333.12,216.48 321.08,270.08 315.5,305.61 " fill="none" id="Student-to-TaxPayerNumber" style="stroke:#222222;stroke-width:1.0;"/><polygon fill="#222222" points="314.75,310.53,320.0432,302.2244,315.4931,305.5855,312.132,301.0355,314.75,310.53" style="stroke:#222222;stroke-width:1.0;"/><text fill="#000000" font-family="sans-serif" font-size="20" lengthAdjust="spacing" textLength="152" x="359" y="198.74">characterized by</text><text fill="#000000" font-family="sans-serif" font-size="20" lengthAdjust="spacing" textLength="11" x="303.1797" y="298.5006">1</text></g><!--link Student to MecanographicNumber--><g id="link_Student_MecanographicNumber"><path codeLine="74" d="M492.66,146.49 C501.27,155.73 509.5,165.87 516,176.36 C541.26,217.16 556.6,270.69 564.68,306.01 " fill="none" id="Student-to-MecanographicNumber" style="stroke:#222222;stroke-width:1.0;"/><polygon fill="#222222" points="565.68,310.48,567.6055,300.8212,564.5818,305.6021,559.8009,302.5784,565.68,310.48" style="stroke:#222222;stroke-width:1.0;"/><text fill="#000000" font-family="sans-serif" font-size="20" lengthAdjust="spacing" textLength="114" x="531" y="198.74">identified by</text><text fill="#000000" font-family="sans-serif" font-size="20" lengthAdjust="spacing" textLength="11" x="553.0352" y="298.4186">1</text></g><!--SRC=[dLJBRjim4BppAnRAeMbHFnhqK1Y20LkMWnIeOTH1xnIvabXBf41IITqW_rxgOLbnRTY8JilPdTdT4IMp5RAWckQPOblam36cPMQNIjgD-8jmDoOVKciBCncDYenAM-RPaAbyn39gp80BcZWo8MQl0tLYPgqMKMdnWIbP2ur9AZW2veNT0TsdJH_DqQQAcsEjEMNRHAjIya1bIaE48i5UqKnhzToaRkxgXv32SMY2uFa-JHAD2RKudK8ejSfobDQ35mBW0k7wTYXv9UGO0zzl84VtVQsKTS5BLNccnyQM_BX3Yn67r2l1N6YRBXoXGnxfdpNTeLwLUOIwWtyWer8vZujKi3PtcBBLFJ_ZUute-cziDMIbTAKn00DW6XsBpsnzAWlUdjvdMg_vnNtFo0Ugr0RVg3TGNxn1pclt376Psr-VRvRBR_Eluu_mHBCIGKM_aTNLhqGgLvHXR475hOS0wt2rU5ZTksWM1E7wCLouy6VuFGog42M7YaR8mUB1O0hU5wzjEe6K6aBs9jJ9yN3uoUkzbAQcfz08jBjDG1Y8bTulqrt3YmkTkgHNaavSuOlCjqkw1GwJJe2bxhjd5hNxht28TlyL7urv1UFKZCwigaR4ek7y0m00]--></g></svg>