<?xml version="1.0" encoding="UTF-8" standalone="no"?><svg xmlns="http://www.w3.org/2000/svg" xmlns:xlink="http://www.w3.org/1999/xlink" contentStyleType="text/css" height="552px" preserveAspectRatio="none" style="width:1344px;height:552px;background:#FFFFFF;" version="1.1" viewBox="0 0 1344 552" width="1344px" zoomAndPan="magnify"><defs/><g><!--cluster <<aggregate>> Enrolment--><g id="cluster_&lt;&lt;aggregate&gt;&gt; Enrolment"><path d="M784.5,200.2168 L1054.5,200.2168 A3.75,3.75 0 0 1 1057,202.7168 L1064,229.498 L1064.5,229.498 A2.5,2.5 0 0 1 1067,231.998 L1067,543.2168 A2.5,2.5 0 0 1 1064.5,545.7168 L784.5,545.7168 A2.5,2.5 0 0 1 782,543.2168 L782,202.7168 A2.5,2.5 0 0 1 784.5,200.2168 " fill="none" style="stroke:#000000;stroke-width:1.5;"/><line style="stroke:#000000;stroke-width:1.5;" x1="782" x2="1064" y1="229.498" y2="229.498"/><text fill="#000000" font-family="sans-serif" font-size="20" font-weight="bold" lengthAdjust="spacing" textLength="269" x="786" y="220.7813">«aggregate» Enrolment</text></g><!--cluster <<aggregate>> Student--><g id="cluster_&lt;&lt;aggregate&gt;&gt; Student"><path d="M8.5,7.2168 L250.5,7.2168 A3.75,3.75 0 0 1 253,9.7168 L260,36.498 L755.5,36.498 A2.5,2.5 0 0 1 758,38.998 L758,351.2168 A2.5,2.5 0 0 1 755.5,353.7168 L8.5,353.7168 A2.5,2.5 0 0 1 6,351.2168 L6,9.7168 A2.5,2.5 0 0 1 8.5,7.2168 " fill="none" style="stroke:#000000;stroke-width:1.5;"/><line style="stroke:#000000;stroke-width:1.5;" x1="6" x2="260" y1="36.498" y2="36.498"/><text fill="#000000" font-family="sans-serif" font-size="20" font-weight="bold" lengthAdjust="spacing" textLength="241" x="10" y="27.7813">«aggregate» Student</text></g><!--cluster <<aggregate>> Course--><g id="cluster_&lt;&lt;aggregate&gt;&gt; Course"><path d="M1093.5,227.2168 L1324.5,227.2168 A3.75,3.75 0 0 1 1327,229.7168 L1334,256.498 L1334.5,256.498 A2.5,2.5 0 0 1 1337,258.998 L1337,362.7168 A2.5,2.5 0 0 1 1334.5,365.2168 L1093.5,365.2168 A2.5,2.5 0 0 1 1091,362.7168 L1091,229.7168 A2.5,2.5 0 0 1 1093.5,227.2168 " fill="none" style="stroke:#000000;stroke-width:1.5;"/><line style="stroke:#000000;stroke-width:1.5;" x1="1091" x2="1334" y1="256.498" y2="256.498"/><text fill="#000000" font-family="sans-serif" font-size="20" font-weight="bold" lengthAdjust="spacing" textLength="230" x="1095" y="247.7813">«aggregate» Course</text></g><!--class Enrolment--><g id="elem_Enrolment"><rect codeLine="35" fill="#F5F5DC" height="134.4063" id="Enrolment" rx="2.5" ry="2.5" style="stroke:#181818;stroke-width:0.5;" width="139" x="818.5" y="242.2168"/><ellipse cx="834.5" cy="282.1387" fill="#ADD1B2" rx="12" ry="12" style="stroke:#181818;stroke-width:1.0;"/><path d="M839.2188,289.6387 L830.1406,289.6387 L830.1406,275.0605 L839.2188,275.0605 L839.2188,277.5918 L833.0156,277.5918 L833.0156,280.748 L838.6406,280.748 L838.6406,283.2793 L833.0156,283.2793 L833.0156,287.0918 L839.2188,287.0918 L839.2188,289.6387 Z " fill="#000000"/><text fill="#000000" font-family="sans-serif" font-size="20" font-style="italic" lengthAdjust="spacing" textLength="83" x="860.5" y="265.7813">«entity»</text><text fill="#000000" font-family="sans-serif" font-size="20" font-style="italic" lengthAdjust="spacing" textLength="64" x="870" y="289.0625">«root»</text><text fill="#000000" font-family="sans-serif" font-size="20" lengthAdjust="spacing" textLength="105" x="849.5" y="312.3438">Enrolment</text><line style="stroke:#181818;stroke-width:0.5;" x1="819.5" x2="956.5" y1="322.0605" y2="322.0605"/><text fill="#000000" font-family="sans-serif" font-size="20" lengthAdjust="spacing" textLength="105" x="824.5" y="344.625">-createdAt</text><text fill="#000000" font-family="sans-serif" font-size="20" lengthAdjust="spacing" textLength="113" x="824.5" y="367.9063">-updatedAt</text></g><!--class State--><g id="elem_State"><rect codeLine="56" fill="#F5F5DC" height="56.5625" id="State" rx="2.5" ry="2.5" style="stroke:#181818;stroke-width:0.5;" width="177" x="799.5" y="472.7168"/><ellipse cx="815.5" cy="500.998" fill="#FF8B40" rx="12" ry="12" style="stroke:#181818;stroke-width:1.0;"/><path d="M815.5156,506.8418 L818.0781,494.6699 L820.9844,494.6699 L817.5156,509.248 L813.5313,509.248 L810.0625,494.6699 L812.9531,494.6699 L815.5156,506.8418 Z " fill="#000000"/><text fill="#000000" font-family="sans-serif" font-size="20" font-style="italic" lengthAdjust="spacing" textLength="147" x="828.5" y="496.2813">«value object»</text><text fill="#000000" font-family="sans-serif" font-size="20" lengthAdjust="spacing" textLength="53" x="875.5" y="519.5625">State</text></g><!--class Student--><g id="elem_Student"><rect codeLine="45" fill="#F5F5DC" height="79.8438" id="Student" rx="2.5" ry="2.5" style="stroke:#181818;stroke-width:0.5;" width="114" x="415" y="49.2168"/><ellipse cx="431" cy="89.1387" fill="#ADD1B2" rx="12" ry="12" style="stroke:#181818;stroke-width:1.0;"/><path d="M435.7188,96.6387 L426.6406,96.6387 L426.6406,82.0605 L435.7188,82.0605 L435.7188,84.5918 L429.5156,84.5918 L429.5156,87.748 L435.1406,87.748 L435.1406,90.2793 L429.5156,90.2793 L429.5156,94.0918 L435.7188,94.0918 L435.7188,96.6387 Z " fill="#000000"/><text fill="#000000" font-family="sans-serif" font-size="20" font-style="italic" lengthAdjust="spacing" textLength="83" x="444.5" y="72.7813">«entity»</text><text fill="#000000" font-family="sans-serif" font-size="20" font-style="italic" lengthAdjust="spacing" textLength="64" x="454" y="96.0625">«root»</text><text fill="#000000" font-family="sans-serif" font-size="20" lengthAdjust="spacing" textLength="80" x="446" y="119.3438">Student</text></g><!--class BirthDate--><g id="elem_BirthDate"><rect codeLine="68" fill="#F5F5DC" height="56.5625" id="BirthDate" rx="2.5" ry="2.5" style="stroke:#181818;stroke-width:0.5;" width="177" x="21.5" y="280.7168"/><ellipse cx="37.5" cy="308.998" fill="#FF8B40" rx="12" ry="12" style="stroke:#181818;stroke-width:1.0;"/><path d="M37.5156,314.8418 L40.0781,302.6699 L42.9844,302.6699 L39.5156,317.248 L35.5313,317.248 L32.0625,302.6699 L34.9531,302.6699 L37.5156,314.8418 Z " fill="#000000"/><text fill="#000000" font-family="sans-serif" font-size="20" font-style="italic" lengthAdjust="spacing" textLength="147" x="50.5" y="304.2813">«value object»</text><text fill="#000000" font-family="sans-serif" font-size="20" lengthAdjust="spacing" textLength="96" x="76" y="327.5625">BirthDate</text></g><!--class TaxPayerNumber--><g id="elem_TaxPayerNumber"><rect codeLine="69" fill="#F5F5DC" height="56.5625" id="TaxPayerNumber" rx="2.5" ry="2.5" style="stroke:#181818;stroke-width:0.5;" width="205" x="233.5" y="280.7168"/><ellipse cx="249.5" cy="308.998" fill="#FF8B40" rx="12" ry="12" style="stroke:#181818;stroke-width:1.0;"/><path d="M249.5156,314.8418 L252.0781,302.6699 L254.9844,302.6699 L251.5156,317.248 L247.5313,317.248 L244.0625,302.6699 L246.9531,302.6699 L249.5156,314.8418 Z " fill="#000000"/><text fill="#000000" font-family="sans-serif" font-size="20" font-style="italic" lengthAdjust="spacing" textLength="147" x="276.5" y="304.2813">«value object»</text><text fill="#000000" font-family="sans-serif" font-size="20" lengthAdjust="spacing" textLength="171" x="264.5" y="327.5625">TaxPayerNumber</text></g><!--class MecanographicNumber--><g id="elem_MecanographicNumber"><rect codeLine="70" fill="#F5F5DC" height="56.5625" id="MecanographicNumber" rx="2.5" ry="2.5" style="stroke:#181818;stroke-width:0.5;" width="268" x="474" y="280.7168"/><ellipse cx="490" cy="308.998" fill="#FF8B40" rx="12" ry="12" style="stroke:#181818;stroke-width:1.0;"/><path d="M490.0156,314.8418 L492.5781,302.6699 L495.4844,302.6699 L492.0156,317.248 L488.0313,317.248 L484.5625,302.6699 L487.4531,302.6699 L490.0156,314.8418 Z " fill="#000000"/><text fill="#000000" font-family="sans-serif" font-size="20" font-style="italic" lengthAdjust="spacing" textLength="147" x="548.5" y="304.2813">«value object»</text><text fill="#000000" font-family="sans-serif" font-size="20" lengthAdjust="spacing" textLength="234" x="505" y="327.5625">MecanographicNumber</text></g><!--class Course--><g id="elem_Course"><rect codeLine="53" fill="#F5F5DC" height="79.8438" id="Course" rx="2.5" ry="2.5" style="stroke:#181818;stroke-width:0.5;" width="113" x="1107.5" y="269.2168"/><ellipse cx="1123.5" cy="309.1387" fill="#ADD1B2" rx="12" ry="12" style="stroke:#181818;stroke-width:1.0;"/><path d="M1128.2188,316.6387 L1119.1406,316.6387 L1119.1406,302.0605 L1128.2188,302.0605 L1128.2188,304.5918 L1122.0156,304.5918 L1122.0156,307.748 L1127.6406,307.748 L1127.6406,310.2793 L1122.0156,310.2793 L1122.0156,314.0918 L1128.2188,314.0918 L1128.2188,316.6387 Z " fill="#000000"/><text fill="#000000" font-family="sans-serif" font-size="20" font-style="italic" lengthAdjust="spacing" textLength="83" x="1136.5" y="292.7813">«entity»</text><text fill="#000000" font-family="sans-serif" font-size="20" font-style="italic" lengthAdjust="spacing" textLength="64" x="1146" y="316.0625">«root»</text><text fill="#000000" font-family="sans-serif" font-size="20" lengthAdjust="spacing" textLength="69" x="1143.5" y="339.3438">Course</text></g><g id="elem_GMN12"><path d="M636,461.2168 L636,541.0605 A0,0 0 0 0 636,541.0605 L764,541.0605 A0,0 0 0 0 764,541.0605 L764,505.2168 L799.06,501.2168 L764,497.2168 L764,471.2168 L754,461.2168 L636,461.2168 A0,0 0 0 0 636,461.2168 " fill="#FEFFDD" style="stroke:#181818;stroke-width:0.5;"/><path d="M754,461.2168 L754,471.2168 L764,471.2168 L754,461.2168 " fill="#FEFFDD" style="stroke:#181818;stroke-width:0.5;"/><text fill="#000000" font-family="sans-serif" font-size="20" lengthAdjust="spacing" textLength="92" x="642" y="484.7813">PENDING</text><text fill="#000000" font-family="sans-serif" font-size="20" lengthAdjust="spacing" textLength="107" x="642" y="508.0625">ACCEPTED</text><text fill="#000000" font-family="sans-serif" font-size="20" lengthAdjust="spacing" textLength="100" x="642" y="531.3438">REJECTED</text></g><!--link Enrolment to State--><g id="link_Enrolment_State"><path codeLine="63" d="M888,376.4068 C888,407.1968 888,442.4568 888,467.4468 " fill="none" id="Enrolment-to-State" style="stroke:#222222;stroke-width:1.0;"/><polygon fill="#222222" points="888,472.6268,892,463.6268,888,467.6268,884,463.6268,888,472.6268" style="stroke:#222222;stroke-width:1.0;"/><text fill="#000000" font-family="sans-serif" font-size="20" lengthAdjust="spacing" textLength="35" x="889" y="425.7813">has</text><text fill="#000000" font-family="sans-serif" font-size="20" lengthAdjust="spacing" textLength="13" x="873.6594" y="459.9968">1</text></g><!--link Student to Enrolment--><g id="link_Student_Enrolment"><path codeLine="65" d="M529,100.3568 C590.28,113.4368 688.27,140.8968 758,192.2168 C777.14,206.3068 796.77,222.6668 814.8,238.5868 " fill="none" id="Student-to-Enrolment" style="stroke:#222222;stroke-width:1.0;"/><polygon fill="#222222" points="818.86,242.1868,814.7929,233.2169,815.1237,238.8641,809.4766,239.1949,818.86,242.1868" style="stroke:#222222;stroke-width:1.0;"/><text fill="#000000" font-family="sans-serif" font-size="20" lengthAdjust="spacing" textLength="35" x="745" y="178.7813">has</text><text fill="#000000" font-family="sans-serif" font-size="20" lengthAdjust="spacing" textLength="35" x="775.6021" y="255.4526">0..*</text></g><!--link Enrolment to Course--><g id="link_Enrolment_Course"><path codeLine="66" d="M957.65,309.2168 C1002.15,309.2168 1059.34,309.2168 1102.22,309.2168 " fill="none" id="Enrolment-to-Course" style="stroke:#222222;stroke-width:1.0;"/><polygon fill="#222222" points="1107.38,309.2168,1098.38,305.2168,1102.38,309.2168,1098.38,313.2168,1107.38,309.2168" style="stroke:#222222;stroke-width:1.0;"/><text fill="#000000" font-family="sans-serif" font-size="20" lengthAdjust="spacing" textLength="49" x="1008" y="300.7813">is for</text><text fill="#000000" font-family="sans-serif" font-size="20" lengthAdjust="spacing" textLength="13" x="1086.6873" y="303.4063">1</text></g><!--link Student to BirthDate--><g id="link_Student_BirthDate"><path codeLine="72" d="M414.77,91.0368 C353.51,94.6968 256.34,108.8368 191,159.2168 C152.77,188.6868 130.29,241.5168 119.06,275.7068 " fill="none" id="Student-to-BirthDate" style="stroke:#222222;stroke-width:1.0;"/><polygon fill="#222222" points="117.49,280.6068,124.0515,273.2619,119.0196,275.8465,116.435,270.8146,117.49,280.6068" style="stroke:#222222;stroke-width:1.0;"/><text fill="#000000" font-family="sans-serif" font-size="20" lengthAdjust="spacing" textLength="167" x="192" y="178.7813">characterized by</text><text fill="#000000" font-family="sans-serif" font-size="20" lengthAdjust="spacing" textLength="13" x="104.6942" y="267.9727">1</text></g><!--link Student to TaxPayerNumber--><g id="link_Student_TaxPayerNumber"><path codeLine="73" d="M414.74,124.2468 C401.83,134.1468 389.23,145.9368 380,159.2168 C355.46,194.5368 344.42,243.6768 339.58,275.7068 " fill="none" id="Student-to-TaxPayerNumber" style="stroke:#222222;stroke-width:1.0;"/><polygon fill="#222222" points="338.86,280.6968,344.1027,272.3593,339.5731,275.7479,336.1845,271.2183,338.86,280.6968" style="stroke:#222222;stroke-width:1.0;"/><text fill="#000000" font-family="sans-serif" font-size="20" lengthAdjust="spacing" textLength="167" x="381" y="178.7813">characterized by</text><text fill="#000000" font-family="sans-serif" font-size="20" lengthAdjust="spacing" textLength="13" x="325.1093" y="268.0812">1</text></g><!--link Student to MecanographicNumber--><g id="link_Student_MecanographicNumber"><path codeLine="74" d="M526,129.3868 C535.92,138.3668 545.49,148.4668 553,159.2168 C578.09,195.1668 593.23,243.9368 601.1,275.7368 " fill="none" id="Student-to-MecanographicNumber" style="stroke:#222222;stroke-width:1.0;"/><polygon fill="#222222" points="602.3,280.6868,604.0849,271.001,601.131,275.8254,596.3066,272.8715,602.3,280.6868" style="stroke:#222222;stroke-width:1.0;"/><text fill="#000000" font-family="sans-serif" font-size="20" lengthAdjust="spacing" textLength="126" x="568" y="178.7813">identified by</text><text fill="#000000" font-family="sans-serif" font-size="20" lengthAdjust="spacing" textLength="13" x="586.7837" y="268.0692">1</text></g><!--SRC=[dLJBRjim4BppAnRAeMbHFnhqK1Y20LkMWnIeOTH1xnIvabXBf41IITqW_rxgOLbnRTY8JilPdTdT4IMp5RAWckQPOblam36cPMQNIjgD-8jmDoOVKciBCncDYenAM-RPaAbyn39gp80BcZWo8MQl0tLYPgqMKMdnWIbP2ur9AZW2veNT0TsdJH_DqQQAcsEjEMNRHAjIya1bIaE48i5UqKnhzToaRkxgXv32SMY2uFa-JHAD2RKudK8ejSfobDQ35mBW0k7wTYXv9UGO0zzl84VtVQsKTS5BLNccnyQM_BX3Yn67r2l1N6YRBXoXGnxfdpNTeLwLUOIwWtyWer8vZujKi3PtcBBLFJ_ZUute-cziDMIbTAKn00DW6XsBpsnzAWlUdjvdMg_vnNtFo0Ugr0RVg3TGNxn1pclt376Psr-VRvRBR_Eluu_mHBCIGKM_aTNLhqGgLvHXR475hOS0wt2rU5ZTksWM1E7wCLouy6VuFGog42M7YaR8mUB1O0hU5wzjEe6K6aBs9jJ9yN3uoUkzbAQcfz08jBjDG1Y8bTulqrt3YmkTkgHNaavSuOlCjqkw1GwJJe2bxhjd5hNxht28TlyL7urv1UFKZCwigaR4ek7y0m00]--></g></svg>