<?xml version="1.0" encoding="UTF-8" standalone="no"?><svg xmlns="http://www.w3.org/2000/svg" xmlns:xlink="http://www.w3.org/1999/xlink" contentStyleType="text/css" height="721px" preserveAspectRatio="none" style="width:1524px;height:721px;background:#FFFFFF;" version="1.1" viewBox="0 0 1524 721" width="1524px" zoomAndPan="magnify"><defs/><g><!--cluster <<aggregate>> Class--><g id="cluster_&lt;&lt;aggregate&gt;&gt; Class"><path d="M19.79,8.36 L205.79,8.36 A3.75,3.75 0 0 1 208.29,10.86 L215.29,41.6 L467.79,41.6 A2.5,2.5 0 0 1 470.29,44.1 L470.29,698.88 A2.5,2.5 0 0 1 467.79,701.38 L19.79,701.38 A2.5,2.5 0 0 1 17.29,698.88 L17.29,10.86 A2.5,2.5 0 0 1 19.79,8.36 " fill="none" style="stroke:#000000;stroke-width:1.5;"/><line style="stroke:#000000;stroke-width:1.5;" x1="17.29" x2="215.29" y1="41.6" y2="41.6"/><text fill="#000000" font-family="sans-serif" font-size="20" font-weight="bold" lengthAdjust="spacing" textLength="185" x="21.29" y="31.74">«aggregate» Class</text></g><!--cluster <<aggregate>> ExtraordinaryClass--><g id="cluster_&lt;&lt;aggregate&gt;&gt; ExtraordinaryClass"><path d="M1140.79,8.36 L1464.79,8.36 A3.75,3.75 0 0 1 1467.29,10.86 L1474.29,41.6 L1514.79,41.6 A2.5,2.5 0 0 1 1517.29,44.1 L1517.29,358.68 A2.5,2.5 0 0 1 1514.79,361.18 L1140.79,361.18 A2.5,2.5 0 0 1 1138.29,358.68 L1138.29,10.86 A2.5,2.5 0 0 1 1140.79,8.36 " fill="none" style="stroke:#000000;stroke-width:1.5;"/><line style="stroke:#000000;stroke-width:1.5;" x1="1138.29" x2="1474.29" y1="41.6" y2="41.6"/><text fill="#000000" font-family="sans-serif" font-size="20" font-weight="bold" lengthAdjust="spacing" textLength="323" x="1142.29" y="31.74">«aggregate» ExtraordinaryClass</text></g><!--cluster <<aggregate>> Course--><g id="cluster_&lt;&lt;aggregate&gt;&gt; Course"><path d="M563.79,221.08 L767.79,221.08 A3.75,3.75 0 0 1 770.29,223.58 L777.29,254.32 L777.79,254.32 A2.5,2.5 0 0 1 780.29,256.82 L780.29,372.3 A2.5,2.5 0 0 1 777.79,374.8 L563.79,374.8 A2.5,2.5 0 0 1 561.29,372.3 L561.29,223.58 A2.5,2.5 0 0 1 563.79,221.08 " fill="none" style="stroke:#000000;stroke-width:1.5;"/><line style="stroke:#000000;stroke-width:1.5;" x1="561.29" x2="777.29" y1="254.32" y2="254.32"/><text fill="#000000" font-family="sans-serif" font-size="20" font-weight="bold" lengthAdjust="spacing" textLength="203" x="565.29" y="244.46">«aggregate» Course</text></g><!--cluster <<aggregate>> Teacher--><g id="cluster_&lt;&lt;aggregate&gt;&gt; Teacher"><path d="M617.79,561.28 L832.79,561.28 A3.75,3.75 0 0 1 835.29,563.78 L842.29,594.52 L842.79,594.52 A2.5,2.5 0 0 1 845.29,597.02 L845.29,712.5 A2.5,2.5 0 0 1 842.79,715 L617.79,715 A2.5,2.5 0 0 1 615.29,712.5 L615.29,563.78 A2.5,2.5 0 0 1 617.79,561.28 " fill="none" style="stroke:#000000;stroke-width:1.5;"/><line style="stroke:#000000;stroke-width:1.5;" x1="615.29" x2="842.29" y1="594.52" y2="594.52"/><text fill="#000000" font-family="sans-serif" font-size="20" font-weight="bold" lengthAdjust="spacing" textLength="214" x="619.29" y="584.66">«aggregate» Teacher</text></g><!--cluster <<aggregate>> Student--><g id="cluster_&lt;&lt;aggregate&gt;&gt; Student"><path d="M886.79,221.08 L1101.79,221.08 A3.75,3.75 0 0 1 1104.29,223.58 L1111.29,254.32 L1111.79,254.32 A2.5,2.5 0 0 1 1114.29,256.82 L1114.29,372.3 A2.5,2.5 0 0 1 1111.79,374.8 L886.79,374.8 A2.5,2.5 0 0 1 884.29,372.3 L884.29,223.58 A2.5,2.5 0 0 1 886.79,221.08 " fill="none" style="stroke:#000000;stroke-width:1.5;"/><line style="stroke:#000000;stroke-width:1.5;" x1="884.29" x2="1111.29" y1="254.32" y2="254.32"/><text fill="#000000" font-family="sans-serif" font-size="20" font-weight="bold" lengthAdjust="spacing" textLength="214" x="888.29" y="244.46">«aggregate» Student</text></g><!--class Class--><g id="elem_Class"><rect codeLine="24" fill="#F5F5DC" height="91.7199" id="Class" rx="2.5" ry="2.5" style="stroke:#181818;stroke-width:0.5;" width="100" x="337.29" y="54.36"/><ellipse cx="353.29" cy="100.22" fill="#ADD1B2" rx="12" ry="12" style="stroke:#181818;stroke-width:1.0;"/><path d="M348.3838,107.22 L348.3838,92.9387 L357.3838,92.9387 L357.3838,95.4387 L351.1963,95.4387 L351.1963,98.5637 L357.0869,98.5637 L357.0869,101.0637 L351.1963,101.0637 L351.1963,104.72 L357.3838,104.72 L357.3838,107.22 L348.3838,107.22 Z " fill="#000000"/><text fill="#000000" font-family="sans-serif" font-size="20" font-style="italic" lengthAdjust="spacing" textLength="70" x="366.29" y="80.74">«entity»</text><text fill="#000000" font-family="sans-serif" font-size="20" font-style="italic" lengthAdjust="spacing" textLength="57" x="372.79" y="107.9799">«root»</text><text fill="#000000" font-family="sans-serif" font-size="20" lengthAdjust="spacing" textLength="49" x="376.79" y="135.2199">Class</text></g><!--class SpecialClass--><g id="elem_SpecialClass"><rect codeLine="18" fill="#F5F5DC" height="64.4799" id="SpecialClass" rx="2.5" ry="2.5" style="stroke:#181818;stroke-width:0.5;" width="148" x="132.29" y="390.8"/><ellipse cx="148.29" cy="423.04" fill="#ADD1B2" rx="12" ry="12" style="stroke:#181818;stroke-width:1.0;"/><path d="M143.3838,430.04 L143.3838,415.7587 L152.3838,415.7587 L152.3838,418.2587 L146.1963,418.2587 L146.1963,421.3837 L152.0869,421.3837 L152.0869,423.8837 L146.1963,423.8837 L146.1963,427.54 L152.3838,427.54 L152.3838,430.04 L143.3838,430.04 Z " fill="#000000"/><text fill="#000000" font-family="sans-serif" font-size="20" font-style="italic" lengthAdjust="spacing" textLength="70" x="185.29" y="417.18">«entity»</text><text fill="#000000" font-family="sans-serif" font-size="20" lengthAdjust="spacing" textLength="114" x="163.29" y="444.4199">SpecialClass</text></g><!--class Duration--><g id="elem_Duration"><rect codeLine="21" fill="#F5F5DC" height="64.4799" id="Duration" rx="2.5" ry="2.5" style="stroke:#181818;stroke-width:0.5;" width="156" x="70.29" y="280.7"/><ellipse cx="86.29" cy="312.94" fill="#FF8B40" rx="12" ry="12" style="stroke:#181818;stroke-width:1.0;"/><path d="M84.665,320.94 L80.4931,306.6587 L83.415,306.6587 L85.5869,315.1431 Q85.6963,315.4556 85.8213,316.065 Q85.9463,316.6587 86.0713,317.2837 Q86.1963,317.8931 86.2431,318.3462 L86.4306,318.3462 Q86.4931,317.8931 86.6025,317.2837 Q86.7119,316.6743 86.8213,316.0962 Q86.9463,315.5025 87.0244,315.1431 L89.1338,306.6587 L92.0869,306.6587 L87.915,320.94 L84.665,320.94 Z " fill="#000000"/><text fill="#000000" font-family="sans-serif" font-size="20" font-style="italic" lengthAdjust="spacing" textLength="126" x="99.29" y="307.08">«value object»</text><text fill="#000000" font-family="sans-serif" font-size="20" lengthAdjust="spacing" textLength="82" x="121.29" y="334.3199">Duration</text></g><!--class DayInWeek--><g id="elem_DayInWeek"><rect codeLine="22" fill="#F5F5DC" height="64.4799" id="DayInWeek" rx="2.5" ry="2.5" style="stroke:#181818;stroke-width:0.5;" width="156" x="261.29" y="280.7"/><ellipse cx="277.29" cy="312.94" fill="#FF8B40" rx="12" ry="12" style="stroke:#181818;stroke-width:1.0;"/><path d="M275.665,320.94 L271.4931,306.6587 L274.415,306.6587 L276.5869,315.1431 Q276.6963,315.4556 276.8213,316.065 Q276.9463,316.6587 277.0713,317.2837 Q277.1963,317.8931 277.2431,318.3462 L277.4306,318.3462 Q277.4931,317.8931 277.6025,317.2837 Q277.7119,316.6743 277.8213,316.0962 Q277.9463,315.5025 278.0244,315.1431 L280.1338,306.6587 L283.0869,306.6587 L278.915,320.94 L275.665,320.94 Z " fill="#000000"/><text fill="#000000" font-family="sans-serif" font-size="20" font-style="italic" lengthAdjust="spacing" textLength="126" x="290.29" y="307.08">«value object»</text><text fill="#000000" font-family="sans-serif" font-size="20" lengthAdjust="spacing" textLength="107" x="299.79" y="334.3199">DayInWeek</text></g><!--class Hours--><g id="elem_Hours"><rect codeLine="34" fill="#F5F5DC" height="64.4799" id="Hours" rx="2.5" ry="2.5" style="stroke:#181818;stroke-width:0.5;" width="156" x="213.29" y="620.9"/><ellipse cx="229.29" cy="653.14" fill="#FF8B40" rx="12" ry="12" style="stroke:#181818;stroke-width:1.0;"/><path d="M227.665,661.14 L223.4931,646.8587 L226.415,646.8587 L228.5869,655.3431 Q228.6963,655.6556 228.8213,656.265 Q228.9463,656.8587 229.0713,657.4837 Q229.1963,658.0931 229.2431,658.5462 L229.4306,658.5462 Q229.4931,658.0931 229.6025,657.4837 Q229.7119,656.8743 229.8213,656.2962 Q229.9463,655.7025 230.0244,655.3431 L232.1338,646.8587 L235.0869,646.8587 L230.915,661.14 L227.665,661.14 Z " fill="#000000"/><text fill="#000000" font-family="sans-serif" font-size="20" font-style="italic" lengthAdjust="spacing" textLength="126" x="242.29" y="647.28">«value object»</text><text fill="#000000" font-family="sans-serif" font-size="20" lengthAdjust="spacing" textLength="57" x="276.79" y="674.5199">Hours</text></g><!--class ExtraordinaryClass--><g id="elem_ExtraordinaryClass"><rect codeLine="38" fill="#F5F5DC" height="91.7199" id="ExtraordinaryClass" rx="2.5" ry="2.5" style="stroke:#181818;stroke-width:0.5;" width="209" x="1154.79" y="54.36"/><ellipse cx="1170.79" cy="100.22" fill="#ADD1B2" rx="12" ry="12" style="stroke:#181818;stroke-width:1.0;"/><path d="M1165.8838,107.22 L1165.8838,92.9387 L1174.8838,92.9387 L1174.8838,95.4387 L1168.6963,95.4387 L1168.6963,98.5637 L1174.5869,98.5637 L1174.5869,101.0637 L1168.6963,101.0637 L1168.6963,104.72 L1174.8838,104.72 L1174.8838,107.22 L1165.8838,107.22 Z " fill="#000000"/><text fill="#000000" font-family="sans-serif" font-size="20" font-style="italic" lengthAdjust="spacing" textLength="70" x="1238.29" y="80.74">«entity»</text><text fill="#000000" font-family="sans-serif" font-size="20" font-style="italic" lengthAdjust="spacing" textLength="57" x="1244.79" y="107.9799">«root»</text><text fill="#000000" font-family="sans-serif" font-size="20" lengthAdjust="spacing" textLength="175" x="1185.79" y="135.2199">ExtraordinaryClass</text></g><!--class Time--><g id="elem_Time"><rect codeLine="35" fill="#F5F5DC" height="64.4799" id="Time" rx="2.5" ry="2.5" style="stroke:#181818;stroke-width:0.5;" width="156" x="1154.29" y="280.7"/><ellipse cx="1170.29" cy="312.94" fill="#FF8B40" rx="12" ry="12" style="stroke:#181818;stroke-width:1.0;"/><path d="M1168.665,320.94 L1164.4931,306.6587 L1167.415,306.6587 L1169.5869,315.1431 Q1169.6963,315.4556 1169.8213,316.065 Q1169.9463,316.6587 1170.0713,317.2837 Q1170.1963,317.8931 1170.2431,318.3462 L1170.4306,318.3462 Q1170.4931,317.8931 1170.6025,317.2837 Q1170.7119,316.6743 1170.8213,316.0962 Q1170.9463,315.5025 1171.0244,315.1431 L1173.1338,306.6587 L1176.0869,306.6587 L1171.915,320.94 L1168.665,320.94 Z " fill="#000000"/><text fill="#000000" font-family="sans-serif" font-size="20" font-style="italic" lengthAdjust="spacing" textLength="126" x="1183.29" y="307.08">«value object»</text><text fill="#000000" font-family="sans-serif" font-size="20" lengthAdjust="spacing" textLength="46" x="1223.29" y="334.3199">Time</text></g><!--class Duration‎--><g id="elem_Duration‎"><rect codeLine="36" fill="#F5F5DC" height="64.4799" id="Duration‎" rx="2.5" ry="2.5" style="stroke:#181818;stroke-width:0.5;" width="156" x="1345.29" y="280.7"/><ellipse cx="1361.29" cy="312.94" fill="#FF8B40" rx="12" ry="12" style="stroke:#181818;stroke-width:1.0;"/><path d="M1359.665,320.94 L1355.4931,306.6587 L1358.415,306.6587 L1360.5869,315.1431 Q1360.6963,315.4556 1360.8213,316.065 Q1360.9463,316.6587 1361.0713,317.2837 Q1361.1963,317.8931 1361.2431,318.3462 L1361.4306,318.3462 Q1361.4931,317.8931 1361.6025,317.2837 Q1361.7119,316.6743 1361.8213,316.0962 Q1361.9463,315.5025 1362.0244,315.1431 L1364.1338,306.6587 L1367.0869,306.6587 L1362.915,320.94 L1359.665,320.94 Z " fill="#000000"/><text fill="#000000" font-family="sans-serif" font-size="20" font-style="italic" lengthAdjust="spacing" textLength="126" x="1374.29" y="307.08">«value object»</text><text fill="#000000" font-family="sans-serif" font-size="20" lengthAdjust="spacing" textLength="82" x="1396.29" y="334.3199">Duration‎</text></g><!--class Course--><g id="elem_Course"><rect codeLine="45" fill="#F5F5DC" height="91.7199" id="Course" rx="2.5" ry="2.5" style="stroke:#181818;stroke-width:0.5;" width="100" x="647.29" y="267.08"/><ellipse cx="663.29" cy="312.94" fill="#ADD1B2" rx="12" ry="12" style="stroke:#181818;stroke-width:1.0;"/><path d="M658.3838,319.94 L658.3838,305.6587 L667.3838,305.6587 L667.3838,308.1587 L661.1963,308.1587 L661.1963,311.2837 L667.0869,311.2837 L667.0869,313.7837 L661.1963,313.7837 L661.1963,317.44 L667.3838,317.44 L667.3838,319.94 L658.3838,319.94 Z " fill="#000000"/><text fill="#000000" font-family="sans-serif" font-size="20" font-style="italic" lengthAdjust="spacing" textLength="70" x="676.29" y="293.46">«entity»</text><text fill="#000000" font-family="sans-serif" font-size="20" font-style="italic" lengthAdjust="spacing" textLength="57" x="682.79" y="320.6999">«root»</text><text fill="#000000" font-family="sans-serif" font-size="20" lengthAdjust="spacing" textLength="66" x="678.29" y="347.9399">Course</text></g><!--class Teacher--><g id="elem_Teacher"><rect codeLine="52" fill="#F5F5DC" height="91.7199" id="Teacher" rx="2.5" ry="2.5" style="stroke:#181818;stroke-width:0.5;" width="108" x="676.29" y="607.28"/><ellipse cx="692.29" cy="653.14" fill="#ADD1B2" rx="12" ry="12" style="stroke:#181818;stroke-width:1.0;"/><path d="M687.3838,660.14 L687.3838,645.8587 L696.3838,645.8587 L696.3838,648.3587 L690.1963,648.3587 L690.1963,651.4837 L696.0869,651.4837 L696.0869,653.9837 L690.1963,653.9837 L690.1963,657.64 L696.3838,657.64 L696.3838,660.14 L687.3838,660.14 Z " fill="#000000"/><text fill="#000000" font-family="sans-serif" font-size="20" font-style="italic" lengthAdjust="spacing" textLength="70" x="709.29" y="633.66">«entity»</text><text fill="#000000" font-family="sans-serif" font-size="20" font-style="italic" lengthAdjust="spacing" textLength="57" x="715.79" y="660.8999">«root»</text><text fill="#000000" font-family="sans-serif" font-size="20" lengthAdjust="spacing" textLength="74" x="707.29" y="688.1399">Teacher</text></g><!--class Student--><g id="elem_Student"><rect codeLine="59" fill="#F5F5DC" height="91.7199" id="Student" rx="2.5" ry="2.5" style="stroke:#181818;stroke-width:0.5;" width="106" x="992.29" y="267.08"/><ellipse cx="1008.29" cy="312.94" fill="#ADD1B2" rx="12" ry="12" style="stroke:#181818;stroke-width:1.0;"/><path d="M1003.3838,319.94 L1003.3838,305.6587 L1012.3838,305.6587 L1012.3838,308.1587 L1006.1963,308.1587 L1006.1963,311.2837 L1012.0869,311.2837 L1012.0869,313.7837 L1006.1963,313.7837 L1006.1963,317.44 L1012.3838,317.44 L1012.3838,319.94 L1003.3838,319.94 Z " fill="#000000"/><text fill="#000000" font-family="sans-serif" font-size="20" font-style="italic" lengthAdjust="spacing" textLength="70" x="1024.29" y="293.46">«entity»</text><text fill="#000000" font-family="sans-serif" font-size="20" font-style="italic" lengthAdjust="spacing" textLength="57" x="1030.79" y="320.6999">«root»</text><text fill="#000000" font-family="sans-serif" font-size="20" lengthAdjust="spacing" textLength="72" x="1023.29" y="347.9399">Student</text></g><!--link Class to Course--><g id="link_Class_Course"><path codeLine="62" d="M437.79,125.58 C464.75,139.28 498.09,157.36 526.29,176.08 C543.41,187.44 546.24,192.26 562.29,205.08 C588.57,226.06 617.82,249.24 642.36,268.63 " fill="none" id="Class-to-Course" style="stroke:#222222;stroke-width:1.0;"/><polygon fill="#222222" points="645.88,272.21,641.2926,263.4947,641.9549,269.1127,636.3369,269.775,645.88,272.21" style="stroke:#222222;stroke-width:1.0;"/><text fill="#000000" font-family="sans-serif" font-size="20" lengthAdjust="spacing" textLength="109" x="563.29" y="198.46">is related to</text><text fill="#000000" font-family="sans-serif" font-size="20" lengthAdjust="spacing" textLength="11" x="628.3671" y="289.9471">1</text></g><!--link Class to Teacher--><g id="link_Class_Teacher"><path codeLine="63" d="M418.66,146.51 C425.23,156.21 432.06,166.44 438.29,176.08 C537.42,329.34 648.65,514.63 700.59,601.96 " fill="none" id="Class-to-Teacher" style="stroke:#222222;stroke-width:1.0;"/><polygon fill="#222222" points="703.62,606.06,702.4578,596.2799,701.0643,601.7625,695.5818,600.369,703.62,606.06" style="stroke:#222222;stroke-width:1.0;"/><text fill="#000000" font-family="sans-serif" font-size="20" lengthAdjust="spacing" textLength="122" x="612.29" y="430.92">scheduled by</text><text fill="#000000" font-family="sans-serif" font-size="20" lengthAdjust="spacing" textLength="11" x="688.2972" y="593.45">1</text></g><!--link Class to Hours--><g id="link_Class_Hours"><path codeLine="64" d="M411.63,146.38 C421,166.24 430.59,190.21 435.29,213.08 C450.47,286.97 459.14,311.24 435.29,382.8 C433.88,387.02 431.67,387.05 429.29,390.8 C380.45,467.9 332.85,564.04 308.35,615.53 " fill="none" id="Class-to-Hours" style="stroke:#222222;stroke-width:1.0;"/><polygon fill="#222222" points="305.91,619.68,313.383,613.2648,308.0541,615.1631,306.1559,609.8342,305.91,619.68" style="stroke:#222222;stroke-width:1.0;"/><text fill="#000000" font-family="sans-serif" font-size="20" lengthAdjust="spacing" textLength="33" x="430.29" y="430.92">has</text><text fill="#000000" font-family="sans-serif" font-size="20" lengthAdjust="spacing" textLength="11" x="296.4775" y="607.1812">1</text></g><!--link ExtraordinaryClass to Teacher--><g id="link_ExtraordinaryClass_Teacher"><path codeLine="66" d="M1154.62,124.17 C1096.85,141.05 1026.81,168.93 976.29,213.08 C851.28,322.34 776.31,511.31 745.98,601.45 " fill="none" id="ExtraordinaryClass-to-Teacher" style="stroke:#222222;stroke-width:1.0;"/><polygon fill="#222222" points="744.13,605.98,750.7774,598.7128,745.7154,601.238,743.1902,596.1761,744.13,605.98" style="stroke:#222222;stroke-width:1.0;"/><text fill="#000000" font-family="sans-serif" font-size="20" lengthAdjust="spacing" textLength="122" x="839.29" y="430.92">scheduled by</text><text fill="#000000" font-family="sans-serif" font-size="20" lengthAdjust="spacing" textLength="11" x="734.2507" y="593.3593">1</text></g><!--link ExtraordinaryClass to Student--><g id="link_ExtraordinaryClass_Student"><path codeLine="67" d="M1208.81,146.44 C1186.82,166.51 1160.94,190.62 1138.29,213.08 C1122.25,228.99 1105.17,246.84 1090.1,262.96 " fill="none" id="ExtraordinaryClass-to-Student" style="stroke:#222222;stroke-width:1.0;"/><polygon fill="#222222" points="1087.31,266.02,1096.3756,262.171,1090.7221,262.3652,1090.5279,256.7117,1087.31,266.02" style="stroke:#222222;stroke-width:1.0;"/><text fill="#000000" font-family="sans-serif" font-size="20" lengthAdjust="spacing" textLength="33" x="1174.29" y="198.46">has</text><text fill="#000000" font-family="sans-serif" font-size="20" lengthAdjust="spacing" textLength="32" x="1094.3284" y="253.0609">1..*</text></g><!--link ExtraordinaryClass to Course--><g id="link_ExtraordinaryClass_Course"><path codeLine="68" d="M1154.43,100.91 C1013.26,102.87 772.89,115.34 713.29,176.08 C691.77,198.01 687.92,232.48 689.37,261.2 " fill="none" id="ExtraordinaryClass-to-Course" style="stroke:#222222;stroke-width:1.0;"/><polygon fill="#222222" points="689.72,265.87,693.1475,256.6368,689.4063,260.8798,685.1633,257.1387,689.72,265.87" style="stroke:#222222;stroke-width:1.0;"/><text fill="#000000" font-family="sans-serif" font-size="20" lengthAdjust="spacing" textLength="109" x="714.29" y="198.46">is related to</text><text fill="#000000" font-family="sans-serif" font-size="20" lengthAdjust="spacing" textLength="11" x="676.9637" y="253.2614">1</text></g><!--link Class to SpecialClass--><g id="link_Class_SpecialClass"><path codeLine="70" d="M336.79,101.12 C260.49,104.04 117.79,122.16 52.29,213.08 C8.2,274.28 6,323.24 52.29,382.8 C62.01,395.31 94.01,404.49 126.34,410.82 " fill="none" id="Class-to-SpecialClass" style="stroke:#222222;stroke-width:1.0;"/><polygon fill="#222222" points="130.95,411.89,122.8492,406.2885,126.0369,410.9617,121.3638,414.1494,130.95,411.89" style="stroke:#222222;stroke-width:1.0;"/><text fill="#000000" font-family="sans-serif" font-size="20" lengthAdjust="spacing" textLength="33" x="85.29" y="198.46">has</text><text fill="#000000" font-family="sans-serif" font-size="20" lengthAdjust="spacing" textLength="32" x="92.1864" y="404.1619">0..*</text></g><!--link Class to DayInWeek--><g id="link_Class_DayInWeek"><path codeLine="71" d="M376.99,146.42 C368.26,184.76 355.89,239.09 347.73,274.9 " fill="none" id="Class-to-DayInWeek" style="stroke:#222222;stroke-width:1.0;"/><polygon fill="#222222" points="346.46,279.48,352.3441,271.5821,347.5613,274.6028,344.5406,269.82,346.46,279.48" style="stroke:#222222;stroke-width:1.0;"/><text fill="#000000" font-family="sans-serif" font-size="20" lengthAdjust="spacing" textLength="33" x="370.29" y="198.46">has</text><text fill="#000000" font-family="sans-serif" font-size="20" lengthAdjust="spacing" textLength="11" x="335.747" y="266.9812">1</text></g><!--link Class to Duration--><g id="link_Class_Duration"><path codeLine="72" d="M336.87,137.57 C308.56,158.66 273.05,186.29 243.29,213.08 C221.25,232.92 198.16,256.86 180.27,276.21 " fill="none" id="Class-to-Duration" style="stroke:#222222;stroke-width:1.0;"/><polygon fill="#222222" points="177.3,279.52,186.3418,275.6155,180.6896,275.8443,180.4608,270.1921,177.3,279.52" style="stroke:#222222;stroke-width:1.0;"/><text fill="#000000" font-family="sans-serif" font-size="20" lengthAdjust="spacing" textLength="33" x="287.29" y="198.46">has</text><text fill="#000000" font-family="sans-serif" font-size="20" lengthAdjust="spacing" textLength="11" x="169.3096" y="266.7419">1</text></g><!--link SpecialClass to Hours--><g id="link_SpecialClass_Hours"><path codeLine="73" d="M218.11,455.76 C233.68,497.55 261.02,570.92 277.52,615.18 " fill="none" id="SpecialClass-to-Hours" style="stroke:#222222;stroke-width:1.0;"/><polygon fill="#222222" points="279.57,619.69,280.1815,609.8601,277.8269,615.0037,272.6834,612.6491,279.57,619.69" style="stroke:#222222;stroke-width:1.0;"/><text fill="#000000" font-family="sans-serif" font-size="20" lengthAdjust="spacing" textLength="33" x="241.29" y="507.66">has</text><text fill="#000000" font-family="sans-serif" font-size="20" lengthAdjust="spacing" textLength="11" x="265.5027" y="606.9065">1</text></g><!--link ExtraordinaryClass to Time--><g id="link_ExtraordinaryClass_Time"><path codeLine="75" d="M1253.5,146.42 C1248.59,184.76 1241.62,239.09 1237.04,274.9 " fill="none" id="ExtraordinaryClass-to-Time" style="stroke:#222222;stroke-width:1.0;"/><polygon fill="#222222" points="1236.32,279.48,1241.4204,271.0547,1236.949,274.5197,1233.4839,270.0483,1236.32,279.48" style="stroke:#222222;stroke-width:1.0;"/><text fill="#000000" font-family="sans-serif" font-size="20" lengthAdjust="spacing" textLength="33" x="1249.29" y="198.46">has</text><text fill="#000000" font-family="sans-serif" font-size="20" lengthAdjust="spacing" textLength="11" x="1225.0673" y="266.9812">1</text></g><!--link ExtraordinaryClass to Duration‎--><g id="link_ExtraordinaryClass_Duration‎"><path codeLine="76" d="M1294.47,146.42 C1324.56,185.08 1367.29,239.98 1395.15,275.78 " fill="none" id="ExtraordinaryClass-to-Duration‎" style="stroke:#222222;stroke-width:1.0;"/><polygon fill="#222222" points="1398.81,279.48,1396.4515,269.9177,1395.7442,275.5302,1390.1318,274.8229,1398.81,279.48" style="stroke:#222222;stroke-width:1.0;"/><text fill="#000000" font-family="sans-serif" font-size="20" lengthAdjust="spacing" textLength="33" x="1337.29" y="198.46">has</text><text fill="#000000" font-family="sans-serif" font-size="20" lengthAdjust="spacing" textLength="11" x="1382.6572" y="266.9812">1</text></g><!--SRC=[dLJRZjCm47ttLuoo3rn4BwnuG5LKQRTGiSzTmVCq7X9Jnuvi1oWh9Bw0Z-HBSEAcTJSjtT2Ng6VE7Cyv6STkXAhGO2brjY4Ed3vZBTrIAxSIFmYkf-nPuLnbPvD99L6vkfJZJ9UJJAAr8oumzysCsKu7siADSqQiQqTtcLQjq9GLWXDGMRajO5UsCLgIApItZxLkCTlaHjUABxJK1jOaSef8DyReRw5qTTt-6Ajy3-O4IPfYdXlAqT5y3ej6Bu471a3A2NzcYx33_rL5cK0PO0W3mBlQe1DQ7G3StgbFH9izya7NnhAVZ9tGWJGDg9_WmLEY3bzw_l7LrNBvzlRDz0LyHLaJwFKNobmW7m_mL7ettaK-YsE8vqnJetLBQaoTYVFzTsTG6ouKccq_stwPxVEw5oNryltpwpVxhtmQjO5H-hEUd4xVoE2e5eqR2l4Sbgy5ewq9m63nUyAi87CK_WwBn7V8OFMLgxdlU3Jx3erNFY3dzKDoez4SajT9vtK6me8XwS_YuFIUrD6wgMTW_PFNqjFMsnujRCiC2lHBTk9zNP0xsp4UlqpspeByFzJFU8gTJuDY_7a8iiTAXojyijfz3qBnI6re8abpUPBBtfBevdJqlm00]--></g></svg>