<?xml version="1.0" encoding="UTF-8" standalone="no"?><svg xmlns="http://www.w3.org/2000/svg" xmlns:xlink="http://www.w3.org/1999/xlink" contentStyleType="text/css" height="1394px" preserveAspectRatio="none" style="width:2596px;height:1394px;background:#FFFFFF;" version="1.1" viewBox="0 0 2596 1394" width="2596px" zoomAndPan="magnify"><defs/><g><!--class RepositoryFactory--><g id="elem_RepositoryFactory"><rect codeLine="2" fill="#F1F1F1" height="80.4799" id="RepositoryFactory" rx="2.5" ry="2.5" style="stroke:#181818;stroke-width:0.5;" width="206" x="1578" y="822.5"/><ellipse cx="1596.25" cy="841.12" fill="#ADD1B2" rx="12" ry="12" style="stroke:#181818;stroke-width:1.0;"/><path d="M1596.375,835.7137 Q1595.2969,835.7137 1594.4375,836.0887 Q1593.5781,836.4481 1592.9844,837.1512 Q1592.3906,837.8387 1592.0625,838.8544 Q1591.75,839.87 1591.75,841.1669 Q1591.75,842.87 1592.2656,844.1044 Q1592.7813,845.3231 1593.7969,845.9794 Q1594.8125,846.62 1596.3594,846.62 Q1597.2656,846.62 1598.0781,846.4637 Q1598.8906,846.3075 1600.0781,845.9481 L1600.0781,848.1512 Q1599.0469,848.5262 1598.1719,848.6669 Q1597.2969,848.8231 1596.0938,848.8231 Q1593.8125,848.8231 1592.2813,847.8856 Q1590.75,846.9325 1589.9844,845.1981 Q1589.2188,843.4481 1589.2188,841.1512 Q1589.2188,839.4794 1589.6875,838.0887 Q1590.1563,836.6981 1591.0625,835.6669 Q1591.9844,834.62 1593.3281,834.0731 Q1594.6719,833.5106 1596.3906,833.5106 Q1597.5313,833.5106 1598.5781,833.745 Q1599.6406,833.9637 1600.7344,834.5262 L1599.7656,836.5887 Q1598.8438,836.1825 1598.0625,835.9481 Q1597.2813,835.7137 1596.375,835.7137 Z " fill="#000000"/><text fill="#000000" font-family="sans-serif" font-size="20" lengthAdjust="spacing" textLength="167" x="1611.75" y="848.88">RepositoryFactory</text><line style="stroke:#181818;stroke-width:0.5;" x1="1579" x2="1783" y1="859.74" y2="859.74"/><line style="stroke:#181818;stroke-width:0.5;" x1="1579" x2="1783" y1="867.74" y2="867.74"/><ellipse cx="1589" cy="886.86" fill="#84BE84" rx="3" ry="3" style="stroke:#038048;stroke-width:1.0;"/><text fill="#000000" font-family="sans-serif" font-size="20" lengthAdjust="spacing" textLength="179" x="1599" y="893.12">RepositoryFactory()</text></g><!--class CourseRepository--><g id="elem_CourseRepository"><rect codeLine="6" fill="#F1F1F1" height="107.7199" id="CourseRepository" rx="2.5" ry="2.5" style="stroke:#181818;stroke-width:0.5;" width="330" x="2014" y="1085"/><ellipse cx="2097" cy="1103.62" fill="#B4A7E5" rx="12" ry="12" style="stroke:#181818;stroke-width:1.0;"/><path d="M2099.5781,1111.12 L2093.7969,1111.12 L2093.7969,1109.5106 L2095.4844,1109.1356 L2095.4844,1098.2137 L2093.7969,1097.8231 L2093.7969,1096.2137 L2099.5781,1096.2137 L2099.5781,1097.8231 L2097.9063,1098.2137 L2097.9063,1109.1356 L2099.5781,1109.5106 L2099.5781,1111.12 Z " fill="#000000"/><text fill="#000000" font-family="sans-serif" font-size="20" font-style="italic" lengthAdjust="spacing" textLength="155" x="2119" y="1111.38">CourseRepository</text><line style="stroke:#181818;stroke-width:0.5;" x1="2015" x2="2343" y1="1122.24" y2="1122.24"/><line style="stroke:#181818;stroke-width:0.5;" x1="2015" x2="2343" y1="1130.24" y2="1130.24"/><text fill="#000000" font-family="sans-serif" font-size="20" font-style="italic" lengthAdjust="spacing" textLength="159" x="2020" y="1155.62">findAllNotClosed()</text><text fill="#000000" font-family="sans-serif" font-size="20" font-style="italic" lengthAdjust="spacing" textLength="318" x="2020" y="1182.8599">findAllScheduledByTeacher(teacher)</text></g><!--class InMemoryCourseRepository--><g id="elem_InMemoryCourseRepository"><rect codeLine="11" fill="#F1F1F1" height="107.7199" id="InMemoryCourseRepository" rx="2.5" ry="2.5" style="stroke:#181818;stroke-width:0.5;" width="296" x="2031" y="1280"/><ellipse cx="2047" cy="1298.62" fill="#ADD1B2" rx="12" ry="12" style="stroke:#181818;stroke-width:1.0;"/><path d="M2047.125,1293.2137 Q2046.0469,1293.2137 2045.1875,1293.5887 Q2044.3281,1293.9481 2043.7344,1294.6512 Q2043.1406,1295.3387 2042.8125,1296.3544 Q2042.5,1297.37 2042.5,1298.6669 Q2042.5,1300.37 2043.0156,1301.6044 Q2043.5313,1302.8231 2044.5469,1303.4794 Q2045.5625,1304.12 2047.1094,1304.12 Q2048.0156,1304.12 2048.8281,1303.9637 Q2049.6406,1303.8075 2050.8281,1303.4481 L2050.8281,1305.6512 Q2049.7969,1306.0262 2048.9219,1306.1669 Q2048.0469,1306.3231 2046.8438,1306.3231 Q2044.5625,1306.3231 2043.0313,1305.3856 Q2041.5,1304.4325 2040.7344,1302.6981 Q2039.9688,1300.9481 2039.9688,1298.6512 Q2039.9688,1296.9794 2040.4375,1295.5887 Q2040.9063,1294.1981 2041.8125,1293.1669 Q2042.7344,1292.12 2044.0781,1291.5731 Q2045.4219,1291.0106 2047.1406,1291.0106 Q2048.2813,1291.0106 2049.3281,1291.245 Q2050.3906,1291.4637 2051.4844,1292.0262 L2050.5156,1294.0887 Q2049.5938,1293.6825 2048.8125,1293.4481 Q2048.0313,1293.2137 2047.125,1293.2137 Z " fill="#000000"/><text fill="#000000" font-family="sans-serif" font-size="20" lengthAdjust="spacing" textLength="262" x="2062" y="1306.38">InMemoryCourseRepository</text><line style="stroke:#181818;stroke-width:0.5;" x1="2032" x2="2326" y1="1317.24" y2="1317.24"/><line style="stroke:#181818;stroke-width:0.5;" x1="2032" x2="2326" y1="1325.24" y2="1325.24"/><ellipse cx="2042" cy="1344.36" fill="#84BE84" rx="3" ry="3" style="stroke:#038048;stroke-width:1.0;"/><text fill="#000000" font-family="sans-serif" font-size="20" lengthAdjust="spacing" textLength="168" x="2052" y="1350.62">findAllNotClosed()</text><ellipse cx="2042" cy="1371.5999" fill="#84BE84" rx="3" ry="3" style="stroke:#038048;stroke-width:1.0;"/><text fill="#000000" font-family="sans-serif" font-size="20" lengthAdjust="spacing" textLength="117" x="2052" y="1377.8599">save(course)</text></g><!--class JpaCourseRepository--><g id="elem_JpaCourseRepository"><rect codeLine="16" fill="#F1F1F1" height="107.7199" id="JpaCourseRepository" rx="2.5" ry="2.5" style="stroke:#181818;stroke-width:0.5;" width="227" x="2362.5" y="1280"/><ellipse cx="2378.5" cy="1298.62" fill="#ADD1B2" rx="12" ry="12" style="stroke:#181818;stroke-width:1.0;"/><path d="M2378.625,1293.2137 Q2377.5469,1293.2137 2376.6875,1293.5887 Q2375.8281,1293.9481 2375.2344,1294.6512 Q2374.6406,1295.3387 2374.3125,1296.3544 Q2374,1297.37 2374,1298.6669 Q2374,1300.37 2374.5156,1301.6044 Q2375.0313,1302.8231 2376.0469,1303.4794 Q2377.0625,1304.12 2378.6094,1304.12 Q2379.5156,1304.12 2380.3281,1303.9637 Q2381.1406,1303.8075 2382.3281,1303.4481 L2382.3281,1305.6512 Q2381.2969,1306.0262 2380.4219,1306.1669 Q2379.5469,1306.3231 2378.3438,1306.3231 Q2376.0625,1306.3231 2374.5313,1305.3856 Q2373,1304.4325 2372.2344,1302.6981 Q2371.4688,1300.9481 2371.4688,1298.6512 Q2371.4688,1296.9794 2371.9375,1295.5887 Q2372.4063,1294.1981 2373.3125,1293.1669 Q2374.2344,1292.12 2375.5781,1291.5731 Q2376.9219,1291.0106 2378.6406,1291.0106 Q2379.7813,1291.0106 2380.8281,1291.245 Q2381.8906,1291.4637 2382.9844,1292.0262 L2382.0156,1294.0887 Q2381.0938,1293.6825 2380.3125,1293.4481 Q2379.5313,1293.2137 2378.625,1293.2137 Z " fill="#000000"/><text fill="#000000" font-family="sans-serif" font-size="20" lengthAdjust="spacing" textLength="193" x="2393.5" y="1306.38">JpaCourseRepository</text><line style="stroke:#181818;stroke-width:0.5;" x1="2363.5" x2="2588.5" y1="1317.24" y2="1317.24"/><line style="stroke:#181818;stroke-width:0.5;" x1="2363.5" x2="2588.5" y1="1325.24" y2="1325.24"/><ellipse cx="2373.5" cy="1344.36" fill="#84BE84" rx="3" ry="3" style="stroke:#038048;stroke-width:1.0;"/><text fill="#000000" font-family="sans-serif" font-size="20" lengthAdjust="spacing" textLength="168" x="2383.5" y="1350.62">findAllNotClosed()</text><ellipse cx="2373.5" cy="1371.5999" fill="#84BE84" rx="3" ry="3" style="stroke:#038048;stroke-width:1.0;"/><text fill="#000000" font-family="sans-serif" font-size="20" lengthAdjust="spacing" textLength="117" x="2383.5" y="1377.8599">save(course)</text></g><!--class TeacherRepository--><g id="elem_TeacherRepository"><rect codeLine="21" fill="#F1F1F1" height="80.4799" id="TeacherRepository" rx="2.5" ry="2.5" style="stroke:#181818;stroke-width:0.5;" width="262" x="1025" y="1099"/><ellipse cx="1070.25" cy="1117.62" fill="#B4A7E5" rx="12" ry="12" style="stroke:#181818;stroke-width:1.0;"/><path d="M1072.8281,1125.12 L1067.0469,1125.12 L1067.0469,1123.5106 L1068.7344,1123.1356 L1068.7344,1112.2137 L1067.0469,1111.8231 L1067.0469,1110.2137 L1072.8281,1110.2137 L1072.8281,1111.8231 L1071.1563,1112.2137 L1071.1563,1123.1356 L1072.8281,1123.5106 L1072.8281,1125.12 Z " fill="#000000"/><text fill="#000000" font-family="sans-serif" font-size="20" font-style="italic" lengthAdjust="spacing" textLength="163" x="1091.75" y="1125.38">TeacherRepository</text><line style="stroke:#181818;stroke-width:0.5;" x1="1026" x2="1286" y1="1136.24" y2="1136.24"/><line style="stroke:#181818;stroke-width:0.5;" x1="1026" x2="1286" y1="1144.24" y2="1144.24"/><text fill="#000000" font-family="sans-serif" font-size="20" font-style="italic" lengthAdjust="spacing" textLength="250" x="1031" y="1169.62">findByUsername(username)</text></g><!--class InMemoryTeacherRepository--><g id="elem_InMemoryTeacherRepository"><rect codeLine="25" fill="#F1F1F1" height="107.7199" id="InMemoryTeacherRepository" rx="2.5" ry="2.5" style="stroke:#181818;stroke-width:0.5;" width="304" x="672" y="1280"/><ellipse cx="688" cy="1298.62" fill="#ADD1B2" rx="12" ry="12" style="stroke:#181818;stroke-width:1.0;"/><path d="M688.125,1293.2137 Q687.0469,1293.2137 686.1875,1293.5887 Q685.3281,1293.9481 684.7344,1294.6512 Q684.1406,1295.3387 683.8125,1296.3544 Q683.5,1297.37 683.5,1298.6669 Q683.5,1300.37 684.0156,1301.6044 Q684.5313,1302.8231 685.5469,1303.4794 Q686.5625,1304.12 688.1094,1304.12 Q689.0156,1304.12 689.8281,1303.9637 Q690.6406,1303.8075 691.8281,1303.4481 L691.8281,1305.6512 Q690.7969,1306.0262 689.9219,1306.1669 Q689.0469,1306.3231 687.8438,1306.3231 Q685.5625,1306.3231 684.0313,1305.3856 Q682.5,1304.4325 681.7344,1302.6981 Q680.9688,1300.9481 680.9688,1298.6512 Q680.9688,1296.9794 681.4375,1295.5887 Q681.9063,1294.1981 682.8125,1293.1669 Q683.7344,1292.12 685.0781,1291.5731 Q686.4219,1291.0106 688.1406,1291.0106 Q689.2813,1291.0106 690.3281,1291.245 Q691.3906,1291.4637 692.4844,1292.0262 L691.5156,1294.0887 Q690.5938,1293.6825 689.8125,1293.4481 Q689.0313,1293.2137 688.125,1293.2137 Z " fill="#000000"/><text fill="#000000" font-family="sans-serif" font-size="20" lengthAdjust="spacing" textLength="270" x="703" y="1306.38">InMemoryTeacherRepository</text><line style="stroke:#181818;stroke-width:0.5;" x1="673" x2="975" y1="1317.24" y2="1317.24"/><line style="stroke:#181818;stroke-width:0.5;" x1="673" x2="975" y1="1325.24" y2="1325.24"/><ellipse cx="683" cy="1344.36" fill="#84BE84" rx="3" ry="3" style="stroke:#038048;stroke-width:1.0;"/><text fill="#000000" font-family="sans-serif" font-size="20" lengthAdjust="spacing" textLength="262" x="693" y="1350.62">findByUsername(username)</text><ellipse cx="683" cy="1371.5999" fill="#84BE84" rx="3" ry="3" style="stroke:#038048;stroke-width:1.0;"/><text fill="#000000" font-family="sans-serif" font-size="20" lengthAdjust="spacing" textLength="124" x="693" y="1377.8599">save(teacher)</text></g><!--class JpaTeacherRepository--><g id="elem_JpaTeacherRepository"><rect codeLine="30" fill="#F1F1F1" height="107.7199" id="JpaTeacherRepository" rx="2.5" ry="2.5" style="stroke:#181818;stroke-width:0.5;" width="289" x="1011.5" y="1280"/><ellipse cx="1051.8" cy="1298.62" fill="#ADD1B2" rx="12" ry="12" style="stroke:#181818;stroke-width:1.0;"/><path d="M1051.925,1293.2137 Q1050.8469,1293.2137 1049.9875,1293.5887 Q1049.1281,1293.9481 1048.5344,1294.6512 Q1047.9406,1295.3387 1047.6125,1296.3544 Q1047.3,1297.37 1047.3,1298.6669 Q1047.3,1300.37 1047.8156,1301.6044 Q1048.3313,1302.8231 1049.3469,1303.4794 Q1050.3625,1304.12 1051.9094,1304.12 Q1052.8156,1304.12 1053.6281,1303.9637 Q1054.4406,1303.8075 1055.6281,1303.4481 L1055.6281,1305.6512 Q1054.5969,1306.0262 1053.7219,1306.1669 Q1052.8469,1306.3231 1051.6438,1306.3231 Q1049.3625,1306.3231 1047.8313,1305.3856 Q1046.3,1304.4325 1045.5344,1302.6981 Q1044.7688,1300.9481 1044.7688,1298.6512 Q1044.7688,1296.9794 1045.2375,1295.5887 Q1045.7063,1294.1981 1046.6125,1293.1669 Q1047.5344,1292.12 1048.8781,1291.5731 Q1050.2219,1291.0106 1051.9406,1291.0106 Q1053.0813,1291.0106 1054.1281,1291.245 Q1055.1906,1291.4637 1056.2844,1292.0262 L1055.3156,1294.0887 Q1054.3938,1293.6825 1053.6125,1293.4481 Q1052.8313,1293.2137 1051.925,1293.2137 Z " fill="#000000"/><text fill="#000000" font-family="sans-serif" font-size="20" lengthAdjust="spacing" textLength="201" x="1072.2" y="1306.38">JpaTeacherRepository</text><line style="stroke:#181818;stroke-width:0.5;" x1="1012.5" x2="1299.5" y1="1317.24" y2="1317.24"/><line style="stroke:#181818;stroke-width:0.5;" x1="1012.5" x2="1299.5" y1="1325.24" y2="1325.24"/><ellipse cx="1022.5" cy="1344.36" fill="#84BE84" rx="3" ry="3" style="stroke:#038048;stroke-width:1.0;"/><text fill="#000000" font-family="sans-serif" font-size="20" lengthAdjust="spacing" textLength="262" x="1032.5" y="1350.62">findByUsername(username)</text><ellipse cx="1022.5" cy="1371.5999" fill="#84BE84" rx="3" ry="3" style="stroke:#038048;stroke-width:1.0;"/><text fill="#000000" font-family="sans-serif" font-size="20" lengthAdjust="spacing" textLength="124" x="1032.5" y="1377.8599">save(teacher)</text></g><!--class CourseClassRepository--><g id="elem_CourseClassRepository"><rect codeLine="35" fill="#F1F1F1" height="80.4799" id="CourseClassRepository" rx="2.5" ry="2.5" style="stroke:#181818;stroke-width:0.5;" width="250" x="1556" y="1099"/><ellipse cx="1578.75" cy="1117.62" fill="#B4A7E5" rx="12" ry="12" style="stroke:#181818;stroke-width:1.0;"/><path d="M1581.3281,1125.12 L1575.5469,1125.12 L1575.5469,1123.5106 L1577.2344,1123.1356 L1577.2344,1112.2137 L1575.5469,1111.8231 L1575.5469,1110.2137 L1581.3281,1110.2137 L1581.3281,1111.8231 L1579.6563,1112.2137 L1579.6563,1123.1356 L1581.3281,1123.5106 L1581.3281,1125.12 Z " fill="#000000"/><text fill="#000000" font-family="sans-serif" font-size="20" font-style="italic" lengthAdjust="spacing" textLength="201" x="1595.25" y="1125.38">CourseClassRepository</text><line style="stroke:#181818;stroke-width:0.5;" x1="1557" x2="1805" y1="1136.24" y2="1136.24"/><line style="stroke:#181818;stroke-width:0.5;" x1="1557" x2="1805" y1="1144.24" y2="1144.24"/><text fill="#000000" font-family="sans-serif" font-size="20" font-style="italic" lengthAdjust="spacing" textLength="238" x="1562" y="1169.62">findAllByCourseCode(code)</text></g><!--class InMemoryCourseClassRepository--><g id="elem_InMemoryCourseClassRepository"><rect codeLine="39" fill="#F1F1F1" height="107.7199" id="InMemoryCourseClassRepository" rx="2.5" ry="2.5" style="stroke:#181818;stroke-width:0.5;" width="345" x="1335.5" y="1280"/><ellipse cx="1351.5" cy="1298.62" fill="#ADD1B2" rx="12" ry="12" style="stroke:#181818;stroke-width:1.0;"/><path d="M1351.625,1293.2137 Q1350.5469,1293.2137 1349.6875,1293.5887 Q1348.8281,1293.9481 1348.2344,1294.6512 Q1347.6406,1295.3387 1347.3125,1296.3544 Q1347,1297.37 1347,1298.6669 Q1347,1300.37 1347.5156,1301.6044 Q1348.0313,1302.8231 1349.0469,1303.4794 Q1350.0625,1304.12 1351.6094,1304.12 Q1352.5156,1304.12 1353.3281,1303.9637 Q1354.1406,1303.8075 1355.3281,1303.4481 L1355.3281,1305.6512 Q1354.2969,1306.0262 1353.4219,1306.1669 Q1352.5469,1306.3231 1351.3438,1306.3231 Q1349.0625,1306.3231 1347.5313,1305.3856 Q1346,1304.4325 1345.2344,1302.6981 Q1344.4688,1300.9481 1344.4688,1298.6512 Q1344.4688,1296.9794 1344.9375,1295.5887 Q1345.4063,1294.1981 1346.3125,1293.1669 Q1347.2344,1292.12 1348.5781,1291.5731 Q1349.9219,1291.0106 1351.6406,1291.0106 Q1352.7813,1291.0106 1353.8281,1291.245 Q1354.8906,1291.4637 1355.9844,1292.0262 L1355.0156,1294.0887 Q1354.0938,1293.6825 1353.3125,1293.4481 Q1352.5313,1293.2137 1351.625,1293.2137 Z " fill="#000000"/><text fill="#000000" font-family="sans-serif" font-size="20" lengthAdjust="spacing" textLength="311" x="1366.5" y="1306.38">InMemoryCourseClassRepository</text><line style="stroke:#181818;stroke-width:0.5;" x1="1336.5" x2="1679.5" y1="1317.24" y2="1317.24"/><line style="stroke:#181818;stroke-width:0.5;" x1="1336.5" x2="1679.5" y1="1325.24" y2="1325.24"/><ellipse cx="1346.5" cy="1344.36" fill="#84BE84" rx="3" ry="3" style="stroke:#038048;stroke-width:1.0;"/><text fill="#000000" font-family="sans-serif" font-size="20" lengthAdjust="spacing" textLength="253" x="1356.5" y="1350.62">findAllByCourseCode(code)</text><ellipse cx="1346.5" cy="1371.5999" fill="#84BE84" rx="3" ry="3" style="stroke:#038048;stroke-width:1.0;"/><text fill="#000000" font-family="sans-serif" font-size="20" lengthAdjust="spacing" textLength="100" x="1356.5" y="1377.8599">save(class)</text></g><!--class JpaCourseClassRepository--><g id="elem_JpaCourseClassRepository"><rect codeLine="44" fill="#F1F1F1" height="107.7199" id="JpaCourseClassRepository" rx="2.5" ry="2.5" style="stroke:#181818;stroke-width:0.5;" width="280" x="1716" y="1280"/><ellipse cx="1733.8" cy="1298.62" fill="#ADD1B2" rx="12" ry="12" style="stroke:#181818;stroke-width:1.0;"/><path d="M1733.925,1293.2137 Q1732.8469,1293.2137 1731.9875,1293.5887 Q1731.1281,1293.9481 1730.5344,1294.6512 Q1729.9406,1295.3387 1729.6125,1296.3544 Q1729.3,1297.37 1729.3,1298.6669 Q1729.3,1300.37 1729.8156,1301.6044 Q1730.3313,1302.8231 1731.3469,1303.4794 Q1732.3625,1304.12 1733.9094,1304.12 Q1734.8156,1304.12 1735.6281,1303.9637 Q1736.4406,1303.8075 1737.6281,1303.4481 L1737.6281,1305.6512 Q1736.5969,1306.0262 1735.7219,1306.1669 Q1734.8469,1306.3231 1733.6438,1306.3231 Q1731.3625,1306.3231 1729.8313,1305.3856 Q1728.3,1304.4325 1727.5344,1302.6981 Q1726.7688,1300.9481 1726.7688,1298.6512 Q1726.7688,1296.9794 1727.2375,1295.5887 Q1727.7063,1294.1981 1728.6125,1293.1669 Q1729.5344,1292.12 1730.8781,1291.5731 Q1732.2219,1291.0106 1733.9406,1291.0106 Q1735.0813,1291.0106 1736.1281,1291.245 Q1737.1906,1291.4637 1738.2844,1292.0262 L1737.3156,1294.0887 Q1736.3938,1293.6825 1735.6125,1293.4481 Q1734.8313,1293.2137 1733.925,1293.2137 Z " fill="#000000"/><text fill="#000000" font-family="sans-serif" font-size="20" lengthAdjust="spacing" textLength="242" x="1749.2" y="1306.38">JpaCourseClassRepository</text><line style="stroke:#181818;stroke-width:0.5;" x1="1717" x2="1995" y1="1317.24" y2="1317.24"/><line style="stroke:#181818;stroke-width:0.5;" x1="1717" x2="1995" y1="1325.24" y2="1325.24"/><ellipse cx="1727" cy="1344.36" fill="#84BE84" rx="3" ry="3" style="stroke:#038048;stroke-width:1.0;"/><text fill="#000000" font-family="sans-serif" font-size="20" lengthAdjust="spacing" textLength="253" x="1737" y="1350.62">findAllByCourseCode(code)</text><ellipse cx="1727" cy="1371.5999" fill="#84BE84" rx="3" ry="3" style="stroke:#038048;stroke-width:1.0;"/><text fill="#000000" font-family="sans-serif" font-size="20" lengthAdjust="spacing" textLength="100" x="1737" y="1377.8599">save(class)</text></g><!--class PersistenceContext--><g id="elem_PersistenceContext"><rect codeLine="49" fill="#F1F1F1" height="80.4799" id="PersistenceContext" rx="2.5" ry="2.5" style="stroke:#181818;stroke-width:0.5;" width="214" x="1574" y="532.5"/><ellipse cx="1590" cy="551.12" fill="#ADD1B2" rx="12" ry="12" style="stroke:#181818;stroke-width:1.0;"/><path d="M1590.125,545.7137 Q1589.0469,545.7137 1588.1875,546.0887 Q1587.3281,546.4481 1586.7344,547.1512 Q1586.1406,547.8387 1585.8125,548.8544 Q1585.5,549.87 1585.5,551.1669 Q1585.5,552.87 1586.0156,554.1044 Q1586.5313,555.3231 1587.5469,555.9794 Q1588.5625,556.62 1590.1094,556.62 Q1591.0156,556.62 1591.8281,556.4637 Q1592.6406,556.3075 1593.8281,555.9481 L1593.8281,558.1512 Q1592.7969,558.5262 1591.9219,558.6669 Q1591.0469,558.8231 1589.8438,558.8231 Q1587.5625,558.8231 1586.0313,557.8856 Q1584.5,556.9325 1583.7344,555.1981 Q1582.9688,553.4481 1582.9688,551.1512 Q1582.9688,549.4794 1583.4375,548.0887 Q1583.9063,546.6981 1584.8125,545.6669 Q1585.7344,544.62 1587.0781,544.0731 Q1588.4219,543.5106 1590.1406,543.5106 Q1591.2813,543.5106 1592.3281,543.745 Q1593.3906,543.9637 1594.4844,544.5262 L1593.5156,546.5887 Q1592.5938,546.1825 1591.8125,545.9481 Q1591.0313,545.7137 1590.125,545.7137 Z " fill="#000000"/><text fill="#000000" font-family="sans-serif" font-size="20" lengthAdjust="spacing" textLength="180" x="1605" y="558.88">PersistenceContext</text><line style="stroke:#181818;stroke-width:0.5;" x1="1575" x2="1787" y1="569.74" y2="569.74"/><line style="stroke:#181818;stroke-width:0.5;" x1="1575" x2="1787" y1="577.74" y2="577.74"/><rect fill="#F24D5C" height="6" style="stroke:#C82930;stroke-width:1.0;" width="6" x="1582" y="593.86"/><text fill="#000000" font-family="sans-serif" font-size="20" lengthAdjust="spacing" textLength="123" x="1595" y="603.12">repositories()</text></g><!--class Course--><g id="elem_Course"><rect codeLine="53" fill="#F1F1F1" height="271.1598" id="Course" rx="2.5" ry="2.5" style="stroke:#181818;stroke-width:0.5;" width="242" x="622" y="727"/><ellipse cx="705.5" cy="745.62" fill="#ADD1B2" rx="12" ry="12" style="stroke:#181818;stroke-width:1.0;"/><path d="M705.625,740.2137 Q704.5469,740.2137 703.6875,740.5887 Q702.8281,740.9481 702.2344,741.6512 Q701.6406,742.3387 701.3125,743.3544 Q701,744.37 701,745.6669 Q701,747.37 701.5156,748.6044 Q702.0313,749.8231 703.0469,750.4794 Q704.0625,751.12 705.6094,751.12 Q706.5156,751.12 707.3281,750.9637 Q708.1406,750.8075 709.3281,750.4481 L709.3281,752.6512 Q708.2969,753.0262 707.4219,753.1669 Q706.5469,753.3231 705.3438,753.3231 Q703.0625,753.3231 701.5313,752.3856 Q700,751.4325 699.2344,749.6981 Q698.4688,747.9481 698.4688,745.6512 Q698.4688,743.9794 698.9375,742.5887 Q699.4063,741.1981 700.3125,740.1669 Q701.2344,739.12 702.5781,738.5731 Q703.9219,738.0106 705.6406,738.0106 Q706.7813,738.0106 707.8281,738.245 Q708.8906,738.4637 709.9844,739.0262 L709.0156,741.0887 Q708.0938,740.6825 707.3125,740.4481 Q706.5313,740.2137 705.625,740.2137 Z " fill="#000000"/><text fill="#000000" font-family="sans-serif" font-size="20" lengthAdjust="spacing" textLength="66" x="727.5" y="753.38">Course</text><line style="stroke:#181818;stroke-width:0.5;" x1="623" x2="863" y1="764.24" y2="764.24"/><rect fill="none" height="6" style="stroke:#C82930;stroke-width:1.0;" width="6" x="630" y="780.36"/><text fill="#000000" font-family="sans-serif" font-size="20" lengthAdjust="spacing" textLength="45" x="643" y="789.62">code</text><rect fill="none" height="6" style="stroke:#C82930;stroke-width:1.0;" width="6" x="630" y="807.5999"/><text fill="#000000" font-family="sans-serif" font-size="20" lengthAdjust="spacing" textLength="35" x="643" y="816.8599">title</text><rect fill="none" height="6" style="stroke:#C82930;stroke-width:1.0;" width="6" x="630" y="834.8399"/><text fill="#000000" font-family="sans-serif" font-size="20" lengthAdjust="spacing" textLength="104" x="643" y="844.0999">description</text><rect fill="none" height="6" style="stroke:#C82930;stroke-width:1.0;" width="6" x="630" y="862.0799"/><text fill="#000000" font-family="sans-serif" font-size="20" lengthAdjust="spacing" textLength="153" x="643" y="871.3399">enrolmentLimits</text><rect fill="none" height="6" style="stroke:#C82930;stroke-width:1.0;" width="6" x="630" y="889.3199"/><text fill="#000000" font-family="sans-serif" font-size="20" lengthAdjust="spacing" textLength="110" x="643" y="898.5799">courseState</text><rect fill="none" height="6" style="stroke:#C82930;stroke-width:1.0;" width="6" x="630" y="916.5598"/><text fill="#000000" font-family="sans-serif" font-size="20" lengthAdjust="spacing" textLength="207" x="643" y="925.8198">courseEnrolmentState</text><rect fill="none" height="6" style="stroke:#C82930;stroke-width:1.0;" width="6" x="630" y="943.7998"/><text fill="#000000" font-family="sans-serif" font-size="20" lengthAdjust="spacing" textLength="90" x="643" y="953.0598">createdAt</text><line style="stroke:#181818;stroke-width:0.5;" x1="623" x2="863" y1="962.9198" y2="962.9198"/><ellipse cx="633" cy="982.0398" fill="#84BE84" rx="3" ry="3" style="stroke:#038048;stroke-width:1.0;"/><text fill="#000000" font-family="sans-serif" font-size="20" lengthAdjust="spacing" textLength="215" x="643" y="988.2998">toggleEnrolmentState()</text></g><!--class CourseClass--><g id="elem_CourseClass"><rect codeLine="66" fill="#F1F1F1" height="189.4398" id="CourseClass" rx="2.5" ry="2.5" style="stroke:#181818;stroke-width:0.5;" width="149" x="267.5" y="478"/><ellipse cx="283.5" cy="496.62" fill="#ADD1B2" rx="12" ry="12" style="stroke:#181818;stroke-width:1.0;"/><path d="M283.625,491.2137 Q282.5469,491.2137 281.6875,491.5887 Q280.8281,491.9481 280.2344,492.6512 Q279.6406,493.3387 279.3125,494.3544 Q279,495.37 279,496.6669 Q279,498.37 279.5156,499.6044 Q280.0313,500.8231 281.0469,501.4794 Q282.0625,502.12 283.6094,502.12 Q284.5156,502.12 285.3281,501.9637 Q286.1406,501.8075 287.3281,501.4481 L287.3281,503.6512 Q286.2969,504.0262 285.4219,504.1669 Q284.5469,504.3231 283.3438,504.3231 Q281.0625,504.3231 279.5313,503.3856 Q278,502.4325 277.2344,500.6981 Q276.4688,498.9481 276.4688,496.6512 Q276.4688,494.9794 276.9375,493.5887 Q277.4063,492.1981 278.3125,491.1669 Q279.2344,490.12 280.5781,489.5731 Q281.9219,489.0106 283.6406,489.0106 Q284.7813,489.0106 285.8281,489.245 Q286.8906,489.4637 287.9844,490.0262 L287.0156,492.0887 Q286.0938,491.6825 285.3125,491.4481 Q284.5313,491.2137 283.625,491.2137 Z " fill="#000000"/><text fill="#000000" font-family="sans-serif" font-size="20" lengthAdjust="spacing" textLength="115" x="298.5" y="504.38">CourseClass</text><line style="stroke:#181818;stroke-width:0.5;" x1="268.5" x2="415.5" y1="515.24" y2="515.24"/><rect fill="none" height="6" style="stroke:#C82930;stroke-width:1.0;" width="6" x="275.5" y="531.36"/><text fill="#000000" font-family="sans-serif" font-size="20" lengthAdjust="spacing" textLength="104" x="288.5" y="540.62">dayInWeek</text><rect fill="none" height="6" style="stroke:#C82930;stroke-width:1.0;" width="6" x="275.5" y="558.5999"/><text fill="#000000" font-family="sans-serif" font-size="20" lengthAdjust="spacing" textLength="79" x="288.5" y="567.8599">duration</text><rect fill="none" height="6" style="stroke:#C82930;stroke-width:1.0;" width="6" x="275.5" y="585.8399"/><text fill="#000000" font-family="sans-serif" font-size="20" lengthAdjust="spacing" textLength="54" x="288.5" y="595.0999">hours</text><rect fill="none" height="6" style="stroke:#C82930;stroke-width:1.0;" width="6" x="275.5" y="613.0799"/><text fill="#000000" font-family="sans-serif" font-size="20" lengthAdjust="spacing" textLength="118" x="288.5" y="622.3399">scheduledBy</text><line style="stroke:#181818;stroke-width:0.5;" x1="268.5" x2="415.5" y1="632.1999" y2="632.1999"/><ellipse cx="278.5" cy="651.3199" fill="#84BE84" rx="3" ry="3" style="stroke:#038048;stroke-width:1.0;"/><text fill="#000000" font-family="sans-serif" font-size="20" lengthAdjust="spacing" textLength="65" x="288.5" y="657.5799">toDto()</text></g><!--class CourseState--><g id="elem_CourseState"><rect codeLine="75" fill="#F1F1F1" height="162.1999" id="CourseState" rx="2.5" ry="2.5" style="stroke:#181818;stroke-width:0.5;" width="147" x="669.5" y="1058"/><ellipse cx="685.5" cy="1076.62" fill="#EB937F" rx="12" ry="12" style="stroke:#181818;stroke-width:1.0;"/><path d="M689.5469,1084.12 L680.9375,1084.12 L680.9375,1069.2137 L689.5469,1069.2137 L689.5469,1071.4169 L683.3594,1071.4169 L683.3594,1075.2606 L689.1875,1075.2606 L689.1875,1077.4325 L683.3594,1077.4325 L683.3594,1081.9169 L689.5469,1081.9169 L689.5469,1084.12 Z " fill="#000000"/><text fill="#000000" font-family="sans-serif" font-size="20" lengthAdjust="spacing" textLength="113" x="700.5" y="1084.38">CourseState</text><line style="stroke:#181818;stroke-width:0.5;" x1="670.5" x2="815.5" y1="1095.24" y2="1095.24"/><text fill="#000000" font-family="sans-serif" font-size="20" lengthAdjust="spacing" textLength="76" x="675.5" y="1120.62">CLOSED</text><text fill="#000000" font-family="sans-serif" font-size="20" lengthAdjust="spacing" textLength="54" x="675.5" y="1147.8599">OPEN</text><text fill="#000000" font-family="sans-serif" font-size="20" lengthAdjust="spacing" textLength="131" x="675.5" y="1175.0999">IN_PROGRESS</text><text fill="#000000" font-family="sans-serif" font-size="20" lengthAdjust="spacing" textLength="91" x="675.5" y="1202.3399">FINISHED</text><line style="stroke:#181818;stroke-width:0.5;" x1="670.5" x2="815.5" y1="1212.1999" y2="1212.1999"/></g><!--class ScheduleAvailabilityService--><g id="elem_ScheduleAvailabilityService"><rect codeLine="87" fill="#F1F1F1" height="134.9599" id="ScheduleAvailabilityService" rx="2.5" ry="2.5" style="stroke:#181818;stroke-width:0.5;" width="612" x="452" y="505"/><ellipse cx="629" cy="523.62" fill="#ADD1B2" rx="12" ry="12" style="stroke:#181818;stroke-width:1.0;"/><path d="M629.125,518.2137 Q628.0469,518.2137 627.1875,518.5887 Q626.3281,518.9481 625.7344,519.6512 Q625.1406,520.3387 624.8125,521.3544 Q624.5,522.37 624.5,523.6669 Q624.5,525.37 625.0156,526.6044 Q625.5313,527.8231 626.5469,528.4794 Q627.5625,529.12 629.1094,529.12 Q630.0156,529.12 630.8281,528.9637 Q631.6406,528.8075 632.8281,528.4481 L632.8281,530.6512 Q631.7969,531.0262 630.9219,531.1669 Q630.0469,531.3231 628.8438,531.3231 Q626.5625,531.3231 625.0313,530.3856 Q623.5,529.4325 622.7344,527.6981 Q621.9688,525.9481 621.9688,523.6512 Q621.9688,521.9794 622.4375,520.5887 Q622.9063,519.1981 623.8125,518.1669 Q624.7344,517.12 626.0781,516.5731 Q627.4219,516.0106 629.1406,516.0106 Q630.2813,516.0106 631.3281,516.245 Q632.3906,516.4637 633.4844,517.0262 L632.5156,519.0887 Q631.5938,518.6825 630.8125,518.4481 Q630.0313,518.2137 629.125,518.2137 Z " fill="#000000"/><text fill="#000000" font-family="sans-serif" font-size="20" lengthAdjust="spacing" textLength="249" x="651" y="531.38">ScheduleAvailabilityService</text><line style="stroke:#181818;stroke-width:0.5;" x1="453" x2="1063" y1="542.24" y2="542.24"/><line style="stroke:#181818;stroke-width:0.5;" x1="453" x2="1063" y1="550.24" y2="550.24"/><ellipse cx="463" cy="569.36" fill="#84BE84" rx="3" ry="3" style="stroke:#038048;stroke-width:1.0;"/><text fill="#000000" font-family="sans-serif" font-size="20" lengthAdjust="spacing" textLength="585" x="473" y="575.62">ScheduleAvailabilityService(classRepository, teacherRepository)</text><text fill="#000000" font-family="sans-serif" font-size="20" lengthAdjust="spacing" textLength="5" x="473" y="602.8599"> </text><ellipse cx="463" cy="623.8399" fill="#84BE84" rx="3" ry="3" style="stroke:#038048;stroke-width:1.0;"/><text fill="#000000" font-family="sans-serif" font-size="20" lengthAdjust="spacing" textLength="395" x="473" y="630.0999">isTeacherAvailable(teacher, time, duration)</text></g><!--class ListCourseService--><g id="elem_ListCourseService"><rect codeLine="93" fill="#F1F1F1" height="162.1999" id="ListCourseService" rx="2.5" ry="2.5" style="stroke:#181818;stroke-width:0.5;" width="439" x="1099.5" y="491.5"/><ellipse cx="1232.5" cy="510.12" fill="#ADD1B2" rx="12" ry="12" style="stroke:#181818;stroke-width:1.0;"/><path d="M1232.625,504.7137 Q1231.5469,504.7137 1230.6875,505.0887 Q1229.8281,505.4481 1229.2344,506.1512 Q1228.6406,506.8387 1228.3125,507.8544 Q1228,508.87 1228,510.1669 Q1228,511.87 1228.5156,513.1044 Q1229.0313,514.3231 1230.0469,514.9794 Q1231.0625,515.62 1232.6094,515.62 Q1233.5156,515.62 1234.3281,515.4637 Q1235.1406,515.3075 1236.3281,514.9481 L1236.3281,517.1512 Q1235.2969,517.5262 1234.4219,517.6669 Q1233.5469,517.8231 1232.3438,517.8231 Q1230.0625,517.8231 1228.5313,516.8856 Q1227,515.9325 1226.2344,514.1981 Q1225.4688,512.4481 1225.4688,510.1512 Q1225.4688,508.4794 1225.9375,507.0887 Q1226.4063,505.6981 1227.3125,504.6669 Q1228.2344,503.62 1229.5781,503.0731 Q1230.9219,502.5106 1232.6406,502.5106 Q1233.7813,502.5106 1234.8281,502.745 Q1235.8906,502.9637 1236.9844,503.5262 L1236.0156,505.5887 Q1235.0938,505.1825 1234.3125,504.9481 Q1233.5313,504.7137 1232.625,504.7137 Z " fill="#000000"/><text fill="#000000" font-family="sans-serif" font-size="20" lengthAdjust="spacing" textLength="164" x="1254.5" y="517.88">ListCourseService</text><line style="stroke:#181818;stroke-width:0.5;" x1="1100.5" x2="1537.5" y1="528.74" y2="528.74"/><rect fill="none" height="6" style="stroke:#C82930;stroke-width:1.0;" width="6" x="1107.5" y="544.86"/><text fill="#000000" font-family="sans-serif" font-size="20" lengthAdjust="spacing" textLength="162" x="1120.5" y="554.12">courseRepository</text><line style="stroke:#181818;stroke-width:0.5;" x1="1100.5" x2="1537.5" y1="563.9799" y2="563.9799"/><ellipse cx="1110.5" cy="583.0999" fill="#84BE84" rx="3" ry="3" style="stroke:#038048;stroke-width:1.0;"/><text fill="#000000" font-family="sans-serif" font-size="20" lengthAdjust="spacing" textLength="338" x="1120.5" y="589.3599">ListCourseService(courseRepository)</text><text fill="#000000" font-family="sans-serif" font-size="20" lengthAdjust="spacing" textLength="5" x="1120.5" y="616.5999"> </text><ellipse cx="1110.5" cy="637.5799" fill="#84BE84" rx="3" ry="3" style="stroke:#038048;stroke-width:1.0;"/><text fill="#000000" font-family="sans-serif" font-size="20" lengthAdjust="spacing" textLength="412" x="1120.5" y="643.8399">listAllInProgressLecturedByTeacher(teacher)</text></g><!--class CourseDTO--><g id="elem_CourseDTO"><rect codeLine="101" fill="#F1F1F1" height="243.9198" id="CourseDTO" rx="2.5" ry="2.5" style="stroke:#181818;stroke-width:0.5;" width="234" x="7" y="740.5"/><ellipse cx="65.5" cy="759.12" fill="#ADD1B2" rx="12" ry="12" style="stroke:#181818;stroke-width:1.0;"/><path d="M65.625,753.7137 Q64.5469,753.7137 63.6875,754.0887 Q62.8281,754.4481 62.2344,755.1512 Q61.6406,755.8387 61.3125,756.8544 Q61,757.87 61,759.1669 Q61,760.87 61.5156,762.1044 Q62.0313,763.3231 63.0469,763.9794 Q64.0625,764.62 65.6094,764.62 Q66.5156,764.62 67.3281,764.4637 Q68.1406,764.3075 69.3281,763.9481 L69.3281,766.1512 Q68.2969,766.5262 67.4219,766.6669 Q66.5469,766.8231 65.3438,766.8231 Q63.0625,766.8231 61.5313,765.8856 Q60,764.9325 59.2344,763.1981 Q58.4688,761.4481 58.4688,759.1512 Q58.4688,757.4794 58.9375,756.0887 Q59.4063,754.6981 60.3125,753.6669 Q61.2344,752.62 62.5781,752.0731 Q63.9219,751.5106 65.6406,751.5106 Q66.7813,751.5106 67.8281,751.745 Q68.8906,751.9637 69.9844,752.5262 L69.0156,754.5887 Q68.0938,754.1825 67.3125,753.9481 Q66.5313,753.7137 65.625,753.7137 Z " fill="#000000"/><text fill="#000000" font-family="sans-serif" font-size="20" lengthAdjust="spacing" textLength="108" x="87.5" y="766.88">CourseDTO</text><line style="stroke:#181818;stroke-width:0.5;" x1="8" x2="240" y1="777.74" y2="777.74"/><rect fill="none" height="6" style="stroke:#C82930;stroke-width:1.0;" width="6" x="15" y="793.86"/><text fill="#000000" font-family="sans-serif" font-size="20" lengthAdjust="spacing" textLength="45" x="28" y="803.12">code</text><rect fill="none" height="6" style="stroke:#C82930;stroke-width:1.0;" width="6" x="15" y="821.0999"/><text fill="#000000" font-family="sans-serif" font-size="20" lengthAdjust="spacing" textLength="35" x="28" y="830.3599">title</text><rect fill="none" height="6" style="stroke:#C82930;stroke-width:1.0;" width="6" x="15" y="848.3399"/><text fill="#000000" font-family="sans-serif" font-size="20" lengthAdjust="spacing" textLength="104" x="28" y="857.5999">description</text><rect fill="none" height="6" style="stroke:#C82930;stroke-width:1.0;" width="6" x="15" y="875.5799"/><text fill="#000000" font-family="sans-serif" font-size="20" lengthAdjust="spacing" textLength="153" x="28" y="884.8399">enrolmentLimits</text><rect fill="none" height="6" style="stroke:#C82930;stroke-width:1.0;" width="6" x="15" y="902.8199"/><text fill="#000000" font-family="sans-serif" font-size="20" lengthAdjust="spacing" textLength="110" x="28" y="912.0799">courseState</text><rect fill="none" height="6" style="stroke:#C82930;stroke-width:1.0;" width="6" x="15" y="930.0598"/><text fill="#000000" font-family="sans-serif" font-size="20" lengthAdjust="spacing" textLength="207" x="28" y="939.3198">courseEnrolmentState</text><rect fill="none" height="6" style="stroke:#C82930;stroke-width:1.0;" width="6" x="15" y="957.2998"/><text fill="#000000" font-family="sans-serif" font-size="20" lengthAdjust="spacing" textLength="90" x="28" y="966.5598">createdAt</text><line style="stroke:#181818;stroke-width:0.5;" x1="8" x2="240" y1="976.4198" y2="976.4198"/></g><!--class CourseDTOParser--><g id="elem_CourseDTOParser"><rect codeLine="111" fill="#F1F1F1" height="80.4799" id="CourseDTOParser" rx="2.5" ry="2.5" style="stroke:#181818;stroke-width:0.5;" width="216" x="16" y="532.5"/><ellipse cx="38.3" cy="551.12" fill="#ADD1B2" rx="12" ry="12" style="stroke:#181818;stroke-width:1.0;"/><path d="M38.425,545.7137 Q37.3469,545.7137 36.4875,546.0887 Q35.6281,546.4481 35.0344,547.1512 Q34.4406,547.8387 34.1125,548.8544 Q33.8,549.87 33.8,551.1669 Q33.8,552.87 34.3156,554.1044 Q34.8313,555.3231 35.8469,555.9794 Q36.8625,556.62 38.4094,556.62 Q39.3156,556.62 40.1281,556.4637 Q40.9406,556.3075 42.1281,555.9481 L42.1281,558.1512 Q41.0969,558.5262 40.2219,558.6669 Q39.3469,558.8231 38.1438,558.8231 Q35.8625,558.8231 34.3313,557.8856 Q32.8,556.9325 32.0344,555.1981 Q31.2687,553.4481 31.2687,551.1512 Q31.2687,549.4794 31.7375,548.0887 Q32.2063,546.6981 33.1125,545.6669 Q34.0344,544.62 35.3781,544.0731 Q36.7219,543.5106 38.4406,543.5106 Q39.5813,543.5106 40.6281,543.745 Q41.6906,543.9637 42.7844,544.5262 L41.8156,546.5887 Q40.8938,546.1825 40.1125,545.9481 Q39.3313,545.7137 38.425,545.7137 Z " fill="#000000"/><text fill="#000000" font-family="sans-serif" font-size="20" lengthAdjust="spacing" textLength="168" x="54.7" y="558.88">CourseDTOParser</text><line style="stroke:#181818;stroke-width:0.5;" x1="17" x2="231" y1="569.74" y2="569.74"/><line style="stroke:#181818;stroke-width:0.5;" x1="17" x2="231" y1="577.74" y2="577.74"/><ellipse cx="27" cy="596.86" fill="#84BE84" rx="3" ry="3" style="stroke:#038048;stroke-width:1.0;"/><text fill="#000000" font-family="sans-serif" font-size="20" lengthAdjust="spacing" textLength="189" x="37" y="603.12">valueOf(courseDTO)</text></g><!--class ScheduleClassController--><g id="elem_ScheduleClassController"><rect codeLine="115" fill="#F1F1F1" height="298.3997" id="ScheduleClassController" rx="2.5" ry="2.5" style="stroke:#181818;stroke-width:0.5;" width="761" x="657.5" y="120"/><ellipse cx="920.5" cy="138.62" fill="#ADD1B2" rx="12" ry="12" style="stroke:#181818;stroke-width:1.0;"/><path d="M920.625,133.2137 Q919.5469,133.2137 918.6875,133.5887 Q917.8281,133.9481 917.2344,134.6512 Q916.6406,135.3387 916.3125,136.3544 Q916,137.37 916,138.6669 Q916,140.37 916.5156,141.6044 Q917.0313,142.8231 918.0469,143.4794 Q919.0625,144.12 920.6094,144.12 Q921.5156,144.12 922.3281,143.9637 Q923.1406,143.8075 924.3281,143.4481 L924.3281,145.6512 Q923.2969,146.0262 922.4219,146.1669 Q921.5469,146.3231 920.3438,146.3231 Q918.0625,146.3231 916.5313,145.3856 Q915,144.4325 914.2344,142.6981 Q913.4688,140.9481 913.4688,138.6512 Q913.4688,136.9794 913.9375,135.5887 Q914.4063,134.1981 915.3125,133.1669 Q916.2344,132.12 917.5781,131.5731 Q918.9219,131.0106 920.6406,131.0106 Q921.7813,131.0106 922.8281,131.245 Q923.8906,131.4637 924.9844,132.0262 L924.0156,134.0887 Q923.0938,133.6825 922.3125,133.4481 Q921.5313,133.2137 920.625,133.2137 Z " fill="#000000"/><text fill="#000000" font-family="sans-serif" font-size="20" lengthAdjust="spacing" textLength="226" x="942.5" y="146.38">ScheduleClassController</text><line style="stroke:#181818;stroke-width:0.5;" x1="658.5" x2="1417.5" y1="157.24" y2="157.24"/><rect fill="none" height="6" style="stroke:#C82930;stroke-width:1.0;" width="6" x="665.5" y="173.36"/><text fill="#000000" font-family="sans-serif" font-size="20" lengthAdjust="spacing" textLength="145" x="678.5" y="182.62">classRepository</text><rect fill="none" height="6" style="stroke:#C82930;stroke-width:1.0;" width="6" x="665.5" y="200.5999"/><text fill="#000000" font-family="sans-serif" font-size="20" lengthAdjust="spacing" textLength="162" x="678.5" y="209.8599">courseRepository</text><rect fill="none" height="6" style="stroke:#C82930;stroke-width:1.0;" width="6" x="665.5" y="227.8399"/><text fill="#000000" font-family="sans-serif" font-size="20" lengthAdjust="spacing" textLength="169" x="678.5" y="237.0999">teacherRepository</text><rect fill="none" height="6" style="stroke:#C82930;stroke-width:1.0;" width="6" x="665.5" y="255.0799"/><text fill="#000000" font-family="sans-serif" font-size="20" lengthAdjust="spacing" textLength="159" x="678.5" y="264.3399">listCourseService</text><rect fill="none" height="6" style="stroke:#C82930;stroke-width:1.0;" width="6" x="665.5" y="282.3199"/><text fill="#000000" font-family="sans-serif" font-size="20" lengthAdjust="spacing" textLength="163" x="678.5" y="291.5799">availabilityService</text><line style="stroke:#181818;stroke-width:0.5;" x1="658.5" x2="1417.5" y1="301.4398" y2="301.4398"/><ellipse cx="668.5" cy="320.5598" fill="#84BE84" rx="3" ry="3" style="stroke:#038048;stroke-width:1.0;"/><text fill="#000000" font-family="sans-serif" font-size="20" lengthAdjust="spacing" textLength="734" x="678.5" y="326.8198">ScheduleClassController(classRepository, courseRepository, teacherRepository)</text><text fill="#000000" font-family="sans-serif" font-size="20" lengthAdjust="spacing" textLength="5" x="678.5" y="354.0598"> </text><ellipse cx="668.5" cy="375.0398" fill="#84BE84" rx="3" ry="3" style="stroke:#038048;stroke-width:1.0;"/><text fill="#000000" font-family="sans-serif" font-size="20" lengthAdjust="spacing" textLength="189" x="678.5" y="381.2998">listTeacherCourses()</text><ellipse cx="668.5" cy="402.2798" fill="#84BE84" rx="3" ry="3" style="stroke:#038048;stroke-width:1.0;"/><text fill="#000000" font-family="sans-serif" font-size="20" lengthAdjust="spacing" textLength="449" x="678.5" y="408.5398">createClass(course, duration, dayInWeek, hours)</text></g><!--class ScheduleClassUI--><g id="elem_ScheduleClassUI"><rect codeLine="128" fill="#F1F1F1" height="53.24" id="ScheduleClassUI" rx="2.5" ry="2.5" style="stroke:#181818;stroke-width:0.5;" width="189" x="943.5" y="7"/><ellipse cx="959.5" cy="25.62" fill="#ADD1B2" rx="12" ry="12" style="stroke:#181818;stroke-width:1.0;"/><path d="M959.625,20.2137 Q958.5469,20.2137 957.6875,20.5887 Q956.8281,20.9481 956.2344,21.6512 Q955.6406,22.3387 955.3125,23.3544 Q955,24.37 955,25.6669 Q955,27.37 955.5156,28.6044 Q956.0313,29.8231 957.0469,30.4794 Q958.0625,31.12 959.6094,31.12 Q960.5156,31.12 961.3281,30.9637 Q962.1406,30.8075 963.3281,30.4481 L963.3281,32.6512 Q962.2969,33.0262 961.4219,33.1669 Q960.5469,33.3231 959.3438,33.3231 Q957.0625,33.3231 955.5313,32.3856 Q954,31.4325 953.2344,29.6981 Q952.4688,27.9481 952.4688,25.6512 Q952.4688,23.9794 952.9375,22.5887 Q953.4063,21.1981 954.3125,20.1669 Q955.2344,19.12 956.5781,18.5731 Q957.9219,18.0106 959.6406,18.0106 Q960.7813,18.0106 961.8281,18.245 Q962.8906,18.4637 963.9844,19.0262 L963.0156,21.0887 Q962.0938,20.6825 961.3125,20.4481 Q960.5313,20.2137 959.625,20.2137 Z " fill="#000000"/><text fill="#000000" font-family="sans-serif" font-size="20" lengthAdjust="spacing" textLength="155" x="974.5" y="33.38">ScheduleClassUI</text><line style="stroke:#181818;stroke-width:0.5;" x1="944.5" x2="1131.5" y1="44.24" y2="44.24"/><line style="stroke:#181818;stroke-width:0.5;" x1="944.5" x2="1131.5" y1="52.24" y2="52.24"/></g><!--link ScheduleClassUI to ScheduleClassController--><g id="link_ScheduleClassUI_ScheduleClassController"><path codeLine="130" d="M1038,60.38 C1038,74.37 1038,92.91 1038,113.18 " fill="none" id="ScheduleClassUI-to-ScheduleClassController" style="stroke:#181818;stroke-width:1.0;stroke-dasharray:7.0,7.0;"/><polygon fill="#181818" points="1038,118,1042,109,1038,113,1034,109,1038,118" style="stroke:#181818;stroke-width:1.0;"/></g><!--link ScheduleClassController to PersistenceContext--><g id="link_ScheduleClassController_PersistenceContext"><path codeLine="132" d="M1418.94,409.63 C1465.98,430.74 1512.7,453.67 1556,478 C1581.48,492.32 1607.67,511.17 1629.46,528.19 " fill="none" id="ScheduleClassController-to-PersistenceContext" style="stroke:#181818;stroke-width:1.0;stroke-dasharray:7.0,7.0;"/><polygon fill="#181818" points="1633.14,531.08,1628.5526,522.3648,1629.2149,527.9827,1623.5969,528.645,1633.14,531.08" style="stroke:#181818;stroke-width:1.0;"/></g><!--link ScheduleClassController to ScheduleAvailabilityService--><g id="link_ScheduleClassController_ScheduleAvailabilityService"><path codeLine="133" d="M900.46,418.1 C873.9,446.7 847.22,475.43 824.25,500.16 " fill="none" id="ScheduleClassController-to-ScheduleAvailabilityService" style="stroke:#181818;stroke-width:1.0;"/><polygon fill="#181818" points="821.04,503.62,830.0976,499.7521,824.4444,499.9581,824.2385,494.305,821.04,503.62" style="stroke:#181818;stroke-width:1.0;"/></g><!--link ScheduleClassController to CourseClass--><g id="link_ScheduleClassController_CourseClass"><path codeLine="134" d="M657.13,371.15 C580.22,399.72 502.13,435.04 434,478 C429.94,480.56 425.92,483.34 421.97,486.27 " fill="none" id="ScheduleClassController-to-CourseClass" style="stroke:#181818;stroke-width:1.0;"/><polygon fill="#181818" points="418.2,489.15,427.7821,486.8732,422.1758,486.1181,422.931,480.5118,418.2,489.15" style="stroke:#181818;stroke-width:1.0;"/></g><!--link ScheduleClassController to ListCourseService--><g id="link_ScheduleClassController_ListCourseService"><path codeLine="135" d="M1176.03,418.1 C1197.93,441.6 1219.91,465.18 1239.84,486.56 " fill="none" id="ScheduleClassController-to-ListCourseService" style="stroke:#181818;stroke-width:1.0;"/><polygon fill="#181818" points="1243.03,489.98,1239.8121,480.6717,1239.6179,486.3252,1233.9644,486.131,1243.03,489.98" style="stroke:#181818;stroke-width:1.0;"/></g><!--link PersistenceContext to RepositoryFactory--><g id="link_PersistenceContext_RepositoryFactory"><path codeLine="137" d="M1681,612.94 C1681,665.9 1681,759.79 1681,815.77 " fill="none" id="PersistenceContext-to-RepositoryFactory" style="stroke:#181818;stroke-width:1.0;stroke-dasharray:7.0,7.0;"/><polygon fill="#181818" points="1681,820.56,1685,811.56,1681,815.56,1677,811.56,1681,820.56" style="stroke:#181818;stroke-width:1.0;"/></g><!--link RepositoryFactory to CourseRepository--><g id="link_RepositoryFactory_CourseRepository"><path codeLine="138" d="M1752.62,902.98 C1837.68,949.86 1980.18,1028.41 2076.8,1081.67 " fill="none" id="RepositoryFactory-to-CourseRepository" style="stroke:#181818;stroke-width:1.0;"/><polygon fill="#181818" points="2080.91,1083.93,2074.9547,1076.0856,2076.5298,1081.5188,2071.0967,1083.0939,2080.91,1083.93" style="stroke:#181818;stroke-width:1.0;"/></g><!--link RepositoryFactory to TeacherRepository--><g id="link_RepositoryFactory_TeacherRepository"><path codeLine="139" d="M1605.5,902.98 C1507.61,954.16 1337.57,1043.07 1237.04,1095.63 " fill="none" id="RepositoryFactory-to-TeacherRepository" style="stroke:#181818;stroke-width:1.0;"/><polygon fill="#181818" points="1232.76,1097.87,1242.5891,1097.2467,1237.1914,1095.5542,1238.8839,1090.1565,1232.76,1097.87" style="stroke:#181818;stroke-width:1.0;"/></g><!--link RepositoryFactory to CourseClassRepository--><g id="link_RepositoryFactory_CourseClassRepository"><path codeLine="140" d="M1681,902.83 C1681,952.97 1681,1039.5 1681,1092.46 " fill="none" id="RepositoryFactory-to-CourseClassRepository" style="stroke:#181818;stroke-width:1.0;"/><polygon fill="#181818" points="1681,1097.23,1685,1088.23,1681,1092.23,1677,1088.23,1681,1097.23" style="stroke:#181818;stroke-width:1.0;"/></g><!--link CourseDTOParser to CourseDTO--><g id="link_CourseDTOParser_CourseDTO"><path codeLine="142" d="M124,612.94 C124,644.29 124,689.98 124,733.67 " fill="none" id="CourseDTOParser-to-CourseDTO" style="stroke:#181818;stroke-width:1.0;stroke-dasharray:7.0,7.0;"/><polygon fill="#181818" points="124,738.58,128,729.58,124,733.58,120,729.58,124,738.58" style="stroke:#181818;stroke-width:1.0;"/></g><!--link CourseDTOParser to Course--><g id="link_CourseDTOParser_Course"><path codeLine="143" d="M170.76,612.8 C193.67,630.84 222.26,651.59 250,667 C368.39,732.77 513.62,787.21 615.69,821.6 " fill="none" id="CourseDTOParser-to-Course" style="stroke:#181818;stroke-width:1.0;stroke-dasharray:7.0,7.0;"/><polygon fill="#181818" points="620.3,823.15,613.0508,816.483,615.5623,821.5517,610.4936,824.0633,620.3,823.15" style="stroke:#181818;stroke-width:1.0;"/></g><!--reverse link CourseRepository to InMemoryCourseRepository--><g id="link_CourseRepository_InMemoryCourseRepository"><path codeLine="145" d="M2179,1214.64 C2179,1236.3 2179,1259.51 2179,1279.59 " fill="none" id="CourseRepository-backto-InMemoryCourseRepository" style="stroke:#181818;stroke-width:1.0;stroke-dasharray:7.0,7.0;"/><polygon fill="none" points="2172,1214.76,2179,1194.76,2186,1214.76,2172,1214.76" style="stroke:#181818;stroke-width:1.0;"/></g><!--reverse link CourseRepository to JpaCourseRepository--><g id="link_CourseRepository_JpaCourseRepository"><path codeLine="146" d="M2278.87,1204.9 C2316.23,1229.18 2358.22,1256.46 2393.81,1279.59 " fill="none" id="CourseRepository-backto-JpaCourseRepository" style="stroke:#181818;stroke-width:1.0;stroke-dasharray:7.0,7.0;"/><polygon fill="none" points="2275.17,1210.84,2262.21,1194.07,2282.8,1199.1,2275.17,1210.84" style="stroke:#181818;stroke-width:1.0;"/></g><!--reverse link CourseClassRepository to InMemoryCourseClassRepository--><g id="link_CourseClassRepository_InMemoryCourseClassRepository"><path codeLine="148" d="M1631.82,1194.86 C1607.96,1221.48 1579.41,1253.33 1555.74,1279.74 " fill="none" id="CourseClassRepository-backto-InMemoryCourseClassRepository" style="stroke:#181818;stroke-width:1.0;stroke-dasharray:7.0,7.0;"/><polygon fill="none" points="1626.42,1190.4,1644.98,1180.18,1636.84,1199.75,1626.42,1190.4" style="stroke:#181818;stroke-width:1.0;"/></g><!--reverse link CourseClassRepository to JpaCourseClassRepository--><g id="link_CourseClassRepository_JpaCourseClassRepository"><path codeLine="149" d="M1730.74,1194.86 C1754.88,1221.48 1783.76,1253.33 1807.71,1279.74 " fill="none" id="CourseClassRepository-backto-JpaCourseClassRepository" style="stroke:#181818;stroke-width:1.0;stroke-dasharray:7.0,7.0;"/><polygon fill="none" points="1725.68,1199.7,1717.43,1180.18,1736.05,1190.29,1725.68,1199.7" style="stroke:#181818;stroke-width:1.0;"/></g><!--reverse link TeacherRepository to InMemoryTeacherRepository--><g id="link_TeacherRepository_InMemoryTeacherRepository"><path codeLine="151" d="M1069.93,1190.03 C1022.71,1217.48 964.16,1251.52 916.03,1279.5 " fill="none" id="TeacherRepository-backto-InMemoryTeacherRepository" style="stroke:#181818;stroke-width:1.0;stroke-dasharray:7.0,7.0;"/><polygon fill="none" points="1066.3,1184.05,1087.11,1180.05,1073.33,1196.15,1066.3,1184.05" style="stroke:#181818;stroke-width:1.0;"/></g><!--reverse link TeacherRepository to JpaTeacherRepository--><g id="link_TeacherRepository_JpaTeacherRepository"><path codeLine="152" d="M1156,1200.2 C1156,1225.66 1156,1255.08 1156,1279.74 " fill="none" id="TeacherRepository-backto-JpaTeacherRepository" style="stroke:#181818;stroke-width:1.0;stroke-dasharray:7.0,7.0;"/><polygon fill="none" points="1149,1200.57,1156,1180.57,1163,1200.57,1149,1200.57" style="stroke:#181818;stroke-width:1.0;"/></g><!--link ListCourseService to Course--><g id="link_ListCourseService_Course"><path codeLine="154" d="M1158.17,653.92 C1067.07,699.47 954.72,755.64 869.88,798.06 " fill="none" id="ListCourseService-to-Course" style="stroke:#181818;stroke-width:1.0;stroke-dasharray:7.0,7.0;"/><polygon fill="#181818" points="865.43,800.29,875.2693,799.8554,869.905,798.0597,871.7007,792.6954,865.43,800.29" style="stroke:#181818;stroke-width:1.0;"/></g><!--link Course to CourseState--><g id="link_Course_CourseState"><path codeLine="156" d="M743,998.34 C743,1016.45 743,1034.62 743,1051.58 " fill="none" id="Course-to-CourseState" style="stroke:#181818;stroke-width:1.0;"/><polygon fill="#181818" points="743,1056.26,747,1047.26,743,1051.26,739,1047.26,743,1056.26" style="stroke:#181818;stroke-width:1.0;"/></g><!--SRC=[lLPDRzim3BthL-YM54c3OUUXG9kacuSi2UeMEmwgpQH2P2kGv61Pr_y-MPPjHRAzmugTz4K-ae-a97cW-P48aZ6U7235AUn8mTGzprLCVm7- -06XX14fyGCSkQIAY_CzISe1loAC9-7- -0gz8KHp1M974i1pNWW9hPZHUoNFKWcjy8PtD4zl6LjpDMTSGghrkyxZv0NIWa5wTtu4eXTYhAhHsAkSZF9la6aRdJOdtQOcM98JZ1EZuc1zFP9_Wsafi0uFSt1tVf8WSfB1kB2JZiYweIRz28rd8LiwmlU1yvCzB-7_cl4xcwOvJqlUKkXDP1VUP02cpKQfs9NJTqFSWf1KAiWJBQvf-AaCrZKMDJW5ENOKAcWhL8ARYQAALRCKP2BeKL6UcpNaWhCCShMY6LNIgfKOiI8AdFMobdGE1EXfUgkGYK3n_PvvSgPuH-PmeNZegM7AkfkISvH_1pXKgqAGnisNKjZCPDkejTK66F8YixZ6kC6ThpRnSg4dc-rohOTe_MFxiFdyi8nZlRgFrb7yHPzhzH5s02x3q4WZR27AYGKTuIQS-WAvFH7Ao3DbL9rZ42UQW4t_W4ILzxPWfbZvdNDLHKkbxIcBmffMqJeqWsd3cqFrIfUGfSNng4viQwCo4KYFVJdh2zE2kfwZV2luNe2KAqXK8ORlq0fvyRZvxpKQkh0bUXGsFIV22jZiRB3wr76wJfsfrh8HjHbcDRM9o-HrKsj2z9DgTfdFjzabOPMWYpBoV0bBo7UXlwXA3sp6AaUaVNCgyemboqjRNzEsNwTLV_OHzXJXLttYxyrcDtt1UC8EuwLIU2dsYbzVtmprtQ2USq4DoWNzWb37jLqw7dncKFZjQIqxPT8j5hokWt3UcuIGtmQbXytUm6cjwRnldtxFPhs_enxnZWzGZUm_dntmVZG3YdslCaBXz-J2KiXlZqBNJmUXyDODENJoKrrP8nmSU9VQ7m00]--></g></svg>