<?xml version="1.0" encoding="UTF-8" standalone="no"?><svg xmlns="http://www.w3.org/2000/svg" xmlns:xlink="http://www.w3.org/1999/xlink" contentStyleType="text/css" height="1395px" preserveAspectRatio="none" style="width:2734px;height:1395px;background:#FFFFFF;" version="1.1" viewBox="0 0 2734 1395" width="2734px" zoomAndPan="magnify"><defs/><g><rect fill="#FFFFFF" height="1145.9994" style="stroke:#181818;stroke-width:1.0;" width="10" x="40" y="115.4799"/><rect fill="#FFFFFF" height="640.3596" style="stroke:#181818;stroke-width:1.0;" width="10" x="523.25" y="148.7199"/><rect fill="#FFFFFF" height="41.24" style="stroke:#181818;stroke-width:1.0;" width="10" x="523.25" y="830.3195"/><rect fill="#FFFFFF" height="348.6798" style="stroke:#181818;stroke-width:1.0;" width="10" x="523.25" y="912.7995"/><rect fill="#FFFFFF" height="142.4799" style="stroke:#181818;stroke-width:1.0;" width="10" x="1114.875" y="189.9599"/><rect fill="#FFFFFF" height="374.1598" style="stroke:#181818;stroke-width:1.0;" width="10" x="1114.875" y="373.6798"/><rect fill="#FFFFFF" height="266.1999" style="stroke:#181818;stroke-width:1.0;" width="10" x="1114.875" y="954.0395"/><rect fill="#FFFFFF" height="30" style="stroke:#181818;stroke-width:1.0;" width="10" x="1571.5" y="231.1999"/><rect fill="#FFFFFF" height="291.6798" style="stroke:#181818;stroke-width:1.0;" width="10" x="1571.5" y="414.9198"/><rect fill="#FFFFFF" height="30" style="stroke:#181818;stroke-width:1.0;" width="10" x="1802" y="302.4398"/><rect fill="#FFFFFF" height="30" style="stroke:#181818;stroke-width:1.0;" width="10" x="1802" y="995.2794"/><rect fill="#FFFFFF" height="71.24" style="stroke:#181818;stroke-width:1.0;" width="10" x="1995" y="587.1197"/><rect fill="#FFFFFF" height="30" style="stroke:#181818;stroke-width:1.0;" width="10" x="2117.5" y="628.3596"/><rect fill="#FFFFFF" height="30" style="stroke:#181818;stroke-width:1.0;" width="10" x="2253" y="1066.5194"/><rect fill="#FFFFFF" height="41.24" style="stroke:#181818;stroke-width:1.0;" width="10" x="2413" y="456.1598"/><rect fill="#FFFFFF" height="41.24" style="stroke:#181818;stroke-width:1.0;" width="10" x="2618.5" y="1137.7594"/><rect fill="none" height="153.9599" style="stroke:#000000;stroke-width:1.5;" width="716" x="1477.5" y="512.3997"/><line style="stroke:#181818;stroke-width:0.5;stroke-dasharray:5.0,5.0;" x1="45" x2="45" y1="105.4799" y2="1279.4793"/><line style="stroke:#181818;stroke-width:0.5;stroke-dasharray:5.0,5.0;" x1="527.75" x2="527.75" y1="105.4799" y2="1279.4793"/><line style="stroke:#181818;stroke-width:0.5;stroke-dasharray:5.0,5.0;" x1="1119.875" x2="1119.875" y1="105.4799" y2="1279.4793"/><line style="stroke:#181818;stroke-width:0.5;stroke-dasharray:5.0,5.0;" x1="1576.5" x2="1576.5" y1="105.4799" y2="1279.4793"/><line style="stroke:#181818;stroke-width:0.5;stroke-dasharray:5.0,5.0;" x1="1806.5" x2="1806.5" y1="105.4799" y2="1279.4793"/><line style="stroke:#181818;stroke-width:0.5;stroke-dasharray:5.0,5.0;" x1="1999.5" x2="1999.5" y1="105.4799" y2="1279.4793"/><line style="stroke:#181818;stroke-width:0.5;stroke-dasharray:5.0,5.0;" x1="2122.5" x2="2122.5" y1="105.4799" y2="1279.4793"/><line style="stroke:#181818;stroke-width:0.5;stroke-dasharray:5.0,5.0;" x1="2257.5" x2="2257.5" y1="105.4799" y2="1279.4793"/><line style="stroke:#181818;stroke-width:0.5;stroke-dasharray:5.0,5.0;" x1="2417.5" x2="2417.5" y1="105.4799" y2="1279.4793"/><line style="stroke:#181818;stroke-width:0.5;stroke-dasharray:5.0,5.0;" x1="2623.5" x2="2623.5" y1="105.4799" y2="1279.4793"/><text fill="#000000" font-family="sans-serif" font-size="20" lengthAdjust="spacing" textLength="74" x="5" y="99.62">Teacher</text><ellipse cx="45" cy="26.74" fill="#E2E2F0" rx="8" ry="8" style="stroke:#181818;stroke-width:0.5;"/><path d="M45,34.74 L45,61.74 M32,42.74 L58,42.74 M45,61.74 L32,76.74 M45,61.74 L58,76.74 " fill="none" style="stroke:#181818;stroke-width:0.5;"/><text fill="#000000" font-family="sans-serif" font-size="20" lengthAdjust="spacing" textLength="74" x="5" y="1299.8593">Teacher</text><ellipse cx="45" cy="1314.2193" fill="#E2E2F0" rx="8" ry="8" style="stroke:#181818;stroke-width:0.5;"/><path d="M45,1322.2193 L45,1349.2193 M32,1330.2193 L58,1330.2193 M45,1349.2193 L32,1364.2193 M45,1349.2193 L58,1364.2193 " fill="none" style="stroke:#181818;stroke-width:0.5;"/><rect fill="#E2E2F0" height="68.4799" rx="2.5" ry="2.5" style="stroke:#181818;stroke-width:0.5;" width="169" x="443.75" y="36"/><text fill="#000000" font-family="sans-serif" font-size="20" font-style="italic" lengthAdjust="spacing" textLength="134" x="461.25" y="64.38">«presentation»</text><text fill="#000000" font-family="sans-serif" font-size="20" lengthAdjust="spacing" textLength="155" x="450.75" y="91.62">ScheduleClassUI</text><rect fill="#E2E2F0" height="68.4799" rx="2.5" ry="2.5" style="stroke:#181818;stroke-width:0.5;" width="169" x="443.75" y="1278.4793"/><text fill="#000000" font-family="sans-serif" font-size="20" font-style="italic" lengthAdjust="spacing" textLength="134" x="461.25" y="1306.8593">«presentation»</text><text fill="#000000" font-family="sans-serif" font-size="20" lengthAdjust="spacing" textLength="155" x="450.75" y="1334.0993">ScheduleClassUI</text><rect fill="#E2E2F0" height="68.4799" rx="2.5" ry="2.5" style="stroke:#181818;stroke-width:0.5;" width="240" x="999.875" y="36"/><text fill="#000000" font-family="sans-serif" font-size="20" font-style="italic" lengthAdjust="spacing" textLength="120" x="1059.875" y="64.38">«application»</text><text fill="#000000" font-family="sans-serif" font-size="20" lengthAdjust="spacing" textLength="226" x="1006.875" y="91.62">ScheduleClassController</text><rect fill="#E2E2F0" height="68.4799" rx="2.5" ry="2.5" style="stroke:#181818;stroke-width:0.5;" width="240" x="999.875" y="1278.4793"/><text fill="#000000" font-family="sans-serif" font-size="20" font-style="italic" lengthAdjust="spacing" textLength="120" x="1059.875" y="1306.8593">«application»</text><text fill="#000000" font-family="sans-serif" font-size="20" lengthAdjust="spacing" textLength="226" x="1006.875" y="1334.0993">ScheduleClassController</text><rect fill="#E2E2F0" height="68.4799" rx="2.5" ry="2.5" style="stroke:#181818;stroke-width:0.5;" width="178" x="1487.5" y="36"/><text fill="#000000" font-family="sans-serif" font-size="20" font-style="italic" lengthAdjust="spacing" textLength="80" x="1536.5" y="64.38">«service»</text><text fill="#000000" font-family="sans-serif" font-size="20" lengthAdjust="spacing" textLength="164" x="1494.5" y="91.62">ListCourseService</text><rect fill="#E2E2F0" height="68.4799" rx="2.5" ry="2.5" style="stroke:#181818;stroke-width:0.5;" width="178" x="1487.5" y="1278.4793"/><text fill="#000000" font-family="sans-serif" font-size="20" font-style="italic" lengthAdjust="spacing" textLength="80" x="1536.5" y="1306.8593">«service»</text><text fill="#000000" font-family="sans-serif" font-size="20" lengthAdjust="spacing" textLength="164" x="1494.5" y="1334.0993">ListCourseService</text><rect fill="#E2E2F0" height="68.4799" rx="2.5" ry="2.5" style="stroke:#181818;stroke-width:0.5;" width="263" x="1675.5" y="36"/><text fill="#000000" font-family="sans-serif" font-size="20" font-style="italic" lengthAdjust="spacing" textLength="80" x="1767" y="64.38">«service»</text><text fill="#000000" font-family="sans-serif" font-size="20" lengthAdjust="spacing" textLength="249" x="1682.5" y="91.62">ScheduleAvailabilityService</text><rect fill="#E2E2F0" height="68.4799" rx="2.5" ry="2.5" style="stroke:#181818;stroke-width:0.5;" width="263" x="1675.5" y="1278.4793"/><text fill="#000000" font-family="sans-serif" font-size="20" font-style="italic" lengthAdjust="spacing" textLength="80" x="1767" y="1306.8593">«service»</text><text fill="#000000" font-family="sans-serif" font-size="20" lengthAdjust="spacing" textLength="249" x="1682.5" y="1334.0993">ScheduleAvailabilityService</text><rect fill="#E2E2F0" height="68.4799" rx="2.5" ry="2.5" style="stroke:#181818;stroke-width:0.5;" width="103" x="1948.5" y="36"/><text fill="#000000" font-family="sans-serif" font-size="20" font-style="italic" lengthAdjust="spacing" textLength="89" x="1955.5" y="64.38">«domain»</text><text fill="#000000" font-family="sans-serif" font-size="20" lengthAdjust="spacing" textLength="66" x="1967" y="91.62">Course</text><rect fill="#E2E2F0" height="68.4799" rx="2.5" ry="2.5" style="stroke:#181818;stroke-width:0.5;" width="103" x="1948.5" y="1278.4793"/><text fill="#000000" font-family="sans-serif" font-size="20" font-style="italic" lengthAdjust="spacing" textLength="89" x="1955.5" y="1306.8593">«domain»</text><text fill="#000000" font-family="sans-serif" font-size="20" lengthAdjust="spacing" textLength="66" x="1967" y="1334.0993">Course</text><rect fill="#E2E2F0" height="68.4799" rx="2.5" ry="2.5" style="stroke:#181818;stroke-width:0.5;" width="122" x="2061.5" y="36"/><text fill="#000000" font-family="sans-serif" font-size="20" font-style="italic" lengthAdjust="spacing" textLength="50" x="2097.5" y="64.38">«dto»</text><text fill="#000000" font-family="sans-serif" font-size="20" lengthAdjust="spacing" textLength="108" x="2068.5" y="91.62">CourseDTO</text><rect fill="#E2E2F0" height="68.4799" rx="2.5" ry="2.5" style="stroke:#181818;stroke-width:0.5;" width="122" x="2061.5" y="1278.4793"/><text fill="#000000" font-family="sans-serif" font-size="20" font-style="italic" lengthAdjust="spacing" textLength="50" x="2097.5" y="1306.8593">«dto»</text><text fill="#000000" font-family="sans-serif" font-size="20" lengthAdjust="spacing" textLength="108" x="2068.5" y="1334.0993">CourseDTO</text><rect fill="#E2E2F0" height="68.4799" rx="2.5" ry="2.5" style="stroke:#181818;stroke-width:0.5;" width="129" x="2193.5" y="36"/><text fill="#000000" font-family="sans-serif" font-size="20" font-style="italic" lengthAdjust="spacing" textLength="89" x="2213.5" y="64.38">«domain»</text><text fill="#000000" font-family="sans-serif" font-size="20" lengthAdjust="spacing" textLength="115" x="2200.5" y="91.62">CourseClass</text><rect fill="#E2E2F0" height="68.4799" rx="2.5" ry="2.5" style="stroke:#181818;stroke-width:0.5;" width="129" x="2193.5" y="1278.4793"/><text fill="#000000" font-family="sans-serif" font-size="20" font-style="italic" lengthAdjust="spacing" textLength="89" x="2213.5" y="1306.8593">«domain»</text><text fill="#000000" font-family="sans-serif" font-size="20" lengthAdjust="spacing" textLength="115" x="2200.5" y="1334.0993">CourseClass</text><text fill="#000000" font-family="sans-serif" font-size="20" font-style="italic" lengthAdjust="spacing" textLength="110" x="2360" y="72.38">«repository»</text><text fill="#000000" font-family="sans-serif" font-size="20" lengthAdjust="spacing" textLength="165" x="2332.5" y="99.62">CourseRepository</text><path d="M2400,15 C2400,5 2418,5 2418,5 C2418,5 2436,5 2436,15 L2436,41 C2436,51 2418,51 2418,51 C2418,51 2400,51 2400,41 L2400,15 " fill="#E2E2F0" style="stroke:#181818;stroke-width:1.5;"/><path d="M2400,15 C2400,25 2418,25 2418,25 C2418,25 2436,25 2436,15 " fill="none" style="stroke:#181818;stroke-width:1.5;"/><text fill="#000000" font-family="sans-serif" font-size="20" font-style="italic" lengthAdjust="spacing" textLength="110" x="2360" y="1299.8593">«repository»</text><text fill="#000000" font-family="sans-serif" font-size="20" lengthAdjust="spacing" textLength="165" x="2332.5" y="1327.0993">CourseRepository</text><path d="M2400,1342.9593 C2400,1332.9593 2418,1332.9593 2418,1332.9593 C2418,1332.9593 2436,1332.9593 2436,1342.9593 L2436,1368.9593 C2436,1378.9593 2418,1378.9593 2418,1378.9593 C2418,1378.9593 2400,1378.9593 2400,1368.9593 L2400,1342.9593 " fill="#E2E2F0" style="stroke:#181818;stroke-width:1.5;"/><path d="M2400,1342.9593 C2400,1352.9593 2418,1352.9593 2418,1352.9593 C2418,1352.9593 2436,1352.9593 2436,1342.9593 " fill="none" style="stroke:#181818;stroke-width:1.5;"/><text fill="#000000" font-family="sans-serif" font-size="20" font-style="italic" lengthAdjust="spacing" textLength="110" x="2565.5" y="72.38">«repository»</text><text fill="#000000" font-family="sans-serif" font-size="20" lengthAdjust="spacing" textLength="214" x="2513.5" y="99.62">CourseClassRepository</text><path d="M2605.5,15 C2605.5,5 2623.5,5 2623.5,5 C2623.5,5 2641.5,5 2641.5,15 L2641.5,41 C2641.5,51 2623.5,51 2623.5,51 C2623.5,51 2605.5,51 2605.5,41 L2605.5,15 " fill="#E2E2F0" style="stroke:#181818;stroke-width:1.5;"/><path d="M2605.5,15 C2605.5,25 2623.5,25 2623.5,25 C2623.5,25 2641.5,25 2641.5,15 " fill="none" style="stroke:#181818;stroke-width:1.5;"/><text fill="#000000" font-family="sans-serif" font-size="20" font-style="italic" lengthAdjust="spacing" textLength="110" x="2565.5" y="1299.8593">«repository»</text><text fill="#000000" font-family="sans-serif" font-size="20" lengthAdjust="spacing" textLength="214" x="2513.5" y="1327.0993">CourseClassRepository</text><path d="M2605.5,1342.9593 C2605.5,1332.9593 2623.5,1332.9593 2623.5,1332.9593 C2623.5,1332.9593 2641.5,1332.9593 2641.5,1342.9593 L2641.5,1368.9593 C2641.5,1378.9593 2623.5,1378.9593 2623.5,1378.9593 C2623.5,1378.9593 2605.5,1378.9593 2605.5,1368.9593 L2605.5,1342.9593 " fill="#E2E2F0" style="stroke:#181818;stroke-width:1.5;"/><path d="M2605.5,1342.9593 C2605.5,1352.9593 2623.5,1352.9593 2623.5,1352.9593 C2623.5,1352.9593 2641.5,1352.9593 2641.5,1342.9593 " fill="none" style="stroke:#181818;stroke-width:1.5;"/><rect fill="#FFFFFF" height="1145.9994" style="stroke:#181818;stroke-width:1.0;" width="10" x="40" y="115.4799"/><rect fill="#FFFFFF" height="640.3596" style="stroke:#181818;stroke-width:1.0;" width="10" x="523.25" y="148.7199"/><rect fill="#FFFFFF" height="41.24" style="stroke:#181818;stroke-width:1.0;" width="10" x="523.25" y="830.3195"/><rect fill="#FFFFFF" height="348.6798" style="stroke:#181818;stroke-width:1.0;" width="10" x="523.25" y="912.7995"/><rect fill="#FFFFFF" height="142.4799" style="stroke:#181818;stroke-width:1.0;" width="10" x="1114.875" y="189.9599"/><rect fill="#FFFFFF" height="374.1598" style="stroke:#181818;stroke-width:1.0;" width="10" x="1114.875" y="373.6798"/><rect fill="#FFFFFF" height="266.1999" style="stroke:#181818;stroke-width:1.0;" width="10" x="1114.875" y="954.0395"/><rect fill="#FFFFFF" height="30" style="stroke:#181818;stroke-width:1.0;" width="10" x="1571.5" y="231.1999"/><rect fill="#FFFFFF" height="291.6798" style="stroke:#181818;stroke-width:1.0;" width="10" x="1571.5" y="414.9198"/><rect fill="#FFFFFF" height="30" style="stroke:#181818;stroke-width:1.0;" width="10" x="1802" y="302.4398"/><rect fill="#FFFFFF" height="30" style="stroke:#181818;stroke-width:1.0;" width="10" x="1802" y="995.2794"/><rect fill="#FFFFFF" height="71.24" style="stroke:#181818;stroke-width:1.0;" width="10" x="1995" y="587.1197"/><rect fill="#FFFFFF" height="30" style="stroke:#181818;stroke-width:1.0;" width="10" x="2117.5" y="628.3596"/><rect fill="#FFFFFF" height="30" style="stroke:#181818;stroke-width:1.0;" width="10" x="2253" y="1066.5194"/><rect fill="#FFFFFF" height="41.24" style="stroke:#181818;stroke-width:1.0;" width="10" x="2413" y="456.1598"/><rect fill="#FFFFFF" height="41.24" style="stroke:#181818;stroke-width:1.0;" width="10" x="2618.5" y="1137.7594"/><polygon fill="#181818" points="511.25,144.7199,521.25,148.7199,511.25,152.7199,515.25,148.7199" style="stroke:#181818;stroke-width:1.0;"/><line style="stroke:#181818;stroke-width:1.0;" x1="50" x2="517.25" y1="148.7199" y2="148.7199"/><text fill="#000000" font-family="sans-serif" font-size="20" font-weight="bold" lengthAdjust="spacing" textLength="11.625" x="57" y="140.8599">1</text><text fill="#000000" font-family="sans-serif" font-size="20" lengthAdjust="spacing" textLength="221" x="72.625" y="140.8599">asks to schedule a class</text><polygon fill="#181818" points="1102.875,185.9599,1112.875,189.9599,1102.875,193.9599,1106.875,189.9599" style="stroke:#181818;stroke-width:1.0;"/><line style="stroke:#181818;stroke-width:1.0;" x1="533.25" x2="1108.875" y1="189.9599" y2="189.9599"/><text fill="#000000" font-family="sans-serif" font-size="20" font-weight="bold" lengthAdjust="spacing" textLength="11.625" x="540.25" y="182.0999">2</text><text fill="#000000" font-family="sans-serif" font-size="20" lengthAdjust="spacing" textLength="547" x="555.875" y="182.0999">new(classRepository, courseRepository, teacherRepository)</text><polygon fill="#181818" points="1559.5,227.1999,1569.5,231.1999,1559.5,235.1999,1563.5,231.1999" style="stroke:#181818;stroke-width:1.0;"/><line style="stroke:#181818;stroke-width:1.0;" x1="1124.875" x2="1565.5" y1="231.1999" y2="231.1999"/><text fill="#000000" font-family="sans-serif" font-size="20" font-weight="bold" lengthAdjust="spacing" textLength="11.625" x="1131.875" y="223.3399">3</text><text fill="#000000" font-family="sans-serif" font-size="20" lengthAdjust="spacing" textLength="383" x="1147.5" y="223.3399">listCourseService=new(courseRepository)</text><polygon fill="#181818" points="1790,298.4398,1800,302.4398,1790,306.4398,1794,302.4398" style="stroke:#181818;stroke-width:1.0;"/><line style="stroke:#181818;stroke-width:1.0;" x1="1124.875" x2="1796" y1="302.4398" y2="302.4398"/><text fill="#000000" font-family="sans-serif" font-size="20" font-weight="bold" lengthAdjust="spacing" textLength="11.625" x="1131.875" y="294.5799">4</text><text fill="#000000" font-family="sans-serif" font-size="20" lengthAdjust="spacing" textLength="549" x="1147.5" y="294.5799">availabilityService=new(classRepository, teacherRepository)</text><polygon fill="#181818" points="1102.875,369.6798,1112.875,373.6798,1102.875,377.6798,1106.875,373.6798" style="stroke:#181818;stroke-width:1.0;"/><line style="stroke:#181818;stroke-width:1.0;" x1="533.25" x2="1108.875" y1="373.6798" y2="373.6798"/><text fill="#000000" font-family="sans-serif" font-size="20" font-weight="bold" lengthAdjust="spacing" textLength="11.625" x="540.25" y="365.8198">5</text><text fill="#000000" font-family="sans-serif" font-size="20" lengthAdjust="spacing" textLength="342" x="555.875" y="365.8198">listAllInProgressLecturedByTeacher()</text><polygon fill="#181818" points="1559.5,410.9198,1569.5,414.9198,1559.5,418.9198,1563.5,414.9198" style="stroke:#181818;stroke-width:1.0;"/><line style="stroke:#181818;stroke-width:1.0;" x1="1124.875" x2="1565.5" y1="414.9198" y2="414.9198"/><text fill="#000000" font-family="sans-serif" font-size="20" font-weight="bold" lengthAdjust="spacing" textLength="11.625" x="1131.875" y="407.0598">6</text><text fill="#000000" font-family="sans-serif" font-size="20" lengthAdjust="spacing" textLength="412" x="1147.5" y="407.0598">listAllInProgressLecturedByTeacher(teacher)</text><polygon fill="#181818" points="2401,452.1598,2411,456.1598,2401,460.1598,2405,456.1598" style="stroke:#181818;stroke-width:1.0;"/><line style="stroke:#181818;stroke-width:1.0;" x1="1581.5" x2="2407" y1="456.1598" y2="456.1598"/><text fill="#000000" font-family="sans-serif" font-size="20" font-weight="bold" lengthAdjust="spacing" textLength="11.625" x="1588.5" y="448.2998">7</text><text fill="#000000" font-family="sans-serif" font-size="20" lengthAdjust="spacing" textLength="421" x="1604.125" y="448.2998">findAllInProgressLecturedByTeacher(teacher)</text><polygon fill="#181818" points="1592.5,493.3997,1582.5,497.3997,1592.5,501.3997,1588.5,497.3997" style="stroke:#181818;stroke-width:1.0;"/><line style="stroke:#181818;stroke-width:1.0;stroke-dasharray:2.0,2.0;" x1="1586.5" x2="2417" y1="497.3997" y2="497.3997"/><text fill="#000000" font-family="sans-serif" font-size="20" font-weight="bold" lengthAdjust="spacing" textLength="11.625" x="1598.5" y="489.5398">8</text><text fill="#000000" font-family="sans-serif" font-size="20" lengthAdjust="spacing" textLength="73" x="1614.125" y="489.5398">courses</text><path d="M1477.5,512.3997 L1566,512.3997 L1566,531.6397 L1556,541.6397 L1477.5,541.6397 L1477.5,512.3997 " fill="#EEEEEE" style="stroke:#000000;stroke-width:1.5;"/><rect fill="none" height="153.9599" style="stroke:#000000;stroke-width:1.5;" width="716" x="1477.5" y="512.3997"/><text fill="#000000" font-family="sans-serif" font-size="20" font-weight="bold" lengthAdjust="spacing" textLength="43.5" x="1492.5" y="534.7797">loop</text><text fill="#000000" font-family="sans-serif" font-size="20" font-weight="bold" lengthAdjust="spacing" textLength="167.375" x="1581" y="535.7797">[for each course]</text><polygon fill="#181818" points="1983,583.1197,1993,587.1197,1983,591.1197,1987,587.1197" style="stroke:#181818;stroke-width:1.0;"/><line style="stroke:#181818;stroke-width:1.0;" x1="1581.5" x2="1989" y1="587.1197" y2="587.1197"/><text fill="#000000" font-family="sans-serif" font-size="20" font-weight="bold" lengthAdjust="spacing" textLength="11.625" x="1588.5" y="579.2597">9</text><text fill="#000000" font-family="sans-serif" font-size="20" lengthAdjust="spacing" textLength="136" x="1604.125" y="579.2597">toDTO(course)</text><polygon fill="#181818" points="2105.5,624.3596,2115.5,628.3596,2105.5,632.3596,2109.5,628.3596" style="stroke:#181818;stroke-width:1.0;"/><line style="stroke:#181818;stroke-width:1.0;" x1="2005" x2="2111.5" y1="628.3596" y2="628.3596"/><text fill="#000000" font-family="sans-serif" font-size="20" font-weight="bold" lengthAdjust="spacing" textLength="23.25" x="2012" y="620.4997">10</text><text fill="#000000" font-family="sans-serif" font-size="20" lengthAdjust="spacing" textLength="51" x="2039.25" y="620.4997">new()</text><polygon fill="#181818" points="1135.875,702.5996,1125.875,706.5996,1135.875,710.5996,1131.875,706.5996" style="stroke:#181818;stroke-width:1.0;"/><line style="stroke:#181818;stroke-width:1.0;stroke-dasharray:2.0,2.0;" x1="1129.875" x2="1575.5" y1="706.5996" y2="706.5996"/><text fill="#000000" font-family="sans-serif" font-size="20" font-weight="bold" lengthAdjust="spacing" textLength="23.25" x="1141.875" y="698.7396">11</text><text fill="#000000" font-family="sans-serif" font-size="20" lengthAdjust="spacing" textLength="73" x="1169.125" y="698.7396">courses</text><polygon fill="#181818" points="544.25,743.8396,534.25,747.8396,544.25,751.8396,540.25,747.8396" style="stroke:#181818;stroke-width:1.0;"/><line style="stroke:#181818;stroke-width:1.0;stroke-dasharray:2.0,2.0;" x1="538.25" x2="1118.875" y1="747.8396" y2="747.8396"/><text fill="#000000" font-family="sans-serif" font-size="20" font-weight="bold" lengthAdjust="spacing" textLength="23.25" x="550.25" y="739.9796">12</text><text fill="#000000" font-family="sans-serif" font-size="20" lengthAdjust="spacing" textLength="73" x="577.5" y="739.9796">courses</text><polygon fill="#181818" points="61,785.0796,51,789.0796,61,793.0796,57,789.0796" style="stroke:#181818;stroke-width:1.0;"/><line style="stroke:#181818;stroke-width:1.0;stroke-dasharray:2.0,2.0;" x1="55" x2="527.25" y1="789.0796" y2="789.0796"/><text fill="#000000" font-family="sans-serif" font-size="20" font-weight="bold" lengthAdjust="spacing" textLength="23.25" x="67" y="781.2196">13</text><text fill="#000000" font-family="sans-serif" font-size="20" lengthAdjust="spacing" textLength="228" x="94.25" y="781.2196">asks to select the course</text><polygon fill="#181818" points="511.25,826.3195,521.25,830.3195,511.25,834.3195,515.25,830.3195" style="stroke:#181818;stroke-width:1.0;"/><line style="stroke:#181818;stroke-width:1.0;" x1="50" x2="517.25" y1="830.3195" y2="830.3195"/><text fill="#000000" font-family="sans-serif" font-size="20" font-weight="bold" lengthAdjust="spacing" textLength="23.25" x="57" y="822.4596">14</text><text fill="#000000" font-family="sans-serif" font-size="20" lengthAdjust="spacing" textLength="167" x="84.25" y="822.4596">selects the course</text><polygon fill="#181818" points="61,867.5595,51,871.5595,61,875.5595,57,871.5595" style="stroke:#181818;stroke-width:1.0;"/><line style="stroke:#181818;stroke-width:1.0;stroke-dasharray:2.0,2.0;" x1="55" x2="527.25" y1="871.5595" y2="871.5595"/><text fill="#000000" font-family="sans-serif" font-size="20" font-weight="bold" lengthAdjust="spacing" textLength="23.25" x="67" y="863.6995">15</text><text fill="#000000" font-family="sans-serif" font-size="20" lengthAdjust="spacing" textLength="422" x="94.25" y="863.6995">asks to enter the date/time start and duration</text><polygon fill="#181818" points="511.25,908.7995,521.25,912.7995,511.25,916.7995,515.25,912.7995" style="stroke:#181818;stroke-width:1.0;"/><line style="stroke:#181818;stroke-width:1.0;" x1="50" x2="517.25" y1="912.7995" y2="912.7995"/><text fill="#000000" font-family="sans-serif" font-size="20" font-weight="bold" lengthAdjust="spacing" textLength="23.25" x="57" y="904.9395">16</text><text fill="#000000" font-family="sans-serif" font-size="20" lengthAdjust="spacing" textLength="423" x="84.25" y="904.9395">enters the day of the week, hour and duration</text><polygon fill="#181818" points="1102.875,950.0395,1112.875,954.0395,1102.875,958.0395,1106.875,954.0395" style="stroke:#181818;stroke-width:1.0;"/><line style="stroke:#181818;stroke-width:1.0;" x1="533.25" x2="1108.875" y1="954.0395" y2="954.0395"/><text fill="#000000" font-family="sans-serif" font-size="20" font-weight="bold" lengthAdjust="spacing" textLength="23.25" x="540.25" y="946.1795">17</text><text fill="#000000" font-family="sans-serif" font-size="20" lengthAdjust="spacing" textLength="493" x="567.5" y="946.1795">createClass(course, teacher, date, duration, students)</text><polygon fill="#181818" points="1790,991.2794,1800,995.2794,1790,999.2794,1794,995.2794" style="stroke:#181818;stroke-width:1.0;"/><line style="stroke:#181818;stroke-width:1.0;" x1="1124.875" x2="1796" y1="995.2794" y2="995.2794"/><text fill="#000000" font-family="sans-serif" font-size="20" font-weight="bold" lengthAdjust="spacing" textLength="23.25" x="1131.875" y="987.4195">18</text><text fill="#000000" font-family="sans-serif" font-size="20" lengthAdjust="spacing" textLength="184" x="1159.125" y="987.4195">isTeacherAvailable()</text><polygon fill="#181818" points="2241,1062.5194,2251,1066.5194,2241,1070.5194,2245,1066.5194" style="stroke:#181818;stroke-width:1.0;"/><line style="stroke:#181818;stroke-width:1.0;" x1="1124.875" x2="2247" y1="1066.5194" y2="1066.5194"/><text fill="#000000" font-family="sans-serif" font-size="20" font-weight="bold" lengthAdjust="spacing" textLength="23.25" x="1131.875" y="1058.6594">19</text><text fill="#000000" font-family="sans-serif" font-size="20" lengthAdjust="spacing" textLength="460" x="1159.125" y="1058.6594">new(dayInWeek, duration, houts, course, teacher)</text><polygon fill="#181818" points="2606.5,1133.7594,2616.5,1137.7594,2606.5,1141.7594,2610.5,1137.7594" style="stroke:#181818;stroke-width:1.0;"/><line style="stroke:#181818;stroke-width:1.0;" x1="1124.875" x2="2612.5" y1="1137.7594" y2="1137.7594"/><text fill="#000000" font-family="sans-serif" font-size="20" font-weight="bold" lengthAdjust="spacing" textLength="23.25" x="1131.875" y="1129.8994">20</text><text fill="#000000" font-family="sans-serif" font-size="20" lengthAdjust="spacing" textLength="100" x="1159.125" y="1129.8994">save(class)</text><polygon fill="#181818" points="1135.875,1174.9994,1125.875,1178.9994,1135.875,1182.9994,1131.875,1178.9994" style="stroke:#181818;stroke-width:1.0;"/><line style="stroke:#181818;stroke-width:1.0;stroke-dasharray:2.0,2.0;" x1="1129.875" x2="2622.5" y1="1178.9994" y2="1178.9994"/><text fill="#000000" font-family="sans-serif" font-size="20" font-weight="bold" lengthAdjust="spacing" textLength="23.25" x="1141.875" y="1171.1394">21</text><text fill="#000000" font-family="sans-serif" font-size="20" lengthAdjust="spacing" textLength="46" x="1169.125" y="1171.1394">class</text><polygon fill="#181818" points="544.25,1216.2393,534.25,1220.2393,544.25,1224.2393,540.25,1220.2393" style="stroke:#181818;stroke-width:1.0;"/><line style="stroke:#181818;stroke-width:1.0;stroke-dasharray:2.0,2.0;" x1="538.25" x2="1118.875" y1="1220.2393" y2="1220.2393"/><text fill="#000000" font-family="sans-serif" font-size="20" font-weight="bold" lengthAdjust="spacing" textLength="23.25" x="550.25" y="1212.3794">22</text><text fill="#000000" font-family="sans-serif" font-size="20" lengthAdjust="spacing" textLength="63" x="577.5" y="1212.3794">sucess</text><polygon fill="#181818" points="56,1257.4793,46,1261.4793,56,1265.4793,52,1261.4793" style="stroke:#181818;stroke-width:1.0;"/><line style="stroke:#181818;stroke-width:1.0;stroke-dasharray:2.0,2.0;" x1="50" x2="527.25" y1="1261.4793" y2="1261.4793"/><text fill="#000000" font-family="sans-serif" font-size="20" font-weight="bold" lengthAdjust="spacing" textLength="23.25" x="62" y="1253.6193">23</text><text fill="#000000" font-family="sans-serif" font-size="20" lengthAdjust="spacing" textLength="246" x="89.25" y="1253.6193">informs operation success</text><!--SRC=[bLHDRzim3BthLn0zjK2A3Ji6RO4ssu001bR4pdPMR6OLeaY69AV8VlseZ_WhJhhTBFczHrBaezq9LNF3zrANEwoWmYrlfFkkbSl57uGldnbld5RDVeE6CLuwRU2cG5w-eRa1Rg5Wn7UY53LN3cvo-b4r4XUIMxjU1iXw2GyFjK6Bod4dj7fwka9QK6oZfKpwYsAL4PtNjHJb93iJrYrqOopcQ0wYnCZBLp-9P-FLfOZF1ouatmWftB7Fpg-oOxGOXb2LtdEXfa5VYnyHHnyUwlGqBfGUaLbVabNSyGst216tmbfRGLqu1kpgsokXJNj9Z14X28zOsGJDzrOSk4FgA2lW_ictRKxmdGMdmQO70mwbL-pWwoLZ12L2QDKS5BxVbiEeCoX7sS_0nI7ghkuwJQ_4WfoNzRsOWnot-J446kdsHOZ7AXoUJw9v5ENd_N-SpFzQjlaeqFWSgXc-aI_cMSgbUZNwDpd3PbYwnc3rSapckls7v_X08UKyVf8Wu8Ny5CnXArJr_qB4PK7Wlaifzi8EIlSu9hMkOKkRm-ia60De4o6kqsIGrCqx-jSfU610UGV5wHe2w9xE_Q3dDmnL1JuDbihlMZ6LTJSf9nzCeTgs4gZeUmKbFI6uDppLscDvktJsYb3Rn_QHw-LOcrOecW0dd-Cd9_O8rj4-0KuLLeq9A_9omC2tIU08UXi-tn5tCtYZ18OomrnwyriQfEkmMrBJMelCGcQpLcH6-JKLnRMN9ZfvKTWqRsafIxpzo6Ij9qvxXsfQgb-XcYu-rUNiQGMrUVQpoGPzxNajYnwn_81n9mnOmGHPwuBqD64z3lG2RZ1EjYdHdazJrs-Xo2zx2xh6M8QdZ3c-jRrZmVu2]--></g></svg>