<?xml version="1.0" encoding="UTF-8" standalone="no"?><svg xmlns="http://www.w3.org/2000/svg" xmlns:xlink="http://www.w3.org/1999/xlink" contentStyleType="text/css" height="1395px" preserveAspectRatio="none" style="width:2816px;height:1395px;background:#FFFFFF;" version="1.1" viewBox="0 0 2816 1395" width="2816px" zoomAndPan="magnify"><defs/><g><rect fill="#FFFFFF" height="1145.9994" style="stroke:#181818;stroke-width:1.0;" width="10" x="41.5" y="115.4799"/><rect fill="#FFFFFF" height="640.3596" style="stroke:#181818;stroke-width:1.0;" width="10" x="545.75" y="148.7199"/><rect fill="#FFFFFF" height="41.24" style="stroke:#181818;stroke-width:1.0;" width="10" x="545.75" y="830.3195"/><rect fill="#FFFFFF" height="348.6798" style="stroke:#181818;stroke-width:1.0;" width="10" x="545.75" y="912.7995"/><rect fill="#FFFFFF" height="142.4799" style="stroke:#181818;stroke-width:1.0;" width="10" x="1153.375" y="189.9599"/><rect fill="#FFFFFF" height="374.1598" style="stroke:#181818;stroke-width:1.0;" width="10" x="1153.375" y="373.6798"/><rect fill="#FFFFFF" height="266.1999" style="stroke:#181818;stroke-width:1.0;" width="10" x="1153.375" y="954.0395"/><rect fill="#FFFFFF" height="30" style="stroke:#181818;stroke-width:1.0;" width="10" x="1628" y="231.1999"/><rect fill="#FFFFFF" height="291.6798" style="stroke:#181818;stroke-width:1.0;" width="10" x="1628" y="414.9198"/><rect fill="#FFFFFF" height="30" style="stroke:#181818;stroke-width:1.0;" width="10" x="1866.5" y="302.4398"/><rect fill="#FFFFFF" height="30" style="stroke:#181818;stroke-width:1.0;" width="10" x="1866.5" y="995.2794"/><rect fill="#FFFFFF" height="71.24" style="stroke:#181818;stroke-width:1.0;" width="10" x="2065" y="587.1197"/><rect fill="#FFFFFF" height="30" style="stroke:#181818;stroke-width:1.0;" width="10" x="2188" y="628.3596"/><rect fill="#FFFFFF" height="30" style="stroke:#181818;stroke-width:1.0;" width="10" x="2324.5" y="1066.5194"/><rect fill="#FFFFFF" height="41.24" style="stroke:#181818;stroke-width:1.0;" width="10" x="2487.5" y="456.1598"/><rect fill="#FFFFFF" height="41.24" style="stroke:#181818;stroke-width:1.0;" width="10" x="2698" y="1137.7594"/><rect fill="none" height="153.9599" style="stroke:#000000;stroke-width:1.5;" width="733" x="1531.5" y="512.3997"/><line style="stroke:#181818;stroke-width:0.5;stroke-dasharray:5.0,5.0;" x1="46" x2="46" y1="105.4799" y2="1279.4793"/><line style="stroke:#181818;stroke-width:0.5;stroke-dasharray:5.0,5.0;" x1="550.75" x2="550.75" y1="105.4799" y2="1279.4793"/><line style="stroke:#181818;stroke-width:0.5;stroke-dasharray:5.0,5.0;" x1="1158.375" x2="1158.375" y1="105.4799" y2="1279.4793"/><line style="stroke:#181818;stroke-width:0.5;stroke-dasharray:5.0,5.0;" x1="1632.5" x2="1632.5" y1="105.4799" y2="1279.4793"/><line style="stroke:#181818;stroke-width:0.5;stroke-dasharray:5.0,5.0;" x1="1871.5" x2="1871.5" y1="105.4799" y2="1279.4793"/><line style="stroke:#181818;stroke-width:0.5;stroke-dasharray:5.0,5.0;" x1="2069.5" x2="2069.5" y1="105.4799" y2="1279.4793"/><line style="stroke:#181818;stroke-width:0.5;stroke-dasharray:5.0,5.0;" x1="2192.5" x2="2192.5" y1="105.4799" y2="1279.4793"/><line style="stroke:#181818;stroke-width:0.5;stroke-dasharray:5.0,5.0;" x1="2329.5" x2="2329.5" y1="105.4799" y2="1279.4793"/><line style="stroke:#181818;stroke-width:0.5;stroke-dasharray:5.0,5.0;" x1="2492.5" x2="2492.5" y1="105.4799" y2="1279.4793"/><line style="stroke:#181818;stroke-width:0.5;stroke-dasharray:5.0,5.0;" x1="2702.5" x2="2702.5" y1="105.4799" y2="1279.4793"/><text fill="#000000" font-family="sans-serif" font-size="20" lengthAdjust="spacing" textLength="77" x="5" y="99.62">Teacher</text><ellipse cx="46.5" cy="26.74" fill="#E2E2F0" rx="8" ry="8" style="stroke:#181818;stroke-width:0.5;"/><path d="M46.5,34.74 L46.5,61.74 M33.5,42.74 L59.5,42.74 M46.5,61.74 L33.5,76.74 M46.5,61.74 L59.5,76.74 " fill="none" style="stroke:#181818;stroke-width:0.5;"/><text fill="#000000" font-family="sans-serif" font-size="20" lengthAdjust="spacing" textLength="77" x="5" y="1299.8593">Teacher</text><ellipse cx="46.5" cy="1314.2193" fill="#E2E2F0" rx="8" ry="8" style="stroke:#181818;stroke-width:0.5;"/><path d="M46.5,1322.2193 L46.5,1349.2193 M33.5,1330.2193 L59.5,1330.2193 M46.5,1349.2193 L33.5,1364.2193 M46.5,1349.2193 L59.5,1364.2193 " fill="none" style="stroke:#181818;stroke-width:0.5;"/><rect fill="#E2E2F0" height="68.4799" rx="2.5" ry="2.5" style="stroke:#181818;stroke-width:0.5;" width="172" x="464.75" y="36"/><text fill="#000000" font-family="sans-serif" font-size="20" font-style="italic" lengthAdjust="spacing" textLength="134" x="483.75" y="64.38">«presentation»</text><text fill="#000000" font-family="sans-serif" font-size="20" lengthAdjust="spacing" textLength="158" x="471.75" y="91.62">ScheduleClassUI</text><rect fill="#E2E2F0" height="68.4799" rx="2.5" ry="2.5" style="stroke:#181818;stroke-width:0.5;" width="172" x="464.75" y="1278.4793"/><text fill="#000000" font-family="sans-serif" font-size="20" font-style="italic" lengthAdjust="spacing" textLength="134" x="483.75" y="1306.8593">«presentation»</text><text fill="#000000" font-family="sans-serif" font-size="20" lengthAdjust="spacing" textLength="158" x="471.75" y="1334.0993">ScheduleClassUI</text><rect fill="#E2E2F0" height="68.4799" rx="2.5" ry="2.5" style="stroke:#181818;stroke-width:0.5;" width="248" x="1034.375" y="36"/><text fill="#000000" font-family="sans-serif" font-size="20" font-style="italic" lengthAdjust="spacing" textLength="120" x="1098.375" y="64.38">«application»</text><text fill="#000000" font-family="sans-serif" font-size="20" lengthAdjust="spacing" textLength="234" x="1041.375" y="91.62">ScheduleClassController</text><rect fill="#E2E2F0" height="68.4799" rx="2.5" ry="2.5" style="stroke:#181818;stroke-width:0.5;" width="248" x="1034.375" y="1278.4793"/><text fill="#000000" font-family="sans-serif" font-size="20" font-style="italic" lengthAdjust="spacing" textLength="120" x="1098.375" y="1306.8593">«application»</text><text fill="#000000" font-family="sans-serif" font-size="20" lengthAdjust="spacing" textLength="234" x="1041.375" y="1334.0993">ScheduleClassController</text><rect fill="#E2E2F0" height="68.4799" rx="2.5" ry="2.5" style="stroke:#181818;stroke-width:0.5;" width="183" x="1541.5" y="36"/><text fill="#000000" font-family="sans-serif" font-size="20" font-style="italic" lengthAdjust="spacing" textLength="80" x="1593" y="64.38">«service»</text><text fill="#000000" font-family="sans-serif" font-size="20" lengthAdjust="spacing" textLength="169" x="1548.5" y="91.62">ListCourseService</text><rect fill="#E2E2F0" height="68.4799" rx="2.5" ry="2.5" style="stroke:#181818;stroke-width:0.5;" width="183" x="1541.5" y="1278.4793"/><text fill="#000000" font-family="sans-serif" font-size="20" font-style="italic" lengthAdjust="spacing" textLength="80" x="1593" y="1306.8593">«service»</text><text fill="#000000" font-family="sans-serif" font-size="20" lengthAdjust="spacing" textLength="169" x="1548.5" y="1334.0993">ListCourseService</text><rect fill="#E2E2F0" height="68.4799" rx="2.5" ry="2.5" style="stroke:#181818;stroke-width:0.5;" width="274" x="1734.5" y="36"/><text fill="#000000" font-family="sans-serif" font-size="20" font-style="italic" lengthAdjust="spacing" textLength="80" x="1831.5" y="64.38">«service»</text><text fill="#000000" font-family="sans-serif" font-size="20" lengthAdjust="spacing" textLength="260" x="1741.5" y="91.62">ScheduleAvailabilityService</text><rect fill="#E2E2F0" height="68.4799" rx="2.5" ry="2.5" style="stroke:#181818;stroke-width:0.5;" width="274" x="1734.5" y="1278.4793"/><text fill="#000000" font-family="sans-serif" font-size="20" font-style="italic" lengthAdjust="spacing" textLength="80" x="1831.5" y="1306.8593">«service»</text><text fill="#000000" font-family="sans-serif" font-size="20" lengthAdjust="spacing" textLength="260" x="1741.5" y="1334.0993">ScheduleAvailabilityService</text><rect fill="#E2E2F0" height="68.4799" rx="2.5" ry="2.5" style="stroke:#181818;stroke-width:0.5;" width="103" x="2018.5" y="36"/><text fill="#000000" font-family="sans-serif" font-size="20" font-style="italic" lengthAdjust="spacing" textLength="89" x="2025.5" y="64.38">«domain»</text><text fill="#000000" font-family="sans-serif" font-size="20" lengthAdjust="spacing" textLength="67" x="2036.5" y="91.62">Course</text><rect fill="#E2E2F0" height="68.4799" rx="2.5" ry="2.5" style="stroke:#181818;stroke-width:0.5;" width="103" x="2018.5" y="1278.4793"/><text fill="#000000" font-family="sans-serif" font-size="20" font-style="italic" lengthAdjust="spacing" textLength="89" x="2025.5" y="1306.8593">«domain»</text><text fill="#000000" font-family="sans-serif" font-size="20" lengthAdjust="spacing" textLength="67" x="2036.5" y="1334.0993">Course</text><rect fill="#E2E2F0" height="68.4799" rx="2.5" ry="2.5" style="stroke:#181818;stroke-width:0.5;" width="123" x="2131.5" y="36"/><text fill="#000000" font-family="sans-serif" font-size="20" font-style="italic" lengthAdjust="spacing" textLength="50" x="2168" y="64.38">«dto»</text><text fill="#000000" font-family="sans-serif" font-size="20" lengthAdjust="spacing" textLength="109" x="2138.5" y="91.62">CourseDTO</text><rect fill="#E2E2F0" height="68.4799" rx="2.5" ry="2.5" style="stroke:#181818;stroke-width:0.5;" width="123" x="2131.5" y="1278.4793"/><text fill="#000000" font-family="sans-serif" font-size="20" font-style="italic" lengthAdjust="spacing" textLength="50" x="2168" y="1306.8593">«dto»</text><text fill="#000000" font-family="sans-serif" font-size="20" lengthAdjust="spacing" textLength="109" x="2138.5" y="1334.0993">CourseDTO</text><rect fill="#E2E2F0" height="68.4799" rx="2.5" ry="2.5" style="stroke:#181818;stroke-width:0.5;" width="130" x="2264.5" y="36"/><text fill="#000000" font-family="sans-serif" font-size="20" font-style="italic" lengthAdjust="spacing" textLength="89" x="2285" y="64.38">«domain»</text><text fill="#000000" font-family="sans-serif" font-size="20" lengthAdjust="spacing" textLength="116" x="2271.5" y="91.62">CourseClass</text><rect fill="#E2E2F0" height="68.4799" rx="2.5" ry="2.5" style="stroke:#181818;stroke-width:0.5;" width="130" x="2264.5" y="1278.4793"/><text fill="#000000" font-family="sans-serif" font-size="20" font-style="italic" lengthAdjust="spacing" textLength="89" x="2285" y="1306.8593">«domain»</text><text fill="#000000" font-family="sans-serif" font-size="20" lengthAdjust="spacing" textLength="116" x="2271.5" y="1334.0993">CourseClass</text><text fill="#000000" font-family="sans-serif" font-size="20" font-style="italic" lengthAdjust="spacing" textLength="110" x="2434.5" y="72.38">«repository»</text><text fill="#000000" font-family="sans-serif" font-size="20" lengthAdjust="spacing" textLength="170" x="2404.5" y="99.62">CourseRepository</text><path d="M2474.5,15 C2474.5,5 2492.5,5 2492.5,5 C2492.5,5 2510.5,5 2510.5,15 L2510.5,41 C2510.5,51 2492.5,51 2492.5,51 C2492.5,51 2474.5,51 2474.5,41 L2474.5,15 " fill="#E2E2F0" style="stroke:#181818;stroke-width:1.5;"/><path d="M2474.5,15 C2474.5,25 2492.5,25 2492.5,25 C2492.5,25 2510.5,25 2510.5,15 " fill="none" style="stroke:#181818;stroke-width:1.5;"/><text fill="#000000" font-family="sans-serif" font-size="20" font-style="italic" lengthAdjust="spacing" textLength="110" x="2434.5" y="1299.8593">«repository»</text><text fill="#000000" font-family="sans-serif" font-size="20" lengthAdjust="spacing" textLength="170" x="2404.5" y="1327.0993">CourseRepository</text><path d="M2474.5,1342.9593 C2474.5,1332.9593 2492.5,1332.9593 2492.5,1332.9593 C2492.5,1332.9593 2510.5,1332.9593 2510.5,1342.9593 L2510.5,1368.9593 C2510.5,1378.9593 2492.5,1378.9593 2492.5,1378.9593 C2492.5,1378.9593 2474.5,1378.9593 2474.5,1368.9593 L2474.5,1342.9593 " fill="#E2E2F0" style="stroke:#181818;stroke-width:1.5;"/><path d="M2474.5,1342.9593 C2474.5,1352.9593 2492.5,1352.9593 2492.5,1352.9593 C2492.5,1352.9593 2510.5,1352.9593 2510.5,1342.9593 " fill="none" style="stroke:#181818;stroke-width:1.5;"/><text fill="#000000" font-family="sans-serif" font-size="20" font-style="italic" lengthAdjust="spacing" textLength="110" x="2645" y="72.38">«repository»</text><text fill="#000000" font-family="sans-serif" font-size="20" lengthAdjust="spacing" textLength="219" x="2590.5" y="99.62">CourseClassRepository</text><path d="M2685,15 C2685,5 2703,5 2703,5 C2703,5 2721,5 2721,15 L2721,41 C2721,51 2703,51 2703,51 C2703,51 2685,51 2685,41 L2685,15 " fill="#E2E2F0" style="stroke:#181818;stroke-width:1.5;"/><path d="M2685,15 C2685,25 2703,25 2703,25 C2703,25 2721,25 2721,15 " fill="none" style="stroke:#181818;stroke-width:1.5;"/><text fill="#000000" font-family="sans-serif" font-size="20" font-style="italic" lengthAdjust="spacing" textLength="110" x="2645" y="1299.8593">«repository»</text><text fill="#000000" font-family="sans-serif" font-size="20" lengthAdjust="spacing" textLength="219" x="2590.5" y="1327.0993">CourseClassRepository</text><path d="M2685,1342.9593 C2685,1332.9593 2703,1332.9593 2703,1332.9593 C2703,1332.9593 2721,1332.9593 2721,1342.9593 L2721,1368.9593 C2721,1378.9593 2703,1378.9593 2703,1378.9593 C2703,1378.9593 2685,1378.9593 2685,1368.9593 L2685,1342.9593 " fill="#E2E2F0" style="stroke:#181818;stroke-width:1.5;"/><path d="M2685,1342.9593 C2685,1352.9593 2703,1352.9593 2703,1352.9593 C2703,1352.9593 2721,1352.9593 2721,1342.9593 " fill="none" style="stroke:#181818;stroke-width:1.5;"/><rect fill="#FFFFFF" height="1145.9994" style="stroke:#181818;stroke-width:1.0;" width="10" x="41.5" y="115.4799"/><rect fill="#FFFFFF" height="640.3596" style="stroke:#181818;stroke-width:1.0;" width="10" x="545.75" y="148.7199"/><rect fill="#FFFFFF" height="41.24" style="stroke:#181818;stroke-width:1.0;" width="10" x="545.75" y="830.3195"/><rect fill="#FFFFFF" height="348.6798" style="stroke:#181818;stroke-width:1.0;" width="10" x="545.75" y="912.7995"/><rect fill="#FFFFFF" height="142.4799" style="stroke:#181818;stroke-width:1.0;" width="10" x="1153.375" y="189.9599"/><rect fill="#FFFFFF" height="374.1598" style="stroke:#181818;stroke-width:1.0;" width="10" x="1153.375" y="373.6798"/><rect fill="#FFFFFF" height="266.1999" style="stroke:#181818;stroke-width:1.0;" width="10" x="1153.375" y="954.0395"/><rect fill="#FFFFFF" height="30" style="stroke:#181818;stroke-width:1.0;" width="10" x="1628" y="231.1999"/><rect fill="#FFFFFF" height="291.6798" style="stroke:#181818;stroke-width:1.0;" width="10" x="1628" y="414.9198"/><rect fill="#FFFFFF" height="30" style="stroke:#181818;stroke-width:1.0;" width="10" x="1866.5" y="302.4398"/><rect fill="#FFFFFF" height="30" style="stroke:#181818;stroke-width:1.0;" width="10" x="1866.5" y="995.2794"/><rect fill="#FFFFFF" height="71.24" style="stroke:#181818;stroke-width:1.0;" width="10" x="2065" y="587.1197"/><rect fill="#FFFFFF" height="30" style="stroke:#181818;stroke-width:1.0;" width="10" x="2188" y="628.3596"/><rect fill="#FFFFFF" height="30" style="stroke:#181818;stroke-width:1.0;" width="10" x="2324.5" y="1066.5194"/><rect fill="#FFFFFF" height="41.24" style="stroke:#181818;stroke-width:1.0;" width="10" x="2487.5" y="456.1598"/><rect fill="#FFFFFF" height="41.24" style="stroke:#181818;stroke-width:1.0;" width="10" x="2698" y="1137.7594"/><polygon fill="#181818" points="533.75,144.7199,543.75,148.7199,533.75,152.7199,537.75,148.7199" style="stroke:#181818;stroke-width:1.0;"/><line style="stroke:#181818;stroke-width:1.0;" x1="51.5" x2="539.75" y1="148.7199" y2="148.7199"/><text fill="#000000" font-family="sans-serif" font-size="20" font-weight="bold" lengthAdjust="spacing" textLength="11.625" x="58.5" y="140.8599">1</text><text fill="#000000" font-family="sans-serif" font-size="20" lengthAdjust="spacing" textLength="225" x="74.125" y="140.8599">asks to schedule a class</text><polygon fill="#181818" points="1141.375,185.9599,1151.375,189.9599,1141.375,193.9599,1145.375,189.9599" style="stroke:#181818;stroke-width:1.0;"/><line style="stroke:#181818;stroke-width:1.0;" x1="555.75" x2="1147.375" y1="189.9599" y2="189.9599"/><text fill="#000000" font-family="sans-serif" font-size="20" font-weight="bold" lengthAdjust="spacing" textLength="11.625" x="562.75" y="182.0999">2</text><text fill="#000000" font-family="sans-serif" font-size="20" lengthAdjust="spacing" textLength="563" x="578.375" y="182.0999">new(classRepository, courseRepository, teacherRepository)</text><polygon fill="#181818" points="1616,227.1999,1626,231.1999,1616,235.1999,1620,231.1999" style="stroke:#181818;stroke-width:1.0;"/><line style="stroke:#181818;stroke-width:1.0;" x1="1163.375" x2="1622" y1="231.1999" y2="231.1999"/><text fill="#000000" font-family="sans-serif" font-size="20" font-weight="bold" lengthAdjust="spacing" textLength="11.625" x="1170.375" y="223.3399">3</text><text fill="#000000" font-family="sans-serif" font-size="20" lengthAdjust="spacing" textLength="394" x="1186" y="223.3399">listCourseService=new(courseRepository)</text><polygon fill="#181818" points="1854.5,298.4398,1864.5,302.4398,1854.5,306.4398,1858.5,302.4398" style="stroke:#181818;stroke-width:1.0;"/><line style="stroke:#181818;stroke-width:1.0;" x1="1163.375" x2="1860.5" y1="302.4398" y2="302.4398"/><text fill="#000000" font-family="sans-serif" font-size="20" font-weight="bold" lengthAdjust="spacing" textLength="11.625" x="1170.375" y="294.5799">4</text><text fill="#000000" font-family="sans-serif" font-size="20" lengthAdjust="spacing" textLength="568" x="1186" y="294.5799">availabilityService=new(classRepository, teacherRepository)</text><polygon fill="#181818" points="1141.375,369.6798,1151.375,373.6798,1141.375,377.6798,1145.375,373.6798" style="stroke:#181818;stroke-width:1.0;"/><line style="stroke:#181818;stroke-width:1.0;" x1="555.75" x2="1147.375" y1="373.6798" y2="373.6798"/><text fill="#000000" font-family="sans-serif" font-size="20" font-weight="bold" lengthAdjust="spacing" textLength="11.625" x="562.75" y="365.8198">5</text><text fill="#000000" font-family="sans-serif" font-size="20" lengthAdjust="spacing" textLength="358" x="578.375" y="365.8198">listAllInProgressLecturedByTeacher()</text><polygon fill="#181818" points="1616,410.9198,1626,414.9198,1616,418.9198,1620,414.9198" style="stroke:#181818;stroke-width:1.0;"/><line style="stroke:#181818;stroke-width:1.0;" x1="1163.375" x2="1622" y1="414.9198" y2="414.9198"/><text fill="#000000" font-family="sans-serif" font-size="20" font-weight="bold" lengthAdjust="spacing" textLength="11.625" x="1170.375" y="407.0598">6</text><text fill="#000000" font-family="sans-serif" font-size="20" lengthAdjust="spacing" textLength="430" x="1186" y="407.0598">listAllInProgressLecturedByTeacher(teacher)</text><polygon fill="#181818" points="2475.5,452.1598,2485.5,456.1598,2475.5,460.1598,2479.5,456.1598" style="stroke:#181818;stroke-width:1.0;"/><line style="stroke:#181818;stroke-width:1.0;" x1="1638" x2="2481.5" y1="456.1598" y2="456.1598"/><text fill="#000000" font-family="sans-serif" font-size="20" font-weight="bold" lengthAdjust="spacing" textLength="11.625" x="1645" y="448.2998">7</text><text fill="#000000" font-family="sans-serif" font-size="20" lengthAdjust="spacing" textLength="440" x="1660.625" y="448.2998">findAllInProgressLecturedByTeacher(teacher)</text><polygon fill="#181818" points="1649,493.3997,1639,497.3997,1649,501.3997,1645,497.3997" style="stroke:#181818;stroke-width:1.0;"/><line style="stroke:#181818;stroke-width:1.0;stroke-dasharray:2.0,2.0;" x1="1643" x2="2491.5" y1="497.3997" y2="497.3997"/><text fill="#000000" font-family="sans-serif" font-size="20" font-weight="bold" lengthAdjust="spacing" textLength="11.625" x="1655" y="489.5398">8</text><text fill="#000000" font-family="sans-serif" font-size="20" lengthAdjust="spacing" textLength="74" x="1670.625" y="489.5398">courses</text><path d="M1531.5,512.3997 L1622,512.3997 L1622,531.6397 L1612,541.6397 L1531.5,541.6397 L1531.5,512.3997 " fill="#EEEEEE" style="stroke:#000000;stroke-width:1.5;"/><rect fill="none" height="153.9599" style="stroke:#000000;stroke-width:1.5;" width="733" x="1531.5" y="512.3997"/><text fill="#000000" font-family="sans-serif" font-size="20" font-weight="bold" lengthAdjust="spacing" textLength="45.5" x="1546.5" y="534.7797">loop</text><text fill="#000000" font-family="sans-serif" font-size="20" font-weight="bold" lengthAdjust="spacing" textLength="169.375" x="1637" y="535.7797">[for each course]</text><polygon fill="#181818" points="2053,583.1197,2063,587.1197,2053,591.1197,2057,587.1197" style="stroke:#181818;stroke-width:1.0;"/><line style="stroke:#181818;stroke-width:1.0;" x1="1638" x2="2059" y1="587.1197" y2="587.1197"/><text fill="#000000" font-family="sans-serif" font-size="20" font-weight="bold" lengthAdjust="spacing" textLength="11.625" x="1645" y="579.2597">9</text><text fill="#000000" font-family="sans-serif" font-size="20" lengthAdjust="spacing" textLength="138" x="1660.625" y="579.2597">toDTO(course)</text><polygon fill="#181818" points="2176,624.3596,2186,628.3596,2176,632.3596,2180,628.3596" style="stroke:#181818;stroke-width:1.0;"/><line style="stroke:#181818;stroke-width:1.0;" x1="2075" x2="2182" y1="628.3596" y2="628.3596"/><text fill="#000000" font-family="sans-serif" font-size="20" font-weight="bold" lengthAdjust="spacing" textLength="23.25" x="2082" y="620.4997">10</text><text fill="#000000" font-family="sans-serif" font-size="20" lengthAdjust="spacing" textLength="52" x="2109.25" y="620.4997">new()</text><polygon fill="#181818" points="1174.375,702.5996,1164.375,706.5996,1174.375,710.5996,1170.375,706.5996" style="stroke:#181818;stroke-width:1.0;"/><line style="stroke:#181818;stroke-width:1.0;stroke-dasharray:2.0,2.0;" x1="1168.375" x2="1632" y1="706.5996" y2="706.5996"/><text fill="#000000" font-family="sans-serif" font-size="20" font-weight="bold" lengthAdjust="spacing" textLength="23.25" x="1180.375" y="698.7396">11</text><text fill="#000000" font-family="sans-serif" font-size="20" lengthAdjust="spacing" textLength="74" x="1207.625" y="698.7396">courses</text><polygon fill="#181818" points="566.75,743.8396,556.75,747.8396,566.75,751.8396,562.75,747.8396" style="stroke:#181818;stroke-width:1.0;"/><line style="stroke:#181818;stroke-width:1.0;stroke-dasharray:2.0,2.0;" x1="560.75" x2="1157.375" y1="747.8396" y2="747.8396"/><text fill="#000000" font-family="sans-serif" font-size="20" font-weight="bold" lengthAdjust="spacing" textLength="23.25" x="572.75" y="739.9796">12</text><text fill="#000000" font-family="sans-serif" font-size="20" lengthAdjust="spacing" textLength="74" x="600" y="739.9796">courses</text><polygon fill="#181818" points="62.5,785.0796,52.5,789.0796,62.5,793.0796,58.5,789.0796" style="stroke:#181818;stroke-width:1.0;"/><line style="stroke:#181818;stroke-width:1.0;stroke-dasharray:2.0,2.0;" x1="56.5" x2="549.75" y1="789.0796" y2="789.0796"/><text fill="#000000" font-family="sans-serif" font-size="20" font-weight="bold" lengthAdjust="spacing" textLength="23.25" x="68.5" y="781.2196">13</text><text fill="#000000" font-family="sans-serif" font-size="20" lengthAdjust="spacing" textLength="233" x="95.75" y="781.2196">asks to select the course</text><polygon fill="#181818" points="533.75,826.3195,543.75,830.3195,533.75,834.3195,537.75,830.3195" style="stroke:#181818;stroke-width:1.0;"/><line style="stroke:#181818;stroke-width:1.0;" x1="51.5" x2="539.75" y1="830.3195" y2="830.3195"/><text fill="#000000" font-family="sans-serif" font-size="20" font-weight="bold" lengthAdjust="spacing" textLength="23.25" x="58.5" y="822.4596">14</text><text fill="#000000" font-family="sans-serif" font-size="20" lengthAdjust="spacing" textLength="171" x="85.75" y="822.4596">selects the course</text><polygon fill="#181818" points="62.5,867.5595,52.5,871.5595,62.5,875.5595,58.5,871.5595" style="stroke:#181818;stroke-width:1.0;"/><line style="stroke:#181818;stroke-width:1.0;stroke-dasharray:2.0,2.0;" x1="56.5" x2="549.75" y1="871.5595" y2="871.5595"/><text fill="#000000" font-family="sans-serif" font-size="20" font-weight="bold" lengthAdjust="spacing" textLength="23.25" x="68.5" y="863.6995">15</text><text fill="#000000" font-family="sans-serif" font-size="20" lengthAdjust="spacing" textLength="443" x="95.75" y="863.6995">asks to enter the date/time start and duration</text><polygon fill="#181818" points="533.75,908.7995,543.75,912.7995,533.75,916.7995,537.75,912.7995" style="stroke:#181818;stroke-width:1.0;"/><line style="stroke:#181818;stroke-width:1.0;" x1="51.5" x2="539.75" y1="912.7995" y2="912.7995"/><text fill="#000000" font-family="sans-serif" font-size="20" font-weight="bold" lengthAdjust="spacing" textLength="23.25" x="58.5" y="904.9395">16</text><text fill="#000000" font-family="sans-serif" font-size="20" lengthAdjust="spacing" textLength="443" x="85.75" y="904.9395">enters the day of the week, hour and duration</text><polygon fill="#181818" points="1141.375,950.0395,1151.375,954.0395,1141.375,958.0395,1145.375,954.0395" style="stroke:#181818;stroke-width:1.0;"/><line style="stroke:#181818;stroke-width:1.0;" x1="555.75" x2="1147.375" y1="954.0395" y2="954.0395"/><text fill="#000000" font-family="sans-serif" font-size="20" font-weight="bold" lengthAdjust="spacing" textLength="23.25" x="562.75" y="946.1795">17</text><text fill="#000000" font-family="sans-serif" font-size="20" lengthAdjust="spacing" textLength="510" x="590" y="946.1795">createClass(course, teacher, date, duration, students)</text><polygon fill="#181818" points="1854.5,991.2794,1864.5,995.2794,1854.5,999.2794,1858.5,995.2794" style="stroke:#181818;stroke-width:1.0;"/><line style="stroke:#181818;stroke-width:1.0;" x1="1163.375" x2="1860.5" y1="995.2794" y2="995.2794"/><text fill="#000000" font-family="sans-serif" font-size="20" font-weight="bold" lengthAdjust="spacing" textLength="23.25" x="1170.375" y="987.4195">18</text><text fill="#000000" font-family="sans-serif" font-size="20" lengthAdjust="spacing" textLength="192" x="1197.625" y="987.4195">isTeacherAvailable()</text><polygon fill="#181818" points="2312.5,1062.5194,2322.5,1066.5194,2312.5,1070.5194,2316.5,1066.5194" style="stroke:#181818;stroke-width:1.0;"/><line style="stroke:#181818;stroke-width:1.0;" x1="1163.375" x2="2318.5" y1="1066.5194" y2="1066.5194"/><text fill="#000000" font-family="sans-serif" font-size="20" font-weight="bold" lengthAdjust="spacing" textLength="23.25" x="1170.375" y="1058.6594">19</text><text fill="#000000" font-family="sans-serif" font-size="20" lengthAdjust="spacing" textLength="475" x="1197.625" y="1058.6594">new(dayInWeek, duration, houts, course, teacher)</text><polygon fill="#181818" points="2686,1133.7594,2696,1137.7594,2686,1141.7594,2690,1137.7594" style="stroke:#181818;stroke-width:1.0;"/><line style="stroke:#181818;stroke-width:1.0;" x1="1163.375" x2="2692" y1="1137.7594" y2="1137.7594"/><text fill="#000000" font-family="sans-serif" font-size="20" font-weight="bold" lengthAdjust="spacing" textLength="23.25" x="1170.375" y="1129.8994">20</text><text fill="#000000" font-family="sans-serif" font-size="20" lengthAdjust="spacing" textLength="100" x="1197.625" y="1129.8994">save(class)</text><polygon fill="#181818" points="1174.375,1174.9994,1164.375,1178.9994,1174.375,1182.9994,1170.375,1178.9994" style="stroke:#181818;stroke-width:1.0;"/><line style="stroke:#181818;stroke-width:1.0;stroke-dasharray:2.0,2.0;" x1="1168.375" x2="2702" y1="1178.9994" y2="1178.9994"/><text fill="#000000" font-family="sans-serif" font-size="20" font-weight="bold" lengthAdjust="spacing" textLength="23.25" x="1180.375" y="1171.1394">21</text><text fill="#000000" font-family="sans-serif" font-size="20" lengthAdjust="spacing" textLength="46" x="1207.625" y="1171.1394">class</text><polygon fill="#181818" points="566.75,1216.2393,556.75,1220.2393,566.75,1224.2393,562.75,1220.2393" style="stroke:#181818;stroke-width:1.0;"/><line style="stroke:#181818;stroke-width:1.0;stroke-dasharray:2.0,2.0;" x1="560.75" x2="1157.375" y1="1220.2393" y2="1220.2393"/><text fill="#000000" font-family="sans-serif" font-size="20" font-weight="bold" lengthAdjust="spacing" textLength="23.25" x="572.75" y="1212.3794">22</text><text fill="#000000" font-family="sans-serif" font-size="20" lengthAdjust="spacing" textLength="63" x="600" y="1212.3794">sucess</text><polygon fill="#181818" points="57.5,1257.4793,47.5,1261.4793,57.5,1265.4793,53.5,1261.4793" style="stroke:#181818;stroke-width:1.0;"/><line style="stroke:#181818;stroke-width:1.0;stroke-dasharray:2.0,2.0;" x1="51.5" x2="549.75" y1="1261.4793" y2="1261.4793"/><text fill="#000000" font-family="sans-serif" font-size="20" font-weight="bold" lengthAdjust="spacing" textLength="23.25" x="63.5" y="1253.6193">23</text><text fill="#000000" font-family="sans-serif" font-size="20" lengthAdjust="spacing" textLength="254" x="90.75" y="1253.6193">informs operation success</text><!--SRC=[bLHDRzim3BthLn0zjK2A3Ji6RO4ssu001bR4pdPMR6OLeaY69AV8VlseZ_WhJhhTBFczHrBaezq9LNF3zrANEwoWmYrlfFkkbSl57uGldnbld5RDVeE6CLuwRU2cG5w-eRa1Rg5Wn7UY53LN3cvo-b4r4XUIMxjU1iXw2GyFjK6Bod4dj7fwka9QK6oZfKpwYsAL4PtNjHJb93iJrYrqOopcQ0wYnCZBLp-9P-FLfOZF1ouatmWftB7Fpg-oOxGOXb2LtdEXfa5VYnyHHnyUwlGqBfGUaLbVabNSyGst216tmbfRGLqu1kpgsokXJNj9Z14X28zOsGJDzrOSk4FgA2lW_ictRKxmdGMdmQO70mwbL-pWwoLZ12L2QDKS5BxVbiEeCoX7sS_0nI7ghkuwJQ_4WfoNzRsOWnot-J446kdsHOZ7AXoUJw9v5ENd_N-SpFzQjlaeqFWSgXc-aI_cMSgbUZNwDpd3PbYwnc3rSapckls7v_X08UKyVf8Wu8Ny5CnXArJr_qB4PK7Wlaifzi8EIlSu9hMkOKkRm-ia60De4o6kqsIGrCqx-jSfU610UGV5wHe2w9xE_Q3dDmnL1JuDbihlMZ6LTJSf9nzCeTgs4gZeUmKbFI6uDppLscDvktJsYb3Rn_QHw-LOcrOecW0dd-Cd9_O8rj4-0KuLLeq9A_9omC2tIU08UXi-tn5tCtYZ18OomrnwyriQfEkmMrBJMelCGcQpLcH6-JKLnRMN9ZfvKTWqRsafIxpzo6Ij9qvxXsfQgb-XcYu-rUNiQGMrUVQpoGPzxNajYnwn_81n9mnOmGHPwuBqD64z3lG2RZ1EjYdHdazJrs-Xo2zx2xh6M8QdZ3c-jRrZmVu2]--></g></svg>