<?xml version="1.0" encoding="UTF-8" standalone="no"?><svg xmlns="http://www.w3.org/2000/svg" xmlns:xlink="http://www.w3.org/1999/xlink" contentStyleType="text/css" height="1394px" preserveAspectRatio="none" style="width:2663px;height:1394px;background:#FFFFFF;" version="1.1" viewBox="0 0 2663 1394" width="2663px" zoomAndPan="magnify"><defs/><g><!--class RepositoryFactory--><g id="elem_RepositoryFactory"><rect codeLine="2" fill="#F1F1F1" height="80.4799" id="RepositoryFactory" rx="2.5" ry="2.5" style="stroke:#181818;stroke-width:0.5;" width="212" x="1622" y="822.5"/><ellipse cx="1640.25" cy="841.12" fill="#ADD1B2" rx="12" ry="12" style="stroke:#181818;stroke-width:1.0;"/><path d="M1640.375,835.4637 Q1639.2969,835.4637 1638.4375,835.8387 Q1637.5781,836.1981 1636.9844,836.9012 Q1636.3906,837.5887 1636.0625,838.6044 Q1635.75,839.62 1635.75,840.9169 Q1635.75,842.62 1636.2656,843.8544 Q1636.7813,845.0731 1637.7969,845.7294 Q1638.8125,846.37 1640.3594,846.37 Q1641.2656,846.37 1642.0781,846.2137 Q1642.8906,846.0575 1644.0781,845.6981 L1644.0781,847.9012 Q1643.0469,848.2762 1642.1719,848.4169 Q1641.2969,848.5731 1640.0938,848.5731 Q1637.8125,848.5731 1636.2813,847.6356 Q1634.75,846.6825 1633.9844,844.9481 Q1633.2188,843.1981 1633.2188,840.9012 Q1633.2188,839.2294 1633.6875,837.8387 Q1634.1563,836.4481 1635.0625,835.4169 Q1635.9844,834.37 1637.3281,833.8231 Q1638.6719,833.2606 1640.3906,833.2606 Q1641.5313,833.2606 1642.5781,833.495 Q1643.6406,833.7137 1644.7344,834.2762 L1643.7656,836.3387 Q1642.8438,835.9325 1642.0625,835.6981 Q1641.2813,835.4637 1640.375,835.4637 Z " fill="#000000"/><text fill="#000000" font-family="sans-serif" font-size="20" lengthAdjust="spacing" textLength="173" x="1655.75" y="848.88">RepositoryFactory</text><line style="stroke:#181818;stroke-width:0.5;" x1="1623" x2="1833" y1="859.74" y2="859.74"/><line style="stroke:#181818;stroke-width:0.5;" x1="1623" x2="1833" y1="867.74" y2="867.74"/><ellipse cx="1633" cy="886.86" fill="#84BE84" rx="3" ry="3" style="stroke:#038048;stroke-width:1.0;"/><text fill="#000000" font-family="sans-serif" font-size="20" lengthAdjust="spacing" textLength="185" x="1643" y="893.12">RepositoryFactory()</text></g><!--class CourseRepository--><g id="elem_CourseRepository"><rect codeLine="6" fill="#F1F1F1" height="107.7199" id="CourseRepository" rx="2.5" ry="2.5" style="stroke:#181818;stroke-width:0.5;" width="330" x="2070" y="1085"/><ellipse cx="2153" cy="1103.62" fill="#B4A7E5" rx="12" ry="12" style="stroke:#181818;stroke-width:1.0;"/><path d="M2155.5781,1111.12 L2149.7969,1111.12 L2149.7969,1109.5106 L2151.4844,1109.1356 L2151.4844,1098.2137 L2149.7969,1097.8231 L2149.7969,1096.2137 L2155.5781,1096.2137 L2155.5781,1097.8231 L2153.9063,1098.2137 L2153.9063,1109.1356 L2155.5781,1109.5106 L2155.5781,1111.12 Z " fill="#000000"/><text fill="#000000" font-family="sans-serif" font-size="20" font-style="italic" lengthAdjust="spacing" textLength="155" x="2175" y="1111.38">CourseRepository</text><line style="stroke:#181818;stroke-width:0.5;" x1="2071" x2="2399" y1="1122.24" y2="1122.24"/><line style="stroke:#181818;stroke-width:0.5;" x1="2071" x2="2399" y1="1130.24" y2="1130.24"/><text fill="#000000" font-family="sans-serif" font-size="20" font-style="italic" lengthAdjust="spacing" textLength="159" x="2076" y="1155.62">findAllNotClosed()</text><text fill="#000000" font-family="sans-serif" font-size="20" font-style="italic" lengthAdjust="spacing" textLength="318" x="2076" y="1182.8599">findAllScheduledByTeacher(teacher)</text></g><!--class InMemoryCourseRepository--><g id="elem_InMemoryCourseRepository"><rect codeLine="11" fill="#F1F1F1" height="107.7199" id="InMemoryCourseRepository" rx="2.5" ry="2.5" style="stroke:#181818;stroke-width:0.5;" width="303" x="2083.5" y="1280"/><ellipse cx="2099.5" cy="1298.62" fill="#ADD1B2" rx="12" ry="12" style="stroke:#181818;stroke-width:1.0;"/><path d="M2099.625,1292.9637 Q2098.5469,1292.9637 2097.6875,1293.3387 Q2096.8281,1293.6981 2096.2344,1294.4012 Q2095.6406,1295.0887 2095.3125,1296.1044 Q2095,1297.12 2095,1298.4169 Q2095,1300.12 2095.5156,1301.3544 Q2096.0313,1302.5731 2097.0469,1303.2294 Q2098.0625,1303.87 2099.6094,1303.87 Q2100.5156,1303.87 2101.3281,1303.7137 Q2102.1406,1303.5575 2103.3281,1303.1981 L2103.3281,1305.4012 Q2102.2969,1305.7762 2101.4219,1305.9169 Q2100.5469,1306.0731 2099.3438,1306.0731 Q2097.0625,1306.0731 2095.5313,1305.1356 Q2094,1304.1825 2093.2344,1302.4481 Q2092.4688,1300.6981 2092.4688,1298.4012 Q2092.4688,1296.7294 2092.9375,1295.3387 Q2093.4063,1293.9481 2094.3125,1292.9169 Q2095.2344,1291.87 2096.5781,1291.3231 Q2097.9219,1290.7606 2099.6406,1290.7606 Q2100.7813,1290.7606 2101.8281,1290.995 Q2102.8906,1291.2137 2103.9844,1291.7762 L2103.0156,1293.8387 Q2102.0938,1293.4325 2101.3125,1293.1981 Q2100.5313,1292.9637 2099.625,1292.9637 Z " fill="#000000"/><text fill="#000000" font-family="sans-serif" font-size="20" lengthAdjust="spacing" textLength="269" x="2114.5" y="1306.38">InMemoryCourseRepository</text><line style="stroke:#181818;stroke-width:0.5;" x1="2084.5" x2="2385.5" y1="1317.24" y2="1317.24"/><line style="stroke:#181818;stroke-width:0.5;" x1="2084.5" x2="2385.5" y1="1325.24" y2="1325.24"/><ellipse cx="2094.5" cy="1344.36" fill="#84BE84" rx="3" ry="3" style="stroke:#038048;stroke-width:1.0;"/><text fill="#000000" font-family="sans-serif" font-size="20" lengthAdjust="spacing" textLength="177" x="2104.5" y="1350.62">findAllNotClosed()</text><ellipse cx="2094.5" cy="1371.5999" fill="#84BE84" rx="3" ry="3" style="stroke:#038048;stroke-width:1.0;"/><text fill="#000000" font-family="sans-serif" font-size="20" lengthAdjust="spacing" textLength="118" x="2104.5" y="1377.8599">save(course)</text></g><!--class JpaCourseRepository--><g id="elem_JpaCourseRepository"><rect codeLine="16" fill="#F1F1F1" height="107.7199" id="JpaCourseRepository" rx="2.5" ry="2.5" style="stroke:#181818;stroke-width:0.5;" width="234" x="2422" y="1280"/><ellipse cx="2438" cy="1298.62" fill="#ADD1B2" rx="12" ry="12" style="stroke:#181818;stroke-width:1.0;"/><path d="M2438.125,1292.9637 Q2437.0469,1292.9637 2436.1875,1293.3387 Q2435.3281,1293.6981 2434.7344,1294.4012 Q2434.1406,1295.0887 2433.8125,1296.1044 Q2433.5,1297.12 2433.5,1298.4169 Q2433.5,1300.12 2434.0156,1301.3544 Q2434.5313,1302.5731 2435.5469,1303.2294 Q2436.5625,1303.87 2438.1094,1303.87 Q2439.0156,1303.87 2439.8281,1303.7137 Q2440.6406,1303.5575 2441.8281,1303.1981 L2441.8281,1305.4012 Q2440.7969,1305.7762 2439.9219,1305.9169 Q2439.0469,1306.0731 2437.8438,1306.0731 Q2435.5625,1306.0731 2434.0313,1305.1356 Q2432.5,1304.1825 2431.7344,1302.4481 Q2430.9688,1300.6981 2430.9688,1298.4012 Q2430.9688,1296.7294 2431.4375,1295.3387 Q2431.9063,1293.9481 2432.8125,1292.9169 Q2433.7344,1291.87 2435.0781,1291.3231 Q2436.4219,1290.7606 2438.1406,1290.7606 Q2439.2813,1290.7606 2440.3281,1290.995 Q2441.3906,1291.2137 2442.4844,1291.7762 L2441.5156,1293.8387 Q2440.5938,1293.4325 2439.8125,1293.1981 Q2439.0313,1292.9637 2438.125,1292.9637 Z " fill="#000000"/><text fill="#000000" font-family="sans-serif" font-size="20" lengthAdjust="spacing" textLength="200" x="2453" y="1306.38">JpaCourseRepository</text><line style="stroke:#181818;stroke-width:0.5;" x1="2423" x2="2655" y1="1317.24" y2="1317.24"/><line style="stroke:#181818;stroke-width:0.5;" x1="2423" x2="2655" y1="1325.24" y2="1325.24"/><ellipse cx="2433" cy="1344.36" fill="#84BE84" rx="3" ry="3" style="stroke:#038048;stroke-width:1.0;"/><text fill="#000000" font-family="sans-serif" font-size="20" lengthAdjust="spacing" textLength="177" x="2443" y="1350.62">findAllNotClosed()</text><ellipse cx="2433" cy="1371.5999" fill="#84BE84" rx="3" ry="3" style="stroke:#038048;stroke-width:1.0;"/><text fill="#000000" font-family="sans-serif" font-size="20" lengthAdjust="spacing" textLength="118" x="2443" y="1377.8599">save(course)</text></g><!--class TeacherRepository--><g id="elem_TeacherRepository"><rect codeLine="21" fill="#F1F1F1" height="80.4799" id="TeacherRepository" rx="2.5" ry="2.5" style="stroke:#181818;stroke-width:0.5;" width="262" x="1059" y="1099"/><ellipse cx="1104.25" cy="1117.62" fill="#B4A7E5" rx="12" ry="12" style="stroke:#181818;stroke-width:1.0;"/><path d="M1106.8281,1125.12 L1101.0469,1125.12 L1101.0469,1123.5106 L1102.7344,1123.1356 L1102.7344,1112.2137 L1101.0469,1111.8231 L1101.0469,1110.2137 L1106.8281,1110.2137 L1106.8281,1111.8231 L1105.1563,1112.2137 L1105.1563,1123.1356 L1106.8281,1123.5106 L1106.8281,1125.12 Z " fill="#000000"/><text fill="#000000" font-family="sans-serif" font-size="20" font-style="italic" lengthAdjust="spacing" textLength="163" x="1125.75" y="1125.38">TeacherRepository</text><line style="stroke:#181818;stroke-width:0.5;" x1="1060" x2="1320" y1="1136.24" y2="1136.24"/><line style="stroke:#181818;stroke-width:0.5;" x1="1060" x2="1320" y1="1144.24" y2="1144.24"/><text fill="#000000" font-family="sans-serif" font-size="20" font-style="italic" lengthAdjust="spacing" textLength="250" x="1065" y="1169.62">findByUsername(username)</text></g><!--class InMemoryTeacherRepository--><g id="elem_InMemoryTeacherRepository"><rect codeLine="25" fill="#F1F1F1" height="107.7199" id="InMemoryTeacherRepository" rx="2.5" ry="2.5" style="stroke:#181818;stroke-width:0.5;" width="313" x="692.5" y="1280"/><ellipse cx="708.5" cy="1298.62" fill="#ADD1B2" rx="12" ry="12" style="stroke:#181818;stroke-width:1.0;"/><path d="M708.625,1292.9637 Q707.5469,1292.9637 706.6875,1293.3387 Q705.8281,1293.6981 705.2344,1294.4012 Q704.6406,1295.0887 704.3125,1296.1044 Q704,1297.12 704,1298.4169 Q704,1300.12 704.5156,1301.3544 Q705.0313,1302.5731 706.0469,1303.2294 Q707.0625,1303.87 708.6094,1303.87 Q709.5156,1303.87 710.3281,1303.7137 Q711.1406,1303.5575 712.3281,1303.1981 L712.3281,1305.4012 Q711.2969,1305.7762 710.4219,1305.9169 Q709.5469,1306.0731 708.3438,1306.0731 Q706.0625,1306.0731 704.5313,1305.1356 Q703,1304.1825 702.2344,1302.4481 Q701.4688,1300.6981 701.4688,1298.4012 Q701.4688,1296.7294 701.9375,1295.3387 Q702.4063,1293.9481 703.3125,1292.9169 Q704.2344,1291.87 705.5781,1291.3231 Q706.9219,1290.7606 708.6406,1290.7606 Q709.7813,1290.7606 710.8281,1290.995 Q711.8906,1291.2137 712.9844,1291.7762 L712.0156,1293.8387 Q711.0938,1293.4325 710.3125,1293.1981 Q709.5313,1292.9637 708.625,1292.9637 Z " fill="#000000"/><text fill="#000000" font-family="sans-serif" font-size="20" lengthAdjust="spacing" textLength="279" x="723.5" y="1306.38">InMemoryTeacherRepository</text><line style="stroke:#181818;stroke-width:0.5;" x1="693.5" x2="1004.5" y1="1317.24" y2="1317.24"/><line style="stroke:#181818;stroke-width:0.5;" x1="693.5" x2="1004.5" y1="1325.24" y2="1325.24"/><ellipse cx="703.5" cy="1344.36" fill="#84BE84" rx="3" ry="3" style="stroke:#038048;stroke-width:1.0;"/><text fill="#000000" font-family="sans-serif" font-size="20" lengthAdjust="spacing" textLength="271" x="713.5" y="1350.62">findByUsername(username)</text><ellipse cx="703.5" cy="1371.5999" fill="#84BE84" rx="3" ry="3" style="stroke:#038048;stroke-width:1.0;"/><text fill="#000000" font-family="sans-serif" font-size="20" lengthAdjust="spacing" textLength="126" x="713.5" y="1377.8599">save(teacher)</text></g><!--class JpaTeacherRepository--><g id="elem_JpaTeacherRepository"><rect codeLine="30" fill="#F1F1F1" height="107.7199" id="JpaTeacherRepository" rx="2.5" ry="2.5" style="stroke:#181818;stroke-width:0.5;" width="298" x="1041" y="1280"/><ellipse cx="1081.3" cy="1298.62" fill="#ADD1B2" rx="12" ry="12" style="stroke:#181818;stroke-width:1.0;"/><path d="M1081.425,1292.9637 Q1080.3469,1292.9637 1079.4875,1293.3387 Q1078.6281,1293.6981 1078.0344,1294.4012 Q1077.4406,1295.0887 1077.1125,1296.1044 Q1076.8,1297.12 1076.8,1298.4169 Q1076.8,1300.12 1077.3156,1301.3544 Q1077.8313,1302.5731 1078.8469,1303.2294 Q1079.8625,1303.87 1081.4094,1303.87 Q1082.3156,1303.87 1083.1281,1303.7137 Q1083.9406,1303.5575 1085.1281,1303.1981 L1085.1281,1305.4012 Q1084.0969,1305.7762 1083.2219,1305.9169 Q1082.3469,1306.0731 1081.1438,1306.0731 Q1078.8625,1306.0731 1077.3313,1305.1356 Q1075.8,1304.1825 1075.0344,1302.4481 Q1074.2688,1300.6981 1074.2688,1298.4012 Q1074.2688,1296.7294 1074.7375,1295.3387 Q1075.2063,1293.9481 1076.1125,1292.9169 Q1077.0344,1291.87 1078.3781,1291.3231 Q1079.7219,1290.7606 1081.4406,1290.7606 Q1082.5813,1290.7606 1083.6281,1290.995 Q1084.6906,1291.2137 1085.7844,1291.7762 L1084.8156,1293.8387 Q1083.8938,1293.4325 1083.1125,1293.1981 Q1082.3313,1292.9637 1081.425,1292.9637 Z " fill="#000000"/><text fill="#000000" font-family="sans-serif" font-size="20" lengthAdjust="spacing" textLength="210" x="1101.7" y="1306.38">JpaTeacherRepository</text><line style="stroke:#181818;stroke-width:0.5;" x1="1042" x2="1338" y1="1317.24" y2="1317.24"/><line style="stroke:#181818;stroke-width:0.5;" x1="1042" x2="1338" y1="1325.24" y2="1325.24"/><ellipse cx="1052" cy="1344.36" fill="#84BE84" rx="3" ry="3" style="stroke:#038048;stroke-width:1.0;"/><text fill="#000000" font-family="sans-serif" font-size="20" lengthAdjust="spacing" textLength="271" x="1062" y="1350.62">findByUsername(username)</text><ellipse cx="1052" cy="1371.5999" fill="#84BE84" rx="3" ry="3" style="stroke:#038048;stroke-width:1.0;"/><text fill="#000000" font-family="sans-serif" font-size="20" lengthAdjust="spacing" textLength="126" x="1062" y="1377.8599">save(teacher)</text></g><!--class CourseClassRepository--><g id="elem_CourseClassRepository"><rect codeLine="35" fill="#F1F1F1" height="80.4799" id="CourseClassRepository" rx="2.5" ry="2.5" style="stroke:#181818;stroke-width:0.5;" width="250" x="1603" y="1099"/><ellipse cx="1625.75" cy="1117.62" fill="#B4A7E5" rx="12" ry="12" style="stroke:#181818;stroke-width:1.0;"/><path d="M1628.3281,1125.12 L1622.5469,1125.12 L1622.5469,1123.5106 L1624.2344,1123.1356 L1624.2344,1112.2137 L1622.5469,1111.8231 L1622.5469,1110.2137 L1628.3281,1110.2137 L1628.3281,1111.8231 L1626.6563,1112.2137 L1626.6563,1123.1356 L1628.3281,1123.5106 L1628.3281,1125.12 Z " fill="#000000"/><text fill="#000000" font-family="sans-serif" font-size="20" font-style="italic" lengthAdjust="spacing" textLength="201" x="1642.25" y="1125.38">CourseClassRepository</text><line style="stroke:#181818;stroke-width:0.5;" x1="1604" x2="1852" y1="1136.24" y2="1136.24"/><line style="stroke:#181818;stroke-width:0.5;" x1="1604" x2="1852" y1="1144.24" y2="1144.24"/><text fill="#000000" font-family="sans-serif" font-size="20" font-style="italic" lengthAdjust="spacing" textLength="238" x="1609" y="1169.62">findAllByCourseCode(code)</text></g><!--class InMemoryCourseClassRepository--><g id="elem_InMemoryCourseClassRepository"><rect codeLine="39" fill="#F1F1F1" height="107.7199" id="InMemoryCourseClassRepository" rx="2.5" ry="2.5" style="stroke:#181818;stroke-width:0.5;" width="352" x="1374" y="1280"/><ellipse cx="1390" cy="1298.62" fill="#ADD1B2" rx="12" ry="12" style="stroke:#181818;stroke-width:1.0;"/><path d="M1390.125,1292.9637 Q1389.0469,1292.9637 1388.1875,1293.3387 Q1387.3281,1293.6981 1386.7344,1294.4012 Q1386.1406,1295.0887 1385.8125,1296.1044 Q1385.5,1297.12 1385.5,1298.4169 Q1385.5,1300.12 1386.0156,1301.3544 Q1386.5313,1302.5731 1387.5469,1303.2294 Q1388.5625,1303.87 1390.1094,1303.87 Q1391.0156,1303.87 1391.8281,1303.7137 Q1392.6406,1303.5575 1393.8281,1303.1981 L1393.8281,1305.4012 Q1392.7969,1305.7762 1391.9219,1305.9169 Q1391.0469,1306.0731 1389.8438,1306.0731 Q1387.5625,1306.0731 1386.0313,1305.1356 Q1384.5,1304.1825 1383.7344,1302.4481 Q1382.9688,1300.6981 1382.9688,1298.4012 Q1382.9688,1296.7294 1383.4375,1295.3387 Q1383.9063,1293.9481 1384.8125,1292.9169 Q1385.7344,1291.87 1387.0781,1291.3231 Q1388.4219,1290.7606 1390.1406,1290.7606 Q1391.2813,1290.7606 1392.3281,1290.995 Q1393.3906,1291.2137 1394.4844,1291.7762 L1393.5156,1293.8387 Q1392.5938,1293.4325 1391.8125,1293.1981 Q1391.0313,1292.9637 1390.125,1292.9637 Z " fill="#000000"/><text fill="#000000" font-family="sans-serif" font-size="20" lengthAdjust="spacing" textLength="318" x="1405" y="1306.38">InMemoryCourseClassRepository</text><line style="stroke:#181818;stroke-width:0.5;" x1="1375" x2="1725" y1="1317.24" y2="1317.24"/><line style="stroke:#181818;stroke-width:0.5;" x1="1375" x2="1725" y1="1325.24" y2="1325.24"/><ellipse cx="1385" cy="1344.36" fill="#84BE84" rx="3" ry="3" style="stroke:#038048;stroke-width:1.0;"/><text fill="#000000" font-family="sans-serif" font-size="20" lengthAdjust="spacing" textLength="260" x="1395" y="1350.62">findAllByCourseCode(code)</text><ellipse cx="1385" cy="1371.5999" fill="#84BE84" rx="3" ry="3" style="stroke:#038048;stroke-width:1.0;"/><text fill="#000000" font-family="sans-serif" font-size="20" lengthAdjust="spacing" textLength="100" x="1395" y="1377.8599">save(class)</text></g><!--class JpaCourseClassRepository--><g id="elem_JpaCourseClassRepository"><rect codeLine="44" fill="#F1F1F1" height="107.7199" id="JpaCourseClassRepository" rx="2.5" ry="2.5" style="stroke:#181818;stroke-width:0.5;" width="287" x="1761.5" y="1280"/><ellipse cx="1779.3" cy="1298.62" fill="#ADD1B2" rx="12" ry="12" style="stroke:#181818;stroke-width:1.0;"/><path d="M1779.425,1292.9637 Q1778.3469,1292.9637 1777.4875,1293.3387 Q1776.6281,1293.6981 1776.0344,1294.4012 Q1775.4406,1295.0887 1775.1125,1296.1044 Q1774.8,1297.12 1774.8,1298.4169 Q1774.8,1300.12 1775.3156,1301.3544 Q1775.8313,1302.5731 1776.8469,1303.2294 Q1777.8625,1303.87 1779.4094,1303.87 Q1780.3156,1303.87 1781.1281,1303.7137 Q1781.9406,1303.5575 1783.1281,1303.1981 L1783.1281,1305.4012 Q1782.0969,1305.7762 1781.2219,1305.9169 Q1780.3469,1306.0731 1779.1438,1306.0731 Q1776.8625,1306.0731 1775.3313,1305.1356 Q1773.8,1304.1825 1773.0344,1302.4481 Q1772.2688,1300.6981 1772.2688,1298.4012 Q1772.2688,1296.7294 1772.7375,1295.3387 Q1773.2063,1293.9481 1774.1125,1292.9169 Q1775.0344,1291.87 1776.3781,1291.3231 Q1777.7219,1290.7606 1779.4406,1290.7606 Q1780.5813,1290.7606 1781.6281,1290.995 Q1782.6906,1291.2137 1783.7844,1291.7762 L1782.8156,1293.8387 Q1781.8938,1293.4325 1781.1125,1293.1981 Q1780.3313,1292.9637 1779.425,1292.9637 Z " fill="#000000"/><text fill="#000000" font-family="sans-serif" font-size="20" lengthAdjust="spacing" textLength="249" x="1794.7" y="1306.38">JpaCourseClassRepository</text><line style="stroke:#181818;stroke-width:0.5;" x1="1762.5" x2="2047.5" y1="1317.24" y2="1317.24"/><line style="stroke:#181818;stroke-width:0.5;" x1="1762.5" x2="2047.5" y1="1325.24" y2="1325.24"/><ellipse cx="1772.5" cy="1344.36" fill="#84BE84" rx="3" ry="3" style="stroke:#038048;stroke-width:1.0;"/><text fill="#000000" font-family="sans-serif" font-size="20" lengthAdjust="spacing" textLength="260" x="1782.5" y="1350.62">findAllByCourseCode(code)</text><ellipse cx="1772.5" cy="1371.5999" fill="#84BE84" rx="3" ry="3" style="stroke:#038048;stroke-width:1.0;"/><text fill="#000000" font-family="sans-serif" font-size="20" lengthAdjust="spacing" textLength="100" x="1782.5" y="1377.8599">save(class)</text></g><!--class PersistenceContext--><g id="elem_PersistenceContext"><rect codeLine="49" fill="#F1F1F1" height="80.4799" id="PersistenceContext" rx="2.5" ry="2.5" style="stroke:#181818;stroke-width:0.5;" width="219" x="1618.5" y="532.5"/><ellipse cx="1634.5" cy="551.12" fill="#ADD1B2" rx="12" ry="12" style="stroke:#181818;stroke-width:1.0;"/><path d="M1634.625,545.4637 Q1633.5469,545.4637 1632.6875,545.8387 Q1631.8281,546.1981 1631.2344,546.9012 Q1630.6406,547.5887 1630.3125,548.6044 Q1630,549.62 1630,550.9169 Q1630,552.62 1630.5156,553.8544 Q1631.0313,555.0731 1632.0469,555.7294 Q1633.0625,556.37 1634.6094,556.37 Q1635.5156,556.37 1636.3281,556.2137 Q1637.1406,556.0575 1638.3281,555.6981 L1638.3281,557.9012 Q1637.2969,558.2762 1636.4219,558.4169 Q1635.5469,558.5731 1634.3438,558.5731 Q1632.0625,558.5731 1630.5313,557.6356 Q1629,556.6825 1628.2344,554.9481 Q1627.4688,553.1981 1627.4688,550.9012 Q1627.4688,549.2294 1627.9375,547.8387 Q1628.4063,546.4481 1629.3125,545.4169 Q1630.2344,544.37 1631.5781,543.8231 Q1632.9219,543.2606 1634.6406,543.2606 Q1635.7813,543.2606 1636.8281,543.495 Q1637.8906,543.7137 1638.9844,544.2762 L1638.0156,546.3387 Q1637.0938,545.9325 1636.3125,545.6981 Q1635.5313,545.4637 1634.625,545.4637 Z " fill="#000000"/><text fill="#000000" font-family="sans-serif" font-size="20" lengthAdjust="spacing" textLength="185" x="1649.5" y="558.88">PersistenceContext</text><line style="stroke:#181818;stroke-width:0.5;" x1="1619.5" x2="1836.5" y1="569.74" y2="569.74"/><line style="stroke:#181818;stroke-width:0.5;" x1="1619.5" x2="1836.5" y1="577.74" y2="577.74"/><rect fill="#F24D5C" height="6" style="stroke:#C82930;stroke-width:1.0;" width="6" x="1626.5" y="593.86"/><text fill="#000000" font-family="sans-serif" font-size="20" lengthAdjust="spacing" textLength="129" x="1639.5" y="603.12">repositories()</text></g><!--class Course--><g id="elem_Course"><rect codeLine="53" fill="#F1F1F1" height="271.1598" id="Course" rx="2.5" ry="2.5" style="stroke:#181818;stroke-width:0.5;" width="253" x="642.5" y="727"/><ellipse cx="731" cy="745.62" fill="#ADD1B2" rx="12" ry="12" style="stroke:#181818;stroke-width:1.0;"/><path d="M731.125,739.9637 Q730.0469,739.9637 729.1875,740.3387 Q728.3281,740.6981 727.7344,741.4012 Q727.1406,742.0887 726.8125,743.1044 Q726.5,744.12 726.5,745.4169 Q726.5,747.12 727.0156,748.3544 Q727.5313,749.5731 728.5469,750.2294 Q729.5625,750.87 731.1094,750.87 Q732.0156,750.87 732.8281,750.7137 Q733.6406,750.5575 734.8281,750.1981 L734.8281,752.4012 Q733.7969,752.7762 732.9219,752.9169 Q732.0469,753.0731 730.8438,753.0731 Q728.5625,753.0731 727.0313,752.1356 Q725.5,751.1825 724.7344,749.4481 Q723.9688,747.6981 723.9688,745.4012 Q723.9688,743.7294 724.4375,742.3387 Q724.9063,740.9481 725.8125,739.9169 Q726.7344,738.87 728.0781,738.3231 Q729.4219,737.7606 731.1406,737.7606 Q732.2813,737.7606 733.3281,737.995 Q734.3906,738.2137 735.4844,738.7762 L734.5156,740.8387 Q733.5938,740.4325 732.8125,740.1981 Q732.0313,739.9637 731.125,739.9637 Z " fill="#000000"/><text fill="#000000" font-family="sans-serif" font-size="20" lengthAdjust="spacing" textLength="67" x="753" y="753.38">Course</text><line style="stroke:#181818;stroke-width:0.5;" x1="643.5" x2="894.5" y1="764.24" y2="764.24"/><rect fill="none" height="6" style="stroke:#C82930;stroke-width:1.0;" width="6" x="650.5" y="780.36"/><text fill="#000000" font-family="sans-serif" font-size="20" lengthAdjust="spacing" textLength="45" x="663.5" y="789.62">code</text><rect fill="none" height="6" style="stroke:#C82930;stroke-width:1.0;" width="6" x="650.5" y="807.5999"/><text fill="#000000" font-family="sans-serif" font-size="20" lengthAdjust="spacing" textLength="39" x="663.5" y="816.8599">title</text><rect fill="none" height="6" style="stroke:#C82930;stroke-width:1.0;" width="6" x="650.5" y="834.8399"/><text fill="#000000" font-family="sans-serif" font-size="20" lengthAdjust="spacing" textLength="110" x="663.5" y="844.0999">description</text><rect fill="none" height="6" style="stroke:#C82930;stroke-width:1.0;" width="6" x="650.5" y="862.0799"/><text fill="#000000" font-family="sans-serif" font-size="20" lengthAdjust="spacing" textLength="162" x="663.5" y="871.3399">enrolmentLimits</text><rect fill="none" height="6" style="stroke:#C82930;stroke-width:1.0;" width="6" x="650.5" y="889.3199"/><text fill="#000000" font-family="sans-serif" font-size="20" lengthAdjust="spacing" textLength="113" x="663.5" y="898.5799">courseState</text><rect fill="none" height="6" style="stroke:#C82930;stroke-width:1.0;" width="6" x="650.5" y="916.5598"/><text fill="#000000" font-family="sans-serif" font-size="20" lengthAdjust="spacing" textLength="215" x="663.5" y="925.8198">courseEnrolmentState</text><rect fill="none" height="6" style="stroke:#C82930;stroke-width:1.0;" width="6" x="650.5" y="943.7998"/><text fill="#000000" font-family="sans-serif" font-size="20" lengthAdjust="spacing" textLength="93" x="663.5" y="953.0598">createdAt</text><line style="stroke:#181818;stroke-width:0.5;" x1="643.5" x2="894.5" y1="962.9198" y2="962.9198"/><ellipse cx="653.5" cy="982.0398" fill="#84BE84" rx="3" ry="3" style="stroke:#038048;stroke-width:1.0;"/><text fill="#000000" font-family="sans-serif" font-size="20" lengthAdjust="spacing" textLength="226" x="663.5" y="988.2998">toggleEnrolmentState()</text></g><!--class CourseClass--><g id="elem_CourseClass"><rect codeLine="66" fill="#F1F1F1" height="189.4398" id="CourseClass" rx="2.5" ry="2.5" style="stroke:#181818;stroke-width:0.5;" width="150" x="273" y="478"/><ellipse cx="289" cy="496.62" fill="#ADD1B2" rx="12" ry="12" style="stroke:#181818;stroke-width:1.0;"/><path d="M289.125,490.9637 Q288.0469,490.9637 287.1875,491.3387 Q286.3281,491.6981 285.7344,492.4012 Q285.1406,493.0887 284.8125,494.1044 Q284.5,495.12 284.5,496.4169 Q284.5,498.12 285.0156,499.3544 Q285.5313,500.5731 286.5469,501.2294 Q287.5625,501.87 289.1094,501.87 Q290.0156,501.87 290.8281,501.7137 Q291.6406,501.5575 292.8281,501.1981 L292.8281,503.4012 Q291.7969,503.7762 290.9219,503.9169 Q290.0469,504.0731 288.8438,504.0731 Q286.5625,504.0731 285.0313,503.1356 Q283.5,502.1825 282.7344,500.4481 Q281.9688,498.6981 281.9688,496.4012 Q281.9688,494.7294 282.4375,493.3387 Q282.9063,491.9481 283.8125,490.9169 Q284.7344,489.87 286.0781,489.3231 Q287.4219,488.7606 289.1406,488.7606 Q290.2813,488.7606 291.3281,488.995 Q292.3906,489.2137 293.4844,489.7762 L292.5156,491.8387 Q291.5938,491.4325 290.8125,491.1981 Q290.0313,490.9637 289.125,490.9637 Z " fill="#000000"/><text fill="#000000" font-family="sans-serif" font-size="20" lengthAdjust="spacing" textLength="116" x="304" y="504.38">CourseClass</text><line style="stroke:#181818;stroke-width:0.5;" x1="274" x2="422" y1="515.24" y2="515.24"/><rect fill="none" height="6" style="stroke:#C82930;stroke-width:1.0;" width="6" x="281" y="531.36"/><text fill="#000000" font-family="sans-serif" font-size="20" lengthAdjust="spacing" textLength="106" x="294" y="540.62">dayInWeek</text><rect fill="none" height="6" style="stroke:#C82930;stroke-width:1.0;" width="6" x="281" y="558.5999"/><text fill="#000000" font-family="sans-serif" font-size="20" lengthAdjust="spacing" textLength="85" x="294" y="567.8599">duration</text><rect fill="none" height="6" style="stroke:#C82930;stroke-width:1.0;" width="6" x="281" y="585.8399"/><text fill="#000000" font-family="sans-serif" font-size="20" lengthAdjust="spacing" textLength="57" x="294" y="595.0999">hours</text><rect fill="none" height="6" style="stroke:#C82930;stroke-width:1.0;" width="6" x="281" y="613.0799"/><text fill="#000000" font-family="sans-serif" font-size="20" lengthAdjust="spacing" textLength="122" x="294" y="622.3399">scheduledBy</text><line style="stroke:#181818;stroke-width:0.5;" x1="274" x2="422" y1="632.1999" y2="632.1999"/><ellipse cx="284" cy="651.3199" fill="#84BE84" rx="3" ry="3" style="stroke:#038048;stroke-width:1.0;"/><text fill="#000000" font-family="sans-serif" font-size="20" lengthAdjust="spacing" textLength="66" x="294" y="657.5799">toDto()</text></g><!--class CourseState--><g id="elem_CourseState"><rect codeLine="75" fill="#F1F1F1" height="162.1999" id="CourseState" rx="2.5" ry="2.5" style="stroke:#181818;stroke-width:0.5;" width="150" x="694" y="1058"/><ellipse cx="710" cy="1076.62" fill="#EB937F" rx="12" ry="12" style="stroke:#181818;stroke-width:1.0;"/><path d="M714.0469,1084.12 L705.4375,1084.12 L705.4375,1069.2137 L714.0469,1069.2137 L714.0469,1071.4169 L707.8594,1071.4169 L707.8594,1075.2606 L713.6875,1075.2606 L713.6875,1077.4325 L707.8594,1077.4325 L707.8594,1081.9169 L714.0469,1081.9169 L714.0469,1084.12 Z " fill="#000000"/><text fill="#000000" font-family="sans-serif" font-size="20" lengthAdjust="spacing" textLength="116" x="725" y="1084.38">CourseState</text><line style="stroke:#181818;stroke-width:0.5;" x1="695" x2="843" y1="1095.24" y2="1095.24"/><text fill="#000000" font-family="sans-serif" font-size="20" lengthAdjust="spacing" textLength="74" x="700" y="1120.62">CLOSED</text><text fill="#000000" font-family="sans-serif" font-size="20" lengthAdjust="spacing" textLength="54" x="700" y="1147.8599">OPEN</text><text fill="#000000" font-family="sans-serif" font-size="20" lengthAdjust="spacing" textLength="130" x="700" y="1175.0999">IN_PROGRESS</text><text fill="#000000" font-family="sans-serif" font-size="20" lengthAdjust="spacing" textLength="92" x="700" y="1202.3399">FINISHED</text><line style="stroke:#181818;stroke-width:0.5;" x1="695" x2="843" y1="1212.1999" y2="1212.1999"/></g><!--class ScheduleAvailabilityService--><g id="elem_ScheduleAvailabilityService"><rect codeLine="87" fill="#F1F1F1" height="134.9599" id="ScheduleAvailabilityService" rx="2.5" ry="2.5" style="stroke:#181818;stroke-width:0.5;" width="633" x="458.5" y="505"/><ellipse cx="640.5" cy="523.62" fill="#ADD1B2" rx="12" ry="12" style="stroke:#181818;stroke-width:1.0;"/><path d="M640.625,517.9637 Q639.5469,517.9637 638.6875,518.3387 Q637.8281,518.6981 637.2344,519.4012 Q636.6406,520.0887 636.3125,521.1044 Q636,522.12 636,523.4169 Q636,525.12 636.5156,526.3544 Q637.0313,527.5731 638.0469,528.2294 Q639.0625,528.87 640.6094,528.87 Q641.5156,528.87 642.3281,528.7137 Q643.1406,528.5575 644.3281,528.1981 L644.3281,530.4012 Q643.2969,530.7762 642.4219,530.9169 Q641.5469,531.0731 640.3438,531.0731 Q638.0625,531.0731 636.5313,530.1356 Q635,529.1825 634.2344,527.4481 Q633.4688,525.6981 633.4688,523.4012 Q633.4688,521.7294 633.9375,520.3387 Q634.4063,518.9481 635.3125,517.9169 Q636.2344,516.87 637.5781,516.3231 Q638.9219,515.7606 640.6406,515.7606 Q641.7813,515.7606 642.8281,515.995 Q643.8906,516.2137 644.9844,516.7762 L644.0156,518.8387 Q643.0938,518.4325 642.3125,518.1981 Q641.5313,517.9637 640.625,517.9637 Z " fill="#000000"/><text fill="#000000" font-family="sans-serif" font-size="20" lengthAdjust="spacing" textLength="260" x="662.5" y="531.38">ScheduleAvailabilityService</text><line style="stroke:#181818;stroke-width:0.5;" x1="459.5" x2="1090.5" y1="542.24" y2="542.24"/><line style="stroke:#181818;stroke-width:0.5;" x1="459.5" x2="1090.5" y1="550.24" y2="550.24"/><ellipse cx="469.5" cy="569.36" fill="#84BE84" rx="3" ry="3" style="stroke:#038048;stroke-width:1.0;"/><text fill="#000000" font-family="sans-serif" font-size="20" lengthAdjust="spacing" textLength="606" x="479.5" y="575.62">ScheduleAvailabilityService(classRepository, teacherRepository)</text><text fill="#000000" font-family="sans-serif" font-size="20" lengthAdjust="spacing" textLength="5" x="479.5" y="602.8599"> </text><ellipse cx="469.5" cy="623.8399" fill="#84BE84" rx="3" ry="3" style="stroke:#038048;stroke-width:1.0;"/><text fill="#000000" font-family="sans-serif" font-size="20" lengthAdjust="spacing" textLength="413" x="479.5" y="630.0999">isTeacherAvailable(teacher, time, duration)</text></g><!--class ListCourseService--><g id="elem_ListCourseService"><rect codeLine="93" fill="#F1F1F1" height="162.1999" id="ListCourseService" rx="2.5" ry="2.5" style="stroke:#181818;stroke-width:0.5;" width="457" x="1126.5" y="491.5"/><ellipse cx="1266" cy="510.12" fill="#ADD1B2" rx="12" ry="12" style="stroke:#181818;stroke-width:1.0;"/><path d="M1266.125,504.4637 Q1265.0469,504.4637 1264.1875,504.8387 Q1263.3281,505.1981 1262.7344,505.9012 Q1262.1406,506.5887 1261.8125,507.6044 Q1261.5,508.62 1261.5,509.9169 Q1261.5,511.62 1262.0156,512.8544 Q1262.5313,514.0731 1263.5469,514.7294 Q1264.5625,515.37 1266.1094,515.37 Q1267.0156,515.37 1267.8281,515.2137 Q1268.6406,515.0575 1269.8281,514.6981 L1269.8281,516.9012 Q1268.7969,517.2762 1267.9219,517.4169 Q1267.0469,517.5731 1265.8438,517.5731 Q1263.5625,517.5731 1262.0313,516.6356 Q1260.5,515.6825 1259.7344,513.9481 Q1258.9688,512.1981 1258.9688,509.9012 Q1258.9688,508.2294 1259.4375,506.8387 Q1259.9063,505.4481 1260.8125,504.4169 Q1261.7344,503.37 1263.0781,502.8231 Q1264.4219,502.2606 1266.1406,502.2606 Q1267.2813,502.2606 1268.3281,502.495 Q1269.3906,502.7137 1270.4844,503.2762 L1269.5156,505.3387 Q1268.5938,504.9325 1267.8125,504.6981 Q1267.0313,504.4637 1266.125,504.4637 Z " fill="#000000"/><text fill="#000000" font-family="sans-serif" font-size="20" lengthAdjust="spacing" textLength="169" x="1288" y="517.88">ListCourseService</text><line style="stroke:#181818;stroke-width:0.5;" x1="1127.5" x2="1582.5" y1="528.74" y2="528.74"/><rect fill="none" height="6" style="stroke:#C82930;stroke-width:1.0;" width="6" x="1134.5" y="544.86"/><text fill="#000000" font-family="sans-serif" font-size="20" lengthAdjust="spacing" textLength="167" x="1147.5" y="554.12">courseRepository</text><line style="stroke:#181818;stroke-width:0.5;" x1="1127.5" x2="1582.5" y1="563.9799" y2="563.9799"/><ellipse cx="1137.5" cy="583.0999" fill="#84BE84" rx="3" ry="3" style="stroke:#038048;stroke-width:1.0;"/><text fill="#000000" font-family="sans-serif" font-size="20" lengthAdjust="spacing" textLength="348" x="1147.5" y="589.3599">ListCourseService(courseRepository)</text><text fill="#000000" font-family="sans-serif" font-size="20" lengthAdjust="spacing" textLength="5" x="1147.5" y="616.5999"> </text><ellipse cx="1137.5" cy="637.5799" fill="#84BE84" rx="3" ry="3" style="stroke:#038048;stroke-width:1.0;"/><text fill="#000000" font-family="sans-serif" font-size="20" lengthAdjust="spacing" textLength="430" x="1147.5" y="643.8399">listAllInProgressLecturedByTeacher(teacher)</text></g><!--class CourseDTO--><g id="elem_CourseDTO"><rect codeLine="101" fill="#F1F1F1" height="243.9198" id="CourseDTO" rx="2.5" ry="2.5" style="stroke:#181818;stroke-width:0.5;" width="242" x="7" y="740.5"/><ellipse cx="69" cy="759.12" fill="#ADD1B2" rx="12" ry="12" style="stroke:#181818;stroke-width:1.0;"/><path d="M69.125,753.4637 Q68.0469,753.4637 67.1875,753.8387 Q66.3281,754.1981 65.7344,754.9012 Q65.1406,755.5887 64.8125,756.6044 Q64.5,757.62 64.5,758.9169 Q64.5,760.62 65.0156,761.8544 Q65.5313,763.0731 66.5469,763.7294 Q67.5625,764.37 69.1094,764.37 Q70.0156,764.37 70.8281,764.2137 Q71.6406,764.0575 72.8281,763.6981 L72.8281,765.9012 Q71.7969,766.2762 70.9219,766.4169 Q70.0469,766.5731 68.8438,766.5731 Q66.5625,766.5731 65.0313,765.6356 Q63.5,764.6825 62.7344,762.9481 Q61.9688,761.1981 61.9688,758.9012 Q61.9688,757.2294 62.4375,755.8387 Q62.9063,754.4481 63.8125,753.4169 Q64.7344,752.37 66.0781,751.8231 Q67.4219,751.2606 69.1406,751.2606 Q70.2813,751.2606 71.3281,751.495 Q72.3906,751.7137 73.4844,752.2762 L72.5156,754.3387 Q71.5938,753.9325 70.8125,753.6981 Q70.0313,753.4637 69.125,753.4637 Z " fill="#000000"/><text fill="#000000" font-family="sans-serif" font-size="20" lengthAdjust="spacing" textLength="109" x="91" y="766.88">CourseDTO</text><line style="stroke:#181818;stroke-width:0.5;" x1="8" x2="248" y1="777.74" y2="777.74"/><rect fill="none" height="6" style="stroke:#C82930;stroke-width:1.0;" width="6" x="15" y="793.86"/><text fill="#000000" font-family="sans-serif" font-size="20" lengthAdjust="spacing" textLength="45" x="28" y="803.12">code</text><rect fill="none" height="6" style="stroke:#C82930;stroke-width:1.0;" width="6" x="15" y="821.0999"/><text fill="#000000" font-family="sans-serif" font-size="20" lengthAdjust="spacing" textLength="39" x="28" y="830.3599">title</text><rect fill="none" height="6" style="stroke:#C82930;stroke-width:1.0;" width="6" x="15" y="848.3399"/><text fill="#000000" font-family="sans-serif" font-size="20" lengthAdjust="spacing" textLength="110" x="28" y="857.5999">description</text><rect fill="none" height="6" style="stroke:#C82930;stroke-width:1.0;" width="6" x="15" y="875.5799"/><text fill="#000000" font-family="sans-serif" font-size="20" lengthAdjust="spacing" textLength="162" x="28" y="884.8399">enrolmentLimits</text><rect fill="none" height="6" style="stroke:#C82930;stroke-width:1.0;" width="6" x="15" y="902.8199"/><text fill="#000000" font-family="sans-serif" font-size="20" lengthAdjust="spacing" textLength="113" x="28" y="912.0799">courseState</text><rect fill="none" height="6" style="stroke:#C82930;stroke-width:1.0;" width="6" x="15" y="930.0598"/><text fill="#000000" font-family="sans-serif" font-size="20" lengthAdjust="spacing" textLength="215" x="28" y="939.3198">courseEnrolmentState</text><rect fill="none" height="6" style="stroke:#C82930;stroke-width:1.0;" width="6" x="15" y="957.2998"/><text fill="#000000" font-family="sans-serif" font-size="20" lengthAdjust="spacing" textLength="93" x="28" y="966.5598">createdAt</text><line style="stroke:#181818;stroke-width:0.5;" x1="8" x2="248" y1="976.4198" y2="976.4198"/></g><!--class CourseDTOParser--><g id="elem_CourseDTOParser"><rect codeLine="111" fill="#F1F1F1" height="80.4799" id="CourseDTOParser" rx="2.5" ry="2.5" style="stroke:#181818;stroke-width:0.5;" width="219" x="18.5" y="532.5"/><ellipse cx="40.8" cy="551.12" fill="#ADD1B2" rx="12" ry="12" style="stroke:#181818;stroke-width:1.0;"/><path d="M40.925,545.4637 Q39.8469,545.4637 38.9875,545.8387 Q38.1281,546.1981 37.5344,546.9012 Q36.9406,547.5887 36.6125,548.6044 Q36.3,549.62 36.3,550.9169 Q36.3,552.62 36.8156,553.8544 Q37.3313,555.0731 38.3469,555.7294 Q39.3625,556.37 40.9094,556.37 Q41.8156,556.37 42.6281,556.2137 Q43.4406,556.0575 44.6281,555.6981 L44.6281,557.9012 Q43.5969,558.2762 42.7219,558.4169 Q41.8469,558.5731 40.6438,558.5731 Q38.3625,558.5731 36.8313,557.6356 Q35.3,556.6825 34.5344,554.9481 Q33.7688,553.1981 33.7688,550.9012 Q33.7688,549.2294 34.2375,547.8387 Q34.7063,546.4481 35.6125,545.4169 Q36.5344,544.37 37.8781,543.8231 Q39.2219,543.2606 40.9406,543.2606 Q42.0813,543.2606 43.1281,543.495 Q44.1906,543.7137 45.2844,544.2762 L44.3156,546.3387 Q43.3938,545.9325 42.6125,545.6981 Q41.8313,545.4637 40.925,545.4637 Z " fill="#000000"/><text fill="#000000" font-family="sans-serif" font-size="20" lengthAdjust="spacing" textLength="171" x="57.2" y="558.88">CourseDTOParser</text><line style="stroke:#181818;stroke-width:0.5;" x1="19.5" x2="236.5" y1="569.74" y2="569.74"/><line style="stroke:#181818;stroke-width:0.5;" x1="19.5" x2="236.5" y1="577.74" y2="577.74"/><ellipse cx="29.5" cy="596.86" fill="#84BE84" rx="3" ry="3" style="stroke:#038048;stroke-width:1.0;"/><text fill="#000000" font-family="sans-serif" font-size="20" lengthAdjust="spacing" textLength="192" x="39.5" y="603.12">valueOf(courseDTO)</text></g><!--class ScheduleClassController--><g id="elem_ScheduleClassController"><rect codeLine="115" fill="#F1F1F1" height="298.3997" id="ScheduleClassController" rx="2.5" ry="2.5" style="stroke:#181818;stroke-width:0.5;" width="784" x="673" y="120"/><ellipse cx="943.5" cy="138.62" fill="#ADD1B2" rx="12" ry="12" style="stroke:#181818;stroke-width:1.0;"/><path d="M943.625,132.9637 Q942.5469,132.9637 941.6875,133.3387 Q940.8281,133.6981 940.2344,134.4012 Q939.6406,135.0887 939.3125,136.1044 Q939,137.12 939,138.4169 Q939,140.12 939.5156,141.3544 Q940.0313,142.5731 941.0469,143.2294 Q942.0625,143.87 943.6094,143.87 Q944.5156,143.87 945.3281,143.7137 Q946.1406,143.5575 947.3281,143.1981 L947.3281,145.4012 Q946.2969,145.7762 945.4219,145.9169 Q944.5469,146.0731 943.3438,146.0731 Q941.0625,146.0731 939.5313,145.1356 Q938,144.1825 937.2344,142.4481 Q936.4688,140.6981 936.4688,138.4012 Q936.4688,136.7294 936.9375,135.3387 Q937.4063,133.9481 938.3125,132.9169 Q939.2344,131.87 940.5781,131.3231 Q941.9219,130.7606 943.6406,130.7606 Q944.7813,130.7606 945.8281,130.995 Q946.8906,131.2137 947.9844,131.7762 L947.0156,133.8387 Q946.0938,133.4325 945.3125,133.1981 Q944.5313,132.9637 943.625,132.9637 Z " fill="#000000"/><text fill="#000000" font-family="sans-serif" font-size="20" lengthAdjust="spacing" textLength="234" x="965.5" y="146.38">ScheduleClassController</text><line style="stroke:#181818;stroke-width:0.5;" x1="674" x2="1456" y1="157.24" y2="157.24"/><rect fill="none" height="6" style="stroke:#C82930;stroke-width:1.0;" width="6" x="681" y="173.36"/><text fill="#000000" font-family="sans-serif" font-size="20" lengthAdjust="spacing" textLength="149" x="694" y="182.62">classRepository</text><rect fill="none" height="6" style="stroke:#C82930;stroke-width:1.0;" width="6" x="681" y="200.5999"/><text fill="#000000" font-family="sans-serif" font-size="20" lengthAdjust="spacing" textLength="167" x="694" y="209.8599">courseRepository</text><rect fill="none" height="6" style="stroke:#C82930;stroke-width:1.0;" width="6" x="681" y="227.8399"/><text fill="#000000" font-family="sans-serif" font-size="20" lengthAdjust="spacing" textLength="175" x="694" y="237.0999">teacherRepository</text><rect fill="none" height="6" style="stroke:#C82930;stroke-width:1.0;" width="6" x="681" y="255.0799"/><text fill="#000000" font-family="sans-serif" font-size="20" lengthAdjust="spacing" textLength="164" x="694" y="264.3399">listCourseService</text><rect fill="none" height="6" style="stroke:#C82930;stroke-width:1.0;" width="6" x="681" y="282.3199"/><text fill="#000000" font-family="sans-serif" font-size="20" lengthAdjust="spacing" textLength="171" x="694" y="291.5799">availabilityService</text><line style="stroke:#181818;stroke-width:0.5;" x1="674" x2="1456" y1="301.4398" y2="301.4398"/><ellipse cx="684" cy="320.5598" fill="#84BE84" rx="3" ry="3" style="stroke:#038048;stroke-width:1.0;"/><text fill="#000000" font-family="sans-serif" font-size="20" lengthAdjust="spacing" textLength="757" x="694" y="326.8198">ScheduleClassController(classRepository, courseRepository, teacherRepository)</text><text fill="#000000" font-family="sans-serif" font-size="20" lengthAdjust="spacing" textLength="5" x="694" y="354.0598"> </text><ellipse cx="684" cy="375.0398" fill="#84BE84" rx="3" ry="3" style="stroke:#038048;stroke-width:1.0;"/><text fill="#000000" font-family="sans-serif" font-size="20" lengthAdjust="spacing" textLength="196" x="694" y="381.2998">listTeacherCourses()</text><ellipse cx="684" cy="402.2798" fill="#84BE84" rx="3" ry="3" style="stroke:#038048;stroke-width:1.0;"/><text fill="#000000" font-family="sans-serif" font-size="20" lengthAdjust="spacing" textLength="462" x="694" y="408.5398">createClass(course, duration, dayInWeek, hours)</text></g><!--class ScheduleClassUI--><g id="elem_ScheduleClassUI"><rect codeLine="128" fill="#F1F1F1" height="53.24" id="ScheduleClassUI" rx="2.5" ry="2.5" style="stroke:#181818;stroke-width:0.5;" width="192" x="969" y="7"/><ellipse cx="985" cy="25.62" fill="#ADD1B2" rx="12" ry="12" style="stroke:#181818;stroke-width:1.0;"/><path d="M985.125,19.9637 Q984.0469,19.9637 983.1875,20.3387 Q982.3281,20.6981 981.7344,21.4012 Q981.1406,22.0887 980.8125,23.1044 Q980.5,24.12 980.5,25.4169 Q980.5,27.12 981.0156,28.3544 Q981.5313,29.5731 982.5469,30.2294 Q983.5625,30.87 985.1094,30.87 Q986.0156,30.87 986.8281,30.7137 Q987.6406,30.5575 988.8281,30.1981 L988.8281,32.4012 Q987.7969,32.7762 986.9219,32.9169 Q986.0469,33.0731 984.8438,33.0731 Q982.5625,33.0731 981.0313,32.1356 Q979.5,31.1825 978.7344,29.4481 Q977.9688,27.6981 977.9688,25.4012 Q977.9688,23.7294 978.4375,22.3387 Q978.9063,20.9481 979.8125,19.9169 Q980.7344,18.87 982.0781,18.3231 Q983.4219,17.7606 985.1406,17.7606 Q986.2813,17.7606 987.3281,17.995 Q988.3906,18.2137 989.4844,18.7762 L988.5156,20.8387 Q987.5938,20.4325 986.8125,20.1981 Q986.0313,19.9637 985.125,19.9637 Z " fill="#000000"/><text fill="#000000" font-family="sans-serif" font-size="20" lengthAdjust="spacing" textLength="158" x="1000" y="33.38">ScheduleClassUI</text><line style="stroke:#181818;stroke-width:0.5;" x1="970" x2="1160" y1="44.24" y2="44.24"/><line style="stroke:#181818;stroke-width:0.5;" x1="970" x2="1160" y1="52.24" y2="52.24"/></g><!--link ScheduleClassUI to ScheduleClassController--><g id="link_ScheduleClassUI_ScheduleClassController"><path codeLine="130" d="M1065,60.38 C1065,74.73 1065,93.86 1065,114.73 " fill="none" id="ScheduleClassUI-to-ScheduleClassController" style="stroke:#181818;stroke-width:1.0;stroke-dasharray:7.0,7.0;"/><polygon fill="#181818" points="1065,119.78,1069,110.78,1065,114.78,1061,110.78,1065,119.78" style="stroke:#181818;stroke-width:1.0;"/></g><!--link ScheduleClassController to PersistenceContext--><g id="link_ScheduleClassController_PersistenceContext"><path codeLine="132" d="M1457.33,408.28 C1506.62,429.7 1555.62,453.07 1601,478 C1627.43,492.52 1654.63,511.86 1677.04,529.17 " fill="none" id="ScheduleClassController-to-PersistenceContext" style="stroke:#181818;stroke-width:1.0;stroke-dasharray:7.0,7.0;"/><polygon fill="#181818" points="1681.17,532.38,1676.5281,523.6936,1677.2255,529.3073,1671.6119,530.0048,1681.17,532.38" style="stroke:#181818;stroke-width:1.0;"/></g><!--link ScheduleClassController to ScheduleAvailabilityService--><g id="link_ScheduleClassController_ScheduleAvailabilityService"><path codeLine="133" d="M922.55,418.1 C894.7,447.06 866.72,476.14 842.73,501.08 " fill="none" id="ScheduleClassController-to-ScheduleAvailabilityService" style="stroke:#181818;stroke-width:1.0;"/><polygon fill="#181818" points="839.22,504.73,848.3316,500.9911,842.6761,501.1168,842.5504,495.4613,839.22,504.73" style="stroke:#181818;stroke-width:1.0;"/></g><!--link ScheduleClassController to CourseClass--><g id="link_ScheduleClassController_CourseClass"><path codeLine="134" d="M672.9,369.58 C593.04,398.29 511.85,434.08 441,478 C436.38,480.86 431.82,484 427.34,487.33 " fill="none" id="ScheduleClassController-to-CourseClass" style="stroke:#181818;stroke-width:1.0;"/><polygon fill="#181818" points="423.26,490.45,432.8408,488.168,427.2342,487.4159,427.9863,481.8093,423.26,490.45" style="stroke:#181818;stroke-width:1.0;"/></g><!--link ScheduleClassController to ListCourseService--><g id="link_ScheduleClassController_ListCourseService"><path codeLine="135" d="M1207.45,418.1 C1230.47,442.03 1253.58,466.05 1274.44,487.75 " fill="none" id="ScheduleClassController-to-ListCourseService" style="stroke:#181818;stroke-width:1.0;"/><polygon fill="#181818" points="1278.04,491.49,1274.6912,482.2279,1274.5767,487.8836,1268.921,487.7691,1278.04,491.49" style="stroke:#181818;stroke-width:1.0;"/></g><!--link PersistenceContext to RepositoryFactory--><g id="link_PersistenceContext_RepositoryFactory"><path codeLine="137" d="M1728,612.64 C1728,665.98 1728,761.24 1728,817.16 " fill="none" id="PersistenceContext-to-RepositoryFactory" style="stroke:#181818;stroke-width:1.0;stroke-dasharray:7.0,7.0;"/><polygon fill="#181818" points="1728,822.44,1732,813.44,1728,817.44,1724,813.44,1728,822.44" style="stroke:#181818;stroke-width:1.0;"/></g><!--link RepositoryFactory to CourseRepository--><g id="link_RepositoryFactory_CourseRepository"><path codeLine="138" d="M1800.1,902.54 C1887.03,949.6 2033.71,1029.02 2132.4,1082.45 " fill="none" id="RepositoryFactory-to-CourseRepository" style="stroke:#181818;stroke-width:1.0;"/><polygon fill="#181818" points="2137.07,1084.98,2131.0558,1077.1807,2132.6718,1082.6018,2127.2507,1084.2178,2137.07,1084.98" style="stroke:#181818;stroke-width:1.0;"/></g><!--link RepositoryFactory to TeacherRepository--><g id="link_RepositoryFactory_TeacherRepository"><path codeLine="139" d="M1651.49,902.54 C1550.73,953.95 1374.29,1043.97 1271.23,1096.55 " fill="none" id="RepositoryFactory-to-TeacherRepository" style="stroke:#181818;stroke-width:1.0;"/><polygon fill="#181818" points="1266.68,1098.88,1276.515,1098.3574,1271.1349,1096.6097,1272.8826,1091.2296,1266.68,1098.88" style="stroke:#181818;stroke-width:1.0;"/></g><!--link RepositoryFactory to CourseClassRepository--><g id="link_RepositoryFactory_CourseClassRepository"><path codeLine="140" d="M1728,902.54 C1728,953.01 1728,1040.7 1728,1093.64 " fill="none" id="RepositoryFactory-to-CourseClassRepository" style="stroke:#181818;stroke-width:1.0;"/><polygon fill="#181818" points="1728,1098.65,1732,1089.65,1728,1093.65,1724,1089.65,1728,1098.65" style="stroke:#181818;stroke-width:1.0;"/></g><!--link CourseDTOParser to CourseDTO--><g id="link_CourseDTOParser_CourseDTO"><path codeLine="142" d="M128,612.64 C128,644.41 128,691.04 128,735.38 " fill="none" id="CourseDTOParser-to-CourseDTO" style="stroke:#181818;stroke-width:1.0;stroke-dasharray:7.0,7.0;"/><polygon fill="#181818" points="128,740.49,132,731.49,128,735.49,124,731.49,128,740.49" style="stroke:#181818;stroke-width:1.0;"/></g><!--link CourseDTOParser to Course--><g id="link_CourseDTOParser_Course"><path codeLine="143" d="M174.78,612.72 C197.91,630.85 226.86,651.69 255,667 C378.76,734.32 530.75,788.69 637.23,822.65 " fill="none" id="CourseDTOParser-to-Course" style="stroke:#181818;stroke-width:1.0;stroke-dasharray:7.0,7.0;"/><polygon fill="#181818" points="642.27,824.25,634.9073,817.7086,637.5056,822.7334,632.4807,825.3317,642.27,824.25" style="stroke:#181818;stroke-width:1.0;"/></g><!--reverse link CourseRepository to InMemoryCourseRepository--><g id="link_CourseRepository_InMemoryCourseRepository"><path codeLine="145" d="M2235,1213.37 C2235,1235.51 2235,1259.38 2235,1279.92 " fill="none" id="CourseRepository-backto-InMemoryCourseRepository" style="stroke:#181818;stroke-width:1.0;stroke-dasharray:7.0,7.0;"/><polygon fill="none" points="2228,1213.25,2235,1193.25,2242,1213.25,2228,1213.25" style="stroke:#181818;stroke-width:1.0;"/></g><!--reverse link CourseRepository to JpaCourseRepository--><g id="link_CourseRepository_JpaCourseRepository"><path codeLine="146" d="M2335.99,1204.12 C2374.73,1228.71 2418.47,1256.48 2455.4,1279.92 " fill="none" id="CourseRepository-backto-JpaCourseRepository" style="stroke:#181818;stroke-width:1.0;stroke-dasharray:7.0,7.0;"/><polygon fill="none" points="2332.01,1209.88,2318.87,1193.25,2339.51,1198.06,2332.01,1209.88" style="stroke:#181818;stroke-width:1.0;"/></g><!--reverse link CourseClassRepository to InMemoryCourseClassRepository--><g id="link_CourseClassRepository_InMemoryCourseClassRepository"><path codeLine="148" d="M1678.1,1194.11 C1653.41,1220.88 1623.71,1253.08 1599.12,1279.74 " fill="none" id="CourseClassRepository-backto-InMemoryCourseClassRepository" style="stroke:#181818;stroke-width:1.0;stroke-dasharray:7.0,7.0;"/><polygon fill="none" points="1673.27,1189.01,1691.98,1179.06,1683.57,1198.5,1673.27,1189.01" style="stroke:#181818;stroke-width:1.0;"/></g><!--reverse link CourseClassRepository to JpaCourseClassRepository--><g id="link_CourseClassRepository_JpaCourseClassRepository"><path codeLine="149" d="M1777.62,1194.11 C1802.17,1220.88 1831.71,1253.08 1856.15,1279.74 " fill="none" id="CourseClassRepository-backto-JpaCourseClassRepository" style="stroke:#181818;stroke-width:1.0;stroke-dasharray:7.0,7.0;"/><polygon fill="none" points="1772.18,1198.53,1763.82,1179.06,1782.5,1189.07,1772.18,1198.53" style="stroke:#181818;stroke-width:1.0;"/></g><!--reverse link TeacherRepository to InMemoryTeacherRepository--><g id="link_TeacherRepository_InMemoryTeacherRepository"><path codeLine="151" d="M1103.52,1188.95 C1054.45,1216.72 993.01,1251.49 942.78,1279.92 " fill="none" id="TeacherRepository-backto-InMemoryTeacherRepository" style="stroke:#181818;stroke-width:1.0;stroke-dasharray:7.0,7.0;"/><polygon fill="none" points="1100.14,1182.82,1120.99,1179.06,1107.04,1195,1100.14,1182.82" style="stroke:#181818;stroke-width:1.0;"/></g><!--reverse link TeacherRepository to JpaTeacherRepository--><g id="link_TeacherRepository_JpaTeacherRepository"><path codeLine="152" d="M1190,1199.43 C1190,1225.07 1190,1254.83 1190,1279.74 " fill="none" id="TeacherRepository-backto-JpaTeacherRepository" style="stroke:#181818;stroke-width:1.0;stroke-dasharray:7.0,7.0;"/><polygon fill="none" points="1183,1199.06,1190,1179.06,1197,1199.06,1183,1199.06" style="stroke:#181818;stroke-width:1.0;"/></g><!--link ListCourseService to Course--><g id="link_ListCourseService_Course"><path codeLine="154" d="M1192.16,653.53 C1100.15,698.75 986.67,754.52 900.39,796.93 " fill="none" id="ListCourseService-to-Course" style="stroke:#181818;stroke-width:1.0;stroke-dasharray:7.0,7.0;"/><polygon fill="#181818" points="895.78,799.19,905.6218,798.8183,900.2692,796.9883,902.0991,791.6356,895.78,799.19" style="stroke:#181818;stroke-width:1.0;"/></g><!--link Course to CourseState--><g id="link_Course_CourseState"><path codeLine="156" d="M769,998.34 C769,1016.77 769,1035.26 769,1052.47 " fill="none" id="Course-to-CourseState" style="stroke:#181818;stroke-width:1.0;"/><polygon fill="#181818" points="769,1057.78,773,1048.78,769,1052.78,765,1048.78,769,1057.78" style="stroke:#181818;stroke-width:1.0;"/></g><!--SRC=[lLPDRzim3BthL-YM54c3OUUXG9kacuSi2UeMEmwgpQH2P2kGv61Pr_y-MPPjHRAzmugTz4K-ae-a97cW-P48aZ6U7235AUn8mTGzprLCVm7- -06XX14fyGCSkQIAY_CzISe1loAC9-7- -0gz8KHp1M974i1pNWW9hPZHUoNFKWcjy8PtD4zl6LjpDMTSGghrkyxZv0NIWa5wTtu4eXTYhAhHsAkSZF9la6aRdJOdtQOcM98JZ1EZuc1zFP9_Wsafi0uFSt1tVf8WSfB1kB2JZiYweIRz28rd8LiwmlU1yvCzB-7_cl4xcwOvJqlUKkXDP1VUP02cpKQfs9NJTqFSWf1KAiWJBQvf-AaCrZKMDJW5ENOKAcWhL8ARYQAALRCKP2BeKL6UcpNaWhCCShMY6LNIgfKOiI8AdFMobdGE1EXfUgkGYK3n_PvvSgPuH-PmeNZegM7AkfkISvH_1pXKgqAGnisNKjZCPDkejTK66F8YixZ6kC6ThpRnSg4dc-rohOTe_MFxiFdyi8nZlRgFrb7yHPzhzH5s02x3q4WZR27AYGKTuIQS-WAvFH7Ao3DbL9rZ42UQW4t_W4ILzxPWfbZvdNDLHKkbxIcBmffMqJeqWsd3cqFrIfUGfSNng4viQwCo4KYFVJdh2zE2kfwZV2luNe2KAqXK8ORlq0fvyRZvxpKQkh0bUXGsFIV22jZiRB3wr76wJfsfrh8HjHbcDRM9o-HrKsj2z9DgTfdFjzabOPMWYpBoV0bBo7UXlwXA3sp6AaUaVNCgyemboqjRNzEsNwTLV_OHzXJXLttYxyrcDtt1UC8EuwLIU2dsYbzVtmprtQ2USq4DoWNzWb37jLqw7dncKFZjQIqxPT8j5hokWt3UcuIGtmQbXytUm6cjwRnldtxFPhs_enxnZWzGZUm_dntmVZG3YdslCaBXz-J2KiXlZqBNJmUXyDODENJoKrrP8nmSU9VQ7m00]--></g></svg>