<?xml version="1.0" encoding="UTF-8" standalone="no"?><svg xmlns="http://www.w3.org/2000/svg" xmlns:xlink="http://www.w3.org/1999/xlink" contentStyleType="text/css" height="1047px" preserveAspectRatio="none" style="width:1129px;height:1047px;background:#FFFFFF;" version="1.1" viewBox="0 0 1129 1047" width="1129px" zoomAndPan="magnify"><defs/><g><!--cluster <<aggregate>> Course--><g id="cluster_&lt;&lt;aggregate&gt;&gt; Course"><path d="M8.5,410.36 L212.125,410.36 A3.75,3.75 0 0 1 214.625,412.86 L221.625,443.6 L804.5,443.6 A2.5,2.5 0 0 1 807,446.1 L807,839.86 A2.5,2.5 0 0 1 804.5,842.36 L8.5,842.36 A2.5,2.5 0 0 1 6,839.86 L6,412.86 A2.5,2.5 0 0 1 8.5,410.36 " fill="none" style="stroke:#000000;stroke-width:1.5;"/><line style="stroke:#000000;stroke-width:1.5;" x1="6" x2="221.625" y1="443.6" y2="443.6"/><text fill="#000000" font-family="sans-serif" font-size="20" font-weight="bold" lengthAdjust="spacing" textLength="202.625" x="10" y="433.74">«aggregate» Course</text></g><!--cluster <<aggregate>> Enrolment--><g id="cluster_&lt;&lt;aggregate&gt;&gt; Enrolment"><path d="M286.5,195.36 L527,195.36 A3.75,3.75 0 0 1 529.5,197.86 L536.5,228.6 L536.5,228.6 A2.5,2.5 0 0 1 539,231.1 L539,346.86 A2.5,2.5 0 0 1 536.5,349.36 L286.5,349.36 A2.5,2.5 0 0 1 284,346.86 L284,197.86 A2.5,2.5 0 0 1 286.5,195.36 " fill="none" style="stroke:#000000;stroke-width:1.5;"/><line style="stroke:#000000;stroke-width:1.5;" x1="284" x2="536.5" y1="228.6" y2="228.6"/><text fill="#000000" font-family="sans-serif" font-size="20" font-weight="bold" lengthAdjust="spacing" textLength="239.5" x="288" y="218.74">«aggregate» Enrolment</text></g><!--cluster <<aggregate>> Exam--><g id="cluster_&lt;&lt;aggregate&gt;&gt; Exam"><path d="M453.5,8.36 L640.875,8.36 A3.75,3.75 0 0 1 643.375,10.86 L650.375,41.6 L650.5,41.6 A2.5,2.5 0 0 1 653,44.1 L653,159.86 A2.5,2.5 0 0 1 650.5,162.36 L453.5,162.36 A2.5,2.5 0 0 1 451,159.86 L451,10.86 A2.5,2.5 0 0 1 453.5,8.36 " fill="none" style="stroke:#000000;stroke-width:1.5;"/><line style="stroke:#000000;stroke-width:1.5;" x1="451" x2="650.375" y1="41.6" y2="41.6"/><text fill="#000000" font-family="sans-serif" font-size="20" font-weight="bold" lengthAdjust="spacing" textLength="186.375" x="455" y="31.74">«aggregate» Exam</text></g><!--cluster <<aggregate>> Teacher--><g id="cluster_&lt;&lt;aggregate&gt;&gt; Teacher"><path d="M801.5,875.36 L1015.75,875.36 A3.75,3.75 0 0 1 1018.25,877.86 L1025.25,908.6 L1025.5,908.6 A2.5,2.5 0 0 1 1028,911.1 L1028,1026.86 A2.5,2.5 0 0 1 1025.5,1029.36 L801.5,1029.36 A2.5,2.5 0 0 1 799,1026.86 L799,877.86 A2.5,2.5 0 0 1 801.5,875.36 " fill="none" style="stroke:#000000;stroke-width:1.5;"/><line style="stroke:#000000;stroke-width:1.5;" x1="799" x2="1025.25" y1="908.6" y2="908.6"/><text fill="#000000" font-family="sans-serif" font-size="20" font-weight="bold" lengthAdjust="spacing" textLength="213.25" x="803" y="898.74">«aggregate» Teacher</text></g><!--cluster <<aggregate>> Class--><g id="cluster_&lt;&lt;aggregate&gt;&gt; Class"><path d="M679.5,8.36 L864.5,8.36 A3.75,3.75 0 0 1 867,10.86 L874,41.6 L874.5,41.6 A2.5,2.5 0 0 1 877,44.1 L877,159.86 A2.5,2.5 0 0 1 874.5,162.36 L679.5,162.36 A2.5,2.5 0 0 1 677,159.86 L677,10.86 A2.5,2.5 0 0 1 679.5,8.36 " fill="none" style="stroke:#000000;stroke-width:1.5;"/><line style="stroke:#000000;stroke-width:1.5;" x1="677" x2="874" y1="41.6" y2="41.6"/><text fill="#000000" font-family="sans-serif" font-size="20" font-weight="bold" lengthAdjust="spacing" textLength="184" x="681" y="31.74">«aggregate» Class</text></g><!--class Course--><g id="elem_Course"><rect codeLine="29" fill="#F5F5DC" height="154.1999" id="Course" rx="2.5" ry="2.5" style="stroke:#181818;stroke-width:0.5;" width="112" x="535" y="456.36"/><ellipse cx="555.95" cy="502.22" fill="#ADD1B2" rx="12" ry="12" style="stroke:#181818;stroke-width:1.0;"/><path d="M559.9969,509.72 L551.3875,509.72 L551.3875,494.8137 L559.9969,494.8137 L559.9969,497.0168 L553.8094,497.0168 L553.8094,500.8606 L559.6375,500.8606 L559.6375,503.0325 L553.8094,503.0325 L553.8094,507.5168 L559.9969,507.5168 L559.9969,509.72 Z " fill="#000000"/><text fill="#000000" font-family="sans-serif" font-size="20" font-style="italic" lengthAdjust="spacing" textLength="70" x="570.55" y="482.74">«entity»</text><text fill="#000000" font-family="sans-serif" font-size="20" font-style="italic" lengthAdjust="spacing" textLength="57" x="577.05" y="509.9799">«root»</text><text fill="#000000" font-family="sans-serif" font-size="20" lengthAdjust="spacing" textLength="67" x="572.05" y="537.2199">Course</text><line style="stroke:#181818;stroke-width:0.5;" x1="536" x2="646" y1="548.0799" y2="548.0799"/><text fill="#000000" font-family="sans-serif" font-size="20" lengthAdjust="spacing" textLength="52" x="541" y="573.4599">-code</text><text fill="#000000" font-family="sans-serif" font-size="20" lengthAdjust="spacing" textLength="100" x="541" y="600.6999">-createdAt</text></g><!--class Title--><g id="elem_Title"><rect codeLine="60" fill="#F5F5DC" height="64.4799" id="Title" rx="2.5" ry="2.5" style="stroke:#181818;stroke-width:0.5;" width="156" x="22" y="730.86"/><ellipse cx="38" cy="763.1" fill="#FF8B40" rx="12" ry="12" style="stroke:#181818;stroke-width:1.0;"/><path d="M44.25,756.9437 L38.9375,771.85 L36.6875,771.85 L31.375,756.9437 L33.9063,756.9437 L37.2031,766.3031 Q37.4219,766.8968 37.5781,767.4437 Q37.75,767.9906 37.875,768.4906 Q38.0156,768.975 37.8125,769.0218 Q37.5938,768.9906 37.7344,768.475 Q37.875,767.9593 38.0469,767.4281 Q38.2188,766.8812 38.4219,766.2718 L41.6875,756.9437 L44.25,756.9437 Z " fill="#000000"/><text fill="#000000" font-family="sans-serif" font-size="20" font-style="italic" lengthAdjust="spacing" textLength="126" x="51" y="757.24">«value object»</text><text fill="#000000" font-family="sans-serif" font-size="20" lengthAdjust="spacing" textLength="44" x="92" y="784.4799">Title</text></g><!--class CourseState--><g id="elem_CourseState"><rect codeLine="61" fill="#F5F5DC" height="64.4799" id="CourseState" rx="2.5" ry="2.5" style="stroke:#181818;stroke-width:0.5;" width="156" x="213" y="730.86"/><ellipse cx="229" cy="763.1" fill="#FF8B40" rx="12" ry="12" style="stroke:#181818;stroke-width:1.0;"/><path d="M235.25,756.9437 L229.9375,771.85 L227.6875,771.85 L222.375,756.9437 L224.9063,756.9437 L228.2031,766.3031 Q228.4219,766.8968 228.5781,767.4437 Q228.75,767.9906 228.875,768.4906 Q229.0156,768.975 228.8125,769.0218 Q228.5938,768.9906 228.7344,768.475 Q228.875,767.9593 229.0469,767.4281 Q229.2188,766.8812 229.4219,766.2718 L232.6875,756.9437 L235.25,756.9437 Z " fill="#000000"/><text fill="#000000" font-family="sans-serif" font-size="20" font-style="italic" lengthAdjust="spacing" textLength="126" x="242" y="757.24">«value object»</text><text fill="#000000" font-family="sans-serif" font-size="20" lengthAdjust="spacing" textLength="116" x="247" y="784.4799">CourseState</text></g><!--class EnrolmentLimits--><g id="elem_EnrolmentLimits"><rect codeLine="20" fill="#F5F5DC" height="126.9599" id="EnrolmentLimits" rx="2.5" ry="2.5" style="stroke:#181818;stroke-width:0.5;" width="196" x="404" y="699.36"/><ellipse cx="420" cy="731.6" fill="#FF8B40" rx="12" ry="12" style="stroke:#181818;stroke-width:1.0;"/><path d="M426.25,725.4437 L420.9375,740.35 L418.6875,740.35 L413.375,725.4437 L415.9063,725.4437 L419.2031,734.8031 Q419.4219,735.3968 419.5781,735.9437 Q419.75,736.4906 419.875,736.9906 Q420.0156,737.475 419.8125,737.5218 Q419.5938,737.4906 419.7344,736.975 Q419.875,736.4593 420.0469,735.9281 Q420.2188,735.3812 420.4219,734.7718 L423.6875,725.4437 L426.25,725.4437 Z " fill="#000000"/><text fill="#000000" font-family="sans-serif" font-size="20" font-style="italic" lengthAdjust="spacing" textLength="126" x="453" y="725.74">«value object»</text><text fill="#000000" font-family="sans-serif" font-size="20" lengthAdjust="spacing" textLength="162" x="435" y="752.9799">EnrolmentLimits</text><line style="stroke:#181818;stroke-width:0.5;" x1="405" x2="599" y1="763.8399" y2="763.8399"/><text fill="#000000" font-family="sans-serif" font-size="20" lengthAdjust="spacing" textLength="45" x="410" y="789.2199">-min</text><text fill="#000000" font-family="sans-serif" font-size="20" lengthAdjust="spacing" textLength="48" x="410" y="816.4599">-max</text></g><!--class Description--><g id="elem_Description"><rect codeLine="19" fill="#F5F5DC" height="64.4799" id="Description" rx="2.5" ry="2.5" style="stroke:#181818;stroke-width:0.5;" width="156" x="635" y="730.86"/><ellipse cx="651" cy="763.1" fill="#FF8B40" rx="12" ry="12" style="stroke:#181818;stroke-width:1.0;"/><path d="M657.25,756.9437 L651.9375,771.85 L649.6875,771.85 L644.375,756.9437 L646.9063,756.9437 L650.2031,766.3031 Q650.4219,766.8968 650.5781,767.4437 Q650.75,767.9906 650.875,768.4906 Q651.0156,768.975 650.8125,769.0218 Q650.5938,768.9906 650.7344,768.475 Q650.875,767.9593 651.0469,767.4281 Q651.2188,766.8812 651.4219,766.2718 L654.6875,756.9437 L657.25,756.9437 Z " fill="#000000"/><text fill="#000000" font-family="sans-serif" font-size="20" font-style="italic" lengthAdjust="spacing" textLength="126" x="664" y="757.24">«value object»</text><text fill="#000000" font-family="sans-serif" font-size="20" lengthAdjust="spacing" textLength="111" x="671.5" y="784.4799">Description</text></g><!--class Enrolment--><g id="elem_Enrolment"><rect codeLine="34" fill="#F5F5DC" height="91.7199" id="Enrolment" rx="2.5" ry="2.5" style="stroke:#181818;stroke-width:0.5;" width="136" x="385" y="241.36"/><ellipse cx="401" cy="287.22" fill="#ADD1B2" rx="12" ry="12" style="stroke:#181818;stroke-width:1.0;"/><path d="M405.0469,294.72 L396.4375,294.72 L396.4375,279.8137 L405.0469,279.8137 L405.0469,282.0168 L398.8594,282.0168 L398.8594,285.8606 L404.6875,285.8606 L404.6875,288.0325 L398.8594,288.0325 L398.8594,292.5168 L405.0469,292.5168 L405.0469,294.72 Z " fill="#000000"/><text fill="#000000" font-family="sans-serif" font-size="20" font-style="italic" lengthAdjust="spacing" textLength="70" x="432" y="267.74">«entity»</text><text fill="#000000" font-family="sans-serif" font-size="20" font-style="italic" lengthAdjust="spacing" textLength="57" x="438.5" y="294.9799">«root»</text><text fill="#000000" font-family="sans-serif" font-size="20" lengthAdjust="spacing" textLength="102" x="416" y="322.2199">Enrolment</text></g><!--class Exam--><g id="elem_Exam"><rect codeLine="41" fill="#F5F5DC" height="91.7199" id="Exam" rx="2.5" ry="2.5" style="stroke:#181818;stroke-width:0.5;" width="100" x="537" y="54.36"/><ellipse cx="553" cy="100.22" fill="#ADD1B2" rx="12" ry="12" style="stroke:#181818;stroke-width:1.0;"/><path d="M557.0469,107.72 L548.4375,107.72 L548.4375,92.8137 L557.0469,92.8137 L557.0469,95.0168 L550.8594,95.0168 L550.8594,98.8606 L556.6875,98.8606 L556.6875,101.0325 L550.8594,101.0325 L550.8594,105.5168 L557.0469,105.5168 L557.0469,107.72 Z " fill="#000000"/><text fill="#000000" font-family="sans-serif" font-size="20" font-style="italic" lengthAdjust="spacing" textLength="70" x="566" y="80.74">«entity»</text><text fill="#000000" font-family="sans-serif" font-size="20" font-style="italic" lengthAdjust="spacing" textLength="57" x="572.5" y="107.9799">«root»</text><text fill="#000000" font-family="sans-serif" font-size="20" lengthAdjust="spacing" textLength="52" x="575" y="135.2199">Exam</text></g><!--class Teacher--><g id="elem_Teacher"><rect codeLine="48" fill="#F5F5DC" height="91.7199" id="Teacher" rx="2.5" ry="2.5" style="stroke:#181818;stroke-width:0.5;" width="111" x="858.5" y="921.36"/><ellipse cx="874.5" cy="967.22" fill="#ADD1B2" rx="12" ry="12" style="stroke:#181818;stroke-width:1.0;"/><path d="M878.5469,974.72 L869.9375,974.72 L869.9375,959.8137 L878.5469,959.8137 L878.5469,962.0168 L872.3594,962.0168 L872.3594,965.8606 L878.1875,965.8606 L878.1875,968.0325 L872.3594,968.0325 L872.3594,972.5168 L878.5469,972.5168 L878.5469,974.72 Z " fill="#000000"/><text fill="#000000" font-family="sans-serif" font-size="20" font-style="italic" lengthAdjust="spacing" textLength="70" x="893" y="947.74">«entity»</text><text fill="#000000" font-family="sans-serif" font-size="20" font-style="italic" lengthAdjust="spacing" textLength="57" x="899.5" y="974.9799">«root»</text><text fill="#000000" font-family="sans-serif" font-size="20" lengthAdjust="spacing" textLength="77" x="889.5" y="1002.2199">Teacher</text></g><!--class Class--><g id="elem_Class"><rect codeLine="55" fill="#F5F5DC" height="91.7199" id="Class" rx="2.5" ry="2.5" style="stroke:#181818;stroke-width:0.5;" width="100" x="693" y="54.36"/><ellipse cx="709" cy="100.22" fill="#ADD1B2" rx="12" ry="12" style="stroke:#181818;stroke-width:1.0;"/><path d="M713.0469,107.72 L704.4375,107.72 L704.4375,92.8137 L713.0469,92.8137 L713.0469,95.0168 L706.8594,95.0168 L706.8594,98.8606 L712.6875,98.8606 L712.6875,101.0325 L706.8594,101.0325 L706.8594,105.5168 L713.0469,105.5168 L713.0469,107.72 Z " fill="#000000"/><text fill="#000000" font-family="sans-serif" font-size="20" font-style="italic" lengthAdjust="spacing" textLength="70" x="722" y="80.74">«entity»</text><text fill="#000000" font-family="sans-serif" font-size="20" font-style="italic" lengthAdjust="spacing" textLength="57" x="728.5" y="107.9799">«root»</text><text fill="#000000" font-family="sans-serif" font-size="20" lengthAdjust="spacing" textLength="49" x="732.5" y="135.2199">Class</text></g><g id="elem_GMN16"><path d="M215.5,894.36 L215.5,1040.5599 A0,0 0 0 0 215.5,1040.5599 L366.5,1040.5599 A0,0 0 0 0 366.5,1040.5599 L366.5,904.36 L356.5,894.36 L295,894.36 L291,795.06 L287,894.36 L215.5,894.36 A0,0 0 0 0 215.5,894.36 " fill="#FEFFDD" style="stroke:#181818;stroke-width:0.5;"/><path d="M356.5,894.36 L356.5,904.36 L366.5,904.36 L356.5,894.36 " fill="#FEFFDD" style="stroke:#181818;stroke-width:0.5;"/><text fill="#000000" font-family="sans-serif" font-size="20" lengthAdjust="spacing" textLength="74" x="221.5" y="920.74">CLOSED</text><text fill="#000000" font-family="sans-serif" font-size="20" lengthAdjust="spacing" textLength="54" x="221.5" y="947.9799">OPEN</text><text fill="#000000" font-family="sans-serif" font-size="20" lengthAdjust="spacing" textLength="76" x="221.5" y="975.2199">ENROLL</text><text fill="#000000" font-family="sans-serif" font-size="20" lengthAdjust="spacing" textLength="130" x="221.5" y="1002.4599">IN_PROGRESS</text><text fill="#000000" font-family="sans-serif" font-size="20" lengthAdjust="spacing" textLength="92" x="221.5" y="1029.6999">FINISHED</text></g><!--link Course to Title--><g id="link_Course_Title"><path codeLine="63" d="M534.78,553.84 C456.69,581.79 311.95,636.83 196,699.36 C180.3,707.83 163.81,718.04 149.01,727.73 " fill="none" id="Course-to-Title" style="stroke:#222222;stroke-width:1.0;"/><polygon fill="#222222" points="144.48,730.72,154.1963,729.1096,148.6555,727.9696,149.7956,722.4288,144.48,730.72" style="stroke:#222222;stroke-width:1.0;"/><text fill="#000000" font-family="sans-serif" font-size="20" lengthAdjust="spacing" textLength="73" x="313" y="662.74">is titled</text><text fill="#000000" font-family="sans-serif" font-size="20" lengthAdjust="spacing" textLength="11" x="140.4233" y="716.949">1</text></g><!--link Course to Teacher--><g id="link_Course_Teacher"><path codeLine="64" d="M647.16,564.89 C695.82,593.86 765.12,641.49 809,699.36 C859.25,765.63 888.62,859.02 902.97,915.98 " fill="none" id="Course-to-Teacher" style="stroke:#222222;stroke-width:1.0;"/><polygon fill="#222222" points="904.22,921.03,905.938,911.3321,903.0174,916.1768,898.1728,913.2562,904.22,921.03" style="stroke:#222222;stroke-width:1.0;"/><text fill="#000000" font-family="sans-serif" font-size="20" lengthAdjust="spacing" textLength="34" x="884" y="770.74">has</text><text fill="#000000" font-family="sans-serif" font-size="20" lengthAdjust="spacing" textLength="32" x="868.7558" y="907.4053">1..*</text></g><!--link Course to Teacher--><g id="link_Course_Teacher"><path codeLine="65" d="M647.21,543.37 C725.72,559.3 865.49,600.63 927,699.36 C968.09,765.32 949.87,859.22 932.34,916.29 " fill="none" id="Course-to-Teacher-1" style="stroke:#222222;stroke-width:1.0;"/><polygon fill="#222222" points="930.76,921.36,937.2548,913.9561,932.2465,916.5861,929.6165,911.5777,930.76,921.36" style="stroke:#222222;stroke-width:1.0;"/><text fill="#000000" font-family="sans-serif" font-size="20" lengthAdjust="spacing" textLength="169" x="952" y="770.74">has a responsible</text><text fill="#000000" font-family="sans-serif" font-size="20" lengthAdjust="spacing" textLength="11" x="921.3434" y="907.4094">1</text></g><!--link Course to CourseState--><g id="link_Course_CourseState"><path codeLine="66" d="M534.92,576.88 C477.4,620.5 389.05,687.5 335.96,727.77 " fill="none" id="Course-to-CourseState" style="stroke:#222222;stroke-width:1.0;"/><polygon fill="#222222" points="331.88,730.86,341.4711,728.6216,335.868,727.844,336.6455,722.2409,331.88,730.86" style="stroke:#222222;stroke-width:1.0;"/><text fill="#000000" font-family="sans-serif" font-size="20" lengthAdjust="spacing" textLength="40" x="450" y="662.74">is in</text><text fill="#000000" font-family="sans-serif" font-size="20" lengthAdjust="spacing" textLength="11" x="327.1821" y="717.1139">1</text></g><!--link Course to Description--><g id="link_Course_Description"><path codeLine="67" d="M631.79,610.43 C652.79,649.58 677.38,695.45 693.96,726.36 " fill="none" id="Course-to-Description" style="stroke:#222222;stroke-width:1.0;"/><polygon fill="#222222" points="696.35,730.81,695.6145,720.9886,693.9838,726.4054,688.567,724.7746,696.35,730.81" style="stroke:#222222;stroke-width:1.0;"/><text fill="#000000" font-family="sans-serif" font-size="20" lengthAdjust="spacing" textLength="34" x="663" y="662.74">has</text><text fill="#000000" font-family="sans-serif" font-size="20" lengthAdjust="spacing" textLength="11" x="681.4045" y="717.055">1</text></g><!--link Course to EnrolmentLimits--><g id="link_Course_EnrolmentLimits"><path codeLine="68" d="M561.24,610.43 C550.63,637.55 538.76,667.89 528.45,694.25 " fill="none" id="Course-to-EnrolmentLimits" style="stroke:#222222;stroke-width:1.0;"/><polygon fill="#222222" points="526.54,699.12,533.5526,692.2045,528.3674,694.4659,526.106,689.2807,526.54,699.12" style="stroke:#222222;stroke-width:1.0;"/><text fill="#000000" font-family="sans-serif" font-size="20" lengthAdjust="spacing" textLength="34" x="550" y="662.74">has</text><text fill="#000000" font-family="sans-serif" font-size="20" lengthAdjust="spacing" textLength="11" x="517.5035" y="685.549">1</text></g><!--link Enrolment to Course--><g id="link_Enrolment_Course"><path codeLine="70" d="M478.47,333.4 C497.11,366.35 522.9,411.95 545.09,451.19 " fill="none" id="Enrolment-to-Course" style="stroke:#222222;stroke-width:1.0;"/><polygon fill="#222222" points="547.78,455.94,546.8433,446.1358,545.3239,451.5848,539.8749,450.0655,547.78,455.94" style="stroke:#222222;stroke-width:1.0;"/><text fill="#000000" font-family="sans-serif" font-size="20" lengthAdjust="spacing" textLength="50" x="510" y="387.74">is for</text><text fill="#000000" font-family="sans-serif" font-size="20" lengthAdjust="spacing" textLength="11" x="532.5931" y="442.5083">1</text></g><!--link Exam to Course--><g id="link_Exam_Course"><path codeLine="72" d="M587.42,146.67 C588.09,218.9 589.41,361.15 590.25,451.25 " fill="none" id="Exam-to-Course" style="stroke:#222222;stroke-width:1.0;"/><polygon fill="#222222" points="590.29,456.3,594.1869,447.2549,590.2329,451.3003,586.1874,447.3463,590.29,456.3" style="stroke:#222222;stroke-width:1.0;"/><text fill="#000000" font-family="sans-serif" font-size="20" lengthAdjust="spacing" textLength="69" x="590" y="295.24">is from</text><text fill="#000000" font-family="sans-serif" font-size="20" lengthAdjust="spacing" textLength="11" x="578.7369" y="442.6163">1</text></g><!--link Class to Course--><g id="link_Class_Course"><path codeLine="74" d="M731.6,146.79 C718.2,198.42 694.42,284.92 668,357.36 C656.61,388.59 642.35,422.16 629.2,451.47 " fill="none" id="Class-to-Course" style="stroke:#222222;stroke-width:1.0;"/><polygon fill="#222222" points="627.11,456.14,634.4587,449.5828,629.1672,451.5828,627.1671,446.2913,627.11,456.14" style="stroke:#222222;stroke-width:1.0;"/><text fill="#000000" font-family="sans-serif" font-size="20" lengthAdjust="spacing" textLength="115" x="721" y="295.24">is related to</text><text fill="#000000" font-family="sans-serif" font-size="20" lengthAdjust="spacing" textLength="11" x="618.8362" y="442.442">1</text></g><!--SRC=[bLHBRzf04BxlhnYHGnyga4OzLCX28c1Q90GHZdf2gXPxC5li7MjtQDD6-UzTss1i0atZ2zvlliTwTXQxLJgJHgO9XLkC8CArt2Ky9is1-eDmSotUR9Wps-jsiqHgtgL99wIq6oRIsdQaPEp4GjY33nI50RDHgntZ92HT65sBZOeGCCtuDyX3sTRH57b3aJtrkfNXDZQqqz6G4ZAmGXLZZJGmXdwLfQkRuX4YSneP8xGyJyQnmLWozlimf9sns8970O2QbGij8U608Wpk5ITOhSfgm4v-fFZQK98w_LIbYcs5Zz26HcMiI8id8Pw1u7blltsu6ey_ttwwVWS_PR93eDKF3DdjxV59dBL_GUNIsv0gNVxAXppvmjTNneq6L6YkR3J59PThf_KyGtGC32d2yiMWCuy6TNNbUC7W7pjya6bpSmweExlbgqtlKOORD0tVFLQptYElTX_cPzQSg1ofDxCurOk-cXXXHSoK0gth4mSz64xdWJzQwlcTFrjgVxQOJwTBFPbzlrlClopy85ZgyMGs2RxweyF05GFydwDM3tj98VP3qMxteVMnjS_fWRB0-Mjq91ICJkTzg-fg3pRIFdEe5q62GPkHjchbBk09jTaL5-a6_eHIlsXduqxlLKaInsbjXfKvQpAEaezT-spPaFlpAq_uBC5WajyFO19_0G00]--></g></svg>