<?xml version="1.0" encoding="UTF-8" standalone="no"?><svg xmlns="http://www.w3.org/2000/svg" xmlns:xlink="http://www.w3.org/1999/xlink" contentStyleType="text/css" height="722px" preserveAspectRatio="none" style="width:1513px;height:722px;background:#FFFFFF;" version="1.1" viewBox="0 0 1513 722" width="1513px" zoomAndPan="magnify"><defs/><g><!--cluster <<aggregate>> Class--><g id="cluster_&lt;&lt;aggregate&gt;&gt; Class"><path d="M19.91,8.36 L199.91,8.36 A3.75,3.75 0 0 1 202.41,10.86 L209.41,41.6 L467.91,41.6 A2.5,2.5 0 0 1 470.41,44.1 L470.41,698.86 A2.5,2.5 0 0 1 467.91,701.36 L19.91,701.36 A2.5,2.5 0 0 1 17.41,698.86 L17.41,10.86 A2.5,2.5 0 0 1 19.91,8.36 " fill="none" style="stroke:#000000;stroke-width:1.5;"/><line style="stroke:#000000;stroke-width:1.5;" x1="17.41" x2="209.41" y1="41.6" y2="41.6"/><text fill="#000000" font-family="sans-serif" font-size="20" font-weight="bold" lengthAdjust="spacing" textLength="179" x="21.41" y="31.74">«aggregate» Class</text></g><!--cluster <<aggregate>> ExtraordinaryClass--><g id="cluster_&lt;&lt;aggregate&gt;&gt; ExtraordinaryClass"><path d="M1129.91,8.36 L1444.035,8.36 A3.75,3.75 0 0 1 1446.535,10.86 L1453.535,41.6 L1503.91,41.6 A2.5,2.5 0 0 1 1506.41,44.1 L1506.41,358.86 A2.5,2.5 0 0 1 1503.91,361.36 L1129.91,361.36 A2.5,2.5 0 0 1 1127.41,358.86 L1127.41,10.86 A2.5,2.5 0 0 1 1129.91,8.36 " fill="none" style="stroke:#000000;stroke-width:1.5;"/><line style="stroke:#000000;stroke-width:1.5;" x1="1127.41" x2="1453.535" y1="41.6" y2="41.6"/><text fill="#000000" font-family="sans-serif" font-size="20" font-weight="bold" lengthAdjust="spacing" textLength="313.125" x="1131.41" y="31.74">«aggregate» ExtraordinaryClass</text></g><!--cluster <<aggregate>> Course--><g id="cluster_&lt;&lt;aggregate&gt;&gt; Course"><path d="M566.91,221.36 L764.535,221.36 A3.75,3.75 0 0 1 767.035,223.86 L774.035,254.6 L773.91,254.6 A2.5,2.5 0 0 1 776.41,257.1 L776.41,372.86 A2.5,2.5 0 0 1 773.91,375.36 L566.91,375.36 A2.5,2.5 0 0 1 564.41,372.86 L564.41,223.86 A2.5,2.5 0 0 1 566.91,221.36 " fill="none" style="stroke:#000000;stroke-width:1.5;"/><line style="stroke:#000000;stroke-width:1.5;" x1="564.41" x2="774.035" y1="254.6" y2="254.6"/><text fill="#000000" font-family="sans-serif" font-size="20" font-weight="bold" lengthAdjust="spacing" textLength="196.625" x="568.41" y="244.74">«aggregate» Course</text></g><!--cluster <<aggregate>> Teacher--><g id="cluster_&lt;&lt;aggregate&gt;&gt; Teacher"><path d="M619.91,561.36 L826.16,561.36 A3.75,3.75 0 0 1 828.66,563.86 L835.66,594.6 L835.91,594.6 A2.5,2.5 0 0 1 838.41,597.1 L838.41,712.86 A2.5,2.5 0 0 1 835.91,715.36 L619.91,715.36 A2.5,2.5 0 0 1 617.41,712.86 L617.41,563.86 A2.5,2.5 0 0 1 619.91,561.36 " fill="none" style="stroke:#000000;stroke-width:1.5;"/><line style="stroke:#000000;stroke-width:1.5;" x1="617.41" x2="835.66" y1="594.6" y2="594.6"/><text fill="#000000" font-family="sans-serif" font-size="20" font-weight="bold" lengthAdjust="spacing" textLength="205.25" x="621.41" y="584.74">«aggregate» Teacher</text></g><!--cluster <<aggregate>> Student--><g id="cluster_&lt;&lt;aggregate&gt;&gt; Student"><path d="M886.91,221.36 L1091.16,221.36 A3.75,3.75 0 0 1 1093.66,223.86 L1100.66,254.6 L1100.91,254.6 A2.5,2.5 0 0 1 1103.41,257.1 L1103.41,372.86 A2.5,2.5 0 0 1 1100.91,375.36 L886.91,375.36 A2.5,2.5 0 0 1 884.41,372.86 L884.41,223.86 A2.5,2.5 0 0 1 886.91,221.36 " fill="none" style="stroke:#000000;stroke-width:1.5;"/><line style="stroke:#000000;stroke-width:1.5;" x1="884.41" x2="1100.66" y1="254.6" y2="254.6"/><text fill="#000000" font-family="sans-serif" font-size="20" font-weight="bold" lengthAdjust="spacing" textLength="203.25" x="888.41" y="244.74">«aggregate» Student</text></g><!--class Class--><g id="elem_Class"><rect codeLine="24" fill="#F5F5DC" height="91.7199" id="Class" rx="2.5" ry="2.5" style="stroke:#181818;stroke-width:0.5;" width="100" x="337.41" y="54.36"/><ellipse cx="353.41" cy="100.22" fill="#ADD1B2" rx="12" ry="12" style="stroke:#181818;stroke-width:1.0;"/><path d="M357.4569,107.72 L348.8475,107.72 L348.8475,92.8137 L357.4569,92.8137 L357.4569,95.0168 L351.2694,95.0168 L351.2694,98.8606 L357.0975,98.8606 L357.0975,101.0325 L351.2694,101.0325 L351.2694,105.5168 L357.4569,105.5168 L357.4569,107.72 Z " fill="#000000"/><text fill="#000000" font-family="sans-serif" font-size="20" font-style="italic" lengthAdjust="spacing" textLength="70" x="366.41" y="80.74">«entity»</text><text fill="#000000" font-family="sans-serif" font-size="20" font-style="italic" lengthAdjust="spacing" textLength="57" x="372.91" y="107.9799">«root»</text><text fill="#000000" font-family="sans-serif" font-size="20" lengthAdjust="spacing" textLength="49" x="376.91" y="135.2199">Class</text></g><!--class SpecialClass--><g id="elem_SpecialClass"><rect codeLine="18" fill="#F5F5DC" height="64.4799" id="SpecialClass" rx="2.5" ry="2.5" style="stroke:#181818;stroke-width:0.5;" width="148" x="132.41" y="391.36"/><ellipse cx="148.41" cy="423.6" fill="#ADD1B2" rx="12" ry="12" style="stroke:#181818;stroke-width:1.0;"/><path d="M152.4569,431.1 L143.8475,431.1 L143.8475,416.1937 L152.4569,416.1937 L152.4569,418.3968 L146.2694,418.3968 L146.2694,422.2406 L152.0975,422.2406 L152.0975,424.4125 L146.2694,424.4125 L146.2694,428.8968 L152.4569,428.8968 L152.4569,431.1 Z " fill="#000000"/><text fill="#000000" font-family="sans-serif" font-size="20" font-style="italic" lengthAdjust="spacing" textLength="70" x="185.41" y="417.74">«entity»</text><text fill="#000000" font-family="sans-serif" font-size="20" lengthAdjust="spacing" textLength="114" x="163.41" y="444.9799">SpecialClass</text></g><!--class Duration--><g id="elem_Duration"><rect codeLine="21" fill="#F5F5DC" height="64.4799" id="Duration" rx="2.5" ry="2.5" style="stroke:#181818;stroke-width:0.5;" width="156" x="70.41" y="281.36"/><ellipse cx="86.41" cy="313.6" fill="#FF8B40" rx="12" ry="12" style="stroke:#181818;stroke-width:1.0;"/><path d="M92.66,307.4437 L87.3475,322.35 L85.0975,322.35 L79.785,307.4437 L82.3163,307.4437 L85.6131,316.8031 Q85.8319,317.3968 85.9881,317.9437 Q86.16,318.4906 86.285,318.9906 Q86.4256,319.475 86.2225,319.5218 Q86.0038,319.4906 86.1444,318.975 Q86.285,318.4593 86.4569,317.9281 Q86.6288,317.3812 86.8319,316.7718 L90.0975,307.4437 L92.66,307.4437 Z " fill="#000000"/><text fill="#000000" font-family="sans-serif" font-size="20" font-style="italic" lengthAdjust="spacing" textLength="126" x="99.41" y="307.74">«value object»</text><text fill="#000000" font-family="sans-serif" font-size="20" lengthAdjust="spacing" textLength="82" x="121.41" y="334.9799">Duration</text></g><!--class DayInWeek--><g id="elem_DayInWeek"><rect codeLine="22" fill="#F5F5DC" height="64.4799" id="DayInWeek" rx="2.5" ry="2.5" style="stroke:#181818;stroke-width:0.5;" width="156" x="261.41" y="281.36"/><ellipse cx="277.41" cy="313.6" fill="#FF8B40" rx="12" ry="12" style="stroke:#181818;stroke-width:1.0;"/><path d="M283.66,307.4437 L278.3475,322.35 L276.0975,322.35 L270.785,307.4437 L273.3163,307.4437 L276.6131,316.8031 Q276.8319,317.3968 276.9881,317.9437 Q277.16,318.4906 277.285,318.9906 Q277.4256,319.475 277.2225,319.5218 Q277.0038,319.4906 277.1444,318.975 Q277.285,318.4593 277.4569,317.9281 Q277.6288,317.3812 277.8319,316.7718 L281.0975,307.4437 L283.66,307.4437 Z " fill="#000000"/><text fill="#000000" font-family="sans-serif" font-size="20" font-style="italic" lengthAdjust="spacing" textLength="126" x="290.41" y="307.74">«value object»</text><text fill="#000000" font-family="sans-serif" font-size="20" lengthAdjust="spacing" textLength="107" x="299.91" y="334.9799">DayInWeek</text></g><!--class Hours--><g id="elem_Hours"><rect codeLine="34" fill="#F5F5DC" height="64.4799" id="Hours" rx="2.5" ry="2.5" style="stroke:#181818;stroke-width:0.5;" width="156" x="213.41" y="621.36"/><ellipse cx="229.41" cy="653.6" fill="#FF8B40" rx="12" ry="12" style="stroke:#181818;stroke-width:1.0;"/><path d="M235.66,647.4437 L230.3475,662.35 L228.0975,662.35 L222.785,647.4437 L225.3163,647.4437 L228.6131,656.8031 Q228.8319,657.3968 228.9881,657.9437 Q229.16,658.4906 229.285,658.9906 Q229.4256,659.475 229.2225,659.5218 Q229.0038,659.4906 229.1444,658.975 Q229.285,658.4593 229.4569,657.9281 Q229.6288,657.3812 229.8319,656.7718 L233.0975,647.4437 L235.66,647.4437 Z " fill="#000000"/><text fill="#000000" font-family="sans-serif" font-size="20" font-style="italic" lengthAdjust="spacing" textLength="126" x="242.41" y="647.74">«value object»</text><text fill="#000000" font-family="sans-serif" font-size="20" lengthAdjust="spacing" textLength="57" x="276.91" y="674.9799">Hours</text></g><!--class ExtraordinaryClass--><g id="elem_ExtraordinaryClass"><rect codeLine="38" fill="#F5F5DC" height="91.7199" id="ExtraordinaryClass" rx="2.5" ry="2.5" style="stroke:#181818;stroke-width:0.5;" width="209" x="1143.91" y="54.36"/><ellipse cx="1159.91" cy="100.22" fill="#ADD1B2" rx="12" ry="12" style="stroke:#181818;stroke-width:1.0;"/><path d="M1163.9569,107.72 L1155.3475,107.72 L1155.3475,92.8137 L1163.9569,92.8137 L1163.9569,95.0168 L1157.7694,95.0168 L1157.7694,98.8606 L1163.5975,98.8606 L1163.5975,101.0325 L1157.7694,101.0325 L1157.7694,105.5168 L1163.9569,105.5168 L1163.9569,107.72 Z " fill="#000000"/><text fill="#000000" font-family="sans-serif" font-size="20" font-style="italic" lengthAdjust="spacing" textLength="70" x="1227.41" y="80.74">«entity»</text><text fill="#000000" font-family="sans-serif" font-size="20" font-style="italic" lengthAdjust="spacing" textLength="57" x="1233.91" y="107.9799">«root»</text><text fill="#000000" font-family="sans-serif" font-size="20" lengthAdjust="spacing" textLength="175" x="1174.91" y="135.2199">ExtraordinaryClass</text></g><!--class Time--><g id="elem_Time"><rect codeLine="35" fill="#F5F5DC" height="64.4799" id="Time" rx="2.5" ry="2.5" style="stroke:#181818;stroke-width:0.5;" width="156" x="1143.41" y="281.36"/><ellipse cx="1159.41" cy="313.6" fill="#FF8B40" rx="12" ry="12" style="stroke:#181818;stroke-width:1.0;"/><path d="M1165.66,307.4437 L1160.3475,322.35 L1158.0975,322.35 L1152.785,307.4437 L1155.3163,307.4437 L1158.6131,316.8031 Q1158.8319,317.3968 1158.9881,317.9437 Q1159.16,318.4906 1159.285,318.9906 Q1159.4256,319.475 1159.2225,319.5218 Q1159.0038,319.4906 1159.1444,318.975 Q1159.285,318.4593 1159.4569,317.9281 Q1159.6288,317.3812 1159.8319,316.7718 L1163.0975,307.4437 L1165.66,307.4437 Z " fill="#000000"/><text fill="#000000" font-family="sans-serif" font-size="20" font-style="italic" lengthAdjust="spacing" textLength="126" x="1172.41" y="307.74">«value object»</text><text fill="#000000" font-family="sans-serif" font-size="20" lengthAdjust="spacing" textLength="46" x="1212.41" y="334.9799">Time</text></g><!--class Duration‎--><g id="elem_Duration‎"><rect codeLine="36" fill="#F5F5DC" height="64.4799" id="Duration‎" rx="2.5" ry="2.5" style="stroke:#181818;stroke-width:0.5;" width="156" x="1334.41" y="281.36"/><ellipse cx="1350.41" cy="313.6" fill="#FF8B40" rx="12" ry="12" style="stroke:#181818;stroke-width:1.0;"/><path d="M1356.66,307.4437 L1351.3475,322.35 L1349.0975,322.35 L1343.785,307.4437 L1346.3163,307.4437 L1349.6131,316.8031 Q1349.8319,317.3968 1349.9881,317.9437 Q1350.16,318.4906 1350.285,318.9906 Q1350.4256,319.475 1350.2225,319.5218 Q1350.0038,319.4906 1350.1444,318.975 Q1350.285,318.4593 1350.4569,317.9281 Q1350.6288,317.3812 1350.8319,316.7718 L1354.0975,307.4437 L1356.66,307.4437 Z " fill="#000000"/><text fill="#000000" font-family="sans-serif" font-size="20" font-style="italic" lengthAdjust="spacing" textLength="126" x="1363.41" y="307.74">«value object»</text><text fill="#000000" font-family="sans-serif" font-size="20" lengthAdjust="spacing" textLength="82" x="1385.41" y="334.9799">Duration‎</text></g><!--class Course--><g id="elem_Course"><rect codeLine="45" fill="#F5F5DC" height="91.7199" id="Course" rx="2.5" ry="2.5" style="stroke:#181818;stroke-width:0.5;" width="100" x="643.41" y="267.36"/><ellipse cx="659.41" cy="313.22" fill="#ADD1B2" rx="12" ry="12" style="stroke:#181818;stroke-width:1.0;"/><path d="M663.4569,320.72 L654.8475,320.72 L654.8475,305.8137 L663.4569,305.8137 L663.4569,308.0168 L657.2694,308.0168 L657.2694,311.8606 L663.0975,311.8606 L663.0975,314.0325 L657.2694,314.0325 L657.2694,318.5168 L663.4569,318.5168 L663.4569,320.72 Z " fill="#000000"/><text fill="#000000" font-family="sans-serif" font-size="20" font-style="italic" lengthAdjust="spacing" textLength="70" x="672.41" y="293.74">«entity»</text><text fill="#000000" font-family="sans-serif" font-size="20" font-style="italic" lengthAdjust="spacing" textLength="57" x="678.91" y="320.9799">«root»</text><text fill="#000000" font-family="sans-serif" font-size="20" lengthAdjust="spacing" textLength="66" x="674.41" y="348.2199">Course</text></g><!--class Teacher--><g id="elem_Teacher"><rect codeLine="52" fill="#F5F5DC" height="91.7199" id="Teacher" rx="2.5" ry="2.5" style="stroke:#181818;stroke-width:0.5;" width="108" x="673.41" y="607.36"/><ellipse cx="689.41" cy="653.22" fill="#ADD1B2" rx="12" ry="12" style="stroke:#181818;stroke-width:1.0;"/><path d="M693.4569,660.72 L684.8475,660.72 L684.8475,645.8137 L693.4569,645.8137 L693.4569,648.0168 L687.2694,648.0168 L687.2694,651.8606 L693.0975,651.8606 L693.0975,654.0325 L687.2694,654.0325 L687.2694,658.5168 L693.4569,658.5168 L693.4569,660.72 Z " fill="#000000"/><text fill="#000000" font-family="sans-serif" font-size="20" font-style="italic" lengthAdjust="spacing" textLength="70" x="706.41" y="633.74">«entity»</text><text fill="#000000" font-family="sans-serif" font-size="20" font-style="italic" lengthAdjust="spacing" textLength="57" x="712.91" y="660.9799">«root»</text><text fill="#000000" font-family="sans-serif" font-size="20" lengthAdjust="spacing" textLength="74" x="704.41" y="688.2199">Teacher</text></g><!--class Student--><g id="elem_Student"><rect codeLine="59" fill="#F5F5DC" height="91.7199" id="Student" rx="2.5" ry="2.5" style="stroke:#181818;stroke-width:0.5;" width="106" x="981.41" y="267.36"/><ellipse cx="997.41" cy="313.22" fill="#ADD1B2" rx="12" ry="12" style="stroke:#181818;stroke-width:1.0;"/><path d="M1001.4569,320.72 L992.8475,320.72 L992.8475,305.8137 L1001.4569,305.8137 L1001.4569,308.0168 L995.2694,308.0168 L995.2694,311.8606 L1001.0975,311.8606 L1001.0975,314.0325 L995.2694,314.0325 L995.2694,318.5168 L1001.4569,318.5168 L1001.4569,320.72 Z " fill="#000000"/><text fill="#000000" font-family="sans-serif" font-size="20" font-style="italic" lengthAdjust="spacing" textLength="70" x="1013.41" y="293.74">«entity»</text><text fill="#000000" font-family="sans-serif" font-size="20" font-style="italic" lengthAdjust="spacing" textLength="57" x="1019.91" y="320.9799">«root»</text><text fill="#000000" font-family="sans-serif" font-size="20" lengthAdjust="spacing" textLength="72" x="1012.41" y="348.2199">Student</text></g><!--link Class to Course--><g id="link_Class_Course"><path codeLine="62" d="M437.62,125.55 C464.64,139.28 498.14,157.47 526.41,176.36 C529.44,178.39 590.9,228.53 638.38,267.35 " fill="none" id="Class-to-Course" style="stroke:#222222;stroke-width:1.0;"/><polygon fill="#222222" points="642.05,270.35,637.6226,261.5524,638.1821,267.1815,632.553,267.741,642.05,270.35" style="stroke:#222222;stroke-width:1.0;"/><text fill="#000000" font-family="sans-serif" font-size="20" lengthAdjust="spacing" textLength="109" x="562.41" y="198.74">is related to</text><text fill="#000000" font-family="sans-serif" font-size="20" lengthAdjust="spacing" textLength="11" x="624.3886" y="288.7003">1</text></g><!--link Class to Teacher--><g id="link_Class_Teacher"><path codeLine="63" d="M418.12,146.78 C424.56,156.49 431.27,166.73 437.41,176.36 C535.12,329.61 645.55,514.2 697.45,601.66 " fill="none" id="Class-to-Teacher" style="stroke:#222222;stroke-width:1.0;"/><polygon fill="#222222" points="699.86,605.72,698.6978,595.9399,697.3043,601.4225,691.8218,600.029,699.86,605.72" style="stroke:#222222;stroke-width:1.0;"/><text fill="#000000" font-family="sans-serif" font-size="20" lengthAdjust="spacing" textLength="122" x="609.41" y="431.24">scheduled by</text><text fill="#000000" font-family="sans-serif" font-size="20" lengthAdjust="spacing" textLength="11" x="685.2924" y="593.4053">1</text></g><!--link Class to Hours--><g id="link_Class_Hours"><path codeLine="64" d="M411.24,146.64 C420.43,166.53 429.81,190.52 434.41,213.36 C449.32,287.43 455.24,310.73 434.41,383.36 C433.25,387.39 431.5,387.73 429.41,391.36 C384.21,469.84 335.67,564.32 309.92,615.33 " fill="none" id="Class-to-Hours" style="stroke:#222222;stroke-width:1.0;"/><polygon fill="#222222" points="307.73,619.68,315.3565,613.4481,309.9832,615.2164,308.2149,609.8431,307.73,619.68" style="stroke:#222222;stroke-width:1.0;"/><text fill="#000000" font-family="sans-serif" font-size="20" lengthAdjust="spacing" textLength="33" x="430.41" y="431.24">has</text><text fill="#000000" font-family="sans-serif" font-size="20" lengthAdjust="spacing" textLength="11" x="297.7928" y="607.5123">1</text></g><!--link ExtraordinaryClass to Teacher--><g id="link_ExtraordinaryClass_Teacher"><path codeLine="66" d="M1143.5,124.1 C1085.66,140.93 1015.62,168.84 965.41,213.36 C842.55,322.3 771.21,510.33 742.41,600.8 " fill="none" id="ExtraordinaryClass-to-Teacher" style="stroke:#222222;stroke-width:1.0;"/><polygon fill="#222222" points="740.95,605.44,747.465,598.0539,742.4495,600.6701,739.8332,595.6547,740.95,605.44" style="stroke:#222222;stroke-width:1.0;"/><text fill="#000000" font-family="sans-serif" font-size="20" lengthAdjust="spacing" textLength="122" x="830.41" y="431.24">scheduled by</text><text fill="#000000" font-family="sans-serif" font-size="20" lengthAdjust="spacing" textLength="11" x="730.4612" y="593.6084">1</text></g><!--link ExtraordinaryClass to Student--><g id="link_ExtraordinaryClass_Student"><path codeLine="67" d="M1197.93,146.64 C1175.94,166.73 1150.06,190.87 1127.41,213.36 C1111.65,229 1094.91,246.53 1080.03,262.44 " fill="none" id="ExtraordinaryClass-to-Student" style="stroke:#222222;stroke-width:1.0;"/><polygon fill="#222222" points="1076.92,265.77,1085.9856,261.921,1080.3321,262.1152,1080.1379,256.4617,1076.92,265.77" style="stroke:#222222;stroke-width:1.0;"/><text fill="#000000" font-family="sans-serif" font-size="20" lengthAdjust="spacing" textLength="33" x="1163.41" y="198.74">has</text><text fill="#000000" font-family="sans-serif" font-size="20" lengthAdjust="spacing" textLength="32" x="1083.2546" y="253.6084">1..*</text></g><!--link ExtraordinaryClass to Course--><g id="link_ExtraordinaryClass_Course"><path codeLine="68" d="M1143.54,101.67 C1005.18,104.42 772.26,117.91 713.41,176.36 C691.69,197.94 686.71,232.05 687.16,260.7 " fill="none" id="ExtraordinaryClass-to-Course" style="stroke:#222222;stroke-width:1.0;"/><polygon fill="#222222" points="687.3,265.59,691.0145,256.4684,687.1425,260.5925,683.0185,256.7205,687.3,265.59" style="stroke:#222222;stroke-width:1.0;"/><text fill="#000000" font-family="sans-serif" font-size="20" lengthAdjust="spacing" textLength="109" x="714.41" y="198.74">is related to</text><text fill="#000000" font-family="sans-serif" font-size="20" lengthAdjust="spacing" textLength="11" x="674.7966" y="253.496">1</text></g><!--link Class to SpecialClass--><g id="link_Class_SpecialClass"><path codeLine="70" d="M337.22,101.27 C261,104.19 117.99,122.29 52.41,213.36 C8.26,274.67 6,323.74 52.41,383.36 C62.1,395.81 93.87,404.92 126.06,411.19 " fill="none" id="Class-to-SpecialClass" style="stroke:#222222;stroke-width:1.0;"/><polygon fill="#222222" points="130.58,412.04,122.4792,406.4385,125.6669,411.1117,120.9938,414.2994,130.58,412.04" style="stroke:#222222;stroke-width:1.0;"/><text fill="#000000" font-family="sans-serif" font-size="20" lengthAdjust="spacing" textLength="33" x="85.41" y="198.74">has</text><text fill="#000000" font-family="sans-serif" font-size="20" lengthAdjust="spacing" textLength="32" x="92.3064" y="404.5916">0..*</text></g><!--link Class to DayInWeek--><g id="link_Class_DayInWeek"><path codeLine="71" d="M377.11,146.62 C368.39,184.97 356.03,239.29 347.88,275.15 " fill="none" id="Class-to-DayInWeek" style="stroke:#222222;stroke-width:1.0;"/><polygon fill="#222222" points="346.84,279.7,352.7241,271.8021,347.9413,274.8228,344.9206,270.04,346.84,279.7" style="stroke:#222222;stroke-width:1.0;"/><text fill="#000000" font-family="sans-serif" font-size="20" lengthAdjust="spacing" textLength="33" x="370.41" y="198.74">has</text><text fill="#000000" font-family="sans-serif" font-size="20" lengthAdjust="spacing" textLength="11" x="335.7832" y="267.4019">1</text></g><!--link Class to Duration--><g id="link_Class_Duration"><path codeLine="72" d="M336.99,137.75 C308.68,158.88 273.17,186.54 243.41,213.36 C221.37,233.23 198.28,257.2 180.39,276.58 " fill="none" id="Class-to-Duration" style="stroke:#222222;stroke-width:1.0;"/><polygon fill="#222222" points="177.44,279.78,186.4743,275.858,180.8225,276.0978,180.5827,270.446,177.44,279.78" style="stroke:#222222;stroke-width:1.0;"/><text fill="#000000" font-family="sans-serif" font-size="20" lengthAdjust="spacing" textLength="33" x="287.41" y="198.74">has</text><text fill="#000000" font-family="sans-serif" font-size="20" lengthAdjust="spacing" textLength="11" x="169.2889" y="267.36">1</text></g><!--link SpecialClass to Hours--><g id="link_SpecialClass_Hours"><path codeLine="73" d="M218.05,455.58 C233.55,497.17 260.94,570.63 277.51,615.08 " fill="none" id="SpecialClass-to-Hours" style="stroke:#222222;stroke-width:1.0;"/><polygon fill="#222222" points="279.25,619.73,279.8352,609.8985,277.4944,615.0483,272.3446,612.7075,279.25,619.73" style="stroke:#222222;stroke-width:1.0;"/><text fill="#000000" font-family="sans-serif" font-size="20" lengthAdjust="spacing" textLength="33" x="241.41" y="507.74">has</text><text fill="#000000" font-family="sans-serif" font-size="20" lengthAdjust="spacing" textLength="11" x="265.7169" y="607.3665">1</text></g><!--link ExtraordinaryClass to Time--><g id="link_ExtraordinaryClass_Time"><path codeLine="75" d="M1242.62,146.62 C1237.71,184.97 1230.76,239.29 1226.17,275.15 " fill="none" id="ExtraordinaryClass-to-Time" style="stroke:#222222;stroke-width:1.0;"/><polygon fill="#222222" points="1225.59,279.68,1230.7142,271.2692,1226.233,274.7215,1222.7807,270.2403,1225.59,279.68" style="stroke:#222222;stroke-width:1.0;"/><text fill="#000000" font-family="sans-serif" font-size="20" lengthAdjust="spacing" textLength="33" x="1238.41" y="198.74">has</text><text fill="#000000" font-family="sans-serif" font-size="20" lengthAdjust="spacing" textLength="11" x="1214.131" y="267.4019">1</text></g><!--link ExtraordinaryClass to Duration‎--><g id="link_ExtraordinaryClass_Duration‎"><path codeLine="76" d="M1283.59,146.62 C1313.77,185.45 1356.66,240.64 1384.52,276.47 " fill="none" id="ExtraordinaryClass-to-Duration‎" style="stroke:#222222;stroke-width:1.0;"/><polygon fill="#222222" points="1387.24,279.98,1384.8815,270.4177,1384.1742,276.0302,1378.5618,275.3229,1387.24,279.98" style="stroke:#222222;stroke-width:1.0;"/><text fill="#000000" font-family="sans-serif" font-size="20" lengthAdjust="spacing" textLength="33" x="1326.41" y="198.74">has</text><text fill="#000000" font-family="sans-serif" font-size="20" lengthAdjust="spacing" textLength="11" x="1371.8726" y="267.4019">1</text></g><!--SRC=[dLJRZjCm47ttLuoo3rn4BwnuG5LKQRTGiSzTmVCq7X9Jnuvi1oWh9Bw0Z-HBSEAcTJSjtT2Ng6VE7Cyv6STkXAhGO2brjY4Ed3vZBTrIAxSIFmYkf-nPuLnbPvD99L6vkfJZJ9UJJAAr8oumzysCsKu7siADSqQiQqTtcLQjq9GLWXDGMRajO5UsCLgIApItZxLkCTlaHjUABxJK1jOaSef8DyReRw5qTTt-6Ajy3-O4IPfYdXlAqT5y3ej6Bu471a3A2NzcYx33_rL5cK0PO0W3mBlQe1DQ7G3StgbFH9izya7NnhAVZ9tGWJGDg9_WmLEY3bzw_l7LrNBvzlRDz0LyHLaJwFKNobmW7m_mL7ettaK-YsE8vqnJetLBQaoTYVFzTsTG6ouKccq_stwPxVEw5oNryltpwpVxhtmQjO5H-hEUd4xVoE2e5eqR2l4Sbgy5ewq9m63nUyAi87CK_WwBn7V8OFMLgxdlU3Jx3erNFY3dzKDoez4SajT9vtK6me8XwS_YuFIUrD6wgMTW_PFNqjFMsnujRCiC2lHBTk9zNP0xsp4UlqpspeByFzJFU8gTJuDY_7a8iiTAXojyijfz3qBnI6re8abpUPBBtfBevdJqlm00]--></g></svg>