<?xml version="1.0" encoding="UTF-8" standalone="no"?><svg xmlns="http://www.w3.org/2000/svg" xmlns:xlink="http://www.w3.org/1999/xlink" contentStyleType="text/css" height="923px" preserveAspectRatio="none" style="width:1406px;height:923px;background:#FFFFFF;" version="1.1" viewBox="0 0 1406 923" width="1406px" zoomAndPan="magnify"><defs/><g><!--cluster <<aggregate>> Course--><g id="cluster_&lt;&lt;aggregate&gt;&gt; Course"><path d="M8.5,373.2168 L239.5,373.2168 A3.75,3.75 0 0 1 242,375.7168 L249,402.498 L1083.5,402.498 A2.5,2.5 0 0 1 1086,404.998 L1086,735.7168 A2.5,2.5 0 0 1 1083.5,738.2168 L8.5,738.2168 A2.5,2.5 0 0 1 6,735.7168 L6,375.7168 A2.5,2.5 0 0 1 8.5,373.2168 " fill="none" style="stroke:#000000;stroke-width:1.5;"/><line style="stroke:#000000;stroke-width:1.5;" x1="6" x2="249" y1="402.498" y2="402.498"/><text fill="#000000" font-family="sans-serif" font-size="20" font-weight="bold" lengthAdjust="spacing" textLength="230" x="10" y="393.7813">«aggregate» Course</text></g><!--cluster <<aggregate>> Enrolment--><g id="cluster_&lt;&lt;aggregate&gt;&gt; Enrolment"><path d="M435.5,178.2168 L705.5,178.2168 A3.75,3.75 0 0 1 708,180.7168 L715,207.498 L715.5,207.498 A2.5,2.5 0 0 1 718,209.998 L718,313.7168 A2.5,2.5 0 0 1 715.5,316.2168 L435.5,316.2168 A2.5,2.5 0 0 1 433,313.7168 L433,180.7168 A2.5,2.5 0 0 1 435.5,178.2168 " fill="none" style="stroke:#000000;stroke-width:1.5;"/><line style="stroke:#000000;stroke-width:1.5;" x1="433" x2="715" y1="207.498" y2="207.498"/><text fill="#000000" font-family="sans-serif" font-size="20" font-weight="bold" lengthAdjust="spacing" textLength="269" x="437" y="198.7813">«aggregate» Enrolment</text></g><!--cluster <<aggregate>> Exam--><g id="cluster_&lt;&lt;aggregate&gt;&gt; Exam"><path d="M609.5,7.2168 L823.5,7.2168 A3.75,3.75 0 0 1 826,9.7168 L833,36.498 L833.5,36.498 A2.5,2.5 0 0 1 836,38.998 L836,142.7168 A2.5,2.5 0 0 1 833.5,145.2168 L609.5,145.2168 A2.5,2.5 0 0 1 607,142.7168 L607,9.7168 A2.5,2.5 0 0 1 609.5,7.2168 " fill="none" style="stroke:#000000;stroke-width:1.5;"/><line style="stroke:#000000;stroke-width:1.5;" x1="607" x2="833" y1="36.498" y2="36.498"/><text fill="#000000" font-family="sans-serif" font-size="20" font-weight="bold" lengthAdjust="spacing" textLength="213" x="611" y="27.7813">«aggregate» Exam</text></g><!--cluster <<aggregate>> Teacher--><g id="cluster_&lt;&lt;aggregate&gt;&gt; Teacher"><path d="M1067.5,771.2168 L1311.5,771.2168 A3.75,3.75 0 0 1 1314,773.7168 L1321,800.498 L1321.5,800.498 A2.5,2.5 0 0 1 1324,802.998 L1324,906.7168 A2.5,2.5 0 0 1 1321.5,909.2168 L1067.5,909.2168 A2.5,2.5 0 0 1 1065,906.7168 L1065,773.7168 A2.5,2.5 0 0 1 1067.5,771.2168 " fill="none" style="stroke:#000000;stroke-width:1.5;"/><line style="stroke:#000000;stroke-width:1.5;" x1="1065" x2="1321" y1="800.498" y2="800.498"/><text fill="#000000" font-family="sans-serif" font-size="20" font-weight="bold" lengthAdjust="spacing" textLength="243" x="1069" y="791.7813">«aggregate» Teacher</text></g><!--cluster <<aggregate>> Class--><g id="cluster_&lt;&lt;aggregate&gt;&gt; Class"><path d="M862.5,7.2168 L1074.5,7.2168 A3.75,3.75 0 0 1 1077,9.7168 L1084,36.498 L1084.5,36.498 A2.5,2.5 0 0 1 1087,38.998 L1087,142.7168 A2.5,2.5 0 0 1 1084.5,145.2168 L862.5,145.2168 A2.5,2.5 0 0 1 860,142.7168 L860,9.7168 A2.5,2.5 0 0 1 862.5,7.2168 " fill="none" style="stroke:#000000;stroke-width:1.5;"/><line style="stroke:#000000;stroke-width:1.5;" x1="860" x2="1084" y1="36.498" y2="36.498"/><text fill="#000000" font-family="sans-serif" font-size="20" font-weight="bold" lengthAdjust="spacing" textLength="211" x="864" y="27.7813">«aggregate» Class</text></g><!--class Course--><g id="elem_Course"><rect codeLine="31" fill="#F5F5DC" height="111.125" id="Course" rx="2.5" ry="2.5" style="stroke:#181818;stroke-width:0.5;" width="117" x="711.5" y="415.2168"/><ellipse cx="729.3" cy="455.1387" fill="#ADD1B2" rx="12" ry="12" style="stroke:#181818;stroke-width:1.0;"/><path d="M734.0188,462.6387 L724.9406,462.6387 L724.9406,448.0605 L734.0188,448.0605 L734.0188,450.5918 L727.8156,450.5918 L727.8156,453.748 L733.4406,453.748 L733.4406,456.2793 L727.8156,456.2793 L727.8156,460.0918 L734.0188,460.0918 L734.0188,462.6387 Z " fill="#000000"/><text fill="#000000" font-family="sans-serif" font-size="20" font-style="italic" lengthAdjust="spacing" textLength="83" x="742.7" y="438.7813">«entity»</text><text fill="#000000" font-family="sans-serif" font-size="20" font-style="italic" lengthAdjust="spacing" textLength="64" x="752.2" y="462.0625">«root»</text><text fill="#000000" font-family="sans-serif" font-size="20" lengthAdjust="spacing" textLength="69" x="749.7" y="485.3438">Course</text><line style="stroke:#181818;stroke-width:0.5;" x1="712.5" x2="827.5" y1="495.0605" y2="495.0605"/><text fill="#000000" font-family="sans-serif" font-size="20" lengthAdjust="spacing" textLength="105" x="717.5" y="517.625">-createdAt</text></g><!--class Title--><g id="elem_Title"><rect codeLine="61" fill="#F5F5DC" height="56.5625" id="Title" rx="2.5" ry="2.5" style="stroke:#181818;stroke-width:0.5;" width="177" x="21.5" y="638.2168"/><ellipse cx="37.5" cy="666.498" fill="#FF8B40" rx="12" ry="12" style="stroke:#181818;stroke-width:1.0;"/><path d="M37.5156,672.3418 L40.0781,660.1699 L42.9844,660.1699 L39.5156,674.748 L35.5313,674.748 L32.0625,660.1699 L34.9531,660.1699 L37.5156,672.3418 Z " fill="#000000"/><text fill="#000000" font-family="sans-serif" font-size="20" font-style="italic" lengthAdjust="spacing" textLength="147" x="50.5" y="661.7813">«value object»</text><text fill="#000000" font-family="sans-serif" font-size="20" lengthAdjust="spacing" textLength="44" x="102" y="685.0625">Title</text></g><!--class CourseState--><g id="elem_CourseState"><rect codeLine="62" fill="#F5F5DC" height="56.5625" id="CourseState" rx="2.5" ry="2.5" style="stroke:#181818;stroke-width:0.5;" width="177" x="233.5" y="638.2168"/><ellipse cx="249.5" cy="666.498" fill="#FF8B40" rx="12" ry="12" style="stroke:#181818;stroke-width:1.0;"/><path d="M249.5156,672.3418 L252.0781,660.1699 L254.9844,660.1699 L251.5156,674.748 L247.5313,674.748 L244.0625,660.1699 L246.9531,660.1699 L249.5156,672.3418 Z " fill="#000000"/><text fill="#000000" font-family="sans-serif" font-size="20" font-style="italic" lengthAdjust="spacing" textLength="147" x="262.5" y="661.7813">«value object»</text><text fill="#000000" font-family="sans-serif" font-size="20" lengthAdjust="spacing" textLength="122" x="275" y="685.0625">CourseState</text></g><!--class EnrolmentLimits--><g id="elem_EnrolmentLimits"><rect codeLine="22" fill="#F5F5DC" height="111.125" id="EnrolmentLimits" rx="2.5" ry="2.5" style="stroke:#181818;stroke-width:0.5;" width="200" x="446" y="611.2168"/><ellipse cx="462" cy="639.498" fill="#FF8B40" rx="12" ry="12" style="stroke:#181818;stroke-width:1.0;"/><path d="M462.0156,645.3418 L464.5781,633.1699 L467.4844,633.1699 L464.0156,647.748 L460.0313,647.748 L456.5625,633.1699 L459.4531,633.1699 L462.0156,645.3418 Z " fill="#000000"/><text fill="#000000" font-family="sans-serif" font-size="20" font-style="italic" lengthAdjust="spacing" textLength="147" x="486.5" y="634.7813">«value object»</text><text fill="#000000" font-family="sans-serif" font-size="20" lengthAdjust="spacing" textLength="166" x="477" y="658.0625">EnrolmentLimits</text><line style="stroke:#181818;stroke-width:0.5;" x1="447" x2="645" y1="667.7793" y2="667.7793"/><text fill="#000000" font-family="sans-serif" font-size="20" lengthAdjust="spacing" textLength="46" x="452" y="690.3438">-min</text><text fill="#000000" font-family="sans-serif" font-size="20" lengthAdjust="spacing" textLength="50" x="452" y="713.625">-max</text></g><!--class Description--><g id="elem_Description"><rect codeLine="21" fill="#F5F5DC" height="56.5625" id="Description" rx="2.5" ry="2.5" style="stroke:#181818;stroke-width:0.5;" width="177" x="681.5" y="638.2168"/><ellipse cx="697.5" cy="666.498" fill="#FF8B40" rx="12" ry="12" style="stroke:#181818;stroke-width:1.0;"/><path d="M697.5156,672.3418 L700.0781,660.1699 L702.9844,660.1699 L699.5156,674.748 L695.5313,674.748 L692.0625,660.1699 L694.9531,660.1699 L697.5156,672.3418 Z " fill="#000000"/><text fill="#000000" font-family="sans-serif" font-size="20" font-style="italic" lengthAdjust="spacing" textLength="147" x="710.5" y="661.7813">«value object»</text><text fill="#000000" font-family="sans-serif" font-size="20" lengthAdjust="spacing" textLength="114" x="727" y="685.0625">Description</text></g><!--class Code--><g id="elem_Code"><rect codeLine="63" fill="#F5F5DC" height="56.5625" id="Code" rx="2.5" ry="2.5" style="stroke:#181818;stroke-width:0.5;" width="177" x="893.5" y="638.2168"/><ellipse cx="909.5" cy="666.498" fill="#FF8B40" rx="12" ry="12" style="stroke:#181818;stroke-width:1.0;"/><path d="M909.5156,672.3418 L912.0781,660.1699 L914.9844,660.1699 L911.5156,674.748 L907.5313,674.748 L904.0625,660.1699 L906.9531,660.1699 L909.5156,672.3418 Z " fill="#000000"/><text fill="#000000" font-family="sans-serif" font-size="20" font-style="italic" lengthAdjust="spacing" textLength="147" x="922.5" y="661.7813">«value object»</text><text fill="#000000" font-family="sans-serif" font-size="20" lengthAdjust="spacing" textLength="51" x="970.5" y="685.0625">Code</text></g><!--class Enrolment--><g id="elem_Enrolment"><rect codeLine="35" fill="#F5F5DC" height="79.8438" id="Enrolment" rx="2.5" ry="2.5" style="stroke:#181818;stroke-width:0.5;" width="139" x="560.5" y="220.2168"/><ellipse cx="576.5" cy="260.1387" fill="#ADD1B2" rx="12" ry="12" style="stroke:#181818;stroke-width:1.0;"/><path d="M581.2188,267.6387 L572.1406,267.6387 L572.1406,253.0605 L581.2188,253.0605 L581.2188,255.5918 L575.0156,255.5918 L575.0156,258.748 L580.6406,258.748 L580.6406,261.2793 L575.0156,261.2793 L575.0156,265.0918 L581.2188,265.0918 L581.2188,267.6387 Z " fill="#000000"/><text fill="#000000" font-family="sans-serif" font-size="20" font-style="italic" lengthAdjust="spacing" textLength="83" x="602.5" y="243.7813">«entity»</text><text fill="#000000" font-family="sans-serif" font-size="20" font-style="italic" lengthAdjust="spacing" textLength="64" x="612" y="267.0625">«root»</text><text fill="#000000" font-family="sans-serif" font-size="20" lengthAdjust="spacing" textLength="105" x="591.5" y="290.3438">Enrolment</text></g><!--class Exam--><g id="elem_Exam"><rect codeLine="42" fill="#F5F5DC" height="79.8438" id="Exam" rx="2.5" ry="2.5" style="stroke:#181818;stroke-width:0.5;" width="113" x="706.5" y="49.2168"/><ellipse cx="722.5" cy="89.1387" fill="#ADD1B2" rx="12" ry="12" style="stroke:#181818;stroke-width:1.0;"/><path d="M727.2188,96.6387 L718.1406,96.6387 L718.1406,82.0605 L727.2188,82.0605 L727.2188,84.5918 L721.0156,84.5918 L721.0156,87.748 L726.6406,87.748 L726.6406,90.2793 L721.0156,90.2793 L721.0156,94.0918 L727.2188,94.0918 L727.2188,96.6387 Z " fill="#000000"/><text fill="#000000" font-family="sans-serif" font-size="20" font-style="italic" lengthAdjust="spacing" textLength="83" x="735.5" y="72.7813">«entity»</text><text fill="#000000" font-family="sans-serif" font-size="20" font-style="italic" lengthAdjust="spacing" textLength="64" x="745" y="96.0625">«root»</text><text fill="#000000" font-family="sans-serif" font-size="20" lengthAdjust="spacing" textLength="56" x="749" y="119.3438">Exam</text></g><!--class Teacher--><g id="elem_Teacher"><rect codeLine="49" fill="#F5F5DC" height="79.8438" id="Teacher" rx="2.5" ry="2.5" style="stroke:#181818;stroke-width:0.5;" width="114" x="1138" y="813.2168"/><ellipse cx="1154" cy="853.1387" fill="#ADD1B2" rx="12" ry="12" style="stroke:#181818;stroke-width:1.0;"/><path d="M1158.7188,860.6387 L1149.6406,860.6387 L1149.6406,846.0605 L1158.7188,846.0605 L1158.7188,848.5918 L1152.5156,848.5918 L1152.5156,851.748 L1158.1406,851.748 L1158.1406,854.2793 L1152.5156,854.2793 L1152.5156,858.0918 L1158.7188,858.0918 L1158.7188,860.6387 Z " fill="#000000"/><text fill="#000000" font-family="sans-serif" font-size="20" font-style="italic" lengthAdjust="spacing" textLength="83" x="1167.5" y="836.7813">«entity»</text><text fill="#000000" font-family="sans-serif" font-size="20" font-style="italic" lengthAdjust="spacing" textLength="64" x="1177" y="860.0625">«root»</text><text fill="#000000" font-family="sans-serif" font-size="20" lengthAdjust="spacing" textLength="80" x="1169" y="883.3438">Teacher</text></g><!--class Class--><g id="elem_Class"><rect codeLine="56" fill="#F5F5DC" height="79.8438" id="Class" rx="2.5" ry="2.5" style="stroke:#181818;stroke-width:0.5;" width="113" x="876.5" y="49.2168"/><ellipse cx="892.5" cy="89.1387" fill="#ADD1B2" rx="12" ry="12" style="stroke:#181818;stroke-width:1.0;"/><path d="M897.2188,96.6387 L888.1406,96.6387 L888.1406,82.0605 L897.2188,82.0605 L897.2188,84.5918 L891.0156,84.5918 L891.0156,87.748 L896.6406,87.748 L896.6406,90.2793 L891.0156,90.2793 L891.0156,94.0918 L897.2188,94.0918 L897.2188,96.6387 Z " fill="#000000"/><text fill="#000000" font-family="sans-serif" font-size="20" font-style="italic" lengthAdjust="spacing" textLength="83" x="905.5" y="72.7813">«entity»</text><text fill="#000000" font-family="sans-serif" font-size="20" font-style="italic" lengthAdjust="spacing" textLength="64" x="915" y="96.0625">«root»</text><text fill="#000000" font-family="sans-serif" font-size="20" lengthAdjust="spacing" textLength="52" x="921" y="119.3438">Class</text></g><g id="elem_GMN17"><path d="M240.5,790.2168 L240.5,916.623 A0,0 0 0 0 240.5,916.623 L403.5,916.623 A0,0 0 0 0 403.5,916.623 L403.5,800.2168 L393.5,790.2168 L326,790.2168 L322,695.3368 L318,790.2168 L240.5,790.2168 A0,0 0 0 0 240.5,790.2168 " fill="#FEFFDD" style="stroke:#181818;stroke-width:0.5;"/><path d="M393.5,790.2168 L393.5,800.2168 L403.5,800.2168 L393.5,790.2168 " fill="#FEFFDD" style="stroke:#181818;stroke-width:0.5;"/><text fill="#000000" font-family="sans-serif" font-size="20" lengthAdjust="spacing" textLength="82" x="246.5" y="813.7813">CLOSED</text><text fill="#000000" font-family="sans-serif" font-size="20" lengthAdjust="spacing" textLength="56" x="246.5" y="837.0625">OPEN</text><text fill="#000000" font-family="sans-serif" font-size="20" lengthAdjust="spacing" textLength="80" x="246.5" y="860.3438">ENROLL</text><text fill="#000000" font-family="sans-serif" font-size="20" lengthAdjust="spacing" textLength="142" x="246.5" y="883.625">IN_PROGRESS</text><text fill="#000000" font-family="sans-serif" font-size="20" lengthAdjust="spacing" textLength="95" x="246.5" y="906.9063">FINISHED</text></g><!--link Course to Title--><g id="link_Course_Title"><path codeLine="65" d="M711.11,481.5568 C608.25,499.8368 390.24,543.4368 216,611.2168 C198.28,618.1068 179.63,627.0768 163,635.7368 " fill="none" id="Course-to-Title" style="stroke:#222222;stroke-width:1.0;"/><polygon fill="#222222" points="158.36,638.1668,168.1866,637.5056,162.7824,635.8339,164.4541,630.4297,158.36,638.1668" style="stroke:#222222;stroke-width:1.0;"/><text fill="#000000" font-family="sans-serif" font-size="20" lengthAdjust="spacing" textLength="75" x="380" y="575.7813">is titled</text><text fill="#000000" font-family="sans-serif" font-size="20" lengthAdjust="spacing" textLength="13" x="153.9936" y="625.5451">1</text></g><!--link Course to Teacher--><g id="link_Course_Teacher"><path codeLine="66" d="M828.73,478.9968 C887.97,488.6668 979.87,510.2068 1046,556.2168 C1090.59,587.2468 1150.48,733.5768 1178.83,808.2068 " fill="none" id="Course-to-Teacher" style="stroke:#222222;stroke-width:1.0;"/><polygon fill="#222222" points="1180.65,813.0168,1181.209,803.1838,1178.8819,808.3399,1173.7258,806.0128,1180.65,813.0168" style="stroke:#222222;stroke-width:1.0;"/><text fill="#000000" font-family="sans-serif" font-size="20" lengthAdjust="spacing" textLength="35" x="1155" y="673.7813">has</text><text fill="#000000" font-family="sans-serif" font-size="20" lengthAdjust="spacing" textLength="35" x="1140.5739" y="800.3764">1..*</text></g><!--link Course to Teacher--><g id="link_Course_Teacher"><path codeLine="67" d="M828.65,481.4468 C936.44,500.7368 1158.7,547.5068 1199,611.2168 C1236.71,670.8268 1223.02,756.4268 1209.28,807.9368 " fill="none" id="Course-to-Teacher-1" style="stroke:#222222;stroke-width:1.0;"/><polygon fill="#222222" points="1207.95,812.8168,1214.179,805.188,1209.2668,807.9933,1206.4614,803.0811,1207.95,812.8168" style="stroke:#222222;stroke-width:1.0;"/><text fill="#000000" font-family="sans-serif" font-size="20" lengthAdjust="spacing" textLength="174" x="1224" y="673.7813">has a responsible</text><text fill="#000000" font-family="sans-serif" font-size="20" lengthAdjust="spacing" textLength="13" x="1195.9377" y="800.4676">1</text></g><!--link Course to CourseState--><g id="link_Course_CourseState"><path codeLine="68" d="M711.45,493.9668 C643.02,520.3568 526.69,566.4468 429,611.2168 C412.46,618.7968 394.75,627.5468 378.61,635.7868 " fill="none" id="Course-to-CourseState" style="stroke:#222222;stroke-width:1.0;"/><polygon fill="#222222" points="374.1,638.0968,383.935,637.5742,378.5549,635.8265,380.3026,630.4464,374.1,638.0968" style="stroke:#222222;stroke-width:1.0;"/><text fill="#000000" font-family="sans-serif" font-size="20" lengthAdjust="spacing" textLength="41" x="550" y="575.7813">is in</text><text fill="#000000" font-family="sans-serif" font-size="20" lengthAdjust="spacing" textLength="13" x="370.505" y="625.4606">1</text></g><!--link Course to Description--><g id="link_Course_Description"><path codeLine="69" d="M770,526.2768 C770,560.5668 770,603.6668 770,632.8068 " fill="none" id="Course-to-Description" style="stroke:#222222;stroke-width:1.0;"/><polygon fill="#222222" points="770,638.0768,774,629.0768,770,633.0768,766,629.0768,770,638.0768" style="stroke:#222222;stroke-width:1.0;"/><text fill="#000000" font-family="sans-serif" font-size="20" lengthAdjust="spacing" textLength="35" x="771" y="575.7813">has</text><text fill="#000000" font-family="sans-serif" font-size="20" lengthAdjust="spacing" textLength="13" x="755.6594" y="625.4365">1</text></g><!--link Course to EnrolmentLimits--><g id="link_Course_EnrolmentLimits"><path codeLine="70" d="M711.44,522.4368 C681.17,548.6468 644.1,580.7568 612.73,607.9268 " fill="none" id="Course-to-EnrolmentLimits" style="stroke:#222222;stroke-width:1.0;"/><polygon fill="#222222" points="608.93,611.2168,618.3489,608.3384,612.7061,607.9394,613.1051,602.2967,608.93,611.2168" style="stroke:#222222;stroke-width:1.0;"/><text fill="#000000" font-family="sans-serif" font-size="20" lengthAdjust="spacing" textLength="35" x="672" y="575.7813">has</text><text fill="#000000" font-family="sans-serif" font-size="20" lengthAdjust="spacing" textLength="13" x="602.8074" y="598.6251">1</text></g><!--link Course to Code--><g id="link_Course_Code"><path codeLine="71" d="M828.77,525.4968 C867.16,560.6268 915.93,605.2568 948.02,634.6168 " fill="none" id="Course-to-Code" style="stroke:#222222;stroke-width:1.0;"/><polygon fill="#222222" points="951.84,638.1168,947.918,629.0825,948.1578,634.7343,942.506,634.9741,951.84,638.1168" style="stroke:#222222;stroke-width:1.0;"/><text fill="#000000" font-family="sans-serif" font-size="20" lengthAdjust="spacing" textLength="148" x="889" y="575.7813">is identified by</text><text fill="#000000" font-family="sans-serif" font-size="20" lengthAdjust="spacing" textLength="13" x="931.2789" y="625.4847">1</text></g><!--link Enrolment to Course--><g id="link_Enrolment_Course"><path codeLine="73" d="M655.58,300.5668 C666.96,317.9768 680.57,338.6668 693,357.2168 C704.72,374.7068 717.6,393.6268 729.41,410.8668 " fill="none" id="Enrolment-to-Course" style="stroke:#222222;stroke-width:1.0;"/><polygon fill="#222222" points="732.38,415.2168,730.6159,405.5272,729.5638,411.0854,724.0056,410.0332,732.38,415.2168" style="stroke:#222222;stroke-width:1.0;"/><text fill="#000000" font-family="sans-serif" font-size="20" lengthAdjust="spacing" textLength="49" x="694" y="351.7813">is for</text><text fill="#000000" font-family="sans-serif" font-size="20" lengthAdjust="spacing" textLength="13" x="714.0029" y="402.6251">1</text></g><!--link Exam to Course--><g id="link_Exam_Course"><path codeLine="75" d="M763.72,129.3968 C764.95,195.9268 767.45,331.3668 768.9,409.8368 " fill="none" id="Exam-to-Course" style="stroke:#222222;stroke-width:1.0;"/><polygon fill="#222222" points="768.99,414.9268,772.8351,405.8596,768.9043,409.9275,764.8363,405.9967,768.99,414.9268" style="stroke:#222222;stroke-width:1.0;"/><text fill="#000000" font-family="sans-serif" font-size="20" lengthAdjust="spacing" textLength="69" x="768" y="267.2813">is from</text><text fill="#000000" font-family="sans-serif" font-size="20" lengthAdjust="spacing" textLength="13" x="755.0747" y="402.2998">1</text></g><!--link Class to Course--><g id="link_Class_Course"><path codeLine="77" d="M920.14,129.3168 C904.32,176.2768 875.87,257.0968 846,324.2168 C833.13,353.1368 817.12,384.3568 803.12,410.4268 " fill="none" id="Class-to-Course" style="stroke:#222222;stroke-width:1.0;"/><polygon fill="#222222" points="800.71,414.8968,808.5011,408.872,803.0822,410.4954,801.4588,405.0764,800.71,414.8968" style="stroke:#222222;stroke-width:1.0;"/><text fill="#000000" font-family="sans-serif" font-size="20" lengthAdjust="spacing" textLength="119" x="906" y="267.2813">is related to</text><text fill="#000000" font-family="sans-serif" font-size="20" lengthAdjust="spacing" textLength="13" x="790.5093" y="402.6864">1</text></g><!--SRC=[bLHBRvj04BxlhnWvXpvKFnhrK5d8acFZrf9bHoRgoLArm1Xl3JjeTscJHldlNS36uE0cuG8xypr6ipFelP0fLpo9ATXZ225kUHQR6KdZYRy8rmFsRcTCgeVzVXfpQR8axWMKz8EOQzqD1OyicJ5zr84YCJP62JypE0z85a83jXCX0YQfUG1-JEjwD46per2VQztmO1yfocGuePWK-2WYh876Ij6VCdLrNJoCfPR38uIEu_0eKXXnWwCHJ2XJ6Zlmo01G6c5Don2pWS8CxeI9iJgLMSzO-WdYIaLnOlaBaGYZg_WKTQ14QWH9LbC8aJqnzWm2ZlF-nwUhsUphpPV11_ZDumo1_5yO65lfunDhDNk1PMsxa0XPllbzxdoX5vLmenrLD6SsMcIToxFbEeuYEXa62grcEAwJAg4BlFyKTi-JPaqsK5UsnpUBtY4FTgWQkeTOJVeGURFw9B-gvbZbaNeFYykyg2l98FXa32L0s_hOmH0cYvNdJZToTUikDz9ThbUBnKREbpzlrwjlQzVpDd8sNywzx-xqE6V55BzomkfchsM4BqFPOMowtH5qFdSE9Gr1Q33vPtW258XUxsEdke0XxBX-fb1F0WU5EYMfXMyNzWpQRA2rj2jn1gclOglT-UQrWefMb0vXVhTRON-Y_WDZf_blrbI2jwGi91_aRcjQaVsdbZFJ2b0Ovni7XjW_]--></g></svg>