<?xml version="1.0" encoding="UTF-8" standalone="no"?><svg xmlns="http://www.w3.org/2000/svg" xmlns:xlink="http://www.w3.org/1999/xlink" contentStyleType="text/css" height="658px" preserveAspectRatio="none" style="width:1650px;height:658px;background:#FFFFFF;" version="1.1" viewBox="0 0 1650 658" width="1650px" zoomAndPan="magnify"><defs/><g><!--cluster <<aggregate>> Class--><g id="cluster_&lt;&lt;aggregate&gt;&gt; Class"><path d="M16.79,7.2168 L228.79,7.2168 A3.75,3.75 0 0 1 231.29,9.7168 L238.29,36.498 L505.79,36.498 A2.5,2.5 0 0 1 508.29,38.998 L508.29,637.2168 A2.5,2.5 0 0 1 505.79,639.7168 L16.79,639.7168 A2.5,2.5 0 0 1 14.29,637.2168 L14.29,9.7168 A2.5,2.5 0 0 1 16.79,7.2168 " fill="none" style="stroke:#000000;stroke-width:1.5;"/><line style="stroke:#000000;stroke-width:1.5;" x1="14.29" x2="238.29" y1="36.498" y2="36.498"/><text fill="#000000" font-family="sans-serif" font-size="20" font-weight="bold" lengthAdjust="spacing" textLength="211" x="18.29" y="27.7813">«aggregate» Class</text></g><!--cluster <<aggregate>> ExtraordinaryClass--><g id="cluster_&lt;&lt;aggregate&gt;&gt; ExtraordinaryClass"><path d="M1225.79,7.2168 L1594.79,7.2168 A3.75,3.75 0 0 1 1597.29,9.7168 L1604.29,36.498 L1640.79,36.498 A2.5,2.5 0 0 1 1643.29,38.998 L1643.29,324.2168 A2.5,2.5 0 0 1 1640.79,326.7168 L1225.79,326.7168 A2.5,2.5 0 0 1 1223.29,324.2168 L1223.29,9.7168 A2.5,2.5 0 0 1 1225.79,7.2168 " fill="none" style="stroke:#000000;stroke-width:1.5;"/><line style="stroke:#000000;stroke-width:1.5;" x1="1223.29" x2="1604.29" y1="36.498" y2="36.498"/><text fill="#000000" font-family="sans-serif" font-size="20" font-weight="bold" lengthAdjust="spacing" textLength="368" x="1227.29" y="27.7813">«aggregate» ExtraordinaryClass</text></g><!--cluster <<aggregate>> Course--><g id="cluster_&lt;&lt;aggregate&gt;&gt; Course"><path d="M596.79,200.2168 L827.79,200.2168 A3.75,3.75 0 0 1 830.29,202.7168 L837.29,229.498 L837.79,229.498 A2.5,2.5 0 0 1 840.29,231.998 L840.29,335.7168 A2.5,2.5 0 0 1 837.79,338.2168 L596.79,338.2168 A2.5,2.5 0 0 1 594.29,335.7168 L594.29,202.7168 A2.5,2.5 0 0 1 596.79,200.2168 " fill="none" style="stroke:#000000;stroke-width:1.5;"/><line style="stroke:#000000;stroke-width:1.5;" x1="594.29" x2="837.29" y1="229.498" y2="229.498"/><text fill="#000000" font-family="sans-serif" font-size="20" font-weight="bold" lengthAdjust="spacing" textLength="230" x="598.29" y="220.7813">«aggregate» Course</text></g><!--cluster <<aggregate>> Teacher--><g id="cluster_&lt;&lt;aggregate&gt;&gt; Teacher"><path d="M658.79,513.2168 L902.79,513.2168 A3.75,3.75 0 0 1 905.29,515.7168 L912.29,542.498 L912.79,542.498 A2.5,2.5 0 0 1 915.29,544.998 L915.29,648.7168 A2.5,2.5 0 0 1 912.79,651.2168 L658.79,651.2168 A2.5,2.5 0 0 1 656.29,648.7168 L656.29,515.7168 A2.5,2.5 0 0 1 658.79,513.2168 " fill="none" style="stroke:#000000;stroke-width:1.5;"/><line style="stroke:#000000;stroke-width:1.5;" x1="656.29" x2="912.29" y1="542.498" y2="542.498"/><text fill="#000000" font-family="sans-serif" font-size="20" font-weight="bold" lengthAdjust="spacing" textLength="243" x="660.29" y="533.7813">«aggregate» Teacher</text></g><!--cluster <<aggregate>> Student--><g id="cluster_&lt;&lt;aggregate&gt;&gt; Student"><path d="M944.79,200.2168 L1186.79,200.2168 A3.75,3.75 0 0 1 1189.29,202.7168 L1196.29,229.498 L1196.79,229.498 A2.5,2.5 0 0 1 1199.29,231.998 L1199.29,335.7168 A2.5,2.5 0 0 1 1196.79,338.2168 L944.79,338.2168 A2.5,2.5 0 0 1 942.29,335.7168 L942.29,202.7168 A2.5,2.5 0 0 1 944.79,200.2168 " fill="none" style="stroke:#000000;stroke-width:1.5;"/><line style="stroke:#000000;stroke-width:1.5;" x1="942.29" x2="1196.29" y1="229.498" y2="229.498"/><text fill="#000000" font-family="sans-serif" font-size="20" font-weight="bold" lengthAdjust="spacing" textLength="241" x="946.29" y="220.7813">«aggregate» Student</text></g><!--class Class--><g id="elem_Class"><rect codeLine="24" fill="#F5F5DC" height="79.8438" id="Class" rx="2.5" ry="2.5" style="stroke:#181818;stroke-width:0.5;" width="113" x="361.79" y="49.2168"/><ellipse cx="377.79" cy="89.1387" fill="#ADD1B2" rx="12" ry="12" style="stroke:#181818;stroke-width:1.0;"/><path d="M382.5088,96.6387 L373.4306,96.6387 L373.4306,82.0605 L382.5088,82.0605 L382.5088,84.5918 L376.3056,84.5918 L376.3056,87.748 L381.9306,87.748 L381.9306,90.2793 L376.3056,90.2793 L376.3056,94.0918 L382.5088,94.0918 L382.5088,96.6387 Z " fill="#000000"/><text fill="#000000" font-family="sans-serif" font-size="20" font-style="italic" lengthAdjust="spacing" textLength="83" x="390.79" y="72.7813">«entity»</text><text fill="#000000" font-family="sans-serif" font-size="20" font-style="italic" lengthAdjust="spacing" textLength="64" x="400.29" y="96.0625">«root»</text><text fill="#000000" font-family="sans-serif" font-size="20" lengthAdjust="spacing" textLength="52" x="406.29" y="119.3438">Class</text></g><!--class SpecialClass--><g id="elem_SpecialClass"><rect codeLine="18" fill="#F5F5DC" height="56.5625" id="SpecialClass" rx="2.5" ry="2.5" style="stroke:#181818;stroke-width:0.5;" width="159" x="143.79" y="354.2168"/><ellipse cx="159.79" cy="382.498" fill="#ADD1B2" rx="12" ry="12" style="stroke:#181818;stroke-width:1.0;"/><path d="M164.5088,389.998 L155.4306,389.998 L155.4306,375.4199 L164.5088,375.4199 L164.5088,377.9512 L158.3056,377.9512 L158.3056,381.1074 L163.9306,381.1074 L163.9306,383.6387 L158.3056,383.6387 L158.3056,387.4512 L164.5088,387.4512 L164.5088,389.998 Z " fill="#000000"/><text fill="#000000" font-family="sans-serif" font-size="20" font-style="italic" lengthAdjust="spacing" textLength="83" x="195.79" y="377.7813">«entity»</text><text fill="#000000" font-family="sans-serif" font-size="20" lengthAdjust="spacing" textLength="125" x="174.79" y="401.0625">SpecialClass</text></g><!--class Duration--><g id="elem_Duration"><rect codeLine="21" fill="#F5F5DC" height="56.5625" id="Duration" rx="2.5" ry="2.5" style="stroke:#181818;stroke-width:0.5;" width="177" x="66.79" y="253.7168"/><ellipse cx="82.79" cy="281.998" fill="#FF8B40" rx="12" ry="12" style="stroke:#181818;stroke-width:1.0;"/><path d="M82.8056,287.8418 L85.3681,275.6699 L88.2744,275.6699 L84.8056,290.248 L80.8213,290.248 L77.3525,275.6699 L80.2431,275.6699 L82.8056,287.8418 Z " fill="#000000"/><text fill="#000000" font-family="sans-serif" font-size="20" font-style="italic" lengthAdjust="spacing" textLength="147" x="95.79" y="277.2813">«value object»</text><text fill="#000000" font-family="sans-serif" font-size="20" lengthAdjust="spacing" textLength="87" x="125.79" y="300.5625">Duration</text></g><!--class DayInWeek--><g id="elem_DayInWeek"><rect codeLine="22" fill="#F5F5DC" height="56.5625" id="DayInWeek" rx="2.5" ry="2.5" style="stroke:#181818;stroke-width:0.5;" width="177" x="278.79" y="253.7168"/><ellipse cx="294.79" cy="281.998" fill="#FF8B40" rx="12" ry="12" style="stroke:#181818;stroke-width:1.0;"/><path d="M294.8056,287.8418 L297.3681,275.6699 L300.2744,275.6699 L296.8056,290.248 L292.8213,290.248 L289.3525,275.6699 L292.2431,275.6699 L294.8056,287.8418 Z " fill="#000000"/><text fill="#000000" font-family="sans-serif" font-size="20" font-style="italic" lengthAdjust="spacing" textLength="147" x="307.79" y="277.2813">«value object»</text><text fill="#000000" font-family="sans-serif" font-size="20" lengthAdjust="spacing" textLength="113" x="324.79" y="300.5625">DayInWeek</text></g><!--class Hours--><g id="elem_Hours"><rect codeLine="34" fill="#F5F5DC" height="56.5625" id="Hours" rx="2.5" ry="2.5" style="stroke:#181818;stroke-width:0.5;" width="177" x="225.79" y="566.7168"/><ellipse cx="241.79" cy="594.998" fill="#FF8B40" rx="12" ry="12" style="stroke:#181818;stroke-width:1.0;"/><path d="M241.8056,600.8418 L244.3681,588.6699 L247.2744,588.6699 L243.8056,603.248 L239.8213,603.248 L236.3525,588.6699 L239.2431,588.6699 L241.8056,600.8418 Z " fill="#000000"/><text fill="#000000" font-family="sans-serif" font-size="20" font-style="italic" lengthAdjust="spacing" textLength="147" x="254.79" y="590.2813">«value object»</text><text fill="#000000" font-family="sans-serif" font-size="20" lengthAdjust="spacing" textLength="58" x="299.29" y="613.5625">Hours</text></g><!--class ExtraordinaryClass--><g id="elem_ExtraordinaryClass"><rect codeLine="38" fill="#F5F5DC" height="79.8438" id="ExtraordinaryClass" rx="2.5" ry="2.5" style="stroke:#181818;stroke-width:0.5;" width="221" x="1238.79" y="49.2168"/><ellipse cx="1254.79" cy="89.1387" fill="#ADD1B2" rx="12" ry="12" style="stroke:#181818;stroke-width:1.0;"/><path d="M1259.5088,96.6387 L1250.4306,96.6387 L1250.4306,82.0605 L1259.5088,82.0605 L1259.5088,84.5918 L1253.3056,84.5918 L1253.3056,87.748 L1258.9306,87.748 L1258.9306,90.2793 L1253.3056,90.2793 L1253.3056,94.0918 L1259.5088,94.0918 L1259.5088,96.6387 Z " fill="#000000"/><text fill="#000000" font-family="sans-serif" font-size="20" font-style="italic" lengthAdjust="spacing" textLength="83" x="1321.79" y="72.7813">«entity»</text><text fill="#000000" font-family="sans-serif" font-size="20" font-style="italic" lengthAdjust="spacing" textLength="64" x="1331.29" y="96.0625">«root»</text><text fill="#000000" font-family="sans-serif" font-size="20" lengthAdjust="spacing" textLength="187" x="1269.79" y="119.3438">ExtraordinaryClass</text></g><!--class Time--><g id="elem_Time"><rect codeLine="35" fill="#F5F5DC" height="56.5625" id="Time" rx="2.5" ry="2.5" style="stroke:#181818;stroke-width:0.5;" width="177" x="1238.79" y="253.7168"/><ellipse cx="1254.79" cy="281.998" fill="#FF8B40" rx="12" ry="12" style="stroke:#181818;stroke-width:1.0;"/><path d="M1254.8056,287.8418 L1257.3681,275.6699 L1260.2744,275.6699 L1256.8056,290.248 L1252.8213,290.248 L1249.3525,275.6699 L1252.2431,275.6699 L1254.8056,287.8418 Z " fill="#000000"/><text fill="#000000" font-family="sans-serif" font-size="20" font-style="italic" lengthAdjust="spacing" textLength="147" x="1267.79" y="277.2813">«value object»</text><text fill="#000000" font-family="sans-serif" font-size="20" lengthAdjust="spacing" textLength="50" x="1316.29" y="300.5625">Time</text></g><!--class Duration‎--><g id="elem_Duration‎"><rect codeLine="36" fill="#F5F5DC" height="56.5625" id="Duration‎" rx="2.5" ry="2.5" style="stroke:#181818;stroke-width:0.5;" width="177" x="1450.79" y="253.7168"/><ellipse cx="1466.79" cy="281.998" fill="#FF8B40" rx="12" ry="12" style="stroke:#181818;stroke-width:1.0;"/><path d="M1466.8056,287.8418 L1469.3681,275.6699 L1472.2744,275.6699 L1468.8056,290.248 L1464.8213,290.248 L1461.3525,275.6699 L1464.2431,275.6699 L1466.8056,287.8418 Z " fill="#000000"/><text fill="#000000" font-family="sans-serif" font-size="20" font-style="italic" lengthAdjust="spacing" textLength="147" x="1479.79" y="277.2813">«value object»</text><text fill="#000000" font-family="sans-serif" font-size="20" lengthAdjust="spacing" textLength="87" x="1509.79" y="300.5625">Duration‎</text></g><!--class Course--><g id="elem_Course"><rect codeLine="45" fill="#F5F5DC" height="79.8438" id="Course" rx="2.5" ry="2.5" style="stroke:#181818;stroke-width:0.5;" width="113" x="692.79" y="242.2168"/><ellipse cx="708.79" cy="282.1387" fill="#ADD1B2" rx="12" ry="12" style="stroke:#181818;stroke-width:1.0;"/><path d="M713.5088,289.6387 L704.4306,289.6387 L704.4306,275.0605 L713.5088,275.0605 L713.5088,277.5918 L707.3056,277.5918 L707.3056,280.748 L712.9306,280.748 L712.9306,283.2793 L707.3056,283.2793 L707.3056,287.0918 L713.5088,287.0918 L713.5088,289.6387 Z " fill="#000000"/><text fill="#000000" font-family="sans-serif" font-size="20" font-style="italic" lengthAdjust="spacing" textLength="83" x="721.79" y="265.7813">«entity»</text><text fill="#000000" font-family="sans-serif" font-size="20" font-style="italic" lengthAdjust="spacing" textLength="64" x="731.29" y="289.0625">«root»</text><text fill="#000000" font-family="sans-serif" font-size="20" lengthAdjust="spacing" textLength="69" x="728.79" y="312.3438">Course</text></g><!--class Teacher--><g id="elem_Teacher"><rect codeLine="52" fill="#F5F5DC" height="79.8438" id="Teacher" rx="2.5" ry="2.5" style="stroke:#181818;stroke-width:0.5;" width="114" x="728.29" y="555.2168"/><ellipse cx="744.29" cy="595.1387" fill="#ADD1B2" rx="12" ry="12" style="stroke:#181818;stroke-width:1.0;"/><path d="M749.0088,602.6387 L739.9306,602.6387 L739.9306,588.0605 L749.0088,588.0605 L749.0088,590.5918 L742.8056,590.5918 L742.8056,593.748 L748.4306,593.748 L748.4306,596.2793 L742.8056,596.2793 L742.8056,600.0918 L749.0088,600.0918 L749.0088,602.6387 Z " fill="#000000"/><text fill="#000000" font-family="sans-serif" font-size="20" font-style="italic" lengthAdjust="spacing" textLength="83" x="757.79" y="578.7813">«entity»</text><text fill="#000000" font-family="sans-serif" font-size="20" font-style="italic" lengthAdjust="spacing" textLength="64" x="767.29" y="602.0625">«root»</text><text fill="#000000" font-family="sans-serif" font-size="20" lengthAdjust="spacing" textLength="80" x="759.29" y="625.3438">Teacher</text></g><!--class Student--><g id="elem_Student"><rect codeLine="59" fill="#F5F5DC" height="79.8438" id="Student" rx="2.5" ry="2.5" style="stroke:#181818;stroke-width:0.5;" width="114" x="1069.29" y="242.2168"/><ellipse cx="1085.29" cy="282.1387" fill="#ADD1B2" rx="12" ry="12" style="stroke:#181818;stroke-width:1.0;"/><path d="M1090.0088,289.6387 L1080.9306,289.6387 L1080.9306,275.0605 L1090.0088,275.0605 L1090.0088,277.5918 L1083.8056,277.5918 L1083.8056,280.748 L1089.4306,280.748 L1089.4306,283.2793 L1083.8056,283.2793 L1083.8056,287.0918 L1090.0088,287.0918 L1090.0088,289.6387 Z " fill="#000000"/><text fill="#000000" font-family="sans-serif" font-size="20" font-style="italic" lengthAdjust="spacing" textLength="83" x="1098.79" y="265.7813">«entity»</text><text fill="#000000" font-family="sans-serif" font-size="20" font-style="italic" lengthAdjust="spacing" textLength="64" x="1108.29" y="289.0625">«root»</text><text fill="#000000" font-family="sans-serif" font-size="20" lengthAdjust="spacing" textLength="80" x="1100.29" y="312.3438">Student</text></g><!--link Class to Course--><g id="link_Class_Course"><path codeLine="62" d="M474.86,114.3168 C502.39,126.7068 535.65,142.6568 564.29,159.2168 C581.15,168.9668 584.13,173.3468 600.29,184.2168 C629.1,203.5968 661.36,224.6668 688.47,242.2068 " fill="none" id="Class-to-Course" style="stroke:#222222;stroke-width:1.0;"/><polygon fill="#222222" points="692.78,244.9968,687.3922,236.7523,688.5806,242.2829,683.05,243.4713,692.78,244.9968" style="stroke:#222222;stroke-width:1.0;"/><text fill="#000000" font-family="sans-serif" font-size="20" lengthAdjust="spacing" textLength="119" x="601.29" y="178.7813">is related to</text><text fill="#000000" font-family="sans-serif" font-size="20" lengthAdjust="spacing" textLength="13" x="671.7068" y="234.347">1</text></g><!--link Class to Teacher--><g id="link_Class_Teacher"><path codeLine="63" d="M451.34,129.2368 C459.31,138.9268 467.72,149.3568 475.29,159.2168 C582.93,299.4068 702.12,471.9668 756,550.9868 " fill="none" id="Class-to-Teacher" style="stroke:#222222;stroke-width:1.0;"/><polygon fill="#222222" points="758.83,555.1368,757.0659,545.4472,756.0138,551.0054,750.4556,549.9532,758.83,555.1368" style="stroke:#222222;stroke-width:1.0;"/><text fill="#000000" font-family="sans-serif" font-size="20" lengthAdjust="spacing" textLength="133" x="660.29" y="389.7813">scheduled by</text><text fill="#000000" font-family="sans-serif" font-size="20" lengthAdjust="spacing" textLength="13" x="740.577" y="542.5156">1</text></g><!--link Class to Hours--><g id="link_Class_Hours"><path codeLine="64" d="M445.39,129.5068 C456.36,147.7168 467.73,170.1768 473.29,192.2168 C490.04,258.5768 499.48,282.9868 473.29,346.2168 C471.37,350.8668 468.43,350.2868 465.29,354.2168 C409.82,423.7368 357.43,514.6668 331.41,562.1668 " fill="none" id="Class-to-Hours" style="stroke:#222222;stroke-width:1.0;"/><polygon fill="#222222" points="328.97,566.6268,336.7913,560.6411,331.3643,562.2373,329.7681,556.8103,328.97,566.6268" style="stroke:#222222;stroke-width:1.0;"/><text fill="#000000" font-family="sans-serif" font-size="20" lengthAdjust="spacing" textLength="35" x="466.29" y="389.7813">has</text><text fill="#000000" font-family="sans-serif" font-size="20" lengthAdjust="spacing" textLength="13" x="317.6571" y="553.9968">1</text></g><!--link ExtraordinaryClass to Teacher--><g id="link_ExtraordinaryClass_Teacher"><path codeLine="66" d="M1238.7,110.3068 C1179.2,125.3068 1107.18,150.6168 1053.29,192.2168 C925.52,290.8268 838.42,468.3068 803.03,550.3868 " fill="none" id="ExtraordinaryClass-to-Teacher" style="stroke:#222222;stroke-width:1.0;"/><polygon fill="#222222" points="800.98,555.1768,808.2094,548.4883,802.9548,550.5833,800.8598,545.3287,800.98,555.1768" style="stroke:#222222;stroke-width:1.0;"/><text fill="#000000" font-family="sans-serif" font-size="20" lengthAdjust="spacing" textLength="133" x="909.29" y="389.7813">scheduled by</text><text fill="#000000" font-family="sans-serif" font-size="20" lengthAdjust="spacing" textLength="13" x="804.5165" y="542.5619">1</text></g><!--link ExtraordinaryClass to Student--><g id="link_ExtraordinaryClass_Student"><path codeLine="67" d="M1299.64,129.2368 C1276.21,147.9568 1248.02,170.8968 1223.29,192.2168 C1206.22,206.9368 1187.9,223.5268 1171.83,238.3568 " fill="none" id="ExtraordinaryClass-to-Student" style="stroke:#222222;stroke-width:1.0;"/><polygon fill="#222222" points="1167.79,242.0868,1177.1179,238.926,1171.4657,238.6972,1171.6945,233.045,1167.79,242.0868" style="stroke:#222222;stroke-width:1.0;"/><text fill="#000000" font-family="sans-serif" font-size="20" lengthAdjust="spacing" textLength="35" x="1261.29" y="178.7813">has</text><text fill="#000000" font-family="sans-serif" font-size="20" lengthAdjust="spacing" textLength="35" x="1177.1931" y="229.4576">1..*</text></g><!--link ExtraordinaryClass to Course--><g id="link_ExtraordinaryClass_Course"><path codeLine="68" d="M1238.51,95.8168 C1077.42,105.0468 794.05,125.8368 761.29,159.2168 C741.65,179.2268 739.05,210.9368 741.15,237.0168 " fill="none" id="ExtraordinaryClass-to-Course" style="stroke:#222222;stroke-width:1.0;"/><polygon fill="#222222" points="741.62,242.1568,744.7791,232.8283,741.1622,237.1778,736.8127,233.5609,741.62,242.1568" style="stroke:#222222;stroke-width:1.0;"/><text fill="#000000" font-family="sans-serif" font-size="20" lengthAdjust="spacing" textLength="119" x="762.29" y="178.7813">is related to</text><text fill="#000000" font-family="sans-serif" font-size="20" lengthAdjust="spacing" textLength="13" x="726.3617" y="229.5387">1</text></g><!--link Class to SpecialClass--><g id="link_Class_SpecialClass"><path codeLine="70" d="M361.65,97.5168 C267.91,110.8768 87.08,142.5668 49.29,192.2168 C7.84,246.6768 6,293.2068 49.29,346.2168 C61.05,360.6168 100.33,369.3268 138.61,374.5168 " fill="none" id="Class-to-SpecialClass" style="stroke:#222222;stroke-width:1.0;"/><polygon fill="#222222" points="143.76,375.1868,135.3637,370.0388,138.8034,374.5297,134.3124,377.9694,143.76,375.1868" style="stroke:#222222;stroke-width:1.0;"/><text fill="#000000" font-family="sans-serif" font-size="20" lengthAdjust="spacing" textLength="35" x="98.29" y="178.7813">has</text><text fill="#000000" font-family="sans-serif" font-size="20" lengthAdjust="spacing" textLength="35" x="100.7247" y="369.2051">0..*</text></g><!--link Class to DayInWeek--><g id="link_Class_DayInWeek"><path codeLine="71" d="M407.85,129.3268 C398.47,164.4468 384.86,215.4168 376.04,248.4468 " fill="none" id="Class-to-DayInWeek" style="stroke:#222222;stroke-width:1.0;"/><polygon fill="#222222" points="374.67,253.5868,380.8511,245.9191,375.9565,248.7551,373.1204,243.8606,374.67,253.5868" style="stroke:#222222;stroke-width:1.0;"/><text fill="#000000" font-family="sans-serif" font-size="20" lengthAdjust="spacing" textLength="35" x="400.29" y="178.7813">has</text><text fill="#000000" font-family="sans-serif" font-size="20" lengthAdjust="spacing" textLength="13" x="361.8515" y="240.9486">1</text></g><!--link Class to Duration--><g id="link_Class_Duration"><path codeLine="72" d="M361.58,124.7068 C331.23,143.7568 293.55,168.3268 261.29,192.2168 C236.67,210.4468 210.28,232.5968 189.99,250.2368 " fill="none" id="Class-to-Duration" style="stroke:#222222;stroke-width:1.0;"/><polygon fill="#222222" points="186.01,253.6968,195.4235,250.8008,189.78,250.4124,190.1684,244.7689,186.01,253.6968" style="stroke:#222222;stroke-width:1.0;"/><text fill="#000000" font-family="sans-serif" font-size="20" lengthAdjust="spacing" textLength="35" x="309.29" y="178.7813">has</text><text fill="#000000" font-family="sans-serif" font-size="20" lengthAdjust="spacing" textLength="13" x="178.0054" y="241.0812">1</text></g><!--link SpecialClass to Hours--><g id="link_SpecialClass_Hours"><path codeLine="73" d="M235.19,411.2368 C251.98,450.0768 282.57,520.8468 300.39,562.0568 " fill="none" id="SpecialClass-to-Hours" style="stroke:#222222;stroke-width:1.0;"/><polygon fill="#222222" points="302.39,566.6868,302.4843,556.8384,300.4032,562.0985,295.1431,560.0173,302.39,566.6868" style="stroke:#222222;stroke-width:1.0;"/><text fill="#000000" font-family="sans-serif" font-size="20" lengthAdjust="spacing" textLength="35" x="260.29" y="460.7813">has</text><text fill="#000000" font-family="sans-serif" font-size="20" lengthAdjust="spacing" textLength="13" x="285.595" y="554.0692">1</text></g><!--link ExtraordinaryClass to Time--><g id="link_ExtraordinaryClass_Time"><path codeLine="75" d="M1344.78,129.3268 C1340.74,164.4468 1334.87,215.4168 1331.06,248.4468 " fill="none" id="ExtraordinaryClass-to-Time" style="stroke:#222222;stroke-width:1.0;"/><polygon fill="#222222" points="1330.47,253.5868,1335.4743,245.1041,1331.0426,248.6197,1327.527,244.1879,1330.47,253.5868" style="stroke:#222222;stroke-width:1.0;"/><text fill="#000000" font-family="sans-serif" font-size="20" lengthAdjust="spacing" textLength="35" x="1341.29" y="178.7813">has</text><text fill="#000000" font-family="sans-serif" font-size="20" lengthAdjust="spacing" textLength="13" x="1316.7853" y="240.9486">1</text></g><!--link ExtraordinaryClass to Duration‎--><g id="link_ExtraordinaryClass_Duration‎"><path codeLine="76" d="M1388.2,129.3268 C1423.56,164.8868 1475.09,216.6768 1507.9,249.6568 " fill="none" id="ExtraordinaryClass-to-Duration‎" style="stroke:#222222;stroke-width:1.0;"/><polygon fill="#222222" points="1511.8,253.5868,1508.283,244.3873,1508.2716,250.0441,1502.6148,250.0327,1511.8,253.5868" style="stroke:#222222;stroke-width:1.0;"/><text fill="#000000" font-family="sans-serif" font-size="20" lengthAdjust="spacing" textLength="35" x="1439.29" y="178.7813">has</text><text fill="#000000" font-family="sans-serif" font-size="20" lengthAdjust="spacing" textLength="13" x="1491.7896" y="240.9486">1</text></g><!--SRC=[dLJRZjCm47ttLuoo3rn4BwnuG5LKQRTGiSzTmVCq7X9Jnuvi1oWh9Bw0Z-HBSEAcTJSjtT2Ng6VE7Cyv6STkXAhGO2brjY4Ed3vZBTrIAxSIFmYkf-nPuLnbPvD99L6vkfJZJ9UJJAAr8oumzysCsKu7siADSqQiQqTtcLQjq9GLWXDGMRajO5UsCLgIApItZxLkCTlaHjUABxJK1jOaSef8DyReRw5qTTt-6Ajy3-O4IPfYdXlAqT5y3ej6Bu471a3A2NzcYx33_rL5cK0PO0W3mBlQe1DQ7G3StgbFH9izya7NnhAVZ9tGWJGDg9_WmLEY3bzw_l7LrNBvzlRDz0LyHLaJwFKNobmW7m_mL7ettaK-YsE8vqnJetLBQaoTYVFzTsTG6ouKccq_stwPxVEw5oNryltpwpVxhtmQjO5H-hEUd4xVoE2e5eqR2l4Sbgy5ewq9m63nUyAi87CK_WwBn7V8OFMLgxdlU3Jx3erNFY3dzKDoez4SajT9vtK6me8XwS_YuFIUrD6wgMTW_PFNqjFMsnujRCiC2lHBTk9zNP0xsp4UlqpspeByFzJFU8gTJuDY_7a8iiTAXojyijfz3qBnI6re8abpUPBBtfBevdJqlm00]--></g></svg>