<?xml version="1.0" encoding="UTF-8" standalone="no"?><svg xmlns="http://www.w3.org/2000/svg" xmlns:xlink="http://www.w3.org/1999/xlink" contentStyleType="text/css" height="540px" preserveAspectRatio="none" style="width:967px;height:540px;background:#FFFFFF;" version="1.1" viewBox="0 0 967 540" width="967px" zoomAndPan="magnify"><defs/><g><!--cluster <<aggregate>> Exam--><g id="cluster_&lt;&lt;aggregate&gt;&gt; Exam"><path d="M452.5,200.2168 L666.5,200.2168 A3.75,3.75 0 0 1 669,202.7168 L676,229.498 L676.5,229.498 A2.5,2.5 0 0 1 679,231.998 L679,335.7168 A2.5,2.5 0 0 1 676.5,338.2168 L452.5,338.2168 A2.5,2.5 0 0 1 450,335.7168 L450,202.7168 A2.5,2.5 0 0 1 452.5,200.2168 " fill="none" style="stroke:#000000;stroke-width:1.5;"/><line style="stroke:#000000;stroke-width:1.5;" x1="450" x2="676" y1="229.498" y2="229.498"/><text fill="#000000" font-family="sans-serif" font-size="20" font-weight="bold" lengthAdjust="spacing" textLength="213" x="454" y="220.7813">«aggregate» Exam</text></g><!--cluster <<aggregate>> Student--><g id="cluster_&lt;&lt;aggregate&gt;&gt; Student"><path d="M705.5,200.2168 L947.5,200.2168 A3.75,3.75 0 0 1 950,202.7168 L957,229.498 L957.5,229.498 A2.5,2.5 0 0 1 960,231.998 L960,335.7168 A2.5,2.5 0 0 1 957.5,338.2168 L705.5,338.2168 A2.5,2.5 0 0 1 703,335.7168 L703,202.7168 A2.5,2.5 0 0 1 705.5,200.2168 " fill="none" style="stroke:#000000;stroke-width:1.5;"/><line style="stroke:#000000;stroke-width:1.5;" x1="703" x2="957" y1="229.498" y2="229.498"/><text fill="#000000" font-family="sans-serif" font-size="20" font-weight="bold" lengthAdjust="spacing" textLength="241" x="707" y="220.7813">«aggregate» Student</text></g><!--cluster <<aggregate>> Question--><g id="cluster_&lt;&lt;aggregate&gt;&gt; Question"><path d="M452.5,395.2168 L706.5,395.2168 A3.75,3.75 0 0 1 709,397.7168 L716,424.498 L716.5,424.498 A2.5,2.5 0 0 1 719,426.998 L719,530.7168 A2.5,2.5 0 0 1 716.5,533.2168 L452.5,533.2168 A2.5,2.5 0 0 1 450,530.7168 L450,397.7168 A2.5,2.5 0 0 1 452.5,395.2168 " fill="none" style="stroke:#000000;stroke-width:1.5;"/><line style="stroke:#000000;stroke-width:1.5;" x1="450" x2="716" y1="424.498" y2="424.498"/><text fill="#000000" font-family="sans-serif" font-size="20" font-weight="bold" lengthAdjust="spacing" textLength="253" x="454" y="415.7813">«aggregate» Question</text></g><!--cluster <<aggregate>> ExamAnswer--><g id="cluster_&lt;&lt;aggregate&gt;&gt; ExamAnswer"><path d="M8.5,7.2168 L305.5,7.2168 A3.75,3.75 0 0 1 308,9.7168 L315,36.498 L423.5,36.498 A2.5,2.5 0 0 1 426,38.998 L426,519.2168 A2.5,2.5 0 0 1 423.5,521.7168 L8.5,521.7168 A2.5,2.5 0 0 1 6,519.2168 L6,9.7168 A2.5,2.5 0 0 1 8.5,7.2168 " fill="none" style="stroke:#000000;stroke-width:1.5;"/><line style="stroke:#000000;stroke-width:1.5;" x1="6" x2="315" y1="36.498" y2="36.498"/><text fill="#000000" font-family="sans-serif" font-size="20" font-weight="bold" lengthAdjust="spacing" textLength="296" x="10" y="27.7813">«aggregate» ExamAnswer</text></g><!--class Exam--><g id="elem_Exam"><rect codeLine="40" fill="#F5F5DC" height="79.8438" id="Exam" rx="2.5" ry="2.5" style="stroke:#181818;stroke-width:0.5;" width="113" x="466.5" y="242.2168"/><ellipse cx="482.5" cy="282.1387" fill="#ADD1B2" rx="12" ry="12" style="stroke:#181818;stroke-width:1.0;"/><path d="M487.2188,289.6387 L478.1406,289.6387 L478.1406,275.0605 L487.2188,275.0605 L487.2188,277.5918 L481.0156,277.5918 L481.0156,280.748 L486.6406,280.748 L486.6406,283.2793 L481.0156,283.2793 L481.0156,287.0918 L487.2188,287.0918 L487.2188,289.6387 Z " fill="#000000"/><text fill="#000000" font-family="sans-serif" font-size="20" font-style="italic" lengthAdjust="spacing" textLength="83" x="495.5" y="265.7813">«entity»</text><text fill="#000000" font-family="sans-serif" font-size="20" font-style="italic" lengthAdjust="spacing" textLength="64" x="505" y="289.0625">«root»</text><text fill="#000000" font-family="sans-serif" font-size="20" lengthAdjust="spacing" textLength="56" x="509" y="312.3438">Exam</text></g><!--class Student--><g id="elem_Student"><rect codeLine="17" fill="#F5F5DC" height="79.8438" id="Student" rx="2.5" ry="2.5" style="stroke:#181818;stroke-width:0.5;" width="114" x="719" y="242.2168"/><ellipse cx="735" cy="282.1387" fill="#ADD1B2" rx="12" ry="12" style="stroke:#181818;stroke-width:1.0;"/><path d="M739.7188,289.6387 L730.6406,289.6387 L730.6406,275.0605 L739.7188,275.0605 L739.7188,277.5918 L733.5156,277.5918 L733.5156,280.748 L739.1406,280.748 L739.1406,283.2793 L733.5156,283.2793 L733.5156,287.0918 L739.7188,287.0918 L739.7188,289.6387 Z " fill="#000000"/><text fill="#000000" font-family="sans-serif" font-size="20" font-style="italic" lengthAdjust="spacing" textLength="83" x="748.5" y="265.7813">«entity»</text><text fill="#000000" font-family="sans-serif" font-size="20" font-style="italic" lengthAdjust="spacing" textLength="64" x="758" y="289.0625">«root»</text><text fill="#000000" font-family="sans-serif" font-size="20" lengthAdjust="spacing" textLength="80" x="750" y="312.3438">Student</text></g><!--class Question--><g id="elem_Question"><rect codeLine="24" fill="#F5F5DC" height="79.8438" id="Question" rx="2.5" ry="2.5" style="stroke:#181818;stroke-width:0.5;" width="124" x="466" y="437.2168"/><ellipse cx="482" cy="477.1387" fill="#ADD1B2" rx="12" ry="12" style="stroke:#181818;stroke-width:1.0;"/><path d="M486.7188,484.6387 L477.6406,484.6387 L477.6406,470.0605 L486.7188,470.0605 L486.7188,472.5918 L480.5156,472.5918 L480.5156,475.748 L486.1406,475.748 L486.1406,478.2793 L480.5156,478.2793 L480.5156,482.0918 L486.7188,482.0918 L486.7188,484.6387 Z " fill="#000000"/><text fill="#000000" font-family="sans-serif" font-size="20" font-style="italic" lengthAdjust="spacing" textLength="83" x="500.5" y="460.7813">«entity»</text><text fill="#000000" font-family="sans-serif" font-size="20" font-style="italic" lengthAdjust="spacing" textLength="64" x="510" y="484.0625">«root»</text><text fill="#000000" font-family="sans-serif" font-size="20" lengthAdjust="spacing" textLength="90" x="497" y="507.3438">Question</text></g><!--class ExamAnswer--><g id="elem_ExamAnswer"><rect codeLine="35" fill="#F5F5DC" height="79.8438" id="ExamAnswer" rx="2.5" ry="2.5" style="stroke:#181818;stroke-width:0.5;" width="164" x="246" y="49.2168"/><ellipse cx="262" cy="89.1387" fill="#ADD1B2" rx="12" ry="12" style="stroke:#181818;stroke-width:1.0;"/><path d="M266.7188,96.6387 L257.6406,96.6387 L257.6406,82.0605 L266.7188,82.0605 L266.7188,84.5918 L260.5156,84.5918 L260.5156,87.748 L266.1406,87.748 L266.1406,90.2793 L260.5156,90.2793 L260.5156,94.0918 L266.7188,94.0918 L266.7188,96.6387 Z " fill="#000000"/><text fill="#000000" font-family="sans-serif" font-size="20" font-style="italic" lengthAdjust="spacing" textLength="83" x="300.5" y="72.7813">«entity»</text><text fill="#000000" font-family="sans-serif" font-size="20" font-style="italic" lengthAdjust="spacing" textLength="64" x="310" y="96.0625">«root»</text><text fill="#000000" font-family="sans-serif" font-size="20" lengthAdjust="spacing" textLength="130" x="277" y="119.3438">ExamAnswer</text></g><!--class AnswerToQuestion--><g id="elem_AnswerToQuestion"><rect codeLine="41" fill="#F5F5DC" height="56.5625" id="AnswerToQuestion" rx="2.5" ry="2.5" style="stroke:#181818;stroke-width:0.5;" width="222" x="188" y="253.7168"/><ellipse cx="204" cy="281.998" fill="#ADD1B2" rx="12" ry="12" style="stroke:#181818;stroke-width:1.0;"/><path d="M208.7188,289.498 L199.6406,289.498 L199.6406,274.9199 L208.7188,274.9199 L208.7188,277.4512 L202.5156,277.4512 L202.5156,280.6074 L208.1406,280.6074 L208.1406,283.1387 L202.5156,283.1387 L202.5156,286.9512 L208.7188,286.9512 L208.7188,289.498 Z " fill="#000000"/><text fill="#000000" font-family="sans-serif" font-size="20" font-style="italic" lengthAdjust="spacing" textLength="83" x="271.5" y="277.2813">«entity»</text><text fill="#000000" font-family="sans-serif" font-size="20" lengthAdjust="spacing" textLength="188" x="219" y="300.5625">AnswerToQuestion</text></g><!--class Answer--><g id="elem_Answer"><rect codeLine="37" fill="#F5F5DC" height="56.5625" id="Answer" rx="2.5" ry="2.5" style="stroke:#181818;stroke-width:0.5;" width="177" x="21.5" y="448.7168"/><ellipse cx="37.5" cy="476.998" fill="#FF8B40" rx="12" ry="12" style="stroke:#181818;stroke-width:1.0;"/><path d="M37.5156,482.8418 L40.0781,470.6699 L42.9844,470.6699 L39.5156,485.248 L35.5313,485.248 L32.0625,470.6699 L34.9531,470.6699 L37.5156,482.8418 Z " fill="#000000"/><text fill="#000000" font-family="sans-serif" font-size="20" font-style="italic" lengthAdjust="spacing" textLength="147" x="50.5" y="472.2813">«value object»</text><text fill="#000000" font-family="sans-serif" font-size="20" lengthAdjust="spacing" textLength="74" x="87" y="495.5625">Answer</text></g><!--class Score--><g id="elem_Score"><rect codeLine="38" fill="#F5F5DC" height="56.5625" id="Score" rx="2.5" ry="2.5" style="stroke:#181818;stroke-width:0.5;" width="177" x="233.5" y="448.7168"/><ellipse cx="249.5" cy="476.998" fill="#FF8B40" rx="12" ry="12" style="stroke:#181818;stroke-width:1.0;"/><path d="M249.5156,482.8418 L252.0781,470.6699 L254.9844,470.6699 L251.5156,485.248 L247.5313,485.248 L244.0625,470.6699 L246.9531,470.6699 L249.5156,482.8418 Z " fill="#000000"/><text fill="#000000" font-family="sans-serif" font-size="20" font-style="italic" lengthAdjust="spacing" textLength="147" x="262.5" y="472.2813">«value object»</text><text fill="#000000" font-family="sans-serif" font-size="20" lengthAdjust="spacing" textLength="56" x="308" y="495.5625">Score</text></g><!--link ExamAnswer to Student--><g id="link_ExamAnswer_Student"><path codeLine="43" d="M410.03,119.1268 C463.5,138.5468 534.51,165.3868 596,192.2168 C635.91,209.6268 679.72,231.2368 714.12,248.7968 " fill="none" id="ExamAnswer-to-Student" style="stroke:#222222;stroke-width:1.0;"/><polygon fill="#222222" points="718.7,251.1368,712.5269,243.4626,714.2539,248.8494,708.8671,250.5764,718.7,251.1368" style="stroke:#222222;stroke-width:1.0;"/><text fill="#000000" font-family="sans-serif" font-size="20" lengthAdjust="spacing" textLength="35" x="575" y="178.7813">has</text><text fill="#000000" font-family="sans-serif" font-size="20" lengthAdjust="spacing" textLength="13" x="697.9244" y="241.5385">1</text></g><!--link ExamAnswer to Exam--><g id="link_ExamAnswer_Exam"><path codeLine="44" d="M367.93,129.3268 C400.4,161.1268 446.14,205.9268 479.52,238.6268 " fill="none" id="ExamAnswer-to-Exam" style="stroke:#222222;stroke-width:1.0;"/><polygon fill="#222222" points="483.12,242.1568,479.4731,233.008,479.5418,238.6645,473.8854,238.7332,483.12,242.1568" style="stroke:#222222;stroke-width:1.0;"/><text fill="#000000" font-family="sans-serif" font-size="20" lengthAdjust="spacing" textLength="49" x="420" y="178.7813">is for</text><text fill="#000000" font-family="sans-serif" font-size="20" lengthAdjust="spacing" textLength="13" x="462.7282" y="229.5387">1</text></g><!--link AnswerToQuestion to Question--><g id="link_AnswerToQuestion_Question"><path codeLine="46" d="M333.2,310.7368 C358.9,331.5368 394.88,360.9068 426,387.2168 C443.77,402.2368 463.05,418.9568 480.02,433.8068 " fill="none" id="AnswerToQuestion-to-Question" style="stroke:#222222;stroke-width:1.0;"/><polygon fill="#222222" points="483.83,437.1468,479.6908,428.2099,480.0671,433.8543,474.4228,434.2306,483.83,437.1468" style="stroke:#222222;stroke-width:1.0;"/><text fill="#000000" font-family="sans-serif" font-size="20" lengthAdjust="spacing" textLength="49" x="416" y="373.7813">is for</text><text fill="#000000" font-family="sans-serif" font-size="20" lengthAdjust="spacing" textLength="13" x="462.7545" y="424.5271">1</text></g><!--reverse link AnswerToQuestion to Answer--><g id="link_AnswerToQuestion_Answer"><path codeLine="47" d="M262.56,320.4268 C225.83,357.9368 169.99,414.9568 137.03,448.6168 " fill="none" id="AnswerToQuestion-backto-Answer" style="stroke:#222222;stroke-width:1.0;"/><polygon fill="#222222" points="271.92,310.8668,264.8659,312.3633,263.5342,319.4504,270.5883,317.9539,271.92,310.8668" style="stroke:#222222;stroke-width:1.0;"/><text fill="#000000" font-family="sans-serif" font-size="20" lengthAdjust="spacing" textLength="13" x="128.2643" y="435.9847">1</text></g><!--reverse link AnswerToQuestion to Score--><g id="link_AnswerToQuestion_Score"><path codeLine="48" d="M303.84,323.8268 C308.31,361.3168 314.82,415.9668 318.71,448.6168 " fill="none" id="AnswerToQuestion-backto-Score" style="stroke:#222222;stroke-width:1.0;"/><polygon fill="#222222" points="302.3,310.8668,299.0408,317.2994,303.7251,322.7819,306.9842,316.3493,302.3,310.8668" style="stroke:#222222;stroke-width:1.0;"/><text fill="#000000" font-family="sans-serif" font-size="20" lengthAdjust="spacing" textLength="13" x="303.6908" y="435.9847">1</text></g><!--reverse link ExamAnswer to AnswerToQuestion--><g id="link_ExamAnswer_AnswerToQuestion"><path codeLine="50" d="M320.06,142.5268 C314.61,178.4168 307.59,224.6168 303.2,253.5868 " fill="none" id="ExamAnswer-backto-AnswerToQuestion" style="stroke:#222222;stroke-width:1.0;"/><polygon fill="#222222" points="322.06,129.3268,317.2026,134.6565,320.2541,141.1901,325.1115,135.8604,322.06,129.3268" style="stroke:#222222;stroke-width:1.0;"/><text fill="#000000" font-family="sans-serif" font-size="20" lengthAdjust="spacing" textLength="35" x="265.4569" y="240.9486">1..*</text></g><!--SRC=[bL7BJiCm4BpxArRf0QX8MoeEg8egjOXA754HTpVP9gP9Dh8T2bJyEywpBcb0-6JFpCxihjLEf1cNF8d9ts400Mvv7kiLfNejFX6c4tOHQPsfsNYSnJpLUHAFV4h6VioLSWF1GrFCc6fye2GMMaknoJK- -fIMHXCMYG01aqn_06zePQC9weW2zTDhoVrTA2bFWtkAIS86HOYMQ24bxIjgC2qFOvcfuI62utay32M6NEDy3W_lF77Wm00mrS945W3xwjMlTHuOvKb9ZHLLfmXuNWMOGi-JHDfS3h-uF-MejA3qnBu1BVy6-dT0CTqYLNkKdQ4hc1t12dYcDX-gxTT4-rpx9D5gxcXslZsZj7qCS_boFLYjxfQtaojuut6EG9jNz6krbVAdrkwXBxrdF5jUE5bZkEuSd1kd_TOPH5oT4vInCn0AjcHMsObeT2tGQZlIeUkMqdhPlNorVRkPYXcDXaxt2xy1]--></g></svg>