<?xml version="1.0" encoding="UTF-8" standalone="no"?><svg xmlns="http://www.w3.org/2000/svg" xmlns:xlink="http://www.w3.org/1999/xlink" contentStyleType="text/css" height="613px" preserveAspectRatio="none" style="width:645px;height:613px;background:#FFFFFF;" version="1.1" viewBox="0 0 645 613" width="645px" zoomAndPan="magnify"><defs/><g><!--cluster <<aggregate>> Enrolment--><g id="cluster_&lt;&lt;aggregate&gt;&gt; Enrolment"><path d="M144,223.36 L384.5,223.36 A3.75,3.75 0 0 1 387,225.86 L394,256.6 L394,256.6 A2.5,2.5 0 0 1 396.5,259.1 L396.5,603.86 A2.5,2.5 0 0 1 394,606.36 L144,606.36 A2.5,2.5 0 0 1 141.5,603.86 L141.5,225.86 A2.5,2.5 0 0 1 144,223.36 " fill="none" style="stroke:#000000;stroke-width:1.5;"/><line style="stroke:#000000;stroke-width:1.5;" x1="141.5" x2="394" y1="256.6" y2="256.6"/><text fill="#000000" font-family="sans-serif" font-size="20" font-weight="bold" lengthAdjust="spacing" textLength="239.5" x="145.5" y="246.74">«aggregate» Enrolment</text></g><!--cluster <<aggregate>> Student--><g id="cluster_&lt;&lt;aggregate&gt;&gt; Student"><path d="M172,8.36 L386.25,8.36 A3.75,3.75 0 0 1 388.75,10.86 L395.75,41.6 L396,41.6 A2.5,2.5 0 0 1 398.5,44.1 L398.5,159.86 A2.5,2.5 0 0 1 396,162.36 L172,162.36 A2.5,2.5 0 0 1 169.5,159.86 L169.5,10.86 A2.5,2.5 0 0 1 172,8.36 " fill="none" style="stroke:#000000;stroke-width:1.5;"/><line style="stroke:#000000;stroke-width:1.5;" x1="169.5" x2="395.75" y1="41.6" y2="41.6"/><text fill="#000000" font-family="sans-serif" font-size="20" font-weight="bold" lengthAdjust="spacing" textLength="213.25" x="173.5" y="31.74">«aggregate» Student</text></g><!--cluster <<aggregate>> Course--><g id="cluster_&lt;&lt;aggregate&gt;&gt; Course"><path d="M423,254.36 L626.625,254.36 A3.75,3.75 0 0 1 629.125,256.86 L636.125,287.6 L636,287.6 A2.5,2.5 0 0 1 638.5,290.1 L638.5,405.86 A2.5,2.5 0 0 1 636,408.36 L423,408.36 A2.5,2.5 0 0 1 420.5,405.86 L420.5,256.86 A2.5,2.5 0 0 1 423,254.36 " fill="none" style="stroke:#000000;stroke-width:1.5;"/><line style="stroke:#000000;stroke-width:1.5;" x1="420.5" x2="636.125" y1="287.6" y2="287.6"/><text fill="#000000" font-family="sans-serif" font-size="20" font-weight="bold" lengthAdjust="spacing" textLength="202.625" x="424.5" y="277.74">«aggregate» Course</text></g><!--class Enrolment--><g id="elem_Enrolment"><rect codeLine="16" fill="#F5F5DC" height="154.1999" id="Enrolment" rx="2.5" ry="2.5" style="stroke:#181818;stroke-width:0.5;" width="136" x="199.5" y="269.36"/><ellipse cx="215.5" cy="315.22" fill="#ADD1B2" rx="12" ry="12" style="stroke:#181818;stroke-width:1.0;"/><path d="M219.5469,322.72 L210.9375,322.72 L210.9375,307.8137 L219.5469,307.8137 L219.5469,310.0168 L213.3594,310.0168 L213.3594,313.8606 L219.1875,313.8606 L219.1875,316.0325 L213.3594,316.0325 L213.3594,320.5168 L219.5469,320.5168 L219.5469,322.72 Z " fill="#000000"/><text fill="#000000" font-family="sans-serif" font-size="20" font-style="italic" lengthAdjust="spacing" textLength="70" x="246.5" y="295.74">«entity»</text><text fill="#000000" font-family="sans-serif" font-size="20" font-style="italic" lengthAdjust="spacing" textLength="57" x="253" y="322.9799">«root»</text><text fill="#000000" font-family="sans-serif" font-size="20" lengthAdjust="spacing" textLength="102" x="230.5" y="350.2199">Enrolment</text><line style="stroke:#181818;stroke-width:0.5;" x1="200.5" x2="334.5" y1="361.0799" y2="361.0799"/><text fill="#000000" font-family="sans-serif" font-size="20" lengthAdjust="spacing" textLength="100" x="205.5" y="386.4599">-createdAt</text><text fill="#000000" font-family="sans-serif" font-size="20" lengthAdjust="spacing" textLength="110" x="205.5" y="413.6999">-updatedAt</text></g><!--class State--><g id="elem_State"><rect codeLine="37" fill="#F5F5DC" height="64.4799" id="State" rx="2.5" ry="2.5" style="stroke:#181818;stroke-width:0.5;" width="156" x="182.5" y="526.36"/><ellipse cx="198.5" cy="558.6" fill="#FF8B40" rx="12" ry="12" style="stroke:#181818;stroke-width:1.0;"/><path d="M204.75,552.4437 L199.4375,567.35 L197.1875,567.35 L191.875,552.4437 L194.4063,552.4437 L197.7031,561.8031 Q197.9219,562.3968 198.0781,562.9437 Q198.25,563.4906 198.375,563.9906 Q198.5156,564.475 198.3125,564.5218 Q198.0938,564.4906 198.2344,563.975 Q198.375,563.4593 198.5469,562.9281 Q198.7188,562.3812 198.9219,561.7718 L202.1875,552.4437 L204.75,552.4437 Z " fill="#000000"/><text fill="#000000" font-family="sans-serif" font-size="20" font-style="italic" lengthAdjust="spacing" textLength="126" x="211.5" y="552.74">«value object»</text><text fill="#000000" font-family="sans-serif" font-size="20" lengthAdjust="spacing" textLength="49" x="250" y="579.9799">State</text></g><!--class Student--><g id="elem_Student"><rect codeLine="26" fill="#F5F5DC" height="91.7199" id="Student" rx="2.5" ry="2.5" style="stroke:#181818;stroke-width:0.5;" width="111" x="212" y="54.36"/><ellipse cx="228" cy="100.22" fill="#ADD1B2" rx="12" ry="12" style="stroke:#181818;stroke-width:1.0;"/><path d="M232.0469,107.72 L223.4375,107.72 L223.4375,92.8137 L232.0469,92.8137 L232.0469,95.0168 L225.8594,95.0168 L225.8594,98.8606 L231.6875,98.8606 L231.6875,101.0325 L225.8594,101.0325 L225.8594,105.5168 L232.0469,105.5168 L232.0469,107.72 Z " fill="#000000"/><text fill="#000000" font-family="sans-serif" font-size="20" font-style="italic" lengthAdjust="spacing" textLength="70" x="246.5" y="80.74">«entity»</text><text fill="#000000" font-family="sans-serif" font-size="20" font-style="italic" lengthAdjust="spacing" textLength="57" x="253" y="107.9799">«root»</text><text fill="#000000" font-family="sans-serif" font-size="20" lengthAdjust="spacing" textLength="77" x="243" y="135.2199">Student</text></g><!--class Course--><g id="elem_Course"><rect codeLine="34" fill="#F5F5DC" height="91.7199" id="Course" rx="2.5" ry="2.5" style="stroke:#181818;stroke-width:0.5;" width="101" x="437" y="300.36"/><ellipse cx="453" cy="346.22" fill="#ADD1B2" rx="12" ry="12" style="stroke:#181818;stroke-width:1.0;"/><path d="M457.0469,353.72 L448.4375,353.72 L448.4375,338.8137 L457.0469,338.8137 L457.0469,341.0168 L450.8594,341.0168 L450.8594,344.8606 L456.6875,344.8606 L456.6875,347.0325 L450.8594,347.0325 L450.8594,351.5168 L457.0469,351.5168 L457.0469,353.72 Z " fill="#000000"/><text fill="#000000" font-family="sans-serif" font-size="20" font-style="italic" lengthAdjust="spacing" textLength="70" x="466.5" y="326.74">«entity»</text><text fill="#000000" font-family="sans-serif" font-size="20" font-style="italic" lengthAdjust="spacing" textLength="57" x="473" y="353.9799">«root»</text><text fill="#000000" font-family="sans-serif" font-size="20" lengthAdjust="spacing" textLength="67" x="468" y="381.2199">Course</text></g><g id="elem_GMN9"><path d="M6,512.36 L6,604.0799 A0,0 0 0 0 6,604.0799 L125,604.0799 A0,0 0 0 0 125,604.0799 L125,562.36 L182.33,558.36 L125,554.36 L125,522.36 L115,512.36 L6,512.36 A0,0 0 0 0 6,512.36 " fill="#FEFFDD" style="stroke:#181818;stroke-width:0.5;"/><path d="M115,512.36 L115,522.36 L125,522.36 L115,512.36 " fill="#FEFFDD" style="stroke:#181818;stroke-width:0.5;"/><text fill="#000000" font-family="sans-serif" font-size="20" lengthAdjust="spacing" textLength="90" x="12" y="538.74">PENDING</text><text fill="#000000" font-family="sans-serif" font-size="20" lengthAdjust="spacing" textLength="98" x="12" y="565.9799">ACCEPTED</text><text fill="#000000" font-family="sans-serif" font-size="20" lengthAdjust="spacing" textLength="90" x="12" y="593.2199">REJECTED</text></g><!--link Enrolment to State--><g id="link_Enrolment_State"><path codeLine="44" d="M264.96,423.47 C263.86,456.7 262.61,494.12 261.71,520.94 " fill="none" id="Enrolment-to-State" style="stroke:#222222;stroke-width:1.0;"/><polygon fill="#222222" points="261.54,526.16,265.846,517.3023,261.7113,521.1629,257.8507,517.0282,261.54,526.16" style="stroke:#222222;stroke-width:1.0;"/><text fill="#000000" font-family="sans-serif" font-size="20" lengthAdjust="spacing" textLength="34" x="264.5" y="475.74">has</text><text fill="#000000" font-family="sans-serif" font-size="20" lengthAdjust="spacing" textLength="11" x="249.7456" y="512.3783">1</text></g><!--link Student to Enrolment--><g id="link_Student_Enrolment"><path codeLine="46" d="M267.5,146.4 C267.5,179.21 267.5,224.58 267.5,263.71 " fill="none" id="Student-to-Enrolment" style="stroke:#222222;stroke-width:1.0;"/><polygon fill="#222222" points="267.5,268.94,271.5,259.94,267.5,263.94,263.5,259.94,267.5,268.94" style="stroke:#222222;stroke-width:1.0;"/><text fill="#000000" font-family="sans-serif" font-size="20" lengthAdjust="spacing" textLength="34" x="268.5" y="200.74">has</text><text fill="#000000" font-family="sans-serif" font-size="20" lengthAdjust="spacing" textLength="32" x="234.125" y="255.5083">0..*</text></g><!--link Enrolment to Course--><g id="link_Enrolment_Course"><path codeLine="47" d="M335.6,346.36 C366.5,346.36 402.58,346.36 431.82,346.36 " fill="none" id="Enrolment-to-Course" style="stroke:#222222;stroke-width:1.0;"/><polygon fill="#222222" points="436.83,346.36,427.83,342.36,431.83,346.36,427.83,350.36,436.83,346.36" style="stroke:#222222;stroke-width:1.0;"/><text fill="#000000" font-family="sans-serif" font-size="20" lengthAdjust="spacing" textLength="50" x="361.25" y="336.74">is for</text><text fill="#000000" font-family="sans-serif" font-size="20" lengthAdjust="spacing" textLength="11" x="417.9311" y="338.8781">1</text></g><!--SRC=[TP7DJkim48NtynIZiE1UH7z0B50LLIeXHR10Y2BsRZnDGnrFP4z0WFhkrqtIIwZKhCPdpld6dlXDOIlbL6ausv16JIjL6vcpbKNnHNWvXjErIEKder5bb9MwDCECor5cbFS3NQWyX07ydeDDOoRYYcKjT9-nRK1ZM1UQaCfAFb7jsxwlbYHhrlwGTQEoJUwujZfXmmwNLEJKCysSuu-sTNBPV01LoAYSC8fZbUUESYKqdM9g7PkIh4Ju3OYXACBS_oe4hHc92ma1s0B0eGVZk9K2BeuTiuHY1njWvYYaz4oQKrtfxhGzUf-5rFhmDftM7zv9HqOVnoTSEq-_wAtKXxVASNPl8Q7pv_NyP3w_lhaQ_yLtPMf2NhvHrhYtO3cO3Aq4UTNj4F4fVRozVxmBrIn9qgUNz3QKp-b3cknAiXftCO2V5Gy6Kumkecxe1DVA0-oNq3J7m-5PrFifhQT7Q07TsoPOU5onWty0]--></g></svg>