<?xml version="1.0" encoding="UTF-8" standalone="no"?><svg xmlns="http://www.w3.org/2000/svg" xmlns:xlink="http://www.w3.org/1999/xlink" contentStyleType="text/css" height="812px" preserveAspectRatio="none" style="width:656px;height:812px;background:#FFFFFF;" version="1.1" viewBox="0 0 656 812" width="656px" zoomAndPan="magnify"><defs/><g><!--cluster <<aggregate>> Exam--><g id="cluster_&lt;&lt;aggregate&gt;&gt; Exam"><path d="M411.5,436.36 L598.875,436.36 A3.75,3.75 0 0 1 601.375,438.86 L608.375,469.6 L608.5,469.6 A2.5,2.5 0 0 1 611,472.1 L611,587.86 A2.5,2.5 0 0 1 608.5,590.36 L411.5,590.36 A2.5,2.5 0 0 1 409,587.86 L409,438.86 A2.5,2.5 0 0 1 411.5,436.36 " fill="none" style="stroke:#000000;stroke-width:1.5;"/><line style="stroke:#000000;stroke-width:1.5;" x1="409" x2="608.375" y1="469.6" y2="469.6"/><text fill="#000000" font-family="sans-serif" font-size="20" font-weight="bold" lengthAdjust="spacing" textLength="186.375" x="413" y="459.74">«aggregate» Exam</text></g><!--cluster <<aggregate>> Student--><g id="cluster_&lt;&lt;aggregate&gt;&gt; Student"><path d="M170.5,8.36 L384.75,8.36 A3.75,3.75 0 0 1 387.25,10.86 L394.25,41.6 L394.5,41.6 A2.5,2.5 0 0 1 397,44.1 L397,159.86 A2.5,2.5 0 0 1 394.5,162.36 L170.5,162.36 A2.5,2.5 0 0 1 168,159.86 L168,10.86 A2.5,2.5 0 0 1 170.5,8.36 " fill="none" style="stroke:#000000;stroke-width:1.5;"/><line style="stroke:#000000;stroke-width:1.5;" x1="168" x2="394.25" y1="41.6" y2="41.6"/><text fill="#000000" font-family="sans-serif" font-size="20" font-weight="bold" lengthAdjust="spacing" textLength="213.25" x="172" y="31.74">«aggregate» Student</text></g><!--cluster <<aggregate>> Question--><g id="cluster_&lt;&lt;aggregate&gt;&gt; Question"><path d="M411.5,651.36 L637.375,651.36 A3.75,3.75 0 0 1 639.875,653.86 L646.875,684.6 L646.5,684.6 A2.5,2.5 0 0 1 649,687.1 L649,802.86 A2.5,2.5 0 0 1 646.5,805.36 L411.5,805.36 A2.5,2.5 0 0 1 409,802.86 L409,653.86 A2.5,2.5 0 0 1 411.5,651.36 " fill="none" style="stroke:#000000;stroke-width:1.5;"/><line style="stroke:#000000;stroke-width:1.5;" x1="409" x2="646.875" y1="684.6" y2="684.6"/><text fill="#000000" font-family="sans-serif" font-size="20" font-weight="bold" lengthAdjust="spacing" textLength="224.875" x="413" y="674.74">«aggregate» Question</text></g><!--cluster <<aggregate>> ExamAnswer--><g id="cluster_&lt;&lt;aggregate&gt;&gt; ExamAnswer"><path d="M8.5,223.36 L271.625,223.36 A3.75,3.75 0 0 1 274.125,225.86 L281.125,256.6 L382.5,256.6 A2.5,2.5 0 0 1 385,259.1 L385,788.86 A2.5,2.5 0 0 1 382.5,791.36 L8.5,791.36 A2.5,2.5 0 0 1 6,788.86 L6,225.86 A2.5,2.5 0 0 1 8.5,223.36 " fill="none" style="stroke:#000000;stroke-width:1.5;"/><line style="stroke:#000000;stroke-width:1.5;" x1="6" x2="281.125" y1="256.6" y2="256.6"/><text fill="#000000" font-family="sans-serif" font-size="20" font-weight="bold" lengthAdjust="spacing" textLength="262.125" x="10" y="246.74">«aggregate» ExamAnswer</text></g><!--class Exam--><g id="elem_Exam"><rect codeLine="41" fill="#F5F5DC" height="91.7199" id="Exam" rx="2.5" ry="2.5" style="stroke:#181818;stroke-width:0.5;" width="100" x="425" y="482.36"/><ellipse cx="441" cy="528.22" fill="#ADD1B2" rx="12" ry="12" style="stroke:#181818;stroke-width:1.0;"/><path d="M445.0469,535.72 L436.4375,535.72 L436.4375,520.8137 L445.0469,520.8137 L445.0469,523.0168 L438.8594,523.0168 L438.8594,526.8606 L444.6875,526.8606 L444.6875,529.0325 L438.8594,529.0325 L438.8594,533.5168 L445.0469,533.5168 L445.0469,535.72 Z " fill="#000000"/><text fill="#000000" font-family="sans-serif" font-size="20" font-style="italic" lengthAdjust="spacing" textLength="70" x="454" y="508.74">«entity»</text><text fill="#000000" font-family="sans-serif" font-size="20" font-style="italic" lengthAdjust="spacing" textLength="57" x="460.5" y="535.9799">«root»</text><text fill="#000000" font-family="sans-serif" font-size="20" lengthAdjust="spacing" textLength="52" x="463" y="563.2199">Exam</text></g><!--class Student--><g id="elem_Student"><rect codeLine="17" fill="#F5F5DC" height="91.7199" id="Student" rx="2.5" ry="2.5" style="stroke:#181818;stroke-width:0.5;" width="111" x="226.5" y="54.36"/><ellipse cx="242.5" cy="100.22" fill="#ADD1B2" rx="12" ry="12" style="stroke:#181818;stroke-width:1.0;"/><path d="M246.5469,107.72 L237.9375,107.72 L237.9375,92.8137 L246.5469,92.8137 L246.5469,95.0168 L240.3594,95.0168 L240.3594,98.8606 L246.1875,98.8606 L246.1875,101.0325 L240.3594,101.0325 L240.3594,105.5168 L246.5469,105.5168 L246.5469,107.72 Z " fill="#000000"/><text fill="#000000" font-family="sans-serif" font-size="20" font-style="italic" lengthAdjust="spacing" textLength="70" x="261" y="80.74">«entity»</text><text fill="#000000" font-family="sans-serif" font-size="20" font-style="italic" lengthAdjust="spacing" textLength="57" x="267.5" y="107.9799">«root»</text><text fill="#000000" font-family="sans-serif" font-size="20" lengthAdjust="spacing" textLength="77" x="257.5" y="135.2199">Student</text></g><!--class Question--><g id="elem_Question"><rect codeLine="24" fill="#F5F5DC" height="91.7199" id="Question" rx="2.5" ry="2.5" style="stroke:#181818;stroke-width:0.5;" width="122" x="425" y="697.36"/><ellipse cx="441" cy="743.22" fill="#ADD1B2" rx="12" ry="12" style="stroke:#181818;stroke-width:1.0;"/><path d="M445.0469,750.72 L436.4375,750.72 L436.4375,735.8137 L445.0469,735.8137 L445.0469,738.0168 L438.8594,738.0168 L438.8594,741.8606 L444.6875,741.8606 L444.6875,744.0325 L438.8594,744.0325 L438.8594,748.5168 L445.0469,748.5168 L445.0469,750.72 Z " fill="#000000"/><text fill="#000000" font-family="sans-serif" font-size="20" font-style="italic" lengthAdjust="spacing" textLength="70" x="465" y="723.74">«entity»</text><text fill="#000000" font-family="sans-serif" font-size="20" font-style="italic" lengthAdjust="spacing" textLength="57" x="471.5" y="750.9799">«root»</text><text fill="#000000" font-family="sans-serif" font-size="20" lengthAdjust="spacing" textLength="88" x="456" y="778.2199">Question</text></g><!--class ExamAnswer--><g id="elem_ExamAnswer"><rect codeLine="36" fill="#F5F5DC" height="91.7199" id="ExamAnswer" rx="2.5" ry="2.5" style="stroke:#181818;stroke-width:0.5;" width="158" x="203" y="269.36"/><ellipse cx="219" cy="315.22" fill="#ADD1B2" rx="12" ry="12" style="stroke:#181818;stroke-width:1.0;"/><path d="M223.0469,322.72 L214.4375,322.72 L214.4375,307.8137 L223.0469,307.8137 L223.0469,310.0168 L216.8594,310.0168 L216.8594,313.8606 L222.6875,313.8606 L222.6875,316.0325 L216.8594,316.0325 L216.8594,320.5168 L223.0469,320.5168 L223.0469,322.72 Z " fill="#000000"/><text fill="#000000" font-family="sans-serif" font-size="20" font-style="italic" lengthAdjust="spacing" textLength="70" x="261" y="295.74">«entity»</text><text fill="#000000" font-family="sans-serif" font-size="20" font-style="italic" lengthAdjust="spacing" textLength="57" x="267.5" y="322.9799">«root»</text><text fill="#000000" font-family="sans-serif" font-size="20" lengthAdjust="spacing" textLength="124" x="234" y="350.2199">ExamAnswer</text></g><!--class Grade--><g id="elem_Grade"><rect codeLine="38" fill="#F5F5DC" height="64.4799" id="Grade" rx="2.5" ry="2.5" style="stroke:#181818;stroke-width:0.5;" width="156" x="22" y="711.36"/><ellipse cx="38" cy="743.6" fill="#FF8B40" rx="12" ry="12" style="stroke:#181818;stroke-width:1.0;"/><path d="M44.25,737.4437 L38.9375,752.35 L36.6875,752.35 L31.375,737.4437 L33.9063,737.4437 L37.2031,746.8031 Q37.4219,747.3968 37.5781,747.9437 Q37.75,748.4906 37.875,748.9906 Q38.0156,749.475 37.8125,749.5218 Q37.5938,749.4906 37.7344,748.975 Q37.875,748.4593 38.0469,747.9281 Q38.2188,747.3812 38.4219,746.7718 L41.6875,737.4437 L44.25,737.4437 Z " fill="#000000"/><text fill="#000000" font-family="sans-serif" font-size="20" font-style="italic" lengthAdjust="spacing" textLength="126" x="51" y="737.74">«value object»</text><text fill="#000000" font-family="sans-serif" font-size="20" lengthAdjust="spacing" textLength="58" x="85" y="764.9799">Grade</text></g><!--class AnswerToQuestion--><g id="elem_AnswerToQuestion"><rect codeLine="42" fill="#F5F5DC" height="64.4799" id="AnswerToQuestion" rx="2.5" ry="2.5" style="stroke:#181818;stroke-width:0.5;" width="219" x="149.5" y="496.36"/><ellipse cx="165.5" cy="528.6" fill="#ADD1B2" rx="12" ry="12" style="stroke:#181818;stroke-width:1.0;"/><path d="M169.5469,536.1 L160.9375,536.1 L160.9375,521.1937 L169.5469,521.1937 L169.5469,523.3968 L163.3594,523.3968 L163.3594,527.2406 L169.1875,527.2406 L169.1875,529.4125 L163.3594,529.4125 L163.3594,533.8968 L169.5469,533.8968 L169.5469,536.1 Z " fill="#000000"/><text fill="#000000" font-family="sans-serif" font-size="20" font-style="italic" lengthAdjust="spacing" textLength="70" x="238" y="522.74">«entity»</text><text fill="#000000" font-family="sans-serif" font-size="20" lengthAdjust="spacing" textLength="185" x="180.5" y="549.9799">AnswerToQuestion</text></g><!--class Answer--><g id="elem_Answer"><rect codeLine="39" fill="#F5F5DC" height="64.4799" id="Answer" rx="2.5" ry="2.5" style="stroke:#181818;stroke-width:0.5;" width="156" x="213" y="711.36"/><ellipse cx="229" cy="743.6" fill="#FF8B40" rx="12" ry="12" style="stroke:#181818;stroke-width:1.0;"/><path d="M235.25,737.4437 L229.9375,752.35 L227.6875,752.35 L222.375,737.4437 L224.9063,737.4437 L228.2031,746.8031 Q228.4219,747.3968 228.5781,747.9437 Q228.75,748.4906 228.875,748.9906 Q229.0156,749.475 228.8125,749.5218 Q228.5938,749.4906 228.7344,748.975 Q228.875,748.4593 229.0469,747.9281 Q229.2188,747.3812 229.4219,746.7718 L232.6875,737.4437 L235.25,737.4437 Z " fill="#000000"/><text fill="#000000" font-family="sans-serif" font-size="20" font-style="italic" lengthAdjust="spacing" textLength="126" x="242" y="737.74">«value object»</text><text fill="#000000" font-family="sans-serif" font-size="20" lengthAdjust="spacing" textLength="72" x="269" y="764.9799">Answer</text></g><!--link Student to ExamAnswer--><g id="link_Student_ExamAnswer"><path codeLine="44" d="M282,146.53 C282,180.98 282,228.43 282,264.08 " fill="none" id="Student-to-ExamAnswer" style="stroke:#222222;stroke-width:1.0;"/><polygon fill="#222222" points="282,269.25,286,260.25,282,264.25,278,260.25,282,269.25" style="stroke:#222222;stroke-width:1.0;"/><text fill="#000000" font-family="sans-serif" font-size="20" lengthAdjust="spacing" textLength="34" x="283" y="200.74">has</text><text fill="#000000" font-family="sans-serif" font-size="20" lengthAdjust="spacing" textLength="32" x="247.85" y="255.6548">0..*</text></g><!--link ExamAnswer to Exam--><g id="link_ExamAnswer_Exam"><path codeLine="45" d="M323.66,361.54 C342.43,381.93 364.86,406.33 385,428.36 C399.74,444.48 415.79,462.11 430.21,477.98 " fill="none" id="ExamAnswer-to-Exam" style="stroke:#222222;stroke-width:1.0;"/><polygon fill="#222222" points="433.83,481.97,430.7447,472.6169,430.4702,478.2671,424.82,477.9926,433.83,481.97" style="stroke:#222222;stroke-width:1.0;"/><text fill="#000000" font-family="sans-serif" font-size="20" lengthAdjust="spacing" textLength="50" x="377" y="413.74">is for</text><text fill="#000000" font-family="sans-serif" font-size="20" lengthAdjust="spacing" textLength="11" x="416.5587" y="468.3372">1</text></g><!--link AnswerToQuestion to Grade--><g id="link_AnswerToQuestion_Grade"><path codeLine="46" d="M235.54,560.79 C206.45,599.76 157,666 126.55,706.79 " fill="none" id="AnswerToQuestion-to-Grade" style="stroke:#222222;stroke-width:1.0;"/><polygon fill="#222222" points="123.3,711.15,131.889,706.3303,126.2908,707.1431,125.478,701.545,123.3,711.15" style="stroke:#222222;stroke-width:1.0;"/><text fill="#000000" font-family="sans-serif" font-size="20" lengthAdjust="spacing" textLength="34" x="199" y="628.74">has</text><text fill="#000000" font-family="sans-serif" font-size="20" lengthAdjust="spacing" textLength="32" x="92.6003" y="697.3665">0..1</text></g><!--link AnswerToQuestion to Question--><g id="link_AnswerToQuestion_Question"><path codeLine="48" d="M294.1,560.44 C319.57,583.16 354.72,614.84 385,643.36 C402.12,659.48 420.56,677.39 436.94,693.5 " fill="none" id="AnswerToQuestion-to-Question" style="stroke:#222222;stroke-width:1.0;"/><polygon fill="#222222" points="440.62,697.12,437.0288,687.9492,437.0631,693.606,431.4064,693.6402,440.62,697.12" style="stroke:#222222;stroke-width:1.0;"/><text fill="#000000" font-family="sans-serif" font-size="20" lengthAdjust="spacing" textLength="50" x="375" y="628.74">is for</text><text fill="#000000" font-family="sans-serif" font-size="20" lengthAdjust="spacing" textLength="11" x="422.783" y="683.5074">1</text></g><!--reverse link AnswerToQuestion to Answer--><g id="link_AnswerToQuestion_Answer"><path codeLine="49" d="M265.66,573.67 C271.83,614.77 280.86,674.88 286.31,711.15 " fill="none" id="AnswerToQuestion-backto-Answer" style="stroke:#222222;stroke-width:1.0;"/><polygon fill="#222222" points="263.72,560.79,260.6543,567.317,265.5001,572.6572,268.5658,566.1303,263.72,560.79" style="stroke:#222222;stroke-width:1.0;"/><text fill="#000000" font-family="sans-serif" font-size="20" lengthAdjust="spacing" textLength="11" x="273.4949" y="697.3665">1</text></g><!--reverse link ExamAnswer to AnswerToQuestion--><g id="link_ExamAnswer_AnswerToQuestion"><path codeLine="51" d="M275.66,374.49 C271.38,413.79 265.89,464.15 262.41,496.1 " fill="none" id="ExamAnswer-backto-AnswerToQuestion" style="stroke:#222222;stroke-width:1.0;"/><polygon fill="#222222" points="277.09,361.37,272.4673,366.9045,275.7981,373.3003,280.4208,367.7658,277.09,361.37" style="stroke:#222222;stroke-width:1.0;"/><text fill="#000000" font-family="sans-serif" font-size="20" lengthAdjust="spacing" textLength="32" x="228.2461" y="482.5944">1..*</text></g><!--SRC=[bP7HJy8m4CRV-rTSneDA74pYWo4B2HWnFXgCxsKzjigsBcqdAl5_jrif574QzxHyzxllk-kfDIyhAccHYsID31YkQ9thkIZrWdyWZ29obcbTgV5mMEMqr7MH3n9H39ESAXKoJbFJJ8XoFj0MfbfBlgmrFYIYR8qYad66W4Mbtu6wilBL0dKccFhkDQF9EfMYBjcjo8M49V8KFMWgfTZOKc_KVeHKfeUc244SqpILc5ADamdSlT4YW2q1m59p4za8vBEJN-YQ6VAePQSrNSSAnB4LJ6CSIo6q-Td-ulvOez9Sb4VsJlJydVJlW6QxQQasA4-MjZ8nOll6S2yfGt9WRFr9xCTnuAxnCDt1xUVv3Eb5cCBvysLlFh-PNKSNy4hp6a4iNp3PmNxAdx0_GrTwnq8-tZYv8uRX189eCEW7tc9ZoAWYdj1ILu4D7WDNi1AId6GuCqFQxQrH1sYelT3jsG_35dKNzAQofMRsq_jz0G00]--></g></svg>