<?xml version="1.0" encoding="UTF-8" standalone="no"?><svg xmlns="http://www.w3.org/2000/svg" xmlns:xlink="http://www.w3.org/1999/xlink" contentStyleType="text/css" height="735px" preserveAspectRatio="none" style="width:938px;height:735px;background:#FFFFFF;" version="1.1" viewBox="0 0 938 735" width="938px" zoomAndPan="magnify"><defs/><g><!--cluster <<aggregate>> Exam--><g id="cluster_&lt;&lt;aggregate&gt;&gt; Exam"><path d="M664.5,395.2168 L878.5,395.2168 A3.75,3.75 0 0 1 881,397.7168 L888,424.498 L888.5,424.498 A2.5,2.5 0 0 1 891,426.998 L891,530.7168 A2.5,2.5 0 0 1 888.5,533.2168 L664.5,533.2168 A2.5,2.5 0 0 1 662,530.7168 L662,397.7168 A2.5,2.5 0 0 1 664.5,395.2168 " fill="none" style="stroke:#000000;stroke-width:1.5;"/><line style="stroke:#000000;stroke-width:1.5;" x1="662" x2="888" y1="424.498" y2="424.498"/><text fill="#000000" font-family="sans-serif" font-size="20" font-weight="bold" lengthAdjust="spacing" textLength="213" x="666" y="415.7813">«aggregate» Exam</text></g><!--cluster <<aggregate>> Student--><g id="cluster_&lt;&lt;aggregate&gt;&gt; Student"><path d="M406.5,7.2168 L648.5,7.2168 A3.75,3.75 0 0 1 651,9.7168 L658,36.498 L658.5,36.498 A2.5,2.5 0 0 1 661,38.998 L661,142.7168 A2.5,2.5 0 0 1 658.5,145.2168 L406.5,145.2168 A2.5,2.5 0 0 1 404,142.7168 L404,9.7168 A2.5,2.5 0 0 1 406.5,7.2168 " fill="none" style="stroke:#000000;stroke-width:1.5;"/><line style="stroke:#000000;stroke-width:1.5;" x1="404" x2="658" y1="36.498" y2="36.498"/><text fill="#000000" font-family="sans-serif" font-size="20" font-weight="bold" lengthAdjust="spacing" textLength="241" x="408" y="27.7813">«aggregate» Student</text></g><!--cluster <<aggregate>> Question--><g id="cluster_&lt;&lt;aggregate&gt;&gt; Question"><path d="M664.5,590.2168 L918.5,590.2168 A3.75,3.75 0 0 1 921,592.7168 L928,619.498 L928.5,619.498 A2.5,2.5 0 0 1 931,621.998 L931,725.7168 A2.5,2.5 0 0 1 928.5,728.2168 L664.5,728.2168 A2.5,2.5 0 0 1 662,725.7168 L662,592.7168 A2.5,2.5 0 0 1 664.5,590.2168 " fill="none" style="stroke:#000000;stroke-width:1.5;"/><line style="stroke:#000000;stroke-width:1.5;" x1="662" x2="928" y1="619.498" y2="619.498"/><text fill="#000000" font-family="sans-serif" font-size="20" font-weight="bold" lengthAdjust="spacing" textLength="253" x="666" y="610.7813">«aggregate» Question</text></g><!--cluster <<aggregate>> ExamAnswer--><g id="cluster_&lt;&lt;aggregate&gt;&gt; ExamAnswer"><path d="M8.5,202.2168 L305.5,202.2168 A3.75,3.75 0 0 1 308,204.7168 L315,231.498 L635.5,231.498 A2.5,2.5 0 0 1 638,233.998 L638,714.2168 A2.5,2.5 0 0 1 635.5,716.7168 L8.5,716.7168 A2.5,2.5 0 0 1 6,714.2168 L6,204.7168 A2.5,2.5 0 0 1 8.5,202.2168 " fill="none" style="stroke:#000000;stroke-width:1.5;"/><line style="stroke:#000000;stroke-width:1.5;" x1="6" x2="315" y1="231.498" y2="231.498"/><text fill="#000000" font-family="sans-serif" font-size="20" font-weight="bold" lengthAdjust="spacing" textLength="296" x="10" y="222.7813">«aggregate» ExamAnswer</text></g><!--class Exam--><g id="elem_Exam"><rect codeLine="43" fill="#F5F5DC" height="79.8438" id="Exam" rx="2.5" ry="2.5" style="stroke:#181818;stroke-width:0.5;" width="113" x="678.5" y="437.2168"/><ellipse cx="694.5" cy="477.1387" fill="#ADD1B2" rx="12" ry="12" style="stroke:#181818;stroke-width:1.0;"/><path d="M699.2188,484.6387 L690.1406,484.6387 L690.1406,470.0605 L699.2188,470.0605 L699.2188,472.5918 L693.0156,472.5918 L693.0156,475.748 L698.6406,475.748 L698.6406,478.2793 L693.0156,478.2793 L693.0156,482.0918 L699.2188,482.0918 L699.2188,484.6387 Z " fill="#000000"/><text fill="#000000" font-family="sans-serif" font-size="20" font-style="italic" lengthAdjust="spacing" textLength="83" x="707.5" y="460.7813">«entity»</text><text fill="#000000" font-family="sans-serif" font-size="20" font-style="italic" lengthAdjust="spacing" textLength="64" x="717" y="484.0625">«root»</text><text fill="#000000" font-family="sans-serif" font-size="20" lengthAdjust="spacing" textLength="56" x="721" y="507.3438">Exam</text></g><!--class Student--><g id="elem_Student"><rect codeLine="17" fill="#F5F5DC" height="79.8438" id="Student" rx="2.5" ry="2.5" style="stroke:#181818;stroke-width:0.5;" width="114" x="475" y="49.2168"/><ellipse cx="491" cy="89.1387" fill="#ADD1B2" rx="12" ry="12" style="stroke:#181818;stroke-width:1.0;"/><path d="M495.7188,96.6387 L486.6406,96.6387 L486.6406,82.0605 L495.7188,82.0605 L495.7188,84.5918 L489.5156,84.5918 L489.5156,87.748 L495.1406,87.748 L495.1406,90.2793 L489.5156,90.2793 L489.5156,94.0918 L495.7188,94.0918 L495.7188,96.6387 Z " fill="#000000"/><text fill="#000000" font-family="sans-serif" font-size="20" font-style="italic" lengthAdjust="spacing" textLength="83" x="504.5" y="72.7813">«entity»</text><text fill="#000000" font-family="sans-serif" font-size="20" font-style="italic" lengthAdjust="spacing" textLength="64" x="514" y="96.0625">«root»</text><text fill="#000000" font-family="sans-serif" font-size="20" lengthAdjust="spacing" textLength="80" x="506" y="119.3438">Student</text></g><!--class Question--><g id="elem_Question"><rect codeLine="24" fill="#F5F5DC" height="79.8438" id="Question" rx="2.5" ry="2.5" style="stroke:#181818;stroke-width:0.5;" width="124" x="678" y="632.2168"/><ellipse cx="694" cy="672.1387" fill="#ADD1B2" rx="12" ry="12" style="stroke:#181818;stroke-width:1.0;"/><path d="M698.7188,679.6387 L689.6406,679.6387 L689.6406,665.0605 L698.7188,665.0605 L698.7188,667.5918 L692.5156,667.5918 L692.5156,670.748 L698.1406,670.748 L698.1406,673.2793 L692.5156,673.2793 L692.5156,677.0918 L698.7188,677.0918 L698.7188,679.6387 Z " fill="#000000"/><text fill="#000000" font-family="sans-serif" font-size="20" font-style="italic" lengthAdjust="spacing" textLength="83" x="712.5" y="655.7813">«entity»</text><text fill="#000000" font-family="sans-serif" font-size="20" font-style="italic" lengthAdjust="spacing" textLength="64" x="722" y="679.0625">«root»</text><text fill="#000000" font-family="sans-serif" font-size="20" lengthAdjust="spacing" textLength="90" x="709" y="702.3438">Question</text></g><!--class ExamAnswer--><g id="elem_ExamAnswer"><rect codeLine="37" fill="#F5F5DC" height="79.8438" id="ExamAnswer" rx="2.5" ry="2.5" style="stroke:#181818;stroke-width:0.5;" width="164" x="450" y="244.2168"/><ellipse cx="466" cy="284.1387" fill="#ADD1B2" rx="12" ry="12" style="stroke:#181818;stroke-width:1.0;"/><path d="M470.7188,291.6387 L461.6406,291.6387 L461.6406,277.0605 L470.7188,277.0605 L470.7188,279.5918 L464.5156,279.5918 L464.5156,282.748 L470.1406,282.748 L470.1406,285.2793 L464.5156,285.2793 L464.5156,289.0918 L470.7188,289.0918 L470.7188,291.6387 Z " fill="#000000"/><text fill="#000000" font-family="sans-serif" font-size="20" font-style="italic" lengthAdjust="spacing" textLength="83" x="504.5" y="267.7813">«entity»</text><text fill="#000000" font-family="sans-serif" font-size="20" font-style="italic" lengthAdjust="spacing" textLength="64" x="514" y="291.0625">«root»</text><text fill="#000000" font-family="sans-serif" font-size="20" lengthAdjust="spacing" textLength="130" x="481" y="314.3438">ExamAnswer</text></g><!--class Grade--><g id="elem_Grade"><rect codeLine="39" fill="#F5F5DC" height="56.5625" id="Grade" rx="2.5" ry="2.5" style="stroke:#181818;stroke-width:0.5;" width="177" x="21.5" y="643.7168"/><ellipse cx="37.5" cy="671.998" fill="#FF8B40" rx="12" ry="12" style="stroke:#181818;stroke-width:1.0;"/><path d="M37.5156,677.8418 L40.0781,665.6699 L42.9844,665.6699 L39.5156,680.248 L35.5313,680.248 L32.0625,665.6699 L34.9531,665.6699 L37.5156,677.8418 Z " fill="#000000"/><text fill="#000000" font-family="sans-serif" font-size="20" font-style="italic" lengthAdjust="spacing" textLength="147" x="50.5" y="667.2813">«value object»</text><text fill="#000000" font-family="sans-serif" font-size="20" lengthAdjust="spacing" textLength="61" x="93.5" y="690.5625">Grade</text></g><!--class AnswerToQuestion--><g id="elem_AnswerToQuestion"><rect codeLine="44" fill="#F5F5DC" height="56.5625" id="AnswerToQuestion" rx="2.5" ry="2.5" style="stroke:#181818;stroke-width:0.5;" width="222" x="400" y="448.7168"/><ellipse cx="416" cy="476.998" fill="#ADD1B2" rx="12" ry="12" style="stroke:#181818;stroke-width:1.0;"/><path d="M420.7188,484.498 L411.6406,484.498 L411.6406,469.9199 L420.7188,469.9199 L420.7188,472.4512 L414.5156,472.4512 L414.5156,475.6074 L420.1406,475.6074 L420.1406,478.1387 L414.5156,478.1387 L414.5156,481.9512 L420.7188,481.9512 L420.7188,484.498 Z " fill="#000000"/><text fill="#000000" font-family="sans-serif" font-size="20" font-style="italic" lengthAdjust="spacing" textLength="83" x="483.5" y="472.2813">«entity»</text><text fill="#000000" font-family="sans-serif" font-size="20" lengthAdjust="spacing" textLength="188" x="431" y="495.5625">AnswerToQuestion</text></g><!--class Answer--><g id="elem_Answer"><rect codeLine="40" fill="#F5F5DC" height="56.5625" id="Answer" rx="2.5" ry="2.5" style="stroke:#181818;stroke-width:0.5;" width="177" x="233.5" y="643.7168"/><ellipse cx="249.5" cy="671.998" fill="#FF8B40" rx="12" ry="12" style="stroke:#181818;stroke-width:1.0;"/><path d="M249.5156,677.8418 L252.0781,665.6699 L254.9844,665.6699 L251.5156,680.248 L247.5313,680.248 L244.0625,665.6699 L246.9531,665.6699 L249.5156,677.8418 Z " fill="#000000"/><text fill="#000000" font-family="sans-serif" font-size="20" font-style="italic" lengthAdjust="spacing" textLength="147" x="262.5" y="667.2813">«value object»</text><text fill="#000000" font-family="sans-serif" font-size="20" lengthAdjust="spacing" textLength="74" x="299" y="690.5625">Answer</text></g><!--class Score--><g id="elem_Score"><rect codeLine="41" fill="#F5F5DC" height="56.5625" id="Score" rx="2.5" ry="2.5" style="stroke:#181818;stroke-width:0.5;" width="177" x="445.5" y="643.7168"/><ellipse cx="461.5" cy="671.998" fill="#FF8B40" rx="12" ry="12" style="stroke:#181818;stroke-width:1.0;"/><path d="M461.5156,677.8418 L464.0781,665.6699 L466.9844,665.6699 L463.5156,680.248 L459.5313,680.248 L456.0625,665.6699 L458.9531,665.6699 L461.5156,677.8418 Z " fill="#000000"/><text fill="#000000" font-family="sans-serif" font-size="20" font-style="italic" lengthAdjust="spacing" textLength="147" x="474.5" y="667.2813">«value object»</text><text fill="#000000" font-family="sans-serif" font-size="20" lengthAdjust="spacing" textLength="56" x="520" y="690.5625">Score</text></g><!--link Student to ExamAnswer--><g id="link_Student_ExamAnswer"><path codeLine="46" d="M532,129.2768 C532,160.9568 532,205.6168 532,238.6868 " fill="none" id="Student-to-ExamAnswer" style="stroke:#222222;stroke-width:1.0;"/><polygon fill="#222222" points="532,243.8868,536,234.8868,532,238.8868,528,234.8868,532,243.8868" style="stroke:#222222;stroke-width:1.0;"/><text fill="#000000" font-family="sans-serif" font-size="20" lengthAdjust="spacing" textLength="35" x="533" y="180.7813">has</text><text fill="#000000" font-family="sans-serif" font-size="20" lengthAdjust="spacing" textLength="35" x="494.3203" y="231.5483">0..*</text></g><!--link ExamAnswer to Exam--><g id="link_ExamAnswer_Exam"><path codeLine="47" d="M573.57,324.3268 C607.37,356.1268 654.98,400.9268 689.74,433.6268 " fill="none" id="ExamAnswer-to-Exam" style="stroke:#222222;stroke-width:1.0;"/><polygon fill="#222222" points="693.49,437.1568,689.6777,428.0757,689.849,433.73,684.1947,433.9013,693.49,437.1568" style="stroke:#222222;stroke-width:1.0;"/><text fill="#000000" font-family="sans-serif" font-size="20" lengthAdjust="spacing" textLength="49" x="628" y="373.7813">is for</text><text fill="#000000" font-family="sans-serif" font-size="20" lengthAdjust="spacing" textLength="13" x="672.8384" y="424.5387">1</text></g><!--link AnswerToQuestion to Grade--><g id="link_AnswerToQuestion_Grade"><path codeLine="48" d="M403.93,505.8168 C346.09,523.1868 274.72,548.6968 216,582.2168 C188.41,597.9668 161.05,621.1768 141.04,639.9468 " fill="none" id="AnswerToQuestion-to-Grade" style="stroke:#222222;stroke-width:1.0;"/><polygon fill="#222222" points="137.14,643.6368,146.4289,640.3631,140.7743,640.2028,140.9345,634.5483,137.14,643.6368" style="stroke:#222222;stroke-width:1.0;"/><text fill="#000000" font-family="sans-serif" font-size="20" lengthAdjust="spacing" textLength="35" x="278" y="568.7813">has</text><text fill="#000000" font-family="sans-serif" font-size="20" lengthAdjust="spacing" textLength="38" x="100.8189" y="631.0089">0..1</text></g><!--link AnswerToQuestion to Question--><g id="link_AnswerToQuestion_Question"><path codeLine="50" d="M545.2,505.7368 C570.9,526.5368 606.88,555.9068 638,582.2168 C655.77,597.2368 675.05,613.9568 692.02,628.8068 " fill="none" id="AnswerToQuestion-to-Question" style="stroke:#222222;stroke-width:1.0;"/><polygon fill="#222222" points="695.83,632.1468,691.6908,623.2099,692.0671,628.8543,686.4228,629.2306,695.83,632.1468" style="stroke:#222222;stroke-width:1.0;"/><text fill="#000000" font-family="sans-serif" font-size="20" lengthAdjust="spacing" textLength="49" x="628" y="568.7813">is for</text><text fill="#000000" font-family="sans-serif" font-size="20" lengthAdjust="spacing" textLength="13" x="674.7545" y="619.5271">1</text></g><!--reverse link AnswerToQuestion to Answer--><g id="link_AnswerToQuestion_Answer"><path codeLine="51" d="M474.56,515.4268 C437.83,552.9368 381.99,609.9568 349.03,643.6168 " fill="none" id="AnswerToQuestion-backto-Answer" style="stroke:#222222;stroke-width:1.0;"/><polygon fill="#222222" points="483.92,505.8668,476.8659,507.3633,475.5342,514.4504,482.5883,512.9539,483.92,505.8668" style="stroke:#222222;stroke-width:1.0;"/><text fill="#000000" font-family="sans-serif" font-size="20" lengthAdjust="spacing" textLength="13" x="340.2643" y="630.9847">1</text></g><!--reverse link AnswerToQuestion to Score--><g id="link_AnswerToQuestion_Score"><path codeLine="52" d="M515.84,518.8268 C520.31,556.3168 526.82,610.9668 530.71,643.6168 " fill="none" id="AnswerToQuestion-backto-Score" style="stroke:#222222;stroke-width:1.0;"/><polygon fill="#222222" points="514.3,505.8668,511.0408,512.2994,515.7251,517.7819,518.9842,511.3493,514.3,505.8668" style="stroke:#222222;stroke-width:1.0;"/><text fill="#000000" font-family="sans-serif" font-size="20" lengthAdjust="spacing" textLength="13" x="515.6908" y="630.9847">1</text></g><!--reverse link ExamAnswer to AnswerToQuestion--><g id="link_ExamAnswer_AnswerToQuestion"><path codeLine="54" d="M526.25,337.5268 C522.3,373.4168 517.22,419.6168 514.04,448.5868 " fill="none" id="ExamAnswer-backto-AnswerToQuestion" style="stroke:#222222;stroke-width:1.0;"/><polygon fill="#222222" points="527.7,324.3268,523.0706,329.8557,526.3937,336.2555,531.0231,330.7266,527.7,324.3268" style="stroke:#222222;stroke-width:1.0;"/><text fill="#000000" font-family="sans-serif" font-size="20" lengthAdjust="spacing" textLength="35" x="476.0576" y="435.9486">1..*</text></g><!--SRC=[bP9VJy8m5CNV-obkneDA7A3nmP2518mO7mt6zx9UjigsBcqdAl6xswqh577-sTDspk-UUtixjUP5IINDCn6laG735QqoFHU5Nl1tXCiHEKcrBjLuE2mpMkWgpmQno8TnHfKA6QU9AIP4kHneZAdMaYyhZVUnA9gW4KavGy2yr6z0dQryDKUT2gQ-Pirel4wag0fs8p8XOOayGG-QIYasrkfTDWyXfQcX2K8GHJH992PKusG2jwyq3s1B0B3GtBIi1VBHoIzqnGnvKD9gTTMX0b5a1LCOHL88RLwsFwG_LAWq5yL1l1EzV2Vzkq5zkccXDYYF3crbOiHcnt0dAKEoPwp_A7RZEB0jT9-BM4ZqPjrdVp-j8Rs6nZXzEk_DvzUpgz4PlD2iGX3BPunRsE_vHxYPw5VMdxThqevL-7YTvAu_32SGZ0Q3Vk0jOGmfLSGJ6keYi8t7m1MiX2H7FLoO8UscR507QAYTq9tP3yC6RQ-mqxTtwWzjdVfenp_69m00]--></g></svg>