<?xml version="1.0" encoding="UTF-8" standalone="no"?><svg xmlns="http://www.w3.org/2000/svg" xmlns:xlink="http://www.w3.org/1999/xlink" contentStyleType="text/css" height="778px" preserveAspectRatio="none" style="width:1546px;height:778px;background:#FFFFFF;" version="1.1" viewBox="0 0 1546 778" width="1546px" zoomAndPan="magnify"><defs/><g><!--cluster <<agregate>> Question--><g id="cluster_&lt;&lt;agregate&gt;&gt; Question"><path d="M164,320.2168 L404,320.2168 A3.75,3.75 0 0 1 406.5,322.7168 L413.5,349.498 L1281,349.498 A2.5,2.5 0 0 1 1283.5,351.998 L1283.5,768.7168 A2.5,2.5 0 0 1 1281,771.2168 L164,771.2168 A2.5,2.5 0 0 1 161.5,768.7168 L161.5,322.7168 A2.5,2.5 0 0 1 164,320.2168 " fill="none" style="stroke:#000000;stroke-width:1.5;"/><line style="stroke:#000000;stroke-width:1.5;" x1="161.5" x2="413.5" y1="349.498" y2="349.498"/><text fill="#000000" font-family="sans-serif" font-size="20" font-weight="bold" lengthAdjust="spacing" textLength="239" x="165.5" y="340.7813">«agregate» Question</text></g><!--cluster <<agregate>> Answer--><g id="cluster_&lt;&lt;agregate&gt;&gt; Answer"><path d="M525,7.2168 L746,7.2168 A3.75,3.75 0 0 1 748.5,9.7168 L755.5,36.498 L774,36.498 A2.5,2.5 0 0 1 776.5,38.998 L776.5,260.7168 A2.5,2.5 0 0 1 774,263.2168 L525,263.2168 A2.5,2.5 0 0 1 522.5,260.7168 L522.5,9.7168 A2.5,2.5 0 0 1 525,7.2168 " fill="none" style="stroke:#000000;stroke-width:1.5;"/><line style="stroke:#000000;stroke-width:1.5;" x1="522.5" x2="755.5" y1="36.498" y2="36.498"/><text fill="#000000" font-family="sans-serif" font-size="20" font-weight="bold" lengthAdjust="spacing" textLength="220" x="526.5" y="27.7813">«agregate» Answer</text></g><!--cluster <<agregate>> Exam--><g id="cluster_&lt;&lt;agregate&gt;&gt; Exam"><path d="M803,7.2168 L1003,7.2168 A3.75,3.75 0 0 1 1005.5,9.7168 L1012.5,36.498 L1013,36.498 A2.5,2.5 0 0 1 1015.5,38.998 L1015.5,260.7168 A2.5,2.5 0 0 1 1013,263.2168 L803,263.2168 A2.5,2.5 0 0 1 800.5,260.7168 L800.5,9.7168 A2.5,2.5 0 0 1 803,7.2168 " fill="none" style="stroke:#000000;stroke-width:1.5;"/><line style="stroke:#000000;stroke-width:1.5;" x1="800.5" x2="1012.5" y1="36.498" y2="36.498"/><text fill="#000000" font-family="sans-serif" font-size="20" font-weight="bold" lengthAdjust="spacing" textLength="199" x="804.5" y="27.7813">«agregate» Exam</text></g><!--cluster <<agregate>> Course--><g id="cluster_&lt;&lt;agregate&gt;&gt; Course"><path d="M1310,513.2168 L1527,513.2168 A3.75,3.75 0 0 1 1529.5,515.7168 L1536.5,542.498 L1537,542.498 A2.5,2.5 0 0 1 1539.5,544.998 L1539.5,648.7168 A2.5,2.5 0 0 1 1537,651.2168 L1310,651.2168 A2.5,2.5 0 0 1 1307.5,648.7168 L1307.5,515.7168 A2.5,2.5 0 0 1 1310,513.2168 " fill="none" style="stroke:#000000;stroke-width:1.5;"/><line style="stroke:#000000;stroke-width:1.5;" x1="1307.5" x2="1536.5" y1="542.498" y2="542.498"/><text fill="#000000" font-family="sans-serif" font-size="20" font-weight="bold" lengthAdjust="spacing" textLength="216" x="1311.5" y="533.7813">«agregate» Course</text></g><!--class Question--><g id="elem_Question"><rect codeLine="33" fill="#F5F5DC" height="79.8438" id="Question" rx="2.5" ry="2.5" style="stroke:#181818;stroke-width:0.5;" width="124" x="717.5" y="362.2168"/><ellipse cx="733.5" cy="402.1387" fill="#A9DCDF" rx="12" ry="12" style="stroke:#181818;stroke-width:1.0;"/><path d="M733.5156,396.9512 L732.1563,402.9043 L734.8906,402.9043 L733.5156,396.9512 Z M731.7656,394.3105 L735.2813,394.3105 L739.2188,408.8887 L736.3438,408.8887 L735.4375,405.2793 L731.5781,405.2793 L730.7031,408.8887 L727.8281,408.8887 L731.7656,394.3105 Z " fill="#000000"/><text fill="#000000" font-family="sans-serif" font-size="20" font-style="italic" lengthAdjust="spacing" textLength="83" x="752" y="385.7813">«entity»</text><text fill="#000000" font-family="sans-serif" font-size="20" font-style="italic" lengthAdjust="spacing" textLength="64" x="761.5" y="409.0625">«root»</text><text fill="#000000" font-family="sans-serif" font-size="20" font-style="italic" lengthAdjust="spacing" textLength="90" x="748.5" y="432.3438">Question</text></g><!--class QuestionBody--><g id="elem_QuestionBody"><rect codeLine="56" fill="#F5F5DC" height="56.5625" id="QuestionBody" rx="2.5" ry="2.5" style="stroke:#181818;stroke-width:0.5;" width="177" x="877" y="373.7168"/><ellipse cx="893" cy="401.998" fill="#FF8B40" rx="12" ry="12" style="stroke:#181818;stroke-width:1.0;"/><path d="M893.0156,407.8418 L895.5781,395.6699 L898.4844,395.6699 L895.0156,410.248 L891.0313,410.248 L887.5625,395.6699 L890.4531,395.6699 L893.0156,407.8418 Z " fill="#000000"/><text fill="#000000" font-family="sans-serif" font-size="20" font-style="italic" lengthAdjust="spacing" textLength="147" x="906" y="397.2813">«value object»</text><text fill="#000000" font-family="sans-serif" font-size="20" lengthAdjust="spacing" textLength="140" x="909.5" y="420.5625">QuestionBody</text></g><!--class CorrectAnswer--><g id="elem_CorrectAnswer"><rect codeLine="57" fill="#F5F5DC" height="56.5625" id="CorrectAnswer" rx="2.5" ry="2.5" style="stroke:#181818;stroke-width:0.5;" width="181" x="470" y="566.7168"/><ellipse cx="486" cy="594.998" fill="#FF8B40" rx="12" ry="12" style="stroke:#181818;stroke-width:1.0;"/><path d="M486.0156,600.8418 L488.5781,588.6699 L491.4844,588.6699 L488.0156,603.248 L484.0313,603.248 L480.5625,588.6699 L483.4531,588.6699 L486.0156,600.8418 Z " fill="#000000"/><text fill="#000000" font-family="sans-serif" font-size="20" font-style="italic" lengthAdjust="spacing" textLength="147" x="501" y="590.2813">«value object»</text><text fill="#000000" font-family="sans-serif" font-size="20" lengthAdjust="spacing" textLength="147" x="501" y="613.5625">CorrectAnswer</text></g><!--class Matching--><g id="elem_Matching"><rect codeLine="79" fill="#F5F5DC" height="56.5625" id="Matching" rx="2.5" ry="2.5" style="stroke:#181818;stroke-width:0.5;" width="127" x="178" y="698.2168"/><ellipse cx="194" cy="726.498" fill="#ADD1B2" rx="12" ry="12" style="stroke:#181818;stroke-width:1.0;"/><path d="M198.7188,733.998 L189.6406,733.998 L189.6406,719.4199 L198.7188,719.4199 L198.7188,721.9512 L192.5156,721.9512 L192.5156,725.1074 L198.1406,725.1074 L198.1406,727.6387 L192.5156,727.6387 L192.5156,731.4512 L198.7188,731.4512 L198.7188,733.998 Z " fill="#000000"/><text fill="#000000" font-family="sans-serif" font-size="20" font-style="italic" lengthAdjust="spacing" textLength="83" x="214" y="721.7813">«entity»</text><text fill="#000000" font-family="sans-serif" font-size="20" lengthAdjust="spacing" textLength="93" x="209" y="745.0625">Matching</text></g><!--class MultipleChoice--><g id="elem_MultipleChoice"><rect codeLine="80" fill="#F5F5DC" height="56.5625" id="MultipleChoice" rx="2.5" ry="2.5" style="stroke:#181818;stroke-width:0.5;" width="183" x="340" y="698.2168"/><ellipse cx="356" cy="726.498" fill="#ADD1B2" rx="12" ry="12" style="stroke:#181818;stroke-width:1.0;"/><path d="M360.7188,733.998 L351.6406,733.998 L351.6406,719.4199 L360.7188,719.4199 L360.7188,721.9512 L354.5156,721.9512 L354.5156,725.1074 L360.1406,725.1074 L360.1406,727.6387 L354.5156,727.6387 L354.5156,731.4512 L360.7188,731.4512 L360.7188,733.998 Z " fill="#000000"/><text fill="#000000" font-family="sans-serif" font-size="20" font-style="italic" lengthAdjust="spacing" textLength="83" x="404" y="721.7813">«entity»</text><text fill="#000000" font-family="sans-serif" font-size="20" lengthAdjust="spacing" textLength="149" x="371" y="745.0625">MultipleChoice</text></g><!--class ShortAnswer--><g id="elem_ShortAnswer"><rect codeLine="81" fill="#F5F5DC" height="56.5625" id="ShortAnswer" rx="2.5" ry="2.5" style="stroke:#181818;stroke-width:0.5;" width="162" x="558.5" y="698.2168"/><ellipse cx="574.5" cy="726.498" fill="#ADD1B2" rx="12" ry="12" style="stroke:#181818;stroke-width:1.0;"/><path d="M579.2188,733.998 L570.1406,733.998 L570.1406,719.4199 L579.2188,719.4199 L579.2188,721.9512 L573.0156,721.9512 L573.0156,725.1074 L578.6406,725.1074 L578.6406,727.6387 L573.0156,727.6387 L573.0156,731.4512 L579.2188,731.4512 L579.2188,733.998 Z " fill="#000000"/><text fill="#000000" font-family="sans-serif" font-size="20" font-style="italic" lengthAdjust="spacing" textLength="83" x="612" y="721.7813">«entity»</text><text fill="#000000" font-family="sans-serif" font-size="20" lengthAdjust="spacing" textLength="128" x="589.5" y="745.0625">ShortAnswer</text></g><!--class Numerical--><g id="elem_Numerical"><rect codeLine="82" fill="#F5F5DC" height="56.5625" id="Numerical" rx="2.5" ry="2.5" style="stroke:#181818;stroke-width:0.5;" width="137" x="756" y="698.2168"/><ellipse cx="772" cy="726.498" fill="#ADD1B2" rx="12" ry="12" style="stroke:#181818;stroke-width:1.0;"/><path d="M776.7188,733.998 L767.6406,733.998 L767.6406,719.4199 L776.7188,719.4199 L776.7188,721.9512 L770.5156,721.9512 L770.5156,725.1074 L776.1406,725.1074 L776.1406,727.6387 L770.5156,727.6387 L770.5156,731.4512 L776.7188,731.4512 L776.7188,733.998 Z " fill="#000000"/><text fill="#000000" font-family="sans-serif" font-size="20" font-style="italic" lengthAdjust="spacing" textLength="83" x="797" y="721.7813">«entity»</text><text fill="#000000" font-family="sans-serif" font-size="20" lengthAdjust="spacing" textLength="103" x="787" y="745.0625">Numerical</text></g><!--class MissingWords--><g id="elem_MissingWords"><rect codeLine="83" fill="#F5F5DC" height="56.5625" id="MissingWords" rx="2.5" ry="2.5" style="stroke:#181818;stroke-width:0.5;" width="172" x="928.5" y="698.2168"/><ellipse cx="944.5" cy="726.498" fill="#ADD1B2" rx="12" ry="12" style="stroke:#181818;stroke-width:1.0;"/><path d="M949.2188,733.998 L940.1406,733.998 L940.1406,719.4199 L949.2188,719.4199 L949.2188,721.9512 L943.0156,721.9512 L943.0156,725.1074 L948.6406,725.1074 L948.6406,727.6387 L943.0156,727.6387 L943.0156,731.4512 L949.2188,731.4512 L949.2188,733.998 Z " fill="#000000"/><text fill="#000000" font-family="sans-serif" font-size="20" font-style="italic" lengthAdjust="spacing" textLength="83" x="987" y="721.7813">«entity»</text><text fill="#000000" font-family="sans-serif" font-size="20" lengthAdjust="spacing" textLength="138" x="959.5" y="745.0625">MissingWords</text></g><!--class TrueFalse--><g id="elem_TrueFalse"><rect codeLine="84" fill="#F5F5DC" height="56.5625" id="TrueFalse" rx="2.5" ry="2.5" style="stroke:#181818;stroke-width:0.5;" width="131" x="1136" y="698.2168"/><ellipse cx="1152" cy="726.498" fill="#ADD1B2" rx="12" ry="12" style="stroke:#181818;stroke-width:1.0;"/><path d="M1156.7188,733.998 L1147.6406,733.998 L1147.6406,719.4199 L1156.7188,719.4199 L1156.7188,721.9512 L1150.5156,721.9512 L1150.5156,725.1074 L1156.1406,725.1074 L1156.1406,727.6387 L1150.5156,727.6387 L1150.5156,731.4512 L1156.7188,731.4512 L1156.7188,733.998 Z " fill="#000000"/><text fill="#000000" font-family="sans-serif" font-size="20" font-style="italic" lengthAdjust="spacing" textLength="83" x="1174" y="721.7813">«entity»</text><text fill="#000000" font-family="sans-serif" font-size="20" lengthAdjust="spacing" textLength="97" x="1167" y="745.0625">TrueFalse</text></g><!--class QuestionType--><g id="elem_QuestionType"><rect codeLine="58" fill="#F5F5DC" height="56.5625" id="QuestionType" rx="2.5" ry="2.5" style="stroke:#181818;stroke-width:0.5;" width="177" x="232" y="566.7168"/><ellipse cx="248" cy="594.998" fill="#FF8B40" rx="12" ry="12" style="stroke:#181818;stroke-width:1.0;"/><path d="M248.0156,600.8418 L250.5781,588.6699 L253.4844,588.6699 L250.0156,603.248 L246.0313,603.248 L242.5625,588.6699 L245.4531,588.6699 L248.0156,600.8418 Z " fill="#000000"/><text fill="#000000" font-family="sans-serif" font-size="20" font-style="italic" lengthAdjust="spacing" textLength="147" x="261" y="590.2813">«value object»</text><text fill="#000000" font-family="sans-serif" font-size="20" lengthAdjust="spacing" textLength="138" x="265.5" y="613.5625">QuestionType</text></g><!--class Feedback--><g id="elem_Feedback"><rect codeLine="59" fill="#F5F5DC" height="56.5625" id="Feedback" rx="2.5" ry="2.5" style="stroke:#181818;stroke-width:0.5;" width="177" x="908" y="566.7168"/><ellipse cx="924" cy="594.998" fill="#FF8B40" rx="12" ry="12" style="stroke:#181818;stroke-width:1.0;"/><path d="M924.0156,600.8418 L926.5781,588.6699 L929.4844,588.6699 L926.0156,603.248 L922.0313,603.248 L918.5625,588.6699 L921.4531,588.6699 L924.0156,600.8418 Z " fill="#000000"/><text fill="#000000" font-family="sans-serif" font-size="20" font-style="italic" lengthAdjust="spacing" textLength="147" x="937" y="590.2813">«value object»</text><text fill="#000000" font-family="sans-serif" font-size="20" lengthAdjust="spacing" textLength="97" x="962" y="613.5625">Feedback</text></g><!--class Answer--><g id="elem_Answer"><rect codeLine="34" fill="#F5F5DC" height="79.8438" id="Answer" rx="2.5" ry="2.5" style="stroke:#181818;stroke-width:0.5;" width="113" x="593" y="49.2168"/><ellipse cx="609" cy="89.1387" fill="#ADD1B2" rx="12" ry="12" style="stroke:#181818;stroke-width:1.0;"/><path d="M613.7188,96.6387 L604.6406,96.6387 L604.6406,82.0605 L613.7188,82.0605 L613.7188,84.5918 L607.5156,84.5918 L607.5156,87.748 L613.1406,87.748 L613.1406,90.2793 L607.5156,90.2793 L607.5156,94.0918 L613.7188,94.0918 L613.7188,96.6387 Z " fill="#000000"/><text fill="#000000" font-family="sans-serif" font-size="20" font-style="italic" lengthAdjust="spacing" textLength="83" x="622" y="72.7813">«entity»</text><text fill="#000000" font-family="sans-serif" font-size="20" font-style="italic" lengthAdjust="spacing" textLength="64" x="631.5" y="96.0625">«root»</text><text fill="#000000" font-family="sans-serif" font-size="20" lengthAdjust="spacing" textLength="74" x="626.5" y="119.3438">Answer</text></g><!--class AnswerToQuestion--><g id="elem_AnswerToQuestion"><rect codeLine="35" fill="#F5F5DC" height="56.5625" id="AnswerToQuestion" rx="2.5" ry="2.5" style="stroke:#181818;stroke-width:0.5;" width="222" x="538.5" y="190.2168"/><ellipse cx="554.5" cy="218.498" fill="#ADD1B2" rx="12" ry="12" style="stroke:#181818;stroke-width:1.0;"/><path d="M559.2188,225.998 L550.1406,225.998 L550.1406,211.4199 L559.2188,211.4199 L559.2188,213.9512 L553.0156,213.9512 L553.0156,217.1074 L558.6406,217.1074 L558.6406,219.6387 L553.0156,219.6387 L553.0156,223.4512 L559.2188,223.4512 L559.2188,225.998 Z " fill="#000000"/><text fill="#000000" font-family="sans-serif" font-size="20" font-style="italic" lengthAdjust="spacing" textLength="83" x="622" y="213.7813">«entity»</text><text fill="#000000" font-family="sans-serif" font-size="20" lengthAdjust="spacing" textLength="188" x="569.5" y="237.0625">AnswerToQuestion</text></g><!--class Exam--><g id="elem_Exam"><rect codeLine="50" fill="#F5F5DC" height="79.8438" id="Exam" rx="2.5" ry="2.5" style="stroke:#181818;stroke-width:0.5;" width="113" x="817" y="49.2168"/><ellipse cx="833" cy="89.1387" fill="#ADD1B2" rx="12" ry="12" style="stroke:#181818;stroke-width:1.0;"/><path d="M837.7188,96.6387 L828.6406,96.6387 L828.6406,82.0605 L837.7188,82.0605 L837.7188,84.5918 L831.5156,84.5918 L831.5156,87.748 L837.1406,87.748 L837.1406,90.2793 L831.5156,90.2793 L831.5156,94.0918 L837.7188,94.0918 L837.7188,96.6387 Z " fill="#000000"/><text fill="#000000" font-family="sans-serif" font-size="20" font-style="italic" lengthAdjust="spacing" textLength="83" x="846" y="72.7813">«entity»</text><text fill="#000000" font-family="sans-serif" font-size="20" font-style="italic" lengthAdjust="spacing" textLength="64" x="855.5" y="96.0625">«root»</text><text fill="#000000" font-family="sans-serif" font-size="20" lengthAdjust="spacing" textLength="56" x="859.5" y="119.3438">Exam</text></g><!--class Section--><g id="elem_Section"><rect codeLine="51" fill="#F5F5DC" height="56.5625" id="Section" rx="2.5" ry="2.5" style="stroke:#181818;stroke-width:0.5;" width="113" x="817" y="190.2168"/><ellipse cx="833" cy="218.498" fill="#ADD1B2" rx="12" ry="12" style="stroke:#181818;stroke-width:1.0;"/><path d="M837.7188,225.998 L828.6406,225.998 L828.6406,211.4199 L837.7188,211.4199 L837.7188,213.9512 L831.5156,213.9512 L831.5156,217.1074 L837.1406,217.1074 L837.1406,219.6387 L831.5156,219.6387 L831.5156,223.4512 L837.7188,223.4512 L837.7188,225.998 Z " fill="#000000"/><text fill="#000000" font-family="sans-serif" font-size="20" font-style="italic" lengthAdjust="spacing" textLength="83" x="846" y="213.7813">«entity»</text><text fill="#000000" font-family="sans-serif" font-size="20" lengthAdjust="spacing" textLength="75" x="850" y="237.0625">Section</text></g><!--class Course--><g id="elem_Course"><rect codeLine="48" fill="#F5F5DC" height="79.8438" id="Course" rx="2.5" ry="2.5" style="stroke:#181818;stroke-width:0.5;" width="113" x="1324" y="555.2168"/><ellipse cx="1340" cy="595.1387" fill="#ADD1B2" rx="12" ry="12" style="stroke:#181818;stroke-width:1.0;"/><path d="M1344.7188,602.6387 L1335.6406,602.6387 L1335.6406,588.0605 L1344.7188,588.0605 L1344.7188,590.5918 L1338.5156,590.5918 L1338.5156,593.748 L1344.1406,593.748 L1344.1406,596.2793 L1338.5156,596.2793 L1338.5156,600.0918 L1344.7188,600.0918 L1344.7188,602.6387 Z " fill="#000000"/><text fill="#000000" font-family="sans-serif" font-size="20" font-style="italic" lengthAdjust="spacing" textLength="83" x="1353" y="578.7813">«entity»</text><text fill="#000000" font-family="sans-serif" font-size="20" font-style="italic" lengthAdjust="spacing" textLength="64" x="1362.5" y="602.0625">«root»</text><text fill="#000000" font-family="sans-serif" font-size="20" lengthAdjust="spacing" textLength="69" x="1360" y="625.3438">Course</text></g><g id="elem_GMN25"><path d="M6,566.7168 L6,623.2793 A0,0 0 0 0 6,623.2793 L145,623.2793 A0,0 0 0 0 145,623.2793 L145,599.2168 L231.91,595.2168 L145,591.2168 L145,576.7168 L135,566.7168 L6,566.7168 A0,0 0 0 0 6,566.7168 " fill="#FEFFDD" style="stroke:#181818;stroke-width:0.5;"/><path d="M135,566.7168 L135,576.7168 L145,576.7168 L135,566.7168 " fill="#FEFFDD" style="stroke:#181818;stroke-width:0.5;"/><text fill="#000000" font-family="sans-serif" font-size="20" lengthAdjust="spacing" textLength="97" x="12" y="590.2813">REGULAR</text><text fill="#000000" font-family="sans-serif" font-size="20" lengthAdjust="spacing" textLength="118" x="12" y="613.5625">FORMATIVE</text></g><!--reverse link Answer to AnswerToQuestion--><g id="link_Answer_AnswerToQuestion"><path codeLine="37" d="M649.5,142.8068 C649.5,159.0268 649.5,176.2368 649.5,190.0768 " fill="none" id="Answer-backto-AnswerToQuestion" style="stroke:#222222;stroke-width:1.0;"/><polygon fill="#222222" points="649.5,129.5068,645.5,135.5068,649.5,141.5068,653.5,135.5068,649.5,129.5068" style="stroke:#222222;stroke-width:1.0;"/><text fill="#000000" font-family="sans-serif" font-size="20" lengthAdjust="spacing" textLength="35" x="610.8906" y="177.4365">1..*</text></g><!--reverse link Exam to Section--><g id="link_Exam_Section"><path codeLine="53" d="M873.5,142.8068 C873.5,159.0268 873.5,176.2368 873.5,190.0768 " fill="none" id="Exam-backto-Section" style="stroke:#222222;stroke-width:1.0;"/><polygon fill="#222222" points="873.5,129.5068,869.5,135.5068,873.5,141.5068,877.5,135.5068,873.5,129.5068" style="stroke:#222222;stroke-width:1.0;"/><text fill="#000000" font-family="sans-serif" font-size="20" lengthAdjust="spacing" textLength="35" x="834.8906" y="177.4365">1..*</text></g><!--link Section to Question--><g id="link_Section_Question"><path codeLine="54" d="M859.22,247.2868 C844.08,276.5168 819.95,323.1068 802.2,357.3868 " fill="none" id="Section-to-Question" style="stroke:#222222;stroke-width:1.0;"/><polygon fill="#222222" points="799.85,361.9268,807.5479,355.7833,802.1545,357.4895,800.4483,352.0961,799.85,361.9268" style="stroke:#222222;stroke-width:1.0;"/><text fill="#000000" font-family="sans-serif" font-size="20" lengthAdjust="spacing" textLength="35" x="765.2864" y="349.5944">1..*</text></g><!--reverse link Question to QuestionBody--><g id="link_Question_QuestionBody"><path codeLine="66" d="M854.87,402.2168 C862.23,402.2168 869.59,402.2168 876.95,402.2168 " fill="none" id="Question-backto-QuestionBody" style="stroke:#222222;stroke-width:1.0;"/><polygon fill="#222222" points="841.62,402.2168,847.62,406.2168,853.62,402.2168,847.62,398.2168,841.62,402.2168" style="stroke:#222222;stroke-width:1.0;"/></g><!--reverse link Question to CorrectAnswer--><g id="link_Question_CorrectAnswer"><path codeLine="67" d="M707.23,449.9268 C697.34,457.0868 687.5,464.6268 678.5,472.2168 C643.36,501.8568 607.23,540.6768 584.36,566.4768 " fill="none" id="Question-backto-CorrectAnswer" style="stroke:#222222;stroke-width:1.0;"/><polygon fill="#222222" points="717.95,442.3368,710.7419,442.5454,708.1621,449.2792,715.3702,449.0706,717.95,442.3368" style="stroke:#222222;stroke-width:1.0;"/></g><!--link Question to QuestionType--><g id="link_Question_QuestionType"><path codeLine="68" d="M717.22,416.9068 C649.89,433.0068 540.41,462.9868 452.5,505.2168 C419.29,521.1668 384.88,544.6368 359.52,563.4668 " fill="none" id="Question-to-QuestionType" style="stroke:#222222;stroke-width:1.0;"/><polygon fill="#222222" points="355.21,566.6868,364.81,564.4868,359.21,563.6868,360.01,558.0868,355.21,566.6868" style="stroke:#222222;stroke-width:1.0;"/><text fill="#000000" font-family="sans-serif" font-size="20" lengthAdjust="spacing" textLength="35" x="530.5" y="491.7813">has</text><text fill="#000000" font-family="sans-serif" font-size="20" lengthAdjust="spacing" textLength="13" x="348.0283" y="554.0692">1</text></g><!--reverse link Question to Matching--><g id="link_Question_Matching"><path codeLine="70" d="M727.58,457.7968 C716.14,472.2968 705.17,488.5768 697.5,505.2168 C668.36,568.4768 719.53,611.8168 668.5,659.2168 C611.8,711.8668 398.01,681.3468 322.5,698.2168 C316.85,699.4768 311.04,700.9968 305.25,702.6568 " fill="none" id="Question-backto-Matching" style="stroke:#222222;stroke-width:1.0;"/><polygon fill="none" points="722.35,453.1368,740.53,442.2668,733.1,462.1068,722.35,453.1368" style="stroke:#222222;stroke-width:1.0;"/></g><!--reverse link Question to MultipleChoice--><g id="link_Question_MultipleChoice"><path codeLine="71" d="M749.01,460.4768 C742.21,474.8068 735.54,490.3368 730.5,505.2168 C706.75,575.3068 749.21,616.2668 696.5,668.2168 C646.53,717.4768 610.01,683.0368 541.5,698.2168 C535.54,699.5368 529.41,700.9368 523.24,702.3868 " fill="none" id="Question-backto-MultipleChoice" style="stroke:#222222;stroke-width:1.0;"/><polygon fill="none" points="742.75,457.3268,757.88,442.4868,755.31,463.5168,742.75,457.3268" style="stroke:#222222;stroke-width:1.0;"/></g><!--reverse link Question to ShortAnswer--><g id="link_Question_ShortAnswer"><path codeLine="72" d="M774.89,462.5268 C768.67,530.1368 755.72,635.5168 733.5,668.2168 C725.44,680.0868 714.03,689.9368 701.93,697.9268 " fill="none" id="Question-backto-ShortAnswer" style="stroke:#222222;stroke-width:1.0;"/><polygon fill="none" points="767.93,461.7768,776.65,442.4668,781.88,462.9968,767.93,461.7768" style="stroke:#222222;stroke-width:1.0;"/></g><!--reverse link Question to Numerical--><g id="link_Question_Numerical"><path codeLine="73" d="M787.79,462.6668 C797.57,532.6868 813.38,646.0568 820.64,698.0468 " fill="none" id="Question-backto-Numerical" style="stroke:#222222;stroke-width:1.0;"/><polygon fill="none" points="780.8,463.2168,784.97,442.4368,794.67,461.2768,780.8,463.2168" style="stroke:#222222;stroke-width:1.0;"/></g><!--reverse link Question to MissingWords--><g id="link_Question_MissingWords"><path codeLine="74" d="M798.53,461.6968 C803.13,475.9268 808.01,491.1168 812.5,505.2168 C835.52,577.5468 811.48,612.9368 863.5,668.2168 C873.45,678.7868 900.04,690.2068 928.18,700.0668 " fill="none" id="Question-backto-MissingWords" style="stroke:#222222;stroke-width:1.0;"/><polygon fill="none" points="791.79,463.6068,792.28,442.4168,805.11,459.2868,791.79,463.6068" style="stroke:#222222;stroke-width:1.0;"/></g><!--reverse link Question to TrueFalse--><g id="link_Question_TrueFalse"><path codeLine="75" d="M818.04,459.9968 C826.82,474.3668 835.58,490.0368 842.5,505.2168 C872.24,570.4468 836.56,611.9968 890.5,659.2168 C967.86,726.9268 1018.76,673.3168 1118.5,698.2168 C1124.1,699.6168 1129.86,701.2068 1135.62,702.8968 " fill="none" id="Question-backto-TrueFalse" style="stroke:#222222;stroke-width:1.0;"/><polygon fill="none" points="811.83,463.2668,807.06,442.6268,823.67,455.7868,811.83,463.2668" style="stroke:#222222;stroke-width:1.0;"/></g><!--link Question to Course--><g id="link_Question_Course"><path codeLine="77" d="M841.64,435.7468 C847.58,438.1768 853.6,440.3868 859.5,442.2168 C1041.47,498.6168 1111.54,423.2168 1283.5,505.2168 C1306.32,516.0968 1327.54,534.1968 1344.27,551.2468 " fill="none" id="Question-to-Course" style="stroke:#222222;stroke-width:1.0;"/><polygon fill="#222222" points="1347.99,555.0868,1344.6222,545.8317,1344.5193,551.4876,1338.8634,551.3847,1347.99,555.0868" style="stroke:#222222;stroke-width:1.0;"/><text fill="#000000" font-family="sans-serif" font-size="20" lengthAdjust="spacing" textLength="35" x="1263.5" y="491.7813">has</text><text fill="#000000" font-family="sans-serif" font-size="20" lengthAdjust="spacing" textLength="13" x="1328.7728" y="542.4576">1</text></g><!--link AnswerToQuestion to Question--><g id="link_AnswerToQuestion_Question"><path codeLine="86" d="M669.24,247.2868 C690.27,276.6368 723.83,323.4868 748.41,357.8068 " fill="none" id="AnswerToQuestion-to-Question" style="stroke:#222222;stroke-width:1.0;"/><polygon fill="#222222" points="751.36,361.9268,749.3742,352.2802,748.4498,357.861,742.869,356.9366,751.36,361.9268" style="stroke:#222222;stroke-width:1.0;"/><text fill="#000000" font-family="sans-serif" font-size="20" lengthAdjust="spacing" textLength="49" x="707.5" y="298.7813">is for</text><text fill="#000000" font-family="sans-serif" font-size="20" lengthAdjust="spacing" textLength="13" x="733.0558" y="349.5944">1</text></g><!--link Question to Feedback--><g id="link_Question_Feedback"><path codeLine="87" d="M841.51,441.9668 C855.11,451.3268 869.12,461.6868 881.5,472.2168 C914.33,500.1468 947.66,536.5768 969.92,562.3368 " fill="none" id="Question-to-Feedback" style="stroke:#222222;stroke-width:1.0;"/><polygon fill="#222222" points="973.4,566.3768,970.5419,556.9518,970.1308,562.5936,964.4889,562.1825,973.4,566.3768" style="stroke:#222222;stroke-width:1.0;"/><text fill="#000000" font-family="sans-serif" font-size="20" lengthAdjust="spacing" textLength="35" x="930.4069" y="554.0701">0..*</text></g><!--SRC=[ZLJ1Zjem4BtxAopsq1OrG5SzL2X20aIgbRgjojBjsIH3uf9a8jlfbcxttsiIOXmdQE4KtimypnkFdzppl622PIc6UuXe13jMfYh0N3tmlq1l9-HDebGXf-DnaR9SbLaw2Z4RXocJqeiuYtKn8RBXeLLWhfJWsrB1NOXvHJGX2O-0GbQe0sLDMDfe1Yh1IBfS2nRkOu5b7YqnHK6tm6EmakP2u5CTkhcjVeIGGXUn6EZ0ztM743C5indzNe9K7FC1VIQKigrKWeNAm4I3rP46MM1qCE0IXO1GpNFv18Bq4b0AkU9QoprJOSBps4BqM7cHmZ917i8PVqXGD9m6_5fc87Z8KgkUIwa9VwBG8pBeHfGGi5H2j_VDeG031W3HLi-4l5oQJTr2FPaJkTjL_N-3Hgucwyo0-dwThZbzNo0g_V7yGbeSLoMT3xBJTHOvaGmzZmu-Z4R3GRUr2ofNVrZMqdW4hClGztiIrb-_n598Q37KqB6a1LoIIAo3Nnd3gHjNVLLfQM-QRj8zRzQ4pkFexhMcVVlu_YO8FYq-JjxHtomjWUBsbsQf3-hP-Yjhx1MyigHPq5VJIOuAQ0exHN7dBljwzVd7b_bQVmNVrlVppTtZIWypeiSQGimw3Rts2xS2dlFCJQYUwg2jRPemQV7w_pnDODw-YxSTm8dQFk24pcxWCjgUuCGiP-XeE6teb5RjEvRbh5klVVNdM1Bw4uoG2sTOSlepZAX-Hx0SmxqkBPPBkaFtHYVLEp7s-1y0]--></g></svg>