<?xml version="1.0" encoding="UTF-8" standalone="no"?><svg xmlns="http://www.w3.org/2000/svg" xmlns:xlink="http://www.w3.org/1999/xlink" contentStyleType="text/css" height="613px" preserveAspectRatio="none" style="width:647px;height:613px;background:#FFFFFF;" version="1.1" viewBox="0 0 647 613" width="647px" zoomAndPan="magnify"><defs/><g><!--cluster <<aggregate>> Enrolment--><g id="cluster_&lt;&lt;aggregate&gt;&gt; Enrolment"><path d="M144.5,223.08 L384.5,223.08 A3.75,3.75 0 0 1 387,225.58 L394,256.32 L394.5,256.32 A2.5,2.5 0 0 1 397,258.82 L397,603.88 A2.5,2.5 0 0 1 394.5,606.38 L144.5,606.38 A2.5,2.5 0 0 1 142,603.88 L142,225.58 A2.5,2.5 0 0 1 144.5,223.08 " fill="none" style="stroke:#000000;stroke-width:1.5;"/><line style="stroke:#000000;stroke-width:1.5;" x1="142" x2="394" y1="256.32" y2="256.32"/><text fill="#000000" font-family="sans-serif" font-size="20" font-weight="bold" lengthAdjust="spacing" textLength="239" x="146" y="246.46">«aggregate» Enrolment</text></g><!--cluster <<aggregate>> Student--><g id="cluster_&lt;&lt;aggregate&gt;&gt; Student"><path d="M176.5,8.36 L391.5,8.36 A3.75,3.75 0 0 1 394,10.86 L401,41.6 L401.5,41.6 A2.5,2.5 0 0 1 404,44.1 L404,159.58 A2.5,2.5 0 0 1 401.5,162.08 L176.5,162.08 A2.5,2.5 0 0 1 174,159.58 L174,10.86 A2.5,2.5 0 0 1 176.5,8.36 " fill="none" style="stroke:#000000;stroke-width:1.5;"/><line style="stroke:#000000;stroke-width:1.5;" x1="174" x2="401" y1="41.6" y2="41.6"/><text fill="#000000" font-family="sans-serif" font-size="20" font-weight="bold" lengthAdjust="spacing" textLength="214" x="178" y="31.74">«aggregate» Student</text></g><!--cluster <<aggregate>> Course--><g id="cluster_&lt;&lt;aggregate&gt;&gt; Course"><path d="M423.5,254.32 L627.5,254.32 A3.75,3.75 0 0 1 630,256.82 L637,287.56 L637.5,287.56 A2.5,2.5 0 0 1 640,290.06 L640,405.54 A2.5,2.5 0 0 1 637.5,408.04 L423.5,408.04 A2.5,2.5 0 0 1 421,405.54 L421,256.82 A2.5,2.5 0 0 1 423.5,254.32 " fill="none" style="stroke:#000000;stroke-width:1.5;"/><line style="stroke:#000000;stroke-width:1.5;" x1="421" x2="637" y1="287.56" y2="287.56"/><text fill="#000000" font-family="sans-serif" font-size="20" font-weight="bold" lengthAdjust="spacing" textLength="203" x="425" y="277.7">«aggregate» Course</text></g><!--class Enrolment--><g id="elem_Enrolment"><rect codeLine="16" fill="#F5F5DC" height="154.1999" id="Enrolment" rx="2.5" ry="2.5" style="stroke:#181818;stroke-width:0.5;" width="131" x="206.5" y="269.08"/><ellipse cx="222.5" cy="314.94" fill="#ADD1B2" rx="12" ry="12" style="stroke:#181818;stroke-width:1.0;"/><path d="M217.5938,321.94 L217.5938,307.6587 L226.5938,307.6587 L226.5938,310.1587 L220.4063,310.1587 L220.4063,313.2837 L226.2969,313.2837 L226.2969,315.7837 L220.4063,315.7837 L220.4063,319.44 L226.5938,319.44 L226.5938,321.94 L217.5938,321.94 Z " fill="#000000"/><text fill="#000000" font-family="sans-serif" font-size="20" font-style="italic" lengthAdjust="spacing" textLength="70" x="251" y="295.46">«entity»</text><text fill="#000000" font-family="sans-serif" font-size="20" font-style="italic" lengthAdjust="spacing" textLength="57" x="257.5" y="322.6999">«root»</text><text fill="#000000" font-family="sans-serif" font-size="20" lengthAdjust="spacing" textLength="97" x="237.5" y="349.9399">Enrolment</text><line style="stroke:#181818;stroke-width:0.5;" x1="207.5" x2="336.5" y1="360.7999" y2="360.7999"/><text fill="#000000" font-family="sans-serif" font-size="20" lengthAdjust="spacing" textLength="96" x="212.5" y="386.1799">-createdAt</text><text fill="#000000" font-family="sans-serif" font-size="20" lengthAdjust="spacing" textLength="103" x="212.5" y="413.4199">-updatedAt</text></g><!--class State--><g id="elem_State"><rect codeLine="37" fill="#F5F5DC" height="64.4799" id="State" rx="2.5" ry="2.5" style="stroke:#181818;stroke-width:0.5;" width="156" x="185" y="525.9"/><ellipse cx="201" cy="558.14" fill="#FF8B40" rx="12" ry="12" style="stroke:#181818;stroke-width:1.0;"/><path d="M199.375,566.14 L195.2031,551.8587 L198.125,551.8587 L200.2969,560.3431 Q200.4063,560.6556 200.5313,561.265 Q200.6563,561.8587 200.7813,562.4837 Q200.9063,563.0931 200.9531,563.5462 L201.1406,563.5462 Q201.2031,563.0931 201.3125,562.4837 Q201.4219,561.8743 201.5313,561.2962 Q201.6563,560.7025 201.7344,560.3431 L203.8438,551.8587 L206.7969,551.8587 L202.625,566.14 L199.375,566.14 Z " fill="#000000"/><text fill="#000000" font-family="sans-serif" font-size="20" font-style="italic" lengthAdjust="spacing" textLength="126" x="214" y="552.28">«value object»</text><text fill="#000000" font-family="sans-serif" font-size="20" lengthAdjust="spacing" textLength="47" x="253.5" y="579.5199">State</text></g><!--class Student--><g id="elem_Student"><rect codeLine="26" fill="#F5F5DC" height="91.7199" id="Student" rx="2.5" ry="2.5" style="stroke:#181818;stroke-width:0.5;" width="106" x="219" y="54.36"/><ellipse cx="235" cy="100.22" fill="#ADD1B2" rx="12" ry="12" style="stroke:#181818;stroke-width:1.0;"/><path d="M230.0938,107.22 L230.0938,92.9387 L239.0938,92.9387 L239.0938,95.4387 L232.9063,95.4387 L232.9063,98.5637 L238.7969,98.5637 L238.7969,101.0637 L232.9063,101.0637 L232.9063,104.72 L239.0938,104.72 L239.0938,107.22 L230.0938,107.22 Z " fill="#000000"/><text fill="#000000" font-family="sans-serif" font-size="20" font-style="italic" lengthAdjust="spacing" textLength="70" x="251" y="80.74">«entity»</text><text fill="#000000" font-family="sans-serif" font-size="20" font-style="italic" lengthAdjust="spacing" textLength="57" x="257.5" y="107.9799">«root»</text><text fill="#000000" font-family="sans-serif" font-size="20" lengthAdjust="spacing" textLength="72" x="250" y="135.2199">Student</text></g><!--class Course--><g id="elem_Course"><rect codeLine="34" fill="#F5F5DC" height="91.7199" id="Course" rx="2.5" ry="2.5" style="stroke:#181818;stroke-width:0.5;" width="100" x="437" y="300.32"/><ellipse cx="453" cy="346.18" fill="#ADD1B2" rx="12" ry="12" style="stroke:#181818;stroke-width:1.0;"/><path d="M448.0938,353.18 L448.0938,338.8987 L457.0938,338.8987 L457.0938,341.3987 L450.9063,341.3987 L450.9063,344.5237 L456.7969,344.5237 L456.7969,347.0237 L450.9063,347.0237 L450.9063,350.68 L457.0938,350.68 L457.0938,353.18 L448.0938,353.18 Z " fill="#000000"/><text fill="#000000" font-family="sans-serif" font-size="20" font-style="italic" lengthAdjust="spacing" textLength="70" x="466" y="326.7">«entity»</text><text fill="#000000" font-family="sans-serif" font-size="20" font-style="italic" lengthAdjust="spacing" textLength="57" x="472.5" y="353.9399">«root»</text><text fill="#000000" font-family="sans-serif" font-size="20" lengthAdjust="spacing" textLength="66" x="468" y="381.1799">Course</text></g><g id="elem_GMN9"><path d="M6,512.28 L6,603.9999 A0,0 0 0 0 6,603.9999 L126,603.9999 A0,0 0 0 0 126,603.9999 L126,562.14 L184.57,558.14 L126,554.14 L126,522.28 L116,512.28 L6,512.28 A0,0 0 0 0 6,512.28 " fill="#FEFFDD" style="stroke:#181818;stroke-width:0.5;"/><path d="M116,512.28 L116,522.28 L126,522.28 L116,512.28 " fill="#FEFFDD" style="stroke:#181818;stroke-width:0.5;"/><text fill="#000000" font-family="sans-serif" font-size="20" lengthAdjust="spacing" textLength="90" x="12" y="538.66">PENDING</text><text fill="#000000" font-family="sans-serif" font-size="20" lengthAdjust="spacing" textLength="99" x="12" y="565.8999">ACCEPTED</text><text fill="#000000" font-family="sans-serif" font-size="20" lengthAdjust="spacing" textLength="89" x="12" y="593.1399">REJECTED</text></g><!--link Enrolment to State--><g id="link_Enrolment_State"><path codeLine="44" d="M268.73,423.57 C267.32,456.28 265.75,492.98 264.61,519.63 " fill="none" id="Enrolment-to-State" style="stroke:#222222;stroke-width:1.0;"/><polygon fill="#222222" points="264.36,524.5,268.7417,515.6795,264.5741,519.5046,260.749,515.337,264.36,524.5" style="stroke:#222222;stroke-width:1.0;"/><text fill="#000000" font-family="sans-serif" font-size="20" lengthAdjust="spacing" textLength="33" x="268" y="475.66">has</text><text fill="#000000" font-family="sans-serif" font-size="20" lengthAdjust="spacing" textLength="11" x="252.6484" y="511.9703">1</text></g><!--link Student to Enrolment--><g id="link_Student_Enrolment"><path codeLine="46" d="M272,146.54 C272,179.24 272,224.3 272,263.25 " fill="none" id="Student-to-Enrolment" style="stroke:#222222;stroke-width:1.0;"/><polygon fill="#222222" points="272,267.94,276,258.94,272,262.94,268,258.94,272,267.94" style="stroke:#222222;stroke-width:1.0;"/><text fill="#000000" font-family="sans-serif" font-size="20" lengthAdjust="spacing" textLength="33" x="273" y="200.46">has</text><text fill="#000000" font-family="sans-serif" font-size="20" lengthAdjust="spacing" textLength="32" x="238.575" y="255.2491">0..*</text></g><!--link Enrolment to Course--><g id="link_Enrolment_Course"><path codeLine="47" d="M337.97,346.18 C367.59,346.18 402.17,346.18 430.57,346.18 " fill="none" id="Enrolment-to-Course" style="stroke:#222222;stroke-width:1.0;"/><polygon fill="#222222" points="435.53,346.18,426.53,342.18,430.53,346.18,426.53,350.18,435.53,346.18" style="stroke:#222222;stroke-width:1.0;"/><text fill="#000000" font-family="sans-serif" font-size="20" lengthAdjust="spacing" textLength="47" x="363.75" y="336.56">is for</text><text fill="#000000" font-family="sans-serif" font-size="20" lengthAdjust="spacing" textLength="11" x="418.009" y="338.762">1</text></g><!--SRC=[TP7DJkim48NtynIZiE1UH7z0B50LLIeXHR10Y2BsRZnDGnrFP4z0WFhkrqtIIwZKhCPdpld6dlXDOIlbL6ausv16JIjL6vcpbKNnHNWvXjErIEKder5bb9MwDCECor5cbFS3NQWyX07ydeDDOoRYYcKjT9-nRK1ZM1UQaCfAFb7jsxwlbYHhrlwGTQEoJUwujZfXmmwNLEJKCysSuu-sTNBPV01LoAYSC8fZbUUESYKqdM9g7PkIh4Ju3OYXACBS_oe4hHc92ma1s0B0eGVZk9K2BeuTiuHY1njWvYYaz4oQKrtfxhGzUf-5rFhmDftM7zv9HqOVnoTSEq-_wAtKXxVASNPl8Q7pv_NyP3w_lhaQ_yLtPMf2NhvHrhYtO3cO3Aq4UTNj4F4fVRozVxmBrIn9qgUNz3QKp-b3cknAiXftCO2V5Gy6Kumkecxe1DVA0-oNq3J7m-5PrFifhQT7Q07TsoPOU5onWty0]--></g></svg>