<?xml version="1.0" encoding="UTF-8" standalone="no"?><svg xmlns="http://www.w3.org/2000/svg" xmlns:xlink="http://www.w3.org/1999/xlink" contentStyleType="text/css" height="1194px" preserveAspectRatio="none" style="width:2080px;height:1194px;background:#FFFFFF;" version="1.1" viewBox="0 0 2080 1194" width="2080px" zoomAndPan="magnify"><defs/><g><!--cluster <<aggregate>> Exam--><g id="cluster_&lt;&lt;aggregate&gt;&gt; Exam"><path d="M8.5,459.2168 L222.5,459.2168 A3.75,3.75 0 0 1 225,461.7168 L232,488.498 L907.5,488.498 A2.5,2.5 0 0 1 910,490.998 L910,978.2168 A2.5,2.5 0 0 1 907.5,980.7168 L8.5,980.7168 A2.5,2.5 0 0 1 6,978.2168 L6,461.7168 A2.5,2.5 0 0 1 8.5,459.2168 " fill="none" style="stroke:#000000;stroke-width:1.5;"/><line style="stroke:#000000;stroke-width:1.5;" x1="6" x2="232" y1="488.498" y2="488.498"/><text fill="#000000" font-family="sans-serif" font-size="20" font-weight="bold" lengthAdjust="spacing" textLength="213" x="10" y="479.7813">«aggregate» Exam</text></g><!--cluster <<aggregate>> FormativeExam--><g id="cluster_&lt;&lt;aggregate&gt;&gt; FormativeExam"><path d="M936.5,683.2168 L1267.5,683.2168 A3.75,3.75 0 0 1 1270,685.7168 L1277,712.498 L1277.5,712.498 A2.5,2.5 0 0 1 1280,714.998 L1280,818.7168 A2.5,2.5 0 0 1 1277.5,821.2168 L936.5,821.2168 A2.5,2.5 0 0 1 934,818.7168 L934,685.7168 A2.5,2.5 0 0 1 936.5,683.2168 " fill="none" style="stroke:#000000;stroke-width:1.5;"/><line style="stroke:#000000;stroke-width:1.5;" x1="934" x2="1277" y1="712.498" y2="712.498"/><text fill="#000000" font-family="sans-serif" font-size="20" font-weight="bold" lengthAdjust="spacing" textLength="330" x="938" y="703.7813">«aggregate» FormativeExam</text></g><!--cluster <<aggregate>> EvaluationExam--><g id="cluster_&lt;&lt;aggregate&gt;&gt; EvaluationExam"><path d="M1652.5,474.7168 L1987.5,474.7168 A3.75,3.75 0 0 1 1990,477.2168 L1997,503.998 L2070.5,503.998 A2.5,2.5 0 0 1 2073,506.498 L2073,978.2168 A2.5,2.5 0 0 1 2070.5,980.7168 L1652.5,980.7168 A2.5,2.5 0 0 1 1650,978.2168 L1650,477.2168 A2.5,2.5 0 0 1 1652.5,474.7168 " fill="none" style="stroke:#000000;stroke-width:1.5;"/><line style="stroke:#000000;stroke-width:1.5;" x1="1650" x2="1997" y1="503.998" y2="503.998"/><text fill="#000000" font-family="sans-serif" font-size="20" font-weight="bold" lengthAdjust="spacing" textLength="334" x="1654" y="495.2813">«aggregate» EvaluationExam</text></g><!--cluster <<agregate>> Question--><g id="cluster_&lt;&lt;agregate&gt;&gt; Question"><path d="M27.5,1049.2168 L267.5,1049.2168 A3.75,3.75 0 0 1 270,1051.7168 L277,1078.498 L277.5,1078.498 A2.5,2.5 0 0 1 280,1080.998 L280,1184.7168 A2.5,2.5 0 0 1 277.5,1187.2168 L27.5,1187.2168 A2.5,2.5 0 0 1 25,1184.7168 L25,1051.7168 A2.5,2.5 0 0 1 27.5,1049.2168 " fill="none" style="stroke:#000000;stroke-width:1.5;"/><line style="stroke:#000000;stroke-width:1.5;" x1="25" x2="277" y1="1078.498" y2="1078.498"/><text fill="#000000" font-family="sans-serif" font-size="20" font-weight="bold" lengthAdjust="spacing" textLength="239" x="29" y="1069.7813">«agregate» Question</text></g><!--cluster <<aggregate>> Student--><g id="cluster_&lt;&lt;aggregate&gt;&gt; Student"><path d="M711.5,7.2168 L953.5,7.2168 A3.75,3.75 0 0 1 956,9.7168 L963,36.498 L963.5,36.498 A2.5,2.5 0 0 1 966,38.998 L966,142.7168 A2.5,2.5 0 0 1 963.5,145.2168 L711.5,145.2168 A2.5,2.5 0 0 1 709,142.7168 L709,9.7168 A2.5,2.5 0 0 1 711.5,7.2168 " fill="none" style="stroke:#000000;stroke-width:1.5;"/><line style="stroke:#000000;stroke-width:1.5;" x1="709" x2="963" y1="36.498" y2="36.498"/><text fill="#000000" font-family="sans-serif" font-size="20" font-weight="bold" lengthAdjust="spacing" textLength="241" x="713" y="27.7813">«aggregate» Student</text></g><!--cluster <<aggregate>> Course--><g id="cluster_&lt;&lt;aggregate&gt;&gt; Course"><path d="M1099.5,854.2168 L1330.5,854.2168 A3.75,3.75 0 0 1 1333,856.7168 L1340,883.498 L1340.5,883.498 A2.5,2.5 0 0 1 1343,885.998 L1343,989.7168 A2.5,2.5 0 0 1 1340.5,992.2168 L1099.5,992.2168 A2.5,2.5 0 0 1 1097,989.7168 L1097,856.7168 A2.5,2.5 0 0 1 1099.5,854.2168 " fill="none" style="stroke:#000000;stroke-width:1.5;"/><line style="stroke:#000000;stroke-width:1.5;" x1="1097" x2="1340" y1="883.498" y2="883.498"/><text fill="#000000" font-family="sans-serif" font-size="20" font-weight="bold" lengthAdjust="spacing" textLength="230" x="1101" y="874.7813">«aggregate» Course</text></g><!--cluster <<aggregate>> ExamAnswer--><g id="cluster_&lt;&lt;aggregate&gt;&gt; ExamAnswer"><path d="M683.5,202.2168 L980.5,202.2168 A3.75,3.75 0 0 1 983,204.7168 L990,231.498 L990.5,231.498 A2.5,2.5 0 0 1 993,233.998 L993,337.7168 A2.5,2.5 0 0 1 990.5,340.2168 L683.5,340.2168 A2.5,2.5 0 0 1 681,337.7168 L681,204.7168 A2.5,2.5 0 0 1 683.5,202.2168 " fill="none" style="stroke:#000000;stroke-width:1.5;"/><line style="stroke:#000000;stroke-width:1.5;" x1="681" x2="990" y1="231.498" y2="231.498"/><text fill="#000000" font-family="sans-serif" font-size="20" font-weight="bold" lengthAdjust="spacing" textLength="296" x="685" y="222.7813">«aggregate» ExamAnswer</text></g><!--cluster <<aggregate>> Teacher--><g id="cluster_&lt;&lt;aggregate&gt;&gt; Teacher"><path d="M1369.5,854.2168 L1613.5,854.2168 A3.75,3.75 0 0 1 1616,856.7168 L1623,883.498 L1623.5,883.498 A2.5,2.5 0 0 1 1626,885.998 L1626,989.7168 A2.5,2.5 0 0 1 1623.5,992.2168 L1369.5,992.2168 A2.5,2.5 0 0 1 1367,989.7168 L1367,856.7168 A2.5,2.5 0 0 1 1369.5,854.2168 " fill="none" style="stroke:#000000;stroke-width:1.5;"/><line style="stroke:#000000;stroke-width:1.5;" x1="1367" x2="1623" y1="883.498" y2="883.498"/><text fill="#000000" font-family="sans-serif" font-size="20" font-weight="bold" lengthAdjust="spacing" textLength="243" x="1371" y="874.7813">«aggregate» Teacher</text></g><!--class Exam--><g id="elem_Exam"><rect codeLine="78" fill="#F5F5DC" height="111.125" id="Exam" rx="2.5" ry="2.5" style="stroke:#181818;stroke-width:0.5;" width="113" x="780.5" y="501.2168"/><ellipse cx="796.5" cy="541.1387" fill="#ADD1B2" rx="12" ry="12" style="stroke:#181818;stroke-width:1.0;"/><path d="M801.2188,548.6387 L792.1406,548.6387 L792.1406,534.0605 L801.2188,534.0605 L801.2188,536.5918 L795.0156,536.5918 L795.0156,539.748 L800.6406,539.748 L800.6406,542.2793 L795.0156,542.2793 L795.0156,546.0918 L801.2188,546.0918 L801.2188,548.6387 Z " fill="#000000"/><text fill="#000000" font-family="sans-serif" font-size="20" font-style="italic" lengthAdjust="spacing" textLength="83" x="809.5" y="524.7813">«entity»</text><text fill="#000000" font-family="sans-serif" font-size="20" font-style="italic" lengthAdjust="spacing" textLength="64" x="819" y="548.0625">«root»</text><text fill="#000000" font-family="sans-serif" font-size="20" lengthAdjust="spacing" textLength="56" x="823" y="571.3438">Exam</text><line style="stroke:#181818;stroke-width:0.5;" x1="781.5" x2="892.5" y1="581.0605" y2="581.0605"/><text fill="#000000" font-family="sans-serif" font-size="20" lengthAdjust="spacing" textLength="52" x="786.5" y="603.625">-date</text></g><!--class Section--><g id="elem_Section"><rect codeLine="82" fill="#F5F5DC" height="56.5625" id="Section" rx="2.5" ry="2.5" style="stroke:#181818;stroke-width:0.5;" width="113" x="448.5" y="736.7168"/><ellipse cx="464.5" cy="764.998" fill="#ADD1B2" rx="12" ry="12" style="stroke:#181818;stroke-width:1.0;"/><path d="M469.2188,772.498 L460.1406,772.498 L460.1406,757.9199 L469.2188,757.9199 L469.2188,760.4512 L463.0156,760.4512 L463.0156,763.6074 L468.6406,763.6074 L468.6406,766.1387 L463.0156,766.1387 L463.0156,769.9512 L469.2188,769.9512 L469.2188,772.498 Z " fill="#000000"/><text fill="#000000" font-family="sans-serif" font-size="20" font-style="italic" lengthAdjust="spacing" textLength="83" x="477.5" y="760.2813">«entity»</text><text fill="#000000" font-family="sans-serif" font-size="20" lengthAdjust="spacing" textLength="75" x="481.5" y="783.5625">Section</text></g><!--class Description--><g id="elem_Description"><rect codeLine="89" fill="#F5F5DC" height="56.5625" id="Description" rx="2.5" ry="2.5" style="stroke:#181818;stroke-width:0.5;" width="177" x="596.5" y="736.7168"/><ellipse cx="612.5" cy="764.998" fill="#FF8B40" rx="12" ry="12" style="stroke:#181818;stroke-width:1.0;"/><path d="M612.5156,770.8418 L615.0781,758.6699 L617.9844,758.6699 L614.5156,773.248 L610.5313,773.248 L607.0625,758.6699 L609.9531,758.6699 L612.5156,770.8418 Z " fill="#000000"/><text fill="#000000" font-family="sans-serif" font-size="20" font-style="italic" lengthAdjust="spacing" textLength="147" x="625.5" y="760.2813">«value object»</text><text fill="#000000" font-family="sans-serif" font-size="20" lengthAdjust="spacing" textLength="114" x="642" y="783.5625">Description</text></g><!--class SectionQuestion--><g id="elem_SectionQuestion"><rect codeLine="51" fill="#F5F5DC" height="56.5625" id="SectionQuestion" rx="2.5" ry="2.5" style="stroke:#181818;stroke-width:0.5;" width="199" x="22.5" y="907.7168"/><ellipse cx="38.5" cy="935.998" fill="#ADD1B2" rx="12" ry="12" style="stroke:#181818;stroke-width:1.0;"/><path d="M43.2188,943.498 L34.1406,943.498 L34.1406,928.9199 L43.2188,928.9199 L43.2188,931.4512 L37.0156,931.4512 L37.0156,934.6074 L42.6406,934.6074 L42.6406,937.1387 L37.0156,937.1387 L37.0156,940.9512 L43.2188,940.9512 L43.2188,943.498 Z " fill="#000000"/><text fill="#000000" font-family="sans-serif" font-size="20" font-style="italic" lengthAdjust="spacing" textLength="83" x="94.5" y="931.2813">«entity»</text><text fill="#000000" font-family="sans-serif" font-size="20" lengthAdjust="spacing" textLength="165" x="53.5" y="954.5625">SectionQuestion</text></g><!--class Score--><g id="elem_Score"><rect codeLine="91" fill="#F5F5DC" height="56.5625" id="Score" rx="2.5" ry="2.5" style="stroke:#181818;stroke-width:0.5;" width="177" x="293.5" y="907.7168"/><ellipse cx="309.5" cy="935.998" fill="#FF8B40" rx="12" ry="12" style="stroke:#181818;stroke-width:1.0;"/><path d="M309.5156,941.8418 L312.0781,929.6699 L314.9844,929.6699 L311.5156,944.248 L307.5313,944.248 L304.0625,929.6699 L306.9531,929.6699 L309.5156,941.8418 Z " fill="#000000"/><text fill="#000000" font-family="sans-serif" font-size="20" font-style="italic" lengthAdjust="spacing" textLength="147" x="322.5" y="931.2813">«value object»</text><text fill="#000000" font-family="sans-serif" font-size="20" lengthAdjust="spacing" textLength="56" x="368" y="954.5625">Score</text></g><!--class State--><g id="elem_State"><rect codeLine="85" fill="#F5F5DC" height="56.5625" id="State" rx="2.5" ry="2.5" style="stroke:#181818;stroke-width:0.5;" width="177" x="717.5" y="907.7168"/><ellipse cx="733.5" cy="935.998" fill="#FF8B40" rx="12" ry="12" style="stroke:#181818;stroke-width:1.0;"/><path d="M733.5156,941.8418 L736.0781,929.6699 L738.9844,929.6699 L735.5156,944.248 L731.5313,944.248 L728.0625,929.6699 L730.9531,929.6699 L733.5156,941.8418 Z " fill="#000000"/><text fill="#000000" font-family="sans-serif" font-size="20" font-style="italic" lengthAdjust="spacing" textLength="147" x="746.5" y="931.2813">«value object»</text><text fill="#000000" font-family="sans-serif" font-size="20" lengthAdjust="spacing" textLength="53" x="793.5" y="954.5625">State</text></g><!--class SectionName--><g id="elem_SectionName"><rect codeLine="84" fill="#F5F5DC" height="56.5625" id="SectionName" rx="2.5" ry="2.5" style="stroke:#181818;stroke-width:0.5;" width="177" x="505.5" y="907.7168"/><ellipse cx="521.5" cy="935.998" fill="#FF8B40" rx="12" ry="12" style="stroke:#181818;stroke-width:1.0;"/><path d="M521.5156,941.8418 L524.0781,929.6699 L526.9844,929.6699 L523.5156,944.248 L519.5313,944.248 L516.0625,929.6699 L518.9531,929.6699 L521.5156,941.8418 Z " fill="#000000"/><text fill="#000000" font-family="sans-serif" font-size="20" font-style="italic" lengthAdjust="spacing" textLength="147" x="534.5" y="931.2813">«value object»</text><text fill="#000000" font-family="sans-serif" font-size="20" lengthAdjust="spacing" textLength="134" x="541" y="954.5625">SectionName</text></g><!--class FormativeExam--><g id="elem_FormativeExam"><rect codeLine="29" fill="#F5F5DC" height="79.8438" id="FormativeExam" rx="2.5" ry="2.5" style="stroke:#181818;stroke-width:0.5;" width="191" x="950.5" y="725.2168"/><ellipse cx="966.5" cy="765.1387" fill="#ADD1B2" rx="12" ry="12" style="stroke:#181818;stroke-width:1.0;"/><path d="M971.2188,772.6387 L962.1406,772.6387 L962.1406,758.0605 L971.2188,758.0605 L971.2188,760.5918 L965.0156,760.5918 L965.0156,763.748 L970.6406,763.748 L970.6406,766.2793 L965.0156,766.2793 L965.0156,770.0918 L971.2188,770.0918 L971.2188,772.6387 Z " fill="#000000"/><text fill="#000000" font-family="sans-serif" font-size="20" font-style="italic" lengthAdjust="spacing" textLength="83" x="1018.5" y="748.7813">«entity»</text><text fill="#000000" font-family="sans-serif" font-size="20" font-style="italic" lengthAdjust="spacing" textLength="64" x="1028" y="772.0625">«root»</text><text fill="#000000" font-family="sans-serif" font-size="20" lengthAdjust="spacing" textLength="157" x="981.5" y="795.3438">FormativeExam</text></g><!--class EvaluationExam--><g id="elem_EvaluationExam"><rect codeLine="40" fill="#F5F5DC" height="79.8438" id="EvaluationExam" rx="2.5" ry="2.5" style="stroke:#181818;stroke-width:0.5;" width="196" x="1743" y="516.7168"/><ellipse cx="1759" cy="556.6387" fill="#ADD1B2" rx="12" ry="12" style="stroke:#181818;stroke-width:1.0;"/><path d="M1763.7188,564.1387 L1754.6406,564.1387 L1754.6406,549.5605 L1763.7188,549.5605 L1763.7188,552.0918 L1757.5156,552.0918 L1757.5156,555.248 L1763.1406,555.248 L1763.1406,557.7793 L1757.5156,557.7793 L1757.5156,561.5918 L1763.7188,561.5918 L1763.7188,564.1387 Z " fill="#000000"/><text fill="#000000" font-family="sans-serif" font-size="20" font-style="italic" lengthAdjust="spacing" textLength="83" x="1813.5" y="540.2813">«entity»</text><text fill="#000000" font-family="sans-serif" font-size="20" font-style="italic" lengthAdjust="spacing" textLength="64" x="1823" y="563.5625">«root»</text><text fill="#000000" font-family="sans-serif" font-size="20" lengthAdjust="spacing" textLength="162" x="1774" y="586.8438">EvaluationExam</text></g><!--class Time--><g id="elem_Time"><rect codeLine="90" fill="#F5F5DC" height="56.5625" id="Time" rx="2.5" ry="2.5" style="stroke:#181818;stroke-width:0.5;" width="177" x="1696.5" y="736.7168"/><ellipse cx="1712.5" cy="764.998" fill="#FF8B40" rx="12" ry="12" style="stroke:#181818;stroke-width:1.0;"/><path d="M1712.5156,770.8418 L1715.0781,758.6699 L1717.9844,758.6699 L1714.5156,773.248 L1710.5313,773.248 L1707.0625,758.6699 L1709.9531,758.6699 L1712.5156,770.8418 Z " fill="#000000"/><text fill="#000000" font-family="sans-serif" font-size="20" font-style="italic" lengthAdjust="spacing" textLength="147" x="1725.5" y="760.2813">«value object»</text><text fill="#000000" font-family="sans-serif" font-size="20" lengthAdjust="spacing" textLength="50" x="1774" y="783.5625">Time</text></g><!--class FeedbackType--><g id="elem_FeedbackType"><rect codeLine="87" fill="#F5F5DC" height="56.5625" id="FeedbackType" rx="2.5" ry="2.5" style="stroke:#181818;stroke-width:0.5;" width="179" x="1666.5" y="907.7168"/><ellipse cx="1682.5" cy="935.998" fill="#FF8B40" rx="12" ry="12" style="stroke:#181818;stroke-width:1.0;"/><path d="M1682.5156,941.8418 L1685.0781,929.6699 L1687.9844,929.6699 L1684.5156,944.248 L1680.5313,944.248 L1677.0625,929.6699 L1679.9531,929.6699 L1682.5156,941.8418 Z " fill="#000000"/><text fill="#000000" font-family="sans-serif" font-size="20" font-style="italic" lengthAdjust="spacing" textLength="147" x="1696.5" y="931.2813">«value object»</text><text fill="#000000" font-family="sans-serif" font-size="20" lengthAdjust="spacing" textLength="145" x="1697.5" y="954.5625">FeedbackType</text></g><!--class GradeType--><g id="elem_GradeType"><rect codeLine="88" fill="#F5F5DC" height="56.5625" id="GradeType" rx="2.5" ry="2.5" style="stroke:#181818;stroke-width:0.5;" width="177" x="1880.5" y="907.7168"/><ellipse cx="1896.5" cy="935.998" fill="#FF8B40" rx="12" ry="12" style="stroke:#181818;stroke-width:1.0;"/><path d="M1896.5156,941.8418 L1899.0781,929.6699 L1901.9844,929.6699 L1898.5156,944.248 L1894.5313,944.248 L1891.0625,929.6699 L1893.9531,929.6699 L1896.5156,941.8418 Z " fill="#000000"/><text fill="#000000" font-family="sans-serif" font-size="20" font-style="italic" lengthAdjust="spacing" textLength="147" x="1909.5" y="931.2813">«value object»</text><text fill="#000000" font-family="sans-serif" font-size="20" lengthAdjust="spacing" textLength="109" x="1928.5" y="954.5625">GradeType</text></g><!--class Question--><g id="elem_Question"><rect codeLine="93" fill="#F5F5DC" height="79.8438" id="Question" rx="2.5" ry="2.5" style="stroke:#181818;stroke-width:0.5;" width="124" x="60" y="1091.2168"/><ellipse cx="76" cy="1131.1387" fill="#ADD1B2" rx="12" ry="12" style="stroke:#181818;stroke-width:1.0;"/><path d="M80.7188,1138.6387 L71.6406,1138.6387 L71.6406,1124.0605 L80.7188,1124.0605 L80.7188,1126.5918 L74.5156,1126.5918 L74.5156,1129.748 L80.1406,1129.748 L80.1406,1132.2793 L74.5156,1132.2793 L74.5156,1136.0918 L80.7188,1136.0918 L80.7188,1138.6387 Z " fill="#000000"/><text fill="#000000" font-family="sans-serif" font-size="20" font-style="italic" lengthAdjust="spacing" textLength="83" x="94.5" y="1114.7813">«entity»</text><text fill="#000000" font-family="sans-serif" font-size="20" font-style="italic" lengthAdjust="spacing" textLength="64" x="104" y="1138.0625">«root»</text><text fill="#000000" font-family="sans-serif" font-size="20" lengthAdjust="spacing" textLength="90" x="91" y="1161.3438">Question</text></g><!--class Student--><g id="elem_Student"><rect codeLine="54" fill="#F5F5DC" height="79.8438" id="Student" rx="2.5" ry="2.5" style="stroke:#181818;stroke-width:0.5;" width="114" x="780" y="49.2168"/><ellipse cx="796" cy="89.1387" fill="#ADD1B2" rx="12" ry="12" style="stroke:#181818;stroke-width:1.0;"/><path d="M800.7188,96.6387 L791.6406,96.6387 L791.6406,82.0605 L800.7188,82.0605 L800.7188,84.5918 L794.5156,84.5918 L794.5156,87.748 L800.1406,87.748 L800.1406,90.2793 L794.5156,90.2793 L794.5156,94.0918 L800.7188,94.0918 L800.7188,96.6387 Z " fill="#000000"/><text fill="#000000" font-family="sans-serif" font-size="20" font-style="italic" lengthAdjust="spacing" textLength="83" x="809.5" y="72.7813">«entity»</text><text fill="#000000" font-family="sans-serif" font-size="20" font-style="italic" lengthAdjust="spacing" textLength="64" x="819" y="96.0625">«root»</text><text fill="#000000" font-family="sans-serif" font-size="20" lengthAdjust="spacing" textLength="80" x="811" y="119.3438">Student</text></g><!--class Course--><g id="elem_Course"><rect codeLine="61" fill="#F5F5DC" height="79.8438" id="Course" rx="2.5" ry="2.5" style="stroke:#181818;stroke-width:0.5;" width="113" x="1213.5" y="896.2168"/><ellipse cx="1229.5" cy="936.1387" fill="#ADD1B2" rx="12" ry="12" style="stroke:#181818;stroke-width:1.0;"/><path d="M1234.2188,943.6387 L1225.1406,943.6387 L1225.1406,929.0605 L1234.2188,929.0605 L1234.2188,931.5918 L1228.0156,931.5918 L1228.0156,934.748 L1233.6406,934.748 L1233.6406,937.2793 L1228.0156,937.2793 L1228.0156,941.0918 L1234.2188,941.0918 L1234.2188,943.6387 Z " fill="#000000"/><text fill="#000000" font-family="sans-serif" font-size="20" font-style="italic" lengthAdjust="spacing" textLength="83" x="1242.5" y="919.7813">«entity»</text><text fill="#000000" font-family="sans-serif" font-size="20" font-style="italic" lengthAdjust="spacing" textLength="64" x="1252" y="943.0625">«root»</text><text fill="#000000" font-family="sans-serif" font-size="20" lengthAdjust="spacing" textLength="69" x="1249.5" y="966.3438">Course</text></g><!--class ExamAnswer--><g id="elem_ExamAnswer"><rect codeLine="68" fill="#F5F5DC" height="79.8438" id="ExamAnswer" rx="2.5" ry="2.5" style="stroke:#181818;stroke-width:0.5;" width="164" x="755" y="244.2168"/><ellipse cx="771" cy="284.1387" fill="#ADD1B2" rx="12" ry="12" style="stroke:#181818;stroke-width:1.0;"/><path d="M775.7188,291.6387 L766.6406,291.6387 L766.6406,277.0605 L775.7188,277.0605 L775.7188,279.5918 L769.5156,279.5918 L769.5156,282.748 L775.1406,282.748 L775.1406,285.2793 L769.5156,285.2793 L769.5156,289.0918 L775.7188,289.0918 L775.7188,291.6387 Z " fill="#000000"/><text fill="#000000" font-family="sans-serif" font-size="20" font-style="italic" lengthAdjust="spacing" textLength="83" x="809.5" y="267.7813">«entity»</text><text fill="#000000" font-family="sans-serif" font-size="20" font-style="italic" lengthAdjust="spacing" textLength="64" x="819" y="291.0625">«root»</text><text fill="#000000" font-family="sans-serif" font-size="20" lengthAdjust="spacing" textLength="130" x="786" y="314.3438">ExamAnswer</text></g><!--class Teacher--><g id="elem_Teacher"><rect codeLine="75" fill="#F5F5DC" height="79.8438" id="Teacher" rx="2.5" ry="2.5" style="stroke:#181818;stroke-width:0.5;" width="114" x="1415" y="896.2168"/><ellipse cx="1431" cy="936.1387" fill="#ADD1B2" rx="12" ry="12" style="stroke:#181818;stroke-width:1.0;"/><path d="M1435.7188,943.6387 L1426.6406,943.6387 L1426.6406,929.0605 L1435.7188,929.0605 L1435.7188,931.5918 L1429.5156,931.5918 L1429.5156,934.748 L1435.1406,934.748 L1435.1406,937.2793 L1429.5156,937.2793 L1429.5156,941.0918 L1435.7188,941.0918 L1435.7188,943.6387 Z " fill="#000000"/><text fill="#000000" font-family="sans-serif" font-size="20" font-style="italic" lengthAdjust="spacing" textLength="83" x="1444.5" y="919.7813">«entity»</text><text fill="#000000" font-family="sans-serif" font-size="20" font-style="italic" lengthAdjust="spacing" textLength="64" x="1454" y="943.0625">«root»</text><text fill="#000000" font-family="sans-serif" font-size="20" lengthAdjust="spacing" textLength="80" x="1446" y="966.3438">Teacher</text></g><g id="elem_GMN32"><path d="M738.5,1102.7168 L738.5,1159.2793 A0,0 0 0 0 738.5,1159.2793 L873.5,1159.2793 A0,0 0 0 0 873.5,1159.2793 L873.5,1112.7168 L863.5,1102.7168 L810,1102.7168 L806,964.8668 L802,1102.7168 L738.5,1102.7168 A0,0 0 0 0 738.5,1102.7168 " fill="#FEFFDD" style="stroke:#181818;stroke-width:0.5;"/><path d="M863.5,1102.7168 L863.5,1112.7168 L873.5,1112.7168 L863.5,1102.7168 " fill="#FEFFDD" style="stroke:#181818;stroke-width:0.5;"/><text fill="#000000" font-family="sans-serif" font-size="20" lengthAdjust="spacing" textLength="67" x="744.5" y="1126.2813">DRAFT</text><text fill="#000000" font-family="sans-serif" font-size="20" lengthAdjust="spacing" textLength="114" x="744.5" y="1149.5625">PUBLISHED</text></g><g id="elem_GMN41"><path d="M1657.5,1091.2168 L1657.5,1171.0605 A0,0 0 0 0 1657.5,1171.0605 L1844.5,1171.0605 A0,0 0 0 0 1844.5,1171.0605 L1844.5,1101.2168 L1834.5,1091.2168 L1756.02,1091.2168 L1755.28,964.8668 L1748.02,1091.2168 L1657.5,1091.2168 A0,0 0 0 0 1657.5,1091.2168 " fill="#FEFFDD" style="stroke:#181818;stroke-width:0.5;"/><path d="M1834.5,1091.2168 L1834.5,1101.2168 L1844.5,1101.2168 L1834.5,1091.2168 " fill="#FEFFDD" style="stroke:#181818;stroke-width:0.5;"/><text fill="#000000" font-family="sans-serif" font-size="20" lengthAdjust="spacing" textLength="59" x="1663.5" y="1114.7813">NONE</text><text fill="#000000" font-family="sans-serif" font-size="20" lengthAdjust="spacing" textLength="155" x="1663.5" y="1138.0625">ON_SUBMITION</text><text fill="#000000" font-family="sans-serif" font-size="20" lengthAdjust="spacing" textLength="166" x="1663.5" y="1161.3438">AFTER_CLOSING</text></g><g id="elem_GMN44"><path d="M1879.5,1091.2168 L1879.5,1171.0605 A0,0 0 0 0 1879.5,1171.0605 L2066.5,1171.0605 A0,0 0 0 0 2066.5,1171.0605 L2066.5,1101.2168 L2056.5,1091.2168 L1976.19,1091.2168 L1969.57,964.8668 L1968.19,1091.2168 L1879.5,1091.2168 A0,0 0 0 0 1879.5,1091.2168 " fill="#FEFFDD" style="stroke:#181818;stroke-width:0.5;"/><path d="M2056.5,1091.2168 L2056.5,1101.2168 L2066.5,1101.2168 L2056.5,1091.2168 " fill="#FEFFDD" style="stroke:#181818;stroke-width:0.5;"/><text fill="#000000" font-family="sans-serif" font-size="20" lengthAdjust="spacing" textLength="59" x="1885.5" y="1114.7813">NONE</text><text fill="#000000" font-family="sans-serif" font-size="20" lengthAdjust="spacing" textLength="155" x="1885.5" y="1138.0625">ON_SUBMITION</text><text fill="#000000" font-family="sans-serif" font-size="20" lengthAdjust="spacing" textLength="166" x="1885.5" y="1161.3438">AFTER_CLOSING</text></g><!--reverse link Exam to EvaluationExam--><g id="link_Exam_EvaluationExam"><path codeLine="95" d="M914.18,556.7168 C1190.44,556.7168 1466.7,556.7168 1742.96,556.7168 " fill="none" id="Exam-backto-EvaluationExam" style="stroke:#222222;stroke-width:1.0;"/><polygon fill="none" points="913.87,563.7168,893.87,556.7168,913.87,549.7168,913.87,563.7168" style="stroke:#222222;stroke-width:1.0;"/></g><!--reverse link Exam to FormativeExam--><g id="link_Exam_FormativeExam"><path codeLine="96" d="M906.53,626.4168 C939.74,659.2268 978.27,697.2968 1006.41,725.1068 " fill="none" id="Exam-backto-FormativeExam" style="stroke:#222222;stroke-width:1.0;"/><polygon fill="none" points="901.49,631.2768,892.19,612.2468,911.33,621.3168,901.49,631.2768" style="stroke:#222222;stroke-width:1.0;"/></g><!--link EvaluationExam to Time--><g id="link_EvaluationExam_Time"><path codeLine="98" d="M1743.34,596.7768 C1725.21,608.6068 1708.65,623.5568 1698,642.2168 C1679.37,674.8668 1709.49,709.5368 1739.27,733.5368 " fill="none" id="EvaluationExam-to-Time" style="stroke:#222222;stroke-width:1.0;"/><polygon fill="#222222" points="1743.27,736.6968,1738.698,727.9734,1739.3504,733.5925,1733.7312,734.2449,1743.27,736.6968" style="stroke:#222222;stroke-width:1.0;"/><text fill="#000000" font-family="sans-serif" font-size="20" lengthAdjust="spacing" textLength="98" x="1699" y="661.7813">start time</text><text fill="#000000" font-family="sans-serif" font-size="20" lengthAdjust="spacing" textLength="38" x="1692.7444" y="724.0812">0..1</text></g><!--link EvaluationExam to Time--><g id="link_EvaluationExam_Time"><path codeLine="99" d="M1830.34,597.0468 C1819.78,635.9668 1803.8,694.8768 1793.91,731.3768 " fill="none" id="EvaluationExam-to-Time-1" style="stroke:#222222;stroke-width:1.0;"/><polygon fill="#222222" points="1792.49,736.5968,1798.7133,728.9633,1793.8032,731.7723,1790.9941,726.8622,1792.49,736.5968" style="stroke:#222222;stroke-width:1.0;"/><text fill="#000000" font-family="sans-serif" font-size="20" lengthAdjust="spacing" textLength="90" x="1819" y="661.7813">end time</text><text fill="#000000" font-family="sans-serif" font-size="20" lengthAdjust="spacing" textLength="38" x="1752.1161" y="723.9606">0..1</text></g><!--link Exam to State--><g id="link_Exam_State"><path codeLine="101" d="M832.49,612.6068 C825.96,692.1668 814.06,837.0968 808.72,902.1068 " fill="none" id="Exam-to-State" style="stroke:#222222;stroke-width:1.0;"/><polygon fill="#222222" points="808.28,907.3968,812.9869,898.7455,808.6799,902.4128,805.0126,898.1057,808.28,907.3968" style="stroke:#222222;stroke-width:1.0;"/><text fill="#000000" font-family="sans-serif" font-size="20" lengthAdjust="spacing" textLength="41" x="828" y="772.2813">is in</text><text fill="#000000" font-family="sans-serif" font-size="20" lengthAdjust="spacing" textLength="13" x="794.4492" y="895.094">1</text></g><!--reverse link Exam to Section--><g id="link_Exam_Section"><path codeLine="108" d="M768.09,579.4868 C713.32,598.9568 636.61,631.2168 579,675.2168 C556.64,692.2968 536.61,717.3068 523.04,736.4768 " fill="none" id="Exam-backto-Section" style="stroke:#222222;stroke-width:1.0;"/><polygon fill="#222222" points="780.47,575.1668,773.4867,573.3688,769.141,579.1234,776.1244,580.9214,780.47,575.1668" style="stroke:#222222;stroke-width:1.0;"/><text fill="#000000" font-family="sans-serif" font-size="20" lengthAdjust="spacing" textLength="35" x="488.1514" y="723.8159">1..*</text></g><!--link Exam to Course--><g id="link_Exam_Course"><path codeLine="109" d="M893.74,564.6668 C964.08,576.0668 1083.73,604.9768 1158,675.2168 C1220.4,734.2168 1249.79,833.7968 1262.17,891.0768 " fill="none" id="Exam-to-Course" style="stroke:#222222;stroke-width:1.0;"/><polygon fill="#222222" points="1263.24,896.1468,1265.3058,886.517,1262.2128,891.2534,1257.4764,888.1605,1263.24,896.1468" style="stroke:#222222;stroke-width:1.0;"/><text fill="#000000" font-family="sans-serif" font-size="20" lengthAdjust="spacing" textLength="69" x="1245" y="772.2813">is from</text><text fill="#000000" font-family="sans-serif" font-size="20" lengthAdjust="spacing" textLength="13" x="1248.1267" y="883.5271">1</text></g><!--link Exam to Teacher--><g id="link_Exam_Teacher"><path codeLine="110" d="M893.64,557.4368 C991.02,559.7668 1192.3,577.1268 1323,675.2168 C1396.26,730.1968 1439.22,832.5168 1458.91,891.0668 " fill="none" id="Exam-to-Teacher" style="stroke:#222222;stroke-width:1.0;"/><polygon fill="#222222" points="1460.52,895.8968,1461.4864,886.0955,1458.9474,891.1505,1453.8924,888.6116,1460.52,895.8968" style="stroke:#222222;stroke-width:1.0;"/><text fill="#000000" font-family="sans-serif" font-size="20" lengthAdjust="spacing" textLength="128" x="1435" y="772.2813">is created by</text><text fill="#000000" font-family="sans-serif" font-size="20" lengthAdjust="spacing" textLength="13" x="1444.7668" y="883.5598">1</text></g><!--reverse link EvaluationExam to FeedbackType--><g id="link_EvaluationExam_FeedbackType"><path codeLine="112" d="M1896.33,606.6868 C1905.19,617.4368 1913.06,629.4568 1918,642.2168 C1937.78,693.2868 1983.11,693.1768 1891,829.2168 C1882.84,841.2768 1874.85,837.7568 1863,846.2168 C1836.25,865.3068 1807.72,889.2268 1786.86,907.4668 " fill="none" id="EvaluationExam-backto-FeedbackType" style="stroke:#222222;stroke-width:1.0;"/><polygon fill="#222222" points="1887.6,596.7868,1888.5718,603.9321,1895.5412,605.7833,1894.5694,598.638,1887.6,596.7868" style="stroke:#222222;stroke-width:1.0;"/><text fill="#000000" font-family="sans-serif" font-size="20" lengthAdjust="spacing" textLength="13" x="1778.8842" y="894.8038">1</text></g><!--reverse link EvaluationExam to GradeType--><g id="link_EvaluationExam_GradeType"><path codeLine="113" d="M1905.67,605.8868 C1916.36,616.6968 1926.17,628.9368 1933,642.2168 C1978.48,730.6368 1975.7,853.3068 1971.69,907.5368 " fill="none" id="EvaluationExam-backto-GradeType" style="stroke:#222222;stroke-width:1.0;"/><polygon fill="#222222" points="1896.1,596.7668,1897.6841,603.8018,1904.7871,605.0453,1903.2031,598.0103,1896.1,596.7668" style="stroke:#222222;stroke-width:1.0;"/><text fill="#000000" font-family="sans-serif" font-size="20" lengthAdjust="spacing" textLength="13" x="1957.9042" y="894.8882">1</text></g><!--reverse link Exam to Description--><g id="link_Exam_Description"><path codeLine="114" d="M789.08,622.8268 C760.85,661.1768 726.6,707.6968 705.3,736.6368 " fill="none" id="Exam-backto-Description" style="stroke:#222222;stroke-width:1.0;"/><polygon fill="#222222" points="796.86,612.2468,790.083,614.711,789.7511,621.9144,796.5281,619.4503,796.86,612.2468" style="stroke:#222222;stroke-width:1.0;"/><text fill="#000000" font-family="sans-serif" font-size="20" lengthAdjust="spacing" textLength="13" x="695.1462" y="724.0089">1</text></g><!--reverse link Section to SectionQuestion--><g id="link_Section_SectionQuestion"><path codeLine="128" d="M435.73,786.6668 C389.61,801.1868 328.13,822.3068 276,846.2168 C236.99,864.1168 194.94,888.8168 164.65,907.6568 " fill="none" id="Section-backto-SectionQuestion" style="stroke:#222222;stroke-width:1.0;"/><polygon fill="#222222" points="448.32,782.7468,441.4012,780.7144,436.8641,786.3193,443.7829,788.3517,448.32,782.7468" style="stroke:#222222;stroke-width:1.0;"/><text fill="#000000" font-family="sans-serif" font-size="20" lengthAdjust="spacing" textLength="35" x="134.8372" y="895.033">1..*</text></g><!--link SectionQuestion to Question--><g id="link_SectionQuestion_Question"><path codeLine="129" d="M122,964.8668 C122,996.3568 122,1048.2668 122,1085.5268 " fill="none" id="SectionQuestion-to-Question" style="stroke:#222222;stroke-width:1.0;"/><polygon fill="#222222" points="122,1090.9068,126,1081.9068,122,1085.9068,118,1081.9068,122,1090.9068" style="stroke:#222222;stroke-width:1.0;"/><text fill="#000000" font-family="sans-serif" font-size="20" lengthAdjust="spacing" textLength="148" x="123" y="1027.7813">corresponds to</text><text fill="#000000" font-family="sans-serif" font-size="20" lengthAdjust="spacing" textLength="13" x="108.0047" y="1078.5713">1</text></g><!--link SectionQuestion to Score--><g id="link_SectionQuestion_Score"><path codeLine="130" d="M221.78,936.2168 C243.52,936.2168 266.46,936.2168 287.97,936.2168 " fill="none" id="SectionQuestion-to-Score" style="stroke:#222222;stroke-width:1.0;"/><polygon fill="#222222" points="293.11,936.2168,284.11,932.2168,288.11,936.2168,284.11,940.2168,293.11,936.2168" style="stroke:#222222;stroke-width:1.0;"/><text fill="#000000" font-family="sans-serif" font-size="20" lengthAdjust="spacing" textLength="35" x="240" y="927.7813">has</text><text fill="#000000" font-family="sans-serif" font-size="20" lengthAdjust="spacing" textLength="13" x="272.5086" y="930.8935">1</text></g><!--reverse link Section to SectionName--><g id="link_Section_SectionName"><path codeLine="132" d="M525.71,805.5368 C542.21,836.8768 564.9,879.9568 579.51,907.6968 " fill="none" id="Section-backto-SectionName" style="stroke:#222222;stroke-width:1.0;"/><polygon fill="#222222" points="519.5,793.7468,518.757,800.9195,525.0922,804.3641,525.8352,797.1914,519.5,793.7468" style="stroke:#222222;stroke-width:1.0;"/></g><!--link Student to ExamAnswer--><g id="link_Student_ExamAnswer"><path codeLine="134" d="M837,129.2768 C837,160.9568 837,205.6168 837,238.6868 " fill="none" id="Student-to-ExamAnswer" style="stroke:#222222;stroke-width:1.0;"/><polygon fill="#222222" points="837,243.8868,841,234.8868,837,238.8868,833,234.8868,837,243.8868" style="stroke:#222222;stroke-width:1.0;"/><text fill="#000000" font-family="sans-serif" font-size="20" lengthAdjust="spacing" textLength="35" x="838" y="180.7813">has</text><text fill="#000000" font-family="sans-serif" font-size="20" lengthAdjust="spacing" textLength="35" x="799.3203" y="231.5483">0..*</text></g><!--link ExamAnswer to Exam--><g id="link_ExamAnswer_Exam"><path codeLine="136" d="M837,324.2568 C837,369.0968 837,443.1868 837,495.4468 " fill="none" id="ExamAnswer-to-Exam" style="stroke:#222222;stroke-width:1.0;"/><polygon fill="#222222" points="837,500.7568,841,491.7568,837,495.7568,833,491.7568,837,500.7568" style="stroke:#222222;stroke-width:1.0;"/><text fill="#000000" font-family="sans-serif" font-size="20" lengthAdjust="spacing" textLength="49" x="838" y="406.7813">is for</text><text fill="#000000" font-family="sans-serif" font-size="20" lengthAdjust="spacing" textLength="13" x="823.2484" y="488.5302">1</text></g><!--SRC=[bLLRRzem57xthpXA7xPL2z1g3nD2bQ10XzJ1rj2zLYO-3LwJEBATTbst_pxdYfEK5NW9_ivtBZutgmSU9rJIA1J-0p9WU4_JKCz5h3t-6-5yGDvjjKxKiDzFGXhhD0fxleZwVaYLSXcdWL4cH5Ls81UCjPPyasfS-2BE3Gt8bZC4Z1Bz3BGIAnkDK6y5KsrR4-e_15AaCRiKeP2mGHwWHHfBAPuAqSbv_YCaCJeqG7168ne44WEgyU82PhzevC0B8G0OQsvyPeXrzD3NNCGPalk6AIfVygG2cxJlAQfSKh4zNqZSANlQkBMEXTQIHaZ-xernBcH4DN_4AjZQQqEIMNWDXz6eW8sfqKWAeSsVb__ucptICALPO1s7JT7k8cjkRb0TveXiOqoldvCTU2KfmnpPXTcqTc2STPXLhXi1rWNOVprFfyom6sebPiNMAgWTt8jDAnIFpl6bIAN2HWm5PDakWEFBPt8vZjKJocRfQjYkG0qUxMQDrD-sV9IOvQ14zbkt0jb30d21PMFJAKwZA4RQ6If3UF_Zuyby_ddoQV01idP349kVXb6eM5Fv9fTqk_j0-tNl7yYtLio16jdy7NhPR2EzVTdMFBrU6yCh2lV7RQ-62dTRIugqXjvrBy0Pz7fdJd698IXDfGQTRPGtkHYpWabAGiOmugAYG-0Ak5dJiJ2dZT1QH23kooqCCBqPpzVc- -rsShtmlioc9BENaKjxfoPyvwpNEtNgTw3ffnpHtD6z555BN7L_BlSb6hSCDi-T91W_RgxGM9txIBjLQWNfD1-crerRAtcvMixCPxMyysudNnVhnMffZYOPivkxo-kLjrXUMQbesTgvFzPGDRRTjDPhkxrsgqpMm11C_qfKYOYP0Ysw6cK7v6q-X2rLJSVscqkgzLrrbed8MecbjeNKbSqpNvHTIF8F]--></g></svg>