<?xml version="1.0" encoding="UTF-8" standalone="no"?><svg xmlns="http://www.w3.org/2000/svg" xmlns:xlink="http://www.w3.org/1999/xlink" contentStyleType="text/css" height="735px" preserveAspectRatio="none" style="width:771px;height:735px;background:#FFFFFF;" version="1.1" viewBox="0 0 771 735" width="771px" zoomAndPan="magnify"><defs/><g><!--cluster <<aggregate>> Exam--><g id="cluster_&lt;&lt;aggregate&gt;&gt; Exam"><path d="M497.5,395.2168 L711.5,395.2168 A3.75,3.75 0 0 1 714,397.7168 L721,424.498 L721.5,424.498 A2.5,2.5 0 0 1 724,426.998 L724,530.7168 A2.5,2.5 0 0 1 721.5,533.2168 L497.5,533.2168 A2.5,2.5 0 0 1 495,530.7168 L495,397.7168 A2.5,2.5 0 0 1 497.5,395.2168 " fill="none" style="stroke:#000000;stroke-width:1.5;"/><line style="stroke:#000000;stroke-width:1.5;" x1="495" x2="721" y1="424.498" y2="424.498"/><text fill="#000000" font-family="sans-serif" font-size="20" font-weight="bold" lengthAdjust="spacing" textLength="213" x="499" y="415.7813">«aggregate» Exam</text></g><!--cluster <<aggregate>> Student--><g id="cluster_&lt;&lt;aggregate&gt;&gt; Student"><path d="M218.5,7.2168 L460.5,7.2168 A3.75,3.75 0 0 1 463,9.7168 L470,36.498 L470.5,36.498 A2.5,2.5 0 0 1 473,38.998 L473,142.7168 A2.5,2.5 0 0 1 470.5,145.2168 L218.5,145.2168 A2.5,2.5 0 0 1 216,142.7168 L216,9.7168 A2.5,2.5 0 0 1 218.5,7.2168 " fill="none" style="stroke:#000000;stroke-width:1.5;"/><line style="stroke:#000000;stroke-width:1.5;" x1="216" x2="470" y1="36.498" y2="36.498"/><text fill="#000000" font-family="sans-serif" font-size="20" font-weight="bold" lengthAdjust="spacing" textLength="241" x="220" y="27.7813">«aggregate» Student</text></g><!--cluster <<aggregate>> Question--><g id="cluster_&lt;&lt;aggregate&gt;&gt; Question"><path d="M497.5,590.2168 L751.5,590.2168 A3.75,3.75 0 0 1 754,592.7168 L761,619.498 L761.5,619.498 A2.5,2.5 0 0 1 764,621.998 L764,725.7168 A2.5,2.5 0 0 1 761.5,728.2168 L497.5,728.2168 A2.5,2.5 0 0 1 495,725.7168 L495,592.7168 A2.5,2.5 0 0 1 497.5,590.2168 " fill="none" style="stroke:#000000;stroke-width:1.5;"/><line style="stroke:#000000;stroke-width:1.5;" x1="495" x2="761" y1="619.498" y2="619.498"/><text fill="#000000" font-family="sans-serif" font-size="20" font-weight="bold" lengthAdjust="spacing" textLength="253" x="499" y="610.7813">«aggregate» Question</text></g><!--cluster <<aggregate>> ExamAnswer--><g id="cluster_&lt;&lt;aggregate&gt;&gt; ExamAnswer"><path d="M8.5,202.2168 L305.5,202.2168 A3.75,3.75 0 0 1 308,204.7168 L315,231.498 L468.5,231.498 A2.5,2.5 0 0 1 471,233.998 L471,714.2168 A2.5,2.5 0 0 1 468.5,716.7168 L8.5,716.7168 A2.5,2.5 0 0 1 6,714.2168 L6,204.7168 A2.5,2.5 0 0 1 8.5,202.2168 " fill="none" style="stroke:#000000;stroke-width:1.5;"/><line style="stroke:#000000;stroke-width:1.5;" x1="6" x2="315" y1="231.498" y2="231.498"/><text fill="#000000" font-family="sans-serif" font-size="20" font-weight="bold" lengthAdjust="spacing" textLength="296" x="10" y="222.7813">«aggregate» ExamAnswer</text></g><!--class Exam--><g id="elem_Exam"><rect codeLine="41" fill="#F5F5DC" height="79.8438" id="Exam" rx="2.5" ry="2.5" style="stroke:#181818;stroke-width:0.5;" width="113" x="511.5" y="437.2168"/><ellipse cx="527.5" cy="477.1387" fill="#ADD1B2" rx="12" ry="12" style="stroke:#181818;stroke-width:1.0;"/><path d="M532.2188,484.6387 L523.1406,484.6387 L523.1406,470.0605 L532.2188,470.0605 L532.2188,472.5918 L526.0156,472.5918 L526.0156,475.748 L531.6406,475.748 L531.6406,478.2793 L526.0156,478.2793 L526.0156,482.0918 L532.2188,482.0918 L532.2188,484.6387 Z " fill="#000000"/><text fill="#000000" font-family="sans-serif" font-size="20" font-style="italic" lengthAdjust="spacing" textLength="83" x="540.5" y="460.7813">«entity»</text><text fill="#000000" font-family="sans-serif" font-size="20" font-style="italic" lengthAdjust="spacing" textLength="64" x="550" y="484.0625">«root»</text><text fill="#000000" font-family="sans-serif" font-size="20" lengthAdjust="spacing" textLength="56" x="554" y="507.3438">Exam</text></g><!--class Student--><g id="elem_Student"><rect codeLine="17" fill="#F5F5DC" height="79.8438" id="Student" rx="2.5" ry="2.5" style="stroke:#181818;stroke-width:0.5;" width="114" x="287" y="49.2168"/><ellipse cx="303" cy="89.1387" fill="#ADD1B2" rx="12" ry="12" style="stroke:#181818;stroke-width:1.0;"/><path d="M307.7188,96.6387 L298.6406,96.6387 L298.6406,82.0605 L307.7188,82.0605 L307.7188,84.5918 L301.5156,84.5918 L301.5156,87.748 L307.1406,87.748 L307.1406,90.2793 L301.5156,90.2793 L301.5156,94.0918 L307.7188,94.0918 L307.7188,96.6387 Z " fill="#000000"/><text fill="#000000" font-family="sans-serif" font-size="20" font-style="italic" lengthAdjust="spacing" textLength="83" x="316.5" y="72.7813">«entity»</text><text fill="#000000" font-family="sans-serif" font-size="20" font-style="italic" lengthAdjust="spacing" textLength="64" x="326" y="96.0625">«root»</text><text fill="#000000" font-family="sans-serif" font-size="20" lengthAdjust="spacing" textLength="80" x="318" y="119.3438">Student</text></g><!--class Question--><g id="elem_Question"><rect codeLine="24" fill="#F5F5DC" height="79.8438" id="Question" rx="2.5" ry="2.5" style="stroke:#181818;stroke-width:0.5;" width="124" x="511" y="632.2168"/><ellipse cx="527" cy="672.1387" fill="#ADD1B2" rx="12" ry="12" style="stroke:#181818;stroke-width:1.0;"/><path d="M531.7188,679.6387 L522.6406,679.6387 L522.6406,665.0605 L531.7188,665.0605 L531.7188,667.5918 L525.5156,667.5918 L525.5156,670.748 L531.1406,670.748 L531.1406,673.2793 L525.5156,673.2793 L525.5156,677.0918 L531.7188,677.0918 L531.7188,679.6387 Z " fill="#000000"/><text fill="#000000" font-family="sans-serif" font-size="20" font-style="italic" lengthAdjust="spacing" textLength="83" x="545.5" y="655.7813">«entity»</text><text fill="#000000" font-family="sans-serif" font-size="20" font-style="italic" lengthAdjust="spacing" textLength="64" x="555" y="679.0625">«root»</text><text fill="#000000" font-family="sans-serif" font-size="20" lengthAdjust="spacing" textLength="90" x="542" y="702.3438">Question</text></g><!--class ExamAnswer--><g id="elem_ExamAnswer"><rect codeLine="36" fill="#F5F5DC" height="79.8438" id="ExamAnswer" rx="2.5" ry="2.5" style="stroke:#181818;stroke-width:0.5;" width="164" x="262" y="244.2168"/><ellipse cx="278" cy="284.1387" fill="#ADD1B2" rx="12" ry="12" style="stroke:#181818;stroke-width:1.0;"/><path d="M282.7188,291.6387 L273.6406,291.6387 L273.6406,277.0605 L282.7188,277.0605 L282.7188,279.5918 L276.5156,279.5918 L276.5156,282.748 L282.1406,282.748 L282.1406,285.2793 L276.5156,285.2793 L276.5156,289.0918 L282.7188,289.0918 L282.7188,291.6387 Z " fill="#000000"/><text fill="#000000" font-family="sans-serif" font-size="20" font-style="italic" lengthAdjust="spacing" textLength="83" x="316.5" y="267.7813">«entity»</text><text fill="#000000" font-family="sans-serif" font-size="20" font-style="italic" lengthAdjust="spacing" textLength="64" x="326" y="291.0625">«root»</text><text fill="#000000" font-family="sans-serif" font-size="20" lengthAdjust="spacing" textLength="130" x="293" y="314.3438">ExamAnswer</text></g><!--class Grade--><g id="elem_Grade"><rect codeLine="38" fill="#F5F5DC" height="56.5625" id="Grade" rx="2.5" ry="2.5" style="stroke:#181818;stroke-width:0.5;" width="177" x="21.5" y="448.7168"/><ellipse cx="37.5" cy="476.998" fill="#FF8B40" rx="12" ry="12" style="stroke:#181818;stroke-width:1.0;"/><path d="M37.5156,482.8418 L40.0781,470.6699 L42.9844,470.6699 L39.5156,485.248 L35.5313,485.248 L32.0625,470.6699 L34.9531,470.6699 L37.5156,482.8418 Z " fill="#000000"/><text fill="#000000" font-family="sans-serif" font-size="20" font-style="italic" lengthAdjust="spacing" textLength="147" x="50.5" y="472.2813">«value object»</text><text fill="#000000" font-family="sans-serif" font-size="20" lengthAdjust="spacing" textLength="61" x="93.5" y="495.5625">Grade</text></g><!--class AnswerToQuestion--><g id="elem_AnswerToQuestion"><rect codeLine="42" fill="#F5F5DC" height="56.5625" id="AnswerToQuestion" rx="2.5" ry="2.5" style="stroke:#181818;stroke-width:0.5;" width="222" x="233" y="448.7168"/><ellipse cx="249" cy="476.998" fill="#ADD1B2" rx="12" ry="12" style="stroke:#181818;stroke-width:1.0;"/><path d="M253.7188,484.498 L244.6406,484.498 L244.6406,469.9199 L253.7188,469.9199 L253.7188,472.4512 L247.5156,472.4512 L247.5156,475.6074 L253.1406,475.6074 L253.1406,478.1387 L247.5156,478.1387 L247.5156,481.9512 L253.7188,481.9512 L253.7188,484.498 Z " fill="#000000"/><text fill="#000000" font-family="sans-serif" font-size="20" font-style="italic" lengthAdjust="spacing" textLength="83" x="316.5" y="472.2813">«entity»</text><text fill="#000000" font-family="sans-serif" font-size="20" lengthAdjust="spacing" textLength="188" x="264" y="495.5625">AnswerToQuestion</text></g><!--class Answer--><g id="elem_Answer"><rect codeLine="39" fill="#F5F5DC" height="56.5625" id="Answer" rx="2.5" ry="2.5" style="stroke:#181818;stroke-width:0.5;" width="177" x="255.5" y="643.7168"/><ellipse cx="271.5" cy="671.998" fill="#FF8B40" rx="12" ry="12" style="stroke:#181818;stroke-width:1.0;"/><path d="M271.5156,677.8418 L274.0781,665.6699 L276.9844,665.6699 L273.5156,680.248 L269.5313,680.248 L266.0625,665.6699 L268.9531,665.6699 L271.5156,677.8418 Z " fill="#000000"/><text fill="#000000" font-family="sans-serif" font-size="20" font-style="italic" lengthAdjust="spacing" textLength="147" x="284.5" y="667.2813">«value object»</text><text fill="#000000" font-family="sans-serif" font-size="20" lengthAdjust="spacing" textLength="74" x="321" y="690.5625">Answer</text></g><!--link Student to ExamAnswer--><g id="link_Student_ExamAnswer"><path codeLine="44" d="M344,129.2768 C344,160.9568 344,205.6168 344,238.6868 " fill="none" id="Student-to-ExamAnswer" style="stroke:#222222;stroke-width:1.0;"/><polygon fill="#222222" points="344,243.8868,348,234.8868,344,238.8868,340,234.8868,344,243.8868" style="stroke:#222222;stroke-width:1.0;"/><text fill="#000000" font-family="sans-serif" font-size="20" lengthAdjust="spacing" textLength="35" x="345" y="180.7813">has</text><text fill="#000000" font-family="sans-serif" font-size="20" lengthAdjust="spacing" textLength="35" x="306.3203" y="231.5483">0..*</text></g><!--link ExamAnswer to Exam--><g id="link_ExamAnswer_Exam"><path codeLine="45" d="M394.38,324.4368 C417.95,343.0968 446.22,365.9368 471,387.2168 C488.1,401.9068 506.43,418.4868 522.49,433.3268 " fill="none" id="ExamAnswer-to-Exam" style="stroke:#222222;stroke-width:1.0;"/><polygon fill="#222222" points="526.53,437.0568,522.6255,428.015,522.8543,433.6672,517.2021,433.896,526.53,437.0568" style="stroke:#222222;stroke-width:1.0;"/><text fill="#000000" font-family="sans-serif" font-size="20" lengthAdjust="spacing" textLength="49" x="461" y="373.7813">is for</text><text fill="#000000" font-family="sans-serif" font-size="20" lengthAdjust="spacing" textLength="13" x="505.8848" y="424.4228">1</text></g><!--link ExamAnswer to Grade--><g id="link_ExamAnswer_Grade"><path codeLine="46" d="M294.22,324.3968 C270.43,343.2468 241.62,366.2568 216,387.2168 C192.81,406.1868 167.06,427.7868 146.75,444.9668 " fill="none" id="ExamAnswer-to-Grade" style="stroke:#222222;stroke-width:1.0;"/><polygon fill="#222222" points="142.76,448.3368,152.2189,445.5927,146.5823,445.1135,147.0616,439.477,142.76,448.3368" style="stroke:#222222;stroke-width:1.0;"/><text fill="#000000" font-family="sans-serif" font-size="20" lengthAdjust="spacing" textLength="35" x="255" y="373.7813">has</text><text fill="#000000" font-family="sans-serif" font-size="20" lengthAdjust="spacing" textLength="38" x="107.469" y="436.0222">0..1</text></g><!--link AnswerToQuestion to Question--><g id="link_AnswerToQuestion_Question"><path codeLine="48" d="M378.2,505.7368 C403.9,526.5368 439.88,555.9068 471,582.2168 C488.77,597.2368 508.05,613.9568 525.02,628.8068 " fill="none" id="AnswerToQuestion-to-Question" style="stroke:#222222;stroke-width:1.0;"/><polygon fill="#222222" points="528.83,632.1468,524.6908,623.2099,525.0671,628.8543,519.4228,629.2306,528.83,632.1468" style="stroke:#222222;stroke-width:1.0;"/><text fill="#000000" font-family="sans-serif" font-size="20" lengthAdjust="spacing" textLength="49" x="461" y="568.7813">is for</text><text fill="#000000" font-family="sans-serif" font-size="20" lengthAdjust="spacing" textLength="13" x="507.7545" y="619.5271">1</text></g><!--reverse link AnswerToQuestion to Answer--><g id="link_AnswerToQuestion_Answer"><path codeLine="49" d="M344,519.3268 C344,556.7868 344,611.1068 344,643.6168 " fill="none" id="AnswerToQuestion-backto-Answer" style="stroke:#222222;stroke-width:1.0;"/><polygon fill="#222222" points="344,505.8668,340,511.8668,344,517.8668,348,511.8668,344,505.8668" style="stroke:#222222;stroke-width:1.0;"/><text fill="#000000" font-family="sans-serif" font-size="20" lengthAdjust="spacing" textLength="13" x="329.6594" y="630.9847">1</text></g><!--reverse link ExamAnswer to AnswerToQuestion--><g id="link_ExamAnswer_AnswerToQuestion"><path codeLine="51" d="M344,337.5268 C344,373.4168 344,419.6168 344,448.5868 " fill="none" id="ExamAnswer-backto-AnswerToQuestion" style="stroke:#222222;stroke-width:1.0;"/><polygon fill="#222222" points="344,324.3268,340,330.3268,344,336.3268,348,330.3268,344,324.3268" style="stroke:#222222;stroke-width:1.0;"/><text fill="#000000" font-family="sans-serif" font-size="20" lengthAdjust="spacing" textLength="35" x="305.3906" y="435.9486">1..*</text></g><!--SRC=[bP7HJy8m4CRV-rTSneDA74pYWo4B2HWnFXgCxsKzjigsBcqdAl5_jrif52SQzxHyzxllk-kfDIyhAccHYsID31YkQ9thkIZrWdyWZ29obcbTgV5mMEMqr7MH3n9H39ESAXKoJbFJJ8XoFj0MfbfBlgmrFYIYR8qYad66W4Mbtu6wilBL0dKccFhkDQF9EfMYBjcjo8M49V8KFMWgfTZOKc_KVeHKfeUc244SqpILc5ADamdSlT4YW2q1m59p4za8vFCalz0rC-HHoqvhkeuLY6ChcCOuba9eyxFznVsnHgMvA8_idUZvE-dV0Srsqr9jK7QMjZ8nOll6S2yfGt9WRFr9xCTnuAxnCDt1xUVv3Eb5cCBvysLlFh-PNKSNy4hp6a4iNp3PmNxAdx0_mwdq4mlvUEFaZXY64mYYmQ0VU8kD8QEAU49BNGKsU0nSmKh83c1i36FtjXQaCuPpsWjxjmxQ3yCMTRVpucofcRfxkIy0]--></g></svg>