<?xml version="1.0" encoding="UTF-8" standalone="no"?><svg xmlns="http://www.w3.org/2000/svg" xmlns:xlink="http://www.w3.org/1999/xlink" contentStyleType="text/css" height="735px" preserveAspectRatio="none" style="width:726px;height:735px;background:#FFFFFF;" version="1.1" viewBox="0 0 726 735" width="726px" zoomAndPan="magnify"><defs/><g><!--cluster <<aggregate>> Exam--><g id="cluster_&lt;&lt;aggregate&gt;&gt; Exam"><path d="M452.5,395.2168 L666.5,395.2168 A3.75,3.75 0 0 1 669,397.7168 L676,424.498 L676.5,424.498 A2.5,2.5 0 0 1 679,426.998 L679,530.7168 A2.5,2.5 0 0 1 676.5,533.2168 L452.5,533.2168 A2.5,2.5 0 0 1 450,530.7168 L450,397.7168 A2.5,2.5 0 0 1 452.5,395.2168 " fill="none" style="stroke:#000000;stroke-width:1.5;"/><line style="stroke:#000000;stroke-width:1.5;" x1="450" x2="676" y1="424.498" y2="424.498"/><text fill="#000000" font-family="sans-serif" font-size="20" font-weight="bold" lengthAdjust="spacing" textLength="213" x="454" y="415.7813">«aggregate» Exam</text></g><!--cluster <<aggregate>> Student--><g id="cluster_&lt;&lt;aggregate&gt;&gt; Student"><path d="M194.5,7.2168 L436.5,7.2168 A3.75,3.75 0 0 1 439,9.7168 L446,36.498 L446.5,36.498 A2.5,2.5 0 0 1 449,38.998 L449,142.7168 A2.5,2.5 0 0 1 446.5,145.2168 L194.5,145.2168 A2.5,2.5 0 0 1 192,142.7168 L192,9.7168 A2.5,2.5 0 0 1 194.5,7.2168 " fill="none" style="stroke:#000000;stroke-width:1.5;"/><line style="stroke:#000000;stroke-width:1.5;" x1="192" x2="446" y1="36.498" y2="36.498"/><text fill="#000000" font-family="sans-serif" font-size="20" font-weight="bold" lengthAdjust="spacing" textLength="241" x="196" y="27.7813">«aggregate» Student</text></g><!--cluster <<aggregate>> Question--><g id="cluster_&lt;&lt;aggregate&gt;&gt; Question"><path d="M452.5,590.2168 L706.5,590.2168 A3.75,3.75 0 0 1 709,592.7168 L716,619.498 L716.5,619.498 A2.5,2.5 0 0 1 719,621.998 L719,725.7168 A2.5,2.5 0 0 1 716.5,728.2168 L452.5,728.2168 A2.5,2.5 0 0 1 450,725.7168 L450,592.7168 A2.5,2.5 0 0 1 452.5,590.2168 " fill="none" style="stroke:#000000;stroke-width:1.5;"/><line style="stroke:#000000;stroke-width:1.5;" x1="450" x2="716" y1="619.498" y2="619.498"/><text fill="#000000" font-family="sans-serif" font-size="20" font-weight="bold" lengthAdjust="spacing" textLength="253" x="454" y="610.7813">«aggregate» Question</text></g><!--cluster <<aggregate>> ExamAnswer--><g id="cluster_&lt;&lt;aggregate&gt;&gt; ExamAnswer"><path d="M8.5,202.2168 L305.5,202.2168 A3.75,3.75 0 0 1 308,204.7168 L315,231.498 L423.5,231.498 A2.5,2.5 0 0 1 426,233.998 L426,714.2168 A2.5,2.5 0 0 1 423.5,716.7168 L8.5,716.7168 A2.5,2.5 0 0 1 6,714.2168 L6,204.7168 A2.5,2.5 0 0 1 8.5,202.2168 " fill="none" style="stroke:#000000;stroke-width:1.5;"/><line style="stroke:#000000;stroke-width:1.5;" x1="6" x2="315" y1="231.498" y2="231.498"/><text fill="#000000" font-family="sans-serif" font-size="20" font-weight="bold" lengthAdjust="spacing" textLength="296" x="10" y="222.7813">«aggregate» ExamAnswer</text></g><!--class Exam--><g id="elem_Exam"><rect codeLine="41" fill="#F5F5DC" height="79.8438" id="Exam" rx="2.5" ry="2.5" style="stroke:#181818;stroke-width:0.5;" width="113" x="466.5" y="437.2168"/><ellipse cx="482.5" cy="477.1387" fill="#ADD1B2" rx="12" ry="12" style="stroke:#181818;stroke-width:1.0;"/><path d="M487.2188,484.6387 L478.1406,484.6387 L478.1406,470.0605 L487.2188,470.0605 L487.2188,472.5918 L481.0156,472.5918 L481.0156,475.748 L486.6406,475.748 L486.6406,478.2793 L481.0156,478.2793 L481.0156,482.0918 L487.2188,482.0918 L487.2188,484.6387 Z " fill="#000000"/><text fill="#000000" font-family="sans-serif" font-size="20" font-style="italic" lengthAdjust="spacing" textLength="83" x="495.5" y="460.7813">«entity»</text><text fill="#000000" font-family="sans-serif" font-size="20" font-style="italic" lengthAdjust="spacing" textLength="64" x="505" y="484.0625">«root»</text><text fill="#000000" font-family="sans-serif" font-size="20" lengthAdjust="spacing" textLength="56" x="509" y="507.3438">Exam</text></g><!--class Student--><g id="elem_Student"><rect codeLine="17" fill="#F5F5DC" height="79.8438" id="Student" rx="2.5" ry="2.5" style="stroke:#181818;stroke-width:0.5;" width="114" x="263" y="49.2168"/><ellipse cx="279" cy="89.1387" fill="#ADD1B2" rx="12" ry="12" style="stroke:#181818;stroke-width:1.0;"/><path d="M283.7188,96.6387 L274.6406,96.6387 L274.6406,82.0605 L283.7188,82.0605 L283.7188,84.5918 L277.5156,84.5918 L277.5156,87.748 L283.1406,87.748 L283.1406,90.2793 L277.5156,90.2793 L277.5156,94.0918 L283.7188,94.0918 L283.7188,96.6387 Z " fill="#000000"/><text fill="#000000" font-family="sans-serif" font-size="20" font-style="italic" lengthAdjust="spacing" textLength="83" x="292.5" y="72.7813">«entity»</text><text fill="#000000" font-family="sans-serif" font-size="20" font-style="italic" lengthAdjust="spacing" textLength="64" x="302" y="96.0625">«root»</text><text fill="#000000" font-family="sans-serif" font-size="20" lengthAdjust="spacing" textLength="80" x="294" y="119.3438">Student</text></g><!--class Question--><g id="elem_Question"><rect codeLine="24" fill="#F5F5DC" height="79.8438" id="Question" rx="2.5" ry="2.5" style="stroke:#181818;stroke-width:0.5;" width="124" x="466" y="632.2168"/><ellipse cx="482" cy="672.1387" fill="#ADD1B2" rx="12" ry="12" style="stroke:#181818;stroke-width:1.0;"/><path d="M486.7188,679.6387 L477.6406,679.6387 L477.6406,665.0605 L486.7188,665.0605 L486.7188,667.5918 L480.5156,667.5918 L480.5156,670.748 L486.1406,670.748 L486.1406,673.2793 L480.5156,673.2793 L480.5156,677.0918 L486.7188,677.0918 L486.7188,679.6387 Z " fill="#000000"/><text fill="#000000" font-family="sans-serif" font-size="20" font-style="italic" lengthAdjust="spacing" textLength="83" x="500.5" y="655.7813">«entity»</text><text fill="#000000" font-family="sans-serif" font-size="20" font-style="italic" lengthAdjust="spacing" textLength="64" x="510" y="679.0625">«root»</text><text fill="#000000" font-family="sans-serif" font-size="20" lengthAdjust="spacing" textLength="90" x="497" y="702.3438">Question</text></g><!--class ExamAnswer--><g id="elem_ExamAnswer"><rect codeLine="36" fill="#F5F5DC" height="79.8438" id="ExamAnswer" rx="2.5" ry="2.5" style="stroke:#181818;stroke-width:0.5;" width="164" x="238" y="244.2168"/><ellipse cx="254" cy="284.1387" fill="#ADD1B2" rx="12" ry="12" style="stroke:#181818;stroke-width:1.0;"/><path d="M258.7188,291.6387 L249.6406,291.6387 L249.6406,277.0605 L258.7188,277.0605 L258.7188,279.5918 L252.5156,279.5918 L252.5156,282.748 L258.1406,282.748 L258.1406,285.2793 L252.5156,285.2793 L252.5156,289.0918 L258.7188,289.0918 L258.7188,291.6387 Z " fill="#000000"/><text fill="#000000" font-family="sans-serif" font-size="20" font-style="italic" lengthAdjust="spacing" textLength="83" x="292.5" y="267.7813">«entity»</text><text fill="#000000" font-family="sans-serif" font-size="20" font-style="italic" lengthAdjust="spacing" textLength="64" x="302" y="291.0625">«root»</text><text fill="#000000" font-family="sans-serif" font-size="20" lengthAdjust="spacing" textLength="130" x="269" y="314.3438">ExamAnswer</text></g><!--class Grade--><g id="elem_Grade"><rect codeLine="38" fill="#F5F5DC" height="56.5625" id="Grade" rx="2.5" ry="2.5" style="stroke:#181818;stroke-width:0.5;" width="177" x="21.5" y="643.7168"/><ellipse cx="37.5" cy="671.998" fill="#FF8B40" rx="12" ry="12" style="stroke:#181818;stroke-width:1.0;"/><path d="M37.5156,677.8418 L40.0781,665.6699 L42.9844,665.6699 L39.5156,680.248 L35.5313,680.248 L32.0625,665.6699 L34.9531,665.6699 L37.5156,677.8418 Z " fill="#000000"/><text fill="#000000" font-family="sans-serif" font-size="20" font-style="italic" lengthAdjust="spacing" textLength="147" x="50.5" y="667.2813">«value object»</text><text fill="#000000" font-family="sans-serif" font-size="20" lengthAdjust="spacing" textLength="61" x="93.5" y="690.5625">Grade</text></g><!--class AnswerToQuestion--><g id="elem_AnswerToQuestion"><rect codeLine="42" fill="#F5F5DC" height="56.5625" id="AnswerToQuestion" rx="2.5" ry="2.5" style="stroke:#181818;stroke-width:0.5;" width="222" x="188" y="448.7168"/><ellipse cx="204" cy="476.998" fill="#ADD1B2" rx="12" ry="12" style="stroke:#181818;stroke-width:1.0;"/><path d="M208.7188,484.498 L199.6406,484.498 L199.6406,469.9199 L208.7188,469.9199 L208.7188,472.4512 L202.5156,472.4512 L202.5156,475.6074 L208.1406,475.6074 L208.1406,478.1387 L202.5156,478.1387 L202.5156,481.9512 L208.7188,481.9512 L208.7188,484.498 Z " fill="#000000"/><text fill="#000000" font-family="sans-serif" font-size="20" font-style="italic" lengthAdjust="spacing" textLength="83" x="271.5" y="472.2813">«entity»</text><text fill="#000000" font-family="sans-serif" font-size="20" lengthAdjust="spacing" textLength="188" x="219" y="495.5625">AnswerToQuestion</text></g><!--class Answer--><g id="elem_Answer"><rect codeLine="39" fill="#F5F5DC" height="56.5625" id="Answer" rx="2.5" ry="2.5" style="stroke:#181818;stroke-width:0.5;" width="177" x="233.5" y="643.7168"/><ellipse cx="249.5" cy="671.998" fill="#FF8B40" rx="12" ry="12" style="stroke:#181818;stroke-width:1.0;"/><path d="M249.5156,677.8418 L252.0781,665.6699 L254.9844,665.6699 L251.5156,680.248 L247.5313,680.248 L244.0625,665.6699 L246.9531,665.6699 L249.5156,677.8418 Z " fill="#000000"/><text fill="#000000" font-family="sans-serif" font-size="20" font-style="italic" lengthAdjust="spacing" textLength="147" x="262.5" y="667.2813">«value object»</text><text fill="#000000" font-family="sans-serif" font-size="20" lengthAdjust="spacing" textLength="74" x="299" y="690.5625">Answer</text></g><!--link Student to ExamAnswer--><g id="link_Student_ExamAnswer"><path codeLine="44" d="M320,129.2768 C320,160.9568 320,205.6168 320,238.6868 " fill="none" id="Student-to-ExamAnswer" style="stroke:#222222;stroke-width:1.0;"/><polygon fill="#222222" points="320,243.8868,324,234.8868,320,238.8868,316,234.8868,320,243.8868" style="stroke:#222222;stroke-width:1.0;"/><text fill="#000000" font-family="sans-serif" font-size="20" lengthAdjust="spacing" textLength="35" x="321" y="180.7813">has</text><text fill="#000000" font-family="sans-serif" font-size="20" lengthAdjust="spacing" textLength="35" x="282.3203" y="231.5483">0..*</text></g><!--link ExamAnswer to Exam--><g id="link_ExamAnswer_Exam"><path codeLine="45" d="M361.57,324.3268 C395.37,356.1268 442.98,400.9268 477.74,433.6268 " fill="none" id="ExamAnswer-to-Exam" style="stroke:#222222;stroke-width:1.0;"/><polygon fill="#222222" points="481.49,437.1568,477.6777,428.0757,477.849,433.73,472.1947,433.9013,481.49,437.1568" style="stroke:#222222;stroke-width:1.0;"/><text fill="#000000" font-family="sans-serif" font-size="20" lengthAdjust="spacing" textLength="49" x="416" y="373.7813">is for</text><text fill="#000000" font-family="sans-serif" font-size="20" lengthAdjust="spacing" textLength="13" x="460.8384" y="424.5387">1</text></g><!--link AnswerToQuestion to Grade--><g id="link_AnswerToQuestion_Grade"><path codeLine="46" d="M271.92,505.8668 C237.26,541.2668 177.33,602.4568 140.91,639.6468 " fill="none" id="AnswerToQuestion-to-Grade" style="stroke:#222222;stroke-width:1.0;"/><polygon fill="#222222" points="137.03,643.6168,146.1862,639.9886,140.5296,640.0457,140.4725,634.3892,137.03,643.6168" style="stroke:#222222;stroke-width:1.0;"/><text fill="#000000" font-family="sans-serif" font-size="20" lengthAdjust="spacing" textLength="35" x="227" y="568.7813">has</text><text fill="#000000" font-family="sans-serif" font-size="20" lengthAdjust="spacing" textLength="38" x="100.6862" y="630.9847">0..1</text></g><!--link AnswerToQuestion to Question--><g id="link_AnswerToQuestion_Question"><path codeLine="48" d="M333.2,505.7368 C358.9,526.5368 394.88,555.9068 426,582.2168 C443.77,597.2368 463.05,613.9568 480.02,628.8068 " fill="none" id="AnswerToQuestion-to-Question" style="stroke:#222222;stroke-width:1.0;"/><polygon fill="#222222" points="483.83,632.1468,479.6908,623.2099,480.0671,628.8543,474.4228,629.2306,483.83,632.1468" style="stroke:#222222;stroke-width:1.0;"/><text fill="#000000" font-family="sans-serif" font-size="20" lengthAdjust="spacing" textLength="49" x="416" y="568.7813">is for</text><text fill="#000000" font-family="sans-serif" font-size="20" lengthAdjust="spacing" textLength="13" x="462.7545" y="619.5271">1</text></g><!--reverse link AnswerToQuestion to Answer--><g id="link_AnswerToQuestion_Answer"><path codeLine="49" d="M303.84,518.8268 C308.31,556.3168 314.82,610.9668 318.71,643.6168 " fill="none" id="AnswerToQuestion-backto-Answer" style="stroke:#222222;stroke-width:1.0;"/><polygon fill="#222222" points="302.3,505.8668,299.0408,512.2994,303.7251,517.7819,306.9842,511.3493,302.3,505.8668" style="stroke:#222222;stroke-width:1.0;"/><text fill="#000000" font-family="sans-serif" font-size="20" lengthAdjust="spacing" textLength="13" x="303.6908" y="630.9847">1</text></g><!--reverse link ExamAnswer to AnswerToQuestion--><g id="link_ExamAnswer_AnswerToQuestion"><path codeLine="51" d="M314.25,337.5268 C310.3,373.4168 305.22,419.6168 302.04,448.5868 " fill="none" id="ExamAnswer-backto-AnswerToQuestion" style="stroke:#222222;stroke-width:1.0;"/><polygon fill="#222222" points="315.7,324.3268,311.0706,329.8557,314.3937,336.2555,319.0231,330.7266,315.7,324.3268" style="stroke:#222222;stroke-width:1.0;"/><text fill="#000000" font-family="sans-serif" font-size="20" lengthAdjust="spacing" textLength="35" x="264.0576" y="435.9486">1..*</text></g><!--SRC=[bP7HJy8m4CRV-rTSneDA74pYWo4B2HWnFXgCxsKzjigsBcqdAl5_jrif574QzxHyzxllk-kfDIyhAccHYsID31YkQ9thkIZrWdyWZ29obcbTgV5mMEMqr7MH3n9H39ESAXKoJbFJJ8XoFj0MfbfBlgmrFYIYR8qYad66W4Mbtu6wilBL0dKccFhkDQF9EfMYBjcjo8M49V8KFMWgfTZOKc_KVeHKfeUc244SqpILc5ADamdSlT4YW2q1m59p4za8vBEJN-YQ6VAePQSrNSSAnB4LJ6CSIo6q-Td-ulvOez9Sb4VsJlJydVJlW6QxQQasA4-MjZ8nOll6S2yfGt9WRFr9xCTnuAxnCDt1xUVv3Eb5cCBvysLlFh-PNKSNy4hp6a4iNp3PmNxAdx0_GrTwnq8-tZYv8uRX189eCEW7tc9ZoAWYdj1ILu4D7WDNi1AId6GuCqFQxQrH1sYelT3jsG_35dKNzAQofMRsq_jz0G00]--></g></svg>