<?xml version="1.0" encoding="UTF-8" standalone="no"?><svg xmlns="http://www.w3.org/2000/svg" xmlns:xlink="http://www.w3.org/1999/xlink" contentStyleType="text/css" height="598px" preserveAspectRatio="none" style="width:1172px;height:598px;background:#FFFFFF;" version="1.1" viewBox="0 0 1172 598" width="1172px" zoomAndPan="magnify"><defs/><g><!--cluster <<aggregate>> Meeting--><g id="cluster_&lt;&lt;aggregate&gt;&gt; Meeting"><path d="M377.5,221.08 L596.5,221.08 A3.75,3.75 0 0 1 599,223.58 L606,254.32 L942.5,254.32 A2.5,2.5 0 0 1 945,256.82 L945,589.02 A2.5,2.5 0 0 1 942.5,591.52 L377.5,591.52 A2.5,2.5 0 0 1 375,589.02 L375,223.58 A2.5,2.5 0 0 1 377.5,221.08 " fill="none" style="stroke:#000000;stroke-width:1.5;"/><line style="stroke:#000000;stroke-width:1.5;" x1="375" x2="606" y1="254.32" y2="254.32"/><text fill="#000000" font-family="sans-serif" font-size="20" font-weight="bold" lengthAdjust="spacing" textLength="218" x="379" y="244.46">«aggregate» Meeting</text></g><!--cluster <<aggregate>> Invite--><g id="cluster_&lt;&lt;aggregate&gt;&gt; Invite"><path d="M144.5,8.36 L338.5,8.36 A3.75,3.75 0 0 1 341,10.86 L348,41.6 L348.5,41.6 A2.5,2.5 0 0 1 351,44.1 L351,358.68 A2.5,2.5 0 0 1 348.5,361.18 L144.5,361.18 A2.5,2.5 0 0 1 142,358.68 L142,10.86 A2.5,2.5 0 0 1 144.5,8.36 " fill="none" style="stroke:#000000;stroke-width:1.5;"/><line style="stroke:#000000;stroke-width:1.5;" x1="142" x2="348" y1="41.6" y2="41.6"/><text fill="#000000" font-family="sans-serif" font-size="20" font-weight="bold" lengthAdjust="spacing" textLength="193" x="146" y="31.74">«aggregate» Invite</text></g><!--cluster <<aggregate>> User--><g id="cluster_&lt;&lt;aggregate&gt;&gt; User"><path d="M971.5,433.8 L1152.5,433.8 A3.75,3.75 0 0 1 1155,436.3 L1162,467.04 L1162.5,467.04 A2.5,2.5 0 0 1 1165,469.54 L1165,585.02 A2.5,2.5 0 0 1 1162.5,587.52 L971.5,587.52 A2.5,2.5 0 0 1 969,585.02 L969,436.3 A2.5,2.5 0 0 1 971.5,433.8 " fill="none" style="stroke:#000000;stroke-width:1.5;"/><line style="stroke:#000000;stroke-width:1.5;" x1="969" x2="1162" y1="467.04" y2="467.04"/><text fill="#000000" font-family="sans-serif" font-size="20" font-weight="bold" lengthAdjust="spacing" textLength="180" x="973" y="457.18">«aggregate» User</text></g><!--class Meeting--><g id="elem_Meeting"><rect codeLine="21" fill="#F5F5DC" height="91.7199" id="Meeting" rx="2.5" ry="2.5" style="stroke:#181818;stroke-width:0.5;" width="110" x="605" y="267.08"/><ellipse cx="621" cy="312.94" fill="#ADD1B2" rx="12" ry="12" style="stroke:#181818;stroke-width:1.0;"/><path d="M616.0938,319.94 L616.0938,305.6587 L625.0938,305.6587 L625.0938,308.1587 L618.9063,308.1587 L618.9063,311.2837 L624.7969,311.2837 L624.7969,313.7837 L618.9063,313.7837 L618.9063,317.44 L625.0938,317.44 L625.0938,319.94 L616.0938,319.94 Z " fill="#000000"/><text fill="#000000" font-family="sans-serif" font-size="20" font-style="italic" lengthAdjust="spacing" textLength="70" x="639" y="293.46">«entity»</text><text fill="#000000" font-family="sans-serif" font-size="20" font-style="italic" lengthAdjust="spacing" textLength="57" x="645.5" y="320.6999">«root»</text><text fill="#000000" font-family="sans-serif" font-size="20" lengthAdjust="spacing" textLength="76" x="636" y="347.9399">Meeting</text></g><!--class Canceled--><g id="elem_Canceled"><rect codeLine="17" fill="#F5F5DC" height="99.7199" id="Canceled" rx="2.5" ry="2.5" style="stroke:#181818;stroke-width:0.5;" width="156" x="391" y="475.8"/><ellipse cx="407" cy="508.04" fill="#FF8B40" rx="12" ry="12" style="stroke:#181818;stroke-width:1.0;"/><path d="M405.375,516.04 L401.2031,501.7587 L404.125,501.7587 L406.2969,510.2431 Q406.4063,510.5556 406.5313,511.165 Q406.6563,511.7587 406.7813,512.3837 Q406.9063,512.9931 406.9531,513.4462 L407.1406,513.4462 Q407.2031,512.9931 407.3125,512.3837 Q407.4219,511.7743 407.5313,511.1962 Q407.6563,510.6025 407.7344,510.2431 L409.8438,501.7587 L412.7969,501.7587 L408.625,516.04 L405.375,516.04 Z " fill="#000000"/><text fill="#000000" font-family="sans-serif" font-size="20" font-style="italic" lengthAdjust="spacing" textLength="126" x="420" y="502.18">«value object»</text><text fill="#000000" font-family="sans-serif" font-size="20" lengthAdjust="spacing" textLength="85" x="440.5" y="529.4199">Canceled</text><line style="stroke:#181818;stroke-width:0.5;" x1="392" x2="546" y1="540.2799" y2="540.2799"/><text fill="#000000" font-family="sans-serif" font-size="20" lengthAdjust="spacing" textLength="108" x="397" y="565.6599">-canceledAt</text></g><!--class Time--><g id="elem_Time"><rect codeLine="13" fill="#F5F5DC" height="64.4799" id="Time" rx="2.5" ry="2.5" style="stroke:#181818;stroke-width:0.5;" width="156" x="582" y="493.42"/><ellipse cx="598" cy="525.66" fill="#FF8B40" rx="12" ry="12" style="stroke:#181818;stroke-width:1.0;"/><path d="M596.375,533.66 L592.2031,519.3787 L595.125,519.3787 L597.2969,527.8631 Q597.4063,528.1756 597.5313,528.785 Q597.6563,529.3787 597.7813,530.0037 Q597.9063,530.6131 597.9531,531.0662 L598.1406,531.0662 Q598.2031,530.6131 598.3125,530.0037 Q598.4219,529.3943 598.5313,528.8162 Q598.6563,528.2225 598.7344,527.8631 L600.8438,519.3787 L603.7969,519.3787 L599.625,533.66 L596.375,533.66 Z " fill="#000000"/><text fill="#000000" font-family="sans-serif" font-size="20" font-style="italic" lengthAdjust="spacing" textLength="126" x="611" y="519.8">«value object»</text><text fill="#000000" font-family="sans-serif" font-size="20" lengthAdjust="spacing" textLength="46" x="651" y="547.0399">Time</text></g><!--class Duration--><g id="elem_Duration"><rect codeLine="14" fill="#F5F5DC" height="64.4799" id="Duration" rx="2.5" ry="2.5" style="stroke:#181818;stroke-width:0.5;" width="156" x="773" y="493.42"/><ellipse cx="789" cy="525.66" fill="#FF8B40" rx="12" ry="12" style="stroke:#181818;stroke-width:1.0;"/><path d="M787.375,533.66 L783.2031,519.3787 L786.125,519.3787 L788.2969,527.8631 Q788.4063,528.1756 788.5313,528.785 Q788.6563,529.3787 788.7813,530.0037 Q788.9063,530.6131 788.9531,531.0662 L789.1406,531.0662 Q789.2031,530.6131 789.3125,530.0037 Q789.4219,529.3943 789.5313,528.8162 Q789.6563,528.2225 789.7344,527.8631 L791.8438,519.3787 L794.7969,519.3787 L790.625,533.66 L787.375,533.66 Z " fill="#000000"/><text fill="#000000" font-family="sans-serif" font-size="20" font-style="italic" lengthAdjust="spacing" textLength="126" x="802" y="519.8">«value object»</text><text fill="#000000" font-family="sans-serif" font-size="20" lengthAdjust="spacing" textLength="82" x="824" y="547.0399">Duration</text></g><!--class Invite--><g id="elem_Invite"><rect codeLine="39" fill="#F5F5DC" height="91.7199" id="Invite" rx="2.5" ry="2.5" style="stroke:#181818;stroke-width:0.5;" width="100" x="235" y="54.36"/><ellipse cx="251" cy="100.22" fill="#ADD1B2" rx="12" ry="12" style="stroke:#181818;stroke-width:1.0;"/><path d="M246.0938,107.22 L246.0938,92.9387 L255.0938,92.9387 L255.0938,95.4387 L248.9063,95.4387 L248.9063,98.5637 L254.7969,98.5637 L254.7969,101.0637 L248.9063,101.0637 L248.9063,104.72 L255.0938,104.72 L255.0938,107.22 L246.0938,107.22 Z " fill="#000000"/><text fill="#000000" font-family="sans-serif" font-size="20" font-style="italic" lengthAdjust="spacing" textLength="70" x="264" y="80.74">«entity»</text><text fill="#000000" font-family="sans-serif" font-size="20" font-style="italic" lengthAdjust="spacing" textLength="57" x="270.5" y="107.9799">«root»</text><text fill="#000000" font-family="sans-serif" font-size="20" lengthAdjust="spacing" textLength="52" x="273" y="135.2199">Invite</text></g><!--class Status--><g id="elem_Status"><rect codeLine="31" fill="#F5F5DC" height="64.4799" id="Status" rx="2.5" ry="2.5" style="stroke:#181818;stroke-width:0.5;" width="156" x="179" y="280.7"/><ellipse cx="195" cy="312.94" fill="#FF8B40" rx="12" ry="12" style="stroke:#181818;stroke-width:1.0;"/><path d="M193.375,320.94 L189.2031,306.6587 L192.125,306.6587 L194.2969,315.1431 Q194.4063,315.4556 194.5313,316.065 Q194.6563,316.6587 194.7813,317.2837 Q194.9063,317.8931 194.9531,318.3462 L195.1406,318.3462 Q195.2031,317.8931 195.3125,317.2837 Q195.4219,316.6743 195.5313,316.0962 Q195.6563,315.5025 195.7344,315.1431 L197.8438,306.6587 L200.7969,306.6587 L196.625,320.94 L193.375,320.94 Z " fill="#000000"/><text fill="#000000" font-family="sans-serif" font-size="20" font-style="italic" lengthAdjust="spacing" textLength="126" x="208" y="307.08">«value object»</text><text fill="#000000" font-family="sans-serif" font-size="20" lengthAdjust="spacing" textLength="58" x="242" y="334.3199">Status</text></g><!--class User--><g id="elem_User"><rect codeLine="47" fill="#F5F5DC" height="91.7199" id="User" rx="2.5" ry="2.5" style="stroke:#181818;stroke-width:0.5;" width="100" x="985" y="479.8"/><ellipse cx="1001" cy="525.66" fill="#ADD1B2" rx="12" ry="12" style="stroke:#181818;stroke-width:1.0;"/><path d="M996.0938,532.66 L996.0938,518.3787 L1005.0938,518.3787 L1005.0938,520.8787 L998.9063,520.8787 L998.9063,524.0037 L1004.7969,524.0037 L1004.7969,526.5037 L998.9063,526.5037 L998.9063,530.16 L1005.0938,530.16 L1005.0938,532.66 L996.0938,532.66 Z " fill="#000000"/><text fill="#000000" font-family="sans-serif" font-size="20" font-style="italic" lengthAdjust="spacing" textLength="70" x="1014" y="506.18">«entity»</text><text fill="#000000" font-family="sans-serif" font-size="20" font-style="italic" lengthAdjust="spacing" textLength="57" x="1020.5" y="533.4199">«root»</text><text fill="#000000" font-family="sans-serif" font-size="20" lengthAdjust="spacing" textLength="44" x="1027" y="560.6599">User</text></g><g id="elem_GMN10"><path d="M6,267.08 L6,358.7999 A0,0 0 0 0 6,358.7999 L126,358.7999 A0,0 0 0 0 126,358.7999 L126,316.94 L178.71,312.94 L126,308.94 L126,277.08 L116,267.08 L6,267.08 A0,0 0 0 0 6,267.08 " fill="#FEFFDD" style="stroke:#181818;stroke-width:0.5;"/><path d="M116,267.08 L116,277.08 L126,277.08 L116,267.08 " fill="#FEFFDD" style="stroke:#181818;stroke-width:0.5;"/><text fill="#000000" font-family="sans-serif" font-size="20" lengthAdjust="spacing" textLength="90" x="12" y="293.46">PENDING</text><text fill="#000000" font-family="sans-serif" font-size="20" lengthAdjust="spacing" textLength="99" x="12" y="320.6999">ACCEPTED</text><text fill="#000000" font-family="sans-serif" font-size="20" lengthAdjust="spacing" textLength="89" x="12" y="347.9399">REJECTED</text></g><!--link Invite to User--><g id="link_Invite_User"><path codeLine="51" d="M335.4,103.01 C473.66,108.94 854.62,132.4 945,213.08 C1019.66,279.73 1034.03,404.04 1035.84,473.81 " fill="none" id="Invite-to-User" style="stroke:#222222;stroke-width:1.0;"/><polygon fill="#222222" points="1035.97,478.56,1039.7633,469.4709,1035.8557,473.5613,1031.7654,469.6537,1035.97,478.56" style="stroke:#222222;stroke-width:1.0;"/><text fill="#000000" font-family="sans-serif" font-size="20" lengthAdjust="spacing" textLength="60" x="1025" y="320.82">invites</text><text fill="#000000" font-family="sans-serif" font-size="20" lengthAdjust="spacing" textLength="11" x="1024.3613" y="465.9474">1</text></g><!--link Invite to Meeting--><g id="link_Invite_Meeting"><path codeLine="52" d="M335.19,129.42 C403.6,167.86 525.99,236.64 599.42,277.9 " fill="none" id="Invite-to-Meeting" style="stroke:#222222;stroke-width:1.0;"/><polygon fill="#222222" points="603.63,280.82,597.7358,272.9296,599.2687,278.3748,593.8235,279.9077,603.63,280.82" style="stroke:#222222;stroke-width:1.0;"/><text fill="#000000" font-family="sans-serif" font-size="20" lengthAdjust="spacing" textLength="109" x="462" y="198.46">is related to</text><text fill="#000000" font-family="sans-serif" font-size="20" lengthAdjust="spacing" textLength="11" x="585.831" y="269.3703">1</text></g><!--link Invite to Status--><g id="link_Invite_Status"><path codeLine="53" d="M278.99,146.42 C273.9,184.76 266.68,239.09 261.92,274.9 " fill="none" id="Invite-to-Status" style="stroke:#222222;stroke-width:1.0;"/><polygon fill="#222222" points="261.18,279.48,266.328,271.0837,261.8371,274.5234,258.3974,270.0324,261.18,279.48" style="stroke:#222222;stroke-width:1.0;"/><text fill="#000000" font-family="sans-serif" font-size="20" lengthAdjust="spacing" textLength="33" x="275" y="198.46">has</text><text fill="#000000" font-family="sans-serif" font-size="20" lengthAdjust="spacing" textLength="11" x="249.9531" y="266.9812">1</text></g><!--link Meeting to User--><g id="link_Meeting_User"><path codeLine="55" d="M715.25,344.84 C765.09,372.18 835.03,409.04 865,417.8 C899.3,427.82 913.08,409.75 945,425.8 C967.27,437 986.69,456.2 1001.74,474.72 " fill="none" id="Meeting-to-User" style="stroke:#222222;stroke-width:1.0;"/><polygon fill="#222222" points="1005.47,478.41,1002.9967,468.8767,1002.357,474.4973,996.7364,473.8576,1005.47,478.41" style="stroke:#222222;stroke-width:1.0;"/><text fill="#000000" font-family="sans-serif" font-size="20" lengthAdjust="spacing" textLength="122" x="866" y="411.18">scheduled by</text><text fill="#000000" font-family="sans-serif" font-size="20" lengthAdjust="spacing" textLength="11" x="989.7628" y="465.7772">1</text></g><!--link Meeting to Canceled--><g id="link_Meeting_Canceled"><path codeLine="56" d="M604.62,343.92 C585.22,356.15 564.25,371.5 548,388.8 C525.67,412.57 506.97,443.76 493.38,470.26 " fill="none" id="Meeting-to-Canceled" style="stroke:#222222;stroke-width:1.0;"/><polygon fill="#222222" points="490.73,474.5,498.3646,468.278,492.9889,470.0394,491.2275,464.6637,490.73,474.5" style="stroke:#222222;stroke-width:1.0;"/><text fill="#000000" font-family="sans-serif" font-size="20" lengthAdjust="spacing" textLength="102" x="549" y="411.18">is canceled</text><text fill="#000000" font-family="sans-serif" font-size="20" lengthAdjust="spacing" textLength="32" x="459.4283" y="462.136">0..1</text></g><!--link Meeting to Time--><g id="link_Meeting_Time"><path codeLine="58" d="M660,359.14 C660,397.48 660,451.81 660,487.62 " fill="none" id="Meeting-to-Time" style="stroke:#222222;stroke-width:1.0;"/><polygon fill="#222222" points="660,492.2,664,483.2,660,487.2,656,483.2,660,492.2" style="stroke:#222222;stroke-width:1.0;"/><text fill="#000000" font-family="sans-serif" font-size="20" lengthAdjust="spacing" textLength="33" x="661" y="411.18">has</text><text fill="#000000" font-family="sans-serif" font-size="20" lengthAdjust="spacing" textLength="11" x="648.0547" y="479.7012">1</text></g><!--link Meeting to Duration--><g id="link_Meeting_Duration"><path codeLine="59" d="M700.97,359.14 C736.16,397.96 786.18,453.15 818.62,488.93 " fill="none" id="Meeting-to-Duration" style="stroke:#222222;stroke-width:1.0;"/><polygon fill="#222222" points="821.48,492.2,818.3947,482.8469,818.1202,488.4971,812.47,488.2226,821.48,492.2" style="stroke:#222222;stroke-width:1.0;"/><text fill="#000000" font-family="sans-serif" font-size="20" lengthAdjust="spacing" textLength="33" x="750" y="411.18">has</text><text fill="#000000" font-family="sans-serif" font-size="20" lengthAdjust="spacing" textLength="11" x="805.6328" y="479.7012">1</text></g><!--SRC=[bLBTQzim47_NNt6a3zjW-MZPmmWca3fEoM2bjDtU5UjYQv4b8vqxkjB_VR8Lkx5B6wedwNU_3zrnRYzroIqlb4dtA43WZbUAraRJdVo7S35ZdtAYqisdqr9nJLMX9gaffgdYpes5v9aNC-PQ7sWAIo8hjnNX9ZMwCPgnN0e4B4fw1DwMtJ5Q8EL6kA7N9K_tcJML5h5Hni8MPOP7fAMrvcyedLqqXx7IQtY6C8eYdcKMCqwuMC1FH98w6y4J0q1DqgSUCEQH9WvYhbDKA3hWNXO8KVJvzzUpzVhxvRVP5tZWga8msp-OalTzUkx8gyfoaaQV53mpriyxeV09OqWFt2NL-du7NXy0puuYQqoGrSGtnh7H3vAmDuq0lGpZZZXLxkMpuNsoEQOD8IZS4PXTQm9marolDjTN_hQCu-JcFbdvwsto8udhAse1jQvhB7pcuttzScXxNTN0qS3gvpkkXzZnU06Zyr5Wpq4sg1jMs-5xWWEBolz009aXxJ2tEUJSCTQA1X4kpL5KzIfi7_kSsMJYQTscD67jBhosQnOsH0rBtNg6ydy0]--></g></svg>