<?xml version="1.0" encoding="UTF-8" standalone="no"?><svg xmlns="http://www.w3.org/2000/svg" xmlns:xlink="http://www.w3.org/1999/xlink" contentStyleType="text/css" height="496px" preserveAspectRatio="none" style="width:962px;height:496px;background:#FFFFFF;" version="1.1" viewBox="0 0 962 496" width="962px" zoomAndPan="magnify"><defs/><g><!--cluster <<aggregate>> PostIt--><g id="cluster_&lt;&lt;aggregate&gt;&gt; PostIt"><path d="M141,7.2168 L361,7.2168 A3.75,3.75 0 0 1 363.5,9.7168 L370.5,36.498 L612,36.498 A2.5,2.5 0 0 1 614.5,38.998 L614.5,315.7168 A2.5,2.5 0 0 1 612,318.2168 L141,318.2168 A2.5,2.5 0 0 1 138.5,315.7168 L138.5,9.7168 A2.5,2.5 0 0 1 141,7.2168 " fill="none" style="stroke:#000000;stroke-width:1.5;"/><line style="stroke:#000000;stroke-width:1.5;" x1="138.5" x2="370.5" y1="36.498" y2="36.498"/><text fill="#000000" font-family="sans-serif" font-size="20" font-weight="bold" lengthAdjust="spacing" textLength="219" x="142.5" y="27.7813">«aggregate» PostIt</text></g><!--cluster <<aggregate>> User--><g id="cluster_&lt;&lt;aggregate&gt;&gt; User"><path d="M475,351.2168 L679,351.2168 A3.75,3.75 0 0 1 681.5,353.7168 L688.5,380.498 L689,380.498 A2.5,2.5 0 0 1 691.5,382.998 L691.5,486.7168 A2.5,2.5 0 0 1 689,489.2168 L475,489.2168 A2.5,2.5 0 0 1 472.5,486.7168 L472.5,353.7168 A2.5,2.5 0 0 1 475,351.2168 " fill="none" style="stroke:#000000;stroke-width:1.5;"/><line style="stroke:#000000;stroke-width:1.5;" x1="472.5" x2="688.5" y1="380.498" y2="380.498"/><text fill="#000000" font-family="sans-serif" font-size="20" font-weight="bold" lengthAdjust="spacing" textLength="203" x="476.5" y="371.7813">«aggregate» User</text></g><!--cluster <<aggregate>> Board--><g id="cluster_&lt;&lt;aggregate&gt;&gt; Board"><path d="M724,351.2168 L943,351.2168 A3.75,3.75 0 0 1 945.5,353.7168 L952.5,380.498 L953,380.498 A2.5,2.5 0 0 1 955.5,382.998 L955.5,486.7168 A2.5,2.5 0 0 1 953,489.2168 L724,489.2168 A2.5,2.5 0 0 1 721.5,486.7168 L721.5,353.7168 A2.5,2.5 0 0 1 724,351.2168 " fill="none" style="stroke:#000000;stroke-width:1.5;"/><line style="stroke:#000000;stroke-width:1.5;" x1="721.5" x2="952.5" y1="380.498" y2="380.498"/><text fill="#000000" font-family="sans-serif" font-size="20" font-weight="bold" lengthAdjust="spacing" textLength="218" x="725.5" y="371.7813">«aggregate» Board</text></g><!--class PostIt--><g id="elem_PostIt"><rect codeLine="24" fill="#F5F5DC" height="111.125" id="PostIt" rx="2.5" ry="2.5" style="stroke:#181818;stroke-width:0.5;" width="117" x="155" y="49.2168"/><ellipse cx="172.8" cy="89.1387" fill="#ADD1B2" rx="12" ry="12" style="stroke:#181818;stroke-width:1.0;"/><path d="M177.5188,96.6387 L168.4406,96.6387 L168.4406,82.0605 L177.5188,82.0605 L177.5188,84.5918 L171.3156,84.5918 L171.3156,87.748 L176.9406,87.748 L176.9406,90.2793 L171.3156,90.2793 L171.3156,94.0918 L177.5188,94.0918 L177.5188,96.6387 Z " fill="#000000"/><text fill="#000000" font-family="sans-serif" font-size="20" font-style="italic" lengthAdjust="spacing" textLength="83" x="186.2" y="72.7813">«entity»</text><text fill="#000000" font-family="sans-serif" font-size="20" font-style="italic" lengthAdjust="spacing" textLength="64" x="195.7" y="96.0625">«root»</text><text fill="#000000" font-family="sans-serif" font-size="20" lengthAdjust="spacing" textLength="56" x="199.7" y="119.3438">PostIt</text><line style="stroke:#181818;stroke-width:0.5;" x1="156" x2="271" y1="129.0605" y2="129.0605"/><text fill="#000000" font-family="sans-serif" font-size="20" lengthAdjust="spacing" textLength="105" x="161" y="151.625">-createdAt</text></g><!--class Title--><g id="elem_Title"><rect codeLine="28" fill="#F5F5DC" height="56.5625" id="Title" rx="2.5" ry="2.5" style="stroke:#181818;stroke-width:0.5;" width="177" x="422" y="76.2168"/><ellipse cx="438" cy="104.498" fill="#FF8B40" rx="12" ry="12" style="stroke:#181818;stroke-width:1.0;"/><path d="M438.0156,110.3418 L440.5781,98.1699 L443.4844,98.1699 L440.0156,112.748 L436.0313,112.748 L432.5625,98.1699 L435.4531,98.1699 L438.0156,110.3418 Z " fill="#000000"/><text fill="#000000" font-family="sans-serif" font-size="20" font-style="italic" lengthAdjust="spacing" textLength="147" x="451" y="99.7813">«value object»</text><text fill="#000000" font-family="sans-serif" font-size="20" lengthAdjust="spacing" textLength="44" x="502.5" y="123.0625">Title</text></g><!--class State--><g id="elem_State"><rect codeLine="30" fill="#F5F5DC" height="56.5625" id="State" rx="2.5" ry="2.5" style="stroke:#181818;stroke-width:0.5;" width="177" x="154" y="245.2168"/><ellipse cx="170" cy="273.498" fill="#FF8B40" rx="12" ry="12" style="stroke:#181818;stroke-width:1.0;"/><path d="M170.0156,279.3418 L172.5781,267.1699 L175.4844,267.1699 L172.0156,281.748 L168.0313,281.748 L164.5625,267.1699 L167.4531,267.1699 L170.0156,279.3418 Z " fill="#000000"/><text fill="#000000" font-family="sans-serif" font-size="20" font-style="italic" lengthAdjust="spacing" textLength="147" x="183" y="268.7813">«value object»</text><text fill="#000000" font-family="sans-serif" font-size="20" lengthAdjust="spacing" textLength="53" x="230" y="292.0625">State</text></g><!--class Coordinates--><g id="elem_Coordinates"><rect codeLine="31" fill="#F5F5DC" height="56.5625" id="Coordinates" rx="2.5" ry="2.5" style="stroke:#181818;stroke-width:0.5;" width="177" x="366" y="245.2168"/><ellipse cx="382" cy="273.498" fill="#FF8B40" rx="12" ry="12" style="stroke:#181818;stroke-width:1.0;"/><path d="M382.0156,279.3418 L384.5781,267.1699 L387.4844,267.1699 L384.0156,281.748 L380.0313,281.748 L376.5625,267.1699 L379.4531,267.1699 L382.0156,279.3418 Z " fill="#000000"/><text fill="#000000" font-family="sans-serif" font-size="20" font-style="italic" lengthAdjust="spacing" textLength="147" x="395" y="268.7813">«value object»</text><text fill="#000000" font-family="sans-serif" font-size="20" lengthAdjust="spacing" textLength="120" x="408.5" y="292.0625">Coordinates</text></g><!--class User--><g id="elem_User"><rect codeLine="21" fill="#F5F5DC" height="79.8438" id="User" rx="2.5" ry="2.5" style="stroke:#181818;stroke-width:0.5;" width="113" x="557" y="393.2168"/><ellipse cx="573" cy="433.1387" fill="#ADD1B2" rx="12" ry="12" style="stroke:#181818;stroke-width:1.0;"/><path d="M577.7188,440.6387 L568.6406,440.6387 L568.6406,426.0605 L577.7188,426.0605 L577.7188,428.5918 L571.5156,428.5918 L571.5156,431.748 L577.1406,431.748 L577.1406,434.2793 L571.5156,434.2793 L571.5156,438.0918 L577.7188,438.0918 L577.7188,440.6387 Z " fill="#000000"/><text fill="#000000" font-family="sans-serif" font-size="20" font-style="italic" lengthAdjust="spacing" textLength="83" x="586" y="416.7813">«entity»</text><text fill="#000000" font-family="sans-serif" font-size="20" font-style="italic" lengthAdjust="spacing" textLength="64" x="595.5" y="440.0625">«root»</text><text fill="#000000" font-family="sans-serif" font-size="20" lengthAdjust="spacing" textLength="45" x="605" y="463.3438">User</text></g><!--class Board--><g id="elem_Board"><rect codeLine="42" fill="#F5F5DC" height="79.8438" id="Board" rx="2.5" ry="2.5" style="stroke:#181818;stroke-width:0.5;" width="113" x="748" y="393.2168"/><ellipse cx="764" cy="433.1387" fill="#ADD1B2" rx="12" ry="12" style="stroke:#181818;stroke-width:1.0;"/><path d="M768.7188,440.6387 L759.6406,440.6387 L759.6406,426.0605 L768.7188,426.0605 L768.7188,428.5918 L762.5156,428.5918 L762.5156,431.748 L768.1406,431.748 L768.1406,434.2793 L762.5156,434.2793 L762.5156,438.0918 L768.7188,438.0918 L768.7188,440.6387 Z " fill="#000000"/><text fill="#000000" font-family="sans-serif" font-size="20" font-style="italic" lengthAdjust="spacing" textLength="83" x="777" y="416.7813">«entity»</text><text fill="#000000" font-family="sans-serif" font-size="20" font-style="italic" lengthAdjust="spacing" textLength="64" x="786.5" y="440.0625">«root»</text><text fill="#000000" font-family="sans-serif" font-size="20" lengthAdjust="spacing" textLength="59" x="789" y="463.3438">Board</text></g><g id="elem_GMN9"><path d="M6,245.2168 L6,301.7793 A0,0 0 0 0 6,301.7793 L119,301.7793 A0,0 0 0 0 119,301.7793 L119,277.7168 L153.81,273.7168 L119,269.7168 L119,255.2168 L109,245.2168 L6,245.2168 A0,0 0 0 0 6,245.2168 " fill="#FEFFDD" style="stroke:#181818;stroke-width:0.5;"/><path d="M109,245.2168 L109,255.2168 L119,255.2168 L109,245.2168 " fill="#FEFFDD" style="stroke:#181818;stroke-width:0.5;"/><text fill="#000000" font-family="sans-serif" font-size="20" lengthAdjust="spacing" textLength="73" x="12" y="268.7813">ACTIVE</text><text fill="#000000" font-family="sans-serif" font-size="20" lengthAdjust="spacing" textLength="92" x="12" y="292.0625">DELETED</text></g><!--reverse link PostIt to Title--><g id="link_PostIt_Title"><path codeLine="45" d="M285.23,104.7168 C330.67,104.7168 376.12,104.7168 421.56,104.7168 " fill="none" id="PostIt-backto-Title" style="stroke:#222222;stroke-width:1.0;"/><polygon fill="#222222" points="272.09,104.7168,278.09,108.7168,284.09,104.7168,278.09,100.7168,272.09,104.7168" style="stroke:#222222;stroke-width:1.0;"/></g><!--link PostIt to State--><g id="link_PostIt_State"><path codeLine="46" d="M223,160.3968 C227.57,186.7568 232.91,217.4768 236.84,240.1168 " fill="none" id="PostIt-to-State" style="stroke:#222222;stroke-width:1.0;"/><polygon fill="#222222" points="237.71,245.1068,240.1041,235.5534,236.8509,240.1812,232.2231,236.9279,237.71,245.1068" style="stroke:#222222;stroke-width:1.0;"/><text fill="#000000" font-family="sans-serif" font-size="20" lengthAdjust="spacing" textLength="35" x="233.5" y="209.7813">has</text><text fill="#000000" font-family="sans-serif" font-size="20" lengthAdjust="spacing" textLength="13" x="222.3814" y="232.4727">1</text></g><!--link PostIt to Board--><g id="link_PostIt_Board"><path codeLine="48" d="M272.35,122.8668 C310.06,133.7768 360.09,148.0768 404.5,160.2168 C548.52,199.5868 617.51,146.4768 729.5,245.2168 C771.23,282.0068 790.05,345.2568 798.33,387.8868 " fill="none" id="PostIt-to-Board" style="stroke:#222222;stroke-width:1.0;"/><polygon fill="#222222" points="799.29,392.9868,801.5494,383.4006,798.3617,388.0737,793.6885,384.886,799.29,392.9868" style="stroke:#222222;stroke-width:1.0;"/><text fill="#000000" font-family="sans-serif" font-size="20" lengthAdjust="spacing" textLength="105" x="781.5" y="280.7813">belongs to</text><text fill="#000000" font-family="sans-serif" font-size="20" lengthAdjust="spacing" textLength="13" x="784.4237" y="380.3416">1</text></g><!--link PostIt to PostIt--><g id="link_PostIt_PostIt"><path codeLine="49" d="M272.39,86.3468 C291.66,86.4368 307,92.5668 307,104.7168 C307,115.7268 294.4,121.7968 277.7,122.9068 " fill="none" id="PostIt-to-PostIt" style="stroke:#222222;stroke-width:1.0;"/><polygon fill="#222222" points="272.39,123.0868,281.5218,126.7761,277.3871,122.9155,281.2477,118.7808,272.39,123.0868" style="stroke:#222222;stroke-width:1.0;"/><text fill="#000000" font-family="sans-serif" font-size="20" lengthAdjust="spacing" textLength="85" x="313" y="111.7813">previous</text><text fill="#000000" font-family="sans-serif" font-size="20" lengthAdjust="spacing" textLength="38" x="280.0573" y="144.5993">0..1</text></g><!--link PostIt to Coordinates--><g id="link_PostIt_Coordinates"><path codeLine="50" d="M272.15,146.3568 C314.76,175.8868 371.54,215.2268 410.35,242.1168 " fill="none" id="PostIt-to-Coordinates" style="stroke:#222222;stroke-width:1.0;"/><polygon fill="#222222" points="414.52,245.0068,409.4032,236.5914,410.4111,242.1578,404.8448,243.1657,414.52,245.0068" style="stroke:#222222;stroke-width:1.0;"/><text fill="#000000" font-family="sans-serif" font-size="20" lengthAdjust="spacing" textLength="35" x="371.5" y="209.7813">has</text><text fill="#000000" font-family="sans-serif" font-size="20" lengthAdjust="spacing" textLength="13" x="391.9335" y="232.3521">1</text></g><!--link PostIt to User--><g id="link_PostIt_User"><path codeLine="51" d="M272,122.3968 C360.09,148.5968 520.72,200.9768 560.5,245.2168 C595.98,284.6768 607.87,346.2368 611.76,387.8368 " fill="none" id="PostIt-to-User" style="stroke:#222222;stroke-width:1.0;"/><polygon fill="#222222" points="612.22,393.0668,615.4345,383.7573,611.7918,388.0852,607.4639,384.4424,612.22,393.0668" style="stroke:#222222;stroke-width:1.0;"/><text fill="#000000" font-family="sans-serif" font-size="20" lengthAdjust="spacing" textLength="119" x="601.5" y="280.7813">is owned by</text><text fill="#000000" font-family="sans-serif" font-size="20" lengthAdjust="spacing" textLength="13" x="597.9801" y="380.4344">1</text></g><!--SRC=[XLF1JkCm4BtxAqRbi0iYRK5xG55KgIsjL6aFI1JkRZnDlNKyaJq1iMZ_7SS9tRI0oCapy-QzcMV7xxMjf9EbeNoF2XHkPMruIPRlzL-4wx7uiMEkV3eQLKPQhaippAaSvKPwdoWjYz0iX7_dWLYOCZkzgHbNETb8D1OxhH2mhFW5v7lPzxCbyewKF-MQoNnVEAgjcfCX1nlK1VP0K-VekIsTNSTFY2hqo09Xa6MoA1mMad4oWJlolE81l0e0jAo3Q9iI8H75OAtPu26wvz1uYEP4Jcahcxd_VIdouD4TIJI91jyB8SlQAE2pp15nEBpsGErOdy4QuWHoXq5DJRdfwKqUO3yVBy-MovlPh_4vF4bJ8z3c3-PHuG2EYtqB_h3sz_IM0g_1BGDj3_PDv-lLuo8SRXU_5-l5RTXIGOFyqiGPIQUEN8oPdaCn_joW0EhykqYw2-tY99d0u6hGhP_2JdhnlzOLM-OqF3H3jl30TDG-7Wu3gCkaK3byqbJxKuc-QwtGgKvy22be3_Himx-tUH5l]--></g></svg>