<?xml version="1.0" encoding="UTF-8" standalone="no"?><svg xmlns="http://www.w3.org/2000/svg" xmlns:xlink="http://www.w3.org/1999/xlink" contentStyleType="text/css" height="544px" preserveAspectRatio="none" style="width:885px;height:544px;background:#FFFFFF;" version="1.1" viewBox="0 0 885 544" width="885px" zoomAndPan="magnify"><defs/><g><!--cluster <<aggregate>> PostIt--><g id="cluster_&lt;&lt;aggregate&gt;&gt; PostIt"><path d="M133.5,8.36 L327.125,8.36 A3.75,3.75 0 0 1 329.625,10.86 L336.625,41.6 L577.5,41.6 A2.5,2.5 0 0 1 580,44.1 L580,347.86 A2.5,2.5 0 0 1 577.5,350.36 L133.5,350.36 A2.5,2.5 0 0 1 131,347.86 L131,10.86 A2.5,2.5 0 0 1 133.5,8.36 " fill="none" style="stroke:#000000;stroke-width:1.5;"/><line style="stroke:#000000;stroke-width:1.5;" x1="131" x2="336.625" y1="41.6" y2="41.6"/><text fill="#000000" font-family="sans-serif" font-size="20" font-weight="bold" lengthAdjust="spacing" textLength="192.625" x="135" y="31.74">«aggregate» PostIt</text></g><!--cluster <<aggregate>> User--><g id="cluster_&lt;&lt;aggregate&gt;&gt; User"><path d="M444.5,383.36 L624.875,383.36 A3.75,3.75 0 0 1 627.375,385.86 L634.375,416.6 L634.5,416.6 A2.5,2.5 0 0 1 637,419.1 L637,534.86 A2.5,2.5 0 0 1 634.5,537.36 L444.5,537.36 A2.5,2.5 0 0 1 442,534.86 L442,385.86 A2.5,2.5 0 0 1 444.5,383.36 " fill="none" style="stroke:#000000;stroke-width:1.5;"/><line style="stroke:#000000;stroke-width:1.5;" x1="442" x2="634.375" y1="416.6" y2="416.6"/><text fill="#000000" font-family="sans-serif" font-size="20" font-weight="bold" lengthAdjust="spacing" textLength="179.375" x="446" y="406.74">«aggregate» User</text></g><!--cluster <<aggregate>> Board--><g id="cluster_&lt;&lt;aggregate&gt;&gt; Board"><path d="M671.5,383.36 L865.5,383.36 A3.75,3.75 0 0 1 868,385.86 L875,416.6 L875.5,416.6 A2.5,2.5 0 0 1 878,419.1 L878,534.86 A2.5,2.5 0 0 1 875.5,537.36 L671.5,537.36 A2.5,2.5 0 0 1 669,534.86 L669,385.86 A2.5,2.5 0 0 1 671.5,383.36 " fill="none" style="stroke:#000000;stroke-width:1.5;"/><line style="stroke:#000000;stroke-width:1.5;" x1="669" x2="875" y1="416.6" y2="416.6"/><text fill="#000000" font-family="sans-serif" font-size="20" font-weight="bold" lengthAdjust="spacing" textLength="193" x="673" y="406.74">«aggregate» Board</text></g><!--class PostIt--><g id="elem_PostIt"><rect codeLine="24" fill="#F5F5DC" height="126.9599" id="PostIt" rx="2.5" ry="2.5" style="stroke:#181818;stroke-width:0.5;" width="112" x="147" y="54.36"/><ellipse cx="168.4" cy="100.22" fill="#ADD1B2" rx="12" ry="12" style="stroke:#181818;stroke-width:1.0;"/><path d="M172.4469,107.72 L163.8375,107.72 L163.8375,92.8137 L172.4469,92.8137 L172.4469,95.0168 L166.2594,95.0168 L166.2594,98.8606 L172.0875,98.8606 L172.0875,101.0325 L166.2594,101.0325 L166.2594,105.5168 L172.4469,105.5168 L172.4469,107.72 Z " fill="#000000"/><text fill="#000000" font-family="sans-serif" font-size="20" font-style="italic" lengthAdjust="spacing" textLength="70" x="182.6" y="80.74">«entity»</text><text fill="#000000" font-family="sans-serif" font-size="20" font-style="italic" lengthAdjust="spacing" textLength="57" x="189.1" y="107.9799">«root»</text><text fill="#000000" font-family="sans-serif" font-size="20" lengthAdjust="spacing" textLength="57" x="189.1" y="135.2199">PostIt</text><line style="stroke:#181818;stroke-width:0.5;" x1="148" x2="258" y1="146.0799" y2="146.0799"/><text fill="#000000" font-family="sans-serif" font-size="20" lengthAdjust="spacing" textLength="100" x="153" y="171.4599">-createdAt</text></g><!--class Title--><g id="elem_Title"><rect codeLine="28" fill="#F5F5DC" height="64.4799" id="Title" rx="2.5" ry="2.5" style="stroke:#181818;stroke-width:0.5;" width="156" x="408" y="85.86"/><ellipse cx="424" cy="118.1" fill="#FF8B40" rx="12" ry="12" style="stroke:#181818;stroke-width:1.0;"/><path d="M430.25,111.9437 L424.9375,126.85 L422.6875,126.85 L417.375,111.9437 L419.9063,111.9437 L423.2031,121.3031 Q423.4219,121.8968 423.5781,122.4437 Q423.75,122.9906 423.875,123.4906 Q424.0156,123.975 423.8125,124.0218 Q423.5938,123.9906 423.7344,123.475 Q423.875,122.9593 424.0469,122.4281 Q424.2188,121.8812 424.4219,121.2718 L427.6875,111.9437 L430.25,111.9437 Z " fill="#000000"/><text fill="#000000" font-family="sans-serif" font-size="20" font-style="italic" lengthAdjust="spacing" textLength="126" x="437" y="112.24">«value object»</text><text fill="#000000" font-family="sans-serif" font-size="20" lengthAdjust="spacing" textLength="44" x="478" y="139.4799">Title</text></g><!--class State--><g id="elem_State"><rect codeLine="30" fill="#F5F5DC" height="64.4799" id="State" rx="2.5" ry="2.5" style="stroke:#181818;stroke-width:0.5;" width="156" x="147" y="270.36"/><ellipse cx="163" cy="302.6" fill="#FF8B40" rx="12" ry="12" style="stroke:#181818;stroke-width:1.0;"/><path d="M169.25,296.4437 L163.9375,311.35 L161.6875,311.35 L156.375,296.4437 L158.9063,296.4437 L162.2031,305.8031 Q162.4219,306.3968 162.5781,306.9437 Q162.75,307.4906 162.875,307.9906 Q163.0156,308.475 162.8125,308.5218 Q162.5938,308.4906 162.7344,307.975 Q162.875,307.4593 163.0469,306.9281 Q163.2188,306.3812 163.4219,305.7718 L166.6875,296.4437 L169.25,296.4437 Z " fill="#000000"/><text fill="#000000" font-family="sans-serif" font-size="20" font-style="italic" lengthAdjust="spacing" textLength="126" x="176" y="296.74">«value object»</text><text fill="#000000" font-family="sans-serif" font-size="20" lengthAdjust="spacing" textLength="49" x="214.5" y="323.9799">State</text></g><!--class Coordinates--><g id="elem_Coordinates"><rect codeLine="31" fill="#F5F5DC" height="64.4799" id="Coordinates" rx="2.5" ry="2.5" style="stroke:#181818;stroke-width:0.5;" width="156" x="338" y="270.36"/><ellipse cx="354" cy="302.6" fill="#FF8B40" rx="12" ry="12" style="stroke:#181818;stroke-width:1.0;"/><path d="M360.25,296.4437 L354.9375,311.35 L352.6875,311.35 L347.375,296.4437 L349.9063,296.4437 L353.2031,305.8031 Q353.4219,306.3968 353.5781,306.9437 Q353.75,307.4906 353.875,307.9906 Q354.0156,308.475 353.8125,308.5218 Q353.5938,308.4906 353.7344,307.975 Q353.875,307.4593 354.0469,306.9281 Q354.2188,306.3812 354.4219,305.7718 L357.6875,296.4437 L360.25,296.4437 Z " fill="#000000"/><text fill="#000000" font-family="sans-serif" font-size="20" font-style="italic" lengthAdjust="spacing" textLength="126" x="367" y="296.74">«value object»</text><text fill="#000000" font-family="sans-serif" font-size="20" lengthAdjust="spacing" textLength="117" x="371.5" y="323.9799">Coordinates</text></g><!--class User--><g id="elem_User"><rect codeLine="21" fill="#F5F5DC" height="91.7199" id="User" rx="2.5" ry="2.5" style="stroke:#181818;stroke-width:0.5;" width="100" x="514" y="429.36"/><ellipse cx="530" cy="475.22" fill="#ADD1B2" rx="12" ry="12" style="stroke:#181818;stroke-width:1.0;"/><path d="M534.0469,482.72 L525.4375,482.72 L525.4375,467.8137 L534.0469,467.8137 L534.0469,470.0168 L527.8594,470.0168 L527.8594,473.8606 L533.6875,473.8606 L533.6875,476.0325 L527.8594,476.0325 L527.8594,480.5168 L534.0469,480.5168 L534.0469,482.72 Z " fill="#000000"/><text fill="#000000" font-family="sans-serif" font-size="20" font-style="italic" lengthAdjust="spacing" textLength="70" x="543" y="455.74">«entity»</text><text fill="#000000" font-family="sans-serif" font-size="20" font-style="italic" lengthAdjust="spacing" textLength="57" x="549.5" y="482.9799">«root»</text><text fill="#000000" font-family="sans-serif" font-size="20" lengthAdjust="spacing" textLength="45" x="555.5" y="510.2199">User</text></g><!--class Board--><g id="elem_Board"><rect codeLine="42" fill="#F5F5DC" height="91.7199" id="Board" rx="2.5" ry="2.5" style="stroke:#181818;stroke-width:0.5;" width="100" x="700" y="429.36"/><ellipse cx="716" cy="475.22" fill="#ADD1B2" rx="12" ry="12" style="stroke:#181818;stroke-width:1.0;"/><path d="M720.0469,482.72 L711.4375,482.72 L711.4375,467.8137 L720.0469,467.8137 L720.0469,470.0168 L713.8594,470.0168 L713.8594,473.8606 L719.6875,473.8606 L719.6875,476.0325 L713.8594,476.0325 L713.8594,480.5168 L720.0469,480.5168 L720.0469,482.72 Z " fill="#000000"/><text fill="#000000" font-family="sans-serif" font-size="20" font-style="italic" lengthAdjust="spacing" textLength="70" x="729" y="455.74">«entity»</text><text fill="#000000" font-family="sans-serif" font-size="20" font-style="italic" lengthAdjust="spacing" textLength="57" x="735.5" y="482.9799">«root»</text><text fill="#000000" font-family="sans-serif" font-size="20" lengthAdjust="spacing" textLength="58" x="735" y="510.2199">Board</text></g><g id="elem_GMN9"><path d="M6,270.36 L6,334.8399 A0,0 0 0 0 6,334.8399 L112,334.8399 A0,0 0 0 0 112,334.8399 L112,306.36 L146.99,302.36 L112,298.36 L112,280.36 L102,270.36 L6,270.36 A0,0 0 0 0 6,270.36 " fill="#FEFFDD" style="stroke:#181818;stroke-width:0.5;"/><path d="M102,270.36 L102,280.36 L112,280.36 L102,270.36 " fill="#FEFFDD" style="stroke:#181818;stroke-width:0.5;"/><text fill="#000000" font-family="sans-serif" font-size="20" lengthAdjust="spacing" textLength="68" x="12" y="296.74">ACTIVE</text><text fill="#000000" font-family="sans-serif" font-size="20" lengthAdjust="spacing" textLength="85" x="12" y="323.9799">DELETED</text></g><!--reverse link PostIt to Title--><g id="link_PostIt_Title"><path codeLine="45" d="M272.15,117.86 C317.29,117.86 362.42,117.86 407.56,117.86 " fill="none" id="PostIt-backto-Title" style="stroke:#222222;stroke-width:1.0;"/><polygon fill="#222222" points="259.1,117.86,265.1,121.86,271.1,117.86,265.1,113.86,259.1,117.86" style="stroke:#222222;stroke-width:1.0;"/></g><!--link PostIt to State--><g id="link_PostIt_State"><path codeLine="46" d="M210.54,181.41 C213.91,209.35 217.76,241.28 220.64,265.17 " fill="none" id="PostIt-to-State" style="stroke:#222222;stroke-width:1.0;"/><polygon fill="#222222" points="221.24,270.14,224.1328,260.7256,220.6409,265.176,216.1904,261.6841,221.24,270.14" style="stroke:#222222;stroke-width:1.0;"/><text fill="#000000" font-family="sans-serif" font-size="20" lengthAdjust="spacing" textLength="34" x="219" y="233.74">has</text><text fill="#000000" font-family="sans-serif" font-size="20" lengthAdjust="spacing" textLength="11" x="208.6484" y="256.6412">1</text></g><!--link PostIt to Board--><g id="link_PostIt_Board"><path codeLine="48" d="M259.36,138.04 C296.42,150.56 346.02,167.17 390,181.36 C516.69,222.24 579.71,178.43 676,270.36 C718.59,311.02 736.76,378.08 744.45,424.14 " fill="none" id="PostIt-to-Board" style="stroke:#222222;stroke-width:1.0;"/><polygon fill="#222222" points="745.25,429.09,747.7563,419.5654,744.4489,424.1546,739.8597,420.8472,745.25,429.09" style="stroke:#222222;stroke-width:1.0;"/><text fill="#000000" font-family="sans-serif" font-size="20" lengthAdjust="spacing" textLength="103" x="728" y="310.24">belongs to</text><text fill="#000000" font-family="sans-serif" font-size="20" lengthAdjust="spacing" textLength="11" x="732.8727" y="415.4733">1</text></g><!--link PostIt to PostIt--><g id="link_PostIt_PostIt"><path codeLine="49" d="M259.43,97.61 C278.6,97.5 294,104.25 294,117.86 C294,130.19 281.35,136.89 264.71,137.96 " fill="none" id="PostIt-to-PostIt" style="stroke:#222222;stroke-width:1.0;"/><polygon fill="#222222" points="259.43,138.11,268.5406,141.8513,264.428,137.9672,268.3121,133.8546,259.43,138.11" style="stroke:#222222;stroke-width:1.0;"/><text fill="#000000" font-family="sans-serif" font-size="20" lengthAdjust="spacing" textLength="84" x="300" y="125.74">previous</text><text fill="#000000" font-family="sans-serif" font-size="20" lengthAdjust="spacing" textLength="32" x="266.8993" y="133.2005">0..1</text></g><!--link PostIt to Coordinates--><g id="link_PostIt_Coordinates"><path codeLine="50" d="M259.24,167.05 C295.84,198.41 342.71,238.57 375.63,266.77 " fill="none" id="PostIt-to-Coordinates" style="stroke:#222222;stroke-width:1.0;"/><polygon fill="#222222" points="379.57,270.15,375.3399,261.2558,375.7737,266.896,370.1335,267.3299,379.57,270.15" style="stroke:#222222;stroke-width:1.0;"/><text fill="#000000" font-family="sans-serif" font-size="20" lengthAdjust="spacing" textLength="34" x="343" y="233.74">has</text><text fill="#000000" font-family="sans-serif" font-size="20" lengthAdjust="spacing" textLength="11" x="361.1012" y="256.3665">1</text></g><!--link PostIt to User--><g id="link_PostIt_User"><path codeLine="51" d="M259.23,139.83 C338.72,170.52 478.05,228.57 512,270.36 C547.51,314.06 559.11,379.05 562.72,423.87 " fill="none" id="PostIt-to-User" style="stroke:#222222;stroke-width:1.0;"/><polygon fill="#222222" points="563.1,428.96,566.3939,419.6783,562.7143,423.9749,558.4177,420.2953,563.1,428.96" style="stroke:#222222;stroke-width:1.0;"/><text fill="#000000" font-family="sans-serif" font-size="20" lengthAdjust="spacing" textLength="114" x="553" y="310.24">is owned by</text><text fill="#000000" font-family="sans-serif" font-size="20" lengthAdjust="spacing" textLength="11" x="551.24" y="415.3259">1</text></g><!--SRC=[XLF1JkCm4BtxAqRbi0iYRK5xG55KgIsjL6aFI1JkRZnDlNKyaJq1iMZ_7SS9tRI0oCapy-QzcMV7xxMjf9EbeNoF2XHkPMruIPRlzL-4wx7uiMEkV3eQLKPQhaippAaSvKPwdoWjYz0iX7_dWLYOCZkzgHbNETb8D1OxhH2mhFW5v7lPzxCbyewKF-MQoNnVEAgjcfCX1nlK1VP0K-VekIsTNSTFY2hqo09Xa6MoA1mMad4oWJlolE81l0e0jAo3Q9iI8H75OAtPu26wvz1uYEP4Jcahcxd_VIdouD4TIJI91jyB8SlQAE2pp15nEBpsGErOdy4QuWHoXq5DJRdfwKqUO3yVBy-MovlPh_4vF4bJ8z3c3-PHuG2EYtqB_h3sz_IM0g_1BGDj3_PDv-lLuo8SRXU_5-l5RTXIGOFyqiGPIQUEN8oPdaCn_joW0EhykqYw2-tY99d0u6hGhP_2JdhnlzOLM-OqF3H3jl30TDG-7Wu3gCkaK3byqbJxKuc-QwtGgKvy22be3_Himx-tUH5l]--></g></svg>