<?xml version="1.0" encoding="UTF-8" standalone="no"?><svg xmlns="http://www.w3.org/2000/svg" xmlns:xlink="http://www.w3.org/1999/xlink" contentStyleType="text/css" height="544px" preserveAspectRatio="none" style="width:675px;height:544px;background:#FFFFFF;" version="1.1" viewBox="0 0 675 544" width="675px" zoomAndPan="magnify"><defs/><g><!--cluster <<aggregate>> PostIt--><g id="cluster_&lt;&lt;aggregate&gt;&gt; PostIt"><path d="M133,8.36 L329,8.36 A3.75,3.75 0 0 1 331.5,10.86 L338.5,41.6 L569,41.6 A2.5,2.5 0 0 1 571.5,44.1 L571.5,348.3 A2.5,2.5 0 0 1 569,350.8 L133,350.8 A2.5,2.5 0 0 1 130.5,348.3 L130.5,10.86 A2.5,2.5 0 0 1 133,8.36 " fill="none" style="stroke:#000000;stroke-width:1.5;"/><line style="stroke:#000000;stroke-width:1.5;" x1="130.5" x2="338.5" y1="41.6" y2="41.6"/><text fill="#000000" font-family="sans-serif" font-size="20" font-weight="bold" lengthAdjust="spacing" textLength="195" x="134.5" y="31.74">«aggregate» PostIt</text></g><!--cluster <<aggregate>> Board--><g id="cluster_&lt;&lt;aggregate&gt;&gt; Board"><path d="M462,383.8 L656,383.8 A3.75,3.75 0 0 1 658.5,386.3 L665.5,417.04 L666,417.04 A2.5,2.5 0 0 1 668.5,419.54 L668.5,535.02 A2.5,2.5 0 0 1 666,537.52 L462,537.52 A2.5,2.5 0 0 1 459.5,535.02 L459.5,386.3 A2.5,2.5 0 0 1 462,383.8 " fill="none" style="stroke:#000000;stroke-width:1.5;"/><line style="stroke:#000000;stroke-width:1.5;" x1="459.5" x2="665.5" y1="417.04" y2="417.04"/><text fill="#000000" font-family="sans-serif" font-size="20" font-weight="bold" lengthAdjust="spacing" textLength="193" x="463.5" y="407.18">«aggregate» Board</text></g><!--class PostIt--><g id="elem_PostIt"><rect codeLine="17" fill="#F5F5DC" height="126.9599" id="PostIt" rx="2.5" ry="2.5" style="stroke:#181818;stroke-width:0.5;" width="108" x="146.5" y="54.36"/><ellipse cx="166.1" cy="100.22" fill="#ADD1B2" rx="12" ry="12" style="stroke:#181818;stroke-width:1.0;"/><path d="M161.1938,107.22 L161.1938,92.9387 L170.1938,92.9387 L170.1938,95.4387 L164.0063,95.4387 L164.0063,98.5637 L169.8969,98.5637 L169.8969,101.0637 L164.0063,101.0637 L164.0063,104.72 L170.1938,104.72 L170.1938,107.22 L161.1938,107.22 Z " fill="#000000"/><text fill="#000000" font-family="sans-serif" font-size="20" font-style="italic" lengthAdjust="spacing" textLength="70" x="179.9" y="80.74">«entity»</text><text fill="#000000" font-family="sans-serif" font-size="20" font-style="italic" lengthAdjust="spacing" textLength="57" x="186.4" y="107.9799">«root»</text><text fill="#000000" font-family="sans-serif" font-size="20" lengthAdjust="spacing" textLength="55" x="187.4" y="135.2199">PostIt</text><line style="stroke:#181818;stroke-width:0.5;" x1="147.5" x2="253.5" y1="146.0799" y2="146.0799"/><text fill="#000000" font-family="sans-serif" font-size="20" lengthAdjust="spacing" textLength="96" x="152.5" y="171.4599">-createdAt</text></g><!--class Title--><g id="elem_Title"><rect codeLine="21" fill="#F5F5DC" height="64.4799" id="Title" rx="2.5" ry="2.5" style="stroke:#181818;stroke-width:0.5;" width="156" x="399.5" y="85.6"/><ellipse cx="415.5" cy="117.84" fill="#FF8B40" rx="12" ry="12" style="stroke:#181818;stroke-width:1.0;"/><path d="M413.875,125.84 L409.7031,111.5587 L412.625,111.5587 L414.7969,120.0431 Q414.9063,120.3556 415.0313,120.965 Q415.1563,121.5587 415.2813,122.1837 Q415.4063,122.7931 415.4531,123.2462 L415.6406,123.2462 Q415.7031,122.7931 415.8125,122.1837 Q415.9219,121.5743 416.0313,120.9962 Q416.1563,120.4025 416.2344,120.0431 L418.3438,111.5587 L421.2969,111.5587 L417.125,125.84 L413.875,125.84 Z " fill="#000000"/><text fill="#000000" font-family="sans-serif" font-size="20" font-style="italic" lengthAdjust="spacing" textLength="126" x="428.5" y="111.98">«value object»</text><text fill="#000000" font-family="sans-serif" font-size="20" lengthAdjust="spacing" textLength="39" x="472" y="139.2199">Title</text></g><!--class State--><g id="elem_State"><rect codeLine="23" fill="#F5F5DC" height="64.4799" id="State" rx="2.5" ry="2.5" style="stroke:#181818;stroke-width:0.5;" width="156" x="146.5" y="270.32"/><ellipse cx="162.5" cy="302.56" fill="#FF8B40" rx="12" ry="12" style="stroke:#181818;stroke-width:1.0;"/><path d="M160.875,310.56 L156.7031,296.2787 L159.625,296.2787 L161.7969,304.7631 Q161.9063,305.0756 162.0313,305.685 Q162.1563,306.2787 162.2813,306.9037 Q162.4063,307.5131 162.4531,307.9662 L162.6406,307.9662 Q162.7031,307.5131 162.8125,306.9037 Q162.9219,306.2943 163.0313,305.7162 Q163.1563,305.1225 163.2344,304.7631 L165.3438,296.2787 L168.2969,296.2787 L164.125,310.56 L160.875,310.56 Z " fill="#000000"/><text fill="#000000" font-family="sans-serif" font-size="20" font-style="italic" lengthAdjust="spacing" textLength="126" x="175.5" y="296.7">«value object»</text><text fill="#000000" font-family="sans-serif" font-size="20" lengthAdjust="spacing" textLength="47" x="215" y="323.9399">State</text></g><!--class Coordinates--><g id="elem_Coordinates"><rect codeLine="24" fill="#F5F5DC" height="64.4799" id="Coordinates" rx="2.5" ry="2.5" style="stroke:#181818;stroke-width:0.5;" width="156" x="337.5" y="270.32"/><ellipse cx="353.5" cy="302.56" fill="#FF8B40" rx="12" ry="12" style="stroke:#181818;stroke-width:1.0;"/><path d="M351.875,310.56 L347.7031,296.2787 L350.625,296.2787 L352.7969,304.7631 Q352.9063,305.0756 353.0313,305.685 Q353.1563,306.2787 353.2813,306.9037 Q353.4063,307.5131 353.4531,307.9662 L353.6406,307.9662 Q353.7031,307.5131 353.8125,306.9037 Q353.9219,306.2943 354.0313,305.7162 Q354.1563,305.1225 354.2344,304.7631 L356.3438,296.2787 L359.2969,296.2787 L355.125,310.56 L351.875,310.56 Z " fill="#000000"/><text fill="#000000" font-family="sans-serif" font-size="20" font-style="italic" lengthAdjust="spacing" textLength="126" x="366.5" y="296.7">«value object»</text><text fill="#000000" font-family="sans-serif" font-size="20" lengthAdjust="spacing" textLength="113" x="373" y="323.9399">Coordinates</text></g><!--class Board--><g id="elem_Board"><rect codeLine="35" fill="#F5F5DC" height="91.7199" id="Board" rx="2.5" ry="2.5" style="stroke:#181818;stroke-width:0.5;" width="100" x="513.5" y="429.8"/><ellipse cx="529.5" cy="475.66" fill="#ADD1B2" rx="12" ry="12" style="stroke:#181818;stroke-width:1.0;"/><path d="M524.5938,482.66 L524.5938,468.3787 L533.5938,468.3787 L533.5938,470.8787 L527.4063,470.8787 L527.4063,474.0037 L533.2969,474.0037 L533.2969,476.5037 L527.4063,476.5037 L527.4063,480.16 L533.5938,480.16 L533.5938,482.66 L524.5938,482.66 Z " fill="#000000"/><text fill="#000000" font-family="sans-serif" font-size="20" font-style="italic" lengthAdjust="spacing" textLength="70" x="542.5" y="456.18">«entity»</text><text fill="#000000" font-family="sans-serif" font-size="20" font-style="italic" lengthAdjust="spacing" textLength="57" x="549" y="483.4199">«root»</text><text fill="#000000" font-family="sans-serif" font-size="20" lengthAdjust="spacing" textLength="56" x="549.5" y="510.6599">Board</text></g><g id="elem_GMN7"><path d="M6,270.32 L6,334.7999 A0,0 0 0 0 6,334.7999 L111,334.7999 A0,0 0 0 0 111,334.7999 L111,306.56 L146.27,302.56 L111,298.56 L111,280.32 L101,270.32 L6,270.32 A0,0 0 0 0 6,270.32 " fill="#FEFFDD" style="stroke:#181818;stroke-width:0.5;"/><path d="M101,270.32 L101,280.32 L111,280.32 L101,270.32 " fill="#FEFFDD" style="stroke:#181818;stroke-width:0.5;"/><text fill="#000000" font-family="sans-serif" font-size="20" lengthAdjust="spacing" textLength="67" x="12" y="296.7">ACTIVE</text><text fill="#000000" font-family="sans-serif" font-size="20" lengthAdjust="spacing" textLength="84" x="12" y="323.9399">DELETED</text></g><!--reverse link PostIt to Title--><g id="link_PostIt_Title"><path codeLine="38" d="M268.69,117.84 C312.2,117.84 355.72,117.84 399.23,117.84 " fill="none" id="PostIt-backto-Title" style="stroke:#222222;stroke-width:1.0;"/><polygon fill="#222222" points="255.87,117.84,261.87,121.84,267.87,117.84,261.87,113.84,255.87,117.84" style="stroke:#222222;stroke-width:1.0;"/></g><!--link PostIt to State--><g id="link_PostIt_State"><path codeLine="39" d="M208.76,181.72 C212.36,209.13 216.46,240.34 219.57,264.03 " fill="none" id="PostIt-to-State" style="stroke:#222222;stroke-width:1.0;"/><polygon fill="#222222" points="220.34,268.89,223.1226,259.4424,219.6829,263.9334,215.192,260.4937,220.34,268.89" style="stroke:#222222;stroke-width:1.0;"/><text fill="#000000" font-family="sans-serif" font-size="20" lengthAdjust="spacing" textLength="33" x="216.5" y="233.7">has</text><text fill="#000000" font-family="sans-serif" font-size="20" lengthAdjust="spacing" textLength="11" x="207.6797" y="256.3551">1</text></g><!--link PostIt to Board--><g id="link_PostIt_Board"><path codeLine="41" d="M254.79,138.87 C334.36,169.26 476.99,227.94 511.5,270.32 C547,313.92 558.62,378.77 562.24,423.66 " fill="none" id="PostIt-to-Board" style="stroke:#222222;stroke-width:1.0;"/><polygon fill="#222222" points="562.68,428.59,566.0003,419.3177,562.3085,423.6038,558.0224,419.912,562.68,428.59" style="stroke:#222222;stroke-width:1.0;"/><text fill="#000000" font-family="sans-serif" font-size="20" lengthAdjust="spacing" textLength="98" x="552.5" y="310.44">belongs to</text><text fill="#000000" font-family="sans-serif" font-size="20" lengthAdjust="spacing" textLength="11" x="550.8308" y="415.9814">1</text></g><!--link PostIt to PostIt--><g id="link_PostIt_PostIt"><path codeLine="42" d="M254.82,97.61 C273.96,97.28 289.5,104.03 289.5,117.84 C289.5,130.25 276.96,136.96 260.53,137.96 " fill="none" id="PostIt-to-PostIt" style="stroke:#222222;stroke-width:1.0;"/><polygon fill="#222222" points="255.82,138.08,264.8982,141.8992,260.819,137.98,264.7382,133.9008,255.82,138.08" style="stroke:#222222;stroke-width:1.0;"/><text fill="#000000" font-family="sans-serif" font-size="20" lengthAdjust="spacing" textLength="80" x="295.5" y="125.72">previous</text><text fill="#000000" font-family="sans-serif" font-size="20" lengthAdjust="spacing" textLength="32" x="262.5113" y="133.2103">0..1</text></g><!--link PostIt to Coordinates--><g id="link_PostIt_Coordinates"><path codeLine="43" d="M254.75,164.95 C291.66,196.31 339.77,237.2 373.7,266.04 " fill="none" id="PostIt-to-Coordinates" style="stroke:#222222;stroke-width:1.0;"/><polygon fill="#222222" points="377.19,269.85,372.9241,260.9729,373.3807,266.6113,367.7423,267.0679,377.19,269.85" style="stroke:#222222;stroke-width:1.0;"/><text fill="#000000" font-family="sans-serif" font-size="20" lengthAdjust="spacing" textLength="33" x="340.5" y="233.7">has</text><text fill="#000000" font-family="sans-serif" font-size="20" lengthAdjust="spacing" textLength="11" x="360.0996" y="256.5963">1</text></g><!--SRC=[XL9BQy904BxlhnZieGyQjQM78Y6WLa7eeQ1uNxDZtBhP2RkJbbRwtxicqSO-Q4uxCzzZvYD-gsqXdSmDfLjKe70jIyDJiZpNxmYtVN6-OIxyeDShZBHSvgQRKjvBZVG-KbfcWIo4F-X0DHWoExqg6MSfsKgeBpPQ8M1Uy1l8mzYtkpdoXfJ_hZMIwJPpL5er9aCELgWpR866pj5hFJgxhJuXYi2H6K8dZcMMESmaOvB04tcUSGTs0W0jws1QjqHeL6Qmq6pmMCqv48_LcCWfRUL-xmyXJXGWZkiwsCIn8-8asTj4a3eC33NaFQTb4c0No-kpwVH-TDU_X1TfIWHQFMCQgB0xWgiT_WN_sF1_UKj1r-2QWTR7IuVZnMmv2O-7oUDaCNa8LohO8_yCTKJIgPDCgquheQh-FQ00QlAxYfhicpgA4kZST9hp1x2HNdpDcc6jF0Z_X26RUM0weVUxtG1gEWCe7BveAlrtYtPgjT4d]--></g></svg>