<?xml version="1.0" encoding="UTF-8" standalone="no"?><svg xmlns="http://www.w3.org/2000/svg" xmlns:xlink="http://www.w3.org/1999/xlink" contentStyleType="text/css" height="1286px" preserveAspectRatio="none" style="width:1460px;height:1286px;background:#FFFFFF;" version="1.1" viewBox="0 0 1460 1286" width="1460px" zoomAndPan="magnify"><defs/><g><!--cluster <<agregate>> Question--><g id="cluster_&lt;&lt;agregate&gt;&gt; Question"><path d="M156,785.36 L361.25,785.36 A3.75,3.75 0 0 1 363.75,787.86 L370.75,818.6 L1227,818.6 A2.5,2.5 0 0 1 1229.5,821.1 L1229.5,1276.86 A2.5,2.5 0 0 1 1227,1279.36 L156,1279.36 A2.5,2.5 0 0 1 153.5,1276.86 L153.5,787.86 A2.5,2.5 0 0 1 156,785.36 " fill="none" style="stroke:#000000;stroke-width:1.5;"/><line style="stroke:#000000;stroke-width:1.5;" x1="153.5" x2="370.75" y1="818.6" y2="818.6"/><text fill="#000000" font-family="sans-serif" font-size="20" font-weight="bold" lengthAdjust="spacing" textLength="204.25" x="157.5" y="808.74">«agregate» Question</text></g><!--cluster <<agregate>> ExamAnswer--><g id="cluster_&lt;&lt;agregate&gt;&gt; ExamAnswer"><path d="M617,8.36 L860.5,8.36 A3.75,3.75 0 0 1 863,10.86 L870,41.6 L870,41.6 A2.5,2.5 0 0 1 872.5,44.1 L872.5,284.86 A2.5,2.5 0 0 1 870,287.36 L617,287.36 A2.5,2.5 0 0 1 614.5,284.86 L614.5,10.86 A2.5,2.5 0 0 1 617,8.36 " fill="none" style="stroke:#000000;stroke-width:1.5;"/><line style="stroke:#000000;stroke-width:1.5;" x1="614.5" x2="870" y1="41.6" y2="41.6"/><text fill="#000000" font-family="sans-serif" font-size="20" font-weight="bold" lengthAdjust="spacing" textLength="242.5" x="618.5" y="31.74">«agregate» ExamAnswer</text></g><!--cluster <<agregate>> Exam--><g id="cluster_&lt;&lt;agregate&gt;&gt; Exam"><path d="M636,348.36 L805.75,348.36 A3.75,3.75 0 0 1 808.25,350.86 L815.25,381.6 L851,381.6 A2.5,2.5 0 0 1 853.5,384.1 L853.5,749.86 A2.5,2.5 0 0 1 851,752.36 L636,752.36 A2.5,2.5 0 0 1 633.5,749.86 L633.5,350.86 A2.5,2.5 0 0 1 636,348.36 " fill="none" style="stroke:#000000;stroke-width:1.5;"/><line style="stroke:#000000;stroke-width:1.5;" x1="633.5" x2="815.25" y1="381.6" y2="381.6"/><text fill="#000000" font-family="sans-serif" font-size="20" font-weight="bold" lengthAdjust="spacing" textLength="168.75" x="637.5" y="371.74">«agregate» Exam</text></g><!--cluster <<agregate>> Course--><g id="cluster_&lt;&lt;agregate&gt;&gt; Course"><path d="M1256,998.36 L1441,998.36 A3.75,3.75 0 0 1 1443.5,1000.86 L1450.5,1031.6 L1451,1031.6 A2.5,2.5 0 0 1 1453.5,1034.1 L1453.5,1149.86 A2.5,2.5 0 0 1 1451,1152.36 L1256,1152.36 A2.5,2.5 0 0 1 1253.5,1149.86 L1253.5,1000.86 A2.5,2.5 0 0 1 1256,998.36 " fill="none" style="stroke:#000000;stroke-width:1.5;"/><line style="stroke:#000000;stroke-width:1.5;" x1="1253.5" x2="1450.5" y1="1031.6" y2="1031.6"/><text fill="#000000" font-family="sans-serif" font-size="20" font-weight="bold" lengthAdjust="spacing" textLength="184" x="1257.5" y="1021.74">«agregate» Course</text></g><!--class Question--><g id="elem_Question"><rect codeLine="33" fill="#F5F5DC" height="91.7199" id="Question" rx="2.5" ry="2.5" style="stroke:#181818;stroke-width:0.5;" width="114" x="686.5" y="831.36"/><ellipse cx="702.5" cy="877.22" fill="#A9DCDF" rx="12" ry="12" style="stroke:#181818;stroke-width:1.0;"/><path d="M706.5,883.22 L704.7813,878.7981 L699.5469,878.7981 L697.8438,883.22 L695.3594,883.22 L701.1719,868.2512 L703.2344,868.2512 L709.0313,883.22 L706.5,883.22 Z M702.5625,872.6731 Q702.5,872.5168 702.3594,872.095 Q702.2188,871.6575 702.0781,871.22 Q701.9531,870.7668 702.1875,870.7043 Q702.375,870.9075 702.2656,871.3293 Q702.1563,871.7356 702.0313,872.0793 Q701.9219,872.4231 701.8438,872.6731 L700.3906,876.5793 L704,876.5793 L702.5625,872.6731 Z " fill="#000000"/><text fill="#000000" font-family="sans-serif" font-size="20" font-style="italic" lengthAdjust="spacing" textLength="70" x="722.5" y="857.74">«entity»</text><text fill="#000000" font-family="sans-serif" font-size="20" font-style="italic" lengthAdjust="spacing" textLength="57" x="729" y="884.9799">«root»</text><text fill="#000000" font-family="sans-serif" font-size="20" font-style="italic" lengthAdjust="spacing" textLength="80" x="717.5" y="912.2199">Question</text></g><!--class QuestionBody--><g id="elem_QuestionBody"><rect codeLine="58" fill="#F5F5DC" height="64.4799" id="QuestionBody" rx="2.5" ry="2.5" style="stroke:#181818;stroke-width:0.5;" width="166" x="835.5" y="845.36"/><ellipse cx="851.5" cy="877.6" fill="#FF8B40" rx="12" ry="12" style="stroke:#181818;stroke-width:1.0;"/><path d="M857.75,871.4437 L852.4375,886.35 L850.1875,886.35 L844.875,871.4437 L847.4063,871.4437 L850.7031,880.8031 Q850.9219,881.3968 851.0781,881.9437 Q851.25,882.4906 851.375,882.9906 Q851.5156,883.475 851.3125,883.5218 Q851.0938,883.4906 851.2344,882.975 Q851.375,882.4593 851.5469,881.9281 Q851.7188,881.3812 851.9219,880.7718 L855.1875,871.4437 L857.75,871.4437 Z " fill="#000000"/><text fill="#000000" font-family="sans-serif" font-size="20" font-style="italic" lengthAdjust="spacing" textLength="126" x="869.5" y="871.74">«value object»</text><text fill="#000000" font-family="sans-serif" font-size="20" lengthAdjust="spacing" textLength="132" x="866.5" y="898.9799">QuestionBody</text></g><!--class CorrectAnswer--><g id="elem_CorrectAnswer"><rect codeLine="59" fill="#F5F5DC" height="64.4799" id="CorrectAnswer" rx="2.5" ry="2.5" style="stroke:#181818;stroke-width:0.5;" width="173" x="442" y="1058.36"/><ellipse cx="458" cy="1090.6" fill="#FF8B40" rx="12" ry="12" style="stroke:#181818;stroke-width:1.0;"/><path d="M464.25,1084.4437 L458.9375,1099.35 L456.6875,1099.35 L451.375,1084.4437 L453.9063,1084.4437 L457.2031,1093.8031 Q457.4219,1094.3968 457.5781,1094.9437 Q457.75,1095.4906 457.875,1095.9906 Q458.0156,1096.475 457.8125,1096.5218 Q457.5938,1096.4906 457.7344,1095.975 Q457.875,1095.4593 458.0469,1094.9281 Q458.2188,1094.3812 458.4219,1093.7718 L461.6875,1084.4437 L464.25,1084.4437 Z " fill="#000000"/><text fill="#000000" font-family="sans-serif" font-size="20" font-style="italic" lengthAdjust="spacing" textLength="126" x="479.5" y="1084.74">«value object»</text><text fill="#000000" font-family="sans-serif" font-size="20" lengthAdjust="spacing" textLength="139" x="473" y="1111.9799">CorrectAnswer</text></g><!--class Matching--><g id="elem_Matching"><rect codeLine="81" fill="#F5F5DC" height="64.4799" id="Matching" rx="2.5" ry="2.5" style="stroke:#181818;stroke-width:0.5;" width="121" x="170" y="1199.36"/><ellipse cx="186" cy="1231.6" fill="#ADD1B2" rx="12" ry="12" style="stroke:#181818;stroke-width:1.0;"/><path d="M190.0469,1239.1 L181.4375,1239.1 L181.4375,1224.1937 L190.0469,1224.1937 L190.0469,1226.3968 L183.8594,1226.3968 L183.8594,1230.2406 L189.6875,1230.2406 L189.6875,1232.4125 L183.8594,1232.4125 L183.8594,1236.8968 L190.0469,1236.8968 L190.0469,1239.1 Z " fill="#000000"/><text fill="#000000" font-family="sans-serif" font-size="20" font-style="italic" lengthAdjust="spacing" textLength="70" x="209.5" y="1225.74">«entity»</text><text fill="#000000" font-family="sans-serif" font-size="20" lengthAdjust="spacing" textLength="87" x="201" y="1252.9799">Matching</text></g><!--class MultipleChoice--><g id="elem_MultipleChoice"><rect codeLine="82" fill="#F5F5DC" height="64.4799" id="MultipleChoice" rx="2.5" ry="2.5" style="stroke:#181818;stroke-width:0.5;" width="172" x="326.5" y="1199.36"/><ellipse cx="342.5" cy="1231.6" fill="#ADD1B2" rx="12" ry="12" style="stroke:#181818;stroke-width:1.0;"/><path d="M346.5469,1239.1 L337.9375,1239.1 L337.9375,1224.1937 L346.5469,1224.1937 L346.5469,1226.3968 L340.3594,1226.3968 L340.3594,1230.2406 L346.1875,1230.2406 L346.1875,1232.4125 L340.3594,1232.4125 L340.3594,1236.8968 L346.5469,1236.8968 L346.5469,1239.1 Z " fill="#000000"/><text fill="#000000" font-family="sans-serif" font-size="20" font-style="italic" lengthAdjust="spacing" textLength="70" x="391.5" y="1225.74">«entity»</text><text fill="#000000" font-family="sans-serif" font-size="20" lengthAdjust="spacing" textLength="138" x="357.5" y="1252.9799">MultipleChoice</text></g><!--class ShortAnswer--><g id="elem_ShortAnswer"><rect codeLine="83" fill="#F5F5DC" height="64.4799" id="ShortAnswer" rx="2.5" ry="2.5" style="stroke:#181818;stroke-width:0.5;" width="154" x="533.5" y="1199.36"/><ellipse cx="549.5" cy="1231.6" fill="#ADD1B2" rx="12" ry="12" style="stroke:#181818;stroke-width:1.0;"/><path d="M553.5469,1239.1 L544.9375,1239.1 L544.9375,1224.1937 L553.5469,1224.1937 L553.5469,1226.3968 L547.3594,1226.3968 L547.3594,1230.2406 L553.1875,1230.2406 L553.1875,1232.4125 L547.3594,1232.4125 L547.3594,1236.8968 L553.5469,1236.8968 L553.5469,1239.1 Z " fill="#000000"/><text fill="#000000" font-family="sans-serif" font-size="20" font-style="italic" lengthAdjust="spacing" textLength="70" x="589.5" y="1225.74">«entity»</text><text fill="#000000" font-family="sans-serif" font-size="20" lengthAdjust="spacing" textLength="120" x="564.5" y="1252.9799">ShortAnswer</text></g><!--class Numerical--><g id="elem_Numerical"><rect codeLine="84" fill="#F5F5DC" height="64.4799" id="Numerical" rx="2.5" ry="2.5" style="stroke:#181818;stroke-width:0.5;" width="130" x="722.5" y="1199.36"/><ellipse cx="738.5" cy="1231.6" fill="#ADD1B2" rx="12" ry="12" style="stroke:#181818;stroke-width:1.0;"/><path d="M742.5469,1239.1 L733.9375,1239.1 L733.9375,1224.1937 L742.5469,1224.1937 L742.5469,1226.3968 L736.3594,1226.3968 L736.3594,1230.2406 L742.1875,1230.2406 L742.1875,1232.4125 L736.3594,1232.4125 L736.3594,1236.8968 L742.5469,1236.8968 L742.5469,1239.1 Z " fill="#000000"/><text fill="#000000" font-family="sans-serif" font-size="20" font-style="italic" lengthAdjust="spacing" textLength="70" x="766.5" y="1225.74">«entity»</text><text fill="#000000" font-family="sans-serif" font-size="20" lengthAdjust="spacing" textLength="96" x="753.5" y="1252.9799">Numerical</text></g><!--class MissingWords--><g id="elem_MissingWords"><rect codeLine="85" fill="#F5F5DC" height="64.4799" id="MissingWords" rx="2.5" ry="2.5" style="stroke:#181818;stroke-width:0.5;" width="167" x="888" y="1199.36"/><ellipse cx="904" cy="1231.6" fill="#ADD1B2" rx="12" ry="12" style="stroke:#181818;stroke-width:1.0;"/><path d="M908.0469,1239.1 L899.4375,1239.1 L899.4375,1224.1937 L908.0469,1224.1937 L908.0469,1226.3968 L901.8594,1226.3968 L901.8594,1230.2406 L907.6875,1230.2406 L907.6875,1232.4125 L901.8594,1232.4125 L901.8594,1236.8968 L908.0469,1236.8968 L908.0469,1239.1 Z " fill="#000000"/><text fill="#000000" font-family="sans-serif" font-size="20" font-style="italic" lengthAdjust="spacing" textLength="70" x="950.5" y="1225.74">«entity»</text><text fill="#000000" font-family="sans-serif" font-size="20" lengthAdjust="spacing" textLength="133" x="919" y="1252.9799">MissingWords</text></g><!--class TrueFalse--><g id="elem_TrueFalse"><rect codeLine="86" fill="#F5F5DC" height="64.4799" id="TrueFalse" rx="2.5" ry="2.5" style="stroke:#181818;stroke-width:0.5;" width="123" x="1090" y="1199.36"/><ellipse cx="1106" cy="1231.6" fill="#ADD1B2" rx="12" ry="12" style="stroke:#181818;stroke-width:1.0;"/><path d="M1110.0469,1239.1 L1101.4375,1239.1 L1101.4375,1224.1937 L1110.0469,1224.1937 L1110.0469,1226.3968 L1103.8594,1226.3968 L1103.8594,1230.2406 L1109.6875,1230.2406 L1109.6875,1232.4125 L1103.8594,1232.4125 L1103.8594,1236.8968 L1110.0469,1236.8968 L1110.0469,1239.1 Z " fill="#000000"/><text fill="#000000" font-family="sans-serif" font-size="20" font-style="italic" lengthAdjust="spacing" textLength="70" x="1130.5" y="1225.74">«entity»</text><text fill="#000000" font-family="sans-serif" font-size="20" lengthAdjust="spacing" textLength="89" x="1121" y="1252.9799">TrueFalse</text></g><!--class QuestionType--><g id="elem_QuestionType"><rect codeLine="60" fill="#F5F5DC" height="64.4799" id="QuestionType" rx="2.5" ry="2.5" style="stroke:#181818;stroke-width:0.5;" width="163" x="220" y="1058.36"/><ellipse cx="236" cy="1090.6" fill="#FF8B40" rx="12" ry="12" style="stroke:#181818;stroke-width:1.0;"/><path d="M242.25,1084.4437 L236.9375,1099.35 L234.6875,1099.35 L229.375,1084.4437 L231.9063,1084.4437 L235.2031,1093.8031 Q235.4219,1094.3968 235.5781,1094.9437 Q235.75,1095.4906 235.875,1095.9906 Q236.0156,1096.475 235.8125,1096.5218 Q235.5938,1096.4906 235.7344,1095.975 Q235.875,1095.4593 236.0469,1094.9281 Q236.2188,1094.3812 236.4219,1093.7718 L239.6875,1084.4437 L242.25,1084.4437 Z " fill="#000000"/><text fill="#000000" font-family="sans-serif" font-size="20" font-style="italic" lengthAdjust="spacing" textLength="126" x="252.5" y="1084.74">«value object»</text><text fill="#000000" font-family="sans-serif" font-size="20" lengthAdjust="spacing" textLength="129" x="251" y="1111.9799">QuestionType</text></g><!--class Feedback--><g id="elem_Feedback"><rect codeLine="61" fill="#F5F5DC" height="64.4799" id="Feedback" rx="2.5" ry="2.5" style="stroke:#181818;stroke-width:0.5;" width="156" x="872.5" y="1058.36"/><ellipse cx="888.5" cy="1090.6" fill="#FF8B40" rx="12" ry="12" style="stroke:#181818;stroke-width:1.0;"/><path d="M894.75,1084.4437 L889.4375,1099.35 L887.1875,1099.35 L881.875,1084.4437 L884.4063,1084.4437 L887.7031,1093.8031 Q887.9219,1094.3968 888.0781,1094.9437 Q888.25,1095.4906 888.375,1095.9906 Q888.5156,1096.475 888.3125,1096.5218 Q888.0938,1096.4906 888.2344,1095.975 Q888.375,1095.4593 888.5469,1094.9281 Q888.7188,1094.3812 888.9219,1093.7718 L892.1875,1084.4437 L894.75,1084.4437 Z " fill="#000000"/><text fill="#000000" font-family="sans-serif" font-size="20" font-style="italic" lengthAdjust="spacing" textLength="126" x="901.5" y="1084.74">«value object»</text><text fill="#000000" font-family="sans-serif" font-size="20" lengthAdjust="spacing" textLength="88" x="920.5" y="1111.9799">Feedback</text></g><!--class ExamAnswer--><g id="elem_ExamAnswer"><rect codeLine="34" fill="#F5F5DC" height="91.7199" id="ExamAnswer" rx="2.5" ry="2.5" style="stroke:#181818;stroke-width:0.5;" width="156" x="665.5" y="54.36"/><ellipse cx="681.5" cy="100.22" fill="#ADD1B2" rx="12" ry="12" style="stroke:#181818;stroke-width:1.0;"/><path d="M685.5469,107.72 L676.9375,107.72 L676.9375,92.8137 L685.5469,92.8137 L685.5469,95.0168 L679.3594,95.0168 L679.3594,98.8606 L685.1875,98.8606 L685.1875,101.0325 L679.3594,101.0325 L679.3594,105.5168 L685.5469,105.5168 L685.5469,107.72 Z " fill="#000000"/><text fill="#000000" font-family="sans-serif" font-size="20" font-style="italic" lengthAdjust="spacing" textLength="70" x="722.5" y="80.74">«entity»</text><text fill="#000000" font-family="sans-serif" font-size="20" font-style="italic" lengthAdjust="spacing" textLength="57" x="729" y="107.9799">«root»</text><text fill="#000000" font-family="sans-serif" font-size="20" lengthAdjust="spacing" textLength="122" x="696.5" y="135.2199">ExamAnswer</text></g><!--class AnswerToQuestion--><g id="elem_AnswerToQuestion"><rect codeLine="35" fill="#F5F5DC" height="64.4799" id="AnswerToQuestion" rx="2.5" ry="2.5" style="stroke:#181818;stroke-width:0.5;" width="212" x="637.5" y="207.36"/><ellipse cx="653.5" cy="239.6" fill="#ADD1B2" rx="12" ry="12" style="stroke:#181818;stroke-width:1.0;"/><path d="M657.5469,247.1 L648.9375,247.1 L648.9375,232.1937 L657.5469,232.1937 L657.5469,234.3968 L651.3594,234.3968 L651.3594,238.2406 L657.1875,238.2406 L657.1875,240.4125 L651.3594,240.4125 L651.3594,244.8968 L657.5469,244.8968 L657.5469,247.1 Z " fill="#000000"/><text fill="#000000" font-family="sans-serif" font-size="20" font-style="italic" lengthAdjust="spacing" textLength="70" x="722.5" y="233.74">«entity»</text><text fill="#000000" font-family="sans-serif" font-size="20" lengthAdjust="spacing" textLength="178" x="668.5" y="260.9799">AnswerToQuestion</text></g><!--class Exam--><g id="elem_Exam"><rect codeLine="51" fill="#F5F5DC" height="91.7199" id="Exam" rx="2.5" ry="2.5" style="stroke:#181818;stroke-width:0.5;" width="100" x="693.5" y="394.36"/><ellipse cx="709.5" cy="440.22" fill="#ADD1B2" rx="12" ry="12" style="stroke:#181818;stroke-width:1.0;"/><path d="M713.5469,447.72 L704.9375,447.72 L704.9375,432.8137 L713.5469,432.8137 L713.5469,435.0168 L707.3594,435.0168 L707.3594,438.8606 L713.1875,438.8606 L713.1875,441.0325 L707.3594,441.0325 L707.3594,445.5168 L713.5469,445.5168 L713.5469,447.72 Z " fill="#000000"/><text fill="#000000" font-family="sans-serif" font-size="20" font-style="italic" lengthAdjust="spacing" textLength="70" x="722.5" y="420.74">«entity»</text><text fill="#000000" font-family="sans-serif" font-size="20" font-style="italic" lengthAdjust="spacing" textLength="57" x="729" y="447.9799">«root»</text><text fill="#000000" font-family="sans-serif" font-size="20" lengthAdjust="spacing" textLength="52" x="731.5" y="475.2199">Exam</text></g><!--class Section--><g id="elem_Section"><rect codeLine="52" fill="#F5F5DC" height="64.4799" id="Section" rx="2.5" ry="2.5" style="stroke:#181818;stroke-width:0.5;" width="102" x="692.5" y="547.36"/><ellipse cx="708.5" cy="579.6" fill="#ADD1B2" rx="12" ry="12" style="stroke:#181818;stroke-width:1.0;"/><path d="M712.5469,587.1 L703.9375,587.1 L703.9375,572.1937 L712.5469,572.1937 L712.5469,574.3968 L706.3594,574.3968 L706.3594,578.2406 L712.1875,578.2406 L712.1875,580.4125 L706.3594,580.4125 L706.3594,584.8968 L712.5469,584.8968 L712.5469,587.1 Z " fill="#000000"/><text fill="#000000" font-family="sans-serif" font-size="20" font-style="italic" lengthAdjust="spacing" textLength="70" x="722.5" y="573.74">«entity»</text><text fill="#000000" font-family="sans-serif" font-size="20" lengthAdjust="spacing" textLength="68" x="723.5" y="600.9799">Section</text></g><!--class SectionQuestion--><g id="elem_SectionQuestion"><rect codeLine="53" fill="#F5F5DC" height="64.4799" id="SectionQuestion" rx="2.5" ry="2.5" style="stroke:#181818;stroke-width:0.5;" width="187" x="650" y="672.36"/><ellipse cx="666" cy="704.6" fill="#ADD1B2" rx="12" ry="12" style="stroke:#181818;stroke-width:1.0;"/><path d="M670.0469,712.1 L661.4375,712.1 L661.4375,697.1937 L670.0469,697.1937 L670.0469,699.3968 L663.8594,699.3968 L663.8594,703.2406 L669.6875,703.2406 L669.6875,705.4125 L663.8594,705.4125 L663.8594,709.8968 L670.0469,709.8968 L670.0469,712.1 Z " fill="#000000"/><text fill="#000000" font-family="sans-serif" font-size="20" font-style="italic" lengthAdjust="spacing" textLength="70" x="722.5" y="698.74">«entity»</text><text fill="#000000" font-family="sans-serif" font-size="20" lengthAdjust="spacing" textLength="153" x="681" y="725.9799">SectionQuestion</text></g><!--class Course--><g id="elem_Course"><rect codeLine="49" fill="#F5F5DC" height="91.7199" id="Course" rx="2.5" ry="2.5" style="stroke:#181818;stroke-width:0.5;" width="100" x="1269.5" y="1044.36"/><ellipse cx="1285.5" cy="1090.22" fill="#ADD1B2" rx="12" ry="12" style="stroke:#181818;stroke-width:1.0;"/><path d="M1289.5469,1097.72 L1280.9375,1097.72 L1280.9375,1082.8137 L1289.5469,1082.8137 L1289.5469,1085.0168 L1283.3594,1085.0168 L1283.3594,1088.8606 L1289.1875,1088.8606 L1289.1875,1091.0325 L1283.3594,1091.0325 L1283.3594,1095.5168 L1289.5469,1095.5168 L1289.5469,1097.72 Z " fill="#000000"/><text fill="#000000" font-family="sans-serif" font-size="20" font-style="italic" lengthAdjust="spacing" textLength="70" x="1298.5" y="1070.74">«entity»</text><text fill="#000000" font-family="sans-serif" font-size="20" font-style="italic" lengthAdjust="spacing" textLength="57" x="1305" y="1097.9799">«root»</text><text fill="#000000" font-family="sans-serif" font-size="20" lengthAdjust="spacing" textLength="66" x="1300.5" y="1125.2199">Course</text></g><g id="elem_GMN26"><path d="M6,1058.36 L6,1122.8399 A0,0 0 0 0 6,1122.8399 L137,1122.8399 A0,0 0 0 0 137,1122.8399 L137,1094.36 L219.61,1090.36 L137,1086.36 L137,1068.36 L127,1058.36 L6,1058.36 A0,0 0 0 0 6,1058.36 " fill="#FEFFDD" style="stroke:#181818;stroke-width:0.5;"/><path d="M127,1058.36 L127,1068.36 L137,1068.36 L127,1058.36 " fill="#FEFFDD" style="stroke:#181818;stroke-width:0.5;"/><text fill="#000000" font-family="sans-serif" font-size="20" lengthAdjust="spacing" textLength="88" x="12" y="1084.74">REGULAR</text><text fill="#000000" font-family="sans-serif" font-size="20" lengthAdjust="spacing" textLength="110" x="12" y="1111.9799">FORMATIVE</text></g><!--reverse link ExamAnswer to AnswerToQuestion--><g id="link_ExamAnswer_AnswerToQuestion"><path codeLine="37" d="M743.5,160.9 C743.5,176.79 743.5,193.33 743.5,207.02 " fill="none" id="ExamAnswer-backto-AnswerToQuestion" style="stroke:#222222;stroke-width:1.0;"/><polygon fill="#222222" points="743.5,148.11,739.5,154.11,743.5,160.11,747.5,154.11,743.5,148.11" style="stroke:#222222;stroke-width:1.0;"/><text fill="#000000" font-family="sans-serif" font-size="20" lengthAdjust="spacing" textLength="32" x="708.75" y="193.5006">1..*</text></g><!--reverse link Exam to Section--><g id="link_Exam_Section"><path codeLine="55" d="M743.5,500.9 C743.5,516.79 743.5,533.33 743.5,547.02 " fill="none" id="Exam-backto-Section" style="stroke:#222222;stroke-width:1.0;"/><polygon fill="#222222" points="743.5,488.11,739.5,494.11,743.5,500.11,747.5,494.11,743.5,488.11" style="stroke:#222222;stroke-width:1.0;"/><text fill="#000000" font-family="sans-serif" font-size="20" lengthAdjust="spacing" textLength="32" x="708.75" y="533.5006">1..*</text></g><!--link SectionQuestion to Question--><g id="link_SectionQuestion_Question"><path codeLine="56" d="M743.5,736.72 C743.5,761.29 743.5,795.97 743.5,824.63 " fill="none" id="SectionQuestion-to-Question" style="stroke:#222222;stroke-width:1.0;"/><polygon fill="#222222" points="743.5,829.51,747.5,820.51,743.5,824.51,739.5,820.51,743.5,829.51" style="stroke:#222222;stroke-width:1.0;"/><text fill="#000000" font-family="sans-serif" font-size="20" lengthAdjust="spacing" textLength="32" x="709.35" y="817.3939">1..*</text></g><!--reverse link Question to QuestionBody--><g id="link_Question_QuestionBody"><path codeLine="68" d="M815.18,877.36 C821.91,877.36 828.64,877.36 835.37,877.36 " fill="none" id="Question-backto-QuestionBody" style="stroke:#222222;stroke-width:1.0;"/><polygon fill="#222222" points="802.44,877.36,808.44,881.36,814.44,877.36,808.44,873.36,802.44,877.36" style="stroke:#222222;stroke-width:1.0;"/></g><!--reverse link Question to CorrectAnswer--><g id="link_Question_CorrectAnswer"><path codeLine="69" d="M674.56,926.15 C663.48,934.78 652.41,944.02 642.5,953.36 C607.64,986.22 573.07,1029.34 551.3,1058.13 " fill="none" id="Question-backto-CorrectAnswer" style="stroke:#222222;stroke-width:1.0;"/><polygon fill="#222222" points="684.86,918.31,677.663,918.7606,675.3109,925.5773,682.5079,925.1267,684.86,918.31" style="stroke:#222222;stroke-width:1.0;"/></g><!--link Question to QuestionType--><g id="link_Question_QuestionType"><path codeLine="70" d="M686.29,892.12 C620.47,909.37 510.42,942.56 424.5,990.36 C393.3,1007.72 362.01,1033.03 338.8,1053.72 " fill="none" id="Question-to-QuestionType" style="stroke:#222222;stroke-width:1.0;"/><polygon fill="#222222" points="335.1,1057.05,344.4655,1054.0025,338.8165,1053.7052,339.1138,1048.0561,335.1,1057.05" style="stroke:#222222;stroke-width:1.0;"/><text fill="#000000" font-family="sans-serif" font-size="20" lengthAdjust="spacing" textLength="33" x="499.5" y="975.74">has</text><text fill="#000000" font-family="sans-serif" font-size="20" lengthAdjust="spacing" textLength="11" x="327.6055" y="1044.5475">1</text></g><!--reverse link Question to Matching--><g id="link_Question_Matching"><path codeLine="72" d="M689.48,940.44 C678.37,955.9 667.84,973.03 660.5,990.36 C630.65,1060.87 687.81,1107.4 632.5,1160.36 C580.12,1210.51 378.78,1181.49 308.5,1199.36 C302.85,1200.8 297.06,1202.54 291.32,1204.46 " fill="none" id="Question-backto-Matching" style="stroke:#222222;stroke-width:1.0;"/><polygon fill="none" points="683.55,936.68,701.22,924.99,694.7,945.15,683.55,936.68" style="stroke:#222222;stroke-width:1.0;"/></g><!--reverse link Question to MultipleChoice--><g id="link_Question_MultipleChoice"><path codeLine="73" d="M712.15,943.31 C705.65,958.5 699.31,974.8 694.5,990.36 C670.56,1067.72 717.25,1111.6 660.5,1169.36 C614.68,1215.99 579.88,1183.34 516.5,1199.36 C510.75,1200.81 504.83,1202.38 498.89,1204.01 " fill="none" id="Question-backto-MultipleChoice" style="stroke:#222222;stroke-width:1.0;"/><polygon fill="none" points="705.7,940.59,720.23,925.17,718.49,946.29,705.7,940.59" style="stroke:#222222;stroke-width:1.0;"/></g><!--reverse link Question to ShortAnswer--><g id="link_Question_ShortAnswer"><path codeLine="74" d="M739,944.93 C732.95,1018.96 720.25,1132.91 697.5,1169.36 C690.37,1180.78 680.23,1190.65 669.38,1198.92 " fill="none" id="Question-backto-ShortAnswer" style="stroke:#222222;stroke-width:1.0;"/><polygon fill="none" points="731.99,944.74,740.51,925.34,745.95,945.82,731.99,944.74" style="stroke:#222222;stroke-width:1.0;"/></g><!--reverse link Question to Numerical--><g id="link_Question_Numerical"><path codeLine="75" d="M751.8,944.77 C761.32,1020.89 776.51,1142.45 783.61,1199.23 " fill="none" id="Question-backto-Numerical" style="stroke:#222222;stroke-width:1.0;"/><polygon fill="none" points="744.88,945.87,749.35,925.16,758.78,944.14,744.88,945.87" style="stroke:#222222;stroke-width:1.0;"/></g><!--reverse link Question to MissingWords--><g id="link_Question_MissingWords"><path codeLine="76" d="M763.06,944.39 C767.5,959.49 772.19,975.47 776.5,990.36 C799.52,1069.81 772.72,1107.38 827.5,1169.36 C836.67,1179.74 861.39,1191.53 887.82,1201.96 " fill="none" id="Question-backto-MissingWords" style="stroke:#222222;stroke-width:1.0;"/><polygon fill="none" points="756.37,946.45,757.43,925.29,769.8,942.49,756.37,946.45" style="stroke:#222222;stroke-width:1.0;"/></g><!--reverse link Question to TrueFalse--><g id="link_Question_TrueFalse"><path codeLine="77" d="M782.87,942.4 C791.37,957.77 799.81,974.37 806.5,990.36 C836.87,1062.89 797.12,1107.69 855.5,1160.36 C928.26,1226 978.22,1172.67 1072.5,1199.36 C1078.17,1200.97 1084,1202.83 1089.79,1204.82 " fill="none" id="Question-backto-TrueFalse" style="stroke:#222222;stroke-width:1.0;"/><polygon fill="none" points="776.8,945.89,772.94,925.05,788.95,938.93,776.8,945.89" style="stroke:#222222;stroke-width:1.0;"/></g><!--link Question to Course--><g id="link_Question_Course"><path codeLine="79" d="M800.97,915.74 C806.76,918.61 812.65,921.22 818.5,923.36 C992.29,987 1066.84,902.07 1229.5,990.36 C1251.14,1002.11 1270.29,1021.1 1285.31,1039.33 " fill="none" id="Question-to-Course" style="stroke:#222222;stroke-width:1.0;"/><polygon fill="#222222" points="1288.08,1042.76,1285.5302,1033.2469,1284.9357,1038.8724,1279.3101,1038.2779,1288.08,1042.76" style="stroke:#222222;stroke-width:1.0;"/><text fill="#000000" font-family="sans-serif" font-size="20" lengthAdjust="spacing" textLength="33" x="1210.5" y="975.74">has</text><text fill="#000000" font-family="sans-serif" font-size="20" lengthAdjust="spacing" textLength="11" x="1273.4213" y="1030.676">1</text></g><!--link AnswerToQuestion to Exam--><g id="link_AnswerToQuestion_Exam"><path codeLine="88" d="M743.5,271.45 C743.5,302.56 743.5,350.95 743.5,387.8 " fill="none" id="AnswerToQuestion-to-Exam" style="stroke:#222222;stroke-width:1.0;"/><polygon fill="#222222" points="743.5,392.57,747.5,383.57,743.5,387.57,739.5,383.57,743.5,392.57" style="stroke:#222222;stroke-width:1.0;"/><text fill="#000000" font-family="sans-serif" font-size="20" lengthAdjust="spacing" textLength="47" x="744.5" y="325.74">is for</text><text fill="#000000" font-family="sans-serif" font-size="20" lengthAdjust="spacing" textLength="11" x="731.7609" y="380.462">1</text></g><!--link Question to Feedback--><g id="link_Question_Feedback"><path codeLine="89" d="M800.81,916.18 C816.03,927.35 831.98,940.15 845.5,953.36 C876.74,983.87 906.58,1023.96 926.42,1052.69 " fill="none" id="Question-to-Feedback" style="stroke:#222222;stroke-width:1.0;"/><polygon fill="#222222" points="929.14,1056.67,927.3531,1046.9846,926.314,1052.5452,920.7534,1051.5062,929.14,1056.67" style="stroke:#222222;stroke-width:1.0;"/><text fill="#000000" font-family="sans-serif" font-size="20" lengthAdjust="spacing" textLength="32" x="891.7266" y="1044.3834">0..*</text></g><!--reverse link Section to SectionQuestion--><g id="link_Section_SectionQuestion"><path codeLine="90" d="M743.5,625.88 C743.5,641.24 743.5,658.04 743.5,672.06 " fill="none" id="Section-backto-SectionQuestion" style="stroke:#222222;stroke-width:1.0;"/><polygon fill="#222222" points="743.5,613.23,739.5,619.23,743.5,625.23,747.5,619.23,743.5,613.23" style="stroke:#222222;stroke-width:1.0;"/><text fill="#000000" font-family="sans-serif" font-size="20" lengthAdjust="spacing" textLength="32" x="708.75" y="658.5475">1..*</text></g><!--SRC=[ZLHHRzem47xthpZHXsre0LRjOK8H4Y2OAgsRHbdtR98ZyKZYo7RMiRR_VMv27CS9epo5x-u-t_VPT_B0ifmAcYOyE6088UvfaQWrpzGT-ujmFI5lOgLoEHsFyuHcgaYJKS3JSP1GARsGqKWN4o9h7YW3SwK4snKARmAUbKGJ4hCG0TDS7O7MOMcZAQgOXzBbMj3W40bUPE6I9rp03bc4Lj9S2FvGXQwkonyX9DT5D48O-Bxk42EgS3Q3xmLAnNWsW4S2G7TI2Hee0nCDbaSQPC73em6NN0WCr3oJ3oX8Bm40PeffBRTK1J7B8WlHjh8ymMNCMO0DVXTpKNCQy6kHec01JQnw9gKc_Cc5jiYWMr7WcYOIkxrlZpaQS8qOxhGdvFcSDwi_DAtQgDmv7T303LRztt8ZMvDsl03Vhz8rj-yBpfN-U7mc7TuBYUvXThhE8XRHqFDWy64q6WwwBVv7TKUlTJdwlbltUW9ivVt4Iru8YItg2defQG7dzDjENV3er9LZJN_BVVxPpjMItJBFczKfZQdTQT7qR-_VNwtNdnOV9-_WDqqA1BxxfTcg0tjcwPKrziD-PKdzx2-caumhX0Jt2lZU7Q7DwlEFB_ED_bf_szpEjpVtAsrk22yrX1Y7XbvxRrW1praUZgk3jhPfJAN5wpzvci1i51TlxnKdQcyN9zJi69VHtZHEpDet7Gsdvpo5idrd4VQ_pNRpPzvl8w4_mGWvSuObfp_3Y79dexDxQgdbq4o1ITXpzpOdvOoOXLlFPdV4p1Zz0m00]--></g></svg>