<?xml version="1.0" encoding="UTF-8" standalone="no"?><svg xmlns="http://www.w3.org/2000/svg" xmlns:xlink="http://www.w3.org/1999/xlink" contentStyleType="text/css" height="573px" preserveAspectRatio="none" style="width:1101px;height:573px;background:#FFFFFF;" version="1.1" viewBox="0 0 1101 573" width="1101px" zoomAndPan="magnify"><defs/><g><!--cluster <<aggregate>> User--><g id="cluster_&lt;&lt;aggregate&gt;&gt; User"><path d="M784.5,202.2168 L988.5,202.2168 A3.75,3.75 0 0 1 991,204.7168 L998,231.498 L998.5,231.498 A2.5,2.5 0 0 1 1001,233.998 L1001,368.7168 A2.5,2.5 0 0 1 998.5,371.2168 L784.5,371.2168 A2.5,2.5 0 0 1 782,368.7168 L782,204.7168 A2.5,2.5 0 0 1 784.5,202.2168 " fill="none" style="stroke:#000000;stroke-width:1.5;"/><line style="stroke:#000000;stroke-width:1.5;" x1="782" x2="998" y1="231.498" y2="231.498"/><text fill="#000000" font-family="sans-serif" font-size="20" font-weight="bold" lengthAdjust="spacing" textLength="203" x="786" y="222.7813">«aggregate» User</text></g><!--cluster <<aggregate>> Enrolment--><g id="cluster_&lt;&lt;aggregate&gt;&gt; Enrolment"><path d="M468.5,7.2168 L738.5,7.2168 A3.75,3.75 0 0 1 741,9.7168 L748,36.498 L748.5,36.498 A2.5,2.5 0 0 1 751,38.998 L751,142.7168 A2.5,2.5 0 0 1 748.5,145.2168 L468.5,145.2168 A2.5,2.5 0 0 1 466,142.7168 L466,9.7168 A2.5,2.5 0 0 1 468.5,7.2168 " fill="none" style="stroke:#000000;stroke-width:1.5;"/><line style="stroke:#000000;stroke-width:1.5;" x1="466" x2="748" y1="36.498" y2="36.498"/><text fill="#000000" font-family="sans-serif" font-size="20" font-weight="bold" lengthAdjust="spacing" textLength="269" x="470" y="27.7813">«aggregate» Enrolment</text></g><!--cluster <<aggregate>> ExamAnswer--><g id="cluster_&lt;&lt;aggregate&gt;&gt; ExamAnswer"><path d="M784.5,428.2168 L1081.5,428.2168 A3.75,3.75 0 0 1 1084,430.7168 L1091,457.498 L1091.5,457.498 A2.5,2.5 0 0 1 1094,459.998 L1094,563.7168 A2.5,2.5 0 0 1 1091.5,566.2168 L784.5,566.2168 A2.5,2.5 0 0 1 782,563.7168 L782,430.7168 A2.5,2.5 0 0 1 784.5,428.2168 " fill="none" style="stroke:#000000;stroke-width:1.5;"/><line style="stroke:#000000;stroke-width:1.5;" x1="782" x2="1091" y1="457.498" y2="457.498"/><text fill="#000000" font-family="sans-serif" font-size="20" font-weight="bold" lengthAdjust="spacing" textLength="296" x="786" y="448.7813">«aggregate» ExamAnswer</text></g><!--cluster <<aggregate>> Student--><g id="cluster_&lt;&lt;aggregate&gt;&gt; Student"><path d="M8.5,217.7168 L250.5,217.7168 A3.75,3.75 0 0 1 253,220.2168 L260,246.998 L755.5,246.998 A2.5,2.5 0 0 1 758,249.498 L758,552.2168 A2.5,2.5 0 0 1 755.5,554.7168 L8.5,554.7168 A2.5,2.5 0 0 1 6,552.2168 L6,220.2168 A2.5,2.5 0 0 1 8.5,217.7168 " fill="none" style="stroke:#000000;stroke-width:1.5;"/><line style="stroke:#000000;stroke-width:1.5;" x1="6" x2="260" y1="246.998" y2="246.998"/><text fill="#000000" font-family="sans-serif" font-size="20" font-weight="bold" lengthAdjust="spacing" textLength="241" x="10" y="238.2813">«aggregate» Student</text></g><!--class User--><g id="elem_User"><rect codeLine="13" fill="#F5F5DC" height="111.125" id="User" rx="2.5" ry="2.5" style="stroke:#181818;stroke-width:0.5;" width="113" x="798.5" y="244.2168"/><ellipse cx="814.5" cy="284.1387" fill="#ADD1B2" rx="12" ry="12" style="stroke:#181818;stroke-width:1.0;"/><path d="M819.2188,291.6387 L810.1406,291.6387 L810.1406,277.0605 L819.2188,277.0605 L819.2188,279.5918 L813.0156,279.5918 L813.0156,282.748 L818.6406,282.748 L818.6406,285.2793 L813.0156,285.2793 L813.0156,289.0918 L819.2188,289.0918 L819.2188,291.6387 Z " fill="#000000"/><text fill="#000000" font-family="sans-serif" font-size="20" font-style="italic" lengthAdjust="spacing" textLength="83" x="827.5" y="267.7813">«entity»</text><text fill="#000000" font-family="sans-serif" font-size="20" font-style="italic" lengthAdjust="spacing" textLength="64" x="837" y="291.0625">«root»</text><text fill="#000000" font-family="sans-serif" font-size="20" lengthAdjust="spacing" textLength="45" x="846.5" y="314.3438">User</text><line style="stroke:#181818;stroke-width:0.5;" x1="799.5" x2="910.5" y1="324.0605" y2="324.0605"/><text fill="#000000" font-family="sans-serif" font-size="20" lengthAdjust="spacing" textLength="85" x="804.5" y="346.625">-isActive</text></g><!--class Enrolment--><g id="elem_Enrolment"><rect codeLine="21" fill="#F5F5DC" height="79.8438" id="Enrolment" rx="2.5" ry="2.5" style="stroke:#181818;stroke-width:0.5;" width="139" x="538.5" y="49.2168"/><ellipse cx="554.5" cy="89.1387" fill="#ADD1B2" rx="12" ry="12" style="stroke:#181818;stroke-width:1.0;"/><path d="M559.2188,96.6387 L550.1406,96.6387 L550.1406,82.0605 L559.2188,82.0605 L559.2188,84.5918 L553.0156,84.5918 L553.0156,87.748 L558.6406,87.748 L558.6406,90.2793 L553.0156,90.2793 L553.0156,94.0918 L559.2188,94.0918 L559.2188,96.6387 Z " fill="#000000"/><text fill="#000000" font-family="sans-serif" font-size="20" font-style="italic" lengthAdjust="spacing" textLength="83" x="580.5" y="72.7813">«entity»</text><text fill="#000000" font-family="sans-serif" font-size="20" font-style="italic" lengthAdjust="spacing" textLength="64" x="590" y="96.0625">«root»</text><text fill="#000000" font-family="sans-serif" font-size="20" lengthAdjust="spacing" textLength="105" x="569.5" y="119.3438">Enrolment</text></g><!--class ExamAnswer--><g id="elem_ExamAnswer"><rect codeLine="28" fill="#F5F5DC" height="79.8438" id="ExamAnswer" rx="2.5" ry="2.5" style="stroke:#181818;stroke-width:0.5;" width="164" x="798" y="470.2168"/><ellipse cx="814" cy="510.1387" fill="#ADD1B2" rx="12" ry="12" style="stroke:#181818;stroke-width:1.0;"/><path d="M818.7188,517.6387 L809.6406,517.6387 L809.6406,503.0605 L818.7188,503.0605 L818.7188,505.5918 L812.5156,505.5918 L812.5156,508.748 L818.1406,508.748 L818.1406,511.2793 L812.5156,511.2793 L812.5156,515.0918 L818.7188,515.0918 L818.7188,517.6387 Z " fill="#000000"/><text fill="#000000" font-family="sans-serif" font-size="20" font-style="italic" lengthAdjust="spacing" textLength="83" x="852.5" y="493.7813">«entity»</text><text fill="#000000" font-family="sans-serif" font-size="20" font-style="italic" lengthAdjust="spacing" textLength="64" x="862" y="517.0625">«root»</text><text fill="#000000" font-family="sans-serif" font-size="20" lengthAdjust="spacing" textLength="130" x="829" y="540.3438">ExamAnswer</text></g><!--class Student--><g id="elem_Student"><rect codeLine="39" fill="#F5F5DC" height="79.8438" id="Student" rx="2.5" ry="2.5" style="stroke:#181818;stroke-width:0.5;" width="114" x="551" y="259.7168"/><ellipse cx="567" cy="299.6387" fill="#ADD1B2" rx="12" ry="12" style="stroke:#181818;stroke-width:1.0;"/><path d="M571.7188,307.1387 L562.6406,307.1387 L562.6406,292.5605 L571.7188,292.5605 L571.7188,295.0918 L565.5156,295.0918 L565.5156,298.248 L571.1406,298.248 L571.1406,300.7793 L565.5156,300.7793 L565.5156,304.5918 L571.7188,304.5918 L571.7188,307.1387 Z " fill="#000000"/><text fill="#000000" font-family="sans-serif" font-size="20" font-style="italic" lengthAdjust="spacing" textLength="83" x="580.5" y="283.2813">«entity»</text><text fill="#000000" font-family="sans-serif" font-size="20" font-style="italic" lengthAdjust="spacing" textLength="64" x="590" y="306.5625">«root»</text><text fill="#000000" font-family="sans-serif" font-size="20" lengthAdjust="spacing" textLength="80" x="582" y="329.8438">Student</text></g><!--class BirthDate--><g id="elem_BirthDate"><rect codeLine="42" fill="#F5F5DC" height="56.5625" id="BirthDate" rx="2.5" ry="2.5" style="stroke:#181818;stroke-width:0.5;" width="177" x="21.5" y="481.7168"/><ellipse cx="37.5" cy="509.998" fill="#FF8B40" rx="12" ry="12" style="stroke:#181818;stroke-width:1.0;"/><path d="M37.5156,515.8418 L40.0781,503.6699 L42.9844,503.6699 L39.5156,518.248 L35.5313,518.248 L32.0625,503.6699 L34.9531,503.6699 L37.5156,515.8418 Z " fill="#000000"/><text fill="#000000" font-family="sans-serif" font-size="20" font-style="italic" lengthAdjust="spacing" textLength="147" x="50.5" y="505.2813">«value object»</text><text fill="#000000" font-family="sans-serif" font-size="20" lengthAdjust="spacing" textLength="96" x="76" y="528.5625">BirthDate</text></g><!--class TaxPayerNumber--><g id="elem_TaxPayerNumber"><rect codeLine="43" fill="#F5F5DC" height="56.5625" id="TaxPayerNumber" rx="2.5" ry="2.5" style="stroke:#181818;stroke-width:0.5;" width="205" x="233.5" y="481.7168"/><ellipse cx="249.5" cy="509.998" fill="#FF8B40" rx="12" ry="12" style="stroke:#181818;stroke-width:1.0;"/><path d="M249.5156,515.8418 L252.0781,503.6699 L254.9844,503.6699 L251.5156,518.248 L247.5313,518.248 L244.0625,503.6699 L246.9531,503.6699 L249.5156,515.8418 Z " fill="#000000"/><text fill="#000000" font-family="sans-serif" font-size="20" font-style="italic" lengthAdjust="spacing" textLength="147" x="276.5" y="505.2813">«value object»</text><text fill="#000000" font-family="sans-serif" font-size="20" lengthAdjust="spacing" textLength="171" x="264.5" y="528.5625">TaxPayerNumber</text></g><!--class MecanographicNumber--><g id="elem_MecanographicNumber"><rect codeLine="44" fill="#F5F5DC" height="56.5625" id="MecanographicNumber" rx="2.5" ry="2.5" style="stroke:#181818;stroke-width:0.5;" width="268" x="474" y="481.7168"/><ellipse cx="490" cy="509.998" fill="#FF8B40" rx="12" ry="12" style="stroke:#181818;stroke-width:1.0;"/><path d="M490.0156,515.8418 L492.5781,503.6699 L495.4844,503.6699 L492.0156,518.248 L488.0313,518.248 L484.5625,503.6699 L487.4531,503.6699 L490.0156,515.8418 Z " fill="#000000"/><text fill="#000000" font-family="sans-serif" font-size="20" font-style="italic" lengthAdjust="spacing" textLength="147" x="548.5" y="505.2813">«value object»</text><text fill="#000000" font-family="sans-serif" font-size="20" lengthAdjust="spacing" textLength="234" x="505" y="528.5625">MecanographicNumber</text></g><!--link Student to BirthDate--><g id="link_Student_BirthDate"><path codeLine="46" d="M550.78,303.7268 C473.29,309.9668 332.75,329.0268 229,387.2168 C189.03,409.6368 153.87,449.5768 132.32,477.6468 " fill="none" id="Student-to-BirthDate" style="stroke:#222222;stroke-width:1.0;"/><polygon fill="#222222" points="129.24,481.6968,137.8674,476.9462,132.2629,477.7141,131.495,472.1096,129.24,481.6968" style="stroke:#222222;stroke-width:1.0;"/><text fill="#000000" font-family="sans-serif" font-size="20" lengthAdjust="spacing" textLength="167" x="230" y="406.7813">characterized by</text><text fill="#000000" font-family="sans-serif" font-size="20" lengthAdjust="spacing" textLength="13" x="118.8676" y="469.0812">1</text></g><!--link Student to TaxPayerNumber--><g id="link_Student_TaxPayerNumber"><path codeLine="47" d="M550.78,320.9168 C514.11,335.6568 466.85,358.1168 431,387.2168 C399.67,412.6468 372.38,450.2668 355.19,477.0068 " fill="none" id="Student-to-TaxPayerNumber" style="stroke:#222222;stroke-width:1.0;"/><polygon fill="#222222" points="352.31,481.5268,360.5201,476.0867,354.9972,477.3103,353.7736,471.7873,352.31,481.5268" style="stroke:#222222;stroke-width:1.0;"/><text fill="#000000" font-family="sans-serif" font-size="20" lengthAdjust="spacing" textLength="167" x="432" y="406.7813">characterized by</text><text fill="#000000" font-family="sans-serif" font-size="20" lengthAdjust="spacing" textLength="13" x="341.3333" y="468.8762">1</text></g><!--link Student to MecanographicNumber--><g id="link_Student_MecanographicNumber"><path codeLine="48" d="M608,339.9368 C608,379.2868 608,439.2268 608,476.2168 " fill="none" id="Student-to-MecanographicNumber" style="stroke:#222222;stroke-width:1.0;"/><polygon fill="#222222" points="608,481.4968,612,472.4968,608,476.4968,604,472.4968,608,481.4968" style="stroke:#222222;stroke-width:1.0;"/><text fill="#000000" font-family="sans-serif" font-size="20" lengthAdjust="spacing" textLength="126" x="609" y="406.7813">identified by</text><text fill="#000000" font-family="sans-serif" font-size="20" lengthAdjust="spacing" textLength="13" x="593.6594" y="468.84">1</text></g><!--link Student to User--><g id="link_Student_User"><path codeLine="50" d="M665.41,299.7168 C702.97,299.7168 740.53,299.7168 778.09,299.7168 " fill="none" id="Student-to-User" style="stroke:#222222;stroke-width:1.0;"/><polygon fill="none" points="778.34,292.7168,798.34,299.7168,778.34,306.7168,778.34,292.7168" style="stroke:#222222;stroke-width:1.0;"/></g><!--link Enrolment to Student--><g id="link_Enrolment_Student"><path codeLine="52" d="M608,129.4368 C608,164.9668 608,217.2668 608,254.3268 " fill="none" id="Enrolment-to-Student" style="stroke:#222222;stroke-width:1.0;"/><polygon fill="#222222" points="608,259.6768,612,250.6768,608,254.6768,604,250.6768,608,259.6768" style="stroke:#222222;stroke-width:1.0;"/><text fill="#000000" font-family="sans-serif" font-size="20" lengthAdjust="spacing" textLength="35" x="609" y="180.7813">has</text><text fill="#000000" font-family="sans-serif" font-size="20" lengthAdjust="spacing" textLength="13" x="593.9641" y="247.0619">1</text></g><!--link Student to ExamAnswer--><g id="link_Student_ExamAnswer"><path codeLine="54" d="M665.31,334.2668 C690.14,349.5268 719.14,368.3668 744,387.2168 C776.28,411.6968 810.2,442.1168 836.09,466.4568 " fill="none" id="Student-to-ExamAnswer" style="stroke:#222222;stroke-width:1.0;"/><polygon fill="#222222" points="839.85,469.9968,836.0377,460.9157,836.209,466.57,830.5547,466.7413,839.85,469.9968" style="stroke:#222222;stroke-width:1.0;"/><text fill="#000000" font-family="sans-serif" font-size="20" lengthAdjust="spacing" textLength="35" x="776" y="406.7813">has</text><text fill="#000000" font-family="sans-serif" font-size="20" lengthAdjust="spacing" textLength="35" x="795.662" y="457.3532">0..*</text></g><!--SRC=[bLDBRzim3BxhLn3EOMknF5hiC0H6W6HhW1us56YtEoqpjXPRCYGwRTRslrUnOyTmaotJIVh8xq6OTckb2xIOPqQkAOQOLbXcl3IQxzKVWkk9-90o5suw7XSPQYxpR2HDFfOPEZUC5IQUB8HhTA0gp9cjYagcMsbq9JGHgOe9A2zu2zYKNHVDYLCJkxxM0kKwiQRKyLUJ6GiHgOGwJNDhpMDT6bnNHuZ2Sp0X2C8GayHIWaop6VnqP0Du5k0FQLRUT0U9Lo4wJmZ3-kKPOMYDON_PaOQWt5oosj2ESSBZHbkJvLwWDjhhjcZ7gyLE6Fx5umdpkNQFpJIDO0jtNLhmlstkkOpxW-mnuP7gwy12MKw_UKABFE3J7Mx9_YZpo4TfuEyaKHk_BaMgvBvsYBdNFPsnv-Qh7tzz6YoNNnQV9nUmmQmaCD5laXNZLHpBSYRfID9_CaKpm70uW-0gw2ITWapzfaecw_-46ABjk-PUp3COnp9EGUrwr4hLd0FffTvz8GuxrmWrFLD8qVN6c8n6bq5tW-gcDm00]--></g></svg>