<?xml version="1.0" encoding="UTF-8" standalone="no"?><svg xmlns="http://www.w3.org/2000/svg" xmlns:xlink="http://www.w3.org/1999/xlink" contentStyleType="text/css" height="759px" preserveAspectRatio="none" style="width:1343px;height:759px;background:#FFFFFF;" version="1.1" viewBox="0 0 1343 759" width="1343px" zoomAndPan="magnify"><defs/><g><!--cluster <<aggregate>> User--><g id="cluster_&lt;&lt;aggregate&gt;&gt; User"><path d="M8.5,410.36 L182.875,410.36 A3.75,3.75 0 0 1 185.375,412.86 L192.375,443.6 L776.5,443.6 A2.5,2.5 0 0 1 779,446.1 L779,749.86 A2.5,2.5 0 0 1 776.5,752.36 L8.5,752.36 A2.5,2.5 0 0 1 6,749.86 L6,412.86 A2.5,2.5 0 0 1 8.5,410.36 " fill="none" style="stroke:#000000;stroke-width:1.5;"/><line style="stroke:#000000;stroke-width:1.5;" x1="6" x2="192.375" y1="443.6" y2="443.6"/><text fill="#000000" font-family="sans-serif" font-size="20" font-weight="bold" lengthAdjust="spacing" textLength="173.375" x="10" y="433.74">«aggregate» User</text></g><!--cluster <<aggregate>> Teacher--><g id="cluster_&lt;&lt;aggregate&gt;&gt; Teacher"><path d="M805.5,195.36 L1011.75,195.36 A3.75,3.75 0 0 1 1014.25,197.86 L1021.25,228.6 L1021.5,228.6 A2.5,2.5 0 0 1 1024,231.1 L1024,565.36 A2.5,2.5 0 0 1 1021.5,567.86 L805.5,567.86 A2.5,2.5 0 0 1 803,565.36 L803,197.86 A2.5,2.5 0 0 1 805.5,195.36 " fill="none" style="stroke:#000000;stroke-width:1.5;"/><line style="stroke:#000000;stroke-width:1.5;" x1="803" x2="1021.25" y1="228.6" y2="228.6"/><text fill="#000000" font-family="sans-serif" font-size="20" font-weight="bold" lengthAdjust="spacing" textLength="205.25" x="807" y="218.74">«aggregate» Teacher</text></g><!--cluster <<aggregate>> Student--><g id="cluster_&lt;&lt;aggregate&gt;&gt; Student"><path d="M1050.5,195.36 L1254.75,195.36 A3.75,3.75 0 0 1 1257.25,197.86 L1264.25,228.6 L1333.5,228.6 A2.5,2.5 0 0 1 1336,231.1 L1336,565.36 A2.5,2.5 0 0 1 1333.5,567.86 L1050.5,567.86 A2.5,2.5 0 0 1 1048,565.36 L1048,197.86 A2.5,2.5 0 0 1 1050.5,195.36 " fill="none" style="stroke:#000000;stroke-width:1.5;"/><line style="stroke:#000000;stroke-width:1.5;" x1="1048" x2="1264.25" y1="228.6" y2="228.6"/><text fill="#000000" font-family="sans-serif" font-size="20" font-weight="bold" lengthAdjust="spacing" textLength="203.25" x="1052" y="218.74">«aggregate» Student</text></g><!--cluster <<aggregate>> Manager--><g id="cluster_&lt;&lt;aggregate&gt;&gt; Manager"><path d="M133.5,195.36 L348.75,195.36 A3.75,3.75 0 0 1 351.25,197.86 L358.25,228.6 L358.5,228.6 A2.5,2.5 0 0 1 361,231.1 L361,346.86 A2.5,2.5 0 0 1 358.5,349.36 L133.5,349.36 A2.5,2.5 0 0 1 131,346.86 L131,197.86 A2.5,2.5 0 0 1 133.5,195.36 " fill="none" style="stroke:#000000;stroke-width:1.5;"/><line style="stroke:#000000;stroke-width:1.5;" x1="131" x2="358.25" y1="228.6" y2="228.6"/><text fill="#000000" font-family="sans-serif" font-size="20" font-weight="bold" lengthAdjust="spacing" textLength="214.25" x="135" y="218.74">«aggregate» Manager</text></g><!--cluster <<aggregate>> Board--><g id="cluster_&lt;&lt;aggregate&gt;&gt; Board"><path d="M314.5,8.36 L501.5,8.36 A3.75,3.75 0 0 1 504,10.86 L511,41.6 L511.5,41.6 A2.5,2.5 0 0 1 514,44.1 L514,159.86 A2.5,2.5 0 0 1 511.5,162.36 L314.5,162.36 A2.5,2.5 0 0 1 312,159.86 L312,10.86 A2.5,2.5 0 0 1 314.5,8.36 " fill="none" style="stroke:#000000;stroke-width:1.5;"/><line style="stroke:#000000;stroke-width:1.5;" x1="312" x2="511" y1="41.6" y2="41.6"/><text fill="#000000" font-family="sans-serif" font-size="20" font-weight="bold" lengthAdjust="spacing" textLength="186" x="316" y="31.74">«aggregate» Board</text></g><!--cluster <<aggregate>> Meeting--><g id="cluster_&lt;&lt;aggregate&gt;&gt; Meeting"><path d="M558.5,195.36 L766.75,195.36 A3.75,3.75 0 0 1 769.25,197.86 L776.25,228.6 L776.5,228.6 A2.5,2.5 0 0 1 779,231.1 L779,346.86 A2.5,2.5 0 0 1 776.5,349.36 L558.5,349.36 A2.5,2.5 0 0 1 556,346.86 L556,197.86 A2.5,2.5 0 0 1 558.5,195.36 " fill="none" style="stroke:#000000;stroke-width:1.5;"/><line style="stroke:#000000;stroke-width:1.5;" x1="556" x2="776.25" y1="228.6" y2="228.6"/><text fill="#000000" font-family="sans-serif" font-size="20" font-weight="bold" lengthAdjust="spacing" textLength="207.25" x="560" y="218.74">«aggregate» Meeting</text></g><!--class User--><g id="elem_User"><rect codeLine="21" fill="#F5F5DC" height="126.9599" id="User" rx="2.5" ry="2.5" style="stroke:#181818;stroke-width:0.5;" width="100" x="365" y="456.36"/><ellipse cx="381" cy="502.22" fill="#ADD1B2" rx="12" ry="12" style="stroke:#181818;stroke-width:1.0;"/><path d="M385.0469,509.72 L376.4375,509.72 L376.4375,494.8137 L385.0469,494.8137 L385.0469,497.0168 L378.8594,497.0168 L378.8594,500.8606 L384.6875,500.8606 L384.6875,503.0325 L378.8594,503.0325 L378.8594,507.5168 L385.0469,507.5168 L385.0469,509.72 Z " fill="#000000"/><text fill="#000000" font-family="sans-serif" font-size="20" font-style="italic" lengthAdjust="spacing" textLength="70" x="394" y="482.74">«entity»</text><text fill="#000000" font-family="sans-serif" font-size="20" font-style="italic" lengthAdjust="spacing" textLength="57" x="400.5" y="509.9799">«root»</text><text fill="#000000" font-family="sans-serif" font-size="20" lengthAdjust="spacing" textLength="44" x="407" y="537.2199">User</text><line style="stroke:#181818;stroke-width:0.5;" x1="366" x2="464" y1="548.0799" y2="548.0799"/><text fill="#000000" font-family="sans-serif" font-size="20" lengthAdjust="spacing" textLength="77" x="371" y="573.4599">-isActive</text></g><!--class Password--><g id="elem_Password"><rect codeLine="23" fill="#F5F5DC" height="64.4799" id="Password" rx="2.5" ry="2.5" style="stroke:#181818;stroke-width:0.5;" width="156" x="22" y="672.36"/><ellipse cx="38" cy="704.6" fill="#FF8B40" rx="12" ry="12" style="stroke:#181818;stroke-width:1.0;"/><path d="M44.25,698.4437 L38.9375,713.35 L36.6875,713.35 L31.375,698.4437 L33.9063,698.4437 L37.2031,707.8031 Q37.4219,708.3968 37.5781,708.9437 Q37.75,709.4906 37.875,709.9906 Q38.0156,710.475 37.8125,710.5218 Q37.5938,710.4906 37.7344,709.975 Q37.875,709.4593 38.0469,708.9281 Q38.2188,708.3812 38.4219,707.7718 L41.6875,698.4437 L44.25,698.4437 Z " fill="#000000"/><text fill="#000000" font-family="sans-serif" font-size="20" font-style="italic" lengthAdjust="spacing" textLength="126" x="51" y="698.74">«value object»</text><text fill="#000000" font-family="sans-serif" font-size="20" lengthAdjust="spacing" textLength="91" x="68.5" y="725.9799">Password</text></g><!--class Email--><g id="elem_Email"><rect codeLine="26" fill="#F5F5DC" height="64.4799" id="Email" rx="2.5" ry="2.5" style="stroke:#181818;stroke-width:0.5;" width="156" x="213" y="672.36"/><ellipse cx="229" cy="704.6" fill="#FF8B40" rx="12" ry="12" style="stroke:#181818;stroke-width:1.0;"/><path d="M235.25,698.4437 L229.9375,713.35 L227.6875,713.35 L222.375,698.4437 L224.9063,698.4437 L228.2031,707.8031 Q228.4219,708.3968 228.5781,708.9437 Q228.75,709.4906 228.875,709.9906 Q229.0156,710.475 228.8125,710.5218 Q228.5938,710.4906 228.7344,709.975 Q228.875,709.4593 229.0469,708.9281 Q229.2188,708.3812 229.4219,707.7718 L232.6875,698.4437 L235.25,698.4437 Z " fill="#000000"/><text fill="#000000" font-family="sans-serif" font-size="20" font-style="italic" lengthAdjust="spacing" textLength="126" x="242" y="698.74">«value object»</text><text fill="#000000" font-family="sans-serif" font-size="20" lengthAdjust="spacing" textLength="51" x="279.5" y="725.9799">Email</text></g><!--class FullName--><g id="elem_FullName"><rect codeLine="24" fill="#F5F5DC" height="64.4799" id="FullName" rx="2.5" ry="2.5" style="stroke:#181818;stroke-width:0.5;" width="156" x="404" y="672.36"/><ellipse cx="420" cy="704.6" fill="#FF8B40" rx="12" ry="12" style="stroke:#181818;stroke-width:1.0;"/><path d="M426.25,698.4437 L420.9375,713.35 L418.6875,713.35 L413.375,698.4437 L415.9063,698.4437 L419.2031,707.8031 Q419.4219,708.3968 419.5781,708.9437 Q419.75,709.4906 419.875,709.9906 Q420.0156,710.475 419.8125,710.5218 Q419.5938,710.4906 419.7344,709.975 Q419.875,709.4593 420.0469,708.9281 Q420.2188,708.3812 420.4219,707.7718 L423.6875,698.4437 L426.25,698.4437 Z " fill="#000000"/><text fill="#000000" font-family="sans-serif" font-size="20" font-style="italic" lengthAdjust="spacing" textLength="126" x="433" y="698.74">«value object»</text><text fill="#000000" font-family="sans-serif" font-size="20" lengthAdjust="spacing" textLength="88" x="452" y="725.9799">FullName</text></g><!--class ShortName--><g id="elem_ShortName"><rect codeLine="25" fill="#F5F5DC" height="64.4799" id="ShortName" rx="2.5" ry="2.5" style="stroke:#181818;stroke-width:0.5;" width="156" x="595" y="672.36"/><ellipse cx="611" cy="704.6" fill="#FF8B40" rx="12" ry="12" style="stroke:#181818;stroke-width:1.0;"/><path d="M617.25,698.4437 L611.9375,713.35 L609.6875,713.35 L604.375,698.4437 L606.9063,698.4437 L610.2031,707.8031 Q610.4219,708.3968 610.5781,708.9437 Q610.75,709.4906 610.875,709.9906 Q611.0156,710.475 610.8125,710.5218 Q610.5938,710.4906 610.7344,709.975 Q610.875,709.4593 611.0469,708.9281 Q611.2188,708.3812 611.4219,707.7718 L614.6875,698.4437 L617.25,698.4437 Z " fill="#000000"/><text fill="#000000" font-family="sans-serif" font-size="20" font-style="italic" lengthAdjust="spacing" textLength="126" x="624" y="698.74">«value object»</text><text fill="#000000" font-family="sans-serif" font-size="20" lengthAdjust="spacing" textLength="106" x="634" y="725.9799">ShortName</text></g><!--class Teacher--><g id="elem_Teacher"><rect codeLine="39" fill="#F5F5DC" height="91.7199" id="Teacher" rx="2.5" ry="2.5" style="stroke:#181818;stroke-width:0.5;" width="108" x="819" y="241.36"/><ellipse cx="835" cy="287.22" fill="#ADD1B2" rx="12" ry="12" style="stroke:#181818;stroke-width:1.0;"/><path d="M839.0469,294.72 L830.4375,294.72 L830.4375,279.8137 L839.0469,279.8137 L839.0469,282.0168 L832.8594,282.0168 L832.8594,285.8606 L838.6875,285.8606 L838.6875,288.0325 L832.8594,288.0325 L832.8594,292.5168 L839.0469,292.5168 L839.0469,294.72 Z " fill="#000000"/><text fill="#000000" font-family="sans-serif" font-size="20" font-style="italic" lengthAdjust="spacing" textLength="70" x="852" y="267.74">«entity»</text><text fill="#000000" font-family="sans-serif" font-size="20" font-style="italic" lengthAdjust="spacing" textLength="57" x="858.5" y="294.9799">«root»</text><text fill="#000000" font-family="sans-serif" font-size="20" lengthAdjust="spacing" textLength="74" x="850" y="322.2199">Teacher</text></g><!--class Acronym--><g id="elem_Acronym"><rect codeLine="72" fill="#F5F5DC" height="64.4799" id="Acronym" rx="2.5" ry="2.5" style="stroke:#181818;stroke-width:0.5;" width="156" x="819" y="487.86"/><ellipse cx="835" cy="520.1" fill="#FF8B40" rx="12" ry="12" style="stroke:#181818;stroke-width:1.0;"/><path d="M841.25,513.9437 L835.9375,528.85 L833.6875,528.85 L828.375,513.9437 L830.9063,513.9437 L834.2031,523.3031 Q834.4219,523.8968 834.5781,524.4437 Q834.75,524.9906 834.875,525.4906 Q835.0156,525.975 834.8125,526.0218 Q834.5938,525.9906 834.7344,525.475 Q834.875,524.9593 835.0469,524.4281 Q835.2188,523.8812 835.4219,523.2718 L838.6875,513.9437 L841.25,513.9437 Z " fill="#000000"/><text fill="#000000" font-family="sans-serif" font-size="20" font-style="italic" lengthAdjust="spacing" textLength="126" x="848" y="514.24">«value object»</text><text fill="#000000" font-family="sans-serif" font-size="20" lengthAdjust="spacing" textLength="84" x="869" y="541.4799">Acronym</text></g><!--class Student--><g id="elem_Student"><rect codeLine="48" fill="#F5F5DC" height="91.7199" id="Student" rx="2.5" ry="2.5" style="stroke:#181818;stroke-width:0.5;" width="106" x="1101" y="241.36"/><ellipse cx="1117" cy="287.22" fill="#ADD1B2" rx="12" ry="12" style="stroke:#181818;stroke-width:1.0;"/><path d="M1121.0469,294.72 L1112.4375,294.72 L1112.4375,279.8137 L1121.0469,279.8137 L1121.0469,282.0168 L1114.8594,282.0168 L1114.8594,285.8606 L1120.6875,285.8606 L1120.6875,288.0325 L1114.8594,288.0325 L1114.8594,292.5168 L1121.0469,292.5168 L1121.0469,294.72 Z " fill="#000000"/><text fill="#000000" font-family="sans-serif" font-size="20" font-style="italic" lengthAdjust="spacing" textLength="70" x="1133" y="267.74">«entity»</text><text fill="#000000" font-family="sans-serif" font-size="20" font-style="italic" lengthAdjust="spacing" textLength="57" x="1139.5" y="294.9799">«root»</text><text fill="#000000" font-family="sans-serif" font-size="20" lengthAdjust="spacing" textLength="72" x="1132" y="322.2199">Student</text></g><!--class MecanographicNumber--><g id="elem_MecanographicNumber"><rect codeLine="73" fill="#F5F5DC" height="64.4799" id="MecanographicNumber" rx="2.5" ry="2.5" style="stroke:#181818;stroke-width:0.5;" width="255" x="1064.5" y="487.86"/><ellipse cx="1080.5" cy="520.1" fill="#FF8B40" rx="12" ry="12" style="stroke:#181818;stroke-width:1.0;"/><path d="M1086.75,513.9437 L1081.4375,528.85 L1079.1875,528.85 L1073.875,513.9437 L1076.4063,513.9437 L1079.7031,523.3031 Q1079.9219,523.8968 1080.0781,524.4437 Q1080.25,524.9906 1080.375,525.4906 Q1080.5156,525.975 1080.3125,526.0218 Q1080.0938,525.9906 1080.2344,525.475 Q1080.375,524.9593 1080.5469,524.4281 Q1080.7188,523.8812 1080.9219,523.2718 L1084.1875,513.9437 L1086.75,513.9437 Z " fill="#000000"/><text fill="#000000" font-family="sans-serif" font-size="20" font-style="italic" lengthAdjust="spacing" textLength="126" x="1143" y="514.24">«value object»</text><text fill="#000000" font-family="sans-serif" font-size="20" lengthAdjust="spacing" textLength="221" x="1095.5" y="541.4799">MecanographicNumber</text></g><!--class Manager--><g id="elem_Manager"><rect codeLine="55" fill="#F5F5DC" height="91.7199" id="Manager" rx="2.5" ry="2.5" style="stroke:#181818;stroke-width:0.5;" width="117" x="225.5" y="241.36"/><ellipse cx="241.5" cy="287.22" fill="#ADD1B2" rx="12" ry="12" style="stroke:#181818;stroke-width:1.0;"/><path d="M245.5469,294.72 L236.9375,294.72 L236.9375,279.8137 L245.5469,279.8137 L245.5469,282.0168 L239.3594,282.0168 L239.3594,285.8606 L245.1875,285.8606 L245.1875,288.0325 L239.3594,288.0325 L239.3594,292.5168 L245.5469,292.5168 L245.5469,294.72 Z " fill="#000000"/><text fill="#000000" font-family="sans-serif" font-size="20" font-style="italic" lengthAdjust="spacing" textLength="70" x="263" y="267.74">«entity»</text><text fill="#000000" font-family="sans-serif" font-size="20" font-style="italic" lengthAdjust="spacing" textLength="57" x="269.5" y="294.9799">«root»</text><text fill="#000000" font-family="sans-serif" font-size="20" lengthAdjust="spacing" textLength="83" x="256.5" y="322.2199">Manager</text></g><!--class Board--><g id="elem_Board"><rect codeLine="62" fill="#F5F5DC" height="91.7199" id="Board" rx="2.5" ry="2.5" style="stroke:#181818;stroke-width:0.5;" width="100" x="363" y="54.36"/><ellipse cx="379" cy="100.22" fill="#ADD1B2" rx="12" ry="12" style="stroke:#181818;stroke-width:1.0;"/><path d="M383.0469,107.72 L374.4375,107.72 L374.4375,92.8137 L383.0469,92.8137 L383.0469,95.0168 L376.8594,95.0168 L376.8594,98.8606 L382.6875,98.8606 L382.6875,101.0325 L376.8594,101.0325 L376.8594,105.5168 L383.0469,105.5168 L383.0469,107.72 Z " fill="#000000"/><text fill="#000000" font-family="sans-serif" font-size="20" font-style="italic" lengthAdjust="spacing" textLength="70" x="392" y="80.74">«entity»</text><text fill="#000000" font-family="sans-serif" font-size="20" font-style="italic" lengthAdjust="spacing" textLength="57" x="398.5" y="107.9799">«root»</text><text fill="#000000" font-family="sans-serif" font-size="20" lengthAdjust="spacing" textLength="56" x="399" y="135.2199">Board</text></g><!--class Meeting--><g id="elem_Meeting"><rect codeLine="69" fill="#F5F5DC" height="91.7199" id="Meeting" rx="2.5" ry="2.5" style="stroke:#181818;stroke-width:0.5;" width="110" x="575" y="241.36"/><ellipse cx="591" cy="287.22" fill="#ADD1B2" rx="12" ry="12" style="stroke:#181818;stroke-width:1.0;"/><path d="M595.0469,294.72 L586.4375,294.72 L586.4375,279.8137 L595.0469,279.8137 L595.0469,282.0168 L588.8594,282.0168 L588.8594,285.8606 L594.6875,285.8606 L594.6875,288.0325 L588.8594,288.0325 L588.8594,292.5168 L595.0469,292.5168 L595.0469,294.72 Z " fill="#000000"/><text fill="#000000" font-family="sans-serif" font-size="20" font-style="italic" lengthAdjust="spacing" textLength="70" x="609" y="267.74">«entity»</text><text fill="#000000" font-family="sans-serif" font-size="20" font-style="italic" lengthAdjust="spacing" textLength="57" x="615.5" y="294.9799">«root»</text><text fill="#000000" font-family="sans-serif" font-size="20" lengthAdjust="spacing" textLength="76" x="606" y="322.2199">Meeting</text></g><!--link User to Password--><g id="link_User_Password"><path codeLine="28" d="M364.66,528.55 C284.87,541.87 135.09,571.84 103,613.36 C91.76,627.9 90.21,648.07 91.82,665.63 " fill="none" id="User-to-Password" style="stroke:#222222;stroke-width:1.0;"/><polygon fill="#222222" points="92.38,670.46,95.3261,661.0621,91.809,665.4927,87.3784,661.9756,92.38,670.46" style="stroke:#222222;stroke-width:1.0;"/><text fill="#000000" font-family="sans-serif" font-size="20" lengthAdjust="spacing" textLength="160" x="104" y="635.74">associated with a</text><text fill="#000000" font-family="sans-serif" font-size="20" lengthAdjust="spacing" textLength="11" x="79.3242" y="658.4303">1</text></g><!--link User to FullName--><g id="link_User_FullName"><path codeLine="29" d="M403.05,583.56 C402.01,603.13 403.79,624.31 412,642.36 C416.26,651.72 422.74,660.2 430.07,667.66 " fill="none" id="User-to-FullName" style="stroke:#222222;stroke-width:1.0;"/><polygon fill="#222222" points="433.64,671.11,429.9561,661.9761,430.0477,667.6322,424.3916,667.7238,433.64,671.11" style="stroke:#222222;stroke-width:1.0;"/><text fill="#000000" font-family="sans-serif" font-size="20" lengthAdjust="spacing" textLength="152" x="413" y="635.74">characterized by</text><text fill="#000000" font-family="sans-serif" font-size="20" lengthAdjust="spacing" textLength="11" x="414.3303" y="658.3901">1</text></g><!--link User to ShortName--><g id="link_User_ShortName"><path codeLine="30" d="M465.31,547.83 C496.37,565.22 536.53,589.05 570,613.36 C592.85,629.95 616.7,650.55 635.69,667.85 " fill="none" id="User-to-ShortName" style="stroke:#222222;stroke-width:1.0;"/><polygon fill="#222222" points="639.29,671.15,635.349,662.124,635.6007,667.7753,629.9494,668.0269,639.29,671.15" style="stroke:#222222;stroke-width:1.0;"/><text fill="#000000" font-family="sans-serif" font-size="20" lengthAdjust="spacing" textLength="152" x="606" y="635.74">characterized by</text><text fill="#000000" font-family="sans-serif" font-size="20" lengthAdjust="spacing" textLength="11" x="622.6134" y="658.4019">1</text></g><!--link User to Email--><g id="link_User_Email"><path codeLine="31" d="M364.68,540.75 C334.18,555.74 297.82,579.55 280,613.36 C271.57,629.36 272.92,649.13 276.97,666.05 " fill="none" id="User-to-Email" style="stroke:#222222;stroke-width:1.0;"/><polygon fill="#222222" points="278.19,670.69,279.7664,660.9681,276.9168,665.8548,272.0301,663.0052,278.19,670.69" style="stroke:#222222;stroke-width:1.0;"/><text fill="#000000" font-family="sans-serif" font-size="20" lengthAdjust="spacing" textLength="114" x="281" y="635.74">identified by</text><text fill="#000000" font-family="sans-serif" font-size="20" lengthAdjust="spacing" textLength="11" x="264.3762" y="658.3665">1</text></g><!--link Student to MecanographicNumber--><g id="link_Student_MecanographicNumber"><path codeLine="75" d="M1161.46,333.62 C1168.56,376.68 1179.12,440.72 1185.78,481.11 " fill="none" id="Student-to-MecanographicNumber" style="stroke:#222222;stroke-width:1.0;"/><polygon fill="#222222" points="1186.56,485.88,1189.0707,476.3565,1185.7611,480.9442,1181.1734,477.6347,1186.56,485.88" style="stroke:#222222;stroke-width:1.0;"/><text fill="#000000" font-family="sans-serif" font-size="20" lengthAdjust="spacing" textLength="114" x="1171" y="387.74">identified by</text><text fill="#000000" font-family="sans-serif" font-size="20" lengthAdjust="spacing" textLength="11" x="1174.0395" y="474.1247">1</text></g><!--link Teacher to Acronym--><g id="link_Teacher_Acronym"><path codeLine="77" d="M877.71,333.62 C882.2,376.68 888.86,440.72 893.07,481.11 " fill="none" id="Teacher-to-Acronym" style="stroke:#222222;stroke-width:1.0;"/><polygon fill="#222222" points="893.57,485.87,896.6227,476.5062,893.0555,480.8965,888.6651,477.3294,893.57,485.87" style="stroke:#222222;stroke-width:1.0;"/><text fill="#000000" font-family="sans-serif" font-size="20" lengthAdjust="spacing" textLength="114" x="884" y="387.74">identified by</text><text fill="#000000" font-family="sans-serif" font-size="20" lengthAdjust="spacing" textLength="11" x="881.2658" y="474.1247">1</text></g><!--link Teacher to User--><g id="link_Teacher_User"><path codeLine="79" d="M818.85,320.68 C781.86,342.34 731.51,371.06 686,394.36 C618.63,428.85 539.83,464.55 484.62,488.83 " fill="none" id="Teacher-to-User" style="stroke:#222222;stroke-width:1.0;"/><polygon fill="none" points="487.57,495.18,466.44,496.78,481.96,482.35,487.57,495.18" style="stroke:#222222;stroke-width:1.0;"/><text fill="#000000" font-family="sans-serif" font-size="20" lengthAdjust="spacing" textLength="11" x="472.8731" y="486.7314">1</text></g><!--link Student to User--><g id="link_Student_User"><path codeLine="80" d="M1100.84,333.4 C1070.68,356.14 1031.03,381.56 991,394.36 C951.17,407.1 844.23,395.4 803,402.36 C689.29,421.54 562.07,463.94 485.29,491.95 " fill="none" id="Student-to-User" style="stroke:#222222;stroke-width:1.0;"/><polygon fill="none" points="488.1,498.38,466.92,498.74,483.25,485.24,488.1,498.38" style="stroke:#222222;stroke-width:1.0;"/><text fill="#000000" font-family="sans-serif" font-size="20" lengthAdjust="spacing" textLength="11" x="473.025" y="519.7047">1</text></g><!--link Manager to User--><g id="link_Manager_User"><path codeLine="81" d="M309.73,333.62 C326.59,363.3 349.11,402.93 369,437.92 " fill="none" id="Manager-to-User" style="stroke:#222222;stroke-width:1.0;"/><polygon fill="none" points="374.88,434.09,378.67,454.94,362.7,441.01,374.88,434.09" style="stroke:#222222;stroke-width:1.0;"/><text fill="#000000" font-family="sans-serif" font-size="20" lengthAdjust="spacing" textLength="11" x="364.1836" y="442.6924">1</text></g><!--link Board to User--><g id="link_Board_User"><path codeLine="83" d="M413.22,146.83 C413.57,219.93 414.26,364.02 414.67,449.84 " fill="none" id="Board-to-User" style="stroke:#222222;stroke-width:1.0;"/><polygon fill="#222222" points="414.69,454.66,418.6385,445.6373,414.6614,449.6601,410.6386,445.683,414.69,454.66" style="stroke:#222222;stroke-width:1.0;"/><text fill="#000000" font-family="sans-serif" font-size="20" lengthAdjust="spacing" textLength="125" x="415" y="295.24">has an owner</text><text fill="#000000" font-family="sans-serif" font-size="20" lengthAdjust="spacing" textLength="11" x="403.1019" y="442.6152">1</text></g><!--link Meeting to User--><g id="link_Meeting_User"><path codeLine="85" d="M587.78,333.62 C554.05,369.78 506.53,420.73 469.86,460.05 " fill="none" id="Meeting-to-User" style="stroke:#222222;stroke-width:1.0;"/><polygon fill="#222222" points="466.47,463.68,475.5276,459.8121,469.8744,460.0181,469.6685,454.365,466.47,463.68" style="stroke:#222222;stroke-width:1.0;"/><text fill="#000000" font-family="sans-serif" font-size="20" lengthAdjust="spacing" textLength="122" x="555" y="387.74">scheduled by</text><text fill="#000000" font-family="sans-serif" font-size="20" lengthAdjust="spacing" textLength="11" x="472.9569" y="449.9634">1</text></g><!--SRC=[bLJ1Zjem4BtxAqRiOLkf55Zri8eY9AYAj8TTLQBjtJX3ukBOgUqieYt_teb3Ga8N0HoG_VnctXlFE6uZTS4jpvKH6qmWmJKlbLyOxPVoDyB3cDrdtXSk6eqAnRKlS_LHc7ma57Tkc4YUKZ1Zhia3uM3clPMhqkEJC3ea6hDC9WYO5tu7l3bsNJH7dvd4dUQQSx59hIbryjaeOs65CiKEQMQjsTP7Tm_XnrX1CJn56CGnJrEBAVSudS9tXtO0VnW0QYz9iW9e5tJWA_rjZKrQu4lEfMftYrAf5vvZ2ompOtr0zenr4a8SrpjIZ6DhZAT59Je4wMR2ozVJ2CRw3YZitOyFTul5u_pJ-3sySbKYcDLF527LdlKTNKbl_Lx93-LVvB9Gyd0uXS5aSAmW0beP8UdY4zXAdm7lCrlp4OYC6YayMXgK15QxFl5e-nApDXm1ZHJTxLhMb7F3y0svo4xcuO2rBPu9Q_Gkhzh5-fGpJTwVbLlwihBLapjWhTmp2guDlQWYa-Abp5TafIDzeDyi_SmreVrA3rXd40_8pTddXjkabpiWdSnXVxjhH2zrsdTTOrtNDN8-Uw-HLqx-6tsu_0wQxZJJ-5QIqzcyXsLX9GLDgWcmX0lkfT6ElXM_IdJL6YQF4GoUm6TIRq1ws9fIKJJIit88tj3bh8qLjCou1rvNwYf2gILb6G0vwkisGznuRQxdlxTp9FwjcU5pTIorYpO3r4TPtVrX8nLUR0GPTy0rcAskE4qNJqYEj9DIrLx-0G00]--></g></svg>