<?xml version="1.0" encoding="UTF-8" standalone="no"?><svg xmlns="http://www.w3.org/2000/svg" xmlns:xlink="http://www.w3.org/1999/xlink" contentStyleType="text/css" height="644px" preserveAspectRatio="none" style="width:1246px;height:644px;background:#FFFFFF;" version="1.1" viewBox="0 0 1246 644" width="1246px" zoomAndPan="magnify"><defs/><g><!--cluster <<aggregate>> Board--><g id="cluster_&lt;&lt;aggregate&gt;&gt; Board"><path d="M8.5,7.2168 L227.5,7.2168 A3.75,3.75 0 0 1 230,9.7168 L237,36.498 L993.5,36.498 A2.5,2.5 0 0 1 996,38.998 L996,520.2168 A2.5,2.5 0 0 1 993.5,522.7168 L8.5,522.7168 A2.5,2.5 0 0 1 6,520.2168 L6,9.7168 A2.5,2.5 0 0 1 8.5,7.2168 " fill="none" style="stroke:#000000;stroke-width:1.5;"/><line style="stroke:#000000;stroke-width:1.5;" x1="6" x2="237" y1="36.498" y2="36.498"/><text fill="#000000" font-family="sans-serif" font-size="20" font-weight="bold" lengthAdjust="spacing" textLength="218" x="10" y="27.7813">«aggregate» Board</text></g><!--cluster <<aggregate>> User--><g id="cluster_&lt;&lt;aggregate&gt;&gt; User"><path d="M1022.5,396.2168 L1226.5,396.2168 A3.75,3.75 0 0 1 1229,398.7168 L1236,425.498 L1236.5,425.498 A2.5,2.5 0 0 1 1239,427.998 L1239,531.7168 A2.5,2.5 0 0 1 1236.5,534.2168 L1022.5,534.2168 A2.5,2.5 0 0 1 1020,531.7168 L1020,398.7168 A2.5,2.5 0 0 1 1022.5,396.2168 " fill="none" style="stroke:#000000;stroke-width:1.5;"/><line style="stroke:#000000;stroke-width:1.5;" x1="1020" x2="1236" y1="425.498" y2="425.498"/><text fill="#000000" font-family="sans-serif" font-size="20" font-weight="bold" lengthAdjust="spacing" textLength="203" x="1024" y="416.7813">«aggregate» User</text></g><!--class Board--><g id="elem_Board"><rect codeLine="29" fill="#F5F5DC" height="79.8438" id="Board" rx="2.5" ry="2.5" style="stroke:#181818;stroke-width:0.5;" width="113" x="549.5" y="49.2168"/><ellipse cx="565.5" cy="89.1387" fill="#ADD1B2" rx="12" ry="12" style="stroke:#181818;stroke-width:1.0;"/><path d="M570.2188,96.6387 L561.1406,96.6387 L561.1406,82.0605 L570.2188,82.0605 L570.2188,84.5918 L564.0156,84.5918 L564.0156,87.748 L569.6406,87.748 L569.6406,90.2793 L564.0156,90.2793 L564.0156,94.0918 L570.2188,94.0918 L570.2188,96.6387 Z " fill="#000000"/><text fill="#000000" font-family="sans-serif" font-size="20" font-style="italic" lengthAdjust="spacing" textLength="83" x="578.5" y="72.7813">«entity»</text><text fill="#000000" font-family="sans-serif" font-size="20" font-style="italic" lengthAdjust="spacing" textLength="64" x="588" y="96.0625">«root»</text><text fill="#000000" font-family="sans-serif" font-size="20" lengthAdjust="spacing" textLength="59" x="590.5" y="119.3438">Board</text></g><!--class Title--><g id="elem_Title"><rect codeLine="40" fill="#F5F5DC" height="56.5625" id="Title" rx="2.5" ry="2.5" style="stroke:#181818;stroke-width:0.5;" width="177" x="209.5" y="449.7168"/><ellipse cx="225.5" cy="477.998" fill="#FF8B40" rx="12" ry="12" style="stroke:#181818;stroke-width:1.0;"/><path d="M225.5156,483.8418 L228.0781,471.6699 L230.9844,471.6699 L227.5156,486.248 L223.5313,486.248 L220.0625,471.6699 L222.9531,471.6699 L225.5156,483.8418 Z " fill="#000000"/><text fill="#000000" font-family="sans-serif" font-size="20" font-style="italic" lengthAdjust="spacing" textLength="147" x="238.5" y="473.2813">«value object»</text><text fill="#000000" font-family="sans-serif" font-size="20" lengthAdjust="spacing" textLength="44" x="290" y="496.5625">Title</text></g><!--class Column--><g id="elem_Column"><rect codeLine="32" fill="#F5F5DC" height="87.8438" id="Column" rx="2.5" ry="2.5" style="stroke:#181818;stroke-width:0.5;" width="113" x="283.5" y="225.7168"/><ellipse cx="299.5" cy="253.998" fill="#ADD1B2" rx="12" ry="12" style="stroke:#181818;stroke-width:1.0;"/><path d="M304.2188,261.498 L295.1406,261.498 L295.1406,246.9199 L304.2188,246.9199 L304.2188,249.4512 L298.0156,249.4512 L298.0156,252.6074 L303.6406,252.6074 L303.6406,255.1387 L298.0156,255.1387 L298.0156,258.9512 L304.2188,258.9512 L304.2188,261.498 Z " fill="#000000"/><text fill="#000000" font-family="sans-serif" font-size="20" font-style="italic" lengthAdjust="spacing" textLength="83" x="312.5" y="249.2813">«entity»</text><text fill="#000000" font-family="sans-serif" font-size="20" lengthAdjust="spacing" textLength="78" x="315" y="272.5625">Column</text><line style="stroke:#181818;stroke-width:0.5;" x1="284.5" x2="395.5" y1="282.2793" y2="282.2793"/><text fill="#000000" font-family="sans-serif" font-size="20" lengthAdjust="spacing" textLength="86" x="289.5" y="304.8438">-number</text></g><!--class Row--><g id="elem_Row"><rect codeLine="36" fill="#F5F5DC" height="87.8438" id="Row" rx="2.5" ry="2.5" style="stroke:#181818;stroke-width:0.5;" width="113" x="431.5" y="225.7168"/><ellipse cx="447.5" cy="253.998" fill="#ADD1B2" rx="12" ry="12" style="stroke:#181818;stroke-width:1.0;"/><path d="M452.2188,261.498 L443.1406,261.498 L443.1406,246.9199 L452.2188,246.9199 L452.2188,249.4512 L446.0156,249.4512 L446.0156,252.6074 L451.6406,252.6074 L451.6406,255.1387 L446.0156,255.1387 L446.0156,258.9512 L452.2188,258.9512 L452.2188,261.498 Z " fill="#000000"/><text fill="#000000" font-family="sans-serif" font-size="20" font-style="italic" lengthAdjust="spacing" textLength="83" x="460.5" y="249.2813">«entity»</text><text fill="#000000" font-family="sans-serif" font-size="20" lengthAdjust="spacing" textLength="43" x="480.5" y="272.5625">Row</text><line style="stroke:#181818;stroke-width:0.5;" x1="432.5" x2="543.5" y1="282.2793" y2="282.2793"/><text fill="#000000" font-family="sans-serif" font-size="20" lengthAdjust="spacing" textLength="86" x="437.5" y="304.8438">-number</text></g><!--class Archived--><g id="elem_Archived"><rect codeLine="42" fill="#F5F5DC" height="87.8438" id="Archived" rx="2.5" ry="2.5" style="stroke:#181818;stroke-width:0.5;" width="177" x="579.5" y="225.7168"/><ellipse cx="595.5" cy="253.998" fill="#FF8B40" rx="12" ry="12" style="stroke:#181818;stroke-width:1.0;"/><path d="M595.5156,259.8418 L598.0781,247.6699 L600.9844,247.6699 L597.5156,262.248 L593.5313,262.248 L590.0625,247.6699 L592.9531,247.6699 L595.5156,259.8418 Z " fill="#000000"/><text fill="#000000" font-family="sans-serif" font-size="20" font-style="italic" lengthAdjust="spacing" textLength="147" x="608.5" y="249.2813">«value object»</text><text fill="#000000" font-family="sans-serif" font-size="20" lengthAdjust="spacing" textLength="88" x="638" y="272.5625">Archived</text><line style="stroke:#181818;stroke-width:0.5;" x1="580.5" x2="755.5" y1="282.2793" y2="282.2793"/><text fill="#000000" font-family="sans-serif" font-size="20" lengthAdjust="spacing" textLength="115" x="585.5" y="304.8438">-archivedAt</text></g><!--class UserPermission--><g id="elem_UserPermission"><rect codeLine="46" fill="#F5F5DC" height="111.125" id="UserPermission" rx="2.5" ry="2.5" style="stroke:#181818;stroke-width:0.5;" width="188" x="792" y="214.2168"/><ellipse cx="808" cy="242.498" fill="#ADD1B2" rx="12" ry="12" style="stroke:#181818;stroke-width:1.0;"/><path d="M812.7188,249.998 L803.6406,249.998 L803.6406,235.4199 L812.7188,235.4199 L812.7188,237.9512 L806.5156,237.9512 L806.5156,241.1074 L812.1406,241.1074 L812.1406,243.6387 L806.5156,243.6387 L806.5156,247.4512 L812.7188,247.4512 L812.7188,249.998 Z " fill="#000000"/><text fill="#000000" font-family="sans-serif" font-size="20" font-style="italic" lengthAdjust="spacing" textLength="83" x="858.5" y="237.7813">«entity»</text><text fill="#000000" font-family="sans-serif" font-size="20" lengthAdjust="spacing" textLength="154" x="823" y="261.0625">UserPermission</text><line style="stroke:#181818;stroke-width:0.5;" x1="793" x2="979" y1="270.7793" y2="270.7793"/><text fill="#000000" font-family="sans-serif" font-size="20" lengthAdjust="spacing" textLength="105" x="798" y="293.3438">-createdAt</text><text fill="#000000" font-family="sans-serif" font-size="20" lengthAdjust="spacing" textLength="113" x="798" y="316.625">-updatedAt</text></g><!--class PermissionType--><g id="elem_PermissionType"><rect codeLine="51" fill="#F5F5DC" height="56.5625" id="PermissionType" rx="2.5" ry="2.5" style="stroke:#181818;stroke-width:0.5;" width="191" x="788.5" y="449.7168"/><ellipse cx="804.5" cy="477.998" fill="#FF8B40" rx="12" ry="12" style="stroke:#181818;stroke-width:1.0;"/><path d="M804.5156,483.8418 L807.0781,471.6699 L809.9844,471.6699 L806.5156,486.248 L802.5313,486.248 L799.0625,471.6699 L801.9531,471.6699 L804.5156,483.8418 Z " fill="#000000"/><text fill="#000000" font-family="sans-serif" font-size="20" font-style="italic" lengthAdjust="spacing" textLength="147" x="824.5" y="473.2813">«value object»</text><text fill="#000000" font-family="sans-serif" font-size="20" lengthAdjust="spacing" textLength="157" x="819.5" y="496.5625">PermissionType</text></g><!--class User--><g id="elem_User"><rect codeLine="26" fill="#F5F5DC" height="79.8438" id="User" rx="2.5" ry="2.5" style="stroke:#181818;stroke-width:0.5;" width="113" x="1036.5" y="438.2168"/><ellipse cx="1052.5" cy="478.1387" fill="#ADD1B2" rx="12" ry="12" style="stroke:#181818;stroke-width:1.0;"/><path d="M1057.2188,485.6387 L1048.1406,485.6387 L1048.1406,471.0605 L1057.2188,471.0605 L1057.2188,473.5918 L1051.0156,473.5918 L1051.0156,476.748 L1056.6406,476.748 L1056.6406,479.2793 L1051.0156,479.2793 L1051.0156,483.0918 L1057.2188,483.0918 L1057.2188,485.6387 Z " fill="#000000"/><text fill="#000000" font-family="sans-serif" font-size="20" font-style="italic" lengthAdjust="spacing" textLength="83" x="1065.5" y="461.7813">«entity»</text><text fill="#000000" font-family="sans-serif" font-size="20" font-style="italic" lengthAdjust="spacing" textLength="64" x="1075" y="485.0625">«root»</text><text fill="#000000" font-family="sans-serif" font-size="20" lengthAdjust="spacing" textLength="45" x="1084.5" y="508.3438">User</text></g><g id="elem_GMN12"><path d="M841,581.2168 L841,637.7793 A0,0 0 0 0 841,637.7793 L927,637.7793 A0,0 0 0 0 927,637.7793 L927,591.2168 L917,581.2168 L888,581.2168 L884,506.9968 L880,581.2168 L841,581.2168 A0,0 0 0 0 841,581.2168 " fill="#FEFFDD" style="stroke:#181818;stroke-width:0.5;"/><path d="M917,581.2168 L917,591.2168 L927,591.2168 L917,581.2168 " fill="#FEFFDD" style="stroke:#181818;stroke-width:0.5;"/><text fill="#000000" font-family="sans-serif" font-size="20" lengthAdjust="spacing" textLength="56" x="847" y="604.7813">READ</text><text fill="#000000" font-family="sans-serif" font-size="20" lengthAdjust="spacing" textLength="65" x="847" y="628.0625">WRITE</text></g><!--link Board to Title--><g id="link_Board_Title"><path codeLine="59" d="M549.12,94.6068 C424.18,105.5768 132.33,138.8868 75,214.2168 C45.12,253.4768 51.95,281.6068 75,325.2168 C105.61,383.1168 169.27,423.1068 220.77,447.4768 " fill="none" id="Board-to-Title" style="stroke:#222222;stroke-width:1.0;"/><polygon fill="#222222" points="225.4,449.6468,218.9372,442.215,220.8694,447.5316,215.5528,449.4639,225.4,449.6468" style="stroke:#222222;stroke-width:1.0;"/><text fill="#000000" font-family="sans-serif" font-size="20" lengthAdjust="spacing" textLength="189" x="76" y="276.7813">is characterized by</text><text fill="#000000" font-family="sans-serif" font-size="20" lengthAdjust="spacing" textLength="13" x="196.0856" y="437.0209">1</text></g><!--reverse link Board to Column--><g id="link_Board_Column"><path codeLine="60" d="M536.24,95.4068 C452.48,103.2568 319.44,121.4368 289,159.2168 C273.14,178.8968 283.52,204.3068 298.94,225.6968 " fill="none" id="Board-backto-Column" style="stroke:#222222;stroke-width:1.0;"/><polygon fill="#222222" points="549.23,94.2368,542.898,90.7864,537.2776,95.3042,543.6096,98.7546,549.23,94.2368" style="stroke:#222222;stroke-width:1.0;"/><text fill="#000000" font-family="sans-serif" font-size="20" lengthAdjust="spacing" textLength="181" x="290" y="178.7813">has a collection of</text><text fill="#000000" font-family="sans-serif" font-size="20" lengthAdjust="spacing" textLength="35" x="255.339" y="213.1389">1..*</text></g><!--reverse link Board to Row--><g id="link_Board_Row"><path codeLine="61" d="M537.65,114.7468 C518.13,125.2868 499.15,139.7768 488,159.2168 C476.65,179.0068 475.94,204.2968 478.39,225.5968 " fill="none" id="Board-backto-Row" style="stroke:#222222;stroke-width:1.0;"/><polygon fill="#222222" points="549.48,108.8368,542.3246,107.9424,538.7469,114.2034,545.9023,115.0978,549.48,108.8368" style="stroke:#222222;stroke-width:1.0;"/><text fill="#000000" font-family="sans-serif" font-size="20" lengthAdjust="spacing" textLength="181" x="489" y="178.7813">has a collection of</text><text fill="#000000" font-family="sans-serif" font-size="20" lengthAdjust="spacing" textLength="35" x="439.4082" y="213.0242">1..*</text></g><!--reverse link Board to UserPermission--><g id="link_Board_UserPermission"><path codeLine="62" d="M673.64,133.3368 C711.75,157.6368 759.73,188.2168 800.44,214.1668 " fill="none" id="Board-backto-UserPermission" style="stroke:#222222;stroke-width:1.0;"/><polygon fill="#222222" points="662.66,126.3368,665.5728,132.9334,672.7823,132.7819,669.8695,126.1852,662.66,126.3368" style="stroke:#222222;stroke-width:1.0;"/><text fill="#000000" font-family="sans-serif" font-size="20" lengthAdjust="spacing" textLength="181" x="747" y="178.7813">has a collection of</text><text fill="#000000" font-family="sans-serif" font-size="20" lengthAdjust="spacing" textLength="35" x="752.8796" y="201.5691">0..*</text></g><!--link UserPermission to PermissionType--><g id="link_UserPermission_PermissionType"><path codeLine="64" d="M883.04,325.2468 C882.61,335.2168 882.23,345.5268 882,355.2168 C881.28,385.4668 881.99,419.9368 882.75,444.5068 " fill="none" id="UserPermission-to-PermissionType" style="stroke:#222222;stroke-width:1.0;"/><polygon fill="#222222" points="882.92,449.5968,886.6353,440.4756,882.7629,444.5993,878.6393,440.7269,882.92,449.5968" style="stroke:#222222;stroke-width:1.0;"/><text fill="#000000" font-family="sans-serif" font-size="20" lengthAdjust="spacing" textLength="35" x="883" y="374.7813">has</text><text fill="#000000" font-family="sans-serif" font-size="20" lengthAdjust="spacing" textLength="13" x="868.3566" y="436.9606">1</text></g><!--link UserPermission to User--><g id="link_UserPermission_User"><path codeLine="65" d="M911.2,325.4068 C923.03,345.4668 938.98,366.5868 959,380.2168 C972.91,389.6868 981.06,380.4868 996,388.2168 C1018.08,399.6468 1038.91,417.4268 1055.56,434.1068 " fill="none" id="UserPermission-to-User" style="stroke:#222222;stroke-width:1.0;"/><polygon fill="#222222" points="1059.27,437.8668,1055.7902,428.6532,1055.756,434.3099,1050.0992,434.2756,1059.27,437.8668" style="stroke:#222222;stroke-width:1.0;"/><text fill="#000000" font-family="sans-serif" font-size="20" lengthAdjust="spacing" textLength="105" x="960" y="374.7813">belongs to</text><text fill="#000000" font-family="sans-serif" font-size="20" lengthAdjust="spacing" textLength="13" x="1040.1098" y="425.5252">1</text></g><!--link Row to Title--><g id="link_Row_Title"><path codeLine="67" d="M479.64,313.7268 C473.8,335.3768 464.24,361.0168 449,380.2168 C426.66,408.3568 393.8,430.8368 364.43,447.0368 " fill="none" id="Row-to-Title" style="stroke:#222222;stroke-width:1.0;"/><polygon fill="#222222" points="359.75,449.5768,369.5674,448.7899,364.1422,447.1875,365.7446,441.7624,359.75,449.5768" style="stroke:#222222;stroke-width:1.0;"/><text fill="#000000" font-family="sans-serif" font-size="20" lengthAdjust="spacing" textLength="148" x="465" y="374.7813">is identified by</text><text fill="#000000" font-family="sans-serif" font-size="20" lengthAdjust="spacing" textLength="13" x="358.1453" y="436.9365">1</text></g><!--link Column to Title--><g id="link_Column_Title"><path codeLine="69" d="M311.87,313.7968 C304.97,326.6068 298.54,341.0268 295,355.2168 C287.62,384.7668 289.48,419.6068 292.52,444.4768 " fill="none" id="Column-to-Title" style="stroke:#222222;stroke-width:1.0;"/><polygon fill="#222222" points="293.19,449.6268,295.9993,440.1871,292.547,444.6683,288.0658,441.216,293.19,449.6268" style="stroke:#222222;stroke-width:1.0;"/><text fill="#000000" font-family="sans-serif" font-size="20" lengthAdjust="spacing" textLength="148" x="296" y="374.7813">is identified by</text><text fill="#000000" font-family="sans-serif" font-size="20" lengthAdjust="spacing" textLength="13" x="277.8573" y="436.9968">1</text></g><!--link Board to User--><g id="link_Board_User"><path codeLine="71" d="M662.54,93.0368 C730.9,98.3968 847.88,113.9868 937,159.2168 C1040.09,211.5268 1075.9,358.4968 1087.65,432.8868 " fill="none" id="Board-to-User" style="stroke:#222222;stroke-width:1.0;"/><polygon fill="#222222" points="1088.45,438.1168,1091.0412,428.6149,1087.6929,433.1744,1083.1334,429.8262,1088.45,438.1168" style="stroke:#222222;stroke-width:1.0;"/><text fill="#000000" font-family="sans-serif" font-size="20" lengthAdjust="spacing" textLength="119" x="1060" y="276.7813">is owned by</text><text fill="#000000" font-family="sans-serif" font-size="20" lengthAdjust="spacing" textLength="13" x="1073.6889" y="425.4924">1</text></g><!--link Board to Archived--><g id="link_Board_Archived"><path codeLine="72" d="M658.69,129.5768 C666.96,138.3568 674.31,148.3268 679,159.2168 C687.22,178.3068 686.47,200.9468 682.89,220.6668 " fill="none" id="Board-to-Archived" style="stroke:#222222;stroke-width:1.0;"/><polygon fill="#222222" points="681.92,225.6168,687.5894,217.5633,682.8896,220.7117,679.7412,216.012,681.92,225.6168" style="stroke:#222222;stroke-width:1.0;"/><text fill="#000000" font-family="sans-serif" font-size="20" lengthAdjust="spacing" textLength="16" x="686" y="178.7813">is</text><text fill="#000000" font-family="sans-serif" font-size="20" lengthAdjust="spacing" textLength="38" x="643.1739" y="213.0471">0..1</text></g><!--SRC=[XPHHRvim4CVV_IbEz6MhHfLLUvWY58biZTItASksPmCNy08-P9j6MRNlliE1G6WxU84x_yvtzpyRUr2wbaPM9QK7p233lMnAjo7jlgi_2FSB8MpFG5fAQsFdZ4eQXuyfQGyjHA4o1AngTmBPBzknjq9NK6QdUwrbUiWDDJhxGYKPI53bE89YO-XuNhgvzuyGDSV872688fdd1dFfSBM2DKcJ1V0i050xnJczHx3jKy5EkHA7LTwrgVHWR-auiB592_M4FhfR_s7HV4DJAMiLwG4TVBjJZUBlcmMs6rpLrpfQVcH259qjvgF843d-U1v1lgTPwjpR66lJXg2RAhdAoKt_Zne9nzYxdnzkDflFwq-Bz_0aomQ1aj-O-kGNk5TkXlU9PCV6RYB3eEcBwbA3B6SRmaPJPvrnoNyzZhagE4oJGqZ8EQg0zjDn0cmVug_y-hLzt3rmZHcq0KAS1n66AmW-1fr4Ir0Mqe9FRkhGyCt883brv6qOCdbtTnlqqrb28Ir8IAaikPwsMTg_fDiHpQ8BZqwaUprAJAY-XObmFlWjrX_L9T_MadHkmP4GRPclgC5_01xVNfsb45thy-2rl5q-nkYenwfwW9jdvdBmMaxy0m00]--></g></svg>