<?xml version="1.0" encoding="UTF-8" standalone="no"?><svg xmlns="http://www.w3.org/2000/svg" xmlns:xlink="http://www.w3.org/1999/xlink" contentStyleType="text/css" height="965px" preserveAspectRatio="none" style="width:1938px;height:965px;background:#FFFFFF;" version="1.1" viewBox="0 0 1938 965" width="1938px" zoomAndPan="magnify"><defs/><g><rect fill="#FFFFFF" height="715.5996" style="stroke:#181818;stroke-width:1.0;" width="10" x="25" y="115.4799"/><rect fill="#FFFFFF" height="41.24" style="stroke:#181818;stroke-width:1.0;" width="10" x="439.625" y="148.7199"/><rect fill="#FFFFFF" height="153.7199" style="stroke:#181818;stroke-width:1.0;" width="10" x="439.625" y="231.1999"/><rect fill="#FFFFFF" height="404.9198" style="stroke:#181818;stroke-width:1.0;" width="10" x="439.625" y="426.1598"/><rect fill="#FFFFFF" height="71.24" style="stroke:#181818;stroke-width:1.0;" width="10" x="955.25" y="272.4398"/><rect fill="#FFFFFF" height="322.4398" style="stroke:#181818;stroke-width:1.0;" width="10" x="955.25" y="467.3997"/><rect fill="#FFFFFF" height="76.24" style="stroke:#181818;stroke-width:1.0;" width="10" x="960.25" y="713.5996"/><rect fill="#FFFFFF" height="30" style="stroke:#181818;stroke-width:1.0;" width="10" x="1196.5" y="634.3596"/><rect fill="#FFFFFF" height="30" style="stroke:#181818;stroke-width:1.0;" width="10" x="1435.875" y="563.1197"/><rect fill="#FFFFFF" height="30" style="stroke:#181818;stroke-width:1.0;" width="10" x="1637.875" y="313.6798"/><rect fill="#FFFFFF" height="30" style="stroke:#181818;stroke-width:1.0;" width="10" x="1852.375" y="759.8396"/><line style="stroke:#181818;stroke-width:0.5;stroke-dasharray:5.0,5.0;" x1="30" x2="30" y1="105.4799" y2="849.0796"/><line style="stroke:#181818;stroke-width:0.5;stroke-dasharray:5.0,5.0;" x1="444.125" x2="444.125" y1="105.4799" y2="849.0796"/><line style="stroke:#181818;stroke-width:0.5;stroke-dasharray:5.0,5.0;" x1="960.25" x2="960.25" y1="105.4799" y2="849.0796"/><line style="stroke:#181818;stroke-width:0.5;stroke-dasharray:5.0,5.0;" x1="1201" x2="1201" y1="105.4799" y2="849.0796"/><line style="stroke:#181818;stroke-width:0.5;stroke-dasharray:5.0,5.0;" x1="1440.875" x2="1440.875" y1="105.4799" y2="849.0796"/><line style="stroke:#181818;stroke-width:0.5;stroke-dasharray:5.0,5.0;" x1="1642.875" x2="1642.875" y1="105.4799" y2="849.0796"/><line style="stroke:#181818;stroke-width:0.5;stroke-dasharray:5.0,5.0;" x1="1856.875" x2="1856.875" y1="105.4799" y2="849.0796"/><text fill="#000000" font-family="sans-serif" font-size="20" lengthAdjust="spacing" textLength="44" x="5" y="99.62">User</text><ellipse cx="30" cy="26.74" fill="#E2E2F0" rx="8" ry="8" style="stroke:#181818;stroke-width:0.5;"/><path d="M30,34.74 L30,61.74 M17,42.74 L43,42.74 M30,61.74 L17,76.74 M30,61.74 L43,76.74 " fill="none" style="stroke:#181818;stroke-width:0.5;"/><text fill="#000000" font-family="sans-serif" font-size="20" lengthAdjust="spacing" textLength="44" x="5" y="869.4596">User</text><ellipse cx="30" cy="883.8195" fill="#E2E2F0" rx="8" ry="8" style="stroke:#181818;stroke-width:0.5;"/><path d="M30,891.8195 L30,918.8195 M17,899.8195 L43,899.8195 M30,918.8195 L17,933.8195 M30,918.8195 L43,933.8195 " fill="none" style="stroke:#181818;stroke-width:0.5;"/><rect fill="#E2E2F0" height="68.4799" rx="2.5" ry="2.5" style="stroke:#181818;stroke-width:0.5;" width="153" x="368.125" y="36"/><text fill="#000000" font-family="sans-serif" font-size="20" font-style="italic" lengthAdjust="spacing" textLength="134" x="377.625" y="64.38">«presentation»</text><text fill="#000000" font-family="sans-serif" font-size="20" lengthAdjust="spacing" textLength="139" x="375.125" y="91.62">CreateBoardUI</text><rect fill="#E2E2F0" height="68.4799" rx="2.5" ry="2.5" style="stroke:#181818;stroke-width:0.5;" width="153" x="368.125" y="848.0796"/><text fill="#000000" font-family="sans-serif" font-size="20" font-style="italic" lengthAdjust="spacing" textLength="134" x="377.625" y="876.4596">«presentation»</text><text fill="#000000" font-family="sans-serif" font-size="20" lengthAdjust="spacing" textLength="139" x="375.125" y="903.6995">CreateBoardUI</text><rect fill="#E2E2F0" height="68.4799" rx="2.5" ry="2.5" style="stroke:#181818;stroke-width:0.5;" width="224" x="848.25" y="36"/><text fill="#000000" font-family="sans-serif" font-size="20" font-style="italic" lengthAdjust="spacing" textLength="120" x="900.25" y="64.38">«application»</text><text fill="#000000" font-family="sans-serif" font-size="20" lengthAdjust="spacing" textLength="210" x="855.25" y="91.62">CreateBoardController</text><rect fill="#E2E2F0" height="68.4799" rx="2.5" ry="2.5" style="stroke:#181818;stroke-width:0.5;" width="224" x="848.25" y="848.0796"/><text fill="#000000" font-family="sans-serif" font-size="20" font-style="italic" lengthAdjust="spacing" textLength="120" x="900.25" y="876.4596">«application»</text><text fill="#000000" font-family="sans-serif" font-size="20" lengthAdjust="spacing" textLength="210" x="855.25" y="903.6995">CreateBoardController</text><rect fill="#E2E2F0" height="68.4799" rx="2.5" ry="2.5" style="stroke:#181818;stroke-width:0.5;" width="103" x="1150" y="36"/><text fill="#000000" font-family="sans-serif" font-size="20" font-style="italic" lengthAdjust="spacing" textLength="89" x="1157" y="64.38">«domain»</text><text fill="#000000" font-family="sans-serif" font-size="20" lengthAdjust="spacing" textLength="56" x="1173.5" y="91.62">Board</text><rect fill="#E2E2F0" height="68.4799" rx="2.5" ry="2.5" style="stroke:#181818;stroke-width:0.5;" width="103" x="1150" y="848.0796"/><text fill="#000000" font-family="sans-serif" font-size="20" font-style="italic" lengthAdjust="spacing" textLength="89" x="1157" y="876.4596">«domain»</text><text fill="#000000" font-family="sans-serif" font-size="20" lengthAdjust="spacing" textLength="56" x="1173.5" y="903.6995">Board</text><rect fill="#E2E2F0" height="68.4799" rx="2.5" ry="2.5" style="stroke:#181818;stroke-width:0.5;" width="136" x="1372.875" y="36"/><text fill="#000000" font-family="sans-serif" font-size="20" font-style="italic" lengthAdjust="spacing" textLength="84" x="1398.875" y="64.38">«builder»</text><text fill="#000000" font-family="sans-serif" font-size="20" lengthAdjust="spacing" textLength="122" x="1379.875" y="91.62">BoardBuilder</text><rect fill="#E2E2F0" height="68.4799" rx="2.5" ry="2.5" style="stroke:#181818;stroke-width:0.5;" width="136" x="1372.875" y="848.0796"/><text fill="#000000" font-family="sans-serif" font-size="20" font-style="italic" lengthAdjust="spacing" textLength="84" x="1398.875" y="876.4596">«builder»</text><text fill="#000000" font-family="sans-serif" font-size="20" lengthAdjust="spacing" textLength="122" x="1379.875" y="903.6995">BoardBuilder</text><rect fill="#E2E2F0" height="68.4799" rx="2.5" ry="2.5" style="stroke:#181818;stroke-width:0.5;" width="248" x="1518.875" y="36"/><text fill="#000000" font-family="sans-serif" font-size="20" font-style="italic" lengthAdjust="spacing" textLength="80" x="1602.875" y="64.38">«service»</text><text fill="#000000" font-family="sans-serif" font-size="20" lengthAdjust="spacing" textLength="234" x="1525.875" y="91.62">UserManagementService</text><rect fill="#E2E2F0" height="68.4799" rx="2.5" ry="2.5" style="stroke:#181818;stroke-width:0.5;" width="248" x="1518.875" y="848.0796"/><text fill="#000000" font-family="sans-serif" font-size="20" font-style="italic" lengthAdjust="spacing" textLength="80" x="1602.875" y="876.4596">«service»</text><text fill="#000000" font-family="sans-serif" font-size="20" lengthAdjust="spacing" textLength="234" x="1525.875" y="903.6995">UserManagementService</text><text fill="#000000" font-family="sans-serif" font-size="20" font-style="italic" lengthAdjust="spacing" textLength="110" x="1799.375" y="72.38">«repository»</text><text fill="#000000" font-family="sans-serif" font-size="20" lengthAdjust="spacing" textLength="155" x="1776.875" y="99.62">BoardRepository</text><path d="M1839.375,15 C1839.375,5 1857.375,5 1857.375,5 C1857.375,5 1875.375,5 1875.375,15 L1875.375,41 C1875.375,51 1857.375,51 1857.375,51 C1857.375,51 1839.375,51 1839.375,41 L1839.375,15 " fill="#E2E2F0" style="stroke:#181818;stroke-width:1.5;"/><path d="M1839.375,15 C1839.375,25 1857.375,25 1857.375,25 C1857.375,25 1875.375,25 1875.375,15 " fill="none" style="stroke:#181818;stroke-width:1.5;"/><text fill="#000000" font-family="sans-serif" font-size="20" font-style="italic" lengthAdjust="spacing" textLength="110" x="1799.375" y="869.4596">«repository»</text><text fill="#000000" font-family="sans-serif" font-size="20" lengthAdjust="spacing" textLength="155" x="1776.875" y="896.6995">BoardRepository</text><path d="M1839.375,912.5595 C1839.375,902.5595 1857.375,902.5595 1857.375,902.5595 C1857.375,902.5595 1875.375,902.5595 1875.375,912.5595 L1875.375,938.5595 C1875.375,948.5595 1857.375,948.5595 1857.375,948.5595 C1857.375,948.5595 1839.375,948.5595 1839.375,938.5595 L1839.375,912.5595 " fill="#E2E2F0" style="stroke:#181818;stroke-width:1.5;"/><path d="M1839.375,912.5595 C1839.375,922.5595 1857.375,922.5595 1857.375,922.5595 C1857.375,922.5595 1875.375,922.5595 1875.375,912.5595 " fill="none" style="stroke:#181818;stroke-width:1.5;"/><rect fill="#FFFFFF" height="715.5996" style="stroke:#181818;stroke-width:1.0;" width="10" x="25" y="115.4799"/><rect fill="#FFFFFF" height="41.24" style="stroke:#181818;stroke-width:1.0;" width="10" x="439.625" y="148.7199"/><rect fill="#FFFFFF" height="153.7199" style="stroke:#181818;stroke-width:1.0;" width="10" x="439.625" y="231.1999"/><rect fill="#FFFFFF" height="404.9198" style="stroke:#181818;stroke-width:1.0;" width="10" x="439.625" y="426.1598"/><rect fill="#FFFFFF" height="71.24" style="stroke:#181818;stroke-width:1.0;" width="10" x="955.25" y="272.4398"/><rect fill="#FFFFFF" height="322.4398" style="stroke:#181818;stroke-width:1.0;" width="10" x="955.25" y="467.3997"/><rect fill="#FFFFFF" height="76.24" style="stroke:#181818;stroke-width:1.0;" width="10" x="960.25" y="713.5996"/><rect fill="#FFFFFF" height="30" style="stroke:#181818;stroke-width:1.0;" width="10" x="1196.5" y="634.3596"/><rect fill="#FFFFFF" height="30" style="stroke:#181818;stroke-width:1.0;" width="10" x="1435.875" y="563.1197"/><rect fill="#FFFFFF" height="30" style="stroke:#181818;stroke-width:1.0;" width="10" x="1637.875" y="313.6798"/><rect fill="#FFFFFF" height="30" style="stroke:#181818;stroke-width:1.0;" width="10" x="1852.375" y="759.8396"/><polygon fill="#181818" points="427.625,144.7199,437.625,148.7199,427.625,152.7199,431.625,148.7199" style="stroke:#181818;stroke-width:1.0;"/><line style="stroke:#181818;stroke-width:1.0;" x1="35" x2="433.625" y1="148.7199" y2="148.7199"/><text fill="#000000" font-family="sans-serif" font-size="20" font-weight="bold" lengthAdjust="spacing" textLength="11.625" x="42" y="140.8599">1</text><text fill="#000000" font-family="sans-serif" font-size="20" lengthAdjust="spacing" textLength="260" x="57.625" y="140.8599">asks to create a new Course</text><polygon fill="#181818" points="46,185.9599,36,189.9599,46,193.9599,42,189.9599" style="stroke:#181818;stroke-width:1.0;"/><line style="stroke:#181818;stroke-width:1.0;stroke-dasharray:2.0,2.0;" x1="40" x2="443.625" y1="189.9599" y2="189.9599"/><text fill="#000000" font-family="sans-serif" font-size="20" font-weight="bold" lengthAdjust="spacing" textLength="11.625" x="52" y="182.0999">2</text><text fill="#000000" font-family="sans-serif" font-size="20" lengthAdjust="spacing" textLength="325" x="67.625" y="182.0999">requests data (title, rows, columns)</text><polygon fill="#181818" points="427.625,227.1999,437.625,231.1999,427.625,235.1999,431.625,231.1999" style="stroke:#181818;stroke-width:1.0;"/><line style="stroke:#181818;stroke-width:1.0;" x1="35" x2="433.625" y1="231.1999" y2="231.1999"/><text fill="#000000" font-family="sans-serif" font-size="20" font-weight="bold" lengthAdjust="spacing" textLength="11.625" x="42" y="223.3399">3</text><text fill="#000000" font-family="sans-serif" font-size="20" lengthAdjust="spacing" textLength="172" x="57.625" y="223.3399">types request data</text><polygon fill="#181818" points="943.25,268.4398,953.25,272.4398,943.25,276.4398,947.25,272.4398" style="stroke:#181818;stroke-width:1.0;"/><line style="stroke:#181818;stroke-width:1.0;" x1="449.625" x2="949.25" y1="272.4398" y2="272.4398"/><text fill="#000000" font-family="sans-serif" font-size="20" font-weight="bold" lengthAdjust="spacing" textLength="11.625" x="456.625" y="264.5799">4</text><text fill="#000000" font-family="sans-serif" font-size="20" lengthAdjust="spacing" textLength="116" x="472.25" y="264.5799">listAllUsers()</text><polygon fill="#181818" points="1625.875,309.6798,1635.875,313.6798,1625.875,317.6798,1629.875,313.6798" style="stroke:#181818;stroke-width:1.0;"/><line style="stroke:#181818;stroke-width:1.0;" x1="965.25" x2="1631.875" y1="313.6798" y2="313.6798"/><text fill="#000000" font-family="sans-serif" font-size="20" font-weight="bold" lengthAdjust="spacing" textLength="11.625" x="972.25" y="305.8198">5</text><text fill="#000000" font-family="sans-serif" font-size="20" lengthAdjust="spacing" textLength="87" x="987.875" y="305.8198">allUsers()</text><polygon fill="#181818" points="46,380.9198,36,384.9198,46,388.9198,42,384.9198" style="stroke:#181818;stroke-width:1.0;"/><line style="stroke:#181818;stroke-width:1.0;stroke-dasharray:2.0,2.0;" x1="40" x2="443.625" y1="384.9198" y2="384.9198"/><text fill="#000000" font-family="sans-serif" font-size="20" font-weight="bold" lengthAdjust="spacing" textLength="11.625" x="52" y="377.0598">6</text><text fill="#000000" font-family="sans-serif" font-size="20" lengthAdjust="spacing" textLength="365" x="67.625" y="377.0598">asks to select user and permission type</text><polygon fill="#181818" points="427.625,422.1598,437.625,426.1598,427.625,430.1598,431.625,426.1598" style="stroke:#181818;stroke-width:1.0;"/><line style="stroke:#181818;stroke-width:1.0;" x1="35" x2="433.625" y1="426.1598" y2="426.1598"/><text fill="#000000" font-family="sans-serif" font-size="20" font-weight="bold" lengthAdjust="spacing" textLength="11.625" x="42" y="418.2998">7</text><text fill="#000000" font-family="sans-serif" font-size="20" lengthAdjust="spacing" textLength="339" x="57.625" y="418.2998">selects the user and permission type</text><polygon fill="#181818" points="943.25,463.3997,953.25,467.3997,943.25,471.3997,947.25,467.3997" style="stroke:#181818;stroke-width:1.0;"/><line style="stroke:#181818;stroke-width:1.0;" x1="449.625" x2="949.25" y1="467.3997" y2="467.3997"/><text fill="#000000" font-family="sans-serif" font-size="20" font-weight="bold" lengthAdjust="spacing" textLength="11.625" x="456.625" y="459.5398">8</text><text fill="#000000" font-family="sans-serif" font-size="20" lengthAdjust="spacing" textLength="471" x="472.25" y="459.5398">creatBoard(title, permissions, columns, rows, user)</text><polygon fill="#181818" points="1423.875,559.1197,1433.875,563.1197,1423.875,567.1197,1427.875,563.1197" style="stroke:#181818;stroke-width:1.0;"/><line style="stroke:#181818;stroke-width:1.0;" x1="965.25" x2="1429.875" y1="563.1197" y2="563.1197"/><text fill="#000000" font-family="sans-serif" font-size="20" font-weight="bold" lengthAdjust="spacing" textLength="11.625" x="972.25" y="528.0197">9</text><text fill="#000000" font-family="sans-serif" font-size="20" lengthAdjust="spacing" textLength="314" x="987.875" y="500.7797">new BoardBuilder().withTitle(title).</text><text fill="#000000" font-family="sans-serif" font-size="20" lengthAdjust="spacing" textLength="422" x="987.875" y="528.0197">withUser(user).withPermissions(permissions)</text><text fill="#000000" font-family="sans-serif" font-size="20" lengthAdjust="spacing" textLength="436" x="987.875" y="555.2597">.withColumns(columns).withRows(rows).build()</text><polygon fill="#181818" points="1184.5,630.3596,1194.5,634.3596,1184.5,638.3596,1188.5,634.3596" style="stroke:#181818;stroke-width:1.0;"/><line style="stroke:#181818;stroke-width:1.0;" x1="965.25" x2="1190.5" y1="634.3596" y2="634.3596"/><text fill="#000000" font-family="sans-serif" font-size="20" font-weight="bold" lengthAdjust="spacing" textLength="23.25" x="972.25" y="626.4997">10</text><text fill="#000000" font-family="sans-serif" font-size="20" lengthAdjust="spacing" textLength="185" x="999.5" y="626.4997">containsOfIdentity()</text><line style="stroke:#181818;stroke-width:1.0;" x1="965.25" x2="1012.25" y1="700.5996" y2="700.5996"/><line style="stroke:#181818;stroke-width:1.0;" x1="1012.25" x2="1012.25" y1="700.5996" y2="713.5996"/><line style="stroke:#181818;stroke-width:1.0;" x1="971.25" x2="1012.25" y1="713.5996" y2="713.5996"/><polygon fill="#181818" points="981.25,709.5996,971.25,713.5996,981.25,717.5996,977.25,713.5996" style="stroke:#181818;stroke-width:1.0;"/><text fill="#000000" font-family="sans-serif" font-size="20" font-weight="bold" lengthAdjust="spacing" textLength="23.25" x="977.25" y="692.7396">11</text><text fill="#000000" font-family="sans-serif" font-size="20" lengthAdjust="spacing" textLength="110" x="1004.5" y="692.7396">saveBoard()</text><polygon fill="#181818" points="1840.375,755.8396,1850.375,759.8396,1840.375,763.8396,1844.375,759.8396" style="stroke:#181818;stroke-width:1.0;"/><line style="stroke:#181818;stroke-width:1.0;" x1="970.25" x2="1846.375" y1="759.8396" y2="759.8396"/><text fill="#000000" font-family="sans-serif" font-size="20" font-weight="bold" lengthAdjust="spacing" textLength="23.25" x="977.25" y="751.9796">12</text><text fill="#000000" font-family="sans-serif" font-size="20" lengthAdjust="spacing" textLength="110" x="1004.5" y="751.9796">saveBoard()</text><polygon fill="#181818" points="41,827.0796,31,831.0796,41,835.0796,37,831.0796" style="stroke:#181818;stroke-width:1.0;"/><line style="stroke:#181818;stroke-width:1.0;stroke-dasharray:2.0,2.0;" x1="35" x2="443.625" y1="831.0796" y2="831.0796"/><text fill="#000000" font-family="sans-serif" font-size="20" font-weight="bold" lengthAdjust="spacing" textLength="23.25" x="47" y="823.2196">13</text><text fill="#000000" font-family="sans-serif" font-size="20" lengthAdjust="spacing" textLength="246" x="74.25" y="823.2196">informs operation success</text><!--SRC=[TLHDRzim3BthLn0vsK0R33iMHO0vs0036reapKwzg3Ap2f4bJvGJPBz-b5mtoeUFbDvx91yfqKxRJdhP6gTss423MzcRyCFPiDR_4Bv-4R8FplRj6teXf0hEmsn3w6SW2JQ2oK4htKaROBRqA0DMJlfcKm-06XuVEu-4DiYWdLqi9YbBJkgTCH_QovVLJoRBhZDQtUGcre1bOEDQgMzZgbwRvaEsOkZR45zYOrk_f9L_iELor-ZtMc4YhN_733ISC4qqCiWtIGX9VuMT8ytM72DuzVtvYT7-yp0Is3czvqxPCh61-qLqve7HEuBWG2KNG8B50onTxmapHisK6kuZYJaU__P8WI3M04NGmU0TU7UWEr3EzAsbKZHuJl_C68uTqgYH9AuJBGRl7y1e2j-CYRvGKPw0yLg8169mD8TRkO7ZcxoI6ERn89ErDjf1Q505w5aFf6sWGzzg8bw1LFzqTmEHDTvncZtTRnf3ckXewubxSdSqEoQODALYkJZCVF-ASdxGuVqbIWy9olchZKVHkIBf9SJpAMkHLL2-sdIz7EeenccdmnNNLCJ2odbQxtmELUvOTIeopatng-DtGq_Rkk6jr-5uDkcpUMNCmJ2I- -7jCkV2YH6PNiCKCbxc6L9yjI9NAoEkCPjwN29jjywt18wTIzy6KAyK4bskJHwA_m00]--></g></svg>