<?xml version="1.0" encoding="UTF-8" standalone="no"?><svg xmlns="http://www.w3.org/2000/svg" xmlns:xlink="http://www.w3.org/1999/xlink" contentStyleType="text/css" height="740px" preserveAspectRatio="none" style="width:1407px;height:740px;background:#FFFFFF;" version="1.1" viewBox="0 0 1407 740" width="1407px" zoomAndPan="magnify"><defs/><g><rect fill="#FFFFFF" height="533.9922" style="stroke:#181818;stroke-width:1.0;" width="10" x="19" y="93.5938"/><rect fill="#FFFFFF" height="29.1328" style="stroke:#181818;stroke-width:1.0;" width="10" x="320" y="114.7266"/><rect fill="#FFFFFF" height="117.3984" style="stroke:#181818;stroke-width:1.0;" width="10" x="320" y="172.9922"/><rect fill="#FFFFFF" height="308.0625" style="stroke:#181818;stroke-width:1.0;" width="10" x="320" y="319.5234"/><rect fill="#FFFFFF" height="59.1328" style="stroke:#181818;stroke-width:1.0;" width="10" x="687" y="202.125"/><rect fill="#FFFFFF" height="249.7969" style="stroke:#181818;stroke-width:1.0;" width="10" x="687" y="348.6563"/><rect fill="#FFFFFF" height="64.1328" style="stroke:#181818;stroke-width:1.0;" width="10" x="692" y="534.3203"/><rect fill="#FFFFFF" height="30" style="stroke:#181818;stroke-width:1.0;" width="10" x="863" y="467.1875"/><rect fill="#FFFFFF" height="30" style="stroke:#181818;stroke-width:1.0;" width="10" x="1022" y="408.0547"/><rect fill="#FFFFFF" height="30" style="stroke:#181818;stroke-width:1.0;" width="10" x="1177" y="231.2578"/><rect fill="#FFFFFF" height="30" style="stroke:#181818;stroke-width:1.0;" width="10" x="1341" y="568.4531"/><line style="stroke:#181818;stroke-width:0.5;stroke-dasharray:5.0,5.0;" x1="24" x2="24" y1="83.5938" y2="645.5859"/><line style="stroke:#181818;stroke-width:0.5;stroke-dasharray:5.0,5.0;" x1="324.5" x2="324.5" y1="83.5938" y2="645.5859"/><line style="stroke:#181818;stroke-width:0.5;stroke-dasharray:5.0,5.0;" x1="692" x2="692" y1="83.5938" y2="645.5859"/><line style="stroke:#181818;stroke-width:0.5;stroke-dasharray:5.0,5.0;" x1="867.5" x2="867.5" y1="83.5938" y2="645.5859"/><line style="stroke:#181818;stroke-width:0.5;stroke-dasharray:5.0,5.0;" x1="1026.5" x2="1026.5" y1="83.5938" y2="645.5859"/><line style="stroke:#181818;stroke-width:0.5;stroke-dasharray:5.0,5.0;" x1="1181.5" x2="1181.5" y1="83.5938" y2="645.5859"/><line style="stroke:#181818;stroke-width:0.5;stroke-dasharray:5.0,5.0;" x1="1345.5" x2="1345.5" y1="83.5938" y2="645.5859"/><text fill="#000000" font-family="sans-serif" font-size="14" lengthAdjust="spacing" textLength="32" x="5" y="80.292">User</text><ellipse cx="24" cy="15.7969" fill="#E2E2F0" rx="8" ry="8" style="stroke:#181818;stroke-width:0.5;"/><path d="M24,23.7969 L24,50.7969 M11,31.7969 L37,31.7969 M24,50.7969 L11,65.7969 M24,50.7969 L37,65.7969 " fill="none" style="stroke:#181818;stroke-width:0.5;"/><text fill="#000000" font-family="sans-serif" font-size="14" lengthAdjust="spacing" textLength="32" x="5" y="657.5811">User</text><ellipse cx="24" cy="669.3828" fill="#E2E2F0" rx="8" ry="8" style="stroke:#181818;stroke-width:0.5;"/><path d="M24,677.3828 L24,704.3828 M11,685.3828 L37,685.3828 M24,704.3828 L11,719.3828 M24,704.3828 L37,719.3828 " fill="none" style="stroke:#181818;stroke-width:0.5;"/><rect fill="#E2E2F0" height="46.5938" rx="2.5" ry="2.5" style="stroke:#181818;stroke-width:0.5;" width="119" x="265.5" y="36"/><text fill="#000000" font-family="sans-serif" font-size="14" font-style="italic" lengthAdjust="spacing" textLength="105" x="272.5" y="55.9951">«presentation»</text><text fill="#000000" font-family="sans-serif" font-size="14" lengthAdjust="spacing" textLength="100" x="275" y="72.292">CreateBoardUI</text><rect fill="#E2E2F0" height="46.5938" rx="2.5" ry="2.5" style="stroke:#181818;stroke-width:0.5;" width="119" x="265.5" y="644.5859"/><text fill="#000000" font-family="sans-serif" font-size="14" font-style="italic" lengthAdjust="spacing" textLength="105" x="272.5" y="664.5811">«presentation»</text><text fill="#000000" font-family="sans-serif" font-size="14" lengthAdjust="spacing" textLength="100" x="275" y="680.8779">CreateBoardUI</text><rect fill="#E2E2F0" height="46.5938" rx="2.5" ry="2.5" style="stroke:#181818;stroke-width:0.5;" width="168" x="608" y="36"/><text fill="#000000" font-family="sans-serif" font-size="14" font-style="italic" lengthAdjust="spacing" textLength="92" x="646" y="55.9951">«application»</text><text fill="#000000" font-family="sans-serif" font-size="14" lengthAdjust="spacing" textLength="154" x="615" y="72.292">CreateBoardController</text><rect fill="#E2E2F0" height="46.5938" rx="2.5" ry="2.5" style="stroke:#181818;stroke-width:0.5;" width="168" x="608" y="644.5859"/><text fill="#000000" font-family="sans-serif" font-size="14" font-style="italic" lengthAdjust="spacing" textLength="92" x="646" y="664.5811">«application»</text><text fill="#000000" font-family="sans-serif" font-size="14" lengthAdjust="spacing" textLength="154" x="615" y="680.8779">CreateBoardController</text><rect fill="#E2E2F0" height="46.5938" rx="2.5" ry="2.5" style="stroke:#181818;stroke-width:0.5;" width="83" x="826.5" y="36"/><text fill="#000000" font-family="sans-serif" font-size="14" font-style="italic" lengthAdjust="spacing" textLength="69" x="833.5" y="55.9951">«domain»</text><text fill="#000000" font-family="sans-serif" font-size="14" lengthAdjust="spacing" textLength="41" x="847.5" y="72.292">Board</text><rect fill="#E2E2F0" height="46.5938" rx="2.5" ry="2.5" style="stroke:#181818;stroke-width:0.5;" width="83" x="826.5" y="644.5859"/><text fill="#000000" font-family="sans-serif" font-size="14" font-style="italic" lengthAdjust="spacing" textLength="69" x="833.5" y="664.5811">«domain»</text><text fill="#000000" font-family="sans-serif" font-size="14" lengthAdjust="spacing" textLength="41" x="847.5" y="680.8779">Board</text><rect fill="#E2E2F0" height="46.5938" rx="2.5" ry="2.5" style="stroke:#181818;stroke-width:0.5;" width="103" x="975.5" y="36"/><text fill="#000000" font-family="sans-serif" font-size="14" font-style="italic" lengthAdjust="spacing" textLength="65" x="994.5" y="55.9951">«builder»</text><text fill="#000000" font-family="sans-serif" font-size="14" lengthAdjust="spacing" textLength="89" x="982.5" y="72.292">BoardBuilder</text><rect fill="#E2E2F0" height="46.5938" rx="2.5" ry="2.5" style="stroke:#181818;stroke-width:0.5;" width="103" x="975.5" y="644.5859"/><text fill="#000000" font-family="sans-serif" font-size="14" font-style="italic" lengthAdjust="spacing" textLength="65" x="994.5" y="664.5811">«builder»</text><text fill="#000000" font-family="sans-serif" font-size="14" lengthAdjust="spacing" textLength="89" x="982.5" y="680.8779">BoardBuilder</text><rect fill="#E2E2F0" height="46.5938" rx="2.5" ry="2.5" style="stroke:#181818;stroke-width:0.5;" width="187" x="1088.5" y="36"/><text fill="#000000" font-family="sans-serif" font-size="14" font-style="italic" lengthAdjust="spacing" textLength="67" x="1148.5" y="55.9951">«service»</text><text fill="#000000" font-family="sans-serif" font-size="14" lengthAdjust="spacing" textLength="173" x="1095.5" y="72.292">UserManagementService</text><rect fill="#E2E2F0" height="46.5938" rx="2.5" ry="2.5" style="stroke:#181818;stroke-width:0.5;" width="187" x="1088.5" y="644.5859"/><text fill="#000000" font-family="sans-serif" font-size="14" font-style="italic" lengthAdjust="spacing" textLength="67" x="1148.5" y="664.5811">«service»</text><text fill="#000000" font-family="sans-serif" font-size="14" lengthAdjust="spacing" textLength="173" x="1095.5" y="680.8779">UserManagementService</text><text fill="#000000" font-family="sans-serif" font-size="14" font-style="italic" lengthAdjust="spacing" textLength="87" x="1299.5" y="63.9951">«repository»</text><text fill="#000000" font-family="sans-serif" font-size="14" lengthAdjust="spacing" textLength="115" x="1285.5" y="80.292">BoardRepository</text><path d="M1328,15 C1328,5 1346,5 1346,5 C1346,5 1364,5 1364,15 L1364,41 C1364,51 1346,51 1346,51 C1346,51 1328,51 1328,41 L1328,15 " fill="#E2E2F0" style="stroke:#181818;stroke-width:1.5;"/><path d="M1328,15 C1328,25 1346,25 1346,25 C1346,25 1364,25 1364,15 " fill="none" style="stroke:#181818;stroke-width:1.5;"/><text fill="#000000" font-family="sans-serif" font-size="14" font-style="italic" lengthAdjust="spacing" textLength="87" x="1299.5" y="657.5811">«repository»</text><text fill="#000000" font-family="sans-serif" font-size="14" lengthAdjust="spacing" textLength="115" x="1285.5" y="673.8779">BoardRepository</text><path d="M1328,687.1797 C1328,677.1797 1346,677.1797 1346,677.1797 C1346,677.1797 1364,677.1797 1364,687.1797 L1364,713.1797 C1364,723.1797 1346,723.1797 1346,723.1797 C1346,723.1797 1328,723.1797 1328,713.1797 L1328,687.1797 " fill="#E2E2F0" style="stroke:#181818;stroke-width:1.5;"/><path d="M1328,687.1797 C1328,697.1797 1346,697.1797 1346,697.1797 C1346,697.1797 1364,697.1797 1364,687.1797 " fill="none" style="stroke:#181818;stroke-width:1.5;"/><rect fill="#FFFFFF" height="533.9922" style="stroke:#181818;stroke-width:1.0;" width="10" x="19" y="93.5938"/><rect fill="#FFFFFF" height="29.1328" style="stroke:#181818;stroke-width:1.0;" width="10" x="320" y="114.7266"/><rect fill="#FFFFFF" height="117.3984" style="stroke:#181818;stroke-width:1.0;" width="10" x="320" y="172.9922"/><rect fill="#FFFFFF" height="308.0625" style="stroke:#181818;stroke-width:1.0;" width="10" x="320" y="319.5234"/><rect fill="#FFFFFF" height="59.1328" style="stroke:#181818;stroke-width:1.0;" width="10" x="687" y="202.125"/><rect fill="#FFFFFF" height="249.7969" style="stroke:#181818;stroke-width:1.0;" width="10" x="687" y="348.6563"/><rect fill="#FFFFFF" height="64.1328" style="stroke:#181818;stroke-width:1.0;" width="10" x="692" y="534.3203"/><rect fill="#FFFFFF" height="30" style="stroke:#181818;stroke-width:1.0;" width="10" x="863" y="467.1875"/><rect fill="#FFFFFF" height="30" style="stroke:#181818;stroke-width:1.0;" width="10" x="1022" y="408.0547"/><rect fill="#FFFFFF" height="30" style="stroke:#181818;stroke-width:1.0;" width="10" x="1177" y="231.2578"/><rect fill="#FFFFFF" height="30" style="stroke:#181818;stroke-width:1.0;" width="10" x="1341" y="568.4531"/><polygon fill="#181818" points="308,110.7266,318,114.7266,308,118.7266,312,114.7266" style="stroke:#181818;stroke-width:1.0;"/><line style="stroke:#181818;stroke-width:1.0;" x1="29" x2="314" y1="114.7266" y2="114.7266"/><text fill="#000000" font-family="sans-serif" font-size="13" font-weight="bold" lengthAdjust="spacing" textLength="9" x="36" y="109.6606">1</text><text fill="#000000" font-family="sans-serif" font-size="13" lengthAdjust="spacing" textLength="181" x="49" y="109.6606">asks to create a new Course</text><polygon fill="#181818" points="40,139.8594,30,143.8594,40,147.8594,36,143.8594" style="stroke:#181818;stroke-width:1.0;"/><line style="stroke:#181818;stroke-width:1.0;stroke-dasharray:2.0,2.0;" x1="34" x2="324" y1="143.8594" y2="143.8594"/><text fill="#000000" font-family="sans-serif" font-size="13" font-weight="bold" lengthAdjust="spacing" textLength="9" x="46" y="138.7935">2</text><text fill="#000000" font-family="sans-serif" font-size="13" lengthAdjust="spacing" textLength="226" x="59" y="138.7935">requests data (title, rows, columns)</text><polygon fill="#181818" points="308,168.9922,318,172.9922,308,176.9922,312,172.9922" style="stroke:#181818;stroke-width:1.0;"/><line style="stroke:#181818;stroke-width:1.0;" x1="29" x2="314" y1="172.9922" y2="172.9922"/><text fill="#000000" font-family="sans-serif" font-size="13" font-weight="bold" lengthAdjust="spacing" textLength="9" x="36" y="167.9263">3</text><text fill="#000000" font-family="sans-serif" font-size="13" lengthAdjust="spacing" textLength="121" x="49" y="167.9263">types request data</text><polygon fill="#181818" points="675,198.125,685,202.125,675,206.125,679,202.125" style="stroke:#181818;stroke-width:1.0;"/><line style="stroke:#181818;stroke-width:1.0;" x1="330" x2="681" y1="202.125" y2="202.125"/><text fill="#000000" font-family="sans-serif" font-size="13" font-weight="bold" lengthAdjust="spacing" textLength="9" x="337" y="197.0591">4</text><text fill="#000000" font-family="sans-serif" font-size="13" lengthAdjust="spacing" textLength="80" x="350" y="197.0591">listAllUsers()</text><polygon fill="#181818" points="1165,227.2578,1175,231.2578,1165,235.2578,1169,231.2578" style="stroke:#181818;stroke-width:1.0;"/><line style="stroke:#181818;stroke-width:1.0;" x1="697" x2="1171" y1="231.2578" y2="231.2578"/><text fill="#000000" font-family="sans-serif" font-size="13" font-weight="bold" lengthAdjust="spacing" textLength="9" x="704" y="226.1919">5</text><text fill="#000000" font-family="sans-serif" font-size="13" lengthAdjust="spacing" textLength="61" x="717" y="226.1919">allUsers()</text><polygon fill="#181818" points="40,286.3906,30,290.3906,40,294.3906,36,290.3906" style="stroke:#181818;stroke-width:1.0;"/><line style="stroke:#181818;stroke-width:1.0;stroke-dasharray:2.0,2.0;" x1="34" x2="324" y1="290.3906" y2="290.3906"/><text fill="#000000" font-family="sans-serif" font-size="13" font-weight="bold" lengthAdjust="spacing" textLength="9" x="46" y="285.3247">6</text><text fill="#000000" font-family="sans-serif" font-size="13" lengthAdjust="spacing" textLength="254" x="59" y="285.3247">asks to select user and permission type</text><polygon fill="#181818" points="308,315.5234,318,319.5234,308,323.5234,312,319.5234" style="stroke:#181818;stroke-width:1.0;"/><line style="stroke:#181818;stroke-width:1.0;" x1="29" x2="314" y1="319.5234" y2="319.5234"/><text fill="#000000" font-family="sans-serif" font-size="13" font-weight="bold" lengthAdjust="spacing" textLength="9" x="36" y="314.4575">7</text><text fill="#000000" font-family="sans-serif" font-size="13" lengthAdjust="spacing" textLength="236" x="49" y="314.4575">selects the user and permission type</text><polygon fill="#181818" points="675,344.6563,685,348.6563,675,352.6563,679,348.6563" style="stroke:#181818;stroke-width:1.0;"/><line style="stroke:#181818;stroke-width:1.0;" x1="330" x2="681" y1="348.6563" y2="348.6563"/><text fill="#000000" font-family="sans-serif" font-size="13" font-weight="bold" lengthAdjust="spacing" textLength="9" x="337" y="343.5903">8</text><text fill="#000000" font-family="sans-serif" font-size="13" lengthAdjust="spacing" textLength="325" x="350" y="343.5903">creatBoard(title, permissions, columns, rows, user)</text><polygon fill="#181818" points="1010,404.0547,1020,408.0547,1010,412.0547,1014,408.0547" style="stroke:#181818;stroke-width:1.0;"/><line style="stroke:#181818;stroke-width:1.0;" x1="697" x2="1016" y1="408.0547" y2="408.0547"/><text fill="#000000" font-family="sans-serif" font-size="13" font-weight="bold" lengthAdjust="spacing" textLength="9" x="704" y="387.856">9</text><text fill="#000000" font-family="sans-serif" font-size="13" lengthAdjust="spacing" textLength="214" x="717" y="372.7231">new BoardBuilder().withTitle(title).</text><text fill="#000000" font-family="sans-serif" font-size="13" lengthAdjust="spacing" textLength="286" x="717" y="387.856">withUser(user).withPermissions(permissions)</text><text fill="#000000" font-family="sans-serif" font-size="13" lengthAdjust="spacing" textLength="293" x="717" y="402.9888">.withColumns(columns).withRows(rows).build()</text><polygon fill="#181818" points="851,463.1875,861,467.1875,851,471.1875,855,467.1875" style="stroke:#181818;stroke-width:1.0;"/><line style="stroke:#181818;stroke-width:1.0;" x1="697" x2="857" y1="467.1875" y2="467.1875"/><text fill="#000000" font-family="sans-serif" font-size="13" font-weight="bold" lengthAdjust="spacing" textLength="18" x="704" y="462.1216">10</text><text fill="#000000" font-family="sans-serif" font-size="13" lengthAdjust="spacing" textLength="125" x="726" y="462.1216">containsOfIdentity()</text><line style="stroke:#181818;stroke-width:1.0;" x1="697" x2="744" y1="521.3203" y2="521.3203"/><line style="stroke:#181818;stroke-width:1.0;" x1="744" x2="744" y1="521.3203" y2="534.3203"/><line style="stroke:#181818;stroke-width:1.0;" x1="703" x2="744" y1="534.3203" y2="534.3203"/><polygon fill="#181818" points="713,530.3203,703,534.3203,713,538.3203,709,534.3203" style="stroke:#181818;stroke-width:1.0;"/><text fill="#000000" font-family="sans-serif" font-size="13" font-weight="bold" lengthAdjust="spacing" textLength="18" x="709" y="516.2544">11</text><text fill="#000000" font-family="sans-serif" font-size="13" lengthAdjust="spacing" textLength="78" x="731" y="516.2544">saveBoard()</text><polygon fill="#181818" points="1329,564.4531,1339,568.4531,1329,572.4531,1333,568.4531" style="stroke:#181818;stroke-width:1.0;"/><line style="stroke:#181818;stroke-width:1.0;" x1="702" x2="1335" y1="568.4531" y2="568.4531"/><text fill="#000000" font-family="sans-serif" font-size="13" font-weight="bold" lengthAdjust="spacing" textLength="18" x="709" y="563.3872">12</text><text fill="#000000" font-family="sans-serif" font-size="13" lengthAdjust="spacing" textLength="78" x="731" y="563.3872">saveBoard()</text><polygon fill="#181818" points="35,623.5859,25,627.5859,35,631.5859,31,627.5859" style="stroke:#181818;stroke-width:1.0;"/><line style="stroke:#181818;stroke-width:1.0;stroke-dasharray:2.0,2.0;" x1="29" x2="324" y1="627.5859" y2="627.5859"/><text fill="#000000" font-family="sans-serif" font-size="13" font-weight="bold" lengthAdjust="spacing" textLength="18" x="41" y="622.52">13</text><text fill="#000000" font-family="sans-serif" font-size="13" lengthAdjust="spacing" textLength="168" x="63" y="622.52">informs operation success</text><!--MD5=[1013c887c93d75255a38105bc6c623c9]
@startuml US3002_SD
autonumber

actor "User" as U
participant "CreateBoardUI" as UI <<presentation>>
participant "CreateBoardController" as CTRL <<application>>
participant "Board" as C <<domain>>
participant "BoardBuilder" as B <<builder>>
participant "UserManagementService" as SVC <<service>>

database BoardRepository as REPO <<repository>>

activate U

U -> UI : asks to create a new Course
activate UI

UI - -> U : requests data (title, rows, columns)
deactivate UI

U -> UI : types request data
activate UI

UI -> CTRL : listAllUsers()
activate CTRL

CTRL -> SVC : allUsers()
activate SVC
deactivate SVC

deactivate CTRL

UI - -> U : asks to select user and permission type
deactivate UI

U -> UI : selects the user and permission type
activate UI

UI -> CTRL : creatBoard(title, permissions, columns, rows, user)
activate CTRL

CTRL -> B : new BoardBuilder().withTitle(title).\nwithUser(user).withPermissions(permissions)\n.withColumns(columns).withRows(rows).build()
activate B
deactivate B

CTRL -> C : containsOfIdentity()
activate C
deactivate C

CTRL -> CTRL : saveBoard()

activate CTRL
CTRL -> REPO : saveBoard()

activate REPO
deactivate REPO

deactivate CTRL
deactivate CTRL




deactivate CTRL
UI- -> U : informs operation success
deactivate UI

deactivate U

@enduml

PlantUML version 1.2022.7(Mon Aug 22 18:01:30 WEST 2022)
(GPL source distribution)
Java Runtime: OpenJDK Runtime Environment
JVM: OpenJDK 64-Bit Server VM
Default Encoding: UTF-8
Language: en
Country: US
--></g></svg>