<?xml version="1.0" encoding="UTF-8" standalone="no"?><svg xmlns="http://www.w3.org/2000/svg" xmlns:xlink="http://www.w3.org/1999/xlink" contentStyleType="text/css" height="515px" preserveAspectRatio="none" style="width:975px;height:515px;background:#FFFFFF;" version="1.1" viewBox="0 0 975 515" width="975px" zoomAndPan="magnify"><defs/><g><!--MD5=[8f9545635c96278f6464f1f75fb05986]
cluster <<aggregate>> Board--><g id="cluster_&lt;&lt;aggregate&gt;&gt; Board"><path d="M8.5,6 L189.5,6 A3.75,3.75 0 0 1 192,8.5 L199,28.2969 L754.5,28.2969 A2.5,2.5 0 0 1 757,30.7969 L757,411.5 A2.5,2.5 0 0 1 754.5,414 L8.5,414 A2.5,2.5 0 0 1 6,411.5 L6,8.5 A2.5,2.5 0 0 1 8.5,6 " fill="none" style="stroke:#000000;stroke-width:1.5;"/><line style="stroke:#000000;stroke-width:1.5;" x1="6" x2="199" y1="28.2969" y2="28.2969"/><text fill="#000000" font-family="sans-serif" font-size="14" font-weight="bold" lengthAdjust="spacing" textLength="180" x="10" y="20.9951">&lt;&lt;aggregate&gt;&gt; Board</text></g><!--MD5=[597c9b6a35d8038d4b40fd8870ba90aa]
cluster <<aggregate>> User--><g id="cluster_&lt;&lt;aggregate&gt;&gt; User"><path d="M783.5,316 L955.5,316 A3.75,3.75 0 0 1 958,318.5 L965,338.2969 L965.5,338.2969 A2.5,2.5 0 0 1 968,340.7969 L968,418.5 A2.5,2.5 0 0 1 965.5,421 L783.5,421 A2.5,2.5 0 0 1 781,418.5 L781,318.5 A2.5,2.5 0 0 1 783.5,316 " fill="none" style="stroke:#000000;stroke-width:1.5;"/><line style="stroke:#000000;stroke-width:1.5;" x1="781" x2="965" y1="338.2969" y2="338.2969"/><text fill="#000000" font-family="sans-serif" font-size="14" font-weight="bold" lengthAdjust="spacing" textLength="171" x="785" y="330.9951">&lt;&lt;aggregate&gt;&gt; User</text></g><!--MD5=[9563755d011c5cec7ec66dc53565a59e]
class Board--><g id="elem_Board"><rect codeLine="29" fill="#F5F5DC" height="54.2344" id="Board" rx="2.5" ry="2.5" style="stroke:#181818;stroke-width:0.5;" width="78" x="423" y="41"/><ellipse cx="438" cy="68.1172" fill="#ADD1B2" rx="11" ry="11" style="stroke:#181818;stroke-width:1.0;"/><path d="M442.1094,74.1172 L434.3906,74.1172 L434.3906,61.7266 L442.1094,61.7266 L442.1094,63.8828 L436.8438,63.8828 L436.8438,66.5547 L441.6094,66.5547 L441.6094,68.7109 L436.8438,68.7109 L436.8438,71.9609 L442.1094,71.9609 L442.1094,74.1172 Z " fill="#000000"/><text fill="#000000" font-family="sans-serif" font-size="12" font-style="italic" lengthAdjust="spacing" textLength="50" x="450" y="57.1387">«entity»</text><text fill="#000000" font-family="sans-serif" font-size="12" font-style="italic" lengthAdjust="spacing" textLength="40" x="455" y="71.1074">«root»</text><text fill="#000000" font-family="sans-serif" font-size="14" lengthAdjust="spacing" textLength="41" x="454.5" y="86.9326">Board</text></g><!--MD5=[90111e5cdc788a7ef73a3273c23dcc2b]
class Title--><g id="elem_Title"><rect codeLine="40" fill="#F5F5DC" height="40.2656" id="Title" rx="2.5" ry="2.5" style="stroke:#181818;stroke-width:0.5;" width="118" x="182" y="358"/><ellipse cx="197" cy="378.1328" fill="#FF8B40" rx="11" ry="11" style="stroke:#181818;stroke-width:1.0;"/><path d="M197.1094,382.5859 L199.2969,372.2422 L201.7656,372.2422 L198.8125,384.6328 L195.4219,384.6328 L192.4688,372.2422 L194.9375,372.2422 L197.1094,382.5859 Z " fill="#000000"/><text fill="#000000" font-family="sans-serif" font-size="12" font-style="italic" lengthAdjust="spacing" textLength="90" x="209" y="374.1387">«value object»</text><text fill="#000000" font-family="sans-serif" font-size="14" lengthAdjust="spacing" textLength="29" x="239.5" y="389.9639">Title</text></g><!--MD5=[e06ef809dd6be8ce79b58fe0a1161eb8]
class Column--><g id="elem_Column"><rect codeLine="32" fill="#F5F5DC" height="64.5625" id="Column" rx="2.5" ry="2.5" style="stroke:#181818;stroke-width:0.5;" width="85" x="214.5" y="180"/><ellipse cx="229.5" cy="200.1328" fill="#ADD1B2" rx="11" ry="11" style="stroke:#181818;stroke-width:1.0;"/><path d="M233.6094,206.1328 L225.8906,206.1328 L225.8906,193.7422 L233.6094,193.7422 L233.6094,195.8984 L228.3438,195.8984 L228.3438,198.5703 L233.1094,198.5703 L233.1094,200.7266 L228.3438,200.7266 L228.3438,203.9766 L233.6094,203.9766 L233.6094,206.1328 Z " fill="#000000"/><text fill="#000000" font-family="sans-serif" font-size="12" font-style="italic" lengthAdjust="spacing" textLength="50" x="245" y="196.1387">«entity»</text><text fill="#000000" font-family="sans-serif" font-size="14" lengthAdjust="spacing" textLength="53" x="243.5" y="211.9639">Column</text><line style="stroke:#181818;stroke-width:0.5;" x1="215.5" x2="298.5" y1="220.2656" y2="220.2656"/><text fill="#000000" font-family="sans-serif" font-size="14" lengthAdjust="spacing" textLength="59" x="220.5" y="237.2607">-number</text></g><!--MD5=[05aedcff764caeeb5d443618a4d90de7]
class Row--><g id="elem_Row"><rect codeLine="36" fill="#F5F5DC" height="64.5625" id="Row" rx="2.5" ry="2.5" style="stroke:#181818;stroke-width:0.5;" width="78" x="335" y="180"/><ellipse cx="350" cy="200.1328" fill="#ADD1B2" rx="11" ry="11" style="stroke:#181818;stroke-width:1.0;"/><path d="M354.1094,206.1328 L346.3906,206.1328 L346.3906,193.7422 L354.1094,193.7422 L354.1094,195.8984 L348.8438,195.8984 L348.8438,198.5703 L353.6094,198.5703 L353.6094,200.7266 L348.8438,200.7266 L348.8438,203.9766 L354.1094,203.9766 L354.1094,206.1328 Z " fill="#000000"/><text fill="#000000" font-family="sans-serif" font-size="12" font-style="italic" lengthAdjust="spacing" textLength="50" x="362" y="196.1387">«entity»</text><text fill="#000000" font-family="sans-serif" font-size="14" lengthAdjust="spacing" textLength="30" x="372" y="211.9639">Row</text><line style="stroke:#181818;stroke-width:0.5;" x1="336" x2="412" y1="220.2656" y2="220.2656"/><text fill="#000000" font-family="sans-serif" font-size="14" lengthAdjust="spacing" textLength="59" x="341" y="237.2607">-number</text></g><!--MD5=[4a9ad4904d2b4c1fe9826a35b8501244]
class Archived--><g id="elem_Archived"><rect codeLine="42" fill="#F5F5DC" height="64.5625" id="Archived" rx="2.5" ry="2.5" style="stroke:#181818;stroke-width:0.5;" width="118" x="448" y="180"/><ellipse cx="463" cy="200.1328" fill="#FF8B40" rx="11" ry="11" style="stroke:#181818;stroke-width:1.0;"/><path d="M463.1094,204.5859 L465.2969,194.2422 L467.7656,194.2422 L464.8125,206.6328 L461.4219,206.6328 L458.4688,194.2422 L460.9375,194.2422 L463.1094,204.5859 Z " fill="#000000"/><text fill="#000000" font-family="sans-serif" font-size="12" font-style="italic" lengthAdjust="spacing" textLength="90" x="475" y="196.1387">«value object»</text><text fill="#000000" font-family="sans-serif" font-size="14" lengthAdjust="spacing" textLength="59" x="490.5" y="211.9639">Archived</text><line style="stroke:#181818;stroke-width:0.5;" x1="449" x2="565" y1="220.2656" y2="220.2656"/><text fill="#000000" font-family="sans-serif" font-size="14" lengthAdjust="spacing" textLength="77" x="454" y="237.2607">-archivedAt</text></g><!--MD5=[a7e0804515709e556f13ed1297f351ac]
class UserPermission--><g id="elem_UserPermission"><rect codeLine="46" fill="#F5F5DC" height="80.8594" id="UserPermission" rx="2.5" ry="2.5" style="stroke:#181818;stroke-width:0.5;" width="140" x="601" y="172"/><ellipse cx="616" cy="192.1328" fill="#ADD1B2" rx="11" ry="11" style="stroke:#181818;stroke-width:1.0;"/><path d="M620.1094,198.1328 L612.3906,198.1328 L612.3906,185.7422 L620.1094,185.7422 L620.1094,187.8984 L614.8438,187.8984 L614.8438,190.5703 L619.6094,190.5703 L619.6094,192.7266 L614.8438,192.7266 L614.8438,195.9766 L620.1094,195.9766 L620.1094,198.1328 Z " fill="#000000"/><text fill="#000000" font-family="sans-serif" font-size="12" font-style="italic" lengthAdjust="spacing" textLength="50" x="659" y="188.1387">«entity»</text><text fill="#000000" font-family="sans-serif" font-size="14" lengthAdjust="spacing" textLength="108" x="630" y="203.9639">UserPermission</text><line style="stroke:#181818;stroke-width:0.5;" x1="602" x2="740" y1="212.2656" y2="212.2656"/><text fill="#000000" font-family="sans-serif" font-size="14" lengthAdjust="spacing" textLength="72" x="607" y="229.2607">-createdAt</text><text fill="#000000" font-family="sans-serif" font-size="14" lengthAdjust="spacing" textLength="77" x="607" y="245.5576">-updatedAt</text></g><!--MD5=[804f30b77bc561c03a4e35044fe1a2c4]
class PermissionType--><g id="elem_PermissionType"><rect codeLine="51" fill="#F5F5DC" height="40.2656" id="PermissionType" rx="2.5" ry="2.5" style="stroke:#181818;stroke-width:0.5;" width="142" x="599" y="358"/><ellipse cx="614" cy="378.1328" fill="#FF8B40" rx="11" ry="11" style="stroke:#181818;stroke-width:1.0;"/><path d="M614.1094,382.5859 L616.2969,372.2422 L618.7656,372.2422 L615.8125,384.6328 L612.4219,384.6328 L609.4688,372.2422 L611.9375,372.2422 L614.1094,382.5859 Z " fill="#000000"/><text fill="#000000" font-family="sans-serif" font-size="12" font-style="italic" lengthAdjust="spacing" textLength="90" x="638" y="374.1387">«value object»</text><text fill="#000000" font-family="sans-serif" font-size="14" lengthAdjust="spacing" textLength="110" x="628" y="389.9639">PermissionType</text></g><!--MD5=[3fd616f346a44cd59a91eb10b19e157c]
class User--><g id="elem_User"><rect codeLine="26" fill="#F5F5DC" height="54.2344" id="User" rx="2.5" ry="2.5" style="stroke:#181818;stroke-width:0.5;" width="78" x="797" y="351"/><ellipse cx="812" cy="378.1172" fill="#ADD1B2" rx="11" ry="11" style="stroke:#181818;stroke-width:1.0;"/><path d="M816.1094,384.1172 L808.3906,384.1172 L808.3906,371.7266 L816.1094,371.7266 L816.1094,373.8828 L810.8438,373.8828 L810.8438,376.5547 L815.6094,376.5547 L815.6094,378.7109 L810.8438,378.7109 L810.8438,381.9609 L816.1094,381.9609 L816.1094,384.1172 Z " fill="#000000"/><text fill="#000000" font-family="sans-serif" font-size="12" font-style="italic" lengthAdjust="spacing" textLength="50" x="824" y="367.1387">«entity»</text><text fill="#000000" font-family="sans-serif" font-size="12" font-style="italic" lengthAdjust="spacing" textLength="40" x="829" y="381.1074">«root»</text><text fill="#000000" font-family="sans-serif" font-size="14" lengthAdjust="spacing" textLength="32" x="833" y="396.9326">User</text></g><g id="elem_GMN12"><path d="M641,468 L641,508.2656 A0,0 0 0 0 641,508.2656 L699,508.2656 A0,0 0 0 0 699,508.2656 L699,478 L689,468 L674,468 L670,398.06 L666,468 L641,468 A0,0 0 0 0 641,468 " fill="#FEFFDD" style="stroke:#181818;stroke-width:0.5;"/><path d="M689,468 L689,478 L699,478 L689,468 " fill="#FEFFDD" style="stroke:#181818;stroke-width:0.5;"/><text fill="#000000" font-family="sans-serif" font-size="13" lengthAdjust="spacing" textLength="35" x="647" y="485.0669">READ</text><text fill="#000000" font-family="sans-serif" font-size="13" lengthAdjust="spacing" textLength="37" x="647" y="500.1997">WRITE</text></g><!--MD5=[01eab5ddfea69a8ec4652490ae920d78]
link Board to Title--><g id="link_Board_Title"><path codeLine="59" d="M422.86,73.33 C333.09,84.17 116.83,115.71 75,172 C53.53,200.9 58.87,220.82 75,253 C99.16,301.21 151.95,335.48 191.55,355.6 " fill="none" id="Board-to-Title" style="stroke:#222222;stroke-width:1.0;"/><polygon fill="#222222" points="196.31,357.98,190.0393,350.3854,191.835,355.7497,186.4707,357.5454,196.31,357.98" style="stroke:#222222;stroke-width:1.0;"/><text fill="#000000" font-family="sans-serif" font-size="13" lengthAdjust="spacing" textLength="120" x="76" y="217.0669">is characterized by</text><text fill="#000000" font-family="sans-serif" font-size="13" lengthAdjust="spacing" textLength="8" x="174.0073" y="346.9434">1</text></g><!--MD5=[e85cb12d639f92ee13525f287efbade5]
reverse link Board to Column--><g id="link_Board_Column"><path codeLine="60" d="M409.59,75.24 C352.27,83.27 265.86,99.33 246,125 C234.14,140.32 236.89,161.95 242.61,179.74 " fill="none" id="Board-backto-Column" style="stroke:#222222;stroke-width:1.0;"/><polygon fill="#222222" points="422.77,73.46,416.2914,70.2932,410.8765,75.0555,417.3551,78.2222,422.77,73.46" style="stroke:#222222;stroke-width:1.0;"/><text fill="#000000" font-family="sans-serif" font-size="13" lengthAdjust="spacing" textLength="115" x="247" y="138.0669">has a collection of</text><text fill="#000000" font-family="sans-serif" font-size="13" lengthAdjust="spacing" textLength="23" x="214.5129" y="168.9368">1..*</text></g><!--MD5=[c0c9e033076d28baf33fd1d6b7938717]
reverse link Board to Row--><g id="link_Board_Row"><path codeLine="61" d="M411.58,91.21 C398,99.75 384.91,110.91 377,125 C367.81,141.38 366.88,162.39 368.33,179.6 " fill="none" id="Board-backto-Row" style="stroke:#222222;stroke-width:1.0;"/><polygon fill="#222222" points="422.99,84.65,415.795,84.1686,412.5833,90.625,419.7783,91.1064,422.99,84.65" style="stroke:#222222;stroke-width:1.0;"/><text fill="#000000" font-family="sans-serif" font-size="13" lengthAdjust="spacing" textLength="115" x="378" y="138.0669">has a collection of</text><text fill="#000000" font-family="sans-serif" font-size="13" lengthAdjust="spacing" textLength="23" x="342.057" y="169.02">1..*</text></g><!--MD5=[ca6596a255f872499f1bf7547abed126]
reverse link Board to UserPermission--><g id="link_Board_UserPermission"><path codeLine="62" d="M511.12,102.49 C541.55,123.24 580.79,149.99 612.78,171.8 " fill="none" id="Board-backto-UserPermission" style="stroke:#222222;stroke-width:1.0;"/><polygon fill="#222222" points="500.33,95.14,503.0324,101.8256,510.2431,101.9025,507.5407,95.2169,500.33,95.14" style="stroke:#222222;stroke-width:1.0;"/><text fill="#000000" font-family="sans-serif" font-size="13" lengthAdjust="spacing" textLength="115" x="568" y="138.0669">has a collection of</text><text fill="#000000" font-family="sans-serif" font-size="13" lengthAdjust="spacing" textLength="23" x="578.2326" y="160.9064">0..*</text></g><!--MD5=[e3d585e4bc3c1b67412a3b04a0c9a31e]
link UserPermission to PermissionType--><g id="link_UserPermission_PermissionType"><path codeLine="64" d="M670.76,253.08 C670.57,284.09 670.31,326.25 670.15,352.53 " fill="none" id="UserPermission-to-PermissionType" style="stroke:#222222;stroke-width:1.0;"/><polygon fill="#222222" points="670.12,357.57,674.1714,348.593,670.1486,352.5701,666.1715,348.5473,670.12,357.57" style="stroke:#222222;stroke-width:1.0;"/><text fill="#000000" font-family="sans-serif" font-size="13" lengthAdjust="spacing" textLength="23" x="671" y="296.0669">has</text><text fill="#000000" font-family="sans-serif" font-size="13" lengthAdjust="spacing" textLength="8" x="661.0288" y="346.7629">1</text></g><!--MD5=[e6b00edee372ba1b9aa377163ef0dd12]
link UserPermission to User--><g id="link_UserPermission_User"><path codeLine="65" d="M695.35,253.39 C706.73,269.51 721.43,287.27 738,300 C745.27,305.58 749.23,303.15 757,308 C774.65,319.02 792.28,333.95 806.39,347.1 " fill="none" id="UserPermission-to-User" style="stroke:#222222;stroke-width:1.0;"/><polygon fill="#222222" points="810.28,350.76,806.4677,341.6789,806.639,347.3332,800.9847,347.5045,810.28,350.76" style="stroke:#222222;stroke-width:1.0;"/><text fill="#000000" font-family="sans-serif" font-size="13" lengthAdjust="spacing" textLength="67" x="739" y="296.0669">belongs to</text><text fill="#000000" font-family="sans-serif" font-size="13" lengthAdjust="spacing" textLength="8" x="795.4073" y="339.7815">1</text></g><!--MD5=[cb7f994e4681ceccb2e25c9fb9f1e058]
link Row to Title--><g id="link_Row_Title"><path codeLine="67" d="M363.81,245.02 C357.27,262.32 347.63,283.53 335,300 C318.53,321.48 294.96,340.77 275.54,354.67 " fill="none" id="Row-to-Title" style="stroke:#222222;stroke-width:1.0;"/><polygon fill="#222222" points="271.21,357.73,280.8689,355.8051,275.294,354.8455,276.2537,349.2706,271.21,357.73" style="stroke:#222222;stroke-width:1.0;"/><text fill="#000000" font-family="sans-serif" font-size="13" lengthAdjust="spacing" textLength="91" x="347" y="296.0669">is identified by</text><text fill="#000000" font-family="sans-serif" font-size="13" lengthAdjust="spacing" textLength="8" x="270.5816" y="346.9679">1</text></g><!--MD5=[e4fcdcc179b6046cd1484a21e20d6ff3]
link Column to Title--><g id="link_Column_Title"><path codeLine="69" d="M246.39,245.31 C242.99,257.02 239.68,270.48 238,283 C234.84,306.52 236.24,333.63 238.03,352.67 " fill="none" id="Column-to-Title" style="stroke:#222222;stroke-width:1.0;"/><polygon fill="#222222" points="238.55,357.82,241.6293,348.4649,238.0497,352.8451,233.6694,349.2655,238.55,357.82" style="stroke:#222222;stroke-width:1.0;"/><text fill="#000000" font-family="sans-serif" font-size="13" lengthAdjust="spacing" textLength="91" x="239" y="296.0669">is identified by</text><text fill="#000000" font-family="sans-serif" font-size="13" lengthAdjust="spacing" textLength="8" x="228.7359" y="347.0832">1</text></g><!--MD5=[f5a5fb38a491afdb60656b0cb210e8f1]
link Board to User--><g id="link_Board_User"><path codeLine="71" d="M501.05,70.4 C565.49,74.96 693.45,93.96 759,172 C802.47,223.75 822.7,302.49 831,345.77 " fill="none" id="Board-to-User" style="stroke:#222222;stroke-width:1.0;"/><polygon fill="#222222" points="831.96,350.87,834.2245,341.285,831.0343,345.9564,826.3628,342.7662,831.96,350.87" style="stroke:#222222;stroke-width:1.0;"/><text fill="#000000" font-family="sans-serif" font-size="13" lengthAdjust="spacing" textLength="74" x="805" y="217.0669">is owned by</text><text fill="#000000" font-family="sans-serif" font-size="13" lengthAdjust="spacing" textLength="8" x="822.1008" y="339.917">1</text></g><!--MD5=[49ad4a3d17db9a8fbbb03e890f160fb5]
link Board to Archived--><g id="link_Board_Archived"><path codeLine="72" d="M485.29,95.17 C491.88,104.04 498.27,114.41 502,125 C507.53,140.68 509.21,158.94 509.35,174.63 " fill="none" id="Board-to-Archived" style="stroke:#222222;stroke-width:1.0;"/><polygon fill="#222222" points="509.34,179.85,513.3657,170.8615,509.3543,174.85,505.3657,170.8386,509.34,179.85" style="stroke:#222222;stroke-width:1.0;"/><text fill="#000000" font-family="sans-serif" font-size="13" lengthAdjust="spacing" textLength="10" x="508" y="138.0669">is</text><text fill="#000000" font-family="sans-serif" font-size="13" lengthAdjust="spacing" textLength="24" x="483.3476" y="168.6948">0..1</text></g><!--MD5=[1c04f1a0790a979fc75ad87589e3dcdb]
@startuml US3002_DM

skinparam classAttributeIconSize 0
hide empty attributes
hide empty methods
skinparam classBackgroundColor beige
skinparam ArrowColor #222222

package "<<aggregate>> Board" {
  entity Board

  class Title
  entity Column
  entity Row

  class Archived

  entity UserPermission

  class PermissionType
}

package "<<aggregate>> User" {
  entity User
}

entity User <<entity>> <<root>> {
}

entity Board <<entity>> <<root>> {
}

entity Column <<entity>> {
  - number
}

entity Row <<entity>> {
  - number
}

class Title <<(V,#FF8B40) value object>> {}

class Archived <<(V,#FF8B40) value object>> {
  - archivedAt
}

entity UserPermission <<entity>> {
  -createdAt
  -updatedAt
}

class PermissionType <<(V,#FF8B40) value object>> {
}

note bottom of PermissionType
  READ
  WRITE
end note

Board - -> "1" Title : is characterized by
Board *- - "1..*" Column : has a collection of
Board *- - "1..*" Row : has a collection of
Board *- - "0..*" UserPermission : has a collection of

UserPermission - -> "1" PermissionType : has
UserPermission - -> "1" User : belongs to

Row - -> "1" Title : is identified by

Column - -> "1" Title : is identified by

Board - -> "1" User : is owned by
Board - -> "0..1" Archived : is

@enduml

PlantUML version 1.2022.7(Mon Aug 22 18:01:30 WEST 2022)
(GPL source distribution)
Java Runtime: OpenJDK Runtime Environment
JVM: OpenJDK 64-Bit Server VM
Default Encoding: UTF-8
Language: en
Country: US
--></g></svg>