<?xml version="1.0" encoding="UTF-8" standalone="no"?><svg xmlns="http://www.w3.org/2000/svg" xmlns:xlink="http://www.w3.org/1999/xlink" contentStyleType="text/css" height="675px" preserveAspectRatio="none" style="width:2011px;height:675px;background:#FFFFFF;" version="1.1" viewBox="0 0 2011 675" width="2011px" zoomAndPan="magnify"><defs/><g><!--class Board--><g id="elem_Board"><rect codeLine="5" fill="#F1F1F1" height="216.6798" id="Board" rx="2.5" ry="2.5" style="stroke:#181818;stroke-width:0.5;" width="158" x="813" y="424"/><ellipse cx="858.7" cy="442.62" fill="#ADD1B2" rx="12" ry="12" style="stroke:#181818;stroke-width:1.0;"/><path d="M858.825,436.9637 Q857.7469,436.9637 856.8875,437.3387 Q856.0281,437.6981 855.4344,438.4012 Q854.8406,439.0887 854.5125,440.1044 Q854.2,441.12 854.2,442.4169 Q854.2,444.12 854.7156,445.3544 Q855.2313,446.5731 856.2469,447.2294 Q857.2625,447.87 858.8094,447.87 Q859.7156,447.87 860.5281,447.7137 Q861.3406,447.5575 862.5281,447.1981 L862.5281,449.4012 Q861.4969,449.7762 860.6219,449.9169 Q859.7469,450.0731 858.5438,450.0731 Q856.2625,450.0731 854.7313,449.1356 Q853.2,448.1825 852.4344,446.4481 Q851.6688,444.6981 851.6688,442.4012 Q851.6688,440.7294 852.1375,439.3387 Q852.6063,437.9481 853.5125,436.9169 Q854.4344,435.87 855.7781,435.3231 Q857.1219,434.7606 858.8406,434.7606 Q859.9813,434.7606 861.0281,434.995 Q862.0906,435.2137 863.1844,435.7762 L862.2156,437.8387 Q861.2938,437.4325 860.5125,437.1981 Q859.7313,436.9637 858.825,436.9637 Z " fill="#000000"/><text fill="#000000" font-family="sans-serif" font-size="20" lengthAdjust="spacing" textLength="58" x="880.3" y="450.38">Board</text><line style="stroke:#181818;stroke-width:0.5;" x1="814" x2="970" y1="461.24" y2="461.24"/><line style="stroke:#181818;stroke-width:0.5;" x1="814" x2="970" y1="469.24" y2="469.24"/><ellipse cx="824" cy="488.36" fill="#84BE84" rx="3" ry="3" style="stroke:#038048;stroke-width:1.0;"/><text fill="#000000" font-family="sans-serif" font-size="20" lengthAdjust="spacing" textLength="51" x="834" y="494.62">title()</text><ellipse cx="824" cy="515.5999" fill="#84BE84" rx="3" ry="3" style="stroke:#038048;stroke-width:1.0;"/><text fill="#000000" font-family="sans-serif" font-size="20" lengthAdjust="spacing" textLength="94" x="834" y="521.8599">archived()</text><ellipse cx="824" cy="542.8399" fill="#84BE84" rx="3" ry="3" style="stroke:#038048;stroke-width:1.0;"/><text fill="#000000" font-family="sans-serif" font-size="20" lengthAdjust="spacing" textLength="59" x="834" y="549.0999">rows()</text><ellipse cx="824" cy="570.0799" fill="#84BE84" rx="3" ry="3" style="stroke:#038048;stroke-width:1.0;"/><text fill="#000000" font-family="sans-serif" font-size="20" lengthAdjust="spacing" textLength="94" x="834" y="576.3399">columns()</text><ellipse cx="824" cy="597.3199" fill="#84BE84" rx="3" ry="3" style="stroke:#038048;stroke-width:1.0;"/><text fill="#000000" font-family="sans-serif" font-size="20" lengthAdjust="spacing" textLength="131" x="834" y="603.5799">permissions()</text><ellipse cx="824" cy="624.5598" fill="#84BE84" rx="3" ry="3" style="stroke:#038048;stroke-width:1.0;"/><text fill="#000000" font-family="sans-serif" font-size="20" lengthAdjust="spacing" textLength="73" x="834" y="630.8198">owner()</text></g><!--class BoardBuilder--><g id="elem_BoardBuilder"><rect codeLine="14" fill="#F1F1F1" height="271.1598" id="BoardBuilder" rx="2.5" ry="2.5" style="stroke:#181818;stroke-width:0.5;" width="200" x="1495" y="397"/><ellipse cx="1527.65" cy="415.62" fill="#ADD1B2" rx="12" ry="12" style="stroke:#181818;stroke-width:1.0;"/><path d="M1527.775,409.9637 Q1526.6969,409.9637 1525.8375,410.3387 Q1524.9781,410.6981 1524.3844,411.4012 Q1523.7906,412.0887 1523.4625,413.1044 Q1523.15,414.12 1523.15,415.4169 Q1523.15,417.12 1523.6656,418.3544 Q1524.1813,419.5731 1525.1969,420.2294 Q1526.2125,420.87 1527.7594,420.87 Q1528.6656,420.87 1529.4781,420.7137 Q1530.2906,420.5575 1531.4781,420.1981 L1531.4781,422.4012 Q1530.4469,422.7762 1529.5719,422.9169 Q1528.6969,423.0731 1527.4938,423.0731 Q1525.2125,423.0731 1523.6813,422.1356 Q1522.15,421.1825 1521.3844,419.4481 Q1520.6188,417.6981 1520.6188,415.4012 Q1520.6188,413.7294 1521.0875,412.3387 Q1521.5563,410.9481 1522.4625,409.9169 Q1523.3844,408.87 1524.7281,408.3231 Q1526.0719,407.7606 1527.7906,407.7606 Q1528.9313,407.7606 1529.9781,407.995 Q1531.0406,408.2137 1532.1344,408.7762 L1531.1656,410.8387 Q1530.2438,410.4325 1529.4625,410.1981 Q1528.6813,409.9637 1527.775,409.9637 Z " fill="#000000"/><text fill="#000000" font-family="sans-serif" font-size="20" lengthAdjust="spacing" textLength="129" x="1546.35" y="423.38">BoardBuilder</text><line style="stroke:#181818;stroke-width:0.5;" x1="1496" x2="1694" y1="434.24" y2="434.24"/><rect fill="none" height="6" style="stroke:#C82930;stroke-width:1.0;" width="6" x="1503" y="450.36"/><text fill="#000000" font-family="sans-serif" font-size="20" lengthAdjust="spacing" textLength="131" x="1516" y="459.62">board : Board</text><line style="stroke:#181818;stroke-width:1.0;" x1="1496" x2="1694" y1="469.4799" y2="469.4799"/><ellipse cx="1506" cy="488.5999" fill="#84BE84" rx="3" ry="3" style="stroke:#038048;stroke-width:1.0;"/><text fill="#000000" font-family="sans-serif" font-size="20" lengthAdjust="spacing" textLength="99" x="1516" y="494.8599">withTitle()</text><ellipse cx="1506" cy="515.8399" fill="#84BE84" rx="3" ry="3" style="stroke:#038048;stroke-width:1.0;"/><text fill="#000000" font-family="sans-serif" font-size="20" lengthAdjust="spacing" textLength="139" x="1516" y="522.0999">withArchived()</text><ellipse cx="1506" cy="543.0799" fill="#84BE84" rx="3" ry="3" style="stroke:#038048;stroke-width:1.0;"/><text fill="#000000" font-family="sans-serif" font-size="20" lengthAdjust="spacing" textLength="105" x="1516" y="549.3399">withRows()</text><ellipse cx="1506" cy="570.3199" fill="#84BE84" rx="3" ry="3" style="stroke:#038048;stroke-width:1.0;"/><text fill="#000000" font-family="sans-serif" font-size="20" lengthAdjust="spacing" textLength="140" x="1516" y="576.5799">withColumns()</text><ellipse cx="1506" cy="597.5598" fill="#84BE84" rx="3" ry="3" style="stroke:#038048;stroke-width:1.0;"/><text fill="#000000" font-family="sans-serif" font-size="20" lengthAdjust="spacing" textLength="173" x="1516" y="603.8198">withPermissions()</text><ellipse cx="1506" cy="624.7998" fill="#84BE84" rx="3" ry="3" style="stroke:#038048;stroke-width:1.0;"/><text fill="#000000" font-family="sans-serif" font-size="20" lengthAdjust="spacing" textLength="119" x="1516" y="631.0598">withOwner()</text><ellipse cx="1506" cy="652.0398" fill="#84BE84" rx="3" ry="3" style="stroke:#038048;stroke-width:1.0;"/><text fill="#000000" font-family="sans-serif" font-size="20" lengthAdjust="spacing" textLength="63" x="1516" y="658.2998">build()</text></g><!--class BoardID--><g id="elem_BoardID"><rect codeLine="26" fill="#F1F1F1" height="134.9599" id="BoardID" rx="2.5" ry="2.5" style="stroke:#181818;stroke-width:0.5;" width="146" x="7" y="202"/><ellipse cx="37.85" cy="220.62" fill="#ADD1B2" rx="12" ry="12" style="stroke:#181818;stroke-width:1.0;"/><path d="M37.975,214.9637 Q36.8969,214.9637 36.0375,215.3387 Q35.1781,215.6981 34.5844,216.4012 Q33.9906,217.0887 33.6625,218.1044 Q33.35,219.12 33.35,220.4169 Q33.35,222.12 33.8656,223.3544 Q34.3813,224.5731 35.3969,225.2294 Q36.4125,225.87 37.9594,225.87 Q38.8656,225.87 39.6781,225.7137 Q40.4906,225.5575 41.6781,225.1981 L41.6781,227.4012 Q40.6469,227.7762 39.7719,227.9169 Q38.8969,228.0731 37.6938,228.0731 Q35.4125,228.0731 33.8813,227.1356 Q32.35,226.1825 31.5844,224.4481 Q30.8188,222.6981 30.8188,220.4012 Q30.8188,218.7294 31.2875,217.3387 Q31.7563,215.9481 32.6625,214.9169 Q33.5844,213.87 34.9281,213.3231 Q36.2719,212.7606 37.9906,212.7606 Q39.1313,212.7606 40.1781,212.995 Q41.2406,213.2137 42.3344,213.7762 L41.3656,215.8387 Q40.4438,215.4325 39.6625,215.1981 Q38.8813,214.9637 37.975,214.9637 Z " fill="#000000"/><text fill="#000000" font-family="sans-serif" font-size="20" lengthAdjust="spacing" textLength="79" x="56.15" y="228.38">BoardID</text><line style="stroke:#181818;stroke-width:0.5;" x1="8" x2="152" y1="239.24" y2="239.24"/><rect fill="none" height="6" style="stroke:#C82930;stroke-width:1.0;" width="6" x="15" y="255.36"/><text fill="#000000" font-family="sans-serif" font-size="20" lengthAdjust="spacing" textLength="119" x="28" y="264.62">code : string</text><line style="stroke:#181818;stroke-width:1.0;" x1="8" x2="152" y1="274.4799" y2="274.4799"/><ellipse cx="18" cy="293.5999" fill="#84BE84" rx="3" ry="3" style="stroke:#038048;stroke-width:1.0;"/><text fill="#000000" font-family="sans-serif" font-size="20" lengthAdjust="spacing" textLength="73" x="28" y="299.8599">newID()</text><ellipse cx="18" cy="320.8399" fill="#84BE84" rx="3" ry="3" style="stroke:#038048;stroke-width:1.0;"/><text fill="#000000" font-family="sans-serif" font-size="20" lengthAdjust="spacing" textLength="86" x="28" y="327.0999">valueOf()</text></g><!--class Title--><g id="elem_Title"><rect codeLine="33" fill="#F1F1F1" height="80.4799" id="Title" rx="2.5" ry="2.5" style="stroke:#181818;stroke-width:0.5;" width="140" x="283" y="34.5"/><ellipse cx="326.9" cy="53.12" fill="#ADD1B2" rx="12" ry="12" style="stroke:#181818;stroke-width:1.0;"/><path d="M327.025,47.4637 Q325.9469,47.4637 325.0875,47.8387 Q324.2281,48.1981 323.6344,48.9012 Q323.0406,49.5887 322.7125,50.6044 Q322.4,51.62 322.4,52.9169 Q322.4,54.62 322.9156,55.8544 Q323.4313,57.0731 324.4469,57.7294 Q325.4625,58.37 327.0094,58.37 Q327.9156,58.37 328.7281,58.2137 Q329.5406,58.0575 330.7281,57.6981 L330.7281,59.9012 Q329.6969,60.2762 328.8219,60.4169 Q327.9469,60.5731 326.7438,60.5731 Q324.4625,60.5731 322.9313,59.6356 Q321.4,58.6825 320.6344,56.9481 Q319.8688,55.1981 319.8688,52.9012 Q319.8688,51.2294 320.3375,49.8387 Q320.8063,48.4481 321.7125,47.4169 Q322.6344,46.37 323.9781,45.8231 Q325.3219,45.2606 327.0406,45.2606 Q328.1813,45.2606 329.2281,45.495 Q330.2906,45.7137 331.3844,46.2762 L330.4156,48.3387 Q329.4938,47.9325 328.7125,47.6981 Q327.9313,47.4637 327.025,47.4637 Z " fill="#000000"/><text fill="#000000" font-family="sans-serif" font-size="20" lengthAdjust="spacing" textLength="44" x="348.1" y="60.88">Title</text><line style="stroke:#181818;stroke-width:0.5;" x1="284" x2="422" y1="71.74" y2="71.74"/><rect fill="none" height="6" style="stroke:#C82930;stroke-width:1.0;" width="6" x="291" y="87.86"/><text fill="#000000" font-family="sans-serif" font-size="20" lengthAdjust="spacing" textLength="113" x="304" y="97.12">title : string</text><line style="stroke:#181818;stroke-width:0.5;" x1="284" x2="422" y1="106.9799" y2="106.9799"/></g><!--class PermissionType--><g id="elem_PermissionType"><rect codeLine="37" fill="#F1F1F1" height="107.7199" id="PermissionType" rx="2.5" ry="2.5" style="stroke:#181818;stroke-width:0.5;" width="189" x="570.5" y="20.5"/><ellipse cx="586.5" cy="39.12" fill="#EB937F" rx="12" ry="12" style="stroke:#181818;stroke-width:1.0;"/><path d="M590.5469,46.62 L581.9375,46.62 L581.9375,31.7137 L590.5469,31.7137 L590.5469,33.9169 L584.3594,33.9169 L584.3594,37.7606 L590.1875,37.7606 L590.1875,39.9325 L584.3594,39.9325 L584.3594,44.4169 L590.5469,44.4169 L590.5469,46.62 Z " fill="#000000"/><text fill="#000000" font-family="sans-serif" font-size="20" lengthAdjust="spacing" textLength="155" x="601.5" y="46.88">PermissionType</text><line style="stroke:#181818;stroke-width:0.5;" x1="571.5" x2="758.5" y1="57.74" y2="57.74"/><text fill="#000000" font-family="sans-serif" font-size="20" lengthAdjust="spacing" textLength="50" x="576.5" y="83.12">READ</text><text fill="#000000" font-family="sans-serif" font-size="20" lengthAdjust="spacing" textLength="62" x="576.5" y="110.3599">WRITE</text><line style="stroke:#181818;stroke-width:0.5;" x1="571.5" x2="758.5" y1="120.2199" y2="120.2199"/></g><!--class UserPermission--><g id="elem_UserPermission"><rect codeLine="42" fill="#F1F1F1" height="107.7199" id="UserPermission" rx="2.5" ry="2.5" style="stroke:#181818;stroke-width:0.5;" width="306" x="739" y="215.5"/><ellipse cx="811" cy="234.12" fill="#ADD1B2" rx="12" ry="12" style="stroke:#181818;stroke-width:1.0;"/><path d="M811.125,228.4637 Q810.0469,228.4637 809.1875,228.8387 Q808.3281,229.1981 807.7344,229.9012 Q807.1406,230.5887 806.8125,231.6044 Q806.5,232.62 806.5,233.9169 Q806.5,235.62 807.0156,236.8544 Q807.5313,238.0731 808.5469,238.7294 Q809.5625,239.37 811.1094,239.37 Q812.0156,239.37 812.8281,239.2137 Q813.6406,239.0575 814.8281,238.6981 L814.8281,240.9012 Q813.7969,241.2762 812.9219,241.4169 Q812.0469,241.5731 810.8438,241.5731 Q808.5625,241.5731 807.0313,240.6356 Q805.5,239.6825 804.7344,237.9481 Q803.9688,236.1981 803.9688,233.9012 Q803.9688,232.2294 804.4375,230.8387 Q804.9063,229.4481 805.8125,228.4169 Q806.7344,227.37 808.0781,226.8231 Q809.4219,226.2606 811.1406,226.2606 Q812.2813,226.2606 813.3281,226.495 Q814.3906,226.7137 815.4844,227.2762 L814.5156,229.3387 Q813.5938,228.9325 812.8125,228.6981 Q812.0313,228.4637 811.125,228.4637 Z " fill="#000000"/><text fill="#000000" font-family="sans-serif" font-size="20" lengthAdjust="spacing" textLength="153" x="833" y="241.88">UserPermission</text><line style="stroke:#181818;stroke-width:0.5;" x1="740" x2="1044" y1="252.74" y2="252.74"/><rect fill="none" height="6" style="stroke:#C82930;stroke-width:1.0;" width="6" x="747" y="268.86"/><text fill="#000000" font-family="sans-serif" font-size="20" lengthAdjust="spacing" textLength="103" x="760" y="278.12">user : User</text><rect fill="none" height="6" style="stroke:#C82930;stroke-width:1.0;" width="6" x="747" y="296.0999"/><text fill="#000000" font-family="sans-serif" font-size="20" lengthAdjust="spacing" textLength="279" x="760" y="305.3599">permission : PermissionType</text><line style="stroke:#181818;stroke-width:0.5;" x1="740" x2="1044" y1="315.2199" y2="315.2199"/></g><!--class UserPermissionID--><g id="elem_UserPermissionID"><rect codeLine="47" fill="#F1F1F1" height="134.9599" id="UserPermissionID" rx="2.5" ry="2.5" style="stroke:#181818;stroke-width:0.5;" width="208" x="795" y="7"/><ellipse cx="811" cy="25.62" fill="#ADD1B2" rx="12" ry="12" style="stroke:#181818;stroke-width:1.0;"/><path d="M811.125,19.9637 Q810.0469,19.9637 809.1875,20.3387 Q808.3281,20.6981 807.7344,21.4012 Q807.1406,22.0887 806.8125,23.1044 Q806.5,24.12 806.5,25.4169 Q806.5,27.12 807.0156,28.3544 Q807.5313,29.5731 808.5469,30.2294 Q809.5625,30.87 811.1094,30.87 Q812.0156,30.87 812.8281,30.7137 Q813.6406,30.5575 814.8281,30.1981 L814.8281,32.4012 Q813.7969,32.7762 812.9219,32.9169 Q812.0469,33.0731 810.8438,33.0731 Q808.5625,33.0731 807.0313,32.1356 Q805.5,31.1825 804.7344,29.4481 Q803.9688,27.6981 803.9688,25.4012 Q803.9688,23.7294 804.4375,22.3387 Q804.9063,20.9481 805.8125,19.9169 Q806.7344,18.87 808.0781,18.3231 Q809.4219,17.7606 811.1406,17.7606 Q812.2813,17.7606 813.3281,17.995 Q814.3906,18.2137 815.4844,18.7762 L814.5156,20.8387 Q813.5938,20.4325 812.8125,20.1981 Q812.0313,19.9637 811.125,19.9637 Z " fill="#000000"/><text fill="#000000" font-family="sans-serif" font-size="20" lengthAdjust="spacing" textLength="174" x="826" y="33.38">UserPermissionID</text><line style="stroke:#181818;stroke-width:0.5;" x1="796" x2="1002" y1="44.24" y2="44.24"/><rect fill="none" height="6" style="stroke:#C82930;stroke-width:1.0;" width="6" x="803" y="60.36"/><text fill="#000000" font-family="sans-serif" font-size="20" lengthAdjust="spacing" textLength="119" x="816" y="69.62">code : string</text><line style="stroke:#181818;stroke-width:1.0;" x1="796" x2="1002" y1="79.4799" y2="79.4799"/><ellipse cx="806" cy="98.5999" fill="#84BE84" rx="3" ry="3" style="stroke:#038048;stroke-width:1.0;"/><text fill="#000000" font-family="sans-serif" font-size="20" lengthAdjust="spacing" textLength="73" x="816" y="104.8599">newID()</text><ellipse cx="806" cy="125.8399" fill="#84BE84" rx="3" ry="3" style="stroke:#038048;stroke-width:1.0;"/><text fill="#000000" font-family="sans-serif" font-size="20" lengthAdjust="spacing" textLength="86" x="816" y="132.0999">valueOf()</text></g><!--class BoardRow--><g id="elem_BoardRow"><rect codeLine="54" fill="#F1F1F1" height="107.7199" id="BoardRow" rx="2.5" ry="2.5" style="stroke:#181818;stroke-width:0.5;" width="187" x="259.5" y="215.5"/><ellipse cx="300.25" cy="234.12" fill="#ADD1B2" rx="12" ry="12" style="stroke:#181818;stroke-width:1.0;"/><path d="M300.375,228.4637 Q299.2969,228.4637 298.4375,228.8387 Q297.5781,229.1981 296.9844,229.9012 Q296.3906,230.5887 296.0625,231.6044 Q295.75,232.62 295.75,233.9169 Q295.75,235.62 296.2656,236.8544 Q296.7813,238.0731 297.7969,238.7294 Q298.8125,239.37 300.3594,239.37 Q301.2656,239.37 302.0781,239.2137 Q302.8906,239.0575 304.0781,238.6981 L304.0781,240.9012 Q303.0469,241.2762 302.1719,241.4169 Q301.2969,241.5731 300.0938,241.5731 Q297.8125,241.5731 296.2813,240.6356 Q294.75,239.6825 293.9844,237.9481 Q293.2188,236.1981 293.2188,233.9012 Q293.2188,232.2294 293.6875,230.8387 Q294.1563,229.4481 295.0625,228.4169 Q295.9844,227.37 297.3281,226.8231 Q298.6719,226.2606 300.3906,226.2606 Q301.5313,226.2606 302.5781,226.495 Q303.6406,226.7137 304.7344,227.2762 L303.7656,229.3387 Q302.8438,228.9325 302.0625,228.6981 Q301.2813,228.4637 300.375,228.4637 Z " fill="#000000"/><text fill="#000000" font-family="sans-serif" font-size="20" lengthAdjust="spacing" textLength="98" x="320.75" y="241.88">BoardRow</text><line style="stroke:#181818;stroke-width:0.5;" x1="260.5" x2="445.5" y1="252.74" y2="252.74"/><rect fill="none" height="6" style="stroke:#C82930;stroke-width:1.0;" width="6" x="267.5" y="268.86"/><text fill="#000000" font-family="sans-serif" font-size="20" lengthAdjust="spacing" textLength="113" x="280.5" y="278.12">title : string</text><rect fill="none" height="6" style="stroke:#C82930;stroke-width:1.0;" width="6" x="267.5" y="296.0999"/><text fill="#000000" font-family="sans-serif" font-size="20" lengthAdjust="spacing" textLength="160" x="280.5" y="305.3599">rowNumber : int</text><line style="stroke:#181818;stroke-width:0.5;" x1="260.5" x2="445.5" y1="315.2199" y2="315.2199"/></g><!--class BoardColumn--><g id="elem_BoardColumn"><rect codeLine="59" fill="#F1F1F1" height="107.7199" id="BoardColumn" rx="2.5" ry="2.5" style="stroke:#181818;stroke-width:0.5;" width="222" x="482" y="215.5"/><ellipse cx="522.75" cy="234.12" fill="#ADD1B2" rx="12" ry="12" style="stroke:#181818;stroke-width:1.0;"/><path d="M522.875,228.4637 Q521.7969,228.4637 520.9375,228.8387 Q520.0781,229.1981 519.4844,229.9012 Q518.8906,230.5887 518.5625,231.6044 Q518.25,232.62 518.25,233.9169 Q518.25,235.62 518.7656,236.8544 Q519.2813,238.0731 520.2969,238.7294 Q521.3125,239.37 522.8594,239.37 Q523.7656,239.37 524.5781,239.2137 Q525.3906,239.0575 526.5781,238.6981 L526.5781,240.9012 Q525.5469,241.2762 524.6719,241.4169 Q523.7969,241.5731 522.5938,241.5731 Q520.3125,241.5731 518.7813,240.6356 Q517.25,239.6825 516.4844,237.9481 Q515.7188,236.1981 515.7188,233.9012 Q515.7188,232.2294 516.1875,230.8387 Q516.6563,229.4481 517.5625,228.4169 Q518.4844,227.37 519.8281,226.8231 Q521.1719,226.2606 522.8906,226.2606 Q524.0313,226.2606 525.0781,226.495 Q526.1406,226.7137 527.2344,227.2762 L526.2656,229.3387 Q525.3438,228.9325 524.5625,228.6981 Q523.7813,228.4637 522.875,228.4637 Z " fill="#000000"/><text fill="#000000" font-family="sans-serif" font-size="20" lengthAdjust="spacing" textLength="133" x="543.25" y="241.88">BoardColumn</text><line style="stroke:#181818;stroke-width:0.5;" x1="483" x2="703" y1="252.74" y2="252.74"/><rect fill="none" height="6" style="stroke:#C82930;stroke-width:1.0;" width="6" x="490" y="268.86"/><text fill="#000000" font-family="sans-serif" font-size="20" lengthAdjust="spacing" textLength="113" x="503" y="278.12">title : string</text><rect fill="none" height="6" style="stroke:#C82930;stroke-width:1.0;" width="6" x="490" y="296.0999"/><text fill="#000000" font-family="sans-serif" font-size="20" lengthAdjust="spacing" textLength="195" x="503" y="305.3599">columnNumber : int</text><line style="stroke:#181818;stroke-width:0.5;" x1="483" x2="703" y1="315.2199" y2="315.2199"/></g><!--class Archived--><g id="elem_Archived"><rect codeLine="64" fill="#F1F1F1" height="80.4799" id="Archived" rx="2.5" ry="2.5" style="stroke:#181818;stroke-width:0.5;" width="188" x="1151" y="229.5"/><ellipse cx="1198.5" cy="248.12" fill="#ADD1B2" rx="12" ry="12" style="stroke:#181818;stroke-width:1.0;"/><path d="M1198.625,242.4637 Q1197.5469,242.4637 1196.6875,242.8387 Q1195.8281,243.1981 1195.2344,243.9012 Q1194.6406,244.5887 1194.3125,245.6044 Q1194,246.62 1194,247.9169 Q1194,249.62 1194.5156,250.8544 Q1195.0313,252.0731 1196.0469,252.7294 Q1197.0625,253.37 1198.6094,253.37 Q1199.5156,253.37 1200.3281,253.2137 Q1201.1406,253.0575 1202.3281,252.6981 L1202.3281,254.9012 Q1201.2969,255.2762 1200.4219,255.4169 Q1199.5469,255.5731 1198.3438,255.5731 Q1196.0625,255.5731 1194.5313,254.6356 Q1193,253.6825 1192.2344,251.9481 Q1191.4688,250.1981 1191.4688,247.9012 Q1191.4688,246.2294 1191.9375,244.8387 Q1192.4063,243.4481 1193.3125,242.4169 Q1194.2344,241.37 1195.5781,240.8231 Q1196.9219,240.2606 1198.6406,240.2606 Q1199.7813,240.2606 1200.8281,240.495 Q1201.8906,240.7137 1202.9844,241.2762 L1202.0156,243.3387 Q1201.0938,242.9325 1200.3125,242.6981 Q1199.5313,242.4637 1198.625,242.4637 Z " fill="#000000"/><text fill="#000000" font-family="sans-serif" font-size="20" lengthAdjust="spacing" textLength="84" x="1220.5" y="255.88">Archived</text><line style="stroke:#181818;stroke-width:0.5;" x1="1152" x2="1338" y1="266.74" y2="266.74"/><rect fill="none" height="6" style="stroke:#C82930;stroke-width:1.0;" width="6" x="1159" y="282.86"/><text fill="#000000" font-family="sans-serif" font-size="20" lengthAdjust="spacing" textLength="161" x="1172" y="292.12">archivedAt : date</text><line style="stroke:#181818;stroke-width:0.5;" x1="1152" x2="1338" y1="301.9799" y2="301.9799"/></g><!--class UserManagementService--><g id="elem_UserManagementService"><rect codeLine="68" fill="#F1F1F1" height="80.4799" id="UserManagementService" rx="2.5" ry="2.5" style="stroke:#181818;stroke-width:0.5;" width="274" x="1730" y="492.5"/><ellipse cx="1746" cy="511.12" fill="#ADD1B2" rx="12" ry="12" style="stroke:#181818;stroke-width:1.0;"/><path d="M1746.125,505.4637 Q1745.0469,505.4637 1744.1875,505.8387 Q1743.3281,506.1981 1742.7344,506.9012 Q1742.1406,507.5887 1741.8125,508.6044 Q1741.5,509.62 1741.5,510.9169 Q1741.5,512.62 1742.0156,513.8544 Q1742.5313,515.0731 1743.5469,515.7294 Q1744.5625,516.37 1746.1094,516.37 Q1747.0156,516.37 1747.8281,516.2137 Q1748.6406,516.0575 1749.8281,515.6981 L1749.8281,517.9012 Q1748.7969,518.2762 1747.9219,518.4169 Q1747.0469,518.5731 1745.8438,518.5731 Q1743.5625,518.5731 1742.0313,517.6356 Q1740.5,516.6825 1739.7344,514.9481 Q1738.9688,513.1981 1738.9688,510.9012 Q1738.9688,509.2294 1739.4375,507.8387 Q1739.9063,506.4481 1740.8125,505.4169 Q1741.7344,504.37 1743.0781,503.8231 Q1744.4219,503.2606 1746.1406,503.2606 Q1747.2813,503.2606 1748.3281,503.495 Q1749.3906,503.7137 1750.4844,504.2762 L1749.5156,506.3387 Q1748.5938,505.9325 1747.8125,505.6981 Q1747.0313,505.4637 1746.125,505.4637 Z " fill="#000000"/><text fill="#000000" font-family="sans-serif" font-size="20" lengthAdjust="spacing" textLength="240" x="1761" y="518.88">UserManagementService</text><line style="stroke:#181818;stroke-width:0.5;" x1="1731" x2="2003" y1="529.74" y2="529.74"/><line style="stroke:#181818;stroke-width:0.5;" x1="1731" x2="2003" y1="537.74" y2="537.74"/><ellipse cx="1741" cy="556.86" fill="#84BE84" rx="3" ry="3" style="stroke:#038048;stroke-width:1.0;"/><text fill="#000000" font-family="sans-serif" font-size="20" lengthAdjust="spacing" textLength="90" x="1751" y="563.12">allUsers()</text></g><!--class CreateBoardUI--><g id="elem_CreateBoardUI"><rect codeLine="72" fill="#F1F1F1" height="53.24" id="CreateBoardUI" rx="2.5" ry="2.5" style="stroke:#181818;stroke-width:0.5;" width="176" x="1643" y="48"/><ellipse cx="1659" cy="66.62" fill="#ADD1B2" rx="12" ry="12" style="stroke:#181818;stroke-width:1.0;"/><path d="M1659.125,60.9637 Q1658.0469,60.9637 1657.1875,61.3387 Q1656.3281,61.6981 1655.7344,62.4012 Q1655.1406,63.0887 1654.8125,64.1044 Q1654.5,65.12 1654.5,66.4169 Q1654.5,68.12 1655.0156,69.3544 Q1655.5313,70.5731 1656.5469,71.2294 Q1657.5625,71.87 1659.1094,71.87 Q1660.0156,71.87 1660.8281,71.7137 Q1661.6406,71.5575 1662.8281,71.1981 L1662.8281,73.4012 Q1661.7969,73.7762 1660.9219,73.9169 Q1660.0469,74.0731 1658.8438,74.0731 Q1656.5625,74.0731 1655.0313,73.1356 Q1653.5,72.1825 1652.7344,70.4481 Q1651.9688,68.6981 1651.9688,66.4012 Q1651.9688,64.7294 1652.4375,63.3387 Q1652.9063,61.9481 1653.8125,60.9169 Q1654.7344,59.87 1656.0781,59.3231 Q1657.4219,58.7606 1659.1406,58.7606 Q1660.2813,58.7606 1661.3281,58.995 Q1662.3906,59.2137 1663.4844,59.7762 L1662.5156,61.8387 Q1661.5938,61.4325 1660.8125,61.1981 Q1660.0313,60.9637 1659.125,60.9637 Z " fill="#000000"/><text fill="#000000" font-family="sans-serif" font-size="20" lengthAdjust="spacing" textLength="142" x="1674" y="74.38">CreateBoardUI</text><line style="stroke:#181818;stroke-width:0.5;" x1="1644" x2="1818" y1="85.24" y2="85.24"/><line style="stroke:#181818;stroke-width:0.5;" x1="1644" x2="1818" y1="93.24" y2="93.24"/></g><!--class CreateBoardController--><g id="elem_CreateBoardController"><rect codeLine="74" fill="#F1F1F1" height="107.7199" id="CreateBoardController" rx="2.5" ry="2.5" style="stroke:#181818;stroke-width:0.5;" width="252" x="1605" y="215.5"/><ellipse cx="1621" cy="234.12" fill="#ADD1B2" rx="12" ry="12" style="stroke:#181818;stroke-width:1.0;"/><path d="M1621.125,228.4637 Q1620.0469,228.4637 1619.1875,228.8387 Q1618.3281,229.1981 1617.7344,229.9012 Q1617.1406,230.5887 1616.8125,231.6044 Q1616.5,232.62 1616.5,233.9169 Q1616.5,235.62 1617.0156,236.8544 Q1617.5313,238.0731 1618.5469,238.7294 Q1619.5625,239.37 1621.1094,239.37 Q1622.0156,239.37 1622.8281,239.2137 Q1623.6406,239.0575 1624.8281,238.6981 L1624.8281,240.9012 Q1623.7969,241.2762 1622.9219,241.4169 Q1622.0469,241.5731 1620.8438,241.5731 Q1618.5625,241.5731 1617.0313,240.6356 Q1615.5,239.6825 1614.7344,237.9481 Q1613.9688,236.1981 1613.9688,233.9012 Q1613.9688,232.2294 1614.4375,230.8387 Q1614.9063,229.4481 1615.8125,228.4169 Q1616.7344,227.37 1618.0781,226.8231 Q1619.4219,226.2606 1621.1406,226.2606 Q1622.2813,226.2606 1623.3281,226.495 Q1624.3906,226.7137 1625.4844,227.2762 L1624.5156,229.3387 Q1623.5938,228.9325 1622.8125,228.6981 Q1622.0313,228.4637 1621.125,228.4637 Z " fill="#000000"/><text fill="#000000" font-family="sans-serif" font-size="20" lengthAdjust="spacing" textLength="218" x="1636" y="241.88">CreateBoardController</text><line style="stroke:#181818;stroke-width:0.5;" x1="1606" x2="1856" y1="252.74" y2="252.74"/><line style="stroke:#181818;stroke-width:0.5;" x1="1606" x2="1856" y1="260.74" y2="260.74"/><ellipse cx="1616" cy="279.86" fill="#84BE84" rx="3" ry="3" style="stroke:#038048;stroke-width:1.0;"/><text fill="#000000" font-family="sans-serif" font-size="20" lengthAdjust="spacing" textLength="129" x="1626" y="286.12">createBoard()</text><ellipse cx="1616" cy="307.0999" fill="#84BE84" rx="3" ry="3" style="stroke:#038048;stroke-width:1.0;"/><text fill="#000000" font-family="sans-serif" font-size="20" lengthAdjust="spacing" textLength="112" x="1626" y="313.3599">saveBoard()</text></g><!--class User--><g id="elem_User"><rect codeLine="79" fill="#F1F1F1" height="53.24" id="User" rx="2.5" ry="2.5" style="stroke:#181818;stroke-width:0.5;" width="79" x="1045.5" y="48"/><ellipse cx="1061.5" cy="66.62" fill="#ADD1B2" rx="12" ry="12" style="stroke:#181818;stroke-width:1.0;"/><path d="M1061.625,60.9637 Q1060.5469,60.9637 1059.6875,61.3387 Q1058.8281,61.6981 1058.2344,62.4012 Q1057.6406,63.0887 1057.3125,64.1044 Q1057,65.12 1057,66.4169 Q1057,68.12 1057.5156,69.3544 Q1058.0313,70.5731 1059.0469,71.2294 Q1060.0625,71.87 1061.6094,71.87 Q1062.5156,71.87 1063.3281,71.7137 Q1064.1406,71.5575 1065.3281,71.1981 L1065.3281,73.4012 Q1064.2969,73.7762 1063.4219,73.9169 Q1062.5469,74.0731 1061.3438,74.0731 Q1059.0625,74.0731 1057.5313,73.1356 Q1056,72.1825 1055.2344,70.4481 Q1054.4688,68.6981 1054.4688,66.4012 Q1054.4688,64.7294 1054.9375,63.3387 Q1055.4063,61.9481 1056.3125,60.9169 Q1057.2344,59.87 1058.5781,59.3231 Q1059.9219,58.7606 1061.6406,58.7606 Q1062.7813,58.7606 1063.8281,58.995 Q1064.8906,59.2137 1065.9844,59.7762 L1065.0156,61.8387 Q1064.0938,61.4325 1063.3125,61.1981 Q1062.5313,60.9637 1061.625,60.9637 Z " fill="#000000"/><text fill="#000000" font-family="sans-serif" font-size="20" lengthAdjust="spacing" textLength="45" x="1076.5" y="74.38">User</text><line style="stroke:#181818;stroke-width:0.5;" x1="1046.5" x2="1123.5" y1="85.24" y2="85.24"/><line style="stroke:#181818;stroke-width:0.5;" x1="1046.5" x2="1123.5" y1="93.24" y2="93.24"/></g><!--class BoardRepository--><g id="elem_BoardRepository"><rect codeLine="83" fill="#F1F1F1" height="80.4799" id="BoardRepository" rx="2.5" ry="2.5" style="stroke:#181818;stroke-width:0.5;" width="195" x="1374.5" y="229.5"/><ellipse cx="1390.5" cy="248.12" fill="#ADD1B2" rx="12" ry="12" style="stroke:#181818;stroke-width:1.0;"/><path d="M1390.625,242.4637 Q1389.5469,242.4637 1388.6875,242.8387 Q1387.8281,243.1981 1387.2344,243.9012 Q1386.6406,244.5887 1386.3125,245.6044 Q1386,246.62 1386,247.9169 Q1386,249.62 1386.5156,250.8544 Q1387.0313,252.0731 1388.0469,252.7294 Q1389.0625,253.37 1390.6094,253.37 Q1391.5156,253.37 1392.3281,253.2137 Q1393.1406,253.0575 1394.3281,252.6981 L1394.3281,254.9012 Q1393.2969,255.2762 1392.4219,255.4169 Q1391.5469,255.5731 1390.3438,255.5731 Q1388.0625,255.5731 1386.5313,254.6356 Q1385,253.6825 1384.2344,251.9481 Q1383.4688,250.1981 1383.4688,247.9012 Q1383.4688,246.2294 1383.9375,244.8387 Q1384.4063,243.4481 1385.3125,242.4169 Q1386.2344,241.37 1387.5781,240.8231 Q1388.9219,240.2606 1390.6406,240.2606 Q1391.7813,240.2606 1392.8281,240.495 Q1393.8906,240.7137 1394.9844,241.2762 L1394.0156,243.3387 Q1393.0938,242.9325 1392.3125,242.6981 Q1391.5313,242.4637 1390.625,242.4637 Z " fill="#000000"/><text fill="#000000" font-family="sans-serif" font-size="20" lengthAdjust="spacing" textLength="161" x="1405.5" y="255.88">BoardRepository</text><line style="stroke:#181818;stroke-width:0.5;" x1="1375.5" x2="1568.5" y1="266.74" y2="266.74"/><line style="stroke:#181818;stroke-width:0.5;" x1="1375.5" x2="1568.5" y1="274.74" y2="274.74"/><ellipse cx="1385.5" cy="293.86" fill="#84BE84" rx="3" ry="3" style="stroke:#038048;stroke-width:1.0;"/><text fill="#000000" font-family="sans-serif" font-size="20" lengthAdjust="spacing" textLength="54" x="1395.5" y="300.12">save()</text></g><!--link BoardID to Board--><g id="link_BoardID_Board"><path codeLine="87" d="M153.01,322.82 C161.87,328.03 170.98,332.9 180,337 C391.6,433.21 660.82,490.73 799.76,516.09 " fill="none" id="BoardID-to-Board" style="stroke:#181818;stroke-width:1.0;"/><polygon fill="none" points="812.79,518.44,807.592,513.4419,800.9792,516.3177,806.1772,521.3158,812.79,518.44" style="stroke:#181818;stroke-width:1.0;"/></g><!--link BoardColumn to Board--><g id="link_BoardColumn_Board"><path codeLine="88" d="M653.87,323.63 C696.67,360.99 754.64,411.6 802.67,453.52 " fill="none" id="BoardColumn-to-Board" style="stroke:#181818;stroke-width:1.0;"/><polygon fill="none" points="812.76,462.33,810.8656,455.3722,803.7144,454.4448,805.6088,461.4026,812.76,462.33" style="stroke:#181818;stroke-width:1.0;"/></g><!--link BoardRow to Board--><g id="link_BoardRow_Board"><path codeLine="89" d="M439.42,323.55 C447.66,328.22 455.94,332.77 464,337 C577.55,396.57 712.93,456.28 800.58,493.52 " fill="none" id="BoardRow-to-Board" style="stroke:#181818;stroke-width:1.0;"/><polygon fill="none" points="812.62,498.62,808.6556,492.5964,801.5706,493.9392,805.535,499.9627,812.62,498.62" style="stroke:#181818;stroke-width:1.0;"/></g><!--link UserPermission to Board--><g id="link_UserPermission_Board"><path codeLine="90" d="M892,323.63 C892,348.87 892,380.14 892,410.71 " fill="none" id="UserPermission-to-Board" style="stroke:#181818;stroke-width:1.0;"/><polygon fill="none" points="892,423.74,896,417.74,892,411.74,888,417.74,892,423.74" style="stroke:#181818;stroke-width:1.0;"/></g><!--link Title to Board--><g id="link_Title_Board"><path codeLine="91" d="M305.08,114.67 C281.21,137.35 254.77,168.09 242,202 C220.86,258.15 206.17,288.88 242,337 C309.12,427.15 637.36,490.98 800.13,517.63 " fill="none" id="Title-to-Board" style="stroke:#181818;stroke-width:1.0;"/><polygon fill="none" points="812.98,519.71,807.6997,514.799,801.1355,517.7843,806.4159,522.6953,812.98,519.71" style="stroke:#181818;stroke-width:1.0;"/></g><!--link Archived to Board--><g id="link_Archived_Board"><path codeLine="92" d="M1192.15,309.57 C1136.56,350.68 1048.08,416.1 981.56,465.28 " fill="none" id="Archived-to-Board" style="stroke:#181818;stroke-width:1.0;"/><polygon fill="none" points="971.08,473.03,978.2826,472.6806,980.7304,465.8977,973.5278,466.247,971.08,473.03" style="stroke:#181818;stroke-width:1.0;"/></g><!--link User to Board--><g id="link_User_Board"><path codeLine="93" d="M1087.84,101.27 C1092.1,149.66 1096.32,256.51 1062,337 C1043.51,380.37 1011.54,420.92 980.28,453.65 " fill="none" id="User-to-Board" style="stroke:#181818;stroke-width:1.0;"/><polygon fill="none" points="971.05,463.11,978.103,461.6081,979.4292,454.52,972.3763,456.0219,971.05,463.11" style="stroke:#181818;stroke-width:1.0;"/></g><!--link Title to BoardColumn--><g id="link_Title_BoardColumn"><path codeLine="95" d="M401.57,114.56 C434.49,141.04 478.7,176.59 516.34,206.85 " fill="none" id="Title-to-BoardColumn" style="stroke:#181818;stroke-width:1.0;"/><polygon fill="none" points="526.77,215.24,524.6001,208.3631,517.4176,207.7212,519.5875,214.598,526.77,215.24" style="stroke:#181818;stroke-width:1.0;"/></g><!--link Title to BoardRow--><g id="link_Title_BoardRow"><path codeLine="96" d="M353,114.56 C353,139.68 353,172.96 353,202.16 " fill="none" id="Title-to-BoardRow" style="stroke:#181818;stroke-width:1.0;"/><polygon fill="none" points="353,215.24,357,209.24,353,203.24,349,209.24,353,215.24" style="stroke:#181818;stroke-width:1.0;"/></g><!--link User to UserPermission--><g id="link_User_UserPermission"><path codeLine="98" d="M1060.1,101.18 C1048.04,113.57 1033.32,128.61 1020,142 C999.08,163.04 976.07,185.87 955.39,206.28 " fill="none" id="User-to-UserPermission" style="stroke:#181818;stroke-width:1.0;"/><polygon fill="none" points="946.08,215.47,953.1608,214.1053,954.6244,207.0443,947.5436,208.409,946.08,215.47" style="stroke:#181818;stroke-width:1.0;"/></g><!--link PermissionType to UserPermission--><g id="link_PermissionType_UserPermission"><path codeLine="99" d="M727.63,128.75 C756.04,152.9 789.81,181.61 819.33,206.71 " fill="none" id="PermissionType-to-UserPermission" style="stroke:#181818;stroke-width:1.0;"/><polygon fill="none" points="829.57,215.42,827.5945,208.4848,820.4329,207.6409,822.4084,214.5762,829.57,215.42" style="stroke:#181818;stroke-width:1.0;"/></g><!--link UserPermissionID to UserPermission--><g id="link_UserPermissionID_UserPermission"><path codeLine="100" d="M896.58,142.19 C895.88,161.58 895.11,182.74 894.41,202.11 " fill="none" id="UserPermissionID-to-UserPermission" style="stroke:#181818;stroke-width:1.0;"/><polygon fill="none" points="893.93,215.19,898.145,209.3391,894.3654,203.1979,890.1503,209.0488,893.93,215.19" style="stroke:#181818;stroke-width:1.0;"/></g><!--link BoardRepository to Board--><g id="link_BoardRepository_Board"><path codeLine="102" d="M1407.12,309.57 C1390.66,318.96 1372.86,328.67 1356,337 C1226.23,401.09 1070.05,463.7 976.02,499.9 " fill="none" id="BoardRepository-to-Board" style="stroke:#181818;stroke-width:1.0;stroke-dasharray:7.0,7.0;"/><polygon fill="#181818" points="971.32,501.71,981.1563,502.2065,975.9856,499.9122,978.2799,494.7415,971.32,501.71" style="stroke:#181818;stroke-width:1.0;"/></g><!--link CreateBoardUI to CreateBoardController--><g id="link_CreateBoardUI_CreateBoardController"><path codeLine="104" d="M1731,101.13 C1731,128.79 1731,173.76 1731,210.12 " fill="none" id="CreateBoardUI-to-CreateBoardController" style="stroke:#181818;stroke-width:1.0;stroke-dasharray:7.0,7.0;"/><polygon fill="#181818" points="1731,215.42,1735,206.42,1731,210.42,1727,206.42,1731,215.42" style="stroke:#181818;stroke-width:1.0;"/></g><!--link CreateBoardController to Board--><g id="link_CreateBoardController_Board"><path codeLine="105" d="M1620.9,323.51 C1609.55,328.32 1598.11,332.91 1587,337 C1371.51,416.33 1108.37,481.76 976.24,512.53 " fill="none" id="CreateBoardController-to-Board" style="stroke:#181818;stroke-width:1.0;stroke-dasharray:7.0,7.0;"/><polygon fill="#181818" points="971.21,513.7,980.8818,515.5593,976.0803,512.5684,979.0712,507.7669,971.21,513.7" style="stroke:#181818;stroke-width:1.0;"/></g><!--link CreateBoardController to UserManagementService--><g id="link_CreateBoardController_UserManagementService"><path codeLine="106" d="M1758.69,323.63 C1783.91,372.05 1820.73,442.7 1844.28,487.89 " fill="none" id="CreateBoardController-to-UserManagementService" style="stroke:#181818;stroke-width:1.0;stroke-dasharray:7.0,7.0;"/><polygon fill="#181818" points="1846.65,492.45,1846.0267,482.6209,1844.3342,488.0186,1838.9365,486.3261,1846.65,492.45" style="stroke:#181818;stroke-width:1.0;"/></g><!--link CreateBoardController to BoardBuilder--><g id="link_CreateBoardController_BoardBuilder"><path codeLine="107" d="M1703.31,323.63 C1692.79,343.84 1680.24,367.92 1667.48,392.4 " fill="none" id="CreateBoardController-to-BoardBuilder" style="stroke:#181818;stroke-width:1.0;stroke-dasharray:7.0,7.0;"/><polygon fill="#181818" points="1665.1,396.97,1672.8135,390.8461,1667.4158,392.5386,1665.7233,387.1409,1665.1,396.97" style="stroke:#181818;stroke-width:1.0;"/></g><!--SRC=[fLInJiCm4Dtz5Hv1LH1YP40gBKWTeAYqOdQJ0wmwTcGxYKh5ltEEtJengHYOwdjtz-xv_5Apux9YcfL2vJieQ07lh1RsKKdxoh-0tbmJObL5hQ9RPQqgQS4rv9OhIGZ91JE6tYkc2teWb4uijm8kBjsHwVoJDr3uIAlM-5EkH5tA45IWIsuCiWL0jH8q7hy7vFSr5mNeRaQ6GjoyMvzoI9QvrfRRptMSxyBfG8D3LYSTBfhrjJZW9TNZm6NGXE7M2VabRp4Fod9L00epLdFv4PL9Q1TpJz0mKSFolK_HQGu4tVuY0zQ0h4iQPQttbQzTFKpd-FEsMgmV8jV6W8x5WRH643bThelZqX4TKfzZ-jyDkoNXviSlwI2qntDTRZkTNDgarJ_J-MvlgN62emL2zz6LKuk51RF9ZP-OP1zG0heVTCDpl-i94y9bJVzICmtOtkdRBEY1ZYLc-1bf9KImxYIFARyimvfJE11o8Edwe5A6MwNtdifr-gQZ1RDCXK-YlxG4TQyGeSGkCU4z6UFJ5eUzlJ1jyUDJ5CUJs3aSJnANZrJyCkL83KdNTNLrTzGuV3EN67qiClw4aUXyVjH4V_65lpVo0m00]--></g></svg>