<?xml version="1.0" encoding="UTF-8" standalone="no"?><svg xmlns="http://www.w3.org/2000/svg" xmlns:xlink="http://www.w3.org/1999/xlink" contentStyleType="text/css" height="709px" preserveAspectRatio="none" style="width:1153px;height:709px;background:#FFFFFF;" version="1.1" viewBox="0 0 1153 709" width="1153px" zoomAndPan="magnify"><defs/><g><!--cluster <<aggregate>> Board--><g id="cluster_&lt;&lt;aggregate&gt;&gt; Board"><path d="M8.5,8.36 L195.5,8.36 A3.75,3.75 0 0 1 198,10.86 L205,41.6 L930.5,41.6 A2.5,2.5 0 0 1 933,44.1 L933,574.86 A2.5,2.5 0 0 1 930.5,577.36 L8.5,577.36 A2.5,2.5 0 0 1 6,574.86 L6,10.86 A2.5,2.5 0 0 1 8.5,8.36 " fill="none" style="stroke:#000000;stroke-width:1.5;"/><line style="stroke:#000000;stroke-width:1.5;" x1="6" x2="205" y1="41.6" y2="41.6"/><text fill="#000000" font-family="sans-serif" font-size="20" font-weight="bold" lengthAdjust="spacing" textLength="186" x="10" y="31.74">«aggregate» Board</text></g><!--cluster <<aggregate>> User--><g id="cluster_&lt;&lt;aggregate&gt;&gt; User"><path d="M959.5,437.36 L1133.875,437.36 A3.75,3.75 0 0 1 1136.375,439.86 L1143.375,470.6 L1143.5,470.6 A2.5,2.5 0 0 1 1146,473.1 L1146,588.86 A2.5,2.5 0 0 1 1143.5,591.36 L959.5,591.36 A2.5,2.5 0 0 1 957,588.86 L957,439.86 A2.5,2.5 0 0 1 959.5,437.36 " fill="none" style="stroke:#000000;stroke-width:1.5;"/><line style="stroke:#000000;stroke-width:1.5;" x1="957" x2="1143.375" y1="470.6" y2="470.6"/><text fill="#000000" font-family="sans-serif" font-size="20" font-weight="bold" lengthAdjust="spacing" textLength="173.375" x="961" y="460.74">«aggregate» User</text></g><!--class Board--><g id="elem_Board"><rect codeLine="29" fill="#F5F5DC" height="91.7199" id="Board" rx="2.5" ry="2.5" style="stroke:#181818;stroke-width:0.5;" width="100" x="519" y="54.36"/><ellipse cx="535" cy="100.22" fill="#ADD1B2" rx="12" ry="12" style="stroke:#181818;stroke-width:1.0;"/><path d="M539.0469,107.72 L530.4375,107.72 L530.4375,92.8137 L539.0469,92.8137 L539.0469,95.0168 L532.8594,95.0168 L532.8594,98.8606 L538.6875,98.8606 L538.6875,101.0325 L532.8594,101.0325 L532.8594,105.5168 L539.0469,105.5168 L539.0469,107.72 Z " fill="#000000"/><text fill="#000000" font-family="sans-serif" font-size="20" font-style="italic" lengthAdjust="spacing" textLength="70" x="548" y="80.74">«entity»</text><text fill="#000000" font-family="sans-serif" font-size="20" font-style="italic" lengthAdjust="spacing" textLength="57" x="554.5" y="107.9799">«root»</text><text fill="#000000" font-family="sans-serif" font-size="20" lengthAdjust="spacing" textLength="56" x="555" y="135.2199">Board</text></g><!--class Title--><g id="elem_Title"><rect codeLine="40" fill="#F5F5DC" height="64.4799" id="Title" rx="2.5" ry="2.5" style="stroke:#181818;stroke-width:0.5;" width="156" x="205" y="497.36"/><ellipse cx="221" cy="529.6" fill="#FF8B40" rx="12" ry="12" style="stroke:#181818;stroke-width:1.0;"/><path d="M227.25,523.4437 L221.9375,538.35 L219.6875,538.35 L214.375,523.4437 L216.9063,523.4437 L220.2031,532.8031 Q220.4219,533.3968 220.5781,533.9437 Q220.75,534.4906 220.875,534.9906 Q221.0156,535.475 220.8125,535.5218 Q220.5938,535.4906 220.7344,534.975 Q220.875,534.4593 221.0469,533.9281 Q221.2188,533.3812 221.4219,532.7718 L224.6875,523.4437 L227.25,523.4437 Z " fill="#000000"/><text fill="#000000" font-family="sans-serif" font-size="20" font-style="italic" lengthAdjust="spacing" textLength="126" x="234" y="523.74">«value object»</text><text fill="#000000" font-family="sans-serif" font-size="20" lengthAdjust="spacing" textLength="39" x="277.5" y="550.9799">Title</text></g><!--class Column--><g id="elem_Column"><rect codeLine="32" fill="#F5F5DC" height="99.7199" id="Column" rx="2.5" ry="2.5" style="stroke:#181818;stroke-width:0.5;" width="107" x="266.5" y="248.86"/><ellipse cx="282.5" cy="281.1" fill="#ADD1B2" rx="12" ry="12" style="stroke:#181818;stroke-width:1.0;"/><path d="M286.5469,288.6 L277.9375,288.6 L277.9375,273.6937 L286.5469,273.6937 L286.5469,275.8968 L280.3594,275.8968 L280.3594,279.7406 L286.1875,279.7406 L286.1875,281.9125 L280.3594,281.9125 L280.3594,286.3968 L286.5469,286.3968 L286.5469,288.6 Z " fill="#000000"/><text fill="#000000" font-family="sans-serif" font-size="20" font-style="italic" lengthAdjust="spacing" textLength="70" x="299" y="275.24">«entity»</text><text fill="#000000" font-family="sans-serif" font-size="20" lengthAdjust="spacing" textLength="73" x="297.5" y="302.4799">Column</text><line style="stroke:#181818;stroke-width:0.5;" x1="267.5" x2="372.5" y1="313.3399" y2="313.3399"/><text fill="#000000" font-family="sans-serif" font-size="20" lengthAdjust="spacing" textLength="80" x="272.5" y="338.7199">-number</text></g><!--class Row--><g id="elem_Row"><rect codeLine="36" fill="#F5F5DC" height="99.7199" id="Row" rx="2.5" ry="2.5" style="stroke:#181818;stroke-width:0.5;" width="100" x="409" y="248.86"/><ellipse cx="425" cy="281.1" fill="#ADD1B2" rx="12" ry="12" style="stroke:#181818;stroke-width:1.0;"/><path d="M429.0469,288.6 L420.4375,288.6 L420.4375,273.6937 L429.0469,273.6937 L429.0469,275.8968 L422.8594,275.8968 L422.8594,279.7406 L428.6875,279.7406 L428.6875,281.9125 L422.8594,281.9125 L422.8594,286.3968 L429.0469,286.3968 L429.0469,288.6 Z " fill="#000000"/><text fill="#000000" font-family="sans-serif" font-size="20" font-style="italic" lengthAdjust="spacing" textLength="70" x="438" y="275.24">«entity»</text><text fill="#000000" font-family="sans-serif" font-size="20" lengthAdjust="spacing" textLength="40" x="453" y="302.4799">Row</text><line style="stroke:#181818;stroke-width:0.5;" x1="410" x2="508" y1="313.3399" y2="313.3399"/><text fill="#000000" font-family="sans-serif" font-size="20" lengthAdjust="spacing" textLength="80" x="415" y="338.7199">-number</text></g><!--class Archived--><g id="elem_Archived"><rect codeLine="42" fill="#F5F5DC" height="99.7199" id="Archived" rx="2.5" ry="2.5" style="stroke:#181818;stroke-width:0.5;" width="156" x="544" y="248.86"/><ellipse cx="560" cy="281.1" fill="#FF8B40" rx="12" ry="12" style="stroke:#181818;stroke-width:1.0;"/><path d="M566.25,274.9437 L560.9375,289.85 L558.6875,289.85 L553.375,274.9437 L555.9063,274.9437 L559.2031,284.3031 Q559.4219,284.8968 559.5781,285.4437 Q559.75,285.9906 559.875,286.4906 Q560.0156,286.975 559.8125,287.0218 Q559.5938,286.9906 559.7344,286.475 Q559.875,285.9593 560.0469,285.4281 Q560.2188,284.8812 560.4219,284.2718 L563.6875,274.9437 L566.25,274.9437 Z " fill="#000000"/><text fill="#000000" font-family="sans-serif" font-size="20" font-style="italic" lengthAdjust="spacing" textLength="126" x="573" y="275.24">«value object»</text><text fill="#000000" font-family="sans-serif" font-size="20" lengthAdjust="spacing" textLength="81" x="595.5" y="302.4799">Archived</text><line style="stroke:#181818;stroke-width:0.5;" x1="545" x2="699" y1="313.3399" y2="313.3399"/><text fill="#000000" font-family="sans-serif" font-size="20" lengthAdjust="spacing" textLength="105" x="550" y="338.7199">-archivedAt</text></g><!--class UserPermission--><g id="elem_UserPermission"><rect codeLine="46" fill="#F5F5DC" height="126.9599" id="UserPermission" rx="2.5" ry="2.5" style="stroke:#181818;stroke-width:0.5;" width="182" x="735" y="235.36"/><ellipse cx="751" cy="267.6" fill="#ADD1B2" rx="12" ry="12" style="stroke:#181818;stroke-width:1.0;"/><path d="M755.0469,275.1 L746.4375,275.1 L746.4375,260.1937 L755.0469,260.1937 L755.0469,262.3968 L748.8594,262.3968 L748.8594,266.2406 L754.6875,266.2406 L754.6875,268.4125 L748.8594,268.4125 L748.8594,272.8968 L755.0469,272.8968 L755.0469,275.1 Z " fill="#000000"/><text fill="#000000" font-family="sans-serif" font-size="20" font-style="italic" lengthAdjust="spacing" textLength="70" x="805" y="261.74">«entity»</text><text fill="#000000" font-family="sans-serif" font-size="20" lengthAdjust="spacing" textLength="148" x="766" y="288.9799">UserPermission</text><line style="stroke:#181818;stroke-width:0.5;" x1="736" x2="916" y1="299.8399" y2="299.8399"/><text fill="#000000" font-family="sans-serif" font-size="20" lengthAdjust="spacing" textLength="96" x="741" y="325.2199">-createdAt</text><text fill="#000000" font-family="sans-serif" font-size="20" lengthAdjust="spacing" textLength="103" x="741" y="352.4599">-updatedAt</text></g><!--class PermissionType--><g id="elem_PermissionType"><rect codeLine="51" fill="#F5F5DC" height="64.4799" id="PermissionType" rx="2.5" ry="2.5" style="stroke:#181818;stroke-width:0.5;" width="182" x="734" y="497.36"/><ellipse cx="750" cy="529.6" fill="#FF8B40" rx="12" ry="12" style="stroke:#181818;stroke-width:1.0;"/><path d="M756.25,523.4437 L750.9375,538.35 L748.6875,538.35 L743.375,523.4437 L745.9063,523.4437 L749.2031,532.8031 Q749.4219,533.3968 749.5781,533.9437 Q749.75,534.4906 749.875,534.9906 Q750.0156,535.475 749.8125,535.5218 Q749.5938,535.4906 749.7344,534.975 Q749.875,534.4593 750.0469,533.9281 Q750.2188,533.3812 750.4219,532.7718 L753.6875,523.4437 L756.25,523.4437 Z " fill="#000000"/><text fill="#000000" font-family="sans-serif" font-size="20" font-style="italic" lengthAdjust="spacing" textLength="126" x="776" y="523.74">«value object»</text><text fill="#000000" font-family="sans-serif" font-size="20" lengthAdjust="spacing" textLength="148" x="765" y="550.9799">PermissionType</text></g><!--class User--><g id="elem_User"><rect codeLine="26" fill="#F5F5DC" height="91.7199" id="User" rx="2.5" ry="2.5" style="stroke:#181818;stroke-width:0.5;" width="100" x="973" y="483.36"/><ellipse cx="989" cy="529.22" fill="#ADD1B2" rx="12" ry="12" style="stroke:#181818;stroke-width:1.0;"/><path d="M993.0469,536.72 L984.4375,536.72 L984.4375,521.8137 L993.0469,521.8137 L993.0469,524.0168 L986.8594,524.0168 L986.8594,527.8606 L992.6875,527.8606 L992.6875,530.0325 L986.8594,530.0325 L986.8594,534.5168 L993.0469,534.5168 L993.0469,536.72 Z " fill="#000000"/><text fill="#000000" font-family="sans-serif" font-size="20" font-style="italic" lengthAdjust="spacing" textLength="70" x="1002" y="509.74">«entity»</text><text fill="#000000" font-family="sans-serif" font-size="20" font-style="italic" lengthAdjust="spacing" textLength="57" x="1008.5" y="536.9799">«root»</text><text fill="#000000" font-family="sans-serif" font-size="20" lengthAdjust="spacing" textLength="44" x="1015" y="564.2199">User</text></g><g id="elem_GMN12"><path d="M784.5,638.36 L784.5,702.8399 A0,0 0 0 0 784.5,702.8399 L865.5,702.8399 A0,0 0 0 0 865.5,702.8399 L865.5,648.36 L855.5,638.36 L829,638.36 L825,561.55 L821,638.36 L784.5,638.36 A0,0 0 0 0 784.5,638.36 " fill="#FEFFDD" style="stroke:#181818;stroke-width:0.5;"/><path d="M855.5,638.36 L855.5,648.36 L865.5,648.36 L855.5,638.36 " fill="#FEFFDD" style="stroke:#181818;stroke-width:0.5;"/><text fill="#000000" font-family="sans-serif" font-size="20" lengthAdjust="spacing" textLength="51" x="790.5" y="664.74">READ</text><text fill="#000000" font-family="sans-serif" font-size="20" lengthAdjust="spacing" textLength="60" x="790.5" y="691.9799">WRITE</text></g><!--link Board to Title--><g id="link_Board_Title"><path codeLine="59" d="M518.52,107.14 C403.45,121.49 127.59,162.9 75,235.36 C41.84,281.04 50.52,311.5 75,362.36 C103.36,421.28 163.95,465.8 212.45,493.82 " fill="none" id="Board-to-Title" style="stroke:#222222;stroke-width:1.0;"/><polygon fill="#222222" points="216.69,496.24,210.866,488.2976,212.3505,493.7562,206.892,495.2408,216.69,496.24" style="stroke:#222222;stroke-width:1.0;"/><text fill="#000000" font-family="sans-serif" font-size="20" lengthAdjust="spacing" textLength="172" x="76" y="306.74">is characterized by</text><text fill="#000000" font-family="sans-serif" font-size="20" lengthAdjust="spacing" textLength="11" x="194.8945" y="483.4654">1</text></g><!--reverse link Board to Column--><g id="link_Board_Column"><path codeLine="60" d="M504.48,108.46 C425.94,118.58 300.26,140.07 272,176.36 C255.56,197.47 264.47,224.94 278.86,248.41 " fill="none" id="Board-backto-Column" style="stroke:#222222;stroke-width:1.0;"/><polygon fill="#222222" points="517.06,106.89,510.6098,103.666,505.1529,108.38,511.6031,111.6041,517.06,106.89" style="stroke:#222222;stroke-width:1.0;"/><text fill="#000000" font-family="sans-serif" font-size="20" lengthAdjust="spacing" textLength="167" x="273" y="198.74">has a collection of</text><text fill="#000000" font-family="sans-serif" font-size="20" lengthAdjust="spacing" textLength="32" x="239.8961" y="235.0278">1..*</text></g><!--reverse link Board to Row--><g id="link_Board_Row"><path codeLine="61" d="M506.1,129.09 C487.16,140.78 468.61,156.39 458,176.36 C446.42,198.16 445.64,225.41 448.2,248.58 " fill="none" id="Board-backto-Row" style="stroke:#222222;stroke-width:1.0;"/><polygon fill="#222222" points="517.21,122.72,510.015,122.2386,506.8033,128.695,513.9983,129.1764,517.21,122.72" style="stroke:#222222;stroke-width:1.0;"/><text fill="#000000" font-family="sans-serif" font-size="20" lengthAdjust="spacing" textLength="167" x="459" y="198.74">has a collection of</text><text fill="#000000" font-family="sans-serif" font-size="20" lengthAdjust="spacing" textLength="32" x="412.7663" y="234.8215">1..*</text></g><!--reverse link Board to UserPermission--><g id="link_Board_UserPermission"><path codeLine="62" d="M630.62,148.47 C664.54,174.41 707.07,206.93 743.78,235 " fill="none" id="Board-backto-UserPermission" style="stroke:#222222;stroke-width:1.0;"/><polygon fill="#222222" points="620.67,140.87,623.0056,147.6924,630.2015,148.1604,627.8659,141.338,620.67,140.87" style="stroke:#222222;stroke-width:1.0;"/><text fill="#000000" font-family="sans-serif" font-size="20" lengthAdjust="spacing" textLength="167" x="699" y="198.74">has a collection of</text><text fill="#000000" font-family="sans-serif" font-size="20" lengthAdjust="spacing" textLength="32" x="701.6511" y="221.4167">0..*</text></g><!--link UserPermission to PermissionType--><g id="link_UserPermission_PermissionType"><path codeLine="64" d="M822.92,362.54 C822.54,372.51 822.21,382.72 822,392.36 C821.28,425.59 822.26,463.38 823.29,490.67 " fill="none" id="UserPermission-to-PermissionType" style="stroke:#222222;stroke-width:1.0;"/><polygon fill="#222222" points="823.47,495.52,827.1071,486.3673,823.2702,490.524,819.1135,486.6871,823.47,495.52" style="stroke:#222222;stroke-width:1.0;"/><text fill="#000000" font-family="sans-serif" font-size="20" lengthAdjust="spacing" textLength="33" x="823" y="414.74">has</text><text fill="#000000" font-family="sans-serif" font-size="20" lengthAdjust="spacing" textLength="11" x="811.332" y="483.5123">1</text></g><!--link UserPermission to User--><g id="link_UserPermission_User"><path codeLine="65" d="M850.15,362.6 C861.36,384.18 876.77,406.6 897,421.36 C910.24,431.02 918.82,421.13 933,429.36 C953.93,441.51 972.74,460.17 987.68,478.03 " fill="none" id="UserPermission-to-User" style="stroke:#222222;stroke-width:1.0;"/><polygon fill="#222222" points="990.83,481.87,988.221,472.373,987.6615,478.0021,982.0324,477.4426,990.83,481.87" style="stroke:#222222;stroke-width:1.0;"/><text fill="#000000" font-family="sans-serif" font-size="20" lengthAdjust="spacing" textLength="98" x="898" y="414.74">belongs to</text><text fill="#000000" font-family="sans-serif" font-size="20" lengthAdjust="spacing" textLength="11" x="975.8571" y="469.4166">1</text></g><!--link Row to Title--><g id="link_Row_Title"><path codeLine="67" d="M450.18,349.32 C444.33,372.66 434.89,400.01 420,421.36 C399.84,450.25 369.59,475.04 342.63,493.46 " fill="none" id="Row-to-Title" style="stroke:#222222;stroke-width:1.0;"/><polygon fill="#222222" points="338.55,496.21,348.2506,494.5074,342.6992,493.42,343.7866,487.8686,338.55,496.21" style="stroke:#222222;stroke-width:1.0;"/><text fill="#000000" font-family="sans-serif" font-size="20" lengthAdjust="spacing" textLength="134" x="437" y="414.74">is identified by</text><text fill="#000000" font-family="sans-serif" font-size="20" lengthAdjust="spacing" textLength="11" x="334.6758" y="483.5475">1</text></g><!--link Column to Title--><g id="link_Column_Title"><path codeLine="69" d="M294.34,349.05 C288.44,362.71 283.01,377.8 280,392.36 C273.24,425.01 274.85,463.01 277.65,490.53 " fill="none" id="Column-to-Title" style="stroke:#222222;stroke-width:1.0;"/><polygon fill="#222222" points="278.18,495.43,281.206,486.0575,277.6514,490.458,273.2509,486.9033,278.18,495.43" style="stroke:#222222;stroke-width:1.0;"/><text fill="#000000" font-family="sans-serif" font-size="20" lengthAdjust="spacing" textLength="134" x="281" y="414.74">is identified by</text><text fill="#000000" font-family="sans-serif" font-size="20" lengthAdjust="spacing" textLength="11" x="265.6055" y="483.4069">1</text></g><!--link Board to User--><g id="link_Board_User"><path codeLine="71" d="M619.4,105.46 C682.62,112.38 792.71,130.47 875,176.36 C982.5,236.3 1011.92,394.45 1019.97,476.82 " fill="none" id="Board-to-User" style="stroke:#222222;stroke-width:1.0;"/><polygon fill="#222222" points="1020.41,481.59,1023.5425,472.2526,1019.938,476.6123,1015.5782,473.0078,1020.41,481.59" style="stroke:#222222;stroke-width:1.0;"/><text fill="#000000" font-family="sans-serif" font-size="20" lengthAdjust="spacing" textLength="110" x="998" y="306.74">is owned by</text><text fill="#000000" font-family="sans-serif" font-size="20" lengthAdjust="spacing" textLength="11" x="1008.4817" y="469.4847">1</text></g><!--link Board to Archived--><g id="link_Board_Archived"><path codeLine="72" d="M617.75,146.7 C624.81,155.79 631.02,165.81 635,176.36 C642.81,197.04 642.1,221.02 638.52,242.19 " fill="none" id="Board-to-Archived" style="stroke:#222222;stroke-width:1.0;"/><polygon fill="#222222" points="637.66,246.88,643.2345,238.7605,638.572,241.9639,635.3687,237.3014,637.66,246.88" style="stroke:#222222;stroke-width:1.0;"/><text fill="#000000" font-family="sans-serif" font-size="20" lengthAdjust="spacing" textLength="15" x="642" y="198.74">is</text><text fill="#000000" font-family="sans-serif" font-size="20" lengthAdjust="spacing" textLength="32" x="605.3044" y="234.9717">0..1</text></g><!--SRC=[XPHHRvim4CVV_IbEz6MhHfLLUvWY58biZTItASksPmCNy08-P9j6MRNlliE1G6WxU84x_yvtzpyRUr2wbaPM9QK7p233lMnAjo7jlgi_2FSB8MpFG5fAQsFdZ4eQXuyfQGyjHA4o1AngTmBPBzknjq9NK6QdUwrbUiWDDJhxGYKPI53bE89YO-XuNhgvzuyGDSV872688fdd1dFfSBM2DKcJ1V0i050xnJczHx3jKy5EkHA7LTwrgVHWR-auiB592_M4FhfR_s7HV4DJAMiLwG4TVBjJZUBlcmMs6rpLrpfQVcH259qjvgF843d-U1v1lgTPwjpR66lJXg2RAhdAoKt_Zne9nzYxdnzkDflFwq-Bz_0aomQ1aj-O-kGNk5TkXlU9PCV6RYB3eEcBwbA3B6SRmaPJPvrnoNyzZhagE4oJGqZ8EQg0zjDn0cmVug_y-hLzt3rmZHcq0KAS1n66AmW-1fr4Ir0Mqe9FRkhGyCt883brv6qOCdbtTnlqqrb28Ir8IAaikPwsMTg_fDiHpQ8BZqwaUprAJAY-XObmFlWjrX_L9T_MadHkmP4GRPclgC5_01xVNfsb45thy-2rl5q-nkYenwfwW9jdvdBmMaxy0m00]--></g></svg>