<?xml version="1.0" encoding="UTF-8" standalone="no"?><svg xmlns="http://www.w3.org/2000/svg" xmlns:xlink="http://www.w3.org/1999/xlink" contentStyleType="text/css" height="540px" preserveAspectRatio="none" style="width:1179px;height:540px;background:#FFFFFF;" version="1.1" viewBox="0 0 1179 540" width="1179px" zoomAndPan="magnify"><defs/><g><!--cluster <<aggregate>> Exam--><g id="cluster_&lt;&lt;aggregate&gt;&gt; Exam"><path d="M664.5,200.2168 L878.5,200.2168 A3.75,3.75 0 0 1 881,202.7168 L888,229.498 L888.5,229.498 A2.5,2.5 0 0 1 891,231.998 L891,335.7168 A2.5,2.5 0 0 1 888.5,338.2168 L664.5,338.2168 A2.5,2.5 0 0 1 662,335.7168 L662,202.7168 A2.5,2.5 0 0 1 664.5,200.2168 " fill="none" style="stroke:#000000;stroke-width:1.5;"/><line style="stroke:#000000;stroke-width:1.5;" x1="662" x2="888" y1="229.498" y2="229.498"/><text fill="#000000" font-family="sans-serif" font-size="20" font-weight="bold" lengthAdjust="spacing" textLength="213" x="666" y="220.7813">«aggregate» Exam</text></g><!--cluster <<aggregate>> Student--><g id="cluster_&lt;&lt;aggregate&gt;&gt; Student"><path d="M917.5,200.2168 L1159.5,200.2168 A3.75,3.75 0 0 1 1162,202.7168 L1169,229.498 L1169.5,229.498 A2.5,2.5 0 0 1 1172,231.998 L1172,335.7168 A2.5,2.5 0 0 1 1169.5,338.2168 L917.5,338.2168 A2.5,2.5 0 0 1 915,335.7168 L915,202.7168 A2.5,2.5 0 0 1 917.5,200.2168 " fill="none" style="stroke:#000000;stroke-width:1.5;"/><line style="stroke:#000000;stroke-width:1.5;" x1="915" x2="1169" y1="229.498" y2="229.498"/><text fill="#000000" font-family="sans-serif" font-size="20" font-weight="bold" lengthAdjust="spacing" textLength="241" x="919" y="220.7813">«aggregate» Student</text></g><!--cluster <<aggregate>> Question--><g id="cluster_&lt;&lt;aggregate&gt;&gt; Question"><path d="M664.5,395.2168 L918.5,395.2168 A3.75,3.75 0 0 1 921,397.7168 L928,424.498 L928.5,424.498 A2.5,2.5 0 0 1 931,426.998 L931,530.7168 A2.5,2.5 0 0 1 928.5,533.2168 L664.5,533.2168 A2.5,2.5 0 0 1 662,530.7168 L662,397.7168 A2.5,2.5 0 0 1 664.5,395.2168 " fill="none" style="stroke:#000000;stroke-width:1.5;"/><line style="stroke:#000000;stroke-width:1.5;" x1="662" x2="928" y1="424.498" y2="424.498"/><text fill="#000000" font-family="sans-serif" font-size="20" font-weight="bold" lengthAdjust="spacing" textLength="253" x="666" y="415.7813">«aggregate» Question</text></g><!--cluster <<aggregate>> ExamAnswer--><g id="cluster_&lt;&lt;aggregate&gt;&gt; ExamAnswer"><path d="M8.5,7.2168 L305.5,7.2168 A3.75,3.75 0 0 1 308,9.7168 L315,36.498 L635.5,36.498 A2.5,2.5 0 0 1 638,38.998 L638,519.2168 A2.5,2.5 0 0 1 635.5,521.7168 L8.5,521.7168 A2.5,2.5 0 0 1 6,519.2168 L6,9.7168 A2.5,2.5 0 0 1 8.5,7.2168 " fill="none" style="stroke:#000000;stroke-width:1.5;"/><line style="stroke:#000000;stroke-width:1.5;" x1="6" x2="315" y1="36.498" y2="36.498"/><text fill="#000000" font-family="sans-serif" font-size="20" font-weight="bold" lengthAdjust="spacing" textLength="296" x="10" y="27.7813">«aggregate» ExamAnswer</text></g><!--class Exam--><g id="elem_Exam"><rect codeLine="43" fill="#F5F5DC" height="79.8438" id="Exam" rx="2.5" ry="2.5" style="stroke:#181818;stroke-width:0.5;" width="113" x="678.5" y="242.2168"/><ellipse cx="694.5" cy="282.1387" fill="#ADD1B2" rx="12" ry="12" style="stroke:#181818;stroke-width:1.0;"/><path d="M699.2188,289.6387 L690.1406,289.6387 L690.1406,275.0605 L699.2188,275.0605 L699.2188,277.5918 L693.0156,277.5918 L693.0156,280.748 L698.6406,280.748 L698.6406,283.2793 L693.0156,283.2793 L693.0156,287.0918 L699.2188,287.0918 L699.2188,289.6387 Z " fill="#000000"/><text fill="#000000" font-family="sans-serif" font-size="20" font-style="italic" lengthAdjust="spacing" textLength="83" x="707.5" y="265.7813">«entity»</text><text fill="#000000" font-family="sans-serif" font-size="20" font-style="italic" lengthAdjust="spacing" textLength="64" x="717" y="289.0625">«root»</text><text fill="#000000" font-family="sans-serif" font-size="20" lengthAdjust="spacing" textLength="56" x="721" y="312.3438">Exam</text></g><!--class Student--><g id="elem_Student"><rect codeLine="17" fill="#F5F5DC" height="79.8438" id="Student" rx="2.5" ry="2.5" style="stroke:#181818;stroke-width:0.5;" width="114" x="931" y="242.2168"/><ellipse cx="947" cy="282.1387" fill="#ADD1B2" rx="12" ry="12" style="stroke:#181818;stroke-width:1.0;"/><path d="M951.7188,289.6387 L942.6406,289.6387 L942.6406,275.0605 L951.7188,275.0605 L951.7188,277.5918 L945.5156,277.5918 L945.5156,280.748 L951.1406,280.748 L951.1406,283.2793 L945.5156,283.2793 L945.5156,287.0918 L951.7188,287.0918 L951.7188,289.6387 Z " fill="#000000"/><text fill="#000000" font-family="sans-serif" font-size="20" font-style="italic" lengthAdjust="spacing" textLength="83" x="960.5" y="265.7813">«entity»</text><text fill="#000000" font-family="sans-serif" font-size="20" font-style="italic" lengthAdjust="spacing" textLength="64" x="970" y="289.0625">«root»</text><text fill="#000000" font-family="sans-serif" font-size="20" lengthAdjust="spacing" textLength="80" x="962" y="312.3438">Student</text></g><!--class Question--><g id="elem_Question"><rect codeLine="24" fill="#F5F5DC" height="79.8438" id="Question" rx="2.5" ry="2.5" style="stroke:#181818;stroke-width:0.5;" width="124" x="678" y="437.2168"/><ellipse cx="694" cy="477.1387" fill="#ADD1B2" rx="12" ry="12" style="stroke:#181818;stroke-width:1.0;"/><path d="M698.7188,484.6387 L689.6406,484.6387 L689.6406,470.0605 L698.7188,470.0605 L698.7188,472.5918 L692.5156,472.5918 L692.5156,475.748 L698.1406,475.748 L698.1406,478.2793 L692.5156,478.2793 L692.5156,482.0918 L698.7188,482.0918 L698.7188,484.6387 Z " fill="#000000"/><text fill="#000000" font-family="sans-serif" font-size="20" font-style="italic" lengthAdjust="spacing" textLength="83" x="712.5" y="460.7813">«entity»</text><text fill="#000000" font-family="sans-serif" font-size="20" font-style="italic" lengthAdjust="spacing" textLength="64" x="722" y="484.0625">«root»</text><text fill="#000000" font-family="sans-serif" font-size="20" lengthAdjust="spacing" textLength="90" x="709" y="507.3438">Question</text></g><!--class ExamAnswer--><g id="elem_ExamAnswer"><rect codeLine="37" fill="#F5F5DC" height="79.8438" id="ExamAnswer" rx="2.5" ry="2.5" style="stroke:#181818;stroke-width:0.5;" width="164" x="458" y="49.2168"/><ellipse cx="474" cy="89.1387" fill="#ADD1B2" rx="12" ry="12" style="stroke:#181818;stroke-width:1.0;"/><path d="M478.7188,96.6387 L469.6406,96.6387 L469.6406,82.0605 L478.7188,82.0605 L478.7188,84.5918 L472.5156,84.5918 L472.5156,87.748 L478.1406,87.748 L478.1406,90.2793 L472.5156,90.2793 L472.5156,94.0918 L478.7188,94.0918 L478.7188,96.6387 Z " fill="#000000"/><text fill="#000000" font-family="sans-serif" font-size="20" font-style="italic" lengthAdjust="spacing" textLength="83" x="512.5" y="72.7813">«entity»</text><text fill="#000000" font-family="sans-serif" font-size="20" font-style="italic" lengthAdjust="spacing" textLength="64" x="522" y="96.0625">«root»</text><text fill="#000000" font-family="sans-serif" font-size="20" lengthAdjust="spacing" textLength="130" x="489" y="119.3438">ExamAnswer</text></g><!--class Grade--><g id="elem_Grade"><rect codeLine="39" fill="#F5F5DC" height="56.5625" id="Grade" rx="2.5" ry="2.5" style="stroke:#181818;stroke-width:0.5;" width="177" x="21.5" y="448.7168"/><ellipse cx="37.5" cy="476.998" fill="#FF8B40" rx="12" ry="12" style="stroke:#181818;stroke-width:1.0;"/><path d="M37.5156,482.8418 L40.0781,470.6699 L42.9844,470.6699 L39.5156,485.248 L35.5313,485.248 L32.0625,470.6699 L34.9531,470.6699 L37.5156,482.8418 Z " fill="#000000"/><text fill="#000000" font-family="sans-serif" font-size="20" font-style="italic" lengthAdjust="spacing" textLength="147" x="50.5" y="472.2813">«value object»</text><text fill="#000000" font-family="sans-serif" font-size="20" lengthAdjust="spacing" textLength="61" x="93.5" y="495.5625">Grade</text></g><!--class AnswerToQuestion--><g id="elem_AnswerToQuestion"><rect codeLine="44" fill="#F5F5DC" height="56.5625" id="AnswerToQuestion" rx="2.5" ry="2.5" style="stroke:#181818;stroke-width:0.5;" width="222" x="400" y="253.7168"/><ellipse cx="416" cy="281.998" fill="#ADD1B2" rx="12" ry="12" style="stroke:#181818;stroke-width:1.0;"/><path d="M420.7188,289.498 L411.6406,289.498 L411.6406,274.9199 L420.7188,274.9199 L420.7188,277.4512 L414.5156,277.4512 L414.5156,280.6074 L420.1406,280.6074 L420.1406,283.1387 L414.5156,283.1387 L414.5156,286.9512 L420.7188,286.9512 L420.7188,289.498 Z " fill="#000000"/><text fill="#000000" font-family="sans-serif" font-size="20" font-style="italic" lengthAdjust="spacing" textLength="83" x="483.5" y="277.2813">«entity»</text><text fill="#000000" font-family="sans-serif" font-size="20" lengthAdjust="spacing" textLength="188" x="431" y="300.5625">AnswerToQuestion</text></g><!--class Answer--><g id="elem_Answer"><rect codeLine="40" fill="#F5F5DC" height="56.5625" id="Answer" rx="2.5" ry="2.5" style="stroke:#181818;stroke-width:0.5;" width="177" x="233.5" y="448.7168"/><ellipse cx="249.5" cy="476.998" fill="#FF8B40" rx="12" ry="12" style="stroke:#181818;stroke-width:1.0;"/><path d="M249.5156,482.8418 L252.0781,470.6699 L254.9844,470.6699 L251.5156,485.248 L247.5313,485.248 L244.0625,470.6699 L246.9531,470.6699 L249.5156,482.8418 Z " fill="#000000"/><text fill="#000000" font-family="sans-serif" font-size="20" font-style="italic" lengthAdjust="spacing" textLength="147" x="262.5" y="472.2813">«value object»</text><text fill="#000000" font-family="sans-serif" font-size="20" lengthAdjust="spacing" textLength="74" x="299" y="495.5625">Answer</text></g><!--class Score--><g id="elem_Score"><rect codeLine="41" fill="#F5F5DC" height="56.5625" id="Score" rx="2.5" ry="2.5" style="stroke:#181818;stroke-width:0.5;" width="177" x="445.5" y="448.7168"/><ellipse cx="461.5" cy="476.998" fill="#FF8B40" rx="12" ry="12" style="stroke:#181818;stroke-width:1.0;"/><path d="M461.5156,482.8418 L464.0781,470.6699 L466.9844,470.6699 L463.5156,485.248 L459.5313,485.248 L456.0625,470.6699 L458.9531,470.6699 L461.5156,482.8418 Z " fill="#000000"/><text fill="#000000" font-family="sans-serif" font-size="20" font-style="italic" lengthAdjust="spacing" textLength="147" x="474.5" y="472.2813">«value object»</text><text fill="#000000" font-family="sans-serif" font-size="20" lengthAdjust="spacing" textLength="56" x="520" y="495.5625">Score</text></g><!--link ExamAnswer to Student--><g id="link_ExamAnswer_Student"><path codeLine="46" d="M622.03,119.1268 C675.5,138.5468 746.51,165.3868 808,192.2168 C847.91,209.6268 891.72,231.2368 926.12,248.7968 " fill="none" id="ExamAnswer-to-Student" style="stroke:#222222;stroke-width:1.0;"/><polygon fill="#222222" points="930.7,251.1368,924.5269,243.4626,926.2539,248.8494,920.8671,250.5764,930.7,251.1368" style="stroke:#222222;stroke-width:1.0;"/><text fill="#000000" font-family="sans-serif" font-size="20" lengthAdjust="spacing" textLength="35" x="787" y="178.7813">has</text><text fill="#000000" font-family="sans-serif" font-size="20" lengthAdjust="spacing" textLength="13" x="909.9244" y="241.5385">1</text></g><!--link ExamAnswer to Exam--><g id="link_ExamAnswer_Exam"><path codeLine="47" d="M579.93,129.3268 C612.4,161.1268 658.14,205.9268 691.52,238.6268 " fill="none" id="ExamAnswer-to-Exam" style="stroke:#222222;stroke-width:1.0;"/><polygon fill="#222222" points="695.12,242.1568,691.4731,233.008,691.5418,238.6645,685.8854,238.7332,695.12,242.1568" style="stroke:#222222;stroke-width:1.0;"/><text fill="#000000" font-family="sans-serif" font-size="20" lengthAdjust="spacing" textLength="49" x="632" y="178.7813">is for</text><text fill="#000000" font-family="sans-serif" font-size="20" lengthAdjust="spacing" textLength="13" x="674.7282" y="229.5387">1</text></g><!--link AnswerToQuestion to Grade--><g id="link_AnswerToQuestion_Grade"><path codeLine="48" d="M403.93,310.8168 C346.09,328.1868 274.72,353.6968 216,387.2168 C188.41,402.9668 161.05,426.1768 141.04,444.9468 " fill="none" id="AnswerToQuestion-to-Grade" style="stroke:#222222;stroke-width:1.0;"/><polygon fill="#222222" points="137.14,448.6368,146.4289,445.3631,140.7743,445.2028,140.9345,439.5483,137.14,448.6368" style="stroke:#222222;stroke-width:1.0;"/><text fill="#000000" font-family="sans-serif" font-size="20" lengthAdjust="spacing" textLength="35" x="278" y="373.7813">has</text><text fill="#000000" font-family="sans-serif" font-size="20" lengthAdjust="spacing" textLength="38" x="100.8189" y="436.0089">0..1</text></g><!--link AnswerToQuestion to Question--><g id="link_AnswerToQuestion_Question"><path codeLine="50" d="M545.2,310.7368 C570.9,331.5368 606.88,360.9068 638,387.2168 C655.77,402.2368 675.05,418.9568 692.02,433.8068 " fill="none" id="AnswerToQuestion-to-Question" style="stroke:#222222;stroke-width:1.0;"/><polygon fill="#222222" points="695.83,437.1468,691.6908,428.2099,692.0671,433.8543,686.4228,434.2306,695.83,437.1468" style="stroke:#222222;stroke-width:1.0;"/><text fill="#000000" font-family="sans-serif" font-size="20" lengthAdjust="spacing" textLength="49" x="628" y="373.7813">is for</text><text fill="#000000" font-family="sans-serif" font-size="20" lengthAdjust="spacing" textLength="13" x="674.7545" y="424.5271">1</text></g><!--reverse link AnswerToQuestion to Answer--><g id="link_AnswerToQuestion_Answer"><path codeLine="51" d="M474.56,320.4268 C437.83,357.9368 381.99,414.9568 349.03,448.6168 " fill="none" id="AnswerToQuestion-backto-Answer" style="stroke:#222222;stroke-width:1.0;"/><polygon fill="#222222" points="483.92,310.8668,476.8659,312.3633,475.5342,319.4504,482.5883,317.9539,483.92,310.8668" style="stroke:#222222;stroke-width:1.0;"/><text fill="#000000" font-family="sans-serif" font-size="20" lengthAdjust="spacing" textLength="13" x="340.2643" y="435.9847">1</text></g><!--reverse link AnswerToQuestion to Score--><g id="link_AnswerToQuestion_Score"><path codeLine="52" d="M515.84,323.8268 C520.31,361.3168 526.82,415.9668 530.71,448.6168 " fill="none" id="AnswerToQuestion-backto-Score" style="stroke:#222222;stroke-width:1.0;"/><polygon fill="#222222" points="514.3,310.8668,511.0408,317.2994,515.7251,322.7819,518.9842,316.3493,514.3,310.8668" style="stroke:#222222;stroke-width:1.0;"/><text fill="#000000" font-family="sans-serif" font-size="20" lengthAdjust="spacing" textLength="13" x="515.6908" y="435.9847">1</text></g><!--reverse link ExamAnswer to AnswerToQuestion--><g id="link_ExamAnswer_AnswerToQuestion"><path codeLine="54" d="M532.06,142.5268 C526.61,178.4168 519.59,224.6168 515.2,253.5868 " fill="none" id="ExamAnswer-backto-AnswerToQuestion" style="stroke:#222222;stroke-width:1.0;"/><polygon fill="#222222" points="534.06,129.3268,529.2026,134.6565,532.2541,141.1901,537.1115,135.8604,534.06,129.3268" style="stroke:#222222;stroke-width:1.0;"/><text fill="#000000" font-family="sans-serif" font-size="20" lengthAdjust="spacing" textLength="35" x="477.4569" y="240.9486">1..*</text></g><!--SRC=[bP9TJy8m58Rl-ojEneLAt9Z42qCM4Z1Yl3GOxyjws2hRkhITgCJ_RbatACBys5Ntlizvp-c7Ml6Yf9BccOXNo83XabQPdeb2p_a7mZ0aPwdMfHeD1cL62rtbMH2BV11dL2cVSPgOOa9KcmErCT5QyaMbyI4MHHqKafGp1CnB_GwqjPMhvgXJmTJth2cDLuaKLS5kHIOaB90dw40JASNQMhrX_H5IcXgQ87XHH9D4Oa8rZiTmzqPp3pO400lDJSkjG3ux-Rckc24FIXfjMtMeG1HPmHH6aHH2cyNcX_J72fNceZY8RqKdlvN-tM2xkqcXrYYFDcrbOiJwZE5UKePaprZ_IUp6QS6ciFsTnqAYC-i- -_IqXdGQ6kFy-R8tczrChyCBUALPXI0MBnWtiDlpZt0zqQ-iEs_Nf1r7uUBR96VBlZy6xyhRlOWHf5IT0kgs8-0AbaAIemur5WQ18UqvsQ0Eq50xeJkpx_irsbnWfszlr1tQEa7GzuwVnHS0]--></g></svg>