<?xml version="1.0" encoding="UTF-8" standalone="no"?><svg xmlns="http://www.w3.org/2000/svg" xmlns:xlink="http://www.w3.org/1999/xlink" contentStyleType="text/css" height="1574px" preserveAspectRatio="none" style="width:4942px;height:1574px;background:#FFFFFF;" version="1.1" viewBox="0 0 4942 1574" width="4942px" zoomAndPan="magnify"><defs/><g><rect fill="#FFFFFF" height="1324.9192" style="stroke:#181818;stroke-width:1.0;" width="10" x="39" y="115.4799"/><rect fill="#FFFFFF" height="1291.6792" style="stroke:#181818;stroke-width:1.0;" width="10" x="534.25" y="148.7199"/><rect fill="#FFFFFF" height="1209.1992" style="stroke:#181818;stroke-width:1.0;" width="10" x="1943.875" y="189.9599"/><rect fill="#FFFFFF" height="41.24" style="stroke:#181818;stroke-width:1.0;" width="10" x="2282.5" y="313.6798"/><rect fill="#FFFFFF" height="261.6798" style="stroke:#181818;stroke-width:1.0;" width="10" x="2499.5" y="478.6397"/><rect fill="#FFFFFF" height="357.1598" style="stroke:#181818;stroke-width:1.0;" width="10" x="2731" y="1000.7594"/><rect fill="#FFFFFF" height="41.24" style="stroke:#181818;stroke-width:1.0;" width="10" x="3147.25" y="650.8396"/><rect fill="#FFFFFF" height="41.24" style="stroke:#181818;stroke-width:1.0;" width="10" x="3888.75" y="519.8797"/><rect fill="#FFFFFF" height="41.24" style="stroke:#181818;stroke-width:1.0;" width="10" x="4113.25" y="1041.9994"/><rect fill="#FFFFFF" height="41.24" style="stroke:#181818;stroke-width:1.0;" width="10" x="4325.25" y="396.1598"/><rect fill="#FFFFFF" height="41.24" style="stroke:#181818;stroke-width:1.0;" width="10" x="4810.25" y="1124.4793"/><rect fill="none" height="123.9599" style="stroke:#000000;stroke-width:1.5;" width="955.75" x="2390" y="576.1197"/><rect fill="none" height="82.7199" style="stroke:#000000;stroke-width:1.5;" width="1183.75" x="2609" y="1180.7193"/><line style="stroke:#181818;stroke-width:0.5;stroke-dasharray:5.0,5.0;" x1="44" x2="44" y1="105.4799" y2="1458.3991"/><line style="stroke:#181818;stroke-width:0.5;stroke-dasharray:5.0,5.0;" x1="538.75" x2="538.75" y1="105.4799" y2="1458.3991"/><line style="stroke:#181818;stroke-width:0.5;stroke-dasharray:5.0,5.0;" x1="1948.875" x2="1948.875" y1="105.4799" y2="1458.3991"/><line style="stroke:#181818;stroke-width:0.5;stroke-dasharray:5.0,5.0;" x1="2287" x2="2287" y1="105.4799" y2="1458.3991"/><line style="stroke:#181818;stroke-width:0.5;stroke-dasharray:5.0,5.0;" x1="2504" x2="2504" y1="105.4799" y2="1458.3991"/><line style="stroke:#181818;stroke-width:0.5;stroke-dasharray:5.0,5.0;" x1="2736" x2="2736" y1="105.4799" y2="1458.3991"/><line style="stroke:#181818;stroke-width:0.5;stroke-dasharray:5.0,5.0;" x1="3151.75" x2="3151.75" y1="105.4799" y2="1458.3991"/><line style="stroke:#181818;stroke-width:0.5;stroke-dasharray:5.0,5.0;" x1="3274.75" x2="3274.75" y1="105.4799" y2="1458.3991"/><line style="stroke:#181818;stroke-width:0.5;stroke-dasharray:5.0,5.0;" x1="3396.75" x2="3396.75" y1="105.4799" y2="1458.3991"/><line style="stroke:#181818;stroke-width:0.5;stroke-dasharray:5.0,5.0;" x1="3526.75" x2="3526.75" y1="105.4799" y2="1458.3991"/><line style="stroke:#181818;stroke-width:0.5;stroke-dasharray:5.0,5.0;" x1="3693.75" x2="3693.75" y1="105.4799" y2="1458.3991"/><line style="stroke:#181818;stroke-width:0.5;stroke-dasharray:5.0,5.0;" x1="3893.75" x2="3893.75" y1="105.4799" y2="1458.3991"/><line style="stroke:#181818;stroke-width:0.5;stroke-dasharray:5.0,5.0;" x1="4117.75" x2="4117.75" y1="105.4799" y2="1458.3991"/><line style="stroke:#181818;stroke-width:0.5;stroke-dasharray:5.0,5.0;" x1="4329.75" x2="4329.75" y1="105.4799" y2="1458.3991"/><line style="stroke:#181818;stroke-width:0.5;stroke-dasharray:5.0,5.0;" x1="4553.75" x2="4553.75" y1="105.4799" y2="1458.3991"/><line style="stroke:#181818;stroke-width:0.5;stroke-dasharray:5.0,5.0;" x1="4814.75" x2="4814.75" y1="105.4799" y2="1458.3991"/><text fill="#000000" font-family="sans-serif" font-size="20" lengthAdjust="spacing" textLength="72" x="5" y="99.62">Student</text><ellipse cx="44" cy="26.74" fill="#E2E2F0" rx="8" ry="8" style="stroke:#181818;stroke-width:0.5;"/><path d="M44,34.74 L44,61.74 M31,42.74 L57,42.74 M44,61.74 L31,76.74 M44,61.74 L57,76.74 " fill="none" style="stroke:#181818;stroke-width:0.5;"/><text fill="#000000" font-family="sans-serif" font-size="20" lengthAdjust="spacing" textLength="72" x="5" y="1478.7791">Student</text><ellipse cx="44" cy="1493.1391" fill="#E2E2F0" rx="8" ry="8" style="stroke:#181818;stroke-width:0.5;"/><path d="M44,1501.1391 L44,1528.1391 M31,1509.1391 L57,1509.1391 M44,1528.1391 L31,1543.1391 M44,1528.1391 L57,1543.1391 " fill="none" style="stroke:#181818;stroke-width:0.5;"/><rect fill="#E2E2F0" height="68.4799" rx="2.5" ry="2.5" style="stroke:#181818;stroke-width:0.5;" width="207" x="435.75" y="36"/><text fill="#000000" font-family="sans-serif" font-size="20" font-style="italic" lengthAdjust="spacing" textLength="134" x="472.25" y="64.38">«presentation»</text><text fill="#000000" font-family="sans-serif" font-size="20" lengthAdjust="spacing" textLength="193" x="442.75" y="91.62">ListStudentGradesUI</text><rect fill="#E2E2F0" height="68.4799" rx="2.5" ry="2.5" style="stroke:#181818;stroke-width:0.5;" width="207" x="435.75" y="1457.3991"/><text fill="#000000" font-family="sans-serif" font-size="20" font-style="italic" lengthAdjust="spacing" textLength="134" x="472.25" y="1485.7791">«presentation»</text><text fill="#000000" font-family="sans-serif" font-size="20" lengthAdjust="spacing" textLength="193" x="442.75" y="1513.0191">ListStudentGradesUI</text><rect fill="#E2E2F0" height="68.4799" rx="2.5" ry="2.5" style="stroke:#181818;stroke-width:0.5;" width="278" x="1809.875" y="36"/><text fill="#000000" font-family="sans-serif" font-size="20" font-style="italic" lengthAdjust="spacing" textLength="120" x="1888.875" y="64.38">«application»</text><text fill="#000000" font-family="sans-serif" font-size="20" lengthAdjust="spacing" textLength="264" x="1816.875" y="91.62">ListStudentGradesController</text><rect fill="#E2E2F0" height="68.4799" rx="2.5" ry="2.5" style="stroke:#181818;stroke-width:0.5;" width="278" x="1809.875" y="1457.3991"/><text fill="#000000" font-family="sans-serif" font-size="20" font-style="italic" lengthAdjust="spacing" textLength="120" x="1888.875" y="1485.7791">«application»</text><text fill="#000000" font-family="sans-serif" font-size="20" lengthAdjust="spacing" textLength="264" x="1816.875" y="1513.0191">ListStudentGradesController</text><rect fill="#E2E2F0" height="68.4799" rx="2.5" ry="2.5" style="stroke:#181818;stroke-width:0.5;" width="205" x="2185" y="36"/><text fill="#000000" font-family="sans-serif" font-size="20" font-style="italic" lengthAdjust="spacing" textLength="80" x="2247.5" y="64.38">«service»</text><text fill="#000000" font-family="sans-serif" font-size="20" lengthAdjust="spacing" textLength="191" x="2192" y="91.62">AuthorizationService</text><rect fill="#E2E2F0" height="68.4799" rx="2.5" ry="2.5" style="stroke:#181818;stroke-width:0.5;" width="205" x="2185" y="1457.3991"/><text fill="#000000" font-family="sans-serif" font-size="20" font-style="italic" lengthAdjust="spacing" textLength="80" x="2247.5" y="1485.7791">«service»</text><text fill="#000000" font-family="sans-serif" font-size="20" lengthAdjust="spacing" textLength="191" x="2192" y="1513.0191">AuthorizationService</text><rect fill="#E2E2F0" height="68.4799" rx="2.5" ry="2.5" style="stroke:#181818;stroke-width:0.5;" width="209" x="2400" y="36"/><text fill="#000000" font-family="sans-serif" font-size="20" font-style="italic" lengthAdjust="spacing" textLength="80" x="2464.5" y="64.38">«service»</text><text fill="#000000" font-family="sans-serif" font-size="20" lengthAdjust="spacing" textLength="195" x="2407" y="91.62">ListEnrolmentService</text><rect fill="#E2E2F0" height="68.4799" rx="2.5" ry="2.5" style="stroke:#181818;stroke-width:0.5;" width="209" x="2400" y="1457.3991"/><text fill="#000000" font-family="sans-serif" font-size="20" font-style="italic" lengthAdjust="spacing" textLength="80" x="2464.5" y="1485.7791">«service»</text><text fill="#000000" font-family="sans-serif" font-size="20" lengthAdjust="spacing" textLength="195" x="2407" y="1513.0191">ListEnrolmentService</text><rect fill="#E2E2F0" height="68.4799" rx="2.5" ry="2.5" style="stroke:#181818;stroke-width:0.5;" width="234" x="2619" y="36"/><text fill="#000000" font-family="sans-serif" font-size="20" font-style="italic" lengthAdjust="spacing" textLength="80" x="2696" y="64.38">«service»</text><text fill="#000000" font-family="sans-serif" font-size="20" lengthAdjust="spacing" textLength="220" x="2626" y="91.62">ListExamAnswerService</text><rect fill="#E2E2F0" height="68.4799" rx="2.5" ry="2.5" style="stroke:#181818;stroke-width:0.5;" width="234" x="2619" y="1457.3991"/><text fill="#000000" font-family="sans-serif" font-size="20" font-style="italic" lengthAdjust="spacing" textLength="80" x="2696" y="1485.7791">«service»</text><text fill="#000000" font-family="sans-serif" font-size="20" lengthAdjust="spacing" textLength="220" x="2626" y="1513.0191">ListExamAnswerService</text><rect fill="#E2E2F0" height="68.4799" rx="2.5" ry="2.5" style="stroke:#181818;stroke-width:0.5;" width="103" x="3100.75" y="36"/><text fill="#000000" font-family="sans-serif" font-size="20" font-style="italic" lengthAdjust="spacing" textLength="89" x="3107.75" y="64.38">«domain»</text><text fill="#000000" font-family="sans-serif" font-size="20" lengthAdjust="spacing" textLength="66" x="3119.25" y="91.62">Course</text><rect fill="#E2E2F0" height="68.4799" rx="2.5" ry="2.5" style="stroke:#181818;stroke-width:0.5;" width="103" x="3100.75" y="1457.3991"/><text fill="#000000" font-family="sans-serif" font-size="20" font-style="italic" lengthAdjust="spacing" textLength="89" x="3107.75" y="1485.7791">«domain»</text><text fill="#000000" font-family="sans-serif" font-size="20" lengthAdjust="spacing" textLength="66" x="3119.25" y="1513.0191">Course</text><rect fill="#E2E2F0" height="68.4799" rx="2.5" ry="2.5" style="stroke:#181818;stroke-width:0.5;" width="122" x="3213.75" y="36"/><text fill="#000000" font-family="sans-serif" font-size="20" font-style="italic" lengthAdjust="spacing" textLength="50" x="3249.75" y="64.38">«dto»</text><text fill="#000000" font-family="sans-serif" font-size="20" lengthAdjust="spacing" textLength="108" x="3220.75" y="91.62">CourseDTO</text><rect fill="#E2E2F0" height="68.4799" rx="2.5" ry="2.5" style="stroke:#181818;stroke-width:0.5;" width="122" x="3213.75" y="1457.3991"/><text fill="#000000" font-family="sans-serif" font-size="20" font-style="italic" lengthAdjust="spacing" textLength="50" x="3249.75" y="1485.7791">«dto»</text><text fill="#000000" font-family="sans-serif" font-size="20" lengthAdjust="spacing" textLength="108" x="3220.75" y="1513.0191">CourseDTO</text><rect fill="#E2E2F0" height="68.4799" rx="2.5" ry="2.5" style="stroke:#181818;stroke-width:0.5;" width="103" x="3345.75" y="36"/><text fill="#000000" font-family="sans-serif" font-size="20" font-style="italic" lengthAdjust="spacing" textLength="89" x="3352.75" y="64.38">«domain»</text><text fill="#000000" font-family="sans-serif" font-size="20" lengthAdjust="spacing" textLength="52" x="3371.25" y="91.62">Exam</text><rect fill="#E2E2F0" height="68.4799" rx="2.5" ry="2.5" style="stroke:#181818;stroke-width:0.5;" width="103" x="3345.75" y="1457.3991"/><text fill="#000000" font-family="sans-serif" font-size="20" font-style="italic" lengthAdjust="spacing" textLength="89" x="3352.75" y="1485.7791">«domain»</text><text fill="#000000" font-family="sans-serif" font-size="20" lengthAdjust="spacing" textLength="52" x="3371.25" y="1513.0191">Exam</text><rect fill="#E2E2F0" height="68.4799" rx="2.5" ry="2.5" style="stroke:#181818;stroke-width:0.5;" width="136" x="3458.75" y="36"/><text fill="#000000" font-family="sans-serif" font-size="20" font-style="italic" lengthAdjust="spacing" textLength="89" x="3482.25" y="64.38">«domain»</text><text fill="#000000" font-family="sans-serif" font-size="20" lengthAdjust="spacing" textLength="122" x="3465.75" y="91.62">ExamAnswer</text><rect fill="#E2E2F0" height="68.4799" rx="2.5" ry="2.5" style="stroke:#181818;stroke-width:0.5;" width="136" x="3458.75" y="1457.3991"/><text fill="#000000" font-family="sans-serif" font-size="20" font-style="italic" lengthAdjust="spacing" textLength="89" x="3482.25" y="1485.7791">«domain»</text><text fill="#000000" font-family="sans-serif" font-size="20" lengthAdjust="spacing" textLength="122" x="3465.75" y="1513.0191">ExamAnswer</text><rect fill="#E2E2F0" height="68.4799" rx="2.5" ry="2.5" style="stroke:#181818;stroke-width:0.5;" width="178" x="3604.75" y="36"/><text fill="#000000" font-family="sans-serif" font-size="20" font-style="italic" lengthAdjust="spacing" textLength="50" x="3668.75" y="64.38">«dto»</text><text fill="#000000" font-family="sans-serif" font-size="20" lengthAdjust="spacing" textLength="164" x="3611.75" y="91.62">ExamAnswerDTO</text><rect fill="#E2E2F0" height="68.4799" rx="2.5" ry="2.5" style="stroke:#181818;stroke-width:0.5;" width="178" x="3604.75" y="1457.3991"/><text fill="#000000" font-family="sans-serif" font-size="20" font-style="italic" lengthAdjust="spacing" textLength="50" x="3668.75" y="1485.7791">«dto»</text><text fill="#000000" font-family="sans-serif" font-size="20" lengthAdjust="spacing" textLength="164" x="3611.75" y="1513.0191">ExamAnswerDTO</text><text fill="#000000" font-family="sans-serif" font-size="20" font-style="italic" lengthAdjust="spacing" textLength="110" x="3835.75" y="72.38">«repository»</text><text fill="#000000" font-family="sans-serif" font-size="20" lengthAdjust="spacing" textLength="196" x="3792.75" y="99.62">EnrolmentRepository</text><path d="M3875.75,15 C3875.75,5 3893.75,5 3893.75,5 C3893.75,5 3911.75,5 3911.75,15 L3911.75,41 C3911.75,51 3893.75,51 3893.75,51 C3893.75,51 3875.75,51 3875.75,41 L3875.75,15 " fill="#E2E2F0" style="stroke:#181818;stroke-width:1.5;"/><path d="M3875.75,15 C3875.75,25 3893.75,25 3893.75,25 C3893.75,25 3911.75,25 3911.75,15 " fill="none" style="stroke:#181818;stroke-width:1.5;"/><text fill="#000000" font-family="sans-serif" font-size="20" font-style="italic" lengthAdjust="spacing" textLength="110" x="3835.75" y="1478.7791">«repository»</text><text fill="#000000" font-family="sans-serif" font-size="20" lengthAdjust="spacing" textLength="196" x="3792.75" y="1506.0191">EnrolmentRepository</text><path d="M3875.75,1521.8791 C3875.75,1511.8791 3893.75,1511.8791 3893.75,1511.8791 C3893.75,1511.8791 3911.75,1511.8791 3911.75,1521.8791 L3911.75,1547.8791 C3911.75,1557.8791 3893.75,1557.8791 3893.75,1557.8791 C3893.75,1557.8791 3875.75,1557.8791 3875.75,1547.8791 L3875.75,1521.8791 " fill="#E2E2F0" style="stroke:#181818;stroke-width:1.5;"/><path d="M3875.75,1521.8791 C3875.75,1531.8791 3893.75,1531.8791 3893.75,1531.8791 C3893.75,1531.8791 3911.75,1531.8791 3911.75,1521.8791 " fill="none" style="stroke:#181818;stroke-width:1.5;"/><text fill="#000000" font-family="sans-serif" font-size="20" font-style="italic" lengthAdjust="spacing" textLength="110" x="4060.25" y="72.38">«repository»</text><text fill="#000000" font-family="sans-serif" font-size="20" lengthAdjust="spacing" textLength="221" x="4004.75" y="99.62">ExamAnswerRepository</text><path d="M4100.25,15 C4100.25,5 4118.25,5 4118.25,5 C4118.25,5 4136.25,5 4136.25,15 L4136.25,41 C4136.25,51 4118.25,51 4118.25,51 C4118.25,51 4100.25,51 4100.25,41 L4100.25,15 " fill="#E2E2F0" style="stroke:#181818;stroke-width:1.5;"/><path d="M4100.25,15 C4100.25,25 4118.25,25 4118.25,25 C4118.25,25 4136.25,25 4136.25,15 " fill="none" style="stroke:#181818;stroke-width:1.5;"/><text fill="#000000" font-family="sans-serif" font-size="20" font-style="italic" lengthAdjust="spacing" textLength="110" x="4060.25" y="1478.7791">«repository»</text><text fill="#000000" font-family="sans-serif" font-size="20" lengthAdjust="spacing" textLength="221" x="4004.75" y="1506.0191">ExamAnswerRepository</text><path d="M4100.25,1521.8791 C4100.25,1511.8791 4118.25,1511.8791 4118.25,1511.8791 C4118.25,1511.8791 4136.25,1511.8791 4136.25,1521.8791 L4136.25,1547.8791 C4136.25,1557.8791 4118.25,1557.8791 4118.25,1557.8791 C4118.25,1557.8791 4100.25,1557.8791 4100.25,1547.8791 L4100.25,1521.8791 " fill="#E2E2F0" style="stroke:#181818;stroke-width:1.5;"/><path d="M4100.25,1521.8791 C4100.25,1531.8791 4118.25,1531.8791 4118.25,1531.8791 C4118.25,1531.8791 4136.25,1531.8791 4136.25,1521.8791 " fill="none" style="stroke:#181818;stroke-width:1.5;"/><text fill="#000000" font-family="sans-serif" font-size="20" font-style="italic" lengthAdjust="spacing" textLength="110" x="4272.25" y="72.38">«repository»</text><text fill="#000000" font-family="sans-serif" font-size="20" lengthAdjust="spacing" textLength="171" x="4241.75" y="99.62">StudentRepository</text><path d="M4312.25,15 C4312.25,5 4330.25,5 4330.25,5 C4330.25,5 4348.25,5 4348.25,15 L4348.25,41 C4348.25,51 4330.25,51 4330.25,51 C4330.25,51 4312.25,51 4312.25,41 L4312.25,15 " fill="#E2E2F0" style="stroke:#181818;stroke-width:1.5;"/><path d="M4312.25,15 C4312.25,25 4330.25,25 4330.25,25 C4330.25,25 4348.25,25 4348.25,15 " fill="none" style="stroke:#181818;stroke-width:1.5;"/><text fill="#000000" font-family="sans-serif" font-size="20" font-style="italic" lengthAdjust="spacing" textLength="110" x="4272.25" y="1478.7791">«repository»</text><text fill="#000000" font-family="sans-serif" font-size="20" lengthAdjust="spacing" textLength="171" x="4241.75" y="1506.0191">StudentRepository</text><path d="M4312.25,1521.8791 C4312.25,1511.8791 4330.25,1511.8791 4330.25,1511.8791 C4330.25,1511.8791 4348.25,1511.8791 4348.25,1521.8791 L4348.25,1547.8791 C4348.25,1557.8791 4330.25,1557.8791 4330.25,1557.8791 C4330.25,1557.8791 4312.25,1557.8791 4312.25,1547.8791 L4312.25,1521.8791 " fill="#E2E2F0" style="stroke:#181818;stroke-width:1.5;"/><path d="M4312.25,1521.8791 C4312.25,1531.8791 4330.25,1531.8791 4330.25,1531.8791 C4330.25,1531.8791 4348.25,1531.8791 4348.25,1521.8791 " fill="none" style="stroke:#181818;stroke-width:1.5;"/><text fill="#000000" font-family="sans-serif" font-size="20" font-style="italic" lengthAdjust="spacing" textLength="110" x="4495.75" y="72.38">«repository»</text><text fill="#000000" font-family="sans-serif" font-size="20" lengthAdjust="spacing" textLength="244" x="4428.75" y="99.62">FormativeExamRepository</text><path d="M4535.75,15 C4535.75,5 4553.75,5 4553.75,5 C4553.75,5 4571.75,5 4571.75,15 L4571.75,41 C4571.75,51 4553.75,51 4553.75,51 C4553.75,51 4535.75,51 4535.75,41 L4535.75,15 " fill="#E2E2F0" style="stroke:#181818;stroke-width:1.5;"/><path d="M4535.75,15 C4535.75,25 4553.75,25 4553.75,25 C4553.75,25 4571.75,25 4571.75,15 " fill="none" style="stroke:#181818;stroke-width:1.5;"/><text fill="#000000" font-family="sans-serif" font-size="20" font-style="italic" lengthAdjust="spacing" textLength="110" x="4495.75" y="1478.7791">«repository»</text><text fill="#000000" font-family="sans-serif" font-size="20" lengthAdjust="spacing" textLength="244" x="4428.75" y="1506.0191">FormativeExamRepository</text><path d="M4535.75,1521.8791 C4535.75,1511.8791 4553.75,1511.8791 4553.75,1511.8791 C4553.75,1511.8791 4571.75,1511.8791 4571.75,1521.8791 L4571.75,1547.8791 C4571.75,1557.8791 4553.75,1557.8791 4553.75,1557.8791 C4553.75,1557.8791 4535.75,1557.8791 4535.75,1547.8791 L4535.75,1521.8791 " fill="#E2E2F0" style="stroke:#181818;stroke-width:1.5;"/><path d="M4535.75,1521.8791 C4535.75,1531.8791 4553.75,1531.8791 4553.75,1531.8791 C4553.75,1531.8791 4571.75,1531.8791 4571.75,1521.8791 " fill="none" style="stroke:#181818;stroke-width:1.5;"/><text fill="#000000" font-family="sans-serif" font-size="20" font-style="italic" lengthAdjust="spacing" textLength="110" x="4757.25" y="72.38">«repository»</text><text fill="#000000" font-family="sans-serif" font-size="20" lengthAdjust="spacing" textLength="247" x="4688.75" y="99.62">EvaluationExamRepository</text><path d="M4797.25,15 C4797.25,5 4815.25,5 4815.25,5 C4815.25,5 4833.25,5 4833.25,15 L4833.25,41 C4833.25,51 4815.25,51 4815.25,51 C4815.25,51 4797.25,51 4797.25,41 L4797.25,15 " fill="#E2E2F0" style="stroke:#181818;stroke-width:1.5;"/><path d="M4797.25,15 C4797.25,25 4815.25,25 4815.25,25 C4815.25,25 4833.25,25 4833.25,15 " fill="none" style="stroke:#181818;stroke-width:1.5;"/><text fill="#000000" font-family="sans-serif" font-size="20" font-style="italic" lengthAdjust="spacing" textLength="110" x="4757.25" y="1478.7791">«repository»</text><text fill="#000000" font-family="sans-serif" font-size="20" lengthAdjust="spacing" textLength="247" x="4688.75" y="1506.0191">EvaluationExamRepository</text><path d="M4797.25,1521.8791 C4797.25,1511.8791 4815.25,1511.8791 4815.25,1511.8791 C4815.25,1511.8791 4833.25,1511.8791 4833.25,1521.8791 L4833.25,1547.8791 C4833.25,1557.8791 4815.25,1557.8791 4815.25,1557.8791 C4815.25,1557.8791 4797.25,1557.8791 4797.25,1547.8791 L4797.25,1521.8791 " fill="#E2E2F0" style="stroke:#181818;stroke-width:1.5;"/><path d="M4797.25,1521.8791 C4797.25,1531.8791 4815.25,1531.8791 4815.25,1531.8791 C4815.25,1531.8791 4833.25,1531.8791 4833.25,1521.8791 " fill="none" style="stroke:#181818;stroke-width:1.5;"/><rect fill="#FFFFFF" height="1324.9192" style="stroke:#181818;stroke-width:1.0;" width="10" x="39" y="115.4799"/><rect fill="#FFFFFF" height="1291.6792" style="stroke:#181818;stroke-width:1.0;" width="10" x="534.25" y="148.7199"/><rect fill="#FFFFFF" height="1209.1992" style="stroke:#181818;stroke-width:1.0;" width="10" x="1943.875" y="189.9599"/><rect fill="#FFFFFF" height="41.24" style="stroke:#181818;stroke-width:1.0;" width="10" x="2282.5" y="313.6798"/><rect fill="#FFFFFF" height="261.6798" style="stroke:#181818;stroke-width:1.0;" width="10" x="2499.5" y="478.6397"/><rect fill="#FFFFFF" height="357.1598" style="stroke:#181818;stroke-width:1.0;" width="10" x="2731" y="1000.7594"/><rect fill="#FFFFFF" height="41.24" style="stroke:#181818;stroke-width:1.0;" width="10" x="3147.25" y="650.8396"/><rect fill="#FFFFFF" height="41.24" style="stroke:#181818;stroke-width:1.0;" width="10" x="3888.75" y="519.8797"/><rect fill="#FFFFFF" height="41.24" style="stroke:#181818;stroke-width:1.0;" width="10" x="4113.25" y="1041.9994"/><rect fill="#FFFFFF" height="41.24" style="stroke:#181818;stroke-width:1.0;" width="10" x="4325.25" y="396.1598"/><rect fill="#FFFFFF" height="41.24" style="stroke:#181818;stroke-width:1.0;" width="10" x="4810.25" y="1124.4793"/><polygon fill="#181818" points="522.25,144.7199,532.25,148.7199,522.25,152.7199,526.25,148.7199" style="stroke:#181818;stroke-width:1.0;"/><line style="stroke:#181818;stroke-width:1.0;" x1="49" x2="528.25" y1="148.7199" y2="148.7199"/><text fill="#000000" font-family="sans-serif" font-size="20" font-weight="bold" lengthAdjust="spacing" textLength="11.625" x="56" y="140.8599">1</text><text fill="#000000" font-family="sans-serif" font-size="20" lengthAdjust="spacing" textLength="249" x="71.625" y="140.8599">asks to list all of his grades</text><polygon fill="#181818" points="1931.875,185.9599,1941.875,189.9599,1931.875,193.9599,1935.875,189.9599" style="stroke:#181818;stroke-width:1.0;"/><line style="stroke:#181818;stroke-width:1.0;" x1="544.25" x2="1937.875" y1="189.9599" y2="189.9599"/><text fill="#000000" font-family="sans-serif" font-size="20" font-weight="bold" lengthAdjust="spacing" textLength="11.625" x="551.25" y="182.0999">2</text><text fill="#000000" font-family="sans-serif" font-size="20" lengthAdjust="spacing" textLength="1365" x="566.875" y="182.0999">new(enrolmentRepository, examAnswerRepository, studentRepository, formativeExamRepository, evaluationExamRepository, authorizationService)</text><polygon fill="#181818" points="2492.5,227.1999,2502.5,231.1999,2492.5,235.1999,2496.5,231.1999" style="stroke:#181818;stroke-width:1.0;"/><line style="stroke:#181818;stroke-width:1.0;" x1="1953.875" x2="2498.5" y1="231.1999" y2="231.1999"/><text fill="#000000" font-family="sans-serif" font-size="20" font-weight="bold" lengthAdjust="spacing" textLength="11.625" x="1960.875" y="223.3399">3</text><text fill="#000000" font-family="sans-serif" font-size="20" lengthAdjust="spacing" textLength="323" x="1976.5" y="223.3399">service=new(enrolmentRepository)</text><polygon fill="#181818" points="1931.875,268.4398,1941.875,272.4398,1931.875,276.4398,1935.875,272.4398" style="stroke:#181818;stroke-width:1.0;"/><line style="stroke:#181818;stroke-width:1.0;" x1="544.25" x2="1937.875" y1="272.4398" y2="272.4398"/><text fill="#000000" font-family="sans-serif" font-size="20" font-weight="bold" lengthAdjust="spacing" textLength="11.625" x="551.25" y="264.5799">4</text><text fill="#000000" font-family="sans-serif" font-size="20" lengthAdjust="spacing" textLength="187" x="566.875" y="264.5799">listStudentCourses()</text><polygon fill="#181818" points="2270.5,309.6798,2280.5,313.6798,2270.5,317.6798,2274.5,313.6798" style="stroke:#181818;stroke-width:1.0;"/><line style="stroke:#181818;stroke-width:1.0;" x1="1953.875" x2="2276.5" y1="313.6798" y2="313.6798"/><text fill="#000000" font-family="sans-serif" font-size="20" font-weight="bold" lengthAdjust="spacing" textLength="11.625" x="1960.875" y="305.8198">5</text><text fill="#000000" font-family="sans-serif" font-size="20" lengthAdjust="spacing" textLength="294" x="1976.5" y="305.8198">loggedinUserWithPermissions()</text><polygon fill="#181818" points="1964.875,350.9198,1954.875,354.9198,1964.875,358.9198,1960.875,354.9198" style="stroke:#181818;stroke-width:1.0;"/><line style="stroke:#181818;stroke-width:1.0;stroke-dasharray:2.0,2.0;" x1="1958.875" x2="2286.5" y1="354.9198" y2="354.9198"/><text fill="#000000" font-family="sans-serif" font-size="20" font-weight="bold" lengthAdjust="spacing" textLength="11.625" x="1970.875" y="347.0598">6</text><text fill="#000000" font-family="sans-serif" font-size="20" lengthAdjust="spacing" textLength="172" x="1986.5" y="347.0598">authenticatedUser</text><polygon fill="#181818" points="4313.25,392.1598,4323.25,396.1598,4313.25,400.1598,4317.25,396.1598" style="stroke:#181818;stroke-width:1.0;"/><line style="stroke:#181818;stroke-width:1.0;" x1="1953.875" x2="4319.25" y1="396.1598" y2="396.1598"/><text fill="#000000" font-family="sans-serif" font-size="20" font-weight="bold" lengthAdjust="spacing" textLength="11.625" x="1960.875" y="388.2998">7</text><text fill="#000000" font-family="sans-serif" font-size="20" lengthAdjust="spacing" textLength="451" x="1976.5" y="388.2998">findByUsername(authenticatedUser.username())</text><polygon fill="#181818" points="1964.875,433.3997,1954.875,437.3997,1964.875,441.3997,1960.875,437.3997" style="stroke:#181818;stroke-width:1.0;"/><line style="stroke:#181818;stroke-width:1.0;stroke-dasharray:2.0,2.0;" x1="1958.875" x2="4329.25" y1="437.3997" y2="437.3997"/><text fill="#000000" font-family="sans-serif" font-size="20" font-weight="bold" lengthAdjust="spacing" textLength="11.625" x="1970.875" y="429.5398">8</text><text fill="#000000" font-family="sans-serif" font-size="20" lengthAdjust="spacing" textLength="71" x="1986.5" y="429.5398">student</text><polygon fill="#181818" points="2487.5,474.6397,2497.5,478.6397,2487.5,482.6397,2491.5,478.6397" style="stroke:#181818;stroke-width:1.0;"/><line style="stroke:#181818;stroke-width:1.0;" x1="1953.875" x2="2493.5" y1="478.6397" y2="478.6397"/><text fill="#000000" font-family="sans-serif" font-size="20" font-weight="bold" lengthAdjust="spacing" textLength="11.625" x="1960.875" y="470.7797">9</text><text fill="#000000" font-family="sans-serif" font-size="20" lengthAdjust="spacing" textLength="344" x="1976.5" y="470.7797">listStudentCourses(student.identity())</text><polygon fill="#181818" points="3876.75,515.8797,3886.75,519.8797,3876.75,523.8797,3880.75,519.8797" style="stroke:#181818;stroke-width:1.0;"/><line style="stroke:#181818;stroke-width:1.0;" x1="2509.5" x2="3882.75" y1="519.8797" y2="519.8797"/><text fill="#000000" font-family="sans-serif" font-size="20" font-weight="bold" lengthAdjust="spacing" textLength="23.25" x="2516.5" y="512.0197">10</text><text fill="#000000" font-family="sans-serif" font-size="20" lengthAdjust="spacing" textLength="586" x="2543.75" y="512.0197">findByStudentMecanographicNumber(mecanographicNumber)</text><polygon fill="#181818" points="2520.5,557.1197,2510.5,561.1197,2520.5,565.1197,2516.5,561.1197" style="stroke:#181818;stroke-width:1.0;"/><line style="stroke:#181818;stroke-width:1.0;stroke-dasharray:2.0,2.0;" x1="2514.5" x2="3892.75" y1="561.1197" y2="561.1197"/><text fill="#000000" font-family="sans-serif" font-size="20" font-weight="bold" lengthAdjust="spacing" textLength="23.25" x="2526.5" y="553.2597">11</text><text fill="#000000" font-family="sans-serif" font-size="20" lengthAdjust="spacing" textLength="107" x="2553.75" y="553.2597">enrolments</text><path d="M2390,576.1197 L2478.5,576.1197 L2478.5,595.3596 L2468.5,605.3596 L2390,605.3596 L2390,576.1197 " fill="#EEEEEE" style="stroke:#000000;stroke-width:1.5;"/><rect fill="none" height="123.9599" style="stroke:#000000;stroke-width:1.5;" width="955.75" x="2390" y="576.1197"/><text fill="#000000" font-family="sans-serif" font-size="20" font-weight="bold" lengthAdjust="spacing" textLength="43.5" x="2405" y="598.4997">loop</text><text fill="#000000" font-family="sans-serif" font-size="20" font-weight="bold" lengthAdjust="spacing" textLength="203.25" x="2493.5" y="599.4997">[for each enrolment]</text><polygon fill="#181818" points="3135.25,646.8396,3145.25,650.8396,3135.25,654.8396,3139.25,650.8396" style="stroke:#181818;stroke-width:1.0;"/><line style="stroke:#181818;stroke-width:1.0;" x1="2509.5" x2="3141.25" y1="650.8396" y2="650.8396"/><text fill="#000000" font-family="sans-serif" font-size="20" font-weight="bold" lengthAdjust="spacing" textLength="23.25" x="2516.5" y="642.9796">12</text><text fill="#000000" font-family="sans-serif" font-size="20" lengthAdjust="spacing" textLength="250" x="2543.75" y="642.9796">toDTO(enrolment.course())</text><polygon fill="#181818" points="3262.75,688.0796,3272.75,692.0796,3262.75,696.0796,3266.75,692.0796" style="stroke:#181818;stroke-width:1.0;"/><line style="stroke:#181818;stroke-width:1.0;" x1="3152.25" x2="3268.75" y1="692.0796" y2="692.0796"/><text fill="#000000" font-family="sans-serif" font-size="20" font-weight="bold" lengthAdjust="spacing" textLength="23.25" x="3159.25" y="684.2196">13</text><text fill="#000000" font-family="sans-serif" font-size="20" lengthAdjust="spacing" textLength="39" x="3186.5" y="684.2196">new</text><polygon fill="#181818" points="1964.875,736.3195,1954.875,740.3195,1964.875,744.3195,1960.875,740.3195" style="stroke:#181818;stroke-width:1.0;"/><line style="stroke:#181818;stroke-width:1.0;stroke-dasharray:2.0,2.0;" x1="1958.875" x2="2503.5" y1="740.3195" y2="740.3195"/><text fill="#000000" font-family="sans-serif" font-size="20" font-weight="bold" lengthAdjust="spacing" textLength="23.25" x="1970.875" y="732.4596">14</text><text fill="#000000" font-family="sans-serif" font-size="20" lengthAdjust="spacing" textLength="73" x="1998.125" y="732.4596">courses</text><polygon fill="#181818" points="555.25,777.5595,545.25,781.5595,555.25,785.5595,551.25,781.5595" style="stroke:#181818;stroke-width:1.0;"/><line style="stroke:#181818;stroke-width:1.0;stroke-dasharray:2.0,2.0;" x1="549.25" x2="1942.875" y1="781.5595" y2="781.5595"/><text fill="#000000" font-family="sans-serif" font-size="20" font-weight="bold" lengthAdjust="spacing" textLength="23.25" x="561.25" y="773.6995">15</text><text fill="#000000" font-family="sans-serif" font-size="20" lengthAdjust="spacing" textLength="73" x="588.5" y="773.6995">courses</text><polygon fill="#181818" points="60,818.7995,50,822.7995,60,826.7995,56,822.7995" style="stroke:#181818;stroke-width:1.0;"/><line style="stroke:#181818;stroke-width:1.0;stroke-dasharray:2.0,2.0;" x1="54" x2="533.25" y1="822.7995" y2="822.7995"/><text fill="#000000" font-family="sans-serif" font-size="20" font-weight="bold" lengthAdjust="spacing" textLength="23.25" x="66" y="814.9395">16</text><text fill="#000000" font-family="sans-serif" font-size="20" lengthAdjust="spacing" textLength="434" x="93.25" y="814.9395">lists all of the courses the student is enrolled in</text><polygon fill="#181818" points="522.25,860.0395,532.25,864.0395,522.25,868.0395,526.25,864.0395" style="stroke:#181818;stroke-width:1.0;"/><line style="stroke:#181818;stroke-width:1.0;" x1="49" x2="528.25" y1="864.0395" y2="864.0395"/><text fill="#000000" font-family="sans-serif" font-size="20" font-weight="bold" lengthAdjust="spacing" textLength="23.25" x="56" y="856.1795">17</text><text fill="#000000" font-family="sans-serif" font-size="20" lengthAdjust="spacing" textLength="241" x="83.25" y="856.1795">selects the desired course</text><line style="stroke:#181818;stroke-width:1.0;" x1="544.25" x2="586.25" y1="905.2794" y2="905.2794"/><line style="stroke:#181818;stroke-width:1.0;" x1="586.25" x2="586.25" y1="905.2794" y2="918.2794"/><line style="stroke:#181818;stroke-width:1.0;" x1="545.25" x2="586.25" y1="918.2794" y2="918.2794"/><polygon fill="#181818" points="555.25,914.2794,545.25,918.2794,555.25,922.2794,551.25,918.2794" style="stroke:#181818;stroke-width:1.0;"/><text fill="#000000" font-family="sans-serif" font-size="20" font-weight="bold" lengthAdjust="spacing" textLength="23.25" x="551.25" y="897.4195">18</text><text fill="#000000" font-family="sans-serif" font-size="20" lengthAdjust="spacing" textLength="364" x="578.5" y="897.4195">selectedCourse = select(courses, index)</text><polygon fill="#181818" points="1931.875,955.5194,1941.875,959.5194,1931.875,963.5194,1935.875,959.5194" style="stroke:#181818;stroke-width:1.0;"/><line style="stroke:#181818;stroke-width:1.0;" x1="544.25" x2="1937.875" y1="959.5194" y2="959.5194"/><text fill="#000000" font-family="sans-serif" font-size="20" font-weight="bold" lengthAdjust="spacing" textLength="23.25" x="551.25" y="951.6594">19</text><text fill="#000000" font-family="sans-serif" font-size="20" lengthAdjust="spacing" textLength="321" x="578.5" y="951.6594">listStudentGrades(selectedCourse)</text><polygon fill="#181818" points="2719,996.7594,2729,1000.7594,2719,1004.7594,2723,1000.7594" style="stroke:#181818;stroke-width:1.0;"/><line style="stroke:#181818;stroke-width:1.0;" x1="1953.875" x2="2725" y1="1000.7594" y2="1000.7594"/><text fill="#000000" font-family="sans-serif" font-size="20" font-weight="bold" lengthAdjust="spacing" textLength="23.25" x="1960.875" y="992.8994">20</text><text fill="#000000" font-family="sans-serif" font-size="20" lengthAdjust="spacing" textLength="321" x="1988.125" y="992.8994">listStudentGrades(selectedCourse)</text><polygon fill="#181818" points="4101.25,1037.9994,4111.25,1041.9994,4101.25,1045.9994,4105.25,1041.9994" style="stroke:#181818;stroke-width:1.0;"/><line style="stroke:#181818;stroke-width:1.0;" x1="2741" x2="4107.25" y1="1041.9994" y2="1041.9994"/><text fill="#000000" font-family="sans-serif" font-size="20" font-weight="bold" lengthAdjust="spacing" textLength="23.25" x="2748" y="1034.1394">21</text><text fill="#000000" font-family="sans-serif" font-size="20" lengthAdjust="spacing" textLength="930" x="2775.25" y="1034.1394">findAllWithStudentMecanographicNumberAndCourseCode(student.identity(), selectedCourse.code())</text><polygon fill="#181818" points="2752,1079.2393,2742,1083.2393,2752,1087.2393,2748,1083.2393" style="stroke:#181818;stroke-width:1.0;"/><line style="stroke:#181818;stroke-width:1.0;stroke-dasharray:2.0,2.0;" x1="2746" x2="4117.25" y1="1083.2393" y2="1083.2393"/><text fill="#000000" font-family="sans-serif" font-size="20" font-weight="bold" lengthAdjust="spacing" textLength="23.25" x="2758" y="1075.3794">22</text><text fill="#000000" font-family="sans-serif" font-size="20" lengthAdjust="spacing" textLength="132" x="2785.25" y="1075.3794">examAnswers</text><polygon fill="#181818" points="4798.25,1120.4793,4808.25,1124.4793,4798.25,1128.4793,4802.25,1124.4793" style="stroke:#181818;stroke-width:1.0;"/><line style="stroke:#181818;stroke-width:1.0;" x1="2741" x2="4804.25" y1="1124.4793" y2="1124.4793"/><text fill="#000000" font-family="sans-serif" font-size="20" font-weight="bold" lengthAdjust="spacing" textLength="23.25" x="2748" y="1116.6193">23</text><text fill="#000000" font-family="sans-serif" font-size="20" lengthAdjust="spacing" textLength="866" x="2775.25" y="1116.6193">findAllCourseExamsWithNoAnswersFromStudent(selectedCourse.identity(), student.identity())</text><polygon fill="#181818" points="2752,1161.7193,2742,1165.7193,2752,1169.7193,2748,1165.7193" style="stroke:#181818;stroke-width:1.0;"/><line style="stroke:#181818;stroke-width:1.0;stroke-dasharray:2.0,2.0;" x1="2746" x2="4814.25" y1="1165.7193" y2="1165.7193"/><text fill="#000000" font-family="sans-serif" font-size="20" font-weight="bold" lengthAdjust="spacing" textLength="23.25" x="2758" y="1157.8593">24</text><text fill="#000000" font-family="sans-serif" font-size="20" lengthAdjust="spacing" textLength="158" x="2785.25" y="1157.8593">evaluationExams</text><path d="M2609,1180.7193 L2697.5,1180.7193 L2697.5,1199.9593 L2687.5,1209.9593 L2609,1209.9593 L2609,1180.7193 " fill="#EEEEEE" style="stroke:#000000;stroke-width:1.5;"/><rect fill="none" height="82.7199" style="stroke:#000000;stroke-width:1.5;" width="1183.75" x="2609" y="1180.7193"/><text fill="#000000" font-family="sans-serif" font-size="20" font-weight="bold" lengthAdjust="spacing" textLength="43.5" x="2624" y="1203.0993">loop</text><text fill="#000000" font-family="sans-serif" font-size="20" font-weight="bold" lengthAdjust="spacing" textLength="155.125" x="2712.5" y="1204.0993">[for each exam]</text><path d="M3797.75,1185.7193 L3797.75,1222.7193 L4231.75,1222.7193 L4231.75,1195.7193 L4221.75,1185.7193 L3797.75,1185.7193 " fill="#FEFFDD" style="stroke:#181818;stroke-width:0.5;"/><path d="M4221.75,1185.7193 L4221.75,1195.7193 L4231.75,1195.7193 L4221.75,1185.7193 " fill="#FEFFDD" style="stroke:#181818;stroke-width:0.5;"/><text fill="#000000" font-family="sans-serif" font-size="20" lengthAdjust="spacing" textLength="413" x="3803.75" y="1212.0993">This exam answers are marked as grade N/a</text><polygon fill="#181818" points="3681.75,1251.4392,3691.75,1255.4392,3681.75,1259.4392,3685.75,1255.4392" style="stroke:#181818;stroke-width:1.0;"/><line style="stroke:#181818;stroke-width:1.0;" x1="2741" x2="3687.75" y1="1255.4392" y2="1255.4392"/><text fill="#000000" font-family="sans-serif" font-size="20" font-weight="bold" lengthAdjust="spacing" textLength="23.25" x="2748" y="1247.5792">25</text><text fill="#000000" font-family="sans-serif" font-size="20" lengthAdjust="spacing" textLength="39" x="2775.25" y="1247.5792">new</text><line style="stroke:#181818;stroke-width:1.0;" x1="2741" x2="2783" y1="1303.6792" y2="1303.6792"/><line style="stroke:#181818;stroke-width:1.0;" x1="2783" x2="2783" y1="1303.6792" y2="1316.6792"/><line style="stroke:#181818;stroke-width:1.0;" x1="2742" x2="2783" y1="1316.6792" y2="1316.6792"/><polygon fill="#181818" points="2752,1312.6792,2742,1316.6792,2752,1320.6792,2748,1316.6792" style="stroke:#181818;stroke-width:1.0;"/><text fill="#000000" font-family="sans-serif" font-size="20" font-weight="bold" lengthAdjust="spacing" textLength="23.25" x="2748" y="1295.8192">26</text><text fill="#000000" font-family="sans-serif" font-size="20" lengthAdjust="spacing" textLength="365" x="2775.25" y="1295.8192">examAnswers.addAll(evaluationExams)</text><polygon fill="#181818" points="1964.875,1353.9192,1954.875,1357.9192,1964.875,1361.9192,1960.875,1357.9192" style="stroke:#181818;stroke-width:1.0;"/><line style="stroke:#181818;stroke-width:1.0;stroke-dasharray:2.0,2.0;" x1="1958.875" x2="2735" y1="1357.9192" y2="1357.9192"/><text fill="#000000" font-family="sans-serif" font-size="20" font-weight="bold" lengthAdjust="spacing" textLength="23.25" x="1970.875" y="1350.0592">27</text><text fill="#000000" font-family="sans-serif" font-size="20" lengthAdjust="spacing" textLength="132" x="1998.125" y="1350.0592">examAnswers</text><polygon fill="#181818" points="555.25,1395.1591,545.25,1399.1591,555.25,1403.1591,551.25,1399.1591" style="stroke:#181818;stroke-width:1.0;"/><line style="stroke:#181818;stroke-width:1.0;stroke-dasharray:2.0,2.0;" x1="549.25" x2="1947.875" y1="1399.1591" y2="1399.1591"/><text fill="#000000" font-family="sans-serif" font-size="20" font-weight="bold" lengthAdjust="spacing" textLength="23.25" x="561.25" y="1391.2992">28</text><text fill="#000000" font-family="sans-serif" font-size="20" lengthAdjust="spacing" textLength="132" x="588.5" y="1391.2992">examAnswers</text><polygon fill="#181818" points="55,1436.3991,45,1440.3991,55,1444.3991,51,1440.3991" style="stroke:#181818;stroke-width:1.0;"/><line style="stroke:#181818;stroke-width:1.0;stroke-dasharray:2.0,2.0;" x1="49" x2="538.25" y1="1440.3991" y2="1440.3991"/><text fill="#000000" font-family="sans-serif" font-size="20" font-weight="bold" lengthAdjust="spacing" textLength="23.25" x="61" y="1432.5391">29</text><text fill="#000000" font-family="sans-serif" font-size="20" lengthAdjust="spacing" textLength="408" x="88.25" y="1432.5391">lists all of the grades for the selected course</text><!--SRC=[XLPTJzim57tthxZYgPKAc_Q80AdhmeO4RAAKyUebXbeaTcMxVEpNxrxRYPsqwLwgDZddtEFhS-tQ5wastF2crkMBgA0IJtnRkqkjt5B-5V3bC-DRfzMs-ICCOxnqsi3HqcqheTmHS0jBXdmdIxdXoi7HjRGkllvkU2Niwih3LbTmThOnmk8BxgHM5nV_8IxGWz5rBOmNMDpVNQC4tsngMUvLc6_TMXlvrxzS2lCgI-6fyzNz3wJQy6XVuK9XfGPBvxJbtSD_ME-ycIlx9anEAmxo5dfhR00k45NfXakr7_Jj_cV0uHU2EZt4aO5Gyt5-awljmeBF01wjcu1jxIAlpIhk-1zk1NJzkXCRRIM6uiEZxufVY3RTGoGbJYS-83qUOiL8z2dBGunBRHgCmAkWWdtU9VNfeCTNNczzVdR9nGYPXaA-SeTU6Ll2yGLb_HGPBnQSXXg30hokGJ_1Mbfuzk5EfDKLOqX0ca_uAIZnDX6x_Ps1sDF06TXXWsRmjBy3g32ol1dmFRCpJIR96lF-q2Vb-nHYliz7x4u7gwhJU8TqsycqK_G3YXZz_2mggLQe_LkwzIzX6cajEY9mPuRGp5EEapuj0BNfQ10L2R1Az1d9FkxXAJn9LNtz8AJYZPZiy4-sxQjfLfl8p2jajUCMv1Kzhj-mFHs8n1D9dz9z34ezC6AYG95RZXetekHAOvesQrdU-lDvqkm-omH9XHMjzs2gspcRk_T8LckzeIm1lbWd90E8jXOeu3IU42a09wLV6Yq48CK7VomyWuuJ7t5yaXLSCA4ge88ih3arDmZQVdCVOc_ROMj1FdEqkDXlsquURcuByjzZvm47qdklyUwJAfzVAsfHke36WPK64K4X1Zj3YIhiA9p71vDOQuQYbNYVZiv2kEecVPaq6CLET4O8QUkeEKMRcySKd7bTqqoDfsUkejf2Ls9FD6U3nU9ML_tXyELOA7gStATpgnyoZqvUs-ErinlAq4bboVcjZYANHZTn6OC-zDqU6gws6klAvePxnsJVTCiRJWS2CTBTObBEKx2LHW4ZdzSqGlTq5n0BU5WLS2EWuOR-XV5uJS3j9-u5Y9grQgUl9xoYZaq6pgSj9sLlR3DsPse4wQ-2GsCMBZZV6ZzfSOVQuScawEhBnvhz0m00]--></g></svg>