<?xml version="1.0" encoding="UTF-8" standalone="no"?><svg xmlns="http://www.w3.org/2000/svg" xmlns:xlink="http://www.w3.org/1999/xlink" contentStyleType="text/css" height="64px" preserveAspectRatio="none" style="width:143px;height:64px;background:#FFFFFF;" version="1.1" viewBox="0 0 143 64" width="143px" zoomAndPan="magnify"><defs/><g><!--class A--><g id="elem_A"><rect codeLine="2" fill="#F1F1F1" height="50" id="A" rx="2.5" ry="2.5" style="stroke:#181818;stroke-width:0.5;" width="48" x="7" y="7"/><ellipse cx="23" cy="24" fill="#ADD1B2" rx="12" ry="12" style="stroke:#181818;stroke-width:1.0;"/><path d="M25.8066,31.0801 Q25.123,31.4316 24.3711,31.6074 Q23.6191,31.7832 22.7891,31.7832 Q19.8398,31.7832 18.2871,29.8398 Q16.7344,27.8965 16.7344,24.2246 Q16.7344,20.543 18.2871,18.5996 Q19.8398,16.6563 22.7891,16.6563 Q23.6191,16.6563 24.3809,16.832 Q25.1426,17.0078 25.8066,17.3594 L25.8066,20.5625 Q25.0645,19.8789 24.3662,19.5615 Q23.668,19.2441 22.9258,19.2441 Q21.3438,19.2441 20.5381,20.499 Q19.7324,21.7539 19.7324,24.2246 Q19.7324,26.6855 20.5381,27.9404 Q21.3438,29.1953 22.9258,29.1953 Q23.668,29.1953 24.3662,28.8779 Q25.0645,28.5605 25.8066,27.877 Z " fill="#000000"/><text fill="#000000" font-family="sans-serif" font-size="20" lengthAdjust="spacing" textLength="14" x="38" y="31.5586">A</text><line style="stroke:#181818;stroke-width:0.5;" x1="8" x2="54" y1="41" y2="41"/><line style="stroke:#181818;stroke-width:0.5;" x1="8" x2="54" y1="49" y2="49"/></g><!--class B--><g id="elem_B"><rect codeLine="6" fill="#F1F1F1" height="50" id="B" rx="2.5" ry="2.5" style="stroke:#181818;stroke-width:0.5;" width="46" x="90" y="7"/><ellipse cx="106" cy="24" fill="#ADD1B2" rx="12" ry="12" style="stroke:#181818;stroke-width:1.0;"/><path d="M108.8066,31.0801 Q108.123,31.4316 107.3711,31.6074 Q106.6191,31.7832 105.7891,31.7832 Q102.8398,31.7832 101.2871,29.8398 Q99.7344,27.8965 99.7344,24.2246 Q99.7344,20.543 101.2871,18.5996 Q102.8398,16.6563 105.7891,16.6563 Q106.6191,16.6563 107.3809,16.832 Q108.1426,17.0078 108.8066,17.3594 L108.8066,20.5625 Q108.0645,19.8789 107.3662,19.5615 Q106.668,19.2441 105.9258,19.2441 Q104.3438,19.2441 103.5381,20.499 Q102.7324,21.7539 102.7324,24.2246 Q102.7324,26.6855 103.5381,27.9404 Q104.3438,29.1953 105.9258,29.1953 Q106.668,29.1953 107.3662,28.8779 Q108.0645,28.5605 108.8066,27.877 Z " fill="#000000"/><text fill="#000000" font-family="sans-serif" font-size="20" lengthAdjust="spacing" textLength="12" x="121" y="31.5586">B</text><line style="stroke:#181818;stroke-width:0.5;" x1="91" x2="135" y1="41" y2="41"/><line style="stroke:#181818;stroke-width:0.5;" x1="91" x2="135" y1="49" y2="49"/></g><!--link A to B--><g id="link_A_B"><path codeLine="10" d="M55.34,32 C64.62,32 73.89,32 83.16,32 " fill="none" id="A-to-B" style="stroke:#181818;stroke-width:1.0;"/><polygon fill="#181818" points="88.06,32,79.06,28,83.06,32,79.06,36,88.06,32" style="stroke:#181818;stroke-width:1.0;"/></g><!--SRC=[AyxEp2j8B4hCpSbFpavDKKX9JKiipIbnoyyh2SwiIbKmCk3YIiv9B2vMS5IevkAgXV6Se3n71Lqx1ISk0000]--></g></svg>