<?xml version="1.0" encoding="UTF-8" standalone="no"?><svg xmlns="http://www.w3.org/2000/svg" xmlns:xlink="http://www.w3.org/1999/xlink" contentStyleType="text/css" height="1450px" preserveAspectRatio="none" style="width:862px;height:1450px;background:#FFFFFF;" version="1.1" viewBox="0 0 862 1450" width="862px" zoomAndPan="magnify"><defs/><g><!--class ToggleCourseStatusUI--><g id="elem_ToggleCourseStatusUI"><rect codeLine="2" fill="#F1F1F1" height="53.24" id="ToggleCourseStatusUI" rx="2.5" ry="2.5" style="stroke:#181818;stroke-width:0.5;" width="252" x="297.35" y="7"/><ellipse cx="313.35" cy="25.62" fill="#ADD1B2" rx="12" ry="12" style="stroke:#181818;stroke-width:1.0;"/><path d="M313.475,19.9637 Q312.3969,19.9637 311.5375,20.3387 Q310.6781,20.6981 310.0844,21.4012 Q309.4906,22.0887 309.1625,23.1044 Q308.85,24.12 308.85,25.4169 Q308.85,27.12 309.3656,28.3544 Q309.8813,29.5731 310.8969,30.2294 Q311.9125,30.87 313.4594,30.87 Q314.3656,30.87 315.1781,30.7137 Q315.9906,30.5575 317.1781,30.1981 L317.1781,32.4012 Q316.1469,32.7762 315.2719,32.9169 Q314.3969,33.0731 313.1938,33.0731 Q310.9125,33.0731 309.3813,32.1356 Q307.85,31.1825 307.0844,29.4481 Q306.3188,27.6981 306.3188,25.4012 Q306.3188,23.7294 306.7875,22.3387 Q307.2563,20.9481 308.1625,19.9169 Q309.0844,18.87 310.4281,18.3231 Q311.7719,17.7606 313.4906,17.7606 Q314.6313,17.7606 315.6781,17.995 Q316.7406,18.2137 317.8344,18.7762 L316.8656,20.8387 Q315.9438,20.4325 315.1625,20.1981 Q314.3813,19.9637 313.475,19.9637 Z " fill="#000000"/><text fill="#000000" font-family="sans-serif" font-size="20" lengthAdjust="spacing" textLength="218" x="328.35" y="33.38">ToggleCourseStatusUI</text><line style="stroke:#181818;stroke-width:0.5;" x1="298.35" x2="548.35" y1="44.24" y2="44.24"/><line style="stroke:#181818;stroke-width:0.5;" x1="298.35" x2="548.35" y1="52.24" y2="52.24"/></g><!--class ToggleCourseStatusController--><g id="elem_ToggleCourseStatusController"><rect codeLine="6" fill="#F1F1F1" height="271.1598" id="ToggleCourseStatusController" rx="2.5" ry="2.5" style="stroke:#181818;stroke-width:0.5;" width="328" x="259.35" y="120"/><ellipse cx="275.35" cy="138.62" fill="#ADD1B2" rx="12" ry="12" style="stroke:#181818;stroke-width:1.0;"/><path d="M275.475,132.9637 Q274.3969,132.9637 273.5375,133.3387 Q272.6781,133.6981 272.0844,134.4012 Q271.4906,135.0887 271.1625,136.1044 Q270.85,137.12 270.85,138.4169 Q270.85,140.12 271.3656,141.3544 Q271.8813,142.5731 272.8969,143.2294 Q273.9125,143.87 275.4594,143.87 Q276.3656,143.87 277.1781,143.7137 Q277.9906,143.5575 279.1781,143.1981 L279.1781,145.4012 Q278.1469,145.7762 277.2719,145.9169 Q276.3969,146.0731 275.1938,146.0731 Q272.9125,146.0731 271.3813,145.1356 Q269.85,144.1825 269.0844,142.4481 Q268.3188,140.6981 268.3188,138.4012 Q268.3188,136.7294 268.7875,135.3387 Q269.2563,133.9481 270.1625,132.9169 Q271.0844,131.87 272.4281,131.3231 Q273.7719,130.7606 275.4906,130.7606 Q276.6313,130.7606 277.6781,130.995 Q278.7406,131.2137 279.8344,131.7762 L278.8656,133.8387 Q277.9438,133.4325 277.1625,133.1981 Q276.3813,132.9637 275.475,132.9637 Z " fill="#000000"/><text fill="#000000" font-family="sans-serif" font-size="20" lengthAdjust="spacing" textLength="294" x="290.35" y="146.38">ToggleCourseStatusController</text><line style="stroke:#181818;stroke-width:0.5;" x1="260.35" x2="586.35" y1="157.24" y2="157.24"/><rect fill="none" height="6" style="stroke:#C82930;stroke-width:1.0;" width="6" x="267.35" y="173.36"/><text fill="#000000" font-family="sans-serif" font-size="20" lengthAdjust="spacing" textLength="166" x="280.35" y="182.62">courseListService</text><rect fill="none" height="6" style="stroke:#C82930;stroke-width:1.0;" width="6" x="267.35" y="200.5999"/><text fill="#000000" font-family="sans-serif" font-size="20" lengthAdjust="spacing" textLength="167" x="280.35" y="209.8599">courseRepository</text><rect fill="none" height="6" style="stroke:#C82930;stroke-width:1.0;" width="6" x="267.35" y="227.8399"/><text fill="#000000" font-family="sans-serif" font-size="20" lengthAdjust="spacing" textLength="199" x="280.35" y="237.0999">authorizationService</text><line style="stroke:#181818;stroke-width:0.5;" x1="260.35" x2="586.35" y1="246.9599" y2="246.9599"/><ellipse cx="270.35" cy="266.0799" fill="#84BE84" rx="3" ry="3" style="stroke:#038048;stroke-width:1.0;"/><text fill="#000000" font-family="sans-serif" font-size="20" lengthAdjust="spacing" textLength="171" x="280.35" y="272.3399">listOpenCourses()</text><ellipse cx="270.35" cy="293.3199" fill="#84BE84" rx="3" ry="3" style="stroke:#038048;stroke-width:1.0;"/><text fill="#000000" font-family="sans-serif" font-size="20" lengthAdjust="spacing" textLength="183" x="280.35" y="299.5799">listClosedCourses()</text><ellipse cx="270.35" cy="320.5598" fill="#84BE84" rx="3" ry="3" style="stroke:#038048;stroke-width:1.0;"/><text fill="#000000" font-family="sans-serif" font-size="20" lengthAdjust="spacing" textLength="225" x="280.35" y="326.8198">listInProgressCourses()</text><ellipse cx="270.35" cy="347.7998" fill="#84BE84" rx="3" ry="3" style="stroke:#038048;stroke-width:1.0;"/><text fill="#000000" font-family="sans-serif" font-size="20" lengthAdjust="spacing" textLength="250" x="280.35" y="354.0598">toggleToPreviousCourse()</text><ellipse cx="270.35" cy="375.0398" fill="#84BE84" rx="3" ry="3" style="stroke:#038048;stroke-width:1.0;"/><text fill="#000000" font-family="sans-serif" font-size="20" lengthAdjust="spacing" textLength="213" x="280.35" y="381.2998">toggleToNextCourse()</text></g><!--class Course--><g id="elem_Course"><rect codeLine="18" fill="#F1F1F1" height="325.6397" id="Course" rx="2.5" ry="2.5" style="stroke:#181818;stroke-width:0.5;" width="242" x="18.35" y="700"/><ellipse cx="101.35" cy="718.62" fill="#ADD1B2" rx="12" ry="12" style="stroke:#181818;stroke-width:1.0;"/><path d="M101.475,712.9637 Q100.3969,712.9637 99.5375,713.3387 Q98.6781,713.6981 98.0844,714.4012 Q97.4906,715.0887 97.1625,716.1044 Q96.85,717.12 96.85,718.4169 Q96.85,720.12 97.3656,721.3544 Q97.8813,722.5731 98.8969,723.2294 Q99.9125,723.87 101.4594,723.87 Q102.3656,723.87 103.1781,723.7137 Q103.9906,723.5575 105.1781,723.1981 L105.1781,725.4012 Q104.1469,725.7762 103.2719,725.9169 Q102.3969,726.0731 101.1938,726.0731 Q98.9125,726.0731 97.3813,725.1356 Q95.85,724.1825 95.0844,722.4481 Q94.3188,720.6981 94.3188,718.4012 Q94.3188,716.7294 94.7875,715.3387 Q95.2563,713.9481 96.1625,712.9169 Q97.0844,711.87 98.4281,711.3231 Q99.7719,710.7606 101.4906,710.7606 Q102.6313,710.7606 103.6781,710.995 Q104.7406,711.2137 105.8344,711.7762 L104.8656,713.8387 Q103.9438,713.4325 103.1625,713.1981 Q102.3813,712.9637 101.475,712.9637 Z " fill="#000000"/><text fill="#000000" font-family="sans-serif" font-size="20" lengthAdjust="spacing" textLength="67" x="123.35" y="726.38">Course</text><line style="stroke:#181818;stroke-width:0.5;" x1="19.35" x2="259.35" y1="737.24" y2="737.24"/><rect fill="none" height="6" style="stroke:#C82930;stroke-width:1.0;" width="6" x="26.35" y="753.36"/><text fill="#000000" font-family="sans-serif" font-size="20" lengthAdjust="spacing" textLength="45" x="39.35" y="762.62">code</text><rect fill="none" height="6" style="stroke:#C82930;stroke-width:1.0;" width="6" x="26.35" y="780.5999"/><text fill="#000000" font-family="sans-serif" font-size="20" lengthAdjust="spacing" textLength="39" x="39.35" y="789.8599">title</text><rect fill="none" height="6" style="stroke:#C82930;stroke-width:1.0;" width="6" x="26.35" y="807.8399"/><text fill="#000000" font-family="sans-serif" font-size="20" lengthAdjust="spacing" textLength="110" x="39.35" y="817.0999">description</text><rect fill="none" height="6" style="stroke:#C82930;stroke-width:1.0;" width="6" x="26.35" y="835.0799"/><text fill="#000000" font-family="sans-serif" font-size="20" lengthAdjust="spacing" textLength="162" x="39.35" y="844.3399">enrolmentLimits</text><rect fill="none" height="6" style="stroke:#C82930;stroke-width:1.0;" width="6" x="26.35" y="862.3199"/><text fill="#000000" font-family="sans-serif" font-size="20" lengthAdjust="spacing" textLength="113" x="39.35" y="871.5799">courseState</text><rect fill="none" height="6" style="stroke:#C82930;stroke-width:1.0;" width="6" x="26.35" y="889.5598"/><text fill="#000000" font-family="sans-serif" font-size="20" lengthAdjust="spacing" textLength="215" x="39.35" y="898.8198">courseEnrolmentState</text><rect fill="none" height="6" style="stroke:#C82930;stroke-width:1.0;" width="6" x="26.35" y="916.7998"/><text fill="#000000" font-family="sans-serif" font-size="20" lengthAdjust="spacing" textLength="93" x="39.35" y="926.0598">createdAt</text><line style="stroke:#181818;stroke-width:0.5;" x1="19.35" x2="259.35" y1="935.9198" y2="935.9198"/><ellipse cx="29.35" cy="955.0398" fill="#84BE84" rx="3" ry="3" style="stroke:#038048;stroke-width:1.0;"/><text fill="#000000" font-family="sans-serif" font-size="20" lengthAdjust="spacing" textLength="66" x="39.35" y="961.2998">toDto()</text><ellipse cx="29.35" cy="982.2798" fill="#84BE84" rx="3" ry="3" style="stroke:#038048;stroke-width:1.0;"/><text fill="#000000" font-family="sans-serif" font-size="20" lengthAdjust="spacing" textLength="145" x="39.35" y="988.5398">previousState()</text><ellipse cx="29.35" cy="1009.5197" fill="#84BE84" rx="3" ry="3" style="stroke:#038048;stroke-width:1.0;"/><text fill="#000000" font-family="sans-serif" font-size="20" lengthAdjust="spacing" textLength="104" x="39.35" y="1015.7797">nextState()</text></g><!--class RepositoryFactory--><g id="elem_RepositoryFactory"><rect codeLine="31" fill="#F1F1F1" height="80.4799" id="RepositoryFactory" rx="2.5" ry="2.5" style="stroke:#181818;stroke-width:0.5;" width="212" x="643.35" y="823"/><ellipse cx="661.6" cy="841.62" fill="#ADD1B2" rx="12" ry="12" style="stroke:#181818;stroke-width:1.0;"/><path d="M661.725,835.9637 Q660.6469,835.9637 659.7875,836.3387 Q658.9281,836.6981 658.3344,837.4012 Q657.7406,838.0887 657.4125,839.1044 Q657.1,840.12 657.1,841.4169 Q657.1,843.12 657.6156,844.3544 Q658.1313,845.5731 659.1469,846.2294 Q660.1625,846.87 661.7094,846.87 Q662.6156,846.87 663.4281,846.7137 Q664.2406,846.5575 665.4281,846.1981 L665.4281,848.4012 Q664.3969,848.7762 663.5219,848.9169 Q662.6469,849.0731 661.4438,849.0731 Q659.1625,849.0731 657.6313,848.1356 Q656.1,847.1825 655.3344,845.4481 Q654.5688,843.6981 654.5688,841.4012 Q654.5688,839.7294 655.0375,838.3387 Q655.5063,836.9481 656.4125,835.9169 Q657.3344,834.87 658.6781,834.3231 Q660.0219,833.7606 661.7406,833.7606 Q662.8813,833.7606 663.9281,833.995 Q664.9906,834.2137 666.0844,834.7762 L665.1156,836.8387 Q664.1938,836.4325 663.4125,836.1981 Q662.6313,835.9637 661.725,835.9637 Z " fill="#000000"/><text fill="#000000" font-family="sans-serif" font-size="20" lengthAdjust="spacing" textLength="173" x="677.1" y="849.38">RepositoryFactory</text><line style="stroke:#181818;stroke-width:0.5;" x1="644.35" x2="854.35" y1="860.24" y2="860.24"/><line style="stroke:#181818;stroke-width:0.5;" x1="644.35" x2="854.35" y1="868.24" y2="868.24"/><ellipse cx="654.35" cy="887.36" fill="#84BE84" rx="3" ry="3" style="stroke:#038048;stroke-width:1.0;"/><text fill="#000000" font-family="sans-serif" font-size="20" lengthAdjust="spacing" textLength="185" x="664.35" y="893.62">RepositoryFactory()</text></g><!--class CourseRepository--><g id="elem_CourseRepository"><rect codeLine="35" fill="#F1F1F1" height="134.9599" id="CourseRepository" rx="2.5" ry="2.5" style="stroke:#181818;stroke-width:0.5;" width="210" x="426.35" y="1086"/><ellipse cx="451.8" cy="1104.62" fill="#B4A7E5" rx="12" ry="12" style="stroke:#181818;stroke-width:1.0;"/><path d="M454.3781,1112.12 L448.5969,1112.12 L448.5969,1110.5106 L450.2844,1110.1356 L450.2844,1099.2137 L448.5969,1098.8231 L448.5969,1097.2137 L454.3781,1097.2137 L454.3781,1098.8231 L452.7063,1099.2137 L452.7063,1110.1356 L454.3781,1110.5106 L454.3781,1112.12 Z " fill="#000000"/><text fill="#000000" font-family="sans-serif" font-size="20" font-style="italic" lengthAdjust="spacing" textLength="155" x="468.9" y="1112.38">CourseRepository</text><line style="stroke:#181818;stroke-width:0.5;" x1="427.35" x2="635.35" y1="1123.24" y2="1123.24"/><line style="stroke:#181818;stroke-width:0.5;" x1="427.35" x2="635.35" y1="1131.24" y2="1131.24"/><ellipse cx="437.35" cy="1150.36" fill="#84BE84" rx="3" ry="3" style="stroke:#038048;stroke-width:1.0;"/><text fill="#000000" font-family="sans-serif" font-size="20" lengthAdjust="spacing" textLength="129" x="447.35" y="1156.62">findAllOpen()</text><ellipse cx="437.35" cy="1177.5999" fill="#84BE84" rx="3" ry="3" style="stroke:#038048;stroke-width:1.0;"/><text fill="#000000" font-family="sans-serif" font-size="20" lengthAdjust="spacing" textLength="141" x="447.35" y="1183.8599">findAllClosed()</text><ellipse cx="437.35" cy="1204.8399" fill="#84BE84" rx="3" ry="3" style="stroke:#038048;stroke-width:1.0;"/><text fill="#000000" font-family="sans-serif" font-size="20" lengthAdjust="spacing" textLength="183" x="447.35" y="1211.0999">findAllInProgress()</text></g><!--class CourseListService--><g id="elem_CourseListService"><rect codeLine="42" fill="#F1F1F1" height="189.4398" id="CourseListService" rx="2.5" ry="2.5" style="stroke:#181818;stroke-width:0.5;" width="340" x="253.35" y="451"/><ellipse cx="334.35" cy="469.62" fill="#ADD1B2" rx="12" ry="12" style="stroke:#181818;stroke-width:1.0;"/><path d="M334.475,463.9637 Q333.3969,463.9637 332.5375,464.3387 Q331.6781,464.6981 331.0844,465.4012 Q330.4906,466.0887 330.1625,467.1044 Q329.85,468.12 329.85,469.4169 Q329.85,471.12 330.3656,472.3544 Q330.8813,473.5731 331.8969,474.2294 Q332.9125,474.87 334.4594,474.87 Q335.3656,474.87 336.1781,474.7137 Q336.9906,474.5575 338.1781,474.1981 L338.1781,476.4012 Q337.1469,476.7762 336.2719,476.9169 Q335.3969,477.0731 334.1938,477.0731 Q331.9125,477.0731 330.3813,476.1356 Q328.85,475.1825 328.0844,473.4481 Q327.3188,471.6981 327.3188,469.4012 Q327.3188,467.7294 327.7875,466.3387 Q328.2563,464.9481 329.1625,463.9169 Q330.0844,462.87 331.4281,462.3231 Q332.7719,461.7606 334.4906,461.7606 Q335.6313,461.7606 336.6781,461.995 Q337.7406,462.2137 338.8344,462.7762 L337.8656,464.8387 Q336.9438,464.4325 336.1625,464.1981 Q335.3813,463.9637 334.475,463.9637 Z " fill="#000000"/><text fill="#000000" font-family="sans-serif" font-size="20" lengthAdjust="spacing" textLength="169" x="356.35" y="477.38">CourseListService</text><line style="stroke:#181818;stroke-width:0.5;" x1="254.35" x2="592.35" y1="488.24" y2="488.24"/><rect fill="none" height="6" style="stroke:#C82930;stroke-width:1.0;" width="6" x="261.35" y="504.36"/><text fill="#000000" font-family="sans-serif" font-size="20" lengthAdjust="spacing" textLength="167" x="274.35" y="513.62">courseRepository</text><line style="stroke:#181818;stroke-width:0.5;" x1="254.35" x2="592.35" y1="523.4799" y2="523.4799"/><ellipse cx="264.35" cy="542.5999" fill="#84BE84" rx="3" ry="3" style="stroke:#038048;stroke-width:1.0;"/><text fill="#000000" font-family="sans-serif" font-size="20" lengthAdjust="spacing" textLength="313" x="274.35" y="548.8599">CourseService(courseRepository)</text><ellipse cx="264.35" cy="569.8399" fill="#84BE84" rx="3" ry="3" style="stroke:#038048;stroke-width:1.0;"/><text fill="#000000" font-family="sans-serif" font-size="20" lengthAdjust="spacing" textLength="183" x="274.35" y="576.0999">listClosedCourses()</text><ellipse cx="264.35" cy="597.0799" fill="#84BE84" rx="3" ry="3" style="stroke:#038048;stroke-width:1.0;"/><text fill="#000000" font-family="sans-serif" font-size="20" lengthAdjust="spacing" textLength="171" x="274.35" y="603.3399">listOpenCourses()</text><ellipse cx="264.35" cy="624.3199" fill="#84BE84" rx="3" ry="3" style="stroke:#038048;stroke-width:1.0;"/><text fill="#000000" font-family="sans-serif" font-size="20" lengthAdjust="spacing" textLength="225" x="274.35" y="630.5799">listInProgressCourses()</text></g><!--class CourseDTO--><g id="elem_CourseDTO"><rect codeLine="51" fill="#F1F1F1" height="243.9198" id="CourseDTO" rx="2.5" ry="2.5" style="stroke:#181818;stroke-width:0.5;" width="242" x="366.35" y="741"/><ellipse cx="428.35" cy="759.62" fill="#ADD1B2" rx="12" ry="12" style="stroke:#181818;stroke-width:1.0;"/><path d="M428.475,753.9637 Q427.3969,753.9637 426.5375,754.3387 Q425.6781,754.6981 425.0844,755.4012 Q424.4906,756.0887 424.1625,757.1044 Q423.85,758.12 423.85,759.4169 Q423.85,761.12 424.3656,762.3544 Q424.8813,763.5731 425.8969,764.2294 Q426.9125,764.87 428.4594,764.87 Q429.3656,764.87 430.1781,764.7137 Q430.9906,764.5575 432.1781,764.1981 L432.1781,766.4012 Q431.1469,766.7762 430.2719,766.9169 Q429.3969,767.0731 428.1938,767.0731 Q425.9125,767.0731 424.3813,766.1356 Q422.85,765.1825 422.0844,763.4481 Q421.3188,761.6981 421.3188,759.4012 Q421.3188,757.7294 421.7875,756.3387 Q422.2563,754.9481 423.1625,753.9169 Q424.0844,752.87 425.4281,752.3231 Q426.7719,751.7606 428.4906,751.7606 Q429.6313,751.7606 430.6781,751.995 Q431.7406,752.2137 432.8344,752.7762 L431.8656,754.8387 Q430.9438,754.4325 430.1625,754.1981 Q429.3813,753.9637 428.475,753.9637 Z " fill="#000000"/><text fill="#000000" font-family="sans-serif" font-size="20" lengthAdjust="spacing" textLength="109" x="450.35" y="767.38">CourseDTO</text><line style="stroke:#181818;stroke-width:0.5;" x1="367.35" x2="607.35" y1="778.24" y2="778.24"/><rect fill="none" height="6" style="stroke:#C82930;stroke-width:1.0;" width="6" x="374.35" y="794.36"/><text fill="#000000" font-family="sans-serif" font-size="20" lengthAdjust="spacing" textLength="45" x="387.35" y="803.62">code</text><rect fill="none" height="6" style="stroke:#C82930;stroke-width:1.0;" width="6" x="374.35" y="821.5999"/><text fill="#000000" font-family="sans-serif" font-size="20" lengthAdjust="spacing" textLength="39" x="387.35" y="830.8599">title</text><rect fill="none" height="6" style="stroke:#C82930;stroke-width:1.0;" width="6" x="374.35" y="848.8399"/><text fill="#000000" font-family="sans-serif" font-size="20" lengthAdjust="spacing" textLength="110" x="387.35" y="858.0999">description</text><rect fill="none" height="6" style="stroke:#C82930;stroke-width:1.0;" width="6" x="374.35" y="876.0799"/><text fill="#000000" font-family="sans-serif" font-size="20" lengthAdjust="spacing" textLength="162" x="387.35" y="885.3399">enrolmentLimits</text><rect fill="none" height="6" style="stroke:#C82930;stroke-width:1.0;" width="6" x="374.35" y="903.3199"/><text fill="#000000" font-family="sans-serif" font-size="20" lengthAdjust="spacing" textLength="113" x="387.35" y="912.5799">courseState</text><rect fill="none" height="6" style="stroke:#C82930;stroke-width:1.0;" width="6" x="374.35" y="930.5598"/><text fill="#000000" font-family="sans-serif" font-size="20" lengthAdjust="spacing" textLength="215" x="387.35" y="939.8198">courseEnrolmentState</text><rect fill="none" height="6" style="stroke:#C82930;stroke-width:1.0;" width="6" x="374.35" y="957.7998"/><text fill="#000000" font-family="sans-serif" font-size="20" lengthAdjust="spacing" textLength="93" x="387.35" y="967.0598">createdAt</text><line style="stroke:#181818;stroke-width:0.5;" x1="367.35" x2="607.35" y1="976.9198" y2="976.9198"/></g><!--class InMemoryCourseRepository--><g id="elem_InMemoryCourseRepository"><rect codeLine="61" fill="#F1F1F1" height="162.1999" id="InMemoryCourseRepository" rx="2.5" ry="2.5" style="stroke:#181818;stroke-width:0.5;" width="303" x="227.85" y="1281"/><ellipse cx="243.85" cy="1299.62" fill="#ADD1B2" rx="12" ry="12" style="stroke:#181818;stroke-width:1.0;"/><path d="M243.975,1293.9637 Q242.8969,1293.9637 242.0375,1294.3387 Q241.1781,1294.6981 240.5844,1295.4012 Q239.9906,1296.0887 239.6625,1297.1044 Q239.35,1298.12 239.35,1299.4169 Q239.35,1301.12 239.8656,1302.3544 Q240.3813,1303.5731 241.3969,1304.2294 Q242.4125,1304.87 243.9594,1304.87 Q244.8656,1304.87 245.6781,1304.7137 Q246.4906,1304.5575 247.6781,1304.1981 L247.6781,1306.4012 Q246.6469,1306.7762 245.7719,1306.9169 Q244.8969,1307.0731 243.6938,1307.0731 Q241.4125,1307.0731 239.8813,1306.1356 Q238.35,1305.1825 237.5844,1303.4481 Q236.8188,1301.6981 236.8188,1299.4012 Q236.8188,1297.7294 237.2875,1296.3387 Q237.7563,1294.9481 238.6625,1293.9169 Q239.5844,1292.87 240.9281,1292.3231 Q242.2719,1291.7606 243.9906,1291.7606 Q245.1313,1291.7606 246.1781,1291.995 Q247.2406,1292.2137 248.3344,1292.7762 L247.3656,1294.8387 Q246.4438,1294.4325 245.6625,1294.1981 Q244.8813,1293.9637 243.975,1293.9637 Z " fill="#000000"/><text fill="#000000" font-family="sans-serif" font-size="20" lengthAdjust="spacing" textLength="269" x="258.85" y="1307.38">InMemoryCourseRepository</text><line style="stroke:#181818;stroke-width:0.5;" x1="228.85" x2="529.85" y1="1318.24" y2="1318.24"/><line style="stroke:#181818;stroke-width:0.5;" x1="228.85" x2="529.85" y1="1326.24" y2="1326.24"/><ellipse cx="238.85" cy="1345.36" fill="#84BE84" rx="3" ry="3" style="stroke:#038048;stroke-width:1.0;"/><text fill="#000000" font-family="sans-serif" font-size="20" lengthAdjust="spacing" textLength="118" x="248.85" y="1351.62">save(course)</text><ellipse cx="238.85" cy="1372.5999" fill="#84BE84" rx="3" ry="3" style="stroke:#038048;stroke-width:1.0;"/><text fill="#000000" font-family="sans-serif" font-size="20" lengthAdjust="spacing" textLength="129" x="248.85" y="1378.8599">findAllOpen()</text><ellipse cx="238.85" cy="1399.8399" fill="#84BE84" rx="3" ry="3" style="stroke:#038048;stroke-width:1.0;"/><text fill="#000000" font-family="sans-serif" font-size="20" lengthAdjust="spacing" textLength="141" x="248.85" y="1406.0999">findAllClosed()</text><ellipse cx="238.85" cy="1427.0799" fill="#84BE84" rx="3" ry="3" style="stroke:#038048;stroke-width:1.0;"/><text fill="#000000" font-family="sans-serif" font-size="20" lengthAdjust="spacing" textLength="183" x="248.85" y="1433.3399">findAllInProgress()</text></g><!--class JpaCourseRepository--><g id="elem_JpaCourseRepository"><rect codeLine="68" fill="#F1F1F1" height="162.1999" id="JpaCourseRepository" rx="2.5" ry="2.5" style="stroke:#181818;stroke-width:0.5;" width="234" x="566.35" y="1281"/><ellipse cx="582.35" cy="1299.62" fill="#ADD1B2" rx="12" ry="12" style="stroke:#181818;stroke-width:1.0;"/><path d="M582.475,1293.9637 Q581.3969,1293.9637 580.5375,1294.3387 Q579.6781,1294.6981 579.0844,1295.4012 Q578.4906,1296.0887 578.1625,1297.1044 Q577.85,1298.12 577.85,1299.4169 Q577.85,1301.12 578.3656,1302.3544 Q578.8813,1303.5731 579.8969,1304.2294 Q580.9125,1304.87 582.4594,1304.87 Q583.3656,1304.87 584.1781,1304.7137 Q584.9906,1304.5575 586.1781,1304.1981 L586.1781,1306.4012 Q585.1469,1306.7762 584.2719,1306.9169 Q583.3969,1307.0731 582.1938,1307.0731 Q579.9125,1307.0731 578.3813,1306.1356 Q576.85,1305.1825 576.0844,1303.4481 Q575.3188,1301.6981 575.3188,1299.4012 Q575.3188,1297.7294 575.7875,1296.3387 Q576.2563,1294.9481 577.1625,1293.9169 Q578.0844,1292.87 579.4281,1292.3231 Q580.7719,1291.7606 582.4906,1291.7606 Q583.6313,1291.7606 584.6781,1291.995 Q585.7406,1292.2137 586.8344,1292.7762 L585.8656,1294.8387 Q584.9438,1294.4325 584.1625,1294.1981 Q583.3813,1293.9637 582.475,1293.9637 Z " fill="#000000"/><text fill="#000000" font-family="sans-serif" font-size="20" lengthAdjust="spacing" textLength="200" x="597.35" y="1307.38">JpaCourseRepository</text><line style="stroke:#181818;stroke-width:0.5;" x1="567.35" x2="799.35" y1="1318.24" y2="1318.24"/><line style="stroke:#181818;stroke-width:0.5;" x1="567.35" x2="799.35" y1="1326.24" y2="1326.24"/><ellipse cx="577.35" cy="1345.36" fill="#84BE84" rx="3" ry="3" style="stroke:#038048;stroke-width:1.0;"/><text fill="#000000" font-family="sans-serif" font-size="20" lengthAdjust="spacing" textLength="118" x="587.35" y="1351.62">save(course)</text><ellipse cx="577.35" cy="1372.5999" fill="#84BE84" rx="3" ry="3" style="stroke:#038048;stroke-width:1.0;"/><text fill="#000000" font-family="sans-serif" font-size="20" lengthAdjust="spacing" textLength="129" x="587.35" y="1378.8599">findAllOpen()</text><ellipse cx="577.35" cy="1399.8399" fill="#84BE84" rx="3" ry="3" style="stroke:#038048;stroke-width:1.0;"/><text fill="#000000" font-family="sans-serif" font-size="20" lengthAdjust="spacing" textLength="141" x="587.35" y="1406.0999">findAllClosed()</text><ellipse cx="577.35" cy="1427.0799" fill="#84BE84" rx="3" ry="3" style="stroke:#038048;stroke-width:1.0;"/><text fill="#000000" font-family="sans-serif" font-size="20" lengthAdjust="spacing" textLength="183" x="587.35" y="1433.3399">findAllInProgress()</text></g><!--class PersistenceContext--><g id="elem_PersistenceContext"><rect codeLine="75" fill="#F1F1F1" height="80.4799" id="PersistenceContext" rx="2.5" ry="2.5" style="stroke:#181818;stroke-width:0.5;" width="219" x="635.85" y="505.5"/><ellipse cx="651.85" cy="524.12" fill="#ADD1B2" rx="12" ry="12" style="stroke:#181818;stroke-width:1.0;"/><path d="M651.975,518.4637 Q650.8969,518.4637 650.0375,518.8387 Q649.1781,519.1981 648.5844,519.9012 Q647.9906,520.5887 647.6625,521.6044 Q647.35,522.62 647.35,523.9169 Q647.35,525.62 647.8656,526.8544 Q648.3813,528.0731 649.3969,528.7294 Q650.4125,529.37 651.9594,529.37 Q652.8656,529.37 653.6781,529.2137 Q654.4906,529.0575 655.6781,528.6981 L655.6781,530.9012 Q654.6469,531.2762 653.7719,531.4169 Q652.8969,531.5731 651.6938,531.5731 Q649.4125,531.5731 647.8813,530.6356 Q646.35,529.6825 645.5844,527.9481 Q644.8188,526.1981 644.8188,523.9012 Q644.8188,522.2294 645.2875,520.8387 Q645.7563,519.4481 646.6625,518.4169 Q647.5844,517.37 648.9281,516.8231 Q650.2719,516.2606 651.9906,516.2606 Q653.1313,516.2606 654.1781,516.495 Q655.2406,516.7137 656.3344,517.2762 L655.3656,519.3387 Q654.4438,518.9325 653.6625,518.6981 Q652.8813,518.4637 651.975,518.4637 Z " fill="#000000"/><text fill="#000000" font-family="sans-serif" font-size="20" lengthAdjust="spacing" textLength="185" x="666.85" y="531.88">PersistenceContext</text><line style="stroke:#181818;stroke-width:0.5;" x1="636.85" x2="853.85" y1="542.74" y2="542.74"/><line style="stroke:#181818;stroke-width:0.5;" x1="636.85" x2="853.85" y1="550.74" y2="550.74"/><rect fill="#F24D5C" height="6" style="stroke:#C82930;stroke-width:1.0;" width="6" x="643.85" y="566.86"/><text fill="#000000" font-family="sans-serif" font-size="20" lengthAdjust="spacing" textLength="129" x="656.85" y="576.12">repositories()</text></g><!--class CourseState--><g id="elem_CourseState"><rect codeLine="80" fill="#F1F1F1" height="162.1999" id="CourseState" rx="2.5" ry="2.5" style="stroke:#181818;stroke-width:0.5;" width="150" x="68.35" y="464.5"/><ellipse cx="84.35" cy="483.12" fill="#EB937F" rx="12" ry="12" style="stroke:#181818;stroke-width:1.0;"/><path d="M88.3969,490.62 L79.7875,490.62 L79.7875,475.7137 L88.3969,475.7137 L88.3969,477.9169 L82.2094,477.9169 L82.2094,481.7606 L88.0375,481.7606 L88.0375,483.9325 L82.2094,483.9325 L82.2094,488.4169 L88.3969,488.4169 L88.3969,490.62 Z " fill="#000000"/><text fill="#000000" font-family="sans-serif" font-size="20" lengthAdjust="spacing" textLength="116" x="99.35" y="490.88">CourseState</text><line style="stroke:#181818;stroke-width:0.5;" x1="69.35" x2="217.35" y1="501.74" y2="501.74"/><text fill="#000000" font-family="sans-serif" font-size="20" lengthAdjust="spacing" textLength="74" x="74.35" y="527.12">CLOSED</text><text fill="#000000" font-family="sans-serif" font-size="20" lengthAdjust="spacing" textLength="54" x="74.35" y="554.3599">OPEN</text><text fill="#000000" font-family="sans-serif" font-size="20" lengthAdjust="spacing" textLength="130" x="74.35" y="581.5999">IN_PROGRESS</text><text fill="#000000" font-family="sans-serif" font-size="20" lengthAdjust="spacing" textLength="92" x="74.35" y="608.8399">FINISHED</text><line style="stroke:#181818;stroke-width:0.5;" x1="69.35" x2="217.35" y1="618.6999" y2="618.6999"/></g><!--link CourseState to Course--><g id="link_CourseState_Course"><path codeLine="87" d="M142.34,626.52 C142.07,647.57 141.77,671.08 141.47,694.88 " fill="none" id="CourseState-to-Course" style="stroke:#181818;stroke-width:1.0;"/><polygon fill="#181818" points="141.4,699.96,145.5026,691.0063,141.4571,694.9603,137.5031,690.9149,141.4,699.96" style="stroke:#181818;stroke-width:1.0;"/></g><!--link PersistenceContext to RepositoryFactory--><g id="link_PersistenceContext_RepositoryFactory"><path codeLine="89" d="M745.84,585.5 C746.59,644.35 748,755.54 748.79,817.49 " fill="none" id="PersistenceContext-to-RepositoryFactory" style="stroke:#181818;stroke-width:1.0;stroke-dasharray:7.0,7.0;"/><polygon fill="#181818" points="748.85,822.59,752.7469,813.5449,748.7929,817.5903,744.7474,813.6363,748.85,822.59" style="stroke:#181818;stroke-width:1.0;"/></g><!--link RepositoryFactory to CourseRepository--><g id="link_RepositoryFactory_CourseRepository"><path codeLine="90" d="M719.72,903.21 C685.1,949.02 627.16,1025.71 584.66,1081.95 " fill="none" id="RepositoryFactory-to-CourseRepository" style="stroke:#181818;stroke-width:1.0;"/><polygon fill="#181818" points="581.62,1085.97,590.2391,1081.2045,584.636,1081.982,583.8584,1076.3789,581.62,1085.97" style="stroke:#181818;stroke-width:1.0;"/></g><!--reverse link CourseRepository to InMemoryCourseRepository--><g id="link_CourseRepository_InMemoryCourseRepository"><path codeLine="92" d="M470.15,1237.65 C459.68,1251.87 448.82,1266.62 438.4,1280.77 " fill="none" id="CourseRepository-backto-InMemoryCourseRepository" style="stroke:#181818;stroke-width:1.0;stroke-dasharray:7.0,7.0;"/><polygon fill="none" points="464.72,1233.22,482.21,1221.26,475.99,1241.52,464.72,1233.22" style="stroke:#181818;stroke-width:1.0;"/></g><!--reverse link CourseRepository to JpaCourseRepository--><g id="link_CourseRepository_JpaCourseRepository"><path codeLine="93" d="M592.55,1237.65 C603.02,1251.87 613.88,1266.62 624.3,1280.77 " fill="none" id="CourseRepository-backto-JpaCourseRepository" style="stroke:#181818;stroke-width:1.0;stroke-dasharray:7.0,7.0;"/><polygon fill="none" points="586.71,1241.52,580.49,1221.26,597.98,1233.22,586.71,1241.52" style="stroke:#181818;stroke-width:1.0;"/></g><!--link ToggleCourseStatusController to PersistenceContext--><g id="link_ToggleCourseStatusController_PersistenceContext"><path codeLine="94" d="M573.98,391.22 C618.81,431.32 664.71,472.37 697.71,501.89 " fill="none" id="ToggleCourseStatusController-to-PersistenceContext" style="stroke:#181818;stroke-width:1.0;stroke-dasharray:7.0,7.0;"/><polygon fill="#181818" points="701.67,505.43,697.6371,496.4447,697.9464,502.0931,692.298,502.4024,701.67,505.43" style="stroke:#181818;stroke-width:1.0;"/></g><!--link ToggleCourseStatusController to Course--><g id="link_ToggleCourseStatusController_Course"><path codeLine="95" d="M259.31,298.86 C181.65,328.05 96.07,375.59 50.35,451 C6,524.14 20.89,616.43 50.08,695.01 " fill="none" id="ToggleCourseStatusController-to-Course" style="stroke:#181818;stroke-width:1.0;stroke-dasharray:7.0,7.0;"/><polygon fill="#181818" points="51.84,699.69,52.399,689.857,50.0719,695.0131,44.9158,692.686,51.84,699.69" style="stroke:#181818;stroke-width:1.0;"/></g><!--link ToggleCourseStatusUI to ToggleCourseStatusController--><g id="link_ToggleCourseStatusUI_ToggleCourseStatusController"><path codeLine="96" d="M423.35,60.17 C423.35,74.65 423.35,94 423.35,114.9 " fill="none" id="ToggleCourseStatusUI-to-ToggleCourseStatusController" style="stroke:#181818;stroke-width:1.0;stroke-dasharray:7.0,7.0;"/><polygon fill="#181818" points="423.35,119.95,427.35,110.95,423.35,114.95,419.35,110.95,423.35,119.95" style="stroke:#181818;stroke-width:1.0;"/></g><!--link CourseListService to Course--><g id="link_CourseListService_Course"><path codeLine="98" d="M338.91,640.31 C315.36,666.47 289.27,695.46 263.92,723.61 " fill="none" id="CourseListService-to-Course" style="stroke:#181818;stroke-width:1.0;stroke-dasharray:7.0,7.0;"/><polygon fill="#181818" points="260.52,727.39,269.5139,723.3762,263.8648,723.6735,263.5675,718.0245,260.52,727.39" style="stroke:#181818;stroke-width:1.0;"/></g><!--link CourseListService to CourseDTO--><g id="link_CourseListService_CourseDTO"><path codeLine="99" d="M442.38,640.31 C448.45,670.22 455.26,703.83 461.72,735.66 " fill="none" id="CourseListService-to-CourseDTO" style="stroke:#181818;stroke-width:1.0;stroke-dasharray:7.0,7.0;"/><polygon fill="#181818" points="462.75,740.75,464.8751,731.1331,461.753,735.8504,457.0357,732.7283,462.75,740.75" style="stroke:#181818;stroke-width:1.0;"/></g><!--link CourseListService to CourseRepository--><g id="link_CourseListService_CourseRepository"><path codeLine="100" d="M369.33,640.22 C360.64,659.42 352.99,679.92 348.35,700 C315.71,841.16 281.06,897.68 348.35,1026 C364.68,1057.13 392.53,1082.12 421.65,1101.4 " fill="none" id="CourseListService-to-CourseRepository" style="stroke:#181818;stroke-width:1.0;stroke-dasharray:7.0,7.0;"/><polygon fill="#181818" points="425.95,1104.2,420.5622,1095.9555,421.7506,1101.4861,416.22,1102.6745,425.95,1104.2" style="stroke:#181818;stroke-width:1.0;"/></g><!--link ToggleCourseStatusController to CourseListService--><g id="link_ToggleCourseStatusController_CourseListService"><path codeLine="102" d="M423.35,391.22 C423.35,409.53 423.35,428.04 423.35,445.56 " fill="none" id="ToggleCourseStatusController-to-CourseListService" style="stroke:#181818;stroke-width:1.0;"/><polygon fill="#181818" points="423.35,450.97,427.35,441.97,423.35,445.97,419.35,441.97,423.35,450.97" style="stroke:#181818;stroke-width:1.0;"/></g><!--SRC=[lLLDRwCm4BtpApYsgXAjUbvLgaYoPPK65BBdbGMJh5LZ8zj4tUxsltSCDZX0sCkg9-mt7tupRspK2-KLaQHa8d-18YpWI6gcDuBhZBv1UFyb2796b0eFudHY48bQAiWqqRNw4OT_Wk3zkaE4MQHW32GwBiAyCMsfqXd8CysXm_PG2KMraByH8hN-9IHz8veAxZplGePnIGMyFK3Tt5eiOa91CKHZdafnag2KRz4DnOD89PofgAtjmhI3Lzt1M9ijheMmZ30qf0je5ffgrguAKBcabQ7Sx85ZuILmlQKbrSg6kTQ0jryxJyyW0PV5eyQTORRI0icOTMM9DxuMuyZOxJin-evkI6u-3VMxCTu6KQv17aaEjj3UpKXi0e-K5u-C6GNikHPf-t-9zTttEKL3_Rjs3cQWIMK7gVMy6Vgqnqtfx_3BMN7er5mC2AuEoQVht568-JEKMD-43AO4HSwk5xV_IvRl5Vd4qrAG2dK0deDv7d1sRREbEvqwKGBWTHds3qexBz4soTOhN2JfUeUVUFSptIVVzkiimzqctiNP4zentezSB1vifY2OeB1SFeolHZ2-H7qQVrn7xVlwTxcyAkKLzmaPWjadrN0Ub_Bl6Dk6oVVSsESIk5hzI-pbd3FYjPgr-msThQ7NmF-LV000]--></g></svg>