<?xml version="1.0" encoding="UTF-8" standalone="no"?><svg xmlns="http://www.w3.org/2000/svg" xmlns:xlink="http://www.w3.org/1999/xlink" contentStyleType="text/css" height="533px" preserveAspectRatio="none" style="width:765px;height:533px;background:#FFFFFF;" version="1.1" viewBox="0 0 765 533" width="765px" zoomAndPan="magnify"><defs/><g><line style="stroke:#181818;stroke-width:0.5;stroke-dasharray:5.0,5.0;" x1="51" x2="51" y1="92.24" y2="442.1598"/><line style="stroke:#181818;stroke-width:0.5;stroke-dasharray:5.0,5.0;" x1="715.625" x2="715.625" y1="92.24" y2="442.1598"/><text fill="#000000" font-family="sans-serif" font-size="20" lengthAdjust="spacing" textLength="86" x="5" y="86.38">Manager</text><ellipse cx="51" cy="13.5" fill="#E2E2F0" rx="8" ry="8" style="stroke:#181818;stroke-width:0.5;"/><path d="M51,21.5 L51,48.5 M38,29.5 L64,29.5 M51,48.5 L38,63.5 M51,48.5 L64,63.5 " fill="none" style="stroke:#181818;stroke-width:0.5;"/><text fill="#000000" font-family="sans-serif" font-size="20" lengthAdjust="spacing" textLength="86" x="5" y="462.5398">Manager</text><ellipse cx="51" cy="476.8997" fill="#E2E2F0" rx="8" ry="8" style="stroke:#181818;stroke-width:0.5;"/><path d="M51,484.8997 L51,511.8997 M38,492.8997 L64,492.8997 M51,511.8997 L38,526.8997 M51,511.8997 L64,526.8997 " fill="none" style="stroke:#181818;stroke-width:0.5;"/><rect fill="#E2E2F0" height="41.24" rx="2.5" ry="2.5" style="stroke:#181818;stroke-width:0.5;" width="88" x="671.625" y="50"/><text fill="#000000" font-family="sans-serif" font-size="20" lengthAdjust="spacing" textLength="74" x="678.625" y="78.38">:System</text><rect fill="#E2E2F0" height="41.24" rx="2.5" ry="2.5" style="stroke:#181818;stroke-width:0.5;" width="88" x="671.625" y="441.1598"/><text fill="#000000" font-family="sans-serif" font-size="20" lengthAdjust="spacing" textLength="74" x="678.625" y="469.5398">:System</text><polygon fill="#181818" points="703.625,131.4799,713.625,135.4799,703.625,139.4799,707.625,135.4799" style="stroke:#181818;stroke-width:1.0;"/><line style="stroke:#181818;stroke-width:1.0;" x1="51" x2="709.625" y1="135.4799" y2="135.4799"/><text fill="#000000" font-family="sans-serif" font-size="20" font-weight="bold" lengthAdjust="spacing" textLength="11.625" x="58" y="127.62">1</text><text fill="#000000" font-family="sans-serif" font-size="20" lengthAdjust="spacing" textLength="319" x="73.625" y="127.62">requests to change course status</text><polygon fill="#181818" points="62,172.7199,52,176.7199,62,180.7199,58,176.7199" style="stroke:#181818;stroke-width:1.0;"/><line style="stroke:#181818;stroke-width:1.0;" x1="56" x2="714.625" y1="176.7199" y2="176.7199"/><text fill="#000000" font-family="sans-serif" font-size="20" font-weight="bold" lengthAdjust="spacing" textLength="11.625" x="68" y="168.8599">2</text><text fill="#000000" font-family="sans-serif" font-size="20" lengthAdjust="spacing" textLength="369" x="83.625" y="168.8599">lists all the possible toggle operations</text><polygon fill="#181818" points="703.625,213.9599,713.625,217.9599,703.625,221.9599,707.625,217.9599" style="stroke:#181818;stroke-width:1.0;"/><line style="stroke:#181818;stroke-width:1.0;" x1="51" x2="709.625" y1="217.9599" y2="217.9599"/><text fill="#000000" font-family="sans-serif" font-size="20" font-weight="bold" lengthAdjust="spacing" textLength="11.625" x="58" y="210.0999">3</text><text fill="#000000" font-family="sans-serif" font-size="20" lengthAdjust="spacing" textLength="106" x="73.625" y="210.0999">selects one</text><polygon fill="#181818" points="62,255.1999,52,259.1999,62,263.1999,58,259.1999" style="stroke:#181818;stroke-width:1.0;"/><line style="stroke:#181818;stroke-width:1.0;" x1="56" x2="714.625" y1="259.1999" y2="259.1999"/><text fill="#000000" font-family="sans-serif" font-size="20" font-weight="bold" lengthAdjust="spacing" textLength="11.625" x="68" y="251.3399">4</text><text fill="#000000" font-family="sans-serif" font-size="20" lengthAdjust="spacing" textLength="625" x="83.625" y="251.3399">displays all the available courses for the chosen toggle operation</text><polygon fill="#181818" points="703.625,296.4398,713.625,300.4398,703.625,304.4398,707.625,300.4398" style="stroke:#181818;stroke-width:1.0;"/><line style="stroke:#181818;stroke-width:1.0;" x1="51" x2="709.625" y1="300.4398" y2="300.4398"/><text fill="#000000" font-family="sans-serif" font-size="20" font-weight="bold" lengthAdjust="spacing" textLength="11.625" x="58" y="292.5799">5</text><text fill="#000000" font-family="sans-serif" font-size="20" lengthAdjust="spacing" textLength="249" x="73.625" y="292.5799">selects the desired course</text><polygon fill="#181818" points="62,337.6798,52,341.6798,62,345.6798,58,341.6798" style="stroke:#181818;stroke-width:1.0;"/><line style="stroke:#181818;stroke-width:1.0;" x1="56" x2="714.625" y1="341.6798" y2="341.6798"/><text fill="#000000" font-family="sans-serif" font-size="20" font-weight="bold" lengthAdjust="spacing" textLength="11.625" x="68" y="333.8198">6</text><text fill="#000000" font-family="sans-serif" font-size="20" lengthAdjust="spacing" textLength="456" x="83.625" y="333.8198">asks to confirm the change of the course status</text><polygon fill="#181818" points="703.625,378.9198,713.625,382.9198,703.625,386.9198,707.625,382.9198" style="stroke:#181818;stroke-width:1.0;"/><line style="stroke:#181818;stroke-width:1.0;" x1="51" x2="709.625" y1="382.9198" y2="382.9198"/><text fill="#000000" font-family="sans-serif" font-size="20" font-weight="bold" lengthAdjust="spacing" textLength="11.625" x="58" y="375.0598">7</text><text fill="#000000" font-family="sans-serif" font-size="20" lengthAdjust="spacing" textLength="186" x="73.625" y="375.0598">confirms operation</text><polygon fill="#181818" points="62,420.1598,52,424.1598,62,428.1598,58,424.1598" style="stroke:#181818;stroke-width:1.0;"/><line style="stroke:#181818;stroke-width:1.0;" x1="56" x2="714.625" y1="424.1598" y2="424.1598"/><text fill="#000000" font-family="sans-serif" font-size="20" font-weight="bold" lengthAdjust="spacing" textLength="11.625" x="68" y="416.2998">8</text><text fill="#000000" font-family="sans-serif" font-size="20" lengthAdjust="spacing" textLength="254" x="83.625" y="416.2998">informs operation success</text><!--SRC=[VP4zRiCm34PtdOBmqYbDqT53nswTSW96fct2akYAL83qz9L_WAQeqKaInCT7VTA9qumPOn0_KGSTzLY2lKko2tyHlBwufz5irlPydWCcAp4yUubdfSz2oTEfOnmgxz2RP6W-CE50kG5KYDlULO6nvxdYqBINknh5jK3NhSDYaagyrbBdTWXER_jr2tbngIcOW1yn3GHUIbO2DRIYpcsL2xFZBGHU20m1R2IOHPMlWMgBOQYBp9JHM98U6fK2-OfBeiFc7MjDu_xJ7s_80HV1Dfb2NzDORlmeIkcFzr_jmdMadEkFRFqEfq2TjamazPpZhblpaNux_OxfGBcp-ZZPWOfJVSzZ5MZndbJTDm00]--></g></svg>