<?xml version="1.0" encoding="us-ascii" standalone="no"?><svg xmlns="http://www.w3.org/2000/svg" xmlns:xlink="http://www.w3.org/1999/xlink" contentStyleType="text/css" height="1215px" preserveAspectRatio="none" style="width:990px;height:1215px;background:#FFFFFF;" version="1.1" viewBox="0 0 990 1215" width="990px" zoomAndPan="magnify"><defs/><g><!--class ToggleCourseStatusUI--><g id="elem_ToggleCourseStatusUI"><rect codeLine="2" fill="#F1F1F1" height="48" id="ToggleCourseStatusUI" rx="2.5" ry="2.5" style="stroke:#181818;stroke-width:0.5;" width="174" x="213" y="7"/><ellipse cx="228" cy="23" fill="#ADD1B2" rx="11" ry="11" style="stroke:#181818;stroke-width:1.0;"/><path d="M230.7656,18.875 Q230.9219,18.6563 231.1094,18.5469 Q231.2969,18.4375 231.5156,18.4375 Q231.8906,18.4375 232.125,18.7031 Q232.3594,18.9531 232.3594,19.5625 L232.3594,21.0156 Q232.3594,21.625 232.125,21.8906 Q231.8906,22.1563 231.5156,22.1563 Q231.1719,22.1563 230.9688,21.9531 Q230.7656,21.7656 230.6563,21.25 Q230.6094,20.8906 230.4219,20.7031 Q230.0938,20.3281 229.4844,20.1094 Q228.875,19.8906 228.25,19.8906 Q227.4844,19.8906 226.8438,20.2188 Q226.2188,20.5469 225.7188,21.2969 Q225.2344,22.0469 225.2344,23.0781 L225.2344,24.1719 Q225.2344,25.4063 226.125,26.2344 Q227.0156,27.0469 228.6094,27.0469 Q229.5469,27.0469 230.2031,26.7969 Q230.5938,26.6406 231.0156,26.2031 Q231.2813,25.9375 231.4219,25.8594 Q231.5781,25.7813 231.7813,25.7813 Q232.1094,25.7813 232.3594,26.0469 Q232.625,26.2969 232.625,26.6406 Q232.625,26.9844 232.2813,27.3906 Q231.7813,27.9688 230.9844,28.2969 Q229.9063,28.75 228.6094,28.75 Q227.0938,28.75 225.8906,28.125 Q224.9063,27.625 224.2188,26.5625 Q223.5313,25.4844 223.5313,24.2031 L223.5313,23.0469 Q223.5313,21.7188 224.1406,20.5781 Q224.7656,19.4219 225.8594,18.8125 Q226.9531,18.1875 228.1875,18.1875 Q228.9219,18.1875 229.5625,18.3594 Q230.2188,18.5156 230.7656,18.875 Z " fill="#000000"/><text fill="#000000" font-family="sans-serif" font-size="14" lengthAdjust="spacing" textLength="142" x="242" y="28.7969">ToggleCourseStatusUI</text><line style="stroke:#181818;stroke-width:0.5;" x1="214" x2="386" y1="39" y2="39"/><line style="stroke:#181818;stroke-width:0.5;" x1="214" x2="386" y1="47" y2="47"/></g><!--class ToggleCourseStatusController--><g id="elem_ToggleCourseStatusController"><rect codeLine="6" fill="#F1F1F1" height="196.9688" id="ToggleCourseStatusController" rx="2.5" ry="2.5" style="stroke:#181818;stroke-width:0.5;" width="224" x="188" y="115"/><ellipse cx="203" cy="131" fill="#ADD1B2" rx="11" ry="11" style="stroke:#181818;stroke-width:1.0;"/><path d="M205.7656,126.875 Q205.9219,126.6563 206.1094,126.5469 Q206.2969,126.4375 206.5156,126.4375 Q206.8906,126.4375 207.125,126.7031 Q207.3594,126.9531 207.3594,127.5625 L207.3594,129.0156 Q207.3594,129.625 207.125,129.8906 Q206.8906,130.1563 206.5156,130.1563 Q206.1719,130.1563 205.9688,129.9531 Q205.7656,129.7656 205.6563,129.25 Q205.6094,128.8906 205.4219,128.7031 Q205.0938,128.3281 204.4844,128.1094 Q203.875,127.8906 203.25,127.8906 Q202.4844,127.8906 201.8438,128.2188 Q201.2188,128.5469 200.7188,129.2969 Q200.2344,130.0469 200.2344,131.0781 L200.2344,132.1719 Q200.2344,133.4063 201.125,134.2344 Q202.0156,135.0469 203.6094,135.0469 Q204.5469,135.0469 205.2031,134.7969 Q205.5938,134.6406 206.0156,134.2031 Q206.2813,133.9375 206.4219,133.8594 Q206.5781,133.7813 206.7813,133.7813 Q207.1094,133.7813 207.3594,134.0469 Q207.625,134.2969 207.625,134.6406 Q207.625,134.9844 207.2813,135.3906 Q206.7813,135.9688 205.9844,136.2969 Q204.9063,136.75 203.6094,136.75 Q202.0938,136.75 200.8906,136.125 Q199.9063,135.625 199.2188,134.5625 Q198.5313,133.4844 198.5313,132.2031 L198.5313,131.0469 Q198.5313,129.7188 199.1406,128.5781 Q199.7656,127.4219 200.8594,126.8125 Q201.9531,126.1875 203.1875,126.1875 Q203.9219,126.1875 204.5625,126.3594 Q205.2188,126.5156 205.7656,126.875 Z " fill="#000000"/><text fill="#000000" font-family="sans-serif" font-size="14" lengthAdjust="spacing" textLength="192" x="217" y="136.7969">ToggleCourseStatusController</text><line style="stroke:#181818;stroke-width:0.5;" x1="189" x2="411" y1="147" y2="147"/><rect fill="none" height="6" style="stroke:#C82930;stroke-width:1.0;" width="6" x="196" y="158.8105"/><text fill="#000000" font-family="sans-serif" font-size="14" lengthAdjust="spacing" textLength="112" x="208" y="166.1074">courseListService</text><rect fill="none" height="6" style="stroke:#C82930;stroke-width:1.0;" width="6" x="196" y="177.4316"/><text fill="#000000" font-family="sans-serif" font-size="14" lengthAdjust="spacing" textLength="111" x="208" y="184.7285">courseRepository</text><rect fill="none" height="6" style="stroke:#C82930;stroke-width:1.0;" width="6" x="196" y="196.0527"/><text fill="#000000" font-family="sans-serif" font-size="14" lengthAdjust="spacing" textLength="128" x="208" y="203.3496">authorizationService</text><line style="stroke:#181818;stroke-width:0.5;" x1="189" x2="411" y1="210.8633" y2="210.8633"/><ellipse cx="199" cy="225.6738" fill="#84BE84" rx="3" ry="3" style="stroke:#038048;stroke-width:1.0;"/><text fill="#000000" font-family="sans-serif" font-size="14" lengthAdjust="spacing" textLength="115" x="208" y="229.9707">listOpenCourses()</text><ellipse cx="199" cy="244.2949" fill="#84BE84" rx="3" ry="3" style="stroke:#038048;stroke-width:1.0;"/><text fill="#000000" font-family="sans-serif" font-size="14" lengthAdjust="spacing" textLength="124" x="208" y="248.5918">listClosedCourses()</text><ellipse cx="199" cy="262.916" fill="#84BE84" rx="3" ry="3" style="stroke:#038048;stroke-width:1.0;"/><text fill="#000000" font-family="sans-serif" font-size="14" lengthAdjust="spacing" textLength="148" x="208" y="267.2129">listInProgressCourses()</text><ellipse cx="199" cy="281.5371" fill="#84BE84" rx="3" ry="3" style="stroke:#038048;stroke-width:1.0;"/><text fill="#000000" font-family="sans-serif" font-size="14" lengthAdjust="spacing" textLength="167" x="208" y="285.834">toggleToPreviousCourse()</text><ellipse cx="199" cy="300.1582" fill="#84BE84" rx="3" ry="3" style="stroke:#038048;stroke-width:1.0;"/><text fill="#000000" font-family="sans-serif" font-size="14" lengthAdjust="spacing" textLength="139" x="208" y="304.4551">toggleToNextCourse()</text></g><!--class Course--><g id="elem_Course"><rect codeLine="18" fill="#F1F1F1" height="234.2109" id="Course" rx="2.5" ry="2.5" style="stroke:#181818;stroke-width:0.5;" width="166" x="286" y="610"/><ellipse cx="341.75" cy="626" fill="#ADD1B2" rx="11" ry="11" style="stroke:#181818;stroke-width:1.0;"/><path d="M344.5156,621.875 Q344.6719,621.6563 344.8594,621.5469 Q345.0469,621.4375 345.2656,621.4375 Q345.6406,621.4375 345.875,621.7031 Q346.1094,621.9531 346.1094,622.5625 L346.1094,624.0156 Q346.1094,624.625 345.875,624.8906 Q345.6406,625.1563 345.2656,625.1563 Q344.9219,625.1563 344.7188,624.9531 Q344.5156,624.7656 344.4063,624.25 Q344.3594,623.8906 344.1719,623.7031 Q343.8438,623.3281 343.2344,623.1094 Q342.625,622.8906 342,622.8906 Q341.2344,622.8906 340.5938,623.2188 Q339.9688,623.5469 339.4688,624.2969 Q338.9844,625.0469 338.9844,626.0781 L338.9844,627.1719 Q338.9844,628.4063 339.875,629.2344 Q340.7656,630.0469 342.3594,630.0469 Q343.2969,630.0469 343.9531,629.7969 Q344.3438,629.6406 344.7656,629.2031 Q345.0313,628.9375 345.1719,628.8594 Q345.3281,628.7813 345.5313,628.7813 Q345.8594,628.7813 346.1094,629.0469 Q346.375,629.2969 346.375,629.6406 Q346.375,629.9844 346.0313,630.3906 Q345.5313,630.9688 344.7344,631.2969 Q343.6563,631.75 342.3594,631.75 Q340.8438,631.75 339.6406,631.125 Q338.6563,630.625 337.9688,629.5625 Q337.2813,628.4844 337.2813,627.2031 L337.2813,626.0469 Q337.2813,624.7188 337.8906,623.5781 Q338.5156,622.4219 339.6094,621.8125 Q340.7031,621.1875 341.9375,621.1875 Q342.6719,621.1875 343.3125,621.3594 Q343.9688,621.5156 344.5156,621.875 Z " fill="#000000"/><text fill="#000000" font-family="sans-serif" font-size="14" lengthAdjust="spacing" textLength="46" x="362.25" y="631.7969">Course</text><line style="stroke:#181818;stroke-width:0.5;" x1="287" x2="451" y1="642" y2="642"/><rect fill="none" height="6" style="stroke:#C82930;stroke-width:1.0;" width="6" x="294" y="653.8105"/><text fill="#000000" font-family="sans-serif" font-size="14" lengthAdjust="spacing" textLength="31" x="306" y="661.1074">code</text><rect fill="none" height="6" style="stroke:#C82930;stroke-width:1.0;" width="6" x="294" y="672.4316"/><text fill="#000000" font-family="sans-serif" font-size="14" lengthAdjust="spacing" textLength="22" x="306" y="679.7285">title</text><rect fill="none" height="6" style="stroke:#C82930;stroke-width:1.0;" width="6" x="294" y="691.0527"/><text fill="#000000" font-family="sans-serif" font-size="14" lengthAdjust="spacing" textLength="69" x="306" y="698.3496">description</text><rect fill="none" height="6" style="stroke:#C82930;stroke-width:1.0;" width="6" x="294" y="709.6738"/><text fill="#000000" font-family="sans-serif" font-size="14" lengthAdjust="spacing" textLength="99" x="306" y="716.9707">enrolmentLimits</text><rect fill="none" height="6" style="stroke:#C82930;stroke-width:1.0;" width="6" x="294" y="728.2949"/><text fill="#000000" font-family="sans-serif" font-size="14" lengthAdjust="spacing" textLength="76" x="306" y="735.5918">courseState</text><rect fill="none" height="6" style="stroke:#C82930;stroke-width:1.0;" width="6" x="294" y="746.916"/><text fill="#000000" font-family="sans-serif" font-size="14" lengthAdjust="spacing" textLength="140" x="306" y="754.2129">courseEnrolmentState</text><rect fill="none" height="6" style="stroke:#C82930;stroke-width:1.0;" width="6" x="294" y="765.5371"/><text fill="#000000" font-family="sans-serif" font-size="14" lengthAdjust="spacing" textLength="61" x="306" y="772.834">createdAt</text><line style="stroke:#181818;stroke-width:0.5;" x1="287" x2="451" y1="780.3477" y2="780.3477"/><ellipse cx="297" cy="795.1582" fill="#84BE84" rx="3" ry="3" style="stroke:#038048;stroke-width:1.0;"/><text fill="#000000" font-family="sans-serif" font-size="14" lengthAdjust="spacing" textLength="44" x="306" y="799.4551">toDto()</text><ellipse cx="297" cy="813.7793" fill="#84BE84" rx="3" ry="3" style="stroke:#038048;stroke-width:1.0;"/><text fill="#000000" font-family="sans-serif" font-size="14" lengthAdjust="spacing" textLength="97" x="306" y="818.0762">previousState()</text><ellipse cx="297" cy="832.4004" fill="#84BE84" rx="3" ry="3" style="stroke:#038048;stroke-width:1.0;"/><text fill="#000000" font-family="sans-serif" font-size="14" lengthAdjust="spacing" textLength="69" x="306" y="836.6973">nextState()</text></g><!--class RepositoryFactory--><g id="elem_RepositoryFactory"><rect codeLine="31" fill="#F1F1F1" height="66.6211" id="RepositoryFactory" rx="2.5" ry="2.5" style="stroke:#181818;stroke-width:0.5;" width="152" x="711" y="693.5"/><ellipse cx="727.8" cy="709.5" fill="#ADD1B2" rx="11" ry="11" style="stroke:#181818;stroke-width:1.0;"/><path d="M730.5656,705.375 Q730.7219,705.1563 730.9094,705.0469 Q731.0969,704.9375 731.3156,704.9375 Q731.6906,704.9375 731.925,705.2031 Q732.1594,705.4531 732.1594,706.0625 L732.1594,707.5156 Q732.1594,708.125 731.925,708.3906 Q731.6906,708.6563 731.3156,708.6563 Q730.9719,708.6563 730.7688,708.4531 Q730.5656,708.2656 730.4563,707.75 Q730.4094,707.3906 730.2219,707.2031 Q729.8938,706.8281 729.2844,706.6094 Q728.675,706.3906 728.05,706.3906 Q727.2844,706.3906 726.6438,706.7188 Q726.0188,707.0469 725.5188,707.7969 Q725.0344,708.5469 725.0344,709.5781 L725.0344,710.6719 Q725.0344,711.9063 725.925,712.7344 Q726.8156,713.5469 728.4094,713.5469 Q729.3469,713.5469 730.0031,713.2969 Q730.3938,713.1406 730.8156,712.7031 Q731.0813,712.4375 731.2219,712.3594 Q731.3781,712.2813 731.5813,712.2813 Q731.9094,712.2813 732.1594,712.5469 Q732.425,712.7969 732.425,713.1406 Q732.425,713.4844 732.0813,713.8906 Q731.5813,714.4688 730.7844,714.7969 Q729.7063,715.25 728.4094,715.25 Q726.8938,715.25 725.6906,714.625 Q724.7063,714.125 724.0188,713.0625 Q723.3313,711.9844 723.3313,710.7031 L723.3313,709.5469 Q723.3313,708.2188 723.9406,707.0781 Q724.5656,705.9219 725.6594,705.3125 Q726.7531,704.6875 727.9875,704.6875 Q728.7219,704.6875 729.3625,704.8594 Q730.0188,705.0156 730.5656,705.375 Z " fill="#000000"/><text fill="#000000" font-family="sans-serif" font-size="14" lengthAdjust="spacing" textLength="116" x="742.2" y="715.2969">RepositoryFactory</text><line style="stroke:#181818;stroke-width:0.5;" x1="712" x2="862" y1="725.5" y2="725.5"/><line style="stroke:#181818;stroke-width:0.5;" x1="712" x2="862" y1="733.5" y2="733.5"/><ellipse cx="722" cy="748.3105" fill="#84BE84" rx="3" ry="3" style="stroke:#038048;stroke-width:1.0;"/><text fill="#000000" font-family="sans-serif" font-size="14" lengthAdjust="spacing" textLength="126" x="731" y="752.6074">RepositoryFactory()</text></g><!--class CourseRepository--><g id="elem_CourseRepository"><rect codeLine="35" fill="#F1F1F1" height="122.4844" id="CourseRepository" rx="2.5" ry="2.5" style="stroke:#181818;stroke-width:0.5;" width="146" x="714" y="904"/><ellipse cx="729" cy="920" fill="#B4A7E5" rx="11" ry="11" style="stroke:#181818;stroke-width:1.0;"/><path d="M729.9531,916.6406 L729.9531,923.2969 L731.6719,923.2969 Q732.2813,923.2969 732.5469,923.5313 Q732.8125,923.7656 732.8125,924.1563 Q732.8125,924.5313 732.5469,924.7656 Q732.2813,925 731.6719,925 L726.5313,925 Q725.9219,925 725.6563,924.7656 Q725.3906,924.5313 725.3906,924.1406 Q725.3906,923.7656 725.6563,923.5313 Q725.9219,923.2969 726.5313,923.2969 L728.25,923.2969 L728.25,916.6406 L726.5313,916.6406 Q725.9219,916.6406 725.6563,916.4063 Q725.3906,916.1719 725.3906,915.7813 Q725.3906,915.4063 725.6563,915.1719 Q725.9219,914.9375 726.5313,914.9375 L731.6719,914.9375 Q732.2813,914.9375 732.5469,915.1719 Q732.8125,915.4063 732.8125,915.7813 Q732.8125,916.1719 732.5469,916.4063 Q732.2813,916.6406 731.6719,916.6406 L729.9531,916.6406 Z " fill="#000000"/><text fill="#000000" font-family="sans-serif" font-size="14" font-style="italic" lengthAdjust="spacing" textLength="114" x="743" y="925.7969">CourseRepository</text><line style="stroke:#181818;stroke-width:0.5;" x1="715" x2="859" y1="936" y2="936"/><line style="stroke:#181818;stroke-width:0.5;" x1="715" x2="859" y1="944" y2="944"/><ellipse cx="725" cy="958.8105" fill="#84BE84" rx="3" ry="3" style="stroke:#038048;stroke-width:1.0;"/><text fill="#000000" font-family="sans-serif" font-size="14" lengthAdjust="spacing" textLength="83" x="734" y="963.1074">save(course)</text><ellipse cx="725" cy="977.4316" fill="#84BE84" rx="3" ry="3" style="stroke:#038048;stroke-width:1.0;"/><text fill="#000000" font-family="sans-serif" font-size="14" lengthAdjust="spacing" textLength="83" x="734" y="981.7285">findAllOpen()</text><ellipse cx="725" cy="996.0527" fill="#84BE84" rx="3" ry="3" style="stroke:#038048;stroke-width:1.0;"/><text fill="#000000" font-family="sans-serif" font-size="14" lengthAdjust="spacing" textLength="92" x="734" y="1000.3496">findAllClosed()</text><ellipse cx="725" cy="1014.6738" fill="#84BE84" rx="3" ry="3" style="stroke:#038048;stroke-width:1.0;"/><text fill="#000000" font-family="sans-serif" font-size="14" lengthAdjust="spacing" textLength="116" x="734" y="1018.9707">findAllInProgress()</text></g><!--class CourseListService--><g id="elem_CourseListService"><rect codeLine="42" fill="#F1F1F1" height="178.3477" id="CourseListService" rx="2.5" ry="2.5" style="stroke:#181818;stroke-width:0.5;" width="240" x="7" y="372"/><ellipse cx="65.25" cy="388" fill="#ADD1B2" rx="11" ry="11" style="stroke:#181818;stroke-width:1.0;"/><path d="M68.0156,383.875 Q68.1719,383.6563 68.3594,383.5469 Q68.5469,383.4375 68.7656,383.4375 Q69.1406,383.4375 69.375,383.7031 Q69.6094,383.9531 69.6094,384.5625 L69.6094,386.0156 Q69.6094,386.625 69.375,386.8906 Q69.1406,387.1563 68.7656,387.1563 Q68.4219,387.1563 68.2188,386.9531 Q68.0156,386.7656 67.9063,386.25 Q67.8594,385.8906 67.6719,385.7031 Q67.3438,385.3281 66.7344,385.1094 Q66.125,384.8906 65.5,384.8906 Q64.7344,384.8906 64.0938,385.2188 Q63.4688,385.5469 62.9688,386.2969 Q62.4844,387.0469 62.4844,388.0781 L62.4844,389.1719 Q62.4844,390.4063 63.375,391.2344 Q64.2656,392.0469 65.8594,392.0469 Q66.7969,392.0469 67.4531,391.7969 Q67.8438,391.6406 68.2656,391.2031 Q68.5313,390.9375 68.6719,390.8594 Q68.8281,390.7813 69.0313,390.7813 Q69.3594,390.7813 69.6094,391.0469 Q69.875,391.2969 69.875,391.6406 Q69.875,391.9844 69.5313,392.3906 Q69.0313,392.9688 68.2344,393.2969 Q67.1563,393.75 65.8594,393.75 Q64.3438,393.75 63.1406,393.125 Q62.1563,392.625 61.4688,391.5625 Q60.7813,390.4844 60.7813,389.2031 L60.7813,388.0469 Q60.7813,386.7188 61.3906,385.5781 Q62.0156,384.4219 63.1094,383.8125 Q64.2031,383.1875 65.4375,383.1875 Q66.1719,383.1875 66.8125,383.3594 Q67.4688,383.5156 68.0156,383.875 Z " fill="#000000"/><text fill="#000000" font-family="sans-serif" font-size="14" lengthAdjust="spacing" textLength="115" x="85.75" y="393.7969">CourseListService</text><line style="stroke:#181818;stroke-width:0.5;" x1="8" x2="246" y1="404" y2="404"/><rect fill="none" height="6" style="stroke:#C82930;stroke-width:1.0;" width="6" x="15" y="415.8105"/><text fill="#000000" font-family="sans-serif" font-size="14" lengthAdjust="spacing" textLength="111" x="27" y="423.1074">courseRepository</text><line style="stroke:#181818;stroke-width:0.5;" x1="8" x2="246" y1="430.6211" y2="430.6211"/><ellipse cx="18" cy="445.4316" fill="#84BE84" rx="3" ry="3" style="stroke:#038048;stroke-width:1.0;"/><text fill="#000000" font-family="sans-serif" font-size="14" lengthAdjust="spacing" textLength="214" x="27" y="449.7285">CourseService(courseRepository)</text><text fill="#000000" font-family="sans-serif" font-size="14" lengthAdjust="spacing" textLength="4" x="27" y="468.3496">&#160;</text><ellipse cx="18" cy="482.6738" fill="#84BE84" rx="3" ry="3" style="stroke:#038048;stroke-width:1.0;"/><text fill="#000000" font-family="sans-serif" font-size="14" lengthAdjust="spacing" textLength="124" x="27" y="486.9707">listClosedCourses()</text><ellipse cx="18" cy="501.2949" fill="#84BE84" rx="3" ry="3" style="stroke:#038048;stroke-width:1.0;"/><text fill="#000000" font-family="sans-serif" font-size="14" lengthAdjust="spacing" textLength="115" x="27" y="505.5918">listOpenCourses()</text><ellipse cx="18" cy="519.916" fill="#84BE84" rx="3" ry="3" style="stroke:#038048;stroke-width:1.0;"/><text fill="#000000" font-family="sans-serif" font-size="14" lengthAdjust="spacing" textLength="148" x="27" y="524.2129">listInProgressCourses()</text><ellipse cx="18" cy="538.5371" fill="#84BE84" rx="3" ry="3" style="stroke:#038048;stroke-width:1.0;"/><text fill="#000000" font-family="sans-serif" font-size="14" lengthAdjust="spacing" textLength="83" x="27" y="542.834">save(course)</text></g><!--class CourseDTO--><g id="elem_CourseDTO"><rect codeLine="53" fill="#F1F1F1" height="178.3477" id="CourseDTO" rx="2.5" ry="2.5" style="stroke:#181818;stroke-width:0.5;" width="166" x="44" y="638"/><ellipse cx="85.1" cy="654" fill="#ADD1B2" rx="11" ry="11" style="stroke:#181818;stroke-width:1.0;"/><path d="M87.8656,649.875 Q88.0219,649.6563 88.2094,649.5469 Q88.3969,649.4375 88.6156,649.4375 Q88.9906,649.4375 89.225,649.7031 Q89.4594,649.9531 89.4594,650.5625 L89.4594,652.0156 Q89.4594,652.625 89.225,652.8906 Q88.9906,653.1563 88.6156,653.1563 Q88.2719,653.1563 88.0688,652.9531 Q87.8656,652.7656 87.7563,652.25 Q87.7094,651.8906 87.5219,651.7031 Q87.1938,651.3281 86.5844,651.1094 Q85.975,650.8906 85.35,650.8906 Q84.5844,650.8906 83.9438,651.2188 Q83.3188,651.5469 82.8188,652.2969 Q82.3344,653.0469 82.3344,654.0781 L82.3344,655.1719 Q82.3344,656.4063 83.225,657.2344 Q84.1156,658.0469 85.7094,658.0469 Q86.6469,658.0469 87.3031,657.7969 Q87.6938,657.6406 88.1156,657.2031 Q88.3813,656.9375 88.5219,656.8594 Q88.6781,656.7813 88.8813,656.7813 Q89.2094,656.7813 89.4594,657.0469 Q89.725,657.2969 89.725,657.6406 Q89.725,657.9844 89.3813,658.3906 Q88.8813,658.9688 88.0844,659.2969 Q87.0063,659.75 85.7094,659.75 Q84.1938,659.75 82.9906,659.125 Q82.0063,658.625 81.3188,657.5625 Q80.6313,656.4844 80.6313,655.2031 L80.6313,654.0469 Q80.6313,652.7188 81.2406,651.5781 Q81.8656,650.4219 82.9594,649.8125 Q84.0531,649.1875 85.2875,649.1875 Q86.0219,649.1875 86.6625,649.3594 Q87.3188,649.5156 87.8656,649.875 Z " fill="#000000"/><text fill="#000000" font-family="sans-serif" font-size="14" lengthAdjust="spacing" textLength="76" x="104.9" y="659.7969">CourseDTO</text><line style="stroke:#181818;stroke-width:0.5;" x1="45" x2="209" y1="670" y2="670"/><rect fill="none" height="6" style="stroke:#C82930;stroke-width:1.0;" width="6" x="52" y="681.8105"/><text fill="#000000" font-family="sans-serif" font-size="14" lengthAdjust="spacing" textLength="31" x="64" y="689.1074">code</text><rect fill="none" height="6" style="stroke:#C82930;stroke-width:1.0;" width="6" x="52" y="700.4316"/><text fill="#000000" font-family="sans-serif" font-size="14" lengthAdjust="spacing" textLength="22" x="64" y="707.7285">title</text><rect fill="none" height="6" style="stroke:#C82930;stroke-width:1.0;" width="6" x="52" y="719.0527"/><text fill="#000000" font-family="sans-serif" font-size="14" lengthAdjust="spacing" textLength="69" x="64" y="726.3496">description</text><rect fill="none" height="6" style="stroke:#C82930;stroke-width:1.0;" width="6" x="52" y="737.6738"/><text fill="#000000" font-family="sans-serif" font-size="14" lengthAdjust="spacing" textLength="99" x="64" y="744.9707">enrolmentLimits</text><rect fill="none" height="6" style="stroke:#C82930;stroke-width:1.0;" width="6" x="52" y="756.2949"/><text fill="#000000" font-family="sans-serif" font-size="14" lengthAdjust="spacing" textLength="76" x="64" y="763.5918">courseState</text><rect fill="none" height="6" style="stroke:#C82930;stroke-width:1.0;" width="6" x="52" y="774.916"/><text fill="#000000" font-family="sans-serif" font-size="14" lengthAdjust="spacing" textLength="140" x="64" y="782.2129">courseEnrolmentState</text><rect fill="none" height="6" style="stroke:#C82930;stroke-width:1.0;" width="6" x="52" y="793.5371"/><text fill="#000000" font-family="sans-serif" font-size="14" lengthAdjust="spacing" textLength="61" x="64" y="800.834">createdAt</text><line style="stroke:#181818;stroke-width:0.5;" x1="45" x2="209" y1="808.3477" y2="808.3477"/></g><!--class InMemoryCourseRepository--><g id="elem_InMemoryCourseRepository"><rect codeLine="63" fill="#F1F1F1" height="122.4844" id="InMemoryCourseRepository" rx="2.5" ry="2.5" style="stroke:#181818;stroke-width:0.5;" width="207" x="572.5" y="1086"/><ellipse cx="587.5" cy="1102" fill="#ADD1B2" rx="11" ry="11" style="stroke:#181818;stroke-width:1.0;"/><path d="M590.2656,1097.875 Q590.4219,1097.6563 590.6094,1097.5469 Q590.7969,1097.4375 591.0156,1097.4375 Q591.3906,1097.4375 591.625,1097.7031 Q591.8594,1097.9531 591.8594,1098.5625 L591.8594,1100.0156 Q591.8594,1100.625 591.625,1100.8906 Q591.3906,1101.1563 591.0156,1101.1563 Q590.6719,1101.1563 590.4688,1100.9531 Q590.2656,1100.7656 590.1563,1100.25 Q590.1094,1099.8906 589.9219,1099.7031 Q589.5938,1099.3281 588.9844,1099.1094 Q588.375,1098.8906 587.75,1098.8906 Q586.9844,1098.8906 586.3438,1099.2188 Q585.7188,1099.5469 585.2188,1100.2969 Q584.7344,1101.0469 584.7344,1102.0781 L584.7344,1103.1719 Q584.7344,1104.4063 585.625,1105.2344 Q586.5156,1106.0469 588.1094,1106.0469 Q589.0469,1106.0469 589.7031,1105.7969 Q590.0938,1105.6406 590.5156,1105.2031 Q590.7813,1104.9375 590.9219,1104.8594 Q591.0781,1104.7813 591.2813,1104.7813 Q591.6094,1104.7813 591.8594,1105.0469 Q592.125,1105.2969 592.125,1105.6406 Q592.125,1105.9844 591.7813,1106.3906 Q591.2813,1106.9688 590.4844,1107.2969 Q589.4063,1107.75 588.1094,1107.75 Q586.5938,1107.75 585.3906,1107.125 Q584.4063,1106.625 583.7188,1105.5625 Q583.0313,1104.4844 583.0313,1103.2031 L583.0313,1102.0469 Q583.0313,1100.7188 583.6406,1099.5781 Q584.2656,1098.4219 585.3594,1097.8125 Q586.4531,1097.1875 587.6875,1097.1875 Q588.4219,1097.1875 589.0625,1097.3594 Q589.7188,1097.5156 590.2656,1097.875 Z " fill="#000000"/><text fill="#000000" font-family="sans-serif" font-size="14" lengthAdjust="spacing" textLength="175" x="601.5" y="1107.7969">InMemoryCourseRepository</text><line style="stroke:#181818;stroke-width:0.5;" x1="573.5" x2="778.5" y1="1118" y2="1118"/><line style="stroke:#181818;stroke-width:0.5;" x1="573.5" x2="778.5" y1="1126" y2="1126"/><ellipse cx="583.5" cy="1140.8105" fill="#84BE84" rx="3" ry="3" style="stroke:#038048;stroke-width:1.0;"/><text fill="#000000" font-family="sans-serif" font-size="14" lengthAdjust="spacing" textLength="83" x="592.5" y="1145.1074">save(course)</text><ellipse cx="583.5" cy="1159.4316" fill="#84BE84" rx="3" ry="3" style="stroke:#038048;stroke-width:1.0;"/><text fill="#000000" font-family="sans-serif" font-size="14" lengthAdjust="spacing" textLength="83" x="592.5" y="1163.7285">findAllOpen()</text><ellipse cx="583.5" cy="1178.0527" fill="#84BE84" rx="3" ry="3" style="stroke:#038048;stroke-width:1.0;"/><text fill="#000000" font-family="sans-serif" font-size="14" lengthAdjust="spacing" textLength="92" x="592.5" y="1182.3496">findAllClosed()</text><ellipse cx="583.5" cy="1196.6738" fill="#84BE84" rx="3" ry="3" style="stroke:#038048;stroke-width:1.0;"/><text fill="#000000" font-family="sans-serif" font-size="14" lengthAdjust="spacing" textLength="116" x="592.5" y="1200.9707">findAllInProgress()</text></g><!--class JpaCourseRepository--><g id="elem_JpaCourseRepository"><rect codeLine="70" fill="#F1F1F1" height="122.4844" id="JpaCourseRepository" rx="2.5" ry="2.5" style="stroke:#181818;stroke-width:0.5;" width="168" x="815" y="1086"/><ellipse cx="830" cy="1102" fill="#ADD1B2" rx="11" ry="11" style="stroke:#181818;stroke-width:1.0;"/><path d="M832.7656,1097.875 Q832.9219,1097.6563 833.1094,1097.5469 Q833.2969,1097.4375 833.5156,1097.4375 Q833.8906,1097.4375 834.125,1097.7031 Q834.3594,1097.9531 834.3594,1098.5625 L834.3594,1100.0156 Q834.3594,1100.625 834.125,1100.8906 Q833.8906,1101.1563 833.5156,1101.1563 Q833.1719,1101.1563 832.9688,1100.9531 Q832.7656,1100.7656 832.6563,1100.25 Q832.6094,1099.8906 832.4219,1099.7031 Q832.0938,1099.3281 831.4844,1099.1094 Q830.875,1098.8906 830.25,1098.8906 Q829.4844,1098.8906 828.8438,1099.2188 Q828.2188,1099.5469 827.7188,1100.2969 Q827.2344,1101.0469 827.2344,1102.0781 L827.2344,1103.1719 Q827.2344,1104.4063 828.125,1105.2344 Q829.0156,1106.0469 830.6094,1106.0469 Q831.5469,1106.0469 832.2031,1105.7969 Q832.5938,1105.6406 833.0156,1105.2031 Q833.2813,1104.9375 833.4219,1104.8594 Q833.5781,1104.7813 833.7813,1104.7813 Q834.1094,1104.7813 834.3594,1105.0469 Q834.625,1105.2969 834.625,1105.6406 Q834.625,1105.9844 834.2813,1106.3906 Q833.7813,1106.9688 832.9844,1107.2969 Q831.9063,1107.75 830.6094,1107.75 Q829.0938,1107.75 827.8906,1107.125 Q826.9063,1106.625 826.2188,1105.5625 Q825.5313,1104.4844 825.5313,1103.2031 L825.5313,1102.0469 Q825.5313,1100.7188 826.1406,1099.5781 Q826.7656,1098.4219 827.8594,1097.8125 Q828.9531,1097.1875 830.1875,1097.1875 Q830.9219,1097.1875 831.5625,1097.3594 Q832.2188,1097.5156 832.7656,1097.875 Z " fill="#000000"/><text fill="#000000" font-family="sans-serif" font-size="14" lengthAdjust="spacing" textLength="136" x="844" y="1107.7969">JpaCourseRepository</text><line style="stroke:#181818;stroke-width:0.5;" x1="816" x2="982" y1="1118" y2="1118"/><line style="stroke:#181818;stroke-width:0.5;" x1="816" x2="982" y1="1126" y2="1126"/><ellipse cx="826" cy="1140.8105" fill="#84BE84" rx="3" ry="3" style="stroke:#038048;stroke-width:1.0;"/><text fill="#000000" font-family="sans-serif" font-size="14" lengthAdjust="spacing" textLength="83" x="835" y="1145.1074">save(course)</text><ellipse cx="826" cy="1159.4316" fill="#84BE84" rx="3" ry="3" style="stroke:#038048;stroke-width:1.0;"/><text fill="#000000" font-family="sans-serif" font-size="14" lengthAdjust="spacing" textLength="83" x="835" y="1163.7285">findAllOpen()</text><ellipse cx="826" cy="1178.0527" fill="#84BE84" rx="3" ry="3" style="stroke:#038048;stroke-width:1.0;"/><text fill="#000000" font-family="sans-serif" font-size="14" lengthAdjust="spacing" textLength="92" x="835" y="1182.3496">findAllClosed()</text><ellipse cx="826" cy="1196.6738" fill="#84BE84" rx="3" ry="3" style="stroke:#038048;stroke-width:1.0;"/><text fill="#000000" font-family="sans-serif" font-size="14" lengthAdjust="spacing" textLength="116" x="835" y="1200.9707">findAllInProgress()</text></g><!--class PersistenceContext--><g id="elem_PersistenceContext"><rect codeLine="77" fill="#F1F1F1" height="66.6211" id="PersistenceContext" rx="2.5" ry="2.5" style="stroke:#181818;stroke-width:0.5;" width="154" x="710" y="427.5"/><ellipse cx="725" cy="443.5" fill="#ADD1B2" rx="11" ry="11" style="stroke:#181818;stroke-width:1.0;"/><path d="M727.7656,439.375 Q727.9219,439.1563 728.1094,439.0469 Q728.2969,438.9375 728.5156,438.9375 Q728.8906,438.9375 729.125,439.2031 Q729.3594,439.4531 729.3594,440.0625 L729.3594,441.5156 Q729.3594,442.125 729.125,442.3906 Q728.8906,442.6563 728.5156,442.6563 Q728.1719,442.6563 727.9688,442.4531 Q727.7656,442.2656 727.6563,441.75 Q727.6094,441.3906 727.4219,441.2031 Q727.0938,440.8281 726.4844,440.6094 Q725.875,440.3906 725.25,440.3906 Q724.4844,440.3906 723.8438,440.7188 Q723.2188,441.0469 722.7188,441.7969 Q722.2344,442.5469 722.2344,443.5781 L722.2344,444.6719 Q722.2344,445.9063 723.125,446.7344 Q724.0156,447.5469 725.6094,447.5469 Q726.5469,447.5469 727.2031,447.2969 Q727.5938,447.1406 728.0156,446.7031 Q728.2813,446.4375 728.4219,446.3594 Q728.5781,446.2813 728.7813,446.2813 Q729.1094,446.2813 729.3594,446.5469 Q729.625,446.7969 729.625,447.1406 Q729.625,447.4844 729.2813,447.8906 Q728.7813,448.4688 727.9844,448.7969 Q726.9063,449.25 725.6094,449.25 Q724.0938,449.25 722.8906,448.625 Q721.9063,448.125 721.2188,447.0625 Q720.5313,445.9844 720.5313,444.7031 L720.5313,443.5469 Q720.5313,442.2188 721.1406,441.0781 Q721.7656,439.9219 722.8594,439.3125 Q723.9531,438.6875 725.1875,438.6875 Q725.9219,438.6875 726.5625,438.8594 Q727.2188,439.0156 727.7656,439.375 Z " fill="#000000"/><text fill="#000000" font-family="sans-serif" font-size="14" lengthAdjust="spacing" textLength="122" x="739" y="449.2969">PersistenceContext</text><line style="stroke:#181818;stroke-width:0.5;" x1="711" x2="863" y1="459.5" y2="459.5"/><line style="stroke:#181818;stroke-width:0.5;" x1="711" x2="863" y1="467.5" y2="467.5"/><rect fill="#F24D5C" height="6" style="stroke:#C82930;stroke-width:1.0;" width="6" x="718" y="479.3105"/><text fill="#000000" font-family="sans-serif" font-size="14" lengthAdjust="spacing" textLength="84" x="730" y="486.6074">repositories()</text></g><!--class CourseState--><g id="elem_CourseState"><rect codeLine="82" fill="#F1F1F1" height="122.4844" id="CourseState" rx="2.5" ry="2.5" style="stroke:#181818;stroke-width:0.5;" width="111" x="353.5" y="400"/><ellipse cx="368.5" cy="416" fill="#EB937F" rx="11" ry="11" style="stroke:#181818;stroke-width:1.0;"/><path d="M367.3594,416.7969 L367.3594,419.2969 L371.6875,419.2969 L371.6875,418.375 Q371.6875,417.7656 371.9219,417.5 Q372.1719,417.2344 372.5469,417.2344 Q372.9219,417.2344 373.1563,417.5 Q373.3906,417.7656 373.3906,418.375 L373.3906,421 L365.3906,421 Q364.7656,421 364.5,420.7656 Q364.25,420.5313 364.25,420.1406 Q364.25,419.7656 364.5156,419.5313 Q364.7813,419.2969 365.3906,419.2969 L365.6563,419.2969 L365.6563,412.6406 L365.3906,412.6406 Q364.7656,412.6406 364.5,412.4063 Q364.25,412.1719 364.25,411.7813 Q364.25,411.4063 364.5,411.1719 Q364.7656,410.9375 365.3906,410.9375 L373.0156,410.9375 L373.0156,413.5313 Q373.0156,414.1406 372.7813,414.4063 Q372.5625,414.6563 372.1719,414.6563 Q371.7969,414.6563 371.5625,414.4063 Q371.3281,414.1406 371.3281,413.5313 L371.3281,412.6406 L367.3594,412.6406 L367.3594,415.0938 L368.8438,415.0938 Q368.8438,414.4375 368.9688,414.25 Q369.2344,413.8438 369.7031,413.8438 Q370.0781,413.8438 370.3125,414.1094 Q370.5469,414.3594 370.5469,414.9688 L370.5469,416.9375 Q370.5469,417.4844 370.4219,417.6719 Q370.1563,418.0625 369.7031,418.0625 Q369.2344,418.0625 368.9688,417.6563 Q368.8438,417.4688 368.8438,416.7969 L367.3594,416.7969 Z " fill="#000000"/><text fill="#000000" font-family="sans-serif" font-size="14" lengthAdjust="spacing" textLength="79" x="382.5" y="421.7969">CourseState</text><line style="stroke:#181818;stroke-width:0.5;" x1="354.5" x2="463.5" y1="432" y2="432"/><text fill="#000000" font-family="sans-serif" font-size="14" lengthAdjust="spacing" textLength="57" x="359.5" y="451.1074">CLOSED</text><text fill="#000000" font-family="sans-serif" font-size="14" lengthAdjust="spacing" textLength="38" x="359.5" y="469.7285">OPEN</text><text fill="#000000" font-family="sans-serif" font-size="14" lengthAdjust="spacing" textLength="98" x="359.5" y="488.3496">IN_PROGRESS</text><text fill="#000000" font-family="sans-serif" font-size="14" lengthAdjust="spacing" textLength="61" x="359.5" y="506.9707">FINISHED</text><line style="stroke:#181818;stroke-width:0.5;" x1="354.5" x2="463.5" y1="514.4844" y2="514.4844"/></g><!--class CourseEnrolmentState--><g id="elem_CourseEnrolmentState"><rect codeLine="91" fill="#F1F1F1" height="85.2422" id="CourseEnrolmentState" rx="2.5" ry="2.5" style="stroke:#181818;stroke-width:0.5;" width="175" x="499.5" y="418.5"/><ellipse cx="514.5" cy="434.5" fill="#EB937F" rx="11" ry="11" style="stroke:#181818;stroke-width:1.0;"/><path d="M513.3594,435.2969 L513.3594,437.7969 L517.6875,437.7969 L517.6875,436.875 Q517.6875,436.2656 517.9219,436 Q518.1719,435.7344 518.5469,435.7344 Q518.9219,435.7344 519.1563,436 Q519.3906,436.2656 519.3906,436.875 L519.3906,439.5 L511.3906,439.5 Q510.7656,439.5 510.5,439.2656 Q510.25,439.0313 510.25,438.6406 Q510.25,438.2656 510.5156,438.0313 Q510.7813,437.7969 511.3906,437.7969 L511.6563,437.7969 L511.6563,431.1406 L511.3906,431.1406 Q510.7656,431.1406 510.5,430.9063 Q510.25,430.6719 510.25,430.2813 Q510.25,429.9063 510.5,429.6719 Q510.7656,429.4375 511.3906,429.4375 L519.0156,429.4375 L519.0156,432.0313 Q519.0156,432.6406 518.7813,432.9063 Q518.5625,433.1563 518.1719,433.1563 Q517.7969,433.1563 517.5625,432.9063 Q517.3281,432.6406 517.3281,432.0313 L517.3281,431.1406 L513.3594,431.1406 L513.3594,433.5938 L514.8438,433.5938 Q514.8438,432.9375 514.9688,432.75 Q515.2344,432.3438 515.7031,432.3438 Q516.0781,432.3438 516.3125,432.6094 Q516.5469,432.8594 516.5469,433.4688 L516.5469,435.4375 Q516.5469,435.9844 516.4219,436.1719 Q516.1563,436.5625 515.7031,436.5625 Q515.2344,436.5625 514.9688,436.1563 Q514.8438,435.9688 514.8438,435.2969 L513.3594,435.2969 Z " fill="#000000"/><text fill="#000000" font-family="sans-serif" font-size="14" lengthAdjust="spacing" textLength="143" x="528.5" y="440.2969">CourseEnrolmentState</text><line style="stroke:#181818;stroke-width:0.5;" x1="500.5" x2="673.5" y1="450.5" y2="450.5"/><text fill="#000000" font-family="sans-serif" font-size="14" lengthAdjust="spacing" textLength="38" x="505.5" y="469.6074">OPEN</text><text fill="#000000" font-family="sans-serif" font-size="14" lengthAdjust="spacing" textLength="57" x="505.5" y="488.2285">CLOSED</text><line style="stroke:#181818;stroke-width:0.5;" x1="500.5" x2="673.5" y1="495.7422" y2="495.7422"/></g><!--link CourseState to Course--><g id="link_CourseState_Course"><path codeLine="96" d="M399.87,522.24 C396.15,546.84 391.69,576.21 387.35,604.9 " fill="none" id="CourseState-to-Course" style="stroke:#181818;stroke-width:1.0;"/><polygon fill="#181818" points="386.6,609.87,391.9166,601.5794,387.3571,604.9276,384.0088,600.3681,386.6,609.87" style="stroke:#181818;stroke-width:1.0;"/></g><!--link CourseEnrolmentState to Course--><g id="link_CourseEnrolmentState_Course"><path codeLine="97" d="M552.7,503.54 C526.56,535.19 489.39,580.21 455.31,621.48 " fill="none" id="CourseEnrolmentState-to-Course" style="stroke:#181818;stroke-width:1.0;"/><polygon fill="#181818" points="452.02,625.46,460.8354,621.068,455.204,621.6049,454.6672,615.9736,452.02,625.46" style="stroke:#181818;stroke-width:1.0;"/></g><!--link PersistenceContext to RepositoryFactory--><g id="link_PersistenceContext_RepositoryFactory"><path codeLine="99" d="M787,494.64 C787,543.72 787,636.31 787,688.24 " fill="none" id="PersistenceContext-to-RepositoryFactory" style="stroke:#181818;stroke-width:1.0;stroke-dasharray:7.0,7.0;"/><polygon fill="#181818" points="787,693.44,791,684.44,787,688.44,783,684.44,787,693.44" style="stroke:#181818;stroke-width:1.0;"/></g><!--link RepositoryFactory to CourseRepository--><g id="link_RepositoryFactory_CourseRepository"><path codeLine="100" d="M787,760.81 C787,796.3 787,853.8 787,898.59 " fill="none" id="RepositoryFactory-to-CourseRepository" style="stroke:#181818;stroke-width:1.0;"/><polygon fill="#181818" points="787,903.71,791,894.71,787,898.71,783,894.71,787,903.71" style="stroke:#181818;stroke-width:1.0;"/></g><!--reverse link CourseRepository to InMemoryCourseRepository--><g id="link_CourseRepository_InMemoryCourseRepository"><path codeLine="102" d="M739.35,1043.26 C730.56,1057.52 721.5,1072.21 713.08,1085.87 " fill="none" id="CourseRepository-backto-InMemoryCourseRepository" style="stroke:#181818;stroke-width:1.0;stroke-dasharray:7.0,7.0;"/><polygon fill="none" points="733.43,1039.54,749.88,1026.19,745.34,1046.89,733.43,1039.54" style="stroke:#181818;stroke-width:1.0;"/></g><!--reverse link CourseRepository to JpaCourseRepository--><g id="link_CourseRepository_JpaCourseRepository"><path codeLine="103" d="M835.07,1043.26 C843.95,1057.52 853.09,1072.21 861.59,1085.87 " fill="none" id="CourseRepository-backto-JpaCourseRepository" style="stroke:#181818;stroke-width:1.0;stroke-dasharray:7.0,7.0;"/><polygon fill="none" points="829.07,1046.87,824.45,1026.19,840.96,1039.47,829.07,1046.87" style="stroke:#181818;stroke-width:1.0;"/></g><!--link ToggleCourseStatusController to PersistenceContext--><g id="link_ToggleCourseStatusController_PersistenceContext"><path codeLine="104" d="M412.06,247.37 C493.42,274.06 604.17,316.37 692,372 C714.42,386.2 736.37,406.02 753.51,423.26 " fill="none" id="ToggleCourseStatusController-to-PersistenceContext" style="stroke:#181818;stroke-width:1.0;stroke-dasharray:7.0,7.0;"/><polygon fill="#181818" points="757.32,427.12,753.8587,417.8994,753.8131,423.5561,748.1564,423.5105,757.32,427.12" style="stroke:#181818;stroke-width:1.0;"/></g><!--link ToggleCourseStatusController to Course--><g id="link_ToggleCourseStatusController_Course"><path codeLine="105" d="M308.43,312.02 C314.72,379.11 324.25,470.16 336,550 C338.61,567.71 341.71,586.36 344.96,604.63 " fill="none" id="ToggleCourseStatusController-to-Course" style="stroke:#181818;stroke-width:1.0;stroke-dasharray:7.0,7.0;"/><polygon fill="#181818" points="345.87,609.77,348.215,600.2044,344.9856,604.8488,340.3412,601.6194,345.87,609.77" style="stroke:#181818;stroke-width:1.0;"/></g><!--link ToggleCourseStatusUI to ToggleCourseStatusController--><g id="link_ToggleCourseStatusUI_ToggleCourseStatusController"><path codeLine="106" d="M300,55.23 C300,69.62 300,89.23 300,109.72 " fill="none" id="ToggleCourseStatusUI-to-ToggleCourseStatusController" style="stroke:#181818;stroke-width:1.0;stroke-dasharray:7.0,7.0;"/><polygon fill="#181818" points="300,114.94,304,105.94,300,109.94,296,105.94,300,114.94" style="stroke:#181818;stroke-width:1.0;"/></g><!--link CourseListService to Course--><g id="link_CourseListService_Course"><path codeLine="108" d="M207.92,550.28 C231.75,576.28 257.93,604.83 282.12,631.22 " fill="none" id="CourseListService-to-Course" style="stroke:#181818;stroke-width:1.0;stroke-dasharray:7.0,7.0;"/><polygon fill="#181818" points="285.68,635.1,282.5373,625.766,282.2975,631.4178,276.6457,631.178,285.68,635.1" style="stroke:#181818;stroke-width:1.0;"/></g><!--link CourseListService to CourseDTO--><g id="link_CourseListService_CourseDTO"><path codeLine="109" d="M127,550.28 C127,576.69 127,605.75 127,632.49 " fill="none" id="CourseListService-to-CourseDTO" style="stroke:#181818;stroke-width:1.0;stroke-dasharray:7.0,7.0;"/><polygon fill="#181818" points="127,637.81,131,628.81,127,632.81,123,628.81,127,637.81" style="stroke:#181818;stroke-width:1.0;"/></g><!--link ToggleCourseStatusController to CourseListService--><g id="link_ToggleCourseStatusController_CourseListService"><path codeLine="110" d="M231.13,312.23 C218.25,330.51 204.83,349.55 192.07,367.66 " fill="none" id="ToggleCourseStatusController-to-CourseListService" style="stroke:#181818;stroke-width:1.0;"/><polygon fill="#181818" points="189.19,371.75,197.6494,366.7063,192.0745,367.666,191.1149,362.0911,189.19,371.75" style="stroke:#181818;stroke-width:1.0;"/></g><!--SRC=[lLN9ReCm4BtxApYcgf8lg2fL96sfqe12UguGJ5DBZeri4tNzzuwn0RCalUN4-CtsPh79MQPKi1FxFODGL591gZDTgPSe-2Rabv3yX44ek9Q2CP1eE0_oMhMcIgSWZpI75jj2AHJLGduYb5NwNKZwbMagU6Dv7J3qYqlWDe6QNJaiP491CKGZdaYnbw2Khz4rnPr891ofg9okfzh0XsvXhCqLPo4i8mWCwG9gGLFDh5I0oYKj3UNw31mBFm3NQtgWMZctfZNWdLUDfQUGW69nf_5ac2srG396BXtnsjPX71atvtOONKVliznyQkhNOzmwKQv1lcKvk48xC-UdiYFCB66RzOtoueunCv5P3x7pw6FTD7oEuN0VslOETg8EvHRBMiw6DbVMQ6eX6ho_F0qwjIYZWWUKbxluuflGKeZuCnomuWiEwgdCBfWj0QbmCC1pC0y8RhThjcooKt0E17Xr2BednsvGk8xJrHA5E5bjy1DjNfDj_B1TfIcUxgDDb3wYtlZx0VhjhoEv02uWElYfvlDRvqac0tXwCb7JOd4xleraV6-xCFwD6CtZvcUnEBaR9ymdvahElkA6yxYK_trS6oP_8KP_Ba1Jg_zEU37FAV6UdkVMzTR_A_q1]--></g></svg>