<?xml version="1.0" encoding="UTF-8" standalone="no"?><svg xmlns="http://www.w3.org/2000/svg" xmlns:xlink="http://www.w3.org/1999/xlink" contentStyleType="text/css" height="1532px" preserveAspectRatio="none" style="width:1311px;height:1532px;background:#FFFFFF;" version="1.1" viewBox="0 0 1311 1532" width="1311px" zoomAndPan="magnify"><defs/><g><!--class ToggleCourseStatusUI--><g id="elem_ToggleCourseStatusUI"><rect codeLine="2" fill="#F1F1F1" height="53.24" id="ToggleCourseStatusUI" rx="2.5" ry="2.5" style="stroke:#181818;stroke-width:0.5;" width="252" x="274" y="7"/><ellipse cx="290" cy="25.62" fill="#ADD1B2" rx="12" ry="12" style="stroke:#181818;stroke-width:1.0;"/><path d="M290.125,19.9637 Q289.0469,19.9637 288.1875,20.3387 Q287.3281,20.6981 286.7344,21.4012 Q286.1406,22.0887 285.8125,23.1044 Q285.5,24.12 285.5,25.4169 Q285.5,27.12 286.0156,28.3544 Q286.5313,29.5731 287.5469,30.2294 Q288.5625,30.87 290.1094,30.87 Q291.0156,30.87 291.8281,30.7137 Q292.6406,30.5575 293.8281,30.1981 L293.8281,32.4012 Q292.7969,32.7762 291.9219,32.9169 Q291.0469,33.0731 289.8438,33.0731 Q287.5625,33.0731 286.0313,32.1356 Q284.5,31.1825 283.7344,29.4481 Q282.9688,27.6981 282.9688,25.4012 Q282.9688,23.7294 283.4375,22.3387 Q283.9063,20.9481 284.8125,19.9169 Q285.7344,18.87 287.0781,18.3231 Q288.4219,17.7606 290.1406,17.7606 Q291.2813,17.7606 292.3281,17.995 Q293.3906,18.2137 294.4844,18.7762 L293.5156,20.8387 Q292.5938,20.4325 291.8125,20.1981 Q291.0313,19.9637 290.125,19.9637 Z " fill="#000000"/><text fill="#000000" font-family="sans-serif" font-size="20" lengthAdjust="spacing" textLength="218" x="305" y="33.38">ToggleCourseStatusUI</text><line style="stroke:#181818;stroke-width:0.5;" x1="275" x2="525" y1="44.24" y2="44.24"/><line style="stroke:#181818;stroke-width:0.5;" x1="275" x2="525" y1="52.24" y2="52.24"/></g><!--class ToggleCourseStatusController--><g id="elem_ToggleCourseStatusController"><rect codeLine="6" fill="#F1F1F1" height="271.1598" id="ToggleCourseStatusController" rx="2.5" ry="2.5" style="stroke:#181818;stroke-width:0.5;" width="328" x="236" y="120"/><ellipse cx="252" cy="138.62" fill="#ADD1B2" rx="12" ry="12" style="stroke:#181818;stroke-width:1.0;"/><path d="M252.125,132.9637 Q251.0469,132.9637 250.1875,133.3387 Q249.3281,133.6981 248.7344,134.4012 Q248.1406,135.0887 247.8125,136.1044 Q247.5,137.12 247.5,138.4169 Q247.5,140.12 248.0156,141.3544 Q248.5313,142.5731 249.5469,143.2294 Q250.5625,143.87 252.1094,143.87 Q253.0156,143.87 253.8281,143.7137 Q254.6406,143.5575 255.8281,143.1981 L255.8281,145.4012 Q254.7969,145.7762 253.9219,145.9169 Q253.0469,146.0731 251.8438,146.0731 Q249.5625,146.0731 248.0313,145.1356 Q246.5,144.1825 245.7344,142.4481 Q244.9688,140.6981 244.9688,138.4012 Q244.9688,136.7294 245.4375,135.3387 Q245.9063,133.9481 246.8125,132.9169 Q247.7344,131.87 249.0781,131.3231 Q250.4219,130.7606 252.1406,130.7606 Q253.2813,130.7606 254.3281,130.995 Q255.3906,131.2137 256.4844,131.7762 L255.5156,133.8387 Q254.5938,133.4325 253.8125,133.1981 Q253.0313,132.9637 252.125,132.9637 Z " fill="#000000"/><text fill="#000000" font-family="sans-serif" font-size="20" lengthAdjust="spacing" textLength="294" x="267" y="146.38">ToggleCourseStatusController</text><line style="stroke:#181818;stroke-width:0.5;" x1="237" x2="563" y1="157.24" y2="157.24"/><rect fill="none" height="6" style="stroke:#C82930;stroke-width:1.0;" width="6" x="244" y="173.36"/><text fill="#000000" font-family="sans-serif" font-size="20" lengthAdjust="spacing" textLength="166" x="257" y="182.62">courseListService</text><rect fill="none" height="6" style="stroke:#C82930;stroke-width:1.0;" width="6" x="244" y="200.5999"/><text fill="#000000" font-family="sans-serif" font-size="20" lengthAdjust="spacing" textLength="167" x="257" y="209.8599">courseRepository</text><rect fill="none" height="6" style="stroke:#C82930;stroke-width:1.0;" width="6" x="244" y="227.8399"/><text fill="#000000" font-family="sans-serif" font-size="20" lengthAdjust="spacing" textLength="199" x="257" y="237.0999">authorizationService</text><line style="stroke:#181818;stroke-width:0.5;" x1="237" x2="563" y1="246.9599" y2="246.9599"/><ellipse cx="247" cy="266.0799" fill="#84BE84" rx="3" ry="3" style="stroke:#038048;stroke-width:1.0;"/><text fill="#000000" font-family="sans-serif" font-size="20" lengthAdjust="spacing" textLength="171" x="257" y="272.3399">listOpenCourses()</text><ellipse cx="247" cy="293.3199" fill="#84BE84" rx="3" ry="3" style="stroke:#038048;stroke-width:1.0;"/><text fill="#000000" font-family="sans-serif" font-size="20" lengthAdjust="spacing" textLength="183" x="257" y="299.5799">listClosedCourses()</text><ellipse cx="247" cy="320.5598" fill="#84BE84" rx="3" ry="3" style="stroke:#038048;stroke-width:1.0;"/><text fill="#000000" font-family="sans-serif" font-size="20" lengthAdjust="spacing" textLength="225" x="257" y="326.8198">listInProgressCourses()</text><ellipse cx="247" cy="347.7998" fill="#84BE84" rx="3" ry="3" style="stroke:#038048;stroke-width:1.0;"/><text fill="#000000" font-family="sans-serif" font-size="20" lengthAdjust="spacing" textLength="250" x="257" y="354.0598">toggleToPreviousCourse()</text><ellipse cx="247" cy="375.0398" fill="#84BE84" rx="3" ry="3" style="stroke:#038048;stroke-width:1.0;"/><text fill="#000000" font-family="sans-serif" font-size="20" lengthAdjust="spacing" textLength="213" x="257" y="381.2998">toggleToNextCourse()</text></g><!--class Course--><g id="elem_Course"><rect codeLine="18" fill="#F1F1F1" height="325.6397" id="Course" rx="2.5" ry="2.5" style="stroke:#181818;stroke-width:0.5;" width="242" x="370" y="755"/><ellipse cx="453" cy="773.62" fill="#ADD1B2" rx="12" ry="12" style="stroke:#181818;stroke-width:1.0;"/><path d="M453.125,767.9637 Q452.0469,767.9637 451.1875,768.3387 Q450.3281,768.6981 449.7344,769.4012 Q449.1406,770.0887 448.8125,771.1044 Q448.5,772.12 448.5,773.4169 Q448.5,775.12 449.0156,776.3544 Q449.5313,777.5731 450.5469,778.2294 Q451.5625,778.87 453.1094,778.87 Q454.0156,778.87 454.8281,778.7137 Q455.6406,778.5575 456.8281,778.1981 L456.8281,780.4012 Q455.7969,780.7762 454.9219,780.9169 Q454.0469,781.0731 452.8438,781.0731 Q450.5625,781.0731 449.0313,780.1356 Q447.5,779.1825 446.7344,777.4481 Q445.9688,775.6981 445.9688,773.4012 Q445.9688,771.7294 446.4375,770.3387 Q446.9063,768.9481 447.8125,767.9169 Q448.7344,766.87 450.0781,766.3231 Q451.4219,765.7606 453.1406,765.7606 Q454.2813,765.7606 455.3281,765.995 Q456.3906,766.2137 457.4844,766.7762 L456.5156,768.8387 Q455.5938,768.4325 454.8125,768.1981 Q454.0313,767.9637 453.125,767.9637 Z " fill="#000000"/><text fill="#000000" font-family="sans-serif" font-size="20" lengthAdjust="spacing" textLength="67" x="475" y="781.38">Course</text><line style="stroke:#181818;stroke-width:0.5;" x1="371" x2="611" y1="792.24" y2="792.24"/><rect fill="none" height="6" style="stroke:#C82930;stroke-width:1.0;" width="6" x="378" y="808.36"/><text fill="#000000" font-family="sans-serif" font-size="20" lengthAdjust="spacing" textLength="45" x="391" y="817.62">code</text><rect fill="none" height="6" style="stroke:#C82930;stroke-width:1.0;" width="6" x="378" y="835.5999"/><text fill="#000000" font-family="sans-serif" font-size="20" lengthAdjust="spacing" textLength="39" x="391" y="844.8599">title</text><rect fill="none" height="6" style="stroke:#C82930;stroke-width:1.0;" width="6" x="378" y="862.8399"/><text fill="#000000" font-family="sans-serif" font-size="20" lengthAdjust="spacing" textLength="110" x="391" y="872.0999">description</text><rect fill="none" height="6" style="stroke:#C82930;stroke-width:1.0;" width="6" x="378" y="890.0799"/><text fill="#000000" font-family="sans-serif" font-size="20" lengthAdjust="spacing" textLength="162" x="391" y="899.3399">enrolmentLimits</text><rect fill="none" height="6" style="stroke:#C82930;stroke-width:1.0;" width="6" x="378" y="917.3199"/><text fill="#000000" font-family="sans-serif" font-size="20" lengthAdjust="spacing" textLength="113" x="391" y="926.5799">courseState</text><rect fill="none" height="6" style="stroke:#C82930;stroke-width:1.0;" width="6" x="378" y="944.5598"/><text fill="#000000" font-family="sans-serif" font-size="20" lengthAdjust="spacing" textLength="215" x="391" y="953.8198">courseEnrolmentState</text><rect fill="none" height="6" style="stroke:#C82930;stroke-width:1.0;" width="6" x="378" y="971.7998"/><text fill="#000000" font-family="sans-serif" font-size="20" lengthAdjust="spacing" textLength="93" x="391" y="981.0598">createdAt</text><line style="stroke:#181818;stroke-width:0.5;" x1="371" x2="611" y1="990.9198" y2="990.9198"/><ellipse cx="381" cy="1010.0398" fill="#84BE84" rx="3" ry="3" style="stroke:#038048;stroke-width:1.0;"/><text fill="#000000" font-family="sans-serif" font-size="20" lengthAdjust="spacing" textLength="66" x="391" y="1016.2998">toDto()</text><ellipse cx="381" cy="1037.2798" fill="#84BE84" rx="3" ry="3" style="stroke:#038048;stroke-width:1.0;"/><text fill="#000000" font-family="sans-serif" font-size="20" lengthAdjust="spacing" textLength="145" x="391" y="1043.5398">previousState()</text><ellipse cx="381" cy="1064.5197" fill="#84BE84" rx="3" ry="3" style="stroke:#038048;stroke-width:1.0;"/><text fill="#000000" font-family="sans-serif" font-size="20" lengthAdjust="spacing" textLength="104" x="391" y="1070.7797">nextState()</text></g><!--class RepositoryFactory--><g id="elem_RepositoryFactory"><rect codeLine="31" fill="#F1F1F1" height="80.4799" id="RepositoryFactory" rx="2.5" ry="2.5" style="stroke:#181818;stroke-width:0.5;" width="212" x="929" y="878"/><ellipse cx="947.25" cy="896.62" fill="#ADD1B2" rx="12" ry="12" style="stroke:#181818;stroke-width:1.0;"/><path d="M947.375,890.9637 Q946.2969,890.9637 945.4375,891.3387 Q944.5781,891.6981 943.9844,892.4012 Q943.3906,893.0887 943.0625,894.1044 Q942.75,895.12 942.75,896.4169 Q942.75,898.12 943.2656,899.3544 Q943.7813,900.5731 944.7969,901.2294 Q945.8125,901.87 947.3594,901.87 Q948.2656,901.87 949.0781,901.7137 Q949.8906,901.5575 951.0781,901.1981 L951.0781,903.4012 Q950.0469,903.7762 949.1719,903.9169 Q948.2969,904.0731 947.0938,904.0731 Q944.8125,904.0731 943.2813,903.1356 Q941.75,902.1825 940.9844,900.4481 Q940.2188,898.6981 940.2188,896.4012 Q940.2188,894.7294 940.6875,893.3387 Q941.1563,891.9481 942.0625,890.9169 Q942.9844,889.87 944.3281,889.3231 Q945.6719,888.7606 947.3906,888.7606 Q948.5313,888.7606 949.5781,888.995 Q950.6406,889.2137 951.7344,889.7762 L950.7656,891.8387 Q949.8438,891.4325 949.0625,891.1981 Q948.2813,890.9637 947.375,890.9637 Z " fill="#000000"/><text fill="#000000" font-family="sans-serif" font-size="20" lengthAdjust="spacing" textLength="173" x="962.75" y="904.38">RepositoryFactory</text><line style="stroke:#181818;stroke-width:0.5;" x1="930" x2="1140" y1="915.24" y2="915.24"/><line style="stroke:#181818;stroke-width:0.5;" x1="930" x2="1140" y1="923.24" y2="923.24"/><ellipse cx="940" cy="942.36" fill="#84BE84" rx="3" ry="3" style="stroke:#038048;stroke-width:1.0;"/><text fill="#000000" font-family="sans-serif" font-size="20" lengthAdjust="spacing" textLength="185" x="950" y="948.62">RepositoryFactory()</text></g><!--class CourseRepository--><g id="elem_CourseRepository"><rect codeLine="35" fill="#F1F1F1" height="162.1999" id="CourseRepository" rx="2.5" ry="2.5" style="stroke:#181818;stroke-width:0.5;" width="210" x="930" y="1141"/><ellipse cx="955.45" cy="1159.62" fill="#B4A7E5" rx="12" ry="12" style="stroke:#181818;stroke-width:1.0;"/><path d="M958.0281,1167.12 L952.2469,1167.12 L952.2469,1165.5106 L953.9344,1165.1356 L953.9344,1154.2137 L952.2469,1153.8231 L952.2469,1152.2137 L958.0281,1152.2137 L958.0281,1153.8231 L956.3563,1154.2137 L956.3563,1165.1356 L958.0281,1165.5106 L958.0281,1167.12 Z " fill="#000000"/><text fill="#000000" font-family="sans-serif" font-size="20" font-style="italic" lengthAdjust="spacing" textLength="155" x="972.55" y="1167.38">CourseRepository</text><line style="stroke:#181818;stroke-width:0.5;" x1="931" x2="1139" y1="1178.24" y2="1178.24"/><line style="stroke:#181818;stroke-width:0.5;" x1="931" x2="1139" y1="1186.24" y2="1186.24"/><ellipse cx="941" cy="1205.36" fill="#84BE84" rx="3" ry="3" style="stroke:#038048;stroke-width:1.0;"/><text fill="#000000" font-family="sans-serif" font-size="20" lengthAdjust="spacing" textLength="118" x="951" y="1211.62">save(course)</text><ellipse cx="941" cy="1232.5999" fill="#84BE84" rx="3" ry="3" style="stroke:#038048;stroke-width:1.0;"/><text fill="#000000" font-family="sans-serif" font-size="20" lengthAdjust="spacing" textLength="129" x="951" y="1238.8599">findAllOpen()</text><ellipse cx="941" cy="1259.8399" fill="#84BE84" rx="3" ry="3" style="stroke:#038048;stroke-width:1.0;"/><text fill="#000000" font-family="sans-serif" font-size="20" lengthAdjust="spacing" textLength="141" x="951" y="1266.0999">findAllClosed()</text><ellipse cx="941" cy="1287.0799" fill="#84BE84" rx="3" ry="3" style="stroke:#038048;stroke-width:1.0;"/><text fill="#000000" font-family="sans-serif" font-size="20" lengthAdjust="spacing" textLength="183" x="951" y="1293.3399">findAllInProgress()</text></g><!--class CourseListService--><g id="elem_CourseListService"><rect codeLine="42" fill="#F1F1F1" height="243.9198" id="CourseListService" rx="2.5" ry="2.5" style="stroke:#181818;stroke-width:0.5;" width="340" x="7" y="451"/><ellipse cx="88" cy="469.62" fill="#ADD1B2" rx="12" ry="12" style="stroke:#181818;stroke-width:1.0;"/><path d="M88.125,463.9637 Q87.0469,463.9637 86.1875,464.3387 Q85.3281,464.6981 84.7344,465.4012 Q84.1406,466.0887 83.8125,467.1044 Q83.5,468.12 83.5,469.4169 Q83.5,471.12 84.0156,472.3544 Q84.5313,473.5731 85.5469,474.2294 Q86.5625,474.87 88.1094,474.87 Q89.0156,474.87 89.8281,474.7137 Q90.6406,474.5575 91.8281,474.1981 L91.8281,476.4012 Q90.7969,476.7762 89.9219,476.9169 Q89.0469,477.0731 87.8438,477.0731 Q85.5625,477.0731 84.0313,476.1356 Q82.5,475.1825 81.7344,473.4481 Q80.9688,471.6981 80.9688,469.4012 Q80.9688,467.7294 81.4375,466.3387 Q81.9063,464.9481 82.8125,463.9169 Q83.7344,462.87 85.0781,462.3231 Q86.4219,461.7606 88.1406,461.7606 Q89.2813,461.7606 90.3281,461.995 Q91.3906,462.2137 92.4844,462.7762 L91.5156,464.8387 Q90.5938,464.4325 89.8125,464.1981 Q89.0313,463.9637 88.125,463.9637 Z " fill="#000000"/><text fill="#000000" font-family="sans-serif" font-size="20" lengthAdjust="spacing" textLength="169" x="110" y="477.38">CourseListService</text><line style="stroke:#181818;stroke-width:0.5;" x1="8" x2="346" y1="488.24" y2="488.24"/><rect fill="none" height="6" style="stroke:#C82930;stroke-width:1.0;" width="6" x="15" y="504.36"/><text fill="#000000" font-family="sans-serif" font-size="20" lengthAdjust="spacing" textLength="167" x="28" y="513.62">courseRepository</text><line style="stroke:#181818;stroke-width:0.5;" x1="8" x2="346" y1="523.4799" y2="523.4799"/><ellipse cx="18" cy="542.5999" fill="#84BE84" rx="3" ry="3" style="stroke:#038048;stroke-width:1.0;"/><text fill="#000000" font-family="sans-serif" font-size="20" lengthAdjust="spacing" textLength="313" x="28" y="548.8599">CourseService(courseRepository)</text><text fill="#000000" font-family="sans-serif" font-size="20" lengthAdjust="spacing" textLength="5" x="28" y="576.0999"> </text><ellipse cx="18" cy="597.0799" fill="#84BE84" rx="3" ry="3" style="stroke:#038048;stroke-width:1.0;"/><text fill="#000000" font-family="sans-serif" font-size="20" lengthAdjust="spacing" textLength="183" x="28" y="603.3399">listClosedCourses()</text><ellipse cx="18" cy="624.3199" fill="#84BE84" rx="3" ry="3" style="stroke:#038048;stroke-width:1.0;"/><text fill="#000000" font-family="sans-serif" font-size="20" lengthAdjust="spacing" textLength="171" x="28" y="630.5799">listOpenCourses()</text><ellipse cx="18" cy="651.5598" fill="#84BE84" rx="3" ry="3" style="stroke:#038048;stroke-width:1.0;"/><text fill="#000000" font-family="sans-serif" font-size="20" lengthAdjust="spacing" textLength="225" x="28" y="657.8198">listInProgressCourses()</text><ellipse cx="18" cy="678.7998" fill="#84BE84" rx="3" ry="3" style="stroke:#038048;stroke-width:1.0;"/><text fill="#000000" font-family="sans-serif" font-size="20" lengthAdjust="spacing" textLength="118" x="28" y="685.0598">save(course)</text></g><!--class CourseDTO--><g id="elem_CourseDTO"><rect codeLine="53" fill="#F1F1F1" height="243.9198" id="CourseDTO" rx="2.5" ry="2.5" style="stroke:#181818;stroke-width:0.5;" width="242" x="56" y="796"/><ellipse cx="118" cy="814.62" fill="#ADD1B2" rx="12" ry="12" style="stroke:#181818;stroke-width:1.0;"/><path d="M118.125,808.9637 Q117.0469,808.9637 116.1875,809.3387 Q115.3281,809.6981 114.7344,810.4012 Q114.1406,811.0887 113.8125,812.1044 Q113.5,813.12 113.5,814.4169 Q113.5,816.12 114.0156,817.3544 Q114.5313,818.5731 115.5469,819.2294 Q116.5625,819.87 118.1094,819.87 Q119.0156,819.87 119.8281,819.7137 Q120.6406,819.5575 121.8281,819.1981 L121.8281,821.4012 Q120.7969,821.7762 119.9219,821.9169 Q119.0469,822.0731 117.8438,822.0731 Q115.5625,822.0731 114.0313,821.1356 Q112.5,820.1825 111.7344,818.4481 Q110.9688,816.6981 110.9688,814.4012 Q110.9688,812.7294 111.4375,811.3387 Q111.9063,809.9481 112.8125,808.9169 Q113.7344,807.87 115.0781,807.3231 Q116.4219,806.7606 118.1406,806.7606 Q119.2813,806.7606 120.3281,806.995 Q121.3906,807.2137 122.4844,807.7762 L121.5156,809.8387 Q120.5938,809.4325 119.8125,809.1981 Q119.0313,808.9637 118.125,808.9637 Z " fill="#000000"/><text fill="#000000" font-family="sans-serif" font-size="20" lengthAdjust="spacing" textLength="109" x="140" y="822.38">CourseDTO</text><line style="stroke:#181818;stroke-width:0.5;" x1="57" x2="297" y1="833.24" y2="833.24"/><rect fill="none" height="6" style="stroke:#C82930;stroke-width:1.0;" width="6" x="64" y="849.36"/><text fill="#000000" font-family="sans-serif" font-size="20" lengthAdjust="spacing" textLength="45" x="77" y="858.62">code</text><rect fill="none" height="6" style="stroke:#C82930;stroke-width:1.0;" width="6" x="64" y="876.5999"/><text fill="#000000" font-family="sans-serif" font-size="20" lengthAdjust="spacing" textLength="39" x="77" y="885.8599">title</text><rect fill="none" height="6" style="stroke:#C82930;stroke-width:1.0;" width="6" x="64" y="903.8399"/><text fill="#000000" font-family="sans-serif" font-size="20" lengthAdjust="spacing" textLength="110" x="77" y="913.0999">description</text><rect fill="none" height="6" style="stroke:#C82930;stroke-width:1.0;" width="6" x="64" y="931.0799"/><text fill="#000000" font-family="sans-serif" font-size="20" lengthAdjust="spacing" textLength="162" x="77" y="940.3399">enrolmentLimits</text><rect fill="none" height="6" style="stroke:#C82930;stroke-width:1.0;" width="6" x="64" y="958.3199"/><text fill="#000000" font-family="sans-serif" font-size="20" lengthAdjust="spacing" textLength="113" x="77" y="967.5799">courseState</text><rect fill="none" height="6" style="stroke:#C82930;stroke-width:1.0;" width="6" x="64" y="985.5598"/><text fill="#000000" font-family="sans-serif" font-size="20" lengthAdjust="spacing" textLength="215" x="77" y="994.8198">courseEnrolmentState</text><rect fill="none" height="6" style="stroke:#C82930;stroke-width:1.0;" width="6" x="64" y="1012.7998"/><text fill="#000000" font-family="sans-serif" font-size="20" lengthAdjust="spacing" textLength="93" x="77" y="1022.0598">createdAt</text><line style="stroke:#181818;stroke-width:0.5;" x1="57" x2="297" y1="1031.9198" y2="1031.9198"/></g><!--class InMemoryCourseRepository--><g id="elem_InMemoryCourseRepository"><rect codeLine="63" fill="#F1F1F1" height="162.1999" id="InMemoryCourseRepository" rx="2.5" ry="2.5" style="stroke:#181818;stroke-width:0.5;" width="303" x="731.5" y="1363"/><ellipse cx="747.5" cy="1381.62" fill="#ADD1B2" rx="12" ry="12" style="stroke:#181818;stroke-width:1.0;"/><path d="M747.625,1375.9637 Q746.5469,1375.9637 745.6875,1376.3387 Q744.8281,1376.6981 744.2344,1377.4012 Q743.6406,1378.0887 743.3125,1379.1044 Q743,1380.12 743,1381.4169 Q743,1383.12 743.5156,1384.3544 Q744.0313,1385.5731 745.0469,1386.2294 Q746.0625,1386.87 747.6094,1386.87 Q748.5156,1386.87 749.3281,1386.7137 Q750.1406,1386.5575 751.3281,1386.1981 L751.3281,1388.4012 Q750.2969,1388.7762 749.4219,1388.9169 Q748.5469,1389.0731 747.3438,1389.0731 Q745.0625,1389.0731 743.5313,1388.1356 Q742,1387.1825 741.2344,1385.4481 Q740.4688,1383.6981 740.4688,1381.4012 Q740.4688,1379.7294 740.9375,1378.3387 Q741.4063,1376.9481 742.3125,1375.9169 Q743.2344,1374.87 744.5781,1374.3231 Q745.9219,1373.7606 747.6406,1373.7606 Q748.7813,1373.7606 749.8281,1373.995 Q750.8906,1374.2137 751.9844,1374.7762 L751.0156,1376.8387 Q750.0938,1376.4325 749.3125,1376.1981 Q748.5313,1375.9637 747.625,1375.9637 Z " fill="#000000"/><text fill="#000000" font-family="sans-serif" font-size="20" lengthAdjust="spacing" textLength="269" x="762.5" y="1389.38">InMemoryCourseRepository</text><line style="stroke:#181818;stroke-width:0.5;" x1="732.5" x2="1033.5" y1="1400.24" y2="1400.24"/><line style="stroke:#181818;stroke-width:0.5;" x1="732.5" x2="1033.5" y1="1408.24" y2="1408.24"/><ellipse cx="742.5" cy="1427.36" fill="#84BE84" rx="3" ry="3" style="stroke:#038048;stroke-width:1.0;"/><text fill="#000000" font-family="sans-serif" font-size="20" lengthAdjust="spacing" textLength="118" x="752.5" y="1433.62">save(course)</text><ellipse cx="742.5" cy="1454.5999" fill="#84BE84" rx="3" ry="3" style="stroke:#038048;stroke-width:1.0;"/><text fill="#000000" font-family="sans-serif" font-size="20" lengthAdjust="spacing" textLength="129" x="752.5" y="1460.8599">findAllOpen()</text><ellipse cx="742.5" cy="1481.8399" fill="#84BE84" rx="3" ry="3" style="stroke:#038048;stroke-width:1.0;"/><text fill="#000000" font-family="sans-serif" font-size="20" lengthAdjust="spacing" textLength="141" x="752.5" y="1488.0999">findAllClosed()</text><ellipse cx="742.5" cy="1509.0799" fill="#84BE84" rx="3" ry="3" style="stroke:#038048;stroke-width:1.0;"/><text fill="#000000" font-family="sans-serif" font-size="20" lengthAdjust="spacing" textLength="183" x="752.5" y="1515.3399">findAllInProgress()</text></g><!--class JpaCourseRepository--><g id="elem_JpaCourseRepository"><rect codeLine="70" fill="#F1F1F1" height="162.1999" id="JpaCourseRepository" rx="2.5" ry="2.5" style="stroke:#181818;stroke-width:0.5;" width="234" x="1070" y="1363"/><ellipse cx="1086" cy="1381.62" fill="#ADD1B2" rx="12" ry="12" style="stroke:#181818;stroke-width:1.0;"/><path d="M1086.125,1375.9637 Q1085.0469,1375.9637 1084.1875,1376.3387 Q1083.3281,1376.6981 1082.7344,1377.4012 Q1082.1406,1378.0887 1081.8125,1379.1044 Q1081.5,1380.12 1081.5,1381.4169 Q1081.5,1383.12 1082.0156,1384.3544 Q1082.5313,1385.5731 1083.5469,1386.2294 Q1084.5625,1386.87 1086.1094,1386.87 Q1087.0156,1386.87 1087.8281,1386.7137 Q1088.6406,1386.5575 1089.8281,1386.1981 L1089.8281,1388.4012 Q1088.7969,1388.7762 1087.9219,1388.9169 Q1087.0469,1389.0731 1085.8438,1389.0731 Q1083.5625,1389.0731 1082.0313,1388.1356 Q1080.5,1387.1825 1079.7344,1385.4481 Q1078.9688,1383.6981 1078.9688,1381.4012 Q1078.9688,1379.7294 1079.4375,1378.3387 Q1079.9063,1376.9481 1080.8125,1375.9169 Q1081.7344,1374.87 1083.0781,1374.3231 Q1084.4219,1373.7606 1086.1406,1373.7606 Q1087.2813,1373.7606 1088.3281,1373.995 Q1089.3906,1374.2137 1090.4844,1374.7762 L1089.5156,1376.8387 Q1088.5938,1376.4325 1087.8125,1376.1981 Q1087.0313,1375.9637 1086.125,1375.9637 Z " fill="#000000"/><text fill="#000000" font-family="sans-serif" font-size="20" lengthAdjust="spacing" textLength="200" x="1101" y="1389.38">JpaCourseRepository</text><line style="stroke:#181818;stroke-width:0.5;" x1="1071" x2="1303" y1="1400.24" y2="1400.24"/><line style="stroke:#181818;stroke-width:0.5;" x1="1071" x2="1303" y1="1408.24" y2="1408.24"/><ellipse cx="1081" cy="1427.36" fill="#84BE84" rx="3" ry="3" style="stroke:#038048;stroke-width:1.0;"/><text fill="#000000" font-family="sans-serif" font-size="20" lengthAdjust="spacing" textLength="118" x="1091" y="1433.62">save(course)</text><ellipse cx="1081" cy="1454.5999" fill="#84BE84" rx="3" ry="3" style="stroke:#038048;stroke-width:1.0;"/><text fill="#000000" font-family="sans-serif" font-size="20" lengthAdjust="spacing" textLength="129" x="1091" y="1460.8599">findAllOpen()</text><ellipse cx="1081" cy="1481.8399" fill="#84BE84" rx="3" ry="3" style="stroke:#038048;stroke-width:1.0;"/><text fill="#000000" font-family="sans-serif" font-size="20" lengthAdjust="spacing" textLength="141" x="1091" y="1488.0999">findAllClosed()</text><ellipse cx="1081" cy="1509.0799" fill="#84BE84" rx="3" ry="3" style="stroke:#038048;stroke-width:1.0;"/><text fill="#000000" font-family="sans-serif" font-size="20" lengthAdjust="spacing" textLength="183" x="1091" y="1515.3399">findAllInProgress()</text></g><!--class PersistenceContext--><g id="elem_PersistenceContext"><rect codeLine="77" fill="#F1F1F1" height="80.4799" id="PersistenceContext" rx="2.5" ry="2.5" style="stroke:#181818;stroke-width:0.5;" width="219" x="925.5" y="533"/><ellipse cx="941.5" cy="551.62" fill="#ADD1B2" rx="12" ry="12" style="stroke:#181818;stroke-width:1.0;"/><path d="M941.625,545.9637 Q940.5469,545.9637 939.6875,546.3387 Q938.8281,546.6981 938.2344,547.4012 Q937.6406,548.0887 937.3125,549.1044 Q937,550.12 937,551.4169 Q937,553.12 937.5156,554.3544 Q938.0313,555.5731 939.0469,556.2294 Q940.0625,556.87 941.6094,556.87 Q942.5156,556.87 943.3281,556.7137 Q944.1406,556.5575 945.3281,556.1981 L945.3281,558.4012 Q944.2969,558.7762 943.4219,558.9169 Q942.5469,559.0731 941.3438,559.0731 Q939.0625,559.0731 937.5313,558.1356 Q936,557.1825 935.2344,555.4481 Q934.4688,553.6981 934.4688,551.4012 Q934.4688,549.7294 934.9375,548.3387 Q935.4063,546.9481 936.3125,545.9169 Q937.2344,544.87 938.5781,544.3231 Q939.9219,543.7606 941.6406,543.7606 Q942.7813,543.7606 943.8281,543.995 Q944.8906,544.2137 945.9844,544.7762 L945.0156,546.8387 Q944.0938,546.4325 943.3125,546.1981 Q942.5313,545.9637 941.625,545.9637 Z " fill="#000000"/><text fill="#000000" font-family="sans-serif" font-size="20" lengthAdjust="spacing" textLength="185" x="956.5" y="559.38">PersistenceContext</text><line style="stroke:#181818;stroke-width:0.5;" x1="926.5" x2="1143.5" y1="570.24" y2="570.24"/><line style="stroke:#181818;stroke-width:0.5;" x1="926.5" x2="1143.5" y1="578.24" y2="578.24"/><rect fill="#F24D5C" height="6" style="stroke:#C82930;stroke-width:1.0;" width="6" x="933.5" y="594.36"/><text fill="#000000" font-family="sans-serif" font-size="20" lengthAdjust="spacing" textLength="129" x="946.5" y="603.62">repositories()</text></g><!--class CourseState--><g id="elem_CourseState"><rect codeLine="82" fill="#F1F1F1" height="162.1999" id="CourseState" rx="2.5" ry="2.5" style="stroke:#181818;stroke-width:0.5;" width="150" x="453" y="492"/><ellipse cx="469" cy="510.62" fill="#EB937F" rx="12" ry="12" style="stroke:#181818;stroke-width:1.0;"/><path d="M473.0469,518.12 L464.4375,518.12 L464.4375,503.2137 L473.0469,503.2137 L473.0469,505.4169 L466.8594,505.4169 L466.8594,509.2606 L472.6875,509.2606 L472.6875,511.4325 L466.8594,511.4325 L466.8594,515.9169 L473.0469,515.9169 L473.0469,518.12 Z " fill="#000000"/><text fill="#000000" font-family="sans-serif" font-size="20" lengthAdjust="spacing" textLength="116" x="484" y="518.38">CourseState</text><line style="stroke:#181818;stroke-width:0.5;" x1="454" x2="602" y1="529.24" y2="529.24"/><text fill="#000000" font-family="sans-serif" font-size="20" lengthAdjust="spacing" textLength="74" x="459" y="554.62">CLOSED</text><text fill="#000000" font-family="sans-serif" font-size="20" lengthAdjust="spacing" textLength="54" x="459" y="581.8599">OPEN</text><text fill="#000000" font-family="sans-serif" font-size="20" lengthAdjust="spacing" textLength="130" x="459" y="609.0999">IN_PROGRESS</text><text fill="#000000" font-family="sans-serif" font-size="20" lengthAdjust="spacing" textLength="92" x="459" y="636.3399">FINISHED</text><line style="stroke:#181818;stroke-width:0.5;" x1="454" x2="602" y1="646.1999" y2="646.1999"/></g><!--class CourseEnrolmentState--><g id="elem_CourseEnrolmentState"><rect codeLine="91" fill="#F1F1F1" height="107.7199" id="CourseEnrolmentState" rx="2.5" ry="2.5" style="stroke:#181818;stroke-width:0.5;" width="252" x="638" y="519"/><ellipse cx="654" cy="537.62" fill="#EB937F" rx="12" ry="12" style="stroke:#181818;stroke-width:1.0;"/><path d="M658.0469,545.12 L649.4375,545.12 L649.4375,530.2137 L658.0469,530.2137 L658.0469,532.4169 L651.8594,532.4169 L651.8594,536.2606 L657.6875,536.2606 L657.6875,538.4325 L651.8594,538.4325 L651.8594,542.9169 L658.0469,542.9169 L658.0469,545.12 Z " fill="#000000"/><text fill="#000000" font-family="sans-serif" font-size="20" lengthAdjust="spacing" textLength="218" x="669" y="545.38">CourseEnrolmentState</text><line style="stroke:#181818;stroke-width:0.5;" x1="639" x2="889" y1="556.24" y2="556.24"/><text fill="#000000" font-family="sans-serif" font-size="20" lengthAdjust="spacing" textLength="54" x="644" y="581.62">OPEN</text><text fill="#000000" font-family="sans-serif" font-size="20" lengthAdjust="spacing" textLength="74" x="644" y="608.8599">CLOSED</text><line style="stroke:#181818;stroke-width:0.5;" x1="639" x2="889" y1="618.7199" y2="618.7199"/></g><!--link CourseState to Course--><g id="link_CourseState_Course"><path codeLine="96" d="M519.33,654.42 C516.24,682.99 512.65,716.31 509.08,749.43 " fill="none" id="CourseState-to-Course" style="stroke:#181818;stroke-width:1.0;"/><polygon fill="#181818" points="508.5,754.74,513.4291,746.2133,509.0286,749.768,505.474,745.3675,508.5,754.74" style="stroke:#181818;stroke-width:1.0;"/></g><!--link CourseEnrolmentState to Course--><g id="link_CourseEnrolmentState_Course"><path codeLine="97" d="M721.64,627.22 C693.02,663.18 653.63,712.68 615.49,760.59 " fill="none" id="CourseEnrolmentState-to-Course" style="stroke:#181818;stroke-width:1.0;"/><polygon fill="#181818" points="612.28,764.62,621.0136,760.0676,615.393,760.7073,614.7533,755.0867,612.28,764.62" style="stroke:#181818;stroke-width:1.0;"/></g><!--link PersistenceContext to RepositoryFactory--><g id="link_PersistenceContext_RepositoryFactory"><path codeLine="99" d="M1035,613.01 C1035,677.27 1035,804.98 1035,872.6 " fill="none" id="PersistenceContext-to-RepositoryFactory" style="stroke:#181818;stroke-width:1.0;stroke-dasharray:7.0,7.0;"/><polygon fill="#181818" points="1035,877.76,1039,868.76,1035,872.76,1031,868.76,1035,877.76" style="stroke:#181818;stroke-width:1.0;"/></g><!--link RepositoryFactory to CourseRepository--><g id="link_RepositoryFactory_CourseRepository"><path codeLine="100" d="M1035,958.17 C1035,1002.87 1035,1077.3 1035,1135.57 " fill="none" id="RepositoryFactory-to-CourseRepository" style="stroke:#181818;stroke-width:1.0;"/><polygon fill="#181818" points="1035,1140.8,1039,1131.8,1035,1135.8,1031,1131.8,1035,1140.8" style="stroke:#181818;stroke-width:1.0;"/></g><!--reverse link CourseRepository to InMemoryCourseRepository--><g id="link_CourseRepository_InMemoryCourseRepository"><path codeLine="102" d="M968.2,1319.69 C958.29,1334.03 948.17,1348.68 938.52,1362.64 " fill="none" id="CourseRepository-backto-InMemoryCourseRepository" style="stroke:#181818;stroke-width:1.0;stroke-dasharray:7.0,7.0;"/><polygon fill="none" points="962.57,1315.52,979.69,1303.05,974.08,1323.48,962.57,1315.52" style="stroke:#181818;stroke-width:1.0;"/></g><!--reverse link CourseRepository to JpaCourseRepository--><g id="link_CourseRepository_JpaCourseRepository"><path codeLine="103" d="M1101.8,1319.69 C1111.71,1334.03 1121.83,1348.68 1131.48,1362.64 " fill="none" id="CourseRepository-backto-JpaCourseRepository" style="stroke:#181818;stroke-width:1.0;stroke-dasharray:7.0,7.0;"/><polygon fill="none" points="1095.92,1323.48,1090.31,1303.05,1107.43,1315.52,1095.92,1323.48" style="stroke:#181818;stroke-width:1.0;"/></g><!--link ToggleCourseStatusController to PersistenceContext--><g id="link_ToggleCourseStatusController_PersistenceContext"><path codeLine="104" d="M564,301.43 C667.19,333.94 800.49,383.95 907,451 C941.04,472.43 973.89,503.78 997.79,529.2 " fill="none" id="ToggleCourseStatusController-to-PersistenceContext" style="stroke:#181818;stroke-width:1.0;stroke-dasharray:7.0,7.0;"/><polygon fill="#181818" points="1001.25,532.9,998.0515,523.585,997.8456,529.2381,992.1924,529.0321,1001.25,532.9" style="stroke:#181818;stroke-width:1.0;"/></g><!--link ToggleCourseStatusController to Course--><g id="link_ToggleCourseStatusController_Course"><path codeLine="105" d="M404.9,391.06 C409.51,478.19 418.32,593.84 435,695 C437.94,712.84 441.6,731.34 445.64,749.71 " fill="none" id="ToggleCourseStatusController-to-Course" style="stroke:#181818;stroke-width:1.0;stroke-dasharray:7.0,7.0;"/><polygon fill="#181818" points="446.79,754.89,448.7364,745.2354,445.7023,750.0097,440.928,746.9757,446.79,754.89" style="stroke:#181818;stroke-width:1.0;"/></g><!--link ToggleCourseStatusUI to ToggleCourseStatusController--><g id="link_ToggleCourseStatusUI_ToggleCourseStatusController"><path codeLine="106" d="M400,60.17 C400,74.65 400,94 400,114.9 " fill="none" id="ToggleCourseStatusUI-to-ToggleCourseStatusController" style="stroke:#181818;stroke-width:1.0;stroke-dasharray:7.0,7.0;"/><polygon fill="#181818" points="400,119.95,404,110.95,400,114.95,396,110.95,400,119.95" style="stroke:#181818;stroke-width:1.0;"/></g><!--link CourseListService to Course--><g id="link_CourseListService_Course"><path codeLine="108" d="M288.15,695.41 C313.47,723.08 340.54,752.65 366.39,780.88 " fill="none" id="CourseListService-to-Course" style="stroke:#181818;stroke-width:1.0;stroke-dasharray:7.0,7.0;"/><polygon fill="#181818" points="369.86,784.68,366.7369,775.3394,366.4853,780.9907,360.834,780.739,369.86,784.68" style="stroke:#181818;stroke-width:1.0;"/></g><!--link CourseListService to CourseDTO--><g id="link_CourseListService_CourseDTO"><path codeLine="109" d="M177,695.41 C177,726.2 177,759.35 177,790.39 " fill="none" id="CourseListService-to-CourseDTO" style="stroke:#181818;stroke-width:1.0;stroke-dasharray:7.0,7.0;"/><polygon fill="#181818" points="177,795.75,181,786.75,177,790.75,173,786.75,177,795.75" style="stroke:#181818;stroke-width:1.0;"/></g><!--link ToggleCourseStatusController to CourseListService--><g id="link_ToggleCourseStatusController_CourseListService"><path codeLine="110" d="M304.78,391.22 C291.79,409.59 278.51,428.39 265.64,446.59 " fill="none" id="ToggleCourseStatusController-to-CourseListService" style="stroke:#181818;stroke-width:1.0;"/><polygon fill="#181818" points="262.73,450.71,271.1894,445.6663,265.6145,446.626,264.6549,441.0511,262.73,450.71" style="stroke:#181818;stroke-width:1.0;"/></g><!--SRC=[lLLBZvim4BxpApXcjKfKzLojj2B9BbKQK4ZFbGMJhBN6HhQ9sctxtpl61imZwIqdnj-ylddOg7VAAo99oKJ-3aLOm8dKJ6y5rndzWF3pfo386L4gF8hpcK4aQgaWqqJNwdiS_Ww2lzSD8emY1MCWqN0PvergHvNEG5ve3XrsW4eegeNyXH2fzPkGz8DeAdXh-HWoz4igu3Q1MZmuB692GJ56OvvASPQWbA_H3SMZI2LSgAYTRg3Qmq_TmLYRAyv2M4OO6j85D8Accbcf09LBMXdApHau5bu2rpjQKgsSMziQyCwRrj9JI42nUDPuCipMMY0P8rUEU6FhC8wCstCtZBwZMvARJqFzSOfR9yero1F9mHNQcpa_HIwmi8HjrXFbnJDZPYAB0MBdCSJwQVWSe_4-TEqTxKGJoYsMjLoCRHwiqTn2jFXmULfqRb4c1Oyehu_9tJUXen3pRr1YnNSSrDUAt35R2bBXO83dO1uGt6xNRDbcf-0S0k1r6VPFZjsWQ9TacpKAIRhPuoVU_qWFoSjXasLusiRxE7j5lV7t0mpRtqHo0Ln0TF1JBPTFpZEO3U3fWvcQLgkdwMqCflUs3-FVYCayllnPhQxknXNpcRa6DrznmtbQolzzN1jcVo56Voj0Mwl_JdWnRodndjxcrlVM_olz0m00]--></g></svg>