<?xml version="1.0" encoding="us-ascii" standalone="no"?><svg xmlns="http://www.w3.org/2000/svg" xmlns:xlink="http://www.w3.org/1999/xlink" contentStyleType="text/css" height="619.8px" preserveAspectRatio="none" style="width:466px;height:619px;background:#FFFFFF;" version="1.1" viewBox="0 0 466 619" width="466.2px" zoomAndPan="magnify"><defs/><g><!--class ToggleCourseStatusUI--><g id="elem_ToggleCourseStatusUI"><rect codeLine="2" fill="#F1F1F1" height="28.8" id="ToggleCourseStatusUI" rx="1.5" ry="1.5" style="stroke:#181818;stroke-width:0.3;" width="104.4" x="199.5" y="4.2"/><ellipse cx="208.5" cy="13.8" fill="#ADD1B2" rx="6.6" ry="6.6" style="stroke:#181818;stroke-width:0.6;"/><path d="M210.1594,11.325 Q210.2531,11.1938 210.3656,11.1281 Q210.4781,11.0625 210.6094,11.0625 Q210.8344,11.0625 210.975,11.2219 Q211.1156,11.3719 211.1156,11.7375 L211.1156,12.6094 Q211.1156,12.975 210.975,13.1344 Q210.8344,13.2938 210.6094,13.2938 Q210.4031,13.2938 210.2813,13.1719 Q210.1594,13.0594 210.0938,12.75 Q210.0656,12.5344 209.9531,12.4219 Q209.7563,12.1969 209.3906,12.0656 Q209.025,11.9344 208.65,11.9344 Q208.1906,11.9344 207.8063,12.1313 Q207.4313,12.3281 207.1313,12.7781 Q206.8406,13.2281 206.8406,13.8469 L206.8406,14.5031 Q206.8406,15.2437 207.375,15.7406 Q207.9094,16.2281 208.8656,16.2281 Q209.4281,16.2281 209.8219,16.0781 Q210.0563,15.9844 210.3094,15.7219 Q210.4688,15.5625 210.5531,15.5156 Q210.6469,15.4688 210.7687,15.4688 Q210.9656,15.4688 211.1156,15.6281 Q211.275,15.7781 211.275,15.9844 Q211.275,16.1906 211.0688,16.4344 Q210.7687,16.7813 210.2906,16.9781 Q209.6437,17.25 208.8656,17.25 Q207.9562,17.25 207.2344,16.875 Q206.6437,16.575 206.2313,15.9375 Q205.8188,15.2906 205.8188,14.5219 L205.8188,13.8281 Q205.8188,13.0313 206.1844,12.3469 Q206.5594,11.6531 207.2156,11.2875 Q207.8719,10.9125 208.6125,10.9125 Q209.0531,10.9125 209.4375,11.0156 Q209.8312,11.1094 210.1594,11.325 Z " fill="#000000"/><text fill="#000000" font-family="sans-serif" font-size="8.4" lengthAdjust="spacing" textLength="85.2" x="216.9" y="17.2781">ToggleCourseStatusUI</text><line style="stroke:#181818;stroke-width:0.3;" x1="200.1" x2="303.3" y1="23.4" y2="23.4"/><line style="stroke:#181818;stroke-width:0.3;" x1="200.1" x2="303.3" y1="28.2" y2="28.2"/></g><!--class ToggleCourseStatusController--><g id="elem_ToggleCourseStatusController"><rect codeLine="6" fill="#F1F1F1" height="140.5266" id="ToggleCourseStatusController" rx="1.5" ry="1.5" style="stroke:#181818;stroke-width:0.3;" width="285" x="4.2" y="69"/><ellipse cx="86.55" cy="78.6" fill="#ADD1B2" rx="6.6" ry="6.6" style="stroke:#181818;stroke-width:0.6;"/><path d="M88.2094,76.125 Q88.3031,75.9937 88.4156,75.9281 Q88.5281,75.8625 88.6594,75.8625 Q88.8844,75.8625 89.025,76.0219 Q89.1656,76.1719 89.1656,76.5375 L89.1656,77.4094 Q89.1656,77.775 89.025,77.9344 Q88.8844,78.0938 88.6594,78.0938 Q88.4531,78.0938 88.3313,77.9719 Q88.2094,77.8594 88.1438,77.55 Q88.1156,77.3344 88.0031,77.2219 Q87.8062,76.9969 87.4406,76.8656 Q87.075,76.7344 86.7,76.7344 Q86.2406,76.7344 85.8563,76.9312 Q85.4813,77.1281 85.1812,77.5781 Q84.8906,78.0281 84.8906,78.6469 L84.8906,79.3031 Q84.8906,80.0438 85.425,80.5406 Q85.9594,81.0281 86.9156,81.0281 Q87.4781,81.0281 87.8719,80.8781 Q88.1063,80.7844 88.3594,80.5219 Q88.5188,80.3625 88.6031,80.3156 Q88.6969,80.2688 88.8188,80.2688 Q89.0156,80.2688 89.1656,80.4281 Q89.325,80.5781 89.325,80.7844 Q89.325,80.9906 89.1187,81.2344 Q88.8188,81.5813 88.3406,81.7781 Q87.6938,82.05 86.9156,82.05 Q86.0063,82.05 85.2844,81.675 Q84.6938,81.375 84.2813,80.7375 Q83.8687,80.0906 83.8687,79.3219 L83.8687,78.6281 Q83.8687,77.8313 84.2344,77.1469 Q84.6094,76.4531 85.2656,76.0875 Q85.9219,75.7125 86.6625,75.7125 Q87.1031,75.7125 87.4875,75.8156 Q87.8813,75.9094 88.2094,76.125 Z " fill="#000000"/><text fill="#000000" font-family="sans-serif" font-size="8.4" lengthAdjust="spacing" textLength="115.2" x="98.85" y="82.0781">ToggleCourseStatusController</text><line style="stroke:#181818;stroke-width:0.3;" x1="4.8" x2="288.6" y1="88.2" y2="88.2"/><rect fill="none" height="3.6" style="stroke:#C82930;stroke-width:0.6;" width="3.6" x="9" y="95.2863"/><text fill="#000000" font-family="sans-serif" font-size="8.4" lengthAdjust="spacing" textLength="67.2" x="16.2" y="99.6645">courseListService</text><rect fill="none" height="3.6" style="stroke:#C82930;stroke-width:0.6;" width="3.6" x="9" y="106.459"/><text fill="#000000" font-family="sans-serif" font-size="8.4" lengthAdjust="spacing" textLength="66.6" x="16.2" y="110.8371">courseRepository</text><rect fill="none" height="3.6" style="stroke:#C82930;stroke-width:0.6;" width="3.6" x="9" y="117.6316"/><text fill="#000000" font-family="sans-serif" font-size="8.4" lengthAdjust="spacing" textLength="76.8" x="16.2" y="122.0098">authorizationService</text><line style="stroke:#181818;stroke-width:0.3;" x1="4.8" x2="288.6" y1="126.518" y2="126.518"/><ellipse cx="10.8" cy="135.4043" fill="#84BE84" rx="1.8" ry="1.8" style="stroke:#038048;stroke-width:0.6;"/><text fill="#000000" font-family="sans-serif" font-size="8.4" lengthAdjust="spacing" textLength="269.4" x="16.2" y="137.9824">ToggleCourseStatusController(authorizationService, courseRepository)</text><text fill="#000000" font-family="sans-serif" font-size="8.4" lengthAdjust="spacing" textLength="2.4" x="16.2" y="149.1551">&#160;</text><ellipse cx="10.8" cy="157.7496" fill="#84BE84" rx="1.8" ry="1.8" style="stroke:#038048;stroke-width:0.6;"/><text fill="#000000" font-family="sans-serif" font-size="8.4" lengthAdjust="spacing" textLength="69" x="16.2" y="160.3277">listOpenCourses()</text><ellipse cx="10.8" cy="168.9223" fill="#84BE84" rx="1.8" ry="1.8" style="stroke:#038048;stroke-width:0.6;"/><text fill="#000000" font-family="sans-serif" font-size="8.4" lengthAdjust="spacing" textLength="74.4" x="16.2" y="171.5004">listClosedCourses()</text><ellipse cx="10.8" cy="180.0949" fill="#84BE84" rx="1.8" ry="1.8" style="stroke:#038048;stroke-width:0.6;"/><text fill="#000000" font-family="sans-serif" font-size="8.4" lengthAdjust="spacing" textLength="88.8" x="16.2" y="182.673">listInProgressCourses()</text><ellipse cx="10.8" cy="191.2676" fill="#84BE84" rx="1.8" ry="1.8" style="stroke:#038048;stroke-width:0.6;"/><text fill="#000000" font-family="sans-serif" font-size="8.4" lengthAdjust="spacing" textLength="100.2" x="16.2" y="193.8457">toggleToPreviousCourse()</text><ellipse cx="10.8" cy="202.4402" fill="#84BE84" rx="1.8" ry="1.8" style="stroke:#038048;stroke-width:0.6;"/><text fill="#000000" font-family="sans-serif" font-size="8.4" lengthAdjust="spacing" textLength="83.4" x="16.2" y="205.0184">toggleToNextCourse()</text></g><!--class Course--><g id="elem_Course"><rect codeLine="20" fill="#F1F1F1" height="140.5266" id="Course" rx="1.5" ry="1.5" style="stroke:#181818;stroke-width:0.3;" width="99.6" x="41.7" y="366"/><ellipse cx="75.15" cy="375.6" fill="#ADD1B2" rx="6.6" ry="6.6" style="stroke:#181818;stroke-width:0.6;"/><path d="M76.8094,373.125 Q76.9031,372.9938 77.0156,372.9281 Q77.1281,372.8625 77.2594,372.8625 Q77.4844,372.8625 77.625,373.0219 Q77.7656,373.1719 77.7656,373.5375 L77.7656,374.4094 Q77.7656,374.775 77.625,374.9344 Q77.4844,375.0938 77.2594,375.0938 Q77.0531,375.0938 76.9312,374.9719 Q76.8094,374.8594 76.7437,374.55 Q76.7156,374.3344 76.6031,374.2219 Q76.4063,373.9969 76.0406,373.8656 Q75.675,373.7344 75.3,373.7344 Q74.8406,373.7344 74.4563,373.9313 Q74.0813,374.1281 73.7813,374.5781 Q73.4906,375.0281 73.4906,375.6469 L73.4906,376.3031 Q73.4906,377.0438 74.025,377.5406 Q74.5594,378.0281 75.5156,378.0281 Q76.0781,378.0281 76.4719,377.8781 Q76.7063,377.7844 76.9594,377.5219 Q77.1187,377.3625 77.2031,377.3156 Q77.2969,377.2688 77.4188,377.2688 Q77.6156,377.2688 77.7656,377.4281 Q77.925,377.5781 77.925,377.7844 Q77.925,377.9906 77.7188,378.2344 Q77.4188,378.5813 76.9406,378.7781 Q76.2938,379.05 75.5156,379.05 Q74.6063,379.05 73.8844,378.675 Q73.2938,378.375 72.8813,377.7375 Q72.4688,377.0906 72.4688,376.3219 L72.4688,375.6281 Q72.4688,374.8313 72.8344,374.1469 Q73.2094,373.4531 73.8656,373.0875 Q74.5219,372.7125 75.2625,372.7125 Q75.7031,372.7125 76.0875,372.8156 Q76.4813,372.9094 76.8094,373.125 Z " fill="#000000"/><text fill="#000000" font-family="sans-serif" font-size="8.4" lengthAdjust="spacing" textLength="27.6" x="87.45" y="379.0781">Course</text><line style="stroke:#181818;stroke-width:0.3;" x1="42.3" x2="140.7" y1="385.2" y2="385.2"/><rect fill="none" height="3.6" style="stroke:#C82930;stroke-width:0.6;" width="3.6" x="46.5" y="392.2863"/><text fill="#000000" font-family="sans-serif" font-size="8.4" lengthAdjust="spacing" textLength="18.6" x="53.7" y="396.6645">code</text><rect fill="none" height="3.6" style="stroke:#C82930;stroke-width:0.6;" width="3.6" x="46.5" y="403.459"/><text fill="#000000" font-family="sans-serif" font-size="8.4" lengthAdjust="spacing" textLength="13.2" x="53.7" y="407.8371">title</text><rect fill="none" height="3.6" style="stroke:#C82930;stroke-width:0.6;" width="3.6" x="46.5" y="414.6316"/><text fill="#000000" font-family="sans-serif" font-size="8.4" lengthAdjust="spacing" textLength="41.4" x="53.7" y="419.0098">description</text><rect fill="none" height="3.6" style="stroke:#C82930;stroke-width:0.6;" width="3.6" x="46.5" y="425.8043"/><text fill="#000000" font-family="sans-serif" font-size="8.4" lengthAdjust="spacing" textLength="59.4" x="53.7" y="430.1824">enrolmentLimits</text><rect fill="none" height="3.6" style="stroke:#C82930;stroke-width:0.6;" width="3.6" x="46.5" y="436.977"/><text fill="#000000" font-family="sans-serif" font-size="8.4" lengthAdjust="spacing" textLength="45.6" x="53.7" y="441.3551">courseState</text><rect fill="none" height="3.6" style="stroke:#C82930;stroke-width:0.6;" width="3.6" x="46.5" y="448.1496"/><text fill="#000000" font-family="sans-serif" font-size="8.4" lengthAdjust="spacing" textLength="84" x="53.7" y="452.5277">courseEnrolmentState</text><rect fill="none" height="3.6" style="stroke:#C82930;stroke-width:0.6;" width="3.6" x="46.5" y="459.3223"/><text fill="#000000" font-family="sans-serif" font-size="8.4" lengthAdjust="spacing" textLength="36.6" x="53.7" y="463.7004">createdAt</text><line style="stroke:#181818;stroke-width:0.3;" x1="42.3" x2="140.7" y1="468.2086" y2="468.2086"/><ellipse cx="48.3" cy="477.0949" fill="#84BE84" rx="1.8" ry="1.8" style="stroke:#038048;stroke-width:0.6;"/><text fill="#000000" font-family="sans-serif" font-size="8.4" lengthAdjust="spacing" textLength="26.4" x="53.7" y="479.673">toDto()</text><ellipse cx="48.3" cy="488.2676" fill="#84BE84" rx="1.8" ry="1.8" style="stroke:#038048;stroke-width:0.6;"/><text fill="#000000" font-family="sans-serif" font-size="8.4" lengthAdjust="spacing" textLength="58.2" x="53.7" y="490.8457">previousState()</text><ellipse cx="48.3" cy="499.4402" fill="#84BE84" rx="1.8" ry="1.8" style="stroke:#038048;stroke-width:0.6;"/><text fill="#000000" font-family="sans-serif" font-size="8.4" lengthAdjust="spacing" textLength="41.4" x="53.7" y="502.0184">nextState()</text></g><!--class RepositoryFactory--><g id="elem_RepositoryFactory"><rect codeLine="33" fill="#F1F1F1" height="39.9727" id="RepositoryFactory" rx="1.5" ry="1.5" style="stroke:#181818;stroke-width:0.3;" width="91.2" x="311.1" y="267.6"/><ellipse cx="321.18" cy="277.2" fill="#ADD1B2" rx="6.6" ry="6.6" style="stroke:#181818;stroke-width:0.6;"/><path d="M322.8394,274.725 Q322.9331,274.5938 323.0456,274.5281 Q323.1581,274.4625 323.2894,274.4625 Q323.5144,274.4625 323.655,274.6219 Q323.7956,274.7719 323.7956,275.1375 L323.7956,276.0094 Q323.7956,276.375 323.655,276.5344 Q323.5144,276.6937 323.2894,276.6937 Q323.0831,276.6937 322.9612,276.5719 Q322.8394,276.4594 322.7737,276.15 Q322.7456,275.9344 322.6331,275.8219 Q322.4363,275.5969 322.0706,275.4656 Q321.705,275.3344 321.33,275.3344 Q320.8706,275.3344 320.4863,275.5313 Q320.1113,275.7281 319.8113,276.1781 Q319.5206,276.6281 319.5206,277.2469 L319.5206,277.9031 Q319.5206,278.6438 320.055,279.1406 Q320.5894,279.6281 321.5456,279.6281 Q322.1081,279.6281 322.5019,279.4781 Q322.7363,279.3844 322.9894,279.1219 Q323.1487,278.9625 323.2331,278.9156 Q323.3269,278.8688 323.4487,278.8688 Q323.6456,278.8688 323.7956,279.0281 Q323.955,279.1781 323.955,279.3844 Q323.955,279.5906 323.7488,279.8344 Q323.4487,280.1813 322.9706,280.3781 Q322.3237,280.65 321.5456,280.65 Q320.6362,280.65 319.9144,280.275 Q319.3237,279.975 318.9112,279.3375 Q318.4988,278.6906 318.4988,277.9219 L318.4988,277.2281 Q318.4988,276.4313 318.8644,275.7469 Q319.2394,275.0531 319.8956,274.6875 Q320.5519,274.3125 321.2925,274.3125 Q321.7331,274.3125 322.1175,274.4156 Q322.5112,274.5094 322.8394,274.725 Z " fill="#000000"/><text fill="#000000" font-family="sans-serif" font-size="8.4" lengthAdjust="spacing" textLength="69.6" x="329.82" y="280.6781">RepositoryFactory</text><line style="stroke:#181818;stroke-width:0.3;" x1="311.7" x2="401.7" y1="286.8" y2="286.8"/><line style="stroke:#181818;stroke-width:0.3;" x1="311.7" x2="401.7" y1="291.6" y2="291.6"/><ellipse cx="317.7" cy="300.4863" fill="#84BE84" rx="1.8" ry="1.8" style="stroke:#038048;stroke-width:0.6;"/><text fill="#000000" font-family="sans-serif" font-size="8.4" lengthAdjust="spacing" textLength="75.6" x="323.1" y="303.0645">RepositoryFactory()</text></g><!--class CourseRepository--><g id="elem_CourseRepository"><rect codeLine="37" fill="#F1F1F1" height="62.318" id="CourseRepository" rx="1.5" ry="1.5" style="stroke:#181818;stroke-width:0.3;" width="87.6" x="300.9" y="405"/><ellipse cx="309.9" cy="414.6" fill="#B4A7E5" rx="6.6" ry="6.6" style="stroke:#181818;stroke-width:0.6;"/><path d="M310.4719,412.5844 L310.4719,416.5781 L311.5031,416.5781 Q311.8688,416.5781 312.0281,416.7188 Q312.1875,416.8594 312.1875,417.0938 Q312.1875,417.3187 312.0281,417.4594 Q311.8688,417.6 311.5031,417.6 L308.4188,417.6 Q308.0531,417.6 307.8938,417.4594 Q307.7344,417.3187 307.7344,417.0844 Q307.7344,416.8594 307.8938,416.7188 Q308.0531,416.5781 308.4188,416.5781 L309.45,416.5781 L309.45,412.5844 L308.4188,412.5844 Q308.0531,412.5844 307.8938,412.4437 Q307.7344,412.3031 307.7344,412.0687 Q307.7344,411.8438 307.8938,411.7031 Q308.0531,411.5625 308.4188,411.5625 L311.5031,411.5625 Q311.8688,411.5625 312.0281,411.7031 Q312.1875,411.8438 312.1875,412.0687 Q312.1875,412.3031 312.0281,412.4437 Q311.8688,412.5844 311.5031,412.5844 L310.4719,412.5844 Z " fill="#000000"/><text fill="#000000" font-family="sans-serif" font-size="8.4" font-style="italic" lengthAdjust="spacing" textLength="68.4" x="318.3" y="418.0781">CourseRepository</text><line style="stroke:#181818;stroke-width:0.3;" x1="301.5" x2="387.9" y1="424.2" y2="424.2"/><line style="stroke:#181818;stroke-width:0.3;" x1="301.5" x2="387.9" y1="429" y2="429"/><ellipse cx="307.5" cy="437.8863" fill="#84BE84" rx="1.8" ry="1.8" style="stroke:#038048;stroke-width:0.6;"/><text fill="#000000" font-family="sans-serif" font-size="8.4" lengthAdjust="spacing" textLength="49.8" x="312.9" y="440.4645">findAllOpen()</text><ellipse cx="307.5" cy="449.059" fill="#84BE84" rx="1.8" ry="1.8" style="stroke:#038048;stroke-width:0.6;"/><text fill="#000000" font-family="sans-serif" font-size="8.4" lengthAdjust="spacing" textLength="55.2" x="312.9" y="451.6371">findAllClosed()</text><ellipse cx="307.5" cy="460.2316" fill="#84BE84" rx="1.8" ry="1.8" style="stroke:#038048;stroke-width:0.6;"/><text fill="#000000" font-family="sans-serif" font-size="8.4" lengthAdjust="spacing" textLength="69.6" x="312.9" y="462.8098">findAllInProgress()</text></g><!--class CourseListService--><g id="elem_CourseListService"><rect codeLine="44" fill="#F1F1F1" height="84.6633" id="CourseListService" rx="1.5" ry="1.5" style="stroke:#181818;stroke-width:0.3;" width="144" x="146.1" y="245.4"/><ellipse cx="181.05" cy="255" fill="#ADD1B2" rx="6.6" ry="6.6" style="stroke:#181818;stroke-width:0.6;"/><path d="M182.7094,252.525 Q182.8031,252.3937 182.9156,252.3281 Q183.0281,252.2625 183.1594,252.2625 Q183.3844,252.2625 183.525,252.4219 Q183.6656,252.5719 183.6656,252.9375 L183.6656,253.8094 Q183.6656,254.175 183.525,254.3344 Q183.3844,254.4937 183.1594,254.4937 Q182.9531,254.4937 182.8312,254.3719 Q182.7094,254.2594 182.6437,253.95 Q182.6156,253.7344 182.5031,253.6219 Q182.3063,253.3969 181.9406,253.2656 Q181.575,253.1344 181.2,253.1344 Q180.7406,253.1344 180.3563,253.3312 Q179.9813,253.5281 179.6813,253.9781 Q179.3906,254.4281 179.3906,255.0469 L179.3906,255.7031 Q179.3906,256.4437 179.925,256.9406 Q180.4594,257.4281 181.4156,257.4281 Q181.9781,257.4281 182.3719,257.2781 Q182.6063,257.1844 182.8594,256.9219 Q183.0187,256.7625 183.1031,256.7156 Q183.1969,256.6688 183.3188,256.6688 Q183.5156,256.6688 183.6656,256.8281 Q183.825,256.9781 183.825,257.1844 Q183.825,257.3906 183.6188,257.6344 Q183.3188,257.9813 182.8406,258.1781 Q182.1938,258.45 181.4156,258.45 Q180.5063,258.45 179.7844,258.075 Q179.1938,257.775 178.7813,257.1375 Q178.3688,256.4906 178.3688,255.7219 L178.3688,255.0281 Q178.3688,254.2313 178.7344,253.5469 Q179.1094,252.8531 179.7656,252.4875 Q180.4219,252.1125 181.1625,252.1125 Q181.6031,252.1125 181.9875,252.2156 Q182.3813,252.3094 182.7094,252.525 Z " fill="#000000"/><text fill="#000000" font-family="sans-serif" font-size="8.4" lengthAdjust="spacing" textLength="69" x="193.35" y="258.4781">CourseListService</text><line style="stroke:#181818;stroke-width:0.3;" x1="146.7" x2="289.5" y1="264.6" y2="264.6"/><rect fill="none" height="3.6" style="stroke:#C82930;stroke-width:0.6;" width="3.6" x="150.9" y="271.6863"/><text fill="#000000" font-family="sans-serif" font-size="8.4" lengthAdjust="spacing" textLength="66.6" x="158.1" y="276.0645">courseRepository</text><line style="stroke:#181818;stroke-width:0.3;" x1="146.7" x2="289.5" y1="280.5727" y2="280.5727"/><ellipse cx="152.7" cy="289.459" fill="#84BE84" rx="1.8" ry="1.8" style="stroke:#038048;stroke-width:0.6;"/><text fill="#000000" font-family="sans-serif" font-size="8.4" lengthAdjust="spacing" textLength="128.4" x="158.1" y="292.0371">CourseService(courseRepository)</text><ellipse cx="152.7" cy="300.6316" fill="#84BE84" rx="1.8" ry="1.8" style="stroke:#038048;stroke-width:0.6;"/><text fill="#000000" font-family="sans-serif" font-size="8.4" lengthAdjust="spacing" textLength="74.4" x="158.1" y="303.2098">listClosedCourses()</text><ellipse cx="152.7" cy="311.8043" fill="#84BE84" rx="1.8" ry="1.8" style="stroke:#038048;stroke-width:0.6;"/><text fill="#000000" font-family="sans-serif" font-size="8.4" lengthAdjust="spacing" textLength="69" x="158.1" y="314.3824">listOpenCourses()</text><ellipse cx="152.7" cy="322.977" fill="#84BE84" rx="1.8" ry="1.8" style="stroke:#038048;stroke-width:0.6;"/><text fill="#000000" font-family="sans-serif" font-size="8.4" lengthAdjust="spacing" textLength="88.8" x="158.1" y="325.5551">listInProgressCourses()</text></g><!--class CourseDTO--><g id="elem_CourseDTO"><rect codeLine="53" fill="#F1F1F1" height="107.0086" id="CourseDTO" rx="1.5" ry="1.5" style="stroke:#181818;stroke-width:0.3;" width="99.6" x="168.3" y="382.8"/><ellipse cx="192.96" cy="392.4" fill="#ADD1B2" rx="6.6" ry="6.6" style="stroke:#181818;stroke-width:0.6;"/><path d="M194.6194,389.925 Q194.7131,389.7938 194.8256,389.7281 Q194.9381,389.6625 195.0694,389.6625 Q195.2944,389.6625 195.435,389.8219 Q195.5756,389.9719 195.5756,390.3375 L195.5756,391.2094 Q195.5756,391.575 195.435,391.7344 Q195.2944,391.8938 195.0694,391.8938 Q194.8631,391.8938 194.7413,391.7719 Q194.6194,391.6594 194.5538,391.35 Q194.5256,391.1344 194.4131,391.0219 Q194.2163,390.7969 193.8506,390.6656 Q193.485,390.5344 193.11,390.5344 Q192.6506,390.5344 192.2663,390.7313 Q191.8913,390.9281 191.5913,391.3781 Q191.3006,391.8281 191.3006,392.4469 L191.3006,393.1031 Q191.3006,393.8438 191.835,394.3406 Q192.3694,394.8281 193.3256,394.8281 Q193.8881,394.8281 194.2819,394.6781 Q194.5163,394.5844 194.7694,394.3219 Q194.9288,394.1625 195.0131,394.1156 Q195.1069,394.0687 195.2288,394.0687 Q195.4256,394.0687 195.5756,394.2281 Q195.735,394.3781 195.735,394.5844 Q195.735,394.7906 195.5288,395.0344 Q195.2288,395.3812 194.7506,395.5781 Q194.1038,395.85 193.3256,395.85 Q192.4163,395.85 191.6944,395.475 Q191.1038,395.175 190.6913,394.5375 Q190.2788,393.8906 190.2788,393.1219 L190.2788,392.4281 Q190.2788,391.6312 190.6444,390.9469 Q191.0194,390.2531 191.6756,389.8875 Q192.3319,389.5125 193.0725,389.5125 Q193.5131,389.5125 193.8975,389.6156 Q194.2913,389.7094 194.6194,389.925 Z " fill="#000000"/><text fill="#000000" font-family="sans-serif" font-size="8.4" lengthAdjust="spacing" textLength="45.6" x="204.84" y="395.8781">CourseDTO</text><line style="stroke:#181818;stroke-width:0.3;" x1="168.9" x2="267.3" y1="402" y2="402"/><rect fill="none" height="3.6" style="stroke:#C82930;stroke-width:0.6;" width="3.6" x="173.1" y="409.0863"/><text fill="#000000" font-family="sans-serif" font-size="8.4" lengthAdjust="spacing" textLength="18.6" x="180.3" y="413.4645">code</text><rect fill="none" height="3.6" style="stroke:#C82930;stroke-width:0.6;" width="3.6" x="173.1" y="420.259"/><text fill="#000000" font-family="sans-serif" font-size="8.4" lengthAdjust="spacing" textLength="13.2" x="180.3" y="424.6371">title</text><rect fill="none" height="3.6" style="stroke:#C82930;stroke-width:0.6;" width="3.6" x="173.1" y="431.4316"/><text fill="#000000" font-family="sans-serif" font-size="8.4" lengthAdjust="spacing" textLength="41.4" x="180.3" y="435.8098">description</text><rect fill="none" height="3.6" style="stroke:#C82930;stroke-width:0.6;" width="3.6" x="173.1" y="442.6043"/><text fill="#000000" font-family="sans-serif" font-size="8.4" lengthAdjust="spacing" textLength="59.4" x="180.3" y="446.9824">enrolmentLimits</text><rect fill="none" height="3.6" style="stroke:#C82930;stroke-width:0.6;" width="3.6" x="173.1" y="453.777"/><text fill="#000000" font-family="sans-serif" font-size="8.4" lengthAdjust="spacing" textLength="45.6" x="180.3" y="458.1551">courseState</text><rect fill="none" height="3.6" style="stroke:#C82930;stroke-width:0.6;" width="3.6" x="173.1" y="464.9496"/><text fill="#000000" font-family="sans-serif" font-size="8.4" lengthAdjust="spacing" textLength="84" x="180.3" y="469.3277">courseEnrolmentState</text><rect fill="none" height="3.6" style="stroke:#C82930;stroke-width:0.6;" width="3.6" x="173.1" y="476.1223"/><text fill="#000000" font-family="sans-serif" font-size="8.4" lengthAdjust="spacing" textLength="36.6" x="180.3" y="480.5004">createdAt</text><line style="stroke:#181818;stroke-width:0.3;" x1="168.9" x2="267.3" y1="485.0086" y2="485.0086"/></g><!--class InMemoryCourseRepository--><g id="elem_InMemoryCourseRepository"><rect codeLine="63" fill="#F1F1F1" height="73.4906" id="InMemoryCourseRepository" rx="1.5" ry="1.5" style="stroke:#181818;stroke-width:0.3;" width="124.2" x="216" y="542.4"/><ellipse cx="225" cy="552" fill="#ADD1B2" rx="6.6" ry="6.6" style="stroke:#181818;stroke-width:0.6;"/><path d="M226.6594,549.525 Q226.7531,549.3938 226.8656,549.3281 Q226.9781,549.2625 227.1094,549.2625 Q227.3344,549.2625 227.475,549.4219 Q227.6156,549.5719 227.6156,549.9375 L227.6156,550.8094 Q227.6156,551.175 227.475,551.3344 Q227.3344,551.4938 227.1094,551.4938 Q226.9031,551.4938 226.7813,551.3719 Q226.6594,551.2594 226.5938,550.95 Q226.5656,550.7344 226.4531,550.6219 Q226.2563,550.3969 225.8906,550.2656 Q225.525,550.1344 225.15,550.1344 Q224.6906,550.1344 224.3063,550.3313 Q223.9313,550.5281 223.6313,550.9781 Q223.3406,551.4281 223.3406,552.0469 L223.3406,552.7031 Q223.3406,553.4438 223.875,553.9406 Q224.4094,554.4281 225.3656,554.4281 Q225.9281,554.4281 226.3219,554.2781 Q226.5563,554.1844 226.8094,553.9219 Q226.9688,553.7625 227.0531,553.7156 Q227.1469,553.6687 227.2687,553.6687 Q227.4656,553.6687 227.6156,553.8281 Q227.775,553.9781 227.775,554.1844 Q227.775,554.3906 227.5688,554.6344 Q227.2687,554.9812 226.7906,555.1781 Q226.1437,555.45 225.3656,555.45 Q224.4562,555.45 223.7344,555.075 Q223.1437,554.775 222.7313,554.1375 Q222.3188,553.4906 222.3188,552.7219 L222.3188,552.0281 Q222.3188,551.2312 222.6844,550.5469 Q223.0594,549.8531 223.7156,549.4875 Q224.3719,549.1125 225.1125,549.1125 Q225.5531,549.1125 225.9375,549.2156 Q226.3312,549.3094 226.6594,549.525 Z " fill="#000000"/><text fill="#000000" font-family="sans-serif" font-size="8.4" lengthAdjust="spacing" textLength="105" x="233.4" y="555.4781">InMemoryCourseRepository</text><line style="stroke:#181818;stroke-width:0.3;" x1="216.6" x2="339.6" y1="561.6" y2="561.6"/><line style="stroke:#181818;stroke-width:0.3;" x1="216.6" x2="339.6" y1="566.4" y2="566.4"/><ellipse cx="222.6" cy="575.2863" fill="#84BE84" rx="1.8" ry="1.8" style="stroke:#038048;stroke-width:0.6;"/><text fill="#000000" font-family="sans-serif" font-size="8.4" lengthAdjust="spacing" textLength="49.8" x="228" y="577.8645">save(course)</text><ellipse cx="222.6" cy="586.459" fill="#84BE84" rx="1.8" ry="1.8" style="stroke:#038048;stroke-width:0.6;"/><text fill="#000000" font-family="sans-serif" font-size="8.4" lengthAdjust="spacing" textLength="49.8" x="228" y="589.0371">findAllOpen()</text><ellipse cx="222.6" cy="597.6316" fill="#84BE84" rx="1.8" ry="1.8" style="stroke:#038048;stroke-width:0.6;"/><text fill="#000000" font-family="sans-serif" font-size="8.4" lengthAdjust="spacing" textLength="55.2" x="228" y="600.2098">findAllClosed()</text><ellipse cx="222.6" cy="608.8043" fill="#84BE84" rx="1.8" ry="1.8" style="stroke:#038048;stroke-width:0.6;"/><text fill="#000000" font-family="sans-serif" font-size="8.4" lengthAdjust="spacing" textLength="69.6" x="228" y="611.3824">findAllInProgress()</text></g><!--class JpaCourseRepository--><g id="elem_JpaCourseRepository"><rect codeLine="70" fill="#F1F1F1" height="73.4906" id="JpaCourseRepository" rx="1.5" ry="1.5" style="stroke:#181818;stroke-width:0.3;" width="100.8" x="361.5" y="542.4"/><ellipse cx="370.5" cy="552" fill="#ADD1B2" rx="6.6" ry="6.6" style="stroke:#181818;stroke-width:0.6;"/><path d="M372.1594,549.525 Q372.2531,549.3938 372.3656,549.3281 Q372.4781,549.2625 372.6094,549.2625 Q372.8344,549.2625 372.975,549.4219 Q373.1156,549.5719 373.1156,549.9375 L373.1156,550.8094 Q373.1156,551.175 372.975,551.3344 Q372.8344,551.4938 372.6094,551.4938 Q372.4031,551.4938 372.2813,551.3719 Q372.1594,551.2594 372.0938,550.95 Q372.0656,550.7344 371.9531,550.6219 Q371.7562,550.3969 371.3906,550.2656 Q371.025,550.1344 370.65,550.1344 Q370.1906,550.1344 369.8063,550.3313 Q369.4313,550.5281 369.1312,550.9781 Q368.8406,551.4281 368.8406,552.0469 L368.8406,552.7031 Q368.8406,553.4438 369.375,553.9406 Q369.9094,554.4281 370.8656,554.4281 Q371.4281,554.4281 371.8219,554.2781 Q372.0563,554.1844 372.3094,553.9219 Q372.4688,553.7625 372.5531,553.7156 Q372.6469,553.6687 372.7688,553.6687 Q372.9656,553.6687 373.1156,553.8281 Q373.275,553.9781 373.275,554.1844 Q373.275,554.3906 373.0687,554.6344 Q372.7688,554.9812 372.2906,555.1781 Q371.6438,555.45 370.8656,555.45 Q369.9563,555.45 369.2344,555.075 Q368.6438,554.775 368.2313,554.1375 Q367.8187,553.4906 367.8187,552.7219 L367.8187,552.0281 Q367.8187,551.2312 368.1844,550.5469 Q368.5594,549.8531 369.2156,549.4875 Q369.8719,549.1125 370.6125,549.1125 Q371.0531,549.1125 371.4375,549.2156 Q371.8313,549.3094 372.1594,549.525 Z " fill="#000000"/><text fill="#000000" font-family="sans-serif" font-size="8.4" lengthAdjust="spacing" textLength="81.6" x="378.9" y="555.4781">JpaCourseRepository</text><line style="stroke:#181818;stroke-width:0.3;" x1="362.1" x2="461.7" y1="561.6" y2="561.6"/><line style="stroke:#181818;stroke-width:0.3;" x1="362.1" x2="461.7" y1="566.4" y2="566.4"/><ellipse cx="368.1" cy="575.2863" fill="#84BE84" rx="1.8" ry="1.8" style="stroke:#038048;stroke-width:0.6;"/><text fill="#000000" font-family="sans-serif" font-size="8.4" lengthAdjust="spacing" textLength="49.8" x="373.5" y="577.8645">save(course)</text><ellipse cx="368.1" cy="586.459" fill="#84BE84" rx="1.8" ry="1.8" style="stroke:#038048;stroke-width:0.6;"/><text fill="#000000" font-family="sans-serif" font-size="8.4" lengthAdjust="spacing" textLength="49.8" x="373.5" y="589.0371">findAllOpen()</text><ellipse cx="368.1" cy="597.6316" fill="#84BE84" rx="1.8" ry="1.8" style="stroke:#038048;stroke-width:0.6;"/><text fill="#000000" font-family="sans-serif" font-size="8.4" lengthAdjust="spacing" textLength="55.2" x="373.5" y="600.2098">findAllClosed()</text><ellipse cx="368.1" cy="608.8043" fill="#84BE84" rx="1.8" ry="1.8" style="stroke:#038048;stroke-width:0.6;"/><text fill="#000000" font-family="sans-serif" font-size="8.4" lengthAdjust="spacing" textLength="69.6" x="373.5" y="611.3824">findAllInProgress()</text></g><!--class PersistenceContext--><g id="elem_PersistenceContext"><rect codeLine="77" fill="#F1F1F1" height="39.9727" id="PersistenceContext" rx="1.5" ry="1.5" style="stroke:#181818;stroke-width:0.3;" width="92.4" x="310.5" y="119.1"/><ellipse cx="319.5" cy="128.7" fill="#ADD1B2" rx="6.6" ry="6.6" style="stroke:#181818;stroke-width:0.6;"/><path d="M321.1594,126.225 Q321.2531,126.0938 321.3656,126.0281 Q321.4781,125.9625 321.6094,125.9625 Q321.8344,125.9625 321.975,126.1219 Q322.1156,126.2719 322.1156,126.6375 L322.1156,127.5094 Q322.1156,127.875 321.975,128.0344 Q321.8344,128.1938 321.6094,128.1938 Q321.4031,128.1938 321.2813,128.0719 Q321.1594,127.9594 321.0938,127.65 Q321.0656,127.4344 320.9531,127.3219 Q320.7562,127.0969 320.3906,126.9656 Q320.025,126.8344 319.65,126.8344 Q319.1906,126.8344 318.8063,127.0313 Q318.4313,127.2281 318.1312,127.6781 Q317.8406,128.1281 317.8406,128.7469 L317.8406,129.4031 Q317.8406,130.1437 318.375,130.6406 Q318.9094,131.1281 319.8656,131.1281 Q320.4281,131.1281 320.8219,130.9781 Q321.0563,130.8844 321.3094,130.6219 Q321.4688,130.4625 321.5531,130.4156 Q321.6469,130.3688 321.7688,130.3688 Q321.9656,130.3688 322.1156,130.5281 Q322.275,130.6781 322.275,130.8844 Q322.275,131.0906 322.0687,131.3344 Q321.7688,131.6813 321.2906,131.8781 Q320.6438,132.15 319.8656,132.15 Q318.9563,132.15 318.2344,131.775 Q317.6438,131.475 317.2313,130.8375 Q316.8187,130.1906 316.8187,129.4219 L316.8187,128.7281 Q316.8187,127.9312 317.1844,127.2469 Q317.5594,126.5531 318.2156,126.1875 Q318.8719,125.8125 319.6125,125.8125 Q320.0531,125.8125 320.4375,125.9156 Q320.8313,126.0094 321.1594,126.225 Z " fill="#000000"/><text fill="#000000" font-family="sans-serif" font-size="8.4" lengthAdjust="spacing" textLength="73.2" x="327.9" y="132.1781">PersistenceContext</text><line style="stroke:#181818;stroke-width:0.3;" x1="311.1" x2="402.3" y1="138.3" y2="138.3"/><line style="stroke:#181818;stroke-width:0.3;" x1="311.1" x2="402.3" y1="143.1" y2="143.1"/><rect fill="#F24D5C" height="3.6" style="stroke:#C82930;stroke-width:0.6;" width="3.6" x="315.3" y="150.1863"/><text fill="#000000" font-family="sans-serif" font-size="8.4" lengthAdjust="spacing" textLength="50.4" x="322.5" y="154.5645">repositories()</text></g><!--class CourseState--><g id="elem_CourseState"><rect codeLine="82" fill="#F1F1F1" height="73.4906" id="CourseState" rx="1.5" ry="1.5" style="stroke:#181818;stroke-width:0.3;" width="66.6" x="58.2" y="251.1"/><ellipse cx="67.2" cy="260.7" fill="#EB937F" rx="6.6" ry="6.6" style="stroke:#181818;stroke-width:0.6;"/><path d="M66.5156,261.1781 L66.5156,262.6781 L69.1125,262.6781 L69.1125,262.125 Q69.1125,261.7594 69.2531,261.6 Q69.4031,261.4406 69.6281,261.4406 Q69.8531,261.4406 69.9937,261.6 Q70.1344,261.7594 70.1344,262.125 L70.1344,263.7 L65.3344,263.7 Q64.9594,263.7 64.8,263.5594 Q64.65,263.4188 64.65,263.1844 Q64.65,262.9594 64.8094,262.8187 Q64.9688,262.6781 65.3344,262.6781 L65.4937,262.6781 L65.4937,258.6844 L65.3344,258.6844 Q64.9594,258.6844 64.8,258.5438 Q64.65,258.4031 64.65,258.1688 Q64.65,257.9437 64.8,257.8031 Q64.9594,257.6625 65.3344,257.6625 L69.9094,257.6625 L69.9094,259.2188 Q69.9094,259.5844 69.7688,259.7438 Q69.6375,259.8938 69.4031,259.8938 Q69.1781,259.8938 69.0375,259.7438 Q68.8969,259.5844 68.8969,259.2188 L68.8969,258.6844 L66.5156,258.6844 L66.5156,260.1563 L67.4063,260.1563 Q67.4063,259.7625 67.4813,259.65 Q67.6406,259.4063 67.9219,259.4063 Q68.1469,259.4063 68.2875,259.5656 Q68.4281,259.7156 68.4281,260.0813 L68.4281,261.2625 Q68.4281,261.5906 68.3531,261.7031 Q68.1938,261.9375 67.9219,261.9375 Q67.6406,261.9375 67.4813,261.6937 Q67.4063,261.5813 67.4063,261.1781 L66.5156,261.1781 Z " fill="#000000"/><text fill="#000000" font-family="sans-serif" font-size="8.4" lengthAdjust="spacing" textLength="47.4" x="75.6" y="264.1781">CourseState</text><line style="stroke:#181818;stroke-width:0.3;" x1="58.8" x2="124.2" y1="270.3" y2="270.3"/><text fill="#000000" font-family="sans-serif" font-size="8.4" lengthAdjust="spacing" textLength="34.2" x="61.8" y="281.7645">CLOSED</text><text fill="#000000" font-family="sans-serif" font-size="8.4" lengthAdjust="spacing" textLength="22.8" x="61.8" y="292.9371">OPEN</text><text fill="#000000" font-family="sans-serif" font-size="8.4" lengthAdjust="spacing" textLength="58.8" x="61.8" y="304.1098">IN_PROGRESS</text><text fill="#000000" font-family="sans-serif" font-size="8.4" lengthAdjust="spacing" textLength="36.6" x="61.8" y="315.2824">FINISHED</text><line style="stroke:#181818;stroke-width:0.3;" x1="58.8" x2="124.2" y1="319.7906" y2="319.7906"/></g><!--link CourseState to Course--><g id="link_CourseState_Course"><path codeLine="89" d="M91.5,324.336 C91.5,336.054 91.5,349.506 91.5,362.922 " fill="none" id="CourseState-to-Course" style="stroke:#181818;stroke-width:0.6;"/><polygon fill="#181818" points="91.5,365.964,93.9,360.564,91.5,362.964,89.1,360.564,91.5,365.964" style="stroke:#181818;stroke-width:0.6;"/></g><!--link PersistenceContext to RepositoryFactory--><g id="link_PersistenceContext_RepositoryFactory"><path codeLine="91" d="M356.7,159.36 C356.7,186.54 356.7,235.632 356.7,264.396 " fill="none" id="PersistenceContext-to-RepositoryFactory" style="stroke:#181818;stroke-width:0.6;stroke-dasharray:7.0,7.0;"/><polygon fill="#181818" points="356.7,267.456,359.1,262.056,356.7,264.456,354.3,262.056,356.7,267.456" style="stroke:#181818;stroke-width:0.6;"/></g><!--link RepositoryFactory to CourseRepository--><g id="link_RepositoryFactory_CourseRepository"><path codeLine="92" d="M355.104,307.86 C353.154,331.794 349.824,372.72 347.454,401.79 " fill="none" id="RepositoryFactory-to-CourseRepository" style="stroke:#181818;stroke-width:0.6;"/><polygon fill="#181818" points="347.202,404.922,350.0409,399.7393,347.4504,401.9323,345.2574,399.3418,347.202,404.922" style="stroke:#181818;stroke-width:0.6;"/></g><!--reverse link CourseRepository to InMemoryCourseRepository--><g id="link_CourseRepository_InMemoryCourseRepository"><path codeLine="94" d="M325.038,478.608 C315.534,498.81 304.242,522.822 295.116,542.226 " fill="none" id="CourseRepository-backto-InMemoryCourseRepository" style="stroke:#181818;stroke-width:0.6;stroke-dasharray:7.0,7.0;"/><polygon fill="none" points="321.342,476.598,330.246,467.526,328.944,480.174,321.342,476.598" style="stroke:#181818;stroke-width:0.6;"/></g><!--reverse link CourseRepository to JpaCourseRepository--><g id="link_CourseRepository_JpaCourseRepository"><path codeLine="95" d="M364.542,478.608 C374.13,498.81 385.524,522.822 394.734,542.226 " fill="none" id="CourseRepository-backto-JpaCourseRepository" style="stroke:#181818;stroke-width:0.6;stroke-dasharray:7.0,7.0;"/><polygon fill="none" points="360.63,480.168,359.28,467.526,368.22,476.568,360.63,480.168" style="stroke:#181818;stroke-width:0.6;"/></g><!--link ToggleCourseStatusUI to PersistenceContext--><g id="link_ToggleCourseStatusUI_PersistenceContext"><path codeLine="96" d="M265.668,33.078 C275.412,42.912 288.612,56.526 299.7,69 C313.53,84.558 328.41,102.786 339.498,116.682 " fill="none" id="ToggleCourseStatusUI-to-PersistenceContext" style="stroke:#181818;stroke-width:0.6;stroke-dasharray:7.0,7.0;"/><polygon fill="#181818" points="341.382,119.046,339.898,113.326,339.5142,116.6984,336.1419,116.3145,341.382,119.046" style="stroke:#181818;stroke-width:0.6;"/></g><!--link ToggleCourseStatusController to Course--><g id="link_ToggleCourseStatusController_Course"><path codeLine="97" d="M68.61,209.406 C60.114,220.566 52.734,232.662 47.7,245.4 C32.85,282.948 41.316,326.742 54.606,362.838 " fill="none" id="ToggleCourseStatusController-to-Course" style="stroke:#181818;stroke-width:0.6;stroke-dasharray:7.0,7.0;"/><polygon fill="#181818" points="55.734,365.868,56.0851,359.9691,54.6806,363.059,51.5907,361.6545,55.734,365.868" style="stroke:#181818;stroke-width:0.6;"/></g><!--link ToggleCourseStatusUI to ToggleCourseStatusController--><g id="link_ToggleCourseStatusUI_ToggleCourseStatusController"><path codeLine="98" d="M239.448,33.132 C231.81,41.82 221.328,53.736 210.156,66.438 " fill="none" id="ToggleCourseStatusUI-to-ToggleCourseStatusController" style="stroke:#181818;stroke-width:0.6;stroke-dasharray:7.0,7.0;"/><polygon fill="#181818" points="208.062,68.82,213.4288,66.3466,210.0418,66.566,209.8224,63.179,208.062,68.82" style="stroke:#181818;stroke-width:0.6;"/></g><!--link CourseListService to Course--><g id="link_CourseListService_Course"><path codeLine="100" d="M182.16,330.114 C170.154,344.082 156.528,359.94 143.55,375.042 " fill="none" id="CourseListService-to-Course" style="stroke:#181818;stroke-width:0.6;stroke-dasharray:7.0,7.0;"/><polygon fill="#181818" points="141.468,377.46,146.8092,374.9319,143.4246,375.1859,143.1706,371.8013,141.468,377.46" style="stroke:#181818;stroke-width:0.6;"/></g><!--link CourseListService to CourseDTO--><g id="link_CourseListService_CourseDTO"><path codeLine="101" d="M218.1,330.114 C218.1,345.492 218.1,363.156 218.1,379.578 " fill="none" id="CourseListService-to-CourseDTO" style="stroke:#181818;stroke-width:0.6;stroke-dasharray:7.0,7.0;"/><polygon fill="#181818" points="218.1,382.632,220.5,377.232,218.1,379.632,215.7,377.232,218.1,382.632" style="stroke:#181818;stroke-width:0.6;"/></g><!--link CourseListService to CourseRepository--><g id="link_CourseListService_CourseRepository"><path codeLine="102" d="M254.04,330.114 C273.786,353.094 297.936,381.192 316.344,402.606 " fill="none" id="CourseListService-to-CourseRepository" style="stroke:#181818;stroke-width:0.6;stroke-dasharray:7.0,7.0;"/><polygon fill="#181818" points="318.336,404.922,316.6334,399.2633,316.3794,402.6479,312.9948,402.3939,318.336,404.922" style="stroke:#181818;stroke-width:0.6;"/></g><!--link ToggleCourseStatusController to CourseListService--><g id="link_ToggleCourseStatusController_CourseListService"><path codeLine="104" d="M180.516,209.568 C185.922,220.716 191.382,231.978 196.404,242.34 " fill="none" id="ToggleCourseStatusController-to-CourseListService" style="stroke:#181818;stroke-width:0.6;"/><polygon fill="#181818" points="197.808,245.238,197.6227,239.3316,196.5042,242.5361,193.2997,241.4176,197.808,245.238" style="stroke:#181818;stroke-width:0.6;"/></g><!--SRC=[lLNBReCm4BpxApWcQfClg2fL96sfqe12UguGR59BZeri4_Nvxrs33KuWdAgUi6SVdfrTcvnbIWLRiTyp24Kb5QGwqvLwYO8lGdu8oIyuX89hAHW3YOwp8AzDAwfq2l98SsYn3PH2KIta1q9PfT-4f9-Pfe8xpwlHz9EXcEjUyYd1F0pFZqlWJIOrcLeiP491SOv6F95YBq4ftw9hBbkHI3XIKLdRYMaDxxg5KIChKWEX745WYY-WNcYgMRCgGEMIbgQCUWySApm0rojwe5hPCAS1UFkby_GC4d1Pt6dS6MOBBP2CMPUMUErhCOwCtRvjQYVUVPQRJqtzgeytGPHhaBii1rjevsP6nGJkA2_k63CTiETQfD7_5ElKzpc5vtFKodasItKgEp6DvwG_4iPdgFyEFvqLXmxDnHd1nJR-zpwt52B-30UiRw0DfWIL7PqMqxzgorEP_UDf2KY5VG2UWta7S7QjsDATJbrJ2F3g47GlHpCluIfEbmjSnCboZPze_PfiueVDCarnTn-je_GHxHZlHyvcjpOJ8GCKvlFR_jKW_KlKfV77jIVVpVTyVh6L5zm7sa06tsx3jLy26Nt6JOmj_sBEiGIkHl_oUZd7Z7YTHks-aACrTDhxlw9V]--></g></svg>