<?xml version="1.0" encoding="us-ascii" standalone="no"?><svg xmlns="http://www.w3.org/2000/svg" xmlns:xlink="http://www.w3.org/1999/xlink" contentStyleType="text/css" height="1176px" preserveAspectRatio="none" style="width:1415px;height:1176px;background:#FFFFFF;" version="1.1" viewBox="0 0 1415 1176" width="1415px" zoomAndPan="magnify"><defs/><g><rect fill="#FFFFFF" height="969.8574" style="stroke:#181818;stroke-width:1.0;" width="10" x="31" y="98.2422"/><rect fill="#FFFFFF" height="582.9473" style="stroke:#181818;stroke-width:1.0;" width="10" x="462" y="121.5332"/><rect fill="#FFFFFF" height="75.582" style="stroke:#181818;stroke-width:1.0;" width="10" x="462" y="735.7715"/><rect fill="#FFFFFF" height="225.4551" style="stroke:#181818;stroke-width:1.0;" width="10" x="462" y="842.6445"/><rect fill="#FFFFFF" height="181.4551" style="stroke:#181818;stroke-width:1.0;" width="10" x="725.5" y="241.3574"/><rect fill="#FFFFFF" height="181.4551" style="stroke:#181818;stroke-width:1.0;" width="10" x="725.5" y="477.7344"/><rect fill="#FFFFFF" height="153.873" style="stroke:#181818;stroke-width:1.0;" width="10" x="725.5" y="873.9355"/><rect fill="#FFFFFF" height="150.1641" style="stroke:#181818;stroke-width:1.0;" width="10" x="891.5" y="272.6484"/><rect fill="#FFFFFF" height="150.1641" style="stroke:#181818;stroke-width:1.0;" width="10" x="891.5" y="509.0254"/><rect fill="#FFFFFF" height="31.291" style="stroke:#181818;stroke-width:1.0;" width="10" x="1022.5" y="391.5215"/><rect fill="#FFFFFF" height="31.291" style="stroke:#181818;stroke-width:1.0;" width="10" x="1022.5" y="627.8984"/><rect fill="#FFFFFF" height="61.291" style="stroke:#181818;stroke-width:1.0;" width="10" x="1022.5" y="905.2266"/><rect fill="#FFFFFF" height="30" style="stroke:#181818;stroke-width:1.0;" width="10" x="1217" y="936.5176"/><rect fill="#FFFFFF" height="30" style="stroke:#181818;stroke-width:1.0;" width="10" x="1333.5" y="303.9395"/><rect fill="#FFFFFF" height="30" style="stroke:#181818;stroke-width:1.0;" width="10" x="1333.5" y="540.3164"/><rect fill="#FFFFFF" height="30" style="stroke:#181818;stroke-width:1.0;" width="10" x="1333.5" y="997.8086"/><rect fill="none" height="475.4141" style="stroke:#000000;stroke-width:1.5;" width="1018" x="390.5" y="198.7754"/><rect fill="none" height="81.873" style="stroke:#000000;stroke-width:1.5;" width="353.5" x="822" y="348.9395"/><rect fill="none" height="81.873" style="stroke:#000000;stroke-width:1.5;" width="353.5" x="822" y="585.3164"/><line style="stroke:#181818;stroke-width:0.5;stroke-dasharray:5.0,5.0;" x1="36" x2="36" y1="88.2422" y2="1077.0996"/><line style="stroke:#181818;stroke-width:0.5;stroke-dasharray:5.0,5.0;" x1="466.5" x2="466.5" y1="88.2422" y2="1077.0996"/><line style="stroke:#181818;stroke-width:0.5;stroke-dasharray:5.0,5.0;" x1="730" x2="730" y1="170.6543" y2="1077.0996"/><line style="stroke:#181818;stroke-width:0.5;stroke-dasharray:5.0,5.0;" x1="896" x2="896" y1="88.2422" y2="1077.0996"/><line style="stroke:#181818;stroke-width:0.5;stroke-dasharray:5.0,5.0;" x1="1027.5" x2="1027.5" y1="88.2422" y2="1077.0996"/><line style="stroke:#181818;stroke-width:0.5;stroke-dasharray:5.0,5.0;" x1="1120.5" x2="1120.5" y1="88.2422" y2="1077.0996"/><line style="stroke:#181818;stroke-width:0.5;stroke-dasharray:5.0,5.0;" x1="1221.5" x2="1221.5" y1="88.2422" y2="1077.0996"/><line style="stroke:#181818;stroke-width:0.5;stroke-dasharray:5.0,5.0;" x1="1338.5" x2="1338.5" y1="88.2422" y2="1077.0996"/><text fill="#000000" font-family="sans-serif" font-size="14" lengthAdjust="spacing" textLength="56" x="5" y="84.7285">Manager</text><ellipse cx="36" cy="18.1211" fill="#E2E2F0" rx="8" ry="8" style="stroke:#181818;stroke-width:0.5;"/><path d="M36,26.1211 L36,53.1211 M23,34.1211 L49,34.1211 M36,53.1211 L23,68.1211 M36,53.1211 L49,68.1211 " fill="none" style="stroke:#181818;stroke-width:0.5;"/><text fill="#000000" font-family="sans-serif" font-size="14" lengthAdjust="spacing" textLength="56" x="5" y="1091.207">Manager</text><ellipse cx="36" cy="1103.2207" fill="#E2E2F0" rx="8" ry="8" style="stroke:#181818;stroke-width:0.5;"/><path d="M36,1111.2207 L36,1138.2207 M23,1119.2207 L49,1119.2207 M36,1138.2207 L23,1153.2207 M36,1138.2207 L49,1153.2207 " fill="none" style="stroke:#181818;stroke-width:0.5;"/><rect fill="#E2E2F0" height="51.2422" rx="2.5" ry="2.5" style="stroke:#181818;stroke-width:0.5;" width="133" x="400.5" y="36"/><text fill="#000000" font-family="sans-serif" font-size="14" font-style="italic" lengthAdjust="spacing" textLength="95" x="419.5" y="58.1074">&#171;presentation&#187;</text><text fill="#000000" font-family="sans-serif" font-size="14" lengthAdjust="spacing" textLength="119" x="407.5" y="76.7285">SetCourseStatusUI</text><rect fill="#E2E2F0" height="51.2422" rx="2.5" ry="2.5" style="stroke:#181818;stroke-width:0.5;" width="133" x="400.5" y="1076.0996"/><text fill="#000000" font-family="sans-serif" font-size="14" font-style="italic" lengthAdjust="spacing" textLength="95" x="419.5" y="1098.207">&#171;presentation&#187;</text><text fill="#000000" font-family="sans-serif" font-size="14" lengthAdjust="spacing" textLength="119" x="407.5" y="1116.8281">SetCourseStatusUI</text><rect fill="#E2E2F0" height="51.2422" rx="2.5" ry="2.5" style="stroke:#181818;stroke-width:0.5;" width="183" x="639" y="1076.0996"/><text fill="#000000" font-family="sans-serif" font-size="14" font-style="italic" lengthAdjust="spacing" textLength="84" x="688.5" y="1098.207">&#171;application&#187;</text><text fill="#000000" font-family="sans-serif" font-size="14" lengthAdjust="spacing" textLength="169" x="646" y="1116.8281">SetCourseStatusController</text><rect fill="#E2E2F0" height="51.2422" rx="2.5" ry="2.5" style="stroke:#181818;stroke-width:0.5;" width="129" x="832" y="36"/><text fill="#000000" font-family="sans-serif" font-size="14" font-style="italic" lengthAdjust="spacing" textLength="60" x="866.5" y="58.1074">&#171;service&#187;</text><text fill="#000000" font-family="sans-serif" font-size="14" lengthAdjust="spacing" textLength="115" x="839" y="76.7285">CourseListService</text><rect fill="#E2E2F0" height="51.2422" rx="2.5" ry="2.5" style="stroke:#181818;stroke-width:0.5;" width="129" x="832" y="1076.0996"/><text fill="#000000" font-family="sans-serif" font-size="14" font-style="italic" lengthAdjust="spacing" textLength="60" x="866.5" y="1098.207">&#171;service&#187;</text><text fill="#000000" font-family="sans-serif" font-size="14" lengthAdjust="spacing" textLength="115" x="839" y="1116.8281">CourseListService</text><rect fill="#E2E2F0" height="51.2422" rx="2.5" ry="2.5" style="stroke:#181818;stroke-width:0.5;" width="76" x="989.5" y="36"/><text fill="#000000" font-family="sans-serif" font-size="14" font-style="italic" lengthAdjust="spacing" textLength="62" x="996.5" y="58.1074">&#171;domain&#187;</text><text fill="#000000" font-family="sans-serif" font-size="14" lengthAdjust="spacing" textLength="46" x="1004.5" y="76.7285">Course</text><rect fill="#E2E2F0" height="51.2422" rx="2.5" ry="2.5" style="stroke:#181818;stroke-width:0.5;" width="76" x="989.5" y="1076.0996"/><text fill="#000000" font-family="sans-serif" font-size="14" font-style="italic" lengthAdjust="spacing" textLength="62" x="996.5" y="1098.207">&#171;domain&#187;</text><text fill="#000000" font-family="sans-serif" font-size="14" lengthAdjust="spacing" textLength="46" x="1004.5" y="1116.8281">Course</text><rect fill="#E2E2F0" height="51.2422" rx="2.5" ry="2.5" style="stroke:#181818;stroke-width:0.5;" width="90" x="1075.5" y="36"/><text fill="#000000" font-family="sans-serif" font-size="14" font-style="italic" lengthAdjust="spacing" textLength="36" x="1102.5" y="58.1074">&#171;dto&#187;</text><text fill="#000000" font-family="sans-serif" font-size="14" lengthAdjust="spacing" textLength="76" x="1082.5" y="76.7285">CourseDTO</text><rect fill="#E2E2F0" height="51.2422" rx="2.5" ry="2.5" style="stroke:#181818;stroke-width:0.5;" width="90" x="1075.5" y="1076.0996"/><text fill="#000000" font-family="sans-serif" font-size="14" font-style="italic" lengthAdjust="spacing" textLength="36" x="1102.5" y="1098.207">&#171;dto&#187;</text><text fill="#000000" font-family="sans-serif" font-size="14" lengthAdjust="spacing" textLength="76" x="1082.5" y="1116.8281">CourseDTO</text><rect fill="#E2E2F0" height="51.2422" rx="2.5" ry="2.5" style="stroke:#181818;stroke-width:0.5;" width="93" x="1175.5" y="36"/><text fill="#000000" font-family="sans-serif" font-size="14" font-style="italic" lengthAdjust="spacing" textLength="62" x="1191" y="58.1074">&#171;domain&#187;</text><text fill="#000000" font-family="sans-serif" font-size="14" lengthAdjust="spacing" textLength="79" x="1182.5" y="76.7285">CourseState</text><rect fill="#E2E2F0" height="51.2422" rx="2.5" ry="2.5" style="stroke:#181818;stroke-width:0.5;" width="93" x="1175.5" y="1076.0996"/><text fill="#000000" font-family="sans-serif" font-size="14" font-style="italic" lengthAdjust="spacing" textLength="62" x="1191" y="1098.207">&#171;domain&#187;</text><text fill="#000000" font-family="sans-serif" font-size="14" lengthAdjust="spacing" textLength="79" x="1182.5" y="1116.8281">CourseState</text><text fill="#000000" font-family="sans-serif" font-size="14" font-style="italic" lengthAdjust="spacing" textLength="79" x="1296" y="66.1074">&#171;repository&#187;</text><text fill="#000000" font-family="sans-serif" font-size="14" lengthAdjust="spacing" textLength="114" x="1278.5" y="84.7285">CourseRepository</text><path d="M1320.5,15 C1320.5,5 1338.5,5 1338.5,5 C1338.5,5 1356.5,5 1356.5,15 L1356.5,41 C1356.5,51 1338.5,51 1338.5,51 C1338.5,51 1320.5,51 1320.5,41 L1320.5,15 " fill="#E2E2F0" style="stroke:#181818;stroke-width:1.5;"/><path d="M1320.5,15 C1320.5,25 1338.5,25 1338.5,25 C1338.5,25 1356.5,25 1356.5,15 " fill="none" style="stroke:#181818;stroke-width:1.5;"/><text fill="#000000" font-family="sans-serif" font-size="14" font-style="italic" lengthAdjust="spacing" textLength="79" x="1296" y="1091.207">&#171;repository&#187;</text><text fill="#000000" font-family="sans-serif" font-size="14" lengthAdjust="spacing" textLength="114" x="1278.5" y="1109.8281">CourseRepository</text><path d="M1320.5,1123.3418 C1320.5,1113.3418 1338.5,1113.3418 1338.5,1113.3418 C1338.5,1113.3418 1356.5,1113.3418 1356.5,1123.3418 L1356.5,1149.3418 C1356.5,1159.3418 1338.5,1159.3418 1338.5,1159.3418 C1338.5,1159.3418 1320.5,1159.3418 1320.5,1149.3418 L1320.5,1123.3418 " fill="#E2E2F0" style="stroke:#181818;stroke-width:1.5;"/><path d="M1320.5,1123.3418 C1320.5,1133.3418 1338.5,1133.3418 1338.5,1133.3418 C1338.5,1133.3418 1356.5,1133.3418 1356.5,1123.3418 " fill="none" style="stroke:#181818;stroke-width:1.5;"/><rect fill="#FFFFFF" height="969.8574" style="stroke:#181818;stroke-width:1.0;" width="10" x="31" y="98.2422"/><rect fill="#FFFFFF" height="582.9473" style="stroke:#181818;stroke-width:1.0;" width="10" x="462" y="121.5332"/><rect fill="#FFFFFF" height="75.582" style="stroke:#181818;stroke-width:1.0;" width="10" x="462" y="735.7715"/><rect fill="#FFFFFF" height="225.4551" style="stroke:#181818;stroke-width:1.0;" width="10" x="462" y="842.6445"/><rect fill="#FFFFFF" height="181.4551" style="stroke:#181818;stroke-width:1.0;" width="10" x="725.5" y="241.3574"/><rect fill="#FFFFFF" height="181.4551" style="stroke:#181818;stroke-width:1.0;" width="10" x="725.5" y="477.7344"/><rect fill="#FFFFFF" height="153.873" style="stroke:#181818;stroke-width:1.0;" width="10" x="725.5" y="873.9355"/><rect fill="#FFFFFF" height="150.1641" style="stroke:#181818;stroke-width:1.0;" width="10" x="891.5" y="272.6484"/><rect fill="#FFFFFF" height="150.1641" style="stroke:#181818;stroke-width:1.0;" width="10" x="891.5" y="509.0254"/><rect fill="#FFFFFF" height="31.291" style="stroke:#181818;stroke-width:1.0;" width="10" x="1022.5" y="391.5215"/><rect fill="#FFFFFF" height="31.291" style="stroke:#181818;stroke-width:1.0;" width="10" x="1022.5" y="627.8984"/><rect fill="#FFFFFF" height="61.291" style="stroke:#181818;stroke-width:1.0;" width="10" x="1022.5" y="905.2266"/><rect fill="#FFFFFF" height="30" style="stroke:#181818;stroke-width:1.0;" width="10" x="1217" y="936.5176"/><rect fill="#FFFFFF" height="30" style="stroke:#181818;stroke-width:1.0;" width="10" x="1333.5" y="303.9395"/><rect fill="#FFFFFF" height="30" style="stroke:#181818;stroke-width:1.0;" width="10" x="1333.5" y="540.3164"/><rect fill="#FFFFFF" height="30" style="stroke:#181818;stroke-width:1.0;" width="10" x="1333.5" y="997.8086"/><polygon fill="#181818" points="450,117.5332,460,121.5332,450,125.5332,454,121.5332" style="stroke:#181818;stroke-width:1.0;"/><line style="stroke:#181818;stroke-width:1.0;" x1="41" x2="456" y1="121.5332" y2="121.5332"/><text fill="#000000" font-family="sans-serif" font-size="13" font-weight="bold" lengthAdjust="spacing" textLength="7" x="48" y="116.2705">1</text><text fill="#000000" font-family="sans-serif" font-size="13" lengthAdjust="spacing" textLength="186" x="59" y="116.2705">requests to open/close a course</text><polygon fill="#181818" points="627,148.8242,637,152.8242,627,156.8242,631,152.8242" style="stroke:#181818;stroke-width:1.0;"/><line style="stroke:#181818;stroke-width:1.0;" x1="472" x2="633" y1="152.8242" y2="152.8242"/><text fill="#000000" font-family="sans-serif" font-size="13" font-weight="bold" lengthAdjust="spacing" textLength="7" x="479" y="147.5615">2</text><text fill="#000000" font-family="sans-serif" font-size="13" lengthAdjust="spacing" textLength="132" x="490" y="147.5615">new(courseRepository)</text><rect fill="#E2E2F0" height="51.2422" rx="2.5" ry="2.5" style="stroke:#181818;stroke-width:0.5;" width="183" x="639" y="129.5332"/><text fill="#000000" font-family="sans-serif" font-size="14" font-style="italic" lengthAdjust="spacing" textLength="84" x="688.5" y="151.6406">&#171;application&#187;</text><text fill="#000000" font-family="sans-serif" font-size="14" lengthAdjust="spacing" textLength="169" x="646" y="170.2617">SetCourseStatusController</text><path d="M390.5,198.7754 L451.5,198.7754 L451.5,208.0664 L441.5,218.0664 L390.5,218.0664 L390.5,198.7754 " fill="#EEEEEE" style="stroke:#000000;stroke-width:1.5;"/><rect fill="none" height="475.4141" style="stroke:#000000;stroke-width:1.5;" width="1018" x="390.5" y="198.7754"/><text fill="#000000" font-family="sans-serif" font-size="13" font-weight="bold" lengthAdjust="spacing" textLength="16" x="405.5" y="213.8037">alt</text><text fill="#000000" font-family="sans-serif" font-size="11" font-weight="bold" lengthAdjust="spacing" textLength="90" x="466.5" y="212.6455">[if close course]</text><polygon fill="#181818" points="713.5,237.3574,723.5,241.3574,713.5,245.3574,717.5,241.3574" style="stroke:#181818;stroke-width:1.0;"/><line style="stroke:#181818;stroke-width:1.0;" x1="472" x2="719.5" y1="241.3574" y2="241.3574"/><text fill="#000000" font-family="sans-serif" font-size="13" font-weight="bold" lengthAdjust="spacing" textLength="7" x="479" y="236.0947">3</text><text fill="#000000" font-family="sans-serif" font-size="13" lengthAdjust="spacing" textLength="166" x="490" y="236.0947">courses = listOpenCourses()</text><polygon fill="#181818" points="879.5,268.6484,889.5,272.6484,879.5,276.6484,883.5,272.6484" style="stroke:#181818;stroke-width:1.0;"/><line style="stroke:#181818;stroke-width:1.0;" x1="735.5" x2="885.5" y1="272.6484" y2="272.6484"/><text fill="#000000" font-family="sans-serif" font-size="13" font-weight="bold" lengthAdjust="spacing" textLength="7" x="742.5" y="267.3857">4</text><text fill="#000000" font-family="sans-serif" font-size="13" lengthAdjust="spacing" textLength="104" x="753.5" y="267.3857">listOpenCourses()</text><polygon fill="#181818" points="1321.5,299.9395,1331.5,303.9395,1321.5,307.9395,1325.5,303.9395" style="stroke:#181818;stroke-width:1.0;"/><line style="stroke:#181818;stroke-width:1.0;" x1="901.5" x2="1327.5" y1="303.9395" y2="303.9395"/><text fill="#000000" font-family="sans-serif" font-size="13" font-weight="bold" lengthAdjust="spacing" textLength="7" x="908.5" y="298.6768">5</text><text fill="#000000" font-family="sans-serif" font-size="13" lengthAdjust="spacing" textLength="74" x="919.5" y="298.6768">findAllOpen()</text><path d="M822,348.9395 L895,348.9395 L895,358.2305 L885,368.2305 L822,368.2305 L822,348.9395 " fill="#EEEEEE" style="stroke:#000000;stroke-width:1.5;"/><rect fill="none" height="81.873" style="stroke:#000000;stroke-width:1.5;" width="353.5" x="822" y="348.9395"/><text fill="#000000" font-family="sans-serif" font-size="13" font-weight="bold" lengthAdjust="spacing" textLength="28" x="837" y="363.9678">loop</text><text fill="#000000" font-family="sans-serif" font-size="11" font-weight="bold" lengthAdjust="spacing" textLength="95" x="910" y="362.8096">[for each course]</text><polygon fill="#181818" points="1010.5,387.5215,1020.5,391.5215,1010.5,395.5215,1014.5,391.5215" style="stroke:#181818;stroke-width:1.0;"/><line style="stroke:#181818;stroke-width:1.0;" x1="901.5" x2="1016.5" y1="391.5215" y2="391.5215"/><text fill="#000000" font-family="sans-serif" font-size="13" font-weight="bold" lengthAdjust="spacing" textLength="7" x="908.5" y="386.2588">6</text><text fill="#000000" font-family="sans-serif" font-size="13" lengthAdjust="spacing" textLength="84" x="919.5" y="386.2588">toDTO(course)</text><polygon fill="#181818" points="1108.5,418.8125,1118.5,422.8125,1108.5,426.8125,1112.5,422.8125" style="stroke:#181818;stroke-width:1.0;"/><line style="stroke:#181818;stroke-width:1.0;" x1="1027.5" x2="1114.5" y1="422.8125" y2="422.8125"/><text fill="#000000" font-family="sans-serif" font-size="13" font-weight="bold" lengthAdjust="spacing" textLength="7" x="1034.5" y="417.5498">7</text><text fill="#000000" font-family="sans-serif" font-size="13" lengthAdjust="spacing" textLength="23" x="1045.5" y="417.5498">new</text><line style="stroke:#000000;stroke-width:1.0;stroke-dasharray:2.0,2.0;" x1="390.5" x2="1408.5" y1="438.8125" y2="438.8125"/><text fill="#000000" font-family="sans-serif" font-size="11" font-weight="bold" lengthAdjust="spacing" textLength="88" x="395.5" y="450.6826">[if open course]</text><polygon fill="#181818" points="713.5,473.7344,723.5,477.7344,713.5,481.7344,717.5,477.7344" style="stroke:#181818;stroke-width:1.0;"/><line style="stroke:#181818;stroke-width:1.0;" x1="472" x2="719.5" y1="477.7344" y2="477.7344"/><text fill="#000000" font-family="sans-serif" font-size="13" font-weight="bold" lengthAdjust="spacing" textLength="7" x="479" y="472.4717">8</text><text fill="#000000" font-family="sans-serif" font-size="13" lengthAdjust="spacing" textLength="175" x="490" y="472.4717">courses = listClosedCourses()</text><polygon fill="#181818" points="879.5,505.0254,889.5,509.0254,879.5,513.0254,883.5,509.0254" style="stroke:#181818;stroke-width:1.0;"/><line style="stroke:#181818;stroke-width:1.0;" x1="735.5" x2="885.5" y1="509.0254" y2="509.0254"/><text fill="#000000" font-family="sans-serif" font-size="13" font-weight="bold" lengthAdjust="spacing" textLength="7" x="742.5" y="503.7627">9</text><text fill="#000000" font-family="sans-serif" font-size="13" lengthAdjust="spacing" textLength="113" x="753.5" y="503.7627">listClosedCourses()</text><polygon fill="#181818" points="1321.5,536.3164,1331.5,540.3164,1321.5,544.3164,1325.5,540.3164" style="stroke:#181818;stroke-width:1.0;"/><line style="stroke:#181818;stroke-width:1.0;" x1="901.5" x2="1327.5" y1="540.3164" y2="540.3164"/><text fill="#000000" font-family="sans-serif" font-size="13" font-weight="bold" lengthAdjust="spacing" textLength="14" x="908.5" y="535.0537">10</text><text fill="#000000" font-family="sans-serif" font-size="13" lengthAdjust="spacing" textLength="83" x="926.5" y="535.0537">findAllClosed()</text><path d="M822,585.3164 L895,585.3164 L895,594.6074 L885,604.6074 L822,604.6074 L822,585.3164 " fill="#EEEEEE" style="stroke:#000000;stroke-width:1.5;"/><rect fill="none" height="81.873" style="stroke:#000000;stroke-width:1.5;" width="353.5" x="822" y="585.3164"/><text fill="#000000" font-family="sans-serif" font-size="13" font-weight="bold" lengthAdjust="spacing" textLength="28" x="837" y="600.3447">loop</text><text fill="#000000" font-family="sans-serif" font-size="11" font-weight="bold" lengthAdjust="spacing" textLength="95" x="910" y="599.1865">[for each course]</text><polygon fill="#181818" points="1010.5,623.8984,1020.5,627.8984,1010.5,631.8984,1014.5,627.8984" style="stroke:#181818;stroke-width:1.0;"/><line style="stroke:#181818;stroke-width:1.0;" x1="901.5" x2="1016.5" y1="627.8984" y2="627.8984"/><text fill="#000000" font-family="sans-serif" font-size="13" font-weight="bold" lengthAdjust="spacing" textLength="14" x="908.5" y="622.6357">11</text><text fill="#000000" font-family="sans-serif" font-size="13" lengthAdjust="spacing" textLength="84" x="926.5" y="622.6357">toDTO(course)</text><polygon fill="#181818" points="1108.5,655.1895,1118.5,659.1895,1108.5,663.1895,1112.5,659.1895" style="stroke:#181818;stroke-width:1.0;"/><line style="stroke:#181818;stroke-width:1.0;" x1="1027.5" x2="1114.5" y1="659.1895" y2="659.1895"/><text fill="#000000" font-family="sans-serif" font-size="13" font-weight="bold" lengthAdjust="spacing" textLength="14" x="1034.5" y="653.9268">12</text><text fill="#000000" font-family="sans-serif" font-size="13" lengthAdjust="spacing" textLength="23" x="1052.5" y="653.9268">new</text><polygon fill="#181818" points="52,700.4805,42,704.4805,52,708.4805,48,704.4805" style="stroke:#181818;stroke-width:1.0;"/><line style="stroke:#181818;stroke-width:1.0;stroke-dasharray:2.0,2.0;" x1="46" x2="466" y1="704.4805" y2="704.4805"/><text fill="#000000" font-family="sans-serif" font-size="13" font-weight="bold" lengthAdjust="spacing" textLength="14" x="58" y="699.2178">13</text><text fill="#000000" font-family="sans-serif" font-size="13" lengthAdjust="spacing" textLength="379" x="76" y="699.2178">lists the available courses and their status and asks to select one</text><polygon fill="#181818" points="450,731.7715,460,735.7715,450,739.7715,454,735.7715" style="stroke:#181818;stroke-width:1.0;"/><line style="stroke:#181818;stroke-width:1.0;" x1="41" x2="456" y1="735.7715" y2="735.7715"/><text fill="#000000" font-family="sans-serif" font-size="13" font-weight="bold" lengthAdjust="spacing" textLength="14" x="48" y="730.5088">14</text><text fill="#000000" font-family="sans-serif" font-size="13" lengthAdjust="spacing" textLength="153" x="66" y="730.5088">selects the desired course</text><line style="stroke:#181818;stroke-width:1.0;" x1="472" x2="514" y1="767.0625" y2="767.0625"/><line style="stroke:#181818;stroke-width:1.0;" x1="514" x2="514" y1="767.0625" y2="780.0625"/><line style="stroke:#181818;stroke-width:1.0;" x1="473" x2="514" y1="780.0625" y2="780.0625"/><polygon fill="#181818" points="483,776.0625,473,780.0625,483,784.0625,479,780.0625" style="stroke:#181818;stroke-width:1.0;"/><text fill="#000000" font-family="sans-serif" font-size="13" font-weight="bold" lengthAdjust="spacing" textLength="14" x="479" y="761.7998">15</text><text fill="#000000" font-family="sans-serif" font-size="13" lengthAdjust="spacing" textLength="183" x="497" y="761.7998">course = select(courses, index)</text><polygon fill="#181818" points="52,807.3535,42,811.3535,52,815.3535,48,811.3535" style="stroke:#181818;stroke-width:1.0;"/><line style="stroke:#181818;stroke-width:1.0;stroke-dasharray:2.0,2.0;" x1="46" x2="466" y1="811.3535" y2="811.3535"/><text fill="#000000" font-family="sans-serif" font-size="13" font-weight="bold" lengthAdjust="spacing" textLength="14" x="58" y="806.0908">16</text><text fill="#000000" font-family="sans-serif" font-size="13" lengthAdjust="spacing" textLength="269" x="76" y="806.0908">asks to confirm the toggle of the course status</text><polygon fill="#181818" points="450,838.6445,460,842.6445,450,846.6445,454,842.6445" style="stroke:#181818;stroke-width:1.0;"/><line style="stroke:#181818;stroke-width:1.0;" x1="41" x2="456" y1="842.6445" y2="842.6445"/><text fill="#000000" font-family="sans-serif" font-size="13" font-weight="bold" lengthAdjust="spacing" textLength="14" x="48" y="837.3818">17</text><text fill="#000000" font-family="sans-serif" font-size="13" lengthAdjust="spacing" textLength="106" x="66" y="837.3818">confirms operation</text><polygon fill="#181818" points="713.5,869.9355,723.5,873.9355,713.5,877.9355,717.5,873.9355" style="stroke:#181818;stroke-width:1.0;"/><line style="stroke:#181818;stroke-width:1.0;" x1="472" x2="719.5" y1="873.9355" y2="873.9355"/><text fill="#000000" font-family="sans-serif" font-size="13" font-weight="bold" lengthAdjust="spacing" textLength="14" x="479" y="868.6729">18</text><text fill="#000000" font-family="sans-serif" font-size="13" lengthAdjust="spacing" textLength="161" x="497" y="868.6729">toggleCourseStatus(course)</text><polygon fill="#181818" points="1010.5,901.2266,1020.5,905.2266,1010.5,909.2266,1014.5,905.2266" style="stroke:#181818;stroke-width:1.0;"/><line style="stroke:#181818;stroke-width:1.0;" x1="735.5" x2="1016.5" y1="905.2266" y2="905.2266"/><text fill="#000000" font-family="sans-serif" font-size="13" font-weight="bold" lengthAdjust="spacing" textLength="14" x="742.5" y="899.9639">19</text><text fill="#000000" font-family="sans-serif" font-size="13" lengthAdjust="spacing" textLength="129" x="760.5" y="899.9639">course = toggleState()</text><polygon fill="#181818" points="1205,932.5176,1215,936.5176,1205,940.5176,1209,936.5176" style="stroke:#181818;stroke-width:1.0;"/><line style="stroke:#181818;stroke-width:1.0;" x1="1032.5" x2="1211" y1="936.5176" y2="936.5176"/><text fill="#000000" font-family="sans-serif" font-size="13" font-weight="bold" lengthAdjust="spacing" textLength="14" x="1039.5" y="931.2549">20</text><text fill="#000000" font-family="sans-serif" font-size="13" lengthAdjust="spacing" textLength="43" x="1057.5" y="931.2549">toggle()</text><polygon fill="#181818" points="1321.5,993.8086,1331.5,997.8086,1321.5,1001.8086,1325.5,997.8086" style="stroke:#181818;stroke-width:1.0;"/><line style="stroke:#181818;stroke-width:1.0;" x1="735.5" x2="1327.5" y1="997.8086" y2="997.8086"/><text fill="#000000" font-family="sans-serif" font-size="13" font-weight="bold" lengthAdjust="spacing" textLength="14" x="742.5" y="992.5459">21</text><text fill="#000000" font-family="sans-serif" font-size="13" lengthAdjust="spacing" textLength="73" x="760.5" y="992.5459">save(course)</text><polygon fill="#181818" points="52,1055.0996,42,1059.0996,52,1063.0996,48,1059.0996" style="stroke:#181818;stroke-width:1.0;"/><line style="stroke:#181818;stroke-width:1.0;stroke-dasharray:2.0,2.0;" x1="46" x2="461" y1="1059.0996" y2="1059.0996"/><text fill="#000000" font-family="sans-serif" font-size="13" font-weight="bold" lengthAdjust="spacing" textLength="14" x="58" y="1053.8369">22</text><text fill="#000000" font-family="sans-serif" font-size="13" lengthAdjust="spacing" textLength="152" x="76" y="1053.8369">informs operation success</text><!--SRC=[rLHDZzem4BtxLumumQfLxz4MgQ8z82tQ2fRUZJDXhHexjHtQ_lkEFmWccw3ss1Da_DwRyPiPyyuRtPqEQ1dZmXiBimtN_8Xs1jp1Xh6MMo-5RBdsCDkXNvdEEjnvxZktNqVKVWsFZwr5Xvh2qkZbyYvjPRItHgcSPFMoVI81thPAYb5-8Zz9vtTepr9WvEsstuZcKcISalJZNuBMviJbXFZdb-S8fj-0z6OS5YvGgiRlKfgncdj-u9Gm8RRO6YV9sT-1jVtoDUZRFXWePBmy1nsoUmFlbsHe1HP_TEYy0s_0jAW_26L8b8E8iWLhlsQCMa2yuEJ3GmKQVyx58Fk26Cg3R209PHc0AxNAGGSVGP7PpvGsNSBD5uJiCmOmVSV64PSQKTqd488-GyC87Zoee96w_gHKe4HiWGw06Abn65F6jD3GcDB9w_KElNRkTKMkKIUp2GFvrPMLuKGCVO_63HEdqcz2XK0PJQQWhcEL31KfazsXUN_ZzYgqfVudl-zGfXrFf5jqTlV_zblNQGz8VPFyeULvfPKvSwduGM5lE2SEdKWBBZv8CS3TzxXi3XKA3qRJZXNfmfRrovamIRv69otMz_OoKD8nzJfnirNk7L1NyDUYgFnIY32waVOKatXpFD85J1E_ibOgVhhABE322Dhui4w-6bNEK3xJVJVPhUViCeS9N5mjQSGtSNv3ozPSsr-ydfVK8unupjvCmaJuMbYQTyVFE7A7EDd3IH_ELT4EgMd-InF1TKAWS-mF]--></g></svg>