<?xml version="1.0" encoding="us-ascii" standalone="no"?><svg xmlns="http://www.w3.org/2000/svg" xmlns:xlink="http://www.w3.org/1999/xlink" contentStyleType="text/css" height="840px" preserveAspectRatio="none" style="width:967px;height:840px;background:#FFFFFF;" version="1.1" viewBox="0 0 967 840" width="967px" zoomAndPan="magnify"><defs/><g><rect fill="#FFFFFF" height="634.3164" style="stroke:#181818;stroke-width:1.0;" width="10" x="31" y="98.2422"/><rect fill="#FFFFFF" height="247.4063" style="stroke:#181818;stroke-width:1.0;" width="10" x="455" y="121.5332"/><rect fill="#FFFFFF" height="106.873" style="stroke:#181818;stroke-width:1.0;" width="10" x="455" y="400.2305"/><rect fill="#FFFFFF" height="194.1641" style="stroke:#181818;stroke-width:1.0;" width="10" x="455" y="538.3945"/><rect fill="#FFFFFF" height="122.582" style="stroke:#181818;stroke-width:1.0;" width="10" x="624" y="215.0664"/><rect fill="#FFFFFF" height="75.582" style="stroke:#181818;stroke-width:1.0;" width="10" x="624" y="431.5215"/><rect fill="#FFFFFF" height="122.582" style="stroke:#181818;stroke-width:1.0;" width="10" x="624" y="569.6855"/><rect fill="#FFFFFF" height="30" style="stroke:#181818;stroke-width:1.0;" width="10" x="793" y="600.9766"/><rect fill="#FFFFFF" height="30" style="stroke:#181818;stroke-width:1.0;" width="10" x="901" y="246.3574"/><rect fill="#FFFFFF" height="30" style="stroke:#181818;stroke-width:1.0;" width="10" x="901" y="307.6484"/><rect fill="#FFFFFF" height="30" style="stroke:#181818;stroke-width:1.0;" width="10" x="901" y="662.2676"/><line style="stroke:#181818;stroke-width:0.5;stroke-dasharray:5.0,5.0;" x1="36" x2="36" y1="88.2422" y2="741.5586"/><line style="stroke:#181818;stroke-width:0.5;stroke-dasharray:5.0,5.0;" x1="459.5" x2="459.5" y1="88.2422" y2="741.5586"/><line style="stroke:#181818;stroke-width:0.5;stroke-dasharray:5.0,5.0;" x1="628.5" x2="628.5" y1="170.6543" y2="741.5586"/><line style="stroke:#181818;stroke-width:0.5;stroke-dasharray:5.0,5.0;" x1="798" x2="798" y1="88.2422" y2="741.5586"/><line style="stroke:#181818;stroke-width:0.5;stroke-dasharray:5.0,5.0;" x1="906" x2="906" y1="88.2422" y2="741.5586"/><text fill="#000000" font-family="sans-serif" font-size="14" lengthAdjust="spacing" textLength="56" x="5" y="84.7285">Manager</text><ellipse cx="36" cy="18.1211" fill="#E2E2F0" rx="8" ry="8" style="stroke:#181818;stroke-width:0.5;"/><path d="M36,26.1211 L36,53.1211 M23,34.1211 L49,34.1211 M36,53.1211 L23,68.1211 M36,53.1211 L49,68.1211 " fill="none" style="stroke:#181818;stroke-width:0.5;"/><text fill="#000000" font-family="sans-serif" font-size="14" lengthAdjust="spacing" textLength="56" x="5" y="755.666">Manager</text><ellipse cx="36" cy="767.6797" fill="#E2E2F0" rx="8" ry="8" style="stroke:#181818;stroke-width:0.5;"/><path d="M36,775.6797 L36,802.6797 M23,783.6797 L49,783.6797 M36,802.6797 L23,817.6797 M36,802.6797 L49,817.6797 " fill="none" style="stroke:#181818;stroke-width:0.5;"/><rect fill="#E2E2F0" height="51.2422" rx="2.5" ry="2.5" style="stroke:#181818;stroke-width:0.5;" width="133" x="393.5" y="36"/><text fill="#000000" font-family="sans-serif" font-size="14" font-style="italic" lengthAdjust="spacing" textLength="95" x="412.5" y="58.1074">&#171;presentation&#187;</text><text fill="#000000" font-family="sans-serif" font-size="14" lengthAdjust="spacing" textLength="119" x="400.5" y="76.7285">SetCourseStatusUI</text><rect fill="#E2E2F0" height="51.2422" rx="2.5" ry="2.5" style="stroke:#181818;stroke-width:0.5;" width="133" x="393.5" y="740.5586"/><text fill="#000000" font-family="sans-serif" font-size="14" font-style="italic" lengthAdjust="spacing" textLength="95" x="412.5" y="762.666">&#171;presentation&#187;</text><text fill="#000000" font-family="sans-serif" font-size="14" lengthAdjust="spacing" textLength="119" x="400.5" y="781.2871">SetCourseStatusUI</text><rect fill="#E2E2F0" height="51.2422" rx="2.5" ry="2.5" style="stroke:#181818;stroke-width:0.5;" width="183" x="537.5" y="740.5586"/><text fill="#000000" font-family="sans-serif" font-size="14" font-style="italic" lengthAdjust="spacing" textLength="84" x="587" y="762.666">&#171;application&#187;</text><text fill="#000000" font-family="sans-serif" font-size="14" lengthAdjust="spacing" textLength="169" x="544.5" y="781.2871">SetCourseStatusController</text><rect fill="#E2E2F0" height="51.2422" rx="2.5" ry="2.5" style="stroke:#181818;stroke-width:0.5;" width="76" x="760" y="36"/><text fill="#000000" font-family="sans-serif" font-size="14" font-style="italic" lengthAdjust="spacing" textLength="62" x="767" y="58.1074">&#171;domain&#187;</text><text fill="#000000" font-family="sans-serif" font-size="14" lengthAdjust="spacing" textLength="46" x="775" y="76.7285">Course</text><rect fill="#E2E2F0" height="51.2422" rx="2.5" ry="2.5" style="stroke:#181818;stroke-width:0.5;" width="76" x="760" y="740.5586"/><text fill="#000000" font-family="sans-serif" font-size="14" font-style="italic" lengthAdjust="spacing" textLength="62" x="767" y="762.666">&#171;domain&#187;</text><text fill="#000000" font-family="sans-serif" font-size="14" lengthAdjust="spacing" textLength="46" x="775" y="781.2871">Course</text><text fill="#000000" font-family="sans-serif" font-size="14" font-style="italic" lengthAdjust="spacing" textLength="79" x="863.5" y="66.1074">&#171;repository&#187;</text><text fill="#000000" font-family="sans-serif" font-size="14" lengthAdjust="spacing" textLength="114" x="846" y="84.7285">CourseRepository</text><path d="M888,15 C888,5 906,5 906,5 C906,5 924,5 924,15 L924,41 C924,51 906,51 906,51 C906,51 888,51 888,41 L888,15 " fill="#E2E2F0" style="stroke:#181818;stroke-width:1.5;"/><path d="M888,15 C888,25 906,25 906,25 C906,25 924,25 924,15 " fill="none" style="stroke:#181818;stroke-width:1.5;"/><text fill="#000000" font-family="sans-serif" font-size="14" font-style="italic" lengthAdjust="spacing" textLength="79" x="863.5" y="755.666">&#171;repository&#187;</text><text fill="#000000" font-family="sans-serif" font-size="14" lengthAdjust="spacing" textLength="114" x="846" y="774.2871">CourseRepository</text><path d="M888,787.8008 C888,777.8008 906,777.8008 906,777.8008 C906,777.8008 924,777.8008 924,787.8008 L924,813.8008 C924,823.8008 906,823.8008 906,823.8008 C906,823.8008 888,823.8008 888,813.8008 L888,787.8008 " fill="#E2E2F0" style="stroke:#181818;stroke-width:1.5;"/><path d="M888,787.8008 C888,797.8008 906,797.8008 906,797.8008 C906,797.8008 924,797.8008 924,787.8008 " fill="none" style="stroke:#181818;stroke-width:1.5;"/><rect fill="#FFFFFF" height="634.3164" style="stroke:#181818;stroke-width:1.0;" width="10" x="31" y="98.2422"/><rect fill="#FFFFFF" height="247.4063" style="stroke:#181818;stroke-width:1.0;" width="10" x="455" y="121.5332"/><rect fill="#FFFFFF" height="106.873" style="stroke:#181818;stroke-width:1.0;" width="10" x="455" y="400.2305"/><rect fill="#FFFFFF" height="194.1641" style="stroke:#181818;stroke-width:1.0;" width="10" x="455" y="538.3945"/><rect fill="#FFFFFF" height="122.582" style="stroke:#181818;stroke-width:1.0;" width="10" x="624" y="215.0664"/><rect fill="#FFFFFF" height="75.582" style="stroke:#181818;stroke-width:1.0;" width="10" x="624" y="431.5215"/><rect fill="#FFFFFF" height="122.582" style="stroke:#181818;stroke-width:1.0;" width="10" x="624" y="569.6855"/><rect fill="#FFFFFF" height="30" style="stroke:#181818;stroke-width:1.0;" width="10" x="793" y="600.9766"/><rect fill="#FFFFFF" height="30" style="stroke:#181818;stroke-width:1.0;" width="10" x="901" y="246.3574"/><rect fill="#FFFFFF" height="30" style="stroke:#181818;stroke-width:1.0;" width="10" x="901" y="307.6484"/><rect fill="#FFFFFF" height="30" style="stroke:#181818;stroke-width:1.0;" width="10" x="901" y="662.2676"/><polygon fill="#181818" points="443,117.5332,453,121.5332,443,125.5332,447,121.5332" style="stroke:#181818;stroke-width:1.0;"/><line style="stroke:#181818;stroke-width:1.0;" x1="41" x2="449" y1="121.5332" y2="121.5332"/><text fill="#000000" font-family="sans-serif" font-size="13" font-weight="bold" lengthAdjust="spacing" textLength="7" x="48" y="116.2705">1</text><text fill="#000000" font-family="sans-serif" font-size="13" lengthAdjust="spacing" textLength="186" x="59" y="116.2705">requests to open/close a course</text><polygon fill="#181818" points="525.5,148.8242,535.5,152.8242,525.5,156.8242,529.5,152.8242" style="stroke:#181818;stroke-width:1.0;"/><line style="stroke:#181818;stroke-width:1.0;" x1="465" x2="531.5" y1="152.8242" y2="152.8242"/><text fill="#000000" font-family="sans-serif" font-size="13" font-weight="bold" lengthAdjust="spacing" textLength="7" x="472" y="147.5615">2</text><text fill="#000000" font-family="sans-serif" font-size="13" lengthAdjust="spacing" textLength="23" x="483" y="147.5615">new</text><rect fill="#E2E2F0" height="51.2422" rx="2.5" ry="2.5" style="stroke:#181818;stroke-width:0.5;" width="183" x="537.5" y="129.5332"/><text fill="#000000" font-family="sans-serif" font-size="14" font-style="italic" lengthAdjust="spacing" textLength="84" x="587" y="151.6406">&#171;application&#187;</text><text fill="#000000" font-family="sans-serif" font-size="14" lengthAdjust="spacing" textLength="169" x="544.5" y="170.2617">SetCourseStatusController</text><polygon fill="#181818" points="612,211.0664,622,215.0664,612,219.0664,616,215.0664" style="stroke:#181818;stroke-width:1.0;"/><line style="stroke:#181818;stroke-width:1.0;" x1="465" x2="618" y1="215.0664" y2="215.0664"/><text fill="#000000" font-family="sans-serif" font-size="13" font-weight="bold" lengthAdjust="spacing" textLength="7" x="472" y="209.8037">3</text><text fill="#000000" font-family="sans-serif" font-size="13" lengthAdjust="spacing" textLength="73" x="483" y="209.8037">listCourses()</text><polygon fill="#181818" points="889,242.3574,899,246.3574,889,250.3574,893,246.3574" style="stroke:#181818;stroke-width:1.0;"/><line style="stroke:#181818;stroke-width:1.0;" x1="634" x2="895" y1="246.3574" y2="246.3574"/><text fill="#000000" font-family="sans-serif" font-size="13" font-weight="bold" lengthAdjust="spacing" textLength="7" x="641" y="241.0947">4</text><text fill="#000000" font-family="sans-serif" font-size="13" lengthAdjust="spacing" textLength="84" x="652" y="241.0947">openCourses()</text><polygon fill="#181818" points="889,303.6484,899,307.6484,889,311.6484,893,307.6484" style="stroke:#181818;stroke-width:1.0;"/><line style="stroke:#181818;stroke-width:1.0;" x1="634" x2="895" y1="307.6484" y2="307.6484"/><text fill="#000000" font-family="sans-serif" font-size="13" font-weight="bold" lengthAdjust="spacing" textLength="7" x="641" y="302.3857">5</text><text fill="#000000" font-family="sans-serif" font-size="13" lengthAdjust="spacing" textLength="94" x="652" y="302.3857">closedCourses()</text><polygon fill="#181818" points="52,364.9395,42,368.9395,52,372.9395,48,368.9395" style="stroke:#181818;stroke-width:1.0;"/><line style="stroke:#181818;stroke-width:1.0;" x1="46" x2="459" y1="368.9395" y2="368.9395"/><text fill="#000000" font-family="sans-serif" font-size="13" font-weight="bold" lengthAdjust="spacing" textLength="7" x="58" y="363.6768">6</text><text fill="#000000" font-family="sans-serif" font-size="13" lengthAdjust="spacing" textLength="379" x="69" y="363.6768">lists the available courses and their status and asks to select one</text><polygon fill="#181818" points="443,396.2305,453,400.2305,443,404.2305,447,400.2305" style="stroke:#181818;stroke-width:1.0;"/><line style="stroke:#181818;stroke-width:1.0;" x1="41" x2="449" y1="400.2305" y2="400.2305"/><text fill="#000000" font-family="sans-serif" font-size="13" font-weight="bold" lengthAdjust="spacing" textLength="7" x="48" y="394.9678">7</text><text fill="#000000" font-family="sans-serif" font-size="13" lengthAdjust="spacing" textLength="153" x="59" y="394.9678">selects the desired course</text><polygon fill="#181818" points="612,427.5215,622,431.5215,612,435.5215,616,431.5215" style="stroke:#181818;stroke-width:1.0;"/><line style="stroke:#181818;stroke-width:1.0;" x1="465" x2="618" y1="431.5215" y2="431.5215"/><text fill="#000000" font-family="sans-serif" font-size="13" font-weight="bold" lengthAdjust="spacing" textLength="7" x="472" y="426.2588">8</text><text fill="#000000" font-family="sans-serif" font-size="13" lengthAdjust="spacing" textLength="115" x="483" y="426.2588">selectCourse(index)</text><line style="stroke:#181818;stroke-width:1.0;" x1="634" x2="676" y1="462.8125" y2="462.8125"/><line style="stroke:#181818;stroke-width:1.0;" x1="676" x2="676" y1="462.8125" y2="475.8125"/><line style="stroke:#181818;stroke-width:1.0;" x1="635" x2="676" y1="475.8125" y2="475.8125"/><polygon fill="#181818" points="645,471.8125,635,475.8125,645,479.8125,641,475.8125" style="stroke:#181818;stroke-width:1.0;"/><text fill="#000000" font-family="sans-serif" font-size="13" font-weight="bold" lengthAdjust="spacing" textLength="7" x="641" y="457.5498">9</text><text fill="#000000" font-family="sans-serif" font-size="13" lengthAdjust="spacing" textLength="112" x="652" y="457.5498">course = get(index)</text><polygon fill="#181818" points="52,503.1035,42,507.1035,52,511.1035,48,507.1035" style="stroke:#181818;stroke-width:1.0;"/><line style="stroke:#181818;stroke-width:1.0;" x1="46" x2="459" y1="507.1035" y2="507.1035"/><text fill="#000000" font-family="sans-serif" font-size="13" font-weight="bold" lengthAdjust="spacing" textLength="14" x="58" y="501.8408">10</text><text fill="#000000" font-family="sans-serif" font-size="13" lengthAdjust="spacing" textLength="269" x="76" y="501.8408">asks to confirm the toggle of the course status</text><polygon fill="#181818" points="443,534.3945,453,538.3945,443,542.3945,447,538.3945" style="stroke:#181818;stroke-width:1.0;"/><line style="stroke:#181818;stroke-width:1.0;" x1="41" x2="449" y1="538.3945" y2="538.3945"/><text fill="#000000" font-family="sans-serif" font-size="13" font-weight="bold" lengthAdjust="spacing" textLength="14" x="48" y="533.1318">11</text><text fill="#000000" font-family="sans-serif" font-size="13" lengthAdjust="spacing" textLength="106" x="66" y="533.1318">confirms operation</text><polygon fill="#181818" points="612,565.6855,622,569.6855,612,573.6855,616,569.6855" style="stroke:#181818;stroke-width:1.0;"/><line style="stroke:#181818;stroke-width:1.0;" x1="465" x2="618" y1="569.6855" y2="569.6855"/><text fill="#000000" font-family="sans-serif" font-size="13" font-weight="bold" lengthAdjust="spacing" textLength="14" x="472" y="564.4229">12</text><text fill="#000000" font-family="sans-serif" font-size="13" lengthAdjust="spacing" textLength="122" x="490" y="564.4229">toggleCourseStatus()</text><polygon fill="#181818" points="781,596.9766,791,600.9766,781,604.9766,785,600.9766" style="stroke:#181818;stroke-width:1.0;"/><line style="stroke:#181818;stroke-width:1.0;" x1="634" x2="787" y1="600.9766" y2="600.9766"/><text fill="#000000" font-family="sans-serif" font-size="13" font-weight="bold" lengthAdjust="spacing" textLength="14" x="641" y="595.7139">13</text><text fill="#000000" font-family="sans-serif" font-size="13" lengthAdjust="spacing" textLength="122" x="659" y="595.7139">toggleCourseStatus()</text><polygon fill="#181818" points="889,658.2676,899,662.2676,889,666.2676,893,662.2676" style="stroke:#181818;stroke-width:1.0;"/><line style="stroke:#181818;stroke-width:1.0;" x1="634" x2="895" y1="662.2676" y2="662.2676"/><text fill="#000000" font-family="sans-serif" font-size="13" font-weight="bold" lengthAdjust="spacing" textLength="14" x="641" y="657.0049">14</text><text fill="#000000" font-family="sans-serif" font-size="13" lengthAdjust="spacing" textLength="73" x="659" y="657.0049">save(course)</text><polygon fill="#181818" points="52,719.5586,42,723.5586,52,727.5586,48,723.5586" style="stroke:#181818;stroke-width:1.0;"/><line style="stroke:#181818;stroke-width:1.0;" x1="46" x2="454" y1="723.5586" y2="723.5586"/><text fill="#000000" font-family="sans-serif" font-size="13" font-weight="bold" lengthAdjust="spacing" textLength="14" x="58" y="718.2959">15</text><text fill="#000000" font-family="sans-serif" font-size="13" lengthAdjust="spacing" textLength="152" x="76" y="718.2959">informs operation success</text><!--SRC=[ZPFBJiCm44Nt_efHLwKIOX-LRY8MbOX0BVs0gJCD5guTF4w1lyUFj4gViCputl4zumbstffkkoOd14fl7OmgDDYG6m4oL4AqwBoIgaNZORGaNzhECIqz-evNywHQpM4wRHqncL1MrincDssbDTvPhVjBohV5SsY0RQkLlEZFvYmEojfkKKMHgD7Z6faWAnRKMbQ1uYTA5q-lBq7j3iNeY9HgXvuYMmNtiv2-04UV7R5dy1PiI-P1QXkw8iZKT-1QpOK8lC4NOqyc1HZw6fOAq8fxN1xV3QpnL8X46xGnNP4kkwIDfwAcu-zJSmfP_zy-AEGiENML8mVuzu2yGwLnhQb7Pq1JnnFbWDFhfGBoHneMaoRfmHewQX-dT1XkrkJsDR5oLFyrrxqfiusLgUdx-YYp8xU4HsZ8xnq7m7rUQSr6kMtAuctJ14wxIL-zFJEUp-eQND-GuqkwjBmteFADmr_XneAKV-kFOvwk1-EEnXdhR3VEbkFwRYYpiKU0m9sKn2n-0G00]--></g></svg>