<?xml version="1.0" encoding="UTF-8" standalone="no"?><svg xmlns="http://www.w3.org/2000/svg" xmlns:xlink="http://www.w3.org/1999/xlink" contentStyleType="text/css" height="1310px" preserveAspectRatio="none" style="width:1071px;height:1310px;background:#FFFFFF;" version="1.1" viewBox="0 0 1071 1310" width="1071px" zoomAndPan="magnify"><defs/><g><!--class ToggleCourseStatusUI--><g id="elem_ToggleCourseStatusUI"><rect codeLine="2" fill="#F1F1F1" height="53.24" id="ToggleCourseStatusUI" rx="2.5" ry="2.5" style="stroke:#181818;stroke-width:0.5;" width="243" x="466.5" y="7"/><ellipse cx="482.5" cy="25.62" fill="#ADD1B2" rx="12" ry="12" style="stroke:#181818;stroke-width:1.0;"/><path d="M482.625,20.2137 Q481.5469,20.2137 480.6875,20.5887 Q479.8281,20.9481 479.2344,21.6512 Q478.6406,22.3387 478.3125,23.3544 Q478,24.37 478,25.6669 Q478,27.37 478.5156,28.6044 Q479.0313,29.8231 480.0469,30.4794 Q481.0625,31.12 482.6094,31.12 Q483.5156,31.12 484.3281,30.9637 Q485.1406,30.8075 486.3281,30.4481 L486.3281,32.6512 Q485.2969,33.0262 484.4219,33.1669 Q483.5469,33.3231 482.3438,33.3231 Q480.0625,33.3231 478.5313,32.3856 Q477,31.4325 476.2344,29.6981 Q475.4688,27.9481 475.4688,25.6512 Q475.4688,23.9794 475.9375,22.5887 Q476.4063,21.1981 477.3125,20.1669 Q478.2344,19.12 479.5781,18.5731 Q480.9219,18.0106 482.6406,18.0106 Q483.7813,18.0106 484.8281,18.245 Q485.8906,18.4637 486.9844,19.0262 L486.0156,21.0887 Q485.0938,20.6825 484.3125,20.4481 Q483.5313,20.2137 482.625,20.2137 Z " fill="#000000"/><text fill="#000000" font-family="sans-serif" font-size="20" lengthAdjust="spacing" textLength="209" x="497.5" y="33.38">ToggleCourseStatusUI</text><line style="stroke:#181818;stroke-width:0.5;" x1="467.5" x2="708.5" y1="44.24" y2="44.24"/><line style="stroke:#181818;stroke-width:0.5;" x1="467.5" x2="708.5" y1="52.24" y2="52.24"/></g><!--class ToggleCourseStatusController--><g id="elem_ToggleCourseStatusController"><rect codeLine="6" fill="#F1F1F1" height="325.6397" id="ToggleCourseStatusController" rx="2.5" ry="2.5" style="stroke:#181818;stroke-width:0.5;" width="680" x="7" y="120"/><ellipse cx="202.5" cy="138.62" fill="#ADD1B2" rx="12" ry="12" style="stroke:#181818;stroke-width:1.0;"/><path d="M202.625,133.2137 Q201.5469,133.2137 200.6875,133.5887 Q199.8281,133.9481 199.2344,134.6512 Q198.6406,135.3387 198.3125,136.3544 Q198,137.37 198,138.6669 Q198,140.37 198.5156,141.6044 Q199.0313,142.8231 200.0469,143.4794 Q201.0625,144.12 202.6094,144.12 Q203.5156,144.12 204.3281,143.9637 Q205.1406,143.8075 206.3281,143.4481 L206.3281,145.6512 Q205.2969,146.0262 204.4219,146.1669 Q203.5469,146.3231 202.3438,146.3231 Q200.0625,146.3231 198.5313,145.3856 Q197,144.4325 196.2344,142.6981 Q195.4688,140.9481 195.4688,138.6512 Q195.4688,136.9794 195.9375,135.5887 Q196.4063,134.1981 197.3125,133.1669 Q198.2344,132.12 199.5781,131.5731 Q200.9219,131.0106 202.6406,131.0106 Q203.7813,131.0106 204.8281,131.245 Q205.8906,131.4637 206.9844,132.0262 L206.0156,134.0887 Q205.0938,133.6825 204.3125,133.4481 Q203.5313,133.2137 202.625,133.2137 Z " fill="#000000"/><text fill="#000000" font-family="sans-serif" font-size="20" lengthAdjust="spacing" textLength="280" x="224.5" y="146.38">ToggleCourseStatusController</text><line style="stroke:#181818;stroke-width:0.5;" x1="8" x2="686" y1="157.24" y2="157.24"/><rect fill="none" height="6" style="stroke:#C82930;stroke-width:1.0;" width="6" x="15" y="173.36"/><text fill="#000000" font-family="sans-serif" font-size="20" lengthAdjust="spacing" textLength="161" x="28" y="182.62">courseListService</text><rect fill="none" height="6" style="stroke:#C82930;stroke-width:1.0;" width="6" x="15" y="200.5999"/><text fill="#000000" font-family="sans-serif" font-size="20" lengthAdjust="spacing" textLength="162" x="28" y="209.8599">courseRepository</text><rect fill="none" height="6" style="stroke:#C82930;stroke-width:1.0;" width="6" x="15" y="227.8399"/><text fill="#000000" font-family="sans-serif" font-size="20" lengthAdjust="spacing" textLength="189" x="28" y="237.0999">authorizationService</text><line style="stroke:#181818;stroke-width:0.5;" x1="8" x2="686" y1="246.9599" y2="246.9599"/><ellipse cx="18" cy="266.0799" fill="#84BE84" rx="3" ry="3" style="stroke:#038048;stroke-width:1.0;"/><text fill="#000000" font-family="sans-serif" font-size="20" lengthAdjust="spacing" textLength="653" x="28" y="272.3399">ToggleCourseStatusController(authorizationService, courseRepository)</text><text fill="#000000" font-family="sans-serif" font-size="20" lengthAdjust="spacing" textLength="5" x="28" y="299.5799"> </text><ellipse cx="18" cy="320.5598" fill="#84BE84" rx="3" ry="3" style="stroke:#038048;stroke-width:1.0;"/><text fill="#000000" font-family="sans-serif" font-size="20" lengthAdjust="spacing" textLength="166" x="28" y="326.8198">listOpenCourses()</text><ellipse cx="18" cy="347.7998" fill="#84BE84" rx="3" ry="3" style="stroke:#038048;stroke-width:1.0;"/><text fill="#000000" font-family="sans-serif" font-size="20" lengthAdjust="spacing" textLength="178" x="28" y="354.0598">listClosedCourses()</text><ellipse cx="18" cy="375.0398" fill="#84BE84" rx="3" ry="3" style="stroke:#038048;stroke-width:1.0;"/><text fill="#000000" font-family="sans-serif" font-size="20" lengthAdjust="spacing" textLength="217" x="28" y="381.2998">listInProgressCourses()</text><ellipse cx="18" cy="402.2798" fill="#84BE84" rx="3" ry="3" style="stroke:#038048;stroke-width:1.0;"/><text fill="#000000" font-family="sans-serif" font-size="20" lengthAdjust="spacing" textLength="240" x="28" y="408.5398">toggleToPreviousCourse()</text><ellipse cx="18" cy="429.5197" fill="#84BE84" rx="3" ry="3" style="stroke:#038048;stroke-width:1.0;"/><text fill="#000000" font-family="sans-serif" font-size="20" lengthAdjust="spacing" textLength="204" x="28" y="435.7797">toggleToNextCourse()</text></g><!--class Course--><g id="elem_Course"><rect codeLine="20" fill="#F1F1F1" height="325.6397" id="Course" rx="2.5" ry="2.5" style="stroke:#181818;stroke-width:0.5;" width="234" x="132" y="755"/><ellipse cx="211.5" cy="773.62" fill="#ADD1B2" rx="12" ry="12" style="stroke:#181818;stroke-width:1.0;"/><path d="M211.625,768.2137 Q210.5469,768.2137 209.6875,768.5887 Q208.8281,768.9481 208.2344,769.6512 Q207.6406,770.3387 207.3125,771.3544 Q207,772.37 207,773.6669 Q207,775.37 207.5156,776.6044 Q208.0313,777.8231 209.0469,778.4794 Q210.0625,779.12 211.6094,779.12 Q212.5156,779.12 213.3281,778.9637 Q214.1406,778.8075 215.3281,778.4481 L215.3281,780.6512 Q214.2969,781.0262 213.4219,781.1669 Q212.5469,781.3231 211.3438,781.3231 Q209.0625,781.3231 207.5313,780.3856 Q206,779.4325 205.2344,777.6981 Q204.4688,775.9481 204.4688,773.6512 Q204.4688,771.9794 204.9375,770.5887 Q205.4063,769.1981 206.3125,768.1669 Q207.2344,767.12 208.5781,766.5731 Q209.9219,766.0106 211.6406,766.0106 Q212.7813,766.0106 213.8281,766.245 Q214.8906,766.4637 215.9844,767.0262 L215.0156,769.0887 Q214.0938,768.6825 213.3125,768.4481 Q212.5313,768.2137 211.625,768.2137 Z " fill="#000000"/><text fill="#000000" font-family="sans-serif" font-size="20" lengthAdjust="spacing" textLength="66" x="233.5" y="781.38">Course</text><line style="stroke:#181818;stroke-width:0.5;" x1="133" x2="365" y1="792.24" y2="792.24"/><rect fill="none" height="6" style="stroke:#C82930;stroke-width:1.0;" width="6" x="140" y="808.36"/><text fill="#000000" font-family="sans-serif" font-size="20" lengthAdjust="spacing" textLength="45" x="153" y="817.62">code</text><rect fill="none" height="6" style="stroke:#C82930;stroke-width:1.0;" width="6" x="140" y="835.5999"/><text fill="#000000" font-family="sans-serif" font-size="20" lengthAdjust="spacing" textLength="35" x="153" y="844.8599">title</text><rect fill="none" height="6" style="stroke:#C82930;stroke-width:1.0;" width="6" x="140" y="862.8399"/><text fill="#000000" font-family="sans-serif" font-size="20" lengthAdjust="spacing" textLength="104" x="153" y="872.0999">description</text><rect fill="none" height="6" style="stroke:#C82930;stroke-width:1.0;" width="6" x="140" y="890.0799"/><text fill="#000000" font-family="sans-serif" font-size="20" lengthAdjust="spacing" textLength="153" x="153" y="899.3399">enrolmentLimits</text><rect fill="none" height="6" style="stroke:#C82930;stroke-width:1.0;" width="6" x="140" y="917.3199"/><text fill="#000000" font-family="sans-serif" font-size="20" lengthAdjust="spacing" textLength="110" x="153" y="926.5799">courseState</text><rect fill="none" height="6" style="stroke:#C82930;stroke-width:1.0;" width="6" x="140" y="944.5598"/><text fill="#000000" font-family="sans-serif" font-size="20" lengthAdjust="spacing" textLength="207" x="153" y="953.8198">courseEnrolmentState</text><rect fill="none" height="6" style="stroke:#C82930;stroke-width:1.0;" width="6" x="140" y="971.7998"/><text fill="#000000" font-family="sans-serif" font-size="20" lengthAdjust="spacing" textLength="90" x="153" y="981.0598">createdAt</text><line style="stroke:#181818;stroke-width:0.5;" x1="133" x2="365" y1="990.9198" y2="990.9198"/><ellipse cx="143" cy="1010.0398" fill="#84BE84" rx="3" ry="3" style="stroke:#038048;stroke-width:1.0;"/><text fill="#000000" font-family="sans-serif" font-size="20" lengthAdjust="spacing" textLength="65" x="153" y="1016.2998">toDto()</text><ellipse cx="143" cy="1037.2798" fill="#84BE84" rx="3" ry="3" style="stroke:#038048;stroke-width:1.0;"/><text fill="#000000" font-family="sans-serif" font-size="20" lengthAdjust="spacing" textLength="139" x="153" y="1043.5398">previousState()</text><ellipse cx="143" cy="1064.5197" fill="#84BE84" rx="3" ry="3" style="stroke:#038048;stroke-width:1.0;"/><text fill="#000000" font-family="sans-serif" font-size="20" lengthAdjust="spacing" textLength="100" x="153" y="1070.7797">nextState()</text></g><!--class RepositoryFactory--><g id="elem_RepositoryFactory"><rect codeLine="33" fill="#F1F1F1" height="80.4799" id="RepositoryFactory" rx="2.5" ry="2.5" style="stroke:#181818;stroke-width:0.5;" width="206" x="726" y="560.5"/><ellipse cx="744.25" cy="579.12" fill="#ADD1B2" rx="12" ry="12" style="stroke:#181818;stroke-width:1.0;"/><path d="M744.375,573.7137 Q743.2969,573.7137 742.4375,574.0887 Q741.5781,574.4481 740.9844,575.1512 Q740.3906,575.8387 740.0625,576.8544 Q739.75,577.87 739.75,579.1669 Q739.75,580.87 740.2656,582.1044 Q740.7813,583.3231 741.7969,583.9794 Q742.8125,584.62 744.3594,584.62 Q745.2656,584.62 746.0781,584.4637 Q746.8906,584.3075 748.0781,583.9481 L748.0781,586.1512 Q747.0469,586.5262 746.1719,586.6669 Q745.2969,586.8231 744.0938,586.8231 Q741.8125,586.8231 740.2813,585.8856 Q738.75,584.9325 737.9844,583.1981 Q737.2188,581.4481 737.2188,579.1512 Q737.2188,577.4794 737.6875,576.0887 Q738.1563,574.6981 739.0625,573.6669 Q739.9844,572.62 741.3281,572.0731 Q742.6719,571.5106 744.3906,571.5106 Q745.5313,571.5106 746.5781,571.745 Q747.6406,571.9637 748.7344,572.5262 L747.7656,574.5887 Q746.8438,574.1825 746.0625,573.9481 Q745.2813,573.7137 744.375,573.7137 Z " fill="#000000"/><text fill="#000000" font-family="sans-serif" font-size="20" lengthAdjust="spacing" textLength="167" x="759.75" y="586.88">RepositoryFactory</text><line style="stroke:#181818;stroke-width:0.5;" x1="727" x2="931" y1="597.74" y2="597.74"/><line style="stroke:#181818;stroke-width:0.5;" x1="727" x2="931" y1="605.74" y2="605.74"/><ellipse cx="737" cy="624.86" fill="#84BE84" rx="3" ry="3" style="stroke:#038048;stroke-width:1.0;"/><text fill="#000000" font-family="sans-serif" font-size="20" lengthAdjust="spacing" textLength="179" x="747" y="631.12">RepositoryFactory()</text></g><!--class CourseRepository--><g id="elem_CourseRepository"><rect codeLine="37" fill="#F1F1F1" height="162.1999" id="CourseRepository" rx="2.5" ry="2.5" style="stroke:#181818;stroke-width:0.5;" width="200" x="702" y="837"/><ellipse cx="722.95" cy="855.62" fill="#B4A7E5" rx="12" ry="12" style="stroke:#181818;stroke-width:1.0;"/><path d="M725.5281,863.12 L719.7469,863.12 L719.7469,861.5106 L721.4344,861.1356 L721.4344,850.2137 L719.7469,849.8231 L719.7469,848.2137 L725.5281,848.2137 L725.5281,849.8231 L723.8563,850.2137 L723.8563,861.1356 L725.5281,861.5106 L725.5281,863.12 Z " fill="#000000"/><text fill="#000000" font-family="sans-serif" font-size="20" font-style="italic" lengthAdjust="spacing" textLength="155" x="739.05" y="863.38">CourseRepository</text><line style="stroke:#181818;stroke-width:0.5;" x1="703" x2="901" y1="874.24" y2="874.24"/><line style="stroke:#181818;stroke-width:0.5;" x1="703" x2="901" y1="882.24" y2="882.24"/><ellipse cx="713" cy="901.36" fill="#84BE84" rx="3" ry="3" style="stroke:#038048;stroke-width:1.0;"/><text fill="#000000" font-family="sans-serif" font-size="20" lengthAdjust="spacing" textLength="117" x="723" y="907.62">save(course)</text><ellipse cx="713" cy="928.5999" fill="#84BE84" rx="3" ry="3" style="stroke:#038048;stroke-width:1.0;"/><text fill="#000000" font-family="sans-serif" font-size="20" lengthAdjust="spacing" textLength="122" x="723" y="934.8599">findAllOpen()</text><ellipse cx="713" cy="955.8399" fill="#84BE84" rx="3" ry="3" style="stroke:#038048;stroke-width:1.0;"/><text fill="#000000" font-family="sans-serif" font-size="20" lengthAdjust="spacing" textLength="134" x="723" y="962.0999">findAllClosed()</text><ellipse cx="713" cy="983.0799" fill="#84BE84" rx="3" ry="3" style="stroke:#038048;stroke-width:1.0;"/><text fill="#000000" font-family="sans-serif" font-size="20" lengthAdjust="spacing" textLength="173" x="723" y="989.3399">findAllInProgress()</text></g><!--class CourseListService--><g id="elem_CourseListService"><rect codeLine="44" fill="#F1F1F1" height="189.4398" id="CourseListService" rx="2.5" ry="2.5" style="stroke:#181818;stroke-width:0.5;" width="333" x="357.5" y="506"/><ellipse cx="437.5" cy="524.62" fill="#ADD1B2" rx="12" ry="12" style="stroke:#181818;stroke-width:1.0;"/><path d="M437.625,519.2137 Q436.5469,519.2137 435.6875,519.5887 Q434.8281,519.9481 434.2344,520.6512 Q433.6406,521.3387 433.3125,522.3544 Q433,523.37 433,524.6669 Q433,526.37 433.5156,527.6044 Q434.0313,528.8231 435.0469,529.4794 Q436.0625,530.12 437.6094,530.12 Q438.5156,530.12 439.3281,529.9637 Q440.1406,529.8075 441.3281,529.4481 L441.3281,531.6512 Q440.2969,532.0262 439.4219,532.1669 Q438.5469,532.3231 437.3438,532.3231 Q435.0625,532.3231 433.5313,531.3856 Q432,530.4325 431.2344,528.6981 Q430.4688,526.9481 430.4688,524.6512 Q430.4688,522.9794 430.9375,521.5887 Q431.4063,520.1981 432.3125,519.1669 Q433.2344,518.12 434.5781,517.5731 Q435.9219,517.0106 437.6406,517.0106 Q438.7813,517.0106 439.8281,517.245 Q440.8906,517.4637 441.9844,518.0262 L441.0156,520.0887 Q440.0938,519.6825 439.3125,519.4481 Q438.5313,519.2137 437.625,519.2137 Z " fill="#000000"/><text fill="#000000" font-family="sans-serif" font-size="20" lengthAdjust="spacing" textLength="164" x="459.5" y="532.38">CourseListService</text><line style="stroke:#181818;stroke-width:0.5;" x1="358.5" x2="689.5" y1="543.24" y2="543.24"/><rect fill="none" height="6" style="stroke:#C82930;stroke-width:1.0;" width="6" x="365.5" y="559.36"/><text fill="#000000" font-family="sans-serif" font-size="20" lengthAdjust="spacing" textLength="162" x="378.5" y="568.62">courseRepository</text><line style="stroke:#181818;stroke-width:0.5;" x1="358.5" x2="689.5" y1="578.4799" y2="578.4799"/><ellipse cx="368.5" cy="597.5999" fill="#84BE84" rx="3" ry="3" style="stroke:#038048;stroke-width:1.0;"/><text fill="#000000" font-family="sans-serif" font-size="20" lengthAdjust="spacing" textLength="306" x="378.5" y="603.8599">CourseService(courseRepository)</text><ellipse cx="368.5" cy="624.8399" fill="#84BE84" rx="3" ry="3" style="stroke:#038048;stroke-width:1.0;"/><text fill="#000000" font-family="sans-serif" font-size="20" lengthAdjust="spacing" textLength="178" x="378.5" y="631.0999">listClosedCourses()</text><ellipse cx="368.5" cy="652.0799" fill="#84BE84" rx="3" ry="3" style="stroke:#038048;stroke-width:1.0;"/><text fill="#000000" font-family="sans-serif" font-size="20" lengthAdjust="spacing" textLength="166" x="378.5" y="658.3399">listOpenCourses()</text><ellipse cx="368.5" cy="679.3199" fill="#84BE84" rx="3" ry="3" style="stroke:#038048;stroke-width:1.0;"/><text fill="#000000" font-family="sans-serif" font-size="20" lengthAdjust="spacing" textLength="217" x="378.5" y="685.5799">listInProgressCourses()</text></g><!--class CourseDTO--><g id="elem_CourseDTO"><rect codeLine="53" fill="#F1F1F1" height="243.9198" id="CourseDTO" rx="2.5" ry="2.5" style="stroke:#181818;stroke-width:0.5;" width="234" x="407" y="796"/><ellipse cx="465.5" cy="814.62" fill="#ADD1B2" rx="12" ry="12" style="stroke:#181818;stroke-width:1.0;"/><path d="M465.625,809.2137 Q464.5469,809.2137 463.6875,809.5887 Q462.8281,809.9481 462.2344,810.6512 Q461.6406,811.3387 461.3125,812.3544 Q461,813.37 461,814.6669 Q461,816.37 461.5156,817.6044 Q462.0313,818.8231 463.0469,819.4794 Q464.0625,820.12 465.6094,820.12 Q466.5156,820.12 467.3281,819.9637 Q468.1406,819.8075 469.3281,819.4481 L469.3281,821.6512 Q468.2969,822.0262 467.4219,822.1669 Q466.5469,822.3231 465.3438,822.3231 Q463.0625,822.3231 461.5313,821.3856 Q460,820.4325 459.2344,818.6981 Q458.4688,816.9481 458.4688,814.6512 Q458.4688,812.9794 458.9375,811.5887 Q459.4063,810.1981 460.3125,809.1669 Q461.2344,808.12 462.5781,807.5731 Q463.9219,807.0106 465.6406,807.0106 Q466.7813,807.0106 467.8281,807.245 Q468.8906,807.4637 469.9844,808.0262 L469.0156,810.0887 Q468.0938,809.6825 467.3125,809.4481 Q466.5313,809.2137 465.625,809.2137 Z " fill="#000000"/><text fill="#000000" font-family="sans-serif" font-size="20" lengthAdjust="spacing" textLength="108" x="487.5" y="822.38">CourseDTO</text><line style="stroke:#181818;stroke-width:0.5;" x1="408" x2="640" y1="833.24" y2="833.24"/><rect fill="none" height="6" style="stroke:#C82930;stroke-width:1.0;" width="6" x="415" y="849.36"/><text fill="#000000" font-family="sans-serif" font-size="20" lengthAdjust="spacing" textLength="45" x="428" y="858.62">code</text><rect fill="none" height="6" style="stroke:#C82930;stroke-width:1.0;" width="6" x="415" y="876.5999"/><text fill="#000000" font-family="sans-serif" font-size="20" lengthAdjust="spacing" textLength="35" x="428" y="885.8599">title</text><rect fill="none" height="6" style="stroke:#C82930;stroke-width:1.0;" width="6" x="415" y="903.8399"/><text fill="#000000" font-family="sans-serif" font-size="20" lengthAdjust="spacing" textLength="104" x="428" y="913.0999">description</text><rect fill="none" height="6" style="stroke:#C82930;stroke-width:1.0;" width="6" x="415" y="931.0799"/><text fill="#000000" font-family="sans-serif" font-size="20" lengthAdjust="spacing" textLength="153" x="428" y="940.3399">enrolmentLimits</text><rect fill="none" height="6" style="stroke:#C82930;stroke-width:1.0;" width="6" x="415" y="958.3199"/><text fill="#000000" font-family="sans-serif" font-size="20" lengthAdjust="spacing" textLength="110" x="428" y="967.5799">courseState</text><rect fill="none" height="6" style="stroke:#C82930;stroke-width:1.0;" width="6" x="415" y="985.5598"/><text fill="#000000" font-family="sans-serif" font-size="20" lengthAdjust="spacing" textLength="207" x="428" y="994.8198">courseEnrolmentState</text><rect fill="none" height="6" style="stroke:#C82930;stroke-width:1.0;" width="6" x="415" y="1012.7998"/><text fill="#000000" font-family="sans-serif" font-size="20" lengthAdjust="spacing" textLength="90" x="428" y="1022.0598">createdAt</text><line style="stroke:#181818;stroke-width:0.5;" x1="408" x2="640" y1="1031.9198" y2="1031.9198"/></g><!--class InMemoryCourseRepository--><g id="elem_InMemoryCourseRepository"><rect codeLine="63" fill="#F1F1F1" height="162.1999" id="InMemoryCourseRepository" rx="2.5" ry="2.5" style="stroke:#181818;stroke-width:0.5;" width="296" x="506" y="1141"/><ellipse cx="522" cy="1159.62" fill="#ADD1B2" rx="12" ry="12" style="stroke:#181818;stroke-width:1.0;"/><path d="M522.125,1154.2137 Q521.0469,1154.2137 520.1875,1154.5887 Q519.3281,1154.9481 518.7344,1155.6512 Q518.1406,1156.3387 517.8125,1157.3544 Q517.5,1158.37 517.5,1159.6669 Q517.5,1161.37 518.0156,1162.6044 Q518.5313,1163.8231 519.5469,1164.4794 Q520.5625,1165.12 522.1094,1165.12 Q523.0156,1165.12 523.8281,1164.9637 Q524.6406,1164.8075 525.8281,1164.4481 L525.8281,1166.6512 Q524.7969,1167.0262 523.9219,1167.1669 Q523.0469,1167.3231 521.8438,1167.3231 Q519.5625,1167.3231 518.0313,1166.3856 Q516.5,1165.4325 515.7344,1163.6981 Q514.9688,1161.9481 514.9688,1159.6512 Q514.9688,1157.9794 515.4375,1156.5887 Q515.9063,1155.1981 516.8125,1154.1669 Q517.7344,1153.12 519.0781,1152.5731 Q520.4219,1152.0106 522.1406,1152.0106 Q523.2813,1152.0106 524.3281,1152.245 Q525.3906,1152.4637 526.4844,1153.0262 L525.5156,1155.0887 Q524.5938,1154.6825 523.8125,1154.4481 Q523.0313,1154.2137 522.125,1154.2137 Z " fill="#000000"/><text fill="#000000" font-family="sans-serif" font-size="20" lengthAdjust="spacing" textLength="262" x="537" y="1167.38">InMemoryCourseRepository</text><line style="stroke:#181818;stroke-width:0.5;" x1="507" x2="801" y1="1178.24" y2="1178.24"/><line style="stroke:#181818;stroke-width:0.5;" x1="507" x2="801" y1="1186.24" y2="1186.24"/><ellipse cx="517" cy="1205.36" fill="#84BE84" rx="3" ry="3" style="stroke:#038048;stroke-width:1.0;"/><text fill="#000000" font-family="sans-serif" font-size="20" lengthAdjust="spacing" textLength="117" x="527" y="1211.62">save(course)</text><ellipse cx="517" cy="1232.5999" fill="#84BE84" rx="3" ry="3" style="stroke:#038048;stroke-width:1.0;"/><text fill="#000000" font-family="sans-serif" font-size="20" lengthAdjust="spacing" textLength="122" x="527" y="1238.8599">findAllOpen()</text><ellipse cx="517" cy="1259.8399" fill="#84BE84" rx="3" ry="3" style="stroke:#038048;stroke-width:1.0;"/><text fill="#000000" font-family="sans-serif" font-size="20" lengthAdjust="spacing" textLength="134" x="527" y="1266.0999">findAllClosed()</text><ellipse cx="517" cy="1287.0799" fill="#84BE84" rx="3" ry="3" style="stroke:#038048;stroke-width:1.0;"/><text fill="#000000" font-family="sans-serif" font-size="20" lengthAdjust="spacing" textLength="173" x="527" y="1293.3399">findAllInProgress()</text></g><!--class JpaCourseRepository--><g id="elem_JpaCourseRepository"><rect codeLine="70" fill="#F1F1F1" height="162.1999" id="JpaCourseRepository" rx="2.5" ry="2.5" style="stroke:#181818;stroke-width:0.5;" width="227" x="837.5" y="1141"/><ellipse cx="853.5" cy="1159.62" fill="#ADD1B2" rx="12" ry="12" style="stroke:#181818;stroke-width:1.0;"/><path d="M853.625,1154.2137 Q852.5469,1154.2137 851.6875,1154.5887 Q850.8281,1154.9481 850.2344,1155.6512 Q849.6406,1156.3387 849.3125,1157.3544 Q849,1158.37 849,1159.6669 Q849,1161.37 849.5156,1162.6044 Q850.0313,1163.8231 851.0469,1164.4794 Q852.0625,1165.12 853.6094,1165.12 Q854.5156,1165.12 855.3281,1164.9637 Q856.1406,1164.8075 857.3281,1164.4481 L857.3281,1166.6512 Q856.2969,1167.0262 855.4219,1167.1669 Q854.5469,1167.3231 853.3438,1167.3231 Q851.0625,1167.3231 849.5313,1166.3856 Q848,1165.4325 847.2344,1163.6981 Q846.4688,1161.9481 846.4688,1159.6512 Q846.4688,1157.9794 846.9375,1156.5887 Q847.4063,1155.1981 848.3125,1154.1669 Q849.2344,1153.12 850.5781,1152.5731 Q851.9219,1152.0106 853.6406,1152.0106 Q854.7813,1152.0106 855.8281,1152.245 Q856.8906,1152.4637 857.9844,1153.0262 L857.0156,1155.0887 Q856.0938,1154.6825 855.3125,1154.4481 Q854.5313,1154.2137 853.625,1154.2137 Z " fill="#000000"/><text fill="#000000" font-family="sans-serif" font-size="20" lengthAdjust="spacing" textLength="193" x="868.5" y="1167.38">JpaCourseRepository</text><line style="stroke:#181818;stroke-width:0.5;" x1="838.5" x2="1063.5" y1="1178.24" y2="1178.24"/><line style="stroke:#181818;stroke-width:0.5;" x1="838.5" x2="1063.5" y1="1186.24" y2="1186.24"/><ellipse cx="848.5" cy="1205.36" fill="#84BE84" rx="3" ry="3" style="stroke:#038048;stroke-width:1.0;"/><text fill="#000000" font-family="sans-serif" font-size="20" lengthAdjust="spacing" textLength="117" x="858.5" y="1211.62">save(course)</text><ellipse cx="848.5" cy="1232.5999" fill="#84BE84" rx="3" ry="3" style="stroke:#038048;stroke-width:1.0;"/><text fill="#000000" font-family="sans-serif" font-size="20" lengthAdjust="spacing" textLength="122" x="858.5" y="1238.8599">findAllOpen()</text><ellipse cx="848.5" cy="1259.8399" fill="#84BE84" rx="3" ry="3" style="stroke:#038048;stroke-width:1.0;"/><text fill="#000000" font-family="sans-serif" font-size="20" lengthAdjust="spacing" textLength="134" x="858.5" y="1266.0999">findAllClosed()</text><ellipse cx="848.5" cy="1287.0799" fill="#84BE84" rx="3" ry="3" style="stroke:#038048;stroke-width:1.0;"/><text fill="#000000" font-family="sans-serif" font-size="20" lengthAdjust="spacing" textLength="173" x="858.5" y="1293.3399">findAllInProgress()</text></g><!--class PersistenceContext--><g id="elem_PersistenceContext"><rect codeLine="77" fill="#F1F1F1" height="80.4799" id="PersistenceContext" rx="2.5" ry="2.5" style="stroke:#181818;stroke-width:0.5;" width="214" x="722" y="243"/><ellipse cx="738" cy="261.62" fill="#ADD1B2" rx="12" ry="12" style="stroke:#181818;stroke-width:1.0;"/><path d="M738.125,256.2137 Q737.0469,256.2137 736.1875,256.5887 Q735.3281,256.9481 734.7344,257.6512 Q734.1406,258.3387 733.8125,259.3544 Q733.5,260.37 733.5,261.6669 Q733.5,263.37 734.0156,264.6044 Q734.5313,265.8231 735.5469,266.4794 Q736.5625,267.12 738.1094,267.12 Q739.0156,267.12 739.8281,266.9637 Q740.6406,266.8075 741.8281,266.4481 L741.8281,268.6512 Q740.7969,269.0262 739.9219,269.1669 Q739.0469,269.3231 737.8438,269.3231 Q735.5625,269.3231 734.0313,268.3856 Q732.5,267.4325 731.7344,265.6981 Q730.9688,263.9481 730.9688,261.6512 Q730.9688,259.9794 731.4375,258.5887 Q731.9063,257.1981 732.8125,256.1669 Q733.7344,255.12 735.0781,254.5731 Q736.4219,254.0106 738.1406,254.0106 Q739.2813,254.0106 740.3281,254.245 Q741.3906,254.4637 742.4844,255.0262 L741.5156,257.0887 Q740.5938,256.6825 739.8125,256.4481 Q739.0313,256.2137 738.125,256.2137 Z " fill="#000000"/><text fill="#000000" font-family="sans-serif" font-size="20" lengthAdjust="spacing" textLength="180" x="753" y="269.38">PersistenceContext</text><line style="stroke:#181818;stroke-width:0.5;" x1="723" x2="935" y1="280.24" y2="280.24"/><line style="stroke:#181818;stroke-width:0.5;" x1="723" x2="935" y1="288.24" y2="288.24"/><rect fill="#F24D5C" height="6" style="stroke:#C82930;stroke-width:1.0;" width="6" x="730" y="304.36"/><text fill="#000000" font-family="sans-serif" font-size="20" lengthAdjust="spacing" textLength="123" x="743" y="313.62">repositories()</text></g><!--class CourseState--><g id="elem_CourseState"><rect codeLine="82" fill="#F1F1F1" height="162.1999" id="CourseState" rx="2.5" ry="2.5" style="stroke:#181818;stroke-width:0.5;" width="147" x="175.5" y="519.5"/><ellipse cx="191.5" cy="538.12" fill="#EB937F" rx="12" ry="12" style="stroke:#181818;stroke-width:1.0;"/><path d="M195.5469,545.62 L186.9375,545.62 L186.9375,530.7137 L195.5469,530.7137 L195.5469,532.9169 L189.3594,532.9169 L189.3594,536.7606 L195.1875,536.7606 L195.1875,538.9325 L189.3594,538.9325 L189.3594,543.4169 L195.5469,543.4169 L195.5469,545.62 Z " fill="#000000"/><text fill="#000000" font-family="sans-serif" font-size="20" lengthAdjust="spacing" textLength="113" x="206.5" y="545.88">CourseState</text><line style="stroke:#181818;stroke-width:0.5;" x1="176.5" x2="321.5" y1="556.74" y2="556.74"/><text fill="#000000" font-family="sans-serif" font-size="20" lengthAdjust="spacing" textLength="76" x="181.5" y="582.12">CLOSED</text><text fill="#000000" font-family="sans-serif" font-size="20" lengthAdjust="spacing" textLength="54" x="181.5" y="609.3599">OPEN</text><text fill="#000000" font-family="sans-serif" font-size="20" lengthAdjust="spacing" textLength="131" x="181.5" y="636.5999">IN_PROGRESS</text><text fill="#000000" font-family="sans-serif" font-size="20" lengthAdjust="spacing" textLength="91" x="181.5" y="663.8399">FINISHED</text><line style="stroke:#181818;stroke-width:0.5;" x1="176.5" x2="321.5" y1="673.6999" y2="673.6999"/></g><!--link CourseState to Course--><g id="link_CourseState_Course"><path codeLine="89" d="M249,681.93 C249,702.37 249,725.12 249,748.18 " fill="none" id="CourseState-to-Course" style="stroke:#181818;stroke-width:1.0;"/><polygon fill="#181818" points="249,753.18,253,744.18,249,748.18,245,744.18,249,753.18" style="stroke:#181818;stroke-width:1.0;"/></g><!--link PersistenceContext to RepositoryFactory--><g id="link_PersistenceContext_RepositoryFactory"><path codeLine="91" d="M829,323.32 C829,381.93 829,491.94 829,553.96 " fill="none" id="PersistenceContext-to-RepositoryFactory" style="stroke:#181818;stroke-width:1.0;stroke-dasharray:7.0,7.0;"/><polygon fill="#181818" points="829,558.67,833,549.67,829,553.67,825,549.67,829,558.67" style="stroke:#181818;stroke-width:1.0;"/></g><!--link RepositoryFactory to CourseRepository--><g id="link_RepositoryFactory_CourseRepository"><path codeLine="92" d="M825.64,640.82 C821.6,688.01 814.71,768.53 809.4,830.48 " fill="none" id="RepositoryFactory-to-CourseRepository" style="stroke:#181818;stroke-width:1.0;"/><polygon fill="#181818" points="808.99,835.29,813.7482,826.6668,809.4194,830.3085,805.7778,825.9797,808.99,835.29" style="stroke:#181818;stroke-width:1.0;"/></g><!--reverse link CourseRepository to InMemoryCourseRepository--><g id="link_CourseRepository_InMemoryCourseRepository"><path codeLine="94" d="M753.27,1018.43 C733.82,1058.11 711.73,1103.2 693.33,1140.75 " fill="none" id="CourseRepository-backto-InMemoryCourseRepository" style="stroke:#181818;stroke-width:1.0;stroke-dasharray:7.0,7.0;"/><polygon fill="none" points="746.97,1015.38,762.06,1000.5,759.55,1021.54,746.97,1015.38" style="stroke:#181818;stroke-width:1.0;"/></g><!--reverse link CourseRepository to JpaCourseRepository--><g id="link_CourseRepository_JpaCourseRepository"><path codeLine="95" d="M851.06,1018.43 C870.64,1058.11 892.88,1103.2 911.41,1140.75 " fill="none" id="CourseRepository-backto-JpaCourseRepository" style="stroke:#181818;stroke-width:1.0;stroke-dasharray:7.0,7.0;"/><polygon fill="none" points="844.78,1021.53,842.21,1000.49,857.33,1015.33,844.78,1021.53" style="stroke:#181818;stroke-width:1.0;"/></g><!--link ToggleCourseStatusUI to PersistenceContext--><g id="link_ToggleCourseStatusUI_PersistenceContext"><path codeLine="96" d="M628.83,60.46 C652.11,76.23 681.11,97.61 704,120 C740.76,155.96 775.91,203.05 799.53,237.18 " fill="none" id="ToggleCourseStatusUI-to-PersistenceContext" style="stroke:#181818;stroke-width:1.0;stroke-dasharray:7.0,7.0;"/><polygon fill="#181818" points="802.36,241.3,800.5731,231.6146,799.534,237.1752,793.9734,236.1362,802.36,241.3" style="stroke:#181818;stroke-width:1.0;"/></g><!--link ToggleCourseStatusController to Course--><g id="link_ToggleCourseStatusController_Course"><path codeLine="97" d="M188.24,446.24 C176.08,465.29 165.6,485.34 158,506 C129.4,583.71 143.94,673.13 169.04,748.69 " fill="none" id="ToggleCourseStatusController-to-Course" style="stroke:#181818;stroke-width:1.0;stroke-dasharray:7.0,7.0;"/><polygon fill="#181818" points="170.54,753.13,171.4533,743.3236,168.9417,748.3923,163.873,745.8808,170.54,753.13" style="stroke:#181818;stroke-width:1.0;"/></g><!--link ToggleCourseStatusUI to ToggleCourseStatusController--><g id="link_ToggleCourseStatusUI_ToggleCourseStatusController"><path codeLine="98" d="M563.12,60.05 C549.08,74.47 530.22,93.84 509.45,115.16 " fill="none" id="ToggleCourseStatusUI-to-ToggleCourseStatusController" style="stroke:#181818;stroke-width:1.0;stroke-dasharray:7.0,7.0;"/><polygon fill="#181818" points="506.05,118.66,515.1988,115.0131,509.5423,115.0818,509.4736,109.4254,506.05,118.66" style="stroke:#181818;stroke-width:1.0;"/></g><!--link CourseListService to Course--><g id="link_CourseListService_Course"><path codeLine="100" d="M441.41,695.14 C424.07,714.89 405.91,735.61 389,755 C382.83,762.08 376.51,769.33 370.14,776.67 " fill="none" id="CourseListService-to-Course" style="stroke:#181818;stroke-width:1.0;stroke-dasharray:7.0,7.0;"/><polygon fill="#181818" points="367.16,780.1,376.0789,775.9224,370.4363,776.323,370.0357,770.6803,367.16,780.1" style="stroke:#181818;stroke-width:1.0;"/></g><!--link CourseListService to CourseDTO--><g id="link_CourseListService_CourseDTO"><path codeLine="101" d="M524,695.31 C524,724.85 524,758 524,789.48 " fill="none" id="CourseListService-to-CourseDTO" style="stroke:#181818;stroke-width:1.0;stroke-dasharray:7.0,7.0;"/><polygon fill="#181818" points="524,794.24,528,785.24,524,789.24,520,785.24,524,794.24" style="stroke:#181818;stroke-width:1.0;"/></g><!--link CourseListService to CourseRepository--><g id="link_CourseListService_CourseRepository"><path codeLine="102" d="M606.66,695.31 C644.8,738.59 689.76,789.62 726.92,831.79 " fill="none" id="CourseListService-to-CourseRepository" style="stroke:#181818;stroke-width:1.0;stroke-dasharray:7.0,7.0;"/><polygon fill="#181818" points="730.18,835.49,727.2259,826.0946,726.8724,831.7404,721.2266,831.3868,730.18,835.49" style="stroke:#181818;stroke-width:1.0;"/></g><!--link ToggleCourseStatusController to CourseListService--><g id="link_ToggleCourseStatusController_CourseListService"><path codeLine="104" d="M438.09,446.37 C448.46,464.84 458.77,483.23 468.47,500.52 " fill="none" id="ToggleCourseStatusController-to-CourseListService" style="stroke:#181818;stroke-width:1.0;"/><polygon fill="#181818" points="470.72,504.53,469.8077,494.7235,468.2748,500.1687,462.8296,498.6358,470.72,504.53" style="stroke:#181818;stroke-width:1.0;"/></g><!--SRC=[lLLDZvim4BtxLt1ajKrKxRbQQKMIBLKse92UAmicgRN6HhQ9sctxtpi60quW77F2VZFp_ER3HhypKL55IoxpToY20ewqvcOZXSdO1mHFdmd9ETKwECZJYKCaQwKXCzJK-diS_27atss725cKv1mKEYw2l35jcJOPg3FBeSVsK4dDZ5I_4QAr-IaL-w26IT5vFixIXrCndqRa3mHvE9wVL21Q9Xq-E2pYKaDnZSOYLVAaG6lVOXej1vagE3DPEzk5QGU_J0zZZLoHMWZB4GGs-GAQXM66jwi2TAvOPTDezY0mmnA4sRAI6Ut2kXg0jrztdfv10IwB5uCxgsnb98gnwye9RtmT9b1nj- -REXHlGtFxQQG_Zl4sY0a3waXpS8aERYvEqpE4hU3sr2CJnGldjYFX1TBsun8Rkk5hZAxdgY_lrMmrL6w2MizmF2BMPseUElnoTZfqQawk1AuEoTtxtak8nHkKcDyTs_AjedSyBGMbiGyWSh3l0iwoAxRgJcTTKmY8kWo6bwITbsYRPEiLBf9qlSDFlFkHxfFN_JhBSBU9Tt7s5UqOxqSk5i-EYP092Slby_YgaF6b6cZySHsLxylVvV9cAs-uJxI1JBxbLkiu1JBxhDiOb_vDpZc2BaV_ydgSSqQyJhDslv2pEGorztzD_m40]--></g></svg>