<?xml version="1.0" encoding="us-ascii" standalone="no"?><svg xmlns="http://www.w3.org/2000/svg" xmlns:xlink="http://www.w3.org/1999/xlink" contentStyleType="text/css" height="1367.2px" preserveAspectRatio="none" style="width:1164px;height:1367px;background:#FFFFFF;" version="1.1" viewBox="0 0 1164 1367" width="1164px" zoomAndPan="magnify"><defs/><g><rect fill="#FFFFFF" height="1202.3609" style="stroke:#181818;stroke-width:0.8000000000000002;" width="8" x="24.8" y="78.5938"/><rect fill="#FFFFFF" height="74.0656" style="stroke:#181818;stroke-width:0.8000000000000002;" width="8" x="369.6" y="97.2266"/><rect fill="#FFFFFF" height="605.6656" style="stroke:#181818;stroke-width:0.8000000000000002;" width="8" x="369.6" y="196.325"/><rect fill="#FFFFFF" height="60.4656" style="stroke:#181818;stroke-width:0.8000000000000002;" width="8" x="369.6" y="827.0234"/><rect fill="#FFFFFF" height="368.4328" style="stroke:#181818;stroke-width:0.8000000000000002;" width="8" x="369.6" y="912.5219"/><rect fill="#FFFFFF" height="24" style="stroke:#181818;stroke-width:0.8000000000000002;" width="8" x="599.2" y="122.2594"/><rect fill="#FFFFFF" height="145.1641" style="stroke:#181818;stroke-width:0.8000000000000002;" width="8" x="599.2" y="242.3906"/><rect fill="#FFFFFF" height="145.1641" style="stroke:#181818;stroke-width:0.8000000000000002;" width="8" x="599.2" y="431.4922"/><rect fill="#FFFFFF" height="145.1641" style="stroke:#181818;stroke-width:0.8000000000000002;" width="8" x="599.2" y="620.5938"/><rect fill="#FFFFFF" height="123.0984" style="stroke:#181818;stroke-width:0.8000000000000002;" width="8" x="599.2" y="958.5875"/><rect fill="#FFFFFF" height="123.0984" style="stroke:#181818;stroke-width:0.8000000000000002;" width="8" x="599.2" y="1120.0234"/><rect fill="#FFFFFF" height="120.1313" style="stroke:#181818;stroke-width:0.8000000000000002;" width="8" x="744.8" y="267.4234"/><rect fill="#FFFFFF" height="120.1313" style="stroke:#181818;stroke-width:0.8000000000000002;" width="8" x="744.8" y="456.525"/><rect fill="#FFFFFF" height="120.1313" style="stroke:#181818;stroke-width:0.8000000000000002;" width="8" x="744.8" y="645.6266"/><rect fill="#FFFFFF" height="25.0328" style="stroke:#181818;stroke-width:0.8000000000000002;" width="8" x="849.6" y="362.5219"/><rect fill="#FFFFFF" height="25.0328" style="stroke:#181818;stroke-width:0.8000000000000002;" width="8" x="849.6" y="551.6234"/><rect fill="#FFFFFF" height="25.0328" style="stroke:#181818;stroke-width:0.8000000000000002;" width="8" x="849.6" y="740.725"/><rect fill="#FFFFFF" height="49.0328" style="stroke:#181818;stroke-width:0.8000000000000002;" width="8" x="849.6" y="983.6203"/><rect fill="#FFFFFF" height="49.0328" style="stroke:#181818;stroke-width:0.8000000000000002;" width="8" x="849.6" y="1145.0563"/><rect fill="#FFFFFF" height="24" style="stroke:#181818;stroke-width:0.8000000000000002;" width="8" x="1005.2" y="1008.6531"/><rect fill="#FFFFFF" height="24" style="stroke:#181818;stroke-width:0.8000000000000002;" width="8" x="1005.2" y="1170.0891"/><rect fill="#FFFFFF" height="24" style="stroke:#181818;stroke-width:0.8000000000000002;" width="8" x="1098.4" y="292.4563"/><rect fill="#FFFFFF" height="24" style="stroke:#181818;stroke-width:0.8000000000000002;" width="8" x="1098.4" y="481.5578"/><rect fill="#FFFFFF" height="24" style="stroke:#181818;stroke-width:0.8000000000000002;" width="8" x="1098.4" y="670.6594"/><rect fill="#FFFFFF" height="24" style="stroke:#181818;stroke-width:0.8000000000000002;" width="8" x="1098.4" y="1057.6859"/><rect fill="#FFFFFF" height="24" style="stroke:#181818;stroke-width:0.8000000000000002;" width="8" x="1098.4" y="1219.1219"/><rect fill="none" height="569.4328" style="stroke:#000000;stroke-width:1.2000000000000002;" width="846" x="312.4" y="208.325"/><rect fill="none" height="65.4984" style="stroke:#000000;stroke-width:1.2000000000000002;" width="282.8" x="689.2" y="328.4563"/><rect fill="none" height="65.4984" style="stroke:#000000;stroke-width:1.2000000000000002;" width="282.8" x="689.2" y="517.5578"/><rect fill="none" height="65.4984" style="stroke:#000000;stroke-width:1.2000000000000002;" width="282.8" x="689.2" y="706.6594"/><rect fill="none" height="325" style="stroke:#000000;stroke-width:1.2000000000000002;" width="846" x="312.4" y="924.5219"/><line style="stroke:#181818;stroke-width:0.4000000000000001;stroke-dasharray:5.0,5.0;" x1="28.8" x2="28.8" y1="70.5938" y2="1288.1547"/><line style="stroke:#181818;stroke-width:0.4000000000000001;stroke-dasharray:5.0,5.0;" x1="373.2" x2="373.2" y1="70.5938" y2="1288.1547"/><line style="stroke:#181818;stroke-width:0.4000000000000001;stroke-dasharray:5.0,5.0;" x1="602.8" x2="602.8" y1="70.5938" y2="1288.1547"/><line style="stroke:#181818;stroke-width:0.4000000000000001;stroke-dasharray:5.0,5.0;" x1="748.4" x2="748.4" y1="70.5938" y2="1288.1547"/><line style="stroke:#181818;stroke-width:0.4000000000000001;stroke-dasharray:5.0,5.0;" x1="853.6" x2="853.6" y1="70.5938" y2="1288.1547"/><line style="stroke:#181818;stroke-width:0.4000000000000001;stroke-dasharray:5.0,5.0;" x1="928" x2="928" y1="70.5938" y2="1288.1547"/><line style="stroke:#181818;stroke-width:0.4000000000000001;stroke-dasharray:5.0,5.0;" x1="1008.8" x2="1008.8" y1="70.5938" y2="1288.1547"/><line style="stroke:#181818;stroke-width:0.4000000000000001;stroke-dasharray:5.0,5.0;" x1="1102.4" x2="1102.4" y1="70.5938" y2="1288.1547"/><text fill="#000000" font-family="sans-serif" font-size="11.2" lengthAdjust="spacing" textLength="44.8" x="4" y="67.7828">Manager</text><ellipse cx="28.8" cy="14.4969" fill="#E2E2F0" rx="6.4" ry="6.4" style="stroke:#181818;stroke-width:0.4000000000000001;"/><path d="M28.8,20.8969 L28.8,42.4969 M18.4,27.2969 L39.2,27.2969 M28.8,42.4969 L18.4,54.4969 M28.8,42.4969 L39.2,54.4969 " fill="none" style="stroke:#181818;stroke-width:0.4000000000000001;"/><text fill="#000000" font-family="sans-serif" font-size="11.2" lengthAdjust="spacing" textLength="44.8" x="4" y="1299.4406">Manager</text><ellipse cx="28.8" cy="1309.0516" fill="#E2E2F0" rx="6.4" ry="6.4" style="stroke:#181818;stroke-width:0.4000000000000001;"/><path d="M28.8,1315.4516 L28.8,1337.0516 M18.4,1321.8516 L39.2,1321.8516 M28.8,1337.0516 L18.4,1349.0516 M28.8,1337.0516 L39.2,1349.0516 " fill="none" style="stroke:#181818;stroke-width:0.4000000000000001;"/><rect fill="#E2E2F0" height="40.9938" rx="2" ry="2" style="stroke:#181818;stroke-width:0.4000000000000001;" width="106.4" x="320.4" y="28.8"/><text fill="#000000" font-family="sans-serif" font-size="11.2" font-style="italic" lengthAdjust="spacing" textLength="76" x="335.6" y="46.4859">&#171;presentation&#187;</text><text fill="#000000" font-family="sans-serif" font-size="11.2" lengthAdjust="spacing" textLength="95.2" x="326" y="61.3828">SetCourseStatusUI</text><rect fill="#E2E2F0" height="40.9938" rx="2" ry="2" style="stroke:#181818;stroke-width:0.4000000000000001;" width="106.4" x="320.4" y="1287.3547"/><text fill="#000000" font-family="sans-serif" font-size="11.2" font-style="italic" lengthAdjust="spacing" textLength="76" x="335.6" y="1305.0406">&#171;presentation&#187;</text><text fill="#000000" font-family="sans-serif" font-size="11.2" lengthAdjust="spacing" textLength="95.2" x="326" y="1319.9375">SetCourseStatusUI</text><rect fill="#E2E2F0" height="40.9938" rx="2" ry="2" style="stroke:#181818;stroke-width:0.4000000000000001;" width="146.4" x="530" y="28.8"/><text fill="#000000" font-family="sans-serif" font-size="11.2" font-style="italic" lengthAdjust="spacing" textLength="67.2" x="569.6" y="46.4859">&#171;application&#187;</text><text fill="#000000" font-family="sans-serif" font-size="11.2" lengthAdjust="spacing" textLength="135.2" x="535.6" y="61.3828">SetCourseStatusController</text><rect fill="#E2E2F0" height="40.9938" rx="2" ry="2" style="stroke:#181818;stroke-width:0.4000000000000001;" width="146.4" x="530" y="1287.3547"/><text fill="#000000" font-family="sans-serif" font-size="11.2" font-style="italic" lengthAdjust="spacing" textLength="67.2" x="569.6" y="1305.0406">&#171;application&#187;</text><text fill="#000000" font-family="sans-serif" font-size="11.2" lengthAdjust="spacing" textLength="135.2" x="535.6" y="1319.9375">SetCourseStatusController</text><rect fill="#E2E2F0" height="40.9938" rx="2" ry="2" style="stroke:#181818;stroke-width:0.4000000000000001;" width="103.2" x="697.2" y="28.8"/><text fill="#000000" font-family="sans-serif" font-size="11.2" font-style="italic" lengthAdjust="spacing" textLength="48" x="724.8" y="46.4859">&#171;service&#187;</text><text fill="#000000" font-family="sans-serif" font-size="11.2" lengthAdjust="spacing" textLength="92" x="702.8" y="61.3828">CourseListService</text><rect fill="#E2E2F0" height="40.9938" rx="2" ry="2" style="stroke:#181818;stroke-width:0.4000000000000001;" width="103.2" x="697.2" y="1287.3547"/><text fill="#000000" font-family="sans-serif" font-size="11.2" font-style="italic" lengthAdjust="spacing" textLength="48" x="724.8" y="1305.0406">&#171;service&#187;</text><text fill="#000000" font-family="sans-serif" font-size="11.2" lengthAdjust="spacing" textLength="92" x="702.8" y="1319.9375">CourseListService</text><rect fill="#E2E2F0" height="40.9938" rx="2" ry="2" style="stroke:#181818;stroke-width:0.4000000000000001;" width="60.8" x="823.2" y="28.8"/><text fill="#000000" font-family="sans-serif" font-size="11.2" font-style="italic" lengthAdjust="spacing" textLength="49.6" x="828.8" y="46.4859">&#171;domain&#187;</text><text fill="#000000" font-family="sans-serif" font-size="11.2" lengthAdjust="spacing" textLength="36.8" x="835.2" y="61.3828">Course</text><rect fill="#E2E2F0" height="40.9938" rx="2" ry="2" style="stroke:#181818;stroke-width:0.4000000000000001;" width="60.8" x="823.2" y="1287.3547"/><text fill="#000000" font-family="sans-serif" font-size="11.2" font-style="italic" lengthAdjust="spacing" textLength="49.6" x="828.8" y="1305.0406">&#171;domain&#187;</text><text fill="#000000" font-family="sans-serif" font-size="11.2" lengthAdjust="spacing" textLength="36.8" x="835.2" y="1319.9375">Course</text><rect fill="#E2E2F0" height="40.9938" rx="2" ry="2" style="stroke:#181818;stroke-width:0.4000000000000001;" width="72" x="892" y="28.8"/><text fill="#000000" font-family="sans-serif" font-size="11.2" font-style="italic" lengthAdjust="spacing" textLength="28.8" x="913.6" y="46.4859">&#171;dto&#187;</text><text fill="#000000" font-family="sans-serif" font-size="11.2" lengthAdjust="spacing" textLength="60.8" x="897.6" y="61.3828">CourseDTO</text><rect fill="#E2E2F0" height="40.9938" rx="2" ry="2" style="stroke:#181818;stroke-width:0.4000000000000001;" width="72" x="892" y="1287.3547"/><text fill="#000000" font-family="sans-serif" font-size="11.2" font-style="italic" lengthAdjust="spacing" textLength="28.8" x="913.6" y="1305.0406">&#171;dto&#187;</text><text fill="#000000" font-family="sans-serif" font-size="11.2" lengthAdjust="spacing" textLength="60.8" x="897.6" y="1319.9375">CourseDTO</text><rect fill="#E2E2F0" height="40.9938" rx="2" ry="2" style="stroke:#181818;stroke-width:0.4000000000000001;" width="74.4" x="972" y="28.8"/><text fill="#000000" font-family="sans-serif" font-size="11.2" font-style="italic" lengthAdjust="spacing" textLength="49.6" x="984.4" y="46.4859">&#171;domain&#187;</text><text fill="#000000" font-family="sans-serif" font-size="11.2" lengthAdjust="spacing" textLength="63.2" x="977.6" y="61.3828">CourseState</text><rect fill="#E2E2F0" height="40.9938" rx="2" ry="2" style="stroke:#181818;stroke-width:0.4000000000000001;" width="74.4" x="972" y="1287.3547"/><text fill="#000000" font-family="sans-serif" font-size="11.2" font-style="italic" lengthAdjust="spacing" textLength="49.6" x="984.4" y="1305.0406">&#171;domain&#187;</text><text fill="#000000" font-family="sans-serif" font-size="11.2" lengthAdjust="spacing" textLength="63.2" x="977.6" y="1319.9375">CourseState</text><text fill="#000000" font-family="sans-serif" font-size="11.2" font-style="italic" lengthAdjust="spacing" textLength="63.2" x="1068.4" y="52.8859">&#171;repository&#187;</text><text fill="#000000" font-family="sans-serif" font-size="11.2" lengthAdjust="spacing" textLength="91.2" x="1054.4" y="67.7828">CourseRepository</text><path d="M1088,12 C1088,4 1102.4,4 1102.4,4 C1102.4,4 1116.8,4 1116.8,12 L1116.8,32.8 C1116.8,40.8 1102.4,40.8 1102.4,40.8 C1102.4,40.8 1088,40.8 1088,32.8 L1088,12 " fill="#E2E2F0" style="stroke:#181818;stroke-width:1.2000000000000002;"/><path d="M1088,12 C1088,20 1102.4,20 1102.4,20 C1102.4,20 1116.8,20 1116.8,12 " fill="none" style="stroke:#181818;stroke-width:1.2000000000000002;"/><text fill="#000000" font-family="sans-serif" font-size="11.2" font-style="italic" lengthAdjust="spacing" textLength="63.2" x="1068.4" y="1299.4406">&#171;repository&#187;</text><text fill="#000000" font-family="sans-serif" font-size="11.2" lengthAdjust="spacing" textLength="91.2" x="1054.4" y="1314.3375">CourseRepository</text><path d="M1088,1325.1484 C1088,1317.1484 1102.4,1317.1484 1102.4,1317.1484 C1102.4,1317.1484 1116.8,1317.1484 1116.8,1325.1484 L1116.8,1345.9484 C1116.8,1353.9484 1102.4,1353.9484 1102.4,1353.9484 C1102.4,1353.9484 1088,1353.9484 1088,1345.9484 L1088,1325.1484 " fill="#E2E2F0" style="stroke:#181818;stroke-width:1.2000000000000002;"/><path d="M1088,1325.1484 C1088,1333.1484 1102.4,1333.1484 1102.4,1333.1484 C1102.4,1333.1484 1116.8,1333.1484 1116.8,1325.1484 " fill="none" style="stroke:#181818;stroke-width:1.2000000000000002;"/><rect fill="#FFFFFF" height="1202.3609" style="stroke:#181818;stroke-width:0.8000000000000002;" width="8" x="24.8" y="78.5938"/><rect fill="#FFFFFF" height="74.0656" style="stroke:#181818;stroke-width:0.8000000000000002;" width="8" x="369.6" y="97.2266"/><rect fill="#FFFFFF" height="605.6656" style="stroke:#181818;stroke-width:0.8000000000000002;" width="8" x="369.6" y="196.325"/><rect fill="#FFFFFF" height="60.4656" style="stroke:#181818;stroke-width:0.8000000000000002;" width="8" x="369.6" y="827.0234"/><rect fill="#FFFFFF" height="368.4328" style="stroke:#181818;stroke-width:0.8000000000000002;" width="8" x="369.6" y="912.5219"/><rect fill="#FFFFFF" height="24" style="stroke:#181818;stroke-width:0.8000000000000002;" width="8" x="599.2" y="122.2594"/><rect fill="#FFFFFF" height="145.1641" style="stroke:#181818;stroke-width:0.8000000000000002;" width="8" x="599.2" y="242.3906"/><rect fill="#FFFFFF" height="145.1641" style="stroke:#181818;stroke-width:0.8000000000000002;" width="8" x="599.2" y="431.4922"/><rect fill="#FFFFFF" height="145.1641" style="stroke:#181818;stroke-width:0.8000000000000002;" width="8" x="599.2" y="620.5938"/><rect fill="#FFFFFF" height="123.0984" style="stroke:#181818;stroke-width:0.8000000000000002;" width="8" x="599.2" y="958.5875"/><rect fill="#FFFFFF" height="123.0984" style="stroke:#181818;stroke-width:0.8000000000000002;" width="8" x="599.2" y="1120.0234"/><rect fill="#FFFFFF" height="120.1313" style="stroke:#181818;stroke-width:0.8000000000000002;" width="8" x="744.8" y="267.4234"/><rect fill="#FFFFFF" height="120.1313" style="stroke:#181818;stroke-width:0.8000000000000002;" width="8" x="744.8" y="456.525"/><rect fill="#FFFFFF" height="120.1313" style="stroke:#181818;stroke-width:0.8000000000000002;" width="8" x="744.8" y="645.6266"/><rect fill="#FFFFFF" height="25.0328" style="stroke:#181818;stroke-width:0.8000000000000002;" width="8" x="849.6" y="362.5219"/><rect fill="#FFFFFF" height="25.0328" style="stroke:#181818;stroke-width:0.8000000000000002;" width="8" x="849.6" y="551.6234"/><rect fill="#FFFFFF" height="25.0328" style="stroke:#181818;stroke-width:0.8000000000000002;" width="8" x="849.6" y="740.725"/><rect fill="#FFFFFF" height="49.0328" style="stroke:#181818;stroke-width:0.8000000000000002;" width="8" x="849.6" y="983.6203"/><rect fill="#FFFFFF" height="49.0328" style="stroke:#181818;stroke-width:0.8000000000000002;" width="8" x="849.6" y="1145.0563"/><rect fill="#FFFFFF" height="24" style="stroke:#181818;stroke-width:0.8000000000000002;" width="8" x="1005.2" y="1008.6531"/><rect fill="#FFFFFF" height="24" style="stroke:#181818;stroke-width:0.8000000000000002;" width="8" x="1005.2" y="1170.0891"/><rect fill="#FFFFFF" height="24" style="stroke:#181818;stroke-width:0.8000000000000002;" width="8" x="1098.4" y="292.4563"/><rect fill="#FFFFFF" height="24" style="stroke:#181818;stroke-width:0.8000000000000002;" width="8" x="1098.4" y="481.5578"/><rect fill="#FFFFFF" height="24" style="stroke:#181818;stroke-width:0.8000000000000002;" width="8" x="1098.4" y="670.6594"/><rect fill="#FFFFFF" height="24" style="stroke:#181818;stroke-width:0.8000000000000002;" width="8" x="1098.4" y="1057.6859"/><rect fill="#FFFFFF" height="24" style="stroke:#181818;stroke-width:0.8000000000000002;" width="8" x="1098.4" y="1219.1219"/><polygon fill="#181818" points="360,94.0266,368,97.2266,360,100.4266,363.2,97.2266" style="stroke:#181818;stroke-width:0.8000000000000002;"/><line style="stroke:#181818;stroke-width:0.8000000000000002;" x1="32.8" x2="364.8" y1="97.2266" y2="97.2266"/><text fill="#000000" font-family="sans-serif" font-size="10.4" font-weight="bold" lengthAdjust="spacing" textLength="5.6" x="38.4" y="93.0164">1</text><text fill="#000000" font-family="sans-serif" font-size="10.4" lengthAdjust="spacing" textLength="192.8" x="47.2" y="93.0164">requests to change the status of a course</text><polygon fill="#181818" points="589.6,119.0594,597.6,122.2594,589.6,125.4594,592.8,122.2594" style="stroke:#181818;stroke-width:0.8000000000000002;"/><line style="stroke:#181818;stroke-width:0.8000000000000002;" x1="377.6" x2="594.4" y1="122.2594" y2="122.2594"/><text fill="#000000" font-family="sans-serif" font-size="10.4" font-weight="bold" lengthAdjust="spacing" textLength="5.6" x="383.2" y="118.0492">2</text><text fill="#000000" font-family="sans-serif" font-size="10.4" lengthAdjust="spacing" textLength="105.6" x="392" y="118.0492">new(courseRepository)</text><polygon fill="#181818" points="41.6,168.0922,33.6,171.2922,41.6,174.4922,38.4,171.2922" style="stroke:#181818;stroke-width:0.8000000000000002;"/><line style="stroke:#181818;stroke-width:0.8000000000000002;stroke-dasharray:2.0,2.0;" x1="36.8" x2="372.8" y1="171.2922" y2="171.2922"/><text fill="#000000" font-family="sans-serif" font-size="10.4" font-weight="bold" lengthAdjust="spacing" textLength="5.6" x="46.4" y="167.082">3</text><text fill="#000000" font-family="sans-serif" font-size="10.4" lengthAdjust="spacing" textLength="224.8" x="55.2" y="167.082">displays the possibilities (open/start/close/finish)</text><polygon fill="#181818" points="360,193.125,368,196.325,360,199.525,363.2,196.325" style="stroke:#181818;stroke-width:0.8000000000000002;"/><line style="stroke:#181818;stroke-width:0.8000000000000002;" x1="32.8" x2="364.8" y1="196.325" y2="196.325"/><text fill="#000000" font-family="sans-serif" font-size="10.4" font-weight="bold" lengthAdjust="spacing" textLength="5.6" x="38.4" y="192.1148">4</text><text fill="#000000" font-family="sans-serif" font-size="10.4" lengthAdjust="spacing" textLength="73.6" x="47.2" y="192.1148">select an option</text><path d="M312.4,208.325 L361.2,208.325 L361.2,215.7578 L353.2,223.7578 L312.4,223.7578 L312.4,208.325 " fill="#EEEEEE" style="stroke:#000000;stroke-width:1.2000000000000002;"/><rect fill="none" height="569.4328" style="stroke:#000000;stroke-width:1.2000000000000002;" width="846" x="312.4" y="208.325"/><text fill="#000000" font-family="sans-serif" font-size="10.4" font-weight="bold" lengthAdjust="spacing" textLength="12.8" x="324.4" y="220.3477">alt</text><text fill="#000000" font-family="sans-serif" font-size="8.8" font-weight="bold" lengthAdjust="spacing" textLength="140" x="373.2" y="219.4211">[if (close course / start course)]</text><polygon fill="#181818" points="589.6,239.1906,597.6,242.3906,589.6,245.5906,592.8,242.3906" style="stroke:#181818;stroke-width:0.8000000000000002;"/><line style="stroke:#181818;stroke-width:0.8000000000000002;" x1="377.6" x2="594.4" y1="242.3906" y2="242.3906"/><text fill="#000000" font-family="sans-serif" font-size="10.4" font-weight="bold" lengthAdjust="spacing" textLength="5.6" x="383.2" y="238.1805">5</text><text fill="#000000" font-family="sans-serif" font-size="10.4" lengthAdjust="spacing" textLength="132.8" x="392" y="238.1805">courses = listOpenCourses()</text><polygon fill="#181818" points="735.2,264.2234,743.2,267.4234,735.2,270.6234,738.4,267.4234" style="stroke:#181818;stroke-width:0.8000000000000002;"/><line style="stroke:#181818;stroke-width:0.8000000000000002;" x1="607.2" x2="740" y1="267.4234" y2="267.4234"/><text fill="#000000" font-family="sans-serif" font-size="10.4" font-weight="bold" lengthAdjust="spacing" textLength="5.6" x="612.8" y="263.2133">6</text><text fill="#000000" font-family="sans-serif" font-size="10.4" lengthAdjust="spacing" textLength="83.2" x="621.6" y="263.2133">listOpenCourses()</text><polygon fill="#181818" points="1088.8,289.2563,1096.8,292.4563,1088.8,295.6563,1092,292.4563" style="stroke:#181818;stroke-width:0.8000000000000002;"/><line style="stroke:#181818;stroke-width:0.8000000000000002;" x1="752.8" x2="1093.6" y1="292.4563" y2="292.4563"/><text fill="#000000" font-family="sans-serif" font-size="10.4" font-weight="bold" lengthAdjust="spacing" textLength="5.6" x="758.4" y="288.2461">7</text><text fill="#000000" font-family="sans-serif" font-size="10.4" lengthAdjust="spacing" textLength="59.2" x="767.2" y="288.2461">findAllOpen()</text><path d="M689.2,328.4563 L747.6,328.4563 L747.6,335.8891 L739.6,343.8891 L689.2,343.8891 L689.2,328.4563 " fill="#EEEEEE" style="stroke:#000000;stroke-width:1.2000000000000002;"/><rect fill="none" height="65.4984" style="stroke:#000000;stroke-width:1.2000000000000002;" width="282.8" x="689.2" y="328.4563"/><text fill="#000000" font-family="sans-serif" font-size="10.4" font-weight="bold" lengthAdjust="spacing" textLength="22.4" x="701.2" y="340.4789">loop</text><text fill="#000000" font-family="sans-serif" font-size="8.8" font-weight="bold" lengthAdjust="spacing" textLength="76" x="759.6" y="339.5523">[for each course]</text><polygon fill="#181818" points="840,359.3219,848,362.5219,840,365.7219,843.2,362.5219" style="stroke:#181818;stroke-width:0.8000000000000002;"/><line style="stroke:#181818;stroke-width:0.8000000000000002;" x1="752.8" x2="844.8" y1="362.5219" y2="362.5219"/><text fill="#000000" font-family="sans-serif" font-size="10.4" font-weight="bold" lengthAdjust="spacing" textLength="5.6" x="758.4" y="358.3117">8</text><text fill="#000000" font-family="sans-serif" font-size="10.4" lengthAdjust="spacing" textLength="67.2" x="767.2" y="358.3117">toDTO(course)</text><polygon fill="#181818" points="918.4,384.3547,926.4,387.5547,918.4,390.7547,921.6,387.5547" style="stroke:#181818;stroke-width:0.8000000000000002;"/><line style="stroke:#181818;stroke-width:0.8000000000000002;" x1="853.6" x2="923.2" y1="387.5547" y2="387.5547"/><text fill="#000000" font-family="sans-serif" font-size="10.4" font-weight="bold" lengthAdjust="spacing" textLength="5.6" x="859.2" y="383.3445">9</text><text fill="#000000" font-family="sans-serif" font-size="10.4" lengthAdjust="spacing" textLength="18.4" x="868" y="383.3445">new</text><line style="stroke:#000000;stroke-width:0.8000000000000002;stroke-dasharray:2.0,2.0;" x1="312.4" x2="1158.4" y1="400.3547" y2="400.3547"/><text fill="#000000" font-family="sans-serif" font-size="8.8" font-weight="bold" lengthAdjust="spacing" textLength="70.4" x="316.4" y="409.8508">[if open course]</text><polygon fill="#181818" points="589.6,428.2922,597.6,431.4922,589.6,434.6922,592.8,431.4922" style="stroke:#181818;stroke-width:0.8000000000000002;"/><line style="stroke:#181818;stroke-width:0.8000000000000002;" x1="377.6" x2="594.4" y1="431.4922" y2="431.4922"/><text fill="#000000" font-family="sans-serif" font-size="10.4" font-weight="bold" lengthAdjust="spacing" textLength="11.2" x="383.2" y="427.282">10</text><text fill="#000000" font-family="sans-serif" font-size="10.4" lengthAdjust="spacing" textLength="140" x="397.6" y="427.282">courses = listClosedCourses()</text><polygon fill="#181818" points="735.2,453.325,743.2,456.525,735.2,459.725,738.4,456.525" style="stroke:#181818;stroke-width:0.8000000000000002;"/><line style="stroke:#181818;stroke-width:0.8000000000000002;" x1="607.2" x2="740" y1="456.525" y2="456.525"/><text fill="#000000" font-family="sans-serif" font-size="10.4" font-weight="bold" lengthAdjust="spacing" textLength="11.2" x="612.8" y="452.3148">11</text><text fill="#000000" font-family="sans-serif" font-size="10.4" lengthAdjust="spacing" textLength="90.4" x="627.2" y="452.3148">listClosedCourses()</text><polygon fill="#181818" points="1088.8,478.3578,1096.8,481.5578,1088.8,484.7578,1092,481.5578" style="stroke:#181818;stroke-width:0.8000000000000002;"/><line style="stroke:#181818;stroke-width:0.8000000000000002;" x1="752.8" x2="1093.6" y1="481.5578" y2="481.5578"/><text fill="#000000" font-family="sans-serif" font-size="10.4" font-weight="bold" lengthAdjust="spacing" textLength="11.2" x="758.4" y="477.3477">12</text><text fill="#000000" font-family="sans-serif" font-size="10.4" lengthAdjust="spacing" textLength="66.4" x="772.8" y="477.3477">findAllClosed()</text><path d="M689.2,517.5578 L747.6,517.5578 L747.6,524.9906 L739.6,532.9906 L689.2,532.9906 L689.2,517.5578 " fill="#EEEEEE" style="stroke:#000000;stroke-width:1.2000000000000002;"/><rect fill="none" height="65.4984" style="stroke:#000000;stroke-width:1.2000000000000002;" width="282.8" x="689.2" y="517.5578"/><text fill="#000000" font-family="sans-serif" font-size="10.4" font-weight="bold" lengthAdjust="spacing" textLength="22.4" x="701.2" y="529.5805">loop</text><text fill="#000000" font-family="sans-serif" font-size="8.8" font-weight="bold" lengthAdjust="spacing" textLength="76" x="759.6" y="528.6539">[for each course]</text><polygon fill="#181818" points="840,548.4234,848,551.6234,840,554.8234,843.2,551.6234" style="stroke:#181818;stroke-width:0.8000000000000002;"/><line style="stroke:#181818;stroke-width:0.8000000000000002;" x1="752.8" x2="844.8" y1="551.6234" y2="551.6234"/><text fill="#000000" font-family="sans-serif" font-size="10.4" font-weight="bold" lengthAdjust="spacing" textLength="11.2" x="758.4" y="547.4133">13</text><text fill="#000000" font-family="sans-serif" font-size="10.4" lengthAdjust="spacing" textLength="67.2" x="772.8" y="547.4133">toDTO(course)</text><polygon fill="#181818" points="918.4,573.4563,926.4,576.6563,918.4,579.8563,921.6,576.6563" style="stroke:#181818;stroke-width:0.8000000000000002;"/><line style="stroke:#181818;stroke-width:0.8000000000000002;" x1="853.6" x2="923.2" y1="576.6563" y2="576.6563"/><text fill="#000000" font-family="sans-serif" font-size="10.4" font-weight="bold" lengthAdjust="spacing" textLength="11.2" x="859.2" y="572.4461">14</text><text fill="#000000" font-family="sans-serif" font-size="10.4" lengthAdjust="spacing" textLength="18.4" x="873.6" y="572.4461">new</text><line style="stroke:#000000;stroke-width:0.8000000000000002;stroke-dasharray:2.0,2.0;" x1="312.4" x2="1158.4" y1="589.4563" y2="589.4563"/><text fill="#000000" font-family="sans-serif" font-size="8.8" font-weight="bold" lengthAdjust="spacing" textLength="72.8" x="316.4" y="598.9523">[if finish course]</text><polygon fill="#181818" points="589.6,617.3938,597.6,620.5938,589.6,623.7938,592.8,620.5938" style="stroke:#181818;stroke-width:0.8000000000000002;"/><line style="stroke:#181818;stroke-width:0.8000000000000002;" x1="377.6" x2="594.4" y1="620.5938" y2="620.5938"/><text fill="#000000" font-family="sans-serif" font-size="10.4" font-weight="bold" lengthAdjust="spacing" textLength="11.2" x="383.2" y="616.3836">15</text><text fill="#000000" font-family="sans-serif" font-size="10.4" lengthAdjust="spacing" textLength="157.6" x="397.6" y="616.3836">courses = listInProgressCourses()</text><polygon fill="#181818" points="735.2,642.4266,743.2,645.6266,735.2,648.8266,738.4,645.6266" style="stroke:#181818;stroke-width:0.8000000000000002;"/><line style="stroke:#181818;stroke-width:0.8000000000000002;" x1="607.2" x2="740" y1="645.6266" y2="645.6266"/><text fill="#000000" font-family="sans-serif" font-size="10.4" font-weight="bold" lengthAdjust="spacing" textLength="11.2" x="612.8" y="641.4164">16</text><text fill="#000000" font-family="sans-serif" font-size="10.4" lengthAdjust="spacing" textLength="108" x="627.2" y="641.4164">listInProgressCourses()</text><polygon fill="#181818" points="1088.8,667.4594,1096.8,670.6594,1088.8,673.8594,1092,670.6594" style="stroke:#181818;stroke-width:0.8000000000000002;"/><line style="stroke:#181818;stroke-width:0.8000000000000002;" x1="752.8" x2="1093.6" y1="670.6594" y2="670.6594"/><text fill="#000000" font-family="sans-serif" font-size="10.4" font-weight="bold" lengthAdjust="spacing" textLength="11.2" x="758.4" y="666.4492">17</text><text fill="#000000" font-family="sans-serif" font-size="10.4" lengthAdjust="spacing" textLength="84" x="772.8" y="666.4492">findAllInProgress()</text><path d="M689.2,706.6594 L747.6,706.6594 L747.6,714.0922 L739.6,722.0922 L689.2,722.0922 L689.2,706.6594 " fill="#EEEEEE" style="stroke:#000000;stroke-width:1.2000000000000002;"/><rect fill="none" height="65.4984" style="stroke:#000000;stroke-width:1.2000000000000002;" width="282.8" x="689.2" y="706.6594"/><text fill="#000000" font-family="sans-serif" font-size="10.4" font-weight="bold" lengthAdjust="spacing" textLength="22.4" x="701.2" y="718.682">loop</text><text fill="#000000" font-family="sans-serif" font-size="8.8" font-weight="bold" lengthAdjust="spacing" textLength="76" x="759.6" y="717.7555">[for each course]</text><polygon fill="#181818" points="840,737.525,848,740.725,840,743.925,843.2,740.725" style="stroke:#181818;stroke-width:0.8000000000000002;"/><line style="stroke:#181818;stroke-width:0.8000000000000002;" x1="752.8" x2="844.8" y1="740.725" y2="740.725"/><text fill="#000000" font-family="sans-serif" font-size="10.4" font-weight="bold" lengthAdjust="spacing" textLength="11.2" x="758.4" y="736.5148">18</text><text fill="#000000" font-family="sans-serif" font-size="10.4" lengthAdjust="spacing" textLength="67.2" x="772.8" y="736.5148">toDTO(course)</text><polygon fill="#181818" points="918.4,762.5578,926.4,765.7578,918.4,768.9578,921.6,765.7578" style="stroke:#181818;stroke-width:0.8000000000000002;"/><line style="stroke:#181818;stroke-width:0.8000000000000002;" x1="853.6" x2="923.2" y1="765.7578" y2="765.7578"/><text fill="#000000" font-family="sans-serif" font-size="10.4" font-weight="bold" lengthAdjust="spacing" textLength="11.2" x="859.2" y="761.5477">19</text><text fill="#000000" font-family="sans-serif" font-size="10.4" lengthAdjust="spacing" textLength="18.4" x="873.6" y="761.5477">new</text><polygon fill="#181818" points="41.6,798.7906,33.6,801.9906,41.6,805.1906,38.4,801.9906" style="stroke:#181818;stroke-width:0.8000000000000002;"/><line style="stroke:#181818;stroke-width:0.8000000000000002;stroke-dasharray:2.0,2.0;" x1="36.8" x2="372.8" y1="801.9906" y2="801.9906"/><text fill="#000000" font-family="sans-serif" font-size="10.4" font-weight="bold" lengthAdjust="spacing" textLength="11.2" x="46.4" y="797.7805">20</text><text fill="#000000" font-family="sans-serif" font-size="10.4" lengthAdjust="spacing" textLength="303.2" x="60.8" y="797.7805">lists the available courses and their status and asks to select one</text><polygon fill="#181818" points="360,823.8234,368,827.0234,360,830.2234,363.2,827.0234" style="stroke:#181818;stroke-width:0.8000000000000002;"/><line style="stroke:#181818;stroke-width:0.8000000000000002;" x1="32.8" x2="364.8" y1="827.0234" y2="827.0234"/><text fill="#000000" font-family="sans-serif" font-size="10.4" font-weight="bold" lengthAdjust="spacing" textLength="11.2" x="38.4" y="822.8133">21</text><text fill="#000000" font-family="sans-serif" font-size="10.4" lengthAdjust="spacing" textLength="122.4" x="52.8" y="822.8133">selects the desired course</text><line style="stroke:#181818;stroke-width:0.8000000000000002;" x1="377.6" x2="411.2" y1="852.0563" y2="852.0563"/><line style="stroke:#181818;stroke-width:0.8000000000000002;" x1="411.2" x2="411.2" y1="852.0563" y2="862.4563"/><line style="stroke:#181818;stroke-width:0.8000000000000002;" x1="378.4" x2="411.2" y1="862.4563" y2="862.4563"/><polygon fill="#181818" points="386.4,859.2563,378.4,862.4563,386.4,865.6563,383.2,862.4563" style="stroke:#181818;stroke-width:0.8000000000000002;"/><text fill="#000000" font-family="sans-serif" font-size="10.4" font-weight="bold" lengthAdjust="spacing" textLength="11.2" x="383.2" y="847.8461">22</text><text fill="#000000" font-family="sans-serif" font-size="10.4" lengthAdjust="spacing" textLength="146.4" x="397.6" y="847.8461">course = select(courses, index)</text><polygon fill="#181818" points="41.6,884.2891,33.6,887.4891,41.6,890.6891,38.4,887.4891" style="stroke:#181818;stroke-width:0.8000000000000002;"/><line style="stroke:#181818;stroke-width:0.8000000000000002;stroke-dasharray:2.0,2.0;" x1="36.8" x2="372.8" y1="887.4891" y2="887.4891"/><text fill="#000000" font-family="sans-serif" font-size="10.4" font-weight="bold" lengthAdjust="spacing" textLength="11.2" x="46.4" y="883.2789">23</text><text fill="#000000" font-family="sans-serif" font-size="10.4" lengthAdjust="spacing" textLength="215.2" x="60.8" y="883.2789">asks to confirm the toggle of the course status</text><polygon fill="#181818" points="360,909.3219,368,912.5219,360,915.7219,363.2,912.5219" style="stroke:#181818;stroke-width:0.8000000000000002;"/><line style="stroke:#181818;stroke-width:0.8000000000000002;" x1="32.8" x2="364.8" y1="912.5219" y2="912.5219"/><text fill="#000000" font-family="sans-serif" font-size="10.4" font-weight="bold" lengthAdjust="spacing" textLength="11.2" x="38.4" y="908.3117">24</text><text fill="#000000" font-family="sans-serif" font-size="10.4" lengthAdjust="spacing" textLength="84.8" x="52.8" y="908.3117">confirms operation</text><path d="M312.4,924.5219 L361.2,924.5219 L361.2,931.9547 L353.2,939.9547 L312.4,939.9547 L312.4,924.5219 " fill="#EEEEEE" style="stroke:#000000;stroke-width:1.2000000000000002;"/><rect fill="none" height="325" style="stroke:#000000;stroke-width:1.2000000000000002;" width="846" x="312.4" y="924.5219"/><text fill="#000000" font-family="sans-serif" font-size="10.4" font-weight="bold" lengthAdjust="spacing" textLength="12.8" x="324.4" y="936.5445">alt</text><text fill="#000000" font-family="sans-serif" font-size="8.8" font-weight="bold" lengthAdjust="spacing" textLength="72" x="373.2" y="935.618">[if close course]</text><polygon fill="#181818" points="589.6,955.3875,597.6,958.5875,589.6,961.7875,592.8,958.5875" style="stroke:#181818;stroke-width:0.8000000000000002;"/><line style="stroke:#181818;stroke-width:0.8000000000000002;" x1="377.6" x2="594.4" y1="958.5875" y2="958.5875"/><text fill="#000000" font-family="sans-serif" font-size="10.4" font-weight="bold" lengthAdjust="spacing" textLength="11.2" x="383.2" y="954.3773">25</text><text fill="#000000" font-family="sans-serif" font-size="10.4" lengthAdjust="spacing" textLength="192" x="397.6" y="954.3773">course = toggleToPreviousCourseStatus()</text><polygon fill="#181818" points="840,980.4203,848,983.6203,840,986.8203,843.2,983.6203" style="stroke:#181818;stroke-width:0.8000000000000002;"/><line style="stroke:#181818;stroke-width:0.8000000000000002;" x1="607.2" x2="844.8" y1="983.6203" y2="983.6203"/><text fill="#000000" font-family="sans-serif" font-size="10.4" font-weight="bold" lengthAdjust="spacing" textLength="11.2" x="612.8" y="979.4102">26</text><text fill="#000000" font-family="sans-serif" font-size="10.4" lengthAdjust="spacing" textLength="68.8" x="627.2" y="979.4102">previousState()</text><polygon fill="#181818" points="995.6,1005.4531,1003.6,1008.6531,995.6,1011.8531,998.8,1008.6531" style="stroke:#181818;stroke-width:0.8000000000000002;"/><line style="stroke:#181818;stroke-width:0.8000000000000002;" x1="857.6" x2="1000.4" y1="1008.6531" y2="1008.6531"/><text fill="#000000" font-family="sans-serif" font-size="10.4" font-weight="bold" lengthAdjust="spacing" textLength="11.2" x="863.2" y="1004.443">27</text><text fill="#000000" font-family="sans-serif" font-size="10.4" lengthAdjust="spacing" textLength="44" x="877.6" y="1004.443">previous()</text><polygon fill="#181818" points="1088.8,1054.4859,1096.8,1057.6859,1088.8,1060.8859,1092,1057.6859" style="stroke:#181818;stroke-width:0.8000000000000002;"/><line style="stroke:#181818;stroke-width:0.8000000000000002;" x1="607.2" x2="1093.6" y1="1057.6859" y2="1057.6859"/><text fill="#000000" font-family="sans-serif" font-size="10.4" font-weight="bold" lengthAdjust="spacing" textLength="11.2" x="612.8" y="1053.4758">28</text><text fill="#000000" font-family="sans-serif" font-size="10.4" lengthAdjust="spacing" textLength="58.4" x="627.2" y="1053.4758">save(course)</text><line style="stroke:#000000;stroke-width:0.8000000000000002;stroke-dasharray:2.0,2.0;" x1="312.4" x2="1158.4" y1="1088.8859" y2="1088.8859"/><text fill="#000000" font-family="sans-serif" font-size="8.8" font-weight="bold" lengthAdjust="spacing" textLength="25.6" x="316.4" y="1098.382">[else]</text><polygon fill="#181818" points="589.6,1116.8234,597.6,1120.0234,589.6,1123.2234,592.8,1120.0234" style="stroke:#181818;stroke-width:0.8000000000000002;"/><line style="stroke:#181818;stroke-width:0.8000000000000002;" x1="377.6" x2="594.4" y1="1120.0234" y2="1120.0234"/><text fill="#000000" font-family="sans-serif" font-size="10.4" font-weight="bold" lengthAdjust="spacing" textLength="11.2" x="383.2" y="1115.8133">29</text><text fill="#000000" font-family="sans-serif" font-size="10.4" lengthAdjust="spacing" textLength="174.4" x="397.6" y="1115.8133">course = toggleToNextCourseStatus()</text><polygon fill="#181818" points="840,1141.8563,848,1145.0563,840,1148.2563,843.2,1145.0563" style="stroke:#181818;stroke-width:0.8000000000000002;"/><line style="stroke:#181818;stroke-width:0.8000000000000002;" x1="607.2" x2="844.8" y1="1145.0563" y2="1145.0563"/><text fill="#000000" font-family="sans-serif" font-size="10.4" font-weight="bold" lengthAdjust="spacing" textLength="11.2" x="612.8" y="1140.8461">30</text><text fill="#000000" font-family="sans-serif" font-size="10.4" lengthAdjust="spacing" textLength="51.2" x="627.2" y="1140.8461">nextState()</text><polygon fill="#181818" points="995.6,1166.8891,1003.6,1170.0891,995.6,1173.2891,998.8,1170.0891" style="stroke:#181818;stroke-width:0.8000000000000002;"/><line style="stroke:#181818;stroke-width:0.8000000000000002;" x1="857.6" x2="1000.4" y1="1170.0891" y2="1170.0891"/><text fill="#000000" font-family="sans-serif" font-size="10.4" font-weight="bold" lengthAdjust="spacing" textLength="11.2" x="863.2" y="1165.8789">31</text><text fill="#000000" font-family="sans-serif" font-size="10.4" lengthAdjust="spacing" textLength="26.4" x="877.6" y="1165.8789">next()</text><polygon fill="#181818" points="1088.8,1215.9219,1096.8,1219.1219,1088.8,1222.3219,1092,1219.1219" style="stroke:#181818;stroke-width:0.8000000000000002;"/><line style="stroke:#181818;stroke-width:0.8000000000000002;" x1="607.2" x2="1093.6" y1="1219.1219" y2="1219.1219"/><text fill="#000000" font-family="sans-serif" font-size="10.4" font-weight="bold" lengthAdjust="spacing" textLength="11.2" x="612.8" y="1214.9117">32</text><text fill="#000000" font-family="sans-serif" font-size="10.4" lengthAdjust="spacing" textLength="58.4" x="627.2" y="1214.9117">save(course)</text><polygon fill="#181818" points="41.6,1270.5547,33.6,1273.7547,41.6,1276.9547,38.4,1273.7547" style="stroke:#181818;stroke-width:0.8000000000000002;"/><line style="stroke:#181818;stroke-width:0.8000000000000002;stroke-dasharray:2.0,2.0;" x1="36.8" x2="368.8" y1="1273.7547" y2="1273.7547"/><text fill="#000000" font-family="sans-serif" font-size="10.4" font-weight="bold" lengthAdjust="spacing" textLength="11.2" x="46.4" y="1269.5445">33</text><text fill="#000000" font-family="sans-serif" font-size="10.4" lengthAdjust="spacing" textLength="121.6" x="60.8" y="1269.5445">informs operation success</text><!--SRC=[rLPDRzim3BtxLn0z9S26t8qsm93j4A1PYoJTNR6PH9WgUPASjVz-r8ThsRMTzhXB4idlKUGZzHnMMoNhvmFgB6E5LHfkDaoo4-eRO0OsMLOnRNd1AoOjtEpGhbIj3UuiixLvMdlKqnfkRokD1YLjSoMNoqdQIachbH3naDL-Uqy1M5K9NWpo0_cU6xj3VU45Ujvk-uje9kmCKq9y_vEWfNfcV2Juz_s31zEtGrer37C5f57zEWsTPIMpxC3em83OOgKC9sLV7Mlxuz75rs-RZaB2yukBGt9luEkI1Cr1uvyQZJLW5HHd9ay8zenWl8AWZi2Wy0UqzATrHgqWlbCq1ub_PqKlXtcBTg2inExQyId09eUIcqgmL-DF9RhX1owuvMXWfYgK2yf4sqKXbC75aKjkplCq72NpLej1WOK59a5Lhh-TbAb-OO4VOUPZnQfW0Vw0k9nd06bjOTV07GYQYWVA9wXjPWxPhGd2X16N9YQV9X22bcwo2EwQbGFLLduJmb4yDa4xWDz9wevxGgaAZdIVwCcvwPI3njXnA7DgButShAqopRvbHJWHtO3wtlOF3gbtjf80_KO3e2nzbXaAYapwkwwscOwhlN9jAZ-bzmHbNF50wgAZkl-rtj087cxDHoHVoqUjJkIm9jNmlV03qb-bDdKCjQ0bVsBq9vhnaNOCDsIy9ODD6MlBK6FIgo1BygFM19s0mG7PXN713WBVEiE8H4-uRZpPRJ3pspjsT3mbCUkPOjyLG_WI3TTODbfr3JBCXQD4RxoBtAYR-GBKBdoP9vatYHHA7hb-zeTOTJfH0VJkSAiOAoG_dcKCO9mzQFzsxcKNtJirxy5Pfgn30dlrgF72LMtIFmMJHXA0ELIHw5-xFKPpSZidoIkwfGwnF2GRc9dH1qbkuS8OTi5aZAyRLdyElIcuZslY_SGNUrMuzz99ehMoNNEzZdIEEingz9cGRkmcJihtKQDv9wAxl-qbu99CA1rTC7LHa9jb_m00]--></g></svg>