<?xml version="1.0" encoding="UTF-8" standalone="no"?><svg xmlns="http://www.w3.org/2000/svg" xmlns:xlink="http://www.w3.org/1999/xlink" contentStyleType="text/css" height="533px" preserveAspectRatio="none" style="width:736px;height:533px;background:#FFFFFF;" version="1.1" viewBox="0 0 736 533" width="736px" zoomAndPan="magnify"><defs/><g><line style="stroke:#181818;stroke-width:0.5;stroke-dasharray:5.0,5.0;" x1="49" x2="49" y1="92.24" y2="442.1598"/><line style="stroke:#181818;stroke-width:0.5;stroke-dasharray:5.0,5.0;" x1="686.625" x2="686.625" y1="92.24" y2="442.1598"/><text fill="#000000" font-family="sans-serif" font-size="20" lengthAdjust="spacing" textLength="83" x="5" y="86.38">Manager</text><ellipse cx="49.5" cy="13.5" fill="#E2E2F0" rx="8" ry="8" style="stroke:#181818;stroke-width:0.5;"/><path d="M49.5,21.5 L49.5,48.5 M36.5,29.5 L62.5,29.5 M49.5,48.5 L36.5,63.5 M49.5,48.5 L62.5,63.5 " fill="none" style="stroke:#181818;stroke-width:0.5;"/><text fill="#000000" font-family="sans-serif" font-size="20" lengthAdjust="spacing" textLength="83" x="5" y="462.5398">Manager</text><ellipse cx="49.5" cy="476.8997" fill="#E2E2F0" rx="8" ry="8" style="stroke:#181818;stroke-width:0.5;"/><path d="M49.5,484.8997 L49.5,511.8997 M36.5,492.8997 L62.5,492.8997 M49.5,511.8997 L36.5,526.8997 M49.5,511.8997 L62.5,526.8997 " fill="none" style="stroke:#181818;stroke-width:0.5;"/><rect fill="#E2E2F0" height="41.24" rx="2.5" ry="2.5" style="stroke:#181818;stroke-width:0.5;" width="87" x="643.625" y="50"/><text fill="#000000" font-family="sans-serif" font-size="20" lengthAdjust="spacing" textLength="73" x="650.625" y="78.38">:System</text><rect fill="#E2E2F0" height="41.24" rx="2.5" ry="2.5" style="stroke:#181818;stroke-width:0.5;" width="87" x="643.625" y="441.1598"/><text fill="#000000" font-family="sans-serif" font-size="20" lengthAdjust="spacing" textLength="73" x="650.625" y="469.5398">:System</text><polygon fill="#181818" points="675.125,131.4799,685.125,135.4799,675.125,139.4799,679.125,135.4799" style="stroke:#181818;stroke-width:1.0;"/><line style="stroke:#181818;stroke-width:1.0;" x1="49.5" x2="681.125" y1="135.4799" y2="135.4799"/><text fill="#000000" font-family="sans-serif" font-size="20" font-weight="bold" lengthAdjust="spacing" textLength="11.625" x="56.5" y="127.62">1</text><text fill="#000000" font-family="sans-serif" font-size="20" lengthAdjust="spacing" textLength="308" x="72.125" y="127.62">requests to change course status</text><polygon fill="#181818" points="60.5,172.7199,50.5,176.7199,60.5,180.7199,56.5,176.7199" style="stroke:#181818;stroke-width:1.0;"/><line style="stroke:#181818;stroke-width:1.0;" x1="54.5" x2="686.125" y1="176.7199" y2="176.7199"/><text fill="#000000" font-family="sans-serif" font-size="20" font-weight="bold" lengthAdjust="spacing" textLength="11.625" x="66.5" y="168.8599">2</text><text fill="#000000" font-family="sans-serif" font-size="20" lengthAdjust="spacing" textLength="349" x="82.125" y="168.8599">lists all the possible toggle operations</text><polygon fill="#181818" points="675.125,213.9599,685.125,217.9599,675.125,221.9599,679.125,217.9599" style="stroke:#181818;stroke-width:1.0;"/><line style="stroke:#181818;stroke-width:1.0;" x1="49.5" x2="681.125" y1="217.9599" y2="217.9599"/><text fill="#000000" font-family="sans-serif" font-size="20" font-weight="bold" lengthAdjust="spacing" textLength="11.625" x="56.5" y="210.0999">3</text><text fill="#000000" font-family="sans-serif" font-size="20" lengthAdjust="spacing" textLength="104" x="72.125" y="210.0999">selects one</text><polygon fill="#181818" points="60.5,255.1999,50.5,259.1999,60.5,263.1999,56.5,259.1999" style="stroke:#181818;stroke-width:1.0;"/><line style="stroke:#181818;stroke-width:1.0;" x1="54.5" x2="686.125" y1="259.1999" y2="259.1999"/><text fill="#000000" font-family="sans-serif" font-size="20" font-weight="bold" lengthAdjust="spacing" textLength="11.625" x="66.5" y="251.3399">4</text><text fill="#000000" font-family="sans-serif" font-size="20" lengthAdjust="spacing" textLength="598" x="82.125" y="251.3399">displays all the available courses for the chosen toggle operation</text><polygon fill="#181818" points="675.125,296.4398,685.125,300.4398,675.125,304.4398,679.125,300.4398" style="stroke:#181818;stroke-width:1.0;"/><line style="stroke:#181818;stroke-width:1.0;" x1="49.5" x2="681.125" y1="300.4398" y2="300.4398"/><text fill="#000000" font-family="sans-serif" font-size="20" font-weight="bold" lengthAdjust="spacing" textLength="11.625" x="56.5" y="292.5799">5</text><text fill="#000000" font-family="sans-serif" font-size="20" lengthAdjust="spacing" textLength="241" x="72.125" y="292.5799">selects the desired course</text><polygon fill="#181818" points="60.5,337.6798,50.5,341.6798,60.5,345.6798,56.5,341.6798" style="stroke:#181818;stroke-width:1.0;"/><line style="stroke:#181818;stroke-width:1.0;" x1="54.5" x2="686.125" y1="341.6798" y2="341.6798"/><text fill="#000000" font-family="sans-serif" font-size="20" font-weight="bold" lengthAdjust="spacing" textLength="11.625" x="66.5" y="333.8198">6</text><text fill="#000000" font-family="sans-serif" font-size="20" lengthAdjust="spacing" textLength="441" x="82.125" y="333.8198">asks to confirm the change of the course status</text><polygon fill="#181818" points="675.125,378.9198,685.125,382.9198,675.125,386.9198,679.125,382.9198" style="stroke:#181818;stroke-width:1.0;"/><line style="stroke:#181818;stroke-width:1.0;" x1="49.5" x2="681.125" y1="382.9198" y2="382.9198"/><text fill="#000000" font-family="sans-serif" font-size="20" font-weight="bold" lengthAdjust="spacing" textLength="11.625" x="56.5" y="375.0598">7</text><text fill="#000000" font-family="sans-serif" font-size="20" lengthAdjust="spacing" textLength="178" x="72.125" y="375.0598">confirms operation</text><polygon fill="#181818" points="60.5,420.1598,50.5,424.1598,60.5,428.1598,56.5,424.1598" style="stroke:#181818;stroke-width:1.0;"/><line style="stroke:#181818;stroke-width:1.0;" x1="54.5" x2="686.125" y1="424.1598" y2="424.1598"/><text fill="#000000" font-family="sans-serif" font-size="20" font-weight="bold" lengthAdjust="spacing" textLength="11.625" x="66.5" y="416.2998">8</text><text fill="#000000" font-family="sans-serif" font-size="20" lengthAdjust="spacing" textLength="246" x="82.125" y="416.2998">informs operation success</text><!--SRC=[VP4zRiCm34PtdOBmqYbDqT53nswTSW96fct2akYAL83qz9L_WAQeqKaInCT7VTA9qumPOn0_KGSTzLY2lKko2tyHlBwufz5irlPydWCcAp4yUubdfSz2oTEfOnmgxz2RP6W-CE50kG5KYDlULO6nvxdYqBINknh5jK3NhSDYaagyrbBdTWXER_jr2tbngIcOW1yn3GHUIbO2DRIYpcsL2xFZBGHU20m1R2IOHPMlWMgBOQYBp9JHM98U6fK2-OfBeiFc7MjDu_xJ7s_80HV1Dfb2NzDORlmeIkcFzr_jmdMadEkFRFqEfq2TjamazPpZhblpaNux_OxfGBcp-ZZPWOfJVSzZ5MZndbJTDm00]--></g></svg>