<?xml version="1.0" encoding="UTF-8" standalone="no"?><svg xmlns="http://www.w3.org/2000/svg" xmlns:xlink="http://www.w3.org/1999/xlink" contentStyleType="text/css" height="494px" preserveAspectRatio="none" style="width:796px;height:494px;background:#FFFFFF;" version="1.1" viewBox="0 0 796 494" width="796px" zoomAndPan="magnify"><defs/><g><line style="stroke:#181818;stroke-width:0.5;stroke-dasharray:5.0,5.0;" x1="51" x2="51" y1="88.2813" y2="406.5313"/><line style="stroke:#181818;stroke-width:0.5;stroke-dasharray:5.0,5.0;" x1="742" x2="742" y1="88.2813" y2="406.5313"/><text fill="#000000" font-family="sans-serif" font-size="20" lengthAdjust="spacing" textLength="87" x="5" y="83.5645">Manager</text><ellipse cx="51.5" cy="13.5" fill="#E2E2F0" rx="8" ry="8" style="stroke:#181818;stroke-width:0.5;"/><path d="M51.5,21.5 L51.5,48.5 M38.5,29.5 L64.5,29.5 M51.5,48.5 L38.5,63.5 M51.5,48.5 L64.5,63.5 " fill="none" style="stroke:#181818;stroke-width:0.5;"/><text fill="#000000" font-family="sans-serif" font-size="20" lengthAdjust="spacing" textLength="87" x="5" y="424.0957">Manager</text><ellipse cx="51.5" cy="437.3125" fill="#E2E2F0" rx="8" ry="8" style="stroke:#181818;stroke-width:0.5;"/><path d="M51.5,445.3125 L51.5,472.3125 M38.5,453.3125 L64.5,453.3125 M51.5,472.3125 L38.5,487.3125 M51.5,472.3125 L64.5,487.3125 " fill="none" style="stroke:#181818;stroke-width:0.5;"/><rect fill="#E2E2F0" height="37.2813" rx="2.5" ry="2.5" style="stroke:#181818;stroke-width:0.5;" width="95" x="695" y="50"/><text fill="#000000" font-family="sans-serif" font-size="20" lengthAdjust="spacing" textLength="81" x="702" y="75.5645">:System</text><rect fill="#E2E2F0" height="37.2813" rx="2.5" ry="2.5" style="stroke:#181818;stroke-width:0.5;" width="95" x="695" y="405.5313"/><text fill="#000000" font-family="sans-serif" font-size="20" lengthAdjust="spacing" textLength="81" x="702" y="431.0957">:System</text><polygon fill="#181818" points="730.5,123.5625,740.5,127.5625,730.5,131.5625,734.5,127.5625" style="stroke:#181818;stroke-width:1.0;"/><line style="stroke:#181818;stroke-width:1.0;" x1="51.5" x2="736.5" y1="127.5625" y2="127.5625"/><text fill="#000000" font-family="sans-serif" font-size="20" font-weight="bold" lengthAdjust="spacing" textLength="14" x="58.5" y="120.8457">1</text><text fill="#000000" font-family="sans-serif" font-size="20" lengthAdjust="spacing" textLength="331" x="76.5" y="120.8457">requests to change course status</text><polygon fill="#181818" points="62.5,160.8438,52.5,164.8438,62.5,168.8438,58.5,164.8438" style="stroke:#181818;stroke-width:1.0;"/><line style="stroke:#181818;stroke-width:1.0;" x1="56.5" x2="741.5" y1="164.8438" y2="164.8438"/><text fill="#000000" font-family="sans-serif" font-size="20" font-weight="bold" lengthAdjust="spacing" textLength="14" x="68.5" y="158.127">2</text><text fill="#000000" font-family="sans-serif" font-size="20" lengthAdjust="spacing" textLength="379" x="86.5" y="158.127">lists all the possible toggle operations</text><polygon fill="#181818" points="730.5,198.125,740.5,202.125,730.5,206.125,734.5,202.125" style="stroke:#181818;stroke-width:1.0;"/><line style="stroke:#181818;stroke-width:1.0;" x1="51.5" x2="736.5" y1="202.125" y2="202.125"/><text fill="#000000" font-family="sans-serif" font-size="20" font-weight="bold" lengthAdjust="spacing" textLength="14" x="58.5" y="195.4082">3</text><text fill="#000000" font-family="sans-serif" font-size="20" lengthAdjust="spacing" textLength="112" x="76.5" y="195.4082">selects one</text><polygon fill="#181818" points="62.5,235.4063,52.5,239.4063,62.5,243.4063,58.5,239.4063" style="stroke:#181818;stroke-width:1.0;"/><line style="stroke:#181818;stroke-width:1.0;" x1="56.5" x2="741.5" y1="239.4063" y2="239.4063"/><text fill="#000000" font-family="sans-serif" font-size="20" font-weight="bold" lengthAdjust="spacing" textLength="14" x="68.5" y="232.6895">4</text><text fill="#000000" font-family="sans-serif" font-size="20" lengthAdjust="spacing" textLength="649" x="86.5" y="232.6895">displays all the available courses for the chosen toggle operation</text><polygon fill="#181818" points="730.5,272.6875,740.5,276.6875,730.5,280.6875,734.5,276.6875" style="stroke:#181818;stroke-width:1.0;"/><line style="stroke:#181818;stroke-width:1.0;" x1="51.5" x2="736.5" y1="276.6875" y2="276.6875"/><text fill="#000000" font-family="sans-serif" font-size="20" font-weight="bold" lengthAdjust="spacing" textLength="14" x="58.5" y="269.9707">5</text><text fill="#000000" font-family="sans-serif" font-size="20" lengthAdjust="spacing" textLength="260" x="76.5" y="269.9707">selects the desired course</text><polygon fill="#181818" points="62.5,309.9688,52.5,313.9688,62.5,317.9688,58.5,313.9688" style="stroke:#181818;stroke-width:1.0;"/><line style="stroke:#181818;stroke-width:1.0;" x1="56.5" x2="741.5" y1="313.9688" y2="313.9688"/><text fill="#000000" font-family="sans-serif" font-size="20" font-weight="bold" lengthAdjust="spacing" textLength="14" x="68.5" y="307.252">6</text><text fill="#000000" font-family="sans-serif" font-size="20" lengthAdjust="spacing" textLength="475" x="86.5" y="307.252">asks to confirm the change of the course status</text><polygon fill="#181818" points="730.5,347.25,740.5,351.25,730.5,355.25,734.5,351.25" style="stroke:#181818;stroke-width:1.0;"/><line style="stroke:#181818;stroke-width:1.0;" x1="51.5" x2="736.5" y1="351.25" y2="351.25"/><text fill="#000000" font-family="sans-serif" font-size="20" font-weight="bold" lengthAdjust="spacing" textLength="14" x="58.5" y="344.5332">7</text><text fill="#000000" font-family="sans-serif" font-size="20" lengthAdjust="spacing" textLength="189" x="76.5" y="344.5332">confirms operation</text><polygon fill="#181818" points="62.5,384.5313,52.5,388.5313,62.5,392.5313,58.5,388.5313" style="stroke:#181818;stroke-width:1.0;"/><line style="stroke:#181818;stroke-width:1.0;" x1="56.5" x2="741.5" y1="388.5313" y2="388.5313"/><text fill="#000000" font-family="sans-serif" font-size="20" font-weight="bold" lengthAdjust="spacing" textLength="14" x="68.5" y="381.8145">8</text><text fill="#000000" font-family="sans-serif" font-size="20" lengthAdjust="spacing" textLength="261" x="86.5" y="381.8145">informs operation success</text><!--SRC=[VP4zRiCm34PtdOBmqYbDqT53nswTSW96fct2akYAL83qz9L_WAQeqKaInCT7VTA9qumPOn0_KGSTzLY2lKko2tyHlBwufz5irlPydWCcAp4yUubdfSz2oTEfOnmgxz2RP6W-CE50kG5KYDlULO6nvxdYqBINknh5jK3NhSDYaagyrbBdTWXER_jr2tbngIcOW1yn3GHUIbO2DRIYpcsL2xFZBGHU20m1R2IOHPMlWMgBOQYBp9JHM98U6fK2-OfBeiFc7MjDu_xJ7s_80HV1Dfb2NzDORlmeIkcFzr_jmdMadEkFRFqEfq2TjamazPpZhblpaNux_OxfGBcp-ZZPWOfJVSzZ5MZndbJTDm00]--></g></svg>