<?xml version="1.0" encoding="UTF-8" standalone="no"?><svg xmlns="http://www.w3.org/2000/svg" xmlns:xlink="http://www.w3.org/1999/xlink" contentStyleType="text/css" height="573px" preserveAspectRatio="none" style="width:1431px;height:573px;background:#FFFFFF;" version="1.1" viewBox="0 0 1431 573" width="1431px" zoomAndPan="magnify"><defs/><g><!--cluster <<aggregate>> Course--><g id="cluster_&lt;&lt;aggregate&gt;&gt; Course"><path d="M8.5,7.2168 L239.5,7.2168 A3.75,3.75 0 0 1 242,9.7168 L249,36.498 L1099.5,36.498 A2.5,2.5 0 0 1 1102,38.998 L1102,392.7168 A2.5,2.5 0 0 1 1099.5,395.2168 L8.5,395.2168 A2.5,2.5 0 0 1 6,392.7168 L6,9.7168 A2.5,2.5 0 0 1 8.5,7.2168 " fill="none" style="stroke:#000000;stroke-width:1.5;"/><line style="stroke:#000000;stroke-width:1.5;" x1="6" x2="249" y1="36.498" y2="36.498"/><text fill="#000000" font-family="sans-serif" font-size="20" font-weight="bold" lengthAdjust="spacing" textLength="230" x="10" y="27.7813">«aggregate» Course</text></g><!--cluster <<aggregate>> Teacher--><g id="cluster_&lt;&lt;aggregate&gt;&gt; Teacher"><path d="M1083.5,428.2168 L1327.5,428.2168 A3.75,3.75 0 0 1 1330,430.7168 L1337,457.498 L1337.5,457.498 A2.5,2.5 0 0 1 1340,459.998 L1340,563.7168 A2.5,2.5 0 0 1 1337.5,566.2168 L1083.5,566.2168 A2.5,2.5 0 0 1 1081,563.7168 L1081,430.7168 A2.5,2.5 0 0 1 1083.5,428.2168 " fill="none" style="stroke:#000000;stroke-width:1.5;"/><line style="stroke:#000000;stroke-width:1.5;" x1="1081" x2="1337" y1="457.498" y2="457.498"/><text fill="#000000" font-family="sans-serif" font-size="20" font-weight="bold" lengthAdjust="spacing" textLength="243" x="1085" y="448.7813">«aggregate» Teacher</text></g><!--class Course--><g id="elem_Course"><rect codeLine="26" fill="#F5F5DC" height="134.4063" id="Course" rx="2.5" ry="2.5" style="stroke:#181818;stroke-width:0.5;" width="117" x="715.5" y="49.2168"/><ellipse cx="733.3" cy="89.1387" fill="#ADD1B2" rx="12" ry="12" style="stroke:#181818;stroke-width:1.0;"/><path d="M738.0188,96.6387 L728.9406,96.6387 L728.9406,82.0605 L738.0188,82.0605 L738.0188,84.5918 L731.8156,84.5918 L731.8156,87.748 L737.4406,87.748 L737.4406,90.2793 L731.8156,90.2793 L731.8156,94.0918 L738.0188,94.0918 L738.0188,96.6387 Z " fill="#000000"/><text fill="#000000" font-family="sans-serif" font-size="20" font-style="italic" lengthAdjust="spacing" textLength="83" x="746.7" y="72.7813">«entity»</text><text fill="#000000" font-family="sans-serif" font-size="20" font-style="italic" lengthAdjust="spacing" textLength="64" x="756.2" y="96.0625">«root»</text><text fill="#000000" font-family="sans-serif" font-size="20" lengthAdjust="spacing" textLength="69" x="753.7" y="119.3438">Course</text><line style="stroke:#181818;stroke-width:0.5;" x1="716.5" x2="831.5" y1="129.0605" y2="129.0605"/><text fill="#000000" font-family="sans-serif" font-size="20" lengthAdjust="spacing" textLength="55" x="721.5" y="151.625">-code</text><text fill="#000000" font-family="sans-serif" font-size="20" lengthAdjust="spacing" textLength="105" x="721.5" y="174.9063">-createdAt</text></g><!--class Title--><g id="elem_Title"><rect codeLine="42" fill="#F5F5DC" height="56.5625" id="Title" rx="2.5" ry="2.5" style="stroke:#181818;stroke-width:0.5;" width="177" x="21.5" y="295.2168"/><ellipse cx="37.5" cy="323.498" fill="#FF8B40" rx="12" ry="12" style="stroke:#181818;stroke-width:1.0;"/><path d="M37.5156,329.3418 L40.0781,317.1699 L42.9844,317.1699 L39.5156,331.748 L35.5313,331.748 L32.0625,317.1699 L34.9531,317.1699 L37.5156,329.3418 Z " fill="#000000"/><text fill="#000000" font-family="sans-serif" font-size="20" font-style="italic" lengthAdjust="spacing" textLength="147" x="50.5" y="318.7813">«value object»</text><text fill="#000000" font-family="sans-serif" font-size="20" lengthAdjust="spacing" textLength="44" x="102" y="342.0625">Title</text></g><!--class EnrolmentState--><g id="elem_EnrolmentState"><rect codeLine="43" fill="#F5F5DC" height="56.5625" id="EnrolmentState" rx="2.5" ry="2.5" style="stroke:#181818;stroke-width:0.5;" width="192" x="234" y="295.2168"/><ellipse cx="250" cy="323.498" fill="#FF8B40" rx="12" ry="12" style="stroke:#181818;stroke-width:1.0;"/><path d="M250.0156,329.3418 L252.5781,317.1699 L255.4844,317.1699 L252.0156,331.748 L248.0313,331.748 L244.5625,317.1699 L247.4531,317.1699 L250.0156,329.3418 Z " fill="#000000"/><text fill="#000000" font-family="sans-serif" font-size="20" font-style="italic" lengthAdjust="spacing" textLength="147" x="270.5" y="318.7813">«value object»</text><text fill="#000000" font-family="sans-serif" font-size="20" lengthAdjust="spacing" textLength="158" x="265" y="342.0625">EnrolmentState</text></g><!--class CourseState--><g id="elem_CourseState"><rect codeLine="44" fill="#F5F5DC" height="56.5625" id="CourseState" rx="2.5" ry="2.5" style="stroke:#181818;stroke-width:0.5;" width="177" x="461.5" y="295.2168"/><ellipse cx="477.5" cy="323.498" fill="#FF8B40" rx="12" ry="12" style="stroke:#181818;stroke-width:1.0;"/><path d="M477.5156,329.3418 L480.0781,317.1699 L482.9844,317.1699 L479.5156,331.748 L475.5313,331.748 L472.0625,317.1699 L474.9531,317.1699 L477.5156,329.3418 Z " fill="#000000"/><text fill="#000000" font-family="sans-serif" font-size="20" font-style="italic" lengthAdjust="spacing" textLength="147" x="490.5" y="318.7813">«value object»</text><text fill="#000000" font-family="sans-serif" font-size="20" lengthAdjust="spacing" textLength="122" x="503" y="342.0625">CourseState</text></g><!--class EnrolmentLimits--><g id="elem_EnrolmentLimits"><rect codeLine="21" fill="#F5F5DC" height="111.125" id="EnrolmentLimits" rx="2.5" ry="2.5" style="stroke:#181818;stroke-width:0.5;" width="200" x="674" y="268.2168"/><ellipse cx="690" cy="296.498" fill="#FF8B40" rx="12" ry="12" style="stroke:#181818;stroke-width:1.0;"/><path d="M690.0156,302.3418 L692.5781,290.1699 L695.4844,290.1699 L692.0156,304.748 L688.0313,304.748 L684.5625,290.1699 L687.4531,290.1699 L690.0156,302.3418 Z " fill="#000000"/><text fill="#000000" font-family="sans-serif" font-size="20" font-style="italic" lengthAdjust="spacing" textLength="147" x="714.5" y="291.7813">«value object»</text><text fill="#000000" font-family="sans-serif" font-size="20" lengthAdjust="spacing" textLength="166" x="705" y="315.0625">EnrolmentLimits</text><line style="stroke:#181818;stroke-width:0.5;" x1="675" x2="873" y1="324.7793" y2="324.7793"/><text fill="#000000" font-family="sans-serif" font-size="20" lengthAdjust="spacing" textLength="46" x="680" y="347.3438">-min</text><text fill="#000000" font-family="sans-serif" font-size="20" lengthAdjust="spacing" textLength="50" x="680" y="370.625">-max</text></g><!--class Description--><g id="elem_Description"><rect codeLine="20" fill="#F5F5DC" height="56.5625" id="Description" rx="2.5" ry="2.5" style="stroke:#181818;stroke-width:0.5;" width="177" x="909.5" y="295.2168"/><ellipse cx="925.5" cy="323.498" fill="#FF8B40" rx="12" ry="12" style="stroke:#181818;stroke-width:1.0;"/><path d="M925.5156,329.3418 L928.0781,317.1699 L930.9844,317.1699 L927.5156,331.748 L923.5313,331.748 L920.0625,317.1699 L922.9531,317.1699 L925.5156,329.3418 Z " fill="#000000"/><text fill="#000000" font-family="sans-serif" font-size="20" font-style="italic" lengthAdjust="spacing" textLength="147" x="938.5" y="318.7813">«value object»</text><text fill="#000000" font-family="sans-serif" font-size="20" lengthAdjust="spacing" textLength="114" x="955" y="342.0625">Description</text></g><!--class Teacher--><g id="elem_Teacher"><rect codeLine="35" fill="#F5F5DC" height="79.8438" id="Teacher" rx="2.5" ry="2.5" style="stroke:#181818;stroke-width:0.5;" width="114" x="1154" y="470.2168"/><ellipse cx="1170" cy="510.1387" fill="#ADD1B2" rx="12" ry="12" style="stroke:#181818;stroke-width:1.0;"/><path d="M1174.7188,517.6387 L1165.6406,517.6387 L1165.6406,503.0605 L1174.7188,503.0605 L1174.7188,505.5918 L1168.5156,505.5918 L1168.5156,508.748 L1174.1406,508.748 L1174.1406,511.2793 L1168.5156,511.2793 L1168.5156,515.0918 L1174.7188,515.0918 L1174.7188,517.6387 Z " fill="#000000"/><text fill="#000000" font-family="sans-serif" font-size="20" font-style="italic" lengthAdjust="spacing" textLength="83" x="1183.5" y="493.7813">«entity»</text><text fill="#000000" font-family="sans-serif" font-size="20" font-style="italic" lengthAdjust="spacing" textLength="64" x="1193" y="517.0625">«root»</text><text fill="#000000" font-family="sans-serif" font-size="20" lengthAdjust="spacing" textLength="80" x="1185" y="540.3438">Teacher</text></g><g id="elem_GMN11"><path d="M468.5,458.7168 L468.5,561.8418 A0,0 0 0 0 468.5,561.8418 L631.5,561.8418 A0,0 0 0 0 631.5,561.8418 L631.5,468.7168 L621.5,458.7168 L554,458.7168 L550,352.3368 L546,458.7168 L468.5,458.7168 A0,0 0 0 0 468.5,458.7168 " fill="#FEFFDD" style="stroke:#181818;stroke-width:0.5;"/><path d="M621.5,458.7168 L621.5,468.7168 L631.5,468.7168 L621.5,458.7168 " fill="#FEFFDD" style="stroke:#181818;stroke-width:0.5;"/><text fill="#000000" font-family="sans-serif" font-size="20" lengthAdjust="spacing" textLength="82" x="474.5" y="482.2813">CLOSED</text><text fill="#000000" font-family="sans-serif" font-size="20" lengthAdjust="spacing" textLength="56" x="474.5" y="505.5625">OPEN</text><text fill="#000000" font-family="sans-serif" font-size="20" lengthAdjust="spacing" textLength="142" x="474.5" y="528.8438">IN_PROGRESS</text><text fill="#000000" font-family="sans-serif" font-size="20" lengthAdjust="spacing" textLength="95" x="474.5" y="552.125">FINISHED</text></g><g id="elem_GMN14"><path d="M278.5,481.7168 L278.5,538.2793 A0,0 0 0 0 278.5,538.2793 L381.5,538.2793 A0,0 0 0 0 381.5,538.2793 L381.5,491.7168 L371.5,481.7168 L334,481.7168 L330,352.3368 L326,481.7168 L278.5,481.7168 A0,0 0 0 0 278.5,481.7168 " fill="#FEFFDD" style="stroke:#181818;stroke-width:0.5;"/><path d="M371.5,481.7168 L371.5,491.7168 L381.5,491.7168 L371.5,481.7168 " fill="#FEFFDD" style="stroke:#181818;stroke-width:0.5;"/><text fill="#000000" font-family="sans-serif" font-size="20" lengthAdjust="spacing" textLength="82" x="284.5" y="505.2813">CLOSED</text><text fill="#000000" font-family="sans-serif" font-size="20" lengthAdjust="spacing" textLength="56" x="284.5" y="528.5625">OPEN</text></g><!--link Course to Title--><g id="link_Course_Title"><path codeLine="46" d="M715.41,128.9168 C612.5,150.3968 393.46,200.1968 217,268.2168 C199.13,275.1068 180.31,284.0668 163.52,292.7268 " fill="none" id="Course-to-Title" style="stroke:#222222;stroke-width:1.0;"/><polygon fill="#222222" points="158.84,295.1568,168.6707,294.5585,163.2773,292.8523,164.9835,287.4589,158.84,295.1568" style="stroke:#222222;stroke-width:1.0;"/><text fill="#000000" font-family="sans-serif" font-size="20" lengthAdjust="spacing" textLength="75" x="367" y="232.7813">is titled</text><text fill="#000000" font-family="sans-serif" font-size="20" lengthAdjust="spacing" textLength="13" x="154.5726" y="282.533">1</text></g><!--link Course to EnrolmentState--><g id="link_Course_EnrolmentState"><path codeLine="47" d="M715.44,143.6568 C649.37,173.5668 538.73,223.8968 444,268.2168 C427.11,276.1168 408.86,284.7768 392.03,292.8268 " fill="none" id="Course-to-EnrolmentState" style="stroke:#222222;stroke-width:1.0;"/><polygon fill="#222222" points="387.32,295.0868,397.1651,294.8155,391.8314,292.931,393.7159,287.5973,387.32,295.0868" style="stroke:#222222;stroke-width:1.0;"/><text fill="#000000" font-family="sans-serif" font-size="20" lengthAdjust="spacing" textLength="41" x="562" y="232.7813">is in</text><text fill="#000000" font-family="sans-serif" font-size="20" lengthAdjust="spacing" textLength="13" x="384.8016" y="282.4486">1</text></g><!--link Course to Teacher--><g id="link_Course_Teacher"><path codeLine="48" d="M832.66,130.4268 C905.03,149.4868 1027.81,191.1568 1104,268.2168 C1158.88,323.7168 1188.12,412.1968 1201.53,465.0968 " fill="none" id="Course-to-Teacher" style="stroke:#222222;stroke-width:1.0;"/><polygon fill="#222222" points="1202.78,470.1068,1204.4777,460.4054,1201.5673,465.2561,1196.7166,462.3457,1202.78,470.1068" style="stroke:#222222;stroke-width:1.0;"/><text fill="#000000" font-family="sans-serif" font-size="20" lengthAdjust="spacing" textLength="35" x="1183" y="330.7813">has</text><text fill="#000000" font-family="sans-serif" font-size="20" lengthAdjust="spacing" textLength="35" x="1163.6809" y="457.4808">1..*</text></g><!--link Course to Teacher--><g id="link_Course_Teacher"><path codeLine="49" d="M832.63,116.4868 C933.16,118.8468 1136.18,140.1468 1225,268.2168 C1265.49,326.5968 1246.21,413.3468 1228.57,465.2868 " fill="none" id="Course-to-Teacher-1" style="stroke:#222222;stroke-width:1.0;"/><polygon fill="#222222" points="1226.87,470.2068,1233.5827,462.9999,1228.4982,465.4793,1226.0188,460.3948,1226.87,470.2068" style="stroke:#222222;stroke-width:1.0;"/><text fill="#000000" font-family="sans-serif" font-size="20" lengthAdjust="spacing" textLength="174" x="1249" y="330.7813">has a responsible</text><text fill="#000000" font-family="sans-serif" font-size="20" lengthAdjust="spacing" textLength="13" x="1215.3633" y="457.5967">1</text></g><!--link Course to CourseState--><g id="link_Course_CourseState"><path codeLine="50" d="M715.44,170.9368 C673.54,209.3768 618.61,259.7768 583.8,291.7068 " fill="none" id="Course-to-CourseState" style="stroke:#222222;stroke-width:1.0;"/><polygon fill="#222222" points="580.08,295.1268,589.4206,292.0037,583.7693,291.7521,584.021,286.1008,580.08,295.1268" style="stroke:#222222;stroke-width:1.0;"/><text fill="#000000" font-family="sans-serif" font-size="20" lengthAdjust="spacing" textLength="41" x="669" y="232.7813">is in</text><text fill="#000000" font-family="sans-serif" font-size="20" lengthAdjust="spacing" textLength="13" x="571.9434" y="282.4968">1</text></g><!--link Course to Description--><g id="link_Course_Description"><path codeLine="51" d="M832.56,170.9368 C874.46,209.3768 929.39,259.7768 964.2,291.7068 " fill="none" id="Course-to-Description" style="stroke:#222222;stroke-width:1.0;"/><polygon fill="#222222" points="967.92,295.1268,963.979,286.1008,964.2307,291.7521,958.5794,292.0037,967.92,295.1268" style="stroke:#222222;stroke-width:1.0;"/><text fill="#000000" font-family="sans-serif" font-size="20" lengthAdjust="spacing" textLength="35" x="900" y="232.7813">has</text><text fill="#000000" font-family="sans-serif" font-size="20" lengthAdjust="spacing" textLength="13" x="947.3754" y="282.4968">1</text></g><!--link Course to EnrolmentLimits--><g id="link_Course_EnrolmentLimits"><path codeLine="52" d="M774,183.3668 C774,208.8968 774,237.8768 774,262.7868 " fill="none" id="Course-to-EnrolmentLimits" style="stroke:#222222;stroke-width:1.0;"/><polygon fill="#222222" points="774,268.0368,778,259.0368,774,263.0368,770,259.0368,774,268.0368" style="stroke:#222222;stroke-width:1.0;"/><text fill="#000000" font-family="sans-serif" font-size="20" lengthAdjust="spacing" textLength="35" x="775" y="232.7813">has</text><text fill="#000000" font-family="sans-serif" font-size="20" lengthAdjust="spacing" textLength="13" x="760.2078" y="255.4232">1</text></g><!--SRC=[bLDBRvj04BxlhnYHGn-g7urwg2naoR5nQocoen3rPAbQO09RmmxQ7VgAyj-x1fjYd2Wj5zXllyVEp69tIfVIo2AdU8S997WlgvoNf3bKln4kn-9LnbpQoMXKvb9pLUJ3c8fHd4jh1ucIgHCBOOy-K6_Cc8sAAiPLJBes6ejC9GXObFmBv77RTj42EQF4zhskPBnB3LKwcLDE1Y9KANP8CsFeHxDrSLa_GfHE8rC4p_TbcXfC9UDq2dEgZ4KF7WG0QbOkj8640-emk5ESOxiAjA6ySDIGdKCBDw86E-TUgqAnRV45sjYeaXLfyIZ46GY-__hBkulbykFLX_4R-2xp2e6YRnYpE_B3etZI_WMLInz0eNJpbZ_toISLEtspTcpVDqH_PJ4bs7mOT1KcCzwhdsdf7SeuGtFIqmFMoJmWpuGwdj34214nKm5qt-qmJ61-lGc3nLPlReBrLg_MNszkDvzkWp3SwkLglGe_1uk-mUdaUXx7ATJ3_j_-DuR_9kgMyP9270Op64p1U-yT3ZS1PO7tdqcVS5QYOxg9jwoQDXo-zThsJo2JzYodkmaI3DgIj5MH-mzwrDEfzE8QIlTYFndNlySDwGy0]--></g></svg>