<?xml version="1.0" encoding="us-ascii" standalone="no"?><svg xmlns="http://www.w3.org/2000/svg" xmlns:xlink="http://www.w3.org/1999/xlink" contentStyleType="text/css" height="1086px" preserveAspectRatio="none" style="width:1205px;height:1086px;background:#FFFFFF;" version="1.1" viewBox="0 0 1205 1086" width="1205px" zoomAndPan="magnify"><defs/><g><!--class ToggleCourseStatusUI--><g id="elem_ToggleCourseStatusUI"><rect codeLine="2" fill="#F1F1F1" height="48" id="ToggleCourseStatusUI" rx="2.5" ry="2.5" style="stroke:#181818;stroke-width:0.5;" width="174" x="264.5" y="7"/><ellipse cx="279.5" cy="23" fill="#ADD1B2" rx="11" ry="11" style="stroke:#181818;stroke-width:1.0;"/><path d="M282.2656,18.875 Q282.4219,18.6563 282.6094,18.5469 Q282.7969,18.4375 283.0156,18.4375 Q283.3906,18.4375 283.625,18.7031 Q283.8594,18.9531 283.8594,19.5625 L283.8594,21.0156 Q283.8594,21.625 283.625,21.8906 Q283.3906,22.1563 283.0156,22.1563 Q282.6719,22.1563 282.4688,21.9531 Q282.2656,21.7656 282.1563,21.25 Q282.1094,20.8906 281.9219,20.7031 Q281.5938,20.3281 280.9844,20.1094 Q280.375,19.8906 279.75,19.8906 Q278.9844,19.8906 278.3438,20.2188 Q277.7188,20.5469 277.2188,21.2969 Q276.7344,22.0469 276.7344,23.0781 L276.7344,24.1719 Q276.7344,25.4063 277.625,26.2344 Q278.5156,27.0469 280.1094,27.0469 Q281.0469,27.0469 281.7031,26.7969 Q282.0938,26.6406 282.5156,26.2031 Q282.7813,25.9375 282.9219,25.8594 Q283.0781,25.7813 283.2813,25.7813 Q283.6094,25.7813 283.8594,26.0469 Q284.125,26.2969 284.125,26.6406 Q284.125,26.9844 283.7813,27.3906 Q283.2813,27.9688 282.4844,28.2969 Q281.4063,28.75 280.1094,28.75 Q278.5938,28.75 277.3906,28.125 Q276.4063,27.625 275.7188,26.5625 Q275.0313,25.4844 275.0313,24.2031 L275.0313,23.0469 Q275.0313,21.7188 275.6406,20.5781 Q276.2656,19.4219 277.3594,18.8125 Q278.4531,18.1875 279.6875,18.1875 Q280.4219,18.1875 281.0625,18.3594 Q281.7188,18.5156 282.2656,18.875 Z " fill="#000000"/><text fill="#000000" font-family="sans-serif" font-size="14" lengthAdjust="spacing" textLength="142" x="293.5" y="28.7969">ToggleCourseStatusUI</text><line style="stroke:#181818;stroke-width:0.5;" x1="265.5" x2="437.5" y1="39" y2="39"/><line style="stroke:#181818;stroke-width:0.5;" x1="265.5" x2="437.5" y1="47" y2="47"/></g><!--class ToggleCourseStatusController--><g id="elem_ToggleCourseStatusController"><rect codeLine="6" fill="#F1F1F1" height="159.7266" id="ToggleCourseStatusController" rx="2.5" ry="2.5" style="stroke:#181818;stroke-width:0.5;" width="224" x="239.5" y="115"/><ellipse cx="254.5" cy="131" fill="#ADD1B2" rx="11" ry="11" style="stroke:#181818;stroke-width:1.0;"/><path d="M257.2656,126.875 Q257.4219,126.6563 257.6094,126.5469 Q257.7969,126.4375 258.0156,126.4375 Q258.3906,126.4375 258.625,126.7031 Q258.8594,126.9531 258.8594,127.5625 L258.8594,129.0156 Q258.8594,129.625 258.625,129.8906 Q258.3906,130.1563 258.0156,130.1563 Q257.6719,130.1563 257.4688,129.9531 Q257.2656,129.7656 257.1563,129.25 Q257.1094,128.8906 256.9219,128.7031 Q256.5938,128.3281 255.9844,128.1094 Q255.375,127.8906 254.75,127.8906 Q253.9844,127.8906 253.3438,128.2188 Q252.7188,128.5469 252.2188,129.2969 Q251.7344,130.0469 251.7344,131.0781 L251.7344,132.1719 Q251.7344,133.4063 252.625,134.2344 Q253.5156,135.0469 255.1094,135.0469 Q256.0469,135.0469 256.7031,134.7969 Q257.0938,134.6406 257.5156,134.2031 Q257.7813,133.9375 257.9219,133.8594 Q258.0781,133.7813 258.2813,133.7813 Q258.6094,133.7813 258.8594,134.0469 Q259.125,134.2969 259.125,134.6406 Q259.125,134.9844 258.7813,135.3906 Q258.2813,135.9688 257.4844,136.2969 Q256.4063,136.75 255.1094,136.75 Q253.5938,136.75 252.3906,136.125 Q251.4063,135.625 250.7188,134.5625 Q250.0313,133.4844 250.0313,132.2031 L250.0313,131.0469 Q250.0313,129.7188 250.6406,128.5781 Q251.2656,127.4219 252.3594,126.8125 Q253.4531,126.1875 254.6875,126.1875 Q255.4219,126.1875 256.0625,126.3594 Q256.7188,126.5156 257.2656,126.875 Z " fill="#000000"/><text fill="#000000" font-family="sans-serif" font-size="14" lengthAdjust="spacing" textLength="192" x="268.5" y="136.7969">ToggleCourseStatusController</text><line style="stroke:#181818;stroke-width:0.5;" x1="240.5" x2="462.5" y1="147" y2="147"/><rect fill="none" height="6" style="stroke:#C82930;stroke-width:1.0;" width="6" x="247.5" y="158.8105"/><text fill="#000000" font-family="sans-serif" font-size="14" lengthAdjust="spacing" textLength="112" x="259.5" y="166.1074">courseListService</text><rect fill="none" height="6" style="stroke:#C82930;stroke-width:1.0;" width="6" x="247.5" y="177.4316"/><text fill="#000000" font-family="sans-serif" font-size="14" lengthAdjust="spacing" textLength="111" x="259.5" y="184.7285">courseRepository</text><rect fill="none" height="6" style="stroke:#C82930;stroke-width:1.0;" width="6" x="247.5" y="196.0527"/><text fill="#000000" font-family="sans-serif" font-size="14" lengthAdjust="spacing" textLength="128" x="259.5" y="203.3496">authorizationService</text><line style="stroke:#181818;stroke-width:0.5;" x1="240.5" x2="462.5" y1="210.8633" y2="210.8633"/><ellipse cx="250.5" cy="225.6738" fill="#84BE84" rx="3" ry="3" style="stroke:#038048;stroke-width:1.0;"/><text fill="#000000" font-family="sans-serif" font-size="14" lengthAdjust="spacing" textLength="115" x="259.5" y="229.9707">listOpenCourses()</text><ellipse cx="250.5" cy="244.2949" fill="#84BE84" rx="3" ry="3" style="stroke:#038048;stroke-width:1.0;"/><text fill="#000000" font-family="sans-serif" font-size="14" lengthAdjust="spacing" textLength="124" x="259.5" y="248.5918">listClosedCourses()</text><ellipse cx="250.5" cy="262.916" fill="#84BE84" rx="3" ry="3" style="stroke:#038048;stroke-width:1.0;"/><text fill="#000000" font-family="sans-serif" font-size="14" lengthAdjust="spacing" textLength="178" x="259.5" y="267.2129">toggleCourseStatus(course)</text></g><!--class Course--><g id="elem_Course"><rect codeLine="16" fill="#F1F1F1" height="196.9688" id="Course" rx="2.5" ry="2.5" style="stroke:#181818;stroke-width:0.5;" width="166" x="652.5" y="555"/><ellipse cx="708.25" cy="571" fill="#ADD1B2" rx="11" ry="11" style="stroke:#181818;stroke-width:1.0;"/><path d="M711.0156,566.875 Q711.1719,566.6563 711.3594,566.5469 Q711.5469,566.4375 711.7656,566.4375 Q712.1406,566.4375 712.375,566.7031 Q712.6094,566.9531 712.6094,567.5625 L712.6094,569.0156 Q712.6094,569.625 712.375,569.8906 Q712.1406,570.1563 711.7656,570.1563 Q711.4219,570.1563 711.2188,569.9531 Q711.0156,569.7656 710.9063,569.25 Q710.8594,568.8906 710.6719,568.7031 Q710.3438,568.3281 709.7344,568.1094 Q709.125,567.8906 708.5,567.8906 Q707.7344,567.8906 707.0938,568.2188 Q706.4688,568.5469 705.9688,569.2969 Q705.4844,570.0469 705.4844,571.0781 L705.4844,572.1719 Q705.4844,573.4063 706.375,574.2344 Q707.2656,575.0469 708.8594,575.0469 Q709.7969,575.0469 710.4531,574.7969 Q710.8438,574.6406 711.2656,574.2031 Q711.5313,573.9375 711.6719,573.8594 Q711.8281,573.7813 712.0313,573.7813 Q712.3594,573.7813 712.6094,574.0469 Q712.875,574.2969 712.875,574.6406 Q712.875,574.9844 712.5313,575.3906 Q712.0313,575.9688 711.2344,576.2969 Q710.1563,576.75 708.8594,576.75 Q707.3438,576.75 706.1406,576.125 Q705.1563,575.625 704.4688,574.5625 Q703.7813,573.4844 703.7813,572.2031 L703.7813,571.0469 Q703.7813,569.7188 704.3906,568.5781 Q705.0156,567.4219 706.1094,566.8125 Q707.2031,566.1875 708.4375,566.1875 Q709.1719,566.1875 709.8125,566.3594 Q710.4688,566.5156 711.0156,566.875 Z " fill="#000000"/><text fill="#000000" font-family="sans-serif" font-size="14" lengthAdjust="spacing" textLength="46" x="728.75" y="576.7969">Course</text><line style="stroke:#181818;stroke-width:0.5;" x1="653.5" x2="817.5" y1="587" y2="587"/><rect fill="none" height="6" style="stroke:#C82930;stroke-width:1.0;" width="6" x="660.5" y="598.8105"/><text fill="#000000" font-family="sans-serif" font-size="14" lengthAdjust="spacing" textLength="31" x="672.5" y="606.1074">code</text><rect fill="none" height="6" style="stroke:#C82930;stroke-width:1.0;" width="6" x="660.5" y="617.4316"/><text fill="#000000" font-family="sans-serif" font-size="14" lengthAdjust="spacing" textLength="22" x="672.5" y="624.7285">title</text><rect fill="none" height="6" style="stroke:#C82930;stroke-width:1.0;" width="6" x="660.5" y="636.0527"/><text fill="#000000" font-family="sans-serif" font-size="14" lengthAdjust="spacing" textLength="69" x="672.5" y="643.3496">description</text><rect fill="none" height="6" style="stroke:#C82930;stroke-width:1.0;" width="6" x="660.5" y="654.6738"/><text fill="#000000" font-family="sans-serif" font-size="14" lengthAdjust="spacing" textLength="99" x="672.5" y="661.9707">enrolmentLimits</text><rect fill="none" height="6" style="stroke:#C82930;stroke-width:1.0;" width="6" x="660.5" y="673.2949"/><text fill="#000000" font-family="sans-serif" font-size="14" lengthAdjust="spacing" textLength="76" x="672.5" y="680.5918">courseState</text><rect fill="none" height="6" style="stroke:#C82930;stroke-width:1.0;" width="6" x="660.5" y="691.916"/><text fill="#000000" font-family="sans-serif" font-size="14" lengthAdjust="spacing" textLength="140" x="672.5" y="699.2129">courseEnrolmentState</text><rect fill="none" height="6" style="stroke:#C82930;stroke-width:1.0;" width="6" x="660.5" y="710.5371"/><text fill="#000000" font-family="sans-serif" font-size="14" lengthAdjust="spacing" textLength="61" x="672.5" y="717.834">createdAt</text><line style="stroke:#181818;stroke-width:0.5;" x1="653.5" x2="817.5" y1="725.3477" y2="725.3477"/><ellipse cx="663.5" cy="740.1582" fill="#84BE84" rx="3" ry="3" style="stroke:#038048;stroke-width:1.0;"/><text fill="#000000" font-family="sans-serif" font-size="14" lengthAdjust="spacing" textLength="44" x="672.5" y="744.4551">toDto()</text></g><!--class RepositoryFactory--><g id="elem_RepositoryFactory"><rect codeLine="27" fill="#F1F1F1" height="66.6211" id="RepositoryFactory" rx="2.5" ry="2.5" style="stroke:#181818;stroke-width:0.5;" width="152" x="145.5" y="620"/><ellipse cx="162.3" cy="636" fill="#ADD1B2" rx="11" ry="11" style="stroke:#181818;stroke-width:1.0;"/><path d="M165.0656,631.875 Q165.2219,631.6563 165.4094,631.5469 Q165.5969,631.4375 165.8156,631.4375 Q166.1906,631.4375 166.425,631.7031 Q166.6594,631.9531 166.6594,632.5625 L166.6594,634.0156 Q166.6594,634.625 166.425,634.8906 Q166.1906,635.1563 165.8156,635.1563 Q165.4719,635.1563 165.2688,634.9531 Q165.0656,634.7656 164.9563,634.25 Q164.9094,633.8906 164.7219,633.7031 Q164.3938,633.3281 163.7844,633.1094 Q163.175,632.8906 162.55,632.8906 Q161.7844,632.8906 161.1438,633.2188 Q160.5188,633.5469 160.0188,634.2969 Q159.5344,635.0469 159.5344,636.0781 L159.5344,637.1719 Q159.5344,638.4063 160.425,639.2344 Q161.3156,640.0469 162.9094,640.0469 Q163.8469,640.0469 164.5031,639.7969 Q164.8938,639.6406 165.3156,639.2031 Q165.5813,638.9375 165.7219,638.8594 Q165.8781,638.7813 166.0813,638.7813 Q166.4094,638.7813 166.6594,639.0469 Q166.925,639.2969 166.925,639.6406 Q166.925,639.9844 166.5813,640.3906 Q166.0813,640.9688 165.2844,641.2969 Q164.2063,641.75 162.9094,641.75 Q161.3938,641.75 160.1906,641.125 Q159.2063,640.625 158.5188,639.5625 Q157.8313,638.4844 157.8313,637.2031 L157.8313,636.0469 Q157.8313,634.7188 158.4406,633.5781 Q159.0656,632.4219 160.1594,631.8125 Q161.2531,631.1875 162.4875,631.1875 Q163.2219,631.1875 163.8625,631.3594 Q164.5188,631.5156 165.0656,631.875 Z " fill="#000000"/><text fill="#000000" font-family="sans-serif" font-size="14" lengthAdjust="spacing" textLength="116" x="176.7" y="641.7969">RepositoryFactory</text><line style="stroke:#181818;stroke-width:0.5;" x1="146.5" x2="296.5" y1="652" y2="652"/><line style="stroke:#181818;stroke-width:0.5;" x1="146.5" x2="296.5" y1="660" y2="660"/><ellipse cx="156.5" cy="674.8105" fill="#84BE84" rx="3" ry="3" style="stroke:#038048;stroke-width:1.0;"/><text fill="#000000" font-family="sans-serif" font-size="14" lengthAdjust="spacing" textLength="126" x="165.5" y="679.1074">RepositoryFactory()</text></g><!--class CourseRepository--><g id="elem_CourseRepository"><rect codeLine="31" fill="#F1F1F1" height="103.8633" id="CourseRepository" rx="2.5" ry="2.5" style="stroke:#181818;stroke-width:0.5;" width="146" x="148.5" y="812"/><ellipse cx="163.5" cy="828" fill="#B4A7E5" rx="11" ry="11" style="stroke:#181818;stroke-width:1.0;"/><path d="M164.4531,824.6406 L164.4531,831.2969 L166.1719,831.2969 Q166.7813,831.2969 167.0469,831.5313 Q167.3125,831.7656 167.3125,832.1563 Q167.3125,832.5313 167.0469,832.7656 Q166.7813,833 166.1719,833 L161.0313,833 Q160.4219,833 160.1563,832.7656 Q159.8906,832.5313 159.8906,832.1406 Q159.8906,831.7656 160.1563,831.5313 Q160.4219,831.2969 161.0313,831.2969 L162.75,831.2969 L162.75,824.6406 L161.0313,824.6406 Q160.4219,824.6406 160.1563,824.4063 Q159.8906,824.1719 159.8906,823.7813 Q159.8906,823.4063 160.1563,823.1719 Q160.4219,822.9375 161.0313,822.9375 L166.1719,822.9375 Q166.7813,822.9375 167.0469,823.1719 Q167.3125,823.4063 167.3125,823.7813 Q167.3125,824.1719 167.0469,824.4063 Q166.7813,824.6406 166.1719,824.6406 L164.4531,824.6406 Z " fill="#000000"/><text fill="#000000" font-family="sans-serif" font-size="14" font-style="italic" lengthAdjust="spacing" textLength="114" x="177.5" y="833.7969">CourseRepository</text><line style="stroke:#181818;stroke-width:0.5;" x1="149.5" x2="293.5" y1="844" y2="844"/><line style="stroke:#181818;stroke-width:0.5;" x1="149.5" x2="293.5" y1="852" y2="852"/><ellipse cx="159.5" cy="866.8105" fill="#84BE84" rx="3" ry="3" style="stroke:#038048;stroke-width:1.0;"/><text fill="#000000" font-family="sans-serif" font-size="14" lengthAdjust="spacing" textLength="83" x="168.5" y="871.1074">save(course)</text><ellipse cx="159.5" cy="885.4316" fill="#84BE84" rx="3" ry="3" style="stroke:#038048;stroke-width:1.0;"/><text fill="#000000" font-family="sans-serif" font-size="14" lengthAdjust="spacing" textLength="83" x="168.5" y="889.7285">findAllOpen()</text><ellipse cx="159.5" cy="904.0527" fill="#84BE84" rx="3" ry="3" style="stroke:#038048;stroke-width:1.0;"/><text fill="#000000" font-family="sans-serif" font-size="14" lengthAdjust="spacing" textLength="92" x="168.5" y="908.3496">findAllClosed()</text></g><!--class CourseListService--><g id="elem_CourseListService"><rect codeLine="37" fill="#F1F1F1" height="159.7266" id="CourseListService" rx="2.5" ry="2.5" style="stroke:#181818;stroke-width:0.5;" width="240" x="404.5" y="335"/><ellipse cx="462.75" cy="351" fill="#ADD1B2" rx="11" ry="11" style="stroke:#181818;stroke-width:1.0;"/><path d="M465.5156,346.875 Q465.6719,346.6563 465.8594,346.5469 Q466.0469,346.4375 466.2656,346.4375 Q466.6406,346.4375 466.875,346.7031 Q467.1094,346.9531 467.1094,347.5625 L467.1094,349.0156 Q467.1094,349.625 466.875,349.8906 Q466.6406,350.1563 466.2656,350.1563 Q465.9219,350.1563 465.7188,349.9531 Q465.5156,349.7656 465.4063,349.25 Q465.3594,348.8906 465.1719,348.7031 Q464.8438,348.3281 464.2344,348.1094 Q463.625,347.8906 463,347.8906 Q462.2344,347.8906 461.5938,348.2188 Q460.9688,348.5469 460.4688,349.2969 Q459.9844,350.0469 459.9844,351.0781 L459.9844,352.1719 Q459.9844,353.4063 460.875,354.2344 Q461.7656,355.0469 463.3594,355.0469 Q464.2969,355.0469 464.9531,354.7969 Q465.3438,354.6406 465.7656,354.2031 Q466.0313,353.9375 466.1719,353.8594 Q466.3281,353.7813 466.5313,353.7813 Q466.8594,353.7813 467.1094,354.0469 Q467.375,354.2969 467.375,354.6406 Q467.375,354.9844 467.0313,355.3906 Q466.5313,355.9688 465.7344,356.2969 Q464.6563,356.75 463.3594,356.75 Q461.8438,356.75 460.6406,356.125 Q459.6563,355.625 458.9688,354.5625 Q458.2813,353.4844 458.2813,352.2031 L458.2813,351.0469 Q458.2813,349.7188 458.8906,348.5781 Q459.5156,347.4219 460.6094,346.8125 Q461.7031,346.1875 462.9375,346.1875 Q463.6719,346.1875 464.3125,346.3594 Q464.9688,346.5156 465.5156,346.875 Z " fill="#000000"/><text fill="#000000" font-family="sans-serif" font-size="14" lengthAdjust="spacing" textLength="115" x="483.25" y="356.7969">CourseListService</text><line style="stroke:#181818;stroke-width:0.5;" x1="405.5" x2="643.5" y1="367" y2="367"/><rect fill="none" height="6" style="stroke:#C82930;stroke-width:1.0;" width="6" x="412.5" y="378.8105"/><text fill="#000000" font-family="sans-serif" font-size="14" lengthAdjust="spacing" textLength="111" x="424.5" y="386.1074">courseRepository</text><line style="stroke:#181818;stroke-width:0.5;" x1="405.5" x2="643.5" y1="393.6211" y2="393.6211"/><ellipse cx="415.5" cy="408.4316" fill="#84BE84" rx="3" ry="3" style="stroke:#038048;stroke-width:1.0;"/><text fill="#000000" font-family="sans-serif" font-size="14" lengthAdjust="spacing" textLength="214" x="424.5" y="412.7285">CourseService(courseRepository)</text><text fill="#000000" font-family="sans-serif" font-size="14" lengthAdjust="spacing" textLength="4" x="424.5" y="431.3496">&#160;</text><ellipse cx="415.5" cy="445.6738" fill="#84BE84" rx="3" ry="3" style="stroke:#038048;stroke-width:1.0;"/><text fill="#000000" font-family="sans-serif" font-size="14" lengthAdjust="spacing" textLength="124" x="424.5" y="449.9707">listClosedCourses()</text><ellipse cx="415.5" cy="464.2949" fill="#84BE84" rx="3" ry="3" style="stroke:#038048;stroke-width:1.0;"/><text fill="#000000" font-family="sans-serif" font-size="14" lengthAdjust="spacing" textLength="115" x="424.5" y="468.5918">listOpenCourses()</text><ellipse cx="415.5" cy="482.916" fill="#84BE84" rx="3" ry="3" style="stroke:#038048;stroke-width:1.0;"/><text fill="#000000" font-family="sans-serif" font-size="14" lengthAdjust="spacing" textLength="83" x="424.5" y="487.2129">save(course)</text></g><!--class CourseDTO--><g id="elem_CourseDTO"><rect codeLine="47" fill="#F1F1F1" height="178.3477" id="CourseDTO" rx="2.5" ry="2.5" style="stroke:#181818;stroke-width:0.5;" width="166" x="1032.5" y="564.5"/><ellipse cx="1073.6" cy="580.5" fill="#ADD1B2" rx="11" ry="11" style="stroke:#181818;stroke-width:1.0;"/><path d="M1076.3656,576.375 Q1076.5219,576.1563 1076.7094,576.0469 Q1076.8969,575.9375 1077.1156,575.9375 Q1077.4906,575.9375 1077.725,576.2031 Q1077.9594,576.4531 1077.9594,577.0625 L1077.9594,578.5156 Q1077.9594,579.125 1077.725,579.3906 Q1077.4906,579.6563 1077.1156,579.6563 Q1076.7719,579.6563 1076.5688,579.4531 Q1076.3656,579.2656 1076.2563,578.75 Q1076.2094,578.3906 1076.0219,578.2031 Q1075.6938,577.8281 1075.0844,577.6094 Q1074.475,577.3906 1073.85,577.3906 Q1073.0844,577.3906 1072.4438,577.7188 Q1071.8188,578.0469 1071.3188,578.7969 Q1070.8344,579.5469 1070.8344,580.5781 L1070.8344,581.6719 Q1070.8344,582.9063 1071.725,583.7344 Q1072.6156,584.5469 1074.2094,584.5469 Q1075.1469,584.5469 1075.8031,584.2969 Q1076.1938,584.1406 1076.6156,583.7031 Q1076.8813,583.4375 1077.0219,583.3594 Q1077.1781,583.2813 1077.3813,583.2813 Q1077.7094,583.2813 1077.9594,583.5469 Q1078.225,583.7969 1078.225,584.1406 Q1078.225,584.4844 1077.8813,584.8906 Q1077.3813,585.4688 1076.5844,585.7969 Q1075.5063,586.25 1074.2094,586.25 Q1072.6938,586.25 1071.4906,585.625 Q1070.5063,585.125 1069.8188,584.0625 Q1069.1313,582.9844 1069.1313,581.7031 L1069.1313,580.5469 Q1069.1313,579.2188 1069.7406,578.0781 Q1070.3656,576.9219 1071.4594,576.3125 Q1072.5531,575.6875 1073.7875,575.6875 Q1074.5219,575.6875 1075.1625,575.8594 Q1075.8188,576.0156 1076.3656,576.375 Z " fill="#000000"/><text fill="#000000" font-family="sans-serif" font-size="14" lengthAdjust="spacing" textLength="76" x="1093.4" y="586.2969">CourseDTO</text><line style="stroke:#181818;stroke-width:0.5;" x1="1033.5" x2="1197.5" y1="596.5" y2="596.5"/><rect fill="none" height="6" style="stroke:#C82930;stroke-width:1.0;" width="6" x="1040.5" y="608.3105"/><text fill="#000000" font-family="sans-serif" font-size="14" lengthAdjust="spacing" textLength="31" x="1052.5" y="615.6074">code</text><rect fill="none" height="6" style="stroke:#C82930;stroke-width:1.0;" width="6" x="1040.5" y="626.9316"/><text fill="#000000" font-family="sans-serif" font-size="14" lengthAdjust="spacing" textLength="22" x="1052.5" y="634.2285">title</text><rect fill="none" height="6" style="stroke:#C82930;stroke-width:1.0;" width="6" x="1040.5" y="645.5527"/><text fill="#000000" font-family="sans-serif" font-size="14" lengthAdjust="spacing" textLength="69" x="1052.5" y="652.8496">description</text><rect fill="none" height="6" style="stroke:#C82930;stroke-width:1.0;" width="6" x="1040.5" y="664.1738"/><text fill="#000000" font-family="sans-serif" font-size="14" lengthAdjust="spacing" textLength="99" x="1052.5" y="671.4707">enrolmentLimits</text><rect fill="none" height="6" style="stroke:#C82930;stroke-width:1.0;" width="6" x="1040.5" y="682.7949"/><text fill="#000000" font-family="sans-serif" font-size="14" lengthAdjust="spacing" textLength="76" x="1052.5" y="690.0918">courseState</text><rect fill="none" height="6" style="stroke:#C82930;stroke-width:1.0;" width="6" x="1040.5" y="701.416"/><text fill="#000000" font-family="sans-serif" font-size="14" lengthAdjust="spacing" textLength="140" x="1052.5" y="708.7129">courseEnrolmentState</text><rect fill="none" height="6" style="stroke:#C82930;stroke-width:1.0;" width="6" x="1040.5" y="720.0371"/><text fill="#000000" font-family="sans-serif" font-size="14" lengthAdjust="spacing" textLength="61" x="1052.5" y="727.334">createdAt</text><line style="stroke:#181818;stroke-width:0.5;" x1="1033.5" x2="1197.5" y1="734.8477" y2="734.8477"/></g><!--class CourseDTOParser--><g id="elem_CourseDTOParser"><rect codeLine="57" fill="#F1F1F1" height="66.6211" id="CourseDTOParser" rx="2.5" ry="2.5" style="stroke:#181818;stroke-width:0.5;" width="158" x="1036.5" y="381.5"/><ellipse cx="1055.1" cy="397.5" fill="#ADD1B2" rx="11" ry="11" style="stroke:#181818;stroke-width:1.0;"/><path d="M1057.8656,393.375 Q1058.0219,393.1563 1058.2094,393.0469 Q1058.3969,392.9375 1058.6156,392.9375 Q1058.9906,392.9375 1059.225,393.2031 Q1059.4594,393.4531 1059.4594,394.0625 L1059.4594,395.5156 Q1059.4594,396.125 1059.225,396.3906 Q1058.9906,396.6563 1058.6156,396.6563 Q1058.2719,396.6563 1058.0688,396.4531 Q1057.8656,396.2656 1057.7563,395.75 Q1057.7094,395.3906 1057.5219,395.2031 Q1057.1938,394.8281 1056.5844,394.6094 Q1055.975,394.3906 1055.35,394.3906 Q1054.5844,394.3906 1053.9438,394.7188 Q1053.3188,395.0469 1052.8188,395.7969 Q1052.3344,396.5469 1052.3344,397.5781 L1052.3344,398.6719 Q1052.3344,399.9063 1053.225,400.7344 Q1054.1156,401.5469 1055.7094,401.5469 Q1056.6469,401.5469 1057.3031,401.2969 Q1057.6938,401.1406 1058.1156,400.7031 Q1058.3813,400.4375 1058.5219,400.3594 Q1058.6781,400.2813 1058.8813,400.2813 Q1059.2094,400.2813 1059.4594,400.5469 Q1059.725,400.7969 1059.725,401.1406 Q1059.725,401.4844 1059.3813,401.8906 Q1058.8813,402.4688 1058.0844,402.7969 Q1057.0063,403.25 1055.7094,403.25 Q1054.1938,403.25 1052.9906,402.625 Q1052.0063,402.125 1051.3188,401.0625 Q1050.6313,399.9844 1050.6313,398.7031 L1050.6313,397.5469 Q1050.6313,396.2188 1051.2406,395.0781 Q1051.8656,393.9219 1052.9594,393.3125 Q1054.0531,392.6875 1055.2875,392.6875 Q1056.0219,392.6875 1056.6625,392.8594 Q1057.3188,393.0156 1057.8656,393.375 Z " fill="#000000"/><text fill="#000000" font-family="sans-serif" font-size="14" lengthAdjust="spacing" textLength="118" x="1069.9" y="403.2969">CourseDTOParser</text><line style="stroke:#181818;stroke-width:0.5;" x1="1037.5" x2="1193.5" y1="413.5" y2="413.5"/><line style="stroke:#181818;stroke-width:0.5;" x1="1037.5" x2="1193.5" y1="421.5" y2="421.5"/><ellipse cx="1047.5" cy="436.3105" fill="#84BE84" rx="3" ry="3" style="stroke:#038048;stroke-width:1.0;"/><text fill="#000000" font-family="sans-serif" font-size="14" lengthAdjust="spacing" textLength="132" x="1056.5" y="440.6074">valueOf(courseDTO)</text></g><!--class InMemoryCourseRepository--><g id="elem_InMemoryCourseRepository"><rect codeLine="62" fill="#F1F1F1" height="103.8633" id="InMemoryCourseRepository" rx="2.5" ry="2.5" style="stroke:#181818;stroke-width:0.5;" width="207" x="7" y="976"/><ellipse cx="22" cy="992" fill="#ADD1B2" rx="11" ry="11" style="stroke:#181818;stroke-width:1.0;"/><path d="M24.7656,987.875 Q24.9219,987.6563 25.1094,987.5469 Q25.2969,987.4375 25.5156,987.4375 Q25.8906,987.4375 26.125,987.7031 Q26.3594,987.9531 26.3594,988.5625 L26.3594,990.0156 Q26.3594,990.625 26.125,990.8906 Q25.8906,991.1563 25.5156,991.1563 Q25.1719,991.1563 24.9688,990.9531 Q24.7656,990.7656 24.6563,990.25 Q24.6094,989.8906 24.4219,989.7031 Q24.0938,989.3281 23.4844,989.1094 Q22.875,988.8906 22.25,988.8906 Q21.4844,988.8906 20.8438,989.2188 Q20.2188,989.5469 19.7188,990.2969 Q19.2344,991.0469 19.2344,992.0781 L19.2344,993.1719 Q19.2344,994.4063 20.125,995.2344 Q21.0156,996.0469 22.6094,996.0469 Q23.5469,996.0469 24.2031,995.7969 Q24.5938,995.6406 25.0156,995.2031 Q25.2813,994.9375 25.4219,994.8594 Q25.5781,994.7813 25.7813,994.7813 Q26.1094,994.7813 26.3594,995.0469 Q26.625,995.2969 26.625,995.6406 Q26.625,995.9844 26.2813,996.3906 Q25.7813,996.9688 24.9844,997.2969 Q23.9063,997.75 22.6094,997.75 Q21.0938,997.75 19.8906,997.125 Q18.9063,996.625 18.2188,995.5625 Q17.5313,994.4844 17.5313,993.2031 L17.5313,992.0469 Q17.5313,990.7188 18.1406,989.5781 Q18.7656,988.4219 19.8594,987.8125 Q20.9531,987.1875 22.1875,987.1875 Q22.9219,987.1875 23.5625,987.3594 Q24.2188,987.5156 24.7656,987.875 Z " fill="#000000"/><text fill="#000000" font-family="sans-serif" font-size="14" lengthAdjust="spacing" textLength="175" x="36" y="997.7969">InMemoryCourseRepository</text><line style="stroke:#181818;stroke-width:0.5;" x1="8" x2="213" y1="1008" y2="1008"/><line style="stroke:#181818;stroke-width:0.5;" x1="8" x2="213" y1="1016" y2="1016"/><ellipse cx="18" cy="1030.8105" fill="#84BE84" rx="3" ry="3" style="stroke:#038048;stroke-width:1.0;"/><text fill="#000000" font-family="sans-serif" font-size="14" lengthAdjust="spacing" textLength="83" x="27" y="1035.1074">save(course)</text><ellipse cx="18" cy="1049.4316" fill="#84BE84" rx="3" ry="3" style="stroke:#038048;stroke-width:1.0;"/><text fill="#000000" font-family="sans-serif" font-size="14" lengthAdjust="spacing" textLength="83" x="27" y="1053.7285">findAllOpen()</text><ellipse cx="18" cy="1068.0527" fill="#84BE84" rx="3" ry="3" style="stroke:#038048;stroke-width:1.0;"/><text fill="#000000" font-family="sans-serif" font-size="14" lengthAdjust="spacing" textLength="92" x="27" y="1072.3496">findAllClosed()</text></g><!--class JpaCourseRepository--><g id="elem_JpaCourseRepository"><rect codeLine="68" fill="#F1F1F1" height="103.8633" id="JpaCourseRepository" rx="2.5" ry="2.5" style="stroke:#181818;stroke-width:0.5;" width="168" x="249.5" y="976"/><ellipse cx="264.5" cy="992" fill="#ADD1B2" rx="11" ry="11" style="stroke:#181818;stroke-width:1.0;"/><path d="M267.2656,987.875 Q267.4219,987.6563 267.6094,987.5469 Q267.7969,987.4375 268.0156,987.4375 Q268.3906,987.4375 268.625,987.7031 Q268.8594,987.9531 268.8594,988.5625 L268.8594,990.0156 Q268.8594,990.625 268.625,990.8906 Q268.3906,991.1563 268.0156,991.1563 Q267.6719,991.1563 267.4688,990.9531 Q267.2656,990.7656 267.1563,990.25 Q267.1094,989.8906 266.9219,989.7031 Q266.5938,989.3281 265.9844,989.1094 Q265.375,988.8906 264.75,988.8906 Q263.9844,988.8906 263.3438,989.2188 Q262.7188,989.5469 262.2188,990.2969 Q261.7344,991.0469 261.7344,992.0781 L261.7344,993.1719 Q261.7344,994.4063 262.625,995.2344 Q263.5156,996.0469 265.1094,996.0469 Q266.0469,996.0469 266.7031,995.7969 Q267.0938,995.6406 267.5156,995.2031 Q267.7813,994.9375 267.9219,994.8594 Q268.0781,994.7813 268.2813,994.7813 Q268.6094,994.7813 268.8594,995.0469 Q269.125,995.2969 269.125,995.6406 Q269.125,995.9844 268.7813,996.3906 Q268.2813,996.9688 267.4844,997.2969 Q266.4063,997.75 265.1094,997.75 Q263.5938,997.75 262.3906,997.125 Q261.4063,996.625 260.7188,995.5625 Q260.0313,994.4844 260.0313,993.2031 L260.0313,992.0469 Q260.0313,990.7188 260.6406,989.5781 Q261.2656,988.4219 262.3594,987.8125 Q263.4531,987.1875 264.6875,987.1875 Q265.4219,987.1875 266.0625,987.3594 Q266.7188,987.5156 267.2656,987.875 Z " fill="#000000"/><text fill="#000000" font-family="sans-serif" font-size="14" lengthAdjust="spacing" textLength="136" x="278.5" y="997.7969">JpaCourseRepository</text><line style="stroke:#181818;stroke-width:0.5;" x1="250.5" x2="416.5" y1="1008" y2="1008"/><line style="stroke:#181818;stroke-width:0.5;" x1="250.5" x2="416.5" y1="1016" y2="1016"/><ellipse cx="260.5" cy="1030.8105" fill="#84BE84" rx="3" ry="3" style="stroke:#038048;stroke-width:1.0;"/><text fill="#000000" font-family="sans-serif" font-size="14" lengthAdjust="spacing" textLength="83" x="269.5" y="1035.1074">save(course)</text><ellipse cx="260.5" cy="1049.4316" fill="#84BE84" rx="3" ry="3" style="stroke:#038048;stroke-width:1.0;"/><text fill="#000000" font-family="sans-serif" font-size="14" lengthAdjust="spacing" textLength="83" x="269.5" y="1053.7285">findAllOpen()</text><ellipse cx="260.5" cy="1068.0527" fill="#84BE84" rx="3" ry="3" style="stroke:#038048;stroke-width:1.0;"/><text fill="#000000" font-family="sans-serif" font-size="14" lengthAdjust="spacing" textLength="92" x="269.5" y="1072.3496">findAllClosed()</text></g><!--class PersistenceContext--><g id="elem_PersistenceContext"><rect codeLine="74" fill="#F1F1F1" height="66.6211" id="PersistenceContext" rx="2.5" ry="2.5" style="stroke:#181818;stroke-width:0.5;" width="154" x="144.5" y="381.5"/><ellipse cx="159.5" cy="397.5" fill="#ADD1B2" rx="11" ry="11" style="stroke:#181818;stroke-width:1.0;"/><path d="M162.2656,393.375 Q162.4219,393.1563 162.6094,393.0469 Q162.7969,392.9375 163.0156,392.9375 Q163.3906,392.9375 163.625,393.2031 Q163.8594,393.4531 163.8594,394.0625 L163.8594,395.5156 Q163.8594,396.125 163.625,396.3906 Q163.3906,396.6563 163.0156,396.6563 Q162.6719,396.6563 162.4688,396.4531 Q162.2656,396.2656 162.1563,395.75 Q162.1094,395.3906 161.9219,395.2031 Q161.5938,394.8281 160.9844,394.6094 Q160.375,394.3906 159.75,394.3906 Q158.9844,394.3906 158.3438,394.7188 Q157.7188,395.0469 157.2188,395.7969 Q156.7344,396.5469 156.7344,397.5781 L156.7344,398.6719 Q156.7344,399.9063 157.625,400.7344 Q158.5156,401.5469 160.1094,401.5469 Q161.0469,401.5469 161.7031,401.2969 Q162.0938,401.1406 162.5156,400.7031 Q162.7813,400.4375 162.9219,400.3594 Q163.0781,400.2813 163.2813,400.2813 Q163.6094,400.2813 163.8594,400.5469 Q164.125,400.7969 164.125,401.1406 Q164.125,401.4844 163.7813,401.8906 Q163.2813,402.4688 162.4844,402.7969 Q161.4063,403.25 160.1094,403.25 Q158.5938,403.25 157.3906,402.625 Q156.4063,402.125 155.7188,401.0625 Q155.0313,399.9844 155.0313,398.7031 L155.0313,397.5469 Q155.0313,396.2188 155.6406,395.0781 Q156.2656,393.9219 157.3594,393.3125 Q158.4531,392.6875 159.6875,392.6875 Q160.4219,392.6875 161.0625,392.8594 Q161.7188,393.0156 162.2656,393.375 Z " fill="#000000"/><text fill="#000000" font-family="sans-serif" font-size="14" lengthAdjust="spacing" textLength="122" x="173.5" y="403.2969">PersistenceContext</text><line style="stroke:#181818;stroke-width:0.5;" x1="145.5" x2="297.5" y1="413.5" y2="413.5"/><line style="stroke:#181818;stroke-width:0.5;" x1="145.5" x2="297.5" y1="421.5" y2="421.5"/><rect fill="#F24D5C" height="6" style="stroke:#C82930;stroke-width:1.0;" width="6" x="152.5" y="433.3105"/><text fill="#000000" font-family="sans-serif" font-size="14" lengthAdjust="spacing" textLength="84" x="164.5" y="440.6074">repositories()</text></g><!--class CourseState--><g id="elem_CourseState"><rect codeLine="79" fill="#F1F1F1" height="122.4844" id="CourseState" rx="2.5" ry="2.5" style="stroke:#181818;stroke-width:0.5;" width="111" x="680" y="354"/><ellipse cx="695" cy="370" fill="#EB937F" rx="11" ry="11" style="stroke:#181818;stroke-width:1.0;"/><path d="M693.8594,370.7969 L693.8594,373.2969 L698.1875,373.2969 L698.1875,372.375 Q698.1875,371.7656 698.4219,371.5 Q698.6719,371.2344 699.0469,371.2344 Q699.4219,371.2344 699.6563,371.5 Q699.8906,371.7656 699.8906,372.375 L699.8906,375 L691.8906,375 Q691.2656,375 691,374.7656 Q690.75,374.5313 690.75,374.1406 Q690.75,373.7656 691.0156,373.5313 Q691.2813,373.2969 691.8906,373.2969 L692.1563,373.2969 L692.1563,366.6406 L691.8906,366.6406 Q691.2656,366.6406 691,366.4063 Q690.75,366.1719 690.75,365.7813 Q690.75,365.4063 691,365.1719 Q691.2656,364.9375 691.8906,364.9375 L699.5156,364.9375 L699.5156,367.5313 Q699.5156,368.1406 699.2813,368.4063 Q699.0625,368.6563 698.6719,368.6563 Q698.2969,368.6563 698.0625,368.4063 Q697.8281,368.1406 697.8281,367.5313 L697.8281,366.6406 L693.8594,366.6406 L693.8594,369.0938 L695.3438,369.0938 Q695.3438,368.4375 695.4688,368.25 Q695.7344,367.8438 696.2031,367.8438 Q696.5781,367.8438 696.8125,368.1094 Q697.0469,368.3594 697.0469,368.9688 L697.0469,370.9375 Q697.0469,371.4844 696.9219,371.6719 Q696.6563,372.0625 696.2031,372.0625 Q695.7344,372.0625 695.4688,371.6563 Q695.3438,371.4688 695.3438,370.7969 L693.8594,370.7969 Z " fill="#000000"/><text fill="#000000" font-family="sans-serif" font-size="14" lengthAdjust="spacing" textLength="79" x="709" y="375.7969">CourseState</text><line style="stroke:#181818;stroke-width:0.5;" x1="681" x2="790" y1="386" y2="386"/><text fill="#000000" font-family="sans-serif" font-size="14" lengthAdjust="spacing" textLength="57" x="686" y="405.1074">CLOSED</text><text fill="#000000" font-family="sans-serif" font-size="14" lengthAdjust="spacing" textLength="38" x="686" y="423.7285">OPEN</text><text fill="#000000" font-family="sans-serif" font-size="14" lengthAdjust="spacing" textLength="98" x="686" y="442.3496">IN_PROGRESS</text><text fill="#000000" font-family="sans-serif" font-size="14" lengthAdjust="spacing" textLength="61" x="686" y="460.9707">FINISHED</text><line style="stroke:#181818;stroke-width:0.5;" x1="681" x2="790" y1="468.4844" y2="468.4844"/></g><!--class CourseEnrolmentState--><g id="elem_CourseEnrolmentState"><rect codeLine="86" fill="#F1F1F1" height="85.2422" id="CourseEnrolmentState" rx="2.5" ry="2.5" style="stroke:#181818;stroke-width:0.5;" width="175" x="826" y="372.5"/><ellipse cx="841" cy="388.5" fill="#EB937F" rx="11" ry="11" style="stroke:#181818;stroke-width:1.0;"/><path d="M839.8594,389.2969 L839.8594,391.7969 L844.1875,391.7969 L844.1875,390.875 Q844.1875,390.2656 844.4219,390 Q844.6719,389.7344 845.0469,389.7344 Q845.4219,389.7344 845.6563,390 Q845.8906,390.2656 845.8906,390.875 L845.8906,393.5 L837.8906,393.5 Q837.2656,393.5 837,393.2656 Q836.75,393.0313 836.75,392.6406 Q836.75,392.2656 837.0156,392.0313 Q837.2813,391.7969 837.8906,391.7969 L838.1563,391.7969 L838.1563,385.1406 L837.8906,385.1406 Q837.2656,385.1406 837,384.9063 Q836.75,384.6719 836.75,384.2813 Q836.75,383.9063 837,383.6719 Q837.2656,383.4375 837.8906,383.4375 L845.5156,383.4375 L845.5156,386.0313 Q845.5156,386.6406 845.2813,386.9063 Q845.0625,387.1563 844.6719,387.1563 Q844.2969,387.1563 844.0625,386.9063 Q843.8281,386.6406 843.8281,386.0313 L843.8281,385.1406 L839.8594,385.1406 L839.8594,387.5938 L841.3438,387.5938 Q841.3438,386.9375 841.4688,386.75 Q841.7344,386.3438 842.2031,386.3438 Q842.5781,386.3438 842.8125,386.6094 Q843.0469,386.8594 843.0469,387.4688 L843.0469,389.4375 Q843.0469,389.9844 842.9219,390.1719 Q842.6563,390.5625 842.2031,390.5625 Q841.7344,390.5625 841.4688,390.1563 Q841.3438,389.9688 841.3438,389.2969 L839.8594,389.2969 Z " fill="#000000"/><text fill="#000000" font-family="sans-serif" font-size="14" lengthAdjust="spacing" textLength="143" x="855" y="394.2969">CourseEnrolmentState</text><line style="stroke:#181818;stroke-width:0.5;" x1="827" x2="1000" y1="404.5" y2="404.5"/><text fill="#000000" font-family="sans-serif" font-size="14" lengthAdjust="spacing" textLength="38" x="832" y="423.6074">OPEN</text><text fill="#000000" font-family="sans-serif" font-size="14" lengthAdjust="spacing" textLength="57" x="832" y="442.2285">CLOSED</text><line style="stroke:#181818;stroke-width:0.5;" x1="827" x2="1000" y1="449.7422" y2="449.7422"/></g><!--link CourseState to Course--><g id="link_CourseState_Course"><path codeLine="91" d="M735.5,476.29 C735.5,498.52 735.5,524.38 735.5,549.34 " fill="none" id="CourseState-to-Course" style="stroke:#181818;stroke-width:1.0;"/><polygon fill="#181818" points="735.5,554.64,739.5,545.64,735.5,549.64,731.5,545.64,735.5,554.64" style="stroke:#181818;stroke-width:1.0;"/></g><!--link CourseEnrolmentState to Course--><g id="link_CourseEnrolmentState_Course"><path codeLine="92" d="M882.09,457.74 C862.65,483.56 836.79,517.92 812.21,550.59 " fill="none" id="CourseEnrolmentState-to-Course" style="stroke:#181818;stroke-width:1.0;"/><polygon fill="#181818" points="808.9,554.97,817.5,550.17,811.9,550.97,811.1,545.37,808.9,554.97" style="stroke:#181818;stroke-width:1.0;"/></g><!--link PersistenceContext to RepositoryFactory--><g id="link_PersistenceContext_RepositoryFactory"><path codeLine="94" d="M221.5,448.88 C221.5,492.39 221.5,568.91 221.5,614.74 " fill="none" id="PersistenceContext-to-RepositoryFactory" style="stroke:#181818;stroke-width:1.0;stroke-dasharray:7.0,7.0;"/><polygon fill="#181818" points="221.5,619.89,225.5257,610.9015,221.5143,614.89,217.5257,610.8786,221.5,619.89" style="stroke:#181818;stroke-width:1.0;"/></g><!--link RepositoryFactory to CourseRepository--><g id="link_RepositoryFactory_CourseRepository"><path codeLine="95" d="M221.5,687.08 C221.5,719.08 221.5,768.56 221.5,806.9 " fill="none" id="RepositoryFactory-to-CourseRepository" style="stroke:#181818;stroke-width:1.0;"/><polygon fill="#181818" points="221.5,812,225.5,803,221.5,807,217.5,803,221.5,812" style="stroke:#181818;stroke-width:1.0;"/></g><!--reverse link CourseRepository to InMemoryCourseRepository--><g id="link_CourseRepository_InMemoryCourseRepository"><path codeLine="97" d="M175.06,932.78 C165.19,947.18 154.94,962.14 145.58,975.8 " fill="none" id="CourseRepository-backto-InMemoryCourseRepository" style="stroke:#181818;stroke-width:1.0;stroke-dasharray:7.0,7.0;"/><polygon fill="none" points="169.3,928.8,186.38,916.26,180.85,936.71,169.3,928.8" style="stroke:#181818;stroke-width:1.0;"/></g><!--reverse link CourseRepository to JpaCourseRepository--><g id="link_CourseRepository_JpaCourseRepository"><path codeLine="98" d="M268.36,932.78 C278.31,947.18 288.66,962.14 298.1,975.8 " fill="none" id="CourseRepository-backto-JpaCourseRepository" style="stroke:#181818;stroke-width:1.0;stroke-dasharray:7.0,7.0;"/><polygon fill="none" points="262.55,936.69,256.94,916.26,274.07,928.73,262.55,936.69" style="stroke:#181818;stroke-width:1.0;"/></g><!--link ToggleCourseStatusController to PersistenceContext--><g id="link_ToggleCourseStatusController_PersistenceContext"><path codeLine="99" d="M304.38,275.01 C283.62,309.83 260.22,349.07 243.59,376.95 " fill="none" id="ToggleCourseStatusController-to-PersistenceContext" style="stroke:#181818;stroke-width:1.0;stroke-dasharray:7.0,7.0;"/><polygon fill="#181818" points="240.98,381.33,249.0182,375.639,243.5357,377.0325,242.1422,371.55,240.98,381.33" style="stroke:#181818;stroke-width:1.0;"/></g><!--link ToggleCourseStatusController to Course--><g id="link_ToggleCourseStatusController_Course"><path codeLine="100" d="M340.7,275.12 C336.16,340.26 340.28,431.84 386.5,495 C448.15,579.25 565.51,619.41 647.02,637.86 " fill="none" id="ToggleCourseStatusController-to-Course" style="stroke:#181818;stroke-width:1.0;stroke-dasharray:7.0,7.0;"/><polygon fill="#181818" points="652.34,639.05,644.4384,633.1709,647.4621,637.9518,642.6812,640.9755,652.34,639.05" style="stroke:#181818;stroke-width:1.0;"/></g><!--link ToggleCourseStatusUI to ToggleCourseStatusController--><g id="link_ToggleCourseStatusUI_ToggleCourseStatusController"><path codeLine="101" d="M351.5,55.21 C351.5,69.81 351.5,89.63 351.5,109.73 " fill="none" id="ToggleCourseStatusUI-to-ToggleCourseStatusController" style="stroke:#181818;stroke-width:1.0;stroke-dasharray:7.0,7.0;"/><polygon fill="#181818" points="351.5,114.84,355.5,105.84,351.5,109.84,347.5,105.84,351.5,114.84" style="stroke:#181818;stroke-width:1.0;"/></g><!--link CourseListService to Course--><g id="link_CourseListService_Course"><path codeLine="103" d="M595.05,495.08 C612.24,514.34 630.82,535.17 648.66,555.16 " fill="none" id="CourseListService-to-Course" style="stroke:#181818;stroke-width:1.0;stroke-dasharray:7.0,7.0;"/><polygon fill="#181818" points="652.22,559.15,649.2103,549.7723,648.8902,555.4201,643.2424,555.0999,652.22,559.15" style="stroke:#181818;stroke-width:1.0;"/></g><!--link ToggleCourseStatusController to CourseListService--><g id="link_ToggleCourseStatusController_CourseListService"><path codeLine="104" d="M414.2,275.01 C428.59,293.14 443.92,312.46 458.44,330.76 " fill="none" id="ToggleCourseStatusController-to-CourseListService" style="stroke:#181818;stroke-width:1.0;"/><polygon fill="#181818" points="461.72,334.89,459.2681,325.3512,458.6158,330.9704,452.9966,330.318,461.72,334.89" style="stroke:#181818;stroke-width:1.0;"/></g><!--link CourseDTOParser to CourseDTO--><g id="link_CourseDTOParser_CourseDTO"><path codeLine="106" d="M1115.5,448.88 C1115.5,477.43 1115.5,520.18 1115.5,559.16 " fill="none" id="CourseDTOParser-to-CourseDTO" style="stroke:#181818;stroke-width:1.0;stroke-dasharray:7.0,7.0;"/><polygon fill="#181818" points="1115.5,564.38,1119.5,555.38,1115.5,559.38,1111.5,555.38,1115.5,564.38" style="stroke:#181818;stroke-width:1.0;"/></g><!--link CourseDTOParser to Course--><g id="link_CourseDTOParser_Course"><path codeLine="107" d="M1078.45,448.74 C1060.85,463.62 1039.17,480.99 1018.5,495 C955.69,537.58 880.45,579.03 823.35,608.72 " fill="none" id="CourseDTOParser-to-Course" style="stroke:#181818;stroke-width:1.0;stroke-dasharray:7.0,7.0;"/><polygon fill="#181818" points="818.57,611.19,828.4007,610.5917,823.0073,608.8855,824.7135,603.4921,818.57,611.19" style="stroke:#181818;stroke-width:1.0;"/></g><!--SRC=[lLHDRy8m3BtdL_HOXE0NJ9EcmhPEZ2AwdQUeDLkaaA0aHVlyxtEQb8Qsi1Cx9R6VxUVd90MdMaTFylMLGo8hfI4tr5JwEOs-2FaXf3W1IAGmId8E2e6JgAXT2wPD3chF2ZZOrh2JcXcfFj14A_Cc5VkaXadH8CSHnxXi1y8LqF78sn8kDPIXrVI8nAxCo9BrR9qRUKMHPL52lJ7CSBShGHUAxIo7-Wm2Ezc2C0ksPKRxiAO41ETvWmmS2d1RtXWyMNup8-DHgrpR_Yqjx5BJ6lVjBeW90sf32_1Dj30Vf-aU3YrRmuQ9yePpArzyP77YXLoIxf0E4dK6LQVn8ZjatCMC76XeIetzUA8zyXrQiwVitoVMfx2Yk2glzPxo2hADPupUy9AbuX6sACG5vlImenV8kWAbSIeW2h2F5zwDrrirLLWzADiYY6eRjQ_CNPHaaUNp6MworNo9IxfyMQspk_Kyp_5qcoxJ_1xzFqVXn_hNUNouJuVmiD1aSkqZoM22m4y6EffEh_jFY_GVOPiclFOzrQ- -fzEJapu17vWUEVj_MixzLlwEyJ8CVjxMVov1qslu6PpD6THkjGl_Uz9zGsqwj9tnaby0]--></g></svg>