<?xml version="1.0" encoding="UTF-8" standalone="no"?><svg xmlns="http://www.w3.org/2000/svg" xmlns:xlink="http://www.w3.org/1999/xlink" contentStyleType="text/css" height="2220px" preserveAspectRatio="none" style="width:2129px;height:2220px;background:#FFFFFF;" version="1.1" viewBox="0 0 2129 2220" width="2129px" zoomAndPan="magnify"><defs/><g><rect fill="#FFFFFF" height="1980.0388" style="stroke:#181818;stroke-width:1.0;" width="10" x="44.5" y="115.4799"/><rect fill="#FFFFFF" height="112.4799" style="stroke:#181818;stroke-width:1.0;" width="10" x="701.75" y="148.7199"/><rect fill="#FFFFFF" height="1030.2393" style="stroke:#181818;stroke-width:1.0;" width="10" x="701.75" y="302.4398"/><rect fill="#FFFFFF" height="95.4799" style="stroke:#181818;stroke-width:1.0;" width="10" x="701.75" y="1373.9192"/><rect fill="#FFFFFF" height="584.8797" style="stroke:#181818;stroke-width:1.0;" width="10" x="701.75" y="1510.6391"/><rect fill="#FFFFFF" height="30" style="stroke:#181818;stroke-width:1.0;" width="10" x="1140" y="189.9599"/><rect fill="#FFFFFF" height="243.4398" style="stroke:#181818;stroke-width:1.0;" width="10" x="1140" y="392.1598"/><rect fill="#FFFFFF" height="243.4398" style="stroke:#181818;stroke-width:1.0;" width="10" x="1140" y="713.0796"/><rect fill="#FFFFFF" height="243.4398" style="stroke:#181818;stroke-width:1.0;" width="10" x="1140" y="1033.9994"/><rect fill="#FFFFFF" height="183.7199" style="stroke:#181818;stroke-width:1.0;" width="10" x="1140" y="1600.359"/><rect fill="#FFFFFF" height="183.7199" style="stroke:#181818;stroke-width:1.0;" width="10" x="1140" y="1854.5589"/><rect fill="#FFFFFF" height="202.1999" style="stroke:#181818;stroke-width:1.0;" width="10" x="1413.25" y="433.3997"/><rect fill="#FFFFFF" height="202.1999" style="stroke:#181818;stroke-width:1.0;" width="10" x="1413.25" y="754.3195"/><rect fill="#FFFFFF" height="202.1999" style="stroke:#181818;stroke-width:1.0;" width="10" x="1413.25" y="1075.2393"/><rect fill="#FFFFFF" height="41.24" style="stroke:#181818;stroke-width:1.0;" width="10" x="1605.5" y="594.3596"/><rect fill="#FFFFFF" height="41.24" style="stroke:#181818;stroke-width:1.0;" width="10" x="1605.5" y="915.2794"/><rect fill="#FFFFFF" height="41.24" style="stroke:#181818;stroke-width:1.0;" width="10" x="1605.5" y="1236.1992"/><rect fill="#FFFFFF" height="71.24" style="stroke:#181818;stroke-width:1.0;" width="10" x="1605.5" y="1641.599"/><rect fill="#FFFFFF" height="71.24" style="stroke:#181818;stroke-width:1.0;" width="10" x="1605.5" y="1895.7989"/><rect fill="#FFFFFF" height="30" style="stroke:#181818;stroke-width:1.0;" width="10" x="1862.5" y="1682.839"/><rect fill="#FFFFFF" height="30" style="stroke:#181818;stroke-width:1.0;" width="10" x="1862.5" y="1937.0388"/><rect fill="#FFFFFF" height="30" style="stroke:#181818;stroke-width:1.0;" width="10" x="2021.5" y="474.6397"/><rect fill="#FFFFFF" height="30" style="stroke:#181818;stroke-width:1.0;" width="10" x="2021.5" y="795.5595"/><rect fill="#FFFFFF" height="30" style="stroke:#181818;stroke-width:1.0;" width="10" x="2021.5" y="1116.4793"/><rect fill="#FFFFFF" height="30" style="stroke:#181818;stroke-width:1.0;" width="10" x="2021.5" y="1754.0789"/><rect fill="#FFFFFF" height="30" style="stroke:#181818;stroke-width:1.0;" width="10" x="2021.5" y="2008.2788"/><rect fill="none" height="974.9994" style="stroke:#000000;stroke-width:1.5;" width="1519.75" x="602.25" y="317.4398"/><rect fill="none" height="123.9599" style="stroke:#000000;stroke-width:1.5;" width="484.75" x="1319.25" y="519.6397"/><rect fill="none" height="123.9599" style="stroke:#000000;stroke-width:1.5;" width="484.75" x="1319.25" y="840.5595"/><rect fill="none" height="123.9599" style="stroke:#000000;stroke-width:1.5;" width="484.75" x="1319.25" y="1161.4793"/><rect fill="none" height="520.6397" style="stroke:#000000;stroke-width:1.5;" width="1519.75" x="602.25" y="1525.6391"/><line style="stroke:#181818;stroke-width:0.5;stroke-dasharray:5.0,5.0;" x1="49" x2="49" y1="105.4799" y2="2104.5188"/><line style="stroke:#181818;stroke-width:0.5;stroke-dasharray:5.0,5.0;" x1="706.25" x2="706.25" y1="105.4799" y2="2104.5188"/><line style="stroke:#181818;stroke-width:0.5;stroke-dasharray:5.0,5.0;" x1="1145" x2="1145" y1="105.4799" y2="2104.5188"/><line style="stroke:#181818;stroke-width:0.5;stroke-dasharray:5.0,5.0;" x1="1418.25" x2="1418.25" y1="105.4799" y2="2104.5188"/><line style="stroke:#181818;stroke-width:0.5;stroke-dasharray:5.0,5.0;" x1="1610" x2="1610" y1="105.4799" y2="2104.5188"/><line style="stroke:#181818;stroke-width:0.5;stroke-dasharray:5.0,5.0;" x1="1733" x2="1733" y1="105.4799" y2="2104.5188"/><line style="stroke:#181818;stroke-width:0.5;stroke-dasharray:5.0,5.0;" x1="1867" x2="1867" y1="105.4799" y2="2104.5188"/><line style="stroke:#181818;stroke-width:0.5;stroke-dasharray:5.0,5.0;" x1="2026" x2="2026" y1="105.4799" y2="2104.5188"/><text fill="#000000" font-family="sans-serif" font-size="20" lengthAdjust="spacing" textLength="83" x="5" y="99.62">Manager</text><ellipse cx="49.5" cy="26.74" fill="#E2E2F0" rx="8" ry="8" style="stroke:#181818;stroke-width:0.5;"/><path d="M49.5,34.74 L49.5,61.74 M36.5,42.74 L62.5,42.74 M49.5,61.74 L36.5,76.74 M49.5,61.74 L62.5,76.74 " fill="none" style="stroke:#181818;stroke-width:0.5;"/><text fill="#000000" font-family="sans-serif" font-size="20" lengthAdjust="spacing" textLength="83" x="5" y="2124.8988">Manager</text><ellipse cx="49.5" cy="2139.2588" fill="#E2E2F0" rx="8" ry="8" style="stroke:#181818;stroke-width:0.5;"/><path d="M49.5,2147.2588 L49.5,2174.2588 M36.5,2155.2588 L62.5,2155.2588 M49.5,2174.2588 L36.5,2189.2588 M49.5,2174.2588 L62.5,2189.2588 " fill="none" style="stroke:#181818;stroke-width:0.5;"/><rect fill="#E2E2F0" height="68.4799" rx="2.5" ry="2.5" style="stroke:#181818;stroke-width:0.5;" width="189" x="612.25" y="36"/><text fill="#000000" font-family="sans-serif" font-size="20" font-style="italic" lengthAdjust="spacing" textLength="134" x="639.75" y="64.38">«presentation»</text><text fill="#000000" font-family="sans-serif" font-size="20" lengthAdjust="spacing" textLength="175" x="619.25" y="91.62">SetCourseStatusUI</text><rect fill="#E2E2F0" height="68.4799" rx="2.5" ry="2.5" style="stroke:#181818;stroke-width:0.5;" width="189" x="612.25" y="2103.5188"/><text fill="#000000" font-family="sans-serif" font-size="20" font-style="italic" lengthAdjust="spacing" textLength="134" x="639.75" y="2131.8988">«presentation»</text><text fill="#000000" font-family="sans-serif" font-size="20" lengthAdjust="spacing" textLength="175" x="619.25" y="2159.1388">SetCourseStatusUI</text><rect fill="#E2E2F0" height="68.4799" rx="2.5" ry="2.5" style="stroke:#181818;stroke-width:0.5;" width="260" x="1015" y="36"/><text fill="#000000" font-family="sans-serif" font-size="20" font-style="italic" lengthAdjust="spacing" textLength="120" x="1085" y="64.38">«application»</text><text fill="#000000" font-family="sans-serif" font-size="20" lengthAdjust="spacing" textLength="246" x="1022" y="91.62">SetCourseStatusController</text><rect fill="#E2E2F0" height="68.4799" rx="2.5" ry="2.5" style="stroke:#181818;stroke-width:0.5;" width="260" x="1015" y="2103.5188"/><text fill="#000000" font-family="sans-serif" font-size="20" font-style="italic" lengthAdjust="spacing" textLength="120" x="1085" y="2131.8988">«application»</text><text fill="#000000" font-family="sans-serif" font-size="20" lengthAdjust="spacing" textLength="246" x="1022" y="2159.1388">SetCourseStatusController</text><rect fill="#E2E2F0" height="68.4799" rx="2.5" ry="2.5" style="stroke:#181818;stroke-width:0.5;" width="178" x="1329.25" y="36"/><text fill="#000000" font-family="sans-serif" font-size="20" font-style="italic" lengthAdjust="spacing" textLength="80" x="1378.25" y="64.38">«service»</text><text fill="#000000" font-family="sans-serif" font-size="20" lengthAdjust="spacing" textLength="164" x="1336.25" y="91.62">CourseListService</text><rect fill="#E2E2F0" height="68.4799" rx="2.5" ry="2.5" style="stroke:#181818;stroke-width:0.5;" width="178" x="1329.25" y="2103.5188"/><text fill="#000000" font-family="sans-serif" font-size="20" font-style="italic" lengthAdjust="spacing" textLength="80" x="1378.25" y="2131.8988">«service»</text><text fill="#000000" font-family="sans-serif" font-size="20" lengthAdjust="spacing" textLength="164" x="1336.25" y="2159.1388">CourseListService</text><rect fill="#E2E2F0" height="68.4799" rx="2.5" ry="2.5" style="stroke:#181818;stroke-width:0.5;" width="103" x="1559" y="36"/><text fill="#000000" font-family="sans-serif" font-size="20" font-style="italic" lengthAdjust="spacing" textLength="89" x="1566" y="64.38">«domain»</text><text fill="#000000" font-family="sans-serif" font-size="20" lengthAdjust="spacing" textLength="66" x="1577.5" y="91.62">Course</text><rect fill="#E2E2F0" height="68.4799" rx="2.5" ry="2.5" style="stroke:#181818;stroke-width:0.5;" width="103" x="1559" y="2103.5188"/><text fill="#000000" font-family="sans-serif" font-size="20" font-style="italic" lengthAdjust="spacing" textLength="89" x="1566" y="2131.8988">«domain»</text><text fill="#000000" font-family="sans-serif" font-size="20" lengthAdjust="spacing" textLength="66" x="1577.5" y="2159.1388">Course</text><rect fill="#E2E2F0" height="68.4799" rx="2.5" ry="2.5" style="stroke:#181818;stroke-width:0.5;" width="122" x="1672" y="36"/><text fill="#000000" font-family="sans-serif" font-size="20" font-style="italic" lengthAdjust="spacing" textLength="50" x="1708" y="64.38">«dto»</text><text fill="#000000" font-family="sans-serif" font-size="20" lengthAdjust="spacing" textLength="108" x="1679" y="91.62">CourseDTO</text><rect fill="#E2E2F0" height="68.4799" rx="2.5" ry="2.5" style="stroke:#181818;stroke-width:0.5;" width="122" x="1672" y="2103.5188"/><text fill="#000000" font-family="sans-serif" font-size="20" font-style="italic" lengthAdjust="spacing" textLength="50" x="1708" y="2131.8988">«dto»</text><text fill="#000000" font-family="sans-serif" font-size="20" lengthAdjust="spacing" textLength="108" x="1679" y="2159.1388">CourseDTO</text><rect fill="#E2E2F0" height="68.4799" rx="2.5" ry="2.5" style="stroke:#181818;stroke-width:0.5;" width="127" x="1804" y="36"/><text fill="#000000" font-family="sans-serif" font-size="20" font-style="italic" lengthAdjust="spacing" textLength="89" x="1823" y="64.38">«domain»</text><text fill="#000000" font-family="sans-serif" font-size="20" lengthAdjust="spacing" textLength="113" x="1811" y="91.62">CourseState</text><rect fill="#E2E2F0" height="68.4799" rx="2.5" ry="2.5" style="stroke:#181818;stroke-width:0.5;" width="127" x="1804" y="2103.5188"/><text fill="#000000" font-family="sans-serif" font-size="20" font-style="italic" lengthAdjust="spacing" textLength="89" x="1823" y="2131.8988">«domain»</text><text fill="#000000" font-family="sans-serif" font-size="20" lengthAdjust="spacing" textLength="113" x="1811" y="2159.1388">CourseState</text><text fill="#000000" font-family="sans-serif" font-size="20" font-style="italic" lengthAdjust="spacing" textLength="110" x="1968.5" y="72.38">«repository»</text><text fill="#000000" font-family="sans-serif" font-size="20" lengthAdjust="spacing" textLength="165" x="1941" y="99.62">CourseRepository</text><path d="M2008.5,15 C2008.5,5 2026.5,5 2026.5,5 C2026.5,5 2044.5,5 2044.5,15 L2044.5,41 C2044.5,51 2026.5,51 2026.5,51 C2026.5,51 2008.5,51 2008.5,41 L2008.5,15 " fill="#E2E2F0" style="stroke:#181818;stroke-width:1.5;"/><path d="M2008.5,15 C2008.5,25 2026.5,25 2026.5,25 C2026.5,25 2044.5,25 2044.5,15 " fill="none" style="stroke:#181818;stroke-width:1.5;"/><text fill="#000000" font-family="sans-serif" font-size="20" font-style="italic" lengthAdjust="spacing" textLength="110" x="1968.5" y="2124.8988">«repository»</text><text fill="#000000" font-family="sans-serif" font-size="20" lengthAdjust="spacing" textLength="165" x="1941" y="2152.1388">CourseRepository</text><path d="M2008.5,2167.9987 C2008.5,2157.9987 2026.5,2157.9987 2026.5,2157.9987 C2026.5,2157.9987 2044.5,2157.9987 2044.5,2167.9987 L2044.5,2193.9987 C2044.5,2203.9987 2026.5,2203.9987 2026.5,2203.9987 C2026.5,2203.9987 2008.5,2203.9987 2008.5,2193.9987 L2008.5,2167.9987 " fill="#E2E2F0" style="stroke:#181818;stroke-width:1.5;"/><path d="M2008.5,2167.9987 C2008.5,2177.9987 2026.5,2177.9987 2026.5,2177.9987 C2026.5,2177.9987 2044.5,2177.9987 2044.5,2167.9987 " fill="none" style="stroke:#181818;stroke-width:1.5;"/><rect fill="#FFFFFF" height="1980.0388" style="stroke:#181818;stroke-width:1.0;" width="10" x="44.5" y="115.4799"/><rect fill="#FFFFFF" height="112.4799" style="stroke:#181818;stroke-width:1.0;" width="10" x="701.75" y="148.7199"/><rect fill="#FFFFFF" height="1030.2393" style="stroke:#181818;stroke-width:1.0;" width="10" x="701.75" y="302.4398"/><rect fill="#FFFFFF" height="95.4799" style="stroke:#181818;stroke-width:1.0;" width="10" x="701.75" y="1373.9192"/><rect fill="#FFFFFF" height="584.8797" style="stroke:#181818;stroke-width:1.0;" width="10" x="701.75" y="1510.6391"/><rect fill="#FFFFFF" height="30" style="stroke:#181818;stroke-width:1.0;" width="10" x="1140" y="189.9599"/><rect fill="#FFFFFF" height="243.4398" style="stroke:#181818;stroke-width:1.0;" width="10" x="1140" y="392.1598"/><rect fill="#FFFFFF" height="243.4398" style="stroke:#181818;stroke-width:1.0;" width="10" x="1140" y="713.0796"/><rect fill="#FFFFFF" height="243.4398" style="stroke:#181818;stroke-width:1.0;" width="10" x="1140" y="1033.9994"/><rect fill="#FFFFFF" height="183.7199" style="stroke:#181818;stroke-width:1.0;" width="10" x="1140" y="1600.359"/><rect fill="#FFFFFF" height="183.7199" style="stroke:#181818;stroke-width:1.0;" width="10" x="1140" y="1854.5589"/><rect fill="#FFFFFF" height="202.1999" style="stroke:#181818;stroke-width:1.0;" width="10" x="1413.25" y="433.3997"/><rect fill="#FFFFFF" height="202.1999" style="stroke:#181818;stroke-width:1.0;" width="10" x="1413.25" y="754.3195"/><rect fill="#FFFFFF" height="202.1999" style="stroke:#181818;stroke-width:1.0;" width="10" x="1413.25" y="1075.2393"/><rect fill="#FFFFFF" height="41.24" style="stroke:#181818;stroke-width:1.0;" width="10" x="1605.5" y="594.3596"/><rect fill="#FFFFFF" height="41.24" style="stroke:#181818;stroke-width:1.0;" width="10" x="1605.5" y="915.2794"/><rect fill="#FFFFFF" height="41.24" style="stroke:#181818;stroke-width:1.0;" width="10" x="1605.5" y="1236.1992"/><rect fill="#FFFFFF" height="71.24" style="stroke:#181818;stroke-width:1.0;" width="10" x="1605.5" y="1641.599"/><rect fill="#FFFFFF" height="71.24" style="stroke:#181818;stroke-width:1.0;" width="10" x="1605.5" y="1895.7989"/><rect fill="#FFFFFF" height="30" style="stroke:#181818;stroke-width:1.0;" width="10" x="1862.5" y="1682.839"/><rect fill="#FFFFFF" height="30" style="stroke:#181818;stroke-width:1.0;" width="10" x="1862.5" y="1937.0388"/><rect fill="#FFFFFF" height="30" style="stroke:#181818;stroke-width:1.0;" width="10" x="2021.5" y="474.6397"/><rect fill="#FFFFFF" height="30" style="stroke:#181818;stroke-width:1.0;" width="10" x="2021.5" y="795.5595"/><rect fill="#FFFFFF" height="30" style="stroke:#181818;stroke-width:1.0;" width="10" x="2021.5" y="1116.4793"/><rect fill="#FFFFFF" height="30" style="stroke:#181818;stroke-width:1.0;" width="10" x="2021.5" y="1754.0789"/><rect fill="#FFFFFF" height="30" style="stroke:#181818;stroke-width:1.0;" width="10" x="2021.5" y="2008.2788"/><polygon fill="#181818" points="689.75,144.7199,699.75,148.7199,689.75,152.7199,693.75,148.7199" style="stroke:#181818;stroke-width:1.0;"/><line style="stroke:#181818;stroke-width:1.0;" x1="54.5" x2="695.75" y1="148.7199" y2="148.7199"/><text fill="#000000" font-family="sans-serif" font-size="20" font-weight="bold" lengthAdjust="spacing" textLength="11.625" x="61.5" y="140.8599">1</text><text fill="#000000" font-family="sans-serif" font-size="20" lengthAdjust="spacing" textLength="383" x="77.125" y="140.8599">requests to change the status of a course</text><polygon fill="#181818" points="1128,185.9599,1138,189.9599,1128,193.9599,1132,189.9599" style="stroke:#181818;stroke-width:1.0;"/><line style="stroke:#181818;stroke-width:1.0;" x1="711.75" x2="1134" y1="189.9599" y2="189.9599"/><text fill="#000000" font-family="sans-serif" font-size="20" font-weight="bold" lengthAdjust="spacing" textLength="11.625" x="718.75" y="182.0999">2</text><text fill="#000000" font-family="sans-serif" font-size="20" lengthAdjust="spacing" textLength="213" x="734.375" y="182.0999">new(courseRepository)</text><polygon fill="#181818" points="65.5,257.1999,55.5,261.1999,65.5,265.1999,61.5,261.1999" style="stroke:#181818;stroke-width:1.0;"/><line style="stroke:#181818;stroke-width:1.0;stroke-dasharray:2.0,2.0;" x1="59.5" x2="705.75" y1="261.1999" y2="261.1999"/><text fill="#000000" font-family="sans-serif" font-size="20" font-weight="bold" lengthAdjust="spacing" textLength="11.625" x="71.5" y="253.3399">3</text><text fill="#000000" font-family="sans-serif" font-size="20" lengthAdjust="spacing" textLength="451" x="87.125" y="253.3399">displays the possibilities (open/start/close/finish)</text><polygon fill="#181818" points="689.75,298.4398,699.75,302.4398,689.75,306.4398,693.75,302.4398" style="stroke:#181818;stroke-width:1.0;"/><line style="stroke:#181818;stroke-width:1.0;" x1="54.5" x2="695.75" y1="302.4398" y2="302.4398"/><text fill="#000000" font-family="sans-serif" font-size="20" font-weight="bold" lengthAdjust="spacing" textLength="11.625" x="61.5" y="294.5799">4</text><text fill="#000000" font-family="sans-serif" font-size="20" lengthAdjust="spacing" textLength="147" x="77.125" y="294.5799">select an option</text><path d="M602.25,317.4398 L672.125,317.4398 L672.125,336.6798 L662.125,346.6798 L602.25,346.6798 L602.25,317.4398 " fill="#EEEEEE" style="stroke:#000000;stroke-width:1.5;"/><rect fill="none" height="974.9994" style="stroke:#000000;stroke-width:1.5;" width="1519.75" x="602.25" y="317.4398"/><text fill="#000000" font-family="sans-serif" font-size="20" font-weight="bold" lengthAdjust="spacing" textLength="24.875" x="617.25" y="339.8198">alt</text><text fill="#000000" font-family="sans-serif" font-size="20" font-weight="bold" lengthAdjust="spacing" textLength="305.125" x="687.125" y="340.8198">[if (close course / start course)]</text><polygon fill="#181818" points="1128,388.1598,1138,392.1598,1128,396.1598,1132,392.1598" style="stroke:#181818;stroke-width:1.0;"/><line style="stroke:#181818;stroke-width:1.0;" x1="711.75" x2="1134" y1="392.1598" y2="392.1598"/><text fill="#000000" font-family="sans-serif" font-size="20" font-weight="bold" lengthAdjust="spacing" textLength="11.625" x="718.75" y="384.2998">5</text><text fill="#000000" font-family="sans-serif" font-size="20" lengthAdjust="spacing" textLength="260" x="734.375" y="384.2998">courses = listOpenCourses()</text><polygon fill="#181818" points="1401.25,429.3997,1411.25,433.3997,1401.25,437.3997,1405.25,433.3997" style="stroke:#181818;stroke-width:1.0;"/><line style="stroke:#181818;stroke-width:1.0;" x1="1150" x2="1407.25" y1="433.3997" y2="433.3997"/><text fill="#000000" font-family="sans-serif" font-size="20" font-weight="bold" lengthAdjust="spacing" textLength="11.625" x="1157" y="425.5398">6</text><text fill="#000000" font-family="sans-serif" font-size="20" lengthAdjust="spacing" textLength="166" x="1172.625" y="425.5398">listOpenCourses()</text><polygon fill="#181818" points="2009.5,470.6397,2019.5,474.6397,2009.5,478.6397,2013.5,474.6397" style="stroke:#181818;stroke-width:1.0;"/><line style="stroke:#181818;stroke-width:1.0;" x1="1423.25" x2="2015.5" y1="474.6397" y2="474.6397"/><text fill="#000000" font-family="sans-serif" font-size="20" font-weight="bold" lengthAdjust="spacing" textLength="11.625" x="1430.25" y="466.7797">7</text><text fill="#000000" font-family="sans-serif" font-size="20" lengthAdjust="spacing" textLength="122" x="1445.875" y="466.7797">findAllOpen()</text><path d="M1319.25,519.6397 L1407.75,519.6397 L1407.75,538.8797 L1397.75,548.8797 L1319.25,548.8797 L1319.25,519.6397 " fill="#EEEEEE" style="stroke:#000000;stroke-width:1.5;"/><rect fill="none" height="123.9599" style="stroke:#000000;stroke-width:1.5;" width="484.75" x="1319.25" y="519.6397"/><text fill="#000000" font-family="sans-serif" font-size="20" font-weight="bold" lengthAdjust="spacing" textLength="43.5" x="1334.25" y="542.0197">loop</text><text fill="#000000" font-family="sans-serif" font-size="20" font-weight="bold" lengthAdjust="spacing" textLength="167.375" x="1422.75" y="543.0197">[for each course]</text><polygon fill="#181818" points="1593.5,590.3596,1603.5,594.3596,1593.5,598.3596,1597.5,594.3596" style="stroke:#181818;stroke-width:1.0;"/><line style="stroke:#181818;stroke-width:1.0;" x1="1423.25" x2="1599.5" y1="594.3596" y2="594.3596"/><text fill="#000000" font-family="sans-serif" font-size="20" font-weight="bold" lengthAdjust="spacing" textLength="11.625" x="1430.25" y="586.4997">8</text><text fill="#000000" font-family="sans-serif" font-size="20" lengthAdjust="spacing" textLength="136" x="1445.875" y="586.4997">toDTO(course)</text><polygon fill="#181818" points="1721,631.5996,1731,635.5996,1721,639.5996,1725,635.5996" style="stroke:#181818;stroke-width:1.0;"/><line style="stroke:#181818;stroke-width:1.0;" x1="1610.5" x2="1727" y1="635.5996" y2="635.5996"/><text fill="#000000" font-family="sans-serif" font-size="20" font-weight="bold" lengthAdjust="spacing" textLength="11.625" x="1617.5" y="627.7396">9</text><text fill="#000000" font-family="sans-serif" font-size="20" lengthAdjust="spacing" textLength="39" x="1633.125" y="627.7396">new</text><line style="stroke:#000000;stroke-width:1.0;stroke-dasharray:2.0,2.0;" x1="602.25" x2="2122" y1="651.5996" y2="651.5996"/><text fill="#000000" font-family="sans-serif" font-size="20" font-weight="bold" lengthAdjust="spacing" textLength="154.75" x="607.25" y="672.9796">[if open course]</text><polygon fill="#181818" points="1128,709.0796,1138,713.0796,1128,717.0796,1132,713.0796" style="stroke:#181818;stroke-width:1.0;"/><line style="stroke:#181818;stroke-width:1.0;" x1="711.75" x2="1134" y1="713.0796" y2="713.0796"/><text fill="#000000" font-family="sans-serif" font-size="20" font-weight="bold" lengthAdjust="spacing" textLength="23.25" x="718.75" y="705.2196">10</text><text fill="#000000" font-family="sans-serif" font-size="20" lengthAdjust="spacing" textLength="272" x="746" y="705.2196">courses = listClosedCourses()</text><polygon fill="#181818" points="1401.25,750.3195,1411.25,754.3195,1401.25,758.3195,1405.25,754.3195" style="stroke:#181818;stroke-width:1.0;"/><line style="stroke:#181818;stroke-width:1.0;" x1="1150" x2="1407.25" y1="754.3195" y2="754.3195"/><text fill="#000000" font-family="sans-serif" font-size="20" font-weight="bold" lengthAdjust="spacing" textLength="23.25" x="1157" y="746.4596">11</text><text fill="#000000" font-family="sans-serif" font-size="20" lengthAdjust="spacing" textLength="178" x="1184.25" y="746.4596">listClosedCourses()</text><polygon fill="#181818" points="2009.5,791.5595,2019.5,795.5595,2009.5,799.5595,2013.5,795.5595" style="stroke:#181818;stroke-width:1.0;"/><line style="stroke:#181818;stroke-width:1.0;" x1="1423.25" x2="2015.5" y1="795.5595" y2="795.5595"/><text fill="#000000" font-family="sans-serif" font-size="20" font-weight="bold" lengthAdjust="spacing" textLength="23.25" x="1430.25" y="787.6995">12</text><text fill="#000000" font-family="sans-serif" font-size="20" lengthAdjust="spacing" textLength="134" x="1457.5" y="787.6995">findAllClosed()</text><path d="M1319.25,840.5595 L1407.75,840.5595 L1407.75,859.7995 L1397.75,869.7995 L1319.25,869.7995 L1319.25,840.5595 " fill="#EEEEEE" style="stroke:#000000;stroke-width:1.5;"/><rect fill="none" height="123.9599" style="stroke:#000000;stroke-width:1.5;" width="484.75" x="1319.25" y="840.5595"/><text fill="#000000" font-family="sans-serif" font-size="20" font-weight="bold" lengthAdjust="spacing" textLength="43.5" x="1334.25" y="862.9395">loop</text><text fill="#000000" font-family="sans-serif" font-size="20" font-weight="bold" lengthAdjust="spacing" textLength="167.375" x="1422.75" y="863.9395">[for each course]</text><polygon fill="#181818" points="1593.5,911.2794,1603.5,915.2794,1593.5,919.2794,1597.5,915.2794" style="stroke:#181818;stroke-width:1.0;"/><line style="stroke:#181818;stroke-width:1.0;" x1="1423.25" x2="1599.5" y1="915.2794" y2="915.2794"/><text fill="#000000" font-family="sans-serif" font-size="20" font-weight="bold" lengthAdjust="spacing" textLength="23.25" x="1430.25" y="907.4195">13</text><text fill="#000000" font-family="sans-serif" font-size="20" lengthAdjust="spacing" textLength="136" x="1457.5" y="907.4195">toDTO(course)</text><polygon fill="#181818" points="1721,952.5194,1731,956.5194,1721,960.5194,1725,956.5194" style="stroke:#181818;stroke-width:1.0;"/><line style="stroke:#181818;stroke-width:1.0;" x1="1610.5" x2="1727" y1="956.5194" y2="956.5194"/><text fill="#000000" font-family="sans-serif" font-size="20" font-weight="bold" lengthAdjust="spacing" textLength="23.25" x="1617.5" y="948.6594">14</text><text fill="#000000" font-family="sans-serif" font-size="20" lengthAdjust="spacing" textLength="39" x="1644.75" y="948.6594">new</text><line style="stroke:#000000;stroke-width:1.0;stroke-dasharray:2.0,2.0;" x1="602.25" x2="2122" y1="972.5194" y2="972.5194"/><text fill="#000000" font-family="sans-serif" font-size="20" font-weight="bold" lengthAdjust="spacing" textLength="160" x="607.25" y="993.8994">[if finish course]</text><polygon fill="#181818" points="1128,1029.9994,1138,1033.9994,1128,1037.9994,1132,1033.9994" style="stroke:#181818;stroke-width:1.0;"/><line style="stroke:#181818;stroke-width:1.0;" x1="711.75" x2="1134" y1="1033.9994" y2="1033.9994"/><text fill="#000000" font-family="sans-serif" font-size="20" font-weight="bold" lengthAdjust="spacing" textLength="23.25" x="718.75" y="1026.1394">15</text><text fill="#000000" font-family="sans-serif" font-size="20" lengthAdjust="spacing" textLength="311" x="746" y="1026.1394">courses = listInProgressCourses()</text><polygon fill="#181818" points="1401.25,1071.2393,1411.25,1075.2393,1401.25,1079.2393,1405.25,1075.2393" style="stroke:#181818;stroke-width:1.0;"/><line style="stroke:#181818;stroke-width:1.0;" x1="1150" x2="1407.25" y1="1075.2393" y2="1075.2393"/><text fill="#000000" font-family="sans-serif" font-size="20" font-weight="bold" lengthAdjust="spacing" textLength="23.25" x="1157" y="1067.3794">16</text><text fill="#000000" font-family="sans-serif" font-size="20" lengthAdjust="spacing" textLength="217" x="1184.25" y="1067.3794">listInProgressCourses()</text><polygon fill="#181818" points="2009.5,1112.4793,2019.5,1116.4793,2009.5,1120.4793,2013.5,1116.4793" style="stroke:#181818;stroke-width:1.0;"/><line style="stroke:#181818;stroke-width:1.0;" x1="1423.25" x2="2015.5" y1="1116.4793" y2="1116.4793"/><text fill="#000000" font-family="sans-serif" font-size="20" font-weight="bold" lengthAdjust="spacing" textLength="23.25" x="1430.25" y="1108.6193">17</text><text fill="#000000" font-family="sans-serif" font-size="20" lengthAdjust="spacing" textLength="173" x="1457.5" y="1108.6193">findAllInProgress()</text><path d="M1319.25,1161.4793 L1407.75,1161.4793 L1407.75,1180.7193 L1397.75,1190.7193 L1319.25,1190.7193 L1319.25,1161.4793 " fill="#EEEEEE" style="stroke:#000000;stroke-width:1.5;"/><rect fill="none" height="123.9599" style="stroke:#000000;stroke-width:1.5;" width="484.75" x="1319.25" y="1161.4793"/><text fill="#000000" font-family="sans-serif" font-size="20" font-weight="bold" lengthAdjust="spacing" textLength="43.5" x="1334.25" y="1183.8593">loop</text><text fill="#000000" font-family="sans-serif" font-size="20" font-weight="bold" lengthAdjust="spacing" textLength="167.375" x="1422.75" y="1184.8593">[for each course]</text><polygon fill="#181818" points="1593.5,1232.1992,1603.5,1236.1992,1593.5,1240.1992,1597.5,1236.1992" style="stroke:#181818;stroke-width:1.0;"/><line style="stroke:#181818;stroke-width:1.0;" x1="1423.25" x2="1599.5" y1="1236.1992" y2="1236.1992"/><text fill="#000000" font-family="sans-serif" font-size="20" font-weight="bold" lengthAdjust="spacing" textLength="23.25" x="1430.25" y="1228.3393">18</text><text fill="#000000" font-family="sans-serif" font-size="20" lengthAdjust="spacing" textLength="136" x="1457.5" y="1228.3393">toDTO(course)</text><polygon fill="#181818" points="1721,1273.4392,1731,1277.4392,1721,1281.4392,1725,1277.4392" style="stroke:#181818;stroke-width:1.0;"/><line style="stroke:#181818;stroke-width:1.0;" x1="1610.5" x2="1727" y1="1277.4392" y2="1277.4392"/><text fill="#000000" font-family="sans-serif" font-size="20" font-weight="bold" lengthAdjust="spacing" textLength="23.25" x="1617.5" y="1269.5792">19</text><text fill="#000000" font-family="sans-serif" font-size="20" lengthAdjust="spacing" textLength="39" x="1644.75" y="1269.5792">new</text><polygon fill="#181818" points="65.5,1328.6792,55.5,1332.6792,65.5,1336.6792,61.5,1332.6792" style="stroke:#181818;stroke-width:1.0;"/><line style="stroke:#181818;stroke-width:1.0;stroke-dasharray:2.0,2.0;" x1="59.5" x2="705.75" y1="1332.6792" y2="1332.6792"/><text fill="#000000" font-family="sans-serif" font-size="20" font-weight="bold" lengthAdjust="spacing" textLength="23.25" x="71.5" y="1324.8192">20</text><text fill="#000000" font-family="sans-serif" font-size="20" lengthAdjust="spacing" textLength="596" x="98.75" y="1324.8192">lists the available courses and their status and asks to select one</text><polygon fill="#181818" points="689.75,1369.9192,699.75,1373.9192,689.75,1377.9192,693.75,1373.9192" style="stroke:#181818;stroke-width:1.0;"/><line style="stroke:#181818;stroke-width:1.0;" x1="54.5" x2="695.75" y1="1373.9192" y2="1373.9192"/><text fill="#000000" font-family="sans-serif" font-size="20" font-weight="bold" lengthAdjust="spacing" textLength="23.25" x="61.5" y="1366.0592">21</text><text fill="#000000" font-family="sans-serif" font-size="20" lengthAdjust="spacing" textLength="241" x="88.75" y="1366.0592">selects the desired course</text><line style="stroke:#181818;stroke-width:1.0;" x1="711.75" x2="753.75" y1="1415.1591" y2="1415.1591"/><line style="stroke:#181818;stroke-width:1.0;" x1="753.75" x2="753.75" y1="1415.1591" y2="1428.1591"/><line style="stroke:#181818;stroke-width:1.0;" x1="712.75" x2="753.75" y1="1428.1591" y2="1428.1591"/><polygon fill="#181818" points="722.75,1424.1591,712.75,1428.1591,722.75,1432.1591,718.75,1428.1591" style="stroke:#181818;stroke-width:1.0;"/><text fill="#000000" font-family="sans-serif" font-size="20" font-weight="bold" lengthAdjust="spacing" textLength="23.25" x="718.75" y="1407.2992">22</text><text fill="#000000" font-family="sans-serif" font-size="20" lengthAdjust="spacing" textLength="284" x="746" y="1407.2992">course = select(courses, index)</text><polygon fill="#181818" points="65.5,1465.3991,55.5,1469.3991,65.5,1473.3991,61.5,1469.3991" style="stroke:#181818;stroke-width:1.0;"/><line style="stroke:#181818;stroke-width:1.0;stroke-dasharray:2.0,2.0;" x1="59.5" x2="705.75" y1="1469.3991" y2="1469.3991"/><text fill="#000000" font-family="sans-serif" font-size="20" font-weight="bold" lengthAdjust="spacing" textLength="23.25" x="71.5" y="1461.5391">23</text><text fill="#000000" font-family="sans-serif" font-size="20" lengthAdjust="spacing" textLength="432" x="98.75" y="1461.5391">asks to confirm the toggle of the course status</text><polygon fill="#181818" points="689.75,1506.6391,699.75,1510.6391,689.75,1514.6391,693.75,1510.6391" style="stroke:#181818;stroke-width:1.0;"/><line style="stroke:#181818;stroke-width:1.0;" x1="54.5" x2="695.75" y1="1510.6391" y2="1510.6391"/><text fill="#000000" font-family="sans-serif" font-size="20" font-weight="bold" lengthAdjust="spacing" textLength="23.25" x="61.5" y="1502.7791">24</text><text fill="#000000" font-family="sans-serif" font-size="20" lengthAdjust="spacing" textLength="178" x="88.75" y="1502.7791">confirms operation</text><path d="M602.25,1525.6391 L672.125,1525.6391 L672.125,1544.8791 L662.125,1554.8791 L602.25,1554.8791 L602.25,1525.6391 " fill="#EEEEEE" style="stroke:#000000;stroke-width:1.5;"/><rect fill="none" height="520.6397" style="stroke:#000000;stroke-width:1.5;" width="1519.75" x="602.25" y="1525.6391"/><text fill="#000000" font-family="sans-serif" font-size="20" font-weight="bold" lengthAdjust="spacing" textLength="24.875" x="617.25" y="1548.0191">alt</text><text fill="#000000" font-family="sans-serif" font-size="20" font-weight="bold" lengthAdjust="spacing" textLength="156.375" x="687.125" y="1549.0191">[if close course]</text><polygon fill="#181818" points="1128,1596.359,1138,1600.359,1128,1604.359,1132,1600.359" style="stroke:#181818;stroke-width:1.0;"/><line style="stroke:#181818;stroke-width:1.0;" x1="711.75" x2="1134" y1="1600.359" y2="1600.359"/><text fill="#000000" font-family="sans-serif" font-size="20" font-weight="bold" lengthAdjust="spacing" textLength="23.25" x="718.75" y="1592.499">25</text><text fill="#000000" font-family="sans-serif" font-size="20" lengthAdjust="spacing" textLength="382" x="746" y="1592.499">course = toggleToPreviousCourseStatus()</text><polygon fill="#181818" points="1593.5,1637.599,1603.5,1641.599,1593.5,1645.599,1597.5,1641.599" style="stroke:#181818;stroke-width:1.0;"/><line style="stroke:#181818;stroke-width:1.0;" x1="1150" x2="1599.5" y1="1641.599" y2="1641.599"/><text fill="#000000" font-family="sans-serif" font-size="20" font-weight="bold" lengthAdjust="spacing" textLength="23.25" x="1157" y="1633.739">26</text><text fill="#000000" font-family="sans-serif" font-size="20" lengthAdjust="spacing" textLength="139" x="1184.25" y="1633.739">previousState()</text><polygon fill="#181818" points="1850.5,1678.839,1860.5,1682.839,1850.5,1686.839,1854.5,1682.839" style="stroke:#181818;stroke-width:1.0;"/><line style="stroke:#181818;stroke-width:1.0;" x1="1615.5" x2="1856.5" y1="1682.839" y2="1682.839"/><text fill="#000000" font-family="sans-serif" font-size="20" font-weight="bold" lengthAdjust="spacing" textLength="23.25" x="1622.5" y="1674.979">27</text><text fill="#000000" font-family="sans-serif" font-size="20" lengthAdjust="spacing" textLength="92" x="1649.75" y="1674.979">previous()</text><polygon fill="#181818" points="2009.5,1750.0789,2019.5,1754.0789,2009.5,1758.0789,2013.5,1754.0789" style="stroke:#181818;stroke-width:1.0;"/><line style="stroke:#181818;stroke-width:1.0;" x1="1150" x2="2015.5" y1="1754.0789" y2="1754.0789"/><text fill="#000000" font-family="sans-serif" font-size="20" font-weight="bold" lengthAdjust="spacing" textLength="23.25" x="1157" y="1746.219">28</text><text fill="#000000" font-family="sans-serif" font-size="20" lengthAdjust="spacing" textLength="117" x="1184.25" y="1746.219">save(course)</text><line style="stroke:#000000;stroke-width:1.0;stroke-dasharray:2.0,2.0;" x1="602.25" x2="2122" y1="1793.0789" y2="1793.0789"/><text fill="#000000" font-family="sans-serif" font-size="20" font-weight="bold" lengthAdjust="spacing" textLength="54.75" x="607.25" y="1814.4589">[else]</text><polygon fill="#181818" points="1128,1850.5589,1138,1854.5589,1128,1858.5589,1132,1854.5589" style="stroke:#181818;stroke-width:1.0;"/><line style="stroke:#181818;stroke-width:1.0;" x1="711.75" x2="1134" y1="1854.5589" y2="1854.5589"/><text fill="#000000" font-family="sans-serif" font-size="20" font-weight="bold" lengthAdjust="spacing" textLength="23.25" x="718.75" y="1846.6989">29</text><text fill="#000000" font-family="sans-serif" font-size="20" lengthAdjust="spacing" textLength="346" x="746" y="1846.6989">course = toggleToNextCourseStatus()</text><polygon fill="#181818" points="1593.5,1891.7989,1603.5,1895.7989,1593.5,1899.7989,1597.5,1895.7989" style="stroke:#181818;stroke-width:1.0;"/><line style="stroke:#181818;stroke-width:1.0;" x1="1150" x2="1599.5" y1="1895.7989" y2="1895.7989"/><text fill="#000000" font-family="sans-serif" font-size="20" font-weight="bold" lengthAdjust="spacing" textLength="23.25" x="1157" y="1887.9389">30</text><text fill="#000000" font-family="sans-serif" font-size="20" lengthAdjust="spacing" textLength="100" x="1184.25" y="1887.9389">nextState()</text><polygon fill="#181818" points="1850.5,1933.0388,1860.5,1937.0388,1850.5,1941.0388,1854.5,1937.0388" style="stroke:#181818;stroke-width:1.0;"/><line style="stroke:#181818;stroke-width:1.0;" x1="1615.5" x2="1856.5" y1="1937.0388" y2="1937.0388"/><text fill="#000000" font-family="sans-serif" font-size="20" font-weight="bold" lengthAdjust="spacing" textLength="23.25" x="1622.5" y="1929.1789">31</text><text fill="#000000" font-family="sans-serif" font-size="20" lengthAdjust="spacing" textLength="53" x="1649.75" y="1929.1789">next()</text><polygon fill="#181818" points="2009.5,2004.2788,2019.5,2008.2788,2009.5,2012.2788,2013.5,2008.2788" style="stroke:#181818;stroke-width:1.0;"/><line style="stroke:#181818;stroke-width:1.0;" x1="1150" x2="2015.5" y1="2008.2788" y2="2008.2788"/><text fill="#000000" font-family="sans-serif" font-size="20" font-weight="bold" lengthAdjust="spacing" textLength="23.25" x="1157" y="2000.4188">32</text><text fill="#000000" font-family="sans-serif" font-size="20" lengthAdjust="spacing" textLength="117" x="1184.25" y="2000.4188">save(course)</text><polygon fill="#181818" points="65.5,2082.5188,55.5,2086.5188,65.5,2090.5188,61.5,2086.5188" style="stroke:#181818;stroke-width:1.0;"/><line style="stroke:#181818;stroke-width:1.0;stroke-dasharray:2.0,2.0;" x1="59.5" x2="700.75" y1="2086.5188" y2="2086.5188"/><text fill="#000000" font-family="sans-serif" font-size="20" font-weight="bold" lengthAdjust="spacing" textLength="23.25" x="71.5" y="2078.6588">33</text><text fill="#000000" font-family="sans-serif" font-size="20" lengthAdjust="spacing" textLength="246" x="98.75" y="2078.6588">informs operation success</text><!--SRC=[rLPDRzim3BtxLn0z9S2633iQRO4XtO00pLeaxUwApIH25ScJvApThn_raLfsRQSzxj9MydiK-KWzrJnnMJ7D3a8LJrX2YLjM2_j3IRlcVn6-VibORPMi3nlKMSOAgpHSB9baEzGNm0miium2M5xmYaaB5skqSrLhWslBR6qU5nxrk83BoqgZGKdRNCdhwr7Qd1BGIeXuoFnXTKi1M5K9NlJo0_cM6xj6VUG5UjvwzOje9kpqKq9y_oT1ItLWV23upSET1zDlXxIg7-OAIAFwTHewoqfcsORHWG6nmaePJig-EDRg-xsBhryt7OM4vqSNX-HUmkTh4ZG7ZRzhDDQ0LL3icTmXs3s2yGg2sWA3mX_Gq1yN6RM2-4xH72J-cHIT7AODse6o4jjhnwS0onnARYh1Nem_bUY6RxZWbgE1YQfGpYWJRMU5K0PdMowvsK_JS9JCQoq61HOMc0HLkVwsKgRwXGM-XOcF5Qk26VW3udAQ0QIrXLq3Lo1eAkuedw2scJXakoO84qPScfXyd408Mhh98hXhLWvKM_bD24Vns0Jj07udgJlk2QKgsD9zeY_xKwSSDCQEGvbJUsda9asLQVODAyA9w0RKzxPxS4YzjPK4w3OQ06NfiynGK6JIttMroNHOxRbhK_aXlKSemue7KXiTrVslzOQJuE7Ml4VoXRpNQaSEQr8DtmhV8_rPwgcElXOqv0-C_aWptjEE_eOCjwItAKDjwMjCUXLaINxKcA0JC3WWEp8ks4RWQsSOaUWBroTFTXlCF7d7Zewd96OTK-owOWXVek6QdkYeLTiWmrmuIlJ6gyYDkfbFGEt2vscI-IcHGiajrmT_Y5Mx7HL0RuTRnLWX-U4iOm3Zx47xrxcJNNJlrBnxPvco3Wayg7kDHwvga_vJC6ea0PX35Od-sUqmJYStSv8yqGsrZ-KXMS_C37v8SWiNnh0Z9cDyth2wS-XDmVqu9zvFVBPdXNihdIHQ8zivrsj9vwZzh9C-8z8DtSHH-TvhD6z4TFUtkGHSaWcbemkcBWfoi-mV]--></g></svg>