<?xml version="1.0" encoding="UTF-8" standalone="no"?><svg xmlns="http://www.w3.org/2000/svg" xmlns:xlink="http://www.w3.org/1999/xlink" contentStyleType="text/css" height="1122px" preserveAspectRatio="none" style="width:919px;height:1122px;background:#FFFFFF;" version="1.1" viewBox="0 0 919 1122" width="919px" zoomAndPan="magnify"><defs/><g><!--class ToggleCourseStatusUI--><g id="elem_ToggleCourseStatusUI"><rect codeLine="2" fill="#F1F1F1" height="53.24" id="ToggleCourseStatusUI" rx="2.5" ry="2.5" style="stroke:#181818;stroke-width:0.5;" width="252" x="517" y="7"/><ellipse cx="533" cy="25.62" fill="#ADD1B2" rx="12" ry="12" style="stroke:#181818;stroke-width:1.0;"/><path d="M533.125,19.9637 Q532.0469,19.9637 531.1875,20.3387 Q530.3281,20.6981 529.7344,21.4012 Q529.1406,22.0887 528.8125,23.1044 Q528.5,24.12 528.5,25.4169 Q528.5,27.12 529.0156,28.3544 Q529.5313,29.5731 530.5469,30.2294 Q531.5625,30.87 533.1094,30.87 Q534.0156,30.87 534.8281,30.7137 Q535.6406,30.5575 536.8281,30.1981 L536.8281,32.4012 Q535.7969,32.7762 534.9219,32.9169 Q534.0469,33.0731 532.8438,33.0731 Q530.5625,33.0731 529.0313,32.1356 Q527.5,31.1825 526.7344,29.4481 Q525.9688,27.6981 525.9688,25.4012 Q525.9688,23.7294 526.4375,22.3387 Q526.9063,20.9481 527.8125,19.9169 Q528.7344,18.87 530.0781,18.3231 Q531.4219,17.7606 533.1406,17.7606 Q534.2813,17.7606 535.3281,17.995 Q536.3906,18.2137 537.4844,18.7762 L536.5156,20.8387 Q535.5938,20.4325 534.8125,20.1981 Q534.0313,19.9637 533.125,19.9637 Z " fill="#000000"/><text fill="#000000" font-family="sans-serif" font-size="20" lengthAdjust="spacing" textLength="218" x="548" y="33.38">ToggleCourseStatusUI</text><line style="stroke:#181818;stroke-width:0.5;" x1="518" x2="768" y1="44.24" y2="44.24"/><line style="stroke:#181818;stroke-width:0.5;" x1="518" x2="768" y1="52.24" y2="52.24"/></g><!--class ToggleCourseStatusController--><g id="elem_ToggleCourseStatusController"><rect codeLine="6" fill="#F1F1F1" height="134.9599" id="ToggleCourseStatusController" rx="2.5" ry="2.5" style="stroke:#181818;stroke-width:0.5;" width="328" x="479" y="133.5"/><ellipse cx="495" cy="152.12" fill="#ADD1B2" rx="12" ry="12" style="stroke:#181818;stroke-width:1.0;"/><path d="M495.125,146.4637 Q494.0469,146.4637 493.1875,146.8387 Q492.3281,147.1981 491.7344,147.9012 Q491.1406,148.5887 490.8125,149.6044 Q490.5,150.62 490.5,151.9169 Q490.5,153.62 491.0156,154.8544 Q491.5313,156.0731 492.5469,156.7294 Q493.5625,157.37 495.1094,157.37 Q496.0156,157.37 496.8281,157.2137 Q497.6406,157.0575 498.8281,156.6981 L498.8281,158.9012 Q497.7969,159.2762 496.9219,159.4169 Q496.0469,159.5731 494.8438,159.5731 Q492.5625,159.5731 491.0313,158.6356 Q489.5,157.6825 488.7344,155.9481 Q487.9688,154.1981 487.9688,151.9012 Q487.9688,150.2294 488.4375,148.8387 Q488.9063,147.4481 489.8125,146.4169 Q490.7344,145.37 492.0781,144.8231 Q493.4219,144.2606 495.1406,144.2606 Q496.2813,144.2606 497.3281,144.495 Q498.3906,144.7137 499.4844,145.2762 L498.5156,147.3387 Q497.5938,146.9325 496.8125,146.6981 Q496.0313,146.4637 495.125,146.4637 Z " fill="#000000"/><text fill="#000000" font-family="sans-serif" font-size="20" lengthAdjust="spacing" textLength="294" x="510" y="159.88">ToggleCourseStatusController</text><line style="stroke:#181818;stroke-width:0.5;" x1="480" x2="806" y1="170.74" y2="170.74"/><line style="stroke:#181818;stroke-width:0.5;" x1="480" x2="806" y1="178.74" y2="178.74"/><ellipse cx="490" cy="197.86" fill="#84BE84" rx="3" ry="3" style="stroke:#038048;stroke-width:1.0;"/><text fill="#000000" font-family="sans-serif" font-size="20" lengthAdjust="spacing" textLength="171" x="500" y="204.12">listOpenCourses()</text><ellipse cx="490" cy="225.0999" fill="#84BE84" rx="3" ry="3" style="stroke:#038048;stroke-width:1.0;"/><text fill="#000000" font-family="sans-serif" font-size="20" lengthAdjust="spacing" textLength="183" x="500" y="231.3599">listClosedCourses()</text><ellipse cx="490" cy="252.3399" fill="#84BE84" rx="3" ry="3" style="stroke:#038048;stroke-width:1.0;"/><text fill="#000000" font-family="sans-serif" font-size="20" lengthAdjust="spacing" textLength="267" x="500" y="258.5999">toggleCourseStatus(course)</text></g><!--class Course--><g id="elem_Course"><rect codeLine="13" fill="#F1F1F1" height="243.9198" id="Course" rx="2.5" ry="2.5" style="stroke:#181818;stroke-width:0.5;" width="242" x="197" y="342"/><ellipse cx="280" cy="360.62" fill="#ADD1B2" rx="12" ry="12" style="stroke:#181818;stroke-width:1.0;"/><path d="M280.125,354.9637 Q279.0469,354.9637 278.1875,355.3387 Q277.3281,355.6981 276.7344,356.4012 Q276.1406,357.0887 275.8125,358.1044 Q275.5,359.12 275.5,360.4169 Q275.5,362.12 276.0156,363.3544 Q276.5313,364.5731 277.5469,365.2294 Q278.5625,365.87 280.1094,365.87 Q281.0156,365.87 281.8281,365.7137 Q282.6406,365.5575 283.8281,365.1981 L283.8281,367.4012 Q282.7969,367.7762 281.9219,367.9169 Q281.0469,368.0731 279.8438,368.0731 Q277.5625,368.0731 276.0313,367.1356 Q274.5,366.1825 273.7344,364.4481 Q272.9688,362.6981 272.9688,360.4012 Q272.9688,358.7294 273.4375,357.3387 Q273.9063,355.9481 274.8125,354.9169 Q275.7344,353.87 277.0781,353.3231 Q278.4219,352.7606 280.1406,352.7606 Q281.2813,352.7606 282.3281,352.995 Q283.3906,353.2137 284.4844,353.7762 L283.5156,355.8387 Q282.5938,355.4325 281.8125,355.1981 Q281.0313,354.9637 280.125,354.9637 Z " fill="#000000"/><text fill="#000000" font-family="sans-serif" font-size="20" lengthAdjust="spacing" textLength="67" x="302" y="368.38">Course</text><line style="stroke:#181818;stroke-width:0.5;" x1="198" x2="438" y1="379.24" y2="379.24"/><rect fill="none" height="6" style="stroke:#C82930;stroke-width:1.0;" width="6" x="205" y="395.36"/><text fill="#000000" font-family="sans-serif" font-size="20" lengthAdjust="spacing" textLength="45" x="218" y="404.62">code</text><rect fill="none" height="6" style="stroke:#C82930;stroke-width:1.0;" width="6" x="205" y="422.5999"/><text fill="#000000" font-family="sans-serif" font-size="20" lengthAdjust="spacing" textLength="39" x="218" y="431.8599">title</text><rect fill="none" height="6" style="stroke:#C82930;stroke-width:1.0;" width="6" x="205" y="449.8399"/><text fill="#000000" font-family="sans-serif" font-size="20" lengthAdjust="spacing" textLength="110" x="218" y="459.0999">description</text><rect fill="none" height="6" style="stroke:#C82930;stroke-width:1.0;" width="6" x="205" y="477.0799"/><text fill="#000000" font-family="sans-serif" font-size="20" lengthAdjust="spacing" textLength="162" x="218" y="486.3399">enrolmentLimits</text><rect fill="none" height="6" style="stroke:#C82930;stroke-width:1.0;" width="6" x="205" y="504.3199"/><text fill="#000000" font-family="sans-serif" font-size="20" lengthAdjust="spacing" textLength="113" x="218" y="513.5799">courseState</text><rect fill="none" height="6" style="stroke:#C82930;stroke-width:1.0;" width="6" x="205" y="531.5598"/><text fill="#000000" font-family="sans-serif" font-size="20" lengthAdjust="spacing" textLength="215" x="218" y="540.8198">courseEnrolmentState</text><rect fill="none" height="6" style="stroke:#C82930;stroke-width:1.0;" width="6" x="205" y="558.7998"/><text fill="#000000" font-family="sans-serif" font-size="20" lengthAdjust="spacing" textLength="93" x="218" y="568.0598">createdAt</text><line style="stroke:#181818;stroke-width:0.5;" x1="198" x2="438" y1="577.9198" y2="577.9198"/></g><!--class RepositoryFactory--><g id="elem_RepositoryFactory"><rect codeLine="23" fill="#F1F1F1" height="80.4799" id="RepositoryFactory" rx="2.5" ry="2.5" style="stroke:#181818;stroke-width:0.5;" width="212" x="537" y="646"/><ellipse cx="555.25" cy="664.62" fill="#ADD1B2" rx="12" ry="12" style="stroke:#181818;stroke-width:1.0;"/><path d="M555.375,658.9637 Q554.2969,658.9637 553.4375,659.3387 Q552.5781,659.6981 551.9844,660.4012 Q551.3906,661.0887 551.0625,662.1044 Q550.75,663.12 550.75,664.4169 Q550.75,666.12 551.2656,667.3544 Q551.7813,668.5731 552.7969,669.2294 Q553.8125,669.87 555.3594,669.87 Q556.2656,669.87 557.0781,669.7137 Q557.8906,669.5575 559.0781,669.1981 L559.0781,671.4012 Q558.0469,671.7762 557.1719,671.9169 Q556.2969,672.0731 555.0938,672.0731 Q552.8125,672.0731 551.2813,671.1356 Q549.75,670.1825 548.9844,668.4481 Q548.2188,666.6981 548.2188,664.4012 Q548.2188,662.7294 548.6875,661.3387 Q549.1563,659.9481 550.0625,658.9169 Q550.9844,657.87 552.3281,657.3231 Q553.6719,656.7606 555.3906,656.7606 Q556.5313,656.7606 557.5781,656.995 Q558.6406,657.2137 559.7344,657.7762 L558.7656,659.8387 Q557.8438,659.4325 557.0625,659.1981 Q556.2813,658.9637 555.375,658.9637 Z " fill="#000000"/><text fill="#000000" font-family="sans-serif" font-size="20" lengthAdjust="spacing" textLength="173" x="570.75" y="672.38">RepositoryFactory</text><line style="stroke:#181818;stroke-width:0.5;" x1="538" x2="748" y1="683.24" y2="683.24"/><line style="stroke:#181818;stroke-width:0.5;" x1="538" x2="748" y1="691.24" y2="691.24"/><ellipse cx="548" cy="710.36" fill="#84BE84" rx="3" ry="3" style="stroke:#038048;stroke-width:1.0;"/><text fill="#000000" font-family="sans-serif" font-size="20" lengthAdjust="spacing" textLength="185" x="558" y="716.62">RepositoryFactory()</text></g><!--class CourseRepository--><g id="elem_CourseRepository"><rect codeLine="27" fill="#F1F1F1" height="134.9599" id="CourseRepository" rx="2.5" ry="2.5" style="stroke:#181818;stroke-width:0.5;" width="189" x="548.5" y="786"/><ellipse cx="564.5" cy="804.62" fill="#B4A7E5" rx="12" ry="12" style="stroke:#181818;stroke-width:1.0;"/><path d="M567.0781,812.12 L561.2969,812.12 L561.2969,810.5106 L562.9844,810.1356 L562.9844,799.2137 L561.2969,798.8231 L561.2969,797.2137 L567.0781,797.2137 L567.0781,798.8231 L565.4063,799.2137 L565.4063,810.1356 L567.0781,810.5106 L567.0781,812.12 Z " fill="#000000"/><text fill="#000000" font-family="sans-serif" font-size="20" font-style="italic" lengthAdjust="spacing" textLength="155" x="579.5" y="812.38">CourseRepository</text><line style="stroke:#181818;stroke-width:0.5;" x1="549.5" x2="736.5" y1="823.24" y2="823.24"/><line style="stroke:#181818;stroke-width:0.5;" x1="549.5" x2="736.5" y1="831.24" y2="831.24"/><ellipse cx="559.5" cy="850.36" fill="#84BE84" rx="3" ry="3" style="stroke:#038048;stroke-width:1.0;"/><text fill="#000000" font-family="sans-serif" font-size="20" lengthAdjust="spacing" textLength="118" x="569.5" y="856.62">save(course)</text><ellipse cx="559.5" cy="877.5999" fill="#84BE84" rx="3" ry="3" style="stroke:#038048;stroke-width:1.0;"/><text fill="#000000" font-family="sans-serif" font-size="20" lengthAdjust="spacing" textLength="138" x="569.5" y="883.8599">openCourses()</text><ellipse cx="559.5" cy="904.8399" fill="#84BE84" rx="3" ry="3" style="stroke:#038048;stroke-width:1.0;"/><text fill="#000000" font-family="sans-serif" font-size="20" lengthAdjust="spacing" textLength="150" x="569.5" y="911.0999">closedCourses()</text></g><!--class InMemoryCourseRepository--><g id="elem_InMemoryCourseRepository"><rect codeLine="33" fill="#F1F1F1" height="134.9599" id="InMemoryCourseRepository" rx="2.5" ry="2.5" style="stroke:#181818;stroke-width:0.5;" width="303" x="339.5" y="981"/><ellipse cx="355.5" cy="999.62" fill="#ADD1B2" rx="12" ry="12" style="stroke:#181818;stroke-width:1.0;"/><path d="M355.625,993.9637 Q354.5469,993.9637 353.6875,994.3387 Q352.8281,994.6981 352.2344,995.4012 Q351.6406,996.0887 351.3125,997.1044 Q351,998.12 351,999.4169 Q351,1001.12 351.5156,1002.3544 Q352.0313,1003.5731 353.0469,1004.2294 Q354.0625,1004.87 355.6094,1004.87 Q356.5156,1004.87 357.3281,1004.7137 Q358.1406,1004.5575 359.3281,1004.1981 L359.3281,1006.4012 Q358.2969,1006.7762 357.4219,1006.9169 Q356.5469,1007.0731 355.3438,1007.0731 Q353.0625,1007.0731 351.5313,1006.1356 Q350,1005.1825 349.2344,1003.4481 Q348.4688,1001.6981 348.4688,999.4012 Q348.4688,997.7294 348.9375,996.3387 Q349.4063,994.9481 350.3125,993.9169 Q351.2344,992.87 352.5781,992.3231 Q353.9219,991.7606 355.6406,991.7606 Q356.7813,991.7606 357.8281,991.995 Q358.8906,992.2137 359.9844,992.7762 L359.0156,994.8387 Q358.0938,994.4325 357.3125,994.1981 Q356.5313,993.9637 355.625,993.9637 Z " fill="#000000"/><text fill="#000000" font-family="sans-serif" font-size="20" lengthAdjust="spacing" textLength="269" x="370.5" y="1007.38">InMemoryCourseRepository</text><line style="stroke:#181818;stroke-width:0.5;" x1="340.5" x2="641.5" y1="1018.24" y2="1018.24"/><line style="stroke:#181818;stroke-width:0.5;" x1="340.5" x2="641.5" y1="1026.24" y2="1026.24"/><ellipse cx="350.5" cy="1045.36" fill="#84BE84" rx="3" ry="3" style="stroke:#038048;stroke-width:1.0;"/><text fill="#000000" font-family="sans-serif" font-size="20" lengthAdjust="spacing" textLength="118" x="360.5" y="1051.62">save(course)</text><ellipse cx="350.5" cy="1072.5999" fill="#84BE84" rx="3" ry="3" style="stroke:#038048;stroke-width:1.0;"/><text fill="#000000" font-family="sans-serif" font-size="20" lengthAdjust="spacing" textLength="138" x="360.5" y="1078.8599">openCourses()</text><ellipse cx="350.5" cy="1099.8399" fill="#84BE84" rx="3" ry="3" style="stroke:#038048;stroke-width:1.0;"/><text fill="#000000" font-family="sans-serif" font-size="20" lengthAdjust="spacing" textLength="150" x="360.5" y="1106.0999">closedCourses()</text></g><!--class JpaCourseRepository--><g id="elem_JpaCourseRepository"><rect codeLine="39" fill="#F1F1F1" height="134.9599" id="JpaCourseRepository" rx="2.5" ry="2.5" style="stroke:#181818;stroke-width:0.5;" width="234" x="678" y="981"/><ellipse cx="694" cy="999.62" fill="#ADD1B2" rx="12" ry="12" style="stroke:#181818;stroke-width:1.0;"/><path d="M694.125,993.9637 Q693.0469,993.9637 692.1875,994.3387 Q691.3281,994.6981 690.7344,995.4012 Q690.1406,996.0887 689.8125,997.1044 Q689.5,998.12 689.5,999.4169 Q689.5,1001.12 690.0156,1002.3544 Q690.5313,1003.5731 691.5469,1004.2294 Q692.5625,1004.87 694.1094,1004.87 Q695.0156,1004.87 695.8281,1004.7137 Q696.6406,1004.5575 697.8281,1004.1981 L697.8281,1006.4012 Q696.7969,1006.7762 695.9219,1006.9169 Q695.0469,1007.0731 693.8438,1007.0731 Q691.5625,1007.0731 690.0313,1006.1356 Q688.5,1005.1825 687.7344,1003.4481 Q686.9688,1001.6981 686.9688,999.4012 Q686.9688,997.7294 687.4375,996.3387 Q687.9063,994.9481 688.8125,993.9169 Q689.7344,992.87 691.0781,992.3231 Q692.4219,991.7606 694.1406,991.7606 Q695.2813,991.7606 696.3281,991.995 Q697.3906,992.2137 698.4844,992.7762 L697.5156,994.8387 Q696.5938,994.4325 695.8125,994.1981 Q695.0313,993.9637 694.125,993.9637 Z " fill="#000000"/><text fill="#000000" font-family="sans-serif" font-size="20" lengthAdjust="spacing" textLength="200" x="709" y="1007.38">JpaCourseRepository</text><line style="stroke:#181818;stroke-width:0.5;" x1="679" x2="911" y1="1018.24" y2="1018.24"/><line style="stroke:#181818;stroke-width:0.5;" x1="679" x2="911" y1="1026.24" y2="1026.24"/><ellipse cx="689" cy="1045.36" fill="#84BE84" rx="3" ry="3" style="stroke:#038048;stroke-width:1.0;"/><text fill="#000000" font-family="sans-serif" font-size="20" lengthAdjust="spacing" textLength="118" x="699" y="1051.62">save(course)</text><ellipse cx="689" cy="1072.5999" fill="#84BE84" rx="3" ry="3" style="stroke:#038048;stroke-width:1.0;"/><text fill="#000000" font-family="sans-serif" font-size="20" lengthAdjust="spacing" textLength="138" x="699" y="1078.8599">openCourses()</text><ellipse cx="689" cy="1099.8399" fill="#84BE84" rx="3" ry="3" style="stroke:#038048;stroke-width:1.0;"/><text fill="#000000" font-family="sans-serif" font-size="20" lengthAdjust="spacing" textLength="150" x="699" y="1106.0999">closedCourses()</text></g><!--class PersistenceContext--><g id="elem_PersistenceContext"><rect codeLine="45" fill="#F1F1F1" height="80.4799" id="PersistenceContext" rx="2.5" ry="2.5" style="stroke:#181818;stroke-width:0.5;" width="219" x="533.5" y="424"/><ellipse cx="549.5" cy="442.62" fill="#ADD1B2" rx="12" ry="12" style="stroke:#181818;stroke-width:1.0;"/><path d="M549.625,436.9637 Q548.5469,436.9637 547.6875,437.3387 Q546.8281,437.6981 546.2344,438.4012 Q545.6406,439.0887 545.3125,440.1044 Q545,441.12 545,442.4169 Q545,444.12 545.5156,445.3544 Q546.0313,446.5731 547.0469,447.2294 Q548.0625,447.87 549.6094,447.87 Q550.5156,447.87 551.3281,447.7137 Q552.1406,447.5575 553.3281,447.1981 L553.3281,449.4012 Q552.2969,449.7762 551.4219,449.9169 Q550.5469,450.0731 549.3438,450.0731 Q547.0625,450.0731 545.5313,449.1356 Q544,448.1825 543.2344,446.4481 Q542.4688,444.6981 542.4688,442.4012 Q542.4688,440.7294 542.9375,439.3387 Q543.4063,437.9481 544.3125,436.9169 Q545.2344,435.87 546.5781,435.3231 Q547.9219,434.7606 549.6406,434.7606 Q550.7813,434.7606 551.8281,434.995 Q552.8906,435.2137 553.9844,435.7762 L553.0156,437.8387 Q552.0938,437.4325 551.3125,437.1981 Q550.5313,436.9637 549.625,436.9637 Z " fill="#000000"/><text fill="#000000" font-family="sans-serif" font-size="20" lengthAdjust="spacing" textLength="185" x="564.5" y="450.38">PersistenceContext</text><line style="stroke:#181818;stroke-width:0.5;" x1="534.5" x2="751.5" y1="461.24" y2="461.24"/><line style="stroke:#181818;stroke-width:0.5;" x1="534.5" x2="751.5" y1="469.24" y2="469.24"/><rect fill="#F24D5C" height="6" style="stroke:#C82930;stroke-width:1.0;" width="6" x="541.5" y="485.36"/><text fill="#000000" font-family="sans-serif" font-size="20" lengthAdjust="spacing" textLength="129" x="554.5" y="494.62">repositories()</text></g><!--class CourseState--><g id="elem_CourseState"><rect codeLine="50" fill="#F1F1F1" height="162.1999" id="CourseState" rx="2.5" ry="2.5" style="stroke:#181818;stroke-width:0.5;" width="150" x="7" y="120"/><ellipse cx="23" cy="138.62" fill="#EB937F" rx="12" ry="12" style="stroke:#181818;stroke-width:1.0;"/><path d="M27.0469,146.12 L18.4375,146.12 L18.4375,131.2137 L27.0469,131.2137 L27.0469,133.4169 L20.8594,133.4169 L20.8594,137.2606 L26.6875,137.2606 L26.6875,139.4325 L20.8594,139.4325 L20.8594,143.9169 L27.0469,143.9169 L27.0469,146.12 Z " fill="#000000"/><text fill="#000000" font-family="sans-serif" font-size="20" lengthAdjust="spacing" textLength="116" x="38" y="146.38">CourseState</text><line style="stroke:#181818;stroke-width:0.5;" x1="8" x2="156" y1="157.24" y2="157.24"/><text fill="#000000" font-family="sans-serif" font-size="20" lengthAdjust="spacing" textLength="74" x="13" y="182.62">CLOSED</text><text fill="#000000" font-family="sans-serif" font-size="20" lengthAdjust="spacing" textLength="54" x="13" y="209.8599">OPEN</text><text fill="#000000" font-family="sans-serif" font-size="20" lengthAdjust="spacing" textLength="130" x="13" y="237.0999">IN_PROGRESS</text><text fill="#000000" font-family="sans-serif" font-size="20" lengthAdjust="spacing" textLength="92" x="13" y="264.3399">FINISHED</text><line style="stroke:#181818;stroke-width:0.5;" x1="8" x2="156" y1="274.1999" y2="274.1999"/></g><!--class CourseEnrolmentState--><g id="elem_CourseEnrolmentState"><rect codeLine="57" fill="#F1F1F1" height="107.7199" id="CourseEnrolmentState" rx="2.5" ry="2.5" style="stroke:#181818;stroke-width:0.5;" width="252" x="192" y="147"/><ellipse cx="208" cy="165.62" fill="#EB937F" rx="12" ry="12" style="stroke:#181818;stroke-width:1.0;"/><path d="M212.0469,173.12 L203.4375,173.12 L203.4375,158.2137 L212.0469,158.2137 L212.0469,160.4169 L205.8594,160.4169 L205.8594,164.2606 L211.6875,164.2606 L211.6875,166.4325 L205.8594,166.4325 L205.8594,170.9169 L212.0469,170.9169 L212.0469,173.12 Z " fill="#000000"/><text fill="#000000" font-family="sans-serif" font-size="20" lengthAdjust="spacing" textLength="218" x="223" y="173.38">CourseEnrolmentState</text><line style="stroke:#181818;stroke-width:0.5;" x1="193" x2="443" y1="184.24" y2="184.24"/><text fill="#000000" font-family="sans-serif" font-size="20" lengthAdjust="spacing" textLength="54" x="198" y="209.62">OPEN</text><text fill="#000000" font-family="sans-serif" font-size="20" lengthAdjust="spacing" textLength="74" x="198" y="236.8599">CLOSED</text><line style="stroke:#181818;stroke-width:0.5;" x1="193" x2="443" y1="246.7199" y2="246.7199"/></g><!--link CourseState to Course--><g id="link_CourseState_Course"><path codeLine="63" d="M154.41,282.08 C170.42,299.78 187.74,318.95 204.93,337.95 " fill="none" id="CourseState-to-Course" style="stroke:#181818;stroke-width:1.0;"/><polygon fill="#181818" points="208.37,341.75,205.2847,332.3969,205.0102,338.0471,199.36,337.7726,208.37,341.75" style="stroke:#181818;stroke-width:1.0;"/></g><!--link CourseEnrolmentState to Course--><g id="link_CourseEnrolmentState_Course"><path codeLine="64" d="M318,255.13 C318,278.77 318,307.72 318,336.41 " fill="none" id="CourseEnrolmentState-to-Course" style="stroke:#181818;stroke-width:1.0;"/><polygon fill="#181818" points="318,341.77,322,332.77,318,336.77,314,332.77,318,341.77" style="stroke:#181818;stroke-width:1.0;"/></g><!--link PersistenceContext to RepositoryFactory--><g id="link_PersistenceContext_RepositoryFactory"><path codeLine="66" d="M643,504.08 C643,542.36 643,600.64 643,640.64 " fill="none" id="PersistenceContext-to-RepositoryFactory" style="stroke:#181818;stroke-width:1.0;stroke-dasharray:7.0,7.0;"/><polygon fill="#181818" points="643,645.92,647,636.92,643,640.92,639,636.92,643,645.92" style="stroke:#181818;stroke-width:1.0;"/></g><!--link RepositoryFactory to CourseRepository--><g id="link_RepositoryFactory_CourseRepository"><path codeLine="67" d="M643,726.22 C643,742.47 643,761.86 643,780.5 " fill="none" id="RepositoryFactory-to-CourseRepository" style="stroke:#181818;stroke-width:1.0;"/><polygon fill="#181818" points="643,785.73,647,776.73,643,780.73,639,776.73,643,785.73" style="stroke:#181818;stroke-width:1.0;"/></g><!--reverse link CourseRepository to InMemoryCourseRepository--><g id="link_CourseRepository_InMemoryCourseRepository"><path codeLine="69" d="M577.76,937.33 C566.33,951.85 554.56,966.8 543.52,980.81 " fill="none" id="CourseRepository-backto-InMemoryCourseRepository" style="stroke:#181818;stroke-width:1.0;stroke-dasharray:7.0,7.0;"/><polygon fill="none" points="572.6,932.57,590.48,921.19,583.6,941.23,572.6,932.57" style="stroke:#181818;stroke-width:1.0;"/></g><!--reverse link CourseRepository to JpaCourseRepository--><g id="link_CourseRepository_JpaCourseRepository"><path codeLine="70" d="M708.24,937.33 C719.67,951.85 731.44,966.8 742.48,980.81 " fill="none" id="CourseRepository-backto-JpaCourseRepository" style="stroke:#181818;stroke-width:1.0;stroke-dasharray:7.0,7.0;"/><polygon fill="none" points="702.4,941.23,695.52,921.19,713.4,932.57,702.4,941.23" style="stroke:#181818;stroke-width:1.0;"/></g><!--link ToggleCourseStatusController to PersistenceContext--><g id="link_ToggleCourseStatusController_PersistenceContext"><path codeLine="71" d="M643,268.54 C643,315.61 643,377.43 643,418.6 " fill="none" id="ToggleCourseStatusController-to-PersistenceContext" style="stroke:#181818;stroke-width:1.0;stroke-dasharray:7.0,7.0;"/><polygon fill="#181818" points="643,423.77,647,414.77,643,418.77,639,414.77,643,423.77" style="stroke:#181818;stroke-width:1.0;"/></g><!--link ToggleCourseStatusController to Course--><g id="link_ToggleCourseStatusController_Course"><path codeLine="72" d="M560.15,268.54 C524.67,297.03 482.47,330.92 443.31,362.36 " fill="none" id="ToggleCourseStatusController-to-Course" style="stroke:#181818;stroke-width:1.0;stroke-dasharray:7.0,7.0;"/><polygon fill="#181818" points="439.05,365.79,448.5687,363.2614,442.9445,362.6543,443.5516,357.0301,439.05,365.79" style="stroke:#181818;stroke-width:1.0;"/></g><!--link ToggleCourseStatusUI to ToggleCourseStatusController--><g id="link_ToggleCourseStatusUI_ToggleCourseStatusController"><path codeLine="73" d="M643,60.36 C643,78.61 643,104.01 643,128.15 " fill="none" id="ToggleCourseStatusUI-to-ToggleCourseStatusController" style="stroke:#181818;stroke-width:1.0;stroke-dasharray:7.0,7.0;"/><polygon fill="#181818" points="643,133.28,647,124.28,643,128.28,639,124.28,643,133.28" style="stroke:#181818;stroke-width:1.0;"/></g><!--SRC=[jLHRRu8m57xlh-YZnaYMFIyc2yEDnOcHxNbfoj4qbfQqPTdD_xuMYg2WU_Afv_PzvmfwnqH15Ccvf3l8S0ORKd8pbyAax1lmxGr2b1EjyQlSRZc4ibGQKaDCgTzY_8FG_dn0Q5cKv1oK3PnWphH92X1rY1wDlItaKaFMjPeUrOXMojYby_bgjsN6U8gfpA0I33EybZBGLB72C2ag7OIj9GTX5YndHdjOam8wUjH4TXmAh9ZTcxRVDHHICoFLrvnGzrIbJFhsKLKr4mRKXb3mXRTX7gV91npQT0PvD2jdeIUJEjGIYnV8BTKLg9yBSWNM5IXjLm-2WhiI-3H-aQh9mXe00b7ck3s6UkNX8acZ1oiagsXfdtZvlbedZ-ieJQqsZvTn-cJz-oFuyM8h7W_tT2vTDzDqElDGDCZGyQE1be9WrZy7r3-SbgRrDOLqndxt6mHdLtqcV61zwEANwchkj_8_nezXy3VX_9S84Fe3]--></g></svg>