<?xml version="1.0" encoding="UTF-8" standalone="no"?><svg xmlns="http://www.w3.org/2000/svg" xmlns:xlink="http://www.w3.org/1999/xlink" contentStyleType="text/css" height="1232px" preserveAspectRatio="none" style="width:1851px;height:1232px;background:#FFFFFF;" version="1.1" viewBox="0 0 1851 1232" width="1851px" zoomAndPan="magnify"><defs/><g><!--class ListMeetingUI--><g id="elem_ListMeetingUI"><rect codeLine="2" fill="#F1F1F1" height="53.24" id="ListMeetingUI" rx="2.5" ry="2.5" style="stroke:#181818;stroke-width:0.5;" width="164" x="646.5" y="7"/><ellipse cx="662.5" cy="25.62" fill="#ADD1B2" rx="12" ry="12" style="stroke:#181818;stroke-width:1.0;"/><path d="M662.625,20.2137 Q661.5469,20.2137 660.6875,20.5887 Q659.8281,20.9481 659.2344,21.6512 Q658.6406,22.3387 658.3125,23.3544 Q658,24.37 658,25.6669 Q658,27.37 658.5156,28.6044 Q659.0313,29.8231 660.0469,30.4794 Q661.0625,31.12 662.6094,31.12 Q663.5156,31.12 664.3281,30.9637 Q665.1406,30.8075 666.3281,30.4481 L666.3281,32.6512 Q665.2969,33.0262 664.4219,33.1669 Q663.5469,33.3231 662.3438,33.3231 Q660.0625,33.3231 658.5313,32.3856 Q657,31.4325 656.2344,29.6981 Q655.4688,27.9481 655.4688,25.6512 Q655.4688,23.9794 655.9375,22.5887 Q656.4063,21.1981 657.3125,20.1669 Q658.2344,19.12 659.5781,18.5731 Q660.9219,18.0106 662.6406,18.0106 Q663.7813,18.0106 664.8281,18.245 Q665.8906,18.4637 666.9844,19.0262 L666.0156,21.0887 Q665.0938,20.6825 664.3125,20.4481 Q663.5313,20.2137 662.625,20.2137 Z " fill="#000000"/><text fill="#000000" font-family="sans-serif" font-size="20" lengthAdjust="spacing" textLength="130" x="677.5" y="33.38">ListMeetingUI</text><line style="stroke:#181818;stroke-width:0.5;" x1="647.5" x2="809.5" y1="44.24" y2="44.24"/><line style="stroke:#181818;stroke-width:0.5;" x1="647.5" x2="809.5" y1="52.24" y2="52.24"/></g><!--class ListMeetingController--><g id="elem_ListMeetingController"><rect codeLine="6" fill="#F1F1F1" height="271.1598" id="ListMeetingController" rx="2.5" ry="2.5" style="stroke:#181818;stroke-width:0.5;" width="614" x="197.5" y="120"/><ellipse cx="399.5" cy="138.62" fill="#ADD1B2" rx="12" ry="12" style="stroke:#181818;stroke-width:1.0;"/><path d="M399.625,133.2137 Q398.5469,133.2137 397.6875,133.5887 Q396.8281,133.9481 396.2344,134.6512 Q395.6406,135.3387 395.3125,136.3544 Q395,137.37 395,138.6669 Q395,140.37 395.5156,141.6044 Q396.0313,142.8231 397.0469,143.4794 Q398.0625,144.12 399.6094,144.12 Q400.5156,144.12 401.3281,143.9637 Q402.1406,143.8075 403.3281,143.4481 L403.3281,145.6512 Q402.2969,146.0262 401.4219,146.1669 Q400.5469,146.3231 399.3438,146.3231 Q397.0625,146.3231 395.5313,145.3856 Q394,144.4325 393.2344,142.6981 Q392.4688,140.9481 392.4688,138.6512 Q392.4688,136.9794 392.9375,135.5887 Q393.4063,134.1981 394.3125,133.1669 Q395.2344,132.12 396.5781,131.5731 Q397.9219,131.0106 399.6406,131.0106 Q400.7813,131.0106 401.8281,131.245 Q402.8906,131.4637 403.9844,132.0262 L403.0156,134.0887 Q402.0938,133.6825 401.3125,133.4481 Q400.5313,133.2137 399.625,133.2137 Z " fill="#000000"/><text fill="#000000" font-family="sans-serif" font-size="20" lengthAdjust="spacing" textLength="201" x="421.5" y="146.38">ListMeetingController</text><line style="stroke:#181818;stroke-width:0.5;" x1="198.5" x2="810.5" y1="157.24" y2="157.24"/><rect fill="none" height="6" style="stroke:#C82930;stroke-width:1.0;" width="6" x="205.5" y="173.36"/><text fill="#000000" font-family="sans-serif" font-size="20" lengthAdjust="spacing" textLength="189" x="218.5" y="182.62">authorizationService</text><rect fill="none" height="6" style="stroke:#C82930;stroke-width:1.0;" width="6" x="205.5" y="200.5999"/><text fill="#000000" font-family="sans-serif" font-size="20" lengthAdjust="spacing" textLength="143" x="218.5" y="209.8599">meetingService</text><line style="stroke:#181818;stroke-width:0.5;" x1="198.5" x2="810.5" y1="219.7199" y2="219.7199"/><ellipse cx="208.5" cy="238.8399" fill="#84BE84" rx="3" ry="3" style="stroke:#038048;stroke-width:1.0;"/><text fill="#000000" font-family="sans-serif" font-size="20" lengthAdjust="spacing" textLength="587" x="218.5" y="245.0999">ListMeetingController(authorizationService, meetingRepository,</text><text fill="#000000" font-family="sans-serif" font-size="20" lengthAdjust="spacing" textLength="155" x="218.5" y="272.3399">inviteRepository)</text><text fill="#000000" font-family="sans-serif" font-size="20" lengthAdjust="spacing" textLength="5" x="218.5" y="299.5799"> </text><ellipse cx="208.5" cy="320.5598" fill="#84BE84" rx="3" ry="3" style="stroke:#038048;stroke-width:1.0;"/><text fill="#000000" font-family="sans-serif" font-size="20" lengthAdjust="spacing" textLength="150" x="218.5" y="326.8198">getMeetingList()</text><ellipse cx="208.5" cy="347.7998" fill="#84BE84" rx="3" ry="3" style="stroke:#038048;stroke-width:1.0;"/><text fill="#000000" font-family="sans-serif" font-size="20" lengthAdjust="spacing" textLength="182" x="218.5" y="354.0598">getMeetingDetails()</text><ellipse cx="208.5" cy="375.0398" fill="#84BE84" rx="3" ry="3" style="stroke:#038048;stroke-width:1.0;"/><text fill="#000000" font-family="sans-serif" font-size="20" lengthAdjust="spacing" textLength="216" x="218.5" y="381.2998">getAuthenticatedUser()</text></g><!--class Invite--><g id="elem_Invite"><rect codeLine="18" fill="#F1F1F1" height="162.1999" id="Invite" rx="2.5" ry="2.5" style="stroke:#181818;stroke-width:0.5;" width="104" x="374.5" y="632.5"/><ellipse cx="398.6" cy="651.12" fill="#ADD1B2" rx="12" ry="12" style="stroke:#181818;stroke-width:1.0;"/><path d="M398.725,645.7137 Q397.6469,645.7137 396.7875,646.0887 Q395.9281,646.4481 395.3344,647.1512 Q394.7406,647.8387 394.4125,648.8544 Q394.1,649.87 394.1,651.1669 Q394.1,652.87 394.6156,654.1044 Q395.1313,655.3231 396.1469,655.9794 Q397.1625,656.62 398.7094,656.62 Q399.6156,656.62 400.4281,656.4637 Q401.2406,656.3075 402.4281,655.9481 L402.4281,658.1512 Q401.3969,658.5262 400.5219,658.6669 Q399.6469,658.8231 398.4438,658.8231 Q396.1625,658.8231 394.6313,657.8856 Q393.1,656.9325 392.3344,655.1981 Q391.5688,653.4481 391.5688,651.1512 Q391.5688,649.4794 392.0375,648.0887 Q392.5063,646.6981 393.4125,645.6669 Q394.3344,644.62 395.6781,644.0731 Q397.0219,643.5106 398.7406,643.5106 Q399.8813,643.5106 400.9281,643.745 Q401.9906,643.9637 403.0844,644.5262 L402.1156,646.5887 Q401.1938,646.1825 400.4125,645.9481 Q399.6313,645.7137 398.725,645.7137 Z " fill="#000000"/><text fill="#000000" font-family="sans-serif" font-size="20" lengthAdjust="spacing" textLength="52" x="415.4" y="658.88">Invite</text><line style="stroke:#181818;stroke-width:0.5;" x1="375.5" x2="477.5" y1="669.74" y2="669.74"/><rect fill="none" height="6" style="stroke:#C82930;stroke-width:1.0;" width="6" x="382.5" y="685.86"/><text fill="#000000" font-family="sans-serif" font-size="20" lengthAdjust="spacing" textLength="17" x="395.5" y="695.12">id</text><rect fill="none" height="6" style="stroke:#C82930;stroke-width:1.0;" width="6" x="382.5" y="713.0999"/><text fill="#000000" font-family="sans-serif" font-size="20" lengthAdjust="spacing" textLength="77" x="395.5" y="722.3599">meeting</text><rect fill="none" height="6" style="stroke:#C82930;stroke-width:1.0;" width="6" x="382.5" y="740.3399"/><text fill="#000000" font-family="sans-serif" font-size="20" lengthAdjust="spacing" textLength="41" x="395.5" y="749.5999">user</text><rect fill="none" height="6" style="stroke:#C82930;stroke-width:1.0;" width="6" x="382.5" y="767.5799"/><text fill="#000000" font-family="sans-serif" font-size="20" lengthAdjust="spacing" textLength="57" x="395.5" y="776.8399">status</text><line style="stroke:#181818;stroke-width:0.5;" x1="375.5" x2="477.5" y1="786.6999" y2="786.6999"/></g><!--class InviteDTO--><g id="elem_InviteDTO"><rect codeLine="25" fill="#F1F1F1" height="189.4398" id="InviteDTO" rx="2.5" ry="2.5" style="stroke:#181818;stroke-width:0.5;" width="128" x="513.5" y="619"/><ellipse cx="529.5" cy="637.62" fill="#ADD1B2" rx="12" ry="12" style="stroke:#181818;stroke-width:1.0;"/><path d="M529.625,632.2137 Q528.5469,632.2137 527.6875,632.5887 Q526.8281,632.9481 526.2344,633.6512 Q525.6406,634.3387 525.3125,635.3544 Q525,636.37 525,637.6669 Q525,639.37 525.5156,640.6044 Q526.0313,641.8231 527.0469,642.4794 Q528.0625,643.12 529.6094,643.12 Q530.5156,643.12 531.3281,642.9637 Q532.1406,642.8075 533.3281,642.4481 L533.3281,644.6512 Q532.2969,645.0262 531.4219,645.1669 Q530.5469,645.3231 529.3438,645.3231 Q527.0625,645.3231 525.5313,644.3856 Q524,643.4325 523.2344,641.6981 Q522.4688,639.9481 522.4688,637.6512 Q522.4688,635.9794 522.9375,634.5887 Q523.4063,633.1981 524.3125,632.1669 Q525.2344,631.12 526.5781,630.5731 Q527.9219,630.0106 529.6406,630.0106 Q530.7813,630.0106 531.8281,630.245 Q532.8906,630.4637 533.9844,631.0262 L533.0156,633.0887 Q532.0938,632.6825 531.3125,632.4481 Q530.5313,632.2137 529.625,632.2137 Z " fill="#000000"/><text fill="#000000" font-family="sans-serif" font-size="20" lengthAdjust="spacing" textLength="94" x="544.5" y="645.38">InviteDTO</text><line style="stroke:#181818;stroke-width:0.5;" x1="514.5" x2="640.5" y1="656.24" y2="656.24"/><rect fill="none" height="6" style="stroke:#C82930;stroke-width:1.0;" width="6" x="521.5" y="672.36"/><text fill="#000000" font-family="sans-serif" font-size="20" lengthAdjust="spacing" textLength="17" x="534.5" y="681.62">id</text><rect fill="none" height="6" style="stroke:#C82930;stroke-width:1.0;" width="6" x="521.5" y="699.5999"/><text fill="#000000" font-family="sans-serif" font-size="20" lengthAdjust="spacing" textLength="77" x="534.5" y="708.8599">meeting</text><rect fill="none" height="6" style="stroke:#C82930;stroke-width:1.0;" width="6" x="521.5" y="726.8399"/><text fill="#000000" font-family="sans-serif" font-size="20" lengthAdjust="spacing" textLength="57" x="534.5" y="736.0999">status</text><rect fill="none" height="6" style="stroke:#C82930;stroke-width:1.0;" width="6" x="521.5" y="754.0799"/><text fill="#000000" font-family="sans-serif" font-size="20" lengthAdjust="spacing" textLength="42" x="534.5" y="763.3399">time</text><rect fill="none" height="6" style="stroke:#C82930;stroke-width:1.0;" width="6" x="521.5" y="781.3199"/><text fill="#000000" font-family="sans-serif" font-size="20" lengthAdjust="spacing" textLength="41" x="534.5" y="790.5799">user</text><line style="stroke:#181818;stroke-width:0.5;" x1="514.5" x2="640.5" y1="800.4398" y2="800.4398"/></g><!--class Meeting--><g id="elem_Meeting"><rect codeLine="33" fill="#F1F1F1" height="189.4398" id="Meeting" rx="2.5" ry="2.5" style="stroke:#181818;stroke-width:0.5;" width="145" x="7" y="619"/><ellipse cx="38.75" cy="637.62" fill="#ADD1B2" rx="12" ry="12" style="stroke:#181818;stroke-width:1.0;"/><path d="M38.875,632.2137 Q37.7969,632.2137 36.9375,632.5887 Q36.0781,632.9481 35.4844,633.6512 Q34.8906,634.3387 34.5625,635.3544 Q34.25,636.37 34.25,637.6669 Q34.25,639.37 34.7656,640.6044 Q35.2813,641.8231 36.2969,642.4794 Q37.3125,643.12 38.8594,643.12 Q39.7656,643.12 40.5781,642.9637 Q41.3906,642.8075 42.5781,642.4481 L42.5781,644.6512 Q41.5469,645.0262 40.6719,645.1669 Q39.7969,645.3231 38.5938,645.3231 Q36.3125,645.3231 34.7813,644.3856 Q33.25,643.4325 32.4844,641.6981 Q31.7188,639.9481 31.7188,637.6512 Q31.7188,635.9794 32.1875,634.5887 Q32.6563,633.1981 33.5625,632.1669 Q34.4844,631.12 35.8281,630.5731 Q37.1719,630.0106 38.8906,630.0106 Q40.0313,630.0106 41.0781,630.245 Q42.1406,630.4637 43.2344,631.0262 L42.2656,633.0887 Q41.3438,632.6825 40.5625,632.4481 Q39.7813,632.2137 38.875,632.2137 Z " fill="#000000"/><text fill="#000000" font-family="sans-serif" font-size="20" lengthAdjust="spacing" textLength="76" x="57.25" y="645.38">Meeting</text><line style="stroke:#181818;stroke-width:0.5;" x1="8" x2="151" y1="656.24" y2="656.24"/><rect fill="none" height="6" style="stroke:#C82930;stroke-width:1.0;" width="6" x="15" y="672.36"/><text fill="#000000" font-family="sans-serif" font-size="20" lengthAdjust="spacing" textLength="17" x="28" y="681.62">id</text><rect fill="none" height="6" style="stroke:#C82930;stroke-width:1.0;" width="6" x="15" y="699.5999"/><text fill="#000000" font-family="sans-serif" font-size="20" lengthAdjust="spacing" textLength="79" x="28" y="708.8599">duration</text><rect fill="none" height="6" style="stroke:#C82930;stroke-width:1.0;" width="6" x="15" y="726.8399"/><text fill="#000000" font-family="sans-serif" font-size="20" lengthAdjust="spacing" textLength="118" x="28" y="736.0999">scheduledBy</text><rect fill="none" height="6" style="stroke:#C82930;stroke-width:1.0;" width="6" x="15" y="754.0799"/><text fill="#000000" font-family="sans-serif" font-size="20" lengthAdjust="spacing" textLength="102" x="28" y="763.3399">canceledAt</text><rect fill="none" height="6" style="stroke:#C82930;stroke-width:1.0;" width="6" x="15" y="781.3199"/><text fill="#000000" font-family="sans-serif" font-size="20" lengthAdjust="spacing" textLength="42" x="28" y="790.5799">time</text><line style="stroke:#181818;stroke-width:0.5;" x1="8" x2="151" y1="800.4398" y2="800.4398"/></g><!--class MeetingDTO--><g id="elem_MeetingDTO"><rect codeLine="42" fill="#F1F1F1" height="189.4398" id="MeetingDTO" rx="2.5" ry="2.5" style="stroke:#181818;stroke-width:0.5;" width="152" x="187.5" y="619"/><ellipse cx="203.5" cy="637.62" fill="#ADD1B2" rx="12" ry="12" style="stroke:#181818;stroke-width:1.0;"/><path d="M203.625,632.2137 Q202.5469,632.2137 201.6875,632.5887 Q200.8281,632.9481 200.2344,633.6512 Q199.6406,634.3387 199.3125,635.3544 Q199,636.37 199,637.6669 Q199,639.37 199.5156,640.6044 Q200.0313,641.8231 201.0469,642.4794 Q202.0625,643.12 203.6094,643.12 Q204.5156,643.12 205.3281,642.9637 Q206.1406,642.8075 207.3281,642.4481 L207.3281,644.6512 Q206.2969,645.0262 205.4219,645.1669 Q204.5469,645.3231 203.3438,645.3231 Q201.0625,645.3231 199.5313,644.3856 Q198,643.4325 197.2344,641.6981 Q196.4688,639.9481 196.4688,637.6512 Q196.4688,635.9794 196.9375,634.5887 Q197.4063,633.1981 198.3125,632.1669 Q199.2344,631.12 200.5781,630.5731 Q201.9219,630.0106 203.6406,630.0106 Q204.7813,630.0106 205.8281,630.245 Q206.8906,630.4637 207.9844,631.0262 L207.0156,633.0887 Q206.0938,632.6825 205.3125,632.4481 Q204.5313,632.2137 203.625,632.2137 Z " fill="#000000"/><text fill="#000000" font-family="sans-serif" font-size="20" lengthAdjust="spacing" textLength="118" x="218.5" y="645.38">MeetingDTO</text><line style="stroke:#181818;stroke-width:0.5;" x1="188.5" x2="338.5" y1="656.24" y2="656.24"/><rect fill="none" height="6" style="stroke:#C82930;stroke-width:1.0;" width="6" x="195.5" y="672.36"/><text fill="#000000" font-family="sans-serif" font-size="20" lengthAdjust="spacing" textLength="17" x="208.5" y="681.62">id</text><rect fill="none" height="6" style="stroke:#C82930;stroke-width:1.0;" width="6" x="195.5" y="699.5999"/><text fill="#000000" font-family="sans-serif" font-size="20" lengthAdjust="spacing" textLength="79" x="208.5" y="708.8599">duration</text><rect fill="none" height="6" style="stroke:#C82930;stroke-width:1.0;" width="6" x="195.5" y="726.8399"/><text fill="#000000" font-family="sans-serif" font-size="20" lengthAdjust="spacing" textLength="118" x="208.5" y="736.0999">scheduledBy</text><rect fill="none" height="6" style="stroke:#C82930;stroke-width:1.0;" width="6" x="195.5" y="754.0799"/><text fill="#000000" font-family="sans-serif" font-size="20" lengthAdjust="spacing" textLength="102" x="208.5" y="763.3399">canceledAt</text><rect fill="none" height="6" style="stroke:#C82930;stroke-width:1.0;" width="6" x="195.5" y="781.3199"/><text fill="#000000" font-family="sans-serif" font-size="20" lengthAdjust="spacing" textLength="42" x="208.5" y="790.5799">time</text><line style="stroke:#181818;stroke-width:0.5;" x1="188.5" x2="338.5" y1="800.4398" y2="800.4398"/></g><!--class MeetingService--><g id="elem_MeetingService"><rect codeLine="50" fill="#F1F1F1" height="107.7199" id="MeetingService" rx="2.5" ry="2.5" style="stroke:#181818;stroke-width:0.5;" width="352" x="328.5" y="451"/><ellipse cx="429" cy="469.62" fill="#ADD1B2" rx="12" ry="12" style="stroke:#181818;stroke-width:1.0;"/><path d="M429.125,464.2137 Q428.0469,464.2137 427.1875,464.5887 Q426.3281,464.9481 425.7344,465.6512 Q425.1406,466.3387 424.8125,467.3544 Q424.5,468.37 424.5,469.6669 Q424.5,471.37 425.0156,472.6044 Q425.5313,473.8231 426.5469,474.4794 Q427.5625,475.12 429.1094,475.12 Q430.0156,475.12 430.8281,474.9637 Q431.6406,474.8075 432.8281,474.4481 L432.8281,476.6512 Q431.7969,477.0262 430.9219,477.1669 Q430.0469,477.3231 428.8438,477.3231 Q426.5625,477.3231 425.0313,476.3856 Q423.5,475.4325 422.7344,473.6981 Q421.9688,471.9481 421.9688,469.6512 Q421.9688,467.9794 422.4375,466.5887 Q422.9063,465.1981 423.8125,464.1669 Q424.7344,463.12 426.0781,462.5731 Q427.4219,462.0106 429.1406,462.0106 Q430.2813,462.0106 431.3281,462.245 Q432.3906,462.4637 433.4844,463.0262 L432.5156,465.0887 Q431.5938,464.6825 430.8125,464.4481 Q430.0313,464.2137 429.125,464.2137 Z " fill="#000000"/><text fill="#000000" font-family="sans-serif" font-size="20" lengthAdjust="spacing" textLength="142" x="451" y="477.38">MeetingService</text><line style="stroke:#181818;stroke-width:0.5;" x1="329.5" x2="679.5" y1="488.24" y2="488.24"/><line style="stroke:#181818;stroke-width:0.5;" x1="329.5" x2="679.5" y1="496.24" y2="496.24"/><ellipse cx="339.5" cy="515.36" fill="#84BE84" rx="3" ry="3" style="stroke:#038048;stroke-width:1.0;"/><text fill="#000000" font-family="sans-serif" font-size="20" lengthAdjust="spacing" textLength="274" x="349.5" y="521.62">getInvitesPending(username)</text><ellipse cx="339.5" cy="542.5999" fill="#84BE84" rx="3" ry="3" style="stroke:#038048;stroke-width:1.0;"/><text fill="#000000" font-family="sans-serif" font-size="20" lengthAdjust="spacing" textLength="325" x="349.5" y="548.8599">getAllInvitesByMeeting(meetingID)</text></g><!--class MeetingRepository--><g id="elem_MeetingRepository"><rect codeLine="55" fill="#F1F1F1" height="80.4799" id="MeetingRepository" rx="2.5" ry="2.5" style="stroke:#181818;stroke-width:0.5;" width="407" x="677" y="673.5"/><ellipse cx="793" cy="692.12" fill="#B4A7E5" rx="12" ry="12" style="stroke:#181818;stroke-width:1.0;"/><path d="M795.5781,699.62 L789.7969,699.62 L789.7969,698.0106 L791.4844,697.6356 L791.4844,686.7137 L789.7969,686.3231 L789.7969,684.7137 L795.5781,684.7137 L795.5781,686.3231 L793.9063,686.7137 L793.9063,697.6356 L795.5781,698.0106 L795.5781,699.62 Z " fill="#000000"/><text fill="#000000" font-family="sans-serif" font-size="20" font-style="italic" lengthAdjust="spacing" textLength="166" x="815" y="699.88">MeetingRepository</text><line style="stroke:#181818;stroke-width:0.5;" x1="678" x2="1083" y1="710.74" y2="710.74"/><line style="stroke:#181818;stroke-width:0.5;" x1="678" x2="1083" y1="718.74" y2="718.74"/><ellipse cx="688" cy="737.86" fill="#84BE84" rx="3" ry="3" style="stroke:#038048;stroke-width:1.0;"/><text fill="#000000" font-family="sans-serif" font-size="20" lengthAdjust="spacing" textLength="380" x="698" y="744.12">findNotCanceledMeetingsByOwner(user)</text></g><!--class InMemoryMeetingRepository--><g id="elem_InMemoryMeetingRepository"><rect codeLine="59" fill="#F1F1F1" height="80.4799" id="InMemoryMeetingRepository" rx="2.5" ry="2.5" style="stroke:#181818;stroke-width:0.5;" width="407" x="677" y="882"/><ellipse cx="740" cy="900.62" fill="#ADD1B2" rx="12" ry="12" style="stroke:#181818;stroke-width:1.0;"/><path d="M740.125,895.2137 Q739.0469,895.2137 738.1875,895.5887 Q737.3281,895.9481 736.7344,896.6512 Q736.1406,897.3387 735.8125,898.3544 Q735.5,899.37 735.5,900.6669 Q735.5,902.37 736.0156,903.6044 Q736.5313,904.8231 737.5469,905.4794 Q738.5625,906.12 740.1094,906.12 Q741.0156,906.12 741.8281,905.9637 Q742.6406,905.8075 743.8281,905.4481 L743.8281,907.6512 Q742.7969,908.0262 741.9219,908.1669 Q741.0469,908.3231 739.8438,908.3231 Q737.5625,908.3231 736.0313,907.3856 Q734.5,906.4325 733.7344,904.6981 Q732.9688,902.9481 732.9688,900.6512 Q732.9688,898.9794 733.4375,897.5887 Q733.9063,896.1981 734.8125,895.1669 Q735.7344,894.12 737.0781,893.5731 Q738.4219,893.0106 740.1406,893.0106 Q741.2813,893.0106 742.3281,893.245 Q743.3906,893.4637 744.4844,894.0262 L743.5156,896.0887 Q742.5938,895.6825 741.8125,895.4481 Q741.0313,895.2137 740.125,895.2137 Z " fill="#000000"/><text fill="#000000" font-family="sans-serif" font-size="20" lengthAdjust="spacing" textLength="272" x="762" y="908.38">InMemoryMeetingRepository</text><line style="stroke:#181818;stroke-width:0.5;" x1="678" x2="1083" y1="919.24" y2="919.24"/><line style="stroke:#181818;stroke-width:0.5;" x1="678" x2="1083" y1="927.24" y2="927.24"/><ellipse cx="688" cy="946.36" fill="#84BE84" rx="3" ry="3" style="stroke:#038048;stroke-width:1.0;"/><text fill="#000000" font-family="sans-serif" font-size="20" lengthAdjust="spacing" textLength="380" x="698" y="952.62">findNotCanceledMeetingsByOwner(user)</text></g><!--class JpaMeetingRepository--><g id="elem_JpaMeetingRepository"><rect codeLine="63" fill="#F1F1F1" height="80.4799" id="JpaMeetingRepository" rx="2.5" ry="2.5" style="stroke:#181818;stroke-width:0.5;" width="407" x="235" y="882"/><ellipse cx="332.5" cy="900.62" fill="#ADD1B2" rx="12" ry="12" style="stroke:#181818;stroke-width:1.0;"/><path d="M332.625,895.2137 Q331.5469,895.2137 330.6875,895.5887 Q329.8281,895.9481 329.2344,896.6512 Q328.6406,897.3387 328.3125,898.3544 Q328,899.37 328,900.6669 Q328,902.37 328.5156,903.6044 Q329.0313,904.8231 330.0469,905.4794 Q331.0625,906.12 332.6094,906.12 Q333.5156,906.12 334.3281,905.9637 Q335.1406,905.8075 336.3281,905.4481 L336.3281,907.6512 Q335.2969,908.0262 334.4219,908.1669 Q333.5469,908.3231 332.3438,908.3231 Q330.0625,908.3231 328.5313,907.3856 Q327,906.4325 326.2344,904.6981 Q325.4688,902.9481 325.4688,900.6512 Q325.4688,898.9794 325.9375,897.5887 Q326.4063,896.1981 327.3125,895.1669 Q328.2344,894.12 329.5781,893.5731 Q330.9219,893.0106 332.6406,893.0106 Q333.7813,893.0106 334.8281,893.245 Q335.8906,893.4637 336.9844,894.0262 L336.0156,896.0887 Q335.0938,895.6825 334.3125,895.4481 Q333.5313,895.2137 332.625,895.2137 Z " fill="#000000"/><text fill="#000000" font-family="sans-serif" font-size="20" lengthAdjust="spacing" textLength="203" x="354.5" y="908.38">JpaMeetingRepository</text><line style="stroke:#181818;stroke-width:0.5;" x1="236" x2="641" y1="919.24" y2="919.24"/><line style="stroke:#181818;stroke-width:0.5;" x1="236" x2="641" y1="927.24" y2="927.24"/><ellipse cx="246" cy="946.36" fill="#84BE84" rx="3" ry="3" style="stroke:#038048;stroke-width:1.0;"/><text fill="#000000" font-family="sans-serif" font-size="20" lengthAdjust="spacing" textLength="380" x="256" y="952.62">findNotCanceledMeetingsByOwner(user)</text></g><!--class InviteRepository--><g id="elem_InviteRepository"><rect codeLine="67" fill="#F1F1F1" height="80.4799" id="InviteRepository" rx="2.5" ry="2.5" style="stroke:#181818;stroke-width:0.5;" width="295" x="1119" y="673.5"/><ellipse cx="1191" cy="692.12" fill="#B4A7E5" rx="12" ry="12" style="stroke:#181818;stroke-width:1.0;"/><path d="M1193.5781,699.62 L1187.7969,699.62 L1187.7969,698.0106 L1189.4844,697.6356 L1189.4844,686.7137 L1187.7969,686.3231 L1187.7969,684.7137 L1193.5781,684.7137 L1193.5781,686.3231 L1191.9063,686.7137 L1191.9063,697.6356 L1193.5781,698.0106 L1193.5781,699.62 Z " fill="#000000"/><text fill="#000000" font-family="sans-serif" font-size="20" font-style="italic" lengthAdjust="spacing" textLength="142" x="1213" y="699.88">InviteRepository</text><line style="stroke:#181818;stroke-width:0.5;" x1="1120" x2="1413" y1="710.74" y2="710.74"/><line style="stroke:#181818;stroke-width:0.5;" x1="1120" x2="1413" y1="718.74" y2="718.74"/><ellipse cx="1130" cy="737.86" fill="#84BE84" rx="3" ry="3" style="stroke:#038048;stroke-width:1.0;"/><text fill="#000000" font-family="sans-serif" font-size="20" lengthAdjust="spacing" textLength="268" x="1140" y="744.12">findByMeetingID(meetingID)</text></g><!--class InMemoryInviteRepository--><g id="elem_InMemoryInviteRepository"><rect codeLine="71" fill="#F1F1F1" height="107.7199" id="InMemoryInviteRepository" rx="2.5" ry="2.5" style="stroke:#181818;stroke-width:0.5;" width="395" x="1449" y="868"/><ellipse cx="1518" cy="886.62" fill="#ADD1B2" rx="12" ry="12" style="stroke:#181818;stroke-width:1.0;"/><path d="M1518.125,881.2137 Q1517.0469,881.2137 1516.1875,881.5887 Q1515.3281,881.9481 1514.7344,882.6512 Q1514.1406,883.3387 1513.8125,884.3544 Q1513.5,885.37 1513.5,886.6669 Q1513.5,888.37 1514.0156,889.6044 Q1514.5313,890.8231 1515.5469,891.4794 Q1516.5625,892.12 1518.1094,892.12 Q1519.0156,892.12 1519.8281,891.9637 Q1520.6406,891.8075 1521.8281,891.4481 L1521.8281,893.6512 Q1520.7969,894.0262 1519.9219,894.1669 Q1519.0469,894.3231 1517.8438,894.3231 Q1515.5625,894.3231 1514.0313,893.3856 Q1512.5,892.4325 1511.7344,890.6981 Q1510.9688,888.9481 1510.9688,886.6512 Q1510.9688,884.9794 1511.4375,883.5887 Q1511.9063,882.1981 1512.8125,881.1669 Q1513.7344,880.12 1515.0781,879.5731 Q1516.4219,879.0106 1518.1406,879.0106 Q1519.2813,879.0106 1520.3281,879.245 Q1521.3906,879.4637 1522.4844,880.0262 L1521.5156,882.0887 Q1520.5938,881.6825 1519.8125,881.4481 Q1519.0313,881.2137 1518.125,881.2137 Z " fill="#000000"/><text fill="#000000" font-family="sans-serif" font-size="20" lengthAdjust="spacing" textLength="248" x="1540" y="894.38">InMemoryInviteRepository</text><line style="stroke:#181818;stroke-width:0.5;" x1="1450" x2="1843" y1="905.24" y2="905.24"/><line style="stroke:#181818;stroke-width:0.5;" x1="1450" x2="1843" y1="913.24" y2="913.24"/><ellipse cx="1460" cy="932.36" fill="#84BE84" rx="3" ry="3" style="stroke:#038048;stroke-width:1.0;"/><text fill="#000000" font-family="sans-serif" font-size="20" lengthAdjust="spacing" textLength="368" x="1470" y="938.62">findAllPendingForUsername(username)</text><ellipse cx="1460" cy="959.5999" fill="#84BE84" rx="3" ry="3" style="stroke:#038048;stroke-width:1.0;"/><text fill="#000000" font-family="sans-serif" font-size="20" lengthAdjust="spacing" textLength="268" x="1470" y="965.8599">findByMeetingID(meetingID)</text></g><!--class JpaInviteRepository--><g id="elem_JpaInviteRepository"><rect codeLine="76" fill="#F1F1F1" height="80.4799" id="JpaInviteRepository" rx="2.5" ry="2.5" style="stroke:#181818;stroke-width:0.5;" width="295" x="1119" y="882"/><ellipse cx="1172.5" cy="900.62" fill="#ADD1B2" rx="12" ry="12" style="stroke:#181818;stroke-width:1.0;"/><path d="M1172.625,895.2137 Q1171.5469,895.2137 1170.6875,895.5887 Q1169.8281,895.9481 1169.2344,896.6512 Q1168.6406,897.3387 1168.3125,898.3544 Q1168,899.37 1168,900.6669 Q1168,902.37 1168.5156,903.6044 Q1169.0313,904.8231 1170.0469,905.4794 Q1171.0625,906.12 1172.6094,906.12 Q1173.5156,906.12 1174.3281,905.9637 Q1175.1406,905.8075 1176.3281,905.4481 L1176.3281,907.6512 Q1175.2969,908.0262 1174.4219,908.1669 Q1173.5469,908.3231 1172.3438,908.3231 Q1170.0625,908.3231 1168.5313,907.3856 Q1167,906.4325 1166.2344,904.6981 Q1165.4688,902.9481 1165.4688,900.6512 Q1165.4688,898.9794 1165.9375,897.5887 Q1166.4063,896.1981 1167.3125,895.1669 Q1168.2344,894.12 1169.5781,893.5731 Q1170.9219,893.0106 1172.6406,893.0106 Q1173.7813,893.0106 1174.8281,893.245 Q1175.8906,893.4637 1176.9844,894.0262 L1176.0156,896.0887 Q1175.0938,895.6825 1174.3125,895.4481 Q1173.5313,895.2137 1172.625,895.2137 Z " fill="#000000"/><text fill="#000000" font-family="sans-serif" font-size="20" lengthAdjust="spacing" textLength="179" x="1194.5" y="908.38">JpaInviteRepository</text><line style="stroke:#181818;stroke-width:0.5;" x1="1120" x2="1413" y1="919.24" y2="919.24"/><line style="stroke:#181818;stroke-width:0.5;" x1="1120" x2="1413" y1="927.24" y2="927.24"/><ellipse cx="1130" cy="946.36" fill="#84BE84" rx="3" ry="3" style="stroke:#038048;stroke-width:1.0;"/><text fill="#000000" font-family="sans-serif" font-size="20" lengthAdjust="spacing" textLength="268" x="1140" y="952.62">findByMeetingID(meetingID)</text></g><!--class RepositoryFactory--><g id="elem_RepositoryFactory"><rect codeLine="80" fill="#F1F1F1" height="80.4799" id="RepositoryFactory" rx="2.5" ry="2.5" style="stroke:#181818;stroke-width:0.5;" width="206" x="850.5" y="465"/><ellipse cx="868.75" cy="483.62" fill="#ADD1B2" rx="12" ry="12" style="stroke:#181818;stroke-width:1.0;"/><path d="M868.875,478.2137 Q867.7969,478.2137 866.9375,478.5887 Q866.0781,478.9481 865.4844,479.6512 Q864.8906,480.3387 864.5625,481.3544 Q864.25,482.37 864.25,483.6669 Q864.25,485.37 864.7656,486.6044 Q865.2813,487.8231 866.2969,488.4794 Q867.3125,489.12 868.8594,489.12 Q869.7656,489.12 870.5781,488.9637 Q871.3906,488.8075 872.5781,488.4481 L872.5781,490.6512 Q871.5469,491.0262 870.6719,491.1669 Q869.7969,491.3231 868.5938,491.3231 Q866.3125,491.3231 864.7813,490.3856 Q863.25,489.4325 862.4844,487.6981 Q861.7188,485.9481 861.7188,483.6512 Q861.7188,481.9794 862.1875,480.5887 Q862.6563,479.1981 863.5625,478.1669 Q864.4844,477.12 865.8281,476.5731 Q867.1719,476.0106 868.8906,476.0106 Q870.0313,476.0106 871.0781,476.245 Q872.1406,476.4637 873.2344,477.0262 L872.2656,479.0887 Q871.3438,478.6825 870.5625,478.4481 Q869.7813,478.2137 868.875,478.2137 Z " fill="#000000"/><text fill="#000000" font-family="sans-serif" font-size="20" lengthAdjust="spacing" textLength="167" x="884.25" y="491.38">RepositoryFactory</text><line style="stroke:#181818;stroke-width:0.5;" x1="851.5" x2="1055.5" y1="502.24" y2="502.24"/><line style="stroke:#181818;stroke-width:0.5;" x1="851.5" x2="1055.5" y1="510.24" y2="510.24"/><ellipse cx="861.5" cy="529.36" fill="#84BE84" rx="3" ry="3" style="stroke:#038048;stroke-width:1.0;"/><text fill="#000000" font-family="sans-serif" font-size="20" lengthAdjust="spacing" textLength="179" x="871.5" y="535.62">RepositoryFactory()</text></g><!--class PersistenceContext--><g id="elem_PersistenceContext"><rect codeLine="85" fill="#F1F1F1" height="80.4799" id="PersistenceContext" rx="2.5" ry="2.5" style="stroke:#181818;stroke-width:0.5;" width="214" x="846.5" y="215.5"/><ellipse cx="862.5" cy="234.12" fill="#ADD1B2" rx="12" ry="12" style="stroke:#181818;stroke-width:1.0;"/><path d="M862.625,228.7137 Q861.5469,228.7137 860.6875,229.0887 Q859.8281,229.4481 859.2344,230.1512 Q858.6406,230.8387 858.3125,231.8544 Q858,232.87 858,234.1669 Q858,235.87 858.5156,237.1044 Q859.0313,238.3231 860.0469,238.9794 Q861.0625,239.62 862.6094,239.62 Q863.5156,239.62 864.3281,239.4637 Q865.1406,239.3075 866.3281,238.9481 L866.3281,241.1512 Q865.2969,241.5262 864.4219,241.6669 Q863.5469,241.8231 862.3438,241.8231 Q860.0625,241.8231 858.5313,240.8856 Q857,239.9325 856.2344,238.1981 Q855.4688,236.4481 855.4688,234.1512 Q855.4688,232.4794 855.9375,231.0887 Q856.4063,229.6981 857.3125,228.6669 Q858.2344,227.62 859.5781,227.0731 Q860.9219,226.5106 862.6406,226.5106 Q863.7813,226.5106 864.8281,226.745 Q865.8906,226.9637 866.9844,227.5262 L866.0156,229.5887 Q865.0938,229.1825 864.3125,228.9481 Q863.5313,228.7137 862.625,228.7137 Z " fill="#000000"/><text fill="#000000" font-family="sans-serif" font-size="20" lengthAdjust="spacing" textLength="180" x="877.5" y="241.88">PersistenceContext</text><line style="stroke:#181818;stroke-width:0.5;" x1="847.5" x2="1059.5" y1="252.74" y2="252.74"/><line style="stroke:#181818;stroke-width:0.5;" x1="847.5" x2="1059.5" y1="260.74" y2="260.74"/><rect fill="#F24D5C" height="6" style="stroke:#C82930;stroke-width:1.0;" width="6" x="854.5" y="276.86"/><text fill="#000000" font-family="sans-serif" font-size="20" lengthAdjust="spacing" textLength="123" x="867.5" y="286.12">repositories()</text></g><!--class InviteStatus--><g id="elem_InviteStatus"><rect codeLine="89" fill="#F1F1F1" height="80.4799" id="InviteStatus" rx="2.5" ry="2.5" style="stroke:#181818;stroke-width:0.5;" width="144" x="55.5" y="882"/><ellipse cx="71.5" cy="900.62" fill="#ADD1B2" rx="12" ry="12" style="stroke:#181818;stroke-width:1.0;"/><path d="M71.625,895.2137 Q70.5469,895.2137 69.6875,895.5887 Q68.8281,895.9481 68.2344,896.6512 Q67.6406,897.3387 67.3125,898.3544 Q67,899.37 67,900.6669 Q67,902.37 67.5156,903.6044 Q68.0313,904.8231 69.0469,905.4794 Q70.0625,906.12 71.6094,906.12 Q72.5156,906.12 73.3281,905.9637 Q74.1406,905.8075 75.3281,905.4481 L75.3281,907.6512 Q74.2969,908.0262 73.4219,908.1669 Q72.5469,908.3231 71.3438,908.3231 Q69.0625,908.3231 67.5313,907.3856 Q66,906.4325 65.2344,904.6981 Q64.4688,902.9481 64.4688,900.6512 Q64.4688,898.9794 64.9375,897.5887 Q65.4063,896.1981 66.3125,895.1669 Q67.2344,894.12 68.5781,893.5731 Q69.9219,893.0106 71.6406,893.0106 Q72.7813,893.0106 73.8281,893.245 Q74.8906,893.4637 75.9844,894.0262 L75.0156,896.0887 Q74.0938,895.6825 73.3125,895.4481 Q72.5313,895.2137 71.625,895.2137 Z " fill="#000000"/><text fill="#000000" font-family="sans-serif" font-size="20" lengthAdjust="spacing" textLength="110" x="86.5" y="908.38">InviteStatus</text><line style="stroke:#181818;stroke-width:0.5;" x1="56.5" x2="198.5" y1="919.24" y2="919.24"/><rect fill="none" height="6" style="stroke:#C82930;stroke-width:1.0;" width="6" x="63.5" y="935.36"/><text fill="#000000" font-family="sans-serif" font-size="20" lengthAdjust="spacing" textLength="57" x="76.5" y="944.62">status</text><line style="stroke:#181818;stroke-width:0.5;" x1="56.5" x2="198.5" y1="954.4799" y2="954.4799"/></g><!--class Status--><g id="elem_Status"><rect codeLine="94" fill="#F1F1F1" height="189.4398" id="Status" rx="2.5" ry="2.5" style="stroke:#181818;stroke-width:0.5;" width="133" x="61" y="1036"/><ellipse cx="95.45" cy="1054.62" fill="#EB937F" rx="12" ry="12" style="stroke:#181818;stroke-width:1.0;"/><path d="M99.4969,1062.12 L90.8875,1062.12 L90.8875,1047.2137 L99.4969,1047.2137 L99.4969,1049.4169 L93.3094,1049.4169 L93.3094,1053.2606 L99.1375,1053.2606 L99.1375,1055.4325 L93.3094,1055.4325 L93.3094,1059.9169 L99.4969,1059.9169 L99.4969,1062.12 Z " fill="#000000"/><text fill="#000000" font-family="sans-serif" font-size="20" lengthAdjust="spacing" textLength="58" x="114.55" y="1062.38">Status</text><line style="stroke:#181818;stroke-width:0.5;" x1="62" x2="193" y1="1073.24" y2="1073.24"/><text fill="#000000" font-family="sans-serif" font-size="20" lengthAdjust="spacing" textLength="90" x="67" y="1098.62">PENDING</text><text fill="#000000" font-family="sans-serif" font-size="20" lengthAdjust="spacing" textLength="99" x="67" y="1125.8599">ACCEPTED</text><text fill="#000000" font-family="sans-serif" font-size="20" lengthAdjust="spacing" textLength="89" x="67" y="1153.0999">REJECTED</text><text fill="#000000" font-family="sans-serif" font-size="20" lengthAdjust="spacing" textLength="101" x="67" y="1180.3399">CANCELED</text><text fill="#000000" font-family="sans-serif" font-size="20" lengthAdjust="spacing" textLength="121" x="67" y="1207.5799">NO_AWNSER</text><line style="stroke:#181818;stroke-width:0.5;" x1="62" x2="193" y1="1217.4398" y2="1217.4398"/></g><!--link MeetingService to Invite--><g id="link_MeetingService_Invite"><path codeLine="104" d="M484.31,559.45 C476.65,579.74 467.71,603.41 459.18,625.99 " fill="none" id="MeetingService-to-Invite" style="stroke:#181818;stroke-width:1.0;stroke-dasharray:7.0,7.0;"/><polygon fill="#181818" points="457.44,630.59,464.3525,623.5745,459.2003,625.9101,456.8647,620.758,457.44,630.59" style="stroke:#181818;stroke-width:1.0;"/></g><!--link MeetingService to InviteDTO--><g id="link_MeetingService_InviteDTO"><path codeLine="105" d="M523.39,559.45 C529.21,575.91 535.82,594.59 542.36,613.11 " fill="none" id="MeetingService-to-InviteDTO" style="stroke:#181818;stroke-width:1.0;stroke-dasharray:7.0,7.0;"/><polygon fill="#181818" points="543.89,617.42,544.6526,607.6007,542.2192,612.7074,537.1125,610.274,543.89,617.42" style="stroke:#181818;stroke-width:1.0;"/></g><!--link MeetingService to InviteRepository--><g id="link_MeetingService_InviteRepository"><path codeLine="106" d="M680.87,536.36 C842.41,564.66 1062.22,604.6 1101.5,619 C1136.57,631.85 1172.96,651.67 1202.61,669.77 " fill="none" id="MeetingService-to-InviteRepository" style="stroke:#181818;stroke-width:1.0;stroke-dasharray:7.0,7.0;"/><polygon fill="#181818" points="1206.78,672.33,1201.2039,664.2117,1202.5193,669.7135,1197.0175,671.0289,1206.78,672.33" style="stroke:#181818;stroke-width:1.0;"/></g><!--link MeetingService to Meeting--><g id="link_MeetingService_Meeting"><path codeLine="107" d="M328.22,548.07 C274.8,565.3 217.58,588.52 169.5,619 C165.42,621.59 161.39,624.4 157.43,627.37 " fill="none" id="MeetingService-to-Meeting" style="stroke:#181818;stroke-width:1.0;stroke-dasharray:7.0,7.0;"/><polygon fill="#181818" points="153.66,630.3,163.2276,627.9631,157.6167,627.2432,158.3367,621.6323,153.66,630.3" style="stroke:#181818;stroke-width:1.0;"/></g><!--link MeetingService to MeetingDTO--><g id="link_MeetingService_MeetingDTO"><path codeLine="108" d="M430.67,559.26 C406.48,577.53 379.83,598.53 356.5,619 C352.54,622.47 348.54,626.08 344.55,629.76 " fill="none" id="MeetingService-to-MeetingDTO" style="stroke:#181818;stroke-width:1.0;stroke-dasharray:7.0,7.0;"/><polygon fill="#181818" points="340.96,633.08,350.2812,629.8996,344.6285,629.6827,344.8455,624.03,340.96,633.08" style="stroke:#181818;stroke-width:1.0;"/></g><!--link MeetingService to MeetingRepository--><g id="link_MeetingService_MeetingRepository"><path codeLine="109" d="M601.82,559.45 C664.53,593.89 744.94,638.05 803.26,670.08 " fill="none" id="MeetingService-to-MeetingRepository" style="stroke:#181818;stroke-width:1.0;stroke-dasharray:7.0,7.0;"/><polygon fill="#181818" points="807.5,672.41,801.5251,664.5806,803.1138,670.0097,797.6846,671.5985,807.5,672.41" style="stroke:#181818;stroke-width:1.0;"/></g><!--reverse link InviteRepository to InMemoryInviteRepository--><g id="link_InviteRepository_InMemoryInviteRepository"><path codeLine="111" d="M1357.68,764.05 C1415.17,795.29 1489.39,835.63 1548.2,867.58 " fill="none" id="InviteRepository-backto-InMemoryInviteRepository" style="stroke:#181818;stroke-width:1.0;stroke-dasharray:7.0,7.0;"/><polygon fill="none" points="1354.43,770.25,1340.2,754.55,1361.11,757.95,1354.43,770.25" style="stroke:#181818;stroke-width:1.0;"/></g><!--reverse link InviteRepository to JpaInviteRepository--><g id="link_InviteRepository_JpaInviteRepository"><path codeLine="112" d="M1266.5,775.15 C1266.5,809.6 1266.5,851.72 1266.5,881.82 " fill="none" id="InviteRepository-backto-JpaInviteRepository" style="stroke:#181818;stroke-width:1.0;stroke-dasharray:7.0,7.0;"/><polygon fill="none" points="1259.5,775.34,1266.5,755.34,1273.5,775.34,1259.5,775.34" style="stroke:#181818;stroke-width:1.0;"/></g><!--reverse link MeetingRepository to InMemoryMeetingRepository--><g id="link_MeetingRepository_InMemoryMeetingRepository"><path codeLine="114" d="M880.5,775.15 C880.5,809.6 880.5,851.72 880.5,881.82 " fill="none" id="MeetingRepository-backto-InMemoryMeetingRepository" style="stroke:#181818;stroke-width:1.0;stroke-dasharray:7.0,7.0;"/><polygon fill="none" points="873.5,775.34,880.5,755.34,887.5,775.34,873.5,775.34" style="stroke:#181818;stroke-width:1.0;"/></g><!--reverse link MeetingRepository to JpaMeetingRepository--><g id="link_MeetingRepository_JpaMeetingRepository"><path codeLine="115" d="M777.03,762.84 C699.71,798.96 595.34,847.73 523.01,881.52 " fill="none" id="MeetingRepository-backto-JpaMeetingRepository" style="stroke:#181818;stroke-width:1.0;stroke-dasharray:7.0,7.0;"/><polygon fill="none" points="773.61,756.71,794.69,754.59,779.53,769.4,773.61,756.71" style="stroke:#181818;stroke-width:1.0;"/></g><!--link ListMeetingController to MeetingService--><g id="link_ListMeetingController_MeetingService"><path codeLine="117" d="M504.5,391.48 C504.5,409.95 504.5,428.09 504.5,444.22 " fill="none" id="ListMeetingController-to-MeetingService" style="stroke:#181818;stroke-width:1.0;"/><polygon fill="#181818" points="504.5,449.03,508.5,440.03,504.5,444.03,500.5,440.03,504.5,449.03" style="stroke:#181818;stroke-width:1.0;"/></g><!--link Invite to InviteStatus--><g id="link_Invite_InviteStatus"><path codeLine="119" d="M374.26,791.59 C368.65,797.53 362.71,803.1 356.5,808 C303.67,849.67 277.5,837.54 217.5,868 C211.06,871.27 204.44,874.81 197.86,878.45 " fill="none" id="Invite-to-InviteStatus" style="stroke:#181818;stroke-width:1.0;"/><polygon fill="#181818" points="193.67,880.79,203.4778,879.8914,198.0347,878.3509,199.5752,872.9078,193.67,880.79" style="stroke:#181818;stroke-width:1.0;"/></g><!--link InviteStatus to Status--><g id="link_InviteStatus_Status"><path codeLine="120" d="M127.5,962.33 C127.5,981.56 127.5,1005.66 127.5,1029.53 " fill="none" id="InviteStatus-to-Status" style="stroke:#181818;stroke-width:1.0;"/><polygon fill="#181818" points="127.5,1034.41,131.5,1025.41,127.5,1029.41,123.5,1025.41,127.5,1034.41" style="stroke:#181818;stroke-width:1.0;"/></g><!--link ListMeetingUI to PersistenceContext--><g id="link_ListMeetingUI_PersistenceContext"><path codeLine="122" d="M760.39,60.18 C780.44,76.71 806.58,98.97 828.5,120 C858.73,149 890.85,183.66 914.97,210.54 " fill="none" id="ListMeetingUI-to-PersistenceContext" style="stroke:#181818;stroke-width:1.0;stroke-dasharray:7.0,7.0;"/><polygon fill="#181818" points="918.06,213.99,915.0503,204.6123,914.7302,210.2601,909.0824,209.9399,918.06,213.99" style="stroke:#181818;stroke-width:1.0;"/></g><!--link PersistenceContext to RepositoryFactory--><g id="link_PersistenceContext_RepositoryFactory"><path codeLine="123" d="M953.5,295.99 C953.5,340.18 953.5,411.66 953.5,458.25 " fill="none" id="PersistenceContext-to-RepositoryFactory" style="stroke:#181818;stroke-width:1.0;stroke-dasharray:7.0,7.0;"/><polygon fill="#181818" points="953.5,463.14,957.5,454.14,953.5,458.14,949.5,454.14,953.5,463.14" style="stroke:#181818;stroke-width:1.0;"/></g><!--link RepositoryFactory to InviteRepository--><g id="link_RepositoryFactory_InviteRepository"><path codeLine="124" d="M1013.11,545.33 C1066.98,580.87 1146.1,633.06 1201.55,669.65 " fill="none" id="RepositoryFactory-to-InviteRepository" style="stroke:#181818;stroke-width:1.0;"/><polygon fill="#181818" points="1205.58,672.31,1200.2576,664.0231,1201.4022,669.563,1195.8624,670.7076,1205.58,672.31" style="stroke:#181818;stroke-width:1.0;"/></g><!--link RepositoryFactory to MeetingRepository--><g id="link_RepositoryFactory_MeetingRepository"><path codeLine="125" d="M939.6,545.33 C927.27,580.21 909.27,631.13 896.37,667.6 " fill="none" id="RepositoryFactory-to-MeetingRepository" style="stroke:#181818;stroke-width:1.0;"/><polygon fill="#181818" points="894.86,671.89,901.6375,664.744,896.5308,667.1774,894.0974,662.0707,894.86,671.89" style="stroke:#181818;stroke-width:1.0;"/></g><!--link ListMeetingUI to ListMeetingController--><g id="link_ListMeetingUI_ListMeetingController"><path codeLine="127" d="M702.37,60.17 C687.55,74.72 667.73,94.19 646.34,115.2 " fill="none" id="ListMeetingUI-to-ListMeetingController" style="stroke:#181818;stroke-width:1.0;stroke-dasharray:7.0,7.0;"/><polygon fill="#181818" points="642.83,118.64,652.0576,115.1975,646.4011,115.1404,646.4582,109.4838,642.83,118.64" style="stroke:#181818;stroke-width:1.0;"/></g><!--SRC=[hLLHRvim47xth-0nKKiqxNcgH85CL0s9aaPxh2ouj5R1HBRfbcxxxpix1WgOQblx5BYxx_Dzd- -2V6ByI0KjYofxWjpBuK3hGYqhhdRi1RpFdmZ92YgbTykaMW4enX_sYVUJaD-EJ8WuKHK52ApmFLghnqgm5wfOnNSWdba662xFnKs0NBWfPYxuPOFUmh6IJ5NYT4aOVsOAkiXSSpv0GwdPP_DUA095MI6RQ80d0LSiemholSIpvvs-nB0RGIplsiUd6YlnHoggQZa4H7Th5yOM-vvY9JGSBTIsrm7pMXZv6fazGbuNa5-Vy2sZF0Dy2LJ3DMBfTV0FH4CUQpro6RFEykG6U8x9cHR0QGcDbKLX2wvF5Z-pwfF8kCgu0d6WIBWQNgKvui1udbOgj7tP8gHRV-TuC_gytksie4JeHt3T7EdxQ3ffoM0aMvhMbIGQ-DBNCqc01blhbvNOM_Dxj_0tnw3K_swnWonfPf6UTp6EdxV8eZOW92uYe8Lwn-67CZ3V4msCWHpltSxiYvbZkpgw0dXTUcrg4wTHadubGHZ6cxiu8jlu9WxrGnYaONoB3-dwFlYMxkAjwOWC9dknkBB7JMTmcwQJdNHNZGszaPeW7qqZ8QDR-_9hiPYScebon-stdanHZtkP0BYsY13tLyBthmR_Cer2atez0gGt3pfhuwJ_QTA-ZMUDECPFLuvcbeodk-labI1tsTl2RNTEAyWV]--></g></svg>