<?xml version="1.0" encoding="UTF-8" standalone="no"?><svg xmlns="http://www.w3.org/2000/svg" xmlns:xlink="http://www.w3.org/1999/xlink" contentStyleType="text/css" height="963px" preserveAspectRatio="none" style="width:692px;height:963px;background:#FFFFFF;" version="1.1" viewBox="0 0 692 963" width="692px" zoomAndPan="magnify"><defs/><g><!--class AuthenticationService--><g id="elem_AuthenticationService"><rect codeLine="2" fill="#F1F1F1" height="100.9999" id="AuthenticationService" rx="2.5" ry="2.5" style="stroke:#181818;stroke-width:0.5;" width="226" x="209.36" y="7"/><ellipse cx="225.36" cy="37.5" fill="#ADD1B2" rx="12" ry="12" style="stroke:#181818;stroke-width:1.0;"/><path d="M219.4381,39.1875 C219.4381,42.125 221.9538,44.2656 225.4069,44.2656 C226.86,44.2656 228.235,43.9062 229.1256,43.2969 C229.8444,42.7969 230.2194,42.2969 230.2194,41.8437 C230.2194,41.2812 229.7194,40.7969 229.1413,40.7969 C228.86,40.7969 228.5944,40.9062 228.36,41.1406 C227.8444,41.6406 227.8444,41.6406 227.6413,41.7656 C227.1256,42.0469 226.36,42.2031 225.4538,42.2031 C223.0944,42.2031 221.5944,41 221.5944,39.1406 L221.5944,37.9219 C221.5944,35.9219 223.0475,34.5 225.0475,34.5 C225.7194,34.5 226.4069,34.6562 226.9381,34.9531 C227.5006,35.2656 227.7038,35.4844 227.7819,35.9219 C227.9225,36.7031 228.2194,37 228.8444,37 C229.1725,37 229.5006,36.8437 229.7194,36.5781 C229.8756,36.375 229.9225,36.1562 229.9225,35.6562 L229.9225,34.0625 C229.9225,33.5625 229.9069,33.4062 229.7663,33.2031 C229.5631,32.9062 229.2194,32.7187 228.8444,32.7187 C228.485,32.7187 228.235,32.8437 227.985,33.1562 C226.5944,32.5625 226.0788,32.4375 224.9538,32.4375 C221.8131,32.4375 219.4381,34.7969 219.4381,37.9062 L219.4381,39.1875 Z " fill="#000000"/><text fill="#000000" font-family="sans-serif" font-size="20" font-style="italic" lengthAdjust="spacing" textLength="85" x="293.86" y="34">«service»</text><text fill="#000000" font-family="sans-serif" font-size="20" lengthAdjust="spacing" textLength="192" x="240.36" y="57.58">AuthenticationService</text><line style="stroke:#181818;stroke-width:0.5;" x1="210.36" x2="434.36" y1="68" y2="68"/><line style="stroke:#181818;stroke-width:0.5;" x1="210.36" x2="434.36" y1="76" y2="76"/><ellipse cx="220.36" cy="93.4999" fill="#84BE84" rx="3" ry="3" style="stroke:#038048;stroke-width:1.0;"/><text fill="#000000" font-family="sans-serif" font-size="20" lengthAdjust="spacing" textLength="123" x="230.36" y="98.5799">authenticate()</text></g><!--class AuthorizationService--><g id="elem_AuthorizationService"><rect codeLine="5" fill="#F1F1F1" height="77" id="AuthorizationService" rx="2.5" ry="2.5" style="stroke:#181818;stroke-width:0.5;" width="216" x="134.36" y="168"/><ellipse cx="150.36" cy="198.5" fill="#ADD1B2" rx="12" ry="12" style="stroke:#181818;stroke-width:1.0;"/><path d="M144.4381,200.1875 C144.4381,203.125 146.9537,205.2656 150.4069,205.2656 C151.86,205.2656 153.235,204.9062 154.1256,204.2969 C154.8444,203.7969 155.2194,203.2969 155.2194,202.8437 C155.2194,202.2812 154.7194,201.7969 154.1412,201.7969 C153.86,201.7969 153.5944,201.9062 153.36,202.1406 C152.8444,202.6406 152.8444,202.6406 152.6412,202.7656 C152.1256,203.0469 151.36,203.2031 150.4537,203.2031 C148.0944,203.2031 146.5944,202 146.5944,200.1406 L146.5944,198.9219 C146.5944,196.9219 148.0475,195.5 150.0475,195.5 C150.7194,195.5 151.4069,195.6562 151.9381,195.9531 C152.5006,196.2656 152.7037,196.4844 152.7819,196.9219 C152.9225,197.7031 153.2194,198 153.8444,198 C154.1725,198 154.5006,197.8437 154.7194,197.5781 C154.8756,197.375 154.9225,197.1562 154.9225,196.6562 L154.9225,195.0625 C154.9225,194.5625 154.9069,194.4062 154.7662,194.2031 C154.5631,193.9062 154.2194,193.7187 153.8444,193.7187 C153.485,193.7187 153.235,193.8437 152.985,194.1562 C151.5944,193.5625 151.0787,193.4375 149.9537,193.4375 C146.8131,193.4375 144.4381,195.7969 144.4381,198.9062 L144.4381,200.1875 Z " fill="#000000"/><text fill="#000000" font-family="sans-serif" font-size="20" font-style="italic" lengthAdjust="spacing" textLength="85" x="213.86" y="195">«service»</text><text fill="#000000" font-family="sans-serif" font-size="20" lengthAdjust="spacing" textLength="182" x="165.36" y="218.58">AuthorizationService</text><line style="stroke:#181818;stroke-width:0.5;" x1="135.36" x2="349.36" y1="229" y2="229"/><line style="stroke:#181818;stroke-width:0.5;" x1="135.36" x2="349.36" y1="237" y2="237"/></g><!--class PasswordPolicy--><g id="elem_PasswordPolicy"><rect codeLine="6" fill="#F1F1F1" height="77" id="PasswordPolicy" rx="2.5" ry="2.5" style="stroke:#181818;stroke-width:0.5;" width="173" x="48.86" y="743"/><ellipse cx="64.86" cy="773.5" fill="#ADD1B2" rx="12" ry="12" style="stroke:#181818;stroke-width:1.0;"/><path d="M58.9381,775.1875 C58.9381,778.125 61.4538,780.2656 64.9069,780.2656 C66.36,780.2656 67.735,779.9062 68.6256,779.2969 C69.3444,778.7969 69.7194,778.2969 69.7194,777.8437 C69.7194,777.2812 69.2194,776.7969 68.6413,776.7969 C68.36,776.7969 68.0944,776.9062 67.86,777.1406 C67.3444,777.6406 67.3444,777.6406 67.1413,777.7656 C66.6256,778.0469 65.86,778.2031 64.9538,778.2031 C62.5944,778.2031 61.0944,777 61.0944,775.1406 L61.0944,773.9219 C61.0944,771.9219 62.5475,770.5 64.5475,770.5 C65.2194,770.5 65.9069,770.6562 66.4381,770.9531 C67.0006,771.2656 67.2038,771.4844 67.2819,771.9219 C67.4225,772.7031 67.7194,773 68.3444,773 C68.6725,773 69.0006,772.8437 69.2194,772.5781 C69.3756,772.375 69.4225,772.1562 69.4225,771.6562 L69.4225,770.0625 C69.4225,769.5625 69.4069,769.4062 69.2663,769.2031 C69.0631,768.9062 68.7194,768.7187 68.3444,768.7187 C67.985,768.7187 67.735,768.8437 67.485,769.1562 C66.0944,768.5625 65.5788,768.4375 64.4538,768.4375 C61.3131,768.4375 58.9381,770.7969 58.9381,773.9062 L58.9381,775.1875 Z " fill="#000000"/><text fill="#000000" font-family="sans-serif" font-size="20" font-style="italic" lengthAdjust="spacing" textLength="85" x="106.86" y="770">«service»</text><text fill="#000000" font-family="sans-serif" font-size="20" lengthAdjust="spacing" textLength="139" x="79.86" y="793.58">PasswordPolicy</text><line style="stroke:#181818;stroke-width:0.5;" x1="49.86" x2="220.86" y1="804" y2="804"/><line style="stroke:#181818;stroke-width:0.5;" x1="49.86" x2="220.86" y1="812" y2="812"/></g><!--class SimplePasswordEncoder--><g id="elem_SimplePasswordEncoder"><rect codeLine="8" fill="#F1F1F1" height="77" id="SimplePasswordEncoder" rx="2.5" ry="2.5" style="stroke:#181818;stroke-width:0.5;" width="255" x="138.86" y="880"/><ellipse cx="154.86" cy="910.5" fill="#ADD1B2" rx="12" ry="12" style="stroke:#181818;stroke-width:1.0;"/><path d="M148.9381,912.1875 C148.9381,915.125 151.4538,917.2656 154.9069,917.2656 C156.36,917.2656 157.735,916.9062 158.6256,916.2969 C159.3444,915.7969 159.7194,915.2969 159.7194,914.8437 C159.7194,914.2812 159.2194,913.7969 158.6413,913.7969 C158.36,913.7969 158.0944,913.9062 157.86,914.1406 C157.3444,914.6406 157.3444,914.6406 157.1413,914.7656 C156.6256,915.0469 155.86,915.2031 154.9538,915.2031 C152.5944,915.2031 151.0944,914 151.0944,912.1406 L151.0944,910.9219 C151.0944,908.9219 152.5475,907.5 154.5475,907.5 C155.2194,907.5 155.9069,907.6562 156.4381,907.9531 C157.0006,908.2656 157.2038,908.4844 157.2819,908.9219 C157.4225,909.7031 157.7194,910 158.3444,910 C158.6725,910 159.0006,909.8437 159.2194,909.5781 C159.3756,909.375 159.4225,909.1562 159.4225,908.6562 L159.4225,907.0625 C159.4225,906.5625 159.4069,906.4062 159.2663,906.2031 C159.0631,905.9062 158.7194,905.7187 158.3444,905.7187 C157.985,905.7187 157.735,905.8437 157.485,906.1562 C156.0944,905.5625 155.5788,905.4375 154.4538,905.4375 C151.3131,905.4375 148.9381,907.7969 148.9381,910.9062 L148.9381,912.1875 Z " fill="#000000"/><text fill="#000000" font-family="sans-serif" font-size="20" font-style="italic" lengthAdjust="spacing" textLength="85" x="237.86" y="907">«service»</text><text fill="#000000" font-family="sans-serif" font-size="20" lengthAdjust="spacing" textLength="221" x="169.86" y="930.58">SimplePasswordEncoder</text><line style="stroke:#181818;stroke-width:0.5;" x1="139.86" x2="392.86" y1="941" y2="941"/><line style="stroke:#181818;stroke-width:0.5;" x1="139.86" x2="392.86" y1="949" y2="949"/></g><!--class PasswordHashEncoder--><g id="elem_PasswordHashEncoder"><rect codeLine="9" fill="#F1F1F1" height="77" id="PasswordHashEncoder" rx="2.5" ry="2.5" style="stroke:#181818;stroke-width:0.5;" width="241" x="428.86" y="880"/><ellipse cx="444.86" cy="910.5" fill="#ADD1B2" rx="12" ry="12" style="stroke:#181818;stroke-width:1.0;"/><path d="M438.9381,912.1875 C438.9381,915.125 441.4537,917.2656 444.9069,917.2656 C446.36,917.2656 447.735,916.9062 448.6256,916.2969 C449.3444,915.7969 449.7194,915.2969 449.7194,914.8437 C449.7194,914.2812 449.2194,913.7969 448.6412,913.7969 C448.36,913.7969 448.0944,913.9062 447.86,914.1406 C447.3444,914.6406 447.3444,914.6406 447.1412,914.7656 C446.6256,915.0469 445.86,915.2031 444.9537,915.2031 C442.5944,915.2031 441.0944,914 441.0944,912.1406 L441.0944,910.9219 C441.0944,908.9219 442.5475,907.5 444.5475,907.5 C445.2194,907.5 445.9069,907.6562 446.4381,907.9531 C447.0006,908.2656 447.2037,908.4844 447.2819,908.9219 C447.4225,909.7031 447.7194,910 448.3444,910 C448.6725,910 449.0006,909.8437 449.2194,909.5781 C449.3756,909.375 449.4225,909.1562 449.4225,908.6562 L449.4225,907.0625 C449.4225,906.5625 449.4069,906.4062 449.2662,906.2031 C449.0631,905.9062 448.7194,905.7187 448.3444,905.7187 C447.985,905.7187 447.735,905.8437 447.485,906.1562 C446.0944,905.5625 445.5787,905.4375 444.4537,905.4375 C441.3131,905.4375 438.9381,907.7969 438.9381,910.9062 L438.9381,912.1875 Z " fill="#000000"/><text fill="#000000" font-family="sans-serif" font-size="20" font-style="italic" lengthAdjust="spacing" textLength="85" x="520.86" y="907">«service»</text><text fill="#000000" font-family="sans-serif" font-size="20" lengthAdjust="spacing" textLength="207" x="459.86" y="930.58">PasswordHashEncoder</text><line style="stroke:#181818;stroke-width:0.5;" x1="429.86" x2="668.86" y1="941" y2="941"/><line style="stroke:#181818;stroke-width:0.5;" x1="429.86" x2="668.86" y1="949" y2="949"/></g><!--class PasswordEncoder--><g id="elem_PasswordEncoder"><rect codeLine="10" fill="#F1F1F1" height="53" id="PasswordEncoder" rx="2.5" ry="2.5" style="stroke:#181818;stroke-width:0.5;" width="195" x="309.86" y="755"/><ellipse cx="325.86" cy="773.5" fill="#B4A7E5" rx="12" ry="12" style="stroke:#181818;stroke-width:1.0;"/><path d="M326.9381,769.7812 L328.8756,769.7812 C329.3444,769.7812 329.5787,769.7344 329.7662,769.6406 C330.0787,769.4375 330.2819,769.0937 330.2819,768.7344 C330.2819,768.4219 330.1256,768.125 329.8444,767.9219 C329.6256,767.7656 329.4381,767.7187 328.8756,767.7187 L322.8444,767.7187 C322.3131,767.7187 322.1569,767.7344 321.9537,767.8594 C321.6412,768.0625 321.4381,768.4062 321.4381,768.7344 C321.4381,769.0781 321.5944,769.4062 321.8756,769.5781 C322.0944,769.7344 322.3131,769.7812 322.8444,769.7812 L324.7819,769.7812 L324.7819,776.9375 L322.8444,776.9375 C322.3131,776.9375 322.1569,776.9531 321.9537,777.0781 C321.6412,777.2812 321.4381,777.625 321.4381,777.9531 C321.4381,778.6562 321.9225,779 322.8444,779 L328.8756,779 C329.7975,779 330.2819,778.6562 330.2819,777.9531 C330.2819,777.6406 330.1256,777.3437 329.8444,777.1406 C329.6256,776.9844 329.4225,776.9375 328.8756,776.9375 L326.9381,776.9375 L326.9381,769.7812 Z " fill="#000000"/><text fill="#000000" font-family="sans-serif" font-size="20" font-style="italic" lengthAdjust="spacing" textLength="161" x="340.86" y="782">PasswordEncoder</text><line style="stroke:#181818;stroke-width:0.5;" x1="310.86" x2="503.86" y1="792" y2="792"/><line style="stroke:#181818;stroke-width:0.5;" x1="310.86" x2="503.86" y1="800" y2="800"/></g><!--class UserSession--><g id="elem_UserSession"><rect codeLine="13" fill="#F1F1F1" height="50" id="UserSession" rx="2.5" ry="2.5" style="stroke:#181818;stroke-width:0.5;" width="146" x="169.36" y="305"/><ellipse cx="185.36" cy="322" fill="#ADD1B2" rx="12" ry="12" style="stroke:#181818;stroke-width:1.0;"/><path d="M179.4381,323.6875 C179.4381,326.625 181.9538,328.7656 185.4069,328.7656 C186.86,328.7656 188.235,328.4063 189.1256,327.7969 C189.8444,327.2969 190.2194,326.7969 190.2194,326.3438 C190.2194,325.7813 189.7194,325.2969 189.1413,325.2969 C188.86,325.2969 188.5944,325.4063 188.36,325.6406 C187.8444,326.1406 187.8444,326.1406 187.6413,326.2656 C187.1256,326.5469 186.36,326.7031 185.4538,326.7031 C183.0944,326.7031 181.5944,325.5 181.5944,323.6406 L181.5944,322.4219 C181.5944,320.4219 183.0475,319 185.0475,319 C185.7194,319 186.4069,319.1563 186.9381,319.4531 C187.5006,319.7656 187.7038,319.9844 187.7819,320.4219 C187.9225,321.2031 188.2194,321.5 188.8444,321.5 C189.1725,321.5 189.5006,321.3438 189.7194,321.0781 C189.8756,320.875 189.9225,320.6563 189.9225,320.1563 L189.9225,318.5625 C189.9225,318.0625 189.9069,317.9063 189.7663,317.7031 C189.5631,317.4063 189.2194,317.2188 188.8444,317.2188 C188.485,317.2188 188.235,317.3438 187.985,317.6563 C186.5944,317.0625 186.0788,316.9375 184.9538,316.9375 C181.8131,316.9375 179.4381,319.2969 179.4381,322.4063 L179.4381,323.6875 Z " fill="#000000"/><text fill="#000000" font-family="sans-serif" font-size="20" lengthAdjust="spacing" textLength="112" x="200.36" y="328.58">UserSession</text><line style="stroke:#181818;stroke-width:0.5;" x1="170.36" x2="314.36" y1="339" y2="339"/><line style="stroke:#181818;stroke-width:0.5;" x1="170.36" x2="314.36" y1="347" y2="347"/></g><!--class SystemUser--><g id="elem_SystemUser"><rect codeLine="15" fill="#F1F1F1" height="103.9999" id="SystemUser" rx="2.5" ry="2.5" style="stroke:#181818;stroke-width:0.5;" width="143" x="170.86" y="415"/><ellipse cx="186.86" cy="459" fill="#8DC8F6" rx="12" ry="12" style="stroke:#181818;stroke-width:1.0;"/><path d="M185.3131,459.8593 L186.86,459.8593 L186.86,459.9218 C186.86,460.4062 186.8756,460.5781 187.0006,460.7656 C187.2038,461.0625 187.5631,461.2656 187.9225,461.2656 C188.2663,461.2656 188.5944,461.0937 188.7975,460.8437 C188.9538,460.625 189.0006,460.4531 189.0006,459.9218 L189.0006,457.7656 C189.0006,457.3593 188.985,457.2343 188.9225,457.0468 C188.7819,456.6875 188.36,456.4062 187.9225,456.4062 C187.5788,456.4062 187.2663,456.5625 187.0631,456.8125 C186.9069,457.0468 186.86,457.2343 186.86,457.7656 L186.86,457.8125 L185.3131,457.8125 L185.3131,455.2812 L189.8444,455.2812 L189.8444,456.1562 C189.8444,456.625 189.8756,456.8437 190.0006,457.0156 C190.2038,457.3125 190.5631,457.5156 190.9225,457.5156 C191.2663,457.5156 191.5788,457.3593 191.7975,457.0937 C191.9538,456.875 192.0006,456.7031 192.0006,456.1562 L192.0006,453.2187 L182.9381,453.2187 C182.4069,453.2187 182.2663,453.2343 182.0631,453.3593 C181.735,453.5625 181.5475,453.875 181.5475,454.2343 C181.5475,454.5781 181.7038,454.875 181.985,455.0781 C182.2038,455.2343 182.4225,455.2812 182.9381,455.2812 L183.1569,455.2812 L183.1569,462.4375 L182.9381,462.4375 C182.4381,462.4375 182.2663,462.4843 182.0631,462.5781 C181.735,462.7812 181.5475,463.0937 181.5475,463.4531 C181.5475,464.1406 182.0163,464.5 182.9381,464.5 L192.4381,464.5 L192.4381,461.5156 C192.4381,461.0468 192.4069,460.8437 192.2819,460.6562 C192.0788,460.3437 191.735,460.1562 191.36,460.1562 C191.0163,460.1562 190.7038,460.3125 190.485,460.5781 C190.3131,460.7968 190.2819,460.9843 190.2819,461.5156 L190.2819,462.4375 L185.3131,462.4375 L185.3131,459.8593 Z " fill="#000000"/><text fill="#000000" font-family="sans-serif" font-size="20" font-style="italic" lengthAdjust="spacing" textLength="70" x="221.36" y="442">«entity»</text><text fill="#000000" font-family="sans-serif" font-size="20" font-style="italic" lengthAdjust="spacing" textLength="57" x="227.86" y="469">«root»</text><text fill="#000000" font-family="sans-serif" font-size="20" lengthAdjust="spacing" textLength="109" x="201.86" y="492.5799">SystemUser</text><line style="stroke:#181818;stroke-width:0.5;" x1="171.86" x2="312.86" y1="502.9999" y2="502.9999"/><line style="stroke:#181818;stroke-width:0.5;" x1="171.86" x2="312.86" y1="510.9999" y2="510.9999"/></g><!--class Username--><g id="elem_Username"><rect codeLine="17" fill="#F1F1F1" height="103.9999" id="Username" rx="2.5" ry="2.5" style="stroke:#181818;stroke-width:0.5;" width="158" x="66.36" y="579"/><ellipse cx="82.36" cy="623" fill="#FF8B40" rx="12" ry="12" style="stroke:#181818;stroke-width:1.0;"/><path d="M82.4225,626.9843 L79.6569,620.7812 L79.9225,620.7812 C80.4225,620.7812 80.6256,620.7656 80.7975,620.6406 C81.1256,620.4531 81.3131,620.0937 81.3131,619.7656 C81.3131,619.4218 81.1569,619.125 80.8756,618.9218 C80.6725,618.7656 80.4381,618.7187 79.9225,618.7187 L77.2663,618.7187 C76.7663,618.7187 76.5788,618.7656 76.3756,618.8593 C76.0631,619.0625 75.86,619.4062 75.86,619.7656 C75.86,620.0781 76.0163,620.4062 76.2975,620.5937 C76.5163,620.7343 76.7194,620.7812 77.235,620.7812 L81.2975,630 L83.36,630 L87.4538,620.7812 C87.86,620.7812 88.0006,620.7812 88.1725,620.7187 C88.5788,620.5781 88.86,620.1875 88.86,619.7656 C88.86,619.4218 88.7038,619.125 88.4225,618.9218 C88.2194,618.7656 87.985,618.7187 87.4538,618.7187 L84.8131,618.7187 C84.3131,618.7187 84.1256,618.7656 83.9381,618.8593 C83.6256,619.0625 83.4225,619.4062 83.4225,619.7656 C83.4225,620.0781 83.5788,620.4062 83.86,620.5937 C84.0788,620.7656 84.2819,620.7812 84.8131,620.7812 L85.1725,620.7812 L82.4225,626.9843 Z " fill="#000000"/><text fill="#000000" font-family="sans-serif" font-size="20" font-style="italic" lengthAdjust="spacing" textLength="128" x="95.36" y="606">«value object»</text><text fill="#000000" font-family="sans-serif" font-size="20" font-style="italic" lengthAdjust="spacing" textLength="37" x="140.86" y="633">«id»</text><text fill="#000000" font-family="sans-serif" font-size="20" lengthAdjust="spacing" textLength="92" x="113.36" y="656.5799">Username</text><line style="stroke:#181818;stroke-width:0.5;" x1="67.36" x2="223.36" y1="666.9999" y2="666.9999"/><line style="stroke:#181818;stroke-width:0.5;" x1="67.36" x2="223.36" y1="674.9999" y2="674.9999"/></g><!--class Password--><g id="elem_Password"><rect codeLine="18" fill="#F1F1F1" height="77" id="Password" rx="2.5" ry="2.5" style="stroke:#181818;stroke-width:0.5;" width="158" x="261.36" y="592.5"/><ellipse cx="277.36" cy="623" fill="#FF8B40" rx="12" ry="12" style="stroke:#181818;stroke-width:1.0;"/><path d="M277.4225,626.9844 L274.6569,620.7812 L274.9225,620.7812 C275.4225,620.7812 275.6256,620.7656 275.7975,620.6406 C276.1256,620.4531 276.3131,620.0937 276.3131,619.7656 C276.3131,619.4219 276.1569,619.125 275.8756,618.9219 C275.6725,618.7656 275.4381,618.7187 274.9225,618.7187 L272.2663,618.7187 C271.7663,618.7187 271.5788,618.7656 271.3756,618.8594 C271.0631,619.0625 270.86,619.4062 270.86,619.7656 C270.86,620.0781 271.0163,620.4062 271.2975,620.5937 C271.5163,620.7344 271.7194,620.7812 272.235,620.7812 L276.2975,630 L278.36,630 L282.4538,620.7812 C282.86,620.7812 283.0006,620.7812 283.1725,620.7187 C283.5788,620.5781 283.86,620.1875 283.86,619.7656 C283.86,619.4219 283.7038,619.125 283.4225,618.9219 C283.2194,618.7656 282.985,618.7187 282.4538,618.7187 L279.8131,618.7187 C279.3131,618.7187 279.1256,618.7656 278.9381,618.8594 C278.6256,619.0625 278.4225,619.4062 278.4225,619.7656 C278.4225,620.0781 278.5788,620.4062 278.86,620.5937 C279.0788,620.7656 279.2819,620.7812 279.8131,620.7812 L280.1725,620.7812 L277.4225,626.9844 Z " fill="#000000"/><text fill="#000000" font-family="sans-serif" font-size="20" font-style="italic" lengthAdjust="spacing" textLength="128" x="290.36" y="619.5">«value object»</text><text fill="#000000" font-family="sans-serif" font-size="20" lengthAdjust="spacing" textLength="87" x="310.86" y="643.08">Password</text><line style="stroke:#181818;stroke-width:0.5;" x1="262.36" x2="418.36" y1="653.5" y2="653.5"/><line style="stroke:#181818;stroke-width:0.5;" x1="262.36" x2="418.36" y1="661.5" y2="661.5"/></g><!--class Role--><g id="elem_Role"><rect codeLine="19" fill="#F1F1F1" height="77" id="Role" rx="2.5" ry="2.5" style="stroke:#181818;stroke-width:0.5;" width="158" x="527.36" y="168"/><ellipse cx="543.36" cy="198.5" fill="#FF8B40" rx="12" ry="12" style="stroke:#181818;stroke-width:1.0;"/><path d="M543.4225,202.4844 L540.6569,196.2812 L540.9225,196.2812 C541.4225,196.2812 541.6256,196.2656 541.7975,196.1406 C542.1256,195.9531 542.3131,195.5937 542.3131,195.2656 C542.3131,194.9219 542.1569,194.625 541.8756,194.4219 C541.6725,194.2656 541.4381,194.2187 540.9225,194.2187 L538.2663,194.2187 C537.7663,194.2187 537.5788,194.2656 537.3756,194.3594 C537.0631,194.5625 536.86,194.9062 536.86,195.2656 C536.86,195.5781 537.0163,195.9062 537.2975,196.0937 C537.5163,196.2344 537.7194,196.2812 538.235,196.2812 L542.2975,205.5 L544.36,205.5 L548.4538,196.2812 C548.86,196.2812 549.0006,196.2812 549.1725,196.2187 C549.5788,196.0781 549.86,195.6875 549.86,195.2656 C549.86,194.9219 549.7038,194.625 549.4225,194.4219 C549.2194,194.2656 548.985,194.2187 548.4538,194.2187 L545.8131,194.2187 C545.3131,194.2187 545.1256,194.2656 544.9381,194.3594 C544.6256,194.5625 544.4225,194.9062 544.4225,195.2656 C544.4225,195.5781 544.5788,195.9062 544.86,196.0937 C545.0788,196.2656 545.2819,196.2812 545.8131,196.2812 L546.1725,196.2812 L543.4225,202.4844 Z " fill="#000000"/><text fill="#000000" font-family="sans-serif" font-size="20" font-style="italic" lengthAdjust="spacing" textLength="128" x="556.36" y="195">«value object»</text><text fill="#000000" font-family="sans-serif" font-size="20" lengthAdjust="spacing" textLength="40" x="600.36" y="218.58">Role</text><line style="stroke:#181818;stroke-width:0.5;" x1="528.36" x2="684.36" y1="229" y2="229"/><line style="stroke:#181818;stroke-width:0.5;" x1="528.36" x2="684.36" y1="237" y2="237"/></g><!--link AuthenticationService to AuthorizationService--><g id="link_AuthenticationService_AuthorizationService"><path codeLine="21" d="M295.28,108.27 C285.67,125.93 274.94,145.64 265.67,162.68 " fill="none" id="AuthenticationService-to-AuthorizationService" style="stroke:#181818;stroke-width:1.0;stroke-dasharray:7.0,7.0;"/><polygon fill="#181818" points="262.84,166.87,270.6613,160.8843,265.2343,162.4805,263.6381,157.0535,262.84,166.87" style="stroke:#181818;stroke-width:1.0;"/></g><!--link AuthenticationService to Username--><g id="link_AuthenticationService_Username"><path codeLine="22" d="M209.07,92.38 C173.04,109.1 137.17,133.37 116.36,168 C39.55,295.82 89.32,481.06 122.53,573.34 " fill="none" id="AuthenticationService-to-Username" style="stroke:#181818;stroke-width:1.0;stroke-dasharray:7.0,7.0;"/><polygon fill="#181818" points="124.5,577.74,125.1739,567.9142,122.7867,573.0427,117.6582,570.6555,124.5,577.74" style="stroke:#181818;stroke-width:1.0;"/></g><!--link AuthenticationService to Password--><g id="link_AuthenticationService_Password"><path codeLine="23" d="M347.69,108.47 C355.64,126.72 363.38,147.84 367.36,168 C397.27,319.45 367.07,503.81 350.15,586.37 " fill="none" id="AuthenticationService-to-Password" style="stroke:#181818;stroke-width:1.0;stroke-dasharray:7.0,7.0;"/><polygon fill="#181818" points="348.95,591.13,354.6913,583.1276,349.9635,586.2338,346.8573,581.506,348.95,591.13" style="stroke:#181818;stroke-width:1.0;"/></g><!--link AuthenticationService to Role--><g id="link_AuthenticationService_Role"><path codeLine="24" d="M418.91,108.47 C454.47,126.88 494.28,147.48 528.03,164.95 " fill="none" id="AuthenticationService-to-Role" style="stroke:#181818;stroke-width:1.0;stroke-dasharray:7.0,7.0;"/><polygon fill="#181818" points="531.97,167.51,525.8164,159.8202,527.5297,165.2113,522.1386,166.9246,531.97,167.51" style="stroke:#181818;stroke-width:1.0;"/></g><!--link AuthenticationService to PasswordPolicy--><g id="link_AuthenticationService_PasswordPolicy"><path codeLine="25" d="M209.02,89.33 C163.69,106.37 113.91,131.65 78.36,168 C24.05,223.53 10.36,251.32 10.36,329 C10.36,329 10.36,329 10.36,468 C10.36,565.04 6,595.7 48.36,683 C58.22,703.32 73.57,722.58 88.65,738.54 " fill="none" id="AuthenticationService-to-PasswordPolicy" style="stroke:#181818;stroke-width:1.0;stroke-dasharray:7.0,7.0;"/><polygon fill="#181818" points="91.47,741.52,88.1212,732.2579,88.0067,737.9136,82.351,737.7991,91.47,741.52" style="stroke:#181818;stroke-width:1.0;"/></g><!--link AuthenticationService to PasswordEncoder--><g id="link_AuthenticationService_PasswordEncoder"><path codeLine="26" d="M370.87,108.21 C415.36,159.22 474.36,243.08 474.36,329 C474.36,329 474.36,329 474.36,468 C474.36,572.87 437.84,693.23 418.73,749.05 " fill="none" id="AuthenticationService-to-PasswordEncoder" style="stroke:#181818;stroke-width:1.0;stroke-dasharray:7.0,7.0;"/><polygon fill="#181818" points="416.82,753.56,423.5327,746.3531,418.4482,748.8325,415.9688,743.748,416.82,753.56" style="stroke:#181818;stroke-width:1.0;"/></g><!--reverse link PasswordEncoder to SimplePasswordEncoder--><g id="link_PasswordEncoder_SimplePasswordEncoder"><path codeLine="28" d="M365.58,822.5 C346.71,840.57 324.52,861.82 305.91,879.63 " fill="none" id="PasswordEncoder-backto-SimplePasswordEncoder" style="stroke:#181818;stroke-width:1.0;"/><polygon fill="none" points="360.22,817.99,379.51,809.21,369.9,828.1,360.22,817.99" style="stroke:#181818;stroke-width:1.0;"/></g><!--reverse link PasswordEncoder to PasswordHashEncoder--><g id="link_PasswordEncoder_PasswordHashEncoder"><path codeLine="29" d="M449.44,822.5 C468.45,840.57 490.79,861.82 509.53,879.63 " fill="none" id="PasswordEncoder-backto-PasswordHashEncoder" style="stroke:#181818;stroke-width:1.0;"/><polygon fill="none" points="445.08,828.06,435.41,809.21,454.72,817.92,445.08,828.06" style="stroke:#181818;stroke-width:1.0;"/></g><!--link Password to PasswordPolicy--><g id="link_Password_PasswordPolicy"><path codeLine="31" d="M288.1,669.86 C258.83,691.06 222.28,717.53 192.28,739.27 " fill="none" id="Password-to-PasswordPolicy" style="stroke:#181818;stroke-width:1.0;stroke-dasharray:7.0,7.0;"/><polygon fill="#181818" points="188.53,742.71,198.1686,740.6858,192.5841,739.7836,193.4863,734.1991,188.53,742.71" style="stroke:#181818;stroke-width:1.0;"/></g><!--link Password to PasswordEncoder--><g id="link_Password_PasswordEncoder"><path codeLine="32" d="M357.44,669.86 C368.57,694.52 382.91,726.3 393.36,749.46 " fill="none" id="Password-to-PasswordEncoder" style="stroke:#181818;stroke-width:1.0;stroke-dasharray:7.0,7.0;"/><polygon fill="#181818" points="395.8,753.86,395.7429,744.0113,393.7428,749.3028,388.4513,747.3028,395.8,753.86" style="stroke:#181818;stroke-width:1.0;"/></g><!--link AuthorizationService to UserSession--><g id="link_AuthorizationService_UserSession"><path codeLine="34" d="M242.36,245.28 C242.36,262.53 242.36,282.67 242.36,298.88 " fill="none" id="AuthorizationService-to-UserSession" style="stroke:#181818;stroke-width:1.0;"/><polygon fill="#181818" points="242.36,303.66,246.36,294.66,242.36,298.66,238.36,294.66,242.36,303.66" style="stroke:#181818;stroke-width:1.0;"/></g><!--link UserSession to SystemUser--><g id="link_UserSession_SystemUser"><path codeLine="36" d="M242.36,355.45 C242.36,370.39 242.36,390.16 242.36,408.85 " fill="none" id="UserSession-to-SystemUser" style="stroke:#181818;stroke-width:1.0;"/><polygon fill="#181818" points="242.36,413.61,246.36,404.61,242.36,408.61,238.36,404.61,242.36,413.61" style="stroke:#181818;stroke-width:1.0;"/></g><!--link SystemUser to Username--><g id="link_SystemUser_Username"><path codeLine="38" d="M211.67,519.26 C201.32,536.54 189.72,555.93 179.14,573.59 " fill="none" id="SystemUser-to-Username" style="stroke:#181818;stroke-width:1.0;"/><polygon fill="#181818" points="176.19,577.52,184.2421,571.8487,178.7562,573.2288,177.3761,567.7428,176.19,577.52" style="stroke:#181818;stroke-width:1.0;"/></g><!--link SystemUser to Password--><g id="link_SystemUser_Password"><path codeLine="39" d="M273.37,519.26 C286.61,541.14 301.88,566.39 314.5,587.24 " fill="none" id="SystemUser-to-Password" style="stroke:#181818;stroke-width:1.0;"/><polygon fill="#181818" points="317.48,591.17,316.2556,581.3975,314.897,586.8888,309.4057,585.5303,317.48,591.17" style="stroke:#181818;stroke-width:1.0;"/></g><!--SRC=[ZPDHQuCm58NVyoikz64jgwMCCNmGOOFA7ijaUy_YbMQDIKdI3hljlozghRPBNLz4ShvxlFVcQDPSRgYcXL1iZHbacDEji8cIDkLxXBiv8KnGO-1nQrSeBMVKSYLJr3lE4AB8D6zn35y4u1Pen-5uGdvwvKhp_UNgbbownwVIsL89pifpvW2blDW8RD65P2f3FUptJCtg0iYbHPrJrz6venDluDJd82MKMQNBNa-lpZD5Ozo0zMcr1Lj2MXgBHIMwpuuNqr6OiJ1_c42ZkmwYI2jbuxXl96bHxMVyDXqbIVXqFv_0ZeejWdh_G6RhAfxvvXokEk8lIk2_AF7V-cmMUozq06zd6a3Q0GQGgkah79heN04UxfAGFqdw3W9_oFoe9sITgQythtQizFujGH3tCqP8Ft2Ls2MDa5xgshfw_MVdnvt_0W00]--></g></svg>