<?xml version="1.0" encoding="UTF-8" standalone="no"?><svg xmlns="http://www.w3.org/2000/svg" xmlns:xlink="http://www.w3.org/1999/xlink" contentStyleType="text/css" height="802px" preserveAspectRatio="none" style="width:894px;height:802px;background:#FFFFFF;" version="1.1" viewBox="0 0 894 802" width="894px" zoomAndPan="magnify"><defs/><g><!--class SystemUserBuilder--><g id="elem_SystemUserBuilder"><rect codeLine="2" fill="#F1F1F1" height="50" id="SystemUserBuilder" rx="2.5" ry="2.5" style="stroke:#181818;stroke-width:0.5;" width="204" x="273" y="7"/><ellipse cx="289" cy="24" fill="#ADD1B2" rx="12" ry="12" style="stroke:#181818;stroke-width:1.0;"/><path d="M283.0781,25.6875 C283.0781,28.625 285.5938,30.7656 289.0469,30.7656 C290.5,30.7656 291.875,30.4063 292.7656,29.7969 C293.4844,29.2969 293.8594,28.7969 293.8594,28.3438 C293.8594,27.7813 293.3594,27.2969 292.7813,27.2969 C292.5,27.2969 292.2344,27.4063 292,27.6406 C291.4844,28.1406 291.4844,28.1406 291.2813,28.2656 C290.7656,28.5469 290,28.7031 289.0938,28.7031 C286.7344,28.7031 285.2344,27.5 285.2344,25.6406 L285.2344,24.4219 C285.2344,22.4219 286.6875,21 288.6875,21 C289.3594,21 290.0469,21.1563 290.5781,21.4531 C291.1406,21.7656 291.3438,21.9844 291.4219,22.4219 C291.5625,23.2031 291.8594,23.5 292.4844,23.5 C292.8125,23.5 293.1406,23.3438 293.3594,23.0781 C293.5156,22.875 293.5625,22.6563 293.5625,22.1563 L293.5625,20.5625 C293.5625,20.0625 293.5469,19.9063 293.4063,19.7031 C293.2031,19.4063 292.8594,19.2188 292.4844,19.2188 C292.125,19.2188 291.875,19.3438 291.625,19.6563 C290.2344,19.0625 289.7188,18.9375 288.5938,18.9375 C285.4531,18.9375 283.0781,21.2969 283.0781,24.4063 L283.0781,25.6875 Z " fill="#000000"/><text fill="#000000" font-family="sans-serif" font-size="20" lengthAdjust="spacing" textLength="170" x="304" y="30.58">SystemUserBuilder</text><line style="stroke:#181818;stroke-width:0.5;" x1="274" x2="476" y1="41" y2="41"/><line style="stroke:#181818;stroke-width:0.5;" x1="274" x2="476" y1="49" y2="49"/></g><!--class SystemUser--><g id="elem_SystemUser"><rect codeLine="3" fill="#F1F1F1" height="103.9999" id="SystemUser" rx="2.5" ry="2.5" style="stroke:#181818;stroke-width:0.5;" width="143" x="303.5" y="117"/><ellipse cx="319.5" cy="161" fill="#8DC8F6" rx="12" ry="12" style="stroke:#181818;stroke-width:1.0;"/><path d="M317.9531,161.8593 L319.5,161.8593 L319.5,161.9218 C319.5,162.4062 319.5156,162.5781 319.6406,162.7656 C319.8438,163.0625 320.2031,163.2656 320.5625,163.2656 C320.9063,163.2656 321.2344,163.0937 321.4375,162.8437 C321.5938,162.625 321.6406,162.4531 321.6406,161.9218 L321.6406,159.7656 C321.6406,159.3593 321.625,159.2343 321.5625,159.0468 C321.4219,158.6875 321,158.4062 320.5625,158.4062 C320.2188,158.4062 319.9063,158.5625 319.7031,158.8125 C319.5469,159.0468 319.5,159.2343 319.5,159.7656 L319.5,159.8125 L317.9531,159.8125 L317.9531,157.2812 L322.4844,157.2812 L322.4844,158.1562 C322.4844,158.625 322.5156,158.8437 322.6406,159.0156 C322.8438,159.3125 323.2031,159.5156 323.5625,159.5156 C323.9063,159.5156 324.2188,159.3593 324.4375,159.0937 C324.5938,158.875 324.6406,158.7031 324.6406,158.1562 L324.6406,155.2187 L315.5781,155.2187 C315.0469,155.2187 314.9063,155.2343 314.7031,155.3593 C314.375,155.5625 314.1875,155.875 314.1875,156.2343 C314.1875,156.5781 314.3438,156.875 314.625,157.0781 C314.8438,157.2343 315.0625,157.2812 315.5781,157.2812 L315.7969,157.2812 L315.7969,164.4375 L315.5781,164.4375 C315.0781,164.4375 314.9063,164.4843 314.7031,164.5781 C314.375,164.7812 314.1875,165.0937 314.1875,165.4531 C314.1875,166.1406 314.6563,166.5 315.5781,166.5 L325.0781,166.5 L325.0781,163.5156 C325.0781,163.0468 325.0469,162.8437 324.9219,162.6562 C324.7188,162.3437 324.375,162.1562 324,162.1562 C323.6563,162.1562 323.3438,162.3125 323.125,162.5781 C322.9531,162.7968 322.9219,162.9843 322.9219,163.5156 L322.9219,164.4375 L317.9531,164.4375 L317.9531,161.8593 Z " fill="#000000"/><text fill="#000000" font-family="sans-serif" font-size="20" font-style="italic" lengthAdjust="spacing" textLength="70" x="354" y="144">«entity»</text><text fill="#000000" font-family="sans-serif" font-size="20" font-style="italic" lengthAdjust="spacing" textLength="57" x="360.5" y="171">«root»</text><text fill="#000000" font-family="sans-serif" font-size="20" lengthAdjust="spacing" textLength="109" x="334.5" y="194.5799">SystemUser</text><line style="stroke:#181818;stroke-width:0.5;" x1="304.5" x2="445.5" y1="204.9999" y2="204.9999"/><line style="stroke:#181818;stroke-width:0.5;" x1="304.5" x2="445.5" y1="212.9999" y2="212.9999"/></g><!--class RoleSet--><g id="elem_RoleSet"><rect codeLine="4" fill="#F1F1F1" height="50" id="RoleSet" rx="2.5" ry="2.5" style="stroke:#181818;stroke-width:0.5;" width="104" x="61" y="308"/><ellipse cx="77" cy="325" fill="#ADD1B2" rx="12" ry="12" style="stroke:#181818;stroke-width:1.0;"/><path d="M71.0781,326.6875 C71.0781,329.625 73.5938,331.7656 77.0469,331.7656 C78.5,331.7656 79.875,331.4063 80.7656,330.7969 C81.4844,330.2969 81.8594,329.7969 81.8594,329.3438 C81.8594,328.7813 81.3594,328.2969 80.7813,328.2969 C80.5,328.2969 80.2344,328.4063 80,328.6406 C79.4844,329.1406 79.4844,329.1406 79.2813,329.2656 C78.7656,329.5469 78,329.7031 77.0938,329.7031 C74.7344,329.7031 73.2344,328.5 73.2344,326.6406 L73.2344,325.4219 C73.2344,323.4219 74.6875,322 76.6875,322 C77.3594,322 78.0469,322.1563 78.5781,322.4531 C79.1406,322.7656 79.3438,322.9844 79.4219,323.4219 C79.5625,324.2031 79.8594,324.5 80.4844,324.5 C80.8125,324.5 81.1406,324.3438 81.3594,324.0781 C81.5156,323.875 81.5625,323.6563 81.5625,323.1563 L81.5625,321.5625 C81.5625,321.0625 81.5469,320.9063 81.4063,320.7031 C81.2031,320.4063 80.8594,320.2188 80.4844,320.2188 C80.125,320.2188 79.875,320.3438 79.625,320.6563 C78.2344,320.0625 77.7188,319.9375 76.5938,319.9375 C73.4531,319.9375 71.0781,322.2969 71.0781,325.4063 L71.0781,326.6875 Z " fill="#000000"/><text fill="#000000" font-family="sans-serif" font-size="20" lengthAdjust="spacing" textLength="70" x="92" y="331.58">RoleSet</text><line style="stroke:#181818;stroke-width:0.5;" x1="62" x2="164" y1="342" y2="342"/><line style="stroke:#181818;stroke-width:0.5;" x1="62" x2="164" y1="350" y2="350"/></g><!--class Username--><g id="elem_Username"><rect codeLine="5" fill="#F1F1F1" height="103.9999" id="Username" rx="2.5" ry="2.5" style="stroke:#181818;stroke-width:0.5;" width="158" x="200" y="281"/><ellipse cx="216" cy="325" fill="#FF8B40" rx="12" ry="12" style="stroke:#181818;stroke-width:1.0;"/><path d="M216.0625,328.9843 L213.2969,322.7812 L213.5625,322.7812 C214.0625,322.7812 214.2656,322.7656 214.4375,322.6406 C214.7656,322.4531 214.9531,322.0937 214.9531,321.7656 C214.9531,321.4218 214.7969,321.125 214.5156,320.9218 C214.3125,320.7656 214.0781,320.7187 213.5625,320.7187 L210.9063,320.7187 C210.4063,320.7187 210.2188,320.7656 210.0156,320.8593 C209.7031,321.0625 209.5,321.4062 209.5,321.7656 C209.5,322.0781 209.6563,322.4062 209.9375,322.5937 C210.1563,322.7343 210.3594,322.7812 210.875,322.7812 L214.9375,332 L217,332 L221.0938,322.7812 C221.5,322.7812 221.6406,322.7812 221.8125,322.7187 C222.2188,322.5781 222.5,322.1875 222.5,321.7656 C222.5,321.4218 222.3438,321.125 222.0625,320.9218 C221.8594,320.7656 221.625,320.7187 221.0938,320.7187 L218.4531,320.7187 C217.9531,320.7187 217.7656,320.7656 217.5781,320.8593 C217.2656,321.0625 217.0625,321.4062 217.0625,321.7656 C217.0625,322.0781 217.2188,322.4062 217.5,322.5937 C217.7188,322.7656 217.9219,322.7812 218.4531,322.7812 L218.8125,322.7812 L216.0625,328.9843 Z " fill="#000000"/><text fill="#000000" font-family="sans-serif" font-size="20" font-style="italic" lengthAdjust="spacing" textLength="128" x="229" y="308">«value object»</text><text fill="#000000" font-family="sans-serif" font-size="20" font-style="italic" lengthAdjust="spacing" textLength="37" x="274.5" y="335">«id»</text><text fill="#000000" font-family="sans-serif" font-size="20" lengthAdjust="spacing" textLength="92" x="247" y="358.5799">Username</text><line style="stroke:#181818;stroke-width:0.5;" x1="201" x2="357" y1="368.9999" y2="368.9999"/><line style="stroke:#181818;stroke-width:0.5;" x1="201" x2="357" y1="376.9999" y2="376.9999"/></g><!--class Password--><g id="elem_Password"><rect codeLine="6" fill="#F1F1F1" height="77" id="Password" rx="2.5" ry="2.5" style="stroke:#181818;stroke-width:0.5;" width="158" x="393" y="294.5"/><ellipse cx="409" cy="325" fill="#FF8B40" rx="12" ry="12" style="stroke:#181818;stroke-width:1.0;"/><path d="M409.0625,328.9844 L406.2969,322.7812 L406.5625,322.7812 C407.0625,322.7812 407.2656,322.7656 407.4375,322.6406 C407.7656,322.4531 407.9531,322.0937 407.9531,321.7656 C407.9531,321.4219 407.7969,321.125 407.5156,320.9219 C407.3125,320.7656 407.0781,320.7187 406.5625,320.7187 L403.9063,320.7187 C403.4063,320.7187 403.2188,320.7656 403.0156,320.8594 C402.7031,321.0625 402.5,321.4062 402.5,321.7656 C402.5,322.0781 402.6563,322.4062 402.9375,322.5937 C403.1563,322.7344 403.3594,322.7812 403.875,322.7812 L407.9375,332 L410,332 L414.0938,322.7812 C414.5,322.7812 414.6406,322.7812 414.8125,322.7187 C415.2188,322.5781 415.5,322.1875 415.5,321.7656 C415.5,321.4219 415.3438,321.125 415.0625,320.9219 C414.8594,320.7656 414.625,320.7187 414.0938,320.7187 L411.4531,320.7187 C410.9531,320.7187 410.7656,320.7656 410.5781,320.8594 C410.2656,321.0625 410.0625,321.4062 410.0625,321.7656 C410.0625,322.0781 410.2188,322.4062 410.5,322.5937 C410.7188,322.7656 410.9219,322.7812 411.4531,322.7812 L411.8125,322.7812 L409.0625,328.9844 Z " fill="#000000"/><text fill="#000000" font-family="sans-serif" font-size="20" font-style="italic" lengthAdjust="spacing" textLength="128" x="422" y="321.5">«value object»</text><text fill="#000000" font-family="sans-serif" font-size="20" lengthAdjust="spacing" textLength="87" x="442.5" y="345.08">Password</text><line style="stroke:#181818;stroke-width:0.5;" x1="394" x2="550" y1="355.5" y2="355.5"/><line style="stroke:#181818;stroke-width:0.5;" x1="394" x2="550" y1="363.5" y2="363.5"/></g><!--class Name--><g id="elem_Name"><rect codeLine="7" fill="#F1F1F1" height="77" id="Name" rx="2.5" ry="2.5" style="stroke:#181818;stroke-width:0.5;" width="158" x="586" y="294.5"/><ellipse cx="602" cy="325" fill="#FF8B40" rx="12" ry="12" style="stroke:#181818;stroke-width:1.0;"/><path d="M602.0625,328.9844 L599.2969,322.7812 L599.5625,322.7812 C600.0625,322.7812 600.2656,322.7656 600.4375,322.6406 C600.7656,322.4531 600.9531,322.0937 600.9531,321.7656 C600.9531,321.4219 600.7969,321.125 600.5156,320.9219 C600.3125,320.7656 600.0781,320.7187 599.5625,320.7187 L596.9063,320.7187 C596.4063,320.7187 596.2188,320.7656 596.0156,320.8594 C595.7031,321.0625 595.5,321.4062 595.5,321.7656 C595.5,322.0781 595.6563,322.4062 595.9375,322.5937 C596.1563,322.7344 596.3594,322.7812 596.875,322.7812 L600.9375,332 L603,332 L607.0938,322.7812 C607.5,322.7812 607.6406,322.7812 607.8125,322.7187 C608.2188,322.5781 608.5,322.1875 608.5,321.7656 C608.5,321.4219 608.3438,321.125 608.0625,320.9219 C607.8594,320.7656 607.625,320.7187 607.0938,320.7187 L604.4531,320.7187 C603.9531,320.7187 603.7656,320.7656 603.5781,320.8594 C603.2656,321.0625 603.0625,321.4062 603.0625,321.7656 C603.0625,322.0781 603.2188,322.4062 603.5,322.5937 C603.7188,322.7656 603.9219,322.7812 604.4531,322.7812 L604.8125,322.7812 L602.0625,328.9844 Z " fill="#000000"/><text fill="#000000" font-family="sans-serif" font-size="20" font-style="italic" lengthAdjust="spacing" textLength="128" x="615" y="321.5">«value object»</text><text fill="#000000" font-family="sans-serif" font-size="20" lengthAdjust="spacing" textLength="53" x="652.5" y="345.08">Name</text><line style="stroke:#181818;stroke-width:0.5;" x1="587" x2="743" y1="355.5" y2="355.5"/><line style="stroke:#181818;stroke-width:0.5;" x1="587" x2="743" y1="363.5" y2="363.5"/></g><!--class RoleAssignment--><g id="elem_RoleAssignment"><rect codeLine="8" fill="#F1F1F1" height="77" id="RoleAssignment" rx="2.5" ry="2.5" style="stroke:#181818;stroke-width:0.5;" width="178" x="24" y="582"/><ellipse cx="40" cy="612.5" fill="#8DC8F6" rx="12" ry="12" style="stroke:#181818;stroke-width:1.0;"/><path d="M38.4531,613.3594 L40,613.3594 L40,613.4219 C40,613.9062 40.0156,614.0781 40.1406,614.2656 C40.3438,614.5625 40.7031,614.7656 41.0625,614.7656 C41.4063,614.7656 41.7344,614.5937 41.9375,614.3437 C42.0938,614.125 42.1406,613.9531 42.1406,613.4219 L42.1406,611.2656 C42.1406,610.8594 42.125,610.7344 42.0625,610.5469 C41.9219,610.1875 41.5,609.9062 41.0625,609.9062 C40.7188,609.9062 40.4063,610.0625 40.2031,610.3125 C40.0469,610.5469 40,610.7344 40,611.2656 L40,611.3125 L38.4531,611.3125 L38.4531,608.7812 L42.9844,608.7812 L42.9844,609.6562 C42.9844,610.125 43.0156,610.3437 43.1406,610.5156 C43.3438,610.8125 43.7031,611.0156 44.0625,611.0156 C44.4063,611.0156 44.7188,610.8594 44.9375,610.5937 C45.0938,610.375 45.1406,610.2031 45.1406,609.6562 L45.1406,606.7187 L36.0781,606.7187 C35.5469,606.7187 35.4063,606.7344 35.2031,606.8594 C34.875,607.0625 34.6875,607.375 34.6875,607.7344 C34.6875,608.0781 34.8438,608.375 35.125,608.5781 C35.3438,608.7344 35.5625,608.7812 36.0781,608.7812 L36.2969,608.7812 L36.2969,615.9375 L36.0781,615.9375 C35.5781,615.9375 35.4063,615.9844 35.2031,616.0781 C34.875,616.2812 34.6875,616.5937 34.6875,616.9531 C34.6875,617.6406 35.1563,618 36.0781,618 L45.5781,618 L45.5781,615.0156 C45.5781,614.5469 45.5469,614.3437 45.4219,614.1562 C45.2188,613.8437 44.875,613.6562 44.5,613.6562 C44.1563,613.6562 43.8438,613.8125 43.625,614.0781 C43.4531,614.2969 43.4219,614.4844 43.4219,615.0156 L43.4219,615.9375 L38.4531,615.9375 L38.4531,613.3594 Z " fill="#000000"/><text fill="#000000" font-family="sans-serif" font-size="20" font-style="italic" lengthAdjust="spacing" textLength="70" x="92" y="609">«entity»</text><text fill="#000000" font-family="sans-serif" font-size="20" lengthAdjust="spacing" textLength="144" x="55" y="632.58">RoleAssignment</text><line style="stroke:#181818;stroke-width:0.5;" x1="25" x2="201" y1="643" y2="643"/><line style="stroke:#181818;stroke-width:0.5;" x1="25" x2="201" y1="651" y2="651"/></g><!--class Role--><g id="elem_Role"><rect codeLine="9" fill="#F1F1F1" height="77" id="Role" rx="2.5" ry="2.5" style="stroke:#181818;stroke-width:0.5;" width="158" x="34" y="719"/><ellipse cx="50" cy="749.5" fill="#FF8B40" rx="12" ry="12" style="stroke:#181818;stroke-width:1.0;"/><path d="M50.0625,753.4844 L47.2969,747.2812 L47.5625,747.2812 C48.0625,747.2812 48.2656,747.2656 48.4375,747.1406 C48.7656,746.9531 48.9531,746.5937 48.9531,746.2656 C48.9531,745.9219 48.7969,745.625 48.5156,745.4219 C48.3125,745.2656 48.0781,745.2187 47.5625,745.2187 L44.9063,745.2187 C44.4063,745.2187 44.2188,745.2656 44.0156,745.3594 C43.7031,745.5625 43.5,745.9062 43.5,746.2656 C43.5,746.5781 43.6563,746.9062 43.9375,747.0937 C44.1563,747.2344 44.3594,747.2812 44.875,747.2812 L48.9375,756.5 L51,756.5 L55.0938,747.2812 C55.5,747.2812 55.6406,747.2812 55.8125,747.2187 C56.2188,747.0781 56.5,746.6875 56.5,746.2656 C56.5,745.9219 56.3438,745.625 56.0625,745.4219 C55.8594,745.2656 55.625,745.2187 55.0938,745.2187 L52.4531,745.2187 C51.9531,745.2187 51.7656,745.2656 51.5781,745.3594 C51.2656,745.5625 51.0625,745.9062 51.0625,746.2656 C51.0625,746.5781 51.2188,746.9062 51.5,747.0937 C51.7188,747.2656 51.9219,747.2812 52.4531,747.2812 L52.8125,747.2812 L50.0625,753.4844 Z " fill="#000000"/><text fill="#000000" font-family="sans-serif" font-size="20" font-style="italic" lengthAdjust="spacing" textLength="128" x="63" y="746">«value object»</text><text fill="#000000" font-family="sans-serif" font-size="20" lengthAdjust="spacing" textLength="40" x="107" y="769.58">Role</text><line style="stroke:#181818;stroke-width:0.5;" x1="35" x2="191" y1="780" y2="780"/><line style="stroke:#181818;stroke-width:0.5;" x1="35" x2="191" y1="788" y2="788"/></g><!--class PasswordPolicy--><g id="elem_PasswordPolicy"><rect codeLine="10" fill="#F1F1F1" height="77" id="PasswordPolicy" rx="2.5" ry="2.5" style="stroke:#181818;stroke-width:0.5;" width="173" x="298.5" y="445"/><ellipse cx="314.5" cy="475.5" fill="#ADD1B2" rx="12" ry="12" style="stroke:#181818;stroke-width:1.0;"/><path d="M308.5781,477.1875 C308.5781,480.125 311.0938,482.2656 314.5469,482.2656 C316,482.2656 317.375,481.9062 318.2656,481.2969 C318.9844,480.7969 319.3594,480.2969 319.3594,479.8437 C319.3594,479.2812 318.8594,478.7969 318.2813,478.7969 C318,478.7969 317.7344,478.9062 317.5,479.1406 C316.9844,479.6406 316.9844,479.6406 316.7813,479.7656 C316.2656,480.0469 315.5,480.2031 314.5938,480.2031 C312.2344,480.2031 310.7344,479 310.7344,477.1406 L310.7344,475.9219 C310.7344,473.9219 312.1875,472.5 314.1875,472.5 C314.8594,472.5 315.5469,472.6562 316.0781,472.9531 C316.6406,473.2656 316.8438,473.4844 316.9219,473.9219 C317.0625,474.7031 317.3594,475 317.9844,475 C318.3125,475 318.6406,474.8437 318.8594,474.5781 C319.0156,474.375 319.0625,474.1562 319.0625,473.6562 L319.0625,472.0625 C319.0625,471.5625 319.0469,471.4062 318.9063,471.2031 C318.7031,470.9062 318.3594,470.7187 317.9844,470.7187 C317.625,470.7187 317.375,470.8437 317.125,471.1562 C315.7344,470.5625 315.2188,470.4375 314.0938,470.4375 C310.9531,470.4375 308.5781,472.7969 308.5781,475.9062 L308.5781,477.1875 Z " fill="#000000"/><text fill="#000000" font-family="sans-serif" font-size="20" font-style="italic" lengthAdjust="spacing" textLength="85" x="356.5" y="472">«service»</text><text fill="#000000" font-family="sans-serif" font-size="20" lengthAdjust="spacing" textLength="139" x="329.5" y="495.58">PasswordPolicy</text><line style="stroke:#181818;stroke-width:0.5;" x1="299.5" x2="470.5" y1="506" y2="506"/><line style="stroke:#181818;stroke-width:0.5;" x1="299.5" x2="470.5" y1="514" y2="514"/></g><!--class Set--><g id="elem_Set"><rect codeLine="11" fill="#F1F1F1" height="53" id="Set" rx="2.5" ry="2.5" style="stroke:#181818;stroke-width:0.5;" width="212" x="7" y="457"/><ellipse cx="23" cy="475.5" fill="#B4A7E5" rx="12" ry="12" style="stroke:#181818;stroke-width:1.0;"/><path d="M24.0781,471.7812 L26.0156,471.7812 C26.4844,471.7812 26.7188,471.7344 26.9063,471.6406 C27.2188,471.4375 27.4219,471.0937 27.4219,470.7344 C27.4219,470.4219 27.2656,470.125 26.9844,469.9219 C26.7656,469.7656 26.5781,469.7187 26.0156,469.7187 L19.9844,469.7187 C19.4531,469.7187 19.2969,469.7344 19.0938,469.8594 C18.7813,470.0625 18.5781,470.4062 18.5781,470.7344 C18.5781,471.0781 18.7344,471.4062 19.0156,471.5781 C19.2344,471.7344 19.4531,471.7812 19.9844,471.7812 L21.9219,471.7812 L21.9219,478.9375 L19.9844,478.9375 C19.4531,478.9375 19.2969,478.9531 19.0938,479.0781 C18.7813,479.2812 18.5781,479.625 18.5781,479.9531 C18.5781,480.6562 19.0625,481 19.9844,481 L26.0156,481 C26.9375,481 27.4219,480.6562 27.4219,479.9531 C27.4219,479.6406 27.2656,479.3437 26.9844,479.1406 C26.7656,478.9844 26.5625,478.9375 26.0156,478.9375 L24.0781,478.9375 L24.0781,471.7812 Z " fill="#000000"/><text fill="#000000" font-family="sans-serif" font-size="20" font-style="italic" lengthAdjust="spacing" textLength="30" x="38" y="484">Set</text><rect fill="#FFFFFF" height="29" style="stroke:#181818;stroke-width:1.0;stroke-dasharray:2.0,2.0;" width="146" x="76" y="454"/><text fill="#000000" font-family="sans-serif" font-size="20" font-style="italic" lengthAdjust="spacing" textLength="144" x="77" y="477">RoleAssignment</text><line style="stroke:#181818;stroke-width:0.5;" x1="8" x2="218" y1="494" y2="494"/><line style="stroke:#181818;stroke-width:0.5;" x1="8" x2="218" y1="502" y2="502"/></g><!--class SimplePasswordEncoder--><g id="elem_SimplePasswordEncoder"><rect codeLine="13" fill="#F1F1F1" height="77" id="SimplePasswordEncoder" rx="2.5" ry="2.5" style="stroke:#181818;stroke-width:0.5;" width="255" x="356.5" y="582"/><ellipse cx="372.5" cy="612.5" fill="#ADD1B2" rx="12" ry="12" style="stroke:#181818;stroke-width:1.0;"/><path d="M366.5781,614.1875 C366.5781,617.125 369.0938,619.2656 372.5469,619.2656 C374,619.2656 375.375,618.9062 376.2656,618.2969 C376.9844,617.7969 377.3594,617.2969 377.3594,616.8437 C377.3594,616.2812 376.8594,615.7969 376.2813,615.7969 C376,615.7969 375.7344,615.9062 375.5,616.1406 C374.9844,616.6406 374.9844,616.6406 374.7813,616.7656 C374.2656,617.0469 373.5,617.2031 372.5938,617.2031 C370.2344,617.2031 368.7344,616 368.7344,614.1406 L368.7344,612.9219 C368.7344,610.9219 370.1875,609.5 372.1875,609.5 C372.8594,609.5 373.5469,609.6562 374.0781,609.9531 C374.6406,610.2656 374.8438,610.4844 374.9219,610.9219 C375.0625,611.7031 375.3594,612 375.9844,612 C376.3125,612 376.6406,611.8437 376.8594,611.5781 C377.0156,611.375 377.0625,611.1562 377.0625,610.6562 L377.0625,609.0625 C377.0625,608.5625 377.0469,608.4062 376.9063,608.2031 C376.7031,607.9062 376.3594,607.7187 375.9844,607.7187 C375.625,607.7187 375.375,607.8437 375.125,608.1562 C373.7344,607.5625 373.2188,607.4375 372.0938,607.4375 C368.9531,607.4375 366.5781,609.7969 366.5781,612.9062 L366.5781,614.1875 Z " fill="#000000"/><text fill="#000000" font-family="sans-serif" font-size="20" font-style="italic" lengthAdjust="spacing" textLength="85" x="455.5" y="609">«service»</text><text fill="#000000" font-family="sans-serif" font-size="20" lengthAdjust="spacing" textLength="221" x="387.5" y="632.58">SimplePasswordEncoder</text><line style="stroke:#181818;stroke-width:0.5;" x1="357.5" x2="610.5" y1="643" y2="643"/><line style="stroke:#181818;stroke-width:0.5;" x1="357.5" x2="610.5" y1="651" y2="651"/></g><!--class PasswordHashEncoder--><g id="elem_PasswordHashEncoder"><rect codeLine="14" fill="#F1F1F1" height="77" id="PasswordHashEncoder" rx="2.5" ry="2.5" style="stroke:#181818;stroke-width:0.5;" width="241" x="646.5" y="582"/><ellipse cx="662.5" cy="612.5" fill="#ADD1B2" rx="12" ry="12" style="stroke:#181818;stroke-width:1.0;"/><path d="M656.5781,614.1875 C656.5781,617.125 659.0938,619.2656 662.5469,619.2656 C664,619.2656 665.375,618.9062 666.2656,618.2969 C666.9844,617.7969 667.3594,617.2969 667.3594,616.8437 C667.3594,616.2812 666.8594,615.7969 666.2813,615.7969 C666,615.7969 665.7344,615.9062 665.5,616.1406 C664.9844,616.6406 664.9844,616.6406 664.7813,616.7656 C664.2656,617.0469 663.5,617.2031 662.5938,617.2031 C660.2344,617.2031 658.7344,616 658.7344,614.1406 L658.7344,612.9219 C658.7344,610.9219 660.1875,609.5 662.1875,609.5 C662.8594,609.5 663.5469,609.6562 664.0781,609.9531 C664.6406,610.2656 664.8438,610.4844 664.9219,610.9219 C665.0625,611.7031 665.3594,612 665.9844,612 C666.3125,612 666.6406,611.8437 666.8594,611.5781 C667.0156,611.375 667.0625,611.1562 667.0625,610.6562 L667.0625,609.0625 C667.0625,608.5625 667.0469,608.4062 666.9063,608.2031 C666.7031,607.9062 666.3594,607.7187 665.9844,607.7187 C665.625,607.7187 665.375,607.8437 665.125,608.1562 C663.7344,607.5625 663.2188,607.4375 662.0938,607.4375 C658.9531,607.4375 656.5781,609.7969 656.5781,612.9062 L656.5781,614.1875 Z " fill="#000000"/><text fill="#000000" font-family="sans-serif" font-size="20" font-style="italic" lengthAdjust="spacing" textLength="85" x="738.5" y="609">«service»</text><text fill="#000000" font-family="sans-serif" font-size="20" lengthAdjust="spacing" textLength="207" x="677.5" y="632.58">PasswordHashEncoder</text><line style="stroke:#181818;stroke-width:0.5;" x1="647.5" x2="886.5" y1="643" y2="643"/><line style="stroke:#181818;stroke-width:0.5;" x1="647.5" x2="886.5" y1="651" y2="651"/></g><!--class PasswordEncoder--><g id="elem_PasswordEncoder"><rect codeLine="15" fill="#F1F1F1" height="53" id="PasswordEncoder" rx="2.5" ry="2.5" style="stroke:#181818;stroke-width:0.5;" width="195" x="506.5" y="457"/><ellipse cx="522.5" cy="475.5" fill="#B4A7E5" rx="12" ry="12" style="stroke:#181818;stroke-width:1.0;"/><path d="M523.5781,471.7812 L525.5156,471.7812 C525.9844,471.7812 526.2188,471.7344 526.4063,471.6406 C526.7188,471.4375 526.9219,471.0937 526.9219,470.7344 C526.9219,470.4219 526.7656,470.125 526.4844,469.9219 C526.2656,469.7656 526.0781,469.7187 525.5156,469.7187 L519.4844,469.7187 C518.9531,469.7187 518.7969,469.7344 518.5938,469.8594 C518.2813,470.0625 518.0781,470.4062 518.0781,470.7344 C518.0781,471.0781 518.2344,471.4062 518.5156,471.5781 C518.7344,471.7344 518.9531,471.7812 519.4844,471.7812 L521.4219,471.7812 L521.4219,478.9375 L519.4844,478.9375 C518.9531,478.9375 518.7969,478.9531 518.5938,479.0781 C518.2813,479.2812 518.0781,479.625 518.0781,479.9531 C518.0781,480.6562 518.5625,481 519.4844,481 L525.5156,481 C526.4375,481 526.9219,480.6562 526.9219,479.9531 C526.9219,479.6406 526.7656,479.3437 526.4844,479.1406 C526.2656,478.9844 526.0625,478.9375 525.5156,478.9375 L523.5781,478.9375 L523.5781,471.7812 Z " fill="#000000"/><text fill="#000000" font-family="sans-serif" font-size="20" font-style="italic" lengthAdjust="spacing" textLength="161" x="537.5" y="484">PasswordEncoder</text><line style="stroke:#181818;stroke-width:0.5;" x1="507.5" x2="700.5" y1="494" y2="494"/><line style="stroke:#181818;stroke-width:0.5;" x1="507.5" x2="700.5" y1="502" y2="502"/></g><!--link SystemUserBuilder to SystemUser--><g id="link_SystemUserBuilder_SystemUser"><path codeLine="17" d="M375,57.45 C375,72.39 375,92.16 375,110.85 " fill="none" id="SystemUserBuilder-to-SystemUser" style="stroke:#181818;stroke-width:1.0;stroke-dasharray:7.0,7.0;"/><polygon fill="#181818" points="375,115.61,379,106.61,375,110.61,371,106.61,375,115.61" style="stroke:#181818;stroke-width:1.0;"/></g><!--link SystemUser to RoleSet--><g id="link_SystemUser_RoleSet"><path codeLine="19" d="M303.25,208.69 C266.4,229.2 221.14,255.4 182,281 C171.08,288.14 159.56,296.37 149.12,304.1 " fill="none" id="SystemUser-to-RoleSet" style="stroke:#181818;stroke-width:1.0;"/><polygon fill="#181818" points="145.41,307.61,155.015,305.432,149.4169,304.6192,150.2297,299.021,145.41,307.61" style="stroke:#181818;stroke-width:1.0;"/></g><!--link SystemUser to Username--><g id="link_SystemUser_Username"><path codeLine="20" d="M344.62,221.26 C334.38,238.54 322.9,257.93 312.43,275.59 " fill="none" id="SystemUser-to-Username" style="stroke:#181818;stroke-width:1.0;"/><polygon fill="#181818" points="309.51,279.52,317.5342,273.8093,312.0551,275.2162,310.6481,269.7371,309.51,279.52" style="stroke:#181818;stroke-width:1.0;"/></g><!--link SystemUser to Password--><g id="link_SystemUser_Password"><path codeLine="21" d="M405.69,221.26 C418.79,243.14 433.91,268.39 446.4,289.24 " fill="none" id="SystemUser-to-Password" style="stroke:#181818;stroke-width:1.0;"/><polygon fill="#181818" points="449.35,293.17,448.1495,283.3946,446.7775,288.8825,441.2896,287.5105,449.35,293.17" style="stroke:#181818;stroke-width:1.0;"/></g><!--link SystemUser to Name--><g id="link_SystemUser_Name"><path codeLine="22" d="M446.69,210.04 C490.94,234.77 547.55,266.39 592.04,291.24 " fill="none" id="SystemUser-to-Name" style="stroke:#181818;stroke-width:1.0;"/><polygon fill="#181818" points="596.13,294.09,590.2358,286.1996,591.7687,291.6448,586.3235,293.1777,596.13,294.09" style="stroke:#181818;stroke-width:1.0;"/></g><!--link Password to PasswordEncoder--><g id="link_Password_PasswordEncoder"><path codeLine="24" d="M505.65,371.86 C527.94,396.93 556.77,429.37 577.45,452.63 " fill="none" id="Password-to-PasswordEncoder" style="stroke:#181818;stroke-width:1.0;stroke-dasharray:7.0,7.0;"/><polygon fill="#181818" points="580.21,455.86,577.2181,446.4766,576.8873,452.1237,571.2401,451.7929,580.21,455.86" style="stroke:#181818;stroke-width:1.0;"/></g><!--link Password to PasswordPolicy--><g id="link_Password_PasswordPolicy"><path codeLine="25" d="M449.82,371.86 C437.7,392.54 422.65,418.23 410.11,439.65 " fill="none" id="Password-to-PasswordPolicy" style="stroke:#181818;stroke-width:1.0;stroke-dasharray:7.0,7.0;"/><polygon fill="#181818" points="407.14,443.71,415.1418,437.9679,409.6682,439.3963,408.2399,433.9227,407.14,443.71" style="stroke:#181818;stroke-width:1.0;"/></g><!--reverse link PasswordEncoder to SimplePasswordEncoder--><g id="link_PasswordEncoder_SimplePasswordEncoder"><path codeLine="27" d="M567.23,525.86 C551.44,543.63 533.1,564.26 517.66,581.63 " fill="none" id="PasswordEncoder-backto-SimplePasswordEncoder" style="stroke:#181818;stroke-width:1.0;"/><polygon fill="none" points="561.63,521.51,580.15,511.21,572.09,530.81,561.63,521.51" style="stroke:#181818;stroke-width:1.0;"/></g><!--reverse link PasswordEncoder to PasswordHashEncoder--><g id="link_PasswordEncoder_PasswordHashEncoder"><path codeLine="28" d="M650.99,523.42 C673.09,541.72 699.34,563.46 721.28,581.63 " fill="none" id="PasswordEncoder-backto-PasswordHashEncoder" style="stroke:#181818;stroke-width:1.0;"/><polygon fill="none" points="646.98,528.36,636.04,510.21,655.91,517.58,646.98,528.36" style="stroke:#181818;stroke-width:1.0;"/></g><!--link RoleSet to Set--><g id="link_RoleSet_Set"><path codeLine="30" d="M113,358.19 C113,379.1 113,409.93 113,435.66 " fill="none" id="RoleSet-to-Set" style="stroke:#181818;stroke-width:1.0;stroke-dasharray:7.0,7.0;"/><polygon fill="none" points="120,435.57,113,455.57,106,435.57,120,435.57" style="stroke:#181818;stroke-width:1.0;"/></g><!--link Set to RoleAssignment--><g id="link_Set_RoleAssignment"><path codeLine="32" d="M113,510.21 C113,528.67 113,554.01 113,575.64 " fill="none" id="Set-to-RoleAssignment" style="stroke:#181818;stroke-width:1.0;stroke-dasharray:7.0,7.0;"/><polygon fill="#181818" points="113,580.63,117,571.63,113,575.63,109,571.63,113,580.63" style="stroke:#181818;stroke-width:1.0;"/></g><!--link RoleAssignment to Role--><g id="link_RoleAssignment_Role"><path codeLine="34" d="M113,659.46 C113,676.14 113,695.81 113,713.07 " fill="none" id="RoleAssignment-to-Role" style="stroke:#181818;stroke-width:1.0;"/><polygon fill="#181818" points="113,717.82,117,708.82,113,712.82,109,708.82,113,717.82" style="stroke:#181818;stroke-width:1.0;"/></g><!--SRC=[ZL9DIyGm4BtdLmJsuiAsB2BIGocuiCMJB1QznsIgSTDaQTALwlhVJLhIh-sgbvBEl7blPjxeFPS7Kf92ABe7XXdaf18cLT9a_1FmzHeXAeZMEAkrWU99Gxcfk61Gugzl1D9mKmzoE8wljgj5n6YKtovncqyI6owLClPXYrg-HoKW0zC7NBaa1JYAvzKYJQFDpNg9ZqHKWDNBEr3J474sfDdPpuSgsUzL7VpXJu5-AjVXdTRyLHOsSccoqK3_xC8tlLE2qzeMsT6Fd4ABuT90cHCAsEqd7hVH8Bmbl3W8y6HRIHLh71YnZHNlYNwx0EnbfunEyTp-C4m6nWyHE0WIx-yqx5sUnhtcDEuCGwXpsObEsfjFjgljAxkXJq4mlxXvwCpY4FAt6uQdn9baXs_-aidDjCZ13Vd5e1y0]--></g></svg>