<?xml version="1.0" encoding="UTF-8" standalone="no"?><svg xmlns="http://www.w3.org/2000/svg" xmlns:xlink="http://www.w3.org/1999/xlink" contentStyleType="text/css" height="901px" preserveAspectRatio="none" style="width:1555px;height:901px;background:#FFFFFF;" version="1.1" viewBox="0 0 1555 901" width="1555px" zoomAndPan="magnify"><defs/><g><!--MD5=[e5942c3e84c18692daf2f68335af3c2a]
class ListCourseService--><g id="elem_ListCourseService"><rect codeLine="2" fill="#F1F1F1" height="113.1875" id="ListCourseService" rx="2.5" ry="2.5" style="stroke:#181818;stroke-width:0.5;" width="332" x="215.5" y="386.5"/><ellipse cx="315.75" cy="402.5" fill="#ADD1B2" rx="11" ry="11" style="stroke:#181818;stroke-width:1.0;"/><path d="M318.7188,408.1406 Q318.1406,408.4375 317.5,408.5781 Q316.8594,408.7344 316.1563,408.7344 Q313.6563,408.7344 312.3281,407.0938 Q311.0156,405.4375 311.0156,402.3125 Q311.0156,399.1875 312.3281,397.5313 Q313.6563,395.875 316.1563,395.875 Q316.8594,395.875 317.5,396.0313 Q318.1563,396.1875 318.7188,396.4844 L318.7188,399.2031 Q318.0938,398.625 317.5,398.3594 Q316.9063,398.0781 316.2813,398.0781 Q314.9375,398.0781 314.25,399.1563 Q313.5625,400.2188 313.5625,402.3125 Q313.5625,404.4063 314.25,405.4844 Q314.9375,406.5469 316.2813,406.5469 Q316.9063,406.5469 317.5,406.2813 Q318.0938,406 318.7188,405.4219 L318.7188,408.1406 Z " fill="#000000"/><text fill="#000000" font-family="sans-serif" font-size="14" lengthAdjust="spacing" textLength="123" x="336.25" y="407.3467">ListCourseService</text><line style="stroke:#181818;stroke-width:0.5;" x1="216.5" x2="546.5" y1="418.5" y2="418.5"/><rect fill="none" height="6" style="stroke:#C82930;stroke-width:1.0;" width="6" x="223.5" y="429.1484"/><text fill="#000000" font-family="sans-serif" font-size="14" lengthAdjust="spacing" textLength="122" x="235.5" y="435.4951">courseRepository</text><line style="stroke:#181818;stroke-width:0.5;" x1="216.5" x2="546.5" y1="442.7969" y2="442.7969"/><ellipse cx="226.5" cy="456.4453" fill="#84BE84" rx="3" ry="3" style="stroke:#038048;stroke-width:1.0;"/><text fill="#000000" font-family="sans-serif" font-size="14" lengthAdjust="spacing" textLength="255" x="235.5" y="459.792">ListCourseService(courseRepository)</text><text fill="#000000" font-family="sans-serif" font-size="14" lengthAdjust="spacing" textLength="4" x="235.5" y="476.0889"> </text><ellipse cx="226.5" cy="489.0391" fill="#84BE84" rx="3" ry="3" style="stroke:#038048;stroke-width:1.0;"/><text fill="#000000" font-family="sans-serif" font-size="14" lengthAdjust="spacing" textLength="306" x="235.5" y="492.3857">listAllInProgressLecturedByTeacher(teacher)</text></g><!--MD5=[e41f2fa285c73be844df36a22ead911b]
class EnrolmentListService--><g id="elem_EnrolmentListService"><rect codeLine="10" fill="#F1F1F1" height="113.1875" id="EnrolmentListService" rx="2.5" ry="2.5" style="stroke:#181818;stroke-width:0.5;" width="325" x="583" y="386.5"/><ellipse cx="669.25" cy="402.5" fill="#ADD1B2" rx="11" ry="11" style="stroke:#181818;stroke-width:1.0;"/><path d="M672.2188,408.1406 Q671.6406,408.4375 671,408.5781 Q670.3594,408.7344 669.6563,408.7344 Q667.1563,408.7344 665.8281,407.0938 Q664.5156,405.4375 664.5156,402.3125 Q664.5156,399.1875 665.8281,397.5313 Q667.1563,395.875 669.6563,395.875 Q670.3594,395.875 671,396.0313 Q671.6563,396.1875 672.2188,396.4844 L672.2188,399.2031 Q671.5938,398.625 671,398.3594 Q670.4063,398.0781 669.7813,398.0781 Q668.4375,398.0781 667.75,399.1563 Q667.0625,400.2188 667.0625,402.3125 Q667.0625,404.4063 667.75,405.4844 Q668.4375,406.5469 669.7813,406.5469 Q670.4063,406.5469 671,406.2813 Q671.5938,406 672.2188,405.4219 L672.2188,408.1406 Z " fill="#000000"/><text fill="#000000" font-family="sans-serif" font-size="14" lengthAdjust="spacing" textLength="144" x="689.75" y="407.3467">EnrolmentListService</text><line style="stroke:#181818;stroke-width:0.5;" x1="584" x2="907" y1="418.5" y2="418.5"/><rect fill="none" height="6" style="stroke:#C82930;stroke-width:1.0;" width="6" x="591" y="429.1484"/><text fill="#000000" font-family="sans-serif" font-size="14" lengthAdjust="spacing" textLength="145" x="603" y="435.4951">enrolmentRepository</text><line style="stroke:#181818;stroke-width:0.5;" x1="584" x2="907" y1="442.7969" y2="442.7969"/><ellipse cx="594" cy="456.4453" fill="#84BE84" rx="3" ry="3" style="stroke:#038048;stroke-width:1.0;"/><text fill="#000000" font-family="sans-serif" font-size="14" lengthAdjust="spacing" textLength="299" x="603" y="459.792">EnrolmentListService(enrolmentRepository)</text><text fill="#000000" font-family="sans-serif" font-size="14" lengthAdjust="spacing" textLength="4" x="603" y="476.0889"> </text><ellipse cx="594" cy="489.0391" fill="#84BE84" rx="3" ry="3" style="stroke:#038048;stroke-width:1.0;"/><text fill="#000000" font-family="sans-serif" font-size="14" lengthAdjust="spacing" textLength="196" x="603" y="492.3857">listStudentsEnrolled(course)</text></g><!--MD5=[6813669cbd1937ee2659daa5d8ffae6f]
class ScheduleExtraClassUI--><g id="elem_ScheduleExtraClassUI"><rect codeLine="18" fill="#F1F1F1" height="48" id="ScheduleExtraClassUI" rx="2.5" ry="2.5" style="stroke:#181818;stroke-width:0.5;" width="181" x="655" y="7"/><ellipse cx="670" cy="23" fill="#ADD1B2" rx="11" ry="11" style="stroke:#181818;stroke-width:1.0;"/><path d="M672.9688,28.6406 Q672.3906,28.9375 671.75,29.0781 Q671.1094,29.2344 670.4063,29.2344 Q667.9063,29.2344 666.5781,27.5938 Q665.2656,25.9375 665.2656,22.8125 Q665.2656,19.6875 666.5781,18.0313 Q667.9063,16.375 670.4063,16.375 Q671.1094,16.375 671.75,16.5313 Q672.4063,16.6875 672.9688,16.9844 L672.9688,19.7031 Q672.3438,19.125 671.75,18.8594 Q671.1563,18.5781 670.5313,18.5781 Q669.1875,18.5781 668.5,19.6563 Q667.8125,20.7188 667.8125,22.8125 Q667.8125,24.9063 668.5,25.9844 Q669.1875,27.0469 670.5313,27.0469 Q671.1563,27.0469 671.75,26.7813 Q672.3438,26.5 672.9688,25.9219 L672.9688,28.6406 Z " fill="#000000"/><text fill="#000000" font-family="sans-serif" font-size="14" lengthAdjust="spacing" textLength="149" x="684" y="27.8467">ScheduleExtraClassUI</text><line style="stroke:#181818;stroke-width:0.5;" x1="656" x2="835" y1="39" y2="39"/><line style="stroke:#181818;stroke-width:0.5;" x1="656" x2="835" y1="47" y2="47"/></g><!--MD5=[cbbcf075cdebf486233556d8995d0760]
class ScheduleExtraClassController--><g id="elem_ScheduleExtraClassController"><rect codeLine="20" fill="#F1F1F1" height="194.6719" id="ScheduleExtraClassController" rx="2.5" ry="2.5" style="stroke:#181818;stroke-width:0.5;" width="514" x="488.5" y="115"/><ellipse cx="639.75" cy="131" fill="#ADD1B2" rx="11" ry="11" style="stroke:#181818;stroke-width:1.0;"/><path d="M642.7188,136.6406 Q642.1406,136.9375 641.5,137.0781 Q640.8594,137.2344 640.1563,137.2344 Q637.6563,137.2344 636.3281,135.5938 Q635.0156,133.9375 635.0156,130.8125 Q635.0156,127.6875 636.3281,126.0313 Q637.6563,124.375 640.1563,124.375 Q640.8594,124.375 641.5,124.5313 Q642.1563,124.6875 642.7188,124.9844 L642.7188,127.7031 Q642.0938,127.125 641.5,126.8594 Q640.9063,126.5781 640.2813,126.5781 Q638.9375,126.5781 638.25,127.6563 Q637.5625,128.7188 637.5625,130.8125 Q637.5625,132.9063 638.25,133.9844 Q638.9375,135.0469 640.2813,135.0469 Q640.9063,135.0469 641.5,134.7813 Q642.0938,134.5 642.7188,133.9219 L642.7188,136.6406 Z " fill="#000000"/><text fill="#000000" font-family="sans-serif" font-size="14" lengthAdjust="spacing" textLength="203" x="660.25" y="135.8467">ScheduleExtraClassController</text><line style="stroke:#181818;stroke-width:0.5;" x1="489.5" x2="1001.5" y1="147" y2="147"/><rect fill="none" height="6" style="stroke:#C82930;stroke-width:1.0;" width="6" x="496.5" y="157.6484"/><text fill="#000000" font-family="sans-serif" font-size="14" lengthAdjust="spacing" textLength="122" x="508.5" y="163.9951">courseRepository</text><rect fill="none" height="6" style="stroke:#C82930;stroke-width:1.0;" width="6" x="496.5" y="173.9453"/><text fill="#000000" font-family="sans-serif" font-size="14" lengthAdjust="spacing" textLength="145" x="508.5" y="180.292">enrolmentRepository</text><rect fill="none" height="6" style="stroke:#C82930;stroke-width:1.0;" width="6" x="496.5" y="190.2422"/><text fill="#000000" font-family="sans-serif" font-size="14" lengthAdjust="spacing" textLength="144" x="508.5" y="196.5889">ListEnrolmentService</text><rect fill="none" height="6" style="stroke:#C82930;stroke-width:1.0;" width="6" x="496.5" y="206.5391"/><text fill="#000000" font-family="sans-serif" font-size="14" lengthAdjust="spacing" textLength="123" x="508.5" y="212.8857">ListCourseService</text><line style="stroke:#181818;stroke-width:0.5;" x1="489.5" x2="1001.5" y1="220.1875" y2="220.1875"/><ellipse cx="499.5" cy="233.8359" fill="#84BE84" rx="3" ry="3" style="stroke:#038048;stroke-width:1.0;"/><text fill="#000000" font-family="sans-serif" font-size="14" lengthAdjust="spacing" textLength="488" x="508.5" y="237.1826">ScheduleExtraClassController(courseRepository, enrolmentRepository)</text><text fill="#000000" font-family="sans-serif" font-size="14" lengthAdjust="spacing" textLength="4" x="508.5" y="253.4795"> </text><ellipse cx="499.5" cy="266.4297" fill="#84BE84" rx="3" ry="3" style="stroke:#038048;stroke-width:1.0;"/><text fill="#000000" font-family="sans-serif" font-size="14" lengthAdjust="spacing" textLength="306" x="508.5" y="269.7764">listAllInProgressLecturedByTeacher(teacher)</text><ellipse cx="499.5" cy="282.7266" fill="#84BE84" rx="3" ry="3" style="stroke:#038048;stroke-width:1.0;"/><text fill="#000000" font-family="sans-serif" font-size="14" lengthAdjust="spacing" textLength="196" x="508.5" y="286.0732">listStudentsEnrolled(course)</text><ellipse cx="499.5" cy="299.0234" fill="#84BE84" rx="3" ry="3" style="stroke:#038048;stroke-width:1.0;"/><text fill="#000000" font-family="sans-serif" font-size="14" lengthAdjust="spacing" textLength="408" x="508.5" y="302.3701">createExtraClass(course, teacher, date, duration, students)</text></g><!--MD5=[4066b0363c5a91ff3b6e03e0428953a9]
class Course--><g id="elem_Course"><rect codeLine="33" fill="#F1F1F1" height="178.375" id="Course" rx="2.5" ry="2.5" style="stroke:#181818;stroke-width:0.5;" width="181" x="257" y="576"/><ellipse cx="318.25" cy="592" fill="#ADD1B2" rx="11" ry="11" style="stroke:#181818;stroke-width:1.0;"/><path d="M321.2188,597.6406 Q320.6406,597.9375 320,598.0781 Q319.3594,598.2344 318.6563,598.2344 Q316.1563,598.2344 314.8281,596.5938 Q313.5156,594.9375 313.5156,591.8125 Q313.5156,588.6875 314.8281,587.0313 Q316.1563,585.375 318.6563,585.375 Q319.3594,585.375 320,585.5313 Q320.6563,585.6875 321.2188,585.9844 L321.2188,588.7031 Q320.5938,588.125 320,587.8594 Q319.4063,587.5781 318.7813,587.5781 Q317.4375,587.5781 316.75,588.6563 Q316.0625,589.7188 316.0625,591.8125 Q316.0625,593.9063 316.75,594.9844 Q317.4375,596.0469 318.7813,596.0469 Q319.4063,596.0469 320,595.7813 Q320.5938,595.5 321.2188,594.9219 L321.2188,597.6406 Z " fill="#000000"/><text fill="#000000" font-family="sans-serif" font-size="14" lengthAdjust="spacing" textLength="50" x="338.75" y="596.8467">Course</text><line style="stroke:#181818;stroke-width:0.5;" x1="258" x2="437" y1="608" y2="608"/><rect fill="none" height="6" style="stroke:#C82930;stroke-width:1.0;" width="6" x="265" y="618.6484"/><text fill="#000000" font-family="sans-serif" font-size="14" lengthAdjust="spacing" textLength="35" x="277" y="624.9951">code</text><rect fill="none" height="6" style="stroke:#C82930;stroke-width:1.0;" width="6" x="265" y="634.9453"/><text fill="#000000" font-family="sans-serif" font-size="14" lengthAdjust="spacing" textLength="25" x="277" y="641.292">title</text><rect fill="none" height="6" style="stroke:#C82930;stroke-width:1.0;" width="6" x="265" y="651.2422"/><text fill="#000000" font-family="sans-serif" font-size="14" lengthAdjust="spacing" textLength="77" x="277" y="657.5889">description</text><rect fill="none" height="6" style="stroke:#C82930;stroke-width:1.0;" width="6" x="265" y="667.5391"/><text fill="#000000" font-family="sans-serif" font-size="14" lengthAdjust="spacing" textLength="110" x="277" y="673.8857">enrolmentLimits</text><rect fill="none" height="6" style="stroke:#C82930;stroke-width:1.0;" width="6" x="265" y="683.8359"/><text fill="#000000" font-family="sans-serif" font-size="14" lengthAdjust="spacing" textLength="84" x="277" y="690.1826">courseState</text><rect fill="none" height="6" style="stroke:#C82930;stroke-width:1.0;" width="6" x="265" y="700.1328"/><text fill="#000000" font-family="sans-serif" font-size="14" lengthAdjust="spacing" textLength="155" x="277" y="706.4795">courseEnrolmentState</text><rect fill="none" height="6" style="stroke:#C82930;stroke-width:1.0;" width="6" x="265" y="716.4297"/><text fill="#000000" font-family="sans-serif" font-size="14" lengthAdjust="spacing" textLength="67" x="277" y="722.7764">createdAt</text><line style="stroke:#181818;stroke-width:0.5;" x1="258" x2="437" y1="730.0781" y2="730.0781"/><ellipse cx="268" cy="743.7266" fill="#84BE84" rx="3" ry="3" style="stroke:#038048;stroke-width:1.0;"/><text fill="#000000" font-family="sans-serif" font-size="14" lengthAdjust="spacing" textLength="49" x="277" y="747.0732">toDto()</text></g><!--MD5=[6b5c3630c6e2b4262a8aaefdeb845180]
class CourseEnrolmentState--><g id="elem_CourseEnrolmentState"><rect codeLine="45" fill="#F1F1F1" height="80.5938" id="CourseEnrolmentState" rx="2.5" ry="2.5" style="stroke:#181818;stroke-width:0.5;" width="189" x="253" y="814"/><ellipse cx="268" cy="830" fill="#EB937F" rx="11" ry="11" style="stroke:#181818;stroke-width:1.0;"/><path d="M272.1094,836 L264.3906,836 L264.3906,823.6094 L272.1094,823.6094 L272.1094,825.7656 L266.8438,825.7656 L266.8438,828.4375 L271.6094,828.4375 L271.6094,830.5938 L266.8438,830.5938 L266.8438,833.8438 L272.1094,833.8438 L272.1094,836 Z " fill="#000000"/><text fill="#000000" font-family="sans-serif" font-size="14" lengthAdjust="spacing" textLength="157" x="282" y="834.8467">CourseEnrolmentState</text><line style="stroke:#181818;stroke-width:0.5;" x1="254" x2="441" y1="846" y2="846"/><text fill="#000000" font-family="sans-serif" font-size="14" lengthAdjust="spacing" textLength="39" x="259" y="862.9951">OPEN</text><text fill="#000000" font-family="sans-serif" font-size="14" lengthAdjust="spacing" textLength="57" x="259" y="879.292">CLOSED</text><line style="stroke:#181818;stroke-width:0.5;" x1="254" x2="441" y1="886.5938" y2="886.5938"/></g><!--MD5=[d74fd75b95e222bb9d6c0f812d9345c2]
class CourseDTO--><g id="elem_CourseDTO"><rect codeLine="50" fill="#F1F1F1" height="162.0781" id="CourseDTO" rx="2.5" ry="2.5" style="stroke:#181818;stroke-width:0.5;" width="181" x="7" y="584"/><ellipse cx="52.75" cy="600" fill="#ADD1B2" rx="11" ry="11" style="stroke:#181818;stroke-width:1.0;"/><path d="M55.7188,605.6406 Q55.1406,605.9375 54.5,606.0781 Q53.8594,606.2344 53.1563,606.2344 Q50.6563,606.2344 49.3281,604.5938 Q48.0156,602.9375 48.0156,599.8125 Q48.0156,596.6875 49.3281,595.0313 Q50.6563,593.375 53.1563,593.375 Q53.8594,593.375 54.5,593.5313 Q55.1563,593.6875 55.7188,593.9844 L55.7188,596.7031 Q55.0938,596.125 54.5,595.8594 Q53.9063,595.5781 53.2813,595.5781 Q51.9375,595.5781 51.25,596.6563 Q50.5625,597.7188 50.5625,599.8125 Q50.5625,601.9063 51.25,602.9844 Q51.9375,604.0469 53.2813,604.0469 Q53.9063,604.0469 54.5,603.7813 Q55.0938,603.5 55.7188,602.9219 L55.7188,605.6406 Z " fill="#000000"/><text fill="#000000" font-family="sans-serif" font-size="14" lengthAdjust="spacing" textLength="81" x="73.25" y="604.8467">CourseDTO</text><line style="stroke:#181818;stroke-width:0.5;" x1="8" x2="187" y1="616" y2="616"/><rect fill="none" height="6" style="stroke:#C82930;stroke-width:1.0;" width="6" x="15" y="626.6484"/><text fill="#000000" font-family="sans-serif" font-size="14" lengthAdjust="spacing" textLength="35" x="27" y="632.9951">code</text><rect fill="none" height="6" style="stroke:#C82930;stroke-width:1.0;" width="6" x="15" y="642.9453"/><text fill="#000000" font-family="sans-serif" font-size="14" lengthAdjust="spacing" textLength="25" x="27" y="649.292">title</text><rect fill="none" height="6" style="stroke:#C82930;stroke-width:1.0;" width="6" x="15" y="659.2422"/><text fill="#000000" font-family="sans-serif" font-size="14" lengthAdjust="spacing" textLength="77" x="27" y="665.5889">description</text><rect fill="none" height="6" style="stroke:#C82930;stroke-width:1.0;" width="6" x="15" y="675.5391"/><text fill="#000000" font-family="sans-serif" font-size="14" lengthAdjust="spacing" textLength="110" x="27" y="681.8857">enrolmentLimits</text><rect fill="none" height="6" style="stroke:#C82930;stroke-width:1.0;" width="6" x="15" y="691.8359"/><text fill="#000000" font-family="sans-serif" font-size="14" lengthAdjust="spacing" textLength="84" x="27" y="698.1826">courseState</text><rect fill="none" height="6" style="stroke:#C82930;stroke-width:1.0;" width="6" x="15" y="708.1328"/><text fill="#000000" font-family="sans-serif" font-size="14" lengthAdjust="spacing" textLength="155" x="27" y="714.4795">courseEnrolmentState</text><rect fill="none" height="6" style="stroke:#C82930;stroke-width:1.0;" width="6" x="15" y="724.4297"/><text fill="#000000" font-family="sans-serif" font-size="14" lengthAdjust="spacing" textLength="67" x="27" y="730.7764">createdAt</text><line style="stroke:#181818;stroke-width:0.5;" x1="8" x2="187" y1="738.0781" y2="738.0781"/></g><!--MD5=[7ad6071581c8cd4b4dd2fedd61baf080]
class CourseDTOParser--><g id="elem_CourseDTOParser"><rect codeLine="60" fill="#F1F1F1" height="64.2969" id="CourseDTOParser" rx="2.5" ry="2.5" style="stroke:#181818;stroke-width:0.5;" width="166" x="14.5" y="411"/><ellipse cx="33.55" cy="427" fill="#ADD1B2" rx="11" ry="11" style="stroke:#181818;stroke-width:1.0;"/><path d="M36.5188,432.6406 Q35.9406,432.9375 35.3,433.0781 Q34.6594,433.2344 33.9563,433.2344 Q31.4562,433.2344 30.1281,431.5938 Q28.8156,429.9375 28.8156,426.8125 Q28.8156,423.6875 30.1281,422.0313 Q31.4562,420.375 33.9563,420.375 Q34.6594,420.375 35.3,420.5313 Q35.9563,420.6875 36.5188,420.9844 L36.5188,423.7031 Q35.8938,423.125 35.3,422.8594 Q34.7063,422.5781 34.0813,422.5781 Q32.7375,422.5781 32.05,423.6563 Q31.3625,424.7188 31.3625,426.8125 Q31.3625,428.9063 32.05,429.9844 Q32.7375,431.0469 34.0813,431.0469 Q34.7063,431.0469 35.3,430.7813 Q35.8938,430.5 36.5188,429.9219 L36.5188,432.6406 Z " fill="#000000"/><text fill="#000000" font-family="sans-serif" font-size="14" lengthAdjust="spacing" textLength="125" x="48.45" y="431.8467">CourseDTOParser</text><line style="stroke:#181818;stroke-width:0.5;" x1="15.5" x2="179.5" y1="443" y2="443"/><line style="stroke:#181818;stroke-width:0.5;" x1="15.5" x2="179.5" y1="451" y2="451"/><ellipse cx="25.5" cy="464.6484" fill="#84BE84" rx="3" ry="3" style="stroke:#038048;stroke-width:1.0;"/><text fill="#000000" font-family="sans-serif" font-size="14" lengthAdjust="spacing" textLength="140" x="34.5" y="467.9951">valueOf(courseDTO)</text></g><!--MD5=[4e6a8d3ca4bd1c5f5bbec9ff1e19f3b4]
class Enrolment--><g id="elem_Enrolment"><rect codeLine="64" fill="#F1F1F1" height="162.0781" id="Enrolment" rx="2.5" ry="2.5" style="stroke:#181818;stroke-width:0.5;" width="103" x="763" y="584"/><ellipse cx="778" cy="600" fill="#ADD1B2" rx="11" ry="11" style="stroke:#181818;stroke-width:1.0;"/><path d="M780.9688,605.6406 Q780.3906,605.9375 779.75,606.0781 Q779.1094,606.2344 778.4063,606.2344 Q775.9063,606.2344 774.5781,604.5938 Q773.2656,602.9375 773.2656,599.8125 Q773.2656,596.6875 774.5781,595.0313 Q775.9063,593.375 778.4063,593.375 Q779.1094,593.375 779.75,593.5313 Q780.4063,593.6875 780.9688,593.9844 L780.9688,596.7031 Q780.3438,596.125 779.75,595.8594 Q779.1563,595.5781 778.5313,595.5781 Q777.1875,595.5781 776.5,596.6563 Q775.8125,597.7188 775.8125,599.8125 Q775.8125,601.9063 776.5,602.9844 Q777.1875,604.0469 778.5313,604.0469 Q779.1563,604.0469 779.75,603.7813 Q780.3438,603.5 780.9688,602.9219 L780.9688,605.6406 Z " fill="#000000"/><text fill="#000000" font-family="sans-serif" font-size="14" lengthAdjust="spacing" textLength="71" x="792" y="604.8467">Enrolment</text><line style="stroke:#181818;stroke-width:0.5;" x1="764" x2="865" y1="616" y2="616"/><rect fill="none" height="6" style="stroke:#C82930;stroke-width:1.0;" width="6" x="771" y="626.6484"/><text fill="#000000" font-family="sans-serif" font-size="14" lengthAdjust="spacing" textLength="12" x="783" y="632.9951">id</text><rect fill="none" height="6" style="stroke:#C82930;stroke-width:1.0;" width="6" x="771" y="642.9453"/><text fill="#000000" font-family="sans-serif" font-size="14" lengthAdjust="spacing" textLength="54" x="783" y="649.292">student</text><rect fill="none" height="6" style="stroke:#C82930;stroke-width:1.0;" width="6" x="771" y="659.2422"/><text fill="#000000" font-family="sans-serif" font-size="14" lengthAdjust="spacing" textLength="48" x="783" y="665.5889">course</text><rect fill="none" height="6" style="stroke:#C82930;stroke-width:1.0;" width="6" x="771" y="675.5391"/><text fill="#000000" font-family="sans-serif" font-size="14" lengthAdjust="spacing" textLength="35" x="783" y="681.8857">state</text><rect fill="none" height="6" style="stroke:#C82930;stroke-width:1.0;" width="6" x="771" y="691.8359"/><text fill="#000000" font-family="sans-serif" font-size="14" lengthAdjust="spacing" textLength="67" x="783" y="698.1826">createdAt</text><rect fill="none" height="6" style="stroke:#C82930;stroke-width:1.0;" width="6" x="771" y="708.1328"/><text fill="#000000" font-family="sans-serif" font-size="14" lengthAdjust="spacing" textLength="72" x="783" y="714.4795">updatedAt</text><line style="stroke:#181818;stroke-width:0.5;" x1="764" x2="865" y1="721.7813" y2="721.7813"/><ellipse cx="774" cy="735.4297" fill="#84BE84" rx="3" ry="3" style="stroke:#038048;stroke-width:1.0;"/><text fill="#000000" font-family="sans-serif" font-size="14" lengthAdjust="spacing" textLength="49" x="783" y="738.7764">toDto()</text></g><!--MD5=[ba02f8eb113b0a3eb0134eb72158839a]
class EnrolmentDTO--><g id="elem_EnrolmentDTO"><rect codeLine="75" fill="#F1F1F1" height="145.7813" id="EnrolmentDTO" rx="2.5" ry="2.5" style="stroke:#181818;stroke-width:0.5;" width="134" x="970.5" y="592"/><ellipse cx="985.5" cy="608" fill="#ADD1B2" rx="11" ry="11" style="stroke:#181818;stroke-width:1.0;"/><path d="M988.4688,613.6406 Q987.8906,613.9375 987.25,614.0781 Q986.6094,614.2344 985.9063,614.2344 Q983.4063,614.2344 982.0781,612.5938 Q980.7656,610.9375 980.7656,607.8125 Q980.7656,604.6875 982.0781,603.0313 Q983.4063,601.375 985.9063,601.375 Q986.6094,601.375 987.25,601.5313 Q987.9063,601.6875 988.4688,601.9844 L988.4688,604.7031 Q987.8438,604.125 987.25,603.8594 Q986.6563,603.5781 986.0313,603.5781 Q984.6875,603.5781 984,604.6563 Q983.3125,605.7188 983.3125,607.8125 Q983.3125,609.9063 984,610.9844 Q984.6875,612.0469 986.0313,612.0469 Q986.6563,612.0469 987.25,611.7813 Q987.8438,611.5 988.4688,610.9219 L988.4688,613.6406 Z " fill="#000000"/><text fill="#000000" font-family="sans-serif" font-size="14" lengthAdjust="spacing" textLength="102" x="999.5" y="612.8467">EnrolmentDTO</text><line style="stroke:#181818;stroke-width:0.5;" x1="971.5" x2="1103.5" y1="624" y2="624"/><rect fill="none" height="6" style="stroke:#C82930;stroke-width:1.0;" width="6" x="978.5" y="634.6484"/><text fill="#000000" font-family="sans-serif" font-size="14" lengthAdjust="spacing" textLength="12" x="990.5" y="640.9951">id</text><rect fill="none" height="6" style="stroke:#C82930;stroke-width:1.0;" width="6" x="978.5" y="650.9453"/><text fill="#000000" font-family="sans-serif" font-size="14" lengthAdjust="spacing" textLength="54" x="990.5" y="657.292">student</text><rect fill="none" height="6" style="stroke:#C82930;stroke-width:1.0;" width="6" x="978.5" y="667.2422"/><text fill="#000000" font-family="sans-serif" font-size="14" lengthAdjust="spacing" textLength="48" x="990.5" y="673.5889">course</text><rect fill="none" height="6" style="stroke:#C82930;stroke-width:1.0;" width="6" x="978.5" y="683.5391"/><text fill="#000000" font-family="sans-serif" font-size="14" lengthAdjust="spacing" textLength="35" x="990.5" y="689.8857">state</text><rect fill="none" height="6" style="stroke:#C82930;stroke-width:1.0;" width="6" x="978.5" y="699.8359"/><text fill="#000000" font-family="sans-serif" font-size="14" lengthAdjust="spacing" textLength="67" x="990.5" y="706.1826">createdAt</text><rect fill="none" height="6" style="stroke:#C82930;stroke-width:1.0;" width="6" x="978.5" y="716.1328"/><text fill="#000000" font-family="sans-serif" font-size="14" lengthAdjust="spacing" textLength="72" x="990.5" y="722.4795">updatedAt</text><line style="stroke:#181818;stroke-width:0.5;" x1="971.5" x2="1103.5" y1="729.7813" y2="729.7813"/></g><!--MD5=[be70134f3c24b40bfef92ce471c34589]
class EnrolmentDTOParser--><g id="elem_EnrolmentDTOParser"><rect codeLine="84" fill="#F1F1F1" height="64.2969" id="EnrolmentDTOParser" rx="2.5" ry="2.5" style="stroke:#181818;stroke-width:0.5;" width="189" x="943" y="411"/><ellipse cx="962.95" cy="427" fill="#ADD1B2" rx="11" ry="11" style="stroke:#181818;stroke-width:1.0;"/><path d="M965.9188,432.6406 Q965.3406,432.9375 964.7,433.0781 Q964.0594,433.2344 963.3563,433.2344 Q960.8563,433.2344 959.5281,431.5938 Q958.2156,429.9375 958.2156,426.8125 Q958.2156,423.6875 959.5281,422.0313 Q960.8563,420.375 963.3563,420.375 Q964.0594,420.375 964.7,420.5313 Q965.3563,420.6875 965.9188,420.9844 L965.9188,423.7031 Q965.2938,423.125 964.7,422.8594 Q964.1063,422.5781 963.4813,422.5781 Q962.1375,422.5781 961.45,423.6563 Q960.7625,424.7188 960.7625,426.8125 Q960.7625,428.9063 961.45,429.9844 Q962.1375,431.0469 963.4813,431.0469 Q964.1063,431.0469 964.7,430.7813 Q965.2938,430.5 965.9188,429.9219 L965.9188,432.6406 Z " fill="#000000"/><text fill="#000000" font-family="sans-serif" font-size="14" lengthAdjust="spacing" textLength="146" x="978.05" y="431.8467">EnrolmentDTOParser</text><line style="stroke:#181818;stroke-width:0.5;" x1="944" x2="1131" y1="443" y2="443"/><line style="stroke:#181818;stroke-width:0.5;" x1="944" x2="1131" y1="451" y2="451"/><ellipse cx="954" cy="464.6484" fill="#84BE84" rx="3" ry="3" style="stroke:#038048;stroke-width:1.0;"/><text fill="#000000" font-family="sans-serif" font-size="14" lengthAdjust="spacing" textLength="163" x="963" y="467.9951">valueOf(enrolmentDTO)</text></g><!--MD5=[e5772586175b0c0076a24bcb781a737a]
class ExtraClass--><g id="elem_ExtraClass"><rect codeLine="88" fill="#F1F1F1" height="145.7813" id="ExtraClass" rx="2.5" ry="2.5" style="stroke:#181818;stroke-width:0.5;" width="381" x="1167" y="370"/><ellipse cx="1317.75" cy="386" fill="#ADD1B2" rx="11" ry="11" style="stroke:#181818;stroke-width:1.0;"/><path d="M1320.7188,391.6406 Q1320.1406,391.9375 1319.5,392.0781 Q1318.8594,392.2344 1318.1563,392.2344 Q1315.6563,392.2344 1314.3281,390.5938 Q1313.0156,388.9375 1313.0156,385.8125 Q1313.0156,382.6875 1314.3281,381.0313 Q1315.6563,379.375 1318.1563,379.375 Q1318.8594,379.375 1319.5,379.5313 Q1320.1563,379.6875 1320.7188,379.9844 L1320.7188,382.7031 Q1320.0938,382.125 1319.5,381.8594 Q1318.9063,381.5781 1318.2813,381.5781 Q1316.9375,381.5781 1316.25,382.6563 Q1315.5625,383.7188 1315.5625,385.8125 Q1315.5625,387.9063 1316.25,388.9844 Q1316.9375,390.0469 1318.2813,390.0469 Q1318.9063,390.0469 1319.5,389.7813 Q1320.0938,389.5 1320.7188,388.9219 L1320.7188,391.6406 Z " fill="#000000"/><text fill="#000000" font-family="sans-serif" font-size="14" lengthAdjust="spacing" textLength="71" x="1338.25" y="390.8467">ExtraClass</text><line style="stroke:#181818;stroke-width:0.5;" x1="1168" x2="1547" y1="402" y2="402"/><rect fill="none" height="6" style="stroke:#C82930;stroke-width:1.0;" width="6" x="1175" y="412.6484"/><text fill="#000000" font-family="sans-serif" font-size="14" lengthAdjust="spacing" textLength="30" x="1187" y="418.9951">time</text><rect fill="none" height="6" style="stroke:#C82930;stroke-width:1.0;" width="6" x="1175" y="428.9453"/><text fill="#000000" font-family="sans-serif" font-size="14" lengthAdjust="spacing" textLength="57" x="1187" y="435.292">duration</text><rect fill="none" height="6" style="stroke:#C82930;stroke-width:1.0;" width="6" x="1175" y="445.2422"/><text fill="#000000" font-family="sans-serif" font-size="14" lengthAdjust="spacing" textLength="54" x="1187" y="451.5889">student</text><rect fill="none" height="6" style="stroke:#C82930;stroke-width:1.0;" width="6" x="1175" y="461.5391"/><text fill="#000000" font-family="sans-serif" font-size="14" lengthAdjust="spacing" textLength="53" x="1187" y="467.8857">teacher</text><rect fill="none" height="6" style="stroke:#C82930;stroke-width:1.0;" width="6" x="1175" y="477.8359"/><text fill="#000000" font-family="sans-serif" font-size="14" lengthAdjust="spacing" textLength="48" x="1187" y="484.1826">course</text><line style="stroke:#181818;stroke-width:0.5;" x1="1168" x2="1547" y1="491.4844" y2="491.4844"/><ellipse cx="1178" cy="505.1328" fill="#84BE84" rx="3" ry="3" style="stroke:#038048;stroke-width:1.0;"/><text fill="#000000" font-family="sans-serif" font-size="14" lengthAdjust="spacing" textLength="355" x="1187" y="508.4795">ExtraClass(time, duration, student, teacher, course)</text></g><!--MD5=[586d8d40a60b4181d9df02e3c4535efc]
link ScheduleExtraClassUI to ScheduleExtraClassController--><g id="link_ScheduleExtraClassUI_ScheduleExtraClassController"><path codeLine="98" d="M745.5,55.1 C745.5,69.5 745.5,89.15 745.5,109.66 " fill="none" id="ScheduleExtraClassUI-to-ScheduleExtraClassController" style="stroke:#181818;stroke-width:1.0;stroke-dasharray:7.0,7.0;"/><polygon fill="#181818" points="745.5,114.89,749.5,105.89,745.5,109.89,741.5,105.89,745.5,114.89" style="stroke:#181818;stroke-width:1.0;"/></g><!--MD5=[55d58f4fe0386302a762af0913da2c6b]
link ScheduleExtraClassController to ListCourseService--><g id="link_ScheduleExtraClassController_ListCourseService"><path codeLine="99" d="M591.66,310.07 C551.76,335.12 510.01,361.33 474.33,383.73 " fill="none" id="ScheduleExtraClassController-to-ListCourseService" style="stroke:#181818;stroke-width:1.0;"/><polygon fill="#181818" points="470.01,386.44,479.7586,385.0384,474.2436,383.7797,475.5022,378.2647,470.01,386.44" style="stroke:#181818;stroke-width:1.0;"/></g><!--MD5=[32f6cecf2902a436aac2c77f41b099fa]
link ScheduleExtraClassController to EnrolmentListService--><g id="link_ScheduleExtraClassController_EnrolmentListService"><path codeLine="100" d="M745.5,310.07 C745.5,334.2 745.5,359.41 745.5,381.25 " fill="none" id="ScheduleExtraClassController-to-EnrolmentListService" style="stroke:#181818;stroke-width:1.0;"/><polygon fill="#181818" points="745.5,386.44,749.5,377.44,745.5,381.44,741.5,377.44,745.5,386.44" style="stroke:#181818;stroke-width:1.0;"/></g><!--MD5=[3a1cf7101d8a48f5a9d5e745444b4266]
link ListCourseService to Course--><g id="link_ListCourseService_Course"><path codeLine="102" d="M372.92,499.52 C369.58,521.14 365.65,546.53 361.9,570.8 " fill="none" id="ListCourseService-to-Course" style="stroke:#181818;stroke-width:1.0;stroke-dasharray:7.0,7.0;"/><polygon fill="#181818" points="361.11,575.96,366.45,567.6845,361.881,571.0198,358.5457,566.4508,361.11,575.96" style="stroke:#181818;stroke-width:1.0;"/></g><!--MD5=[7e4426526a7e84e0c2e42fd04531f37b]
link EnrolmentListService to Enrolment--><g id="link_EnrolmentListService_Enrolment"><path codeLine="103" d="M762.91,499.52 C770.47,523.6 779.48,552.35 787.85,579.03 " fill="none" id="EnrolmentListService-to-Enrolment" style="stroke:#181818;stroke-width:1.0;stroke-dasharray:7.0,7.0;"/><polygon fill="#181818" points="789.4,583.98,790.5435,574.1977,787.9135,579.2061,782.9052,576.5761,789.4,583.98" style="stroke:#181818;stroke-width:1.0;"/></g><!--MD5=[298274a268a1e620bb3f9f38a3a6e1cf]
link ScheduleExtraClassController to ExtraClass--><g id="link_ScheduleExtraClassController_ExtraClass"><path codeLine="105" d="M1002.83,309.58 C1056.03,329.44 1111.24,350.06 1161.82,368.94 " fill="none" id="ScheduleExtraClassController-to-ExtraClass" style="stroke:#181818;stroke-width:1.0;"/><polygon fill="#181818" points="1166.7,370.76,1159.6775,363.8546,1162.0184,369.0044,1156.8685,371.3452,1166.7,370.76" style="stroke:#181818;stroke-width:1.0;"/></g><!--MD5=[e039f20108c0ea9a8c2bd882f337d784]
link CourseDTOParser to CourseDTO--><g id="link_CourseDTOParser_CourseDTO"><path codeLine="108" d="M97.5,475.05 C97.5,501.92 97.5,542.07 97.5,578.46 " fill="none" id="CourseDTOParser-to-CourseDTO" style="stroke:#181818;stroke-width:1.0;stroke-dasharray:7.0,7.0;"/><polygon fill="#181818" points="97.5,583.8,101.5,574.8,97.5,578.8,93.5,574.8,97.5,583.8" style="stroke:#181818;stroke-width:1.0;"/></g><!--MD5=[b85f289341f81a7d761f528a4d33ac25]
link CourseDTOParser to Course--><g id="link_CourseDTOParser_Course"><path codeLine="109" d="M132.79,475.05 C164.01,502.53 211.03,543.9 253.11,580.93 " fill="none" id="CourseDTOParser-to-Course" style="stroke:#181818;stroke-width:1.0;stroke-dasharray:7.0,7.0;"/><polygon fill="#181818" points="256.9,584.27,252.7968,575.3166,253.1504,580.9624,247.5046,581.3159,256.9,584.27" style="stroke:#181818;stroke-width:1.0;"/></g><!--MD5=[6994efc5bc9a3dda29c89edbae9b3eae]
link EnrolmentDTOParser to EnrolmentDTO--><g id="link_EnrolmentDTOParser_EnrolmentDTO"><path codeLine="111" d="M1037.5,475.05 C1037.5,503.96 1037.5,548.24 1037.5,586.66 " fill="none" id="EnrolmentDTOParser-to-EnrolmentDTO" style="stroke:#181818;stroke-width:1.0;stroke-dasharray:7.0,7.0;"/><polygon fill="#181818" points="1037.5,591.8,1041.5,582.8,1037.5,586.8,1033.5,582.8,1037.5,591.8" style="stroke:#181818;stroke-width:1.0;"/></g><!--MD5=[457d5276edd08833000d3b9bab1e1498]
link EnrolmentDTOParser to Enrolment--><g id="link_EnrolmentDTOParser_Enrolment"><path codeLine="112" d="M1006.02,475.05 C970.64,509.96 912.53,567.29 869.59,609.65 " fill="none" id="EnrolmentDTOParser-to-Enrolment" style="stroke:#181818;stroke-width:1.0;stroke-dasharray:7.0,7.0;"/><polygon fill="#181818" points="866,613.19,875.2206,609.7287,869.5639,609.6831,869.6095,604.0264,866,613.19" style="stroke:#181818;stroke-width:1.0;"/></g><!--MD5=[9925d425f4a8fa7495ecc526601b3664]
link Course to CourseEnrolmentState--><g id="link_Course_CourseEnrolmentState"><path codeLine="114" d="M347.5,754.26 C347.5,773.2 347.5,792.43 347.5,808.87 " fill="none" id="Course-to-CourseEnrolmentState" style="stroke:#181818;stroke-width:1.0;"/><polygon fill="#181818" points="347.5,813.87,351.5,804.87,347.5,808.87,343.5,804.87,347.5,813.87" style="stroke:#181818;stroke-width:1.0;"/></g><!--MD5=[f624ade47b3f8a66cdc2667edde2e6f7]
@startuml US1011_CD

class ListCourseService {
  - courseRepository

  + ListCourseService(courseRepository)

  + listAllInProgressLecturedByTeacher(teacher)
}

class EnrolmentListService {
  - enrolmentRepository

  + EnrolmentListService(enrolmentRepository)

  + listStudentsEnrolled(course)
}

class ScheduleExtraClassUI {}

class ScheduleExtraClassController {
  - courseRepository
  - enrolmentRepository
  - ListEnrolmentService
  - ListCourseService

  + ScheduleExtraClassController(courseRepository, enrolmentRepository)

  + listAllInProgressLecturedByTeacher(teacher)
  + listStudentsEnrolled(course)
  + createExtraClass(course, teacher, date, duration, students)
}

class Course {
  - code
  - title
  - description
  - enrolmentLimits
  - courseState
  - courseEnrolmentState
  - createdAt

  + toDto()
}

enum CourseEnrolmentState {
  OPEN
  CLOSED
}

class CourseDTO {
  - code
  - title
  - description
  - enrolmentLimits
  - courseState
  - courseEnrolmentState
  - createdAt
}

class CourseDTOParser {
  + valueOf(courseDTO)
}

class Enrolment{
  - id
  - student
  - course
  - state
  - createdAt
  - updatedAt

  + toDto()
}

class EnrolmentDTO {
  - id
  - student
  - course
  - state
  - createdAt
  - updatedAt
}

class EnrolmentDTOParser {
  + valueOf(enrolmentDTO)
}

class ExtraClass {
  - time
  - duration
  - student
  - teacher
  - course

  + ExtraClass(time, duration, student, teacher, course)
}

ScheduleExtraClassUI ..> ScheduleExtraClassController
ScheduleExtraClassController - -> ListCourseService
ScheduleExtraClassController - -> EnrolmentListService

ListCourseService ..> Course
EnrolmentListService ..> Enrolment

ScheduleExtraClassController - -> ExtraClass


CourseDTOParser ..> CourseDTO
CourseDTOParser ..> Course

EnrolmentDTOParser ..> EnrolmentDTO
EnrolmentDTOParser ..> Enrolment

Course - -> CourseEnrolmentState

@enduml

PlantUML version 1.2022.7(Mon Aug 22 18:01:30 WEST 2022)
(GPL source distribution)
Java Runtime: OpenJDK Runtime Environment
JVM: OpenJDK 64-Bit Server VM
Default Encoding: UTF-8
Language: en
Country: US
--></g></svg>