<?xml version="1.0" encoding="us-ascii" standalone="no"?><svg xmlns="http://www.w3.org/2000/svg" xmlns:xlink="http://www.w3.org/1999/xlink" contentStyleType="text/css" height="804px" preserveAspectRatio="none" style="width:1862px;height:804px;background:#FFFFFF;" version="1.1" viewBox="0 0 1862 804" width="1862.4px" zoomAndPan="magnify"><defs/><g><!--class ListCourseExamGradesUI--><g id="elem_ListCourseExamGradesUI"><rect codeLine="3" fill="#F1F1F1" height="38.4" id="ListCourseExamGradesUI" rx="2" ry="2" style="stroke:#181818;stroke-width:0.4000000000000001;" width="154.4" x="632.4" y="5.6"/><ellipse cx="644.4" cy="18.4" fill="#ADD1B2" rx="8.8" ry="8.8" style="stroke:#181818;stroke-width:0.8000000000000002;"/><path d="M646.6125,15.1 Q646.7375,14.925 646.8875,14.8375 Q647.0375,14.75 647.2125,14.75 Q647.5125,14.75 647.7,14.9625 Q647.8875,15.1625 647.8875,15.65 L647.8875,16.8125 Q647.8875,17.3 647.7,17.5125 Q647.5125,17.725 647.2125,17.725 Q646.9375,17.725 646.775,17.5625 Q646.6125,17.4125 646.525,17 Q646.4875,16.7125 646.3375,16.5625 Q646.075,16.2625 645.5875,16.0875 Q645.1,15.9125 644.6,15.9125 Q643.9875,15.9125 643.475,16.175 Q642.975,16.4375 642.575,17.0375 Q642.1875,17.6375 642.1875,18.4625 L642.1875,19.3375 Q642.1875,20.325 642.9,20.9875 Q643.6125,21.6375 644.8875,21.6375 Q645.6375,21.6375 646.1625,21.4375 Q646.475,21.3125 646.8125,20.9625 Q647.025,20.75 647.1375,20.6875 Q647.2625,20.625 647.425,20.625 Q647.6875,20.625 647.8875,20.8375 Q648.1,21.0375 648.1,21.3125 Q648.1,21.5875 647.825,21.9125 Q647.425,22.375 646.7875,22.6375 Q645.925,23 644.8875,23 Q643.675,23 642.7125,22.5 Q641.925,22.1 641.375,21.25 Q640.825,20.3875 640.825,19.3625 L640.825,18.4375 Q640.825,17.375 641.3125,16.4625 Q641.8125,15.5375 642.6875,15.05 Q643.5625,14.55 644.55,14.55 Q645.1375,14.55 645.65,14.6875 Q646.175,14.8125 646.6125,15.1 Z " fill="#000000"/><text fill="#000000" font-family="sans-serif" font-size="11.2" lengthAdjust="spacing" textLength="128.8" x="655.6" y="23.0375">ListCourseExamGradesUI</text><line style="stroke:#181818;stroke-width:0.4000000000000001;" x1="633.2" x2="786" y1="31.2" y2="31.2"/><line style="stroke:#181818;stroke-width:0.4000000000000001;" x1="633.2" x2="786" y1="37.6" y2="37.6"/></g><!--class ListCourseExamGradesController--><g id="elem_ListCourseExamGradesController"><rect codeLine="7" fill="#F1F1F1" height="232.0594" id="ListCourseExamGradesController" rx="2" ry="2" style="stroke:#181818;stroke-width:0.4000000000000001;" width="507.2" x="646.4" y="92"/><ellipse cx="812.2" cy="104.8" fill="#ADD1B2" rx="8.8" ry="8.8" style="stroke:#181818;stroke-width:0.8000000000000002;"/><path d="M814.4125,101.5 Q814.5375,101.325 814.6875,101.2375 Q814.8375,101.15 815.0125,101.15 Q815.3125,101.15 815.5,101.3625 Q815.6875,101.5625 815.6875,102.05 L815.6875,103.2125 Q815.6875,103.7 815.5,103.9125 Q815.3125,104.125 815.0125,104.125 Q814.7375,104.125 814.575,103.9625 Q814.4125,103.8125 814.325,103.4 Q814.2875,103.1125 814.1375,102.9625 Q813.875,102.6625 813.3875,102.4875 Q812.9,102.3125 812.4,102.3125 Q811.7875,102.3125 811.275,102.575 Q810.775,102.8375 810.375,103.4375 Q809.9875,104.0375 809.9875,104.8625 L809.9875,105.7375 Q809.9875,106.725 810.7,107.3875 Q811.4125,108.0375 812.6875,108.0375 Q813.4375,108.0375 813.9625,107.8375 Q814.275,107.7125 814.6125,107.3625 Q814.825,107.15 814.9375,107.0875 Q815.0625,107.025 815.225,107.025 Q815.4875,107.025 815.6875,107.2375 Q815.9,107.4375 815.9,107.7125 Q815.9,107.9875 815.625,108.3125 Q815.225,108.775 814.5875,109.0375 Q813.725,109.4 812.6875,109.4 Q811.475,109.4 810.5125,108.9 Q809.725,108.5 809.175,107.65 Q808.625,106.7875 808.625,105.7625 L808.625,104.8375 Q808.625,103.775 809.1125,102.8625 Q809.6125,101.9375 810.4875,101.45 Q811.3625,100.95 812.35,100.95 Q812.9375,100.95 813.45,101.0875 Q813.975,101.2125 814.4125,101.5 Z " fill="#000000"/><text fill="#000000" font-family="sans-serif" font-size="11.2" lengthAdjust="spacing" textLength="168.8" x="828.6" y="109.4375">ListCourseExamGradesController</text><line style="stroke:#181818;stroke-width:0.4000000000000001;" x1="647.2" x2="1152.8" y1="117.6" y2="117.6"/><rect fill="none" height="4.8" style="stroke:#C82930;stroke-width:0.8000000000000002;" width="4.8" x="652.8" y="127.0484"/><text fill="#000000" font-family="sans-serif" font-size="11.2" lengthAdjust="spacing" textLength="102.4" x="662.4" y="132.8859">authorizationService</text><rect fill="none" height="4.8" style="stroke:#C82930;stroke-width:0.8000000000000002;" width="4.8" x="652.8" y="141.9453"/><text fill="#000000" font-family="sans-serif" font-size="11.2" lengthAdjust="spacing" textLength="88" x="662.4" y="147.7828">enrolmentService</text><rect fill="none" height="4.8" style="stroke:#C82930;stroke-width:0.8000000000000002;" width="4.8" x="652.8" y="156.8422"/><text fill="#000000" font-family="sans-serif" font-size="11.2" lengthAdjust="spacing" textLength="92" x="662.4" y="162.6797">studentRepository</text><rect fill="none" height="4.8" style="stroke:#C82930;stroke-width:0.8000000000000002;" width="4.8" x="652.8" y="171.7391"/><text fill="#000000" font-family="sans-serif" font-size="11.2" lengthAdjust="spacing" textLength="88" x="662.4" y="177.5766">listCourseService</text><rect fill="none" height="4.8" style="stroke:#C82930;stroke-width:0.8000000000000002;" width="4.8" x="652.8" y="186.6359"/><text fill="#000000" font-family="sans-serif" font-size="11.2" lengthAdjust="spacing" textLength="134.4" x="662.4" y="192.4734">evaluationExamListService</text><rect fill="none" height="4.8" style="stroke:#C82930;stroke-width:0.8000000000000002;" width="4.8" x="652.8" y="201.5328"/><text fill="#000000" font-family="sans-serif" font-size="11.2" lengthAdjust="spacing" textLength="115.2" x="662.4" y="207.3703">listExamAnswerService</text><line style="stroke:#181818;stroke-width:0.4000000000000001;" x1="647.2" x2="1152.8" y1="213.3813" y2="213.3813"/><ellipse cx="655.2" cy="225.2297" fill="#84BE84" rx="2.4" ry="2.4" style="stroke:#038048;stroke-width:0.8000000000000002;"/><text fill="#000000" font-family="sans-serif" font-size="11.2" lengthAdjust="spacing" textLength="486.4" x="662.4" y="228.6672">ListCourseExamGradesController(authorizationService, evaluationRepository, courseRepository,</text><text fill="#000000" font-family="sans-serif" font-size="11.2" lengthAdjust="spacing" textLength="403.2" x="662.4" y="243.5641">teacherRepository, answerRepository, enrolmentRepository, studentRepository)</text><text fill="#000000" font-family="sans-serif" font-size="11.2" lengthAdjust="spacing" textLength="3.2" x="662.4" y="258.4609">&#160;</text><ellipse cx="655.2" cy="269.9203" fill="#84BE84" rx="2.4" ry="2.4" style="stroke:#038048;stroke-width:0.8000000000000002;"/><text fill="#000000" font-family="sans-serif" font-size="11.2" lengthAdjust="spacing" textLength="88.8" x="662.4" y="273.3578">teacherCourses()</text><ellipse cx="655.2" cy="284.8172" fill="#84BE84" rx="2.4" ry="2.4" style="stroke:#038048;stroke-width:0.8000000000000002;"/><text fill="#000000" font-family="sans-serif" font-size="11.2" lengthAdjust="spacing" textLength="186.4" x="662.4" y="288.2547">courseEvaluationExams(courseDTO)</text><ellipse cx="655.2" cy="299.7141" fill="#84BE84" rx="2.4" ry="2.4" style="stroke:#038048;stroke-width:0.8000000000000002;"/><text fill="#000000" font-family="sans-serif" font-size="11.2" lengthAdjust="spacing" textLength="175.2" x="662.4" y="303.1516">evaluationExamGrades(examDTO)</text><rect fill="#F24D5C" height="4.8" style="stroke:#C82930;stroke-width:0.8000000000000002;" width="4.8" x="652.8" y="312.2109"/><text fill="#000000" font-family="sans-serif" font-size="11.2" lengthAdjust="spacing" textLength="131.2" x="662.4" y="318.0484">studentsInCourse(course)</text></g><!--class Answer--><g id="elem_Answer"><rect codeLine="24" fill="#F1F1F1" height="142.6781" id="Answer" rx="2" ry="2" style="stroke:#181818;stroke-width:0.4000000000000001;" width="100.8" x="1324" y="420.8"/><ellipse cx="1353.28" cy="433.6" fill="#ADD1B2" rx="8.8" ry="8.8" style="stroke:#181818;stroke-width:0.8000000000000002;"/><path d="M1355.4925,430.3 Q1355.6175,430.125 1355.7675,430.0375 Q1355.9175,429.95 1356.0925,429.95 Q1356.3925,429.95 1356.58,430.1625 Q1356.7675,430.3625 1356.7675,430.85 L1356.7675,432.0125 Q1356.7675,432.5 1356.58,432.7125 Q1356.3925,432.925 1356.0925,432.925 Q1355.8175,432.925 1355.655,432.7625 Q1355.4925,432.6125 1355.405,432.2 Q1355.3675,431.9125 1355.2175,431.7625 Q1354.955,431.4625 1354.4675,431.2875 Q1353.98,431.1125 1353.48,431.1125 Q1352.8675,431.1125 1352.355,431.375 Q1351.855,431.6375 1351.455,432.2375 Q1351.0675,432.8375 1351.0675,433.6625 L1351.0675,434.5375 Q1351.0675,435.525 1351.78,436.1875 Q1352.4925,436.8375 1353.7675,436.8375 Q1354.5175,436.8375 1355.0425,436.6375 Q1355.355,436.5125 1355.6925,436.1625 Q1355.905,435.95 1356.0175,435.8875 Q1356.1425,435.825 1356.305,435.825 Q1356.5675,435.825 1356.7675,436.0375 Q1356.98,436.2375 1356.98,436.5125 Q1356.98,436.7875 1356.705,437.1125 Q1356.305,437.575 1355.6675,437.8375 Q1354.805,438.2 1353.7675,438.2 Q1352.555,438.2 1351.5925,437.7 Q1350.805,437.3 1350.255,436.45 Q1349.705,435.5875 1349.705,434.5625 L1349.705,433.6375 Q1349.705,432.575 1350.1925,431.6625 Q1350.6925,430.7375 1351.5675,430.25 Q1352.4425,429.75 1353.43,429.75 Q1354.0175,429.75 1354.53,429.8875 Q1355.055,430.0125 1355.4925,430.3 Z " fill="#000000"/><text fill="#000000" font-family="sans-serif" font-size="11.2" lengthAdjust="spacing" textLength="36.8" x="1368.32" y="438.2375">Answer</text><line style="stroke:#181818;stroke-width:0.4000000000000001;" x1="1324.8" x2="1424" y1="446.4" y2="446.4"/><rect fill="none" height="4.8" style="stroke:#C82930;stroke-width:0.8000000000000002;" width="4.8" x="1330.4" y="455.8484"/><text fill="#000000" font-family="sans-serif" font-size="11.2" lengthAdjust="spacing" textLength="80" x="1340" y="461.6859">studentNumber;</text><rect fill="none" height="4.8" style="stroke:#C82930;stroke-width:0.8000000000000002;" width="4.8" x="1330.4" y="470.7453"/><text fill="#000000" font-family="sans-serif" font-size="11.2" lengthAdjust="spacing" textLength="69.6" x="1340" y="476.5828">studentName;</text><rect fill="none" height="4.8" style="stroke:#C82930;stroke-width:0.8000000000000002;" width="4.8" x="1330.4" y="485.6422"/><text fill="#000000" font-family="sans-serif" font-size="11.2" lengthAdjust="spacing" textLength="51.2" x="1340" y="491.4797">examTitle;</text><rect fill="none" height="4.8" style="stroke:#C82930;stroke-width:0.8000000000000002;" width="4.8" x="1330.4" y="500.5391"/><text fill="#000000" font-family="sans-serif" font-size="11.2" lengthAdjust="spacing" textLength="37.6" x="1340" y="506.3766">course;</text><rect fill="none" height="4.8" style="stroke:#C82930;stroke-width:0.8000000000000002;" width="4.8" x="1330.4" y="515.4359"/><text fill="#000000" font-family="sans-serif" font-size="11.2" lengthAdjust="spacing" textLength="31.2" x="1340" y="521.2734">score;</text><rect fill="none" height="4.8" style="stroke:#C82930;stroke-width:0.8000000000000002;" width="4.8" x="1330.4" y="530.3328"/><text fill="#000000" font-family="sans-serif" font-size="11.2" lengthAdjust="spacing" textLength="41.6" x="1340" y="536.1703">takenAt;</text><line style="stroke:#181818;stroke-width:0.4000000000000001;" x1="1324.8" x2="1424" y1="542.1813" y2="542.1813"/><ellipse cx="1332.8" cy="554.0297" fill="#84BE84" rx="2.4" ry="2.4" style="stroke:#038048;stroke-width:0.8000000000000002;"/><text fill="#000000" font-family="sans-serif" font-size="11.2" lengthAdjust="spacing" textLength="35.2" x="1340" y="557.4672">toDto()</text></g><!--class AnswerDTO--><g id="elem_AnswerDTO"><rect codeLine="35" fill="#F1F1F1" height="127.7813" id="AnswerDTO" rx="2" ry="2" style="stroke:#181818;stroke-width:0.4000000000000001;" width="100.8" x="1434.4" y="640.8"/><ellipse cx="1452.88" cy="653.6" fill="#ADD1B2" rx="8.8" ry="8.8" style="stroke:#181818;stroke-width:0.8000000000000002;"/><path d="M1455.0925,650.3 Q1455.2175,650.125 1455.3675,650.0375 Q1455.5175,649.95 1455.6925,649.95 Q1455.9925,649.95 1456.18,650.1625 Q1456.3675,650.3625 1456.3675,650.85 L1456.3675,652.0125 Q1456.3675,652.5 1456.18,652.7125 Q1455.9925,652.925 1455.6925,652.925 Q1455.4175,652.925 1455.255,652.7625 Q1455.0925,652.6125 1455.005,652.2 Q1454.9675,651.9125 1454.8175,651.7625 Q1454.555,651.4625 1454.0675,651.2875 Q1453.58,651.1125 1453.08,651.1125 Q1452.4675,651.1125 1451.955,651.375 Q1451.455,651.6375 1451.055,652.2375 Q1450.6675,652.8375 1450.6675,653.6625 L1450.6675,654.5375 Q1450.6675,655.525 1451.38,656.1875 Q1452.0925,656.8375 1453.3675,656.8375 Q1454.1175,656.8375 1454.6425,656.6375 Q1454.955,656.5125 1455.2925,656.1625 Q1455.505,655.95 1455.6175,655.8875 Q1455.7425,655.825 1455.905,655.825 Q1456.1675,655.825 1456.3675,656.0375 Q1456.58,656.2375 1456.58,656.5125 Q1456.58,656.7875 1456.305,657.1125 Q1455.905,657.575 1455.2675,657.8375 Q1454.405,658.2 1453.3675,658.2 Q1452.155,658.2 1451.1925,657.7 Q1450.405,657.3 1449.855,656.45 Q1449.305,655.5875 1449.305,654.5625 L1449.305,653.6375 Q1449.305,652.575 1449.7925,651.6625 Q1450.2925,650.7375 1451.1675,650.25 Q1452.0425,649.75 1453.03,649.75 Q1453.6175,649.75 1454.13,649.8875 Q1454.655,650.0125 1455.0925,650.3 Z " fill="#000000"/><text fill="#000000" font-family="sans-serif" font-size="11.2" lengthAdjust="spacing" textLength="60.8" x="1465.52" y="658.2375">AnswerDTO</text><line style="stroke:#181818;stroke-width:0.4000000000000001;" x1="1435.2" x2="1534.4" y1="666.4" y2="666.4"/><rect fill="none" height="4.8" style="stroke:#C82930;stroke-width:0.8000000000000002;" width="4.8" x="1440.8" y="675.8484"/><text fill="#000000" font-family="sans-serif" font-size="11.2" lengthAdjust="spacing" textLength="80" x="1450.4" y="681.6859">studentNumber;</text><rect fill="none" height="4.8" style="stroke:#C82930;stroke-width:0.8000000000000002;" width="4.8" x="1440.8" y="690.7453"/><text fill="#000000" font-family="sans-serif" font-size="11.2" lengthAdjust="spacing" textLength="69.6" x="1450.4" y="696.5828">studentName;</text><rect fill="none" height="4.8" style="stroke:#C82930;stroke-width:0.8000000000000002;" width="4.8" x="1440.8" y="705.6422"/><text fill="#000000" font-family="sans-serif" font-size="11.2" lengthAdjust="spacing" textLength="51.2" x="1450.4" y="711.4797">examTitle;</text><rect fill="none" height="4.8" style="stroke:#C82930;stroke-width:0.8000000000000002;" width="4.8" x="1440.8" y="720.5391"/><text fill="#000000" font-family="sans-serif" font-size="11.2" lengthAdjust="spacing" textLength="37.6" x="1450.4" y="726.3766">course;</text><rect fill="none" height="4.8" style="stroke:#C82930;stroke-width:0.8000000000000002;" width="4.8" x="1440.8" y="735.4359"/><text fill="#000000" font-family="sans-serif" font-size="11.2" lengthAdjust="spacing" textLength="31.2" x="1450.4" y="741.2734">score;</text><rect fill="none" height="4.8" style="stroke:#C82930;stroke-width:0.8000000000000002;" width="4.8" x="1440.8" y="750.3328"/><text fill="#000000" font-family="sans-serif" font-size="11.2" lengthAdjust="spacing" textLength="41.6" x="1450.4" y="756.1703">takenAt;</text><line style="stroke:#181818;stroke-width:0.4000000000000001;" x1="1435.2" x2="1534.4" y1="762.1813" y2="762.1813"/></g><!--class AnswerRepository--><g id="elem_AnswerRepository"><rect codeLine="44" fill="#F1F1F1" height="53.2969" id="AnswerRepository" rx="2" ry="2" style="stroke:#181818;stroke-width:0.4000000000000001;" width="135.2" x="990.8" y="678"/><ellipse cx="1011.08" cy="690.8" fill="#B4A7E5" rx="8.8" ry="8.8" style="stroke:#181818;stroke-width:0.8000000000000002;"/><path d="M1011.8425,688.1125 L1011.8425,693.4375 L1013.2175,693.4375 Q1013.705,693.4375 1013.9175,693.625 Q1014.13,693.8125 1014.13,694.125 Q1014.13,694.425 1013.9175,694.6125 Q1013.705,694.8 1013.2175,694.8 L1009.105,694.8 Q1008.6175,694.8 1008.405,694.6125 Q1008.1925,694.425 1008.1925,694.1125 Q1008.1925,693.8125 1008.405,693.625 Q1008.6175,693.4375 1009.105,693.4375 L1010.48,693.4375 L1010.48,688.1125 L1009.105,688.1125 Q1008.6175,688.1125 1008.405,687.925 Q1008.1925,687.7375 1008.1925,687.425 Q1008.1925,687.125 1008.405,686.9375 Q1008.6175,686.75 1009.105,686.75 L1013.2175,686.75 Q1013.705,686.75 1013.9175,686.9375 Q1014.13,687.125 1014.13,687.425 Q1014.13,687.7375 1013.9175,687.925 Q1013.705,688.1125 1013.2175,688.1125 L1011.8425,688.1125 Z " fill="#000000"/><text fill="#000000" font-family="sans-serif" font-size="11.2" font-style="italic" lengthAdjust="spacing" textLength="91.2" x="1024.12" y="695.4375">AnswerRepository</text><line style="stroke:#181818;stroke-width:0.4000000000000001;" x1="991.6" x2="1125.2" y1="703.6" y2="703.6"/><line style="stroke:#181818;stroke-width:0.4000000000000001;" x1="991.6" x2="1125.2" y1="710" y2="710"/><ellipse cx="999.6" cy="721.8484" fill="#84BE84" rx="2.4" ry="2.4" style="stroke:#038048;stroke-width:0.8000000000000002;"/><text fill="#000000" font-family="sans-serif" font-size="11.2" lengthAdjust="spacing" textLength="114.4" x="1006.8" y="725.2859">findAllWithExam(exam)</text></g><!--class ListExamAnswerService--><g id="elem_ListExamAnswerService"><rect codeLine="48" fill="#F1F1F1" height="97.9875" id="ListExamAnswerService" rx="2" ry="2" style="stroke:#181818;stroke-width:0.4000000000000001;" width="238.4" x="1057.6" y="443.2"/><ellipse cx="1113.8" cy="456" fill="#ADD1B2" rx="8.8" ry="8.8" style="stroke:#181818;stroke-width:0.8000000000000002;"/><path d="M1116.0125,452.7 Q1116.1375,452.525 1116.2875,452.4375 Q1116.4375,452.35 1116.6125,452.35 Q1116.9125,452.35 1117.1,452.5625 Q1117.2875,452.7625 1117.2875,453.25 L1117.2875,454.4125 Q1117.2875,454.9 1117.1,455.1125 Q1116.9125,455.325 1116.6125,455.325 Q1116.3375,455.325 1116.175,455.1625 Q1116.0125,455.0125 1115.925,454.6 Q1115.8875,454.3125 1115.7375,454.1625 Q1115.475,453.8625 1114.9875,453.6875 Q1114.5,453.5125 1114,453.5125 Q1113.3875,453.5125 1112.875,453.775 Q1112.375,454.0375 1111.975,454.6375 Q1111.5875,455.2375 1111.5875,456.0625 L1111.5875,456.9375 Q1111.5875,457.925 1112.3,458.5875 Q1113.0125,459.2375 1114.2875,459.2375 Q1115.0375,459.2375 1115.5625,459.0375 Q1115.875,458.9125 1116.2125,458.5625 Q1116.425,458.35 1116.5375,458.2875 Q1116.6625,458.225 1116.825,458.225 Q1117.0875,458.225 1117.2875,458.4375 Q1117.5,458.6375 1117.5,458.9125 Q1117.5,459.1875 1117.225,459.5125 Q1116.825,459.975 1116.1875,460.2375 Q1115.325,460.6 1114.2875,460.6 Q1113.075,460.6 1112.1125,460.1 Q1111.325,459.7 1110.775,458.85 Q1110.225,457.9875 1110.225,456.9625 L1110.225,456.0375 Q1110.225,454.975 1110.7125,454.0625 Q1111.2125,453.1375 1112.0875,452.65 Q1112.9625,452.15 1113.95,452.15 Q1114.5375,452.15 1115.05,452.2875 Q1115.575,452.4125 1116.0125,452.7 Z " fill="#000000"/><text fill="#000000" font-family="sans-serif" font-size="11.2" lengthAdjust="spacing" textLength="119.2" x="1130.2" y="460.6375">ListExamAnswerService</text><line style="stroke:#181818;stroke-width:0.4000000000000001;" x1="1058.4" x2="1295.2" y1="468.8" y2="468.8"/><rect fill="none" height="4.8" style="stroke:#C82930;stroke-width:0.8000000000000002;" width="4.8" x="1064" y="478.2484"/><text fill="#000000" font-family="sans-serif" font-size="11.2" lengthAdjust="spacing" textLength="90.4" x="1073.6" y="484.0859">answerRepository</text><line style="stroke:#181818;stroke-width:0.4000000000000001;" x1="1058.4" x2="1295.2" y1="490.0969" y2="490.0969"/><ellipse cx="1066.4" cy="501.9453" fill="#84BE84" rx="2.4" ry="2.4" style="stroke:#038048;stroke-width:0.8000000000000002;"/><text fill="#000000" font-family="sans-serif" font-size="11.2" lengthAdjust="spacing" textLength="217.6" x="1073.6" y="505.3828">ListExamAnswerService(answerRepository)</text><text fill="#000000" font-family="sans-serif" font-size="11.2" lengthAdjust="spacing" textLength="3.2" x="1073.6" y="520.2797">&#160;</text><ellipse cx="1066.4" cy="531.7391" fill="#84BE84" rx="2.4" ry="2.4" style="stroke:#038048;stroke-width:0.8000000000000002;"/><text fill="#000000" font-family="sans-serif" font-size="11.2" lengthAdjust="spacing" textLength="112.8" x="1073.6" y="535.1766">listExamGrades(exam)</text></g><!--class ListCourseService--><g id="elem_ListCourseService"><rect codeLine="57" fill="#F1F1F1" height="112.8844" id="ListCourseService" rx="2" ry="2" style="stroke:#181818;stroke-width:0.4000000000000001;" width="287.2" x="1469.2" y="435.6"/><ellipse cx="1563.4" cy="448.4" fill="#ADD1B2" rx="8.8" ry="8.8" style="stroke:#181818;stroke-width:0.8000000000000002;"/><path d="M1565.6125,445.1 Q1565.7375,444.925 1565.8875,444.8375 Q1566.0375,444.75 1566.2125,444.75 Q1566.5125,444.75 1566.7,444.9625 Q1566.8875,445.1625 1566.8875,445.65 L1566.8875,446.8125 Q1566.8875,447.3 1566.7,447.5125 Q1566.5125,447.725 1566.2125,447.725 Q1565.9375,447.725 1565.775,447.5625 Q1565.6125,447.4125 1565.525,447 Q1565.4875,446.7125 1565.3375,446.5625 Q1565.075,446.2625 1564.5875,446.0875 Q1564.1,445.9125 1563.6,445.9125 Q1562.9875,445.9125 1562.475,446.175 Q1561.975,446.4375 1561.575,447.0375 Q1561.1875,447.6375 1561.1875,448.4625 L1561.1875,449.3375 Q1561.1875,450.325 1561.9,450.9875 Q1562.6125,451.6375 1563.8875,451.6375 Q1564.6375,451.6375 1565.1625,451.4375 Q1565.475,451.3125 1565.8125,450.9625 Q1566.025,450.75 1566.1375,450.6875 Q1566.2625,450.625 1566.425,450.625 Q1566.6875,450.625 1566.8875,450.8375 Q1567.1,451.0375 1567.1,451.3125 Q1567.1,451.5875 1566.825,451.9125 Q1566.425,452.375 1565.7875,452.6375 Q1564.925,453 1563.8875,453 Q1562.675,453 1561.7125,452.5 Q1560.925,452.1 1560.375,451.25 Q1559.825,450.3875 1559.825,449.3625 L1559.825,448.4375 Q1559.825,447.375 1560.3125,446.4625 Q1560.8125,445.5375 1561.6875,445.05 Q1562.5625,444.55 1563.55,444.55 Q1564.1375,444.55 1564.65,444.6875 Q1565.175,444.8125 1565.6125,445.1 Z " fill="#000000"/><text fill="#000000" font-family="sans-serif" font-size="11.2" lengthAdjust="spacing" textLength="92" x="1579.8" y="453.0375">ListCourseService</text><line style="stroke:#181818;stroke-width:0.4000000000000001;" x1="1470" x2="1755.6" y1="461.2" y2="461.2"/><rect fill="none" height="4.8" style="stroke:#C82930;stroke-width:0.8000000000000002;" width="4.8" x="1475.6" y="470.6484"/><text fill="#000000" font-family="sans-serif" font-size="11.2" lengthAdjust="spacing" textLength="88.8" x="1485.2" y="476.4859">courseRepository</text><line style="stroke:#181818;stroke-width:0.4000000000000001;" x1="1470" x2="1755.6" y1="482.4969" y2="482.4969"/><ellipse cx="1478" cy="494.3453" fill="#84BE84" rx="2.4" ry="2.4" style="stroke:#038048;stroke-width:0.8000000000000002;"/><text fill="#000000" font-family="sans-serif" font-size="11.2" lengthAdjust="spacing" textLength="188.8" x="1485.2" y="497.7828">ListCourseService(courseRepository)</text><text fill="#000000" font-family="sans-serif" font-size="11.2" lengthAdjust="spacing" textLength="3.2" x="1485.2" y="512.6797">&#160;</text><ellipse cx="1478" cy="524.1391" fill="#84BE84" rx="2.4" ry="2.4" style="stroke:#038048;stroke-width:0.8000000000000002;"/><text fill="#000000" font-family="sans-serif" font-size="11.2" lengthAdjust="spacing" textLength="201.6" x="1485.2" y="527.5766">findCourseByCourseCode(courseCode)</text><ellipse cx="1478" cy="539.0359" fill="#84BE84" rx="2.4" ry="2.4" style="stroke:#038048;stroke-width:0.8000000000000002;"/><text fill="#000000" font-family="sans-serif" font-size="11.2" lengthAdjust="spacing" textLength="266.4" x="1485.2" y="542.4734">listInProgressCoursesThatTeacherLectures(teacher)</text></g><!--class CourseRepository--><g id="elem_CourseRepository"><rect codeLine="66" fill="#F1F1F1" height="53.2969" id="CourseRepository" rx="2" ry="2" style="stroke:#181818;stroke-width:0.4000000000000001;" width="252" x="1154" y="678"/><ellipse cx="1231" cy="690.8" fill="#B4A7E5" rx="8.8" ry="8.8" style="stroke:#181818;stroke-width:0.8000000000000002;"/><path d="M1231.7625,688.1125 L1231.7625,693.4375 L1233.1375,693.4375 Q1233.625,693.4375 1233.8375,693.625 Q1234.05,693.8125 1234.05,694.125 Q1234.05,694.425 1233.8375,694.6125 Q1233.625,694.8 1233.1375,694.8 L1229.025,694.8 Q1228.5375,694.8 1228.325,694.6125 Q1228.1125,694.425 1228.1125,694.1125 Q1228.1125,693.8125 1228.325,693.625 Q1228.5375,693.4375 1229.025,693.4375 L1230.4,693.4375 L1230.4,688.1125 L1229.025,688.1125 Q1228.5375,688.1125 1228.325,687.925 Q1228.1125,687.7375 1228.1125,687.425 Q1228.1125,687.125 1228.325,686.9375 Q1228.5375,686.75 1229.025,686.75 L1233.1375,686.75 Q1233.625,686.75 1233.8375,686.9375 Q1234.05,687.125 1234.05,687.425 Q1234.05,687.7375 1233.8375,687.925 Q1233.625,688.1125 1233.1375,688.1125 L1231.7625,688.1125 Z " fill="#000000"/><text fill="#000000" font-family="sans-serif" font-size="11.2" font-style="italic" lengthAdjust="spacing" textLength="91.2" x="1247.4" y="695.4375">CourseRepository</text><line style="stroke:#181818;stroke-width:0.4000000000000001;" x1="1154.8" x2="1405.2" y1="703.6" y2="703.6"/><line style="stroke:#181818;stroke-width:0.4000000000000001;" x1="1154.8" x2="1405.2" y1="710" y2="710"/><ellipse cx="1162.8" cy="721.8484" fill="#84BE84" rx="2.4" ry="2.4" style="stroke:#038048;stroke-width:0.8000000000000002;"/><text fill="#000000" font-family="sans-serif" font-size="11.2" lengthAdjust="spacing" textLength="231.2" x="1170" y="725.2859">findAllInProgressLecturedByTeacher(teacher)</text></g><!--class Course--><g id="elem_Course"><rect codeLine="71" fill="#F1F1F1" height="157.575" id="Course" rx="2" ry="2" style="stroke:#181818;stroke-width:0.4000000000000001;" width="132.8" x="1563.2" y="626"/><ellipse cx="1607.8" cy="638.8" fill="#ADD1B2" rx="8.8" ry="8.8" style="stroke:#181818;stroke-width:0.8000000000000002;"/><path d="M1610.0125,635.5 Q1610.1375,635.325 1610.2875,635.2375 Q1610.4375,635.15 1610.6125,635.15 Q1610.9125,635.15 1611.1,635.3625 Q1611.2875,635.5625 1611.2875,636.05 L1611.2875,637.2125 Q1611.2875,637.7 1611.1,637.9125 Q1610.9125,638.125 1610.6125,638.125 Q1610.3375,638.125 1610.175,637.9625 Q1610.0125,637.8125 1609.925,637.4 Q1609.8875,637.1125 1609.7375,636.9625 Q1609.475,636.6625 1608.9875,636.4875 Q1608.5,636.3125 1608,636.3125 Q1607.3875,636.3125 1606.875,636.575 Q1606.375,636.8375 1605.975,637.4375 Q1605.5875,638.0375 1605.5875,638.8625 L1605.5875,639.7375 Q1605.5875,640.725 1606.3,641.3875 Q1607.0125,642.0375 1608.2875,642.0375 Q1609.0375,642.0375 1609.5625,641.8375 Q1609.875,641.7125 1610.2125,641.3625 Q1610.425,641.15 1610.5375,641.0875 Q1610.6625,641.025 1610.825,641.025 Q1611.0875,641.025 1611.2875,641.2375 Q1611.5,641.4375 1611.5,641.7125 Q1611.5,641.9875 1611.225,642.3125 Q1610.825,642.775 1610.1875,643.0375 Q1609.325,643.4 1608.2875,643.4 Q1607.075,643.4 1606.1125,642.9 Q1605.325,642.5 1604.775,641.65 Q1604.225,640.7875 1604.225,639.7625 L1604.225,638.8375 Q1604.225,637.775 1604.7125,636.8625 Q1605.2125,635.9375 1606.0875,635.45 Q1606.9625,634.95 1607.95,634.95 Q1608.5375,634.95 1609.05,635.0875 Q1609.575,635.2125 1610.0125,635.5 Z " fill="#000000"/><text fill="#000000" font-family="sans-serif" font-size="11.2" lengthAdjust="spacing" textLength="36.8" x="1624.2" y="643.4375">Course</text><line style="stroke:#181818;stroke-width:0.4000000000000001;" x1="1564" x2="1695.2" y1="651.6" y2="651.6"/><rect fill="none" height="4.8" style="stroke:#C82930;stroke-width:0.8000000000000002;" width="4.8" x="1569.6" y="661.0484"/><text fill="#000000" font-family="sans-serif" font-size="11.2" lengthAdjust="spacing" textLength="24.8" x="1579.2" y="666.8859">code</text><rect fill="none" height="4.8" style="stroke:#C82930;stroke-width:0.8000000000000002;" width="4.8" x="1569.6" y="675.9453"/><text fill="#000000" font-family="sans-serif" font-size="11.2" lengthAdjust="spacing" textLength="17.6" x="1579.2" y="681.7828">title</text><rect fill="none" height="4.8" style="stroke:#C82930;stroke-width:0.8000000000000002;" width="4.8" x="1569.6" y="690.8422"/><text fill="#000000" font-family="sans-serif" font-size="11.2" lengthAdjust="spacing" textLength="55.2" x="1579.2" y="696.6797">description</text><rect fill="none" height="4.8" style="stroke:#C82930;stroke-width:0.8000000000000002;" width="4.8" x="1569.6" y="705.7391"/><text fill="#000000" font-family="sans-serif" font-size="11.2" lengthAdjust="spacing" textLength="79.2" x="1579.2" y="711.5766">enrolmentLimits</text><rect fill="none" height="4.8" style="stroke:#C82930;stroke-width:0.8000000000000002;" width="4.8" x="1569.6" y="720.6359"/><text fill="#000000" font-family="sans-serif" font-size="11.2" lengthAdjust="spacing" textLength="60.8" x="1579.2" y="726.4734">courseState</text><rect fill="none" height="4.8" style="stroke:#C82930;stroke-width:0.8000000000000002;" width="4.8" x="1569.6" y="735.5328"/><text fill="#000000" font-family="sans-serif" font-size="11.2" lengthAdjust="spacing" textLength="112" x="1579.2" y="741.3703">courseEnrolmentState</text><rect fill="none" height="4.8" style="stroke:#C82930;stroke-width:0.8000000000000002;" width="4.8" x="1569.6" y="750.4297"/><text fill="#000000" font-family="sans-serif" font-size="11.2" lengthAdjust="spacing" textLength="48.8" x="1579.2" y="756.2672">createdAt</text><line style="stroke:#181818;stroke-width:0.4000000000000001;" x1="1564" x2="1695.2" y1="762.2781" y2="762.2781"/><ellipse cx="1572" cy="774.1266" fill="#84BE84" rx="2.4" ry="2.4" style="stroke:#038048;stroke-width:0.8000000000000002;"/><text fill="#000000" font-family="sans-serif" font-size="11.2" lengthAdjust="spacing" textLength="35.2" x="1579.2" y="777.5641">toDto()</text></g><!--class CourseDTO--><g id="elem_CourseDTO"><rect codeLine="83" fill="#F1F1F1" height="142.6781" id="CourseDTO" rx="2" ry="2" style="stroke:#181818;stroke-width:0.4000000000000001;" width="132.8" x="1724" y="633.6"/><ellipse cx="1756.88" cy="646.4" fill="#ADD1B2" rx="8.8" ry="8.8" style="stroke:#181818;stroke-width:0.8000000000000002;"/><path d="M1759.0925,643.1 Q1759.2175,642.925 1759.3675,642.8375 Q1759.5175,642.75 1759.6925,642.75 Q1759.9925,642.75 1760.18,642.9625 Q1760.3675,643.1625 1760.3675,643.65 L1760.3675,644.8125 Q1760.3675,645.3 1760.18,645.5125 Q1759.9925,645.725 1759.6925,645.725 Q1759.4175,645.725 1759.255,645.5625 Q1759.0925,645.4125 1759.005,645 Q1758.9675,644.7125 1758.8175,644.5625 Q1758.555,644.2625 1758.0675,644.0875 Q1757.58,643.9125 1757.08,643.9125 Q1756.4675,643.9125 1755.955,644.175 Q1755.455,644.4375 1755.055,645.0375 Q1754.6675,645.6375 1754.6675,646.4625 L1754.6675,647.3375 Q1754.6675,648.325 1755.38,648.9875 Q1756.0925,649.6375 1757.3675,649.6375 Q1758.1175,649.6375 1758.6425,649.4375 Q1758.955,649.3125 1759.2925,648.9625 Q1759.505,648.75 1759.6175,648.6875 Q1759.7425,648.625 1759.905,648.625 Q1760.1675,648.625 1760.3675,648.8375 Q1760.58,649.0375 1760.58,649.3125 Q1760.58,649.5875 1760.305,649.9125 Q1759.905,650.375 1759.2675,650.6375 Q1758.405,651 1757.3675,651 Q1756.155,651 1755.1925,650.5 Q1754.405,650.1 1753.855,649.25 Q1753.305,648.3875 1753.305,647.3625 L1753.305,646.4375 Q1753.305,645.375 1753.7925,644.4625 Q1754.2925,643.5375 1755.1675,643.05 Q1756.0425,642.55 1757.03,642.55 Q1757.6175,642.55 1758.13,642.6875 Q1758.655,642.8125 1759.0925,643.1 Z " fill="#000000"/><text fill="#000000" font-family="sans-serif" font-size="11.2" lengthAdjust="spacing" textLength="60.8" x="1772.72" y="651.0375">CourseDTO</text><line style="stroke:#181818;stroke-width:0.4000000000000001;" x1="1724.8" x2="1856" y1="659.2" y2="659.2"/><rect fill="none" height="4.8" style="stroke:#C82930;stroke-width:0.8000000000000002;" width="4.8" x="1730.4" y="668.6484"/><text fill="#000000" font-family="sans-serif" font-size="11.2" lengthAdjust="spacing" textLength="24.8" x="1740" y="674.4859">code</text><rect fill="none" height="4.8" style="stroke:#C82930;stroke-width:0.8000000000000002;" width="4.8" x="1730.4" y="683.5453"/><text fill="#000000" font-family="sans-serif" font-size="11.2" lengthAdjust="spacing" textLength="17.6" x="1740" y="689.3828">title</text><rect fill="none" height="4.8" style="stroke:#C82930;stroke-width:0.8000000000000002;" width="4.8" x="1730.4" y="698.4422"/><text fill="#000000" font-family="sans-serif" font-size="11.2" lengthAdjust="spacing" textLength="55.2" x="1740" y="704.2797">description</text><rect fill="none" height="4.8" style="stroke:#C82930;stroke-width:0.8000000000000002;" width="4.8" x="1730.4" y="713.3391"/><text fill="#000000" font-family="sans-serif" font-size="11.2" lengthAdjust="spacing" textLength="79.2" x="1740" y="719.1766">enrolmentLimits</text><rect fill="none" height="4.8" style="stroke:#C82930;stroke-width:0.8000000000000002;" width="4.8" x="1730.4" y="728.2359"/><text fill="#000000" font-family="sans-serif" font-size="11.2" lengthAdjust="spacing" textLength="60.8" x="1740" y="734.0734">courseState</text><rect fill="none" height="4.8" style="stroke:#C82930;stroke-width:0.8000000000000002;" width="4.8" x="1730.4" y="743.1328"/><text fill="#000000" font-family="sans-serif" font-size="11.2" lengthAdjust="spacing" textLength="112" x="1740" y="748.9703">courseEnrolmentState</text><rect fill="none" height="4.8" style="stroke:#C82930;stroke-width:0.8000000000000002;" width="4.8" x="1730.4" y="758.0297"/><text fill="#000000" font-family="sans-serif" font-size="11.2" lengthAdjust="spacing" textLength="48.8" x="1740" y="763.8672">createdAt</text><line style="stroke:#181818;stroke-width:0.4000000000000001;" x1="1724.8" x2="1856" y1="769.8781" y2="769.8781"/></g><!--class EvaluationExamRepository--><g id="elem_EvaluationExamRepository"><rect codeLine="93" fill="#F1F1F1" height="53.2969" id="EvaluationExamRepository" rx="2" ry="2" style="stroke:#181818;stroke-width:0.4000000000000001;" width="163.2" x="296.8" y="678"/><ellipse cx="310.6" cy="690.8" fill="#B4A7E5" rx="8.8" ry="8.8" style="stroke:#181818;stroke-width:0.8000000000000002;"/><path d="M311.3625,688.1125 L311.3625,693.4375 L312.7375,693.4375 Q313.225,693.4375 313.4375,693.625 Q313.65,693.8125 313.65,694.125 Q313.65,694.425 313.4375,694.6125 Q313.225,694.8 312.7375,694.8 L308.625,694.8 Q308.1375,694.8 307.925,694.6125 Q307.7125,694.425 307.7125,694.1125 Q307.7125,693.8125 307.925,693.625 Q308.1375,693.4375 308.625,693.4375 L310,693.4375 L310,688.1125 L308.625,688.1125 Q308.1375,688.1125 307.925,687.925 Q307.7125,687.7375 307.7125,687.425 Q307.7125,687.125 307.925,686.9375 Q308.1375,686.75 308.625,686.75 L312.7375,686.75 Q313.225,686.75 313.4375,686.9375 Q313.65,687.125 313.65,687.425 Q313.65,687.7375 313.4375,687.925 Q313.225,688.1125 312.7375,688.1125 L311.3625,688.1125 Z " fill="#000000"/><text fill="#000000" font-family="sans-serif" font-size="11.2" font-style="italic" lengthAdjust="spacing" textLength="133.6" x="322.2" y="695.4375">EvaluationExamRepository</text><line style="stroke:#181818;stroke-width:0.4000000000000001;" x1="297.6" x2="459.2" y1="703.6" y2="703.6"/><line style="stroke:#181818;stroke-width:0.4000000000000001;" x1="297.6" x2="459.2" y1="710" y2="710"/><ellipse cx="305.6" cy="721.8484" fill="#84BE84" rx="2.4" ry="2.4" style="stroke:#038048;stroke-width:0.8000000000000002;"/><text fill="#000000" font-family="sans-serif" font-size="11.2" lengthAdjust="spacing" textLength="142.4" x="312.8" y="725.2859">findAllCourseExams(course)</text></g><!--class EvaluationExamListService--><g id="elem_EvaluationExamListService"><rect codeLine="98" fill="#F1F1F1" height="112.8844" id="EvaluationExamListService" rx="2" ry="2" style="stroke:#181818;stroke-width:0.4000000000000001;" width="244.8" x="175.2" y="435.6"/><ellipse cx="226.6" cy="448.4" fill="#ADD1B2" rx="8.8" ry="8.8" style="stroke:#181818;stroke-width:0.8000000000000002;"/><path d="M228.8125,445.1 Q228.9375,444.925 229.0875,444.8375 Q229.2375,444.75 229.4125,444.75 Q229.7125,444.75 229.9,444.9625 Q230.0875,445.1625 230.0875,445.65 L230.0875,446.8125 Q230.0875,447.3 229.9,447.5125 Q229.7125,447.725 229.4125,447.725 Q229.1375,447.725 228.975,447.5625 Q228.8125,447.4125 228.725,447 Q228.6875,446.7125 228.5375,446.5625 Q228.275,446.2625 227.7875,446.0875 Q227.3,445.9125 226.8,445.9125 Q226.1875,445.9125 225.675,446.175 Q225.175,446.4375 224.775,447.0375 Q224.3875,447.6375 224.3875,448.4625 L224.3875,449.3375 Q224.3875,450.325 225.1,450.9875 Q225.8125,451.6375 227.0875,451.6375 Q227.8375,451.6375 228.3625,451.4375 Q228.675,451.3125 229.0125,450.9625 Q229.225,450.75 229.3375,450.6875 Q229.4625,450.625 229.625,450.625 Q229.8875,450.625 230.0875,450.8375 Q230.3,451.0375 230.3,451.3125 Q230.3,451.5875 230.025,451.9125 Q229.625,452.375 228.9875,452.6375 Q228.125,453 227.0875,453 Q225.875,453 224.9125,452.5 Q224.125,452.1 223.575,451.25 Q223.025,450.3875 223.025,449.3625 L223.025,448.4375 Q223.025,447.375 223.5125,446.4625 Q224.0125,445.5375 224.8875,445.05 Q225.7625,444.55 226.75,444.55 Q227.3375,444.55 227.85,444.6875 Q228.375,444.8125 228.8125,445.1 Z " fill="#000000"/><text fill="#000000" font-family="sans-serif" font-size="11.2" lengthAdjust="spacing" textLength="135.2" x="243" y="453.0375">EvaluationExamListService</text><line style="stroke:#181818;stroke-width:0.4000000000000001;" x1="176" x2="419.2" y1="461.2" y2="461.2"/><rect fill="none" height="4.8" style="stroke:#C82930;stroke-width:0.8000000000000002;" width="4.8" x="181.6" y="470.6484"/><text fill="#000000" font-family="sans-serif" font-size="11.2" lengthAdjust="spacing" textLength="80.8" x="191.2" y="476.4859">examRepository</text><line style="stroke:#181818;stroke-width:0.4000000000000001;" x1="176" x2="419.2" y1="482.4969" y2="482.4969"/><ellipse cx="184" cy="494.3453" fill="#84BE84" rx="2.4" ry="2.4" style="stroke:#038048;stroke-width:0.8000000000000002;"/><text fill="#000000" font-family="sans-serif" font-size="11.2" lengthAdjust="spacing" textLength="224" x="191.2" y="497.7828">EvaluationExamListService(examRepository)</text><text fill="#000000" font-family="sans-serif" font-size="11.2" lengthAdjust="spacing" textLength="3.2" x="191.2" y="512.6797">&#160;</text><ellipse cx="184" cy="524.1391" fill="#84BE84" rx="2.4" ry="2.4" style="stroke:#038048;stroke-width:0.8000000000000002;"/><text fill="#000000" font-family="sans-serif" font-size="11.2" lengthAdjust="spacing" textLength="147.2" x="191.2" y="527.5766">findExamByCode(examCode)</text><ellipse cx="184" cy="539.0359" fill="#84BE84" rx="2.4" ry="2.4" style="stroke:#038048;stroke-width:0.8000000000000002;"/><text fill="#000000" font-family="sans-serif" font-size="11.2" lengthAdjust="spacing" textLength="137.6" x="191.2" y="542.4734">listAllCourseExams(course)</text></g><!--class EvaluationExamDTO--><g id="elem_EvaluationExamDTO"><rect codeLine="107" fill="#F1F1F1" height="172.4719" id="EvaluationExamDTO" rx="2" ry="2" style="stroke:#181818;stroke-width:0.4000000000000001;" width="129.6" x="5.6" y="618.4"/><ellipse cx="17.6" cy="631.2" fill="#ADD1B2" rx="8.8" ry="8.8" style="stroke:#181818;stroke-width:0.8000000000000002;"/><path d="M19.8125,627.9 Q19.9375,627.725 20.0875,627.6375 Q20.2375,627.55 20.4125,627.55 Q20.7125,627.55 20.9,627.7625 Q21.0875,627.9625 21.0875,628.45 L21.0875,629.6125 Q21.0875,630.1 20.9,630.3125 Q20.7125,630.525 20.4125,630.525 Q20.1375,630.525 19.975,630.3625 Q19.8125,630.2125 19.725,629.8 Q19.6875,629.5125 19.5375,629.3625 Q19.275,629.0625 18.7875,628.8875 Q18.3,628.7125 17.8,628.7125 Q17.1875,628.7125 16.675,628.975 Q16.175,629.2375 15.775,629.8375 Q15.3875,630.4375 15.3875,631.2625 L15.3875,632.1375 Q15.3875,633.125 16.1,633.7875 Q16.8125,634.4375 18.0875,634.4375 Q18.8375,634.4375 19.3625,634.2375 Q19.675,634.1125 20.0125,633.7625 Q20.225,633.55 20.3375,633.4875 Q20.4625,633.425 20.625,633.425 Q20.8875,633.425 21.0875,633.6375 Q21.3,633.8375 21.3,634.1125 Q21.3,634.3875 21.025,634.7125 Q20.625,635.175 19.9875,635.4375 Q19.125,635.8 18.0875,635.8 Q16.875,635.8 15.9125,635.3 Q15.125,634.9 14.575,634.05 Q14.025,633.1875 14.025,632.1625 L14.025,631.2375 Q14.025,630.175 14.5125,629.2625 Q15.0125,628.3375 15.8875,627.85 Q16.7625,627.35 17.75,627.35 Q18.3375,627.35 18.85,627.4875 Q19.375,627.6125 19.8125,627.9 Z " fill="#000000"/><text fill="#000000" font-family="sans-serif" font-size="11.2" lengthAdjust="spacing" textLength="104" x="28.8" y="635.8375">EvaluationExamDTO</text><line style="stroke:#181818;stroke-width:0.4000000000000001;" x1="6.4" x2="134.4" y1="644" y2="644"/><rect fill="none" height="4.8" style="stroke:#C82930;stroke-width:0.8000000000000002;" width="4.8" x="12" y="653.4484"/><text fill="#000000" font-family="sans-serif" font-size="11.2" lengthAdjust="spacing" textLength="24.8" x="21.6" y="659.2859">code</text><rect fill="none" height="4.8" style="stroke:#C82930;stroke-width:0.8000000000000002;" width="4.8" x="12" y="668.3453"/><text fill="#000000" font-family="sans-serif" font-size="11.2" lengthAdjust="spacing" textLength="17.6" x="21.6" y="674.1828">title</text><rect fill="none" height="4.8" style="stroke:#C82930;stroke-width:0.8000000000000002;" width="4.8" x="12" y="683.2422"/><text fill="#000000" font-family="sans-serif" font-size="11.2" lengthAdjust="spacing" textLength="34.4" x="21.6" y="689.0797">course</text><rect fill="none" height="4.8" style="stroke:#C82930;stroke-width:0.8000000000000002;" width="4.8" x="12" y="698.1391"/><text fill="#000000" font-family="sans-serif" font-size="11.2" lengthAdjust="spacing" textLength="38.4" x="21.6" y="703.9766">teacher</text><rect fill="none" height="4.8" style="stroke:#C82930;stroke-width:0.8000000000000002;" width="4.8" x="12" y="713.0359"/><text fill="#000000" font-family="sans-serif" font-size="11.2" lengthAdjust="spacing" textLength="47.2" x="21.6" y="718.8734">startTime</text><rect fill="none" height="4.8" style="stroke:#C82930;stroke-width:0.8000000000000002;" width="4.8" x="12" y="727.9328"/><text fill="#000000" font-family="sans-serif" font-size="11.2" lengthAdjust="spacing" textLength="44" x="21.6" y="733.7703">endTime</text><rect fill="none" height="4.8" style="stroke:#C82930;stroke-width:0.8000000000000002;" width="4.8" x="12" y="742.8297"/><text fill="#000000" font-family="sans-serif" font-size="11.2" lengthAdjust="spacing" textLength="43.2" x="21.6" y="748.6672">identifier</text><rect fill="none" height="4.8" style="stroke:#C82930;stroke-width:0.8000000000000002;" width="4.8" x="12" y="757.7266"/><text fill="#000000" font-family="sans-serif" font-size="11.2" lengthAdjust="spacing" textLength="55.2" x="21.6" y="763.5641">description</text><rect fill="none" height="4.8" style="stroke:#C82930;stroke-width:0.8000000000000002;" width="4.8" x="12" y="772.6234"/><text fill="#000000" font-family="sans-serif" font-size="11.2" lengthAdjust="spacing" textLength="24.8" x="21.6" y="778.4609">state</text><line style="stroke:#181818;stroke-width:0.4000000000000001;" x1="6.4" x2="134.4" y1="784.4719" y2="784.4719"/></g><!--class EvaluationExam--><g id="elem_EvaluationExam"><rect codeLine="119" fill="#F1F1F1" height="187.3688" id="EvaluationExam" rx="2" ry="2" style="stroke:#181818;stroke-width:0.4000000000000001;" width="105.6" x="163.2" y="611.2"/><ellipse cx="175.2" cy="624" fill="#ADD1B2" rx="8.8" ry="8.8" style="stroke:#181818;stroke-width:0.8000000000000002;"/><path d="M177.4125,620.7 Q177.5375,620.525 177.6875,620.4375 Q177.8375,620.35 178.0125,620.35 Q178.3125,620.35 178.5,620.5625 Q178.6875,620.7625 178.6875,621.25 L178.6875,622.4125 Q178.6875,622.9 178.5,623.1125 Q178.3125,623.325 178.0125,623.325 Q177.7375,623.325 177.575,623.1625 Q177.4125,623.0125 177.325,622.6 Q177.2875,622.3125 177.1375,622.1625 Q176.875,621.8625 176.3875,621.6875 Q175.9,621.5125 175.4,621.5125 Q174.7875,621.5125 174.275,621.775 Q173.775,622.0375 173.375,622.6375 Q172.9875,623.2375 172.9875,624.0625 L172.9875,624.9375 Q172.9875,625.925 173.7,626.5875 Q174.4125,627.2375 175.6875,627.2375 Q176.4375,627.2375 176.9625,627.0375 Q177.275,626.9125 177.6125,626.5625 Q177.825,626.35 177.9375,626.2875 Q178.0625,626.225 178.225,626.225 Q178.4875,626.225 178.6875,626.4375 Q178.9,626.6375 178.9,626.9125 Q178.9,627.1875 178.625,627.5125 Q178.225,627.975 177.5875,628.2375 Q176.725,628.6 175.6875,628.6 Q174.475,628.6 173.5125,628.1 Q172.725,627.7 172.175,626.85 Q171.625,625.9875 171.625,624.9625 L171.625,624.0375 Q171.625,622.975 172.1125,622.0625 Q172.6125,621.1375 173.4875,620.65 Q174.3625,620.15 175.35,620.15 Q175.9375,620.15 176.45,620.2875 Q176.975,620.4125 177.4125,620.7 Z " fill="#000000"/><text fill="#000000" font-family="sans-serif" font-size="11.2" lengthAdjust="spacing" textLength="80" x="186.4" y="628.6375">EvaluationExam</text><line style="stroke:#181818;stroke-width:0.4000000000000001;" x1="164" x2="268" y1="636.8" y2="636.8"/><rect fill="none" height="4.8" style="stroke:#C82930;stroke-width:0.8000000000000002;" width="4.8" x="169.6" y="646.2484"/><text fill="#000000" font-family="sans-serif" font-size="11.2" lengthAdjust="spacing" textLength="24.8" x="179.2" y="652.0859">code</text><rect fill="none" height="4.8" style="stroke:#C82930;stroke-width:0.8000000000000002;" width="4.8" x="169.6" y="661.1453"/><text fill="#000000" font-family="sans-serif" font-size="11.2" lengthAdjust="spacing" textLength="17.6" x="179.2" y="666.9828">title</text><rect fill="none" height="4.8" style="stroke:#C82930;stroke-width:0.8000000000000002;" width="4.8" x="169.6" y="676.0422"/><text fill="#000000" font-family="sans-serif" font-size="11.2" lengthAdjust="spacing" textLength="34.4" x="179.2" y="681.8797">course</text><rect fill="none" height="4.8" style="stroke:#C82930;stroke-width:0.8000000000000002;" width="4.8" x="169.6" y="690.9391"/><text fill="#000000" font-family="sans-serif" font-size="11.2" lengthAdjust="spacing" textLength="38.4" x="179.2" y="696.7766">teacher</text><rect fill="none" height="4.8" style="stroke:#C82930;stroke-width:0.8000000000000002;" width="4.8" x="169.6" y="705.8359"/><text fill="#000000" font-family="sans-serif" font-size="11.2" lengthAdjust="spacing" textLength="47.2" x="179.2" y="711.6734">startTime</text><rect fill="none" height="4.8" style="stroke:#C82930;stroke-width:0.8000000000000002;" width="4.8" x="169.6" y="720.7328"/><text fill="#000000" font-family="sans-serif" font-size="11.2" lengthAdjust="spacing" textLength="44" x="179.2" y="726.5703">endTime</text><rect fill="none" height="4.8" style="stroke:#C82930;stroke-width:0.8000000000000002;" width="4.8" x="169.6" y="735.6297"/><text fill="#000000" font-family="sans-serif" font-size="11.2" lengthAdjust="spacing" textLength="43.2" x="179.2" y="741.4672">identifier</text><rect fill="none" height="4.8" style="stroke:#C82930;stroke-width:0.8000000000000002;" width="4.8" x="169.6" y="750.5266"/><text fill="#000000" font-family="sans-serif" font-size="11.2" lengthAdjust="spacing" textLength="55.2" x="179.2" y="756.3641">description</text><rect fill="none" height="4.8" style="stroke:#C82930;stroke-width:0.8000000000000002;" width="4.8" x="169.6" y="765.4234"/><text fill="#000000" font-family="sans-serif" font-size="11.2" lengthAdjust="spacing" textLength="24.8" x="179.2" y="771.2609">state</text><line style="stroke:#181818;stroke-width:0.4000000000000001;" x1="164" x2="268" y1="777.2719" y2="777.2719"/><ellipse cx="172" cy="789.1203" fill="#84BE84" rx="2.4" ry="2.4" style="stroke:#038048;stroke-width:0.8000000000000002;"/><text fill="#000000" font-family="sans-serif" font-size="11.2" lengthAdjust="spacing" textLength="35.2" x="179.2" y="792.5578">toDto()</text></g><!--class EnrolmentService--><g id="elem_EnrolmentService"><rect codeLine="132" fill="#F1F1F1" height="97.9875" id="EnrolmentService" rx="2" ry="2" style="stroke:#181818;stroke-width:0.4000000000000001;" width="222.4" x="807.2" y="443.2"/><ellipse cx="870.6" cy="456" fill="#ADD1B2" rx="8.8" ry="8.8" style="stroke:#181818;stroke-width:0.8000000000000002;"/><path d="M872.8125,452.7 Q872.9375,452.525 873.0875,452.4375 Q873.2375,452.35 873.4125,452.35 Q873.7125,452.35 873.9,452.5625 Q874.0875,452.7625 874.0875,453.25 L874.0875,454.4125 Q874.0875,454.9 873.9,455.1125 Q873.7125,455.325 873.4125,455.325 Q873.1375,455.325 872.975,455.1625 Q872.8125,455.0125 872.725,454.6 Q872.6875,454.3125 872.5375,454.1625 Q872.275,453.8625 871.7875,453.6875 Q871.3,453.5125 870.8,453.5125 Q870.1875,453.5125 869.675,453.775 Q869.175,454.0375 868.775,454.6375 Q868.3875,455.2375 868.3875,456.0625 L868.3875,456.9375 Q868.3875,457.925 869.1,458.5875 Q869.8125,459.2375 871.0875,459.2375 Q871.8375,459.2375 872.3625,459.0375 Q872.675,458.9125 873.0125,458.5625 Q873.225,458.35 873.3375,458.2875 Q873.4625,458.225 873.625,458.225 Q873.8875,458.225 874.0875,458.4375 Q874.3,458.6375 874.3,458.9125 Q874.3,459.1875 874.025,459.5125 Q873.625,459.975 872.9875,460.2375 Q872.125,460.6 871.0875,460.6 Q869.875,460.6 868.9125,460.1 Q868.125,459.7 867.575,458.85 Q867.025,457.9875 867.025,456.9625 L867.025,456.0375 Q867.025,454.975 867.5125,454.0625 Q868.0125,453.1375 868.8875,452.65 Q869.7625,452.15 870.75,452.15 Q871.3375,452.15 871.85,452.2875 Q872.375,452.4125 872.8125,452.7 Z " fill="#000000"/><text fill="#000000" font-family="sans-serif" font-size="11.2" lengthAdjust="spacing" textLength="88.8" x="887" y="460.6375">EnrolmentService</text><line style="stroke:#181818;stroke-width:0.4000000000000001;" x1="808" x2="1028.8" y1="468.8" y2="468.8"/><rect fill="none" height="4.8" style="stroke:#C82930;stroke-width:0.8000000000000002;" width="4.8" x="813.6" y="478.2484"/><text fill="#000000" font-family="sans-serif" font-size="11.2" lengthAdjust="spacing" textLength="104.8" x="823.2" y="484.0859">enrolmentRepository</text><line style="stroke:#181818;stroke-width:0.4000000000000001;" x1="808" x2="1028.8" y1="490.0969" y2="490.0969"/><ellipse cx="816" cy="501.9453" fill="#84BE84" rx="2.4" ry="2.4" style="stroke:#038048;stroke-width:0.8000000000000002;"/><text fill="#000000" font-family="sans-serif" font-size="11.2" lengthAdjust="spacing" textLength="201.6" x="823.2" y="505.3828">EnrolmentService(enrolmentRepository)</text><text fill="#000000" font-family="sans-serif" font-size="11.2" lengthAdjust="spacing" textLength="3.2" x="823.2" y="520.2797">&#160;</text><ellipse cx="816" cy="531.7391" fill="#84BE84" rx="2.4" ry="2.4" style="stroke:#038048;stroke-width:0.8000000000000002;"/><text fill="#000000" font-family="sans-serif" font-size="11.2" lengthAdjust="spacing" textLength="169.6" x="823.2" y="535.1766">listStudentsEnrolled(courseCode)</text></g><!--class EnrolmentRepository--><g id="elem_EnrolmentRepository"><rect codeLine="141" fill="#F1F1F1" height="53.2969" id="EnrolmentRepository" rx="2" ry="2" style="stroke:#181818;stroke-width:0.4000000000000001;" width="192.8" x="770" y="678"/><ellipse cx="810.2" cy="690.8" fill="#B4A7E5" rx="8.8" ry="8.8" style="stroke:#181818;stroke-width:0.8000000000000002;"/><path d="M810.9625,688.1125 L810.9625,693.4375 L812.3375,693.4375 Q812.825,693.4375 813.0375,693.625 Q813.25,693.8125 813.25,694.125 Q813.25,694.425 813.0375,694.6125 Q812.825,694.8 812.3375,694.8 L808.225,694.8 Q807.7375,694.8 807.525,694.6125 Q807.3125,694.425 807.3125,694.1125 Q807.3125,693.8125 807.525,693.625 Q807.7375,693.4375 808.225,693.4375 L809.6,693.4375 L809.6,688.1125 L808.225,688.1125 Q807.7375,688.1125 807.525,687.925 Q807.3125,687.7375 807.3125,687.425 Q807.3125,687.125 807.525,686.9375 Q807.7375,686.75 808.225,686.75 L812.3375,686.75 Q812.825,686.75 813.0375,686.9375 Q813.25,687.125 813.25,687.425 Q813.25,687.7375 813.0375,687.925 Q812.825,688.1125 812.3375,688.1125 L810.9625,688.1125 Z " fill="#000000"/><text fill="#000000" font-family="sans-serif" font-size="11.2" font-style="italic" lengthAdjust="spacing" textLength="105.6" x="826.6" y="695.4375">EnrolmentRepository</text><line style="stroke:#181818;stroke-width:0.4000000000000001;" x1="770.8" x2="962" y1="703.6" y2="703.6"/><line style="stroke:#181818;stroke-width:0.4000000000000001;" x1="770.8" x2="962" y1="710" y2="710"/><ellipse cx="778.8" cy="721.8484" fill="#84BE84" rx="2.4" ry="2.4" style="stroke:#038048;stroke-width:0.8000000000000002;"/><text fill="#000000" font-family="sans-serif" font-size="11.2" lengthAdjust="spacing" textLength="172" x="786" y="725.2859">findCourseAccepted(courseCode)</text></g><!--class RepositoryFactory--><g id="elem_RepositoryFactory"><rect codeLine="145" fill="#F1F1F1" height="53.2969" id="RepositoryFactory" rx="2" ry="2" style="stroke:#181818;stroke-width:0.4000000000000001;" width="121.6" x="657.6" y="465.2"/><ellipse cx="671.04" cy="478" fill="#ADD1B2" rx="8.8" ry="8.8" style="stroke:#181818;stroke-width:0.8000000000000002;"/><path d="M673.2525,474.7 Q673.3775,474.525 673.5275,474.4375 Q673.6775,474.35 673.8525,474.35 Q674.1525,474.35 674.34,474.5625 Q674.5275,474.7625 674.5275,475.25 L674.5275,476.4125 Q674.5275,476.9 674.34,477.1125 Q674.1525,477.325 673.8525,477.325 Q673.5775,477.325 673.415,477.1625 Q673.2525,477.0125 673.165,476.6 Q673.1275,476.3125 672.9775,476.1625 Q672.715,475.8625 672.2275,475.6875 Q671.74,475.5125 671.24,475.5125 Q670.6275,475.5125 670.115,475.775 Q669.615,476.0375 669.215,476.6375 Q668.8275,477.2375 668.8275,478.0625 L668.8275,478.9375 Q668.8275,479.925 669.54,480.5875 Q670.2525,481.2375 671.5275,481.2375 Q672.2775,481.2375 672.8025,481.0375 Q673.115,480.9125 673.4525,480.5625 Q673.665,480.35 673.7775,480.2875 Q673.9025,480.225 674.065,480.225 Q674.3275,480.225 674.5275,480.4375 Q674.74,480.6375 674.74,480.9125 Q674.74,481.1875 674.465,481.5125 Q674.065,481.975 673.4275,482.2375 Q672.565,482.6 671.5275,482.6 Q670.315,482.6 669.3525,482.1 Q668.565,481.7 668.015,480.85 Q667.465,479.9875 667.465,478.9625 L667.465,478.0375 Q667.465,476.975 667.9525,476.0625 Q668.4525,475.1375 669.3275,474.65 Q670.2025,474.15 671.19,474.15 Q671.7775,474.15 672.29,474.2875 Q672.815,474.4125 673.2525,474.7 Z " fill="#000000"/><text fill="#000000" font-family="sans-serif" font-size="11.2" lengthAdjust="spacing" textLength="92.8" x="682.56" y="482.6375">RepositoryFactory</text><line style="stroke:#181818;stroke-width:0.4000000000000001;" x1="658.4" x2="778.4" y1="490.8" y2="490.8"/><line style="stroke:#181818;stroke-width:0.4000000000000001;" x1="658.4" x2="778.4" y1="497.2" y2="497.2"/><ellipse cx="666.4" cy="509.0484" fill="#84BE84" rx="2.4" ry="2.4" style="stroke:#038048;stroke-width:0.8000000000000002;"/><text fill="#000000" font-family="sans-serif" font-size="11.2" lengthAdjust="spacing" textLength="100.8" x="673.6" y="512.4859">RepositoryFactory()</text></g><!--class StudentRepository--><g id="elem_StudentRepository"><rect codeLine="149" fill="#F1F1F1" height="53.2969" id="StudentRepository" rx="2" ry="2" style="stroke:#181818;stroke-width:0.4000000000000001;" width="253.6" x="488.4" y="678"/><ellipse cx="565" cy="690.8" fill="#B4A7E5" rx="8.8" ry="8.8" style="stroke:#181818;stroke-width:0.8000000000000002;"/><path d="M565.7625,688.1125 L565.7625,693.4375 L567.1375,693.4375 Q567.625,693.4375 567.8375,693.625 Q568.05,693.8125 568.05,694.125 Q568.05,694.425 567.8375,694.6125 Q567.625,694.8 567.1375,694.8 L563.025,694.8 Q562.5375,694.8 562.325,694.6125 Q562.1125,694.425 562.1125,694.1125 Q562.1125,693.8125 562.325,693.625 Q562.5375,693.4375 563.025,693.4375 L564.4,693.4375 L564.4,688.1125 L563.025,688.1125 Q562.5375,688.1125 562.325,687.925 Q562.1125,687.7375 562.1125,687.425 Q562.1125,687.125 562.325,686.9375 Q562.5375,686.75 563.025,686.75 L567.1375,686.75 Q567.625,686.75 567.8375,686.9375 Q568.05,687.125 568.05,687.425 Q568.05,687.7375 567.8375,687.925 Q567.625,688.1125 567.1375,688.1125 L565.7625,688.1125 Z " fill="#000000"/><text fill="#000000" font-family="sans-serif" font-size="11.2" font-style="italic" lengthAdjust="spacing" textLength="93.6" x="581.4" y="695.4375">StudentRepository</text><line style="stroke:#181818;stroke-width:0.4000000000000001;" x1="489.2" x2="741.2" y1="703.6" y2="703.6"/><line style="stroke:#181818;stroke-width:0.4000000000000001;" x1="489.2" x2="741.2" y1="710" y2="710"/><ellipse cx="497.2" cy="721.8484" fill="#84BE84" rx="2.4" ry="2.4" style="stroke:#038048;stroke-width:0.8000000000000002;"/><text fill="#000000" font-family="sans-serif" font-size="11.2" lengthAdjust="spacing" textLength="232.8" x="504.4" y="725.2859">findByMecanographicNumber(studentNumber)</text></g><!--class PersistenceContext--><g id="elem_PersistenceContext"><rect codeLine="154" fill="#F1F1F1" height="53.2969" id="PersistenceContext" rx="2" ry="2" style="stroke:#181818;stroke-width:0.4000000000000001;" width="123.2" x="476.8" y="181.2"/><ellipse cx="488.8" cy="194" fill="#ADD1B2" rx="8.8" ry="8.8" style="stroke:#181818;stroke-width:0.8000000000000002;"/><path d="M491.0125,190.7 Q491.1375,190.525 491.2875,190.4375 Q491.4375,190.35 491.6125,190.35 Q491.9125,190.35 492.1,190.5625 Q492.2875,190.7625 492.2875,191.25 L492.2875,192.4125 Q492.2875,192.9 492.1,193.1125 Q491.9125,193.325 491.6125,193.325 Q491.3375,193.325 491.175,193.1625 Q491.0125,193.0125 490.925,192.6 Q490.8875,192.3125 490.7375,192.1625 Q490.475,191.8625 489.9875,191.6875 Q489.5,191.5125 489,191.5125 Q488.3875,191.5125 487.875,191.775 Q487.375,192.0375 486.975,192.6375 Q486.5875,193.2375 486.5875,194.0625 L486.5875,194.9375 Q486.5875,195.925 487.3,196.5875 Q488.0125,197.2375 489.2875,197.2375 Q490.0375,197.2375 490.5625,197.0375 Q490.875,196.9125 491.2125,196.5625 Q491.425,196.35 491.5375,196.2875 Q491.6625,196.225 491.825,196.225 Q492.0875,196.225 492.2875,196.4375 Q492.5,196.6375 492.5,196.9125 Q492.5,197.1875 492.225,197.5125 Q491.825,197.975 491.1875,198.2375 Q490.325,198.6 489.2875,198.6 Q488.075,198.6 487.1125,198.1 Q486.325,197.7 485.775,196.85 Q485.225,195.9875 485.225,194.9625 L485.225,194.0375 Q485.225,192.975 485.7125,192.0625 Q486.2125,191.1375 487.0875,190.65 Q487.9625,190.15 488.95,190.15 Q489.5375,190.15 490.05,190.2875 Q490.575,190.4125 491.0125,190.7 Z " fill="#000000"/><text fill="#000000" font-family="sans-serif" font-size="11.2" lengthAdjust="spacing" textLength="97.6" x="500" y="198.6375">PersistenceContext</text><line style="stroke:#181818;stroke-width:0.4000000000000001;" x1="477.6" x2="599.2" y1="206.8" y2="206.8"/><line style="stroke:#181818;stroke-width:0.4000000000000001;" x1="477.6" x2="599.2" y1="213.2" y2="213.2"/><rect fill="#F24D5C" height="4.8" style="stroke:#C82930;stroke-width:0.8000000000000002;" width="4.8" x="483.2" y="222.6484"/><text fill="#000000" font-family="sans-serif" font-size="11.2" lengthAdjust="spacing" textLength="67.2" x="492.8" y="228.4859">repositories()</text></g><!--link ListCourseExamGradesUI to ListCourseExamGradesController--><g id="link_ListCourseExamGradesUI_ListCourseExamGradesController"><path codeLine="158" d="M728.904,44.016 C741.016,55.568 757.784,71.56 776.12,89.048 " fill="none" id="ListCourseExamGradesUI-to-ListCourseExamGradesController" style="stroke:#181818;stroke-width:0.8000000000000002;stroke-dasharray:7.0,7.0;"/><polygon fill="#181818" points="779.08,91.864,776.0745,84.5807,776.184,89.1048,771.6598,89.2143,779.08,91.864" style="stroke:#181818;stroke-width:0.8000000000000002;"/></g><!--link ListCourseExamGradesUI to PersistenceContext--><g id="link_ListCourseExamGradesUI_PersistenceContext"><path codeLine="159" d="M685.88,44.032 C669.992,56.816 648.96,74.608 632,92 C605.336,119.352 578.176,153.64 560.032,177.672 " fill="none" id="ListCourseExamGradesUI-to-PersistenceContext" style="stroke:#181818;stroke-width:0.8000000000000002;stroke-dasharray:7.0,7.0;"/><polygon fill="#181818" points="557.416,181.144,564.3047,177.3197,559.8233,177.9495,559.1935,173.468,557.416,181.144" style="stroke:#181818;stroke-width:0.8000000000000002;"/></g><!--link PersistenceContext to RepositoryFactory--><g id="link_PersistenceContext_RepositoryFactory"><path codeLine="160" d="M555.008,234.864 C588.52,287.44 664.04,405.912 699.424,461.432 " fill="none" id="PersistenceContext-to-RepositoryFactory" style="stroke:#181818;stroke-width:0.8000000000000002;stroke-dasharray:7.0,7.0;"/><polygon fill="#181818" points="701.696,465,700.5251,457.2084,699.5463,461.6268,695.1279,460.648,701.696,465" style="stroke:#181818;stroke-width:0.8000000000000002;"/></g><!--link RepositoryFactory to AnswerRepository--><g id="link_RepositoryFactory_AnswerRepository"><path codeLine="162" d="M740.328,519.008 C754.168,533.984 773.248,551.968 793.6,563.2 C867.288,603.872 905.168,567 976.8,611.2 C1002.6,627.12 1024.784,653.744 1039.48,674.4 " fill="none" id="RepositoryFactory-to-AnswerRepository" style="stroke:#181818;stroke-width:0.8000000000000002;"/><polygon fill="#181818" points="1041.952,677.928,1040.4301,670.1973,1039.652,674.6554,1035.1939,673.8773,1041.952,677.928" style="stroke:#181818;stroke-width:0.8000000000000002;"/></g><!--link RepositoryFactory to CourseRepository--><g id="link_RepositoryFactory_CourseRepository"><path codeLine="163" d="M738.928,518.848 C752.672,534.36 772.128,552.96 793.6,563.2 C933.888,630.112 994.624,556.224 1140,611.2 C1179.576,626.168 1219.264,653.976 1246.224,675.272 " fill="none" id="RepositoryFactory-to-CourseRepository" style="stroke:#181818;stroke-width:0.8000000000000002;"/><polygon fill="#181818" points="1249.448,677.832,1245.8061,670.8451,1246.3178,675.3416,1241.8214,675.8534,1249.448,677.832" style="stroke:#181818;stroke-width:0.8000000000000002;"/></g><!--link RepositoryFactory to EvaluationExamRepository--><g id="link_RepositoryFactory_EvaluationExamRepository"><path codeLine="164" d="M657.576,515.968 C606.352,536.928 532.384,570.664 474.4,611.2 C448.16,629.544 422.296,655.104 404.032,674.76 " fill="none" id="RepositoryFactory-to-EvaluationExamRepository" style="stroke:#181818;stroke-width:0.8000000000000002;"/><polygon fill="#181818" points="401.168,677.856,408.408,674.7476,403.8859,674.9212,403.7123,670.399,401.168,677.856" style="stroke:#181818;stroke-width:0.8000000000000002;"/></g><!--link RepositoryFactory to EnrolmentRepository--><g id="link_RepositoryFactory_EnrolmentRepository"><path codeLine="165" d="M736.696,518.912 C764.376,558.416 816.744,633.144 845.752,674.536 " fill="none" id="RepositoryFactory-to-EnrolmentRepository" style="stroke:#181818;stroke-width:0.8000000000000002;"/><polygon fill="#181818" points="848.144,677.952,846.6348,670.2188,845.8494,674.6756,841.3926,673.8902,848.144,677.952" style="stroke:#181818;stroke-width:0.8000000000000002;"/></g><!--link RepositoryFactory to StudentRepository--><g id="link_RepositoryFactory_StudentRepository"><path codeLine="166" d="M705.64,518.912 C686.376,558.336 649.968,632.84 629.72,674.288 " fill="none" id="RepositoryFactory-to-StudentRepository" style="stroke:#181818;stroke-width:0.8000000000000002;"/><polygon fill="#181818" points="627.928,677.952,633.9521,672.8736,629.6756,674.354,628.1953,670.0774,627.928,677.952" style="stroke:#181818;stroke-width:0.8000000000000002;"/></g><!--link ListCourseExamGradesController to ListCourseService--><g id="link_ListCourseExamGradesController_ListCourseService"><path codeLine="168" d="M1153.608,307.872 C1243.848,343.288 1346.136,383.64 1439.2,420.8 C1449.92,425.08 1461,429.528 1472.144,434.008 " fill="none" id="ListCourseExamGradesController-to-ListCourseService" style="stroke:#181818;stroke-width:0.8000000000000002;"/><polygon fill="#181818" points="1475.92,435.536,1470.4445,429.8705,1472.2116,434.0366,1468.0455,435.8038,1475.92,435.536" style="stroke:#181818;stroke-width:0.8000000000000002;"/></g><!--link ListCourseExamGradesController to ListExamAnswerService--><g id="link_ListCourseExamGradesController_ListExamAnswerService"><path codeLine="169" d="M1012.984,324.072 C1052.52,364.408 1094.92,407.664 1126.68,440.064 " fill="none" id="ListCourseExamGradesController-to-ListExamAnswerService" style="stroke:#181818;stroke-width:0.8000000000000002;"/><polygon fill="#181818" points="1129.72,443.168,1126.966,435.7859,1126.9203,440.3111,1122.395,440.2654,1129.72,443.168" style="stroke:#181818;stroke-width:0.8000000000000002;"/></g><!--link ListCourseExamGradesController to EvaluationExamListService--><g id="link_ListCourseExamGradesController_EvaluationExamListService"><path codeLine="170" d="M654.112,324.072 C573.488,361.864 487.392,402.224 420.008,433.816 " fill="none" id="ListCourseExamGradesController-to-EvaluationExamListService" style="stroke:#181818;stroke-width:0.8000000000000002;"/><polygon fill="#181818" points="416.208,435.6,424.0853,435.4333,419.8281,433.8985,421.3629,429.6412,416.208,435.6" style="stroke:#181818;stroke-width:0.8000000000000002;"/></g><!--link ListCourseExamGradesController to EnrolmentService--><g id="link_ListCourseExamGradesController_EnrolmentService"><path codeLine="171" d="M907.512,324.072 C910.104,363.92 912.888,406.616 914.992,438.88 " fill="none" id="ListCourseExamGradesController-to-EnrolmentService" style="stroke:#181818;stroke-width:0.8000000000000002;"/><polygon fill="#181818" points="915.272,443.168,917.9916,435.7732,915.009,439.1767,911.6055,436.194,915.272,443.168" style="stroke:#181818;stroke-width:0.8000000000000002;"/></g><!--link ListCourseExamGradesController to StudentRepository--><g id="link_ListCourseExamGradesController_StudentRepository"><path codeLine="172" d="M721.744,324.168 C690.856,352.136 662.504,384.576 643.2,420.8 C599.04,503.664 605.016,619.576 611.024,673.8 " fill="none" id="ListCourseExamGradesController-to-StudentRepository" style="stroke:#181818;stroke-width:0.8000000000000002;"/><polygon fill="#181818" points="611.496,677.904,613.8742,670.3924,611.0505,673.9289,607.514,671.1052,611.496,677.904" style="stroke:#181818;stroke-width:0.8000000000000002;"/></g><!--link EvaluationExamListService to EvaluationExam--><g id="link_EvaluationExamListService_EvaluationExam"><path codeLine="174" d="M276.056,548.568 C269.072,566.632 261.12,587.216 253.336,607.368 " fill="none" id="EvaluationExamListService-to-EvaluationExam" style="stroke:#181818;stroke-width:0.8000000000000002;stroke-dasharray:7.0,7.0;"/><polygon fill="#181818" points="251.888,611.12,257.4685,605.5578,253.33,607.389,251.4989,603.2505,251.888,611.12" style="stroke:#181818;stroke-width:0.8000000000000002;"/></g><!--link EvaluationExamListService to EvaluationExamDTO--><g id="link_EvaluationExamListService_EvaluationExamDTO"><path codeLine="175" d="M221.76,548.464 C197.592,567.416 171.304,589.352 148.8,611.2 C145.256,614.64 141.696,618.232 138.168,621.92 " fill="none" id="EvaluationExamListService-to-EvaluationExamDTO" style="stroke:#181818;stroke-width:0.8000000000000002;stroke-dasharray:7.0,7.0;"/><polygon fill="#181818" points="135.208,625.032,142.4911,622.0258,137.9669,622.1357,137.857,617.6116,135.208,625.032" style="stroke:#181818;stroke-width:0.8000000000000002;"/></g><!--link EvaluationExamListService to EvaluationExamRepository--><g id="link_EvaluationExamListService_EvaluationExamRepository"><path codeLine="176" d="M318.936,548.568 C334.304,588.728 354.44,641.376 366.896,673.928 " fill="none" id="EvaluationExamListService-to-EvaluationExamRepository" style="stroke:#181818;stroke-width:0.8000000000000002;stroke-dasharray:7.0,7.0;"/><polygon fill="#181818" points="368.376,677.792,368.7942,669.924,366.9477,674.0557,362.8161,672.2092,368.376,677.792" style="stroke:#181818;stroke-width:0.8000000000000002;"/></g><!--link EnrolmentService to EnrolmentRepository--><g id="link_EnrolmentService_EnrolmentRepository"><path codeLine="179" d="M906.536,540.992 C896.464,581.904 882.32,639.328 873.792,673.976 " fill="none" id="EnrolmentService-to-EnrolmentRepository" style="stroke:#181818;stroke-width:0.8000000000000002;stroke-dasharray:7.0,7.0;"/><polygon fill="#181818" points="872.832,677.872,877.6655,671.6497,873.7914,673.9888,871.4523,670.1147,872.832,677.872" style="stroke:#181818;stroke-width:0.8000000000000002;"/></g><!--link ListCourseService to Course--><g id="link_ListCourseService_Course"><path codeLine="181" d="M1617.232,548.568 C1619.008,570.864 1621.088,597.008 1623.032,621.424 " fill="none" id="ListCourseService-to-Course" style="stroke:#181818;stroke-width:0.8000000000000002;stroke-dasharray:7.0,7.0;"/><polygon fill="#181818" points="1623.368,625.64,1625.982,618.2071,1623.0481,621.6528,1619.6024,618.719,1623.368,625.64" style="stroke:#181818;stroke-width:0.8000000000000002;"/></g><!--link ListCourseService to CourseDTO--><g id="link_ListCourseService_CourseDTO"><path codeLine="182" d="M1659.696,548.568 C1680.728,573.584 1705.832,603.432 1728.392,630.264 " fill="none" id="ListCourseService-to-CourseDTO" style="stroke:#181818;stroke-width:0.8000000000000002;stroke-dasharray:7.0,7.0;"/><polygon fill="#181818" points="1731.136,633.52,1728.9573,625.9481,1728.564,630.4565,1724.0557,630.0633,1731.136,633.52" style="stroke:#181818;stroke-width:0.8000000000000002;"/></g><!--link ListCourseService to CourseRepository--><g id="link_ListCourseService_CourseRepository"><path codeLine="183" d="M1521.376,548.4 C1489.424,568.04 1453.408,590.408 1420.8,611.2 C1387.472,632.448 1350.136,657.096 1322.288,675.648 " fill="none" id="ListCourseService-to-CourseRepository" style="stroke:#181818;stroke-width:0.8000000000000002;stroke-dasharray:7.0,7.0;"/><polygon fill="#181818" points="1318.944,677.88,1326.7098,676.5487,1322.2722,675.6612,1323.1597,671.2236,1318.944,677.88" style="stroke:#181818;stroke-width:0.8000000000000002;"/></g><!--link ListExamAnswerService to Answer--><g id="link_ListExamAnswerService_Answer"><path codeLine="185" d="M1296.056,492 C1303.96,492 1311.864,492 1319.768,492 " fill="none" id="ListExamAnswerService-to-Answer" style="stroke:#181818;stroke-width:0.8000000000000002;stroke-dasharray:7.0,7.0;"/><polygon fill="#181818" points="1323.904,492,1316.704,488.8,1319.904,492,1316.704,495.2,1323.904,492" style="stroke:#181818;stroke-width:0.8000000000000002;"/></g><!--link ListExamAnswerService to AnswerDTO--><g id="link_ListExamAnswerService_AnswerDTO"><path codeLine="186" d="M1265.816,540.848 C1280.616,548.504 1295.872,556.2 1310.4,563.2 C1358.312,586.28 1378.888,577.472 1420,611.2 C1429.144,618.704 1437.576,627.808 1445.112,637.344 " fill="none" id="ListExamAnswerService-to-AnswerDTO" style="stroke:#181818;stroke-width:0.8000000000000002;stroke-dasharray:7.0,7.0;"/><polygon fill="#181818" points="1447.64,640.6,1445.7398,632.9535,1445.1819,637.4444,1440.6909,636.8865,1447.64,640.6" style="stroke:#181818;stroke-width:0.8000000000000002;"/></g><!--link ListExamAnswerService to AnswerRepository--><g id="link_ListExamAnswerService_AnswerRepository"><path codeLine="187" d="M1149.784,540.992 C1126.8,581.984 1094.52,639.568 1075.112,674.184 " fill="none" id="ListExamAnswerService-to-AnswerRepository" style="stroke:#181818;stroke-width:0.8000000000000002;stroke-dasharray:7.0,7.0;"/><polygon fill="#181818" points="1073.048,677.872,1079.3603,673.1566,1075.0042,674.383,1073.7778,670.0268,1073.048,677.872" style="stroke:#181818;stroke-width:0.8000000000000002;"/></g><!--SRC=[lLPBRzim3BxxL_Ws6stI-meKIDDiAD1jnPfXPqrc6c5-11BJDHlstoTHiYrPTfe2sqwMgOyFaPz8lTaYxjJRYujToMhSL-MSDzK5BvbIiqAmHycg9A7Vz4ueN3PxgM3rpAhtaXMWljoclvBazp78igbHDcK9KaDdATlZjf7Y9qFHr0yWdmG7BOPQOogeiHSft1TQy1bsZHBOo8EMbPq3J_M9bNioPvoQ4FezWpVIHQr-W6pboTaBaMPZKPvxdlgWpbDEPZn9aY8mlWNfenX5u4kw8_l2wD2vYTRPim6hBDSYwtKLd5rbLdgp_cGWOMBi6JFGIzhl4gnkQslOQUTzFMtQg6uE_75VVGDvwGbO1URNs5qBBEd76Y8KRoGja7s7Ue6NT9pc1fiiygF3-hkkj7rH8yWDu-1yz8dLhixIZQYBHLb-5RWrEQBiv26VO_eGZGVMMav5w6o8f8AslFIAaezT8sU4qZBaMKZZrjqGHUxCCIti-c2_owPeiMQPkvXkwtlPF4fGod5jlMMujkox0uvxlPKvDkPXVfS3nphcDEqot1jsPehhWxCRs7CPiCR8X3bu0RH0KtHQwQHnANQ6s_JVtQKxKGbKJetoWWp1-rzrZQRVaA2NnG8JYZXYvxAzLFyzdY31uLqV9tBVqfH_czr1LbETalW5WLL3cqby5c8xZXcOOLXX4JwpfeCRYwrj1PJgDj5joep0KePw0vEu5fKT8eLR2TCln4OGn2yEAUWyJ_Zzjqv7kBKQp3rRYNWo95IF0JWR0NRjvS5rTr8geGXkUqYis4h7ALkp1UUmmzY6FKElzevnx-f7ycpW-64uxBoUSNtu09pLkcUmtLPmEmooO3JurBu7gVIXeUPWnZWyexkiiZKkQ71gZObtp7n-zSAhu9Xcx3yP2SaWewmaIPp0sUmg6bWJi67VdO1DTOyf-0W5nv5H4SSpx3q3PqOjcbmdQyK3-HJDoLvsclRmUNgAqaXcfZkmeKQu-ogmRfYlmWUT9Mf2X1zhGl7Bn42jvEYcYU_O_j19LEHqtjw8gVqEqFewXl7y_G40]--></g></svg>