<?xml version="1.0" encoding="UTF-8" standalone="no"?><svg xmlns="http://www.w3.org/2000/svg" xmlns:xlink="http://www.w3.org/1999/xlink" contentStyleType="text/css" height="1274px" preserveAspectRatio="none" style="width:1909px;height:1274px;background:#FFFFFF;" version="1.1" viewBox="0 0 1909 1274" width="1909px" zoomAndPan="magnify"><defs/><g><!--cluster <<aggregate>> Exam--><g id="cluster_&lt;&lt;aggregate&gt;&gt; Exam"><path d="M8.5,499.8 L198.5,499.8 A3.75,3.75 0 0 1 201,502.3 L208,533.04 L831.5,533.04 A2.5,2.5 0 0 1 834,535.54 L834,1036.84 A2.5,2.5 0 0 1 831.5,1039.34 L8.5,1039.34 A2.5,2.5 0 0 1 6,1036.84 L6,502.3 A2.5,2.5 0 0 1 8.5,499.8 " fill="none" style="stroke:#000000;stroke-width:1.5;"/><line style="stroke:#000000;stroke-width:1.5;" x1="6" x2="208" y1="533.04" y2="533.04"/><text fill="#000000" font-family="sans-serif" font-size="20" font-weight="bold" lengthAdjust="spacing" textLength="189" x="10" y="523.18">«aggregate» Exam</text></g><!--cluster <<aggregate>> FormativeExam--><g id="cluster_&lt;&lt;aggregate&gt;&gt; FormativeExam"><path d="M860.5,712.52 L1152.5,712.52 A3.75,3.75 0 0 1 1155,715.02 L1162,745.76 L1162.5,745.76 A2.5,2.5 0 0 1 1165,748.26 L1165,863.74 A2.5,2.5 0 0 1 1162.5,866.24 L860.5,866.24 A2.5,2.5 0 0 1 858,863.74 L858,715.02 A2.5,2.5 0 0 1 860.5,712.52 " fill="none" style="stroke:#000000;stroke-width:1.5;"/><line style="stroke:#000000;stroke-width:1.5;" x1="858" x2="1162" y1="745.76" y2="745.76"/><text fill="#000000" font-family="sans-serif" font-size="20" font-weight="bold" lengthAdjust="spacing" textLength="291" x="862" y="735.9">«aggregate» FormativeExam</text></g><!--cluster <<aggregate>> EvaluationExam--><g id="cluster_&lt;&lt;aggregate&gt;&gt; EvaluationExam"><path d="M1515.5,499.8 L1810.5,499.8 A3.75,3.75 0 0 1 1813,502.3 L1820,533.04 L1899.5,533.04 A2.5,2.5 0 0 1 1902,535.54 L1902,1036.84 A2.5,2.5 0 0 1 1899.5,1039.34 L1515.5,1039.34 A2.5,2.5 0 0 1 1513,1036.84 L1513,502.3 A2.5,2.5 0 0 1 1515.5,499.8 " fill="none" style="stroke:#000000;stroke-width:1.5;"/><line style="stroke:#000000;stroke-width:1.5;" x1="1513" x2="1820" y1="533.04" y2="533.04"/><text fill="#000000" font-family="sans-serif" font-size="20" font-weight="bold" lengthAdjust="spacing" textLength="294" x="1517" y="523.18">«aggregate» EvaluationExam</text></g><!--cluster <<agregate>> Question--><g id="cluster_&lt;&lt;agregate&gt;&gt; Question"><path d="M25.5,1113.96 L238.5,1113.96 A3.75,3.75 0 0 1 241,1116.46 L248,1147.2 L248.5,1147.2 A2.5,2.5 0 0 1 251,1149.7 L251,1265.18 A2.5,2.5 0 0 1 248.5,1267.68 L25.5,1267.68 A2.5,2.5 0 0 1 23,1265.18 L23,1116.46 A2.5,2.5 0 0 1 25.5,1113.96 " fill="none" style="stroke:#000000;stroke-width:1.5;"/><line style="stroke:#000000;stroke-width:1.5;" x1="23" x2="248" y1="1147.2" y2="1147.2"/><text fill="#000000" font-family="sans-serif" font-size="20" font-weight="bold" lengthAdjust="spacing" textLength="212" x="27" y="1137.34">«agregate» Question</text></g><!--cluster <<aggregate>> Student--><g id="cluster_&lt;&lt;aggregate&gt;&gt; Student"><path d="M655.5,8.36 L870.5,8.36 A3.75,3.75 0 0 1 873,10.86 L880,41.6 L880.5,41.6 A2.5,2.5 0 0 1 883,44.1 L883,159.58 A2.5,2.5 0 0 1 880.5,162.08 L655.5,162.08 A2.5,2.5 0 0 1 653,159.58 L653,10.86 A2.5,2.5 0 0 1 655.5,8.36 " fill="none" style="stroke:#000000;stroke-width:1.5;"/><line style="stroke:#000000;stroke-width:1.5;" x1="653" x2="880" y1="41.6" y2="41.6"/><text fill="#000000" font-family="sans-serif" font-size="20" font-weight="bold" lengthAdjust="spacing" textLength="214" x="657" y="31.74">«aggregate» Student</text></g><!--cluster <<aggregate>> Course--><g id="cluster_&lt;&lt;aggregate&gt;&gt; Course"><path d="M1018.5,899.24 L1222.5,899.24 A3.75,3.75 0 0 1 1225,901.74 L1232,932.48 L1232.5,932.48 A2.5,2.5 0 0 1 1235,934.98 L1235,1050.46 A2.5,2.5 0 0 1 1232.5,1052.96 L1018.5,1052.96 A2.5,2.5 0 0 1 1016,1050.46 L1016,901.74 A2.5,2.5 0 0 1 1018.5,899.24 " fill="none" style="stroke:#000000;stroke-width:1.5;"/><line style="stroke:#000000;stroke-width:1.5;" x1="1016" x2="1232" y1="932.48" y2="932.48"/><text fill="#000000" font-family="sans-serif" font-size="20" font-weight="bold" lengthAdjust="spacing" textLength="203" x="1020" y="922.62">«aggregate» Course</text></g><!--cluster <<aggregate>> ExamAnswer--><g id="cluster_&lt;&lt;aggregate&gt;&gt; ExamAnswer"><path d="M630.5,223.08 L895.5,223.08 A3.75,3.75 0 0 1 898,225.58 L905,256.32 L905.5,256.32 A2.5,2.5 0 0 1 908,258.82 L908,374.3 A2.5,2.5 0 0 1 905.5,376.8 L630.5,376.8 A2.5,2.5 0 0 1 628,374.3 L628,225.58 A2.5,2.5 0 0 1 630.5,223.08 " fill="none" style="stroke:#000000;stroke-width:1.5;"/><line style="stroke:#000000;stroke-width:1.5;" x1="628" x2="905" y1="256.32" y2="256.32"/><text fill="#000000" font-family="sans-serif" font-size="20" font-weight="bold" lengthAdjust="spacing" textLength="264" x="632" y="246.46">«aggregate» ExamAnswer</text></g><!--cluster <<aggregate>> Teacher--><g id="cluster_&lt;&lt;aggregate&gt;&gt; Teacher"><path d="M1261.5,899.24 L1476.5,899.24 A3.75,3.75 0 0 1 1479,901.74 L1486,932.48 L1486.5,932.48 A2.5,2.5 0 0 1 1489,934.98 L1489,1050.46 A2.5,2.5 0 0 1 1486.5,1052.96 L1261.5,1052.96 A2.5,2.5 0 0 1 1259,1050.46 L1259,901.74 A2.5,2.5 0 0 1 1261.5,899.24 " fill="none" style="stroke:#000000;stroke-width:1.5;"/><line style="stroke:#000000;stroke-width:1.5;" x1="1259" x2="1486" y1="932.48" y2="932.48"/><text fill="#000000" font-family="sans-serif" font-size="20" font-weight="bold" lengthAdjust="spacing" textLength="214" x="1263" y="922.62">«aggregate» Teacher</text></g><!--class Exam--><g id="elem_Exam"><rect codeLine="77" fill="#F5F5DC" height="91.7199" id="Exam" rx="2.5" ry="2.5" style="stroke:#181818;stroke-width:0.5;" width="100" x="718" y="545.8"/><ellipse cx="734" cy="591.66" fill="#ADD1B2" rx="12" ry="12" style="stroke:#181818;stroke-width:1.0;"/><path d="M729.0938,598.66 L729.0938,584.3787 L738.0938,584.3787 L738.0938,586.8787 L731.9063,586.8787 L731.9063,590.0037 L737.7969,590.0037 L737.7969,592.5037 L731.9063,592.5037 L731.9063,596.16 L738.0938,596.16 L738.0938,598.66 L729.0938,598.66 Z " fill="#000000"/><text fill="#000000" font-family="sans-serif" font-size="20" font-style="italic" lengthAdjust="spacing" textLength="70" x="747" y="572.18">«entity»</text><text fill="#000000" font-family="sans-serif" font-size="20" font-style="italic" lengthAdjust="spacing" textLength="57" x="753.5" y="599.4199">«root»</text><text fill="#000000" font-family="sans-serif" font-size="20" lengthAdjust="spacing" textLength="52" x="756" y="626.6599">Exam</text></g><!--class Section--><g id="elem_Section"><rect codeLine="80" fill="#F5F5DC" height="64.4799" id="Section" rx="2.5" ry="2.5" style="stroke:#181818;stroke-width:0.5;" width="102" x="411" y="772.14"/><ellipse cx="427" cy="804.38" fill="#ADD1B2" rx="12" ry="12" style="stroke:#181818;stroke-width:1.0;"/><path d="M422.0938,811.38 L422.0938,797.0987 L431.0938,797.0987 L431.0938,799.5987 L424.9063,799.5987 L424.9063,802.7237 L430.7969,802.7237 L430.7969,805.2237 L424.9063,805.2237 L424.9063,808.88 L431.0938,808.88 L431.0938,811.38 L422.0938,811.38 Z " fill="#000000"/><text fill="#000000" font-family="sans-serif" font-size="20" font-style="italic" lengthAdjust="spacing" textLength="70" x="441" y="798.52">«entity»</text><text fill="#000000" font-family="sans-serif" font-size="20" lengthAdjust="spacing" textLength="68" x="442" y="825.7599">Section</text></g><!--class Description--><g id="elem_Description"><rect codeLine="87" fill="#F5F5DC" height="64.4799" id="Description" rx="2.5" ry="2.5" style="stroke:#181818;stroke-width:0.5;" width="156" x="548" y="772.14"/><ellipse cx="564" cy="804.38" fill="#FF8B40" rx="12" ry="12" style="stroke:#181818;stroke-width:1.0;"/><path d="M562.375,812.38 L558.2031,798.0987 L561.125,798.0987 L563.2969,806.5831 Q563.4063,806.8956 563.5313,807.505 Q563.6563,808.0987 563.7813,808.7237 Q563.9063,809.3331 563.9531,809.7862 L564.1406,809.7862 Q564.2031,809.3331 564.3125,808.7237 Q564.4219,808.1143 564.5313,807.5362 Q564.6563,806.9425 564.7344,806.5831 L566.8438,798.0987 L569.7969,798.0987 L565.625,812.38 L562.375,812.38 Z " fill="#000000"/><text fill="#000000" font-family="sans-serif" font-size="20" font-style="italic" lengthAdjust="spacing" textLength="126" x="577" y="798.52">«value object»</text><text fill="#000000" font-family="sans-serif" font-size="20" lengthAdjust="spacing" textLength="107" x="586.5" y="825.7599">Description</text></g><!--class SectionQuestion--><g id="elem_SectionQuestion"><rect codeLine="50" fill="#F5F5DC" height="64.4799" id="SectionQuestion" rx="2.5" ry="2.5" style="stroke:#181818;stroke-width:0.5;" width="187" x="21.5" y="958.86"/><ellipse cx="37.5" cy="991.1" fill="#ADD1B2" rx="12" ry="12" style="stroke:#181818;stroke-width:1.0;"/><path d="M32.5938,998.1 L32.5938,983.8187 L41.5938,983.8187 L41.5938,986.3187 L35.4063,986.3187 L35.4063,989.4437 L41.2969,989.4437 L41.2969,991.9437 L35.4063,991.9437 L35.4063,995.6 L41.5938,995.6 L41.5938,998.1 L32.5938,998.1 Z " fill="#000000"/><text fill="#000000" font-family="sans-serif" font-size="20" font-style="italic" lengthAdjust="spacing" textLength="70" x="94" y="985.24">«entity»</text><text fill="#000000" font-family="sans-serif" font-size="20" lengthAdjust="spacing" textLength="153" x="52.5" y="1012.4799">SectionQuestion</text></g><!--class Score--><g id="elem_Score"><rect codeLine="89" fill="#F5F5DC" height="64.4799" id="Score" rx="2.5" ry="2.5" style="stroke:#181818;stroke-width:0.5;" width="156" x="278" y="958.86"/><ellipse cx="294" cy="991.1" fill="#FF8B40" rx="12" ry="12" style="stroke:#181818;stroke-width:1.0;"/><path d="M292.375,999.1 L288.2031,984.8187 L291.125,984.8187 L293.2969,993.3031 Q293.4063,993.6156 293.5313,994.225 Q293.6563,994.8187 293.7813,995.4437 Q293.9063,996.0531 293.9531,996.5062 L294.1406,996.5062 Q294.2031,996.0531 294.3125,995.4437 Q294.4219,994.8343 294.5313,994.2562 Q294.6563,993.6625 294.7344,993.3031 L296.8438,984.8187 L299.7969,984.8187 L295.625,999.1 L292.375,999.1 Z " fill="#000000"/><text fill="#000000" font-family="sans-serif" font-size="20" font-style="italic" lengthAdjust="spacing" textLength="126" x="307" y="985.24">«value object»</text><text fill="#000000" font-family="sans-serif" font-size="20" lengthAdjust="spacing" textLength="52" x="344" y="1012.4799">Score</text></g><!--class State--><g id="elem_State"><rect codeLine="83" fill="#F5F5DC" height="64.4799" id="State" rx="2.5" ry="2.5" style="stroke:#181818;stroke-width:0.5;" width="156" x="662" y="958.86"/><ellipse cx="678" cy="991.1" fill="#FF8B40" rx="12" ry="12" style="stroke:#181818;stroke-width:1.0;"/><path d="M676.375,999.1 L672.2031,984.8187 L675.125,984.8187 L677.2969,993.3031 Q677.4063,993.6156 677.5313,994.225 Q677.6563,994.8187 677.7813,995.4437 Q677.9063,996.0531 677.9531,996.5062 L678.1406,996.5062 Q678.2031,996.0531 678.3125,995.4437 Q678.4219,994.8343 678.5313,994.2562 Q678.6563,993.6625 678.7344,993.3031 L680.8438,984.8187 L683.7969,984.8187 L679.625,999.1 L676.375,999.1 Z " fill="#000000"/><text fill="#000000" font-family="sans-serif" font-size="20" font-style="italic" lengthAdjust="spacing" textLength="126" x="691" y="985.24">«value object»</text><text fill="#000000" font-family="sans-serif" font-size="20" lengthAdjust="spacing" textLength="47" x="730.5" y="1012.4799">State</text></g><!--class SectionName--><g id="elem_SectionName"><rect codeLine="82" fill="#F5F5DC" height="64.4799" id="SectionName" rx="2.5" ry="2.5" style="stroke:#181818;stroke-width:0.5;" width="158" x="469" y="958.86"/><ellipse cx="485" cy="991.1" fill="#FF8B40" rx="12" ry="12" style="stroke:#181818;stroke-width:1.0;"/><path d="M483.375,999.1 L479.2031,984.8187 L482.125,984.8187 L484.2969,993.3031 Q484.4063,993.6156 484.5313,994.225 Q484.6563,994.8187 484.7813,995.4437 Q484.9063,996.0531 484.9531,996.5062 L485.1406,996.5062 Q485.2031,996.0531 485.3125,995.4437 Q485.4219,994.8343 485.5313,994.2562 Q485.6563,993.6625 485.7344,993.3031 L487.8438,984.8187 L490.7969,984.8187 L486.625,999.1 L483.375,999.1 Z " fill="#000000"/><text fill="#000000" font-family="sans-serif" font-size="20" font-style="italic" lengthAdjust="spacing" textLength="126" x="499" y="985.24">«value object»</text><text fill="#000000" font-family="sans-serif" font-size="20" lengthAdjust="spacing" textLength="124" x="500" y="1012.4799">SectionName</text></g><!--class FormativeExam--><g id="elem_FormativeExam"><rect codeLine="28" fill="#F5F5DC" height="91.7199" id="FormativeExam" rx="2.5" ry="2.5" style="stroke:#181818;stroke-width:0.5;" width="179" x="873.5" y="758.52"/><ellipse cx="889.5" cy="804.38" fill="#ADD1B2" rx="12" ry="12" style="stroke:#181818;stroke-width:1.0;"/><path d="M884.5938,811.38 L884.5938,797.0987 L893.5938,797.0987 L893.5938,799.5987 L887.4063,799.5987 L887.4063,802.7237 L893.2969,802.7237 L893.2969,805.2237 L887.4063,805.2237 L887.4063,808.88 L893.5938,808.88 L893.5938,811.38 L884.5938,811.38 Z " fill="#000000"/><text fill="#000000" font-family="sans-serif" font-size="20" font-style="italic" lengthAdjust="spacing" textLength="70" x="942" y="784.9">«entity»</text><text fill="#000000" font-family="sans-serif" font-size="20" font-style="italic" lengthAdjust="spacing" textLength="57" x="948.5" y="812.1399">«root»</text><text fill="#000000" font-family="sans-serif" font-size="20" lengthAdjust="spacing" textLength="145" x="904.5" y="839.3799">FormativeExam</text></g><!--class EvaluationExam--><g id="elem_EvaluationExam"><rect codeLine="39" fill="#F5F5DC" height="91.7199" id="EvaluationExam" rx="2.5" ry="2.5" style="stroke:#181818;stroke-width:0.5;" width="182" x="1605" y="545.8"/><ellipse cx="1621" cy="591.66" fill="#ADD1B2" rx="12" ry="12" style="stroke:#181818;stroke-width:1.0;"/><path d="M1616.0938,598.66 L1616.0938,584.3787 L1625.0938,584.3787 L1625.0938,586.8787 L1618.9063,586.8787 L1618.9063,590.0037 L1624.7969,590.0037 L1624.7969,592.5037 L1618.9063,592.5037 L1618.9063,596.16 L1625.0938,596.16 L1625.0938,598.66 L1616.0938,598.66 Z " fill="#000000"/><text fill="#000000" font-family="sans-serif" font-size="20" font-style="italic" lengthAdjust="spacing" textLength="70" x="1675" y="572.18">«entity»</text><text fill="#000000" font-family="sans-serif" font-size="20" font-style="italic" lengthAdjust="spacing" textLength="57" x="1681.5" y="599.4199">«root»</text><text fill="#000000" font-family="sans-serif" font-size="20" lengthAdjust="spacing" textLength="148" x="1636" y="626.6599">EvaluationExam</text></g><!--class Time--><g id="elem_Time"><rect codeLine="88" fill="#F5F5DC" height="64.4799" id="Time" rx="2.5" ry="2.5" style="stroke:#181818;stroke-width:0.5;" width="156" x="1562" y="772.14"/><ellipse cx="1578" cy="804.38" fill="#FF8B40" rx="12" ry="12" style="stroke:#181818;stroke-width:1.0;"/><path d="M1576.375,812.38 L1572.2031,798.0987 L1575.125,798.0987 L1577.2969,806.5831 Q1577.4063,806.8956 1577.5313,807.505 Q1577.6563,808.0987 1577.7813,808.7237 Q1577.9063,809.3331 1577.9531,809.7862 L1578.1406,809.7862 Q1578.2031,809.3331 1578.3125,808.7237 Q1578.4219,808.1143 1578.5313,807.5362 Q1578.6563,806.9425 1578.7344,806.5831 L1580.8438,798.0987 L1583.7969,798.0987 L1579.625,812.38 L1576.375,812.38 Z " fill="#000000"/><text fill="#000000" font-family="sans-serif" font-size="20" font-style="italic" lengthAdjust="spacing" textLength="126" x="1591" y="798.52">«value object»</text><text fill="#000000" font-family="sans-serif" font-size="20" lengthAdjust="spacing" textLength="46" x="1631" y="825.7599">Time</text></g><!--class FeedbackType--><g id="elem_FeedbackType"><rect codeLine="85" fill="#F5F5DC" height="64.4799" id="FeedbackType" rx="2.5" ry="2.5" style="stroke:#181818;stroke-width:0.5;" width="166" x="1529" y="958.86"/><ellipse cx="1545" cy="991.1" fill="#FF8B40" rx="12" ry="12" style="stroke:#181818;stroke-width:1.0;"/><path d="M1543.375,999.1 L1539.2031,984.8187 L1542.125,984.8187 L1544.2969,993.3031 Q1544.4063,993.6156 1544.5313,994.225 Q1544.6563,994.8187 1544.7813,995.4437 Q1544.9063,996.0531 1544.9531,996.5062 L1545.1406,996.5062 Q1545.2031,996.0531 1545.3125,995.4437 Q1545.4219,994.8343 1545.5313,994.2562 Q1545.6563,993.6625 1545.7344,993.3031 L1547.8438,984.8187 L1550.7969,984.8187 L1546.625,999.1 L1543.375,999.1 Z " fill="#000000"/><text fill="#000000" font-family="sans-serif" font-size="20" font-style="italic" lengthAdjust="spacing" textLength="126" x="1563" y="985.24">«value object»</text><text fill="#000000" font-family="sans-serif" font-size="20" lengthAdjust="spacing" textLength="132" x="1560" y="1012.4799">FeedbackType</text></g><!--class GradeType--><g id="elem_GradeType"><rect codeLine="86" fill="#F5F5DC" height="64.4799" id="GradeType" rx="2.5" ry="2.5" style="stroke:#181818;stroke-width:0.5;" width="156" x="1730" y="958.86"/><ellipse cx="1746" cy="991.1" fill="#FF8B40" rx="12" ry="12" style="stroke:#181818;stroke-width:1.0;"/><path d="M1744.375,999.1 L1740.2031,984.8187 L1743.125,984.8187 L1745.2969,993.3031 Q1745.4063,993.6156 1745.5313,994.225 Q1745.6563,994.8187 1745.7813,995.4437 Q1745.9063,996.0531 1745.9531,996.5062 L1746.1406,996.5062 Q1746.2031,996.0531 1746.3125,995.4437 Q1746.4219,994.8343 1746.5313,994.2562 Q1746.6563,993.6625 1746.7344,993.3031 L1748.8438,984.8187 L1751.7969,984.8187 L1747.625,999.1 L1744.375,999.1 Z " fill="#000000"/><text fill="#000000" font-family="sans-serif" font-size="20" font-style="italic" lengthAdjust="spacing" textLength="126" x="1759" y="985.24">«value object»</text><text fill="#000000" font-family="sans-serif" font-size="20" lengthAdjust="spacing" textLength="101" x="1771.5" y="1012.4799">GradeType</text></g><!--class Question--><g id="elem_Question"><rect codeLine="91" fill="#F5F5DC" height="91.7199" id="Question" rx="2.5" ry="2.5" style="stroke:#181818;stroke-width:0.5;" width="119" x="55.5" y="1159.96"/><ellipse cx="71.5" cy="1205.82" fill="#ADD1B2" rx="12" ry="12" style="stroke:#181818;stroke-width:1.0;"/><path d="M66.5938,1212.82 L66.5938,1198.5387 L75.5938,1198.5387 L75.5938,1201.0387 L69.4063,1201.0387 L69.4063,1204.1637 L75.2969,1204.1637 L75.2969,1206.6637 L69.4063,1206.6637 L69.4063,1210.32 L75.5938,1210.32 L75.5938,1212.82 L66.5938,1212.82 Z " fill="#000000"/><text fill="#000000" font-family="sans-serif" font-size="20" font-style="italic" lengthAdjust="spacing" textLength="70" x="94" y="1186.34">«entity»</text><text fill="#000000" font-family="sans-serif" font-size="20" font-style="italic" lengthAdjust="spacing" textLength="57" x="100.5" y="1213.5799">«root»</text><text fill="#000000" font-family="sans-serif" font-size="20" lengthAdjust="spacing" textLength="85" x="86.5" y="1240.8199">Question</text></g><!--class Student--><g id="elem_Student"><rect codeLine="53" fill="#F5F5DC" height="91.7199" id="Student" rx="2.5" ry="2.5" style="stroke:#181818;stroke-width:0.5;" width="106" x="715" y="54.36"/><ellipse cx="731" cy="100.22" fill="#ADD1B2" rx="12" ry="12" style="stroke:#181818;stroke-width:1.0;"/><path d="M726.0938,107.22 L726.0938,92.9387 L735.0938,92.9387 L735.0938,95.4387 L728.9063,95.4387 L728.9063,98.5637 L734.7969,98.5637 L734.7969,101.0637 L728.9063,101.0637 L728.9063,104.72 L735.0938,104.72 L735.0938,107.22 L726.0938,107.22 Z " fill="#000000"/><text fill="#000000" font-family="sans-serif" font-size="20" font-style="italic" lengthAdjust="spacing" textLength="70" x="747" y="80.74">«entity»</text><text fill="#000000" font-family="sans-serif" font-size="20" font-style="italic" lengthAdjust="spacing" textLength="57" x="753.5" y="107.9799">«root»</text><text fill="#000000" font-family="sans-serif" font-size="20" lengthAdjust="spacing" textLength="72" x="746" y="135.2199">Student</text></g><!--class Course--><g id="elem_Course"><rect codeLine="60" fill="#F5F5DC" height="91.7199" id="Course" rx="2.5" ry="2.5" style="stroke:#181818;stroke-width:0.5;" width="100" x="1119" y="945.24"/><ellipse cx="1135" cy="991.1" fill="#ADD1B2" rx="12" ry="12" style="stroke:#181818;stroke-width:1.0;"/><path d="M1130.0938,998.1 L1130.0938,983.8187 L1139.0938,983.8187 L1139.0938,986.3187 L1132.9063,986.3187 L1132.9063,989.4437 L1138.7969,989.4437 L1138.7969,991.9437 L1132.9063,991.9437 L1132.9063,995.6 L1139.0938,995.6 L1139.0938,998.1 L1130.0938,998.1 Z " fill="#000000"/><text fill="#000000" font-family="sans-serif" font-size="20" font-style="italic" lengthAdjust="spacing" textLength="70" x="1148" y="971.62">«entity»</text><text fill="#000000" font-family="sans-serif" font-size="20" font-style="italic" lengthAdjust="spacing" textLength="57" x="1154.5" y="998.8599">«root»</text><text fill="#000000" font-family="sans-serif" font-size="20" lengthAdjust="spacing" textLength="66" x="1150" y="1026.0999">Course</text></g><!--class ExamAnswer--><g id="elem_ExamAnswer"><rect codeLine="67" fill="#F5F5DC" height="91.7199" id="ExamAnswer" rx="2.5" ry="2.5" style="stroke:#181818;stroke-width:0.5;" width="156" x="690" y="269.08"/><ellipse cx="706" cy="314.94" fill="#ADD1B2" rx="12" ry="12" style="stroke:#181818;stroke-width:1.0;"/><path d="M701.0938,321.94 L701.0938,307.6587 L710.0938,307.6587 L710.0938,310.1587 L703.9063,310.1587 L703.9063,313.2837 L709.7969,313.2837 L709.7969,315.7837 L703.9063,315.7837 L703.9063,319.44 L710.0938,319.44 L710.0938,321.94 L701.0938,321.94 Z " fill="#000000"/><text fill="#000000" font-family="sans-serif" font-size="20" font-style="italic" lengthAdjust="spacing" textLength="70" x="747" y="295.46">«entity»</text><text fill="#000000" font-family="sans-serif" font-size="20" font-style="italic" lengthAdjust="spacing" textLength="57" x="753.5" y="322.6999">«root»</text><text fill="#000000" font-family="sans-serif" font-size="20" lengthAdjust="spacing" textLength="122" x="721" y="349.9399">ExamAnswer</text></g><!--class Teacher--><g id="elem_Teacher"><rect codeLine="74" fill="#F5F5DC" height="91.7199" id="Teacher" rx="2.5" ry="2.5" style="stroke:#181818;stroke-width:0.5;" width="108" x="1300" y="945.24"/><ellipse cx="1316" cy="991.1" fill="#ADD1B2" rx="12" ry="12" style="stroke:#181818;stroke-width:1.0;"/><path d="M1311.0938,998.1 L1311.0938,983.8187 L1320.0938,983.8187 L1320.0938,986.3187 L1313.9063,986.3187 L1313.9063,989.4437 L1319.7969,989.4437 L1319.7969,991.9437 L1313.9063,991.9437 L1313.9063,995.6 L1320.0938,995.6 L1320.0938,998.1 L1311.0938,998.1 Z " fill="#000000"/><text fill="#000000" font-family="sans-serif" font-size="20" font-style="italic" lengthAdjust="spacing" textLength="70" x="1333" y="971.62">«entity»</text><text fill="#000000" font-family="sans-serif" font-size="20" font-style="italic" lengthAdjust="spacing" textLength="57" x="1339.5" y="998.8599">«root»</text><text fill="#000000" font-family="sans-serif" font-size="20" lengthAdjust="spacing" textLength="74" x="1331" y="1026.0999">Teacher</text></g><g id="elem_GMN32"><path d="M675,1173.58 L675,1238.0599 A0,0 0 0 0 675,1238.0599 L805,1238.0599 A0,0 0 0 0 805,1238.0599 L805,1183.58 L795,1173.58 L744,1173.58 L740,1023.49 L736,1173.58 L675,1173.58 A0,0 0 0 0 675,1173.58 " fill="#FEFFDD" style="stroke:#181818;stroke-width:0.5;"/><path d="M795,1173.58 L795,1183.58 L805,1183.58 L795,1173.58 " fill="#FEFFDD" style="stroke:#181818;stroke-width:0.5;"/><text fill="#000000" font-family="sans-serif" font-size="20" lengthAdjust="spacing" textLength="61" x="681" y="1199.96">DRAFT</text><text fill="#000000" font-family="sans-serif" font-size="20" lengthAdjust="spacing" textLength="109" x="681" y="1227.1999">PUBLISHED</text></g><g id="elem_GMN41"><path d="M1518,1159.96 L1518,1251.6799 A0,0 0 0 0 1518,1251.6799 L1692,1251.6799 A0,0 0 0 0 1692,1251.6799 L1692,1169.96 L1682,1159.96 L1610.49,1159.96 L1610.97,1023.49 L1602.49,1159.96 L1518,1159.96 A0,0 0 0 0 1518,1159.96 " fill="#FEFFDD" style="stroke:#181818;stroke-width:0.5;"/><path d="M1682,1159.96 L1682,1169.96 L1692,1169.96 L1682,1159.96 " fill="#FEFFDD" style="stroke:#181818;stroke-width:0.5;"/><text fill="#000000" font-family="sans-serif" font-size="20" lengthAdjust="spacing" textLength="57" x="1524" y="1186.34">NONE</text><text fill="#000000" font-family="sans-serif" font-size="20" lengthAdjust="spacing" textLength="153" x="1524" y="1213.5799">ON_SUBMITION</text><text fill="#000000" font-family="sans-serif" font-size="20" lengthAdjust="spacing" textLength="153" x="1524" y="1240.8199">AFTER_CLOSING</text></g><g id="elem_GMN44"><path d="M1727,1159.96 L1727,1251.6799 A0,0 0 0 0 1727,1251.6799 L1901,1251.6799 A0,0 0 0 0 1901,1251.6799 L1901,1169.96 L1891,1159.96 L1816.72,1159.96 L1808.89,1023.49 L1808.72,1159.96 L1727,1159.96 A0,0 0 0 0 1727,1159.96 " fill="#FEFFDD" style="stroke:#181818;stroke-width:0.5;"/><path d="M1891,1159.96 L1891,1169.96 L1901,1169.96 L1891,1159.96 " fill="#FEFFDD" style="stroke:#181818;stroke-width:0.5;"/><text fill="#000000" font-family="sans-serif" font-size="20" lengthAdjust="spacing" textLength="57" x="1733" y="1186.34">NONE</text><text fill="#000000" font-family="sans-serif" font-size="20" lengthAdjust="spacing" textLength="153" x="1733" y="1213.5799">ON_SUBMITION</text><text fill="#000000" font-family="sans-serif" font-size="20" lengthAdjust="spacing" textLength="153" x="1733" y="1240.8199">AFTER_CLOSING</text></g><!--reverse link Exam to EvaluationExam--><g id="link_Exam_EvaluationExam"><path codeLine="93" d="M839.03,591.66 C1094.26,591.66 1349.49,591.66 1604.72,591.66 " fill="none" id="Exam-backto-EvaluationExam" style="stroke:#222222;stroke-width:1.0;"/><polygon fill="none" points="839.3,598.66,819.3,591.66,839.3,584.66,839.3,598.66" style="stroke:#222222;stroke-width:1.0;"/></g><!--reverse link Exam to FormativeExam--><g id="link_Exam_FormativeExam"><path codeLine="94" d="M823.98,653.15 C854.97,686.64 892.85,727.57 921.24,758.25 " fill="none" id="Exam-backto-FormativeExam" style="stroke:#222222;stroke-width:1.0;"/><polygon fill="none" points="819.28,658.3,810.83,638.86,829.55,648.79,819.28,658.3" style="stroke:#222222;stroke-width:1.0;"/></g><!--link EvaluationExam to Time--><g id="link_EvaluationExam_Time"><path codeLine="96" d="M1604.61,625.82 C1587.22,636.42 1571.27,650.09 1561,667.52 C1541.01,701.47 1568.7,740.34 1596.65,767.79 " fill="none" id="EvaluationExam-to-Time" style="stroke:#222222;stroke-width:1.0;"/><polygon fill="#222222" points="1599.77,770.75,1596.0499,761.6307,1596.1639,767.2864,1590.5082,767.4005,1599.77,770.75" style="stroke:#222222;stroke-width:1.0;"/><text fill="#000000" font-family="sans-serif" font-size="20" lengthAdjust="spacing" textLength="90" x="1562" y="689.9">start time</text><text fill="#000000" font-family="sans-serif" font-size="20" lengthAdjust="spacing" textLength="32" x="1559.2773" y="758.222">0..1</text></g><!--link EvaluationExam to Time--><g id="link_EvaluationExam_Time"><path codeLine="97" d="M1683.99,637.86 C1673.8,676.2 1659.36,730.53 1649.84,766.34 " fill="none" id="EvaluationExam-to-Time-1" style="stroke:#222222;stroke-width:1.0;"/><polygon fill="#222222" points="1648.36,770.92,1654.5355,763.2477,1649.643,766.0874,1646.8033,761.1949,1648.36,770.92" style="stroke:#222222;stroke-width:1.0;"/><text fill="#000000" font-family="sans-serif" font-size="20" lengthAdjust="spacing" textLength="82" x="1675" y="689.9">end time</text><text fill="#000000" font-family="sans-serif" font-size="20" lengthAdjust="spacing" textLength="32" x="1615.0469" y="758.4212">0..1</text></g><!--link Exam to State--><g id="link_Exam_State"><path codeLine="99" d="M764.82,637.86 C759.24,717.02 747.81,879.27 742.64,952.62 " fill="none" id="Exam-to-State" style="stroke:#222222;stroke-width:1.0;"/><polygon fill="#222222" points="742.22,957.59,746.8528,948.8988,742.5773,952.6028,738.8733,948.3272,742.22,957.59" style="stroke:#222222;stroke-width:1.0;"/><text fill="#000000" font-family="sans-serif" font-size="20" lengthAdjust="spacing" textLength="37" x="761" y="812.26">is in</text><text fill="#000000" font-family="sans-serif" font-size="20" lengthAdjust="spacing" textLength="11" x="730.6563" y="945.0826">1</text></g><!--reverse link Exam to Section--><g id="link_Exam_Section"><path codeLine="106" d="M704.43,612.15 C653.25,630.13 581.6,660.72 530,704.52 C507.92,723.26 489.77,750.79 477.8,772.05 " fill="none" id="Exam-backto-Section" style="stroke:#222222;stroke-width:1.0;"/><polygon fill="#222222" points="716.63,607.63,709.6574,605.7907,705.2778,611.5195,712.2504,613.3588,716.63,607.63" style="stroke:#222222;stroke-width:1.0;"/><text fill="#000000" font-family="sans-serif" font-size="20" lengthAdjust="spacing" textLength="32" x="445.7644" y="758.2879">1..*</text></g><!--link Exam to Course--><g id="link_Exam_Course"><path codeLine="107" d="M818.33,598.29 C884.32,608.28 999.7,635.06 1068,704.52 C1131.53,769.13 1155.29,876.14 1164.04,939.2 " fill="none" id="Exam-to-Course" style="stroke:#222222;stroke-width:1.0;"/><polygon fill="#222222" points="1164.79,943.79,1167.5726,934.3424,1164.1329,938.8334,1159.642,935.3937,1164.79,943.79" style="stroke:#222222;stroke-width:1.0;"/><text fill="#000000" font-family="sans-serif" font-size="20" lengthAdjust="spacing" textLength="66" x="1152" y="812.26">is from</text><text fill="#000000" font-family="sans-serif" font-size="20" lengthAdjust="spacing" textLength="11" x="1152.5459" y="931.5222">1</text></g><!--link Exam to Teacher--><g id="link_Exam_Teacher"><path codeLine="108" d="M818.41,599.27 C924.18,614.02 1164.67,652.48 1227,704.52 C1299.27,764.86 1331.92,874.6 1345.45,939.05 " fill="none" id="Exam-to-Teacher" style="stroke:#222222;stroke-width:1.0;"/><polygon fill="#222222" points="1346.62,943.76,1348.7127,934.136,1345.6065,938.8638,1340.8787,935.7576,1346.62,943.76" style="stroke:#222222;stroke-width:1.0;"/><text fill="#000000" font-family="sans-serif" font-size="20" lengthAdjust="spacing" textLength="117" x="1328" y="812.26">is created by</text><text fill="#000000" font-family="sans-serif" font-size="20" lengthAdjust="spacing" textLength="11" x="1333.9698" y="931.4884">1</text></g><!--reverse link EvaluationExam to FeedbackType--><g id="link_EvaluationExam_FeedbackType"><path codeLine="110" d="M1756.13,648.92 C1760.06,654.84 1763.45,661.07 1766,667.52 C1787.67,722.42 1828.52,726.94 1736,874.24 C1729.05,885.31 1722.01,882.84 1712,891.24 C1686.94,912.26 1660.71,938.36 1641.41,958.47 " fill="none" id="EvaluationExam-backto-FeedbackType" style="stroke:#222222;stroke-width:1.0;"/><polygon fill="#222222" points="1748.01,638.95,1748.3594,646.1526,1755.1423,648.6004,1754.793,641.3977,1748.01,638.95" style="stroke:#222222;stroke-width:1.0;"/><text fill="#000000" font-family="sans-serif" font-size="20" lengthAdjust="spacing" textLength="11" x="1634.5195" y="944.942">1</text></g><!--reverse link EvaluationExam to GradeType--><g id="link_EvaluationExam_GradeType"><path codeLine="111" d="M1768.85,647.64 C1773.94,653.86 1778.46,660.5 1782,667.52 C1830.87,764.32 1820.83,898.51 1812.93,958.69 " fill="none" id="EvaluationExam-backto-GradeType" style="stroke:#222222;stroke-width:1.0;"/><polygon fill="#222222" points="1760.78,638.6,1761.8299,645.7343,1768.8192,647.509,1767.7693,640.3748,1760.78,638.6" style="stroke:#222222;stroke-width:1.0;"/><text fill="#000000" font-family="sans-serif" font-size="20" lengthAdjust="spacing" textLength="11" x="1801.8285" y="944.9136">1</text></g><!--reverse link Exam to Description--><g id="link_Exam_Description"><path codeLine="112" d="M729.76,649.41 C703.26,688.74 668.95,739.65 647.2,771.92 " fill="none" id="Exam-backto-Description" style="stroke:#222222;stroke-width:1.0;"/><polygon fill="#222222" points="737.54,638.86,730.8693,641.599,730.832,648.81,737.5027,646.071,737.54,638.86" style="stroke:#222222;stroke-width:1.0;"/><text fill="#000000" font-family="sans-serif" font-size="20" lengthAdjust="spacing" textLength="11" x="638.8984" y="758.4212">1</text></g><!--reverse link Section to SectionQuestion--><g id="link_Section_SectionQuestion"><path codeLine="126" d="M397.95,828.87 C357.46,844.62 304.56,866.89 260,891.24 C223.64,911.11 184.99,937.77 156.74,958.4 " fill="none" id="Section-backto-SectionQuestion" style="stroke:#222222;stroke-width:1.0;"/><polygon fill="#222222" points="409.9,823.89,402.8649,822.3066,398.6975,828.1916,405.7326,829.7749,409.9,823.89" style="stroke:#222222;stroke-width:1.0;"/><text fill="#000000" font-family="sans-serif" font-size="20" lengthAdjust="spacing" textLength="32" x="129.1641" y="944.86">1..*</text></g><!--link SectionQuestion to Question--><g id="link_SectionQuestion_Question"><path codeLine="127" d="M115,1023.49 C115,1057.75 115,1113.12 115,1153.67 " fill="none" id="SectionQuestion-to-Question" style="stroke:#222222;stroke-width:1.0;"/><polygon fill="#222222" points="115,1158.54,119,1149.54,115,1153.54,111,1149.54,115,1158.54" style="stroke:#222222;stroke-width:1.0;"/><text fill="#000000" font-family="sans-serif" font-size="20" lengthAdjust="spacing" textLength="141" x="116" y="1091.34">corresponds to</text><text fill="#000000" font-family="sans-serif" font-size="20" lengthAdjust="spacing" textLength="11" x="103.2953" y="1146.276">1</text></g><!--link SectionQuestion to Score--><g id="link_SectionQuestion_Score"><path codeLine="128" d="M208.87,991.1 C229.56,991.1 251.35,991.1 271.64,991.1 " fill="none" id="SectionQuestion-to-Score" style="stroke:#222222;stroke-width:1.0;"/><polygon fill="#222222" points="276.6,991.1,267.6,987.1,271.6,991.1,267.6,995.1,276.6,991.1" style="stroke:#222222;stroke-width:1.0;"/><text fill="#000000" font-family="sans-serif" font-size="20" lengthAdjust="spacing" textLength="33" x="226.75" y="981.48">has</text><text fill="#000000" font-family="sans-serif" font-size="20" lengthAdjust="spacing" textLength="11" x="259.1277" y="984.2883">1</text></g><!--reverse link Section to SectionName--><g id="link_Section_SectionName"><path codeLine="130" d="M482.29,848.97 C497.97,882.64 519.29,928.44 533.34,958.61 " fill="none" id="Section-backto-SectionName" style="stroke:#222222;stroke-width:1.0;"/><polygon fill="#222222" points="476.59,837.72,475.4955,844.8475,481.6538,848.5992,482.7483,841.4717,476.59,837.72" style="stroke:#222222;stroke-width:1.0;"/></g><!--link Student to ExamAnswer--><g id="link_Student_ExamAnswer"><path codeLine="132" d="M768,146.33 C768,180.6 768,227.73 768,263.29 " fill="none" id="Student-to-ExamAnswer" style="stroke:#222222;stroke-width:1.0;"/><polygon fill="#222222" points="768,267.89,772,258.89,768,262.89,764,258.89,768,267.89" style="stroke:#222222;stroke-width:1.0;"/><text fill="#000000" font-family="sans-serif" font-size="20" lengthAdjust="spacing" textLength="33" x="769" y="200.46">has</text><text fill="#000000" font-family="sans-serif" font-size="20" lengthAdjust="spacing" textLength="32" x="733.85" y="255.2841">0..*</text></g><!--link ExamAnswer to Exam--><g id="link_ExamAnswer_Exam"><path codeLine="134" d="M768,361 C768,410.1 768,488.49 768,539.77 " fill="none" id="ExamAnswer-to-Exam" style="stroke:#222222;stroke-width:1.0;"/><polygon fill="#222222" points="768,544.58,772,535.58,768,539.58,764,535.58,768,544.58" style="stroke:#222222;stroke-width:1.0;"/><text fill="#000000" font-family="sans-serif" font-size="20" lengthAdjust="spacing" textLength="47" x="769" y="446.18">is for</text><text fill="#000000" font-family="sans-serif" font-size="20" lengthAdjust="spacing" textLength="11" x="756.2609" y="531.97">1</text></g><!--SRC=[bLLDSzem4BthL-muXxQPGaYcXmx3P0OII9b9eOr9hnbXRumQs_98SbAQzhzNjlmXsw405z3Rjn_QNJta4uiJAcWKSky9VV3naQQXcl5OkUmtmiM0lDiebSZXsLaIqbYbKTZtU7JcXLJAdizee9q9aMKSo0rZfGHRfmhd7e_pG0EoOJu2HedQ0YtDqaOZL1lkotQi2VMU0i7JsB_Y8HUmHXQWHHeBmL-CwUGY_n2IQ1yQ83YZ4Gq2WG5LU7a9qryqSk2L062ic4wP0QG-kkWfnkCCoLF3DKfFiAG4cxJlAShSKh9TZmkidLsbirf7uxMW4PA_EqkSSH5HnPwnKsl3aaLu2uVHoC0wr6WaE5Vwn-j_yasVQPZIhB1kSngc-Y8hfczG7cQ8_bg7NcsJ6hmHrCSSgSjiHZkmpghCijUD0gi1xBwUgr9Vinjk1MRLrXgeNTohJJEEH_VuYgT2OgC60rcn3N3y-7Glnx5yGT7PQmFR4wZ0ezEia7gRLeu2in8KoExeLY5xISLC6hFGrivRqeJtFpwUp6QV9vy67o3RCWI-_gaPniLwZ7kvfBlK1yQlLlv0lgKi1tfap-xGosP2jF-ohMVqzaWqpyphJw-j22NUQsaJQRtrNkyId46_V-wOImn1AYeKg4n8zd8nzWsJ58ICeSrceaDW4fXMvvZhqvehnIFWZuNu0bpVZMSh_VtjVd8xTxzChqaMBoCNyKvr-Svvlt_gLFBVp5Eyp3pHe-1HormkVMxt1EgqFgotdIReFBtSeQ6OkqYrWbf5Eit_ezQDMqgyM2wc-ckvU73l9r_dg_boeO-w6TExXwlRfJjVt5YjQCMgqnyRg7ostRPMQjrMsxAJ5J04lRy2PS9ZNuBYNOzY0_8r7yA6ocPY-w-MbAfTRfQko5B2mjj2gidcdJTZvuBy0m00]--></g></svg>