<?xml version="1.0" encoding="UTF-8" standalone="no"?><svg xmlns="http://www.w3.org/2000/svg" xmlns:xlink="http://www.w3.org/1999/xlink" contentStyleType="text/css" height="1276px" preserveAspectRatio="none" style="width:1928px;height:1276px;background:#FFFFFF;" version="1.1" viewBox="0 0 1928 1276" width="1928px" zoomAndPan="magnify"><defs/><g><!--cluster <<aggregate>> Exam--><g id="cluster_&lt;&lt;aggregate&gt;&gt; Exam"><path d="M8.5,500.36 L195.875,500.36 A3.75,3.75 0 0 1 198.375,502.86 L205.375,533.6 L842.5,533.6 A2.5,2.5 0 0 1 845,536.1 L845,1037.86 A2.5,2.5 0 0 1 842.5,1040.36 L8.5,1040.36 A2.5,2.5 0 0 1 6,1037.86 L6,502.86 A2.5,2.5 0 0 1 8.5,500.36 " fill="none" style="stroke:#000000;stroke-width:1.5;"/><line style="stroke:#000000;stroke-width:1.5;" x1="6" x2="205.375" y1="533.6" y2="533.6"/><text fill="#000000" font-family="sans-serif" font-size="20" font-weight="bold" lengthAdjust="spacing" textLength="186.375" x="10" y="523.74">«aggregate» Exam</text></g><!--cluster <<aggregate>> FormativeExam--><g id="cluster_&lt;&lt;aggregate&gt;&gt; FormativeExam"><path d="M871.5,713.36 L1161.5,713.36 A3.75,3.75 0 0 1 1164,715.86 L1171,746.6 L1171.5,746.6 A2.5,2.5 0 0 1 1174,749.1 L1174,864.86 A2.5,2.5 0 0 1 1171.5,867.36 L871.5,867.36 A2.5,2.5 0 0 1 869,864.86 L869,715.86 A2.5,2.5 0 0 1 871.5,713.36 " fill="none" style="stroke:#000000;stroke-width:1.5;"/><line style="stroke:#000000;stroke-width:1.5;" x1="869" x2="1171" y1="746.6" y2="746.6"/><text fill="#000000" font-family="sans-serif" font-size="20" font-weight="bold" lengthAdjust="spacing" textLength="289" x="873" y="736.74">«aggregate» FormativeExam</text></g><!--cluster <<aggregate>> EvaluationExam--><g id="cluster_&lt;&lt;aggregate&gt;&gt; EvaluationExam"><path d="M1528.5,500.36 L1823.125,500.36 A3.75,3.75 0 0 1 1825.625,502.86 L1832.625,533.6 L1918.5,533.6 A2.5,2.5 0 0 1 1921,536.1 L1921,1037.86 A2.5,2.5 0 0 1 1918.5,1040.36 L1528.5,1040.36 A2.5,2.5 0 0 1 1526,1037.86 L1526,502.86 A2.5,2.5 0 0 1 1528.5,500.36 " fill="none" style="stroke:#000000;stroke-width:1.5;"/><line style="stroke:#000000;stroke-width:1.5;" x1="1526" x2="1832.625" y1="533.6" y2="533.6"/><text fill="#000000" font-family="sans-serif" font-size="20" font-weight="bold" lengthAdjust="spacing" textLength="293.625" x="1530" y="523.74">«aggregate» EvaluationExam</text></g><!--cluster <<agregate>> Question--><g id="cluster_&lt;&lt;agregate&gt;&gt; Question"><path d="M26.5,1115.36 L238.75,1115.36 A3.75,3.75 0 0 1 241.25,1117.86 L248.25,1148.6 L248.5,1148.6 A2.5,2.5 0 0 1 251,1151.1 L251,1266.86 A2.5,2.5 0 0 1 248.5,1269.36 L26.5,1269.36 A2.5,2.5 0 0 1 24,1266.86 L24,1117.86 A2.5,2.5 0 0 1 26.5,1115.36 " fill="none" style="stroke:#000000;stroke-width:1.5;"/><line style="stroke:#000000;stroke-width:1.5;" x1="24" x2="248.25" y1="1148.6" y2="1148.6"/><text fill="#000000" font-family="sans-serif" font-size="20" font-weight="bold" lengthAdjust="spacing" textLength="211.25" x="28" y="1138.74">«agregate» Question</text></g><!--cluster <<aggregate>> Student--><g id="cluster_&lt;&lt;aggregate&gt;&gt; Student"><path d="M667.5,8.36 L881.75,8.36 A3.75,3.75 0 0 1 884.25,10.86 L891.25,41.6 L891.5,41.6 A2.5,2.5 0 0 1 894,44.1 L894,159.86 A2.5,2.5 0 0 1 891.5,162.36 L667.5,162.36 A2.5,2.5 0 0 1 665,159.86 L665,10.86 A2.5,2.5 0 0 1 667.5,8.36 " fill="none" style="stroke:#000000;stroke-width:1.5;"/><line style="stroke:#000000;stroke-width:1.5;" x1="665" x2="891.25" y1="41.6" y2="41.6"/><text fill="#000000" font-family="sans-serif" font-size="20" font-weight="bold" lengthAdjust="spacing" textLength="213.25" x="669" y="31.74">«aggregate» Student</text></g><!--cluster <<aggregate>> Course--><g id="cluster_&lt;&lt;aggregate&gt;&gt; Course"><path d="M1033.5,900.36 L1237.125,900.36 A3.75,3.75 0 0 1 1239.625,902.86 L1246.625,933.6 L1246.5,933.6 A2.5,2.5 0 0 1 1249,936.1 L1249,1051.86 A2.5,2.5 0 0 1 1246.5,1054.36 L1033.5,1054.36 A2.5,2.5 0 0 1 1031,1051.86 L1031,902.86 A2.5,2.5 0 0 1 1033.5,900.36 " fill="none" style="stroke:#000000;stroke-width:1.5;"/><line style="stroke:#000000;stroke-width:1.5;" x1="1031" x2="1246.625" y1="933.6" y2="933.6"/><text fill="#000000" font-family="sans-serif" font-size="20" font-weight="bold" lengthAdjust="spacing" textLength="202.625" x="1035" y="923.74">«aggregate» Course</text></g><!--cluster <<aggregate>> ExamAnswer--><g id="cluster_&lt;&lt;aggregate&gt;&gt; ExamAnswer"><path d="M642.5,223.36 L905.625,223.36 A3.75,3.75 0 0 1 908.125,225.86 L915.125,256.6 L915.5,256.6 A2.5,2.5 0 0 1 918,259.1 L918,374.86 A2.5,2.5 0 0 1 915.5,377.36 L642.5,377.36 A2.5,2.5 0 0 1 640,374.86 L640,225.86 A2.5,2.5 0 0 1 642.5,223.36 " fill="none" style="stroke:#000000;stroke-width:1.5;"/><line style="stroke:#000000;stroke-width:1.5;" x1="640" x2="915.125" y1="256.6" y2="256.6"/><text fill="#000000" font-family="sans-serif" font-size="20" font-weight="bold" lengthAdjust="spacing" textLength="262.125" x="644" y="246.74">«aggregate» ExamAnswer</text></g><!--cluster <<aggregate>> Teacher--><g id="cluster_&lt;&lt;aggregate&gt;&gt; Teacher"><path d="M1275.5,900.36 L1489.75,900.36 A3.75,3.75 0 0 1 1492.25,902.86 L1499.25,933.6 L1499.5,933.6 A2.5,2.5 0 0 1 1502,936.1 L1502,1051.86 A2.5,2.5 0 0 1 1499.5,1054.36 L1275.5,1054.36 A2.5,2.5 0 0 1 1273,1051.86 L1273,902.86 A2.5,2.5 0 0 1 1275.5,900.36 " fill="none" style="stroke:#000000;stroke-width:1.5;"/><line style="stroke:#000000;stroke-width:1.5;" x1="1273" x2="1499.25" y1="933.6" y2="933.6"/><text fill="#000000" font-family="sans-serif" font-size="20" font-weight="bold" lengthAdjust="spacing" textLength="213.25" x="1277" y="923.74">«aggregate» Teacher</text></g><!--class Exam--><g id="elem_Exam"><rect codeLine="77" fill="#F5F5DC" height="91.7199" id="Exam" rx="2.5" ry="2.5" style="stroke:#181818;stroke-width:0.5;" width="100" x="729" y="546.36"/><ellipse cx="745" cy="592.22" fill="#ADD1B2" rx="12" ry="12" style="stroke:#181818;stroke-width:1.0;"/><path d="M749.0469,599.72 L740.4375,599.72 L740.4375,584.8137 L749.0469,584.8137 L749.0469,587.0168 L742.8594,587.0168 L742.8594,590.8606 L748.6875,590.8606 L748.6875,593.0325 L742.8594,593.0325 L742.8594,597.5168 L749.0469,597.5168 L749.0469,599.72 Z " fill="#000000"/><text fill="#000000" font-family="sans-serif" font-size="20" font-style="italic" lengthAdjust="spacing" textLength="70" x="758" y="572.74">«entity»</text><text fill="#000000" font-family="sans-serif" font-size="20" font-style="italic" lengthAdjust="spacing" textLength="57" x="764.5" y="599.9799">«root»</text><text fill="#000000" font-family="sans-serif" font-size="20" lengthAdjust="spacing" textLength="52" x="767" y="627.2199">Exam</text></g><!--class Section--><g id="elem_Section"><rect codeLine="80" fill="#F5F5DC" height="64.4799" id="Section" rx="2.5" ry="2.5" style="stroke:#181818;stroke-width:0.5;" width="104" x="418" y="773.36"/><ellipse cx="434" cy="805.6" fill="#ADD1B2" rx="12" ry="12" style="stroke:#181818;stroke-width:1.0;"/><path d="M438.0469,813.1 L429.4375,813.1 L429.4375,798.1937 L438.0469,798.1937 L438.0469,800.3968 L431.8594,800.3968 L431.8594,804.2406 L437.6875,804.2406 L437.6875,806.4125 L431.8594,806.4125 L431.8594,810.8968 L438.0469,810.8968 L438.0469,813.1 Z " fill="#000000"/><text fill="#000000" font-family="sans-serif" font-size="20" font-style="italic" lengthAdjust="spacing" textLength="70" x="449" y="799.74">«entity»</text><text fill="#000000" font-family="sans-serif" font-size="20" lengthAdjust="spacing" textLength="70" x="449" y="826.9799">Section</text></g><!--class Description--><g id="elem_Description"><rect codeLine="87" fill="#F5F5DC" height="64.4799" id="Description" rx="2.5" ry="2.5" style="stroke:#181818;stroke-width:0.5;" width="156" x="557" y="773.36"/><ellipse cx="573" cy="805.6" fill="#FF8B40" rx="12" ry="12" style="stroke:#181818;stroke-width:1.0;"/><path d="M579.25,799.4437 L573.9375,814.35 L571.6875,814.35 L566.375,799.4437 L568.9063,799.4437 L572.2031,808.8031 Q572.4219,809.3968 572.5781,809.9437 Q572.75,810.4906 572.875,810.9906 Q573.0156,811.475 572.8125,811.5218 Q572.5938,811.4906 572.7344,810.975 Q572.875,810.4593 573.0469,809.9281 Q573.2188,809.3812 573.4219,808.7718 L576.6875,799.4437 L579.25,799.4437 Z " fill="#000000"/><text fill="#000000" font-family="sans-serif" font-size="20" font-style="italic" lengthAdjust="spacing" textLength="126" x="586" y="799.74">«value object»</text><text fill="#000000" font-family="sans-serif" font-size="20" lengthAdjust="spacing" textLength="111" x="593.5" y="826.9799">Description</text></g><!--class SectionQuestion--><g id="elem_SectionQuestion"><rect codeLine="50" fill="#F5F5DC" height="64.4799" id="SectionQuestion" rx="2.5" ry="2.5" style="stroke:#181818;stroke-width:0.5;" width="192" x="22" y="960.36"/><ellipse cx="38" cy="992.6" fill="#ADD1B2" rx="12" ry="12" style="stroke:#181818;stroke-width:1.0;"/><path d="M42.0469,1000.1 L33.4375,1000.1 L33.4375,985.1937 L42.0469,985.1937 L42.0469,987.3968 L35.8594,987.3968 L35.8594,991.2406 L41.6875,991.2406 L41.6875,993.4125 L35.8594,993.4125 L35.8594,997.8968 L42.0469,997.8968 L42.0469,1000.1 Z " fill="#000000"/><text fill="#000000" font-family="sans-serif" font-size="20" font-style="italic" lengthAdjust="spacing" textLength="70" x="97" y="986.74">«entity»</text><text fill="#000000" font-family="sans-serif" font-size="20" lengthAdjust="spacing" textLength="158" x="53" y="1013.9799">SectionQuestion</text></g><!--class Score--><g id="elem_Score"><rect codeLine="89" fill="#F5F5DC" height="64.4799" id="Score" rx="2.5" ry="2.5" style="stroke:#181818;stroke-width:0.5;" width="156" x="285" y="960.36"/><ellipse cx="301" cy="992.6" fill="#FF8B40" rx="12" ry="12" style="stroke:#181818;stroke-width:1.0;"/><path d="M307.25,986.4437 L301.9375,1001.35 L299.6875,1001.35 L294.375,986.4437 L296.9063,986.4437 L300.2031,995.8031 Q300.4219,996.3968 300.5781,996.9437 Q300.75,997.4906 300.875,997.9906 Q301.0156,998.475 300.8125,998.5218 Q300.5938,998.4906 300.7344,997.975 Q300.875,997.4593 301.0469,996.9281 Q301.2188,996.3812 301.4219,995.7718 L304.6875,986.4437 L307.25,986.4437 Z " fill="#000000"/><text fill="#000000" font-family="sans-serif" font-size="20" font-style="italic" lengthAdjust="spacing" textLength="126" x="314" y="986.74">«value object»</text><text fill="#000000" font-family="sans-serif" font-size="20" lengthAdjust="spacing" textLength="52" x="351" y="1013.9799">Score</text></g><!--class State--><g id="elem_State"><rect codeLine="83" fill="#F5F5DC" height="64.4799" id="State" rx="2.5" ry="2.5" style="stroke:#181818;stroke-width:0.5;" width="156" x="673" y="960.36"/><ellipse cx="689" cy="992.6" fill="#FF8B40" rx="12" ry="12" style="stroke:#181818;stroke-width:1.0;"/><path d="M695.25,986.4437 L689.9375,1001.35 L687.6875,1001.35 L682.375,986.4437 L684.9063,986.4437 L688.2031,995.8031 Q688.4219,996.3968 688.5781,996.9437 Q688.75,997.4906 688.875,997.9906 Q689.0156,998.475 688.8125,998.5218 Q688.5938,998.4906 688.7344,997.975 Q688.875,997.4593 689.0469,996.9281 Q689.2188,996.3812 689.4219,995.7718 L692.6875,986.4437 L695.25,986.4437 Z " fill="#000000"/><text fill="#000000" font-family="sans-serif" font-size="20" font-style="italic" lengthAdjust="spacing" textLength="126" x="702" y="986.74">«value object»</text><text fill="#000000" font-family="sans-serif" font-size="20" lengthAdjust="spacing" textLength="49" x="740.5" y="1013.9799">State</text></g><!--class SectionName--><g id="elem_SectionName"><rect codeLine="82" fill="#F5F5DC" height="64.4799" id="SectionName" rx="2.5" ry="2.5" style="stroke:#181818;stroke-width:0.5;" width="161" x="476.5" y="960.36"/><ellipse cx="492.5" cy="992.6" fill="#FF8B40" rx="12" ry="12" style="stroke:#181818;stroke-width:1.0;"/><path d="M498.75,986.4437 L493.4375,1001.35 L491.1875,1001.35 L485.875,986.4437 L488.4063,986.4437 L491.7031,995.8031 Q491.9219,996.3968 492.0781,996.9437 Q492.25,997.4906 492.375,997.9906 Q492.5156,998.475 492.3125,998.5218 Q492.0938,998.4906 492.2344,997.975 Q492.375,997.4593 492.5469,996.9281 Q492.7188,996.3812 492.9219,995.7718 L496.1875,986.4437 L498.75,986.4437 Z " fill="#000000"/><text fill="#000000" font-family="sans-serif" font-size="20" font-style="italic" lengthAdjust="spacing" textLength="126" x="508" y="986.74">«value object»</text><text fill="#000000" font-family="sans-serif" font-size="20" lengthAdjust="spacing" textLength="127" x="507.5" y="1013.9799">SectionName</text></g><!--class FormativeExam--><g id="elem_FormativeExam"><rect codeLine="28" fill="#F5F5DC" height="91.7199" id="FormativeExam" rx="2.5" ry="2.5" style="stroke:#181818;stroke-width:0.5;" width="183" x="885.5" y="759.36"/><ellipse cx="901.5" cy="805.22" fill="#ADD1B2" rx="12" ry="12" style="stroke:#181818;stroke-width:1.0;"/><path d="M905.5469,812.72 L896.9375,812.72 L896.9375,797.8137 L905.5469,797.8137 L905.5469,800.0168 L899.3594,800.0168 L899.3594,803.8606 L905.1875,803.8606 L905.1875,806.0325 L899.3594,806.0325 L899.3594,810.5168 L905.5469,810.5168 L905.5469,812.72 Z " fill="#000000"/><text fill="#000000" font-family="sans-serif" font-size="20" font-style="italic" lengthAdjust="spacing" textLength="70" x="956" y="785.74">«entity»</text><text fill="#000000" font-family="sans-serif" font-size="20" font-style="italic" lengthAdjust="spacing" textLength="57" x="962.5" y="812.9799">«root»</text><text fill="#000000" font-family="sans-serif" font-size="20" lengthAdjust="spacing" textLength="149" x="916.5" y="840.2199">FormativeExam</text></g><!--class EvaluationExam--><g id="elem_EvaluationExam"><rect codeLine="39" fill="#F5F5DC" height="91.7199" id="EvaluationExam" rx="2.5" ry="2.5" style="stroke:#181818;stroke-width:0.5;" width="187" x="1620.5" y="546.36"/><ellipse cx="1636.5" cy="592.22" fill="#ADD1B2" rx="12" ry="12" style="stroke:#181818;stroke-width:1.0;"/><path d="M1640.5469,599.72 L1631.9375,599.72 L1631.9375,584.8137 L1640.5469,584.8137 L1640.5469,587.0168 L1634.3594,587.0168 L1634.3594,590.8606 L1640.1875,590.8606 L1640.1875,593.0325 L1634.3594,593.0325 L1634.3594,597.5168 L1640.5469,597.5168 L1640.5469,599.72 Z " fill="#000000"/><text fill="#000000" font-family="sans-serif" font-size="20" font-style="italic" lengthAdjust="spacing" textLength="70" x="1693" y="572.74">«entity»</text><text fill="#000000" font-family="sans-serif" font-size="20" font-style="italic" lengthAdjust="spacing" textLength="57" x="1699.5" y="599.9799">«root»</text><text fill="#000000" font-family="sans-serif" font-size="20" lengthAdjust="spacing" textLength="153" x="1651.5" y="627.2199">EvaluationExam</text></g><!--class Time--><g id="elem_Time"><rect codeLine="88" fill="#F5F5DC" height="64.4799" id="Time" rx="2.5" ry="2.5" style="stroke:#181818;stroke-width:0.5;" width="156" x="1579" y="773.36"/><ellipse cx="1595" cy="805.6" fill="#FF8B40" rx="12" ry="12" style="stroke:#181818;stroke-width:1.0;"/><path d="M1601.25,799.4437 L1595.9375,814.35 L1593.6875,814.35 L1588.375,799.4437 L1590.9063,799.4437 L1594.2031,808.8031 Q1594.4219,809.3968 1594.5781,809.9437 Q1594.75,810.4906 1594.875,810.9906 Q1595.0156,811.475 1594.8125,811.5218 Q1594.5938,811.4906 1594.7344,810.975 Q1594.875,810.4593 1595.0469,809.9281 Q1595.2188,809.3812 1595.4219,808.7718 L1598.6875,799.4437 L1601.25,799.4437 Z " fill="#000000"/><text fill="#000000" font-family="sans-serif" font-size="20" font-style="italic" lengthAdjust="spacing" textLength="126" x="1608" y="799.74">«value object»</text><text fill="#000000" font-family="sans-serif" font-size="20" lengthAdjust="spacing" textLength="49" x="1646.5" y="826.9799">Time</text></g><!--class FeedbackType--><g id="elem_FeedbackType"><rect codeLine="85" fill="#F5F5DC" height="64.4799" id="FeedbackType" rx="2.5" ry="2.5" style="stroke:#181818;stroke-width:0.5;" width="171" x="1542.5" y="960.36"/><ellipse cx="1558.5" cy="992.6" fill="#FF8B40" rx="12" ry="12" style="stroke:#181818;stroke-width:1.0;"/><path d="M1564.75,986.4437 L1559.4375,1001.35 L1557.1875,1001.35 L1551.875,986.4437 L1554.4063,986.4437 L1557.7031,995.8031 Q1557.9219,996.3968 1558.0781,996.9437 Q1558.25,997.4906 1558.375,997.9906 Q1558.5156,998.475 1558.3125,998.5218 Q1558.0938,998.4906 1558.2344,997.975 Q1558.375,997.4593 1558.5469,996.9281 Q1558.7188,996.3812 1558.9219,995.7718 L1562.1875,986.4437 L1564.75,986.4437 Z " fill="#000000"/><text fill="#000000" font-family="sans-serif" font-size="20" font-style="italic" lengthAdjust="spacing" textLength="126" x="1579" y="986.74">«value object»</text><text fill="#000000" font-family="sans-serif" font-size="20" lengthAdjust="spacing" textLength="137" x="1573.5" y="1013.9799">FeedbackType</text></g><!--class GradeType--><g id="elem_GradeType"><rect codeLine="86" fill="#F5F5DC" height="64.4799" id="GradeType" rx="2.5" ry="2.5" style="stroke:#181818;stroke-width:0.5;" width="156" x="1749" y="960.36"/><ellipse cx="1765" cy="992.6" fill="#FF8B40" rx="12" ry="12" style="stroke:#181818;stroke-width:1.0;"/><path d="M1771.25,986.4437 L1765.9375,1001.35 L1763.6875,1001.35 L1758.375,986.4437 L1760.9063,986.4437 L1764.2031,995.8031 Q1764.4219,996.3968 1764.5781,996.9437 Q1764.75,997.4906 1764.875,997.9906 Q1765.0156,998.475 1764.8125,998.5218 Q1764.5938,998.4906 1764.7344,997.975 Q1764.875,997.4593 1765.0469,996.9281 Q1765.2188,996.3812 1765.4219,995.7718 L1768.6875,986.4437 L1771.25,986.4437 Z " fill="#000000"/><text fill="#000000" font-family="sans-serif" font-size="20" font-style="italic" lengthAdjust="spacing" textLength="126" x="1778" y="986.74">«value object»</text><text fill="#000000" font-family="sans-serif" font-size="20" lengthAdjust="spacing" textLength="105" x="1788.5" y="1013.9799">GradeType</text></g><!--class Question--><g id="elem_Question"><rect codeLine="91" fill="#F5F5DC" height="91.7199" id="Question" rx="2.5" ry="2.5" style="stroke:#181818;stroke-width:0.5;" width="122" x="57" y="1161.36"/><ellipse cx="73" cy="1207.22" fill="#ADD1B2" rx="12" ry="12" style="stroke:#181818;stroke-width:1.0;"/><path d="M77.0469,1214.72 L68.4375,1214.72 L68.4375,1199.8137 L77.0469,1199.8137 L77.0469,1202.0168 L70.8594,1202.0168 L70.8594,1205.8606 L76.6875,1205.8606 L76.6875,1208.0325 L70.8594,1208.0325 L70.8594,1212.5168 L77.0469,1212.5168 L77.0469,1214.72 Z " fill="#000000"/><text fill="#000000" font-family="sans-serif" font-size="20" font-style="italic" lengthAdjust="spacing" textLength="70" x="97" y="1187.74">«entity»</text><text fill="#000000" font-family="sans-serif" font-size="20" font-style="italic" lengthAdjust="spacing" textLength="57" x="103.5" y="1214.9799">«root»</text><text fill="#000000" font-family="sans-serif" font-size="20" lengthAdjust="spacing" textLength="88" x="88" y="1242.2199">Question</text></g><!--class Student--><g id="elem_Student"><rect codeLine="53" fill="#F5F5DC" height="91.7199" id="Student" rx="2.5" ry="2.5" style="stroke:#181818;stroke-width:0.5;" width="111" x="723.5" y="54.36"/><ellipse cx="739.5" cy="100.22" fill="#ADD1B2" rx="12" ry="12" style="stroke:#181818;stroke-width:1.0;"/><path d="M743.5469,107.72 L734.9375,107.72 L734.9375,92.8137 L743.5469,92.8137 L743.5469,95.0168 L737.3594,95.0168 L737.3594,98.8606 L743.1875,98.8606 L743.1875,101.0325 L737.3594,101.0325 L737.3594,105.5168 L743.5469,105.5168 L743.5469,107.72 Z " fill="#000000"/><text fill="#000000" font-family="sans-serif" font-size="20" font-style="italic" lengthAdjust="spacing" textLength="70" x="758" y="80.74">«entity»</text><text fill="#000000" font-family="sans-serif" font-size="20" font-style="italic" lengthAdjust="spacing" textLength="57" x="764.5" y="107.9799">«root»</text><text fill="#000000" font-family="sans-serif" font-size="20" lengthAdjust="spacing" textLength="77" x="754.5" y="135.2199">Student</text></g><!--class Course--><g id="elem_Course"><rect codeLine="60" fill="#F5F5DC" height="91.7199" id="Course" rx="2.5" ry="2.5" style="stroke:#181818;stroke-width:0.5;" width="101" x="1131.5" y="946.36"/><ellipse cx="1147.5" cy="992.22" fill="#ADD1B2" rx="12" ry="12" style="stroke:#181818;stroke-width:1.0;"/><path d="M1151.5469,999.72 L1142.9375,999.72 L1142.9375,984.8137 L1151.5469,984.8137 L1151.5469,987.0168 L1145.3594,987.0168 L1145.3594,990.8606 L1151.1875,990.8606 L1151.1875,993.0325 L1145.3594,993.0325 L1145.3594,997.5168 L1151.5469,997.5168 L1151.5469,999.72 Z " fill="#000000"/><text fill="#000000" font-family="sans-serif" font-size="20" font-style="italic" lengthAdjust="spacing" textLength="70" x="1161" y="972.74">«entity»</text><text fill="#000000" font-family="sans-serif" font-size="20" font-style="italic" lengthAdjust="spacing" textLength="57" x="1167.5" y="999.9799">«root»</text><text fill="#000000" font-family="sans-serif" font-size="20" lengthAdjust="spacing" textLength="67" x="1162.5" y="1027.2199">Course</text></g><!--class ExamAnswer--><g id="elem_ExamAnswer"><rect codeLine="67" fill="#F5F5DC" height="91.7199" id="ExamAnswer" rx="2.5" ry="2.5" style="stroke:#181818;stroke-width:0.5;" width="158" x="700" y="269.36"/><ellipse cx="716" cy="315.22" fill="#ADD1B2" rx="12" ry="12" style="stroke:#181818;stroke-width:1.0;"/><path d="M720.0469,322.72 L711.4375,322.72 L711.4375,307.8137 L720.0469,307.8137 L720.0469,310.0168 L713.8594,310.0168 L713.8594,313.8606 L719.6875,313.8606 L719.6875,316.0325 L713.8594,316.0325 L713.8594,320.5168 L720.0469,320.5168 L720.0469,322.72 Z " fill="#000000"/><text fill="#000000" font-family="sans-serif" font-size="20" font-style="italic" lengthAdjust="spacing" textLength="70" x="758" y="295.74">«entity»</text><text fill="#000000" font-family="sans-serif" font-size="20" font-style="italic" lengthAdjust="spacing" textLength="57" x="764.5" y="322.9799">«root»</text><text fill="#000000" font-family="sans-serif" font-size="20" lengthAdjust="spacing" textLength="124" x="731" y="350.2199">ExamAnswer</text></g><!--class Teacher--><g id="elem_Teacher"><rect codeLine="74" fill="#F5F5DC" height="91.7199" id="Teacher" rx="2.5" ry="2.5" style="stroke:#181818;stroke-width:0.5;" width="111" x="1310.5" y="946.36"/><ellipse cx="1326.5" cy="992.22" fill="#ADD1B2" rx="12" ry="12" style="stroke:#181818;stroke-width:1.0;"/><path d="M1330.5469,999.72 L1321.9375,999.72 L1321.9375,984.8137 L1330.5469,984.8137 L1330.5469,987.0168 L1324.3594,987.0168 L1324.3594,990.8606 L1330.1875,990.8606 L1330.1875,993.0325 L1324.3594,993.0325 L1324.3594,997.5168 L1330.5469,997.5168 L1330.5469,999.72 Z " fill="#000000"/><text fill="#000000" font-family="sans-serif" font-size="20" font-style="italic" lengthAdjust="spacing" textLength="70" x="1345" y="972.74">«entity»</text><text fill="#000000" font-family="sans-serif" font-size="20" font-style="italic" lengthAdjust="spacing" textLength="57" x="1351.5" y="999.9799">«root»</text><text fill="#000000" font-family="sans-serif" font-size="20" lengthAdjust="spacing" textLength="77" x="1341.5" y="1027.2199">Teacher</text></g><g id="elem_GMN32"><path d="M686,1175.36 L686,1239.8399 A0,0 0 0 0 686,1239.8399 L816,1239.8399 A0,0 0 0 0 816,1239.8399 L816,1185.36 L806,1175.36 L755,1175.36 L751,1024.79 L747,1175.36 L686,1175.36 A0,0 0 0 0 686,1175.36 " fill="#FEFFDD" style="stroke:#181818;stroke-width:0.5;"/><path d="M806,1175.36 L806,1185.36 L816,1185.36 L806,1175.36 " fill="#FEFFDD" style="stroke:#181818;stroke-width:0.5;"/><text fill="#000000" font-family="sans-serif" font-size="20" lengthAdjust="spacing" textLength="63" x="692" y="1201.74">DRAFT</text><text fill="#000000" font-family="sans-serif" font-size="20" lengthAdjust="spacing" textLength="109" x="692" y="1228.9799">PUBLISHED</text></g><g id="elem_GMN41"><path d="M1534,1161.36 L1534,1253.0799 A0,0 0 0 0 1534,1253.0799 L1710,1253.0799 A0,0 0 0 0 1710,1253.0799 L1710,1171.36 L1700,1161.36 L1627.28,1161.36 L1627.11,1024.79 L1619.28,1161.36 L1534,1161.36 A0,0 0 0 0 1534,1161.36 " fill="#FEFFDD" style="stroke:#181818;stroke-width:0.5;"/><path d="M1700,1161.36 L1700,1171.36 L1710,1171.36 L1700,1161.36 " fill="#FEFFDD" style="stroke:#181818;stroke-width:0.5;"/><text fill="#000000" font-family="sans-serif" font-size="20" lengthAdjust="spacing" textLength="58" x="1540" y="1187.74">NONE</text><text fill="#000000" font-family="sans-serif" font-size="20" lengthAdjust="spacing" textLength="155" x="1540" y="1214.9799">ON_SUBMITION</text><text fill="#000000" font-family="sans-serif" font-size="20" lengthAdjust="spacing" textLength="155" x="1540" y="1242.2199">AFTER_CLOSING</text></g><g id="elem_GMN44"><path d="M1745,1161.36 L1745,1253.0799 A0,0 0 0 0 1745,1253.0799 L1921,1253.0799 A0,0 0 0 0 1921,1253.0799 L1921,1171.36 L1911,1161.36 L1835.72,1161.36 L1827.89,1024.79 L1827.72,1161.36 L1745,1161.36 A0,0 0 0 0 1745,1161.36 " fill="#FEFFDD" style="stroke:#181818;stroke-width:0.5;"/><path d="M1911,1161.36 L1911,1171.36 L1921,1171.36 L1911,1161.36 " fill="#FEFFDD" style="stroke:#181818;stroke-width:0.5;"/><text fill="#000000" font-family="sans-serif" font-size="20" lengthAdjust="spacing" textLength="58" x="1751" y="1187.74">NONE</text><text fill="#000000" font-family="sans-serif" font-size="20" lengthAdjust="spacing" textLength="155" x="1751" y="1214.9799">ON_SUBMITION</text><text fill="#000000" font-family="sans-serif" font-size="20" lengthAdjust="spacing" textLength="155" x="1751" y="1242.2199">AFTER_CLOSING</text></g><!--reverse link Exam to EvaluationExam--><g id="link_Exam_EvaluationExam"><path codeLine="93" d="M849.3,592.36 C1106.29,592.36 1363.27,592.36 1620.25,592.36 " fill="none" id="Exam-backto-EvaluationExam" style="stroke:#222222;stroke-width:1.0;"/><polygon fill="none" points="849.22,599.36,829.22,592.36,849.22,585.36,849.22,599.36" style="stroke:#222222;stroke-width:1.0;"/></g><!--reverse link Exam to FormativeExam--><g id="link_Exam_FormativeExam"><path codeLine="94" d="M835.17,653.21 C866.72,686.84 905.47,728.14 934.49,759.06 " fill="none" id="Exam-backto-FormativeExam" style="stroke:#222222;stroke-width:1.0;"/><polygon fill="none" points="829.81,657.74,821.23,638.37,840.02,648.16,829.81,657.74" style="stroke:#222222;stroke-width:1.0;"/></g><!--link EvaluationExam to Time--><g id="link_EvaluationExam_Time"><path codeLine="96" d="M1620.38,625.37 C1601.92,636.1 1584.91,650.14 1574,668.36 C1553.33,702.88 1582.95,742.08 1612.38,769.5 " fill="none" id="EvaluationExam-to-Time" style="stroke:#222222;stroke-width:1.0;"/><polygon fill="#222222" points="1616.34,773.12,1612.399,764.094,1612.6507,769.7453,1606.9994,769.9969,1616.34,773.12" style="stroke:#222222;stroke-width:1.0;"/><text fill="#000000" font-family="sans-serif" font-size="20" lengthAdjust="spacing" textLength="95" x="1575" y="690.74">start time</text><text fill="#000000" font-family="sans-serif" font-size="20" lengthAdjust="spacing" textLength="32" x="1574.6016" y="759.6178">0..1</text></g><!--link EvaluationExam to Time--><g id="link_EvaluationExam_Time"><path codeLine="97" d="M1701.84,638.37 C1691.4,677.01 1676.54,732.01 1666.84,767.94 " fill="none" id="EvaluationExam-to-Time-1" style="stroke:#222222;stroke-width:1.0;"/><polygon fill="#222222" points="1665.44,773.1,1671.6422,765.4493,1666.7399,768.2719,1663.9173,763.3696,1665.44,773.1" style="stroke:#222222;stroke-width:1.0;"/><text fill="#000000" font-family="sans-serif" font-size="20" lengthAdjust="spacing" textLength="86" x="1693" y="690.74">end time</text><text fill="#000000" font-family="sans-serif" font-size="20" lengthAdjust="spacing" textLength="32" x="1632.1406" y="759.5944">0..1</text></g><!--link Exam to State--><g id="link_Exam_State"><path codeLine="99" d="M775.82,638.63 C770.2,718.41 758.66,882.5 753.54,955.25 " fill="none" id="Exam-to-State" style="stroke:#222222;stroke-width:1.0;"/><polygon fill="#222222" points="753.18,960.33,757.8128,951.6388,753.5373,955.3428,749.8333,951.0672,753.18,960.33" style="stroke:#222222;stroke-width:1.0;"/><text fill="#000000" font-family="sans-serif" font-size="20" lengthAdjust="spacing" textLength="40" x="772" y="813.24">is in</text><text fill="#000000" font-family="sans-serif" font-size="20" lengthAdjust="spacing" textLength="11" x="741.5886" y="946.5786">1</text></g><!--reverse link Exam to Section--><g id="link_Exam_Section"><path codeLine="106" d="M715.97,612.78 C664.62,630.84 592.32,661.58 540,705.36 C517.56,724.14 498.85,751.71 486.44,772.99 " fill="none" id="Exam-backto-Section" style="stroke:#222222;stroke-width:1.0;"/><polygon fill="#222222" points="728.54,608.46,721.5674,606.6207,717.1878,612.3495,724.1604,614.1888,728.54,608.46" style="stroke:#222222;stroke-width:1.0;"/><text fill="#000000" font-family="sans-serif" font-size="20" lengthAdjust="spacing" textLength="32" x="454.5156" y="759.4654">1..*</text></g><!--link Exam to Course--><g id="link_Exam_Course"><path codeLine="107" d="M829.02,598.39 C896.22,607.75 1015.24,633.92 1085,705.36 C1148.33,770.22 1170.36,877.92 1177.99,941.01 " fill="none" id="Exam-to-Course" style="stroke:#222222;stroke-width:1.0;"/><polygon fill="#222222" points="1178.6,946.22,1181.5195,936.8138,1178.015,941.2543,1173.5744,937.7498,1178.6,946.22" style="stroke:#222222;stroke-width:1.0;"/><text fill="#000000" font-family="sans-serif" font-size="20" lengthAdjust="spacing" textLength="69" x="1167" y="813.24">is from</text><text fill="#000000" font-family="sans-serif" font-size="20" lengthAdjust="spacing" textLength="11" x="1166.4041" y="932.6208">1</text></g><!--link Exam to Teacher--><g id="link_Exam_Teacher"><path codeLine="108" d="M829.03,599.64 C935.91,613.94 1181.93,651.89 1245,705.36 C1316.74,766.18 1346.9,876.93 1358.83,941.3 " fill="none" id="Exam-to-Teacher" style="stroke:#222222;stroke-width:1.0;"/><polygon fill="#222222" points="1359.72,946.24,1362.0602,936.6732,1358.8331,941.3193,1354.1871,938.0922,1359.72,946.24" style="stroke:#222222;stroke-width:1.0;"/><text fill="#000000" font-family="sans-serif" font-size="20" lengthAdjust="spacing" textLength="121" x="1343" y="813.24">is created by</text><text fill="#000000" font-family="sans-serif" font-size="20" lengthAdjust="spacing" textLength="11" x="1347.1371" y="932.6435">1</text></g><!--reverse link EvaluationExam to FeedbackType--><g id="link_EvaluationExam_FeedbackType"><path codeLine="110" d="M1777.21,648.98 C1781.51,655.11 1785.22,661.59 1788,668.36 C1810.55,723.31 1844.88,722.85 1753,875.36 C1746.8,885.65 1741.02,884.44 1732,892.36 C1706.9,914.4 1679.58,940.49 1659.25,960.36 " fill="none" id="EvaluationExam-backto-FeedbackType" style="stroke:#222222;stroke-width:1.0;"/><polygon fill="#222222" points="1768.94,638.36,1769.4759,645.5512,1776.3201,647.8223,1775.7841,640.6311,1768.94,638.36" style="stroke:#222222;stroke-width:1.0;"/><text fill="#000000" font-family="sans-serif" font-size="20" lengthAdjust="spacing" textLength="11" x="1652.8367" y="946.6139">1</text></g><!--reverse link EvaluationExam to GradeType--><g id="link_EvaluationExam_GradeType"><path codeLine="111" d="M1789.67,648.5 C1794.84,654.7 1799.41,661.33 1803,668.36 C1852.51,765.25 1840.88,900.21 1832.26,960.33 " fill="none" id="EvaluationExam-backto-GradeType" style="stroke:#222222;stroke-width:1.0;"/><polygon fill="#222222" points="1780.49,638.51,1781.6063,645.6342,1788.6118,647.3438,1787.4955,640.2196,1780.49,638.51" style="stroke:#222222;stroke-width:1.0;"/><text fill="#000000" font-family="sans-serif" font-size="20" lengthAdjust="spacing" textLength="11" x="1821.2173" y="946.5786">1</text></g><!--reverse link Exam to Description--><g id="link_Exam_Description"><path codeLine="112" d="M740.9,649.19 C713.86,688.81 678.57,740.52 656.33,773.1 " fill="none" id="Exam-backto-Description" style="stroke:#222222;stroke-width:1.0;"/><polygon fill="#222222" points="748.29,638.37,741.6044,641.0724,741.5275,648.283,748.2131,645.5807,748.29,638.37" style="stroke:#222222;stroke-width:1.0;"/><text fill="#000000" font-family="sans-serif" font-size="20" lengthAdjust="spacing" textLength="11" x="648.0508" y="759.5944">1</text></g><!--reverse link Section to SectionQuestion--><g id="link_Section_SectionQuestion"><path codeLine="126" d="M405.69,830.06 C365.05,845.9 311.9,868.2 267,892.36 C229.53,912.52 189.49,939.45 160.37,960.14 " fill="none" id="Section-backto-SectionQuestion" style="stroke:#222222;stroke-width:1.0;"/><polygon fill="#222222" points="417.88,825.36,410.8433,823.7838,406.6819,829.673,413.7186,831.2492,417.88,825.36" style="stroke:#222222;stroke-width:1.0;"/><text fill="#000000" font-family="sans-serif" font-size="20" lengthAdjust="spacing" textLength="32" x="132.9023" y="946.6412">1..*</text></g><!--link SectionQuestion to Question--><g id="link_SectionQuestion_Question"><path codeLine="127" d="M118,1024.79 C118,1059.23 118,1114.99 118,1155.64 " fill="none" id="SectionQuestion-to-Question" style="stroke:#222222;stroke-width:1.0;"/><polygon fill="#222222" points="118,1161.02,122,1152.02,118,1156.02,114,1152.02,118,1161.02" style="stroke:#222222;stroke-width:1.0;"/><text fill="#000000" font-family="sans-serif" font-size="20" lengthAdjust="spacing" textLength="146" x="119" y="1092.74">corresponds to</text><text fill="#000000" font-family="sans-serif" font-size="20" lengthAdjust="spacing" textLength="11" x="106.2609" y="1147.3939">1</text></g><!--link SectionQuestion to Score--><g id="link_SectionQuestion_Score"><path codeLine="128" d="M214.13,992.36 C235.85,992.36 258.73,992.36 279.86,992.36 " fill="none" id="SectionQuestion-to-Score" style="stroke:#222222;stroke-width:1.0;"/><polygon fill="#222222" points="284.91,992.36,275.91,988.36,279.91,992.36,275.91,996.36,284.91,992.36" style="stroke:#222222;stroke-width:1.0;"/><text fill="#000000" font-family="sans-serif" font-size="20" lengthAdjust="spacing" textLength="34" x="232.5" y="982.74">has</text><text fill="#000000" font-family="sans-serif" font-size="20" lengthAdjust="spacing" textLength="11" x="265.9428" y="985.4418">1</text></g><!--reverse link Section to SectionName--><g id="link_Section_SectionName"><path codeLine="130" d="M490.34,849.61 C506.27,883.48 528.05,929.8 542.31,960.13 " fill="none" id="Section-backto-SectionName" style="stroke:#222222;stroke-width:1.0;"/><polygon fill="#222222" points="484.76,837.74,483.6901,844.8713,489.8613,848.6017,490.9312,841.4704,484.76,837.74" style="stroke:#222222;stroke-width:1.0;"/></g><!--link Student to ExamAnswer--><g id="link_Student_ExamAnswer"><path codeLine="132" d="M779,146.53 C779,180.98 779,228.43 779,264.08 " fill="none" id="Student-to-ExamAnswer" style="stroke:#222222;stroke-width:1.0;"/><polygon fill="#222222" points="779,269.25,783,260.25,779,264.25,775,260.25,779,269.25" style="stroke:#222222;stroke-width:1.0;"/><text fill="#000000" font-family="sans-serif" font-size="20" lengthAdjust="spacing" textLength="34" x="780" y="200.74">has</text><text fill="#000000" font-family="sans-serif" font-size="20" lengthAdjust="spacing" textLength="32" x="744.85" y="255.6548">0..*</text></g><!--link ExamAnswer to Exam--><g id="link_ExamAnswer_Exam"><path codeLine="134" d="M779,361.46 C779,410.81 779,489.72 779,541.04 " fill="none" id="ExamAnswer-to-Exam" style="stroke:#222222;stroke-width:1.0;"/><polygon fill="#222222" points="779,546.23,783,537.23,779,541.23,775,537.23,779,546.23" style="stroke:#222222;stroke-width:1.0;"/><text fill="#000000" font-family="sans-serif" font-size="20" lengthAdjust="spacing" textLength="50" x="780" y="446.74">is for</text><text fill="#000000" font-family="sans-serif" font-size="20" lengthAdjust="spacing" textLength="11" x="767.2609" y="532.6321">1</text></g><!--SRC=[bLLDSzem4BthL-muXxQPGaYcXmx3P0OII9b9eOr9hnbXRumQs_98SbAQzhzNjlmXsw405z3Rjn_QNJta4uiJAcWKSky9VV3naQQXcl5OkUmtmiM0lDiebSZXsLaIqbYbKTZtU7JcXLJAdizee9q9aMKSo0rZfGHRfmhd7e_pG0EoOJu2HedQ0YtDqaOZL1lkotQi2VMU0i7JsB_Y8HUmHXQWHHeBmL-CwUGY_n2IQ1yQ83YZ4Gq2WG5LU7a9qryqSk2L062ic4wP0QG-kkWfnkCCoLF3DKfFiAG4cxJlAShSKh9TZmkidLsbirf7uxMW4PA_EqkSSH5HnPwnKsl3aaLu2uVHoC0wr6WaE5Vwn-j_yasVQPZIhB1kSngc-Y8hfczG7cQ8_bg7NcsJ6hmHrCSSgSjiHZkmpghCijUD0gi1xBwUgr9Vinjk1MRLrXgeNTohJJEEH_VuYgT2OgC60rcn3N3y-7Glnx5yGT7PQmFR4wZ0ezEia7gRLeu2in8KoExeLY5xISLC6hFGrivRqeJtFpwUp6QV9vy67o3RCWI-_gaPniLwZ7kvfBlK1yQlLlv0lgKi1tfap-xGosP2jF-ohMVqzaWqpyphJw-j22NUQsaJQRtrNkyId46_V-wOImn1AYeKg4n8zd8nzWsJ58ICeSrceaDW4fXMvvZhqvehnIFWZuNu0bpVZMSh_VtjVd8xTxzChqaMBoCNyKvr-Svvlt_gLFBVp5Eyp3pHe-1HormkVMxt1EgqFgotdIReFBtSeQ6OkqYrWbf5Eit_ezQDMqgyM2wc-ckvU73l9r_dg_boeO-w6TExXwlRfJjVt5YjQCMgqnyRg7ostRPMQjrMsxAJ5J04lRy2PS9ZNuBYNOzY0_8r7yA6ocPY-w-MbAfTRfQko5B2mjj2gidcdJTZvuBy0m00]--></g></svg>