<?xml version="1.0" encoding="UTF-8" standalone="no"?><svg xmlns="http://www.w3.org/2000/svg" xmlns:xlink="http://www.w3.org/1999/xlink" contentStyleType="text/css" height="533px" preserveAspectRatio="none" style="width:598px;height:533px;background:#FFFFFF;" version="1.1" viewBox="0 0 598 533" width="598px" zoomAndPan="magnify"><defs/><g><rect fill="#FFFFFF" height="330.9198" style="stroke:#181818;stroke-width:1.0;" width="10" x="41.5" y="102.24"/><line style="stroke:#181818;stroke-width:0.5;stroke-dasharray:5.0,5.0;" x1="46" x2="46" y1="92.24" y2="442.1598"/><line style="stroke:#181818;stroke-width:0.5;stroke-dasharray:5.0,5.0;" x1="548.125" x2="548.125" y1="92.24" y2="442.1598"/><text fill="#000000" font-family="sans-serif" font-size="20" lengthAdjust="spacing" textLength="77" x="5" y="86.38">Teacher</text><ellipse cx="46.5" cy="13.5" fill="#E2E2F0" rx="8" ry="8" style="stroke:#181818;stroke-width:0.5;"/><path d="M46.5,21.5 L46.5,48.5 M33.5,29.5 L59.5,29.5 M46.5,48.5 L33.5,63.5 M46.5,48.5 L59.5,63.5 " fill="none" style="stroke:#181818;stroke-width:0.5;"/><text fill="#000000" font-family="sans-serif" font-size="20" lengthAdjust="spacing" textLength="77" x="5" y="462.5398">Teacher</text><ellipse cx="46.5" cy="476.8997" fill="#E2E2F0" rx="8" ry="8" style="stroke:#181818;stroke-width:0.5;"/><path d="M46.5,484.8997 L46.5,511.8997 M33.5,492.8997 L59.5,492.8997 M46.5,511.8997 L33.5,526.8997 M46.5,511.8997 L59.5,526.8997 " fill="none" style="stroke:#181818;stroke-width:0.5;"/><rect fill="#E2E2F0" height="41.24" rx="2.5" ry="2.5" style="stroke:#181818;stroke-width:0.5;" width="88" x="504.125" y="50"/><text fill="#000000" font-family="sans-serif" font-size="20" lengthAdjust="spacing" textLength="74" x="511.125" y="78.38">:System</text><rect fill="#E2E2F0" height="41.24" rx="2.5" ry="2.5" style="stroke:#181818;stroke-width:0.5;" width="88" x="504.125" y="441.1598"/><text fill="#000000" font-family="sans-serif" font-size="20" lengthAdjust="spacing" textLength="74" x="511.125" y="469.5398">:System</text><rect fill="#FFFFFF" height="330.9198" style="stroke:#181818;stroke-width:1.0;" width="10" x="41.5" y="102.24"/><polygon fill="#181818" points="536.125,131.4799,546.125,135.4799,536.125,139.4799,540.125,135.4799" style="stroke:#181818;stroke-width:1.0;"/><line style="stroke:#181818;stroke-width:1.0;" x1="51.5" x2="542.125" y1="135.4799" y2="135.4799"/><text fill="#000000" font-family="sans-serif" font-size="20" font-weight="bold" lengthAdjust="spacing" textLength="11.625" x="58.5" y="127.62">1</text><text fill="#000000" font-family="sans-serif" font-size="20" lengthAdjust="spacing" textLength="219" x="74.125" y="127.62">Asks to create an exam</text><polygon fill="#181818" points="62.5,172.7199,52.5,176.7199,62.5,180.7199,58.5,176.7199" style="stroke:#181818;stroke-width:1.0;"/><line style="stroke:#181818;stroke-width:1.0;" x1="56.5" x2="547.125" y1="176.7199" y2="176.7199"/><text fill="#000000" font-family="sans-serif" font-size="20" font-weight="bold" lengthAdjust="spacing" textLength="11.625" x="68.5" y="168.8599">2</text><text fill="#000000" font-family="sans-serif" font-size="20" lengthAdjust="spacing" textLength="457" x="84.125" y="168.8599">Lists all available courses and asks to select one</text><polygon fill="#181818" points="536.125,213.9599,546.125,217.9599,536.125,221.9599,540.125,217.9599" style="stroke:#181818;stroke-width:1.0;"/><line style="stroke:#181818;stroke-width:1.0;" x1="51.5" x2="542.125" y1="217.9599" y2="217.9599"/><text fill="#000000" font-family="sans-serif" font-size="20" font-weight="bold" lengthAdjust="spacing" textLength="11.625" x="58.5" y="210.0999">3</text><text fill="#000000" font-family="sans-serif" font-size="20" lengthAdjust="spacing" textLength="151" x="74.125" y="210.0999">Selects a course</text><polygon fill="#181818" points="62.5,255.1999,52.5,259.1999,62.5,263.1999,58.5,259.1999" style="stroke:#181818;stroke-width:1.0;"/><line style="stroke:#181818;stroke-width:1.0;" x1="56.5" x2="547.125" y1="259.1999" y2="259.1999"/><text fill="#000000" font-family="sans-serif" font-size="20" font-weight="bold" lengthAdjust="spacing" textLength="11.625" x="68.5" y="251.3399">4</text><text fill="#000000" font-family="sans-serif" font-size="20" lengthAdjust="spacing" textLength="427" x="84.125" y="251.3399">Asks the file path where the exam is defined</text><polygon fill="#181818" points="536.125,296.4398,546.125,300.4398,536.125,304.4398,540.125,300.4398" style="stroke:#181818;stroke-width:1.0;"/><line style="stroke:#181818;stroke-width:1.0;" x1="51.5" x2="542.125" y1="300.4398" y2="300.4398"/><text fill="#000000" font-family="sans-serif" font-size="20" font-weight="bold" lengthAdjust="spacing" textLength="11.625" x="58.5" y="292.5799">5</text><text fill="#000000" font-family="sans-serif" font-size="20" lengthAdjust="spacing" textLength="185" x="74.125" y="292.5799">Enters the file path</text><polygon fill="#181818" points="62.5,337.6798,52.5,341.6798,62.5,345.6798,58.5,341.6798" style="stroke:#181818;stroke-width:1.0;"/><line style="stroke:#181818;stroke-width:1.0;" x1="56.5" x2="547.125" y1="341.6798" y2="341.6798"/><text fill="#000000" font-family="sans-serif" font-size="20" font-weight="bold" lengthAdjust="spacing" textLength="11.625" x="68.5" y="333.8198">6</text><text fill="#000000" font-family="sans-serif" font-size="20" lengthAdjust="spacing" textLength="397" x="84.125" y="333.8198">Asks the start and end date/time of exam</text><polygon fill="#181818" points="536.125,378.9198,546.125,382.9198,536.125,386.9198,540.125,382.9198" style="stroke:#181818;stroke-width:1.0;"/><line style="stroke:#181818;stroke-width:1.0;" x1="51.5" x2="542.125" y1="382.9198" y2="382.9198"/><text fill="#000000" font-family="sans-serif" font-size="20" font-weight="bold" lengthAdjust="spacing" textLength="11.625" x="58.5" y="375.0598">7</text><text fill="#000000" font-family="sans-serif" font-size="20" lengthAdjust="spacing" textLength="333" x="74.125" y="375.0598">Enters the start and end date/time</text><polygon fill="#181818" points="62.5,420.1598,52.5,424.1598,62.5,428.1598,58.5,424.1598" style="stroke:#181818;stroke-width:1.0;"/><line style="stroke:#181818;stroke-width:1.0;" x1="56.5" x2="547.125" y1="424.1598" y2="424.1598"/><text fill="#000000" font-family="sans-serif" font-size="20" font-weight="bold" lengthAdjust="spacing" textLength="11.625" x="68.5" y="416.2998">8</text><text fill="#000000" font-family="sans-serif" font-size="20" lengthAdjust="spacing" textLength="255" x="84.125" y="416.2998">Informs operation success</text><!--SRC=[XP2xJiL034Jx_GehFG9Hfa2Y00c9xl83lfk9OcKVqTgvFBwUpGCA5A1OoR9dVBoZewI92yUG_OYEElGy1tlCoKxo0RgzSJnRJdCyepZ7tdAXvWNi1vI6MCcssjKj9bucJaPDUtfNGrm5kfQhLovi-7QulQ2hkrr4BTthM7TcyWMBbXFXZQFRvrNvPMhfMTIKE0JY2qlWSm3vF1T5xQQkihTLYW1lb1CEYQTrN2sx-P2rdJM0UgcKYMsWrph1sbik9D4bF4de3YaFoL1-hFYRf5OJNJ-2-hgQnhL91EL-Y-GVoY_sG-PJwdE9Idb2OPESI6VleUe-0G00]--></g></svg>