<?xml version="1.0" encoding="UTF-8" standalone="no"?><svg xmlns="http://www.w3.org/2000/svg" xmlns:xlink="http://www.w3.org/1999/xlink" contentStyleType="text/css" height="1748px" preserveAspectRatio="none" style="width:3365px;height:1748px;background:#FFFFFF;" version="1.1" viewBox="0 0 3365 1748" width="3365px" zoomAndPan="magnify"><defs/><g><rect fill="#FFFFFF" height="1523.0938" style="stroke:#181818;stroke-width:1.0;" width="10" x="43" y="107.5625"/><rect fill="#FFFFFF" height="645.3438" style="stroke:#181818;stroke-width:1.0;" width="10" x="590" y="136.8438"/><rect fill="#FFFFFF" height="37.2813" style="stroke:#181818;stroke-width:1.0;" width="10" x="590" y="819.4688"/><rect fill="#FFFFFF" height="299.5313" style="stroke:#181818;stroke-width:1.0;" width="10" x="590" y="894.0313"/><rect fill="#FFFFFF" height="390.8125" style="stroke:#181818;stroke-width:1.0;" width="10" x="590" y="1230.8438"/><rect fill="#FFFFFF" height="570.7813" style="stroke:#181818;stroke-width:1.0;" width="10" x="1202" y="174.125"/><rect fill="#FFFFFF" height="224.9688" style="stroke:#181818;stroke-width:1.0;" width="10" x="1202" y="931.3125"/><rect fill="#FFFFFF" height="316.25" style="stroke:#181818;stroke-width:1.0;" width="10" x="1202" y="1268.125"/><rect fill="#FFFFFF" height="37.2813" style="stroke:#181818;stroke-width:1.0;" width="10" x="1719" y="211.4063"/><rect fill="#FFFFFF" height="347.0938" style="stroke:#181818;stroke-width:1.0;" width="10" x="1942.5" y="360.5313"/><rect fill="#FFFFFF" height="187.6875" style="stroke:#181818;stroke-width:1.0;" width="10" x="2119" y="968.5938"/><rect fill="#FFFFFF" height="30" style="stroke:#181818;stroke-width:1.0;" width="10" x="2271" y="1375.25"/><rect fill="#FFFFFF" height="74.5625" style="stroke:#181818;stroke-width:1.0;" width="10" x="2271" y="1442.5313"/><rect fill="#FFFFFF" height="37.2813" style="stroke:#181818;stroke-width:1.0;" width="10" x="2595" y="626.0625"/><rect fill="#FFFFFF" height="30" style="stroke:#181818;stroke-width:1.0;" width="10" x="2882" y="1554.375"/><rect fill="#FFFFFF" height="150.4063" style="stroke:#181818;stroke-width:1.0;" width="10" x="3066.5" y="397.8125"/><rect fill="#FFFFFF" height="37.2813" style="stroke:#181818;stroke-width:1.0;" width="10" x="3263" y="285.9688"/><rect fill="none" height="108.125" style="stroke:#000000;stroke-width:1.5;" width="961" x="1842" y="563.2188"/><line style="stroke:#181818;stroke-width:0.5;stroke-dasharray:5.0,5.0;" x1="48" x2="48" y1="97.5625" y2="1639.6563"/><line style="stroke:#181818;stroke-width:0.5;stroke-dasharray:5.0,5.0;" x1="594.5" x2="594.5" y1="97.5625" y2="1639.6563"/><line style="stroke:#181818;stroke-width:0.5;stroke-dasharray:5.0,5.0;" x1="1206.5" x2="1206.5" y1="97.5625" y2="1639.6563"/><line style="stroke:#181818;stroke-width:0.5;stroke-dasharray:5.0,5.0;" x1="1724" x2="1724" y1="97.5625" y2="1639.6563"/><line style="stroke:#181818;stroke-width:0.5;stroke-dasharray:5.0,5.0;" x1="1947" x2="1947" y1="97.5625" y2="1639.6563"/><line style="stroke:#181818;stroke-width:0.5;stroke-dasharray:5.0,5.0;" x1="2124" x2="2124" y1="97.5625" y2="1639.6563"/><line style="stroke:#181818;stroke-width:0.5;stroke-dasharray:5.0,5.0;" x1="2276" x2="2276" y1="97.5625" y2="1639.6563"/><line style="stroke:#181818;stroke-width:0.5;stroke-dasharray:5.0,5.0;" x1="2445" x2="2445" y1="97.5625" y2="1639.6563"/><line style="stroke:#181818;stroke-width:0.5;stroke-dasharray:5.0,5.0;" x1="2600" x2="2600" y1="97.5625" y2="1639.6563"/><line style="stroke:#181818;stroke-width:0.5;stroke-dasharray:5.0,5.0;" x1="2730" x2="2730" y1="97.5625" y2="1639.6563"/><line style="stroke:#181818;stroke-width:0.5;stroke-dasharray:5.0,5.0;" x1="2887" x2="2887" y1="97.5625" y2="1639.6563"/><line style="stroke:#181818;stroke-width:0.5;stroke-dasharray:5.0,5.0;" x1="3071" x2="3071" y1="97.5625" y2="1639.6563"/><line style="stroke:#181818;stroke-width:0.5;stroke-dasharray:5.0,5.0;" x1="3268" x2="3268" y1="97.5625" y2="1639.6563"/><text fill="#000000" font-family="sans-serif" font-size="20" lengthAdjust="spacing" textLength="80" x="5" y="92.8457">Teacher</text><ellipse cx="48" cy="22.7813" fill="#E2E2F0" rx="8" ry="8" style="stroke:#181818;stroke-width:0.5;"/><path d="M48,30.7813 L48,57.7813 M35,38.7813 L61,38.7813 M48,57.7813 L35,72.7813 M48,57.7813 L61,72.7813 " fill="none" style="stroke:#181818;stroke-width:0.5;"/><text fill="#000000" font-family="sans-serif" font-size="20" lengthAdjust="spacing" textLength="80" x="5" y="1657.2207">Teacher</text><ellipse cx="48" cy="1670.4375" fill="#E2E2F0" rx="8" ry="8" style="stroke:#181818;stroke-width:0.5;"/><path d="M48,1678.4375 L48,1705.4375 M35,1686.4375 L61,1686.4375 M48,1705.4375 L35,1720.4375 M48,1705.4375 L61,1720.4375 " fill="none" style="stroke:#181818;stroke-width:0.5;"/><rect fill="#E2E2F0" height="60.5625" rx="2.5" ry="2.5" style="stroke:#181818;stroke-width:0.5;" width="165" x="512.5" y="36"/><text fill="#000000" font-family="sans-serif" font-size="20" font-style="italic" lengthAdjust="spacing" textLength="151" x="519.5" y="61.5645">«presentation»</text><text fill="#000000" font-family="sans-serif" font-size="20" lengthAdjust="spacing" textLength="143" x="523.5" y="84.8457">CreateExamUI</text><rect fill="#E2E2F0" height="60.5625" rx="2.5" ry="2.5" style="stroke:#181818;stroke-width:0.5;" width="165" x="512.5" y="1638.6563"/><text fill="#000000" font-family="sans-serif" font-size="20" font-style="italic" lengthAdjust="spacing" textLength="151" x="519.5" y="1664.2207">«presentation»</text><text fill="#000000" font-family="sans-serif" font-size="20" lengthAdjust="spacing" textLength="143" x="523.5" y="1687.502">CreateExamUI</text><rect fill="#E2E2F0" height="60.5625" rx="2.5" ry="2.5" style="stroke:#181818;stroke-width:0.5;" width="235" x="1089.5" y="36"/><text fill="#000000" font-family="sans-serif" font-size="20" font-style="italic" lengthAdjust="spacing" textLength="136" x="1139" y="61.5645">«application»</text><text fill="#000000" font-family="sans-serif" font-size="20" lengthAdjust="spacing" textLength="221" x="1096.5" y="84.8457">CreateExamController</text><rect fill="#E2E2F0" height="60.5625" rx="2.5" ry="2.5" style="stroke:#181818;stroke-width:0.5;" width="235" x="1089.5" y="1638.6563"/><text fill="#000000" font-family="sans-serif" font-size="20" font-style="italic" lengthAdjust="spacing" textLength="136" x="1139" y="1664.2207">«application»</text><text fill="#000000" font-family="sans-serif" font-size="20" lengthAdjust="spacing" textLength="221" x="1096.5" y="1687.502">CreateExamController</text><rect fill="#E2E2F0" height="60.5625" rx="2.5" ry="2.5" style="stroke:#181818;stroke-width:0.5;" width="236" x="1606" y="36"/><text fill="#000000" font-family="sans-serif" font-size="20" font-style="italic" lengthAdjust="spacing" textLength="95" x="1676.5" y="61.5645">«service»</text><text fill="#000000" font-family="sans-serif" font-size="20" lengthAdjust="spacing" textLength="222" x="1613" y="84.8457">AuthenticationService</text><rect fill="#E2E2F0" height="60.5625" rx="2.5" ry="2.5" style="stroke:#181818;stroke-width:0.5;" width="236" x="1606" y="1638.6563"/><text fill="#000000" font-family="sans-serif" font-size="20" font-style="italic" lengthAdjust="spacing" textLength="95" x="1676.5" y="1664.2207">«service»</text><text fill="#000000" font-family="sans-serif" font-size="20" lengthAdjust="spacing" textLength="222" x="1613" y="1687.502">AuthenticationService</text><rect fill="#E2E2F0" height="60.5625" rx="2.5" ry="2.5" style="stroke:#181818;stroke-width:0.5;" width="191" x="1852" y="36"/><text fill="#000000" font-family="sans-serif" font-size="20" font-style="italic" lengthAdjust="spacing" textLength="95" x="1900" y="61.5645">«service»</text><text fill="#000000" font-family="sans-serif" font-size="20" lengthAdjust="spacing" textLength="177" x="1859" y="84.8457">ListCourseService</text><rect fill="#E2E2F0" height="60.5625" rx="2.5" ry="2.5" style="stroke:#181818;stroke-width:0.5;" width="191" x="1852" y="1638.6563"/><text fill="#000000" font-family="sans-serif" font-size="20" font-style="italic" lengthAdjust="spacing" textLength="95" x="1900" y="1664.2207">«service»</text><text fill="#000000" font-family="sans-serif" font-size="20" lengthAdjust="spacing" textLength="177" x="1859" y="1687.502">ListCourseService</text><rect fill="#E2E2F0" height="60.5625" rx="2.5" ry="2.5" style="stroke:#181818;stroke-width:0.5;" width="142" x="2053" y="36"/><text fill="#000000" font-family="sans-serif" font-size="20" font-style="italic" lengthAdjust="spacing" textLength="87" x="2080.5" y="61.5645">«parser»</text><text fill="#000000" font-family="sans-serif" font-size="20" lengthAdjust="spacing" textLength="128" x="2060" y="84.8457">ExamsParser</text><rect fill="#E2E2F0" height="60.5625" rx="2.5" ry="2.5" style="stroke:#181818;stroke-width:0.5;" width="142" x="2053" y="1638.6563"/><text fill="#000000" font-family="sans-serif" font-size="20" font-style="italic" lengthAdjust="spacing" textLength="87" x="2080.5" y="1664.2207">«parser»</text><text fill="#000000" font-family="sans-serif" font-size="20" lengthAdjust="spacing" textLength="128" x="2060" y="1687.502">ExamsParser</text><rect fill="#E2E2F0" height="60.5625" rx="2.5" ry="2.5" style="stroke:#181818;stroke-width:0.5;" width="142" x="2205" y="36"/><text fill="#000000" font-family="sans-serif" font-size="20" font-style="italic" lengthAdjust="spacing" textLength="95" x="2228.5" y="61.5645">«builder»</text><text fill="#000000" font-family="sans-serif" font-size="20" lengthAdjust="spacing" textLength="128" x="2212" y="84.8457">ExamBuilder</text><rect fill="#E2E2F0" height="60.5625" rx="2.5" ry="2.5" style="stroke:#181818;stroke-width:0.5;" width="142" x="2205" y="1638.6563"/><text fill="#000000" font-family="sans-serif" font-size="20" font-style="italic" lengthAdjust="spacing" textLength="95" x="2228.5" y="1664.2207">«builder»</text><text fill="#000000" font-family="sans-serif" font-size="20" lengthAdjust="spacing" textLength="128" x="2212" y="1687.502">ExamBuilder</text><rect fill="#E2E2F0" height="60.5625" rx="2.5" ry="2.5" style="stroke:#181818;stroke-width:0.5;" width="176" x="2357" y="36"/><text fill="#000000" font-family="sans-serif" font-size="20" font-style="italic" lengthAdjust="spacing" textLength="100" x="2395" y="61.5645">«domain»</text><text fill="#000000" font-family="sans-serif" font-size="20" lengthAdjust="spacing" textLength="162" x="2364" y="84.8457">EvaluationExam</text><rect fill="#E2E2F0" height="60.5625" rx="2.5" ry="2.5" style="stroke:#181818;stroke-width:0.5;" width="176" x="2357" y="1638.6563"/><text fill="#000000" font-family="sans-serif" font-size="20" font-style="italic" lengthAdjust="spacing" textLength="100" x="2395" y="1664.2207">«domain»</text><text fill="#000000" font-family="sans-serif" font-size="20" lengthAdjust="spacing" textLength="162" x="2364" y="1687.502">EvaluationExam</text><rect fill="#E2E2F0" height="60.5625" rx="2.5" ry="2.5" style="stroke:#181818;stroke-width:0.5;" width="114" x="2543" y="36"/><text fill="#000000" font-family="sans-serif" font-size="20" font-style="italic" lengthAdjust="spacing" textLength="100" x="2550" y="61.5645">«domain»</text><text fill="#000000" font-family="sans-serif" font-size="20" lengthAdjust="spacing" textLength="69" x="2565.5" y="84.8457">Course</text><rect fill="#E2E2F0" height="60.5625" rx="2.5" ry="2.5" style="stroke:#181818;stroke-width:0.5;" width="114" x="2543" y="1638.6563"/><text fill="#000000" font-family="sans-serif" font-size="20" font-style="italic" lengthAdjust="spacing" textLength="100" x="2550" y="1664.2207">«domain»</text><text fill="#000000" font-family="sans-serif" font-size="20" lengthAdjust="spacing" textLength="69" x="2565.5" y="1687.502">Course</text><rect fill="#E2E2F0" height="60.5625" rx="2.5" ry="2.5" style="stroke:#181818;stroke-width:0.5;" width="126" x="2667" y="36"/><text fill="#000000" font-family="sans-serif" font-size="20" font-style="italic" lengthAdjust="spacing" textLength="57" x="2701.5" y="61.5645">«dto»</text><text fill="#000000" font-family="sans-serif" font-size="20" lengthAdjust="spacing" textLength="112" x="2674" y="84.8457">CourseDTO</text><rect fill="#E2E2F0" height="60.5625" rx="2.5" ry="2.5" style="stroke:#181818;stroke-width:0.5;" width="126" x="2667" y="1638.6563"/><text fill="#000000" font-family="sans-serif" font-size="20" font-style="italic" lengthAdjust="spacing" textLength="57" x="2701.5" y="1664.2207">«dto»</text><text fill="#000000" font-family="sans-serif" font-size="20" lengthAdjust="spacing" textLength="112" x="2674" y="1687.502">CourseDTO</text><text fill="#000000" font-family="sans-serif" font-size="20" font-style="italic" lengthAdjust="spacing" textLength="125" x="2821.5" y="69.5645">«repository»</text><text fill="#000000" font-family="sans-serif" font-size="20" lengthAdjust="spacing" textLength="162" x="2803" y="92.8457">ExamRepository</text><path d="M2869,15 C2869,5 2887,5 2887,5 C2887,5 2905,5 2905,15 L2905,41 C2905,51 2887,51 2887,51 C2887,51 2869,51 2869,41 L2869,15 " fill="#E2E2F0" style="stroke:#181818;stroke-width:1.5;"/><path d="M2869,15 C2869,25 2887,25 2887,25 C2887,25 2905,25 2905,15 " fill="none" style="stroke:#181818;stroke-width:1.5;"/><text fill="#000000" font-family="sans-serif" font-size="20" font-style="italic" lengthAdjust="spacing" textLength="125" x="2821.5" y="1657.2207">«repository»</text><text fill="#000000" font-family="sans-serif" font-size="20" lengthAdjust="spacing" textLength="162" x="2803" y="1680.502">ExamRepository</text><path d="M2869,1695.2188 C2869,1685.2188 2887,1685.2188 2887,1685.2188 C2887,1685.2188 2905,1685.2188 2905,1695.2188 L2905,1721.2188 C2905,1731.2188 2887,1731.2188 2887,1731.2188 C2887,1731.2188 2869,1731.2188 2869,1721.2188 L2869,1695.2188 " fill="#E2E2F0" style="stroke:#181818;stroke-width:1.5;"/><path d="M2869,1695.2188 C2869,1705.2188 2887,1705.2188 2887,1705.2188 C2887,1705.2188 2905,1705.2188 2905,1695.2188 " fill="none" style="stroke:#181818;stroke-width:1.5;"/><text fill="#000000" font-family="sans-serif" font-size="20" font-style="italic" lengthAdjust="spacing" textLength="125" x="3006" y="69.5645">«repository»</text><text fill="#000000" font-family="sans-serif" font-size="20" lengthAdjust="spacing" textLength="175" x="2981" y="92.8457">CourseRepository</text><path d="M3053.5,15 C3053.5,5 3071.5,5 3071.5,5 C3071.5,5 3089.5,5 3089.5,15 L3089.5,41 C3089.5,51 3071.5,51 3071.5,51 C3071.5,51 3053.5,51 3053.5,41 L3053.5,15 " fill="#E2E2F0" style="stroke:#181818;stroke-width:1.5;"/><path d="M3053.5,15 C3053.5,25 3071.5,25 3071.5,25 C3071.5,25 3089.5,25 3089.5,15 " fill="none" style="stroke:#181818;stroke-width:1.5;"/><text fill="#000000" font-family="sans-serif" font-size="20" font-style="italic" lengthAdjust="spacing" textLength="125" x="3006" y="1657.2207">«repository»</text><text fill="#000000" font-family="sans-serif" font-size="20" lengthAdjust="spacing" textLength="175" x="2981" y="1680.502">CourseRepository</text><path d="M3053.5,1695.2188 C3053.5,1685.2188 3071.5,1685.2188 3071.5,1685.2188 C3071.5,1685.2188 3089.5,1685.2188 3089.5,1695.2188 L3089.5,1721.2188 C3089.5,1731.2188 3071.5,1731.2188 3071.5,1731.2188 C3071.5,1731.2188 3053.5,1731.2188 3053.5,1721.2188 L3053.5,1695.2188 " fill="#E2E2F0" style="stroke:#181818;stroke-width:1.5;"/><path d="M3053.5,1695.2188 C3053.5,1705.2188 3071.5,1705.2188 3071.5,1705.2188 C3071.5,1705.2188 3089.5,1705.2188 3089.5,1695.2188 " fill="none" style="stroke:#181818;stroke-width:1.5;"/><text fill="#000000" font-family="sans-serif" font-size="20" font-style="italic" lengthAdjust="spacing" textLength="125" x="3202.5" y="69.5645">«repository»</text><text fill="#000000" font-family="sans-serif" font-size="20" lengthAdjust="spacing" textLength="186" x="3172" y="92.8457">TeacherRepository</text><path d="M3250,15 C3250,5 3268,5 3268,5 C3268,5 3286,5 3286,15 L3286,41 C3286,51 3268,51 3268,51 C3268,51 3250,51 3250,41 L3250,15 " fill="#E2E2F0" style="stroke:#181818;stroke-width:1.5;"/><path d="M3250,15 C3250,25 3268,25 3268,25 C3268,25 3286,25 3286,15 " fill="none" style="stroke:#181818;stroke-width:1.5;"/><text fill="#000000" font-family="sans-serif" font-size="20" font-style="italic" lengthAdjust="spacing" textLength="125" x="3202.5" y="1657.2207">«repository»</text><text fill="#000000" font-family="sans-serif" font-size="20" lengthAdjust="spacing" textLength="186" x="3172" y="1680.502">TeacherRepository</text><path d="M3250,1695.2188 C3250,1685.2188 3268,1685.2188 3268,1685.2188 C3268,1685.2188 3286,1685.2188 3286,1695.2188 L3286,1721.2188 C3286,1731.2188 3268,1731.2188 3268,1731.2188 C3268,1731.2188 3250,1731.2188 3250,1721.2188 L3250,1695.2188 " fill="#E2E2F0" style="stroke:#181818;stroke-width:1.5;"/><path d="M3250,1695.2188 C3250,1705.2188 3268,1705.2188 3268,1705.2188 C3268,1705.2188 3286,1705.2188 3286,1695.2188 " fill="none" style="stroke:#181818;stroke-width:1.5;"/><rect fill="#FFFFFF" height="1523.0938" style="stroke:#181818;stroke-width:1.0;" width="10" x="43" y="107.5625"/><rect fill="#FFFFFF" height="645.3438" style="stroke:#181818;stroke-width:1.0;" width="10" x="590" y="136.8438"/><rect fill="#FFFFFF" height="37.2813" style="stroke:#181818;stroke-width:1.0;" width="10" x="590" y="819.4688"/><rect fill="#FFFFFF" height="299.5313" style="stroke:#181818;stroke-width:1.0;" width="10" x="590" y="894.0313"/><rect fill="#FFFFFF" height="390.8125" style="stroke:#181818;stroke-width:1.0;" width="10" x="590" y="1230.8438"/><rect fill="#FFFFFF" height="570.7813" style="stroke:#181818;stroke-width:1.0;" width="10" x="1202" y="174.125"/><rect fill="#FFFFFF" height="224.9688" style="stroke:#181818;stroke-width:1.0;" width="10" x="1202" y="931.3125"/><rect fill="#FFFFFF" height="316.25" style="stroke:#181818;stroke-width:1.0;" width="10" x="1202" y="1268.125"/><rect fill="#FFFFFF" height="37.2813" style="stroke:#181818;stroke-width:1.0;" width="10" x="1719" y="211.4063"/><rect fill="#FFFFFF" height="347.0938" style="stroke:#181818;stroke-width:1.0;" width="10" x="1942.5" y="360.5313"/><rect fill="#FFFFFF" height="187.6875" style="stroke:#181818;stroke-width:1.0;" width="10" x="2119" y="968.5938"/><rect fill="#FFFFFF" height="30" style="stroke:#181818;stroke-width:1.0;" width="10" x="2271" y="1375.25"/><rect fill="#FFFFFF" height="74.5625" style="stroke:#181818;stroke-width:1.0;" width="10" x="2271" y="1442.5313"/><rect fill="#FFFFFF" height="37.2813" style="stroke:#181818;stroke-width:1.0;" width="10" x="2595" y="626.0625"/><rect fill="#FFFFFF" height="30" style="stroke:#181818;stroke-width:1.0;" width="10" x="2882" y="1554.375"/><rect fill="#FFFFFF" height="150.4063" style="stroke:#181818;stroke-width:1.0;" width="10" x="3066.5" y="397.8125"/><rect fill="#FFFFFF" height="37.2813" style="stroke:#181818;stroke-width:1.0;" width="10" x="3263" y="285.9688"/><polygon fill="#181818" points="578,132.8438,588,136.8438,578,140.8438,582,136.8438" style="stroke:#181818;stroke-width:1.0;"/><line style="stroke:#181818;stroke-width:1.0;" x1="53" x2="584" y1="136.8438" y2="136.8438"/><text fill="#000000" font-family="sans-serif" font-size="20" font-weight="bold" lengthAdjust="spacing" textLength="14" x="60" y="130.127">1</text><text fill="#000000" font-family="sans-serif" font-size="20" lengthAdjust="spacing" textLength="233" x="78" y="130.127">Asks to create an exam</text><polygon fill="#181818" points="1190,170.125,1200,174.125,1190,178.125,1194,174.125" style="stroke:#181818;stroke-width:1.0;"/><line style="stroke:#181818;stroke-width:1.0;" x1="600" x2="1196" y1="174.125" y2="174.125"/><text fill="#000000" font-family="sans-serif" font-size="20" font-weight="bold" lengthAdjust="spacing" textLength="14" x="607" y="167.4082">2</text><text fill="#000000" font-family="sans-serif" font-size="20" lengthAdjust="spacing" textLength="565" x="625" y="167.4082">listInProgressCoursesLecturedByAuthenticatedTeacher()</text><polygon fill="#181818" points="1707,207.4063,1717,211.4063,1707,215.4063,1711,211.4063" style="stroke:#181818;stroke-width:1.0;"/><line style="stroke:#181818;stroke-width:1.0;" x1="1212" x2="1713" y1="211.4063" y2="211.4063"/><text fill="#000000" font-family="sans-serif" font-size="20" font-weight="bold" lengthAdjust="spacing" textLength="14" x="1219" y="204.6895">3</text><text fill="#000000" font-family="sans-serif" font-size="20" lengthAdjust="spacing" textLength="470" x="1237" y="204.6895">loggedinUserWithPermissions(Roles.TEACHER)</text><polygon fill="#181818" points="1223,244.6875,1213,248.6875,1223,252.6875,1219,248.6875" style="stroke:#181818;stroke-width:1.0;"/><line style="stroke:#181818;stroke-width:1.0;stroke-dasharray:2.0,2.0;" x1="1217" x2="1723" y1="248.6875" y2="248.6875"/><text fill="#000000" font-family="sans-serif" font-size="20" font-weight="bold" lengthAdjust="spacing" textLength="14" x="1229" y="241.9707">4</text><text fill="#000000" font-family="sans-serif" font-size="20" lengthAdjust="spacing" textLength="186" x="1247" y="241.9707">authenticatedUser</text><polygon fill="#181818" points="3251,281.9688,3261,285.9688,3251,289.9688,3255,285.9688" style="stroke:#181818;stroke-width:1.0;"/><line style="stroke:#181818;stroke-width:1.0;" x1="1212" x2="3257" y1="285.9688" y2="285.9688"/><text fill="#000000" font-family="sans-serif" font-size="20" font-weight="bold" lengthAdjust="spacing" textLength="14" x="1219" y="279.252">5</text><text fill="#000000" font-family="sans-serif" font-size="20" lengthAdjust="spacing" textLength="490" x="1237" y="279.252">findByUsername(authenticatedUser.username())</text><polygon fill="#181818" points="1223,319.25,1213,323.25,1223,327.25,1219,323.25" style="stroke:#181818;stroke-width:1.0;"/><line style="stroke:#181818;stroke-width:1.0;stroke-dasharray:2.0,2.0;" x1="1217" x2="3267" y1="323.25" y2="323.25"/><text fill="#000000" font-family="sans-serif" font-size="20" font-weight="bold" lengthAdjust="spacing" textLength="14" x="1229" y="316.5332">6</text><text fill="#000000" font-family="sans-serif" font-size="20" lengthAdjust="spacing" textLength="76" x="1247" y="316.5332">teacher</text><polygon fill="#181818" points="1930.5,356.5313,1940.5,360.5313,1930.5,364.5313,1934.5,360.5313" style="stroke:#181818;stroke-width:1.0;"/><line style="stroke:#181818;stroke-width:1.0;" x1="1212" x2="1936.5" y1="360.5313" y2="360.5313"/><text fill="#000000" font-family="sans-serif" font-size="20" font-weight="bold" lengthAdjust="spacing" textLength="14" x="1219" y="353.8145">7</text><text fill="#000000" font-family="sans-serif" font-size="20" lengthAdjust="spacing" textLength="498" x="1237" y="353.8145">listInProgressCoursesLecturedByTeacher(teacher)</text><polygon fill="#181818" points="3054.5,393.8125,3064.5,397.8125,3054.5,401.8125,3058.5,397.8125" style="stroke:#181818;stroke-width:1.0;"/><line style="stroke:#181818;stroke-width:1.0;" x1="1952.5" x2="3060.5" y1="397.8125" y2="397.8125"/><text fill="#000000" font-family="sans-serif" font-size="20" font-weight="bold" lengthAdjust="spacing" textLength="14" x="1959.5" y="391.0957">8</text><text fill="#000000" font-family="sans-serif" font-size="20" lengthAdjust="spacing" textLength="454" x="1977.5" y="391.0957">findAllInProgressLecturedByTeacher(teacher)</text><path d="M2931,410.8125 L2931,513.8125 L3212,513.8125 L3212,420.8125 L3202,410.8125 L2931,410.8125 " fill="#FEFFDD" style="stroke:#181818;stroke-width:0.5;"/><path d="M3202,410.8125 L3202,420.8125 L3212,420.8125 L3202,410.8125 " fill="#FEFFDD" style="stroke:#181818;stroke-width:0.5;"/><text fill="#000000" font-family="sans-serif" font-size="20" lengthAdjust="spacing" textLength="260" x="2937" y="434.377">A typed query is executed</text><text fill="#000000" font-family="sans-serif" font-size="20" lengthAdjust="spacing" textLength="177" x="2937" y="457.6582">to find all courses</text><text fill="#000000" font-family="sans-serif" font-size="20" lengthAdjust="spacing" textLength="230" x="2937" y="480.9395">in progress lectured by</text><text fill="#000000" font-family="sans-serif" font-size="20" lengthAdjust="spacing" textLength="176" x="2937" y="504.2207">the given teacher</text><polygon fill="#181818" points="1963.5,544.2188,1953.5,548.2188,1963.5,552.2188,1959.5,548.2188" style="stroke:#181818;stroke-width:1.0;"/><line style="stroke:#181818;stroke-width:1.0;stroke-dasharray:2.0,2.0;" x1="1957.5" x2="3070.5" y1="548.2188" y2="548.2188"/><text fill="#000000" font-family="sans-serif" font-size="20" font-weight="bold" lengthAdjust="spacing" textLength="14" x="1969.5" y="541.502">9</text><text fill="#000000" font-family="sans-serif" font-size="20" lengthAdjust="spacing" textLength="76" x="1987.5" y="541.502">courses</text><path d="M1842,563.2188 L1936,563.2188 L1936,578.5 L1926,588.5 L1842,588.5 L1842,563.2188 " fill="#EEEEEE" style="stroke:#000000;stroke-width:1.5;"/><rect fill="none" height="108.125" style="stroke:#000000;stroke-width:1.5;" width="961" x="1842" y="563.2188"/><text fill="#000000" font-family="sans-serif" font-size="20" font-weight="bold" lengthAdjust="spacing" textLength="49" x="1857" y="582.7832">loop</text><text fill="#000000" font-family="sans-serif" font-size="20" font-weight="bold" lengthAdjust="spacing" textLength="195" x="1951" y="583.7832">[for each course]</text><polygon fill="#181818" points="2583,622.0625,2593,626.0625,2583,630.0625,2587,626.0625" style="stroke:#181818;stroke-width:1.0;"/><line style="stroke:#181818;stroke-width:1.0;" x1="1952.5" x2="2589" y1="626.0625" y2="626.0625"/><text fill="#000000" font-family="sans-serif" font-size="20" font-weight="bold" lengthAdjust="spacing" textLength="28" x="1959.5" y="619.3457">10</text><text fill="#000000" font-family="sans-serif" font-size="20" lengthAdjust="spacing" textLength="145" x="1991.5" y="619.3457">toDTO(course)</text><polygon fill="#181818" points="2718,659.3438,2728,663.3438,2718,667.3438,2722,663.3438" style="stroke:#181818;stroke-width:1.0;"/><line style="stroke:#181818;stroke-width:1.0;" x1="2600" x2="2724" y1="663.3438" y2="663.3438"/><text fill="#000000" font-family="sans-serif" font-size="20" font-weight="bold" lengthAdjust="spacing" textLength="28" x="2607" y="656.627">11</text><text fill="#000000" font-family="sans-serif" font-size="20" lengthAdjust="spacing" textLength="58" x="2639" y="656.627">new()</text><polygon fill="#181818" points="1223,703.625,1213,707.625,1223,711.625,1219,707.625" style="stroke:#181818;stroke-width:1.0;"/><line style="stroke:#181818;stroke-width:1.0;stroke-dasharray:2.0,2.0;" x1="1217" x2="1946.5" y1="707.625" y2="707.625"/><text fill="#000000" font-family="sans-serif" font-size="20" font-weight="bold" lengthAdjust="spacing" textLength="28" x="1229" y="700.9082">12</text><text fill="#000000" font-family="sans-serif" font-size="20" lengthAdjust="spacing" textLength="76" x="1261" y="700.9082">courses</text><polygon fill="#181818" points="611,740.9063,601,744.9063,611,748.9063,607,744.9063" style="stroke:#181818;stroke-width:1.0;"/><line style="stroke:#181818;stroke-width:1.0;stroke-dasharray:2.0,2.0;" x1="605" x2="1206" y1="744.9063" y2="744.9063"/><text fill="#000000" font-family="sans-serif" font-size="20" font-weight="bold" lengthAdjust="spacing" textLength="28" x="617" y="738.1895">13</text><text fill="#000000" font-family="sans-serif" font-size="20" lengthAdjust="spacing" textLength="76" x="649" y="738.1895">courses</text><polygon fill="#181818" points="64,778.1875,54,782.1875,64,786.1875,60,782.1875" style="stroke:#181818;stroke-width:1.0;"/><line style="stroke:#181818;stroke-width:1.0;stroke-dasharray:2.0,2.0;" x1="58" x2="594" y1="782.1875" y2="782.1875"/><text fill="#000000" font-family="sans-serif" font-size="20" font-weight="bold" lengthAdjust="spacing" textLength="28" x="70" y="775.4707">14</text><text fill="#000000" font-family="sans-serif" font-size="20" lengthAdjust="spacing" textLength="481" x="102" y="775.4707">Lists all available courses and asks to select one</text><polygon fill="#181818" points="578,815.4688,588,819.4688,578,823.4688,582,819.4688" style="stroke:#181818;stroke-width:1.0;"/><line style="stroke:#181818;stroke-width:1.0;" x1="53" x2="584" y1="819.4688" y2="819.4688"/><text fill="#000000" font-family="sans-serif" font-size="20" font-weight="bold" lengthAdjust="spacing" textLength="28" x="60" y="812.752">15</text><text fill="#000000" font-family="sans-serif" font-size="20" lengthAdjust="spacing" textLength="162" x="92" y="812.752">Selects a course</text><polygon fill="#181818" points="64,852.75,54,856.75,64,860.75,60,856.75" style="stroke:#181818;stroke-width:1.0;"/><line style="stroke:#181818;stroke-width:1.0;stroke-dasharray:2.0,2.0;" x1="58" x2="594" y1="856.75" y2="856.75"/><text fill="#000000" font-family="sans-serif" font-size="20" font-weight="bold" lengthAdjust="spacing" textLength="28" x="70" y="850.0332">16</text><text fill="#000000" font-family="sans-serif" font-size="20" lengthAdjust="spacing" textLength="446" x="102" y="850.0332">Asks the file path where the exam is defined</text><polygon fill="#181818" points="578,890.0313,588,894.0313,578,898.0313,582,894.0313" style="stroke:#181818;stroke-width:1.0;"/><line style="stroke:#181818;stroke-width:1.0;" x1="53" x2="584" y1="894.0313" y2="894.0313"/><text fill="#000000" font-family="sans-serif" font-size="20" font-weight="bold" lengthAdjust="spacing" textLength="28" x="60" y="887.3145">17</text><text fill="#000000" font-family="sans-serif" font-size="20" lengthAdjust="spacing" textLength="192" x="92" y="887.3145">Enters the file path</text><polygon fill="#181818" points="1190,927.3125,1200,931.3125,1190,935.3125,1194,931.3125" style="stroke:#181818;stroke-width:1.0;"/><line style="stroke:#181818;stroke-width:1.0;" x1="600" x2="1196" y1="931.3125" y2="931.3125"/><text fill="#000000" font-family="sans-serif" font-size="20" font-weight="bold" lengthAdjust="spacing" textLength="28" x="607" y="924.5957">18</text><text fill="#000000" font-family="sans-serif" font-size="20" lengthAdjust="spacing" textLength="203" x="639" y="924.5957">parseExam(filePath)</text><polygon fill="#181818" points="2107,964.5938,2117,968.5938,2107,972.5938,2111,968.5938" style="stroke:#181818;stroke-width:1.0;"/><line style="stroke:#181818;stroke-width:1.0;" x1="1212" x2="2113" y1="968.5938" y2="968.5938"/><text fill="#000000" font-family="sans-serif" font-size="20" font-weight="bold" lengthAdjust="spacing" textLength="28" x="1219" y="961.877">19</text><text fill="#000000" font-family="sans-serif" font-size="20" lengthAdjust="spacing" textLength="258" x="1251" y="961.877">parseWithVisitor(filePath)</text><path d="M1980,981.5938 L1980,1084.5938 L2268,1084.5938 L2268,991.5938 L2258,981.5938 L1980,981.5938 " fill="#FEFFDD" style="stroke:#181818;stroke-width:0.5;"/><path d="M2258,981.5938 L2258,991.5938 L2268,991.5938 L2258,981.5938 " fill="#FEFFDD" style="stroke:#181818;stroke-width:0.5;"/><text fill="#000000" font-family="sans-serif" font-size="20" lengthAdjust="spacing" textLength="196" x="1986" y="1005.1582">The parser uses the</text><text fill="#000000" font-family="sans-serif" font-size="20" lengthAdjust="spacing" textLength="239" x="1986" y="1028.4395">visitor ANTLR pattern to</text><text fill="#000000" font-family="sans-serif" font-size="20" lengthAdjust="spacing" textLength="244" x="1986" y="1051.7207">parse the file, creating a</text><text fill="#000000" font-family="sans-serif" font-size="20" lengthAdjust="spacing" textLength="267" x="1986" y="1075.002">new ExamBuilder instance</text><polygon fill="#181818" points="2264,1115,2274,1119,2264,1123,2268,1119" style="stroke:#181818;stroke-width:1.0;"/><line style="stroke:#181818;stroke-width:1.0;" x1="2129" x2="2270" y1="1119" y2="1119"/><text fill="#000000" font-family="sans-serif" font-size="20" font-weight="bold" lengthAdjust="spacing" textLength="28" x="2136" y="1112.2832">20</text><text fill="#000000" font-family="sans-serif" font-size="20" lengthAdjust="spacing" textLength="58" x="2168" y="1112.2832">new()</text><polygon fill="#181818" points="1218,1152.2813,1208,1156.2813,1218,1160.2813,1214,1156.2813" style="stroke:#181818;stroke-width:1.0;"/><line style="stroke:#181818;stroke-width:1.0;stroke-dasharray:2.0,2.0;" x1="1212" x2="2123" y1="1156.2813" y2="1156.2813"/><text fill="#000000" font-family="sans-serif" font-size="20" font-weight="bold" lengthAdjust="spacing" textLength="28" x="1224" y="1149.5645">21</text><text fill="#000000" font-family="sans-serif" font-size="20" lengthAdjust="spacing" textLength="127" x="1256" y="1149.5645">examBuilder</text><polygon fill="#181818" points="64,1189.5625,54,1193.5625,64,1197.5625,60,1193.5625" style="stroke:#181818;stroke-width:1.0;"/><line style="stroke:#181818;stroke-width:1.0;stroke-dasharray:2.0,2.0;" x1="58" x2="594" y1="1193.5625" y2="1193.5625"/><text fill="#000000" font-family="sans-serif" font-size="20" font-weight="bold" lengthAdjust="spacing" textLength="28" x="70" y="1186.8457">22</text><text fill="#000000" font-family="sans-serif" font-size="20" lengthAdjust="spacing" textLength="415" x="102" y="1186.8457">Asks the start and end date/time of exam</text><polygon fill="#181818" points="578,1226.8438,588,1230.8438,578,1234.8438,582,1230.8438" style="stroke:#181818;stroke-width:1.0;"/><line style="stroke:#181818;stroke-width:1.0;" x1="53" x2="584" y1="1230.8438" y2="1230.8438"/><text fill="#000000" font-family="sans-serif" font-size="20" font-weight="bold" lengthAdjust="spacing" textLength="28" x="60" y="1224.127">23</text><text fill="#000000" font-family="sans-serif" font-size="20" lengthAdjust="spacing" textLength="347" x="92" y="1224.127">Enters the start and end date/time</text><polygon fill="#181818" points="1190,1264.125,1200,1268.125,1190,1272.125,1194,1268.125" style="stroke:#181818;stroke-width:1.0;"/><line style="stroke:#181818;stroke-width:1.0;" x1="600" x2="1196" y1="1268.125" y2="1268.125"/><text fill="#000000" font-family="sans-serif" font-size="20" font-weight="bold" lengthAdjust="spacing" textLength="28" x="607" y="1261.4082">24</text><text fill="#000000" font-family="sans-serif" font-size="20" lengthAdjust="spacing" textLength="448" x="639" y="1261.4082">createExam(examBuilder, course, start, end)</text><polygon fill="#181818" points="2259,1371.25,2269,1375.25,2259,1379.25,2263,1375.25" style="stroke:#181818;stroke-width:1.0;"/><line style="stroke:#181818;stroke-width:1.0;" x1="1212" x2="2265" y1="1375.25" y2="1375.25"/><text fill="#000000" font-family="sans-serif" font-size="20" font-weight="bold" lengthAdjust="spacing" textLength="28" x="1219" y="1333.6113">25</text><text fill="#000000" font-family="sans-serif" font-size="20" lengthAdjust="spacing" textLength="222" x="1251" y="1298.6895">.withTeacher(teacher)</text><text fill="#000000" font-family="sans-serif" font-size="20" lengthAdjust="spacing" textLength="201" x="1251" y="1321.9707">.withCourse(course)</text><text fill="#000000" font-family="sans-serif" font-size="20" lengthAdjust="spacing" textLength="208" x="1251" y="1345.252">.withStartDate(start)</text><text fill="#000000" font-family="sans-serif" font-size="20" lengthAdjust="spacing" textLength="190" x="1251" y="1368.5332">.withEndDate(end)</text><polygon fill="#181818" points="2259,1438.5313,2269,1442.5313,2259,1446.5313,2263,1442.5313" style="stroke:#181818;stroke-width:1.0;"/><line style="stroke:#181818;stroke-width:1.0;" x1="1212" x2="2265" y1="1442.5313" y2="1442.5313"/><text fill="#000000" font-family="sans-serif" font-size="20" font-weight="bold" lengthAdjust="spacing" textLength="28" x="1219" y="1435.8145">26</text><text fill="#000000" font-family="sans-serif" font-size="20" lengthAdjust="spacing" textLength="67" x="1251" y="1435.8145">build()</text><polygon fill="#181818" points="2433,1475.8125,2443,1479.8125,2433,1483.8125,2437,1479.8125" style="stroke:#181818;stroke-width:1.0;"/><line style="stroke:#181818;stroke-width:1.0;" x1="2281" x2="2439" y1="1479.8125" y2="1479.8125"/><text fill="#000000" font-family="sans-serif" font-size="20" font-weight="bold" lengthAdjust="spacing" textLength="28" x="2288" y="1473.0957">27</text><text fill="#000000" font-family="sans-serif" font-size="20" lengthAdjust="spacing" textLength="58" x="2320" y="1473.0957">new()</text><polygon fill="#181818" points="1223,1513.0938,1213,1517.0938,1223,1521.0938,1219,1517.0938" style="stroke:#181818;stroke-width:1.0;"/><line style="stroke:#181818;stroke-width:1.0;stroke-dasharray:2.0,2.0;" x1="1217" x2="2275" y1="1517.0938" y2="1517.0938"/><text fill="#000000" font-family="sans-serif" font-size="20" font-weight="bold" lengthAdjust="spacing" textLength="28" x="1229" y="1510.377">28</text><text fill="#000000" font-family="sans-serif" font-size="20" lengthAdjust="spacing" textLength="55" x="1261" y="1510.377">exam</text><polygon fill="#181818" points="2870,1550.375,2880,1554.375,2870,1558.375,2874,1554.375" style="stroke:#181818;stroke-width:1.0;"/><line style="stroke:#181818;stroke-width:1.0;" x1="1212" x2="2876" y1="1554.375" y2="1554.375"/><text fill="#000000" font-family="sans-serif" font-size="20" font-weight="bold" lengthAdjust="spacing" textLength="28" x="1219" y="1547.6582">29</text><text fill="#000000" font-family="sans-serif" font-size="20" lengthAdjust="spacing" textLength="116" x="1251" y="1547.6582">save(exam)</text><polygon fill="#181818" points="64,1617.6563,54,1621.6563,64,1625.6563,60,1621.6563" style="stroke:#181818;stroke-width:1.0;"/><line style="stroke:#181818;stroke-width:1.0;stroke-dasharray:2.0,2.0;" x1="58" x2="594" y1="1621.6563" y2="1621.6563"/><text fill="#000000" font-family="sans-serif" font-size="20" font-weight="bold" lengthAdjust="spacing" textLength="28" x="70" y="1614.9395">30</text><text fill="#000000" font-family="sans-serif" font-size="20" lengthAdjust="spacing" textLength="261" x="102" y="1614.9395">Informs operation success</text><!--SRC=[ZLPDRnen4BtxLuno8X99gnvH58aGgaQAsYYXxQKNipk05MDlRIzf-kixzjgxPXSA9umzxytNytZjgr0LDtmhTV6A9PIuuhLqdxLoB-8lmgUFZDTEgtgxHCCOBvmsSB50NcpGN02tu9erOqJZH24ghXnSp0noX_C_VFlz8PZL0cvkAeCMbUDEQ7LxUmmn8-T6InaT5ErVOk1L9KLna61QkmsHnzCND3jHO62W33Q4jSrM7_Seh9lfsbZCCRA8viU1FbRxn0dO15g5fKypB0wPtzL2bj5ysQp9Fgu6W1sNTKZ6GmC6QK60Kc-v65Om915hvfSdBEyNtpBZqcblxpGPiv8xlkJ4u3q_OwMjeCQ_fn0CxP2nQGy8qq8QydrGu-A_iAYfVLmKro6WrwBOaMHQ1SPVkBhrQfl0rBuIWuOYA0ku2h5dm5emCYJpJ68JaAI71_Laz9hKQfjix2CMhZPOthrdCiCo1Zswp5WxCfRnafSWG-BNwpMMGdsdWlmKRlE4PYkifJRRqREMQAyNy-dio_mv9_LO5WYk-l7oF21FoahSn_NYo8iwWPLGb9N7ARx5qO3jkav7bvV3ediIbXCEmalToOBAiRtOkcjtiX6fzf4j3wvbOHrVYAjLOPFtLChEmLdC7GLJclxh7SMTRKx1lLSqHt_NI0eM_hfWKLCf6GdHkmGkPGHO9XHKqJl8w1wMxunQ06knGzLM3mdf7R8iXwjUlH9hLkaiCYQrhc15uzjJnXC6SA12lckQfiEe-Klv0_GeQIVQjYW_G2QWy8rk0y0WY922Zu7bJUchvK0ENJFtj99k-S6isniOBdYdURBtuzw6Bl0T5v8lPOgGTdr_ujImw3i2Mc5EJIDZC6TUWYMXKwQ32RCNG3EMgCChGQuhJdVwZKumx8K1JxAXTrWeKiq9rtFbqFJOJWwuy3pvmJxoc2U2d3M-ulCMyNvo_H1X6X-aQQopIn8t5fjq1hKlEONETWqFJByk7fzz3fGKIL-pODXcDsuckL1hu8nq1jcB2a9PnrM1tKs9NYZozD8cTQQJVc6muyiB7oC_Ms5jWoaYuuAeV53qqk479xPKZrNp4ftVt2DC9rjTj1zLeoovSHJgkE4TUzAp9D0LylgD-j-VaxzKs6ucTHeUSVF5Uxedzb7mcRRdgWoR8O8sWEMm2MdhQ4HXjVSG9qYo8VDmlP8Cslr3EZZ3T_ibD07BTnWgd2MHZdEcTkziCJqe6jbR2xf24xu5mTP5GGy6wydd7m00]--></g></svg>