<?xml version="1.0" encoding="UTF-8" standalone="no"?><svg xmlns="http://www.w3.org/2000/svg" xmlns:xlink="http://www.w3.org/1999/xlink" contentStyleType="text/css" height="544px" preserveAspectRatio="none" style="width:875px;height:544px;background:#FFFFFF;" version="1.1" viewBox="0 0 875 544" width="875px" zoomAndPan="magnify"><defs/><g><!--cluster <<aggregate>> PostIt--><g id="cluster_&lt;&lt;aggregate&gt;&gt; PostIt"><path d="M133,8.36 L319.625,8.36 A3.75,3.75 0 0 1 322.125,10.86 L329.125,41.6 L569,41.6 A2.5,2.5 0 0 1 571.5,44.1 L571.5,347.86 A2.5,2.5 0 0 1 569,350.36 L133,350.36 A2.5,2.5 0 0 1 130.5,347.86 L130.5,10.86 A2.5,2.5 0 0 1 133,8.36 " fill="none" style="stroke:#000000;stroke-width:1.5;"/><line style="stroke:#000000;stroke-width:1.5;" x1="130.5" x2="329.125" y1="41.6" y2="41.6"/><text fill="#000000" font-family="sans-serif" font-size="20" font-weight="bold" lengthAdjust="spacing" textLength="185.625" x="134.5" y="31.74">«aggregate» PostIt</text></g><!--cluster <<aggregate>> User--><g id="cluster_&lt;&lt;aggregate&gt;&gt; User"><path d="M449,383.36 L623.375,383.36 A3.75,3.75 0 0 1 625.875,385.86 L632.875,416.6 L633,416.6 A2.5,2.5 0 0 1 635.5,419.1 L635.5,534.86 A2.5,2.5 0 0 1 633,537.36 L449,537.36 A2.5,2.5 0 0 1 446.5,534.86 L446.5,385.86 A2.5,2.5 0 0 1 449,383.36 " fill="none" style="stroke:#000000;stroke-width:1.5;"/><line style="stroke:#000000;stroke-width:1.5;" x1="446.5" x2="632.875" y1="416.6" y2="416.6"/><text fill="#000000" font-family="sans-serif" font-size="20" font-weight="bold" lengthAdjust="spacing" textLength="173.375" x="450.5" y="406.74">«aggregate» User</text></g><!--cluster <<aggregate>> Board--><g id="cluster_&lt;&lt;aggregate&gt;&gt; Board"><path d="M669,383.36 L856,383.36 A3.75,3.75 0 0 1 858.5,385.86 L865.5,416.6 L866,416.6 A2.5,2.5 0 0 1 868.5,419.1 L868.5,534.86 A2.5,2.5 0 0 1 866,537.36 L669,537.36 A2.5,2.5 0 0 1 666.5,534.86 L666.5,385.86 A2.5,2.5 0 0 1 669,383.36 " fill="none" style="stroke:#000000;stroke-width:1.5;"/><line style="stroke:#000000;stroke-width:1.5;" x1="666.5" x2="865.5" y1="416.6" y2="416.6"/><text fill="#000000" font-family="sans-serif" font-size="20" font-weight="bold" lengthAdjust="spacing" textLength="186" x="670.5" y="406.74">«aggregate» Board</text></g><!--class PostIt--><g id="elem_PostIt"><rect codeLine="24" fill="#F5F5DC" height="126.9599" id="PostIt" rx="2.5" ry="2.5" style="stroke:#181818;stroke-width:0.5;" width="108" x="146.5" y="54.36"/><ellipse cx="166.1" cy="100.22" fill="#ADD1B2" rx="12" ry="12" style="stroke:#181818;stroke-width:1.0;"/><path d="M170.1469,107.72 L161.5375,107.72 L161.5375,92.8137 L170.1469,92.8137 L170.1469,95.0168 L163.9594,95.0168 L163.9594,98.8606 L169.7875,98.8606 L169.7875,101.0325 L163.9594,101.0325 L163.9594,105.5168 L170.1469,105.5168 L170.1469,107.72 Z " fill="#000000"/><text fill="#000000" font-family="sans-serif" font-size="20" font-style="italic" lengthAdjust="spacing" textLength="70" x="179.9" y="80.74">«entity»</text><text fill="#000000" font-family="sans-serif" font-size="20" font-style="italic" lengthAdjust="spacing" textLength="57" x="186.4" y="107.9799">«root»</text><text fill="#000000" font-family="sans-serif" font-size="20" lengthAdjust="spacing" textLength="55" x="187.4" y="135.2199">PostIt</text><line style="stroke:#181818;stroke-width:0.5;" x1="147.5" x2="253.5" y1="146.0799" y2="146.0799"/><text fill="#000000" font-family="sans-serif" font-size="20" lengthAdjust="spacing" textLength="96" x="152.5" y="171.4599">-createdAt</text></g><!--class Title--><g id="elem_Title"><rect codeLine="28" fill="#F5F5DC" height="64.4799" id="Title" rx="2.5" ry="2.5" style="stroke:#181818;stroke-width:0.5;" width="156" x="399.5" y="85.86"/><ellipse cx="415.5" cy="118.1" fill="#FF8B40" rx="12" ry="12" style="stroke:#181818;stroke-width:1.0;"/><path d="M421.75,111.9437 L416.4375,126.85 L414.1875,126.85 L408.875,111.9437 L411.4063,111.9437 L414.7031,121.3031 Q414.9219,121.8968 415.0781,122.4437 Q415.25,122.9906 415.375,123.4906 Q415.5156,123.975 415.3125,124.0218 Q415.0938,123.9906 415.2344,123.475 Q415.375,122.9593 415.5469,122.4281 Q415.7188,121.8812 415.9219,121.2718 L419.1875,111.9437 L421.75,111.9437 Z " fill="#000000"/><text fill="#000000" font-family="sans-serif" font-size="20" font-style="italic" lengthAdjust="spacing" textLength="126" x="428.5" y="112.24">«value object»</text><text fill="#000000" font-family="sans-serif" font-size="20" lengthAdjust="spacing" textLength="39" x="472" y="139.4799">Title</text></g><!--class State--><g id="elem_State"><rect codeLine="30" fill="#F5F5DC" height="64.4799" id="State" rx="2.5" ry="2.5" style="stroke:#181818;stroke-width:0.5;" width="156" x="146.5" y="270.36"/><ellipse cx="162.5" cy="302.6" fill="#FF8B40" rx="12" ry="12" style="stroke:#181818;stroke-width:1.0;"/><path d="M168.75,296.4437 L163.4375,311.35 L161.1875,311.35 L155.875,296.4437 L158.4063,296.4437 L161.7031,305.8031 Q161.9219,306.3968 162.0781,306.9437 Q162.25,307.4906 162.375,307.9906 Q162.5156,308.475 162.3125,308.5218 Q162.0938,308.4906 162.2344,307.975 Q162.375,307.4593 162.5469,306.9281 Q162.7188,306.3812 162.9219,305.7718 L166.1875,296.4437 L168.75,296.4437 Z " fill="#000000"/><text fill="#000000" font-family="sans-serif" font-size="20" font-style="italic" lengthAdjust="spacing" textLength="126" x="175.5" y="296.74">«value object»</text><text fill="#000000" font-family="sans-serif" font-size="20" lengthAdjust="spacing" textLength="47" x="215" y="323.9799">State</text></g><!--class Coordinates--><g id="elem_Coordinates"><rect codeLine="31" fill="#F5F5DC" height="64.4799" id="Coordinates" rx="2.5" ry="2.5" style="stroke:#181818;stroke-width:0.5;" width="156" x="337.5" y="270.36"/><ellipse cx="353.5" cy="302.6" fill="#FF8B40" rx="12" ry="12" style="stroke:#181818;stroke-width:1.0;"/><path d="M359.75,296.4437 L354.4375,311.35 L352.1875,311.35 L346.875,296.4437 L349.4063,296.4437 L352.7031,305.8031 Q352.9219,306.3968 353.0781,306.9437 Q353.25,307.4906 353.375,307.9906 Q353.5156,308.475 353.3125,308.5218 Q353.0938,308.4906 353.2344,307.975 Q353.375,307.4593 353.5469,306.9281 Q353.7188,306.3812 353.9219,305.7718 L357.1875,296.4437 L359.75,296.4437 Z " fill="#000000"/><text fill="#000000" font-family="sans-serif" font-size="20" font-style="italic" lengthAdjust="spacing" textLength="126" x="366.5" y="296.74">«value object»</text><text fill="#000000" font-family="sans-serif" font-size="20" lengthAdjust="spacing" textLength="113" x="373" y="323.9799">Coordinates</text></g><!--class User--><g id="elem_User"><rect codeLine="21" fill="#F5F5DC" height="91.7199" id="User" rx="2.5" ry="2.5" style="stroke:#181818;stroke-width:0.5;" width="100" x="513.5" y="429.36"/><ellipse cx="529.5" cy="475.22" fill="#ADD1B2" rx="12" ry="12" style="stroke:#181818;stroke-width:1.0;"/><path d="M533.5469,482.72 L524.9375,482.72 L524.9375,467.8137 L533.5469,467.8137 L533.5469,470.0168 L527.3594,470.0168 L527.3594,473.8606 L533.1875,473.8606 L533.1875,476.0325 L527.3594,476.0325 L527.3594,480.5168 L533.5469,480.5168 L533.5469,482.72 Z " fill="#000000"/><text fill="#000000" font-family="sans-serif" font-size="20" font-style="italic" lengthAdjust="spacing" textLength="70" x="542.5" y="455.74">«entity»</text><text fill="#000000" font-family="sans-serif" font-size="20" font-style="italic" lengthAdjust="spacing" textLength="57" x="549" y="482.9799">«root»</text><text fill="#000000" font-family="sans-serif" font-size="20" lengthAdjust="spacing" textLength="44" x="555.5" y="510.2199">User</text></g><!--class Board--><g id="elem_Board"><rect codeLine="42" fill="#F5F5DC" height="91.7199" id="Board" rx="2.5" ry="2.5" style="stroke:#181818;stroke-width:0.5;" width="100" x="695.5" y="429.36"/><ellipse cx="711.5" cy="475.22" fill="#ADD1B2" rx="12" ry="12" style="stroke:#181818;stroke-width:1.0;"/><path d="M715.5469,482.72 L706.9375,482.72 L706.9375,467.8137 L715.5469,467.8137 L715.5469,470.0168 L709.3594,470.0168 L709.3594,473.8606 L715.1875,473.8606 L715.1875,476.0325 L709.3594,476.0325 L709.3594,480.5168 L715.5469,480.5168 L715.5469,482.72 Z " fill="#000000"/><text fill="#000000" font-family="sans-serif" font-size="20" font-style="italic" lengthAdjust="spacing" textLength="70" x="724.5" y="455.74">«entity»</text><text fill="#000000" font-family="sans-serif" font-size="20" font-style="italic" lengthAdjust="spacing" textLength="57" x="731" y="482.9799">«root»</text><text fill="#000000" font-family="sans-serif" font-size="20" lengthAdjust="spacing" textLength="56" x="731.5" y="510.2199">Board</text></g><g id="elem_GMN9"><path d="M6,270.36 L6,334.8399 A0,0 0 0 0 6,334.8399 L111,334.8399 A0,0 0 0 0 111,334.8399 L111,306.36 L146.27,302.36 L111,298.36 L111,280.36 L101,270.36 L6,270.36 A0,0 0 0 0 6,270.36 " fill="#FEFFDD" style="stroke:#181818;stroke-width:0.5;"/><path d="M101,270.36 L101,280.36 L111,280.36 L101,270.36 " fill="#FEFFDD" style="stroke:#181818;stroke-width:0.5;"/><text fill="#000000" font-family="sans-serif" font-size="20" lengthAdjust="spacing" textLength="67" x="12" y="296.74">ACTIVE</text><text fill="#000000" font-family="sans-serif" font-size="20" lengthAdjust="spacing" textLength="84" x="12" y="323.9799">DELETED</text></g><!--reverse link PostIt to Title--><g id="link_PostIt_Title"><path codeLine="45" d="M269.25,117.86 C312.58,117.86 355.91,117.86 399.23,117.86 " fill="none" id="PostIt-backto-Title" style="stroke:#222222;stroke-width:1.0;"/><polygon fill="#222222" points="256.39,117.86,262.39,121.86,268.39,117.86,262.39,113.86,256.39,117.86" style="stroke:#222222;stroke-width:1.0;"/></g><!--link PostIt to State--><g id="link_PostIt_State"><path codeLine="46" d="M208.76,181.67 C212.37,209.11 216.48,240.38 219.6,264.07 " fill="none" id="PostIt-to-State" style="stroke:#222222;stroke-width:1.0;"/><polygon fill="#222222" points="220.21,268.73,222.9926,259.2824,219.5529,263.7734,215.062,260.3337,220.21,268.73" style="stroke:#222222;stroke-width:1.0;"/><text fill="#000000" font-family="sans-serif" font-size="20" lengthAdjust="spacing" textLength="33" x="217.5" y="233.74">has</text><text fill="#000000" font-family="sans-serif" font-size="20" lengthAdjust="spacing" textLength="11" x="207.7018" y="256.4608">1</text></g><!--link PostIt to Board--><g id="link_PostIt_Board"><path codeLine="48" d="M254.99,138.23 C290.83,150.83 338.83,167.45 381.5,181.36 C509.68,223.15 573.8,177.45 671.5,270.36 C713.74,310.53 731.95,376.66 739.75,422.7 " fill="none" id="PostIt-to-Board" style="stroke:#222222;stroke-width:1.0;"/><polygon fill="#222222" points="740.54,427.56,743.0507,418.0365,739.7411,422.6242,735.1534,419.3147,740.54,427.56" style="stroke:#222222;stroke-width:1.0;"/><text fill="#000000" font-family="sans-serif" font-size="20" lengthAdjust="spacing" textLength="98" x="723.5" y="310.24">belongs to</text><text fill="#000000" font-family="sans-serif" font-size="20" lengthAdjust="spacing" textLength="11" x="728.4067" y="415.4393">1</text></g><!--link PostIt to PostIt--><g id="link_PostIt_PostIt"><path codeLine="49" d="M254.82,97.62 C273.96,97.3 289.5,104.04 289.5,117.86 C289.5,130.17 277.18,136.86 260.95,137.95 " fill="none" id="PostIt-to-PostIt" style="stroke:#222222;stroke-width:1.0;"/><polygon fill="#222222" points="256.33,138.06,265.4298,141.8273,261.3283,137.9315,265.2242,133.83,256.33,138.06" style="stroke:#222222;stroke-width:1.0;"/><text fill="#000000" font-family="sans-serif" font-size="20" lengthAdjust="spacing" textLength="80" x="295.5" y="125.74">previous</text><text fill="#000000" font-family="sans-serif" font-size="20" lengthAdjust="spacing" textLength="32" x="262.5113" y="133.2325">0..1</text></g><!--link PostIt to Coordinates--><g id="link_PostIt_Coordinates"><path codeLine="50" d="M254.75,164.91 C291.63,196.21 339.68,237.01 373.62,265.81 " fill="none" id="PostIt-to-Coordinates" style="stroke:#222222;stroke-width:1.0;"/><polygon fill="#222222" points="377.36,268.99,373.0748,260.1222,373.5436,265.7596,367.9062,266.2285,377.36,268.99" style="stroke:#222222;stroke-width:1.0;"/><text fill="#000000" font-family="sans-serif" font-size="20" lengthAdjust="spacing" textLength="33" x="341.5" y="233.74">has</text><text fill="#000000" font-family="sans-serif" font-size="20" lengthAdjust="spacing" textLength="11" x="360.2188" y="256.442">1</text></g><!--link PostIt to User--><g id="link_PostIt_User"><path codeLine="51" d="M254.78,138.9 C334.36,169.29 476.98,227.98 511.5,270.36 C546.7,313.58 558.42,377.7 562.13,422.48 " fill="none" id="PostIt-to-User" style="stroke:#222222;stroke-width:1.0;"/><polygon fill="#222222" points="562.51,427.43,565.8039,418.1483,562.1243,422.4449,557.8277,418.7653,562.51,427.43" style="stroke:#222222;stroke-width:1.0;"/><text fill="#000000" font-family="sans-serif" font-size="20" lengthAdjust="spacing" textLength="110" x="552.5" y="310.24">is owned by</text><text fill="#000000" font-family="sans-serif" font-size="20" lengthAdjust="spacing" textLength="11" x="550.8138" y="415.676">1</text></g><!--SRC=[XLF1JkCm4BtxAqRbi0iYRK5xG55KgIsjL6aFI1JkRZnDlNKyaJq1iMZ_7SS9tRI0oCapy-QzcMV7xxMjf9EbeNoF2XHkPMruIPRlzL-4wx7uiMEkV3eQLKPQhaippAaSvKPwdoWjYz0iX7_dWLYOCZkzgHbNETb8D1OxhH2mhFW5v7lPzxCbyewKF-MQoNnVEAgjcfCX1nlK1VP0K-VekIsTNSTFY2hqo09Xa6MoA1mMad4oWJlolE81l0e0jAo3Q9iI8H75OAtPu26wvz1uYEP4Jcahcxd_VIdouD4TIJI91jyB8SlQAE2pp15nEBpsGErOdy4QuWHoXq5DJRdfwKqUO3yVBy-MovlPh_4vF4bJ8z3c3-PHuG2EYtqB_h3sz_IM0g_1BGDj3_PDv-lLuo8SRXU_5-l5RTXIGOFyqiGPIQUEN8oPdaCn_joW0EhykqYw2-tY99d0u6hGhP_2JdhnlzOLM-OqF3H3jl30TDG-7Wu3gCkaK3byqbJxKuc-QwtGgKvy22be3_Himx-tUH5l]--></g></svg>