<?xml version="1.0" encoding="UTF-8" standalone="no"?><svg xmlns="http://www.w3.org/2000/svg" xmlns:xlink="http://www.w3.org/1999/xlink" contentStyleType="text/css" height="2028px" preserveAspectRatio="none" style="width:2862px;height:2028px;background:#FFFFFF;" version="1.1" viewBox="0 0 2862 2028" width="2862px" zoomAndPan="magnify"><defs/><g><rect fill="#FFFFFF" height="1764.6563" style="stroke:#181818;stroke-width:1.0;" width="10" x="484.5" y="136.8438"/><rect fill="#FFFFFF" height="1690.0938" style="stroke:#181818;stroke-width:1.0;" width="10" x="972.5" y="174.125"/><rect fill="#FFFFFF" height="405.8125" style="stroke:#181818;stroke-width:1.0;" width="10" x="1432.5" y="211.4063"/><rect fill="#FFFFFF" height="263.9688" style="stroke:#181818;stroke-width:1.0;" width="10" x="1632" y="803.625"/><rect fill="#FFFFFF" height="30" style="stroke:#181818;stroke-width:1.0;" width="10" x="1868" y="248.6875"/><rect fill="#FFFFFF" height="67.2813" style="stroke:#181818;stroke-width:1.0;" width="10" x="2067" y="505.6563"/><rect fill="#FFFFFF" height="30" style="stroke:#181818;stroke-width:1.0;" width="10" x="2067" y="1443.6875"/><rect fill="#FFFFFF" height="30" style="stroke:#181818;stroke-width:1.0;" width="10" x="2067" y="1603.5313"/><rect fill="#FFFFFF" height="67.2813" style="stroke:#181818;stroke-width:1.0;" width="10" x="2191" y="956.0313"/><rect fill="#FFFFFF" height="30" style="stroke:#181818;stroke-width:1.0;" width="10" x="2191" y="1510.9688"/><rect fill="#FFFFFF" height="37.2813" style="stroke:#181818;stroke-width:1.0;" width="10" x="2191" y="1789.6563"/><rect fill="#FFFFFF" height="30" style="stroke:#181818;stroke-width:1.0;" width="10" x="2316" y="542.9375"/><rect fill="#FFFFFF" height="30" style="stroke:#181818;stroke-width:1.0;" width="10" x="2440.5" y="993.3125"/><rect fill="#FFFFFF" height="37.2813" style="stroke:#181818;stroke-width:1.0;" width="10" x="2592.5" y="390.5313"/><rect fill="#FFFFFF" height="524.9375" style="stroke:#181818;stroke-width:1.0;" width="10" x="2772" y="840.9063"/><rect fill="none" height="138.125" style="stroke:#000000;stroke-width:1.5;" width="1057" x="1332" y="442.8125"/><rect fill="none" height="138.125" style="stroke:#000000;stroke-width:1.5;" width="979" x="1533" y="893.1875"/><rect fill="none" height="260.6875" style="stroke:#000000;stroke-width:1.5;" width="1410.5" x="852.5" y="1380.8438"/><line style="stroke:#181818;stroke-width:0.5;stroke-dasharray:5.0,5.0;" x1="30" x2="30" y1="97.5625" y2="1919.5"/><line style="stroke:#181818;stroke-width:0.5;stroke-dasharray:5.0,5.0;" x1="489" x2="489" y1="97.5625" y2="1919.5"/><line style="stroke:#181818;stroke-width:0.5;stroke-dasharray:5.0,5.0;" x1="977.5" x2="977.5" y1="97.5625" y2="1919.5"/><line style="stroke:#181818;stroke-width:0.5;stroke-dasharray:5.0,5.0;" x1="1437" x2="1437" y1="97.5625" y2="1919.5"/><line style="stroke:#181818;stroke-width:0.5;stroke-dasharray:5.0,5.0;" x1="1637" x2="1637" y1="97.5625" y2="1919.5"/><line style="stroke:#181818;stroke-width:0.5;stroke-dasharray:5.0,5.0;" x1="1873" x2="1873" y1="97.5625" y2="1919.5"/><line style="stroke:#181818;stroke-width:0.5;stroke-dasharray:5.0,5.0;" x1="2072" x2="2072" y1="97.5625" y2="1919.5"/><line style="stroke:#181818;stroke-width:0.5;stroke-dasharray:5.0,5.0;" x1="2196" x2="2196" y1="97.5625" y2="1919.5"/><line style="stroke:#181818;stroke-width:0.5;stroke-dasharray:5.0,5.0;" x1="2321" x2="2321" y1="97.5625" y2="1919.5"/><line style="stroke:#181818;stroke-width:0.5;stroke-dasharray:5.0,5.0;" x1="2445" x2="2445" y1="97.5625" y2="1919.5"/><line style="stroke:#181818;stroke-width:0.5;stroke-dasharray:5.0,5.0;" x1="2597" x2="2597" y1="97.5625" y2="1919.5"/><line style="stroke:#181818;stroke-width:0.5;stroke-dasharray:5.0,5.0;" x1="2777" x2="2777" y1="97.5625" y2="1919.5"/><text fill="#000000" font-family="sans-serif" font-size="20" lengthAdjust="spacing" textLength="45" x="5" y="92.8457">User</text><ellipse cx="30.5" cy="22.7813" fill="#E2E2F0" rx="8" ry="8" style="stroke:#181818;stroke-width:0.5;"/><path d="M30.5,30.7813 L30.5,57.7813 M17.5,38.7813 L43.5,38.7813 M30.5,57.7813 L17.5,72.7813 M30.5,57.7813 L43.5,72.7813 " fill="none" style="stroke:#181818;stroke-width:0.5;"/><text fill="#000000" font-family="sans-serif" font-size="20" lengthAdjust="spacing" textLength="45" x="5" y="1937.0645">User</text><ellipse cx="30.5" cy="1950.2813" fill="#E2E2F0" rx="8" ry="8" style="stroke:#181818;stroke-width:0.5;"/><path d="M30.5,1958.2813 L30.5,1985.2813 M17.5,1966.2813 L43.5,1966.2813 M30.5,1985.2813 L17.5,2000.2813 M30.5,1985.2813 L43.5,2000.2813 " fill="none" style="stroke:#181818;stroke-width:0.5;"/><rect fill="#E2E2F0" height="60.5625" rx="2.5" ry="2.5" style="stroke:#181818;stroke-width:0.5;" width="165" x="407" y="36"/><text fill="#000000" font-family="sans-serif" font-size="20" font-style="italic" lengthAdjust="spacing" textLength="151" x="414" y="61.5645">«presentation»</text><text fill="#000000" font-family="sans-serif" font-size="20" lengthAdjust="spacing" textLength="138" x="420.5" y="84.8457">ShareBoardUI</text><rect fill="#E2E2F0" height="60.5625" rx="2.5" ry="2.5" style="stroke:#181818;stroke-width:0.5;" width="165" x="407" y="1918.5"/><text fill="#000000" font-family="sans-serif" font-size="20" font-style="italic" lengthAdjust="spacing" textLength="151" x="414" y="1944.0645">«presentation»</text><text fill="#000000" font-family="sans-serif" font-size="20" lengthAdjust="spacing" textLength="138" x="420.5" y="1967.3457">ShareBoardUI</text><rect fill="#E2E2F0" height="60.5625" rx="2.5" ry="2.5" style="stroke:#181818;stroke-width:0.5;" width="230" x="862.5" y="36"/><text fill="#000000" font-family="sans-serif" font-size="20" font-style="italic" lengthAdjust="spacing" textLength="136" x="909.5" y="61.5645">«application»</text><text fill="#000000" font-family="sans-serif" font-size="20" lengthAdjust="spacing" textLength="216" x="869.5" y="84.8457">ShareBoardController</text><rect fill="#E2E2F0" height="60.5625" rx="2.5" ry="2.5" style="stroke:#181818;stroke-width:0.5;" width="230" x="862.5" y="1918.5"/><text fill="#000000" font-family="sans-serif" font-size="20" font-style="italic" lengthAdjust="spacing" textLength="136" x="909.5" y="1944.0645">«application»</text><text fill="#000000" font-family="sans-serif" font-size="20" lengthAdjust="spacing" textLength="216" x="869.5" y="1967.3457">ShareBoardController</text><rect fill="#E2E2F0" height="60.5625" rx="2.5" ry="2.5" style="stroke:#181818;stroke-width:0.5;" width="191" x="1342" y="36"/><text fill="#000000" font-family="sans-serif" font-size="20" font-style="italic" lengthAdjust="spacing" textLength="95" x="1390" y="61.5645">«service»</text><text fill="#000000" font-family="sans-serif" font-size="20" lengthAdjust="spacing" textLength="177" x="1349" y="84.8457">ListBoardsService</text><rect fill="#E2E2F0" height="60.5625" rx="2.5" ry="2.5" style="stroke:#181818;stroke-width:0.5;" width="191" x="1342" y="1918.5"/><text fill="#000000" font-family="sans-serif" font-size="20" font-style="italic" lengthAdjust="spacing" textLength="95" x="1390" y="1944.0645">«service»</text><text fill="#000000" font-family="sans-serif" font-size="20" lengthAdjust="spacing" textLength="177" x="1349" y="1967.3457">ListBoardsService</text><rect fill="#E2E2F0" height="60.5625" rx="2.5" ry="2.5" style="stroke:#181818;stroke-width:0.5;" width="188" x="1543" y="36"/><text fill="#000000" font-family="sans-serif" font-size="20" font-style="italic" lengthAdjust="spacing" textLength="95" x="1589.5" y="61.5645">«service»</text><text fill="#000000" font-family="sans-serif" font-size="20" lengthAdjust="spacing" textLength="174" x="1550" y="84.8457">ListPostItsService</text><rect fill="#E2E2F0" height="60.5625" rx="2.5" ry="2.5" style="stroke:#181818;stroke-width:0.5;" width="188" x="1543" y="1918.5"/><text fill="#000000" font-family="sans-serif" font-size="20" font-style="italic" lengthAdjust="spacing" textLength="95" x="1589.5" y="1944.0645">«service»</text><text fill="#000000" font-family="sans-serif" font-size="20" lengthAdjust="spacing" textLength="174" x="1550" y="1967.3457">ListPostItsService</text><rect fill="#E2E2F0" height="60.5625" rx="2.5" ry="2.5" style="stroke:#181818;stroke-width:0.5;" width="264" x="1741" y="36"/><text fill="#000000" font-family="sans-serif" font-size="20" font-style="italic" lengthAdjust="spacing" textLength="95" x="1825.5" y="61.5645">«service»</text><text fill="#000000" font-family="sans-serif" font-size="20" lengthAdjust="spacing" textLength="250" x="1748" y="84.8457">UserManagementService</text><rect fill="#E2E2F0" height="60.5625" rx="2.5" ry="2.5" style="stroke:#181818;stroke-width:0.5;" width="264" x="1741" y="1918.5"/><text fill="#000000" font-family="sans-serif" font-size="20" font-style="italic" lengthAdjust="spacing" textLength="95" x="1825.5" y="1944.0645">«service»</text><text fill="#000000" font-family="sans-serif" font-size="20" lengthAdjust="spacing" textLength="250" x="1748" y="1967.3457">UserManagementService</text><rect fill="#E2E2F0" height="60.5625" rx="2.5" ry="2.5" style="stroke:#181818;stroke-width:0.5;" width="114" x="2015" y="36"/><text fill="#000000" font-family="sans-serif" font-size="20" font-style="italic" lengthAdjust="spacing" textLength="100" x="2022" y="61.5645">«domain»</text><text fill="#000000" font-family="sans-serif" font-size="20" lengthAdjust="spacing" textLength="59" x="2042.5" y="84.8457">Board</text><rect fill="#E2E2F0" height="60.5625" rx="2.5" ry="2.5" style="stroke:#181818;stroke-width:0.5;" width="114" x="2015" y="1918.5"/><text fill="#000000" font-family="sans-serif" font-size="20" font-style="italic" lengthAdjust="spacing" textLength="100" x="2022" y="1944.0645">«domain»</text><text fill="#000000" font-family="sans-serif" font-size="20" lengthAdjust="spacing" textLength="59" x="2042.5" y="1967.3457">Board</text><rect fill="#E2E2F0" height="60.5625" rx="2.5" ry="2.5" style="stroke:#181818;stroke-width:0.5;" width="114" x="2139" y="36"/><text fill="#000000" font-family="sans-serif" font-size="20" font-style="italic" lengthAdjust="spacing" textLength="100" x="2146" y="61.5645">«domain»</text><text fill="#000000" font-family="sans-serif" font-size="20" lengthAdjust="spacing" textLength="56" x="2168" y="84.8457">PostIt</text><rect fill="#E2E2F0" height="60.5625" rx="2.5" ry="2.5" style="stroke:#181818;stroke-width:0.5;" width="114" x="2139" y="1918.5"/><text fill="#000000" font-family="sans-serif" font-size="20" font-style="italic" lengthAdjust="spacing" textLength="100" x="2146" y="1944.0645">«domain»</text><text fill="#000000" font-family="sans-serif" font-size="20" lengthAdjust="spacing" textLength="56" x="2168" y="1967.3457">PostIt</text><rect fill="#E2E2F0" height="60.5625" rx="2.5" ry="2.5" style="stroke:#181818;stroke-width:0.5;" width="116" x="2263" y="36"/><text fill="#000000" font-family="sans-serif" font-size="20" font-style="italic" lengthAdjust="spacing" textLength="57" x="2292.5" y="61.5645">«dto»</text><text fill="#000000" font-family="sans-serif" font-size="20" lengthAdjust="spacing" textLength="102" x="2270" y="84.8457">BoardDTO</text><rect fill="#E2E2F0" height="60.5625" rx="2.5" ry="2.5" style="stroke:#181818;stroke-width:0.5;" width="116" x="2263" y="1918.5"/><text fill="#000000" font-family="sans-serif" font-size="20" font-style="italic" lengthAdjust="spacing" textLength="57" x="2292.5" y="1944.0645">«dto»</text><text fill="#000000" font-family="sans-serif" font-size="20" lengthAdjust="spacing" textLength="102" x="2270" y="1967.3457">BoardDTO</text><rect fill="#E2E2F0" height="60.5625" rx="2.5" ry="2.5" style="stroke:#181818;stroke-width:0.5;" width="113" x="2389" y="36"/><text fill="#000000" font-family="sans-serif" font-size="20" font-style="italic" lengthAdjust="spacing" textLength="57" x="2417" y="61.5645">«dto»</text><text fill="#000000" font-family="sans-serif" font-size="20" lengthAdjust="spacing" textLength="99" x="2396" y="84.8457">PostItDTO</text><rect fill="#E2E2F0" height="60.5625" rx="2.5" ry="2.5" style="stroke:#181818;stroke-width:0.5;" width="113" x="2389" y="1918.5"/><text fill="#000000" font-family="sans-serif" font-size="20" font-style="italic" lengthAdjust="spacing" textLength="57" x="2417" y="1944.0645">«dto»</text><text fill="#000000" font-family="sans-serif" font-size="20" lengthAdjust="spacing" textLength="99" x="2396" y="1967.3457">PostItDTO</text><text fill="#000000" font-family="sans-serif" font-size="20" font-style="italic" lengthAdjust="spacing" textLength="125" x="2532" y="69.5645">«repository»</text><text fill="#000000" font-family="sans-serif" font-size="20" lengthAdjust="spacing" textLength="165" x="2512" y="92.8457">BoardRepository</text><path d="M2579.5,15 C2579.5,5 2597.5,5 2597.5,5 C2597.5,5 2615.5,5 2615.5,15 L2615.5,41 C2615.5,51 2597.5,51 2597.5,51 C2597.5,51 2579.5,51 2579.5,41 L2579.5,15 " fill="#E2E2F0" style="stroke:#181818;stroke-width:1.5;"/><path d="M2579.5,15 C2579.5,25 2597.5,25 2597.5,25 C2597.5,25 2615.5,25 2615.5,15 " fill="none" style="stroke:#181818;stroke-width:1.5;"/><text fill="#000000" font-family="sans-serif" font-size="20" font-style="italic" lengthAdjust="spacing" textLength="125" x="2532" y="1937.0645">«repository»</text><text fill="#000000" font-family="sans-serif" font-size="20" lengthAdjust="spacing" textLength="165" x="2512" y="1960.3457">BoardRepository</text><path d="M2579.5,1975.0625 C2579.5,1965.0625 2597.5,1965.0625 2597.5,1965.0625 C2597.5,1965.0625 2615.5,1965.0625 2615.5,1975.0625 L2615.5,2001.0625 C2615.5,2011.0625 2597.5,2011.0625 2597.5,2011.0625 C2597.5,2011.0625 2579.5,2011.0625 2579.5,2001.0625 L2579.5,1975.0625 " fill="#E2E2F0" style="stroke:#181818;stroke-width:1.5;"/><path d="M2579.5,1975.0625 C2579.5,1985.0625 2597.5,1985.0625 2597.5,1985.0625 C2597.5,1985.0625 2615.5,1985.0625 2615.5,1975.0625 " fill="none" style="stroke:#181818;stroke-width:1.5;"/><text fill="#000000" font-family="sans-serif" font-size="20" font-style="italic" lengthAdjust="spacing" textLength="125" x="2711.5" y="69.5645">«repository»</text><text fill="#000000" font-family="sans-serif" font-size="20" lengthAdjust="spacing" textLength="162" x="2693" y="92.8457">PostItRepository</text><path d="M2759,15 C2759,5 2777,5 2777,5 C2777,5 2795,5 2795,15 L2795,41 C2795,51 2777,51 2777,51 C2777,51 2759,51 2759,41 L2759,15 " fill="#E2E2F0" style="stroke:#181818;stroke-width:1.5;"/><path d="M2759,15 C2759,25 2777,25 2777,25 C2777,25 2795,25 2795,15 " fill="none" style="stroke:#181818;stroke-width:1.5;"/><text fill="#000000" font-family="sans-serif" font-size="20" font-style="italic" lengthAdjust="spacing" textLength="125" x="2711.5" y="1937.0645">«repository»</text><text fill="#000000" font-family="sans-serif" font-size="20" lengthAdjust="spacing" textLength="162" x="2693" y="1960.3457">PostItRepository</text><path d="M2759,1975.0625 C2759,1965.0625 2777,1965.0625 2777,1965.0625 C2777,1965.0625 2795,1965.0625 2795,1975.0625 L2795,2001.0625 C2795,2011.0625 2777,2011.0625 2777,2011.0625 C2777,2011.0625 2759,2011.0625 2759,2001.0625 L2759,1975.0625 " fill="#E2E2F0" style="stroke:#181818;stroke-width:1.5;"/><path d="M2759,1975.0625 C2759,1985.0625 2777,1985.0625 2777,1985.0625 C2777,1985.0625 2795,1985.0625 2795,1975.0625 " fill="none" style="stroke:#181818;stroke-width:1.5;"/><rect fill="#FFFFFF" height="1764.6563" style="stroke:#181818;stroke-width:1.0;" width="10" x="484.5" y="136.8438"/><rect fill="#FFFFFF" height="1690.0938" style="stroke:#181818;stroke-width:1.0;" width="10" x="972.5" y="174.125"/><rect fill="#FFFFFF" height="405.8125" style="stroke:#181818;stroke-width:1.0;" width="10" x="1432.5" y="211.4063"/><rect fill="#FFFFFF" height="263.9688" style="stroke:#181818;stroke-width:1.0;" width="10" x="1632" y="803.625"/><rect fill="#FFFFFF" height="30" style="stroke:#181818;stroke-width:1.0;" width="10" x="1868" y="248.6875"/><rect fill="#FFFFFF" height="67.2813" style="stroke:#181818;stroke-width:1.0;" width="10" x="2067" y="505.6563"/><rect fill="#FFFFFF" height="30" style="stroke:#181818;stroke-width:1.0;" width="10" x="2067" y="1443.6875"/><rect fill="#FFFFFF" height="30" style="stroke:#181818;stroke-width:1.0;" width="10" x="2067" y="1603.5313"/><rect fill="#FFFFFF" height="67.2813" style="stroke:#181818;stroke-width:1.0;" width="10" x="2191" y="956.0313"/><rect fill="#FFFFFF" height="30" style="stroke:#181818;stroke-width:1.0;" width="10" x="2191" y="1510.9688"/><rect fill="#FFFFFF" height="37.2813" style="stroke:#181818;stroke-width:1.0;" width="10" x="2191" y="1789.6563"/><rect fill="#FFFFFF" height="30" style="stroke:#181818;stroke-width:1.0;" width="10" x="2316" y="542.9375"/><rect fill="#FFFFFF" height="30" style="stroke:#181818;stroke-width:1.0;" width="10" x="2440.5" y="993.3125"/><rect fill="#FFFFFF" height="37.2813" style="stroke:#181818;stroke-width:1.0;" width="10" x="2592.5" y="390.5313"/><rect fill="#FFFFFF" height="524.9375" style="stroke:#181818;stroke-width:1.0;" width="10" x="2772" y="840.9063"/><polygon fill="#181818" points="472.5,132.8438,482.5,136.8438,472.5,140.8438,476.5,136.8438" style="stroke:#181818;stroke-width:1.0;"/><line style="stroke:#181818;stroke-width:1.0;" x1="30.5" x2="478.5" y1="136.8438" y2="136.8438"/><text fill="#000000" font-family="sans-serif" font-size="20" font-weight="bold" lengthAdjust="spacing" textLength="14" x="37.5" y="130.127">1</text><text fill="#000000" font-family="sans-serif" font-size="20" lengthAdjust="spacing" textLength="417" x="55.5" y="130.127">wants to undo the last change of a post-it</text><polygon fill="#181818" points="960.5,170.125,970.5,174.125,960.5,178.125,964.5,174.125" style="stroke:#181818;stroke-width:1.0;"/><line style="stroke:#181818;stroke-width:1.0;" x1="494.5" x2="966.5" y1="174.125" y2="174.125"/><text fill="#000000" font-family="sans-serif" font-size="20" font-weight="bold" lengthAdjust="spacing" textLength="14" x="501.5" y="167.4082">2</text><text fill="#000000" font-family="sans-serif" font-size="20" lengthAdjust="spacing" textLength="58" x="519.5" y="167.4082">new()</text><polygon fill="#181818" points="1420.5,207.4063,1430.5,211.4063,1420.5,215.4063,1424.5,211.4063" style="stroke:#181818;stroke-width:1.0;"/><line style="stroke:#181818;stroke-width:1.0;" x1="982.5" x2="1426.5" y1="211.4063" y2="211.4063"/><text fill="#000000" font-family="sans-serif" font-size="20" font-weight="bold" lengthAdjust="spacing" textLength="14" x="989.5" y="204.6895">3</text><text fill="#000000" font-family="sans-serif" font-size="20" lengthAdjust="spacing" textLength="413" x="1007.5" y="204.6895">listBoardService = new(boardRepository)</text><polygon fill="#181818" points="1856,244.6875,1866,248.6875,1856,252.6875,1860,248.6875" style="stroke:#181818;stroke-width:1.0;"/><line style="stroke:#181818;stroke-width:1.0;" x1="982.5" x2="1862" y1="248.6875" y2="248.6875"/><text fill="#000000" font-family="sans-serif" font-size="20" font-weight="bold" lengthAdjust="spacing" textLength="14" x="989.5" y="241.9707">4</text><text fill="#000000" font-family="sans-serif" font-size="20" lengthAdjust="spacing" textLength="340" x="1007.5" y="241.9707">usrService = new(userRepository)</text><polygon fill="#181818" points="960.5,311.9688,970.5,315.9688,960.5,319.9688,964.5,315.9688" style="stroke:#181818;stroke-width:1.0;"/><line style="stroke:#181818;stroke-width:1.0;" x1="494.5" x2="966.5" y1="315.9688" y2="315.9688"/><text fill="#000000" font-family="sans-serif" font-size="20" font-weight="bold" lengthAdjust="spacing" textLength="14" x="501.5" y="309.252">5</text><text fill="#000000" font-family="sans-serif" font-size="20" lengthAdjust="spacing" textLength="245" x="519.5" y="309.252">listUserWritableBoards()</text><polygon fill="#181818" points="1420.5,349.25,1430.5,353.25,1420.5,357.25,1424.5,353.25" style="stroke:#181818;stroke-width:1.0;"/><line style="stroke:#181818;stroke-width:1.0;" x1="982.5" x2="1426.5" y1="353.25" y2="353.25"/><text fill="#000000" font-family="sans-serif" font-size="20" font-weight="bold" lengthAdjust="spacing" textLength="14" x="989.5" y="346.5332">6</text><text fill="#000000" font-family="sans-serif" font-size="20" lengthAdjust="spacing" textLength="171" x="1007.5" y="346.5332">userBoards(user)</text><polygon fill="#181818" points="2580.5,386.5313,2590.5,390.5313,2580.5,394.5313,2584.5,390.5313" style="stroke:#181818;stroke-width:1.0;"/><line style="stroke:#181818;stroke-width:1.0;" x1="1442.5" x2="2586.5" y1="390.5313" y2="390.5313"/><text fill="#000000" font-family="sans-serif" font-size="20" font-weight="bold" lengthAdjust="spacing" textLength="14" x="1449.5" y="383.8145">7</text><text fill="#000000" font-family="sans-serif" font-size="20" lengthAdjust="spacing" textLength="323" x="1467.5" y="383.8145">findAllUserWritableBoards(user)</text><polygon fill="#181818" points="1453.5,423.8125,1443.5,427.8125,1453.5,431.8125,1449.5,427.8125" style="stroke:#181818;stroke-width:1.0;"/><line style="stroke:#181818;stroke-width:1.0;stroke-dasharray:2.0,2.0;" x1="1447.5" x2="2596.5" y1="427.8125" y2="427.8125"/><text fill="#000000" font-family="sans-serif" font-size="20" font-weight="bold" lengthAdjust="spacing" textLength="14" x="1459.5" y="421.0957">8</text><text fill="#000000" font-family="sans-serif" font-size="20" lengthAdjust="spacing" textLength="68" x="1477.5" y="421.0957">boards</text><path d="M1332,442.8125 L1426,442.8125 L1426,458.0938 L1416,468.0938 L1332,468.0938 L1332,442.8125 " fill="#EEEEEE" style="stroke:#000000;stroke-width:1.5;"/><rect fill="none" height="138.125" style="stroke:#000000;stroke-width:1.5;" width="1057" x="1332" y="442.8125"/><text fill="#000000" font-family="sans-serif" font-size="20" font-weight="bold" lengthAdjust="spacing" textLength="49" x="1347" y="462.377">loop</text><text fill="#000000" font-family="sans-serif" font-size="20" font-weight="bold" lengthAdjust="spacing" textLength="185" x="1441" y="463.377">[for each board]</text><polygon fill="#181818" points="2055,501.6563,2065,505.6563,2055,509.6563,2059,505.6563" style="stroke:#181818;stroke-width:1.0;"/><line style="stroke:#181818;stroke-width:1.0;" x1="1442.5" x2="2061" y1="505.6563" y2="505.6563"/><text fill="#000000" font-family="sans-serif" font-size="20" font-weight="bold" lengthAdjust="spacing" textLength="14" x="1449.5" y="498.9395">9</text><text fill="#000000" font-family="sans-serif" font-size="20" lengthAdjust="spacing" textLength="145" x="1467.5" y="498.9395">toDTO(course)</text><polygon fill="#181818" points="2304,538.9375,2314,542.9375,2304,546.9375,2308,542.9375" style="stroke:#181818;stroke-width:1.0;"/><line style="stroke:#181818;stroke-width:1.0;" x1="2077" x2="2310" y1="542.9375" y2="542.9375"/><text fill="#000000" font-family="sans-serif" font-size="20" font-weight="bold" lengthAdjust="spacing" textLength="28" x="2084" y="536.2207">10</text><text fill="#000000" font-family="sans-serif" font-size="20" lengthAdjust="spacing" textLength="58" x="2116" y="536.2207">new()</text><polygon fill="#181818" points="993.5,613.2188,983.5,617.2188,993.5,621.2188,989.5,617.2188" style="stroke:#181818;stroke-width:1.0;"/><line style="stroke:#181818;stroke-width:1.0;stroke-dasharray:2.0,2.0;" x1="987.5" x2="1436.5" y1="617.2188" y2="617.2188"/><text fill="#000000" font-family="sans-serif" font-size="20" font-weight="bold" lengthAdjust="spacing" textLength="28" x="999.5" y="610.502">11</text><text fill="#000000" font-family="sans-serif" font-size="20" lengthAdjust="spacing" textLength="68" x="1031.5" y="610.502">boards</text><polygon fill="#181818" points="505.5,650.5,495.5,654.5,505.5,658.5,501.5,654.5" style="stroke:#181818;stroke-width:1.0;"/><line style="stroke:#181818;stroke-width:1.0;stroke-dasharray:2.0,2.0;" x1="499.5" x2="971.5" y1="654.5" y2="654.5"/><text fill="#000000" font-family="sans-serif" font-size="20" font-weight="bold" lengthAdjust="spacing" textLength="28" x="511.5" y="647.7832">12</text><text fill="#000000" font-family="sans-serif" font-size="20" lengthAdjust="spacing" textLength="68" x="543.5" y="647.7832">boards</text><polygon fill="#181818" points="41.5,687.7813,31.5,691.7813,41.5,695.7813,37.5,691.7813" style="stroke:#181818;stroke-width:1.0;"/><line style="stroke:#181818;stroke-width:1.0;stroke-dasharray:2.0,2.0;" x1="35.5" x2="483.5" y1="691.7813" y2="691.7813"/><text fill="#000000" font-family="sans-serif" font-size="20" font-weight="bold" lengthAdjust="spacing" textLength="28" x="47.5" y="685.0645">13</text><text fill="#000000" font-family="sans-serif" font-size="20" lengthAdjust="spacing" textLength="217" x="79.5" y="685.0645">asks to select a board</text><polygon fill="#181818" points="472.5,725.0625,482.5,729.0625,472.5,733.0625,476.5,729.0625" style="stroke:#181818;stroke-width:1.0;"/><line style="stroke:#181818;stroke-width:1.0;" x1="30.5" x2="478.5" y1="729.0625" y2="729.0625"/><text fill="#000000" font-family="sans-serif" font-size="20" font-weight="bold" lengthAdjust="spacing" textLength="28" x="37.5" y="722.3457">14</text><text fill="#000000" font-family="sans-serif" font-size="20" lengthAdjust="spacing" textLength="151" x="69.5" y="722.3457">selects a board</text><polygon fill="#181818" points="960.5,762.3438,970.5,766.3438,960.5,770.3438,964.5,766.3438" style="stroke:#181818;stroke-width:1.0;"/><line style="stroke:#181818;stroke-width:1.0;" x1="494.5" x2="966.5" y1="766.3438" y2="766.3438"/><text fill="#000000" font-family="sans-serif" font-size="20" font-weight="bold" lengthAdjust="spacing" textLength="28" x="501.5" y="759.627">15</text><text fill="#000000" font-family="sans-serif" font-size="20" lengthAdjust="spacing" textLength="422" x="533.5" y="759.627">listLatestBoardPostItsFromUser(boardDto)</text><polygon fill="#181818" points="1620,799.625,1630,803.625,1620,807.625,1624,803.625" style="stroke:#181818;stroke-width:1.0;"/><line style="stroke:#181818;stroke-width:1.0;" x1="982.5" x2="1626" y1="803.625" y2="803.625"/><text fill="#000000" font-family="sans-serif" font-size="20" font-weight="bold" lengthAdjust="spacing" textLength="28" x="989.5" y="796.9082">16</text><text fill="#000000" font-family="sans-serif" font-size="20" lengthAdjust="spacing" textLength="440" x="1021.5" y="796.9082">latestOfBoardFromUser(boardId, username)</text><polygon fill="#181818" points="2760,836.9063,2770,840.9063,2760,844.9063,2764,840.9063" style="stroke:#181818;stroke-width:1.0;"/><line style="stroke:#181818;stroke-width:1.0;" x1="1642" x2="2766" y1="840.9063" y2="840.9063"/><text fill="#000000" font-family="sans-serif" font-size="20" font-weight="bold" lengthAdjust="spacing" textLength="28" x="1649" y="834.1895">17</text><text fill="#000000" font-family="sans-serif" font-size="20" lengthAdjust="spacing" textLength="505" x="1681" y="834.1895">findLatestFromUserByBoardId(boardId, username)</text><polygon fill="#181818" points="1653,874.1875,1643,878.1875,1653,882.1875,1649,878.1875" style="stroke:#181818;stroke-width:1.0;"/><line style="stroke:#181818;stroke-width:1.0;stroke-dasharray:2.0,2.0;" x1="1647" x2="2771" y1="878.1875" y2="878.1875"/><text fill="#000000" font-family="sans-serif" font-size="20" font-weight="bold" lengthAdjust="spacing" textLength="28" x="1659" y="871.4707">18</text><text fill="#000000" font-family="sans-serif" font-size="20" lengthAdjust="spacing" textLength="67" x="1691" y="871.4707">postIts</text><path d="M1533,893.1875 L1627,893.1875 L1627,908.4688 L1617,918.4688 L1533,918.4688 L1533,893.1875 " fill="#EEEEEE" style="stroke:#000000;stroke-width:1.5;"/><rect fill="none" height="138.125" style="stroke:#000000;stroke-width:1.5;" width="979" x="1533" y="893.1875"/><text fill="#000000" font-family="sans-serif" font-size="20" font-weight="bold" lengthAdjust="spacing" textLength="49" x="1548" y="912.752">loop</text><text fill="#000000" font-family="sans-serif" font-size="20" font-weight="bold" lengthAdjust="spacing" textLength="194" x="1642" y="913.752">[for each post-it]</text><polygon fill="#181818" points="2179,952.0313,2189,956.0313,2179,960.0313,2183,956.0313" style="stroke:#181818;stroke-width:1.0;"/><line style="stroke:#181818;stroke-width:1.0;" x1="1642" x2="2185" y1="956.0313" y2="956.0313"/><text fill="#000000" font-family="sans-serif" font-size="20" font-weight="bold" lengthAdjust="spacing" textLength="28" x="1649" y="949.3145">19</text><text fill="#000000" font-family="sans-serif" font-size="20" lengthAdjust="spacing" textLength="136" x="1681" y="949.3145">toDTO(postIt)</text><polygon fill="#181818" points="2428.5,989.3125,2438.5,993.3125,2428.5,997.3125,2432.5,993.3125" style="stroke:#181818;stroke-width:1.0;"/><line style="stroke:#181818;stroke-width:1.0;" x1="2201" x2="2434.5" y1="993.3125" y2="993.3125"/><text fill="#000000" font-family="sans-serif" font-size="20" font-weight="bold" lengthAdjust="spacing" textLength="28" x="2208" y="986.5957">20</text><text fill="#000000" font-family="sans-serif" font-size="20" lengthAdjust="spacing" textLength="58" x="2240" y="986.5957">new()</text><polygon fill="#181818" points="993.5,1063.5938,983.5,1067.5938,993.5,1071.5938,989.5,1067.5938" style="stroke:#181818;stroke-width:1.0;"/><line style="stroke:#181818;stroke-width:1.0;stroke-dasharray:2.0,2.0;" x1="987.5" x2="1636" y1="1067.5938" y2="1067.5938"/><text fill="#000000" font-family="sans-serif" font-size="20" font-weight="bold" lengthAdjust="spacing" textLength="28" x="999.5" y="1060.877">21</text><text fill="#000000" font-family="sans-serif" font-size="20" lengthAdjust="spacing" textLength="67" x="1031.5" y="1060.877">postIts</text><polygon fill="#181818" points="505.5,1100.875,495.5,1104.875,505.5,1108.875,501.5,1104.875" style="stroke:#181818;stroke-width:1.0;"/><line style="stroke:#181818;stroke-width:1.0;stroke-dasharray:2.0,2.0;" x1="499.5" x2="971.5" y1="1104.875" y2="1104.875"/><text fill="#000000" font-family="sans-serif" font-size="20" font-weight="bold" lengthAdjust="spacing" textLength="28" x="511.5" y="1098.1582">22</text><text fill="#000000" font-family="sans-serif" font-size="20" lengthAdjust="spacing" textLength="67" x="543.5" y="1098.1582">postIts</text><polygon fill="#181818" points="41.5,1138.1563,31.5,1142.1563,41.5,1146.1563,37.5,1142.1563" style="stroke:#181818;stroke-width:1.0;"/><line style="stroke:#181818;stroke-width:1.0;stroke-dasharray:2.0,2.0;" x1="35.5" x2="483.5" y1="1142.1563" y2="1142.1563"/><text fill="#000000" font-family="sans-serif" font-size="20" font-weight="bold" lengthAdjust="spacing" textLength="28" x="47.5" y="1135.4395">23</text><text fill="#000000" font-family="sans-serif" font-size="20" lengthAdjust="spacing" textLength="223" x="79.5" y="1135.4395">asks to select a post-it</text><polygon fill="#181818" points="472.5,1175.4375,482.5,1179.4375,472.5,1183.4375,476.5,1179.4375" style="stroke:#181818;stroke-width:1.0;"/><line style="stroke:#181818;stroke-width:1.0;" x1="30.5" x2="478.5" y1="1179.4375" y2="1179.4375"/><text fill="#000000" font-family="sans-serif" font-size="20" font-weight="bold" lengthAdjust="spacing" textLength="28" x="37.5" y="1172.7207">24</text><text fill="#000000" font-family="sans-serif" font-size="20" lengthAdjust="spacing" textLength="157" x="69.5" y="1172.7207">selects a post-it</text><polygon fill="#181818" points="41.5,1212.7188,31.5,1216.7188,41.5,1220.7188,37.5,1216.7188" style="stroke:#181818;stroke-width:1.0;"/><line style="stroke:#181818;stroke-width:1.0;stroke-dasharray:2.0,2.0;" x1="35.5" x2="483.5" y1="1216.7188" y2="1216.7188"/><text fill="#000000" font-family="sans-serif" font-size="20" font-weight="bold" lengthAdjust="spacing" textLength="28" x="47.5" y="1210.002">25</text><text fill="#000000" font-family="sans-serif" font-size="20" lengthAdjust="spacing" textLength="260" x="79.5" y="1210.002">asks to confirm the action</text><polygon fill="#181818" points="472.5,1250,482.5,1254,472.5,1258,476.5,1254" style="stroke:#181818;stroke-width:1.0;"/><line style="stroke:#181818;stroke-width:1.0;" x1="30.5" x2="478.5" y1="1254" y2="1254"/><text fill="#000000" font-family="sans-serif" font-size="20" font-weight="bold" lengthAdjust="spacing" textLength="28" x="37.5" y="1247.2832">26</text><text fill="#000000" font-family="sans-serif" font-size="20" lengthAdjust="spacing" textLength="194" x="69.5" y="1247.2832">confirms the action</text><polygon fill="#181818" points="960.5,1287.2813,970.5,1291.2813,960.5,1295.2813,964.5,1291.2813" style="stroke:#181818;stroke-width:1.0;"/><line style="stroke:#181818;stroke-width:1.0;" x1="494.5" x2="966.5" y1="1291.2813" y2="1291.2813"/><text fill="#000000" font-family="sans-serif" font-size="20" font-weight="bold" lengthAdjust="spacing" textLength="28" x="501.5" y="1284.5645">27</text><text fill="#000000" font-family="sans-serif" font-size="20" lengthAdjust="spacing" textLength="240" x="533.5" y="1284.5645">canEditPostIt(postItDto)</text><polygon fill="#181818" points="2760,1324.5625,2770,1328.5625,2760,1332.5625,2764,1328.5625" style="stroke:#181818;stroke-width:1.0;"/><line style="stroke:#181818;stroke-width:1.0;" x1="982.5" x2="2766" y1="1328.5625" y2="1328.5625"/><text fill="#000000" font-family="sans-serif" font-size="20" font-weight="bold" lengthAdjust="spacing" textLength="28" x="989.5" y="1321.8457">28</text><text fill="#000000" font-family="sans-serif" font-size="20" lengthAdjust="spacing" textLength="229" x="1021.5" y="1321.8457">ofIdentity(postItDto.id)</text><polygon fill="#181818" points="993.5,1361.8438,983.5,1365.8438,993.5,1369.8438,989.5,1365.8438" style="stroke:#181818;stroke-width:1.0;"/><line style="stroke:#181818;stroke-width:1.0;stroke-dasharray:2.0,2.0;" x1="987.5" x2="2776" y1="1365.8438" y2="1365.8438"/><text fill="#000000" font-family="sans-serif" font-size="20" font-weight="bold" lengthAdjust="spacing" textLength="28" x="999.5" y="1359.127">29</text><text fill="#000000" font-family="sans-serif" font-size="20" lengthAdjust="spacing" textLength="57" x="1031.5" y="1359.127">postIt</text><path d="M852.5,1380.8438 L935.5,1380.8438 L935.5,1396.125 L925.5,1406.125 L852.5,1406.125 L852.5,1380.8438 " fill="#EEEEEE" style="stroke:#000000;stroke-width:1.5;"/><rect fill="none" height="260.6875" style="stroke:#000000;stroke-width:1.5;" width="1410.5" x="852.5" y="1380.8438"/><text fill="#000000" font-family="sans-serif" font-size="20" font-weight="bold" lengthAdjust="spacing" textLength="38" x="867.5" y="1400.4082">opt</text><text fill="#000000" font-family="sans-serif" font-size="20" font-weight="bold" lengthAdjust="spacing" textLength="740" x="950.5" y="1401.4082">[user is creator of post-it and has write permission to the board]</text><polygon fill="#181818" points="2055,1439.6875,2065,1443.6875,2055,1447.6875,2059,1443.6875" style="stroke:#181818;stroke-width:1.0;"/><line style="stroke:#181818;stroke-width:1.0;" x1="982.5" x2="2061" y1="1443.6875" y2="1443.6875"/><text fill="#000000" font-family="sans-serif" font-size="20" font-weight="bold" lengthAdjust="spacing" textLength="28" x="989.5" y="1436.9707">30</text><text fill="#000000" font-family="sans-serif" font-size="20" lengthAdjust="spacing" textLength="149" x="1021.5" y="1436.9707">canWrite(user)</text><polygon fill="#181818" points="2179,1506.9688,2189,1510.9688,2179,1514.9688,2183,1510.9688" style="stroke:#181818;stroke-width:1.0;"/><line style="stroke:#181818;stroke-width:1.0;" x1="982.5" x2="2185" y1="1510.9688" y2="1510.9688"/><text fill="#000000" font-family="sans-serif" font-size="20" font-weight="bold" lengthAdjust="spacing" textLength="28" x="989.5" y="1504.252">31</text><text fill="#000000" font-family="sans-serif" font-size="20" lengthAdjust="spacing" textLength="78" x="1021.5" y="1504.252">owner()</text><line style="stroke:#000000;stroke-width:1.0;stroke-dasharray:2.0,2.0;" x1="852.5" x2="2263" y1="1549.9688" y2="1549.9688"/><text fill="#000000" font-family="sans-serif" font-size="20" font-weight="bold" lengthAdjust="spacing" textLength="319" x="857.5" y="1568.5332">[user is owner of the board]</text><polygon fill="#181818" points="2055,1599.5313,2065,1603.5313,2055,1607.5313,2059,1603.5313" style="stroke:#181818;stroke-width:1.0;"/><line style="stroke:#181818;stroke-width:1.0;" x1="982.5" x2="2061" y1="1603.5313" y2="1603.5313"/><text fill="#000000" font-family="sans-serif" font-size="20" font-weight="bold" lengthAdjust="spacing" textLength="28" x="989.5" y="1596.8145">32</text><text fill="#000000" font-family="sans-serif" font-size="20" lengthAdjust="spacing" textLength="78" x="1021.5" y="1596.8145">owner()</text><polygon fill="#181818" points="960.5,1673.8125,970.5,1677.8125,960.5,1681.8125,964.5,1677.8125" style="stroke:#181818;stroke-width:1.0;"/><line style="stroke:#181818;stroke-width:1.0;" x1="494.5" x2="966.5" y1="1677.8125" y2="1677.8125"/><text fill="#000000" font-family="sans-serif" font-size="20" font-weight="bold" lengthAdjust="spacing" textLength="28" x="501.5" y="1671.0957">33</text><text fill="#000000" font-family="sans-serif" font-size="20" lengthAdjust="spacing" textLength="292" x="533.5" y="1671.0957">undoPostItChange(postItDto)</text><polygon fill="#181818" points="2765,1711.0938,2775,1715.0938,2765,1719.0938,2769,1715.0938" style="stroke:#181818;stroke-width:1.0;"/><line style="stroke:#181818;stroke-width:1.0;" x1="982.5" x2="2771" y1="1715.0938" y2="1715.0938"/><text fill="#000000" font-family="sans-serif" font-size="20" font-weight="bold" lengthAdjust="spacing" textLength="28" x="989.5" y="1708.377">34</text><text fill="#000000" font-family="sans-serif" font-size="20" lengthAdjust="spacing" textLength="229" x="1021.5" y="1708.377">ofIdentity(postItDto.id)</text><polygon fill="#181818" points="993.5,1748.375,983.5,1752.375,993.5,1756.375,989.5,1752.375" style="stroke:#181818;stroke-width:1.0;"/><line style="stroke:#181818;stroke-width:1.0;stroke-dasharray:2.0,2.0;" x1="987.5" x2="2776" y1="1752.375" y2="1752.375"/><text fill="#000000" font-family="sans-serif" font-size="20" font-weight="bold" lengthAdjust="spacing" textLength="28" x="999.5" y="1745.6582">35</text><text fill="#000000" font-family="sans-serif" font-size="20" lengthAdjust="spacing" textLength="57" x="1031.5" y="1745.6582">postIt</text><polygon fill="#181818" points="2179,1785.6563,2189,1789.6563,2179,1793.6563,2183,1789.6563" style="stroke:#181818;stroke-width:1.0;"/><line style="stroke:#181818;stroke-width:1.0;" x1="982.5" x2="2185" y1="1789.6563" y2="1789.6563"/><text fill="#000000" font-family="sans-serif" font-size="20" font-weight="bold" lengthAdjust="spacing" textLength="28" x="989.5" y="1782.9395">36</text><text fill="#000000" font-family="sans-serif" font-size="20" lengthAdjust="spacing" textLength="296" x="1021.5" y="1782.9395">getPrevious().toggleIsLatest()</text><polygon fill="#181818" points="2184,1822.9375,2194,1826.9375,2184,1830.9375,2188,1826.9375" style="stroke:#181818;stroke-width:1.0;"/><line style="stroke:#181818;stroke-width:1.0;" x1="982.5" x2="2190" y1="1826.9375" y2="1826.9375"/><text fill="#000000" font-family="sans-serif" font-size="20" font-weight="bold" lengthAdjust="spacing" textLength="28" x="989.5" y="1820.2207">37</text><text fill="#000000" font-family="sans-serif" font-size="20" lengthAdjust="spacing" textLength="79" x="1021.5" y="1820.2207">delete()</text><polygon fill="#181818" points="505.5,1860.2188,495.5,1864.2188,505.5,1868.2188,501.5,1864.2188" style="stroke:#181818;stroke-width:1.0;"/><line style="stroke:#181818;stroke-width:1.0;stroke-dasharray:2.0,2.0;" x1="499.5" x2="976.5" y1="1864.2188" y2="1864.2188"/><text fill="#000000" font-family="sans-serif" font-size="20" font-weight="bold" lengthAdjust="spacing" textLength="28" x="511.5" y="1857.502">38</text><text fill="#000000" font-family="sans-serif" font-size="20" lengthAdjust="spacing" textLength="176" x="543.5" y="1857.502">previousPostItDto</text><polygon fill="#181818" points="41.5,1897.5,31.5,1901.5,41.5,1905.5,37.5,1901.5" style="stroke:#181818;stroke-width:1.0;"/><line style="stroke:#181818;stroke-width:1.0;stroke-dasharray:2.0,2.0;" x1="35.5" x2="488.5" y1="1901.5" y2="1901.5"/><text fill="#000000" font-family="sans-serif" font-size="20" font-weight="bold" lengthAdjust="spacing" textLength="28" x="47.5" y="1894.7832">39</text><text fill="#000000" font-family="sans-serif" font-size="20" lengthAdjust="spacing" textLength="364" x="79.5" y="1894.7832">informs the success of the operation</text><!--SRC=[rLTDRzim3BtxLn2zj06MOjWnw0eqQGS4w90WQRQpQYk9K5io9Bb1z-j7VTYMRJdfZhl54jyZHJvIYdfZl2II5Bb8tsW66TsJAjS_1DTRzeV2jwy9gRJWLV5APPAGL0i9Lpj5vHKG1Ri4mPgbh2HSmzNsI2IT2oAptTBjB-7khfHKKQw9PeBVtuyX5kXIYZptp8kNpJDYILdcB8r2dvdI5gcsLBwpb5hSVFMmUTp-MY1MkUKORYsKNkeESBtQlYnVpYBDiNyIJWwqmFE4uDrsSnPfutJneL4c2i86vt4nkLX6ZIpHuylASU4FOwb5dAksMuTsIKOqUIMAWkNQq58eXbNzQBAtUJB-PRE1e0RZYBiWbxa8Ajd1zDveO0Od34k15b3nJ80-KiY9qf0U2JzG47iWW40zPTfeZBqJJH6OW44ZXrN333WztKnmiJ4nw_WDpW0Dc_BF8A_ruGi5tot-jNlgYOKtX3NUhbvZEmntElvyuMTGATdrKw4KHjquc5qBN3Ih7SVsZFrCcCCPEVwM32kJknPIDZdNdqkFYS-ZpC-9Ft4y4z0YQnPJxndi6SyUyZmIIalQJoyY_Nh8UpUTXiIsJChRzSjW6FnMBaG9UnnAQ79qg6J0RM96JYsm4MvIKKb59urLIzr6XUO6O_gcLTqGWFl1UXXbk1Ek-qNACnjvVGetxUeCk0856OZ9qAoRyOeWhua649UFDRNDIDIRxKL5SvfgR3sNjWuCcozeNsUf0jCpNMgq-OnRlltyhFqXHM5auXhmKOjBMcq7Cb9QkjNU4dQPbjaNgsLE2jhhieR1PxbbREXR5Rk8Q-xvnzoHZpaPk0bL7TmbcFFGK-cIuIqx6MzfejAkn-FGXpbCesxd8ABkeEVGt60kg7izgkxrYBhNbzGTbZJCn20BpPpjAhp5_BF4w_HzIkIjSK_cGmUfu7ic2tkb6MF1pxdmrgfhVgQNKiAVCkRVAxwud-uT9pcnNsRuN67weyNVicmmyFioxbKjr6-yQ8rqHQbjjm1Ja4fAp9iHhtYVLI0eZoE-6qvuOL0egIoOKfW9aqwJbt28DnUNouMvO-Z8rHAvAv8UYqt7YUFe63Pn4f6pNQCvldlgurYqESovG4TSH2Fq_JAuuCqxoLLzOTz8_qljmrGVg5vB-iv4XI-JMoqEXvmkbHkqD_rPFNnnHHWpR54Km33-95wxtlZmmQphL2HmOOmmZlFNjwkgqfGgLHTVe73j_vAar-tXP_8N]--></g></svg>