<?xml version="1.0" encoding="UTF-8" standalone="no"?><svg xmlns="http://www.w3.org/2000/svg" xmlns:xlink="http://www.w3.org/1999/xlink" contentStyleType="text/css" height="1918px" preserveAspectRatio="none" style="width:3142px;height:1918px;background:#FFFFFF;" version="1.1" viewBox="0 0 3142 1918" width="3142px" zoomAndPan="magnify"><defs/><g><rect fill="#FFFFFF" height="1668.119" style="stroke:#181818;stroke-width:1.0;" width="10" x="40" y="115.4799"/><rect fill="#FFFFFF" height="580.3596" style="stroke:#181818;stroke-width:1.0;" width="10" x="523.25" y="148.7199"/><rect fill="#FFFFFF" height="527.8797" style="stroke:#181818;stroke-width:1.0;" width="10" x="523.25" y="770.3195"/><rect fill="#FFFFFF" height="41.24" style="stroke:#181818;stroke-width:1.0;" width="10" x="523.25" y="1339.4392"/><rect fill="#FFFFFF" height="361.6798" style="stroke:#181818;stroke-width:1.0;" width="10" x="523.25" y="1421.9192"/><rect fill="#FFFFFF" height="82.4799" style="stroke:#181818;stroke-width:1.0;" width="10" x="1120.5" y="189.9599"/><rect fill="#FFFFFF" height="374.1598" style="stroke:#181818;stroke-width:1.0;" width="10" x="1120.5" y="313.6798"/><rect fill="#FFFFFF" height="445.3997" style="stroke:#181818;stroke-width:1.0;" width="10" x="1120.5" y="811.5595"/><rect fill="#FFFFFF" height="279.1999" style="stroke:#181818;stroke-width:1.0;" width="10" x="1120.5" y="1463.1591"/><rect fill="#FFFFFF" height="28" style="stroke:#181818;stroke-width:1.0;" width="10" x="1125.5" y="1583.6391"/><rect fill="#FFFFFF" height="362.9198" style="stroke:#181818;stroke-width:1.0;" width="10" x="1488.125" y="852.7995"/><rect fill="#FFFFFF" height="291.6798" style="stroke:#181818;stroke-width:1.0;" width="10" x="1691.625" y="354.9198"/><rect fill="#FFFFFF" height="71.24" style="stroke:#181818;stroke-width:1.0;" width="10" x="1872.25" y="527.1197"/><rect fill="#FFFFFF" height="30" style="stroke:#181818;stroke-width:1.0;" width="10" x="1994.75" y="568.3596"/><rect fill="#FFFFFF" height="30" style="stroke:#181818;stroke-width:1.0;" width="10" x="2121.25" y="1024.9994"/><rect fill="#FFFFFF" height="71.24" style="stroke:#181818;stroke-width:1.0;" width="10" x="2229.75" y="1096.2393"/><rect fill="#FFFFFF" height="30" style="stroke:#181818;stroke-width:1.0;" width="10" x="2346.75" y="1137.4793"/><rect fill="#FFFFFF" height="30" style="stroke:#181818;stroke-width:1.0;" width="10" x="2476.25" y="1504.3991"/><rect fill="#FFFFFF" height="41.24" style="stroke:#181818;stroke-width:1.0;" width="10" x="2627.25" y="396.1598"/><rect fill="#FFFFFF" height="41.24" style="stroke:#181818;stroke-width:1.0;" width="10" x="2823.75" y="894.0395"/><rect fill="#FFFFFF" height="41.24" style="stroke:#181818;stroke-width:1.0;" width="10" x="3035.75" y="1659.8791"/><rect fill="none" height="153.9599" style="stroke:#000000;stroke-width:1.5;" width="473.125" x="1597.625" y="452.3997"/><rect fill="none" height="225.1999" style="stroke:#000000;stroke-width:1.5;" width="1047.125" x="1378.625" y="950.2794"/><line style="stroke:#181818;stroke-width:0.5;stroke-dasharray:5.0,5.0;" x1="45" x2="45" y1="105.4799" y2="1801.599"/><line style="stroke:#181818;stroke-width:0.5;stroke-dasharray:5.0,5.0;" x1="527.75" x2="527.75" y1="105.4799" y2="1801.599"/><line style="stroke:#181818;stroke-width:0.5;stroke-dasharray:5.0,5.0;" x1="1125.5" x2="1125.5" y1="105.4799" y2="1801.599"/><line style="stroke:#181818;stroke-width:0.5;stroke-dasharray:5.0,5.0;" x1="1492.625" x2="1492.625" y1="105.4799" y2="1801.599"/><line style="stroke:#181818;stroke-width:0.5;stroke-dasharray:5.0,5.0;" x1="1696.625" x2="1696.625" y1="105.4799" y2="1801.599"/><line style="stroke:#181818;stroke-width:0.5;stroke-dasharray:5.0,5.0;" x1="1876.75" x2="1876.75" y1="105.4799" y2="1801.599"/><line style="stroke:#181818;stroke-width:0.5;stroke-dasharray:5.0,5.0;" x1="1999.75" x2="1999.75" y1="105.4799" y2="1801.599"/><line style="stroke:#181818;stroke-width:0.5;stroke-dasharray:5.0,5.0;" x1="2125.75" x2="2125.75" y1="105.4799" y2="1801.599"/><line style="stroke:#181818;stroke-width:0.5;stroke-dasharray:5.0,5.0;" x1="2234.75" x2="2234.75" y1="105.4799" y2="1801.599"/><line style="stroke:#181818;stroke-width:0.5;stroke-dasharray:5.0,5.0;" x1="2351.75" x2="2351.75" y1="105.4799" y2="1801.599"/><line style="stroke:#181818;stroke-width:0.5;stroke-dasharray:5.0,5.0;" x1="2480.75" x2="2480.75" y1="105.4799" y2="1801.599"/><line style="stroke:#181818;stroke-width:0.5;stroke-dasharray:5.0,5.0;" x1="2631.75" x2="2631.75" y1="105.4799" y2="1801.599"/><line style="stroke:#181818;stroke-width:0.5;stroke-dasharray:5.0,5.0;" x1="2828.75" x2="2828.75" y1="105.4799" y2="1801.599"/><line style="stroke:#181818;stroke-width:0.5;stroke-dasharray:5.0,5.0;" x1="3040.75" x2="3040.75" y1="105.4799" y2="1801.599"/><text fill="#000000" font-family="sans-serif" font-size="20" lengthAdjust="spacing" textLength="74" x="5" y="99.62">Teacher</text><ellipse cx="45" cy="26.74" fill="#E2E2F0" rx="8" ry="8" style="stroke:#181818;stroke-width:0.5;"/><path d="M45,34.74 L45,61.74 M32,42.74 L58,42.74 M45,61.74 L32,76.74 M45,61.74 L58,76.74 " fill="none" style="stroke:#181818;stroke-width:0.5;"/><text fill="#000000" font-family="sans-serif" font-size="20" lengthAdjust="spacing" textLength="74" x="5" y="1821.979">Teacher</text><ellipse cx="45" cy="1836.339" fill="#E2E2F0" rx="8" ry="8" style="stroke:#181818;stroke-width:0.5;"/><path d="M45,1844.339 L45,1871.339 M32,1852.339 L58,1852.339 M45,1871.339 L32,1886.339 M45,1871.339 L58,1886.339 " fill="none" style="stroke:#181818;stroke-width:0.5;"/><rect fill="#E2E2F0" height="68.4799" rx="2.5" ry="2.5" style="stroke:#181818;stroke-width:0.5;" width="217" x="419.75" y="36"/><text fill="#000000" font-family="sans-serif" font-size="20" font-style="italic" lengthAdjust="spacing" textLength="134" x="461.25" y="64.38">«presentation»</text><text fill="#000000" font-family="sans-serif" font-size="20" lengthAdjust="spacing" textLength="203" x="426.75" y="91.62">ScheduleExtraClassUI</text><rect fill="#E2E2F0" height="68.4799" rx="2.5" ry="2.5" style="stroke:#181818;stroke-width:0.5;" width="217" x="419.75" y="1800.599"/><text fill="#000000" font-family="sans-serif" font-size="20" font-style="italic" lengthAdjust="spacing" textLength="134" x="461.25" y="1828.979">«presentation»</text><text fill="#000000" font-family="sans-serif" font-size="20" lengthAdjust="spacing" textLength="203" x="426.75" y="1856.219">ScheduleExtraClassUI</text><rect fill="#E2E2F0" height="68.4799" rx="2.5" ry="2.5" style="stroke:#181818;stroke-width:0.5;" width="288" x="981.5" y="36"/><text fill="#000000" font-family="sans-serif" font-size="20" font-style="italic" lengthAdjust="spacing" textLength="120" x="1065.5" y="64.38">«application»</text><text fill="#000000" font-family="sans-serif" font-size="20" lengthAdjust="spacing" textLength="274" x="988.5" y="91.62">ScheduleExtraClassController</text><rect fill="#E2E2F0" height="68.4799" rx="2.5" ry="2.5" style="stroke:#181818;stroke-width:0.5;" width="288" x="981.5" y="1800.599"/><text fill="#000000" font-family="sans-serif" font-size="20" font-style="italic" lengthAdjust="spacing" textLength="120" x="1065.5" y="1828.979">«application»</text><text fill="#000000" font-family="sans-serif" font-size="20" lengthAdjust="spacing" textLength="274" x="988.5" y="1856.219">ScheduleExtraClassController</text><rect fill="#E2E2F0" height="68.4799" rx="2.5" ry="2.5" style="stroke:#181818;stroke-width:0.5;" width="209" x="1388.625" y="36"/><text fill="#000000" font-family="sans-serif" font-size="20" font-style="italic" lengthAdjust="spacing" textLength="80" x="1453.125" y="64.38">«service»</text><text fill="#000000" font-family="sans-serif" font-size="20" lengthAdjust="spacing" textLength="195" x="1395.625" y="91.62">ListEnrolmentService</text><rect fill="#E2E2F0" height="68.4799" rx="2.5" ry="2.5" style="stroke:#181818;stroke-width:0.5;" width="209" x="1388.625" y="1800.599"/><text fill="#000000" font-family="sans-serif" font-size="20" font-style="italic" lengthAdjust="spacing" textLength="80" x="1453.125" y="1828.979">«service»</text><text fill="#000000" font-family="sans-serif" font-size="20" lengthAdjust="spacing" textLength="195" x="1395.625" y="1856.219">ListEnrolmentService</text><rect fill="#E2E2F0" height="68.4799" rx="2.5" ry="2.5" style="stroke:#181818;stroke-width:0.5;" width="178" x="1607.625" y="36"/><text fill="#000000" font-family="sans-serif" font-size="20" font-style="italic" lengthAdjust="spacing" textLength="80" x="1656.625" y="64.38">«service»</text><text fill="#000000" font-family="sans-serif" font-size="20" lengthAdjust="spacing" textLength="164" x="1614.625" y="91.62">ListCourseService</text><rect fill="#E2E2F0" height="68.4799" rx="2.5" ry="2.5" style="stroke:#181818;stroke-width:0.5;" width="178" x="1607.625" y="1800.599"/><text fill="#000000" font-family="sans-serif" font-size="20" font-style="italic" lengthAdjust="spacing" textLength="80" x="1656.625" y="1828.979">«service»</text><text fill="#000000" font-family="sans-serif" font-size="20" lengthAdjust="spacing" textLength="164" x="1614.625" y="1856.219">ListCourseService</text><rect fill="#E2E2F0" height="68.4799" rx="2.5" ry="2.5" style="stroke:#181818;stroke-width:0.5;" width="103" x="1825.75" y="36"/><text fill="#000000" font-family="sans-serif" font-size="20" font-style="italic" lengthAdjust="spacing" textLength="89" x="1832.75" y="64.38">«domain»</text><text fill="#000000" font-family="sans-serif" font-size="20" lengthAdjust="spacing" textLength="66" x="1844.25" y="91.62">Course</text><rect fill="#E2E2F0" height="68.4799" rx="2.5" ry="2.5" style="stroke:#181818;stroke-width:0.5;" width="103" x="1825.75" y="1800.599"/><text fill="#000000" font-family="sans-serif" font-size="20" font-style="italic" lengthAdjust="spacing" textLength="89" x="1832.75" y="1828.979">«domain»</text><text fill="#000000" font-family="sans-serif" font-size="20" lengthAdjust="spacing" textLength="66" x="1844.25" y="1856.219">Course</text><rect fill="#E2E2F0" height="68.4799" rx="2.5" ry="2.5" style="stroke:#181818;stroke-width:0.5;" width="122" x="1938.75" y="36"/><text fill="#000000" font-family="sans-serif" font-size="20" font-style="italic" lengthAdjust="spacing" textLength="50" x="1974.75" y="64.38">«dto»</text><text fill="#000000" font-family="sans-serif" font-size="20" lengthAdjust="spacing" textLength="108" x="1945.75" y="91.62">CourseDTO</text><rect fill="#E2E2F0" height="68.4799" rx="2.5" ry="2.5" style="stroke:#181818;stroke-width:0.5;" width="122" x="1938.75" y="1800.599"/><text fill="#000000" font-family="sans-serif" font-size="20" font-style="italic" lengthAdjust="spacing" textLength="50" x="1974.75" y="1828.979">«dto»</text><text fill="#000000" font-family="sans-serif" font-size="20" lengthAdjust="spacing" textLength="108" x="1945.75" y="1856.219">CourseDTO</text><rect fill="#E2E2F0" height="68.4799" rx="2.5" ry="2.5" style="stroke:#181818;stroke-width:0.5;" width="111" x="2070.75" y="36"/><text fill="#000000" font-family="sans-serif" font-size="20" font-style="italic" lengthAdjust="spacing" textLength="89" x="2081.75" y="64.38">«domain»</text><text fill="#000000" font-family="sans-serif" font-size="20" lengthAdjust="spacing" textLength="97" x="2077.75" y="91.62">Enrolment</text><rect fill="#E2E2F0" height="68.4799" rx="2.5" ry="2.5" style="stroke:#181818;stroke-width:0.5;" width="111" x="2070.75" y="1800.599"/><text fill="#000000" font-family="sans-serif" font-size="20" font-style="italic" lengthAdjust="spacing" textLength="89" x="2081.75" y="1828.979">«domain»</text><text fill="#000000" font-family="sans-serif" font-size="20" lengthAdjust="spacing" textLength="97" x="2077.75" y="1856.219">Enrolment</text><rect fill="#E2E2F0" height="68.4799" rx="2.5" ry="2.5" style="stroke:#181818;stroke-width:0.5;" width="86" x="2191.75" y="36"/><text fill="#000000" font-family="sans-serif" font-size="20" font-style="italic" lengthAdjust="spacing" textLength="50" x="2209.75" y="64.38">«dto»</text><text fill="#000000" font-family="sans-serif" font-size="20" lengthAdjust="spacing" textLength="72" x="2198.75" y="91.62">Student</text><rect fill="#E2E2F0" height="68.4799" rx="2.5" ry="2.5" style="stroke:#181818;stroke-width:0.5;" width="86" x="2191.75" y="1800.599"/><text fill="#000000" font-family="sans-serif" font-size="20" font-style="italic" lengthAdjust="spacing" textLength="50" x="2209.75" y="1828.979">«dto»</text><text fill="#000000" font-family="sans-serif" font-size="20" lengthAdjust="spacing" textLength="72" x="2198.75" y="1856.219">Student</text><rect fill="#E2E2F0" height="68.4799" rx="2.5" ry="2.5" style="stroke:#181818;stroke-width:0.5;" width="128" x="2287.75" y="36"/><text fill="#000000" font-family="sans-serif" font-size="20" font-style="italic" lengthAdjust="spacing" textLength="50" x="2326.75" y="64.38">«dto»</text><text fill="#000000" font-family="sans-serif" font-size="20" lengthAdjust="spacing" textLength="114" x="2294.75" y="91.62">StudentDTO</text><rect fill="#E2E2F0" height="68.4799" rx="2.5" ry="2.5" style="stroke:#181818;stroke-width:0.5;" width="128" x="2287.75" y="1800.599"/><text fill="#000000" font-family="sans-serif" font-size="20" font-style="italic" lengthAdjust="spacing" textLength="50" x="2326.75" y="1828.979">«dto»</text><text fill="#000000" font-family="sans-serif" font-size="20" lengthAdjust="spacing" textLength="114" x="2294.75" y="1856.219">StudentDTO</text><rect fill="#E2E2F0" height="68.4799" rx="2.5" ry="2.5" style="stroke:#181818;stroke-width:0.5;" width="111" x="2425.75" y="36"/><text fill="#000000" font-family="sans-serif" font-size="20" font-style="italic" lengthAdjust="spacing" textLength="89" x="2436.75" y="64.38">«domain»</text><text fill="#000000" font-family="sans-serif" font-size="20" lengthAdjust="spacing" textLength="97" x="2432.75" y="91.62">ExtraClass</text><rect fill="#E2E2F0" height="68.4799" rx="2.5" ry="2.5" style="stroke:#181818;stroke-width:0.5;" width="111" x="2425.75" y="1800.599"/><text fill="#000000" font-family="sans-serif" font-size="20" font-style="italic" lengthAdjust="spacing" textLength="89" x="2436.75" y="1828.979">«domain»</text><text fill="#000000" font-family="sans-serif" font-size="20" lengthAdjust="spacing" textLength="97" x="2432.75" y="1856.219">ExtraClass</text><text fill="#000000" font-family="sans-serif" font-size="20" font-style="italic" lengthAdjust="spacing" textLength="110" x="2574.25" y="72.38">«repository»</text><text fill="#000000" font-family="sans-serif" font-size="20" lengthAdjust="spacing" textLength="165" x="2546.75" y="99.62">CourseRepository</text><path d="M2614.25,15 C2614.25,5 2632.25,5 2632.25,5 C2632.25,5 2650.25,5 2650.25,15 L2650.25,41 C2650.25,51 2632.25,51 2632.25,51 C2632.25,51 2614.25,51 2614.25,41 L2614.25,15 " fill="#E2E2F0" style="stroke:#181818;stroke-width:1.5;"/><path d="M2614.25,15 C2614.25,25 2632.25,25 2632.25,25 C2632.25,25 2650.25,25 2650.25,15 " fill="none" style="stroke:#181818;stroke-width:1.5;"/><text fill="#000000" font-family="sans-serif" font-size="20" font-style="italic" lengthAdjust="spacing" textLength="110" x="2574.25" y="1821.979">«repository»</text><text fill="#000000" font-family="sans-serif" font-size="20" lengthAdjust="spacing" textLength="165" x="2546.75" y="1849.219">CourseRepository</text><path d="M2614.25,1865.0789 C2614.25,1855.0789 2632.25,1855.0789 2632.25,1855.0789 C2632.25,1855.0789 2650.25,1855.0789 2650.25,1865.0789 L2650.25,1891.0789 C2650.25,1901.0789 2632.25,1901.0789 2632.25,1901.0789 C2632.25,1901.0789 2614.25,1901.0789 2614.25,1891.0789 L2614.25,1865.0789 " fill="#E2E2F0" style="stroke:#181818;stroke-width:1.5;"/><path d="M2614.25,1865.0789 C2614.25,1875.0789 2632.25,1875.0789 2632.25,1875.0789 C2632.25,1875.0789 2650.25,1875.0789 2650.25,1865.0789 " fill="none" style="stroke:#181818;stroke-width:1.5;"/><text fill="#000000" font-family="sans-serif" font-size="20" font-style="italic" lengthAdjust="spacing" textLength="110" x="2770.75" y="72.38">«repository»</text><text fill="#000000" font-family="sans-serif" font-size="20" lengthAdjust="spacing" textLength="196" x="2727.75" y="99.62">EnrolmentRepository</text><path d="M2810.75,15 C2810.75,5 2828.75,5 2828.75,5 C2828.75,5 2846.75,5 2846.75,15 L2846.75,41 C2846.75,51 2828.75,51 2828.75,51 C2828.75,51 2810.75,51 2810.75,41 L2810.75,15 " fill="#E2E2F0" style="stroke:#181818;stroke-width:1.5;"/><path d="M2810.75,15 C2810.75,25 2828.75,25 2828.75,25 C2828.75,25 2846.75,25 2846.75,15 " fill="none" style="stroke:#181818;stroke-width:1.5;"/><text fill="#000000" font-family="sans-serif" font-size="20" font-style="italic" lengthAdjust="spacing" textLength="110" x="2770.75" y="1821.979">«repository»</text><text fill="#000000" font-family="sans-serif" font-size="20" lengthAdjust="spacing" textLength="196" x="2727.75" y="1849.219">EnrolmentRepository</text><path d="M2810.75,1865.0789 C2810.75,1855.0789 2828.75,1855.0789 2828.75,1855.0789 C2828.75,1855.0789 2846.75,1855.0789 2846.75,1865.0789 L2846.75,1891.0789 C2846.75,1901.0789 2828.75,1901.0789 2828.75,1901.0789 C2828.75,1901.0789 2810.75,1901.0789 2810.75,1891.0789 L2810.75,1865.0789 " fill="#E2E2F0" style="stroke:#181818;stroke-width:1.5;"/><path d="M2810.75,1865.0789 C2810.75,1875.0789 2828.75,1875.0789 2828.75,1875.0789 C2828.75,1875.0789 2846.75,1875.0789 2846.75,1865.0789 " fill="none" style="stroke:#181818;stroke-width:1.5;"/><text fill="#000000" font-family="sans-serif" font-size="20" font-style="italic" lengthAdjust="spacing" textLength="110" x="2982.75" y="72.38">«repository»</text><text fill="#000000" font-family="sans-serif" font-size="20" lengthAdjust="spacing" textLength="196" x="2939.75" y="99.62">ExtraClassRepository</text><path d="M3022.75,15 C3022.75,5 3040.75,5 3040.75,5 C3040.75,5 3058.75,5 3058.75,15 L3058.75,41 C3058.75,51 3040.75,51 3040.75,51 C3040.75,51 3022.75,51 3022.75,41 L3022.75,15 " fill="#E2E2F0" style="stroke:#181818;stroke-width:1.5;"/><path d="M3022.75,15 C3022.75,25 3040.75,25 3040.75,25 C3040.75,25 3058.75,25 3058.75,15 " fill="none" style="stroke:#181818;stroke-width:1.5;"/><text fill="#000000" font-family="sans-serif" font-size="20" font-style="italic" lengthAdjust="spacing" textLength="110" x="2982.75" y="1821.979">«repository»</text><text fill="#000000" font-family="sans-serif" font-size="20" lengthAdjust="spacing" textLength="196" x="2939.75" y="1849.219">ExtraClassRepository</text><path d="M3022.75,1865.0789 C3022.75,1855.0789 3040.75,1855.0789 3040.75,1855.0789 C3040.75,1855.0789 3058.75,1855.0789 3058.75,1865.0789 L3058.75,1891.0789 C3058.75,1901.0789 3040.75,1901.0789 3040.75,1901.0789 C3040.75,1901.0789 3022.75,1901.0789 3022.75,1891.0789 L3022.75,1865.0789 " fill="#E2E2F0" style="stroke:#181818;stroke-width:1.5;"/><path d="M3022.75,1865.0789 C3022.75,1875.0789 3040.75,1875.0789 3040.75,1875.0789 C3040.75,1875.0789 3058.75,1875.0789 3058.75,1865.0789 " fill="none" style="stroke:#181818;stroke-width:1.5;"/><rect fill="#FFFFFF" height="1668.119" style="stroke:#181818;stroke-width:1.0;" width="10" x="40" y="115.4799"/><rect fill="#FFFFFF" height="580.3596" style="stroke:#181818;stroke-width:1.0;" width="10" x="523.25" y="148.7199"/><rect fill="#FFFFFF" height="527.8797" style="stroke:#181818;stroke-width:1.0;" width="10" x="523.25" y="770.3195"/><rect fill="#FFFFFF" height="41.24" style="stroke:#181818;stroke-width:1.0;" width="10" x="523.25" y="1339.4392"/><rect fill="#FFFFFF" height="361.6798" style="stroke:#181818;stroke-width:1.0;" width="10" x="523.25" y="1421.9192"/><rect fill="#FFFFFF" height="82.4799" style="stroke:#181818;stroke-width:1.0;" width="10" x="1120.5" y="189.9599"/><rect fill="#FFFFFF" height="374.1598" style="stroke:#181818;stroke-width:1.0;" width="10" x="1120.5" y="313.6798"/><rect fill="#FFFFFF" height="445.3997" style="stroke:#181818;stroke-width:1.0;" width="10" x="1120.5" y="811.5595"/><rect fill="#FFFFFF" height="279.1999" style="stroke:#181818;stroke-width:1.0;" width="10" x="1120.5" y="1463.1591"/><rect fill="#FFFFFF" height="28" style="stroke:#181818;stroke-width:1.0;" width="10" x="1125.5" y="1583.6391"/><rect fill="#FFFFFF" height="362.9198" style="stroke:#181818;stroke-width:1.0;" width="10" x="1488.125" y="852.7995"/><rect fill="#FFFFFF" height="291.6798" style="stroke:#181818;stroke-width:1.0;" width="10" x="1691.625" y="354.9198"/><rect fill="#FFFFFF" height="71.24" style="stroke:#181818;stroke-width:1.0;" width="10" x="1872.25" y="527.1197"/><rect fill="#FFFFFF" height="30" style="stroke:#181818;stroke-width:1.0;" width="10" x="1994.75" y="568.3596"/><rect fill="#FFFFFF" height="30" style="stroke:#181818;stroke-width:1.0;" width="10" x="2121.25" y="1024.9994"/><rect fill="#FFFFFF" height="71.24" style="stroke:#181818;stroke-width:1.0;" width="10" x="2229.75" y="1096.2393"/><rect fill="#FFFFFF" height="30" style="stroke:#181818;stroke-width:1.0;" width="10" x="2346.75" y="1137.4793"/><rect fill="#FFFFFF" height="30" style="stroke:#181818;stroke-width:1.0;" width="10" x="2476.25" y="1504.3991"/><rect fill="#FFFFFF" height="41.24" style="stroke:#181818;stroke-width:1.0;" width="10" x="2627.25" y="396.1598"/><rect fill="#FFFFFF" height="41.24" style="stroke:#181818;stroke-width:1.0;" width="10" x="2823.75" y="894.0395"/><rect fill="#FFFFFF" height="41.24" style="stroke:#181818;stroke-width:1.0;" width="10" x="3035.75" y="1659.8791"/><polygon fill="#181818" points="511.25,144.7199,521.25,148.7199,511.25,152.7199,515.25,148.7199" style="stroke:#181818;stroke-width:1.0;"/><line style="stroke:#181818;stroke-width:1.0;" x1="50" x2="517.25" y1="148.7199" y2="148.7199"/><text fill="#000000" font-family="sans-serif" font-size="20" font-weight="bold" lengthAdjust="spacing" textLength="11.625" x="57" y="140.8599">1</text><text fill="#000000" font-family="sans-serif" font-size="20" lengthAdjust="spacing" textLength="286" x="72.625" y="140.8599">asks to schedule an extra class</text><polygon fill="#181818" points="1108.5,185.9599,1118.5,189.9599,1108.5,193.9599,1112.5,189.9599" style="stroke:#181818;stroke-width:1.0;"/><line style="stroke:#181818;stroke-width:1.0;" x1="533.25" x2="1114.5" y1="189.9599" y2="189.9599"/><text fill="#000000" font-family="sans-serif" font-size="20" font-weight="bold" lengthAdjust="spacing" textLength="11.625" x="540.25" y="182.0999">2</text><text fill="#000000" font-family="sans-serif" font-size="20" lengthAdjust="spacing" textLength="419" x="555.875" y="182.0999">new(courseRepository, enrolmentRepository)</text><polygon fill="#181818" points="1684.625,227.1999,1694.625,231.1999,1684.625,235.1999,1688.625,231.1999" style="stroke:#181818;stroke-width:1.0;"/><line style="stroke:#181818;stroke-width:1.0;" x1="1130.5" x2="1690.625" y1="231.1999" y2="231.1999"/><text fill="#000000" font-family="sans-serif" font-size="20" font-weight="bold" lengthAdjust="spacing" textLength="11.625" x="1137.5" y="223.3399">3</text><text fill="#000000" font-family="sans-serif" font-size="20" lengthAdjust="spacing" textLength="289" x="1153.125" y="223.3399">service=new(courseRepository)</text><polygon fill="#181818" points="1481.125,268.4398,1491.125,272.4398,1481.125,276.4398,1485.125,272.4398" style="stroke:#181818;stroke-width:1.0;"/><line style="stroke:#181818;stroke-width:1.0;" x1="1125.5" x2="1487.125" y1="272.4398" y2="272.4398"/><text fill="#000000" font-family="sans-serif" font-size="20" font-weight="bold" lengthAdjust="spacing" textLength="11.625" x="1132.5" y="264.5799">4</text><text fill="#000000" font-family="sans-serif" font-size="20" lengthAdjust="spacing" textLength="323" x="1148.125" y="264.5799">service=new(enrolmentRepository)</text><polygon fill="#181818" points="1108.5,309.6798,1118.5,313.6798,1108.5,317.6798,1112.5,313.6798" style="stroke:#181818;stroke-width:1.0;"/><line style="stroke:#181818;stroke-width:1.0;" x1="533.25" x2="1114.5" y1="313.6798" y2="313.6798"/><text fill="#000000" font-family="sans-serif" font-size="20" font-weight="bold" lengthAdjust="spacing" textLength="11.625" x="540.25" y="305.8198">5</text><text fill="#000000" font-family="sans-serif" font-size="20" lengthAdjust="spacing" textLength="342" x="555.875" y="305.8198">listAllInProgressLecturedByTeacher()</text><polygon fill="#181818" points="1679.625,350.9198,1689.625,354.9198,1679.625,358.9198,1683.625,354.9198" style="stroke:#181818;stroke-width:1.0;"/><line style="stroke:#181818;stroke-width:1.0;" x1="1130.5" x2="1685.625" y1="354.9198" y2="354.9198"/><text fill="#000000" font-family="sans-serif" font-size="20" font-weight="bold" lengthAdjust="spacing" textLength="11.625" x="1137.5" y="347.0598">6</text><text fill="#000000" font-family="sans-serif" font-size="20" lengthAdjust="spacing" textLength="412" x="1153.125" y="347.0598">listAllInProgressLecturedByTeacher(teacher)</text><polygon fill="#181818" points="2615.25,392.1598,2625.25,396.1598,2615.25,400.1598,2619.25,396.1598" style="stroke:#181818;stroke-width:1.0;"/><line style="stroke:#181818;stroke-width:1.0;" x1="1701.625" x2="2621.25" y1="396.1598" y2="396.1598"/><text fill="#000000" font-family="sans-serif" font-size="20" font-weight="bold" lengthAdjust="spacing" textLength="11.625" x="1708.625" y="388.2998">7</text><text fill="#000000" font-family="sans-serif" font-size="20" lengthAdjust="spacing" textLength="421" x="1724.25" y="388.2998">findAllInProgressLecturedByTeacher(teacher)</text><polygon fill="#181818" points="1712.625,433.3997,1702.625,437.3997,1712.625,441.3997,1708.625,437.3997" style="stroke:#181818;stroke-width:1.0;"/><line style="stroke:#181818;stroke-width:1.0;stroke-dasharray:2.0,2.0;" x1="1706.625" x2="2631.25" y1="437.3997" y2="437.3997"/><text fill="#000000" font-family="sans-serif" font-size="20" font-weight="bold" lengthAdjust="spacing" textLength="11.625" x="1718.625" y="429.5398">8</text><text fill="#000000" font-family="sans-serif" font-size="20" lengthAdjust="spacing" textLength="73" x="1734.25" y="429.5398">courses</text><path d="M1597.625,452.3997 L1686.125,452.3997 L1686.125,471.6397 L1676.125,481.6397 L1597.625,481.6397 L1597.625,452.3997 " fill="#EEEEEE" style="stroke:#000000;stroke-width:1.5;"/><rect fill="none" height="153.9599" style="stroke:#000000;stroke-width:1.5;" width="473.125" x="1597.625" y="452.3997"/><text fill="#000000" font-family="sans-serif" font-size="20" font-weight="bold" lengthAdjust="spacing" textLength="43.5" x="1612.625" y="474.7797">loop</text><text fill="#000000" font-family="sans-serif" font-size="20" font-weight="bold" lengthAdjust="spacing" textLength="167.375" x="1701.125" y="475.7797">[for each course]</text><polygon fill="#181818" points="1860.25,523.1197,1870.25,527.1197,1860.25,531.1197,1864.25,527.1197" style="stroke:#181818;stroke-width:1.0;"/><line style="stroke:#181818;stroke-width:1.0;" x1="1701.625" x2="1866.25" y1="527.1197" y2="527.1197"/><text fill="#000000" font-family="sans-serif" font-size="20" font-weight="bold" lengthAdjust="spacing" textLength="11.625" x="1708.625" y="519.2597">9</text><text fill="#000000" font-family="sans-serif" font-size="20" lengthAdjust="spacing" textLength="136" x="1724.25" y="519.2597">toDTO(course)</text><polygon fill="#181818" points="1982.75,564.3596,1992.75,568.3596,1982.75,572.3596,1986.75,568.3596" style="stroke:#181818;stroke-width:1.0;"/><line style="stroke:#181818;stroke-width:1.0;" x1="1882.25" x2="1988.75" y1="568.3596" y2="568.3596"/><text fill="#000000" font-family="sans-serif" font-size="20" font-weight="bold" lengthAdjust="spacing" textLength="23.25" x="1889.25" y="560.4997">10</text><text fill="#000000" font-family="sans-serif" font-size="20" lengthAdjust="spacing" textLength="51" x="1916.5" y="560.4997">new()</text><polygon fill="#181818" points="1141.5,642.5996,1131.5,646.5996,1141.5,650.5996,1137.5,646.5996" style="stroke:#181818;stroke-width:1.0;"/><line style="stroke:#181818;stroke-width:1.0;stroke-dasharray:2.0,2.0;" x1="1135.5" x2="1695.625" y1="646.5996" y2="646.5996"/><text fill="#000000" font-family="sans-serif" font-size="20" font-weight="bold" lengthAdjust="spacing" textLength="23.25" x="1147.5" y="638.7396">11</text><text fill="#000000" font-family="sans-serif" font-size="20" lengthAdjust="spacing" textLength="73" x="1174.75" y="638.7396">courses</text><polygon fill="#181818" points="544.25,683.8396,534.25,687.8396,544.25,691.8396,540.25,687.8396" style="stroke:#181818;stroke-width:1.0;"/><line style="stroke:#181818;stroke-width:1.0;stroke-dasharray:2.0,2.0;" x1="538.25" x2="1124.5" y1="687.8396" y2="687.8396"/><text fill="#000000" font-family="sans-serif" font-size="20" font-weight="bold" lengthAdjust="spacing" textLength="23.25" x="550.25" y="679.9796">12</text><text fill="#000000" font-family="sans-serif" font-size="20" lengthAdjust="spacing" textLength="73" x="577.5" y="679.9796">courses</text><polygon fill="#181818" points="61,725.0796,51,729.0796,61,733.0796,57,729.0796" style="stroke:#181818;stroke-width:1.0;"/><line style="stroke:#181818;stroke-width:1.0;stroke-dasharray:2.0,2.0;" x1="55" x2="527.25" y1="729.0796" y2="729.0796"/><text fill="#000000" font-family="sans-serif" font-size="20" font-weight="bold" lengthAdjust="spacing" textLength="23.25" x="67" y="721.2196">13</text><text fill="#000000" font-family="sans-serif" font-size="20" lengthAdjust="spacing" textLength="228" x="94.25" y="721.2196">asks to select the course</text><polygon fill="#181818" points="511.25,766.3195,521.25,770.3195,511.25,774.3195,515.25,770.3195" style="stroke:#181818;stroke-width:1.0;"/><line style="stroke:#181818;stroke-width:1.0;" x1="50" x2="517.25" y1="770.3195" y2="770.3195"/><text fill="#000000" font-family="sans-serif" font-size="20" font-weight="bold" lengthAdjust="spacing" textLength="23.25" x="57" y="762.4596">14</text><text fill="#000000" font-family="sans-serif" font-size="20" lengthAdjust="spacing" textLength="167" x="84.25" y="762.4596">selects the course</text><polygon fill="#181818" points="1108.5,807.5595,1118.5,811.5595,1108.5,815.5595,1112.5,811.5595" style="stroke:#181818;stroke-width:1.0;"/><line style="stroke:#181818;stroke-width:1.0;" x1="533.25" x2="1114.5" y1="811.5595" y2="811.5595"/><text fill="#000000" font-family="sans-serif" font-size="20" font-weight="bold" lengthAdjust="spacing" textLength="23.25" x="540.25" y="803.6995">15</text><text fill="#000000" font-family="sans-serif" font-size="20" lengthAdjust="spacing" textLength="260" x="567.5" y="803.6995">listStudentsEnrolled(course)</text><polygon fill="#181818" points="1476.125,848.7995,1486.125,852.7995,1476.125,856.7995,1480.125,852.7995" style="stroke:#181818;stroke-width:1.0;"/><line style="stroke:#181818;stroke-width:1.0;" x1="1130.5" x2="1482.125" y1="852.7995" y2="852.7995"/><text fill="#000000" font-family="sans-serif" font-size="20" font-weight="bold" lengthAdjust="spacing" textLength="23.25" x="1137.5" y="844.9395">16</text><text fill="#000000" font-family="sans-serif" font-size="20" lengthAdjust="spacing" textLength="260" x="1164.75" y="844.9395">listStudentsEnrolled(course)</text><polygon fill="#181818" points="2811.75,890.0395,2821.75,894.0395,2811.75,898.0395,2815.75,894.0395" style="stroke:#181818;stroke-width:1.0;"/><line style="stroke:#181818;stroke-width:1.0;" x1="1498.125" x2="2817.75" y1="894.0395" y2="894.0395"/><text fill="#000000" font-family="sans-serif" font-size="20" font-weight="bold" lengthAdjust="spacing" textLength="23.25" x="1505.125" y="886.1795">17</text><text fill="#000000" font-family="sans-serif" font-size="20" lengthAdjust="spacing" textLength="263" x="1532.375" y="886.1795">findCourseAccepted(course)</text><polygon fill="#181818" points="1509.125,931.2794,1499.125,935.2794,1509.125,939.2794,1505.125,935.2794" style="stroke:#181818;stroke-width:1.0;"/><line style="stroke:#181818;stroke-width:1.0;stroke-dasharray:2.0,2.0;" x1="1503.125" x2="2827.75" y1="935.2794" y2="935.2794"/><text fill="#000000" font-family="sans-serif" font-size="20" font-weight="bold" lengthAdjust="spacing" textLength="23.25" x="1515.125" y="927.4195">18</text><text fill="#000000" font-family="sans-serif" font-size="20" lengthAdjust="spacing" textLength="107" x="1542.375" y="927.4195">enrolments</text><path d="M1378.625,950.2794 L1467.125,950.2794 L1467.125,969.5194 L1457.125,979.5194 L1378.625,979.5194 L1378.625,950.2794 " fill="#EEEEEE" style="stroke:#000000;stroke-width:1.5;"/><rect fill="none" height="225.1999" style="stroke:#000000;stroke-width:1.5;" width="1047.125" x="1378.625" y="950.2794"/><text fill="#000000" font-family="sans-serif" font-size="20" font-weight="bold" lengthAdjust="spacing" textLength="43.5" x="1393.625" y="972.6594">loop</text><text fill="#000000" font-family="sans-serif" font-size="20" font-weight="bold" lengthAdjust="spacing" textLength="203.25" x="1482.125" y="973.6594">[for each enrolment]</text><polygon fill="#181818" points="2109.25,1020.9994,2119.25,1024.9994,2109.25,1028.9994,2113.25,1024.9994" style="stroke:#181818;stroke-width:1.0;"/><line style="stroke:#181818;stroke-width:1.0;" x1="1498.125" x2="2115.25" y1="1024.9994" y2="1024.9994"/><text fill="#000000" font-family="sans-serif" font-size="20" font-weight="bold" lengthAdjust="spacing" textLength="23.25" x="1505.125" y="1017.1394">19</text><text fill="#000000" font-family="sans-serif" font-size="20" lengthAdjust="spacing" textLength="83" x="1532.375" y="1017.1394">student()</text><polygon fill="#181818" points="2217.75,1092.2393,2227.75,1096.2393,2217.75,1100.2393,2221.75,1096.2393" style="stroke:#181818;stroke-width:1.0;"/><line style="stroke:#181818;stroke-width:1.0;" x1="1498.125" x2="2223.75" y1="1096.2393" y2="1096.2393"/><text fill="#000000" font-family="sans-serif" font-size="20" font-weight="bold" lengthAdjust="spacing" textLength="23.25" x="1505.125" y="1088.3794">20</text><text fill="#000000" font-family="sans-serif" font-size="20" lengthAdjust="spacing" textLength="144" x="1532.375" y="1088.3794">toDTO(student)</text><polygon fill="#181818" points="2334.75,1133.4793,2344.75,1137.4793,2334.75,1141.4793,2338.75,1137.4793" style="stroke:#181818;stroke-width:1.0;"/><line style="stroke:#181818;stroke-width:1.0;" x1="2239.75" x2="2340.75" y1="1137.4793" y2="1137.4793"/><text fill="#000000" font-family="sans-serif" font-size="20" font-weight="bold" lengthAdjust="spacing" textLength="23.25" x="2246.75" y="1129.6193">21</text><text fill="#000000" font-family="sans-serif" font-size="20" lengthAdjust="spacing" textLength="51" x="2274" y="1129.6193">new()</text><polygon fill="#181818" points="1141.5,1211.7193,1131.5,1215.7193,1141.5,1219.7193,1137.5,1215.7193" style="stroke:#181818;stroke-width:1.0;"/><line style="stroke:#181818;stroke-width:1.0;stroke-dasharray:2.0,2.0;" x1="1135.5" x2="1492.125" y1="1215.7193" y2="1215.7193"/><text fill="#000000" font-family="sans-serif" font-size="20" font-weight="bold" lengthAdjust="spacing" textLength="23.25" x="1147.5" y="1207.8593">22</text><text fill="#000000" font-family="sans-serif" font-size="20" lengthAdjust="spacing" textLength="81" x="1174.75" y="1207.8593">students</text><polygon fill="#181818" points="544.25,1252.9593,534.25,1256.9593,544.25,1260.9593,540.25,1256.9593" style="stroke:#181818;stroke-width:1.0;"/><line style="stroke:#181818;stroke-width:1.0;stroke-dasharray:2.0,2.0;" x1="538.25" x2="1124.5" y1="1256.9593" y2="1256.9593"/><text fill="#000000" font-family="sans-serif" font-size="20" font-weight="bold" lengthAdjust="spacing" textLength="23.25" x="550.25" y="1249.0993">23</text><text fill="#000000" font-family="sans-serif" font-size="20" lengthAdjust="spacing" textLength="81" x="577.5" y="1249.0993">students</text><polygon fill="#181818" points="61,1294.1992,51,1298.1992,61,1302.1992,57,1298.1992" style="stroke:#181818;stroke-width:1.0;"/><line style="stroke:#181818;stroke-width:1.0;stroke-dasharray:2.0,2.0;" x1="55" x2="527.25" y1="1298.1992" y2="1298.1992"/><text fill="#000000" font-family="sans-serif" font-size="20" font-weight="bold" lengthAdjust="spacing" textLength="23.25" x="67" y="1290.3393">24</text><text fill="#000000" font-family="sans-serif" font-size="20" lengthAdjust="spacing" textLength="295" x="94.25" y="1290.3393">asks to select the users to invite</text><polygon fill="#181818" points="511.25,1335.4392,521.25,1339.4392,511.25,1343.4392,515.25,1339.4392" style="stroke:#181818;stroke-width:1.0;"/><line style="stroke:#181818;stroke-width:1.0;" x1="50" x2="517.25" y1="1339.4392" y2="1339.4392"/><text fill="#000000" font-family="sans-serif" font-size="20" font-weight="bold" lengthAdjust="spacing" textLength="23.25" x="57" y="1331.5792">25</text><text fill="#000000" font-family="sans-serif" font-size="20" lengthAdjust="spacing" textLength="155" x="84.25" y="1331.5792">selects the users</text><polygon fill="#181818" points="61,1376.6792,51,1380.6792,61,1384.6792,57,1380.6792" style="stroke:#181818;stroke-width:1.0;"/><line style="stroke:#181818;stroke-width:1.0;stroke-dasharray:2.0,2.0;" x1="55" x2="527.25" y1="1380.6792" y2="1380.6792"/><text fill="#000000" font-family="sans-serif" font-size="20" font-weight="bold" lengthAdjust="spacing" textLength="23.25" x="67" y="1372.8192">26</text><text fill="#000000" font-family="sans-serif" font-size="20" lengthAdjust="spacing" textLength="422" x="94.25" y="1372.8192">asks to enter the date/time start and duration</text><polygon fill="#181818" points="511.25,1417.9192,521.25,1421.9192,511.25,1425.9192,515.25,1421.9192" style="stroke:#181818;stroke-width:1.0;"/><line style="stroke:#181818;stroke-width:1.0;" x1="50" x2="517.25" y1="1421.9192" y2="1421.9192"/><text fill="#000000" font-family="sans-serif" font-size="20" font-weight="bold" lengthAdjust="spacing" textLength="23.25" x="57" y="1414.0592">27</text><text fill="#000000" font-family="sans-serif" font-size="20" lengthAdjust="spacing" textLength="361" x="84.25" y="1414.0592">enters the date/time start and duration</text><polygon fill="#181818" points="1108.5,1459.1591,1118.5,1463.1591,1108.5,1467.1591,1112.5,1463.1591" style="stroke:#181818;stroke-width:1.0;"/><line style="stroke:#181818;stroke-width:1.0;" x1="533.25" x2="1114.5" y1="1463.1591" y2="1463.1591"/><text fill="#000000" font-family="sans-serif" font-size="20" font-weight="bold" lengthAdjust="spacing" textLength="23.25" x="540.25" y="1455.2992">28</text><text fill="#000000" font-family="sans-serif" font-size="20" lengthAdjust="spacing" textLength="541" x="567.5" y="1455.2992">createExtraClass(course, teacher, date, duration, students)</text><polygon fill="#181818" points="2464.25,1500.3991,2474.25,1504.3991,2464.25,1508.3991,2468.25,1504.3991" style="stroke:#181818;stroke-width:1.0;"/><line style="stroke:#181818;stroke-width:1.0;" x1="1130.5" x2="2470.25" y1="1504.3991" y2="1504.3991"/><text fill="#000000" font-family="sans-serif" font-size="20" font-weight="bold" lengthAdjust="spacing" textLength="23.25" x="1137.5" y="1496.5391">29</text><text fill="#000000" font-family="sans-serif" font-size="20" lengthAdjust="spacing" textLength="426" x="1164.75" y="1496.5391">new(course, teacher, time, duration, students)</text><line style="stroke:#181818;stroke-width:1.0;" x1="1135.5" x2="1177.5" y1="1575.6391" y2="1575.6391"/><line style="stroke:#181818;stroke-width:1.0;" x1="1177.5" x2="1177.5" y1="1575.6391" y2="1588.6391"/><line style="stroke:#181818;stroke-width:1.0;" x1="1136.5" x2="1177.5" y1="1588.6391" y2="1588.6391"/><polygon fill="#181818" points="1146.5,1584.6391,1136.5,1588.6391,1146.5,1592.6391,1142.5,1588.6391" style="stroke:#181818;stroke-width:1.0;"/><text fill="#000000" font-family="sans-serif" font-size="20" font-weight="bold" lengthAdjust="spacing" textLength="23.25" x="1142.5" y="1567.7791">30</text><text fill="#000000" font-family="sans-serif" font-size="20" lengthAdjust="spacing" textLength="151" x="1169.75" y="1567.7791">save(extraClass)</text><polygon fill="#181818" points="3023.75,1655.8791,3033.75,1659.8791,3023.75,1663.8791,3027.75,1659.8791" style="stroke:#181818;stroke-width:1.0;"/><line style="stroke:#181818;stroke-width:1.0;" x1="1130.5" x2="3029.75" y1="1659.8791" y2="1659.8791"/><text fill="#000000" font-family="sans-serif" font-size="20" font-weight="bold" lengthAdjust="spacing" textLength="23.25" x="1137.5" y="1652.0191">31</text><text fill="#000000" font-family="sans-serif" font-size="20" lengthAdjust="spacing" textLength="151" x="1164.75" y="1652.0191">save(extraClass)</text><polygon fill="#181818" points="1141.5,1697.119,1131.5,1701.119,1141.5,1705.119,1137.5,1701.119" style="stroke:#181818;stroke-width:1.0;"/><line style="stroke:#181818;stroke-width:1.0;stroke-dasharray:2.0,2.0;" x1="1135.5" x2="3039.75" y1="1701.119" y2="1701.119"/><text fill="#000000" font-family="sans-serif" font-size="20" font-weight="bold" lengthAdjust="spacing" textLength="23.25" x="1147.5" y="1693.2591">32</text><text fill="#000000" font-family="sans-serif" font-size="20" lengthAdjust="spacing" textLength="97" x="1174.75" y="1693.2591">extraClass</text><polygon fill="#181818" points="544.25,1738.359,534.25,1742.359,544.25,1746.359,540.25,1742.359" style="stroke:#181818;stroke-width:1.0;"/><line style="stroke:#181818;stroke-width:1.0;stroke-dasharray:2.0,2.0;" x1="538.25" x2="1124.5" y1="1742.359" y2="1742.359"/><text fill="#000000" font-family="sans-serif" font-size="20" font-weight="bold" lengthAdjust="spacing" textLength="23.25" x="550.25" y="1734.499">33</text><text fill="#000000" font-family="sans-serif" font-size="20" lengthAdjust="spacing" textLength="63" x="577.5" y="1734.499">sucess</text><polygon fill="#181818" points="56,1779.599,46,1783.599,56,1787.599,52,1783.599" style="stroke:#181818;stroke-width:1.0;"/><line style="stroke:#181818;stroke-width:1.0;stroke-dasharray:2.0,2.0;" x1="50" x2="527.25" y1="1783.599" y2="1783.599"/><text fill="#000000" font-family="sans-serif" font-size="20" font-weight="bold" lengthAdjust="spacing" textLength="23.25" x="62" y="1775.739">34</text><text fill="#000000" font-family="sans-serif" font-size="20" lengthAdjust="spacing" textLength="246" x="89.25" y="1775.739">informs operation success</text><!--SRC=[bLRBRjim4BppAuYS4i11YnwDD43Yie2100qik_2LaJOD4PaKICfj-lLTFao9UiJfoHOzCplS7L8shq8sNFD3hSfNg6W5pxojxNSbRI7-0ltocV3MAjaUda0JmakhDBtO0YzVG5zGRkYM8D-AKZHSMdfHu0zLMmFxOpLVrToOtThZTcjwSzDeC20jjqB9szjpp1MwqAgkOwNLTlE06hnfQb5EIZm8Ovb4oW6B5A2FeWHFPSNc9r9DM9gYhLIh3VGvgtSv0H-0YAhKWGiv3Vgs_H5m-CL1hHhYakTWTbQli6rrGXNJKX5ogbdCrqnj3aNt_Qg4LDpo9sw0XZrie556uF3V_4usx17XEYqY9H7IPd8EUvUJp0n8-mcMIw4uSWkOFRAbrxSkMqk4lnfg5JKnHvHB2awNbawuO-tMX203UJvHIohXzsKvsEQ2mdWVLvs8enBFTpekAaiQe_9rIkygWTaOF5cgWhnOxhd6pDxLzLe-QlKBJvLvWDAs6ghxjtWwBy-u_O223Pzz8UGIB-24t72Mz5d8wl-5a4kym7LdAJJDP5jtE58hrT1dl7gSJeGHIfCHv5g5KOzjlyBVEWK7z2Xt5iAqSm2kutE_w7Y5WAoeiq7YzhjHJBdsRVBzFiLp2fN6Yg1jFy9GOmkfVO7JNdii5zykzG5g-jZveBkHnml2-6DQGvLQDXqMreNbFDE12Oj3OLqwmXroLvRGs4cU6p8xXI6MJ8SYwncRo4D2uinITTURO3YVDii7oqYFLAGSHMh6BF2XyB2P81MZs1I3nn60zNB51hcA7lBjZuCr1Vj8ibgyWVoQa4TXFnWnJyeIjbiFQw0Pq1wDzpjyik80Q1BVFNWZup-CLljtztmzppVd1N8NlPYN6d2vUwV4m2rel8OMNdUHb1QfXxEdO9-z9dfApjmP9RRF9hZlBk8uPtw4IqXkXnw6O-qyXGCsJ_S84d2zN7NOt9U_aVDejIMOSR2waGk9X_1Wg6eWDC1HXXmttTxZblm3]--></g></svg>