<?xml version="1.0" encoding="UTF-8" standalone="no"?><svg xmlns="http://www.w3.org/2000/svg" xmlns:xlink="http://www.w3.org/1999/xlink" contentStyleType="text/css" height="1918px" preserveAspectRatio="none" style="width:3242px;height:1918px;background:#FFFFFF;" version="1.1" viewBox="0 0 3242 1918" width="3242px" zoomAndPan="magnify"><defs/><g><rect fill="#FFFFFF" height="1668.119" style="stroke:#181818;stroke-width:1.0;" width="10" x="41.5" y="115.4799"/><rect fill="#FFFFFF" height="580.3596" style="stroke:#181818;stroke-width:1.0;" width="10" x="545.75" y="148.7199"/><rect fill="#FFFFFF" height="527.8797" style="stroke:#181818;stroke-width:1.0;" width="10" x="545.75" y="770.3195"/><rect fill="#FFFFFF" height="41.24" style="stroke:#181818;stroke-width:1.0;" width="10" x="545.75" y="1339.4392"/><rect fill="#FFFFFF" height="361.6798" style="stroke:#181818;stroke-width:1.0;" width="10" x="545.75" y="1421.9192"/><rect fill="#FFFFFF" height="82.4799" style="stroke:#181818;stroke-width:1.0;" width="10" x="1162" y="189.9599"/><rect fill="#FFFFFF" height="374.1598" style="stroke:#181818;stroke-width:1.0;" width="10" x="1162" y="313.6798"/><rect fill="#FFFFFF" height="445.3997" style="stroke:#181818;stroke-width:1.0;" width="10" x="1162" y="811.5595"/><rect fill="#FFFFFF" height="279.1999" style="stroke:#181818;stroke-width:1.0;" width="10" x="1162" y="1463.1591"/><rect fill="#FFFFFF" height="28" style="stroke:#181818;stroke-width:1.0;" width="10" x="1167" y="1583.6391"/><rect fill="#FFFFFF" height="362.9198" style="stroke:#181818;stroke-width:1.0;" width="10" x="1540.625" y="852.7995"/><rect fill="#FFFFFF" height="291.6798" style="stroke:#181818;stroke-width:1.0;" width="10" x="1751.125" y="354.9198"/><rect fill="#FFFFFF" height="71.24" style="stroke:#181818;stroke-width:1.0;" width="10" x="1933.75" y="527.1197"/><rect fill="#FFFFFF" height="30" style="stroke:#181818;stroke-width:1.0;" width="10" x="2056.75" y="568.3596"/><rect fill="#FFFFFF" height="30" style="stroke:#181818;stroke-width:1.0;" width="10" x="2186.25" y="1024.9994"/><rect fill="#FFFFFF" height="71.24" style="stroke:#181818;stroke-width:1.0;" width="10" x="2299.75" y="1096.2393"/><rect fill="#FFFFFF" height="30" style="stroke:#181818;stroke-width:1.0;" width="10" x="2421.75" y="1137.4793"/><rect fill="#FFFFFF" height="30" style="stroke:#181818;stroke-width:1.0;" width="10" x="2554.75" y="1504.3991"/><rect fill="#FFFFFF" height="41.24" style="stroke:#181818;stroke-width:1.0;" width="10" x="2709.25" y="396.1598"/><rect fill="#FFFFFF" height="41.24" style="stroke:#181818;stroke-width:1.0;" width="10" x="2912.75" y="894.0395"/><rect fill="#FFFFFF" height="41.24" style="stroke:#181818;stroke-width:1.0;" width="10" x="3132.25" y="1659.8791"/><rect fill="none" height="153.9599" style="stroke:#000000;stroke-width:1.5;" width="478.625" x="1654.625" y="452.3997"/><rect fill="none" height="225.1999" style="stroke:#000000;stroke-width:1.5;" width="1076.625" x="1426.625" y="950.2794"/><line style="stroke:#181818;stroke-width:0.5;stroke-dasharray:5.0,5.0;" x1="46" x2="46" y1="105.4799" y2="1801.599"/><line style="stroke:#181818;stroke-width:0.5;stroke-dasharray:5.0,5.0;" x1="550.75" x2="550.75" y1="105.4799" y2="1801.599"/><line style="stroke:#181818;stroke-width:0.5;stroke-dasharray:5.0,5.0;" x1="1167" x2="1167" y1="105.4799" y2="1801.599"/><line style="stroke:#181818;stroke-width:0.5;stroke-dasharray:5.0,5.0;" x1="1545.625" x2="1545.625" y1="105.4799" y2="1801.599"/><line style="stroke:#181818;stroke-width:0.5;stroke-dasharray:5.0,5.0;" x1="1755.625" x2="1755.625" y1="105.4799" y2="1801.599"/><line style="stroke:#181818;stroke-width:0.5;stroke-dasharray:5.0,5.0;" x1="1938.25" x2="1938.25" y1="105.4799" y2="1801.599"/><line style="stroke:#181818;stroke-width:0.5;stroke-dasharray:5.0,5.0;" x1="2061.25" x2="2061.25" y1="105.4799" y2="1801.599"/><line style="stroke:#181818;stroke-width:0.5;stroke-dasharray:5.0,5.0;" x1="2191.25" x2="2191.25" y1="105.4799" y2="1801.599"/><line style="stroke:#181818;stroke-width:0.5;stroke-dasharray:5.0,5.0;" x1="2304.25" x2="2304.25" y1="105.4799" y2="1801.599"/><line style="stroke:#181818;stroke-width:0.5;stroke-dasharray:5.0,5.0;" x1="2426.25" x2="2426.25" y1="105.4799" y2="1801.599"/><line style="stroke:#181818;stroke-width:0.5;stroke-dasharray:5.0,5.0;" x1="2559.25" x2="2559.25" y1="105.4799" y2="1801.599"/><line style="stroke:#181818;stroke-width:0.5;stroke-dasharray:5.0,5.0;" x1="2714.25" x2="2714.25" y1="105.4799" y2="1801.599"/><line style="stroke:#181818;stroke-width:0.5;stroke-dasharray:5.0,5.0;" x1="2917.25" x2="2917.25" y1="105.4799" y2="1801.599"/><line style="stroke:#181818;stroke-width:0.5;stroke-dasharray:5.0,5.0;" x1="3137.25" x2="3137.25" y1="105.4799" y2="1801.599"/><text fill="#000000" font-family="sans-serif" font-size="20" lengthAdjust="spacing" textLength="77" x="5" y="99.62">Teacher</text><ellipse cx="46.5" cy="26.74" fill="#E2E2F0" rx="8" ry="8" style="stroke:#181818;stroke-width:0.5;"/><path d="M46.5,34.74 L46.5,61.74 M33.5,42.74 L59.5,42.74 M46.5,61.74 L33.5,76.74 M46.5,61.74 L59.5,76.74 " fill="none" style="stroke:#181818;stroke-width:0.5;"/><text fill="#000000" font-family="sans-serif" font-size="20" lengthAdjust="spacing" textLength="77" x="5" y="1821.979">Teacher</text><ellipse cx="46.5" cy="1836.339" fill="#E2E2F0" rx="8" ry="8" style="stroke:#181818;stroke-width:0.5;"/><path d="M46.5,1844.339 L46.5,1871.339 M33.5,1852.339 L59.5,1852.339 M46.5,1871.339 L33.5,1886.339 M46.5,1871.339 L59.5,1886.339 " fill="none" style="stroke:#181818;stroke-width:0.5;"/><rect fill="#E2E2F0" height="68.4799" rx="2.5" ry="2.5" style="stroke:#181818;stroke-width:0.5;" width="222" x="439.75" y="36"/><text fill="#000000" font-family="sans-serif" font-size="20" font-style="italic" lengthAdjust="spacing" textLength="134" x="483.75" y="64.38">«presentation»</text><text fill="#000000" font-family="sans-serif" font-size="20" lengthAdjust="spacing" textLength="208" x="446.75" y="91.62">ScheduleExtraClassUI</text><rect fill="#E2E2F0" height="68.4799" rx="2.5" ry="2.5" style="stroke:#181818;stroke-width:0.5;" width="222" x="439.75" y="1800.599"/><text fill="#000000" font-family="sans-serif" font-size="20" font-style="italic" lengthAdjust="spacing" textLength="134" x="483.75" y="1828.979">«presentation»</text><text fill="#000000" font-family="sans-serif" font-size="20" lengthAdjust="spacing" textLength="208" x="446.75" y="1856.219">ScheduleExtraClassUI</text><rect fill="#E2E2F0" height="68.4799" rx="2.5" ry="2.5" style="stroke:#181818;stroke-width:0.5;" width="298" x="1018" y="36"/><text fill="#000000" font-family="sans-serif" font-size="20" font-style="italic" lengthAdjust="spacing" textLength="120" x="1107" y="64.38">«application»</text><text fill="#000000" font-family="sans-serif" font-size="20" lengthAdjust="spacing" textLength="284" x="1025" y="91.62">ScheduleExtraClassController</text><rect fill="#E2E2F0" height="68.4799" rx="2.5" ry="2.5" style="stroke:#181818;stroke-width:0.5;" width="298" x="1018" y="1800.599"/><text fill="#000000" font-family="sans-serif" font-size="20" font-style="italic" lengthAdjust="spacing" textLength="120" x="1107" y="1828.979">«application»</text><text fill="#000000" font-family="sans-serif" font-size="20" lengthAdjust="spacing" textLength="284" x="1025" y="1856.219">ScheduleExtraClassController</text><rect fill="#E2E2F0" height="68.4799" rx="2.5" ry="2.5" style="stroke:#181818;stroke-width:0.5;" width="218" x="1436.625" y="36"/><text fill="#000000" font-family="sans-serif" font-size="20" font-style="italic" lengthAdjust="spacing" textLength="80" x="1505.625" y="64.38">«service»</text><text fill="#000000" font-family="sans-serif" font-size="20" lengthAdjust="spacing" textLength="204" x="1443.625" y="91.62">ListEnrolmentService</text><rect fill="#E2E2F0" height="68.4799" rx="2.5" ry="2.5" style="stroke:#181818;stroke-width:0.5;" width="218" x="1436.625" y="1800.599"/><text fill="#000000" font-family="sans-serif" font-size="20" font-style="italic" lengthAdjust="spacing" textLength="80" x="1505.625" y="1828.979">«service»</text><text fill="#000000" font-family="sans-serif" font-size="20" lengthAdjust="spacing" textLength="204" x="1443.625" y="1856.219">ListEnrolmentService</text><rect fill="#E2E2F0" height="68.4799" rx="2.5" ry="2.5" style="stroke:#181818;stroke-width:0.5;" width="183" x="1664.625" y="36"/><text fill="#000000" font-family="sans-serif" font-size="20" font-style="italic" lengthAdjust="spacing" textLength="80" x="1716.125" y="64.38">«service»</text><text fill="#000000" font-family="sans-serif" font-size="20" lengthAdjust="spacing" textLength="169" x="1671.625" y="91.62">ListCourseService</text><rect fill="#E2E2F0" height="68.4799" rx="2.5" ry="2.5" style="stroke:#181818;stroke-width:0.5;" width="183" x="1664.625" y="1800.599"/><text fill="#000000" font-family="sans-serif" font-size="20" font-style="italic" lengthAdjust="spacing" textLength="80" x="1716.125" y="1828.979">«service»</text><text fill="#000000" font-family="sans-serif" font-size="20" lengthAdjust="spacing" textLength="169" x="1671.625" y="1856.219">ListCourseService</text><rect fill="#E2E2F0" height="68.4799" rx="2.5" ry="2.5" style="stroke:#181818;stroke-width:0.5;" width="103" x="1887.25" y="36"/><text fill="#000000" font-family="sans-serif" font-size="20" font-style="italic" lengthAdjust="spacing" textLength="89" x="1894.25" y="64.38">«domain»</text><text fill="#000000" font-family="sans-serif" font-size="20" lengthAdjust="spacing" textLength="67" x="1905.25" y="91.62">Course</text><rect fill="#E2E2F0" height="68.4799" rx="2.5" ry="2.5" style="stroke:#181818;stroke-width:0.5;" width="103" x="1887.25" y="1800.599"/><text fill="#000000" font-family="sans-serif" font-size="20" font-style="italic" lengthAdjust="spacing" textLength="89" x="1894.25" y="1828.979">«domain»</text><text fill="#000000" font-family="sans-serif" font-size="20" lengthAdjust="spacing" textLength="67" x="1905.25" y="1856.219">Course</text><rect fill="#E2E2F0" height="68.4799" rx="2.5" ry="2.5" style="stroke:#181818;stroke-width:0.5;" width="123" x="2000.25" y="36"/><text fill="#000000" font-family="sans-serif" font-size="20" font-style="italic" lengthAdjust="spacing" textLength="50" x="2036.75" y="64.38">«dto»</text><text fill="#000000" font-family="sans-serif" font-size="20" lengthAdjust="spacing" textLength="109" x="2007.25" y="91.62">CourseDTO</text><rect fill="#E2E2F0" height="68.4799" rx="2.5" ry="2.5" style="stroke:#181818;stroke-width:0.5;" width="123" x="2000.25" y="1800.599"/><text fill="#000000" font-family="sans-serif" font-size="20" font-style="italic" lengthAdjust="spacing" textLength="50" x="2036.75" y="1828.979">«dto»</text><text fill="#000000" font-family="sans-serif" font-size="20" lengthAdjust="spacing" textLength="109" x="2007.25" y="1856.219">CourseDTO</text><rect fill="#E2E2F0" height="68.4799" rx="2.5" ry="2.5" style="stroke:#181818;stroke-width:0.5;" width="116" x="2133.25" y="36"/><text fill="#000000" font-family="sans-serif" font-size="20" font-style="italic" lengthAdjust="spacing" textLength="89" x="2146.75" y="64.38">«domain»</text><text fill="#000000" font-family="sans-serif" font-size="20" lengthAdjust="spacing" textLength="102" x="2140.25" y="91.62">Enrolment</text><rect fill="#E2E2F0" height="68.4799" rx="2.5" ry="2.5" style="stroke:#181818;stroke-width:0.5;" width="116" x="2133.25" y="1800.599"/><text fill="#000000" font-family="sans-serif" font-size="20" font-style="italic" lengthAdjust="spacing" textLength="89" x="2146.75" y="1828.979">«domain»</text><text fill="#000000" font-family="sans-serif" font-size="20" lengthAdjust="spacing" textLength="102" x="2140.25" y="1856.219">Enrolment</text><rect fill="#E2E2F0" height="68.4799" rx="2.5" ry="2.5" style="stroke:#181818;stroke-width:0.5;" width="91" x="2259.25" y="36"/><text fill="#000000" font-family="sans-serif" font-size="20" font-style="italic" lengthAdjust="spacing" textLength="50" x="2279.75" y="64.38">«dto»</text><text fill="#000000" font-family="sans-serif" font-size="20" lengthAdjust="spacing" textLength="77" x="2266.25" y="91.62">Student</text><rect fill="#E2E2F0" height="68.4799" rx="2.5" ry="2.5" style="stroke:#181818;stroke-width:0.5;" width="91" x="2259.25" y="1800.599"/><text fill="#000000" font-family="sans-serif" font-size="20" font-style="italic" lengthAdjust="spacing" textLength="50" x="2279.75" y="1828.979">«dto»</text><text fill="#000000" font-family="sans-serif" font-size="20" lengthAdjust="spacing" textLength="77" x="2266.25" y="1856.219">Student</text><rect fill="#E2E2F0" height="68.4799" rx="2.5" ry="2.5" style="stroke:#181818;stroke-width:0.5;" width="133" x="2360.25" y="36"/><text fill="#000000" font-family="sans-serif" font-size="20" font-style="italic" lengthAdjust="spacing" textLength="50" x="2401.75" y="64.38">«dto»</text><text fill="#000000" font-family="sans-serif" font-size="20" lengthAdjust="spacing" textLength="119" x="2367.25" y="91.62">StudentDTO</text><rect fill="#E2E2F0" height="68.4799" rx="2.5" ry="2.5" style="stroke:#181818;stroke-width:0.5;" width="133" x="2360.25" y="1800.599"/><text fill="#000000" font-family="sans-serif" font-size="20" font-style="italic" lengthAdjust="spacing" textLength="50" x="2401.75" y="1828.979">«dto»</text><text fill="#000000" font-family="sans-serif" font-size="20" lengthAdjust="spacing" textLength="119" x="2367.25" y="1856.219">StudentDTO</text><rect fill="#E2E2F0" height="68.4799" rx="2.5" ry="2.5" style="stroke:#181818;stroke-width:0.5;" width="113" x="2503.25" y="36"/><text fill="#000000" font-family="sans-serif" font-size="20" font-style="italic" lengthAdjust="spacing" textLength="89" x="2515.25" y="64.38">«domain»</text><text fill="#000000" font-family="sans-serif" font-size="20" lengthAdjust="spacing" textLength="99" x="2510.25" y="91.62">ExtraClass</text><rect fill="#E2E2F0" height="68.4799" rx="2.5" ry="2.5" style="stroke:#181818;stroke-width:0.5;" width="113" x="2503.25" y="1800.599"/><text fill="#000000" font-family="sans-serif" font-size="20" font-style="italic" lengthAdjust="spacing" textLength="89" x="2515.25" y="1828.979">«domain»</text><text fill="#000000" font-family="sans-serif" font-size="20" lengthAdjust="spacing" textLength="99" x="2510.25" y="1856.219">ExtraClass</text><text fill="#000000" font-family="sans-serif" font-size="20" font-style="italic" lengthAdjust="spacing" textLength="110" x="2656.25" y="72.38">«repository»</text><text fill="#000000" font-family="sans-serif" font-size="20" lengthAdjust="spacing" textLength="170" x="2626.25" y="99.62">CourseRepository</text><path d="M2696.25,15 C2696.25,5 2714.25,5 2714.25,5 C2714.25,5 2732.25,5 2732.25,15 L2732.25,41 C2732.25,51 2714.25,51 2714.25,51 C2714.25,51 2696.25,51 2696.25,41 L2696.25,15 " fill="#E2E2F0" style="stroke:#181818;stroke-width:1.5;"/><path d="M2696.25,15 C2696.25,25 2714.25,25 2714.25,25 C2714.25,25 2732.25,25 2732.25,15 " fill="none" style="stroke:#181818;stroke-width:1.5;"/><text fill="#000000" font-family="sans-serif" font-size="20" font-style="italic" lengthAdjust="spacing" textLength="110" x="2656.25" y="1821.979">«repository»</text><text fill="#000000" font-family="sans-serif" font-size="20" lengthAdjust="spacing" textLength="170" x="2626.25" y="1849.219">CourseRepository</text><path d="M2696.25,1865.0789 C2696.25,1855.0789 2714.25,1855.0789 2714.25,1855.0789 C2714.25,1855.0789 2732.25,1855.0789 2732.25,1865.0789 L2732.25,1891.0789 C2732.25,1901.0789 2714.25,1901.0789 2714.25,1901.0789 C2714.25,1901.0789 2696.25,1901.0789 2696.25,1891.0789 L2696.25,1865.0789 " fill="#E2E2F0" style="stroke:#181818;stroke-width:1.5;"/><path d="M2696.25,1865.0789 C2696.25,1875.0789 2714.25,1875.0789 2714.25,1875.0789 C2714.25,1875.0789 2732.25,1875.0789 2732.25,1865.0789 " fill="none" style="stroke:#181818;stroke-width:1.5;"/><text fill="#000000" font-family="sans-serif" font-size="20" font-style="italic" lengthAdjust="spacing" textLength="110" x="2859.75" y="72.38">«repository»</text><text fill="#000000" font-family="sans-serif" font-size="20" lengthAdjust="spacing" textLength="205" x="2812.25" y="99.62">EnrolmentRepository</text><path d="M2899.75,15 C2899.75,5 2917.75,5 2917.75,5 C2917.75,5 2935.75,5 2935.75,15 L2935.75,41 C2935.75,51 2917.75,51 2917.75,51 C2917.75,51 2899.75,51 2899.75,41 L2899.75,15 " fill="#E2E2F0" style="stroke:#181818;stroke-width:1.5;"/><path d="M2899.75,15 C2899.75,25 2917.75,25 2917.75,25 C2917.75,25 2935.75,25 2935.75,15 " fill="none" style="stroke:#181818;stroke-width:1.5;"/><text fill="#000000" font-family="sans-serif" font-size="20" font-style="italic" lengthAdjust="spacing" textLength="110" x="2859.75" y="1821.979">«repository»</text><text fill="#000000" font-family="sans-serif" font-size="20" lengthAdjust="spacing" textLength="205" x="2812.25" y="1849.219">EnrolmentRepository</text><path d="M2899.75,1865.0789 C2899.75,1855.0789 2917.75,1855.0789 2917.75,1855.0789 C2917.75,1855.0789 2935.75,1855.0789 2935.75,1865.0789 L2935.75,1891.0789 C2935.75,1901.0789 2917.75,1901.0789 2917.75,1901.0789 C2917.75,1901.0789 2899.75,1901.0789 2899.75,1891.0789 L2899.75,1865.0789 " fill="#E2E2F0" style="stroke:#181818;stroke-width:1.5;"/><path d="M2899.75,1865.0789 C2899.75,1875.0789 2917.75,1875.0789 2917.75,1875.0789 C2917.75,1875.0789 2935.75,1875.0789 2935.75,1865.0789 " fill="none" style="stroke:#181818;stroke-width:1.5;"/><text fill="#000000" font-family="sans-serif" font-size="20" font-style="italic" lengthAdjust="spacing" textLength="110" x="3079.25" y="72.38">«repository»</text><text fill="#000000" font-family="sans-serif" font-size="20" lengthAdjust="spacing" textLength="202" x="3033.25" y="99.62">ExtraClassRepository</text><path d="M3119.25,15 C3119.25,5 3137.25,5 3137.25,5 C3137.25,5 3155.25,5 3155.25,15 L3155.25,41 C3155.25,51 3137.25,51 3137.25,51 C3137.25,51 3119.25,51 3119.25,41 L3119.25,15 " fill="#E2E2F0" style="stroke:#181818;stroke-width:1.5;"/><path d="M3119.25,15 C3119.25,25 3137.25,25 3137.25,25 C3137.25,25 3155.25,25 3155.25,15 " fill="none" style="stroke:#181818;stroke-width:1.5;"/><text fill="#000000" font-family="sans-serif" font-size="20" font-style="italic" lengthAdjust="spacing" textLength="110" x="3079.25" y="1821.979">«repository»</text><text fill="#000000" font-family="sans-serif" font-size="20" lengthAdjust="spacing" textLength="202" x="3033.25" y="1849.219">ExtraClassRepository</text><path d="M3119.25,1865.0789 C3119.25,1855.0789 3137.25,1855.0789 3137.25,1855.0789 C3137.25,1855.0789 3155.25,1855.0789 3155.25,1865.0789 L3155.25,1891.0789 C3155.25,1901.0789 3137.25,1901.0789 3137.25,1901.0789 C3137.25,1901.0789 3119.25,1901.0789 3119.25,1891.0789 L3119.25,1865.0789 " fill="#E2E2F0" style="stroke:#181818;stroke-width:1.5;"/><path d="M3119.25,1865.0789 C3119.25,1875.0789 3137.25,1875.0789 3137.25,1875.0789 C3137.25,1875.0789 3155.25,1875.0789 3155.25,1865.0789 " fill="none" style="stroke:#181818;stroke-width:1.5;"/><rect fill="#FFFFFF" height="1668.119" style="stroke:#181818;stroke-width:1.0;" width="10" x="41.5" y="115.4799"/><rect fill="#FFFFFF" height="580.3596" style="stroke:#181818;stroke-width:1.0;" width="10" x="545.75" y="148.7199"/><rect fill="#FFFFFF" height="527.8797" style="stroke:#181818;stroke-width:1.0;" width="10" x="545.75" y="770.3195"/><rect fill="#FFFFFF" height="41.24" style="stroke:#181818;stroke-width:1.0;" width="10" x="545.75" y="1339.4392"/><rect fill="#FFFFFF" height="361.6798" style="stroke:#181818;stroke-width:1.0;" width="10" x="545.75" y="1421.9192"/><rect fill="#FFFFFF" height="82.4799" style="stroke:#181818;stroke-width:1.0;" width="10" x="1162" y="189.9599"/><rect fill="#FFFFFF" height="374.1598" style="stroke:#181818;stroke-width:1.0;" width="10" x="1162" y="313.6798"/><rect fill="#FFFFFF" height="445.3997" style="stroke:#181818;stroke-width:1.0;" width="10" x="1162" y="811.5595"/><rect fill="#FFFFFF" height="279.1999" style="stroke:#181818;stroke-width:1.0;" width="10" x="1162" y="1463.1591"/><rect fill="#FFFFFF" height="28" style="stroke:#181818;stroke-width:1.0;" width="10" x="1167" y="1583.6391"/><rect fill="#FFFFFF" height="362.9198" style="stroke:#181818;stroke-width:1.0;" width="10" x="1540.625" y="852.7995"/><rect fill="#FFFFFF" height="291.6798" style="stroke:#181818;stroke-width:1.0;" width="10" x="1751.125" y="354.9198"/><rect fill="#FFFFFF" height="71.24" style="stroke:#181818;stroke-width:1.0;" width="10" x="1933.75" y="527.1197"/><rect fill="#FFFFFF" height="30" style="stroke:#181818;stroke-width:1.0;" width="10" x="2056.75" y="568.3596"/><rect fill="#FFFFFF" height="30" style="stroke:#181818;stroke-width:1.0;" width="10" x="2186.25" y="1024.9994"/><rect fill="#FFFFFF" height="71.24" style="stroke:#181818;stroke-width:1.0;" width="10" x="2299.75" y="1096.2393"/><rect fill="#FFFFFF" height="30" style="stroke:#181818;stroke-width:1.0;" width="10" x="2421.75" y="1137.4793"/><rect fill="#FFFFFF" height="30" style="stroke:#181818;stroke-width:1.0;" width="10" x="2554.75" y="1504.3991"/><rect fill="#FFFFFF" height="41.24" style="stroke:#181818;stroke-width:1.0;" width="10" x="2709.25" y="396.1598"/><rect fill="#FFFFFF" height="41.24" style="stroke:#181818;stroke-width:1.0;" width="10" x="2912.75" y="894.0395"/><rect fill="#FFFFFF" height="41.24" style="stroke:#181818;stroke-width:1.0;" width="10" x="3132.25" y="1659.8791"/><polygon fill="#181818" points="533.75,144.7199,543.75,148.7199,533.75,152.7199,537.75,148.7199" style="stroke:#181818;stroke-width:1.0;"/><line style="stroke:#181818;stroke-width:1.0;" x1="51.5" x2="539.75" y1="148.7199" y2="148.7199"/><text fill="#000000" font-family="sans-serif" font-size="20" font-weight="bold" lengthAdjust="spacing" textLength="11.625" x="58.5" y="140.8599">1</text><text fill="#000000" font-family="sans-serif" font-size="20" lengthAdjust="spacing" textLength="293" x="74.125" y="140.8599">asks to schedule an extra class</text><polygon fill="#181818" points="1150,185.9599,1160,189.9599,1150,193.9599,1154,189.9599" style="stroke:#181818;stroke-width:1.0;"/><line style="stroke:#181818;stroke-width:1.0;" x1="555.75" x2="1156" y1="189.9599" y2="189.9599"/><text fill="#000000" font-family="sans-serif" font-size="20" font-weight="bold" lengthAdjust="spacing" textLength="11.625" x="562.75" y="182.0999">2</text><text fill="#000000" font-family="sans-serif" font-size="20" lengthAdjust="spacing" textLength="434" x="578.375" y="182.0999">new(courseRepository, enrolmentRepository)</text><polygon fill="#181818" points="1744.125,227.1999,1754.125,231.1999,1744.125,235.1999,1748.125,231.1999" style="stroke:#181818;stroke-width:1.0;"/><line style="stroke:#181818;stroke-width:1.0;" x1="1172" x2="1750.125" y1="231.1999" y2="231.1999"/><text fill="#000000" font-family="sans-serif" font-size="20" font-weight="bold" lengthAdjust="spacing" textLength="11.625" x="1179" y="223.3399">3</text><text fill="#000000" font-family="sans-serif" font-size="20" lengthAdjust="spacing" textLength="296" x="1194.625" y="223.3399">service=new(courseRepository)</text><polygon fill="#181818" points="1533.625,268.4398,1543.625,272.4398,1533.625,276.4398,1537.625,272.4398" style="stroke:#181818;stroke-width:1.0;"/><line style="stroke:#181818;stroke-width:1.0;" x1="1167" x2="1539.625" y1="272.4398" y2="272.4398"/><text fill="#000000" font-family="sans-serif" font-size="20" font-weight="bold" lengthAdjust="spacing" textLength="11.625" x="1174" y="264.5799">4</text><text fill="#000000" font-family="sans-serif" font-size="20" lengthAdjust="spacing" textLength="334" x="1189.625" y="264.5799">service=new(enrolmentRepository)</text><polygon fill="#181818" points="1150,309.6798,1160,313.6798,1150,317.6798,1154,313.6798" style="stroke:#181818;stroke-width:1.0;"/><line style="stroke:#181818;stroke-width:1.0;" x1="555.75" x2="1156" y1="313.6798" y2="313.6798"/><text fill="#000000" font-family="sans-serif" font-size="20" font-weight="bold" lengthAdjust="spacing" textLength="11.625" x="562.75" y="305.8198">5</text><text fill="#000000" font-family="sans-serif" font-size="20" lengthAdjust="spacing" textLength="358" x="578.375" y="305.8198">listAllInProgressLecturedByTeacher()</text><polygon fill="#181818" points="1739.125,350.9198,1749.125,354.9198,1739.125,358.9198,1743.125,354.9198" style="stroke:#181818;stroke-width:1.0;"/><line style="stroke:#181818;stroke-width:1.0;" x1="1172" x2="1745.125" y1="354.9198" y2="354.9198"/><text fill="#000000" font-family="sans-serif" font-size="20" font-weight="bold" lengthAdjust="spacing" textLength="11.625" x="1179" y="347.0598">6</text><text fill="#000000" font-family="sans-serif" font-size="20" lengthAdjust="spacing" textLength="430" x="1194.625" y="347.0598">listAllInProgressLecturedByTeacher(teacher)</text><polygon fill="#181818" points="2697.25,392.1598,2707.25,396.1598,2697.25,400.1598,2701.25,396.1598" style="stroke:#181818;stroke-width:1.0;"/><line style="stroke:#181818;stroke-width:1.0;" x1="1761.125" x2="2703.25" y1="396.1598" y2="396.1598"/><text fill="#000000" font-family="sans-serif" font-size="20" font-weight="bold" lengthAdjust="spacing" textLength="11.625" x="1768.125" y="388.2998">7</text><text fill="#000000" font-family="sans-serif" font-size="20" lengthAdjust="spacing" textLength="440" x="1783.75" y="388.2998">findAllInProgressLecturedByTeacher(teacher)</text><polygon fill="#181818" points="1772.125,433.3997,1762.125,437.3997,1772.125,441.3997,1768.125,437.3997" style="stroke:#181818;stroke-width:1.0;"/><line style="stroke:#181818;stroke-width:1.0;stroke-dasharray:2.0,2.0;" x1="1766.125" x2="2713.25" y1="437.3997" y2="437.3997"/><text fill="#000000" font-family="sans-serif" font-size="20" font-weight="bold" lengthAdjust="spacing" textLength="11.625" x="1778.125" y="429.5398">8</text><text fill="#000000" font-family="sans-serif" font-size="20" lengthAdjust="spacing" textLength="74" x="1793.75" y="429.5398">courses</text><path d="M1654.625,452.3997 L1745.125,452.3997 L1745.125,471.6397 L1735.125,481.6397 L1654.625,481.6397 L1654.625,452.3997 " fill="#EEEEEE" style="stroke:#000000;stroke-width:1.5;"/><rect fill="none" height="153.9599" style="stroke:#000000;stroke-width:1.5;" width="478.625" x="1654.625" y="452.3997"/><text fill="#000000" font-family="sans-serif" font-size="20" font-weight="bold" lengthAdjust="spacing" textLength="45.5" x="1669.625" y="474.7797">loop</text><text fill="#000000" font-family="sans-serif" font-size="20" font-weight="bold" lengthAdjust="spacing" textLength="169.375" x="1760.125" y="475.7797">[for each course]</text><polygon fill="#181818" points="1921.75,523.1197,1931.75,527.1197,1921.75,531.1197,1925.75,527.1197" style="stroke:#181818;stroke-width:1.0;"/><line style="stroke:#181818;stroke-width:1.0;" x1="1761.125" x2="1927.75" y1="527.1197" y2="527.1197"/><text fill="#000000" font-family="sans-serif" font-size="20" font-weight="bold" lengthAdjust="spacing" textLength="11.625" x="1768.125" y="519.2597">9</text><text fill="#000000" font-family="sans-serif" font-size="20" lengthAdjust="spacing" textLength="138" x="1783.75" y="519.2597">toDTO(course)</text><polygon fill="#181818" points="2044.75,564.3596,2054.75,568.3596,2044.75,572.3596,2048.75,568.3596" style="stroke:#181818;stroke-width:1.0;"/><line style="stroke:#181818;stroke-width:1.0;" x1="1943.75" x2="2050.75" y1="568.3596" y2="568.3596"/><text fill="#000000" font-family="sans-serif" font-size="20" font-weight="bold" lengthAdjust="spacing" textLength="23.25" x="1950.75" y="560.4997">10</text><text fill="#000000" font-family="sans-serif" font-size="20" lengthAdjust="spacing" textLength="52" x="1978" y="560.4997">new()</text><polygon fill="#181818" points="1183,642.5996,1173,646.5996,1183,650.5996,1179,646.5996" style="stroke:#181818;stroke-width:1.0;"/><line style="stroke:#181818;stroke-width:1.0;stroke-dasharray:2.0,2.0;" x1="1177" x2="1755.125" y1="646.5996" y2="646.5996"/><text fill="#000000" font-family="sans-serif" font-size="20" font-weight="bold" lengthAdjust="spacing" textLength="23.25" x="1189" y="638.7396">11</text><text fill="#000000" font-family="sans-serif" font-size="20" lengthAdjust="spacing" textLength="74" x="1216.25" y="638.7396">courses</text><polygon fill="#181818" points="566.75,683.8396,556.75,687.8396,566.75,691.8396,562.75,687.8396" style="stroke:#181818;stroke-width:1.0;"/><line style="stroke:#181818;stroke-width:1.0;stroke-dasharray:2.0,2.0;" x1="560.75" x2="1166" y1="687.8396" y2="687.8396"/><text fill="#000000" font-family="sans-serif" font-size="20" font-weight="bold" lengthAdjust="spacing" textLength="23.25" x="572.75" y="679.9796">12</text><text fill="#000000" font-family="sans-serif" font-size="20" lengthAdjust="spacing" textLength="74" x="600" y="679.9796">courses</text><polygon fill="#181818" points="62.5,725.0796,52.5,729.0796,62.5,733.0796,58.5,729.0796" style="stroke:#181818;stroke-width:1.0;"/><line style="stroke:#181818;stroke-width:1.0;stroke-dasharray:2.0,2.0;" x1="56.5" x2="549.75" y1="729.0796" y2="729.0796"/><text fill="#000000" font-family="sans-serif" font-size="20" font-weight="bold" lengthAdjust="spacing" textLength="23.25" x="68.5" y="721.2196">13</text><text fill="#000000" font-family="sans-serif" font-size="20" lengthAdjust="spacing" textLength="233" x="95.75" y="721.2196">asks to select the course</text><polygon fill="#181818" points="533.75,766.3195,543.75,770.3195,533.75,774.3195,537.75,770.3195" style="stroke:#181818;stroke-width:1.0;"/><line style="stroke:#181818;stroke-width:1.0;" x1="51.5" x2="539.75" y1="770.3195" y2="770.3195"/><text fill="#000000" font-family="sans-serif" font-size="20" font-weight="bold" lengthAdjust="spacing" textLength="23.25" x="58.5" y="762.4596">14</text><text fill="#000000" font-family="sans-serif" font-size="20" lengthAdjust="spacing" textLength="171" x="85.75" y="762.4596">selects the course</text><polygon fill="#181818" points="1150,807.5595,1160,811.5595,1150,815.5595,1154,811.5595" style="stroke:#181818;stroke-width:1.0;"/><line style="stroke:#181818;stroke-width:1.0;" x1="555.75" x2="1156" y1="811.5595" y2="811.5595"/><text fill="#000000" font-family="sans-serif" font-size="20" font-weight="bold" lengthAdjust="spacing" textLength="23.25" x="562.75" y="803.6995">15</text><text fill="#000000" font-family="sans-serif" font-size="20" lengthAdjust="spacing" textLength="274" x="590" y="803.6995">listStudentsEnrolled(course)</text><polygon fill="#181818" points="1528.625,848.7995,1538.625,852.7995,1528.625,856.7995,1532.625,852.7995" style="stroke:#181818;stroke-width:1.0;"/><line style="stroke:#181818;stroke-width:1.0;" x1="1172" x2="1534.625" y1="852.7995" y2="852.7995"/><text fill="#000000" font-family="sans-serif" font-size="20" font-weight="bold" lengthAdjust="spacing" textLength="23.25" x="1179" y="844.9395">16</text><text fill="#000000" font-family="sans-serif" font-size="20" lengthAdjust="spacing" textLength="274" x="1206.25" y="844.9395">listStudentsEnrolled(course)</text><polygon fill="#181818" points="2900.75,890.0395,2910.75,894.0395,2900.75,898.0395,2904.75,894.0395" style="stroke:#181818;stroke-width:1.0;"/><line style="stroke:#181818;stroke-width:1.0;" x1="1550.625" x2="2906.75" y1="894.0395" y2="894.0395"/><text fill="#000000" font-family="sans-serif" font-size="20" font-weight="bold" lengthAdjust="spacing" textLength="23.25" x="1557.625" y="886.1795">17</text><text fill="#000000" font-family="sans-serif" font-size="20" lengthAdjust="spacing" textLength="270" x="1584.875" y="886.1795">findCourseAccepted(course)</text><polygon fill="#181818" points="1561.625,931.2794,1551.625,935.2794,1561.625,939.2794,1557.625,935.2794" style="stroke:#181818;stroke-width:1.0;"/><line style="stroke:#181818;stroke-width:1.0;stroke-dasharray:2.0,2.0;" x1="1555.625" x2="2916.75" y1="935.2794" y2="935.2794"/><text fill="#000000" font-family="sans-serif" font-size="20" font-weight="bold" lengthAdjust="spacing" textLength="23.25" x="1567.625" y="927.4195">18</text><text fill="#000000" font-family="sans-serif" font-size="20" lengthAdjust="spacing" textLength="112" x="1594.875" y="927.4195">enrolments</text><path d="M1426.625,950.2794 L1517.125,950.2794 L1517.125,969.5194 L1507.125,979.5194 L1426.625,979.5194 L1426.625,950.2794 " fill="#EEEEEE" style="stroke:#000000;stroke-width:1.5;"/><rect fill="none" height="225.1999" style="stroke:#000000;stroke-width:1.5;" width="1076.625" x="1426.625" y="950.2794"/><text fill="#000000" font-family="sans-serif" font-size="20" font-weight="bold" lengthAdjust="spacing" textLength="45.5" x="1441.625" y="972.6594">loop</text><text fill="#000000" font-family="sans-serif" font-size="20" font-weight="bold" lengthAdjust="spacing" textLength="209.25" x="1532.125" y="973.6594">[for each enrolment]</text><polygon fill="#181818" points="2174.25,1020.9994,2184.25,1024.9994,2174.25,1028.9994,2178.25,1024.9994" style="stroke:#181818;stroke-width:1.0;"/><line style="stroke:#181818;stroke-width:1.0;" x1="1550.625" x2="2180.25" y1="1024.9994" y2="1024.9994"/><text fill="#000000" font-family="sans-serif" font-size="20" font-weight="bold" lengthAdjust="spacing" textLength="23.25" x="1557.625" y="1017.1394">19</text><text fill="#000000" font-family="sans-serif" font-size="20" lengthAdjust="spacing" textLength="88" x="1584.875" y="1017.1394">student()</text><polygon fill="#181818" points="2287.75,1092.2393,2297.75,1096.2393,2287.75,1100.2393,2291.75,1096.2393" style="stroke:#181818;stroke-width:1.0;"/><line style="stroke:#181818;stroke-width:1.0;" x1="1550.625" x2="2293.75" y1="1096.2393" y2="1096.2393"/><text fill="#000000" font-family="sans-serif" font-size="20" font-weight="bold" lengthAdjust="spacing" textLength="23.25" x="1557.625" y="1088.3794">20</text><text fill="#000000" font-family="sans-serif" font-size="20" lengthAdjust="spacing" textLength="150" x="1584.875" y="1088.3794">toDTO(student)</text><polygon fill="#181818" points="2409.75,1133.4793,2419.75,1137.4793,2409.75,1141.4793,2413.75,1137.4793" style="stroke:#181818;stroke-width:1.0;"/><line style="stroke:#181818;stroke-width:1.0;" x1="2309.75" x2="2415.75" y1="1137.4793" y2="1137.4793"/><text fill="#000000" font-family="sans-serif" font-size="20" font-weight="bold" lengthAdjust="spacing" textLength="23.25" x="2316.75" y="1129.6193">21</text><text fill="#000000" font-family="sans-serif" font-size="20" lengthAdjust="spacing" textLength="52" x="2344" y="1129.6193">new()</text><polygon fill="#181818" points="1183,1211.7193,1173,1215.7193,1183,1219.7193,1179,1215.7193" style="stroke:#181818;stroke-width:1.0;"/><line style="stroke:#181818;stroke-width:1.0;stroke-dasharray:2.0,2.0;" x1="1177" x2="1544.625" y1="1215.7193" y2="1215.7193"/><text fill="#000000" font-family="sans-serif" font-size="20" font-weight="bold" lengthAdjust="spacing" textLength="23.25" x="1189" y="1207.8593">22</text><text fill="#000000" font-family="sans-serif" font-size="20" lengthAdjust="spacing" textLength="86" x="1216.25" y="1207.8593">students</text><polygon fill="#181818" points="566.75,1252.9593,556.75,1256.9593,566.75,1260.9593,562.75,1256.9593" style="stroke:#181818;stroke-width:1.0;"/><line style="stroke:#181818;stroke-width:1.0;stroke-dasharray:2.0,2.0;" x1="560.75" x2="1166" y1="1256.9593" y2="1256.9593"/><text fill="#000000" font-family="sans-serif" font-size="20" font-weight="bold" lengthAdjust="spacing" textLength="23.25" x="572.75" y="1249.0993">23</text><text fill="#000000" font-family="sans-serif" font-size="20" lengthAdjust="spacing" textLength="86" x="600" y="1249.0993">students</text><polygon fill="#181818" points="62.5,1294.1992,52.5,1298.1992,62.5,1302.1992,58.5,1298.1992" style="stroke:#181818;stroke-width:1.0;"/><line style="stroke:#181818;stroke-width:1.0;stroke-dasharray:2.0,2.0;" x1="56.5" x2="549.75" y1="1298.1992" y2="1298.1992"/><text fill="#000000" font-family="sans-serif" font-size="20" font-weight="bold" lengthAdjust="spacing" textLength="23.25" x="68.5" y="1290.3393">24</text><text fill="#000000" font-family="sans-serif" font-size="20" lengthAdjust="spacing" textLength="306" x="95.75" y="1290.3393">asks to select the users to invite</text><polygon fill="#181818" points="533.75,1335.4392,543.75,1339.4392,533.75,1343.4392,537.75,1339.4392" style="stroke:#181818;stroke-width:1.0;"/><line style="stroke:#181818;stroke-width:1.0;" x1="51.5" x2="539.75" y1="1339.4392" y2="1339.4392"/><text fill="#000000" font-family="sans-serif" font-size="20" font-weight="bold" lengthAdjust="spacing" textLength="23.25" x="58.5" y="1331.5792">25</text><text fill="#000000" font-family="sans-serif" font-size="20" lengthAdjust="spacing" textLength="160" x="85.75" y="1331.5792">selects the users</text><polygon fill="#181818" points="62.5,1376.6792,52.5,1380.6792,62.5,1384.6792,58.5,1380.6792" style="stroke:#181818;stroke-width:1.0;"/><line style="stroke:#181818;stroke-width:1.0;stroke-dasharray:2.0,2.0;" x1="56.5" x2="549.75" y1="1380.6792" y2="1380.6792"/><text fill="#000000" font-family="sans-serif" font-size="20" font-weight="bold" lengthAdjust="spacing" textLength="23.25" x="68.5" y="1372.8192">26</text><text fill="#000000" font-family="sans-serif" font-size="20" lengthAdjust="spacing" textLength="443" x="95.75" y="1372.8192">asks to enter the date/time start and duration</text><polygon fill="#181818" points="533.75,1417.9192,543.75,1421.9192,533.75,1425.9192,537.75,1421.9192" style="stroke:#181818;stroke-width:1.0;"/><line style="stroke:#181818;stroke-width:1.0;" x1="51.5" x2="539.75" y1="1421.9192" y2="1421.9192"/><text fill="#000000" font-family="sans-serif" font-size="20" font-weight="bold" lengthAdjust="spacing" textLength="23.25" x="58.5" y="1414.0592">27</text><text fill="#000000" font-family="sans-serif" font-size="20" lengthAdjust="spacing" textLength="381" x="85.75" y="1414.0592">enters the date/time start and duration</text><polygon fill="#181818" points="1150,1459.1591,1160,1463.1591,1150,1467.1591,1154,1463.1591" style="stroke:#181818;stroke-width:1.0;"/><line style="stroke:#181818;stroke-width:1.0;" x1="555.75" x2="1156" y1="1463.1591" y2="1463.1591"/><text fill="#000000" font-family="sans-serif" font-size="20" font-weight="bold" lengthAdjust="spacing" textLength="23.25" x="562.75" y="1455.2992">28</text><text fill="#000000" font-family="sans-serif" font-size="20" lengthAdjust="spacing" textLength="560" x="590" y="1455.2992">createExtraClass(course, teacher, date, duration, students)</text><polygon fill="#181818" points="2542.75,1500.3991,2552.75,1504.3991,2542.75,1508.3991,2546.75,1504.3991" style="stroke:#181818;stroke-width:1.0;"/><line style="stroke:#181818;stroke-width:1.0;" x1="1172" x2="2548.75" y1="1504.3991" y2="1504.3991"/><text fill="#000000" font-family="sans-serif" font-size="20" font-weight="bold" lengthAdjust="spacing" textLength="23.25" x="1179" y="1496.5391">29</text><text fill="#000000" font-family="sans-serif" font-size="20" lengthAdjust="spacing" textLength="443" x="1206.25" y="1496.5391">new(course, teacher, time, duration, students)</text><line style="stroke:#181818;stroke-width:1.0;" x1="1177" x2="1219" y1="1575.6391" y2="1575.6391"/><line style="stroke:#181818;stroke-width:1.0;" x1="1219" x2="1219" y1="1575.6391" y2="1588.6391"/><line style="stroke:#181818;stroke-width:1.0;" x1="1178" x2="1219" y1="1588.6391" y2="1588.6391"/><polygon fill="#181818" points="1188,1584.6391,1178,1588.6391,1188,1592.6391,1184,1588.6391" style="stroke:#181818;stroke-width:1.0;"/><text fill="#000000" font-family="sans-serif" font-size="20" font-weight="bold" lengthAdjust="spacing" textLength="23.25" x="1184" y="1567.7791">30</text><text fill="#000000" font-family="sans-serif" font-size="20" lengthAdjust="spacing" textLength="153" x="1211.25" y="1567.7791">save(extraClass)</text><polygon fill="#181818" points="3120.25,1655.8791,3130.25,1659.8791,3120.25,1663.8791,3124.25,1659.8791" style="stroke:#181818;stroke-width:1.0;"/><line style="stroke:#181818;stroke-width:1.0;" x1="1172" x2="3126.25" y1="1659.8791" y2="1659.8791"/><text fill="#000000" font-family="sans-serif" font-size="20" font-weight="bold" lengthAdjust="spacing" textLength="23.25" x="1179" y="1652.0191">31</text><text fill="#000000" font-family="sans-serif" font-size="20" lengthAdjust="spacing" textLength="153" x="1206.25" y="1652.0191">save(extraClass)</text><polygon fill="#181818" points="1183,1697.119,1173,1701.119,1183,1705.119,1179,1701.119" style="stroke:#181818;stroke-width:1.0;"/><line style="stroke:#181818;stroke-width:1.0;stroke-dasharray:2.0,2.0;" x1="1177" x2="3136.25" y1="1701.119" y2="1701.119"/><text fill="#000000" font-family="sans-serif" font-size="20" font-weight="bold" lengthAdjust="spacing" textLength="23.25" x="1189" y="1693.2591">32</text><text fill="#000000" font-family="sans-serif" font-size="20" lengthAdjust="spacing" textLength="99" x="1216.25" y="1693.2591">extraClass</text><polygon fill="#181818" points="566.75,1738.359,556.75,1742.359,566.75,1746.359,562.75,1742.359" style="stroke:#181818;stroke-width:1.0;"/><line style="stroke:#181818;stroke-width:1.0;stroke-dasharray:2.0,2.0;" x1="560.75" x2="1166" y1="1742.359" y2="1742.359"/><text fill="#000000" font-family="sans-serif" font-size="20" font-weight="bold" lengthAdjust="spacing" textLength="23.25" x="572.75" y="1734.499">33</text><text fill="#000000" font-family="sans-serif" font-size="20" lengthAdjust="spacing" textLength="63" x="600" y="1734.499">sucess</text><polygon fill="#181818" points="57.5,1779.599,47.5,1783.599,57.5,1787.599,53.5,1783.599" style="stroke:#181818;stroke-width:1.0;"/><line style="stroke:#181818;stroke-width:1.0;stroke-dasharray:2.0,2.0;" x1="51.5" x2="549.75" y1="1783.599" y2="1783.599"/><text fill="#000000" font-family="sans-serif" font-size="20" font-weight="bold" lengthAdjust="spacing" textLength="23.25" x="63.5" y="1775.739">34</text><text fill="#000000" font-family="sans-serif" font-size="20" lengthAdjust="spacing" textLength="254" x="90.75" y="1775.739">informs operation success</text><!--SRC=[bLRBRjim4BppAuYS4i11YnwDD43Yie2100qik_2LaJOD4PaKICfj-lLTFao9UiJfoHOzCplS7L8shq8sNFD3hSfNg6W5pxojxNSbRI7-0ltocV3MAjaUda0JmakhDBtO0YzVG5zGRkYM8D-AKZHSMdfHu0zLMmFxOpLVrToOtThZTcjwSzDeC20jjqB9szjpp1MwqAgkOwNLTlE06hnfQb5EIZm8Ovb4oW6B5A2FeWHFPSNc9r9DM9gYhLIh3VGvgtSv0H-0YAhKWGiv3Vgs_H5m-CL1hHhYakTWTbQli6rrGXNJKX5ogbdCrqnj3aNt_Qg4LDpo9sw0XZrie556uF3V_4usx17XEYqY9H7IPd8EUvUJp0n8-mcMIw4uSWkOFRAbrxSkMqk4lnfg5JKnHvHB2awNbawuO-tMX203UJvHIohXzsKvsEQ2mdWVLvs8enBFTpekAaiQe_9rIkygWTaOF5cgWhnOxhd6pDxLzLe-QlKBJvLvWDAs6ghxjtWwBy-u_O223Pzz8UGIB-24t72Mz5d8wl-5a4kym7LdAJJDP5jtE58hrT1dl7gSJeGHIfCHv5g5KOzjlyBVEWK7z2Xt5iAqSm2kutE_w7Y5WAoeiq7YzhjHJBdsRVBzFiLp2fN6Yg1jFy9GOmkfVO7JNdii5zykzG5g-jZveBkHnml2-6DQGvLQDXqMreNbFDE12Oj3OLqwmXroLvRGs4cU6p8xXI6MJ8SYwncRo4D2uinITTURO3YVDii7oqYFLAGSHMh6BF2XyB2P81MZs1I3nn60zNB51hcA7lBjZuCr1Vj8ibgyWVoQa4TXFnWnJyeIjbiFQw0Pq1wDzpjyik80Q1BVFNWZup-CLljtztmzppVd1N8NlPYN6d2vUwV4m2rel8OMNdUHb1QfXxEdO9-z9dfApjmP9RRF9hZlBk8uPtw4IqXkXnw6O-qyXGCsJ_S84d2zN7NOt9U_aVDejIMOSR2waGk9X_1Wg6eWDC1HXXmttTxZblm3]--></g></svg>