<?xml version="1.0" encoding="UTF-8" standalone="no"?><svg xmlns="http://www.w3.org/2000/svg" xmlns:xlink="http://www.w3.org/1999/xlink" contentStyleType="text/css" height="1228px" preserveAspectRatio="none" style="width:2627px;height:1228px;background:#FFFFFF;" version="1.1" viewBox="0 0 2627 1228" width="2627px" zoomAndPan="magnify"><defs/><g><!--class ListCourseExamsUI--><g id="elem_ListCourseExamsUI"><rect codeLine="2" fill="#F1F1F1" height="53.24" id="ListCourseExamsUI" rx="2.5" ry="2.5" style="stroke:#181818;stroke-width:0.5;" width="220" x="1377" y="7"/><ellipse cx="1393" cy="25.62" fill="#ADD1B2" rx="12" ry="12" style="stroke:#181818;stroke-width:1.0;"/><path d="M1393.125,19.9637 Q1392.0469,19.9637 1391.1875,20.3387 Q1390.3281,20.6981 1389.7344,21.4012 Q1389.1406,22.0887 1388.8125,23.1044 Q1388.5,24.12 1388.5,25.4169 Q1388.5,27.12 1389.0156,28.3544 Q1389.5313,29.5731 1390.5469,30.2294 Q1391.5625,30.87 1393.1094,30.87 Q1394.0156,30.87 1394.8281,30.7137 Q1395.6406,30.5575 1396.8281,30.1981 L1396.8281,32.4012 Q1395.7969,32.7762 1394.9219,32.9169 Q1394.0469,33.0731 1392.8438,33.0731 Q1390.5625,33.0731 1389.0313,32.1356 Q1387.5,31.1825 1386.7344,29.4481 Q1385.9688,27.6981 1385.9688,25.4012 Q1385.9688,23.7294 1386.4375,22.3387 Q1386.9063,20.9481 1387.8125,19.9169 Q1388.7344,18.87 1390.0781,18.3231 Q1391.4219,17.7606 1393.1406,17.7606 Q1394.2813,17.7606 1395.3281,17.995 Q1396.3906,18.2137 1397.4844,18.7762 L1396.5156,20.8387 Q1395.5938,20.4325 1394.8125,20.1981 Q1394.0313,19.9637 1393.125,19.9637 Z " fill="#000000"/><text fill="#000000" font-family="sans-serif" font-size="20" lengthAdjust="spacing" textLength="186" x="1408" y="33.38">ListCourseExamsUI</text><line style="stroke:#181818;stroke-width:0.5;" x1="1378" x2="1596" y1="44.24" y2="44.24"/><line style="stroke:#181818;stroke-width:0.5;" x1="1378" x2="1596" y1="52.24" y2="52.24"/></g><!--class ListCourseExamsController--><g id="elem_ListCourseExamsController"><rect codeLine="6" fill="#F1F1F1" height="352.8797" id="ListCourseExamsController" rx="2.5" ry="2.5" style="stroke:#181818;stroke-width:0.5;" width="676" x="1422" y="120"/><ellipse cx="1624.5" cy="138.62" fill="#ADD1B2" rx="12" ry="12" style="stroke:#181818;stroke-width:1.0;"/><path d="M1624.625,132.9637 Q1623.5469,132.9637 1622.6875,133.3387 Q1621.8281,133.6981 1621.2344,134.4012 Q1620.6406,135.0887 1620.3125,136.1044 Q1620,137.12 1620,138.4169 Q1620,140.12 1620.5156,141.3544 Q1621.0313,142.5731 1622.0469,143.2294 Q1623.0625,143.87 1624.6094,143.87 Q1625.5156,143.87 1626.3281,143.7137 Q1627.1406,143.5575 1628.3281,143.1981 L1628.3281,145.4012 Q1627.2969,145.7762 1626.4219,145.9169 Q1625.5469,146.0731 1624.3438,146.0731 Q1622.0625,146.0731 1620.5313,145.1356 Q1619,144.1825 1618.2344,142.4481 Q1617.4688,140.6981 1617.4688,138.4012 Q1617.4688,136.7294 1617.9375,135.3387 Q1618.4063,133.9481 1619.3125,132.9169 Q1620.2344,131.87 1621.5781,131.3231 Q1622.9219,130.7606 1624.6406,130.7606 Q1625.7813,130.7606 1626.8281,130.995 Q1627.8906,131.2137 1628.9844,131.7762 L1628.0156,133.8387 Q1627.0938,133.4325 1626.3125,133.1981 Q1625.5313,132.9637 1624.625,132.9637 Z " fill="#000000"/><text fill="#000000" font-family="sans-serif" font-size="20" lengthAdjust="spacing" textLength="262" x="1646.5" y="146.38">ListCourseExamsController</text><line style="stroke:#181818;stroke-width:0.5;" x1="1423" x2="2097" y1="157.24" y2="157.24"/><rect fill="none" height="6" style="stroke:#C82930;stroke-width:1.0;" width="6" x="1430" y="173.36"/><text fill="#000000" font-family="sans-serif" font-size="20" lengthAdjust="spacing" textLength="166" x="1443" y="182.62">courseListService</text><rect fill="none" height="6" style="stroke:#C82930;stroke-width:1.0;" width="6" x="1430" y="200.5999"/><text fill="#000000" font-family="sans-serif" font-size="20" lengthAdjust="spacing" textLength="167" x="1443" y="209.8599">courseRepository</text><rect fill="none" height="6" style="stroke:#C82930;stroke-width:1.0;" width="6" x="1430" y="227.8399"/><text fill="#000000" font-family="sans-serif" font-size="20" lengthAdjust="spacing" textLength="199" x="1443" y="237.0999">authorizationService</text><rect fill="none" height="6" style="stroke:#C82930;stroke-width:1.0;" width="6" x="1430" y="255.0799"/><text fill="#000000" font-family="sans-serif" font-size="20" lengthAdjust="spacing" textLength="255" x="1443" y="264.3399">evaluationExamListService</text><rect fill="none" height="6" style="stroke:#C82930;stroke-width:1.0;" width="6" x="1430" y="282.3199"/><text fill="#000000" font-family="sans-serif" font-size="20" lengthAdjust="spacing" textLength="248" x="1443" y="291.5799">formativeExamListService</text><line style="stroke:#181818;stroke-width:0.5;" x1="1423" x2="2097" y1="301.4398" y2="301.4398"/><ellipse cx="1433" cy="320.5598" fill="#84BE84" rx="3" ry="3" style="stroke:#038048;stroke-width:1.0;"/><text fill="#000000" font-family="sans-serif" font-size="20" lengthAdjust="spacing" textLength="649" x="1443" y="326.8198">ListCourseExamsController(authorizationService, courseRepository,</text><text fill="#000000" font-family="sans-serif" font-size="20" lengthAdjust="spacing" textLength="521" x="1443" y="354.0598">evaluationExamRepository, formativeExamRepository)</text><text fill="#000000" font-family="sans-serif" font-size="20" lengthAdjust="spacing" textLength="5" x="1443" y="381.2998"> </text><ellipse cx="1433" cy="402.2798" fill="#84BE84" rx="3" ry="3" style="stroke:#038048;stroke-width:1.0;"/><text fill="#000000" font-family="sans-serif" font-size="20" lengthAdjust="spacing" textLength="277" x="1443" y="408.5398">listOpenInProgressCourses()</text><ellipse cx="1433" cy="429.5197" fill="#84BE84" rx="3" ry="3" style="stroke:#038048;stroke-width:1.0;"/><text fill="#000000" font-family="sans-serif" font-size="20" lengthAdjust="spacing" textLength="378" x="1443" y="435.7797">listCourseEvaluationExams(courseDTO)</text><ellipse cx="1433" cy="456.7597" fill="#84BE84" rx="3" ry="3" style="stroke:#038048;stroke-width:1.0;"/><text fill="#000000" font-family="sans-serif" font-size="20" lengthAdjust="spacing" textLength="374" x="1443" y="463.0197">listCourseFormativeExams(courseDTO)</text></g><!--class Course--><g id="elem_Course"><rect codeLine="21" fill="#F1F1F1" height="271.1598" id="Course" rx="2.5" ry="2.5" style="stroke:#181818;stroke-width:0.5;" width="242" x="7" y="755.5"/><ellipse cx="90" cy="774.12" fill="#ADD1B2" rx="12" ry="12" style="stroke:#181818;stroke-width:1.0;"/><path d="M90.125,768.4637 Q89.0469,768.4637 88.1875,768.8387 Q87.3281,769.1981 86.7344,769.9012 Q86.1406,770.5887 85.8125,771.6044 Q85.5,772.62 85.5,773.9169 Q85.5,775.62 86.0156,776.8544 Q86.5313,778.0731 87.5469,778.7294 Q88.5625,779.37 90.1094,779.37 Q91.0156,779.37 91.8281,779.2137 Q92.6406,779.0575 93.8281,778.6981 L93.8281,780.9012 Q92.7969,781.2762 91.9219,781.4169 Q91.0469,781.5731 89.8438,781.5731 Q87.5625,781.5731 86.0313,780.6356 Q84.5,779.6825 83.7344,777.9481 Q82.9688,776.1981 82.9688,773.9012 Q82.9688,772.2294 83.4375,770.8387 Q83.9063,769.4481 84.8125,768.4169 Q85.7344,767.37 87.0781,766.8231 Q88.4219,766.2606 90.1406,766.2606 Q91.2813,766.2606 92.3281,766.495 Q93.3906,766.7137 94.4844,767.2762 L93.5156,769.3387 Q92.5938,768.9325 91.8125,768.6981 Q91.0313,768.4637 90.125,768.4637 Z " fill="#000000"/><text fill="#000000" font-family="sans-serif" font-size="20" lengthAdjust="spacing" textLength="67" x="112" y="781.88">Course</text><line style="stroke:#181818;stroke-width:0.5;" x1="8" x2="248" y1="792.74" y2="792.74"/><rect fill="none" height="6" style="stroke:#C82930;stroke-width:1.0;" width="6" x="15" y="808.86"/><text fill="#000000" font-family="sans-serif" font-size="20" lengthAdjust="spacing" textLength="45" x="28" y="818.12">code</text><rect fill="none" height="6" style="stroke:#C82930;stroke-width:1.0;" width="6" x="15" y="836.0999"/><text fill="#000000" font-family="sans-serif" font-size="20" lengthAdjust="spacing" textLength="39" x="28" y="845.3599">title</text><rect fill="none" height="6" style="stroke:#C82930;stroke-width:1.0;" width="6" x="15" y="863.3399"/><text fill="#000000" font-family="sans-serif" font-size="20" lengthAdjust="spacing" textLength="110" x="28" y="872.5999">description</text><rect fill="none" height="6" style="stroke:#C82930;stroke-width:1.0;" width="6" x="15" y="890.5799"/><text fill="#000000" font-family="sans-serif" font-size="20" lengthAdjust="spacing" textLength="162" x="28" y="899.8399">enrolmentLimits</text><rect fill="none" height="6" style="stroke:#C82930;stroke-width:1.0;" width="6" x="15" y="917.8199"/><text fill="#000000" font-family="sans-serif" font-size="20" lengthAdjust="spacing" textLength="113" x="28" y="927.0799">courseState</text><rect fill="none" height="6" style="stroke:#C82930;stroke-width:1.0;" width="6" x="15" y="945.0598"/><text fill="#000000" font-family="sans-serif" font-size="20" lengthAdjust="spacing" textLength="215" x="28" y="954.3198">courseEnrolmentState</text><rect fill="none" height="6" style="stroke:#C82930;stroke-width:1.0;" width="6" x="15" y="972.2998"/><text fill="#000000" font-family="sans-serif" font-size="20" lengthAdjust="spacing" textLength="93" x="28" y="981.5598">createdAt</text><line style="stroke:#181818;stroke-width:0.5;" x1="8" x2="248" y1="991.4198" y2="991.4198"/><ellipse cx="18" cy="1010.5398" fill="#84BE84" rx="3" ry="3" style="stroke:#038048;stroke-width:1.0;"/><text fill="#000000" font-family="sans-serif" font-size="20" lengthAdjust="spacing" textLength="66" x="28" y="1016.7998">toDto()</text></g><!--class RepositoryFactory--><g id="elem_RepositoryFactory"><rect codeLine="32" fill="#F1F1F1" height="80.4799" id="RepositoryFactory" rx="2.5" ry="2.5" style="stroke:#181818;stroke-width:0.5;" width="212" x="1078" y="560.5"/><ellipse cx="1096.25" cy="579.12" fill="#ADD1B2" rx="12" ry="12" style="stroke:#181818;stroke-width:1.0;"/><path d="M1096.375,573.4637 Q1095.2969,573.4637 1094.4375,573.8387 Q1093.5781,574.1981 1092.9844,574.9012 Q1092.3906,575.5887 1092.0625,576.6044 Q1091.75,577.62 1091.75,578.9169 Q1091.75,580.62 1092.2656,581.8544 Q1092.7813,583.0731 1093.7969,583.7294 Q1094.8125,584.37 1096.3594,584.37 Q1097.2656,584.37 1098.0781,584.2137 Q1098.8906,584.0575 1100.0781,583.6981 L1100.0781,585.9012 Q1099.0469,586.2762 1098.1719,586.4169 Q1097.2969,586.5731 1096.0938,586.5731 Q1093.8125,586.5731 1092.2813,585.6356 Q1090.75,584.6825 1089.9844,582.9481 Q1089.2188,581.1981 1089.2188,578.9012 Q1089.2188,577.2294 1089.6875,575.8387 Q1090.1563,574.4481 1091.0625,573.4169 Q1091.9844,572.37 1093.3281,571.8231 Q1094.6719,571.2606 1096.3906,571.2606 Q1097.5313,571.2606 1098.5781,571.495 Q1099.6406,571.7137 1100.7344,572.2762 L1099.7656,574.3387 Q1098.8438,573.9325 1098.0625,573.6981 Q1097.2813,573.4637 1096.375,573.4637 Z " fill="#000000"/><text fill="#000000" font-family="sans-serif" font-size="20" lengthAdjust="spacing" textLength="173" x="1111.75" y="586.88">RepositoryFactory</text><line style="stroke:#181818;stroke-width:0.5;" x1="1079" x2="1289" y1="597.74" y2="597.74"/><line style="stroke:#181818;stroke-width:0.5;" x1="1079" x2="1289" y1="605.74" y2="605.74"/><ellipse cx="1089" cy="624.86" fill="#84BE84" rx="3" ry="3" style="stroke:#038048;stroke-width:1.0;"/><text fill="#000000" font-family="sans-serif" font-size="20" lengthAdjust="spacing" textLength="185" x="1099" y="631.12">RepositoryFactory()</text></g><!--class CourseRepository--><g id="elem_CourseRepository"><rect codeLine="36" fill="#F1F1F1" height="107.7199" id="CourseRepository" rx="2.5" ry="2.5" style="stroke:#181818;stroke-width:0.5;" width="210" x="561" y="837"/><ellipse cx="586.45" cy="855.62" fill="#B4A7E5" rx="12" ry="12" style="stroke:#181818;stroke-width:1.0;"/><path d="M589.0281,863.12 L583.2469,863.12 L583.2469,861.5106 L584.9344,861.1356 L584.9344,850.2137 L583.2469,849.8231 L583.2469,848.2137 L589.0281,848.2137 L589.0281,849.8231 L587.3563,850.2137 L587.3563,861.1356 L589.0281,861.5106 L589.0281,863.12 Z " fill="#000000"/><text fill="#000000" font-family="sans-serif" font-size="20" font-style="italic" lengthAdjust="spacing" textLength="155" x="603.55" y="863.38">CourseRepository</text><line style="stroke:#181818;stroke-width:0.5;" x1="562" x2="770" y1="874.24" y2="874.24"/><line style="stroke:#181818;stroke-width:0.5;" x1="562" x2="770" y1="882.24" y2="882.24"/><ellipse cx="572" cy="901.36" fill="#84BE84" rx="3" ry="3" style="stroke:#038048;stroke-width:1.0;"/><text fill="#000000" font-family="sans-serif" font-size="20" lengthAdjust="spacing" textLength="129" x="582" y="907.62">findAllOpen()</text><ellipse cx="572" cy="928.5999" fill="#84BE84" rx="3" ry="3" style="stroke:#038048;stroke-width:1.0;"/><text fill="#000000" font-family="sans-serif" font-size="20" lengthAdjust="spacing" textLength="183" x="582" y="934.8599">findAllInProgress()</text></g><!--class EvaluationExamRepository--><g id="elem_EvaluationExamRepository"><rect codeLine="41" fill="#F1F1F1" height="80.4799" id="EvaluationExamRepository" rx="2.5" ry="2.5" style="stroke:#181818;stroke-width:0.5;" width="297" x="1359.5" y="851"/><ellipse cx="1388.1" cy="869.62" fill="#B4A7E5" rx="12" ry="12" style="stroke:#181818;stroke-width:1.0;"/><path d="M1390.6781,877.12 L1384.8969,877.12 L1384.8969,875.5106 L1386.5844,875.1356 L1386.5844,864.2137 L1384.8969,863.8231 L1384.8969,862.2137 L1390.6781,862.2137 L1390.6781,863.8231 L1389.0063,864.2137 L1389.0063,875.1356 L1390.6781,875.5106 L1390.6781,877.12 Z " fill="#000000"/><text fill="#000000" font-family="sans-serif" font-size="20" font-style="italic" lengthAdjust="spacing" textLength="235" x="1405.9" y="877.38">EvaluationExamRepository</text><line style="stroke:#181818;stroke-width:0.5;" x1="1360.5" x2="1655.5" y1="888.24" y2="888.24"/><line style="stroke:#181818;stroke-width:0.5;" x1="1360.5" x2="1655.5" y1="896.24" y2="896.24"/><ellipse cx="1370.5" cy="915.36" fill="#84BE84" rx="3" ry="3" style="stroke:#038048;stroke-width:1.0;"/><text fill="#000000" font-family="sans-serif" font-size="20" lengthAdjust="spacing" textLength="270" x="1380.5" y="921.62">findAllCourseExams(course)</text></g><!--class FormativeExamRepository--><g id="elem_FormativeExamRepository"><rect codeLine="45" fill="#F1F1F1" height="80.4799" id="FormativeExamRepository" rx="2.5" ry="2.5" style="stroke:#181818;stroke-width:0.5;" width="297" x="1027.5" y="851"/><ellipse cx="1057.9" cy="869.62" fill="#B4A7E5" rx="12" ry="12" style="stroke:#181818;stroke-width:1.0;"/><path d="M1060.4781,877.12 L1054.6969,877.12 L1054.6969,875.5106 L1056.3844,875.1356 L1056.3844,864.2137 L1054.6969,863.8231 L1054.6969,862.2137 L1060.4781,862.2137 L1060.4781,863.8231 L1058.8063,864.2137 L1058.8063,875.1356 L1060.4781,875.5106 L1060.4781,877.12 Z " fill="#000000"/><text fill="#000000" font-family="sans-serif" font-size="20" font-style="italic" lengthAdjust="spacing" textLength="231" x="1076.1" y="877.38">FormativeExamRepository</text><line style="stroke:#181818;stroke-width:0.5;" x1="1028.5" x2="1323.5" y1="888.24" y2="888.24"/><line style="stroke:#181818;stroke-width:0.5;" x1="1028.5" x2="1323.5" y1="896.24" y2="896.24"/><ellipse cx="1038.5" cy="915.36" fill="#84BE84" rx="3" ry="3" style="stroke:#038048;stroke-width:1.0;"/><text fill="#000000" font-family="sans-serif" font-size="20" lengthAdjust="spacing" textLength="270" x="1048.5" y="921.62">findAllCourseExams(course)</text></g><!--class EvaluationExamListService--><g id="elem_EvaluationExamListService"><rect codeLine="49" fill="#F1F1F1" height="107.7199" id="EvaluationExamListService" rx="2.5" ry="2.5" style="stroke:#181818;stroke-width:0.5;" width="289" x="2057.5" y="546.5"/><ellipse cx="2073.5" cy="565.12" fill="#ADD1B2" rx="12" ry="12" style="stroke:#181818;stroke-width:1.0;"/><path d="M2073.625,559.4637 Q2072.5469,559.4637 2071.6875,559.8387 Q2070.8281,560.1981 2070.2344,560.9012 Q2069.6406,561.5887 2069.3125,562.6044 Q2069,563.62 2069,564.9169 Q2069,566.62 2069.5156,567.8544 Q2070.0313,569.0731 2071.0469,569.7294 Q2072.0625,570.37 2073.6094,570.37 Q2074.5156,570.37 2075.3281,570.2137 Q2076.1406,570.0575 2077.3281,569.6981 L2077.3281,571.9012 Q2076.2969,572.2762 2075.4219,572.4169 Q2074.5469,572.5731 2073.3438,572.5731 Q2071.0625,572.5731 2069.5313,571.6356 Q2068,570.6825 2067.2344,568.9481 Q2066.4688,567.1981 2066.4688,564.9012 Q2066.4688,563.2294 2066.9375,561.8387 Q2067.4063,560.4481 2068.3125,559.4169 Q2069.2344,558.37 2070.5781,557.8231 Q2071.9219,557.2606 2073.6406,557.2606 Q2074.7813,557.2606 2075.8281,557.495 Q2076.8906,557.7137 2077.9844,558.2762 L2077.0156,560.3387 Q2076.0938,559.9325 2075.3125,559.6981 Q2074.5313,559.4637 2073.625,559.4637 Z " fill="#000000"/><text fill="#000000" font-family="sans-serif" font-size="20" lengthAdjust="spacing" textLength="255" x="2088.5" y="572.88">EvaluationExamListService</text><line style="stroke:#181818;stroke-width:0.5;" x1="2058.5" x2="2345.5" y1="583.74" y2="583.74"/><rect fill="none" height="6" style="stroke:#C82930;stroke-width:1.0;" width="6" x="2065.5" y="599.86"/><text fill="#000000" font-family="sans-serif" font-size="20" lengthAdjust="spacing" textLength="155" x="2078.5" y="609.12">examRepository</text><line style="stroke:#181818;stroke-width:0.5;" x1="2058.5" x2="2345.5" y1="618.9799" y2="618.9799"/><ellipse cx="2068.5" cy="638.0999" fill="#84BE84" rx="3" ry="3" style="stroke:#038048;stroke-width:1.0;"/><text fill="#000000" font-family="sans-serif" font-size="20" lengthAdjust="spacing" textLength="260" x="2078.5" y="644.3599">listAllCourseExams(course)</text></g><!--class FormativeExamListService--><g id="elem_FormativeExamListService"><rect codeLine="54" fill="#F1F1F1" height="107.7199" id="FormativeExamListService" rx="2.5" ry="2.5" style="stroke:#181818;stroke-width:0.5;" width="287" x="1631.5" y="546.5"/><ellipse cx="1648.4" cy="565.12" fill="#ADD1B2" rx="12" ry="12" style="stroke:#181818;stroke-width:1.0;"/><path d="M1648.525,559.4637 Q1647.4469,559.4637 1646.5875,559.8387 Q1645.7281,560.1981 1645.1344,560.9012 Q1644.5406,561.5887 1644.2125,562.6044 Q1643.9,563.62 1643.9,564.9169 Q1643.9,566.62 1644.4156,567.8544 Q1644.9313,569.0731 1645.9469,569.7294 Q1646.9625,570.37 1648.5094,570.37 Q1649.4156,570.37 1650.2281,570.2137 Q1651.0406,570.0575 1652.2281,569.6981 L1652.2281,571.9012 Q1651.1969,572.2762 1650.3219,572.4169 Q1649.4469,572.5731 1648.2438,572.5731 Q1645.9625,572.5731 1644.4313,571.6356 Q1642.9,570.6825 1642.1344,568.9481 Q1641.3688,567.1981 1641.3688,564.9012 Q1641.3688,563.2294 1641.8375,561.8387 Q1642.3063,560.4481 1643.2125,559.4169 Q1644.1344,558.37 1645.4781,557.8231 Q1646.8219,557.2606 1648.5406,557.2606 Q1649.6813,557.2606 1650.7281,557.495 Q1651.7906,557.7137 1652.8844,558.2762 L1651.9156,560.3387 Q1650.9938,559.9325 1650.2125,559.6981 Q1649.4313,559.4637 1648.525,559.4637 Z " fill="#000000"/><text fill="#000000" font-family="sans-serif" font-size="20" lengthAdjust="spacing" textLength="251" x="1663.6" y="572.88">FormativeExamListService</text><line style="stroke:#181818;stroke-width:0.5;" x1="1632.5" x2="1917.5" y1="583.74" y2="583.74"/><rect fill="none" height="6" style="stroke:#C82930;stroke-width:1.0;" width="6" x="1639.5" y="599.86"/><text fill="#000000" font-family="sans-serif" font-size="20" lengthAdjust="spacing" textLength="155" x="1652.5" y="609.12">examRepository</text><line style="stroke:#181818;stroke-width:0.5;" x1="1632.5" x2="1917.5" y1="618.9799" y2="618.9799"/><ellipse cx="1642.5" cy="638.0999" fill="#84BE84" rx="3" ry="3" style="stroke:#038048;stroke-width:1.0;"/><text fill="#000000" font-family="sans-serif" font-size="20" lengthAdjust="spacing" textLength="260" x="1652.5" y="644.3599">listAllCourseExams(course)</text></g><!--class CourseListService--><g id="elem_CourseListService"><rect codeLine="59" fill="#F1F1F1" height="134.9599" id="CourseListService" rx="2.5" ry="2.5" style="stroke:#181818;stroke-width:0.5;" width="252" x="410" y="533"/><ellipse cx="448.05" cy="551.62" fill="#ADD1B2" rx="12" ry="12" style="stroke:#181818;stroke-width:1.0;"/><path d="M448.175,545.9637 Q447.0969,545.9637 446.2375,546.3387 Q445.3781,546.6981 444.7844,547.4012 Q444.1906,548.0887 443.8625,549.1044 Q443.55,550.12 443.55,551.4169 Q443.55,553.12 444.0656,554.3544 Q444.5813,555.5731 445.5969,556.2294 Q446.6125,556.87 448.1594,556.87 Q449.0656,556.87 449.8781,556.7137 Q450.6906,556.5575 451.8781,556.1981 L451.8781,558.4012 Q450.8469,558.7762 449.9719,558.9169 Q449.0969,559.0731 447.8938,559.0731 Q445.6125,559.0731 444.0813,558.1356 Q442.55,557.1825 441.7844,555.4481 Q441.0188,553.6981 441.0188,551.4012 Q441.0188,549.7294 441.4875,548.3387 Q441.9563,546.9481 442.8625,545.9169 Q443.7844,544.87 445.1281,544.3231 Q446.4719,543.7606 448.1906,543.7606 Q449.3313,543.7606 450.3781,543.995 Q451.4406,544.2137 452.5344,544.7762 L451.5656,546.8387 Q450.6438,546.4325 449.8625,546.1981 Q449.0813,545.9637 448.175,545.9637 Z " fill="#000000"/><text fill="#000000" font-family="sans-serif" font-size="20" lengthAdjust="spacing" textLength="169" x="467.95" y="559.38">CourseListService</text><line style="stroke:#181818;stroke-width:0.5;" x1="411" x2="661" y1="570.24" y2="570.24"/><rect fill="none" height="6" style="stroke:#C82930;stroke-width:1.0;" width="6" x="418" y="586.36"/><text fill="#000000" font-family="sans-serif" font-size="20" lengthAdjust="spacing" textLength="167" x="431" y="595.62">courseRepository</text><line style="stroke:#181818;stroke-width:0.5;" x1="411" x2="661" y1="605.4799" y2="605.4799"/><ellipse cx="421" cy="624.5999" fill="#84BE84" rx="3" ry="3" style="stroke:#038048;stroke-width:1.0;"/><text fill="#000000" font-family="sans-serif" font-size="20" lengthAdjust="spacing" textLength="171" x="431" y="630.8599">listOpenCourses()</text><ellipse cx="421" cy="651.8399" fill="#84BE84" rx="3" ry="3" style="stroke:#038048;stroke-width:1.0;"/><text fill="#000000" font-family="sans-serif" font-size="20" lengthAdjust="spacing" textLength="225" x="431" y="658.0999">listInProgressCourses()</text></g><!--class EvaluationExamDTO--><g id="elem_EvaluationExamDTO"><rect codeLine="67" fill="#F1F1F1" height="298.3997" id="EvaluationExamDTO" rx="2.5" ry="2.5" style="stroke:#181818;stroke-width:0.5;" width="229" x="2169.5" y="742"/><ellipse cx="2185.5" cy="760.62" fill="#ADD1B2" rx="12" ry="12" style="stroke:#181818;stroke-width:1.0;"/><path d="M2185.625,754.9637 Q2184.5469,754.9637 2183.6875,755.3387 Q2182.8281,755.6981 2182.2344,756.4012 Q2181.6406,757.0887 2181.3125,758.1044 Q2181,759.12 2181,760.4169 Q2181,762.12 2181.5156,763.3544 Q2182.0313,764.5731 2183.0469,765.2294 Q2184.0625,765.87 2185.6094,765.87 Q2186.5156,765.87 2187.3281,765.7137 Q2188.1406,765.5575 2189.3281,765.1981 L2189.3281,767.4012 Q2188.2969,767.7762 2187.4219,767.9169 Q2186.5469,768.0731 2185.3438,768.0731 Q2183.0625,768.0731 2181.5313,767.1356 Q2180,766.1825 2179.2344,764.4481 Q2178.4688,762.6981 2178.4688,760.4012 Q2178.4688,758.7294 2178.9375,757.3387 Q2179.4063,755.9481 2180.3125,754.9169 Q2181.2344,753.87 2182.5781,753.3231 Q2183.9219,752.7606 2185.6406,752.7606 Q2186.7813,752.7606 2187.8281,752.995 Q2188.8906,753.2137 2189.9844,753.7762 L2189.0156,755.8387 Q2188.0938,755.4325 2187.3125,755.1981 Q2186.5313,754.9637 2185.625,754.9637 Z " fill="#000000"/><text fill="#000000" font-family="sans-serif" font-size="20" lengthAdjust="spacing" textLength="195" x="2200.5" y="768.38">EvaluationExamDTO</text><line style="stroke:#181818;stroke-width:0.5;" x1="2170.5" x2="2397.5" y1="779.24" y2="779.24"/><rect fill="none" height="6" style="stroke:#C82930;stroke-width:1.0;" width="6" x="2177.5" y="795.36"/><text fill="#000000" font-family="sans-serif" font-size="20" lengthAdjust="spacing" textLength="45" x="2190.5" y="804.62">code</text><rect fill="none" height="6" style="stroke:#C82930;stroke-width:1.0;" width="6" x="2177.5" y="822.5999"/><text fill="#000000" font-family="sans-serif" font-size="20" lengthAdjust="spacing" textLength="39" x="2190.5" y="831.8599">title</text><rect fill="none" height="6" style="stroke:#C82930;stroke-width:1.0;" width="6" x="2177.5" y="849.8399"/><text fill="#000000" font-family="sans-serif" font-size="20" lengthAdjust="spacing" textLength="64" x="2190.5" y="859.0999">course</text><rect fill="none" height="6" style="stroke:#C82930;stroke-width:1.0;" width="6" x="2177.5" y="877.0799"/><text fill="#000000" font-family="sans-serif" font-size="20" lengthAdjust="spacing" textLength="72" x="2190.5" y="886.3399">teacher</text><rect fill="none" height="6" style="stroke:#C82930;stroke-width:1.0;" width="6" x="2177.5" y="904.3199"/><text fill="#000000" font-family="sans-serif" font-size="20" lengthAdjust="spacing" textLength="95" x="2190.5" y="913.5799">startTime</text><rect fill="none" height="6" style="stroke:#C82930;stroke-width:1.0;" width="6" x="2177.5" y="931.5598"/><text fill="#000000" font-family="sans-serif" font-size="20" lengthAdjust="spacing" textLength="86" x="2190.5" y="940.8198">endTime</text><rect fill="none" height="6" style="stroke:#C82930;stroke-width:1.0;" width="6" x="2177.5" y="958.7998"/><text fill="#000000" font-family="sans-serif" font-size="20" lengthAdjust="spacing" textLength="91" x="2190.5" y="968.0598">identifier</text><rect fill="none" height="6" style="stroke:#C82930;stroke-width:1.0;" width="6" x="2177.5" y="986.0398"/><text fill="#000000" font-family="sans-serif" font-size="20" lengthAdjust="spacing" textLength="110" x="2190.5" y="995.2998">description</text><rect fill="none" height="6" style="stroke:#C82930;stroke-width:1.0;" width="6" x="2177.5" y="1013.2798"/><text fill="#000000" font-family="sans-serif" font-size="20" lengthAdjust="spacing" textLength="48" x="2190.5" y="1022.5398">state</text><line style="stroke:#181818;stroke-width:0.5;" x1="2170.5" x2="2397.5" y1="1032.3997" y2="1032.3997"/></g><!--class EvaluationExam--><g id="elem_EvaluationExam"><rect codeLine="79" fill="#F1F1F1" height="325.6397" id="EvaluationExam" rx="2.5" ry="2.5" style="stroke:#181818;stroke-width:0.5;" width="187" x="2433.5" y="728"/><ellipse cx="2449.5" cy="746.62" fill="#ADD1B2" rx="12" ry="12" style="stroke:#181818;stroke-width:1.0;"/><path d="M2449.625,740.9637 Q2448.5469,740.9637 2447.6875,741.3387 Q2446.8281,741.6981 2446.2344,742.4012 Q2445.6406,743.0887 2445.3125,744.1044 Q2445,745.12 2445,746.4169 Q2445,748.12 2445.5156,749.3544 Q2446.0313,750.5731 2447.0469,751.2294 Q2448.0625,751.87 2449.6094,751.87 Q2450.5156,751.87 2451.3281,751.7137 Q2452.1406,751.5575 2453.3281,751.1981 L2453.3281,753.4012 Q2452.2969,753.7762 2451.4219,753.9169 Q2450.5469,754.0731 2449.3438,754.0731 Q2447.0625,754.0731 2445.5313,753.1356 Q2444,752.1825 2443.2344,750.4481 Q2442.4688,748.6981 2442.4688,746.4012 Q2442.4688,744.7294 2442.9375,743.3387 Q2443.4063,741.9481 2444.3125,740.9169 Q2445.2344,739.87 2446.5781,739.3231 Q2447.9219,738.7606 2449.6406,738.7606 Q2450.7813,738.7606 2451.8281,738.995 Q2452.8906,739.2137 2453.9844,739.7762 L2453.0156,741.8387 Q2452.0938,741.4325 2451.3125,741.1981 Q2450.5313,740.9637 2449.625,740.9637 Z " fill="#000000"/><text fill="#000000" font-family="sans-serif" font-size="20" lengthAdjust="spacing" textLength="153" x="2464.5" y="754.38">EvaluationExam</text><line style="stroke:#181818;stroke-width:0.5;" x1="2434.5" x2="2619.5" y1="765.24" y2="765.24"/><rect fill="none" height="6" style="stroke:#C82930;stroke-width:1.0;" width="6" x="2441.5" y="781.36"/><text fill="#000000" font-family="sans-serif" font-size="20" lengthAdjust="spacing" textLength="45" x="2454.5" y="790.62">code</text><rect fill="none" height="6" style="stroke:#C82930;stroke-width:1.0;" width="6" x="2441.5" y="808.5999"/><text fill="#000000" font-family="sans-serif" font-size="20" lengthAdjust="spacing" textLength="39" x="2454.5" y="817.8599">title</text><rect fill="none" height="6" style="stroke:#C82930;stroke-width:1.0;" width="6" x="2441.5" y="835.8399"/><text fill="#000000" font-family="sans-serif" font-size="20" lengthAdjust="spacing" textLength="64" x="2454.5" y="845.0999">course</text><rect fill="none" height="6" style="stroke:#C82930;stroke-width:1.0;" width="6" x="2441.5" y="863.0799"/><text fill="#000000" font-family="sans-serif" font-size="20" lengthAdjust="spacing" textLength="72" x="2454.5" y="872.3399">teacher</text><rect fill="none" height="6" style="stroke:#C82930;stroke-width:1.0;" width="6" x="2441.5" y="890.3199"/><text fill="#000000" font-family="sans-serif" font-size="20" lengthAdjust="spacing" textLength="95" x="2454.5" y="899.5799">startTime</text><rect fill="none" height="6" style="stroke:#C82930;stroke-width:1.0;" width="6" x="2441.5" y="917.5598"/><text fill="#000000" font-family="sans-serif" font-size="20" lengthAdjust="spacing" textLength="86" x="2454.5" y="926.8198">endTime</text><rect fill="none" height="6" style="stroke:#C82930;stroke-width:1.0;" width="6" x="2441.5" y="944.7998"/><text fill="#000000" font-family="sans-serif" font-size="20" lengthAdjust="spacing" textLength="91" x="2454.5" y="954.0598">identifier</text><rect fill="none" height="6" style="stroke:#C82930;stroke-width:1.0;" width="6" x="2441.5" y="972.0398"/><text fill="#000000" font-family="sans-serif" font-size="20" lengthAdjust="spacing" textLength="110" x="2454.5" y="981.2998">description</text><rect fill="none" height="6" style="stroke:#C82930;stroke-width:1.0;" width="6" x="2441.5" y="999.2798"/><text fill="#000000" font-family="sans-serif" font-size="20" lengthAdjust="spacing" textLength="48" x="2454.5" y="1008.5398">state</text><line style="stroke:#181818;stroke-width:0.5;" x1="2434.5" x2="2619.5" y1="1018.3997" y2="1018.3997"/><ellipse cx="2444.5" cy="1037.5197" fill="#84BE84" rx="3" ry="3" style="stroke:#038048;stroke-width:1.0;"/><text fill="#000000" font-family="sans-serif" font-size="20" lengthAdjust="spacing" textLength="66" x="2454.5" y="1043.7797">toDto()</text></g><!--class FormativeExam--><g id="elem_FormativeExam"><rect codeLine="92" fill="#F1F1F1" height="271.1598" id="FormativeExam" rx="2.5" ry="2.5" style="stroke:#181818;stroke-width:0.5;" width="183" x="1691.5" y="755.5"/><ellipse cx="1707.5" cy="774.12" fill="#ADD1B2" rx="12" ry="12" style="stroke:#181818;stroke-width:1.0;"/><path d="M1707.625,768.4637 Q1706.5469,768.4637 1705.6875,768.8387 Q1704.8281,769.1981 1704.2344,769.9012 Q1703.6406,770.5887 1703.3125,771.6044 Q1703,772.62 1703,773.9169 Q1703,775.62 1703.5156,776.8544 Q1704.0313,778.0731 1705.0469,778.7294 Q1706.0625,779.37 1707.6094,779.37 Q1708.5156,779.37 1709.3281,779.2137 Q1710.1406,779.0575 1711.3281,778.6981 L1711.3281,780.9012 Q1710.2969,781.2762 1709.4219,781.4169 Q1708.5469,781.5731 1707.3438,781.5731 Q1705.0625,781.5731 1703.5313,780.6356 Q1702,779.6825 1701.2344,777.9481 Q1700.4688,776.1981 1700.4688,773.9012 Q1700.4688,772.2294 1700.9375,770.8387 Q1701.4063,769.4481 1702.3125,768.4169 Q1703.2344,767.37 1704.5781,766.8231 Q1705.9219,766.2606 1707.6406,766.2606 Q1708.7813,766.2606 1709.8281,766.495 Q1710.8906,766.7137 1711.9844,767.2762 L1711.0156,769.3387 Q1710.0938,768.9325 1709.3125,768.6981 Q1708.5313,768.4637 1707.625,768.4637 Z " fill="#000000"/><text fill="#000000" font-family="sans-serif" font-size="20" lengthAdjust="spacing" textLength="149" x="1722.5" y="781.88">FormativeExam</text><line style="stroke:#181818;stroke-width:0.5;" x1="1692.5" x2="1873.5" y1="792.74" y2="792.74"/><rect fill="none" height="6" style="stroke:#C82930;stroke-width:1.0;" width="6" x="1699.5" y="808.86"/><text fill="#000000" font-family="sans-serif" font-size="20" lengthAdjust="spacing" textLength="45" x="1712.5" y="818.12">code</text><rect fill="none" height="6" style="stroke:#C82930;stroke-width:1.0;" width="6" x="1699.5" y="836.0999"/><text fill="#000000" font-family="sans-serif" font-size="20" lengthAdjust="spacing" textLength="39" x="1712.5" y="845.3599">title</text><rect fill="none" height="6" style="stroke:#C82930;stroke-width:1.0;" width="6" x="1699.5" y="863.3399"/><text fill="#000000" font-family="sans-serif" font-size="20" lengthAdjust="spacing" textLength="64" x="1712.5" y="872.5999">course</text><rect fill="none" height="6" style="stroke:#C82930;stroke-width:1.0;" width="6" x="1699.5" y="890.5799"/><text fill="#000000" font-family="sans-serif" font-size="20" lengthAdjust="spacing" textLength="72" x="1712.5" y="899.8399">teacher</text><rect fill="none" height="6" style="stroke:#C82930;stroke-width:1.0;" width="6" x="1699.5" y="917.8199"/><text fill="#000000" font-family="sans-serif" font-size="20" lengthAdjust="spacing" textLength="91" x="1712.5" y="927.0799">identifier</text><rect fill="none" height="6" style="stroke:#C82930;stroke-width:1.0;" width="6" x="1699.5" y="945.0598"/><text fill="#000000" font-family="sans-serif" font-size="20" lengthAdjust="spacing" textLength="110" x="1712.5" y="954.3198">description</text><rect fill="none" height="6" style="stroke:#C82930;stroke-width:1.0;" width="6" x="1699.5" y="972.2998"/><text fill="#000000" font-family="sans-serif" font-size="20" lengthAdjust="spacing" textLength="48" x="1712.5" y="981.5598">state</text><line style="stroke:#181818;stroke-width:0.5;" x1="1692.5" x2="1873.5" y1="991.4198" y2="991.4198"/><ellipse cx="1702.5" cy="1010.5398" fill="#84BE84" rx="3" ry="3" style="stroke:#038048;stroke-width:1.0;"/><text fill="#000000" font-family="sans-serif" font-size="20" lengthAdjust="spacing" textLength="66" x="1712.5" y="1016.7998">toDto()</text></g><!--class FormativeExamDTO--><g id="elem_FormativeExamDTO"><rect codeLine="103" fill="#F1F1F1" height="243.9198" id="FormativeExamDTO" rx="2.5" ry="2.5" style="stroke:#181818;stroke-width:0.5;" width="225" x="1909.5" y="769"/><ellipse cx="1925.5" cy="787.62" fill="#ADD1B2" rx="12" ry="12" style="stroke:#181818;stroke-width:1.0;"/><path d="M1925.625,781.9637 Q1924.5469,781.9637 1923.6875,782.3387 Q1922.8281,782.6981 1922.2344,783.4012 Q1921.6406,784.0887 1921.3125,785.1044 Q1921,786.12 1921,787.4169 Q1921,789.12 1921.5156,790.3544 Q1922.0313,791.5731 1923.0469,792.2294 Q1924.0625,792.87 1925.6094,792.87 Q1926.5156,792.87 1927.3281,792.7137 Q1928.1406,792.5575 1929.3281,792.1981 L1929.3281,794.4012 Q1928.2969,794.7762 1927.4219,794.9169 Q1926.5469,795.0731 1925.3438,795.0731 Q1923.0625,795.0731 1921.5313,794.1356 Q1920,793.1825 1919.2344,791.4481 Q1918.4688,789.6981 1918.4688,787.4012 Q1918.4688,785.7294 1918.9375,784.3387 Q1919.4063,782.9481 1920.3125,781.9169 Q1921.2344,780.87 1922.5781,780.3231 Q1923.9219,779.7606 1925.6406,779.7606 Q1926.7813,779.7606 1927.8281,779.995 Q1928.8906,780.2137 1929.9844,780.7762 L1929.0156,782.8387 Q1928.0938,782.4325 1927.3125,782.1981 Q1926.5313,781.9637 1925.625,781.9637 Z " fill="#000000"/><text fill="#000000" font-family="sans-serif" font-size="20" lengthAdjust="spacing" textLength="191" x="1940.5" y="795.38">FormativeExamDTO</text><line style="stroke:#181818;stroke-width:0.5;" x1="1910.5" x2="2133.5" y1="806.24" y2="806.24"/><rect fill="none" height="6" style="stroke:#C82930;stroke-width:1.0;" width="6" x="1917.5" y="822.36"/><text fill="#000000" font-family="sans-serif" font-size="20" lengthAdjust="spacing" textLength="45" x="1930.5" y="831.62">code</text><rect fill="none" height="6" style="stroke:#C82930;stroke-width:1.0;" width="6" x="1917.5" y="849.5999"/><text fill="#000000" font-family="sans-serif" font-size="20" lengthAdjust="spacing" textLength="39" x="1930.5" y="858.8599">title</text><rect fill="none" height="6" style="stroke:#C82930;stroke-width:1.0;" width="6" x="1917.5" y="876.8399"/><text fill="#000000" font-family="sans-serif" font-size="20" lengthAdjust="spacing" textLength="64" x="1930.5" y="886.0999">course</text><rect fill="none" height="6" style="stroke:#C82930;stroke-width:1.0;" width="6" x="1917.5" y="904.0799"/><text fill="#000000" font-family="sans-serif" font-size="20" lengthAdjust="spacing" textLength="72" x="1930.5" y="913.3399">teacher</text><rect fill="none" height="6" style="stroke:#C82930;stroke-width:1.0;" width="6" x="1917.5" y="931.3199"/><text fill="#000000" font-family="sans-serif" font-size="20" lengthAdjust="spacing" textLength="91" x="1930.5" y="940.5799">identifier</text><rect fill="none" height="6" style="stroke:#C82930;stroke-width:1.0;" width="6" x="1917.5" y="958.5598"/><text fill="#000000" font-family="sans-serif" font-size="20" lengthAdjust="spacing" textLength="110" x="1930.5" y="967.8198">description</text><rect fill="none" height="6" style="stroke:#C82930;stroke-width:1.0;" width="6" x="1917.5" y="985.7998"/><text fill="#000000" font-family="sans-serif" font-size="20" lengthAdjust="spacing" textLength="48" x="1930.5" y="995.0598">state</text><line style="stroke:#181818;stroke-width:0.5;" x1="1910.5" x2="2133.5" y1="1004.9198" y2="1004.9198"/></g><!--class CourseDTO--><g id="elem_CourseDTO"><rect codeLine="113" fill="#F1F1F1" height="243.9198" id="CourseDTO" rx="2.5" ry="2.5" style="stroke:#181818;stroke-width:0.5;" width="242" x="284" y="769"/><ellipse cx="346" cy="787.62" fill="#ADD1B2" rx="12" ry="12" style="stroke:#181818;stroke-width:1.0;"/><path d="M346.125,781.9637 Q345.0469,781.9637 344.1875,782.3387 Q343.3281,782.6981 342.7344,783.4012 Q342.1406,784.0887 341.8125,785.1044 Q341.5,786.12 341.5,787.4169 Q341.5,789.12 342.0156,790.3544 Q342.5313,791.5731 343.5469,792.2294 Q344.5625,792.87 346.1094,792.87 Q347.0156,792.87 347.8281,792.7137 Q348.6406,792.5575 349.8281,792.1981 L349.8281,794.4012 Q348.7969,794.7762 347.9219,794.9169 Q347.0469,795.0731 345.8438,795.0731 Q343.5625,795.0731 342.0313,794.1356 Q340.5,793.1825 339.7344,791.4481 Q338.9688,789.6981 338.9688,787.4012 Q338.9688,785.7294 339.4375,784.3387 Q339.9063,782.9481 340.8125,781.9169 Q341.7344,780.87 343.0781,780.3231 Q344.4219,779.7606 346.1406,779.7606 Q347.2813,779.7606 348.3281,779.995 Q349.3906,780.2137 350.4844,780.7762 L349.5156,782.8387 Q348.5938,782.4325 347.8125,782.1981 Q347.0313,781.9637 346.125,781.9637 Z " fill="#000000"/><text fill="#000000" font-family="sans-serif" font-size="20" lengthAdjust="spacing" textLength="109" x="368" y="795.38">CourseDTO</text><line style="stroke:#181818;stroke-width:0.5;" x1="285" x2="525" y1="806.24" y2="806.24"/><rect fill="none" height="6" style="stroke:#C82930;stroke-width:1.0;" width="6" x="292" y="822.36"/><text fill="#000000" font-family="sans-serif" font-size="20" lengthAdjust="spacing" textLength="45" x="305" y="831.62">code</text><rect fill="none" height="6" style="stroke:#C82930;stroke-width:1.0;" width="6" x="292" y="849.5999"/><text fill="#000000" font-family="sans-serif" font-size="20" lengthAdjust="spacing" textLength="39" x="305" y="858.8599">title</text><rect fill="none" height="6" style="stroke:#C82930;stroke-width:1.0;" width="6" x="292" y="876.8399"/><text fill="#000000" font-family="sans-serif" font-size="20" lengthAdjust="spacing" textLength="110" x="305" y="886.0999">description</text><rect fill="none" height="6" style="stroke:#C82930;stroke-width:1.0;" width="6" x="292" y="904.0799"/><text fill="#000000" font-family="sans-serif" font-size="20" lengthAdjust="spacing" textLength="162" x="305" y="913.3399">enrolmentLimits</text><rect fill="none" height="6" style="stroke:#C82930;stroke-width:1.0;" width="6" x="292" y="931.3199"/><text fill="#000000" font-family="sans-serif" font-size="20" lengthAdjust="spacing" textLength="113" x="305" y="940.5799">courseState</text><rect fill="none" height="6" style="stroke:#C82930;stroke-width:1.0;" width="6" x="292" y="958.5598"/><text fill="#000000" font-family="sans-serif" font-size="20" lengthAdjust="spacing" textLength="215" x="305" y="967.8198">courseEnrolmentState</text><rect fill="none" height="6" style="stroke:#C82930;stroke-width:1.0;" width="6" x="292" y="985.7998"/><text fill="#000000" font-family="sans-serif" font-size="20" lengthAdjust="spacing" textLength="93" x="305" y="995.0598">createdAt</text><line style="stroke:#181818;stroke-width:0.5;" x1="285" x2="525" y1="1004.9198" y2="1004.9198"/></g><!--class InMemoryCourseRepository--><g id="elem_InMemoryCourseRepository"><rect codeLine="125" fill="#F1F1F1" height="107.7199" id="InMemoryCourseRepository" rx="2.5" ry="2.5" style="stroke:#181818;stroke-width:0.5;" width="303" x="99.5" y="1114"/><ellipse cx="115.5" cy="1132.62" fill="#ADD1B2" rx="12" ry="12" style="stroke:#181818;stroke-width:1.0;"/><path d="M115.625,1126.9637 Q114.5469,1126.9637 113.6875,1127.3387 Q112.8281,1127.6981 112.2344,1128.4012 Q111.6406,1129.0887 111.3125,1130.1044 Q111,1131.12 111,1132.4169 Q111,1134.12 111.5156,1135.3544 Q112.0313,1136.5731 113.0469,1137.2294 Q114.0625,1137.87 115.6094,1137.87 Q116.5156,1137.87 117.3281,1137.7137 Q118.1406,1137.5575 119.3281,1137.1981 L119.3281,1139.4012 Q118.2969,1139.7762 117.4219,1139.9169 Q116.5469,1140.0731 115.3438,1140.0731 Q113.0625,1140.0731 111.5313,1139.1356 Q110,1138.1825 109.2344,1136.4481 Q108.4688,1134.6981 108.4688,1132.4012 Q108.4688,1130.7294 108.9375,1129.3387 Q109.4063,1127.9481 110.3125,1126.9169 Q111.2344,1125.87 112.5781,1125.3231 Q113.9219,1124.7606 115.6406,1124.7606 Q116.7813,1124.7606 117.8281,1124.995 Q118.8906,1125.2137 119.9844,1125.7762 L119.0156,1127.8387 Q118.0938,1127.4325 117.3125,1127.1981 Q116.5313,1126.9637 115.625,1126.9637 Z " fill="#000000"/><text fill="#000000" font-family="sans-serif" font-size="20" lengthAdjust="spacing" textLength="269" x="130.5" y="1140.38">InMemoryCourseRepository</text><line style="stroke:#181818;stroke-width:0.5;" x1="100.5" x2="401.5" y1="1151.24" y2="1151.24"/><line style="stroke:#181818;stroke-width:0.5;" x1="100.5" x2="401.5" y1="1159.24" y2="1159.24"/><ellipse cx="110.5" cy="1178.36" fill="#84BE84" rx="3" ry="3" style="stroke:#038048;stroke-width:1.0;"/><text fill="#000000" font-family="sans-serif" font-size="20" lengthAdjust="spacing" textLength="129" x="120.5" y="1184.62">findAllOpen()</text><ellipse cx="110.5" cy="1205.5999" fill="#84BE84" rx="3" ry="3" style="stroke:#038048;stroke-width:1.0;"/><text fill="#000000" font-family="sans-serif" font-size="20" lengthAdjust="spacing" textLength="183" x="120.5" y="1211.8599">findAllInProgress()</text></g><!--class JpaCourseRepository--><g id="elem_JpaCourseRepository"><rect codeLine="130" fill="#F1F1F1" height="107.7199" id="JpaCourseRepository" rx="2.5" ry="2.5" style="stroke:#181818;stroke-width:0.5;" width="234" x="438" y="1114"/><ellipse cx="454" cy="1132.62" fill="#ADD1B2" rx="12" ry="12" style="stroke:#181818;stroke-width:1.0;"/><path d="M454.125,1126.9637 Q453.0469,1126.9637 452.1875,1127.3387 Q451.3281,1127.6981 450.7344,1128.4012 Q450.1406,1129.0887 449.8125,1130.1044 Q449.5,1131.12 449.5,1132.4169 Q449.5,1134.12 450.0156,1135.3544 Q450.5313,1136.5731 451.5469,1137.2294 Q452.5625,1137.87 454.1094,1137.87 Q455.0156,1137.87 455.8281,1137.7137 Q456.6406,1137.5575 457.8281,1137.1981 L457.8281,1139.4012 Q456.7969,1139.7762 455.9219,1139.9169 Q455.0469,1140.0731 453.8438,1140.0731 Q451.5625,1140.0731 450.0313,1139.1356 Q448.5,1138.1825 447.7344,1136.4481 Q446.9688,1134.6981 446.9688,1132.4012 Q446.9688,1130.7294 447.4375,1129.3387 Q447.9063,1127.9481 448.8125,1126.9169 Q449.7344,1125.87 451.0781,1125.3231 Q452.4219,1124.7606 454.1406,1124.7606 Q455.2813,1124.7606 456.3281,1124.995 Q457.3906,1125.2137 458.4844,1125.7762 L457.5156,1127.8387 Q456.5938,1127.4325 455.8125,1127.1981 Q455.0313,1126.9637 454.125,1126.9637 Z " fill="#000000"/><text fill="#000000" font-family="sans-serif" font-size="20" lengthAdjust="spacing" textLength="200" x="469" y="1140.38">JpaCourseRepository</text><line style="stroke:#181818;stroke-width:0.5;" x1="439" x2="671" y1="1151.24" y2="1151.24"/><line style="stroke:#181818;stroke-width:0.5;" x1="439" x2="671" y1="1159.24" y2="1159.24"/><ellipse cx="449" cy="1178.36" fill="#84BE84" rx="3" ry="3" style="stroke:#038048;stroke-width:1.0;"/><text fill="#000000" font-family="sans-serif" font-size="20" lengthAdjust="spacing" textLength="129" x="459" y="1184.62">findAllOpen()</text><ellipse cx="449" cy="1205.5999" fill="#84BE84" rx="3" ry="3" style="stroke:#038048;stroke-width:1.0;"/><text fill="#000000" font-family="sans-serif" font-size="20" lengthAdjust="spacing" textLength="183" x="459" y="1211.8599">findAllInProgress()</text></g><!--class InMemoryFormativeExamRepository--><g id="elem_InMemoryFormativeExamRepository"><rect codeLine="135" fill="#F1F1F1" height="80.4799" id="InMemoryFormativeExamRepository" rx="2.5" ry="2.5" style="stroke:#181818;stroke-width:0.5;" width="385" x="707.5" y="1128"/><ellipse cx="723.5" cy="1146.62" fill="#ADD1B2" rx="12" ry="12" style="stroke:#181818;stroke-width:1.0;"/><path d="M723.625,1140.9637 Q722.5469,1140.9637 721.6875,1141.3387 Q720.8281,1141.6981 720.2344,1142.4012 Q719.6406,1143.0887 719.3125,1144.1044 Q719,1145.12 719,1146.4169 Q719,1148.12 719.5156,1149.3544 Q720.0313,1150.5731 721.0469,1151.2294 Q722.0625,1151.87 723.6094,1151.87 Q724.5156,1151.87 725.3281,1151.7137 Q726.1406,1151.5575 727.3281,1151.1981 L727.3281,1153.4012 Q726.2969,1153.7762 725.4219,1153.9169 Q724.5469,1154.0731 723.3438,1154.0731 Q721.0625,1154.0731 719.5313,1153.1356 Q718,1152.1825 717.2344,1150.4481 Q716.4688,1148.6981 716.4688,1146.4012 Q716.4688,1144.7294 716.9375,1143.3387 Q717.4063,1141.9481 718.3125,1140.9169 Q719.2344,1139.87 720.5781,1139.3231 Q721.9219,1138.7606 723.6406,1138.7606 Q724.7813,1138.7606 725.8281,1138.995 Q726.8906,1139.2137 727.9844,1139.7762 L727.0156,1141.8387 Q726.0938,1141.4325 725.3125,1141.1981 Q724.5313,1140.9637 723.625,1140.9637 Z " fill="#000000"/><text fill="#000000" font-family="sans-serif" font-size="20" lengthAdjust="spacing" textLength="351" x="738.5" y="1154.38">InMemoryFormativeExamRepository</text><line style="stroke:#181818;stroke-width:0.5;" x1="708.5" x2="1091.5" y1="1165.24" y2="1165.24"/><line style="stroke:#181818;stroke-width:0.5;" x1="708.5" x2="1091.5" y1="1173.24" y2="1173.24"/><ellipse cx="718.5" cy="1192.36" fill="#84BE84" rx="3" ry="3" style="stroke:#038048;stroke-width:1.0;"/><text fill="#000000" font-family="sans-serif" font-size="20" lengthAdjust="spacing" textLength="270" x="728.5" y="1198.62">findAllCourseExams(course)</text></g><!--class JpaFormativeExamRepository--><g id="elem_JpaFormativeExamRepository"><rect codeLine="139" fill="#F1F1F1" height="80.4799" id="JpaFormativeExamRepository" rx="2.5" ry="2.5" style="stroke:#181818;stroke-width:0.5;" width="316" x="1128" y="1128"/><ellipse cx="1144" cy="1146.62" fill="#ADD1B2" rx="12" ry="12" style="stroke:#181818;stroke-width:1.0;"/><path d="M1144.125,1140.9637 Q1143.0469,1140.9637 1142.1875,1141.3387 Q1141.3281,1141.6981 1140.7344,1142.4012 Q1140.1406,1143.0887 1139.8125,1144.1044 Q1139.5,1145.12 1139.5,1146.4169 Q1139.5,1148.12 1140.0156,1149.3544 Q1140.5313,1150.5731 1141.5469,1151.2294 Q1142.5625,1151.87 1144.1094,1151.87 Q1145.0156,1151.87 1145.8281,1151.7137 Q1146.6406,1151.5575 1147.8281,1151.1981 L1147.8281,1153.4012 Q1146.7969,1153.7762 1145.9219,1153.9169 Q1145.0469,1154.0731 1143.8438,1154.0731 Q1141.5625,1154.0731 1140.0313,1153.1356 Q1138.5,1152.1825 1137.7344,1150.4481 Q1136.9688,1148.6981 1136.9688,1146.4012 Q1136.9688,1144.7294 1137.4375,1143.3387 Q1137.9063,1141.9481 1138.8125,1140.9169 Q1139.7344,1139.87 1141.0781,1139.3231 Q1142.4219,1138.7606 1144.1406,1138.7606 Q1145.2813,1138.7606 1146.3281,1138.995 Q1147.3906,1139.2137 1148.4844,1139.7762 L1147.5156,1141.8387 Q1146.5938,1141.4325 1145.8125,1141.1981 Q1145.0313,1140.9637 1144.125,1140.9637 Z " fill="#000000"/><text fill="#000000" font-family="sans-serif" font-size="20" lengthAdjust="spacing" textLength="282" x="1159" y="1154.38">JpaFormativeExamRepository</text><line style="stroke:#181818;stroke-width:0.5;" x1="1129" x2="1443" y1="1165.24" y2="1165.24"/><line style="stroke:#181818;stroke-width:0.5;" x1="1129" x2="1443" y1="1173.24" y2="1173.24"/><ellipse cx="1139" cy="1192.36" fill="#84BE84" rx="3" ry="3" style="stroke:#038048;stroke-width:1.0;"/><text fill="#000000" font-family="sans-serif" font-size="20" lengthAdjust="spacing" textLength="270" x="1149" y="1198.62">findAllCourseExams(course)</text></g><!--class InMemoryEvaluationExamRepository--><g id="elem_InMemoryEvaluationExamRepository"><rect codeLine="143" fill="#F1F1F1" height="80.4799" id="InMemoryEvaluationExamRepository" rx="2.5" ry="2.5" style="stroke:#181818;stroke-width:0.5;" width="389" x="1479.5" y="1128"/><ellipse cx="1495.5" cy="1146.62" fill="#ADD1B2" rx="12" ry="12" style="stroke:#181818;stroke-width:1.0;"/><path d="M1495.625,1140.9637 Q1494.5469,1140.9637 1493.6875,1141.3387 Q1492.8281,1141.6981 1492.2344,1142.4012 Q1491.6406,1143.0887 1491.3125,1144.1044 Q1491,1145.12 1491,1146.4169 Q1491,1148.12 1491.5156,1149.3544 Q1492.0313,1150.5731 1493.0469,1151.2294 Q1494.0625,1151.87 1495.6094,1151.87 Q1496.5156,1151.87 1497.3281,1151.7137 Q1498.1406,1151.5575 1499.3281,1151.1981 L1499.3281,1153.4012 Q1498.2969,1153.7762 1497.4219,1153.9169 Q1496.5469,1154.0731 1495.3438,1154.0731 Q1493.0625,1154.0731 1491.5313,1153.1356 Q1490,1152.1825 1489.2344,1150.4481 Q1488.4688,1148.6981 1488.4688,1146.4012 Q1488.4688,1144.7294 1488.9375,1143.3387 Q1489.4063,1141.9481 1490.3125,1140.9169 Q1491.2344,1139.87 1492.5781,1139.3231 Q1493.9219,1138.7606 1495.6406,1138.7606 Q1496.7813,1138.7606 1497.8281,1138.995 Q1498.8906,1139.2137 1499.9844,1139.7762 L1499.0156,1141.8387 Q1498.0938,1141.4325 1497.3125,1141.1981 Q1496.5313,1140.9637 1495.625,1140.9637 Z " fill="#000000"/><text fill="#000000" font-family="sans-serif" font-size="20" lengthAdjust="spacing" textLength="355" x="1510.5" y="1154.38">InMemoryEvaluationExamRepository</text><line style="stroke:#181818;stroke-width:0.5;" x1="1480.5" x2="1867.5" y1="1165.24" y2="1165.24"/><line style="stroke:#181818;stroke-width:0.5;" x1="1480.5" x2="1867.5" y1="1173.24" y2="1173.24"/><ellipse cx="1490.5" cy="1192.36" fill="#84BE84" rx="3" ry="3" style="stroke:#038048;stroke-width:1.0;"/><text fill="#000000" font-family="sans-serif" font-size="20" lengthAdjust="spacing" textLength="270" x="1500.5" y="1198.62">findAllCourseExams(course)</text></g><!--class JpaEvaluationExamRepository--><g id="elem_JpaEvaluationExamRepository"><rect codeLine="147" fill="#F1F1F1" height="80.4799" id="JpaEvaluationExamRepository" rx="2.5" ry="2.5" style="stroke:#181818;stroke-width:0.5;" width="320" x="1904" y="1128"/><ellipse cx="1920" cy="1146.62" fill="#ADD1B2" rx="12" ry="12" style="stroke:#181818;stroke-width:1.0;"/><path d="M1920.125,1140.9637 Q1919.0469,1140.9637 1918.1875,1141.3387 Q1917.3281,1141.6981 1916.7344,1142.4012 Q1916.1406,1143.0887 1915.8125,1144.1044 Q1915.5,1145.12 1915.5,1146.4169 Q1915.5,1148.12 1916.0156,1149.3544 Q1916.5313,1150.5731 1917.5469,1151.2294 Q1918.5625,1151.87 1920.1094,1151.87 Q1921.0156,1151.87 1921.8281,1151.7137 Q1922.6406,1151.5575 1923.8281,1151.1981 L1923.8281,1153.4012 Q1922.7969,1153.7762 1921.9219,1153.9169 Q1921.0469,1154.0731 1919.8438,1154.0731 Q1917.5625,1154.0731 1916.0313,1153.1356 Q1914.5,1152.1825 1913.7344,1150.4481 Q1912.9688,1148.6981 1912.9688,1146.4012 Q1912.9688,1144.7294 1913.4375,1143.3387 Q1913.9063,1141.9481 1914.8125,1140.9169 Q1915.7344,1139.87 1917.0781,1139.3231 Q1918.4219,1138.7606 1920.1406,1138.7606 Q1921.2813,1138.7606 1922.3281,1138.995 Q1923.3906,1139.2137 1924.4844,1139.7762 L1923.5156,1141.8387 Q1922.5938,1141.4325 1921.8125,1141.1981 Q1921.0313,1140.9637 1920.125,1140.9637 Z " fill="#000000"/><text fill="#000000" font-family="sans-serif" font-size="20" lengthAdjust="spacing" textLength="286" x="1935" y="1154.38">JpaEvaluationExamRepository</text><line style="stroke:#181818;stroke-width:0.5;" x1="1905" x2="2223" y1="1165.24" y2="1165.24"/><line style="stroke:#181818;stroke-width:0.5;" x1="1905" x2="2223" y1="1173.24" y2="1173.24"/><ellipse cx="1915" cy="1192.36" fill="#84BE84" rx="3" ry="3" style="stroke:#038048;stroke-width:1.0;"/><text fill="#000000" font-family="sans-serif" font-size="20" lengthAdjust="spacing" textLength="270" x="1925" y="1198.62">findAllCourseExams(course)</text></g><!--class PersistenceContext--><g id="elem_PersistenceContext"><rect codeLine="151" fill="#F1F1F1" height="80.4799" id="PersistenceContext" rx="2.5" ry="2.5" style="stroke:#181818;stroke-width:0.5;" width="219" x="1136.5" y="256.5"/><ellipse cx="1152.5" cy="275.12" fill="#ADD1B2" rx="12" ry="12" style="stroke:#181818;stroke-width:1.0;"/><path d="M1152.625,269.4637 Q1151.5469,269.4637 1150.6875,269.8387 Q1149.8281,270.1981 1149.2344,270.9012 Q1148.6406,271.5887 1148.3125,272.6044 Q1148,273.62 1148,274.9169 Q1148,276.62 1148.5156,277.8544 Q1149.0313,279.0731 1150.0469,279.7294 Q1151.0625,280.37 1152.6094,280.37 Q1153.5156,280.37 1154.3281,280.2137 Q1155.1406,280.0575 1156.3281,279.6981 L1156.3281,281.9012 Q1155.2969,282.2762 1154.4219,282.4169 Q1153.5469,282.5731 1152.3438,282.5731 Q1150.0625,282.5731 1148.5313,281.6356 Q1147,280.6825 1146.2344,278.9481 Q1145.4688,277.1981 1145.4688,274.9012 Q1145.4688,273.2294 1145.9375,271.8387 Q1146.4063,270.4481 1147.3125,269.4169 Q1148.2344,268.37 1149.5781,267.8231 Q1150.9219,267.2606 1152.6406,267.2606 Q1153.7813,267.2606 1154.8281,267.495 Q1155.8906,267.7137 1156.9844,268.2762 L1156.0156,270.3387 Q1155.0938,269.9325 1154.3125,269.6981 Q1153.5313,269.4637 1152.625,269.4637 Z " fill="#000000"/><text fill="#000000" font-family="sans-serif" font-size="20" lengthAdjust="spacing" textLength="185" x="1167.5" y="282.88">PersistenceContext</text><line style="stroke:#181818;stroke-width:0.5;" x1="1137.5" x2="1354.5" y1="293.74" y2="293.74"/><line style="stroke:#181818;stroke-width:0.5;" x1="1137.5" x2="1354.5" y1="301.74" y2="301.74"/><rect fill="#F24D5C" height="6" style="stroke:#C82930;stroke-width:1.0;" width="6" x="1144.5" y="317.86"/><text fill="#000000" font-family="sans-serif" font-size="20" lengthAdjust="spacing" textLength="129" x="1157.5" y="327.12">repositories()</text></g><!--link PersistenceContext to RepositoryFactory--><g id="link_PersistenceContext_RepositoryFactory"><path codeLine="156" d="M1237.96,336.67 C1226.41,392.91 1205.2,496.22 1193.1,555.18 " fill="none" id="PersistenceContext-to-RepositoryFactory" style="stroke:#181818;stroke-width:1.0;stroke-dasharray:7.0,7.0;"/><polygon fill="#181818" points="1192.03,560.4,1197.7489,552.3816,1193.0298,555.501,1189.9104,550.7819,1192.03,560.4" style="stroke:#181818;stroke-width:1.0;"/></g><!--link RepositoryFactory to CourseRepository--><g id="link_RepositoryFactory_CourseRepository"><path codeLine="157" d="M1113.87,640.56 C1024.13,690.54 868.11,777.43 765.95,834.33 " fill="none" id="RepositoryFactory-to-CourseRepository" style="stroke:#181818;stroke-width:1.0;"/><polygon fill="#181818" points="761.43,836.85,771.24,835.9758,765.8008,834.4218,767.3548,828.9826,761.43,836.85" style="stroke:#181818;stroke-width:1.0;"/></g><!--link RepositoryFactory to FormativeExamRepository--><g id="link_RepositoryFactory_FormativeExamRepository"><path codeLine="158" d="M1182.91,640.71 C1181.43,694.14 1178.78,789.57 1177.23,845.58 " fill="none" id="RepositoryFactory-to-FormativeExamRepository" style="stroke:#181818;stroke-width:1.0;"/><polygon fill="#181818" points="1177.08,850.88,1181.3354,841.9979,1177.2228,845.882,1173.3387,841.7694,1177.08,850.88" style="stroke:#181818;stroke-width:1.0;"/></g><!--link RepositoryFactory to EvaluationExamRepository--><g id="link_RepositoryFactory_EvaluationExamRepository"><path codeLine="159" d="M1235.56,640.71 C1266.95,665.09 1307.52,697.5 1342,728 C1385.95,766.87 1433.64,813.97 1466.58,847.34 " fill="none" id="RepositoryFactory-to-EvaluationExamRepository" style="stroke:#181818;stroke-width:1.0;"/><polygon fill="#181818" points="1470.12,850.93,1466.6402,841.7164,1466.606,847.3731,1460.9492,847.3388,1470.12,850.93" style="stroke:#181818;stroke-width:1.0;"/></g><!--reverse link CourseRepository to InMemoryCourseRepository--><g id="link_CourseRepository_InMemoryCourseRepository"><path codeLine="161" d="M625.25,962.24 C604.06,993.78 575.73,1029.36 543,1054 C518.9,1072.15 460.8,1095.8 402.72,1116.77 " fill="none" id="CourseRepository-backto-InMemoryCourseRepository" style="stroke:#181818;stroke-width:1.0;stroke-dasharray:7.0,7.0;"/><polygon fill="none" points="619.52,958.21,636.27,945.23,631.27,965.82,619.52,958.21" style="stroke:#181818;stroke-width:1.0;"/></g><!--reverse link CourseRepository to JpaCourseRepository--><g id="link_CourseRepository_JpaCourseRepository"><path codeLine="162" d="M637.11,963.58 C618.15,1010.54 593.78,1070.92 576.53,1113.67 " fill="none" id="CourseRepository-backto-JpaCourseRepository" style="stroke:#181818;stroke-width:1.0;stroke-dasharray:7.0,7.0;"/><polygon fill="none" points="630.62,960.95,644.6,945.02,643.6,966.19,630.62,960.95" style="stroke:#181818;stroke-width:1.0;"/></g><!--reverse link EvaluationExamRepository to InMemoryEvaluationExamRepository--><g id="link_EvaluationExamRepository_InMemoryEvaluationExamRepository"><path codeLine="164" d="M1542.11,948.51 C1574.35,1001.91 1621.87,1080.65 1650.21,1127.58 " fill="none" id="EvaluationExamRepository-backto-InMemoryEvaluationExamRepository" style="stroke:#181818;stroke-width:1.0;stroke-dasharray:7.0,7.0;"/><polygon fill="none" points="1535.95,951.85,1531.61,931.11,1547.94,944.61,1535.95,951.85" style="stroke:#181818;stroke-width:1.0;"/></g><!--reverse link EvaluationExamRepository to JpaEvaluationExamRepository--><g id="link_EvaluationExamRepository_JpaEvaluationExamRepository"><path codeLine="165" d="M1551.3,946.55 C1582.05,981.91 1626.24,1026.37 1674,1054 C1758.76,1103.04 1791.96,1086.69 1886,1114 C1901.33,1118.45 1917.38,1123.16 1933.31,1127.87 " fill="none" id="EvaluationExamRepository-backto-JpaEvaluationExamRepository" style="stroke:#181818;stroke-width:1.0;stroke-dasharray:7.0,7.0;"/><polygon fill="none" points="1545.74,950.82,1538.14,931.04,1556.42,941.77,1545.74,950.82" style="stroke:#181818;stroke-width:1.0;"/></g><!--reverse link FormativeExamRepository to InMemoryFormativeExamRepository--><g id="link_FormativeExamRepository_InMemoryFormativeExamRepository"><path codeLine="167" d="M1122.41,945.4 C1068.8,998.81 987.59,1079.73 939.56,1127.58 " fill="none" id="FormativeExamRepository-backto-InMemoryFormativeExamRepository" style="stroke:#181818;stroke-width:1.0;stroke-dasharray:7.0,7.0;"/><polygon fill="none" points="1117.64,940.27,1136.75,931.11,1127.52,950.18,1117.64,940.27" style="stroke:#181818;stroke-width:1.0;"/></g><!--reverse link FormativeExamRepository to JpaFormativeExamRepository--><g id="link_FormativeExamRepository_JpaFormativeExamRepository"><path codeLine="168" d="M1199.16,949.91 C1220.51,1003.28 1251.62,1081.06 1270.23,1127.58 " fill="none" id="FormativeExamRepository-backto-JpaFormativeExamRepository" style="stroke:#181818;stroke-width:1.0;stroke-dasharray:7.0,7.0;"/><polygon fill="none" points="1192.57,952.28,1191.64,931.11,1205.57,947.08,1192.57,952.28" style="stroke:#181818;stroke-width:1.0;"/></g><!--link ListCourseExamsUI to PersistenceContext--><g id="link_ListCourseExamsUI_PersistenceContext"><path codeLine="171" d="M1461.68,60.07 C1445.11,76.94 1423.07,99.6 1404,120 C1362.26,164.64 1315.56,216.8 1283.83,252.59 " fill="none" id="ListCourseExamsUI-to-PersistenceContext" style="stroke:#181818;stroke-width:1.0;stroke-dasharray:7.0,7.0;"/><polygon fill="#181818" points="1280.42,256.43,1289.3812,252.3438,1283.7347,252.6867,1283.3918,247.0402,1280.42,256.43" style="stroke:#181818;stroke-width:1.0;"/></g><!--link ListCourseExamsUI to ListCourseExamsController--><g id="link_ListCourseExamsUI_ListCourseExamsController"><path codeLine="172" d="M1513.67,60 C1528.96,74.61 1549.63,94.38 1572.54,116.28 " fill="none" id="ListCourseExamsUI-to-ListCourseExamsController" style="stroke:#181818;stroke-width:1.0;stroke-dasharray:7.0,7.0;"/><polygon fill="#181818" points="1576.24,119.81,1572.5011,110.6984,1572.6268,116.3539,1566.9713,116.4796,1576.24,119.81" style="stroke:#181818;stroke-width:1.0;"/></g><!--link CourseListService to Course--><g id="link_CourseListService_Course"><path codeLine="175" d="M409.77,647.35 C362.15,667.96 309.11,695.11 266,728 C256.49,735.25 247.18,743.27 238.17,751.73 " fill="none" id="CourseListService-to-Course" style="stroke:#181818;stroke-width:1.0;stroke-dasharray:7.0,7.0;"/><polygon fill="#181818" points="234.32,755.38,243.602,752.087,237.9471,751.9385,238.0956,746.2836,234.32,755.38" style="stroke:#181818;stroke-width:1.0;"/></g><!--link CourseListService to CourseRepository--><g id="link_CourseListService_CourseRepository"><path codeLine="176" d="M565.99,668.05 C588.32,717.6 618.5,784.59 639.85,831.97 " fill="none" id="CourseListService-to-CourseRepository" style="stroke:#181818;stroke-width:1.0;stroke-dasharray:7.0,7.0;"/><polygon fill="#181818" points="642.02,836.78,641.9885,826.9312,639.9747,832.2175,634.6885,830.2036,642.02,836.78" style="stroke:#181818;stroke-width:1.0;"/></g><!--link FormativeExamListService to FormativeExamDTO--><g id="link_FormativeExamListService_FormativeExamDTO"><path codeLine="178" d="M1825.66,654.61 C1846.57,676.94 1870.81,703.41 1892,728 C1902.24,739.88 1912.75,752.4 1923.15,765.01 " fill="none" id="FormativeExamListService-to-FormativeExamDTO" style="stroke:#181818;stroke-width:1.0;stroke-dasharray:7.0,7.0;"/><polygon fill="#181818" points="1926.38,768.92,1923.7538,759.4277,1923.2045,765.0579,1917.5743,764.5086,1926.38,768.92" style="stroke:#181818;stroke-width:1.0;"/></g><!--link FormativeExamListService to FormativeExam--><g id="link_FormativeExamListService_FormativeExam"><path codeLine="179" d="M1776.48,654.75 C1777.23,681.91 1778.18,716.34 1779.13,750.42 " fill="none" id="FormativeExamListService-to-FormativeExam" style="stroke:#181818;stroke-width:1.0;stroke-dasharray:7.0,7.0;"/><polygon fill="#181818" points="1779.27,755.44,1783.0373,746.3402,1779.1415,750.4417,1775.04,746.5458,1779.27,755.44" style="stroke:#181818;stroke-width:1.0;"/></g><!--link EvaluationExamListService to EvaluationExamDTO--><g id="link_EvaluationExamListService_EvaluationExamDTO"><path codeLine="181" d="M2217.14,654.75 C2223.83,678.3 2232.08,707.32 2240.47,736.83 " fill="none" id="EvaluationExamListService-to-EvaluationExamDTO" style="stroke:#181818;stroke-width:1.0;stroke-dasharray:7.0,7.0;"/><polygon fill="#181818" points="2241.92,741.96,2243.3013,732.2085,2240.5502,737.1513,2235.6073,734.4002,2241.92,741.96" style="stroke:#181818;stroke-width:1.0;"/></g><!--link EvaluationExamListService to EvaluationExam--><g id="link_EvaluationExamListService_EvaluationExam"><path codeLine="182" d="M2312.55,654.65 C2347.89,674.7 2385.66,699.62 2416,728 C2420.76,732.45 2425.43,737.15 2430,742.02 " fill="none" id="EvaluationExamListService-to-EvaluationExam" style="stroke:#181818;stroke-width:1.0;stroke-dasharray:7.0,7.0;"/><polygon fill="#181818" points="2433.47,745.78,2430.3092,736.4521,2430.0804,742.1043,2424.4282,741.8755,2433.47,745.78" style="stroke:#181818;stroke-width:1.0;"/></g><!--link CourseListService to CourseDTO--><g id="link_CourseListService_CourseDTO"><path codeLine="184" d="M505.78,668.05 C492.82,696.6 477.23,730.94 462.22,763.98 " fill="none" id="CourseListService-to-CourseDTO" style="stroke:#181818;stroke-width:1.0;stroke-dasharray:7.0,7.0;"/><polygon fill="#181818" points="460.01,768.84,467.3587,762.2828,462.0672,764.2828,460.0671,758.9913,460.01,768.84" style="stroke:#181818;stroke-width:1.0;"/></g><!--link ListCourseExamsController to FormativeExamListService--><g id="link_ListCourseExamsController_FormativeExamListService"><path codeLine="185" d="M1768.73,473.17 C1769.94,497.7 1771.12,521.33 1772.11,541.38 " fill="none" id="ListCourseExamsController-to-FormativeExamListService" style="stroke:#181818;stroke-width:1.0;"/><polygon fill="#181818" points="1772.36,546.4,1775.8911,537.2059,1772.1025,541.4066,1767.9017,537.618,1772.36,546.4" style="stroke:#181818;stroke-width:1.0;"/></g><!--link ListCourseExamsController to CourseListService--><g id="link_ListCourseExamsController_CourseListService"><path codeLine="186" d="M1421.97,457.13 C1405.56,462.87 1389.18,468.21 1373,473 C1243.47,511.35 868.35,559.86 667.15,584.15 " fill="none" id="ListCourseExamsController-to-CourseListService" style="stroke:#181818;stroke-width:1.0;"/><polygon fill="#181818" points="662.14,584.76,671.5544,587.6528,667.104,584.1609,670.5959,579.7104,662.14,584.76" style="stroke:#181818;stroke-width:1.0;"/></g><!--link ListCourseExamsController to EvaluationExamListService--><g id="link_ListCourseExamsController_EvaluationExamListService"><path codeLine="187" d="M2017.11,473.17 C2054.22,498.53 2089.93,522.93 2119.91,543.41 " fill="none" id="ListCourseExamsController-to-EvaluationExamListService" style="stroke:#181818;stroke-width:1.0;"/><polygon fill="#181818" points="2124.29,546.4,2119.1262,538.0134,2120.1652,543.574,2114.6046,544.6131,2124.29,546.4" style="stroke:#181818;stroke-width:1.0;"/></g><!--link EvaluationExamListService to EvaluationExamRepository--><g id="link_EvaluationExamListService_EvaluationExamRepository"><path codeLine="189" d="M2057.17,638.26 C2017.89,648.08 1975.35,658.58 1936,668 C1819.83,695.82 1778.88,670.82 1674,728 C1619.93,757.48 1571.22,809.55 1540.77,846.7 " fill="none" id="EvaluationExamListService-to-EvaluationExamRepository" style="stroke:#181818;stroke-width:1.0;stroke-dasharray:7.0,7.0;"/><polygon fill="#181818" points="1537.51,850.7,1546.2978,846.2532,1540.67,846.8251,1540.098,841.1973,1537.51,850.7" style="stroke:#181818;stroke-width:1.0;"/></g><!--link FormativeExamListService to FormativeExamRepository--><g id="link_FormativeExamListService_FormativeExamRepository"><path codeLine="190" d="M1631.47,625.08 C1543.59,643.85 1431.26,675.85 1342,728 C1289.16,758.87 1240.56,810.17 1209.79,846.77 " fill="none" id="FormativeExamListService-to-FormativeExamRepository" style="stroke:#181818;stroke-width:1.0;stroke-dasharray:7.0,7.0;"/><polygon fill="#181818" points="1206.49,850.72,1215.3309,846.3797,1209.6966,846.8836,1209.1927,841.2492,1206.49,850.72" style="stroke:#181818;stroke-width:1.0;"/></g><!--SRC=[lLR1Rjim3BthAtnCa2OOTXuA56a2PEZGOka-GB2PLgWj1P8ITDtsxwDiEROiqqtcRRb4fXuVQVA9idaHSiyrBtALla2MPB3ZXzokbRHRyGR9nm-CfJat9haJnYxLGHjOlVB2VDiaFnZxHUmkqL-hF0UDg7cIbZiEimLz52cSR5zXhuomIdz74p_OPwN56xT2oGO9HvuVIflZ3bbsIXUuTOJkrenEQT8NvofAw8ebGxymgvPRc5EpCMMOL8v9tUz1RkI3LayQZAbID9Eft_Kf1-ncKYLt-tWVmjRjK04AE-DRKo6n3qdYgfv1kR32vjKg0vDgiNUnocUGMAO2fBqJXR36kpcEhUKMMi-h6jdQq83BxCRYqoonwjQgoRIHILEDDK_TNvdMBBPNJa9Qq3kUWd-91kRzTa9cDtdkAeeUBKjJtoxJYkWRCfwyMxBnDUsGhFjRV0P7LOSL9Udok410wXl-7kMQE0b_phZidjgJXZedjonyhUn6pxMrJ-kDFCDIe7RznCZSyQvKMeTq1k3fCsXS6SkrVHH5EI5avbSYGpcAdIWXRMMN3YXIeWN_DcZFIGZQTMRqqN7Eh-xvTLpMC-U_JnYd8P_4Hdw10gKuTanKR9_t_EyGrMcD7HUOq5YAEfKHu- -KosYE1z061mF85Dor3A_MYqVNNE8q9NgmYyLrV6Em-6wPpw-ZYuE04UKbq5G168jqy-ddOa7Aau3tw8ynikX113ApOVU1fZ96IIy8J1Lmq9dMDJO-_k1qVO_bG039ppzMTwbzipcFoZguIPQb2- -EtGlGtLPtmT65UH5- -EKT6_qf7nsKzWVti5iKz1qy-KgNLOSIuc03sat-3G00]--></g></svg>