<?xml version="1.0" encoding="UTF-8" standalone="no"?><svg xmlns="http://www.w3.org/2000/svg" xmlns:xlink="http://www.w3.org/1999/xlink" contentStyleType="text/css" height="1366px" preserveAspectRatio="none" style="width:2431px;height:1366px;background:#FFFFFF;" version="1.1" viewBox="0 0 2431 1366" width="2431px" zoomAndPan="magnify"><defs/><g><rect fill="#FFFFFF" height="654.5996" style="stroke:#181818;stroke-width:1.0;" width="10" x="586.75" y="148.7199"/><rect fill="#FFFFFF" height="396.1598" style="stroke:#181818;stroke-width:1.0;" width="10" x="586.75" y="844.5595"/><rect fill="#FFFFFF" height="30" style="stroke:#181818;stroke-width:1.0;" width="10" x="1015.375" y="189.9599"/><rect fill="#FFFFFF" height="508.8797" style="stroke:#181818;stroke-width:1.0;" width="10" x="1015.375" y="261.1999"/><rect fill="#FFFFFF" height="258.4398" style="stroke:#181818;stroke-width:1.0;" width="10" x="1015.375" y="940.0395"/><rect fill="#FFFFFF" height="202.1999" style="stroke:#181818;stroke-width:1.0;" width="10" x="1285" y="302.4398"/><rect fill="#FFFFFF" height="202.1999" style="stroke:#181818;stroke-width:1.0;" width="10" x="1285" y="552.8797"/><rect fill="#FFFFFF" height="217.1999" style="stroke:#181818;stroke-width:1.0;" width="10" x="1470.5" y="981.2794"/><rect fill="#FFFFFF" height="41.24" style="stroke:#181818;stroke-width:1.0;" width="10" x="1652.75" y="1142.2393"/><rect fill="#FFFFFF" height="41.24" style="stroke:#181818;stroke-width:1.0;" width="10" x="1765.75" y="463.3997"/><rect fill="#FFFFFF" height="41.24" style="stroke:#181818;stroke-width:1.0;" width="10" x="1765.75" y="713.8396"/><rect fill="#FFFFFF" height="30" style="stroke:#181818;stroke-width:1.0;" width="10" x="2166.25" y="343.6798"/><rect fill="#FFFFFF" height="30" style="stroke:#181818;stroke-width:1.0;" width="10" x="2166.25" y="594.1197"/><rect fill="#FFFFFF" height="30" style="stroke:#181818;stroke-width:1.0;" width="10" x="2344.75" y="1022.5194"/><rect fill="none" height="123.9599" style="stroke:#000000;stroke-width:1.5;" width="776.75" x="1188.5" y="388.6798"/><rect fill="none" height="123.9599" style="stroke:#000000;stroke-width:1.5;" width="776.75" x="1188.5" y="639.1197"/><rect fill="none" height="123.9599" style="stroke:#000000;stroke-width:1.5;" width="701.75" x="1381.5" y="1067.5194"/><line style="stroke:#181818;stroke-width:0.5;stroke-dasharray:5.0,5.0;" x1="46" x2="46" y1="105.4799" y2="1249.7193"/><line style="stroke:#181818;stroke-width:0.5;stroke-dasharray:5.0,5.0;" x1="591.75" x2="591.75" y1="105.4799" y2="1249.7193"/><line style="stroke:#181818;stroke-width:0.5;stroke-dasharray:5.0,5.0;" x1="1020.375" x2="1020.375" y1="105.4799" y2="1249.7193"/><line style="stroke:#181818;stroke-width:0.5;stroke-dasharray:5.0,5.0;" x1="1289.5" x2="1289.5" y1="105.4799" y2="1249.7193"/><line style="stroke:#181818;stroke-width:0.5;stroke-dasharray:5.0,5.0;" x1="1475.5" x2="1475.5" y1="105.4799" y2="1249.7193"/><line style="stroke:#181818;stroke-width:0.5;stroke-dasharray:5.0,5.0;" x1="1657.25" x2="1657.25" y1="105.4799" y2="1249.7193"/><line style="stroke:#181818;stroke-width:0.5;stroke-dasharray:5.0,5.0;" x1="1770.25" x2="1770.25" y1="105.4799" y2="1249.7193"/><line style="stroke:#181818;stroke-width:0.5;stroke-dasharray:5.0,5.0;" x1="1893.25" x2="1893.25" y1="105.4799" y2="1249.7193"/><line style="stroke:#181818;stroke-width:0.5;stroke-dasharray:5.0,5.0;" x1="2019.25" x2="2019.25" y1="105.4799" y2="1249.7193"/><line style="stroke:#181818;stroke-width:0.5;stroke-dasharray:5.0,5.0;" x1="2171.25" x2="2171.25" y1="105.4799" y2="1249.7193"/><line style="stroke:#181818;stroke-width:0.5;stroke-dasharray:5.0,5.0;" x1="2349.25" x2="2349.25" y1="105.4799" y2="1249.7193"/><text fill="#000000" font-family="sans-serif" font-size="20" lengthAdjust="spacing" textLength="77" x="5" y="99.62">Teacher</text><ellipse cx="46.5" cy="26.74" fill="#E2E2F0" rx="8" ry="8" style="stroke:#181818;stroke-width:0.5;"/><path d="M46.5,34.74 L46.5,61.74 M33.5,42.74 L59.5,42.74 M46.5,61.74 L33.5,76.74 M46.5,61.74 L59.5,76.74 " fill="none" style="stroke:#181818;stroke-width:0.5;"/><text fill="#000000" font-family="sans-serif" font-size="20" lengthAdjust="spacing" textLength="77" x="5" y="1270.0993">Teacher</text><ellipse cx="46.5" cy="1284.4593" fill="#E2E2F0" rx="8" ry="8" style="stroke:#181818;stroke-width:0.5;"/><path d="M46.5,1292.4593 L46.5,1319.4593 M33.5,1300.4593 L59.5,1300.4593 M46.5,1319.4593 L33.5,1334.4593 M46.5,1319.4593 L59.5,1334.4593 " fill="none" style="stroke:#181818;stroke-width:0.5;"/><rect fill="#E2E2F0" height="68.4799" rx="2.5" ry="2.5" style="stroke:#181818;stroke-width:0.5;" width="200" x="491.75" y="36"/><text fill="#000000" font-family="sans-serif" font-size="20" font-style="italic" lengthAdjust="spacing" textLength="134" x="524.75" y="64.38">«presentation»</text><text fill="#000000" font-family="sans-serif" font-size="20" lengthAdjust="spacing" textLength="186" x="498.75" y="91.62">ListCourseExamsUI</text><rect fill="#E2E2F0" height="68.4799" rx="2.5" ry="2.5" style="stroke:#181818;stroke-width:0.5;" width="200" x="491.75" y="1248.7193"/><text fill="#000000" font-family="sans-serif" font-size="20" font-style="italic" lengthAdjust="spacing" textLength="134" x="524.75" y="1277.0993">«presentation»</text><text fill="#000000" font-family="sans-serif" font-size="20" lengthAdjust="spacing" textLength="186" x="498.75" y="1304.3393">ListCourseExamsUI</text><rect fill="#E2E2F0" height="68.4799" rx="2.5" ry="2.5" style="stroke:#181818;stroke-width:0.5;" width="276" x="882.375" y="36"/><text fill="#000000" font-family="sans-serif" font-size="20" font-style="italic" lengthAdjust="spacing" textLength="120" x="960.375" y="64.38">«application»</text><text fill="#000000" font-family="sans-serif" font-size="20" lengthAdjust="spacing" textLength="262" x="889.375" y="91.62">ListCourseExamsController</text><rect fill="#E2E2F0" height="68.4799" rx="2.5" ry="2.5" style="stroke:#181818;stroke-width:0.5;" width="276" x="882.375" y="1248.7193"/><text fill="#000000" font-family="sans-serif" font-size="20" font-style="italic" lengthAdjust="spacing" textLength="120" x="960.375" y="1277.0993">«application»</text><text fill="#000000" font-family="sans-serif" font-size="20" lengthAdjust="spacing" textLength="262" x="889.375" y="1304.3393">ListCourseExamsController</text><rect fill="#E2E2F0" height="68.4799" rx="2.5" ry="2.5" style="stroke:#181818;stroke-width:0.5;" width="183" x="1198.5" y="36"/><text fill="#000000" font-family="sans-serif" font-size="20" font-style="italic" lengthAdjust="spacing" textLength="80" x="1250" y="64.38">«service»</text><text fill="#000000" font-family="sans-serif" font-size="20" lengthAdjust="spacing" textLength="169" x="1205.5" y="91.62">CourseListService</text><rect fill="#E2E2F0" height="68.4799" rx="2.5" ry="2.5" style="stroke:#181818;stroke-width:0.5;" width="183" x="1198.5" y="1248.7193"/><text fill="#000000" font-family="sans-serif" font-size="20" font-style="italic" lengthAdjust="spacing" textLength="80" x="1250" y="1277.0993">«service»</text><text fill="#000000" font-family="sans-serif" font-size="20" lengthAdjust="spacing" textLength="169" x="1205.5" y="1304.3393">CourseListService</text><rect fill="#E2E2F0" height="68.4799" rx="2.5" ry="2.5" style="stroke:#181818;stroke-width:0.5;" width="168" x="1391.5" y="36"/><text fill="#000000" font-family="sans-serif" font-size="20" font-style="italic" lengthAdjust="spacing" textLength="80" x="1435.5" y="64.38">«service»</text><text fill="#000000" font-family="sans-serif" font-size="20" lengthAdjust="spacing" textLength="154" x="1398.5" y="91.62">ExamListService</text><rect fill="#E2E2F0" height="68.4799" rx="2.5" ry="2.5" style="stroke:#181818;stroke-width:0.5;" width="168" x="1391.5" y="1248.7193"/><text fill="#000000" font-family="sans-serif" font-size="20" font-style="italic" lengthAdjust="spacing" textLength="80" x="1435.5" y="1277.0993">«service»</text><text fill="#000000" font-family="sans-serif" font-size="20" lengthAdjust="spacing" textLength="154" x="1398.5" y="1304.3393">ExamListService</text><rect fill="#E2E2F0" height="68.4799" rx="2.5" ry="2.5" style="stroke:#181818;stroke-width:0.5;" width="103" x="1606.25" y="36"/><text fill="#000000" font-family="sans-serif" font-size="20" font-style="italic" lengthAdjust="spacing" textLength="89" x="1613.25" y="64.38">«domain»</text><text fill="#000000" font-family="sans-serif" font-size="20" lengthAdjust="spacing" textLength="52" x="1631.75" y="91.62">Exam</text><rect fill="#E2E2F0" height="68.4799" rx="2.5" ry="2.5" style="stroke:#181818;stroke-width:0.5;" width="103" x="1606.25" y="1248.7193"/><text fill="#000000" font-family="sans-serif" font-size="20" font-style="italic" lengthAdjust="spacing" textLength="89" x="1613.25" y="1277.0993">«domain»</text><text fill="#000000" font-family="sans-serif" font-size="20" lengthAdjust="spacing" textLength="52" x="1631.75" y="1304.3393">Exam</text><rect fill="#E2E2F0" height="68.4799" rx="2.5" ry="2.5" style="stroke:#181818;stroke-width:0.5;" width="103" x="1719.25" y="36"/><text fill="#000000" font-family="sans-serif" font-size="20" font-style="italic" lengthAdjust="spacing" textLength="89" x="1726.25" y="64.38">«domain»</text><text fill="#000000" font-family="sans-serif" font-size="20" lengthAdjust="spacing" textLength="67" x="1737.25" y="91.62">Course</text><rect fill="#E2E2F0" height="68.4799" rx="2.5" ry="2.5" style="stroke:#181818;stroke-width:0.5;" width="103" x="1719.25" y="1248.7193"/><text fill="#000000" font-family="sans-serif" font-size="20" font-style="italic" lengthAdjust="spacing" textLength="89" x="1726.25" y="1277.0993">«domain»</text><text fill="#000000" font-family="sans-serif" font-size="20" lengthAdjust="spacing" textLength="67" x="1737.25" y="1304.3393">Course</text><rect fill="#E2E2F0" height="68.4799" rx="2.5" ry="2.5" style="stroke:#181818;stroke-width:0.5;" width="123" x="1832.25" y="36"/><text fill="#000000" font-family="sans-serif" font-size="20" font-style="italic" lengthAdjust="spacing" textLength="50" x="1868.75" y="64.38">«dto»</text><text fill="#000000" font-family="sans-serif" font-size="20" lengthAdjust="spacing" textLength="109" x="1839.25" y="91.62">CourseDTO</text><rect fill="#E2E2F0" height="68.4799" rx="2.5" ry="2.5" style="stroke:#181818;stroke-width:0.5;" width="123" x="1832.25" y="1248.7193"/><text fill="#000000" font-family="sans-serif" font-size="20" font-style="italic" lengthAdjust="spacing" textLength="50" x="1868.75" y="1277.0993">«dto»</text><text fill="#000000" font-family="sans-serif" font-size="20" lengthAdjust="spacing" textLength="109" x="1839.25" y="1304.3393">CourseDTO</text><rect fill="#E2E2F0" height="68.4799" rx="2.5" ry="2.5" style="stroke:#181818;stroke-width:0.5;" width="108" x="1965.25" y="36"/><text fill="#000000" font-family="sans-serif" font-size="20" font-style="italic" lengthAdjust="spacing" textLength="50" x="1994.25" y="64.38">«dto»</text><text fill="#000000" font-family="sans-serif" font-size="20" lengthAdjust="spacing" textLength="94" x="1972.25" y="91.62">ExamDTO</text><rect fill="#E2E2F0" height="68.4799" rx="2.5" ry="2.5" style="stroke:#181818;stroke-width:0.5;" width="108" x="1965.25" y="1248.7193"/><text fill="#000000" font-family="sans-serif" font-size="20" font-style="italic" lengthAdjust="spacing" textLength="50" x="1994.25" y="1277.0993">«dto»</text><text fill="#000000" font-family="sans-serif" font-size="20" lengthAdjust="spacing" textLength="94" x="1972.25" y="1304.3393">ExamDTO</text><text fill="#000000" font-family="sans-serif" font-size="20" font-style="italic" lengthAdjust="spacing" textLength="110" x="2113.25" y="72.38">«repository»</text><text fill="#000000" font-family="sans-serif" font-size="20" lengthAdjust="spacing" textLength="170" x="2083.25" y="99.62">CourseRepository</text><path d="M2153.25,15 C2153.25,5 2171.25,5 2171.25,5 C2171.25,5 2189.25,5 2189.25,15 L2189.25,41 C2189.25,51 2171.25,51 2171.25,51 C2171.25,51 2153.25,51 2153.25,41 L2153.25,15 " fill="#E2E2F0" style="stroke:#181818;stroke-width:1.5;"/><path d="M2153.25,15 C2153.25,25 2171.25,25 2171.25,25 C2171.25,25 2189.25,25 2189.25,15 " fill="none" style="stroke:#181818;stroke-width:1.5;"/><text fill="#000000" font-family="sans-serif" font-size="20" font-style="italic" lengthAdjust="spacing" textLength="110" x="2113.25" y="1270.0993">«repository»</text><text fill="#000000" font-family="sans-serif" font-size="20" lengthAdjust="spacing" textLength="170" x="2083.25" y="1297.3393">CourseRepository</text><path d="M2153.25,1313.1992 C2153.25,1303.1992 2171.25,1303.1992 2171.25,1303.1992 C2171.25,1303.1992 2189.25,1303.1992 2189.25,1313.1992 L2189.25,1339.1992 C2189.25,1349.1992 2171.25,1349.1992 2171.25,1349.1992 C2171.25,1349.1992 2153.25,1349.1992 2153.25,1339.1992 L2153.25,1313.1992 " fill="#E2E2F0" style="stroke:#181818;stroke-width:1.5;"/><path d="M2153.25,1313.1992 C2153.25,1323.1992 2171.25,1323.1992 2171.25,1323.1992 C2171.25,1323.1992 2189.25,1323.1992 2189.25,1313.1992 " fill="none" style="stroke:#181818;stroke-width:1.5;"/><text fill="#000000" font-family="sans-serif" font-size="20" font-style="italic" lengthAdjust="spacing" textLength="110" x="2291.75" y="72.38">«repository»</text><text fill="#000000" font-family="sans-serif" font-size="20" lengthAdjust="spacing" textLength="155" x="2269.25" y="99.62">ExamRepository</text><path d="M2331.75,15 C2331.75,5 2349.75,5 2349.75,5 C2349.75,5 2367.75,5 2367.75,15 L2367.75,41 C2367.75,51 2349.75,51 2349.75,51 C2349.75,51 2331.75,51 2331.75,41 L2331.75,15 " fill="#E2E2F0" style="stroke:#181818;stroke-width:1.5;"/><path d="M2331.75,15 C2331.75,25 2349.75,25 2349.75,25 C2349.75,25 2367.75,25 2367.75,15 " fill="none" style="stroke:#181818;stroke-width:1.5;"/><text fill="#000000" font-family="sans-serif" font-size="20" font-style="italic" lengthAdjust="spacing" textLength="110" x="2291.75" y="1270.0993">«repository»</text><text fill="#000000" font-family="sans-serif" font-size="20" lengthAdjust="spacing" textLength="155" x="2269.25" y="1297.3393">ExamRepository</text><path d="M2331.75,1313.1992 C2331.75,1303.1992 2349.75,1303.1992 2349.75,1303.1992 C2349.75,1303.1992 2367.75,1303.1992 2367.75,1313.1992 L2367.75,1339.1992 C2367.75,1349.1992 2349.75,1349.1992 2349.75,1349.1992 C2349.75,1349.1992 2331.75,1349.1992 2331.75,1339.1992 L2331.75,1313.1992 " fill="#E2E2F0" style="stroke:#181818;stroke-width:1.5;"/><path d="M2331.75,1313.1992 C2331.75,1323.1992 2349.75,1323.1992 2349.75,1323.1992 C2349.75,1323.1992 2367.75,1323.1992 2367.75,1313.1992 " fill="none" style="stroke:#181818;stroke-width:1.5;"/><rect fill="#FFFFFF" height="654.5996" style="stroke:#181818;stroke-width:1.0;" width="10" x="586.75" y="148.7199"/><rect fill="#FFFFFF" height="396.1598" style="stroke:#181818;stroke-width:1.0;" width="10" x="586.75" y="844.5595"/><rect fill="#FFFFFF" height="30" style="stroke:#181818;stroke-width:1.0;" width="10" x="1015.375" y="189.9599"/><rect fill="#FFFFFF" height="508.8797" style="stroke:#181818;stroke-width:1.0;" width="10" x="1015.375" y="261.1999"/><rect fill="#FFFFFF" height="258.4398" style="stroke:#181818;stroke-width:1.0;" width="10" x="1015.375" y="940.0395"/><rect fill="#FFFFFF" height="202.1999" style="stroke:#181818;stroke-width:1.0;" width="10" x="1285" y="302.4398"/><rect fill="#FFFFFF" height="202.1999" style="stroke:#181818;stroke-width:1.0;" width="10" x="1285" y="552.8797"/><rect fill="#FFFFFF" height="217.1999" style="stroke:#181818;stroke-width:1.0;" width="10" x="1470.5" y="981.2794"/><rect fill="#FFFFFF" height="41.24" style="stroke:#181818;stroke-width:1.0;" width="10" x="1652.75" y="1142.2393"/><rect fill="#FFFFFF" height="41.24" style="stroke:#181818;stroke-width:1.0;" width="10" x="1765.75" y="463.3997"/><rect fill="#FFFFFF" height="41.24" style="stroke:#181818;stroke-width:1.0;" width="10" x="1765.75" y="713.8396"/><rect fill="#FFFFFF" height="30" style="stroke:#181818;stroke-width:1.0;" width="10" x="2166.25" y="343.6798"/><rect fill="#FFFFFF" height="30" style="stroke:#181818;stroke-width:1.0;" width="10" x="2166.25" y="594.1197"/><rect fill="#FFFFFF" height="30" style="stroke:#181818;stroke-width:1.0;" width="10" x="2344.75" y="1022.5194"/><polygon fill="#181818" points="574.75,144.7199,584.75,148.7199,574.75,152.7199,578.75,148.7199" style="stroke:#181818;stroke-width:1.0;"/><line style="stroke:#181818;stroke-width:1.0;" x1="46.5" x2="580.75" y1="148.7199" y2="148.7199"/><text fill="#000000" font-family="sans-serif" font-size="20" font-weight="bold" lengthAdjust="spacing" textLength="11.625" x="53.5" y="140.8599">1</text><text fill="#000000" font-family="sans-serif" font-size="20" lengthAdjust="spacing" textLength="407" x="69.125" y="140.8599">requests to view the exams list of a course</text><polygon fill="#181818" points="1003.375,185.9599,1013.375,189.9599,1003.375,193.9599,1007.375,189.9599" style="stroke:#181818;stroke-width:1.0;"/><line style="stroke:#181818;stroke-width:1.0;" x1="596.75" x2="1009.375" y1="189.9599" y2="189.9599"/><text fill="#000000" font-family="sans-serif" font-size="20" font-weight="bold" lengthAdjust="spacing" textLength="11.625" x="603.75" y="182.0999">2</text><text fill="#000000" font-family="sans-serif" font-size="20" lengthAdjust="spacing" textLength="384" x="619.375" y="182.0999">new(courseRepository, examRepository)</text><polygon fill="#181818" points="1003.375,257.1999,1013.375,261.1999,1003.375,265.1999,1007.375,261.1999" style="stroke:#181818;stroke-width:1.0;"/><line style="stroke:#181818;stroke-width:1.0;" x1="596.75" x2="1009.375" y1="261.1999" y2="261.1999"/><text fill="#000000" font-family="sans-serif" font-size="20" font-weight="bold" lengthAdjust="spacing" textLength="11.625" x="603.75" y="253.3399">3</text><text fill="#000000" font-family="sans-serif" font-size="20" lengthAdjust="spacing" textLength="372" x="619.375" y="253.3399">courses = listOpenInProgressCourses()</text><polygon fill="#181818" points="1273,298.4398,1283,302.4398,1273,306.4398,1277,302.4398" style="stroke:#181818;stroke-width:1.0;"/><line style="stroke:#181818;stroke-width:1.0;" x1="1025.375" x2="1279" y1="302.4398" y2="302.4398"/><text fill="#000000" font-family="sans-serif" font-size="20" font-weight="bold" lengthAdjust="spacing" textLength="11.625" x="1032.375" y="294.5799">4</text><text fill="#000000" font-family="sans-serif" font-size="20" lengthAdjust="spacing" textLength="171" x="1048" y="294.5799">listOpenCourses()</text><polygon fill="#181818" points="2154.25,339.6798,2164.25,343.6798,2154.25,347.6798,2158.25,343.6798" style="stroke:#181818;stroke-width:1.0;"/><line style="stroke:#181818;stroke-width:1.0;" x1="1295" x2="2160.25" y1="343.6798" y2="343.6798"/><text fill="#000000" font-family="sans-serif" font-size="20" font-weight="bold" lengthAdjust="spacing" textLength="11.625" x="1302" y="335.8198">5</text><text fill="#000000" font-family="sans-serif" font-size="20" lengthAdjust="spacing" textLength="129" x="1317.625" y="335.8198">findAllOpen()</text><path d="M1188.5,388.6798 L1279,388.6798 L1279,407.9198 L1269,417.9198 L1188.5,417.9198 L1188.5,388.6798 " fill="#EEEEEE" style="stroke:#000000;stroke-width:1.5;"/><rect fill="none" height="123.9599" style="stroke:#000000;stroke-width:1.5;" width="776.75" x="1188.5" y="388.6798"/><text fill="#000000" font-family="sans-serif" font-size="20" font-weight="bold" lengthAdjust="spacing" textLength="45.5" x="1203.5" y="411.0598">loop</text><text fill="#000000" font-family="sans-serif" font-size="20" font-weight="bold" lengthAdjust="spacing" textLength="169.375" x="1294" y="412.0598">[for each course]</text><polygon fill="#181818" points="1753.75,459.3997,1763.75,463.3997,1753.75,467.3997,1757.75,463.3997" style="stroke:#181818;stroke-width:1.0;"/><line style="stroke:#181818;stroke-width:1.0;" x1="1295" x2="1759.75" y1="463.3997" y2="463.3997"/><text fill="#000000" font-family="sans-serif" font-size="20" font-weight="bold" lengthAdjust="spacing" textLength="11.625" x="1302" y="455.5398">6</text><text fill="#000000" font-family="sans-serif" font-size="20" lengthAdjust="spacing" textLength="138" x="1317.625" y="455.5398">toDTO(course)</text><polygon fill="#181818" points="1881.75,500.6397,1891.75,504.6397,1881.75,508.6397,1885.75,504.6397" style="stroke:#181818;stroke-width:1.0;"/><line style="stroke:#181818;stroke-width:1.0;" x1="1770.75" x2="1887.75" y1="504.6397" y2="504.6397"/><text fill="#000000" font-family="sans-serif" font-size="20" font-weight="bold" lengthAdjust="spacing" textLength="11.625" x="1777.75" y="496.7797">7</text><text fill="#000000" font-family="sans-serif" font-size="20" lengthAdjust="spacing" textLength="40" x="1793.375" y="496.7797">new</text><polygon fill="#181818" points="1273,548.8797,1283,552.8797,1273,556.8797,1277,552.8797" style="stroke:#181818;stroke-width:1.0;"/><line style="stroke:#181818;stroke-width:1.0;" x1="1025.375" x2="1279" y1="552.8797" y2="552.8797"/><text fill="#000000" font-family="sans-serif" font-size="20" font-weight="bold" lengthAdjust="spacing" textLength="11.625" x="1032.375" y="545.0197">8</text><text fill="#000000" font-family="sans-serif" font-size="20" lengthAdjust="spacing" textLength="225" x="1048" y="545.0197">listInProgressCourses()</text><polygon fill="#181818" points="2154.25,590.1197,2164.25,594.1197,2154.25,598.1197,2158.25,594.1197" style="stroke:#181818;stroke-width:1.0;"/><line style="stroke:#181818;stroke-width:1.0;" x1="1295" x2="2160.25" y1="594.1197" y2="594.1197"/><text fill="#000000" font-family="sans-serif" font-size="20" font-weight="bold" lengthAdjust="spacing" textLength="11.625" x="1302" y="586.2597">9</text><text fill="#000000" font-family="sans-serif" font-size="20" lengthAdjust="spacing" textLength="183" x="1317.625" y="586.2597">findAllInProgress()</text><path d="M1188.5,639.1197 L1279,639.1197 L1279,658.3596 L1269,668.3596 L1188.5,668.3596 L1188.5,639.1197 " fill="#EEEEEE" style="stroke:#000000;stroke-width:1.5;"/><rect fill="none" height="123.9599" style="stroke:#000000;stroke-width:1.5;" width="776.75" x="1188.5" y="639.1197"/><text fill="#000000" font-family="sans-serif" font-size="20" font-weight="bold" lengthAdjust="spacing" textLength="45.5" x="1203.5" y="661.4997">loop</text><text fill="#000000" font-family="sans-serif" font-size="20" font-weight="bold" lengthAdjust="spacing" textLength="169.375" x="1294" y="662.4997">[for each course]</text><polygon fill="#181818" points="1753.75,709.8396,1763.75,713.8396,1753.75,717.8396,1757.75,713.8396" style="stroke:#181818;stroke-width:1.0;"/><line style="stroke:#181818;stroke-width:1.0;" x1="1295" x2="1759.75" y1="713.8396" y2="713.8396"/><text fill="#000000" font-family="sans-serif" font-size="20" font-weight="bold" lengthAdjust="spacing" textLength="23.25" x="1302" y="705.9796">10</text><text fill="#000000" font-family="sans-serif" font-size="20" lengthAdjust="spacing" textLength="138" x="1329.25" y="705.9796">toDTO(course)</text><polygon fill="#181818" points="1881.75,751.0796,1891.75,755.0796,1881.75,759.0796,1885.75,755.0796" style="stroke:#181818;stroke-width:1.0;"/><line style="stroke:#181818;stroke-width:1.0;" x1="1770.75" x2="1887.75" y1="755.0796" y2="755.0796"/><text fill="#000000" font-family="sans-serif" font-size="20" font-weight="bold" lengthAdjust="spacing" textLength="23.25" x="1777.75" y="747.2196">11</text><text fill="#000000" font-family="sans-serif" font-size="20" lengthAdjust="spacing" textLength="40" x="1805" y="747.2196">new</text><polygon fill="#181818" points="57.5,799.3195,47.5,803.3195,57.5,807.3195,53.5,803.3195" style="stroke:#181818;stroke-width:1.0;"/><line style="stroke:#181818;stroke-width:1.0;stroke-dasharray:2.0,2.0;" x1="51.5" x2="590.75" y1="803.3195" y2="803.3195"/><text fill="#000000" font-family="sans-serif" font-size="20" font-weight="bold" lengthAdjust="spacing" textLength="23.25" x="63.5" y="795.4596">12</text><text fill="#000000" font-family="sans-serif" font-size="20" lengthAdjust="spacing" textLength="489" x="90.75" y="795.4596">lists all the available courses and asks to select one</text><polygon fill="#181818" points="574.75,840.5595,584.75,844.5595,574.75,848.5595,578.75,844.5595" style="stroke:#181818;stroke-width:1.0;"/><line style="stroke:#181818;stroke-width:1.0;" x1="46.5" x2="580.75" y1="844.5595" y2="844.5595"/><text fill="#000000" font-family="sans-serif" font-size="20" font-weight="bold" lengthAdjust="spacing" textLength="23.25" x="53.5" y="836.6995">13</text><text fill="#000000" font-family="sans-serif" font-size="20" lengthAdjust="spacing" textLength="249" x="80.75" y="836.6995">selects the desired course</text><line style="stroke:#181818;stroke-width:1.0;" x1="596.75" x2="638.75" y1="885.7995" y2="885.7995"/><line style="stroke:#181818;stroke-width:1.0;" x1="638.75" x2="638.75" y1="885.7995" y2="898.7995"/><line style="stroke:#181818;stroke-width:1.0;" x1="597.75" x2="638.75" y1="898.7995" y2="898.7995"/><polygon fill="#181818" points="607.75,894.7995,597.75,898.7995,607.75,902.7995,603.75,898.7995" style="stroke:#181818;stroke-width:1.0;"/><text fill="#000000" font-family="sans-serif" font-size="20" font-weight="bold" lengthAdjust="spacing" textLength="23.25" x="603.75" y="877.9395">14</text><text fill="#000000" font-family="sans-serif" font-size="20" lengthAdjust="spacing" textLength="290" x="631" y="877.9395">course = select(courses, index)</text><polygon fill="#181818" points="1003.375,936.0395,1013.375,940.0395,1003.375,944.0395,1007.375,940.0395" style="stroke:#181818;stroke-width:1.0;"/><line style="stroke:#181818;stroke-width:1.0;" x1="596.75" x2="1009.375" y1="940.0395" y2="940.0395"/><text fill="#000000" font-family="sans-serif" font-size="20" font-weight="bold" lengthAdjust="spacing" textLength="23.25" x="603.75" y="932.1795">15</text><text fill="#000000" font-family="sans-serif" font-size="20" lengthAdjust="spacing" textLength="318" x="631" y="932.1795">exams = listCourseExams(course)</text><polygon fill="#181818" points="1458.5,977.2794,1468.5,981.2794,1458.5,985.2794,1462.5,981.2794" style="stroke:#181818;stroke-width:1.0;"/><line style="stroke:#181818;stroke-width:1.0;" x1="1025.375" x2="1464.5" y1="981.2794" y2="981.2794"/><text fill="#000000" font-family="sans-serif" font-size="20" font-weight="bold" lengthAdjust="spacing" textLength="23.25" x="1032.375" y="973.4195">16</text><text fill="#000000" font-family="sans-serif" font-size="20" lengthAdjust="spacing" textLength="260" x="1059.625" y="973.4195">listAllCourseExams(course)</text><polygon fill="#181818" points="2332.75,1018.5194,2342.75,1022.5194,2332.75,1026.5194,2336.75,1022.5194" style="stroke:#181818;stroke-width:1.0;"/><line style="stroke:#181818;stroke-width:1.0;" x1="1480.5" x2="2338.75" y1="1022.5194" y2="1022.5194"/><text fill="#000000" font-family="sans-serif" font-size="20" font-weight="bold" lengthAdjust="spacing" textLength="23.25" x="1487.5" y="1014.6594">17</text><text fill="#000000" font-family="sans-serif" font-size="20" lengthAdjust="spacing" textLength="270" x="1514.75" y="1014.6594">findAllCourseExams(course)</text><path d="M1381.5,1067.5194 L1472,1067.5194 L1472,1086.7594 L1462,1096.7594 L1381.5,1096.7594 L1381.5,1067.5194 " fill="#EEEEEE" style="stroke:#000000;stroke-width:1.5;"/><rect fill="none" height="123.9599" style="stroke:#000000;stroke-width:1.5;" width="701.75" x="1381.5" y="1067.5194"/><text fill="#000000" font-family="sans-serif" font-size="20" font-weight="bold" lengthAdjust="spacing" textLength="45.5" x="1396.5" y="1089.8994">loop</text><text fill="#000000" font-family="sans-serif" font-size="20" font-weight="bold" lengthAdjust="spacing" textLength="156.125" x="1487" y="1090.8994">[for each exam]</text><polygon fill="#181818" points="1640.75,1138.2393,1650.75,1142.2393,1640.75,1146.2393,1644.75,1142.2393" style="stroke:#181818;stroke-width:1.0;"/><line style="stroke:#181818;stroke-width:1.0;" x1="1480.5" x2="1646.75" y1="1142.2393" y2="1142.2393"/><text fill="#000000" font-family="sans-serif" font-size="20" font-weight="bold" lengthAdjust="spacing" textLength="23.25" x="1487.5" y="1134.3794">18</text><text fill="#000000" font-family="sans-serif" font-size="20" lengthAdjust="spacing" textLength="126" x="1514.75" y="1134.3794">toDTO(exam)</text><polygon fill="#181818" points="2007.25,1179.4793,2017.25,1183.4793,2007.25,1187.4793,2011.25,1183.4793" style="stroke:#181818;stroke-width:1.0;"/><line style="stroke:#181818;stroke-width:1.0;" x1="1657.75" x2="2013.25" y1="1183.4793" y2="1183.4793"/><text fill="#000000" font-family="sans-serif" font-size="20" font-weight="bold" lengthAdjust="spacing" textLength="23.25" x="1664.75" y="1175.6193">19</text><text fill="#000000" font-family="sans-serif" font-size="20" lengthAdjust="spacing" textLength="40" x="1692" y="1175.6193">new</text><polygon fill="#181818" points="57.5,1227.7193,47.5,1231.7193,57.5,1235.7193,53.5,1231.7193" style="stroke:#181818;stroke-width:1.0;"/><line style="stroke:#181818;stroke-width:1.0;stroke-dasharray:2.0,2.0;" x1="51.5" x2="585.75" y1="1231.7193" y2="1231.7193"/><text fill="#000000" font-family="sans-serif" font-size="20" font-weight="bold" lengthAdjust="spacing" textLength="23.25" x="63.5" y="1223.8593">20</text><text fill="#000000" font-family="sans-serif" font-size="20" lengthAdjust="spacing" textLength="415" x="90.75" y="1223.8593">displays all the exams of the chosen course</text><!--SRC=[tLN1Rjim3BthAuYS6g03XXs3Bi2GUK200YqITzU1iPb5Y69vafAs-_gHKcp7dfjYr-KaI-yzKkIZulUwgj7XmTXYJoMKjCMZ2Tzi5TRwDy6dZmgFmLR7muQSKbW4ws2I4nOxSXD03xbIB11qeMki0apkjGyBUtIUiXSy-ATbH3qjuUwkTkIf2XYqhURpgxG59-2iCUSWYtnrpm9OrqONe_p45PKrkPCkAF5-h5VVcUZJtf0aeOQKx7rAml62OQKze7uZcvH2NBw3_9e_dFFbbM237GlSmB8UJAaI0swGeoIr5TNMQ-xKQzHSPOy2TkqkSrg6oFRnsHXUvV1XpbsSWQDVH_B1Gx1mqlGCOKT0qZCmN4gmMq0eOXvY5tt2G4nKx01Ma4REeABdcsAGwcqKwRwd7Lj8ggJ-TqymYNdu77DugAbQLe_E_cJ3-LGJVpCKLD5K8Y4TdxNCCRmWL3AJ4AH2CzZgglnYZ71wO3djfHitZBKrR7bwP7QQ0W7_Ejdab1bNbjjxBj0qOZgj2rw2nmk87M9Puybbx9ZvSBCHeQe4oKlznHWhplMINYjHn_p_2ZNqfTYIG-MfPXxGc3WYU49jS6EeDIkoAFfzd2HFXWeUdeek1Nbiki5B41_5IlBQyNCzCcVdkH16EkMXIDHpeVmjS5VePTeVeJJ2QO0k7kAskcyCJzRvWnjzbHYXAckwcFKiSfqvT4esuXIvG6nW5q6UwCObSZpmIDOo11Wlys_-E0kCkIDTTlJHIkuejQyDldO6IGtWvrC-Yftblygclty0]--></g></svg>