<?xml version="1.0" encoding="us-ascii" standalone="no"?><svg xmlns="http://www.w3.org/2000/svg" xmlns:xlink="http://www.w3.org/1999/xlink" contentStyleType="text/css" height="695.1px" preserveAspectRatio="none" style="width:630px;height:695px;background:#FFFFFF;" version="1.1" viewBox="0 0 630 695" width="630.7px" zoomAndPan="magnify"><defs/><g><!--class ListCourseExamsUI--><g id="elem_ListCourseExamsUI"><rect codeLine="2" fill="#F1F1F1" height="33.6" id="ListCourseExamsUI" rx="1.75" ry="1.75" style="stroke:#181818;stroke-width:0.3499999999999999;" width="107.1" x="330.05" y="4.9"/><ellipse cx="340.55" cy="16.1" fill="#ADD1B2" rx="7.7" ry="7.7" style="stroke:#181818;stroke-width:0.6999999999999998;"/><path d="M342.4859,13.2125 Q342.5953,13.0594 342.7266,12.9828 Q342.8578,12.9062 343.0109,12.9062 Q343.2734,12.9062 343.4375,13.0922 Q343.6016,13.2672 343.6016,13.6937 L343.6016,14.7109 Q343.6016,15.1375 343.4375,15.3234 Q343.2734,15.5094 343.0109,15.5094 Q342.7703,15.5094 342.6281,15.3672 Q342.4859,15.2359 342.4094,14.875 Q342.3766,14.6234 342.2453,14.4922 Q342.0156,14.2297 341.5891,14.0766 Q341.1625,13.9234 340.725,13.9234 Q340.1891,13.9234 339.7406,14.1531 Q339.3031,14.3828 338.9531,14.9078 Q338.6141,15.4328 338.6141,16.1547 L338.6141,16.9203 Q338.6141,17.7844 339.2375,18.3641 Q339.8609,18.9328 340.9766,18.9328 Q341.6328,18.9328 342.0922,18.7578 Q342.3656,18.6484 342.6609,18.3422 Q342.8469,18.1562 342.9453,18.1016 Q343.0547,18.0469 343.1969,18.0469 Q343.4266,18.0469 343.6016,18.2328 Q343.7875,18.4078 343.7875,18.6484 Q343.7875,18.8891 343.5469,19.1734 Q343.1969,19.5781 342.6391,19.8078 Q341.8844,20.125 340.9766,20.125 Q339.9156,20.125 339.0734,19.6875 Q338.3844,19.3375 337.9031,18.5937 Q337.4219,17.8391 337.4219,16.9422 L337.4219,16.1328 Q337.4219,15.2031 337.8484,14.4047 Q338.2859,13.5953 339.0516,13.1687 Q339.8172,12.7312 340.6812,12.7312 Q341.1953,12.7312 341.6437,12.8516 Q342.1031,12.9609 342.4859,13.2125 Z " fill="#000000"/><text fill="#000000" font-family="sans-serif" font-size="9.8" lengthAdjust="spacing" textLength="84.7" x="350.35" y="20.1578">ListCourseExamsUI</text><line style="stroke:#181818;stroke-width:0.3499999999999999;" x1="330.75" x2="436.45" y1="27.3" y2="27.3"/><line style="stroke:#181818;stroke-width:0.3499999999999999;" x1="330.75" x2="436.45" y1="32.9" y2="32.9"/></g><!--class ListCourseExamsController--><g id="elem_ListCourseExamsController"><rect codeLine="6" fill="#F1F1F1" height="111.8086" id="ListCourseExamsController" rx="1.75" ry="1.75" style="stroke:#181818;stroke-width:0.3499999999999999;" width="146.3" x="310.45" y="80.5"/><ellipse cx="322.84" cy="91.7" fill="#ADD1B2" rx="7.7" ry="7.7" style="stroke:#181818;stroke-width:0.6999999999999998;"/><path d="M324.7759,88.8125 Q324.8853,88.6594 325.0166,88.5828 Q325.1478,88.5062 325.3009,88.5062 Q325.5634,88.5062 325.7275,88.6922 Q325.8916,88.8672 325.8916,89.2937 L325.8916,90.3109 Q325.8916,90.7375 325.7275,90.9234 Q325.5634,91.1094 325.3009,91.1094 Q325.0603,91.1094 324.9181,90.9672 Q324.7759,90.8359 324.6994,90.475 Q324.6666,90.2234 324.5353,90.0922 Q324.3056,89.8297 323.8791,89.6766 Q323.4525,89.5234 323.015,89.5234 Q322.4791,89.5234 322.0306,89.7531 Q321.5931,89.9828 321.2431,90.5078 Q320.9041,91.0328 320.9041,91.7547 L320.9041,92.5203 Q320.9041,93.3844 321.5275,93.9641 Q322.1509,94.5328 323.2666,94.5328 Q323.9228,94.5328 324.3822,94.3578 Q324.6556,94.2484 324.9509,93.9422 Q325.1369,93.7562 325.2353,93.7016 Q325.3447,93.6469 325.4869,93.6469 Q325.7166,93.6469 325.8916,93.8328 Q326.0775,94.0078 326.0775,94.2484 Q326.0775,94.4891 325.8369,94.7734 Q325.4869,95.1781 324.9291,95.4078 Q324.1744,95.725 323.2666,95.725 Q322.2056,95.725 321.3634,95.2875 Q320.6744,94.9375 320.1931,94.1937 Q319.7119,93.4391 319.7119,92.5422 L319.7119,91.7328 Q319.7119,90.8031 320.1384,90.0047 Q320.5759,89.1953 321.3416,88.7687 Q322.1072,88.3312 322.9712,88.3312 Q323.4853,88.3312 323.9337,88.4516 Q324.3931,88.5609 324.7759,88.8125 Z " fill="#000000"/><text fill="#000000" font-family="sans-serif" font-size="9.8" lengthAdjust="spacing" textLength="119.7" x="333.06" y="95.7578">ListCourseExamsController</text><line style="stroke:#181818;stroke-width:0.3499999999999999;" x1="311.15" x2="456.05" y1="102.9" y2="102.9"/><rect fill="none" height="4.2" style="stroke:#C82930;stroke-width:0.6999999999999998;" width="4.2" x="316.05" y="111.1674"/><text fill="#000000" font-family="sans-serif" font-size="9.8" lengthAdjust="spacing" textLength="78.4" x="324.45" y="116.2752">courseListService</text><rect fill="none" height="4.2" style="stroke:#C82930;stroke-width:0.6999999999999998;" width="4.2" x="316.05" y="124.2021"/><text fill="#000000" font-family="sans-serif" font-size="9.8" lengthAdjust="spacing" textLength="77.7" x="324.45" y="129.31">courseRepository</text><rect fill="none" height="4.2" style="stroke:#C82930;stroke-width:0.6999999999999998;" width="4.2" x="316.05" y="137.2369"/><text fill="#000000" font-family="sans-serif" font-size="9.8" lengthAdjust="spacing" textLength="89.6" x="324.45" y="142.3447">authorizationService</text><rect fill="none" height="4.2" style="stroke:#C82930;stroke-width:0.6999999999999998;" width="4.2" x="316.05" y="150.2717"/><text fill="#000000" font-family="sans-serif" font-size="9.8" lengthAdjust="spacing" textLength="71.4" x="324.45" y="155.3795">examListService</text><line style="stroke:#181818;stroke-width:0.3499999999999999;" x1="311.15" x2="456.05" y1="160.6391" y2="160.6391"/><ellipse cx="318.15" cy="171.0064" fill="#84BE84" rx="2.1" ry="2.1" style="stroke:#038048;stroke-width:0.6999999999999998;"/><text fill="#000000" font-family="sans-serif" font-size="9.8" lengthAdjust="spacing" textLength="128.1" x="324.45" y="174.0143">listOpenInProgressCourses()</text><ellipse cx="318.15" cy="184.0412" fill="#84BE84" rx="2.1" ry="2.1" style="stroke:#038048;stroke-width:0.6999999999999998;"/><text fill="#000000" font-family="sans-serif" font-size="9.8" lengthAdjust="spacing" textLength="109.9" x="324.45" y="187.049">listCourseExams(course)</text></g><!--class Course--><g id="elem_Course"><rect codeLine="16" fill="#F1F1F1" height="137.8781" id="Course" rx="1.75" ry="1.75" style="stroke:#181818;stroke-width:0.3499999999999999;" width="116.2" x="4.9" y="349.3"/><ellipse cx="43.925" cy="360.5" fill="#ADD1B2" rx="7.7" ry="7.7" style="stroke:#181818;stroke-width:0.6999999999999998;"/><path d="M45.8609,357.6125 Q45.9703,357.4594 46.1016,357.3828 Q46.2328,357.3062 46.3859,357.3062 Q46.6484,357.3062 46.8125,357.4922 Q46.9766,357.6672 46.9766,358.0937 L46.9766,359.1109 Q46.9766,359.5375 46.8125,359.7234 Q46.6484,359.9094 46.3859,359.9094 Q46.1453,359.9094 46.0031,359.7672 Q45.8609,359.6359 45.7844,359.275 Q45.7516,359.0234 45.6203,358.8922 Q45.3906,358.6297 44.9641,358.4766 Q44.5375,358.3234 44.1,358.3234 Q43.5641,358.3234 43.1156,358.5531 Q42.6781,358.7828 42.3281,359.3078 Q41.9891,359.8328 41.9891,360.5547 L41.9891,361.3203 Q41.9891,362.1844 42.6125,362.7641 Q43.2359,363.3328 44.3516,363.3328 Q45.0078,363.3328 45.4672,363.1578 Q45.7406,363.0484 46.0359,362.7422 Q46.2219,362.5562 46.3203,362.5016 Q46.4297,362.4469 46.5719,362.4469 Q46.8016,362.4469 46.9766,362.6328 Q47.1625,362.8078 47.1625,363.0484 Q47.1625,363.2891 46.9219,363.5734 Q46.5719,363.9781 46.0141,364.2078 Q45.2594,364.525 44.3516,364.525 Q43.2906,364.525 42.4484,364.0875 Q41.7594,363.7375 41.2781,362.9937 Q40.7969,362.2391 40.7969,361.3422 L40.7969,360.5328 Q40.7969,359.6031 41.2234,358.8047 Q41.6609,357.9953 42.4266,357.5687 Q43.1922,357.1312 44.0562,357.1312 Q44.5703,357.1312 45.0187,357.2516 Q45.4781,357.3609 45.8609,357.6125 Z " fill="#000000"/><text fill="#000000" font-family="sans-serif" font-size="9.8" lengthAdjust="spacing" textLength="32.2" x="58.275" y="364.5578">Course</text><line style="stroke:#181818;stroke-width:0.3499999999999999;" x1="5.6" x2="120.4" y1="371.7" y2="371.7"/><rect fill="none" height="4.2" style="stroke:#C82930;stroke-width:0.6999999999999998;" width="4.2" x="10.5" y="379.9674"/><text fill="#000000" font-family="sans-serif" font-size="9.8" lengthAdjust="spacing" textLength="21.7" x="18.9" y="385.0752">code</text><rect fill="none" height="4.2" style="stroke:#C82930;stroke-width:0.6999999999999998;" width="4.2" x="10.5" y="393.0021"/><text fill="#000000" font-family="sans-serif" font-size="9.8" lengthAdjust="spacing" textLength="15.4" x="18.9" y="398.11">title</text><rect fill="none" height="4.2" style="stroke:#C82930;stroke-width:0.6999999999999998;" width="4.2" x="10.5" y="406.0369"/><text fill="#000000" font-family="sans-serif" font-size="9.8" lengthAdjust="spacing" textLength="48.3" x="18.9" y="411.1447">description</text><rect fill="none" height="4.2" style="stroke:#C82930;stroke-width:0.6999999999999998;" width="4.2" x="10.5" y="419.0717"/><text fill="#000000" font-family="sans-serif" font-size="9.8" lengthAdjust="spacing" textLength="69.3" x="18.9" y="424.1795">enrolmentLimits</text><rect fill="none" height="4.2" style="stroke:#C82930;stroke-width:0.6999999999999998;" width="4.2" x="10.5" y="432.1064"/><text fill="#000000" font-family="sans-serif" font-size="9.8" lengthAdjust="spacing" textLength="53.2" x="18.9" y="437.2143">courseState</text><rect fill="none" height="4.2" style="stroke:#C82930;stroke-width:0.6999999999999998;" width="4.2" x="10.5" y="445.1412"/><text fill="#000000" font-family="sans-serif" font-size="9.8" lengthAdjust="spacing" textLength="98" x="18.9" y="450.249">courseEnrolmentState</text><rect fill="none" height="4.2" style="stroke:#C82930;stroke-width:0.6999999999999998;" width="4.2" x="10.5" y="458.176"/><text fill="#000000" font-family="sans-serif" font-size="9.8" lengthAdjust="spacing" textLength="42.7" x="18.9" y="463.2838">createdAt</text><line style="stroke:#181818;stroke-width:0.3499999999999999;" x1="5.6" x2="120.4" y1="468.5434" y2="468.5434"/><ellipse cx="12.6" cy="478.9107" fill="#84BE84" rx="2.1" ry="2.1" style="stroke:#038048;stroke-width:0.6999999999999998;"/><text fill="#000000" font-family="sans-serif" font-size="9.8" lengthAdjust="spacing" textLength="30.8" x="18.9" y="481.9186">toDto()</text></g><!--class RepositoryFactory--><g id="elem_RepositoryFactory"><rect codeLine="27" fill="#F1F1F1" height="46.6348" id="RepositoryFactory" rx="1.75" ry="1.75" style="stroke:#181818;stroke-width:0.3499999999999999;" width="106.4" x="519.4" y="394.8"/><ellipse cx="531.16" cy="406" fill="#ADD1B2" rx="7.7" ry="7.7" style="stroke:#181818;stroke-width:0.6999999999999998;"/><path d="M533.0959,403.1125 Q533.2053,402.9594 533.3366,402.8828 Q533.4678,402.8062 533.6209,402.8062 Q533.8834,402.8062 534.0475,402.9922 Q534.2116,403.1672 534.2116,403.5937 L534.2116,404.6109 Q534.2116,405.0375 534.0475,405.2234 Q533.8834,405.4094 533.6209,405.4094 Q533.3803,405.4094 533.2381,405.2672 Q533.0959,405.1359 533.0194,404.775 Q532.9866,404.5234 532.8553,404.3922 Q532.6256,404.1297 532.1991,403.9766 Q531.7725,403.8234 531.335,403.8234 Q530.7991,403.8234 530.3506,404.0531 Q529.9131,404.2828 529.5631,404.8078 Q529.2241,405.3328 529.2241,406.0547 L529.2241,406.8203 Q529.2241,407.6844 529.8475,408.2641 Q530.4709,408.8328 531.5866,408.8328 Q532.2428,408.8328 532.7022,408.6578 Q532.9756,408.5484 533.2709,408.2422 Q533.4569,408.0562 533.5553,408.0016 Q533.6647,407.9469 533.8069,407.9469 Q534.0366,407.9469 534.2116,408.1328 Q534.3975,408.3078 534.3975,408.5484 Q534.3975,408.7891 534.1569,409.0734 Q533.8069,409.4781 533.2491,409.7078 Q532.4944,410.025 531.5866,410.025 Q530.5256,410.025 529.6834,409.5875 Q528.9944,409.2375 528.5131,408.4937 Q528.0319,407.7391 528.0319,406.8422 L528.0319,406.0328 Q528.0319,405.1031 528.4584,404.3047 Q528.8959,403.4953 529.6616,403.0687 Q530.4272,402.6312 531.2912,402.6312 Q531.8053,402.6312 532.2537,402.7516 Q532.7131,402.8609 533.0959,403.1125 Z " fill="#000000"/><text fill="#000000" font-family="sans-serif" font-size="9.8" lengthAdjust="spacing" textLength="81.2" x="541.24" y="410.0578">RepositoryFactory</text><line style="stroke:#181818;stroke-width:0.3499999999999999;" x1="520.1" x2="625.1" y1="417.2" y2="417.2"/><line style="stroke:#181818;stroke-width:0.3499999999999999;" x1="520.1" x2="625.1" y1="422.8" y2="422.8"/><ellipse cx="527.1" cy="433.1674" fill="#84BE84" rx="2.1" ry="2.1" style="stroke:#038048;stroke-width:0.6999999999999998;"/><text fill="#000000" font-family="sans-serif" font-size="9.8" lengthAdjust="spacing" textLength="88.2" x="533.4" y="436.1752">RepositoryFactory()</text></g><!--class CourseRepository--><g id="elem_CourseRepository"><rect codeLine="31" fill="#F1F1F1" height="59.6695" id="CourseRepository" rx="1.75" ry="1.75" style="stroke:#181818;stroke-width:0.3499999999999999;" width="102.2" x="314.3" y="529.2"/><ellipse cx="324.8" cy="540.4" fill="#B4A7E5" rx="7.7" ry="7.7" style="stroke:#181818;stroke-width:0.6999999999999998;"/><path d="M325.4672,538.0484 L325.4672,542.7078 L326.6703,542.7078 Q327.0969,542.7078 327.2828,542.8719 Q327.4687,543.0359 327.4687,543.3094 Q327.4687,543.5719 327.2828,543.7359 Q327.0969,543.9 326.6703,543.9 L323.0719,543.9 Q322.6453,543.9 322.4594,543.7359 Q322.2734,543.5719 322.2734,543.2984 Q322.2734,543.0359 322.4594,542.8719 Q322.6453,542.7078 323.0719,542.7078 L324.275,542.7078 L324.275,538.0484 L323.0719,538.0484 Q322.6453,538.0484 322.4594,537.8844 Q322.2734,537.7203 322.2734,537.4469 Q322.2734,537.1844 322.4594,537.0203 Q322.6453,536.8562 323.0719,536.8562 L326.6703,536.8562 Q327.0969,536.8562 327.2828,537.0203 Q327.4687,537.1844 327.4687,537.4469 Q327.4687,537.7203 327.2828,537.8844 Q327.0969,538.0484 326.6703,538.0484 L325.4672,538.0484 Z " fill="#000000"/><text fill="#000000" font-family="sans-serif" font-size="9.8" font-style="italic" lengthAdjust="spacing" textLength="79.8" x="334.6" y="544.4578">CourseRepository</text><line style="stroke:#181818;stroke-width:0.3499999999999999;" x1="315" x2="415.8" y1="551.6" y2="551.6"/><line style="stroke:#181818;stroke-width:0.3499999999999999;" x1="315" x2="415.8" y1="557.2" y2="557.2"/><ellipse cx="322" cy="567.5674" fill="#84BE84" rx="2.1" ry="2.1" style="stroke:#038048;stroke-width:0.6999999999999998;"/><text fill="#000000" font-family="sans-serif" font-size="9.8" lengthAdjust="spacing" textLength="58.1" x="328.3" y="570.5752">findAllOpen()</text><ellipse cx="322" cy="580.6021" fill="#84BE84" rx="2.1" ry="2.1" style="stroke:#038048;stroke-width:0.6999999999999998;"/><text fill="#000000" font-family="sans-serif" font-size="9.8" lengthAdjust="spacing" textLength="81.2" x="328.3" y="583.61">findAllInProgress()</text></g><!--class CourseListService--><g id="elem_CourseListService"><rect codeLine="36" fill="#F1F1F1" height="72.7043" id="CourseListService" rx="1.75" ry="1.75" style="stroke:#181818;stroke-width:0.3499999999999999;" width="121.8" x="140" y="234.5"/><ellipse cx="159.005" cy="245.7" fill="#ADD1B2" rx="7.7" ry="7.7" style="stroke:#181818;stroke-width:0.6999999999999998;"/><path d="M160.9409,242.8125 Q161.0503,242.6594 161.1816,242.5828 Q161.3128,242.5062 161.4659,242.5062 Q161.7284,242.5062 161.8925,242.6922 Q162.0566,242.8672 162.0566,243.2937 L162.0566,244.3109 Q162.0566,244.7375 161.8925,244.9234 Q161.7284,245.1094 161.4659,245.1094 Q161.2253,245.1094 161.0831,244.9672 Q160.9409,244.8359 160.8644,244.475 Q160.8316,244.2234 160.7003,244.0922 Q160.4706,243.8297 160.0441,243.6766 Q159.6175,243.5234 159.18,243.5234 Q158.6441,243.5234 158.1956,243.7531 Q157.7581,243.9828 157.4081,244.5078 Q157.0691,245.0328 157.0691,245.7547 L157.0691,246.5203 Q157.0691,247.3844 157.6925,247.9641 Q158.3159,248.5328 159.4316,248.5328 Q160.0878,248.5328 160.5472,248.3578 Q160.8206,248.2484 161.1159,247.9422 Q161.3019,247.7562 161.4003,247.7016 Q161.5097,247.6469 161.6519,247.6469 Q161.8816,247.6469 162.0566,247.8328 Q162.2425,248.0078 162.2425,248.2484 Q162.2425,248.4891 162.0019,248.7734 Q161.6519,249.1781 161.0941,249.4078 Q160.3394,249.725 159.4316,249.725 Q158.3706,249.725 157.5284,249.2875 Q156.8394,248.9375 156.3581,248.1937 Q155.8769,247.4391 155.8769,246.5422 L155.8769,245.7328 Q155.8769,244.8031 156.3034,244.0047 Q156.7409,243.1953 157.5066,242.7687 Q158.2722,242.3312 159.1362,242.3312 Q159.6503,242.3312 160.0987,242.4516 Q160.5581,242.5609 160.9409,242.8125 Z " fill="#000000"/><text fill="#000000" font-family="sans-serif" font-size="9.8" lengthAdjust="spacing" textLength="80.5" x="170.695" y="249.7578">CourseListService</text><line style="stroke:#181818;stroke-width:0.3499999999999999;" x1="140.7" x2="261.1" y1="256.9" y2="256.9"/><rect fill="none" height="4.2" style="stroke:#C82930;stroke-width:0.6999999999999998;" width="4.2" x="145.6" y="265.1674"/><text fill="#000000" font-family="sans-serif" font-size="9.8" lengthAdjust="spacing" textLength="77.7" x="154" y="270.2752">courseRepository</text><line style="stroke:#181818;stroke-width:0.3499999999999999;" x1="140.7" x2="261.1" y1="275.5348" y2="275.5348"/><ellipse cx="147.7" cy="285.9021" fill="#84BE84" rx="2.1" ry="2.1" style="stroke:#038048;stroke-width:0.6999999999999998;"/><text fill="#000000" font-family="sans-serif" font-size="9.8" lengthAdjust="spacing" textLength="80.5" x="154" y="288.91">listOpenCourses()</text><ellipse cx="147.7" cy="298.9369" fill="#84BE84" rx="2.1" ry="2.1" style="stroke:#038048;stroke-width:0.6999999999999998;"/><text fill="#000000" font-family="sans-serif" font-size="9.8" lengthAdjust="spacing" textLength="103.6" x="154" y="301.9447">listInProgressCourses()</text></g><!--class ExamListService--><g id="elem_ExamListService"><rect codeLine="43" fill="#F1F1F1" height="59.6695" id="ExamListService" rx="1.75" ry="1.75" style="stroke:#181818;stroke-width:0.3499999999999999;" width="138.6" x="314.3" y="241.15"/><ellipse cx="344.645" cy="252.35" fill="#ADD1B2" rx="7.7" ry="7.7" style="stroke:#181818;stroke-width:0.6999999999999998;"/><path d="M346.5809,249.4625 Q346.6903,249.3094 346.8216,249.2328 Q346.9528,249.1562 347.1059,249.1562 Q347.3684,249.1562 347.5325,249.3422 Q347.6966,249.5172 347.6966,249.9437 L347.6966,250.9609 Q347.6966,251.3875 347.5325,251.5734 Q347.3684,251.7594 347.1059,251.7594 Q346.8653,251.7594 346.7231,251.6172 Q346.5809,251.4859 346.5044,251.125 Q346.4716,250.8734 346.3403,250.7422 Q346.1106,250.4797 345.6841,250.3266 Q345.2575,250.1734 344.82,250.1734 Q344.2841,250.1734 343.8356,250.4031 Q343.3981,250.6328 343.0481,251.1578 Q342.7091,251.6828 342.7091,252.4047 L342.7091,253.1703 Q342.7091,254.0344 343.3325,254.6141 Q343.9559,255.1828 345.0716,255.1828 Q345.7278,255.1828 346.1872,255.0078 Q346.4606,254.8984 346.7559,254.5922 Q346.9419,254.4062 347.0403,254.3516 Q347.1497,254.2969 347.2919,254.2969 Q347.5216,254.2969 347.6966,254.4828 Q347.8825,254.6578 347.8825,254.8984 Q347.8825,255.1391 347.6419,255.4234 Q347.2919,255.8281 346.7341,256.0578 Q345.9794,256.375 345.0716,256.375 Q344.0106,256.375 343.1684,255.9375 Q342.4794,255.5875 341.9981,254.8437 Q341.5169,254.0891 341.5169,253.1922 L341.5169,252.3828 Q341.5169,251.4531 341.9434,250.6547 Q342.3809,249.8453 343.1466,249.4187 Q343.9122,248.9812 344.7762,248.9812 Q345.2903,248.9812 345.7387,249.1016 Q346.1981,249.2109 346.5809,249.4625 Z " fill="#000000"/><text fill="#000000" font-family="sans-serif" font-size="9.8" lengthAdjust="spacing" textLength="72.1" x="358.855" y="256.4078">ExamListService</text><line style="stroke:#181818;stroke-width:0.3499999999999999;" x1="315" x2="452.2" y1="263.55" y2="263.55"/><rect fill="none" height="4.2" style="stroke:#C82930;stroke-width:0.6999999999999998;" width="4.2" x="319.9" y="271.8174"/><text fill="#000000" font-family="sans-serif" font-size="9.8" lengthAdjust="spacing" textLength="70.7" x="328.3" y="276.9252">examRepository</text><line style="stroke:#181818;stroke-width:0.3499999999999999;" x1="315" x2="452.2" y1="282.1848" y2="282.1848"/><ellipse cx="322" cy="292.5521" fill="#84BE84" rx="2.1" ry="2.1" style="stroke:#038048;stroke-width:0.6999999999999998;"/><text fill="#000000" font-family="sans-serif" font-size="9.8" lengthAdjust="spacing" textLength="120.4" x="328.3" y="295.56">listAllCourseExams(course)</text></g><!--class Exam--><g id="elem_Exam"><rect codeLine="49" fill="#F1F1F1" height="137.8781" id="Exam" rx="1.75" ry="1.75" style="stroke:#181818;stroke-width:0.3499999999999999;" width="66.5" x="336.35" y="349.3"/><ellipse cx="355.985" cy="360.5" fill="#ADD1B2" rx="7.7" ry="7.7" style="stroke:#181818;stroke-width:0.6999999999999998;"/><path d="M357.9209,357.6125 Q358.0303,357.4594 358.1616,357.3828 Q358.2928,357.3062 358.4459,357.3062 Q358.7084,357.3062 358.8725,357.4922 Q359.0366,357.6672 359.0366,358.0937 L359.0366,359.1109 Q359.0366,359.5375 358.8725,359.7234 Q358.7084,359.9094 358.4459,359.9094 Q358.2053,359.9094 358.0631,359.7672 Q357.9209,359.6359 357.8444,359.275 Q357.8116,359.0234 357.6803,358.8922 Q357.4506,358.6297 357.0241,358.4766 Q356.5975,358.3234 356.16,358.3234 Q355.6241,358.3234 355.1756,358.5531 Q354.7381,358.7828 354.3881,359.3078 Q354.0491,359.8328 354.0491,360.5547 L354.0491,361.3203 Q354.0491,362.1844 354.6725,362.7641 Q355.2959,363.3328 356.4116,363.3328 Q357.0678,363.3328 357.5272,363.1578 Q357.8006,363.0484 358.0959,362.7422 Q358.2819,362.5562 358.3803,362.5016 Q358.4897,362.4469 358.6319,362.4469 Q358.8616,362.4469 359.0366,362.6328 Q359.2225,362.8078 359.2225,363.0484 Q359.2225,363.2891 358.9819,363.5734 Q358.6319,363.9781 358.0741,364.2078 Q357.3194,364.525 356.4116,364.525 Q355.3506,364.525 354.5084,364.0875 Q353.8194,363.7375 353.3381,362.9937 Q352.8569,362.2391 352.8569,361.3422 L352.8569,360.5328 Q352.8569,359.6031 353.2834,358.8047 Q353.7209,357.9953 354.4866,357.5687 Q355.2522,357.1312 356.1162,357.1312 Q356.6303,357.1312 357.0787,357.2516 Q357.5381,357.3609 357.9209,357.6125 Z " fill="#000000"/><text fill="#000000" font-family="sans-serif" font-size="9.8" lengthAdjust="spacing" textLength="23.8" x="367.815" y="364.5578">Exam</text><line style="stroke:#181818;stroke-width:0.3499999999999999;" x1="337.05" x2="402.15" y1="371.7" y2="371.7"/><rect fill="none" height="4.2" style="stroke:#C82930;stroke-width:0.6999999999999998;" width="4.2" x="341.95" y="379.9674"/><text fill="#000000" font-family="sans-serif" font-size="9.8" lengthAdjust="spacing" textLength="21.7" x="350.35" y="385.0752">code</text><rect fill="none" height="4.2" style="stroke:#C82930;stroke-width:0.6999999999999998;" width="4.2" x="341.95" y="393.0021"/><text fill="#000000" font-family="sans-serif" font-size="9.8" lengthAdjust="spacing" textLength="30.1" x="350.35" y="398.11">course</text><rect fill="none" height="4.2" style="stroke:#C82930;stroke-width:0.6999999999999998;" width="4.2" x="341.95" y="406.0369"/><text fill="#000000" font-family="sans-serif" font-size="9.8" lengthAdjust="spacing" textLength="33.6" x="350.35" y="411.1447">teacher</text><rect fill="none" height="4.2" style="stroke:#C82930;stroke-width:0.6999999999999998;" width="4.2" x="341.95" y="419.0717"/><text fill="#000000" font-family="sans-serif" font-size="9.8" lengthAdjust="spacing" textLength="37.8" x="350.35" y="424.1795">identifier</text><rect fill="none" height="4.2" style="stroke:#C82930;stroke-width:0.6999999999999998;" width="4.2" x="341.95" y="432.1064"/><text fill="#000000" font-family="sans-serif" font-size="9.8" lengthAdjust="spacing" textLength="15.4" x="350.35" y="437.2143">title</text><rect fill="none" height="4.2" style="stroke:#C82930;stroke-width:0.6999999999999998;" width="4.2" x="341.95" y="445.1412"/><text fill="#000000" font-family="sans-serif" font-size="9.8" lengthAdjust="spacing" textLength="48.3" x="350.35" y="450.249">description</text><rect fill="none" height="4.2" style="stroke:#C82930;stroke-width:0.6999999999999998;" width="4.2" x="341.95" y="458.176"/><text fill="#000000" font-family="sans-serif" font-size="9.8" lengthAdjust="spacing" textLength="21.7" x="350.35" y="463.2838">state</text><line style="stroke:#181818;stroke-width:0.3499999999999999;" x1="337.05" x2="402.15" y1="468.5434" y2="468.5434"/><ellipse cx="344.05" cy="478.9107" fill="#84BE84" rx="2.1" ry="2.1" style="stroke:#038048;stroke-width:0.6999999999999998;"/><text fill="#000000" font-family="sans-serif" font-size="9.8" lengthAdjust="spacing" textLength="30.8" x="350.35" y="481.9186">toDto()</text></g><!--class ExamDTO--><g id="elem_ExamDTO"><rect codeLine="60" fill="#F1F1F1" height="124.8434" id="ExamDTO" rx="1.75" ry="1.75" style="stroke:#181818;stroke-width:0.3499999999999999;" width="67.2" x="427.7" y="355.95"/><ellipse cx="438.2" cy="367.15" fill="#ADD1B2" rx="7.7" ry="7.7" style="stroke:#181818;stroke-width:0.6999999999999998;"/><path d="M440.1359,364.2625 Q440.2453,364.1094 440.3766,364.0328 Q440.5078,363.9562 440.6609,363.9562 Q440.9234,363.9562 441.0875,364.1422 Q441.2516,364.3172 441.2516,364.7437 L441.2516,365.7609 Q441.2516,366.1875 441.0875,366.3734 Q440.9234,366.5594 440.6609,366.5594 Q440.4203,366.5594 440.2781,366.4172 Q440.1359,366.2859 440.0594,365.925 Q440.0266,365.6734 439.8953,365.5422 Q439.6656,365.2797 439.2391,365.1266 Q438.8125,364.9734 438.375,364.9734 Q437.8391,364.9734 437.3906,365.2031 Q436.9531,365.4328 436.6031,365.9578 Q436.2641,366.4828 436.2641,367.2047 L436.2641,367.9703 Q436.2641,368.8344 436.8875,369.4141 Q437.5109,369.9828 438.6266,369.9828 Q439.2828,369.9828 439.7422,369.8078 Q440.0156,369.6984 440.3109,369.3922 Q440.4969,369.2062 440.5953,369.1516 Q440.7047,369.0969 440.8469,369.0969 Q441.0766,369.0969 441.2516,369.2828 Q441.4375,369.4578 441.4375,369.6984 Q441.4375,369.9391 441.1969,370.2234 Q440.8469,370.6281 440.2891,370.8578 Q439.5344,371.175 438.6266,371.175 Q437.5656,371.175 436.7234,370.7375 Q436.0344,370.3875 435.5531,369.6437 Q435.0719,368.8891 435.0719,367.9922 L435.0719,367.1828 Q435.0719,366.2531 435.4984,365.4547 Q435.9359,364.6453 436.7016,364.2187 Q437.4672,363.7812 438.3312,363.7812 Q438.8453,363.7812 439.2937,363.9016 Q439.7531,364.0109 440.1359,364.2625 Z " fill="#000000"/><text fill="#000000" font-family="sans-serif" font-size="9.8" lengthAdjust="spacing" textLength="44.8" x="448" y="371.2078">ExamDTO</text><line style="stroke:#181818;stroke-width:0.3499999999999999;" x1="428.4" x2="494.2" y1="378.35" y2="378.35"/><rect fill="none" height="4.2" style="stroke:#C82930;stroke-width:0.6999999999999998;" width="4.2" x="433.3" y="386.6174"/><text fill="#000000" font-family="sans-serif" font-size="9.8" lengthAdjust="spacing" textLength="21.7" x="441.7" y="391.7252">code</text><rect fill="none" height="4.2" style="stroke:#C82930;stroke-width:0.6999999999999998;" width="4.2" x="433.3" y="399.6521"/><text fill="#000000" font-family="sans-serif" font-size="9.8" lengthAdjust="spacing" textLength="30.1" x="441.7" y="404.76">course</text><rect fill="none" height="4.2" style="stroke:#C82930;stroke-width:0.6999999999999998;" width="4.2" x="433.3" y="412.6869"/><text fill="#000000" font-family="sans-serif" font-size="9.8" lengthAdjust="spacing" textLength="33.6" x="441.7" y="417.7947">teacher</text><rect fill="none" height="4.2" style="stroke:#C82930;stroke-width:0.6999999999999998;" width="4.2" x="433.3" y="425.7217"/><text fill="#000000" font-family="sans-serif" font-size="9.8" lengthAdjust="spacing" textLength="37.8" x="441.7" y="430.8295">identifier</text><rect fill="none" height="4.2" style="stroke:#C82930;stroke-width:0.6999999999999998;" width="4.2" x="433.3" y="438.7564"/><text fill="#000000" font-family="sans-serif" font-size="9.8" lengthAdjust="spacing" textLength="15.4" x="441.7" y="443.8643">title</text><rect fill="none" height="4.2" style="stroke:#C82930;stroke-width:0.6999999999999998;" width="4.2" x="433.3" y="451.7912"/><text fill="#000000" font-family="sans-serif" font-size="9.8" lengthAdjust="spacing" textLength="48.3" x="441.7" y="456.899">description</text><rect fill="none" height="4.2" style="stroke:#C82930;stroke-width:0.6999999999999998;" width="4.2" x="433.3" y="464.826"/><text fill="#000000" font-family="sans-serif" font-size="9.8" lengthAdjust="spacing" textLength="21.7" x="441.7" y="469.9338">state</text><line style="stroke:#181818;stroke-width:0.3499999999999999;" x1="428.4" x2="494.2" y1="475.1934" y2="475.1934"/></g><!--class CourseDTO--><g id="elem_CourseDTO"><rect codeLine="70" fill="#F1F1F1" height="124.8434" id="CourseDTO" rx="1.75" ry="1.75" style="stroke:#181818;stroke-width:0.3499999999999999;" width="116.2" x="195.3" y="355.95"/><ellipse cx="224.07" cy="367.15" fill="#ADD1B2" rx="7.7" ry="7.7" style="stroke:#181818;stroke-width:0.6999999999999998;"/><path d="M226.0059,364.2625 Q226.1153,364.1094 226.2466,364.0328 Q226.3778,363.9562 226.5309,363.9562 Q226.7934,363.9562 226.9575,364.1422 Q227.1216,364.3172 227.1216,364.7437 L227.1216,365.7609 Q227.1216,366.1875 226.9575,366.3734 Q226.7934,366.5594 226.5309,366.5594 Q226.2903,366.5594 226.1481,366.4172 Q226.0059,366.2859 225.9294,365.925 Q225.8966,365.6734 225.7653,365.5422 Q225.5356,365.2797 225.1091,365.1266 Q224.6825,364.9734 224.245,364.9734 Q223.7091,364.9734 223.2606,365.2031 Q222.8231,365.4328 222.4731,365.9578 Q222.1341,366.4828 222.1341,367.2047 L222.1341,367.9703 Q222.1341,368.8344 222.7575,369.4141 Q223.3809,369.9828 224.4966,369.9828 Q225.1528,369.9828 225.6122,369.8078 Q225.8856,369.6984 226.1809,369.3922 Q226.3669,369.2062 226.4653,369.1516 Q226.5747,369.0969 226.7169,369.0969 Q226.9466,369.0969 227.1216,369.2828 Q227.3075,369.4578 227.3075,369.6984 Q227.3075,369.9391 227.0669,370.2234 Q226.7169,370.6281 226.1591,370.8578 Q225.4044,371.175 224.4966,371.175 Q223.4356,371.175 222.5934,370.7375 Q221.9044,370.3875 221.4231,369.6437 Q220.9419,368.8891 220.9419,367.9922 L220.9419,367.1828 Q220.9419,366.2531 221.3684,365.4547 Q221.8059,364.6453 222.5716,364.2187 Q223.3372,363.7812 224.2012,363.7812 Q224.7153,363.7812 225.1637,363.9016 Q225.6231,364.0109 226.0059,364.2625 Z " fill="#000000"/><text fill="#000000" font-family="sans-serif" font-size="9.8" lengthAdjust="spacing" textLength="53.2" x="237.93" y="371.2078">CourseDTO</text><line style="stroke:#181818;stroke-width:0.3499999999999999;" x1="196" x2="310.8" y1="378.35" y2="378.35"/><rect fill="none" height="4.2" style="stroke:#C82930;stroke-width:0.6999999999999998;" width="4.2" x="200.9" y="386.6174"/><text fill="#000000" font-family="sans-serif" font-size="9.8" lengthAdjust="spacing" textLength="21.7" x="209.3" y="391.7252">code</text><rect fill="none" height="4.2" style="stroke:#C82930;stroke-width:0.6999999999999998;" width="4.2" x="200.9" y="399.6521"/><text fill="#000000" font-family="sans-serif" font-size="9.8" lengthAdjust="spacing" textLength="15.4" x="209.3" y="404.76">title</text><rect fill="none" height="4.2" style="stroke:#C82930;stroke-width:0.6999999999999998;" width="4.2" x="200.9" y="412.6869"/><text fill="#000000" font-family="sans-serif" font-size="9.8" lengthAdjust="spacing" textLength="48.3" x="209.3" y="417.7947">description</text><rect fill="none" height="4.2" style="stroke:#C82930;stroke-width:0.6999999999999998;" width="4.2" x="200.9" y="425.7217"/><text fill="#000000" font-family="sans-serif" font-size="9.8" lengthAdjust="spacing" textLength="69.3" x="209.3" y="430.8295">enrolmentLimits</text><rect fill="none" height="4.2" style="stroke:#C82930;stroke-width:0.6999999999999998;" width="4.2" x="200.9" y="438.7564"/><text fill="#000000" font-family="sans-serif" font-size="9.8" lengthAdjust="spacing" textLength="53.2" x="209.3" y="443.8643">courseState</text><rect fill="none" height="4.2" style="stroke:#C82930;stroke-width:0.6999999999999998;" width="4.2" x="200.9" y="451.7912"/><text fill="#000000" font-family="sans-serif" font-size="9.8" lengthAdjust="spacing" textLength="98" x="209.3" y="456.899">courseEnrolmentState</text><rect fill="none" height="4.2" style="stroke:#C82930;stroke-width:0.6999999999999998;" width="4.2" x="200.9" y="464.826"/><text fill="#000000" font-family="sans-serif" font-size="9.8" lengthAdjust="spacing" textLength="42.7" x="209.3" y="469.9338">createdAt</text><line style="stroke:#181818;stroke-width:0.3499999999999999;" x1="196" x2="310.8" y1="475.1934" y2="475.1934"/></g><!--class InMemoryCourseRepository--><g id="elem_InMemoryCourseRepository"><rect codeLine="82" fill="#F1F1F1" height="59.6695" id="InMemoryCourseRepository" rx="1.75" ry="1.75" style="stroke:#181818;stroke-width:0.3499999999999999;" width="144.9" x="215.25" y="630.7"/><ellipse cx="225.75" cy="641.9" fill="#ADD1B2" rx="7.7" ry="7.7" style="stroke:#181818;stroke-width:0.6999999999999998;"/><path d="M227.6859,639.0125 Q227.7953,638.8594 227.9266,638.7828 Q228.0578,638.7062 228.2109,638.7062 Q228.4734,638.7062 228.6375,638.8922 Q228.8016,639.0672 228.8016,639.4937 L228.8016,640.5109 Q228.8016,640.9375 228.6375,641.1234 Q228.4734,641.3094 228.2109,641.3094 Q227.9703,641.3094 227.8281,641.1672 Q227.6859,641.0359 227.6094,640.675 Q227.5766,640.4234 227.4453,640.2922 Q227.2156,640.0297 226.7891,639.8766 Q226.3625,639.7234 225.925,639.7234 Q225.3891,639.7234 224.9406,639.9531 Q224.5031,640.1828 224.1531,640.7078 Q223.8141,641.2328 223.8141,641.9547 L223.8141,642.7203 Q223.8141,643.5844 224.4375,644.1641 Q225.0609,644.7328 226.1766,644.7328 Q226.8328,644.7328 227.2922,644.5578 Q227.5656,644.4484 227.8609,644.1422 Q228.0469,643.9562 228.1453,643.9016 Q228.2547,643.8469 228.3969,643.8469 Q228.6266,643.8469 228.8016,644.0328 Q228.9875,644.2078 228.9875,644.4484 Q228.9875,644.6891 228.7469,644.9734 Q228.3969,645.3781 227.8391,645.6078 Q227.0844,645.925 226.1766,645.925 Q225.1156,645.925 224.2734,645.4875 Q223.5844,645.1375 223.1031,644.3937 Q222.6219,643.6391 222.6219,642.7422 L222.6219,641.9328 Q222.6219,641.0031 223.0484,640.2047 Q223.4859,639.3953 224.2516,638.9687 Q225.0172,638.5312 225.8812,638.5312 Q226.3953,638.5312 226.8437,638.6516 Q227.3031,638.7609 227.6859,639.0125 Z " fill="#000000"/><text fill="#000000" font-family="sans-serif" font-size="9.8" lengthAdjust="spacing" textLength="122.5" x="235.55" y="645.9578">InMemoryCourseRepository</text><line style="stroke:#181818;stroke-width:0.3499999999999999;" x1="215.95" x2="359.45" y1="653.1" y2="653.1"/><line style="stroke:#181818;stroke-width:0.3499999999999999;" x1="215.95" x2="359.45" y1="658.7" y2="658.7"/><ellipse cx="222.95" cy="669.0674" fill="#84BE84" rx="2.1" ry="2.1" style="stroke:#038048;stroke-width:0.6999999999999998;"/><text fill="#000000" font-family="sans-serif" font-size="9.8" lengthAdjust="spacing" textLength="58.1" x="229.25" y="672.0752">findAllOpen()</text><ellipse cx="222.95" cy="682.1021" fill="#84BE84" rx="2.1" ry="2.1" style="stroke:#038048;stroke-width:0.6999999999999998;"/><text fill="#000000" font-family="sans-serif" font-size="9.8" lengthAdjust="spacing" textLength="81.2" x="229.25" y="685.11">findAllInProgress()</text></g><!--class JpaCourseRepository--><g id="elem_JpaCourseRepository"><rect codeLine="87" fill="#F1F1F1" height="59.6695" id="JpaCourseRepository" rx="1.75" ry="1.75" style="stroke:#181818;stroke-width:0.3499999999999999;" width="117.6" x="385" y="630.7"/><ellipse cx="395.5" cy="641.9" fill="#ADD1B2" rx="7.7" ry="7.7" style="stroke:#181818;stroke-width:0.6999999999999998;"/><path d="M397.4359,639.0125 Q397.5453,638.8594 397.6766,638.7828 Q397.8078,638.7062 397.9609,638.7062 Q398.2234,638.7062 398.3875,638.8922 Q398.5516,639.0672 398.5516,639.4937 L398.5516,640.5109 Q398.5516,640.9375 398.3875,641.1234 Q398.2234,641.3094 397.9609,641.3094 Q397.7203,641.3094 397.5781,641.1672 Q397.4359,641.0359 397.3594,640.675 Q397.3266,640.4234 397.1953,640.2922 Q396.9656,640.0297 396.5391,639.8766 Q396.1125,639.7234 395.675,639.7234 Q395.1391,639.7234 394.6906,639.9531 Q394.2531,640.1828 393.9031,640.7078 Q393.5641,641.2328 393.5641,641.9547 L393.5641,642.7203 Q393.5641,643.5844 394.1875,644.1641 Q394.8109,644.7328 395.9266,644.7328 Q396.5828,644.7328 397.0422,644.5578 Q397.3156,644.4484 397.6109,644.1422 Q397.7969,643.9562 397.8953,643.9016 Q398.0047,643.8469 398.1469,643.8469 Q398.3766,643.8469 398.5516,644.0328 Q398.7375,644.2078 398.7375,644.4484 Q398.7375,644.6891 398.4969,644.9734 Q398.1469,645.3781 397.5891,645.6078 Q396.8344,645.925 395.9266,645.925 Q394.8656,645.925 394.0234,645.4875 Q393.3344,645.1375 392.8531,644.3937 Q392.3719,643.6391 392.3719,642.7422 L392.3719,641.9328 Q392.3719,641.0031 392.7984,640.2047 Q393.2359,639.3953 394.0016,638.9687 Q394.7672,638.5312 395.6312,638.5312 Q396.1453,638.5312 396.5937,638.6516 Q397.0531,638.7609 397.4359,639.0125 Z " fill="#000000"/><text fill="#000000" font-family="sans-serif" font-size="9.8" lengthAdjust="spacing" textLength="95.2" x="405.3" y="645.9578">JpaCourseRepository</text><line style="stroke:#181818;stroke-width:0.3499999999999999;" x1="385.7" x2="501.9" y1="653.1" y2="653.1"/><line style="stroke:#181818;stroke-width:0.3499999999999999;" x1="385.7" x2="501.9" y1="658.7" y2="658.7"/><ellipse cx="392.7" cy="669.0674" fill="#84BE84" rx="2.1" ry="2.1" style="stroke:#038048;stroke-width:0.6999999999999998;"/><text fill="#000000" font-family="sans-serif" font-size="9.8" lengthAdjust="spacing" textLength="58.1" x="399" y="672.0752">findAllOpen()</text><ellipse cx="392.7" cy="682.1021" fill="#84BE84" rx="2.1" ry="2.1" style="stroke:#038048;stroke-width:0.6999999999999998;"/><text fill="#000000" font-family="sans-serif" font-size="9.8" lengthAdjust="spacing" textLength="81.2" x="399" y="685.11">findAllInProgress()</text></g><!--class PersistenceContext--><g id="elem_PersistenceContext"><rect codeLine="92" fill="#F1F1F1" height="46.6348" id="PersistenceContext" rx="1.75" ry="1.75" style="stroke:#181818;stroke-width:0.3499999999999999;" width="107.8" x="504.7" y="247.45"/><ellipse cx="515.2" cy="258.65" fill="#ADD1B2" rx="7.7" ry="7.7" style="stroke:#181818;stroke-width:0.6999999999999998;"/><path d="M517.1359,255.7625 Q517.2453,255.6094 517.3766,255.5328 Q517.5078,255.4562 517.6609,255.4562 Q517.9234,255.4562 518.0875,255.6422 Q518.2516,255.8172 518.2516,256.2437 L518.2516,257.2609 Q518.2516,257.6875 518.0875,257.8734 Q517.9234,258.0594 517.6609,258.0594 Q517.4203,258.0594 517.2781,257.9172 Q517.1359,257.7859 517.0594,257.425 Q517.0266,257.1734 516.8953,257.0422 Q516.6656,256.7797 516.2391,256.6266 Q515.8125,256.4734 515.375,256.4734 Q514.8391,256.4734 514.3906,256.7031 Q513.9531,256.9328 513.6031,257.4578 Q513.2641,257.9828 513.2641,258.7047 L513.2641,259.4703 Q513.2641,260.3344 513.8875,260.9141 Q514.5109,261.4828 515.6266,261.4828 Q516.2828,261.4828 516.7422,261.3078 Q517.0156,261.1984 517.3109,260.8922 Q517.4969,260.7062 517.5953,260.6516 Q517.7047,260.5969 517.8469,260.5969 Q518.0766,260.5969 518.2516,260.7828 Q518.4375,260.9578 518.4375,261.1984 Q518.4375,261.4391 518.1969,261.7234 Q517.8469,262.1281 517.2891,262.3578 Q516.5344,262.675 515.6266,262.675 Q514.5656,262.675 513.7234,262.2375 Q513.0344,261.8875 512.5531,261.1437 Q512.0719,260.3891 512.0719,259.4922 L512.0719,258.6828 Q512.0719,257.7531 512.4984,256.9547 Q512.9359,256.1453 513.7016,255.7187 Q514.4672,255.2812 515.3312,255.2812 Q515.8453,255.2812 516.2937,255.4016 Q516.7531,255.5109 517.1359,255.7625 Z " fill="#000000"/><text fill="#000000" font-family="sans-serif" font-size="9.8" lengthAdjust="spacing" textLength="85.4" x="525" y="262.7078">PersistenceContext</text><line style="stroke:#181818;stroke-width:0.3499999999999999;" x1="505.4" x2="611.8" y1="269.85" y2="269.85"/><line style="stroke:#181818;stroke-width:0.3499999999999999;" x1="505.4" x2="611.8" y1="275.45" y2="275.45"/><rect fill="#F24D5C" height="4.2" style="stroke:#C82930;stroke-width:0.6999999999999998;" width="4.2" x="510.3" y="283.7174"/><text fill="#000000" font-family="sans-serif" font-size="9.8" lengthAdjust="spacing" textLength="58.8" x="518.7" y="288.8252">repositories()</text></g><!--link PersistenceContext to RepositoryFactory--><g id="link_PersistenceContext_RepositoryFactory"><path codeLine="97" d="M560.784,294.406 C563.297,320.572 567.406,363.412 570.059,391.041 " fill="none" id="PersistenceContext-to-RepositoryFactory" style="stroke:#181818;stroke-width:0.6999999999999998;stroke-dasharray:7.0,7.0;"/><polygon fill="#181818" points="570.402,394.667,572.5779,388.1252,570.0626,391.1835,567.0043,388.6682,570.402,394.667" style="stroke:#181818;stroke-width:0.6999999999999998;"/></g><!--link RepositoryFactory to CourseRepository--><g id="link_RepositoryFactory_CourseRepository"><path codeLine="98" d="M554.358,441.791 C542.157,456.071 525.147,474.159 507.5,487.2 C480.746,506.968 447.664,523.88 420.154,536.235 " fill="none" id="RepositoryFactory-to-CourseRepository" style="stroke:#181818;stroke-width:0.6999999999999998;"/><polygon fill="#181818" points="416.829,537.719,423.7232,537.697,420.0228,536.2873,421.4325,532.5869,416.829,537.719" style="stroke:#181818;stroke-width:0.6999999999999998;"/></g><!--reverse link CourseRepository to InMemoryCourseRepository--><g id="link_CourseRepository_InMemoryCourseRepository"><path codeLine="100" d="M334.005,600.096 C326.06,610.33 317.688,621.117 310.275,630.665 " fill="none" id="CourseRepository-backto-InMemoryCourseRepository" style="stroke:#181818;stroke-width:0.6999999999999998;stroke-dasharray:7.0,7.0;"/><polygon fill="none" points="330.26,596.925,342.72,588.875,338.002,602.938,330.26,596.925" style="stroke:#181818;stroke-width:0.6999999999999998;"/></g><!--reverse link CourseRepository to JpaCourseRepository--><g id="link_CourseRepository_JpaCourseRepository"><path codeLine="101" d="M397.075,600.096 C405.09,610.33 413.539,621.117 421.022,630.665 " fill="none" id="CourseRepository-backto-JpaCourseRepository" style="stroke:#181818;stroke-width:0.6999999999999998;stroke-dasharray:7.0,7.0;"/><polygon fill="none" points="393.064,602.917,388.29,588.875,400.778,596.876,393.064,602.917" style="stroke:#181818;stroke-width:0.6999999999999998;"/></g><!--link ListCourseExamsController to PersistenceContext--><g id="link_ListCourseExamsController_PersistenceContext"><path codeLine="102" d="M456.547,192.64 C480.592,210.917 506.149,230.335 525.672,245.175 " fill="none" id="ListCourseExamsController-to-PersistenceContext" style="stroke:#181818;stroke-width:0.6999999999999998;stroke-dasharray:7.0,7.0;"/><polygon fill="#181818" points="528.507,247.331,525.1953,241.2843,525.7239,245.2086,521.7995,245.7372,528.507,247.331" style="stroke:#181818;stroke-width:0.6999999999999998;"/></g><!--link ListCourseExamsUI to ListCourseExamsController--><g id="link_ListCourseExamsUI_ListCourseExamsController"><path codeLine="103" d="M383.6,38.647 C383.6,48.867 383.6,62.741 383.6,76.811 " fill="none" id="ListCourseExamsUI-to-ListCourseExamsController" style="stroke:#181818;stroke-width:0.6999999999999998;stroke-dasharray:7.0,7.0;"/><polygon fill="#181818" points="383.6,80.388,386.4,74.088,383.6,76.888,380.8,74.088,383.6,80.388" style="stroke:#181818;stroke-width:0.6999999999999998;"/></g><!--link ExamListService to Exam--><g id="link_ExamListService_Exam"><path codeLine="105" d="M380.8,300.783 C379.554,313.775 378.028,329.707 376.502,345.576 " fill="none" id="ExamListService-to-Exam" style="stroke:#181818;stroke-width:0.6999999999999998;stroke-dasharray:7.0,7.0;"/><polygon fill="#181818" points="376.159,349.174,379.5412,343.1665,376.4894,345.6896,373.9663,342.6378,376.159,349.174" style="stroke:#181818;stroke-width:0.6999999999999998;"/></g><!--link CourseListService to Course--><g id="link_CourseListService_Course"><path codeLine="106" d="M167.167,307.3 C154.049,321.181 138.614,337.526 123.697,353.311 " fill="none" id="CourseListService-to-Course" style="stroke:#181818;stroke-width:0.6999999999999998;stroke-dasharray:7.0,7.0;"/><polygon fill="#181818" points="121.114,356.048,127.476,353.3918,123.5178,353.504,123.4056,349.5458,121.114,356.048" style="stroke:#181818;stroke-width:0.6999999999999998;"/></g><!--link CourseListService to CourseRepository--><g id="link_CourseListService_CourseRepository"><path codeLine="107" d="M185.059,307.384 C167.405,353.269 145.852,433.328 182.7,487.2 C211.155,528.794 267.827,546.042 310.548,553.196 " fill="none" id="CourseListService-to-CourseRepository" style="stroke:#181818;stroke-width:0.6999999999999998;stroke-dasharray:7.0,7.0;"/><polygon fill="#181818" points="314.111,553.77,308.3393,549.9994,310.656,553.2108,307.4446,555.5275,314.111,553.77" style="stroke:#181818;stroke-width:0.6999999999999998;"/></g><!--link ExamListService to ExamDTO--><g id="link_ExamListService_ExamDTO"><path codeLine="109" d="M399.14,300.783 C407.092,315.728 417.116,334.551 426.776,352.702 " fill="none" id="ExamListService-to-ExamDTO" style="stroke:#181818;stroke-width:0.6999999999999998;stroke-dasharray:7.0,7.0;"/><polygon fill="#181818" points="428.449,355.845,427.9514,348.9688,426.8004,352.7576,423.0116,351.6066,428.449,355.845" style="stroke:#181818;stroke-width:0.6999999999999998;"/></g><!--link CourseListService to CourseDTO--><g id="link_CourseListService_CourseDTO"><path codeLine="110" d="M213.745,307.3 C218.645,320.936 224.399,336.938 229.985,352.457 " fill="none" id="CourseListService-to-CourseDTO" style="stroke:#181818;stroke-width:0.6999999999999998;stroke-dasharray:7.0,7.0;"/><polygon fill="#181818" points="231.175,355.761,231.6837,348.8856,229.9934,352.4665,226.4125,350.7762,231.175,355.761" style="stroke:#181818;stroke-width:0.6999999999999998;"/></g><!--link ListCourseExamsController to CourseListService--><g id="link_ListCourseExamsController_CourseListService"><path codeLine="112" d="M310.345,190.533 C291.116,204.526 270.781,219.331 252.924,232.33 " fill="none" id="ListCourseExamsController-to-CourseListService" style="stroke:#181818;stroke-width:0.6999999999999998;"/><polygon fill="#181818" points="250.075,234.402,256.8163,232.9581,252.9047,232.3422,253.5206,228.4306,250.075,234.402" style="stroke:#181818;stroke-width:0.6999999999999998;"/></g><!--link ListCourseExamsController to ExamListService--><g id="link_ListCourseExamsController_ExamListService"><path codeLine="113" d="M383.6,192.64 C383.6,207.823 383.6,223.79 383.6,237.272 " fill="none" id="ListCourseExamsController-to-ExamListService" style="stroke:#181818;stroke-width:0.6999999999999998;"/><polygon fill="#181818" points="383.6,241.003,386.4,234.703,383.6,237.503,380.8,234.703,383.6,241.003" style="stroke:#181818;stroke-width:0.6999999999999998;"/></g><!--SRC=[lLJBRi8m4BpxAt84eUGBAYG4LAAY0fNs0ondAPOIExANYhx-lTuu8IQl4-h9zkvwF9vPMsJSscWhBIxrsLXONtXktpRHDsE_Z8c-x58hD3hBmBYgE19bXceEO3waW6li1Gfj9MhpwKByZ2Tjv1T7gLLJ2Gunt3kBChVQ5Q0sQc_qkm5h_TbsCgso0PU9FsbAP2ksFkkeHH4HIQ6SeCJCprAmmiY2Q9HhKEuoEIZSoboYhROHnW4vGh1UrvL1me2RfWjqgrc4UeLwCcsKQnHuv8A6ajQi6_URf48mHowWkaHJLkqxIfKkiepaSJk2I2DMUFooRSrLbPOz9LGjV2Dt7Uspudh8-jR1iYV8rG3UepYQVSxT8bKjbJPTv2O8N9p0k9bCdVpoACk5z_JMqJYofJazPX3ywdLthnDQAdla_-qvQlgAn4OzG-wqla_ZF1NyFa1xCDPP3qe0VHjmmKeaKmFBkfjOJssIpBjlXNLVLHpFEq-6iSuL7dwIP52fWV8UATZmXqY4k_TWtV-L2WTX66i_AYgd6Ei-QKhvw6Wo56O8tVNmA0RbHoxVk13-wEFrBIgC_G40]--></g></svg>