<?xml version="1.0" encoding="us-ascii" standalone="no"?><svg xmlns="http://www.w3.org/2000/svg" xmlns:xlink="http://www.w3.org/1999/xlink" contentStyleType="text/css" height="586.8px" preserveAspectRatio="none" style="width:1151px;height:586px;background:#FFFFFF;" version="1.1" viewBox="0 0 1151 586" width="1151.4px" zoomAndPan="magnify"><defs/><g><!--class ListCourseExamsUI--><g id="elem_ListCourseExamsUI"><rect codeLine="2" fill="#F1F1F1" height="28.8" id="ListCourseExamsUI" rx="1.5" ry="1.5" style="stroke:#181818;stroke-width:0.3;" width="91.8" x="598.5" y="4.2"/><ellipse cx="607.5" cy="13.8" fill="#ADD1B2" rx="6.6" ry="6.6" style="stroke:#181818;stroke-width:0.6;"/><path d="M609.1594,11.325 Q609.2531,11.1938 609.3656,11.1281 Q609.4781,11.0625 609.6094,11.0625 Q609.8344,11.0625 609.975,11.2219 Q610.1156,11.3719 610.1156,11.7375 L610.1156,12.6094 Q610.1156,12.975 609.975,13.1344 Q609.8344,13.2938 609.6094,13.2938 Q609.4031,13.2938 609.2813,13.1719 Q609.1594,13.0594 609.0938,12.75 Q609.0656,12.5344 608.9531,12.4219 Q608.7563,12.1969 608.3906,12.0656 Q608.025,11.9344 607.65,11.9344 Q607.1906,11.9344 606.8063,12.1313 Q606.4313,12.3281 606.1313,12.7781 Q605.8406,13.2281 605.8406,13.8469 L605.8406,14.5031 Q605.8406,15.2437 606.375,15.7406 Q606.9094,16.2281 607.8656,16.2281 Q608.4281,16.2281 608.8219,16.0781 Q609.0563,15.9844 609.3094,15.7219 Q609.4688,15.5625 609.5531,15.5156 Q609.6469,15.4688 609.7688,15.4688 Q609.9656,15.4688 610.1156,15.6281 Q610.275,15.7781 610.275,15.9844 Q610.275,16.1906 610.0688,16.4344 Q609.7688,16.7813 609.2906,16.9781 Q608.6438,17.25 607.8656,17.25 Q606.9563,17.25 606.2344,16.875 Q605.6438,16.575 605.2312,15.9375 Q604.8188,15.2906 604.8188,14.5219 L604.8188,13.8281 Q604.8188,13.0313 605.1844,12.3469 Q605.5594,11.6531 606.2156,11.2875 Q606.8719,10.9125 607.6125,10.9125 Q608.0531,10.9125 608.4375,11.0156 Q608.8313,11.1094 609.1594,11.325 Z " fill="#000000"/><text fill="#000000" font-family="sans-serif" font-size="8.4" lengthAdjust="spacing" textLength="72.6" x="615.9" y="17.2781">ListCourseExamsUI</text><line style="stroke:#181818;stroke-width:0.3;" x1="599.1" x2="689.7" y1="23.4" y2="23.4"/><line style="stroke:#181818;stroke-width:0.3;" x1="599.1" x2="689.7" y1="28.2" y2="28.2"/></g><!--class ListCourseExamsController--><g id="elem_ListCourseExamsController"><rect codeLine="6" fill="#F1F1F1" height="151.6992" id="ListCourseExamsController" rx="1.5" ry="1.5" style="stroke:#181818;stroke-width:0.3;" width="271.8" x="625.5" y="69"/><ellipse cx="707.55" cy="78.6" fill="#ADD1B2" rx="6.6" ry="6.6" style="stroke:#181818;stroke-width:0.6;"/><path d="M709.2094,76.125 Q709.3031,75.9937 709.4156,75.9281 Q709.5281,75.8625 709.6594,75.8625 Q709.8844,75.8625 710.025,76.0219 Q710.1656,76.1719 710.1656,76.5375 L710.1656,77.4094 Q710.1656,77.775 710.025,77.9344 Q709.8844,78.0938 709.6594,78.0938 Q709.4531,78.0938 709.3313,77.9719 Q709.2094,77.8594 709.1438,77.55 Q709.1156,77.3344 709.0031,77.2219 Q708.8063,76.9969 708.4406,76.8656 Q708.075,76.7344 707.7,76.7344 Q707.2406,76.7344 706.8562,76.9312 Q706.4812,77.1281 706.1813,77.5781 Q705.8906,78.0281 705.8906,78.6469 L705.8906,79.3031 Q705.8906,80.0438 706.425,80.5406 Q706.9594,81.0281 707.9156,81.0281 Q708.4781,81.0281 708.8719,80.8781 Q709.1062,80.7844 709.3594,80.5219 Q709.5188,80.3625 709.6031,80.3156 Q709.6969,80.2688 709.8188,80.2688 Q710.0156,80.2688 710.1656,80.4281 Q710.325,80.5781 710.325,80.7844 Q710.325,80.9906 710.1188,81.2344 Q709.8188,81.5813 709.3406,81.7781 Q708.6938,82.05 707.9156,82.05 Q707.0063,82.05 706.2844,81.675 Q705.6938,81.375 705.2813,80.7375 Q704.8688,80.0906 704.8688,79.3219 L704.8688,78.6281 Q704.8688,77.8313 705.2344,77.1469 Q705.6094,76.4531 706.2656,76.0875 Q706.9219,75.7125 707.6625,75.7125 Q708.1031,75.7125 708.4875,75.8156 Q708.8813,75.9094 709.2094,76.125 Z " fill="#000000"/><text fill="#000000" font-family="sans-serif" font-size="8.4" lengthAdjust="spacing" textLength="102.6" x="719.85" y="82.0781">ListCourseExamsController</text><line style="stroke:#181818;stroke-width:0.3;" x1="626.1" x2="896.7" y1="88.2" y2="88.2"/><rect fill="none" height="3.6" style="stroke:#C82930;stroke-width:0.6;" width="3.6" x="630.3" y="95.2863"/><text fill="#000000" font-family="sans-serif" font-size="8.4" lengthAdjust="spacing" textLength="67.2" x="637.5" y="99.6645">courseListService</text><rect fill="none" height="3.6" style="stroke:#C82930;stroke-width:0.6;" width="3.6" x="630.3" y="106.459"/><text fill="#000000" font-family="sans-serif" font-size="8.4" lengthAdjust="spacing" textLength="66.6" x="637.5" y="110.8371">courseRepository</text><rect fill="none" height="3.6" style="stroke:#C82930;stroke-width:0.6;" width="3.6" x="630.3" y="117.6316"/><text fill="#000000" font-family="sans-serif" font-size="8.4" lengthAdjust="spacing" textLength="76.8" x="637.5" y="122.0098">authorizationService</text><rect fill="none" height="3.6" style="stroke:#C82930;stroke-width:0.6;" width="3.6" x="630.3" y="128.8043"/><text fill="#000000" font-family="sans-serif" font-size="8.4" lengthAdjust="spacing" textLength="100.8" x="637.5" y="133.1824">evaluationExamListService</text><rect fill="none" height="3.6" style="stroke:#C82930;stroke-width:0.6;" width="3.6" x="630.3" y="139.977"/><text fill="#000000" font-family="sans-serif" font-size="8.4" lengthAdjust="spacing" textLength="96.6" x="637.5" y="144.3551">formativeExamListService</text><line style="stroke:#181818;stroke-width:0.3;" x1="626.1" x2="896.7" y1="148.8633" y2="148.8633"/><ellipse cx="632.1" cy="157.7496" fill="#84BE84" rx="1.8" ry="1.8" style="stroke:#038048;stroke-width:0.6;"/><text fill="#000000" font-family="sans-serif" font-size="8.4" lengthAdjust="spacing" textLength="256.2" x="637.5" y="160.3277">ListCourseExamsController(authorizationService, courseRepository,</text><text fill="#000000" font-family="sans-serif" font-size="8.4" lengthAdjust="spacing" textLength="204" x="637.5" y="171.5004">evaluationExamRepository, formativeExamRepository)</text><text fill="#000000" font-family="sans-serif" font-size="8.4" lengthAdjust="spacing" textLength="2.4" x="637.5" y="182.673">&#160;</text><ellipse cx="632.1" cy="191.2676" fill="#84BE84" rx="1.8" ry="1.8" style="stroke:#038048;stroke-width:0.6;"/><text fill="#000000" font-family="sans-serif" font-size="8.4" lengthAdjust="spacing" textLength="109.8" x="637.5" y="193.8457">listOpenInProgressCourses()</text><ellipse cx="632.1" cy="202.4402" fill="#84BE84" rx="1.8" ry="1.8" style="stroke:#038048;stroke-width:0.6;"/><text fill="#000000" font-family="sans-serif" font-size="8.4" lengthAdjust="spacing" textLength="151.8" x="637.5" y="205.0184">listCourseEvaluationExams(courseDTO)</text><ellipse cx="632.1" cy="213.6129" fill="#84BE84" rx="1.8" ry="1.8" style="stroke:#038048;stroke-width:0.6;"/><text fill="#000000" font-family="sans-serif" font-size="8.4" lengthAdjust="spacing" textLength="150" x="637.5" y="216.191">listCourseFormativeExams(courseDTO)</text></g><!--class Course--><g id="elem_Course"><rect codeLine="21" fill="#F1F1F1" height="118.1812" id="Course" rx="1.5" ry="1.5" style="stroke:#181818;stroke-width:0.3;" width="99.6" x="4.2" y="366.3"/><ellipse cx="37.65" cy="375.9" fill="#ADD1B2" rx="6.6" ry="6.6" style="stroke:#181818;stroke-width:0.6;"/><path d="M39.3094,373.425 Q39.4031,373.2938 39.5156,373.2281 Q39.6281,373.1625 39.7594,373.1625 Q39.9844,373.1625 40.125,373.3219 Q40.2656,373.4719 40.2656,373.8375 L40.2656,374.7094 Q40.2656,375.075 40.125,375.2344 Q39.9844,375.3938 39.7594,375.3938 Q39.5531,375.3938 39.4313,375.2719 Q39.3094,375.1594 39.2438,374.85 Q39.2156,374.6344 39.1031,374.5219 Q38.9063,374.2969 38.5406,374.1656 Q38.175,374.0344 37.8,374.0344 Q37.3406,374.0344 36.9563,374.2313 Q36.5813,374.4281 36.2813,374.8781 Q35.9906,375.3281 35.9906,375.9469 L35.9906,376.6031 Q35.9906,377.3438 36.525,377.8406 Q37.0594,378.3281 38.0156,378.3281 Q38.5781,378.3281 38.9719,378.1781 Q39.2063,378.0844 39.4594,377.8219 Q39.6188,377.6625 39.7031,377.6156 Q39.7969,377.5687 39.9187,377.5687 Q40.1156,377.5687 40.2656,377.7281 Q40.425,377.8781 40.425,378.0844 Q40.425,378.2906 40.2188,378.5344 Q39.9187,378.8812 39.4406,379.0781 Q38.7937,379.35 38.0156,379.35 Q37.1062,379.35 36.3844,378.975 Q35.7937,378.675 35.3813,378.0375 Q34.9688,377.3906 34.9688,376.6219 L34.9688,375.9281 Q34.9688,375.1312 35.3344,374.4469 Q35.7094,373.7531 36.3656,373.3875 Q37.0219,373.0125 37.7625,373.0125 Q38.2031,373.0125 38.5875,373.1156 Q38.9812,373.2094 39.3094,373.425 Z " fill="#000000"/><text fill="#000000" font-family="sans-serif" font-size="8.4" lengthAdjust="spacing" textLength="27.6" x="49.95" y="379.3781">Course</text><line style="stroke:#181818;stroke-width:0.3;" x1="4.8" x2="103.2" y1="385.5" y2="385.5"/><rect fill="none" height="3.6" style="stroke:#C82930;stroke-width:0.6;" width="3.6" x="9" y="392.5863"/><text fill="#000000" font-family="sans-serif" font-size="8.4" lengthAdjust="spacing" textLength="18.6" x="16.2" y="396.9645">code</text><rect fill="none" height="3.6" style="stroke:#C82930;stroke-width:0.6;" width="3.6" x="9" y="403.759"/><text fill="#000000" font-family="sans-serif" font-size="8.4" lengthAdjust="spacing" textLength="13.2" x="16.2" y="408.1371">title</text><rect fill="none" height="3.6" style="stroke:#C82930;stroke-width:0.6;" width="3.6" x="9" y="414.9316"/><text fill="#000000" font-family="sans-serif" font-size="8.4" lengthAdjust="spacing" textLength="41.4" x="16.2" y="419.3098">description</text><rect fill="none" height="3.6" style="stroke:#C82930;stroke-width:0.6;" width="3.6" x="9" y="426.1043"/><text fill="#000000" font-family="sans-serif" font-size="8.4" lengthAdjust="spacing" textLength="59.4" x="16.2" y="430.4824">enrolmentLimits</text><rect fill="none" height="3.6" style="stroke:#C82930;stroke-width:0.6;" width="3.6" x="9" y="437.277"/><text fill="#000000" font-family="sans-serif" font-size="8.4" lengthAdjust="spacing" textLength="45.6" x="16.2" y="441.6551">courseState</text><rect fill="none" height="3.6" style="stroke:#C82930;stroke-width:0.6;" width="3.6" x="9" y="448.4496"/><text fill="#000000" font-family="sans-serif" font-size="8.4" lengthAdjust="spacing" textLength="84" x="16.2" y="452.8277">courseEnrolmentState</text><rect fill="none" height="3.6" style="stroke:#C82930;stroke-width:0.6;" width="3.6" x="9" y="459.6223"/><text fill="#000000" font-family="sans-serif" font-size="8.4" lengthAdjust="spacing" textLength="36.6" x="16.2" y="464.0004">createdAt</text><line style="stroke:#181818;stroke-width:0.3;" x1="4.8" x2="103.2" y1="468.5086" y2="468.5086"/><ellipse cx="10.8" cy="477.3949" fill="#84BE84" rx="1.8" ry="1.8" style="stroke:#038048;stroke-width:0.6;"/><text fill="#000000" font-family="sans-serif" font-size="8.4" lengthAdjust="spacing" textLength="26.4" x="16.2" y="479.973">toDto()</text></g><!--class RepositoryFactory--><g id="elem_RepositoryFactory"><rect codeLine="32" fill="#F1F1F1" height="39.9727" id="RepositoryFactory" rx="1.5" ry="1.5" style="stroke:#181818;stroke-width:0.3;" width="91.2" x="466.8" y="267.9"/><ellipse cx="476.88" cy="277.5" fill="#ADD1B2" rx="6.6" ry="6.6" style="stroke:#181818;stroke-width:0.6;"/><path d="M478.5394,275.025 Q478.6331,274.8938 478.7456,274.8281 Q478.8581,274.7625 478.9894,274.7625 Q479.2144,274.7625 479.355,274.9219 Q479.4956,275.0719 479.4956,275.4375 L479.4956,276.3094 Q479.4956,276.675 479.355,276.8344 Q479.2144,276.9938 478.9894,276.9938 Q478.7831,276.9938 478.6612,276.8719 Q478.5394,276.7594 478.4737,276.45 Q478.4456,276.2344 478.3331,276.1219 Q478.1362,275.8969 477.7706,275.7656 Q477.405,275.6344 477.03,275.6344 Q476.5706,275.6344 476.1863,275.8313 Q475.8113,276.0281 475.5112,276.4781 Q475.2206,276.9281 475.2206,277.5469 L475.2206,278.2031 Q475.2206,278.9437 475.755,279.4406 Q476.2894,279.9281 477.2456,279.9281 Q477.8081,279.9281 478.2019,279.7781 Q478.4363,279.6844 478.6894,279.4219 Q478.8487,279.2625 478.9331,279.2156 Q479.0269,279.1688 479.1487,279.1688 Q479.3456,279.1688 479.4956,279.3281 Q479.655,279.4781 479.655,279.6844 Q479.655,279.8906 479.4487,280.1344 Q479.1487,280.4813 478.6706,280.6781 Q478.0237,280.95 477.2456,280.95 Q476.3362,280.95 475.6144,280.575 Q475.0237,280.275 474.6112,279.6375 Q474.1987,278.9906 474.1987,278.2219 L474.1987,277.5281 Q474.1987,276.7313 474.5644,276.0469 Q474.9394,275.3531 475.5956,274.9875 Q476.2519,274.6125 476.9925,274.6125 Q477.4331,274.6125 477.8175,274.7156 Q478.2112,274.8094 478.5394,275.025 Z " fill="#000000"/><text fill="#000000" font-family="sans-serif" font-size="8.4" lengthAdjust="spacing" textLength="69.6" x="485.52" y="280.9781">RepositoryFactory</text><line style="stroke:#181818;stroke-width:0.3;" x1="467.4" x2="557.4" y1="287.1" y2="287.1"/><line style="stroke:#181818;stroke-width:0.3;" x1="467.4" x2="557.4" y1="291.9" y2="291.9"/><ellipse cx="473.4" cy="300.7863" fill="#84BE84" rx="1.8" ry="1.8" style="stroke:#038048;stroke-width:0.6;"/><text fill="#000000" font-family="sans-serif" font-size="8.4" lengthAdjust="spacing" textLength="75.6" x="478.8" y="303.3645">RepositoryFactory()</text></g><!--class CourseRepository--><g id="elem_CourseRepository"><rect codeLine="36" fill="#F1F1F1" height="51.1453" id="CourseRepository" rx="1.5" ry="1.5" style="stroke:#181818;stroke-width:0.3;" width="87.6" x="245.4" y="399.9"/><ellipse cx="254.4" cy="409.5" fill="#B4A7E5" rx="6.6" ry="6.6" style="stroke:#181818;stroke-width:0.6;"/><path d="M254.9719,407.4844 L254.9719,411.4781 L256.0031,411.4781 Q256.3688,411.4781 256.5281,411.6188 Q256.6875,411.7594 256.6875,411.9938 Q256.6875,412.2188 256.5281,412.3594 Q256.3688,412.5 256.0031,412.5 L252.9188,412.5 Q252.5531,412.5 252.3937,412.3594 Q252.2344,412.2188 252.2344,411.9844 Q252.2344,411.7594 252.3937,411.6188 Q252.5531,411.4781 252.9188,411.4781 L253.95,411.4781 L253.95,407.4844 L252.9188,407.4844 Q252.5531,407.4844 252.3937,407.3438 Q252.2344,407.2031 252.2344,406.9688 Q252.2344,406.7438 252.3937,406.6031 Q252.5531,406.4625 252.9188,406.4625 L256.0031,406.4625 Q256.3688,406.4625 256.5281,406.6031 Q256.6875,406.7438 256.6875,406.9688 Q256.6875,407.2031 256.5281,407.3438 Q256.3688,407.4844 256.0031,407.4844 L254.9719,407.4844 Z " fill="#000000"/><text fill="#000000" font-family="sans-serif" font-size="8.4" font-style="italic" lengthAdjust="spacing" textLength="68.4" x="262.8" y="412.9781">CourseRepository</text><line style="stroke:#181818;stroke-width:0.3;" x1="246" x2="332.4" y1="419.1" y2="419.1"/><line style="stroke:#181818;stroke-width:0.3;" x1="246" x2="332.4" y1="423.9" y2="423.9"/><ellipse cx="252" cy="432.7863" fill="#84BE84" rx="1.8" ry="1.8" style="stroke:#038048;stroke-width:0.6;"/><text fill="#000000" font-family="sans-serif" font-size="8.4" lengthAdjust="spacing" textLength="49.8" x="257.4" y="435.3645">findAllOpen()</text><ellipse cx="252" cy="443.959" fill="#84BE84" rx="1.8" ry="1.8" style="stroke:#038048;stroke-width:0.6;"/><text fill="#000000" font-family="sans-serif" font-size="8.4" lengthAdjust="spacing" textLength="69.6" x="257.4" y="446.5371">findAllInProgress()</text></g><!--class EvaluationExamRepository--><g id="elem_EvaluationExamRepository"><rect codeLine="41" fill="#F1F1F1" height="39.9727" id="EvaluationExamRepository" rx="1.5" ry="1.5" style="stroke:#181818;stroke-width:0.3;" width="122.4" x="591" y="405.3"/><ellipse cx="601.35" cy="414.9" fill="#B4A7E5" rx="6.6" ry="6.6" style="stroke:#181818;stroke-width:0.6;"/><path d="M601.9219,412.8844 L601.9219,416.8781 L602.9531,416.8781 Q603.3188,416.8781 603.4781,417.0188 Q603.6375,417.1594 603.6375,417.3938 Q603.6375,417.6188 603.4781,417.7594 Q603.3188,417.9 602.9531,417.9 L599.8688,417.9 Q599.5031,417.9 599.3438,417.7594 Q599.1844,417.6188 599.1844,417.3844 Q599.1844,417.1594 599.3438,417.0188 Q599.5031,416.8781 599.8688,416.8781 L600.9,416.8781 L600.9,412.8844 L599.8688,412.8844 Q599.5031,412.8844 599.3438,412.7438 Q599.1844,412.6031 599.1844,412.3688 Q599.1844,412.1438 599.3438,412.0031 Q599.5031,411.8625 599.8688,411.8625 L602.9531,411.8625 Q603.3188,411.8625 603.4781,412.0031 Q603.6375,412.1438 603.6375,412.3688 Q603.6375,412.6031 603.4781,412.7438 Q603.3188,412.8844 602.9531,412.8844 L601.9219,412.8844 Z " fill="#000000"/><text fill="#000000" font-family="sans-serif" font-size="8.4" font-style="italic" lengthAdjust="spacing" textLength="100.2" x="610.05" y="418.3781">EvaluationExamRepository</text><line style="stroke:#181818;stroke-width:0.3;" x1="591.6" x2="712.8" y1="424.5" y2="424.5"/><line style="stroke:#181818;stroke-width:0.3;" x1="591.6" x2="712.8" y1="429.3" y2="429.3"/><ellipse cx="597.6" cy="438.1863" fill="#84BE84" rx="1.8" ry="1.8" style="stroke:#038048;stroke-width:0.6;"/><text fill="#000000" font-family="sans-serif" font-size="8.4" lengthAdjust="spacing" textLength="106.8" x="603" y="440.7645">findAllCourseExams(course)</text></g><!--class FormativeExamRepository--><g id="elem_FormativeExamRepository"><rect codeLine="45" fill="#F1F1F1" height="39.9727" id="FormativeExamRepository" rx="1.5" ry="1.5" style="stroke:#181818;stroke-width:0.3;" width="122.4" x="447.6" y="405.3"/><ellipse cx="458.76" cy="414.9" fill="#B4A7E5" rx="6.6" ry="6.6" style="stroke:#181818;stroke-width:0.6;"/><path d="M459.3319,412.8844 L459.3319,416.8781 L460.3631,416.8781 Q460.7288,416.8781 460.8881,417.0188 Q461.0475,417.1594 461.0475,417.3938 Q461.0475,417.6188 460.8881,417.7594 Q460.7288,417.9 460.3631,417.9 L457.2788,417.9 Q456.9131,417.9 456.7538,417.7594 Q456.5944,417.6188 456.5944,417.3844 Q456.5944,417.1594 456.7538,417.0188 Q456.9131,416.8781 457.2788,416.8781 L458.31,416.8781 L458.31,412.8844 L457.2788,412.8844 Q456.9131,412.8844 456.7538,412.7438 Q456.5944,412.6031 456.5944,412.3688 Q456.5944,412.1438 456.7538,412.0031 Q456.9131,411.8625 457.2788,411.8625 L460.3631,411.8625 Q460.7288,411.8625 460.8881,412.0031 Q461.0475,412.1438 461.0475,412.3688 Q461.0475,412.6031 460.8881,412.7438 Q460.7288,412.8844 460.3631,412.8844 L459.3319,412.8844 Z " fill="#000000"/><text fill="#000000" font-family="sans-serif" font-size="8.4" font-style="italic" lengthAdjust="spacing" textLength="98.4" x="467.64" y="418.3781">FormativeExamRepository</text><line style="stroke:#181818;stroke-width:0.3;" x1="448.2" x2="569.4" y1="424.5" y2="424.5"/><line style="stroke:#181818;stroke-width:0.3;" x1="448.2" x2="569.4" y1="429.3" y2="429.3"/><ellipse cx="454.2" cy="438.1863" fill="#84BE84" rx="1.8" ry="1.8" style="stroke:#038048;stroke-width:0.6;"/><text fill="#000000" font-family="sans-serif" font-size="8.4" lengthAdjust="spacing" textLength="106.8" x="459.6" y="440.7645">findAllCourseExams(course)</text></g><!--class EvaluationExamListService--><g id="elem_EvaluationExamListService"><rect codeLine="49" fill="#F1F1F1" height="51.1453" id="EvaluationExamListService" rx="1.5" ry="1.5" style="stroke:#181818;stroke-width:0.3;" width="120.6" x="899.7" y="262.5"/><ellipse cx="908.7" cy="272.1" fill="#ADD1B2" rx="6.6" ry="6.6" style="stroke:#181818;stroke-width:0.6;"/><path d="M910.3594,269.625 Q910.4531,269.4938 910.5656,269.4281 Q910.6781,269.3625 910.8094,269.3625 Q911.0344,269.3625 911.175,269.5219 Q911.3156,269.6719 911.3156,270.0375 L911.3156,270.9094 Q911.3156,271.275 911.175,271.4344 Q911.0344,271.5938 910.8094,271.5938 Q910.6031,271.5938 910.4812,271.4719 Q910.3594,271.3594 910.2937,271.05 Q910.2656,270.8344 910.1531,270.7219 Q909.9563,270.4969 909.5906,270.3656 Q909.225,270.2344 908.85,270.2344 Q908.3906,270.2344 908.0063,270.4313 Q907.6313,270.6281 907.3313,271.0781 Q907.0406,271.5281 907.0406,272.1469 L907.0406,272.8031 Q907.0406,273.5438 907.575,274.0406 Q908.1094,274.5281 909.0656,274.5281 Q909.6281,274.5281 910.0219,274.3781 Q910.2563,274.2844 910.5094,274.0219 Q910.6687,273.8625 910.7531,273.8156 Q910.8469,273.7688 910.9688,273.7688 Q911.1656,273.7688 911.3156,273.9281 Q911.475,274.0781 911.475,274.2844 Q911.475,274.4906 911.2688,274.7344 Q910.9688,275.0813 910.4906,275.2781 Q909.8438,275.55 909.0656,275.55 Q908.1563,275.55 907.4344,275.175 Q906.8438,274.875 906.4313,274.2375 Q906.0188,273.5906 906.0188,272.8219 L906.0188,272.1281 Q906.0188,271.3313 906.3844,270.6469 Q906.7594,269.9531 907.4156,269.5875 Q908.0719,269.2125 908.8125,269.2125 Q909.2531,269.2125 909.6375,269.3156 Q910.0313,269.4094 910.3594,269.625 Z " fill="#000000"/><text fill="#000000" font-family="sans-serif" font-size="8.4" lengthAdjust="spacing" textLength="101.4" x="917.1" y="275.5781">EvaluationExamListService</text><line style="stroke:#181818;stroke-width:0.3;" x1="900.3" x2="1019.7" y1="281.7" y2="281.7"/><rect fill="none" height="3.6" style="stroke:#C82930;stroke-width:0.6;" width="3.6" x="904.5" y="288.7863"/><text fill="#000000" font-family="sans-serif" font-size="8.4" lengthAdjust="spacing" textLength="60.6" x="911.7" y="293.1645">examRepository</text><line style="stroke:#181818;stroke-width:0.3;" x1="900.3" x2="1019.7" y1="297.6727" y2="297.6727"/><ellipse cx="906.3" cy="306.559" fill="#84BE84" rx="1.8" ry="1.8" style="stroke:#038048;stroke-width:0.6;"/><text fill="#000000" font-family="sans-serif" font-size="8.4" lengthAdjust="spacing" textLength="103.2" x="911.7" y="309.1371">listAllCourseExams(course)</text></g><!--class FormativeExamListService--><g id="elem_FormativeExamListService"><rect codeLine="54" fill="#F1F1F1" height="51.1453" id="FormativeExamListService" rx="1.5" ry="1.5" style="stroke:#181818;stroke-width:0.3;" width="118.8" x="709.8" y="262.5"/><ellipse cx="718.8" cy="272.1" fill="#ADD1B2" rx="6.6" ry="6.6" style="stroke:#181818;stroke-width:0.6;"/><path d="M720.4594,269.625 Q720.5531,269.4938 720.6656,269.4281 Q720.7781,269.3625 720.9094,269.3625 Q721.1344,269.3625 721.275,269.5219 Q721.4156,269.6719 721.4156,270.0375 L721.4156,270.9094 Q721.4156,271.275 721.275,271.4344 Q721.1344,271.5938 720.9094,271.5938 Q720.7031,271.5938 720.5813,271.4719 Q720.4594,271.3594 720.3938,271.05 Q720.3656,270.8344 720.2531,270.7219 Q720.0563,270.4969 719.6906,270.3656 Q719.325,270.2344 718.95,270.2344 Q718.4906,270.2344 718.1062,270.4313 Q717.7312,270.6281 717.4313,271.0781 Q717.1406,271.5281 717.1406,272.1469 L717.1406,272.8031 Q717.1406,273.5438 717.675,274.0406 Q718.2094,274.5281 719.1656,274.5281 Q719.7281,274.5281 720.1219,274.3781 Q720.3562,274.2844 720.6094,274.0219 Q720.7688,273.8625 720.8531,273.8156 Q720.9469,273.7688 721.0688,273.7688 Q721.2656,273.7688 721.4156,273.9281 Q721.575,274.0781 721.575,274.2844 Q721.575,274.4906 721.3688,274.7344 Q721.0688,275.0813 720.5906,275.2781 Q719.9438,275.55 719.1656,275.55 Q718.2563,275.55 717.5344,275.175 Q716.9438,274.875 716.5313,274.2375 Q716.1188,273.5906 716.1188,272.8219 L716.1188,272.1281 Q716.1188,271.3313 716.4844,270.6469 Q716.8594,269.9531 717.5156,269.5875 Q718.1719,269.2125 718.9125,269.2125 Q719.3531,269.2125 719.7375,269.3156 Q720.1313,269.4094 720.4594,269.625 Z " fill="#000000"/><text fill="#000000" font-family="sans-serif" font-size="8.4" lengthAdjust="spacing" textLength="99.6" x="727.2" y="275.5781">FormativeExamListService</text><line style="stroke:#181818;stroke-width:0.3;" x1="710.4" x2="828" y1="281.7" y2="281.7"/><rect fill="none" height="3.6" style="stroke:#C82930;stroke-width:0.6;" width="3.6" x="714.6" y="288.7863"/><text fill="#000000" font-family="sans-serif" font-size="8.4" lengthAdjust="spacing" textLength="60.6" x="721.8" y="293.1645">examRepository</text><line style="stroke:#181818;stroke-width:0.3;" x1="710.4" x2="828" y1="297.6727" y2="297.6727"/><ellipse cx="716.4" cy="306.559" fill="#84BE84" rx="1.8" ry="1.8" style="stroke:#038048;stroke-width:0.6;"/><text fill="#000000" font-family="sans-serif" font-size="8.4" lengthAdjust="spacing" textLength="103.2" x="721.8" y="309.1371">listAllCourseExams(course)</text></g><!--class CourseListService--><g id="elem_CourseListService"><rect codeLine="59" fill="#F1F1F1" height="62.318" id="CourseListService" rx="1.5" ry="1.5" style="stroke:#181818;stroke-width:0.3;" width="104.4" x="180" y="256.8"/><ellipse cx="196.29" cy="266.4" fill="#ADD1B2" rx="6.6" ry="6.6" style="stroke:#181818;stroke-width:0.6;"/><path d="M197.9494,263.925 Q198.0431,263.7938 198.1556,263.7281 Q198.2681,263.6625 198.3994,263.6625 Q198.6244,263.6625 198.765,263.8219 Q198.9056,263.9719 198.9056,264.3375 L198.9056,265.2094 Q198.9056,265.575 198.765,265.7344 Q198.6244,265.8938 198.3994,265.8938 Q198.1931,265.8938 198.0713,265.7719 Q197.9494,265.6594 197.8838,265.35 Q197.8556,265.1344 197.7431,265.0219 Q197.5463,264.7969 197.1806,264.6656 Q196.815,264.5344 196.44,264.5344 Q195.9806,264.5344 195.5962,264.7313 Q195.2212,264.9281 194.9213,265.3781 Q194.6306,265.8281 194.6306,266.4469 L194.6306,267.1031 Q194.6306,267.8438 195.165,268.3406 Q195.6994,268.8281 196.6556,268.8281 Q197.2181,268.8281 197.6119,268.6781 Q197.8462,268.5844 198.0994,268.3219 Q198.2588,268.1625 198.3431,268.1156 Q198.4369,268.0687 198.5587,268.0687 Q198.7556,268.0687 198.9056,268.2281 Q199.065,268.3781 199.065,268.5844 Q199.065,268.7906 198.8588,269.0344 Q198.5587,269.3812 198.0806,269.5781 Q197.4337,269.85 196.6556,269.85 Q195.7462,269.85 195.0244,269.475 Q194.4337,269.175 194.0212,268.5375 Q193.6088,267.8906 193.6088,267.1219 L193.6088,266.4281 Q193.6088,265.6312 193.9744,264.9469 Q194.3494,264.2531 195.0056,263.8875 Q195.6619,263.5125 196.4025,263.5125 Q196.8431,263.5125 197.2275,263.6156 Q197.6212,263.7094 197.9494,263.925 Z " fill="#000000"/><text fill="#000000" font-family="sans-serif" font-size="8.4" lengthAdjust="spacing" textLength="69" x="206.31" y="269.8781">CourseListService</text><line style="stroke:#181818;stroke-width:0.3;" x1="180.6" x2="283.8" y1="276" y2="276"/><rect fill="none" height="3.6" style="stroke:#C82930;stroke-width:0.6;" width="3.6" x="184.8" y="283.0863"/><text fill="#000000" font-family="sans-serif" font-size="8.4" lengthAdjust="spacing" textLength="66.6" x="192" y="287.4645">courseRepository</text><line style="stroke:#181818;stroke-width:0.3;" x1="180.6" x2="283.8" y1="291.9727" y2="291.9727"/><ellipse cx="186.6" cy="300.859" fill="#84BE84" rx="1.8" ry="1.8" style="stroke:#038048;stroke-width:0.6;"/><text fill="#000000" font-family="sans-serif" font-size="8.4" lengthAdjust="spacing" textLength="69" x="192" y="303.4371">listOpenCourses()</text><ellipse cx="186.6" cy="312.0316" fill="#84BE84" rx="1.8" ry="1.8" style="stroke:#038048;stroke-width:0.6;"/><text fill="#000000" font-family="sans-serif" font-size="8.4" lengthAdjust="spacing" textLength="88.8" x="192" y="314.6098">listInProgressCourses()</text></g><!--class EvaluationExamDTO--><g id="elem_EvaluationExamDTO"><rect codeLine="67" fill="#F1F1F1" height="129.3539" id="EvaluationExamDTO" rx="1.5" ry="1.5" style="stroke:#181818;stroke-width:0.3;" width="97.2" x="949.8" y="360.6"/><ellipse cx="958.8" cy="370.2" fill="#ADD1B2" rx="6.6" ry="6.6" style="stroke:#181818;stroke-width:0.6;"/><path d="M960.4594,367.725 Q960.5531,367.5938 960.6656,367.5281 Q960.7781,367.4625 960.9094,367.4625 Q961.1344,367.4625 961.275,367.6219 Q961.4156,367.7719 961.4156,368.1375 L961.4156,369.0094 Q961.4156,369.375 961.275,369.5344 Q961.1344,369.6937 960.9094,369.6937 Q960.7031,369.6937 960.5813,369.5719 Q960.4594,369.4594 960.3938,369.15 Q960.3656,368.9344 960.2531,368.8219 Q960.0563,368.5969 959.6906,368.4656 Q959.325,368.3344 958.95,368.3344 Q958.4906,368.3344 958.1062,368.5313 Q957.7312,368.7281 957.4313,369.1781 Q957.1406,369.6281 957.1406,370.2469 L957.1406,370.9031 Q957.1406,371.6438 957.675,372.1406 Q958.2094,372.6281 959.1656,372.6281 Q959.7281,372.6281 960.1219,372.4781 Q960.3562,372.3844 960.6094,372.1219 Q960.7688,371.9625 960.8531,371.9156 Q960.9469,371.8688 961.0687,371.8688 Q961.2656,371.8688 961.4156,372.0281 Q961.575,372.1781 961.575,372.3844 Q961.575,372.5906 961.3688,372.8344 Q961.0687,373.1813 960.5906,373.3781 Q959.9437,373.65 959.1656,373.65 Q958.2562,373.65 957.5344,373.275 Q956.9437,372.975 956.5313,372.3375 Q956.1188,371.6906 956.1188,370.9219 L956.1188,370.2281 Q956.1188,369.4313 956.4844,368.7469 Q956.8594,368.0531 957.5156,367.6875 Q958.1719,367.3125 958.9125,367.3125 Q959.3531,367.3125 959.7375,367.4156 Q960.1312,367.5094 960.4594,367.725 Z " fill="#000000"/><text fill="#000000" font-family="sans-serif" font-size="8.4" lengthAdjust="spacing" textLength="78" x="967.2" y="373.6781">EvaluationExamDTO</text><line style="stroke:#181818;stroke-width:0.3;" x1="950.4" x2="1046.4" y1="379.8" y2="379.8"/><rect fill="none" height="3.6" style="stroke:#C82930;stroke-width:0.6;" width="3.6" x="954.6" y="386.8863"/><text fill="#000000" font-family="sans-serif" font-size="8.4" lengthAdjust="spacing" textLength="18.6" x="961.8" y="391.2645">code</text><rect fill="none" height="3.6" style="stroke:#C82930;stroke-width:0.6;" width="3.6" x="954.6" y="398.059"/><text fill="#000000" font-family="sans-serif" font-size="8.4" lengthAdjust="spacing" textLength="13.2" x="961.8" y="402.4371">title</text><rect fill="none" height="3.6" style="stroke:#C82930;stroke-width:0.6;" width="3.6" x="954.6" y="409.2316"/><text fill="#000000" font-family="sans-serif" font-size="8.4" lengthAdjust="spacing" textLength="25.8" x="961.8" y="413.6098">course</text><rect fill="none" height="3.6" style="stroke:#C82930;stroke-width:0.6;" width="3.6" x="954.6" y="420.4043"/><text fill="#000000" font-family="sans-serif" font-size="8.4" lengthAdjust="spacing" textLength="28.8" x="961.8" y="424.7824">teacher</text><rect fill="none" height="3.6" style="stroke:#C82930;stroke-width:0.6;" width="3.6" x="954.6" y="431.577"/><text fill="#000000" font-family="sans-serif" font-size="8.4" lengthAdjust="spacing" textLength="35.4" x="961.8" y="435.9551">startTime</text><rect fill="none" height="3.6" style="stroke:#C82930;stroke-width:0.6;" width="3.6" x="954.6" y="442.7496"/><text fill="#000000" font-family="sans-serif" font-size="8.4" lengthAdjust="spacing" textLength="33" x="961.8" y="447.1277">endTime</text><rect fill="none" height="3.6" style="stroke:#C82930;stroke-width:0.6;" width="3.6" x="954.6" y="453.9223"/><text fill="#000000" font-family="sans-serif" font-size="8.4" lengthAdjust="spacing" textLength="32.4" x="961.8" y="458.3004">identifier</text><rect fill="none" height="3.6" style="stroke:#C82930;stroke-width:0.6;" width="3.6" x="954.6" y="465.0949"/><text fill="#000000" font-family="sans-serif" font-size="8.4" lengthAdjust="spacing" textLength="41.4" x="961.8" y="469.473">description</text><rect fill="none" height="3.6" style="stroke:#C82930;stroke-width:0.6;" width="3.6" x="954.6" y="476.2676"/><text fill="#000000" font-family="sans-serif" font-size="8.4" lengthAdjust="spacing" textLength="18.6" x="961.8" y="480.6457">state</text><line style="stroke:#181818;stroke-width:0.3;" x1="950.4" x2="1046.4" y1="485.1539" y2="485.1539"/></g><!--class EvaluationExam--><g id="elem_EvaluationExam"><rect codeLine="79" fill="#F1F1F1" height="140.5266" id="EvaluationExam" rx="1.5" ry="1.5" style="stroke:#181818;stroke-width:0.3;" width="79.2" x="1068" y="355.2"/><ellipse cx="1077" cy="364.8" fill="#ADD1B2" rx="6.6" ry="6.6" style="stroke:#181818;stroke-width:0.6;"/><path d="M1078.6594,362.325 Q1078.7531,362.1937 1078.8656,362.1281 Q1078.9781,362.0625 1079.1094,362.0625 Q1079.3344,362.0625 1079.475,362.2219 Q1079.6156,362.3719 1079.6156,362.7375 L1079.6156,363.6094 Q1079.6156,363.975 1079.475,364.1344 Q1079.3344,364.2938 1079.1094,364.2938 Q1078.9031,364.2938 1078.7813,364.1719 Q1078.6594,364.0594 1078.5938,363.75 Q1078.5656,363.5344 1078.4531,363.4219 Q1078.2563,363.1969 1077.8906,363.0656 Q1077.525,362.9344 1077.15,362.9344 Q1076.6906,362.9344 1076.3062,363.1312 Q1075.9312,363.3281 1075.6313,363.7781 Q1075.3406,364.2281 1075.3406,364.8469 L1075.3406,365.5031 Q1075.3406,366.2438 1075.875,366.7406 Q1076.4094,367.2281 1077.3656,367.2281 Q1077.9281,367.2281 1078.3219,367.0781 Q1078.5562,366.9844 1078.8094,366.7219 Q1078.9688,366.5625 1079.0531,366.5156 Q1079.1469,366.4688 1079.2688,366.4688 Q1079.4656,366.4688 1079.6156,366.6281 Q1079.775,366.7781 1079.775,366.9844 Q1079.775,367.1906 1079.5688,367.4344 Q1079.2688,367.7813 1078.7906,367.9781 Q1078.1438,368.25 1077.3656,368.25 Q1076.4563,368.25 1075.7344,367.875 Q1075.1438,367.575 1074.7313,366.9375 Q1074.3188,366.2906 1074.3188,365.5219 L1074.3188,364.8281 Q1074.3188,364.0313 1074.6844,363.3469 Q1075.0594,362.6531 1075.7156,362.2875 Q1076.3719,361.9125 1077.1125,361.9125 Q1077.5531,361.9125 1077.9375,362.0156 Q1078.3313,362.1094 1078.6594,362.325 Z " fill="#000000"/><text fill="#000000" font-family="sans-serif" font-size="8.4" lengthAdjust="spacing" textLength="60" x="1085.4" y="368.2781">EvaluationExam</text><line style="stroke:#181818;stroke-width:0.3;" x1="1068.6" x2="1146.6" y1="374.4" y2="374.4"/><rect fill="none" height="3.6" style="stroke:#C82930;stroke-width:0.6;" width="3.6" x="1072.8" y="381.4863"/><text fill="#000000" font-family="sans-serif" font-size="8.4" lengthAdjust="spacing" textLength="18.6" x="1080" y="385.8645">code</text><rect fill="none" height="3.6" style="stroke:#C82930;stroke-width:0.6;" width="3.6" x="1072.8" y="392.659"/><text fill="#000000" font-family="sans-serif" font-size="8.4" lengthAdjust="spacing" textLength="13.2" x="1080" y="397.0371">title</text><rect fill="none" height="3.6" style="stroke:#C82930;stroke-width:0.6;" width="3.6" x="1072.8" y="403.8316"/><text fill="#000000" font-family="sans-serif" font-size="8.4" lengthAdjust="spacing" textLength="25.8" x="1080" y="408.2098">course</text><rect fill="none" height="3.6" style="stroke:#C82930;stroke-width:0.6;" width="3.6" x="1072.8" y="415.0043"/><text fill="#000000" font-family="sans-serif" font-size="8.4" lengthAdjust="spacing" textLength="28.8" x="1080" y="419.3824">teacher</text><rect fill="none" height="3.6" style="stroke:#C82930;stroke-width:0.6;" width="3.6" x="1072.8" y="426.177"/><text fill="#000000" font-family="sans-serif" font-size="8.4" lengthAdjust="spacing" textLength="35.4" x="1080" y="430.5551">startTime</text><rect fill="none" height="3.6" style="stroke:#C82930;stroke-width:0.6;" width="3.6" x="1072.8" y="437.3496"/><text fill="#000000" font-family="sans-serif" font-size="8.4" lengthAdjust="spacing" textLength="33" x="1080" y="441.7277">endTime</text><rect fill="none" height="3.6" style="stroke:#C82930;stroke-width:0.6;" width="3.6" x="1072.8" y="448.5223"/><text fill="#000000" font-family="sans-serif" font-size="8.4" lengthAdjust="spacing" textLength="32.4" x="1080" y="452.9004">identifier</text><rect fill="none" height="3.6" style="stroke:#C82930;stroke-width:0.6;" width="3.6" x="1072.8" y="459.6949"/><text fill="#000000" font-family="sans-serif" font-size="8.4" lengthAdjust="spacing" textLength="41.4" x="1080" y="464.073">description</text><rect fill="none" height="3.6" style="stroke:#C82930;stroke-width:0.6;" width="3.6" x="1072.8" y="470.8676"/><text fill="#000000" font-family="sans-serif" font-size="8.4" lengthAdjust="spacing" textLength="18.6" x="1080" y="475.2457">state</text><line style="stroke:#181818;stroke-width:0.3;" x1="1068.6" x2="1146.6" y1="479.7539" y2="479.7539"/><ellipse cx="1074.6" cy="488.6402" fill="#84BE84" rx="1.8" ry="1.8" style="stroke:#038048;stroke-width:0.6;"/><text fill="#000000" font-family="sans-serif" font-size="8.4" lengthAdjust="spacing" textLength="26.4" x="1080" y="491.2184">toDto()</text></g><!--class FormativeExam--><g id="elem_FormativeExam"><rect codeLine="92" fill="#F1F1F1" height="118.1812" id="FormativeExam" rx="1.5" ry="1.5" style="stroke:#181818;stroke-width:0.3;" width="77.4" x="734.7" y="366.3"/><ellipse cx="743.7" cy="375.9" fill="#ADD1B2" rx="6.6" ry="6.6" style="stroke:#181818;stroke-width:0.6;"/><path d="M745.3594,373.425 Q745.4531,373.2938 745.5656,373.2281 Q745.6781,373.1625 745.8094,373.1625 Q746.0344,373.1625 746.175,373.3219 Q746.3156,373.4719 746.3156,373.8375 L746.3156,374.7094 Q746.3156,375.075 746.175,375.2344 Q746.0344,375.3938 745.8094,375.3938 Q745.6031,375.3938 745.4812,375.2719 Q745.3594,375.1594 745.2937,374.85 Q745.2656,374.6344 745.1531,374.5219 Q744.9563,374.2969 744.5906,374.1656 Q744.225,374.0344 743.85,374.0344 Q743.3906,374.0344 743.0063,374.2313 Q742.6313,374.4281 742.3313,374.8781 Q742.0406,375.3281 742.0406,375.9469 L742.0406,376.6031 Q742.0406,377.3438 742.575,377.8406 Q743.1094,378.3281 744.0656,378.3281 Q744.6281,378.3281 745.0219,378.1781 Q745.2563,378.0844 745.5094,377.8219 Q745.6687,377.6625 745.7531,377.6156 Q745.8469,377.5687 745.9688,377.5687 Q746.1656,377.5687 746.3156,377.7281 Q746.475,377.8781 746.475,378.0844 Q746.475,378.2906 746.2688,378.5344 Q745.9688,378.8812 745.4906,379.0781 Q744.8438,379.35 744.0656,379.35 Q743.1563,379.35 742.4344,378.975 Q741.8438,378.675 741.4313,378.0375 Q741.0188,377.3906 741.0188,376.6219 L741.0188,375.9281 Q741.0188,375.1312 741.3844,374.4469 Q741.7594,373.7531 742.4156,373.3875 Q743.0719,373.0125 743.8125,373.0125 Q744.2531,373.0125 744.6375,373.1156 Q745.0313,373.2094 745.3594,373.425 Z " fill="#000000"/><text fill="#000000" font-family="sans-serif" font-size="8.4" lengthAdjust="spacing" textLength="58.2" x="752.1" y="379.3781">FormativeExam</text><line style="stroke:#181818;stroke-width:0.3;" x1="735.3" x2="811.5" y1="385.5" y2="385.5"/><rect fill="none" height="3.6" style="stroke:#C82930;stroke-width:0.6;" width="3.6" x="739.5" y="392.5863"/><text fill="#000000" font-family="sans-serif" font-size="8.4" lengthAdjust="spacing" textLength="18.6" x="746.7" y="396.9645">code</text><rect fill="none" height="3.6" style="stroke:#C82930;stroke-width:0.6;" width="3.6" x="739.5" y="403.759"/><text fill="#000000" font-family="sans-serif" font-size="8.4" lengthAdjust="spacing" textLength="13.2" x="746.7" y="408.1371">title</text><rect fill="none" height="3.6" style="stroke:#C82930;stroke-width:0.6;" width="3.6" x="739.5" y="414.9316"/><text fill="#000000" font-family="sans-serif" font-size="8.4" lengthAdjust="spacing" textLength="25.8" x="746.7" y="419.3098">course</text><rect fill="none" height="3.6" style="stroke:#C82930;stroke-width:0.6;" width="3.6" x="739.5" y="426.1043"/><text fill="#000000" font-family="sans-serif" font-size="8.4" lengthAdjust="spacing" textLength="28.8" x="746.7" y="430.4824">teacher</text><rect fill="none" height="3.6" style="stroke:#C82930;stroke-width:0.6;" width="3.6" x="739.5" y="437.277"/><text fill="#000000" font-family="sans-serif" font-size="8.4" lengthAdjust="spacing" textLength="32.4" x="746.7" y="441.6551">identifier</text><rect fill="none" height="3.6" style="stroke:#C82930;stroke-width:0.6;" width="3.6" x="739.5" y="448.4496"/><text fill="#000000" font-family="sans-serif" font-size="8.4" lengthAdjust="spacing" textLength="41.4" x="746.7" y="452.8277">description</text><rect fill="none" height="3.6" style="stroke:#C82930;stroke-width:0.6;" width="3.6" x="739.5" y="459.6223"/><text fill="#000000" font-family="sans-serif" font-size="8.4" lengthAdjust="spacing" textLength="18.6" x="746.7" y="464.0004">state</text><line style="stroke:#181818;stroke-width:0.3;" x1="735.3" x2="811.5" y1="468.5086" y2="468.5086"/><ellipse cx="741.3" cy="477.3949" fill="#84BE84" rx="1.8" ry="1.8" style="stroke:#038048;stroke-width:0.6;"/><text fill="#000000" font-family="sans-serif" font-size="8.4" lengthAdjust="spacing" textLength="26.4" x="746.7" y="479.973">toDto()</text></g><!--class FormativeExamDTO--><g id="elem_FormativeExamDTO"><rect codeLine="103" fill="#F1F1F1" height="107.0086" id="FormativeExamDTO" rx="1.5" ry="1.5" style="stroke:#181818;stroke-width:0.3;" width="95.4" x="833.1" y="372"/><ellipse cx="842.1" cy="381.6" fill="#ADD1B2" rx="6.6" ry="6.6" style="stroke:#181818;stroke-width:0.6;"/><path d="M843.7594,379.125 Q843.8531,378.9938 843.9656,378.9281 Q844.0781,378.8625 844.2094,378.8625 Q844.4344,378.8625 844.575,379.0219 Q844.7156,379.1719 844.7156,379.5375 L844.7156,380.4094 Q844.7156,380.775 844.575,380.9344 Q844.4344,381.0938 844.2094,381.0938 Q844.0031,381.0938 843.8813,380.9719 Q843.7594,380.8594 843.6938,380.55 Q843.6656,380.3344 843.5531,380.2219 Q843.3562,379.9969 842.9906,379.8656 Q842.625,379.7344 842.25,379.7344 Q841.7906,379.7344 841.4063,379.9313 Q841.0313,380.1281 840.7312,380.5781 Q840.4406,381.0281 840.4406,381.6469 L840.4406,382.3031 Q840.4406,383.0438 840.975,383.5406 Q841.5094,384.0281 842.4656,384.0281 Q843.0281,384.0281 843.4219,383.8781 Q843.6563,383.7844 843.9094,383.5219 Q844.0688,383.3625 844.1531,383.3156 Q844.2469,383.2688 844.3688,383.2688 Q844.5656,383.2688 844.7156,383.4281 Q844.875,383.5781 844.875,383.7844 Q844.875,383.9906 844.6687,384.2344 Q844.3688,384.5813 843.8906,384.7781 Q843.2438,385.05 842.4656,385.05 Q841.5563,385.05 840.8344,384.675 Q840.2438,384.375 839.8313,383.7375 Q839.4187,383.0906 839.4187,382.3219 L839.4187,381.6281 Q839.4187,380.8313 839.7844,380.1469 Q840.1594,379.4531 840.8156,379.0875 Q841.4719,378.7125 842.2125,378.7125 Q842.6531,378.7125 843.0375,378.8156 Q843.4313,378.9094 843.7594,379.125 Z " fill="#000000"/><text fill="#000000" font-family="sans-serif" font-size="8.4" lengthAdjust="spacing" textLength="76.2" x="850.5" y="385.0781">FormativeExamDTO</text><line style="stroke:#181818;stroke-width:0.3;" x1="833.7" x2="927.9" y1="391.2" y2="391.2"/><rect fill="none" height="3.6" style="stroke:#C82930;stroke-width:0.6;" width="3.6" x="837.9" y="398.2863"/><text fill="#000000" font-family="sans-serif" font-size="8.4" lengthAdjust="spacing" textLength="18.6" x="845.1" y="402.6645">code</text><rect fill="none" height="3.6" style="stroke:#C82930;stroke-width:0.6;" width="3.6" x="837.9" y="409.459"/><text fill="#000000" font-family="sans-serif" font-size="8.4" lengthAdjust="spacing" textLength="13.2" x="845.1" y="413.8371">title</text><rect fill="none" height="3.6" style="stroke:#C82930;stroke-width:0.6;" width="3.6" x="837.9" y="420.6316"/><text fill="#000000" font-family="sans-serif" font-size="8.4" lengthAdjust="spacing" textLength="25.8" x="845.1" y="425.0098">course</text><rect fill="none" height="3.6" style="stroke:#C82930;stroke-width:0.6;" width="3.6" x="837.9" y="431.8043"/><text fill="#000000" font-family="sans-serif" font-size="8.4" lengthAdjust="spacing" textLength="28.8" x="845.1" y="436.1824">teacher</text><rect fill="none" height="3.6" style="stroke:#C82930;stroke-width:0.6;" width="3.6" x="837.9" y="442.977"/><text fill="#000000" font-family="sans-serif" font-size="8.4" lengthAdjust="spacing" textLength="32.4" x="845.1" y="447.3551">identifier</text><rect fill="none" height="3.6" style="stroke:#C82930;stroke-width:0.6;" width="3.6" x="837.9" y="454.1496"/><text fill="#000000" font-family="sans-serif" font-size="8.4" lengthAdjust="spacing" textLength="41.4" x="845.1" y="458.5277">description</text><rect fill="none" height="3.6" style="stroke:#C82930;stroke-width:0.6;" width="3.6" x="837.9" y="465.3223"/><text fill="#000000" font-family="sans-serif" font-size="8.4" lengthAdjust="spacing" textLength="18.6" x="845.1" y="469.7004">state</text><line style="stroke:#181818;stroke-width:0.3;" x1="833.7" x2="927.9" y1="474.2086" y2="474.2086"/></g><!--class CourseDTO--><g id="elem_CourseDTO"><rect codeLine="113" fill="#F1F1F1" height="107.0086" id="CourseDTO" rx="1.5" ry="1.5" style="stroke:#181818;stroke-width:0.3;" width="99.6" x="124.8" y="372"/><ellipse cx="149.46" cy="381.6" fill="#ADD1B2" rx="6.6" ry="6.6" style="stroke:#181818;stroke-width:0.6;"/><path d="M151.1194,379.125 Q151.2131,378.9938 151.3256,378.9281 Q151.4381,378.8625 151.5694,378.8625 Q151.7944,378.8625 151.935,379.0219 Q152.0756,379.1719 152.0756,379.5375 L152.0756,380.4094 Q152.0756,380.775 151.935,380.9344 Q151.7944,381.0938 151.5694,381.0938 Q151.3631,381.0938 151.2412,380.9719 Q151.1194,380.8594 151.0537,380.55 Q151.0256,380.3344 150.9131,380.2219 Q150.7163,379.9969 150.3506,379.8656 Q149.985,379.7344 149.61,379.7344 Q149.1506,379.7344 148.7662,379.9313 Q148.3912,380.1281 148.0913,380.5781 Q147.8006,381.0281 147.8006,381.6469 L147.8006,382.3031 Q147.8006,383.0438 148.335,383.5406 Q148.8694,384.0281 149.8256,384.0281 Q150.3881,384.0281 150.7819,383.8781 Q151.0162,383.7844 151.2694,383.5219 Q151.4287,383.3625 151.5131,383.3156 Q151.6069,383.2688 151.7288,383.2688 Q151.9256,383.2688 152.0756,383.4281 Q152.235,383.5781 152.235,383.7844 Q152.235,383.9906 152.0288,384.2344 Q151.7288,384.5813 151.2506,384.7781 Q150.6038,385.05 149.8256,385.05 Q148.9163,385.05 148.1944,384.675 Q147.6038,384.375 147.1913,383.7375 Q146.7788,383.0906 146.7788,382.3219 L146.7788,381.6281 Q146.7788,380.8313 147.1444,380.1469 Q147.5194,379.4531 148.1756,379.0875 Q148.8319,378.7125 149.5725,378.7125 Q150.0131,378.7125 150.3975,378.8156 Q150.7913,378.9094 151.1194,379.125 Z " fill="#000000"/><text fill="#000000" font-family="sans-serif" font-size="8.4" lengthAdjust="spacing" textLength="45.6" x="161.34" y="385.0781">CourseDTO</text><line style="stroke:#181818;stroke-width:0.3;" x1="125.4" x2="223.8" y1="391.2" y2="391.2"/><rect fill="none" height="3.6" style="stroke:#C82930;stroke-width:0.6;" width="3.6" x="129.6" y="398.2863"/><text fill="#000000" font-family="sans-serif" font-size="8.4" lengthAdjust="spacing" textLength="18.6" x="136.8" y="402.6645">code</text><rect fill="none" height="3.6" style="stroke:#C82930;stroke-width:0.6;" width="3.6" x="129.6" y="409.459"/><text fill="#000000" font-family="sans-serif" font-size="8.4" lengthAdjust="spacing" textLength="13.2" x="136.8" y="413.8371">title</text><rect fill="none" height="3.6" style="stroke:#C82930;stroke-width:0.6;" width="3.6" x="129.6" y="420.6316"/><text fill="#000000" font-family="sans-serif" font-size="8.4" lengthAdjust="spacing" textLength="41.4" x="136.8" y="425.0098">description</text><rect fill="none" height="3.6" style="stroke:#C82930;stroke-width:0.6;" width="3.6" x="129.6" y="431.8043"/><text fill="#000000" font-family="sans-serif" font-size="8.4" lengthAdjust="spacing" textLength="59.4" x="136.8" y="436.1824">enrolmentLimits</text><rect fill="none" height="3.6" style="stroke:#C82930;stroke-width:0.6;" width="3.6" x="129.6" y="442.977"/><text fill="#000000" font-family="sans-serif" font-size="8.4" lengthAdjust="spacing" textLength="45.6" x="136.8" y="447.3551">courseState</text><rect fill="none" height="3.6" style="stroke:#C82930;stroke-width:0.6;" width="3.6" x="129.6" y="454.1496"/><text fill="#000000" font-family="sans-serif" font-size="8.4" lengthAdjust="spacing" textLength="84" x="136.8" y="458.5277">courseEnrolmentState</text><rect fill="none" height="3.6" style="stroke:#C82930;stroke-width:0.6;" width="3.6" x="129.6" y="465.3223"/><text fill="#000000" font-family="sans-serif" font-size="8.4" lengthAdjust="spacing" textLength="36.6" x="136.8" y="469.7004">createdAt</text><line style="stroke:#181818;stroke-width:0.3;" x1="125.4" x2="223.8" y1="474.2086" y2="474.2086"/></g><!--class InMemoryCourseRepository--><g id="elem_InMemoryCourseRepository"><rect codeLine="125" fill="#F1F1F1" height="51.1453" id="InMemoryCourseRepository" rx="1.5" ry="1.5" style="stroke:#181818;stroke-width:0.3;" width="124.2" x="46.5" y="531.6"/><ellipse cx="55.5" cy="541.2" fill="#ADD1B2" rx="6.6" ry="6.6" style="stroke:#181818;stroke-width:0.6;"/><path d="M57.1594,538.725 Q57.2531,538.5938 57.3656,538.5281 Q57.4781,538.4625 57.6094,538.4625 Q57.8344,538.4625 57.975,538.6219 Q58.1156,538.7719 58.1156,539.1375 L58.1156,540.0094 Q58.1156,540.375 57.975,540.5344 Q57.8344,540.6938 57.6094,540.6938 Q57.4031,540.6938 57.2813,540.5719 Q57.1594,540.4594 57.0938,540.15 Q57.0656,539.9344 56.9531,539.8219 Q56.7563,539.5969 56.3906,539.4656 Q56.025,539.3344 55.65,539.3344 Q55.1906,539.3344 54.8063,539.5313 Q54.4313,539.7281 54.1313,540.1781 Q53.8406,540.6281 53.8406,541.2469 L53.8406,541.9031 Q53.8406,542.6438 54.375,543.1406 Q54.9094,543.6281 55.8656,543.6281 Q56.4281,543.6281 56.8219,543.4781 Q57.0563,543.3844 57.3094,543.1219 Q57.4688,542.9625 57.5531,542.9156 Q57.6469,542.8688 57.7688,542.8688 Q57.9656,542.8688 58.1156,543.0281 Q58.275,543.1781 58.275,543.3844 Q58.275,543.5906 58.0687,543.8344 Q57.7688,544.1813 57.2906,544.3781 Q56.6438,544.65 55.8656,544.65 Q54.9563,544.65 54.2344,544.275 Q53.6438,543.975 53.2312,543.3375 Q52.8188,542.6906 52.8188,541.9219 L52.8188,541.2281 Q52.8188,540.4313 53.1844,539.7469 Q53.5594,539.0531 54.2156,538.6875 Q54.8719,538.3125 55.6125,538.3125 Q56.0531,538.3125 56.4375,538.4156 Q56.8313,538.5094 57.1594,538.725 Z " fill="#000000"/><text fill="#000000" font-family="sans-serif" font-size="8.4" lengthAdjust="spacing" textLength="105" x="63.9" y="544.6781">InMemoryCourseRepository</text><line style="stroke:#181818;stroke-width:0.3;" x1="47.1" x2="170.1" y1="550.8" y2="550.8"/><line style="stroke:#181818;stroke-width:0.3;" x1="47.1" x2="170.1" y1="555.6" y2="555.6"/><ellipse cx="53.1" cy="564.4863" fill="#84BE84" rx="1.8" ry="1.8" style="stroke:#038048;stroke-width:0.6;"/><text fill="#000000" font-family="sans-serif" font-size="8.4" lengthAdjust="spacing" textLength="49.8" x="58.5" y="567.0645">findAllOpen()</text><ellipse cx="53.1" cy="575.659" fill="#84BE84" rx="1.8" ry="1.8" style="stroke:#038048;stroke-width:0.6;"/><text fill="#000000" font-family="sans-serif" font-size="8.4" lengthAdjust="spacing" textLength="69.6" x="58.5" y="578.2371">findAllInProgress()</text></g><!--class JpaCourseRepository--><g id="elem_JpaCourseRepository"><rect codeLine="130" fill="#F1F1F1" height="51.1453" id="JpaCourseRepository" rx="1.5" ry="1.5" style="stroke:#181818;stroke-width:0.3;" width="100.8" x="192" y="531.6"/><ellipse cx="201" cy="541.2" fill="#ADD1B2" rx="6.6" ry="6.6" style="stroke:#181818;stroke-width:0.6;"/><path d="M202.6594,538.725 Q202.7531,538.5938 202.8656,538.5281 Q202.9781,538.4625 203.1094,538.4625 Q203.3344,538.4625 203.475,538.6219 Q203.6156,538.7719 203.6156,539.1375 L203.6156,540.0094 Q203.6156,540.375 203.475,540.5344 Q203.3344,540.6938 203.1094,540.6938 Q202.9031,540.6938 202.7813,540.5719 Q202.6594,540.4594 202.5938,540.15 Q202.5656,539.9344 202.4531,539.8219 Q202.2563,539.5969 201.8906,539.4656 Q201.525,539.3344 201.15,539.3344 Q200.6906,539.3344 200.3063,539.5313 Q199.9313,539.7281 199.6313,540.1781 Q199.3406,540.6281 199.3406,541.2469 L199.3406,541.9031 Q199.3406,542.6438 199.875,543.1406 Q200.4094,543.6281 201.3656,543.6281 Q201.9281,543.6281 202.3219,543.4781 Q202.5563,543.3844 202.8094,543.1219 Q202.9688,542.9625 203.0531,542.9156 Q203.1469,542.8688 203.2687,542.8688 Q203.4656,542.8688 203.6156,543.0281 Q203.775,543.1781 203.775,543.3844 Q203.775,543.5906 203.5688,543.8344 Q203.2687,544.1813 202.7906,544.3781 Q202.1437,544.65 201.3656,544.65 Q200.4562,544.65 199.7344,544.275 Q199.1437,543.975 198.7313,543.3375 Q198.3188,542.6906 198.3188,541.9219 L198.3188,541.2281 Q198.3188,540.4313 198.6844,539.7469 Q199.0594,539.0531 199.7156,538.6875 Q200.3719,538.3125 201.1125,538.3125 Q201.5531,538.3125 201.9375,538.4156 Q202.3312,538.5094 202.6594,538.725 Z " fill="#000000"/><text fill="#000000" font-family="sans-serif" font-size="8.4" lengthAdjust="spacing" textLength="81.6" x="209.4" y="544.6781">JpaCourseRepository</text><line style="stroke:#181818;stroke-width:0.3;" x1="192.6" x2="292.2" y1="550.8" y2="550.8"/><line style="stroke:#181818;stroke-width:0.3;" x1="192.6" x2="292.2" y1="555.6" y2="555.6"/><ellipse cx="198.6" cy="564.4863" fill="#84BE84" rx="1.8" ry="1.8" style="stroke:#038048;stroke-width:0.6;"/><text fill="#000000" font-family="sans-serif" font-size="8.4" lengthAdjust="spacing" textLength="49.8" x="204" y="567.0645">findAllOpen()</text><ellipse cx="198.6" cy="575.659" fill="#84BE84" rx="1.8" ry="1.8" style="stroke:#038048;stroke-width:0.6;"/><text fill="#000000" font-family="sans-serif" font-size="8.4" lengthAdjust="spacing" textLength="69.6" x="204" y="578.2371">findAllInProgress()</text></g><!--class InMemoryFormativeExamRepository--><g id="elem_InMemoryFormativeExamRepository"><rect codeLine="135" fill="#F1F1F1" height="39.9727" id="InMemoryFormativeExamRepository" rx="1.5" ry="1.5" style="stroke:#181818;stroke-width:0.3;" width="154.8" x="313.8" y="537"/><ellipse cx="322.8" cy="546.6" fill="#ADD1B2" rx="6.6" ry="6.6" style="stroke:#181818;stroke-width:0.6;"/><path d="M324.4594,544.125 Q324.5531,543.9938 324.6656,543.9281 Q324.7781,543.8625 324.9094,543.8625 Q325.1344,543.8625 325.275,544.0219 Q325.4156,544.1719 325.4156,544.5375 L325.4156,545.4094 Q325.4156,545.775 325.275,545.9344 Q325.1344,546.0938 324.9094,546.0938 Q324.7031,546.0938 324.5813,545.9719 Q324.4594,545.8594 324.3938,545.55 Q324.3656,545.3344 324.2531,545.2219 Q324.0563,544.9969 323.6906,544.8656 Q323.325,544.7344 322.95,544.7344 Q322.4906,544.7344 322.1063,544.9313 Q321.7313,545.1281 321.4313,545.5781 Q321.1406,546.0281 321.1406,546.6469 L321.1406,547.3031 Q321.1406,548.0437 321.675,548.5406 Q322.2094,549.0281 323.1656,549.0281 Q323.7281,549.0281 324.1219,548.8781 Q324.3563,548.7844 324.6094,548.5219 Q324.7688,548.3625 324.8531,548.3156 Q324.9469,548.2688 325.0687,548.2688 Q325.2656,548.2688 325.4156,548.4281 Q325.575,548.5781 325.575,548.7844 Q325.575,548.9906 325.3688,549.2344 Q325.0687,549.5813 324.5906,549.7781 Q323.9437,550.05 323.1656,550.05 Q322.2562,550.05 321.5344,549.675 Q320.9437,549.375 320.5313,548.7375 Q320.1188,548.0906 320.1188,547.3219 L320.1188,546.6281 Q320.1188,545.8313 320.4844,545.1469 Q320.8594,544.4531 321.5156,544.0875 Q322.1719,543.7125 322.9125,543.7125 Q323.3531,543.7125 323.7375,543.8156 Q324.1312,543.9094 324.4594,544.125 Z " fill="#000000"/><text fill="#000000" font-family="sans-serif" font-size="8.4" lengthAdjust="spacing" textLength="135.6" x="331.2" y="550.0781">InMemoryFormativeExamRepository</text><line style="stroke:#181818;stroke-width:0.3;" x1="314.4" x2="468" y1="556.2" y2="556.2"/><line style="stroke:#181818;stroke-width:0.3;" x1="314.4" x2="468" y1="561" y2="561"/><ellipse cx="320.4" cy="569.8863" fill="#84BE84" rx="1.8" ry="1.8" style="stroke:#038048;stroke-width:0.6;"/><text fill="#000000" font-family="sans-serif" font-size="8.4" lengthAdjust="spacing" textLength="106.8" x="325.8" y="572.4645">findAllCourseExams(course)</text></g><!--class JpaFormativeExamRepository--><g id="elem_JpaFormativeExamRepository"><rect codeLine="139" fill="#F1F1F1" height="39.9727" id="JpaFormativeExamRepository" rx="1.5" ry="1.5" style="stroke:#181818;stroke-width:0.3;" width="131.4" x="489.9" y="537"/><ellipse cx="498.9" cy="546.6" fill="#ADD1B2" rx="6.6" ry="6.6" style="stroke:#181818;stroke-width:0.6;"/><path d="M500.5594,544.125 Q500.6531,543.9938 500.7656,543.9281 Q500.8781,543.8625 501.0094,543.8625 Q501.2344,543.8625 501.375,544.0219 Q501.5156,544.1719 501.5156,544.5375 L501.5156,545.4094 Q501.5156,545.775 501.375,545.9344 Q501.2344,546.0938 501.0094,546.0938 Q500.8031,546.0938 500.6813,545.9719 Q500.5594,545.8594 500.4938,545.55 Q500.4656,545.3344 500.3531,545.2219 Q500.1563,544.9969 499.7906,544.8656 Q499.425,544.7344 499.05,544.7344 Q498.5906,544.7344 498.2062,544.9313 Q497.8312,545.1281 497.5313,545.5781 Q497.2406,546.0281 497.2406,546.6469 L497.2406,547.3031 Q497.2406,548.0437 497.775,548.5406 Q498.3094,549.0281 499.2656,549.0281 Q499.8281,549.0281 500.2219,548.8781 Q500.4562,548.7844 500.7094,548.5219 Q500.8688,548.3625 500.9531,548.3156 Q501.0469,548.2688 501.1688,548.2688 Q501.3656,548.2688 501.5156,548.4281 Q501.675,548.5781 501.675,548.7844 Q501.675,548.9906 501.4688,549.2344 Q501.1688,549.5813 500.6906,549.7781 Q500.0438,550.05 499.2656,550.05 Q498.3563,550.05 497.6344,549.675 Q497.0438,549.375 496.6312,548.7375 Q496.2188,548.0906 496.2188,547.3219 L496.2188,546.6281 Q496.2188,545.8313 496.5844,545.1469 Q496.9594,544.4531 497.6156,544.0875 Q498.2719,543.7125 499.0125,543.7125 Q499.4531,543.7125 499.8375,543.8156 Q500.2313,543.9094 500.5594,544.125 Z " fill="#000000"/><text fill="#000000" font-family="sans-serif" font-size="8.4" lengthAdjust="spacing" textLength="112.2" x="507.3" y="550.0781">JpaFormativeExamRepository</text><line style="stroke:#181818;stroke-width:0.3;" x1="490.5" x2="620.7" y1="556.2" y2="556.2"/><line style="stroke:#181818;stroke-width:0.3;" x1="490.5" x2="620.7" y1="561" y2="561"/><ellipse cx="496.5" cy="569.8863" fill="#84BE84" rx="1.8" ry="1.8" style="stroke:#038048;stroke-width:0.6;"/><text fill="#000000" font-family="sans-serif" font-size="8.4" lengthAdjust="spacing" textLength="106.8" x="501.9" y="572.4645">findAllCourseExams(course)</text></g><!--class InMemoryEvaluationExamRepository--><g id="elem_InMemoryEvaluationExamRepository"><rect codeLine="143" fill="#F1F1F1" height="39.9727" id="InMemoryEvaluationExamRepository" rx="1.5" ry="1.5" style="stroke:#181818;stroke-width:0.3;" width="156.6" x="642.3" y="537"/><ellipse cx="651.3" cy="546.6" fill="#ADD1B2" rx="6.6" ry="6.6" style="stroke:#181818;stroke-width:0.6;"/><path d="M652.9594,544.125 Q653.0531,543.9938 653.1656,543.9281 Q653.2781,543.8625 653.4094,543.8625 Q653.6344,543.8625 653.775,544.0219 Q653.9156,544.1719 653.9156,544.5375 L653.9156,545.4094 Q653.9156,545.775 653.775,545.9344 Q653.6344,546.0938 653.4094,546.0938 Q653.2031,546.0938 653.0813,545.9719 Q652.9594,545.8594 652.8938,545.55 Q652.8656,545.3344 652.7531,545.2219 Q652.5563,544.9969 652.1906,544.8656 Q651.825,544.7344 651.45,544.7344 Q650.9906,544.7344 650.6062,544.9313 Q650.2312,545.1281 649.9313,545.5781 Q649.6406,546.0281 649.6406,546.6469 L649.6406,547.3031 Q649.6406,548.0437 650.175,548.5406 Q650.7094,549.0281 651.6656,549.0281 Q652.2281,549.0281 652.6219,548.8781 Q652.8562,548.7844 653.1094,548.5219 Q653.2688,548.3625 653.3531,548.3156 Q653.4469,548.2688 653.5688,548.2688 Q653.7656,548.2688 653.9156,548.4281 Q654.075,548.5781 654.075,548.7844 Q654.075,548.9906 653.8688,549.2344 Q653.5688,549.5813 653.0906,549.7781 Q652.4438,550.05 651.6656,550.05 Q650.7563,550.05 650.0344,549.675 Q649.4438,549.375 649.0313,548.7375 Q648.6188,548.0906 648.6188,547.3219 L648.6188,546.6281 Q648.6188,545.8313 648.9844,545.1469 Q649.3594,544.4531 650.0156,544.0875 Q650.6719,543.7125 651.4125,543.7125 Q651.8531,543.7125 652.2375,543.8156 Q652.6313,543.9094 652.9594,544.125 Z " fill="#000000"/><text fill="#000000" font-family="sans-serif" font-size="8.4" lengthAdjust="spacing" textLength="137.4" x="659.7" y="550.0781">InMemoryEvaluationExamRepository</text><line style="stroke:#181818;stroke-width:0.3;" x1="642.9" x2="798.3" y1="556.2" y2="556.2"/><line style="stroke:#181818;stroke-width:0.3;" x1="642.9" x2="798.3" y1="561" y2="561"/><ellipse cx="648.9" cy="569.8863" fill="#84BE84" rx="1.8" ry="1.8" style="stroke:#038048;stroke-width:0.6;"/><text fill="#000000" font-family="sans-serif" font-size="8.4" lengthAdjust="spacing" textLength="106.8" x="654.3" y="572.4645">findAllCourseExams(course)</text></g><!--class JpaEvaluationExamRepository--><g id="elem_JpaEvaluationExamRepository"><rect codeLine="147" fill="#F1F1F1" height="39.9727" id="JpaEvaluationExamRepository" rx="1.5" ry="1.5" style="stroke:#181818;stroke-width:0.3;" width="133.2" x="820.2" y="537"/><ellipse cx="829.2" cy="546.6" fill="#ADD1B2" rx="6.6" ry="6.6" style="stroke:#181818;stroke-width:0.6;"/><path d="M830.8594,544.125 Q830.9531,543.9938 831.0656,543.9281 Q831.1781,543.8625 831.3094,543.8625 Q831.5344,543.8625 831.675,544.0219 Q831.8156,544.1719 831.8156,544.5375 L831.8156,545.4094 Q831.8156,545.775 831.675,545.9344 Q831.5344,546.0938 831.3094,546.0938 Q831.1031,546.0938 830.9812,545.9719 Q830.8594,545.8594 830.7937,545.55 Q830.7656,545.3344 830.6531,545.2219 Q830.4563,544.9969 830.0906,544.8656 Q829.725,544.7344 829.35,544.7344 Q828.8906,544.7344 828.5063,544.9313 Q828.1313,545.1281 827.8313,545.5781 Q827.5406,546.0281 827.5406,546.6469 L827.5406,547.3031 Q827.5406,548.0437 828.075,548.5406 Q828.6094,549.0281 829.5656,549.0281 Q830.1281,549.0281 830.5219,548.8781 Q830.7563,548.7844 831.0094,548.5219 Q831.1687,548.3625 831.2531,548.3156 Q831.3469,548.2688 831.4688,548.2688 Q831.6656,548.2688 831.8156,548.4281 Q831.975,548.5781 831.975,548.7844 Q831.975,548.9906 831.7688,549.2344 Q831.4688,549.5813 830.9906,549.7781 Q830.3438,550.05 829.5656,550.05 Q828.6563,550.05 827.9344,549.675 Q827.3438,549.375 826.9313,548.7375 Q826.5188,548.0906 826.5188,547.3219 L826.5188,546.6281 Q826.5188,545.8313 826.8844,545.1469 Q827.2594,544.4531 827.9156,544.0875 Q828.5719,543.7125 829.3125,543.7125 Q829.7531,543.7125 830.1375,543.8156 Q830.5313,543.9094 830.8594,544.125 Z " fill="#000000"/><text fill="#000000" font-family="sans-serif" font-size="8.4" lengthAdjust="spacing" textLength="114" x="837.6" y="550.0781">JpaEvaluationExamRepository</text><line style="stroke:#181818;stroke-width:0.3;" x1="820.8" x2="952.8" y1="556.2" y2="556.2"/><line style="stroke:#181818;stroke-width:0.3;" x1="820.8" x2="952.8" y1="561" y2="561"/><ellipse cx="826.8" cy="569.8863" fill="#84BE84" rx="1.8" ry="1.8" style="stroke:#038048;stroke-width:0.6;"/><text fill="#000000" font-family="sans-serif" font-size="8.4" lengthAdjust="spacing" textLength="106.8" x="832.2" y="572.4645">findAllCourseExams(course)</text></g><!--class PersistenceContext--><g id="elem_PersistenceContext"><rect codeLine="151" fill="#F1F1F1" height="39.9727" id="PersistenceContext" rx="1.5" ry="1.5" style="stroke:#181818;stroke-width:0.3;" width="92.4" x="496.8" y="124.8"/><ellipse cx="505.8" cy="134.4" fill="#ADD1B2" rx="6.6" ry="6.6" style="stroke:#181818;stroke-width:0.6;"/><path d="M507.4594,131.925 Q507.5531,131.7938 507.6656,131.7281 Q507.7781,131.6625 507.9094,131.6625 Q508.1344,131.6625 508.275,131.8219 Q508.4156,131.9719 508.4156,132.3375 L508.4156,133.2094 Q508.4156,133.575 508.275,133.7344 Q508.1344,133.8937 507.9094,133.8937 Q507.7031,133.8937 507.5812,133.7719 Q507.4594,133.6594 507.3937,133.35 Q507.3656,133.1344 507.2531,133.0219 Q507.0563,132.7969 506.6906,132.6656 Q506.325,132.5344 505.95,132.5344 Q505.4906,132.5344 505.1063,132.7313 Q504.7313,132.9281 504.4313,133.3781 Q504.1406,133.8281 504.1406,134.4469 L504.1406,135.1031 Q504.1406,135.8438 504.675,136.3406 Q505.2094,136.8281 506.1656,136.8281 Q506.7281,136.8281 507.1219,136.6781 Q507.3563,136.5844 507.6094,136.3219 Q507.7687,136.1625 507.8531,136.1156 Q507.9469,136.0688 508.0687,136.0688 Q508.2656,136.0688 508.4156,136.2281 Q508.575,136.3781 508.575,136.5844 Q508.575,136.7906 508.3688,137.0344 Q508.0687,137.3813 507.5906,137.5781 Q506.9437,137.85 506.1656,137.85 Q505.2562,137.85 504.5344,137.475 Q503.9437,137.175 503.5313,136.5375 Q503.1188,135.8906 503.1188,135.1219 L503.1188,134.4281 Q503.1188,133.6313 503.4844,132.9469 Q503.8594,132.2531 504.5156,131.8875 Q505.1719,131.5125 505.9125,131.5125 Q506.3531,131.5125 506.7375,131.6156 Q507.1312,131.7094 507.4594,131.925 Z " fill="#000000"/><text fill="#000000" font-family="sans-serif" font-size="8.4" lengthAdjust="spacing" textLength="73.2" x="514.2" y="137.8781">PersistenceContext</text><line style="stroke:#181818;stroke-width:0.3;" x1="497.4" x2="588.6" y1="144" y2="144"/><line style="stroke:#181818;stroke-width:0.3;" x1="497.4" x2="588.6" y1="148.8" y2="148.8"/><rect fill="#F24D5C" height="3.6" style="stroke:#C82930;stroke-width:0.6;" width="3.6" x="501.6" y="155.8863"/><text fill="#000000" font-family="sans-serif" font-size="8.4" lengthAdjust="spacing" textLength="50.4" x="508.8" y="160.2645">repositories()</text></g><!--link PersistenceContext to RepositoryFactory--><g id="link_PersistenceContext_RepositoryFactory"><path codeLine="156" d="M538.746,165.228 C533.118,191.334 523.218,237.246 517.284,264.744 " fill="none" id="PersistenceContext-to-RepositoryFactory" style="stroke:#181818;stroke-width:0.6;stroke-dasharray:7.0,7.0;"/><polygon fill="#181818" points="516.618,267.834,520.1028,263.0616,517.2507,264.9015,515.4108,262.0493,516.618,267.834" style="stroke:#181818;stroke-width:0.6;"/></g><!--link RepositoryFactory to CourseRepository--><g id="link_RepositoryFactory_CourseRepository"><path codeLine="157" d="M480.42,308.112 C441.594,331.806 375.948,371.868 332.586,398.328 " fill="none" id="RepositoryFactory-to-CourseRepository" style="stroke:#181818;stroke-width:0.6;"/><polygon fill="#181818" points="330.024,399.888,335.8827,399.1161,332.5828,398.3219,333.377,395.022,330.024,399.888" style="stroke:#181818;stroke-width:0.6;"/></g><!--link RepositoryFactory to FormativeExamRepository--><g id="link_RepositoryFactory_FormativeExamRepository"><path codeLine="158" d="M511.884,308.112 C511.23,332.922 510.096,375.684 509.406,401.976 " fill="none" id="RepositoryFactory-to-FormativeExamRepository" style="stroke:#181818;stroke-width:0.6;"/><polygon fill="#181818" points="509.322,405.102,511.8752,399.7727,509.4077,402.1032,507.0772,399.6357,509.322,405.102" style="stroke:#181818;stroke-width:0.6;"/></g><!--link RepositoryFactory to EvaluationExamRepository--><g id="link_RepositoryFactory_EvaluationExamRepository"><path codeLine="159" d="M532.428,308.112 C558.204,333.228 602.862,376.728 629.754,402.936 " fill="none" id="RepositoryFactory-to-EvaluationExamRepository" style="stroke:#181818;stroke-width:0.6;"/><polygon fill="#181818" points="631.98,405.102,629.7919,399.6127,629.8331,403.0066,626.4392,403.0478,631.98,405.102" style="stroke:#181818;stroke-width:0.6;"/></g><!--reverse link CourseRepository to InMemoryCourseRepository--><g id="link_CourseRepository_InMemoryCourseRepository"><path codeLine="161" d="M266.724,460.89 C257.766,472.944 246.702,485.856 234.6,495.6 C215.676,510.84 192.312,523.464 170.862,533.19 " fill="none" id="CourseRepository-backto-InMemoryCourseRepository" style="stroke:#181818;stroke-width:0.6;stroke-dasharray:7.0,7.0;"/><polygon fill="none" points="263.346,458.388,273.726,451.05,270.186,463.26,263.346,458.388" style="stroke:#181818;stroke-width:0.6;"/></g><!--reverse link CourseRepository to JpaCourseRepository--><g id="link_CourseRepository_JpaCourseRepository"><path codeLine="162" d="M276.132,462.444 C268.23,484.482 258.354,512.01 251.34,531.576 " fill="none" id="CourseRepository-backto-JpaCourseRepository" style="stroke:#181818;stroke-width:0.6;stroke-dasharray:7.0,7.0;"/><polygon fill="none" points="272.226,460.884,280.23,451.008,280.134,463.722,272.226,460.884" style="stroke:#181818;stroke-width:0.6;"/></g><!--reverse link EvaluationExamRepository to InMemoryEvaluationExamRepository--><g id="link_EvaluationExamRepository_InMemoryEvaluationExamRepository"><path codeLine="164" d="M668.016,456.18 C681.024,480.996 699.078,515.442 710.292,536.832 " fill="none" id="EvaluationExamRepository-backto-InMemoryEvaluationExamRepository" style="stroke:#181818;stroke-width:0.6;stroke-dasharray:7.0,7.0;"/><polygon fill="none" points="664.29,458.118,662.442,445.536,671.73,454.218,664.29,458.118" style="stroke:#181818;stroke-width:0.6;"/></g><!--reverse link EvaluationExamRepository to JpaEvaluationExamRepository--><g id="link_EvaluationExamRepository_JpaEvaluationExamRepository"><path codeLine="165" d="M676.5,454.482 C689.52,468.354 706.5,484.416 724.2,495.6 C741.912,506.79 788.328,523.782 827.052,536.976 " fill="none" id="EvaluationExamRepository-backto-JpaEvaluationExamRepository" style="stroke:#181818;stroke-width:0.6;stroke-dasharray:7.0,7.0;"/><polygon fill="none" points="673.326,457.23,668.352,445.53,679.536,451.578,673.326,457.23" style="stroke:#181818;stroke-width:0.6;"/></g><!--reverse link FormativeExamRepository to InMemoryFormativeExamRepository--><g id="link_FormativeExamRepository_InMemoryFormativeExamRepository"><path codeLine="167" d="M483.102,454.518 C460.644,479.436 428.634,514.956 408.924,536.832 " fill="none" id="FormativeExamRepository-backto-InMemoryFormativeExamRepository" style="stroke:#181818;stroke-width:0.6;stroke-dasharray:7.0,7.0;"/><polygon fill="none" points="480.042,451.638,491.196,445.536,486.282,457.266,480.042,451.638" style="stroke:#181818;stroke-width:0.6;"/></g><!--reverse link FormativeExamRepository to JpaFormativeExamRepository--><g id="link_FormativeExamRepository_JpaFormativeExamRepository"><path codeLine="168" d="M519.864,456.852 C528.744,481.614 540.942,515.634 548.544,536.832 " fill="none" id="FormativeExamRepository-backto-JpaFormativeExamRepository" style="stroke:#181818;stroke-width:0.6;stroke-dasharray:7.0,7.0;"/><polygon fill="none" points="515.904,458.25,515.808,445.536,523.812,455.412,515.904,458.25" style="stroke:#181818;stroke-width:0.6;"/></g><!--link ListCourseExamsUI to PersistenceContext--><g id="link_ListCourseExamsUI_PersistenceContext"><path codeLine="171" d="M633.162,33.066 C615.678,54.636 581.808,96.42 560.928,122.184 " fill="none" id="ListCourseExamsUI-to-PersistenceContext" style="stroke:#181818;stroke-width:0.6;stroke-dasharray:7.0,7.0;"/><polygon fill="#181818" points="558.948,124.626,564.2159,121.9484,560.8398,122.2977,560.4905,118.9216,558.948,124.626" style="stroke:#181818;stroke-width:0.6;"/></g><!--link ListCourseExamsUI to ListCourseExamsController--><g id="link_ListCourseExamsUI_ListCourseExamsController"><path codeLine="172" d="M657.366,33.066 C665.526,41.784 676.77,53.808 688.866,66.744 " fill="none" id="ListCourseExamsUI-to-ListCourseExamsController" style="stroke:#181818;stroke-width:0.6;stroke-dasharray:7.0,7.0;"/><polygon fill="#181818" points="690.972,68.994,689.0187,63.4168,688.9159,66.8094,685.5234,66.7066,690.972,68.994" style="stroke:#181818;stroke-width:0.6;"/></g><!--link CourseListService to Course--><g id="link_CourseListService_Course"><path codeLine="175" d="M179.982,313.014 C158.466,324.312 133.956,338.856 114,355.2 C110.64,357.954 107.316,360.906 104.058,363.984 " fill="none" id="CourseListService-to-Course" style="stroke:#181818;stroke-width:0.6;stroke-dasharray:7.0,7.0;"/><polygon fill="#181818" points="101.814,366.138,107.3712,364.1287,103.9778,364.06,104.0465,360.6666,101.814,366.138" style="stroke:#181818;stroke-width:0.6;"/></g><!--link CourseListService to CourseRepository--><g id="link_CourseListService_CourseRepository"><path codeLine="176" d="M245.064,319.338 C254.802,342.612 268.074,374.328 277.518,396.882 " fill="none" id="CourseListService-to-CourseRepository" style="stroke:#181818;stroke-width:0.6;stroke-dasharray:7.0,7.0;"/><polygon fill="#181818" points="278.766,399.864,278.898,393.9562,277.6091,397.096,274.4692,395.8072,278.766,399.864" style="stroke:#181818;stroke-width:0.6;"/></g><!--link FormativeExamListService to FormativeExamDTO--><g id="link_FormativeExamListService_FormativeExamDTO"><path codeLine="178" d="M789.672,313.584 C802.488,329.226 819.534,350.028 835.41,369.408 " fill="none" id="FormativeExamListService-to-FormativeExamDTO" style="stroke:#181818;stroke-width:0.6;stroke-dasharray:7.0,7.0;"/><polygon fill="#181818" points="837.342,371.766,835.7766,366.0678,835.4409,369.4453,832.0634,369.1096,837.342,371.766" style="stroke:#181818;stroke-width:0.6;"/></g><!--link FormativeExamListService to FormativeExam--><g id="link_FormativeExamListService_FormativeExam"><path codeLine="179" d="M769.968,313.584 C770.4,327.522 770.958,345.552 771.498,363.024 " fill="none" id="FormativeExamListService-to-FormativeExam" style="stroke:#181818;stroke-width:0.6;stroke-dasharray:7.0,7.0;"/><polygon fill="#181818" points="771.588,366.048,773.8172,360.5753,771.4938,363.0495,769.0196,360.7261,771.588,366.048" style="stroke:#181818;stroke-width:0.6;"/></g><!--link EvaluationExamListService to EvaluationExamDTO--><g id="link_EvaluationExamListService_EvaluationExamDTO"><path codeLine="181" d="M967.044,313.584 C970.572,326.088 975.024,341.892 979.464,357.63 " fill="none" id="EvaluationExamListService-to-EvaluationExamDTO" style="stroke:#181818;stroke-width:0.6;stroke-dasharray:7.0,7.0;"/><polygon fill="#181818" points="980.292,360.564,981.1323,354.7147,979.4758,357.6772,976.5133,356.0207,980.292,360.564" style="stroke:#181818;stroke-width:0.6;"/></g><!--link EvaluationExamListService to EvaluationExam--><g id="link_EvaluationExamListService_EvaluationExam"><path codeLine="182" d="M1003.62,313.626 C1021.494,325.026 1041.708,339.48 1057.8,355.2 C1060.554,357.888 1063.26,360.744 1065.894,363.708 " fill="none" id="EvaluationExamListService-to-EvaluationExam" style="stroke:#181818;stroke-width:0.6;stroke-dasharray:7.0,7.0;"/><polygon fill="#181818" points="1067.904,365.994,1066.1543,360.3497,1065.9285,363.7363,1062.5419,363.5105,1067.904,365.994" style="stroke:#181818;stroke-width:0.6;"/></g><!--link CourseListService to CourseDTO--><g id="link_CourseListService_CourseDTO"><path codeLine="184" d="M219.204,319.338 C212.994,334.02 205.362,352.062 198.18,369.048 " fill="none" id="CourseListService-to-CourseDTO" style="stroke:#181818;stroke-width:0.6;stroke-dasharray:7.0,7.0;"/><polygon fill="#181818" points="196.938,371.982,201.256,367.9478,198.1094,369.2202,196.8371,366.0735,196.938,371.982" style="stroke:#181818;stroke-width:0.6;"/></g><!--link ListCourseExamsController to FormativeExamListService--><g id="link_ListCourseExamsController_FormativeExamListService"><path codeLine="185" d="M765.54,220.812 C766.296,234.576 767.04,248.118 767.658,259.362 " fill="none" id="ListCourseExamsController-to-FormativeExamListService" style="stroke:#181818;stroke-width:0.6;"/><polygon fill="#181818" points="767.832,262.47,769.9358,256.9478,767.6694,259.4744,765.1428,257.208,767.832,262.47" style="stroke:#181818;stroke-width:0.6;"/></g><!--link ListCourseExamsController to CourseListService--><g id="link_ListCourseExamsController_CourseListService"><path codeLine="186" d="M625.386,211.704 C616.68,215.01 607.974,218.082 599.4,220.8 C491.664,254.988 360.234,273.51 287.442,281.838 " fill="none" id="ListCourseExamsController-to-CourseListService" style="stroke:#181818;stroke-width:0.6;"/><polygon fill="#181818" points="284.448,282.18,290.0867,283.9477,287.4284,281.8374,289.5386,279.1791,284.448,282.18" style="stroke:#181818;stroke-width:0.6;"/></g><!--link ListCourseExamsController to EvaluationExamListService--><g id="link_ListCourseExamsController_EvaluationExamListService"><path codeLine="187" d="M866.808,220.812 C886.812,235.104 906.48,249.162 922.56,260.646 " fill="none" id="ListCourseExamsController-to-EvaluationExamListService" style="stroke:#181818;stroke-width:0.6;"/><polygon fill="#181818" points="925.11,262.47,922.1159,257.3754,922.6705,260.7239,919.3221,261.2785,925.11,262.47" style="stroke:#181818;stroke-width:0.6;"/></g><!--link EvaluationExamListService to EvaluationExamRepository--><g id="link_EvaluationExamListService_EvaluationExamRepository"><path codeLine="189" d="M899.61,304.014 C834.966,320.778 739.572,346.362 724.2,355.2 C702.882,367.458 683.142,387.414 669.744,402.822 " fill="none" id="EvaluationExamListService-to-EvaluationExamRepository" style="stroke:#181818;stroke-width:0.6;stroke-dasharray:7.0,7.0;"/><polygon fill="#181818" points="667.65,405.252,672.9967,402.7354,669.6115,402.9821,669.3648,399.597,667.65,405.252" style="stroke:#181818;stroke-width:0.6;"/></g><!--link FormativeExamListService to FormativeExamRepository--><g id="link_FormativeExamListService_FormativeExamRepository"><path codeLine="190" d="M709.614,302.448 C670.848,313.128 620.25,330.33 580.2,355.2 C559.608,367.986 540.186,387.606 526.812,402.756 " fill="none" id="FormativeExamListService-to-FormativeExamRepository" style="stroke:#181818;stroke-width:0.6;stroke-dasharray:7.0,7.0;"/><polygon fill="#181818" points="524.718,405.15,530.0801,402.6665,526.6935,402.8923,526.4677,399.5057,524.718,405.15" style="stroke:#181818;stroke-width:0.6;"/></g><!--SRC=[lLRRRjim37tNL_WnGPfymL2WI1CWGuSMQ_S1Wisi0cmfa9IWk_txA5kE9SjqatbRNY9JXuSqUKGvBxansOCmTgsEsi3cZLVcooxxmTWlnlAXtRMILgko18sePPRNEmxp3FeaSZZRFiD16M6L_eOcVhIlIellt0ebEoISU7ciROuxPjahNU7M2VfR2pgbsL2ScoIX6vQD_UAi0hSufsvZpZ2f4fDwF83SoIUjlcemfadHpEP-rwSSiPjPazpzosCCsuQX8XHsnhUcGM8ViinLlO1wOOKjcrK19jVYu6BLpo2nJ1L8-o0gOOrtSnpFbbi8dZSjCjZGWClYpkBJ8hFgtghPl9D9LuqjpzrVdTOYjJTEGbhGUvw3VuaEvltsGXPtPUagYXw1fQjldsb3z0qPpzw1R7nDUoJRuHPVmD7KOKD9kZuk497wXhz7kILEmfyphlkdzgoXticj2zygkzDpQntIUYVFk1IeNJyn2dUy6vMs8Pq1UFuA6bV6ScrVH5LF25dubIXGZc8lQaYexDe1HKgquDy67JW9KRikZ3uvpkNLlRoEwtRc_FS9upJaazZ9Jr2X5AUEYORjuu7_7Q8shQdZ0XEQIj6cCc7ydNEPpF44sk1W09c3kvRXpNhnw9PBdAV407Qrkarl39RUBSlbRN9n432Yl0IQAW1ZYMu-_5ojI7aIy07zCKOMFOf0PZRkFj9KnYZfHO6f0euwqxh6ngSVdAxlgHm88FdvnzekXJURysYievjaMVhm_jYz0jrlTH-SN9XNuSTVth7Hd_B9GGa_kCVTag3luCbNkguwb1176n0s-JS0]--></g></svg>