<?xml version="1.0" encoding="us-ascii" standalone="no"?><svg xmlns="http://www.w3.org/2000/svg" xmlns:xlink="http://www.w3.org/1999/xlink" contentStyleType="text/css" height="514px" preserveAspectRatio="none" style="width:1026px;height:514px;background:#FFFFFF;" version="1.1" viewBox="0 0 1026 514" width="1026.8px" zoomAndPan="magnify"><defs/><g><rect fill="#FFFFFF" height="200.3133" style="stroke:#181818;stroke-width:0.4000000000000001;" width="4" x="151.4" y="48.6133"/><rect fill="#FFFFFF" height="209.6297" style="stroke:#181818;stroke-width:0.4000000000000001;" width="4" x="151.4" y="261.443"/><rect fill="#FFFFFF" height="12" style="stroke:#181818;stroke-width:0.4000000000000001;" width="4" x="346.6" y="61.1297"/><rect fill="#FFFFFF" height="153.9641" style="stroke:#181818;stroke-width:0.4000000000000001;" width="4" x="346.6" y="85.6461"/><rect fill="#FFFFFF" height="78.582" style="stroke:#181818;stroke-width:0.4000000000000001;" width="4" x="346.6" y="291.6758"/><rect fill="#FFFFFF" height="78.582" style="stroke:#181818;stroke-width:0.4000000000000001;" width="4" x="346.6" y="379.5742"/><rect fill="#FFFFFF" height="60.0656" style="stroke:#181818;stroke-width:0.4000000000000001;" width="4" x="416.6" y="98.1625"/><rect fill="#FFFFFF" height="60.0656" style="stroke:#181818;stroke-width:0.4000000000000001;" width="4" x="416.6" y="173.5445"/><rect fill="#FFFFFF" height="66.0656" style="stroke:#181818;stroke-width:0.4000000000000001;" width="4" x="483" y="304.1922"/><rect fill="#FFFFFF" height="60.0656" style="stroke:#181818;stroke-width:0.4000000000000001;" width="4" x="559.6" y="392.0906"/><rect fill="#FFFFFF" height="12.5164" style="stroke:#181818;stroke-width:0.4000000000000001;" width="4" x="614.8" y="351.7414"/><rect fill="#FFFFFF" height="12.5164" style="stroke:#181818;stroke-width:0.4000000000000001;" width="4" x="614.8" y="439.6398"/><rect fill="#FFFFFF" height="12.5164" style="stroke:#181818;stroke-width:0.4000000000000001;" width="4" x="649.2" y="145.7117"/><rect fill="#FFFFFF" height="12.5164" style="stroke:#181818;stroke-width:0.4000000000000001;" width="4" x="649.2" y="221.0938"/><rect fill="#FFFFFF" height="12" style="stroke:#181818;stroke-width:0.4000000000000001;" width="4" x="854.4" y="110.6789"/><rect fill="#FFFFFF" height="12" style="stroke:#181818;stroke-width:0.4000000000000001;" width="4" x="854.4" y="186.0609"/><rect fill="#FFFFFF" height="12" style="stroke:#181818;stroke-width:0.4000000000000001;" width="4" x="917.2" y="316.7086"/><rect fill="#FFFFFF" height="12" style="stroke:#181818;stroke-width:0.4000000000000001;" width="4" x="990.2" y="404.607"/><rect fill="none" height="32.7492" style="stroke:#000000;stroke-width:0.6000000000000001;" width="321.6" x="388.8" y="128.6789"/><rect fill="none" height="32.7492" style="stroke:#000000;stroke-width:0.6000000000000001;" width="321.6" x="388.8" y="204.0609"/><rect fill="none" height="32.7492" style="stroke:#000000;stroke-width:0.6000000000000001;" width="327.6" x="444.4" y="334.7086"/><rect fill="none" height="32.7492" style="stroke:#000000;stroke-width:0.6000000000000001;" width="310.8" x="521.6" y="422.607"/><line style="stroke:#181818;stroke-width:0.20000000000000004;stroke-dasharray:5.0,5.0;" x1="13.6" x2="13.6" y1="35.2969" y2="474.6727"/><line style="stroke:#181818;stroke-width:0.20000000000000004;stroke-dasharray:5.0,5.0;" x1="153.2" x2="153.2" y1="35.2969" y2="474.6727"/><line style="stroke:#181818;stroke-width:0.20000000000000004;stroke-dasharray:5.0,5.0;" x1="348.4" x2="348.4" y1="35.2969" y2="474.6727"/><line style="stroke:#181818;stroke-width:0.20000000000000004;stroke-dasharray:5.0,5.0;" x1="418.4" x2="418.4" y1="35.2969" y2="474.6727"/><line style="stroke:#181818;stroke-width:0.20000000000000004;stroke-dasharray:5.0,5.0;" x1="484.8" x2="484.8" y1="35.2969" y2="474.6727"/><line style="stroke:#181818;stroke-width:0.20000000000000004;stroke-dasharray:5.0,5.0;" x1="561.6" x2="561.6" y1="35.2969" y2="474.6727"/><line style="stroke:#181818;stroke-width:0.20000000000000004;stroke-dasharray:5.0,5.0;" x1="616.8" x2="616.8" y1="35.2969" y2="474.6727"/><line style="stroke:#181818;stroke-width:0.20000000000000004;stroke-dasharray:5.0,5.0;" x1="651.2" x2="651.2" y1="35.2969" y2="474.6727"/><line style="stroke:#181818;stroke-width:0.20000000000000004;stroke-dasharray:5.0,5.0;" x1="688.4" x2="688.4" y1="35.2969" y2="474.6727"/><line style="stroke:#181818;stroke-width:0.20000000000000004;stroke-dasharray:5.0,5.0;" x1="739.2" x2="739.2" y1="35.2969" y2="474.6727"/><line style="stroke:#181818;stroke-width:0.20000000000000004;stroke-dasharray:5.0,5.0;" x1="800" x2="800" y1="35.2969" y2="474.6727"/><line style="stroke:#181818;stroke-width:0.20000000000000004;stroke-dasharray:5.0,5.0;" x1="856.4" x2="856.4" y1="35.2969" y2="474.6727"/><line style="stroke:#181818;stroke-width:0.20000000000000004;stroke-dasharray:5.0,5.0;" x1="919.2" x2="919.2" y1="35.2969" y2="474.6727"/><line style="stroke:#181818;stroke-width:0.20000000000000004;stroke-dasharray:5.0,5.0;" x1="992" x2="992" y1="35.2969" y2="474.6727"/><text fill="#000000" font-family="sans-serif" font-size="5.6" lengthAdjust="spacing" textLength="21.2" x="2" y="33.8914">Teacher</text><ellipse cx="13.8" cy="7.2484" fill="#E2E2F0" rx="3.2" ry="3.2" style="stroke:#181818;stroke-width:0.20000000000000004;"/><path d="M13.8,10.4484 L13.8,21.2484 M8.6,13.6484 L19,13.6484 M13.8,21.2484 L8.6,27.2484 M13.8,21.2484 L19,27.2484 " fill="none" style="stroke:#181818;stroke-width:0.20000000000000004;"/><text fill="#000000" font-family="sans-serif" font-size="5.6" lengthAdjust="spacing" textLength="21.2" x="2" y="480.3156">Teacher</text><ellipse cx="13.8" cy="485.1211" fill="#E2E2F0" rx="3.2" ry="3.2" style="stroke:#181818;stroke-width:0.20000000000000004;"/><path d="M13.8,488.3211 L13.8,499.1211 M8.6,491.5211 L19,491.5211 M13.8,499.1211 L8.6,505.1211 M13.8,499.1211 L19,505.1211 " fill="none" style="stroke:#181818;stroke-width:0.20000000000000004;"/><rect fill="#E2E2F0" height="20.4969" rx="1" ry="1" style="stroke:#181818;stroke-width:0.20000000000000004;" width="54" x="126.4" y="14.4"/><text fill="#000000" font-family="sans-serif" font-size="5.6" font-style="italic" lengthAdjust="spacing" textLength="38" x="134.4" y="23.243">&#171;presentation&#187;</text><text fill="#000000" font-family="sans-serif" font-size="5.6" lengthAdjust="spacing" textLength="48.4" x="129.2" y="30.6914">ListCourseExamsUI</text><rect fill="#E2E2F0" height="20.4969" rx="1" ry="1" style="stroke:#181818;stroke-width:0.20000000000000004;" width="54" x="126.4" y="474.2727"/><text fill="#000000" font-family="sans-serif" font-size="5.6" font-style="italic" lengthAdjust="spacing" textLength="38" x="134.4" y="483.1156">&#171;presentation&#187;</text><text fill="#000000" font-family="sans-serif" font-size="5.6" lengthAdjust="spacing" textLength="48.4" x="129.2" y="490.5641">ListCourseExamsUI</text><rect fill="#E2E2F0" height="20.4969" rx="1" ry="1" style="stroke:#181818;stroke-width:0.20000000000000004;" width="74" x="311.6" y="14.4"/><text fill="#000000" font-family="sans-serif" font-size="5.6" font-style="italic" lengthAdjust="spacing" textLength="33.6" x="331.8" y="23.243">&#171;application&#187;</text><text fill="#000000" font-family="sans-serif" font-size="5.6" lengthAdjust="spacing" textLength="68.4" x="314.4" y="30.6914">ListCourseExamsController</text><rect fill="#E2E2F0" height="20.4969" rx="1" ry="1" style="stroke:#181818;stroke-width:0.20000000000000004;" width="74" x="311.6" y="474.2727"/><text fill="#000000" font-family="sans-serif" font-size="5.6" font-style="italic" lengthAdjust="spacing" textLength="33.6" x="331.8" y="483.1156">&#171;application&#187;</text><text fill="#000000" font-family="sans-serif" font-size="5.6" lengthAdjust="spacing" textLength="68.4" x="314.4" y="490.5641">ListCourseExamsController</text><rect fill="#E2E2F0" height="20.4969" rx="1" ry="1" style="stroke:#181818;stroke-width:0.20000000000000004;" width="51.6" x="392.8" y="14.4"/><text fill="#000000" font-family="sans-serif" font-size="5.6" font-style="italic" lengthAdjust="spacing" textLength="24" x="406.6" y="23.243">&#171;service&#187;</text><text fill="#000000" font-family="sans-serif" font-size="5.6" lengthAdjust="spacing" textLength="46" x="395.6" y="30.6914">CourseListService</text><rect fill="#E2E2F0" height="20.4969" rx="1" ry="1" style="stroke:#181818;stroke-width:0.20000000000000004;" width="51.6" x="392.8" y="474.2727"/><text fill="#000000" font-family="sans-serif" font-size="5.6" font-style="italic" lengthAdjust="spacing" textLength="24" x="406.6" y="483.1156">&#171;service&#187;</text><text fill="#000000" font-family="sans-serif" font-size="5.6" lengthAdjust="spacing" textLength="46" x="395.6" y="490.5641">CourseListService</text><rect fill="#E2E2F0" height="20.4969" rx="1" ry="1" style="stroke:#181818;stroke-width:0.20000000000000004;" width="73.2" x="448.4" y="14.4"/><text fill="#000000" font-family="sans-serif" font-size="5.6" font-style="italic" lengthAdjust="spacing" textLength="24" x="473" y="23.243">&#171;service&#187;</text><text fill="#000000" font-family="sans-serif" font-size="5.6" lengthAdjust="spacing" textLength="67.6" x="451.2" y="30.6914">EvaluationExamListService</text><rect fill="#E2E2F0" height="20.4969" rx="1" ry="1" style="stroke:#181818;stroke-width:0.20000000000000004;" width="73.2" x="448.4" y="474.2727"/><text fill="#000000" font-family="sans-serif" font-size="5.6" font-style="italic" lengthAdjust="spacing" textLength="24" x="473" y="483.1156">&#171;service&#187;</text><text fill="#000000" font-family="sans-serif" font-size="5.6" lengthAdjust="spacing" textLength="67.6" x="451.2" y="490.5641">EvaluationExamListService</text><rect fill="#E2E2F0" height="20.4969" rx="1" ry="1" style="stroke:#181818;stroke-width:0.20000000000000004;" width="72" x="525.6" y="14.4"/><text fill="#000000" font-family="sans-serif" font-size="5.6" font-style="italic" lengthAdjust="spacing" textLength="24" x="549.6" y="23.243">&#171;service&#187;</text><text fill="#000000" font-family="sans-serif" font-size="5.6" lengthAdjust="spacing" textLength="66.4" x="528.4" y="30.6914">FormativeExamListService</text><rect fill="#E2E2F0" height="20.4969" rx="1" ry="1" style="stroke:#181818;stroke-width:0.20000000000000004;" width="72" x="525.6" y="474.2727"/><text fill="#000000" font-family="sans-serif" font-size="5.6" font-style="italic" lengthAdjust="spacing" textLength="24" x="549.6" y="483.1156">&#171;service&#187;</text><text fill="#000000" font-family="sans-serif" font-size="5.6" lengthAdjust="spacing" textLength="66.4" x="528.4" y="490.5641">FormativeExamListService</text><rect fill="#E2E2F0" height="20.4969" rx="1" ry="1" style="stroke:#181818;stroke-width:0.20000000000000004;" width="30.4" x="601.6" y="14.4"/><text fill="#000000" font-family="sans-serif" font-size="5.6" font-style="italic" lengthAdjust="spacing" textLength="24.8" x="604.4" y="23.243">&#171;domain&#187;</text><text fill="#000000" font-family="sans-serif" font-size="5.6" lengthAdjust="spacing" textLength="13.6" x="610" y="30.6914">Exam</text><rect fill="#E2E2F0" height="20.4969" rx="1" ry="1" style="stroke:#181818;stroke-width:0.20000000000000004;" width="30.4" x="601.6" y="474.2727"/><text fill="#000000" font-family="sans-serif" font-size="5.6" font-style="italic" lengthAdjust="spacing" textLength="24.8" x="604.4" y="483.1156">&#171;domain&#187;</text><text fill="#000000" font-family="sans-serif" font-size="5.6" lengthAdjust="spacing" textLength="13.6" x="610" y="490.5641">Exam</text><rect fill="#E2E2F0" height="20.4969" rx="1" ry="1" style="stroke:#181818;stroke-width:0.20000000000000004;" width="30.4" x="636" y="14.4"/><text fill="#000000" font-family="sans-serif" font-size="5.6" font-style="italic" lengthAdjust="spacing" textLength="24.8" x="638.8" y="23.243">&#171;domain&#187;</text><text fill="#000000" font-family="sans-serif" font-size="5.6" lengthAdjust="spacing" textLength="18.4" x="642" y="30.6914">Course</text><rect fill="#E2E2F0" height="20.4969" rx="1" ry="1" style="stroke:#181818;stroke-width:0.20000000000000004;" width="30.4" x="636" y="474.2727"/><text fill="#000000" font-family="sans-serif" font-size="5.6" font-style="italic" lengthAdjust="spacing" textLength="24.8" x="638.8" y="483.1156">&#171;domain&#187;</text><text fill="#000000" font-family="sans-serif" font-size="5.6" lengthAdjust="spacing" textLength="18.4" x="642" y="490.5641">Course</text><rect fill="#E2E2F0" height="20.4969" rx="1" ry="1" style="stroke:#181818;stroke-width:0.20000000000000004;" width="36" x="670.4" y="14.4"/><text fill="#000000" font-family="sans-serif" font-size="5.6" font-style="italic" lengthAdjust="spacing" textLength="14.4" x="681.2" y="23.243">&#171;dto&#187;</text><text fill="#000000" font-family="sans-serif" font-size="5.6" lengthAdjust="spacing" textLength="30.4" x="673.2" y="30.6914">CourseDTO</text><rect fill="#E2E2F0" height="20.4969" rx="1" ry="1" style="stroke:#181818;stroke-width:0.20000000000000004;" width="36" x="670.4" y="474.2727"/><text fill="#000000" font-family="sans-serif" font-size="5.6" font-style="italic" lengthAdjust="spacing" textLength="14.4" x="681.2" y="483.1156">&#171;dto&#187;</text><text fill="#000000" font-family="sans-serif" font-size="5.6" lengthAdjust="spacing" textLength="30.4" x="673.2" y="490.5641">CourseDTO</text><rect fill="#E2E2F0" height="20.4969" rx="1" ry="1" style="stroke:#181818;stroke-width:0.20000000000000004;" width="57.6" x="710.4" y="14.4"/><text fill="#000000" font-family="sans-serif" font-size="5.6" font-style="italic" lengthAdjust="spacing" textLength="14.4" x="732" y="23.243">&#171;dto&#187;</text><text fill="#000000" font-family="sans-serif" font-size="5.6" lengthAdjust="spacing" textLength="52" x="713.2" y="30.6914">EvaluationExamDTO</text><rect fill="#E2E2F0" height="20.4969" rx="1" ry="1" style="stroke:#181818;stroke-width:0.20000000000000004;" width="57.6" x="710.4" y="474.2727"/><text fill="#000000" font-family="sans-serif" font-size="5.6" font-style="italic" lengthAdjust="spacing" textLength="14.4" x="732" y="483.1156">&#171;dto&#187;</text><text fill="#000000" font-family="sans-serif" font-size="5.6" lengthAdjust="spacing" textLength="52" x="713.2" y="490.5641">EvaluationExamDTO</text><rect fill="#E2E2F0" height="20.4969" rx="1" ry="1" style="stroke:#181818;stroke-width:0.20000000000000004;" width="56.4" x="772" y="14.4"/><text fill="#000000" font-family="sans-serif" font-size="5.6" font-style="italic" lengthAdjust="spacing" textLength="14.4" x="793" y="23.243">&#171;dto&#187;</text><text fill="#000000" font-family="sans-serif" font-size="5.6" lengthAdjust="spacing" textLength="50.8" x="774.8" y="30.6914">FormativeExamDTO</text><rect fill="#E2E2F0" height="20.4969" rx="1" ry="1" style="stroke:#181818;stroke-width:0.20000000000000004;" width="56.4" x="772" y="474.2727"/><text fill="#000000" font-family="sans-serif" font-size="5.6" font-style="italic" lengthAdjust="spacing" textLength="14.4" x="793" y="483.1156">&#171;dto&#187;</text><text fill="#000000" font-family="sans-serif" font-size="5.6" lengthAdjust="spacing" textLength="50.8" x="774.8" y="490.5641">FormativeExamDTO</text><text fill="#000000" font-family="sans-serif" font-size="5.6" font-style="italic" lengthAdjust="spacing" textLength="31.6" x="839.4" y="26.443">&#171;repository&#187;</text><text fill="#000000" font-family="sans-serif" font-size="5.6" lengthAdjust="spacing" textLength="45.6" x="832.4" y="33.8914">CourseRepository</text><path d="M849.2,6 C849.2,2 856.4,2 856.4,2 C856.4,2 863.6,2 863.6,6 L863.6,16.4 C863.6,20.4 856.4,20.4 856.4,20.4 C856.4,20.4 849.2,20.4 849.2,16.4 L849.2,6 " fill="#E2E2F0" style="stroke:#181818;stroke-width:0.6000000000000001;"/><path d="M849.2,6 C849.2,10 856.4,10 856.4,10 C856.4,10 863.6,10 863.6,6 " fill="none" style="stroke:#181818;stroke-width:0.6000000000000001;"/><text fill="#000000" font-family="sans-serif" font-size="5.6" font-style="italic" lengthAdjust="spacing" textLength="31.6" x="839.4" y="480.3156">&#171;repository&#187;</text><text fill="#000000" font-family="sans-serif" font-size="5.6" lengthAdjust="spacing" textLength="45.6" x="832.4" y="487.7641">CourseRepository</text><path d="M849.2,493.1695 C849.2,489.1695 856.4,489.1695 856.4,489.1695 C856.4,489.1695 863.6,489.1695 863.6,493.1695 L863.6,503.5695 C863.6,507.5695 856.4,507.5695 856.4,507.5695 C856.4,507.5695 849.2,507.5695 849.2,503.5695 L849.2,493.1695 " fill="#E2E2F0" style="stroke:#181818;stroke-width:0.6000000000000001;"/><path d="M849.2,493.1695 C849.2,497.1695 856.4,497.1695 856.4,497.1695 C856.4,497.1695 863.6,497.1695 863.6,493.1695 " fill="none" style="stroke:#181818;stroke-width:0.6000000000000001;"/><text fill="#000000" font-family="sans-serif" font-size="5.6" font-style="italic" lengthAdjust="spacing" textLength="31.6" x="902.2" y="26.443">&#171;repository&#187;</text><text fill="#000000" font-family="sans-serif" font-size="5.6" lengthAdjust="spacing" textLength="67.2" x="884.4" y="33.8914">EvaluationExamRepository</text><path d="M912,6 C912,2 919.2,2 919.2,2 C919.2,2 926.4,2 926.4,6 L926.4,16.4 C926.4,20.4 919.2,20.4 919.2,20.4 C919.2,20.4 912,20.4 912,16.4 L912,6 " fill="#E2E2F0" style="stroke:#181818;stroke-width:0.6000000000000001;"/><path d="M912,6 C912,10 919.2,10 919.2,10 C919.2,10 926.4,10 926.4,6 " fill="none" style="stroke:#181818;stroke-width:0.6000000000000001;"/><text fill="#000000" font-family="sans-serif" font-size="5.6" font-style="italic" lengthAdjust="spacing" textLength="31.6" x="902.2" y="480.3156">&#171;repository&#187;</text><text fill="#000000" font-family="sans-serif" font-size="5.6" lengthAdjust="spacing" textLength="67.2" x="884.4" y="487.7641">EvaluationExamRepository</text><path d="M912,493.1695 C912,489.1695 919.2,489.1695 919.2,489.1695 C919.2,489.1695 926.4,489.1695 926.4,493.1695 L926.4,503.5695 C926.4,507.5695 919.2,507.5695 919.2,507.5695 C919.2,507.5695 912,507.5695 912,503.5695 L912,493.1695 " fill="#E2E2F0" style="stroke:#181818;stroke-width:0.6000000000000001;"/><path d="M912,493.1695 C912,497.1695 919.2,497.1695 919.2,497.1695 C919.2,497.1695 926.4,497.1695 926.4,493.1695 " fill="none" style="stroke:#181818;stroke-width:0.6000000000000001;"/><text fill="#000000" font-family="sans-serif" font-size="5.6" font-style="italic" lengthAdjust="spacing" textLength="31.6" x="975.2" y="26.443">&#171;repository&#187;</text><text fill="#000000" font-family="sans-serif" font-size="5.6" lengthAdjust="spacing" textLength="66" x="958" y="33.8914">FormativeExamRepository</text><path d="M985,6 C985,2 992.2,2 992.2,2 C992.2,2 999.4,2 999.4,6 L999.4,16.4 C999.4,20.4 992.2,20.4 992.2,20.4 C992.2,20.4 985,20.4 985,16.4 L985,6 " fill="#E2E2F0" style="stroke:#181818;stroke-width:0.6000000000000001;"/><path d="M985,6 C985,10 992.2,10 992.2,10 C992.2,10 999.4,10 999.4,6 " fill="none" style="stroke:#181818;stroke-width:0.6000000000000001;"/><text fill="#000000" font-family="sans-serif" font-size="5.6" font-style="italic" lengthAdjust="spacing" textLength="31.6" x="975.2" y="480.3156">&#171;repository&#187;</text><text fill="#000000" font-family="sans-serif" font-size="5.6" lengthAdjust="spacing" textLength="66" x="958" y="487.7641">FormativeExamRepository</text><path d="M985,493.1695 C985,489.1695 992.2,489.1695 992.2,489.1695 C992.2,489.1695 999.4,489.1695 999.4,493.1695 L999.4,503.5695 C999.4,507.5695 992.2,507.5695 992.2,507.5695 C992.2,507.5695 985,507.5695 985,503.5695 L985,493.1695 " fill="#E2E2F0" style="stroke:#181818;stroke-width:0.6000000000000001;"/><path d="M985,493.1695 C985,497.1695 992.2,497.1695 992.2,497.1695 C992.2,497.1695 999.4,497.1695 999.4,493.1695 " fill="none" style="stroke:#181818;stroke-width:0.6000000000000001;"/><rect fill="#FFFFFF" height="200.3133" style="stroke:#181818;stroke-width:0.4000000000000001;" width="4" x="151.4" y="48.6133"/><rect fill="#FFFFFF" height="209.6297" style="stroke:#181818;stroke-width:0.4000000000000001;" width="4" x="151.4" y="261.443"/><rect fill="#FFFFFF" height="12" style="stroke:#181818;stroke-width:0.4000000000000001;" width="4" x="346.6" y="61.1297"/><rect fill="#FFFFFF" height="153.9641" style="stroke:#181818;stroke-width:0.4000000000000001;" width="4" x="346.6" y="85.6461"/><rect fill="#FFFFFF" height="78.582" style="stroke:#181818;stroke-width:0.4000000000000001;" width="4" x="346.6" y="291.6758"/><rect fill="#FFFFFF" height="78.582" style="stroke:#181818;stroke-width:0.4000000000000001;" width="4" x="346.6" y="379.5742"/><rect fill="#FFFFFF" height="60.0656" style="stroke:#181818;stroke-width:0.4000000000000001;" width="4" x="416.6" y="98.1625"/><rect fill="#FFFFFF" height="60.0656" style="stroke:#181818;stroke-width:0.4000000000000001;" width="4" x="416.6" y="173.5445"/><rect fill="#FFFFFF" height="66.0656" style="stroke:#181818;stroke-width:0.4000000000000001;" width="4" x="483" y="304.1922"/><rect fill="#FFFFFF" height="60.0656" style="stroke:#181818;stroke-width:0.4000000000000001;" width="4" x="559.6" y="392.0906"/><rect fill="#FFFFFF" height="12.5164" style="stroke:#181818;stroke-width:0.4000000000000001;" width="4" x="614.8" y="351.7414"/><rect fill="#FFFFFF" height="12.5164" style="stroke:#181818;stroke-width:0.4000000000000001;" width="4" x="614.8" y="439.6398"/><rect fill="#FFFFFF" height="12.5164" style="stroke:#181818;stroke-width:0.4000000000000001;" width="4" x="649.2" y="145.7117"/><rect fill="#FFFFFF" height="12.5164" style="stroke:#181818;stroke-width:0.4000000000000001;" width="4" x="649.2" y="221.0938"/><rect fill="#FFFFFF" height="12" style="stroke:#181818;stroke-width:0.4000000000000001;" width="4" x="854.4" y="110.6789"/><rect fill="#FFFFFF" height="12" style="stroke:#181818;stroke-width:0.4000000000000001;" width="4" x="854.4" y="186.0609"/><rect fill="#FFFFFF" height="12" style="stroke:#181818;stroke-width:0.4000000000000001;" width="4" x="917.2" y="316.7086"/><rect fill="#FFFFFF" height="12" style="stroke:#181818;stroke-width:0.4000000000000001;" width="4" x="990.2" y="404.607"/><polygon fill="#181818" points="146.6,47.0133,150.6,48.6133,146.6,50.2133,148.2,48.6133" style="stroke:#181818;stroke-width:0.4000000000000001;"/><line style="stroke:#181818;stroke-width:0.4000000000000001;" x1="13.8" x2="149" y1="48.6133" y2="48.6133"/><text fill="#000000" font-family="sans-serif" font-size="5.2" font-weight="bold" lengthAdjust="spacing" textLength="2.8" x="16.6" y="46.5082">1</text><text fill="#000000" font-family="sans-serif" font-size="5.2" lengthAdjust="spacing" textLength="98.8" x="21" y="46.5082">requests to view the exams list of a course</text><polygon fill="#181818" points="341.8,59.5297,345.8,61.1297,341.8,62.7297,343.4,61.1297" style="stroke:#181818;stroke-width:0.4000000000000001;"/><line style="stroke:#181818;stroke-width:0.4000000000000001;" x1="155.4" x2="344.2" y1="61.1297" y2="61.1297"/><text fill="#000000" font-family="sans-serif" font-size="5.2" font-weight="bold" lengthAdjust="spacing" textLength="2.8" x="158.2" y="59.0246">2</text><text fill="#000000" font-family="sans-serif" font-size="5.2" lengthAdjust="spacing" textLength="179.2" x="162.6" y="59.0246">new(courseRepository, evaluationExamRepository, formativeExamRepository)</text><polygon fill="#181818" points="341.8,84.0461,345.8,85.6461,341.8,87.2461,343.4,85.6461" style="stroke:#181818;stroke-width:0.4000000000000001;"/><line style="stroke:#181818;stroke-width:0.4000000000000001;" x1="155.4" x2="344.2" y1="85.6461" y2="85.6461"/><text fill="#000000" font-family="sans-serif" font-size="5.2" font-weight="bold" lengthAdjust="spacing" textLength="2.8" x="158.2" y="83.541">3</text><text fill="#000000" font-family="sans-serif" font-size="5.2" lengthAdjust="spacing" textLength="91.2" x="162.6" y="83.541">courses = listOpenInProgressCourses()</text><polygon fill="#181818" points="411.8,96.5625,415.8,98.1625,411.8,99.7625,413.4,98.1625" style="stroke:#181818;stroke-width:0.4000000000000001;"/><line style="stroke:#181818;stroke-width:0.4000000000000001;" x1="350.6" x2="414.2" y1="98.1625" y2="98.1625"/><text fill="#000000" font-family="sans-serif" font-size="5.2" font-weight="bold" lengthAdjust="spacing" textLength="2.8" x="353.4" y="96.0574">4</text><text fill="#000000" font-family="sans-serif" font-size="5.2" lengthAdjust="spacing" textLength="41.6" x="357.8" y="96.0574">listOpenCourses()</text><polygon fill="#181818" points="849.6,109.0789,853.6,110.6789,849.6,112.2789,851.2,110.6789" style="stroke:#181818;stroke-width:0.4000000000000001;"/><line style="stroke:#181818;stroke-width:0.4000000000000001;" x1="420.6" x2="852" y1="110.6789" y2="110.6789"/><text fill="#000000" font-family="sans-serif" font-size="5.2" font-weight="bold" lengthAdjust="spacing" textLength="2.8" x="423.4" y="108.5738">5</text><text fill="#000000" font-family="sans-serif" font-size="5.2" lengthAdjust="spacing" textLength="29.6" x="427.8" y="108.5738">findAllOpen()</text><path d="M388.8,128.6789 L418,128.6789 L418,132.3953 L414,136.3953 L388.8,136.3953 L388.8,128.6789 " fill="#EEEEEE" style="stroke:#000000;stroke-width:0.6000000000000001;"/><rect fill="none" height="32.7492" style="stroke:#000000;stroke-width:0.6000000000000001;" width="321.6" x="388.8" y="128.6789"/><text fill="#000000" font-family="sans-serif" font-size="5.2" font-weight="bold" lengthAdjust="spacing" textLength="11.2" x="394.8" y="134.6902">loop</text><text fill="#000000" font-family="sans-serif" font-size="4.4" font-weight="bold" lengthAdjust="spacing" textLength="38" x="424" y="134.227">[for each course]</text><polygon fill="#181818" points="644.4,144.1117,648.4,145.7117,644.4,147.3117,646,145.7117" style="stroke:#181818;stroke-width:0.4000000000000001;"/><line style="stroke:#181818;stroke-width:0.4000000000000001;" x1="420.6" x2="646.8" y1="145.7117" y2="145.7117"/><text fill="#000000" font-family="sans-serif" font-size="5.2" font-weight="bold" lengthAdjust="spacing" textLength="2.8" x="423.4" y="143.6066">6</text><text fill="#000000" font-family="sans-serif" font-size="5.2" lengthAdjust="spacing" textLength="33.6" x="427.8" y="143.6066">toDTO(course)</text><polygon fill="#181818" points="683.6,156.6281,687.6,158.2281,683.6,159.8281,685.2,158.2281" style="stroke:#181818;stroke-width:0.4000000000000001;"/><line style="stroke:#181818;stroke-width:0.4000000000000001;" x1="651.2" x2="686" y1="158.2281" y2="158.2281"/><text fill="#000000" font-family="sans-serif" font-size="5.2" font-weight="bold" lengthAdjust="spacing" textLength="2.8" x="654" y="156.123">7</text><text fill="#000000" font-family="sans-serif" font-size="5.2" lengthAdjust="spacing" textLength="9.2" x="658.4" y="156.123">new</text><polygon fill="#181818" points="411.8,171.9445,415.8,173.5445,411.8,175.1445,413.4,173.5445" style="stroke:#181818;stroke-width:0.4000000000000001;"/><line style="stroke:#181818;stroke-width:0.4000000000000001;" x1="350.6" x2="414.2" y1="173.5445" y2="173.5445"/><text fill="#000000" font-family="sans-serif" font-size="5.2" font-weight="bold" lengthAdjust="spacing" textLength="2.8" x="353.4" y="171.4395">8</text><text fill="#000000" font-family="sans-serif" font-size="5.2" lengthAdjust="spacing" textLength="54" x="357.8" y="171.4395">listInProgressCourses()</text><polygon fill="#181818" points="849.6,184.4609,853.6,186.0609,849.6,187.6609,851.2,186.0609" style="stroke:#181818;stroke-width:0.4000000000000001;"/><line style="stroke:#181818;stroke-width:0.4000000000000001;" x1="420.6" x2="852" y1="186.0609" y2="186.0609"/><text fill="#000000" font-family="sans-serif" font-size="5.2" font-weight="bold" lengthAdjust="spacing" textLength="2.8" x="423.4" y="183.9559">9</text><text fill="#000000" font-family="sans-serif" font-size="5.2" lengthAdjust="spacing" textLength="42" x="427.8" y="183.9559">findAllInProgress()</text><path d="M388.8,204.0609 L418,204.0609 L418,207.7773 L414,211.7773 L388.8,211.7773 L388.8,204.0609 " fill="#EEEEEE" style="stroke:#000000;stroke-width:0.6000000000000001;"/><rect fill="none" height="32.7492" style="stroke:#000000;stroke-width:0.6000000000000001;" width="321.6" x="388.8" y="204.0609"/><text fill="#000000" font-family="sans-serif" font-size="5.2" font-weight="bold" lengthAdjust="spacing" textLength="11.2" x="394.8" y="210.0723">loop</text><text fill="#000000" font-family="sans-serif" font-size="4.4" font-weight="bold" lengthAdjust="spacing" textLength="38" x="424" y="209.609">[for each course]</text><polygon fill="#181818" points="644.4,219.4938,648.4,221.0938,644.4,222.6938,646,221.0938" style="stroke:#181818;stroke-width:0.4000000000000001;"/><line style="stroke:#181818;stroke-width:0.4000000000000001;" x1="420.6" x2="646.8" y1="221.0938" y2="221.0938"/><text fill="#000000" font-family="sans-serif" font-size="5.2" font-weight="bold" lengthAdjust="spacing" textLength="5.6" x="423.4" y="218.9887">10</text><text fill="#000000" font-family="sans-serif" font-size="5.2" lengthAdjust="spacing" textLength="33.6" x="430.6" y="218.9887">toDTO(course)</text><polygon fill="#181818" points="683.6,232.0102,687.6,233.6102,683.6,235.2102,685.2,233.6102" style="stroke:#181818;stroke-width:0.4000000000000001;"/><line style="stroke:#181818;stroke-width:0.4000000000000001;" x1="651.2" x2="686" y1="233.6102" y2="233.6102"/><text fill="#000000" font-family="sans-serif" font-size="5.2" font-weight="bold" lengthAdjust="spacing" textLength="5.6" x="654" y="231.5051">11</text><text fill="#000000" font-family="sans-serif" font-size="5.2" lengthAdjust="spacing" textLength="9.2" x="661.2" y="231.5051">new</text><polygon fill="#181818" points="18.2,247.3266,14.2,248.9266,18.2,250.5266,16.6,248.9266" style="stroke:#181818;stroke-width:0.4000000000000001;"/><line style="stroke:#181818;stroke-width:0.4000000000000001;stroke-dasharray:2.0,2.0;" x1="15.8" x2="153" y1="248.9266" y2="248.9266"/><text fill="#000000" font-family="sans-serif" font-size="5.2" font-weight="bold" lengthAdjust="spacing" textLength="5.6" x="20.6" y="246.8215">12</text><text fill="#000000" font-family="sans-serif" font-size="5.2" lengthAdjust="spacing" textLength="120.8" x="27.8" y="246.8215">lists all the available courses and asks to select one</text><polygon fill="#181818" points="146.6,259.843,150.6,261.443,146.6,263.043,148.2,261.443" style="stroke:#181818;stroke-width:0.4000000000000001;"/><line style="stroke:#181818;stroke-width:0.4000000000000001;" x1="13.8" x2="149" y1="261.443" y2="261.443"/><text fill="#000000" font-family="sans-serif" font-size="5.2" font-weight="bold" lengthAdjust="spacing" textLength="5.6" x="16.6" y="259.3379">13</text><text fill="#000000" font-family="sans-serif" font-size="5.2" lengthAdjust="spacing" textLength="61.2" x="23.8" y="259.3379">selects the desired course</text><line style="stroke:#181818;stroke-width:0.4000000000000001;" x1="155.4" x2="172.2" y1="273.9594" y2="273.9594"/><line style="stroke:#181818;stroke-width:0.4000000000000001;" x1="172.2" x2="172.2" y1="273.9594" y2="279.1594"/><line style="stroke:#181818;stroke-width:0.4000000000000001;" x1="155.8" x2="172.2" y1="279.1594" y2="279.1594"/><polygon fill="#181818" points="159.8,277.5594,155.8,279.1594,159.8,280.7594,158.2,279.1594" style="stroke:#181818;stroke-width:0.4000000000000001;"/><text fill="#000000" font-family="sans-serif" font-size="5.2" font-weight="bold" lengthAdjust="spacing" textLength="5.6" x="158.2" y="271.8543">14</text><text fill="#000000" font-family="sans-serif" font-size="5.2" lengthAdjust="spacing" textLength="73.2" x="165.4" y="271.8543">course = select(courses, index)</text><polygon fill="#181818" points="341.8,290.0758,345.8,291.6758,341.8,293.2758,343.4,291.6758" style="stroke:#181818;stroke-width:0.4000000000000001;"/><line style="stroke:#181818;stroke-width:0.4000000000000001;" x1="155.4" x2="344.2" y1="291.6758" y2="291.6758"/><text fill="#000000" font-family="sans-serif" font-size="5.2" font-weight="bold" lengthAdjust="spacing" textLength="5.6" x="158.2" y="289.5707">15</text><text fill="#000000" font-family="sans-serif" font-size="5.2" lengthAdjust="spacing" textLength="127.6" x="165.4" y="289.5707">evaluationExams = listCourseEvaluationExams(course)</text><polygon fill="#181818" points="478.2,302.5922,482.2,304.1922,478.2,305.7922,479.8,304.1922" style="stroke:#181818;stroke-width:0.4000000000000001;"/><line style="stroke:#181818;stroke-width:0.4000000000000001;" x1="350.6" x2="480.6" y1="304.1922" y2="304.1922"/><text fill="#000000" font-family="sans-serif" font-size="5.2" font-weight="bold" lengthAdjust="spacing" textLength="5.6" x="353.4" y="302.0871">16</text><text fill="#000000" font-family="sans-serif" font-size="5.2" lengthAdjust="spacing" textLength="64.4" x="360.6" y="302.0871">listAllCourseExams(course)</text><polygon fill="#181818" points="912.4,315.1086,916.4,316.7086,912.4,318.3086,914,316.7086" style="stroke:#181818;stroke-width:0.4000000000000001;"/><line style="stroke:#181818;stroke-width:0.4000000000000001;" x1="487" x2="914.8" y1="316.7086" y2="316.7086"/><text fill="#000000" font-family="sans-serif" font-size="5.2" font-weight="bold" lengthAdjust="spacing" textLength="5.6" x="489.8" y="314.6035">17</text><text fill="#000000" font-family="sans-serif" font-size="5.2" lengthAdjust="spacing" textLength="65.6" x="497" y="314.6035">findAllCourseExams(course)</text><path d="M444.4,334.7086 L473.6,334.7086 L473.6,338.425 L469.6,342.425 L444.4,342.425 L444.4,334.7086 " fill="#EEEEEE" style="stroke:#000000;stroke-width:0.6000000000000001;"/><rect fill="none" height="32.7492" style="stroke:#000000;stroke-width:0.6000000000000001;" width="327.6" x="444.4" y="334.7086"/><text fill="#000000" font-family="sans-serif" font-size="5.2" font-weight="bold" lengthAdjust="spacing" textLength="11.2" x="450.4" y="340.7199">loop</text><text fill="#000000" font-family="sans-serif" font-size="4.4" font-weight="bold" lengthAdjust="spacing" textLength="34.4" x="479.6" y="340.2566">[for each exam]</text><polygon fill="#181818" points="610,350.1414,614,351.7414,610,353.3414,611.6,351.7414" style="stroke:#181818;stroke-width:0.4000000000000001;"/><line style="stroke:#181818;stroke-width:0.4000000000000001;" x1="487" x2="612.4" y1="351.7414" y2="351.7414"/><text fill="#000000" font-family="sans-serif" font-size="5.2" font-weight="bold" lengthAdjust="spacing" textLength="5.6" x="489.8" y="349.6363">18</text><text fill="#000000" font-family="sans-serif" font-size="5.2" lengthAdjust="spacing" textLength="30.8" x="497" y="349.6363">toDTO(exam)</text><polygon fill="#181818" points="734.4,362.6578,738.4,364.2578,734.4,365.8578,736,364.2578" style="stroke:#181818;stroke-width:0.4000000000000001;"/><line style="stroke:#181818;stroke-width:0.4000000000000001;" x1="616.8" x2="736.8" y1="364.2578" y2="364.2578"/><text fill="#000000" font-family="sans-serif" font-size="5.2" font-weight="bold" lengthAdjust="spacing" textLength="5.6" x="619.6" y="362.1527">19</text><text fill="#000000" font-family="sans-serif" font-size="5.2" lengthAdjust="spacing" textLength="9.2" x="626.8" y="362.1527">new</text><polygon fill="#181818" points="341.8,377.9742,345.8,379.5742,341.8,381.1742,343.4,379.5742" style="stroke:#181818;stroke-width:0.4000000000000001;"/><line style="stroke:#181818;stroke-width:0.4000000000000001;" x1="155.4" x2="344.2" y1="379.5742" y2="379.5742"/><text fill="#000000" font-family="sans-serif" font-size="5.2" font-weight="bold" lengthAdjust="spacing" textLength="5.6" x="158.2" y="377.4691">20</text><text fill="#000000" font-family="sans-serif" font-size="5.2" lengthAdjust="spacing" textLength="124" x="165.4" y="377.4691">formativeExams = listCourseFormativeExams(course)</text><polygon fill="#181818" points="554.8,390.4906,558.8,392.0906,554.8,393.6906,556.4,392.0906" style="stroke:#181818;stroke-width:0.4000000000000001;"/><line style="stroke:#181818;stroke-width:0.4000000000000001;" x1="350.6" x2="557.2" y1="392.0906" y2="392.0906"/><text fill="#000000" font-family="sans-serif" font-size="5.2" font-weight="bold" lengthAdjust="spacing" textLength="5.6" x="353.4" y="389.9855">21</text><text fill="#000000" font-family="sans-serif" font-size="5.2" lengthAdjust="spacing" textLength="64.4" x="360.6" y="389.9855">listAllCourseExams(course)</text><polygon fill="#181818" points="985.4,403.007,989.4,404.607,985.4,406.207,987,404.607" style="stroke:#181818;stroke-width:0.4000000000000001;"/><line style="stroke:#181818;stroke-width:0.4000000000000001;" x1="563.6" x2="987.8" y1="404.607" y2="404.607"/><text fill="#000000" font-family="sans-serif" font-size="5.2" font-weight="bold" lengthAdjust="spacing" textLength="5.6" x="566.4" y="402.502">22</text><text fill="#000000" font-family="sans-serif" font-size="5.2" lengthAdjust="spacing" textLength="65.6" x="573.6" y="402.502">findAllCourseExams(course)</text><path d="M521.6,422.607 L550.8,422.607 L550.8,426.3234 L546.8,430.3234 L521.6,430.3234 L521.6,422.607 " fill="#EEEEEE" style="stroke:#000000;stroke-width:0.6000000000000001;"/><rect fill="none" height="32.7492" style="stroke:#000000;stroke-width:0.6000000000000001;" width="310.8" x="521.6" y="422.607"/><text fill="#000000" font-family="sans-serif" font-size="5.2" font-weight="bold" lengthAdjust="spacing" textLength="11.2" x="527.6" y="428.6184">loop</text><text fill="#000000" font-family="sans-serif" font-size="4.4" font-weight="bold" lengthAdjust="spacing" textLength="34.4" x="556.8" y="428.1551">[for each exam]</text><polygon fill="#181818" points="610,438.0398,614,439.6398,610,441.2398,611.6,439.6398" style="stroke:#181818;stroke-width:0.4000000000000001;"/><line style="stroke:#181818;stroke-width:0.4000000000000001;" x1="563.6" x2="612.4" y1="439.6398" y2="439.6398"/><text fill="#000000" font-family="sans-serif" font-size="5.2" font-weight="bold" lengthAdjust="spacing" textLength="5.6" x="566.4" y="437.5348">23</text><text fill="#000000" font-family="sans-serif" font-size="5.2" lengthAdjust="spacing" textLength="30.8" x="573.6" y="437.5348">toDTO(exam)</text><polygon fill="#181818" points="795.4,450.5563,799.4,452.1563,795.4,453.7563,797,452.1563" style="stroke:#181818;stroke-width:0.4000000000000001;"/><line style="stroke:#181818;stroke-width:0.4000000000000001;" x1="616.8" x2="797.8" y1="452.1563" y2="452.1563"/><text fill="#000000" font-family="sans-serif" font-size="5.2" font-weight="bold" lengthAdjust="spacing" textLength="5.6" x="619.6" y="450.0512">24</text><text fill="#000000" font-family="sans-serif" font-size="5.2" lengthAdjust="spacing" textLength="9.2" x="626.8" y="450.0512">new</text><polygon fill="#181818" points="18.2,465.8727,14.2,467.4727,18.2,469.0727,16.6,467.4727" style="stroke:#181818;stroke-width:0.4000000000000001;"/><line style="stroke:#181818;stroke-width:0.4000000000000001;stroke-dasharray:2.0,2.0;" x1="15.8" x2="151" y1="467.4727" y2="467.4727"/><text fill="#000000" font-family="sans-serif" font-size="5.2" font-weight="bold" lengthAdjust="spacing" textLength="5.6" x="20.6" y="465.3676">25</text><text fill="#000000" font-family="sans-serif" font-size="5.2" lengthAdjust="spacing" textLength="102" x="27.8" y="465.3676">displays all the exams of the chosen course</text><!--SRC=[tLRBRjim4BppAnO-nO3x0qPge4Wb842018xJQq5BwuGeBQeaxIH_trrIianPKj8UwnD5xknpXhGyU5CTzbkqGiZ26mkp3ShY1UqCf8ED4BMqNXMgbfM7sPro_iOShCFiJUxTqssmUhg5w-lQeiFAIwzCjLfDmcvCvQtHkWboirdVaGDPrreLW_Y8PI-FQ8-gm8Zx-RZ-GK0Nz_gWx2Zr8RZZe7rmDWtEZTqJzeX3sFo3m0I9CMX1PgNPIpLIKomaB3-m_BwvRwgc5TjwCrrn2yZ60KcLhNsUs8jIUhcLb5vCOusrSOg8yXwIMMSFR6jFkmGv8T9yKcGsYKmIIu7v451iuCkAUBW4YxyFwBm3R-2ey1Ny2m8owq3J6C7iG48HIc72gwFqI41172OFJCKbLFXwLVIgNG2ELBE0tN2syou0-nKbfjz9p1ZFmTUGvdsDrMtrOCqpgSh5phkhlaCHbCCkc93B4tB8dYr4L0m3k8bBsAcg_AOrOn9ZFatI3HlQc9fh1RuWsXu2_JgtaSXBQZvngEdXFDXqlivmqJmKm9mBdGydvx53vltDrWbM9N1UuW8nr9pfbawrg4F-Vutgyv9fIQ4siMSEfDP1HV8ebPPRZIUoId8gtQyWDeSQ2z9NXUSEILcTDgE92yvATCfYEIJ5HXUCYASaYWXj6kKMG5F1jtageLIWhPIQToSzEtLyH51PnnaQ_jdJTGaCfY9h9vibj9b6zjcJ3R27hwumr2u2loejS_YunvliX633KCpVSQPnCCIOMEpaHPPSXkaGabjzR0Rj2FBFZo2OYhnjKFxv4UJz4UHJ8yZ_UGJv-0Zopun0N036HLigLslvtkasldxqyF57yMBeRrehkpy0]--></g></svg>