<?xml version="1.0" encoding="us-ascii" standalone="no"?><svg xmlns="http://www.w3.org/2000/svg" xmlns:xlink="http://www.w3.org/1999/xlink" contentStyleType="text/css" height="856px" preserveAspectRatio="none" style="width:2520px;height:856px;background:#FFFFFF;" version="1.1" viewBox="0 0 2520 856" width="2520px" zoomAndPan="magnify"><defs/><g><!--cluster <<aggregate>> Exam--><g id="cluster_&lt;&lt;aggregate&gt;&gt; Exam"><path d="M613,6.0137 L743,6.0137 A3.75,3.75 0 0 1 745.5,8.5137 L752.5,30.6348 L981,30.6348 A2.5,2.5 0 0 1 983.5,33.1348 L983.5,336.0137 A2.5,2.5 0 0 1 981,338.5137 L613,338.5137 A2.5,2.5 0 0 1 610.5,336.0137 L610.5,8.5137 A2.5,2.5 0 0 1 613,6.0137 " fill="none" style="stroke:#000000;stroke-width:1.5;"/><line style="stroke:#000000;stroke-width:1.5;" x1="610.5" x2="752.5" y1="30.6348" y2="30.6348"/><text fill="#000000" font-family="sans-serif" font-size="14" font-weight="bold" lengthAdjust="spacing" textLength="129" x="614.5" y="23.1211">&#171;aggregate&#187; Exam</text></g><!--cluster <<aggregate>> FormativeExam--><g id="cluster_&lt;&lt;aggregate&gt;&gt; FormativeExam"><path d="M1333,6.0137 L1534,6.0137 A3.75,3.75 0 0 1 1536.5,8.5137 L1543.5,30.6348 L1544,30.6348 A2.5,2.5 0 0 1 1546.5,33.1348 L1546.5,88.5137 A2.5,2.5 0 0 1 1544,91.0137 L1333,91.0137 A2.5,2.5 0 0 1 1330.5,88.5137 L1330.5,8.5137 A2.5,2.5 0 0 1 1333,6.0137 " fill="none" style="stroke:#000000;stroke-width:1.5;"/><line style="stroke:#000000;stroke-width:1.5;" x1="1330.5" x2="1543.5" y1="30.6348" y2="30.6348"/><text fill="#000000" font-family="sans-serif" font-size="14" font-weight="bold" lengthAdjust="spacing" textLength="200" x="1334.5" y="23.1211">&#171;aggregate&#187; FormativeExam</text></g><!--cluster <<aggregate>> EvaluationExam--><g id="cluster_&lt;&lt;aggregate&gt;&gt; EvaluationExam"><path d="M1010,6.0137 L1214,6.0137 A3.75,3.75 0 0 1 1216.5,8.5137 L1223.5,30.6348 L1304,30.6348 A2.5,2.5 0 0 1 1306.5,33.1348 L1306.5,228.5137 A2.5,2.5 0 0 1 1304,231.0137 L1010,231.0137 A2.5,2.5 0 0 1 1007.5,228.5137 L1007.5,8.5137 A2.5,2.5 0 0 1 1010,6.0137 " fill="none" style="stroke:#000000;stroke-width:1.5;"/><line style="stroke:#000000;stroke-width:1.5;" x1="1007.5" x2="1223.5" y1="30.6348" y2="30.6348"/><text fill="#000000" font-family="sans-serif" font-size="14" font-weight="bold" lengthAdjust="spacing" textLength="203" x="1011.5" y="23.1211">&#171;aggregate&#187; EvaluationExam</text></g><!--cluster <<agregate>> Question--><g id="cluster_&lt;&lt;agregate&gt;&gt; Question"><path d="M1573,6.0137 L1721,6.0137 A3.75,3.75 0 0 1 1723.5,8.5137 L1730.5,30.6348 L1731,30.6348 A2.5,2.5 0 0 1 1733.5,33.1348 L1733.5,88.5137 A2.5,2.5 0 0 1 1731,91.0137 L1573,91.0137 A2.5,2.5 0 0 1 1570.5,88.5137 L1570.5,8.5137 A2.5,2.5 0 0 1 1573,6.0137 " fill="none" style="stroke:#000000;stroke-width:1.5;"/><line style="stroke:#000000;stroke-width:1.5;" x1="1570.5" x2="1730.5" y1="30.6348" y2="30.6348"/><text fill="#000000" font-family="sans-serif" font-size="14" font-weight="bold" lengthAdjust="spacing" textLength="147" x="1574.5" y="23.1211">&#171;agregate&#187; Question</text></g><!--cluster <<aggregate>> Student--><g id="cluster_&lt;&lt;aggregate&gt;&gt; Student"><path d="M1760,6.0137 L1908,6.0137 A3.75,3.75 0 0 1 1910.5,8.5137 L1917.5,30.6348 L1918,30.6348 A2.5,2.5 0 0 1 1920.5,33.1348 L1920.5,88.5137 A2.5,2.5 0 0 1 1918,91.0137 L1760,91.0137 A2.5,2.5 0 0 1 1757.5,88.5137 L1757.5,8.5137 A2.5,2.5 0 0 1 1760,6.0137 " fill="none" style="stroke:#000000;stroke-width:1.5;"/><line style="stroke:#000000;stroke-width:1.5;" x1="1757.5" x2="1917.5" y1="30.6348" y2="30.6348"/><text fill="#000000" font-family="sans-serif" font-size="14" font-weight="bold" lengthAdjust="spacing" textLength="147" x="1761.5" y="23.1211">&#171;aggregate&#187; Student</text></g><!--cluster <<aggregate>> Course--><g id="cluster_&lt;&lt;aggregate&gt;&gt; Course"><path d="M1947,6.0137 L2091,6.0137 A3.75,3.75 0 0 1 2093.5,8.5137 L2100.5,30.6348 L2101,30.6348 A2.5,2.5 0 0 1 2103.5,33.1348 L2103.5,88.5137 A2.5,2.5 0 0 1 2101,91.0137 L1947,91.0137 A2.5,2.5 0 0 1 1944.5,88.5137 L1944.5,8.5137 A2.5,2.5 0 0 1 1947,6.0137 " fill="none" style="stroke:#000000;stroke-width:1.5;"/><line style="stroke:#000000;stroke-width:1.5;" x1="1944.5" x2="2100.5" y1="30.6348" y2="30.6348"/><text fill="#000000" font-family="sans-serif" font-size="14" font-weight="bold" lengthAdjust="spacing" textLength="143" x="1948.5" y="23.1211">&#171;aggregate&#187; Course</text></g><!--cluster <<aggregate>> ExamAnswer--><g id="cluster_&lt;&lt;aggregate&gt;&gt; ExamAnswer"><path d="M2130,6.0137 L2312,6.0137 A3.75,3.75 0 0 1 2314.5,8.5137 L2321.5,30.6348 L2322,30.6348 A2.5,2.5 0 0 1 2324.5,33.1348 L2324.5,88.5137 A2.5,2.5 0 0 1 2322,91.0137 L2130,91.0137 A2.5,2.5 0 0 1 2127.5,88.5137 L2127.5,8.5137 A2.5,2.5 0 0 1 2130,6.0137 " fill="none" style="stroke:#000000;stroke-width:1.5;"/><line style="stroke:#000000;stroke-width:1.5;" x1="2127.5" x2="2321.5" y1="30.6348" y2="30.6348"/><text fill="#000000" font-family="sans-serif" font-size="14" font-weight="bold" lengthAdjust="spacing" textLength="181" x="2131.5" y="23.1211">&#171;aggregate&#187; ExamAnswer</text></g><!--cluster <<aggregate>> Teacher--><g id="cluster_&lt;&lt;aggregate&gt;&gt; Teacher"><path d="M2351,6.0137 L2501,6.0137 A3.75,3.75 0 0 1 2503.5,8.5137 L2510.5,30.6348 L2511,30.6348 A2.5,2.5 0 0 1 2513.5,33.1348 L2513.5,88.5137 A2.5,2.5 0 0 1 2511,91.0137 L2351,91.0137 A2.5,2.5 0 0 1 2348.5,88.5137 L2348.5,8.5137 A2.5,2.5 0 0 1 2351,6.0137 " fill="none" style="stroke:#000000;stroke-width:1.5;"/><line style="stroke:#000000;stroke-width:1.5;" x1="2348.5" x2="2510.5" y1="30.6348" y2="30.6348"/><text fill="#000000" font-family="sans-serif" font-size="14" font-weight="bold" lengthAdjust="spacing" textLength="149" x="2352.5" y="23.1211">&#171;aggregate&#187; Teacher</text></g><!--class Exam--><g id="elem_Exam"><rect codeLine="10" fill="#F5F5DC" height="32" id="Exam" rx="2.5" ry="2.5" style="stroke:#181818;stroke-width:0.5;" width="66" x="648.5" y="43.0137"/><ellipse cx="663.5" cy="59.0137" fill="#ADD1B2" rx="11" ry="11" style="stroke:#181818;stroke-width:1.0;"/><path d="M662.3594,59.8105 L662.3594,62.3105 L666.6875,62.3105 L666.6875,61.3887 Q666.6875,60.7793 666.9219,60.5137 Q667.1719,60.248 667.5469,60.248 Q667.9219,60.248 668.1563,60.5137 Q668.3906,60.7793 668.3906,61.3887 L668.3906,64.0137 L660.3906,64.0137 Q659.7656,64.0137 659.5,63.7793 Q659.25,63.5449 659.25,63.1543 Q659.25,62.7793 659.5156,62.5449 Q659.7813,62.3105 660.3906,62.3105 L660.6563,62.3105 L660.6563,55.6543 L660.3906,55.6543 Q659.7656,55.6543 659.5,55.4199 Q659.25,55.1855 659.25,54.7949 Q659.25,54.4199 659.5,54.1855 Q659.7656,53.9512 660.3906,53.9512 L668.0156,53.9512 L668.0156,56.5449 Q668.0156,57.1543 667.7813,57.4199 Q667.5625,57.6699 667.1719,57.6699 Q666.7969,57.6699 666.5625,57.4199 Q666.3281,57.1543 666.3281,56.5449 L666.3281,55.6543 L662.3594,55.6543 L662.3594,58.1074 L663.8438,58.1074 Q663.8438,57.4512 663.9688,57.2637 Q664.2344,56.8574 664.7031,56.8574 Q665.0781,56.8574 665.3125,57.123 Q665.5469,57.373 665.5469,57.9824 L665.5469,59.9512 Q665.5469,60.498 665.4219,60.6855 Q665.1563,61.0762 664.7031,61.0762 Q664.2344,61.0762 663.9688,60.6699 Q663.8438,60.4824 663.8438,59.8105 L662.3594,59.8105 Z " fill="#000000"/><text fill="#000000" font-family="sans-serif" font-size="14" lengthAdjust="spacing" textLength="34" x="677.5" y="64.8105">Exam</text></g><!--class Section--><g id="elem_Section"><rect codeLine="11" fill="#F5F5DC" height="32" id="Section" rx="2.5" ry="2.5" style="stroke:#181818;stroke-width:0.5;" width="79" x="750" y="43.0137"/><ellipse cx="765" cy="59.0137" fill="#ADD1B2" rx="11" ry="11" style="stroke:#181818;stroke-width:1.0;"/><path d="M763.8594,59.8105 L763.8594,62.3105 L768.1875,62.3105 L768.1875,61.3887 Q768.1875,60.7793 768.4219,60.5137 Q768.6719,60.248 769.0469,60.248 Q769.4219,60.248 769.6563,60.5137 Q769.8906,60.7793 769.8906,61.3887 L769.8906,64.0137 L761.8906,64.0137 Q761.2656,64.0137 761,63.7793 Q760.75,63.5449 760.75,63.1543 Q760.75,62.7793 761.0156,62.5449 Q761.2813,62.3105 761.8906,62.3105 L762.1563,62.3105 L762.1563,55.6543 L761.8906,55.6543 Q761.2656,55.6543 761,55.4199 Q760.75,55.1855 760.75,54.7949 Q760.75,54.4199 761,54.1855 Q761.2656,53.9512 761.8906,53.9512 L769.5156,53.9512 L769.5156,56.5449 Q769.5156,57.1543 769.2813,57.4199 Q769.0625,57.6699 768.6719,57.6699 Q768.2969,57.6699 768.0625,57.4199 Q767.8281,57.1543 767.8281,56.5449 L767.8281,55.6543 L763.8594,55.6543 L763.8594,58.1074 L765.3438,58.1074 Q765.3438,57.4512 765.4688,57.2637 Q765.7344,56.8574 766.2031,56.8574 Q766.5781,56.8574 766.8125,57.123 Q767.0469,57.373 767.0469,57.9824 L767.0469,59.9512 Q767.0469,60.498 766.9219,60.6855 Q766.6563,61.0762 766.2031,61.0762 Q765.7344,61.0762 765.4688,60.6699 Q765.3438,60.4824 765.3438,59.8105 L763.8594,59.8105 Z " fill="#000000"/><text fill="#000000" font-family="sans-serif" font-size="14" lengthAdjust="spacing" textLength="47" x="779" y="64.8105">Section</text></g><!--class Description--><g id="elem_Description"><rect codeLine="12" fill="#F5F5DC" height="32" id="Description" rx="2.5" ry="2.5" style="stroke:#181818;stroke-width:0.5;" width="103" x="864" y="43.0137"/><ellipse cx="879" cy="59.0137" fill="#ADD1B2" rx="11" ry="11" style="stroke:#181818;stroke-width:1.0;"/><path d="M881.7656,54.8887 Q881.9219,54.6699 882.1094,54.5605 Q882.2969,54.4512 882.5156,54.4512 Q882.8906,54.4512 883.125,54.7168 Q883.3594,54.9668 883.3594,55.5762 L883.3594,57.0293 Q883.3594,57.6387 883.125,57.9043 Q882.8906,58.1699 882.5156,58.1699 Q882.1719,58.1699 881.9688,57.9668 Q881.7656,57.7793 881.6563,57.2637 Q881.6094,56.9043 881.4219,56.7168 Q881.0938,56.3418 880.4844,56.123 Q879.875,55.9043 879.25,55.9043 Q878.4844,55.9043 877.8438,56.2324 Q877.2188,56.5605 876.7188,57.3105 Q876.2344,58.0605 876.2344,59.0918 L876.2344,60.1855 Q876.2344,61.4199 877.125,62.248 Q878.0156,63.0605 879.6094,63.0605 Q880.5469,63.0605 881.2031,62.8105 Q881.5938,62.6543 882.0156,62.2168 Q882.2813,61.9512 882.4219,61.873 Q882.5781,61.7949 882.7813,61.7949 Q883.1094,61.7949 883.3594,62.0605 Q883.625,62.3105 883.625,62.6543 Q883.625,62.998 883.2813,63.4043 Q882.7813,63.9824 881.9844,64.3105 Q880.9063,64.7637 879.6094,64.7637 Q878.0938,64.7637 876.8906,64.1387 Q875.9063,63.6387 875.2188,62.5762 Q874.5313,61.498 874.5313,60.2168 L874.5313,59.0605 Q874.5313,57.7324 875.1406,56.5918 Q875.7656,55.4355 876.8594,54.8262 Q877.9531,54.2012 879.1875,54.2012 Q879.9219,54.2012 880.5625,54.373 Q881.2188,54.5293 881.7656,54.8887 Z " fill="#000000"/><text fill="#000000" font-family="sans-serif" font-size="14" lengthAdjust="spacing" textLength="71" x="893" y="64.8105">Description</text></g><!--class SectionQuestion--><g id="elem_SectionQuestion"><rect codeLine="13" fill="#F5F5DC" height="32" id="SectionQuestion" rx="2.5" ry="2.5" style="stroke:#181818;stroke-width:0.5;" width="136" x="626.5" y="183.0137"/><ellipse cx="641.5" cy="199.0137" fill="#ADD1B2" rx="11" ry="11" style="stroke:#181818;stroke-width:1.0;"/><path d="M640.3594,199.8105 L640.3594,202.3105 L644.6875,202.3105 L644.6875,201.3887 Q644.6875,200.7793 644.9219,200.5137 Q645.1719,200.248 645.5469,200.248 Q645.9219,200.248 646.1563,200.5137 Q646.3906,200.7793 646.3906,201.3887 L646.3906,204.0137 L638.3906,204.0137 Q637.7656,204.0137 637.5,203.7793 Q637.25,203.5449 637.25,203.1543 Q637.25,202.7793 637.5156,202.5449 Q637.7813,202.3105 638.3906,202.3105 L638.6563,202.3105 L638.6563,195.6543 L638.3906,195.6543 Q637.7656,195.6543 637.5,195.4199 Q637.25,195.1855 637.25,194.7949 Q637.25,194.4199 637.5,194.1855 Q637.7656,193.9512 638.3906,193.9512 L646.0156,193.9512 L646.0156,196.5449 Q646.0156,197.1543 645.7813,197.4199 Q645.5625,197.6699 645.1719,197.6699 Q644.7969,197.6699 644.5625,197.4199 Q644.3281,197.1543 644.3281,196.5449 L644.3281,195.6543 L640.3594,195.6543 L640.3594,198.1074 L641.8438,198.1074 Q641.8438,197.4512 641.9688,197.2637 Q642.2344,196.8574 642.7031,196.8574 Q643.0781,196.8574 643.3125,197.123 Q643.5469,197.373 643.5469,197.9824 L643.5469,199.9512 Q643.5469,200.498 643.4219,200.6855 Q643.1563,201.0762 642.7031,201.0762 Q642.2344,201.0762 641.9688,200.6699 Q641.8438,200.4824 641.8438,199.8105 L640.3594,199.8105 Z " fill="#000000"/><text fill="#000000" font-family="sans-serif" font-size="14" lengthAdjust="spacing" textLength="104" x="655.5" y="204.8105">SectionQuestion</text></g><!--class Score--><g id="elem_Score"><rect codeLine="14" fill="#F5F5DC" height="32" id="Score" rx="2.5" ry="2.5" style="stroke:#181818;stroke-width:0.5;" width="69" x="798" y="183.0137"/><ellipse cx="813" cy="199.0137" fill="#ADD1B2" rx="11" ry="11" style="stroke:#181818;stroke-width:1.0;"/><path d="M815.7656,194.8887 Q815.9219,194.6699 816.1094,194.5605 Q816.2969,194.4512 816.5156,194.4512 Q816.8906,194.4512 817.125,194.7168 Q817.3594,194.9668 817.3594,195.5762 L817.3594,197.0293 Q817.3594,197.6387 817.125,197.9043 Q816.8906,198.1699 816.5156,198.1699 Q816.1719,198.1699 815.9688,197.9668 Q815.7656,197.7793 815.6563,197.2637 Q815.6094,196.9043 815.4219,196.7168 Q815.0938,196.3418 814.4844,196.123 Q813.875,195.9043 813.25,195.9043 Q812.4844,195.9043 811.8438,196.2324 Q811.2188,196.5605 810.7188,197.3105 Q810.2344,198.0605 810.2344,199.0918 L810.2344,200.1855 Q810.2344,201.4199 811.125,202.248 Q812.0156,203.0605 813.6094,203.0605 Q814.5469,203.0605 815.2031,202.8105 Q815.5938,202.6543 816.0156,202.2168 Q816.2813,201.9512 816.4219,201.873 Q816.5781,201.7949 816.7813,201.7949 Q817.1094,201.7949 817.3594,202.0605 Q817.625,202.3105 817.625,202.6543 Q817.625,202.998 817.2813,203.4043 Q816.7813,203.9824 815.9844,204.3105 Q814.9063,204.7637 813.6094,204.7637 Q812.0938,204.7637 810.8906,204.1387 Q809.9063,203.6387 809.2188,202.5762 Q808.5313,201.498 808.5313,200.2168 L808.5313,199.0605 Q808.5313,197.7324 809.1406,196.5918 Q809.7656,195.4355 810.8594,194.8262 Q811.9531,194.2012 813.1875,194.2012 Q813.9219,194.2012 814.5625,194.373 Q815.2188,194.5293 815.7656,194.8887 Z " fill="#000000"/><text fill="#000000" font-family="sans-serif" font-size="14" lengthAdjust="spacing" textLength="37" x="827" y="204.8105">Score</text></g><!--class State--><g id="elem_State"><rect codeLine="15" fill="#F5F5DC" height="32" id="State" rx="2.5" ry="2.5" style="stroke:#181818;stroke-width:0.5;" width="65" x="902" y="183.0137"/><ellipse cx="917" cy="199.0137" fill="#ADD1B2" rx="11" ry="11" style="stroke:#181818;stroke-width:1.0;"/><path d="M919.7656,194.8887 Q919.9219,194.6699 920.1094,194.5605 Q920.2969,194.4512 920.5156,194.4512 Q920.8906,194.4512 921.125,194.7168 Q921.3594,194.9668 921.3594,195.5762 L921.3594,197.0293 Q921.3594,197.6387 921.125,197.9043 Q920.8906,198.1699 920.5156,198.1699 Q920.1719,198.1699 919.9688,197.9668 Q919.7656,197.7793 919.6563,197.2637 Q919.6094,196.9043 919.4219,196.7168 Q919.0938,196.3418 918.4844,196.123 Q917.875,195.9043 917.25,195.9043 Q916.4844,195.9043 915.8438,196.2324 Q915.2188,196.5605 914.7188,197.3105 Q914.2344,198.0605 914.2344,199.0918 L914.2344,200.1855 Q914.2344,201.4199 915.125,202.248 Q916.0156,203.0605 917.6094,203.0605 Q918.5469,203.0605 919.2031,202.8105 Q919.5938,202.6543 920.0156,202.2168 Q920.2813,201.9512 920.4219,201.873 Q920.5781,201.7949 920.7813,201.7949 Q921.1094,201.7949 921.3594,202.0605 Q921.625,202.3105 921.625,202.6543 Q921.625,202.998 921.2813,203.4043 Q920.7813,203.9824 919.9844,204.3105 Q918.9063,204.7637 917.6094,204.7637 Q916.0938,204.7637 914.8906,204.1387 Q913.9063,203.6387 913.2188,202.5762 Q912.5313,201.498 912.5313,200.2168 L912.5313,199.0605 Q912.5313,197.7324 913.1406,196.5918 Q913.7656,195.4355 914.8594,194.8262 Q915.9531,194.2012 917.1875,194.2012 Q917.9219,194.2012 918.5625,194.373 Q919.2188,194.5293 919.7656,194.8887 Z " fill="#000000"/><text fill="#000000" font-family="sans-serif" font-size="14" lengthAdjust="spacing" textLength="33" x="931" y="204.8105">State</text></g><!--class SectionName--><g id="elem_SectionName"><rect codeLine="16" fill="#F5F5DC" height="32" id="SectionName" rx="2.5" ry="2.5" style="stroke:#181818;stroke-width:0.5;" width="115" x="637" y="290.5137"/><ellipse cx="652" cy="306.5137" fill="#ADD1B2" rx="11" ry="11" style="stroke:#181818;stroke-width:1.0;"/><path d="M654.7656,302.3887 Q654.9219,302.1699 655.1094,302.0605 Q655.2969,301.9512 655.5156,301.9512 Q655.8906,301.9512 656.125,302.2168 Q656.3594,302.4668 656.3594,303.0762 L656.3594,304.5293 Q656.3594,305.1387 656.125,305.4043 Q655.8906,305.6699 655.5156,305.6699 Q655.1719,305.6699 654.9688,305.4668 Q654.7656,305.2793 654.6563,304.7637 Q654.6094,304.4043 654.4219,304.2168 Q654.0938,303.8418 653.4844,303.623 Q652.875,303.4043 652.25,303.4043 Q651.4844,303.4043 650.8438,303.7324 Q650.2188,304.0605 649.7188,304.8105 Q649.2344,305.5605 649.2344,306.5918 L649.2344,307.6855 Q649.2344,308.9199 650.125,309.748 Q651.0156,310.5605 652.6094,310.5605 Q653.5469,310.5605 654.2031,310.3105 Q654.5938,310.1543 655.0156,309.7168 Q655.2813,309.4512 655.4219,309.373 Q655.5781,309.2949 655.7813,309.2949 Q656.1094,309.2949 656.3594,309.5605 Q656.625,309.8105 656.625,310.1543 Q656.625,310.498 656.2813,310.9043 Q655.7813,311.4824 654.9844,311.8105 Q653.9063,312.2637 652.6094,312.2637 Q651.0938,312.2637 649.8906,311.6387 Q648.9063,311.1387 648.2188,310.0762 Q647.5313,308.998 647.5313,307.7168 L647.5313,306.5605 Q647.5313,305.2324 648.1406,304.0918 Q648.7656,302.9355 649.8594,302.3262 Q650.9531,301.7012 652.1875,301.7012 Q652.9219,301.7012 653.5625,301.873 Q654.2188,302.0293 654.7656,302.3887 Z " fill="#000000"/><text fill="#000000" font-family="sans-serif" font-size="14" lengthAdjust="spacing" textLength="83" x="666" y="312.3105">SectionName</text></g><!--class FormativeExam--><g id="elem_FormativeExam"><rect codeLine="21" fill="#F5F5DC" height="32" id="FormativeExam" rx="2.5" ry="2.5" style="stroke:#181818;stroke-width:0.5;" width="129" x="1374" y="43.0137"/><ellipse cx="1389" cy="59.0137" fill="#ADD1B2" rx="11" ry="11" style="stroke:#181818;stroke-width:1.0;"/><path d="M1387.8594,59.8105 L1387.8594,62.3105 L1392.1875,62.3105 L1392.1875,61.3887 Q1392.1875,60.7793 1392.4219,60.5137 Q1392.6719,60.248 1393.0469,60.248 Q1393.4219,60.248 1393.6563,60.5137 Q1393.8906,60.7793 1393.8906,61.3887 L1393.8906,64.0137 L1385.8906,64.0137 Q1385.2656,64.0137 1385,63.7793 Q1384.75,63.5449 1384.75,63.1543 Q1384.75,62.7793 1385.0156,62.5449 Q1385.2813,62.3105 1385.8906,62.3105 L1386.1563,62.3105 L1386.1563,55.6543 L1385.8906,55.6543 Q1385.2656,55.6543 1385,55.4199 Q1384.75,55.1855 1384.75,54.7949 Q1384.75,54.4199 1385,54.1855 Q1385.2656,53.9512 1385.8906,53.9512 L1393.5156,53.9512 L1393.5156,56.5449 Q1393.5156,57.1543 1393.2813,57.4199 Q1393.0625,57.6699 1392.6719,57.6699 Q1392.2969,57.6699 1392.0625,57.4199 Q1391.8281,57.1543 1391.8281,56.5449 L1391.8281,55.6543 L1387.8594,55.6543 L1387.8594,58.1074 L1389.3438,58.1074 Q1389.3438,57.4512 1389.4688,57.2637 Q1389.7344,56.8574 1390.2031,56.8574 Q1390.5781,56.8574 1390.8125,57.123 Q1391.0469,57.373 1391.0469,57.9824 L1391.0469,59.9512 Q1391.0469,60.498 1390.9219,60.6855 Q1390.6563,61.0762 1390.2031,61.0762 Q1389.7344,61.0762 1389.4688,60.6699 Q1389.3438,60.4824 1389.3438,59.8105 L1387.8594,59.8105 Z " fill="#000000"/><text fill="#000000" font-family="sans-serif" font-size="14" lengthAdjust="spacing" textLength="97" x="1403" y="64.8105">FormativeExam</text></g><!--class EvaluationExam--><g id="elem_EvaluationExam"><rect codeLine="28" fill="#F5F5DC" height="32" id="EvaluationExam" rx="2.5" ry="2.5" style="stroke:#181818;stroke-width:0.5;" width="132" x="1023.5" y="43.0137"/><ellipse cx="1038.5" cy="59.0137" fill="#ADD1B2" rx="11" ry="11" style="stroke:#181818;stroke-width:1.0;"/><path d="M1037.3594,59.8105 L1037.3594,62.3105 L1041.6875,62.3105 L1041.6875,61.3887 Q1041.6875,60.7793 1041.9219,60.5137 Q1042.1719,60.248 1042.5469,60.248 Q1042.9219,60.248 1043.1563,60.5137 Q1043.3906,60.7793 1043.3906,61.3887 L1043.3906,64.0137 L1035.3906,64.0137 Q1034.7656,64.0137 1034.5,63.7793 Q1034.25,63.5449 1034.25,63.1543 Q1034.25,62.7793 1034.5156,62.5449 Q1034.7813,62.3105 1035.3906,62.3105 L1035.6563,62.3105 L1035.6563,55.6543 L1035.3906,55.6543 Q1034.7656,55.6543 1034.5,55.4199 Q1034.25,55.1855 1034.25,54.7949 Q1034.25,54.4199 1034.5,54.1855 Q1034.7656,53.9512 1035.3906,53.9512 L1043.0156,53.9512 L1043.0156,56.5449 Q1043.0156,57.1543 1042.7813,57.4199 Q1042.5625,57.6699 1042.1719,57.6699 Q1041.7969,57.6699 1041.5625,57.4199 Q1041.3281,57.1543 1041.3281,56.5449 L1041.3281,55.6543 L1037.3594,55.6543 L1037.3594,58.1074 L1038.8438,58.1074 Q1038.8438,57.4512 1038.9688,57.2637 Q1039.2344,56.8574 1039.7031,56.8574 Q1040.0781,56.8574 1040.3125,57.123 Q1040.5469,57.373 1040.5469,57.9824 L1040.5469,59.9512 Q1040.5469,60.498 1040.4219,60.6855 Q1040.1563,61.0762 1039.7031,61.0762 Q1039.2344,61.0762 1038.9688,60.6699 Q1038.8438,60.4824 1038.8438,59.8105 L1037.3594,59.8105 Z " fill="#000000"/><text fill="#000000" font-family="sans-serif" font-size="14" lengthAdjust="spacing" textLength="100" x="1052.5" y="64.8105">EvaluationExam</text></g><!--class Time--><g id="elem_Time"><rect codeLine="30" fill="#F5F5DC" height="32" id="Time" rx="2.5" ry="2.5" style="stroke:#181818;stroke-width:0.5;" width="63" x="1191" y="43.0137"/><ellipse cx="1206" cy="59.0137" fill="#ADD1B2" rx="11" ry="11" style="stroke:#181818;stroke-width:1.0;"/><path d="M1208.7656,54.8887 Q1208.9219,54.6699 1209.1094,54.5605 Q1209.2969,54.4512 1209.5156,54.4512 Q1209.8906,54.4512 1210.125,54.7168 Q1210.3594,54.9668 1210.3594,55.5762 L1210.3594,57.0293 Q1210.3594,57.6387 1210.125,57.9043 Q1209.8906,58.1699 1209.5156,58.1699 Q1209.1719,58.1699 1208.9688,57.9668 Q1208.7656,57.7793 1208.6563,57.2637 Q1208.6094,56.9043 1208.4219,56.7168 Q1208.0938,56.3418 1207.4844,56.123 Q1206.875,55.9043 1206.25,55.9043 Q1205.4844,55.9043 1204.8438,56.2324 Q1204.2188,56.5605 1203.7188,57.3105 Q1203.2344,58.0605 1203.2344,59.0918 L1203.2344,60.1855 Q1203.2344,61.4199 1204.125,62.248 Q1205.0156,63.0605 1206.6094,63.0605 Q1207.5469,63.0605 1208.2031,62.8105 Q1208.5938,62.6543 1209.0156,62.2168 Q1209.2813,61.9512 1209.4219,61.873 Q1209.5781,61.7949 1209.7813,61.7949 Q1210.1094,61.7949 1210.3594,62.0605 Q1210.625,62.3105 1210.625,62.6543 Q1210.625,62.998 1210.2813,63.4043 Q1209.7813,63.9824 1208.9844,64.3105 Q1207.9063,64.7637 1206.6094,64.7637 Q1205.0938,64.7637 1203.8906,64.1387 Q1202.9063,63.6387 1202.2188,62.5762 Q1201.5313,61.498 1201.5313,60.2168 L1201.5313,59.0605 Q1201.5313,57.7324 1202.1406,56.5918 Q1202.7656,55.4355 1203.8594,54.8262 Q1204.9531,54.2012 1206.1875,54.2012 Q1206.9219,54.2012 1207.5625,54.373 Q1208.2188,54.5293 1208.7656,54.8887 Z " fill="#000000"/><text fill="#000000" font-family="sans-serif" font-size="14" lengthAdjust="spacing" textLength="31" x="1220" y="64.8105">Time</text></g><!--class FeedbackType--><g id="elem_FeedbackType"><rect codeLine="31" fill="#F5F5DC" height="32" id="FeedbackType" rx="2.5" ry="2.5" style="stroke:#181818;stroke-width:0.5;" width="127" x="1024" y="183.0137"/><ellipse cx="1039" cy="199.0137" fill="#ADD1B2" rx="11" ry="11" style="stroke:#181818;stroke-width:1.0;"/><path d="M1041.7656,194.8887 Q1041.9219,194.6699 1042.1094,194.5605 Q1042.2969,194.4512 1042.5156,194.4512 Q1042.8906,194.4512 1043.125,194.7168 Q1043.3594,194.9668 1043.3594,195.5762 L1043.3594,197.0293 Q1043.3594,197.6387 1043.125,197.9043 Q1042.8906,198.1699 1042.5156,198.1699 Q1042.1719,198.1699 1041.9688,197.9668 Q1041.7656,197.7793 1041.6563,197.2637 Q1041.6094,196.9043 1041.4219,196.7168 Q1041.0938,196.3418 1040.4844,196.123 Q1039.875,195.9043 1039.25,195.9043 Q1038.4844,195.9043 1037.8438,196.2324 Q1037.2188,196.5605 1036.7188,197.3105 Q1036.2344,198.0605 1036.2344,199.0918 L1036.2344,200.1855 Q1036.2344,201.4199 1037.125,202.248 Q1038.0156,203.0605 1039.6094,203.0605 Q1040.5469,203.0605 1041.2031,202.8105 Q1041.5938,202.6543 1042.0156,202.2168 Q1042.2813,201.9512 1042.4219,201.873 Q1042.5781,201.7949 1042.7813,201.7949 Q1043.1094,201.7949 1043.3594,202.0605 Q1043.625,202.3105 1043.625,202.6543 Q1043.625,202.998 1043.2813,203.4043 Q1042.7813,203.9824 1041.9844,204.3105 Q1040.9063,204.7637 1039.6094,204.7637 Q1038.0938,204.7637 1036.8906,204.1387 Q1035.9063,203.6387 1035.2188,202.5762 Q1034.5313,201.498 1034.5313,200.2168 L1034.5313,199.0605 Q1034.5313,197.7324 1035.1406,196.5918 Q1035.7656,195.4355 1036.8594,194.8262 Q1037.9531,194.2012 1039.1875,194.2012 Q1039.9219,194.2012 1040.5625,194.373 Q1041.2188,194.5293 1041.7656,194.8887 Z " fill="#000000"/><text fill="#000000" font-family="sans-serif" font-size="14" lengthAdjust="spacing" textLength="95" x="1053" y="204.8105">FeedbackType</text></g><!--class GradeType--><g id="elem_GradeType"><rect codeLine="32" fill="#F5F5DC" height="32" id="GradeType" rx="2.5" ry="2.5" style="stroke:#181818;stroke-width:0.5;" width="104" x="1186.5" y="183.0137"/><ellipse cx="1201.5" cy="199.0137" fill="#ADD1B2" rx="11" ry="11" style="stroke:#181818;stroke-width:1.0;"/><path d="M1204.2656,194.8887 Q1204.4219,194.6699 1204.6094,194.5605 Q1204.7969,194.4512 1205.0156,194.4512 Q1205.3906,194.4512 1205.625,194.7168 Q1205.8594,194.9668 1205.8594,195.5762 L1205.8594,197.0293 Q1205.8594,197.6387 1205.625,197.9043 Q1205.3906,198.1699 1205.0156,198.1699 Q1204.6719,198.1699 1204.4688,197.9668 Q1204.2656,197.7793 1204.1563,197.2637 Q1204.1094,196.9043 1203.9219,196.7168 Q1203.5938,196.3418 1202.9844,196.123 Q1202.375,195.9043 1201.75,195.9043 Q1200.9844,195.9043 1200.3438,196.2324 Q1199.7188,196.5605 1199.2188,197.3105 Q1198.7344,198.0605 1198.7344,199.0918 L1198.7344,200.1855 Q1198.7344,201.4199 1199.625,202.248 Q1200.5156,203.0605 1202.1094,203.0605 Q1203.0469,203.0605 1203.7031,202.8105 Q1204.0938,202.6543 1204.5156,202.2168 Q1204.7813,201.9512 1204.9219,201.873 Q1205.0781,201.7949 1205.2813,201.7949 Q1205.6094,201.7949 1205.8594,202.0605 Q1206.125,202.3105 1206.125,202.6543 Q1206.125,202.998 1205.7813,203.4043 Q1205.2813,203.9824 1204.4844,204.3105 Q1203.4063,204.7637 1202.1094,204.7637 Q1200.5938,204.7637 1199.3906,204.1387 Q1198.4063,203.6387 1197.7188,202.5762 Q1197.0313,201.498 1197.0313,200.2168 L1197.0313,199.0605 Q1197.0313,197.7324 1197.6406,196.5918 Q1198.2656,195.4355 1199.3594,194.8262 Q1200.4531,194.2012 1201.6875,194.2012 Q1202.4219,194.2012 1203.0625,194.373 Q1203.7188,194.5293 1204.2656,194.8887 Z " fill="#000000"/><text fill="#000000" font-family="sans-serif" font-size="14" lengthAdjust="spacing" textLength="72" x="1215.5" y="204.8105">GradeType</text></g><!--class Question--><g id="elem_Question"><rect codeLine="39" fill="#F5F5DC" height="32" id="Question" rx="2.5" ry="2.5" style="stroke:#181818;stroke-width:0.5;" width="89" x="1607" y="43.0137"/><ellipse cx="1622" cy="59.0137" fill="#ADD1B2" rx="11" ry="11" style="stroke:#181818;stroke-width:1.0;"/><path d="M1620.8594,59.8105 L1620.8594,62.3105 L1625.1875,62.3105 L1625.1875,61.3887 Q1625.1875,60.7793 1625.4219,60.5137 Q1625.6719,60.248 1626.0469,60.248 Q1626.4219,60.248 1626.6563,60.5137 Q1626.8906,60.7793 1626.8906,61.3887 L1626.8906,64.0137 L1618.8906,64.0137 Q1618.2656,64.0137 1618,63.7793 Q1617.75,63.5449 1617.75,63.1543 Q1617.75,62.7793 1618.0156,62.5449 Q1618.2813,62.3105 1618.8906,62.3105 L1619.1563,62.3105 L1619.1563,55.6543 L1618.8906,55.6543 Q1618.2656,55.6543 1618,55.4199 Q1617.75,55.1855 1617.75,54.7949 Q1617.75,54.4199 1618,54.1855 Q1618.2656,53.9512 1618.8906,53.9512 L1626.5156,53.9512 L1626.5156,56.5449 Q1626.5156,57.1543 1626.2813,57.4199 Q1626.0625,57.6699 1625.6719,57.6699 Q1625.2969,57.6699 1625.0625,57.4199 Q1624.8281,57.1543 1624.8281,56.5449 L1624.8281,55.6543 L1620.8594,55.6543 L1620.8594,58.1074 L1622.3438,58.1074 Q1622.3438,57.4512 1622.4688,57.2637 Q1622.7344,56.8574 1623.2031,56.8574 Q1623.5781,56.8574 1623.8125,57.123 Q1624.0469,57.373 1624.0469,57.9824 L1624.0469,59.9512 Q1624.0469,60.498 1623.9219,60.6855 Q1623.6563,61.0762 1623.2031,61.0762 Q1622.7344,61.0762 1622.4688,60.6699 Q1622.3438,60.4824 1622.3438,59.8105 L1620.8594,59.8105 Z " fill="#000000"/><text fill="#000000" font-family="sans-serif" font-size="14" lengthAdjust="spacing" textLength="57" x="1636" y="64.8105">Question</text></g><!--class Student--><g id="elem_Student"><rect codeLine="43" fill="#F5F5DC" height="32" id="Student" rx="2.5" ry="2.5" style="stroke:#181818;stroke-width:0.5;" width="81" x="1798" y="43.0137"/><ellipse cx="1813" cy="59.0137" fill="#ADD1B2" rx="11" ry="11" style="stroke:#181818;stroke-width:1.0;"/><path d="M1811.8594,59.8105 L1811.8594,62.3105 L1816.1875,62.3105 L1816.1875,61.3887 Q1816.1875,60.7793 1816.4219,60.5137 Q1816.6719,60.248 1817.0469,60.248 Q1817.4219,60.248 1817.6563,60.5137 Q1817.8906,60.7793 1817.8906,61.3887 L1817.8906,64.0137 L1809.8906,64.0137 Q1809.2656,64.0137 1809,63.7793 Q1808.75,63.5449 1808.75,63.1543 Q1808.75,62.7793 1809.0156,62.5449 Q1809.2813,62.3105 1809.8906,62.3105 L1810.1563,62.3105 L1810.1563,55.6543 L1809.8906,55.6543 Q1809.2656,55.6543 1809,55.4199 Q1808.75,55.1855 1808.75,54.7949 Q1808.75,54.4199 1809,54.1855 Q1809.2656,53.9512 1809.8906,53.9512 L1817.5156,53.9512 L1817.5156,56.5449 Q1817.5156,57.1543 1817.2813,57.4199 Q1817.0625,57.6699 1816.6719,57.6699 Q1816.2969,57.6699 1816.0625,57.4199 Q1815.8281,57.1543 1815.8281,56.5449 L1815.8281,55.6543 L1811.8594,55.6543 L1811.8594,58.1074 L1813.3438,58.1074 Q1813.3438,57.4512 1813.4688,57.2637 Q1813.7344,56.8574 1814.2031,56.8574 Q1814.5781,56.8574 1814.8125,57.123 Q1815.0469,57.373 1815.0469,57.9824 L1815.0469,59.9512 Q1815.0469,60.498 1814.9219,60.6855 Q1814.6563,61.0762 1814.2031,61.0762 Q1813.7344,61.0762 1813.4688,60.6699 Q1813.3438,60.4824 1813.3438,59.8105 L1811.8594,59.8105 Z " fill="#000000"/><text fill="#000000" font-family="sans-serif" font-size="14" lengthAdjust="spacing" textLength="49" x="1827" y="64.8105">Student</text></g><!--class Course--><g id="elem_Course"><rect codeLine="53" fill="#F5F5DC" height="32" id="Course" rx="2.5" ry="2.5" style="stroke:#181818;stroke-width:0.5;" width="78" x="1984.5" y="43.0137"/><ellipse cx="1999.5" cy="59.0137" fill="#ADD1B2" rx="11" ry="11" style="stroke:#181818;stroke-width:1.0;"/><path d="M1998.3594,59.8105 L1998.3594,62.3105 L2002.6875,62.3105 L2002.6875,61.3887 Q2002.6875,60.7793 2002.9219,60.5137 Q2003.1719,60.248 2003.5469,60.248 Q2003.9219,60.248 2004.1563,60.5137 Q2004.3906,60.7793 2004.3906,61.3887 L2004.3906,64.0137 L1996.3906,64.0137 Q1995.7656,64.0137 1995.5,63.7793 Q1995.25,63.5449 1995.25,63.1543 Q1995.25,62.7793 1995.5156,62.5449 Q1995.7813,62.3105 1996.3906,62.3105 L1996.6563,62.3105 L1996.6563,55.6543 L1996.3906,55.6543 Q1995.7656,55.6543 1995.5,55.4199 Q1995.25,55.1855 1995.25,54.7949 Q1995.25,54.4199 1995.5,54.1855 Q1995.7656,53.9512 1996.3906,53.9512 L2004.0156,53.9512 L2004.0156,56.5449 Q2004.0156,57.1543 2003.7813,57.4199 Q2003.5625,57.6699 2003.1719,57.6699 Q2002.7969,57.6699 2002.5625,57.4199 Q2002.3281,57.1543 2002.3281,56.5449 L2002.3281,55.6543 L1998.3594,55.6543 L1998.3594,58.1074 L1999.8438,58.1074 Q1999.8438,57.4512 1999.9688,57.2637 Q2000.2344,56.8574 2000.7031,56.8574 Q2001.0781,56.8574 2001.3125,57.123 Q2001.5469,57.373 2001.5469,57.9824 L2001.5469,59.9512 Q2001.5469,60.498 2001.4219,60.6855 Q2001.1563,61.0762 2000.7031,61.0762 Q2000.2344,61.0762 1999.9688,60.6699 Q1999.8438,60.4824 1999.8438,59.8105 L1998.3594,59.8105 Z " fill="#000000"/><text fill="#000000" font-family="sans-serif" font-size="14" lengthAdjust="spacing" textLength="46" x="2013.5" y="64.8105">Course</text></g><!--class ExamAnswer--><g id="elem_ExamAnswer"><rect codeLine="60" fill="#F5F5DC" height="32" id="ExamAnswer" rx="2.5" ry="2.5" style="stroke:#181818;stroke-width:0.5;" width="112" x="2169.5" y="43.0137"/><ellipse cx="2184.5" cy="59.0137" fill="#ADD1B2" rx="11" ry="11" style="stroke:#181818;stroke-width:1.0;"/><path d="M2183.3594,59.8105 L2183.3594,62.3105 L2187.6875,62.3105 L2187.6875,61.3887 Q2187.6875,60.7793 2187.9219,60.5137 Q2188.1719,60.248 2188.5469,60.248 Q2188.9219,60.248 2189.1563,60.5137 Q2189.3906,60.7793 2189.3906,61.3887 L2189.3906,64.0137 L2181.3906,64.0137 Q2180.7656,64.0137 2180.5,63.7793 Q2180.25,63.5449 2180.25,63.1543 Q2180.25,62.7793 2180.5156,62.5449 Q2180.7813,62.3105 2181.3906,62.3105 L2181.6563,62.3105 L2181.6563,55.6543 L2181.3906,55.6543 Q2180.7656,55.6543 2180.5,55.4199 Q2180.25,55.1855 2180.25,54.7949 Q2180.25,54.4199 2180.5,54.1855 Q2180.7656,53.9512 2181.3906,53.9512 L2189.0156,53.9512 L2189.0156,56.5449 Q2189.0156,57.1543 2188.7813,57.4199 Q2188.5625,57.6699 2188.1719,57.6699 Q2187.7969,57.6699 2187.5625,57.4199 Q2187.3281,57.1543 2187.3281,56.5449 L2187.3281,55.6543 L2183.3594,55.6543 L2183.3594,58.1074 L2184.8438,58.1074 Q2184.8438,57.4512 2184.9688,57.2637 Q2185.2344,56.8574 2185.7031,56.8574 Q2186.0781,56.8574 2186.3125,57.123 Q2186.5469,57.373 2186.5469,57.9824 L2186.5469,59.9512 Q2186.5469,60.498 2186.4219,60.6855 Q2186.1563,61.0762 2185.7031,61.0762 Q2185.2344,61.0762 2184.9688,60.6699 Q2184.8438,60.4824 2184.8438,59.8105 L2183.3594,59.8105 Z " fill="#000000"/><text fill="#000000" font-family="sans-serif" font-size="14" lengthAdjust="spacing" textLength="80" x="2198.5" y="64.8105">ExamAnswer</text></g><!--class Teacher--><g id="elem_Teacher"><rect codeLine="67" fill="#F5F5DC" height="32" id="Teacher" rx="2.5" ry="2.5" style="stroke:#181818;stroke-width:0.5;" width="85" x="2388" y="43.0137"/><ellipse cx="2403" cy="59.0137" fill="#ADD1B2" rx="11" ry="11" style="stroke:#181818;stroke-width:1.0;"/><path d="M2401.8594,59.8105 L2401.8594,62.3105 L2406.1875,62.3105 L2406.1875,61.3887 Q2406.1875,60.7793 2406.4219,60.5137 Q2406.6719,60.248 2407.0469,60.248 Q2407.4219,60.248 2407.6563,60.5137 Q2407.8906,60.7793 2407.8906,61.3887 L2407.8906,64.0137 L2399.8906,64.0137 Q2399.2656,64.0137 2399,63.7793 Q2398.75,63.5449 2398.75,63.1543 Q2398.75,62.7793 2399.0156,62.5449 Q2399.2813,62.3105 2399.8906,62.3105 L2400.1563,62.3105 L2400.1563,55.6543 L2399.8906,55.6543 Q2399.2656,55.6543 2399,55.4199 Q2398.75,55.1855 2398.75,54.7949 Q2398.75,54.4199 2399,54.1855 Q2399.2656,53.9512 2399.8906,53.9512 L2407.5156,53.9512 L2407.5156,56.5449 Q2407.5156,57.1543 2407.2813,57.4199 Q2407.0625,57.6699 2406.6719,57.6699 Q2406.2969,57.6699 2406.0625,57.4199 Q2405.8281,57.1543 2405.8281,56.5449 L2405.8281,55.6543 L2401.8594,55.6543 L2401.8594,58.1074 L2403.3438,58.1074 Q2403.3438,57.4512 2403.4688,57.2637 Q2403.7344,56.8574 2404.2031,56.8574 Q2404.5781,56.8574 2404.8125,57.123 Q2405.0469,57.373 2405.0469,57.9824 L2405.0469,59.9512 Q2405.0469,60.498 2404.9219,60.6855 Q2404.6563,61.0762 2404.2031,61.0762 Q2403.7344,61.0762 2403.4688,60.6699 Q2403.3438,60.4824 2403.3438,59.8105 L2401.8594,59.8105 Z " fill="#000000"/><text fill="#000000" font-family="sans-serif" font-size="14" lengthAdjust="spacing" textLength="53" x="2417" y="64.8105">Teacher</text></g><!--class FormativeExam--><g id="elem_FormativeExam"><rect codeLine="24" fill="#F5F5DC" height="60.543" id="FormativeExam" rx="2.5" ry="2.5" style="stroke:#181818;stroke-width:0.5;" width="129" x="7" y="525.5137"/><ellipse cx="22" cy="555.7852" fill="#ADD1B2" rx="11" ry="11" style="stroke:#181818;stroke-width:1.0;"/><path d="M20.8594,556.582 L20.8594,559.082 L25.1875,559.082 L25.1875,558.1602 Q25.1875,557.5508 25.4219,557.2852 Q25.6719,557.0195 26.0469,557.0195 Q26.4219,557.0195 26.6563,557.2852 Q26.8906,557.5508 26.8906,558.1602 L26.8906,560.7852 L18.8906,560.7852 Q18.2656,560.7852 18,560.5508 Q17.75,560.3164 17.75,559.9258 Q17.75,559.5508 18.0156,559.3164 Q18.2813,559.082 18.8906,559.082 L19.1563,559.082 L19.1563,552.4258 L18.8906,552.4258 Q18.2656,552.4258 18,552.1914 Q17.75,551.957 17.75,551.5664 Q17.75,551.1914 18,550.957 Q18.2656,550.7227 18.8906,550.7227 L26.5156,550.7227 L26.5156,553.3164 Q26.5156,553.9258 26.2813,554.1914 Q26.0625,554.4414 25.6719,554.4414 Q25.2969,554.4414 25.0625,554.1914 Q24.8281,553.9258 24.8281,553.3164 L24.8281,552.4258 L20.8594,552.4258 L20.8594,554.8789 L22.3438,554.8789 Q22.3438,554.2227 22.4688,554.0352 Q22.7344,553.6289 23.2031,553.6289 Q23.5781,553.6289 23.8125,553.8945 Q24.0469,554.1445 24.0469,554.7539 L24.0469,556.7227 Q24.0469,557.2695 23.9219,557.457 Q23.6563,557.8477 23.2031,557.8477 Q22.7344,557.8477 22.4688,557.4414 Q22.3438,557.2539 22.3438,556.582 L20.8594,556.582 Z " fill="#000000"/><text fill="#000000" font-family="sans-serif" font-size="12" font-style="italic" lengthAdjust="spacing" textLength="43" x="63" y="543.4629">&#171;entity&#187;</text><text fill="#000000" font-family="sans-serif" font-size="12" font-style="italic" lengthAdjust="spacing" textLength="35" x="67" y="559.4238">&#171;root&#187;</text><text fill="#000000" font-family="sans-serif" font-size="14" lengthAdjust="spacing" textLength="97" x="36" y="577.543">FormativeExam</text></g><!--class EvaluationExam--><g id="elem_EvaluationExam"><rect codeLine="35" fill="#F5F5DC" height="60.543" id="EvaluationExam" rx="2.5" ry="2.5" style="stroke:#181818;stroke-width:0.5;" width="132" x="1098.5" y="385.5137"/><ellipse cx="1113.5" cy="415.7852" fill="#ADD1B2" rx="11" ry="11" style="stroke:#181818;stroke-width:1.0;"/><path d="M1112.3594,416.582 L1112.3594,419.082 L1116.6875,419.082 L1116.6875,418.1602 Q1116.6875,417.5508 1116.9219,417.2852 Q1117.1719,417.0195 1117.5469,417.0195 Q1117.9219,417.0195 1118.1563,417.2852 Q1118.3906,417.5508 1118.3906,418.1602 L1118.3906,420.7852 L1110.3906,420.7852 Q1109.7656,420.7852 1109.5,420.5508 Q1109.25,420.3164 1109.25,419.9258 Q1109.25,419.5508 1109.5156,419.3164 Q1109.7813,419.082 1110.3906,419.082 L1110.6563,419.082 L1110.6563,412.4258 L1110.3906,412.4258 Q1109.7656,412.4258 1109.5,412.1914 Q1109.25,411.957 1109.25,411.5664 Q1109.25,411.1914 1109.5,410.957 Q1109.7656,410.7227 1110.3906,410.7227 L1118.0156,410.7227 L1118.0156,413.3164 Q1118.0156,413.9258 1117.7813,414.1914 Q1117.5625,414.4414 1117.1719,414.4414 Q1116.7969,414.4414 1116.5625,414.1914 Q1116.3281,413.9258 1116.3281,413.3164 L1116.3281,412.4258 L1112.3594,412.4258 L1112.3594,414.8789 L1113.8438,414.8789 Q1113.8438,414.2227 1113.9688,414.0352 Q1114.2344,413.6289 1114.7031,413.6289 Q1115.0781,413.6289 1115.3125,413.8945 Q1115.5469,414.1445 1115.5469,414.7539 L1115.5469,416.7227 Q1115.5469,417.2695 1115.4219,417.457 Q1115.1563,417.8477 1114.7031,417.8477 Q1114.2344,417.8477 1113.9688,417.4414 Q1113.8438,417.2539 1113.8438,416.582 L1112.3594,416.582 Z " fill="#000000"/><text fill="#000000" font-family="sans-serif" font-size="12" font-style="italic" lengthAdjust="spacing" textLength="43" x="1156" y="403.4629">&#171;entity&#187;</text><text fill="#000000" font-family="sans-serif" font-size="12" font-style="italic" lengthAdjust="spacing" textLength="35" x="1160" y="419.4238">&#171;root&#187;</text><text fill="#000000" font-family="sans-serif" font-size="14" lengthAdjust="spacing" textLength="100" x="1127.5" y="437.543">EvaluationExam</text></g><!--class SectionQuestion--><g id="elem_SectionQuestion"><rect codeLine="46" fill="#F5F5DC" height="44.582" id="SectionQuestion" rx="2.5" ry="2.5" style="stroke:#181818;stroke-width:0.5;" width="136" x="398.5" y="655.5137"/><ellipse cx="413.5" cy="677.8047" fill="#ADD1B2" rx="11" ry="11" style="stroke:#181818;stroke-width:1.0;"/><path d="M412.3594,678.6016 L412.3594,681.1016 L416.6875,681.1016 L416.6875,680.1797 Q416.6875,679.5703 416.9219,679.3047 Q417.1719,679.0391 417.5469,679.0391 Q417.9219,679.0391 418.1563,679.3047 Q418.3906,679.5703 418.3906,680.1797 L418.3906,682.8047 L410.3906,682.8047 Q409.7656,682.8047 409.5,682.5703 Q409.25,682.3359 409.25,681.9453 Q409.25,681.5703 409.5156,681.3359 Q409.7813,681.1016 410.3906,681.1016 L410.6563,681.1016 L410.6563,674.4453 L410.3906,674.4453 Q409.7656,674.4453 409.5,674.2109 Q409.25,673.9766 409.25,673.5859 Q409.25,673.2109 409.5,672.9766 Q409.7656,672.7422 410.3906,672.7422 L418.0156,672.7422 L418.0156,675.3359 Q418.0156,675.9453 417.7813,676.2109 Q417.5625,676.4609 417.1719,676.4609 Q416.7969,676.4609 416.5625,676.2109 Q416.3281,675.9453 416.3281,675.3359 L416.3281,674.4453 L412.3594,674.4453 L412.3594,676.8984 L413.8438,676.8984 Q413.8438,676.2422 413.9688,676.0547 Q414.2344,675.6484 414.7031,675.6484 Q415.0781,675.6484 415.3125,675.9141 Q415.5469,676.1641 415.5469,676.7734 L415.5469,678.7422 Q415.5469,679.2891 415.4219,679.4766 Q415.1563,679.8672 414.7031,679.8672 Q414.2344,679.8672 413.9688,679.4609 Q413.8438,679.2734 413.8438,678.6016 L412.3594,678.6016 Z " fill="#000000"/><text fill="#000000" font-family="sans-serif" font-size="12" font-style="italic" lengthAdjust="spacing" textLength="43" x="458" y="673.4629">&#171;entity&#187;</text><text fill="#000000" font-family="sans-serif" font-size="14" lengthAdjust="spacing" textLength="104" x="427.5" y="691.582">SectionQuestion</text></g><!--class Student--><g id="elem_Student"><rect codeLine="49" fill="#F5F5DC" height="60.543" id="Student" rx="2.5" ry="2.5" style="stroke:#181818;stroke-width:0.5;" width="81" x="495" y="28.5137"/><ellipse cx="510" cy="58.7852" fill="#ADD1B2" rx="11" ry="11" style="stroke:#181818;stroke-width:1.0;"/><path d="M508.8594,59.582 L508.8594,62.082 L513.1875,62.082 L513.1875,61.1602 Q513.1875,60.5508 513.4219,60.2852 Q513.6719,60.0195 514.0469,60.0195 Q514.4219,60.0195 514.6563,60.2852 Q514.8906,60.5508 514.8906,61.1602 L514.8906,63.7852 L506.8906,63.7852 Q506.2656,63.7852 506,63.5508 Q505.75,63.3164 505.75,62.9258 Q505.75,62.5508 506.0156,62.3164 Q506.2813,62.082 506.8906,62.082 L507.1563,62.082 L507.1563,55.4258 L506.8906,55.4258 Q506.2656,55.4258 506,55.1914 Q505.75,54.957 505.75,54.5664 Q505.75,54.1914 506,53.957 Q506.2656,53.7227 506.8906,53.7227 L514.5156,53.7227 L514.5156,56.3164 Q514.5156,56.9258 514.2813,57.1914 Q514.0625,57.4414 513.6719,57.4414 Q513.2969,57.4414 513.0625,57.1914 Q512.8281,56.9258 512.8281,56.3164 L512.8281,55.4258 L508.8594,55.4258 L508.8594,57.8789 L510.3438,57.8789 Q510.3438,57.2227 510.4688,57.0352 Q510.7344,56.6289 511.2031,56.6289 Q511.5781,56.6289 511.8125,56.8945 Q512.0469,57.1445 512.0469,57.7539 L512.0469,59.7227 Q512.0469,60.2695 511.9219,60.457 Q511.6563,60.8477 511.2031,60.8477 Q510.7344,60.8477 510.4688,60.4414 Q510.3438,60.2539 510.3438,59.582 L508.8594,59.582 Z " fill="#000000"/><text fill="#000000" font-family="sans-serif" font-size="12" font-style="italic" lengthAdjust="spacing" textLength="43" x="527" y="46.4629">&#171;entity&#187;</text><text fill="#000000" font-family="sans-serif" font-size="12" font-style="italic" lengthAdjust="spacing" textLength="35" x="531" y="62.4238">&#171;root&#187;</text><text fill="#000000" font-family="sans-serif" font-size="14" lengthAdjust="spacing" textLength="49" x="524" y="80.543">Student</text></g><!--class Course--><g id="elem_Course"><rect codeLine="56" fill="#F5F5DC" height="60.543" id="Course" rx="2.5" ry="2.5" style="stroke:#181818;stroke-width:0.5;" width="78" x="164.5" y="647.5137"/><ellipse cx="179.5" cy="677.7852" fill="#ADD1B2" rx="11" ry="11" style="stroke:#181818;stroke-width:1.0;"/><path d="M178.3594,678.582 L178.3594,681.082 L182.6875,681.082 L182.6875,680.1602 Q182.6875,679.5508 182.9219,679.2852 Q183.1719,679.0195 183.5469,679.0195 Q183.9219,679.0195 184.1563,679.2852 Q184.3906,679.5508 184.3906,680.1602 L184.3906,682.7852 L176.3906,682.7852 Q175.7656,682.7852 175.5,682.5508 Q175.25,682.3164 175.25,681.9258 Q175.25,681.5508 175.5156,681.3164 Q175.7813,681.082 176.3906,681.082 L176.6563,681.082 L176.6563,674.4258 L176.3906,674.4258 Q175.7656,674.4258 175.5,674.1914 Q175.25,673.957 175.25,673.5664 Q175.25,673.1914 175.5,672.957 Q175.7656,672.7227 176.3906,672.7227 L184.0156,672.7227 L184.0156,675.3164 Q184.0156,675.9258 183.7813,676.1914 Q183.5625,676.4414 183.1719,676.4414 Q182.7969,676.4414 182.5625,676.1914 Q182.3281,675.9258 182.3281,675.3164 L182.3281,674.4258 L178.3594,674.4258 L178.3594,676.8789 L179.8438,676.8789 Q179.8438,676.2227 179.9688,676.0352 Q180.2344,675.6289 180.7031,675.6289 Q181.0781,675.6289 181.3125,675.8945 Q181.5469,676.1445 181.5469,676.7539 L181.5469,678.7227 Q181.5469,679.2695 181.4219,679.457 Q181.1563,679.8477 180.7031,679.8477 Q180.2344,679.8477 179.9688,679.4414 Q179.8438,679.2539 179.8438,678.582 L178.3594,678.582 Z " fill="#000000"/><text fill="#000000" font-family="sans-serif" font-size="12" font-style="italic" lengthAdjust="spacing" textLength="43" x="195" y="665.4629">&#171;entity&#187;</text><text fill="#000000" font-family="sans-serif" font-size="12" font-style="italic" lengthAdjust="spacing" textLength="35" x="199" y="681.4238">&#171;root&#187;</text><text fill="#000000" font-family="sans-serif" font-size="14" lengthAdjust="spacing" textLength="46" x="193.5" y="699.543">Course</text></g><!--class ExamAnswer--><g id="elem_ExamAnswer"><rect codeLine="63" fill="#F5F5DC" height="60.543" id="ExamAnswer" rx="2.5" ry="2.5" style="stroke:#181818;stroke-width:0.5;" width="112" x="479.5" y="168.5137"/><ellipse cx="494.5" cy="198.7852" fill="#ADD1B2" rx="11" ry="11" style="stroke:#181818;stroke-width:1.0;"/><path d="M493.3594,199.582 L493.3594,202.082 L497.6875,202.082 L497.6875,201.1602 Q497.6875,200.5508 497.9219,200.2852 Q498.1719,200.0195 498.5469,200.0195 Q498.9219,200.0195 499.1563,200.2852 Q499.3906,200.5508 499.3906,201.1602 L499.3906,203.7852 L491.3906,203.7852 Q490.7656,203.7852 490.5,203.5508 Q490.25,203.3164 490.25,202.9258 Q490.25,202.5508 490.5156,202.3164 Q490.7813,202.082 491.3906,202.082 L491.6563,202.082 L491.6563,195.4258 L491.3906,195.4258 Q490.7656,195.4258 490.5,195.1914 Q490.25,194.957 490.25,194.5664 Q490.25,194.1914 490.5,193.957 Q490.7656,193.7227 491.3906,193.7227 L499.0156,193.7227 L499.0156,196.3164 Q499.0156,196.9258 498.7813,197.1914 Q498.5625,197.4414 498.1719,197.4414 Q497.7969,197.4414 497.5625,197.1914 Q497.3281,196.9258 497.3281,196.3164 L497.3281,195.4258 L493.3594,195.4258 L493.3594,197.8789 L494.8438,197.8789 Q494.8438,197.2227 494.9688,197.0352 Q495.2344,196.6289 495.7031,196.6289 Q496.0781,196.6289 496.3125,196.8945 Q496.5469,197.1445 496.5469,197.7539 L496.5469,199.7227 Q496.5469,200.2695 496.4219,200.457 Q496.1563,200.8477 495.7031,200.8477 Q495.2344,200.8477 494.9688,200.4414 Q494.8438,200.2539 494.8438,199.582 L493.3594,199.582 Z " fill="#000000"/><text fill="#000000" font-family="sans-serif" font-size="12" font-style="italic" lengthAdjust="spacing" textLength="43" x="527" y="186.4629">&#171;entity&#187;</text><text fill="#000000" font-family="sans-serif" font-size="12" font-style="italic" lengthAdjust="spacing" textLength="35" x="531" y="202.4238">&#171;root&#187;</text><text fill="#000000" font-family="sans-serif" font-size="14" lengthAdjust="spacing" textLength="80" x="508.5" y="220.543">ExamAnswer</text></g><!--class Teacher--><g id="elem_Teacher"><rect codeLine="70" fill="#F5F5DC" height="60.543" id="Teacher" rx="2.5" ry="2.5" style="stroke:#181818;stroke-width:0.5;" width="85" x="278" y="647.5137"/><ellipse cx="293" cy="677.7852" fill="#ADD1B2" rx="11" ry="11" style="stroke:#181818;stroke-width:1.0;"/><path d="M291.8594,678.582 L291.8594,681.082 L296.1875,681.082 L296.1875,680.1602 Q296.1875,679.5508 296.4219,679.2852 Q296.6719,679.0195 297.0469,679.0195 Q297.4219,679.0195 297.6563,679.2852 Q297.8906,679.5508 297.8906,680.1602 L297.8906,682.7852 L289.8906,682.7852 Q289.2656,682.7852 289,682.5508 Q288.75,682.3164 288.75,681.9258 Q288.75,681.5508 289.0156,681.3164 Q289.2813,681.082 289.8906,681.082 L290.1563,681.082 L290.1563,674.4258 L289.8906,674.4258 Q289.2656,674.4258 289,674.1914 Q288.75,673.957 288.75,673.5664 Q288.75,673.1914 289,672.957 Q289.2656,672.7227 289.8906,672.7227 L297.5156,672.7227 L297.5156,675.3164 Q297.5156,675.9258 297.2813,676.1914 Q297.0625,676.4414 296.6719,676.4414 Q296.2969,676.4414 296.0625,676.1914 Q295.8281,675.9258 295.8281,675.3164 L295.8281,674.4258 L291.8594,674.4258 L291.8594,676.8789 L293.3438,676.8789 Q293.3438,676.2227 293.4688,676.0352 Q293.7344,675.6289 294.2031,675.6289 Q294.5781,675.6289 294.8125,675.8945 Q295.0469,676.1445 295.0469,676.7539 L295.0469,678.7227 Q295.0469,679.2695 294.9219,679.457 Q294.6563,679.8477 294.2031,679.8477 Q293.7344,679.8477 293.4688,679.4414 Q293.3438,679.2539 293.3438,678.582 L291.8594,678.582 Z " fill="#000000"/><text fill="#000000" font-family="sans-serif" font-size="12" font-style="italic" lengthAdjust="spacing" textLength="43" x="312" y="665.4629">&#171;entity&#187;</text><text fill="#000000" font-family="sans-serif" font-size="12" font-style="italic" lengthAdjust="spacing" textLength="35" x="316" y="681.4238">&#171;root&#187;</text><text fill="#000000" font-family="sans-serif" font-size="14" lengthAdjust="spacing" textLength="53" x="307" y="699.543">Teacher</text></g><!--class Exam--><g id="elem_Exam"><rect codeLine="73" fill="#F5F5DC" height="60.543" id="Exam" rx="2.5" ry="2.5" style="stroke:#181818;stroke-width:0.5;" width="71" x="500" y="385.5137"/><ellipse cx="515" cy="415.7852" fill="#ADD1B2" rx="11" ry="11" style="stroke:#181818;stroke-width:1.0;"/><path d="M513.8594,416.582 L513.8594,419.082 L518.1875,419.082 L518.1875,418.1602 Q518.1875,417.5508 518.4219,417.2852 Q518.6719,417.0195 519.0469,417.0195 Q519.4219,417.0195 519.6563,417.2852 Q519.8906,417.5508 519.8906,418.1602 L519.8906,420.7852 L511.8906,420.7852 Q511.2656,420.7852 511,420.5508 Q510.75,420.3164 510.75,419.9258 Q510.75,419.5508 511.0156,419.3164 Q511.2813,419.082 511.8906,419.082 L512.1563,419.082 L512.1563,412.4258 L511.8906,412.4258 Q511.2656,412.4258 511,412.1914 Q510.75,411.957 510.75,411.5664 Q510.75,411.1914 511,410.957 Q511.2656,410.7227 511.8906,410.7227 L519.5156,410.7227 L519.5156,413.3164 Q519.5156,413.9258 519.2813,414.1914 Q519.0625,414.4414 518.6719,414.4414 Q518.2969,414.4414 518.0625,414.1914 Q517.8281,413.9258 517.8281,413.3164 L517.8281,412.4258 L513.8594,412.4258 L513.8594,414.8789 L515.3438,414.8789 Q515.3438,414.2227 515.4688,414.0352 Q515.7344,413.6289 516.2031,413.6289 Q516.5781,413.6289 516.8125,413.8945 Q517.0469,414.1445 517.0469,414.7539 L517.0469,416.7227 Q517.0469,417.2695 516.9219,417.457 Q516.6563,417.8477 516.2031,417.8477 Q515.7344,417.8477 515.4688,417.4414 Q515.3438,417.2539 515.3438,416.582 L513.8594,416.582 Z " fill="#000000"/><text fill="#000000" font-family="sans-serif" font-size="12" font-style="italic" lengthAdjust="spacing" textLength="43" x="527" y="403.4629">&#171;entity&#187;</text><text fill="#000000" font-family="sans-serif" font-size="12" font-style="italic" lengthAdjust="spacing" textLength="35" x="531" y="419.4238">&#171;root&#187;</text><text fill="#000000" font-family="sans-serif" font-size="14" lengthAdjust="spacing" textLength="34" x="531.5" y="437.543">Exam</text></g><!--class Section--><g id="elem_Section"><rect codeLine="76" fill="#F5F5DC" height="44.582" id="Section" rx="2.5" ry="2.5" style="stroke:#181818;stroke-width:0.5;" width="79" x="496" y="533.5137"/><ellipse cx="511" cy="555.8047" fill="#ADD1B2" rx="11" ry="11" style="stroke:#181818;stroke-width:1.0;"/><path d="M509.8594,556.6016 L509.8594,559.1016 L514.1875,559.1016 L514.1875,558.1797 Q514.1875,557.5703 514.4219,557.3047 Q514.6719,557.0391 515.0469,557.0391 Q515.4219,557.0391 515.6563,557.3047 Q515.8906,557.5703 515.8906,558.1797 L515.8906,560.8047 L507.8906,560.8047 Q507.2656,560.8047 507,560.5703 Q506.75,560.3359 506.75,559.9453 Q506.75,559.5703 507.0156,559.3359 Q507.2813,559.1016 507.8906,559.1016 L508.1563,559.1016 L508.1563,552.4453 L507.8906,552.4453 Q507.2656,552.4453 507,552.2109 Q506.75,551.9766 506.75,551.5859 Q506.75,551.2109 507,550.9766 Q507.2656,550.7422 507.8906,550.7422 L515.5156,550.7422 L515.5156,553.3359 Q515.5156,553.9453 515.2813,554.2109 Q515.0625,554.4609 514.6719,554.4609 Q514.2969,554.4609 514.0625,554.2109 Q513.8281,553.9453 513.8281,553.3359 L513.8281,552.4453 L509.8594,552.4453 L509.8594,554.8984 L511.3438,554.8984 Q511.3438,554.2422 511.4688,554.0547 Q511.7344,553.6484 512.2031,553.6484 Q512.5781,553.6484 512.8125,553.9141 Q513.0469,554.1641 513.0469,554.7734 L513.0469,556.7422 Q513.0469,557.2891 512.9219,557.4766 Q512.6563,557.8672 512.2031,557.8672 Q511.7344,557.8672 511.4688,557.4609 Q511.3438,557.2734 511.3438,556.6016 L509.8594,556.6016 Z " fill="#000000"/><text fill="#000000" font-family="sans-serif" font-size="12" font-style="italic" lengthAdjust="spacing" textLength="43" x="527" y="551.4629">&#171;entity&#187;</text><text fill="#000000" font-family="sans-serif" font-size="14" lengthAdjust="spacing" textLength="47" x="525" y="569.582">Section</text></g><!--class SectionName--><g id="elem_SectionName"><rect codeLine="78" fill="#F5F5DC" height="44.582" id="SectionName" rx="2.5" ry="2.5" style="stroke:#181818;stroke-width:0.5;" width="115" x="736" y="655.5137"/><ellipse cx="751" cy="677.8047" fill="#FF8B40" rx="11" ry="11" style="stroke:#181818;stroke-width:1.0;"/><path d="M751.5938,681.0703 L754.0625,675.1953 L753.6719,675.1953 Q753.0625,675.1953 752.7969,674.9609 Q752.5313,674.7266 752.5313,674.3359 Q752.5313,673.9609 752.7969,673.7266 Q753.0625,673.4922 753.6719,673.4922 L755.9531,673.4922 Q756.5625,673.4922 756.8281,673.7266 Q757.0938,673.9609 757.0938,674.3359 Q757.0938,674.8047 756.6875,675.0703 Q756.5,675.1953 755.9063,675.1953 L752.4219,683.5547 L750.7813,683.5547 L747.2969,675.1953 Q746.7031,675.1953 746.5156,675.0703 Q746.1094,674.8047 746.1094,674.3359 Q746.1094,673.9609 746.375,673.7266 Q746.6406,673.4922 747.25,673.4922 L749.5469,673.4922 Q750.1563,673.4922 750.4063,673.7266 Q750.6719,673.9609 750.6719,674.3359 Q750.6719,674.7266 750.4063,674.9609 Q750.1563,675.1953 749.5469,675.1953 L749.1406,675.1953 L751.5938,681.0703 Z " fill="#000000"/><text fill="#000000" font-family="sans-serif" font-size="12" font-style="italic" lengthAdjust="spacing" textLength="81" x="766" y="673.4629">&#171;value object&#187;</text><text fill="#000000" font-family="sans-serif" font-size="14" lengthAdjust="spacing" textLength="83" x="765" y="691.582">SectionName</text></g><!--class State--><g id="elem_State"><rect codeLine="79" fill="#F5F5DC" height="44.582" id="State" rx="2.5" ry="2.5" style="stroke:#181818;stroke-width:0.5;" width="109" x="886" y="655.5137"/><ellipse cx="901" cy="677.8047" fill="#FF8B40" rx="11" ry="11" style="stroke:#181818;stroke-width:1.0;"/><path d="M901.5938,681.0703 L904.0625,675.1953 L903.6719,675.1953 Q903.0625,675.1953 902.7969,674.9609 Q902.5313,674.7266 902.5313,674.3359 Q902.5313,673.9609 902.7969,673.7266 Q903.0625,673.4922 903.6719,673.4922 L905.9531,673.4922 Q906.5625,673.4922 906.8281,673.7266 Q907.0938,673.9609 907.0938,674.3359 Q907.0938,674.8047 906.6875,675.0703 Q906.5,675.1953 905.9063,675.1953 L902.4219,683.5547 L900.7813,683.5547 L897.2969,675.1953 Q896.7031,675.1953 896.5156,675.0703 Q896.1094,674.8047 896.1094,674.3359 Q896.1094,673.9609 896.375,673.7266 Q896.6406,673.4922 897.25,673.4922 L899.5469,673.4922 Q900.1563,673.4922 900.4063,673.7266 Q900.6719,673.9609 900.6719,674.3359 Q900.6719,674.7266 900.4063,674.9609 Q900.1563,675.1953 899.5469,675.1953 L899.1406,675.1953 L901.5938,681.0703 Z " fill="#000000"/><text fill="#000000" font-family="sans-serif" font-size="12" font-style="italic" lengthAdjust="spacing" textLength="81" x="913" y="673.4629">&#171;value object&#187;</text><text fill="#000000" font-family="sans-serif" font-size="14" lengthAdjust="spacing" textLength="33" x="937" y="691.582">State</text></g><!--class FeedbackType--><g id="elem_FeedbackType"><rect codeLine="81" fill="#F5F5DC" height="44.582" id="FeedbackType" rx="2.5" ry="2.5" style="stroke:#181818;stroke-width:0.5;" width="127" x="1030" y="655.5137"/><ellipse cx="1045" cy="677.8047" fill="#FF8B40" rx="11" ry="11" style="stroke:#181818;stroke-width:1.0;"/><path d="M1045.5938,681.0703 L1048.0625,675.1953 L1047.6719,675.1953 Q1047.0625,675.1953 1046.7969,674.9609 Q1046.5313,674.7266 1046.5313,674.3359 Q1046.5313,673.9609 1046.7969,673.7266 Q1047.0625,673.4922 1047.6719,673.4922 L1049.9531,673.4922 Q1050.5625,673.4922 1050.8281,673.7266 Q1051.0938,673.9609 1051.0938,674.3359 Q1051.0938,674.8047 1050.6875,675.0703 Q1050.5,675.1953 1049.9063,675.1953 L1046.4219,683.5547 L1044.7813,683.5547 L1041.2969,675.1953 Q1040.7031,675.1953 1040.5156,675.0703 Q1040.1094,674.8047 1040.1094,674.3359 Q1040.1094,673.9609 1040.375,673.7266 Q1040.6406,673.4922 1041.25,673.4922 L1043.5469,673.4922 Q1044.1563,673.4922 1044.4063,673.7266 Q1044.6719,673.9609 1044.6719,674.3359 Q1044.6719,674.7266 1044.4063,674.9609 Q1044.1563,675.1953 1043.5469,675.1953 L1043.1406,675.1953 L1045.5938,681.0703 Z " fill="#000000"/><text fill="#000000" font-family="sans-serif" font-size="12" font-style="italic" lengthAdjust="spacing" textLength="81" x="1066" y="673.4629">&#171;value object&#187;</text><text fill="#000000" font-family="sans-serif" font-size="14" lengthAdjust="spacing" textLength="95" x="1059" y="691.582">FeedbackType</text></g><!--class GradeType--><g id="elem_GradeType"><rect codeLine="82" fill="#F5F5DC" height="44.582" id="GradeType" rx="2.5" ry="2.5" style="stroke:#181818;stroke-width:0.5;" width="109" x="1195" y="655.5137"/><ellipse cx="1210" cy="677.8047" fill="#FF8B40" rx="11" ry="11" style="stroke:#181818;stroke-width:1.0;"/><path d="M1210.5938,681.0703 L1213.0625,675.1953 L1212.6719,675.1953 Q1212.0625,675.1953 1211.7969,674.9609 Q1211.5313,674.7266 1211.5313,674.3359 Q1211.5313,673.9609 1211.7969,673.7266 Q1212.0625,673.4922 1212.6719,673.4922 L1214.9531,673.4922 Q1215.5625,673.4922 1215.8281,673.7266 Q1216.0938,673.9609 1216.0938,674.3359 Q1216.0938,674.8047 1215.6875,675.0703 Q1215.5,675.1953 1214.9063,675.1953 L1211.4219,683.5547 L1209.7813,683.5547 L1206.2969,675.1953 Q1205.7031,675.1953 1205.5156,675.0703 Q1205.1094,674.8047 1205.1094,674.3359 Q1205.1094,673.9609 1205.375,673.7266 Q1205.6406,673.4922 1206.25,673.4922 L1208.5469,673.4922 Q1209.1563,673.4922 1209.4063,673.7266 Q1209.6719,673.9609 1209.6719,674.3359 Q1209.6719,674.7266 1209.4063,674.9609 Q1209.1563,675.1953 1208.5469,675.1953 L1208.1406,675.1953 L1210.5938,681.0703 Z " fill="#000000"/><text fill="#000000" font-family="sans-serif" font-size="12" font-style="italic" lengthAdjust="spacing" textLength="81" x="1222" y="673.4629">&#171;value object&#187;</text><text fill="#000000" font-family="sans-serif" font-size="14" lengthAdjust="spacing" textLength="72" x="1226.5" y="691.582">GradeType</text></g><!--class Description--><g id="elem_Description"><rect codeLine="83" fill="#F5F5DC" height="44.582" id="Description" rx="2.5" ry="2.5" style="stroke:#181818;stroke-width:0.5;" width="109" x="770" y="533.5137"/><ellipse cx="785" cy="555.8047" fill="#FF8B40" rx="11" ry="11" style="stroke:#181818;stroke-width:1.0;"/><path d="M785.5938,559.0703 L788.0625,553.1953 L787.6719,553.1953 Q787.0625,553.1953 786.7969,552.9609 Q786.5313,552.7266 786.5313,552.3359 Q786.5313,551.9609 786.7969,551.7266 Q787.0625,551.4922 787.6719,551.4922 L789.9531,551.4922 Q790.5625,551.4922 790.8281,551.7266 Q791.0938,551.9609 791.0938,552.3359 Q791.0938,552.8047 790.6875,553.0703 Q790.5,553.1953 789.9063,553.1953 L786.4219,561.5547 L784.7813,561.5547 L781.2969,553.1953 Q780.7031,553.1953 780.5156,553.0703 Q780.1094,552.8047 780.1094,552.3359 Q780.1094,551.9609 780.375,551.7266 Q780.6406,551.4922 781.25,551.4922 L783.5469,551.4922 Q784.1563,551.4922 784.4063,551.7266 Q784.6719,551.9609 784.6719,552.3359 Q784.6719,552.7266 784.4063,552.9609 Q784.1563,553.1953 783.5469,553.1953 L783.1406,553.1953 L785.5938,559.0703 Z " fill="#000000"/><text fill="#000000" font-family="sans-serif" font-size="12" font-style="italic" lengthAdjust="spacing" textLength="81" x="797" y="551.4629">&#171;value object&#187;</text><text fill="#000000" font-family="sans-serif" font-size="14" lengthAdjust="spacing" textLength="71" x="802" y="569.582">Description</text></g><!--class Time--><g id="elem_Time"><rect codeLine="84" fill="#F5F5DC" height="44.582" id="Time" rx="2.5" ry="2.5" style="stroke:#181818;stroke-width:0.5;" width="109" x="1242" y="533.5137"/><ellipse cx="1257" cy="555.8047" fill="#FF8B40" rx="11" ry="11" style="stroke:#181818;stroke-width:1.0;"/><path d="M1257.5938,559.0703 L1260.0625,553.1953 L1259.6719,553.1953 Q1259.0625,553.1953 1258.7969,552.9609 Q1258.5313,552.7266 1258.5313,552.3359 Q1258.5313,551.9609 1258.7969,551.7266 Q1259.0625,551.4922 1259.6719,551.4922 L1261.9531,551.4922 Q1262.5625,551.4922 1262.8281,551.7266 Q1263.0938,551.9609 1263.0938,552.3359 Q1263.0938,552.8047 1262.6875,553.0703 Q1262.5,553.1953 1261.9063,553.1953 L1258.4219,561.5547 L1256.7813,561.5547 L1253.2969,553.1953 Q1252.7031,553.1953 1252.5156,553.0703 Q1252.1094,552.8047 1252.1094,552.3359 Q1252.1094,551.9609 1252.375,551.7266 Q1252.6406,551.4922 1253.25,551.4922 L1255.5469,551.4922 Q1256.1563,551.4922 1256.4063,551.7266 Q1256.6719,551.9609 1256.6719,552.3359 Q1256.6719,552.7266 1256.4063,552.9609 Q1256.1563,553.1953 1255.5469,553.1953 L1255.1406,553.1953 L1257.5938,559.0703 Z " fill="#000000"/><text fill="#000000" font-family="sans-serif" font-size="12" font-style="italic" lengthAdjust="spacing" textLength="81" x="1269" y="551.4629">&#171;value object&#187;</text><text fill="#000000" font-family="sans-serif" font-size="14" lengthAdjust="spacing" textLength="31" x="1294" y="569.582">Time</text></g><!--class Score--><g id="elem_Score"><rect codeLine="85" fill="#F5F5DC" height="44.582" id="Score" rx="2.5" ry="2.5" style="stroke:#181818;stroke-width:0.5;" width="109" x="592" y="655.5137"/><ellipse cx="607" cy="677.8047" fill="#FF8B40" rx="11" ry="11" style="stroke:#181818;stroke-width:1.0;"/><path d="M607.5938,681.0703 L610.0625,675.1953 L609.6719,675.1953 Q609.0625,675.1953 608.7969,674.9609 Q608.5313,674.7266 608.5313,674.3359 Q608.5313,673.9609 608.7969,673.7266 Q609.0625,673.4922 609.6719,673.4922 L611.9531,673.4922 Q612.5625,673.4922 612.8281,673.7266 Q613.0938,673.9609 613.0938,674.3359 Q613.0938,674.8047 612.6875,675.0703 Q612.5,675.1953 611.9063,675.1953 L608.4219,683.5547 L606.7813,683.5547 L603.2969,675.1953 Q602.7031,675.1953 602.5156,675.0703 Q602.1094,674.8047 602.1094,674.3359 Q602.1094,673.9609 602.375,673.7266 Q602.6406,673.4922 603.25,673.4922 L605.5469,673.4922 Q606.1563,673.4922 606.4063,673.7266 Q606.6719,673.9609 606.6719,674.3359 Q606.6719,674.7266 606.4063,674.9609 Q606.1563,675.1953 605.5469,675.1953 L605.1406,675.1953 L607.5938,681.0703 Z " fill="#000000"/><text fill="#000000" font-family="sans-serif" font-size="12" font-style="italic" lengthAdjust="spacing" textLength="81" x="619" y="673.4629">&#171;value object&#187;</text><text fill="#000000" font-family="sans-serif" font-size="14" lengthAdjust="spacing" textLength="37" x="641" y="691.582">Score</text></g><!--class Question--><g id="elem_Question"><rect codeLine="87" fill="#F5F5DC" height="60.543" id="Question" rx="2.5" ry="2.5" style="stroke:#181818;stroke-width:0.5;" width="89" x="422" y="788.0137"/><ellipse cx="437" cy="818.2852" fill="#ADD1B2" rx="11" ry="11" style="stroke:#181818;stroke-width:1.0;"/><path d="M435.8594,819.082 L435.8594,821.582 L440.1875,821.582 L440.1875,820.6602 Q440.1875,820.0508 440.4219,819.7852 Q440.6719,819.5195 441.0469,819.5195 Q441.4219,819.5195 441.6563,819.7852 Q441.8906,820.0508 441.8906,820.6602 L441.8906,823.2852 L433.8906,823.2852 Q433.2656,823.2852 433,823.0508 Q432.75,822.8164 432.75,822.4258 Q432.75,822.0508 433.0156,821.8164 Q433.2813,821.582 433.8906,821.582 L434.1563,821.582 L434.1563,814.9258 L433.8906,814.9258 Q433.2656,814.9258 433,814.6914 Q432.75,814.457 432.75,814.0664 Q432.75,813.6914 433,813.457 Q433.2656,813.2227 433.8906,813.2227 L441.5156,813.2227 L441.5156,815.8164 Q441.5156,816.4258 441.2813,816.6914 Q441.0625,816.9414 440.6719,816.9414 Q440.2969,816.9414 440.0625,816.6914 Q439.8281,816.4258 439.8281,815.8164 L439.8281,814.9258 L435.8594,814.9258 L435.8594,817.3789 L437.3438,817.3789 Q437.3438,816.7227 437.4688,816.5352 Q437.7344,816.1289 438.2031,816.1289 Q438.5781,816.1289 438.8125,816.3945 Q439.0469,816.6445 439.0469,817.2539 L439.0469,819.2227 Q439.0469,819.7695 438.9219,819.957 Q438.6563,820.3477 438.2031,820.3477 Q437.7344,820.3477 437.4688,819.9414 Q437.3438,819.7539 437.3438,819.082 L435.8594,819.082 Z " fill="#000000"/><text fill="#000000" font-family="sans-serif" font-size="12" font-style="italic" lengthAdjust="spacing" textLength="43" x="458" y="805.9629">&#171;entity&#187;</text><text fill="#000000" font-family="sans-serif" font-size="12" font-style="italic" lengthAdjust="spacing" textLength="35" x="462" y="821.9238">&#171;root&#187;</text><text fill="#000000" font-family="sans-serif" font-size="14" lengthAdjust="spacing" textLength="57" x="451" y="840.043">Question</text></g><g id="elem_GMN49"><path d="M893.5,796.0137 L893.5,840.5957 A0,0 0 0 0 893.5,840.5957 L987.5,840.5957 A0,0 0 0 0 987.5,840.5957 L987.5,806.0137 L977.5,796.0137 L944.5,796.0137 L940.5,700.6537 L936.5,796.0137 L893.5,796.0137 A0,0 0 0 0 893.5,796.0137 " fill="#FEFFDD" style="stroke:#181818;stroke-width:0.5;"/><path d="M977.5,796.0137 L977.5,806.0137 L987.5,806.0137 L977.5,796.0137 " fill="#FEFFDD" style="stroke:#181818;stroke-width:0.5;"/><text fill="#000000" font-family="sans-serif" font-size="13" lengthAdjust="spacing" textLength="42" x="899.5" y="815.042">DRAFT</text><text fill="#000000" font-family="sans-serif" font-size="13" lengthAdjust="spacing" textLength="73" x="899.5" y="832.333">PUBLISHED</text></g><g id="elem_GMN58"><path d="M1026,787.5137 L1026,849.3867 A0,0 0 0 0 1026,849.3867 L1153,849.3867 A0,0 0 0 0 1153,849.3867 L1153,797.5137 L1143,787.5137 L1094.37,787.5137 L1092.88,700.6537 L1086.37,787.5137 L1026,787.5137 A0,0 0 0 0 1026,787.5137 " fill="#FEFFDD" style="stroke:#181818;stroke-width:0.5;"/><path d="M1143,787.5137 L1143,797.5137 L1153,797.5137 L1143,787.5137 " fill="#FEFFDD" style="stroke:#181818;stroke-width:0.5;"/><text fill="#000000" font-family="sans-serif" font-size="13" lengthAdjust="spacing" textLength="37" x="1032" y="806.542">NONE</text><text fill="#000000" font-family="sans-serif" font-size="13" lengthAdjust="spacing" textLength="96" x="1032" y="823.833">ON_SUBMITION</text><text fill="#000000" font-family="sans-serif" font-size="13" lengthAdjust="spacing" textLength="106" x="1032" y="841.124">AFTER_CLOSING</text></g><g id="elem_GMN61"><path d="M1188,787.5137 L1188,849.3867 A0,0 0 0 0 1188,849.3867 L1315,849.3867 A0,0 0 0 0 1315,849.3867 L1315,797.5137 L1305,787.5137 L1255.06,787.5137 L1249.81,700.6537 L1247.06,787.5137 L1188,787.5137 A0,0 0 0 0 1188,787.5137 " fill="#FEFFDD" style="stroke:#181818;stroke-width:0.5;"/><path d="M1305,787.5137 L1305,797.5137 L1315,797.5137 L1305,787.5137 " fill="#FEFFDD" style="stroke:#181818;stroke-width:0.5;"/><text fill="#000000" font-family="sans-serif" font-size="13" lengthAdjust="spacing" textLength="37" x="1194" y="806.542">NONE</text><text fill="#000000" font-family="sans-serif" font-size="13" lengthAdjust="spacing" textLength="96" x="1194" y="823.833">ON_SUBMITION</text><text fill="#000000" font-family="sans-serif" font-size="13" lengthAdjust="spacing" textLength="106" x="1194" y="841.124">AFTER_CLOSING</text></g><!--reverse link Exam to EvaluationExam--><g id="link_Exam_EvaluationExam"><path codeLine="89" d="M591.21,416.0137 C760.29,416.0137 929.36,416.0137 1098.44,416.0137 " fill="none" id="Exam-backto-EvaluationExam" style="stroke:#222222;stroke-width:1.0;"/><polygon fill="none" points="591.13,423.0137,571.13,416.0137,591.13,409.0137,591.13,423.0137" style="stroke:#222222;stroke-width:1.0;"/></g><!--reverse link Exam to FormativeExam--><g id="link_Exam_FormativeExam"><path codeLine="90" d="M479.33,418.5937 C407.46,422.3437 280.34,434.8837 180.5,476.5137 C152.52,488.1837 124.85,508.2437 104.39,525.1637 " fill="none" id="Exam-backto-FormativeExam" style="stroke:#222222;stroke-width:1.0;"/><polygon fill="none" points="479.48,411.5837,499.77,417.6837,480.1,425.5637,479.48,411.5837" style="stroke:#222222;stroke-width:1.0;"/></g><!--link EvaluationExam to Time--><g id="link_EvaluationExam_Time"><path codeLine="92" d="M1182.17,446.5737 C1192.12,462.0037 1205.37,480.7037 1219.5,495.5137 C1231.55,508.1437 1246.41,520.2637 1259.86,530.2437 " fill="none" id="EvaluationExam-to-Time" style="stroke:#222222;stroke-width:1.0;"/><polygon fill="#222222" points="1263.98,533.2637,1259.0918,524.7135,1259.9493,530.305,1254.3579,531.1626,1263.98,533.2637" style="stroke:#222222;stroke-width:1.0;"/><text fill="#000000" font-family="sans-serif" font-size="13" lengthAdjust="spacing" textLength="55" x="1220.5" y="491.542">start time</text><text fill="#000000" font-family="sans-serif" font-size="13" lengthAdjust="spacing" textLength="22" x="1230.828" y="522.375">0..1</text></g><!--link EvaluationExam to Time--><g id="link_EvaluationExam_Time"><path codeLine="93" d="M1230.53,438.4137 C1249.19,447.4437 1267.85,459.8337 1280.5,476.5137 C1291.6,491.1437 1295.51,511.5737 1296.69,527.9237 " fill="none" id="EvaluationExam-to-Time-1" style="stroke:#222222;stroke-width:1.0;"/><polygon fill="#222222" points="1296.99,533.2937,1300.47,524.0801,1296.7048,528.3018,1292.4831,524.5365,1296.99,533.2937" style="stroke:#222222;stroke-width:1.0;"/><text fill="#000000" font-family="sans-serif" font-size="13" lengthAdjust="spacing" textLength="50" x="1290.5" y="491.542">end time</text><text fill="#000000" font-family="sans-serif" font-size="13" lengthAdjust="spacing" textLength="22" x="1272.2968" y="522.4127">0..1</text></g><!--link Exam to State--><g id="link_Exam_State"><path codeLine="95" d="M562.87,446.6437 C597.96,483.2937 662.01,545.8137 726.5,586.5137 C733.63,591.0137 822.67,628.2137 883.63,653.5037 " fill="none" id="Exam-to-State" style="stroke:#222222;stroke-width:1.0;"/><polygon fill="#222222" points="888.34,655.4537,881.5598,648.3103,883.7217,653.5377,878.4942,655.6996,888.34,655.4537" style="stroke:#222222;stroke-width:1.0;"/><text fill="#000000" font-family="sans-serif" font-size="13" lengthAdjust="spacing" textLength="24" x="727.5" y="561.542">is in</text><text fill="#000000" font-family="sans-serif" font-size="13" lengthAdjust="spacing" textLength="7" x="871.0777" y="646.8207">1</text></g><!--reverse link Exam to Section--><g id="link_Exam_Section"><path codeLine="102" d="M535.5,459.8537 C535.5,484.1537 535.5,513.5137 535.5,533.1437 " fill="none" id="Exam-backto-Section" style="stroke:#222222;stroke-width:1.0;"/><polygon fill="#222222" points="535.5,446.6137,531.5,452.6137,535.5,458.6137,539.5,452.6137,535.5,446.6137" style="stroke:#222222;stroke-width:1.0;"/><text fill="#000000" font-family="sans-serif" font-size="13" lengthAdjust="spacing" textLength="20" x="512.9375" y="522.2243">1..*</text></g><!--link Exam to Course--><g id="link_Exam_Course"><path codeLine="103" d="M499.96,428.1537 C453.18,444.0937 370.13,476.9737 312.5,525.5137 C272.89,558.8737 240.25,609.6337 221.32,643.0537 " fill="none" id="Exam-to-Course" style="stroke:#222222;stroke-width:1.0;"/><polygon fill="#222222" points="218.86,647.4537,226.7504,641.5595,221.3052,643.0924,219.7723,637.6472,218.86,647.4537" style="stroke:#222222;stroke-width:1.0;"/><text fill="#000000" font-family="sans-serif" font-size="13" lengthAdjust="spacing" textLength="39" x="313.5" y="561.542">is from</text><text fill="#000000" font-family="sans-serif" font-size="13" lengthAdjust="spacing" textLength="7" x="214.4544" y="636.0194">1</text></g><!--link Exam to Teacher--><g id="link_Exam_Teacher"><path codeLine="104" d="M499.73,440.0137 C470.64,460.0137 429.91,491.1337 401.5,525.5137 C371.71,561.5637 348.03,610.2837 334.15,642.6337 " fill="none" id="Exam-to-Teacher" style="stroke:#222222;stroke-width:1.0;"/><polygon fill="#222222" points="332.17,647.2837,339.3667,640.5601,334.1224,642.6806,332.0018,637.4362,332.17,647.2837" style="stroke:#222222;stroke-width:1.0;"/><text fill="#000000" font-family="sans-serif" font-size="13" lengthAdjust="spacing" textLength="75" x="402.5" y="561.542">is created by</text><text fill="#000000" font-family="sans-serif" font-size="13" lengthAdjust="spacing" textLength="7" x="326.8551" y="636.2979">1</text></g><!--reverse link EvaluationExam to FeedbackType--><g id="link_EvaluationExam_FeedbackType"><path codeLine="106" d="M1144.99,458.9537 C1142.63,464.7837 1140.39,470.7537 1138.5,476.5137 C1117.69,540.0837 1103.22,618.0937 1096.97,655.2837 " fill="none" id="EvaluationExam-backto-FeedbackType" style="stroke:#222222;stroke-width:1.0;"/><polygon fill="#222222" points="1150.27,446.5437,1144.2424,450.502,1145.578,457.5884,1151.6056,453.63,1150.27,446.5437" style="stroke:#222222;stroke-width:1.0;"/><text fill="#000000" font-family="sans-serif" font-size="13" lengthAdjust="spacing" textLength="7" x="1089.9623" y="644.4001">1</text></g><!--reverse link EvaluationExam to GradeType--><g id="link_EvaluationExam_GradeType"><path codeLine="107" d="M1178.3,459.2337 C1196.64,515.3237 1228.35,612.3137 1242.42,655.3537 " fill="none" id="EvaluationExam-backto-GradeType" style="stroke:#222222;stroke-width:1.0;"/><polygon fill="#222222" points="1174.17,446.5837,1172.234,453.53,1177.9014,457.9888,1179.8374,451.0424,1174.17,446.5837" style="stroke:#222222;stroke-width:1.0;"/><text fill="#000000" font-family="sans-serif" font-size="13" lengthAdjust="spacing" textLength="7" x="1232.5766" y="644.103">1</text></g><!--reverse link Exam to Description--><g id="link_Exam_Description"><path codeLine="108" d="M583.91,425.4637 C625.67,434.1237 686.63,450.1237 734.5,476.5137 C761.73,491.5337 787.95,515.9037 805,533.5037 " fill="none" id="Exam-backto-Description" style="stroke:#222222;stroke-width:1.0;"/><polygon fill="#222222" points="571.07,422.9037,576.1712,428.0005,582.838,425.252,577.7368,420.1552,571.07,422.9037" style="stroke:#222222;stroke-width:1.0;"/><text fill="#000000" font-family="sans-serif" font-size="13" lengthAdjust="spacing" textLength="7" x="791.8188" y="522.2933">1</text></g><!--reverse link Section to SectionQuestion--><g id="link_Section_SectionQuestion"><path codeLine="122" d="M516.37,590.2737 C504.4,611.0937 489.33,637.3137 478.9,655.4437 " fill="none" id="Section-backto-SectionQuestion" style="stroke:#222222;stroke-width:1.0;"/><polygon fill="#222222" points="523,578.7437,516.5406,581.9492,517.0151,589.1447,523.4746,585.9391,523,578.7437" style="stroke:#222222;stroke-width:1.0;"/><text fill="#000000" font-family="sans-serif" font-size="13" lengthAdjust="spacing" textLength="20" x="459.545" y="644.2172">1..*</text></g><!--link SectionQuestion to Question--><g id="link_SectionQuestion_Question"><path codeLine="123" d="M466.5,700.6537 C466.5,722.6237 466.5,756.9837 466.5,782.7637 " fill="none" id="SectionQuestion-to-Question" style="stroke:#222222;stroke-width:1.0;"/><polygon fill="#222222" points="466.5,787.8037,470.5,778.8037,466.5,782.8037,462.5,778.8037,466.5,787.8037" style="stroke:#222222;stroke-width:1.0;"/><text fill="#000000" font-family="sans-serif" font-size="13" lengthAdjust="spacing" textLength="86" x="467.5" y="753.542">corresponds to</text><text fill="#000000" font-family="sans-serif" font-size="13" lengthAdjust="spacing" textLength="7" x="458.7781" y="776.8221">1</text></g><!--link SectionQuestion to Score--><g id="link_SectionQuestion_Score"><path codeLine="124" d="M534.55,678.0137 C551.69,678.0137 569.97,678.0137 586.67,678.0137 " fill="none" id="SectionQuestion-to-Score" style="stroke:#222222;stroke-width:1.0;"/><polygon fill="#222222" points="591.8,678.0137,582.8,674.0137,586.8,678.0137,582.8,682.0137,591.8,678.0137" style="stroke:#222222;stroke-width:1.0;"/><text fill="#000000" font-family="sans-serif" font-size="13" lengthAdjust="spacing" textLength="21" x="552.75" y="671.042">has</text><text fill="#000000" font-family="sans-serif" font-size="13" lengthAdjust="spacing" textLength="7" x="576.9794" y="673.9474">1</text></g><!--reverse link Section to SectionName--><g id="link_Section_SectionName"><path codeLine="126" d="M587.23,581.0737 C633.98,602.8137 702.16,634.5337 747.16,655.4637 " fill="none" id="Section-backto-SectionName" style="stroke:#222222;stroke-width:1.0;"/><polygon fill="#222222" points="575.25,575.5037,579.0107,581.6565,586.1366,580.5516,582.3759,574.3988,575.25,575.5037" style="stroke:#222222;stroke-width:1.0;"/></g><!--link Student to ExamAnswer--><g id="link_Student_ExamAnswer"><path codeLine="128" d="M535.5,89.6137 C535.5,111.2637 535.5,140.6937 535.5,163.4237 " fill="none" id="Student-to-ExamAnswer" style="stroke:#222222;stroke-width:1.0;"/><polygon fill="#222222" points="535.5,168.4537,539.5,159.4537,535.5,163.4537,531.5,159.4537,535.5,168.4537" style="stroke:#222222;stroke-width:1.0;"/><text fill="#000000" font-family="sans-serif" font-size="13" lengthAdjust="spacing" textLength="21" x="536.5" y="134.542">has</text><text fill="#000000" font-family="sans-serif" font-size="13" lengthAdjust="spacing" textLength="20" x="513.3125" y="157.0194">0..*</text></g><!--link ExamAnswer to Exam--><g id="link_ExamAnswer_Exam"><path codeLine="130" d="M535.5,229.9037 C535.5,269.3037 535.5,338.4637 535.5,380.1737 " fill="none" id="ExamAnswer-to-Exam" style="stroke:#222222;stroke-width:1.0;"/><polygon fill="#222222" points="535.5,385.3737,539.5,376.3737,535.5,380.3737,531.5,376.3737,535.5,385.3737" style="stroke:#222222;stroke-width:1.0;"/><text fill="#000000" font-family="sans-serif" font-size="13" lengthAdjust="spacing" textLength="28" x="536.5" y="312.042">is for</text><text fill="#000000" font-family="sans-serif" font-size="13" lengthAdjust="spacing" textLength="7" x="527.7781" y="374.4065">1</text></g><!--SRC=[bLLRRzem57xthx3IbwqQY4vxc524nBL3wc1hw5uh9paDNaaSsKuxolRVvyIvs4aHm0luEz-vNn3FD4a99p4ETaI8iPIS-fc4PS0IZxu17g0j3G53dCez9fLOc6WCSij2WOHjQqA2vuYpB0cdRCSuze56O936dBDNBRhwN7mGGgbI8X5WntL95768Y8JH2C__aDZ11uGn998gdpdGl3m896M90WhFU0OYu3GjCPlqCmDXaRs0SMXUKdbiNbfdHM90_uw7js0y9fA-G2TEIvARU0_7hgjXPSfrEMDI_JZax6FbU26xZEIHTGjZYL2ToOR6JLeBWD1NfZVxj05lEGcXG9emRMjdnbc7MPNQ2h2k__7qF9c5YcsfbPWHMwkVPd07awOLBwxnb6LSW1M3XWpR6hYyVQgMuqIy0k_Cj8RD3jJWnMusG89joqU96GvAvBXr8v2JfB8dLY-KjBDCYl3XrwUhnUBhvClW8ywd333pVok6LZ6MyIGNTOVwJFlro9_9D-xAcHhvsfsRR7w7JYVRMgFtMw9ukbz_U-sBKE6zrcr2hLtlzKRO6VJxDuvEOeY595nYcH-Iarn8Gir49I5dAB7kw11JWMc2KCBKosTIiXYpf_hupkx7Yutw_l4mkLjwt-OpbDlBoQMzQnM-SzFlNplrxRVzb9jPE7hYB6w9gw4lv047vJR4_hvJ1EMdLoXO5_COgRcWHf2EzM_KphXrYLVhrLnzhLUFtiFa-tApNA_KKnLZVlyulLjxozMjKOgMhSRzfOQgjUsMjRxMxMjRLR86XbZDBmUHiYGKMBAkHZa1nPWFyPO8sx7vNukggrrDbeh8k8Ibje7KdIqghzlEEFeF]--></g></svg>