<?xml version="1.0" encoding="us-ascii" standalone="no"?><svg xmlns="http://www.w3.org/2000/svg" xmlns:xlink="http://www.w3.org/1999/xlink" contentStyleType="text/css" height="993px" preserveAspectRatio="none" style="width:1198px;height:993px;background:#FFFFFF;" version="1.1" viewBox="0 0 1198 993" width="1198px" zoomAndPan="magnify"><defs/><g><!--class ListCourseExamsUI--><g id="elem_ListCourseExamsUI"><rect codeLine="2" fill="#F1F1F1" height="48" id="ListCourseExamsUI" rx="2.5" ry="2.5" style="stroke:#181818;stroke-width:0.5;" width="153" x="523" y="7"/><ellipse cx="538" cy="23" fill="#ADD1B2" rx="11" ry="11" style="stroke:#181818;stroke-width:1.0;"/><path d="M540.7656,18.875 Q540.9219,18.6563 541.1094,18.5469 Q541.2969,18.4375 541.5156,18.4375 Q541.8906,18.4375 542.125,18.7031 Q542.3594,18.9531 542.3594,19.5625 L542.3594,21.0156 Q542.3594,21.625 542.125,21.8906 Q541.8906,22.1563 541.5156,22.1563 Q541.1719,22.1563 540.9688,21.9531 Q540.7656,21.7656 540.6563,21.25 Q540.6094,20.8906 540.4219,20.7031 Q540.0938,20.3281 539.4844,20.1094 Q538.875,19.8906 538.25,19.8906 Q537.4844,19.8906 536.8438,20.2188 Q536.2188,20.5469 535.7188,21.2969 Q535.2344,22.0469 535.2344,23.0781 L535.2344,24.1719 Q535.2344,25.4063 536.125,26.2344 Q537.0156,27.0469 538.6094,27.0469 Q539.5469,27.0469 540.2031,26.7969 Q540.5938,26.6406 541.0156,26.2031 Q541.2813,25.9375 541.4219,25.8594 Q541.5781,25.7813 541.7813,25.7813 Q542.1094,25.7813 542.3594,26.0469 Q542.625,26.2969 542.625,26.6406 Q542.625,26.9844 542.2813,27.3906 Q541.7813,27.9688 540.9844,28.2969 Q539.9063,28.75 538.6094,28.75 Q537.0938,28.75 535.8906,28.125 Q534.9063,27.625 534.2188,26.5625 Q533.5313,25.4844 533.5313,24.2031 L533.5313,23.0469 Q533.5313,21.7188 534.1406,20.5781 Q534.7656,19.4219 535.8594,18.8125 Q536.9531,18.1875 538.1875,18.1875 Q538.9219,18.1875 539.5625,18.3594 Q540.2188,18.5156 540.7656,18.875 Z " fill="#000000"/><text fill="#000000" font-family="sans-serif" font-size="14" lengthAdjust="spacing" textLength="121" x="552" y="28.7969">ListCourseExamsUI</text><line style="stroke:#181818;stroke-width:0.5;" x1="524" x2="675" y1="39" y2="39"/><line style="stroke:#181818;stroke-width:0.5;" x1="524" x2="675" y1="47" y2="47"/></g><!--class ListCourseExamsController--><g id="elem_ListCourseExamsController"><rect codeLine="6" fill="#F1F1F1" height="159.7266" id="ListCourseExamsController" rx="2.5" ry="2.5" style="stroke:#181818;stroke-width:0.5;" width="209" x="495" y="115"/><ellipse cx="512.7" cy="131" fill="#ADD1B2" rx="11" ry="11" style="stroke:#181818;stroke-width:1.0;"/><path d="M515.4656,126.875 Q515.6219,126.6563 515.8094,126.5469 Q515.9969,126.4375 516.2156,126.4375 Q516.5906,126.4375 516.825,126.7031 Q517.0594,126.9531 517.0594,127.5625 L517.0594,129.0156 Q517.0594,129.625 516.825,129.8906 Q516.5906,130.1563 516.2156,130.1563 Q515.8719,130.1563 515.6688,129.9531 Q515.4656,129.7656 515.3563,129.25 Q515.3094,128.8906 515.1219,128.7031 Q514.7938,128.3281 514.1844,128.1094 Q513.575,127.8906 512.95,127.8906 Q512.1844,127.8906 511.5438,128.2188 Q510.9188,128.5469 510.4188,129.2969 Q509.9344,130.0469 509.9344,131.0781 L509.9344,132.1719 Q509.9344,133.4063 510.825,134.2344 Q511.7156,135.0469 513.3094,135.0469 Q514.2469,135.0469 514.9031,134.7969 Q515.2938,134.6406 515.7156,134.2031 Q515.9813,133.9375 516.1219,133.8594 Q516.2781,133.7813 516.4813,133.7813 Q516.8094,133.7813 517.0594,134.0469 Q517.325,134.2969 517.325,134.6406 Q517.325,134.9844 516.9813,135.3906 Q516.4813,135.9688 515.6844,136.2969 Q514.6063,136.75 513.3094,136.75 Q511.7938,136.75 510.5906,136.125 Q509.6063,135.625 508.9188,134.5625 Q508.2313,133.4844 508.2313,132.2031 L508.2313,131.0469 Q508.2313,129.7188 508.8406,128.5781 Q509.4656,127.4219 510.5594,126.8125 Q511.6531,126.1875 512.8875,126.1875 Q513.6219,126.1875 514.2625,126.3594 Q514.9188,126.5156 515.4656,126.875 Z " fill="#000000"/><text fill="#000000" font-family="sans-serif" font-size="14" lengthAdjust="spacing" textLength="171" x="527.3" y="136.7969">ListCourseExamsController</text><line style="stroke:#181818;stroke-width:0.5;" x1="496" x2="703" y1="147" y2="147"/><rect fill="none" height="6" style="stroke:#C82930;stroke-width:1.0;" width="6" x="503" y="158.8105"/><text fill="#000000" font-family="sans-serif" font-size="14" lengthAdjust="spacing" textLength="112" x="515" y="166.1074">courseListService</text><rect fill="none" height="6" style="stroke:#C82930;stroke-width:1.0;" width="6" x="503" y="177.4316"/><text fill="#000000" font-family="sans-serif" font-size="14" lengthAdjust="spacing" textLength="111" x="515" y="184.7285">courseRepository</text><rect fill="none" height="6" style="stroke:#C82930;stroke-width:1.0;" width="6" x="503" y="196.0527"/><text fill="#000000" font-family="sans-serif" font-size="14" lengthAdjust="spacing" textLength="128" x="515" y="203.3496">authorizationService</text><rect fill="none" height="6" style="stroke:#C82930;stroke-width:1.0;" width="6" x="503" y="214.6738"/><text fill="#000000" font-family="sans-serif" font-size="14" lengthAdjust="spacing" textLength="102" x="515" y="221.9707">examListService</text><line style="stroke:#181818;stroke-width:0.5;" x1="496" x2="703" y1="229.4844" y2="229.4844"/><ellipse cx="506" cy="244.2949" fill="#84BE84" rx="3" ry="3" style="stroke:#038048;stroke-width:1.0;"/><text fill="#000000" font-family="sans-serif" font-size="14" lengthAdjust="spacing" textLength="183" x="515" y="248.5918">listOpenInProgressCourses()</text><ellipse cx="506" cy="262.916" fill="#84BE84" rx="3" ry="3" style="stroke:#038048;stroke-width:1.0;"/><text fill="#000000" font-family="sans-serif" font-size="14" lengthAdjust="spacing" textLength="157" x="515" y="267.2129">listCourseExams(course)</text></g><!--class Course--><g id="elem_Course"><rect codeLine="16" fill="#F1F1F1" height="196.9688" id="Course" rx="2.5" ry="2.5" style="stroke:#181818;stroke-width:0.5;" width="166" x="824.5" y="499"/><ellipse cx="880.25" cy="515" fill="#ADD1B2" rx="11" ry="11" style="stroke:#181818;stroke-width:1.0;"/><path d="M883.0156,510.875 Q883.1719,510.6563 883.3594,510.5469 Q883.5469,510.4375 883.7656,510.4375 Q884.1406,510.4375 884.375,510.7031 Q884.6094,510.9531 884.6094,511.5625 L884.6094,513.0156 Q884.6094,513.625 884.375,513.8906 Q884.1406,514.1563 883.7656,514.1563 Q883.4219,514.1563 883.2188,513.9531 Q883.0156,513.7656 882.9063,513.25 Q882.8594,512.8906 882.6719,512.7031 Q882.3438,512.3281 881.7344,512.1094 Q881.125,511.8906 880.5,511.8906 Q879.7344,511.8906 879.0938,512.2188 Q878.4688,512.5469 877.9688,513.2969 Q877.4844,514.0469 877.4844,515.0781 L877.4844,516.1719 Q877.4844,517.4063 878.375,518.2344 Q879.2656,519.0469 880.8594,519.0469 Q881.7969,519.0469 882.4531,518.7969 Q882.8438,518.6406 883.2656,518.2031 Q883.5313,517.9375 883.6719,517.8594 Q883.8281,517.7813 884.0313,517.7813 Q884.3594,517.7813 884.6094,518.0469 Q884.875,518.2969 884.875,518.6406 Q884.875,518.9844 884.5313,519.3906 Q884.0313,519.9688 883.2344,520.2969 Q882.1563,520.75 880.8594,520.75 Q879.3438,520.75 878.1406,520.125 Q877.1563,519.625 876.4688,518.5625 Q875.7813,517.4844 875.7813,516.2031 L875.7813,515.0469 Q875.7813,513.7188 876.3906,512.5781 Q877.0156,511.4219 878.1094,510.8125 Q879.2031,510.1875 880.4375,510.1875 Q881.1719,510.1875 881.8125,510.3594 Q882.4688,510.5156 883.0156,510.875 Z " fill="#000000"/><text fill="#000000" font-family="sans-serif" font-size="14" lengthAdjust="spacing" textLength="46" x="900.75" y="520.7969">Course</text><line style="stroke:#181818;stroke-width:0.5;" x1="825.5" x2="989.5" y1="531" y2="531"/><rect fill="none" height="6" style="stroke:#C82930;stroke-width:1.0;" width="6" x="832.5" y="542.8105"/><text fill="#000000" font-family="sans-serif" font-size="14" lengthAdjust="spacing" textLength="31" x="844.5" y="550.1074">code</text><rect fill="none" height="6" style="stroke:#C82930;stroke-width:1.0;" width="6" x="832.5" y="561.4316"/><text fill="#000000" font-family="sans-serif" font-size="14" lengthAdjust="spacing" textLength="22" x="844.5" y="568.7285">title</text><rect fill="none" height="6" style="stroke:#C82930;stroke-width:1.0;" width="6" x="832.5" y="580.0527"/><text fill="#000000" font-family="sans-serif" font-size="14" lengthAdjust="spacing" textLength="69" x="844.5" y="587.3496">description</text><rect fill="none" height="6" style="stroke:#C82930;stroke-width:1.0;" width="6" x="832.5" y="598.6738"/><text fill="#000000" font-family="sans-serif" font-size="14" lengthAdjust="spacing" textLength="99" x="844.5" y="605.9707">enrolmentLimits</text><rect fill="none" height="6" style="stroke:#C82930;stroke-width:1.0;" width="6" x="832.5" y="617.2949"/><text fill="#000000" font-family="sans-serif" font-size="14" lengthAdjust="spacing" textLength="76" x="844.5" y="624.5918">courseState</text><rect fill="none" height="6" style="stroke:#C82930;stroke-width:1.0;" width="6" x="832.5" y="635.916"/><text fill="#000000" font-family="sans-serif" font-size="14" lengthAdjust="spacing" textLength="140" x="844.5" y="643.2129">courseEnrolmentState</text><rect fill="none" height="6" style="stroke:#C82930;stroke-width:1.0;" width="6" x="832.5" y="654.5371"/><text fill="#000000" font-family="sans-serif" font-size="14" lengthAdjust="spacing" textLength="61" x="844.5" y="661.834">createdAt</text><line style="stroke:#181818;stroke-width:0.5;" x1="825.5" x2="989.5" y1="669.3477" y2="669.3477"/><ellipse cx="835.5" cy="684.1582" fill="#84BE84" rx="3" ry="3" style="stroke:#038048;stroke-width:1.0;"/><text fill="#000000" font-family="sans-serif" font-size="14" lengthAdjust="spacing" textLength="44" x="844.5" y="688.4551">toDto()</text></g><!--class RepositoryFactory--><g id="elem_RepositoryFactory"><rect codeLine="27" fill="#F1F1F1" height="66.6211" id="RepositoryFactory" rx="2.5" ry="2.5" style="stroke:#181818;stroke-width:0.5;" width="152" x="145.5" y="564"/><ellipse cx="162.3" cy="580" fill="#ADD1B2" rx="11" ry="11" style="stroke:#181818;stroke-width:1.0;"/><path d="M165.0656,575.875 Q165.2219,575.6563 165.4094,575.5469 Q165.5969,575.4375 165.8156,575.4375 Q166.1906,575.4375 166.425,575.7031 Q166.6594,575.9531 166.6594,576.5625 L166.6594,578.0156 Q166.6594,578.625 166.425,578.8906 Q166.1906,579.1563 165.8156,579.1563 Q165.4719,579.1563 165.2688,578.9531 Q165.0656,578.7656 164.9563,578.25 Q164.9094,577.8906 164.7219,577.7031 Q164.3938,577.3281 163.7844,577.1094 Q163.175,576.8906 162.55,576.8906 Q161.7844,576.8906 161.1438,577.2188 Q160.5188,577.5469 160.0188,578.2969 Q159.5344,579.0469 159.5344,580.0781 L159.5344,581.1719 Q159.5344,582.4063 160.425,583.2344 Q161.3156,584.0469 162.9094,584.0469 Q163.8469,584.0469 164.5031,583.7969 Q164.8938,583.6406 165.3156,583.2031 Q165.5813,582.9375 165.7219,582.8594 Q165.8781,582.7813 166.0813,582.7813 Q166.4094,582.7813 166.6594,583.0469 Q166.925,583.2969 166.925,583.6406 Q166.925,583.9844 166.5813,584.3906 Q166.0813,584.9688 165.2844,585.2969 Q164.2063,585.75 162.9094,585.75 Q161.3938,585.75 160.1906,585.125 Q159.2063,584.625 158.5188,583.5625 Q157.8313,582.4844 157.8313,581.2031 L157.8313,580.0469 Q157.8313,578.7188 158.4406,577.5781 Q159.0656,576.4219 160.1594,575.8125 Q161.2531,575.1875 162.4875,575.1875 Q163.2219,575.1875 163.8625,575.3594 Q164.5188,575.5156 165.0656,575.875 Z " fill="#000000"/><text fill="#000000" font-family="sans-serif" font-size="14" lengthAdjust="spacing" textLength="116" x="176.7" y="585.7969">RepositoryFactory</text><line style="stroke:#181818;stroke-width:0.5;" x1="146.5" x2="296.5" y1="596" y2="596"/><line style="stroke:#181818;stroke-width:0.5;" x1="146.5" x2="296.5" y1="604" y2="604"/><ellipse cx="156.5" cy="618.8105" fill="#84BE84" rx="3" ry="3" style="stroke:#038048;stroke-width:1.0;"/><text fill="#000000" font-family="sans-serif" font-size="14" lengthAdjust="spacing" textLength="126" x="165.5" y="623.1074">RepositoryFactory()</text></g><!--class CourseRepository--><g id="elem_CourseRepository"><rect codeLine="31" fill="#F1F1F1" height="85.2422" id="CourseRepository" rx="2.5" ry="2.5" style="stroke:#181818;stroke-width:0.5;" width="146" x="148.5" y="756"/><ellipse cx="163.5" cy="772" fill="#B4A7E5" rx="11" ry="11" style="stroke:#181818;stroke-width:1.0;"/><path d="M164.4531,768.6406 L164.4531,775.2969 L166.1719,775.2969 Q166.7813,775.2969 167.0469,775.5313 Q167.3125,775.7656 167.3125,776.1563 Q167.3125,776.5313 167.0469,776.7656 Q166.7813,777 166.1719,777 L161.0313,777 Q160.4219,777 160.1563,776.7656 Q159.8906,776.5313 159.8906,776.1406 Q159.8906,775.7656 160.1563,775.5313 Q160.4219,775.2969 161.0313,775.2969 L162.75,775.2969 L162.75,768.6406 L161.0313,768.6406 Q160.4219,768.6406 160.1563,768.4063 Q159.8906,768.1719 159.8906,767.7813 Q159.8906,767.4063 160.1563,767.1719 Q160.4219,766.9375 161.0313,766.9375 L166.1719,766.9375 Q166.7813,766.9375 167.0469,767.1719 Q167.3125,767.4063 167.3125,767.7813 Q167.3125,768.1719 167.0469,768.4063 Q166.7813,768.6406 166.1719,768.6406 L164.4531,768.6406 Z " fill="#000000"/><text fill="#000000" font-family="sans-serif" font-size="14" font-style="italic" lengthAdjust="spacing" textLength="114" x="177.5" y="777.7969">CourseRepository</text><line style="stroke:#181818;stroke-width:0.5;" x1="149.5" x2="293.5" y1="788" y2="788"/><line style="stroke:#181818;stroke-width:0.5;" x1="149.5" x2="293.5" y1="796" y2="796"/><ellipse cx="159.5" cy="810.8105" fill="#84BE84" rx="3" ry="3" style="stroke:#038048;stroke-width:1.0;"/><text fill="#000000" font-family="sans-serif" font-size="14" lengthAdjust="spacing" textLength="83" x="168.5" y="815.1074">findAllOpen()</text><ellipse cx="159.5" cy="829.4316" fill="#84BE84" rx="3" ry="3" style="stroke:#038048;stroke-width:1.0;"/><text fill="#000000" font-family="sans-serif" font-size="14" lengthAdjust="spacing" textLength="116" x="168.5" y="833.7285">findAllInProgress()</text></g><!--class CourseListService--><g id="elem_CourseListService"><rect codeLine="36" fill="#F1F1F1" height="103.8633" id="CourseListService" rx="2.5" ry="2.5" style="stroke:#181818;stroke-width:0.5;" width="174" x="820.5" y="335"/><ellipse cx="847.65" cy="351" fill="#ADD1B2" rx="11" ry="11" style="stroke:#181818;stroke-width:1.0;"/><path d="M850.4156,346.875 Q850.5719,346.6563 850.7594,346.5469 Q850.9469,346.4375 851.1656,346.4375 Q851.5406,346.4375 851.775,346.7031 Q852.0094,346.9531 852.0094,347.5625 L852.0094,349.0156 Q852.0094,349.625 851.775,349.8906 Q851.5406,350.1563 851.1656,350.1563 Q850.8219,350.1563 850.6188,349.9531 Q850.4156,349.7656 850.3063,349.25 Q850.2594,348.8906 850.0719,348.7031 Q849.7438,348.3281 849.1344,348.1094 Q848.525,347.8906 847.9,347.8906 Q847.1344,347.8906 846.4938,348.2188 Q845.8688,348.5469 845.3688,349.2969 Q844.8844,350.0469 844.8844,351.0781 L844.8844,352.1719 Q844.8844,353.4063 845.775,354.2344 Q846.6656,355.0469 848.2594,355.0469 Q849.1969,355.0469 849.8531,354.7969 Q850.2438,354.6406 850.6656,354.2031 Q850.9313,353.9375 851.0719,353.8594 Q851.2281,353.7813 851.4313,353.7813 Q851.7594,353.7813 852.0094,354.0469 Q852.275,354.2969 852.275,354.6406 Q852.275,354.9844 851.9313,355.3906 Q851.4313,355.9688 850.6344,356.2969 Q849.5563,356.75 848.2594,356.75 Q846.7438,356.75 845.5406,356.125 Q844.5563,355.625 843.8688,354.5625 Q843.1813,353.4844 843.1813,352.2031 L843.1813,351.0469 Q843.1813,349.7188 843.7906,348.5781 Q844.4156,347.4219 845.5094,346.8125 Q846.6031,346.1875 847.8375,346.1875 Q848.5719,346.1875 849.2125,346.3594 Q849.8688,346.5156 850.4156,346.875 Z " fill="#000000"/><text fill="#000000" font-family="sans-serif" font-size="14" lengthAdjust="spacing" textLength="115" x="864.35" y="356.7969">CourseListService</text><line style="stroke:#181818;stroke-width:0.5;" x1="821.5" x2="993.5" y1="367" y2="367"/><rect fill="none" height="6" style="stroke:#C82930;stroke-width:1.0;" width="6" x="828.5" y="378.8105"/><text fill="#000000" font-family="sans-serif" font-size="14" lengthAdjust="spacing" textLength="111" x="840.5" y="386.1074">courseRepository</text><line style="stroke:#181818;stroke-width:0.5;" x1="821.5" x2="993.5" y1="393.6211" y2="393.6211"/><ellipse cx="831.5" cy="408.4316" fill="#84BE84" rx="3" ry="3" style="stroke:#038048;stroke-width:1.0;"/><text fill="#000000" font-family="sans-serif" font-size="14" lengthAdjust="spacing" textLength="115" x="840.5" y="412.7285">listOpenCourses()</text><ellipse cx="831.5" cy="427.0527" fill="#84BE84" rx="3" ry="3" style="stroke:#038048;stroke-width:1.0;"/><text fill="#000000" font-family="sans-serif" font-size="14" lengthAdjust="spacing" textLength="148" x="840.5" y="431.3496">listInProgressCourses()</text></g><!--class ExamListService--><g id="elem_ExamListService"><rect codeLine="43" fill="#F1F1F1" height="85.2422" id="ExamListService" rx="2.5" ry="2.5" style="stroke:#181818;stroke-width:0.5;" width="198" x="333.5" y="344.5"/><ellipse cx="376.85" cy="360.5" fill="#ADD1B2" rx="11" ry="11" style="stroke:#181818;stroke-width:1.0;"/><path d="M379.6156,356.375 Q379.7719,356.1563 379.9594,356.0469 Q380.1469,355.9375 380.3656,355.9375 Q380.7406,355.9375 380.975,356.2031 Q381.2094,356.4531 381.2094,357.0625 L381.2094,358.5156 Q381.2094,359.125 380.975,359.3906 Q380.7406,359.6563 380.3656,359.6563 Q380.0219,359.6563 379.8188,359.4531 Q379.6156,359.2656 379.5063,358.75 Q379.4594,358.3906 379.2719,358.2031 Q378.9438,357.8281 378.3344,357.6094 Q377.725,357.3906 377.1,357.3906 Q376.3344,357.3906 375.6938,357.7188 Q375.0688,358.0469 374.5688,358.7969 Q374.0844,359.5469 374.0844,360.5781 L374.0844,361.6719 Q374.0844,362.9063 374.975,363.7344 Q375.8656,364.5469 377.4594,364.5469 Q378.3969,364.5469 379.0531,364.2969 Q379.4438,364.1406 379.8656,363.7031 Q380.1313,363.4375 380.2719,363.3594 Q380.4281,363.2813 380.6313,363.2813 Q380.9594,363.2813 381.2094,363.5469 Q381.475,363.7969 381.475,364.1406 Q381.475,364.4844 381.1313,364.8906 Q380.6313,365.4688 379.8344,365.7969 Q378.7563,366.25 377.4594,366.25 Q375.9438,366.25 374.7406,365.625 Q373.7563,365.125 373.0688,364.0625 Q372.3813,362.9844 372.3813,361.7031 L372.3813,360.5469 Q372.3813,359.2188 372.9906,358.0781 Q373.6156,356.9219 374.7094,356.3125 Q375.8031,355.6875 377.0375,355.6875 Q377.7719,355.6875 378.4125,355.8594 Q379.0688,356.0156 379.6156,356.375 Z " fill="#000000"/><text fill="#000000" font-family="sans-serif" font-size="14" lengthAdjust="spacing" textLength="103" x="397.15" y="366.2969">ExamListService</text><line style="stroke:#181818;stroke-width:0.5;" x1="334.5" x2="530.5" y1="376.5" y2="376.5"/><rect fill="none" height="6" style="stroke:#C82930;stroke-width:1.0;" width="6" x="341.5" y="388.3105"/><text fill="#000000" font-family="sans-serif" font-size="14" lengthAdjust="spacing" textLength="101" x="353.5" y="395.6074">examRepository</text><line style="stroke:#181818;stroke-width:0.5;" x1="334.5" x2="530.5" y1="403.1211" y2="403.1211"/><ellipse cx="344.5" cy="417.9316" fill="#84BE84" rx="3" ry="3" style="stroke:#038048;stroke-width:1.0;"/><text fill="#000000" font-family="sans-serif" font-size="14" lengthAdjust="spacing" textLength="172" x="353.5" y="422.2285">listAllCourseExams(course)</text></g><!--class Exam--><g id="elem_Exam"><rect codeLine="49" fill="#F1F1F1" height="196.9688" id="Exam" rx="2.5" ry="2.5" style="stroke:#181818;stroke-width:0.5;" width="95" x="423" y="499"/><ellipse cx="451.05" cy="515" fill="#ADD1B2" rx="11" ry="11" style="stroke:#181818;stroke-width:1.0;"/><path d="M453.8156,510.875 Q453.9719,510.6563 454.1594,510.5469 Q454.3469,510.4375 454.5656,510.4375 Q454.9406,510.4375 455.175,510.7031 Q455.4094,510.9531 455.4094,511.5625 L455.4094,513.0156 Q455.4094,513.625 455.175,513.8906 Q454.9406,514.1563 454.5656,514.1563 Q454.2219,514.1563 454.0188,513.9531 Q453.8156,513.7656 453.7063,513.25 Q453.6594,512.8906 453.4719,512.7031 Q453.1438,512.3281 452.5344,512.1094 Q451.925,511.8906 451.3,511.8906 Q450.5344,511.8906 449.8938,512.2188 Q449.2688,512.5469 448.7688,513.2969 Q448.2844,514.0469 448.2844,515.0781 L448.2844,516.1719 Q448.2844,517.4063 449.175,518.2344 Q450.0656,519.0469 451.6594,519.0469 Q452.5969,519.0469 453.2531,518.7969 Q453.6438,518.6406 454.0656,518.2031 Q454.3313,517.9375 454.4719,517.8594 Q454.6281,517.7813 454.8313,517.7813 Q455.1594,517.7813 455.4094,518.0469 Q455.675,518.2969 455.675,518.6406 Q455.675,518.9844 455.3313,519.3906 Q454.8313,519.9688 454.0344,520.2969 Q452.9563,520.75 451.6594,520.75 Q450.1438,520.75 448.9406,520.125 Q447.9563,519.625 447.2688,518.5625 Q446.5813,517.4844 446.5813,516.2031 L446.5813,515.0469 Q446.5813,513.7188 447.1906,512.5781 Q447.8156,511.4219 448.9094,510.8125 Q450.0031,510.1875 451.2375,510.1875 Q451.9719,510.1875 452.6125,510.3594 Q453.2688,510.5156 453.8156,510.875 Z " fill="#000000"/><text fill="#000000" font-family="sans-serif" font-size="14" lengthAdjust="spacing" textLength="34" x="467.95" y="520.7969">Exam</text><line style="stroke:#181818;stroke-width:0.5;" x1="424" x2="517" y1="531" y2="531"/><rect fill="none" height="6" style="stroke:#C82930;stroke-width:1.0;" width="6" x="431" y="542.8105"/><text fill="#000000" font-family="sans-serif" font-size="14" lengthAdjust="spacing" textLength="31" x="443" y="550.1074">code</text><rect fill="none" height="6" style="stroke:#C82930;stroke-width:1.0;" width="6" x="431" y="561.4316"/><text fill="#000000" font-family="sans-serif" font-size="14" lengthAdjust="spacing" textLength="43" x="443" y="568.7285">course</text><rect fill="none" height="6" style="stroke:#C82930;stroke-width:1.0;" width="6" x="431" y="580.0527"/><text fill="#000000" font-family="sans-serif" font-size="14" lengthAdjust="spacing" textLength="48" x="443" y="587.3496">teacher</text><rect fill="none" height="6" style="stroke:#C82930;stroke-width:1.0;" width="6" x="431" y="598.6738"/><text fill="#000000" font-family="sans-serif" font-size="14" lengthAdjust="spacing" textLength="54" x="443" y="605.9707">identifier</text><rect fill="none" height="6" style="stroke:#C82930;stroke-width:1.0;" width="6" x="431" y="617.2949"/><text fill="#000000" font-family="sans-serif" font-size="14" lengthAdjust="spacing" textLength="22" x="443" y="624.5918">title</text><rect fill="none" height="6" style="stroke:#C82930;stroke-width:1.0;" width="6" x="431" y="635.916"/><text fill="#000000" font-family="sans-serif" font-size="14" lengthAdjust="spacing" textLength="69" x="443" y="643.2129">description</text><rect fill="none" height="6" style="stroke:#C82930;stroke-width:1.0;" width="6" x="431" y="654.5371"/><text fill="#000000" font-family="sans-serif" font-size="14" lengthAdjust="spacing" textLength="31" x="443" y="661.834">state</text><line style="stroke:#181818;stroke-width:0.5;" x1="424" x2="517" y1="669.3477" y2="669.3477"/><ellipse cx="434" cy="684.1582" fill="#84BE84" rx="3" ry="3" style="stroke:#038048;stroke-width:1.0;"/><text fill="#000000" font-family="sans-serif" font-size="14" lengthAdjust="spacing" textLength="44" x="443" y="688.4551">toDto()</text></g><!--class ExamDTO--><g id="elem_ExamDTO"><rect codeLine="60" fill="#F1F1F1" height="178.3477" id="ExamDTO" rx="2.5" ry="2.5" style="stroke:#181818;stroke-width:0.5;" width="96" x="592.5" y="508.5"/><ellipse cx="607.5" cy="524.5" fill="#ADD1B2" rx="11" ry="11" style="stroke:#181818;stroke-width:1.0;"/><path d="M610.2656,520.375 Q610.4219,520.1563 610.6094,520.0469 Q610.7969,519.9375 611.0156,519.9375 Q611.3906,519.9375 611.625,520.2031 Q611.8594,520.4531 611.8594,521.0625 L611.8594,522.5156 Q611.8594,523.125 611.625,523.3906 Q611.3906,523.6563 611.0156,523.6563 Q610.6719,523.6563 610.4688,523.4531 Q610.2656,523.2656 610.1563,522.75 Q610.1094,522.3906 609.9219,522.2031 Q609.5938,521.8281 608.9844,521.6094 Q608.375,521.3906 607.75,521.3906 Q606.9844,521.3906 606.3438,521.7188 Q605.7188,522.0469 605.2188,522.7969 Q604.7344,523.5469 604.7344,524.5781 L604.7344,525.6719 Q604.7344,526.9063 605.625,527.7344 Q606.5156,528.5469 608.1094,528.5469 Q609.0469,528.5469 609.7031,528.2969 Q610.0938,528.1406 610.5156,527.7031 Q610.7813,527.4375 610.9219,527.3594 Q611.0781,527.2813 611.2813,527.2813 Q611.6094,527.2813 611.8594,527.5469 Q612.125,527.7969 612.125,528.1406 Q612.125,528.4844 611.7813,528.8906 Q611.2813,529.4688 610.4844,529.7969 Q609.4063,530.25 608.1094,530.25 Q606.5938,530.25 605.3906,529.625 Q604.4063,529.125 603.7188,528.0625 Q603.0313,526.9844 603.0313,525.7031 L603.0313,524.5469 Q603.0313,523.2188 603.6406,522.0781 Q604.2656,520.9219 605.3594,520.3125 Q606.4531,519.6875 607.6875,519.6875 Q608.4219,519.6875 609.0625,519.8594 Q609.7188,520.0156 610.2656,520.375 Z " fill="#000000"/><text fill="#000000" font-family="sans-serif" font-size="14" lengthAdjust="spacing" textLength="64" x="621.5" y="530.2969">ExamDTO</text><line style="stroke:#181818;stroke-width:0.5;" x1="593.5" x2="687.5" y1="540.5" y2="540.5"/><rect fill="none" height="6" style="stroke:#C82930;stroke-width:1.0;" width="6" x="600.5" y="552.3105"/><text fill="#000000" font-family="sans-serif" font-size="14" lengthAdjust="spacing" textLength="31" x="612.5" y="559.6074">code</text><rect fill="none" height="6" style="stroke:#C82930;stroke-width:1.0;" width="6" x="600.5" y="570.9316"/><text fill="#000000" font-family="sans-serif" font-size="14" lengthAdjust="spacing" textLength="43" x="612.5" y="578.2285">course</text><rect fill="none" height="6" style="stroke:#C82930;stroke-width:1.0;" width="6" x="600.5" y="589.5527"/><text fill="#000000" font-family="sans-serif" font-size="14" lengthAdjust="spacing" textLength="48" x="612.5" y="596.8496">teacher</text><rect fill="none" height="6" style="stroke:#C82930;stroke-width:1.0;" width="6" x="600.5" y="608.1738"/><text fill="#000000" font-family="sans-serif" font-size="14" lengthAdjust="spacing" textLength="54" x="612.5" y="615.4707">identifier</text><rect fill="none" height="6" style="stroke:#C82930;stroke-width:1.0;" width="6" x="600.5" y="626.7949"/><text fill="#000000" font-family="sans-serif" font-size="14" lengthAdjust="spacing" textLength="22" x="612.5" y="634.0918">title</text><rect fill="none" height="6" style="stroke:#C82930;stroke-width:1.0;" width="6" x="600.5" y="645.416"/><text fill="#000000" font-family="sans-serif" font-size="14" lengthAdjust="spacing" textLength="69" x="612.5" y="652.7129">description</text><rect fill="none" height="6" style="stroke:#C82930;stroke-width:1.0;" width="6" x="600.5" y="664.0371"/><text fill="#000000" font-family="sans-serif" font-size="14" lengthAdjust="spacing" textLength="31" x="612.5" y="671.334">state</text><line style="stroke:#181818;stroke-width:0.5;" x1="593.5" x2="687.5" y1="678.8477" y2="678.8477"/></g><!--class ExamDTOParser--><g id="elem_ExamDTOParser"><rect codeLine="70" fill="#F1F1F1" height="66.6211" id="ExamDTOParser" rx="2.5" ry="2.5" style="stroke:#181818;stroke-width:0.5;" width="148" x="566.5" y="353.5"/><ellipse cx="586" cy="369.5" fill="#ADD1B2" rx="11" ry="11" style="stroke:#181818;stroke-width:1.0;"/><path d="M588.7656,365.375 Q588.9219,365.1563 589.1094,365.0469 Q589.2969,364.9375 589.5156,364.9375 Q589.8906,364.9375 590.125,365.2031 Q590.3594,365.4531 590.3594,366.0625 L590.3594,367.5156 Q590.3594,368.125 590.125,368.3906 Q589.8906,368.6563 589.5156,368.6563 Q589.1719,368.6563 588.9688,368.4531 Q588.7656,368.2656 588.6563,367.75 Q588.6094,367.3906 588.4219,367.2031 Q588.0938,366.8281 587.4844,366.6094 Q586.875,366.3906 586.25,366.3906 Q585.4844,366.3906 584.8438,366.7188 Q584.2188,367.0469 583.7188,367.7969 Q583.2344,368.5469 583.2344,369.5781 L583.2344,370.6719 Q583.2344,371.9063 584.125,372.7344 Q585.0156,373.5469 586.6094,373.5469 Q587.5469,373.5469 588.2031,373.2969 Q588.5938,373.1406 589.0156,372.7031 Q589.2813,372.4375 589.4219,372.3594 Q589.5781,372.2813 589.7813,372.2813 Q590.1094,372.2813 590.3594,372.5469 Q590.625,372.7969 590.625,373.1406 Q590.625,373.4844 590.2813,373.8906 Q589.7813,374.4688 588.9844,374.7969 Q587.9063,375.25 586.6094,375.25 Q585.0938,375.25 583.8906,374.625 Q582.9063,374.125 582.2188,373.0625 Q581.5313,371.9844 581.5313,370.7031 L581.5313,369.5469 Q581.5313,368.2188 582.1406,367.0781 Q582.7656,365.9219 583.8594,365.3125 Q584.9531,364.6875 586.1875,364.6875 Q586.9219,364.6875 587.5625,364.8594 Q588.2188,365.0156 588.7656,365.375 Z " fill="#000000"/><text fill="#000000" font-family="sans-serif" font-size="14" lengthAdjust="spacing" textLength="106" x="601" y="375.2969">ExamDTOParser</text><line style="stroke:#181818;stroke-width:0.5;" x1="567.5" x2="713.5" y1="385.5" y2="385.5"/><line style="stroke:#181818;stroke-width:0.5;" x1="567.5" x2="713.5" y1="393.5" y2="393.5"/><ellipse cx="577.5" cy="408.3105" fill="#84BE84" rx="3" ry="3" style="stroke:#038048;stroke-width:1.0;"/><text fill="#000000" font-family="sans-serif" font-size="14" lengthAdjust="spacing" textLength="122" x="586.5" y="412.6074">valueOf(examDTO)</text></g><!--class CourseDTO--><g id="elem_CourseDTO"><rect codeLine="74" fill="#F1F1F1" height="178.3477" id="CourseDTO" rx="2.5" ry="2.5" style="stroke:#181818;stroke-width:0.5;" width="166" x="1025.5" y="508.5"/><ellipse cx="1066.6" cy="524.5" fill="#ADD1B2" rx="11" ry="11" style="stroke:#181818;stroke-width:1.0;"/><path d="M1069.3656,520.375 Q1069.5219,520.1563 1069.7094,520.0469 Q1069.8969,519.9375 1070.1156,519.9375 Q1070.4906,519.9375 1070.725,520.2031 Q1070.9594,520.4531 1070.9594,521.0625 L1070.9594,522.5156 Q1070.9594,523.125 1070.725,523.3906 Q1070.4906,523.6563 1070.1156,523.6563 Q1069.7719,523.6563 1069.5688,523.4531 Q1069.3656,523.2656 1069.2563,522.75 Q1069.2094,522.3906 1069.0219,522.2031 Q1068.6938,521.8281 1068.0844,521.6094 Q1067.475,521.3906 1066.85,521.3906 Q1066.0844,521.3906 1065.4438,521.7188 Q1064.8188,522.0469 1064.3188,522.7969 Q1063.8344,523.5469 1063.8344,524.5781 L1063.8344,525.6719 Q1063.8344,526.9063 1064.725,527.7344 Q1065.6156,528.5469 1067.2094,528.5469 Q1068.1469,528.5469 1068.8031,528.2969 Q1069.1938,528.1406 1069.6156,527.7031 Q1069.8813,527.4375 1070.0219,527.3594 Q1070.1781,527.2813 1070.3813,527.2813 Q1070.7094,527.2813 1070.9594,527.5469 Q1071.225,527.7969 1071.225,528.1406 Q1071.225,528.4844 1070.8813,528.8906 Q1070.3813,529.4688 1069.5844,529.7969 Q1068.5063,530.25 1067.2094,530.25 Q1065.6938,530.25 1064.4906,529.625 Q1063.5063,529.125 1062.8188,528.0625 Q1062.1313,526.9844 1062.1313,525.7031 L1062.1313,524.5469 Q1062.1313,523.2188 1062.7406,522.0781 Q1063.3656,520.9219 1064.4594,520.3125 Q1065.5531,519.6875 1066.7875,519.6875 Q1067.5219,519.6875 1068.1625,519.8594 Q1068.8188,520.0156 1069.3656,520.375 Z " fill="#000000"/><text fill="#000000" font-family="sans-serif" font-size="14" lengthAdjust="spacing" textLength="76" x="1086.4" y="530.2969">CourseDTO</text><line style="stroke:#181818;stroke-width:0.5;" x1="1026.5" x2="1190.5" y1="540.5" y2="540.5"/><rect fill="none" height="6" style="stroke:#C82930;stroke-width:1.0;" width="6" x="1033.5" y="552.3105"/><text fill="#000000" font-family="sans-serif" font-size="14" lengthAdjust="spacing" textLength="31" x="1045.5" y="559.6074">code</text><rect fill="none" height="6" style="stroke:#C82930;stroke-width:1.0;" width="6" x="1033.5" y="570.9316"/><text fill="#000000" font-family="sans-serif" font-size="14" lengthAdjust="spacing" textLength="22" x="1045.5" y="578.2285">title</text><rect fill="none" height="6" style="stroke:#C82930;stroke-width:1.0;" width="6" x="1033.5" y="589.5527"/><text fill="#000000" font-family="sans-serif" font-size="14" lengthAdjust="spacing" textLength="69" x="1045.5" y="596.8496">description</text><rect fill="none" height="6" style="stroke:#C82930;stroke-width:1.0;" width="6" x="1033.5" y="608.1738"/><text fill="#000000" font-family="sans-serif" font-size="14" lengthAdjust="spacing" textLength="99" x="1045.5" y="615.4707">enrolmentLimits</text><rect fill="none" height="6" style="stroke:#C82930;stroke-width:1.0;" width="6" x="1033.5" y="626.7949"/><text fill="#000000" font-family="sans-serif" font-size="14" lengthAdjust="spacing" textLength="76" x="1045.5" y="634.0918">courseState</text><rect fill="none" height="6" style="stroke:#C82930;stroke-width:1.0;" width="6" x="1033.5" y="645.416"/><text fill="#000000" font-family="sans-serif" font-size="14" lengthAdjust="spacing" textLength="140" x="1045.5" y="652.7129">courseEnrolmentState</text><rect fill="none" height="6" style="stroke:#C82930;stroke-width:1.0;" width="6" x="1033.5" y="664.0371"/><text fill="#000000" font-family="sans-serif" font-size="14" lengthAdjust="spacing" textLength="61" x="1045.5" y="671.334">createdAt</text><line style="stroke:#181818;stroke-width:0.5;" x1="1026.5" x2="1190.5" y1="678.8477" y2="678.8477"/></g><!--class CourseDTOParser--><g id="elem_CourseDTOParser"><rect codeLine="84" fill="#F1F1F1" height="66.6211" id="CourseDTOParser" rx="2.5" ry="2.5" style="stroke:#181818;stroke-width:0.5;" width="158" x="1029.5" y="353.5"/><ellipse cx="1048.1" cy="369.5" fill="#ADD1B2" rx="11" ry="11" style="stroke:#181818;stroke-width:1.0;"/><path d="M1050.8656,365.375 Q1051.0219,365.1563 1051.2094,365.0469 Q1051.3969,364.9375 1051.6156,364.9375 Q1051.9906,364.9375 1052.225,365.2031 Q1052.4594,365.4531 1052.4594,366.0625 L1052.4594,367.5156 Q1052.4594,368.125 1052.225,368.3906 Q1051.9906,368.6563 1051.6156,368.6563 Q1051.2719,368.6563 1051.0688,368.4531 Q1050.8656,368.2656 1050.7563,367.75 Q1050.7094,367.3906 1050.5219,367.2031 Q1050.1938,366.8281 1049.5844,366.6094 Q1048.975,366.3906 1048.35,366.3906 Q1047.5844,366.3906 1046.9438,366.7188 Q1046.3188,367.0469 1045.8188,367.7969 Q1045.3344,368.5469 1045.3344,369.5781 L1045.3344,370.6719 Q1045.3344,371.9063 1046.225,372.7344 Q1047.1156,373.5469 1048.7094,373.5469 Q1049.6469,373.5469 1050.3031,373.2969 Q1050.6938,373.1406 1051.1156,372.7031 Q1051.3813,372.4375 1051.5219,372.3594 Q1051.6781,372.2813 1051.8813,372.2813 Q1052.2094,372.2813 1052.4594,372.5469 Q1052.725,372.7969 1052.725,373.1406 Q1052.725,373.4844 1052.3813,373.8906 Q1051.8813,374.4688 1051.0844,374.7969 Q1050.0063,375.25 1048.7094,375.25 Q1047.1938,375.25 1045.9906,374.625 Q1045.0063,374.125 1044.3188,373.0625 Q1043.6313,371.9844 1043.6313,370.7031 L1043.6313,369.5469 Q1043.6313,368.2188 1044.2406,367.0781 Q1044.8656,365.9219 1045.9594,365.3125 Q1047.0531,364.6875 1048.2875,364.6875 Q1049.0219,364.6875 1049.6625,364.8594 Q1050.3188,365.0156 1050.8656,365.375 Z " fill="#000000"/><text fill="#000000" font-family="sans-serif" font-size="14" lengthAdjust="spacing" textLength="118" x="1062.9" y="375.2969">CourseDTOParser</text><line style="stroke:#181818;stroke-width:0.5;" x1="1030.5" x2="1186.5" y1="385.5" y2="385.5"/><line style="stroke:#181818;stroke-width:0.5;" x1="1030.5" x2="1186.5" y1="393.5" y2="393.5"/><ellipse cx="1040.5" cy="408.3105" fill="#84BE84" rx="3" ry="3" style="stroke:#038048;stroke-width:1.0;"/><text fill="#000000" font-family="sans-serif" font-size="14" lengthAdjust="spacing" textLength="132" x="1049.5" y="412.6074">valueOf(courseDTO)</text></g><!--class InMemoryCourseRepository--><g id="elem_InMemoryCourseRepository"><rect codeLine="89" fill="#F1F1F1" height="85.2422" id="InMemoryCourseRepository" rx="2.5" ry="2.5" style="stroke:#181818;stroke-width:0.5;" width="207" x="7" y="901"/><ellipse cx="22" cy="917" fill="#ADD1B2" rx="11" ry="11" style="stroke:#181818;stroke-width:1.0;"/><path d="M24.7656,912.875 Q24.9219,912.6563 25.1094,912.5469 Q25.2969,912.4375 25.5156,912.4375 Q25.8906,912.4375 26.125,912.7031 Q26.3594,912.9531 26.3594,913.5625 L26.3594,915.0156 Q26.3594,915.625 26.125,915.8906 Q25.8906,916.1563 25.5156,916.1563 Q25.1719,916.1563 24.9688,915.9531 Q24.7656,915.7656 24.6563,915.25 Q24.6094,914.8906 24.4219,914.7031 Q24.0938,914.3281 23.4844,914.1094 Q22.875,913.8906 22.25,913.8906 Q21.4844,913.8906 20.8438,914.2188 Q20.2188,914.5469 19.7188,915.2969 Q19.2344,916.0469 19.2344,917.0781 L19.2344,918.1719 Q19.2344,919.4063 20.125,920.2344 Q21.0156,921.0469 22.6094,921.0469 Q23.5469,921.0469 24.2031,920.7969 Q24.5938,920.6406 25.0156,920.2031 Q25.2813,919.9375 25.4219,919.8594 Q25.5781,919.7813 25.7813,919.7813 Q26.1094,919.7813 26.3594,920.0469 Q26.625,920.2969 26.625,920.6406 Q26.625,920.9844 26.2813,921.3906 Q25.7813,921.9688 24.9844,922.2969 Q23.9063,922.75 22.6094,922.75 Q21.0938,922.75 19.8906,922.125 Q18.9063,921.625 18.2188,920.5625 Q17.5313,919.4844 17.5313,918.2031 L17.5313,917.0469 Q17.5313,915.7188 18.1406,914.5781 Q18.7656,913.4219 19.8594,912.8125 Q20.9531,912.1875 22.1875,912.1875 Q22.9219,912.1875 23.5625,912.3594 Q24.2188,912.5156 24.7656,912.875 Z " fill="#000000"/><text fill="#000000" font-family="sans-serif" font-size="14" lengthAdjust="spacing" textLength="175" x="36" y="922.7969">InMemoryCourseRepository</text><line style="stroke:#181818;stroke-width:0.5;" x1="8" x2="213" y1="933" y2="933"/><line style="stroke:#181818;stroke-width:0.5;" x1="8" x2="213" y1="941" y2="941"/><ellipse cx="18" cy="955.8105" fill="#84BE84" rx="3" ry="3" style="stroke:#038048;stroke-width:1.0;"/><text fill="#000000" font-family="sans-serif" font-size="14" lengthAdjust="spacing" textLength="83" x="27" y="960.1074">findAllOpen()</text><ellipse cx="18" cy="974.4316" fill="#84BE84" rx="3" ry="3" style="stroke:#038048;stroke-width:1.0;"/><text fill="#000000" font-family="sans-serif" font-size="14" lengthAdjust="spacing" textLength="116" x="27" y="978.7285">findAllInProgress()</text></g><!--class JpaCourseRepository--><g id="elem_JpaCourseRepository"><rect codeLine="94" fill="#F1F1F1" height="85.2422" id="JpaCourseRepository" rx="2.5" ry="2.5" style="stroke:#181818;stroke-width:0.5;" width="168" x="249.5" y="901"/><ellipse cx="264.5" cy="917" fill="#ADD1B2" rx="11" ry="11" style="stroke:#181818;stroke-width:1.0;"/><path d="M267.2656,912.875 Q267.4219,912.6563 267.6094,912.5469 Q267.7969,912.4375 268.0156,912.4375 Q268.3906,912.4375 268.625,912.7031 Q268.8594,912.9531 268.8594,913.5625 L268.8594,915.0156 Q268.8594,915.625 268.625,915.8906 Q268.3906,916.1563 268.0156,916.1563 Q267.6719,916.1563 267.4688,915.9531 Q267.2656,915.7656 267.1563,915.25 Q267.1094,914.8906 266.9219,914.7031 Q266.5938,914.3281 265.9844,914.1094 Q265.375,913.8906 264.75,913.8906 Q263.9844,913.8906 263.3438,914.2188 Q262.7188,914.5469 262.2188,915.2969 Q261.7344,916.0469 261.7344,917.0781 L261.7344,918.1719 Q261.7344,919.4063 262.625,920.2344 Q263.5156,921.0469 265.1094,921.0469 Q266.0469,921.0469 266.7031,920.7969 Q267.0938,920.6406 267.5156,920.2031 Q267.7813,919.9375 267.9219,919.8594 Q268.0781,919.7813 268.2813,919.7813 Q268.6094,919.7813 268.8594,920.0469 Q269.125,920.2969 269.125,920.6406 Q269.125,920.9844 268.7813,921.3906 Q268.2813,921.9688 267.4844,922.2969 Q266.4063,922.75 265.1094,922.75 Q263.5938,922.75 262.3906,922.125 Q261.4063,921.625 260.7188,920.5625 Q260.0313,919.4844 260.0313,918.2031 L260.0313,917.0469 Q260.0313,915.7188 260.6406,914.5781 Q261.2656,913.4219 262.3594,912.8125 Q263.4531,912.1875 264.6875,912.1875 Q265.4219,912.1875 266.0625,912.3594 Q266.7188,912.5156 267.2656,912.875 Z " fill="#000000"/><text fill="#000000" font-family="sans-serif" font-size="14" lengthAdjust="spacing" textLength="136" x="278.5" y="922.7969">JpaCourseRepository</text><line style="stroke:#181818;stroke-width:0.5;" x1="250.5" x2="416.5" y1="933" y2="933"/><line style="stroke:#181818;stroke-width:0.5;" x1="250.5" x2="416.5" y1="941" y2="941"/><ellipse cx="260.5" cy="955.8105" fill="#84BE84" rx="3" ry="3" style="stroke:#038048;stroke-width:1.0;"/><text fill="#000000" font-family="sans-serif" font-size="14" lengthAdjust="spacing" textLength="83" x="269.5" y="960.1074">findAllOpen()</text><ellipse cx="260.5" cy="974.4316" fill="#84BE84" rx="3" ry="3" style="stroke:#038048;stroke-width:1.0;"/><text fill="#000000" font-family="sans-serif" font-size="14" lengthAdjust="spacing" textLength="116" x="269.5" y="978.7285">findAllInProgress()</text></g><!--class PersistenceContext--><g id="elem_PersistenceContext"><rect codeLine="99" fill="#F1F1F1" height="66.6211" id="PersistenceContext" rx="2.5" ry="2.5" style="stroke:#181818;stroke-width:0.5;" width="154" x="144.5" y="353.5"/><ellipse cx="159.5" cy="369.5" fill="#ADD1B2" rx="11" ry="11" style="stroke:#181818;stroke-width:1.0;"/><path d="M162.2656,365.375 Q162.4219,365.1563 162.6094,365.0469 Q162.7969,364.9375 163.0156,364.9375 Q163.3906,364.9375 163.625,365.2031 Q163.8594,365.4531 163.8594,366.0625 L163.8594,367.5156 Q163.8594,368.125 163.625,368.3906 Q163.3906,368.6563 163.0156,368.6563 Q162.6719,368.6563 162.4688,368.4531 Q162.2656,368.2656 162.1563,367.75 Q162.1094,367.3906 161.9219,367.2031 Q161.5938,366.8281 160.9844,366.6094 Q160.375,366.3906 159.75,366.3906 Q158.9844,366.3906 158.3438,366.7188 Q157.7188,367.0469 157.2188,367.7969 Q156.7344,368.5469 156.7344,369.5781 L156.7344,370.6719 Q156.7344,371.9063 157.625,372.7344 Q158.5156,373.5469 160.1094,373.5469 Q161.0469,373.5469 161.7031,373.2969 Q162.0938,373.1406 162.5156,372.7031 Q162.7813,372.4375 162.9219,372.3594 Q163.0781,372.2813 163.2813,372.2813 Q163.6094,372.2813 163.8594,372.5469 Q164.125,372.7969 164.125,373.1406 Q164.125,373.4844 163.7813,373.8906 Q163.2813,374.4688 162.4844,374.7969 Q161.4063,375.25 160.1094,375.25 Q158.5938,375.25 157.3906,374.625 Q156.4063,374.125 155.7188,373.0625 Q155.0313,371.9844 155.0313,370.7031 L155.0313,369.5469 Q155.0313,368.2188 155.6406,367.0781 Q156.2656,365.9219 157.3594,365.3125 Q158.4531,364.6875 159.6875,364.6875 Q160.4219,364.6875 161.0625,364.8594 Q161.7188,365.0156 162.2656,365.375 Z " fill="#000000"/><text fill="#000000" font-family="sans-serif" font-size="14" lengthAdjust="spacing" textLength="122" x="173.5" y="375.2969">PersistenceContext</text><line style="stroke:#181818;stroke-width:0.5;" x1="145.5" x2="297.5" y1="385.5" y2="385.5"/><line style="stroke:#181818;stroke-width:0.5;" x1="145.5" x2="297.5" y1="393.5" y2="393.5"/><rect fill="#F24D5C" height="6" style="stroke:#C82930;stroke-width:1.0;" width="6" x="152.5" y="405.3105"/><text fill="#000000" font-family="sans-serif" font-size="14" lengthAdjust="spacing" textLength="84" x="164.5" y="412.6074">repositories()</text></g><!--link PersistenceContext to RepositoryFactory--><g id="link_PersistenceContext_RepositoryFactory"><path codeLine="104" d="M221.5,420.58 C221.5,457.96 221.5,519.16 221.5,558.63 " fill="none" id="PersistenceContext-to-RepositoryFactory" style="stroke:#181818;stroke-width:1.0;stroke-dasharray:7.0,7.0;"/><polygon fill="#181818" points="221.5,563.81,225.5,554.81,221.5,558.81,217.5,554.81,221.5,563.81" style="stroke:#181818;stroke-width:1.0;"/></g><!--link RepositoryFactory to CourseRepository--><g id="link_RepositoryFactory_CourseRepository"><path codeLine="105" d="M221.5,631.36 C221.5,663.87 221.5,713.95 221.5,750.63 " fill="none" id="RepositoryFactory-to-CourseRepository" style="stroke:#181818;stroke-width:1.0;"/><polygon fill="#181818" points="221.5,755.95,225.5,746.95,221.5,750.95,217.5,746.95,221.5,755.95" style="stroke:#181818;stroke-width:1.0;"/></g><!--reverse link CourseRepository to InMemoryCourseRepository--><g id="link_CourseRepository_InMemoryCourseRepository"><path codeLine="107" d="M176.65,857.28 C165.3,871.9 153.34,887.31 142.75,900.95 " fill="none" id="CourseRepository-backto-InMemoryCourseRepository" style="stroke:#181818;stroke-width:1.0;stroke-dasharray:7.0,7.0;"/><polygon fill="none" points="171.3,852.75,189.1,841.25,182.36,861.34,171.3,852.75" style="stroke:#181818;stroke-width:1.0;"/></g><!--reverse link CourseRepository to JpaCourseRepository--><g id="link_CourseRepository_JpaCourseRepository"><path codeLine="108" d="M266.75,857.28 C278.2,871.9 290.27,887.31 300.96,900.95 " fill="none" id="CourseRepository-backto-JpaCourseRepository" style="stroke:#181818;stroke-width:1.0;stroke-dasharray:7.0,7.0;"/><polygon fill="none" points="261.02,861.31,254.2,841.25,272.04,852.68,261.02,861.31" style="stroke:#181818;stroke-width:1.0;"/></g><!--link ListCourseExamsController to PersistenceContext--><g id="link_ListCourseExamsController_PersistenceContext"><path codeLine="109" d="M494.78,245.96 C440.93,271.97 374.41,304.62 315.5,335 C305.7,340.06 295.38,345.51 285.32,350.91 " fill="none" id="ListCourseExamsController-to-PersistenceContext" style="stroke:#181818;stroke-width:1.0;stroke-dasharray:7.0,7.0;"/><polygon fill="#181818" points="280.72,353.38,290.5432,352.6692,285.1306,351.0248,286.7749,345.6122,280.72,353.38" style="stroke:#181818;stroke-width:1.0;"/></g><!--link ListCourseExamsController to Course--><g id="link_ListCourseExamsController_Course"><path codeLine="110" d="M679.67,275.06 C697.71,294.12 716.29,314.82 732.5,335 C738.66,342.67 793.36,424.6 839.98,494.73 " fill="none" id="ListCourseExamsController-to-Course" style="stroke:#181818;stroke-width:1.0;stroke-dasharray:7.0,7.0;"/><polygon fill="#181818" points="842.76,498.91,841.1113,489.2001,839.9931,494.7454,834.4478,493.6272,842.76,498.91" style="stroke:#181818;stroke-width:1.0;"/></g><!--link ListCourseExamsUI to ListCourseExamsController--><g id="link_ListCourseExamsUI_ListCourseExamsController"><path codeLine="111" d="M599.5,55.21 C599.5,69.81 599.5,89.63 599.5,109.73 " fill="none" id="ListCourseExamsUI-to-ListCourseExamsController" style="stroke:#181818;stroke-width:1.0;stroke-dasharray:7.0,7.0;"/><polygon fill="#181818" points="599.5,114.84,603.5,105.84,599.5,109.84,595.5,105.84,599.5,114.84" style="stroke:#181818;stroke-width:1.0;"/></g><!--link ExamListService to Exam--><g id="link_ExamListService_Exam"><path codeLine="113" d="M440.1,429.69 C443.48,448.25 447.63,471.01 451.76,493.68 " fill="none" id="ExamListService-to-Exam" style="stroke:#181818;stroke-width:1.0;stroke-dasharray:7.0,7.0;"/><polygon fill="#181818" points="452.7,498.82,455.0133,489.2467,451.7993,493.9018,447.1441,490.6878,452.7,498.82" style="stroke:#181818;stroke-width:1.0;"/></g><!--link CourseListService to Course--><g id="link_CourseListService_Course"><path codeLine="114" d="M907.5,439 C907.5,455.53 907.5,474.51 907.5,493.43 " fill="none" id="CourseListService-to-Course" style="stroke:#181818;stroke-width:1.0;stroke-dasharray:7.0,7.0;"/><polygon fill="#181818" points="907.5,498.76,911.5,489.76,907.5,493.76,903.5,489.76,907.5,498.76" style="stroke:#181818;stroke-width:1.0;"/></g><!--link ExamDTOParser to ExamDTO--><g id="link_ExamDTOParser_ExamDTO"><path codeLine="116" d="M640.5,420.58 C640.5,442.88 640.5,473.67 640.5,503.26 " fill="none" id="ExamDTOParser-to-ExamDTO" style="stroke:#181818;stroke-width:1.0;stroke-dasharray:7.0,7.0;"/><polygon fill="#181818" points="640.5,508.38,644.5,499.38,640.5,503.38,636.5,499.38,640.5,508.38" style="stroke:#181818;stroke-width:1.0;"/></g><!--link ExamDTOParser to Exam--><g id="link_ExamDTOParser_Exam"><path codeLine="117" d="M613.94,420.58 C589.25,450.86 551.82,496.77 521.38,534.1 " fill="none" id="ExamDTOParser-to-Exam" style="stroke:#181818;stroke-width:1.0;stroke-dasharray:7.0,7.0;"/><polygon fill="#181818" points="518.08,538.14,526.8598,533.6773,521.233,534.2594,520.6509,528.6326,518.08,538.14" style="stroke:#181818;stroke-width:1.0;"/></g><!--link ListCourseExamsController to CourseListService--><g id="link_ListCourseExamsController_CourseListService"><path codeLine="118" d="M704.2,260.59 C741.91,283.85 784.02,309.83 820.1,332.08 " fill="none" id="ListCourseExamsController-to-CourseListService" style="stroke:#181818;stroke-width:1.0;"/><polygon fill="#181818" points="824.47,334.78,818.9136,326.6482,820.2156,332.1531,814.7107,333.4552,824.47,334.78" style="stroke:#181818;stroke-width:1.0;"/></g><!--link ListCourseExamsController to ExamListService--><g id="link_ListCourseExamsController_ExamListService"><path codeLine="119" d="M529.89,275.2 C510.34,297.44 489.74,320.87 472.55,340.43 " fill="none" id="ListCourseExamsController-to-ExamListService" style="stroke:#181818;stroke-width:1.0;"/><polygon fill="#181818" points="469.16,344.29,478.1046,340.1676,472.4596,340.5333,472.0939,334.8883,469.16,344.29" style="stroke:#181818;stroke-width:1.0;"/></g><!--link CourseDTOParser to CourseDTO--><g id="link_CourseDTOParser_CourseDTO"><path codeLine="120" d="M1108.5,420.58 C1108.5,442.88 1108.5,473.67 1108.5,503.26 " fill="none" id="CourseDTOParser-to-CourseDTO" style="stroke:#181818;stroke-width:1.0;stroke-dasharray:7.0,7.0;"/><polygon fill="#181818" points="1108.5,508.38,1112.5,499.38,1108.5,503.38,1104.5,499.38,1108.5,508.38" style="stroke:#181818;stroke-width:1.0;"/></g><!--link CourseDTOParser to Course--><g id="link_CourseDTOParser_Course"><path codeLine="121" d="M1077.09,420.58 C1054.81,443.69 1023.75,475.91 994.29,506.47 " fill="none" id="CourseDTOParser-to-Course" style="stroke:#181818;stroke-width:1.0;stroke-dasharray:7.0,7.0;"/><polygon fill="#181818" points="990.71,510.19,999.829,506.4691,994.1733,506.5836,994.0588,500.9279,990.71,510.19" style="stroke:#181818;stroke-width:1.0;"/></g><!--SRC=[lLNRRkCW47tdAtXC52LViAfKfQcKLLQ9jjiFG7ZI8ZaGmQHgkxl_tXbZ1sBizYNgas5k7CwPmRfM8SYD2RXq9nzWzQeEuN4j_mhnNmWzv5qwYzxLDNYAcalTU3Zc0VoBqN2s_OQZ2mQTVoEJEk6py-PTeN4sHG9Lp7DdigRTzWXsRNVUFNa88PuT9jFMcs6Pn9Ec3BP56xq4JKe6Ka6pG8DrN5KGj3T7Xj7imT9b3c1nOmu6Gvl6DHvG8MJxLHUPEJpGihf5siqakZjqasbYBZ5mhpH_6bYpqXwJZ4NmUwMXlKGAQ_FsnbQtTStqK4PcIMJbno_xqfnPwSdJbEg8JtHtrY4fpeUiBXLiUe9LpSh7AWHpIBdBIcrBLQcBQ86Wz3DuMfcAw3TxqsoYffUApcLen1aGWylV_TbUwuH-tPsYKZmIC_cYwXDiznE8daAHYE9x-xE4S0RCCdUGTUVDHsfjVy61XBnEL_uygkiKse4Fr5TWDV2R1A_OikgxmgPhLJ4GkrZSb8Ceof6Tps-AUHIYkCAFVul5A5CZuGDKYF7NbW6Nz_WY8Nf4-SApSpHLYFvOSpZRHFcePCU8os7eaiWoula4VU8z_q5y7jz3BVhDdg0of76l-000]--></g></svg>