<?xml version="1.0" encoding="UTF-8" standalone="no"?><svg xmlns="http://www.w3.org/2000/svg" xmlns:xlink="http://www.w3.org/1999/xlink" contentStyleType="text/css" height="1657px" preserveAspectRatio="none" style="width:3815px;height:1657px;background:#FFFFFF;" version="1.1" viewBox="0 0 3815 1657" width="3815px" zoomAndPan="magnify"><defs/><g><rect fill="#FFFFFF" height="654.5996" style="stroke:#181818;stroke-width:1.0;" width="10" x="586.75" y="148.7199"/><rect fill="#FFFFFF" height="687.8396" style="stroke:#181818;stroke-width:1.0;" width="10" x="586.75" y="844.5595"/><rect fill="#FFFFFF" height="30" style="stroke:#181818;stroke-width:1.0;" width="10" x="1375.375" y="189.9599"/><rect fill="#FFFFFF" height="508.8797" style="stroke:#181818;stroke-width:1.0;" width="10" x="1375.375" y="261.1999"/><rect fill="#FFFFFF" height="258.4398" style="stroke:#181818;stroke-width:1.0;" width="10" x="1375.375" y="940.0395"/><rect fill="#FFFFFF" height="258.4398" style="stroke:#181818;stroke-width:1.0;" width="10" x="1375.375" y="1231.7193"/><rect fill="#FFFFFF" height="202.1999" style="stroke:#181818;stroke-width:1.0;" width="10" x="1645" y="302.4398"/><rect fill="#FFFFFF" height="202.1999" style="stroke:#181818;stroke-width:1.0;" width="10" x="1645" y="552.8797"/><rect fill="#FFFFFF" height="217.1999" style="stroke:#181818;stroke-width:1.0;" width="10" x="1881" y="981.2794"/><rect fill="#FFFFFF" height="202.1999" style="stroke:#181818;stroke-width:1.0;" width="10" x="2158" y="1272.9593"/><rect fill="#FFFFFF" height="41.24" style="stroke:#181818;stroke-width:1.0;" width="10" x="2352" y="1142.2393"/><rect fill="#FFFFFF" height="41.24" style="stroke:#181818;stroke-width:1.0;" width="10" x="2352" y="1433.9192"/><rect fill="#FFFFFF" height="41.24" style="stroke:#181818;stroke-width:1.0;" width="10" x="2465" y="463.3997"/><rect fill="#FFFFFF" height="41.24" style="stroke:#181818;stroke-width:1.0;" width="10" x="2465" y="713.8396"/><rect fill="#FFFFFF" height="30" style="stroke:#181818;stroke-width:1.0;" width="10" x="3181.5" y="343.6798"/><rect fill="#FFFFFF" height="30" style="stroke:#181818;stroke-width:1.0;" width="10" x="3181.5" y="594.1197"/><rect fill="#FFFFFF" height="30" style="stroke:#181818;stroke-width:1.0;" width="10" x="3410.5" y="1022.5194"/><rect fill="#FFFFFF" height="30" style="stroke:#181818;stroke-width:1.0;" width="10" x="3680.5" y="1314.1992"/><rect fill="none" height="123.9599" style="stroke:#000000;stroke-width:1.5;" width="1116" x="1548.5" y="388.6798"/><rect fill="none" height="123.9599" style="stroke:#000000;stroke-width:1.5;" width="1116" x="1548.5" y="639.1197"/><rect fill="none" height="123.9599" style="stroke:#000000;stroke-width:1.5;" width="1142" x="1741.5" y="1067.5194"/><rect fill="none" height="123.9599" style="stroke:#000000;stroke-width:1.5;" width="1078" x="2020.5" y="1359.1992"/><line style="stroke:#181818;stroke-width:0.5;stroke-dasharray:5.0,5.0;" x1="46" x2="46" y1="105.4799" y2="1541.3991"/><line style="stroke:#181818;stroke-width:0.5;stroke-dasharray:5.0,5.0;" x1="591.75" x2="591.75" y1="105.4799" y2="1541.3991"/><line style="stroke:#181818;stroke-width:0.5;stroke-dasharray:5.0,5.0;" x1="1380.375" x2="1380.375" y1="105.4799" y2="1541.3991"/><line style="stroke:#181818;stroke-width:0.5;stroke-dasharray:5.0,5.0;" x1="1649.5" x2="1649.5" y1="105.4799" y2="1541.3991"/><line style="stroke:#181818;stroke-width:0.5;stroke-dasharray:5.0,5.0;" x1="1885.5" x2="1885.5" y1="105.4799" y2="1541.3991"/><line style="stroke:#181818;stroke-width:0.5;stroke-dasharray:5.0,5.0;" x1="2162.5" x2="2162.5" y1="105.4799" y2="1541.3991"/><line style="stroke:#181818;stroke-width:0.5;stroke-dasharray:5.0,5.0;" x1="2356.5" x2="2356.5" y1="105.4799" y2="1541.3991"/><line style="stroke:#181818;stroke-width:0.5;stroke-dasharray:5.0,5.0;" x1="2469.5" x2="2469.5" y1="105.4799" y2="1541.3991"/><line style="stroke:#181818;stroke-width:0.5;stroke-dasharray:5.0,5.0;" x1="2592.5" x2="2592.5" y1="105.4799" y2="1541.3991"/><line style="stroke:#181818;stroke-width:0.5;stroke-dasharray:5.0,5.0;" x1="2768.5" x2="2768.5" y1="105.4799" y2="1541.3991"/><line style="stroke:#181818;stroke-width:0.5;stroke-dasharray:5.0,5.0;" x1="2985.5" x2="2985.5" y1="105.4799" y2="1541.3991"/><line style="stroke:#181818;stroke-width:0.5;stroke-dasharray:5.0,5.0;" x1="3186.5" x2="3186.5" y1="105.4799" y2="1541.3991"/><line style="stroke:#181818;stroke-width:0.5;stroke-dasharray:5.0,5.0;" x1="3415.5" x2="3415.5" y1="105.4799" y2="1541.3991"/><line style="stroke:#181818;stroke-width:0.5;stroke-dasharray:5.0,5.0;" x1="3685.5" x2="3685.5" y1="105.4799" y2="1541.3991"/><text fill="#000000" font-family="sans-serif" font-size="20" lengthAdjust="spacing" textLength="77" x="5" y="99.62">Teacher</text><ellipse cx="46.5" cy="26.74" fill="#E2E2F0" rx="8" ry="8" style="stroke:#181818;stroke-width:0.5;"/><path d="M46.5,34.74 L46.5,61.74 M33.5,42.74 L59.5,42.74 M46.5,61.74 L33.5,76.74 M46.5,61.74 L59.5,76.74 " fill="none" style="stroke:#181818;stroke-width:0.5;"/><text fill="#000000" font-family="sans-serif" font-size="20" lengthAdjust="spacing" textLength="77" x="5" y="1561.7791">Teacher</text><ellipse cx="46.5" cy="1576.1391" fill="#E2E2F0" rx="8" ry="8" style="stroke:#181818;stroke-width:0.5;"/><path d="M46.5,1584.1391 L46.5,1611.1391 M33.5,1592.1391 L59.5,1592.1391 M46.5,1611.1391 L33.5,1626.1391 M46.5,1611.1391 L59.5,1626.1391 " fill="none" style="stroke:#181818;stroke-width:0.5;"/><rect fill="#E2E2F0" height="68.4799" rx="2.5" ry="2.5" style="stroke:#181818;stroke-width:0.5;" width="200" x="491.75" y="36"/><text fill="#000000" font-family="sans-serif" font-size="20" font-style="italic" lengthAdjust="spacing" textLength="134" x="524.75" y="64.38">«presentation»</text><text fill="#000000" font-family="sans-serif" font-size="20" lengthAdjust="spacing" textLength="186" x="498.75" y="91.62">ListCourseExamsUI</text><rect fill="#E2E2F0" height="68.4799" rx="2.5" ry="2.5" style="stroke:#181818;stroke-width:0.5;" width="200" x="491.75" y="1540.3991"/><text fill="#000000" font-family="sans-serif" font-size="20" font-style="italic" lengthAdjust="spacing" textLength="134" x="524.75" y="1568.7791">«presentation»</text><text fill="#000000" font-family="sans-serif" font-size="20" lengthAdjust="spacing" textLength="186" x="498.75" y="1596.0191">ListCourseExamsUI</text><rect fill="#E2E2F0" height="68.4799" rx="2.5" ry="2.5" style="stroke:#181818;stroke-width:0.5;" width="276" x="1242.375" y="36"/><text fill="#000000" font-family="sans-serif" font-size="20" font-style="italic" lengthAdjust="spacing" textLength="120" x="1320.375" y="64.38">«application»</text><text fill="#000000" font-family="sans-serif" font-size="20" lengthAdjust="spacing" textLength="262" x="1249.375" y="91.62">ListCourseExamsController</text><rect fill="#E2E2F0" height="68.4799" rx="2.5" ry="2.5" style="stroke:#181818;stroke-width:0.5;" width="276" x="1242.375" y="1540.3991"/><text fill="#000000" font-family="sans-serif" font-size="20" font-style="italic" lengthAdjust="spacing" textLength="120" x="1320.375" y="1568.7791">«application»</text><text fill="#000000" font-family="sans-serif" font-size="20" lengthAdjust="spacing" textLength="262" x="1249.375" y="1596.0191">ListCourseExamsController</text><rect fill="#E2E2F0" height="68.4799" rx="2.5" ry="2.5" style="stroke:#181818;stroke-width:0.5;" width="183" x="1558.5" y="36"/><text fill="#000000" font-family="sans-serif" font-size="20" font-style="italic" lengthAdjust="spacing" textLength="80" x="1610" y="64.38">«service»</text><text fill="#000000" font-family="sans-serif" font-size="20" lengthAdjust="spacing" textLength="169" x="1565.5" y="91.62">CourseListService</text><rect fill="#E2E2F0" height="68.4799" rx="2.5" ry="2.5" style="stroke:#181818;stroke-width:0.5;" width="183" x="1558.5" y="1540.3991"/><text fill="#000000" font-family="sans-serif" font-size="20" font-style="italic" lengthAdjust="spacing" textLength="80" x="1610" y="1568.7791">«service»</text><text fill="#000000" font-family="sans-serif" font-size="20" lengthAdjust="spacing" textLength="169" x="1565.5" y="1596.0191">CourseListService</text><rect fill="#E2E2F0" height="68.4799" rx="2.5" ry="2.5" style="stroke:#181818;stroke-width:0.5;" width="269" x="1751.5" y="36"/><text fill="#000000" font-family="sans-serif" font-size="20" font-style="italic" lengthAdjust="spacing" textLength="80" x="1846" y="64.38">«service»</text><text fill="#000000" font-family="sans-serif" font-size="20" lengthAdjust="spacing" textLength="255" x="1758.5" y="91.62">EvaluationExamListService</text><rect fill="#E2E2F0" height="68.4799" rx="2.5" ry="2.5" style="stroke:#181818;stroke-width:0.5;" width="269" x="1751.5" y="1540.3991"/><text fill="#000000" font-family="sans-serif" font-size="20" font-style="italic" lengthAdjust="spacing" textLength="80" x="1846" y="1568.7791">«service»</text><text fill="#000000" font-family="sans-serif" font-size="20" lengthAdjust="spacing" textLength="255" x="1758.5" y="1596.0191">EvaluationExamListService</text><rect fill="#E2E2F0" height="68.4799" rx="2.5" ry="2.5" style="stroke:#181818;stroke-width:0.5;" width="265" x="2030.5" y="36"/><text fill="#000000" font-family="sans-serif" font-size="20" font-style="italic" lengthAdjust="spacing" textLength="80" x="2123" y="64.38">«service»</text><text fill="#000000" font-family="sans-serif" font-size="20" lengthAdjust="spacing" textLength="251" x="2037.5" y="91.62">FormativeExamListService</text><rect fill="#E2E2F0" height="68.4799" rx="2.5" ry="2.5" style="stroke:#181818;stroke-width:0.5;" width="265" x="2030.5" y="1540.3991"/><text fill="#000000" font-family="sans-serif" font-size="20" font-style="italic" lengthAdjust="spacing" textLength="80" x="2123" y="1568.7791">«service»</text><text fill="#000000" font-family="sans-serif" font-size="20" lengthAdjust="spacing" textLength="251" x="2037.5" y="1596.0191">FormativeExamListService</text><rect fill="#E2E2F0" height="68.4799" rx="2.5" ry="2.5" style="stroke:#181818;stroke-width:0.5;" width="103" x="2305.5" y="36"/><text fill="#000000" font-family="sans-serif" font-size="20" font-style="italic" lengthAdjust="spacing" textLength="89" x="2312.5" y="64.38">«domain»</text><text fill="#000000" font-family="sans-serif" font-size="20" lengthAdjust="spacing" textLength="52" x="2331" y="91.62">Exam</text><rect fill="#E2E2F0" height="68.4799" rx="2.5" ry="2.5" style="stroke:#181818;stroke-width:0.5;" width="103" x="2305.5" y="1540.3991"/><text fill="#000000" font-family="sans-serif" font-size="20" font-style="italic" lengthAdjust="spacing" textLength="89" x="2312.5" y="1568.7791">«domain»</text><text fill="#000000" font-family="sans-serif" font-size="20" lengthAdjust="spacing" textLength="52" x="2331" y="1596.0191">Exam</text><rect fill="#E2E2F0" height="68.4799" rx="2.5" ry="2.5" style="stroke:#181818;stroke-width:0.5;" width="103" x="2418.5" y="36"/><text fill="#000000" font-family="sans-serif" font-size="20" font-style="italic" lengthAdjust="spacing" textLength="89" x="2425.5" y="64.38">«domain»</text><text fill="#000000" font-family="sans-serif" font-size="20" lengthAdjust="spacing" textLength="67" x="2436.5" y="91.62">Course</text><rect fill="#E2E2F0" height="68.4799" rx="2.5" ry="2.5" style="stroke:#181818;stroke-width:0.5;" width="103" x="2418.5" y="1540.3991"/><text fill="#000000" font-family="sans-serif" font-size="20" font-style="italic" lengthAdjust="spacing" textLength="89" x="2425.5" y="1568.7791">«domain»</text><text fill="#000000" font-family="sans-serif" font-size="20" lengthAdjust="spacing" textLength="67" x="2436.5" y="1596.0191">Course</text><rect fill="#E2E2F0" height="68.4799" rx="2.5" ry="2.5" style="stroke:#181818;stroke-width:0.5;" width="123" x="2531.5" y="36"/><text fill="#000000" font-family="sans-serif" font-size="20" font-style="italic" lengthAdjust="spacing" textLength="50" x="2568" y="64.38">«dto»</text><text fill="#000000" font-family="sans-serif" font-size="20" lengthAdjust="spacing" textLength="109" x="2538.5" y="91.62">CourseDTO</text><rect fill="#E2E2F0" height="68.4799" rx="2.5" ry="2.5" style="stroke:#181818;stroke-width:0.5;" width="123" x="2531.5" y="1540.3991"/><text fill="#000000" font-family="sans-serif" font-size="20" font-style="italic" lengthAdjust="spacing" textLength="50" x="2568" y="1568.7791">«dto»</text><text fill="#000000" font-family="sans-serif" font-size="20" lengthAdjust="spacing" textLength="109" x="2538.5" y="1596.0191">CourseDTO</text><rect fill="#E2E2F0" height="68.4799" rx="2.5" ry="2.5" style="stroke:#181818;stroke-width:0.5;" width="209" x="2664.5" y="36"/><text fill="#000000" font-family="sans-serif" font-size="20" font-style="italic" lengthAdjust="spacing" textLength="50" x="2744" y="64.38">«dto»</text><text fill="#000000" font-family="sans-serif" font-size="20" lengthAdjust="spacing" textLength="195" x="2671.5" y="91.62">EvaluationExamDTO</text><rect fill="#E2E2F0" height="68.4799" rx="2.5" ry="2.5" style="stroke:#181818;stroke-width:0.5;" width="209" x="2664.5" y="1540.3991"/><text fill="#000000" font-family="sans-serif" font-size="20" font-style="italic" lengthAdjust="spacing" textLength="50" x="2744" y="1568.7791">«dto»</text><text fill="#000000" font-family="sans-serif" font-size="20" lengthAdjust="spacing" textLength="195" x="2671.5" y="1596.0191">EvaluationExamDTO</text><rect fill="#E2E2F0" height="68.4799" rx="2.5" ry="2.5" style="stroke:#181818;stroke-width:0.5;" width="205" x="2883.5" y="36"/><text fill="#000000" font-family="sans-serif" font-size="20" font-style="italic" lengthAdjust="spacing" textLength="50" x="2961" y="64.38">«dto»</text><text fill="#000000" font-family="sans-serif" font-size="20" lengthAdjust="spacing" textLength="191" x="2890.5" y="91.62">FormativeExamDTO</text><rect fill="#E2E2F0" height="68.4799" rx="2.5" ry="2.5" style="stroke:#181818;stroke-width:0.5;" width="205" x="2883.5" y="1540.3991"/><text fill="#000000" font-family="sans-serif" font-size="20" font-style="italic" lengthAdjust="spacing" textLength="50" x="2961" y="1568.7791">«dto»</text><text fill="#000000" font-family="sans-serif" font-size="20" lengthAdjust="spacing" textLength="191" x="2890.5" y="1596.0191">FormativeExamDTO</text><text fill="#000000" font-family="sans-serif" font-size="20" font-style="italic" lengthAdjust="spacing" textLength="110" x="3128.5" y="72.38">«repository»</text><text fill="#000000" font-family="sans-serif" font-size="20" lengthAdjust="spacing" textLength="170" x="3098.5" y="99.62">CourseRepository</text><path d="M3168.5,15 C3168.5,5 3186.5,5 3186.5,5 C3186.5,5 3204.5,5 3204.5,15 L3204.5,41 C3204.5,51 3186.5,51 3186.5,51 C3186.5,51 3168.5,51 3168.5,41 L3168.5,15 " fill="#E2E2F0" style="stroke:#181818;stroke-width:1.5;"/><path d="M3168.5,15 C3168.5,25 3186.5,25 3186.5,25 C3186.5,25 3204.5,25 3204.5,15 " fill="none" style="stroke:#181818;stroke-width:1.5;"/><text fill="#000000" font-family="sans-serif" font-size="20" font-style="italic" lengthAdjust="spacing" textLength="110" x="3128.5" y="1561.7791">«repository»</text><text fill="#000000" font-family="sans-serif" font-size="20" lengthAdjust="spacing" textLength="170" x="3098.5" y="1589.0191">CourseRepository</text><path d="M3168.5,1604.8791 C3168.5,1594.8791 3186.5,1594.8791 3186.5,1594.8791 C3186.5,1594.8791 3204.5,1594.8791 3204.5,1604.8791 L3204.5,1630.8791 C3204.5,1640.8791 3186.5,1640.8791 3186.5,1640.8791 C3186.5,1640.8791 3168.5,1640.8791 3168.5,1630.8791 L3168.5,1604.8791 " fill="#E2E2F0" style="stroke:#181818;stroke-width:1.5;"/><path d="M3168.5,1604.8791 C3168.5,1614.8791 3186.5,1614.8791 3186.5,1614.8791 C3186.5,1614.8791 3204.5,1614.8791 3204.5,1604.8791 " fill="none" style="stroke:#181818;stroke-width:1.5;"/><text fill="#000000" font-family="sans-serif" font-size="20" font-style="italic" lengthAdjust="spacing" textLength="110" x="3357.5" y="72.38">«repository»</text><text fill="#000000" font-family="sans-serif" font-size="20" lengthAdjust="spacing" textLength="256" x="3284.5" y="99.62">EvaluationExamRepository</text><path d="M3397.5,15 C3397.5,5 3415.5,5 3415.5,5 C3415.5,5 3433.5,5 3433.5,15 L3433.5,41 C3433.5,51 3415.5,51 3415.5,51 C3415.5,51 3397.5,51 3397.5,41 L3397.5,15 " fill="#E2E2F0" style="stroke:#181818;stroke-width:1.5;"/><path d="M3397.5,15 C3397.5,25 3415.5,25 3415.5,25 C3415.5,25 3433.5,25 3433.5,15 " fill="none" style="stroke:#181818;stroke-width:1.5;"/><text fill="#000000" font-family="sans-serif" font-size="20" font-style="italic" lengthAdjust="spacing" textLength="110" x="3357.5" y="1561.7791">«repository»</text><text fill="#000000" font-family="sans-serif" font-size="20" lengthAdjust="spacing" textLength="256" x="3284.5" y="1589.0191">EvaluationExamRepository</text><path d="M3397.5,1604.8791 C3397.5,1594.8791 3415.5,1594.8791 3415.5,1594.8791 C3415.5,1594.8791 3433.5,1594.8791 3433.5,1604.8791 L3433.5,1630.8791 C3433.5,1640.8791 3415.5,1640.8791 3415.5,1640.8791 C3415.5,1640.8791 3397.5,1640.8791 3397.5,1630.8791 L3397.5,1604.8791 " fill="#E2E2F0" style="stroke:#181818;stroke-width:1.5;"/><path d="M3397.5,1604.8791 C3397.5,1614.8791 3415.5,1614.8791 3415.5,1614.8791 C3415.5,1614.8791 3433.5,1614.8791 3433.5,1604.8791 " fill="none" style="stroke:#181818;stroke-width:1.5;"/><text fill="#000000" font-family="sans-serif" font-size="20" font-style="italic" lengthAdjust="spacing" textLength="110" x="3627.5" y="72.38">«repository»</text><text fill="#000000" font-family="sans-serif" font-size="20" lengthAdjust="spacing" textLength="252" x="3556.5" y="99.62">FormativeExamRepository</text><path d="M3667.5,15 C3667.5,5 3685.5,5 3685.5,5 C3685.5,5 3703.5,5 3703.5,15 L3703.5,41 C3703.5,51 3685.5,51 3685.5,51 C3685.5,51 3667.5,51 3667.5,41 L3667.5,15 " fill="#E2E2F0" style="stroke:#181818;stroke-width:1.5;"/><path d="M3667.5,15 C3667.5,25 3685.5,25 3685.5,25 C3685.5,25 3703.5,25 3703.5,15 " fill="none" style="stroke:#181818;stroke-width:1.5;"/><text fill="#000000" font-family="sans-serif" font-size="20" font-style="italic" lengthAdjust="spacing" textLength="110" x="3627.5" y="1561.7791">«repository»</text><text fill="#000000" font-family="sans-serif" font-size="20" lengthAdjust="spacing" textLength="252" x="3556.5" y="1589.0191">FormativeExamRepository</text><path d="M3667.5,1604.8791 C3667.5,1594.8791 3685.5,1594.8791 3685.5,1594.8791 C3685.5,1594.8791 3703.5,1594.8791 3703.5,1604.8791 L3703.5,1630.8791 C3703.5,1640.8791 3685.5,1640.8791 3685.5,1640.8791 C3685.5,1640.8791 3667.5,1640.8791 3667.5,1630.8791 L3667.5,1604.8791 " fill="#E2E2F0" style="stroke:#181818;stroke-width:1.5;"/><path d="M3667.5,1604.8791 C3667.5,1614.8791 3685.5,1614.8791 3685.5,1614.8791 C3685.5,1614.8791 3703.5,1614.8791 3703.5,1604.8791 " fill="none" style="stroke:#181818;stroke-width:1.5;"/><rect fill="#FFFFFF" height="654.5996" style="stroke:#181818;stroke-width:1.0;" width="10" x="586.75" y="148.7199"/><rect fill="#FFFFFF" height="687.8396" style="stroke:#181818;stroke-width:1.0;" width="10" x="586.75" y="844.5595"/><rect fill="#FFFFFF" height="30" style="stroke:#181818;stroke-width:1.0;" width="10" x="1375.375" y="189.9599"/><rect fill="#FFFFFF" height="508.8797" style="stroke:#181818;stroke-width:1.0;" width="10" x="1375.375" y="261.1999"/><rect fill="#FFFFFF" height="258.4398" style="stroke:#181818;stroke-width:1.0;" width="10" x="1375.375" y="940.0395"/><rect fill="#FFFFFF" height="258.4398" style="stroke:#181818;stroke-width:1.0;" width="10" x="1375.375" y="1231.7193"/><rect fill="#FFFFFF" height="202.1999" style="stroke:#181818;stroke-width:1.0;" width="10" x="1645" y="302.4398"/><rect fill="#FFFFFF" height="202.1999" style="stroke:#181818;stroke-width:1.0;" width="10" x="1645" y="552.8797"/><rect fill="#FFFFFF" height="217.1999" style="stroke:#181818;stroke-width:1.0;" width="10" x="1881" y="981.2794"/><rect fill="#FFFFFF" height="202.1999" style="stroke:#181818;stroke-width:1.0;" width="10" x="2158" y="1272.9593"/><rect fill="#FFFFFF" height="41.24" style="stroke:#181818;stroke-width:1.0;" width="10" x="2352" y="1142.2393"/><rect fill="#FFFFFF" height="41.24" style="stroke:#181818;stroke-width:1.0;" width="10" x="2352" y="1433.9192"/><rect fill="#FFFFFF" height="41.24" style="stroke:#181818;stroke-width:1.0;" width="10" x="2465" y="463.3997"/><rect fill="#FFFFFF" height="41.24" style="stroke:#181818;stroke-width:1.0;" width="10" x="2465" y="713.8396"/><rect fill="#FFFFFF" height="30" style="stroke:#181818;stroke-width:1.0;" width="10" x="3181.5" y="343.6798"/><rect fill="#FFFFFF" height="30" style="stroke:#181818;stroke-width:1.0;" width="10" x="3181.5" y="594.1197"/><rect fill="#FFFFFF" height="30" style="stroke:#181818;stroke-width:1.0;" width="10" x="3410.5" y="1022.5194"/><rect fill="#FFFFFF" height="30" style="stroke:#181818;stroke-width:1.0;" width="10" x="3680.5" y="1314.1992"/><polygon fill="#181818" points="574.75,144.7199,584.75,148.7199,574.75,152.7199,578.75,148.7199" style="stroke:#181818;stroke-width:1.0;"/><line style="stroke:#181818;stroke-width:1.0;" x1="46.5" x2="580.75" y1="148.7199" y2="148.7199"/><text fill="#000000" font-family="sans-serif" font-size="20" font-weight="bold" lengthAdjust="spacing" textLength="11.625" x="53.5" y="140.8599">1</text><text fill="#000000" font-family="sans-serif" font-size="20" lengthAdjust="spacing" textLength="407" x="69.125" y="140.8599">requests to view the exams list of a course</text><polygon fill="#181818" points="1363.375,185.9599,1373.375,189.9599,1363.375,193.9599,1367.375,189.9599" style="stroke:#181818;stroke-width:1.0;"/><line style="stroke:#181818;stroke-width:1.0;" x1="596.75" x2="1369.375" y1="189.9599" y2="189.9599"/><text fill="#000000" font-family="sans-serif" font-size="20" font-weight="bold" lengthAdjust="spacing" textLength="11.625" x="603.75" y="182.0999">2</text><text fill="#000000" font-family="sans-serif" font-size="20" lengthAdjust="spacing" textLength="744" x="619.375" y="182.0999">new(courseRepository, evaluationExamRepository, formativeExamRepository)</text><polygon fill="#181818" points="1363.375,257.1999,1373.375,261.1999,1363.375,265.1999,1367.375,261.1999" style="stroke:#181818;stroke-width:1.0;"/><line style="stroke:#181818;stroke-width:1.0;" x1="596.75" x2="1369.375" y1="261.1999" y2="261.1999"/><text fill="#000000" font-family="sans-serif" font-size="20" font-weight="bold" lengthAdjust="spacing" textLength="11.625" x="603.75" y="253.3399">3</text><text fill="#000000" font-family="sans-serif" font-size="20" lengthAdjust="spacing" textLength="372" x="619.375" y="253.3399">courses = listOpenInProgressCourses()</text><polygon fill="#181818" points="1633,298.4398,1643,302.4398,1633,306.4398,1637,302.4398" style="stroke:#181818;stroke-width:1.0;"/><line style="stroke:#181818;stroke-width:1.0;" x1="1385.375" x2="1639" y1="302.4398" y2="302.4398"/><text fill="#000000" font-family="sans-serif" font-size="20" font-weight="bold" lengthAdjust="spacing" textLength="11.625" x="1392.375" y="294.5799">4</text><text fill="#000000" font-family="sans-serif" font-size="20" lengthAdjust="spacing" textLength="171" x="1408" y="294.5799">listOpenCourses()</text><polygon fill="#181818" points="3169.5,339.6798,3179.5,343.6798,3169.5,347.6798,3173.5,343.6798" style="stroke:#181818;stroke-width:1.0;"/><line style="stroke:#181818;stroke-width:1.0;" x1="1655" x2="3175.5" y1="343.6798" y2="343.6798"/><text fill="#000000" font-family="sans-serif" font-size="20" font-weight="bold" lengthAdjust="spacing" textLength="11.625" x="1662" y="335.8198">5</text><text fill="#000000" font-family="sans-serif" font-size="20" lengthAdjust="spacing" textLength="129" x="1677.625" y="335.8198">findAllOpen()</text><path d="M1548.5,388.6798 L1639,388.6798 L1639,407.9198 L1629,417.9198 L1548.5,417.9198 L1548.5,388.6798 " fill="#EEEEEE" style="stroke:#000000;stroke-width:1.5;"/><rect fill="none" height="123.9599" style="stroke:#000000;stroke-width:1.5;" width="1116" x="1548.5" y="388.6798"/><text fill="#000000" font-family="sans-serif" font-size="20" font-weight="bold" lengthAdjust="spacing" textLength="45.5" x="1563.5" y="411.0598">loop</text><text fill="#000000" font-family="sans-serif" font-size="20" font-weight="bold" lengthAdjust="spacing" textLength="169.375" x="1654" y="412.0598">[for each course]</text><polygon fill="#181818" points="2453,459.3997,2463,463.3997,2453,467.3997,2457,463.3997" style="stroke:#181818;stroke-width:1.0;"/><line style="stroke:#181818;stroke-width:1.0;" x1="1655" x2="2459" y1="463.3997" y2="463.3997"/><text fill="#000000" font-family="sans-serif" font-size="20" font-weight="bold" lengthAdjust="spacing" textLength="11.625" x="1662" y="455.5398">6</text><text fill="#000000" font-family="sans-serif" font-size="20" lengthAdjust="spacing" textLength="138" x="1677.625" y="455.5398">toDTO(course)</text><polygon fill="#181818" points="2581,500.6397,2591,504.6397,2581,508.6397,2585,504.6397" style="stroke:#181818;stroke-width:1.0;"/><line style="stroke:#181818;stroke-width:1.0;" x1="2470" x2="2587" y1="504.6397" y2="504.6397"/><text fill="#000000" font-family="sans-serif" font-size="20" font-weight="bold" lengthAdjust="spacing" textLength="11.625" x="2477" y="496.7797">7</text><text fill="#000000" font-family="sans-serif" font-size="20" lengthAdjust="spacing" textLength="40" x="2492.625" y="496.7797">new</text><polygon fill="#181818" points="1633,548.8797,1643,552.8797,1633,556.8797,1637,552.8797" style="stroke:#181818;stroke-width:1.0;"/><line style="stroke:#181818;stroke-width:1.0;" x1="1385.375" x2="1639" y1="552.8797" y2="552.8797"/><text fill="#000000" font-family="sans-serif" font-size="20" font-weight="bold" lengthAdjust="spacing" textLength="11.625" x="1392.375" y="545.0197">8</text><text fill="#000000" font-family="sans-serif" font-size="20" lengthAdjust="spacing" textLength="225" x="1408" y="545.0197">listInProgressCourses()</text><polygon fill="#181818" points="3169.5,590.1197,3179.5,594.1197,3169.5,598.1197,3173.5,594.1197" style="stroke:#181818;stroke-width:1.0;"/><line style="stroke:#181818;stroke-width:1.0;" x1="1655" x2="3175.5" y1="594.1197" y2="594.1197"/><text fill="#000000" font-family="sans-serif" font-size="20" font-weight="bold" lengthAdjust="spacing" textLength="11.625" x="1662" y="586.2597">9</text><text fill="#000000" font-family="sans-serif" font-size="20" lengthAdjust="spacing" textLength="183" x="1677.625" y="586.2597">findAllInProgress()</text><path d="M1548.5,639.1197 L1639,639.1197 L1639,658.3596 L1629,668.3596 L1548.5,668.3596 L1548.5,639.1197 " fill="#EEEEEE" style="stroke:#000000;stroke-width:1.5;"/><rect fill="none" height="123.9599" style="stroke:#000000;stroke-width:1.5;" width="1116" x="1548.5" y="639.1197"/><text fill="#000000" font-family="sans-serif" font-size="20" font-weight="bold" lengthAdjust="spacing" textLength="45.5" x="1563.5" y="661.4997">loop</text><text fill="#000000" font-family="sans-serif" font-size="20" font-weight="bold" lengthAdjust="spacing" textLength="169.375" x="1654" y="662.4997">[for each course]</text><polygon fill="#181818" points="2453,709.8396,2463,713.8396,2453,717.8396,2457,713.8396" style="stroke:#181818;stroke-width:1.0;"/><line style="stroke:#181818;stroke-width:1.0;" x1="1655" x2="2459" y1="713.8396" y2="713.8396"/><text fill="#000000" font-family="sans-serif" font-size="20" font-weight="bold" lengthAdjust="spacing" textLength="23.25" x="1662" y="705.9796">10</text><text fill="#000000" font-family="sans-serif" font-size="20" lengthAdjust="spacing" textLength="138" x="1689.25" y="705.9796">toDTO(course)</text><polygon fill="#181818" points="2581,751.0796,2591,755.0796,2581,759.0796,2585,755.0796" style="stroke:#181818;stroke-width:1.0;"/><line style="stroke:#181818;stroke-width:1.0;" x1="2470" x2="2587" y1="755.0796" y2="755.0796"/><text fill="#000000" font-family="sans-serif" font-size="20" font-weight="bold" lengthAdjust="spacing" textLength="23.25" x="2477" y="747.2196">11</text><text fill="#000000" font-family="sans-serif" font-size="20" lengthAdjust="spacing" textLength="40" x="2504.25" y="747.2196">new</text><polygon fill="#181818" points="57.5,799.3195,47.5,803.3195,57.5,807.3195,53.5,803.3195" style="stroke:#181818;stroke-width:1.0;"/><line style="stroke:#181818;stroke-width:1.0;stroke-dasharray:2.0,2.0;" x1="51.5" x2="590.75" y1="803.3195" y2="803.3195"/><text fill="#000000" font-family="sans-serif" font-size="20" font-weight="bold" lengthAdjust="spacing" textLength="23.25" x="63.5" y="795.4596">12</text><text fill="#000000" font-family="sans-serif" font-size="20" lengthAdjust="spacing" textLength="489" x="90.75" y="795.4596">lists all the available courses and asks to select one</text><polygon fill="#181818" points="574.75,840.5595,584.75,844.5595,574.75,848.5595,578.75,844.5595" style="stroke:#181818;stroke-width:1.0;"/><line style="stroke:#181818;stroke-width:1.0;" x1="46.5" x2="580.75" y1="844.5595" y2="844.5595"/><text fill="#000000" font-family="sans-serif" font-size="20" font-weight="bold" lengthAdjust="spacing" textLength="23.25" x="53.5" y="836.6995">13</text><text fill="#000000" font-family="sans-serif" font-size="20" lengthAdjust="spacing" textLength="249" x="80.75" y="836.6995">selects the desired course</text><line style="stroke:#181818;stroke-width:1.0;" x1="596.75" x2="638.75" y1="885.7995" y2="885.7995"/><line style="stroke:#181818;stroke-width:1.0;" x1="638.75" x2="638.75" y1="885.7995" y2="898.7995"/><line style="stroke:#181818;stroke-width:1.0;" x1="597.75" x2="638.75" y1="898.7995" y2="898.7995"/><polygon fill="#181818" points="607.75,894.7995,597.75,898.7995,607.75,902.7995,603.75,898.7995" style="stroke:#181818;stroke-width:1.0;"/><text fill="#000000" font-family="sans-serif" font-size="20" font-weight="bold" lengthAdjust="spacing" textLength="23.25" x="603.75" y="877.9395">14</text><text fill="#000000" font-family="sans-serif" font-size="20" lengthAdjust="spacing" textLength="290" x="631" y="877.9395">course = select(courses, index)</text><polygon fill="#181818" points="1363.375,936.0395,1373.375,940.0395,1363.375,944.0395,1367.375,940.0395" style="stroke:#181818;stroke-width:1.0;"/><line style="stroke:#181818;stroke-width:1.0;" x1="596.75" x2="1369.375" y1="940.0395" y2="940.0395"/><text fill="#000000" font-family="sans-serif" font-size="20" font-weight="bold" lengthAdjust="spacing" textLength="23.25" x="603.75" y="932.1795">15</text><text fill="#000000" font-family="sans-serif" font-size="20" lengthAdjust="spacing" textLength="520" x="631" y="932.1795">evaluationExams = listCourseEvaluationExams(course)</text><polygon fill="#181818" points="1869,977.2794,1879,981.2794,1869,985.2794,1873,981.2794" style="stroke:#181818;stroke-width:1.0;"/><line style="stroke:#181818;stroke-width:1.0;" x1="1385.375" x2="1875" y1="981.2794" y2="981.2794"/><text fill="#000000" font-family="sans-serif" font-size="20" font-weight="bold" lengthAdjust="spacing" textLength="23.25" x="1392.375" y="973.4195">16</text><text fill="#000000" font-family="sans-serif" font-size="20" lengthAdjust="spacing" textLength="260" x="1419.625" y="973.4195">listAllCourseExams(course)</text><polygon fill="#181818" points="3398.5,1018.5194,3408.5,1022.5194,3398.5,1026.5194,3402.5,1022.5194" style="stroke:#181818;stroke-width:1.0;"/><line style="stroke:#181818;stroke-width:1.0;" x1="1891" x2="3404.5" y1="1022.5194" y2="1022.5194"/><text fill="#000000" font-family="sans-serif" font-size="20" font-weight="bold" lengthAdjust="spacing" textLength="23.25" x="1898" y="1014.6594">17</text><text fill="#000000" font-family="sans-serif" font-size="20" lengthAdjust="spacing" textLength="270" x="1925.25" y="1014.6594">findAllCourseExams(course)</text><path d="M1741.5,1067.5194 L1832,1067.5194 L1832,1086.7594 L1822,1096.7594 L1741.5,1096.7594 L1741.5,1067.5194 " fill="#EEEEEE" style="stroke:#000000;stroke-width:1.5;"/><rect fill="none" height="123.9599" style="stroke:#000000;stroke-width:1.5;" width="1142" x="1741.5" y="1067.5194"/><text fill="#000000" font-family="sans-serif" font-size="20" font-weight="bold" lengthAdjust="spacing" textLength="45.5" x="1756.5" y="1089.8994">loop</text><text fill="#000000" font-family="sans-serif" font-size="20" font-weight="bold" lengthAdjust="spacing" textLength="156.125" x="1847" y="1090.8994">[for each exam]</text><polygon fill="#181818" points="2340,1138.2393,2350,1142.2393,2340,1146.2393,2344,1142.2393" style="stroke:#181818;stroke-width:1.0;"/><line style="stroke:#181818;stroke-width:1.0;" x1="1891" x2="2346" y1="1142.2393" y2="1142.2393"/><text fill="#000000" font-family="sans-serif" font-size="20" font-weight="bold" lengthAdjust="spacing" textLength="23.25" x="1898" y="1134.3794">18</text><text fill="#000000" font-family="sans-serif" font-size="20" lengthAdjust="spacing" textLength="126" x="1925.25" y="1134.3794">toDTO(exam)</text><polygon fill="#181818" points="2757,1179.4793,2767,1183.4793,2757,1187.4793,2761,1183.4793" style="stroke:#181818;stroke-width:1.0;"/><line style="stroke:#181818;stroke-width:1.0;" x1="2357" x2="2763" y1="1183.4793" y2="1183.4793"/><text fill="#000000" font-family="sans-serif" font-size="20" font-weight="bold" lengthAdjust="spacing" textLength="23.25" x="2364" y="1175.6193">19</text><text fill="#000000" font-family="sans-serif" font-size="20" lengthAdjust="spacing" textLength="40" x="2391.25" y="1175.6193">new</text><polygon fill="#181818" points="1363.375,1227.7193,1373.375,1231.7193,1363.375,1235.7193,1367.375,1231.7193" style="stroke:#181818;stroke-width:1.0;"/><line style="stroke:#181818;stroke-width:1.0;" x1="596.75" x2="1369.375" y1="1231.7193" y2="1231.7193"/><text fill="#000000" font-family="sans-serif" font-size="20" font-weight="bold" lengthAdjust="spacing" textLength="23.25" x="603.75" y="1223.8593">20</text><text fill="#000000" font-family="sans-serif" font-size="20" lengthAdjust="spacing" textLength="509" x="631" y="1223.8593">formativeExams = listCourseFormativeExams(course)</text><polygon fill="#181818" points="2146,1268.9593,2156,1272.9593,2146,1276.9593,2150,1272.9593" style="stroke:#181818;stroke-width:1.0;"/><line style="stroke:#181818;stroke-width:1.0;" x1="1385.375" x2="2152" y1="1272.9593" y2="1272.9593"/><text fill="#000000" font-family="sans-serif" font-size="20" font-weight="bold" lengthAdjust="spacing" textLength="23.25" x="1392.375" y="1265.0993">21</text><text fill="#000000" font-family="sans-serif" font-size="20" lengthAdjust="spacing" textLength="260" x="1419.625" y="1265.0993">listAllCourseExams(course)</text><polygon fill="#181818" points="3668.5,1310.1992,3678.5,1314.1992,3668.5,1318.1992,3672.5,1314.1992" style="stroke:#181818;stroke-width:1.0;"/><line style="stroke:#181818;stroke-width:1.0;" x1="2168" x2="3674.5" y1="1314.1992" y2="1314.1992"/><text fill="#000000" font-family="sans-serif" font-size="20" font-weight="bold" lengthAdjust="spacing" textLength="23.25" x="2175" y="1306.3393">22</text><text fill="#000000" font-family="sans-serif" font-size="20" lengthAdjust="spacing" textLength="270" x="2202.25" y="1306.3393">findAllCourseExams(course)</text><path d="M2020.5,1359.1992 L2111,1359.1992 L2111,1378.4392 L2101,1388.4392 L2020.5,1388.4392 L2020.5,1359.1992 " fill="#EEEEEE" style="stroke:#000000;stroke-width:1.5;"/><rect fill="none" height="123.9599" style="stroke:#000000;stroke-width:1.5;" width="1078" x="2020.5" y="1359.1992"/><text fill="#000000" font-family="sans-serif" font-size="20" font-weight="bold" lengthAdjust="spacing" textLength="45.5" x="2035.5" y="1381.5792">loop</text><text fill="#000000" font-family="sans-serif" font-size="20" font-weight="bold" lengthAdjust="spacing" textLength="156.125" x="2126" y="1382.5792">[for each exam]</text><polygon fill="#181818" points="2340,1429.9192,2350,1433.9192,2340,1437.9192,2344,1433.9192" style="stroke:#181818;stroke-width:1.0;"/><line style="stroke:#181818;stroke-width:1.0;" x1="2168" x2="2346" y1="1433.9192" y2="1433.9192"/><text fill="#000000" font-family="sans-serif" font-size="20" font-weight="bold" lengthAdjust="spacing" textLength="23.25" x="2175" y="1426.0592">23</text><text fill="#000000" font-family="sans-serif" font-size="20" lengthAdjust="spacing" textLength="126" x="2202.25" y="1426.0592">toDTO(exam)</text><polygon fill="#181818" points="2974,1471.1591,2984,1475.1591,2974,1479.1591,2978,1475.1591" style="stroke:#181818;stroke-width:1.0;"/><line style="stroke:#181818;stroke-width:1.0;" x1="2357" x2="2980" y1="1475.1591" y2="1475.1591"/><text fill="#000000" font-family="sans-serif" font-size="20" font-weight="bold" lengthAdjust="spacing" textLength="23.25" x="2364" y="1467.2992">24</text><text fill="#000000" font-family="sans-serif" font-size="20" lengthAdjust="spacing" textLength="40" x="2391.25" y="1467.2992">new</text><polygon fill="#181818" points="57.5,1519.3991,47.5,1523.3991,57.5,1527.3991,53.5,1523.3991" style="stroke:#181818;stroke-width:1.0;"/><line style="stroke:#181818;stroke-width:1.0;stroke-dasharray:2.0,2.0;" x1="51.5" x2="585.75" y1="1523.3991" y2="1523.3991"/><text fill="#000000" font-family="sans-serif" font-size="20" font-weight="bold" lengthAdjust="spacing" textLength="23.25" x="63.5" y="1515.5391">25</text><text fill="#000000" font-family="sans-serif" font-size="20" lengthAdjust="spacing" textLength="415" x="90.75" y="1515.5391">displays all the exams of the chosen course</text><!--SRC=[tLPDJzmm4BtxLumuWKIbgiSLHQeWbf2GGClIQsMIsMBXZLFRkq1_VMViPBCEIQ0zTa-EFMy-txFNF-cwKKvjZ2sVi88ArsfhWhHrkDE_4Rvy5ceRRBtTFA0JGfN1EZXQeIeVqHs1yh0IWXm4NUf6rG6EhhKF5tRhF1OlQkFlhwBL_HMSdJKEFTP11Mthy_DPs0KbuAmnRP2BrVAQ7AYcCReSnISiUxb3jzCb9joFk-Lt0lgqDmGLEsMsqHq77OABUR2qRaFO7OvXvJk12P9Yq8BCAhjHUgAcL4XSlcDvkRffgwOLsmOxNt47AAO1MPMTlSpiHQM2Ub2KNafZYOtrceZo6fDP5hTiw_Qx1DaZydnoP36Bp1BBWN8CA5RmwPnuk027lxReWuTWOQVn6S8Z0ZBhmD0OmQv1GHbBOSBhdGf8G44S9WzCnGNK-7nS3gez1PoevXJMuzcUz07OhwWm_yvYfdWUliOqRngih-fRPt-Igdpgl3yUEXHHEUo22RdO8yVisK8anJ20cxY0jQwhRyOm9ZFcqopTk66iRRXMu0kYwo7GhtURYBoWvXE7sXwUH9lUrm4kcSS2c7Eny_7aC7RCVBZPES6w0ivBl46CDMU-fNCjwf7_NwE6l6HQKgXLwfa7PKnKaTefRTI3mJrP5JbL_YcApQF1alHLuw53KbQlpMJYexCAlNRq9er8iTK58z8fYI91sqRvKw2fuCj9Bg5Se9sKsdSdFzjtV49GHSyP6lx1q_KM64r5qKsso6WpZnoofnXX3rzTSQXz17vLEkRmyO0tnHx1Xh6Ol-DCws2CCQdOsOiikmpp8MIt-jGCkX78ZuyWcWhPDKX-V0HoE08vDmBvpoEGqoEG7nc1U0EO5csbVMFKQw_RzFhHmySVvQEblscTxFu0]--></g></svg>