<?xml version="1.0" encoding="UTF-8" standalone="no"?><svg xmlns="http://www.w3.org/2000/svg" xmlns:xlink="http://www.w3.org/1999/xlink" contentStyleType="text/css" height="1657px" preserveAspectRatio="none" style="width:3714px;height:1657px;background:#FFFFFF;" version="1.1" viewBox="0 0 3714 1657" width="3714px" zoomAndPan="magnify"><defs/><g><rect fill="#FFFFFF" height="654.5996" style="stroke:#181818;stroke-width:1.0;" width="10" x="568.25" y="148.7199"/><rect fill="#FFFFFF" height="687.8396" style="stroke:#181818;stroke-width:1.0;" width="10" x="568.25" y="844.5595"/><rect fill="#FFFFFF" height="30" style="stroke:#181818;stroke-width:1.0;" width="10" x="1333.875" y="189.9599"/><rect fill="#FFFFFF" height="508.8797" style="stroke:#181818;stroke-width:1.0;" width="10" x="1333.875" y="261.1999"/><rect fill="#FFFFFF" height="258.4398" style="stroke:#181818;stroke-width:1.0;" width="10" x="1333.875" y="940.0395"/><rect fill="#FFFFFF" height="258.4398" style="stroke:#181818;stroke-width:1.0;" width="10" x="1333.875" y="1231.7193"/><rect fill="#FFFFFF" height="202.1999" style="stroke:#181818;stroke-width:1.0;" width="10" x="1595.5" y="302.4398"/><rect fill="#FFFFFF" height="202.1999" style="stroke:#181818;stroke-width:1.0;" width="10" x="1595.5" y="552.8797"/><rect fill="#FFFFFF" height="217.1999" style="stroke:#181818;stroke-width:1.0;" width="10" x="1824.5" y="981.2794"/><rect fill="#FFFFFF" height="202.1999" style="stroke:#181818;stroke-width:1.0;" width="10" x="2093" y="1272.9593"/><rect fill="#FFFFFF" height="41.24" style="stroke:#181818;stroke-width:1.0;" width="10" x="2283" y="1142.2393"/><rect fill="#FFFFFF" height="41.24" style="stroke:#181818;stroke-width:1.0;" width="10" x="2283" y="1433.9192"/><rect fill="#FFFFFF" height="41.24" style="stroke:#181818;stroke-width:1.0;" width="10" x="2396" y="463.3997"/><rect fill="#FFFFFF" height="41.24" style="stroke:#181818;stroke-width:1.0;" width="10" x="2396" y="713.8396"/><rect fill="#FFFFFF" height="30" style="stroke:#181818;stroke-width:1.0;" width="10" x="3100" y="343.6798"/><rect fill="#FFFFFF" height="30" style="stroke:#181818;stroke-width:1.0;" width="10" x="3100" y="594.1197"/><rect fill="#FFFFFF" height="30" style="stroke:#181818;stroke-width:1.0;" width="10" x="3322" y="1022.5194"/><rect fill="#FFFFFF" height="30" style="stroke:#181818;stroke-width:1.0;" width="10" x="3583.5" y="1314.1992"/><rect fill="none" height="123.9599" style="stroke:#000000;stroke-width:1.5;" width="1093" x="1501.5" y="388.6798"/><rect fill="none" height="123.9599" style="stroke:#000000;stroke-width:1.5;" width="1093" x="1501.5" y="639.1197"/><rect fill="none" height="123.9599" style="stroke:#000000;stroke-width:1.5;" width="1119" x="1689.5" y="1067.5194"/><rect fill="none" height="123.9599" style="stroke:#000000;stroke-width:1.5;" width="1060" x="1959.5" y="1359.1992"/><line style="stroke:#181818;stroke-width:0.5;stroke-dasharray:5.0,5.0;" x1="45" x2="45" y1="105.4799" y2="1541.3991"/><line style="stroke:#181818;stroke-width:0.5;stroke-dasharray:5.0,5.0;" x1="573.25" x2="573.25" y1="105.4799" y2="1541.3991"/><line style="stroke:#181818;stroke-width:0.5;stroke-dasharray:5.0,5.0;" x1="1338.375" x2="1338.375" y1="105.4799" y2="1541.3991"/><line style="stroke:#181818;stroke-width:0.5;stroke-dasharray:5.0,5.0;" x1="1600.5" x2="1600.5" y1="105.4799" y2="1541.3991"/><line style="stroke:#181818;stroke-width:0.5;stroke-dasharray:5.0,5.0;" x1="1829.5" x2="1829.5" y1="105.4799" y2="1541.3991"/><line style="stroke:#181818;stroke-width:0.5;stroke-dasharray:5.0,5.0;" x1="2097.5" x2="2097.5" y1="105.4799" y2="1541.3991"/><line style="stroke:#181818;stroke-width:0.5;stroke-dasharray:5.0,5.0;" x1="2287.5" x2="2287.5" y1="105.4799" y2="1541.3991"/><line style="stroke:#181818;stroke-width:0.5;stroke-dasharray:5.0,5.0;" x1="2400.5" x2="2400.5" y1="105.4799" y2="1541.3991"/><line style="stroke:#181818;stroke-width:0.5;stroke-dasharray:5.0,5.0;" x1="2523.5" x2="2523.5" y1="105.4799" y2="1541.3991"/><line style="stroke:#181818;stroke-width:0.5;stroke-dasharray:5.0,5.0;" x1="2696.5" x2="2696.5" y1="105.4799" y2="1541.3991"/><line style="stroke:#181818;stroke-width:0.5;stroke-dasharray:5.0,5.0;" x1="2908.5" x2="2908.5" y1="105.4799" y2="1541.3991"/><line style="stroke:#181818;stroke-width:0.5;stroke-dasharray:5.0,5.0;" x1="3104.5" x2="3104.5" y1="105.4799" y2="1541.3991"/><line style="stroke:#181818;stroke-width:0.5;stroke-dasharray:5.0,5.0;" x1="3326.5" x2="3326.5" y1="105.4799" y2="1541.3991"/><line style="stroke:#181818;stroke-width:0.5;stroke-dasharray:5.0,5.0;" x1="3588.5" x2="3588.5" y1="105.4799" y2="1541.3991"/><text fill="#000000" font-family="sans-serif" font-size="20" lengthAdjust="spacing" textLength="74" x="5" y="99.62">Teacher</text><ellipse cx="45" cy="26.74" fill="#E2E2F0" rx="8" ry="8" style="stroke:#181818;stroke-width:0.5;"/><path d="M45,34.74 L45,61.74 M32,42.74 L58,42.74 M45,61.74 L32,76.74 M45,61.74 L58,76.74 " fill="none" style="stroke:#181818;stroke-width:0.5;"/><text fill="#000000" font-family="sans-serif" font-size="20" lengthAdjust="spacing" textLength="74" x="5" y="1561.7791">Teacher</text><ellipse cx="45" cy="1576.1391" fill="#E2E2F0" rx="8" ry="8" style="stroke:#181818;stroke-width:0.5;"/><path d="M45,1584.1391 L45,1611.1391 M32,1592.1391 L58,1592.1391 M45,1611.1391 L32,1626.1391 M45,1611.1391 L58,1626.1391 " fill="none" style="stroke:#181818;stroke-width:0.5;"/><rect fill="#E2E2F0" height="68.4799" rx="2.5" ry="2.5" style="stroke:#181818;stroke-width:0.5;" width="196" x="475.25" y="36"/><text fill="#000000" font-family="sans-serif" font-size="20" font-style="italic" lengthAdjust="spacing" textLength="134" x="506.25" y="64.38">«presentation»</text><text fill="#000000" font-family="sans-serif" font-size="20" lengthAdjust="spacing" textLength="182" x="482.25" y="91.62">ListCourseExamsUI</text><rect fill="#E2E2F0" height="68.4799" rx="2.5" ry="2.5" style="stroke:#181818;stroke-width:0.5;" width="196" x="475.25" y="1540.3991"/><text fill="#000000" font-family="sans-serif" font-size="20" font-style="italic" lengthAdjust="spacing" textLength="134" x="506.25" y="1568.7791">«presentation»</text><text fill="#000000" font-family="sans-serif" font-size="20" lengthAdjust="spacing" textLength="182" x="482.25" y="1596.0191">ListCourseExamsUI</text><rect fill="#E2E2F0" height="68.4799" rx="2.5" ry="2.5" style="stroke:#181818;stroke-width:0.5;" width="267" x="1205.375" y="36"/><text fill="#000000" font-family="sans-serif" font-size="20" font-style="italic" lengthAdjust="spacing" textLength="120" x="1278.875" y="64.38">«application»</text><text fill="#000000" font-family="sans-serif" font-size="20" lengthAdjust="spacing" textLength="253" x="1212.375" y="91.62">ListCourseExamsController</text><rect fill="#E2E2F0" height="68.4799" rx="2.5" ry="2.5" style="stroke:#181818;stroke-width:0.5;" width="267" x="1205.375" y="1540.3991"/><text fill="#000000" font-family="sans-serif" font-size="20" font-style="italic" lengthAdjust="spacing" textLength="120" x="1278.875" y="1568.7791">«application»</text><text fill="#000000" font-family="sans-serif" font-size="20" lengthAdjust="spacing" textLength="253" x="1212.375" y="1596.0191">ListCourseExamsController</text><rect fill="#E2E2F0" height="68.4799" rx="2.5" ry="2.5" style="stroke:#181818;stroke-width:0.5;" width="178" x="1511.5" y="36"/><text fill="#000000" font-family="sans-serif" font-size="20" font-style="italic" lengthAdjust="spacing" textLength="80" x="1560.5" y="64.38">«service»</text><text fill="#000000" font-family="sans-serif" font-size="20" lengthAdjust="spacing" textLength="164" x="1518.5" y="91.62">CourseListService</text><rect fill="#E2E2F0" height="68.4799" rx="2.5" ry="2.5" style="stroke:#181818;stroke-width:0.5;" width="178" x="1511.5" y="1540.3991"/><text fill="#000000" font-family="sans-serif" font-size="20" font-style="italic" lengthAdjust="spacing" textLength="80" x="1560.5" y="1568.7791">«service»</text><text fill="#000000" font-family="sans-serif" font-size="20" lengthAdjust="spacing" textLength="164" x="1518.5" y="1596.0191">CourseListService</text><rect fill="#E2E2F0" height="68.4799" rx="2.5" ry="2.5" style="stroke:#181818;stroke-width:0.5;" width="260" x="1699.5" y="36"/><text fill="#000000" font-family="sans-serif" font-size="20" font-style="italic" lengthAdjust="spacing" textLength="80" x="1789.5" y="64.38">«service»</text><text fill="#000000" font-family="sans-serif" font-size="20" lengthAdjust="spacing" textLength="246" x="1706.5" y="91.62">EvaluationExamListService</text><rect fill="#E2E2F0" height="68.4799" rx="2.5" ry="2.5" style="stroke:#181818;stroke-width:0.5;" width="260" x="1699.5" y="1540.3991"/><text fill="#000000" font-family="sans-serif" font-size="20" font-style="italic" lengthAdjust="spacing" textLength="80" x="1789.5" y="1568.7791">«service»</text><text fill="#000000" font-family="sans-serif" font-size="20" lengthAdjust="spacing" textLength="246" x="1706.5" y="1596.0191">EvaluationExamListService</text><rect fill="#E2E2F0" height="68.4799" rx="2.5" ry="2.5" style="stroke:#181818;stroke-width:0.5;" width="257" x="1969.5" y="36"/><text fill="#000000" font-family="sans-serif" font-size="20" font-style="italic" lengthAdjust="spacing" textLength="80" x="2058" y="64.38">«service»</text><text fill="#000000" font-family="sans-serif" font-size="20" lengthAdjust="spacing" textLength="243" x="1976.5" y="91.62">FormativeExamListService</text><rect fill="#E2E2F0" height="68.4799" rx="2.5" ry="2.5" style="stroke:#181818;stroke-width:0.5;" width="257" x="1969.5" y="1540.3991"/><text fill="#000000" font-family="sans-serif" font-size="20" font-style="italic" lengthAdjust="spacing" textLength="80" x="2058" y="1568.7791">«service»</text><text fill="#000000" font-family="sans-serif" font-size="20" lengthAdjust="spacing" textLength="243" x="1976.5" y="1596.0191">FormativeExamListService</text><rect fill="#E2E2F0" height="68.4799" rx="2.5" ry="2.5" style="stroke:#181818;stroke-width:0.5;" width="103" x="2236.5" y="36"/><text fill="#000000" font-family="sans-serif" font-size="20" font-style="italic" lengthAdjust="spacing" textLength="89" x="2243.5" y="64.38">«domain»</text><text fill="#000000" font-family="sans-serif" font-size="20" lengthAdjust="spacing" textLength="52" x="2262" y="91.62">Exam</text><rect fill="#E2E2F0" height="68.4799" rx="2.5" ry="2.5" style="stroke:#181818;stroke-width:0.5;" width="103" x="2236.5" y="1540.3991"/><text fill="#000000" font-family="sans-serif" font-size="20" font-style="italic" lengthAdjust="spacing" textLength="89" x="2243.5" y="1568.7791">«domain»</text><text fill="#000000" font-family="sans-serif" font-size="20" lengthAdjust="spacing" textLength="52" x="2262" y="1596.0191">Exam</text><rect fill="#E2E2F0" height="68.4799" rx="2.5" ry="2.5" style="stroke:#181818;stroke-width:0.5;" width="103" x="2349.5" y="36"/><text fill="#000000" font-family="sans-serif" font-size="20" font-style="italic" lengthAdjust="spacing" textLength="89" x="2356.5" y="64.38">«domain»</text><text fill="#000000" font-family="sans-serif" font-size="20" lengthAdjust="spacing" textLength="66" x="2368" y="91.62">Course</text><rect fill="#E2E2F0" height="68.4799" rx="2.5" ry="2.5" style="stroke:#181818;stroke-width:0.5;" width="103" x="2349.5" y="1540.3991"/><text fill="#000000" font-family="sans-serif" font-size="20" font-style="italic" lengthAdjust="spacing" textLength="89" x="2356.5" y="1568.7791">«domain»</text><text fill="#000000" font-family="sans-serif" font-size="20" lengthAdjust="spacing" textLength="66" x="2368" y="1596.0191">Course</text><rect fill="#E2E2F0" height="68.4799" rx="2.5" ry="2.5" style="stroke:#181818;stroke-width:0.5;" width="122" x="2462.5" y="36"/><text fill="#000000" font-family="sans-serif" font-size="20" font-style="italic" lengthAdjust="spacing" textLength="50" x="2498.5" y="64.38">«dto»</text><text fill="#000000" font-family="sans-serif" font-size="20" lengthAdjust="spacing" textLength="108" x="2469.5" y="91.62">CourseDTO</text><rect fill="#E2E2F0" height="68.4799" rx="2.5" ry="2.5" style="stroke:#181818;stroke-width:0.5;" width="122" x="2462.5" y="1540.3991"/><text fill="#000000" font-family="sans-serif" font-size="20" font-style="italic" lengthAdjust="spacing" textLength="50" x="2498.5" y="1568.7791">«dto»</text><text fill="#000000" font-family="sans-serif" font-size="20" lengthAdjust="spacing" textLength="108" x="2469.5" y="1596.0191">CourseDTO</text><rect fill="#E2E2F0" height="68.4799" rx="2.5" ry="2.5" style="stroke:#181818;stroke-width:0.5;" width="204" x="2594.5" y="36"/><text fill="#000000" font-family="sans-serif" font-size="20" font-style="italic" lengthAdjust="spacing" textLength="50" x="2671.5" y="64.38">«dto»</text><text fill="#000000" font-family="sans-serif" font-size="20" lengthAdjust="spacing" textLength="190" x="2601.5" y="91.62">EvaluationExamDTO</text><rect fill="#E2E2F0" height="68.4799" rx="2.5" ry="2.5" style="stroke:#181818;stroke-width:0.5;" width="204" x="2594.5" y="1540.3991"/><text fill="#000000" font-family="sans-serif" font-size="20" font-style="italic" lengthAdjust="spacing" textLength="50" x="2671.5" y="1568.7791">«dto»</text><text fill="#000000" font-family="sans-serif" font-size="20" lengthAdjust="spacing" textLength="190" x="2601.5" y="1596.0191">EvaluationExamDTO</text><rect fill="#E2E2F0" height="68.4799" rx="2.5" ry="2.5" style="stroke:#181818;stroke-width:0.5;" width="201" x="2808.5" y="36"/><text fill="#000000" font-family="sans-serif" font-size="20" font-style="italic" lengthAdjust="spacing" textLength="50" x="2884" y="64.38">«dto»</text><text fill="#000000" font-family="sans-serif" font-size="20" lengthAdjust="spacing" textLength="187" x="2815.5" y="91.62">FormativeExamDTO</text><rect fill="#E2E2F0" height="68.4799" rx="2.5" ry="2.5" style="stroke:#181818;stroke-width:0.5;" width="201" x="2808.5" y="1540.3991"/><text fill="#000000" font-family="sans-serif" font-size="20" font-style="italic" lengthAdjust="spacing" textLength="50" x="2884" y="1568.7791">«dto»</text><text fill="#000000" font-family="sans-serif" font-size="20" lengthAdjust="spacing" textLength="187" x="2815.5" y="1596.0191">FormativeExamDTO</text><text fill="#000000" font-family="sans-serif" font-size="20" font-style="italic" lengthAdjust="spacing" textLength="110" x="3047" y="72.38">«repository»</text><text fill="#000000" font-family="sans-serif" font-size="20" lengthAdjust="spacing" textLength="165" x="3019.5" y="99.62">CourseRepository</text><path d="M3087,15 C3087,5 3105,5 3105,5 C3105,5 3123,5 3123,15 L3123,41 C3123,51 3105,51 3105,51 C3105,51 3087,51 3087,41 L3087,15 " fill="#E2E2F0" style="stroke:#181818;stroke-width:1.5;"/><path d="M3087,15 C3087,25 3105,25 3105,25 C3105,25 3123,25 3123,15 " fill="none" style="stroke:#181818;stroke-width:1.5;"/><text fill="#000000" font-family="sans-serif" font-size="20" font-style="italic" lengthAdjust="spacing" textLength="110" x="3047" y="1561.7791">«repository»</text><text fill="#000000" font-family="sans-serif" font-size="20" lengthAdjust="spacing" textLength="165" x="3019.5" y="1589.0191">CourseRepository</text><path d="M3087,1604.8791 C3087,1594.8791 3105,1594.8791 3105,1594.8791 C3105,1594.8791 3123,1594.8791 3123,1604.8791 L3123,1630.8791 C3123,1640.8791 3105,1640.8791 3105,1640.8791 C3105,1640.8791 3087,1640.8791 3087,1630.8791 L3087,1604.8791 " fill="#E2E2F0" style="stroke:#181818;stroke-width:1.5;"/><path d="M3087,1604.8791 C3087,1614.8791 3105,1614.8791 3105,1614.8791 C3105,1614.8791 3123,1614.8791 3123,1604.8791 " fill="none" style="stroke:#181818;stroke-width:1.5;"/><text fill="#000000" font-family="sans-serif" font-size="20" font-style="italic" lengthAdjust="spacing" textLength="110" x="3269" y="72.38">«repository»</text><text fill="#000000" font-family="sans-serif" font-size="20" lengthAdjust="spacing" textLength="247" x="3200.5" y="99.62">EvaluationExamRepository</text><path d="M3309,15 C3309,5 3327,5 3327,5 C3327,5 3345,5 3345,15 L3345,41 C3345,51 3327,51 3327,51 C3327,51 3309,51 3309,41 L3309,15 " fill="#E2E2F0" style="stroke:#181818;stroke-width:1.5;"/><path d="M3309,15 C3309,25 3327,25 3327,25 C3327,25 3345,25 3345,15 " fill="none" style="stroke:#181818;stroke-width:1.5;"/><text fill="#000000" font-family="sans-serif" font-size="20" font-style="italic" lengthAdjust="spacing" textLength="110" x="3269" y="1561.7791">«repository»</text><text fill="#000000" font-family="sans-serif" font-size="20" lengthAdjust="spacing" textLength="247" x="3200.5" y="1589.0191">EvaluationExamRepository</text><path d="M3309,1604.8791 C3309,1594.8791 3327,1594.8791 3327,1594.8791 C3327,1594.8791 3345,1594.8791 3345,1604.8791 L3345,1630.8791 C3345,1640.8791 3327,1640.8791 3327,1640.8791 C3327,1640.8791 3309,1640.8791 3309,1630.8791 L3309,1604.8791 " fill="#E2E2F0" style="stroke:#181818;stroke-width:1.5;"/><path d="M3309,1604.8791 C3309,1614.8791 3327,1614.8791 3327,1614.8791 C3327,1614.8791 3345,1614.8791 3345,1604.8791 " fill="none" style="stroke:#181818;stroke-width:1.5;"/><text fill="#000000" font-family="sans-serif" font-size="20" font-style="italic" lengthAdjust="spacing" textLength="110" x="3530.5" y="72.38">«repository»</text><text fill="#000000" font-family="sans-serif" font-size="20" lengthAdjust="spacing" textLength="244" x="3463.5" y="99.62">FormativeExamRepository</text><path d="M3570.5,15 C3570.5,5 3588.5,5 3588.5,5 C3588.5,5 3606.5,5 3606.5,15 L3606.5,41 C3606.5,51 3588.5,51 3588.5,51 C3588.5,51 3570.5,51 3570.5,41 L3570.5,15 " fill="#E2E2F0" style="stroke:#181818;stroke-width:1.5;"/><path d="M3570.5,15 C3570.5,25 3588.5,25 3588.5,25 C3588.5,25 3606.5,25 3606.5,15 " fill="none" style="stroke:#181818;stroke-width:1.5;"/><text fill="#000000" font-family="sans-serif" font-size="20" font-style="italic" lengthAdjust="spacing" textLength="110" x="3530.5" y="1561.7791">«repository»</text><text fill="#000000" font-family="sans-serif" font-size="20" lengthAdjust="spacing" textLength="244" x="3463.5" y="1589.0191">FormativeExamRepository</text><path d="M3570.5,1604.8791 C3570.5,1594.8791 3588.5,1594.8791 3588.5,1594.8791 C3588.5,1594.8791 3606.5,1594.8791 3606.5,1604.8791 L3606.5,1630.8791 C3606.5,1640.8791 3588.5,1640.8791 3588.5,1640.8791 C3588.5,1640.8791 3570.5,1640.8791 3570.5,1630.8791 L3570.5,1604.8791 " fill="#E2E2F0" style="stroke:#181818;stroke-width:1.5;"/><path d="M3570.5,1604.8791 C3570.5,1614.8791 3588.5,1614.8791 3588.5,1614.8791 C3588.5,1614.8791 3606.5,1614.8791 3606.5,1604.8791 " fill="none" style="stroke:#181818;stroke-width:1.5;"/><rect fill="#FFFFFF" height="654.5996" style="stroke:#181818;stroke-width:1.0;" width="10" x="568.25" y="148.7199"/><rect fill="#FFFFFF" height="687.8396" style="stroke:#181818;stroke-width:1.0;" width="10" x="568.25" y="844.5595"/><rect fill="#FFFFFF" height="30" style="stroke:#181818;stroke-width:1.0;" width="10" x="1333.875" y="189.9599"/><rect fill="#FFFFFF" height="508.8797" style="stroke:#181818;stroke-width:1.0;" width="10" x="1333.875" y="261.1999"/><rect fill="#FFFFFF" height="258.4398" style="stroke:#181818;stroke-width:1.0;" width="10" x="1333.875" y="940.0395"/><rect fill="#FFFFFF" height="258.4398" style="stroke:#181818;stroke-width:1.0;" width="10" x="1333.875" y="1231.7193"/><rect fill="#FFFFFF" height="202.1999" style="stroke:#181818;stroke-width:1.0;" width="10" x="1595.5" y="302.4398"/><rect fill="#FFFFFF" height="202.1999" style="stroke:#181818;stroke-width:1.0;" width="10" x="1595.5" y="552.8797"/><rect fill="#FFFFFF" height="217.1999" style="stroke:#181818;stroke-width:1.0;" width="10" x="1824.5" y="981.2794"/><rect fill="#FFFFFF" height="202.1999" style="stroke:#181818;stroke-width:1.0;" width="10" x="2093" y="1272.9593"/><rect fill="#FFFFFF" height="41.24" style="stroke:#181818;stroke-width:1.0;" width="10" x="2283" y="1142.2393"/><rect fill="#FFFFFF" height="41.24" style="stroke:#181818;stroke-width:1.0;" width="10" x="2283" y="1433.9192"/><rect fill="#FFFFFF" height="41.24" style="stroke:#181818;stroke-width:1.0;" width="10" x="2396" y="463.3997"/><rect fill="#FFFFFF" height="41.24" style="stroke:#181818;stroke-width:1.0;" width="10" x="2396" y="713.8396"/><rect fill="#FFFFFF" height="30" style="stroke:#181818;stroke-width:1.0;" width="10" x="3100" y="343.6798"/><rect fill="#FFFFFF" height="30" style="stroke:#181818;stroke-width:1.0;" width="10" x="3100" y="594.1197"/><rect fill="#FFFFFF" height="30" style="stroke:#181818;stroke-width:1.0;" width="10" x="3322" y="1022.5194"/><rect fill="#FFFFFF" height="30" style="stroke:#181818;stroke-width:1.0;" width="10" x="3583.5" y="1314.1992"/><polygon fill="#181818" points="556.25,144.7199,566.25,148.7199,556.25,152.7199,560.25,148.7199" style="stroke:#181818;stroke-width:1.0;"/><line style="stroke:#181818;stroke-width:1.0;" x1="45" x2="562.25" y1="148.7199" y2="148.7199"/><text fill="#000000" font-family="sans-serif" font-size="20" font-weight="bold" lengthAdjust="spacing" textLength="11.625" x="52" y="140.8599">1</text><text fill="#000000" font-family="sans-serif" font-size="20" lengthAdjust="spacing" textLength="394" x="67.625" y="140.8599">requests to view the exams list of a course</text><polygon fill="#181818" points="1321.875,185.9599,1331.875,189.9599,1321.875,193.9599,1325.875,189.9599" style="stroke:#181818;stroke-width:1.0;"/><line style="stroke:#181818;stroke-width:1.0;" x1="578.25" x2="1327.875" y1="189.9599" y2="189.9599"/><text fill="#000000" font-family="sans-serif" font-size="20" font-weight="bold" lengthAdjust="spacing" textLength="11.625" x="585.25" y="182.0999">2</text><text fill="#000000" font-family="sans-serif" font-size="20" lengthAdjust="spacing" textLength="721" x="600.875" y="182.0999">new(courseRepository, evaluationExamRepository, formativeExamRepository)</text><polygon fill="#181818" points="1321.875,257.1999,1331.875,261.1999,1321.875,265.1999,1325.875,261.1999" style="stroke:#181818;stroke-width:1.0;"/><line style="stroke:#181818;stroke-width:1.0;" x1="578.25" x2="1327.875" y1="261.1999" y2="261.1999"/><text fill="#000000" font-family="sans-serif" font-size="20" font-weight="bold" lengthAdjust="spacing" textLength="11.625" x="585.25" y="253.3399">3</text><text fill="#000000" font-family="sans-serif" font-size="20" lengthAdjust="spacing" textLength="362" x="600.875" y="253.3399">courses = listOpenInProgressCourses()</text><polygon fill="#181818" points="1583.5,298.4398,1593.5,302.4398,1583.5,306.4398,1587.5,302.4398" style="stroke:#181818;stroke-width:1.0;"/><line style="stroke:#181818;stroke-width:1.0;" x1="1343.875" x2="1589.5" y1="302.4398" y2="302.4398"/><text fill="#000000" font-family="sans-serif" font-size="20" font-weight="bold" lengthAdjust="spacing" textLength="11.625" x="1350.875" y="294.5799">4</text><text fill="#000000" font-family="sans-serif" font-size="20" lengthAdjust="spacing" textLength="166" x="1366.5" y="294.5799">listOpenCourses()</text><polygon fill="#181818" points="3088,339.6798,3098,343.6798,3088,347.6798,3092,343.6798" style="stroke:#181818;stroke-width:1.0;"/><line style="stroke:#181818;stroke-width:1.0;" x1="1605.5" x2="3094" y1="343.6798" y2="343.6798"/><text fill="#000000" font-family="sans-serif" font-size="20" font-weight="bold" lengthAdjust="spacing" textLength="11.625" x="1612.5" y="335.8198">5</text><text fill="#000000" font-family="sans-serif" font-size="20" lengthAdjust="spacing" textLength="122" x="1628.125" y="335.8198">findAllOpen()</text><path d="M1501.5,388.6798 L1590,388.6798 L1590,407.9198 L1580,417.9198 L1501.5,417.9198 L1501.5,388.6798 " fill="#EEEEEE" style="stroke:#000000;stroke-width:1.5;"/><rect fill="none" height="123.9599" style="stroke:#000000;stroke-width:1.5;" width="1093" x="1501.5" y="388.6798"/><text fill="#000000" font-family="sans-serif" font-size="20" font-weight="bold" lengthAdjust="spacing" textLength="43.5" x="1516.5" y="411.0598">loop</text><text fill="#000000" font-family="sans-serif" font-size="20" font-weight="bold" lengthAdjust="spacing" textLength="167.375" x="1605" y="412.0598">[for each course]</text><polygon fill="#181818" points="2384,459.3997,2394,463.3997,2384,467.3997,2388,463.3997" style="stroke:#181818;stroke-width:1.0;"/><line style="stroke:#181818;stroke-width:1.0;" x1="1605.5" x2="2390" y1="463.3997" y2="463.3997"/><text fill="#000000" font-family="sans-serif" font-size="20" font-weight="bold" lengthAdjust="spacing" textLength="11.625" x="1612.5" y="455.5398">6</text><text fill="#000000" font-family="sans-serif" font-size="20" lengthAdjust="spacing" textLength="136" x="1628.125" y="455.5398">toDTO(course)</text><polygon fill="#181818" points="2511.5,500.6397,2521.5,504.6397,2511.5,508.6397,2515.5,504.6397" style="stroke:#181818;stroke-width:1.0;"/><line style="stroke:#181818;stroke-width:1.0;" x1="2401" x2="2517.5" y1="504.6397" y2="504.6397"/><text fill="#000000" font-family="sans-serif" font-size="20" font-weight="bold" lengthAdjust="spacing" textLength="11.625" x="2408" y="496.7797">7</text><text fill="#000000" font-family="sans-serif" font-size="20" lengthAdjust="spacing" textLength="39" x="2423.625" y="496.7797">new</text><polygon fill="#181818" points="1583.5,548.8797,1593.5,552.8797,1583.5,556.8797,1587.5,552.8797" style="stroke:#181818;stroke-width:1.0;"/><line style="stroke:#181818;stroke-width:1.0;" x1="1343.875" x2="1589.5" y1="552.8797" y2="552.8797"/><text fill="#000000" font-family="sans-serif" font-size="20" font-weight="bold" lengthAdjust="spacing" textLength="11.625" x="1350.875" y="545.0197">8</text><text fill="#000000" font-family="sans-serif" font-size="20" lengthAdjust="spacing" textLength="217" x="1366.5" y="545.0197">listInProgressCourses()</text><polygon fill="#181818" points="3088,590.1197,3098,594.1197,3088,598.1197,3092,594.1197" style="stroke:#181818;stroke-width:1.0;"/><line style="stroke:#181818;stroke-width:1.0;" x1="1605.5" x2="3094" y1="594.1197" y2="594.1197"/><text fill="#000000" font-family="sans-serif" font-size="20" font-weight="bold" lengthAdjust="spacing" textLength="11.625" x="1612.5" y="586.2597">9</text><text fill="#000000" font-family="sans-serif" font-size="20" lengthAdjust="spacing" textLength="173" x="1628.125" y="586.2597">findAllInProgress()</text><path d="M1501.5,639.1197 L1590,639.1197 L1590,658.3596 L1580,668.3596 L1501.5,668.3596 L1501.5,639.1197 " fill="#EEEEEE" style="stroke:#000000;stroke-width:1.5;"/><rect fill="none" height="123.9599" style="stroke:#000000;stroke-width:1.5;" width="1093" x="1501.5" y="639.1197"/><text fill="#000000" font-family="sans-serif" font-size="20" font-weight="bold" lengthAdjust="spacing" textLength="43.5" x="1516.5" y="661.4997">loop</text><text fill="#000000" font-family="sans-serif" font-size="20" font-weight="bold" lengthAdjust="spacing" textLength="167.375" x="1605" y="662.4997">[for each course]</text><polygon fill="#181818" points="2384,709.8396,2394,713.8396,2384,717.8396,2388,713.8396" style="stroke:#181818;stroke-width:1.0;"/><line style="stroke:#181818;stroke-width:1.0;" x1="1605.5" x2="2390" y1="713.8396" y2="713.8396"/><text fill="#000000" font-family="sans-serif" font-size="20" font-weight="bold" lengthAdjust="spacing" textLength="23.25" x="1612.5" y="705.9796">10</text><text fill="#000000" font-family="sans-serif" font-size="20" lengthAdjust="spacing" textLength="136" x="1639.75" y="705.9796">toDTO(course)</text><polygon fill="#181818" points="2511.5,751.0796,2521.5,755.0796,2511.5,759.0796,2515.5,755.0796" style="stroke:#181818;stroke-width:1.0;"/><line style="stroke:#181818;stroke-width:1.0;" x1="2401" x2="2517.5" y1="755.0796" y2="755.0796"/><text fill="#000000" font-family="sans-serif" font-size="20" font-weight="bold" lengthAdjust="spacing" textLength="23.25" x="2408" y="747.2196">11</text><text fill="#000000" font-family="sans-serif" font-size="20" lengthAdjust="spacing" textLength="39" x="2435.25" y="747.2196">new</text><polygon fill="#181818" points="56,799.3195,46,803.3195,56,807.3195,52,803.3195" style="stroke:#181818;stroke-width:1.0;"/><line style="stroke:#181818;stroke-width:1.0;stroke-dasharray:2.0,2.0;" x1="50" x2="572.25" y1="803.3195" y2="803.3195"/><text fill="#000000" font-family="sans-serif" font-size="20" font-weight="bold" lengthAdjust="spacing" textLength="23.25" x="62" y="795.4596">12</text><text fill="#000000" font-family="sans-serif" font-size="20" lengthAdjust="spacing" textLength="472" x="89.25" y="795.4596">lists all the available courses and asks to select one</text><polygon fill="#181818" points="556.25,840.5595,566.25,844.5595,556.25,848.5595,560.25,844.5595" style="stroke:#181818;stroke-width:1.0;"/><line style="stroke:#181818;stroke-width:1.0;" x1="45" x2="562.25" y1="844.5595" y2="844.5595"/><text fill="#000000" font-family="sans-serif" font-size="20" font-weight="bold" lengthAdjust="spacing" textLength="23.25" x="52" y="836.6995">13</text><text fill="#000000" font-family="sans-serif" font-size="20" lengthAdjust="spacing" textLength="241" x="79.25" y="836.6995">selects the desired course</text><line style="stroke:#181818;stroke-width:1.0;" x1="578.25" x2="620.25" y1="885.7995" y2="885.7995"/><line style="stroke:#181818;stroke-width:1.0;" x1="620.25" x2="620.25" y1="885.7995" y2="898.7995"/><line style="stroke:#181818;stroke-width:1.0;" x1="579.25" x2="620.25" y1="898.7995" y2="898.7995"/><polygon fill="#181818" points="589.25,894.7995,579.25,898.7995,589.25,902.7995,585.25,898.7995" style="stroke:#181818;stroke-width:1.0;"/><text fill="#000000" font-family="sans-serif" font-size="20" font-weight="bold" lengthAdjust="spacing" textLength="23.25" x="585.25" y="877.9395">14</text><text fill="#000000" font-family="sans-serif" font-size="20" lengthAdjust="spacing" textLength="284" x="612.5" y="877.9395">course = select(courses, index)</text><polygon fill="#181818" points="1321.875,936.0395,1331.875,940.0395,1321.875,944.0395,1325.875,940.0395" style="stroke:#181818;stroke-width:1.0;"/><line style="stroke:#181818;stroke-width:1.0;" x1="578.25" x2="1327.875" y1="940.0395" y2="940.0395"/><text fill="#000000" font-family="sans-serif" font-size="20" font-weight="bold" lengthAdjust="spacing" textLength="23.25" x="585.25" y="932.1795">15</text><text fill="#000000" font-family="sans-serif" font-size="20" lengthAdjust="spacing" textLength="505" x="612.5" y="932.1795">evaluationExams = listCourseEvaluationExams(course)</text><polygon fill="#181818" points="1812.5,977.2794,1822.5,981.2794,1812.5,985.2794,1816.5,981.2794" style="stroke:#181818;stroke-width:1.0;"/><line style="stroke:#181818;stroke-width:1.0;" x1="1343.875" x2="1818.5" y1="981.2794" y2="981.2794"/><text fill="#000000" font-family="sans-serif" font-size="20" font-weight="bold" lengthAdjust="spacing" textLength="23.25" x="1350.875" y="973.4195">16</text><text fill="#000000" font-family="sans-serif" font-size="20" lengthAdjust="spacing" textLength="253" x="1378.125" y="973.4195">listAllCourseExams(course)</text><polygon fill="#181818" points="3310,1018.5194,3320,1022.5194,3310,1026.5194,3314,1022.5194" style="stroke:#181818;stroke-width:1.0;"/><line style="stroke:#181818;stroke-width:1.0;" x1="1834.5" x2="3316" y1="1022.5194" y2="1022.5194"/><text fill="#000000" font-family="sans-serif" font-size="20" font-weight="bold" lengthAdjust="spacing" textLength="23.25" x="1841.5" y="1014.6594">17</text><text fill="#000000" font-family="sans-serif" font-size="20" lengthAdjust="spacing" textLength="262" x="1868.75" y="1014.6594">findAllCourseExams(course)</text><path d="M1689.5,1067.5194 L1778,1067.5194 L1778,1086.7594 L1768,1096.7594 L1689.5,1096.7594 L1689.5,1067.5194 " fill="#EEEEEE" style="stroke:#000000;stroke-width:1.5;"/><rect fill="none" height="123.9599" style="stroke:#000000;stroke-width:1.5;" width="1119" x="1689.5" y="1067.5194"/><text fill="#000000" font-family="sans-serif" font-size="20" font-weight="bold" lengthAdjust="spacing" textLength="43.5" x="1704.5" y="1089.8994">loop</text><text fill="#000000" font-family="sans-serif" font-size="20" font-weight="bold" lengthAdjust="spacing" textLength="155.125" x="1793" y="1090.8994">[for each exam]</text><polygon fill="#181818" points="2271,1138.2393,2281,1142.2393,2271,1146.2393,2275,1142.2393" style="stroke:#181818;stroke-width:1.0;"/><line style="stroke:#181818;stroke-width:1.0;" x1="1834.5" x2="2277" y1="1142.2393" y2="1142.2393"/><text fill="#000000" font-family="sans-serif" font-size="20" font-weight="bold" lengthAdjust="spacing" textLength="23.25" x="1841.5" y="1134.3794">18</text><text fill="#000000" font-family="sans-serif" font-size="20" lengthAdjust="spacing" textLength="125" x="1868.75" y="1134.3794">toDTO(exam)</text><polygon fill="#181818" points="2684.5,1179.4793,2694.5,1183.4793,2684.5,1187.4793,2688.5,1183.4793" style="stroke:#181818;stroke-width:1.0;"/><line style="stroke:#181818;stroke-width:1.0;" x1="2288" x2="2690.5" y1="1183.4793" y2="1183.4793"/><text fill="#000000" font-family="sans-serif" font-size="20" font-weight="bold" lengthAdjust="spacing" textLength="23.25" x="2295" y="1175.6193">19</text><text fill="#000000" font-family="sans-serif" font-size="20" lengthAdjust="spacing" textLength="39" x="2322.25" y="1175.6193">new</text><polygon fill="#181818" points="1321.875,1227.7193,1331.875,1231.7193,1321.875,1235.7193,1325.875,1231.7193" style="stroke:#181818;stroke-width:1.0;"/><line style="stroke:#181818;stroke-width:1.0;" x1="578.25" x2="1327.875" y1="1231.7193" y2="1231.7193"/><text fill="#000000" font-family="sans-serif" font-size="20" font-weight="bold" lengthAdjust="spacing" textLength="23.25" x="585.25" y="1223.8593">20</text><text fill="#000000" font-family="sans-serif" font-size="20" lengthAdjust="spacing" textLength="496" x="612.5" y="1223.8593">formativeExams = listCourseFormativeExams(course)</text><polygon fill="#181818" points="2081,1268.9593,2091,1272.9593,2081,1276.9593,2085,1272.9593" style="stroke:#181818;stroke-width:1.0;"/><line style="stroke:#181818;stroke-width:1.0;" x1="1343.875" x2="2087" y1="1272.9593" y2="1272.9593"/><text fill="#000000" font-family="sans-serif" font-size="20" font-weight="bold" lengthAdjust="spacing" textLength="23.25" x="1350.875" y="1265.0993">21</text><text fill="#000000" font-family="sans-serif" font-size="20" lengthAdjust="spacing" textLength="253" x="1378.125" y="1265.0993">listAllCourseExams(course)</text><polygon fill="#181818" points="3571.5,1310.1992,3581.5,1314.1992,3571.5,1318.1992,3575.5,1314.1992" style="stroke:#181818;stroke-width:1.0;"/><line style="stroke:#181818;stroke-width:1.0;" x1="2103" x2="3577.5" y1="1314.1992" y2="1314.1992"/><text fill="#000000" font-family="sans-serif" font-size="20" font-weight="bold" lengthAdjust="spacing" textLength="23.25" x="2110" y="1306.3393">22</text><text fill="#000000" font-family="sans-serif" font-size="20" lengthAdjust="spacing" textLength="262" x="2137.25" y="1306.3393">findAllCourseExams(course)</text><path d="M1959.5,1359.1992 L2048,1359.1992 L2048,1378.4392 L2038,1388.4392 L1959.5,1388.4392 L1959.5,1359.1992 " fill="#EEEEEE" style="stroke:#000000;stroke-width:1.5;"/><rect fill="none" height="123.9599" style="stroke:#000000;stroke-width:1.5;" width="1060" x="1959.5" y="1359.1992"/><text fill="#000000" font-family="sans-serif" font-size="20" font-weight="bold" lengthAdjust="spacing" textLength="43.5" x="1974.5" y="1381.5792">loop</text><text fill="#000000" font-family="sans-serif" font-size="20" font-weight="bold" lengthAdjust="spacing" textLength="155.125" x="2063" y="1382.5792">[for each exam]</text><polygon fill="#181818" points="2271,1429.9192,2281,1433.9192,2271,1437.9192,2275,1433.9192" style="stroke:#181818;stroke-width:1.0;"/><line style="stroke:#181818;stroke-width:1.0;" x1="2103" x2="2277" y1="1433.9192" y2="1433.9192"/><text fill="#000000" font-family="sans-serif" font-size="20" font-weight="bold" lengthAdjust="spacing" textLength="23.25" x="2110" y="1426.0592">23</text><text fill="#000000" font-family="sans-serif" font-size="20" lengthAdjust="spacing" textLength="125" x="2137.25" y="1426.0592">toDTO(exam)</text><polygon fill="#181818" points="2897,1471.1591,2907,1475.1591,2897,1479.1591,2901,1475.1591" style="stroke:#181818;stroke-width:1.0;"/><line style="stroke:#181818;stroke-width:1.0;" x1="2288" x2="2903" y1="1475.1591" y2="1475.1591"/><text fill="#000000" font-family="sans-serif" font-size="20" font-weight="bold" lengthAdjust="spacing" textLength="23.25" x="2295" y="1467.2992">24</text><text fill="#000000" font-family="sans-serif" font-size="20" lengthAdjust="spacing" textLength="39" x="2322.25" y="1467.2992">new</text><polygon fill="#181818" points="56,1519.3991,46,1523.3991,56,1527.3991,52,1523.3991" style="stroke:#181818;stroke-width:1.0;"/><line style="stroke:#181818;stroke-width:1.0;stroke-dasharray:2.0,2.0;" x1="50" x2="567.25" y1="1523.3991" y2="1523.3991"/><text fill="#000000" font-family="sans-serif" font-size="20" font-weight="bold" lengthAdjust="spacing" textLength="23.25" x="62" y="1515.5391">25</text><text fill="#000000" font-family="sans-serif" font-size="20" lengthAdjust="spacing" textLength="402" x="89.25" y="1515.5391">displays all the exams of the chosen course</text><!--SRC=[tLPDJzmm4BtxLumuWKIbgiSLHQeWbf2GGClIQsMIsMBXZLFRkq1_VMViPBCEIQ0zTa-EFMy-txFNF-cwKKvjZ2sVi88ArsfhWhHrkDE_4Rvy5ceRRBtTFA0JGfN1EZXQeIeVqHs1yh0IWXm4NUf6rG6EhhKF5tRhF1OlQkFlhwBL_HMSdJKEFTP11Mthy_DPs0KbuAmnRP2BrVAQ7AYcCReSnISiUxb3jzCb9joFk-Lt0lgqDmGLEsMsqHq77OABUR2qRaFO7OvXvJk12P9Yq8BCAhjHUgAcL4XSlcDvkRffgwOLsmOxNt47AAO1MPMTlSpiHQM2Ub2KNafZYOtrceZo6fDP5hTiw_Qx1DaZydnoP36Bp1BBWN8CA5RmwPnuk027lxReWuTWOQVn6S8Z0ZBhmD0OmQv1GHbBOSBhdGf8G44S9WzCnGNK-7nS3gez1PoevXJMuzcUz07OhwWm_yvYfdWUliOqRngih-fRPt-Igdpgl3yUEXHHEUo22RdO8yVisK8anJ20cxY0jQwhRyOm9ZFcqopTk66iRRXMu0kYwo7GhtURYBoWvXE7sXwUH9lUrm4kcSS2c7Eny_7aC7RCVBZPES6w0ivBl46CDMU-fNCjwf7_NwE6l6HQKgXLwfa7PKnKaTefRTI3mJrP5JbL_YcApQF1alHLuw53KbQlpMJYexCAlNRq9er8iTK58z8fYI91sqRvKw2fuCj9Bg5Se9sKsdSdFzjtV49GHSyP6lx1q_KM64r5qKsso6WpZnoofnXX3rzTSQXz17vLEkRmyO0tnHx1Xh6Ol-DCws2CCQdOsOiikmpp8MIt-jGCkX78ZuyWcWhPDKX-V0HoE08vDmBvpoEGqoEG7nc1U0EO5csbVMFKQw_RzFhHmySVvQEblscTxFu0]--></g></svg>