<?xml version="1.0" encoding="UTF-8" standalone="no"?><svg xmlns="http://www.w3.org/2000/svg" xmlns:xlink="http://www.w3.org/1999/xlink" contentStyleType="text/css" height="1762px" preserveAspectRatio="none" style="width:2810px;height:1762px;background:#FFFFFF;" version="1.1" viewBox="0 0 2810 1762" width="2810px" zoomAndPan="magnify"><defs/><g><rect fill="#FFFFFF" height="1512.6391" style="stroke:#181818;stroke-width:1.0;" width="10" x="46" y="115.4799"/><rect fill="#FFFFFF" height="580.3596" style="stroke:#181818;stroke-width:1.0;" width="10" x="709.25" y="148.7199"/><rect fill="#FFFFFF" height="456.6397" style="stroke:#181818;stroke-width:1.0;" width="10" x="709.25" y="770.3195"/><rect fill="#FFFFFF" height="41.24" style="stroke:#181818;stroke-width:1.0;" width="10" x="709.25" y="1268.1992"/><rect fill="#FFFFFF" height="277.4398" style="stroke:#181818;stroke-width:1.0;" width="10" x="709.25" y="1350.6792"/><rect fill="#FFFFFF" height="82.4799" style="stroke:#181818;stroke-width:1.0;" width="10" x="1187.875" y="189.9599"/><rect fill="#FFFFFF" height="374.1598" style="stroke:#181818;stroke-width:1.0;" width="10" x="1187.875" y="313.6798"/><rect fill="#FFFFFF" height="374.1598" style="stroke:#181818;stroke-width:1.0;" width="10" x="1187.875" y="811.5595"/><rect fill="#FFFFFF" height="194.9599" style="stroke:#181818;stroke-width:1.0;" width="10" x="1187.875" y="1391.9192"/><rect fill="#FFFFFF" height="291.6798" style="stroke:#181818;stroke-width:1.0;" width="10" x="1537.5" y="354.9198"/><rect fill="#FFFFFF" height="291.6798" style="stroke:#181818;stroke-width:1.0;" width="10" x="1748" y="852.7995"/><rect fill="#FFFFFF" height="71.24" style="stroke:#181818;stroke-width:1.0;" width="10" x="1918.5" y="527.1197"/><rect fill="#FFFFFF" height="71.24" style="stroke:#181818;stroke-width:1.0;" width="10" x="2038" y="1024.9994"/><rect fill="#FFFFFF" height="30" style="stroke:#181818;stroke-width:1.0;" width="10" x="2038" y="1433.1591"/><rect fill="#FFFFFF" height="30" style="stroke:#181818;stroke-width:1.0;" width="10" x="2167.5" y="568.3596"/><rect fill="#FFFFFF" height="30" style="stroke:#181818;stroke-width:1.0;" width="10" x="2318" y="1066.2393"/><rect fill="#FFFFFF" height="41.24" style="stroke:#181818;stroke-width:1.0;" width="10" x="2495" y="396.1598"/><rect fill="#FFFFFF" height="41.24" style="stroke:#181818;stroke-width:1.0;" width="10" x="2698.5" y="894.0395"/><rect fill="#FFFFFF" height="41.24" style="stroke:#181818;stroke-width:1.0;" width="10" x="2698.5" y="1504.3991"/><rect fill="none" height="153.9599" style="stroke:#000000;stroke-width:1.5;" width="803" x="1441" y="452.3997"/><rect fill="none" height="153.9599" style="stroke:#000000;stroke-width:1.5;" width="778" x="1634" y="950.2794"/><line style="stroke:#181818;stroke-width:0.5;stroke-dasharray:5.0,5.0;" x1="51" x2="51" y1="105.4799" y2="1646.119"/><line style="stroke:#181818;stroke-width:0.5;stroke-dasharray:5.0,5.0;" x1="713.75" x2="713.75" y1="105.4799" y2="1646.119"/><line style="stroke:#181818;stroke-width:0.5;stroke-dasharray:5.0,5.0;" x1="1192.375" x2="1192.375" y1="105.4799" y2="1646.119"/><line style="stroke:#181818;stroke-width:0.5;stroke-dasharray:5.0,5.0;" x1="1542" x2="1542" y1="105.4799" y2="1646.119"/><line style="stroke:#181818;stroke-width:0.5;stroke-dasharray:5.0,5.0;" x1="1753" x2="1753" y1="105.4799" y2="1646.119"/><line style="stroke:#181818;stroke-width:0.5;stroke-dasharray:5.0,5.0;" x1="1923" x2="1923" y1="105.4799" y2="1646.119"/><line style="stroke:#181818;stroke-width:0.5;stroke-dasharray:5.0,5.0;" x1="2043" x2="2043" y1="105.4799" y2="1646.119"/><line style="stroke:#181818;stroke-width:0.5;stroke-dasharray:5.0,5.0;" x1="2172" x2="2172" y1="105.4799" y2="1646.119"/><line style="stroke:#181818;stroke-width:0.5;stroke-dasharray:5.0,5.0;" x1="2323" x2="2323" y1="105.4799" y2="1646.119"/><line style="stroke:#181818;stroke-width:0.5;stroke-dasharray:5.0,5.0;" x1="2500" x2="2500" y1="105.4799" y2="1646.119"/><line style="stroke:#181818;stroke-width:0.5;stroke-dasharray:5.0,5.0;" x1="2703" x2="2703" y1="105.4799" y2="1646.119"/><text fill="#000000" font-family="sans-serif" font-size="20" lengthAdjust="spacing" textLength="86" x="5" y="99.62">Manager</text><ellipse cx="51" cy="26.74" fill="#E2E2F0" rx="8" ry="8" style="stroke:#181818;stroke-width:0.5;"/><path d="M51,34.74 L51,61.74 M38,42.74 L64,42.74 M51,61.74 L38,76.74 M51,61.74 L64,76.74 " fill="none" style="stroke:#181818;stroke-width:0.5;"/><text fill="#000000" font-family="sans-serif" font-size="20" lengthAdjust="spacing" textLength="86" x="5" y="1666.499">Manager</text><ellipse cx="51" cy="1680.859" fill="#E2E2F0" rx="8" ry="8" style="stroke:#181818;stroke-width:0.5;"/><path d="M51,1688.859 L51,1715.859 M38,1696.859 L64,1696.859 M51,1715.859 L38,1730.859 M51,1715.859 L64,1730.859 " fill="none" style="stroke:#181818;stroke-width:0.5;"/><rect fill="#E2E2F0" height="68.4799" rx="2.5" ry="2.5" style="stroke:#181818;stroke-width:0.5;" width="317" x="555.75" y="36"/><text fill="#000000" font-family="sans-serif" font-size="20" font-style="italic" lengthAdjust="spacing" textLength="134" x="647.25" y="64.38">«presentation»</text><text fill="#000000" font-family="sans-serif" font-size="20" lengthAdjust="spacing" textLength="303" x="562.75" y="91.62">RespondCoursesApplicationsUI</text><rect fill="#E2E2F0" height="68.4799" rx="2.5" ry="2.5" style="stroke:#181818;stroke-width:0.5;" width="317" x="555.75" y="1645.119"/><text fill="#000000" font-family="sans-serif" font-size="20" font-style="italic" lengthAdjust="spacing" textLength="134" x="647.25" y="1673.499">«presentation»</text><text fill="#000000" font-family="sans-serif" font-size="20" lengthAdjust="spacing" textLength="303" x="562.75" y="1700.739">RespondCoursesApplicationsUI</text><rect fill="#E2E2F0" height="68.4799" rx="2.5" ry="2.5" style="stroke:#181818;stroke-width:0.5;" width="393" x="996.375" y="36"/><text fill="#000000" font-family="sans-serif" font-size="20" font-style="italic" lengthAdjust="spacing" textLength="120" x="1132.875" y="64.38">«application»</text><text fill="#000000" font-family="sans-serif" font-size="20" lengthAdjust="spacing" textLength="379" x="1003.375" y="91.62">RespondCoursesApplicationsController</text><rect fill="#E2E2F0" height="68.4799" rx="2.5" ry="2.5" style="stroke:#181818;stroke-width:0.5;" width="393" x="996.375" y="1645.119"/><text fill="#000000" font-family="sans-serif" font-size="20" font-style="italic" lengthAdjust="spacing" textLength="120" x="1132.875" y="1673.499">«application»</text><text fill="#000000" font-family="sans-serif" font-size="20" lengthAdjust="spacing" textLength="379" x="1003.375" y="1700.739">RespondCoursesApplicationsController</text><rect fill="#E2E2F0" height="68.4799" rx="2.5" ry="2.5" style="stroke:#181818;stroke-width:0.5;" width="183" x="1451" y="36"/><text fill="#000000" font-family="sans-serif" font-size="20" font-style="italic" lengthAdjust="spacing" textLength="80" x="1502.5" y="64.38">«service»</text><text fill="#000000" font-family="sans-serif" font-size="20" lengthAdjust="spacing" textLength="169" x="1458" y="91.62">CourseListService</text><rect fill="#E2E2F0" height="68.4799" rx="2.5" ry="2.5" style="stroke:#181818;stroke-width:0.5;" width="183" x="1451" y="1645.119"/><text fill="#000000" font-family="sans-serif" font-size="20" font-style="italic" lengthAdjust="spacing" textLength="80" x="1502.5" y="1673.499">«service»</text><text fill="#000000" font-family="sans-serif" font-size="20" lengthAdjust="spacing" textLength="169" x="1458" y="1700.739">CourseListService</text><rect fill="#E2E2F0" height="68.4799" rx="2.5" ry="2.5" style="stroke:#181818;stroke-width:0.5;" width="218" x="1644" y="36"/><text fill="#000000" font-family="sans-serif" font-size="20" font-style="italic" lengthAdjust="spacing" textLength="80" x="1713" y="64.38">«service»</text><text fill="#000000" font-family="sans-serif" font-size="20" lengthAdjust="spacing" textLength="204" x="1651" y="91.62">EnrolmentListService</text><rect fill="#E2E2F0" height="68.4799" rx="2.5" ry="2.5" style="stroke:#181818;stroke-width:0.5;" width="218" x="1644" y="1645.119"/><text fill="#000000" font-family="sans-serif" font-size="20" font-style="italic" lengthAdjust="spacing" textLength="80" x="1713" y="1673.499">«service»</text><text fill="#000000" font-family="sans-serif" font-size="20" lengthAdjust="spacing" textLength="204" x="1651" y="1700.739">EnrolmentListService</text><rect fill="#E2E2F0" height="68.4799" rx="2.5" ry="2.5" style="stroke:#181818;stroke-width:0.5;" width="103" x="1872" y="36"/><text fill="#000000" font-family="sans-serif" font-size="20" font-style="italic" lengthAdjust="spacing" textLength="89" x="1879" y="64.38">«domain»</text><text fill="#000000" font-family="sans-serif" font-size="20" lengthAdjust="spacing" textLength="67" x="1890" y="91.62">Course</text><rect fill="#E2E2F0" height="68.4799" rx="2.5" ry="2.5" style="stroke:#181818;stroke-width:0.5;" width="103" x="1872" y="1645.119"/><text fill="#000000" font-family="sans-serif" font-size="20" font-style="italic" lengthAdjust="spacing" textLength="89" x="1879" y="1673.499">«domain»</text><text fill="#000000" font-family="sans-serif" font-size="20" lengthAdjust="spacing" textLength="67" x="1890" y="1700.739">Course</text><rect fill="#E2E2F0" height="68.4799" rx="2.5" ry="2.5" style="stroke:#181818;stroke-width:0.5;" width="116" x="1985" y="36"/><text fill="#000000" font-family="sans-serif" font-size="20" font-style="italic" lengthAdjust="spacing" textLength="89" x="1998.5" y="64.38">«domain»</text><text fill="#000000" font-family="sans-serif" font-size="20" lengthAdjust="spacing" textLength="102" x="1992" y="91.62">Enrolment</text><rect fill="#E2E2F0" height="68.4799" rx="2.5" ry="2.5" style="stroke:#181818;stroke-width:0.5;" width="116" x="1985" y="1645.119"/><text fill="#000000" font-family="sans-serif" font-size="20" font-style="italic" lengthAdjust="spacing" textLength="89" x="1998.5" y="1673.499">«domain»</text><text fill="#000000" font-family="sans-serif" font-size="20" lengthAdjust="spacing" textLength="102" x="1992" y="1700.739">Enrolment</text><rect fill="#E2E2F0" height="68.4799" rx="2.5" ry="2.5" style="stroke:#181818;stroke-width:0.5;" width="123" x="2111" y="36"/><text fill="#000000" font-family="sans-serif" font-size="20" font-style="italic" lengthAdjust="spacing" textLength="50" x="2147.5" y="64.38">«dto»</text><text fill="#000000" font-family="sans-serif" font-size="20" lengthAdjust="spacing" textLength="109" x="2118" y="91.62">CourseDTO</text><rect fill="#E2E2F0" height="68.4799" rx="2.5" ry="2.5" style="stroke:#181818;stroke-width:0.5;" width="123" x="2111" y="1645.119"/><text fill="#000000" font-family="sans-serif" font-size="20" font-style="italic" lengthAdjust="spacing" textLength="50" x="2147.5" y="1673.499">«dto»</text><text fill="#000000" font-family="sans-serif" font-size="20" lengthAdjust="spacing" textLength="109" x="2118" y="1700.739">CourseDTO</text><rect fill="#E2E2F0" height="68.4799" rx="2.5" ry="2.5" style="stroke:#181818;stroke-width:0.5;" width="158" x="2244" y="36"/><text fill="#000000" font-family="sans-serif" font-size="20" font-style="italic" lengthAdjust="spacing" textLength="50" x="2298" y="64.38">«dto»</text><text fill="#000000" font-family="sans-serif" font-size="20" lengthAdjust="spacing" textLength="144" x="2251" y="91.62">EnrolmentDTO</text><rect fill="#E2E2F0" height="68.4799" rx="2.5" ry="2.5" style="stroke:#181818;stroke-width:0.5;" width="158" x="2244" y="1645.119"/><text fill="#000000" font-family="sans-serif" font-size="20" font-style="italic" lengthAdjust="spacing" textLength="50" x="2298" y="1673.499">«dto»</text><text fill="#000000" font-family="sans-serif" font-size="20" lengthAdjust="spacing" textLength="144" x="2251" y="1700.739">EnrolmentDTO</text><text fill="#000000" font-family="sans-serif" font-size="20" font-style="italic" lengthAdjust="spacing" textLength="110" x="2442" y="72.38">«repository»</text><text fill="#000000" font-family="sans-serif" font-size="20" lengthAdjust="spacing" textLength="170" x="2412" y="99.62">CourseRepository</text><path d="M2482,15 C2482,5 2500,5 2500,5 C2500,5 2518,5 2518,15 L2518,41 C2518,51 2500,51 2500,51 C2500,51 2482,51 2482,41 L2482,15 " fill="#E2E2F0" style="stroke:#181818;stroke-width:1.5;"/><path d="M2482,15 C2482,25 2500,25 2500,25 C2500,25 2518,25 2518,15 " fill="none" style="stroke:#181818;stroke-width:1.5;"/><text fill="#000000" font-family="sans-serif" font-size="20" font-style="italic" lengthAdjust="spacing" textLength="110" x="2442" y="1666.499">«repository»</text><text fill="#000000" font-family="sans-serif" font-size="20" lengthAdjust="spacing" textLength="170" x="2412" y="1693.739">CourseRepository</text><path d="M2482,1709.599 C2482,1699.599 2500,1699.599 2500,1699.599 C2500,1699.599 2518,1699.599 2518,1709.599 L2518,1735.599 C2518,1745.599 2500,1745.599 2500,1745.599 C2500,1745.599 2482,1745.599 2482,1735.599 L2482,1709.599 " fill="#E2E2F0" style="stroke:#181818;stroke-width:1.5;"/><path d="M2482,1709.599 C2482,1719.599 2500,1719.599 2500,1719.599 C2500,1719.599 2518,1719.599 2518,1709.599 " fill="none" style="stroke:#181818;stroke-width:1.5;"/><text fill="#000000" font-family="sans-serif" font-size="20" font-style="italic" lengthAdjust="spacing" textLength="110" x="2645.5" y="72.38">«repository»</text><text fill="#000000" font-family="sans-serif" font-size="20" lengthAdjust="spacing" textLength="205" x="2598" y="99.62">EnrolmentRepository</text><path d="M2685.5,15 C2685.5,5 2703.5,5 2703.5,5 C2703.5,5 2721.5,5 2721.5,15 L2721.5,41 C2721.5,51 2703.5,51 2703.5,51 C2703.5,51 2685.5,51 2685.5,41 L2685.5,15 " fill="#E2E2F0" style="stroke:#181818;stroke-width:1.5;"/><path d="M2685.5,15 C2685.5,25 2703.5,25 2703.5,25 C2703.5,25 2721.5,25 2721.5,15 " fill="none" style="stroke:#181818;stroke-width:1.5;"/><text fill="#000000" font-family="sans-serif" font-size="20" font-style="italic" lengthAdjust="spacing" textLength="110" x="2645.5" y="1666.499">«repository»</text><text fill="#000000" font-family="sans-serif" font-size="20" lengthAdjust="spacing" textLength="205" x="2598" y="1693.739">EnrolmentRepository</text><path d="M2685.5,1709.599 C2685.5,1699.599 2703.5,1699.599 2703.5,1699.599 C2703.5,1699.599 2721.5,1699.599 2721.5,1709.599 L2721.5,1735.599 C2721.5,1745.599 2703.5,1745.599 2703.5,1745.599 C2703.5,1745.599 2685.5,1745.599 2685.5,1735.599 L2685.5,1709.599 " fill="#E2E2F0" style="stroke:#181818;stroke-width:1.5;"/><path d="M2685.5,1709.599 C2685.5,1719.599 2703.5,1719.599 2703.5,1719.599 C2703.5,1719.599 2721.5,1719.599 2721.5,1709.599 " fill="none" style="stroke:#181818;stroke-width:1.5;"/><rect fill="#FFFFFF" height="1512.6391" style="stroke:#181818;stroke-width:1.0;" width="10" x="46" y="115.4799"/><rect fill="#FFFFFF" height="580.3596" style="stroke:#181818;stroke-width:1.0;" width="10" x="709.25" y="148.7199"/><rect fill="#FFFFFF" height="456.6397" style="stroke:#181818;stroke-width:1.0;" width="10" x="709.25" y="770.3195"/><rect fill="#FFFFFF" height="41.24" style="stroke:#181818;stroke-width:1.0;" width="10" x="709.25" y="1268.1992"/><rect fill="#FFFFFF" height="277.4398" style="stroke:#181818;stroke-width:1.0;" width="10" x="709.25" y="1350.6792"/><rect fill="#FFFFFF" height="82.4799" style="stroke:#181818;stroke-width:1.0;" width="10" x="1187.875" y="189.9599"/><rect fill="#FFFFFF" height="374.1598" style="stroke:#181818;stroke-width:1.0;" width="10" x="1187.875" y="313.6798"/><rect fill="#FFFFFF" height="374.1598" style="stroke:#181818;stroke-width:1.0;" width="10" x="1187.875" y="811.5595"/><rect fill="#FFFFFF" height="194.9599" style="stroke:#181818;stroke-width:1.0;" width="10" x="1187.875" y="1391.9192"/><rect fill="#FFFFFF" height="291.6798" style="stroke:#181818;stroke-width:1.0;" width="10" x="1537.5" y="354.9198"/><rect fill="#FFFFFF" height="291.6798" style="stroke:#181818;stroke-width:1.0;" width="10" x="1748" y="852.7995"/><rect fill="#FFFFFF" height="71.24" style="stroke:#181818;stroke-width:1.0;" width="10" x="1918.5" y="527.1197"/><rect fill="#FFFFFF" height="71.24" style="stroke:#181818;stroke-width:1.0;" width="10" x="2038" y="1024.9994"/><rect fill="#FFFFFF" height="30" style="stroke:#181818;stroke-width:1.0;" width="10" x="2038" y="1433.1591"/><rect fill="#FFFFFF" height="30" style="stroke:#181818;stroke-width:1.0;" width="10" x="2167.5" y="568.3596"/><rect fill="#FFFFFF" height="30" style="stroke:#181818;stroke-width:1.0;" width="10" x="2318" y="1066.2393"/><rect fill="#FFFFFF" height="41.24" style="stroke:#181818;stroke-width:1.0;" width="10" x="2495" y="396.1598"/><rect fill="#FFFFFF" height="41.24" style="stroke:#181818;stroke-width:1.0;" width="10" x="2698.5" y="894.0395"/><rect fill="#FFFFFF" height="41.24" style="stroke:#181818;stroke-width:1.0;" width="10" x="2698.5" y="1504.3991"/><polygon fill="#181818" points="697.25,144.7199,707.25,148.7199,697.25,152.7199,701.25,148.7199" style="stroke:#181818;stroke-width:1.0;"/><line style="stroke:#181818;stroke-width:1.0;" x1="56" x2="703.25" y1="148.7199" y2="148.7199"/><text fill="#000000" font-family="sans-serif" font-size="20" font-weight="bold" lengthAdjust="spacing" textLength="11.625" x="63" y="140.8599">1</text><text fill="#000000" font-family="sans-serif" font-size="20" lengthAdjust="spacing" textLength="440" x="78.625" y="140.8599">asks the responde to applications for Courses</text><polygon fill="#181818" points="1175.875,185.9599,1185.875,189.9599,1175.875,193.9599,1179.875,189.9599" style="stroke:#181818;stroke-width:1.0;"/><line style="stroke:#181818;stroke-width:1.0;" x1="719.25" x2="1181.875" y1="189.9599" y2="189.9599"/><text fill="#000000" font-family="sans-serif" font-size="20" font-weight="bold" lengthAdjust="spacing" textLength="11.625" x="726.25" y="182.0999">2</text><text fill="#000000" font-family="sans-serif" font-size="20" lengthAdjust="spacing" textLength="434" x="741.875" y="182.0999">new(courseRepository, enrolmentRepository)</text><polygon fill="#181818" points="1530.5,227.1999,1540.5,231.1999,1530.5,235.1999,1534.5,231.1999" style="stroke:#181818;stroke-width:1.0;"/><line style="stroke:#181818;stroke-width:1.0;" x1="1197.875" x2="1536.5" y1="231.1999" y2="231.1999"/><text fill="#000000" font-family="sans-serif" font-size="20" font-weight="bold" lengthAdjust="spacing" textLength="11.625" x="1204.875" y="223.3399">3</text><text fill="#000000" font-family="sans-serif" font-size="20" lengthAdjust="spacing" textLength="296" x="1220.5" y="223.3399">service=new(courseRepository)</text><polygon fill="#181818" points="1741,268.4398,1751,272.4398,1741,276.4398,1745,272.4398" style="stroke:#181818;stroke-width:1.0;"/><line style="stroke:#181818;stroke-width:1.0;" x1="1192.875" x2="1747" y1="272.4398" y2="272.4398"/><text fill="#000000" font-family="sans-serif" font-size="20" font-weight="bold" lengthAdjust="spacing" textLength="11.625" x="1199.875" y="264.5799">4</text><text fill="#000000" font-family="sans-serif" font-size="20" lengthAdjust="spacing" textLength="334" x="1215.5" y="264.5799">service=new(enrolmentRepository)</text><polygon fill="#181818" points="1175.875,309.6798,1185.875,313.6798,1175.875,317.6798,1179.875,313.6798" style="stroke:#181818;stroke-width:1.0;"/><line style="stroke:#181818;stroke-width:1.0;" x1="719.25" x2="1181.875" y1="313.6798" y2="313.6798"/><text fill="#000000" font-family="sans-serif" font-size="20" font-weight="bold" lengthAdjust="spacing" textLength="11.625" x="726.25" y="305.8198">5</text><text fill="#000000" font-family="sans-serif" font-size="20" lengthAdjust="spacing" textLength="305" x="741.875" y="305.8198">listOpenForEnrolmentCourses()</text><polygon fill="#181818" points="1525.5,350.9198,1535.5,354.9198,1525.5,358.9198,1529.5,354.9198" style="stroke:#181818;stroke-width:1.0;"/><line style="stroke:#181818;stroke-width:1.0;" x1="1197.875" x2="1531.5" y1="354.9198" y2="354.9198"/><text fill="#000000" font-family="sans-serif" font-size="20" font-weight="bold" lengthAdjust="spacing" textLength="11.625" x="1204.875" y="347.0598">6</text><text fill="#000000" font-family="sans-serif" font-size="20" lengthAdjust="spacing" textLength="305" x="1220.5" y="347.0598">listOpenForEnrolmentCourses()</text><polygon fill="#181818" points="2483,392.1598,2493,396.1598,2483,400.1598,2487,396.1598" style="stroke:#181818;stroke-width:1.0;"/><line style="stroke:#181818;stroke-width:1.0;" x1="1547.5" x2="2489" y1="396.1598" y2="396.1598"/><text fill="#000000" font-family="sans-serif" font-size="20" font-weight="bold" lengthAdjust="spacing" textLength="11.625" x="1554.5" y="388.2998">7</text><text fill="#000000" font-family="sans-serif" font-size="20" lengthAdjust="spacing" textLength="263" x="1570.125" y="388.2998">findAllOpenForEnrolment()</text><polygon fill="#181818" points="1558.5,433.3997,1548.5,437.3997,1558.5,441.3997,1554.5,437.3997" style="stroke:#181818;stroke-width:1.0;"/><line style="stroke:#181818;stroke-width:1.0;stroke-dasharray:2.0,2.0;" x1="1552.5" x2="2499" y1="437.3997" y2="437.3997"/><text fill="#000000" font-family="sans-serif" font-size="20" font-weight="bold" lengthAdjust="spacing" textLength="11.625" x="1564.5" y="429.5398">8</text><text fill="#000000" font-family="sans-serif" font-size="20" lengthAdjust="spacing" textLength="74" x="1580.125" y="429.5398">courses</text><path d="M1441,452.3997 L1531.5,452.3997 L1531.5,471.6397 L1521.5,481.6397 L1441,481.6397 L1441,452.3997 " fill="#EEEEEE" style="stroke:#000000;stroke-width:1.5;"/><rect fill="none" height="153.9599" style="stroke:#000000;stroke-width:1.5;" width="803" x="1441" y="452.3997"/><text fill="#000000" font-family="sans-serif" font-size="20" font-weight="bold" lengthAdjust="spacing" textLength="45.5" x="1456" y="474.7797">loop</text><text fill="#000000" font-family="sans-serif" font-size="20" font-weight="bold" lengthAdjust="spacing" textLength="169.375" x="1546.5" y="475.7797">[for each course]</text><polygon fill="#181818" points="1906.5,523.1197,1916.5,527.1197,1906.5,531.1197,1910.5,527.1197" style="stroke:#181818;stroke-width:1.0;"/><line style="stroke:#181818;stroke-width:1.0;" x1="1547.5" x2="1912.5" y1="527.1197" y2="527.1197"/><text fill="#000000" font-family="sans-serif" font-size="20" font-weight="bold" lengthAdjust="spacing" textLength="11.625" x="1554.5" y="519.2597">9</text><text fill="#000000" font-family="sans-serif" font-size="20" lengthAdjust="spacing" textLength="138" x="1570.125" y="519.2597">toDTO(course)</text><polygon fill="#181818" points="2155.5,564.3596,2165.5,568.3596,2155.5,572.3596,2159.5,568.3596" style="stroke:#181818;stroke-width:1.0;"/><line style="stroke:#181818;stroke-width:1.0;" x1="1928.5" x2="2161.5" y1="568.3596" y2="568.3596"/><text fill="#000000" font-family="sans-serif" font-size="20" font-weight="bold" lengthAdjust="spacing" textLength="23.25" x="1935.5" y="560.4997">10</text><text fill="#000000" font-family="sans-serif" font-size="20" lengthAdjust="spacing" textLength="52" x="1962.75" y="560.4997">new()</text><polygon fill="#181818" points="1208.875,642.5996,1198.875,646.5996,1208.875,650.5996,1204.875,646.5996" style="stroke:#181818;stroke-width:1.0;"/><line style="stroke:#181818;stroke-width:1.0;stroke-dasharray:2.0,2.0;" x1="1202.875" x2="1541.5" y1="646.5996" y2="646.5996"/><text fill="#000000" font-family="sans-serif" font-size="20" font-weight="bold" lengthAdjust="spacing" textLength="23.25" x="1214.875" y="638.7396">11</text><text fill="#000000" font-family="sans-serif" font-size="20" lengthAdjust="spacing" textLength="74" x="1242.125" y="638.7396">courses</text><polygon fill="#181818" points="730.25,683.8396,720.25,687.8396,730.25,691.8396,726.25,687.8396" style="stroke:#181818;stroke-width:1.0;"/><line style="stroke:#181818;stroke-width:1.0;stroke-dasharray:2.0,2.0;" x1="724.25" x2="1191.875" y1="687.8396" y2="687.8396"/><text fill="#000000" font-family="sans-serif" font-size="20" font-weight="bold" lengthAdjust="spacing" textLength="23.25" x="736.25" y="679.9796">12</text><text fill="#000000" font-family="sans-serif" font-size="20" lengthAdjust="spacing" textLength="74" x="763.5" y="679.9796">courses</text><polygon fill="#181818" points="67,725.0796,57,729.0796,67,733.0796,63,729.0796" style="stroke:#181818;stroke-width:1.0;"/><line style="stroke:#181818;stroke-width:1.0;stroke-dasharray:2.0,2.0;" x1="61" x2="713.25" y1="729.0796" y2="729.0796"/><text fill="#000000" font-family="sans-serif" font-size="20" font-weight="bold" lengthAdjust="spacing" textLength="23.25" x="73" y="721.2196">13</text><text fill="#000000" font-family="sans-serif" font-size="20" lengthAdjust="spacing" textLength="233" x="100.25" y="721.2196">asks to select the course</text><polygon fill="#181818" points="697.25,766.3195,707.25,770.3195,697.25,774.3195,701.25,770.3195" style="stroke:#181818;stroke-width:1.0;"/><line style="stroke:#181818;stroke-width:1.0;" x1="56" x2="703.25" y1="770.3195" y2="770.3195"/><text fill="#000000" font-family="sans-serif" font-size="20" font-weight="bold" lengthAdjust="spacing" textLength="23.25" x="63" y="762.4596">14</text><text fill="#000000" font-family="sans-serif" font-size="20" lengthAdjust="spacing" textLength="249" x="90.25" y="762.4596">selects the desired course</text><polygon fill="#181818" points="1175.875,807.5595,1185.875,811.5595,1175.875,815.5595,1179.875,811.5595" style="stroke:#181818;stroke-width:1.0;"/><line style="stroke:#181818;stroke-width:1.0;" x1="719.25" x2="1181.875" y1="811.5595" y2="811.5595"/><text fill="#000000" font-family="sans-serif" font-size="20" font-weight="bold" lengthAdjust="spacing" textLength="23.25" x="726.25" y="803.6995">15</text><text fill="#000000" font-family="sans-serif" font-size="20" lengthAdjust="spacing" textLength="299" x="753.5" y="803.6995">listCourseAppllications(course)</text><polygon fill="#181818" points="1736,848.7995,1746,852.7995,1736,856.7995,1740,852.7995" style="stroke:#181818;stroke-width:1.0;"/><line style="stroke:#181818;stroke-width:1.0;" x1="1197.875" x2="1742" y1="852.7995" y2="852.7995"/><text fill="#000000" font-family="sans-serif" font-size="20" font-weight="bold" lengthAdjust="spacing" textLength="23.25" x="1204.875" y="844.9395">16</text><text fill="#000000" font-family="sans-serif" font-size="20" lengthAdjust="spacing" textLength="299" x="1232.125" y="844.9395">listCourseAppllications(course)</text><polygon fill="#181818" points="2686.5,890.0395,2696.5,894.0395,2686.5,898.0395,2690.5,894.0395" style="stroke:#181818;stroke-width:1.0;"/><line style="stroke:#181818;stroke-width:1.0;" x1="1758" x2="2692.5" y1="894.0395" y2="894.0395"/><text fill="#000000" font-family="sans-serif" font-size="20" font-weight="bold" lengthAdjust="spacing" textLength="23.25" x="1765" y="886.1795">17</text><text fill="#000000" font-family="sans-serif" font-size="20" lengthAdjust="spacing" textLength="254" x="1792.25" y="886.1795">findByCourseCode(course)</text><polygon fill="#181818" points="1769,931.2794,1759,935.2794,1769,939.2794,1765,935.2794" style="stroke:#181818;stroke-width:1.0;"/><line style="stroke:#181818;stroke-width:1.0;stroke-dasharray:2.0,2.0;" x1="1763" x2="2702.5" y1="935.2794" y2="935.2794"/><text fill="#000000" font-family="sans-serif" font-size="20" font-weight="bold" lengthAdjust="spacing" textLength="23.25" x="1775" y="927.4195">18</text><text fill="#000000" font-family="sans-serif" font-size="20" lengthAdjust="spacing" textLength="112" x="1802.25" y="927.4195">enrolments</text><path d="M1634,950.2794 L1724.5,950.2794 L1724.5,969.5194 L1714.5,979.5194 L1634,979.5194 L1634,950.2794 " fill="#EEEEEE" style="stroke:#000000;stroke-width:1.5;"/><rect fill="none" height="153.9599" style="stroke:#000000;stroke-width:1.5;" width="778" x="1634" y="950.2794"/><text fill="#000000" font-family="sans-serif" font-size="20" font-weight="bold" lengthAdjust="spacing" textLength="45.5" x="1649" y="972.6594">loop</text><text fill="#000000" font-family="sans-serif" font-size="20" font-weight="bold" lengthAdjust="spacing" textLength="209.25" x="1739.5" y="973.6594">[for each enrolment]</text><polygon fill="#181818" points="2026,1020.9994,2036,1024.9994,2026,1028.9994,2030,1024.9994" style="stroke:#181818;stroke-width:1.0;"/><line style="stroke:#181818;stroke-width:1.0;" x1="1758" x2="2032" y1="1024.9994" y2="1024.9994"/><text fill="#000000" font-family="sans-serif" font-size="20" font-weight="bold" lengthAdjust="spacing" textLength="23.25" x="1765" y="1017.1394">19</text><text fill="#000000" font-family="sans-serif" font-size="20" lengthAdjust="spacing" textLength="176" x="1792.25" y="1017.1394">toDTO(enrolment)</text><polygon fill="#181818" points="2306,1062.2393,2316,1066.2393,2306,1070.2393,2310,1066.2393" style="stroke:#181818;stroke-width:1.0;"/><line style="stroke:#181818;stroke-width:1.0;" x1="2048" x2="2312" y1="1066.2393" y2="1066.2393"/><text fill="#000000" font-family="sans-serif" font-size="20" font-weight="bold" lengthAdjust="spacing" textLength="23.25" x="2055" y="1058.3794">20</text><text fill="#000000" font-family="sans-serif" font-size="20" lengthAdjust="spacing" textLength="52" x="2082.25" y="1058.3794">new()</text><polygon fill="#181818" points="1208.875,1140.4793,1198.875,1144.4793,1208.875,1148.4793,1204.875,1144.4793" style="stroke:#181818;stroke-width:1.0;"/><line style="stroke:#181818;stroke-width:1.0;stroke-dasharray:2.0,2.0;" x1="1202.875" x2="1752" y1="1144.4793" y2="1144.4793"/><text fill="#000000" font-family="sans-serif" font-size="20" font-weight="bold" lengthAdjust="spacing" textLength="23.25" x="1214.875" y="1136.6193">21</text><text fill="#000000" font-family="sans-serif" font-size="20" lengthAdjust="spacing" textLength="112" x="1242.125" y="1136.6193">enrolments</text><polygon fill="#181818" points="730.25,1181.7193,720.25,1185.7193,730.25,1189.7193,726.25,1185.7193" style="stroke:#181818;stroke-width:1.0;"/><line style="stroke:#181818;stroke-width:1.0;stroke-dasharray:2.0,2.0;" x1="724.25" x2="1191.875" y1="1185.7193" y2="1185.7193"/><text fill="#000000" font-family="sans-serif" font-size="20" font-weight="bold" lengthAdjust="spacing" textLength="23.25" x="736.25" y="1177.8593">22</text><text fill="#000000" font-family="sans-serif" font-size="20" lengthAdjust="spacing" textLength="112" x="763.5" y="1177.8593">enrolments</text><polygon fill="#181818" points="67,1222.9593,57,1226.9593,67,1230.9593,63,1226.9593" style="stroke:#181818;stroke-width:1.0;"/><line style="stroke:#181818;stroke-width:1.0;stroke-dasharray:2.0,2.0;" x1="61" x2="713.25" y1="1226.9593" y2="1226.9593"/><text fill="#000000" font-family="sans-serif" font-size="20" font-weight="bold" lengthAdjust="spacing" textLength="23.25" x="73" y="1219.0993">23</text><text fill="#000000" font-family="sans-serif" font-size="20" lengthAdjust="spacing" textLength="335" x="100.25" y="1219.0993">asks to select the user applications</text><polygon fill="#181818" points="697.25,1264.1992,707.25,1268.1992,697.25,1272.1992,701.25,1268.1992" style="stroke:#181818;stroke-width:1.0;"/><line style="stroke:#181818;stroke-width:1.0;" x1="56" x2="703.25" y1="1268.1992" y2="1268.1992"/><text fill="#000000" font-family="sans-serif" font-size="20" font-weight="bold" lengthAdjust="spacing" textLength="23.25" x="63" y="1260.3393">24</text><text fill="#000000" font-family="sans-serif" font-size="20" lengthAdjust="spacing" textLength="263" x="90.25" y="1260.3393">selects the user application</text><polygon fill="#181818" points="67,1305.4392,57,1309.4392,67,1313.4392,63,1309.4392" style="stroke:#181818;stroke-width:1.0;"/><line style="stroke:#181818;stroke-width:1.0;stroke-dasharray:2.0,2.0;" x1="61" x2="713.25" y1="1309.4392" y2="1309.4392"/><text fill="#000000" font-family="sans-serif" font-size="20" font-weight="bold" lengthAdjust="spacing" textLength="23.25" x="73" y="1301.5792">25</text><text fill="#000000" font-family="sans-serif" font-size="20" lengthAdjust="spacing" textLength="602" x="100.25" y="1301.5792">asks to choose between the accepted and rejected applications</text><polygon fill="#181818" points="697.25,1346.6792,707.25,1350.6792,697.25,1354.6792,701.25,1350.6792" style="stroke:#181818;stroke-width:1.0;"/><line style="stroke:#181818;stroke-width:1.0;" x1="56" x2="703.25" y1="1350.6792" y2="1350.6792"/><text fill="#000000" font-family="sans-serif" font-size="20" font-weight="bold" lengthAdjust="spacing" textLength="23.25" x="63" y="1342.8192">26</text><text fill="#000000" font-family="sans-serif" font-size="20" lengthAdjust="spacing" textLength="71" x="90.25" y="1342.8192">accepts</text><polygon fill="#181818" points="1175.875,1387.9192,1185.875,1391.9192,1175.875,1395.9192,1179.875,1391.9192" style="stroke:#181818;stroke-width:1.0;"/><line style="stroke:#181818;stroke-width:1.0;" x1="719.25" x2="1181.875" y1="1391.9192" y2="1391.9192"/><text fill="#000000" font-family="sans-serif" font-size="20" font-weight="bold" lengthAdjust="spacing" textLength="23.25" x="726.25" y="1384.0592">27</text><text fill="#000000" font-family="sans-serif" font-size="20" lengthAdjust="spacing" textLength="124" x="753.5" y="1384.0592">accept(enrol)</text><polygon fill="#181818" points="2026,1429.1591,2036,1433.1591,2026,1437.1591,2030,1433.1591" style="stroke:#181818;stroke-width:1.0;"/><line style="stroke:#181818;stroke-width:1.0;" x1="1197.875" x2="2032" y1="1433.1591" y2="1433.1591"/><text fill="#000000" font-family="sans-serif" font-size="20" font-weight="bold" lengthAdjust="spacing" textLength="23.25" x="1204.875" y="1425.2992">28</text><text fill="#000000" font-family="sans-serif" font-size="20" lengthAdjust="spacing" textLength="135" x="1232.125" y="1425.2992">enrol=accept()</text><polygon fill="#181818" points="2686.5,1500.3991,2696.5,1504.3991,2686.5,1508.3991,2690.5,1504.3991" style="stroke:#181818;stroke-width:1.0;"/><line style="stroke:#181818;stroke-width:1.0;" x1="1197.875" x2="2692.5" y1="1504.3991" y2="1504.3991"/><text fill="#000000" font-family="sans-serif" font-size="20" font-weight="bold" lengthAdjust="spacing" textLength="23.25" x="1204.875" y="1496.5391">29</text><text fill="#000000" font-family="sans-serif" font-size="20" lengthAdjust="spacing" textLength="105" x="1232.125" y="1496.5391">save(enrol)</text><polygon fill="#181818" points="1208.875,1541.6391,1198.875,1545.6391,1208.875,1549.6391,1204.875,1545.6391" style="stroke:#181818;stroke-width:1.0;"/><line style="stroke:#181818;stroke-width:1.0;stroke-dasharray:2.0,2.0;" x1="1202.875" x2="2702.5" y1="1545.6391" y2="1545.6391"/><text fill="#000000" font-family="sans-serif" font-size="20" font-weight="bold" lengthAdjust="spacing" textLength="23.25" x="1214.875" y="1537.7791">30</text><text fill="#000000" font-family="sans-serif" font-size="20" lengthAdjust="spacing" textLength="133" x="1242.125" y="1537.7791">updatedEnrol</text><polygon fill="#181818" points="730.25,1582.8791,720.25,1586.8791,730.25,1590.8791,726.25,1586.8791" style="stroke:#181818;stroke-width:1.0;"/><line style="stroke:#181818;stroke-width:1.0;stroke-dasharray:2.0,2.0;" x1="724.25" x2="1191.875" y1="1586.8791" y2="1586.8791"/><text fill="#000000" font-family="sans-serif" font-size="20" font-weight="bold" lengthAdjust="spacing" textLength="23.25" x="736.25" y="1579.0191">31</text><text fill="#000000" font-family="sans-serif" font-size="20" lengthAdjust="spacing" textLength="133" x="763.5" y="1579.0191">updatedEnrol</text><polygon fill="#181818" points="62,1624.119,52,1628.119,62,1632.119,58,1628.119" style="stroke:#181818;stroke-width:1.0;"/><line style="stroke:#181818;stroke-width:1.0;stroke-dasharray:2.0,2.0;" x1="56" x2="713.25" y1="1628.119" y2="1628.119"/><text fill="#000000" font-family="sans-serif" font-size="20" font-weight="bold" lengthAdjust="spacing" textLength="23.25" x="68" y="1620.2591">32</text><text fill="#000000" font-family="sans-serif" font-size="20" lengthAdjust="spacing" textLength="254" x="95.25" y="1620.2591">informs operation success</text><!--SRC=[ZPNBRjim44Nt_0h2gnXeWA9B8p6GkWnW84OAE-wUbiOrQvaKICf1-lKTFaozK-qYwTuxmvaJsfo5BBdcbq9bPyXf3aTU5VPPIRiJVu5- -qfuPPMiBWVGXF3CAard6oxvRz0poWtT4FHRaOcIIqjdMp2balbALTg0UIhBGcJS2YNDVktr-pLzU2Wr693MVrWkfoQii2kjYY9MNhrjNp2BrufkLCXu4SRkG5z51i6ts_v2dmclkXuciSG5c-lQsAUsK2haeofN5oxaQ7O87DM5i1zlho4F_t1IgqRpRbBMb9ASMtxW1cZ8sqAfZC05VlZKBVk9KfrUeYCPKd3RmmOyZWbnvHQG1BAXzqktuGMgpuRQ4r0TrWdKAjfObQ5792akkSxOhmb1FwRuxIweXFUxhDF-5mhz_kPrYBCIxtSvRcqB6jVsE9GtJsBM5m-Mog5ThDrpWUIybY2VbKw3Z2Uz-q-RKwse9jxYh6uh2teKCdygYgwxPKCbyVBxkcGMTz0yazEHGgdIRma_dAACK9hAejSg12xESuxVwWGdz2f7P5XZMu3lyRbPjF-6WCofQuF4mzOp7khQ3yNFyqRXa2hj2qMRHAh2fHUGMSziF6l3vRYiuGxIm7SEHcYyEQDdd6Itsh1ATwUb_uCqlM4kMCt59BFJ4nPNn6eoldy4-qhbCE1o2sStC6BDH7vhVco0ZQJ4_QNQ2O_qjGK0Srel7264zNWOUDCWX7K86Mc_3ycmS0ed5LuKhKjj6Z9TMmkQ_RfRC3ifXNVo0UmxWFG9FCkWj4WTn-Dh-8FHxc5I9y5hEaKRe0P1MDiebhUvFKPr4wRMl6jBWD7mA_Ios_p5FgeIVuyWzpTPZy3s2iUalkTwea8YiXT3LGdQZucQ2jitlMar7ZVa7m00]--></g></svg>