<?xml version="1.0" encoding="UTF-8" standalone="no"?><svg xmlns="http://www.w3.org/2000/svg" xmlns:xlink="http://www.w3.org/1999/xlink" contentStyleType="text/css" height="773px" preserveAspectRatio="none" style="width:876px;height:773px;background:#FFFFFF;" version="1.1" viewBox="0 0 876 773" width="876px" zoomAndPan="magnify"><defs/><g><!--cluster <<aggregate>> Enrolment--><g id="cluster_&lt;&lt;aggregate&gt;&gt; Enrolment"><path d="M144,223.36 L384.5,223.36 A3.75,3.75 0 0 1 387,225.86 L394,256.6 L394,256.6 A2.5,2.5 0 0 1 396.5,259.1 L396.5,621.36 A2.5,2.5 0 0 1 394,623.86 L144,623.86 A2.5,2.5 0 0 1 141.5,621.36 L141.5,225.86 A2.5,2.5 0 0 1 144,223.36 " fill="none" style="stroke:#000000;stroke-width:1.5;"/><line style="stroke:#000000;stroke-width:1.5;" x1="141.5" x2="394" y1="256.6" y2="256.6"/><text fill="#000000" font-family="sans-serif" font-size="20" font-weight="bold" lengthAdjust="spacing" textLength="239.5" x="145.5" y="246.74">«aggregate» Enrolment</text></g><!--cluster <<aggregate>> Student--><g id="cluster_&lt;&lt;aggregate&gt;&gt; Student"><path d="M177,8.36 L391.25,8.36 A3.75,3.75 0 0 1 393.75,10.86 L400.75,41.6 L401,41.6 A2.5,2.5 0 0 1 403.5,44.1 L403.5,159.86 A2.5,2.5 0 0 1 401,162.36 L177,162.36 A2.5,2.5 0 0 1 174.5,159.86 L174.5,10.86 A2.5,2.5 0 0 1 177,8.36 " fill="none" style="stroke:#000000;stroke-width:1.5;"/><line style="stroke:#000000;stroke-width:1.5;" x1="174.5" x2="400.75" y1="41.6" y2="41.6"/><text fill="#000000" font-family="sans-serif" font-size="20" font-weight="bold" lengthAdjust="spacing" textLength="213.25" x="178.5" y="31.74">«aggregate» Student</text></g><!--cluster <<aggregate>> Course--><g id="cluster_&lt;&lt;aggregate&gt;&gt; Course"><path d="M423,254.36 L626.625,254.36 A3.75,3.75 0 0 1 629.125,256.86 L636.125,287.6 L867,287.6 A2.5,2.5 0 0 1 869.5,290.1 L869.5,652.86 A2.5,2.5 0 0 1 867,655.36 L423,655.36 A2.5,2.5 0 0 1 420.5,652.86 L420.5,256.86 A2.5,2.5 0 0 1 423,254.36 " fill="none" style="stroke:#000000;stroke-width:1.5;"/><line style="stroke:#000000;stroke-width:1.5;" x1="420.5" x2="636.125" y1="287.6" y2="287.6"/><text fill="#000000" font-family="sans-serif" font-size="20" font-weight="bold" lengthAdjust="spacing" textLength="202.625" x="424.5" y="277.74">«aggregate» Course</text></g><!--class Enrolment--><g id="elem_Enrolment"><rect codeLine="16" fill="#F5F5DC" height="154.1999" id="Enrolment" rx="2.5" ry="2.5" style="stroke:#181818;stroke-width:0.5;" width="136" x="209.5" y="269.36"/><ellipse cx="225.5" cy="315.22" fill="#ADD1B2" rx="12" ry="12" style="stroke:#181818;stroke-width:1.0;"/><path d="M229.5469,322.72 L220.9375,322.72 L220.9375,307.8137 L229.5469,307.8137 L229.5469,310.0168 L223.3594,310.0168 L223.3594,313.8606 L229.1875,313.8606 L229.1875,316.0325 L223.3594,316.0325 L223.3594,320.5168 L229.5469,320.5168 L229.5469,322.72 Z " fill="#000000"/><text fill="#000000" font-family="sans-serif" font-size="20" font-style="italic" lengthAdjust="spacing" textLength="70" x="256.5" y="295.74">«entity»</text><text fill="#000000" font-family="sans-serif" font-size="20" font-style="italic" lengthAdjust="spacing" textLength="57" x="263" y="322.9799">«root»</text><text fill="#000000" font-family="sans-serif" font-size="20" lengthAdjust="spacing" textLength="102" x="240.5" y="350.2199">Enrolment</text><line style="stroke:#181818;stroke-width:0.5;" x1="210.5" x2="344.5" y1="361.0799" y2="361.0799"/><text fill="#000000" font-family="sans-serif" font-size="20" lengthAdjust="spacing" textLength="100" x="215.5" y="386.4599">-createdAt</text><text fill="#000000" font-family="sans-serif" font-size="20" lengthAdjust="spacing" textLength="110" x="215.5" y="413.6999">-updatedAt</text></g><!--class State--><g id="elem_State"><rect codeLine="47" fill="#F5F5DC" height="64.4799" id="State" rx="2.5" ry="2.5" style="stroke:#181818;stroke-width:0.5;" width="156" x="192.5" y="543.86"/><ellipse cx="208.5" cy="576.1" fill="#FF8B40" rx="12" ry="12" style="stroke:#181818;stroke-width:1.0;"/><path d="M214.75,569.9437 L209.4375,584.85 L207.1875,584.85 L201.875,569.9437 L204.4063,569.9437 L207.7031,579.3031 Q207.9219,579.8968 208.0781,580.4437 Q208.25,580.9906 208.375,581.4906 Q208.5156,581.975 208.3125,582.0218 Q208.0938,581.9906 208.2344,581.475 Q208.375,580.9593 208.5469,580.4281 Q208.7188,579.8812 208.9219,579.2718 L212.1875,569.9437 L214.75,569.9437 Z " fill="#000000"/><text fill="#000000" font-family="sans-serif" font-size="20" font-style="italic" lengthAdjust="spacing" textLength="126" x="221.5" y="570.24">«value object»</text><text fill="#000000" font-family="sans-serif" font-size="20" lengthAdjust="spacing" textLength="49" x="260" y="597.4799">State</text></g><!--class Student--><g id="elem_Student"><rect codeLine="26" fill="#F5F5DC" height="91.7199" id="Student" rx="2.5" ry="2.5" style="stroke:#181818;stroke-width:0.5;" width="111" x="222" y="54.36"/><ellipse cx="238" cy="100.22" fill="#ADD1B2" rx="12" ry="12" style="stroke:#181818;stroke-width:1.0;"/><path d="M242.0469,107.72 L233.4375,107.72 L233.4375,92.8137 L242.0469,92.8137 L242.0469,95.0168 L235.8594,95.0168 L235.8594,98.8606 L241.6875,98.8606 L241.6875,101.0325 L235.8594,101.0325 L235.8594,105.5168 L242.0469,105.5168 L242.0469,107.72 Z " fill="#000000"/><text fill="#000000" font-family="sans-serif" font-size="20" font-style="italic" lengthAdjust="spacing" textLength="70" x="256.5" y="80.74">«entity»</text><text fill="#000000" font-family="sans-serif" font-size="20" font-style="italic" lengthAdjust="spacing" textLength="57" x="263" y="107.9799">«root»</text><text fill="#000000" font-family="sans-serif" font-size="20" lengthAdjust="spacing" textLength="77" x="253" y="135.2199">Student</text></g><!--class Course--><g id="elem_Course"><rect codeLine="44" fill="#F5F5DC" height="91.7199" id="Course" rx="2.5" ry="2.5" style="stroke:#181818;stroke-width:0.5;" width="101" x="479" y="300.36"/><ellipse cx="495" cy="346.22" fill="#ADD1B2" rx="12" ry="12" style="stroke:#181818;stroke-width:1.0;"/><path d="M499.0469,353.72 L490.4375,353.72 L490.4375,338.8137 L499.0469,338.8137 L499.0469,341.0168 L492.8594,341.0168 L492.8594,344.8606 L498.6875,344.8606 L498.6875,347.0325 L492.8594,347.0325 L492.8594,351.5168 L499.0469,351.5168 L499.0469,353.72 Z " fill="#000000"/><text fill="#000000" font-family="sans-serif" font-size="20" font-style="italic" lengthAdjust="spacing" textLength="70" x="508.5" y="326.74">«entity»</text><text fill="#000000" font-family="sans-serif" font-size="20" font-style="italic" lengthAdjust="spacing" textLength="57" x="515" y="353.9799">«root»</text><text fill="#000000" font-family="sans-serif" font-size="20" lengthAdjust="spacing" textLength="67" x="510" y="381.2199">Course</text></g><!--class EnrolmentState--><g id="elem_EnrolmentState"><rect codeLine="41" fill="#F5F5DC" height="64.4799" id="EnrolmentState" rx="2.5" ry="2.5" style="stroke:#181818;stroke-width:0.5;" width="185" x="437" y="543.86"/><ellipse cx="453" cy="576.1" fill="#FF8B40" rx="12" ry="12" style="stroke:#181818;stroke-width:1.0;"/><path d="M459.25,569.9437 L453.9375,584.85 L451.6875,584.85 L446.375,569.9437 L448.9063,569.9437 L452.2031,579.3031 Q452.4219,579.8968 452.5781,580.4437 Q452.75,580.9906 452.875,581.4906 Q453.0156,581.975 452.8125,582.0218 Q452.5938,581.9906 452.7344,581.475 Q452.875,580.9593 453.0469,580.4281 Q453.2188,579.8812 453.4219,579.2718 L456.6875,569.9437 L459.25,569.9437 Z " fill="#000000"/><text fill="#000000" font-family="sans-serif" font-size="20" font-style="italic" lengthAdjust="spacing" textLength="126" x="480.5" y="570.24">«value object»</text><text fill="#000000" font-family="sans-serif" font-size="20" lengthAdjust="spacing" textLength="151" x="468" y="597.4799">EnrolmentState</text></g><!--class EnrolmentLimits--><g id="elem_EnrolmentLimits"><rect codeLine="36" fill="#F5F5DC" height="126.9599" id="EnrolmentLimits" rx="2.5" ry="2.5" style="stroke:#181818;stroke-width:0.5;" width="196" x="657.5" y="512.36"/><ellipse cx="673.5" cy="544.6" fill="#FF8B40" rx="12" ry="12" style="stroke:#181818;stroke-width:1.0;"/><path d="M679.75,538.4437 L674.4375,553.35 L672.1875,553.35 L666.875,538.4437 L669.4063,538.4437 L672.7031,547.8031 Q672.9219,548.3968 673.0781,548.9437 Q673.25,549.4906 673.375,549.9906 Q673.5156,550.475 673.3125,550.5218 Q673.0938,550.4906 673.2344,549.975 Q673.375,549.4593 673.5469,548.9281 Q673.7188,548.3812 673.9219,547.7718 L677.1875,538.4437 L679.75,538.4437 Z " fill="#000000"/><text fill="#000000" font-family="sans-serif" font-size="20" font-style="italic" lengthAdjust="spacing" textLength="126" x="706.5" y="538.74">«value object»</text><text fill="#000000" font-family="sans-serif" font-size="20" lengthAdjust="spacing" textLength="162" x="688.5" y="565.9799">EnrolmentLimits</text><line style="stroke:#181818;stroke-width:0.5;" x1="658.5" x2="852.5" y1="576.8399" y2="576.8399"/><text fill="#000000" font-family="sans-serif" font-size="20" lengthAdjust="spacing" textLength="45" x="663.5" y="602.2199">-min</text><text fill="#000000" font-family="sans-serif" font-size="20" lengthAdjust="spacing" textLength="48" x="663.5" y="629.4599">-max</text></g><g id="elem_GMN11"><path d="M482,702.36 L482,766.8399 A0,0 0 0 0 482,766.8399 L577,766.8399 A0,0 0 0 0 577,766.8399 L577,712.36 L567,702.36 L533.5,702.36 L529.5,608.15 L525.5,702.36 L482,702.36 A0,0 0 0 0 482,702.36 " fill="#FEFFDD" style="stroke:#181818;stroke-width:0.5;"/><path d="M567,702.36 L567,712.36 L577,712.36 L567,702.36 " fill="#FEFFDD" style="stroke:#181818;stroke-width:0.5;"/><text fill="#000000" font-family="sans-serif" font-size="20" lengthAdjust="spacing" textLength="74" x="488" y="728.74">CLOSED</text><text fill="#000000" font-family="sans-serif" font-size="20" lengthAdjust="spacing" textLength="54" x="488" y="755.9799">OPEN</text></g><g id="elem_GMN14"><path d="M6,529.86 L6,621.5799 A0,0 0 0 0 6,621.5799 L125,621.5799 A0,0 0 0 0 125,621.5799 L125,579.86 L192.44,575.86 L125,571.86 L125,539.86 L115,529.86 L6,529.86 A0,0 0 0 0 6,529.86 " fill="#FEFFDD" style="stroke:#181818;stroke-width:0.5;"/><path d="M115,529.86 L115,539.86 L125,539.86 L115,529.86 " fill="#FEFFDD" style="stroke:#181818;stroke-width:0.5;"/><text fill="#000000" font-family="sans-serif" font-size="20" lengthAdjust="spacing" textLength="90" x="12" y="556.24">PENDING</text><text fill="#000000" font-family="sans-serif" font-size="20" lengthAdjust="spacing" textLength="98" x="12" y="583.4799">ACCEPTED</text><text fill="#000000" font-family="sans-serif" font-size="20" lengthAdjust="spacing" textLength="90" x="12" y="610.7199">REJECTED</text></g><!--link Enrolment to State--><g id="link_Enrolment_State"><path codeLine="54" d="M275.16,423.43 C273.96,462.26 272.57,507.69 271.62,538.59 " fill="none" id="Enrolment-to-State" style="stroke:#222222;stroke-width:1.0;"/><polygon fill="#222222" points="271.46,543.81,275.7407,534.9401,271.6171,538.8125,267.7447,534.6888,271.46,543.81" style="stroke:#222222;stroke-width:1.0;"/><text fill="#000000" font-family="sans-serif" font-size="20" lengthAdjust="spacing" textLength="34" x="274.5" y="475.74">has</text><text fill="#000000" font-family="sans-serif" font-size="20" lengthAdjust="spacing" textLength="11" x="259.6513" y="530.055">1</text></g><!--link Student to Enrolment--><g id="link_Student_Enrolment"><path codeLine="56" d="M277.5,146.4 C277.5,179.21 277.5,224.58 277.5,263.71 " fill="none" id="Student-to-Enrolment" style="stroke:#222222;stroke-width:1.0;"/><polygon fill="#222222" points="277.5,268.94,281.5,259.94,277.5,263.94,273.5,259.94,277.5,268.94" style="stroke:#222222;stroke-width:1.0;"/><text fill="#000000" font-family="sans-serif" font-size="20" lengthAdjust="spacing" textLength="34" x="278.5" y="200.74">has</text><text fill="#000000" font-family="sans-serif" font-size="20" lengthAdjust="spacing" textLength="32" x="244.125" y="255.5083">0..*</text></g><!--link Enrolment to Course--><g id="link_Enrolment_Course"><path codeLine="57" d="M345.69,346.36 C385.87,346.36 436.06,346.36 473.83,346.36 " fill="none" id="Enrolment-to-Course" style="stroke:#222222;stroke-width:1.0;"/><polygon fill="#222222" points="478.85,346.36,469.8615,342.3343,473.85,346.3457,469.8386,350.3343,478.85,346.36" style="stroke:#222222;stroke-width:1.0;"/><text fill="#000000" font-family="sans-serif" font-size="20" lengthAdjust="spacing" textLength="50" x="387.25" y="336.74">is for</text><text fill="#000000" font-family="sans-serif" font-size="20" lengthAdjust="spacing" textLength="11" x="459.9539" y="338.8781">1</text></g><!--link Course to EnrolmentState--><g id="link_Course_EnrolmentState"><path codeLine="59" d="M529.5,392.58 C529.5,435.36 529.5,498.77 529.5,538.41 " fill="none" id="Course-to-EnrolmentState" style="stroke:#222222;stroke-width:1.0;"/><polygon fill="#222222" points="529.5,543.6,533.5,534.6,529.5,538.6,525.5,534.6,529.5,543.6" style="stroke:#222222;stroke-width:1.0;"/><text fill="#000000" font-family="sans-serif" font-size="20" lengthAdjust="spacing" textLength="40" x="530.5" y="475.74">is in</text><text fill="#000000" font-family="sans-serif" font-size="20" lengthAdjust="spacing" textLength="11" x="517.5547" y="530.0944">1</text></g><!--link Course to EnrolmentLimits--><g id="link_Course_EnrolmentLimits"><path codeLine="60" d="M574.42,392.58 C607.34,425.72 652.56,471.23 689.57,508.49 " fill="none" id="Course-to-EnrolmentLimits" style="stroke:#222222;stroke-width:1.0;"/><polygon fill="#222222" points="693.12,512.07,689.6217,502.8634,689.5988,508.5202,683.942,508.4973,693.12,512.07" style="stroke:#222222;stroke-width:1.0;"/><text fill="#000000" font-family="sans-serif" font-size="20" lengthAdjust="spacing" textLength="34" x="663.5" y="475.74">has</text><text fill="#000000" font-family="sans-serif" font-size="20" lengthAdjust="spacing" textLength="11" x="675.1199" y="498.4939">1</text></g><!--SRC=[ZLB9Rjim4BtFLmoKGzkWNXhqK1Y20KUMYnH14jH1JxtG8YspbZW2EUeM-DzBRRRgH6XvuV3Dp7kpqEsrAOGLUKR9NacKQYlAZ5TaUAr_AxoQmgiTS-5caqcH2SDbdeqJoYT99fmRIIrIdmpWEXwi7GjcgpSbgvk4J4qqXPsM2bLUy2yKdTlrqLpnZgGxvxeMoJwrL1ePKKOMDqgdgXUqi9P-DAwBg_e053v7f0g3C1HfQbKgMCtd61jBMQuC1_W4YDxGNlU8WiTgILopJu0309p7O1WsaASBGql4tgZ8HfXOvRFaWkjNMSZsTHYiPysbFA-cnVhYBJGWFKmVKMcT-ekzWKwD7ljgEdu6t-fSiwiqNdJuEbv_UNknMdsuVZzzWzz5LYgapJULdCQIQzFSukSBFBNkFsWEOCW7ROYPSgJjUVOCezlxTRpyQkuVuhlZs9fUXwVMM_N_5P2fBLVotQoysFBcxgEt5b4KFpp6Isz-ZZ_5KMKg8x5A0pXzdj5eZi6x0BkwTy81TEkjdTFn-3BeVRScfiVG4BIzpL0xt985Q85EuDc4V9pVmr1Kkyr6x0y0]--></g></svg>