<?xml version="1.0" encoding="UTF-8" standalone="no"?><svg xmlns="http://www.w3.org/2000/svg" xmlns:xlink="http://www.w3.org/1999/xlink" contentStyleType="text/css" height="520px" preserveAspectRatio="none" style="width:1464px;height:520px;background:#FFFFFF;" version="1.1" viewBox="0 0 1464 520" width="1464px" zoomAndPan="magnify"><defs/><g><!--cluster <<aggregate>> User--><g id="cluster_&lt;&lt;aggregate&gt;&gt; User"><path d="M291.5,202.2168 L495.5,202.2168 A3.75,3.75 0 0 1 498,204.7168 L505,231.498 L1130.5,231.498 A2.5,2.5 0 0 1 1133,233.998 L1133,510.7168 A2.5,2.5 0 0 1 1130.5,513.2168 L291.5,513.2168 A2.5,2.5 0 0 1 289,510.7168 L289,204.7168 A2.5,2.5 0 0 1 291.5,202.2168 " fill="none" style="stroke:#000000;stroke-width:1.5;"/><line style="stroke:#000000;stroke-width:1.5;" x1="289" x2="505" y1="231.498" y2="231.498"/><text fill="#000000" font-family="sans-serif" font-size="20" font-weight="bold" lengthAdjust="spacing" textLength="203" x="293" y="222.7813">«aggregate» User</text></g><!--cluster <<aggregate>> Teacher--><g id="cluster_&lt;&lt;aggregate&gt;&gt; Teacher"><path d="M8.5,7.2168 L252.5,7.2168 A3.75,3.75 0 0 1 255,9.7168 L262,36.498 L262.5,36.498 A2.5,2.5 0 0 1 265,38.998 L265,341.7168 A2.5,2.5 0 0 1 262.5,344.2168 L8.5,344.2168 A2.5,2.5 0 0 1 6,341.7168 L6,9.7168 A2.5,2.5 0 0 1 8.5,7.2168 " fill="none" style="stroke:#000000;stroke-width:1.5;"/><line style="stroke:#000000;stroke-width:1.5;" x1="6" x2="262" y1="36.498" y2="36.498"/><text fill="#000000" font-family="sans-serif" font-size="20" font-weight="bold" lengthAdjust="spacing" textLength="243" x="10" y="27.7813">«aggregate» Teacher</text></g><!--cluster <<aggregate>> Student--><g id="cluster_&lt;&lt;aggregate&gt;&gt; Student"><path d="M1159.5,7.2168 L1401.5,7.2168 A3.75,3.75 0 0 1 1404,9.7168 L1411,36.498 L1454.5,36.498 A2.5,2.5 0 0 1 1457,38.998 L1457,341.7168 A2.5,2.5 0 0 1 1454.5,344.2168 L1159.5,344.2168 A2.5,2.5 0 0 1 1157,341.7168 L1157,9.7168 A2.5,2.5 0 0 1 1159.5,7.2168 " fill="none" style="stroke:#000000;stroke-width:1.5;"/><line style="stroke:#000000;stroke-width:1.5;" x1="1157" x2="1411" y1="36.498" y2="36.498"/><text fill="#000000" font-family="sans-serif" font-size="20" font-weight="bold" lengthAdjust="spacing" textLength="241" x="1161" y="27.7813">«aggregate» Student</text></g><!--cluster <<aggregate>> Manager--><g id="cluster_&lt;&lt;aggregate&gt;&gt; Manager"><path d="M524.5,7.2168 L776.5,7.2168 A3.75,3.75 0 0 1 779,9.7168 L786,36.498 L786.5,36.498 A2.5,2.5 0 0 1 789,38.998 L789,142.7168 A2.5,2.5 0 0 1 786.5,145.2168 L524.5,145.2168 A2.5,2.5 0 0 1 522,142.7168 L522,9.7168 A2.5,2.5 0 0 1 524.5,7.2168 " fill="none" style="stroke:#000000;stroke-width:1.5;"/><line style="stroke:#000000;stroke-width:1.5;" x1="522" x2="786" y1="36.498" y2="36.498"/><text fill="#000000" font-family="sans-serif" font-size="20" font-weight="bold" lengthAdjust="spacing" textLength="251" x="526" y="27.7813">«aggregate» Manager</text></g><!--class User--><g id="elem_User"><rect codeLine="21" fill="#F5F5DC" height="111.125" id="User" rx="2.5" ry="2.5" style="stroke:#181818;stroke-width:0.5;" width="113" x="598.5" y="244.2168"/><ellipse cx="614.5" cy="284.1387" fill="#ADD1B2" rx="12" ry="12" style="stroke:#181818;stroke-width:1.0;"/><path d="M619.2188,291.6387 L610.1406,291.6387 L610.1406,277.0605 L619.2188,277.0605 L619.2188,279.5918 L613.0156,279.5918 L613.0156,282.748 L618.6406,282.748 L618.6406,285.2793 L613.0156,285.2793 L613.0156,289.0918 L619.2188,289.0918 L619.2188,291.6387 Z " fill="#000000"/><text fill="#000000" font-family="sans-serif" font-size="20" font-style="italic" lengthAdjust="spacing" textLength="83" x="627.5" y="267.7813">«entity»</text><text fill="#000000" font-family="sans-serif" font-size="20" font-style="italic" lengthAdjust="spacing" textLength="64" x="637" y="291.0625">«root»</text><text fill="#000000" font-family="sans-serif" font-size="20" lengthAdjust="spacing" textLength="45" x="646.5" y="314.3438">User</text><line style="stroke:#181818;stroke-width:0.5;" x1="599.5" x2="710.5" y1="324.0605" y2="324.0605"/><text fill="#000000" font-family="sans-serif" font-size="20" lengthAdjust="spacing" textLength="85" x="604.5" y="346.625">-isActive</text></g><!--class Password--><g id="elem_Password"><rect codeLine="23" fill="#F5F5DC" height="56.5625" id="Password" rx="2.5" ry="2.5" style="stroke:#181818;stroke-width:0.5;" width="177" x="304.5" y="440.2168"/><ellipse cx="320.5" cy="468.498" fill="#FF8B40" rx="12" ry="12" style="stroke:#181818;stroke-width:1.0;"/><path d="M320.5156,474.3418 L323.0781,462.1699 L325.9844,462.1699 L322.5156,476.748 L318.5313,476.748 L315.0625,462.1699 L317.9531,462.1699 L320.5156,474.3418 Z " fill="#000000"/><text fill="#000000" font-family="sans-serif" font-size="20" font-style="italic" lengthAdjust="spacing" textLength="147" x="333.5" y="463.7813">«value object»</text><text fill="#000000" font-family="sans-serif" font-size="20" lengthAdjust="spacing" textLength="94" x="360" y="487.0625">Password</text></g><!--class Email--><g id="elem_Email"><rect codeLine="26" fill="#F5F5DC" height="56.5625" id="Email" rx="2.5" ry="2.5" style="stroke:#181818;stroke-width:0.5;" width="177" x="516.5" y="440.2168"/><ellipse cx="532.5" cy="468.498" fill="#FF8B40" rx="12" ry="12" style="stroke:#181818;stroke-width:1.0;"/><path d="M532.5156,474.3418 L535.0781,462.1699 L537.9844,462.1699 L534.5156,476.748 L530.5313,476.748 L527.0625,462.1699 L529.9531,462.1699 L532.5156,474.3418 Z " fill="#000000"/><text fill="#000000" font-family="sans-serif" font-size="20" font-style="italic" lengthAdjust="spacing" textLength="147" x="545.5" y="463.7813">«value object»</text><text fill="#000000" font-family="sans-serif" font-size="20" lengthAdjust="spacing" textLength="57" x="590.5" y="487.0625">Email</text></g><!--class FullName--><g id="elem_FullName"><rect codeLine="24" fill="#F5F5DC" height="56.5625" id="FullName" rx="2.5" ry="2.5" style="stroke:#181818;stroke-width:0.5;" width="177" x="728.5" y="440.2168"/><ellipse cx="744.5" cy="468.498" fill="#FF8B40" rx="12" ry="12" style="stroke:#181818;stroke-width:1.0;"/><path d="M744.5156,474.3418 L747.0781,462.1699 L749.9844,462.1699 L746.5156,476.748 L742.5313,476.748 L739.0625,462.1699 L741.9531,462.1699 L744.5156,474.3418 Z " fill="#000000"/><text fill="#000000" font-family="sans-serif" font-size="20" font-style="italic" lengthAdjust="spacing" textLength="147" x="757.5" y="463.7813">«value object»</text><text fill="#000000" font-family="sans-serif" font-size="20" lengthAdjust="spacing" textLength="96" x="783" y="487.0625">FullName</text></g><!--class ShortName--><g id="elem_ShortName"><rect codeLine="25" fill="#F5F5DC" height="56.5625" id="ShortName" rx="2.5" ry="2.5" style="stroke:#181818;stroke-width:0.5;" width="177" x="940.5" y="440.2168"/><ellipse cx="956.5" cy="468.498" fill="#FF8B40" rx="12" ry="12" style="stroke:#181818;stroke-width:1.0;"/><path d="M956.5156,474.3418 L959.0781,462.1699 L961.9844,462.1699 L958.5156,476.748 L954.5313,476.748 L951.0625,462.1699 L953.9531,462.1699 L956.5156,474.3418 Z " fill="#000000"/><text fill="#000000" font-family="sans-serif" font-size="20" font-style="italic" lengthAdjust="spacing" textLength="147" x="969.5" y="463.7813">«value object»</text><text fill="#000000" font-family="sans-serif" font-size="20" lengthAdjust="spacing" textLength="113" x="986.5" y="487.0625">ShortName</text></g><!--class Teacher--><g id="elem_Teacher"><rect codeLine="39" fill="#F5F5DC" height="79.8438" id="Teacher" rx="2.5" ry="2.5" style="stroke:#181818;stroke-width:0.5;" width="114" x="104" y="49.2168"/><ellipse cx="120" cy="89.1387" fill="#ADD1B2" rx="12" ry="12" style="stroke:#181818;stroke-width:1.0;"/><path d="M124.7188,96.6387 L115.6406,96.6387 L115.6406,82.0605 L124.7188,82.0605 L124.7188,84.5918 L118.5156,84.5918 L118.5156,87.748 L124.1406,87.748 L124.1406,90.2793 L118.5156,90.2793 L118.5156,94.0918 L124.7188,94.0918 L124.7188,96.6387 Z " fill="#000000"/><text fill="#000000" font-family="sans-serif" font-size="20" font-style="italic" lengthAdjust="spacing" textLength="83" x="133.5" y="72.7813">«entity»</text><text fill="#000000" font-family="sans-serif" font-size="20" font-style="italic" lengthAdjust="spacing" textLength="64" x="143" y="96.0625">«root»</text><text fill="#000000" font-family="sans-serif" font-size="20" lengthAdjust="spacing" textLength="80" x="135" y="119.3438">Teacher</text></g><!--class Acronym--><g id="elem_Acronym"><rect codeLine="58" fill="#F5F5DC" height="56.5625" id="Acronym" rx="2.5" ry="2.5" style="stroke:#181818;stroke-width:0.5;" width="177" x="72.5" y="271.2168"/><ellipse cx="88.5" cy="299.498" fill="#FF8B40" rx="12" ry="12" style="stroke:#181818;stroke-width:1.0;"/><path d="M88.5156,305.3418 L91.0781,293.1699 L93.9844,293.1699 L90.5156,307.748 L86.5313,307.748 L83.0625,293.1699 L85.9531,293.1699 L88.5156,305.3418 Z " fill="#000000"/><text fill="#000000" font-family="sans-serif" font-size="20" font-style="italic" lengthAdjust="spacing" textLength="147" x="101.5" y="294.7813">«value object»</text><text fill="#000000" font-family="sans-serif" font-size="20" lengthAdjust="spacing" textLength="89" x="130.5" y="318.0625">Acronym</text></g><!--class Student--><g id="elem_Student"><rect codeLine="48" fill="#F5F5DC" height="79.8438" id="Student" rx="2.5" ry="2.5" style="stroke:#181818;stroke-width:0.5;" width="114" x="1211" y="49.2168"/><ellipse cx="1227" cy="89.1387" fill="#ADD1B2" rx="12" ry="12" style="stroke:#181818;stroke-width:1.0;"/><path d="M1231.7188,96.6387 L1222.6406,96.6387 L1222.6406,82.0605 L1231.7188,82.0605 L1231.7188,84.5918 L1225.5156,84.5918 L1225.5156,87.748 L1231.1406,87.748 L1231.1406,90.2793 L1225.5156,90.2793 L1225.5156,94.0918 L1231.7188,94.0918 L1231.7188,96.6387 Z " fill="#000000"/><text fill="#000000" font-family="sans-serif" font-size="20" font-style="italic" lengthAdjust="spacing" textLength="83" x="1240.5" y="72.7813">«entity»</text><text fill="#000000" font-family="sans-serif" font-size="20" font-style="italic" lengthAdjust="spacing" textLength="64" x="1250" y="96.0625">«root»</text><text fill="#000000" font-family="sans-serif" font-size="20" lengthAdjust="spacing" textLength="80" x="1242" y="119.3438">Student</text></g><!--class MecanographicNumber--><g id="elem_MecanographicNumber"><rect codeLine="59" fill="#F5F5DC" height="56.5625" id="MecanographicNumber" rx="2.5" ry="2.5" style="stroke:#181818;stroke-width:0.5;" width="268" x="1173" y="271.2168"/><ellipse cx="1189" cy="299.498" fill="#FF8B40" rx="12" ry="12" style="stroke:#181818;stroke-width:1.0;"/><path d="M1189.0156,305.3418 L1191.5781,293.1699 L1194.4844,293.1699 L1191.0156,307.748 L1187.0313,307.748 L1183.5625,293.1699 L1186.4531,293.1699 L1189.0156,305.3418 Z " fill="#000000"/><text fill="#000000" font-family="sans-serif" font-size="20" font-style="italic" lengthAdjust="spacing" textLength="147" x="1247.5" y="294.7813">«value object»</text><text fill="#000000" font-family="sans-serif" font-size="20" lengthAdjust="spacing" textLength="234" x="1204" y="318.0625">MecanographicNumber</text></g><!--class Manager--><g id="elem_Manager"><rect codeLine="55" fill="#F5F5DC" height="79.8438" id="Manager" rx="2.5" ry="2.5" style="stroke:#181818;stroke-width:0.5;" width="121" x="594.5" y="49.2168"/><ellipse cx="610.5" cy="89.1387" fill="#ADD1B2" rx="12" ry="12" style="stroke:#181818;stroke-width:1.0;"/><path d="M615.2188,96.6387 L606.1406,96.6387 L606.1406,82.0605 L615.2188,82.0605 L615.2188,84.5918 L609.0156,84.5918 L609.0156,87.748 L614.6406,87.748 L614.6406,90.2793 L609.0156,90.2793 L609.0156,94.0918 L615.2188,94.0918 L615.2188,96.6387 Z " fill="#000000"/><text fill="#000000" font-family="sans-serif" font-size="20" font-style="italic" lengthAdjust="spacing" textLength="83" x="627.5" y="72.7813">«entity»</text><text fill="#000000" font-family="sans-serif" font-size="20" font-style="italic" lengthAdjust="spacing" textLength="64" x="637" y="96.0625">«root»</text><text fill="#000000" font-family="sans-serif" font-size="20" lengthAdjust="spacing" textLength="87" x="625.5" y="119.3438">Manager</text></g><!--link User to Password--><g id="link_User_Password"><path codeLine="28" d="M598.45,310.1068 C526.09,323.3968 406.94,350.0668 381,385.2168 C370.56,399.3568 372.73,418.6468 377.89,435.0168 " fill="none" id="User-to-Password" style="stroke:#222222;stroke-width:1.0;"/><polygon fill="#222222" points="379.57,439.9968,380.4568,430.1879,377.959,435.2635,372.8834,432.7656,379.57,439.9968" style="stroke:#222222;stroke-width:1.0;"/><text fill="#000000" font-family="sans-serif" font-size="20" lengthAdjust="spacing" textLength="174" x="382" y="404.7813">associated with a</text><text fill="#000000" font-family="sans-serif" font-size="20" lengthAdjust="spacing" textLength="13" x="362.4594" y="427.34">1</text></g><!--link User to FullName--><g id="link_User_FullName"><path codeLine="29" d="M690.17,355.2568 C703.39,373.7368 719.29,393.8268 736,410.2168 C745.76,419.7868 757.24,428.9468 768.44,437.0268 " fill="none" id="User-to-FullName" style="stroke:#222222;stroke-width:1.0;"/><polygon fill="#222222" points="772.55,439.9568,767.5401,431.4774,768.4775,437.056,762.8988,437.9934,772.55,439.9568" style="stroke:#222222;stroke-width:1.0;"/><text fill="#000000" font-family="sans-serif" font-size="20" lengthAdjust="spacing" textLength="167" x="737" y="404.7813">characterized by</text><text fill="#000000" font-family="sans-serif" font-size="20" lengthAdjust="spacing" textLength="13" x="749.0416" y="427.2917">1</text></g><!--link User to ShortName--><g id="link_User_ShortName"><path codeLine="30" d="M711.53,314.6068 C764.23,328.6868 844.2,352.9668 909,385.2168 C937.77,399.5268 967.55,419.9668 990.24,436.9168 " fill="none" id="User-to-ShortName" style="stroke:#222222;stroke-width:1.0;"/><polygon fill="#222222" points="994.4,440.0368,989.6,431.4368,990.4,437.0368,984.8,437.8368,994.4,440.0368" style="stroke:#222222;stroke-width:1.0;"/><text fill="#000000" font-family="sans-serif" font-size="20" lengthAdjust="spacing" textLength="167" x="951" y="404.7813">characterized by</text><text fill="#000000" font-family="sans-serif" font-size="20" lengthAdjust="spacing" textLength="13" x="972.9231" y="427.3882">1</text></g><!--link User to Email--><g id="link_User_Email"><path codeLine="31" d="M598.38,342.7168 C586.07,354.9268 574.72,369.3168 568,385.2168 C560.9,401.9968 567.85,420.5268 577.57,435.7668 " fill="none" id="User-to-Email" style="stroke:#222222;stroke-width:1.0;"/><polygon fill="#222222" points="580.37,439.9668,578.7059,430.2595,577.5965,435.8065,572.0495,434.6971,580.37,439.9668" style="stroke:#222222;stroke-width:1.0;"/><text fill="#000000" font-family="sans-serif" font-size="20" lengthAdjust="spacing" textLength="126" x="569" y="404.7813">identified by</text><text fill="#000000" font-family="sans-serif" font-size="20" lengthAdjust="spacing" textLength="13" x="560.9494" y="427.3038">1</text></g><!--link Student to MecanographicNumber--><g id="link_Student_MecanographicNumber"><path codeLine="61" d="M1275.34,129.4368 C1282.7,168.7868 1293.91,228.7268 1300.83,265.7168 " fill="none" id="Student-to-MecanographicNumber" style="stroke:#222222;stroke-width:1.0;"/><polygon fill="#222222" points="1301.82,270.9968,1304.1063,261.417,1300.9055,266.0811,1296.2413,262.8803,1301.82,270.9968" style="stroke:#222222;stroke-width:1.0;"/><text fill="#000000" font-family="sans-serif" font-size="20" lengthAdjust="spacing" textLength="126" x="1286" y="180.7813">identified by</text><text fill="#000000" font-family="sans-serif" font-size="20" lengthAdjust="spacing" textLength="13" x="1286.411" y="258.34">1</text></g><!--link Teacher to Acronym--><g id="link_Teacher_Acronym"><path codeLine="63" d="M161,129.4368 C161,168.7868 161,228.7268 161,265.7168 " fill="none" id="Teacher-to-Acronym" style="stroke:#222222;stroke-width:1.0;"/><polygon fill="#222222" points="161,270.9968,165,261.9968,161,265.9968,157,261.9968,161,270.9968" style="stroke:#222222;stroke-width:1.0;"/><text fill="#000000" font-family="sans-serif" font-size="20" lengthAdjust="spacing" textLength="126" x="162" y="180.7813">identified by</text><text fill="#000000" font-family="sans-serif" font-size="20" lengthAdjust="spacing" textLength="13" x="146.6594" y="258.34">1</text></g><!--link Teacher to User--><g id="link_Teacher_User"><path codeLine="65" d="M218.15,114.3368 C307.53,152.0668 480.44,225.0368 579.81,266.9868 " fill="none" id="Teacher-to-User" style="stroke:#222222;stroke-width:1.0;"/><polygon fill="none" points="582.66,260.5868,598.36,274.8168,577.21,273.4868,582.66,260.5868" style="stroke:#222222;stroke-width:1.0;"/><text fill="#000000" font-family="sans-serif" font-size="20" lengthAdjust="spacing" textLength="13" x="577.6648" y="265.9545">1</text></g><!--link Student to User--><g id="link_Student_User"><path codeLine="66" d="M1210.88,109.6468 C1099.98,147.3668 855.49,230.5268 731.02,272.8568 " fill="none" id="Student-to-User" style="stroke:#222222;stroke-width:1.0;"/><polygon fill="none" points="732.94,279.5968,711.75,279.4168,728.43,266.3468,732.94,279.5968" style="stroke:#222222;stroke-width:1.0;"/><text fill="#000000" font-family="sans-serif" font-size="20" lengthAdjust="spacing" textLength="13" x="719.4586" y="271.1151">1</text></g><!--link Manager to User--><g id="link_Manager_User"><path codeLine="67" d="M655,129.4368 C655,155.9468 655,191.8068 655,223.6968 " fill="none" id="Manager-to-User" style="stroke:#222222;stroke-width:1.0;"/><polygon fill="none" points="662,223.9368,655,243.9368,648,223.9368,662,223.9368" style="stroke:#222222;stroke-width:1.0;"/><text fill="#000000" font-family="sans-serif" font-size="20" lengthAdjust="spacing" textLength="13" x="641.2078" y="231.311">1</text></g><!--SRC=[bLDDZzem4BtxLuooXssbKc3Lmmf5I6nLf3tigXBjteqp92w9dTgJHRJbltVoIK8NGJaW- -NDl3SVzbjjSkbabbgrnGWYtCWYfQKrjDA_4EucuZOXolriFCvJQQZ8qe_APcELIkz7aPOn1mlXspnGVLWGERqk21-LDLMYYKXqX81PJdkGxMVVHpEan4R-DDU3LDlOsS94dsrg7QnHnzWZBPopk_hJpLtr4oBd61aZ164euzXXB0ddS_ZkqGNmMm2W8SsI9S2tIWU-yj_EkgW3lcHIfzrjMQJfiyom0rQ9TLGX1o5w2I4CwnihXg6pblXGYev0-uKY_NeQ8SJG0OUzU_bmirpUFtoQl8TNcHO8Tlq3LPNg88QEhgHtVg_aL-LVv8ggvD5e3i4qE5Om0pvPfRdn4Umq9I27pCxy35J2WrI4ZXSbWlL-I3pQliIi3S-0Lufxkz4rvTmoV4EfafDzQB1kn0lbhDbdvRZ4a79co8UpSYigIbi3kGRhv9vGIMFvHUM9Liz5jcOhFUc6_j_IJz8mEgoqmNgBs23dimzQSkKElL7HvOrgwspd-bQIqodVmYftceEcPIyTuqgIjiRpg_jPe2_FCBsVGV08b6Yp1KsmiqNAqSWBwX78SdCsrYa-9f90rfNwab0OpLa2O4T3tNOTMgzjU_xPmYFnJysi7lwnr3xQZcA8_WK0]--></g></svg>