<?xml version="1.0" encoding="UTF-8" standalone="no"?><svg xmlns="http://www.w3.org/2000/svg" xmlns:xlink="http://www.w3.org/1999/xlink" contentStyleType="text/css" height="572px" preserveAspectRatio="none" style="width:1385px;height:572px;background:#FFFFFF;" version="1.1" viewBox="0 0 1385 572" width="1385px" zoomAndPan="magnify"><defs/><g><!--cluster <<aggregate>> User--><g id="cluster_&lt;&lt;aggregate&gt;&gt; User"><path d="M261.5,223.36 L441.875,223.36 A3.75,3.75 0 0 1 444.375,225.86 L451.375,256.6 L1055.5,256.6 A2.5,2.5 0 0 1 1058,259.1 L1058,562.86 A2.5,2.5 0 0 1 1055.5,565.36 L261.5,565.36 A2.5,2.5 0 0 1 259,562.86 L259,225.86 A2.5,2.5 0 0 1 261.5,223.36 " fill="none" style="stroke:#000000;stroke-width:1.5;"/><line style="stroke:#000000;stroke-width:1.5;" x1="259" x2="451.375" y1="256.6" y2="256.6"/><text fill="#000000" font-family="sans-serif" font-size="20" font-weight="bold" lengthAdjust="spacing" textLength="179.375" x="263" y="246.74">«aggregate» User</text></g><!--cluster <<aggregate>> Teacher--><g id="cluster_&lt;&lt;aggregate&gt;&gt; Teacher"><path d="M8.5,8.36 L222.75,8.36 A3.75,3.75 0 0 1 225.25,10.86 L232.25,41.6 L232.5,41.6 A2.5,2.5 0 0 1 235,44.1 L235,378.36 A2.5,2.5 0 0 1 232.5,380.86 L8.5,380.86 A2.5,2.5 0 0 1 6,378.36 L6,10.86 A2.5,2.5 0 0 1 8.5,8.36 " fill="none" style="stroke:#000000;stroke-width:1.5;"/><line style="stroke:#000000;stroke-width:1.5;" x1="6" x2="232.25" y1="41.6" y2="41.6"/><text fill="#000000" font-family="sans-serif" font-size="20" font-weight="bold" lengthAdjust="spacing" textLength="213.25" x="10" y="31.74">«aggregate» Teacher</text></g><!--cluster <<aggregate>> Student--><g id="cluster_&lt;&lt;aggregate&gt;&gt; Student"><path d="M1084.5,8.36 L1298.75,8.36 A3.75,3.75 0 0 1 1301.25,10.86 L1308.25,41.6 L1375.5,41.6 A2.5,2.5 0 0 1 1378,44.1 L1378,378.36 A2.5,2.5 0 0 1 1375.5,380.86 L1084.5,380.86 A2.5,2.5 0 0 1 1082,378.36 L1082,10.86 A2.5,2.5 0 0 1 1084.5,8.36 " fill="none" style="stroke:#000000;stroke-width:1.5;"/><line style="stroke:#000000;stroke-width:1.5;" x1="1082" x2="1308.25" y1="41.6" y2="41.6"/><text fill="#000000" font-family="sans-serif" font-size="20" font-weight="bold" lengthAdjust="spacing" textLength="213.25" x="1086" y="31.74">«aggregate» Student</text></g><!--cluster <<aggregate>> Manager--><g id="cluster_&lt;&lt;aggregate&gt;&gt; Manager"><path d="M482.5,8.36 L705.75,8.36 A3.75,3.75 0 0 1 708.25,10.86 L715.25,41.6 L715.5,41.6 A2.5,2.5 0 0 1 718,44.1 L718,159.86 A2.5,2.5 0 0 1 715.5,162.36 L482.5,162.36 A2.5,2.5 0 0 1 480,159.86 L480,10.86 A2.5,2.5 0 0 1 482.5,8.36 " fill="none" style="stroke:#000000;stroke-width:1.5;"/><line style="stroke:#000000;stroke-width:1.5;" x1="480" x2="715.25" y1="41.6" y2="41.6"/><text fill="#000000" font-family="sans-serif" font-size="20" font-weight="bold" lengthAdjust="spacing" textLength="222.25" x="484" y="31.74">«aggregate» Manager</text></g><!--class User--><g id="elem_User"><rect codeLine="21" fill="#F5F5DC" height="126.9599" id="User" rx="2.5" ry="2.5" style="stroke:#181818;stroke-width:0.5;" width="100" x="549" y="269.36"/><ellipse cx="565" cy="315.22" fill="#ADD1B2" rx="12" ry="12" style="stroke:#181818;stroke-width:1.0;"/><path d="M569.0469,322.72 L560.4375,322.72 L560.4375,307.8137 L569.0469,307.8137 L569.0469,310.0168 L562.8594,310.0168 L562.8594,313.8606 L568.6875,313.8606 L568.6875,316.0325 L562.8594,316.0325 L562.8594,320.5168 L569.0469,320.5168 L569.0469,322.72 Z " fill="#000000"/><text fill="#000000" font-family="sans-serif" font-size="20" font-style="italic" lengthAdjust="spacing" textLength="70" x="578" y="295.74">«entity»</text><text fill="#000000" font-family="sans-serif" font-size="20" font-style="italic" lengthAdjust="spacing" textLength="57" x="584.5" y="322.9799">«root»</text><text fill="#000000" font-family="sans-serif" font-size="20" lengthAdjust="spacing" textLength="45" x="590.5" y="350.2199">User</text><line style="stroke:#181818;stroke-width:0.5;" x1="550" x2="648" y1="361.0799" y2="361.0799"/><text fill="#000000" font-family="sans-serif" font-size="20" lengthAdjust="spacing" textLength="80" x="555" y="386.4599">-isActive</text></g><!--class Password--><g id="elem_Password"><rect codeLine="23" fill="#F5F5DC" height="64.4799" id="Password" rx="2.5" ry="2.5" style="stroke:#181818;stroke-width:0.5;" width="156" x="275" y="485.36"/><ellipse cx="291" cy="517.6" fill="#FF8B40" rx="12" ry="12" style="stroke:#181818;stroke-width:1.0;"/><path d="M297.25,511.4437 L291.9375,526.35 L289.6875,526.35 L284.375,511.4437 L286.9063,511.4437 L290.2031,520.8031 Q290.4219,521.3968 290.5781,521.9437 Q290.75,522.4906 290.875,522.9906 Q291.0156,523.475 290.8125,523.5218 Q290.5938,523.4906 290.7344,522.975 Q290.875,522.4593 291.0469,521.9281 Q291.2188,521.3812 291.4219,520.7718 L294.6875,511.4437 L297.25,511.4437 Z " fill="#000000"/><text fill="#000000" font-family="sans-serif" font-size="20" font-style="italic" lengthAdjust="spacing" textLength="126" x="304" y="511.74">«value object»</text><text fill="#000000" font-family="sans-serif" font-size="20" lengthAdjust="spacing" textLength="93" x="320.5" y="538.9799">Password</text></g><!--class Email--><g id="elem_Email"><rect codeLine="26" fill="#F5F5DC" height="64.4799" id="Email" rx="2.5" ry="2.5" style="stroke:#181818;stroke-width:0.5;" width="156" x="466" y="485.36"/><ellipse cx="482" cy="517.6" fill="#FF8B40" rx="12" ry="12" style="stroke:#181818;stroke-width:1.0;"/><path d="M488.25,511.4437 L482.9375,526.35 L480.6875,526.35 L475.375,511.4437 L477.9063,511.4437 L481.2031,520.8031 Q481.4219,521.3968 481.5781,521.9437 Q481.75,522.4906 481.875,522.9906 Q482.0156,523.475 481.8125,523.5218 Q481.5938,523.4906 481.7344,522.975 Q481.875,522.4593 482.0469,521.9281 Q482.2188,521.3812 482.4219,520.7718 L485.6875,511.4437 L488.25,511.4437 Z " fill="#000000"/><text fill="#000000" font-family="sans-serif" font-size="20" font-style="italic" lengthAdjust="spacing" textLength="126" x="495" y="511.74">«value object»</text><text fill="#000000" font-family="sans-serif" font-size="20" lengthAdjust="spacing" textLength="53" x="531.5" y="538.9799">Email</text></g><!--class FullName--><g id="elem_FullName"><rect codeLine="24" fill="#F5F5DC" height="64.4799" id="FullName" rx="2.5" ry="2.5" style="stroke:#181818;stroke-width:0.5;" width="156" x="657" y="485.36"/><ellipse cx="673" cy="517.6" fill="#FF8B40" rx="12" ry="12" style="stroke:#181818;stroke-width:1.0;"/><path d="M679.25,511.4437 L673.9375,526.35 L671.6875,526.35 L666.375,511.4437 L668.9063,511.4437 L672.2031,520.8031 Q672.4219,521.3968 672.5781,521.9437 Q672.75,522.4906 672.875,522.9906 Q673.0156,523.475 672.8125,523.5218 Q672.5938,523.4906 672.7344,522.975 Q672.875,522.4593 673.0469,521.9281 Q673.2188,521.3812 673.4219,520.7718 L676.6875,511.4437 L679.25,511.4437 Z " fill="#000000"/><text fill="#000000" font-family="sans-serif" font-size="20" font-style="italic" lengthAdjust="spacing" textLength="126" x="686" y="511.74">«value object»</text><text fill="#000000" font-family="sans-serif" font-size="20" lengthAdjust="spacing" textLength="93" x="702.5" y="538.9799">FullName</text></g><!--class ShortName--><g id="elem_ShortName"><rect codeLine="25" fill="#F5F5DC" height="64.4799" id="ShortName" rx="2.5" ry="2.5" style="stroke:#181818;stroke-width:0.5;" width="156" x="848" y="485.36"/><ellipse cx="864" cy="517.6" fill="#FF8B40" rx="12" ry="12" style="stroke:#181818;stroke-width:1.0;"/><path d="M870.25,511.4437 L864.9375,526.35 L862.6875,526.35 L857.375,511.4437 L859.9063,511.4437 L863.2031,520.8031 Q863.4219,521.3968 863.5781,521.9437 Q863.75,522.4906 863.875,522.9906 Q864.0156,523.475 863.8125,523.5218 Q863.5938,523.4906 863.7344,522.975 Q863.875,522.4593 864.0469,521.9281 Q864.2188,521.3812 864.4219,520.7718 L867.6875,511.4437 L870.25,511.4437 Z " fill="#000000"/><text fill="#000000" font-family="sans-serif" font-size="20" font-style="italic" lengthAdjust="spacing" textLength="126" x="877" y="511.74">«value object»</text><text fill="#000000" font-family="sans-serif" font-size="20" lengthAdjust="spacing" textLength="110" x="885" y="538.9799">ShortName</text></g><!--class Teacher--><g id="elem_Teacher"><rect codeLine="39" fill="#F5F5DC" height="91.7199" id="Teacher" rx="2.5" ry="2.5" style="stroke:#181818;stroke-width:0.5;" width="111" x="83.5" y="54.36"/><ellipse cx="99.5" cy="100.22" fill="#ADD1B2" rx="12" ry="12" style="stroke:#181818;stroke-width:1.0;"/><path d="M103.5469,107.72 L94.9375,107.72 L94.9375,92.8137 L103.5469,92.8137 L103.5469,95.0168 L97.3594,95.0168 L97.3594,98.8606 L103.1875,98.8606 L103.1875,101.0325 L97.3594,101.0325 L97.3594,105.5168 L103.5469,105.5168 L103.5469,107.72 Z " fill="#000000"/><text fill="#000000" font-family="sans-serif" font-size="20" font-style="italic" lengthAdjust="spacing" textLength="70" x="118" y="80.74">«entity»</text><text fill="#000000" font-family="sans-serif" font-size="20" font-style="italic" lengthAdjust="spacing" textLength="57" x="124.5" y="107.9799">«root»</text><text fill="#000000" font-family="sans-serif" font-size="20" lengthAdjust="spacing" textLength="77" x="114.5" y="135.2199">Teacher</text></g><!--class Acronym--><g id="elem_Acronym"><rect codeLine="58" fill="#F5F5DC" height="64.4799" id="Acronym" rx="2.5" ry="2.5" style="stroke:#181818;stroke-width:0.5;" width="156" x="59" y="300.86"/><ellipse cx="75" cy="333.1" fill="#FF8B40" rx="12" ry="12" style="stroke:#181818;stroke-width:1.0;"/><path d="M81.25,326.9437 L75.9375,341.85 L73.6875,341.85 L68.375,326.9437 L70.9063,326.9437 L74.2031,336.3031 Q74.4219,336.8968 74.5781,337.4437 Q74.75,337.9906 74.875,338.4906 Q75.0156,338.975 74.8125,339.0218 Q74.5938,338.9906 74.7344,338.475 Q74.875,337.9593 75.0469,337.4281 Q75.2188,336.8812 75.4219,336.2718 L78.6875,326.9437 L81.25,326.9437 Z " fill="#000000"/><text fill="#000000" font-family="sans-serif" font-size="20" font-style="italic" lengthAdjust="spacing" textLength="126" x="88" y="327.24">«value object»</text><text fill="#000000" font-family="sans-serif" font-size="20" lengthAdjust="spacing" textLength="85" x="108.5" y="354.4799">Acronym</text></g><!--class Student--><g id="elem_Student"><rect codeLine="48" fill="#F5F5DC" height="91.7199" id="Student" rx="2.5" ry="2.5" style="stroke:#181818;stroke-width:0.5;" width="111" x="1136.5" y="54.36"/><ellipse cx="1152.5" cy="100.22" fill="#ADD1B2" rx="12" ry="12" style="stroke:#181818;stroke-width:1.0;"/><path d="M1156.5469,107.72 L1147.9375,107.72 L1147.9375,92.8137 L1156.5469,92.8137 L1156.5469,95.0168 L1150.3594,95.0168 L1150.3594,98.8606 L1156.1875,98.8606 L1156.1875,101.0325 L1150.3594,101.0325 L1150.3594,105.5168 L1156.5469,105.5168 L1156.5469,107.72 Z " fill="#000000"/><text fill="#000000" font-family="sans-serif" font-size="20" font-style="italic" lengthAdjust="spacing" textLength="70" x="1171" y="80.74">«entity»</text><text fill="#000000" font-family="sans-serif" font-size="20" font-style="italic" lengthAdjust="spacing" textLength="57" x="1177.5" y="107.9799">«root»</text><text fill="#000000" font-family="sans-serif" font-size="20" lengthAdjust="spacing" textLength="77" x="1167.5" y="135.2199">Student</text></g><!--class MecanographicNumber--><g id="elem_MecanographicNumber"><rect codeLine="59" fill="#F5F5DC" height="64.4799" id="MecanographicNumber" rx="2.5" ry="2.5" style="stroke:#181818;stroke-width:0.5;" width="263" x="1098.5" y="300.86"/><ellipse cx="1114.5" cy="333.1" fill="#FF8B40" rx="12" ry="12" style="stroke:#181818;stroke-width:1.0;"/><path d="M1120.75,326.9437 L1115.4375,341.85 L1113.1875,341.85 L1107.875,326.9437 L1110.4063,326.9437 L1113.7031,336.3031 Q1113.9219,336.8968 1114.0781,337.4437 Q1114.25,337.9906 1114.375,338.4906 Q1114.5156,338.975 1114.3125,339.0218 Q1114.0938,338.9906 1114.2344,338.475 Q1114.375,337.9593 1114.5469,337.4281 Q1114.7188,336.8812 1114.9219,336.2718 L1118.1875,326.9437 L1120.75,326.9437 Z " fill="#000000"/><text fill="#000000" font-family="sans-serif" font-size="20" font-style="italic" lengthAdjust="spacing" textLength="126" x="1181" y="327.24">«value object»</text><text fill="#000000" font-family="sans-serif" font-size="20" lengthAdjust="spacing" textLength="229" x="1129.5" y="354.4799">MecanographicNumber</text></g><!--class Manager--><g id="elem_Manager"><rect codeLine="55" fill="#F5F5DC" height="91.7199" id="Manager" rx="2.5" ry="2.5" style="stroke:#181818;stroke-width:0.5;" width="120" x="539" y="54.36"/><ellipse cx="555" cy="100.22" fill="#ADD1B2" rx="12" ry="12" style="stroke:#181818;stroke-width:1.0;"/><path d="M559.0469,107.72 L550.4375,107.72 L550.4375,92.8137 L559.0469,92.8137 L559.0469,95.0168 L552.8594,95.0168 L552.8594,98.8606 L558.6875,98.8606 L558.6875,101.0325 L552.8594,101.0325 L552.8594,105.5168 L559.0469,105.5168 L559.0469,107.72 Z " fill="#000000"/><text fill="#000000" font-family="sans-serif" font-size="20" font-style="italic" lengthAdjust="spacing" textLength="70" x="578" y="80.74">«entity»</text><text fill="#000000" font-family="sans-serif" font-size="20" font-style="italic" lengthAdjust="spacing" textLength="57" x="584.5" y="107.9799">«root»</text><text fill="#000000" font-family="sans-serif" font-size="20" lengthAdjust="spacing" textLength="86" x="570" y="135.2199">Manager</text></g><!--link User to Password--><g id="link_User_Password"><path codeLine="28" d="M548.8,335.13 C486.78,339.73 383.53,357.93 335,426.36 C323.96,441.92 327.19,462.62 333.75,480.24 " fill="none" id="User-to-Password" style="stroke:#222222;stroke-width:1.0;"/><polygon fill="#222222" points="335.68,485.12,336.114,475.2807,333.8526,480.4659,328.6674,478.2045,335.68,485.12" style="stroke:#222222;stroke-width:1.0;"/><text fill="#000000" font-family="sans-serif" font-size="20" lengthAdjust="spacing" textLength="165" x="336" y="448.74">associated with a</text><text fill="#000000" font-family="sans-serif" font-size="20" lengthAdjust="spacing" textLength="11" x="320.7578" y="471.6178">1</text></g><!--link User to FullName--><g id="link_User_FullName"><path codeLine="29" d="M637.43,396.38 C650.05,415.74 664.55,436.84 679,455.36 C685.76,464.03 693.48,472.96 700.99,481.23 " fill="none" id="User-to-FullName" style="stroke:#222222;stroke-width:1.0;"/><polygon fill="#222222" points="704.65,485.23,701.5269,475.8894,701.2753,481.5407,695.624,481.289,704.65,485.23" style="stroke:#222222;stroke-width:1.0;"/><text fill="#000000" font-family="sans-serif" font-size="20" lengthAdjust="spacing" textLength="158" x="680" y="448.74">characterized by</text><text fill="#000000" font-family="sans-serif" font-size="20" lengthAdjust="spacing" textLength="11" x="687.2642" y="471.4608">1</text></g><!--link User to ShortName--><g id="link_User_ShortName"><path codeLine="30" d="M649.41,345.63 C701.13,359.31 782.37,385.41 843,426.36 C864.78,441.07 884.88,462.57 899.85,480.86 " fill="none" id="User-to-ShortName" style="stroke:#222222;stroke-width:1.0;"/><polygon fill="#222222" points="903.15,484.95,900.6214,475.4313,900.0143,481.0554,894.3901,480.4484,903.15,484.95" style="stroke:#222222;stroke-width:1.0;"/><text fill="#000000" font-family="sans-serif" font-size="20" lengthAdjust="spacing" textLength="158" x="877" y="448.74">characterized by</text><text fill="#000000" font-family="sans-serif" font-size="20" lengthAdjust="spacing" textLength="11" x="887.2773" y="471.4186">1</text></g><!--link User to Email--><g id="link_User_Email"><path codeLine="31" d="M548.91,375.16 C534.88,389.71 521.44,407.26 514,426.36 C507.11,444.03 512.49,464.02 520.5,480.66 " fill="none" id="User-to-Email" style="stroke:#222222;stroke-width:1.0;"/><polygon fill="#222222" points="522.82,485.26,522.3225,475.4237,520.5611,480.7994,515.1854,479.038,522.82,485.26" style="stroke:#222222;stroke-width:1.0;"/><text fill="#000000" font-family="sans-serif" font-size="20" lengthAdjust="spacing" textLength="123" x="515" y="448.74">identified by</text><text fill="#000000" font-family="sans-serif" font-size="20" lengthAdjust="spacing" textLength="11" x="507.0676" y="471.4961">1</text></g><!--link Student to MecanographicNumber--><g id="link_Student_MecanographicNumber"><path codeLine="61" d="M1199.46,146.62 C1206.64,190.16 1217.35,255.15 1224,295.45 " fill="none" id="Student-to-MecanographicNumber" style="stroke:#222222;stroke-width:1.0;"/><polygon fill="#222222" points="1224.87,300.72,1227.3494,291.1883,1224.055,295.7869,1219.4564,292.4924,1224.87,300.72" style="stroke:#222222;stroke-width:1.0;"/><text fill="#000000" font-family="sans-serif" font-size="20" lengthAdjust="spacing" textLength="123" x="1209" y="200.74">identified by</text><text fill="#000000" font-family="sans-serif" font-size="20" lengthAdjust="spacing" textLength="11" x="1211.9765" y="286.949">1</text></g><!--link Teacher to Acronym--><g id="link_Teacher_Acronym"><path codeLine="63" d="M138.61,146.62 C138.23,190.16 137.67,255.15 137.32,295.45 " fill="none" id="Teacher-to-Acronym" style="stroke:#222222;stroke-width:1.0;"/><polygon fill="#222222" points="137.27,300.72,141.347,291.7546,137.3129,295.7202,133.3473,291.686,137.27,300.72" style="stroke:#222222;stroke-width:1.0;"/><text fill="#000000" font-family="sans-serif" font-size="20" lengthAdjust="spacing" textLength="123" x="140" y="200.74">identified by</text><text fill="#000000" font-family="sans-serif" font-size="20" lengthAdjust="spacing" textLength="11" x="125.3384" y="286.949">1</text></g><!--link Teacher to User--><g id="link_Teacher_User"><path codeLine="65" d="M194.95,129.39 C279.42,171.72 439.33,251.85 530.6,297.59 " fill="none" id="Teacher-to-User" style="stroke:#222222;stroke-width:1.0;"/><polygon fill="none" points="533.97,291.44,548.71,306.66,527.7,303.96,533.97,291.44" style="stroke:#222222;stroke-width:1.0;"/><text fill="#000000" font-family="sans-serif" font-size="20" lengthAdjust="spacing" textLength="11" x="529.8645" y="295.4769">1</text></g><!--link Student to User--><g id="link_Student_User"><path codeLine="66" d="M1136.48,122.94 C1027.66,165.24 786.61,258.94 667.85,305.1 " fill="none" id="Student-to-User" style="stroke:#222222;stroke-width:1.0;"/><polygon fill="none" points="670.38,311.63,649.2,312.35,665.3,298.58,670.38,311.63" style="stroke:#222222;stroke-width:1.0;"/><text fill="#000000" font-family="sans-serif" font-size="20" lengthAdjust="spacing" textLength="11" x="657.0328" y="301.967">1</text></g><!--link Manager to User--><g id="link_Manager_User"><path codeLine="67" d="M599,146.62 C599,175.75 599,214.47 599,248.98 " fill="none" id="Manager-to-User" style="stroke:#222222;stroke-width:1.0;"/><polygon fill="none" points="606,249.25,599,269.25,592,249.25,606,249.25" style="stroke:#222222;stroke-width:1.0;"/><text fill="#000000" font-family="sans-serif" font-size="20" lengthAdjust="spacing" textLength="11" x="587.4328" y="255.6924">1</text></g><!--SRC=[bLDDZzem4BtxLuooXssbKc3Lmmf5I6nLf3tigXBjteqp92w9dTgJHRJbltVoIK8NGJaW- -NDl3SVzbjjSkbabbgrnGWYtCWYfQKrjDA_4EucuZOXolriFCvJQQZ8qe_APcELIkz7aPOn1mlXspnGVLWGERqk21-LDLMYYKXqX81PJdkGxMVVHpEan4R-DDU3LDlOsS94dsrg7QnHnzWZBPopk_hJpLtr4oBd61aZ164euzXXB0ddS_ZkqGNmMm2W8SsI9S2tIWU-yj_EkgW3lcHIfzrjMQJfiyom0rQ9TLGX1o5w2I4CwnihXg6pblXGYev0-uKY_NeQ8SJG0OUzU_bmirpUFtoQl8TNcHO8Tlq3LPNg88QEhgHtVg_aL-LVv8ggvD5e3i4qE5Om0pvPfRdn4Umq9I27pCxy35J2WrI4ZXSbWlL-I3pQliIi3S-0Lufxkz4rvTmoV4EfafDzQB1kn0lbhDbdvRZ4a79co8UpSYigIbi3kGRhv9vGIMFvHUM9Liz5jcOhFUc6_j_IJz8mEgoqmNgBs23dimzQSkKElL7HvOrgwspd-bQIqodVmYftceEcPIyTuqgIjiRpg_jPe2_FCBsVGV08b6Yp1KsmiqNAqSWBwX78SdCsrYa-9f90rfNwab0OpLa2O4T3tNOTMgzjU_xPmYFnJysi7lwnr3xQZcA8_WK0]--></g></svg>