<?xml version="1.0" encoding="UTF-8" standalone="no"?><svg xmlns="http://www.w3.org/2000/svg" xmlns:xlink="http://www.w3.org/1999/xlink" contentStyleType="text/css" height="4126px" preserveAspectRatio="none" style="width:2382px;height:4126px;background:#FFFFFF;" version="1.1" viewBox="0 0 2382 4126" width="2382px" zoomAndPan="magnify"><defs/><g><!--cluster courses--><g id="cluster_courses"><rect fill="none" height="1740" rx="2.5" ry="2.5" style="stroke:#181818;stroke-width:1.0;" width="877" x="983.5" y="956.36"/><text fill="#000000" font-family="sans-serif" font-size="20" font-weight="bold" lengthAdjust="spacing" textLength="80.375" x="1381.8125" y="979.74">Courses</text></g><!--cluster exams--><g id="cluster_exams"><rect fill="none" height="924" rx="2.5" ry="2.5" style="stroke:#181818;stroke-width:1.0;" width="1276" x="784" y="8.36"/><text fill="#000000" font-family="sans-serif" font-size="20" font-weight="bold" lengthAdjust="spacing" textLength="65.125" x="1389.4375" y="31.74">Exams</text></g><!--cluster users--><g id="cluster_users"><rect fill="none" height="328" rx="2.5" ry="2.5" style="stroke:#181818;stroke-width:1.0;" width="1336" x="754" y="2720.36"/><text fill="#000000" font-family="sans-serif" font-size="20" font-weight="bold" lengthAdjust="spacing" textLength="57.125" x="1393.4375" y="2743.74">Users</text></g><!--cluster sharedBoards--><g id="cluster_sharedBoards"><rect fill="none" height="874" rx="2.5" ry="2.5" style="stroke:#181818;stroke-width:1.0;" width="1908" x="468" y="3246.36"/><text fill="#000000" font-family="sans-serif" font-size="20" font-weight="bold" lengthAdjust="spacing" textLength="143.5" x="1350.25" y="3269.74">Shared Boards</text></g><!--cluster meetings--><g id="cluster_meetings"><rect fill="none" height="150" rx="2.5" ry="2.5" style="stroke:#181818;stroke-width:1.0;" width="445" x="1199.5" y="3072.36"/><text fill="#000000" font-family="sans-serif" font-size="20" font-weight="bold" lengthAdjust="spacing" textLength="91" x="1376.5" y="3095.74">Meetings</text></g><g id="elem_createCourses"><ellipse cx="1422.2161" cy="2471.6032" fill="#ADD8E6" rx="211.7161" ry="44.7432" style="stroke:#00008B;stroke-width:0.5;"/><text fill="#000000" font-family="sans-serif" font-size="20" font-weight="bold" lengthAdjust="spacing" textLength="380.375" x="1229.0286" y="2479.5432">As a manager, I want to create courses</text></g><g id="elem_listCourses"><ellipse cx="1422.0589" cy="2615.4718" fill="#ADD8E6" rx="311.0589" ry="64.6118" style="stroke:#00008B;stroke-width:0.5;"/><text fill="#000000" font-family="sans-serif" font-size="20" font-weight="bold" lengthAdjust="spacing" textLength="588.875" x="1127.6214" y="2621.2318">As User, I want to list all the courses that are available to me</text></g><g id="elem_manageEnrollments"><ellipse cx="1421.8513" cy="1646.1303" fill="#ADD8E6" rx="314.3513" ry="65.2703" style="stroke:#00008B;stroke-width:0.5;"/><text fill="#000000" font-family="sans-serif" font-size="20" font-weight="bold" lengthAdjust="spacing" textLength="595.625" x="1124.0388" y="1651.8902">As Manager, I want to open and close enrollments in courses</text></g><g id="elem_manageCourseStatus"><ellipse cx="1422.09" cy="1798.478" fill="#ADD8E6" rx="243.59" ry="51.118" style="stroke:#00008B;stroke-width:0.5;"/><text fill="#000000" font-family="sans-serif" font-size="20" font-weight="bold" lengthAdjust="spacing" textLength="448.5" x="1194.84" y="1806.418">As Manager, I want to open and close courses</text></g><g id="elem_setTeachers"><ellipse cx="1421.8036" cy="1939.3207" fill="#ADD8E6" rx="262.8036" ry="54.9607" style="stroke:#00008B;stroke-width:0.5;"/><text fill="#000000" font-family="sans-serif" font-size="20" font-weight="bold" lengthAdjust="spacing" textLength="489" x="1174.5516" y="1947.1053">As Manager, I want to set the teachers of a course</text></g><g id="elem_enrollStudents"><ellipse cx="1421.9402" cy="2116.248" fill="#ADD8E6" rx="422.4402" ry="86.888" style="stroke:#00008B;stroke-width:0.5;"/><text fill="#000000" font-family="sans-serif" font-size="20" font-weight="bold" lengthAdjust="spacing" textLength="815.75" x="1014.0652" y="2122.008">As Manager, I want to enroll students in bulk by importing their data using a csv file</text></g><g id="elem_requestEnrollment"><ellipse cx="1421.8138" cy="1485.5227" fill="#ADD8E6" rx="288.8138" ry="60.1628" style="stroke:#00008B;stroke-width:0.5;"/><text fill="#000000" font-family="sans-serif" font-size="20" font-weight="bold" lengthAdjust="spacing" textLength="543.125" x="1149.4624" y="1491.9258">As Student, I want to request my enrollment in a course</text></g><g id="elem_approveRejectStudents"><ellipse cx="1421.9372" cy="2315.2474" fill="#ADD8E6" rx="369.9372" ry="76.3874" style="stroke:#00008B;stroke-width:0.5;"/><text fill="#000000" font-family="sans-serif" font-size="20" font-weight="bold" lengthAdjust="spacing" textLength="709.125" x="1067.3747" y="2321.0074">As Manager, I want to approve or reject students applications to courses</text></g><g id="elem_scheduleClass"><ellipse cx="1422.1752" cy="1046.495" fill="#ADD8E6" rx="206.1752" ry="43.635" style="stroke:#00008B;stroke-width:0.5;"/><text fill="#000000" font-family="sans-serif" font-size="20" font-weight="bold" lengthAdjust="spacing" textLength="368.375" x="1234.9877" y="1054.435">As Teacher, I want to schedule a class</text></g><g id="elem_scheduleExtraordinaryClass"><ellipse cx="1422.2132" cy="1183.3026" fill="#ADD8E6" rx="277.7132" ry="57.9426" style="stroke:#00008B;stroke-width:0.5;"/><text fill="#000000" font-family="sans-serif" font-size="20" font-weight="bold" lengthAdjust="spacing" textLength="520.125" x="1160.5732" y="1190.2952">As Teacher, I want to schedule an extraordinary class</text></g><g id="elem_updateClassSchedule"><ellipse cx="1422.0914" cy="1333.2783" fill="#ADD8E6" rx="270.0914" ry="56.4183" style="stroke:#00008B;stroke-width:0.5;"/><text fill="#000000" font-family="sans-serif" font-size="20" font-weight="bold" lengthAdjust="spacing" textLength="504.25" x="1167.8063" y="1340.6758">As Teacher, I want to update the schedule of a class</text></g><g id="elem_createExams"><ellipse cx="1421.9309" cy="259.3462" fill="#ADD8E6" rx="237.9309" ry="49.9862" style="stroke:#00008B;stroke-width:0.5;"/><text fill="#000000" font-family="sans-serif" font-size="20" font-weight="bold" lengthAdjust="spacing" textLength="436.5" x="1200.6809" y="267.2862">As Teacher, I want to create/update an exam</text></g><g id="elem_addUpdateExamQuestions"><ellipse cx="1422.0074" cy="471.1615" fill="#ADD8E6" rx="622.0074" ry="126.8015" style="stroke:#00008B;stroke-width:0.5;"/><text fill="#000000" font-family="sans-serif" font-size="20" font-weight="bold" lengthAdjust="spacing" textLength="1218.5" x="812.7574" y="476.9215">As Teacher I want to add/update exam questions to a repository of exam questions to be used in automatic formative exams</text></g><g id="elem_createUpdateFormativeExam"><ellipse cx="1421.7823" cy="701.3165" fill="#ADD8E6" rx="327.7823" ry="67.9565" style="stroke:#00008B;stroke-width:0.5;"/><text fill="#000000" font-family="sans-serif" font-size="20" font-weight="bold" lengthAdjust="spacing" textLength="623.125" x="1110.2198" y="707.0764">As Teacher, I want to create/update automatic formative exams</text></g><g id="elem_viewFutureExams"><ellipse cx="1421.8775" cy="860.3355" fill="#ADD8E6" rx="267.8775" ry="55.9755" style="stroke:#00008B;stroke-width:0.5;"/><text fill="#000000" font-family="sans-serif" font-size="20" font-weight="bold" lengthAdjust="spacing" textLength="499.625" x="1169.7289" y="867.8506">As Student, I want to view a list of my future exams</text></g><g id="elem_viewCourseExams"><ellipse cx="1421.8622" cy="114.2324" fill="#ADD8E6" rx="287.3622" ry="59.8724" style="stroke:#00008B;stroke-width:0.5;"/><text fill="#000000" font-family="sans-serif" font-size="20" font-weight="bold" lengthAdjust="spacing" textLength="540.125" x="1150.9115" y="120.7125">As Teacher, I want to view a list of all exams in a course</text></g><g id="elem_manageUsers"><ellipse cx="1421.958" cy="2899.1516" fill="#ADD8E6" rx="651.958" ry="132.7916" style="stroke:#00008B;stroke-width:0.5;"/><text fill="#000000" font-family="sans-serif" font-size="20" font-weight="bold" lengthAdjust="spacing" textLength="1278.75" x="782.583" y="2904.9116">As Manager, I want to be able to register, disable/enable, and list users of the system (Teachers and Students, as well as Managers)</text></g><g id="elem_createBoard"><ellipse cx="1421.7979" cy="3331.5196" fill="#ADD8E6" rx="183.7979" ry="39.1596" style="stroke:#00008B;stroke-width:0.5;"/><text fill="#000000" font-family="sans-serif" font-size="20" font-weight="bold" lengthAdjust="spacing" textLength="319.25" x="1259.1729" y="3339.4596">As User, I want to create a board</text></g><g id="elem_prepareCommunicationSharedBoards"><ellipse cx="1421.7902" cy="3547.518" fill="#ADD8E6" rx="696.2902" ry="141.658" style="stroke:#00008B;stroke-width:0.5;"/><text fill="#000000" font-family="sans-serif" font-size="20" font-weight="bold" lengthAdjust="spacing" textLength="1367.875" x="737.8527" y="3553.278">As Project Manager, I want the team to prepare the communication infrastructure for the Shared Boards and the deployment of the solution</text></g><g id="elem_sharedBoardsSynchronization"><ellipse cx="1421.9833" cy="3914.3567" fill="#ADD8E6" rx="937.9833" ry="189.9967" style="stroke:#00008B;stroke-width:0.5;"/><text fill="#000000" font-family="sans-serif" font-size="20" font-weight="bold" lengthAdjust="spacing" textLength="1853" x="495.4833" y="3920.1167">As Project Manager, I want the team to "explore" the synchronization problems related to the synchronization of shared boards and design a conceptual solution based on practical evidence.</text></g><g id="elem_scheduleMeeting"><ellipse cx="1421.8479" cy="3162.5296" fill="#ADD8E6" rx="206.3479" ry="43.6696" style="stroke:#00008B;stroke-width:0.5;"/><text fill="#000000" font-family="sans-serif" font-size="20" font-weight="bold" lengthAdjust="spacing" textLength="368.75" x="1234.4729" y="3170.4696">As User, I want to schedule a meeting</text></g><!--entity Manager--><g id="elem_Manager"><ellipse cx="382.5" cy="2081.36" fill="#F1F1F1" rx="8" ry="8" style="stroke:#181818;stroke-width:0.5;"/><path d="M382.5,2089.36 L382.5,2116.36 M369.5,2097.36 L395.5,2097.36 M382.5,2116.36 L369.5,2131.36 M382.5,2116.36 L395.5,2131.36 " fill="none" style="stroke:#181818;stroke-width:0.5;"/><text fill="#000000" font-family="sans-serif" font-size="20" lengthAdjust="spacing" textLength="83" x="341" y="2154.24">Manager</text></g><!--entity Student--><g id="elem_Student"><ellipse cx="382.5" cy="1138.36" fill="#F1F1F1" rx="8" ry="8" style="stroke:#181818;stroke-width:0.5;"/><path d="M382.5,1146.36 L382.5,1173.36 M369.5,1154.36 L395.5,1154.36 M382.5,1173.36 L369.5,1188.36 M382.5,1173.36 L395.5,1188.36 " fill="none" style="stroke:#181818;stroke-width:0.5;"/><text fill="#000000" font-family="sans-serif" font-size="20" lengthAdjust="spacing" textLength="72" x="346.5" y="1211.24">Student</text></g><!--entity User--><g id="elem_User"><ellipse cx="382.5" cy="3127.36" fill="#F1F1F1" rx="8" ry="8" style="stroke:#181818;stroke-width:0.5;"/><path d="M382.5,3135.36 L382.5,3162.36 M369.5,3143.36 L395.5,3143.36 M382.5,3162.36 L369.5,3177.36 M382.5,3162.36 L395.5,3177.36 " fill="none" style="stroke:#181818;stroke-width:0.5;"/><text fill="#000000" font-family="sans-serif" font-size="20" lengthAdjust="spacing" textLength="44" x="360.5" y="3200.24">User</text></g><!--entity Teacher--><g id="elem_Teacher"><ellipse cx="382.5" cy="666.36" fill="#F1F1F1" rx="8" ry="8" style="stroke:#181818;stroke-width:0.5;"/><path d="M382.5,674.36 L382.5,701.36 M369.5,682.36 L395.5,682.36 M382.5,701.36 L369.5,716.36 M382.5,701.36 L395.5,716.36 " fill="none" style="stroke:#181818;stroke-width:0.5;"/><text fill="#000000" font-family="sans-serif" font-size="20" lengthAdjust="spacing" textLength="74" x="345.5" y="739.24">Teacher</text></g><!--entity ProjectManager--><g id="elem_ProjectManager"><ellipse cx="82.5" cy="3770.36" fill="#F1F1F1" rx="8" ry="8" style="stroke:#181818;stroke-width:0.5;"/><path d="M82.5,3778.36 L82.5,3805.36 M69.5,3786.36 L95.5,3786.36 M82.5,3805.36 L69.5,3820.36 M82.5,3805.36 L95.5,3820.36 " fill="none" style="stroke:#181818;stroke-width:0.5;"/><text fill="#000000" font-family="sans-serif" font-size="20" lengthAdjust="spacing" textLength="153" x="6" y="3843.24">Project Manager</text></g><!--link Manager to manageUsers--><g id="link_Manager_manageUsers"><path d="M383,2159.96 C382.54,2281.18 387.9,2618.48 460,2696.36 C543.16,2786.19 655.25,2841.6 773.51,2874.84 " fill="none" id="Manager-to-manageUsers" style="stroke:#00008B;stroke-width:1.0;"/><polygon fill="#00008B" points="778.05,2876.09,770.4556,2869.819,773.2338,2874.7466,768.3062,2877.5248,778.05,2876.09" style="stroke:#00008B;stroke-width:1.0;"/></g><!--link Manager to createCourses--><g id="link_Manager_createCourses"><path d="M388.68,2160.15 C398.37,2233.87 421.78,2377.82 460,2409.36 C570.86,2500.84 966.29,2497.41 1214.04,2485.29 " fill="none" id="Manager-to-createCourses" style="stroke:#00008B;stroke-width:1.0;"/><polygon fill="#00008B" points="1218.72,2485.06,1209.5365,2481.5013,1213.7259,2485.3026,1209.9247,2489.4919,1218.72,2485.06" style="stroke:#00008B;stroke-width:1.0;"/></g><!--link Manager to manageEnrollments--><g id="link_Manager_manageEnrollments"><path d="M385.75,2072.39 C391.41,1980.85 409.58,1774.56 460,1729.36 C659.4,1550.59 984.7,1562.78 1200.79,1597.12 " fill="none" id="Manager-to-manageEnrollments" style="stroke:#00008B;stroke-width:1.0;"/><polygon fill="#00008B" points="1205.65,1597.9,1197.392,1592.533,1200.7124,1597.1128,1196.1325,1600.4332,1205.65,1597.9" style="stroke:#00008B;stroke-width:1.0;"/></g><!--link Manager to manageCourseStatus--><g id="link_Manager_manageCourseStatus"><path d="M382.95,2072.46 C384.85,2015.05 397.67,1915.97 460,1866.36 C567.35,1780.92 931.81,1777.06 1179.73,1785.31 " fill="none" id="Manager-to-manageCourseStatus" style="stroke:#00008B;stroke-width:1.0;"/><polygon fill="#00008B" points="1184.42,1785.47,1175.5623,1781.164,1179.4229,1785.2987,1175.2882,1789.1593,1184.42,1785.47" style="stroke:#00008B;stroke-width:1.0;"/></g><!--link Manager to setTeachers--><g id="link_Manager_setTeachers"><path d="M403.9,2072.52 C416.7,2050.23 435.47,2025.02 460,2011.36 C689.32,1883.7 998.46,1885.46 1203.48,1905.96 " fill="none" id="Manager-to-setTeachers" style="stroke:#00008B;stroke-width:1.0;"/><polygon fill="#00008B" points="1208.31,1906.45,1199.7555,1901.5694,1203.3351,1905.9496,1198.9549,1909.5293,1208.31,1906.45" style="stroke:#00008B;stroke-width:1.0;"/></g><!--link Manager to enrollStudents--><g id="link_Manager_enrollStudents"><path d="M424.49,2116.36 C520.4,2116.36 768.33,2116.36 992.87,2116.36 " fill="none" id="Manager-to-enrollStudents" style="stroke:#00008B;stroke-width:1.0;"/><polygon fill="#00008B" points="997.66,2116.36,988.66,2112.36,992.66,2116.36,988.66,2120.36,997.66,2116.36" style="stroke:#00008B;stroke-width:1.0;"/></g><!--link Manager to approveRejectStudents--><g id="link_Manager_approveRejectStudents"><path d="M404.43,2160.09 C417.29,2181.98 435.94,2206.66 460,2220.36 C646.02,2326.27 885.52,2350.16 1078.9,2347.51 " fill="none" id="Manager-to-approveRejectStudents" style="stroke:#00008B;stroke-width:1.0;"/><polygon fill="#00008B" points="1083.67,2347.44,1074.6136,2343.5693,1078.6705,2347.5116,1074.7282,2351.5685,1083.67,2347.44" style="stroke:#00008B;stroke-width:1.0;"/></g><!--link Teacher to createExams--><g id="link_Teacher_createExams"><path d="M385.97,657.66 C392.01,568.31 410.78,369.5 460,326.36 C564.51,234.78 938.25,233.86 1187.67,244.49 " fill="none" id="Teacher-to-createExams" style="stroke:#00008B;stroke-width:1.0;"/><polygon fill="#00008B" points="1192.39,244.69,1183.5695,240.3083,1187.3946,244.4759,1183.227,248.301,1192.39,244.69" style="stroke:#00008B;stroke-width:1.0;"/></g><!--link Teacher to addUpdateExamQuestions--><g id="link_Teacher_addUpdateExamQuestions"><path d="M412.33,657.77 C425.06,641.92 441.37,625.45 460,615.36 C565.68,558.14 686.95,521.61 806.96,498.7 " fill="none" id="Teacher-to-addUpdateExamQuestions" style="stroke:#00008B;stroke-width:1.0;"/><polygon fill="#00008B" points="811.55,497.83,801.9638,495.5706,806.6369,498.7583,803.4492,503.4315,811.55,497.83" style="stroke:#00008B;stroke-width:1.0;"/></g><!--link Teacher to scheduleClass--><g id="link_Teacher_scheduleClass"><path d="M384.66,745.27 C388.61,798.44 403.87,886.55 460,932.36 C686.57,1117.28 1049.34,1103.43 1258.34,1075.63 " fill="none" id="Teacher-to-scheduleClass" style="stroke:#00008B;stroke-width:1.0;"/><polygon fill="#00008B" points="1263.28,1074.96,1253.8246,1072.2042,1258.3252,1075.6311,1254.8983,1080.1318,1263.28,1074.96" style="stroke:#00008B;stroke-width:1.0;"/></g><!--link Teacher to scheduleExtraordinaryClass--><g id="link_Teacher_scheduleExtraordinaryClass"><path d="M385.27,745.33 C390.09,840.24 406.83,1059.61 460,1107.36 C669.77,1295.74 1019.61,1269.1 1234.34,1228.86 " fill="none" id="Teacher-to-scheduleExtraordinaryClass" style="stroke:#00008B;stroke-width:1.0;"/><polygon fill="#00008B" points="1239.16,1227.94,1229.5738,1225.6806,1234.2469,1228.8683,1231.0592,1233.5415,1239.16,1227.94" style="stroke:#00008B;stroke-width:1.0;"/></g><!--link Teacher to updateClassSchedule--><g id="link_Teacher_updateClassSchedule"><path d="M388.02,745.3 C401.45,873.76 441.27,1240.7 460,1258.36 C556.97,1349.81 905.34,1356.49 1154.7,1348.49 " fill="none" id="Teacher-to-updateClassSchedule" style="stroke:#00008B;stroke-width:1.0;"/><polygon fill="#00008B" points="1159.43,1348.33,1150.3088,1344.6147,1154.4325,1348.4871,1150.5601,1352.6107,1159.43,1348.33" style="stroke:#00008B;stroke-width:1.0;"/></g><!--link Teacher to createUpdateFormativeExam--><g id="link_Teacher_createUpdateFormativeExam"><path d="M419.82,701.36 C525.14,701.36 839.01,701.36 1087.55,701.36 " fill="none" id="Teacher-to-createUpdateFormativeExam" style="stroke:#00008B;stroke-width:1.0;"/><polygon fill="#00008B" points="1092.27,701.36,1083.27,697.36,1087.27,701.36,1083.27,705.36,1092.27,701.36" style="stroke:#00008B;stroke-width:1.0;"/></g><!--link Teacher to viewCourseExams--><g id="link_Teacher_viewCourseExams"><path d="M383.4,657.39 C384.15,545.47 392.67,254.21 460,191.36 C555.07,102.63 888.78,93.25 1136.41,99.58 " fill="none" id="Teacher-to-viewCourseExams" style="stroke:#00008B;stroke-width:1.0;"/><polygon fill="#00008B" points="1141.1,99.7,1132.2179,95.4446,1136.102,99.5572,1131.9894,103.4413,1141.1,99.7" style="stroke:#00008B;stroke-width:1.0;"/></g><!--link Student to viewFutureExams--><g id="link_Student_viewFutureExams"><path d="M388.8,1129.46 C396.54,1085.9 415.26,1020.83 460,986.36 C667.48,826.52 977.93,814.47 1189.42,829.58 " fill="none" id="Student-to-viewFutureExams" style="stroke:#00008B;stroke-width:1.0;"/><polygon fill="#00008B" points="1194.14,829.93,1185.4488,825.2972,1189.1528,829.5727,1184.8772,833.2767,1194.14,829.93" style="stroke:#00008B;stroke-width:1.0;"/></g><!--link Student to requestEnrollment--><g id="link_Student_requestEnrollment"><path d="M384.13,1217.23 C387.5,1271.33 402.11,1361.7 460,1407.36 C672.77,1575.21 1000.79,1561.95 1213.18,1529.52 " fill="none" id="Student-to-requestEnrollment" style="stroke:#00008B;stroke-width:1.0;"/><polygon fill="#00008B" points="1217.93,1528.79,1208.4281,1526.1988,1212.9876,1529.5471,1209.6394,1534.1066,1217.93,1528.79" style="stroke:#00008B;stroke-width:1.0;"/></g><!--link User to listCourses--><g id="link_User_listCourses"><path d="M385.35,3118.7 C390.36,3023.27 407.5,2800.59 460,2750.36 C644.72,2573.6 948.13,2558.96 1164.61,2576.35 " fill="none" id="User-to-listCourses" style="stroke:#00008B;stroke-width:1.0;"/><polygon fill="#00008B" points="1169.48,2576.75,1160.8421,2572.0185,1164.4972,2576.3359,1160.1797,2579.991,1169.48,2576.75" style="stroke:#00008B;stroke-width:1.0;"/></g><!--link User to createBoard--><g id="link_User_createBoard"><path d="M404.8,3184.41 C419.09,3197.74 439.07,3213.78 460,3222.36 C714.37,3326.63 1036.44,3342.11 1235.57,3339.73 " fill="none" id="User-to-createBoard" style="stroke:#00008B;stroke-width:1.0;"/><polygon fill="#00008B" points="1240.5,3339.66,1231.4438,3335.789,1235.5005,3339.7314,1231.5581,3343.7881,1240.5,3339.66" style="stroke:#00008B;stroke-width:1.0;"/></g><!--link User to scheduleMeeting--><g id="link_User_scheduleMeeting"><path d="M404.69,3162.36 C505.38,3162.36 941.59,3162.36 1208.74,3162.36 " fill="none" id="User-to-scheduleMeeting" style="stroke:#00008B;stroke-width:1.0;"/><polygon fill="#00008B" points="1213.5,3162.36,1204.5,3158.36,1208.5,3162.36,1204.5,3166.36,1213.5,3162.36" style="stroke:#00008B;stroke-width:1.0;"/></g><!--link ProjectManager to prepareCommunicationSharedBoards--><g id="link_ProjectManager_prepareCommunicationSharedBoards"><path d="M159.44,3783.16 C235.12,3761.57 354.91,3728.82 460,3706.36 C586.77,3679.27 723.79,3654.14 853.56,3632.24 " fill="none" id="ProjectManager-to-prepareCommunicationSharedBoards" style="stroke:#00008B;stroke-width:1.0;"/><polygon fill="#00008B" points="858.24,3631.45,848.7014,3628.9975,853.3092,3632.2789,850.0277,3636.8867,858.24,3631.45" style="stroke:#00008B;stroke-width:1.0;"/></g><!--link ProjectManager to sharedBoardsSynchronization--><g id="link_ProjectManager_sharedBoardsSynchronization"><path d="M159.24,3811.53 C242.11,3818.29 384.65,3829.9 544.82,3842.96 " fill="none" id="ProjectManager-to-sharedBoardsSynchronization" style="stroke:#00008B;stroke-width:1.0;"/><polygon fill="#00008B" points="549.5,3843.34,540.8633,3838.6064,544.5173,3842.9248,540.1989,3846.5788,549.5,3843.34" style="stroke:#00008B;stroke-width:1.0;"/></g><!--SRC=[dLR9RYCt4BtpAmXVCWBiKP2Z3W5cF3OGO0maKUO3g6P9OiGcUxZ8rWJvzrIHR8czU8iFDbtBgxsg_K6PJZZHQjiSG789Mn5rkBSchDKFuB_yp7xQXz3vrNBPQM52RFN7nhRBwE6c4VXBAh53VSPy3yMHHop-3-FuyraqXvspqSXRgwtZNzLk7pxh29bhdGINEL-4EvmPdvopZpFqv5euQK1LBTc_ZAqUX14xS2ikF2zljbg7AC64H2nljlhcYnWzsEel4Cs-KCgRhNvtzcze0gzH2wq7PngsWGVB7SN2fNB8LDOmHWzXTkZTrQsDpeE_8lqclrD6-knSVV9Sy3P3NlFV-2Ecbq0R1o90hvFr4waWZZ0eb5fTAn-uq9g7_Ha4tmA93hWu2gN51Xr4qHOIEcdCOpzClRCT62wCv8ssA0N6MQrRpAxdoWoSpg7TNGJU3Jv5oswkWmZn3N0UGif2oBNrt6unvHarWQ90gViRq7AetETcIk5keZxmpOchjhCkABCZSyfnAO90E2AWFN_aMwMpnGnI6d9ij91hemw-Hy22jgSgrMHw44UHkkJwzMX4rpbx18xpvI0r_3amP6dL2EfedngoAaDH-pEfF1D6IUcW4aYG4RiEtTR2PwoUU4kKzs0O3a_12LmToWXtce6yg_bln8-TfBcZXZcRoWrpXiyY2MzTH6W3LLD_zoJQB0lqcapyZDqytCjYFWKdschi4-GyJ5rFANi8qkUf8VeA2gnnPxqA5hE5CKqbDa3uCdLM3BR5wZTyQnqzZXcoD82Ktv8PSkkF7kBTKRve8yjcC_Szd-ozFYz71OyORbg262YEpJQ6w6fq4hbFn1So-m8cxTPStF4Oac3UK1bvs1gqg4iRqMlI6ZD3YbNfTxM37TedjbIUY4imzESwxSlaMuP53rCBdr2wvH_w_PR4-e6z9YyU0GEvd4o_gFPiydNa_tgF1qJYsHLEbcbBb4oOX3E-I-Mi2RuX-QhEIN-aF3h25voypLi2xB2dwQJbEzUsqPIbXNNPEk63YqqgFRPO4Xe4aF91L0cTjgUqLllKMHq99_bOhDpM1jPLtF_3yIjuGfCEUoONoZHxPutwaPt7_OfbRMcfQyoE98qvENGsvpydD0SamQjTxahJG1UYqETm-4RGX2SJ0hzN6kJ1KM53DF1nKi_rqDoe5nu0wDoLqrp-URK5gYjGT0PBku2IALRonszkVkKVgfvS33c33wF5d5Rr_J7BhxyeHWBLry68CxpY8-RiYLomVcLNVgSjCUBCxzUHqE1oFiERdi2HuCmnc_LoPW-Fv4PxRy5Ar1TkjMz7tCcdou9HeJEp-ZAjoTNUgCcZFbgmuMTx5dfjdcUqRZBwyyEnOFy1]--></g></svg>