<?xml version="1.0" encoding="UTF-8" standalone="no"?><svg xmlns="http://www.w3.org/2000/svg" xmlns:xlink="http://www.w3.org/1999/xlink" contentStyleType="text/css" height="4595px" preserveAspectRatio="none" style="width:2720px;height:4595px;background:#FFFFFF;" version="1.1" viewBox="0 0 2720 4595" width="2720px" zoomAndPan="magnify"><defs/><g><!--cluster courses--><g id="cluster_courses"><rect fill="none" height="1932" rx="2.5" ry="2.5" style="stroke:#181818;stroke-width:1.0;" width="1020" x="1087.5" y="1065.2168"/><text fill="#000000" font-family="sans-serif" font-size="20" font-weight="bold" lengthAdjust="spacing" textLength="91" x="1552" y="1085.7813">Courses</text></g><!--cluster exams--><g id="cluster_exams"><rect fill="none" height="1034" rx="2.5" ry="2.5" style="stroke:#181818;stroke-width:1.0;" width="1484" x="855.5" y="7.2168"/><text fill="#000000" font-family="sans-serif" font-size="20" font-weight="bold" lengthAdjust="spacing" textLength="74" x="1560.5" y="27.7813">Exams</text></g><!--cluster users--><g id="cluster_users"><rect fill="none" height="372" rx="2.5" ry="2.5" style="stroke:#181818;stroke-width:1.0;" width="1571" x="812" y="3021.2168"/><text fill="#000000" font-family="sans-serif" font-size="20" font-weight="bold" lengthAdjust="spacing" textLength="64" x="1565.5" y="3041.7813">Users</text></g><!--cluster sharedBoards--><g id="cluster_sharedBoards"><rect fill="none" height="992" rx="2.5" ry="2.5" style="stroke:#181818;stroke-width:1.0;" width="2233" x="481" y="3597.2168"/><text fill="#000000" font-family="sans-serif" font-size="20" font-weight="bold" lengthAdjust="spacing" textLength="166" x="1514.5" y="3617.7813">Shared Boards</text></g><!--cluster meetings--><g id="cluster_meetings"><rect fill="none" height="156" rx="2.5" ry="2.5" style="stroke:#181818;stroke-width:1.0;" width="497" x="1349" y="3417.2168"/><text fill="#000000" font-family="sans-serif" font-size="20" font-weight="bold" lengthAdjust="spacing" textLength="105" x="1545" y="3437.7813">Meetings</text></g><g id="elem_createCourses"><ellipse cx="1597.2501" cy="2744.1668" fill="#ADD8E6" rx="240.2501" ry="50.45" style="stroke:#00008B;stroke-width:0.5;"/><text fill="#000000" font-family="sans-serif" font-size="20" font-weight="bold" lengthAdjust="spacing" textLength="448" x="1373.2501" y="2749.0906">As a manager, I want to create courses</text></g><g id="elem_listCourses"><ellipse cx="1597.7004" cy="2905.2569" fill="#ADD8E6" rx="365.7004" ry="75.5401" style="stroke:#00008B;stroke-width:0.5;"/><text fill="#000000" font-family="sans-serif" font-size="20" font-weight="bold" lengthAdjust="spacing" textLength="704" x="1245.7004" y="2910.1807">As User, I want to list all the courses that are available to me</text></g><g id="elem_manageEnrollments"><ellipse cx="1597.2595" cy="1822.3687" fill="#ADD8E6" rx="361.2595" ry="74.6519" style="stroke:#00008B;stroke-width:0.5;"/><text fill="#000000" font-family="sans-serif" font-size="20" font-weight="bold" lengthAdjust="spacing" textLength="695" x="1249.7595" y="1827.2925">As Manager, I want to open and close enrollments in courses</text></g><g id="elem_manageCourseStatus"><ellipse cx="1597.2588" cy="1989.9685" fill="#ADD8E6" rx="276.7588" ry="57.7518" style="stroke:#00008B;stroke-width:0.5;"/><text fill="#000000" font-family="sans-serif" font-size="20" font-weight="bold" lengthAdjust="spacing" textLength="523" x="1335.7588" y="1994.8924">As Manager, I want to open and close courses</text></g><g id="elem_setTeachers"><ellipse cx="1597.6774" cy="2146.4523" fill="#ADD8E6" rx="304.1774" ry="63.2355" style="stroke:#00008B;stroke-width:0.5;"/><text fill="#000000" font-family="sans-serif" font-size="20" font-weight="bold" lengthAdjust="spacing" textLength="579" x="1308.1774" y="2151.3761">As Manager, I want to set the teachers of a course</text></g><g id="elem_enrollStudents"><ellipse cx="1597.4622" cy="2345.4092" fill="#ADD8E6" rx="493.9622" ry="101.1924" style="stroke:#00008B;stroke-width:0.5;"/><text fill="#000000" font-family="sans-serif" font-size="20" font-weight="bold" lengthAdjust="spacing" textLength="963" x="1115.9622" y="2350.3331">As Manager, I want to enroll students in bulk by importing their data using a csv file</text></g><g id="elem_requestEnrollment"><ellipse cx="1597.655" cy="1643.4478" fill="#ADD8E6" rx="334.155" ry="69.231" style="stroke:#00008B;stroke-width:0.5;"/><text fill="#000000" font-family="sans-serif" font-size="20" font-weight="bold" lengthAdjust="spacing" textLength="640" x="1277.655" y="1648.3716">As Student, I want to request my enrollment in a course</text></g><g id="elem_approveRejectStudents"><ellipse cx="1597.4855" cy="2570.1139" fill="#ADD8E6" rx="429.9855" ry="88.3971" style="stroke:#00008B;stroke-width:0.5;"/><text fill="#000000" font-family="sans-serif" font-size="20" font-weight="bold" lengthAdjust="spacing" textLength="834" x="1180.4855" y="2575.0377">As Manager, I want to approve or reject students applications to courses</text></g><g id="elem_scheduleClass"><ellipse cx="1597.4542" cy="1156.4076" fill="#ADD8E6" rx="233.9542" ry="49.1908" style="stroke:#00008B;stroke-width:0.5;"/><text fill="#000000" font-family="sans-serif" font-size="20" font-weight="bold" lengthAdjust="spacing" textLength="435" x="1379.9542" y="1161.3315">As Teacher, I want to schedule a class</text></g><g id="elem_scheduleExtraordinaryClass"><ellipse cx="1597.374" cy="1307.2916" fill="#ADD8E6" rx="320.874" ry="66.5748" style="stroke:#00008B;stroke-width:0.5;"/><text fill="#000000" font-family="sans-serif" font-size="20" font-weight="bold" lengthAdjust="spacing" textLength="613" x="1290.874" y="1312.2154">As Teacher, I want to schedule an extraordinary class</text></g><g id="elem_updateClassSchedule"><ellipse cx="1597.5127" cy="1474.2193" fill="#ADD8E6" rx="313.0127" ry="65.0025" style="stroke:#00008B;stroke-width:0.5;"/><text fill="#000000" font-family="sans-serif" font-size="20" font-weight="bold" lengthAdjust="spacing" textLength="597" x="1299.0127" y="1479.1432">As Teacher, I want to update the schedule of a class</text></g><g id="elem_createExams"><ellipse cx="1597.3633" cy="281.0895" fill="#ADD8E6" rx="272.3633" ry="56.8727" style="stroke:#00008B;stroke-width:0.5;"/><text fill="#000000" font-family="sans-serif" font-size="20" font-weight="bold" lengthAdjust="spacing" textLength="514" x="1340.3633" y="286.0133">As Teacher, I want to create/update an exam</text></g><g id="elem_addUpdateExamQuestions"><ellipse cx="1597.347" cy="521.2862" fill="#ADD8E6" rx="725.847" ry="147.5694" style="stroke:#00008B;stroke-width:0.5;"/><text fill="#000000" font-family="sans-serif" font-size="20" font-weight="bold" lengthAdjust="spacing" textLength="1429" x="882.847" y="526.21">As Teacher I want to add/update exam questions to a repository of exam questions to be used in automatic formative exams</text></g><g id="elem_createUpdateFormativeExam"><ellipse cx="1597.5197" cy="782.1207" fill="#ADD8E6" rx="380.0197" ry="78.4039" style="stroke:#00008B;stroke-width:0.5;"/><text fill="#000000" font-family="sans-serif" font-size="20" font-weight="bold" lengthAdjust="spacing" textLength="733" x="1231.0197" y="787.0446">As Teacher, I want to create/update automatic formative exams</text></g><g id="elem_viewFutureExams"><ellipse cx="1597.5485" cy="960.3265" fill="#ADD8E6" rx="311.0485" ry="64.6097" style="stroke:#00008B;stroke-width:0.5;"/><text fill="#000000" font-family="sans-serif" font-size="20" font-weight="bold" lengthAdjust="spacing" textLength="593" x="1301.0485" y="965.2503">As Student, I want to view a list of my future exams</text></g><g id="elem_viewCourseExams"><ellipse cx="1597.6317" cy="119.2431" fill="#ADD8E6" rx="335.6317" ry="69.5263" style="stroke:#00008B;stroke-width:0.5;"/><text fill="#000000" font-family="sans-serif" font-size="20" font-weight="bold" lengthAdjust="spacing" textLength="643" x="1276.1317" y="124.167">As Teacher, I want to view a list of all exams in a course</text></g><g id="elem_manageUsers"><ellipse cx="1597.7124" cy="3220.0593" fill="#ADD8E6" rx="769.7124" ry="156.3425" style="stroke:#00008B;stroke-width:0.5;"/><text fill="#000000" font-family="sans-serif" font-size="20" font-weight="bold" lengthAdjust="spacing" textLength="1517" x="839.2124" y="3224.9831">As Manager, I want to be able to register, disable/enable, and list users of the system (Teachers and Students, as well as Managers)</text></g><g id="elem_createBoard"><ellipse cx="1597.5218" cy="3683.3212" fill="#ADD8E6" rx="206.0218" ry="43.6044" style="stroke:#00008B;stroke-width:0.5;"/><text fill="#000000" font-family="sans-serif" font-size="20" font-weight="bold" lengthAdjust="spacing" textLength="377" x="1409.0218" y="3688.245">As User, I want to create a board</text></g><g id="elem_prepareCommunicationSharedBoards"><ellipse cx="1597.5884" cy="3927.1345" fill="#ADD8E6" rx="815.0884" ry="165.4177" style="stroke:#00008B;stroke-width:0.5;"/><text fill="#000000" font-family="sans-serif" font-size="20" font-weight="bold" lengthAdjust="spacing" textLength="1608" x="793.5884" y="3932.0583">As Project Manager, I want the team to prepare the communication infrastructure for the Shared Boards and the deployment of the solution</text></g><g id="elem_sharedBoardsSynchronization"><ellipse cx="1597.5444" cy="4350.2257" fill="#ADD8E6" rx="1100.5444" ry="222.5089" style="stroke:#00008B;stroke-width:0.5;"/><text fill="#000000" font-family="sans-serif" font-size="20" font-weight="bold" lengthAdjust="spacing" textLength="2180" x="507.5444" y="4355.1495">As Project Manager, I want the team to "explore" the synchronization problems related to the synchronization of shared boards and design a conceptual solution based on practical evidence.</text></g><g id="elem_scheduleMeeting"><ellipse cx="1597.5029" cy="3508.1174" fill="#ADD8E6" rx="232.5029" ry="48.9006" style="stroke:#00008B;stroke-width:0.5;"/><text fill="#000000" font-family="sans-serif" font-size="20" font-weight="bold" lengthAdjust="spacing" textLength="432" x="1381.5029" y="3513.0412">As User, I want to schedule a meeting</text></g><!--entity Manager--><g id="elem_Manager"><ellipse cx="393.5" cy="2312.2168" fill="#F1F1F1" rx="8" ry="8" style="stroke:#181818;stroke-width:0.5;"/><path d="M393.5,2320.2168 L393.5,2347.2168 M380.5,2328.2168 L406.5,2328.2168 M393.5,2347.2168 L380.5,2362.2168 M393.5,2347.2168 L406.5,2362.2168 " fill="none" style="stroke:#181818;stroke-width:0.5;"/><text fill="#000000" font-family="sans-serif" font-size="20" lengthAdjust="spacing" textLength="87" x="350" y="2382.2813">Manager</text></g><!--entity Student--><g id="elem_Student"><ellipse cx="393.5" cy="1269.2168" fill="#F1F1F1" rx="8" ry="8" style="stroke:#181818;stroke-width:0.5;"/><path d="M393.5,1277.2168 L393.5,1304.2168 M380.5,1285.2168 L406.5,1285.2168 M393.5,1304.2168 L380.5,1319.2168 M393.5,1304.2168 L406.5,1319.2168 " fill="none" style="stroke:#181818;stroke-width:0.5;"/><text fill="#000000" font-family="sans-serif" font-size="20" lengthAdjust="spacing" textLength="80" x="353.5" y="1339.2813">Student</text></g><!--entity User--><g id="elem_User"><ellipse cx="393.5" cy="3475.2168" fill="#F1F1F1" rx="8" ry="8" style="stroke:#181818;stroke-width:0.5;"/><path d="M393.5,3483.2168 L393.5,3510.2168 M380.5,3491.2168 L406.5,3491.2168 M393.5,3510.2168 L380.5,3525.2168 M393.5,3510.2168 L406.5,3525.2168 " fill="none" style="stroke:#181818;stroke-width:0.5;"/><text fill="#000000" font-family="sans-serif" font-size="20" lengthAdjust="spacing" textLength="45" x="371" y="3545.2813">User</text></g><!--entity Teacher--><g id="elem_Teacher"><ellipse cx="393.5" cy="749.2168" fill="#F1F1F1" rx="8" ry="8" style="stroke:#181818;stroke-width:0.5;"/><path d="M393.5,757.2168 L393.5,784.2168 M380.5,765.2168 L406.5,765.2168 M393.5,784.2168 L380.5,799.2168 M393.5,784.2168 L406.5,799.2168 " fill="none" style="stroke:#181818;stroke-width:0.5;"/><text fill="#000000" font-family="sans-serif" font-size="20" lengthAdjust="spacing" textLength="80" x="353.5" y="819.2813">Teacher</text></g><!--entity ProjectManager--><g id="elem_ProjectManager"><ellipse cx="87" cy="4194.2168" fill="#F1F1F1" rx="8" ry="8" style="stroke:#181818;stroke-width:0.5;"/><path d="M87,4202.2168 L87,4229.2168 M74,4210.2168 L100,4210.2168 M87,4229.2168 L74,4244.2168 M87,4229.2168 L100,4244.2168 " fill="none" style="stroke:#181818;stroke-width:0.5;"/><text fill="#000000" font-family="sans-serif" font-size="20" lengthAdjust="spacing" textLength="162" x="6" y="4264.2813">Project Manager</text></g><!--link Manager to manageUsers--><g id="link_Manager_manageUsers"><path d="M396.72,2387.0468 C404.35,2523.9368 431.4,2952.3168 473,2997.2168 C567.5,3099.1968 694.17,3162.1068 828.41,3199.6768 " fill="none" id="Manager-to-manageUsers" style="stroke:#00008B;stroke-width:1.0;"/><polygon fill="#00008B" points="833.59,3201.1168,825.9956,3194.8458,828.7738,3199.7734,823.8462,3202.5516,833.59,3201.1168" style="stroke:#00008B;stroke-width:1.0;"/></g><!--link Manager to createCourses--><g id="link_Manager_createCourses"><path d="M398.3,2386.9468 C406.57,2467.3868 429.04,2639.2468 473,2676.2168 C603.28,2785.7768 1076.6,2777.7068 1365.69,2761.3668 " fill="none" id="Manager-to-createCourses" style="stroke:#00008B;stroke-width:1.0;"/><polygon fill="#00008B" points="1370.79,2761.0868,1361.5765,2757.6068,1365.7981,2761.372,1362.0329,2765.5937,1370.79,2761.0868" style="stroke:#00008B;stroke-width:1.0;"/></g><!--link Manager to manageEnrollments--><g id="link_Manager_manageEnrollments"><path d="M395.88,2303.3868 C400.03,2205.5068 415.93,1965.9268 473,1914.2168 C709.76,1699.6968 1101.44,1721.3568 1354.17,1765.2168 " fill="none" id="Manager-to-manageEnrollments" style="stroke:#00008B;stroke-width:1.0;"/><polygon fill="#00008B" points="1359.37,1766.1268,1351.1912,1760.6399,1354.4444,1765.2677,1349.8166,1768.5209,1359.37,1766.1268" style="stroke:#00008B;stroke-width:1.0;"/></g><!--link Manager to manageCourseStatus--><g id="link_Manager_manageCourseStatus"><path d="M400.25,2303.6168 C410.89,2233.2068 436.01,2095.2568 473,2065.2168 C599.25,1962.6868 1036.03,1961.7568 1326.32,1973.6668 " fill="none" id="Manager-to-manageCourseStatus" style="stroke:#00008B;stroke-width:1.0;"/><polygon fill="#00008B" points="1331.44,1973.8768,1322.6201,1969.494,1326.4446,1973.6621,1322.2765,1977.4866,1331.44,1973.8768" style="stroke:#00008B;stroke-width:1.0;"/></g><!--link Manager to setTeachers--><g id="link_Manager_setTeachers"><path d="M410.37,2303.6668 C423.01,2276.6968 443.52,2243.4668 473,2226.2168 C744.32,2067.4768 1117.89,2076.5468 1358.32,2105.2768 " fill="none" id="Manager-to-setTeachers" style="stroke:#00008B;stroke-width:1.0;"/><polygon fill="#00008B" points="1363.62,2105.9168,1355.1641,2100.8672,1358.656,2105.3177,1354.2056,2108.8096,1363.62,2105.9168" style="stroke:#00008B;stroke-width:1.0;"/></g><!--link Manager to enrollStudents--><g id="link_Manager_enrollStudents"><path d="M437.28,2345.2168 C544.49,2345.2168 834.97,2345.2168 1098.3,2345.2168 " fill="none" id="Manager-to-enrollStudents" style="stroke:#00008B;stroke-width:1.0;"/><polygon fill="#00008B" points="1103.35,2345.2168,1094.35,2341.2168,1098.35,2345.2168,1094.35,2349.2168,1103.35,2345.2168" style="stroke:#00008B;stroke-width:1.0;"/></g><!--link Manager to approveRejectStudents--><g id="link_Manager_approveRejectStudents"><path d="M410.87,2386.7768 C423.63,2413.3268 444.08,2445.9068 473,2463.2168 C694.13,2595.5768 984.61,2620.1668 1214.8,2612.7968 " fill="none" id="Manager-to-approveRejectStudents" style="stroke:#00008B;stroke-width:1.0;"/><polygon fill="#00008B" points="1219.89,2612.6268,1210.7582,2608.9375,1214.8929,2612.7981,1211.0323,2616.9328,1219.89,2612.6268" style="stroke:#00008B;stroke-width:1.0;"/></g><!--link Teacher to createExams--><g id="link_Teacher_createExams"><path d="M395.92,740.4568 C400.16,643.3468 416.21,406.7968 473,356.2168 C595.72,246.9168 1041.87,248.8368 1333.67,263.0268 " fill="none" id="Teacher-to-createExams" style="stroke:#00008B;stroke-width:1.0;"/><polygon fill="#00008B" points="1338.81,263.2868,1330.0147,258.8549,1333.8159,263.0442,1329.6265,266.8455,1338.81,263.2868" style="stroke:#00008B;stroke-width:1.0;"/></g><!--link Teacher to addUpdateExamQuestions--><g id="link_Teacher_addUpdateExamQuestions"><path d="M418.39,740.5068 C431.87,720.8468 450.52,698.9568 473,686.2168 C595.15,616.9968 736.29,573.5168 876.4,546.8168 " fill="none" id="Teacher-to-addUpdateExamQuestions" style="stroke:#00008B;stroke-width:1.0;"/><polygon fill="#00008B" points="881.38,545.8668,871.7938,543.6074,876.4669,546.7951,873.2792,551.4683,881.38,545.8668" style="stroke:#00008B;stroke-width:1.0;"/></g><!--link Teacher to scheduleClass--><g id="link_Teacher_scheduleClass"><path d="M393.92,823.8968 C395.58,882.4168 408.1,987.7268 473,1041.2168 C744.06,1264.5968 1185.92,1231.6568 1426.8,1191.7468 " fill="none" id="Teacher-to-scheduleClass" style="stroke:#00008B;stroke-width:1.0;"/><polygon fill="#00008B" points="1431.75,1190.9268,1422.2183,1188.4474,1426.8169,1191.7418,1423.5224,1196.3404,1431.75,1190.9268" style="stroke:#00008B;stroke-width:1.0;"/></g><!--link Teacher to scheduleExtraordinaryClass--><g id="link_Teacher_scheduleExtraordinaryClass"><path d="M395.67,823.8268 C399.41,923.0768 414.5,1169.3468 473,1222.2168 C588.1,1326.2368 991.93,1333.9868 1282.48,1324.8268 " fill="none" id="Teacher-to-scheduleExtraordinaryClass" style="stroke:#00008B;stroke-width:1.0;"/><polygon fill="#00008B" points="1287.61,1324.6668,1278.4782,1320.9775,1282.6129,1324.8381,1278.7523,1328.9728,1287.61,1324.6668" style="stroke:#00008B;stroke-width:1.0;"/></g><!--link Teacher to updateClassSchedule--><g id="link_Teacher_updateClassSchedule"><path d="M398.43,823.9568 C411.26,958.2568 452.27,1371.5868 473,1391.2168 C587.09,1499.2568 1000.56,1504.3768 1292.65,1493.2068 " fill="none" id="Teacher-to-updateClassSchedule" style="stroke:#00008B;stroke-width:1.0;"/><polygon fill="#00008B" points="1297.8,1493.0068,1288.6577,1489.3436,1292.8034,1493.1924,1288.9547,1497.3381,1297.8,1493.0068" style="stroke:#00008B;stroke-width:1.0;"/></g><!--link Teacher to createUpdateFormativeExam--><g id="link_Teacher_createUpdateFormativeExam"><path d="M433.81,782.2168 C553.27,782.2168 921.61,782.2168 1212.06,782.2168 " fill="none" id="Teacher-to-createUpdateFormativeExam" style="stroke:#00008B;stroke-width:1.0;"/><polygon fill="#00008B" points="1217.19,782.2168,1208.19,778.2168,1212.19,782.2168,1208.19,786.2168,1217.19,782.2168" style="stroke:#00008B;stroke-width:1.0;"/></g><!--link Teacher to viewCourseExams--><g id="link_Teacher_viewCourseExams"><path d="M393.73,740.5768 C392.47,620.7568 395.83,279.0268 473,206.2168 C584.18,101.3168 978.26,92.0668 1268.43,100.7768 " fill="none" id="Teacher-to-viewCourseExams" style="stroke:#00008B;stroke-width:1.0;"/><polygon fill="#00008B" points="1273.55,100.9368,1264.6679,96.6814,1268.552,100.794,1264.4394,104.6781,1273.55,100.9368" style="stroke:#00008B;stroke-width:1.0;"/></g><!--link Student to viewFutureExams--><g id="link_Student_viewFutureExams"><path d="M397.43,1260.6668 C403.26,1211.8268 420.73,1132.2368 473,1091.2168 C720.79,896.7668 1099.12,894.5568 1347.14,920.0268 " fill="none" id="Student-to-viewFutureExams" style="stroke:#00008B;stroke-width:1.0;"/><polygon fill="#00008B" points="1352.24,920.5568,1343.7133,915.6277,1347.268,920.0282,1342.8675,923.5828,1352.24,920.5568" style="stroke:#00008B;stroke-width:1.0;"/></g><!--link Student to requestEnrollment--><g id="link_Student_requestEnrollment"><path d="M394.03,1343.8168 C395.87,1401.5868 408.64,1504.7868 473,1556.2168 C724.59,1757.2568 1117.18,1735.7168 1365.4,1694.7268 " fill="none" id="Student-to-requestEnrollment" style="stroke:#00008B;stroke-width:1.0;"/><polygon fill="#00008B" points="1370.51,1693.8768,1360.9795,1691.3929,1365.5765,1694.6895,1362.2799,1699.2865,1370.51,1693.8768" style="stroke:#00008B;stroke-width:1.0;"/></g><!--link User to listCourses--><g id="link_User_listCourses"><path d="M395.49,3466.3468 C398.82,3363.8668 413.13,3104.5768 473,3047.2168 C693.32,2836.1668 1059.36,2828.8068 1313.51,2855.7368 " fill="none" id="User-to-listCourses" style="stroke:#00008B;stroke-width:1.0;"/><polygon fill="#00008B" points="1318.74,2856.3068,1310.2274,2851.3535,1313.7695,2855.764,1309.359,2859.3062,1318.74,2856.3068" style="stroke:#00008B;stroke-width:1.0;"/></g><!--link User to createBoard--><g id="link_User_createBoard"><path d="M416.08,3532.2268 C430.63,3546.7168 451.11,3564.0968 473,3573.2168 C777.31,3699.9468 1166.73,3707.6268 1398.06,3697.9968 " fill="none" id="User-to-createBoard" style="stroke:#00008B;stroke-width:1.0;"/><polygon fill="#00008B" points="1403.15,3697.7768,1393.9865,3694.1669,1398.1546,3697.9915,1394.3301,3702.1596,1403.15,3697.7768" style="stroke:#00008B;stroke-width:1.0;"/></g><!--link User to scheduleMeeting--><g id="link_User_scheduleMeeting"><path d="M416.13,3508.2168 C528.11,3508.2168 1048.73,3508.2168 1359.92,3508.2168 " fill="none" id="User-to-scheduleMeeting" style="stroke:#00008B;stroke-width:1.0;"/><polygon fill="#00008B" points="1364.94,3508.2168,1355.94,3504.2168,1359.94,3508.2168,1355.94,3512.2168,1364.94,3508.2168" style="stroke:#00008B;stroke-width:1.0;"/></g><!--link ProjectManager to prepareCommunicationSharedBoards--><g id="link_ProjectManager_prepareCommunicationSharedBoards"><path d="M168.27,4199.3868 C245.57,4173.4168 366.17,4135.0368 473,4110.2168 C617.11,4076.7368 773.01,4047.1968 921.48,4022.1468 " fill="none" id="ProjectManager-to-prepareCommunicationSharedBoards" style="stroke:#00008B;stroke-width:1.0;"/><polygon fill="#00008B" points="926.76,4021.2568,917.2214,4018.8043,921.8292,4022.0857,918.5477,4026.6935,926.76,4021.2568" style="stroke:#00008B;stroke-width:1.0;"/></g><!--link ProjectManager to sharedBoardsSynchronization--><g id="link_ProjectManager_sharedBoardsSynchronization"><path d="M168.04,4233.7468 C254.44,4240.7868 402.61,4252.8668 571.7,4266.6568 " fill="none" id="ProjectManager-to-sharedBoardsSynchronization" style="stroke:#00008B;stroke-width:1.0;"/><polygon fill="#00008B" points="576.71,4267.0668,568.0587,4262.3599,571.726,4266.6669,567.4189,4270.3342,576.71,4267.0668" style="stroke:#00008B;stroke-width:1.0;"/></g><!--SRC=[dLR9RYCt4BtpAmXVCWBiKP2Z3W5cF3OGO0maKUO3g6P9OiGcUxZ8rWJvzrIHR8czU8iFDbtBgxsg_K6PJZZHQjiSG789Mn5rkBSchDKFuB_yp7xQXz3vrNBPQM52RFN7nhRBwE6c4VXBAh53VSPy3yMHHop-3-FuyraqXvspqSXRgwtZNzLk7pxh29bhdGINEL-4EvmPdvopZpFqv5euQK1LBTc_ZAqUX14xS2ikF2zljbg7AC64H2nljlhcYnWzsEel4Cs-KCgRhNvtzcze0gzH2wq7PngsWGVB7SN2fNB8LDOmHWzXTkZTrQsDpeE_8lqclrD6-knSVV9Sy3P3NlFV-2Ecbq0R1o90hvFr4waWZZ0eb5fTAn-uq9g7_Ha4tmA93hWu2gN51Xr4qHOIEcdCOpzClRCT62wCv8ssA0N6MQrRpAxdoWoSpg7TNGJU3Jv5oswkWmZn3N0UGif2oBNrt6unvHarWQ90gViRq7AetETcIk5keZxmpOchjhCkABCZSyfnAO90E2AWFN_aMwMpnGnI6d9ij91hemw-Hy22jgSgrMHw44UHkkJwzMX4rpbx18xpvI0r_3amP6dL2EfedngoAaDH-pEfF1D6IUcW4aYG4RiEtTR2PwoUU4kKzs0O3a_12LmToWXtce6yg_bln8-TfBcZXZcRoWrpXiyY2MzTH6W3LLD_zoJQB0lqcapyZDqytCjYFWKdschi4-GyJ5rFANi8qkUf8VeA2gnnPxqA5hE5CKqbDa3uCdLM3BR5wZTyQnqzZXcoD82Ktv8PSkkF7kBTKRve8yjcC_Szd-ozFYz71OyORbg262YEpJQ6w6fq4hbFn1So-m8cxTPStF4Oac3UK1bvs1gqg4iRqMlI6ZD3YbNfTxM37TedjbIUY4imzESwxSlaMuP53rCBdr2wvH_w_PR4-e6z9YyU0GEvd4o_gFPiydNa_tgF1qJYsHLEbcbBb4oOX3E-I-Mi2RuX-QhEIN-aF3h25voypLi2xB2dwQJbEzUsqPIbXNNPEk63YqqgFRPO4Xe4aF91L0cTjgUqLllKMHq99_bOhDpM1jPLtF_3yIjuGfCEUoONoZHxPutwaPt7_OfbRMcfQyoE98qvENGsvpydD0SamQjTxahJG1UYqETm-4RGX2SJ0hzN6kJ1KM53DF1nKi_rqDoe5nu0wDoLqrp-URK5gYjGT0PBku2IALRonszkVkKVgfvS33c33wF5d5Rr_J7BhxyeHWBLry68CxpY8-RiYLomVcLNVgSjCUBCxzUHqE1oFiERdi2HuCmnc_LoPW-Fv4PxRy5Ar1TkjMz7tCcdou9HeJEp-ZAjoTNUgCcZFbgmuMTx5dfjdcUqRZBwyyEnOFy1]--></g></svg>