<?xml version="1.0" encoding="UTF-8" standalone="no"?><svg xmlns="http://www.w3.org/2000/svg" xmlns:xlink="http://www.w3.org/1999/xlink" contentStyleType="text/css" height="1800px" preserveAspectRatio="none" style="width:3226px;height:1800px;background:#FFFFFF;" version="1.1" viewBox="0 0 3226 1800" width="3226px" zoomAndPan="magnify"><defs/><g><rect fill="#FFFFFF" height="1550.8791" style="stroke:#181818;stroke-width:1.0;" width="10" x="25" y="115.4799"/><rect fill="#FFFFFF" height="1517.6391" style="stroke:#181818;stroke-width:1.0;" width="10" x="666.25" y="148.7199"/><rect fill="#FFFFFF" height="1485.3991" style="stroke:#181818;stroke-width:1.0;" width="10" x="1269.5" y="189.9599"/><rect fill="#FFFFFF" height="415.3997" style="stroke:#181818;stroke-width:1.0;" width="10" x="1689.125" y="231.1999"/><rect fill="#FFFFFF" height="786.5595" style="stroke:#181818;stroke-width:1.0;" width="10" x="1912.125" y="272.4398"/><rect fill="#FFFFFF" height="779.3195" style="stroke:#181818;stroke-width:1.0;" width="10" x="2097.625" y="527.1197"/><rect fill="#FFFFFF" height="41.24" style="stroke:#181818;stroke-width:1.0;" width="10" x="2353.125" y="1223.9593"/><rect fill="#FFFFFF" height="30" style="stroke:#181818;stroke-width:1.0;" width="10" x="2353.125" y="1595.119"/><rect fill="#FFFFFF" height="30" style="stroke:#181818;stroke-width:1.0;" width="10" x="2500.125" y="568.3596"/><rect fill="#FFFFFF" height="41.24" style="stroke:#181818;stroke-width:1.0;" width="10" x="2783.125" y="1347.6792"/><rect fill="#FFFFFF" height="41.24" style="stroke:#181818;stroke-width:1.0;" width="10" x="2980.625" y="396.1598"/><rect fill="#FFFFFF" height="41.24" style="stroke:#181818;stroke-width:1.0;" width="10" x="2980.625" y="1100.2393"/><rect fill="#FFFFFF" height="41.24" style="stroke:#181818;stroke-width:1.0;" width="10" x="3145.625" y="976.5194"/><rect fill="none" height="153.9599" style="stroke:#000000;stroke-width:1.5;" width="976" x="1595.125" y="452.3997"/><line style="stroke:#181818;stroke-width:0.5;stroke-dasharray:5.0,5.0;" x1="30" x2="30" y1="105.4799" y2="1684.359"/><line style="stroke:#181818;stroke-width:0.5;stroke-dasharray:5.0,5.0;" x1="671.25" x2="671.25" y1="105.4799" y2="1684.359"/><line style="stroke:#181818;stroke-width:0.5;stroke-dasharray:5.0,5.0;" x1="1274.5" x2="1274.5" y1="105.4799" y2="1684.359"/><line style="stroke:#181818;stroke-width:0.5;stroke-dasharray:5.0,5.0;" x1="1694.125" x2="1694.125" y1="105.4799" y2="1684.359"/><line style="stroke:#181818;stroke-width:0.5;stroke-dasharray:5.0,5.0;" x1="1917.125" x2="1917.125" y1="105.4799" y2="1684.359"/><line style="stroke:#181818;stroke-width:0.5;stroke-dasharray:5.0,5.0;" x1="2102.125" x2="2102.125" y1="105.4799" y2="1684.359"/><line style="stroke:#181818;stroke-width:0.5;stroke-dasharray:5.0,5.0;" x1="2215.125" x2="2215.125" y1="105.4799" y2="1684.359"/><line style="stroke:#181818;stroke-width:0.5;stroke-dasharray:5.0,5.0;" x1="2358.125" x2="2358.125" y1="105.4799" y2="1684.359"/><line style="stroke:#181818;stroke-width:0.5;stroke-dasharray:5.0,5.0;" x1="2505.125" x2="2505.125" y1="105.4799" y2="1684.359"/><line style="stroke:#181818;stroke-width:0.5;stroke-dasharray:5.0,5.0;" x1="2621.125" x2="2621.125" y1="105.4799" y2="1684.359"/><line style="stroke:#181818;stroke-width:0.5;stroke-dasharray:5.0,5.0;" x1="2788.125" x2="2788.125" y1="105.4799" y2="1684.359"/><line style="stroke:#181818;stroke-width:0.5;stroke-dasharray:5.0,5.0;" x1="2985.125" x2="2985.125" y1="105.4799" y2="1684.359"/><line style="stroke:#181818;stroke-width:0.5;stroke-dasharray:5.0,5.0;" x1="3150.125" x2="3150.125" y1="105.4799" y2="1684.359"/><text fill="#000000" font-family="sans-serif" font-size="20" lengthAdjust="spacing" textLength="44" x="5" y="99.62">User</text><ellipse cx="30" cy="26.74" fill="#E2E2F0" rx="8" ry="8" style="stroke:#181818;stroke-width:0.5;"/><path d="M30,34.74 L30,61.74 M17,42.74 L43,42.74 M30,61.74 L17,76.74 M30,61.74 L43,76.74 " fill="none" style="stroke:#181818;stroke-width:0.5;"/><text fill="#000000" font-family="sans-serif" font-size="20" lengthAdjust="spacing" textLength="44" x="5" y="1704.739">User</text><ellipse cx="30" cy="1719.099" fill="#E2E2F0" rx="8" ry="8" style="stroke:#181818;stroke-width:0.5;"/><path d="M30,1727.099 L30,1754.099 M17,1735.099 L43,1735.099 M30,1754.099 L17,1769.099 M30,1754.099 L43,1769.099 " fill="none" style="stroke:#181818;stroke-width:0.5;"/><rect fill="#E2E2F0" height="68.4799" rx="2.5" ry="2.5" style="stroke:#181818;stroke-width:0.5;" width="148" x="597.25" y="36"/><text fill="#000000" font-family="sans-serif" font-size="20" font-style="italic" lengthAdjust="spacing" textLength="134" x="604.25" y="64.38">«presentation»</text><text fill="#000000" font-family="sans-serif" font-size="20" lengthAdjust="spacing" textLength="131" x="605.75" y="91.62">ShareBoardUI</text><rect fill="#E2E2F0" height="68.4799" rx="2.5" ry="2.5" style="stroke:#181818;stroke-width:0.5;" width="148" x="597.25" y="1683.359"/><text fill="#000000" font-family="sans-serif" font-size="20" font-style="italic" lengthAdjust="spacing" textLength="134" x="604.25" y="1711.739">«presentation»</text><text fill="#000000" font-family="sans-serif" font-size="20" lengthAdjust="spacing" textLength="131" x="605.75" y="1738.979">ShareBoardUI</text><rect fill="#E2E2F0" height="68.4799" rx="2.5" ry="2.5" style="stroke:#181818;stroke-width:0.5;" width="216" x="1166.5" y="36"/><text fill="#000000" font-family="sans-serif" font-size="20" font-style="italic" lengthAdjust="spacing" textLength="120" x="1214.5" y="64.38">«application»</text><text fill="#000000" font-family="sans-serif" font-size="20" lengthAdjust="spacing" textLength="202" x="1173.5" y="91.62">ShareBoardController</text><rect fill="#E2E2F0" height="68.4799" rx="2.5" ry="2.5" style="stroke:#181818;stroke-width:0.5;" width="216" x="1166.5" y="1683.359"/><text fill="#000000" font-family="sans-serif" font-size="20" font-style="italic" lengthAdjust="spacing" textLength="120" x="1214.5" y="1711.739">«application»</text><text fill="#000000" font-family="sans-serif" font-size="20" lengthAdjust="spacing" textLength="202" x="1173.5" y="1738.979">ShareBoardController</text><rect fill="#E2E2F0" height="68.4799" rx="2.5" ry="2.5" style="stroke:#181818;stroke-width:0.5;" width="178" x="1605.125" y="36"/><text fill="#000000" font-family="sans-serif" font-size="20" font-style="italic" lengthAdjust="spacing" textLength="80" x="1654.125" y="64.38">«service»</text><text fill="#000000" font-family="sans-serif" font-size="20" lengthAdjust="spacing" textLength="164" x="1612.125" y="91.62">ListBoardsService</text><rect fill="#E2E2F0" height="68.4799" rx="2.5" ry="2.5" style="stroke:#181818;stroke-width:0.5;" width="178" x="1605.125" y="1683.359"/><text fill="#000000" font-family="sans-serif" font-size="20" font-style="italic" lengthAdjust="spacing" textLength="80" x="1654.125" y="1711.739">«service»</text><text fill="#000000" font-family="sans-serif" font-size="20" lengthAdjust="spacing" textLength="164" x="1612.125" y="1738.979">ListBoardsService</text><rect fill="#E2E2F0" height="68.4799" rx="2.5" ry="2.5" style="stroke:#181818;stroke-width:0.5;" width="248" x="1793.125" y="36"/><text fill="#000000" font-family="sans-serif" font-size="20" font-style="italic" lengthAdjust="spacing" textLength="80" x="1877.125" y="64.38">«service»</text><text fill="#000000" font-family="sans-serif" font-size="20" lengthAdjust="spacing" textLength="234" x="1800.125" y="91.62">UserManagementService</text><rect fill="#E2E2F0" height="68.4799" rx="2.5" ry="2.5" style="stroke:#181818;stroke-width:0.5;" width="248" x="1793.125" y="1683.359"/><text fill="#000000" font-family="sans-serif" font-size="20" font-style="italic" lengthAdjust="spacing" textLength="80" x="1877.125" y="1711.739">«service»</text><text fill="#000000" font-family="sans-serif" font-size="20" lengthAdjust="spacing" textLength="234" x="1800.125" y="1738.979">UserManagementService</text><rect fill="#E2E2F0" height="68.4799" rx="2.5" ry="2.5" style="stroke:#181818;stroke-width:0.5;" width="103" x="2051.125" y="36"/><text fill="#000000" font-family="sans-serif" font-size="20" font-style="italic" lengthAdjust="spacing" textLength="89" x="2058.125" y="64.38">«domain»</text><text fill="#000000" font-family="sans-serif" font-size="20" lengthAdjust="spacing" textLength="56" x="2074.625" y="91.62">Board</text><rect fill="#E2E2F0" height="68.4799" rx="2.5" ry="2.5" style="stroke:#181818;stroke-width:0.5;" width="103" x="2051.125" y="1683.359"/><text fill="#000000" font-family="sans-serif" font-size="20" font-style="italic" lengthAdjust="spacing" textLength="89" x="2058.125" y="1711.739">«domain»</text><text fill="#000000" font-family="sans-serif" font-size="20" lengthAdjust="spacing" textLength="56" x="2074.625" y="1738.979">Board</text><rect fill="#E2E2F0" height="68.4799" rx="2.5" ry="2.5" style="stroke:#181818;stroke-width:0.5;" width="103" x="2164.125" y="36"/><text fill="#000000" font-family="sans-serif" font-size="20" font-style="italic" lengthAdjust="spacing" textLength="89" x="2171.125" y="64.38">«domain»</text><text fill="#000000" font-family="sans-serif" font-size="20" lengthAdjust="spacing" textLength="44" x="2193.625" y="91.62">User</text><rect fill="#E2E2F0" height="68.4799" rx="2.5" ry="2.5" style="stroke:#181818;stroke-width:0.5;" width="103" x="2164.125" y="1683.359"/><text fill="#000000" font-family="sans-serif" font-size="20" font-style="italic" lengthAdjust="spacing" textLength="89" x="2171.125" y="1711.739">«domain»</text><text fill="#000000" font-family="sans-serif" font-size="20" lengthAdjust="spacing" textLength="44" x="2193.625" y="1738.979">User</text><rect fill="#E2E2F0" height="68.4799" rx="2.5" ry="2.5" style="stroke:#181818;stroke-width:0.5;" width="162" x="2277.125" y="36"/><text fill="#000000" font-family="sans-serif" font-size="20" font-style="italic" lengthAdjust="spacing" textLength="89" x="2313.625" y="64.38">«domain»</text><text fill="#000000" font-family="sans-serif" font-size="20" lengthAdjust="spacing" textLength="148" x="2284.125" y="91.62">UserPermission</text><rect fill="#E2E2F0" height="68.4799" rx="2.5" ry="2.5" style="stroke:#181818;stroke-width:0.5;" width="162" x="2277.125" y="1683.359"/><text fill="#000000" font-family="sans-serif" font-size="20" font-style="italic" lengthAdjust="spacing" textLength="89" x="2313.625" y="1711.739">«domain»</text><text fill="#000000" font-family="sans-serif" font-size="20" lengthAdjust="spacing" textLength="148" x="2284.125" y="1738.979">UserPermission</text><rect fill="#E2E2F0" height="68.4799" rx="2.5" ry="2.5" style="stroke:#181818;stroke-width:0.5;" width="112" x="2449.125" y="36"/><text fill="#000000" font-family="sans-serif" font-size="20" font-style="italic" lengthAdjust="spacing" textLength="50" x="2480.125" y="64.38">«dto»</text><text fill="#000000" font-family="sans-serif" font-size="20" lengthAdjust="spacing" textLength="98" x="2456.125" y="91.62">BoardDTO</text><rect fill="#E2E2F0" height="68.4799" rx="2.5" ry="2.5" style="stroke:#181818;stroke-width:0.5;" width="112" x="2449.125" y="1683.359"/><text fill="#000000" font-family="sans-serif" font-size="20" font-style="italic" lengthAdjust="spacing" textLength="50" x="2480.125" y="1711.739">«dto»</text><text fill="#000000" font-family="sans-serif" font-size="20" lengthAdjust="spacing" textLength="98" x="2456.125" y="1738.979">BoardDTO</text><rect fill="#E2E2F0" height="68.4799" rx="2.5" ry="2.5" style="stroke:#181818;stroke-width:0.5;" width="100" x="2571.125" y="36"/><text fill="#000000" font-family="sans-serif" font-size="20" font-style="italic" lengthAdjust="spacing" textLength="50" x="2596.125" y="64.38">«dto»</text><text fill="#000000" font-family="sans-serif" font-size="20" lengthAdjust="spacing" textLength="86" x="2578.125" y="91.62">UserDTO</text><rect fill="#E2E2F0" height="68.4799" rx="2.5" ry="2.5" style="stroke:#181818;stroke-width:0.5;" width="100" x="2571.125" y="1683.359"/><text fill="#000000" font-family="sans-serif" font-size="20" font-style="italic" lengthAdjust="spacing" textLength="50" x="2596.125" y="1711.739">«dto»</text><text fill="#000000" font-family="sans-serif" font-size="20" lengthAdjust="spacing" textLength="86" x="2578.125" y="1738.979">UserDTO</text><rect fill="#E2E2F0" height="68.4799" rx="2.5" ry="2.5" style="stroke:#181818;stroke-width:0.5;" width="214" x="2681.125" y="36"/><text fill="#000000" font-family="sans-serif" font-size="20" font-style="italic" lengthAdjust="spacing" textLength="50" x="2763.125" y="64.38">«dto»</text><text fill="#000000" font-family="sans-serif" font-size="20" lengthAdjust="spacing" textLength="200" x="2688.125" y="91.62">UserPermissionsDTO</text><rect fill="#E2E2F0" height="68.4799" rx="2.5" ry="2.5" style="stroke:#181818;stroke-width:0.5;" width="214" x="2681.125" y="1683.359"/><text fill="#000000" font-family="sans-serif" font-size="20" font-style="italic" lengthAdjust="spacing" textLength="50" x="2763.125" y="1711.739">«dto»</text><text fill="#000000" font-family="sans-serif" font-size="20" lengthAdjust="spacing" textLength="200" x="2688.125" y="1738.979">UserPermissionsDTO</text><text fill="#000000" font-family="sans-serif" font-size="20" font-style="italic" lengthAdjust="spacing" textLength="110" x="2927.625" y="72.38">«repository»</text><text fill="#000000" font-family="sans-serif" font-size="20" lengthAdjust="spacing" textLength="155" x="2905.125" y="99.62">BoardRepository</text><path d="M2967.625,15 C2967.625,5 2985.625,5 2985.625,5 C2985.625,5 3003.625,5 3003.625,15 L3003.625,41 C3003.625,51 2985.625,51 2985.625,51 C2985.625,51 2967.625,51 2967.625,41 L2967.625,15 " fill="#E2E2F0" style="stroke:#181818;stroke-width:1.5;"/><path d="M2967.625,15 C2967.625,25 2985.625,25 2985.625,25 C2985.625,25 3003.625,25 3003.625,15 " fill="none" style="stroke:#181818;stroke-width:1.5;"/><text fill="#000000" font-family="sans-serif" font-size="20" font-style="italic" lengthAdjust="spacing" textLength="110" x="2927.625" y="1704.739">«repository»</text><text fill="#000000" font-family="sans-serif" font-size="20" lengthAdjust="spacing" textLength="155" x="2905.125" y="1731.979">BoardRepository</text><path d="M2967.625,1747.839 C2967.625,1737.839 2985.625,1737.839 2985.625,1737.839 C2985.625,1737.839 3003.625,1737.839 3003.625,1747.839 L3003.625,1773.839 C3003.625,1783.839 2985.625,1783.839 2985.625,1783.839 C2985.625,1783.839 2967.625,1783.839 2967.625,1773.839 L2967.625,1747.839 " fill="#E2E2F0" style="stroke:#181818;stroke-width:1.5;"/><path d="M2967.625,1747.839 C2967.625,1757.839 2985.625,1757.839 2985.625,1757.839 C2985.625,1757.839 3003.625,1757.839 3003.625,1747.839 " fill="none" style="stroke:#181818;stroke-width:1.5;"/><text fill="#000000" font-family="sans-serif" font-size="20" font-style="italic" lengthAdjust="spacing" textLength="110" x="3092.625" y="72.38">«repository»</text><text fill="#000000" font-family="sans-serif" font-size="20" lengthAdjust="spacing" textLength="143" x="3076.125" y="99.62">UserRepository</text><path d="M3132.625,15 C3132.625,5 3150.625,5 3150.625,5 C3150.625,5 3168.625,5 3168.625,15 L3168.625,41 C3168.625,51 3150.625,51 3150.625,51 C3150.625,51 3132.625,51 3132.625,41 L3132.625,15 " fill="#E2E2F0" style="stroke:#181818;stroke-width:1.5;"/><path d="M3132.625,15 C3132.625,25 3150.625,25 3150.625,25 C3150.625,25 3168.625,25 3168.625,15 " fill="none" style="stroke:#181818;stroke-width:1.5;"/><text fill="#000000" font-family="sans-serif" font-size="20" font-style="italic" lengthAdjust="spacing" textLength="110" x="3092.625" y="1704.739">«repository»</text><text fill="#000000" font-family="sans-serif" font-size="20" lengthAdjust="spacing" textLength="143" x="3076.125" y="1731.979">UserRepository</text><path d="M3132.625,1747.839 C3132.625,1737.839 3150.625,1737.839 3150.625,1737.839 C3150.625,1737.839 3168.625,1737.839 3168.625,1747.839 L3168.625,1773.839 C3168.625,1783.839 3150.625,1783.839 3150.625,1783.839 C3150.625,1783.839 3132.625,1783.839 3132.625,1773.839 L3132.625,1747.839 " fill="#E2E2F0" style="stroke:#181818;stroke-width:1.5;"/><path d="M3132.625,1747.839 C3132.625,1757.839 3150.625,1757.839 3150.625,1757.839 C3150.625,1757.839 3168.625,1757.839 3168.625,1747.839 " fill="none" style="stroke:#181818;stroke-width:1.5;"/><rect fill="#FFFFFF" height="1550.8791" style="stroke:#181818;stroke-width:1.0;" width="10" x="25" y="115.4799"/><rect fill="#FFFFFF" height="1517.6391" style="stroke:#181818;stroke-width:1.0;" width="10" x="666.25" y="148.7199"/><rect fill="#FFFFFF" height="1485.3991" style="stroke:#181818;stroke-width:1.0;" width="10" x="1269.5" y="189.9599"/><rect fill="#FFFFFF" height="415.3997" style="stroke:#181818;stroke-width:1.0;" width="10" x="1689.125" y="231.1999"/><rect fill="#FFFFFF" height="786.5595" style="stroke:#181818;stroke-width:1.0;" width="10" x="1912.125" y="272.4398"/><rect fill="#FFFFFF" height="779.3195" style="stroke:#181818;stroke-width:1.0;" width="10" x="2097.625" y="527.1197"/><rect fill="#FFFFFF" height="41.24" style="stroke:#181818;stroke-width:1.0;" width="10" x="2353.125" y="1223.9593"/><rect fill="#FFFFFF" height="30" style="stroke:#181818;stroke-width:1.0;" width="10" x="2353.125" y="1595.119"/><rect fill="#FFFFFF" height="30" style="stroke:#181818;stroke-width:1.0;" width="10" x="2500.125" y="568.3596"/><rect fill="#FFFFFF" height="41.24" style="stroke:#181818;stroke-width:1.0;" width="10" x="2783.125" y="1347.6792"/><rect fill="#FFFFFF" height="41.24" style="stroke:#181818;stroke-width:1.0;" width="10" x="2980.625" y="396.1598"/><rect fill="#FFFFFF" height="41.24" style="stroke:#181818;stroke-width:1.0;" width="10" x="2980.625" y="1100.2393"/><rect fill="#FFFFFF" height="41.24" style="stroke:#181818;stroke-width:1.0;" width="10" x="3145.625" y="976.5194"/><polygon fill="#181818" points="654.25,144.7199,664.25,148.7199,654.25,152.7199,658.25,148.7199" style="stroke:#181818;stroke-width:1.0;"/><line style="stroke:#181818;stroke-width:1.0;" x1="35" x2="660.25" y1="148.7199" y2="148.7199"/><text fill="#000000" font-family="sans-serif" font-size="20" font-weight="bold" lengthAdjust="spacing" textLength="11.625" x="42" y="140.8599">1</text><text fill="#000000" font-family="sans-serif" font-size="20" lengthAdjust="spacing" textLength="199" x="57.625" y="140.8599">asks to share a board</text><polygon fill="#181818" points="1257.5,185.9599,1267.5,189.9599,1257.5,193.9599,1261.5,189.9599" style="stroke:#181818;stroke-width:1.0;"/><line style="stroke:#181818;stroke-width:1.0;" x1="676.25" x2="1263.5" y1="189.9599" y2="189.9599"/><text fill="#000000" font-family="sans-serif" font-size="20" font-weight="bold" lengthAdjust="spacing" textLength="11.625" x="683.25" y="182.0999">2</text><text fill="#000000" font-family="sans-serif" font-size="20" lengthAdjust="spacing" textLength="51" x="698.875" y="182.0999">new()</text><polygon fill="#181818" points="1677.125,227.1999,1687.125,231.1999,1677.125,235.1999,1681.125,231.1999" style="stroke:#181818;stroke-width:1.0;"/><line style="stroke:#181818;stroke-width:1.0;" x1="1279.5" x2="1683.125" y1="231.1999" y2="231.1999"/><text fill="#000000" font-family="sans-serif" font-size="20" font-weight="bold" lengthAdjust="spacing" textLength="11.625" x="1286.5" y="223.3399">3</text><text fill="#000000" font-family="sans-serif" font-size="20" lengthAdjust="spacing" textLength="375" x="1302.125" y="223.3399">listBoardService = new(boardRepository)</text><polygon fill="#181818" points="1900.125,268.4398,1910.125,272.4398,1900.125,276.4398,1904.125,272.4398" style="stroke:#181818;stroke-width:1.0;"/><line style="stroke:#181818;stroke-width:1.0;" x1="1279.5" x2="1906.125" y1="272.4398" y2="272.4398"/><text fill="#000000" font-family="sans-serif" font-size="20" font-weight="bold" lengthAdjust="spacing" textLength="11.625" x="1286.5" y="264.5799">4</text><text fill="#000000" font-family="sans-serif" font-size="20" lengthAdjust="spacing" textLength="308" x="1302.125" y="264.5799">usrService = new(userRepository)</text><polygon fill="#181818" points="1257.5,309.6798,1267.5,313.6798,1257.5,317.6798,1261.5,313.6798" style="stroke:#181818;stroke-width:1.0;"/><line style="stroke:#181818;stroke-width:1.0;" x1="676.25" x2="1263.5" y1="313.6798" y2="313.6798"/><text fill="#000000" font-family="sans-serif" font-size="20" font-weight="bold" lengthAdjust="spacing" textLength="11.625" x="683.25" y="305.8198">5</text><text fill="#000000" font-family="sans-serif" font-size="20" lengthAdjust="spacing" textLength="149" x="698.875" y="305.8198">listUserBoards()</text><polygon fill="#181818" points="1677.125,350.9198,1687.125,354.9198,1677.125,358.9198,1681.125,354.9198" style="stroke:#181818;stroke-width:1.0;"/><line style="stroke:#181818;stroke-width:1.0;" x1="1279.5" x2="1683.125" y1="354.9198" y2="354.9198"/><text fill="#000000" font-family="sans-serif" font-size="20" font-weight="bold" lengthAdjust="spacing" textLength="11.625" x="1286.5" y="347.0598">6</text><text fill="#000000" font-family="sans-serif" font-size="20" lengthAdjust="spacing" textLength="160" x="1302.125" y="347.0598">userBoards(user)</text><polygon fill="#181818" points="2968.625,392.1598,2978.625,396.1598,2968.625,400.1598,2972.625,396.1598" style="stroke:#181818;stroke-width:1.0;"/><line style="stroke:#181818;stroke-width:1.0;" x1="1699.125" x2="2974.625" y1="396.1598" y2="396.1598"/><text fill="#000000" font-family="sans-serif" font-size="20" font-weight="bold" lengthAdjust="spacing" textLength="11.625" x="1706.125" y="388.2998">7</text><text fill="#000000" font-family="sans-serif" font-size="20" lengthAdjust="spacing" textLength="318" x="1721.75" y="388.2998">findAllBoardsCreatedByUser(user)</text><polygon fill="#181818" points="1710.125,433.3997,1700.125,437.3997,1710.125,441.3997,1706.125,437.3997" style="stroke:#181818;stroke-width:1.0;"/><line style="stroke:#181818;stroke-width:1.0;stroke-dasharray:2.0,2.0;" x1="1704.125" x2="2984.625" y1="437.3997" y2="437.3997"/><text fill="#000000" font-family="sans-serif" font-size="20" font-weight="bold" lengthAdjust="spacing" textLength="11.625" x="1716.125" y="429.5398">8</text><text fill="#000000" font-family="sans-serif" font-size="20" lengthAdjust="spacing" textLength="65" x="1731.75" y="429.5398">boards</text><path d="M1595.125,452.3997 L1683.625,452.3997 L1683.625,471.6397 L1673.625,481.6397 L1595.125,481.6397 L1595.125,452.3997 " fill="#EEEEEE" style="stroke:#000000;stroke-width:1.5;"/><rect fill="none" height="153.9599" style="stroke:#000000;stroke-width:1.5;" width="976" x="1595.125" y="452.3997"/><text fill="#000000" font-family="sans-serif" font-size="20" font-weight="bold" lengthAdjust="spacing" textLength="43.5" x="1610.125" y="474.7797">loop</text><text fill="#000000" font-family="sans-serif" font-size="20" font-weight="bold" lengthAdjust="spacing" textLength="158.75" x="1698.625" y="475.7797">[for each board]</text><polygon fill="#181818" points="2085.625,523.1197,2095.625,527.1197,2085.625,531.1197,2089.625,527.1197" style="stroke:#181818;stroke-width:1.0;"/><line style="stroke:#181818;stroke-width:1.0;" x1="1699.125" x2="2091.625" y1="527.1197" y2="527.1197"/><text fill="#000000" font-family="sans-serif" font-size="20" font-weight="bold" lengthAdjust="spacing" textLength="11.625" x="1706.125" y="519.2597">9</text><text fill="#000000" font-family="sans-serif" font-size="20" lengthAdjust="spacing" textLength="136" x="1721.75" y="519.2597">toDTO(course)</text><polygon fill="#181818" points="2488.125,564.3596,2498.125,568.3596,2488.125,572.3596,2492.125,568.3596" style="stroke:#181818;stroke-width:1.0;"/><line style="stroke:#181818;stroke-width:1.0;" x1="2107.625" x2="2494.125" y1="568.3596" y2="568.3596"/><text fill="#000000" font-family="sans-serif" font-size="20" font-weight="bold" lengthAdjust="spacing" textLength="23.25" x="2114.625" y="560.4997">10</text><text fill="#000000" font-family="sans-serif" font-size="20" lengthAdjust="spacing" textLength="51" x="2141.875" y="560.4997">new()</text><polygon fill="#181818" points="1290.5,642.5996,1280.5,646.5996,1290.5,650.5996,1286.5,646.5996" style="stroke:#181818;stroke-width:1.0;"/><line style="stroke:#181818;stroke-width:1.0;stroke-dasharray:2.0,2.0;" x1="1284.5" x2="1693.125" y1="646.5996" y2="646.5996"/><text fill="#000000" font-family="sans-serif" font-size="20" font-weight="bold" lengthAdjust="spacing" textLength="23.25" x="1296.5" y="638.7396">11</text><text fill="#000000" font-family="sans-serif" font-size="20" lengthAdjust="spacing" textLength="65" x="1323.75" y="638.7396">boards</text><polygon fill="#181818" points="687.25,683.8396,677.25,687.8396,687.25,691.8396,683.25,687.8396" style="stroke:#181818;stroke-width:1.0;"/><line style="stroke:#181818;stroke-width:1.0;stroke-dasharray:2.0,2.0;" x1="681.25" x2="1268.5" y1="687.8396" y2="687.8396"/><text fill="#000000" font-family="sans-serif" font-size="20" font-weight="bold" lengthAdjust="spacing" textLength="23.25" x="693.25" y="679.9796">12</text><text fill="#000000" font-family="sans-serif" font-size="20" lengthAdjust="spacing" textLength="65" x="720.5" y="679.9796">boards</text><polygon fill="#181818" points="46,725.0796,36,729.0796,46,733.0796,42,729.0796" style="stroke:#181818;stroke-width:1.0;"/><line style="stroke:#181818;stroke-width:1.0;stroke-dasharray:2.0,2.0;" x1="40" x2="665.25" y1="729.0796" y2="729.0796"/><text fill="#000000" font-family="sans-serif" font-size="20" font-weight="bold" lengthAdjust="spacing" textLength="23.25" x="52" y="721.2196">13</text><text fill="#000000" font-family="sans-serif" font-size="20" lengthAdjust="spacing" textLength="201" x="79.25" y="721.2196">asks to select a board</text><polygon fill="#181818" points="654.25,766.3195,664.25,770.3195,654.25,774.3195,658.25,770.3195" style="stroke:#181818;stroke-width:1.0;"/><line style="stroke:#181818;stroke-width:1.0;" x1="35" x2="660.25" y1="770.3195" y2="770.3195"/><text fill="#000000" font-family="sans-serif" font-size="20" font-weight="bold" lengthAdjust="spacing" textLength="23.25" x="42" y="762.4596">14</text><text fill="#000000" font-family="sans-serif" font-size="20" lengthAdjust="spacing" textLength="140" x="69.25" y="762.4596">selects a board</text><polygon fill="#181818" points="654.25,807.5595,664.25,811.5595,654.25,815.5595,658.25,811.5595" style="stroke:#181818;stroke-width:1.0;"/><line style="stroke:#181818;stroke-width:1.0;stroke-dasharray:2.0,2.0;" x1="35" x2="660.25" y1="811.5595" y2="811.5595"/><text fill="#000000" font-family="sans-serif" font-size="20" font-weight="bold" lengthAdjust="spacing" textLength="23.25" x="42" y="803.6995">15</text><text fill="#000000" font-family="sans-serif" font-size="20" lengthAdjust="spacing" textLength="580" x="69.25" y="803.6995">asks to enter the username of the user to share the board with</text><polygon fill="#181818" points="654.25,848.7995,664.25,852.7995,654.25,856.7995,658.25,852.7995" style="stroke:#181818;stroke-width:1.0;"/><line style="stroke:#181818;stroke-width:1.0;" x1="35" x2="660.25" y1="852.7995" y2="852.7995"/><text fill="#000000" font-family="sans-serif" font-size="20" font-weight="bold" lengthAdjust="spacing" textLength="23.25" x="42" y="844.9395">16</text><text fill="#000000" font-family="sans-serif" font-size="20" lengthAdjust="spacing" textLength="267" x="69.25" y="844.9395">enters the desired username</text><polygon fill="#181818" points="1257.5,890.0395,1267.5,894.0395,1257.5,898.0395,1261.5,894.0395" style="stroke:#181818;stroke-width:1.0;"/><line style="stroke:#181818;stroke-width:1.0;" x1="676.25" x2="1263.5" y1="894.0395" y2="894.0395"/><text fill="#000000" font-family="sans-serif" font-size="20" font-weight="bold" lengthAdjust="spacing" textLength="23.25" x="683.25" y="886.1795">17</text><text fill="#000000" font-family="sans-serif" font-size="20" lengthAdjust="spacing" textLength="350" x="710.5" y="886.1795">userPermission(boardDto, username)</text><polygon fill="#181818" points="1900.125,931.2794,1910.125,935.2794,1900.125,939.2794,1904.125,935.2794" style="stroke:#181818;stroke-width:1.0;"/><line style="stroke:#181818;stroke-width:1.0;" x1="1279.5" x2="1906.125" y1="935.2794" y2="935.2794"/><text fill="#000000" font-family="sans-serif" font-size="20" font-weight="bold" lengthAdjust="spacing" textLength="23.25" x="1286.5" y="927.4195">18</text><text fill="#000000" font-family="sans-serif" font-size="20" lengthAdjust="spacing" textLength="404" x="1313.75" y="927.4195">user = usrService.userOfIdentity(username)</text><polygon fill="#181818" points="3133.625,972.5194,3143.625,976.5194,3133.625,980.5194,3137.625,976.5194" style="stroke:#181818;stroke-width:1.0;"/><line style="stroke:#181818;stroke-width:1.0;" x1="1922.125" x2="3139.625" y1="976.5194" y2="976.5194"/><text fill="#000000" font-family="sans-serif" font-size="20" font-weight="bold" lengthAdjust="spacing" textLength="23.25" x="1929.125" y="968.6594">19</text><text fill="#000000" font-family="sans-serif" font-size="20" lengthAdjust="spacing" textLength="196" x="1956.375" y="968.6594">ofIdentity(username)</text><polygon fill="#181818" points="1933.125,1013.7594,1923.125,1017.7594,1933.125,1021.7594,1929.125,1017.7594" style="stroke:#181818;stroke-width:1.0;"/><line style="stroke:#181818;stroke-width:1.0;stroke-dasharray:2.0,2.0;" x1="1927.125" x2="3149.625" y1="1017.7594" y2="1017.7594"/><text fill="#000000" font-family="sans-serif" font-size="20" font-weight="bold" lengthAdjust="spacing" textLength="23.25" x="1939.125" y="1009.8994">20</text><text fill="#000000" font-family="sans-serif" font-size="20" lengthAdjust="spacing" textLength="41" x="1966.375" y="1009.8994">user</text><polygon fill="#181818" points="1290.5,1054.9994,1280.5,1058.9994,1290.5,1062.9994,1286.5,1058.9994" style="stroke:#181818;stroke-width:1.0;"/><line style="stroke:#181818;stroke-width:1.0;stroke-dasharray:2.0,2.0;" x1="1284.5" x2="1916.125" y1="1058.9994" y2="1058.9994"/><text fill="#000000" font-family="sans-serif" font-size="20" font-weight="bold" lengthAdjust="spacing" textLength="23.25" x="1296.5" y="1051.1394">21</text><text fill="#000000" font-family="sans-serif" font-size="20" lengthAdjust="spacing" textLength="41" x="1323.75" y="1051.1394">user</text><polygon fill="#181818" points="2968.625,1096.2393,2978.625,1100.2393,2968.625,1104.2393,2972.625,1100.2393" style="stroke:#181818;stroke-width:1.0;"/><line style="stroke:#181818;stroke-width:1.0;" x1="1279.5" x2="2974.625" y1="1100.2393" y2="1100.2393"/><text fill="#000000" font-family="sans-serif" font-size="20" font-weight="bold" lengthAdjust="spacing" textLength="23.25" x="1286.5" y="1092.3794">22</text><text fill="#000000" font-family="sans-serif" font-size="20" lengthAdjust="spacing" textLength="448" x="1313.75" y="1092.3794">board = boardRepository.ofIdentity(boardDto.id)</text><polygon fill="#181818" points="1290.5,1137.4793,1280.5,1141.4793,1290.5,1145.4793,1286.5,1141.4793" style="stroke:#181818;stroke-width:1.0;"/><line style="stroke:#181818;stroke-width:1.0;stroke-dasharray:2.0,2.0;" x1="1284.5" x2="2984.625" y1="1141.4793" y2="1141.4793"/><text fill="#000000" font-family="sans-serif" font-size="20" font-weight="bold" lengthAdjust="spacing" textLength="23.25" x="1296.5" y="1133.6193">23</text><text fill="#000000" font-family="sans-serif" font-size="20" lengthAdjust="spacing" textLength="55" x="1323.75" y="1133.6193">board</text><polygon fill="#181818" points="2085.625,1178.7193,2095.625,1182.7193,2085.625,1186.7193,2089.625,1182.7193" style="stroke:#181818;stroke-width:1.0;"/><line style="stroke:#181818;stroke-width:1.0;" x1="1279.5" x2="2091.625" y1="1182.7193" y2="1182.7193"/><text fill="#000000" font-family="sans-serif" font-size="20" font-weight="bold" lengthAdjust="spacing" textLength="23.25" x="1286.5" y="1174.8593">24</text><text fill="#000000" font-family="sans-serif" font-size="20" lengthAdjust="spacing" textLength="167" x="1313.75" y="1174.8593">permissions(user)</text><polygon fill="#181818" points="2341.125,1219.9593,2351.125,1223.9593,2341.125,1227.9593,2345.125,1223.9593" style="stroke:#181818;stroke-width:1.0;"/><line style="stroke:#181818;stroke-width:1.0;" x1="2107.625" x2="2347.125" y1="1223.9593" y2="1223.9593"/><text fill="#000000" font-family="sans-serif" font-size="20" font-weight="bold" lengthAdjust="spacing" textLength="23.25" x="2114.625" y="1216.0993">25</text><text fill="#000000" font-family="sans-serif" font-size="20" lengthAdjust="spacing" textLength="167" x="2141.875" y="1216.0993">permissions(user)</text><polygon fill="#181818" points="2118.625,1261.1992,2108.625,1265.1992,2118.625,1269.1992,2114.625,1265.1992" style="stroke:#181818;stroke-width:1.0;"/><line style="stroke:#181818;stroke-width:1.0;stroke-dasharray:2.0,2.0;" x1="2112.625" x2="2357.125" y1="1265.1992" y2="1265.1992"/><text fill="#000000" font-family="sans-serif" font-size="20" font-weight="bold" lengthAdjust="spacing" textLength="23.25" x="2124.625" y="1257.3393">26</text><text fill="#000000" font-family="sans-serif" font-size="20" lengthAdjust="spacing" textLength="114" x="2151.875" y="1257.3393">permissions</text><polygon fill="#181818" points="1290.5,1302.4392,1280.5,1306.4392,1290.5,1310.4392,1286.5,1306.4392" style="stroke:#181818;stroke-width:1.0;"/><line style="stroke:#181818;stroke-width:1.0;stroke-dasharray:2.0,2.0;" x1="1284.5" x2="2101.625" y1="1306.4392" y2="1306.4392"/><text fill="#000000" font-family="sans-serif" font-size="20" font-weight="bold" lengthAdjust="spacing" textLength="23.25" x="1296.5" y="1298.5792">27</text><text fill="#000000" font-family="sans-serif" font-size="20" lengthAdjust="spacing" textLength="114" x="1323.75" y="1298.5792">permissions</text><polygon fill="#181818" points="2771.125,1343.6792,2781.125,1347.6792,2771.125,1351.6792,2775.125,1347.6792" style="stroke:#181818;stroke-width:1.0;"/><line style="stroke:#181818;stroke-width:1.0;" x1="1279.5" x2="2777.125" y1="1347.6792" y2="1347.6792"/><text fill="#000000" font-family="sans-serif" font-size="20" font-weight="bold" lengthAdjust="spacing" textLength="23.25" x="1286.5" y="1339.8192">28</text><text fill="#000000" font-family="sans-serif" font-size="20" lengthAdjust="spacing" textLength="73" x="1313.75" y="1339.8192">toDTO()</text><polygon fill="#181818" points="1290.5,1384.9192,1280.5,1388.9192,1290.5,1392.9192,1286.5,1388.9192" style="stroke:#181818;stroke-width:1.0;"/><line style="stroke:#181818;stroke-width:1.0;stroke-dasharray:2.0,2.0;" x1="1284.5" x2="2787.125" y1="1388.9192" y2="1388.9192"/><text fill="#000000" font-family="sans-serif" font-size="20" font-weight="bold" lengthAdjust="spacing" textLength="23.25" x="1296.5" y="1381.0592">29</text><text fill="#000000" font-family="sans-serif" font-size="20" lengthAdjust="spacing" textLength="148" x="1323.75" y="1381.0592">permissionsDto</text><polygon fill="#181818" points="687.25,1426.1591,677.25,1430.1591,687.25,1434.1591,683.25,1430.1591" style="stroke:#181818;stroke-width:1.0;"/><line style="stroke:#181818;stroke-width:1.0;stroke-dasharray:2.0,2.0;" x1="681.25" x2="1268.5" y1="1430.1591" y2="1430.1591"/><text fill="#000000" font-family="sans-serif" font-size="20" font-weight="bold" lengthAdjust="spacing" textLength="23.25" x="693.25" y="1422.2992">30</text><text fill="#000000" font-family="sans-serif" font-size="20" lengthAdjust="spacing" textLength="148" x="720.5" y="1422.2992">permissionsDto</text><polygon fill="#181818" points="46,1467.3991,36,1471.3991,46,1475.3991,42,1471.3991" style="stroke:#181818;stroke-width:1.0;"/><line style="stroke:#181818;stroke-width:1.0;stroke-dasharray:2.0,2.0;" x1="40" x2="665.25" y1="1471.3991" y2="1471.3991"/><text fill="#000000" font-family="sans-serif" font-size="20" font-weight="bold" lengthAdjust="spacing" textLength="23.25" x="52" y="1463.5391">31</text><text fill="#000000" font-family="sans-serif" font-size="20" lengthAdjust="spacing" textLength="333" x="79.25" y="1463.5391">shows the current user permissions</text><polygon fill="#181818" points="654.25,1508.6391,664.25,1512.6391,654.25,1516.6391,658.25,1512.6391" style="stroke:#181818;stroke-width:1.0;"/><line style="stroke:#181818;stroke-width:1.0;" x1="35" x2="660.25" y1="1512.6391" y2="1512.6391"/><text fill="#000000" font-family="sans-serif" font-size="20" font-weight="bold" lengthAdjust="spacing" textLength="23.25" x="42" y="1504.7791">32</text><text fill="#000000" font-family="sans-serif" font-size="20" lengthAdjust="spacing" textLength="292" x="69.25" y="1504.7791">selects the desired permissions</text><polygon fill="#181818" points="1257.5,1549.8791,1267.5,1553.8791,1257.5,1557.8791,1261.5,1553.8791" style="stroke:#181818;stroke-width:1.0;"/><line style="stroke:#181818;stroke-width:1.0;" x1="676.25" x2="1263.5" y1="1553.8791" y2="1553.8791"/><text fill="#000000" font-family="sans-serif" font-size="20" font-weight="bold" lengthAdjust="spacing" textLength="23.25" x="683.25" y="1546.0191">33</text><text fill="#000000" font-family="sans-serif" font-size="20" lengthAdjust="spacing" textLength="542" x="710.5" y="1546.0191">updateUserPermissions(boardDto, username, permission)</text><polygon fill="#181818" points="2341.125,1591.119,2351.125,1595.119,2341.125,1599.119,2345.125,1595.119" style="stroke:#181818;stroke-width:1.0;"/><line style="stroke:#181818;stroke-width:1.0;" x1="1279.5" x2="2347.125" y1="1595.119" y2="1595.119"/><text fill="#000000" font-family="sans-serif" font-size="20" font-weight="bold" lengthAdjust="spacing" textLength="23.25" x="1286.5" y="1587.2591">34</text><text fill="#000000" font-family="sans-serif" font-size="20" lengthAdjust="spacing" textLength="232" x="1313.75" y="1587.2591">update(user, permission)</text><polygon fill="#181818" points="41,1662.359,31,1666.359,41,1670.359,37,1666.359" style="stroke:#181818;stroke-width:1.0;"/><line style="stroke:#181818;stroke-width:1.0;stroke-dasharray:2.0,2.0;" x1="35" x2="670.25" y1="1666.359" y2="1666.359"/><text fill="#000000" font-family="sans-serif" font-size="20" font-weight="bold" lengthAdjust="spacing" textLength="23.25" x="47" y="1658.499">35</text><text fill="#000000" font-family="sans-serif" font-size="20" lengthAdjust="spacing" textLength="246" x="74.25" y="1658.499">informs operation success</text><!--SRC=[ZLPDJ-Cm4BtxLrXSeDA2Ldki08clbIg1G2dTkvkuMuiaZcm7nFxwdR4TntRImgqTl_VcmpFZw3VHTaonffRb6wzenNUihyrlsPgr-CVfhv-4zKQsVRFbYX1M6gdeoKPpTKAPfXi2P2DAqR7Mq9FrdYb-AvcgDYjtlgANbvtYchU66I7Rw-j3Z3jmgMHTU-Mxr-8HkAphQb7EKX-5DfQfrrozYv9RtktpJN6_Blu0LpjppiFWdrZB_l86eegvctLnb6czEIy0gcJ3H3kdxiKUYgEe5wuQeJLaPl4l3yNJGRprVF_wx9p33qGQEISxeD3_KU3eNmySZ27ca8ePjcMQKnj0mJkf1NJ0PwXqyV02Q1KEW1Guw2IbO4mp36mhySuCK0ZPqFDhx9ib4DuqDP9gx17Aw1PZYB0hGX48SDiiIzhoZxC560C4xV2VEW00GtSiQJsqZ-y0UcNvspJHXQK7mO5lhQSmBTEJn9_lg2NjjKhzz4bnCZUEDdKIx8dLPfdN0jF32t0JOijo-ht2z2CBVovy6FCre2DpKC4BNjATQAkRkdP2Tue3ixhzn8WYrRooGFNsMFZo_3nMjZUaFIw_0LJmHxMK7Tt1kWB8tZVFH1k31aqZeUtFIjahpHS1DKgFKG4SEJWbOyDD2N0UsUCeuvEqWxoPjvMDVSZ3RSAX1kwEeXhCzI3QSVK2oRT38CntZeMcGyThNfemTMaRhk8nTKWTGISZQjKZSTYxN56pvxRPMjPmAdVX_pZpQB6Yz4EO_R4WhAAsX8fheU0f6wIpWF91wPDLwER_tiWVWJytEeU678A_YcRz0YtFkrK5uGdpUHPB9g9-iFsDUq4hxHRc4kfpG2LP6nOTscjupx3wGGZPq-4Pg7dF9RcH2QcORBnyKA4UsKgzY58PgdqXghbDEoQJ3a6aJuvkWH0LmBlnlJkms4WquVOvFaIAuaJSk5PiY5FgjDuHRKnjXfJiXoIbuQqUbbTMFt-S-nXPaIUu038J7z9dLic4-DLAqNlvuKQpx9M2ctU34gVwZVKIZtPAFV95q7VmDSAphvsP6VyHINxrLFhhTTAsANBsN7jCx_whieaM7gz6KmdYzWEOwhuikTOagrNyb_m7]--></g></svg>