<?xml version="1.0" encoding="UTF-8" standalone="no"?><svg xmlns="http://www.w3.org/2000/svg" xmlns:xlink="http://www.w3.org/1999/xlink" contentStyleType="text/css" height="958px" preserveAspectRatio="none" style="width:1071px;height:958px;background:#FFFFFF;" version="1.1" viewBox="0 0 1071 958" width="1071px" zoomAndPan="magnify"><defs/><g><!--class ShareBoardUI--><g id="elem_ShareBoardUI"><rect codeLine="2" fill="#F1F1F1" height="53.24" id="ShareBoardUI" rx="2.5" ry="2.5" style="stroke:#181818;stroke-width:0.5;" width="165" x="359" y="7"/><ellipse cx="375" cy="25.62" fill="#ADD1B2" rx="12" ry="12" style="stroke:#181818;stroke-width:1.0;"/><path d="M375.125,20.2137 Q374.0469,20.2137 373.1875,20.5887 Q372.3281,20.9481 371.7344,21.6512 Q371.1406,22.3387 370.8125,23.3544 Q370.5,24.37 370.5,25.6669 Q370.5,27.37 371.0156,28.6044 Q371.5313,29.8231 372.5469,30.4794 Q373.5625,31.12 375.1094,31.12 Q376.0156,31.12 376.8281,30.9637 Q377.6406,30.8075 378.8281,30.4481 L378.8281,32.6512 Q377.7969,33.0262 376.9219,33.1669 Q376.0469,33.3231 374.8438,33.3231 Q372.5625,33.3231 371.0313,32.3856 Q369.5,31.4325 368.7344,29.6981 Q367.9688,27.9481 367.9688,25.6512 Q367.9688,23.9794 368.4375,22.5887 Q368.9063,21.1981 369.8125,20.1669 Q370.7344,19.12 372.0781,18.5731 Q373.4219,18.0106 375.1406,18.0106 Q376.2813,18.0106 377.3281,18.245 Q378.3906,18.4637 379.4844,19.0262 L378.5156,21.0887 Q377.5938,20.6825 376.8125,20.4481 Q376.0313,20.2137 375.125,20.2137 Z " fill="#000000"/><text fill="#000000" font-family="sans-serif" font-size="20" lengthAdjust="spacing" textLength="131" x="390" y="33.38">ShareBoardUI</text><line style="stroke:#181818;stroke-width:0.5;" x1="360" x2="523" y1="44.24" y2="44.24"/><line style="stroke:#181818;stroke-width:0.5;" x1="360" x2="523" y1="52.24" y2="52.24"/></g><!--class ShareBoardController--><g id="elem_ShareBoardController"><rect codeLine="17" fill="#F1F1F1" height="298.3997" id="ShareBoardController" rx="2.5" ry="2.5" style="stroke:#181818;stroke-width:0.5;" width="472" x="205.5" y="120"/><ellipse cx="336" cy="138.62" fill="#ADD1B2" rx="12" ry="12" style="stroke:#181818;stroke-width:1.0;"/><path d="M336.125,133.2137 Q335.0469,133.2137 334.1875,133.5887 Q333.3281,133.9481 332.7344,134.6512 Q332.1406,135.3387 331.8125,136.3544 Q331.5,137.37 331.5,138.6669 Q331.5,140.37 332.0156,141.6044 Q332.5313,142.8231 333.5469,143.4794 Q334.5625,144.12 336.1094,144.12 Q337.0156,144.12 337.8281,143.9637 Q338.6406,143.8075 339.8281,143.4481 L339.8281,145.6512 Q338.7969,146.0262 337.9219,146.1669 Q337.0469,146.3231 335.8438,146.3231 Q333.5625,146.3231 332.0313,145.3856 Q330.5,144.4325 329.7344,142.6981 Q328.9688,140.9481 328.9688,138.6512 Q328.9688,136.9794 329.4375,135.5887 Q329.9063,134.1981 330.8125,133.1669 Q331.7344,132.12 333.0781,131.5731 Q334.4219,131.0106 336.1406,131.0106 Q337.2813,131.0106 338.3281,131.245 Q339.3906,131.4637 340.4844,132.0262 L339.5156,134.0887 Q338.5938,133.6825 337.8125,133.4481 Q337.0313,133.2137 336.125,133.2137 Z " fill="#000000"/><text fill="#000000" font-family="sans-serif" font-size="20" lengthAdjust="spacing" textLength="202" x="358" y="146.38">ShareBoardController</text><line style="stroke:#181818;stroke-width:0.5;" x1="206.5" x2="676.5" y1="157.24" y2="157.24"/><rect fill="none" height="6" style="stroke:#C82930;stroke-width:1.0;" width="6" x="213.5" y="173.36"/><text fill="#000000" font-family="sans-serif" font-size="20" lengthAdjust="spacing" textLength="247" x="226.5" y="182.62">AuthorizationService authz</text><rect fill="none" height="6" style="stroke:#C82930;stroke-width:1.0;" width="6" x="213.5" y="200.5999"/><text fill="#000000" font-family="sans-serif" font-size="20" lengthAdjust="spacing" textLength="346" x="226.5" y="209.8599">UserManagementService userService</text><rect fill="none" height="6" style="stroke:#C82930;stroke-width:1.0;" width="6" x="213.5" y="227.8399"/><text fill="#000000" font-family="sans-serif" font-size="20" lengthAdjust="spacing" textLength="328" x="226.5" y="237.0999">ListBoardsService listBoardsService</text><rect fill="none" height="6" style="stroke:#C82930;stroke-width:1.0;" width="6" x="213.5" y="255.0799"/><text fill="#000000" font-family="sans-serif" font-size="20" lengthAdjust="spacing" textLength="262" x="226.5" y="264.3399">BoardRepository boardRepo</text><line style="stroke:#181818;stroke-width:0.5;" x1="206.5" x2="676.5" y1="274.1999" y2="274.1999"/><ellipse cx="216.5" cy="293.3199" fill="#84BE84" rx="3" ry="3" style="stroke:#038048;stroke-width:1.0;"/><text fill="#000000" font-family="sans-serif" font-size="20" lengthAdjust="spacing" textLength="369" x="226.5" y="299.5799">ShareBoardController(BoardRepository)</text><text fill="#000000" font-family="sans-serif" font-size="20" lengthAdjust="spacing" textLength="5" x="226.5" y="326.8198"> </text><ellipse cx="216.5" cy="347.7998" fill="#84BE84" rx="3" ry="3" style="stroke:#038048;stroke-width:1.0;"/><text fill="#000000" font-family="sans-serif" font-size="20" lengthAdjust="spacing" textLength="149" x="226.5" y="354.0598">listUserBoards()</text><ellipse cx="216.5" cy="375.0398" fill="#84BE84" rx="3" ry="3" style="stroke:#038048;stroke-width:1.0;"/><text fill="#000000" font-family="sans-serif" font-size="20" lengthAdjust="spacing" textLength="263" x="226.5" y="381.2998">userPermission(board, user)</text><ellipse cx="216.5" cy="402.2798" fill="#84BE84" rx="3" ry="3" style="stroke:#038048;stroke-width:1.0;"/><text fill="#000000" font-family="sans-serif" font-size="20" lengthAdjust="spacing" textLength="445" x="226.5" y="408.5398">updateUserPermission(board, user, permission)</text></g><!--class AuthorizationService--><g id="elem_AuthorizationService"><rect codeLine="19" fill="#F1F1F1" height="80.4799" id="AuthorizationService" rx="2.5" ry="2.5" style="stroke:#181818;stroke-width:0.5;" width="225" x="54" y="478"/><ellipse cx="70" cy="496.62" fill="#ADD1B2" rx="12" ry="12" style="stroke:#181818;stroke-width:1.0;"/><path d="M70.125,491.2137 Q69.0469,491.2137 68.1875,491.5887 Q67.3281,491.9481 66.7344,492.6512 Q66.1406,493.3387 65.8125,494.3544 Q65.5,495.37 65.5,496.6669 Q65.5,498.37 66.0156,499.6044 Q66.5313,500.8231 67.5469,501.4794 Q68.5625,502.12 70.1094,502.12 Q71.0156,502.12 71.8281,501.9637 Q72.6406,501.8075 73.8281,501.4481 L73.8281,503.6512 Q72.7969,504.0262 71.9219,504.1669 Q71.0469,504.3231 69.8438,504.3231 Q67.5625,504.3231 66.0313,503.3856 Q64.5,502.4325 63.7344,500.6981 Q62.9688,498.9481 62.9688,496.6512 Q62.9688,494.9794 63.4375,493.5887 Q63.9063,492.1981 64.8125,491.1669 Q65.7344,490.12 67.0781,489.5731 Q68.4219,489.0106 70.1406,489.0106 Q71.2813,489.0106 72.3281,489.245 Q73.3906,489.4637 74.4844,490.0262 L73.5156,492.0887 Q72.5938,491.6825 71.8125,491.4481 Q71.0313,491.2137 70.125,491.2137 Z " fill="#000000"/><text fill="#000000" font-family="sans-serif" font-size="20" lengthAdjust="spacing" textLength="191" x="85" y="504.38">AuthorizationService</text><line style="stroke:#181818;stroke-width:0.5;" x1="55" x2="278" y1="515.24" y2="515.24"/><line style="stroke:#181818;stroke-width:0.5;" x1="55" x2="278" y1="523.24" y2="523.24"/><ellipse cx="65" cy="542.36" fill="#84BE84" rx="3" ry="3" style="stroke:#038048;stroke-width:1.0;"/><text fill="#000000" font-family="sans-serif" font-size="20" lengthAdjust="spacing" textLength="82" x="75" y="548.62">session()</text></g><!--class UserSession--><g id="elem_UserSession"><rect codeLine="23" fill="#F1F1F1" height="80.4799" id="UserSession" rx="2.5" ry="2.5" style="stroke:#181818;stroke-width:0.5;" width="211" x="7" y="618"/><ellipse cx="50.9" cy="636.62" fill="#ADD1B2" rx="12" ry="12" style="stroke:#181818;stroke-width:1.0;"/><path d="M51.025,631.2137 Q49.9469,631.2137 49.0875,631.5887 Q48.2281,631.9481 47.6344,632.6512 Q47.0406,633.3387 46.7125,634.3544 Q46.4,635.37 46.4,636.6669 Q46.4,638.37 46.9156,639.6044 Q47.4313,640.8231 48.4469,641.4794 Q49.4625,642.12 51.0094,642.12 Q51.9156,642.12 52.7281,641.9637 Q53.5406,641.8075 54.7281,641.4481 L54.7281,643.6512 Q53.6969,644.0262 52.8219,644.1669 Q51.9469,644.3231 50.7438,644.3231 Q48.4625,644.3231 46.9313,643.3856 Q45.4,642.4325 44.6344,640.6981 Q43.8688,638.9481 43.8688,636.6512 Q43.8688,634.9794 44.3375,633.5887 Q44.8063,632.1981 45.7125,631.1669 Q46.6344,630.12 47.9781,629.5731 Q49.3219,629.0106 51.0406,629.0106 Q52.1813,629.0106 53.2281,629.245 Q54.2906,629.4637 55.3844,630.0262 L54.4156,632.0887 Q53.4938,631.6825 52.7125,631.4481 Q51.9313,631.2137 51.025,631.2137 Z " fill="#000000"/><text fill="#000000" font-family="sans-serif" font-size="20" lengthAdjust="spacing" textLength="115" x="72.1" y="644.38">UserSession</text><line style="stroke:#181818;stroke-width:0.5;" x1="8" x2="217" y1="655.24" y2="655.24"/><line style="stroke:#181818;stroke-width:0.5;" x1="8" x2="217" y1="663.24" y2="663.24"/><ellipse cx="18" cy="682.36" fill="#84BE84" rx="3" ry="3" style="stroke:#038048;stroke-width:1.0;"/><text fill="#000000" font-family="sans-serif" font-size="20" lengthAdjust="spacing" textLength="184" x="28" y="688.62">authenticatedUser()</text></g><!--class SystemUser--><g id="elem_SystemUser"><rect codeLine="27" fill="#F1F1F1" height="80.4799" id="SystemUser" rx="2.5" ry="2.5" style="stroke:#181818;stroke-width:0.5;" width="146" x="177.5" y="758"/><ellipse cx="193.5" cy="776.62" fill="#ADD1B2" rx="12" ry="12" style="stroke:#181818;stroke-width:1.0;"/><path d="M193.625,771.2137 Q192.5469,771.2137 191.6875,771.5887 Q190.8281,771.9481 190.2344,772.6512 Q189.6406,773.3387 189.3125,774.3544 Q189,775.37 189,776.6669 Q189,778.37 189.5156,779.6044 Q190.0313,780.8231 191.0469,781.4794 Q192.0625,782.12 193.6094,782.12 Q194.5156,782.12 195.3281,781.9637 Q196.1406,781.8075 197.3281,781.4481 L197.3281,783.6512 Q196.2969,784.0262 195.4219,784.1669 Q194.5469,784.3231 193.3438,784.3231 Q191.0625,784.3231 189.5313,783.3856 Q188,782.4325 187.2344,780.6981 Q186.4688,778.9481 186.4688,776.6512 Q186.4688,774.9794 186.9375,773.5887 Q187.4063,772.1981 188.3125,771.1669 Q189.2344,770.12 190.5781,769.5731 Q191.9219,769.0106 193.6406,769.0106 Q194.7813,769.0106 195.8281,769.245 Q196.8906,769.4637 197.9844,770.0262 L197.0156,772.0887 Q196.0938,771.6825 195.3125,771.4481 Q194.5313,771.2137 193.625,771.2137 Z " fill="#000000"/><text fill="#000000" font-family="sans-serif" font-size="20" lengthAdjust="spacing" textLength="112" x="208.5" y="784.38">SystemUser</text><line style="stroke:#181818;stroke-width:0.5;" x1="178.5" x2="322.5" y1="795.24" y2="795.24"/><ellipse cx="188.5" cy="814.36" fill="none" rx="3" ry="3" style="stroke:#038048;stroke-width:1.0;"/><text fill="#000000" font-family="sans-serif" font-size="20" lengthAdjust="spacing" textLength="94" x="198.5" y="820.62">username</text><line style="stroke:#181818;stroke-width:0.5;" x1="178.5" x2="322.5" y1="830.4799" y2="830.4799"/></g><!--class UserManagementService--><g id="elem_UserManagementService"><rect codeLine="31" fill="#F1F1F1" height="80.4799" id="UserManagementService" rx="2.5" ry="2.5" style="stroke:#181818;stroke-width:0.5;" width="268" x="253.5" y="618"/><ellipse cx="269.5" cy="636.62" fill="#ADD1B2" rx="12" ry="12" style="stroke:#181818;stroke-width:1.0;"/><path d="M269.625,631.2137 Q268.5469,631.2137 267.6875,631.5887 Q266.8281,631.9481 266.2344,632.6512 Q265.6406,633.3387 265.3125,634.3544 Q265,635.37 265,636.6669 Q265,638.37 265.5156,639.6044 Q266.0313,640.8231 267.0469,641.4794 Q268.0625,642.12 269.6094,642.12 Q270.5156,642.12 271.3281,641.9637 Q272.1406,641.8075 273.3281,641.4481 L273.3281,643.6512 Q272.2969,644.0262 271.4219,644.1669 Q270.5469,644.3231 269.3438,644.3231 Q267.0625,644.3231 265.5313,643.3856 Q264,642.4325 263.2344,640.6981 Q262.4688,638.9481 262.4688,636.6512 Q262.4688,634.9794 262.9375,633.5887 Q263.4063,632.1981 264.3125,631.1669 Q265.2344,630.12 266.5781,629.5731 Q267.9219,629.0106 269.6406,629.0106 Q270.7813,629.0106 271.8281,629.245 Q272.8906,629.4637 273.9844,630.0262 L273.0156,632.0887 Q272.0938,631.6825 271.3125,631.4481 Q270.5313,631.2137 269.625,631.2137 Z " fill="#000000"/><text fill="#000000" font-family="sans-serif" font-size="20" lengthAdjust="spacing" textLength="234" x="284.5" y="644.38">UserManagementService</text><line style="stroke:#181818;stroke-width:0.5;" x1="254.5" x2="520.5" y1="655.24" y2="655.24"/><line style="stroke:#181818;stroke-width:0.5;" x1="254.5" x2="520.5" y1="663.24" y2="663.24"/><ellipse cx="264.5" cy="682.36" fill="#84BE84" rx="3" ry="3" style="stroke:#038048;stroke-width:1.0;"/><text fill="#000000" font-family="sans-serif" font-size="20" lengthAdjust="spacing" textLength="87" x="274.5" y="688.62">allUsers()</text></g><!--class UserPermissionDTO--><g id="elem_UserPermissionDTO"><rect codeLine="35" fill="#F1F1F1" height="53.24" id="UserPermissionDTO" rx="2.5" ry="2.5" style="stroke:#181818;stroke-width:0.5;" width="224" x="412.5" y="491.5"/><ellipse cx="428.5" cy="510.12" fill="#ADD1B2" rx="12" ry="12" style="stroke:#181818;stroke-width:1.0;"/><path d="M428.625,504.7137 Q427.5469,504.7137 426.6875,505.0887 Q425.8281,505.4481 425.2344,506.1512 Q424.6406,506.8387 424.3125,507.8544 Q424,508.87 424,510.1669 Q424,511.87 424.5156,513.1044 Q425.0313,514.3231 426.0469,514.9794 Q427.0625,515.62 428.6094,515.62 Q429.5156,515.62 430.3281,515.4637 Q431.1406,515.3075 432.3281,514.9481 L432.3281,517.1512 Q431.2969,517.5262 430.4219,517.6669 Q429.5469,517.8231 428.3438,517.8231 Q426.0625,517.8231 424.5313,516.8856 Q423,515.9325 422.2344,514.1981 Q421.4688,512.4481 421.4688,510.1512 Q421.4688,508.4794 421.9375,507.0887 Q422.4063,505.6981 423.3125,504.6669 Q424.2344,503.62 425.5781,503.0731 Q426.9219,502.5106 428.6406,502.5106 Q429.7813,502.5106 430.8281,502.745 Q431.8906,502.9637 432.9844,503.5262 L432.0156,505.5887 Q431.0938,505.1825 430.3125,504.9481 Q429.5313,504.7137 428.625,504.7137 Z " fill="#000000"/><text fill="#000000" font-family="sans-serif" font-size="20" lengthAdjust="spacing" textLength="190" x="443.5" y="517.88">UserPermissionDTO</text><line style="stroke:#181818;stroke-width:0.5;" x1="413.5" x2="635.5" y1="528.74" y2="528.74"/><line style="stroke:#181818;stroke-width:0.5;" x1="413.5" x2="635.5" y1="536.74" y2="536.74"/></g><!--class PersistenceContext--><g id="elem_PersistenceContext"><rect codeLine="37" fill="#F1F1F1" height="80.4799" id="PersistenceContext" rx="2.5" ry="2.5" style="stroke:#181818;stroke-width:0.5;" width="214" x="671.5" y="478"/><ellipse cx="687.5" cy="496.62" fill="#ADD1B2" rx="12" ry="12" style="stroke:#181818;stroke-width:1.0;"/><path d="M687.625,491.2137 Q686.5469,491.2137 685.6875,491.5887 Q684.8281,491.9481 684.2344,492.6512 Q683.6406,493.3387 683.3125,494.3544 Q683,495.37 683,496.6669 Q683,498.37 683.5156,499.6044 Q684.0313,500.8231 685.0469,501.4794 Q686.0625,502.12 687.6094,502.12 Q688.5156,502.12 689.3281,501.9637 Q690.1406,501.8075 691.3281,501.4481 L691.3281,503.6512 Q690.2969,504.0262 689.4219,504.1669 Q688.5469,504.3231 687.3438,504.3231 Q685.0625,504.3231 683.5313,503.3856 Q682,502.4325 681.2344,500.6981 Q680.4688,498.9481 680.4688,496.6512 Q680.4688,494.9794 680.9375,493.5887 Q681.4063,492.1981 682.3125,491.1669 Q683.2344,490.12 684.5781,489.5731 Q685.9219,489.0106 687.6406,489.0106 Q688.7813,489.0106 689.8281,489.245 Q690.8906,489.4637 691.9844,490.0262 L691.0156,492.0887 Q690.0938,491.6825 689.3125,491.4481 Q688.5313,491.2137 687.625,491.2137 Z " fill="#000000"/><text fill="#000000" font-family="sans-serif" font-size="20" lengthAdjust="spacing" textLength="180" x="702.5" y="504.38">PersistenceContext</text><line style="stroke:#181818;stroke-width:0.5;" x1="672.5" x2="884.5" y1="515.24" y2="515.24"/><line style="stroke:#181818;stroke-width:0.5;" x1="672.5" x2="884.5" y1="523.24" y2="523.24"/><ellipse cx="682.5" cy="542.36" fill="#84BE84" rx="3" ry="3" style="stroke:#038048;stroke-width:1.0;"/><text fill="#000000" font-family="sans-serif" font-size="20" lengthAdjust="spacing" textLength="123" x="692.5" y="548.62">repositories()</text></g><!--class RepositoryFactory--><g id="elem_RepositoryFactory"><rect codeLine="41" fill="#F1F1F1" height="80.4799" id="RepositoryFactory" rx="2.5" ry="2.5" style="stroke:#181818;stroke-width:0.5;" width="206" x="675.5" y="618"/><ellipse cx="693.75" cy="636.62" fill="#ADD1B2" rx="12" ry="12" style="stroke:#181818;stroke-width:1.0;"/><path d="M693.875,631.2137 Q692.7969,631.2137 691.9375,631.5887 Q691.0781,631.9481 690.4844,632.6512 Q689.8906,633.3387 689.5625,634.3544 Q689.25,635.37 689.25,636.6669 Q689.25,638.37 689.7656,639.6044 Q690.2813,640.8231 691.2969,641.4794 Q692.3125,642.12 693.8594,642.12 Q694.7656,642.12 695.5781,641.9637 Q696.3906,641.8075 697.5781,641.4481 L697.5781,643.6512 Q696.5469,644.0262 695.6719,644.1669 Q694.7969,644.3231 693.5938,644.3231 Q691.3125,644.3231 689.7813,643.3856 Q688.25,642.4325 687.4844,640.6981 Q686.7188,638.9481 686.7188,636.6512 Q686.7188,634.9794 687.1875,633.5887 Q687.6563,632.1981 688.5625,631.1669 Q689.4844,630.12 690.8281,629.5731 Q692.1719,629.0106 693.8906,629.0106 Q695.0313,629.0106 696.0781,629.245 Q697.1406,629.4637 698.2344,630.0262 L697.2656,632.0887 Q696.3438,631.6825 695.5625,631.4481 Q694.7813,631.2137 693.875,631.2137 Z " fill="#000000"/><text fill="#000000" font-family="sans-serif" font-size="20" lengthAdjust="spacing" textLength="167" x="709.25" y="644.38">RepositoryFactory</text><line style="stroke:#181818;stroke-width:0.5;" x1="676.5" x2="880.5" y1="655.24" y2="655.24"/><line style="stroke:#181818;stroke-width:0.5;" x1="676.5" x2="880.5" y1="663.24" y2="663.24"/><ellipse cx="686.5" cy="682.36" fill="#84BE84" rx="3" ry="3" style="stroke:#038048;stroke-width:1.0;"/><text fill="#000000" font-family="sans-serif" font-size="20" lengthAdjust="spacing" textLength="179" x="696.5" y="688.62">RepositoryFactory()</text></g><!--class BoardRepository--><g id="elem_BoardRepository"><rect codeLine="45" fill="#F1F1F1" height="80.4799" id="BoardRepository" rx="2.5" ry="2.5" style="stroke:#181818;stroke-width:0.5;" width="388" x="584.5" y="758"/><ellipse cx="700.5" cy="776.62" fill="#B4A7E5" rx="12" ry="12" style="stroke:#181818;stroke-width:1.0;"/><path d="M703.0781,784.12 L697.2969,784.12 L697.2969,782.5106 L698.9844,782.1356 L698.9844,771.2137 L697.2969,770.8231 L697.2969,769.2137 L703.0781,769.2137 L703.0781,770.8231 L701.4063,771.2137 L701.4063,782.1356 L703.0781,782.5106 L703.0781,784.12 Z " fill="#000000"/><text fill="#000000" font-family="sans-serif" font-size="20" font-style="italic" lengthAdjust="spacing" textLength="147" x="722.5" y="784.38">BoardRepository</text><line style="stroke:#181818;stroke-width:0.5;" x1="585.5" x2="971.5" y1="795.24" y2="795.24"/><line style="stroke:#181818;stroke-width:0.5;" x1="585.5" x2="971.5" y1="803.24" y2="803.24"/><ellipse cx="595.5" cy="822.36" fill="#84BE84" rx="3" ry="3" style="stroke:#038048;stroke-width:1.0;"/><text fill="#000000" font-family="sans-serif" font-size="20" lengthAdjust="spacing" textLength="361" x="605.5" y="828.62">findAllBoardCreatedByUser(username)</text></g><!--class JpaBoardRepository--><g id="elem_JpaBoardRepository"><rect codeLine="49" fill="#F1F1F1" height="53.24" id="JpaBoardRepository" rx="2.5" ry="2.5" style="stroke:#181818;stroke-width:0.5;" width="217" x="526" y="898"/><ellipse cx="542" cy="916.62" fill="#ADD1B2" rx="12" ry="12" style="stroke:#181818;stroke-width:1.0;"/><path d="M542.125,911.2137 Q541.0469,911.2137 540.1875,911.5887 Q539.3281,911.9481 538.7344,912.6512 Q538.1406,913.3387 537.8125,914.3544 Q537.5,915.37 537.5,916.6669 Q537.5,918.37 538.0156,919.6044 Q538.5313,920.8231 539.5469,921.4794 Q540.5625,922.12 542.1094,922.12 Q543.0156,922.12 543.8281,921.9637 Q544.6406,921.8075 545.8281,921.4481 L545.8281,923.6512 Q544.7969,924.0262 543.9219,924.1669 Q543.0469,924.3231 541.8438,924.3231 Q539.5625,924.3231 538.0313,923.3856 Q536.5,922.4325 535.7344,920.6981 Q534.9688,918.9481 534.9688,916.6512 Q534.9688,914.9794 535.4375,913.5887 Q535.9063,912.1981 536.8125,911.1669 Q537.7344,910.12 539.0781,909.5731 Q540.4219,909.0106 542.1406,909.0106 Q543.2813,909.0106 544.3281,909.245 Q545.3906,909.4637 546.4844,910.0262 L545.5156,912.0887 Q544.5938,911.6825 543.8125,911.4481 Q543.0313,911.2137 542.125,911.2137 Z " fill="#000000"/><text fill="#000000" font-family="sans-serif" font-size="20" lengthAdjust="spacing" textLength="183" x="557" y="924.38">JpaBoardRepository</text><line style="stroke:#181818;stroke-width:0.5;" x1="527" x2="742" y1="935.24" y2="935.24"/><line style="stroke:#181818;stroke-width:0.5;" x1="527" x2="742" y1="943.24" y2="943.24"/></g><!--class InMemoryBoardRepository--><g id="elem_InMemoryBoardRepository"><rect codeLine="50" fill="#F1F1F1" height="53.24" id="InMemoryBoardRepository" rx="2.5" ry="2.5" style="stroke:#181818;stroke-width:0.5;" width="286" x="778.5" y="898"/><ellipse cx="794.5" cy="916.62" fill="#ADD1B2" rx="12" ry="12" style="stroke:#181818;stroke-width:1.0;"/><path d="M794.625,911.2137 Q793.5469,911.2137 792.6875,911.5887 Q791.8281,911.9481 791.2344,912.6512 Q790.6406,913.3387 790.3125,914.3544 Q790,915.37 790,916.6669 Q790,918.37 790.5156,919.6044 Q791.0313,920.8231 792.0469,921.4794 Q793.0625,922.12 794.6094,922.12 Q795.5156,922.12 796.3281,921.9637 Q797.1406,921.8075 798.3281,921.4481 L798.3281,923.6512 Q797.2969,924.0262 796.4219,924.1669 Q795.5469,924.3231 794.3438,924.3231 Q792.0625,924.3231 790.5313,923.3856 Q789,922.4325 788.2344,920.6981 Q787.4688,918.9481 787.4688,916.6512 Q787.4688,914.9794 787.9375,913.5887 Q788.4063,912.1981 789.3125,911.1669 Q790.2344,910.12 791.5781,909.5731 Q792.9219,909.0106 794.6406,909.0106 Q795.7813,909.0106 796.8281,909.245 Q797.8906,909.4637 798.9844,910.0262 L798.0156,912.0887 Q797.0938,911.6825 796.3125,911.4481 Q795.5313,911.2137 794.625,911.2137 Z " fill="#000000"/><text fill="#000000" font-family="sans-serif" font-size="20" lengthAdjust="spacing" textLength="252" x="809.5" y="924.38">InMemoryBoardRepository</text><line style="stroke:#181818;stroke-width:0.5;" x1="779.5" x2="1063.5" y1="935.24" y2="935.24"/><line style="stroke:#181818;stroke-width:0.5;" x1="779.5" x2="1063.5" y1="943.24" y2="943.24"/></g><!--link ShareBoardUI to ShareBoardController--><g id="link_ShareBoardUI_ShareBoardController"><path codeLine="52" d="M441.5,60.38 C441.5,74.37 441.5,92.91 441.5,113.18 " fill="none" id="ShareBoardUI-to-ShareBoardController" style="stroke:#181818;stroke-width:1.0;stroke-dasharray:7.0,7.0;"/><polygon fill="#181818" points="441.5,118,445.5,109,441.5,113,437.5,109,441.5,118" style="stroke:#181818;stroke-width:1.0;"/></g><!--link ShareBoardController to AuthorizationService--><g id="link_ShareBoardController_AuthorizationService"><path codeLine="54" d="M276.37,418.31 C253.97,438.43 232.6,457.63 214.75,473.66 " fill="none" id="ShareBoardController-to-AuthorizationService" style="stroke:#181818;stroke-width:1.0;"/><polygon fill="#181818" points="211.41,476.66,220.782,473.6324,215.1336,473.3231,215.4429,467.6747,211.41,476.66" style="stroke:#181818;stroke-width:1.0;"/></g><!--link ShareBoardController to UserManagementService--><g id="link_ShareBoardController_UserManagementService"><path codeLine="55" d="M404.53,418.25 C400.57,438.23 397.06,458.55 394.5,478 C388.56,523.18 387.13,575.28 386.99,611.58 " fill="none" id="ShareBoardController-to-UserManagementService" style="stroke:#181818;stroke-width:1.0;"/><polygon fill="#181818" points="386.98,616.2,391.0057,607.2115,386.9943,611.2,383.0057,607.1886,386.98,616.2" style="stroke:#181818;stroke-width:1.0;"/></g><!--link ShareBoardController to PersistenceContext--><g id="link_ShareBoardController_PersistenceContext"><path codeLine="56" d="M643.86,418.31 C671.42,438.52 697.73,457.8 719.65,473.87 " fill="none" id="ShareBoardController-to-PersistenceContext" style="stroke:#181818;stroke-width:1.0;stroke-dasharray:7.0,7.0;"/><polygon fill="#181818" points="723.62,476.77,718.7318,468.2199,719.5893,473.8113,713.9979,474.6689,723.62,476.77" style="stroke:#181818;stroke-width:1.0;"/></g><!--link ShareBoardController to UserPermissionDTO--><g id="link_ShareBoardController_UserPermissionDTO"><path codeLine="57" d="M491.34,418.31 C499.81,443.54 507.81,467.32 513.82,485.21 " fill="none" id="ShareBoardController-to-UserPermissionDTO" style="stroke:#181818;stroke-width:1.0;stroke-dasharray:7.0,7.0;"/><polygon fill="#181818" points="515.3,489.62,516.2309,479.8152,513.7103,484.8795,508.6461,482.3588,515.3,489.62" style="stroke:#181818;stroke-width:1.0;"/></g><!--link AuthorizationService to UserSession--><g id="link_AuthorizationService_UserSession"><path codeLine="59" d="M151.17,558.18 C144.61,574.93 136.92,594.59 130.13,611.94 " fill="none" id="AuthorizationService-to-UserSession" style="stroke:#181818;stroke-width:1.0;stroke-dasharray:7.0,7.0;"/><polygon fill="#181818" points="128.42,616.32,135.4326,609.4045,130.2474,611.6659,127.986,606.4807,128.42,616.32" style="stroke:#181818;stroke-width:1.0;"/></g><!--link UserSession to SystemUser--><g id="link_UserSession_SystemUser"><path codeLine="61" d="M151.68,698.18 C168.87,715.37 189.11,735.61 206.79,753.29 " fill="none" id="UserSession-to-SystemUser" style="stroke:#181818;stroke-width:1.0;stroke-dasharray:7.0,7.0;"/><polygon fill="#181818" points="210.16,756.66,206.6245,747.4676,206.6245,753.1245,200.9676,753.1245,210.16,756.66" style="stroke:#181818;stroke-width:1.0;"/></g><!--link UserManagementService to SystemUser--><g id="link_UserManagementService_SystemUser"><path codeLine="62" d="M348.61,698.18 C331.54,715.37 311.44,735.61 293.89,753.29 " fill="none" id="UserManagementService-to-SystemUser" style="stroke:#181818;stroke-width:1.0;stroke-dasharray:7.0,7.0;"/><polygon fill="#181818" points="290.56,756.65,299.7452,753.0959,294.0884,753.1073,294.077,747.4505,290.56,756.65" style="stroke:#181818;stroke-width:1.0;"/></g><!--link PersistenceContext to RepositoryFactory--><g id="link_PersistenceContext_RepositoryFactory"><path codeLine="64" d="M778.5,558.18 C778.5,574.78 778.5,594.24 778.5,611.48 " fill="none" id="PersistenceContext-to-RepositoryFactory" style="stroke:#181818;stroke-width:1.0;stroke-dasharray:7.0,7.0;"/><polygon fill="#181818" points="778.5,616.21,782.5,607.21,778.5,611.21,774.5,607.21,778.5,616.21" style="stroke:#181818;stroke-width:1.0;"/></g><!--link RepositoryFactory to BoardRepository--><g id="link_RepositoryFactory_BoardRepository"><path codeLine="66" d="M778.5,698.18 C778.5,714.78 778.5,734.24 778.5,751.48 " fill="none" id="RepositoryFactory-to-BoardRepository" style="stroke:#181818;stroke-width:1.0;stroke-dasharray:7.0,7.0;"/><polygon fill="#181818" points="778.5,756.21,782.5,747.21,778.5,751.21,774.5,747.21,778.5,756.21" style="stroke:#181818;stroke-width:1.0;"/></g><!--reverse link BoardRepository to JpaBoardRepository--><g id="link_BoardRepository_JpaBoardRepository"><path codeLine="68" d="M716.94,852.23 C698.71,867.98 679.58,884.53 664.34,897.7 " fill="none" id="BoardRepository-backto-JpaBoardRepository" style="stroke:#181818;stroke-width:1.0;"/><polygon fill="none" points="712.08,847.17,731.79,839.38,721.24,857.76,712.08,847.17" style="stroke:#181818;stroke-width:1.0;"/></g><!--reverse link BoardRepository to InMemoryBoardRepository--><g id="link_BoardRepository_InMemoryBoardRepository"><path codeLine="69" d="M839.91,852.47 C857.92,868.15 876.81,884.59 891.87,897.7 " fill="none" id="BoardRepository-backto-InMemoryBoardRepository" style="stroke:#181818;stroke-width:1.0;"/><polygon fill="none" points="835.38,857.8,824.89,839.39,844.57,847.24,835.38,857.8" style="stroke:#181818;stroke-width:1.0;"/></g><!--SRC=[XLFHJi8m57s_Nz57Y8mOdmq9Q4Wm4erp7r2tYpHqwz8M8o3_RjjrEDOklh5pJy-zzvoBsh6gffAMNEGxB4Y16xhdUYagdR8ZahjRW9nJfKYwfH8NWieYMv7JEOGVp1ifE4T9Ja18GkPxlHMI7QbceafHVh4S2JNWqPKpXN9DA_g99PfklhutgF_jMCzCQIUlMWRl8uxda3UiXM9Qo0FvQB_1b6-YOuvwRyODrUhRsPeUex43xLYlA4kcb5bcvDGd3lNrkg0Qiq7MXDGNV0p_k7SfHnqykOOAcnuTiSnPvs1FicORRrbkPYjikKjF3qfZQL7FjdDMjCHhnJ0YhysvBQl-17_xFxw_T7Onk3BEOfMZtHM_jHUIRG0ChyJ-WbdIt6NQy0EyUSICfjnGCr__59fd6rOLSyuRioLQHnO7vqcxTwVtKqq3bRElhQerbWQ94E3gJpATpg81TscTs9Da5Wryc1sD9qwtiuG937E3906YnzXo_Tq1T8_G6N2vCeXVKuy4aJknb21rWF10BB4N2q0_f_kV98a47ESDX0s_]--></g></svg>