<?xml version="1.0" encoding="UTF-8" standalone="no"?><svg xmlns="http://www.w3.org/2000/svg" xmlns:xlink="http://www.w3.org/1999/xlink" contentStyleType="text/css" height="1472px" preserveAspectRatio="none" style="width:2272px;height:1472px;background:#FFFFFF;" version="1.1" viewBox="0 0 2272 1472" width="2272px" zoomAndPan="magnify"><defs/><g><rect fill="#FFFFFF" height="1255.4166" style="stroke:#181818;stroke-width:1.0;" width="10" x="18.5" y="99.1358"/><rect fill="#FFFFFF" height="504.1782" style="stroke:#181818;stroke-width:1.0;" width="10" x="443.5" y="122.8419"/><rect fill="#FFFFFF" height="31.706" style="stroke:#181818;stroke-width:1.0;" width="10" x="443.5" y="658.7261"/><rect fill="#FFFFFF" height="475.5902" style="stroke:#181818;stroke-width:1.0;" width="10" x="443.5" y="722.1381"/><rect fill="#FFFFFF" height="125.118" style="stroke:#181818;stroke-width:1.0;" width="10" x="443.5" y="1229.4344"/><rect fill="#FFFFFF" height="123.412" style="stroke:#181818;stroke-width:1.0;" width="10" x="837.5" y="154.5479"/><rect fill="#FFFFFF" height="285.6481" style="stroke:#181818;stroke-width:1.0;" width="10" x="837.5" y="309.6659"/><rect fill="#FFFFFF" height="412.1782" style="stroke:#181818;stroke-width:1.0;" width="10" x="837.5" y="753.8441"/><rect fill="#FFFFFF" height="61.706" style="stroke:#181818;stroke-width:1.0;" width="10" x="837.5" y="1261.1404"/><rect fill="#FFFFFF" height="30" style="stroke:#181818;stroke-width:1.0;" width="10" x="1119.5" y="186.2539"/><rect fill="#FFFFFF" height="222.2361" style="stroke:#181818;stroke-width:1.0;" width="10" x="1119.5" y="341.3719"/><rect fill="#FFFFFF" height="30" style="stroke:#181818;stroke-width:1.0;" width="10" x="1287" y="247.9599"/><rect fill="#FFFFFF" height="95.118" style="stroke:#181818;stroke-width:1.0;" width="10" x="1287" y="785.5501"/><rect fill="#FFFFFF" height="61.706" style="stroke:#181818;stroke-width:1.0;" width="10" x="1426.5" y="463.196"/><rect fill="#FFFFFF" height="95.118" style="stroke:#181818;stroke-width:1.0;" width="10" x="1426.5" y="975.7862"/><rect fill="#FFFFFF" height="31.706" style="stroke:#181818;stroke-width:1.0;" width="10" x="1620" y="1007.4923"/><rect fill="#FFFFFF" height="30" style="stroke:#181818;stroke-width:1.0;" width="10" x="1620" y="1292.8464"/><rect fill="#FFFFFF" height="30" style="stroke:#181818;stroke-width:1.0;" width="10" x="1731" y="494.902"/><rect fill="#FFFFFF" height="31.706" style="stroke:#181818;stroke-width:1.0;" width="10" x="1944" y="1102.6103"/><rect fill="#FFFFFF" height="31.706" style="stroke:#181818;stroke-width:1.0;" width="10" x="2090" y="373.0779"/><rect fill="#FFFFFF" height="31.706" style="stroke:#181818;stroke-width:1.0;" width="10" x="2090" y="912.3742"/><rect fill="#FFFFFF" height="31.706" style="stroke:#181818;stroke-width:1.0;" width="10" x="2212.5" y="817.2562"/><rect fill="none" height="113.118" style="stroke:#000000;stroke-width:1.5;" width="739" x="1048.5" y="419.784"/><line style="stroke:#181818;stroke-width:0.5;stroke-dasharray:5.0,5.0;" x1="23" x2="23" y1="89.1358" y2="1372.5524"/><line style="stroke:#181818;stroke-width:0.5;stroke-dasharray:5.0,5.0;" x1="448.5" x2="448.5" y1="89.1358" y2="1372.5524"/><line style="stroke:#181818;stroke-width:0.5;stroke-dasharray:5.0,5.0;" x1="842.5" x2="842.5" y1="89.1358" y2="1372.5524"/><line style="stroke:#181818;stroke-width:0.5;stroke-dasharray:5.0,5.0;" x1="1124.5" x2="1124.5" y1="89.1358" y2="1372.5524"/><line style="stroke:#181818;stroke-width:0.5;stroke-dasharray:5.0,5.0;" x1="1291.5" x2="1291.5" y1="89.1358" y2="1372.5524"/><line style="stroke:#181818;stroke-width:0.5;stroke-dasharray:5.0,5.0;" x1="1431.5" x2="1431.5" y1="89.1358" y2="1372.5524"/><line style="stroke:#181818;stroke-width:0.5;stroke-dasharray:5.0,5.0;" x1="1517.5" x2="1517.5" y1="89.1358" y2="1372.5524"/><line style="stroke:#181818;stroke-width:0.5;stroke-dasharray:5.0,5.0;" x1="1624.5" x2="1624.5" y1="89.1358" y2="1372.5524"/><line style="stroke:#181818;stroke-width:0.5;stroke-dasharray:5.0,5.0;" x1="1735.5" x2="1735.5" y1="89.1358" y2="1372.5524"/><line style="stroke:#181818;stroke-width:0.5;stroke-dasharray:5.0,5.0;" x1="1824.5" x2="1824.5" y1="89.1358" y2="1372.5524"/><line style="stroke:#181818;stroke-width:0.5;stroke-dasharray:5.0,5.0;" x1="1948.5" x2="1948.5" y1="89.1358" y2="1372.5524"/><line style="stroke:#181818;stroke-width:0.5;stroke-dasharray:5.0,5.0;" x1="2094.5" x2="2094.5" y1="89.1358" y2="1372.5524"/><line style="stroke:#181818;stroke-width:0.5;stroke-dasharray:5.0,5.0;" x1="2217.5" x2="2217.5" y1="89.1358" y2="1372.5524"/><text fill="#000000" font-family="sans-serif" font-size="14" lengthAdjust="spacing" textLength="31" x="5" y="85.0339">User</text><ellipse cx="23.5" cy="18.5679" fill="#E2E2F0" rx="8" ry="8" style="stroke:#181818;stroke-width:0.5;"/><path d="M23.5,26.5679 L23.5,53.5679 M10.5,34.5679 L36.5,34.5679 M23.5,53.5679 L10.5,68.5679 M23.5,53.5679 L36.5,68.5679 " fill="none" style="stroke:#181818;stroke-width:0.5;"/><text fill="#000000" font-family="sans-serif" font-size="14" lengthAdjust="spacing" textLength="31" x="5" y="1386.5184">User</text><ellipse cx="23.5" cy="1399.1203" fill="#E2E2F0" rx="8" ry="8" style="stroke:#181818;stroke-width:0.5;"/><path d="M23.5,1407.1203 L23.5,1434.1203 M10.5,1415.1203 L36.5,1415.1203 M23.5,1434.1203 L10.5,1449.1203 M23.5,1434.1203 L36.5,1449.1203 " fill="none" style="stroke:#181818;stroke-width:0.5;"/><rect fill="#E2E2F0" height="52.1358" rx="2.5" ry="2.5" style="stroke:#181818;stroke-width:0.5;" width="108" x="394.5" y="36"/><text fill="#000000" font-family="sans-serif" font-size="14" font-style="italic" lengthAdjust="spacing" textLength="94" x="401.5" y="57.9659">«presentation»</text><text fill="#000000" font-family="sans-serif" font-size="14" lengthAdjust="spacing" textLength="94" x="401.5" y="77.0339">ShareBoardUI</text><rect fill="#E2E2F0" height="52.1358" rx="2.5" ry="2.5" style="stroke:#181818;stroke-width:0.5;" width="108" x="394.5" y="1371.5524"/><text fill="#000000" font-family="sans-serif" font-size="14" font-style="italic" lengthAdjust="spacing" textLength="94" x="401.5" y="1393.5184">«presentation»</text><text fill="#000000" font-family="sans-serif" font-size="14" lengthAdjust="spacing" textLength="94" x="401.5" y="1412.5863">ShareBoardUI</text><rect fill="#E2E2F0" height="52.1358" rx="2.5" ry="2.5" style="stroke:#181818;stroke-width:0.5;" width="160" x="762.5" y="36"/><text fill="#000000" font-family="sans-serif" font-size="14" font-style="italic" lengthAdjust="spacing" textLength="85" x="800" y="57.9659">«application»</text><text fill="#000000" font-family="sans-serif" font-size="14" lengthAdjust="spacing" textLength="146" x="769.5" y="77.0339">ShareBoardController</text><rect fill="#E2E2F0" height="52.1358" rx="2.5" ry="2.5" style="stroke:#181818;stroke-width:0.5;" width="160" x="762.5" y="1371.5524"/><text fill="#000000" font-family="sans-serif" font-size="14" font-style="italic" lengthAdjust="spacing" textLength="85" x="800" y="1393.5184">«application»</text><text fill="#000000" font-family="sans-serif" font-size="14" lengthAdjust="spacing" textLength="146" x="769.5" y="1412.5863">ShareBoardController</text><rect fill="#E2E2F0" height="52.1358" rx="2.5" ry="2.5" style="stroke:#181818;stroke-width:0.5;" width="132" x="1058.5" y="36"/><text fill="#000000" font-family="sans-serif" font-size="14" font-style="italic" lengthAdjust="spacing" textLength="57" x="1096" y="57.9659">«service»</text><text fill="#000000" font-family="sans-serif" font-size="14" lengthAdjust="spacing" textLength="118" x="1065.5" y="77.0339">ListBoardsService</text><rect fill="#E2E2F0" height="52.1358" rx="2.5" ry="2.5" style="stroke:#181818;stroke-width:0.5;" width="132" x="1058.5" y="1371.5524"/><text fill="#000000" font-family="sans-serif" font-size="14" font-style="italic" lengthAdjust="spacing" textLength="57" x="1096" y="1393.5184">«service»</text><text fill="#000000" font-family="sans-serif" font-size="14" lengthAdjust="spacing" textLength="118" x="1065.5" y="1412.5863">ListBoardsService</text><rect fill="#E2E2F0" height="52.1358" rx="2.5" ry="2.5" style="stroke:#181818;stroke-width:0.5;" width="183" x="1200.5" y="36"/><text fill="#000000" font-family="sans-serif" font-size="14" font-style="italic" lengthAdjust="spacing" textLength="57" x="1263.5" y="57.9659">«service»</text><text fill="#000000" font-family="sans-serif" font-size="14" lengthAdjust="spacing" textLength="169" x="1207.5" y="77.0339">UserManagementService</text><rect fill="#E2E2F0" height="52.1358" rx="2.5" ry="2.5" style="stroke:#181818;stroke-width:0.5;" width="183" x="1200.5" y="1371.5524"/><text fill="#000000" font-family="sans-serif" font-size="14" font-style="italic" lengthAdjust="spacing" textLength="57" x="1263.5" y="1393.5184">«service»</text><text fill="#000000" font-family="sans-serif" font-size="14" lengthAdjust="spacing" textLength="169" x="1207.5" y="1412.5863">UserManagementService</text><rect fill="#E2E2F0" height="52.1358" rx="2.5" ry="2.5" style="stroke:#181818;stroke-width:0.5;" width="76" x="1393.5" y="36"/><text fill="#000000" font-family="sans-serif" font-size="14" font-style="italic" lengthAdjust="spacing" textLength="62" x="1400.5" y="57.9659">«domain»</text><text fill="#000000" font-family="sans-serif" font-size="14" lengthAdjust="spacing" textLength="40" x="1411.5" y="77.0339">Board</text><rect fill="#E2E2F0" height="52.1358" rx="2.5" ry="2.5" style="stroke:#181818;stroke-width:0.5;" width="76" x="1393.5" y="1371.5524"/><text fill="#000000" font-family="sans-serif" font-size="14" font-style="italic" lengthAdjust="spacing" textLength="62" x="1400.5" y="1393.5184">«domain»</text><text fill="#000000" font-family="sans-serif" font-size="14" lengthAdjust="spacing" textLength="40" x="1411.5" y="1412.5863">Board</text><rect fill="#E2E2F0" height="52.1358" rx="2.5" ry="2.5" style="stroke:#181818;stroke-width:0.5;" width="76" x="1479.5" y="36"/><text fill="#000000" font-family="sans-serif" font-size="14" font-style="italic" lengthAdjust="spacing" textLength="62" x="1486.5" y="57.9659">«domain»</text><text fill="#000000" font-family="sans-serif" font-size="14" lengthAdjust="spacing" textLength="31" x="1502" y="77.0339">User</text><rect fill="#E2E2F0" height="52.1358" rx="2.5" ry="2.5" style="stroke:#181818;stroke-width:0.5;" width="76" x="1479.5" y="1371.5524"/><text fill="#000000" font-family="sans-serif" font-size="14" font-style="italic" lengthAdjust="spacing" textLength="62" x="1486.5" y="1393.5184">«domain»</text><text fill="#000000" font-family="sans-serif" font-size="14" lengthAdjust="spacing" textLength="31" x="1502" y="1412.5863">User</text><rect fill="#E2E2F0" height="52.1358" rx="2.5" ry="2.5" style="stroke:#181818;stroke-width:0.5;" width="119" x="1565.5" y="36"/><text fill="#000000" font-family="sans-serif" font-size="14" font-style="italic" lengthAdjust="spacing" textLength="62" x="1594" y="57.9659">«domain»</text><text fill="#000000" font-family="sans-serif" font-size="14" lengthAdjust="spacing" textLength="105" x="1572.5" y="77.0339">UserPermission</text><rect fill="#E2E2F0" height="52.1358" rx="2.5" ry="2.5" style="stroke:#181818;stroke-width:0.5;" width="119" x="1565.5" y="1371.5524"/><text fill="#000000" font-family="sans-serif" font-size="14" font-style="italic" lengthAdjust="spacing" textLength="62" x="1594" y="1393.5184">«domain»</text><text fill="#000000" font-family="sans-serif" font-size="14" lengthAdjust="spacing" textLength="105" x="1572.5" y="1412.5863">UserPermission</text><rect fill="#E2E2F0" height="52.1358" rx="2.5" ry="2.5" style="stroke:#181818;stroke-width:0.5;" width="83" x="1694.5" y="36"/><text fill="#000000" font-family="sans-serif" font-size="14" font-style="italic" lengthAdjust="spacing" textLength="35" x="1718.5" y="57.9659">«dto»</text><text fill="#000000" font-family="sans-serif" font-size="14" lengthAdjust="spacing" textLength="69" x="1701.5" y="77.0339">BoardDTO</text><rect fill="#E2E2F0" height="52.1358" rx="2.5" ry="2.5" style="stroke:#181818;stroke-width:0.5;" width="83" x="1694.5" y="1371.5524"/><text fill="#000000" font-family="sans-serif" font-size="14" font-style="italic" lengthAdjust="spacing" textLength="35" x="1718.5" y="1393.5184">«dto»</text><text fill="#000000" font-family="sans-serif" font-size="14" lengthAdjust="spacing" textLength="69" x="1701.5" y="1412.5863">BoardDTO</text><rect fill="#E2E2F0" height="52.1358" rx="2.5" ry="2.5" style="stroke:#181818;stroke-width:0.5;" width="74" x="1787.5" y="36"/><text fill="#000000" font-family="sans-serif" font-size="14" font-style="italic" lengthAdjust="spacing" textLength="35" x="1807" y="57.9659">«dto»</text><text fill="#000000" font-family="sans-serif" font-size="14" lengthAdjust="spacing" textLength="60" x="1794.5" y="77.0339">UserDTO</text><rect fill="#E2E2F0" height="52.1358" rx="2.5" ry="2.5" style="stroke:#181818;stroke-width:0.5;" width="74" x="1787.5" y="1371.5524"/><text fill="#000000" font-family="sans-serif" font-size="14" font-style="italic" lengthAdjust="spacing" textLength="35" x="1807" y="1393.5184">«dto»</text><text fill="#000000" font-family="sans-serif" font-size="14" lengthAdjust="spacing" textLength="60" x="1794.5" y="1412.5863">UserDTO</text><rect fill="#E2E2F0" height="52.1358" rx="2.5" ry="2.5" style="stroke:#181818;stroke-width:0.5;" width="155" x="1871.5" y="36"/><text fill="#000000" font-family="sans-serif" font-size="14" font-style="italic" lengthAdjust="spacing" textLength="35" x="1931.5" y="57.9659">«dto»</text><text fill="#000000" font-family="sans-serif" font-size="14" lengthAdjust="spacing" textLength="141" x="1878.5" y="77.0339">UserPermissionsDTO</text><rect fill="#E2E2F0" height="52.1358" rx="2.5" ry="2.5" style="stroke:#181818;stroke-width:0.5;" width="155" x="1871.5" y="1371.5524"/><text fill="#000000" font-family="sans-serif" font-size="14" font-style="italic" lengthAdjust="spacing" textLength="35" x="1931.5" y="1393.5184">«dto»</text><text fill="#000000" font-family="sans-serif" font-size="14" lengthAdjust="spacing" textLength="141" x="1878.5" y="1412.5863">UserPermissionsDTO</text><text fill="#000000" font-family="sans-serif" font-size="14" font-style="italic" lengthAdjust="spacing" textLength="79" x="2052.5" y="65.9659">«repository»</text><text fill="#000000" font-family="sans-serif" font-size="14" lengthAdjust="spacing" textLength="111" x="2036.5" y="85.0339">BoardRepository</text><path d="M2077,15 C2077,5 2095,5 2095,5 C2095,5 2113,5 2113,15 L2113,41 C2113,51 2095,51 2095,51 C2095,51 2077,51 2077,41 L2077,15 " fill="#E2E2F0" style="stroke:#181818;stroke-width:1.5;"/><path d="M2077,15 C2077,25 2095,25 2095,25 C2095,25 2113,25 2113,15 " fill="none" style="stroke:#181818;stroke-width:1.5;"/><text fill="#000000" font-family="sans-serif" font-size="14" font-style="italic" lengthAdjust="spacing" textLength="79" x="2052.5" y="1386.5184">«repository»</text><text fill="#000000" font-family="sans-serif" font-size="14" lengthAdjust="spacing" textLength="111" x="2036.5" y="1405.5863">BoardRepository</text><path d="M2077,1419.6883 C2077,1409.6883 2095,1409.6883 2095,1409.6883 C2095,1409.6883 2113,1409.6883 2113,1419.6883 L2113,1445.6883 C2113,1455.6883 2095,1455.6883 2095,1455.6883 C2095,1455.6883 2077,1455.6883 2077,1445.6883 L2077,1419.6883 " fill="#E2E2F0" style="stroke:#181818;stroke-width:1.5;"/><path d="M2077,1419.6883 C2077,1429.6883 2095,1429.6883 2095,1429.6883 C2095,1429.6883 2113,1429.6883 2113,1419.6883 " fill="none" style="stroke:#181818;stroke-width:1.5;"/><text fill="#000000" font-family="sans-serif" font-size="14" font-style="italic" lengthAdjust="spacing" textLength="79" x="2175" y="65.9659">«repository»</text><text fill="#000000" font-family="sans-serif" font-size="14" lengthAdjust="spacing" textLength="102" x="2163.5" y="85.0339">UserRepository</text><path d="M2199.5,15 C2199.5,5 2217.5,5 2217.5,5 C2217.5,5 2235.5,5 2235.5,15 L2235.5,41 C2235.5,51 2217.5,51 2217.5,51 C2217.5,51 2199.5,51 2199.5,41 L2199.5,15 " fill="#E2E2F0" style="stroke:#181818;stroke-width:1.5;"/><path d="M2199.5,15 C2199.5,25 2217.5,25 2217.5,25 C2217.5,25 2235.5,25 2235.5,15 " fill="none" style="stroke:#181818;stroke-width:1.5;"/><text fill="#000000" font-family="sans-serif" font-size="14" font-style="italic" lengthAdjust="spacing" textLength="79" x="2175" y="1386.5184">«repository»</text><text fill="#000000" font-family="sans-serif" font-size="14" lengthAdjust="spacing" textLength="102" x="2163.5" y="1405.5863">UserRepository</text><path d="M2199.5,1419.6883 C2199.5,1409.6883 2217.5,1409.6883 2217.5,1409.6883 C2217.5,1409.6883 2235.5,1409.6883 2235.5,1419.6883 L2235.5,1445.6883 C2235.5,1455.6883 2217.5,1455.6883 2217.5,1455.6883 C2217.5,1455.6883 2199.5,1455.6883 2199.5,1445.6883 L2199.5,1419.6883 " fill="#E2E2F0" style="stroke:#181818;stroke-width:1.5;"/><path d="M2199.5,1419.6883 C2199.5,1429.6883 2217.5,1429.6883 2217.5,1429.6883 C2217.5,1429.6883 2235.5,1429.6883 2235.5,1419.6883 " fill="none" style="stroke:#181818;stroke-width:1.5;"/><rect fill="#FFFFFF" height="1255.4166" style="stroke:#181818;stroke-width:1.0;" width="10" x="18.5" y="99.1358"/><rect fill="#FFFFFF" height="504.1782" style="stroke:#181818;stroke-width:1.0;" width="10" x="443.5" y="122.8419"/><rect fill="#FFFFFF" height="31.706" style="stroke:#181818;stroke-width:1.0;" width="10" x="443.5" y="658.7261"/><rect fill="#FFFFFF" height="475.5902" style="stroke:#181818;stroke-width:1.0;" width="10" x="443.5" y="722.1381"/><rect fill="#FFFFFF" height="125.118" style="stroke:#181818;stroke-width:1.0;" width="10" x="443.5" y="1229.4344"/><rect fill="#FFFFFF" height="123.412" style="stroke:#181818;stroke-width:1.0;" width="10" x="837.5" y="154.5479"/><rect fill="#FFFFFF" height="285.6481" style="stroke:#181818;stroke-width:1.0;" width="10" x="837.5" y="309.6659"/><rect fill="#FFFFFF" height="412.1782" style="stroke:#181818;stroke-width:1.0;" width="10" x="837.5" y="753.8441"/><rect fill="#FFFFFF" height="61.706" style="stroke:#181818;stroke-width:1.0;" width="10" x="837.5" y="1261.1404"/><rect fill="#FFFFFF" height="30" style="stroke:#181818;stroke-width:1.0;" width="10" x="1119.5" y="186.2539"/><rect fill="#FFFFFF" height="222.2361" style="stroke:#181818;stroke-width:1.0;" width="10" x="1119.5" y="341.3719"/><rect fill="#FFFFFF" height="30" style="stroke:#181818;stroke-width:1.0;" width="10" x="1287" y="247.9599"/><rect fill="#FFFFFF" height="95.118" style="stroke:#181818;stroke-width:1.0;" width="10" x="1287" y="785.5501"/><rect fill="#FFFFFF" height="61.706" style="stroke:#181818;stroke-width:1.0;" width="10" x="1426.5" y="463.196"/><rect fill="#FFFFFF" height="95.118" style="stroke:#181818;stroke-width:1.0;" width="10" x="1426.5" y="975.7862"/><rect fill="#FFFFFF" height="31.706" style="stroke:#181818;stroke-width:1.0;" width="10" x="1620" y="1007.4923"/><rect fill="#FFFFFF" height="30" style="stroke:#181818;stroke-width:1.0;" width="10" x="1620" y="1292.8464"/><rect fill="#FFFFFF" height="30" style="stroke:#181818;stroke-width:1.0;" width="10" x="1731" y="494.902"/><rect fill="#FFFFFF" height="31.706" style="stroke:#181818;stroke-width:1.0;" width="10" x="1944" y="1102.6103"/><rect fill="#FFFFFF" height="31.706" style="stroke:#181818;stroke-width:1.0;" width="10" x="2090" y="373.0779"/><rect fill="#FFFFFF" height="31.706" style="stroke:#181818;stroke-width:1.0;" width="10" x="2090" y="912.3742"/><rect fill="#FFFFFF" height="31.706" style="stroke:#181818;stroke-width:1.0;" width="10" x="2212.5" y="817.2562"/><polygon fill="#181818" points="431.5,118.8419,441.5,122.8419,431.5,126.8419,435.5,122.8419" style="stroke:#181818;stroke-width:1.0;"/><line style="stroke:#181818;stroke-width:1.0;" x1="28.5" x2="437.5" y1="122.8419" y2="122.8419"/><text fill="#000000" font-family="sans-serif" font-size="13" font-weight="bold" lengthAdjust="spacing" textLength="7" x="35.5" y="117.0328">1</text><text fill="#000000" font-family="sans-serif" font-size="13" lengthAdjust="spacing" textLength="127" x="46.5" y="117.0328">asks to share a board</text><polygon fill="#181818" points="825.5,150.5479,835.5,154.5479,825.5,158.5479,829.5,154.5479" style="stroke:#181818;stroke-width:1.0;"/><line style="stroke:#181818;stroke-width:1.0;" x1="453.5" x2="831.5" y1="154.5479" y2="154.5479"/><text fill="#000000" font-family="sans-serif" font-size="13" font-weight="bold" lengthAdjust="spacing" textLength="7" x="460.5" y="148.7389">2</text><text fill="#000000" font-family="sans-serif" font-size="13" lengthAdjust="spacing" textLength="33" x="471.5" y="148.7389">new()</text><polygon fill="#181818" points="1107.5,182.2539,1117.5,186.2539,1107.5,190.2539,1111.5,186.2539" style="stroke:#181818;stroke-width:1.0;"/><line style="stroke:#181818;stroke-width:1.0;" x1="847.5" x2="1113.5" y1="186.2539" y2="186.2539"/><text fill="#000000" font-family="sans-serif" font-size="13" font-weight="bold" lengthAdjust="spacing" textLength="7" x="854.5" y="180.4449">3</text><text fill="#000000" font-family="sans-serif" font-size="13" lengthAdjust="spacing" textLength="242" x="865.5" y="180.4449">listBoardService = new(boardRepository)</text><polygon fill="#181818" points="1275,243.9599,1285,247.9599,1275,251.9599,1279,247.9599" style="stroke:#181818;stroke-width:1.0;"/><line style="stroke:#181818;stroke-width:1.0;" x1="847.5" x2="1281" y1="247.9599" y2="247.9599"/><text fill="#000000" font-family="sans-serif" font-size="13" font-weight="bold" lengthAdjust="spacing" textLength="7" x="854.5" y="242.1509">4</text><text fill="#000000" font-family="sans-serif" font-size="13" lengthAdjust="spacing" textLength="198" x="865.5" y="242.1509">usrService = new(userRepository)</text><polygon fill="#181818" points="825.5,305.6659,835.5,309.6659,825.5,313.6659,829.5,309.6659" style="stroke:#181818;stroke-width:1.0;"/><line style="stroke:#181818;stroke-width:1.0;" x1="453.5" x2="831.5" y1="309.6659" y2="309.6659"/><text fill="#000000" font-family="sans-serif" font-size="13" font-weight="bold" lengthAdjust="spacing" textLength="7" x="460.5" y="303.8569">5</text><text fill="#000000" font-family="sans-serif" font-size="13" lengthAdjust="spacing" textLength="95" x="471.5" y="303.8569">listUserBoards()</text><polygon fill="#181818" points="1107.5,337.3719,1117.5,341.3719,1107.5,345.3719,1111.5,341.3719" style="stroke:#181818;stroke-width:1.0;"/><line style="stroke:#181818;stroke-width:1.0;" x1="847.5" x2="1113.5" y1="341.3719" y2="341.3719"/><text fill="#000000" font-family="sans-serif" font-size="13" font-weight="bold" lengthAdjust="spacing" textLength="7" x="854.5" y="335.5629">6</text><text fill="#000000" font-family="sans-serif" font-size="13" lengthAdjust="spacing" textLength="102" x="865.5" y="335.5629">userBoards(user)</text><polygon fill="#181818" points="2078,369.0779,2088,373.0779,2078,377.0779,2082,373.0779" style="stroke:#181818;stroke-width:1.0;"/><line style="stroke:#181818;stroke-width:1.0;" x1="1129.5" x2="2084" y1="373.0779" y2="373.0779"/><text fill="#000000" font-family="sans-serif" font-size="13" font-weight="bold" lengthAdjust="spacing" textLength="7" x="1136.5" y="367.2689">7</text><text fill="#000000" font-family="sans-serif" font-size="13" lengthAdjust="spacing" textLength="203" x="1147.5" y="367.2689">findAllBoardsCreatedByUser(user)</text><polygon fill="#181818" points="1140.5,400.784,1130.5,404.784,1140.5,408.784,1136.5,404.784" style="stroke:#181818;stroke-width:1.0;"/><line style="stroke:#181818;stroke-width:1.0;stroke-dasharray:2.0,2.0;" x1="1134.5" x2="2094" y1="404.784" y2="404.784"/><text fill="#000000" font-family="sans-serif" font-size="13" font-weight="bold" lengthAdjust="spacing" textLength="7" x="1146.5" y="398.975">8</text><text fill="#000000" font-family="sans-serif" font-size="13" lengthAdjust="spacing" textLength="42" x="1157.5" y="398.975">boards</text><path d="M1048.5,419.784 L1121.5,419.784 L1121.5,429.49 L1111.5,439.49 L1048.5,439.49 L1048.5,419.784 " fill="#EEEEEE" style="stroke:#000000;stroke-width:1.5;"/><rect fill="none" height="113.118" style="stroke:#000000;stroke-width:1.5;" width="739" x="1048.5" y="419.784"/><text fill="#000000" font-family="sans-serif" font-size="13" font-weight="bold" lengthAdjust="spacing" textLength="28" x="1063.5" y="434.681">loop</text><text fill="#000000" font-family="sans-serif" font-size="11" font-weight="bold" lengthAdjust="spacing" textLength="90" x="1136.5" y="433.5429">[for each board]</text><polygon fill="#181818" points="1414.5,459.196,1424.5,463.196,1414.5,467.196,1418.5,463.196" style="stroke:#181818;stroke-width:1.0;"/><line style="stroke:#181818;stroke-width:1.0;" x1="1129.5" x2="1420.5" y1="463.196" y2="463.196"/><text fill="#000000" font-family="sans-serif" font-size="13" font-weight="bold" lengthAdjust="spacing" textLength="7" x="1136.5" y="457.387">9</text><text fill="#000000" font-family="sans-serif" font-size="13" lengthAdjust="spacing" textLength="87" x="1147.5" y="457.387">toDTO(course)</text><polygon fill="#181818" points="1719,490.902,1729,494.902,1719,498.902,1723,494.902" style="stroke:#181818;stroke-width:1.0;"/><line style="stroke:#181818;stroke-width:1.0;" x1="1436.5" x2="1725" y1="494.902" y2="494.902"/><text fill="#000000" font-family="sans-serif" font-size="13" font-weight="bold" lengthAdjust="spacing" textLength="14" x="1443.5" y="489.093">10</text><text fill="#000000" font-family="sans-serif" font-size="13" lengthAdjust="spacing" textLength="33" x="1461.5" y="489.093">new()</text><polygon fill="#181818" points="858.5,559.608,848.5,563.608,858.5,567.608,854.5,563.608" style="stroke:#181818;stroke-width:1.0;"/><line style="stroke:#181818;stroke-width:1.0;stroke-dasharray:2.0,2.0;" x1="852.5" x2="1123.5" y1="563.608" y2="563.608"/><text fill="#000000" font-family="sans-serif" font-size="13" font-weight="bold" lengthAdjust="spacing" textLength="14" x="864.5" y="557.799">11</text><text fill="#000000" font-family="sans-serif" font-size="13" lengthAdjust="spacing" textLength="42" x="882.5" y="557.799">boards</text><polygon fill="#181818" points="464.5,591.314,454.5,595.314,464.5,599.314,460.5,595.314" style="stroke:#181818;stroke-width:1.0;"/><line style="stroke:#181818;stroke-width:1.0;stroke-dasharray:2.0,2.0;" x1="458.5" x2="841.5" y1="595.314" y2="595.314"/><text fill="#000000" font-family="sans-serif" font-size="13" font-weight="bold" lengthAdjust="spacing" textLength="14" x="470.5" y="589.505">12</text><text fill="#000000" font-family="sans-serif" font-size="13" lengthAdjust="spacing" textLength="42" x="488.5" y="589.505">boards</text><polygon fill="#181818" points="39.5,623.0201,29.5,627.0201,39.5,631.0201,35.5,627.0201" style="stroke:#181818;stroke-width:1.0;"/><line style="stroke:#181818;stroke-width:1.0;stroke-dasharray:2.0,2.0;" x1="33.5" x2="447.5" y1="627.0201" y2="627.0201"/><text fill="#000000" font-family="sans-serif" font-size="13" font-weight="bold" lengthAdjust="spacing" textLength="14" x="45.5" y="621.2111">13</text><text fill="#000000" font-family="sans-serif" font-size="13" lengthAdjust="spacing" textLength="128" x="63.5" y="621.2111">asks to select a board</text><polygon fill="#181818" points="431.5,654.7261,441.5,658.7261,431.5,662.7261,435.5,658.7261" style="stroke:#181818;stroke-width:1.0;"/><line style="stroke:#181818;stroke-width:1.0;" x1="28.5" x2="437.5" y1="658.7261" y2="658.7261"/><text fill="#000000" font-family="sans-serif" font-size="13" font-weight="bold" lengthAdjust="spacing" textLength="14" x="35.5" y="652.9171">14</text><text fill="#000000" font-family="sans-serif" font-size="13" lengthAdjust="spacing" textLength="89" x="53.5" y="652.9171">selects a board</text><polygon fill="#181818" points="436.5,686.4321,446.5,690.4321,436.5,694.4321,440.5,690.4321" style="stroke:#181818;stroke-width:1.0;"/><line style="stroke:#181818;stroke-width:1.0;stroke-dasharray:2.0,2.0;" x1="28.5" x2="442.5" y1="690.4321" y2="690.4321"/><text fill="#000000" font-family="sans-serif" font-size="13" font-weight="bold" lengthAdjust="spacing" textLength="14" x="35.5" y="684.6231">15</text><text fill="#000000" font-family="sans-serif" font-size="13" lengthAdjust="spacing" textLength="373" x="53.5" y="684.6231">asks to enter the username of the user to share the board with</text><polygon fill="#181818" points="431.5,718.1381,441.5,722.1381,431.5,726.1381,435.5,722.1381" style="stroke:#181818;stroke-width:1.0;"/><line style="stroke:#181818;stroke-width:1.0;" x1="28.5" x2="437.5" y1="722.1381" y2="722.1381"/><text fill="#000000" font-family="sans-serif" font-size="13" font-weight="bold" lengthAdjust="spacing" textLength="14" x="35.5" y="716.3291">16</text><text fill="#000000" font-family="sans-serif" font-size="13" lengthAdjust="spacing" textLength="171" x="53.5" y="716.3291">enters the desired username</text><polygon fill="#181818" points="825.5,749.8441,835.5,753.8441,825.5,757.8441,829.5,753.8441" style="stroke:#181818;stroke-width:1.0;"/><line style="stroke:#181818;stroke-width:1.0;" x1="453.5" x2="831.5" y1="753.8441" y2="753.8441"/><text fill="#000000" font-family="sans-serif" font-size="13" font-weight="bold" lengthAdjust="spacing" textLength="14" x="460.5" y="748.0351">17</text><text fill="#000000" font-family="sans-serif" font-size="13" lengthAdjust="spacing" textLength="224" x="478.5" y="748.0351">userPermission(boardDto, username)</text><polygon fill="#181818" points="1275,781.5501,1285,785.5501,1275,789.5501,1279,785.5501" style="stroke:#181818;stroke-width:1.0;"/><line style="stroke:#181818;stroke-width:1.0;" x1="847.5" x2="1281" y1="785.5501" y2="785.5501"/><text fill="#000000" font-family="sans-serif" font-size="13" font-weight="bold" lengthAdjust="spacing" textLength="14" x="854.5" y="779.7411">18</text><text fill="#000000" font-family="sans-serif" font-size="13" lengthAdjust="spacing" textLength="258" x="872.5" y="779.7411">user = usrService.userOfIdentity(username)</text><polygon fill="#181818" points="2200.5,813.2562,2210.5,817.2562,2200.5,821.2562,2204.5,817.2562" style="stroke:#181818;stroke-width:1.0;"/><line style="stroke:#181818;stroke-width:1.0;" x1="1297" x2="2206.5" y1="817.2562" y2="817.2562"/><text fill="#000000" font-family="sans-serif" font-size="13" font-weight="bold" lengthAdjust="spacing" textLength="14" x="1304" y="811.4472">19</text><text fill="#000000" font-family="sans-serif" font-size="13" lengthAdjust="spacing" textLength="127" x="1322" y="811.4472">ofIdentity(username)</text><polygon fill="#181818" points="1308,844.9622,1298,848.9622,1308,852.9622,1304,848.9622" style="stroke:#181818;stroke-width:1.0;"/><line style="stroke:#181818;stroke-width:1.0;stroke-dasharray:2.0,2.0;" x1="1302" x2="2216.5" y1="848.9622" y2="848.9622"/><text fill="#000000" font-family="sans-serif" font-size="13" font-weight="bold" lengthAdjust="spacing" textLength="14" x="1314" y="843.1532">20</text><text fill="#000000" font-family="sans-serif" font-size="13" lengthAdjust="spacing" textLength="26" x="1332" y="843.1532">user</text><polygon fill="#181818" points="858.5,876.6682,848.5,880.6682,858.5,884.6682,854.5,880.6682" style="stroke:#181818;stroke-width:1.0;"/><line style="stroke:#181818;stroke-width:1.0;stroke-dasharray:2.0,2.0;" x1="852.5" x2="1291" y1="880.6682" y2="880.6682"/><text fill="#000000" font-family="sans-serif" font-size="13" font-weight="bold" lengthAdjust="spacing" textLength="14" x="864.5" y="874.8592">21</text><text fill="#000000" font-family="sans-serif" font-size="13" lengthAdjust="spacing" textLength="26" x="882.5" y="874.8592">user</text><polygon fill="#181818" points="2078,908.3742,2088,912.3742,2078,916.3742,2082,912.3742" style="stroke:#181818;stroke-width:1.0;"/><line style="stroke:#181818;stroke-width:1.0;" x1="847.5" x2="2084" y1="912.3742" y2="912.3742"/><text fill="#000000" font-family="sans-serif" font-size="13" font-weight="bold" lengthAdjust="spacing" textLength="14" x="854.5" y="906.5652">22</text><text fill="#000000" font-family="sans-serif" font-size="13" lengthAdjust="spacing" textLength="292" x="872.5" y="906.5652">board = boardRepository.ofIdentity(boardDto.id)</text><polygon fill="#181818" points="858.5,940.0802,848.5,944.0802,858.5,948.0802,854.5,944.0802" style="stroke:#181818;stroke-width:1.0;"/><line style="stroke:#181818;stroke-width:1.0;stroke-dasharray:2.0,2.0;" x1="852.5" x2="2094" y1="944.0802" y2="944.0802"/><text fill="#000000" font-family="sans-serif" font-size="13" font-weight="bold" lengthAdjust="spacing" textLength="14" x="864.5" y="938.2712">23</text><text fill="#000000" font-family="sans-serif" font-size="13" lengthAdjust="spacing" textLength="36" x="882.5" y="938.2712">board</text><polygon fill="#181818" points="1414.5,971.7862,1424.5,975.7862,1414.5,979.7862,1418.5,975.7862" style="stroke:#181818;stroke-width:1.0;"/><line style="stroke:#181818;stroke-width:1.0;" x1="847.5" x2="1420.5" y1="975.7862" y2="975.7862"/><text fill="#000000" font-family="sans-serif" font-size="13" font-weight="bold" lengthAdjust="spacing" textLength="14" x="854.5" y="969.9772">24</text><text fill="#000000" font-family="sans-serif" font-size="13" lengthAdjust="spacing" textLength="106" x="872.5" y="969.9772">permissions(user)</text><polygon fill="#181818" points="1608,1003.4923,1618,1007.4923,1608,1011.4923,1612,1007.4923" style="stroke:#181818;stroke-width:1.0;"/><line style="stroke:#181818;stroke-width:1.0;" x1="1436.5" x2="1614" y1="1007.4923" y2="1007.4923"/><text fill="#000000" font-family="sans-serif" font-size="13" font-weight="bold" lengthAdjust="spacing" textLength="14" x="1443.5" y="1001.6833">25</text><text fill="#000000" font-family="sans-serif" font-size="13" lengthAdjust="spacing" textLength="3" x="1461.5" y="1001.6833"> </text><polygon fill="#181818" points="1447.5,1035.1983,1437.5,1039.1983,1447.5,1043.1983,1443.5,1039.1983" style="stroke:#181818;stroke-width:1.0;"/><line style="stroke:#181818;stroke-width:1.0;stroke-dasharray:2.0,2.0;" x1="1441.5" x2="1624" y1="1039.1983" y2="1039.1983"/><text fill="#000000" font-family="sans-serif" font-size="13" font-weight="bold" lengthAdjust="spacing" textLength="14" x="1453.5" y="1033.3893">26</text><text fill="#000000" font-family="sans-serif" font-size="13" lengthAdjust="spacing" textLength="72" x="1471.5" y="1033.3893">permissions</text><polygon fill="#181818" points="858.5,1066.9043,848.5,1070.9043,858.5,1074.9043,854.5,1070.9043" style="stroke:#181818;stroke-width:1.0;"/><line style="stroke:#181818;stroke-width:1.0;stroke-dasharray:2.0,2.0;" x1="852.5" x2="1430.5" y1="1070.9043" y2="1070.9043"/><text fill="#000000" font-family="sans-serif" font-size="13" font-weight="bold" lengthAdjust="spacing" textLength="14" x="864.5" y="1065.0953">27</text><text fill="#000000" font-family="sans-serif" font-size="13" lengthAdjust="spacing" textLength="72" x="882.5" y="1065.0953">permissions</text><polygon fill="#181818" points="1932,1098.6103,1942,1102.6103,1932,1106.6103,1936,1102.6103" style="stroke:#181818;stroke-width:1.0;"/><line style="stroke:#181818;stroke-width:1.0;" x1="847.5" x2="1938" y1="1102.6103" y2="1102.6103"/><text fill="#000000" font-family="sans-serif" font-size="13" font-weight="bold" lengthAdjust="spacing" textLength="14" x="854.5" y="1096.8013">28</text><text fill="#000000" font-family="sans-serif" font-size="13" lengthAdjust="spacing" textLength="47" x="872.5" y="1096.8013">toDTO()</text><polygon fill="#181818" points="858.5,1130.3163,848.5,1134.3163,858.5,1138.3163,854.5,1134.3163" style="stroke:#181818;stroke-width:1.0;"/><line style="stroke:#181818;stroke-width:1.0;stroke-dasharray:2.0,2.0;" x1="852.5" x2="1948" y1="1134.3163" y2="1134.3163"/><text fill="#000000" font-family="sans-serif" font-size="13" font-weight="bold" lengthAdjust="spacing" textLength="14" x="864.5" y="1128.5073">29</text><text fill="#000000" font-family="sans-serif" font-size="13" lengthAdjust="spacing" textLength="94" x="882.5" y="1128.5073">permissionsDto</text><polygon fill="#181818" points="464.5,1162.0223,454.5,1166.0223,464.5,1170.0223,460.5,1166.0223" style="stroke:#181818;stroke-width:1.0;"/><line style="stroke:#181818;stroke-width:1.0;stroke-dasharray:2.0,2.0;" x1="458.5" x2="841.5" y1="1166.0223" y2="1166.0223"/><text fill="#000000" font-family="sans-serif" font-size="13" font-weight="bold" lengthAdjust="spacing" textLength="14" x="470.5" y="1160.2133">30</text><text fill="#000000" font-family="sans-serif" font-size="13" lengthAdjust="spacing" textLength="94" x="488.5" y="1160.2133">permissionsDto</text><polygon fill="#181818" points="39.5,1193.7284,29.5,1197.7284,39.5,1201.7284,35.5,1197.7284" style="stroke:#181818;stroke-width:1.0;"/><line style="stroke:#181818;stroke-width:1.0;stroke-dasharray:2.0,2.0;" x1="33.5" x2="447.5" y1="1197.7284" y2="1197.7284"/><text fill="#000000" font-family="sans-serif" font-size="13" font-weight="bold" lengthAdjust="spacing" textLength="14" x="45.5" y="1191.9194">31</text><text fill="#000000" font-family="sans-serif" font-size="13" lengthAdjust="spacing" textLength="212" x="63.5" y="1191.9194">shows the current user permissions</text><polygon fill="#181818" points="431.5,1225.4344,441.5,1229.4344,431.5,1233.4344,435.5,1229.4344" style="stroke:#181818;stroke-width:1.0;"/><line style="stroke:#181818;stroke-width:1.0;" x1="28.5" x2="437.5" y1="1229.4344" y2="1229.4344"/><text fill="#000000" font-family="sans-serif" font-size="13" font-weight="bold" lengthAdjust="spacing" textLength="14" x="35.5" y="1223.6254">32</text><text fill="#000000" font-family="sans-serif" font-size="13" lengthAdjust="spacing" textLength="185" x="53.5" y="1223.6254">selects the desired permissions</text><polygon fill="#181818" points="825.5,1257.1404,835.5,1261.1404,825.5,1265.1404,829.5,1261.1404" style="stroke:#181818;stroke-width:1.0;"/><line style="stroke:#181818;stroke-width:1.0;" x1="453.5" x2="831.5" y1="1261.1404" y2="1261.1404"/><text fill="#000000" font-family="sans-serif" font-size="13" font-weight="bold" lengthAdjust="spacing" textLength="14" x="460.5" y="1255.3314">33</text><text fill="#000000" font-family="sans-serif" font-size="13" lengthAdjust="spacing" textLength="347" x="478.5" y="1255.3314">updateUserPermissions(boardDto, username, permission)</text><polygon fill="#181818" points="1608,1288.8464,1618,1292.8464,1608,1296.8464,1612,1292.8464" style="stroke:#181818;stroke-width:1.0;"/><line style="stroke:#181818;stroke-width:1.0;" x1="847.5" x2="1614" y1="1292.8464" y2="1292.8464"/><text fill="#000000" font-family="sans-serif" font-size="13" font-weight="bold" lengthAdjust="spacing" textLength="14" x="854.5" y="1287.0374">34</text><text fill="#000000" font-family="sans-serif" font-size="13" lengthAdjust="spacing" textLength="149" x="872.5" y="1287.0374">update(user, permission)</text><polygon fill="#181818" points="34.5,1350.5524,24.5,1354.5524,34.5,1358.5524,30.5,1354.5524" style="stroke:#181818;stroke-width:1.0;"/><line style="stroke:#181818;stroke-width:1.0;stroke-dasharray:2.0,2.0;" x1="28.5" x2="447.5" y1="1354.5524" y2="1354.5524"/><text fill="#000000" font-family="sans-serif" font-size="13" font-weight="bold" lengthAdjust="spacing" textLength="14" x="40.5" y="1348.7434">35</text><text fill="#000000" font-family="sans-serif" font-size="13" lengthAdjust="spacing" textLength="156" x="58.5" y="1348.7434">informs operation success</text><!--MD5=[6897c547ac01d1ac19f8cebe056425ff]
@startuml US3004_SD
autonumber

actor "User" as U
participant "ShareBoardUI" as UI <<presentation>>
participant "ShareBoardController" as CTRL <<application>>
participant "ListBoardsService" as BOARDSRV <<service>>
participant "UserManagementService" as USRSRV <<service>>
participant "Board" as B <<domain>>
participant "User" as USER <<domain>>
participant "UserPermission" as PERM <<domain>>
participant "BoardDTO" as BDTO <<dto>>
participant "UserDTO" as USERDTO <<dto>>
participant "UserPermissionsDTO" as PERMDTO <<dto>>

database BoardRepository as BOARDREP <<repository>>
database UserRepository as USERREP <<repository>>

activate U

U -> UI : asks to share a board
activate UI
  UI -> CTRL : new()
  activate CTRL
    CTRL -> BOARDSRV : listBoardService = new(boardRepository)
    activate BOARDSRV
    deactivate BOARDSRV

    CTRL -> USRSRV : usrService = new(userRepository)
    activate USRSRV
    deactivate USRSRV
  deactivate CTRL

  UI -> CTRL : listUserBoards()
  activate CTRL
    CTRL -> BOARDSRV : userBoards(user)
    activate BOARDSRV
      BOARDSRV -> BOARDREP : findAllBoardsCreatedByUser(user)
      activate BOARDREP
         BOARDSRV <- - BOARDREP : boards
      deactivate BOARDREP

      loop for each board
        BOARDSRV -> B : toDTO(course)
        activate B
          B -> BDTO : new()
          activate BDTO
          deactivate BDTO
        deactivate B
      end loop

      CTRL <- - BOARDSRV : boards
    deactivate BOARDSRV
    UI <- - CTRL : boards
  deactivate CTRL

  U <- - UI : asks to select a board
deactivate UI

U -> UI : selects a board
activate UI
  UI <- - U : asks to enter the username of the user to share the board with
deactivate UI

U -> UI : enters the desired username
activate UI

  UI -> CTRL : userPermission(boardDto, username)
  activate CTRL

    CTRL -> USRSRV : user = usrService.userOfIdentity(username)
    activate USRSRV

      USRSRV -> USERREP : ofIdentity(username)
      activate USERREP
        USRSRV <- - USERREP : user
      deactivate USERREP

      CTRL <- - USRSRV : user
    deactivate USRSRV

    CTRL -> BOARDREP : board = boardRepository.ofIdentity(boardDto.id)
    activate BOARDREP
      CTRL <- - BOARDREP : board
    deactivate BOARDREP

    CTRL -> B : permissions(user)
    activate B
      B -> PERM
      activate PERM
        B <- - PERM : permissions
      deactivate PERM
      CTRL <- - B : permissions
    deactivate B

    CTRL -> PERMDTO : toDTO()
    activate PERMDTO
      CTRL <- - PERMDTO : permissionsDto
    deactivate PERMDTO

    UI <- - CTRL : permissionsDto
  deactivate CTRL

  U <- - UI : shows the current user permissions
deactivate UI

U -> UI : selects the desired permissions
activate UI
  UI -> CTRL : updateUserPermissions(boardDto, username, permission)
  activate CTRL
    CTRL -> PERM : update(user, permission)
    activate PERM
    deactivate PERM
  deactivate CTRL

  U <- - UI : informs operation success
deactivate UI

deactivate U

@enduml

PlantUML version 1.2022.7(Mon Aug 22 18:01:30 WEST 2022)
(GPL source distribution)
Java Runtime: OpenJDK Runtime Environment
JVM: OpenJDK 64-Bit Server VM
Default Encoding: UTF-8
Language: en
Country: GB
--></g></svg>