<?xml version="1.0" encoding="UTF-8" standalone="no"?><svg xmlns="http://www.w3.org/2000/svg" xmlns:xlink="http://www.w3.org/1999/xlink" contentStyleType="text/css" height="881px" preserveAspectRatio="none" style="width:1101px;height:881px;background:#FFFFFF;" version="1.1" viewBox="0 0 1101 881" width="1101px" zoomAndPan="magnify"><defs/><g><!--MD5=[8f9545635c96278f6464f1f75fb05986]
cluster <<aggregate>> Board--><g id="cluster_&lt;&lt;aggregate&gt;&gt; Board"><path d="M8.5,212.602 L157.5,212.602 A3.75,3.75 0 0 1 160,215.102 L167,237.6699 L912.5,237.6699 A2.5,2.5 0 0 1 915,240.1699 L915,771.102 A2.5,2.5 0 0 1 912.5,773.602 L8.5,773.602 A2.5,2.5 0 0 1 6,771.102 L6,215.102 A2.5,2.5 0 0 1 8.5,212.602 " fill="none" style="stroke:#000000;stroke-width:1.5;"/><line style="stroke:#000000;stroke-width:1.5;" x1="6" x2="167" y1="237.6699" y2="237.6699"/><text fill="#000000" font-family="sans-serif" font-size="14" font-weight="bold" lengthAdjust="spacing" textLength="148" x="10" y="229.5679">&lt;&lt;aggregate&gt;&gt; Board</text></g><!--MD5=[fd3cdda75c3d0de4c885e04e9061848b]
cluster <<aggregate>> PostIt--><g id="cluster_&lt;&lt;aggregate&gt;&gt; PostIt"><path d="M441.5,6.602 L591.5,6.602 A3.75,3.75 0 0 1 594,9.102 L601,31.6699 L668.5,31.6699 A2.5,2.5 0 0 1 671,34.1699 L671,159.102 A2.5,2.5 0 0 1 668.5,161.602 L441.5,161.602 A2.5,2.5 0 0 1 439,159.102 L439,9.102 A2.5,2.5 0 0 1 441.5,6.602 " fill="none" style="stroke:#000000;stroke-width:1.5;"/><line style="stroke:#000000;stroke-width:1.5;" x1="439" x2="601" y1="31.6699" y2="31.6699"/><text fill="#000000" font-family="sans-serif" font-size="14" font-weight="bold" lengthAdjust="spacing" textLength="149" x="443" y="23.5679">&lt;&lt;aggregate&gt;&gt; PostIt</text></g><!--MD5=[597c9b6a35d8038d4b40fd8870ba90aa]
cluster <<aggregate>> User--><g id="cluster_&lt;&lt;aggregate&gt;&gt; User"><path d="M941.5,626.602 L1081.5,626.602 A3.75,3.75 0 0 1 1084,629.102 L1091,651.6699 L1091.5,651.6699 A2.5,2.5 0 0 1 1094,654.1699 L1094,779.102 A2.5,2.5 0 0 1 1091.5,781.602 L941.5,781.602 A2.5,2.5 0 0 1 939,779.102 L939,629.102 A2.5,2.5 0 0 1 941.5,626.602 " fill="none" style="stroke:#000000;stroke-width:1.5;"/><line style="stroke:#000000;stroke-width:1.5;" x1="939" x2="1091" y1="651.6699" y2="651.6699"/><text fill="#000000" font-family="sans-serif" font-size="14" font-weight="bold" lengthAdjust="spacing" textLength="139" x="943" y="643.5679">&lt;&lt;aggregate&gt;&gt; User</text></g><!--MD5=[9563755d011c5cec7ec66dc53565a59e]
class Board--><g id="elem_Board"><rect codeLine="37" fill="#F5F5DC" height="61.7561" id="Board" rx="2.5" ry="2.5" style="stroke:#181818;stroke-width:0.5;" width="72" x="478" y="270.602"/><ellipse cx="493" cy="301.4801" fill="#ADD1B2" rx="11" ry="11" style="stroke:#181818;stroke-width:1.0;"/><path d="M489.3594,307.9801 L489.3594,295.8394 L497.0156,295.8394 L497.0156,297.9644 L491.7344,297.9644 L491.7344,300.6207 L496.75,300.6207 L496.75,302.7457 L491.7344,302.7457 L491.7344,305.8551 L497.0156,305.8551 L497.0156,307.9801 L489.3594,307.9801 Z " fill="#000000"/><text fill="#000000" font-family="sans-serif" font-size="12" font-style="italic" lengthAdjust="spacing" textLength="42" x="506" y="288.4301">«entity»</text><text fill="#000000" font-family="sans-serif" font-size="12" font-style="italic" lengthAdjust="spacing" textLength="35" x="509.5" y="304.7742">«root»</text><text fill="#000000" font-family="sans-serif" font-size="14" lengthAdjust="spacing" textLength="40" x="507" y="323.2561">Board</text></g><!--MD5=[90111e5cdc788a7ef73a3273c23dcc2b]
class Title--><g id="elem_Title"><rect codeLine="48" fill="#F5F5DC" height="45.412" id="Title" rx="2.5" ry="2.5" style="stroke:#181818;stroke-width:0.5;" width="104" x="218" y="692.602"/><ellipse cx="233" cy="715.308" fill="#FF8B40" rx="11" ry="11" style="stroke:#181818;stroke-width:1.0;"/><path d="M231.7188,722.558 L228.1719,710.4174 L230.6563,710.4174 L232.5,717.6205 Q232.5938,717.9017 232.7031,718.4174 Q232.8125,718.9174 232.9063,719.4486 Q233.0156,719.9799 233.0625,720.3549 L233.2188,720.3549 Q233.2656,719.9799 233.3594,719.4642 Q233.4531,718.933 233.5469,718.433 Q233.6563,717.933 233.7344,717.6205 L235.5156,710.4174 L238.0313,710.4174 L234.4844,722.558 L231.7188,722.558 Z " fill="#000000"/><text fill="#000000" font-family="sans-serif" font-size="12" font-style="italic" lengthAdjust="spacing" textLength="76" x="245" y="710.4301">«value object»</text><text fill="#000000" font-family="sans-serif" font-size="14" lengthAdjust="spacing" textLength="29" x="268.5" y="728.912">Title</text></g><!--MD5=[e06ef809dd6be8ce79b58fe0a1161eb8]
class Column--><g id="elem_Column"><rect codeLine="40" fill="#F5F5DC" height="72.4799" id="Column" rx="2.5" ry="2.5" style="stroke:#181818;stroke-width:0.5;" width="84" x="228" y="460.102"/><ellipse cx="243" cy="482.808" fill="#ADD1B2" rx="11" ry="11" style="stroke:#181818;stroke-width:1.0;"/><path d="M239.3594,489.308 L239.3594,477.1674 L247.0156,477.1674 L247.0156,479.2924 L241.7344,479.2924 L241.7344,481.9486 L246.75,481.9486 L246.75,484.0736 L241.7344,484.0736 L241.7344,487.183 L247.0156,487.183 L247.0156,489.308 L239.3594,489.308 Z " fill="#000000"/><text fill="#000000" font-family="sans-serif" font-size="12" font-style="italic" lengthAdjust="spacing" textLength="42" x="262" y="477.9301">«entity»</text><text fill="#000000" font-family="sans-serif" font-size="14" lengthAdjust="spacing" textLength="52" x="257" y="496.412">Column</text><line style="stroke:#181818;stroke-width:0.5;" x1="229" x2="311" y1="505.514" y2="505.514"/><text fill="#000000" font-family="sans-serif" font-size="14" lengthAdjust="spacing" textLength="59" x="234" y="524.4799">-number</text></g><!--MD5=[05aedcff764caeeb5d443618a4d90de7]
class Row--><g id="elem_Row"><rect codeLine="44" fill="#F5F5DC" height="72.4799" id="Row" rx="2.5" ry="2.5" style="stroke:#181818;stroke-width:0.5;" width="71" x="395.5" y="460.102"/><ellipse cx="410.95" cy="482.808" fill="#ADD1B2" rx="11" ry="11" style="stroke:#181818;stroke-width:1.0;"/><path d="M407.3094,489.308 L407.3094,477.1674 L414.9656,477.1674 L414.9656,479.2924 L409.6844,479.2924 L409.6844,481.9486 L414.7,481.9486 L414.7,484.0736 L409.6844,484.0736 L409.6844,487.183 L414.9656,487.183 L414.9656,489.308 L407.3094,489.308 Z " fill="#000000"/><text fill="#000000" font-family="sans-serif" font-size="12" font-style="italic" lengthAdjust="spacing" textLength="42" x="423.05" y="477.9301">«entity»</text><text fill="#000000" font-family="sans-serif" font-size="14" lengthAdjust="spacing" textLength="28" x="430.05" y="496.412">Row</text><line style="stroke:#181818;stroke-width:0.5;" x1="396.5" x2="465.5" y1="505.514" y2="505.514"/><text fill="#000000" font-family="sans-serif" font-size="14" lengthAdjust="spacing" textLength="59" x="401.5" y="524.4799">-number</text></g><!--MD5=[4a9ad4904d2b4c1fe9826a35b8501244]
class Archived--><g id="elem_Archived"><rect codeLine="50" fill="#F5F5DC" height="72.4799" id="Archived" rx="2.5" ry="2.5" style="stroke:#181818;stroke-width:0.5;" width="104" x="550" y="460.102"/><ellipse cx="565" cy="482.808" fill="#FF8B40" rx="11" ry="11" style="stroke:#181818;stroke-width:1.0;"/><path d="M563.7188,490.058 L560.1719,477.9174 L562.6563,477.9174 L564.5,485.1205 Q564.5938,485.4017 564.7031,485.9174 Q564.8125,486.4174 564.9063,486.9486 Q565.0156,487.4799 565.0625,487.8549 L565.2188,487.8549 Q565.2656,487.4799 565.3594,486.9642 Q565.4531,486.433 565.5469,485.933 Q565.6563,485.433 565.7344,485.1205 L567.5156,477.9174 L570.0313,477.9174 L566.4844,490.058 L563.7188,490.058 Z " fill="#000000"/><text fill="#000000" font-family="sans-serif" font-size="12" font-style="italic" lengthAdjust="spacing" textLength="76" x="577" y="477.9301">«value object»</text><text fill="#000000" font-family="sans-serif" font-size="14" lengthAdjust="spacing" textLength="59" x="585.5" y="496.412">Archived</text><line style="stroke:#181818;stroke-width:0.5;" x1="551" x2="653" y1="505.514" y2="505.514"/><text fill="#000000" font-family="sans-serif" font-size="14" lengthAdjust="spacing" textLength="77" x="556" y="524.4799">-archivedAt</text></g><!--MD5=[a7e0804515709e556f13ed1297f351ac]
class UserPermission--><g id="elem_UserPermission"><rect codeLine="54" fill="#F5F5DC" height="91.5479" id="UserPermission" rx="2.5" ry="2.5" style="stroke:#181818;stroke-width:0.5;" width="137" x="737.5" y="450.602"/><ellipse cx="752.5" cy="473.308" fill="#ADD1B2" rx="11" ry="11" style="stroke:#181818;stroke-width:1.0;"/><path d="M748.8594,479.808 L748.8594,467.6674 L756.5156,467.6674 L756.5156,469.7924 L751.2344,469.7924 L751.2344,472.4486 L756.25,472.4486 L756.25,474.5736 L751.2344,474.5736 L751.2344,477.683 L756.5156,477.683 L756.5156,479.808 L748.8594,479.808 Z " fill="#000000"/><text fill="#000000" font-family="sans-serif" font-size="12" font-style="italic" lengthAdjust="spacing" textLength="42" x="798" y="468.4301">«entity»</text><text fill="#000000" font-family="sans-serif" font-size="14" lengthAdjust="spacing" textLength="105" x="766.5" y="486.912">UserPermission</text><line style="stroke:#181818;stroke-width:0.5;" x1="738.5" x2="873.5" y1="496.014" y2="496.014"/><text fill="#000000" font-family="sans-serif" font-size="14" lengthAdjust="spacing" textLength="70" x="743.5" y="514.9799">-createdAt</text><text fill="#000000" font-family="sans-serif" font-size="14" lengthAdjust="spacing" textLength="76" x="743.5" y="534.0479">-updatedAt</text></g><!--MD5=[804f30b77bc561c03a4e35044fe1a2c4]
class PermissionType--><g id="elem_PermissionType"><rect codeLine="59" fill="#F5F5DC" height="45.412" id="PermissionType" rx="2.5" ry="2.5" style="stroke:#181818;stroke-width:0.5;" width="138" x="737" y="692.602"/><ellipse cx="752" cy="715.308" fill="#FF8B40" rx="11" ry="11" style="stroke:#181818;stroke-width:1.0;"/><path d="M750.7188,722.558 L747.1719,710.4174 L749.6563,710.4174 L751.5,717.6205 Q751.5938,717.9017 751.7031,718.4174 Q751.8125,718.9174 751.9063,719.4486 Q752.0156,719.9799 752.0625,720.3549 L752.2188,720.3549 Q752.2656,719.9799 752.3594,719.4642 Q752.4531,718.933 752.5469,718.433 Q752.6563,717.933 752.7344,717.6205 L754.5156,710.4174 L757.0313,710.4174 L753.4844,722.558 L750.7188,722.558 Z " fill="#000000"/><text fill="#000000" font-family="sans-serif" font-size="12" font-style="italic" lengthAdjust="spacing" textLength="76" x="781" y="710.4301">«value object»</text><text fill="#000000" font-family="sans-serif" font-size="14" lengthAdjust="spacing" textLength="106" x="766" y="728.912">PermissionType</text></g><!--MD5=[458552462bbdcbc92793825846cc11c0]
class PostIt--><g id="elem_PostIt"><rect codeLine="31" fill="#F5F5DC" height="61.7561" id="PostIt" rx="2.5" ry="2.5" style="stroke:#181818;stroke-width:0.5;" width="70" x="479" y="64.602"/><ellipse cx="494" cy="95.4801" fill="#ADD1B2" rx="11" ry="11" style="stroke:#181818;stroke-width:1.0;"/><path d="M490.3594,101.9801 L490.3594,89.8394 L498.0156,89.8394 L498.0156,91.9644 L492.7344,91.9644 L492.7344,94.6207 L497.75,94.6207 L497.75,96.7457 L492.7344,96.7457 L492.7344,99.8551 L498.0156,99.8551 L498.0156,101.9801 L490.3594,101.9801 Z " fill="#000000"/><text fill="#000000" font-family="sans-serif" font-size="12" font-style="italic" lengthAdjust="spacing" textLength="42" x="506" y="82.4301">«entity»</text><text fill="#000000" font-family="sans-serif" font-size="12" font-style="italic" lengthAdjust="spacing" textLength="35" x="509.5" y="98.7742">«root»</text><text fill="#000000" font-family="sans-serif" font-size="14" lengthAdjust="spacing" textLength="38" x="508" y="117.2561">PostIt</text></g><!--MD5=[3fd616f346a44cd59a91eb10b19e157c]
class User--><g id="elem_User"><rect codeLine="34" fill="#F5F5DC" height="61.7561" id="User" rx="2.5" ry="2.5" style="stroke:#181818;stroke-width:0.5;" width="70" x="979" y="684.602"/><ellipse cx="994" cy="715.4801" fill="#ADD1B2" rx="11" ry="11" style="stroke:#181818;stroke-width:1.0;"/><path d="M990.3594,721.9801 L990.3594,709.8394 L998.0156,709.8394 L998.0156,711.9644 L992.7344,711.9644 L992.7344,714.6207 L997.75,714.6207 L997.75,716.7457 L992.7344,716.7457 L992.7344,719.8551 L998.0156,719.8551 L998.0156,721.9801 L990.3594,721.9801 Z " fill="#000000"/><text fill="#000000" font-family="sans-serif" font-size="12" font-style="italic" lengthAdjust="spacing" textLength="42" x="1006" y="702.4301">«entity»</text><text fill="#000000" font-family="sans-serif" font-size="12" font-style="italic" lengthAdjust="spacing" textLength="35" x="1009.5" y="718.7742">«root»</text><text fill="#000000" font-family="sans-serif" font-size="14" lengthAdjust="spacing" textLength="31" x="1011.5" y="737.2561">User</text></g><g id="elem_GMN14"><path d="M776.5,828.602 L776.5,874.014 A0,0 0 0 0 776.5,874.014 L835.5,874.014 A0,0 0 0 0 835.5,874.014 L835.5,838.602 L825.5,828.602 L810,828.602 L806,737.362 L802,828.602 L776.5,828.602 A0,0 0 0 0 776.5,828.602 " fill="#FEFFDD" style="stroke:#181818;stroke-width:0.5;"/><path d="M825.5,828.602 L825.5,838.602 L835.5,838.602 L825.5,828.602 " fill="#FEFFDD" style="stroke:#181818;stroke-width:0.5;"/><text fill="#000000" font-family="sans-serif" font-size="13" lengthAdjust="spacing" textLength="32" x="782.5" y="847.499">READ</text><text fill="#000000" font-family="sans-serif" font-size="13" lengthAdjust="spacing" textLength="38" x="782.5" y="865.205">WRITE</text></g><!--MD5=[01eab5ddfea69a8ec4652490ae920d78]
link Board to Title--><g id="link_Board_Title"><path codeLine="67" d="M478.02,307.092 C382.14,321.192 124.4,364.662 75,430.602 C40.09,477.192 49.49,509.262 75,561.602 C104.34,621.802 170.21,665.212 217.27,689.972 " fill="none" id="Board-to-Title" style="stroke:#222222;stroke-width:1.0;"/><polygon fill="#222222" points="221.33,692.602,215.1865,684.9041,216.8927,690.2975,211.4993,692.0037,221.33,692.602" style="stroke:#222222;stroke-width:1.0;"/><text fill="#000000" font-family="sans-serif" font-size="13" lengthAdjust="spacing" textLength="110" x="76" y="501.499">is characterized by</text><text fill="#000000" font-family="sans-serif" font-size="13" lengthAdjust="spacing" textLength="7" x="202.8573" y="681.9786">1</text></g><!--MD5=[e85cb12d639f92ee13525f287efbade5]
reverse link Board to Column--><g id="link_Board_Column"><path codeLine="68" d="M464.57,310.802 C420.68,320.892 357.42,341.542 317,381.602 C295.49,402.922 283.38,435.512 276.86,460.302 " fill="none" id="Board-backto-Column" style="stroke:#222222;stroke-width:1.0;"/><polygon fill="#222222" points="477.08,307.892,470.3743,305.24,465.3471,310.4099,472.0529,313.0619,477.08,307.892" style="stroke:#222222;stroke-width:1.0;"/><text fill="#000000" font-family="sans-serif" font-size="13" lengthAdjust="spacing" textLength="106" x="318" y="396.499">has a collection of</text><text fill="#000000" font-family="sans-serif" font-size="13" lengthAdjust="spacing" textLength="20" x="256.2124" y="448.0854">1..*</text></g><!--MD5=[c0c9e033076d28baf33fd1d6b7938717]
reverse link Board to Row--><g id="link_Board_Row"><path codeLine="69" d="M468.32,340.812 C457.17,352.712 446.58,366.652 440,381.602 C429.14,406.302 427.3,436.922 427.95,460.142 " fill="none" id="Board-backto-Row" style="stroke:#222222;stroke-width:1.0;"/><polygon fill="#222222" points="477.17,331.912,470.1022,333.3427,468.7045,340.417,475.7723,338.9863,477.17,331.912" style="stroke:#222222;stroke-width:1.0;"/><text fill="#000000" font-family="sans-serif" font-size="13" lengthAdjust="spacing" textLength="106" x="441" y="396.499">has a collection of</text><text fill="#000000" font-family="sans-serif" font-size="13" lengthAdjust="spacing" textLength="20" x="405.3808" y="448.3082">1..*</text></g><!--MD5=[ca6596a255f872499f1bf7547abed126]
reverse link Board to UserPermission--><g id="link_Board_UserPermission"><path codeLine="70" d="M561.43,333.452 C609.56,365.262 684.49,414.792 738.73,450.642 " fill="none" id="Board-backto-UserPermission" style="stroke:#222222;stroke-width:1.0;"/><polygon fill="#222222" points="550.8,325.762,553.5978,332.4082,560.8089,332.3818,558.0111,325.7356,550.8,325.762" style="stroke:#222222;stroke-width:1.0;"/><text fill="#000000" font-family="sans-serif" font-size="13" lengthAdjust="spacing" textLength="106" x="661" y="396.499">has a collection of</text><text fill="#000000" font-family="sans-serif" font-size="13" lengthAdjust="spacing" textLength="20" x="709.3127" y="440.9723">0..*</text></g><!--MD5=[e3d585e4bc3c1b67412a3b04a0c9a31e]
link UserPermission to PermissionType--><g id="link_UserPermission_PermissionType"><path codeLine="72" d="M806,541.532 C806,585.322 806,650.792 806,687.212 " fill="none" id="UserPermission-to-PermissionType" style="stroke:#222222;stroke-width:1.0;"/><polygon fill="#222222" points="806,691.792,810,682.792,806,686.792,802,682.792,806,691.792" style="stroke:#222222;stroke-width:1.0;"/><text fill="#000000" font-family="sans-serif" font-size="13" lengthAdjust="spacing" textLength="21" x="807" y="606.499">has</text><text fill="#000000" font-family="sans-serif" font-size="13" lengthAdjust="spacing" textLength="7" x="797.9719" y="680.6817">1</text></g><!--MD5=[e6b00edee372ba1b9aa377163ef0dd12]
link UserPermission to User--><g id="link_UserPermission_User"><path codeLine="73" d="M835.4,541.342 C852.09,564.082 874.52,591.042 899,610.602 C905.21,615.562 908.51,614.012 915,618.602 C940.38,636.542 965.54,660.932 984.15,680.562 " fill="none" id="UserPermission-to-User" style="stroke:#222222;stroke-width:1.0;"/><polygon fill="#222222" points="987.25,683.932,983.9945,674.6367,983.8232,680.291,978.1689,680.1196,987.25,683.932" style="stroke:#222222;stroke-width:1.0;"/><text fill="#000000" font-family="sans-serif" font-size="13" lengthAdjust="spacing" textLength="64" x="900" y="606.499">belongs to</text><text fill="#000000" font-family="sans-serif" font-size="13" lengthAdjust="spacing" textLength="7" x="974.4859" y="672.8808">1</text></g><!--MD5=[cb7f994e4681ceccb2e25c9fb9f1e058]
link Row to Title--><g id="link_Row_Title"><path codeLine="75" d="M413.73,531.882 C401.62,555.012 384.36,585.632 366,610.602 C344.99,639.172 317.06,668.512 296.74,688.622 " fill="none" id="Row-to-Title" style="stroke:#222222;stroke-width:1.0;"/><polygon fill="#222222" points="293.53,691.772,302.7507,688.311,297.094,688.2652,297.1398,682.6085,293.53,691.772" style="stroke:#222222;stroke-width:1.0;"/><text fill="#000000" font-family="sans-serif" font-size="13" lengthAdjust="spacing" textLength="86" x="379" y="606.499">is identified by</text><text fill="#000000" font-family="sans-serif" font-size="13" lengthAdjust="spacing" textLength="7" x="291.1201" y="680.6559">1</text></g><!--MD5=[e4fcdcc179b6046cd1484a21e20d6ff3]
link Column to Title--><g id="link_Column_Title"><path codeLine="77" d="M270,531.962 C270,575.242 270,648.112 270,687.282 " fill="none" id="Column-to-Title" style="stroke:#222222;stroke-width:1.0;"/><polygon fill="#222222" points="270,691.802,274,682.802,270,686.802,266,682.802,270,691.802" style="stroke:#222222;stroke-width:1.0;"/><text fill="#000000" font-family="sans-serif" font-size="13" lengthAdjust="spacing" textLength="86" x="271" y="606.499">is identified by</text><text fill="#000000" font-family="sans-serif" font-size="13" lengthAdjust="spacing" textLength="7" x="261.9719" y="680.6947">1</text></g><!--MD5=[f5a5fb38a491afdb60656b0cb210e8f1]
link Board to User--><g id="link_Board_User"><path codeLine="79" d="M549.9,303.022 C627.73,307.002 813.23,327.432 916,430.602 C984.93,499.802 1005.46,619.772 1011.51,678.982 " fill="none" id="Board-to-User" style="stroke:#222222;stroke-width:1.0;"/><polygon fill="#222222" points="1012.09,683.862,1015.1959,674.5157,1011.6038,678.8857,1007.2338,675.2936,1012.09,683.862" style="stroke:#222222;stroke-width:1.0;"/><text fill="#000000" font-family="sans-serif" font-size="13" lengthAdjust="spacing" textLength="71" x="988" y="501.499">is owned by</text><text fill="#000000" font-family="sans-serif" font-size="13" lengthAdjust="spacing" textLength="7" x="1003.8389" y="672.7946">1</text></g><!--MD5=[49ad4a3d17db9a8fbbb03e890f160fb5]
link Board to Archived--><g id="link_Board_Archived"><path codeLine="80" d="M528.29,331.442 C535.51,346.402 544.34,364.912 552,381.602 C563.1,405.772 575.13,433.042 584.61,454.792 " fill="none" id="Board-to-Archived" style="stroke:#222222;stroke-width:1.0;"/><polygon fill="#222222" points="586.96,459.202,587.0543,449.3536,584.9732,454.6137,579.7131,452.5325,586.96,459.202" style="stroke:#222222;stroke-width:1.0;"/><text fill="#000000" font-family="sans-serif" font-size="13" lengthAdjust="spacing" textLength="9" x="561" y="396.499">is</text><text fill="#000000" font-family="sans-serif" font-size="13" lengthAdjust="spacing" textLength="20" x="562.0303" y="448.38">0..1</text></g><!--MD5=[bccab53c458f39b9d05cb29ebb056088]
link PostIt to Board--><g id="link_PostIt_Board"><path codeLine="82" d="M514,125.332 C514,162.292 514,225.852 514,265.292 " fill="none" id="PostIt-to-Board" style="stroke:#222222;stroke-width:1.0;"/><polygon fill="#222222" points="514,269.922,518,260.922,514,264.922,510,260.922,514,269.922" style="stroke:#222222;stroke-width:1.0;"/><text fill="#000000" font-family="sans-serif" font-size="13" lengthAdjust="spacing" textLength="64" x="515" y="192.499">belongs to</text><text fill="#000000" font-family="sans-serif" font-size="13" lengthAdjust="spacing" textLength="7" x="506.1906" y="258.8684">1</text></g><!--MD5=[2e589b4200792ea841c56daf157ffb49]
link PostIt to PostIt--><g id="link_PostIt_PostIt"><path codeLine="83" d="M548.71,80.482 C577.7,74.232 608,79.112 608,95.102 C608,110.032 581.59,115.272 554.49,110.812 " fill="none" id="PostIt-to-PostIt" style="stroke:#222222;stroke-width:1.0;"/><polygon fill="#222222" points="549.71,109.722,557.7951,115.3461,554.6204,110.6641,559.3025,107.4894,549.71,109.722" style="stroke:#222222;stroke-width:1.0;"/><text fill="#000000" font-family="sans-serif" font-size="13" lengthAdjust="spacing" textLength="52" x="614" y="100.499">previous</text><text fill="#000000" font-family="sans-serif" font-size="13" lengthAdjust="spacing" textLength="20" x="556.5088" y="113.4758">0..1</text></g><!--MD5=[eeb10554a4f1393995df4bc08113db9c]
@startuml DM-BOARD
'https://plantuml.com/class-diagram

skinparam classAttributeIconSize 0
hide empty attributes
hide empty methods
skinparam classBackgroundColor beige
skinparam ArrowColor #222222

package "<<aggregate>> Board" {
  entity Board

  class Title
  entity Column
  entity Row

  class Archived

  entity UserPermission

  class PermissionType
}

package "<<aggregate>> PostIt" {
  entity PostIt
}

package "<<aggregate>> User" {
  entity User
}

entity PostIt <<entity>> <<root>> {
}

entity User <<entity>> <<root>> {
}

entity Board <<entity>> <<root>> {
}

entity Column <<entity>> {
  - number
}

entity Row <<entity>> {
  - number
}

class Title <<(V,#FF8B40) value object>> {}

class Archived <<(V,#FF8B40) value object>> {
  - archivedAt
}

entity UserPermission <<entity>> {
  -createdAt
  -updatedAt
}

class PermissionType <<(V,#FF8B40) value object>> {
}

note bottom of PermissionType
  READ
  WRITE
end note

Board - -> "1" Title : is characterized by
Board *- - "1..*" Column : has a collection of
Board *- - "1..*" Row : has a collection of
Board *- - "0..*" UserPermission : has a collection of

UserPermission - -> "1" PermissionType : has
UserPermission - -> "1" User : belongs to

Row - -> "1" Title : is identified by

Column - -> "1" Title : is identified by

Board - -> "1" User : is owned by
Board - -> "0..1" Archived : is

PostIt - -> "1" Board : belongs to
PostIt - -> "0..1" PostIt : previous

@enduml

@startuml DM-BOARD

skinparam classAttributeIconSize 0
hide empty attributes
hide empty methods
skinparam classBackgroundColor beige
skinparam ArrowColor #222222

package "<<aggregate>> Board" {
  entity Board

  class Title
  entity Column
  entity Row

  class Archived

  entity UserPermission

  class PermissionType
}

package "<<aggregate>> PostIt" {
  entity PostIt
}

package "<<aggregate>> User" {
  entity User
}

entity PostIt <<entity>> <<root>> {
}

entity User <<entity>> <<root>> {
}

entity Board <<entity>> <<root>> {
}

entity Column <<entity>> {
  - number
}

entity Row <<entity>> {
  - number
}

class Title <<(V,#FF8B40) value object>> {}

class Archived <<(V,#FF8B40) value object>> {
  - archivedAt
}

entity UserPermission <<entity>> {
  -createdAt
  -updatedAt
}

class PermissionType <<(V,#FF8B40) value object>> {
}

note bottom of PermissionType
  READ
  WRITE
end note

Board - -> "1" Title : is characterized by
Board *- - "1..*" Column : has a collection of
Board *- - "1..*" Row : has a collection of
Board *- - "0..*" UserPermission : has a collection of

UserPermission - -> "1" PermissionType : has
UserPermission - -> "1" User : belongs to

Row - -> "1" Title : is identified by

Column - -> "1" Title : is identified by

Board - -> "1" User : is owned by
Board - -> "0..1" Archived : is

PostIt - -> "1" Board : belongs to
PostIt - -> "0..1" PostIt : previous

@enduml

PlantUML version 1.2022.7(Mon Aug 22 18:01:30 WEST 2022)
(GPL source distribution)
Java Runtime: OpenJDK Runtime Environment
JVM: OpenJDK 64-Bit Server VM
Default Encoding: UTF-8
Language: en
Country: GB
--></g></svg>