<?xml version="1.0" encoding="UTF-8" standalone="no"?><svg xmlns="http://www.w3.org/2000/svg" xmlns:xlink="http://www.w3.org/1999/xlink" contentStyleType="text/css" height="441px" preserveAspectRatio="none" style="width:452px;height:441px;background:#FFFFFF;" version="1.1" viewBox="0 0 452 441" width="452px" zoomAndPan="magnify"><defs/><g><rect fill="#FFFFFF" height="245.6481" style="stroke:#181818;stroke-width:1.0;" width="10" x="18.5" y="94.0679"/><rect fill="#FFFFFF" height="31.706" style="stroke:#181818;stroke-width:1.0;" width="10" x="410.5" y="117.7739"/><rect fill="#FFFFFF" height="31.706" style="stroke:#181818;stroke-width:1.0;" width="10" x="410.5" y="181.186"/><rect fill="#FFFFFF" height="31.706" style="stroke:#181818;stroke-width:1.0;" width="10" x="410.5" y="244.598"/><rect fill="#FFFFFF" height="31.706" style="stroke:#181818;stroke-width:1.0;" width="10" x="410.5" y="308.01"/><line style="stroke:#181818;stroke-width:0.5;stroke-dasharray:5.0,5.0;" x1="23" x2="23" y1="84.0679" y2="357.716"/><line style="stroke:#181818;stroke-width:0.5;stroke-dasharray:5.0,5.0;" x1="415.5" x2="415.5" y1="84.0679" y2="357.716"/><text fill="#000000" font-family="sans-serif" font-size="14" lengthAdjust="spacing" textLength="31" x="5" y="79.9659">User</text><ellipse cx="23.5" cy="13.5" fill="#E2E2F0" rx="8" ry="8" style="stroke:#181818;stroke-width:0.5;"/><path d="M23.5,21.5 L23.5,48.5 M10.5,29.5 L36.5,29.5 M23.5,48.5 L10.5,63.5 M23.5,48.5 L36.5,63.5 " fill="none" style="stroke:#181818;stroke-width:0.5;"/><text fill="#000000" font-family="sans-serif" font-size="14" lengthAdjust="spacing" textLength="31" x="5" y="371.682">User</text><ellipse cx="23.5" cy="384.284" fill="#E2E2F0" rx="8" ry="8" style="stroke:#181818;stroke-width:0.5;"/><path d="M23.5,392.284 L23.5,419.284 M10.5,400.284 L36.5,400.284 M23.5,419.284 L10.5,434.284 M23.5,419.284 L36.5,434.284 " fill="none" style="stroke:#181818;stroke-width:0.5;"/><rect fill="#E2E2F0" height="33.0679" rx="2.5" ry="2.5" style="stroke:#181818;stroke-width:0.5;" width="62" x="384.5" y="50"/><text fill="#000000" font-family="sans-serif" font-size="14" lengthAdjust="spacing" textLength="48" x="391.5" y="71.9659">System</text><rect fill="#E2E2F0" height="33.0679" rx="2.5" ry="2.5" style="stroke:#181818;stroke-width:0.5;" width="62" x="384.5" y="356.716"/><text fill="#000000" font-family="sans-serif" font-size="14" lengthAdjust="spacing" textLength="48" x="391.5" y="378.682">System</text><rect fill="#FFFFFF" height="245.6481" style="stroke:#181818;stroke-width:1.0;" width="10" x="18.5" y="94.0679"/><rect fill="#FFFFFF" height="31.706" style="stroke:#181818;stroke-width:1.0;" width="10" x="410.5" y="117.7739"/><rect fill="#FFFFFF" height="31.706" style="stroke:#181818;stroke-width:1.0;" width="10" x="410.5" y="181.186"/><rect fill="#FFFFFF" height="31.706" style="stroke:#181818;stroke-width:1.0;" width="10" x="410.5" y="244.598"/><rect fill="#FFFFFF" height="31.706" style="stroke:#181818;stroke-width:1.0;" width="10" x="410.5" y="308.01"/><polygon fill="#181818" points="398.5,113.7739,408.5,117.7739,398.5,121.7739,402.5,117.7739" style="stroke:#181818;stroke-width:1.0;"/><line style="stroke:#181818;stroke-width:1.0;" x1="28.5" x2="404.5" y1="117.7739" y2="117.7739"/><text fill="#000000" font-family="sans-serif" font-size="13" font-weight="bold" lengthAdjust="spacing" textLength="7" x="35.5" y="111.9649">1</text><text fill="#000000" font-family="sans-serif" font-size="13" lengthAdjust="spacing" textLength="251" x="46.5" y="111.9649">wants to share a board with someone else</text><polygon fill="#181818" points="39.5,145.4799,29.5,149.4799,39.5,153.4799,35.5,149.4799" style="stroke:#181818;stroke-width:1.0;"/><line style="stroke:#181818;stroke-width:1.0;stroke-dasharray:2.0,2.0;" x1="33.5" x2="414.5" y1="149.4799" y2="149.4799"/><text fill="#000000" font-family="sans-serif" font-size="13" font-weight="bold" lengthAdjust="spacing" textLength="7" x="45.5" y="143.6709">2</text><text fill="#000000" font-family="sans-serif" font-size="13" lengthAdjust="spacing" textLength="211" x="56.5" y="143.6709">lists the boards the user is owner of</text><polygon fill="#181818" points="398.5,177.186,408.5,181.186,398.5,185.186,402.5,181.186" style="stroke:#181818;stroke-width:1.0;"/><line style="stroke:#181818;stroke-width:1.0;" x1="28.5" x2="404.5" y1="181.186" y2="181.186"/><text fill="#000000" font-family="sans-serif" font-size="13" font-weight="bold" lengthAdjust="spacing" textLength="7" x="35.5" y="175.377">3</text><text fill="#000000" font-family="sans-serif" font-size="13" lengthAdjust="spacing" textLength="89" x="46.5" y="175.377">selects a board</text><polygon fill="#181818" points="39.5,208.892,29.5,212.892,39.5,216.892,35.5,212.892" style="stroke:#181818;stroke-width:1.0;"/><line style="stroke:#181818;stroke-width:1.0;stroke-dasharray:2.0,2.0;" x1="33.5" x2="414.5" y1="212.892" y2="212.892"/><text fill="#000000" font-family="sans-serif" font-size="13" font-weight="bold" lengthAdjust="spacing" textLength="7" x="45.5" y="207.083">4</text><text fill="#000000" font-family="sans-serif" font-size="13" lengthAdjust="spacing" textLength="347" x="56.5" y="207.083">asks to insert the email of the user to share the board with</text><polygon fill="#181818" points="398.5,240.598,408.5,244.598,398.5,248.598,402.5,244.598" style="stroke:#181818;stroke-width:1.0;"/><line style="stroke:#181818;stroke-width:1.0;" x1="28.5" x2="404.5" y1="244.598" y2="244.598"/><text fill="#000000" font-family="sans-serif" font-size="13" font-weight="bold" lengthAdjust="spacing" textLength="7" x="35.5" y="238.789">5</text><text fill="#000000" font-family="sans-serif" font-size="13" lengthAdjust="spacing" textLength="308" x="46.5" y="238.789">inserts the email of the user to share the board with</text><polygon fill="#181818" points="39.5,272.304,29.5,276.304,39.5,280.304,35.5,276.304" style="stroke:#181818;stroke-width:1.0;"/><line style="stroke:#181818;stroke-width:1.0;stroke-dasharray:2.0,2.0;" x1="33.5" x2="414.5" y1="276.304" y2="276.304"/><text fill="#000000" font-family="sans-serif" font-size="13" font-weight="bold" lengthAdjust="spacing" textLength="7" x="45.5" y="270.495">6</text><text fill="#000000" font-family="sans-serif" font-size="13" lengthAdjust="spacing" textLength="273" x="56.5" y="270.495">asks the permission type to assign to the user</text><polygon fill="#181818" points="398.5,304.01,408.5,308.01,398.5,312.01,402.5,308.01" style="stroke:#181818;stroke-width:1.0;"/><line style="stroke:#181818;stroke-width:1.0;" x1="28.5" x2="404.5" y1="308.01" y2="308.01"/><text fill="#000000" font-family="sans-serif" font-size="13" font-weight="bold" lengthAdjust="spacing" textLength="7" x="35.5" y="302.201">7</text><text fill="#000000" font-family="sans-serif" font-size="13" lengthAdjust="spacing" textLength="287" x="46.5" y="302.201">selects the permission type to assign to the user</text><polygon fill="#181818" points="34.5,335.716,24.5,339.716,34.5,343.716,30.5,339.716" style="stroke:#181818;stroke-width:1.0;"/><line style="stroke:#181818;stroke-width:1.0;stroke-dasharray:2.0,2.0;" x1="28.5" x2="414.5" y1="339.716" y2="339.716"/><text fill="#000000" font-family="sans-serif" font-size="13" font-weight="bold" lengthAdjust="spacing" textLength="7" x="40.5" y="333.907">8</text><text fill="#000000" font-family="sans-serif" font-size="13" lengthAdjust="spacing" textLength="179" x="51.5" y="333.907">informs the operation success</text><!--MD5=[c46b252f8f0aef952165b64c07457d74]
@startuml US3004_SSD
autonumber

actor "User" as U
participant "System" as SYS

activate U

U -> SYS : wants to share a board with someone else
activate SYS
SYS - -> U : lists the boards the user is owner of
deactivate SYS

U -> SYS : selects a board
activate SYS
SYS - -> U : asks to insert the email of the user to share the board with
deactivate SYS

U -> SYS : inserts the email of the user to share the board with
activate SYS
SYS - -> U : asks the permission type to assign to the user
deactivate SYS

U -> SYS : selects the permission type to assign to the user
activate SYS
SYS - -> U : informs the operation success
deactivate SYS

deactivate U

@enduml

PlantUML version 1.2022.7(Mon Aug 22 18:01:30 WEST 2022)
(GPL source distribution)
Java Runtime: OpenJDK Runtime Environment
JVM: OpenJDK 64-Bit Server VM
Default Encoding: UTF-8
Language: en
Country: GB
--></g></svg>