<?xml version="1.0" encoding="UTF-8" standalone="no"?><svg xmlns="http://www.w3.org/2000/svg" xmlns:xlink="http://www.w3.org/1999/xlink" contentStyleType="text/css" height="974px" preserveAspectRatio="none" style="width:1460px;height:974px;background:#FFFFFF;" version="1.1" viewBox="0 0 1460 974" width="1460px" zoomAndPan="magnify"><defs/><g><!--cluster <<agregate>> Question--><g id="cluster_&lt;&lt;agregate&gt;&gt; Question"><path d="M156,473.36 L361.25,473.36 A3.75,3.75 0 0 1 363.75,475.86 L370.75,506.6 L1227,506.6 A2.5,2.5 0 0 1 1229.5,509.1 L1229.5,964.86 A2.5,2.5 0 0 1 1227,967.36 L156,967.36 A2.5,2.5 0 0 1 153.5,964.86 L153.5,475.86 A2.5,2.5 0 0 1 156,473.36 " fill="none" style="stroke:#000000;stroke-width:1.5;"/><line style="stroke:#000000;stroke-width:1.5;" x1="153.5" x2="370.75" y1="506.6" y2="506.6"/><text fill="#000000" font-family="sans-serif" font-size="20" font-weight="bold" lengthAdjust="spacing" textLength="204.25" x="157.5" y="496.74">«agregate» Question</text></g><!--cluster <<agregate>> Exam--><g id="cluster_&lt;&lt;agregate&gt;&gt; Exam"><path d="M636,8.36 L805.75,8.36 A3.75,3.75 0 0 1 808.25,10.86 L815.25,41.6 L851,41.6 A2.5,2.5 0 0 1 853.5,44.1 L853.5,409.86 A2.5,2.5 0 0 1 851,412.36 L636,412.36 A2.5,2.5 0 0 1 633.5,409.86 L633.5,10.86 A2.5,2.5 0 0 1 636,8.36 " fill="none" style="stroke:#000000;stroke-width:1.5;"/><line style="stroke:#000000;stroke-width:1.5;" x1="633.5" x2="815.25" y1="41.6" y2="41.6"/><text fill="#000000" font-family="sans-serif" font-size="20" font-weight="bold" lengthAdjust="spacing" textLength="168.75" x="637.5" y="31.74">«agregate» Exam</text></g><!--cluster <<agregate>> Course--><g id="cluster_&lt;&lt;agregate&gt;&gt; Course"><path d="M1256,686.36 L1441,686.36 A3.75,3.75 0 0 1 1443.5,688.86 L1450.5,719.6 L1451,719.6 A2.5,2.5 0 0 1 1453.5,722.1 L1453.5,837.86 A2.5,2.5 0 0 1 1451,840.36 L1256,840.36 A2.5,2.5 0 0 1 1253.5,837.86 L1253.5,688.86 A2.5,2.5 0 0 1 1256,686.36 " fill="none" style="stroke:#000000;stroke-width:1.5;"/><line style="stroke:#000000;stroke-width:1.5;" x1="1253.5" x2="1450.5" y1="719.6" y2="719.6"/><text fill="#000000" font-family="sans-serif" font-size="20" font-weight="bold" lengthAdjust="spacing" textLength="184" x="1257.5" y="709.74">«agregate» Course</text></g><!--class Question--><g id="elem_Question"><rect codeLine="28" fill="#F5F5DC" height="91.7199" id="Question" rx="2.5" ry="2.5" style="stroke:#181818;stroke-width:0.5;" width="114" x="686.5" y="519.36"/><ellipse cx="702.5" cy="565.22" fill="#A9DCDF" rx="12" ry="12" style="stroke:#181818;stroke-width:1.0;"/><path d="M706.5,571.22 L704.7813,566.7981 L699.5469,566.7981 L697.8438,571.22 L695.3594,571.22 L701.1719,556.2512 L703.2344,556.2512 L709.0313,571.22 L706.5,571.22 Z M702.5625,560.6731 Q702.5,560.5168 702.3594,560.095 Q702.2188,559.6575 702.0781,559.22 Q701.9531,558.7668 702.1875,558.7043 Q702.375,558.9075 702.2656,559.3293 Q702.1563,559.7356 702.0313,560.0793 Q701.9219,560.4231 701.8438,560.6731 L700.3906,564.5793 L704,564.5793 L702.5625,560.6731 Z " fill="#000000"/><text fill="#000000" font-family="sans-serif" font-size="20" font-style="italic" lengthAdjust="spacing" textLength="70" x="722.5" y="545.74">«entity»</text><text fill="#000000" font-family="sans-serif" font-size="20" font-style="italic" lengthAdjust="spacing" textLength="57" x="729" y="572.9799">«root»</text><text fill="#000000" font-family="sans-serif" font-size="20" font-style="italic" lengthAdjust="spacing" textLength="80" x="717.5" y="600.2199">Question</text></g><!--class QuestionBody--><g id="elem_QuestionBody"><rect codeLine="48" fill="#F5F5DC" height="64.4799" id="QuestionBody" rx="2.5" ry="2.5" style="stroke:#181818;stroke-width:0.5;" width="166" x="835.5" y="533.36"/><ellipse cx="851.5" cy="565.6" fill="#FF8B40" rx="12" ry="12" style="stroke:#181818;stroke-width:1.0;"/><path d="M857.75,559.4437 L852.4375,574.35 L850.1875,574.35 L844.875,559.4437 L847.4063,559.4437 L850.7031,568.8031 Q850.9219,569.3968 851.0781,569.9437 Q851.25,570.4906 851.375,570.9906 Q851.5156,571.475 851.3125,571.5218 Q851.0938,571.4906 851.2344,570.975 Q851.375,570.4593 851.5469,569.9281 Q851.7188,569.3812 851.9219,568.7718 L855.1875,559.4437 L857.75,559.4437 Z " fill="#000000"/><text fill="#000000" font-family="sans-serif" font-size="20" font-style="italic" lengthAdjust="spacing" textLength="126" x="869.5" y="559.74">«value object»</text><text fill="#000000" font-family="sans-serif" font-size="20" lengthAdjust="spacing" textLength="132" x="866.5" y="586.9799">QuestionBody</text></g><!--class CorrectAnswer--><g id="elem_CorrectAnswer"><rect codeLine="49" fill="#F5F5DC" height="64.4799" id="CorrectAnswer" rx="2.5" ry="2.5" style="stroke:#181818;stroke-width:0.5;" width="173" x="442" y="746.36"/><ellipse cx="458" cy="778.6" fill="#FF8B40" rx="12" ry="12" style="stroke:#181818;stroke-width:1.0;"/><path d="M464.25,772.4437 L458.9375,787.35 L456.6875,787.35 L451.375,772.4437 L453.9063,772.4437 L457.2031,781.8031 Q457.4219,782.3968 457.5781,782.9437 Q457.75,783.4906 457.875,783.9906 Q458.0156,784.475 457.8125,784.5218 Q457.5938,784.4906 457.7344,783.975 Q457.875,783.4593 458.0469,782.9281 Q458.2188,782.3812 458.4219,781.7718 L461.6875,772.4437 L464.25,772.4437 Z " fill="#000000"/><text fill="#000000" font-family="sans-serif" font-size="20" font-style="italic" lengthAdjust="spacing" textLength="126" x="479.5" y="772.74">«value object»</text><text fill="#000000" font-family="sans-serif" font-size="20" lengthAdjust="spacing" textLength="139" x="473" y="799.9799">CorrectAnswer</text></g><!--class Matching--><g id="elem_Matching"><rect codeLine="71" fill="#F5F5DC" height="64.4799" id="Matching" rx="2.5" ry="2.5" style="stroke:#181818;stroke-width:0.5;" width="121" x="170" y="887.36"/><ellipse cx="186" cy="919.6" fill="#ADD1B2" rx="12" ry="12" style="stroke:#181818;stroke-width:1.0;"/><path d="M190.0469,927.1 L181.4375,927.1 L181.4375,912.1937 L190.0469,912.1937 L190.0469,914.3968 L183.8594,914.3968 L183.8594,918.2406 L189.6875,918.2406 L189.6875,920.4125 L183.8594,920.4125 L183.8594,924.8968 L190.0469,924.8968 L190.0469,927.1 Z " fill="#000000"/><text fill="#000000" font-family="sans-serif" font-size="20" font-style="italic" lengthAdjust="spacing" textLength="70" x="209.5" y="913.74">«entity»</text><text fill="#000000" font-family="sans-serif" font-size="20" lengthAdjust="spacing" textLength="87" x="201" y="940.9799">Matching</text></g><!--class MultipleChoice--><g id="elem_MultipleChoice"><rect codeLine="72" fill="#F5F5DC" height="64.4799" id="MultipleChoice" rx="2.5" ry="2.5" style="stroke:#181818;stroke-width:0.5;" width="172" x="326.5" y="887.36"/><ellipse cx="342.5" cy="919.6" fill="#ADD1B2" rx="12" ry="12" style="stroke:#181818;stroke-width:1.0;"/><path d="M346.5469,927.1 L337.9375,927.1 L337.9375,912.1937 L346.5469,912.1937 L346.5469,914.3968 L340.3594,914.3968 L340.3594,918.2406 L346.1875,918.2406 L346.1875,920.4125 L340.3594,920.4125 L340.3594,924.8968 L346.5469,924.8968 L346.5469,927.1 Z " fill="#000000"/><text fill="#000000" font-family="sans-serif" font-size="20" font-style="italic" lengthAdjust="spacing" textLength="70" x="391.5" y="913.74">«entity»</text><text fill="#000000" font-family="sans-serif" font-size="20" lengthAdjust="spacing" textLength="138" x="357.5" y="940.9799">MultipleChoice</text></g><!--class ShortAnswer--><g id="elem_ShortAnswer"><rect codeLine="73" fill="#F5F5DC" height="64.4799" id="ShortAnswer" rx="2.5" ry="2.5" style="stroke:#181818;stroke-width:0.5;" width="154" x="533.5" y="887.36"/><ellipse cx="549.5" cy="919.6" fill="#ADD1B2" rx="12" ry="12" style="stroke:#181818;stroke-width:1.0;"/><path d="M553.5469,927.1 L544.9375,927.1 L544.9375,912.1937 L553.5469,912.1937 L553.5469,914.3968 L547.3594,914.3968 L547.3594,918.2406 L553.1875,918.2406 L553.1875,920.4125 L547.3594,920.4125 L547.3594,924.8968 L553.5469,924.8968 L553.5469,927.1 Z " fill="#000000"/><text fill="#000000" font-family="sans-serif" font-size="20" font-style="italic" lengthAdjust="spacing" textLength="70" x="589.5" y="913.74">«entity»</text><text fill="#000000" font-family="sans-serif" font-size="20" lengthAdjust="spacing" textLength="120" x="564.5" y="940.9799">ShortAnswer</text></g><!--class Numerical--><g id="elem_Numerical"><rect codeLine="74" fill="#F5F5DC" height="64.4799" id="Numerical" rx="2.5" ry="2.5" style="stroke:#181818;stroke-width:0.5;" width="130" x="722.5" y="887.36"/><ellipse cx="738.5" cy="919.6" fill="#ADD1B2" rx="12" ry="12" style="stroke:#181818;stroke-width:1.0;"/><path d="M742.5469,927.1 L733.9375,927.1 L733.9375,912.1937 L742.5469,912.1937 L742.5469,914.3968 L736.3594,914.3968 L736.3594,918.2406 L742.1875,918.2406 L742.1875,920.4125 L736.3594,920.4125 L736.3594,924.8968 L742.5469,924.8968 L742.5469,927.1 Z " fill="#000000"/><text fill="#000000" font-family="sans-serif" font-size="20" font-style="italic" lengthAdjust="spacing" textLength="70" x="766.5" y="913.74">«entity»</text><text fill="#000000" font-family="sans-serif" font-size="20" lengthAdjust="spacing" textLength="96" x="753.5" y="940.9799">Numerical</text></g><!--class MissingWords--><g id="elem_MissingWords"><rect codeLine="75" fill="#F5F5DC" height="64.4799" id="MissingWords" rx="2.5" ry="2.5" style="stroke:#181818;stroke-width:0.5;" width="167" x="888" y="887.36"/><ellipse cx="904" cy="919.6" fill="#ADD1B2" rx="12" ry="12" style="stroke:#181818;stroke-width:1.0;"/><path d="M908.0469,927.1 L899.4375,927.1 L899.4375,912.1937 L908.0469,912.1937 L908.0469,914.3968 L901.8594,914.3968 L901.8594,918.2406 L907.6875,918.2406 L907.6875,920.4125 L901.8594,920.4125 L901.8594,924.8968 L908.0469,924.8968 L908.0469,927.1 Z " fill="#000000"/><text fill="#000000" font-family="sans-serif" font-size="20" font-style="italic" lengthAdjust="spacing" textLength="70" x="950.5" y="913.74">«entity»</text><text fill="#000000" font-family="sans-serif" font-size="20" lengthAdjust="spacing" textLength="133" x="919" y="940.9799">MissingWords</text></g><!--class TrueFalse--><g id="elem_TrueFalse"><rect codeLine="76" fill="#F5F5DC" height="64.4799" id="TrueFalse" rx="2.5" ry="2.5" style="stroke:#181818;stroke-width:0.5;" width="123" x="1090" y="887.36"/><ellipse cx="1106" cy="919.6" fill="#ADD1B2" rx="12" ry="12" style="stroke:#181818;stroke-width:1.0;"/><path d="M1110.0469,927.1 L1101.4375,927.1 L1101.4375,912.1937 L1110.0469,912.1937 L1110.0469,914.3968 L1103.8594,914.3968 L1103.8594,918.2406 L1109.6875,918.2406 L1109.6875,920.4125 L1103.8594,920.4125 L1103.8594,924.8968 L1110.0469,924.8968 L1110.0469,927.1 Z " fill="#000000"/><text fill="#000000" font-family="sans-serif" font-size="20" font-style="italic" lengthAdjust="spacing" textLength="70" x="1130.5" y="913.74">«entity»</text><text fill="#000000" font-family="sans-serif" font-size="20" lengthAdjust="spacing" textLength="89" x="1121" y="940.9799">TrueFalse</text></g><!--class QuestionType--><g id="elem_QuestionType"><rect codeLine="50" fill="#F5F5DC" height="64.4799" id="QuestionType" rx="2.5" ry="2.5" style="stroke:#181818;stroke-width:0.5;" width="163" x="220" y="746.36"/><ellipse cx="236" cy="778.6" fill="#FF8B40" rx="12" ry="12" style="stroke:#181818;stroke-width:1.0;"/><path d="M242.25,772.4437 L236.9375,787.35 L234.6875,787.35 L229.375,772.4437 L231.9063,772.4437 L235.2031,781.8031 Q235.4219,782.3968 235.5781,782.9437 Q235.75,783.4906 235.875,783.9906 Q236.0156,784.475 235.8125,784.5218 Q235.5938,784.4906 235.7344,783.975 Q235.875,783.4593 236.0469,782.9281 Q236.2188,782.3812 236.4219,781.7718 L239.6875,772.4437 L242.25,772.4437 Z " fill="#000000"/><text fill="#000000" font-family="sans-serif" font-size="20" font-style="italic" lengthAdjust="spacing" textLength="126" x="252.5" y="772.74">«value object»</text><text fill="#000000" font-family="sans-serif" font-size="20" lengthAdjust="spacing" textLength="129" x="251" y="799.9799">QuestionType</text></g><!--class Feedback--><g id="elem_Feedback"><rect codeLine="51" fill="#F5F5DC" height="64.4799" id="Feedback" rx="2.5" ry="2.5" style="stroke:#181818;stroke-width:0.5;" width="156" x="872.5" y="746.36"/><ellipse cx="888.5" cy="778.6" fill="#FF8B40" rx="12" ry="12" style="stroke:#181818;stroke-width:1.0;"/><path d="M894.75,772.4437 L889.4375,787.35 L887.1875,787.35 L881.875,772.4437 L884.4063,772.4437 L887.7031,781.8031 Q887.9219,782.3968 888.0781,782.9437 Q888.25,783.4906 888.375,783.9906 Q888.5156,784.475 888.3125,784.5218 Q888.0938,784.4906 888.2344,783.975 Q888.375,783.4593 888.5469,782.9281 Q888.7188,782.3812 888.9219,781.7718 L892.1875,772.4437 L894.75,772.4437 Z " fill="#000000"/><text fill="#000000" font-family="sans-serif" font-size="20" font-style="italic" lengthAdjust="spacing" textLength="126" x="901.5" y="772.74">«value object»</text><text fill="#000000" font-family="sans-serif" font-size="20" lengthAdjust="spacing" textLength="88" x="920.5" y="799.9799">Feedback</text></g><!--class Exam--><g id="elem_Exam"><rect codeLine="42" fill="#F5F5DC" height="91.7199" id="Exam" rx="2.5" ry="2.5" style="stroke:#181818;stroke-width:0.5;" width="100" x="693.5" y="54.36"/><ellipse cx="709.5" cy="100.22" fill="#ADD1B2" rx="12" ry="12" style="stroke:#181818;stroke-width:1.0;"/><path d="M713.5469,107.72 L704.9375,107.72 L704.9375,92.8137 L713.5469,92.8137 L713.5469,95.0168 L707.3594,95.0168 L707.3594,98.8606 L713.1875,98.8606 L713.1875,101.0325 L707.3594,101.0325 L707.3594,105.5168 L713.5469,105.5168 L713.5469,107.72 Z " fill="#000000"/><text fill="#000000" font-family="sans-serif" font-size="20" font-style="italic" lengthAdjust="spacing" textLength="70" x="722.5" y="80.74">«entity»</text><text fill="#000000" font-family="sans-serif" font-size="20" font-style="italic" lengthAdjust="spacing" textLength="57" x="729" y="107.9799">«root»</text><text fill="#000000" font-family="sans-serif" font-size="20" lengthAdjust="spacing" textLength="52" x="731.5" y="135.2199">Exam</text></g><!--class Section--><g id="elem_Section"><rect codeLine="43" fill="#F5F5DC" height="64.4799" id="Section" rx="2.5" ry="2.5" style="stroke:#181818;stroke-width:0.5;" width="102" x="692.5" y="207.36"/><ellipse cx="708.5" cy="239.6" fill="#ADD1B2" rx="12" ry="12" style="stroke:#181818;stroke-width:1.0;"/><path d="M712.5469,247.1 L703.9375,247.1 L703.9375,232.1937 L712.5469,232.1937 L712.5469,234.3968 L706.3594,234.3968 L706.3594,238.2406 L712.1875,238.2406 L712.1875,240.4125 L706.3594,240.4125 L706.3594,244.8968 L712.5469,244.8968 L712.5469,247.1 Z " fill="#000000"/><text fill="#000000" font-family="sans-serif" font-size="20" font-style="italic" lengthAdjust="spacing" textLength="70" x="722.5" y="233.74">«entity»</text><text fill="#000000" font-family="sans-serif" font-size="20" lengthAdjust="spacing" textLength="68" x="723.5" y="260.9799">Section</text></g><!--class SectionQuestion--><g id="elem_SectionQuestion"><rect codeLine="44" fill="#F5F5DC" height="64.4799" id="SectionQuestion" rx="2.5" ry="2.5" style="stroke:#181818;stroke-width:0.5;" width="187" x="650" y="332.36"/><ellipse cx="666" cy="364.6" fill="#ADD1B2" rx="12" ry="12" style="stroke:#181818;stroke-width:1.0;"/><path d="M670.0469,372.1 L661.4375,372.1 L661.4375,357.1937 L670.0469,357.1937 L670.0469,359.3968 L663.8594,359.3968 L663.8594,363.2406 L669.6875,363.2406 L669.6875,365.4125 L663.8594,365.4125 L663.8594,369.8968 L670.0469,369.8968 L670.0469,372.1 Z " fill="#000000"/><text fill="#000000" font-family="sans-serif" font-size="20" font-style="italic" lengthAdjust="spacing" textLength="70" x="722.5" y="358.74">«entity»</text><text fill="#000000" font-family="sans-serif" font-size="20" lengthAdjust="spacing" textLength="153" x="681" y="385.9799">SectionQuestion</text></g><!--class Course--><g id="elem_Course"><rect codeLine="40" fill="#F5F5DC" height="91.7199" id="Course" rx="2.5" ry="2.5" style="stroke:#181818;stroke-width:0.5;" width="100" x="1269.5" y="732.36"/><ellipse cx="1285.5" cy="778.22" fill="#ADD1B2" rx="12" ry="12" style="stroke:#181818;stroke-width:1.0;"/><path d="M1289.5469,785.72 L1280.9375,785.72 L1280.9375,770.8137 L1289.5469,770.8137 L1289.5469,773.0168 L1283.3594,773.0168 L1283.3594,776.8606 L1289.1875,776.8606 L1289.1875,779.0325 L1283.3594,779.0325 L1283.3594,783.5168 L1289.5469,783.5168 L1289.5469,785.72 Z " fill="#000000"/><text fill="#000000" font-family="sans-serif" font-size="20" font-style="italic" lengthAdjust="spacing" textLength="70" x="1298.5" y="758.74">«entity»</text><text fill="#000000" font-family="sans-serif" font-size="20" font-style="italic" lengthAdjust="spacing" textLength="57" x="1305" y="785.9799">«root»</text><text fill="#000000" font-family="sans-serif" font-size="20" lengthAdjust="spacing" textLength="66" x="1300.5" y="813.2199">Course</text></g><g id="elem_GMN21"><path d="M6,746.36 L6,810.8399 A0,0 0 0 0 6,810.8399 L137,810.8399 A0,0 0 0 0 137,810.8399 L137,782.36 L219.61,778.36 L137,774.36 L137,756.36 L127,746.36 L6,746.36 A0,0 0 0 0 6,746.36 " fill="#FEFFDD" style="stroke:#181818;stroke-width:0.5;"/><path d="M127,746.36 L127,756.36 L137,756.36 L127,746.36 " fill="#FEFFDD" style="stroke:#181818;stroke-width:0.5;"/><text fill="#000000" font-family="sans-serif" font-size="20" lengthAdjust="spacing" textLength="88" x="12" y="772.74">REGULAR</text><text fill="#000000" font-family="sans-serif" font-size="20" lengthAdjust="spacing" textLength="110" x="12" y="799.9799">FORMATIVE</text></g><!--reverse link Exam to Section--><g id="link_Exam_Section"><path codeLine="46" d="M743.5,160.9 C743.5,176.79 743.5,193.33 743.5,207.02 " fill="none" id="Exam-backto-Section" style="stroke:#222222;stroke-width:1.0;"/><polygon fill="#222222" points="743.5,148.11,739.5,154.11,743.5,160.11,747.5,154.11,743.5,148.11" style="stroke:#222222;stroke-width:1.0;"/><text fill="#000000" font-family="sans-serif" font-size="20" lengthAdjust="spacing" textLength="32" x="708.75" y="193.5006">1..*</text></g><!--reverse link Question to QuestionBody--><g id="link_Question_QuestionBody"><path codeLine="58" d="M815.18,565.36 C821.91,565.36 828.64,565.36 835.37,565.36 " fill="none" id="Question-backto-QuestionBody" style="stroke:#222222;stroke-width:1.0;"/><polygon fill="#222222" points="802.44,565.36,808.44,569.36,814.44,565.36,808.44,561.36,802.44,565.36" style="stroke:#222222;stroke-width:1.0;"/></g><!--reverse link Question to CorrectAnswer--><g id="link_Question_CorrectAnswer"><path codeLine="59" d="M674.56,614.15 C663.48,622.78 652.41,632.02 642.5,641.36 C607.64,674.22 573.07,717.34 551.3,746.13 " fill="none" id="Question-backto-CorrectAnswer" style="stroke:#222222;stroke-width:1.0;"/><polygon fill="#222222" points="684.86,606.31,677.663,606.7606,675.3109,613.5773,682.5079,613.1267,684.86,606.31" style="stroke:#222222;stroke-width:1.0;"/></g><!--link Question to QuestionType--><g id="link_Question_QuestionType"><path codeLine="60" d="M686.29,580.12 C620.47,597.37 510.42,630.56 424.5,678.36 C393.3,695.72 362.01,721.03 338.8,741.72 " fill="none" id="Question-to-QuestionType" style="stroke:#222222;stroke-width:1.0;"/><polygon fill="#222222" points="335.1,745.05,344.4655,742.0025,338.8165,741.7052,339.1138,736.0561,335.1,745.05" style="stroke:#222222;stroke-width:1.0;"/><text fill="#000000" font-family="sans-serif" font-size="20" lengthAdjust="spacing" textLength="33" x="499.5" y="663.74">has</text><text fill="#000000" font-family="sans-serif" font-size="20" lengthAdjust="spacing" textLength="11" x="327.6055" y="732.5475">1</text></g><!--reverse link Question to Matching--><g id="link_Question_Matching"><path codeLine="62" d="M689.48,628.44 C678.37,643.9 667.84,661.03 660.5,678.36 C630.65,748.87 687.8,795.39 632.5,848.36 C580.29,898.37 379.6,869.68 309.5,887.36 C303.5,888.87 297.34,890.72 291.24,892.76 " fill="none" id="Question-backto-Matching" style="stroke:#222222;stroke-width:1.0;"/><polygon fill="none" points="683.55,624.68,701.22,612.99,694.7,633.15,683.55,624.68" style="stroke:#222222;stroke-width:1.0;"/></g><!--reverse link Question to MultipleChoice--><g id="link_Question_MultipleChoice"><path codeLine="63" d="M712.15,631.31 C705.65,646.5 699.31,662.8 694.5,678.36 C670.56,755.72 717.25,799.6 660.5,857.36 C614.68,903.99 579.88,871.34 516.5,887.36 C510.75,888.81 504.83,890.38 498.89,892.01 " fill="none" id="Question-backto-MultipleChoice" style="stroke:#222222;stroke-width:1.0;"/><polygon fill="none" points="705.7,628.59,720.23,613.17,718.49,634.29,705.7,628.59" style="stroke:#222222;stroke-width:1.0;"/></g><!--reverse link Question to ShortAnswer--><g id="link_Question_ShortAnswer"><path codeLine="64" d="M739,632.93 C732.95,706.96 720.25,820.91 697.5,857.36 C690.37,868.78 680.23,878.65 669.38,886.92 " fill="none" id="Question-backto-ShortAnswer" style="stroke:#222222;stroke-width:1.0;"/><polygon fill="none" points="731.99,632.74,740.51,613.34,745.95,633.82,731.99,632.74" style="stroke:#222222;stroke-width:1.0;"/></g><!--reverse link Question to Numerical--><g id="link_Question_Numerical"><path codeLine="65" d="M751.8,632.77 C761.32,708.89 776.51,830.45 783.61,887.23 " fill="none" id="Question-backto-Numerical" style="stroke:#222222;stroke-width:1.0;"/><polygon fill="none" points="744.88,633.87,749.35,613.16,758.78,632.14,744.88,633.87" style="stroke:#222222;stroke-width:1.0;"/></g><!--reverse link Question to MissingWords--><g id="link_Question_MissingWords"><path codeLine="66" d="M763.06,632.39 C767.5,647.49 772.19,663.47 776.5,678.36 C799.52,757.81 772.72,795.38 827.5,857.36 C836.67,867.74 861.39,879.53 887.82,889.96 " fill="none" id="Question-backto-MissingWords" style="stroke:#222222;stroke-width:1.0;"/><polygon fill="none" points="756.37,634.45,757.43,613.29,769.8,630.49,756.37,634.45" style="stroke:#222222;stroke-width:1.0;"/></g><!--reverse link Question to TrueFalse--><g id="link_Question_TrueFalse"><path codeLine="67" d="M782.87,630.4 C791.37,645.77 799.81,662.37 806.5,678.36 C836.87,750.89 797.12,795.69 855.5,848.36 C928.26,914 978.22,860.67 1072.5,887.36 C1078.17,888.97 1084,890.83 1089.79,892.82 " fill="none" id="Question-backto-TrueFalse" style="stroke:#222222;stroke-width:1.0;"/><polygon fill="none" points="776.8,633.89,772.94,613.05,788.95,626.93,776.8,633.89" style="stroke:#222222;stroke-width:1.0;"/></g><!--link Question to Course--><g id="link_Question_Course"><path codeLine="69" d="M800.97,603.74 C806.76,606.61 812.65,609.22 818.5,611.36 C992.29,675 1066.84,590.07 1229.5,678.36 C1251.14,690.11 1270.29,709.1 1285.31,727.33 " fill="none" id="Question-to-Course" style="stroke:#222222;stroke-width:1.0;"/><polygon fill="#222222" points="1288.08,730.76,1285.5302,721.2469,1284.9357,726.8724,1279.3101,726.2779,1288.08,730.76" style="stroke:#222222;stroke-width:1.0;"/><text fill="#000000" font-family="sans-serif" font-size="20" lengthAdjust="spacing" textLength="33" x="1210.5" y="663.74">has</text><text fill="#000000" font-family="sans-serif" font-size="20" lengthAdjust="spacing" textLength="11" x="1273.4213" y="718.676">1</text></g><!--link Question to Feedback--><g id="link_Question_Feedback"><path codeLine="78" d="M800.81,604.18 C816.03,615.35 831.98,628.15 845.5,641.36 C876.74,671.87 906.58,711.96 926.42,740.69 " fill="none" id="Question-to-Feedback" style="stroke:#222222;stroke-width:1.0;"/><polygon fill="#222222" points="929.14,744.67,927.3531,734.9846,926.314,740.5452,920.7534,739.5062,929.14,744.67" style="stroke:#222222;stroke-width:1.0;"/><text fill="#000000" font-family="sans-serif" font-size="20" lengthAdjust="spacing" textLength="32" x="891.7266" y="732.3834">0..*</text></g><!--link SectionQuestion to Question--><g id="link_SectionQuestion_Question"><path codeLine="79" d="M743.5,396.45 C743.5,427.56 743.5,475.95 743.5,512.8 " fill="none" id="SectionQuestion-to-Question" style="stroke:#222222;stroke-width:1.0;"/><polygon fill="#222222" points="743.5,517.57,747.5,508.57,743.5,512.57,739.5,508.57,743.5,517.57" style="stroke:#222222;stroke-width:1.0;"/><text fill="#000000" font-family="sans-serif" font-size="20" lengthAdjust="spacing" textLength="141" x="744.5" y="450.74">corresponds to</text><text fill="#000000" font-family="sans-serif" font-size="20" lengthAdjust="spacing" textLength="11" x="731.7609" y="505.462">1</text></g><!--reverse link Section to SectionQuestion--><g id="link_Section_SectionQuestion"><path codeLine="80" d="M743.5,285.88 C743.5,301.24 743.5,318.04 743.5,332.06 " fill="none" id="Section-backto-SectionQuestion" style="stroke:#222222;stroke-width:1.0;"/><polygon fill="#222222" points="743.5,273.23,739.5,279.23,743.5,285.23,747.5,279.23,743.5,273.23" style="stroke:#222222;stroke-width:1.0;"/><text fill="#000000" font-family="sans-serif" font-size="20" lengthAdjust="spacing" textLength="32" x="708.75" y="318.5475">1..*</text></g><!--SRC=[ZLHHRzem47xthx3empQq0AlsCA482H2PAgsRHcdxR9mZyKXoaUsiOst_-qm0uvX4QvwYx-u-t_VvpcehYf99bcV8jn3J63QiodI4XRuJVu5UZyYxLEjIZOV3CcE5hl9im34Vyemf5SI29QQO47NYeNLWghKKwqh33SUY9XgHLCH08I_rZh9JMBbe3Zh5MFbSCyQtYSIgYEUOeQHh40auILCfyUaGkhgkFq98QOfO0hGNXgP3I9Y6oOJ-h41fWKMFFXDAsLffoRYsC35WVQH5PXZlB3X7AO7hQQ6UG99M0agXqC9ekMMQfw987CJOAieCvYaA3cVyBaLvuhJWzoe7AJZBd7gXb25yH6aiikXALX2nJC5bxwjT2HQC0EAryOIy4dBHDWt30vsnA0mbeZO_pwzTBYx-iFpWuB69FU08CXurl3W2rgHEuZbMKa63-W3jInf0PyTEHrqvpQxSh8jWcq7xKshwVX3GtgV1eD-paidbz9ZIzmyVhwBeo-ppw0FzpR8AAAv_cOe3MSjilR76lUWtbfp6uB_ff40DD8EDfhZnHsgv-7h_RReqVz6FvUrqTVEmCCR5T5z3Y3Mj7pJto0a4tZBPK11CZAczfhPnofJ36xu4Xi1kc8ytzyoBkjlcXSuxvpEwc-V5dFsxq70SrJ6js_SUXlQvQpRVCPjd2Uq9LaZ76OwSzWmhof_xfiHHFVlsPV5tnhzAOmJVNxegiJ0dQpnLj6oIVIl-0G00]--></g></svg>