<?xml version="1.0" encoding="UTF-8" standalone="no"?><svg xmlns="http://www.w3.org/2000/svg" xmlns:xlink="http://www.w3.org/1999/xlink" contentStyleType="text/css" height="896px" preserveAspectRatio="none" style="width:1546px;height:896px;background:#FFFFFF;" version="1.1" viewBox="0 0 1546 896" width="1546px" zoomAndPan="magnify"><defs/><g><!--cluster <<agregate>> Question--><g id="cluster_&lt;&lt;agregate&gt;&gt; Question"><path d="M164,438.2168 L404,438.2168 A3.75,3.75 0 0 1 406.5,440.7168 L413.5,467.498 L1281,467.498 A2.5,2.5 0 0 1 1283.5,469.998 L1283.5,886.7168 A2.5,2.5 0 0 1 1281,889.2168 L164,889.2168 A2.5,2.5 0 0 1 161.5,886.7168 L161.5,440.7168 A2.5,2.5 0 0 1 164,438.2168 " fill="none" style="stroke:#000000;stroke-width:1.5;"/><line style="stroke:#000000;stroke-width:1.5;" x1="161.5" x2="413.5" y1="467.498" y2="467.498"/><text fill="#000000" font-family="sans-serif" font-size="20" font-weight="bold" lengthAdjust="spacing" textLength="239" x="165.5" y="458.7813">«agregate» Question</text></g><!--cluster <<agregate>> Exam--><g id="cluster_&lt;&lt;agregate&gt;&gt; Exam"><path d="M666,7.2168 L866,7.2168 A3.75,3.75 0 0 1 868.5,9.7168 L875.5,36.498 L893,36.498 A2.5,2.5 0 0 1 895.5,38.998 L895.5,378.7168 A2.5,2.5 0 0 1 893,381.2168 L666,381.2168 A2.5,2.5 0 0 1 663.5,378.7168 L663.5,9.7168 A2.5,2.5 0 0 1 666,7.2168 " fill="none" style="stroke:#000000;stroke-width:1.5;"/><line style="stroke:#000000;stroke-width:1.5;" x1="663.5" x2="875.5" y1="36.498" y2="36.498"/><text fill="#000000" font-family="sans-serif" font-size="20" font-weight="bold" lengthAdjust="spacing" textLength="199" x="667.5" y="27.7813">«agregate» Exam</text></g><!--cluster <<agregate>> Course--><g id="cluster_&lt;&lt;agregate&gt;&gt; Course"><path d="M1310,631.2168 L1527,631.2168 A3.75,3.75 0 0 1 1529.5,633.7168 L1536.5,660.498 L1537,660.498 A2.5,2.5 0 0 1 1539.5,662.998 L1539.5,766.7168 A2.5,2.5 0 0 1 1537,769.2168 L1310,769.2168 A2.5,2.5 0 0 1 1307.5,766.7168 L1307.5,633.7168 A2.5,2.5 0 0 1 1310,631.2168 " fill="none" style="stroke:#000000;stroke-width:1.5;"/><line style="stroke:#000000;stroke-width:1.5;" x1="1307.5" x2="1536.5" y1="660.498" y2="660.498"/><text fill="#000000" font-family="sans-serif" font-size="20" font-weight="bold" lengthAdjust="spacing" textLength="216" x="1311.5" y="651.7813">«agregate» Course</text></g><!--class Question--><g id="elem_Question"><rect codeLine="28" fill="#F5F5DC" height="79.8438" id="Question" rx="2.5" ry="2.5" style="stroke:#181818;stroke-width:0.5;" width="124" x="717.5" y="480.2168"/><ellipse cx="733.5" cy="520.1387" fill="#A9DCDF" rx="12" ry="12" style="stroke:#181818;stroke-width:1.0;"/><path d="M733.5156,514.9512 L732.1563,520.9043 L734.8906,520.9043 L733.5156,514.9512 Z M731.7656,512.3105 L735.2813,512.3105 L739.2188,526.8887 L736.3438,526.8887 L735.4375,523.2793 L731.5781,523.2793 L730.7031,526.8887 L727.8281,526.8887 L731.7656,512.3105 Z " fill="#000000"/><text fill="#000000" font-family="sans-serif" font-size="20" font-style="italic" lengthAdjust="spacing" textLength="83" x="752" y="503.7813">«entity»</text><text fill="#000000" font-family="sans-serif" font-size="20" font-style="italic" lengthAdjust="spacing" textLength="64" x="761.5" y="527.0625">«root»</text><text fill="#000000" font-family="sans-serif" font-size="20" font-style="italic" lengthAdjust="spacing" textLength="90" x="748.5" y="550.3438">Question</text></g><!--class QuestionBody--><g id="elem_QuestionBody"><rect codeLine="48" fill="#F5F5DC" height="56.5625" id="QuestionBody" rx="2.5" ry="2.5" style="stroke:#181818;stroke-width:0.5;" width="177" x="877" y="491.7168"/><ellipse cx="893" cy="519.998" fill="#FF8B40" rx="12" ry="12" style="stroke:#181818;stroke-width:1.0;"/><path d="M893.0156,525.8418 L895.5781,513.6699 L898.4844,513.6699 L895.0156,528.248 L891.0313,528.248 L887.5625,513.6699 L890.4531,513.6699 L893.0156,525.8418 Z " fill="#000000"/><text fill="#000000" font-family="sans-serif" font-size="20" font-style="italic" lengthAdjust="spacing" textLength="147" x="906" y="515.2813">«value object»</text><text fill="#000000" font-family="sans-serif" font-size="20" lengthAdjust="spacing" textLength="140" x="909.5" y="538.5625">QuestionBody</text></g><!--class CorrectAnswer--><g id="elem_CorrectAnswer"><rect codeLine="49" fill="#F5F5DC" height="56.5625" id="CorrectAnswer" rx="2.5" ry="2.5" style="stroke:#181818;stroke-width:0.5;" width="181" x="470" y="684.7168"/><ellipse cx="486" cy="712.998" fill="#FF8B40" rx="12" ry="12" style="stroke:#181818;stroke-width:1.0;"/><path d="M486.0156,718.8418 L488.5781,706.6699 L491.4844,706.6699 L488.0156,721.248 L484.0313,721.248 L480.5625,706.6699 L483.4531,706.6699 L486.0156,718.8418 Z " fill="#000000"/><text fill="#000000" font-family="sans-serif" font-size="20" font-style="italic" lengthAdjust="spacing" textLength="147" x="501" y="708.2813">«value object»</text><text fill="#000000" font-family="sans-serif" font-size="20" lengthAdjust="spacing" textLength="147" x="501" y="731.5625">CorrectAnswer</text></g><!--class Matching--><g id="elem_Matching"><rect codeLine="71" fill="#F5F5DC" height="56.5625" id="Matching" rx="2.5" ry="2.5" style="stroke:#181818;stroke-width:0.5;" width="127" x="178" y="816.2168"/><ellipse cx="194" cy="844.498" fill="#ADD1B2" rx="12" ry="12" style="stroke:#181818;stroke-width:1.0;"/><path d="M198.7188,851.998 L189.6406,851.998 L189.6406,837.4199 L198.7188,837.4199 L198.7188,839.9512 L192.5156,839.9512 L192.5156,843.1074 L198.1406,843.1074 L198.1406,845.6387 L192.5156,845.6387 L192.5156,849.4512 L198.7188,849.4512 L198.7188,851.998 Z " fill="#000000"/><text fill="#000000" font-family="sans-serif" font-size="20" font-style="italic" lengthAdjust="spacing" textLength="83" x="214" y="839.7813">«entity»</text><text fill="#000000" font-family="sans-serif" font-size="20" lengthAdjust="spacing" textLength="93" x="209" y="863.0625">Matching</text></g><!--class MultipleChoice--><g id="elem_MultipleChoice"><rect codeLine="72" fill="#F5F5DC" height="56.5625" id="MultipleChoice" rx="2.5" ry="2.5" style="stroke:#181818;stroke-width:0.5;" width="183" x="340" y="816.2168"/><ellipse cx="356" cy="844.498" fill="#ADD1B2" rx="12" ry="12" style="stroke:#181818;stroke-width:1.0;"/><path d="M360.7188,851.998 L351.6406,851.998 L351.6406,837.4199 L360.7188,837.4199 L360.7188,839.9512 L354.5156,839.9512 L354.5156,843.1074 L360.1406,843.1074 L360.1406,845.6387 L354.5156,845.6387 L354.5156,849.4512 L360.7188,849.4512 L360.7188,851.998 Z " fill="#000000"/><text fill="#000000" font-family="sans-serif" font-size="20" font-style="italic" lengthAdjust="spacing" textLength="83" x="404" y="839.7813">«entity»</text><text fill="#000000" font-family="sans-serif" font-size="20" lengthAdjust="spacing" textLength="149" x="371" y="863.0625">MultipleChoice</text></g><!--class ShortAnswer--><g id="elem_ShortAnswer"><rect codeLine="73" fill="#F5F5DC" height="56.5625" id="ShortAnswer" rx="2.5" ry="2.5" style="stroke:#181818;stroke-width:0.5;" width="162" x="558.5" y="816.2168"/><ellipse cx="574.5" cy="844.498" fill="#ADD1B2" rx="12" ry="12" style="stroke:#181818;stroke-width:1.0;"/><path d="M579.2188,851.998 L570.1406,851.998 L570.1406,837.4199 L579.2188,837.4199 L579.2188,839.9512 L573.0156,839.9512 L573.0156,843.1074 L578.6406,843.1074 L578.6406,845.6387 L573.0156,845.6387 L573.0156,849.4512 L579.2188,849.4512 L579.2188,851.998 Z " fill="#000000"/><text fill="#000000" font-family="sans-serif" font-size="20" font-style="italic" lengthAdjust="spacing" textLength="83" x="612" y="839.7813">«entity»</text><text fill="#000000" font-family="sans-serif" font-size="20" lengthAdjust="spacing" textLength="128" x="589.5" y="863.0625">ShortAnswer</text></g><!--class Numerical--><g id="elem_Numerical"><rect codeLine="74" fill="#F5F5DC" height="56.5625" id="Numerical" rx="2.5" ry="2.5" style="stroke:#181818;stroke-width:0.5;" width="137" x="756" y="816.2168"/><ellipse cx="772" cy="844.498" fill="#ADD1B2" rx="12" ry="12" style="stroke:#181818;stroke-width:1.0;"/><path d="M776.7188,851.998 L767.6406,851.998 L767.6406,837.4199 L776.7188,837.4199 L776.7188,839.9512 L770.5156,839.9512 L770.5156,843.1074 L776.1406,843.1074 L776.1406,845.6387 L770.5156,845.6387 L770.5156,849.4512 L776.7188,849.4512 L776.7188,851.998 Z " fill="#000000"/><text fill="#000000" font-family="sans-serif" font-size="20" font-style="italic" lengthAdjust="spacing" textLength="83" x="797" y="839.7813">«entity»</text><text fill="#000000" font-family="sans-serif" font-size="20" lengthAdjust="spacing" textLength="103" x="787" y="863.0625">Numerical</text></g><!--class MissingWords--><g id="elem_MissingWords"><rect codeLine="75" fill="#F5F5DC" height="56.5625" id="MissingWords" rx="2.5" ry="2.5" style="stroke:#181818;stroke-width:0.5;" width="172" x="928.5" y="816.2168"/><ellipse cx="944.5" cy="844.498" fill="#ADD1B2" rx="12" ry="12" style="stroke:#181818;stroke-width:1.0;"/><path d="M949.2188,851.998 L940.1406,851.998 L940.1406,837.4199 L949.2188,837.4199 L949.2188,839.9512 L943.0156,839.9512 L943.0156,843.1074 L948.6406,843.1074 L948.6406,845.6387 L943.0156,845.6387 L943.0156,849.4512 L949.2188,849.4512 L949.2188,851.998 Z " fill="#000000"/><text fill="#000000" font-family="sans-serif" font-size="20" font-style="italic" lengthAdjust="spacing" textLength="83" x="987" y="839.7813">«entity»</text><text fill="#000000" font-family="sans-serif" font-size="20" lengthAdjust="spacing" textLength="138" x="959.5" y="863.0625">MissingWords</text></g><!--class TrueFalse--><g id="elem_TrueFalse"><rect codeLine="76" fill="#F5F5DC" height="56.5625" id="TrueFalse" rx="2.5" ry="2.5" style="stroke:#181818;stroke-width:0.5;" width="131" x="1136" y="816.2168"/><ellipse cx="1152" cy="844.498" fill="#ADD1B2" rx="12" ry="12" style="stroke:#181818;stroke-width:1.0;"/><path d="M1156.7188,851.998 L1147.6406,851.998 L1147.6406,837.4199 L1156.7188,837.4199 L1156.7188,839.9512 L1150.5156,839.9512 L1150.5156,843.1074 L1156.1406,843.1074 L1156.1406,845.6387 L1150.5156,845.6387 L1150.5156,849.4512 L1156.7188,849.4512 L1156.7188,851.998 Z " fill="#000000"/><text fill="#000000" font-family="sans-serif" font-size="20" font-style="italic" lengthAdjust="spacing" textLength="83" x="1174" y="839.7813">«entity»</text><text fill="#000000" font-family="sans-serif" font-size="20" lengthAdjust="spacing" textLength="97" x="1167" y="863.0625">TrueFalse</text></g><!--class QuestionType--><g id="elem_QuestionType"><rect codeLine="50" fill="#F5F5DC" height="56.5625" id="QuestionType" rx="2.5" ry="2.5" style="stroke:#181818;stroke-width:0.5;" width="177" x="232" y="684.7168"/><ellipse cx="248" cy="712.998" fill="#FF8B40" rx="12" ry="12" style="stroke:#181818;stroke-width:1.0;"/><path d="M248.0156,718.8418 L250.5781,706.6699 L253.4844,706.6699 L250.0156,721.248 L246.0313,721.248 L242.5625,706.6699 L245.4531,706.6699 L248.0156,718.8418 Z " fill="#000000"/><text fill="#000000" font-family="sans-serif" font-size="20" font-style="italic" lengthAdjust="spacing" textLength="147" x="261" y="708.2813">«value object»</text><text fill="#000000" font-family="sans-serif" font-size="20" lengthAdjust="spacing" textLength="138" x="265.5" y="731.5625">QuestionType</text></g><!--class Feedback--><g id="elem_Feedback"><rect codeLine="51" fill="#F5F5DC" height="56.5625" id="Feedback" rx="2.5" ry="2.5" style="stroke:#181818;stroke-width:0.5;" width="177" x="908" y="684.7168"/><ellipse cx="924" cy="712.998" fill="#FF8B40" rx="12" ry="12" style="stroke:#181818;stroke-width:1.0;"/><path d="M924.0156,718.8418 L926.5781,706.6699 L929.4844,706.6699 L926.0156,721.248 L922.0313,721.248 L918.5625,706.6699 L921.4531,706.6699 L924.0156,718.8418 Z " fill="#000000"/><text fill="#000000" font-family="sans-serif" font-size="20" font-style="italic" lengthAdjust="spacing" textLength="147" x="937" y="708.2813">«value object»</text><text fill="#000000" font-family="sans-serif" font-size="20" lengthAdjust="spacing" textLength="97" x="962" y="731.5625">Feedback</text></g><!--class Exam--><g id="elem_Exam"><rect codeLine="42" fill="#F5F5DC" height="79.8438" id="Exam" rx="2.5" ry="2.5" style="stroke:#181818;stroke-width:0.5;" width="113" x="723" y="49.2168"/><ellipse cx="739" cy="89.1387" fill="#ADD1B2" rx="12" ry="12" style="stroke:#181818;stroke-width:1.0;"/><path d="M743.7188,96.6387 L734.6406,96.6387 L734.6406,82.0605 L743.7188,82.0605 L743.7188,84.5918 L737.5156,84.5918 L737.5156,87.748 L743.1406,87.748 L743.1406,90.2793 L737.5156,90.2793 L737.5156,94.0918 L743.7188,94.0918 L743.7188,96.6387 Z " fill="#000000"/><text fill="#000000" font-family="sans-serif" font-size="20" font-style="italic" lengthAdjust="spacing" textLength="83" x="752" y="72.7813">«entity»</text><text fill="#000000" font-family="sans-serif" font-size="20" font-style="italic" lengthAdjust="spacing" textLength="64" x="761.5" y="96.0625">«root»</text><text fill="#000000" font-family="sans-serif" font-size="20" lengthAdjust="spacing" textLength="56" x="765.5" y="119.3438">Exam</text></g><!--class Section--><g id="elem_Section"><rect codeLine="43" fill="#F5F5DC" height="56.5625" id="Section" rx="2.5" ry="2.5" style="stroke:#181818;stroke-width:0.5;" width="113" x="723" y="190.2168"/><ellipse cx="739" cy="218.498" fill="#ADD1B2" rx="12" ry="12" style="stroke:#181818;stroke-width:1.0;"/><path d="M743.7188,225.998 L734.6406,225.998 L734.6406,211.4199 L743.7188,211.4199 L743.7188,213.9512 L737.5156,213.9512 L737.5156,217.1074 L743.1406,217.1074 L743.1406,219.6387 L737.5156,219.6387 L737.5156,223.4512 L743.7188,223.4512 L743.7188,225.998 Z " fill="#000000"/><text fill="#000000" font-family="sans-serif" font-size="20" font-style="italic" lengthAdjust="spacing" textLength="83" x="752" y="213.7813">«entity»</text><text fill="#000000" font-family="sans-serif" font-size="20" lengthAdjust="spacing" textLength="75" x="756" y="237.0625">Section</text></g><!--class SectionQuestion--><g id="elem_SectionQuestion"><rect codeLine="44" fill="#F5F5DC" height="56.5625" id="SectionQuestion" rx="2.5" ry="2.5" style="stroke:#181818;stroke-width:0.5;" width="199" x="680" y="308.2168"/><ellipse cx="696" cy="336.498" fill="#ADD1B2" rx="12" ry="12" style="stroke:#181818;stroke-width:1.0;"/><path d="M700.7188,343.998 L691.6406,343.998 L691.6406,329.4199 L700.7188,329.4199 L700.7188,331.9512 L694.5156,331.9512 L694.5156,335.1074 L700.1406,335.1074 L700.1406,337.6387 L694.5156,337.6387 L694.5156,341.4512 L700.7188,341.4512 L700.7188,343.998 Z " fill="#000000"/><text fill="#000000" font-family="sans-serif" font-size="20" font-style="italic" lengthAdjust="spacing" textLength="83" x="752" y="331.7813">«entity»</text><text fill="#000000" font-family="sans-serif" font-size="20" lengthAdjust="spacing" textLength="165" x="711" y="355.0625">SectionQuestion</text></g><!--class Course--><g id="elem_Course"><rect codeLine="40" fill="#F5F5DC" height="79.8438" id="Course" rx="2.5" ry="2.5" style="stroke:#181818;stroke-width:0.5;" width="113" x="1324" y="673.2168"/><ellipse cx="1340" cy="713.1387" fill="#ADD1B2" rx="12" ry="12" style="stroke:#181818;stroke-width:1.0;"/><path d="M1344.7188,720.6387 L1335.6406,720.6387 L1335.6406,706.0605 L1344.7188,706.0605 L1344.7188,708.5918 L1338.5156,708.5918 L1338.5156,711.748 L1344.1406,711.748 L1344.1406,714.2793 L1338.5156,714.2793 L1338.5156,718.0918 L1344.7188,718.0918 L1344.7188,720.6387 Z " fill="#000000"/><text fill="#000000" font-family="sans-serif" font-size="20" font-style="italic" lengthAdjust="spacing" textLength="83" x="1353" y="696.7813">«entity»</text><text fill="#000000" font-family="sans-serif" font-size="20" font-style="italic" lengthAdjust="spacing" textLength="64" x="1362.5" y="720.0625">«root»</text><text fill="#000000" font-family="sans-serif" font-size="20" lengthAdjust="spacing" textLength="69" x="1360" y="743.3438">Course</text></g><g id="elem_GMN21"><path d="M6,684.7168 L6,741.2793 A0,0 0 0 0 6,741.2793 L145,741.2793 A0,0 0 0 0 145,741.2793 L145,717.2168 L231.91,713.2168 L145,709.2168 L145,694.7168 L135,684.7168 L6,684.7168 A0,0 0 0 0 6,684.7168 " fill="#FEFFDD" style="stroke:#181818;stroke-width:0.5;"/><path d="M135,684.7168 L135,694.7168 L145,694.7168 L135,684.7168 " fill="#FEFFDD" style="stroke:#181818;stroke-width:0.5;"/><text fill="#000000" font-family="sans-serif" font-size="20" lengthAdjust="spacing" textLength="97" x="12" y="708.2813">REGULAR</text><text fill="#000000" font-family="sans-serif" font-size="20" lengthAdjust="spacing" textLength="118" x="12" y="731.5625">FORMATIVE</text></g><!--reverse link Exam to Section--><g id="link_Exam_Section"><path codeLine="46" d="M779.5,142.8068 C779.5,159.0268 779.5,176.2368 779.5,190.0768 " fill="none" id="Exam-backto-Section" style="stroke:#222222;stroke-width:1.0;"/><polygon fill="#222222" points="779.5,129.5068,775.5,135.5068,779.5,141.5068,783.5,135.5068,779.5,129.5068" style="stroke:#222222;stroke-width:1.0;"/><text fill="#000000" font-family="sans-serif" font-size="20" lengthAdjust="spacing" textLength="35" x="740.8906" y="177.4365">1..*</text></g><!--reverse link Question to QuestionBody--><g id="link_Question_QuestionBody"><path codeLine="58" d="M854.87,520.2168 C862.23,520.2168 869.59,520.2168 876.95,520.2168 " fill="none" id="Question-backto-QuestionBody" style="stroke:#222222;stroke-width:1.0;"/><polygon fill="#222222" points="841.62,520.2168,847.62,524.2168,853.62,520.2168,847.62,516.2168,841.62,520.2168" style="stroke:#222222;stroke-width:1.0;"/></g><!--reverse link Question to CorrectAnswer--><g id="link_Question_CorrectAnswer"><path codeLine="59" d="M707.23,567.9268 C697.34,575.0868 687.5,582.6268 678.5,590.2168 C643.36,619.8568 607.23,658.6768 584.36,684.4768 " fill="none" id="Question-backto-CorrectAnswer" style="stroke:#222222;stroke-width:1.0;"/><polygon fill="#222222" points="717.95,560.3368,710.7419,560.5454,708.1621,567.2792,715.3702,567.0706,717.95,560.3368" style="stroke:#222222;stroke-width:1.0;"/></g><!--link Question to QuestionType--><g id="link_Question_QuestionType"><path codeLine="60" d="M717.22,534.9068 C649.89,551.0068 540.41,580.9868 452.5,623.2168 C419.29,639.1668 384.88,662.6368 359.52,681.4668 " fill="none" id="Question-to-QuestionType" style="stroke:#222222;stroke-width:1.0;"/><polygon fill="#222222" points="355.21,684.6868,364.81,682.4868,359.21,681.6868,360.01,676.0868,355.21,684.6868" style="stroke:#222222;stroke-width:1.0;"/><text fill="#000000" font-family="sans-serif" font-size="20" lengthAdjust="spacing" textLength="35" x="530.5" y="609.7813">has</text><text fill="#000000" font-family="sans-serif" font-size="20" lengthAdjust="spacing" textLength="13" x="348.0283" y="672.0692">1</text></g><!--reverse link Question to Matching--><g id="link_Question_Matching"><path codeLine="62" d="M727.58,575.7968 C716.14,590.2968 705.17,606.5768 697.5,623.2168 C668.36,686.4768 719.53,729.8168 668.5,777.2168 C611.8,829.8668 398.01,799.3468 322.5,816.2168 C316.85,817.4768 311.04,818.9968 305.25,820.6568 " fill="none" id="Question-backto-Matching" style="stroke:#222222;stroke-width:1.0;"/><polygon fill="none" points="722.35,571.1368,740.53,560.2668,733.1,580.1068,722.35,571.1368" style="stroke:#222222;stroke-width:1.0;"/></g><!--reverse link Question to MultipleChoice--><g id="link_Question_MultipleChoice"><path codeLine="63" d="M749.01,578.4768 C742.21,592.8068 735.54,608.3368 730.5,623.2168 C706.75,693.3068 749.21,734.2668 696.5,786.2168 C646.53,835.4768 610.01,801.0368 541.5,816.2168 C535.54,817.5368 529.41,818.9368 523.24,820.3868 " fill="none" id="Question-backto-MultipleChoice" style="stroke:#222222;stroke-width:1.0;"/><polygon fill="none" points="742.75,575.3268,757.88,560.4868,755.31,581.5168,742.75,575.3268" style="stroke:#222222;stroke-width:1.0;"/></g><!--reverse link Question to ShortAnswer--><g id="link_Question_ShortAnswer"><path codeLine="64" d="M774.89,580.5268 C768.67,648.1368 755.72,753.5168 733.5,786.2168 C725.44,798.0868 714.03,807.9368 701.93,815.9268 " fill="none" id="Question-backto-ShortAnswer" style="stroke:#222222;stroke-width:1.0;"/><polygon fill="none" points="767.93,579.7768,776.65,560.4668,781.88,580.9968,767.93,579.7768" style="stroke:#222222;stroke-width:1.0;"/></g><!--reverse link Question to Numerical--><g id="link_Question_Numerical"><path codeLine="65" d="M787.79,580.6668 C797.57,650.6868 813.38,764.0568 820.64,816.0468 " fill="none" id="Question-backto-Numerical" style="stroke:#222222;stroke-width:1.0;"/><polygon fill="none" points="780.8,581.2168,784.97,560.4368,794.67,579.2768,780.8,581.2168" style="stroke:#222222;stroke-width:1.0;"/></g><!--reverse link Question to MissingWords--><g id="link_Question_MissingWords"><path codeLine="66" d="M798.53,579.6968 C803.13,593.9268 808.01,609.1168 812.5,623.2168 C835.52,695.5468 811.48,730.9368 863.5,786.2168 C873.45,796.7868 900.04,808.2068 928.18,818.0668 " fill="none" id="Question-backto-MissingWords" style="stroke:#222222;stroke-width:1.0;"/><polygon fill="none" points="791.79,581.6068,792.28,560.4168,805.11,577.2868,791.79,581.6068" style="stroke:#222222;stroke-width:1.0;"/></g><!--reverse link Question to TrueFalse--><g id="link_Question_TrueFalse"><path codeLine="67" d="M818.04,577.9968 C826.82,592.3668 835.58,608.0368 842.5,623.2168 C872.24,688.4468 836.56,729.9968 890.5,777.2168 C967.86,844.9268 1018.76,791.3168 1118.5,816.2168 C1124.1,817.6168 1129.86,819.2068 1135.62,820.8968 " fill="none" id="Question-backto-TrueFalse" style="stroke:#222222;stroke-width:1.0;"/><polygon fill="none" points="811.83,581.2668,807.06,560.6268,823.67,573.7868,811.83,581.2668" style="stroke:#222222;stroke-width:1.0;"/></g><!--link Question to Course--><g id="link_Question_Course"><path codeLine="69" d="M841.64,553.7468 C847.58,556.1768 853.6,558.3868 859.5,560.2168 C1041.47,616.6168 1111.54,541.2168 1283.5,623.2168 C1306.32,634.0968 1327.54,652.1968 1344.27,669.2468 " fill="none" id="Question-to-Course" style="stroke:#222222;stroke-width:1.0;"/><polygon fill="#222222" points="1347.99,673.0868,1344.6222,663.8317,1344.5193,669.4876,1338.8634,669.3847,1347.99,673.0868" style="stroke:#222222;stroke-width:1.0;"/><text fill="#000000" font-family="sans-serif" font-size="20" lengthAdjust="spacing" textLength="35" x="1263.5" y="609.7813">has</text><text fill="#000000" font-family="sans-serif" font-size="20" lengthAdjust="spacing" textLength="13" x="1328.7728" y="660.4576">1</text></g><!--link Question to Feedback--><g id="link_Question_Feedback"><path codeLine="78" d="M841.51,559.9668 C855.11,569.3268 869.12,579.6868 881.5,590.2168 C914.33,618.1468 947.66,654.5768 969.92,680.3368 " fill="none" id="Question-to-Feedback" style="stroke:#222222;stroke-width:1.0;"/><polygon fill="#222222" points="973.4,684.3768,970.5419,674.9518,970.1308,680.5936,964.4889,680.1825,973.4,684.3768" style="stroke:#222222;stroke-width:1.0;"/><text fill="#000000" font-family="sans-serif" font-size="20" lengthAdjust="spacing" textLength="35" x="930.4069" y="672.0701">0..*</text></g><!--link SectionQuestion to Question--><g id="link_SectionQuestion_Question"><path codeLine="79" d="M779.5,365.2868 C779.5,394.2768 779.5,440.3468 779.5,474.5468 " fill="none" id="SectionQuestion-to-Question" style="stroke:#222222;stroke-width:1.0;"/><polygon fill="#222222" points="779.5,479.9268,783.5,470.9268,779.5,474.9268,775.5,470.9268,779.5,479.9268" style="stroke:#222222;stroke-width:1.0;"/><text fill="#000000" font-family="sans-serif" font-size="20" lengthAdjust="spacing" textLength="148" x="780.5" y="416.7813">corresponds to</text><text fill="#000000" font-family="sans-serif" font-size="20" lengthAdjust="spacing" textLength="13" x="765.5047" y="467.5944">1</text></g><!--reverse link Section to SectionQuestion--><g id="link_Section_SectionQuestion"><path codeLine="80" d="M779.5,260.7168 C779.5,276.4368 779.5,293.9868 779.5,308.1568 " fill="none" id="Section-backto-SectionQuestion" style="stroke:#222222;stroke-width:1.0;"/><polygon fill="#222222" points="779.5,247.4968,775.5,253.4968,779.5,259.4968,783.5,253.4968,779.5,247.4968" style="stroke:#222222;stroke-width:1.0;"/><text fill="#000000" font-family="sans-serif" font-size="20" lengthAdjust="spacing" textLength="35" x="740.8906" y="295.533">1..*</text></g><!--SRC=[ZLHHRzem47xthx3empQq0AlsCA482H2PAgsRHcdxR9mZyKXoaUsiOst_-qm0uvX4QvwYx-u-t_VvpcehYf99bcV8jn3J63QiodI4XRuJVu5UZyYxLEjIZOV3CcE5hl9im34Vyemf5SI29QQO47NYeNLWghKKwqh33SUY9XgHLCH08I_rZh9JMBbe3Zh5MFbSCyQtYSIgYEUOeQHh40auILCfyUaGkhgkFq98QOfO0hGNXgP3I9Y6oOJ-h41fWKMFFXDAsLffoRYsC35WVQH5PXZlB3X7AO7hQQ6UG99M0agXqC9ekMMQfw987CJOAieCvYaA3cVyBaLvuhJWzoe7AJZBd7gXb25yH6aiikXALX2nJC5bxwjT2HQC0EAryOIy4dBHDWt30vsnA0mbeZO_pwzTBYx-iFpWuB69FU08CXurl3W2rgHEuZbMKa63-W3jInf0PyTEHrqvpQxSh8jWcq7xKshwVX3GtgV1eD-paidbz9ZIzmyVhwBeo-ppw0FzpR8AAAv_cOe3MSjilR76lUWtbfp6uB_ff40DD8EDfhZnHsgv-7h_RReqVz6FvUrqTVEmCCR5T5z3Y3Mj7pJto0a4tZBPK11CZAczfhPnofJ36xu4Xi1kc8ytzyoBkjlcXSuxvpEwc-V5dFsxq70SrJ6js_SUXlQvQpRVCPjd2Uq9LaZ76OwSzWmhof_xfiHHFVlsPV5tnhzAOmJVNxegiJ0dQpnLj6oIVIl-0G00]--></g></svg>