<?xml version="1.0" encoding="UTF-8" standalone="no"?><svg xmlns="http://www.w3.org/2000/svg" xmlns:xlink="http://www.w3.org/1999/xlink" contentStyleType="text/css" height="451px" preserveAspectRatio="none" style="width:607px;height:451px;background:#FFFFFF;" version="1.1" viewBox="0 0 607 451" width="607px" zoomAndPan="magnify"><defs/><g><rect fill="#FFFFFF" height="248.4398" style="stroke:#181818;stroke-width:1.0;" width="10" x="41.5" y="102.24"/><rect fill="#FFFFFF" height="41.24" style="stroke:#181818;stroke-width:1.0;" width="10" x="552.125" y="135.4799"/><rect fill="#FFFFFF" height="41.24" style="stroke:#181818;stroke-width:1.0;" width="10" x="552.125" y="217.9599"/><rect fill="#FFFFFF" height="41.24" style="stroke:#181818;stroke-width:1.0;" width="10" x="552.125" y="300.4398"/><line style="stroke:#181818;stroke-width:0.5;stroke-dasharray:5.0,5.0;" x1="46" x2="46" y1="92.24" y2="359.6798"/><line style="stroke:#181818;stroke-width:0.5;stroke-dasharray:5.0,5.0;" x1="557.125" x2="557.125" y1="92.24" y2="359.6798"/><text fill="#000000" font-family="sans-serif" font-size="20" lengthAdjust="spacing" textLength="77" x="5" y="86.38">Teacher</text><ellipse cx="46.5" cy="13.5" fill="#E2E2F0" rx="8" ry="8" style="stroke:#181818;stroke-width:0.5;"/><path d="M46.5,21.5 L46.5,48.5 M33.5,29.5 L59.5,29.5 M46.5,48.5 L33.5,63.5 M46.5,48.5 L59.5,63.5 " fill="none" style="stroke:#181818;stroke-width:0.5;"/><text fill="#000000" font-family="sans-serif" font-size="20" lengthAdjust="spacing" textLength="77" x="5" y="380.0598">Teacher</text><ellipse cx="46.5" cy="394.4198" fill="#E2E2F0" rx="8" ry="8" style="stroke:#181818;stroke-width:0.5;"/><path d="M46.5,402.4198 L46.5,429.4198 M33.5,410.4198 L59.5,410.4198 M46.5,429.4198 L33.5,444.4198 M46.5,429.4198 L59.5,444.4198 " fill="none" style="stroke:#181818;stroke-width:0.5;"/><rect fill="#E2E2F0" height="41.24" rx="2.5" ry="2.5" style="stroke:#181818;stroke-width:0.5;" width="88" x="513.125" y="50"/><text fill="#000000" font-family="sans-serif" font-size="20" lengthAdjust="spacing" textLength="74" x="520.125" y="78.38">:System</text><rect fill="#E2E2F0" height="41.24" rx="2.5" ry="2.5" style="stroke:#181818;stroke-width:0.5;" width="88" x="513.125" y="358.6798"/><text fill="#000000" font-family="sans-serif" font-size="20" lengthAdjust="spacing" textLength="74" x="520.125" y="387.0598">:System</text><rect fill="#FFFFFF" height="248.4398" style="stroke:#181818;stroke-width:1.0;" width="10" x="41.5" y="102.24"/><rect fill="#FFFFFF" height="41.24" style="stroke:#181818;stroke-width:1.0;" width="10" x="552.125" y="135.4799"/><rect fill="#FFFFFF" height="41.24" style="stroke:#181818;stroke-width:1.0;" width="10" x="552.125" y="217.9599"/><rect fill="#FFFFFF" height="41.24" style="stroke:#181818;stroke-width:1.0;" width="10" x="552.125" y="300.4398"/><polygon fill="#181818" points="540.125,131.4799,550.125,135.4799,540.125,139.4799,544.125,135.4799" style="stroke:#181818;stroke-width:1.0;"/><line style="stroke:#181818;stroke-width:1.0;" x1="51.5" x2="546.125" y1="135.4799" y2="135.4799"/><text fill="#000000" font-family="sans-serif" font-size="20" font-weight="bold" lengthAdjust="spacing" textLength="11.625" x="58.5" y="127.62">1</text><text fill="#000000" font-family="sans-serif" font-size="20" lengthAdjust="spacing" textLength="240" x="74.125" y="127.62">Asks to create a question</text><polygon fill="#181818" points="62.5,172.7199,52.5,176.7199,62.5,180.7199,58.5,176.7199" style="stroke:#181818;stroke-width:1.0;"/><line style="stroke:#181818;stroke-width:1.0;stroke-dasharray:2.0,2.0;" x1="56.5" x2="556.125" y1="176.7199" y2="176.7199"/><text fill="#000000" font-family="sans-serif" font-size="20" font-weight="bold" lengthAdjust="spacing" textLength="11.625" x="68.5" y="168.8599">2</text><text fill="#000000" font-family="sans-serif" font-size="20" lengthAdjust="spacing" textLength="457" x="84.125" y="168.8599">Lists all available courses and asks to select one</text><polygon fill="#181818" points="540.125,213.9599,550.125,217.9599,540.125,221.9599,544.125,217.9599" style="stroke:#181818;stroke-width:1.0;"/><line style="stroke:#181818;stroke-width:1.0;" x1="51.5" x2="546.125" y1="217.9599" y2="217.9599"/><text fill="#000000" font-family="sans-serif" font-size="20" font-weight="bold" lengthAdjust="spacing" textLength="11.625" x="58.5" y="210.0999">3</text><text fill="#000000" font-family="sans-serif" font-size="20" lengthAdjust="spacing" textLength="151" x="74.125" y="210.0999">Selects a course</text><polygon fill="#181818" points="62.5,255.1999,52.5,259.1999,62.5,263.1999,58.5,259.1999" style="stroke:#181818;stroke-width:1.0;"/><line style="stroke:#181818;stroke-width:1.0;stroke-dasharray:2.0,2.0;" x1="56.5" x2="556.125" y1="259.1999" y2="259.1999"/><text fill="#000000" font-family="sans-serif" font-size="20" font-weight="bold" lengthAdjust="spacing" textLength="11.625" x="68.5" y="251.3399">4</text><text fill="#000000" font-family="sans-serif" font-size="20" lengthAdjust="spacing" textLength="461" x="84.125" y="251.3399">Asks the file path where the question is defined</text><polygon fill="#181818" points="540.125,296.4398,550.125,300.4398,540.125,304.4398,544.125,300.4398" style="stroke:#181818;stroke-width:1.0;"/><line style="stroke:#181818;stroke-width:1.0;" x1="51.5" x2="546.125" y1="300.4398" y2="300.4398"/><text fill="#000000" font-family="sans-serif" font-size="20" font-weight="bold" lengthAdjust="spacing" textLength="11.625" x="58.5" y="292.5799">5</text><text fill="#000000" font-family="sans-serif" font-size="20" lengthAdjust="spacing" textLength="185" x="74.125" y="292.5799">Enters the file path</text><polygon fill="#181818" points="62.5,337.6798,52.5,341.6798,62.5,345.6798,58.5,341.6798" style="stroke:#181818;stroke-width:1.0;"/><line style="stroke:#181818;stroke-width:1.0;stroke-dasharray:2.0,2.0;" x1="56.5" x2="556.125" y1="341.6798" y2="341.6798"/><text fill="#000000" font-family="sans-serif" font-size="20" font-weight="bold" lengthAdjust="spacing" textLength="11.625" x="68.5" y="333.8198">6</text><text fill="#000000" font-family="sans-serif" font-size="20" lengthAdjust="spacing" textLength="255" x="84.125" y="333.8198">Informs operation success</text><!--SRC=[XP0nJyCm48Lt_ufJzag8iGDIXO90OcgwC5wT5yMAOmVVkGX-FKxQWYX3DklqlU-UJmON9auy-cW7jDIYu-prAGPjt1Ve_ivmrXZoU4GoXgt6HDK1R7kaYbZeKEyUd-kzAHPrraqSbAfjyocASG6QjsO9kXChVd1pUT3cOIPeIpiPX3IIJPX1flSCKHV3RtXMpV2cXAxvBRqwKI7sdlZ4plFHWspCIL2ceIqTpcA1XrMA0QR57-U_Bis2blX5j5RXtBq7TQuidrXx-YW7mZAx_eESpFTr0UrgWJeeqerohSHBw68QXUA4nCj2oTP2v7RRDm00]--></g></svg>