<?xml version="1.0" encoding="UTF-8" standalone="no"?><svg xmlns="http://www.w3.org/2000/svg" xmlns:xlink="http://www.w3.org/1999/xlink" contentStyleType="text/css" height="952px" preserveAspectRatio="none" style="width:2042px;height:952px;background:#FFFFFF;" version="1.1" viewBox="0 0 2042 952" width="2042px" zoomAndPan="magnify"><defs/><g><!--class BoardRepository--><g id="elem_BoardRepository"><rect codeLine="2" fill="#F1F1F1" height="73.2813" id="BoardRepository" rx="2.5" ry="2.5" style="stroke:#181818;stroke-width:0.5;" width="382" x="240" y="471.5"/><ellipse cx="343.5" cy="488.5" fill="#B4A7E5" rx="12" ry="12" style="stroke:#181818;stroke-width:1.0;"/><path d="M338.6875,483.9531 L338.6875,481.4219 L347.3594,481.4219 L347.3594,483.9531 L344.4688,483.9531 L344.4688,493.4531 L347.3594,493.4531 L347.3594,496 L338.6875,496 L338.6875,493.4531 L341.5781,493.4531 L341.5781,483.9531 L338.6875,483.9531 Z " fill="#000000"/><text fill="#000000" font-family="sans-serif" font-size="20" font-style="italic" lengthAdjust="spacing" textLength="166" x="365.5" y="495.4238">BoardRepository</text><line style="stroke:#181818;stroke-width:0.5;" x1="241" x2="621" y1="505.5" y2="505.5"/><line style="stroke:#181818;stroke-width:0.5;" x1="241" x2="621" y1="513.5" y2="513.5"/><text fill="#000000" font-family="sans-serif" font-size="20" font-style="italic" lengthAdjust="spacing" textLength="370" x="246" y="536.0645">findActiveBoardsThatUserCanWrite()</text></g><!--class PostItRepository--><g id="elem_PostItRepository"><rect codeLine="6" fill="#F1F1F1" height="96.5625" id="PostItRepository" rx="2.5" ry="2.5" style="stroke:#181818;stroke-width:0.5;" width="274" x="657" y="459.5"/><ellipse cx="708" cy="476.5" fill="#B4A7E5" rx="12" ry="12" style="stroke:#181818;stroke-width:1.0;"/><path d="M703.1875,471.9531 L703.1875,469.4219 L711.8594,469.4219 L711.8594,471.9531 L708.9688,471.9531 L708.9688,481.4531 L711.8594,481.4531 L711.8594,484 L703.1875,484 L703.1875,481.4531 L706.0781,481.4531 L706.0781,471.9531 L703.1875,471.9531 Z " fill="#000000"/><text fill="#000000" font-family="sans-serif" font-size="20" font-style="italic" lengthAdjust="spacing" textLength="163" x="730" y="483.4238">PostItRepository</text><line style="stroke:#181818;stroke-width:0.5;" x1="658" x2="930" y1="493.5" y2="493.5"/><line style="stroke:#181818;stroke-width:0.5;" x1="658" x2="930" y1="501.5" y2="501.5"/><text fill="#000000" font-family="sans-serif" font-size="20" font-style="italic" lengthAdjust="spacing" textLength="262" x="663" y="524.0645">findAllByBoardId(boardId)</text><text fill="#000000" font-family="sans-serif" font-size="20" font-style="italic" lengthAdjust="spacing" textLength="119" x="663" y="547.3457">save(postIt)</text></g><!--class ListBoardService--><g id="elem_ListBoardService"><rect codeLine="11" fill="#F1F1F1" height="143.125" id="ListBoardService" rx="2.5" ry="2.5" style="stroke:#181818;stroke-width:0.5;" width="374" x="966" y="436.5"/><ellipse cx="1065" cy="453.5" fill="#ADD1B2" rx="12" ry="12" style="stroke:#181818;stroke-width:1.0;"/><path d="M1068.0625,460.5781 Q1067.375,460.9375 1066.625,461.1094 Q1065.875,461.2813 1065.0469,461.2813 Q1062.0938,461.2813 1060.5313,459.3438 Q1058.9844,457.3906 1058.9844,453.7188 Q1058.9844,450.0469 1060.5313,448.1094 Q1062.0938,446.1563 1065.0469,446.1563 Q1065.875,446.1563 1066.625,446.3281 Q1067.3906,446.5 1068.0625,446.8594 L1068.0625,450.0625 Q1067.3125,449.375 1066.6094,449.0625 Q1065.9219,448.75 1065.1719,448.75 Q1063.5938,448.75 1062.7813,450 Q1061.9844,451.25 1061.9844,453.7188 Q1061.9844,456.1875 1062.7813,457.4375 Q1063.5938,458.6875 1065.1719,458.6875 Q1065.9219,458.6875 1066.6094,458.375 Q1067.3125,458.0625 1068.0625,457.375 L1068.0625,460.5781 Z " fill="#000000"/><text fill="#000000" font-family="sans-serif" font-size="20" lengthAdjust="spacing" textLength="167" x="1087" y="460.4238">ListBoardService</text><line style="stroke:#181818;stroke-width:0.5;" x1="967" x2="1339" y1="470.5" y2="470.5"/><rect fill="none" height="6" style="stroke:#C82930;stroke-width:1.0;" width="6" x="974" y="484.6406"/><text fill="#000000" font-family="sans-serif" font-size="20" lengthAdjust="spacing" textLength="164" x="987" y="493.0645">boardRepository</text><line style="stroke:#181818;stroke-width:0.5;" x1="967" x2="1339" y1="501.7813" y2="501.7813"/><ellipse cx="977" cy="518.9219" fill="#84BE84" rx="3" ry="3" style="stroke:#038048;stroke-width:1.0;"/><text fill="#000000" font-family="sans-serif" font-size="20" lengthAdjust="spacing" textLength="347" x="987" y="524.3457">ListBoardService(boardRepository)</text><text fill="#000000" font-family="sans-serif" font-size="20" lengthAdjust="spacing" textLength="6" x="987" y="547.627"> </text><ellipse cx="977" cy="565.4844" fill="#84BE84" rx="3" ry="3" style="stroke:#038048;stroke-width:1.0;"/><text fill="#000000" font-family="sans-serif" font-size="20" lengthAdjust="spacing" textLength="275" x="987" y="570.9082">userWritableBoards(userId)</text></g><!--class BoardService--><g id="elem_BoardService"><rect codeLine="19" fill="#F1F1F1" height="189.6875" id="BoardService" rx="2.5" ry="2.5" style="stroke:#181818;stroke-width:0.5;" width="338" x="1375" y="413"/><ellipse cx="1473.5" cy="430" fill="#ADD1B2" rx="12" ry="12" style="stroke:#181818;stroke-width:1.0;"/><path d="M1476.5625,437.0781 Q1475.875,437.4375 1475.125,437.6094 Q1474.375,437.7813 1473.5469,437.7813 Q1470.5938,437.7813 1469.0313,435.8438 Q1467.4844,433.8906 1467.4844,430.2188 Q1467.4844,426.5469 1469.0313,424.6094 Q1470.5938,422.6563 1473.5469,422.6563 Q1474.375,422.6563 1475.125,422.8281 Q1475.8906,423 1476.5625,423.3594 L1476.5625,426.5625 Q1475.8125,425.875 1475.1094,425.5625 Q1474.4219,425.25 1473.6719,425.25 Q1472.0938,425.25 1471.2813,426.5 Q1470.4844,427.75 1470.4844,430.2188 Q1470.4844,432.6875 1471.2813,433.9375 Q1472.0938,435.1875 1473.6719,435.1875 Q1474.4219,435.1875 1475.1094,434.875 Q1475.8125,434.5625 1476.5625,433.875 L1476.5625,437.0781 Z " fill="#000000"/><text fill="#000000" font-family="sans-serif" font-size="20" lengthAdjust="spacing" textLength="132" x="1495.5" y="436.9238">BoardService</text><line style="stroke:#181818;stroke-width:0.5;" x1="1376" x2="1712" y1="447" y2="447"/><rect fill="none" height="6" style="stroke:#C82930;stroke-width:1.0;" width="6" x="1383" y="461.1406"/><text fill="#000000" font-family="sans-serif" font-size="20" lengthAdjust="spacing" textLength="163" x="1396" y="469.5645">postItRepository</text><line style="stroke:#181818;stroke-width:0.5;" x1="1376" x2="1712" y1="478.2813" y2="478.2813"/><ellipse cx="1386" cy="495.4219" fill="#84BE84" rx="3" ry="3" style="stroke:#038048;stroke-width:1.0;"/><text fill="#000000" font-family="sans-serif" font-size="20" lengthAdjust="spacing" textLength="311" x="1396" y="500.8457">BoardService(postItRepository)</text><text fill="#000000" font-family="sans-serif" font-size="20" lengthAdjust="spacing" textLength="6" x="1396" y="524.127"> </text><ellipse cx="1386" cy="541.9844" fill="#84BE84" rx="3" ry="3" style="stroke:#038048;stroke-width:1.0;"/><text fill="#000000" font-family="sans-serif" font-size="20" lengthAdjust="spacing" textLength="285" x="1396" y="547.4082">isCellAvailable(boardId, x, y)</text><ellipse cx="1386" cy="565.2656" fill="#84BE84" rx="3" ry="3" style="stroke:#038048;stroke-width:1.0;"/><text fill="#000000" font-family="sans-serif" font-size="20" lengthAdjust="spacing" textLength="294" x="1396" y="570.6895">checkCellExists(boardId, x, y)</text><ellipse cx="1386" cy="588.5469" fill="#84BE84" rx="3" ry="3" style="stroke:#038048;stroke-width:1.0;"/><text fill="#000000" font-family="sans-serif" font-size="20" lengthAdjust="spacing" textLength="242" x="1396" y="593.9707">existsPostIt(postIts, x, y)</text></g><!--class ImageEncoderService--><g id="elem_ImageEncoderService"><rect codeLine="29" fill="#F1F1F1" height="73.2813" id="ImageEncoderService" rx="2.5" ry="2.5" style="stroke:#181818;stroke-width:0.5;" width="287" x="1748.5" y="471.5"/><ellipse cx="1780.25" cy="488.5" fill="#ADD1B2" rx="12" ry="12" style="stroke:#181818;stroke-width:1.0;"/><path d="M1783.3125,495.5781 Q1782.625,495.9375 1781.875,496.1094 Q1781.125,496.2813 1780.2969,496.2813 Q1777.3438,496.2813 1775.7813,494.3438 Q1774.2344,492.3906 1774.2344,488.7188 Q1774.2344,485.0469 1775.7813,483.1094 Q1777.3438,481.1563 1780.2969,481.1563 Q1781.125,481.1563 1781.875,481.3281 Q1782.6406,481.5 1783.3125,481.8594 L1783.3125,485.0625 Q1782.5625,484.375 1781.8594,484.0625 Q1781.1719,483.75 1780.4219,483.75 Q1778.8438,483.75 1778.0313,485 Q1777.2344,486.25 1777.2344,488.7188 Q1777.2344,491.1875 1778.0313,492.4375 Q1778.8438,493.6875 1780.4219,493.6875 Q1781.1719,493.6875 1781.8594,493.375 Q1782.5625,493.0625 1783.3125,492.375 L1783.3125,495.5781 Z " fill="#000000"/><text fill="#000000" font-family="sans-serif" font-size="20" lengthAdjust="spacing" textLength="218" x="1798.75" y="495.4238">ImageEncoderService</text><line style="stroke:#181818;stroke-width:0.5;" x1="1749.5" x2="2034.5" y1="505.5" y2="505.5"/><line style="stroke:#181818;stroke-width:0.5;" x1="1749.5" x2="2034.5" y1="513.5" y2="513.5"/><ellipse cx="1759.5" cy="530.6406" fill="#84BE84" rx="3" ry="3" style="stroke:#038048;stroke-width:1.0;"/><text fill="#000000" font-family="sans-serif" font-size="20" lengthAdjust="spacing" textLength="260" x="1769.5" y="536.0645">encodeImage(imagePath)</text></g><!--class CreatePostItUI--><g id="elem_CreatePostItUI"><rect codeLine="33" fill="#F1F1F1" height="50" id="CreatePostItUI" rx="2.5" ry="2.5" style="stroke:#181818;stroke-width:0.5;" width="177" x="1064.5" y="7"/><ellipse cx="1080.5" cy="24" fill="#ADD1B2" rx="12" ry="12" style="stroke:#181818;stroke-width:1.0;"/><path d="M1083.5625,31.0781 Q1082.875,31.4375 1082.125,31.6094 Q1081.375,31.7813 1080.5469,31.7813 Q1077.5938,31.7813 1076.0313,29.8438 Q1074.4844,27.8906 1074.4844,24.2188 Q1074.4844,20.5469 1076.0313,18.6094 Q1077.5938,16.6563 1080.5469,16.6563 Q1081.375,16.6563 1082.125,16.8281 Q1082.8906,17 1083.5625,17.3594 L1083.5625,20.5625 Q1082.8125,19.875 1082.1094,19.5625 Q1081.4219,19.25 1080.6719,19.25 Q1079.0938,19.25 1078.2813,20.5 Q1077.4844,21.75 1077.4844,24.2188 Q1077.4844,26.6875 1078.2813,27.9375 Q1079.0938,29.1875 1080.6719,29.1875 Q1081.4219,29.1875 1082.1094,28.875 Q1082.8125,28.5625 1083.5625,27.875 L1083.5625,31.0781 Z " fill="#000000"/><text fill="#000000" font-family="sans-serif" font-size="20" lengthAdjust="spacing" textLength="143" x="1095.5" y="30.9238">CreatePostItUI</text><line style="stroke:#181818;stroke-width:0.5;" x1="1065.5" x2="1240.5" y1="41" y2="41"/><line style="stroke:#181818;stroke-width:0.5;" x1="1065.5" x2="1240.5" y1="49" y2="49"/></g><!--class CreatePostItController--><g id="elem_CreatePostItController"><rect codeLine="35" fill="#F1F1F1" height="236.25" id="CreatePostItController" rx="2.5" ry="2.5" style="stroke:#181818;stroke-width:0.5;" width="603" x="851.5" y="117"/><ellipse cx="1038" cy="134" fill="#ADD1B2" rx="12" ry="12" style="stroke:#181818;stroke-width:1.0;"/><path d="M1041.0625,141.0781 Q1040.375,141.4375 1039.625,141.6094 Q1038.875,141.7813 1038.0469,141.7813 Q1035.0938,141.7813 1033.5313,139.8438 Q1031.9844,137.8906 1031.9844,134.2188 Q1031.9844,130.5469 1033.5313,128.6094 Q1035.0938,126.6563 1038.0469,126.6563 Q1038.875,126.6563 1039.625,126.8281 Q1040.3906,127 1041.0625,127.3594 L1041.0625,130.5625 Q1040.3125,129.875 1039.6094,129.5625 Q1038.9219,129.25 1038.1719,129.25 Q1036.5938,129.25 1035.7813,130.5 Q1034.9844,131.75 1034.9844,134.2188 Q1034.9844,136.6875 1035.7813,137.9375 Q1036.5938,139.1875 1038.1719,139.1875 Q1038.9219,139.1875 1039.6094,138.875 Q1040.3125,138.5625 1041.0625,137.875 L1041.0625,141.0781 Z " fill="#000000"/><text fill="#000000" font-family="sans-serif" font-size="20" lengthAdjust="spacing" textLength="221" x="1060" y="140.9238">CreatePostItController</text><line style="stroke:#181818;stroke-width:0.5;" x1="852.5" x2="1453.5" y1="151" y2="151"/><rect fill="none" height="6" style="stroke:#C82930;stroke-width:1.0;" width="6" x="859.5" y="165.1406"/><text fill="#000000" font-family="sans-serif" font-size="20" lengthAdjust="spacing" textLength="164" x="872.5" y="173.5645">boardRepository</text><rect fill="none" height="6" style="stroke:#C82930;stroke-width:1.0;" width="6" x="859.5" y="188.4219"/><text fill="#000000" font-family="sans-serif" font-size="20" lengthAdjust="spacing" textLength="163" x="872.5" y="196.8457">postItRepository</text><line style="stroke:#181818;stroke-width:0.5;" x1="852.5" x2="1453.5" y1="205.5625" y2="205.5625"/><ellipse cx="862.5" cy="222.7031" fill="#84BE84" rx="3" ry="3" style="stroke:#038048;stroke-width:1.0;"/><text fill="#000000" font-family="sans-serif" font-size="20" lengthAdjust="spacing" textLength="576" x="872.5" y="228.127">CreatePostItController(boardRepository, postItRepository)</text><text fill="#000000" font-family="sans-serif" font-size="20" lengthAdjust="spacing" textLength="6" x="872.5" y="251.4082"> </text><ellipse cx="862.5" cy="269.2656" fill="#84BE84" rx="3" ry="3" style="stroke:#038048;stroke-width:1.0;"/><text fill="#000000" font-family="sans-serif" font-size="20" lengthAdjust="spacing" textLength="298" x="872.5" y="274.6895">listBoardsThatUserCanWrite()</text><ellipse cx="862.5" cy="292.5469" fill="#84BE84" rx="3" ry="3" style="stroke:#038048;stroke-width:1.0;"/><text fill="#000000" font-family="sans-serif" font-size="20" lengthAdjust="spacing" textLength="339" x="872.5" y="297.9707">validateCoordinates(boardId, x, y)</text><ellipse cx="862.5" cy="315.8281" fill="#84BE84" rx="3" ry="3" style="stroke:#038048;stroke-width:1.0;"/><text fill="#000000" font-family="sans-serif" font-size="20" lengthAdjust="spacing" textLength="554" x="872.5" y="321.252">createPostIt(boardId, x, y, title, description, imagePath)</text><ellipse cx="862.5" cy="339.1094" fill="#84BE84" rx="3" ry="3" style="stroke:#038048;stroke-width:1.0;"/><text fill="#000000" font-family="sans-serif" font-size="20" lengthAdjust="spacing" textLength="174" x="872.5" y="344.5332">savePostIt(postIt)</text></g><!--class PostIt--><g id="elem_PostIt"><rect codeLine="47" fill="#F1F1F1" height="282.8125" id="PostIt" rx="2.5" ry="2.5" style="stroke:#181818;stroke-width:0.5;" width="144" x="1472" y="663"/><ellipse cx="1512.3" cy="680" fill="#ADD1B2" rx="12" ry="12" style="stroke:#181818;stroke-width:1.0;"/><path d="M1515.3625,687.0781 Q1514.675,687.4375 1513.925,687.6094 Q1513.175,687.7813 1512.3469,687.7813 Q1509.3938,687.7813 1507.8313,685.8438 Q1506.2844,683.8906 1506.2844,680.2188 Q1506.2844,676.5469 1507.8313,674.6094 Q1509.3938,672.6563 1512.3469,672.6563 Q1513.175,672.6563 1513.925,672.8281 Q1514.6906,673 1515.3625,673.3594 L1515.3625,676.5625 Q1514.6125,675.875 1513.9094,675.5625 Q1513.2219,675.25 1512.4719,675.25 Q1510.8938,675.25 1510.0813,676.5 Q1509.2844,677.75 1509.2844,680.2188 Q1509.2844,682.6875 1510.0813,683.9375 Q1510.8938,685.1875 1512.4719,685.1875 Q1513.2219,685.1875 1513.9094,684.875 Q1514.6125,684.5625 1515.3625,683.875 L1515.3625,687.0781 Z " fill="#000000"/><text fill="#000000" font-family="sans-serif" font-size="20" lengthAdjust="spacing" textLength="56" x="1532.7" y="686.9238">PostIt</text><line style="stroke:#181818;stroke-width:0.5;" x1="1473" x2="1615" y1="697" y2="697"/><rect fill="none" height="6" style="stroke:#C82930;stroke-width:1.0;" width="6" x="1480" y="711.1406"/><text fill="#000000" font-family="sans-serif" font-size="20" lengthAdjust="spacing" textLength="40" x="1493" y="719.5645">title</text><rect fill="none" height="6" style="stroke:#C82930;stroke-width:1.0;" width="6" x="1480" y="734.4219"/><text fill="#000000" font-family="sans-serif" font-size="20" lengthAdjust="spacing" textLength="117" x="1493" y="742.8457">coordinates</text><rect fill="none" height="6" style="stroke:#C82930;stroke-width:1.0;" width="6" x="1480" y="757.7031"/><text fill="#000000" font-family="sans-serif" font-size="20" lengthAdjust="spacing" textLength="43" x="1493" y="766.127">user</text><rect fill="none" height="6" style="stroke:#C82930;stroke-width:1.0;" width="6" x="1480" y="780.9844"/><text fill="#000000" font-family="sans-serif" font-size="20" lengthAdjust="spacing" textLength="58" x="1493" y="789.4082">board</text><rect fill="none" height="6" style="stroke:#C82930;stroke-width:1.0;" width="6" x="1480" y="804.2656"/><text fill="#000000" font-family="sans-serif" font-size="20" lengthAdjust="spacing" textLength="50" x="1493" y="812.6895">state</text><rect fill="none" height="6" style="stroke:#C82930;stroke-width:1.0;" width="6" x="1480" y="827.5469"/><text fill="#000000" font-family="sans-serif" font-size="20" lengthAdjust="spacing" textLength="98" x="1493" y="835.9707">createdAt</text><rect fill="none" height="6" style="stroke:#C82930;stroke-width:1.0;" width="6" x="1480" y="850.8281"/><text fill="#000000" font-family="sans-serif" font-size="20" lengthAdjust="spacing" textLength="77" x="1493" y="859.252">isLatest</text><rect fill="none" height="6" style="stroke:#C82930;stroke-width:1.0;" width="6" x="1480" y="874.1094"/><text fill="#000000" font-family="sans-serif" font-size="20" lengthAdjust="spacing" textLength="63" x="1493" y="882.5332">image</text><rect fill="none" height="6" style="stroke:#C82930;stroke-width:1.0;" width="6" x="1480" y="897.3906"/><text fill="#000000" font-family="sans-serif" font-size="20" lengthAdjust="spacing" textLength="112" x="1493" y="905.8145">description</text><line style="stroke:#181818;stroke-width:0.5;" x1="1473" x2="1615" y1="914.5313" y2="914.5313"/><ellipse cx="1483" cy="931.6719" fill="#84BE84" rx="3" ry="3" style="stroke:#038048;stroke-width:1.0;"/><text fill="#000000" font-family="sans-serif" font-size="20" lengthAdjust="spacing" textLength="71" x="1493" y="937.0957">toDto()</text></g><!--class Board--><g id="elem_Board"><rect codeLine="61" fill="#F1F1F1" height="50" id="Board" rx="2.5" ry="2.5" style="stroke:#181818;stroke-width:0.5;" width="93" x="1106.5" y="779.5"/><ellipse cx="1122.5" cy="796.5" fill="#ADD1B2" rx="12" ry="12" style="stroke:#181818;stroke-width:1.0;"/><path d="M1125.5625,803.5781 Q1124.875,803.9375 1124.125,804.1094 Q1123.375,804.2813 1122.5469,804.2813 Q1119.5938,804.2813 1118.0313,802.3438 Q1116.4844,800.3906 1116.4844,796.7188 Q1116.4844,793.0469 1118.0313,791.1094 Q1119.5938,789.1563 1122.5469,789.1563 Q1123.375,789.1563 1124.125,789.3281 Q1124.8906,789.5 1125.5625,789.8594 L1125.5625,793.0625 Q1124.8125,792.375 1124.1094,792.0625 Q1123.4219,791.75 1122.6719,791.75 Q1121.0938,791.75 1120.2813,793 Q1119.4844,794.25 1119.4844,796.7188 Q1119.4844,799.1875 1120.2813,800.4375 Q1121.0938,801.6875 1122.6719,801.6875 Q1123.4219,801.6875 1124.1094,801.375 Q1124.8125,801.0625 1125.5625,800.375 L1125.5625,803.5781 Z " fill="#000000"/><text fill="#000000" font-family="sans-serif" font-size="20" lengthAdjust="spacing" textLength="59" x="1137.5" y="803.4238">Board</text><line style="stroke:#181818;stroke-width:0.5;" x1="1107.5" x2="1198.5" y1="813.5" y2="813.5"/><line style="stroke:#181818;stroke-width:0.5;" x1="1107.5" x2="1198.5" y1="821.5" y2="821.5"/></g><!--class BoardDTO--><g id="elem_BoardDTO"><rect codeLine="65" fill="#F1F1F1" height="73.2813" id="BoardDTO" rx="2.5" ry="2.5" style="stroke:#181818;stroke-width:0.5;" width="136" x="38" y="768"/><ellipse cx="54" cy="785" fill="#ADD1B2" rx="12" ry="12" style="stroke:#181818;stroke-width:1.0;"/><path d="M57.0625,792.0781 Q56.375,792.4375 55.625,792.6094 Q54.875,792.7813 54.0469,792.7813 Q51.0938,792.7813 49.5313,790.8438 Q47.9844,788.8906 47.9844,785.2188 Q47.9844,781.5469 49.5313,779.6094 Q51.0938,777.6563 54.0469,777.6563 Q54.875,777.6563 55.625,777.8281 Q56.3906,778 57.0625,778.3594 L57.0625,781.5625 Q56.3125,780.875 55.6094,780.5625 Q54.9219,780.25 54.1719,780.25 Q52.5938,780.25 51.7813,781.5 Q50.9844,782.75 50.9844,785.2188 Q50.9844,787.6875 51.7813,788.9375 Q52.5938,790.1875 54.1719,790.1875 Q54.9219,790.1875 55.6094,789.875 Q56.3125,789.5625 57.0625,788.875 L57.0625,792.0781 Z " fill="#000000"/><text fill="#000000" font-family="sans-serif" font-size="20" lengthAdjust="spacing" textLength="102" x="69" y="791.9238">BoardDTO</text><line style="stroke:#181818;stroke-width:0.5;" x1="39" x2="173" y1="802" y2="802"/><line style="stroke:#181818;stroke-width:0.5;" x1="39" x2="173" y1="810" y2="810"/><ellipse cx="49" cy="827.1406" fill="#84BE84" rx="3" ry="3" style="stroke:#038048;stroke-width:1.0;"/><text fill="#000000" font-family="sans-serif" font-size="20" lengthAdjust="spacing" textLength="71" x="59" y="832.5645">toDto()</text></g><!--class BoardDTOParser--><g id="elem_BoardDTOParser"><rect codeLine="69" fill="#F1F1F1" height="73.2813" id="BoardDTOParser" rx="2.5" ry="2.5" style="stroke:#181818;stroke-width:0.5;" width="198" x="7" y="471.5"/><ellipse cx="23" cy="488.5" fill="#ADD1B2" rx="12" ry="12" style="stroke:#181818;stroke-width:1.0;"/><path d="M26.0625,495.5781 Q25.375,495.9375 24.625,496.1094 Q23.875,496.2813 23.0469,496.2813 Q20.0938,496.2813 18.5313,494.3438 Q16.9844,492.3906 16.9844,488.7188 Q16.9844,485.0469 18.5313,483.1094 Q20.0938,481.1563 23.0469,481.1563 Q23.875,481.1563 24.625,481.3281 Q25.3906,481.5 26.0625,481.8594 L26.0625,485.0625 Q25.3125,484.375 24.6094,484.0625 Q23.9219,483.75 23.1719,483.75 Q21.5938,483.75 20.7813,485 Q19.9844,486.25 19.9844,488.7188 Q19.9844,491.1875 20.7813,492.4375 Q21.5938,493.6875 23.1719,493.6875 Q23.9219,493.6875 24.6094,493.375 Q25.3125,493.0625 26.0625,492.375 L26.0625,495.5781 Z " fill="#000000"/><text fill="#000000" font-family="sans-serif" font-size="20" lengthAdjust="spacing" textLength="164" x="38" y="495.4238">BoardDTOParser</text><line style="stroke:#181818;stroke-width:0.5;" x1="8" x2="204" y1="505.5" y2="505.5"/><line style="stroke:#181818;stroke-width:0.5;" x1="8" x2="204" y1="513.5" y2="513.5"/><ellipse cx="18" cy="530.6406" fill="#84BE84" rx="3" ry="3" style="stroke:#038048;stroke-width:1.0;"/><text fill="#000000" font-family="sans-serif" font-size="20" lengthAdjust="spacing" textLength="71" x="28" y="536.0645">toDto()</text></g><!--link CreatePostItUI to CreatePostItController--><g id="link_CreatePostItUI_CreatePostItController"><path codeLine="74" d="M1153,57.25 C1153,71.65 1153,91.12 1153,111.88 " fill="none" id="CreatePostItUI-to-CreatePostItController" style="stroke:#181818;stroke-width:1.0;stroke-dasharray:7.0,7.0;"/><polygon fill="#181818" points="1153,116.9,1157,107.9,1153,111.9,1149,107.9,1153,116.9" style="stroke:#181818;stroke-width:1.0;"/></g><!--link CreatePostItController to ListBoardService--><g id="link_CreatePostItController_ListBoardService"><path codeLine="75" d="M1153,353.29 C1153,379.73 1153,407.12 1153,431.32 " fill="none" id="CreatePostItController-to-ListBoardService" style="stroke:#181818;stroke-width:1.0;"/><polygon fill="#181818" points="1153,436.43,1157,427.43,1153,431.43,1149,427.43,1153,436.43" style="stroke:#181818;stroke-width:1.0;"/></g><!--link CreatePostItController to BoardService--><g id="link_CreatePostItController_BoardService"><path codeLine="76" d="M1321.94,353.09 C1349.29,372.05 1377.34,391.49 1403.91,409.91 " fill="none" id="CreatePostItController-to-BoardService" style="stroke:#181818;stroke-width:1.0;"/><polygon fill="#181818" points="1408.16,412.85,1403.0432,404.4346,1404.0511,410.001,1398.4848,411.0089,1408.16,412.85" style="stroke:#181818;stroke-width:1.0;"/></g><!--link CreatePostItController to ImageEncoderService--><g id="link_CreatePostItController_ImageEncoderService"><path codeLine="77" d="M1454.8,314.06 C1545.2,341.25 1643.52,374.69 1731,413 C1766.46,428.53 1803.94,450.07 1833.8,468.61 " fill="none" id="CreatePostItController-to-ImageEncoderService" style="stroke:#181818;stroke-width:1.0;"/><polygon fill="#181818" points="1838.15,471.33,1832.6257,463.1764,1833.906,468.6864,1828.3959,469.9668,1838.15,471.33" style="stroke:#181818;stroke-width:1.0;"/></g><!--link ListBoardService to Board--><g id="link_ListBoardService_Board"><path codeLine="79" d="M1153,579.54 C1153,641.8 1153,729.45 1153,774.41 " fill="none" id="ListBoardService-to-Board" style="stroke:#181818;stroke-width:1.0;stroke-dasharray:7.0,7.0;"/><polygon fill="#181818" points="1153,779.41,1157,770.41,1153,774.41,1149,770.41,1153,779.41" style="stroke:#181818;stroke-width:1.0;"/></g><!--link CreatePostItController to PostItRepository--><g id="link_CreatePostItController_PostItRepository"><path codeLine="80" d="M997.89,353.09 C950.13,389.14 900.03,426.96 861.44,456.09 " fill="none" id="CreatePostItController-to-PostItRepository" style="stroke:#181818;stroke-width:1.0;"/><polygon fill="#181818" points="857.27,459.24,866.8611,457.0016,861.258,456.224,862.0355,450.6209,857.27,459.24" style="stroke:#181818;stroke-width:1.0;"/></g><!--link CreatePostItController to BoardRepository--><g id="link_CreatePostItController_BoardRepository"><path codeLine="81" d="M851.29,334.66 C781.14,359.04 707.09,385.96 639,413 C595.82,430.15 548.57,451.3 510.03,469.2 " fill="none" id="CreatePostItController-to-BoardRepository" style="stroke:#181818;stroke-width:1.0;"/><polygon fill="#181818" points="505.38,471.37,515.2272,471.1871,509.9106,469.2548,511.8428,463.9382,505.38,471.37" style="stroke:#181818;stroke-width:1.0;"/></g><!--link BoardService to PostIt--><g id="link_BoardService_PostIt"><path codeLine="83" d="M1544,603.4 C1544,620.77 1544,639.28 1544,657.76 " fill="none" id="BoardService-to-PostIt" style="stroke:#181818;stroke-width:1.0;stroke-dasharray:7.0,7.0;"/><polygon fill="#181818" points="1544,662.97,1548,653.97,1544,657.97,1540,653.97,1544,662.97" style="stroke:#181818;stroke-width:1.0;"/></g><!--link BoardService to Board--><g id="link_BoardService_Board"><path codeLine="84" d="M1418.94,603.19 C1339.18,663.27 1241.37,736.94 1189.45,776.05 " fill="none" id="BoardService-to-Board" style="stroke:#181818;stroke-width:1.0;stroke-dasharray:7.0,7.0;"/><polygon fill="#181818" points="1185.18,779.26,1194.7762,777.0435,1189.1748,776.2531,1189.9652,770.6518,1185.18,779.26" style="stroke:#181818;stroke-width:1.0;"/></g><!--link BoardDTOParser to BoardDTO--><g id="link_BoardDTOParser_BoardDTO"><path codeLine="85" d="M106,544.52 C106,599.47 106,704.77 106,762.73 " fill="none" id="BoardDTOParser-to-BoardDTO" style="stroke:#181818;stroke-width:1.0;stroke-dasharray:7.0,7.0;"/><polygon fill="#181818" points="106,767.85,110,758.85,106,762.85,102,758.85,106,767.85" style="stroke:#181818;stroke-width:1.0;"/></g><!--link BoardDTOParser to Board--><g id="link_BoardDTOParser_Board"><path codeLine="86" d="M140.8,544.55 C162.4,564.62 191.72,588.5 222,603 C533.33,752.08 956.06,791.35 1101.43,800.77 " fill="none" id="BoardDTOParser-to-Board" style="stroke:#181818;stroke-width:1.0;stroke-dasharray:7.0,7.0;"/><polygon fill="#181818" points="1106.48,801.09,1097.7487,796.5333,1101.4898,800.7763,1097.2468,804.5175,1106.48,801.09" style="stroke:#181818;stroke-width:1.0;"/></g><!--SRC=[ZLJRJkCm47ttL_WnrQPenGSWbG1I9QIjk8XdrvxIKKqSsKD4D-BVyIKjIPeKNX9xvioPCvV4xR2iX1LlsiWTAAvW8zurtPcI7l4_yCk_Z659O3T20hysmge7g8n3CdRF6yPv8zQEh93qoJTOgeKah242tTDMqBC3MuZonI91DcEVNRgLSRIa7_Yqljv7kgNArkazwyESg26h8bTC8BLmZj-ZenZt2BP6dosGp_cwNmBpnZyds6o0cYNOkwyb52BMkgqm2wOWw9Xs96KrA3EHzV8D8Mr2T0LelQW5wf3pK7_EFtA-dqM8t8BS1TJjXo_2ZK4WUbApsqpku3_gNhw9LxWjfL5WMrLDYewswCumF5U2jft0me8WIEpFIzwCEWg_JzPe3NPY3DDz6gSPJYZd4otKXz6ERMC0r4AZyXaAOwp2qfz6coWxClh-d1EIXjn_EqvQh0XDcVDEgq9usD7U13eTJFQsCP4hdkIte7WFg_RTktXovBq97EMf1SKRkliGrbw2adZg24pD8ND39XjkhrVY3LtBpTC_tfo9yFwLiAwTRW_51ljnSN4rCL8siJ3p-TN91teE-rlSoCOpTlBN27gZuHpLy4Vsexpkaf-aIs5iGiQWuKU7Dqtws1S0]--></g></svg>