<?xml version="1.0" encoding="UTF-8" standalone="no"?><svg xmlns="http://www.w3.org/2000/svg" xmlns:xlink="http://www.w3.org/1999/xlink" contentStyleType="text/css" height="533px" preserveAspectRatio="none" style="width:664px;height:533px;background:#FFFFFF;" version="1.1" viewBox="0 0 664 533" width="664px" zoomAndPan="magnify"><defs/><g><rect fill="#FFFFFF" height="321.9198" style="stroke:#181818;stroke-width:1.0;" width="10" x="25" y="102.24"/><rect fill="#FFFFFF" height="41.24" style="stroke:#181818;stroke-width:1.0;" width="10" x="609.625" y="135.4799"/><rect fill="#FFFFFF" height="41.24" style="stroke:#181818;stroke-width:1.0;" width="10" x="609.625" y="217.9599"/><rect fill="#FFFFFF" height="41.24" style="stroke:#181818;stroke-width:1.0;" width="10" x="609.625" y="300.4398"/><rect fill="#FFFFFF" height="50.24" style="stroke:#181818;stroke-width:1.0;" width="10" x="609.625" y="382.9198"/><line style="stroke:#181818;stroke-width:0.5;stroke-dasharray:5.0,5.0;" x1="30" x2="30" y1="92.24" y2="442.1598"/><line style="stroke:#181818;stroke-width:0.5;stroke-dasharray:5.0,5.0;" x1="614.125" x2="614.125" y1="92.24" y2="442.1598"/><text fill="#000000" font-family="sans-serif" font-size="20" lengthAdjust="spacing" textLength="44" x="5" y="86.38">User</text><ellipse cx="30" cy="13.5" fill="#E2E2F0" rx="8" ry="8" style="stroke:#181818;stroke-width:0.5;"/><path d="M30,21.5 L30,48.5 M17,29.5 L43,29.5 M30,48.5 L17,63.5 M30,48.5 L43,63.5 " fill="none" style="stroke:#181818;stroke-width:0.5;"/><text fill="#000000" font-family="sans-serif" font-size="20" lengthAdjust="spacing" textLength="44" x="5" y="462.5398">User</text><ellipse cx="30" cy="476.8997" fill="#E2E2F0" rx="8" ry="8" style="stroke:#181818;stroke-width:0.5;"/><path d="M30,484.8997 L30,511.8997 M17,492.8997 L43,492.8997 M30,511.8997 L17,526.8997 M30,511.8997 L43,526.8997 " fill="none" style="stroke:#181818;stroke-width:0.5;"/><rect fill="#E2E2F0" height="41.24" rx="2.5" ry="2.5" style="stroke:#181818;stroke-width:0.5;" width="87" x="571.125" y="50"/><text fill="#000000" font-family="sans-serif" font-size="20" lengthAdjust="spacing" textLength="73" x="578.125" y="78.38">:System</text><rect fill="#E2E2F0" height="41.24" rx="2.5" ry="2.5" style="stroke:#181818;stroke-width:0.5;" width="87" x="571.125" y="441.1598"/><text fill="#000000" font-family="sans-serif" font-size="20" lengthAdjust="spacing" textLength="73" x="578.125" y="469.5398">:System</text><rect fill="#FFFFFF" height="321.9198" style="stroke:#181818;stroke-width:1.0;" width="10" x="25" y="102.24"/><rect fill="#FFFFFF" height="41.24" style="stroke:#181818;stroke-width:1.0;" width="10" x="609.625" y="135.4799"/><rect fill="#FFFFFF" height="41.24" style="stroke:#181818;stroke-width:1.0;" width="10" x="609.625" y="217.9599"/><rect fill="#FFFFFF" height="41.24" style="stroke:#181818;stroke-width:1.0;" width="10" x="609.625" y="300.4398"/><rect fill="#FFFFFF" height="50.24" style="stroke:#181818;stroke-width:1.0;" width="10" x="609.625" y="382.9198"/><polygon fill="#181818" points="597.625,131.4799,607.625,135.4799,597.625,139.4799,601.625,135.4799" style="stroke:#181818;stroke-width:1.0;"/><line style="stroke:#181818;stroke-width:1.0;" x1="35" x2="603.625" y1="135.4799" y2="135.4799"/><text fill="#000000" font-family="sans-serif" font-size="20" font-weight="bold" lengthAdjust="spacing" textLength="11.625" x="42" y="127.62">1</text><text fill="#000000" font-family="sans-serif" font-size="20" lengthAdjust="spacing" textLength="209" x="57.625" y="127.62">asks to create a post-it</text><polygon fill="#181818" points="46,172.7199,36,176.7199,46,180.7199,42,176.7199" style="stroke:#181818;stroke-width:1.0;"/><line style="stroke:#181818;stroke-width:1.0;stroke-dasharray:2.0,2.0;" x1="40" x2="613.625" y1="176.7199" y2="176.7199"/><text fill="#000000" font-family="sans-serif" font-size="20" font-weight="bold" lengthAdjust="spacing" textLength="11.625" x="52" y="168.8599">2</text><text fill="#000000" font-family="sans-serif" font-size="20" lengthAdjust="spacing" textLength="220" x="67.625" y="168.8599">asks to select the board</text><polygon fill="#181818" points="597.625,213.9599,607.625,217.9599,597.625,221.9599,601.625,217.9599" style="stroke:#181818;stroke-width:1.0;"/><line style="stroke:#181818;stroke-width:1.0;" x1="35" x2="603.625" y1="217.9599" y2="217.9599"/><text fill="#000000" font-family="sans-serif" font-size="20" font-weight="bold" lengthAdjust="spacing" textLength="11.625" x="42" y="210.0999">3</text><text fill="#000000" font-family="sans-serif" font-size="20" lengthAdjust="spacing" textLength="159" x="57.625" y="210.0999">selects the board</text><polygon fill="#181818" points="46,255.1999,36,259.1999,46,263.1999,42,259.1999" style="stroke:#181818;stroke-width:1.0;"/><line style="stroke:#181818;stroke-width:1.0;stroke-dasharray:2.0,2.0;" x1="40" x2="613.625" y1="259.1999" y2="259.1999"/><text fill="#000000" font-family="sans-serif" font-size="20" font-weight="bold" lengthAdjust="spacing" textLength="11.625" x="52" y="251.3399">4</text><text fill="#000000" font-family="sans-serif" font-size="20" lengthAdjust="spacing" textLength="339" x="67.625" y="251.3399">asks to select the post-it coordinates</text><polygon fill="#181818" points="597.625,296.4398,607.625,300.4398,597.625,304.4398,601.625,300.4398" style="stroke:#181818;stroke-width:1.0;"/><line style="stroke:#181818;stroke-width:1.0;" x1="35" x2="603.625" y1="300.4398" y2="300.4398"/><text fill="#000000" font-family="sans-serif" font-size="20" font-weight="bold" lengthAdjust="spacing" textLength="11.625" x="42" y="292.5799">5</text><text fill="#000000" font-family="sans-serif" font-size="20" lengthAdjust="spacing" textLength="278" x="57.625" y="292.5799">selects the post-it coordinates</text><polygon fill="#181818" points="46,337.6798,36,341.6798,46,345.6798,42,341.6798" style="stroke:#181818;stroke-width:1.0;"/><line style="stroke:#181818;stroke-width:1.0;stroke-dasharray:2.0,2.0;" x1="40" x2="613.625" y1="341.6798" y2="341.6798"/><text fill="#000000" font-family="sans-serif" font-size="20" font-weight="bold" lengthAdjust="spacing" textLength="11.625" x="52" y="333.8198">6</text><text fill="#000000" font-family="sans-serif" font-size="20" lengthAdjust="spacing" textLength="535" x="67.625" y="333.8198">asks to enter the title, description and image of the post-it</text><polygon fill="#181818" points="597.625,378.9198,607.625,382.9198,597.625,386.9198,601.625,382.9198" style="stroke:#181818;stroke-width:1.0;"/><line style="stroke:#181818;stroke-width:1.0;" x1="35" x2="603.625" y1="382.9198" y2="382.9198"/><text fill="#000000" font-family="sans-serif" font-size="20" font-weight="bold" lengthAdjust="spacing" textLength="11.625" x="42" y="375.0598">7</text><text fill="#000000" font-family="sans-serif" font-size="20" lengthAdjust="spacing" textLength="239" x="57.625" y="375.0598">enters the requested data</text><polygon fill="#181818" points="41,420.1598,31,424.1598,41,428.1598,37,424.1598" style="stroke:#181818;stroke-width:1.0;"/><line style="stroke:#181818;stroke-width:1.0;stroke-dasharray:2.0,2.0;" x1="35" x2="608.625" y1="424.1598" y2="424.1598"/><text fill="#000000" font-family="sans-serif" font-size="20" font-weight="bold" lengthAdjust="spacing" textLength="11.625" x="47" y="416.2998">8</text><text fill="#000000" font-family="sans-serif" font-size="20" lengthAdjust="spacing" textLength="246" x="62.625" y="416.2998">informs operation suscess</text><!--SRC=[dP91JiGm34NtEONLDPKGorcmv0AZ7C2Jk62rZOljZ0Id9tGGKyGi2hie-V_vIOwDN1PKd2T98sN8D62T_4cA7_cTuE4-1AmkfSudqdPEBWeHqA2BHjgjLtn69uWXHEWVeJiStynfxk3GSgE12oIbpmZ28kOz-xNrdGxXMkmR9cxgHXCb1tyXE0bg3fbk0NwDl_HiK_ptt2znI2AQkJI4xRNueN6BypSfAawwifnzehksD4lAYxCKm9A1Ptmca64xRxVhIh-eAhrMQW_jMw3ZJaikW-Xi80ifhafMBP5Ps2h4y040]--></g></svg>