<?xml version="1.0" encoding="UTF-8" standalone="no"?><svg xmlns="http://www.w3.org/2000/svg" xmlns:xlink="http://www.w3.org/1999/xlink" contentStyleType="text/css" height="1060px" preserveAspectRatio="none" style="width:1891px;height:1060px;background:#FFFFFF;" version="1.1" viewBox="0 0 1891 1060" width="1891px" zoomAndPan="magnify"><defs/><g><!--class BoardRepository--><g id="elem_BoardRepository"><rect codeLine="2" fill="#F1F1F1" height="80.4799" id="BoardRepository" rx="2.5" ry="2.5" style="stroke:#181818;stroke-width:0.5;" width="336" x="234" y="519.5"/><ellipse cx="324" cy="538.12" fill="#B4A7E5" rx="12" ry="12" style="stroke:#181818;stroke-width:1.0;"/><path d="M326.5781,545.62 L320.7969,545.62 L320.7969,544.0106 L322.4844,543.6356 L322.4844,532.7137 L320.7969,532.3231 L320.7969,530.7137 L326.5781,530.7137 L326.5781,532.3231 L324.9063,532.7137 L324.9063,543.6356 L326.5781,544.0106 L326.5781,545.62 Z " fill="#000000"/><text fill="#000000" font-family="sans-serif" font-size="20" font-style="italic" lengthAdjust="spacing" textLength="147" x="346" y="545.88">BoardRepository</text><line style="stroke:#181818;stroke-width:0.5;" x1="235" x2="569" y1="556.74" y2="556.74"/><line style="stroke:#181818;stroke-width:0.5;" x1="235" x2="569" y1="564.74" y2="564.74"/><text fill="#000000" font-family="sans-serif" font-size="20" font-style="italic" lengthAdjust="spacing" textLength="324" x="240" y="590.12">findActiveBoardsThatUserCanWrite()</text></g><!--class PostItRepository--><g id="elem_PostItRepository"><rect codeLine="6" fill="#F1F1F1" height="107.7199" id="PostItRepository" rx="2.5" ry="2.5" style="stroke:#181818;stroke-width:0.5;" width="245" x="605.5" y="505.5"/><ellipse cx="651.65" cy="524.12" fill="#B4A7E5" rx="12" ry="12" style="stroke:#181818;stroke-width:1.0;"/><path d="M654.2281,531.62 L648.4469,531.62 L648.4469,530.0106 L650.1344,529.6356 L650.1344,518.7137 L648.4469,518.3231 L648.4469,516.7137 L654.2281,516.7137 L654.2281,518.3231 L652.5563,518.7137 L652.5563,529.6356 L654.2281,530.0106 L654.2281,531.62 Z " fill="#000000"/><text fill="#000000" font-family="sans-serif" font-size="20" font-style="italic" lengthAdjust="spacing" textLength="144" x="673.35" y="531.88">PostItRepository</text><line style="stroke:#181818;stroke-width:0.5;" x1="606.5" x2="849.5" y1="542.74" y2="542.74"/><line style="stroke:#181818;stroke-width:0.5;" x1="606.5" x2="849.5" y1="550.74" y2="550.74"/><text fill="#000000" font-family="sans-serif" font-size="20" font-style="italic" lengthAdjust="spacing" textLength="233" x="611.5" y="576.12">findAllByBoardId(boardId)</text><text fill="#000000" font-family="sans-serif" font-size="20" font-style="italic" lengthAdjust="spacing" textLength="103" x="611.5" y="603.3599">save(postIt)</text></g><!--class ListBoardService--><g id="elem_ListBoardService"><rect codeLine="11" fill="#F1F1F1" height="162.1999" id="ListBoardService" rx="2.5" ry="2.5" style="stroke:#181818;stroke-width:0.5;" width="347" x="885.5" y="478.5"/><ellipse cx="977.5" cy="497.12" fill="#ADD1B2" rx="12" ry="12" style="stroke:#181818;stroke-width:1.0;"/><path d="M977.625,491.7137 Q976.5469,491.7137 975.6875,492.0887 Q974.8281,492.4481 974.2344,493.1512 Q973.6406,493.8387 973.3125,494.8544 Q973,495.87 973,497.1669 Q973,498.87 973.5156,500.1044 Q974.0313,501.3231 975.0469,501.9794 Q976.0625,502.62 977.6094,502.62 Q978.5156,502.62 979.3281,502.4637 Q980.1406,502.3075 981.3281,501.9481 L981.3281,504.1512 Q980.2969,504.5262 979.4219,504.6669 Q978.5469,504.8231 977.3438,504.8231 Q975.0625,504.8231 973.5313,503.8856 Q972,502.9325 971.2344,501.1981 Q970.4688,499.4481 970.4688,497.1512 Q970.4688,495.4794 970.9375,494.0887 Q971.4063,492.6981 972.3125,491.6669 Q973.2344,490.62 974.5781,490.0731 Q975.9219,489.5106 977.6406,489.5106 Q978.7813,489.5106 979.8281,489.745 Q980.8906,489.9637 981.9844,490.5262 L981.0156,492.5887 Q980.0938,492.1825 979.3125,491.9481 Q978.5313,491.7137 977.625,491.7137 Z " fill="#000000"/><text fill="#000000" font-family="sans-serif" font-size="20" lengthAdjust="spacing" textLength="154" x="999.5" y="504.88">ListBoardService</text><line style="stroke:#181818;stroke-width:0.5;" x1="886.5" x2="1231.5" y1="515.74" y2="515.74"/><rect fill="none" height="6" style="stroke:#C82930;stroke-width:1.0;" width="6" x="893.5" y="531.86"/><text fill="#000000" font-family="sans-serif" font-size="20" lengthAdjust="spacing" textLength="154" x="906.5" y="541.12">boardRepository</text><line style="stroke:#181818;stroke-width:0.5;" x1="886.5" x2="1231.5" y1="550.9799" y2="550.9799"/><ellipse cx="896.5" cy="570.0999" fill="#84BE84" rx="3" ry="3" style="stroke:#038048;stroke-width:1.0;"/><text fill="#000000" font-family="sans-serif" font-size="20" lengthAdjust="spacing" textLength="320" x="906.5" y="576.3599">ListBoardService(boardRepository)</text><text fill="#000000" font-family="sans-serif" font-size="20" lengthAdjust="spacing" textLength="5" x="906.5" y="603.5999"> </text><ellipse cx="896.5" cy="624.5799" fill="#84BE84" rx="3" ry="3" style="stroke:#038048;stroke-width:1.0;"/><text fill="#000000" font-family="sans-serif" font-size="20" lengthAdjust="spacing" textLength="257" x="906.5" y="630.8399">userWritableBoards(userId)</text></g><!--class BoardService--><g id="elem_BoardService"><rect codeLine="19" fill="#F1F1F1" height="216.6798" id="BoardService" rx="2.5" ry="2.5" style="stroke:#181818;stroke-width:0.5;" width="315" x="1267.5" y="451"/><ellipse cx="1359.5" cy="469.62" fill="#ADD1B2" rx="12" ry="12" style="stroke:#181818;stroke-width:1.0;"/><path d="M1359.625,464.2137 Q1358.5469,464.2137 1357.6875,464.5887 Q1356.8281,464.9481 1356.2344,465.6512 Q1355.6406,466.3387 1355.3125,467.3544 Q1355,468.37 1355,469.6669 Q1355,471.37 1355.5156,472.6044 Q1356.0313,473.8231 1357.0469,474.4794 Q1358.0625,475.12 1359.6094,475.12 Q1360.5156,475.12 1361.3281,474.9637 Q1362.1406,474.8075 1363.3281,474.4481 L1363.3281,476.6512 Q1362.2969,477.0262 1361.4219,477.1669 Q1360.5469,477.3231 1359.3438,477.3231 Q1357.0625,477.3231 1355.5313,476.3856 Q1354,475.4325 1353.2344,473.6981 Q1352.4688,471.9481 1352.4688,469.6512 Q1352.4688,467.9794 1352.9375,466.5887 Q1353.4063,465.1981 1354.3125,464.1669 Q1355.2344,463.12 1356.5781,462.5731 Q1357.9219,462.0106 1359.6406,462.0106 Q1360.7813,462.0106 1361.8281,462.245 Q1362.8906,462.4637 1363.9844,463.0262 L1363.0156,465.0887 Q1362.0938,464.6825 1361.3125,464.4481 Q1360.5313,464.2137 1359.625,464.2137 Z " fill="#000000"/><text fill="#000000" font-family="sans-serif" font-size="20" lengthAdjust="spacing" textLength="122" x="1381.5" y="477.38">BoardService</text><line style="stroke:#181818;stroke-width:0.5;" x1="1268.5" x2="1581.5" y1="488.24" y2="488.24"/><rect fill="none" height="6" style="stroke:#C82930;stroke-width:1.0;" width="6" x="1275.5" y="504.36"/><text fill="#000000" font-family="sans-serif" font-size="20" lengthAdjust="spacing" textLength="154" x="1288.5" y="513.62">postItRepository</text><line style="stroke:#181818;stroke-width:0.5;" x1="1268.5" x2="1581.5" y1="523.4799" y2="523.4799"/><ellipse cx="1278.5" cy="542.5999" fill="#84BE84" rx="3" ry="3" style="stroke:#038048;stroke-width:1.0;"/><text fill="#000000" font-family="sans-serif" font-size="20" lengthAdjust="spacing" textLength="288" x="1288.5" y="548.8599">BoardService(postItRepository)</text><text fill="#000000" font-family="sans-serif" font-size="20" lengthAdjust="spacing" textLength="5" x="1288.5" y="576.0999"> </text><ellipse cx="1278.5" cy="597.0799" fill="#84BE84" rx="3" ry="3" style="stroke:#038048;stroke-width:1.0;"/><text fill="#000000" font-family="sans-serif" font-size="20" lengthAdjust="spacing" textLength="259" x="1288.5" y="603.3399">isCellAvailable(boardId, x, y)</text><ellipse cx="1278.5" cy="624.3199" fill="#84BE84" rx="3" ry="3" style="stroke:#038048;stroke-width:1.0;"/><text fill="#000000" font-family="sans-serif" font-size="20" lengthAdjust="spacing" textLength="269" x="1288.5" y="630.5799">checkCellExists(boardId, x, y)</text><ellipse cx="1278.5" cy="651.5598" fill="#84BE84" rx="3" ry="3" style="stroke:#038048;stroke-width:1.0;"/><text fill="#000000" font-family="sans-serif" font-size="20" lengthAdjust="spacing" textLength="227" x="1288.5" y="657.8198">existsPostIt(postIts, x, y)</text></g><!--class ImageEncoderService--><g id="elem_ImageEncoderService"><rect codeLine="29" fill="#F1F1F1" height="80.4799" id="ImageEncoderService" rx="2.5" ry="2.5" style="stroke:#181818;stroke-width:0.5;" width="267" x="1617.5" y="519.5"/><ellipse cx="1647.45" cy="538.12" fill="#ADD1B2" rx="12" ry="12" style="stroke:#181818;stroke-width:1.0;"/><path d="M1647.575,532.7137 Q1646.4969,532.7137 1645.6375,533.0887 Q1644.7781,533.4481 1644.1844,534.1512 Q1643.5906,534.8387 1643.2625,535.8544 Q1642.95,536.87 1642.95,538.1669 Q1642.95,539.87 1643.4656,541.1044 Q1643.9813,542.3231 1644.9969,542.9794 Q1646.0125,543.62 1647.5594,543.62 Q1648.4656,543.62 1649.2781,543.4637 Q1650.0906,543.3075 1651.2781,542.9481 L1651.2781,545.1512 Q1650.2469,545.5262 1649.3719,545.6669 Q1648.4969,545.8231 1647.2938,545.8231 Q1645.0125,545.8231 1643.4813,544.8856 Q1641.95,543.9325 1641.1844,542.1981 Q1640.4188,540.4481 1640.4188,538.1512 Q1640.4188,536.4794 1640.8875,535.0887 Q1641.3563,533.6981 1642.2625,532.6669 Q1643.1844,531.62 1644.5281,531.0731 Q1645.8719,530.5106 1647.5906,530.5106 Q1648.7313,530.5106 1649.7781,530.745 Q1650.8406,530.9637 1651.9344,531.5262 L1650.9656,533.5887 Q1650.0438,533.1825 1649.2625,532.9481 Q1648.4813,532.7137 1647.575,532.7137 Z " fill="#000000"/><text fill="#000000" font-family="sans-serif" font-size="20" lengthAdjust="spacing" textLength="202" x="1665.55" y="545.88">ImageEncoderService</text><line style="stroke:#181818;stroke-width:0.5;" x1="1618.5" x2="1883.5" y1="556.74" y2="556.74"/><line style="stroke:#181818;stroke-width:0.5;" x1="1618.5" x2="1883.5" y1="564.74" y2="564.74"/><ellipse cx="1628.5" cy="583.86" fill="#84BE84" rx="3" ry="3" style="stroke:#038048;stroke-width:1.0;"/><text fill="#000000" font-family="sans-serif" font-size="20" lengthAdjust="spacing" textLength="240" x="1638.5" y="590.12">encodeImage(imagePath)</text></g><!--class CreatePostItUI--><g id="elem_CreatePostItUI"><rect codeLine="33" fill="#F1F1F1" height="53.24" id="CreatePostItUI" rx="2.5" ry="2.5" style="stroke:#181818;stroke-width:0.5;" width="172" x="973" y="7"/><ellipse cx="989" cy="25.62" fill="#ADD1B2" rx="12" ry="12" style="stroke:#181818;stroke-width:1.0;"/><path d="M989.125,20.2137 Q988.0469,20.2137 987.1875,20.5887 Q986.3281,20.9481 985.7344,21.6512 Q985.1406,22.3387 984.8125,23.3544 Q984.5,24.37 984.5,25.6669 Q984.5,27.37 985.0156,28.6044 Q985.5313,29.8231 986.5469,30.4794 Q987.5625,31.12 989.1094,31.12 Q990.0156,31.12 990.8281,30.9637 Q991.6406,30.8075 992.8281,30.4481 L992.8281,32.6512 Q991.7969,33.0262 990.9219,33.1669 Q990.0469,33.3231 988.8438,33.3231 Q986.5625,33.3231 985.0313,32.3856 Q983.5,31.4325 982.7344,29.6981 Q981.9688,27.9481 981.9688,25.6512 Q981.9688,23.9794 982.4375,22.5887 Q982.9063,21.1981 983.8125,20.1669 Q984.7344,19.12 986.0781,18.5731 Q987.4219,18.0106 989.1406,18.0106 Q990.2813,18.0106 991.3281,18.245 Q992.3906,18.4637 993.4844,19.0262 L992.5156,21.0887 Q991.5938,20.6825 990.8125,20.4481 Q990.0313,20.2137 989.125,20.2137 Z " fill="#000000"/><text fill="#000000" font-family="sans-serif" font-size="20" lengthAdjust="spacing" textLength="138" x="1004" y="33.38">CreatePostItUI</text><line style="stroke:#181818;stroke-width:0.5;" x1="974" x2="1144" y1="44.24" y2="44.24"/><line style="stroke:#181818;stroke-width:0.5;" x1="974" x2="1144" y1="52.24" y2="52.24"/></g><!--class CreatePostItController--><g id="elem_CreatePostItController"><rect codeLine="35" fill="#F1F1F1" height="271.1598" id="CreatePostItController" rx="2.5" ry="2.5" style="stroke:#181818;stroke-width:0.5;" width="566" x="776" y="120"/><ellipse cx="950" cy="138.62" fill="#ADD1B2" rx="12" ry="12" style="stroke:#181818;stroke-width:1.0;"/><path d="M950.125,133.2137 Q949.0469,133.2137 948.1875,133.5887 Q947.3281,133.9481 946.7344,134.6512 Q946.1406,135.3387 945.8125,136.3544 Q945.5,137.37 945.5,138.6669 Q945.5,140.37 946.0156,141.6044 Q946.5313,142.8231 947.5469,143.4794 Q948.5625,144.12 950.1094,144.12 Q951.0156,144.12 951.8281,143.9637 Q952.6406,143.8075 953.8281,143.4481 L953.8281,145.6512 Q952.7969,146.0262 951.9219,146.1669 Q951.0469,146.3231 949.8438,146.3231 Q947.5625,146.3231 946.0313,145.3856 Q944.5,144.4325 943.7344,142.6981 Q942.9688,140.9481 942.9688,138.6512 Q942.9688,136.9794 943.4375,135.5887 Q943.9063,134.1981 944.8125,133.1669 Q945.7344,132.12 947.0781,131.5731 Q948.4219,131.0106 950.1406,131.0106 Q951.2813,131.0106 952.3281,131.245 Q953.3906,131.4637 954.4844,132.0262 L953.5156,134.0887 Q952.5938,133.6825 951.8125,133.4481 Q951.0313,133.2137 950.125,133.2137 Z " fill="#000000"/><text fill="#000000" font-family="sans-serif" font-size="20" lengthAdjust="spacing" textLength="209" x="972" y="146.38">CreatePostItController</text><line style="stroke:#181818;stroke-width:0.5;" x1="777" x2="1341" y1="157.24" y2="157.24"/><rect fill="none" height="6" style="stroke:#C82930;stroke-width:1.0;" width="6" x="784" y="173.36"/><text fill="#000000" font-family="sans-serif" font-size="20" lengthAdjust="spacing" textLength="154" x="797" y="182.62">boardRepository</text><rect fill="none" height="6" style="stroke:#C82930;stroke-width:1.0;" width="6" x="784" y="200.5999"/><text fill="#000000" font-family="sans-serif" font-size="20" lengthAdjust="spacing" textLength="154" x="797" y="209.8599">postItRepository</text><line style="stroke:#181818;stroke-width:0.5;" x1="777" x2="1341" y1="219.7199" y2="219.7199"/><ellipse cx="787" cy="238.8399" fill="#84BE84" rx="3" ry="3" style="stroke:#038048;stroke-width:1.0;"/><text fill="#000000" font-family="sans-serif" font-size="20" lengthAdjust="spacing" textLength="539" x="797" y="245.0999">CreatePostItController(boardRepository, postItRepository)</text><text fill="#000000" font-family="sans-serif" font-size="20" lengthAdjust="spacing" textLength="5" x="797" y="272.3399"> </text><ellipse cx="787" cy="293.3199" fill="#84BE84" rx="3" ry="3" style="stroke:#038048;stroke-width:1.0;"/><text fill="#000000" font-family="sans-serif" font-size="20" lengthAdjust="spacing" textLength="276" x="797" y="299.5799">listBoardsThatUserCanWrite()</text><ellipse cx="787" cy="320.5598" fill="#84BE84" rx="3" ry="3" style="stroke:#038048;stroke-width:1.0;"/><text fill="#000000" font-family="sans-serif" font-size="20" lengthAdjust="spacing" textLength="312" x="797" y="326.8198">validateCoordinates(boardId, x, y)</text><ellipse cx="787" cy="347.7998" fill="#84BE84" rx="3" ry="3" style="stroke:#038048;stroke-width:1.0;"/><text fill="#000000" font-family="sans-serif" font-size="20" lengthAdjust="spacing" textLength="509" x="797" y="354.0598">createPostIt(boardId, x, y, title, description, imagePath)</text><ellipse cx="787" cy="375.0398" fill="#84BE84" rx="3" ry="3" style="stroke:#038048;stroke-width:1.0;"/><text fill="#000000" font-family="sans-serif" font-size="20" lengthAdjust="spacing" textLength="164" x="797" y="381.2998">savePostIt(postIt)</text></g><!--class PostIt--><g id="elem_PostIt"><rect codeLine="47" fill="#F1F1F1" height="325.6397" id="PostIt" rx="2.5" ry="2.5" style="stroke:#181818;stroke-width:0.5;" width="137" x="1356.5" y="728"/><ellipse cx="1394.1" cy="746.62" fill="#ADD1B2" rx="12" ry="12" style="stroke:#181818;stroke-width:1.0;"/><path d="M1394.225,741.2137 Q1393.1469,741.2137 1392.2875,741.5887 Q1391.4281,741.9481 1390.8344,742.6512 Q1390.2406,743.3387 1389.9125,744.3544 Q1389.6,745.37 1389.6,746.6669 Q1389.6,748.37 1390.1156,749.6044 Q1390.6313,750.8231 1391.6469,751.4794 Q1392.6625,752.12 1394.2094,752.12 Q1395.1156,752.12 1395.9281,751.9637 Q1396.7406,751.8075 1397.9281,751.4481 L1397.9281,753.6512 Q1396.8969,754.0262 1396.0219,754.1669 Q1395.1469,754.3231 1393.9438,754.3231 Q1391.6625,754.3231 1390.1313,753.3856 Q1388.6,752.4325 1387.8344,750.6981 Q1387.0688,748.9481 1387.0688,746.6512 Q1387.0688,744.9794 1387.5375,743.5887 Q1388.0063,742.1981 1388.9125,741.1669 Q1389.8344,740.12 1391.1781,739.5731 Q1392.5219,739.0106 1394.2406,739.0106 Q1395.3813,739.0106 1396.4281,739.245 Q1397.4906,739.4637 1398.5844,740.0262 L1397.6156,742.0887 Q1396.6938,741.6825 1395.9125,741.4481 Q1395.1313,741.2137 1394.225,741.2137 Z " fill="#000000"/><text fill="#000000" font-family="sans-serif" font-size="20" lengthAdjust="spacing" textLength="55" x="1413.9" y="754.38">PostIt</text><line style="stroke:#181818;stroke-width:0.5;" x1="1357.5" x2="1492.5" y1="765.24" y2="765.24"/><rect fill="none" height="6" style="stroke:#C82930;stroke-width:1.0;" width="6" x="1364.5" y="781.36"/><text fill="#000000" font-family="sans-serif" font-size="20" lengthAdjust="spacing" textLength="35" x="1377.5" y="790.62">title</text><rect fill="none" height="6" style="stroke:#C82930;stroke-width:1.0;" width="6" x="1364.5" y="808.5999"/><text fill="#000000" font-family="sans-serif" font-size="20" lengthAdjust="spacing" textLength="110" x="1377.5" y="817.8599">coordinates</text><rect fill="none" height="6" style="stroke:#C82930;stroke-width:1.0;" width="6" x="1364.5" y="835.8399"/><text fill="#000000" font-family="sans-serif" font-size="20" lengthAdjust="spacing" textLength="41" x="1377.5" y="845.0999">user</text><rect fill="none" height="6" style="stroke:#C82930;stroke-width:1.0;" width="6" x="1364.5" y="863.0799"/><text fill="#000000" font-family="sans-serif" font-size="20" lengthAdjust="spacing" textLength="55" x="1377.5" y="872.3399">board</text><rect fill="none" height="6" style="stroke:#C82930;stroke-width:1.0;" width="6" x="1364.5" y="890.3199"/><text fill="#000000" font-family="sans-serif" font-size="20" lengthAdjust="spacing" textLength="46" x="1377.5" y="899.5799">state</text><rect fill="none" height="6" style="stroke:#C82930;stroke-width:1.0;" width="6" x="1364.5" y="917.5598"/><text fill="#000000" font-family="sans-serif" font-size="20" lengthAdjust="spacing" textLength="90" x="1377.5" y="926.8198">createdAt</text><rect fill="none" height="6" style="stroke:#C82930;stroke-width:1.0;" width="6" x="1364.5" y="944.7998"/><text fill="#000000" font-family="sans-serif" font-size="20" lengthAdjust="spacing" textLength="71" x="1377.5" y="954.0598">isLatest</text><rect fill="none" height="6" style="stroke:#C82930;stroke-width:1.0;" width="6" x="1364.5" y="972.0398"/><text fill="#000000" font-family="sans-serif" font-size="20" lengthAdjust="spacing" textLength="58" x="1377.5" y="981.2998">image</text><rect fill="none" height="6" style="stroke:#C82930;stroke-width:1.0;" width="6" x="1364.5" y="999.2798"/><text fill="#000000" font-family="sans-serif" font-size="20" lengthAdjust="spacing" textLength="104" x="1377.5" y="1008.5398">description</text><line style="stroke:#181818;stroke-width:0.5;" x1="1357.5" x2="1492.5" y1="1018.3997" y2="1018.3997"/><ellipse cx="1367.5" cy="1037.5197" fill="#84BE84" rx="3" ry="3" style="stroke:#038048;stroke-width:1.0;"/><text fill="#000000" font-family="sans-serif" font-size="20" lengthAdjust="spacing" textLength="65" x="1377.5" y="1043.7797">toDto()</text></g><!--class Board--><g id="elem_Board"><rect codeLine="61" fill="#F1F1F1" height="53.24" id="Board" rx="2.5" ry="2.5" style="stroke:#181818;stroke-width:0.5;" width="90" x="1014" y="864.5"/><ellipse cx="1030" cy="883.12" fill="#ADD1B2" rx="12" ry="12" style="stroke:#181818;stroke-width:1.0;"/><path d="M1030.125,877.7137 Q1029.0469,877.7137 1028.1875,878.0887 Q1027.3281,878.4481 1026.7344,879.1512 Q1026.1406,879.8387 1025.8125,880.8544 Q1025.5,881.87 1025.5,883.1669 Q1025.5,884.87 1026.0156,886.1044 Q1026.5313,887.3231 1027.5469,887.9794 Q1028.5625,888.62 1030.1094,888.62 Q1031.0156,888.62 1031.8281,888.4637 Q1032.6406,888.3075 1033.8281,887.9481 L1033.8281,890.1512 Q1032.7969,890.5262 1031.9219,890.6669 Q1031.0469,890.8231 1029.8438,890.8231 Q1027.5625,890.8231 1026.0313,889.8856 Q1024.5,888.9325 1023.7344,887.1981 Q1022.9688,885.4481 1022.9688,883.1512 Q1022.9688,881.4794 1023.4375,880.0887 Q1023.9063,878.6981 1024.8125,877.6669 Q1025.7344,876.62 1027.0781,876.0731 Q1028.4219,875.5106 1030.1406,875.5106 Q1031.2813,875.5106 1032.3281,875.745 Q1033.3906,875.9637 1034.4844,876.5262 L1033.5156,878.5887 Q1032.5938,878.1825 1031.8125,877.9481 Q1031.0313,877.7137 1030.125,877.7137 Z " fill="#000000"/><text fill="#000000" font-family="sans-serif" font-size="20" lengthAdjust="spacing" textLength="56" x="1045" y="890.88">Board</text><line style="stroke:#181818;stroke-width:0.5;" x1="1015" x2="1103" y1="901.74" y2="901.74"/><line style="stroke:#181818;stroke-width:0.5;" x1="1015" x2="1103" y1="909.74" y2="909.74"/></g><!--class BoardDTO--><g id="elem_BoardDTO"><rect codeLine="65" fill="#F1F1F1" height="80.4799" id="BoardDTO" rx="2.5" ry="2.5" style="stroke:#181818;stroke-width:0.5;" width="132" x="37" y="851"/><ellipse cx="53" cy="869.62" fill="#ADD1B2" rx="12" ry="12" style="stroke:#181818;stroke-width:1.0;"/><path d="M53.125,864.2137 Q52.0469,864.2137 51.1875,864.5887 Q50.3281,864.9481 49.7344,865.6512 Q49.1406,866.3387 48.8125,867.3544 Q48.5,868.37 48.5,869.6669 Q48.5,871.37 49.0156,872.6044 Q49.5313,873.8231 50.5469,874.4794 Q51.5625,875.12 53.1094,875.12 Q54.0156,875.12 54.8281,874.9637 Q55.6406,874.8075 56.8281,874.4481 L56.8281,876.6512 Q55.7969,877.0262 54.9219,877.1669 Q54.0469,877.3231 52.8438,877.3231 Q50.5625,877.3231 49.0313,876.3856 Q47.5,875.4325 46.7344,873.6981 Q45.9688,871.9481 45.9688,869.6512 Q45.9688,867.9794 46.4375,866.5887 Q46.9063,865.1981 47.8125,864.1669 Q48.7344,863.12 50.0781,862.5731 Q51.4219,862.0106 53.1406,862.0106 Q54.2813,862.0106 55.3281,862.245 Q56.3906,862.4637 57.4844,863.0262 L56.5156,865.0887 Q55.5938,864.6825 54.8125,864.4481 Q54.0313,864.2137 53.125,864.2137 Z " fill="#000000"/><text fill="#000000" font-family="sans-serif" font-size="20" lengthAdjust="spacing" textLength="98" x="68" y="877.38">BoardDTO</text><line style="stroke:#181818;stroke-width:0.5;" x1="38" x2="168" y1="888.24" y2="888.24"/><line style="stroke:#181818;stroke-width:0.5;" x1="38" x2="168" y1="896.24" y2="896.24"/><ellipse cx="48" cy="915.36" fill="#84BE84" rx="3" ry="3" style="stroke:#038048;stroke-width:1.0;"/><text fill="#000000" font-family="sans-serif" font-size="20" lengthAdjust="spacing" textLength="65" x="58" y="921.62">toDto()</text></g><!--class BoardDTOParser--><g id="elem_BoardDTOParser"><rect codeLine="69" fill="#F1F1F1" height="80.4799" id="BoardDTOParser" rx="2.5" ry="2.5" style="stroke:#181818;stroke-width:0.5;" width="192" x="7" y="519.5"/><ellipse cx="23" cy="538.12" fill="#ADD1B2" rx="12" ry="12" style="stroke:#181818;stroke-width:1.0;"/><path d="M23.125,532.7137 Q22.0469,532.7137 21.1875,533.0887 Q20.3281,533.4481 19.7344,534.1512 Q19.1406,534.8387 18.8125,535.8544 Q18.5,536.87 18.5,538.1669 Q18.5,539.87 19.0156,541.1044 Q19.5313,542.3231 20.5469,542.9794 Q21.5625,543.62 23.1094,543.62 Q24.0156,543.62 24.8281,543.4637 Q25.6406,543.3075 26.8281,542.9481 L26.8281,545.1512 Q25.7969,545.5262 24.9219,545.6669 Q24.0469,545.8231 22.8438,545.8231 Q20.5625,545.8231 19.0313,544.8856 Q17.5,543.9325 16.7344,542.1981 Q15.9688,540.4481 15.9688,538.1512 Q15.9688,536.4794 16.4375,535.0887 Q16.9063,533.6981 17.8125,532.6669 Q18.7344,531.62 20.0781,531.0731 Q21.4219,530.5106 23.1406,530.5106 Q24.2813,530.5106 25.3281,530.745 Q26.3906,530.9637 27.4844,531.5262 L26.5156,533.5887 Q25.5938,533.1825 24.8125,532.9481 Q24.0313,532.7137 23.125,532.7137 Z " fill="#000000"/><text fill="#000000" font-family="sans-serif" font-size="20" lengthAdjust="spacing" textLength="158" x="38" y="545.88">BoardDTOParser</text><line style="stroke:#181818;stroke-width:0.5;" x1="8" x2="198" y1="556.74" y2="556.74"/><line style="stroke:#181818;stroke-width:0.5;" x1="8" x2="198" y1="564.74" y2="564.74"/><ellipse cx="18" cy="583.86" fill="#84BE84" rx="3" ry="3" style="stroke:#038048;stroke-width:1.0;"/><text fill="#000000" font-family="sans-serif" font-size="20" lengthAdjust="spacing" textLength="65" x="28" y="590.12">toDto()</text></g><!--link CreatePostItUI to CreatePostItController--><g id="link_CreatePostItUI_CreatePostItController"><path codeLine="74" d="M1059,60.17 C1059,74.34 1059,93.19 1059,113.58 " fill="none" id="CreatePostItUI-to-CreatePostItController" style="stroke:#181818;stroke-width:1.0;stroke-dasharray:7.0,7.0;"/><polygon fill="#181818" points="1059,118.44,1063,109.44,1059,113.44,1055,109.44,1059,118.44" style="stroke:#181818;stroke-width:1.0;"/></g><!--link CreatePostItController to ListBoardService--><g id="link_CreatePostItController_ListBoardService"><path codeLine="75" d="M1059,391.16 C1059,418.57 1059,446.7 1059,471.89 " fill="none" id="CreatePostItController-to-ListBoardService" style="stroke:#181818;stroke-width:1.0;"/><polygon fill="#181818" points="1059,476.71,1063,467.71,1059,471.71,1055,467.71,1059,476.71" style="stroke:#181818;stroke-width:1.0;"/></g><!--link CreatePostItController to BoardService--><g id="link_CreatePostItController_BoardService"><path codeLine="76" d="M1222.46,391.38 C1244.78,409.79 1267.48,428.53 1289.23,446.47 " fill="none" id="CreatePostItController-to-BoardService" style="stroke:#181818;stroke-width:1.0;"/><polygon fill="#181818" points="1292.98,449.57,1288.588,440.7546,1289.1249,446.386,1283.4936,446.9228,1292.98,449.57" style="stroke:#181818;stroke-width:1.0;"/></g><!--link CreatePostItController to ImageEncoderService--><g id="link_CreatePostItController_ImageEncoderService"><path codeLine="77" d="M1342.17,341.91 C1427.14,371.86 1519.19,408.73 1600,451 C1634.36,468.97 1669.83,493.84 1697.75,515.14 " fill="none" id="CreatePostItController-to-ImageEncoderService" style="stroke:#181818;stroke-width:1.0;"/><polygon fill="#181818" points="1701.67,518.15,1696.9587,509.5011,1697.701,515.109,1692.0931,515.8514,1701.67,518.15" style="stroke:#181818;stroke-width:1.0;"/></g><!--link ListBoardService to Board--><g id="link_ListBoardService_Board"><path codeLine="79" d="M1059,640.68 C1059,710.33 1059,807.63 1059,857.58 " fill="none" id="ListBoardService-to-Board" style="stroke:#181818;stroke-width:1.0;stroke-dasharray:7.0,7.0;"/><polygon fill="#181818" points="1059,862.5,1063,853.5,1059,857.5,1055,853.5,1059,862.5" style="stroke:#181818;stroke-width:1.0;"/></g><!--link CreatePostItController to PostItRepository--><g id="link_CreatePostItController_PostItRepository"><path codeLine="80" d="M911.41,391.16 C869.17,429.7 825.36,469.67 791.15,500.88 " fill="none" id="CreatePostItController-to-PostItRepository" style="stroke:#181818;stroke-width:1.0;"/><polygon fill="#181818" points="787.72,504.01,797.0606,500.8869,791.4093,500.6353,791.661,494.984,787.72,504.01" style="stroke:#181818;stroke-width:1.0;"/></g><!--link CreatePostItController to BoardRepository--><g id="link_CreatePostItController_BoardRepository"><path codeLine="81" d="M775.78,366.33 C713.24,392.55 647.82,421.53 588,451 C548.3,470.56 505.45,495.08 470.89,515.76 " fill="none" id="CreatePostItController-to-BoardRepository" style="stroke:#181818;stroke-width:1.0;"/><polygon fill="#181818" points="466.71,518.27,476.4854,517.0695,470.9975,515.6975,472.3695,510.2096,466.71,518.27" style="stroke:#181818;stroke-width:1.0;"/></g><!--link BoardService to PostIt--><g id="link_BoardService_PostIt"><path codeLine="83" d="M1425,668.39 C1425,685.42 1425,703.38 1425,721.39 " fill="none" id="BoardService-to-PostIt" style="stroke:#181818;stroke-width:1.0;stroke-dasharray:7.0,7.0;"/><polygon fill="#181818" points="1425,725.99,1429,716.99,1425,720.99,1421,716.99,1425,725.99" style="stroke:#181818;stroke-width:1.0;"/></g><!--link BoardService to Board--><g id="link_BoardService_Board"><path codeLine="84" d="M1305.16,668.39 C1230.78,735.35 1140.55,816.59 1092.66,859.7 " fill="none" id="BoardService-to-Board" style="stroke:#181818;stroke-width:1.0;stroke-dasharray:7.0,7.0;"/><polygon fill="#181818" points="1089,862.99,1098.3713,859.9604,1092.7228,859.6523,1093.0309,854.0038,1089,862.99" style="stroke:#181818;stroke-width:1.0;"/></g><!--link BoardDTOParser to BoardDTO--><g id="link_BoardDTOParser_BoardDTO"><path codeLine="85" d="M103,599.92 C103,661.19 103,778.98 103,844.03 " fill="none" id="BoardDTOParser-to-BoardDTO" style="stroke:#181818;stroke-width:1.0;stroke-dasharray:7.0,7.0;"/><polygon fill="#181818" points="103,849.02,107,840.02,103,844.02,99,840.02,103,849.02" style="stroke:#181818;stroke-width:1.0;"/></g><!--link BoardDTOParser to Board--><g id="link_BoardDTOParser_Board"><path codeLine="86" d="M135.36,600 C156.16,622.97 185.02,650.72 216,668 C488.87,820.27 869.95,871.33 1007.19,885.39 " fill="none" id="BoardDTOParser-to-Board" style="stroke:#181818;stroke-width:1.0;stroke-dasharray:7.0,7.0;"/><polygon fill="#181818" points="1012.03,885.87,1003.4894,880.9651,1007.0565,885.3555,1002.6662,888.9227,1012.03,885.87" style="stroke:#181818;stroke-width:1.0;"/></g><!--SRC=[ZLJRJkCm47ttL_WnrQPenGSWbG1I9QIjk8XdrvxIKKqSsKD4D-BVyIKjIPeKNX9xvioPCvV4xR2iX1LlsiWTAAvW8zurtPcI7l4_yCk_Z659O3T20hysmge7g8n3CdRF6yPv8zQEh93qoJTOgeKah242tTDMqBC3MuZonI91DcEVNRgLSRIa7_Yqljv7kgNArkazwyESg26h8bTC8BLmZj-ZenZt2BP6dosGp_cwNmBpnZyds6o0cYNOkwyb52BMkgqm2wOWw9Xs96KrA3EHzV8D8Mr2T0LelQW5wf3pK7_EFtA-dqM8t8BS1TJjXo_2ZK4WUbApsqpku3_gNhw9LxWjfL5WMrLDYewswCumF5U2jft0me8WIEpFIzwCEWg_JzPe3NPY3DDz6gSPJYZd4otKXz6ERMC0r4AZyXaAOwp2qfz6coWxClh-d1EIXjn_EqvQh0XDcVDEgq9usD7U13eTJFQsCP4hdkIte7WFg_RTktXovBq97EMf1SKRkliGrbw2adZg24pD8ND39XjkhrVY3LtBpTC_tfo9yFwLiAwTRW_51ljnSN4rCL8siJ3p-TN91teE-rlSoCOpTlBN27gZuHpLy4Vsexpkaf-aIs5iGiQWuKU7Dqtws1S0]--></g></svg>