<?xml version="1.0" encoding="UTF-8" standalone="no"?><svg xmlns="http://www.w3.org/2000/svg" xmlns:xlink="http://www.w3.org/1999/xlink" contentStyleType="text/css" height="494px" preserveAspectRatio="none" style="width:721px;height:494px;background:#FFFFFF;" version="1.1" viewBox="0 0 721 494" width="721px" zoomAndPan="magnify"><defs/><g><rect fill="#FFFFFF" height="290.25" style="stroke:#181818;stroke-width:1.0;" width="10" x="25.5" y="98.2813"/><rect fill="#FFFFFF" height="37.2813" style="stroke:#181818;stroke-width:1.0;" width="10" x="662.5" y="127.5625"/><rect fill="#FFFFFF" height="37.2813" style="stroke:#181818;stroke-width:1.0;" width="10" x="662.5" y="202.125"/><rect fill="#FFFFFF" height="37.2813" style="stroke:#181818;stroke-width:1.0;" width="10" x="662.5" y="276.6875"/><rect fill="#FFFFFF" height="46.2813" style="stroke:#181818;stroke-width:1.0;" width="10" x="662.5" y="351.25"/><line style="stroke:#181818;stroke-width:0.5;stroke-dasharray:5.0,5.0;" x1="30" x2="30" y1="88.2813" y2="406.5313"/><line style="stroke:#181818;stroke-width:0.5;stroke-dasharray:5.0,5.0;" x1="667" x2="667" y1="88.2813" y2="406.5313"/><text fill="#000000" font-family="sans-serif" font-size="20" lengthAdjust="spacing" textLength="45" x="5" y="83.5645">User</text><ellipse cx="30.5" cy="13.5" fill="#E2E2F0" rx="8" ry="8" style="stroke:#181818;stroke-width:0.5;"/><path d="M30.5,21.5 L30.5,48.5 M17.5,29.5 L43.5,29.5 M30.5,48.5 L17.5,63.5 M30.5,48.5 L43.5,63.5 " fill="none" style="stroke:#181818;stroke-width:0.5;"/><text fill="#000000" font-family="sans-serif" font-size="20" lengthAdjust="spacing" textLength="45" x="5" y="424.0957">User</text><ellipse cx="30.5" cy="437.3125" fill="#E2E2F0" rx="8" ry="8" style="stroke:#181818;stroke-width:0.5;"/><path d="M30.5,445.3125 L30.5,472.3125 M17.5,453.3125 L43.5,453.3125 M30.5,472.3125 L17.5,487.3125 M30.5,472.3125 L43.5,487.3125 " fill="none" style="stroke:#181818;stroke-width:0.5;"/><rect fill="#E2E2F0" height="37.2813" rx="2.5" ry="2.5" style="stroke:#181818;stroke-width:0.5;" width="95" x="620" y="50"/><text fill="#000000" font-family="sans-serif" font-size="20" lengthAdjust="spacing" textLength="81" x="627" y="75.5645">:System</text><rect fill="#E2E2F0" height="37.2813" rx="2.5" ry="2.5" style="stroke:#181818;stroke-width:0.5;" width="95" x="620" y="405.5313"/><text fill="#000000" font-family="sans-serif" font-size="20" lengthAdjust="spacing" textLength="81" x="627" y="431.0957">:System</text><rect fill="#FFFFFF" height="290.25" style="stroke:#181818;stroke-width:1.0;" width="10" x="25.5" y="98.2813"/><rect fill="#FFFFFF" height="37.2813" style="stroke:#181818;stroke-width:1.0;" width="10" x="662.5" y="127.5625"/><rect fill="#FFFFFF" height="37.2813" style="stroke:#181818;stroke-width:1.0;" width="10" x="662.5" y="202.125"/><rect fill="#FFFFFF" height="37.2813" style="stroke:#181818;stroke-width:1.0;" width="10" x="662.5" y="276.6875"/><rect fill="#FFFFFF" height="46.2813" style="stroke:#181818;stroke-width:1.0;" width="10" x="662.5" y="351.25"/><polygon fill="#181818" points="650.5,123.5625,660.5,127.5625,650.5,131.5625,654.5,127.5625" style="stroke:#181818;stroke-width:1.0;"/><line style="stroke:#181818;stroke-width:1.0;" x1="35.5" x2="656.5" y1="127.5625" y2="127.5625"/><text fill="#000000" font-family="sans-serif" font-size="20" font-weight="bold" lengthAdjust="spacing" textLength="14" x="42.5" y="120.8457">1</text><text fill="#000000" font-family="sans-serif" font-size="20" lengthAdjust="spacing" textLength="227" x="60.5" y="120.8457">asks to create a post-it</text><polygon fill="#181818" points="46.5,160.8438,36.5,164.8438,46.5,168.8438,42.5,164.8438" style="stroke:#181818;stroke-width:1.0;"/><line style="stroke:#181818;stroke-width:1.0;stroke-dasharray:2.0,2.0;" x1="40.5" x2="666.5" y1="164.8438" y2="164.8438"/><text fill="#000000" font-family="sans-serif" font-size="20" font-weight="bold" lengthAdjust="spacing" textLength="14" x="52.5" y="158.127">2</text><text fill="#000000" font-family="sans-serif" font-size="20" lengthAdjust="spacing" textLength="238" x="70.5" y="158.127">asks to select the board</text><polygon fill="#181818" points="650.5,198.125,660.5,202.125,650.5,206.125,654.5,202.125" style="stroke:#181818;stroke-width:1.0;"/><line style="stroke:#181818;stroke-width:1.0;" x1="35.5" x2="656.5" y1="202.125" y2="202.125"/><text fill="#000000" font-family="sans-serif" font-size="20" font-weight="bold" lengthAdjust="spacing" textLength="14" x="42.5" y="195.4082">3</text><text fill="#000000" font-family="sans-serif" font-size="20" lengthAdjust="spacing" textLength="172" x="60.5" y="195.4082">selects the board</text><polygon fill="#181818" points="46.5,235.4063,36.5,239.4063,46.5,243.4063,42.5,239.4063" style="stroke:#181818;stroke-width:1.0;"/><line style="stroke:#181818;stroke-width:1.0;stroke-dasharray:2.0,2.0;" x1="40.5" x2="666.5" y1="239.4063" y2="239.4063"/><text fill="#000000" font-family="sans-serif" font-size="20" font-weight="bold" lengthAdjust="spacing" textLength="14" x="52.5" y="232.6895">4</text><text fill="#000000" font-family="sans-serif" font-size="20" lengthAdjust="spacing" textLength="367" x="70.5" y="232.6895">asks to select the post-it coordinates</text><polygon fill="#181818" points="650.5,272.6875,660.5,276.6875,650.5,280.6875,654.5,276.6875" style="stroke:#181818;stroke-width:1.0;"/><line style="stroke:#181818;stroke-width:1.0;" x1="35.5" x2="656.5" y1="276.6875" y2="276.6875"/><text fill="#000000" font-family="sans-serif" font-size="20" font-weight="bold" lengthAdjust="spacing" textLength="14" x="42.5" y="269.9707">5</text><text fill="#000000" font-family="sans-serif" font-size="20" lengthAdjust="spacing" textLength="301" x="60.5" y="269.9707">selects the post-it coordinates</text><polygon fill="#181818" points="46.5,309.9688,36.5,313.9688,46.5,317.9688,42.5,313.9688" style="stroke:#181818;stroke-width:1.0;"/><line style="stroke:#181818;stroke-width:1.0;stroke-dasharray:2.0,2.0;" x1="40.5" x2="666.5" y1="313.9688" y2="313.9688"/><text fill="#000000" font-family="sans-serif" font-size="20" font-weight="bold" lengthAdjust="spacing" textLength="14" x="52.5" y="307.252">6</text><text fill="#000000" font-family="sans-serif" font-size="20" lengthAdjust="spacing" textLength="585" x="70.5" y="307.252">asks to enter the title, description and image of the post-it</text><polygon fill="#181818" points="650.5,347.25,660.5,351.25,650.5,355.25,654.5,351.25" style="stroke:#181818;stroke-width:1.0;"/><line style="stroke:#181818;stroke-width:1.0;" x1="35.5" x2="656.5" y1="351.25" y2="351.25"/><text fill="#000000" font-family="sans-serif" font-size="20" font-weight="bold" lengthAdjust="spacing" textLength="14" x="42.5" y="344.5332">7</text><text fill="#000000" font-family="sans-serif" font-size="20" lengthAdjust="spacing" textLength="260" x="60.5" y="344.5332">enters the requested data</text><polygon fill="#181818" points="41.5,384.5313,31.5,388.5313,41.5,392.5313,37.5,388.5313" style="stroke:#181818;stroke-width:1.0;"/><line style="stroke:#181818;stroke-width:1.0;stroke-dasharray:2.0,2.0;" x1="35.5" x2="661.5" y1="388.5313" y2="388.5313"/><text fill="#000000" font-family="sans-serif" font-size="20" font-weight="bold" lengthAdjust="spacing" textLength="14" x="47.5" y="381.8145">8</text><text fill="#000000" font-family="sans-serif" font-size="20" lengthAdjust="spacing" textLength="260" x="65.5" y="381.8145">informs operation suscess</text><!--SRC=[dP91JiGm34NtEONLDPKGorcmv0AZ7C2Jk62rZOljZ0Id9tGGKyGi2hie-V_vIOwDN1PKd2T98sN8D62T_4cA7_cTuE4-1AmkfSudqdPEBWeHqA2BHjgjLtn69uWXHEWVeJiStynfxk3GSgE12oIbpmZ28kOz-xNrdGxXMkmR9cxgHXCb1tyXE0bg3fbk0NwDl_HiK_ptt2znI2AQkJI4xRNueN6BypSfAawwifnzehksD4lAYxCKm9A1Ptmca64xRxVhIh-eAhrMQW_jMw3ZJaikW-Xi80ifhafMBP5Ps2h4y040]--></g></svg>