<?xml version="1.0" encoding="UTF-8" standalone="no"?><svg xmlns="http://www.w3.org/2000/svg" xmlns:xlink="http://www.w3.org/1999/xlink" contentStyleType="text/css" height="975px" preserveAspectRatio="none" style="width:1798px;height:975px;background:#FFFFFF;" version="1.1" viewBox="0 0 1798 975" width="1798px" zoomAndPan="magnify"><defs/><g><!--class BoardRepository--><g id="elem_BoardRepository"><rect codeLine="2" fill="#F1F1F1" height="73.2813" id="BoardRepository" rx="2.5" ry="2.5" style="stroke:#181818;stroke-width:0.5;" width="382" x="240" y="425"/><ellipse cx="343.5" cy="442" fill="#B4A7E5" rx="12" ry="12" style="stroke:#181818;stroke-width:1.0;"/><path d="M338.6875,437.4531 L338.6875,434.9219 L347.3594,434.9219 L347.3594,437.4531 L344.4688,437.4531 L344.4688,446.9531 L347.3594,446.9531 L347.3594,449.5 L338.6875,449.5 L338.6875,446.9531 L341.5781,446.9531 L341.5781,437.4531 L338.6875,437.4531 Z " fill="#000000"/><text fill="#000000" font-family="sans-serif" font-size="20" font-style="italic" lengthAdjust="spacing" textLength="166" x="365.5" y="448.9238">BoardRepository</text><line style="stroke:#181818;stroke-width:0.5;" x1="241" x2="621" y1="459" y2="459"/><line style="stroke:#181818;stroke-width:0.5;" x1="241" x2="621" y1="467" y2="467"/><text fill="#000000" font-family="sans-serif" font-size="20" font-style="italic" lengthAdjust="spacing" textLength="370" x="246" y="489.5645">findActiveBoardsThatUserCanWrite()</text></g><!--class PostItRepository--><g id="elem_PostItRepository"><rect codeLine="6" fill="#F1F1F1" height="96.5625" id="PostItRepository" rx="2.5" ry="2.5" style="stroke:#181818;stroke-width:0.5;" width="274" x="657" y="413"/><ellipse cx="708" cy="430" fill="#B4A7E5" rx="12" ry="12" style="stroke:#181818;stroke-width:1.0;"/><path d="M703.1875,425.4531 L703.1875,422.9219 L711.8594,422.9219 L711.8594,425.4531 L708.9688,425.4531 L708.9688,434.9531 L711.8594,434.9531 L711.8594,437.5 L703.1875,437.5 L703.1875,434.9531 L706.0781,434.9531 L706.0781,425.4531 L703.1875,425.4531 Z " fill="#000000"/><text fill="#000000" font-family="sans-serif" font-size="20" font-style="italic" lengthAdjust="spacing" textLength="163" x="730" y="436.9238">PostItRepository</text><line style="stroke:#181818;stroke-width:0.5;" x1="658" x2="930" y1="447" y2="447"/><line style="stroke:#181818;stroke-width:0.5;" x1="658" x2="930" y1="455" y2="455"/><text fill="#000000" font-family="sans-serif" font-size="20" font-style="italic" lengthAdjust="spacing" textLength="262" x="663" y="477.5645">findAllByBoardId(boardId)</text><text fill="#000000" font-family="sans-serif" font-size="20" font-style="italic" lengthAdjust="spacing" textLength="119" x="663" y="500.8457">save(postIt)</text></g><!--class ListBoardService--><g id="elem_ListBoardService"><rect codeLine="11" fill="#F1F1F1" height="143.125" id="ListBoardService" rx="2.5" ry="2.5" style="stroke:#181818;stroke-width:0.5;" width="451" x="966.5" y="390"/><ellipse cx="1104" cy="407" fill="#ADD1B2" rx="12" ry="12" style="stroke:#181818;stroke-width:1.0;"/><path d="M1107.0625,414.0781 Q1106.375,414.4375 1105.625,414.6094 Q1104.875,414.7813 1104.0469,414.7813 Q1101.0938,414.7813 1099.5313,412.8438 Q1097.9844,410.8906 1097.9844,407.2188 Q1097.9844,403.5469 1099.5313,401.6094 Q1101.0938,399.6563 1104.0469,399.6563 Q1104.875,399.6563 1105.625,399.8281 Q1106.3906,400 1107.0625,400.3594 L1107.0625,403.5625 Q1106.3125,402.875 1105.6094,402.5625 Q1104.9219,402.25 1104.1719,402.25 Q1102.5938,402.25 1101.7813,403.5 Q1100.9844,404.75 1100.9844,407.2188 Q1100.9844,409.6875 1101.7813,410.9375 Q1102.5938,412.1875 1104.1719,412.1875 Q1104.9219,412.1875 1105.6094,411.875 Q1106.3125,411.5625 1107.0625,410.875 L1107.0625,414.0781 Z " fill="#000000"/><text fill="#000000" font-family="sans-serif" font-size="20" lengthAdjust="spacing" textLength="167" x="1126" y="413.9238">ListBoardService</text><line style="stroke:#181818;stroke-width:0.5;" x1="967.5" x2="1416.5" y1="424" y2="424"/><rect fill="none" height="6" style="stroke:#C82930;stroke-width:1.0;" width="6" x="974.5" y="438.1406"/><text fill="#000000" font-family="sans-serif" font-size="20" lengthAdjust="spacing" textLength="164" x="987.5" y="446.5645">boardRepository</text><line style="stroke:#181818;stroke-width:0.5;" x1="967.5" x2="1416.5" y1="455.2813" y2="455.2813"/><ellipse cx="977.5" cy="472.4219" fill="#84BE84" rx="3" ry="3" style="stroke:#038048;stroke-width:1.0;"/><text fill="#000000" font-family="sans-serif" font-size="20" lengthAdjust="spacing" textLength="347" x="987.5" y="477.8457">ListBoardService(boardRepository)</text><text fill="#000000" font-family="sans-serif" font-size="20" lengthAdjust="spacing" textLength="6" x="987.5" y="501.127"> </text><ellipse cx="977.5" cy="518.9844" fill="#84BE84" rx="3" ry="3" style="stroke:#038048;stroke-width:1.0;"/><text fill="#000000" font-family="sans-serif" font-size="20" lengthAdjust="spacing" textLength="424" x="987.5" y="524.4082">listActiveBoardsThatUserCanWrite(userID)</text></g><!--class BoardService--><g id="elem_BoardService"><rect codeLine="19" fill="#F1F1F1" height="143.125" id="BoardService" rx="2.5" ry="2.5" style="stroke:#181818;stroke-width:0.5;" width="338" x="1453" y="390"/><ellipse cx="1551.5" cy="407" fill="#ADD1B2" rx="12" ry="12" style="stroke:#181818;stroke-width:1.0;"/><path d="M1554.5625,414.0781 Q1553.875,414.4375 1553.125,414.6094 Q1552.375,414.7813 1551.5469,414.7813 Q1548.5938,414.7813 1547.0313,412.8438 Q1545.4844,410.8906 1545.4844,407.2188 Q1545.4844,403.5469 1547.0313,401.6094 Q1548.5938,399.6563 1551.5469,399.6563 Q1552.375,399.6563 1553.125,399.8281 Q1553.8906,400 1554.5625,400.3594 L1554.5625,403.5625 Q1553.8125,402.875 1553.1094,402.5625 Q1552.4219,402.25 1551.6719,402.25 Q1550.0938,402.25 1549.2813,403.5 Q1548.4844,404.75 1548.4844,407.2188 Q1548.4844,409.6875 1549.2813,410.9375 Q1550.0938,412.1875 1551.6719,412.1875 Q1552.4219,412.1875 1553.1094,411.875 Q1553.8125,411.5625 1554.5625,410.875 L1554.5625,414.0781 Z " fill="#000000"/><text fill="#000000" font-family="sans-serif" font-size="20" lengthAdjust="spacing" textLength="132" x="1573.5" y="413.9238">BoardService</text><line style="stroke:#181818;stroke-width:0.5;" x1="1454" x2="1790" y1="424" y2="424"/><rect fill="none" height="6" style="stroke:#C82930;stroke-width:1.0;" width="6" x="1461" y="438.1406"/><text fill="#000000" font-family="sans-serif" font-size="20" lengthAdjust="spacing" textLength="163" x="1474" y="446.5645">postItRepository</text><line style="stroke:#181818;stroke-width:0.5;" x1="1454" x2="1790" y1="455.2813" y2="455.2813"/><ellipse cx="1464" cy="472.4219" fill="#84BE84" rx="3" ry="3" style="stroke:#038048;stroke-width:1.0;"/><text fill="#000000" font-family="sans-serif" font-size="20" lengthAdjust="spacing" textLength="311" x="1474" y="477.8457">BoardService(postItRepository)</text><text fill="#000000" font-family="sans-serif" font-size="20" lengthAdjust="spacing" textLength="6" x="1474" y="501.127"> </text><ellipse cx="1464" cy="518.9844" fill="#84BE84" rx="3" ry="3" style="stroke:#038048;stroke-width:1.0;"/><text fill="#000000" font-family="sans-serif" font-size="20" lengthAdjust="spacing" textLength="252" x="1474" y="524.4082">existsPostIt(boardId, x, y)</text></g><!--class CreatePostItUI--><g id="elem_CreatePostItUI"><rect codeLine="27" fill="#F1F1F1" height="50" id="CreatePostItUI" rx="2.5" ry="2.5" style="stroke:#181818;stroke-width:0.5;" width="177" x="904.5" y="7"/><ellipse cx="920.5" cy="24" fill="#ADD1B2" rx="12" ry="12" style="stroke:#181818;stroke-width:1.0;"/><path d="M923.5625,31.0781 Q922.875,31.4375 922.125,31.6094 Q921.375,31.7813 920.5469,31.7813 Q917.5938,31.7813 916.0313,29.8438 Q914.4844,27.8906 914.4844,24.2188 Q914.4844,20.5469 916.0313,18.6094 Q917.5938,16.6563 920.5469,16.6563 Q921.375,16.6563 922.125,16.8281 Q922.8906,17 923.5625,17.3594 L923.5625,20.5625 Q922.8125,19.875 922.1094,19.5625 Q921.4219,19.25 920.6719,19.25 Q919.0938,19.25 918.2813,20.5 Q917.4844,21.75 917.4844,24.2188 Q917.4844,26.6875 918.2813,27.9375 Q919.0938,29.1875 920.6719,29.1875 Q921.4219,29.1875 922.1094,28.875 Q922.8125,28.5625 923.5625,27.875 L923.5625,31.0781 Z " fill="#000000"/><text fill="#000000" font-family="sans-serif" font-size="20" lengthAdjust="spacing" textLength="143" x="935.5" y="30.9238">CreatePostItUI</text><line style="stroke:#181818;stroke-width:0.5;" x1="905.5" x2="1080.5" y1="41" y2="41"/><line style="stroke:#181818;stroke-width:0.5;" x1="905.5" x2="1080.5" y1="49" y2="49"/></g><!--class CreatePostItController--><g id="elem_CreatePostItController"><rect codeLine="29" fill="#F1F1F1" height="212.9688" id="CreatePostItController" rx="2.5" ry="2.5" style="stroke:#181818;stroke-width:0.5;" width="603" x="691.5" y="117"/><ellipse cx="878" cy="134" fill="#ADD1B2" rx="12" ry="12" style="stroke:#181818;stroke-width:1.0;"/><path d="M881.0625,141.0781 Q880.375,141.4375 879.625,141.6094 Q878.875,141.7813 878.0469,141.7813 Q875.0938,141.7813 873.5313,139.8438 Q871.9844,137.8906 871.9844,134.2188 Q871.9844,130.5469 873.5313,128.6094 Q875.0938,126.6563 878.0469,126.6563 Q878.875,126.6563 879.625,126.8281 Q880.3906,127 881.0625,127.3594 L881.0625,130.5625 Q880.3125,129.875 879.6094,129.5625 Q878.9219,129.25 878.1719,129.25 Q876.5938,129.25 875.7813,130.5 Q874.9844,131.75 874.9844,134.2188 Q874.9844,136.6875 875.7813,137.9375 Q876.5938,139.1875 878.1719,139.1875 Q878.9219,139.1875 879.6094,138.875 Q880.3125,138.5625 881.0625,137.875 L881.0625,141.0781 Z " fill="#000000"/><text fill="#000000" font-family="sans-serif" font-size="20" lengthAdjust="spacing" textLength="221" x="900" y="140.9238">CreatePostItController</text><line style="stroke:#181818;stroke-width:0.5;" x1="692.5" x2="1293.5" y1="151" y2="151"/><rect fill="none" height="6" style="stroke:#C82930;stroke-width:1.0;" width="6" x="699.5" y="165.1406"/><text fill="#000000" font-family="sans-serif" font-size="20" lengthAdjust="spacing" textLength="164" x="712.5" y="173.5645">boardRepository</text><rect fill="none" height="6" style="stroke:#C82930;stroke-width:1.0;" width="6" x="699.5" y="188.4219"/><text fill="#000000" font-family="sans-serif" font-size="20" lengthAdjust="spacing" textLength="163" x="712.5" y="196.8457">postItRepository</text><line style="stroke:#181818;stroke-width:0.5;" x1="692.5" x2="1293.5" y1="205.5625" y2="205.5625"/><ellipse cx="702.5" cy="222.7031" fill="#84BE84" rx="3" ry="3" style="stroke:#038048;stroke-width:1.0;"/><text fill="#000000" font-family="sans-serif" font-size="20" lengthAdjust="spacing" textLength="576" x="712.5" y="228.127">CreatePostItController(boardRepository, postItRepository)</text><text fill="#000000" font-family="sans-serif" font-size="20" lengthAdjust="spacing" textLength="6" x="712.5" y="251.4082"> </text><ellipse cx="702.5" cy="269.2656" fill="#84BE84" rx="3" ry="3" style="stroke:#038048;stroke-width:1.0;"/><text fill="#000000" font-family="sans-serif" font-size="20" lengthAdjust="spacing" textLength="298" x="712.5" y="274.6895">listBoardsThatUserCanWrite()</text><ellipse cx="702.5" cy="292.5469" fill="#84BE84" rx="3" ry="3" style="stroke:#038048;stroke-width:1.0;"/><text fill="#000000" font-family="sans-serif" font-size="20" lengthAdjust="spacing" textLength="341" x="712.5" y="297.9707">validateCoordinates(boardID, x, y)</text><ellipse cx="702.5" cy="315.8281" fill="#84BE84" rx="3" ry="3" style="stroke:#038048;stroke-width:1.0;"/><text fill="#000000" font-family="sans-serif" font-size="20" lengthAdjust="spacing" textLength="310" x="712.5" y="321.252">createPostIt(boardId, x, y, title)</text></g><!--class PostIt--><g id="elem_PostIt"><rect codeLine="48" fill="#F1F1F1" height="375.9375" id="PostIt" rx="2.5" ry="2.5" style="stroke:#181818;stroke-width:0.5;" width="144" x="1550" y="593"/><ellipse cx="1590.3" cy="610" fill="#ADD1B2" rx="12" ry="12" style="stroke:#181818;stroke-width:1.0;"/><path d="M1593.3625,617.0781 Q1592.675,617.4375 1591.925,617.6094 Q1591.175,617.7813 1590.3469,617.7813 Q1587.3938,617.7813 1585.8313,615.8438 Q1584.2844,613.8906 1584.2844,610.2188 Q1584.2844,606.5469 1585.8313,604.6094 Q1587.3938,602.6563 1590.3469,602.6563 Q1591.175,602.6563 1591.925,602.8281 Q1592.6906,603 1593.3625,603.3594 L1593.3625,606.5625 Q1592.6125,605.875 1591.9094,605.5625 Q1591.2219,605.25 1590.4719,605.25 Q1588.8938,605.25 1588.0813,606.5 Q1587.2844,607.75 1587.2844,610.2188 Q1587.2844,612.6875 1588.0813,613.9375 Q1588.8938,615.1875 1590.4719,615.1875 Q1591.2219,615.1875 1591.9094,614.875 Q1592.6125,614.5625 1593.3625,613.875 L1593.3625,617.0781 Z " fill="#000000"/><text fill="#000000" font-family="sans-serif" font-size="20" lengthAdjust="spacing" textLength="56" x="1610.7" y="616.9238">PostIt</text><line style="stroke:#181818;stroke-width:0.5;" x1="1551" x2="1693" y1="627" y2="627"/><rect fill="none" height="6" style="stroke:#C82930;stroke-width:1.0;" width="6" x="1558" y="641.1406"/><text fill="#000000" font-family="sans-serif" font-size="20" lengthAdjust="spacing" textLength="40" x="1571" y="649.5645">title</text><rect fill="none" height="6" style="stroke:#C82930;stroke-width:1.0;" width="6" x="1558" y="664.4219"/><text fill="#000000" font-family="sans-serif" font-size="20" lengthAdjust="spacing" textLength="117" x="1571" y="672.8457">coordinates</text><rect fill="none" height="6" style="stroke:#C82930;stroke-width:1.0;" width="6" x="1558" y="687.7031"/><text fill="#000000" font-family="sans-serif" font-size="20" lengthAdjust="spacing" textLength="43" x="1571" y="696.127">user</text><rect fill="none" height="6" style="stroke:#C82930;stroke-width:1.0;" width="6" x="1558" y="710.9844"/><text fill="#000000" font-family="sans-serif" font-size="20" lengthAdjust="spacing" textLength="58" x="1571" y="719.4082">board</text><rect fill="none" height="6" style="stroke:#C82930;stroke-width:1.0;" width="6" x="1558" y="734.2656"/><text fill="#000000" font-family="sans-serif" font-size="20" lengthAdjust="spacing" textLength="50" x="1571" y="742.6895">state</text><rect fill="none" height="6" style="stroke:#C82930;stroke-width:1.0;" width="6" x="1558" y="757.5469"/><text fill="#000000" font-family="sans-serif" font-size="20" lengthAdjust="spacing" textLength="40" x="1571" y="765.9707">title</text><rect fill="none" height="6" style="stroke:#C82930;stroke-width:1.0;" width="6" x="1558" y="780.8281"/><text fill="#000000" font-family="sans-serif" font-size="20" lengthAdjust="spacing" textLength="117" x="1571" y="789.252">coordinates</text><rect fill="none" height="6" style="stroke:#C82930;stroke-width:1.0;" width="6" x="1558" y="804.1094"/><text fill="#000000" font-family="sans-serif" font-size="20" lengthAdjust="spacing" textLength="43" x="1571" y="812.5332">user</text><rect fill="none" height="6" style="stroke:#C82930;stroke-width:1.0;" width="6" x="1558" y="827.3906"/><text fill="#000000" font-family="sans-serif" font-size="20" lengthAdjust="spacing" textLength="58" x="1571" y="835.8145">board</text><rect fill="none" height="6" style="stroke:#C82930;stroke-width:1.0;" width="6" x="1558" y="850.6719"/><text fill="#000000" font-family="sans-serif" font-size="20" lengthAdjust="spacing" textLength="50" x="1571" y="859.0957">state</text><text fill="#000000" font-family="sans-serif" font-size="20" lengthAdjust="spacing" textLength="6" x="1571" y="882.377"> </text><rect fill="none" height="6" style="stroke:#C82930;stroke-width:1.0;" width="6" x="1558" y="897.2344"/><text fill="#000000" font-family="sans-serif" font-size="20" lengthAdjust="spacing" textLength="98" x="1571" y="905.6582">createdAt</text><rect fill="none" height="6" style="stroke:#C82930;stroke-width:1.0;" width="6" x="1558" y="920.5156"/><text fill="#000000" font-family="sans-serif" font-size="20" lengthAdjust="spacing" textLength="77" x="1571" y="928.9395">isLatest</text><line style="stroke:#181818;stroke-width:0.5;" x1="1551" x2="1693" y1="937.6563" y2="937.6563"/><ellipse cx="1561" cy="954.7969" fill="#84BE84" rx="3" ry="3" style="stroke:#038048;stroke-width:1.0;"/><text fill="#000000" font-family="sans-serif" font-size="20" lengthAdjust="spacing" textLength="71" x="1571" y="960.2207">toDto()</text></g><!--class Board--><g id="elem_Board"><rect codeLine="61" fill="#F1F1F1" height="50" id="Board" rx="2.5" ry="2.5" style="stroke:#181818;stroke-width:0.5;" width="93" x="1145.5" y="756"/><ellipse cx="1161.5" cy="773" fill="#ADD1B2" rx="12" ry="12" style="stroke:#181818;stroke-width:1.0;"/><path d="M1164.5625,780.0781 Q1163.875,780.4375 1163.125,780.6094 Q1162.375,780.7813 1161.5469,780.7813 Q1158.5938,780.7813 1157.0313,778.8438 Q1155.4844,776.8906 1155.4844,773.2188 Q1155.4844,769.5469 1157.0313,767.6094 Q1158.5938,765.6563 1161.5469,765.6563 Q1162.375,765.6563 1163.125,765.8281 Q1163.8906,766 1164.5625,766.3594 L1164.5625,769.5625 Q1163.8125,768.875 1163.1094,768.5625 Q1162.4219,768.25 1161.6719,768.25 Q1160.0938,768.25 1159.2813,769.5 Q1158.4844,770.75 1158.4844,773.2188 Q1158.4844,775.6875 1159.2813,776.9375 Q1160.0938,778.1875 1161.6719,778.1875 Q1162.4219,778.1875 1163.1094,777.875 Q1163.8125,777.5625 1164.5625,776.875 L1164.5625,780.0781 Z " fill="#000000"/><text fill="#000000" font-family="sans-serif" font-size="20" lengthAdjust="spacing" textLength="59" x="1176.5" y="779.9238">Board</text><line style="stroke:#181818;stroke-width:0.5;" x1="1146.5" x2="1237.5" y1="790" y2="790"/><line style="stroke:#181818;stroke-width:0.5;" x1="1146.5" x2="1237.5" y1="798" y2="798"/></g><!--class BoardDTO--><g id="elem_BoardDTO"><rect codeLine="65" fill="#F1F1F1" height="73.2813" id="BoardDTO" rx="2.5" ry="2.5" style="stroke:#181818;stroke-width:0.5;" width="136" x="38" y="744.5"/><ellipse cx="54" cy="761.5" fill="#ADD1B2" rx="12" ry="12" style="stroke:#181818;stroke-width:1.0;"/><path d="M57.0625,768.5781 Q56.375,768.9375 55.625,769.1094 Q54.875,769.2813 54.0469,769.2813 Q51.0938,769.2813 49.5313,767.3438 Q47.9844,765.3906 47.9844,761.7188 Q47.9844,758.0469 49.5313,756.1094 Q51.0938,754.1563 54.0469,754.1563 Q54.875,754.1563 55.625,754.3281 Q56.3906,754.5 57.0625,754.8594 L57.0625,758.0625 Q56.3125,757.375 55.6094,757.0625 Q54.9219,756.75 54.1719,756.75 Q52.5938,756.75 51.7813,758 Q50.9844,759.25 50.9844,761.7188 Q50.9844,764.1875 51.7813,765.4375 Q52.5938,766.6875 54.1719,766.6875 Q54.9219,766.6875 55.6094,766.375 Q56.3125,766.0625 57.0625,765.375 L57.0625,768.5781 Z " fill="#000000"/><text fill="#000000" font-family="sans-serif" font-size="20" lengthAdjust="spacing" textLength="102" x="69" y="768.4238">BoardDTO</text><line style="stroke:#181818;stroke-width:0.5;" x1="39" x2="173" y1="778.5" y2="778.5"/><line style="stroke:#181818;stroke-width:0.5;" x1="39" x2="173" y1="786.5" y2="786.5"/><ellipse cx="49" cy="803.6406" fill="#84BE84" rx="3" ry="3" style="stroke:#038048;stroke-width:1.0;"/><text fill="#000000" font-family="sans-serif" font-size="20" lengthAdjust="spacing" textLength="71" x="59" y="809.0645">toDto()</text></g><!--class BoardDTOParser--><g id="elem_BoardDTOParser"><rect codeLine="69" fill="#F1F1F1" height="73.2813" id="BoardDTOParser" rx="2.5" ry="2.5" style="stroke:#181818;stroke-width:0.5;" width="198" x="7" y="425"/><ellipse cx="23" cy="442" fill="#ADD1B2" rx="12" ry="12" style="stroke:#181818;stroke-width:1.0;"/><path d="M26.0625,449.0781 Q25.375,449.4375 24.625,449.6094 Q23.875,449.7813 23.0469,449.7813 Q20.0938,449.7813 18.5313,447.8438 Q16.9844,445.8906 16.9844,442.2188 Q16.9844,438.5469 18.5313,436.6094 Q20.0938,434.6563 23.0469,434.6563 Q23.875,434.6563 24.625,434.8281 Q25.3906,435 26.0625,435.3594 L26.0625,438.5625 Q25.3125,437.875 24.6094,437.5625 Q23.9219,437.25 23.1719,437.25 Q21.5938,437.25 20.7813,438.5 Q19.9844,439.75 19.9844,442.2188 Q19.9844,444.6875 20.7813,445.9375 Q21.5938,447.1875 23.1719,447.1875 Q23.9219,447.1875 24.6094,446.875 Q25.3125,446.5625 26.0625,445.875 L26.0625,449.0781 Z " fill="#000000"/><text fill="#000000" font-family="sans-serif" font-size="20" lengthAdjust="spacing" textLength="164" x="38" y="448.9238">BoardDTOParser</text><line style="stroke:#181818;stroke-width:0.5;" x1="8" x2="204" y1="459" y2="459"/><line style="stroke:#181818;stroke-width:0.5;" x1="8" x2="204" y1="467" y2="467"/><ellipse cx="18" cy="484.1406" fill="#84BE84" rx="3" ry="3" style="stroke:#038048;stroke-width:1.0;"/><text fill="#000000" font-family="sans-serif" font-size="20" lengthAdjust="spacing" textLength="71" x="28" y="489.5645">toDto()</text></g><!--link CreatePostItUI to CreatePostItController--><g id="link_CreatePostItUI_CreatePostItController"><path codeLine="74" d="M993,57 C993,71.41 993,90.91 993,111.45 " fill="none" id="CreatePostItUI-to-CreatePostItController" style="stroke:#181818;stroke-width:1.0;stroke-dasharray:7.0,7.0;"/><polygon fill="#181818" points="993,116.69,997,107.69,993,111.69,989,107.69,993,116.69" style="stroke:#181818;stroke-width:1.0;"/></g><!--link CreatePostItController to ListBoardService--><g id="link_CreatePostItController_ListBoardService"><path codeLine="75" d="M1082.02,330.08 C1097.9,348.9 1114.13,368.15 1129.09,385.89 " fill="none" id="CreatePostItController-to-ListBoardService" style="stroke:#181818;stroke-width:1.0;"/><polygon fill="#181818" points="1132.46,389.88,1129.7159,380.4211,1129.2367,386.0577,1123.6002,385.5784,1132.46,389.88" style="stroke:#181818;stroke-width:1.0;"/></g><!--link CreatePostItController to BoardService--><g id="link_CreatePostItController_BoardService"><path codeLine="76" d="M1275.1,330.02 C1328.23,349.92 1383.32,370.58 1435,390 C1439.29,391.61 1443.64,393.25 1448.03,394.9 " fill="none" id="CreatePostItController-to-BoardService" style="stroke:#181818;stroke-width:1.0;"/><polygon fill="#181818" points="1452.8,396.69,1445.7775,389.7846,1448.1184,394.9344,1442.9685,397.2752,1452.8,396.69" style="stroke:#181818;stroke-width:1.0;"/></g><!--link ListBoardService to Board--><g id="link_ListBoardService_Board"><path codeLine="78" d="M1192,533.36 C1192,601.6 1192,701.49 1192,750.56 " fill="none" id="ListBoardService-to-Board" style="stroke:#181818;stroke-width:1.0;stroke-dasharray:7.0,7.0;"/><polygon fill="#181818" points="1192,755.72,1196,746.72,1192,750.72,1188,746.72,1192,755.72" style="stroke:#181818;stroke-width:1.0;"/></g><!--link CreatePostItController to PostItRepository--><g id="link_CreatePostItController_PostItRepository"><path codeLine="79" d="M903.98,330.08 C880.89,357.45 857.04,385.74 837.48,408.94 " fill="none" id="CreatePostItController-to-PostItRepository" style="stroke:#181818;stroke-width:1.0;"/><polygon fill="#181818" points="834.13,412.91,842.9898,408.6084,837.3533,409.0877,836.8741,403.4511,834.13,412.91" style="stroke:#181818;stroke-width:1.0;"/></g><!--link CreatePostItController to BoardRepository--><g id="link_CreatePostItController_BoardRepository"><path codeLine="80" d="M741.59,330.08 C662.55,363.27 580.35,397.79 520.38,422.97 " fill="none" id="CreatePostItController-to-BoardRepository" style="stroke:#181818;stroke-width:1.0;"/><polygon fill="#181818" points="515.74,424.92,525.5872,425.1031,520.346,422.9746,522.4745,417.7335,515.74,424.92" style="stroke:#181818;stroke-width:1.0;"/></g><!--link BoardService to PostIt--><g id="link_BoardService_PostIt"><path codeLine="82" d="M1622,533.36 C1622,549.9 1622,568.29 1622,587.38 " fill="none" id="BoardService-to-PostIt" style="stroke:#181818;stroke-width:1.0;stroke-dasharray:7.0,7.0;"/><polygon fill="#181818" points="1622,592.77,1626,583.77,1622,587.77,1618,583.77,1622,592.77" style="stroke:#181818;stroke-width:1.0;"/></g><!--link BoardService to Board--><g id="link_BoardService_Board"><path codeLine="83" d="M1526.3,533.16 C1432.59,602.36 1294.62,704.23 1229.13,752.58 " fill="none" id="BoardService-to-Board" style="stroke:#181818;stroke-width:1.0;stroke-dasharray:7.0,7.0;"/><polygon fill="#181818" points="1224.92,755.69,1234.5421,753.5889,1228.9507,752.7313,1229.8082,747.1399,1224.92,755.69" style="stroke:#181818;stroke-width:1.0;"/></g><!--link BoardDTOParser to BoardDTO--><g id="link_BoardDTOParser_BoardDTO"><path codeLine="84" d="M106,498.3 C106,557.77 106,676.55 106,739.18 " fill="none" id="BoardDTOParser-to-BoardDTO" style="stroke:#181818;stroke-width:1.0;stroke-dasharray:7.0,7.0;"/><polygon fill="#181818" points="106,744.33,110,735.33,106,739.33,102,735.33,106,744.33" style="stroke:#181818;stroke-width:1.0;"/></g><!--link BoardDTOParser to Board--><g id="link_BoardDTOParser_Board"><path codeLine="85" d="M157.08,498.05 C176.7,510.48 199.73,523.64 222,533 C557.27,673.85 992.59,749.48 1140.35,772.39 " fill="none" id="BoardDTOParser-to-Board" style="stroke:#181818;stroke-width:1.0;stroke-dasharray:7.0,7.0;"/><polygon fill="#181818" points="1145.48,773.19,1137.2045,767.85,1140.5398,772.419,1135.9708,775.7543,1145.48,773.19" style="stroke:#181818;stroke-width:1.0;"/></g><!--SRC=[hLJBRi8m4BpxAtmCQa1LFm09WYf5GYege9vDlAWMRXpPImH5_7iTExHv6IuznTuTp-oErp47aHTCio-fiWDmoc7FZX9VLOvhyGtqvPaGaIFeFSk0pXNJ_1qAPGGgVQONGkc5xGngbk6LxaNEPncA4XpGR3uPRWteXEKVMY148t9jqgsKmHGVy4avFpkwb4Sx_nsrOOQL41MEombaaXb3byAWExS6NGghLf6FwQxT0h71fnuswg167YOjx6v_Hxj95uqY1WeeEarxwfPw5rBBmydg6s_QpOgOdc9wRYWc6XY21srJUXbC9FPwjP8ITC2LSA73D5t3OXheGTwS7XgE2b0oARXLI9JINEHsPUfU5xTUArZMAAFjHKnHe8I69HvLT-gIRfNzARXzTNb_PhYLGPlzFoAFTfNp6RgTCClg77ftK2rGHTtviO8sq8miDc-kYj09crynRUhhRQ58Pq0casdWJabWOiRZQU_1tCEsSAJtBAi2NE0UH_TFyL2lEROzEN-C1CheEFYRiA5WZlm0]--></g></svg>