<?xml version="1.0" encoding="UTF-8" standalone="no"?><svg xmlns="http://www.w3.org/2000/svg" xmlns:xlink="http://www.w3.org/1999/xlink" contentStyleType="text/css" height="1413px" preserveAspectRatio="none" style="width:2364px;height:1413px;background:#FFFFFF;" version="1.1" viewBox="0 0 2364 1413" width="2364px" zoomAndPan="magnify"><defs/><g><rect fill="#FFFFFF" height="1207.7813" style="stroke:#181818;stroke-width:1.0;" width="10" x="31.5" y="93.5938"/><rect fill="#FFFFFF" height="410.7266" style="stroke:#181818;stroke-width:1.0;" width="10" x="381.5" y="114.7266"/><rect fill="#FFFFFF" height="382.4609" style="stroke:#181818;stroke-width:1.0;" width="10" x="381.5" y="554.5859"/><rect fill="#FFFFFF" height="29.1328" style="stroke:#181818;stroke-width:1.0;" width="10" x="381.5" y="966.1797"/><rect fill="#FFFFFF" height="276.9297" style="stroke:#181818;stroke-width:1.0;" width="10" x="381.5" y="1024.4453"/><rect fill="#FFFFFF" height="58.2656" style="stroke:#181818;stroke-width:1.0;" width="10" x="812.5" y="143.8594"/><rect fill="#FFFFFF" height="265.0625" style="stroke:#181818;stroke-width:1.0;" width="10" x="812.5" y="231.2578"/><rect fill="#FFFFFF" height="324.1953" style="stroke:#181818;stroke-width:1.0;" width="10" x="812.5" y="583.7188"/><rect fill="#FFFFFF" height="218.6641" style="stroke:#181818;stroke-width:1.0;" width="10" x="812.5" y="1053.5781"/><rect fill="#FFFFFF" height="28" style="stroke:#181818;stroke-width:1.0;" width="10" x="817.5" y="1149.8438"/><rect fill="#FFFFFF" height="265.9297" style="stroke:#181818;stroke-width:1.0;" width="10" x="1078.5" y="612.8516"/><rect fill="#FFFFFF" height="206.7969" style="stroke:#181818;stroke-width:1.0;" width="10" x="1236" y="260.3906"/><rect fill="#FFFFFF" height="59.1328" style="stroke:#181818;stroke-width:1.0;" width="10" x="1371" y="371.9219"/><rect fill="#FFFFFF" height="30" style="stroke:#181818;stroke-width:1.0;" width="10" x="1470" y="401.0547"/><rect fill="#FFFFFF" height="30" style="stroke:#181818;stroke-width:1.0;" width="10" x="1570" y="724.3828"/><rect fill="#FFFFFF" height="59.1328" style="stroke:#181818;stroke-width:1.0;" width="10" x="1657" y="783.5156"/><rect fill="#FFFFFF" height="30" style="stroke:#181818;stroke-width:1.0;" width="10" x="1751.5" y="812.6484"/><rect fill="#FFFFFF" height="30" style="stroke:#181818;stroke-width:1.0;" width="10" x="1854" y="1082.7109"/><rect fill="#FFFFFF" height="29.1328" style="stroke:#181818;stroke-width:1.0;" width="10" x="1971.5" y="289.5234"/><rect fill="#FFFFFF" height="29.1328" style="stroke:#181818;stroke-width:1.0;" width="10" x="2122" y="641.9844"/><rect fill="#FFFFFF" height="29.1328" style="stroke:#181818;stroke-width:1.0;" width="10" x="2283" y="1213.9766"/><rect fill="none" height="105.3984" style="stroke:#000000;stroke-width:1.5;" width="370" x="1162.5" y="333.6563"/><rect fill="none" height="164.5313" style="stroke:#000000;stroke-width:1.5;" width="822" x="994.5" y="686.1172"/><line style="stroke:#181818;stroke-width:0.5;stroke-dasharray:5.0,5.0;" x1="36" x2="36" y1="83.5938" y2="1319.375"/><line style="stroke:#181818;stroke-width:0.5;stroke-dasharray:5.0,5.0;" x1="386" x2="386" y1="83.5938" y2="1319.375"/><line style="stroke:#181818;stroke-width:0.5;stroke-dasharray:5.0,5.0;" x1="817" x2="817" y1="83.5938" y2="1319.375"/><line style="stroke:#181818;stroke-width:0.5;stroke-dasharray:5.0,5.0;" x1="1083.5" x2="1083.5" y1="83.5938" y2="1319.375"/><line style="stroke:#181818;stroke-width:0.5;stroke-dasharray:5.0,5.0;" x1="1240.5" x2="1240.5" y1="83.5938" y2="1319.375"/><line style="stroke:#181818;stroke-width:0.5;stroke-dasharray:5.0,5.0;" x1="1375.5" x2="1375.5" y1="83.5938" y2="1319.375"/><line style="stroke:#181818;stroke-width:0.5;stroke-dasharray:5.0,5.0;" x1="1474.5" x2="1474.5" y1="83.5938" y2="1319.375"/><line style="stroke:#181818;stroke-width:0.5;stroke-dasharray:5.0,5.0;" x1="1574.5" x2="1574.5" y1="83.5938" y2="1319.375"/><line style="stroke:#181818;stroke-width:0.5;stroke-dasharray:5.0,5.0;" x1="1661.5" x2="1661.5" y1="83.5938" y2="1319.375"/><line style="stroke:#181818;stroke-width:0.5;stroke-dasharray:5.0,5.0;" x1="1756.5" x2="1756.5" y1="83.5938" y2="1319.375"/><line style="stroke:#181818;stroke-width:0.5;stroke-dasharray:5.0,5.0;" x1="1858.5" x2="1858.5" y1="83.5938" y2="1319.375"/><line style="stroke:#181818;stroke-width:0.5;stroke-dasharray:5.0,5.0;" x1="1976.5" x2="1976.5" y1="83.5938" y2="1319.375"/><line style="stroke:#181818;stroke-width:0.5;stroke-dasharray:5.0,5.0;" x1="2126.5" x2="2126.5" y1="83.5938" y2="1319.375"/><line style="stroke:#181818;stroke-width:0.5;stroke-dasharray:5.0,5.0;" x1="2287.5" x2="2287.5" y1="83.5938" y2="1319.375"/><text fill="#000000" font-family="sans-serif" font-size="14" lengthAdjust="spacing" textLength="57" x="5" y="80.292">Teacher</text><ellipse cx="36.5" cy="15.7969" fill="#E2E2F0" rx="8" ry="8" style="stroke:#181818;stroke-width:0.5;"/><path d="M36.5,23.7969 L36.5,50.7969 M23.5,31.7969 L49.5,31.7969 M36.5,50.7969 L23.5,65.7969 M36.5,50.7969 L49.5,65.7969 " fill="none" style="stroke:#181818;stroke-width:0.5;"/><text fill="#000000" font-family="sans-serif" font-size="14" lengthAdjust="spacing" textLength="57" x="5" y="1331.3701">Teacher</text><ellipse cx="36.5" cy="1343.1719" fill="#E2E2F0" rx="8" ry="8" style="stroke:#181818;stroke-width:0.5;"/><path d="M36.5,1351.1719 L36.5,1378.1719 M23.5,1359.1719 L49.5,1359.1719 M36.5,1378.1719 L23.5,1393.1719 M36.5,1378.1719 L49.5,1393.1719 " fill="none" style="stroke:#181818;stroke-width:0.5;"/><rect fill="#E2E2F0" height="46.5938" rx="2.5" ry="2.5" style="stroke:#181818;stroke-width:0.5;" width="163" x="305" y="36"/><text fill="#000000" font-family="sans-serif" font-size="14" font-style="italic" lengthAdjust="spacing" textLength="105" x="334" y="55.9951">«presentation»</text><text fill="#000000" font-family="sans-serif" font-size="14" lengthAdjust="spacing" textLength="149" x="312" y="72.292">ScheduleExtraClassUI</text><rect fill="#E2E2F0" height="46.5938" rx="2.5" ry="2.5" style="stroke:#181818;stroke-width:0.5;" width="163" x="305" y="1318.375"/><text fill="#000000" font-family="sans-serif" font-size="14" font-style="italic" lengthAdjust="spacing" textLength="105" x="334" y="1338.3701">«presentation»</text><text fill="#000000" font-family="sans-serif" font-size="14" lengthAdjust="spacing" textLength="149" x="312" y="1354.667">ScheduleExtraClassUI</text><rect fill="#E2E2F0" height="46.5938" rx="2.5" ry="2.5" style="stroke:#181818;stroke-width:0.5;" width="217" x="709" y="36"/><text fill="#000000" font-family="sans-serif" font-size="14" font-style="italic" lengthAdjust="spacing" textLength="92" x="771.5" y="55.9951">«application»</text><text fill="#000000" font-family="sans-serif" font-size="14" lengthAdjust="spacing" textLength="203" x="716" y="72.292">ScheduleExtraClassController</text><rect fill="#E2E2F0" height="46.5938" rx="2.5" ry="2.5" style="stroke:#181818;stroke-width:0.5;" width="217" x="709" y="1318.375"/><text fill="#000000" font-family="sans-serif" font-size="14" font-style="italic" lengthAdjust="spacing" textLength="92" x="771.5" y="1338.3701">«application»</text><text fill="#000000" font-family="sans-serif" font-size="14" lengthAdjust="spacing" textLength="203" x="716" y="1354.667">ScheduleExtraClassController</text><rect fill="#E2E2F0" height="46.5938" rx="2.5" ry="2.5" style="stroke:#181818;stroke-width:0.5;" width="158" x="1004.5" y="36"/><text fill="#000000" font-family="sans-serif" font-size="14" font-style="italic" lengthAdjust="spacing" textLength="67" x="1050" y="55.9951">«service»</text><text fill="#000000" font-family="sans-serif" font-size="14" lengthAdjust="spacing" textLength="144" x="1011.5" y="72.292">ListEnrolmentService</text><rect fill="#E2E2F0" height="46.5938" rx="2.5" ry="2.5" style="stroke:#181818;stroke-width:0.5;" width="158" x="1004.5" y="1318.375"/><text fill="#000000" font-family="sans-serif" font-size="14" font-style="italic" lengthAdjust="spacing" textLength="67" x="1050" y="1338.3701">«service»</text><text fill="#000000" font-family="sans-serif" font-size="14" lengthAdjust="spacing" textLength="144" x="1011.5" y="1354.667">ListEnrolmentService</text><rect fill="#E2E2F0" height="46.5938" rx="2.5" ry="2.5" style="stroke:#181818;stroke-width:0.5;" width="137" x="1172.5" y="36"/><text fill="#000000" font-family="sans-serif" font-size="14" font-style="italic" lengthAdjust="spacing" textLength="67" x="1207.5" y="55.9951">«service»</text><text fill="#000000" font-family="sans-serif" font-size="14" lengthAdjust="spacing" textLength="123" x="1179.5" y="72.292">ListCourseService</text><rect fill="#E2E2F0" height="46.5938" rx="2.5" ry="2.5" style="stroke:#181818;stroke-width:0.5;" width="137" x="1172.5" y="1318.375"/><text fill="#000000" font-family="sans-serif" font-size="14" font-style="italic" lengthAdjust="spacing" textLength="67" x="1207.5" y="1338.3701">«service»</text><text fill="#000000" font-family="sans-serif" font-size="14" lengthAdjust="spacing" textLength="123" x="1179.5" y="1354.667">ListCourseService</text><rect fill="#E2E2F0" height="46.5938" rx="2.5" ry="2.5" style="stroke:#181818;stroke-width:0.5;" width="83" x="1334.5" y="36"/><text fill="#000000" font-family="sans-serif" font-size="14" font-style="italic" lengthAdjust="spacing" textLength="69" x="1341.5" y="55.9951">«domain»</text><text fill="#000000" font-family="sans-serif" font-size="14" lengthAdjust="spacing" textLength="50" x="1351" y="72.292">Course</text><rect fill="#E2E2F0" height="46.5938" rx="2.5" ry="2.5" style="stroke:#181818;stroke-width:0.5;" width="83" x="1334.5" y="1318.375"/><text fill="#000000" font-family="sans-serif" font-size="14" font-style="italic" lengthAdjust="spacing" textLength="69" x="1341.5" y="1338.3701">«domain»</text><text fill="#000000" font-family="sans-serif" font-size="14" lengthAdjust="spacing" textLength="50" x="1351" y="1354.667">Course</text><rect fill="#E2E2F0" height="46.5938" rx="2.5" ry="2.5" style="stroke:#181818;stroke-width:0.5;" width="95" x="1427.5" y="36"/><text fill="#000000" font-family="sans-serif" font-size="14" font-style="italic" lengthAdjust="spacing" textLength="41" x="1454.5" y="55.9951">«dto»</text><text fill="#000000" font-family="sans-serif" font-size="14" lengthAdjust="spacing" textLength="81" x="1434.5" y="72.292">CourseDTO</text><rect fill="#E2E2F0" height="46.5938" rx="2.5" ry="2.5" style="stroke:#181818;stroke-width:0.5;" width="95" x="1427.5" y="1318.375"/><text fill="#000000" font-family="sans-serif" font-size="14" font-style="italic" lengthAdjust="spacing" textLength="41" x="1454.5" y="1338.3701">«dto»</text><text fill="#000000" font-family="sans-serif" font-size="14" lengthAdjust="spacing" textLength="81" x="1434.5" y="1354.667">CourseDTO</text><rect fill="#E2E2F0" height="46.5938" rx="2.5" ry="2.5" style="stroke:#181818;stroke-width:0.5;" width="85" x="1532.5" y="36"/><text fill="#000000" font-family="sans-serif" font-size="14" font-style="italic" lengthAdjust="spacing" textLength="69" x="1540.5" y="55.9951">«domain»</text><text fill="#000000" font-family="sans-serif" font-size="14" lengthAdjust="spacing" textLength="71" x="1539.5" y="72.292">Enrolment</text><rect fill="#E2E2F0" height="46.5938" rx="2.5" ry="2.5" style="stroke:#181818;stroke-width:0.5;" width="85" x="1532.5" y="1318.375"/><text fill="#000000" font-family="sans-serif" font-size="14" font-style="italic" lengthAdjust="spacing" textLength="69" x="1540.5" y="1338.3701">«domain»</text><text fill="#000000" font-family="sans-serif" font-size="14" lengthAdjust="spacing" textLength="71" x="1539.5" y="1354.667">Enrolment</text><rect fill="#E2E2F0" height="46.5938" rx="2.5" ry="2.5" style="stroke:#181818;stroke-width:0.5;" width="69" x="1627.5" y="36"/><text fill="#000000" font-family="sans-serif" font-size="14" font-style="italic" lengthAdjust="spacing" textLength="41" x="1641.5" y="55.9951">«dto»</text><text fill="#000000" font-family="sans-serif" font-size="14" lengthAdjust="spacing" textLength="55" x="1634.5" y="72.292">Student</text><rect fill="#E2E2F0" height="46.5938" rx="2.5" ry="2.5" style="stroke:#181818;stroke-width:0.5;" width="69" x="1627.5" y="1318.375"/><text fill="#000000" font-family="sans-serif" font-size="14" font-style="italic" lengthAdjust="spacing" textLength="41" x="1641.5" y="1338.3701">«dto»</text><text fill="#000000" font-family="sans-serif" font-size="14" lengthAdjust="spacing" textLength="55" x="1634.5" y="1354.667">Student</text><rect fill="#E2E2F0" height="46.5938" rx="2.5" ry="2.5" style="stroke:#181818;stroke-width:0.5;" width="100" x="1706.5" y="36"/><text fill="#000000" font-family="sans-serif" font-size="14" font-style="italic" lengthAdjust="spacing" textLength="41" x="1736" y="55.9951">«dto»</text><text fill="#000000" font-family="sans-serif" font-size="14" lengthAdjust="spacing" textLength="86" x="1713.5" y="72.292">StudentDTO</text><rect fill="#E2E2F0" height="46.5938" rx="2.5" ry="2.5" style="stroke:#181818;stroke-width:0.5;" width="100" x="1706.5" y="1318.375"/><text fill="#000000" font-family="sans-serif" font-size="14" font-style="italic" lengthAdjust="spacing" textLength="41" x="1736" y="1338.3701">«dto»</text><text fill="#000000" font-family="sans-serif" font-size="14" lengthAdjust="spacing" textLength="86" x="1713.5" y="1354.667">StudentDTO</text><rect fill="#E2E2F0" height="46.5938" rx="2.5" ry="2.5" style="stroke:#181818;stroke-width:0.5;" width="85" x="1816.5" y="36"/><text fill="#000000" font-family="sans-serif" font-size="14" font-style="italic" lengthAdjust="spacing" textLength="69" x="1824.5" y="55.9951">«domain»</text><text fill="#000000" font-family="sans-serif" font-size="14" lengthAdjust="spacing" textLength="71" x="1823.5" y="72.292">ExtraClass</text><rect fill="#E2E2F0" height="46.5938" rx="2.5" ry="2.5" style="stroke:#181818;stroke-width:0.5;" width="85" x="1816.5" y="1318.375"/><text fill="#000000" font-family="sans-serif" font-size="14" font-style="italic" lengthAdjust="spacing" textLength="69" x="1824.5" y="1338.3701">«domain»</text><text fill="#000000" font-family="sans-serif" font-size="14" lengthAdjust="spacing" textLength="71" x="1823.5" y="1354.667">ExtraClass</text><text fill="#000000" font-family="sans-serif" font-size="14" font-style="italic" lengthAdjust="spacing" textLength="87" x="1930" y="63.9951">«repository»</text><text fill="#000000" font-family="sans-serif" font-size="14" lengthAdjust="spacing" textLength="124" x="1911.5" y="80.292">CourseRepository</text><path d="M1958.5,15 C1958.5,5 1976.5,5 1976.5,5 C1976.5,5 1994.5,5 1994.5,15 L1994.5,41 C1994.5,51 1976.5,51 1976.5,51 C1976.5,51 1958.5,51 1958.5,41 L1958.5,15 " fill="#E2E2F0" style="stroke:#181818;stroke-width:1.5;"/><path d="M1958.5,15 C1958.5,25 1976.5,25 1976.5,25 C1976.5,25 1994.5,25 1994.5,15 " fill="none" style="stroke:#181818;stroke-width:1.5;"/><text fill="#000000" font-family="sans-serif" font-size="14" font-style="italic" lengthAdjust="spacing" textLength="87" x="1930" y="1331.3701">«repository»</text><text fill="#000000" font-family="sans-serif" font-size="14" lengthAdjust="spacing" textLength="124" x="1911.5" y="1347.667">CourseRepository</text><path d="M1958.5,1360.9688 C1958.5,1350.9688 1976.5,1350.9688 1976.5,1350.9688 C1976.5,1350.9688 1994.5,1350.9688 1994.5,1360.9688 L1994.5,1386.9688 C1994.5,1396.9688 1976.5,1396.9688 1976.5,1396.9688 C1976.5,1396.9688 1958.5,1396.9688 1958.5,1386.9688 L1958.5,1360.9688 " fill="#E2E2F0" style="stroke:#181818;stroke-width:1.5;"/><path d="M1958.5,1360.9688 C1958.5,1370.9688 1976.5,1370.9688 1976.5,1370.9688 C1976.5,1370.9688 1994.5,1370.9688 1994.5,1360.9688 " fill="none" style="stroke:#181818;stroke-width:1.5;"/><text fill="#000000" font-family="sans-serif" font-size="14" font-style="italic" lengthAdjust="spacing" textLength="87" x="2080.5" y="63.9951">«repository»</text><text fill="#000000" font-family="sans-serif" font-size="14" lengthAdjust="spacing" textLength="145" x="2051.5" y="80.292">EnrolmentRepository</text><path d="M2109,15 C2109,5 2127,5 2127,5 C2127,5 2145,5 2145,15 L2145,41 C2145,51 2127,51 2127,51 C2127,51 2109,51 2109,41 L2109,15 " fill="#E2E2F0" style="stroke:#181818;stroke-width:1.5;"/><path d="M2109,15 C2109,25 2127,25 2127,25 C2127,25 2145,25 2145,15 " fill="none" style="stroke:#181818;stroke-width:1.5;"/><text fill="#000000" font-family="sans-serif" font-size="14" font-style="italic" lengthAdjust="spacing" textLength="87" x="2080.5" y="1331.3701">«repository»</text><text fill="#000000" font-family="sans-serif" font-size="14" lengthAdjust="spacing" textLength="145" x="2051.5" y="1347.667">EnrolmentRepository</text><path d="M2109,1360.9688 C2109,1350.9688 2127,1350.9688 2127,1350.9688 C2127,1350.9688 2145,1350.9688 2145,1360.9688 L2145,1386.9688 C2145,1396.9688 2127,1396.9688 2127,1396.9688 C2127,1396.9688 2109,1396.9688 2109,1386.9688 L2109,1360.9688 " fill="#E2E2F0" style="stroke:#181818;stroke-width:1.5;"/><path d="M2109,1360.9688 C2109,1370.9688 2127,1370.9688 2127,1370.9688 C2127,1370.9688 2145,1370.9688 2145,1360.9688 " fill="none" style="stroke:#181818;stroke-width:1.5;"/><text fill="#000000" font-family="sans-serif" font-size="14" font-style="italic" lengthAdjust="spacing" textLength="87" x="2241.5" y="63.9951">«repository»</text><text fill="#000000" font-family="sans-serif" font-size="14" lengthAdjust="spacing" textLength="145" x="2212.5" y="80.292">ExtraClassRepository</text><path d="M2270,15 C2270,5 2288,5 2288,5 C2288,5 2306,5 2306,15 L2306,41 C2306,51 2288,51 2288,51 C2288,51 2270,51 2270,41 L2270,15 " fill="#E2E2F0" style="stroke:#181818;stroke-width:1.5;"/><path d="M2270,15 C2270,25 2288,25 2288,25 C2288,25 2306,25 2306,15 " fill="none" style="stroke:#181818;stroke-width:1.5;"/><text fill="#000000" font-family="sans-serif" font-size="14" font-style="italic" lengthAdjust="spacing" textLength="87" x="2241.5" y="1331.3701">«repository»</text><text fill="#000000" font-family="sans-serif" font-size="14" lengthAdjust="spacing" textLength="145" x="2212.5" y="1347.667">ExtraClassRepository</text><path d="M2270,1360.9688 C2270,1350.9688 2288,1350.9688 2288,1350.9688 C2288,1350.9688 2306,1350.9688 2306,1360.9688 L2306,1386.9688 C2306,1396.9688 2288,1396.9688 2288,1396.9688 C2288,1396.9688 2270,1396.9688 2270,1386.9688 L2270,1360.9688 " fill="#E2E2F0" style="stroke:#181818;stroke-width:1.5;"/><path d="M2270,1360.9688 C2270,1370.9688 2288,1370.9688 2288,1370.9688 C2288,1370.9688 2306,1370.9688 2306,1360.9688 " fill="none" style="stroke:#181818;stroke-width:1.5;"/><rect fill="#FFFFFF" height="1207.7813" style="stroke:#181818;stroke-width:1.0;" width="10" x="31.5" y="93.5938"/><rect fill="#FFFFFF" height="410.7266" style="stroke:#181818;stroke-width:1.0;" width="10" x="381.5" y="114.7266"/><rect fill="#FFFFFF" height="382.4609" style="stroke:#181818;stroke-width:1.0;" width="10" x="381.5" y="554.5859"/><rect fill="#FFFFFF" height="29.1328" style="stroke:#181818;stroke-width:1.0;" width="10" x="381.5" y="966.1797"/><rect fill="#FFFFFF" height="276.9297" style="stroke:#181818;stroke-width:1.0;" width="10" x="381.5" y="1024.4453"/><rect fill="#FFFFFF" height="58.2656" style="stroke:#181818;stroke-width:1.0;" width="10" x="812.5" y="143.8594"/><rect fill="#FFFFFF" height="265.0625" style="stroke:#181818;stroke-width:1.0;" width="10" x="812.5" y="231.2578"/><rect fill="#FFFFFF" height="324.1953" style="stroke:#181818;stroke-width:1.0;" width="10" x="812.5" y="583.7188"/><rect fill="#FFFFFF" height="218.6641" style="stroke:#181818;stroke-width:1.0;" width="10" x="812.5" y="1053.5781"/><rect fill="#FFFFFF" height="28" style="stroke:#181818;stroke-width:1.0;" width="10" x="817.5" y="1149.8438"/><rect fill="#FFFFFF" height="265.9297" style="stroke:#181818;stroke-width:1.0;" width="10" x="1078.5" y="612.8516"/><rect fill="#FFFFFF" height="206.7969" style="stroke:#181818;stroke-width:1.0;" width="10" x="1236" y="260.3906"/><rect fill="#FFFFFF" height="59.1328" style="stroke:#181818;stroke-width:1.0;" width="10" x="1371" y="371.9219"/><rect fill="#FFFFFF" height="30" style="stroke:#181818;stroke-width:1.0;" width="10" x="1470" y="401.0547"/><rect fill="#FFFFFF" height="30" style="stroke:#181818;stroke-width:1.0;" width="10" x="1570" y="724.3828"/><rect fill="#FFFFFF" height="59.1328" style="stroke:#181818;stroke-width:1.0;" width="10" x="1657" y="783.5156"/><rect fill="#FFFFFF" height="30" style="stroke:#181818;stroke-width:1.0;" width="10" x="1751.5" y="812.6484"/><rect fill="#FFFFFF" height="30" style="stroke:#181818;stroke-width:1.0;" width="10" x="1854" y="1082.7109"/><rect fill="#FFFFFF" height="29.1328" style="stroke:#181818;stroke-width:1.0;" width="10" x="1971.5" y="289.5234"/><rect fill="#FFFFFF" height="29.1328" style="stroke:#181818;stroke-width:1.0;" width="10" x="2122" y="641.9844"/><rect fill="#FFFFFF" height="29.1328" style="stroke:#181818;stroke-width:1.0;" width="10" x="2283" y="1213.9766"/><polygon fill="#181818" points="369.5,110.7266,379.5,114.7266,369.5,118.7266,373.5,114.7266" style="stroke:#181818;stroke-width:1.0;"/><line style="stroke:#181818;stroke-width:1.0;" x1="41.5" x2="375.5" y1="114.7266" y2="114.7266"/><text fill="#000000" font-family="sans-serif" font-size="13" font-weight="bold" lengthAdjust="spacing" textLength="9" x="48.5" y="109.6606">1</text><text fill="#000000" font-family="sans-serif" font-size="13" lengthAdjust="spacing" textLength="200" x="61.5" y="109.6606">asks to schedule an extra class</text><polygon fill="#181818" points="800.5,139.8594,810.5,143.8594,800.5,147.8594,804.5,143.8594" style="stroke:#181818;stroke-width:1.0;"/><line style="stroke:#181818;stroke-width:1.0;" x1="391.5" x2="806.5" y1="143.8594" y2="143.8594"/><text fill="#000000" font-family="sans-serif" font-size="13" font-weight="bold" lengthAdjust="spacing" textLength="9" x="398.5" y="138.7935">2</text><text fill="#000000" font-family="sans-serif" font-size="13" lengthAdjust="spacing" textLength="286" x="411.5" y="138.7935">new(courseRepository, enrolmentRepository)</text><polygon fill="#181818" points="1229,168.9922,1239,172.9922,1229,176.9922,1233,172.9922" style="stroke:#181818;stroke-width:1.0;"/><line style="stroke:#181818;stroke-width:1.0;" x1="822.5" x2="1235" y1="172.9922" y2="172.9922"/><text fill="#000000" font-family="sans-serif" font-size="13" font-weight="bold" lengthAdjust="spacing" textLength="9" x="829.5" y="167.9263">3</text><text fill="#000000" font-family="sans-serif" font-size="13" lengthAdjust="spacing" textLength="201" x="842.5" y="167.9263">service=new(courseRepository)</text><polygon fill="#181818" points="1071.5,198.125,1081.5,202.125,1071.5,206.125,1075.5,202.125" style="stroke:#181818;stroke-width:1.0;"/><line style="stroke:#181818;stroke-width:1.0;" x1="817.5" x2="1077.5" y1="202.125" y2="202.125"/><text fill="#000000" font-family="sans-serif" font-size="13" font-weight="bold" lengthAdjust="spacing" textLength="9" x="824.5" y="197.0591">4</text><text fill="#000000" font-family="sans-serif" font-size="13" lengthAdjust="spacing" textLength="224" x="837.5" y="197.0591">service=new(enrolmentRepository)</text><polygon fill="#181818" points="800.5,227.2578,810.5,231.2578,800.5,235.2578,804.5,231.2578" style="stroke:#181818;stroke-width:1.0;"/><line style="stroke:#181818;stroke-width:1.0;" x1="391.5" x2="806.5" y1="231.2578" y2="231.2578"/><text fill="#000000" font-family="sans-serif" font-size="13" font-weight="bold" lengthAdjust="spacing" textLength="9" x="398.5" y="226.1919">5</text><text fill="#000000" font-family="sans-serif" font-size="13" lengthAdjust="spacing" textLength="233" x="411.5" y="226.1919">listAllInProgressLecturedByTeacher()</text><polygon fill="#181818" points="1224,256.3906,1234,260.3906,1224,264.3906,1228,260.3906" style="stroke:#181818;stroke-width:1.0;"/><line style="stroke:#181818;stroke-width:1.0;" x1="822.5" x2="1230" y1="260.3906" y2="260.3906"/><text fill="#000000" font-family="sans-serif" font-size="13" font-weight="bold" lengthAdjust="spacing" textLength="9" x="829.5" y="255.3247">6</text><text fill="#000000" font-family="sans-serif" font-size="13" lengthAdjust="spacing" textLength="282" x="842.5" y="255.3247">listAllInProgressLecturedByTeacher(teacher)</text><polygon fill="#181818" points="1959.5,285.5234,1969.5,289.5234,1959.5,293.5234,1963.5,289.5234" style="stroke:#181818;stroke-width:1.0;"/><line style="stroke:#181818;stroke-width:1.0;" x1="1246" x2="1965.5" y1="289.5234" y2="289.5234"/><text fill="#000000" font-family="sans-serif" font-size="13" font-weight="bold" lengthAdjust="spacing" textLength="9" x="1253" y="284.4575">7</text><text fill="#000000" font-family="sans-serif" font-size="13" lengthAdjust="spacing" textLength="287" x="1266" y="284.4575">findAllInProgressLecturedByTeacher(teacher)</text><polygon fill="#181818" points="1257,314.6563,1247,318.6563,1257,322.6563,1253,318.6563" style="stroke:#181818;stroke-width:1.0;"/><line style="stroke:#181818;stroke-width:1.0;stroke-dasharray:2.0,2.0;" x1="1251" x2="1975.5" y1="318.6563" y2="318.6563"/><text fill="#000000" font-family="sans-serif" font-size="13" font-weight="bold" lengthAdjust="spacing" textLength="9" x="1263" y="313.5903">8</text><text fill="#000000" font-family="sans-serif" font-size="13" lengthAdjust="spacing" textLength="50" x="1276" y="313.5903">courses</text><path d="M1162.5,333.6563 L1239.5,333.6563 L1239.5,340.7891 L1229.5,350.7891 L1162.5,350.7891 L1162.5,333.6563 " fill="#EEEEEE" style="stroke:#000000;stroke-width:1.5;"/><rect fill="none" height="105.3984" style="stroke:#000000;stroke-width:1.5;" width="370" x="1162.5" y="333.6563"/><text fill="#000000" font-family="sans-serif" font-size="13" font-weight="bold" lengthAdjust="spacing" textLength="32" x="1177.5" y="346.7231">loop</text><text fill="#000000" font-family="sans-serif" font-size="11" font-weight="bold" lengthAdjust="spacing" textLength="110" x="1254.5" y="345.8667">[for each course]</text><polygon fill="#181818" points="1359,367.9219,1369,371.9219,1359,375.9219,1363,371.9219" style="stroke:#181818;stroke-width:1.0;"/><line style="stroke:#181818;stroke-width:1.0;" x1="1246" x2="1365" y1="371.9219" y2="371.9219"/><text fill="#000000" font-family="sans-serif" font-size="13" font-weight="bold" lengthAdjust="spacing" textLength="9" x="1253" y="366.856">9</text><text fill="#000000" font-family="sans-serif" font-size="13" lengthAdjust="spacing" textLength="93" x="1266" y="366.856">toDTO(course)</text><polygon fill="#181818" points="1458,397.0547,1468,401.0547,1458,405.0547,1462,401.0547" style="stroke:#181818;stroke-width:1.0;"/><line style="stroke:#181818;stroke-width:1.0;" x1="1381" x2="1464" y1="401.0547" y2="401.0547"/><text fill="#000000" font-family="sans-serif" font-size="13" font-weight="bold" lengthAdjust="spacing" textLength="18" x="1388" y="395.9888">10</text><text fill="#000000" font-family="sans-serif" font-size="13" lengthAdjust="spacing" textLength="35" x="1410" y="395.9888">new()</text><polygon fill="#181818" points="833.5,463.1875,823.5,467.1875,833.5,471.1875,829.5,467.1875" style="stroke:#181818;stroke-width:1.0;"/><line style="stroke:#181818;stroke-width:1.0;stroke-dasharray:2.0,2.0;" x1="827.5" x2="1240" y1="467.1875" y2="467.1875"/><text fill="#000000" font-family="sans-serif" font-size="13" font-weight="bold" lengthAdjust="spacing" textLength="18" x="839.5" y="462.1216">11</text><text fill="#000000" font-family="sans-serif" font-size="13" lengthAdjust="spacing" textLength="50" x="861.5" y="462.1216">courses</text><polygon fill="#181818" points="402.5,492.3203,392.5,496.3203,402.5,500.3203,398.5,496.3203" style="stroke:#181818;stroke-width:1.0;"/><line style="stroke:#181818;stroke-width:1.0;stroke-dasharray:2.0,2.0;" x1="396.5" x2="816.5" y1="496.3203" y2="496.3203"/><text fill="#000000" font-family="sans-serif" font-size="13" font-weight="bold" lengthAdjust="spacing" textLength="18" x="408.5" y="491.2544">12</text><text fill="#000000" font-family="sans-serif" font-size="13" lengthAdjust="spacing" textLength="50" x="430.5" y="491.2544">courses</text><polygon fill="#181818" points="52.5,521.4531,42.5,525.4531,52.5,529.4531,48.5,525.4531" style="stroke:#181818;stroke-width:1.0;"/><line style="stroke:#181818;stroke-width:1.0;stroke-dasharray:2.0,2.0;" x1="46.5" x2="385.5" y1="525.4531" y2="525.4531"/><text fill="#000000" font-family="sans-serif" font-size="13" font-weight="bold" lengthAdjust="spacing" textLength="18" x="58.5" y="520.3872">13</text><text fill="#000000" font-family="sans-serif" font-size="13" lengthAdjust="spacing" textLength="160" x="80.5" y="520.3872">asks to select the course</text><polygon fill="#181818" points="369.5,550.5859,379.5,554.5859,369.5,558.5859,373.5,554.5859" style="stroke:#181818;stroke-width:1.0;"/><line style="stroke:#181818;stroke-width:1.0;" x1="41.5" x2="375.5" y1="554.5859" y2="554.5859"/><text fill="#000000" font-family="sans-serif" font-size="13" font-weight="bold" lengthAdjust="spacing" textLength="18" x="48.5" y="549.52">14</text><text fill="#000000" font-family="sans-serif" font-size="13" lengthAdjust="spacing" textLength="117" x="70.5" y="549.52">selects the course</text><polygon fill="#181818" points="800.5,579.7188,810.5,583.7188,800.5,587.7188,804.5,583.7188" style="stroke:#181818;stroke-width:1.0;"/><line style="stroke:#181818;stroke-width:1.0;" x1="391.5" x2="806.5" y1="583.7188" y2="583.7188"/><text fill="#000000" font-family="sans-serif" font-size="13" font-weight="bold" lengthAdjust="spacing" textLength="18" x="398.5" y="578.6528">15</text><text fill="#000000" font-family="sans-serif" font-size="13" lengthAdjust="spacing" textLength="180" x="420.5" y="578.6528">listStudentsEnrolled(course)</text><polygon fill="#181818" points="1066.5,608.8516,1076.5,612.8516,1066.5,616.8516,1070.5,612.8516" style="stroke:#181818;stroke-width:1.0;"/><line style="stroke:#181818;stroke-width:1.0;" x1="822.5" x2="1072.5" y1="612.8516" y2="612.8516"/><text fill="#000000" font-family="sans-serif" font-size="13" font-weight="bold" lengthAdjust="spacing" textLength="18" x="829.5" y="607.7856">16</text><text fill="#000000" font-family="sans-serif" font-size="13" lengthAdjust="spacing" textLength="180" x="851.5" y="607.7856">listStudentsEnrolled(course)</text><polygon fill="#181818" points="2110,637.9844,2120,641.9844,2110,645.9844,2114,641.9844" style="stroke:#181818;stroke-width:1.0;"/><line style="stroke:#181818;stroke-width:1.0;" x1="1088.5" x2="2116" y1="641.9844" y2="641.9844"/><text fill="#000000" font-family="sans-serif" font-size="13" font-weight="bold" lengthAdjust="spacing" textLength="18" x="1095.5" y="636.9185">17</text><text fill="#000000" font-family="sans-serif" font-size="13" lengthAdjust="spacing" textLength="181" x="1117.5" y="636.9185">findCourseAccepted(course)</text><polygon fill="#181818" points="1099.5,667.1172,1089.5,671.1172,1099.5,675.1172,1095.5,671.1172" style="stroke:#181818;stroke-width:1.0;"/><line style="stroke:#181818;stroke-width:1.0;stroke-dasharray:2.0,2.0;" x1="1093.5" x2="2126" y1="671.1172" y2="671.1172"/><text fill="#000000" font-family="sans-serif" font-size="13" font-weight="bold" lengthAdjust="spacing" textLength="18" x="1105.5" y="666.0513">18</text><text fill="#000000" font-family="sans-serif" font-size="13" lengthAdjust="spacing" textLength="73" x="1127.5" y="666.0513">enrolments</text><path d="M994.5,686.1172 L1071.5,686.1172 L1071.5,693.25 L1061.5,703.25 L994.5,703.25 L994.5,686.1172 " fill="#EEEEEE" style="stroke:#000000;stroke-width:1.5;"/><rect fill="none" height="164.5313" style="stroke:#000000;stroke-width:1.5;" width="822" x="994.5" y="686.1172"/><text fill="#000000" font-family="sans-serif" font-size="13" font-weight="bold" lengthAdjust="spacing" textLength="32" x="1009.5" y="699.1841">loop</text><text fill="#000000" font-family="sans-serif" font-size="11" font-weight="bold" lengthAdjust="spacing" textLength="132" x="1086.5" y="698.3276">[for each enrolment]</text><polygon fill="#181818" points="1558,720.3828,1568,724.3828,1558,728.3828,1562,724.3828" style="stroke:#181818;stroke-width:1.0;"/><line style="stroke:#181818;stroke-width:1.0;" x1="1088.5" x2="1564" y1="724.3828" y2="724.3828"/><text fill="#000000" font-family="sans-serif" font-size="13" font-weight="bold" lengthAdjust="spacing" textLength="18" x="1095.5" y="719.3169">19</text><text fill="#000000" font-family="sans-serif" font-size="13" lengthAdjust="spacing" textLength="59" x="1117.5" y="719.3169">student()</text><polygon fill="#181818" points="1645,779.5156,1655,783.5156,1645,787.5156,1649,783.5156" style="stroke:#181818;stroke-width:1.0;"/><line style="stroke:#181818;stroke-width:1.0;" x1="1088.5" x2="1651" y1="783.5156" y2="783.5156"/><text fill="#000000" font-family="sans-serif" font-size="13" font-weight="bold" lengthAdjust="spacing" textLength="18" x="1095.5" y="778.4497">20</text><text fill="#000000" font-family="sans-serif" font-size="13" lengthAdjust="spacing" textLength="99" x="1117.5" y="778.4497">toDTO(student)</text><polygon fill="#181818" points="1739.5,808.6484,1749.5,812.6484,1739.5,816.6484,1743.5,812.6484" style="stroke:#181818;stroke-width:1.0;"/><line style="stroke:#181818;stroke-width:1.0;" x1="1667" x2="1745.5" y1="812.6484" y2="812.6484"/><text fill="#000000" font-family="sans-serif" font-size="13" font-weight="bold" lengthAdjust="spacing" textLength="18" x="1674" y="807.5825">21</text><text fill="#000000" font-family="sans-serif" font-size="13" lengthAdjust="spacing" textLength="35" x="1696" y="807.5825">new()</text><polygon fill="#181818" points="833.5,874.7813,823.5,878.7813,833.5,882.7813,829.5,878.7813" style="stroke:#181818;stroke-width:1.0;"/><line style="stroke:#181818;stroke-width:1.0;stroke-dasharray:2.0,2.0;" x1="827.5" x2="1082.5" y1="878.7813" y2="878.7813"/><text fill="#000000" font-family="sans-serif" font-size="13" font-weight="bold" lengthAdjust="spacing" textLength="18" x="839.5" y="873.7153">22</text><text fill="#000000" font-family="sans-serif" font-size="13" lengthAdjust="spacing" textLength="56" x="861.5" y="873.7153">students</text><polygon fill="#181818" points="402.5,903.9141,392.5,907.9141,402.5,911.9141,398.5,907.9141" style="stroke:#181818;stroke-width:1.0;"/><line style="stroke:#181818;stroke-width:1.0;stroke-dasharray:2.0,2.0;" x1="396.5" x2="816.5" y1="907.9141" y2="907.9141"/><text fill="#000000" font-family="sans-serif" font-size="13" font-weight="bold" lengthAdjust="spacing" textLength="18" x="408.5" y="902.8481">23</text><text fill="#000000" font-family="sans-serif" font-size="13" lengthAdjust="spacing" textLength="56" x="430.5" y="902.8481">students</text><polygon fill="#181818" points="52.5,933.0469,42.5,937.0469,52.5,941.0469,48.5,937.0469" style="stroke:#181818;stroke-width:1.0;"/><line style="stroke:#181818;stroke-width:1.0;stroke-dasharray:2.0,2.0;" x1="46.5" x2="385.5" y1="937.0469" y2="937.0469"/><text fill="#000000" font-family="sans-serif" font-size="13" font-weight="bold" lengthAdjust="spacing" textLength="18" x="58.5" y="931.981">24</text><text fill="#000000" font-family="sans-serif" font-size="13" lengthAdjust="spacing" textLength="207" x="80.5" y="931.981">asks to select the users to invite</text><polygon fill="#181818" points="369.5,962.1797,379.5,966.1797,369.5,970.1797,373.5,966.1797" style="stroke:#181818;stroke-width:1.0;"/><line style="stroke:#181818;stroke-width:1.0;" x1="41.5" x2="375.5" y1="966.1797" y2="966.1797"/><text fill="#000000" font-family="sans-serif" font-size="13" font-weight="bold" lengthAdjust="spacing" textLength="18" x="48.5" y="961.1138">25</text><text fill="#000000" font-family="sans-serif" font-size="13" lengthAdjust="spacing" textLength="109" x="70.5" y="961.1138">selects the users</text><polygon fill="#181818" points="52.5,991.3125,42.5,995.3125,52.5,999.3125,48.5,995.3125" style="stroke:#181818;stroke-width:1.0;"/><line style="stroke:#181818;stroke-width:1.0;stroke-dasharray:2.0,2.0;" x1="46.5" x2="385.5" y1="995.3125" y2="995.3125"/><text fill="#000000" font-family="sans-serif" font-size="13" font-weight="bold" lengthAdjust="spacing" textLength="18" x="58.5" y="990.2466">26</text><text fill="#000000" font-family="sans-serif" font-size="13" lengthAdjust="spacing" textLength="294" x="80.5" y="990.2466">asks to enter the date/time start and duration</text><polygon fill="#181818" points="369.5,1020.4453,379.5,1024.4453,369.5,1028.4453,373.5,1024.4453" style="stroke:#181818;stroke-width:1.0;"/><line style="stroke:#181818;stroke-width:1.0;" x1="41.5" x2="375.5" y1="1024.4453" y2="1024.4453"/><text fill="#000000" font-family="sans-serif" font-size="13" font-weight="bold" lengthAdjust="spacing" textLength="18" x="48.5" y="1019.3794">27</text><text fill="#000000" font-family="sans-serif" font-size="13" lengthAdjust="spacing" textLength="251" x="70.5" y="1019.3794">enters the date/time start and duration</text><polygon fill="#181818" points="800.5,1049.5781,810.5,1053.5781,800.5,1057.5781,804.5,1053.5781" style="stroke:#181818;stroke-width:1.0;"/><line style="stroke:#181818;stroke-width:1.0;" x1="391.5" x2="806.5" y1="1053.5781" y2="1053.5781"/><text fill="#000000" font-family="sans-serif" font-size="13" font-weight="bold" lengthAdjust="spacing" textLength="18" x="398.5" y="1048.5122">28</text><text fill="#000000" font-family="sans-serif" font-size="13" lengthAdjust="spacing" textLength="380" x="420.5" y="1048.5122">createExtraClass(course, teacher, date, duration, students)</text><polygon fill="#181818" points="1842,1078.7109,1852,1082.7109,1842,1086.7109,1846,1082.7109" style="stroke:#181818;stroke-width:1.0;"/><line style="stroke:#181818;stroke-width:1.0;" x1="822.5" x2="1848" y1="1082.7109" y2="1082.7109"/><text fill="#000000" font-family="sans-serif" font-size="13" font-weight="bold" lengthAdjust="spacing" textLength="18" x="829.5" y="1077.645">29</text><text fill="#000000" font-family="sans-serif" font-size="13" lengthAdjust="spacing" textLength="297" x="851.5" y="1077.645">new(course, teacher, time, duration, students)</text><line style="stroke:#181818;stroke-width:1.0;" x1="827.5" x2="869.5" y1="1141.8438" y2="1141.8438"/><line style="stroke:#181818;stroke-width:1.0;" x1="869.5" x2="869.5" y1="1141.8438" y2="1154.8438"/><line style="stroke:#181818;stroke-width:1.0;" x1="828.5" x2="869.5" y1="1154.8438" y2="1154.8438"/><polygon fill="#181818" points="838.5,1150.8438,828.5,1154.8438,838.5,1158.8438,834.5,1154.8438" style="stroke:#181818;stroke-width:1.0;"/><text fill="#000000" font-family="sans-serif" font-size="13" font-weight="bold" lengthAdjust="spacing" textLength="18" x="834.5" y="1136.7778">30</text><text fill="#000000" font-family="sans-serif" font-size="13" lengthAdjust="spacing" textLength="107" x="856.5" y="1136.7778">save(extraClass)</text><polygon fill="#181818" points="2271,1209.9766,2281,1213.9766,2271,1217.9766,2275,1213.9766" style="stroke:#181818;stroke-width:1.0;"/><line style="stroke:#181818;stroke-width:1.0;" x1="822.5" x2="2277" y1="1213.9766" y2="1213.9766"/><text fill="#000000" font-family="sans-serif" font-size="13" font-weight="bold" lengthAdjust="spacing" textLength="18" x="829.5" y="1208.9106">31</text><text fill="#000000" font-family="sans-serif" font-size="13" lengthAdjust="spacing" textLength="107" x="851.5" y="1208.9106">save(extraClass)</text><polygon fill="#181818" points="833.5,1239.1094,823.5,1243.1094,833.5,1247.1094,829.5,1243.1094" style="stroke:#181818;stroke-width:1.0;"/><line style="stroke:#181818;stroke-width:1.0;stroke-dasharray:2.0,2.0;" x1="827.5" x2="2287" y1="1243.1094" y2="1243.1094"/><text fill="#000000" font-family="sans-serif" font-size="13" font-weight="bold" lengthAdjust="spacing" textLength="18" x="839.5" y="1238.0435">32</text><text fill="#000000" font-family="sans-serif" font-size="13" lengthAdjust="spacing" textLength="67" x="861.5" y="1238.0435">extraClass</text><polygon fill="#181818" points="402.5,1268.2422,392.5,1272.2422,402.5,1276.2422,398.5,1272.2422" style="stroke:#181818;stroke-width:1.0;"/><line style="stroke:#181818;stroke-width:1.0;stroke-dasharray:2.0,2.0;" x1="396.5" x2="816.5" y1="1272.2422" y2="1272.2422"/><text fill="#000000" font-family="sans-serif" font-size="13" font-weight="bold" lengthAdjust="spacing" textLength="18" x="408.5" y="1267.1763">33</text><text fill="#000000" font-family="sans-serif" font-size="13" lengthAdjust="spacing" textLength="44" x="430.5" y="1267.1763">sucess</text><polygon fill="#181818" points="47.5,1297.375,37.5,1301.375,47.5,1305.375,43.5,1301.375" style="stroke:#181818;stroke-width:1.0;"/><line style="stroke:#181818;stroke-width:1.0;stroke-dasharray:2.0,2.0;" x1="41.5" x2="385.5" y1="1301.375" y2="1301.375"/><text fill="#000000" font-family="sans-serif" font-size="13" font-weight="bold" lengthAdjust="spacing" textLength="18" x="53.5" y="1296.3091">34</text><text fill="#000000" font-family="sans-serif" font-size="13" lengthAdjust="spacing" textLength="168" x="75.5" y="1296.3091">informs operation success</text><!--MD5=[3f58f40f6a925a8ce265c2a773635010]
@startuml US1011_SD
autonumber

actor "Teacher" as T
participant "ScheduleExtraClassUI" as UI <<presentation>>
participant "ScheduleExtraClassController" as CTRL <<application>>
participant "ListEnrolmentService" as ESRV <<service>>
participant "ListCourseService" as CSRV <<service>>
participant "Course" as C <<domain>>
participant "CourseDTO" as CDTO <<dto>>
participant "Enrolment" as E <<domain>>
participant "Student" as S <<dto>>
participant "StudentDTO" as SDTO <<dto>>
participant "ExtraClass" as EX <<domain>>


database CourseRepository as CREP <<repository>>
database EnrolmentRepository as EREP <<repository>>
database ExtraClassRepository as EXREP <<repository>>

activate T

T -> UI : asks to schedule an extra class
activate UI

UI -> CTRL : new(courseRepository, enrolmentRepository)
activate CTRL
CTRL -> CSRV : service=new(courseRepository)
CTRL -> ESRV : service=new(enrolmentRepository)
deactivate CTRL

UI -> CTRL : listAllInProgressLecturedByTeacher()
activate CTRL
CTRL -> CSRV : listAllInProgressLecturedByTeacher(teacher)
activate CSRV
CSRV -> CREP : findAllInProgressLecturedByTeacher(teacher)
activate CREP
CREP - -> CSRV : courses
deactivate CREP

loop for each course
  CSRV -> C : toDTO(course)
  activate C
  C -> CDTO : new()
  activate CDTO
  deactivate CDTO
  deactivate C
end loop

CSRV - -> CTRL : courses
deactivate CSRV
CTRL - -> UI : courses
deactivate CTRL

UI - -> T : asks to select the course
deactivate UI

T -> UI : selects the course
activate UI

UI -> CTRL : listStudentsEnrolled(course)
activate CTRL
CTRL -> ESRV : listStudentsEnrolled(course)
activate ESRV
ESRV -> EREP : findCourseAccepted(course)
activate EREP
EREP - -> ESRV : enrolments
deactivate EREP

loop for each enrolment
  ESRV -> E : student()
  activate E
  deactivate E

  ESRV -> S : toDTO(student)
  activate S
  S -> SDTO : new()
  activate SDTO
  deactivate S
  deactivate SDTO
  deactivate E
end loop

ESRV - -> CTRL : students
deactivate ESRV
CTRL - -> UI : students
deactivate CTRL

UI - -> T : asks to select the users to invite
deactivate UI

T -> UI : selects the users
activate UI
UI- -> T : asks to enter the date/time start and duration
deactivate UI

T -> UI : enters the date/time start and duration
activate UI
UI -> CTRL : createExtraClass(course, teacher, date, duration, students)
activate CTRL
CTRL -> EX : new(course, teacher, time, duration, students)
activate EX
deactivate EX
CTRL -> CTRL : save(extraClass)
activate CTRL
deactivate CTRL
CTRL -> EXREP : save(extraClass)
activate EXREP
EXREP - -> CTRL : extraClass
deactivate EXREP
CTRL - -> UI : sucess
deactivate CTRL
UI- -> T : informs operation success
deactivate UI

deactivate T

@enduml

PlantUML version 1.2022.7(Mon Aug 22 18:01:30 WEST 2022)
(GPL source distribution)
Java Runtime: OpenJDK Runtime Environment
JVM: OpenJDK 64-Bit Server VM
Default Encoding: UTF-8
Language: en
Country: US
--></g></svg>