<?xml version="1.0" encoding="UTF-8" standalone="no"?><svg xmlns="http://www.w3.org/2000/svg" xmlns:xlink="http://www.w3.org/1999/xlink" contentStyleType="text/css" height="1353px" preserveAspectRatio="none" style="width:2179px;height:1353px;background:#FFFFFF;" version="1.1" viewBox="0 0 2179 1353" width="2179px" zoomAndPan="magnify"><defs/><g><rect fill="#FFFFFF" height="1103.2393" style="stroke:#181818;stroke-width:1.0;" width="10" x="46" y="115.4799"/><rect fill="#FFFFFF" height="41.24" style="stroke:#181818;stroke-width:1.0;" width="10" x="641.625" y="148.7199"/><rect fill="#FFFFFF" height="291.6798" style="stroke:#181818;stroke-width:1.0;" width="10" x="641.625" y="231.1999"/><rect fill="#FFFFFF" height="459.6397" style="stroke:#181818;stroke-width:1.0;" width="10" x="641.625" y="564.1197"/><rect fill="#FFFFFF" height="153.7199" style="stroke:#181818;stroke-width:1.0;" width="10" x="641.625" y="1064.9994"/><rect fill="#FFFFFF" height="217.1999" style="stroke:#181818;stroke-width:1.0;" width="10" x="854.625" y="272.4398"/><rect fill="#FFFFFF" height="377.1598" style="stroke:#181818;stroke-width:1.0;" width="10" x="854.625" y="605.3596"/><rect fill="#FFFFFF" height="71.24" style="stroke:#181818;stroke-width:1.0;" width="10" x="854.625" y="1106.2393"/><rect fill="#FFFFFF" height="30" style="stroke:#181818;stroke-width:1.0;" width="10" x="1103.875" y="952.5194"/><rect fill="#FFFFFF" height="30" style="stroke:#181818;stroke-width:1.0;" width="10" x="1241.375" y="881.2794"/><rect fill="#FFFFFF" height="175.9599" style="stroke:#181818;stroke-width:1.0;" width="10" x="1406.375" y="313.6798"/><rect fill="#FFFFFF" height="71.24" style="stroke:#181818;stroke-width:1.0;" width="10" x="1597" y="403.3997"/><rect fill="#FFFFFF" height="30" style="stroke:#181818;stroke-width:1.0;" width="10" x="1725" y="444.6397"/><rect fill="#FFFFFF" height="30" style="stroke:#181818;stroke-width:1.0;" width="10" x="1889.5" y="1147.4793"/><rect fill="#FFFFFF" height="30" style="stroke:#181818;stroke-width:1.0;" width="10" x="2080.5" y="646.5996"/><rect fill="none" height="153.9599" style="stroke:#000000;stroke-width:1.5;" width="484.125" x="1322.375" y="328.6798"/><line style="stroke:#181818;stroke-width:0.5;stroke-dasharray:5.0,5.0;" x1="51" x2="51" y1="105.4799" y2="1236.7193"/><line style="stroke:#181818;stroke-width:0.5;stroke-dasharray:5.0,5.0;" x1="646.125" x2="646.125" y1="105.4799" y2="1236.7193"/><line style="stroke:#181818;stroke-width:0.5;stroke-dasharray:5.0,5.0;" x1="859.125" x2="859.125" y1="105.4799" y2="1236.7193"/><line style="stroke:#181818;stroke-width:0.5;stroke-dasharray:5.0,5.0;" x1="1108.375" x2="1108.375" y1="105.4799" y2="1236.7193"/><line style="stroke:#181818;stroke-width:0.5;stroke-dasharray:5.0,5.0;" x1="1246.375" x2="1246.375" y1="105.4799" y2="1236.7193"/><line style="stroke:#181818;stroke-width:0.5;stroke-dasharray:5.0,5.0;" x1="1411.375" x2="1411.375" y1="105.4799" y2="1236.7193"/><line style="stroke:#181818;stroke-width:0.5;stroke-dasharray:5.0,5.0;" x1="1601.5" x2="1601.5" y1="105.4799" y2="1236.7193"/><line style="stroke:#181818;stroke-width:0.5;stroke-dasharray:5.0,5.0;" x1="1729.5" x2="1729.5" y1="105.4799" y2="1236.7193"/><line style="stroke:#181818;stroke-width:0.5;stroke-dasharray:5.0,5.0;" x1="1894.5" x2="1894.5" y1="105.4799" y2="1236.7193"/><line style="stroke:#181818;stroke-width:0.5;stroke-dasharray:5.0,5.0;" x1="2085.5" x2="2085.5" y1="105.4799" y2="1236.7193"/><text fill="#000000" font-family="sans-serif" font-size="20" lengthAdjust="spacing" textLength="86" x="5" y="99.62">Manager</text><ellipse cx="51" cy="26.74" fill="#E2E2F0" rx="8" ry="8" style="stroke:#181818;stroke-width:0.5;"/><path d="M51,34.74 L51,61.74 M38,42.74 L64,42.74 M51,61.74 L38,76.74 M51,61.74 L64,76.74 " fill="none" style="stroke:#181818;stroke-width:0.5;"/><text fill="#000000" font-family="sans-serif" font-size="20" lengthAdjust="spacing" textLength="86" x="5" y="1257.0993">Manager</text><ellipse cx="51" cy="1271.4593" fill="#E2E2F0" rx="8" ry="8" style="stroke:#181818;stroke-width:0.5;"/><path d="M51,1279.4593 L51,1306.4593 M38,1287.4593 L64,1287.4593 M51,1306.4593 L38,1321.4593 M51,1306.4593 L64,1321.4593 " fill="none" style="stroke:#181818;stroke-width:0.5;"/><rect fill="#E2E2F0" height="68.4799" rx="2.5" ry="2.5" style="stroke:#181818;stroke-width:0.5;" width="165" x="564.125" y="36"/><text fill="#000000" font-family="sans-serif" font-size="20" font-style="italic" lengthAdjust="spacing" textLength="134" x="579.625" y="64.38">«presentation»</text><text fill="#000000" font-family="sans-serif" font-size="20" lengthAdjust="spacing" textLength="151" x="571.125" y="91.62">CreateCourseUI</text><rect fill="#E2E2F0" height="68.4799" rx="2.5" ry="2.5" style="stroke:#181818;stroke-width:0.5;" width="165" x="564.125" y="1235.7193"/><text fill="#000000" font-family="sans-serif" font-size="20" font-style="italic" lengthAdjust="spacing" textLength="134" x="579.625" y="1264.0993">«presentation»</text><text fill="#000000" font-family="sans-serif" font-size="20" lengthAdjust="spacing" textLength="151" x="571.125" y="1291.3393">CreateCourseUI</text><rect fill="#E2E2F0" height="68.4799" rx="2.5" ry="2.5" style="stroke:#181818;stroke-width:0.5;" width="241" x="739.125" y="36"/><text fill="#000000" font-family="sans-serif" font-size="20" font-style="italic" lengthAdjust="spacing" textLength="120" x="799.625" y="64.38">«application»</text><text fill="#000000" font-family="sans-serif" font-size="20" lengthAdjust="spacing" textLength="227" x="746.125" y="91.62">CreateCourseController</text><rect fill="#E2E2F0" height="68.4799" rx="2.5" ry="2.5" style="stroke:#181818;stroke-width:0.5;" width="241" x="739.125" y="1235.7193"/><text fill="#000000" font-family="sans-serif" font-size="20" font-style="italic" lengthAdjust="spacing" textLength="120" x="799.625" y="1264.0993">«application»</text><text fill="#000000" font-family="sans-serif" font-size="20" lengthAdjust="spacing" textLength="227" x="746.125" y="1291.3393">CreateCourseController</text><rect fill="#E2E2F0" height="68.4799" rx="2.5" ry="2.5" style="stroke:#181818;stroke-width:0.5;" width="103" x="1057.375" y="36"/><text fill="#000000" font-family="sans-serif" font-size="20" font-style="italic" lengthAdjust="spacing" textLength="89" x="1064.375" y="64.38">«domain»</text><text fill="#000000" font-family="sans-serif" font-size="20" lengthAdjust="spacing" textLength="67" x="1075.375" y="91.62">Course</text><rect fill="#E2E2F0" height="68.4799" rx="2.5" ry="2.5" style="stroke:#181818;stroke-width:0.5;" width="103" x="1057.375" y="1235.7193"/><text fill="#000000" font-family="sans-serif" font-size="20" font-style="italic" lengthAdjust="spacing" textLength="89" x="1064.375" y="1264.0993">«domain»</text><text fill="#000000" font-family="sans-serif" font-size="20" lengthAdjust="spacing" textLength="67" x="1075.375" y="1291.3393">Course</text><rect fill="#E2E2F0" height="68.4799" rx="2.5" ry="2.5" style="stroke:#181818;stroke-width:0.5;" width="152" x="1170.375" y="36"/><text fill="#000000" font-family="sans-serif" font-size="20" font-style="italic" lengthAdjust="spacing" textLength="84" x="1204.375" y="64.38">«builder»</text><text fill="#000000" font-family="sans-serif" font-size="20" lengthAdjust="spacing" textLength="138" x="1177.375" y="91.62">CourseBuilder</text><rect fill="#E2E2F0" height="68.4799" rx="2.5" ry="2.5" style="stroke:#181818;stroke-width:0.5;" width="152" x="1170.375" y="1235.7193"/><text fill="#000000" font-family="sans-serif" font-size="20" font-style="italic" lengthAdjust="spacing" textLength="84" x="1204.375" y="1264.0993">«builder»</text><text fill="#000000" font-family="sans-serif" font-size="20" lengthAdjust="spacing" textLength="138" x="1177.375" y="1291.3393">CourseBuilder</text><rect fill="#E2E2F0" height="68.4799" rx="2.5" ry="2.5" style="stroke:#181818;stroke-width:0.5;" width="158" x="1332.375" y="36"/><text fill="#000000" font-family="sans-serif" font-size="20" font-style="italic" lengthAdjust="spacing" textLength="80" x="1371.375" y="64.38">«service»</text><text fill="#000000" font-family="sans-serif" font-size="20" lengthAdjust="spacing" textLength="144" x="1339.375" y="91.62">TeacherService</text><rect fill="#E2E2F0" height="68.4799" rx="2.5" ry="2.5" style="stroke:#181818;stroke-width:0.5;" width="158" x="1332.375" y="1235.7193"/><text fill="#000000" font-family="sans-serif" font-size="20" font-style="italic" lengthAdjust="spacing" textLength="80" x="1371.375" y="1264.0993">«service»</text><text fill="#000000" font-family="sans-serif" font-size="20" lengthAdjust="spacing" textLength="144" x="1339.375" y="1291.3393">TeacherService</text><rect fill="#E2E2F0" height="68.4799" rx="2.5" ry="2.5" style="stroke:#181818;stroke-width:0.5;" width="103" x="1550.5" y="36"/><text fill="#000000" font-family="sans-serif" font-size="20" font-style="italic" lengthAdjust="spacing" textLength="89" x="1557.5" y="64.38">«domain»</text><text fill="#000000" font-family="sans-serif" font-size="20" lengthAdjust="spacing" textLength="77" x="1563.5" y="91.62">Teacher</text><rect fill="#E2E2F0" height="68.4799" rx="2.5" ry="2.5" style="stroke:#181818;stroke-width:0.5;" width="103" x="1550.5" y="1235.7193"/><text fill="#000000" font-family="sans-serif" font-size="20" font-style="italic" lengthAdjust="spacing" textLength="89" x="1557.5" y="1264.0993">«domain»</text><text fill="#000000" font-family="sans-serif" font-size="20" lengthAdjust="spacing" textLength="77" x="1563.5" y="1291.3393">Teacher</text><rect fill="#E2E2F0" height="68.4799" rx="2.5" ry="2.5" style="stroke:#181818;stroke-width:0.5;" width="133" x="1663.5" y="36"/><text fill="#000000" font-family="sans-serif" font-size="20" font-style="italic" lengthAdjust="spacing" textLength="50" x="1705" y="64.38">«dto»</text><text fill="#000000" font-family="sans-serif" font-size="20" lengthAdjust="spacing" textLength="119" x="1670.5" y="91.62">TeacherDTO</text><rect fill="#E2E2F0" height="68.4799" rx="2.5" ry="2.5" style="stroke:#181818;stroke-width:0.5;" width="133" x="1663.5" y="1235.7193"/><text fill="#000000" font-family="sans-serif" font-size="20" font-style="italic" lengthAdjust="spacing" textLength="50" x="1705" y="1264.0993">«dto»</text><text fill="#000000" font-family="sans-serif" font-size="20" lengthAdjust="spacing" textLength="119" x="1670.5" y="1291.3393">TeacherDTO</text><text fill="#000000" font-family="sans-serif" font-size="20" font-style="italic" lengthAdjust="spacing" textLength="110" x="1836.5" y="72.38">«repository»</text><text fill="#000000" font-family="sans-serif" font-size="20" lengthAdjust="spacing" textLength="170" x="1806.5" y="99.62">CourseRepository</text><path d="M1876.5,15 C1876.5,5 1894.5,5 1894.5,5 C1894.5,5 1912.5,5 1912.5,15 L1912.5,41 C1912.5,51 1894.5,51 1894.5,51 C1894.5,51 1876.5,51 1876.5,41 L1876.5,15 " fill="#E2E2F0" style="stroke:#181818;stroke-width:1.5;"/><path d="M1876.5,15 C1876.5,25 1894.5,25 1894.5,25 C1894.5,25 1912.5,25 1912.5,15 " fill="none" style="stroke:#181818;stroke-width:1.5;"/><text fill="#000000" font-family="sans-serif" font-size="20" font-style="italic" lengthAdjust="spacing" textLength="110" x="1836.5" y="1257.0993">«repository»</text><text fill="#000000" font-family="sans-serif" font-size="20" lengthAdjust="spacing" textLength="170" x="1806.5" y="1284.3393">CourseRepository</text><path d="M1876.5,1300.1992 C1876.5,1290.1992 1894.5,1290.1992 1894.5,1290.1992 C1894.5,1290.1992 1912.5,1290.1992 1912.5,1300.1992 L1912.5,1326.1992 C1912.5,1336.1992 1894.5,1336.1992 1894.5,1336.1992 C1894.5,1336.1992 1876.5,1336.1992 1876.5,1326.1992 L1876.5,1300.1992 " fill="#E2E2F0" style="stroke:#181818;stroke-width:1.5;"/><path d="M1876.5,1300.1992 C1876.5,1310.1992 1894.5,1310.1992 1894.5,1310.1992 C1894.5,1310.1992 1912.5,1310.1992 1912.5,1300.1992 " fill="none" style="stroke:#181818;stroke-width:1.5;"/><text fill="#000000" font-family="sans-serif" font-size="20" font-style="italic" lengthAdjust="spacing" textLength="110" x="2027.5" y="72.38">«repository»</text><text fill="#000000" font-family="sans-serif" font-size="20" lengthAdjust="spacing" textLength="180" x="1992.5" y="99.62">TeacherRepository</text><path d="M2067.5,15 C2067.5,5 2085.5,5 2085.5,5 C2085.5,5 2103.5,5 2103.5,15 L2103.5,41 C2103.5,51 2085.5,51 2085.5,51 C2085.5,51 2067.5,51 2067.5,41 L2067.5,15 " fill="#E2E2F0" style="stroke:#181818;stroke-width:1.5;"/><path d="M2067.5,15 C2067.5,25 2085.5,25 2085.5,25 C2085.5,25 2103.5,25 2103.5,15 " fill="none" style="stroke:#181818;stroke-width:1.5;"/><text fill="#000000" font-family="sans-serif" font-size="20" font-style="italic" lengthAdjust="spacing" textLength="110" x="2027.5" y="1257.0993">«repository»</text><text fill="#000000" font-family="sans-serif" font-size="20" lengthAdjust="spacing" textLength="180" x="1992.5" y="1284.3393">TeacherRepository</text><path d="M2067.5,1300.1992 C2067.5,1290.1992 2085.5,1290.1992 2085.5,1290.1992 C2085.5,1290.1992 2103.5,1290.1992 2103.5,1300.1992 L2103.5,1326.1992 C2103.5,1336.1992 2085.5,1336.1992 2085.5,1336.1992 C2085.5,1336.1992 2067.5,1336.1992 2067.5,1326.1992 L2067.5,1300.1992 " fill="#E2E2F0" style="stroke:#181818;stroke-width:1.5;"/><path d="M2067.5,1300.1992 C2067.5,1310.1992 2085.5,1310.1992 2085.5,1310.1992 C2085.5,1310.1992 2103.5,1310.1992 2103.5,1300.1992 " fill="none" style="stroke:#181818;stroke-width:1.5;"/><rect fill="#FFFFFF" height="1103.2393" style="stroke:#181818;stroke-width:1.0;" width="10" x="46" y="115.4799"/><rect fill="#FFFFFF" height="41.24" style="stroke:#181818;stroke-width:1.0;" width="10" x="641.625" y="148.7199"/><rect fill="#FFFFFF" height="291.6798" style="stroke:#181818;stroke-width:1.0;" width="10" x="641.625" y="231.1999"/><rect fill="#FFFFFF" height="459.6397" style="stroke:#181818;stroke-width:1.0;" width="10" x="641.625" y="564.1197"/><rect fill="#FFFFFF" height="153.7199" style="stroke:#181818;stroke-width:1.0;" width="10" x="641.625" y="1064.9994"/><rect fill="#FFFFFF" height="217.1999" style="stroke:#181818;stroke-width:1.0;" width="10" x="854.625" y="272.4398"/><rect fill="#FFFFFF" height="377.1598" style="stroke:#181818;stroke-width:1.0;" width="10" x="854.625" y="605.3596"/><rect fill="#FFFFFF" height="71.24" style="stroke:#181818;stroke-width:1.0;" width="10" x="854.625" y="1106.2393"/><rect fill="#FFFFFF" height="30" style="stroke:#181818;stroke-width:1.0;" width="10" x="1103.875" y="952.5194"/><rect fill="#FFFFFF" height="30" style="stroke:#181818;stroke-width:1.0;" width="10" x="1241.375" y="881.2794"/><rect fill="#FFFFFF" height="175.9599" style="stroke:#181818;stroke-width:1.0;" width="10" x="1406.375" y="313.6798"/><rect fill="#FFFFFF" height="71.24" style="stroke:#181818;stroke-width:1.0;" width="10" x="1597" y="403.3997"/><rect fill="#FFFFFF" height="30" style="stroke:#181818;stroke-width:1.0;" width="10" x="1725" y="444.6397"/><rect fill="#FFFFFF" height="30" style="stroke:#181818;stroke-width:1.0;" width="10" x="1889.5" y="1147.4793"/><rect fill="#FFFFFF" height="30" style="stroke:#181818;stroke-width:1.0;" width="10" x="2080.5" y="646.5996"/><polygon fill="#181818" points="629.625,144.7199,639.625,148.7199,629.625,152.7199,633.625,148.7199" style="stroke:#181818;stroke-width:1.0;"/><line style="stroke:#181818;stroke-width:1.0;" x1="56" x2="635.625" y1="148.7199" y2="148.7199"/><text fill="#000000" font-family="sans-serif" font-size="20" font-weight="bold" lengthAdjust="spacing" textLength="11.625" x="63" y="140.8599">1</text><text fill="#000000" font-family="sans-serif" font-size="20" lengthAdjust="spacing" textLength="264" x="78.625" y="140.8599">asks to create a new Course</text><polygon fill="#181818" points="67,185.9599,57,189.9599,67,193.9599,63,189.9599" style="stroke:#181818;stroke-width:1.0;"/><line style="stroke:#181818;stroke-width:1.0;stroke-dasharray:2.0,2.0;" x1="61" x2="645.625" y1="189.9599" y2="189.9599"/><text fill="#000000" font-family="sans-serif" font-size="20" font-weight="bold" lengthAdjust="spacing" textLength="11.625" x="73" y="182.0999">2</text><text fill="#000000" font-family="sans-serif" font-size="20" lengthAdjust="spacing" textLength="546" x="88.625" y="182.0999">requests data (code, title, description, enrollment_limits)</text><polygon fill="#181818" points="629.625,227.1999,639.625,231.1999,629.625,235.1999,633.625,231.1999" style="stroke:#181818;stroke-width:1.0;"/><line style="stroke:#181818;stroke-width:1.0;" x1="56" x2="635.625" y1="231.1999" y2="231.1999"/><text fill="#000000" font-family="sans-serif" font-size="20" font-weight="bold" lengthAdjust="spacing" textLength="11.625" x="63" y="223.3399">3</text><text fill="#000000" font-family="sans-serif" font-size="20" lengthAdjust="spacing" textLength="180" x="78.625" y="223.3399">types request data</text><polygon fill="#181818" points="842.625,268.4398,852.625,272.4398,842.625,276.4398,846.625,272.4398" style="stroke:#181818;stroke-width:1.0;"/><line style="stroke:#181818;stroke-width:1.0;" x1="651.625" x2="848.625" y1="272.4398" y2="272.4398"/><text fill="#000000" font-family="sans-serif" font-size="20" font-weight="bold" lengthAdjust="spacing" textLength="11.625" x="658.625" y="264.5799">4</text><text fill="#000000" font-family="sans-serif" font-size="20" lengthAdjust="spacing" textLength="154" x="674.25" y="264.5799">listAllTeachers()</text><polygon fill="#181818" points="1394.375,309.6798,1404.375,313.6798,1394.375,317.6798,1398.375,313.6798" style="stroke:#181818;stroke-width:1.0;"/><line style="stroke:#181818;stroke-width:1.0;" x1="864.625" x2="1400.375" y1="313.6798" y2="313.6798"/><text fill="#000000" font-family="sans-serif" font-size="20" font-weight="bold" lengthAdjust="spacing" textLength="11.625" x="871.625" y="305.8198">5</text><text fill="#000000" font-family="sans-serif" font-size="20" lengthAdjust="spacing" textLength="230" x="887.25" y="305.8198">listAllIterableTeachers()</text><path d="M1322.375,328.6798 L1412.875,328.6798 L1412.875,347.9198 L1402.875,357.9198 L1322.375,357.9198 L1322.375,328.6798 " fill="#EEEEEE" style="stroke:#000000;stroke-width:1.5;"/><rect fill="none" height="153.9599" style="stroke:#000000;stroke-width:1.5;" width="484.125" x="1322.375" y="328.6798"/><text fill="#000000" font-family="sans-serif" font-size="20" font-weight="bold" lengthAdjust="spacing" textLength="45.5" x="1337.375" y="351.0598">loop</text><text fill="#000000" font-family="sans-serif" font-size="20" font-weight="bold" lengthAdjust="spacing" textLength="178" x="1427.875" y="352.0598">[for each teacher]</text><polygon fill="#181818" points="1585,399.3997,1595,403.3997,1585,407.3997,1589,403.3997" style="stroke:#181818;stroke-width:1.0;"/><line style="stroke:#181818;stroke-width:1.0;" x1="1416.375" x2="1591" y1="403.3997" y2="403.3997"/><text fill="#000000" font-family="sans-serif" font-size="20" font-weight="bold" lengthAdjust="spacing" textLength="11.625" x="1423.375" y="395.5398">6</text><text fill="#000000" font-family="sans-serif" font-size="20" lengthAdjust="spacing" textLength="146" x="1439" y="395.5398">toDTO(teacher)</text><polygon fill="#181818" points="1713,440.6397,1723,444.6397,1713,448.6397,1717,444.6397" style="stroke:#181818;stroke-width:1.0;"/><line style="stroke:#181818;stroke-width:1.0;" x1="1607" x2="1719" y1="444.6397" y2="444.6397"/><text fill="#000000" font-family="sans-serif" font-size="20" font-weight="bold" lengthAdjust="spacing" textLength="11.625" x="1614" y="436.7797">7</text><text fill="#000000" font-family="sans-serif" font-size="20" lengthAdjust="spacing" textLength="40" x="1629.625" y="436.7797">new</text><polygon fill="#181818" points="67,518.8797,57,522.8797,67,526.8797,63,522.8797" style="stroke:#181818;stroke-width:1.0;"/><line style="stroke:#181818;stroke-width:1.0;stroke-dasharray:2.0,2.0;" x1="61" x2="645.625" y1="522.8797" y2="522.8797"/><text fill="#000000" font-family="sans-serif" font-size="20" font-weight="bold" lengthAdjust="spacing" textLength="11.625" x="73" y="515.0197">8</text><text fill="#000000" font-family="sans-serif" font-size="20" lengthAdjust="spacing" textLength="323" x="88.625" y="515.0197">asks to select responsible teacher</text><polygon fill="#181818" points="629.625,560.1197,639.625,564.1197,629.625,568.1197,633.625,564.1197" style="stroke:#181818;stroke-width:1.0;"/><line style="stroke:#181818;stroke-width:1.0;" x1="56" x2="635.625" y1="564.1197" y2="564.1197"/><text fill="#000000" font-family="sans-serif" font-size="20" font-weight="bold" lengthAdjust="spacing" textLength="11.625" x="63" y="556.2597">9</text><text fill="#000000" font-family="sans-serif" font-size="20" lengthAdjust="spacing" textLength="179" x="78.625" y="556.2597">selects the teacher</text><polygon fill="#181818" points="842.625,601.3596,852.625,605.3596,842.625,609.3596,846.625,605.3596" style="stroke:#181818;stroke-width:1.0;"/><line style="stroke:#181818;stroke-width:1.0;" x1="651.625" x2="848.625" y1="605.3596" y2="605.3596"/><text fill="#000000" font-family="sans-serif" font-size="20" font-weight="bold" lengthAdjust="spacing" textLength="23.25" x="658.625" y="597.4997">10</text><text fill="#000000" font-family="sans-serif" font-size="20" lengthAdjust="spacing" textLength="138" x="685.875" y="597.4997">createCourse()</text><polygon fill="#181818" points="2068.5,642.5996,2078.5,646.5996,2068.5,650.5996,2072.5,646.5996" style="stroke:#181818;stroke-width:1.0;"/><line style="stroke:#181818;stroke-width:1.0;" x1="864.625" x2="2074.5" y1="646.5996" y2="646.5996"/><text fill="#000000" font-family="sans-serif" font-size="20" font-weight="bold" lengthAdjust="spacing" textLength="23.25" x="871.625" y="638.7396">11</text><text fill="#000000" font-family="sans-serif" font-size="20" lengthAdjust="spacing" textLength="244" x="898.875" y="638.7396">findByTaxPayerNumber()</text><polygon fill="#181818" points="1229.375,877.2794,1239.375,881.2794,1229.375,885.2794,1233.375,881.2794" style="stroke:#181818;stroke-width:1.0;"/><line style="stroke:#181818;stroke-width:1.0;" x1="864.625" x2="1235.375" y1="881.2794" y2="881.2794"/><text fill="#000000" font-family="sans-serif" font-size="20" font-weight="bold" lengthAdjust="spacing" textLength="23.25" x="871.625" y="791.6995">12</text><text fill="#000000" font-family="sans-serif" font-size="20" lengthAdjust="spacing" textLength="150" x="898.875" y="709.9796">CourseBuilder()</text><text fill="#000000" font-family="sans-serif" font-size="20" lengthAdjust="spacing" textLength="153" x="898.875" y="737.2196">.withCode(code)</text><text fill="#000000" font-family="sans-serif" font-size="20" lengthAdjust="spacing" textLength="143" x="898.875" y="764.4596">.withTitle(title)</text><text fill="#000000" font-family="sans-serif" font-size="20" lengthAdjust="spacing" textLength="281" x="898.875" y="791.6995">.withDescription(description)</text><text fill="#000000" font-family="sans-serif" font-size="20" lengthAdjust="spacing" textLength="311" x="898.875" y="818.9395">.withEnrolmentLimits(min, max)</text><text fill="#000000" font-family="sans-serif" font-size="20" lengthAdjust="spacing" textLength="258" x="898.875" y="846.1795">.withTeacher(teacher.get())</text><text fill="#000000" font-family="sans-serif" font-size="20" lengthAdjust="spacing" textLength="68" x="898.875" y="873.4195">.build()</text><polygon fill="#181818" points="1091.875,948.5194,1101.875,952.5194,1091.875,956.5194,1095.875,952.5194" style="stroke:#181818;stroke-width:1.0;"/><line style="stroke:#181818;stroke-width:1.0;" x1="864.625" x2="1097.875" y1="952.5194" y2="952.5194"/><text fill="#000000" font-family="sans-serif" font-size="20" font-weight="bold" lengthAdjust="spacing" textLength="23.25" x="871.625" y="944.6594">13</text><text fill="#000000" font-family="sans-serif" font-size="20" lengthAdjust="spacing" textLength="193" x="898.875" y="944.6594">containsOfIdentity()</text><polygon fill="#181818" points="67,1019.7594,57,1023.7594,67,1027.7594,63,1023.7594" style="stroke:#181818;stroke-width:1.0;"/><line style="stroke:#181818;stroke-width:1.0;stroke-dasharray:2.0,2.0;" x1="61" x2="645.625" y1="1023.7594" y2="1023.7594"/><text fill="#000000" font-family="sans-serif" font-size="20" font-weight="bold" lengthAdjust="spacing" textLength="23.25" x="73" y="1015.8994">14</text><text fill="#000000" font-family="sans-serif" font-size="20" lengthAdjust="spacing" textLength="391" x="100.25" y="1015.8994">shows all data and asks for confirmation</text><polygon fill="#181818" points="629.625,1060.9994,639.625,1064.9994,629.625,1068.9994,633.625,1064.9994" style="stroke:#181818;stroke-width:1.0;"/><line style="stroke:#181818;stroke-width:1.0;" x1="56" x2="635.625" y1="1064.9994" y2="1064.9994"/><text fill="#000000" font-family="sans-serif" font-size="20" font-weight="bold" lengthAdjust="spacing" textLength="23.25" x="63" y="1057.1394">15</text><text fill="#000000" font-family="sans-serif" font-size="20" lengthAdjust="spacing" textLength="171" x="90.25" y="1057.1394">confirms the data</text><polygon fill="#181818" points="842.625,1102.2393,852.625,1106.2393,842.625,1110.2393,846.625,1106.2393" style="stroke:#181818;stroke-width:1.0;"/><line style="stroke:#181818;stroke-width:1.0;" x1="651.625" x2="848.625" y1="1106.2393" y2="1106.2393"/><text fill="#000000" font-family="sans-serif" font-size="20" font-weight="bold" lengthAdjust="spacing" textLength="23.25" x="658.625" y="1098.3794">16</text><text fill="#000000" font-family="sans-serif" font-size="20" lengthAdjust="spacing" textLength="121" x="685.875" y="1098.3794">saveCourse()</text><polygon fill="#181818" points="1877.5,1143.4793,1887.5,1147.4793,1877.5,1151.4793,1881.5,1147.4793" style="stroke:#181818;stroke-width:1.0;"/><line style="stroke:#181818;stroke-width:1.0;" x1="864.625" x2="1883.5" y1="1147.4793" y2="1147.4793"/><text fill="#000000" font-family="sans-serif" font-size="20" font-weight="bold" lengthAdjust="spacing" textLength="23.25" x="871.625" y="1139.6193">17</text><text fill="#000000" font-family="sans-serif" font-size="20" lengthAdjust="spacing" textLength="121" x="898.875" y="1139.6193">saveCourse()</text><polygon fill="#181818" points="62,1214.7193,52,1218.7193,62,1222.7193,58,1218.7193" style="stroke:#181818;stroke-width:1.0;"/><line style="stroke:#181818;stroke-width:1.0;stroke-dasharray:2.0,2.0;" x1="56" x2="645.625" y1="1218.7193" y2="1218.7193"/><text fill="#000000" font-family="sans-serif" font-size="20" font-weight="bold" lengthAdjust="spacing" textLength="23.25" x="68" y="1210.8593">18</text><text fill="#000000" font-family="sans-serif" font-size="20" lengthAdjust="spacing" textLength="254" x="95.25" y="1210.8593">informs operation success</text><!--SRC=[XLJ1RkCW4Btp5QWdHsggrHwZAbAJPgL8pRPAdDjAAu8d3Ie6B-2ssQ_V6N1Ykwcx9mJptZ0pxu5_KQOIJfJQoXSeU05xKUlmmvgmKN-1V__6H1sigSiTECQ43DRngvKmuXdS5HUUhnZoWvAg4YRmgxa34M1kQ-TXkuo8xPBVtbOEF9WWWh9cEXtcpF5cPxLkii_pzGEoHLLf9JydHre28xAmfL03e5cjTD4adY5sb_OVmJa8UG2t0VUgPCgSRn3kqy40FE46AsXGz_bZ1E9Aq60HnmeHn4vuuAdCDLJMAnpqaP3hnHFrvSw7o3WJcgnzHhwuks2GSkeLfunwiHKVJqcL2Q9VF0-MowW05zp0MrD5ozWk6KFq64ahv3ZuKuCFdbCLF9EsW6iULD2u5E2bKnNfTCt1a90bglvRgr85Fs85zBAsXOHZ1VwKEcQ-l7-Qt33XMlbmftNJlCz6BPOGZ4KSub6sCtePm8cTXizO-OOnRMt5z-XkYlEGK8nJ3if4DLfKBMiY8morVC8HZ6ITq12xKJp4RQVrYuESWIauLS2w8wAoEjlKMqU9ateUDCY0q_ELDLvXa-Vw1mUUE4W_jE3XYSlE2_rYt6Iy2TyhKyoEkNX_4aTmF-FNqPismdfjqlwSP8OPUiyr6_qoDsyg7ERej6Ytqq5EfikYzKv7zwq1iuuPJ-45MP8S-H0DcPKAVLgAztF6D8cJo3VF4B8H1UDNqMrYrkrWrfPF0v3uX-4Nu1_tomBlKk7OcrbFqqk5lrBS7-oRvqBhzFW4kYQQW7oBj-wLA-CdEQnxWqh2V_REnjD6SozU_wju_9o6e1Ji5XBt5-tXZKrpoc0RM9cjyALI5zpNKeBt7xlfR5Vi7m00]--></g></svg>