<?xml version="1.0" encoding="UTF-8" standalone="no"?><svg xmlns="http://www.w3.org/2000/svg" xmlns:xlink="http://www.w3.org/1999/xlink" contentStyleType="text/css" height="634px" preserveAspectRatio="none" style="width:1445px;height:634px;background:#FFFFFF;" version="1.1" viewBox="0 0 1445 634" width="1445px" zoomAndPan="magnify"><defs/><g><!--cluster <<aggregate>> Course--><g id="cluster_&lt;&lt;aggregate&gt;&gt; Course"><path d="M125,8.36 L322.625,8.36 A3.75,3.75 0 0 1 325.125,10.86 L332.125,41.6 L1126,41.6 A2.5,2.5 0 0 1 1128.5,44.1 L1128.5,437.86 A2.5,2.5 0 0 1 1126,440.36 L125,440.36 A2.5,2.5 0 0 1 122.5,437.86 L122.5,10.86 A2.5,2.5 0 0 1 125,8.36 " fill="none" style="stroke:#000000;stroke-width:1.5;"/><line style="stroke:#000000;stroke-width:1.5;" x1="122.5" x2="332.125" y1="41.6" y2="41.6"/><text fill="#000000" font-family="sans-serif" font-size="20" font-weight="bold" lengthAdjust="spacing" textLength="196.625" x="126.5" y="31.74">«aggregate» Course</text></g><!--cluster <<aggregate>> Teacher--><g id="cluster_&lt;&lt;aggregate&gt;&gt; Teacher"><path d="M1127,473.36 L1333.25,473.36 A3.75,3.75 0 0 1 1335.75,475.86 L1342.75,506.6 L1343,506.6 A2.5,2.5 0 0 1 1345.5,509.1 L1345.5,624.86 A2.5,2.5 0 0 1 1343,627.36 L1127,627.36 A2.5,2.5 0 0 1 1124.5,624.86 L1124.5,475.86 A2.5,2.5 0 0 1 1127,473.36 " fill="none" style="stroke:#000000;stroke-width:1.5;"/><line style="stroke:#000000;stroke-width:1.5;" x1="1124.5" x2="1342.75" y1="506.6" y2="506.6"/><text fill="#000000" font-family="sans-serif" font-size="20" font-weight="bold" lengthAdjust="spacing" textLength="205.25" x="1128.5" y="496.74">«aggregate» Teacher</text></g><!--class Course--><g id="elem_Course"><rect codeLine="26" fill="#F5F5DC" height="154.1999" id="Course" rx="2.5" ry="2.5" style="stroke:#181818;stroke-width:0.5;" width="108" x="773.5" y="54.36"/><ellipse cx="793.1" cy="100.22" fill="#ADD1B2" rx="12" ry="12" style="stroke:#181818;stroke-width:1.0;"/><path d="M797.1469,107.72 L788.5375,107.72 L788.5375,92.8137 L797.1469,92.8137 L797.1469,95.0168 L790.9594,95.0168 L790.9594,98.8606 L796.7875,98.8606 L796.7875,101.0325 L790.9594,101.0325 L790.9594,105.5168 L797.1469,105.5168 L797.1469,107.72 Z " fill="#000000"/><text fill="#000000" font-family="sans-serif" font-size="20" font-style="italic" lengthAdjust="spacing" textLength="70" x="806.9" y="80.74">«entity»</text><text fill="#000000" font-family="sans-serif" font-size="20" font-style="italic" lengthAdjust="spacing" textLength="57" x="813.4" y="107.9799">«root»</text><text fill="#000000" font-family="sans-serif" font-size="20" lengthAdjust="spacing" textLength="66" x="808.9" y="135.2199">Course</text><line style="stroke:#181818;stroke-width:0.5;" x1="774.5" x2="880.5" y1="146.0799" y2="146.0799"/><text fill="#000000" font-family="sans-serif" font-size="20" lengthAdjust="spacing" textLength="51" x="779.5" y="171.4599">-code</text><text fill="#000000" font-family="sans-serif" font-size="20" lengthAdjust="spacing" textLength="96" x="779.5" y="198.6999">-createdAt</text></g><!--class Title--><g id="elem_Title"><rect codeLine="42" fill="#F5F5DC" height="64.4799" id="Title" rx="2.5" ry="2.5" style="stroke:#181818;stroke-width:0.5;" width="156" x="351.5" y="328.86"/><ellipse cx="367.5" cy="361.1" fill="#FF8B40" rx="12" ry="12" style="stroke:#181818;stroke-width:1.0;"/><path d="M373.75,354.9437 L368.4375,369.85 L366.1875,369.85 L360.875,354.9437 L363.4063,354.9437 L366.7031,364.3031 Q366.9219,364.8968 367.0781,365.4437 Q367.25,365.9906 367.375,366.4906 Q367.5156,366.975 367.3125,367.0218 Q367.0938,366.9906 367.2344,366.475 Q367.375,365.9593 367.5469,365.4281 Q367.7188,364.8812 367.9219,364.2718 L371.1875,354.9437 L373.75,354.9437 Z " fill="#000000"/><text fill="#000000" font-family="sans-serif" font-size="20" font-style="italic" lengthAdjust="spacing" textLength="126" x="380.5" y="355.24">«value object»</text><text fill="#000000" font-family="sans-serif" font-size="20" lengthAdjust="spacing" textLength="39" x="424" y="382.4799">Title</text></g><!--class EnrolmentState--><g id="elem_EnrolmentState"><rect codeLine="43" fill="#F5F5DC" height="64.4799" id="EnrolmentState" rx="2.5" ry="2.5" style="stroke:#181818;stroke-width:0.5;" width="178" x="138.5" y="328.86"/><ellipse cx="154.5" cy="361.1" fill="#FF8B40" rx="12" ry="12" style="stroke:#181818;stroke-width:1.0;"/><path d="M160.75,354.9437 L155.4375,369.85 L153.1875,369.85 L147.875,354.9437 L150.4063,354.9437 L153.7031,364.3031 Q153.9219,364.8968 154.0781,365.4437 Q154.25,365.9906 154.375,366.4906 Q154.5156,366.975 154.3125,367.0218 Q154.0938,366.9906 154.2344,366.475 Q154.375,365.9593 154.5469,365.4281 Q154.7188,364.8812 154.9219,364.2718 L158.1875,354.9437 L160.75,354.9437 Z " fill="#000000"/><text fill="#000000" font-family="sans-serif" font-size="20" font-style="italic" lengthAdjust="spacing" textLength="126" x="178.5" y="355.24">«value object»</text><text fill="#000000" font-family="sans-serif" font-size="20" lengthAdjust="spacing" textLength="144" x="169.5" y="382.4799">EnrolmentState</text></g><!--class CourseState--><g id="elem_CourseState"><rect codeLine="44" fill="#F5F5DC" height="64.4799" id="CourseState" rx="2.5" ry="2.5" style="stroke:#181818;stroke-width:0.5;" width="156" x="542.5" y="328.86"/><ellipse cx="558.5" cy="361.1" fill="#FF8B40" rx="12" ry="12" style="stroke:#181818;stroke-width:1.0;"/><path d="M564.75,354.9437 L559.4375,369.85 L557.1875,369.85 L551.875,354.9437 L554.4063,354.9437 L557.7031,364.3031 Q557.9219,364.8968 558.0781,365.4437 Q558.25,365.9906 558.375,366.4906 Q558.5156,366.975 558.3125,367.0218 Q558.0938,366.9906 558.2344,366.475 Q558.375,365.9593 558.5469,365.4281 Q558.7188,364.8812 558.9219,364.2718 L562.1875,354.9437 L564.75,354.9437 Z " fill="#000000"/><text fill="#000000" font-family="sans-serif" font-size="20" font-style="italic" lengthAdjust="spacing" textLength="126" x="571.5" y="355.24">«value object»</text><text fill="#000000" font-family="sans-serif" font-size="20" lengthAdjust="spacing" textLength="113" x="578" y="382.4799">CourseState</text></g><!--class EnrolmentLimits--><g id="elem_EnrolmentLimits"><rect codeLine="21" fill="#F5F5DC" height="126.9599" id="EnrolmentLimits" rx="2.5" ry="2.5" style="stroke:#181818;stroke-width:0.5;" width="187" x="734" y="297.36"/><ellipse cx="750" cy="329.6" fill="#FF8B40" rx="12" ry="12" style="stroke:#181818;stroke-width:1.0;"/><path d="M756.25,323.4437 L750.9375,338.35 L748.6875,338.35 L743.375,323.4437 L745.9063,323.4437 L749.2031,332.8031 Q749.4219,333.3968 749.5781,333.9437 Q749.75,334.4906 749.875,334.9906 Q750.0156,335.475 749.8125,335.5218 Q749.5938,335.4906 749.7344,334.975 Q749.875,334.4593 750.0469,333.9281 Q750.2188,333.3812 750.4219,332.7718 L753.6875,323.4437 L756.25,323.4437 Z " fill="#000000"/><text fill="#000000" font-family="sans-serif" font-size="20" font-style="italic" lengthAdjust="spacing" textLength="126" x="778.5" y="323.74">«value object»</text><text fill="#000000" font-family="sans-serif" font-size="20" lengthAdjust="spacing" textLength="153" x="765" y="350.9799">EnrolmentLimits</text><line style="stroke:#181818;stroke-width:0.5;" x1="735" x2="920" y1="361.8399" y2="361.8399"/><text fill="#000000" font-family="sans-serif" font-size="20" lengthAdjust="spacing" textLength="42" x="740" y="387.2199">-min</text><text fill="#000000" font-family="sans-serif" font-size="20" lengthAdjust="spacing" textLength="47" x="740" y="414.4599">-max</text></g><!--class Description--><g id="elem_Description"><rect codeLine="20" fill="#F5F5DC" height="64.4799" id="Description" rx="2.5" ry="2.5" style="stroke:#181818;stroke-width:0.5;" width="156" x="956.5" y="328.86"/><ellipse cx="972.5" cy="361.1" fill="#FF8B40" rx="12" ry="12" style="stroke:#181818;stroke-width:1.0;"/><path d="M978.75,354.9437 L973.4375,369.85 L971.1875,369.85 L965.875,354.9437 L968.4063,354.9437 L971.7031,364.3031 Q971.9219,364.8968 972.0781,365.4437 Q972.25,365.9906 972.375,366.4906 Q972.5156,366.975 972.3125,367.0218 Q972.0938,366.9906 972.2344,366.475 Q972.375,365.9593 972.5469,365.4281 Q972.7188,364.8812 972.9219,364.2718 L976.1875,354.9437 L978.75,354.9437 Z " fill="#000000"/><text fill="#000000" font-family="sans-serif" font-size="20" font-style="italic" lengthAdjust="spacing" textLength="126" x="985.5" y="355.24">«value object»</text><text fill="#000000" font-family="sans-serif" font-size="20" lengthAdjust="spacing" textLength="107" x="995" y="382.4799">Description</text></g><!--class Teacher--><g id="elem_Teacher"><rect codeLine="35" fill="#F5F5DC" height="91.7199" id="Teacher" rx="2.5" ry="2.5" style="stroke:#181818;stroke-width:0.5;" width="108" x="1181.5" y="519.36"/><ellipse cx="1197.5" cy="565.22" fill="#ADD1B2" rx="12" ry="12" style="stroke:#181818;stroke-width:1.0;"/><path d="M1201.5469,572.72 L1192.9375,572.72 L1192.9375,557.8137 L1201.5469,557.8137 L1201.5469,560.0168 L1195.3594,560.0168 L1195.3594,563.8606 L1201.1875,563.8606 L1201.1875,566.0325 L1195.3594,566.0325 L1195.3594,570.5168 L1201.5469,570.5168 L1201.5469,572.72 Z " fill="#000000"/><text fill="#000000" font-family="sans-serif" font-size="20" font-style="italic" lengthAdjust="spacing" textLength="70" x="1214.5" y="545.74">«entity»</text><text fill="#000000" font-family="sans-serif" font-size="20" font-style="italic" lengthAdjust="spacing" textLength="57" x="1221" y="572.9799">«root»</text><text fill="#000000" font-family="sans-serif" font-size="20" lengthAdjust="spacing" textLength="74" x="1212.5" y="600.2199">Teacher</text></g><g id="elem_GMN11"><path d="M6,328.86 L6,393.3399 A0,0 0 0 0 6,393.3399 L103,393.3399 A0,0 0 0 0 103,393.3399 L103,364.86 L138.37,360.86 L103,356.86 L103,338.86 L93,328.86 L6,328.86 A0,0 0 0 0 6,328.86 " fill="#FEFFDD" style="stroke:#181818;stroke-width:0.5;"/><path d="M93,328.86 L93,338.86 L103,338.86 L93,328.86 " fill="#FEFFDD" style="stroke:#181818;stroke-width:0.5;"/><text fill="#000000" font-family="sans-serif" font-size="20" lengthAdjust="spacing" textLength="54" x="12" y="355.24">OPEN</text><text fill="#000000" font-family="sans-serif" font-size="20" lengthAdjust="spacing" textLength="76" x="12" y="382.4799">CLOSED</text></g><g id="elem_GMN14"><path d="M572,533.36 L572,597.8399 A0,0 0 0 0 572,597.8399 L669,597.8399 A0,0 0 0 0 669,597.8399 L669,543.36 L659,533.36 L624.5,533.36 L620.5,393.06 L616.5,533.36 L572,533.36 A0,0 0 0 0 572,533.36 " fill="#FEFFDD" style="stroke:#181818;stroke-width:0.5;"/><path d="M659,533.36 L659,543.36 L669,543.36 L659,533.36 " fill="#FEFFDD" style="stroke:#181818;stroke-width:0.5;"/><text fill="#000000" font-family="sans-serif" font-size="20" lengthAdjust="spacing" textLength="54" x="578" y="559.74">OPEN</text><text fill="#000000" font-family="sans-serif" font-size="20" lengthAdjust="spacing" textLength="76" x="578" y="586.9799">CLOSED</text></g><!--link Course to Title--><g id="link_Course_Title"><path codeLine="46" d="M773.1,159.96 C711.9,191.49 610.01,245.46 525.5,297.36 C511.16,306.17 495.81,315.98 481.69,325.17 " fill="none" id="Course-to-Title" style="stroke:#222222;stroke-width:1.0;"/><polygon fill="#222222" points="477.82,327.7,487.5439,326.1361,482.0086,324.9695,483.1751,319.4343,477.82,327.7" style="stroke:#222222;stroke-width:1.0;"/><text fill="#000000" font-family="sans-serif" font-size="20" lengthAdjust="spacing" textLength="67" x="624.5" y="260.74">is titled</text><text fill="#000000" font-family="sans-serif" font-size="20" lengthAdjust="spacing" textLength="11" x="472.6914" y="315.0006">1</text></g><!--link Course to EnrolmentState--><g id="link_Course_EnrolmentState"><path codeLine="47" d="M773.23,146.56 C680.93,171.59 488.41,227.55 334.5,297.36 C316.9,305.34 298.47,315.42 281.97,325.14 " fill="none" id="Course-to-EnrolmentState" style="stroke:#222222;stroke-width:1.0;"/><polygon fill="#222222" points="277.75,327.65,287.53,326.4878,282.0475,325.0943,283.441,319.6118,277.75,327.65" style="stroke:#222222;stroke-width:1.0;"/><text fill="#000000" font-family="sans-serif" font-size="20" lengthAdjust="spacing" textLength="37" x="480.5" y="260.74">is in</text><text fill="#000000" font-family="sans-serif" font-size="20" lengthAdjust="spacing" textLength="11" x="272.918" y="314.8834">1</text></g><!--link Course to Teacher--><g id="link_Course_Teacher"><path codeLine="48" d="M881.93,149.05 C948.97,172.2 1062.3,220.14 1130.5,297.36 C1185.69,359.86 1213.6,454.79 1226.31,513.01 " fill="none" id="Course-to-Teacher" style="stroke:#222222;stroke-width:1.0;"/><polygon fill="#222222" points="1227.32,517.75,1229.3589,508.1145,1226.2792,512.8595,1221.5341,509.7798,1227.32,517.75" style="stroke:#222222;stroke-width:1.0;"/><text fill="#000000" font-family="sans-serif" font-size="20" lengthAdjust="spacing" textLength="33" x="1209.5" y="368.74">has</text><text fill="#000000" font-family="sans-serif" font-size="20" lengthAdjust="spacing" textLength="32" x="1192.4338" y="505.6321">1..*</text></g><!--link Course to Teacher--><g id="link_Course_Teacher"><path codeLine="49" d="M881.65,134.94 C975.5,142.69 1166.18,173.68 1248.5,297.36 C1291.3,361.66 1272.95,455.21 1254.88,512.8 " fill="none" id="Course-to-Teacher-1" style="stroke:#222222;stroke-width:1.0;"/><polygon fill="#222222" points="1253.37,517.5,1259.9315,510.1551,1254.8996,512.7397,1252.315,507.7078,1253.37,517.5" style="stroke:#222222;stroke-width:1.0;"/><text fill="#000000" font-family="sans-serif" font-size="20" lengthAdjust="spacing" textLength="162" x="1275.5" y="368.74">has a responsible</text><text fill="#000000" font-family="sans-serif" font-size="20" lengthAdjust="spacing" textLength="11" x="1243.4247" y="505.676">1</text></g><!--link Course to CourseState--><g id="link_Course_CourseState"><path codeLine="50" d="M773.11,192.13 C735.05,233.96 685.46,288.47 653.3,323.81 " fill="none" id="Course-to-CourseState" style="stroke:#222222;stroke-width:1.0;"/><polygon fill="#222222" points="650.1,327.33,659.11,323.3526,653.4598,323.6271,653.1853,317.9769,650.1,327.33" style="stroke:#222222;stroke-width:1.0;"/><text fill="#000000" font-family="sans-serif" font-size="20" lengthAdjust="spacing" textLength="37" x="730.5" y="260.74">is in</text><text fill="#000000" font-family="sans-serif" font-size="20" lengthAdjust="spacing" textLength="11" x="642.0469" y="314.9186">1</text></g><!--link Course to Description--><g id="link_Course_Description"><path codeLine="51" d="M881.89,192.13 C919.95,233.96 969.54,288.47 1001.7,323.81 " fill="none" id="Course-to-Description" style="stroke:#222222;stroke-width:1.0;"/><polygon fill="#222222" points="1004.9,327.33,1001.8147,317.9769,1001.5402,323.6271,995.89,323.3526,1004.9,327.33" style="stroke:#222222;stroke-width:1.0;"/><text fill="#000000" font-family="sans-serif" font-size="20" lengthAdjust="spacing" textLength="33" x="950.5" y="260.74">has</text><text fill="#000000" font-family="sans-serif" font-size="20" lengthAdjust="spacing" textLength="11" x="989.0625" y="314.9186">1</text></g><!--link Course to EnrolmentLimits--><g id="link_Course_EnrolmentLimits"><path codeLine="52" d="M827.5,208.75 C827.5,235.16 827.5,264.61 827.5,290.44 " fill="none" id="Course-to-EnrolmentLimits" style="stroke:#222222;stroke-width:1.0;"/><polygon fill="#222222" points="827.5,295.41,831.5,286.41,827.5,290.41,823.5,286.41,827.5,295.41" style="stroke:#222222;stroke-width:1.0;"/><text fill="#000000" font-family="sans-serif" font-size="20" lengthAdjust="spacing" textLength="33" x="828.5" y="260.74">has</text><text fill="#000000" font-family="sans-serif" font-size="20" lengthAdjust="spacing" textLength="11" x="815.9328" y="283.3284">1</text></g><!--SRC=[bLBBRjim4BppAnRAeMrGFnhaK1Y20SUnWG91Ky11JxrGr5fYJN45SjLNa7ylBJggB2T8gel8sPcTvP1-fsqjdQmCgHtcaEDMDeRNP7cZ_o1SJCMRahdsiycaDj9oKvcnecgYZFH-b6jP1B4G_h4Fj8K5izDPm_X9aMqRJKMfSmIiQluDyh7i-sY5N5BkXxskfDeLZXgRBycGWmnrWJtImZdw6Kjd5-qdH1qqia18qbGMXSD2CixdiAJ6UKpWNW2WPHrC8oG2q9h1dMQ3tMvb7PagK3SSEdHm54Nib7kZAys-mw_HAwThrcJ5Wn0d8AJfsw_lpzRhZrUNqtVmGve6WRBlg3YCVFyWdcp_WYguZw3IDlxbhxtpqOc3Fku3EqqTqJ-PeXpZmc4uORxWlVgPIEzGgXBTKQO7hETvG9un3JnXYH4CRXbeEuWTPd3xPVNvcrtUt6vMrv6Q4JDLUtBlCePCqRlJ_uqvDdoTg3_2Imfno7yqcaFo8JaCDmFjWVVBV4Wu2ICmmyLsh9Os7fydNSepAAK_yUaNGO93NvFrEWlFVK0zJdHW5odzz_katV2vHfBu2m00]--></g></svg>