<?xml version="1.0" encoding="UTF-8" standalone="no"?><svg xmlns="http://www.w3.org/2000/svg" xmlns:xlink="http://www.w3.org/1999/xlink" contentStyleType="text/css" height="1234px" preserveAspectRatio="none" style="width:2271px;height:1234px;background:#FFFFFF;" version="1.1" viewBox="0 0 2271 1234" width="2271px" zoomAndPan="magnify"><defs/><g><rect fill="#FFFFFF" height="1000.3125" style="stroke:#181818;stroke-width:1.0;" width="10" x="46.5" y="107.5625"/><rect fill="#FFFFFF" height="37.2813" style="stroke:#181818;stroke-width:1.0;" width="10" x="669.5" y="136.8438"/><rect fill="#FFFFFF" height="263.9688" style="stroke:#181818;stroke-width:1.0;" width="10" x="669.5" y="211.4063"/><rect fill="#FFFFFF" height="416.0938" style="stroke:#181818;stroke-width:1.0;" width="10" x="669.5" y="512.6563"/><rect fill="#FFFFFF" height="141.8438" style="stroke:#181818;stroke-width:1.0;" width="10" x="669.5" y="966.0313"/><rect fill="#FFFFFF" height="197.4063" style="stroke:#181818;stroke-width:1.0;" width="10" x="888.5" y="248.6875"/><rect fill="#FFFFFF" height="341.5313" style="stroke:#181818;stroke-width:1.0;" width="10" x="888.5" y="549.9375"/><rect fill="#FFFFFF" height="67.2813" style="stroke:#181818;stroke-width:1.0;" width="10" x="888.5" y="1003.3125"/><rect fill="#FFFFFF" height="30" style="stroke:#181818;stroke-width:1.0;" width="10" x="1150.5" y="861.4688"/><rect fill="#FFFFFF" height="30" style="stroke:#181818;stroke-width:1.0;" width="10" x="1295" y="794.1875"/><rect fill="#FFFFFF" height="160.125" style="stroke:#181818;stroke-width:1.0;" width="10" x="1466" y="285.9688"/><rect fill="#FFFFFF" height="67.2813" style="stroke:#181818;stroke-width:1.0;" width="10" x="1668" y="363.8125"/><rect fill="#FFFFFF" height="30" style="stroke:#181818;stroke-width:1.0;" width="10" x="1803.5" y="401.0938"/><rect fill="#FFFFFF" height="30" style="stroke:#181818;stroke-width:1.0;" width="10" x="1972.5" y="1040.5938"/><rect fill="#FFFFFF" height="30" style="stroke:#181818;stroke-width:1.0;" width="10" x="2169" y="587.2188"/><rect fill="none" height="138.125" style="stroke:#000000;stroke-width:1.5;" width="509.5" x="1377.5" y="300.9688"/><line style="stroke:#181818;stroke-width:0.5;stroke-dasharray:5.0,5.0;" x1="51" x2="51" y1="97.5625" y2="1125.875"/><line style="stroke:#181818;stroke-width:0.5;stroke-dasharray:5.0,5.0;" x1="674.5" x2="674.5" y1="97.5625" y2="1125.875"/><line style="stroke:#181818;stroke-width:0.5;stroke-dasharray:5.0,5.0;" x1="893.5" x2="893.5" y1="97.5625" y2="1125.875"/><line style="stroke:#181818;stroke-width:0.5;stroke-dasharray:5.0,5.0;" x1="1155.5" x2="1155.5" y1="97.5625" y2="1125.875"/><line style="stroke:#181818;stroke-width:0.5;stroke-dasharray:5.0,5.0;" x1="1299.5" x2="1299.5" y1="97.5625" y2="1125.875"/><line style="stroke:#181818;stroke-width:0.5;stroke-dasharray:5.0,5.0;" x1="1470.5" x2="1470.5" y1="97.5625" y2="1125.875"/><line style="stroke:#181818;stroke-width:0.5;stroke-dasharray:5.0,5.0;" x1="1673" x2="1673" y1="97.5625" y2="1125.875"/><line style="stroke:#181818;stroke-width:0.5;stroke-dasharray:5.0,5.0;" x1="1808" x2="1808" y1="97.5625" y2="1125.875"/><line style="stroke:#181818;stroke-width:0.5;stroke-dasharray:5.0,5.0;" x1="1977" x2="1977" y1="97.5625" y2="1125.875"/><line style="stroke:#181818;stroke-width:0.5;stroke-dasharray:5.0,5.0;" x1="2174" x2="2174" y1="97.5625" y2="1125.875"/><text fill="#000000" font-family="sans-serif" font-size="20" lengthAdjust="spacing" textLength="87" x="5" y="92.8457">Manager</text><ellipse cx="51.5" cy="22.7813" fill="#E2E2F0" rx="8" ry="8" style="stroke:#181818;stroke-width:0.5;"/><path d="M51.5,30.7813 L51.5,57.7813 M38.5,38.7813 L64.5,38.7813 M51.5,57.7813 L38.5,72.7813 M51.5,57.7813 L64.5,72.7813 " fill="none" style="stroke:#181818;stroke-width:0.5;"/><text fill="#000000" font-family="sans-serif" font-size="20" lengthAdjust="spacing" textLength="87" x="5" y="1143.4395">Manager</text><ellipse cx="51.5" cy="1156.6563" fill="#E2E2F0" rx="8" ry="8" style="stroke:#181818;stroke-width:0.5;"/><path d="M51.5,1164.6563 L51.5,1191.6563 M38.5,1172.6563 L64.5,1172.6563 M51.5,1191.6563 L38.5,1206.6563 M51.5,1191.6563 L64.5,1206.6563 " fill="none" style="stroke:#181818;stroke-width:0.5;"/><rect fill="#E2E2F0" height="60.5625" rx="2.5" ry="2.5" style="stroke:#181818;stroke-width:0.5;" width="170" x="589.5" y="36"/><text fill="#000000" font-family="sans-serif" font-size="20" font-style="italic" lengthAdjust="spacing" textLength="151" x="599" y="61.5645">«presentation»</text><text fill="#000000" font-family="sans-serif" font-size="20" lengthAdjust="spacing" textLength="156" x="596.5" y="84.8457">CreateCourseUI</text><rect fill="#E2E2F0" height="60.5625" rx="2.5" ry="2.5" style="stroke:#181818;stroke-width:0.5;" width="170" x="589.5" y="1124.875"/><text fill="#000000" font-family="sans-serif" font-size="20" font-style="italic" lengthAdjust="spacing" textLength="151" x="599" y="1150.4395">«presentation»</text><text fill="#000000" font-family="sans-serif" font-size="20" lengthAdjust="spacing" textLength="156" x="596.5" y="1173.7207">CreateCourseUI</text><rect fill="#E2E2F0" height="60.5625" rx="2.5" ry="2.5" style="stroke:#181818;stroke-width:0.5;" width="248" x="769.5" y="36"/><text fill="#000000" font-family="sans-serif" font-size="20" font-style="italic" lengthAdjust="spacing" textLength="136" x="825.5" y="61.5645">«application»</text><text fill="#000000" font-family="sans-serif" font-size="20" lengthAdjust="spacing" textLength="234" x="776.5" y="84.8457">CreateCourseController</text><rect fill="#E2E2F0" height="60.5625" rx="2.5" ry="2.5" style="stroke:#181818;stroke-width:0.5;" width="248" x="769.5" y="1124.875"/><text fill="#000000" font-family="sans-serif" font-size="20" font-style="italic" lengthAdjust="spacing" textLength="136" x="825.5" y="1150.4395">«application»</text><text fill="#000000" font-family="sans-serif" font-size="20" lengthAdjust="spacing" textLength="234" x="776.5" y="1173.7207">CreateCourseController</text><rect fill="#E2E2F0" height="60.5625" rx="2.5" ry="2.5" style="stroke:#181818;stroke-width:0.5;" width="114" x="1098.5" y="36"/><text fill="#000000" font-family="sans-serif" font-size="20" font-style="italic" lengthAdjust="spacing" textLength="100" x="1105.5" y="61.5645">«domain»</text><text fill="#000000" font-family="sans-serif" font-size="20" lengthAdjust="spacing" textLength="69" x="1121" y="84.8457">Course</text><rect fill="#E2E2F0" height="60.5625" rx="2.5" ry="2.5" style="stroke:#181818;stroke-width:0.5;" width="114" x="1098.5" y="1124.875"/><text fill="#000000" font-family="sans-serif" font-size="20" font-style="italic" lengthAdjust="spacing" textLength="100" x="1105.5" y="1150.4395">«domain»</text><text fill="#000000" font-family="sans-serif" font-size="20" lengthAdjust="spacing" textLength="69" x="1121" y="1173.7207">Course</text><rect fill="#E2E2F0" height="60.5625" rx="2.5" ry="2.5" style="stroke:#181818;stroke-width:0.5;" width="155" x="1222.5" y="36"/><text fill="#000000" font-family="sans-serif" font-size="20" font-style="italic" lengthAdjust="spacing" textLength="95" x="1252.5" y="61.5645">«builder»</text><text fill="#000000" font-family="sans-serif" font-size="20" lengthAdjust="spacing" textLength="141" x="1229.5" y="84.8457">CourseBuilder</text><rect fill="#E2E2F0" height="60.5625" rx="2.5" ry="2.5" style="stroke:#181818;stroke-width:0.5;" width="155" x="1222.5" y="1124.875"/><text fill="#000000" font-family="sans-serif" font-size="20" font-style="italic" lengthAdjust="spacing" textLength="95" x="1252.5" y="1150.4395">«builder»</text><text fill="#000000" font-family="sans-serif" font-size="20" lengthAdjust="spacing" textLength="141" x="1229.5" y="1173.7207">CourseBuilder</text><rect fill="#E2E2F0" height="60.5625" rx="2.5" ry="2.5" style="stroke:#181818;stroke-width:0.5;" width="167" x="1387.5" y="36"/><text fill="#000000" font-family="sans-serif" font-size="20" font-style="italic" lengthAdjust="spacing" textLength="95" x="1423.5" y="61.5645">«service»</text><text fill="#000000" font-family="sans-serif" font-size="20" lengthAdjust="spacing" textLength="153" x="1394.5" y="84.8457">TeacherService</text><rect fill="#E2E2F0" height="60.5625" rx="2.5" ry="2.5" style="stroke:#181818;stroke-width:0.5;" width="167" x="1387.5" y="1124.875"/><text fill="#000000" font-family="sans-serif" font-size="20" font-style="italic" lengthAdjust="spacing" textLength="95" x="1423.5" y="1150.4395">«service»</text><text fill="#000000" font-family="sans-serif" font-size="20" lengthAdjust="spacing" textLength="153" x="1394.5" y="1173.7207">TeacherService</text><rect fill="#E2E2F0" height="60.5625" rx="2.5" ry="2.5" style="stroke:#181818;stroke-width:0.5;" width="114" x="1616" y="36"/><text fill="#000000" font-family="sans-serif" font-size="20" font-style="italic" lengthAdjust="spacing" textLength="100" x="1623" y="61.5645">«domain»</text><text fill="#000000" font-family="sans-serif" font-size="20" lengthAdjust="spacing" textLength="80" x="1633" y="84.8457">Teacher</text><rect fill="#E2E2F0" height="60.5625" rx="2.5" ry="2.5" style="stroke:#181818;stroke-width:0.5;" width="114" x="1616" y="1124.875"/><text fill="#000000" font-family="sans-serif" font-size="20" font-style="italic" lengthAdjust="spacing" textLength="100" x="1623" y="1150.4395">«domain»</text><text fill="#000000" font-family="sans-serif" font-size="20" lengthAdjust="spacing" textLength="80" x="1633" y="1173.7207">Teacher</text><rect fill="#E2E2F0" height="60.5625" rx="2.5" ry="2.5" style="stroke:#181818;stroke-width:0.5;" width="137" x="1740" y="36"/><text fill="#000000" font-family="sans-serif" font-size="20" font-style="italic" lengthAdjust="spacing" textLength="57" x="1780" y="61.5645">«dto»</text><text fill="#000000" font-family="sans-serif" font-size="20" lengthAdjust="spacing" textLength="123" x="1747" y="84.8457">TeacherDTO</text><rect fill="#E2E2F0" height="60.5625" rx="2.5" ry="2.5" style="stroke:#181818;stroke-width:0.5;" width="137" x="1740" y="1124.875"/><text fill="#000000" font-family="sans-serif" font-size="20" font-style="italic" lengthAdjust="spacing" textLength="57" x="1780" y="1150.4395">«dto»</text><text fill="#000000" font-family="sans-serif" font-size="20" lengthAdjust="spacing" textLength="123" x="1747" y="1173.7207">TeacherDTO</text><text fill="#000000" font-family="sans-serif" font-size="20" font-style="italic" lengthAdjust="spacing" textLength="125" x="1912" y="69.5645">«repository»</text><text fill="#000000" font-family="sans-serif" font-size="20" lengthAdjust="spacing" textLength="175" x="1887" y="92.8457">CourseRepository</text><path d="M1959.5,15 C1959.5,5 1977.5,5 1977.5,5 C1977.5,5 1995.5,5 1995.5,15 L1995.5,41 C1995.5,51 1977.5,51 1977.5,51 C1977.5,51 1959.5,51 1959.5,41 L1959.5,15 " fill="#E2E2F0" style="stroke:#181818;stroke-width:1.5;"/><path d="M1959.5,15 C1959.5,25 1977.5,25 1977.5,25 C1977.5,25 1995.5,25 1995.5,15 " fill="none" style="stroke:#181818;stroke-width:1.5;"/><text fill="#000000" font-family="sans-serif" font-size="20" font-style="italic" lengthAdjust="spacing" textLength="125" x="1912" y="1143.4395">«repository»</text><text fill="#000000" font-family="sans-serif" font-size="20" lengthAdjust="spacing" textLength="175" x="1887" y="1166.7207">CourseRepository</text><path d="M1959.5,1181.4375 C1959.5,1171.4375 1977.5,1171.4375 1977.5,1171.4375 C1977.5,1171.4375 1995.5,1171.4375 1995.5,1181.4375 L1995.5,1207.4375 C1995.5,1217.4375 1977.5,1217.4375 1977.5,1217.4375 C1977.5,1217.4375 1959.5,1217.4375 1959.5,1207.4375 L1959.5,1181.4375 " fill="#E2E2F0" style="stroke:#181818;stroke-width:1.5;"/><path d="M1959.5,1181.4375 C1959.5,1191.4375 1977.5,1191.4375 1977.5,1191.4375 C1977.5,1191.4375 1995.5,1191.4375 1995.5,1181.4375 " fill="none" style="stroke:#181818;stroke-width:1.5;"/><text fill="#000000" font-family="sans-serif" font-size="20" font-style="italic" lengthAdjust="spacing" textLength="125" x="2108.5" y="69.5645">«repository»</text><text fill="#000000" font-family="sans-serif" font-size="20" lengthAdjust="spacing" textLength="186" x="2078" y="92.8457">TeacherRepository</text><path d="M2156,15 C2156,5 2174,5 2174,5 C2174,5 2192,5 2192,15 L2192,41 C2192,51 2174,51 2174,51 C2174,51 2156,51 2156,41 L2156,15 " fill="#E2E2F0" style="stroke:#181818;stroke-width:1.5;"/><path d="M2156,15 C2156,25 2174,25 2174,25 C2174,25 2192,25 2192,15 " fill="none" style="stroke:#181818;stroke-width:1.5;"/><text fill="#000000" font-family="sans-serif" font-size="20" font-style="italic" lengthAdjust="spacing" textLength="125" x="2108.5" y="1143.4395">«repository»</text><text fill="#000000" font-family="sans-serif" font-size="20" lengthAdjust="spacing" textLength="186" x="2078" y="1166.7207">TeacherRepository</text><path d="M2156,1181.4375 C2156,1171.4375 2174,1171.4375 2174,1171.4375 C2174,1171.4375 2192,1171.4375 2192,1181.4375 L2192,1207.4375 C2192,1217.4375 2174,1217.4375 2174,1217.4375 C2174,1217.4375 2156,1217.4375 2156,1207.4375 L2156,1181.4375 " fill="#E2E2F0" style="stroke:#181818;stroke-width:1.5;"/><path d="M2156,1181.4375 C2156,1191.4375 2174,1191.4375 2174,1191.4375 C2174,1191.4375 2192,1191.4375 2192,1181.4375 " fill="none" style="stroke:#181818;stroke-width:1.5;"/><rect fill="#FFFFFF" height="1000.3125" style="stroke:#181818;stroke-width:1.0;" width="10" x="46.5" y="107.5625"/><rect fill="#FFFFFF" height="37.2813" style="stroke:#181818;stroke-width:1.0;" width="10" x="669.5" y="136.8438"/><rect fill="#FFFFFF" height="263.9688" style="stroke:#181818;stroke-width:1.0;" width="10" x="669.5" y="211.4063"/><rect fill="#FFFFFF" height="416.0938" style="stroke:#181818;stroke-width:1.0;" width="10" x="669.5" y="512.6563"/><rect fill="#FFFFFF" height="141.8438" style="stroke:#181818;stroke-width:1.0;" width="10" x="669.5" y="966.0313"/><rect fill="#FFFFFF" height="197.4063" style="stroke:#181818;stroke-width:1.0;" width="10" x="888.5" y="248.6875"/><rect fill="#FFFFFF" height="341.5313" style="stroke:#181818;stroke-width:1.0;" width="10" x="888.5" y="549.9375"/><rect fill="#FFFFFF" height="67.2813" style="stroke:#181818;stroke-width:1.0;" width="10" x="888.5" y="1003.3125"/><rect fill="#FFFFFF" height="30" style="stroke:#181818;stroke-width:1.0;" width="10" x="1150.5" y="861.4688"/><rect fill="#FFFFFF" height="30" style="stroke:#181818;stroke-width:1.0;" width="10" x="1295" y="794.1875"/><rect fill="#FFFFFF" height="160.125" style="stroke:#181818;stroke-width:1.0;" width="10" x="1466" y="285.9688"/><rect fill="#FFFFFF" height="67.2813" style="stroke:#181818;stroke-width:1.0;" width="10" x="1668" y="363.8125"/><rect fill="#FFFFFF" height="30" style="stroke:#181818;stroke-width:1.0;" width="10" x="1803.5" y="401.0938"/><rect fill="#FFFFFF" height="30" style="stroke:#181818;stroke-width:1.0;" width="10" x="1972.5" y="1040.5938"/><rect fill="#FFFFFF" height="30" style="stroke:#181818;stroke-width:1.0;" width="10" x="2169" y="587.2188"/><polygon fill="#181818" points="657.5,132.8438,667.5,136.8438,657.5,140.8438,661.5,136.8438" style="stroke:#181818;stroke-width:1.0;"/><line style="stroke:#181818;stroke-width:1.0;" x1="56.5" x2="663.5" y1="136.8438" y2="136.8438"/><text fill="#000000" font-family="sans-serif" font-size="20" font-weight="bold" lengthAdjust="spacing" textLength="14" x="63.5" y="130.127">1</text><text fill="#000000" font-family="sans-serif" font-size="20" lengthAdjust="spacing" textLength="280" x="81.5" y="130.127">asks to create a new Course</text><polygon fill="#181818" points="67.5,170.125,57.5,174.125,67.5,178.125,63.5,174.125" style="stroke:#181818;stroke-width:1.0;"/><line style="stroke:#181818;stroke-width:1.0;stroke-dasharray:2.0,2.0;" x1="61.5" x2="673.5" y1="174.125" y2="174.125"/><text fill="#000000" font-family="sans-serif" font-size="20" font-weight="bold" lengthAdjust="spacing" textLength="14" x="73.5" y="167.4082">2</text><text fill="#000000" font-family="sans-serif" font-size="20" lengthAdjust="spacing" textLength="571" x="91.5" y="167.4082">requests data (code, title, description, enrollment_limits)</text><polygon fill="#181818" points="657.5,207.4063,667.5,211.4063,657.5,215.4063,661.5,211.4063" style="stroke:#181818;stroke-width:1.0;"/><line style="stroke:#181818;stroke-width:1.0;" x1="56.5" x2="663.5" y1="211.4063" y2="211.4063"/><text fill="#000000" font-family="sans-serif" font-size="20" font-weight="bold" lengthAdjust="spacing" textLength="14" x="63.5" y="204.6895">3</text><text fill="#000000" font-family="sans-serif" font-size="20" lengthAdjust="spacing" textLength="187" x="81.5" y="204.6895">types request data</text><polygon fill="#181818" points="876.5,244.6875,886.5,248.6875,876.5,252.6875,880.5,248.6875" style="stroke:#181818;stroke-width:1.0;"/><line style="stroke:#181818;stroke-width:1.0;" x1="679.5" x2="882.5" y1="248.6875" y2="248.6875"/><text fill="#000000" font-family="sans-serif" font-size="20" font-weight="bold" lengthAdjust="spacing" textLength="14" x="686.5" y="241.9707">4</text><text fill="#000000" font-family="sans-serif" font-size="20" lengthAdjust="spacing" textLength="162" x="704.5" y="241.9707">listAllTeachers()</text><polygon fill="#181818" points="1454,281.9688,1464,285.9688,1454,289.9688,1458,285.9688" style="stroke:#181818;stroke-width:1.0;"/><line style="stroke:#181818;stroke-width:1.0;" x1="898.5" x2="1460" y1="285.9688" y2="285.9688"/><text fill="#000000" font-family="sans-serif" font-size="20" font-weight="bold" lengthAdjust="spacing" textLength="14" x="905.5" y="279.252">5</text><text fill="#000000" font-family="sans-serif" font-size="20" lengthAdjust="spacing" textLength="239" x="923.5" y="279.252">listAllIterableTeachers()</text><path d="M1377.5,300.9688 L1471.5,300.9688 L1471.5,316.25 L1461.5,326.25 L1377.5,326.25 L1377.5,300.9688 " fill="#EEEEEE" style="stroke:#000000;stroke-width:1.5;"/><rect fill="none" height="138.125" style="stroke:#000000;stroke-width:1.5;" width="509.5" x="1377.5" y="300.9688"/><text fill="#000000" font-family="sans-serif" font-size="20" font-weight="bold" lengthAdjust="spacing" textLength="49" x="1392.5" y="320.5332">loop</text><text fill="#000000" font-family="sans-serif" font-size="20" font-weight="bold" lengthAdjust="spacing" textLength="207" x="1486.5" y="321.5332">[for each teacher]</text><polygon fill="#181818" points="1656,359.8125,1666,363.8125,1656,367.8125,1660,363.8125" style="stroke:#181818;stroke-width:1.0;"/><line style="stroke:#181818;stroke-width:1.0;" x1="1476" x2="1662" y1="363.8125" y2="363.8125"/><text fill="#000000" font-family="sans-serif" font-size="20" font-weight="bold" lengthAdjust="spacing" textLength="14" x="1483" y="357.0957">6</text><text fill="#000000" font-family="sans-serif" font-size="20" lengthAdjust="spacing" textLength="155" x="1501" y="357.0957">toDTO(teacher)</text><polygon fill="#181818" points="1791.5,397.0938,1801.5,401.0938,1791.5,405.0938,1795.5,401.0938" style="stroke:#181818;stroke-width:1.0;"/><line style="stroke:#181818;stroke-width:1.0;" x1="1678" x2="1797.5" y1="401.0938" y2="401.0938"/><text fill="#000000" font-family="sans-serif" font-size="20" font-weight="bold" lengthAdjust="spacing" textLength="14" x="1685" y="394.377">7</text><text fill="#000000" font-family="sans-serif" font-size="20" lengthAdjust="spacing" textLength="42" x="1703" y="394.377">new</text><polygon fill="#181818" points="67.5,471.375,57.5,475.375,67.5,479.375,63.5,475.375" style="stroke:#181818;stroke-width:1.0;"/><line style="stroke:#181818;stroke-width:1.0;stroke-dasharray:2.0,2.0;" x1="61.5" x2="673.5" y1="475.375" y2="475.375"/><text fill="#000000" font-family="sans-serif" font-size="20" font-weight="bold" lengthAdjust="spacing" textLength="14" x="73.5" y="468.6582">8</text><text fill="#000000" font-family="sans-serif" font-size="20" lengthAdjust="spacing" textLength="338" x="91.5" y="468.6582">asks to select responsible teacher</text><polygon fill="#181818" points="657.5,508.6563,667.5,512.6563,657.5,516.6563,661.5,512.6563" style="stroke:#181818;stroke-width:1.0;"/><line style="stroke:#181818;stroke-width:1.0;" x1="56.5" x2="663.5" y1="512.6563" y2="512.6563"/><text fill="#000000" font-family="sans-serif" font-size="20" font-weight="bold" lengthAdjust="spacing" textLength="14" x="63.5" y="505.9395">9</text><text fill="#000000" font-family="sans-serif" font-size="20" lengthAdjust="spacing" textLength="190" x="81.5" y="505.9395">selects the teacher</text><polygon fill="#181818" points="876.5,545.9375,886.5,549.9375,876.5,553.9375,880.5,549.9375" style="stroke:#181818;stroke-width:1.0;"/><line style="stroke:#181818;stroke-width:1.0;" x1="679.5" x2="882.5" y1="549.9375" y2="549.9375"/><text fill="#000000" font-family="sans-serif" font-size="20" font-weight="bold" lengthAdjust="spacing" textLength="28" x="686.5" y="543.2207">10</text><text fill="#000000" font-family="sans-serif" font-size="20" lengthAdjust="spacing" textLength="148" x="718.5" y="543.2207">createCourse()</text><polygon fill="#181818" points="2157,583.2188,2167,587.2188,2157,591.2188,2161,587.2188" style="stroke:#181818;stroke-width:1.0;"/><line style="stroke:#181818;stroke-width:1.0;" x1="898.5" x2="2163" y1="587.2188" y2="587.2188"/><text fill="#000000" font-family="sans-serif" font-size="20" font-weight="bold" lengthAdjust="spacing" textLength="28" x="905.5" y="580.502">11</text><text fill="#000000" font-family="sans-serif" font-size="20" lengthAdjust="spacing" textLength="251" x="937.5" y="580.502">findByTaxPayerNumber()</text><polygon fill="#181818" points="1283,790.1875,1293,794.1875,1283,798.1875,1287,794.1875" style="stroke:#181818;stroke-width:1.0;"/><line style="stroke:#181818;stroke-width:1.0;" x1="898.5" x2="1289" y1="794.1875" y2="794.1875"/><text fill="#000000" font-family="sans-serif" font-size="20" font-weight="bold" lengthAdjust="spacing" textLength="28" x="905.5" y="717.627">12</text><text fill="#000000" font-family="sans-serif" font-size="20" lengthAdjust="spacing" textLength="157" x="937.5" y="647.7832">CourseBuilder()</text><text fill="#000000" font-family="sans-serif" font-size="20" lengthAdjust="spacing" textLength="165" x="937.5" y="671.0645">.withCode(code)</text><text fill="#000000" font-family="sans-serif" font-size="20" lengthAdjust="spacing" textLength="150" x="937.5" y="694.3457">.withTitle(title)</text><text fill="#000000" font-family="sans-serif" font-size="20" lengthAdjust="spacing" textLength="292" x="937.5" y="717.627">.withDescription(description)</text><text fill="#000000" font-family="sans-serif" font-size="20" lengthAdjust="spacing" textLength="326" x="937.5" y="740.9082">.withEnrolmentLimits(min, max)</text><text fill="#000000" font-family="sans-serif" font-size="20" lengthAdjust="spacing" textLength="277" x="937.5" y="764.1895">.withTeacher(teacher.get())</text><text fill="#000000" font-family="sans-serif" font-size="20" lengthAdjust="spacing" textLength="73" x="937.5" y="787.4707">.build()</text><polygon fill="#181818" points="1138.5,857.4688,1148.5,861.4688,1138.5,865.4688,1142.5,861.4688" style="stroke:#181818;stroke-width:1.0;"/><line style="stroke:#181818;stroke-width:1.0;" x1="898.5" x2="1144.5" y1="861.4688" y2="861.4688"/><text fill="#000000" font-family="sans-serif" font-size="20" font-weight="bold" lengthAdjust="spacing" textLength="28" x="905.5" y="854.752">13</text><text fill="#000000" font-family="sans-serif" font-size="20" lengthAdjust="spacing" textLength="201" x="937.5" y="854.752">containsOfIdentity()</text><polygon fill="#181818" points="67.5,924.75,57.5,928.75,67.5,932.75,63.5,928.75" style="stroke:#181818;stroke-width:1.0;"/><line style="stroke:#181818;stroke-width:1.0;stroke-dasharray:2.0,2.0;" x1="61.5" x2="673.5" y1="928.75" y2="928.75"/><text fill="#000000" font-family="sans-serif" font-size="20" font-weight="bold" lengthAdjust="spacing" textLength="28" x="73.5" y="922.0332">14</text><text fill="#000000" font-family="sans-serif" font-size="20" lengthAdjust="spacing" textLength="404" x="105.5" y="922.0332">shows all data and asks for confirmation</text><polygon fill="#181818" points="657.5,962.0313,667.5,966.0313,657.5,970.0313,661.5,966.0313" style="stroke:#181818;stroke-width:1.0;"/><line style="stroke:#181818;stroke-width:1.0;" x1="56.5" x2="663.5" y1="966.0313" y2="966.0313"/><text fill="#000000" font-family="sans-serif" font-size="20" font-weight="bold" lengthAdjust="spacing" textLength="28" x="63.5" y="959.3145">15</text><text fill="#000000" font-family="sans-serif" font-size="20" lengthAdjust="spacing" textLength="177" x="95.5" y="959.3145">confirms the data</text><polygon fill="#181818" points="876.5,999.3125,886.5,1003.3125,876.5,1007.3125,880.5,1003.3125" style="stroke:#181818;stroke-width:1.0;"/><line style="stroke:#181818;stroke-width:1.0;" x1="679.5" x2="882.5" y1="1003.3125" y2="1003.3125"/><text fill="#000000" font-family="sans-serif" font-size="20" font-weight="bold" lengthAdjust="spacing" textLength="28" x="686.5" y="996.5957">16</text><text fill="#000000" font-family="sans-serif" font-size="20" lengthAdjust="spacing" textLength="130" x="718.5" y="996.5957">saveCourse()</text><polygon fill="#181818" points="1960.5,1036.5938,1970.5,1040.5938,1960.5,1044.5938,1964.5,1040.5938" style="stroke:#181818;stroke-width:1.0;"/><line style="stroke:#181818;stroke-width:1.0;" x1="898.5" x2="1966.5" y1="1040.5938" y2="1040.5938"/><text fill="#000000" font-family="sans-serif" font-size="20" font-weight="bold" lengthAdjust="spacing" textLength="28" x="905.5" y="1033.877">17</text><text fill="#000000" font-family="sans-serif" font-size="20" lengthAdjust="spacing" textLength="130" x="937.5" y="1033.877">saveCourse()</text><polygon fill="#181818" points="62.5,1103.875,52.5,1107.875,62.5,1111.875,58.5,1107.875" style="stroke:#181818;stroke-width:1.0;"/><line style="stroke:#181818;stroke-width:1.0;stroke-dasharray:2.0,2.0;" x1="56.5" x2="673.5" y1="1107.875" y2="1107.875"/><text fill="#000000" font-family="sans-serif" font-size="20" font-weight="bold" lengthAdjust="spacing" textLength="28" x="68.5" y="1101.1582">18</text><text fill="#000000" font-family="sans-serif" font-size="20" lengthAdjust="spacing" textLength="261" x="100.5" y="1101.1582">informs operation success</text><!--SRC=[XLJ1RkCW4Btp5QWdHsggrHwZAbAJPgL8pRPAdDjAAu8d3Ie6B-2ssQ_V6N1Ykwcx9mJptZ0pxu5_KQOIJfJQoXSeU05xKUlmmvgmKN-1V__6H1sigSiTECQ43DRngvKmuXdS5HUUhnZoWvAg4YRmgxa34M1kQ-TXkuo8xPBVtbOEF9WWWh9cEXtcpF5cPxLkii_pzGEoHLLf9JydHre28xAmfL03e5cjTD4adY5sb_OVmJa8UG2t0VUgPCgSRn3kqy40FE46AsXGz_bZ1E9Aq60HnmeHn4vuuAdCDLJMAnpqaP3hnHFrvSw7o3WJcgnzHhwuks2GSkeLfunwiHKVJqcL2Q9VF0-MowW05zp0MrD5ozWk6KFq64ahv3ZuKuCFdbCLF9EsW6iULD2u5E2bKnNfTCt1a90bglvRgr85Fs85zBAsXOHZ1VwKEcQ-l7-Qt33XMlbmftNJlCz6BPOGZ4KSub6sCtePm8cTXizO-OOnRMt5z-XkYlEGK8nJ3if4DLfKBMiY8morVC8HZ6ITq12xKJp4RQVrYuESWIauLS2w8wAoEjlKMqU9ateUDCY0q_ELDLvXa-Vw1mUUE4W_jE3XYSlE2_rYt6Iy2TyhKyoEkNX_4aTmF-FNqPismdfjqlwSP8OPUiyr6_qoDsyg7ERej6Ytqq5EfikYzKv7zwq1iuuPJ-45MP8S-H0DcPKAVLgAztF6D8cJo3VF4B8H1UDNqMrYrkrWrfPF0v3uX-4Nu1_tomBlKk7OcrbFqqk5lrBS7-oRvqBhzFW4kYQQW7oBj-wLA-CdEQnxWqh2V_REnjD6SozU_wju_9o6e1Ji5XBt5-tXZKrpoc0RM9cjyALI5zpNKeBt7xlfR5Vi7m00]--></g></svg>