<?xml version="1.0" encoding="UTF-8" standalone="no"?><svg xmlns="http://www.w3.org/2000/svg" xmlns:xlink="http://www.w3.org/1999/xlink" contentStyleType="text/css" height="957px" preserveAspectRatio="none" style="width:1352px;height:957px;background:#FFFFFF;" version="1.1" viewBox="0 0 1352 957" width="1352px" zoomAndPan="magnify"><defs/><g><!--cluster <<aggregate>> Board--><g id="cluster_&lt;&lt;aggregate&gt;&gt; Board"><path d="M8.5,320.2168 L227.5,320.2168 A3.75,3.75 0 0 1 230,322.7168 L237,349.498 L993.5,349.498 A2.5,2.5 0 0 1 996,351.998 L996,833.2168 A2.5,2.5 0 0 1 993.5,835.7168 L8.5,835.7168 A2.5,2.5 0 0 1 6,833.2168 L6,322.7168 A2.5,2.5 0 0 1 8.5,320.2168 " fill="none" style="stroke:#000000;stroke-width:1.5;"/><line style="stroke:#000000;stroke-width:1.5;" x1="6" x2="237" y1="349.498" y2="349.498"/><text fill="#000000" font-family="sans-serif" font-size="20" font-weight="bold" lengthAdjust="spacing" textLength="218" x="10" y="340.7813">«aggregate» Board</text></g><!--cluster <<aggregate>> PostIt--><g id="cluster_&lt;&lt;aggregate&gt;&gt; PostIt"><path d="M88.5,7.2168 L308.5,7.2168 A3.75,3.75 0 0 1 311,9.7168 L318,36.498 L927.5,36.498 A2.5,2.5 0 0 1 930,38.998 L930,284.7168 A2.5,2.5 0 0 1 927.5,287.2168 L88.5,287.2168 A2.5,2.5 0 0 1 86,284.7168 L86,9.7168 A2.5,2.5 0 0 1 88.5,7.2168 " fill="none" style="stroke:#000000;stroke-width:1.5;"/><line style="stroke:#000000;stroke-width:1.5;" x1="86" x2="318" y1="36.498" y2="36.498"/><text fill="#000000" font-family="sans-serif" font-size="20" font-weight="bold" lengthAdjust="spacing" textLength="219" x="90" y="27.7813">«aggregate» PostIt</text></g><!--cluster <<aggregate>> User--><g id="cluster_&lt;&lt;aggregate&gt;&gt; User"><path d="M1022.5,709.2168 L1226.5,709.2168 A3.75,3.75 0 0 1 1229,711.7168 L1236,738.498 L1236.5,738.498 A2.5,2.5 0 0 1 1239,740.998 L1239,844.7168 A2.5,2.5 0 0 1 1236.5,847.2168 L1022.5,847.2168 A2.5,2.5 0 0 1 1020,844.7168 L1020,711.7168 A2.5,2.5 0 0 1 1022.5,709.2168 " fill="none" style="stroke:#000000;stroke-width:1.5;"/><line style="stroke:#000000;stroke-width:1.5;" x1="1020" x2="1236" y1="738.498" y2="738.498"/><text fill="#000000" font-family="sans-serif" font-size="20" font-weight="bold" lengthAdjust="spacing" textLength="203" x="1024" y="729.7813">«aggregate» User</text></g><!--class Board--><g id="elem_Board"><rect codeLine="47" fill="#F5F5DC" height="79.8438" id="Board" rx="2.5" ry="2.5" style="stroke:#181818;stroke-width:0.5;" width="113" x="682.5" y="362.2168"/><ellipse cx="698.5" cy="402.1387" fill="#ADD1B2" rx="12" ry="12" style="stroke:#181818;stroke-width:1.0;"/><path d="M703.2188,409.6387 L694.1406,409.6387 L694.1406,395.0605 L703.2188,395.0605 L703.2188,397.5918 L697.0156,397.5918 L697.0156,400.748 L702.6406,400.748 L702.6406,403.2793 L697.0156,403.2793 L697.0156,407.0918 L703.2188,407.0918 L703.2188,409.6387 Z " fill="#000000"/><text fill="#000000" font-family="sans-serif" font-size="20" font-style="italic" lengthAdjust="spacing" textLength="83" x="711.5" y="385.7813">«entity»</text><text fill="#000000" font-family="sans-serif" font-size="20" font-style="italic" lengthAdjust="spacing" textLength="64" x="721" y="409.0625">«root»</text><text fill="#000000" font-family="sans-serif" font-size="20" lengthAdjust="spacing" textLength="59" x="723.5" y="432.3438">Board</text></g><!--class Title--><g id="elem_Title"><rect codeLine="61" fill="#F5F5DC" height="56.5625" id="Title" rx="2.5" ry="2.5" style="stroke:#181818;stroke-width:0.5;" width="177" x="209.5" y="762.7168"/><ellipse cx="225.5" cy="790.998" fill="#FF8B40" rx="12" ry="12" style="stroke:#181818;stroke-width:1.0;"/><path d="M225.5156,796.8418 L228.0781,784.6699 L230.9844,784.6699 L227.5156,799.248 L223.5313,799.248 L220.0625,784.6699 L222.9531,784.6699 L225.5156,796.8418 Z " fill="#000000"/><text fill="#000000" font-family="sans-serif" font-size="20" font-style="italic" lengthAdjust="spacing" textLength="147" x="238.5" y="786.2813">«value object»</text><text fill="#000000" font-family="sans-serif" font-size="20" lengthAdjust="spacing" textLength="44" x="290" y="809.5625">Title</text></g><!--class Column--><g id="elem_Column"><rect codeLine="50" fill="#F5F5DC" height="87.8438" id="Column" rx="2.5" ry="2.5" style="stroke:#181818;stroke-width:0.5;" width="113" x="283.5" y="538.7168"/><ellipse cx="299.5" cy="566.998" fill="#ADD1B2" rx="12" ry="12" style="stroke:#181818;stroke-width:1.0;"/><path d="M304.2188,574.498 L295.1406,574.498 L295.1406,559.9199 L304.2188,559.9199 L304.2188,562.4512 L298.0156,562.4512 L298.0156,565.6074 L303.6406,565.6074 L303.6406,568.1387 L298.0156,568.1387 L298.0156,571.9512 L304.2188,571.9512 L304.2188,574.498 Z " fill="#000000"/><text fill="#000000" font-family="sans-serif" font-size="20" font-style="italic" lengthAdjust="spacing" textLength="83" x="312.5" y="562.2813">«entity»</text><text fill="#000000" font-family="sans-serif" font-size="20" lengthAdjust="spacing" textLength="78" x="315" y="585.5625">Column</text><line style="stroke:#181818;stroke-width:0.5;" x1="284.5" x2="395.5" y1="595.2793" y2="595.2793"/><text fill="#000000" font-family="sans-serif" font-size="20" lengthAdjust="spacing" textLength="86" x="289.5" y="617.8438">-number</text></g><!--class Row--><g id="elem_Row"><rect codeLine="54" fill="#F5F5DC" height="87.8438" id="Row" rx="2.5" ry="2.5" style="stroke:#181818;stroke-width:0.5;" width="113" x="431.5" y="538.7168"/><ellipse cx="447.5" cy="566.998" fill="#ADD1B2" rx="12" ry="12" style="stroke:#181818;stroke-width:1.0;"/><path d="M452.2188,574.498 L443.1406,574.498 L443.1406,559.9199 L452.2188,559.9199 L452.2188,562.4512 L446.0156,562.4512 L446.0156,565.6074 L451.6406,565.6074 L451.6406,568.1387 L446.0156,568.1387 L446.0156,571.9512 L452.2188,571.9512 L452.2188,574.498 Z " fill="#000000"/><text fill="#000000" font-family="sans-serif" font-size="20" font-style="italic" lengthAdjust="spacing" textLength="83" x="460.5" y="562.2813">«entity»</text><text fill="#000000" font-family="sans-serif" font-size="20" lengthAdjust="spacing" textLength="43" x="480.5" y="585.5625">Row</text><line style="stroke:#181818;stroke-width:0.5;" x1="432.5" x2="543.5" y1="595.2793" y2="595.2793"/><text fill="#000000" font-family="sans-serif" font-size="20" lengthAdjust="spacing" textLength="86" x="437.5" y="617.8438">-number</text></g><!--class Archived--><g id="elem_Archived"><rect codeLine="69" fill="#F5F5DC" height="87.8438" id="Archived" rx="2.5" ry="2.5" style="stroke:#181818;stroke-width:0.5;" width="177" x="579.5" y="538.7168"/><ellipse cx="595.5" cy="566.998" fill="#FF8B40" rx="12" ry="12" style="stroke:#181818;stroke-width:1.0;"/><path d="M595.5156,572.8418 L598.0781,560.6699 L600.9844,560.6699 L597.5156,575.248 L593.5313,575.248 L590.0625,560.6699 L592.9531,560.6699 L595.5156,572.8418 Z " fill="#000000"/><text fill="#000000" font-family="sans-serif" font-size="20" font-style="italic" lengthAdjust="spacing" textLength="147" x="608.5" y="562.2813">«value object»</text><text fill="#000000" font-family="sans-serif" font-size="20" lengthAdjust="spacing" textLength="88" x="638" y="585.5625">Archived</text><line style="stroke:#181818;stroke-width:0.5;" x1="580.5" x2="755.5" y1="595.2793" y2="595.2793"/><text fill="#000000" font-family="sans-serif" font-size="20" lengthAdjust="spacing" textLength="115" x="585.5" y="617.8438">-archivedAt</text></g><!--class UserPermission--><g id="elem_UserPermission"><rect codeLine="73" fill="#F5F5DC" height="111.125" id="UserPermission" rx="2.5" ry="2.5" style="stroke:#181818;stroke-width:0.5;" width="188" x="792" y="527.2168"/><ellipse cx="808" cy="555.498" fill="#ADD1B2" rx="12" ry="12" style="stroke:#181818;stroke-width:1.0;"/><path d="M812.7188,562.998 L803.6406,562.998 L803.6406,548.4199 L812.7188,548.4199 L812.7188,550.9512 L806.5156,550.9512 L806.5156,554.1074 L812.1406,554.1074 L812.1406,556.6387 L806.5156,556.6387 L806.5156,560.4512 L812.7188,560.4512 L812.7188,562.998 Z " fill="#000000"/><text fill="#000000" font-family="sans-serif" font-size="20" font-style="italic" lengthAdjust="spacing" textLength="83" x="858.5" y="550.7813">«entity»</text><text fill="#000000" font-family="sans-serif" font-size="20" lengthAdjust="spacing" textLength="154" x="823" y="574.0625">UserPermission</text><line style="stroke:#181818;stroke-width:0.5;" x1="793" x2="979" y1="583.7793" y2="583.7793"/><text fill="#000000" font-family="sans-serif" font-size="20" lengthAdjust="spacing" textLength="105" x="798" y="606.3438">-createdAt</text><text fill="#000000" font-family="sans-serif" font-size="20" lengthAdjust="spacing" textLength="113" x="798" y="629.625">-updatedAt</text></g><!--class PermissionType--><g id="elem_PermissionType"><rect codeLine="78" fill="#F5F5DC" height="56.5625" id="PermissionType" rx="2.5" ry="2.5" style="stroke:#181818;stroke-width:0.5;" width="191" x="747.5" y="762.7168"/><ellipse cx="763.5" cy="790.998" fill="#FF8B40" rx="12" ry="12" style="stroke:#181818;stroke-width:1.0;"/><path d="M763.5156,796.8418 L766.0781,784.6699 L768.9844,784.6699 L765.5156,799.248 L761.5313,799.248 L758.0625,784.6699 L760.9531,784.6699 L763.5156,796.8418 Z " fill="#000000"/><text fill="#000000" font-family="sans-serif" font-size="20" font-style="italic" lengthAdjust="spacing" textLength="147" x="783.5" y="786.2813">«value object»</text><text fill="#000000" font-family="sans-serif" font-size="20" lengthAdjust="spacing" textLength="157" x="778.5" y="809.5625">PermissionType</text></g><!--class PostIt--><g id="elem_PostIt"><rect codeLine="41" fill="#F5F5DC" height="79.8438" id="PostIt" rx="2.5" ry="2.5" style="stroke:#181818;stroke-width:0.5;" width="113" x="474.5" y="49.2168"/><ellipse cx="490.5" cy="89.1387" fill="#ADD1B2" rx="12" ry="12" style="stroke:#181818;stroke-width:1.0;"/><path d="M495.2188,96.6387 L486.1406,96.6387 L486.1406,82.0605 L495.2188,82.0605 L495.2188,84.5918 L489.0156,84.5918 L489.0156,87.748 L494.6406,87.748 L494.6406,90.2793 L489.0156,90.2793 L489.0156,94.0918 L495.2188,94.0918 L495.2188,96.6387 Z " fill="#000000"/><text fill="#000000" font-family="sans-serif" font-size="20" font-style="italic" lengthAdjust="spacing" textLength="83" x="503.5" y="72.7813">«entity»</text><text fill="#000000" font-family="sans-serif" font-size="20" font-style="italic" lengthAdjust="spacing" textLength="64" x="513" y="96.0625">«root»</text><text fill="#000000" font-family="sans-serif" font-size="20" lengthAdjust="spacing" textLength="56" x="517" y="119.3438">PostIt</text></g><!--class PostItTitle--><g id="elem_PostItTitle"><rect codeLine="62" fill="#F5F5DC" height="56.5625" id="PostItTitle" rx="2.5" ry="2.5" style="stroke:#181818;stroke-width:0.5;" width="177" x="737.5" y="60.7168"/><ellipse cx="753.5" cy="88.998" fill="#FF8B40" rx="12" ry="12" style="stroke:#181818;stroke-width:1.0;"/><path d="M753.5156,94.8418 L756.0781,82.6699 L758.9844,82.6699 L755.5156,97.248 L751.5313,97.248 L748.0625,82.6699 L750.9531,82.6699 L753.5156,94.8418 Z " fill="#000000"/><text fill="#000000" font-family="sans-serif" font-size="20" font-style="italic" lengthAdjust="spacing" textLength="147" x="766.5" y="84.2813">«value object»</text><text fill="#000000" font-family="sans-serif" font-size="20" lengthAdjust="spacing" textLength="100" x="790" y="107.5625">PostItTitle</text></g><!--class State--><g id="elem_State"><rect codeLine="64" fill="#F5F5DC" height="56.5625" id="State" rx="2.5" ry="2.5" style="stroke:#181818;stroke-width:0.5;" width="177" x="101.5" y="214.2168"/><ellipse cx="117.5" cy="242.498" fill="#FF8B40" rx="12" ry="12" style="stroke:#181818;stroke-width:1.0;"/><path d="M117.5156,248.3418 L120.0781,236.1699 L122.9844,236.1699 L119.5156,250.748 L115.5313,250.748 L112.0625,236.1699 L114.9531,236.1699 L117.5156,248.3418 Z " fill="#000000"/><text fill="#000000" font-family="sans-serif" font-size="20" font-style="italic" lengthAdjust="spacing" textLength="147" x="130.5" y="237.7813">«value object»</text><text fill="#000000" font-family="sans-serif" font-size="20" lengthAdjust="spacing" textLength="53" x="177.5" y="261.0625">State</text></g><!--class Coordinates--><g id="elem_Coordinates"><rect codeLine="65" fill="#F5F5DC" height="56.5625" id="Coordinates" rx="2.5" ry="2.5" style="stroke:#181818;stroke-width:0.5;" width="177" x="313.5" y="214.2168"/><ellipse cx="329.5" cy="242.498" fill="#FF8B40" rx="12" ry="12" style="stroke:#181818;stroke-width:1.0;"/><path d="M329.5156,248.3418 L332.0781,236.1699 L334.9844,236.1699 L331.5156,250.748 L327.5313,250.748 L324.0625,236.1699 L326.9531,236.1699 L329.5156,248.3418 Z " fill="#000000"/><text fill="#000000" font-family="sans-serif" font-size="20" font-style="italic" lengthAdjust="spacing" textLength="147" x="342.5" y="237.7813">«value object»</text><text fill="#000000" font-family="sans-serif" font-size="20" lengthAdjust="spacing" textLength="120" x="356" y="261.0625">Coordinates</text></g><!--class Description--><g id="elem_Description"><rect codeLine="66" fill="#F5F5DC" height="56.5625" id="Description" rx="2.5" ry="2.5" style="stroke:#181818;stroke-width:0.5;" width="177" x="525.5" y="214.2168"/><ellipse cx="541.5" cy="242.498" fill="#FF8B40" rx="12" ry="12" style="stroke:#181818;stroke-width:1.0;"/><path d="M541.5156,248.3418 L544.0781,236.1699 L546.9844,236.1699 L543.5156,250.748 L539.5313,250.748 L536.0625,236.1699 L538.9531,236.1699 L541.5156,248.3418 Z " fill="#000000"/><text fill="#000000" font-family="sans-serif" font-size="20" font-style="italic" lengthAdjust="spacing" textLength="147" x="554.5" y="237.7813">«value object»</text><text fill="#000000" font-family="sans-serif" font-size="20" lengthAdjust="spacing" textLength="114" x="571" y="261.0625">Description</text></g><!--class Image--><g id="elem_Image"><rect codeLine="67" fill="#F5F5DC" height="56.5625" id="Image" rx="2.5" ry="2.5" style="stroke:#181818;stroke-width:0.5;" width="177" x="737.5" y="214.2168"/><ellipse cx="753.5" cy="242.498" fill="#FF8B40" rx="12" ry="12" style="stroke:#181818;stroke-width:1.0;"/><path d="M753.5156,248.3418 L756.0781,236.1699 L758.9844,236.1699 L755.5156,250.748 L751.5313,250.748 L748.0625,236.1699 L750.9531,236.1699 L753.5156,248.3418 Z " fill="#000000"/><text fill="#000000" font-family="sans-serif" font-size="20" font-style="italic" lengthAdjust="spacing" textLength="147" x="766.5" y="237.7813">«value object»</text><text fill="#000000" font-family="sans-serif" font-size="20" lengthAdjust="spacing" textLength="63" x="808.5" y="261.0625">Image</text></g><!--class User--><g id="elem_User"><rect codeLine="44" fill="#F5F5DC" height="79.8438" id="User" rx="2.5" ry="2.5" style="stroke:#181818;stroke-width:0.5;" width="113" x="1036.5" y="751.2168"/><ellipse cx="1052.5" cy="791.1387" fill="#ADD1B2" rx="12" ry="12" style="stroke:#181818;stroke-width:1.0;"/><path d="M1057.2188,798.6387 L1048.1406,798.6387 L1048.1406,784.0605 L1057.2188,784.0605 L1057.2188,786.5918 L1051.0156,786.5918 L1051.0156,789.748 L1056.6406,789.748 L1056.6406,792.2793 L1051.0156,792.2793 L1051.0156,796.0918 L1057.2188,796.0918 L1057.2188,798.6387 Z " fill="#000000"/><text fill="#000000" font-family="sans-serif" font-size="20" font-style="italic" lengthAdjust="spacing" textLength="83" x="1065.5" y="774.7813">«entity»</text><text fill="#000000" font-family="sans-serif" font-size="20" font-style="italic" lengthAdjust="spacing" textLength="64" x="1075" y="798.0625">«root»</text><text fill="#000000" font-family="sans-serif" font-size="20" lengthAdjust="spacing" textLength="45" x="1084.5" y="821.3438">User</text></g><g id="elem_GMN19"><path d="M800,894.2168 L800,950.7793 A0,0 0 0 0 800,950.7793 L886,950.7793 A0,0 0 0 0 886,950.7793 L886,904.2168 L876,894.2168 L847,894.2168 L843,819.9968 L839,894.2168 L800,894.2168 A0,0 0 0 0 800,894.2168 " fill="#FEFFDD" style="stroke:#181818;stroke-width:0.5;"/><path d="M876,894.2168 L876,904.2168 L886,904.2168 L876,894.2168 " fill="#FEFFDD" style="stroke:#181818;stroke-width:0.5;"/><text fill="#000000" font-family="sans-serif" font-size="20" lengthAdjust="spacing" textLength="56" x="806" y="917.7813">READ</text><text fill="#000000" font-family="sans-serif" font-size="20" lengthAdjust="spacing" textLength="65" x="806" y="941.0625">WRITE</text></g><!--link Board to Title--><g id="link_Board_Title"><path codeLine="86" d="M682.46,404.6068 C535.78,409.5668 149.31,431.6168 75,527.2168 C44.72,566.1668 51.95,594.6068 75,638.2168 C105.61,696.1168 169.27,736.1068 220.77,760.4768 " fill="none" id="Board-to-Title" style="stroke:#222222;stroke-width:1.0;"/><polygon fill="#222222" points="225.4,762.6468,218.9372,755.215,220.8694,760.5316,215.5528,762.4639,225.4,762.6468" style="stroke:#222222;stroke-width:1.0;"/><text fill="#000000" font-family="sans-serif" font-size="20" lengthAdjust="spacing" textLength="189" x="76" y="589.7813">is characterized by</text><text fill="#000000" font-family="sans-serif" font-size="20" lengthAdjust="spacing" textLength="13" x="196.0856" y="750.0209">1</text></g><!--reverse link Board to Column--><g id="link_Board_Column"><path codeLine="87" d="M668.91,403.8768 C558.91,406.5568 353.55,418.7968 308,472.2168 C292.26,490.6768 298.91,516.5468 310.13,538.5068 " fill="none" id="Board-backto-Column" style="stroke:#222222;stroke-width:1.0;"/><polygon fill="#222222" points="682.16,403.5868,676.0736,399.7196,670.1629,403.8505,676.2493,407.7177,682.16,403.5868" style="stroke:#222222;stroke-width:1.0;"/><text fill="#000000" font-family="sans-serif" font-size="20" lengthAdjust="spacing" textLength="181" x="309" y="491.7813">has a collection of</text><text fill="#000000" font-family="sans-serif" font-size="20" lengthAdjust="spacing" textLength="35" x="268.1725" y="525.921">1..*</text></g><!--reverse link Board to Row--><g id="link_Board_Row"><path codeLine="88" d="M669.35,406.5468 C618.99,412.7268 553.02,429.2068 513,472.2168 C496.53,489.9168 490.15,516.1568 487.95,538.5168 " fill="none" id="Board-backto-Row" style="stroke:#222222;stroke-width:1.0;"/><polygon fill="#222222" points="682.44,405.1268,676.0442,401.796,670.5097,406.4187,676.9055,409.7495,682.44,405.1268" style="stroke:#222222;stroke-width:1.0;"/><text fill="#000000" font-family="sans-serif" font-size="20" lengthAdjust="spacing" textLength="181" x="514" y="491.7813">has a collection of</text><text fill="#000000" font-family="sans-serif" font-size="20" lengthAdjust="spacing" textLength="35" x="450.3723" y="525.9324">1..*</text></g><!--reverse link Board to UserPermission--><g id="link_Board_UserPermission"><path codeLine="89" d="M779.72,452.6568 C798.74,475.7668 821.46,503.3468 840.99,527.0668 " fill="none" id="Board-backto-UserPermission" style="stroke:#222222;stroke-width:1.0;"/><polygon fill="#222222" points="771.26,442.3868,771.9808,449.5618,778.8811,451.656,778.1603,444.4811,771.26,442.3868" style="stroke:#222222;stroke-width:1.0;"/><text fill="#000000" font-family="sans-serif" font-size="20" lengthAdjust="spacing" textLength="181" x="813" y="491.7813">has a collection of</text><text fill="#000000" font-family="sans-serif" font-size="20" lengthAdjust="spacing" textLength="35" x="798.3716" y="514.4569">0..*</text></g><!--link UserPermission to PermissionType--><g id="link_UserPermission_PermissionType"><path codeLine="91" d="M851.19,638.4568 C846.57,648.0468 842.55,658.1768 840,668.2168 C832.49,697.7368 834.36,732.5768 837.44,757.4568 " fill="none" id="UserPermission-to-PermissionType" style="stroke:#222222;stroke-width:1.0;"/><polygon fill="#222222" points="838.12,762.6068,840.9026,753.1592,837.4629,757.6502,832.972,754.2105,838.12,762.6068" style="stroke:#222222;stroke-width:1.0;"/><text fill="#000000" font-family="sans-serif" font-size="20" lengthAdjust="spacing" textLength="35" x="841" y="687.7813">has</text><text fill="#000000" font-family="sans-serif" font-size="20" lengthAdjust="spacing" textLength="13" x="822.7729" y="749.9727">1</text></g><!--link UserPermission to User--><g id="link_UserPermission_User"><path codeLine="92" d="M888.87,638.2968 C892.81,658.4768 900.88,679.6968 917,693.2168 C930.52,704.5568 979.9,693.9968 996,701.2168 C1019.26,711.6568 1040.67,729.8968 1057.43,747.1568 " fill="none" id="UserPermission-to-User" style="stroke:#222222;stroke-width:1.0;"/><polygon fill="#222222" points="1061.15,751.0568,1057.8196,741.7881,1057.6939,747.4436,1052.0384,747.3179,1061.15,751.0568" style="stroke:#222222;stroke-width:1.0;"/><text fill="#000000" font-family="sans-serif" font-size="20" lengthAdjust="spacing" textLength="105" x="918" y="687.7813">belongs to</text><text fill="#000000" font-family="sans-serif" font-size="20" lengthAdjust="spacing" textLength="13" x="1042.038" y="738.4228">1</text></g><!--link Row to Title--><g id="link_Row_Title"><path codeLine="94" d="M479.64,626.7268 C473.8,648.3768 464.24,674.0168 449,693.2168 C426.66,721.3568 393.8,743.8368 364.43,760.0368 " fill="none" id="Row-to-Title" style="stroke:#222222;stroke-width:1.0;"/><polygon fill="#222222" points="359.75,762.5768,369.5674,761.7899,364.1422,760.1875,365.7446,754.7624,359.75,762.5768" style="stroke:#222222;stroke-width:1.0;"/><text fill="#000000" font-family="sans-serif" font-size="20" lengthAdjust="spacing" textLength="148" x="465" y="687.7813">is identified by</text><text fill="#000000" font-family="sans-serif" font-size="20" lengthAdjust="spacing" textLength="13" x="358.1453" y="749.9365">1</text></g><!--link Column to Title--><g id="link_Column_Title"><path codeLine="96" d="M311.87,626.7968 C304.97,639.6068 298.54,654.0268 295,668.2168 C287.62,697.7668 289.48,732.6068 292.52,757.4768 " fill="none" id="Column-to-Title" style="stroke:#222222;stroke-width:1.0;"/><polygon fill="#222222" points="293.19,762.6268,295.9993,753.1871,292.547,757.6683,288.0658,754.216,293.19,762.6268" style="stroke:#222222;stroke-width:1.0;"/><text fill="#000000" font-family="sans-serif" font-size="20" lengthAdjust="spacing" textLength="148" x="296" y="687.7813">is identified by</text><text fill="#000000" font-family="sans-serif" font-size="20" lengthAdjust="spacing" textLength="13" x="277.8573" y="749.9968">1</text></g><!--link Board to User--><g id="link_Board_User"><path codeLine="98" d="M795.62,411.3268 C864.1,422.2268 973.82,443.6168 1003,472.2168 C1042.05,510.4868 1072.83,667.9868 1086.02,746.0068 " fill="none" id="Board-to-User" style="stroke:#222222;stroke-width:1.0;"/><polygon fill="#222222" points="1086.86,751.0368,1089.3125,741.4982,1086.0311,746.106,1081.4233,742.8245,1086.86,751.0368" style="stroke:#222222;stroke-width:1.0;"/><text fill="#000000" font-family="sans-serif" font-size="20" lengthAdjust="spacing" textLength="119" x="1065" y="589.7813">is owned by</text><text fill="#000000" font-family="sans-serif" font-size="20" lengthAdjust="spacing" textLength="13" x="1071.8455" y="738.3996">1</text></g><!--link Board to Archived--><g id="link_Board_Archived"><path codeLine="99" d="M723.42,442.3868 C712.73,469.2668 698.48,505.0868 687.11,533.6868 " fill="none" id="Board-to-Archived" style="stroke:#222222;stroke-width:1.0;"/><polygon fill="#222222" points="685.16,538.5768,692.2091,531.6986,687.012,533.9325,684.7782,528.7353,685.16,538.5768" style="stroke:#222222;stroke-width:1.0;"/><text fill="#000000" font-family="sans-serif" font-size="20" lengthAdjust="spacing" textLength="16" x="711" y="491.7813">is</text><text fill="#000000" font-family="sans-serif" font-size="20" lengthAdjust="spacing" textLength="38" x="646.8897" y="526.0013">0..1</text></g><!--reverse link PostIt to PostItTitle--><g id="link_PostIt_PostItTitle"><path codeLine="101" d="M600.88,89.2168 C646.29,89.2168 691.71,89.2168 737.12,89.2168 " fill="none" id="PostIt-backto-PostItTitle" style="stroke:#222222;stroke-width:1.0;"/><polygon fill="#222222" points="587.75,89.2168,593.75,93.2168,599.75,89.2168,593.75,85.2168,587.75,89.2168" style="stroke:#222222;stroke-width:1.0;"/></g><!--link PostIt to State--><g id="link_PostIt_State"><path codeLine="102" d="M474.31,115.4068 C414.51,141.9768 320.33,183.8168 256.92,211.9868 " fill="none" id="PostIt-to-State" style="stroke:#222222;stroke-width:1.0;"/><polygon fill="#222222" points="252.03,214.1568,261.8789,214.1625,256.6002,212.1288,258.634,206.8501,252.03,214.1568" style="stroke:#222222;stroke-width:1.0;"/><text fill="#000000" font-family="sans-serif" font-size="20" lengthAdjust="spacing" textLength="35" x="372" y="178.7813">has</text><text fill="#000000" font-family="sans-serif" font-size="20" lengthAdjust="spacing" textLength="13" x="250.4831" y="201.533">1</text></g><!--link PostIt to Board--><g id="link_PostIt_Board"><path codeLine="104" d="M587.72,103.7968 C693.3,129.6268 911.22,185.7968 932,214.2168 C953.25,243.2768 950.33,264.2368 932,295.2168 C903.83,342.8368 845.82,370.4868 800.72,385.5368 " fill="none" id="PostIt-to-Board" style="stroke:#222222;stroke-width:1.0;"/><polygon fill="#222222" points="795.85,387.1268,805.6459,388.1465,800.6047,385.5801,803.1712,380.5389,795.85,387.1268" style="stroke:#222222;stroke-width:1.0;"/><text fill="#000000" font-family="sans-serif" font-size="20" lengthAdjust="spacing" textLength="105" x="947" y="249.7813">belongs to</text><text fill="#000000" font-family="sans-serif" font-size="20" lengthAdjust="spacing" textLength="13" x="803.5708" y="379.4773">1</text></g><!--link PostIt to PostIt--><g id="link_PostIt_PostIt"><path codeLine="105" d="M587.74,73.8468 C607.01,73.7668 622.5,78.8868 622.5,89.2168 C622.5,98.5768 609.78,103.6668 593.05,104.4768 " fill="none" id="PostIt-to-PostIt" style="stroke:#222222;stroke-width:1.0;"/><polygon fill="#222222" points="587.74,104.5868,596.8291,108.3801,592.7387,104.4725,596.6462,100.3822,587.74,104.5868" style="stroke:#222222;stroke-width:1.0;"/><text fill="#000000" font-family="sans-serif" font-size="20" lengthAdjust="spacing" textLength="85" x="628.5" y="96.2813">previous</text><text fill="#000000" font-family="sans-serif" font-size="20" lengthAdjust="spacing" textLength="38" x="595.5507" y="125.9448">0..1</text></g><!--link PostIt to Description--><g id="link_PostIt_Description"><path codeLine="106" d="M552.37,129.2368 C565.97,154.0568 583.38,185.8168 596.22,209.2568 " fill="none" id="PostIt-to-Description" style="stroke:#222222;stroke-width:1.0;"/><polygon fill="#222222" points="598.72,213.8368,597.9085,204.0214,596.3197,209.4506,590.8906,207.8619,598.72,213.8368" style="stroke:#222222;stroke-width:1.0;"/><text fill="#000000" font-family="sans-serif" font-size="20" lengthAdjust="spacing" textLength="35" x="584" y="178.7813">has</text><text fill="#000000" font-family="sans-serif" font-size="20" lengthAdjust="spacing" textLength="38" x="553.9711" y="201.5222">0..1</text></g><!--link PostIt to Image--><g id="link_PostIt_Image"><path codeLine="107" d="M587.53,119.2468 C639.17,145.7668 715.23,184.8268 767.48,211.6668 " fill="none" id="PostIt-to-Image" style="stroke:#222222;stroke-width:1.0;"/><polygon fill="#222222" points="772.15,214.0568,765.9669,206.3907,767.7009,211.7752,762.3164,213.5092,772.15,214.0568" style="stroke:#222222;stroke-width:1.0;"/><text fill="#000000" font-family="sans-serif" font-size="20" lengthAdjust="spacing" textLength="35" x="715" y="178.7813">has</text><text fill="#000000" font-family="sans-serif" font-size="20" lengthAdjust="spacing" textLength="38" x="719.1247" y="201.4124">0..1</text></g><!--link PostIt to Coordinates--><g id="link_PostIt_Coordinates"><path codeLine="108" d="M497.78,129.2368 C476.47,154.2568 449.14,186.3468 429.14,209.8468 " fill="none" id="PostIt-to-Coordinates" style="stroke:#222222;stroke-width:1.0;"/><polygon fill="#222222" points="425.74,213.8368,434.6171,209.5709,428.9787,210.0275,428.5221,204.3891,425.74,213.8368" style="stroke:#222222;stroke-width:1.0;"/><text fill="#000000" font-family="sans-serif" font-size="20" lengthAdjust="spacing" textLength="35" x="472" y="178.7813">has</text><text fill="#000000" font-family="sans-serif" font-size="20" lengthAdjust="spacing" textLength="13" x="416.1341" y="201.5222">1</text></g><!--link PostIt to User--><g id="link_PostIt_User"><path codeLine="109" d="M587.71,101.8668 C753.22,135.9468 1224,233.5968 1224,241.7168 C1224,241.7168 1224,241.7168 1224,583.7168 C1224,648.0868 1178.05,708.6368 1140.58,747.3168 " fill="none" id="PostIt-to-User" style="stroke:#222222;stroke-width:1.0;"/><polygon fill="#222222" points="1136.99,750.9968,1146.1462,747.3686,1140.4896,747.4257,1140.4325,741.7692,1136.99,750.9968" style="stroke:#222222;stroke-width:1.0;"/><text fill="#000000" font-family="sans-serif" font-size="20" lengthAdjust="spacing" textLength="119" x="1225" y="409.2813">is owned by</text><text fill="#000000" font-family="sans-serif" font-size="20" lengthAdjust="spacing" textLength="13" x="1129.965" y="738.3532">1</text></g><!--SRC=[dLLBRzf04BxlhnYHGrjK1nBrK24KYJoGk4L9sfuNUp7Rs3lMxZfH6lM_TtRNnW-WfkK2C_Dzyvx5F4jLSCtp3EDdaK0YDhpCx1ALVPI_15nEsOUjjOMPJIP5nfKjy-myndmIPzoOA94y9J9ZflO3th2mLijrQSKgHkKTJTbM9W94NjWtuBNPjBMvi5jCJD_NDO-VKusbIcumGmrh8LFH0YsqnjTWEhlq7yOAul1Km6W-vscgHSgjkBg2Q-Gw6S4x0n3AIehfDOna7mgUfCr4OoMlPQuQ-G5V6-n2nrlv8ZoxidypGjyBdKjZ9Ae6skYUtWh1VXzDy1wDNTbEXa7LykNbEj6WUxH4tqatY3gHYhlsrhfROM8j2-lIgdMhd3BuhsIESrm7EWodSFYE0vZFWqoC-LmZMlhnte8vrY38psuG5MROXhdi8b1blkwaHiFz6wgr80Jx-FtpsNBvzVhBz1EyyAmKWEkV8lR12VnFwBsv3ljlZVr4zwsbE97HMfaJ6NwXJas-Ffy1l9y2hx0BszkHvh3sHXThGSKw2WbbaLJ2Bdxt9eUo89f2QlOQhSKSSDE_QO27kyKjVVruM3tTKOu9E09ZOKkZw0f65wDg8sOW3SHRUhvYApGzZmcitohaE8e8UNu-7jMhEuCjDy0XnYoZV5onkDb7k_qTX4uzjDUwmopMGzKbz1hdoSUm_evdz6Hdg5835XbpQHxe1lqDqFWsChI2LQKF0xljhU8H35zLkwiUGCKJPhTu3iTOzIADeyxBMcbhl-7IGgcDhJA629qgs_GGjTBCeD3YHM9f3c3Q5nTYxMF2ZUrRBqQT4-y1ZhVd3m00]--></g></svg>