<?xml version="1.0" encoding="UTF-8" standalone="no"?><svg xmlns="http://www.w3.org/2000/svg" xmlns:xlink="http://www.w3.org/1999/xlink" contentStyleType="text/css" height="1049px" preserveAspectRatio="none" style="width:1271px;height:1049px;background:#FFFFFF;" version="1.1" viewBox="0 0 1271 1049" width="1271px" zoomAndPan="magnify"><defs/><g><!--cluster <<aggregate>> Board--><g id="cluster_&lt;&lt;aggregate&gt;&gt; Board"><path d="M8.5,348.36 L195.5,348.36 A3.75,3.75 0 0 1 198,350.86 L205,381.6 L930.5,381.6 A2.5,2.5 0 0 1 933,384.1 L933,914.86 A2.5,2.5 0 0 1 930.5,917.36 L8.5,917.36 A2.5,2.5 0 0 1 6,914.86 L6,350.86 A2.5,2.5 0 0 1 8.5,348.36 " fill="none" style="stroke:#000000;stroke-width:1.5;"/><line style="stroke:#000000;stroke-width:1.5;" x1="6" x2="205" y1="381.6" y2="381.6"/><text fill="#000000" font-family="sans-serif" font-size="20" font-weight="bold" lengthAdjust="spacing" textLength="186" x="10" y="371.74">«aggregate» Board</text></g><!--cluster <<aggregate>> PostIt--><g id="cluster_&lt;&lt;aggregate&gt;&gt; PostIt"><path d="M97.5,8.36 L284.125,8.36 A3.75,3.75 0 0 1 286.625,10.86 L293.625,41.6 L853.5,41.6 A2.5,2.5 0 0 1 856,44.1 L856,312.86 A2.5,2.5 0 0 1 853.5,315.36 L97.5,315.36 A2.5,2.5 0 0 1 95,312.86 L95,10.86 A2.5,2.5 0 0 1 97.5,8.36 " fill="none" style="stroke:#000000;stroke-width:1.5;"/><line style="stroke:#000000;stroke-width:1.5;" x1="95" x2="293.625" y1="41.6" y2="41.6"/><text fill="#000000" font-family="sans-serif" font-size="20" font-weight="bold" lengthAdjust="spacing" textLength="185.625" x="99" y="31.74">«aggregate» PostIt</text></g><!--cluster <<aggregate>> User--><g id="cluster_&lt;&lt;aggregate&gt;&gt; User"><path d="M959.5,777.36 L1133.875,777.36 A3.75,3.75 0 0 1 1136.375,779.86 L1143.375,810.6 L1143.5,810.6 A2.5,2.5 0 0 1 1146,813.1 L1146,928.86 A2.5,2.5 0 0 1 1143.5,931.36 L959.5,931.36 A2.5,2.5 0 0 1 957,928.86 L957,779.86 A2.5,2.5 0 0 1 959.5,777.36 " fill="none" style="stroke:#000000;stroke-width:1.5;"/><line style="stroke:#000000;stroke-width:1.5;" x1="957" x2="1143.375" y1="810.6" y2="810.6"/><text fill="#000000" font-family="sans-serif" font-size="20" font-weight="bold" lengthAdjust="spacing" textLength="173.375" x="961" y="800.74">«aggregate» User</text></g><!--class Board--><g id="elem_Board"><rect codeLine="47" fill="#F5F5DC" height="91.7199" id="Board" rx="2.5" ry="2.5" style="stroke:#181818;stroke-width:0.5;" width="100" x="641" y="394.36"/><ellipse cx="657" cy="440.22" fill="#ADD1B2" rx="12" ry="12" style="stroke:#181818;stroke-width:1.0;"/><path d="M661.0469,447.72 L652.4375,447.72 L652.4375,432.8137 L661.0469,432.8137 L661.0469,435.0168 L654.8594,435.0168 L654.8594,438.8606 L660.6875,438.8606 L660.6875,441.0325 L654.8594,441.0325 L654.8594,445.5168 L661.0469,445.5168 L661.0469,447.72 Z " fill="#000000"/><text fill="#000000" font-family="sans-serif" font-size="20" font-style="italic" lengthAdjust="spacing" textLength="70" x="670" y="420.74">«entity»</text><text fill="#000000" font-family="sans-serif" font-size="20" font-style="italic" lengthAdjust="spacing" textLength="57" x="676.5" y="447.9799">«root»</text><text fill="#000000" font-family="sans-serif" font-size="20" lengthAdjust="spacing" textLength="56" x="677" y="475.2199">Board</text></g><!--class Title--><g id="elem_Title"><rect codeLine="61" fill="#F5F5DC" height="64.4799" id="Title" rx="2.5" ry="2.5" style="stroke:#181818;stroke-width:0.5;" width="156" x="205" y="837.36"/><ellipse cx="221" cy="869.6" fill="#FF8B40" rx="12" ry="12" style="stroke:#181818;stroke-width:1.0;"/><path d="M227.25,863.4437 L221.9375,878.35 L219.6875,878.35 L214.375,863.4437 L216.9063,863.4437 L220.2031,872.8031 Q220.4219,873.3968 220.5781,873.9437 Q220.75,874.4906 220.875,874.9906 Q221.0156,875.475 220.8125,875.5218 Q220.5938,875.4906 220.7344,874.975 Q220.875,874.4593 221.0469,873.9281 Q221.2188,873.3812 221.4219,872.7718 L224.6875,863.4437 L227.25,863.4437 Z " fill="#000000"/><text fill="#000000" font-family="sans-serif" font-size="20" font-style="italic" lengthAdjust="spacing" textLength="126" x="234" y="863.74">«value object»</text><text fill="#000000" font-family="sans-serif" font-size="20" lengthAdjust="spacing" textLength="39" x="277.5" y="890.9799">Title</text></g><!--class Column--><g id="elem_Column"><rect codeLine="50" fill="#F5F5DC" height="99.7199" id="Column" rx="2.5" ry="2.5" style="stroke:#181818;stroke-width:0.5;" width="107" x="266.5" y="588.86"/><ellipse cx="282.5" cy="621.1" fill="#ADD1B2" rx="12" ry="12" style="stroke:#181818;stroke-width:1.0;"/><path d="M286.5469,628.6 L277.9375,628.6 L277.9375,613.6937 L286.5469,613.6937 L286.5469,615.8968 L280.3594,615.8968 L280.3594,619.7406 L286.1875,619.7406 L286.1875,621.9125 L280.3594,621.9125 L280.3594,626.3968 L286.5469,626.3968 L286.5469,628.6 Z " fill="#000000"/><text fill="#000000" font-family="sans-serif" font-size="20" font-style="italic" lengthAdjust="spacing" textLength="70" x="299" y="615.24">«entity»</text><text fill="#000000" font-family="sans-serif" font-size="20" lengthAdjust="spacing" textLength="73" x="297.5" y="642.4799">Column</text><line style="stroke:#181818;stroke-width:0.5;" x1="267.5" x2="372.5" y1="653.3399" y2="653.3399"/><text fill="#000000" font-family="sans-serif" font-size="20" lengthAdjust="spacing" textLength="80" x="272.5" y="678.7199">-number</text></g><!--class Row--><g id="elem_Row"><rect codeLine="54" fill="#F5F5DC" height="99.7199" id="Row" rx="2.5" ry="2.5" style="stroke:#181818;stroke-width:0.5;" width="100" x="409" y="588.86"/><ellipse cx="425" cy="621.1" fill="#ADD1B2" rx="12" ry="12" style="stroke:#181818;stroke-width:1.0;"/><path d="M429.0469,628.6 L420.4375,628.6 L420.4375,613.6937 L429.0469,613.6937 L429.0469,615.8968 L422.8594,615.8968 L422.8594,619.7406 L428.6875,619.7406 L428.6875,621.9125 L422.8594,621.9125 L422.8594,626.3968 L429.0469,626.3968 L429.0469,628.6 Z " fill="#000000"/><text fill="#000000" font-family="sans-serif" font-size="20" font-style="italic" lengthAdjust="spacing" textLength="70" x="438" y="615.24">«entity»</text><text fill="#000000" font-family="sans-serif" font-size="20" lengthAdjust="spacing" textLength="40" x="453" y="642.4799">Row</text><line style="stroke:#181818;stroke-width:0.5;" x1="410" x2="508" y1="653.3399" y2="653.3399"/><text fill="#000000" font-family="sans-serif" font-size="20" lengthAdjust="spacing" textLength="80" x="415" y="678.7199">-number</text></g><!--class Archived--><g id="elem_Archived"><rect codeLine="69" fill="#F5F5DC" height="99.7199" id="Archived" rx="2.5" ry="2.5" style="stroke:#181818;stroke-width:0.5;" width="156" x="544" y="588.86"/><ellipse cx="560" cy="621.1" fill="#FF8B40" rx="12" ry="12" style="stroke:#181818;stroke-width:1.0;"/><path d="M566.25,614.9437 L560.9375,629.85 L558.6875,629.85 L553.375,614.9437 L555.9063,614.9437 L559.2031,624.3031 Q559.4219,624.8968 559.5781,625.4437 Q559.75,625.9906 559.875,626.4906 Q560.0156,626.975 559.8125,627.0218 Q559.5938,626.9906 559.7344,626.475 Q559.875,625.9593 560.0469,625.4281 Q560.2188,624.8812 560.4219,624.2718 L563.6875,614.9437 L566.25,614.9437 Z " fill="#000000"/><text fill="#000000" font-family="sans-serif" font-size="20" font-style="italic" lengthAdjust="spacing" textLength="126" x="573" y="615.24">«value object»</text><text fill="#000000" font-family="sans-serif" font-size="20" lengthAdjust="spacing" textLength="81" x="595.5" y="642.4799">Archived</text><line style="stroke:#181818;stroke-width:0.5;" x1="545" x2="699" y1="653.3399" y2="653.3399"/><text fill="#000000" font-family="sans-serif" font-size="20" lengthAdjust="spacing" textLength="105" x="550" y="678.7199">-archivedAt</text></g><!--class UserPermission--><g id="elem_UserPermission"><rect codeLine="73" fill="#F5F5DC" height="126.9599" id="UserPermission" rx="2.5" ry="2.5" style="stroke:#181818;stroke-width:0.5;" width="182" x="735" y="575.36"/><ellipse cx="751" cy="607.6" fill="#ADD1B2" rx="12" ry="12" style="stroke:#181818;stroke-width:1.0;"/><path d="M755.0469,615.1 L746.4375,615.1 L746.4375,600.1937 L755.0469,600.1937 L755.0469,602.3968 L748.8594,602.3968 L748.8594,606.2406 L754.6875,606.2406 L754.6875,608.4125 L748.8594,608.4125 L748.8594,612.8968 L755.0469,612.8968 L755.0469,615.1 Z " fill="#000000"/><text fill="#000000" font-family="sans-serif" font-size="20" font-style="italic" lengthAdjust="spacing" textLength="70" x="805" y="601.74">«entity»</text><text fill="#000000" font-family="sans-serif" font-size="20" lengthAdjust="spacing" textLength="148" x="766" y="628.9799">UserPermission</text><line style="stroke:#181818;stroke-width:0.5;" x1="736" x2="916" y1="639.8399" y2="639.8399"/><text fill="#000000" font-family="sans-serif" font-size="20" lengthAdjust="spacing" textLength="96" x="741" y="665.2199">-createdAt</text><text fill="#000000" font-family="sans-serif" font-size="20" lengthAdjust="spacing" textLength="103" x="741" y="692.4599">-updatedAt</text></g><!--class PermissionType--><g id="elem_PermissionType"><rect codeLine="78" fill="#F5F5DC" height="64.4799" id="PermissionType" rx="2.5" ry="2.5" style="stroke:#181818;stroke-width:0.5;" width="182" x="698" y="837.36"/><ellipse cx="714" cy="869.6" fill="#FF8B40" rx="12" ry="12" style="stroke:#181818;stroke-width:1.0;"/><path d="M720.25,863.4437 L714.9375,878.35 L712.6875,878.35 L707.375,863.4437 L709.9063,863.4437 L713.2031,872.8031 Q713.4219,873.3968 713.5781,873.9437 Q713.75,874.4906 713.875,874.9906 Q714.0156,875.475 713.8125,875.5218 Q713.5938,875.4906 713.7344,874.975 Q713.875,874.4593 714.0469,873.9281 Q714.2188,873.3812 714.4219,872.7718 L717.6875,863.4437 L720.25,863.4437 Z " fill="#000000"/><text fill="#000000" font-family="sans-serif" font-size="20" font-style="italic" lengthAdjust="spacing" textLength="126" x="740" y="863.74">«value object»</text><text fill="#000000" font-family="sans-serif" font-size="20" lengthAdjust="spacing" textLength="148" x="729" y="890.9799">PermissionType</text></g><!--class PostIt--><g id="elem_PostIt"><rect codeLine="41" fill="#F5F5DC" height="91.7199" id="PostIt" rx="2.5" ry="2.5" style="stroke:#181818;stroke-width:0.5;" width="100" x="439" y="54.36"/><ellipse cx="455" cy="100.22" fill="#ADD1B2" rx="12" ry="12" style="stroke:#181818;stroke-width:1.0;"/><path d="M459.0469,107.72 L450.4375,107.72 L450.4375,92.8137 L459.0469,92.8137 L459.0469,95.0168 L452.8594,95.0168 L452.8594,98.8606 L458.6875,98.8606 L458.6875,101.0325 L452.8594,101.0325 L452.8594,105.5168 L459.0469,105.5168 L459.0469,107.72 Z " fill="#000000"/><text fill="#000000" font-family="sans-serif" font-size="20" font-style="italic" lengthAdjust="spacing" textLength="70" x="468" y="80.74">«entity»</text><text fill="#000000" font-family="sans-serif" font-size="20" font-style="italic" lengthAdjust="spacing" textLength="57" x="474.5" y="107.9799">«root»</text><text fill="#000000" font-family="sans-serif" font-size="20" lengthAdjust="spacing" textLength="55" x="475.5" y="135.2199">PostIt</text></g><!--class PostItTitle--><g id="elem_PostItTitle"><rect codeLine="62" fill="#F5F5DC" height="64.4799" id="PostItTitle" rx="2.5" ry="2.5" style="stroke:#181818;stroke-width:0.5;" width="156" x="684" y="68.36"/><ellipse cx="700" cy="100.6" fill="#FF8B40" rx="12" ry="12" style="stroke:#181818;stroke-width:1.0;"/><path d="M706.25,94.4437 L700.9375,109.35 L698.6875,109.35 L693.375,94.4437 L695.9063,94.4437 L699.2031,103.8031 Q699.4219,104.3968 699.5781,104.9437 Q699.75,105.4906 699.875,105.9906 Q700.0156,106.475 699.8125,106.5218 Q699.5938,106.4906 699.7344,105.975 Q699.875,105.4593 700.0469,104.9281 Q700.2188,104.3812 700.4219,103.7718 L703.6875,94.4437 L706.25,94.4437 Z " fill="#000000"/><text fill="#000000" font-family="sans-serif" font-size="20" font-style="italic" lengthAdjust="spacing" textLength="126" x="713" y="94.74">«value object»</text><text fill="#000000" font-family="sans-serif" font-size="20" lengthAdjust="spacing" textLength="94" x="729" y="121.9799">PostItTitle</text></g><!--class State--><g id="elem_State"><rect codeLine="64" fill="#F5F5DC" height="64.4799" id="State" rx="2.5" ry="2.5" style="stroke:#181818;stroke-width:0.5;" width="156" x="111" y="235.36"/><ellipse cx="127" cy="267.6" fill="#FF8B40" rx="12" ry="12" style="stroke:#181818;stroke-width:1.0;"/><path d="M133.25,261.4437 L127.9375,276.35 L125.6875,276.35 L120.375,261.4437 L122.9063,261.4437 L126.2031,270.8031 Q126.4219,271.3968 126.5781,271.9437 Q126.75,272.4906 126.875,272.9906 Q127.0156,273.475 126.8125,273.5218 Q126.5938,273.4906 126.7344,272.975 Q126.875,272.4593 127.0469,271.9281 Q127.2188,271.3812 127.4219,270.7718 L130.6875,261.4437 L133.25,261.4437 Z " fill="#000000"/><text fill="#000000" font-family="sans-serif" font-size="20" font-style="italic" lengthAdjust="spacing" textLength="126" x="140" y="261.74">«value object»</text><text fill="#000000" font-family="sans-serif" font-size="20" lengthAdjust="spacing" textLength="47" x="179.5" y="288.9799">State</text></g><!--class Coordinates--><g id="elem_Coordinates"><rect codeLine="65" fill="#F5F5DC" height="64.4799" id="Coordinates" rx="2.5" ry="2.5" style="stroke:#181818;stroke-width:0.5;" width="156" x="302" y="235.36"/><ellipse cx="318" cy="267.6" fill="#FF8B40" rx="12" ry="12" style="stroke:#181818;stroke-width:1.0;"/><path d="M324.25,261.4437 L318.9375,276.35 L316.6875,276.35 L311.375,261.4437 L313.9063,261.4437 L317.2031,270.8031 Q317.4219,271.3968 317.5781,271.9437 Q317.75,272.4906 317.875,272.9906 Q318.0156,273.475 317.8125,273.5218 Q317.5938,273.4906 317.7344,272.975 Q317.875,272.4593 318.0469,271.9281 Q318.2188,271.3812 318.4219,270.7718 L321.6875,261.4437 L324.25,261.4437 Z " fill="#000000"/><text fill="#000000" font-family="sans-serif" font-size="20" font-style="italic" lengthAdjust="spacing" textLength="126" x="331" y="261.74">«value object»</text><text fill="#000000" font-family="sans-serif" font-size="20" lengthAdjust="spacing" textLength="113" x="337.5" y="288.9799">Coordinates</text></g><!--class Description--><g id="elem_Description"><rect codeLine="66" fill="#F5F5DC" height="64.4799" id="Description" rx="2.5" ry="2.5" style="stroke:#181818;stroke-width:0.5;" width="156" x="493" y="235.36"/><ellipse cx="509" cy="267.6" fill="#FF8B40" rx="12" ry="12" style="stroke:#181818;stroke-width:1.0;"/><path d="M515.25,261.4437 L509.9375,276.35 L507.6875,276.35 L502.375,261.4437 L504.9063,261.4437 L508.2031,270.8031 Q508.4219,271.3968 508.5781,271.9437 Q508.75,272.4906 508.875,272.9906 Q509.0156,273.475 508.8125,273.5218 Q508.5938,273.4906 508.7344,272.975 Q508.875,272.4593 509.0469,271.9281 Q509.2188,271.3812 509.4219,270.7718 L512.6875,261.4437 L515.25,261.4437 Z " fill="#000000"/><text fill="#000000" font-family="sans-serif" font-size="20" font-style="italic" lengthAdjust="spacing" textLength="126" x="522" y="261.74">«value object»</text><text fill="#000000" font-family="sans-serif" font-size="20" lengthAdjust="spacing" textLength="107" x="531.5" y="288.9799">Description</text></g><!--class Image--><g id="elem_Image"><rect codeLine="67" fill="#F5F5DC" height="64.4799" id="Image" rx="2.5" ry="2.5" style="stroke:#181818;stroke-width:0.5;" width="156" x="684" y="235.36"/><ellipse cx="700" cy="267.6" fill="#FF8B40" rx="12" ry="12" style="stroke:#181818;stroke-width:1.0;"/><path d="M706.25,261.4437 L700.9375,276.35 L698.6875,276.35 L693.375,261.4437 L695.9063,261.4437 L699.2031,270.8031 Q699.4219,271.3968 699.5781,271.9437 Q699.75,272.4906 699.875,272.9906 Q700.0156,273.475 699.8125,273.5218 Q699.5938,273.4906 699.7344,272.975 Q699.875,272.4593 700.0469,271.9281 Q700.2188,271.3812 700.4219,270.7718 L703.6875,261.4437 L706.25,261.4437 Z " fill="#000000"/><text fill="#000000" font-family="sans-serif" font-size="20" font-style="italic" lengthAdjust="spacing" textLength="126" x="713" y="261.74">«value object»</text><text fill="#000000" font-family="sans-serif" font-size="20" lengthAdjust="spacing" textLength="60" x="746" y="288.9799">Image</text></g><!--class User--><g id="elem_User"><rect codeLine="44" fill="#F5F5DC" height="91.7199" id="User" rx="2.5" ry="2.5" style="stroke:#181818;stroke-width:0.5;" width="100" x="973" y="823.36"/><ellipse cx="989" cy="869.22" fill="#ADD1B2" rx="12" ry="12" style="stroke:#181818;stroke-width:1.0;"/><path d="M993.0469,876.72 L984.4375,876.72 L984.4375,861.8137 L993.0469,861.8137 L993.0469,864.0168 L986.8594,864.0168 L986.8594,867.8606 L992.6875,867.8606 L992.6875,870.0325 L986.8594,870.0325 L986.8594,874.5168 L993.0469,874.5168 L993.0469,876.72 Z " fill="#000000"/><text fill="#000000" font-family="sans-serif" font-size="20" font-style="italic" lengthAdjust="spacing" textLength="70" x="1002" y="849.74">«entity»</text><text fill="#000000" font-family="sans-serif" font-size="20" font-style="italic" lengthAdjust="spacing" textLength="57" x="1008.5" y="876.9799">«root»</text><text fill="#000000" font-family="sans-serif" font-size="20" lengthAdjust="spacing" textLength="44" x="1015" y="904.2199">User</text></g><g id="elem_GMN19"><path d="M748.5,978.36 L748.5,1042.8399 A0,0 0 0 0 748.5,1042.8399 L829.5,1042.8399 A0,0 0 0 0 829.5,1042.8399 L829.5,988.36 L819.5,978.36 L793,978.36 L789,901.55 L785,978.36 L748.5,978.36 A0,0 0 0 0 748.5,978.36 " fill="#FEFFDD" style="stroke:#181818;stroke-width:0.5;"/><path d="M819.5,978.36 L819.5,988.36 L829.5,988.36 L819.5,978.36 " fill="#FEFFDD" style="stroke:#181818;stroke-width:0.5;"/><text fill="#000000" font-family="sans-serif" font-size="20" lengthAdjust="spacing" textLength="51" x="754.5" y="1004.74">READ</text><text fill="#000000" font-family="sans-serif" font-size="20" lengthAdjust="spacing" textLength="60" x="754.5" y="1031.9799">WRITE</text></g><!--link Board to Title--><g id="link_Board_Title"><path codeLine="86" d="M640.82,444.12 C506.22,452.7 142.76,484.07 75,575.36 C41.36,620.68 50.52,651.5 75,702.36 C103.36,761.28 163.95,805.8 212.45,833.82 " fill="none" id="Board-to-Title" style="stroke:#222222;stroke-width:1.0;"/><polygon fill="#222222" points="216.69,836.24,210.866,828.2976,212.3505,833.7562,206.892,835.2408,216.69,836.24" style="stroke:#222222;stroke-width:1.0;"/><text fill="#000000" font-family="sans-serif" font-size="20" lengthAdjust="spacing" textLength="172" x="76" y="646.74">is characterized by</text><text fill="#000000" font-family="sans-serif" font-size="20" lengthAdjust="spacing" textLength="11" x="194.8945" y="823.4654">1</text></g><!--reverse link Board to Column--><g id="link_Board_Column"><path codeLine="87" d="M626.34,443.71 C523.58,448.96 330.27,465.5 288,516.36 C271.27,536.49 277.26,564.45 288.34,588.47 " fill="none" id="Board-backto-Column" style="stroke:#222222;stroke-width:1.0;"/><polygon fill="#222222" points="639.3,443.09,633.1136,439.3848,627.314,443.6702,633.5004,447.3754,639.3,443.09" style="stroke:#222222;stroke-width:1.0;"/><text fill="#000000" font-family="sans-serif" font-size="20" lengthAdjust="spacing" textLength="167" x="289" y="538.74">has a collection of</text><text fill="#000000" font-family="sans-serif" font-size="20" lengthAdjust="spacing" textLength="32" x="250.5314" y="575.0951">1..*</text></g><!--reverse link Board to Row--><g id="link_Board_Row"><path codeLine="88" d="M626.43,447.19 C578.8,455.03 516.21,473.39 480,516.36 C463.31,536.17 457.71,564.39 456.44,588.66 " fill="none" id="Board-backto-Row" style="stroke:#222222;stroke-width:1.0;"/><polygon fill="#222222" points="639.19,445.3,632.6697,442.2201,627.3189,447.0543,633.8392,450.1342,639.19,445.3" style="stroke:#222222;stroke-width:1.0;"/><text fill="#000000" font-family="sans-serif" font-size="20" lengthAdjust="spacing" textLength="167" x="481" y="538.74">has a collection of</text><text fill="#000000" font-family="sans-serif" font-size="20" lengthAdjust="spacing" textLength="32" x="422.062" y="574.9117">1..*</text></g><!--reverse link Board to UserPermission--><g id="link_Board_UserPermission"><path codeLine="89" d="M730.09,498.26 C746.63,522.33 765.95,550.45 782.9,575.12 " fill="none" id="Board-backto-UserPermission" style="stroke:#222222;stroke-width:1.0;"/><polygon fill="#222222" points="722.83,487.69,722.9289,494.9004,729.6227,497.5823,729.5238,490.3719,722.83,487.69" style="stroke:#222222;stroke-width:1.0;"/><text fill="#000000" font-family="sans-serif" font-size="20" lengthAdjust="spacing" textLength="167" x="759" y="538.74">has a collection of</text><text fill="#000000" font-family="sans-serif" font-size="20" lengthAdjust="spacing" textLength="32" x="744.8053" y="561.549">0..*</text></g><!--link UserPermission to PermissionType--><g id="link_UserPermission_PermissionType"><path codeLine="91" d="M794.82,702.69 C791.18,712.42 788.04,722.51 786,732.36 C779.24,765.01 780.85,803.01 783.65,830.53 " fill="none" id="UserPermission-to-PermissionType" style="stroke:#222222;stroke-width:1.0;"/><polygon fill="#222222" points="784.18,835.43,787.206,826.0575,783.6514,830.458,779.2509,826.9033,784.18,835.43" style="stroke:#222222;stroke-width:1.0;"/><text fill="#000000" font-family="sans-serif" font-size="20" lengthAdjust="spacing" textLength="33" x="787" y="754.74">has</text><text fill="#000000" font-family="sans-serif" font-size="20" lengthAdjust="spacing" textLength="11" x="771.6055" y="823.4069">1</text></g><!--link UserPermission to User--><g id="link_UserPermission_User"><path codeLine="92" d="M830.04,702.56 C834.67,724.27 843.71,746.79 861,761.36 C873.31,771.74 918.66,762.04 933,769.36 C955.13,780.65 974.47,799.78 989.5,818.24 " fill="none" id="UserPermission-to-User" style="stroke:#222222;stroke-width:1.0;"/><polygon fill="#222222" points="992.28,821.72,989.7855,812.1923,989.1583,817.8143,983.5363,817.1871,992.28,821.72" style="stroke:#222222;stroke-width:1.0;"/><text fill="#000000" font-family="sans-serif" font-size="20" lengthAdjust="spacing" textLength="98" x="862" y="754.74">belongs to</text><text fill="#000000" font-family="sans-serif" font-size="20" lengthAdjust="spacing" textLength="11" x="977.6998" y="809.6422">1</text></g><!--link Row to Title--><g id="link_Row_Title"><path codeLine="94" d="M450.18,689.32 C444.33,712.66 434.89,740.01 420,761.36 C399.84,790.25 369.59,815.04 342.63,833.46 " fill="none" id="Row-to-Title" style="stroke:#222222;stroke-width:1.0;"/><polygon fill="#222222" points="338.55,836.21,348.2506,834.5074,342.6992,833.42,343.7866,827.8686,338.55,836.21" style="stroke:#222222;stroke-width:1.0;"/><text fill="#000000" font-family="sans-serif" font-size="20" lengthAdjust="spacing" textLength="134" x="437" y="754.74">is identified by</text><text fill="#000000" font-family="sans-serif" font-size="20" lengthAdjust="spacing" textLength="11" x="334.6758" y="823.5475">1</text></g><!--link Column to Title--><g id="link_Column_Title"><path codeLine="96" d="M294.34,689.05 C288.44,702.71 283.01,717.8 280,732.36 C273.24,765.01 274.85,803.01 277.65,830.53 " fill="none" id="Column-to-Title" style="stroke:#222222;stroke-width:1.0;"/><polygon fill="#222222" points="278.18,835.43,281.206,826.0575,277.6514,830.458,273.2509,826.9033,278.18,835.43" style="stroke:#222222;stroke-width:1.0;"/><text fill="#000000" font-family="sans-serif" font-size="20" lengthAdjust="spacing" textLength="134" x="281" y="754.74">is identified by</text><text fill="#000000" font-family="sans-serif" font-size="20" lengthAdjust="spacing" textLength="11" x="265.6055" y="823.4069">1</text></g><!--link Board to User--><g id="link_Board_User"><path codeLine="98" d="M741.5,442.86 C796.82,447.29 884.38,462.97 935,516.36 C975.8,559.39 1004.19,729.54 1016.35,816.54 " fill="none" id="Board-to-User" style="stroke:#222222;stroke-width:1.0;"/><polygon fill="#222222" points="1017.03,821.41,1019.7553,811.9457,1016.3429,816.4574,1011.8312,813.045,1017.03,821.41" style="stroke:#222222;stroke-width:1.0;"/><text fill="#000000" font-family="sans-serif" font-size="20" lengthAdjust="spacing" textLength="110" x="997" y="646.74">is owned by</text><text fill="#000000" font-family="sans-serif" font-size="20" lengthAdjust="spacing" textLength="11" x="1004.786" y="809.6422">1</text></g><!--link Board to Archived--><g id="link_Board_Archived"><path codeLine="99" d="M675.17,486.44 C665.14,515.02 652.09,552.18 641.43,582.53 " fill="none" id="Board-to-Archived" style="stroke:#222222;stroke-width:1.0;"/><polygon fill="#222222" points="639.83,587.08,646.5883,579.9158,641.4881,582.3629,639.041,577.2628,639.83,587.08" style="stroke:#222222;stroke-width:1.0;"/><text fill="#000000" font-family="sans-serif" font-size="20" lengthAdjust="spacing" textLength="15" x="664" y="538.74">is</text><text fill="#000000" font-family="sans-serif" font-size="20" lengthAdjust="spacing" textLength="32" x="607.4921" y="575.1399">0..1</text></g><!--reverse link PostIt to PostItTitle--><g id="link_PostIt_PostItTitle"><path codeLine="101" d="M553.77,100.36 C597.09,100.36 640.41,100.36 683.74,100.36 " fill="none" id="PostIt-backto-PostItTitle" style="stroke:#222222;stroke-width:1.0;"/><polygon fill="#222222" points="540.9,100.36,546.9,104.36,552.9,100.36,546.9,96.36,540.9,100.36" style="stroke:#222222;stroke-width:1.0;"/></g><!--link PostIt to State--><g id="link_PostIt_State"><path codeLine="102" d="M438.79,128.98 C387.34,157.27 307.24,201.33 251.67,231.89 " fill="none" id="PostIt-to-State" style="stroke:#222222;stroke-width:1.0;"/><polygon fill="#222222" points="247.36,234.26,257.1721,233.4104,251.7368,231.8427,253.3045,226.4074,247.36,234.26" style="stroke:#222222;stroke-width:1.0;"/><text fill="#000000" font-family="sans-serif" font-size="20" lengthAdjust="spacing" textLength="33" x="349" y="198.74">has</text><text fill="#000000" font-family="sans-serif" font-size="20" lengthAdjust="spacing" textLength="11" x="243.8984" y="221.4654">1</text></g><!--link PostIt to Board--><g id="link_PostIt_Board"><path codeLine="104" d="M539.39,116.13 C635.93,144.92 839.13,208.11 858,235.36 C880.27,267.51 876.12,288.7 858,323.36 C834.77,367.79 785.92,398.62 747.02,417.27 " fill="none" id="PostIt-to-Board" style="stroke:#222222;stroke-width:1.0;"/><polygon fill="#222222" points="742.73,419.29,752.5764,419.0696,747.2525,417.1576,749.1645,411.8336,742.73,419.29" style="stroke:#222222;stroke-width:1.0;"/><text fill="#000000" font-family="sans-serif" font-size="20" lengthAdjust="spacing" textLength="98" x="874" y="275.24">belongs to</text><text fill="#000000" font-family="sans-serif" font-size="20" lengthAdjust="spacing" textLength="11" x="748.8662" y="409.7856">1</text></g><!--link PostIt to PostIt--><g id="link_PostIt_PostIt"><path codeLine="105" d="M539.19,83.44 C558.24,82.79 574,88.43 574,100.36 C574,110.99 561.5,116.62 545.31,117.27 " fill="none" id="PostIt-to-PostIt" style="stroke:#222222;stroke-width:1.0;"/><polygon fill="#222222" points="540.7,117.28,549.7114,121.2543,545.7,117.2657,549.6885,113.2543,540.7,117.28" style="stroke:#222222;stroke-width:1.0;"/><text fill="#000000" font-family="sans-serif" font-size="20" lengthAdjust="spacing" textLength="80" x="580" y="108.24">previous</text><text fill="#000000" font-family="sans-serif" font-size="20" lengthAdjust="spacing" textLength="32" x="546.8432" y="112.0855">0..1</text></g><!--link PostIt to Description--><g id="link_PostIt_Description"><path codeLine="106" d="M511.41,146.45 C524.31,172.42 540.34,204.66 552.52,229.17 " fill="none" id="PostIt-to-Description" style="stroke:#222222;stroke-width:1.0;"/><polygon fill="#222222" points="554.7,233.56,554.2654,223.7207,552.4697,229.085,547.1054,227.2893,554.7,233.56" style="stroke:#222222;stroke-width:1.0;"/><text fill="#000000" font-family="sans-serif" font-size="20" lengthAdjust="spacing" textLength="33" x="541" y="198.74">has</text><text fill="#000000" font-family="sans-serif" font-size="20" lengthAdjust="spacing" textLength="32" x="517.9336" y="221.3717">0..1</text></g><!--link PostIt to Image--><g id="link_PostIt_Image"><path codeLine="107" d="M539.39,131.82 C586.12,160.06 655.61,202.06 704.49,231.6 " fill="none" id="PostIt-to-Image" style="stroke:#222222;stroke-width:1.0;"/><polygon fill="#222222" points="708.75,234.18,703.1103,226.1057,704.4688,231.597,698.9775,232.9556,708.75,234.18" style="stroke:#222222;stroke-width:1.0;"/><text fill="#000000" font-family="sans-serif" font-size="20" lengthAdjust="spacing" textLength="33" x="659" y="198.74">has</text><text fill="#000000" font-family="sans-serif" font-size="20" lengthAdjust="spacing" textLength="32" x="666.3711" y="221.4303">0..1</text></g><!--link PostIt to Coordinates--><g id="link_PostIt_Coordinates"><path codeLine="108" d="M459.22,146.45 C441.99,172.53 420.58,204.94 404.36,229.48 " fill="none" id="PostIt-to-Coordinates" style="stroke:#222222;stroke-width:1.0;"/><polygon fill="#222222" points="401.61,233.65,409.9012,228.3344,404.3604,229.4745,403.2204,223.9337,401.61,233.65" style="stroke:#222222;stroke-width:1.0;"/><text fill="#000000" font-family="sans-serif" font-size="20" lengthAdjust="spacing" textLength="33" x="439" y="198.74">has</text><text fill="#000000" font-family="sans-serif" font-size="20" lengthAdjust="spacing" textLength="11" x="392.3945" y="221.3717">1</text></g><!--link PostIt to User--><g id="link_PostIt_User"><path codeLine="109" d="M539.3,114.37 C574.7,123.46 623.21,135.83 666,146.36 C774.02,172.95 1152,155.12 1152,266.36 C1152,266.36 1152,266.36 1152,639.86 C1152,708.07 1107.87,774.66 1071.23,818.19 " fill="none" id="PostIt-to-User" style="stroke:#222222;stroke-width:1.0;"/><polygon fill="#222222" points="1068.02,821.96,1076.9049,817.7105,1071.2657,818.1567,1070.8196,812.5174,1068.02,821.96" style="stroke:#222222;stroke-width:1.0;"/><text fill="#000000" font-family="sans-serif" font-size="20" lengthAdjust="spacing" textLength="110" x="1153" y="448.24">is owned by</text><text fill="#000000" font-family="sans-serif" font-size="20" lengthAdjust="spacing" textLength="11" x="1061.2075" y="809.496">1</text></g><!--SRC=[dLLBRzf04BxlhnYHGrjK1nBrK24KYJoGk4L9sfuNUp7Rs3lMxZfH6lM_TtRNnW-WfkK2C_Dzyvx5F4jLSCtp3EDdaK0YDhpCx1ALVPI_15nEsOUjjOMPJIP5nfKjy-myndmIPzoOA94y9J9ZflO3th2mLijrQSKgHkKTJTbM9W94NjWtuBNPjBMvi5jCJD_NDO-VKusbIcumGmrh8LFH0YsqnjTWEhlq7yOAul1Km6W-vscgHSgjkBg2Q-Gw6S4x0n3AIehfDOna7mgUfCr4OoMlPQuQ-G5V6-n2nrlv8ZoxidypGjyBdKjZ9Ae6skYUtWh1VXzDy1wDNTbEXa7LykNbEj6WUxH4tqatY3gHYhlsrhfROM8j2-lIgdMhd3BuhsIESrm7EWodSFYE0vZFWqoC-LmZMlhnte8vrY38psuG5MROXhdi8b1blkwaHiFz6wgr80Jx-FtpsNBvzVhBz1EyyAmKWEkV8lR12VnFwBsv3ljlZVr4zwsbE97HMfaJ6NwXJas-Ffy1l9y2hx0BszkHvh3sHXThGSKw2WbbaLJ2Bdxt9eUo89f2QlOQhSKSSDE_QO27kyKjVVruM3tTKOu9E09ZOKkZw0f65wDg8sOW3SHRUhvYApGzZmcitohaE8e8UNu-7jMhEuCjDy0XnYoZV5onkDb7k_qTX4uzjDUwmopMGzKbz1hdoSUm_evdz6Hdg5835XbpQHxe1lqDqFWsChI2LQKF0xljhU8H35zLkwiUGCKJPhTu3iTOzIADeyxBMcbhl-7IGgcDhJA629qgs_GGjTBCeD3YHM9f3c3Q5nTYxMF2ZUrRBqQT4-y1ZhVd3m00]--></g></svg>