<?xml version="1.0" encoding="UTF-8" standalone="no"?><svg xmlns="http://www.w3.org/2000/svg" xmlns:xlink="http://www.w3.org/1999/xlink" contentStyleType="text/css" height="286px" preserveAspectRatio="none" style="width:430px;height:286px;background:#FFFFFF;" version="1.1" viewBox="0 0 430 286" width="430px" zoomAndPan="magnify"><defs/><g><rect fill="#FFFFFF" height="74.4799" style="stroke:#181818;stroke-width:1.0;" width="10" x="25.5" y="102.24"/><rect fill="#FFFFFF" height="41.24" style="stroke:#181818;stroke-width:1.0;" width="10" x="378.125" y="135.4799"/><line style="stroke:#181818;stroke-width:0.5;stroke-dasharray:5.0,5.0;" x1="30" x2="30" y1="92.24" y2="194.7199"/><line style="stroke:#181818;stroke-width:0.5;stroke-dasharray:5.0,5.0;" x1="382.625" x2="382.625" y1="92.24" y2="194.7199"/><text fill="#000000" font-family="sans-serif" font-size="20" lengthAdjust="spacing" textLength="45" x="5" y="86.38">User</text><ellipse cx="30.5" cy="13.5" fill="#E2E2F0" rx="8" ry="8" style="stroke:#181818;stroke-width:0.5;"/><path d="M30.5,21.5 L30.5,48.5 M17.5,29.5 L43.5,29.5 M30.5,48.5 L17.5,63.5 M30.5,48.5 L43.5,63.5 " fill="none" style="stroke:#181818;stroke-width:0.5;"/><text fill="#000000" font-family="sans-serif" font-size="20" lengthAdjust="spacing" textLength="45" x="5" y="215.0999">User</text><ellipse cx="30.5" cy="229.4599" fill="#E2E2F0" rx="8" ry="8" style="stroke:#181818;stroke-width:0.5;"/><path d="M30.5,237.4599 L30.5,264.4599 M17.5,245.4599 L43.5,245.4599 M30.5,264.4599 L17.5,279.4599 M30.5,264.4599 L43.5,279.4599 " fill="none" style="stroke:#181818;stroke-width:0.5;"/><rect fill="#E2E2F0" height="41.24" rx="2.5" ry="2.5" style="stroke:#181818;stroke-width:0.5;" width="83" x="341.625" y="50"/><text fill="#000000" font-family="sans-serif" font-size="20" lengthAdjust="spacing" textLength="69" x="348.625" y="78.38">System</text><rect fill="#E2E2F0" height="41.24" rx="2.5" ry="2.5" style="stroke:#181818;stroke-width:0.5;" width="83" x="341.625" y="193.7199"/><text fill="#000000" font-family="sans-serif" font-size="20" lengthAdjust="spacing" textLength="69" x="348.625" y="222.0999">System</text><rect fill="#FFFFFF" height="74.4799" style="stroke:#181818;stroke-width:1.0;" width="10" x="25.5" y="102.24"/><rect fill="#FFFFFF" height="41.24" style="stroke:#181818;stroke-width:1.0;" width="10" x="378.125" y="135.4799"/><polygon fill="#181818" points="366.125,131.4799,376.125,135.4799,366.125,139.4799,370.125,135.4799" style="stroke:#181818;stroke-width:1.0;"/><line style="stroke:#181818;stroke-width:1.0;" x1="35.5" x2="372.125" y1="135.4799" y2="135.4799"/><text fill="#000000" font-family="sans-serif" font-size="20" font-weight="bold" lengthAdjust="spacing" textLength="11.625" x="42.5" y="127.62">1</text><text fill="#000000" font-family="sans-serif" font-size="20" lengthAdjust="spacing" textLength="308" x="58.125" y="127.62">asks to list the available courses</text><polygon fill="#181818" points="41.5,172.7199,31.5,176.7199,41.5,180.7199,37.5,176.7199" style="stroke:#181818;stroke-width:1.0;"/><line style="stroke:#181818;stroke-width:1.0;stroke-dasharray:2.0,2.0;" x1="35.5" x2="382.125" y1="176.7199" y2="176.7199"/><text fill="#000000" font-family="sans-serif" font-size="20" font-weight="bold" lengthAdjust="spacing" textLength="11.625" x="47.5" y="168.8599">2</text><text fill="#000000" font-family="sans-serif" font-size="20" lengthAdjust="spacing" textLength="237" x="63.125" y="168.8599">lists all available courses</text><!--SRC=[RSmn3i8m30NGFQUmkbT2Z0oCN23AmEYcHbXraofsaE3q95q0YT7__sTTE6rOS9KS5vfXfXjMiKjEvlb5S3muh9PJNISgpc6qN608IcK0L0YkOUF86oQ3mJ_LQDqRV_Nxd1zer7Okm7ZkAPnQlIXO1c4ri3i1Ff059o68kHOb_SZ-fwknwT1iDmeeyWVDzCE-x-3U]--></g></svg>