<?xml version="1.0" encoding="UTF-8" standalone="no"?><svg xmlns="http://www.w3.org/2000/svg" xmlns:xlink="http://www.w3.org/1999/xlink" contentStyleType="text/css" height="1231px" preserveAspectRatio="none" style="width:974px;height:1231px;background:#FFFFFF;" version="1.1" viewBox="0 0 974 1231" width="974px" zoomAndPan="magnify"><defs/><g><!--class RepositoryFactory--><g id="elem_RepositoryFactory"><rect codeLine="2" fill="#F1F1F1" height="80.4799" id="RepositoryFactory" rx="2.5" ry="2.5" style="stroke:#181818;stroke-width:0.5;" width="206" x="636" y="646"/><ellipse cx="654.25" cy="664.62" fill="#ADD1B2" rx="12" ry="12" style="stroke:#181818;stroke-width:1.0;"/><path d="M654.375,659.2137 Q653.2969,659.2137 652.4375,659.5887 Q651.5781,659.9481 650.9844,660.6512 Q650.3906,661.3387 650.0625,662.3544 Q649.75,663.37 649.75,664.6669 Q649.75,666.37 650.2656,667.6044 Q650.7813,668.8231 651.7969,669.4794 Q652.8125,670.12 654.3594,670.12 Q655.2656,670.12 656.0781,669.9637 Q656.8906,669.8075 658.0781,669.4481 L658.0781,671.6512 Q657.0469,672.0262 656.1719,672.1669 Q655.2969,672.3231 654.0938,672.3231 Q651.8125,672.3231 650.2813,671.3856 Q648.75,670.4325 647.9844,668.6981 Q647.2188,666.9481 647.2188,664.6512 Q647.2188,662.9794 647.6875,661.5887 Q648.1563,660.1981 649.0625,659.1669 Q649.9844,658.12 651.3281,657.5731 Q652.6719,657.0106 654.3906,657.0106 Q655.5313,657.0106 656.5781,657.245 Q657.6406,657.4637 658.7344,658.0262 L657.7656,660.0887 Q656.8438,659.6825 656.0625,659.4481 Q655.2813,659.2137 654.375,659.2137 Z " fill="#000000"/><text fill="#000000" font-family="sans-serif" font-size="20" lengthAdjust="spacing" textLength="167" x="669.75" y="672.38">RepositoryFactory</text><line style="stroke:#181818;stroke-width:0.5;" x1="637" x2="841" y1="683.24" y2="683.24"/><line style="stroke:#181818;stroke-width:0.5;" x1="637" x2="841" y1="691.24" y2="691.24"/><ellipse cx="647" cy="710.36" fill="#84BE84" rx="3" ry="3" style="stroke:#038048;stroke-width:1.0;"/><text fill="#000000" font-family="sans-serif" font-size="20" lengthAdjust="spacing" textLength="179" x="657" y="716.62">RepositoryFactory()</text></g><!--class CourseRepository--><g id="elem_CourseRepository"><rect codeLine="6" fill="#F1F1F1" height="107.7199" id="CourseRepository" rx="2.5" ry="2.5" style="stroke:#181818;stroke-width:0.5;" width="189" x="611.5" y="922"/><ellipse cx="627.5" cy="940.62" fill="#B4A7E5" rx="12" ry="12" style="stroke:#181818;stroke-width:1.0;"/><path d="M630.0781,948.12 L624.2969,948.12 L624.2969,946.5106 L625.9844,946.1356 L625.9844,935.2137 L624.2969,934.8231 L624.2969,933.2137 L630.0781,933.2137 L630.0781,934.8231 L628.4063,935.2137 L628.4063,946.1356 L630.0781,946.5106 L630.0781,948.12 Z " fill="#000000"/><text fill="#000000" font-family="sans-serif" font-size="20" font-style="italic" lengthAdjust="spacing" textLength="155" x="642.5" y="948.38">CourseRepository</text><line style="stroke:#181818;stroke-width:0.5;" x1="612.5" x2="799.5" y1="959.24" y2="959.24"/><line style="stroke:#181818;stroke-width:0.5;" x1="612.5" x2="799.5" y1="967.24" y2="967.24"/><text fill="#000000" font-family="sans-serif" font-size="20" font-style="italic" lengthAdjust="spacing" textLength="159" x="617.5" y="992.62">findAllNotClosed()</text><text fill="#000000" font-family="sans-serif" font-size="20" font-style="italic" lengthAdjust="spacing" textLength="110" x="617.5" y="1019.8599">save(course)</text></g><!--class InMemoryCourseRepository--><g id="elem_InMemoryCourseRepository"><rect codeLine="11" fill="#F1F1F1" height="107.7199" id="InMemoryCourseRepository" rx="2.5" ry="2.5" style="stroke:#181818;stroke-width:0.5;" width="296" x="409" y="1117"/><ellipse cx="425" cy="1135.62" fill="#ADD1B2" rx="12" ry="12" style="stroke:#181818;stroke-width:1.0;"/><path d="M425.125,1130.2137 Q424.0469,1130.2137 423.1875,1130.5887 Q422.3281,1130.9481 421.7344,1131.6512 Q421.1406,1132.3387 420.8125,1133.3544 Q420.5,1134.37 420.5,1135.6669 Q420.5,1137.37 421.0156,1138.6044 Q421.5313,1139.8231 422.5469,1140.4794 Q423.5625,1141.12 425.1094,1141.12 Q426.0156,1141.12 426.8281,1140.9637 Q427.6406,1140.8075 428.8281,1140.4481 L428.8281,1142.6512 Q427.7969,1143.0262 426.9219,1143.1669 Q426.0469,1143.3231 424.8438,1143.3231 Q422.5625,1143.3231 421.0313,1142.3856 Q419.5,1141.4325 418.7344,1139.6981 Q417.9688,1137.9481 417.9688,1135.6512 Q417.9688,1133.9794 418.4375,1132.5887 Q418.9063,1131.1981 419.8125,1130.1669 Q420.7344,1129.12 422.0781,1128.5731 Q423.4219,1128.0106 425.1406,1128.0106 Q426.2813,1128.0106 427.3281,1128.245 Q428.3906,1128.4637 429.4844,1129.0262 L428.5156,1131.0887 Q427.5938,1130.6825 426.8125,1130.4481 Q426.0313,1130.2137 425.125,1130.2137 Z " fill="#000000"/><text fill="#000000" font-family="sans-serif" font-size="20" lengthAdjust="spacing" textLength="262" x="440" y="1143.38">InMemoryCourseRepository</text><line style="stroke:#181818;stroke-width:0.5;" x1="410" x2="704" y1="1154.24" y2="1154.24"/><line style="stroke:#181818;stroke-width:0.5;" x1="410" x2="704" y1="1162.24" y2="1162.24"/><ellipse cx="420" cy="1181.36" fill="#84BE84" rx="3" ry="3" style="stroke:#038048;stroke-width:1.0;"/><text fill="#000000" font-family="sans-serif" font-size="20" lengthAdjust="spacing" textLength="168" x="430" y="1187.62">findAllNotClosed()</text><ellipse cx="420" cy="1208.5999" fill="#84BE84" rx="3" ry="3" style="stroke:#038048;stroke-width:1.0;"/><text fill="#000000" font-family="sans-serif" font-size="20" lengthAdjust="spacing" textLength="117" x="430" y="1214.8599">save(course)</text></g><!--class JpaCourseRepository--><g id="elem_JpaCourseRepository"><rect codeLine="16" fill="#F1F1F1" height="107.7199" id="JpaCourseRepository" rx="2.5" ry="2.5" style="stroke:#181818;stroke-width:0.5;" width="227" x="740.5" y="1117"/><ellipse cx="756.5" cy="1135.62" fill="#ADD1B2" rx="12" ry="12" style="stroke:#181818;stroke-width:1.0;"/><path d="M756.625,1130.2137 Q755.5469,1130.2137 754.6875,1130.5887 Q753.8281,1130.9481 753.2344,1131.6512 Q752.6406,1132.3387 752.3125,1133.3544 Q752,1134.37 752,1135.6669 Q752,1137.37 752.5156,1138.6044 Q753.0313,1139.8231 754.0469,1140.4794 Q755.0625,1141.12 756.6094,1141.12 Q757.5156,1141.12 758.3281,1140.9637 Q759.1406,1140.8075 760.3281,1140.4481 L760.3281,1142.6512 Q759.2969,1143.0262 758.4219,1143.1669 Q757.5469,1143.3231 756.3438,1143.3231 Q754.0625,1143.3231 752.5313,1142.3856 Q751,1141.4325 750.2344,1139.6981 Q749.4688,1137.9481 749.4688,1135.6512 Q749.4688,1133.9794 749.9375,1132.5887 Q750.4063,1131.1981 751.3125,1130.1669 Q752.2344,1129.12 753.5781,1128.5731 Q754.9219,1128.0106 756.6406,1128.0106 Q757.7813,1128.0106 758.8281,1128.245 Q759.8906,1128.4637 760.9844,1129.0262 L760.0156,1131.0887 Q759.0938,1130.6825 758.3125,1130.4481 Q757.5313,1130.2137 756.625,1130.2137 Z " fill="#000000"/><text fill="#000000" font-family="sans-serif" font-size="20" lengthAdjust="spacing" textLength="193" x="771.5" y="1143.38">JpaCourseRepository</text><line style="stroke:#181818;stroke-width:0.5;" x1="741.5" x2="966.5" y1="1154.24" y2="1154.24"/><line style="stroke:#181818;stroke-width:0.5;" x1="741.5" x2="966.5" y1="1162.24" y2="1162.24"/><ellipse cx="751.5" cy="1181.36" fill="#84BE84" rx="3" ry="3" style="stroke:#038048;stroke-width:1.0;"/><text fill="#000000" font-family="sans-serif" font-size="20" lengthAdjust="spacing" textLength="168" x="761.5" y="1187.62">findAllNotClosed()</text><ellipse cx="751.5" cy="1208.5999" fill="#84BE84" rx="3" ry="3" style="stroke:#038048;stroke-width:1.0;"/><text fill="#000000" font-family="sans-serif" font-size="20" lengthAdjust="spacing" textLength="117" x="761.5" y="1214.8599">save(course)</text></g><!--class PersistenceContext--><g id="elem_PersistenceContext"><rect codeLine="21" fill="#F1F1F1" height="80.4799" id="PersistenceContext" rx="2.5" ry="2.5" style="stroke:#181818;stroke-width:0.5;" width="214" x="636" y="342.5"/><ellipse cx="652" cy="361.12" fill="#ADD1B2" rx="12" ry="12" style="stroke:#181818;stroke-width:1.0;"/><path d="M652.125,355.7137 Q651.0469,355.7137 650.1875,356.0887 Q649.3281,356.4481 648.7344,357.1512 Q648.1406,357.8387 647.8125,358.8544 Q647.5,359.87 647.5,361.1669 Q647.5,362.87 648.0156,364.1044 Q648.5313,365.3231 649.5469,365.9794 Q650.5625,366.62 652.1094,366.62 Q653.0156,366.62 653.8281,366.4637 Q654.6406,366.3075 655.8281,365.9481 L655.8281,368.1512 Q654.7969,368.5262 653.9219,368.6669 Q653.0469,368.8231 651.8438,368.8231 Q649.5625,368.8231 648.0313,367.8856 Q646.5,366.9325 645.7344,365.1981 Q644.9688,363.4481 644.9688,361.1512 Q644.9688,359.4794 645.4375,358.0887 Q645.9063,356.6981 646.8125,355.6669 Q647.7344,354.62 649.0781,354.0731 Q650.4219,353.5106 652.1406,353.5106 Q653.2813,353.5106 654.3281,353.745 Q655.3906,353.9637 656.4844,354.5262 L655.5156,356.5887 Q654.5938,356.1825 653.8125,355.9481 Q653.0313,355.7137 652.125,355.7137 Z " fill="#000000"/><text fill="#000000" font-family="sans-serif" font-size="20" lengthAdjust="spacing" textLength="180" x="667" y="368.88">PersistenceContext</text><line style="stroke:#181818;stroke-width:0.5;" x1="637" x2="849" y1="379.74" y2="379.74"/><line style="stroke:#181818;stroke-width:0.5;" x1="637" x2="849" y1="387.74" y2="387.74"/><rect fill="#F24D5C" height="6" style="stroke:#C82930;stroke-width:1.0;" width="6" x="644" y="403.86"/><text fill="#000000" font-family="sans-serif" font-size="20" lengthAdjust="spacing" textLength="123" x="657" y="413.12">repositories()</text></g><!--class CourseService--><g id="elem_CourseService"><rect codeLine="25" fill="#F1F1F1" height="189.4398" id="CourseService" rx="2.5" ry="2.5" style="stroke:#181818;stroke-width:0.5;" width="333" x="267.5" y="288"/><ellipse cx="363.5" cy="306.62" fill="#ADD1B2" rx="12" ry="12" style="stroke:#181818;stroke-width:1.0;"/><path d="M363.625,301.2137 Q362.5469,301.2137 361.6875,301.5887 Q360.8281,301.9481 360.2344,302.6512 Q359.6406,303.3387 359.3125,304.3544 Q359,305.37 359,306.6669 Q359,308.37 359.5156,309.6044 Q360.0313,310.8231 361.0469,311.4794 Q362.0625,312.12 363.6094,312.12 Q364.5156,312.12 365.3281,311.9637 Q366.1406,311.8075 367.3281,311.4481 L367.3281,313.6512 Q366.2969,314.0262 365.4219,314.1669 Q364.5469,314.3231 363.3438,314.3231 Q361.0625,314.3231 359.5313,313.3856 Q358,312.4325 357.2344,310.6981 Q356.4688,308.9481 356.4688,306.6512 Q356.4688,304.9794 356.9375,303.5887 Q357.4063,302.1981 358.3125,301.1669 Q359.2344,300.12 360.5781,299.5731 Q361.9219,299.0106 363.6406,299.0106 Q364.7813,299.0106 365.8281,299.245 Q366.8906,299.4637 367.9844,300.0262 L367.0156,302.0887 Q366.0938,301.6825 365.3125,301.4481 Q364.5313,301.2137 363.625,301.2137 Z " fill="#000000"/><text fill="#000000" font-family="sans-serif" font-size="20" lengthAdjust="spacing" textLength="132" x="385.5" y="314.38">CourseService</text><line style="stroke:#181818;stroke-width:0.5;" x1="268.5" x2="599.5" y1="325.24" y2="325.24"/><line style="stroke:#181818;stroke-width:0.5;" x1="268.5" x2="599.5" y1="333.24" y2="333.24"/><ellipse cx="278.5" cy="352.36" fill="#84BE84" rx="3" ry="3" style="stroke:#038048;stroke-width:1.0;"/><text fill="#000000" font-family="sans-serif" font-size="20" lengthAdjust="spacing" textLength="306" x="288.5" y="358.62">CourseService(courseRepository)</text><text fill="#000000" font-family="sans-serif" font-size="20" lengthAdjust="spacing" textLength="5" x="288.5" y="385.8599"> </text><ellipse cx="278.5" cy="406.8399" fill="#84BE84" rx="3" ry="3" style="stroke:#038048;stroke-width:1.0;"/><text fill="#000000" font-family="sans-serif" font-size="20" lengthAdjust="spacing" textLength="212" x="288.5" y="413.0999">listNotClosedCourses()</text><ellipse cx="278.5" cy="434.0799" fill="#84BE84" rx="3" ry="3" style="stroke:#038048;stroke-width:1.0;"/><text fill="#000000" font-family="sans-serif" font-size="20" lengthAdjust="spacing" textLength="278" x="288.5" y="440.3399">toggleEnrolmentState(course)</text><ellipse cx="278.5" cy="461.3199" fill="#84BE84" rx="3" ry="3" style="stroke:#038048;stroke-width:1.0;"/><text fill="#000000" font-family="sans-serif" font-size="20" lengthAdjust="spacing" textLength="117" x="288.5" y="467.5799">save(course)</text></g><!--class Course--><g id="elem_Course"><rect codeLine="33" fill="#F1F1F1" height="298.3997" id="Course" rx="2.5" ry="2.5" style="stroke:#181818;stroke-width:0.5;" width="242" x="284" y="537"/><ellipse cx="367.5" cy="555.62" fill="#ADD1B2" rx="12" ry="12" style="stroke:#181818;stroke-width:1.0;"/><path d="M367.625,550.2137 Q366.5469,550.2137 365.6875,550.5887 Q364.8281,550.9481 364.2344,551.6512 Q363.6406,552.3387 363.3125,553.3544 Q363,554.37 363,555.6669 Q363,557.37 363.5156,558.6044 Q364.0313,559.8231 365.0469,560.4794 Q366.0625,561.12 367.6094,561.12 Q368.5156,561.12 369.3281,560.9637 Q370.1406,560.8075 371.3281,560.4481 L371.3281,562.6512 Q370.2969,563.0262 369.4219,563.1669 Q368.5469,563.3231 367.3438,563.3231 Q365.0625,563.3231 363.5313,562.3856 Q362,561.4325 361.2344,559.6981 Q360.4688,557.9481 360.4688,555.6512 Q360.4688,553.9794 360.9375,552.5887 Q361.4063,551.1981 362.3125,550.1669 Q363.2344,549.12 364.5781,548.5731 Q365.9219,548.0106 367.6406,548.0106 Q368.7813,548.0106 369.8281,548.245 Q370.8906,548.4637 371.9844,549.0262 L371.0156,551.0887 Q370.0938,550.6825 369.3125,550.4481 Q368.5313,550.2137 367.625,550.2137 Z " fill="#000000"/><text fill="#000000" font-family="sans-serif" font-size="20" lengthAdjust="spacing" textLength="66" x="389.5" y="563.38">Course</text><line style="stroke:#181818;stroke-width:0.5;" x1="285" x2="525" y1="574.24" y2="574.24"/><rect fill="none" height="6" style="stroke:#C82930;stroke-width:1.0;" width="6" x="292" y="590.36"/><text fill="#000000" font-family="sans-serif" font-size="20" lengthAdjust="spacing" textLength="45" x="305" y="599.62">code</text><rect fill="none" height="6" style="stroke:#C82930;stroke-width:1.0;" width="6" x="292" y="617.5999"/><text fill="#000000" font-family="sans-serif" font-size="20" lengthAdjust="spacing" textLength="35" x="305" y="626.8599">title</text><rect fill="none" height="6" style="stroke:#C82930;stroke-width:1.0;" width="6" x="292" y="644.8399"/><text fill="#000000" font-family="sans-serif" font-size="20" lengthAdjust="spacing" textLength="104" x="305" y="654.0999">description</text><rect fill="none" height="6" style="stroke:#C82930;stroke-width:1.0;" width="6" x="292" y="672.0799"/><text fill="#000000" font-family="sans-serif" font-size="20" lengthAdjust="spacing" textLength="153" x="305" y="681.3399">enrolmentLimits</text><rect fill="none" height="6" style="stroke:#C82930;stroke-width:1.0;" width="6" x="292" y="699.3199"/><text fill="#000000" font-family="sans-serif" font-size="20" lengthAdjust="spacing" textLength="110" x="305" y="708.5799">courseState</text><rect fill="none" height="6" style="stroke:#C82930;stroke-width:1.0;" width="6" x="292" y="726.5598"/><text fill="#000000" font-family="sans-serif" font-size="20" lengthAdjust="spacing" textLength="207" x="305" y="735.8198">courseEnrolmentState</text><rect fill="none" height="6" style="stroke:#C82930;stroke-width:1.0;" width="6" x="292" y="753.7998"/><text fill="#000000" font-family="sans-serif" font-size="20" lengthAdjust="spacing" textLength="90" x="305" y="763.0598">createdAt</text><line style="stroke:#181818;stroke-width:0.5;" x1="285" x2="525" y1="772.9198" y2="772.9198"/><ellipse cx="295" cy="792.0398" fill="#84BE84" rx="3" ry="3" style="stroke:#038048;stroke-width:1.0;"/><text fill="#000000" font-family="sans-serif" font-size="20" lengthAdjust="spacing" textLength="215" x="305" y="798.2998">toggleEnrolmentState()</text><ellipse cx="295" cy="819.2798" fill="#84BE84" rx="3" ry="3" style="stroke:#038048;stroke-width:1.0;"/><text fill="#000000" font-family="sans-serif" font-size="20" lengthAdjust="spacing" textLength="65" x="305" y="825.5398">toDto()</text></g><!--class CourseState--><g id="elem_CourseState"><rect codeLine="46" fill="#F1F1F1" height="162.1999" id="CourseState" rx="2.5" ry="2.5" style="stroke:#181818;stroke-width:0.5;" width="147" x="364.5" y="895"/><ellipse cx="380.5" cy="913.62" fill="#EB937F" rx="12" ry="12" style="stroke:#181818;stroke-width:1.0;"/><path d="M384.5469,921.12 L375.9375,921.12 L375.9375,906.2137 L384.5469,906.2137 L384.5469,908.4169 L378.3594,908.4169 L378.3594,912.2606 L384.1875,912.2606 L384.1875,914.4325 L378.3594,914.4325 L378.3594,918.9169 L384.5469,918.9169 L384.5469,921.12 Z " fill="#000000"/><text fill="#000000" font-family="sans-serif" font-size="20" lengthAdjust="spacing" textLength="113" x="395.5" y="921.38">CourseState</text><line style="stroke:#181818;stroke-width:0.5;" x1="365.5" x2="510.5" y1="932.24" y2="932.24"/><text fill="#000000" font-family="sans-serif" font-size="20" lengthAdjust="spacing" textLength="76" x="370.5" y="957.62">CLOSED</text><text fill="#000000" font-family="sans-serif" font-size="20" lengthAdjust="spacing" textLength="54" x="370.5" y="984.8599">OPEN</text><text fill="#000000" font-family="sans-serif" font-size="20" lengthAdjust="spacing" textLength="131" x="370.5" y="1012.0999">IN_PROGRESS</text><text fill="#000000" font-family="sans-serif" font-size="20" lengthAdjust="spacing" textLength="91" x="370.5" y="1039.3399">FINISHED</text><line style="stroke:#181818;stroke-width:0.5;" x1="365.5" x2="510.5" y1="1049.1999" y2="1049.1999"/></g><!--class CourseEnrolmentState--><g id="elem_CourseEnrolmentState"><rect codeLine="53" fill="#F1F1F1" height="107.7199" id="CourseEnrolmentState" rx="2.5" ry="2.5" style="stroke:#181818;stroke-width:0.5;" width="244" x="85" y="922"/><ellipse cx="101" cy="940.62" fill="#EB937F" rx="12" ry="12" style="stroke:#181818;stroke-width:1.0;"/><path d="M105.0469,948.12 L96.4375,948.12 L96.4375,933.2137 L105.0469,933.2137 L105.0469,935.4169 L98.8594,935.4169 L98.8594,939.2606 L104.6875,939.2606 L104.6875,941.4325 L98.8594,941.4325 L98.8594,945.9169 L105.0469,945.9169 L105.0469,948.12 Z " fill="#000000"/><text fill="#000000" font-family="sans-serif" font-size="20" lengthAdjust="spacing" textLength="210" x="116" y="948.38">CourseEnrolmentState</text><line style="stroke:#181818;stroke-width:0.5;" x1="86" x2="328" y1="959.24" y2="959.24"/><text fill="#000000" font-family="sans-serif" font-size="20" lengthAdjust="spacing" textLength="54" x="91" y="984.62">OPEN</text><text fill="#000000" font-family="sans-serif" font-size="20" lengthAdjust="spacing" textLength="76" x="91" y="1011.8599">CLOSED</text><line style="stroke:#181818;stroke-width:0.5;" x1="86" x2="328" y1="1021.7199" y2="1021.7199"/></g><!--class CourseDTO--><g id="elem_CourseDTO"><rect codeLine="58" fill="#F1F1F1" height="243.9198" id="CourseDTO" rx="2.5" ry="2.5" style="stroke:#181818;stroke-width:0.5;" width="234" x="7" y="564"/><ellipse cx="65.5" cy="582.62" fill="#ADD1B2" rx="12" ry="12" style="stroke:#181818;stroke-width:1.0;"/><path d="M65.625,577.2137 Q64.5469,577.2137 63.6875,577.5887 Q62.8281,577.9481 62.2344,578.6512 Q61.6406,579.3387 61.3125,580.3544 Q61,581.37 61,582.6669 Q61,584.37 61.5156,585.6044 Q62.0313,586.8231 63.0469,587.4794 Q64.0625,588.12 65.6094,588.12 Q66.5156,588.12 67.3281,587.9637 Q68.1406,587.8075 69.3281,587.4481 L69.3281,589.6512 Q68.2969,590.0262 67.4219,590.1669 Q66.5469,590.3231 65.3438,590.3231 Q63.0625,590.3231 61.5313,589.3856 Q60,588.4325 59.2344,586.6981 Q58.4688,584.9481 58.4688,582.6512 Q58.4688,580.9794 58.9375,579.5887 Q59.4063,578.1981 60.3125,577.1669 Q61.2344,576.12 62.5781,575.5731 Q63.9219,575.0106 65.6406,575.0106 Q66.7813,575.0106 67.8281,575.245 Q68.8906,575.4637 69.9844,576.0262 L69.0156,578.0887 Q68.0938,577.6825 67.3125,577.4481 Q66.5313,577.2137 65.625,577.2137 Z " fill="#000000"/><text fill="#000000" font-family="sans-serif" font-size="20" lengthAdjust="spacing" textLength="108" x="87.5" y="590.38">CourseDTO</text><line style="stroke:#181818;stroke-width:0.5;" x1="8" x2="240" y1="601.24" y2="601.24"/><rect fill="none" height="6" style="stroke:#C82930;stroke-width:1.0;" width="6" x="15" y="617.36"/><text fill="#000000" font-family="sans-serif" font-size="20" lengthAdjust="spacing" textLength="45" x="28" y="626.62">code</text><rect fill="none" height="6" style="stroke:#C82930;stroke-width:1.0;" width="6" x="15" y="644.5999"/><text fill="#000000" font-family="sans-serif" font-size="20" lengthAdjust="spacing" textLength="35" x="28" y="653.8599">title</text><rect fill="none" height="6" style="stroke:#C82930;stroke-width:1.0;" width="6" x="15" y="671.8399"/><text fill="#000000" font-family="sans-serif" font-size="20" lengthAdjust="spacing" textLength="104" x="28" y="681.0999">description</text><rect fill="none" height="6" style="stroke:#C82930;stroke-width:1.0;" width="6" x="15" y="699.0799"/><text fill="#000000" font-family="sans-serif" font-size="20" lengthAdjust="spacing" textLength="153" x="28" y="708.3399">enrolmentLimits</text><rect fill="none" height="6" style="stroke:#C82930;stroke-width:1.0;" width="6" x="15" y="726.3199"/><text fill="#000000" font-family="sans-serif" font-size="20" lengthAdjust="spacing" textLength="110" x="28" y="735.5799">courseState</text><rect fill="none" height="6" style="stroke:#C82930;stroke-width:1.0;" width="6" x="15" y="753.5598"/><text fill="#000000" font-family="sans-serif" font-size="20" lengthAdjust="spacing" textLength="207" x="28" y="762.8198">courseEnrolmentState</text><rect fill="none" height="6" style="stroke:#C82930;stroke-width:1.0;" width="6" x="15" y="780.7998"/><text fill="#000000" font-family="sans-serif" font-size="20" lengthAdjust="spacing" textLength="90" x="28" y="790.0598">createdAt</text><line style="stroke:#181818;stroke-width:0.5;" x1="8" x2="240" y1="799.9198" y2="799.9198"/></g><!--class CourseDTOParser--><g id="elem_CourseDTOParser"><rect codeLine="68" fill="#F1F1F1" height="80.4799" id="CourseDTOParser" rx="2.5" ry="2.5" style="stroke:#181818;stroke-width:0.5;" width="216" x="16" y="342.5"/><ellipse cx="38.3" cy="361.12" fill="#ADD1B2" rx="12" ry="12" style="stroke:#181818;stroke-width:1.0;"/><path d="M38.425,355.7137 Q37.3469,355.7137 36.4875,356.0887 Q35.6281,356.4481 35.0344,357.1512 Q34.4406,357.8387 34.1125,358.8544 Q33.8,359.87 33.8,361.1669 Q33.8,362.87 34.3156,364.1044 Q34.8313,365.3231 35.8469,365.9794 Q36.8625,366.62 38.4094,366.62 Q39.3156,366.62 40.1281,366.4637 Q40.9406,366.3075 42.1281,365.9481 L42.1281,368.1512 Q41.0969,368.5262 40.2219,368.6669 Q39.3469,368.8231 38.1438,368.8231 Q35.8625,368.8231 34.3313,367.8856 Q32.8,366.9325 32.0344,365.1981 Q31.2687,363.4481 31.2687,361.1512 Q31.2687,359.4794 31.7375,358.0887 Q32.2063,356.6981 33.1125,355.6669 Q34.0344,354.62 35.3781,354.0731 Q36.7219,353.5106 38.4406,353.5106 Q39.5813,353.5106 40.6281,353.745 Q41.6906,353.9637 42.7844,354.5262 L41.8156,356.5887 Q40.8938,356.1825 40.1125,355.9481 Q39.3313,355.7137 38.425,355.7137 Z " fill="#000000"/><text fill="#000000" font-family="sans-serif" font-size="20" lengthAdjust="spacing" textLength="168" x="54.7" y="368.88">CourseDTOParser</text><line style="stroke:#181818;stroke-width:0.5;" x1="17" x2="231" y1="379.74" y2="379.74"/><line style="stroke:#181818;stroke-width:0.5;" x1="17" x2="231" y1="387.74" y2="387.74"/><ellipse cx="27" cy="406.86" fill="#84BE84" rx="3" ry="3" style="stroke:#038048;stroke-width:1.0;"/><text fill="#000000" font-family="sans-serif" font-size="20" lengthAdjust="spacing" textLength="189" x="37" y="413.12">valueOf(courseDTO)</text></g><!--class ListAvailableCoursesController--><g id="elem_ListAvailableCoursesController"><rect codeLine="72" fill="#F1F1F1" height="107.7199" id="ListAvailableCoursesController" rx="2.5" ry="2.5" style="stroke:#181818;stroke-width:0.5;" width="318" x="429" y="120"/><ellipse cx="445" cy="138.62" fill="#ADD1B2" rx="12" ry="12" style="stroke:#181818;stroke-width:1.0;"/><path d="M445.125,133.2137 Q444.0469,133.2137 443.1875,133.5887 Q442.3281,133.9481 441.7344,134.6512 Q441.1406,135.3387 440.8125,136.3544 Q440.5,137.37 440.5,138.6669 Q440.5,140.37 441.0156,141.6044 Q441.5313,142.8231 442.5469,143.4794 Q443.5625,144.12 445.1094,144.12 Q446.0156,144.12 446.8281,143.9637 Q447.6406,143.8075 448.8281,143.4481 L448.8281,145.6512 Q447.7969,146.0262 446.9219,146.1669 Q446.0469,146.3231 444.8438,146.3231 Q442.5625,146.3231 441.0313,145.3856 Q439.5,144.4325 438.7344,142.6981 Q437.9688,140.9481 437.9688,138.6512 Q437.9688,136.9794 438.4375,135.5887 Q438.9063,134.1981 439.8125,133.1669 Q440.7344,132.12 442.0781,131.5731 Q443.4219,131.0106 445.1406,131.0106 Q446.2813,131.0106 447.3281,131.245 Q448.3906,131.4637 449.4844,132.0262 L448.5156,134.0887 Q447.5938,133.6825 446.8125,133.4481 Q446.0313,133.2137 445.125,133.2137 Z " fill="#000000"/><text fill="#000000" font-family="sans-serif" font-size="20" lengthAdjust="spacing" textLength="284" x="460" y="146.38">ListAvailableCoursesController</text><line style="stroke:#181818;stroke-width:0.5;" x1="430" x2="746" y1="157.24" y2="157.24"/><line style="stroke:#181818;stroke-width:0.5;" x1="430" x2="746" y1="165.24" y2="165.24"/><ellipse cx="440" cy="184.36" fill="#84BE84" rx="3" ry="3" style="stroke:#038048;stroke-width:1.0;"/><text fill="#000000" font-family="sans-serif" font-size="20" lengthAdjust="spacing" textLength="212" x="450" y="190.62">listNotClosedCourses()</text><ellipse cx="440" cy="211.5999" fill="#84BE84" rx="3" ry="3" style="stroke:#038048;stroke-width:1.0;"/><text fill="#000000" font-family="sans-serif" font-size="20" lengthAdjust="spacing" textLength="278" x="450" y="217.8599">toggleEnrolmentState(course)</text></g><!--class ListAvailableCoursesUI--><g id="elem_ListAvailableCoursesUI"><rect codeLine="77" fill="#F1F1F1" height="53.24" id="ListAvailableCoursesUI" rx="2.5" ry="2.5" style="stroke:#181818;stroke-width:0.5;" width="247" x="464.5" y="7"/><ellipse cx="480.5" cy="25.62" fill="#ADD1B2" rx="12" ry="12" style="stroke:#181818;stroke-width:1.0;"/><path d="M480.625,20.2137 Q479.5469,20.2137 478.6875,20.5887 Q477.8281,20.9481 477.2344,21.6512 Q476.6406,22.3387 476.3125,23.3544 Q476,24.37 476,25.6669 Q476,27.37 476.5156,28.6044 Q477.0313,29.8231 478.0469,30.4794 Q479.0625,31.12 480.6094,31.12 Q481.5156,31.12 482.3281,30.9637 Q483.1406,30.8075 484.3281,30.4481 L484.3281,32.6512 Q483.2969,33.0262 482.4219,33.1669 Q481.5469,33.3231 480.3438,33.3231 Q478.0625,33.3231 476.5313,32.3856 Q475,31.4325 474.2344,29.6981 Q473.4688,27.9481 473.4688,25.6512 Q473.4688,23.9794 473.9375,22.5887 Q474.4063,21.1981 475.3125,20.1669 Q476.2344,19.12 477.5781,18.5731 Q478.9219,18.0106 480.6406,18.0106 Q481.7813,18.0106 482.8281,18.245 Q483.8906,18.4637 484.9844,19.0262 L484.0156,21.0887 Q483.0938,20.6825 482.3125,20.4481 Q481.5313,20.2137 480.625,20.2137 Z " fill="#000000"/><text fill="#000000" font-family="sans-serif" font-size="20" lengthAdjust="spacing" textLength="213" x="495.5" y="33.38">ListAvailableCoursesUI</text><line style="stroke:#181818;stroke-width:0.5;" x1="465.5" x2="710.5" y1="44.24" y2="44.24"/><line style="stroke:#181818;stroke-width:0.5;" x1="465.5" x2="710.5" y1="52.24" y2="52.24"/></g><!--link ListAvailableCoursesUI to ListAvailableCoursesController--><g id="link_ListAvailableCoursesUI_ListAvailableCoursesController"><path codeLine="79" d="M588,60.23 C588,75.2 588,94.73 588,113.33 " fill="none" id="ListAvailableCoursesUI-to-ListAvailableCoursesController" style="stroke:#181818;stroke-width:1.0;stroke-dasharray:7.0,7.0;"/><polygon fill="#181818" points="588,118.07,592,109.07,588,113.07,584,109.07,588,118.07" style="stroke:#181818;stroke-width:1.0;"/></g><!--link ListAvailableCoursesController to PersistenceContext--><g id="link_ListAvailableCoursesController_PersistenceContext"><path codeLine="80" d="M628.12,228.45 C653.49,262.25 685.89,305.42 709.81,337.29 " fill="none" id="ListAvailableCoursesController-to-PersistenceContext" style="stroke:#181818;stroke-width:1.0;stroke-dasharray:7.0,7.0;"/><polygon fill="#181818" points="712.67,341.09,710.47,331.49,709.67,337.09,704.07,336.29,712.67,341.09" style="stroke:#181818;stroke-width:1.0;"/></g><!--link ListAvailableCoursesController to CourseService--><g id="link_ListAvailableCoursesController_CourseService"><path codeLine="81" d="M548.14,228.45 C535.65,245.19 521.45,264.24 507.41,283.07 " fill="none" id="ListAvailableCoursesController-to-CourseService" style="stroke:#181818;stroke-width:1.0;"/><polygon fill="#181818" points="504.75,286.63,513.3307,281.7957,507.734,282.618,506.9116,277.0213,504.75,286.63" style="stroke:#181818;stroke-width:1.0;"/></g><!--link PersistenceContext to RepositoryFactory--><g id="link_PersistenceContext_RepositoryFactory"><path codeLine="82" d="M742.48,422.92 C741.74,478.67 740.39,580.32 739.61,639.3 " fill="none" id="PersistenceContext-to-RepositoryFactory" style="stroke:#181818;stroke-width:1.0;stroke-dasharray:7.0,7.0;"/><polygon fill="#181818" points="739.54,644.06,743.6426,635.1063,739.5971,639.0603,735.6431,635.0149,739.54,644.06" style="stroke:#181818;stroke-width:1.0;"/></g><!--link RepositoryFactory to CourseRepository--><g id="link_RepositoryFactory_CourseRepository"><path codeLine="83" d="M734.48,726.44 C728.9,775.17 719.34,858.56 712.85,915.18 " fill="none" id="RepositoryFactory-to-CourseRepository" style="stroke:#181818;stroke-width:1.0;"/><polygon fill="#181818" points="712.29,920.1,717.2916,911.6156,712.861,915.1327,709.3439,910.7021,712.29,920.1" style="stroke:#181818;stroke-width:1.0;"/></g><!--link CourseService to Course--><g id="link_CourseService_Course"><path codeLine="85" d="M424.98,477.24 C423.35,494.17 421.62,512.23 419.87,530.35 " fill="none" id="CourseService-to-Course" style="stroke:#181818;stroke-width:1.0;stroke-dasharray:7.0,7.0;"/><polygon fill="#181818" points="419.43,535,424.2862,526.4316,419.9162,530.0237,416.3241,525.6537,419.43,535" style="stroke:#181818;stroke-width:1.0;"/></g><!--link CourseService to CourseRepository--><g id="link_CourseService_CourseRepository"><path codeLine="86" d="M508.68,477.19 C521.46,496.23 533.63,516.67 543,537 C600.18,661.03 564.33,709.41 618,835 C630.01,863.1 647.25,892.04 663.29,916.26 " fill="none" id="CourseService-to-CourseRepository" style="stroke:#181818;stroke-width:1.0;stroke-dasharray:7.0,7.0;"/><polygon fill="#181818" points="666.06,920.41,664.3728,910.7067,663.2766,916.2563,657.727,915.1601,666.06,920.41" style="stroke:#181818;stroke-width:1.0;"/></g><!--link CourseDTOParser to CourseDTO--><g id="link_CourseDTOParser_CourseDTO"><path codeLine="88" d="M124,422.92 C124,457.21 124,508.87 124,557.29 " fill="none" id="CourseDTOParser-to-CourseDTO" style="stroke:#181818;stroke-width:1.0;stroke-dasharray:7.0,7.0;"/><polygon fill="#181818" points="124,562.28,128,553.28,124,557.28,120,553.28,124,562.28" style="stroke:#181818;stroke-width:1.0;"/></g><!--link CourseDTOParser to Course--><g id="link_CourseDTOParser_Course"><path codeLine="89" d="M160.74,422.92 C191.08,455.48 236.02,503.7 279.11,549.93 " fill="none" id="CourseDTOParser-to-Course" style="stroke:#181818;stroke-width:1.0;stroke-dasharray:7.0,7.0;"/><polygon fill="#181818" points="282.51,553.58,279.2921,544.2717,279.0979,549.9252,273.4444,549.731,282.51,553.58" style="stroke:#181818;stroke-width:1.0;"/></g><!--reverse link CourseRepository to InMemoryCourseRepository--><g id="link_CourseRepository_InMemoryCourseRepository"><path codeLine="91" d="M651.77,1047.24 C634.11,1070.13 614.79,1095.14 598.23,1116.59 " fill="none" id="CourseRepository-backto-InMemoryCourseRepository" style="stroke:#181818;stroke-width:1.0;stroke-dasharray:7.0,7.0;"/><polygon fill="none" points="646.2,1043,663.97,1031.45,657.28,1051.56,646.2,1043" style="stroke:#181818;stroke-width:1.0;"/></g><!--reverse link CourseRepository to JpaCourseRepository--><g id="link_CourseRepository_JpaCourseRepository"><path codeLine="92" d="M759.86,1047.24 C777.41,1070.13 796.6,1095.14 813.04,1116.59 " fill="none" id="CourseRepository-backto-JpaCourseRepository" style="stroke:#181818;stroke-width:1.0;stroke-dasharray:7.0,7.0;"/><polygon fill="none" points="754.37,1051.58,747.75,1031.45,765.48,1043.06,754.37,1051.58" style="stroke:#181818;stroke-width:1.0;"/></g><!--link Course to CourseState--><g id="link_Course_CourseState"><path codeLine="94" d="M421.98,835.22 C424.08,853.51 426.16,871.71 428.1,888.63 " fill="none" id="Course-to-CourseState" style="stroke:#181818;stroke-width:1.0;"/><polygon fill="#181818" points="428.64,893.31,431.5861,883.9121,428.069,888.3427,423.6384,884.8256,428.64,893.31" style="stroke:#181818;stroke-width:1.0;"/></g><!--link Course to CourseEnrolmentState--><g id="link_Course_CourseEnrolmentState"><path codeLine="95" d="M303.1,835.22 C283.28,864.05 263.61,892.65 247.28,916.4 " fill="none" id="Course-to-CourseEnrolmentState" style="stroke:#181818;stroke-width:1.0;"/><polygon fill="#181818" points="244.5,920.46,252.8949,915.3097,247.3326,916.3398,246.3026,910.7775,244.5,920.46" style="stroke:#181818;stroke-width:1.0;"/></g><!--SRC=[lLHDRzim3BthL-YO8aWmz3mK2FAnkSZY8DxEWsepXL1P2YGcs9Rrlu-MvDgkumOeYfqaaNoFJnH5zoJrGLXHAfC_GS4Bs8kZmfNHcCa_m6y_CPOhuHpVmS4uYSR-NecyMlYPSJxksqStx9angH7iNkJ0v-Pe7JHX7dSM3muj0PxvNkfYfjJ6u5mP1mNXEtudJZ3AFObd3d8I_GrAOhl8FhvCEXxWkZ-8Zw3PWdNI8UWSvbG_-8MUPS9jJIl1ZLg0a3G3Uv9Kfv2nOuiv6batp0SfIlEYAI1Sb8RcyL71KbkZIg17H86Dr67jWIJgpKq1VeCILTWLu78h3oYDzcUe4wnbAT55c9TUPMoTkrA2mm9jYncoOSdrRHPeGib07ykwEbM4rpfVfzboGPjqkzpGacn-RdVfbzqoo-YqIZP9zfNyNNWta-U9y4ZtgYgBx-b_BqnVmbRGQcENd8GwGhgFxqZUrbEkgJbc9o6LU50GcwFgHygcNWZUsq5lPlcHy3C53BYcqxihsjWLwHL3_vDTGqqcTzrVnIvyr8gwDybOV-OrP8sFiUv7hhY2PT3H1pSlt4IHxGrlZMmDhSz_fzF1oJWGVc7urSpjqlaUxPbVzV0_]--></g></svg>