<?xml version="1.0" encoding="UTF-8" standalone="no"?><svg xmlns="http://www.w3.org/2000/svg" xmlns:xlink="http://www.w3.org/1999/xlink" contentStyleType="text/css" height="822px" preserveAspectRatio="none" style="width:1520px;height:822px;background:#FFFFFF;" version="1.1" viewBox="0 0 1520 822" width="1520px" zoomAndPan="magnify"><defs/><g><!--cluster <<aggregate>> Course--><g id="cluster_&lt;&lt;aggregate&gt;&gt; Course"><path d="M8.5,223.36 L212.5,223.36 A3.75,3.75 0 0 1 215,225.86 L222,256.6 L1200.5,256.6 A2.5,2.5 0 0 1 1203,259.1 L1203,625.86 A2.5,2.5 0 0 1 1200.5,628.36 L8.5,628.36 A2.5,2.5 0 0 1 6,625.86 L6,225.86 A2.5,2.5 0 0 1 8.5,223.36 " fill="none" style="stroke:#000000;stroke-width:1.5;"/><line style="stroke:#000000;stroke-width:1.5;" x1="6" x2="222" y1="256.6" y2="256.6"/><text fill="#000000" font-family="sans-serif" font-size="20" font-weight="bold" lengthAdjust="spacing" textLength="203" x="10" y="246.74">«aggregate» Course</text></g><!--cluster <<aggregate>> Enrolment--><g id="cluster_&lt;&lt;aggregate&gt;&gt; Enrolment"><path d="M673.5,8.36 L913.5,8.36 A3.75,3.75 0 0 1 916,10.86 L923,41.6 L923.5,41.6 A2.5,2.5 0 0 1 926,44.1 L926,159.86 A2.5,2.5 0 0 1 923.5,162.36 L673.5,162.36 A2.5,2.5 0 0 1 671,159.86 L671,10.86 A2.5,2.5 0 0 1 673.5,8.36 " fill="none" style="stroke:#000000;stroke-width:1.5;"/><line style="stroke:#000000;stroke-width:1.5;" x1="671" x2="923" y1="41.6" y2="41.6"/><text fill="#000000" font-family="sans-serif" font-size="20" font-weight="bold" lengthAdjust="spacing" textLength="239" x="675" y="31.74">«aggregate» Enrolment</text></g><!--cluster <<aggregate>> Teacher--><g id="cluster_&lt;&lt;aggregate&gt;&gt; Teacher"><path d="M1197.5,661.36 L1412.5,661.36 A3.75,3.75 0 0 1 1415,663.86 L1422,694.6 L1422.5,694.6 A2.5,2.5 0 0 1 1425,697.1 L1425,812.86 A2.5,2.5 0 0 1 1422.5,815.36 L1197.5,815.36 A2.5,2.5 0 0 1 1195,812.86 L1195,663.86 A2.5,2.5 0 0 1 1197.5,661.36 " fill="none" style="stroke:#000000;stroke-width:1.5;"/><line style="stroke:#000000;stroke-width:1.5;" x1="1195" x2="1422" y1="694.6" y2="694.6"/><text fill="#000000" font-family="sans-serif" font-size="20" font-weight="bold" lengthAdjust="spacing" textLength="214" x="1199" y="684.74">«aggregate» Teacher</text></g><!--class Course--><g id="elem_Course"><rect codeLine="32" fill="#F5F5DC" height="126.9599" id="Course" rx="2.5" ry="2.5" style="stroke:#181818;stroke-width:0.5;" width="108" x="744" y="269.36"/><ellipse cx="763.6" cy="315.22" fill="#ADD1B2" rx="12" ry="12" style="stroke:#181818;stroke-width:1.0;"/><path d="M758.6938,322.22 L758.6938,307.9387 L767.6938,307.9387 L767.6938,310.4387 L761.5063,310.4387 L761.5063,313.5637 L767.3969,313.5637 L767.3969,316.0637 L761.5063,316.0637 L761.5063,319.72 L767.6938,319.72 L767.6938,322.22 L758.6938,322.22 Z " fill="#000000"/><text fill="#000000" font-family="sans-serif" font-size="20" font-style="italic" lengthAdjust="spacing" textLength="70" x="777.4" y="295.74">«entity»</text><text fill="#000000" font-family="sans-serif" font-size="20" font-style="italic" lengthAdjust="spacing" textLength="57" x="783.9" y="322.9799">«root»</text><text fill="#000000" font-family="sans-serif" font-size="20" lengthAdjust="spacing" textLength="66" x="779.4" y="350.2199">Course</text><line style="stroke:#181818;stroke-width:0.5;" x1="745" x2="851" y1="361.0799" y2="361.0799"/><text fill="#000000" font-family="sans-serif" font-size="20" lengthAdjust="spacing" textLength="96" x="750" y="386.4599">-createdAt</text></g><!--class Title--><g id="elem_Title"><rect codeLine="49" fill="#F5F5DC" height="64.4799" id="Title" rx="2.5" ry="2.5" style="stroke:#181818;stroke-width:0.5;" width="156" x="22" y="516.86"/><ellipse cx="38" cy="549.1" fill="#FF8B40" rx="12" ry="12" style="stroke:#181818;stroke-width:1.0;"/><path d="M36.375,557.1 L32.2031,542.8187 L35.125,542.8187 L37.2969,551.3031 Q37.4063,551.6156 37.5313,552.225 Q37.6563,552.8187 37.7813,553.4437 Q37.9063,554.0531 37.9531,554.5062 L38.1406,554.5062 Q38.2031,554.0531 38.3125,553.4437 Q38.4219,552.8343 38.5313,552.2562 Q38.6563,551.6625 38.7344,551.3031 L40.8438,542.8187 L43.7969,542.8187 L39.625,557.1 L36.375,557.1 Z " fill="#000000"/><text fill="#000000" font-family="sans-serif" font-size="20" font-style="italic" lengthAdjust="spacing" textLength="126" x="51" y="543.24">«value object»</text><text fill="#000000" font-family="sans-serif" font-size="20" lengthAdjust="spacing" textLength="39" x="94.5" y="570.4799">Title</text></g><!--class CourseState--><g id="elem_CourseState"><rect codeLine="51" fill="#F5F5DC" height="64.4799" id="CourseState" rx="2.5" ry="2.5" style="stroke:#181818;stroke-width:0.5;" width="156" x="213" y="516.86"/><ellipse cx="229" cy="549.1" fill="#FF8B40" rx="12" ry="12" style="stroke:#181818;stroke-width:1.0;"/><path d="M227.375,557.1 L223.2031,542.8187 L226.125,542.8187 L228.2969,551.3031 Q228.4063,551.6156 228.5313,552.225 Q228.6563,552.8187 228.7813,553.4437 Q228.9063,554.0531 228.9531,554.5062 L229.1406,554.5062 Q229.2031,554.0531 229.3125,553.4437 Q229.4219,552.8343 229.5313,552.2562 Q229.6563,551.6625 229.7344,551.3031 L231.8438,542.8187 L234.7969,542.8187 L230.625,557.1 L227.375,557.1 Z " fill="#000000"/><text fill="#000000" font-family="sans-serif" font-size="20" font-style="italic" lengthAdjust="spacing" textLength="126" x="242" y="543.24">«value object»</text><text fill="#000000" font-family="sans-serif" font-size="20" lengthAdjust="spacing" textLength="113" x="248.5" y="570.4799">CourseState</text></g><!--class EnrolmentState--><g id="elem_EnrolmentState"><rect codeLine="50" fill="#F5F5DC" height="64.4799" id="EnrolmentState" rx="2.5" ry="2.5" style="stroke:#181818;stroke-width:0.5;" width="178" x="404" y="516.86"/><ellipse cx="420" cy="549.1" fill="#FF8B40" rx="12" ry="12" style="stroke:#181818;stroke-width:1.0;"/><path d="M418.375,557.1 L414.2031,542.8187 L417.125,542.8187 L419.2969,551.3031 Q419.4063,551.6156 419.5313,552.225 Q419.6563,552.8187 419.7813,553.4437 Q419.9063,554.0531 419.9531,554.5062 L420.1406,554.5062 Q420.2031,554.0531 420.3125,553.4437 Q420.4219,552.8343 420.5313,552.2562 Q420.6563,551.6625 420.7344,551.3031 L422.8438,542.8187 L425.7969,542.8187 L421.625,557.1 L418.375,557.1 Z " fill="#000000"/><text fill="#000000" font-family="sans-serif" font-size="20" font-style="italic" lengthAdjust="spacing" textLength="126" x="444" y="543.24">«value object»</text><text fill="#000000" font-family="sans-serif" font-size="20" lengthAdjust="spacing" textLength="144" x="435" y="570.4799">EnrolmentState</text></g><!--class EnrolmentLimits--><g id="elem_EnrolmentLimits"><rect codeLine="23" fill="#F5F5DC" height="126.9599" id="EnrolmentLimits" rx="2.5" ry="2.5" style="stroke:#181818;stroke-width:0.5;" width="187" x="617.5" y="485.36"/><ellipse cx="633.5" cy="517.6" fill="#FF8B40" rx="12" ry="12" style="stroke:#181818;stroke-width:1.0;"/><path d="M631.875,525.6 L627.7031,511.3187 L630.625,511.3187 L632.7969,519.8031 Q632.9063,520.1156 633.0313,520.725 Q633.1563,521.3187 633.2813,521.9437 Q633.4063,522.5531 633.4531,523.0062 L633.6406,523.0062 Q633.7031,522.5531 633.8125,521.9437 Q633.9219,521.3343 634.0313,520.7562 Q634.1563,520.1625 634.2344,519.8031 L636.3438,511.3187 L639.2969,511.3187 L635.125,525.6 L631.875,525.6 Z " fill="#000000"/><text fill="#000000" font-family="sans-serif" font-size="20" font-style="italic" lengthAdjust="spacing" textLength="126" x="662" y="511.74">«value object»</text><text fill="#000000" font-family="sans-serif" font-size="20" lengthAdjust="spacing" textLength="153" x="648.5" y="538.9799">EnrolmentLimits</text><line style="stroke:#181818;stroke-width:0.5;" x1="618.5" x2="803.5" y1="549.8399" y2="549.8399"/><text fill="#000000" font-family="sans-serif" font-size="20" lengthAdjust="spacing" textLength="42" x="623.5" y="575.2199">-min</text><text fill="#000000" font-family="sans-serif" font-size="20" lengthAdjust="spacing" textLength="47" x="623.5" y="602.4599">-max</text></g><!--class Description--><g id="elem_Description"><rect codeLine="22" fill="#F5F5DC" height="64.4799" id="Description" rx="2.5" ry="2.5" style="stroke:#181818;stroke-width:0.5;" width="156" x="840" y="516.86"/><ellipse cx="856" cy="549.1" fill="#FF8B40" rx="12" ry="12" style="stroke:#181818;stroke-width:1.0;"/><path d="M854.375,557.1 L850.2031,542.8187 L853.125,542.8187 L855.2969,551.3031 Q855.4063,551.6156 855.5313,552.225 Q855.6563,552.8187 855.7813,553.4437 Q855.9063,554.0531 855.9531,554.5062 L856.1406,554.5062 Q856.2031,554.0531 856.3125,553.4437 Q856.4219,552.8343 856.5313,552.2562 Q856.6563,551.6625 856.7344,551.3031 L858.8438,542.8187 L861.7969,542.8187 L857.625,557.1 L854.375,557.1 Z " fill="#000000"/><text fill="#000000" font-family="sans-serif" font-size="20" font-style="italic" lengthAdjust="spacing" textLength="126" x="869" y="543.24">«value object»</text><text fill="#000000" font-family="sans-serif" font-size="20" lengthAdjust="spacing" textLength="107" x="878.5" y="570.4799">Description</text></g><!--class Code--><g id="elem_Code"><rect codeLine="52" fill="#F5F5DC" height="64.4799" id="Code" rx="2.5" ry="2.5" style="stroke:#181818;stroke-width:0.5;" width="156" x="1031" y="516.86"/><ellipse cx="1047" cy="549.1" fill="#FF8B40" rx="12" ry="12" style="stroke:#181818;stroke-width:1.0;"/><path d="M1045.375,557.1 L1041.2031,542.8187 L1044.125,542.8187 L1046.2969,551.3031 Q1046.4063,551.6156 1046.5313,552.225 Q1046.6563,552.8187 1046.7813,553.4437 Q1046.9063,554.0531 1046.9531,554.5062 L1047.1406,554.5062 Q1047.2031,554.0531 1047.3125,553.4437 Q1047.4219,552.8343 1047.5313,552.2562 Q1047.6563,551.6625 1047.7344,551.3031 L1049.8438,542.8187 L1052.7969,542.8187 L1048.625,557.1 L1045.375,557.1 Z " fill="#000000"/><text fill="#000000" font-family="sans-serif" font-size="20" font-style="italic" lengthAdjust="spacing" textLength="126" x="1060" y="543.24">«value object»</text><text fill="#000000" font-family="sans-serif" font-size="20" lengthAdjust="spacing" textLength="48" x="1099" y="570.4799">Code</text></g><!--class Enrolment--><g id="elem_Enrolment"><rect codeLine="36" fill="#F5F5DC" height="91.7199" id="Enrolment" rx="2.5" ry="2.5" style="stroke:#181818;stroke-width:0.5;" width="131" x="732.5" y="54.36"/><ellipse cx="748.5" cy="100.22" fill="#ADD1B2" rx="12" ry="12" style="stroke:#181818;stroke-width:1.0;"/><path d="M743.5938,107.22 L743.5938,92.9387 L752.5938,92.9387 L752.5938,95.4387 L746.4063,95.4387 L746.4063,98.5637 L752.2969,98.5637 L752.2969,101.0637 L746.4063,101.0637 L746.4063,104.72 L752.5938,104.72 L752.5938,107.22 L743.5938,107.22 Z " fill="#000000"/><text fill="#000000" font-family="sans-serif" font-size="20" font-style="italic" lengthAdjust="spacing" textLength="70" x="777" y="80.74">«entity»</text><text fill="#000000" font-family="sans-serif" font-size="20" font-style="italic" lengthAdjust="spacing" textLength="57" x="783.5" y="107.9799">«root»</text><text fill="#000000" font-family="sans-serif" font-size="20" lengthAdjust="spacing" textLength="97" x="763.5" y="135.2199">Enrolment</text></g><!--class Teacher--><g id="elem_Teacher"><rect codeLine="43" fill="#F5F5DC" height="91.7199" id="Teacher" rx="2.5" ry="2.5" style="stroke:#181818;stroke-width:0.5;" width="108" x="1256" y="707.36"/><ellipse cx="1272" cy="753.22" fill="#ADD1B2" rx="12" ry="12" style="stroke:#181818;stroke-width:1.0;"/><path d="M1267.0938,760.22 L1267.0938,745.9387 L1276.0938,745.9387 L1276.0938,748.4387 L1269.9063,748.4387 L1269.9063,751.5637 L1275.7969,751.5637 L1275.7969,754.0637 L1269.9063,754.0637 L1269.9063,757.72 L1276.0938,757.72 L1276.0938,760.22 L1267.0938,760.22 Z " fill="#000000"/><text fill="#000000" font-family="sans-serif" font-size="20" font-style="italic" lengthAdjust="spacing" textLength="70" x="1289" y="733.74">«entity»</text><text fill="#000000" font-family="sans-serif" font-size="20" font-style="italic" lengthAdjust="spacing" textLength="57" x="1295.5" y="760.9799">«root»</text><text fill="#000000" font-family="sans-serif" font-size="20" lengthAdjust="spacing" textLength="74" x="1287" y="788.2199">Teacher</text></g><g id="elem_GMN14"><path d="M215,693.86 L215,812.8199 A0,0 0 0 0 215,812.8199 L367,812.8199 A0,0 0 0 0 367,812.8199 L367,703.86 L357,693.86 L295,693.86 L291,581.06 L287,693.86 L215,693.86 A0,0 0 0 0 215,693.86 " fill="#FEFFDD" style="stroke:#181818;stroke-width:0.5;"/><path d="M357,693.86 L357,703.86 L367,703.86 L357,693.86 " fill="#FEFFDD" style="stroke:#181818;stroke-width:0.5;"/><text fill="#000000" font-family="sans-serif" font-size="20" lengthAdjust="spacing" textLength="76" x="221" y="720.24">CLOSED</text><text fill="#000000" font-family="sans-serif" font-size="20" lengthAdjust="spacing" textLength="54" x="221" y="747.4799">OPEN</text><text fill="#000000" font-family="sans-serif" font-size="20" lengthAdjust="spacing" textLength="131" x="221" y="774.7199">IN_PROGRESS</text><text fill="#000000" font-family="sans-serif" font-size="20" lengthAdjust="spacing" textLength="91" x="221" y="801.9599">FINISHED</text></g><g id="elem_GMN17"><path d="M444.5,721.36 L444.5,785.8399 A0,0 0 0 0 444.5,785.8399 L541.5,785.8399 A0,0 0 0 0 541.5,785.8399 L541.5,731.36 L531.5,721.36 L497,721.36 L493,581.06 L489,721.36 L444.5,721.36 A0,0 0 0 0 444.5,721.36 " fill="#FEFFDD" style="stroke:#181818;stroke-width:0.5;"/><path d="M531.5,721.36 L531.5,731.36 L541.5,731.36 L531.5,721.36 " fill="#FEFFDD" style="stroke:#181818;stroke-width:0.5;"/><text fill="#000000" font-family="sans-serif" font-size="20" lengthAdjust="spacing" textLength="76" x="450.5" y="747.74">CLOSED</text><text fill="#000000" font-family="sans-serif" font-size="20" lengthAdjust="spacing" textLength="54" x="450.5" y="774.9799">OPEN</text></g><!--link Course to Title--><g id="link_Course_Title"><path codeLine="54" d="M743.59,340.1 C634.89,354.13 385.12,394.33 196,485.36 C179.74,493.19 162.94,503.32 148.04,513.14 " fill="none" id="Course-to-Title" style="stroke:#222222;stroke-width:1.0;"/><polygon fill="#222222" points="144.06,516.45,153.7699,514.8013,148.2246,513.6831,149.3428,508.1378,144.06,516.45" style="stroke:#222222;stroke-width:1.0;"/><text fill="#000000" font-family="sans-serif" font-size="20" lengthAdjust="spacing" textLength="67" x="338" y="448.74">is titled</text><text fill="#000000" font-family="sans-serif" font-size="20" lengthAdjust="spacing" textLength="11" x="138.5156" y="502.9186">1</text></g><!--link Course to Teacher--><g id="link_Course_Teacher"><path codeLine="55" d="M852.15,337.12 C940.98,345.59 1116.58,376.03 1205,485.36 C1257.24,549.95 1285.97,643.7 1299.66,701.2 " fill="none" id="Course-to-Teacher" style="stroke:#222222;stroke-width:1.0;"/><polygon fill="#222222" points="1301.02,706,1302.8586,696.3243,1299.878,701.1322,1295.0701,698.1515,1301.02,706" style="stroke:#222222;stroke-width:1.0;"/><text fill="#000000" font-family="sans-serif" font-size="20" lengthAdjust="spacing" textLength="33" x="1281" y="556.74">has</text><text fill="#000000" font-family="sans-serif" font-size="20" lengthAdjust="spacing" textLength="32" x="1265.6633" y="693.3712">1..*</text></g><!--link Course to Teacher--><g id="link_Course_Teacher"><path codeLine="56" d="M852.08,340.7 C975.28,357.56 1270.25,405.66 1323,485.36 C1365.81,550.03 1347.19,644.04 1329.1,701.53 " fill="none" id="Course-to-Teacher-1" style="stroke:#222222;stroke-width:1.0;"/><polygon fill="#222222" points="1327.35,705.98,1333.9115,698.6351,1328.8796,701.2197,1326.295,696.1878,1327.35,705.98" style="stroke:#222222;stroke-width:1.0;"/><text fill="#000000" font-family="sans-serif" font-size="20" lengthAdjust="spacing" textLength="162" x="1350" y="556.74">has a responsible</text><text fill="#000000" font-family="sans-serif" font-size="20" lengthAdjust="spacing" textLength="11" x="1317.9423" y="693.3485">1</text></g><!--link Course to CourseState--><g id="link_Course_CourseState"><path codeLine="57" d="M743.52,349.65 C663.26,373.87 509.51,423.88 387,485.36 C371.03,493.37 354.45,503.46 339.65,513.18 " fill="none" id="Course-to-CourseState" style="stroke:#222222;stroke-width:1.0;"/><polygon fill="#222222" points="335.7,516.46,345.4112,514.819,339.8668,513.6964,340.9895,508.1521,335.7,516.46" style="stroke:#222222;stroke-width:1.0;"/><text fill="#000000" font-family="sans-serif" font-size="20" lengthAdjust="spacing" textLength="37" x="520" y="448.74">is in</text><text fill="#000000" font-family="sans-serif" font-size="20" lengthAdjust="spacing" textLength="11" x="330.2656" y="502.9303">1</text></g><!--link Course to EnrolmentState--><g id="link_Course_EnrolmentState"><path codeLine="58" d="M743.82,371.87 C686.83,411.86 597.89,474.26 542.66,513.02 " fill="none" id="Course-to-EnrolmentState" style="stroke:#222222;stroke-width:1.0;"/><polygon fill="#222222" points="538.75,516.46,548.4134,514.5576,542.8408,513.585,543.8134,508.0124,538.75,516.46" style="stroke:#222222;stroke-width:1.0;"/><text fill="#000000" font-family="sans-serif" font-size="20" lengthAdjust="spacing" textLength="37" x="664" y="448.74">is in</text><text fill="#000000" font-family="sans-serif" font-size="20" lengthAdjust="spacing" textLength="11" x="533.4961" y="502.9303">1</text></g><!--link Course to Description--><g id="link_Course_Description"><path codeLine="59" d="M833.19,396.62 C854.13,433.97 879.97,480.04 897.58,511.45 " fill="none" id="Course-to-Description" style="stroke:#222222;stroke-width:1.0;"/><polygon fill="#222222" points="900.34,515.36,899.4277,505.5535,897.8948,510.9987,892.4496,509.4658,900.34,515.36" style="stroke:#222222;stroke-width:1.0;"/><text fill="#000000" font-family="sans-serif" font-size="20" lengthAdjust="spacing" textLength="33" x="866" y="448.74">has</text><text fill="#000000" font-family="sans-serif" font-size="20" lengthAdjust="spacing" textLength="11" x="885.5041" y="503.1014">1</text></g><!--link Course to EnrolmentLimits--><g id="link_Course_EnrolmentLimits"><path codeLine="60" d="M772.48,396.62 C761.86,422.75 749.5,453.15 738.66,479.82 " fill="none" id="Course-to-EnrolmentLimits" style="stroke:#222222;stroke-width:1.0;"/><polygon fill="#222222" points="736.51,484.1,743.61,477.2744,738.3965,479.4695,736.2013,474.256,736.51,484.1" style="stroke:#222222;stroke-width:1.0;"/><text fill="#000000" font-family="sans-serif" font-size="20" lengthAdjust="spacing" textLength="33" x="760" y="448.74">has</text><text fill="#000000" font-family="sans-serif" font-size="20" lengthAdjust="spacing" textLength="11" x="727.5735" y="471.527">1</text></g><!--link Course to Code--><g id="link_Course_Code"><path codeLine="61" d="M852.17,371.14 C910.4,411.2 1002.21,474.38 1058.84,513.34 " fill="none" id="Course-to-Code" style="stroke:#222222;stroke-width:1.0;"/><polygon fill="#222222" points="1062.53,516.57,1057.3662,508.1834,1058.4052,513.744,1052.8446,514.7831,1062.53,516.57" style="stroke:#222222;stroke-width:1.0;"/><text fill="#000000" font-family="sans-serif" font-size="20" lengthAdjust="spacing" textLength="134" x="973" y="448.74">is identified by</text><text fill="#000000" font-family="sans-serif" font-size="20" lengthAdjust="spacing" textLength="11" x="1043.7695" y="503.0592">1</text></g><!--link Enrolment to Course--><g id="link_Enrolment_Course"><path codeLine="63" d="M798,146.62 C798,179.85 798,225.57 798,263.28 " fill="none" id="Enrolment-to-Course" style="stroke:#222222;stroke-width:1.0;"/><polygon fill="#222222" points="798,268.25,802,259.25,798,263.25,794,259.25,798,268.25" style="stroke:#222222;stroke-width:1.0;"/><text fill="#000000" font-family="sans-serif" font-size="20" lengthAdjust="spacing" textLength="47" x="799" y="200.74">is for</text><text fill="#000000" font-family="sans-serif" font-size="20" lengthAdjust="spacing" textLength="11" x="786.4328" y="255.6924">1</text></g><!--SRC=[bLJBRjim4BppAnRAeG_KZmOz58PWmF6ZDH3OGHJqPA2WnBNCMk8A9DKs2VBlfILRbcGRINMHE3ipI-ukPRPIPLppDA5eYm84hdcUs1af6yWdXEi-UxUnDZE3NYzBkB9vcdGZIdjHmetf2CbZ9sRC77oW28oirJBCBSuZKeLHdssaGC0qiu_03s5JHrEq6nAcxNN3essiALTYJ0bf2576M2EDjAO_PUZgkdWOovo6nmYUx_CurXXpYyCXZ2dN1ZruPW2eh7H9IuWve4W63z8cMAtAQ62TlCAcIbEIEda9d-AtCfNMLFW4JQHbPYKfLZCMo5uOEw60xx__yUbgDljwywN_0Nxp94UWy1T6rXtW-OMTJVQAogNjG2fL-UP_TvalbAWoRbIfGdVAHkLSvdBjjBwlYOu98utEKupgeiheWkxonXwGHnlKZMtjiPh_7hdihiWYX6GjfK3hUeDX0EFRPJ2ThDJoRhfOgVdYvztzyjlzD0XMQZPVp8FlqqdRe3aDBOz3VukX-j_EbePl4zMFyLQ5U9tAzZtkT8RWVVRsvnY0D61td-98A1ZTxaUlQi40DjoSEDI3m46ZoKWP6RfBrw8sM-DIklbjKKwAVvPLlrrdDzM-J6T9HS7A368tMslfVfVX8sF7aMxkl2IlIRD_]--></g></svg>