<?xml version="1.0" encoding="UTF-8" standalone="no"?><svg xmlns="http://www.w3.org/2000/svg" xmlns:xlink="http://www.w3.org/1999/xlink" contentStyleType="text/css" height="821px" preserveAspectRatio="none" style="width:1519px;height:821px;background:#FFFFFF;" version="1.1" viewBox="0 0 1519 821" width="1519px" zoomAndPan="magnify"><defs/><g><!--cluster <<aggregate>> Course--><g id="cluster_&lt;&lt;aggregate&gt;&gt; Course"><path d="M8.5,223.08 L212.5,223.08 A3.75,3.75 0 0 1 215,225.58 L222,256.32 L1199.5,256.32 A2.5,2.5 0 0 1 1202,258.82 L1202,625.5 A2.5,2.5 0 0 1 1199.5,628 L8.5,628 A2.5,2.5 0 0 1 6,625.5 L6,225.58 A2.5,2.5 0 0 1 8.5,223.08 " fill="none" style="stroke:#000000;stroke-width:1.5;"/><line style="stroke:#000000;stroke-width:1.5;" x1="6" x2="222" y1="256.32" y2="256.32"/><text fill="#000000" font-family="sans-serif" font-size="20" font-weight="bold" lengthAdjust="spacing" textLength="203" x="10" y="246.46">«aggregate» Course</text></g><!--cluster <<aggregate>> Enrolment--><g id="cluster_&lt;&lt;aggregate&gt;&gt; Enrolment"><path d="M672.5,8.36 L912.5,8.36 A3.75,3.75 0 0 1 915,10.86 L922,41.6 L922.5,41.6 A2.5,2.5 0 0 1 925,44.1 L925,159.58 A2.5,2.5 0 0 1 922.5,162.08 L672.5,162.08 A2.5,2.5 0 0 1 670,159.58 L670,10.86 A2.5,2.5 0 0 1 672.5,8.36 " fill="none" style="stroke:#000000;stroke-width:1.5;"/><line style="stroke:#000000;stroke-width:1.5;" x1="670" x2="922" y1="41.6" y2="41.6"/><text fill="#000000" font-family="sans-serif" font-size="20" font-weight="bold" lengthAdjust="spacing" textLength="239" x="674" y="31.74">«aggregate» Enrolment</text></g><!--cluster <<aggregate>> Teacher--><g id="cluster_&lt;&lt;aggregate&gt;&gt; Teacher"><path d="M1196.5,661 L1411.5,661 A3.75,3.75 0 0 1 1414,663.5 L1421,694.24 L1421.5,694.24 A2.5,2.5 0 0 1 1424,696.74 L1424,812.22 A2.5,2.5 0 0 1 1421.5,814.72 L1196.5,814.72 A2.5,2.5 0 0 1 1194,812.22 L1194,663.5 A2.5,2.5 0 0 1 1196.5,661 " fill="none" style="stroke:#000000;stroke-width:1.5;"/><line style="stroke:#000000;stroke-width:1.5;" x1="1194" x2="1421" y1="694.24" y2="694.24"/><text fill="#000000" font-family="sans-serif" font-size="20" font-weight="bold" lengthAdjust="spacing" textLength="214" x="1198" y="684.38">«aggregate» Teacher</text></g><!--class Course--><g id="elem_Course"><rect codeLine="32" fill="#F5F5DC" height="126.9599" id="Course" rx="2.5" ry="2.5" style="stroke:#181818;stroke-width:0.5;" width="108" x="743" y="269.08"/><ellipse cx="762.6" cy="314.94" fill="#ADD1B2" rx="12" ry="12" style="stroke:#181818;stroke-width:1.0;"/><path d="M757.6938,321.94 L757.6938,307.6587 L766.6938,307.6587 L766.6938,310.1587 L760.5063,310.1587 L760.5063,313.2837 L766.3969,313.2837 L766.3969,315.7837 L760.5063,315.7837 L760.5063,319.44 L766.6938,319.44 L766.6938,321.94 L757.6938,321.94 Z " fill="#000000"/><text fill="#000000" font-family="sans-serif" font-size="20" font-style="italic" lengthAdjust="spacing" textLength="70" x="776.4" y="295.46">«entity»</text><text fill="#000000" font-family="sans-serif" font-size="20" font-style="italic" lengthAdjust="spacing" textLength="57" x="782.9" y="322.6999">«root»</text><text fill="#000000" font-family="sans-serif" font-size="20" lengthAdjust="spacing" textLength="66" x="778.4" y="349.9399">Course</text><line style="stroke:#181818;stroke-width:0.5;" x1="744" x2="850" y1="360.7999" y2="360.7999"/><text fill="#000000" font-family="sans-serif" font-size="20" lengthAdjust="spacing" textLength="96" x="749" y="386.1799">-createdAt</text></g><!--class Title--><g id="elem_Title"><rect codeLine="49" fill="#F5F5DC" height="64.4799" id="Title" rx="2.5" ry="2.5" style="stroke:#181818;stroke-width:0.5;" width="156" x="22" y="516.28"/><ellipse cx="38" cy="548.52" fill="#FF8B40" rx="12" ry="12" style="stroke:#181818;stroke-width:1.0;"/><path d="M36.375,556.52 L32.2031,542.2387 L35.125,542.2387 L37.2969,550.7231 Q37.4063,551.0356 37.5313,551.645 Q37.6563,552.2387 37.7813,552.8637 Q37.9063,553.4731 37.9531,553.9262 L38.1406,553.9262 Q38.2031,553.4731 38.3125,552.8637 Q38.4219,552.2543 38.5313,551.6762 Q38.6563,551.0825 38.7344,550.7231 L40.8438,542.2387 L43.7969,542.2387 L39.625,556.52 L36.375,556.52 Z " fill="#000000"/><text fill="#000000" font-family="sans-serif" font-size="20" font-style="italic" lengthAdjust="spacing" textLength="126" x="51" y="542.66">«value object»</text><text fill="#000000" font-family="sans-serif" font-size="20" lengthAdjust="spacing" textLength="39" x="94.5" y="569.8999">Title</text></g><!--class CourseState--><g id="elem_CourseState"><rect codeLine="51" fill="#F5F5DC" height="64.4799" id="CourseState" rx="2.5" ry="2.5" style="stroke:#181818;stroke-width:0.5;" width="156" x="213" y="516.28"/><ellipse cx="229" cy="548.52" fill="#FF8B40" rx="12" ry="12" style="stroke:#181818;stroke-width:1.0;"/><path d="M227.375,556.52 L223.2031,542.2387 L226.125,542.2387 L228.2969,550.7231 Q228.4063,551.0356 228.5313,551.645 Q228.6563,552.2387 228.7813,552.8637 Q228.9063,553.4731 228.9531,553.9262 L229.1406,553.9262 Q229.2031,553.4731 229.3125,552.8637 Q229.4219,552.2543 229.5313,551.6762 Q229.6563,551.0825 229.7344,550.7231 L231.8438,542.2387 L234.7969,542.2387 L230.625,556.52 L227.375,556.52 Z " fill="#000000"/><text fill="#000000" font-family="sans-serif" font-size="20" font-style="italic" lengthAdjust="spacing" textLength="126" x="242" y="542.66">«value object»</text><text fill="#000000" font-family="sans-serif" font-size="20" lengthAdjust="spacing" textLength="113" x="248.5" y="569.8999">CourseState</text></g><!--class EnrolmentState--><g id="elem_EnrolmentState"><rect codeLine="50" fill="#F5F5DC" height="64.4799" id="EnrolmentState" rx="2.5" ry="2.5" style="stroke:#181818;stroke-width:0.5;" width="178" x="404" y="516.28"/><ellipse cx="420" cy="548.52" fill="#FF8B40" rx="12" ry="12" style="stroke:#181818;stroke-width:1.0;"/><path d="M418.375,556.52 L414.2031,542.2387 L417.125,542.2387 L419.2969,550.7231 Q419.4063,551.0356 419.5313,551.645 Q419.6563,552.2387 419.7813,552.8637 Q419.9063,553.4731 419.9531,553.9262 L420.1406,553.9262 Q420.2031,553.4731 420.3125,552.8637 Q420.4219,552.2543 420.5313,551.6762 Q420.6563,551.0825 420.7344,550.7231 L422.8438,542.2387 L425.7969,542.2387 L421.625,556.52 L418.375,556.52 Z " fill="#000000"/><text fill="#000000" font-family="sans-serif" font-size="20" font-style="italic" lengthAdjust="spacing" textLength="126" x="444" y="542.66">«value object»</text><text fill="#000000" font-family="sans-serif" font-size="20" lengthAdjust="spacing" textLength="144" x="435" y="569.8999">EnrolmentState</text></g><!--class EnrolmentLimits--><g id="elem_EnrolmentLimits"><rect codeLine="23" fill="#F5F5DC" height="126.9599" id="EnrolmentLimits" rx="2.5" ry="2.5" style="stroke:#181818;stroke-width:0.5;" width="187" x="616.5" y="485.04"/><ellipse cx="632.5" cy="517.28" fill="#FF8B40" rx="12" ry="12" style="stroke:#181818;stroke-width:1.0;"/><path d="M630.875,525.28 L626.7031,510.9987 L629.625,510.9987 L631.7969,519.4831 Q631.9063,519.7956 632.0313,520.405 Q632.1563,520.9987 632.2813,521.6237 Q632.4063,522.2331 632.4531,522.6862 L632.6406,522.6862 Q632.7031,522.2331 632.8125,521.6237 Q632.9219,521.0143 633.0313,520.4362 Q633.1563,519.8425 633.2344,519.4831 L635.3438,510.9987 L638.2969,510.9987 L634.125,525.28 L630.875,525.28 Z " fill="#000000"/><text fill="#000000" font-family="sans-serif" font-size="20" font-style="italic" lengthAdjust="spacing" textLength="126" x="661" y="511.42">«value object»</text><text fill="#000000" font-family="sans-serif" font-size="20" lengthAdjust="spacing" textLength="153" x="647.5" y="538.6599">EnrolmentLimits</text><line style="stroke:#181818;stroke-width:0.5;" x1="617.5" x2="802.5" y1="549.5199" y2="549.5199"/><text fill="#000000" font-family="sans-serif" font-size="20" lengthAdjust="spacing" textLength="42" x="622.5" y="574.8999">-min</text><text fill="#000000" font-family="sans-serif" font-size="20" lengthAdjust="spacing" textLength="47" x="622.5" y="602.1399">-max</text></g><!--class Description--><g id="elem_Description"><rect codeLine="22" fill="#F5F5DC" height="64.4799" id="Description" rx="2.5" ry="2.5" style="stroke:#181818;stroke-width:0.5;" width="156" x="839" y="516.28"/><ellipse cx="855" cy="548.52" fill="#FF8B40" rx="12" ry="12" style="stroke:#181818;stroke-width:1.0;"/><path d="M853.375,556.52 L849.2031,542.2387 L852.125,542.2387 L854.2969,550.7231 Q854.4063,551.0356 854.5313,551.645 Q854.6563,552.2387 854.7813,552.8637 Q854.9063,553.4731 854.9531,553.9262 L855.1406,553.9262 Q855.2031,553.4731 855.3125,552.8637 Q855.4219,552.2543 855.5313,551.6762 Q855.6563,551.0825 855.7344,550.7231 L857.8438,542.2387 L860.7969,542.2387 L856.625,556.52 L853.375,556.52 Z " fill="#000000"/><text fill="#000000" font-family="sans-serif" font-size="20" font-style="italic" lengthAdjust="spacing" textLength="126" x="868" y="542.66">«value object»</text><text fill="#000000" font-family="sans-serif" font-size="20" lengthAdjust="spacing" textLength="107" x="877.5" y="569.8999">Description</text></g><!--class Code--><g id="elem_Code"><rect codeLine="52" fill="#F5F5DC" height="64.4799" id="Code" rx="2.5" ry="2.5" style="stroke:#181818;stroke-width:0.5;" width="156" x="1030" y="516.28"/><ellipse cx="1046" cy="548.52" fill="#FF8B40" rx="12" ry="12" style="stroke:#181818;stroke-width:1.0;"/><path d="M1044.375,556.52 L1040.2031,542.2387 L1043.125,542.2387 L1045.2969,550.7231 Q1045.4063,551.0356 1045.5313,551.645 Q1045.6563,552.2387 1045.7813,552.8637 Q1045.9063,553.4731 1045.9531,553.9262 L1046.1406,553.9262 Q1046.2031,553.4731 1046.3125,552.8637 Q1046.4219,552.2543 1046.5313,551.6762 Q1046.6563,551.0825 1046.7344,550.7231 L1048.8438,542.2387 L1051.7969,542.2387 L1047.625,556.52 L1044.375,556.52 Z " fill="#000000"/><text fill="#000000" font-family="sans-serif" font-size="20" font-style="italic" lengthAdjust="spacing" textLength="126" x="1059" y="542.66">«value object»</text><text fill="#000000" font-family="sans-serif" font-size="20" lengthAdjust="spacing" textLength="48" x="1098" y="569.8999">Code</text></g><!--class Enrolment--><g id="elem_Enrolment"><rect codeLine="36" fill="#F5F5DC" height="91.7199" id="Enrolment" rx="2.5" ry="2.5" style="stroke:#181818;stroke-width:0.5;" width="131" x="731.5" y="54.36"/><ellipse cx="747.5" cy="100.22" fill="#ADD1B2" rx="12" ry="12" style="stroke:#181818;stroke-width:1.0;"/><path d="M742.5938,107.22 L742.5938,92.9387 L751.5938,92.9387 L751.5938,95.4387 L745.4063,95.4387 L745.4063,98.5637 L751.2969,98.5637 L751.2969,101.0637 L745.4063,101.0637 L745.4063,104.72 L751.5938,104.72 L751.5938,107.22 L742.5938,107.22 Z " fill="#000000"/><text fill="#000000" font-family="sans-serif" font-size="20" font-style="italic" lengthAdjust="spacing" textLength="70" x="776" y="80.74">«entity»</text><text fill="#000000" font-family="sans-serif" font-size="20" font-style="italic" lengthAdjust="spacing" textLength="57" x="782.5" y="107.9799">«root»</text><text fill="#000000" font-family="sans-serif" font-size="20" lengthAdjust="spacing" textLength="97" x="762.5" y="135.2199">Enrolment</text></g><!--class Teacher--><g id="elem_Teacher"><rect codeLine="43" fill="#F5F5DC" height="91.7199" id="Teacher" rx="2.5" ry="2.5" style="stroke:#181818;stroke-width:0.5;" width="108" x="1255" y="707"/><ellipse cx="1271" cy="752.86" fill="#ADD1B2" rx="12" ry="12" style="stroke:#181818;stroke-width:1.0;"/><path d="M1266.0938,759.86 L1266.0938,745.5787 L1275.0938,745.5787 L1275.0938,748.0787 L1268.9063,748.0787 L1268.9063,751.2037 L1274.7969,751.2037 L1274.7969,753.7037 L1268.9063,753.7037 L1268.9063,757.36 L1275.0938,757.36 L1275.0938,759.86 L1266.0938,759.86 Z " fill="#000000"/><text fill="#000000" font-family="sans-serif" font-size="20" font-style="italic" lengthAdjust="spacing" textLength="70" x="1288" y="733.38">«entity»</text><text fill="#000000" font-family="sans-serif" font-size="20" font-style="italic" lengthAdjust="spacing" textLength="57" x="1294.5" y="760.6199">«root»</text><text fill="#000000" font-family="sans-serif" font-size="20" lengthAdjust="spacing" textLength="74" x="1286" y="787.8599">Teacher</text></g><g id="elem_GMN14"><path d="M215,693.38 L215,812.3399 A0,0 0 0 0 215,812.3399 L367,812.3399 A0,0 0 0 0 367,812.3399 L367,703.38 L357,693.38 L295,693.38 L291,581.14 L287,693.38 L215,693.38 A0,0 0 0 0 215,693.38 " fill="#FEFFDD" style="stroke:#181818;stroke-width:0.5;"/><path d="M357,693.38 L357,703.38 L367,703.38 L357,693.38 " fill="#FEFFDD" style="stroke:#181818;stroke-width:0.5;"/><text fill="#000000" font-family="sans-serif" font-size="20" lengthAdjust="spacing" textLength="76" x="221" y="719.76">CLOSED</text><text fill="#000000" font-family="sans-serif" font-size="20" lengthAdjust="spacing" textLength="54" x="221" y="746.9999">OPEN</text><text fill="#000000" font-family="sans-serif" font-size="20" lengthAdjust="spacing" textLength="131" x="221" y="774.2399">IN_PROGRESS</text><text fill="#000000" font-family="sans-serif" font-size="20" lengthAdjust="spacing" textLength="91" x="221" y="801.4799">FINISHED</text></g><g id="elem_GMN17"><path d="M444.5,720.62 L444.5,785.0999 A0,0 0 0 0 444.5,785.0999 L541.5,785.0999 A0,0 0 0 0 541.5,785.0999 L541.5,730.62 L531.5,720.62 L497,720.62 L493,581.14 L489,720.62 L444.5,720.62 A0,0 0 0 0 444.5,720.62 " fill="#FEFFDD" style="stroke:#181818;stroke-width:0.5;"/><path d="M531.5,720.62 L531.5,730.62 L541.5,730.62 L531.5,720.62 " fill="#FEFFDD" style="stroke:#181818;stroke-width:0.5;"/><text fill="#000000" font-family="sans-serif" font-size="20" lengthAdjust="spacing" textLength="76" x="450.5" y="747">CLOSED</text><text fill="#000000" font-family="sans-serif" font-size="20" lengthAdjust="spacing" textLength="54" x="450.5" y="774.2399">OPEN</text></g><!--link Course to Title--><g id="link_Course_Title"><path codeLine="54" d="M742.56,339.74 C633.83,353.68 383.98,393.73 195,485.04 C178.87,492.83 162.24,502.95 147.49,512.77 " fill="none" id="Course-to-Title" style="stroke:#222222;stroke-width:1.0;"/><polygon fill="#222222" points="143.56,516.08,153.2606,514.3774,147.7092,513.29,148.7966,507.7386,143.56,516.08" style="stroke:#222222;stroke-width:1.0;"/><text fill="#000000" font-family="sans-serif" font-size="20" lengthAdjust="spacing" textLength="67" x="337" y="448.42">is titled</text><text fill="#000000" font-family="sans-serif" font-size="20" lengthAdjust="spacing" textLength="11" x="138.1613" y="502.2983">1</text></g><!--link Course to Teacher--><g id="link_Course_Teacher"><path codeLine="55" d="M851.15,336.82 C939.97,345.29 1115.57,375.72 1204,485.04 C1256.21,549.59 1284.96,643.27 1298.65,700.74 " fill="none" id="Course-to-Teacher" style="stroke:#222222;stroke-width:1.0;"/><polygon fill="#222222" points="1300.01,705.53,1301.8423,695.8531,1298.8648,700.6629,1294.055,697.6854,1300.01,705.53" style="stroke:#222222;stroke-width:1.0;"/><text fill="#000000" font-family="sans-serif" font-size="20" lengthAdjust="spacing" textLength="33" x="1280" y="556.4">has</text><text fill="#000000" font-family="sans-serif" font-size="20" lengthAdjust="spacing" textLength="32" x="1264.8082" y="693.2596">1..*</text></g><!--link Course to Teacher--><g id="link_Course_Teacher"><path codeLine="56" d="M851.08,340.4 C974.28,357.26 1269.25,405.34 1322,485.04 C1364.78,549.67 1346.17,643.62 1328.09,701.07 " fill="none" id="Course-to-Teacher-1" style="stroke:#222222;stroke-width:1.0;"/><polygon fill="#222222" points="1326.34,705.51,1332.9015,698.1651,1327.8696,700.7497,1325.285,695.7178,1326.34,705.51" style="stroke:#222222;stroke-width:1.0;"/><text fill="#000000" font-family="sans-serif" font-size="20" lengthAdjust="spacing" textLength="162" x="1349" y="556.4">has a responsible</text><text fill="#000000" font-family="sans-serif" font-size="20" lengthAdjust="spacing" textLength="11" x="1316.857" y="693.2371">1</text></g><!--link Course to CourseState--><g id="link_Course_CourseState"><path codeLine="57" d="M742.66,349.38 C662.6,373.61 509.23,423.65 387,485.04 C371.19,492.98 354.78,502.94 340.09,512.57 " fill="none" id="Course-to-CourseState" style="stroke:#222222;stroke-width:1.0;"/><polygon fill="#222222" points="336.18,515.81,345.8938,514.1844,340.3512,513.053,341.4826,507.5104,336.18,515.81" style="stroke:#222222;stroke-width:1.0;"/><text fill="#000000" font-family="sans-serif" font-size="20" lengthAdjust="spacing" textLength="37" x="519" y="448.42">is in</text><text fill="#000000" font-family="sans-serif" font-size="20" lengthAdjust="spacing" textLength="11" x="330.5864" y="502.5563">1</text></g><!--link Course to EnrolmentState--><g id="link_Course_EnrolmentState"><path codeLine="58" d="M742.65,371.81 C685.95,411.72 597.82,473.74 542.86,512.43 " fill="none" id="Course-to-EnrolmentState" style="stroke:#222222;stroke-width:1.0;"/><polygon fill="#222222" points="538.97,515.87,548.6334,513.9676,543.0608,512.995,544.0334,507.4224,538.97,515.87" style="stroke:#222222;stroke-width:1.0;"/><text fill="#000000" font-family="sans-serif" font-size="20" lengthAdjust="spacing" textLength="37" x="664" y="448.42">is in</text><text fill="#000000" font-family="sans-serif" font-size="20" lengthAdjust="spacing" textLength="11" x="533.7539" y="502.3386">1</text></g><!--link Course to Description--><g id="link_Course_Description"><path codeLine="59" d="M832.19,396.31 C853.13,433.65 878.97,479.71 896.58,511.12 " fill="none" id="Course-to-Description" style="stroke:#222222;stroke-width:1.0;"/><polygon fill="#222222" points="899.34,515.03,898.4277,505.2235,896.8948,510.6687,891.4496,509.1358,899.34,515.03" style="stroke:#222222;stroke-width:1.0;"/><text fill="#000000" font-family="sans-serif" font-size="20" lengthAdjust="spacing" textLength="33" x="865" y="448.42">has</text><text fill="#000000" font-family="sans-serif" font-size="20" lengthAdjust="spacing" textLength="11" x="884.3594" y="502.5261">1</text></g><!--link Course to EnrolmentLimits--><g id="link_Course_EnrolmentLimits"><path codeLine="60" d="M771.48,396.31 C760.86,422.44 748.5,452.83 737.66,479.49 " fill="none" id="Course-to-EnrolmentLimits" style="stroke:#222222;stroke-width:1.0;"/><polygon fill="#222222" points="735.51,483.77,742.61,476.9444,737.3965,479.1395,735.2013,473.926,735.51,483.77" style="stroke:#222222;stroke-width:1.0;"/><text fill="#000000" font-family="sans-serif" font-size="20" lengthAdjust="spacing" textLength="33" x="759" y="448.42">has</text><text fill="#000000" font-family="sans-serif" font-size="20" lengthAdjust="spacing" textLength="11" x="726.5735" y="471.1959">1</text></g><!--link Course to Code--><g id="link_Course_Code"><path codeLine="61" d="M851.17,370.83 C909.23,410.77 1000.67,473.68 1057.34,512.67 " fill="none" id="Course-to-Code" style="stroke:#222222;stroke-width:1.0;"/><polygon fill="#222222" points="1061.04,515.9,1055.8762,507.5134,1056.9152,513.074,1051.3546,514.1131,1061.04,515.9" style="stroke:#222222;stroke-width:1.0;"/><text fill="#000000" font-family="sans-serif" font-size="20" lengthAdjust="spacing" textLength="134" x="972" y="448.42">is identified by</text><text fill="#000000" font-family="sans-serif" font-size="20" lengthAdjust="spacing" textLength="11" x="1042.1953" y="502.3737">1</text></g><!--link Enrolment to Course--><g id="link_Enrolment_Course"><path codeLine="63" d="M797,146.45 C797,179.66 797,225.35 797,263.02 " fill="none" id="Enrolment-to-Course" style="stroke:#222222;stroke-width:1.0;"/><polygon fill="#222222" points="797,268,801,259,797,263,793,259,797,268" style="stroke:#222222;stroke-width:1.0;"/><text fill="#000000" font-family="sans-serif" font-size="20" lengthAdjust="spacing" textLength="47" x="798" y="200.46">is for</text><text fill="#000000" font-family="sans-serif" font-size="20" lengthAdjust="spacing" textLength="11" x="785.4328" y="255.4455">1</text></g><!--SRC=[bLJBRjim4BppAnRAeG_KZmOz58PWmF6ZDH3OGHJqPA2WnBNCMk8A9DKs2VBlfILRbcGRINMHE3ipI-ukPRPIPLppDA5eYm84hdcUs1af6yWdXEi-UxUnDZE3NYzBkB9vcdGZIdjHmetf2CbZ9sRC77oW28oirJBCBSuZKeLHdssaGC0qiu_03s5JHrEq6nAcxNN3essiALTYJ0bf2576M2EDjAO_PUZgkdWOovo6nmYUx_CurXXpYyCXZ2dN1ZruPW2eh7H9IuWve4W63z8cMAtAQ62TlCAcIbEIEda9d-AtCfNMLFW4JQHbPYKfLZCMo5uOEw60xx__yUbgDljwywN_0Nxp94UWy1T6rXtW-OMTJVQAogNjG2fL-UP_TvalbAWoRbIfGdVAHkLSvdBjjBwlYOu98utEKupgeiheWkxonXwGHnlKZMtjiPh_7hdihiWYX6GjfK3hUeDX0EFRPJ2ThDJoRhfOgVdYvztzyjlzD0XMQZPVp8FlqqdRe3aDBOz3VukX-j_EbePl4zMFyLQ5U9tAzZtkT8RWVVRsvnY0D61td-98A1ZTxaUlQi40DjoSEDI3m46ZoKWP6RfBrw8sM-DIklbjKKwAVvPLlrrdDzM-J6T9HS7A368tMslfVfVX8sF7aMxkl2IlIRD_]--></g></svg>