<?xml version="1.0" encoding="UTF-8" standalone="no"?><svg xmlns="http://www.w3.org/2000/svg" xmlns:xlink="http://www.w3.org/1999/xlink" contentStyleType="text/css" height="270px" preserveAspectRatio="none" style="width:450px;height:270px;background:#FFFFFF;" version="1.1" viewBox="0 0 450 270" width="450px" zoomAndPan="magnify"><defs/><g><rect fill="#FFFFFF" height="66.5625" style="stroke:#181818;stroke-width:1.0;" width="10" x="25.5" y="98.2813"/><rect fill="#FFFFFF" height="37.2813" style="stroke:#181818;stroke-width:1.0;" width="10" x="395.5" y="127.5625"/><line style="stroke:#181818;stroke-width:0.5;stroke-dasharray:5.0,5.0;" x1="30" x2="30" y1="88.2813" y2="182.8438"/><line style="stroke:#181818;stroke-width:0.5;stroke-dasharray:5.0,5.0;" x1="400.5" x2="400.5" y1="88.2813" y2="182.8438"/><text fill="#000000" font-family="sans-serif" font-size="20" lengthAdjust="spacing" textLength="45" x="5" y="83.5645">User</text><ellipse cx="30.5" cy="13.5" fill="#E2E2F0" rx="8" ry="8" style="stroke:#181818;stroke-width:0.5;"/><path d="M30.5,21.5 L30.5,48.5 M17.5,29.5 L43.5,29.5 M30.5,48.5 L17.5,63.5 M30.5,48.5 L43.5,63.5 " fill="none" style="stroke:#181818;stroke-width:0.5;"/><text fill="#000000" font-family="sans-serif" font-size="20" lengthAdjust="spacing" textLength="45" x="5" y="200.4082">User</text><ellipse cx="30.5" cy="213.625" fill="#E2E2F0" rx="8" ry="8" style="stroke:#181818;stroke-width:0.5;"/><path d="M30.5,221.625 L30.5,248.625 M17.5,229.625 L43.5,229.625 M30.5,248.625 L17.5,263.625 M30.5,248.625 L43.5,263.625 " fill="none" style="stroke:#181818;stroke-width:0.5;"/><rect fill="#E2E2F0" height="37.2813" rx="2.5" ry="2.5" style="stroke:#181818;stroke-width:0.5;" width="88" x="356.5" y="50"/><text fill="#000000" font-family="sans-serif" font-size="20" lengthAdjust="spacing" textLength="74" x="363.5" y="75.5645">System</text><rect fill="#E2E2F0" height="37.2813" rx="2.5" ry="2.5" style="stroke:#181818;stroke-width:0.5;" width="88" x="356.5" y="181.8438"/><text fill="#000000" font-family="sans-serif" font-size="20" lengthAdjust="spacing" textLength="74" x="363.5" y="207.4082">System</text><rect fill="#FFFFFF" height="66.5625" style="stroke:#181818;stroke-width:1.0;" width="10" x="25.5" y="98.2813"/><rect fill="#FFFFFF" height="37.2813" style="stroke:#181818;stroke-width:1.0;" width="10" x="395.5" y="127.5625"/><polygon fill="#181818" points="383.5,123.5625,393.5,127.5625,383.5,131.5625,387.5,127.5625" style="stroke:#181818;stroke-width:1.0;"/><line style="stroke:#181818;stroke-width:1.0;" x1="35.5" x2="389.5" y1="127.5625" y2="127.5625"/><text fill="#000000" font-family="sans-serif" font-size="20" font-weight="bold" lengthAdjust="spacing" textLength="14" x="42.5" y="120.8457">1</text><text fill="#000000" font-family="sans-serif" font-size="20" lengthAdjust="spacing" textLength="323" x="60.5" y="120.8457">asks to list the available courses</text><polygon fill="#181818" points="41.5,160.8438,31.5,164.8438,41.5,168.8438,37.5,164.8438" style="stroke:#181818;stroke-width:1.0;"/><line style="stroke:#181818;stroke-width:1.0;stroke-dasharray:2.0,2.0;" x1="35.5" x2="399.5" y1="164.8438" y2="164.8438"/><text fill="#000000" font-family="sans-serif" font-size="20" font-weight="bold" lengthAdjust="spacing" textLength="14" x="47.5" y="158.127">2</text><text fill="#000000" font-family="sans-serif" font-size="20" lengthAdjust="spacing" textLength="248" x="65.5" y="158.127">lists all available courses</text><!--SRC=[RSmn3i8m30NGFQUmkbT2Z0oCN23AmEYcHbXraofsaE3q95q0YT7__sTTE6rOS9KS5vfXfXjMiKjEvlb5S3muh9PJNISgpc6qN608IcK0L0YkOUF86oQ3mJ_LQDqRV_Nxd1zer7Okm7ZkAPnQlIXO1c4ri3i1Ff059o68kHOb_SZ-fwknwT1iDmeeyWVDzCE-x-3U]--></g></svg>