<?xml version="1.0" encoding="UTF-8" standalone="no"?><svg xmlns="http://www.w3.org/2000/svg" xmlns:xlink="http://www.w3.org/1999/xlink" contentStyleType="text/css" height="721px" preserveAspectRatio="none" style="width:1505px;height:721px;background:#FFFFFF;" version="1.1" viewBox="0 0 1505 721" width="1505px" zoomAndPan="magnify"><defs/><g><rect fill="#FFFFFF" height="486.9375" style="stroke:#181818;stroke-width:1.0;" width="10" x="25.5" y="107.5625"/><rect fill="#FFFFFF" height="457.6563" style="stroke:#181818;stroke-width:1.0;" width="10" x="356.5" y="136.8438"/><rect fill="#FFFFFF" height="37.2813" style="stroke:#181818;stroke-width:1.0;" width="10" x="646.5" y="174.125"/><rect fill="#FFFFFF" height="308.5313" style="stroke:#181818;stroke-width:1.0;" width="10" x="646.5" y="248.6875"/><rect fill="#FFFFFF" height="233.9688" style="stroke:#181818;stroke-width:1.0;" width="10" x="923.5" y="285.9688"/><rect fill="#FFFFFF" height="37.2813" style="stroke:#181818;stroke-width:1.0;" width="10" x="1115.5" y="438.375"/><rect fill="#FFFFFF" height="37.2813" style="stroke:#181818;stroke-width:1.0;" width="10" x="1409" y="323.25"/><rect fill="none" height="108.125" style="stroke:#000000;stroke-width:1.5;" width="483" x="840.5" y="375.5313"/><line style="stroke:#181818;stroke-width:0.5;stroke-dasharray:5.0,5.0;" x1="30" x2="30" y1="97.5625" y2="612.5"/><line style="stroke:#181818;stroke-width:0.5;stroke-dasharray:5.0,5.0;" x1="361" x2="361" y1="97.5625" y2="612.5"/><line style="stroke:#181818;stroke-width:0.5;stroke-dasharray:5.0,5.0;" x1="651" x2="651" y1="97.5625" y2="612.5"/><line style="stroke:#181818;stroke-width:0.5;stroke-dasharray:5.0,5.0;" x1="928.5" x2="928.5" y1="97.5625" y2="612.5"/><line style="stroke:#181818;stroke-width:0.5;stroke-dasharray:5.0,5.0;" x1="1120.5" x2="1120.5" y1="97.5625" y2="612.5"/><line style="stroke:#181818;stroke-width:0.5;stroke-dasharray:5.0,5.0;" x1="1250.5" x2="1250.5" y1="97.5625" y2="612.5"/><line style="stroke:#181818;stroke-width:0.5;stroke-dasharray:5.0,5.0;" x1="1413.5" x2="1413.5" y1="97.5625" y2="612.5"/><text fill="#000000" font-family="sans-serif" font-size="20" lengthAdjust="spacing" textLength="45" x="5" y="92.8457">User</text><ellipse cx="30.5" cy="22.7813" fill="#E2E2F0" rx="8" ry="8" style="stroke:#181818;stroke-width:0.5;"/><path d="M30.5,30.7813 L30.5,57.7813 M17.5,38.7813 L43.5,38.7813 M30.5,57.7813 L17.5,72.7813 M30.5,57.7813 L43.5,72.7813 " fill="none" style="stroke:#181818;stroke-width:0.5;"/><text fill="#000000" font-family="sans-serif" font-size="20" lengthAdjust="spacing" textLength="45" x="5" y="630.0645">User</text><ellipse cx="30.5" cy="643.2813" fill="#E2E2F0" rx="8" ry="8" style="stroke:#181818;stroke-width:0.5;"/><path d="M30.5,651.2813 L30.5,678.2813 M17.5,659.2813 L43.5,659.2813 M30.5,678.2813 L17.5,693.2813 M30.5,678.2813 L43.5,693.2813 " fill="none" style="stroke:#181818;stroke-width:0.5;"/><rect fill="#E2E2F0" height="60.5625" rx="2.5" ry="2.5" style="stroke:#181818;stroke-width:0.5;" width="241" x="241" y="36"/><text fill="#000000" font-family="sans-serif" font-size="20" font-style="italic" lengthAdjust="spacing" textLength="151" x="286" y="61.5645">«presentation»</text><text fill="#000000" font-family="sans-serif" font-size="20" lengthAdjust="spacing" textLength="227" x="248" y="84.8457">ListAvailableCoursesUI</text><rect fill="#E2E2F0" height="60.5625" rx="2.5" ry="2.5" style="stroke:#181818;stroke-width:0.5;" width="241" x="241" y="611.5"/><text fill="#000000" font-family="sans-serif" font-size="20" font-style="italic" lengthAdjust="spacing" textLength="151" x="286" y="637.0645">«presentation»</text><text fill="#000000" font-family="sans-serif" font-size="20" lengthAdjust="spacing" textLength="227" x="248" y="660.3457">ListAvailableCoursesUI</text><rect fill="#E2E2F0" height="60.5625" rx="2.5" ry="2.5" style="stroke:#181818;stroke-width:0.5;" width="319" x="492" y="36"/><text fill="#000000" font-family="sans-serif" font-size="20" font-style="italic" lengthAdjust="spacing" textLength="136" x="583.5" y="61.5645">«application»</text><text fill="#000000" font-family="sans-serif" font-size="20" lengthAdjust="spacing" textLength="305" x="499" y="84.8457">ListAvailableCoursesController</text><rect fill="#E2E2F0" height="60.5625" rx="2.5" ry="2.5" style="stroke:#181818;stroke-width:0.5;" width="319" x="492" y="611.5"/><text fill="#000000" font-family="sans-serif" font-size="20" font-style="italic" lengthAdjust="spacing" textLength="136" x="583.5" y="637.0645">«application»</text><text fill="#000000" font-family="sans-serif" font-size="20" lengthAdjust="spacing" textLength="305" x="499" y="660.3457">ListAvailableCoursesController</text><rect fill="#E2E2F0" height="60.5625" rx="2.5" ry="2.5" style="stroke:#181818;stroke-width:0.5;" width="156" x="850.5" y="36"/><text fill="#000000" font-family="sans-serif" font-size="20" font-style="italic" lengthAdjust="spacing" textLength="95" x="881" y="61.5645">«service»</text><text fill="#000000" font-family="sans-serif" font-size="20" lengthAdjust="spacing" textLength="142" x="857.5" y="84.8457">CourseService</text><rect fill="#E2E2F0" height="60.5625" rx="2.5" ry="2.5" style="stroke:#181818;stroke-width:0.5;" width="156" x="850.5" y="611.5"/><text fill="#000000" font-family="sans-serif" font-size="20" font-style="italic" lengthAdjust="spacing" textLength="95" x="881" y="637.0645">«service»</text><text fill="#000000" font-family="sans-serif" font-size="20" lengthAdjust="spacing" textLength="142" x="857.5" y="660.3457">CourseService</text><rect fill="#E2E2F0" height="60.5625" rx="2.5" ry="2.5" style="stroke:#181818;stroke-width:0.5;" width="114" x="1063.5" y="36"/><text fill="#000000" font-family="sans-serif" font-size="20" font-style="italic" lengthAdjust="spacing" textLength="100" x="1070.5" y="61.5645">«domain»</text><text fill="#000000" font-family="sans-serif" font-size="20" lengthAdjust="spacing" textLength="69" x="1086" y="84.8457">Course</text><rect fill="#E2E2F0" height="60.5625" rx="2.5" ry="2.5" style="stroke:#181818;stroke-width:0.5;" width="114" x="1063.5" y="611.5"/><text fill="#000000" font-family="sans-serif" font-size="20" font-style="italic" lengthAdjust="spacing" textLength="100" x="1070.5" y="637.0645">«domain»</text><text fill="#000000" font-family="sans-serif" font-size="20" lengthAdjust="spacing" textLength="69" x="1086" y="660.3457">Course</text><rect fill="#E2E2F0" height="60.5625" rx="2.5" ry="2.5" style="stroke:#181818;stroke-width:0.5;" width="126" x="1187.5" y="36"/><text fill="#000000" font-family="sans-serif" font-size="20" font-style="italic" lengthAdjust="spacing" textLength="57" x="1222" y="61.5645">«dto»</text><text fill="#000000" font-family="sans-serif" font-size="20" lengthAdjust="spacing" textLength="112" x="1194.5" y="84.8457">CourseDTO</text><rect fill="#E2E2F0" height="60.5625" rx="2.5" ry="2.5" style="stroke:#181818;stroke-width:0.5;" width="126" x="1187.5" y="611.5"/><text fill="#000000" font-family="sans-serif" font-size="20" font-style="italic" lengthAdjust="spacing" textLength="57" x="1222" y="637.0645">«dto»</text><text fill="#000000" font-family="sans-serif" font-size="20" lengthAdjust="spacing" textLength="112" x="1194.5" y="660.3457">CourseDTO</text><text fill="#000000" font-family="sans-serif" font-size="20" font-style="italic" lengthAdjust="spacing" textLength="125" x="1348.5" y="69.5645">«repository»</text><text fill="#000000" font-family="sans-serif" font-size="20" lengthAdjust="spacing" textLength="175" x="1323.5" y="92.8457">CourseRepository</text><path d="M1396,15 C1396,5 1414,5 1414,5 C1414,5 1432,5 1432,15 L1432,41 C1432,51 1414,51 1414,51 C1414,51 1396,51 1396,41 L1396,15 " fill="#E2E2F0" style="stroke:#181818;stroke-width:1.5;"/><path d="M1396,15 C1396,25 1414,25 1414,25 C1414,25 1432,25 1432,15 " fill="none" style="stroke:#181818;stroke-width:1.5;"/><text fill="#000000" font-family="sans-serif" font-size="20" font-style="italic" lengthAdjust="spacing" textLength="125" x="1348.5" y="630.0645">«repository»</text><text fill="#000000" font-family="sans-serif" font-size="20" lengthAdjust="spacing" textLength="175" x="1323.5" y="653.3457">CourseRepository</text><path d="M1396,668.0625 C1396,658.0625 1414,658.0625 1414,658.0625 C1414,658.0625 1432,658.0625 1432,668.0625 L1432,694.0625 C1432,704.0625 1414,704.0625 1414,704.0625 C1414,704.0625 1396,704.0625 1396,694.0625 L1396,668.0625 " fill="#E2E2F0" style="stroke:#181818;stroke-width:1.5;"/><path d="M1396,668.0625 C1396,678.0625 1414,678.0625 1414,678.0625 C1414,678.0625 1432,678.0625 1432,668.0625 " fill="none" style="stroke:#181818;stroke-width:1.5;"/><rect fill="#FFFFFF" height="486.9375" style="stroke:#181818;stroke-width:1.0;" width="10" x="25.5" y="107.5625"/><rect fill="#FFFFFF" height="457.6563" style="stroke:#181818;stroke-width:1.0;" width="10" x="356.5" y="136.8438"/><rect fill="#FFFFFF" height="37.2813" style="stroke:#181818;stroke-width:1.0;" width="10" x="646.5" y="174.125"/><rect fill="#FFFFFF" height="308.5313" style="stroke:#181818;stroke-width:1.0;" width="10" x="646.5" y="248.6875"/><rect fill="#FFFFFF" height="233.9688" style="stroke:#181818;stroke-width:1.0;" width="10" x="923.5" y="285.9688"/><rect fill="#FFFFFF" height="37.2813" style="stroke:#181818;stroke-width:1.0;" width="10" x="1115.5" y="438.375"/><rect fill="#FFFFFF" height="37.2813" style="stroke:#181818;stroke-width:1.0;" width="10" x="1409" y="323.25"/><polygon fill="#181818" points="344.5,132.8438,354.5,136.8438,344.5,140.8438,348.5,136.8438" style="stroke:#181818;stroke-width:1.0;"/><line style="stroke:#181818;stroke-width:1.0;" x1="35.5" x2="350.5" y1="136.8438" y2="136.8438"/><text fill="#000000" font-family="sans-serif" font-size="20" font-weight="bold" lengthAdjust="spacing" textLength="14" x="42.5" y="130.127">1</text><text fill="#000000" font-family="sans-serif" font-size="20" lengthAdjust="spacing" textLength="284" x="60.5" y="130.127">asks to list available courses</text><polygon fill="#181818" points="634.5,170.125,644.5,174.125,634.5,178.125,638.5,174.125" style="stroke:#181818;stroke-width:1.0;"/><line style="stroke:#181818;stroke-width:1.0;" x1="366.5" x2="640.5" y1="174.125" y2="174.125"/><text fill="#000000" font-family="sans-serif" font-size="20" font-weight="bold" lengthAdjust="spacing" textLength="14" x="373.5" y="167.4082">2</text><text fill="#000000" font-family="sans-serif" font-size="20" lengthAdjust="spacing" textLength="42" x="391.5" y="167.4082">new</text><polygon fill="#181818" points="916.5,207.4063,926.5,211.4063,916.5,215.4063,920.5,211.4063" style="stroke:#181818;stroke-width:1.0;"/><line style="stroke:#181818;stroke-width:1.0;" x1="651.5" x2="922.5" y1="211.4063" y2="211.4063"/><text fill="#000000" font-family="sans-serif" font-size="20" font-weight="bold" lengthAdjust="spacing" textLength="14" x="658.5" y="204.6895">3</text><text fill="#000000" font-family="sans-serif" font-size="20" lengthAdjust="spacing" textLength="230" x="676.5" y="204.6895">new(courseRepository)</text><polygon fill="#181818" points="634.5,244.6875,644.5,248.6875,634.5,252.6875,638.5,248.6875" style="stroke:#181818;stroke-width:1.0;"/><line style="stroke:#181818;stroke-width:1.0;" x1="366.5" x2="640.5" y1="248.6875" y2="248.6875"/><text fill="#000000" font-family="sans-serif" font-size="20" font-weight="bold" lengthAdjust="spacing" textLength="14" x="373.5" y="241.9707">4</text><text fill="#000000" font-family="sans-serif" font-size="20" lengthAdjust="spacing" textLength="217" x="391.5" y="241.9707">listAvailableCourses()</text><polygon fill="#181818" points="911.5,281.9688,921.5,285.9688,911.5,289.9688,915.5,285.9688" style="stroke:#181818;stroke-width:1.0;"/><line style="stroke:#181818;stroke-width:1.0;" x1="656.5" x2="917.5" y1="285.9688" y2="285.9688"/><text fill="#000000" font-family="sans-serif" font-size="20" font-weight="bold" lengthAdjust="spacing" textLength="14" x="663.5" y="279.252">5</text><text fill="#000000" font-family="sans-serif" font-size="20" lengthAdjust="spacing" textLength="217" x="681.5" y="279.252">listAvailableCourses()</text><polygon fill="#181818" points="1397,319.25,1407,323.25,1397,327.25,1401,323.25" style="stroke:#181818;stroke-width:1.0;"/><line style="stroke:#181818;stroke-width:1.0;" x1="933.5" x2="1403" y1="323.25" y2="323.25"/><text fill="#000000" font-family="sans-serif" font-size="20" font-weight="bold" lengthAdjust="spacing" textLength="14" x="940.5" y="316.5332">6</text><text fill="#000000" font-family="sans-serif" font-size="20" lengthAdjust="spacing" textLength="173" x="958.5" y="316.5332">findAllAvailable()</text><polygon fill="#181818" points="944.5,356.5313,934.5,360.5313,944.5,364.5313,940.5,360.5313" style="stroke:#181818;stroke-width:1.0;"/><line style="stroke:#181818;stroke-width:1.0;stroke-dasharray:2.0,2.0;" x1="938.5" x2="1413" y1="360.5313" y2="360.5313"/><text fill="#000000" font-family="sans-serif" font-size="20" font-weight="bold" lengthAdjust="spacing" textLength="14" x="950.5" y="353.8145">7</text><text fill="#000000" font-family="sans-serif" font-size="20" lengthAdjust="spacing" textLength="76" x="968.5" y="353.8145">courses</text><path d="M840.5,375.5313 L934.5,375.5313 L934.5,390.8125 L924.5,400.8125 L840.5,400.8125 L840.5,375.5313 " fill="#EEEEEE" style="stroke:#000000;stroke-width:1.5;"/><rect fill="none" height="108.125" style="stroke:#000000;stroke-width:1.5;" width="483" x="840.5" y="375.5313"/><text fill="#000000" font-family="sans-serif" font-size="20" font-weight="bold" lengthAdjust="spacing" textLength="49" x="855.5" y="395.0957">loop</text><text fill="#000000" font-family="sans-serif" font-size="20" font-weight="bold" lengthAdjust="spacing" textLength="195" x="949.5" y="396.0957">[for each course]</text><polygon fill="#181818" points="1103.5,434.375,1113.5,438.375,1103.5,442.375,1107.5,438.375" style="stroke:#181818;stroke-width:1.0;"/><line style="stroke:#181818;stroke-width:1.0;" x1="933.5" x2="1109.5" y1="438.375" y2="438.375"/><text fill="#000000" font-family="sans-serif" font-size="20" font-weight="bold" lengthAdjust="spacing" textLength="14" x="940.5" y="431.6582">8</text><text fill="#000000" font-family="sans-serif" font-size="20" lengthAdjust="spacing" textLength="145" x="958.5" y="431.6582">toDTO(course)</text><polygon fill="#181818" points="1238.5,471.6563,1248.5,475.6563,1238.5,479.6563,1242.5,475.6563" style="stroke:#181818;stroke-width:1.0;"/><line style="stroke:#181818;stroke-width:1.0;" x1="1120.5" x2="1244.5" y1="475.6563" y2="475.6563"/><text fill="#000000" font-family="sans-serif" font-size="20" font-weight="bold" lengthAdjust="spacing" textLength="14" x="1127.5" y="468.9395">9</text><text fill="#000000" font-family="sans-serif" font-size="20" lengthAdjust="spacing" textLength="42" x="1145.5" y="468.9395">new</text><polygon fill="#181818" points="667.5,515.9375,657.5,519.9375,667.5,523.9375,663.5,519.9375" style="stroke:#181818;stroke-width:1.0;"/><line style="stroke:#181818;stroke-width:1.0;stroke-dasharray:2.0,2.0;" x1="661.5" x2="927.5" y1="519.9375" y2="519.9375"/><text fill="#000000" font-family="sans-serif" font-size="20" font-weight="bold" lengthAdjust="spacing" textLength="28" x="673.5" y="513.2207">10</text><text fill="#000000" font-family="sans-serif" font-size="20" lengthAdjust="spacing" textLength="76" x="705.5" y="513.2207">courses</text><polygon fill="#181818" points="377.5,553.2188,367.5,557.2188,377.5,561.2188,373.5,557.2188" style="stroke:#181818;stroke-width:1.0;"/><line style="stroke:#181818;stroke-width:1.0;stroke-dasharray:2.0,2.0;" x1="371.5" x2="650.5" y1="557.2188" y2="557.2188"/><text fill="#000000" font-family="sans-serif" font-size="20" font-weight="bold" lengthAdjust="spacing" textLength="28" x="383.5" y="550.502">11</text><text fill="#000000" font-family="sans-serif" font-size="20" lengthAdjust="spacing" textLength="76" x="415.5" y="550.502">courses</text><polygon fill="#181818" points="41.5,590.5,31.5,594.5,41.5,598.5,37.5,594.5" style="stroke:#181818;stroke-width:1.0;"/><line style="stroke:#181818;stroke-width:1.0;stroke-dasharray:2.0,2.0;" x1="35.5" x2="360.5" y1="594.5" y2="594.5"/><text fill="#000000" font-family="sans-serif" font-size="20" font-weight="bold" lengthAdjust="spacing" textLength="28" x="47.5" y="587.7832">12</text><text fill="#000000" font-family="sans-serif" font-size="20" lengthAdjust="spacing" textLength="218" x="79.5" y="587.7832">lists available courses</text><!--SRC=[XP9HQy8m4CVVyoaEd_H167iK4QJRe21iLDtxsPui69EIHCVswNVNL5j7DrzQclp-byll6WxQrkZnQ5nve0egskF9n1Tdurf_4pm-A3n5Pq_77Ncbi8pEmsWRo8y00spNpuNYVDIbhj566ArqYCipQeCxGvax-K1XcoSuX_cyzXJ8HepQsSNYVZRZJhmpfZqmsnGhhe9rRNGvM2JbrkJFkgGcioxUEHBIoZ2UQZDLkIFgFse-RLuRZjz2HiUOgZ3Y3WD1OWggNT0iwKl8ulcDINzTam0hr6UCbDmfUS9q8N9c73a4Y0uCYm2yc80ogUX5Smxc4cjypC3IPxShQwhPO40kt-oForyDJbH5jvdRccPW6kF9lyVSYp2bXEI0g9d1NjjgQSmrquUPK49Dh-Kl7dfz2wICSpNi-SVazO-MKW3jIHade-EXjGOclDLTWZyoeMIeoID0tuiYMu4Se5BddP-1RkH-oSXbeWDGfreW6NyI5mOctel9pFkVylVy0000]--></g></svg>