<?xml version="1.0" encoding="UTF-8" standalone="no"?><svg xmlns="http://www.w3.org/2000/svg" xmlns:xlink="http://www.w3.org/1999/xlink" contentStyleType="text/css" height="792px" preserveAspectRatio="none" style="width:1411px;height:792px;background:#FFFFFF;" version="1.1" viewBox="0 0 1411 792" width="1411px" zoomAndPan="magnify"><defs/><g><rect fill="#FFFFFF" height="542.3596" style="stroke:#181818;stroke-width:1.0;" width="10" x="25" y="115.4799"/><rect fill="#FFFFFF" height="509.1197" style="stroke:#181818;stroke-width:1.0;" width="10" x="331" y="148.7199"/><rect fill="#FFFFFF" height="41.24" style="stroke:#181818;stroke-width:1.0;" width="10" x="603.5" y="189.9599"/><rect fill="#FFFFFF" height="344.1598" style="stroke:#181818;stroke-width:1.0;" width="10" x="603.5" y="272.4398"/><rect fill="#FFFFFF" height="261.6798" style="stroke:#181818;stroke-width:1.0;" width="10" x="860.5" y="313.6798"/><rect fill="#FFFFFF" height="41.24" style="stroke:#181818;stroke-width:1.0;" width="10" x="1040.5" y="485.8797"/><rect fill="#FFFFFF" height="41.24" style="stroke:#181818;stroke-width:1.0;" width="10" x="1319.5" y="354.9198"/><rect fill="none" height="123.9599" style="stroke:#000000;stroke-width:1.5;" width="456.5" x="782.5" y="411.1598"/><line style="stroke:#181818;stroke-width:0.5;stroke-dasharray:5.0,5.0;" x1="30" x2="30" y1="105.4799" y2="675.8396"/><line style="stroke:#181818;stroke-width:0.5;stroke-dasharray:5.0,5.0;" x1="335.5" x2="335.5" y1="105.4799" y2="675.8396"/><line style="stroke:#181818;stroke-width:0.5;stroke-dasharray:5.0,5.0;" x1="608.5" x2="608.5" y1="105.4799" y2="675.8396"/><line style="stroke:#181818;stroke-width:0.5;stroke-dasharray:5.0,5.0;" x1="865.5" x2="865.5" y1="105.4799" y2="675.8396"/><line style="stroke:#181818;stroke-width:0.5;stroke-dasharray:5.0,5.0;" x1="1045" x2="1045" y1="105.4799" y2="675.8396"/><line style="stroke:#181818;stroke-width:0.5;stroke-dasharray:5.0,5.0;" x1="1168" x2="1168" y1="105.4799" y2="675.8396"/><line style="stroke:#181818;stroke-width:0.5;stroke-dasharray:5.0,5.0;" x1="1324" x2="1324" y1="105.4799" y2="675.8396"/><text fill="#000000" font-family="sans-serif" font-size="20" lengthAdjust="spacing" textLength="44" x="5" y="99.62">User</text><ellipse cx="30" cy="26.74" fill="#E2E2F0" rx="8" ry="8" style="stroke:#181818;stroke-width:0.5;"/><path d="M30,34.74 L30,61.74 M17,42.74 L43,42.74 M30,61.74 L17,76.74 M30,61.74 L43,76.74 " fill="none" style="stroke:#181818;stroke-width:0.5;"/><text fill="#000000" font-family="sans-serif" font-size="20" lengthAdjust="spacing" textLength="44" x="5" y="696.2196">User</text><ellipse cx="30" cy="710.5796" fill="#E2E2F0" rx="8" ry="8" style="stroke:#181818;stroke-width:0.5;"/><path d="M30,718.5796 L30,745.5796 M17,726.5796 L43,726.5796 M30,745.5796 L17,760.5796 M30,745.5796 L43,760.5796 " fill="none" style="stroke:#181818;stroke-width:0.5;"/><rect fill="#E2E2F0" height="68.4799" rx="2.5" ry="2.5" style="stroke:#181818;stroke-width:0.5;" width="227" x="222.5" y="36"/><text fill="#000000" font-family="sans-serif" font-size="20" font-style="italic" lengthAdjust="spacing" textLength="134" x="269" y="64.38">«presentation»</text><text fill="#000000" font-family="sans-serif" font-size="20" lengthAdjust="spacing" textLength="213" x="229.5" y="91.62">ListAvailableCoursesUI</text><rect fill="#E2E2F0" height="68.4799" rx="2.5" ry="2.5" style="stroke:#181818;stroke-width:0.5;" width="227" x="222.5" y="674.8396"/><text fill="#000000" font-family="sans-serif" font-size="20" font-style="italic" lengthAdjust="spacing" textLength="134" x="269" y="703.2196">«presentation»</text><text fill="#000000" font-family="sans-serif" font-size="20" lengthAdjust="spacing" textLength="213" x="229.5" y="730.4596">ListAvailableCoursesUI</text><rect fill="#E2E2F0" height="68.4799" rx="2.5" ry="2.5" style="stroke:#181818;stroke-width:0.5;" width="298" x="459.5" y="36"/><text fill="#000000" font-family="sans-serif" font-size="20" font-style="italic" lengthAdjust="spacing" textLength="120" x="548.5" y="64.38">«application»</text><text fill="#000000" font-family="sans-serif" font-size="20" lengthAdjust="spacing" textLength="284" x="466.5" y="91.62">ListAvailableCoursesController</text><rect fill="#E2E2F0" height="68.4799" rx="2.5" ry="2.5" style="stroke:#181818;stroke-width:0.5;" width="298" x="459.5" y="674.8396"/><text fill="#000000" font-family="sans-serif" font-size="20" font-style="italic" lengthAdjust="spacing" textLength="120" x="548.5" y="703.2196">«application»</text><text fill="#000000" font-family="sans-serif" font-size="20" lengthAdjust="spacing" textLength="284" x="466.5" y="730.4596">ListAvailableCoursesController</text><rect fill="#E2E2F0" height="68.4799" rx="2.5" ry="2.5" style="stroke:#181818;stroke-width:0.5;" width="146" x="792.5" y="36"/><text fill="#000000" font-family="sans-serif" font-size="20" font-style="italic" lengthAdjust="spacing" textLength="80" x="825.5" y="64.38">«service»</text><text fill="#000000" font-family="sans-serif" font-size="20" lengthAdjust="spacing" textLength="132" x="799.5" y="91.62">CourseService</text><rect fill="#E2E2F0" height="68.4799" rx="2.5" ry="2.5" style="stroke:#181818;stroke-width:0.5;" width="146" x="792.5" y="674.8396"/><text fill="#000000" font-family="sans-serif" font-size="20" font-style="italic" lengthAdjust="spacing" textLength="80" x="825.5" y="703.2196">«service»</text><text fill="#000000" font-family="sans-serif" font-size="20" lengthAdjust="spacing" textLength="132" x="799.5" y="730.4596">CourseService</text><rect fill="#E2E2F0" height="68.4799" rx="2.5" ry="2.5" style="stroke:#181818;stroke-width:0.5;" width="103" x="994" y="36"/><text fill="#000000" font-family="sans-serif" font-size="20" font-style="italic" lengthAdjust="spacing" textLength="89" x="1001" y="64.38">«domain»</text><text fill="#000000" font-family="sans-serif" font-size="20" lengthAdjust="spacing" textLength="66" x="1012.5" y="91.62">Course</text><rect fill="#E2E2F0" height="68.4799" rx="2.5" ry="2.5" style="stroke:#181818;stroke-width:0.5;" width="103" x="994" y="674.8396"/><text fill="#000000" font-family="sans-serif" font-size="20" font-style="italic" lengthAdjust="spacing" textLength="89" x="1001" y="703.2196">«domain»</text><text fill="#000000" font-family="sans-serif" font-size="20" lengthAdjust="spacing" textLength="66" x="1012.5" y="730.4596">Course</text><rect fill="#E2E2F0" height="68.4799" rx="2.5" ry="2.5" style="stroke:#181818;stroke-width:0.5;" width="122" x="1107" y="36"/><text fill="#000000" font-family="sans-serif" font-size="20" font-style="italic" lengthAdjust="spacing" textLength="50" x="1143" y="64.38">«dto»</text><text fill="#000000" font-family="sans-serif" font-size="20" lengthAdjust="spacing" textLength="108" x="1114" y="91.62">CourseDTO</text><rect fill="#E2E2F0" height="68.4799" rx="2.5" ry="2.5" style="stroke:#181818;stroke-width:0.5;" width="122" x="1107" y="674.8396"/><text fill="#000000" font-family="sans-serif" font-size="20" font-style="italic" lengthAdjust="spacing" textLength="50" x="1143" y="703.2196">«dto»</text><text fill="#000000" font-family="sans-serif" font-size="20" lengthAdjust="spacing" textLength="108" x="1114" y="730.4596">CourseDTO</text><text fill="#000000" font-family="sans-serif" font-size="20" font-style="italic" lengthAdjust="spacing" textLength="110" x="1266.5" y="72.38">«repository»</text><text fill="#000000" font-family="sans-serif" font-size="20" lengthAdjust="spacing" textLength="165" x="1239" y="99.62">CourseRepository</text><path d="M1306.5,15 C1306.5,5 1324.5,5 1324.5,5 C1324.5,5 1342.5,5 1342.5,15 L1342.5,41 C1342.5,51 1324.5,51 1324.5,51 C1324.5,51 1306.5,51 1306.5,41 L1306.5,15 " fill="#E2E2F0" style="stroke:#181818;stroke-width:1.5;"/><path d="M1306.5,15 C1306.5,25 1324.5,25 1324.5,25 C1324.5,25 1342.5,25 1342.5,15 " fill="none" style="stroke:#181818;stroke-width:1.5;"/><text fill="#000000" font-family="sans-serif" font-size="20" font-style="italic" lengthAdjust="spacing" textLength="110" x="1266.5" y="696.2196">«repository»</text><text fill="#000000" font-family="sans-serif" font-size="20" lengthAdjust="spacing" textLength="165" x="1239" y="723.4596">CourseRepository</text><path d="M1306.5,739.3195 C1306.5,729.3195 1324.5,729.3195 1324.5,729.3195 C1324.5,729.3195 1342.5,729.3195 1342.5,739.3195 L1342.5,765.3195 C1342.5,775.3195 1324.5,775.3195 1324.5,775.3195 C1324.5,775.3195 1306.5,775.3195 1306.5,765.3195 L1306.5,739.3195 " fill="#E2E2F0" style="stroke:#181818;stroke-width:1.5;"/><path d="M1306.5,739.3195 C1306.5,749.3195 1324.5,749.3195 1324.5,749.3195 C1324.5,749.3195 1342.5,749.3195 1342.5,739.3195 " fill="none" style="stroke:#181818;stroke-width:1.5;"/><rect fill="#FFFFFF" height="542.3596" style="stroke:#181818;stroke-width:1.0;" width="10" x="25" y="115.4799"/><rect fill="#FFFFFF" height="509.1197" style="stroke:#181818;stroke-width:1.0;" width="10" x="331" y="148.7199"/><rect fill="#FFFFFF" height="41.24" style="stroke:#181818;stroke-width:1.0;" width="10" x="603.5" y="189.9599"/><rect fill="#FFFFFF" height="344.1598" style="stroke:#181818;stroke-width:1.0;" width="10" x="603.5" y="272.4398"/><rect fill="#FFFFFF" height="261.6798" style="stroke:#181818;stroke-width:1.0;" width="10" x="860.5" y="313.6798"/><rect fill="#FFFFFF" height="41.24" style="stroke:#181818;stroke-width:1.0;" width="10" x="1040.5" y="485.8797"/><rect fill="#FFFFFF" height="41.24" style="stroke:#181818;stroke-width:1.0;" width="10" x="1319.5" y="354.9198"/><polygon fill="#181818" points="319,144.7199,329,148.7199,319,152.7199,323,148.7199" style="stroke:#181818;stroke-width:1.0;"/><line style="stroke:#181818;stroke-width:1.0;" x1="35" x2="325" y1="148.7199" y2="148.7199"/><text fill="#000000" font-family="sans-serif" font-size="20" font-weight="bold" lengthAdjust="spacing" textLength="11" x="42" y="140.8599">1</text><text fill="#000000" font-family="sans-serif" font-size="20" lengthAdjust="spacing" textLength="262" x="57" y="140.8599">asks to list available courses</text><polygon fill="#181818" points="591.5,185.9599,601.5,189.9599,591.5,193.9599,595.5,189.9599" style="stroke:#181818;stroke-width:1.0;"/><line style="stroke:#181818;stroke-width:1.0;" x1="341" x2="597.5" y1="189.9599" y2="189.9599"/><text fill="#000000" font-family="sans-serif" font-size="20" font-weight="bold" lengthAdjust="spacing" textLength="11" x="348" y="182.0999">2</text><text fill="#000000" font-family="sans-serif" font-size="20" lengthAdjust="spacing" textLength="39" x="363" y="182.0999">new</text><polygon fill="#181818" points="853.5,227.1999,863.5,231.1999,853.5,235.1999,857.5,231.1999" style="stroke:#181818;stroke-width:1.0;"/><line style="stroke:#181818;stroke-width:1.0;" x1="608.5" x2="859.5" y1="231.1999" y2="231.1999"/><text fill="#000000" font-family="sans-serif" font-size="20" font-weight="bold" lengthAdjust="spacing" textLength="11" x="615.5" y="223.3399">3</text><text fill="#000000" font-family="sans-serif" font-size="20" lengthAdjust="spacing" textLength="213" x="630.5" y="223.3399">new(courseRepository)</text><polygon fill="#181818" points="591.5,268.4398,601.5,272.4398,591.5,276.4398,595.5,272.4398" style="stroke:#181818;stroke-width:1.0;"/><line style="stroke:#181818;stroke-width:1.0;" x1="341" x2="597.5" y1="272.4398" y2="272.4398"/><text fill="#000000" font-family="sans-serif" font-size="20" font-weight="bold" lengthAdjust="spacing" textLength="11" x="348" y="264.5799">4</text><text fill="#000000" font-family="sans-serif" font-size="20" lengthAdjust="spacing" textLength="198" x="363" y="264.5799">listAvailableCourses()</text><polygon fill="#181818" points="848.5,309.6798,858.5,313.6798,848.5,317.6798,852.5,313.6798" style="stroke:#181818;stroke-width:1.0;"/><line style="stroke:#181818;stroke-width:1.0;" x1="613.5" x2="854.5" y1="313.6798" y2="313.6798"/><text fill="#000000" font-family="sans-serif" font-size="20" font-weight="bold" lengthAdjust="spacing" textLength="11" x="620.5" y="305.8198">5</text><text fill="#000000" font-family="sans-serif" font-size="20" lengthAdjust="spacing" textLength="198" x="635.5" y="305.8198">listAvailableCourses()</text><polygon fill="#181818" points="1307.5,350.9198,1317.5,354.9198,1307.5,358.9198,1311.5,354.9198" style="stroke:#181818;stroke-width:1.0;"/><line style="stroke:#181818;stroke-width:1.0;" x1="870.5" x2="1313.5" y1="354.9198" y2="354.9198"/><text fill="#000000" font-family="sans-serif" font-size="20" font-weight="bold" lengthAdjust="spacing" textLength="11" x="877.5" y="347.0598">6</text><text fill="#000000" font-family="sans-serif" font-size="20" lengthAdjust="spacing" textLength="154" x="892.5" y="347.0598">findAllAvailable()</text><polygon fill="#181818" points="881.5,392.1598,871.5,396.1598,881.5,400.1598,877.5,396.1598" style="stroke:#181818;stroke-width:1.0;"/><line style="stroke:#181818;stroke-width:1.0;stroke-dasharray:2.0,2.0;" x1="875.5" x2="1323.5" y1="396.1598" y2="396.1598"/><text fill="#000000" font-family="sans-serif" font-size="20" font-weight="bold" lengthAdjust="spacing" textLength="11" x="887.5" y="388.2998">7</text><text fill="#000000" font-family="sans-serif" font-size="20" lengthAdjust="spacing" textLength="73" x="902.5" y="388.2998">courses</text><path d="M782.5,411.1598 L870.5,411.1598 L870.5,430.3997 L860.5,440.3997 L782.5,440.3997 L782.5,411.1598 " fill="#EEEEEE" style="stroke:#000000;stroke-width:1.5;"/><rect fill="none" height="123.9599" style="stroke:#000000;stroke-width:1.5;" width="456.5" x="782.5" y="411.1598"/><text fill="#000000" font-family="sans-serif" font-size="20" font-weight="bold" lengthAdjust="spacing" textLength="43" x="797.5" y="433.5398">loop</text><text fill="#000000" font-family="sans-serif" font-size="20" font-weight="bold" lengthAdjust="spacing" textLength="166" x="885.5" y="434.5398">[for each course]</text><polygon fill="#181818" points="1028.5,481.8797,1038.5,485.8797,1028.5,489.8797,1032.5,485.8797" style="stroke:#181818;stroke-width:1.0;"/><line style="stroke:#181818;stroke-width:1.0;" x1="870.5" x2="1034.5" y1="485.8797" y2="485.8797"/><text fill="#000000" font-family="sans-serif" font-size="20" font-weight="bold" lengthAdjust="spacing" textLength="11" x="877.5" y="478.0197">8</text><text fill="#000000" font-family="sans-serif" font-size="20" lengthAdjust="spacing" textLength="136" x="892.5" y="478.0197">toDTO(course)</text><polygon fill="#181818" points="1156,523.1197,1166,527.1197,1156,531.1197,1160,527.1197" style="stroke:#181818;stroke-width:1.0;"/><line style="stroke:#181818;stroke-width:1.0;" x1="1045.5" x2="1162" y1="527.1197" y2="527.1197"/><text fill="#000000" font-family="sans-serif" font-size="20" font-weight="bold" lengthAdjust="spacing" textLength="11" x="1052.5" y="519.2597">9</text><text fill="#000000" font-family="sans-serif" font-size="20" lengthAdjust="spacing" textLength="39" x="1067.5" y="519.2597">new</text><polygon fill="#181818" points="624.5,571.3596,614.5,575.3596,624.5,579.3596,620.5,575.3596" style="stroke:#181818;stroke-width:1.0;"/><line style="stroke:#181818;stroke-width:1.0;stroke-dasharray:2.0,2.0;" x1="618.5" x2="864.5" y1="575.3596" y2="575.3596"/><text fill="#000000" font-family="sans-serif" font-size="20" font-weight="bold" lengthAdjust="spacing" textLength="22" x="630.5" y="567.4997">10</text><text fill="#000000" font-family="sans-serif" font-size="20" lengthAdjust="spacing" textLength="73" x="656.5" y="567.4997">courses</text><polygon fill="#181818" points="352,612.5996,342,616.5996,352,620.5996,348,616.5996" style="stroke:#181818;stroke-width:1.0;"/><line style="stroke:#181818;stroke-width:1.0;stroke-dasharray:2.0,2.0;" x1="346" x2="607.5" y1="616.5996" y2="616.5996"/><text fill="#000000" font-family="sans-serif" font-size="20" font-weight="bold" lengthAdjust="spacing" textLength="22" x="358" y="608.7396">11</text><text fill="#000000" font-family="sans-serif" font-size="20" lengthAdjust="spacing" textLength="73" x="384" y="608.7396">courses</text><polygon fill="#181818" points="41,653.8396,31,657.8396,41,661.8396,37,657.8396" style="stroke:#181818;stroke-width:1.0;"/><line style="stroke:#181818;stroke-width:1.0;stroke-dasharray:2.0,2.0;" x1="35" x2="335" y1="657.8396" y2="657.8396"/><text fill="#000000" font-family="sans-serif" font-size="20" font-weight="bold" lengthAdjust="spacing" textLength="22" x="47" y="649.9796">12</text><text fill="#000000" font-family="sans-serif" font-size="20" lengthAdjust="spacing" textLength="201" x="73" y="649.9796">lists available courses</text><!--SRC=[XP9HQy8m4CVVyoaEd_H167iK4QJRe21iLDtxsPui69EIHCVswNVNL5j7DrzQclp-byll6WxQrkZnQ5nve0egskF9n1Tdurf_4pm-A3n5Pq_77Ncbi8pEmsWRo8y00spNpuNYVDIbhj566ArqYCipQeCxGvax-K1XcoSuX_cyzXJ8HepQsSNYVZRZJhmpfZqmsnGhhe9rRNGvM2JbrkJFkgGcioxUEHBIoZ2UQZDLkIFgFse-RLuRZjz2HiUOgZ3Y3WD1OWggNT0iwKl8ulcDINzTam0hr6UCbDmfUS9q8N9c73a4Y0uCYm2yc80ogUX5Smxc4cjypC3IPxShQwhPO40kt-oForyDJbH5jvdRccPW6kF9lyVSYp2bXEI0g9d1NjjgQSmrquUPK49Dh-Kl7dfz2wICSpNi-SVazO-MKW3jIHade-EXjGOclDLTWZyoeMIeoID0tuiYMu4Se5BddP-1RkH-oSXbeWDGfreW6NyI5mOctel9pFkVylVy0000]--></g></svg>