<?xml version="1.0" encoding="UTF-8" standalone="no"?><svg xmlns="http://www.w3.org/2000/svg" xmlns:xlink="http://www.w3.org/1999/xlink" contentStyleType="text/css" height="562px" preserveAspectRatio="none" style="width:678px;height:562px;background:#FFFFFF;" version="1.1" viewBox="0 0 678 562" width="678px" zoomAndPan="magnify"><defs/><g><!--cluster <<aggregate>> Course--><g id="cluster_&lt;&lt;aggregate&gt;&gt; Course"><path d="M135,233.2168 L366,233.2168 A3.75,3.75 0 0 1 368.5,235.7168 L375.5,262.498 L550,262.498 A2.5,2.5 0 0 1 552.5,264.998 L552.5,553.2168 A2.5,2.5 0 0 1 550,555.7168 L135,555.7168 A2.5,2.5 0 0 1 132.5,553.2168 L132.5,235.7168 A2.5,2.5 0 0 1 135,233.2168 " fill="none" style="stroke:#000000;stroke-width:1.5;"/><line style="stroke:#000000;stroke-width:1.5;" x1="132.5" x2="375.5" y1="262.498" y2="262.498"/><text fill="#000000" font-family="sans-serif" font-size="20" font-weight="bold" lengthAdjust="spacing" textLength="230" x="136.5" y="253.7813">«aggregate» Course</text></g><!--cluster <<aggregate>> Enrolment--><g id="cluster_&lt;&lt;aggregate&gt;&gt; Enrolment"><path d="M136,22.7168 L406,22.7168 A3.75,3.75 0 0 1 408.5,25.2168 L415.5,51.998 L416,51.998 A2.5,2.5 0 0 1 418.5,54.498 L418.5,158.2168 A2.5,2.5 0 0 1 416,160.7168 L136,160.7168 A2.5,2.5 0 0 1 133.5,158.2168 L133.5,25.2168 A2.5,2.5 0 0 1 136,22.7168 " fill="none" style="stroke:#000000;stroke-width:1.5;"/><line style="stroke:#000000;stroke-width:1.5;" x1="133.5" x2="415.5" y1="51.998" y2="51.998"/><text fill="#000000" font-family="sans-serif" font-size="20" font-weight="bold" lengthAdjust="spacing" textLength="269" x="137.5" y="43.2813">«aggregate» Enrolment</text></g><!--cluster <<aggregate>> Exam--><g id="cluster_&lt;&lt;aggregate&gt;&gt; Exam"><path d="M445,7.2168 L659,7.2168 A3.75,3.75 0 0 1 661.5,9.7168 L668.5,36.498 L669,36.498 A2.5,2.5 0 0 1 671.5,38.998 L671.5,173.7168 A2.5,2.5 0 0 1 669,176.2168 L445,176.2168 A2.5,2.5 0 0 1 442.5,173.7168 L442.5,9.7168 A2.5,2.5 0 0 1 445,7.2168 " fill="none" style="stroke:#000000;stroke-width:1.5;"/><line style="stroke:#000000;stroke-width:1.5;" x1="442.5" x2="668.5" y1="36.498" y2="36.498"/><text fill="#000000" font-family="sans-serif" font-size="20" font-weight="bold" lengthAdjust="spacing" textLength="213" x="446.5" y="27.7813">«aggregate» Exam</text></g><!--class Course--><g id="elem_Course"><rect codeLine="20" fill="#F5F5DC" height="111.125" id="Course" rx="2.5" ry="2.5" style="stroke:#181818;stroke-width:0.5;" width="113" x="327" y="275.2168"/><ellipse cx="343" cy="315.1387" fill="#ADD1B2" rx="12" ry="12" style="stroke:#181818;stroke-width:1.0;"/><path d="M347.7188,322.6387 L338.6406,322.6387 L338.6406,308.0605 L347.7188,308.0605 L347.7188,310.5918 L341.5156,310.5918 L341.5156,313.748 L347.1406,313.748 L347.1406,316.2793 L341.5156,316.2793 L341.5156,320.0918 L347.7188,320.0918 L347.7188,322.6387 Z " fill="#000000"/><text fill="#000000" font-family="sans-serif" font-size="20" font-style="italic" lengthAdjust="spacing" textLength="83" x="356" y="298.7813">«entity»</text><text fill="#000000" font-family="sans-serif" font-size="20" font-style="italic" lengthAdjust="spacing" textLength="64" x="365.5" y="322.0625">«root»</text><text fill="#000000" font-family="sans-serif" font-size="20" lengthAdjust="spacing" textLength="69" x="363" y="345.3438">Course</text><line style="stroke:#181818;stroke-width:0.5;" x1="328" x2="439" y1="355.0605" y2="355.0605"/><text fill="#000000" font-family="sans-serif" font-size="20" lengthAdjust="spacing" textLength="55" x="333" y="377.625">-code</text></g><!--class Title--><g id="elem_Title"><rect codeLine="37" fill="#F5F5DC" height="56.5625" id="Title" rx="2.5" ry="2.5" style="stroke:#181818;stroke-width:0.5;" width="177" x="360" y="482.7168"/><ellipse cx="376" cy="510.998" fill="#FF8B40" rx="12" ry="12" style="stroke:#181818;stroke-width:1.0;"/><path d="M376.0156,516.8418 L378.5781,504.6699 L381.4844,504.6699 L378.0156,519.248 L374.0313,519.248 L370.5625,504.6699 L373.4531,504.6699 L376.0156,516.8418 Z " fill="#000000"/><text fill="#000000" font-family="sans-serif" font-size="20" font-style="italic" lengthAdjust="spacing" textLength="147" x="389" y="506.2813">«value object»</text><text fill="#000000" font-family="sans-serif" font-size="20" lengthAdjust="spacing" textLength="44" x="440.5" y="529.5625">Title</text></g><!--class State--><g id="elem_State"><rect codeLine="38" fill="#F5F5DC" height="56.5625" id="State" rx="2.5" ry="2.5" style="stroke:#181818;stroke-width:0.5;" width="177" x="148" y="482.7168"/><ellipse cx="164" cy="510.998" fill="#FF8B40" rx="12" ry="12" style="stroke:#181818;stroke-width:1.0;"/><path d="M164.0156,516.8418 L166.5781,504.6699 L169.4844,504.6699 L166.0156,519.248 L162.0313,519.248 L158.5625,504.6699 L161.4531,504.6699 L164.0156,516.8418 Z " fill="#000000"/><text fill="#000000" font-family="sans-serif" font-size="20" font-style="italic" lengthAdjust="spacing" textLength="147" x="177" y="506.2813">«value object»</text><text fill="#000000" font-family="sans-serif" font-size="20" lengthAdjust="spacing" textLength="53" x="224" y="529.5625">State</text></g><!--class Enrolment--><g id="elem_Enrolment"><rect codeLine="24" fill="#F5F5DC" height="79.8438" id="Enrolment" rx="2.5" ry="2.5" style="stroke:#181818;stroke-width:0.5;" width="139" x="263" y="64.7168"/><ellipse cx="279" cy="104.6387" fill="#ADD1B2" rx="12" ry="12" style="stroke:#181818;stroke-width:1.0;"/><path d="M283.7188,112.1387 L274.6406,112.1387 L274.6406,97.5605 L283.7188,97.5605 L283.7188,100.0918 L277.5156,100.0918 L277.5156,103.248 L283.1406,103.248 L283.1406,105.7793 L277.5156,105.7793 L277.5156,109.5918 L283.7188,109.5918 L283.7188,112.1387 Z " fill="#000000"/><text fill="#000000" font-family="sans-serif" font-size="20" font-style="italic" lengthAdjust="spacing" textLength="83" x="305" y="88.2813">«entity»</text><text fill="#000000" font-family="sans-serif" font-size="20" font-style="italic" lengthAdjust="spacing" textLength="64" x="314.5" y="111.5625">«root»</text><text fill="#000000" font-family="sans-serif" font-size="20" lengthAdjust="spacing" textLength="105" x="294" y="134.8438">Enrolment</text></g><!--class Exam--><g id="elem_Exam"><rect codeLine="31" fill="#F5F5DC" height="111.125" id="Exam" rx="2.5" ry="2.5" style="stroke:#181818;stroke-width:0.5;" width="113" x="459" y="49.2168"/><ellipse cx="475" cy="89.1387" fill="#ADD1B2" rx="12" ry="12" style="stroke:#181818;stroke-width:1.0;"/><path d="M479.7188,96.6387 L470.6406,96.6387 L470.6406,82.0605 L479.7188,82.0605 L479.7188,84.5918 L473.5156,84.5918 L473.5156,87.748 L479.1406,87.748 L479.1406,90.2793 L473.5156,90.2793 L473.5156,94.0918 L479.7188,94.0918 L479.7188,96.6387 Z " fill="#000000"/><text fill="#000000" font-family="sans-serif" font-size="20" font-style="italic" lengthAdjust="spacing" textLength="83" x="488" y="72.7813">«entity»</text><text fill="#000000" font-family="sans-serif" font-size="20" font-style="italic" lengthAdjust="spacing" textLength="64" x="497.5" y="96.0625">«root»</text><text fill="#000000" font-family="sans-serif" font-size="20" lengthAdjust="spacing" textLength="56" x="501.5" y="119.3438">Exam</text><line style="stroke:#181818;stroke-width:0.5;" x1="460" x2="571" y1="129.0605" y2="129.0605"/><text fill="#000000" font-family="sans-serif" font-size="20" lengthAdjust="spacing" textLength="26" x="465" y="151.625">-id</text></g><g id="elem_GMN10"><path d="M6,471.2168 L6,551.0605 A0,0 0 0 0 6,551.0605 L113,551.0605 A0,0 0 0 0 113,551.0605 L113,515.2168 L147.79,511.2168 L113,507.2168 L113,481.2168 L103,471.2168 L6,471.2168 A0,0 0 0 0 6,471.2168 " fill="#FEFFDD" style="stroke:#181818;stroke-width:0.5;"/><path d="M103,471.2168 L103,481.2168 L113,481.2168 L103,471.2168 " fill="#FEFFDD" style="stroke:#181818;stroke-width:0.5;"/><text fill="#000000" font-family="sans-serif" font-size="20" lengthAdjust="spacing" textLength="54" x="12" y="494.7813">Open</text><text fill="#000000" font-family="sans-serif" font-size="20" lengthAdjust="spacing" textLength="86" x="12" y="518.0625">Ongoing</text><text fill="#000000" font-family="sans-serif" font-size="20" lengthAdjust="spacing" textLength="67" x="12" y="541.3438">Closed</text></g><!--link Course to Title--><g id="link_Course_Title"><path codeLine="40" d="M403.36,386.2468 C414.21,416.0368 427.28,451.9568 436.56,477.4368 " fill="none" id="Course-to-Title" style="stroke:#222222;stroke-width:1.0;"/><polygon fill="#222222" points="438.37,482.3968,439.0439,472.571,436.6567,477.6995,431.5282,475.3123,438.37,482.3968" style="stroke:#222222;stroke-width:1.0;"/><text fill="#000000" font-family="sans-serif" font-size="20" lengthAdjust="spacing" textLength="75" x="422.5" y="435.7813">is titled</text><text fill="#000000" font-family="sans-serif" font-size="20" lengthAdjust="spacing" textLength="13" x="422.096" y="470.094">1</text></g><!--link Course to State--><g id="link_Course_State"><path codeLine="41" d="M338.6,386.2468 C313.75,416.4168 283.74,452.8568 262.71,478.3868 " fill="none" id="Course-to-State" style="stroke:#222222;stroke-width:1.0;"/><polygon fill="#222222" points="259.41,482.3968,268.2254,478.0048,262.594,478.5417,262.0572,472.9104,259.41,482.3968" style="stroke:#222222;stroke-width:1.0;"/><text fill="#000000" font-family="sans-serif" font-size="20" lengthAdjust="spacing" textLength="41" x="310.5" y="435.7813">is in</text><text fill="#000000" font-family="sans-serif" font-size="20" lengthAdjust="spacing" textLength="13" x="249.6407" y="470.094">1</text></g><!--link Enrolment to Course--><g id="link_Enrolment_Course"><path codeLine="42" d="M341.38,144.7368 C349.25,179.2868 360.85,230.2468 369.89,269.9268 " fill="none" id="Enrolment-to-Course" style="stroke:#222222;stroke-width:1.0;"/><polygon fill="#222222" points="371.09,275.2068,373.0155,265.548,369.9918,270.3289,365.2109,267.3052,371.09,275.2068" style="stroke:#222222;stroke-width:1.0;"/><text fill="#000000" font-family="sans-serif" font-size="20" lengthAdjust="spacing" textLength="49" x="356.5" y="211.7813">is for</text><text fill="#000000" font-family="sans-serif" font-size="20" lengthAdjust="spacing" textLength="13" x="355.7853" y="262.6139">1</text></g><!--link Exam to Course--><g id="link_Exam_Course"><path codeLine="44" d="M483.38,160.2268 C463.73,193.5668 438.59,236.2268 418.45,270.4068 " fill="none" id="Exam-to-Course" style="stroke:#222222;stroke-width:1.0;"/><polygon fill="#222222" points="415.77,274.9668,423.7942,269.2561,418.3151,270.663,416.9081,265.1839,415.77,274.9668" style="stroke:#222222;stroke-width:1.0;"/><text fill="#000000" font-family="sans-serif" font-size="20" lengthAdjust="spacing" textLength="49" x="461.5" y="211.7813">is for</text><text fill="#000000" font-family="sans-serif" font-size="20" lengthAdjust="spacing" textLength="13" x="405.9107" y="262.3447">1</text></g><!--SRC=[XL1BJm8n4BxtLqpWe2Qk8F5Wo8O4Y2IUE60ySIdReLIwdKqxwpFyTyikYoi9sbFdUyta2rlZ2kbbRYdReWA5QrbQdf7ZXVb46FJ5nOQv2CDUhx3ISPdRcupoNcPb28aoKaUp4A79WOeOCtkpAXaVCt9LK5ziZ4B0lE0Fa0qTscYEl24LJhCcCjjgJwLJKxBaOOL6OqiqzfxUQgexg9uGHVH8ZT19KwcrHoqPHoEOKka3Tk1BG7pesCIrDIWgg5e8JuOjjkO5HxlOdOrzS9vi7kDEae_utljh6wHfFKTtcdeYZf_Qcq162bkEOyePqnztlSlyzAG8jRFZUFQMnAYzr14ZM5mpqBgk0eOmBz0jtTnfCaultTHIG2L4gx-OTVbytPtDxYTt_IjubRP4eDKBPbN-JhIw_LSh3hKboGWwjvt3XY6O0Bp_gbD1SsSK62T-AcpuWxmIhCaBKJLnZlq6]--></g></svg>