<?xml version="1.0" encoding="UTF-8" standalone="no"?><svg xmlns="http://www.w3.org/2000/svg" xmlns:xlink="http://www.w3.org/1999/xlink" contentStyleType="text/css" height="868px" preserveAspectRatio="none" style="width:1568px;height:868px;background:#FFFFFF;" version="1.1" viewBox="0 0 1568 868" width="1568px" zoomAndPan="magnify"><defs/><g><!--cluster <<aggregate>> Exam--><g id="cluster_&lt;&lt;aggregate&gt;&gt; Exam"><path d="M8.5,7.2168 L222.5,7.2168 A3.75,3.75 0 0 1 225,9.7168 L232,36.498 L1277.5,36.498 A2.5,2.5 0 0 1 1280,38.998 L1280,858.7168 A2.5,2.5 0 0 1 1277.5,861.2168 L8.5,861.2168 A2.5,2.5 0 0 1 6,858.7168 L6,9.7168 A2.5,2.5 0 0 1 8.5,7.2168 " fill="none" style="stroke:#000000;stroke-width:1.5;"/><line style="stroke:#000000;stroke-width:1.5;" x1="6" x2="232" y1="36.498" y2="36.498"/><text fill="#000000" font-family="sans-serif" font-size="20" font-weight="bold" lengthAdjust="spacing" textLength="213" x="10" y="27.7813">«aggregate» Exam</text></g><!--cluster <<aggregate>> Student--><g id="cluster_&lt;&lt;aggregate&gt;&gt; Student"><path d="M1306.5,7.2168 L1548.5,7.2168 A3.75,3.75 0 0 1 1551,9.7168 L1558,36.498 L1558.5,36.498 A2.5,2.5 0 0 1 1561,38.998 L1561,142.7168 A2.5,2.5 0 0 1 1558.5,145.2168 L1306.5,145.2168 A2.5,2.5 0 0 1 1304,142.7168 L1304,9.7168 A2.5,2.5 0 0 1 1306.5,7.2168 " fill="none" style="stroke:#000000;stroke-width:1.5;"/><line style="stroke:#000000;stroke-width:1.5;" x1="1304" x2="1558" y1="36.498" y2="36.498"/><text fill="#000000" font-family="sans-serif" font-size="20" font-weight="bold" lengthAdjust="spacing" textLength="241" x="1308" y="27.7813">«aggregate» Student</text></g><!--cluster <<aggregate>> Course--><g id="cluster_&lt;&lt;aggregate&gt;&gt; Course"><path d="M1306.5,367.2168 L1537.5,367.2168 A3.75,3.75 0 0 1 1540,369.7168 L1547,396.498 L1547.5,396.498 A2.5,2.5 0 0 1 1550,398.998 L1550,502.7168 A2.5,2.5 0 0 1 1547.5,505.2168 L1306.5,505.2168 A2.5,2.5 0 0 1 1304,502.7168 L1304,369.7168 A2.5,2.5 0 0 1 1306.5,367.2168 " fill="none" style="stroke:#000000;stroke-width:1.5;"/><line style="stroke:#000000;stroke-width:1.5;" x1="1304" x2="1547" y1="396.498" y2="396.498"/><text fill="#000000" font-family="sans-serif" font-size="20" font-weight="bold" lengthAdjust="spacing" textLength="230" x="1308" y="387.7813">«aggregate» Course</text></g><!--class Exam--><g id="elem_Exam"><rect codeLine="45" fill="#F5F5DC" height="79.8438" id="Exam" rx="2.5" ry="2.5" style="stroke:#181818;stroke-width:0.5;" width="113" x="1150.5" y="216.2168"/><ellipse cx="1166.5" cy="256.1387" fill="#ADD1B2" rx="12" ry="12" style="stroke:#181818;stroke-width:1.0;"/><path d="M1171.2188,263.6387 L1162.1406,263.6387 L1162.1406,249.0605 L1171.2188,249.0605 L1171.2188,251.5918 L1165.0156,251.5918 L1165.0156,254.748 L1170.6406,254.748 L1170.6406,257.2793 L1165.0156,257.2793 L1165.0156,261.0918 L1171.2188,261.0918 L1171.2188,263.6387 Z " fill="#000000"/><text fill="#000000" font-family="sans-serif" font-size="20" font-style="italic" lengthAdjust="spacing" textLength="83" x="1179.5" y="239.7813">«entity»</text><text fill="#000000" font-family="sans-serif" font-size="20" font-style="italic" lengthAdjust="spacing" textLength="64" x="1189" y="263.0625">«root»</text><text fill="#000000" font-family="sans-serif" font-size="20" lengthAdjust="spacing" textLength="56" x="1193" y="286.3438">Exam</text></g><!--class Section--><g id="elem_Section"><rect codeLine="47" fill="#F5F5DC" height="56.5625" id="Section" rx="2.5" ry="2.5" style="stroke:#181818;stroke-width:0.5;" width="113" x="1099.5" y="420.7168"/><ellipse cx="1115.5" cy="448.998" fill="#ADD1B2" rx="12" ry="12" style="stroke:#181818;stroke-width:1.0;"/><path d="M1120.2188,456.498 L1111.1406,456.498 L1111.1406,441.9199 L1120.2188,441.9199 L1120.2188,444.4512 L1114.0156,444.4512 L1114.0156,447.6074 L1119.6406,447.6074 L1119.6406,450.1387 L1114.0156,450.1387 L1114.0156,453.9512 L1120.2188,453.9512 L1120.2188,456.498 Z " fill="#000000"/><text fill="#000000" font-family="sans-serif" font-size="20" font-style="italic" lengthAdjust="spacing" textLength="83" x="1128.5" y="444.2813">«entity»</text><text fill="#000000" font-family="sans-serif" font-size="20" lengthAdjust="spacing" textLength="75" x="1132.5" y="467.5625">Section</text></g><!--class Question--><g id="elem_Question"><rect codeLine="49" fill="#F5F5DC" height="56.5625" id="Question" rx="2.5" ry="2.5" style="stroke:#181818;stroke-width:0.5;" width="124" x="656" y="552.2168"/><ellipse cx="672" cy="580.498" fill="#ADD1B2" rx="12" ry="12" style="stroke:#181818;stroke-width:1.0;"/><path d="M676.7188,587.998 L667.6406,587.998 L667.6406,573.4199 L676.7188,573.4199 L676.7188,575.9512 L670.5156,575.9512 L670.5156,579.1074 L676.1406,579.1074 L676.1406,581.6387 L670.5156,581.6387 L670.5156,585.4512 L676.7188,585.4512 L676.7188,587.998 Z " fill="#000000"/><text fill="#000000" font-family="sans-serif" font-size="20" font-style="italic" lengthAdjust="spacing" textLength="83" x="690.5" y="575.7813">«entity»</text><text fill="#000000" font-family="sans-serif" font-size="20" lengthAdjust="spacing" textLength="90" x="687" y="599.0625">Question</text></g><!--class QuestionNumber--><g id="elem_QuestionNumber"><rect codeLine="51" fill="#F5F5DC" height="56.5625" id="QuestionNumber" rx="2.5" ry="2.5" style="stroke:#181818;stroke-width:0.5;" width="205" x="815.5" y="552.2168"/><ellipse cx="831.5" cy="580.498" fill="#FF8B40" rx="12" ry="12" style="stroke:#181818;stroke-width:1.0;"/><path d="M831.5156,586.3418 L834.0781,574.1699 L836.9844,574.1699 L833.5156,588.748 L829.5313,588.748 L826.0625,574.1699 L828.9531,574.1699 L831.5156,586.3418 Z " fill="#000000"/><text fill="#000000" font-family="sans-serif" font-size="20" font-style="italic" lengthAdjust="spacing" textLength="147" x="858.5" y="575.7813">«value object»</text><text fill="#000000" font-family="sans-serif" font-size="20" lengthAdjust="spacing" textLength="171" x="846.5" y="599.0625">QuestionNumber</text></g><!--class QuestionBody--><g id="elem_QuestionBody"><rect codeLine="52" fill="#F5F5DC" height="56.5625" id="QuestionBody" rx="2.5" ry="2.5" style="stroke:#181818;stroke-width:0.5;" width="177" x="428.5" y="670.2168"/><ellipse cx="444.5" cy="698.498" fill="#FF8B40" rx="12" ry="12" style="stroke:#181818;stroke-width:1.0;"/><path d="M444.5156,704.3418 L447.0781,692.1699 L449.9844,692.1699 L446.5156,706.748 L442.5313,706.748 L439.0625,692.1699 L441.9531,692.1699 L444.5156,704.3418 Z " fill="#000000"/><text fill="#000000" font-family="sans-serif" font-size="20" font-style="italic" lengthAdjust="spacing" textLength="147" x="457.5" y="693.7813">«value object»</text><text fill="#000000" font-family="sans-serif" font-size="20" lengthAdjust="spacing" textLength="140" x="461" y="717.0625">QuestionBody</text></g><!--class SectionName--><g id="elem_SectionName"><rect codeLine="54" fill="#F5F5DC" height="56.5625" id="SectionName" rx="2.5" ry="2.5" style="stroke:#181818;stroke-width:0.5;" width="177" x="1067.5" y="552.2168"/><ellipse cx="1083.5" cy="580.498" fill="#FF8B40" rx="12" ry="12" style="stroke:#181818;stroke-width:1.0;"/><path d="M1083.5156,586.3418 L1086.0781,574.1699 L1088.9844,574.1699 L1085.5156,588.748 L1081.5313,588.748 L1078.0625,574.1699 L1080.9531,574.1699 L1083.5156,586.3418 Z " fill="#000000"/><text fill="#000000" font-family="sans-serif" font-size="20" font-style="italic" lengthAdjust="spacing" textLength="147" x="1096.5" y="575.7813">«value object»</text><text fill="#000000" font-family="sans-serif" font-size="20" lengthAdjust="spacing" textLength="134" x="1103" y="599.0625">SectionName</text></g><!--class Answer--><g id="elem_Answer"><rect codeLine="42" fill="#F5F5DC" height="79.8438" id="Answer" rx="2.5" ry="2.5" style="stroke:#181818;stroke-width:0.5;" width="113" x="1150.5" y="49.2168"/><ellipse cx="1166.5" cy="89.1387" fill="#ADD1B2" rx="12" ry="12" style="stroke:#181818;stroke-width:1.0;"/><path d="M1171.2188,96.6387 L1162.1406,96.6387 L1162.1406,82.0605 L1171.2188,82.0605 L1171.2188,84.5918 L1165.0156,84.5918 L1165.0156,87.748 L1170.6406,87.748 L1170.6406,90.2793 L1165.0156,90.2793 L1165.0156,94.0918 L1171.2188,94.0918 L1171.2188,96.6387 Z " fill="#000000"/><text fill="#000000" font-family="sans-serif" font-size="20" font-style="italic" lengthAdjust="spacing" textLength="83" x="1179.5" y="72.7813">«entity»</text><text fill="#000000" font-family="sans-serif" font-size="20" font-style="italic" lengthAdjust="spacing" textLength="64" x="1189" y="96.0625">«root»</text><text fill="#000000" font-family="sans-serif" font-size="20" lengthAdjust="spacing" textLength="74" x="1184" y="119.3438">Answer</text></g><!--class Matching--><g id="elem_Matching"><rect codeLine="56" fill="#F5F5DC" height="56.5625" id="Matching" rx="2.5" ry="2.5" style="stroke:#181818;stroke-width:0.5;" width="177" x="21.5" y="788.2168"/><ellipse cx="37.5" cy="816.498" fill="#FF8B40" rx="12" ry="12" style="stroke:#181818;stroke-width:1.0;"/><path d="M37.5156,822.3418 L40.0781,810.1699 L42.9844,810.1699 L39.5156,824.748 L35.5313,824.748 L32.0625,810.1699 L34.9531,810.1699 L37.5156,822.3418 Z " fill="#000000"/><text fill="#000000" font-family="sans-serif" font-size="20" font-style="italic" lengthAdjust="spacing" textLength="147" x="50.5" y="811.7813">«value object»</text><text fill="#000000" font-family="sans-serif" font-size="20" lengthAdjust="spacing" textLength="93" x="77.5" y="835.0625">Matching</text></g><!--class MultipleChoice--><g id="elem_MultipleChoice"><rect codeLine="57" fill="#F5F5DC" height="56.5625" id="MultipleChoice" rx="2.5" ry="2.5" style="stroke:#181818;stroke-width:0.5;" width="183" x="233.5" y="788.2168"/><ellipse cx="249.5" cy="816.498" fill="#FF8B40" rx="12" ry="12" style="stroke:#181818;stroke-width:1.0;"/><path d="M249.5156,822.3418 L252.0781,810.1699 L254.9844,810.1699 L251.5156,824.748 L247.5313,824.748 L244.0625,810.1699 L246.9531,810.1699 L249.5156,822.3418 Z " fill="#000000"/><text fill="#000000" font-family="sans-serif" font-size="20" font-style="italic" lengthAdjust="spacing" textLength="147" x="265.5" y="811.7813">«value object»</text><text fill="#000000" font-family="sans-serif" font-size="20" lengthAdjust="spacing" textLength="149" x="264.5" y="835.0625">MultipleChoice</text></g><!--class ShortAnswer--><g id="elem_ShortAnswer"><rect codeLine="58" fill="#F5F5DC" height="56.5625" id="ShortAnswer" rx="2.5" ry="2.5" style="stroke:#181818;stroke-width:0.5;" width="177" x="451.5" y="788.2168"/><ellipse cx="467.5" cy="816.498" fill="#FF8B40" rx="12" ry="12" style="stroke:#181818;stroke-width:1.0;"/><path d="M467.5156,822.3418 L470.0781,810.1699 L472.9844,810.1699 L469.5156,824.748 L465.5313,824.748 L462.0625,810.1699 L464.9531,810.1699 L467.5156,822.3418 Z " fill="#000000"/><text fill="#000000" font-family="sans-serif" font-size="20" font-style="italic" lengthAdjust="spacing" textLength="147" x="480.5" y="811.7813">«value object»</text><text fill="#000000" font-family="sans-serif" font-size="20" lengthAdjust="spacing" textLength="128" x="490" y="835.0625">ShortAnswer</text></g><!--class Numerical--><g id="elem_Numerical"><rect codeLine="59" fill="#F5F5DC" height="56.5625" id="Numerical" rx="2.5" ry="2.5" style="stroke:#181818;stroke-width:0.5;" width="177" x="663.5" y="788.2168"/><ellipse cx="679.5" cy="816.498" fill="#FF8B40" rx="12" ry="12" style="stroke:#181818;stroke-width:1.0;"/><path d="M679.5156,822.3418 L682.0781,810.1699 L684.9844,810.1699 L681.5156,824.748 L677.5313,824.748 L674.0625,810.1699 L676.9531,810.1699 L679.5156,822.3418 Z " fill="#000000"/><text fill="#000000" font-family="sans-serif" font-size="20" font-style="italic" lengthAdjust="spacing" textLength="147" x="692.5" y="811.7813">«value object»</text><text fill="#000000" font-family="sans-serif" font-size="20" lengthAdjust="spacing" textLength="103" x="714.5" y="835.0625">Numerical</text></g><!--class MissingWords--><g id="elem_MissingWords"><rect codeLine="60" fill="#F5F5DC" height="56.5625" id="MissingWords" rx="2.5" ry="2.5" style="stroke:#181818;stroke-width:0.5;" width="177" x="875.5" y="788.2168"/><ellipse cx="891.5" cy="816.498" fill="#FF8B40" rx="12" ry="12" style="stroke:#181818;stroke-width:1.0;"/><path d="M891.5156,822.3418 L894.0781,810.1699 L896.9844,810.1699 L893.5156,824.748 L889.5313,824.748 L886.0625,810.1699 L888.9531,810.1699 L891.5156,822.3418 Z " fill="#000000"/><text fill="#000000" font-family="sans-serif" font-size="20" font-style="italic" lengthAdjust="spacing" textLength="147" x="904.5" y="811.7813">«value object»</text><text fill="#000000" font-family="sans-serif" font-size="20" lengthAdjust="spacing" textLength="138" x="909" y="835.0625">MissingWords</text></g><!--class TrueFalse--><g id="elem_TrueFalse"><rect codeLine="61" fill="#F5F5DC" height="56.5625" id="TrueFalse" rx="2.5" ry="2.5" style="stroke:#181818;stroke-width:0.5;" width="177" x="1087.5" y="788.2168"/><ellipse cx="1103.5" cy="816.498" fill="#FF8B40" rx="12" ry="12" style="stroke:#181818;stroke-width:1.0;"/><path d="M1103.5156,822.3418 L1106.0781,810.1699 L1108.9844,810.1699 L1105.5156,824.748 L1101.5313,824.748 L1098.0625,810.1699 L1100.9531,810.1699 L1103.5156,822.3418 Z " fill="#000000"/><text fill="#000000" font-family="sans-serif" font-size="20" font-style="italic" lengthAdjust="spacing" textLength="147" x="1116.5" y="811.7813">«value object»</text><text fill="#000000" font-family="sans-serif" font-size="20" lengthAdjust="spacing" textLength="97" x="1141.5" y="835.0625">TrueFalse</text></g><!--class Student--><g id="elem_Student"><rect codeLine="32" fill="#F5F5DC" height="79.8438" id="Student" rx="2.5" ry="2.5" style="stroke:#181818;stroke-width:0.5;" width="114" x="1320" y="49.2168"/><ellipse cx="1336" cy="89.1387" fill="#ADD1B2" rx="12" ry="12" style="stroke:#181818;stroke-width:1.0;"/><path d="M1340.7188,96.6387 L1331.6406,96.6387 L1331.6406,82.0605 L1340.7188,82.0605 L1340.7188,84.5918 L1334.5156,84.5918 L1334.5156,87.748 L1340.1406,87.748 L1340.1406,90.2793 L1334.5156,90.2793 L1334.5156,94.0918 L1340.7188,94.0918 L1340.7188,96.6387 Z " fill="#000000"/><text fill="#000000" font-family="sans-serif" font-size="20" font-style="italic" lengthAdjust="spacing" textLength="83" x="1349.5" y="72.7813">«entity»</text><text fill="#000000" font-family="sans-serif" font-size="20" font-style="italic" lengthAdjust="spacing" textLength="64" x="1359" y="96.0625">«root»</text><text fill="#000000" font-family="sans-serif" font-size="20" lengthAdjust="spacing" textLength="80" x="1351" y="119.3438">Student</text></g><!--class Course--><g id="elem_Course"><rect codeLine="39" fill="#F5F5DC" height="79.8438" id="Course" rx="2.5" ry="2.5" style="stroke:#181818;stroke-width:0.5;" width="113" x="1320.5" y="409.2168"/><ellipse cx="1336.5" cy="449.1387" fill="#ADD1B2" rx="12" ry="12" style="stroke:#181818;stroke-width:1.0;"/><path d="M1341.2188,456.6387 L1332.1406,456.6387 L1332.1406,442.0605 L1341.2188,442.0605 L1341.2188,444.5918 L1335.0156,444.5918 L1335.0156,447.748 L1340.6406,447.748 L1340.6406,450.2793 L1335.0156,450.2793 L1335.0156,454.0918 L1341.2188,454.0918 L1341.2188,456.6387 Z " fill="#000000"/><text fill="#000000" font-family="sans-serif" font-size="20" font-style="italic" lengthAdjust="spacing" textLength="83" x="1349.5" y="432.7813">«entity»</text><text fill="#000000" font-family="sans-serif" font-size="20" font-style="italic" lengthAdjust="spacing" textLength="64" x="1359" y="456.0625">«root»</text><text fill="#000000" font-family="sans-serif" font-size="20" lengthAdjust="spacing" textLength="69" x="1356.5" y="479.3438">Course</text></g><!--reverse link Question to QuestionNumber--><g id="link_Question_QuestionNumber"><path codeLine="63" d="M793.34,580.7168 C800.69,580.7168 808.04,580.7168 815.39,580.7168 " fill="none" id="Question-backto-QuestionNumber" style="stroke:#222222;stroke-width:1.0;"/><polygon fill="#222222" points="780.11,580.7168,786.11,584.7168,792.11,580.7168,786.11,576.7168,780.11,580.7168" style="stroke:#222222;stroke-width:1.0;"/></g><!--reverse link Question to QuestionBody--><g id="link_Question_QuestionBody"><path codeLine="64" d="M658.55,616.0268 C628.68,633.2668 592.95,653.8868 564.87,670.0868 " fill="none" id="Question-backto-QuestionBody" style="stroke:#222222;stroke-width:1.0;"/><polygon fill="#222222" points="670.11,609.3568,662.9141,608.8891,659.7147,615.3516,666.9106,615.8193,670.11,609.3568" style="stroke:#222222;stroke-width:1.0;"/></g><!--reverse link Question to Matching--><g id="link_Question_Matching"><path codeLine="66" d="M688.02,626.2268 C678.65,640.2568 668.33,655.8368 659,670.2168 C642.69,695.3468 648.09,710.8468 623,727.2168 C469.82,827.1668 395.22,751.6468 216,788.2168 C210.32,789.3768 204.49,790.6468 198.62,791.9968 " fill="none" id="Question-backto-Matching" style="stroke:#222222;stroke-width:1.0;"/><polygon fill="none" points="682.27,622.2168,699.22,609.4968,693.91,630.0168,682.27,622.2168" style="stroke:#222222;stroke-width:1.0;"/></g><!--reverse link Question to MultipleChoice--><g id="link_Question_MultipleChoice"><path codeLine="67" d="M702.71,628.5168 C686.16,677.8868 660.69,749.7368 650,758.2168 C612.03,788.3268 481.56,778.9468 434,788.2168 C428.35,789.3168 422.55,790.5268 416.72,791.8168 " fill="none" id="Question-backto-MultipleChoice" style="stroke:#222222;stroke-width:1.0;"/><polygon fill="none" points="696.14,626.0768,709.09,609.3068,709.43,630.4868,696.14,626.0768" style="stroke:#222222;stroke-width:1.0;"/></g><!--reverse link Question to ShortAnswer--><g id="link_Question_ShortAnswer"><path codeLine="68" d="M714.83,629.6268 C710.91,675.0068 702.74,738.9868 687,758.2168 C678.45,768.6568 654.72,779.5768 628.75,789.0668 " fill="none" id="Question-backto-ShortAnswer" style="stroke:#222222;stroke-width:1.0;"/><polygon fill="none" points="707.87,628.8168,716.4,609.4168,721.82,629.9068,707.87,628.8168" style="stroke:#222222;stroke-width:1.0;"/></g><!--reverse link Question to Numerical--><g id="link_Question_Numerical"><path codeLine="69" d="M724.95,629.5168 C731.88,677.2468 742.3,748.9568 747.97,787.9868 " fill="none" id="Question-backto-Numerical" style="stroke:#222222;stroke-width:1.0;"/><polygon fill="none" points="717.98,630.2768,722.03,609.4768,731.84,628.2668,717.98,630.2768" style="stroke:#222222;stroke-width:1.0;"/></g><!--reverse link Question to MissingWords--><g id="link_Question_MissingWords"><path codeLine="70" d="M761.95,623.5268 C811.91,671.0468 892.06,747.2868 934.85,787.9868 " fill="none" id="Question-backto-MissingWords" style="stroke:#222222;stroke-width:1.0;"/><polygon fill="none" points="756.85,628.3368,747.19,609.4768,766.5,618.1868,756.85,628.3368" style="stroke:#222222;stroke-width:1.0;"/></g><!--reverse link Question to TrueFalse--><g id="link_Question_TrueFalse"><path codeLine="71" d="M789.94,618.4768 C882.02,665.5168 1039.47,745.9568 1121.97,788.1068 " fill="none" id="Question-backto-TrueFalse" style="stroke:#222222;stroke-width:1.0;"/><polygon fill="none" points="786.51,624.5768,771.89,609.2468,792.88,612.1168,786.51,624.5768" style="stroke:#222222;stroke-width:1.0;"/></g><!--reverse link Exam to Section--><g id="link_Exam_Section"><path codeLine="73" d="M1193.16,309.0468 C1183.56,345.0068 1171.15,391.4868 1163.38,420.5868 " fill="none" id="Exam-backto-Section" style="stroke:#222222;stroke-width:1.0;"/><polygon fill="#222222" points="1196.56,296.3268,1191.146,301.0901,1193.4607,307.9196,1198.8746,303.1563,1196.56,296.3268" style="stroke:#222222;stroke-width:1.0;"/><text fill="#000000" font-family="sans-serif" font-size="20" lengthAdjust="spacing" textLength="35" x="1126.2928" y="407.9486">1..*</text></g><!--link Exam to Course--><g id="link_Exam_Course"><path codeLine="74" d="M1241.81,296.3268 C1270,328.0068 1309.67,372.5668 1338.74,405.2368 " fill="none" id="Exam-to-Course" style="stroke:#222222;stroke-width:1.0;"/><polygon fill="#222222" points="1342.23,409.1568,1339.2381,399.7734,1338.9073,405.4205,1333.2601,405.0897,1342.23,409.1568" style="stroke:#222222;stroke-width:1.0;"/><text fill="#000000" font-family="sans-serif" font-size="20" lengthAdjust="spacing" textLength="69" x="1287" y="345.7813">is from</text><text fill="#000000" font-family="sans-serif" font-size="20" lengthAdjust="spacing" textLength="13" x="1322.6526" y="396.5387">1</text></g><!--reverse link Section to Question--><g id="link_Section_Question"><path codeLine="76" d="M1086.31,468.8868 C1013.92,488.5568 897.55,520.9468 798,552.2168 C792.26,554.0168 786.3,555.9568 780.35,557.9268 " fill="none" id="Section-backto-Question" style="stroke:#222222;stroke-width:1.0;"/><polygon fill="#222222" points="1099.3,465.3668,1092.4625,463.0759,1087.718,468.5063,1094.5555,470.7972,1099.3,465.3668" style="stroke:#222222;stroke-width:1.0;"/><text fill="#000000" font-family="sans-serif" font-size="20" lengthAdjust="spacing" textLength="35" x="772.8382" y="545.2632">1..*</text></g><!--reverse link Section to SectionName--><g id="link_Section_SectionName"><path codeLine="77" d="M1156,491.0668 C1156,510.9068 1156,534.2368 1156,551.9768 " fill="none" id="Section-backto-SectionName" style="stroke:#222222;stroke-width:1.0;"/><polygon fill="#222222" points="1156,477.9968,1152,483.9968,1156,489.9968,1160,483.9968,1156,477.9968" style="stroke:#222222;stroke-width:1.0;"/></g><!--link Student to Exam--><g id="link_Student_Exam"><path codeLine="79" d="M1336.71,129.3168 C1310.98,154.2968 1277.6,186.6968 1251.14,212.3668 " fill="none" id="Student-to-Exam" style="stroke:#222222;stroke-width:1.0;"/><polygon fill="#222222" points="1247.29,216.1068,1256.5382,212.72,1250.8821,212.6287,1250.9733,206.9726,1247.29,216.1068" style="stroke:#222222;stroke-width:1.0;"/><text fill="#000000" font-family="sans-serif" font-size="20" lengthAdjust="spacing" textLength="54" x="1303" y="180.7813">takes</text><text fill="#000000" font-family="sans-serif" font-size="20" lengthAdjust="spacing" textLength="10" x="1242.9143" y="203.4808">*</text></g><!--link Answer to Exam--><g id="link_Answer_Exam"><path codeLine="81" d="M1207,129.3168 C1207,153.8868 1207,185.6368 1207,211.1068 " fill="none" id="Answer-to-Exam" style="stroke:#222222;stroke-width:1.0;"/><polygon fill="#222222" points="1207,216.1068,1211,207.1068,1207,211.1068,1203,207.1068,1207,216.1068" style="stroke:#222222;stroke-width:1.0;"/><text fill="#000000" font-family="sans-serif" font-size="20" lengthAdjust="spacing" textLength="49" x="1208" y="180.7813">is for</text><text fill="#000000" font-family="sans-serif" font-size="20" lengthAdjust="spacing" textLength="13" x="1192.9641" y="203.4808">1</text></g><!--SRC=[ZLJBRjim4BppAmZda3QeR3VeeJ040xPH0pqqGE6YFTFIHc9CQGMIQfgc_VTIxnNZrFB9djaPhidPDIUP5qABJ65qWfZ7S2zAPVUOsuFy3VnsoQvJQmkpMYmA9N9RPceUORQ8b30cYAL8d9Wnq_dmcjXOg-MnjF0vmhmsMh9Kni0XA-mJ5nrjA9g1JJ4sljTMHAT4Ovd7ErIe-H5a0gHeepK-DjJLRVrXh70QaG2VXQ584Ws9iB1Uyq-_H3RZpuox3-HMkaChYFu-G6GbvenYNqimDLXXTKyzT5TcHz1dY2t6JmHkRUz41YFhJMuUdPvKVX4sIcMUKCYzY2mKx5AK4L3N5BLjBGRKzGHQHa9H2scCC_s1sbtm07_J9Uo5Ci3-ldff1rl6hblltbgqqeqH7eODuAHXg16j-_By7_yTbjg0Pz-0nBq1NZSVtUV5ikhLpnUH_zCy6IqZRFVEFdqk7gxcpVTtL_lzn-s7vLl-KwWIE1uVt06DwcLqBahOYrnDbNG1Q-hvnRR6wPkg8j6SAkbpExap4kgfcZxnbmMiV-ERm1zuGWNZcH-ey4_Wo7wUVNmyr1vB9zkZXl7s7UcCUzmmwApEVjNsxFryVZFhDrwD1y7QuRDkt5PS6dwlqMtuRXo8ij-Bb1jjkcudrBPEKP-nubQStEfdRJowCrkoEX4r-mS0]--></g></svg>