<?xml version="1.0" encoding="UTF-8" standalone="no"?><svg xmlns="http://www.w3.org/2000/svg" xmlns:xlink="http://www.w3.org/1999/xlink" contentStyleType="text/css" height="347px" preserveAspectRatio="none" style="width:723px;height:347px;background:#FFFFFF;" version="1.1" viewBox="0 0 723 347" width="723px" zoomAndPan="magnify"><defs/><g><!--cluster <<aggregate>> Enrolment--><g id="cluster_&lt;&lt;aggregate&gt;&gt; Enrolment"><path d="M152.5,7.2168 L422.5,7.2168 A3.75,3.75 0 0 1 425,9.7168 L432,36.498 L432.5,36.498 A2.5,2.5 0 0 1 435,38.998 L435,326.2168 A2.5,2.5 0 0 1 432.5,328.7168 L152.5,328.7168 A2.5,2.5 0 0 1 150,326.2168 L150,9.7168 A2.5,2.5 0 0 1 152.5,7.2168 " fill="none" style="stroke:#000000;stroke-width:1.5;"/><line style="stroke:#000000;stroke-width:1.5;" x1="150" x2="432" y1="36.498" y2="36.498"/><text fill="#000000" font-family="sans-serif" font-size="20" font-weight="bold" lengthAdjust="spacing" textLength="269" x="154" y="27.7813">«aggregate» Enrolment</text></g><!--cluster <<aggregate>> Student--><g id="cluster_&lt;&lt;aggregate&gt;&gt; Student"><path d="M461.5,202.2168 L703.5,202.2168 A3.75,3.75 0 0 1 706,204.7168 L713,231.498 L713.5,231.498 A2.5,2.5 0 0 1 716,233.998 L716,337.7168 A2.5,2.5 0 0 1 713.5,340.2168 L461.5,340.2168 A2.5,2.5 0 0 1 459,337.7168 L459,204.7168 A2.5,2.5 0 0 1 461.5,202.2168 " fill="none" style="stroke:#000000;stroke-width:1.5;"/><line style="stroke:#000000;stroke-width:1.5;" x1="459" x2="713" y1="231.498" y2="231.498"/><text fill="#000000" font-family="sans-serif" font-size="20" font-weight="bold" lengthAdjust="spacing" textLength="241" x="463" y="222.7813">«aggregate» Student</text></g><!--cluster <<aggregate>> Course--><g id="cluster_&lt;&lt;aggregate&gt;&gt; Course"><path d="M466.5,7.2168 L697.5,7.2168 A3.75,3.75 0 0 1 700,9.7168 L707,36.498 L707.5,36.498 A2.5,2.5 0 0 1 710,38.998 L710,142.7168 A2.5,2.5 0 0 1 707.5,145.2168 L466.5,145.2168 A2.5,2.5 0 0 1 464,142.7168 L464,9.7168 A2.5,2.5 0 0 1 466.5,7.2168 " fill="none" style="stroke:#000000;stroke-width:1.5;"/><line style="stroke:#000000;stroke-width:1.5;" x1="464" x2="707" y1="36.498" y2="36.498"/><text fill="#000000" font-family="sans-serif" font-size="20" font-weight="bold" lengthAdjust="spacing" textLength="230" x="468" y="27.7813">«aggregate» Course</text></g><!--class Enrolment--><g id="elem_Enrolment"><rect codeLine="16" fill="#F5F5DC" height="79.8438" id="Enrolment" rx="2.5" ry="2.5" style="stroke:#181818;stroke-width:0.5;" width="139" x="262.5" y="49.2168"/><ellipse cx="278.5" cy="89.1387" fill="#ADD1B2" rx="12" ry="12" style="stroke:#181818;stroke-width:1.0;"/><path d="M283.2188,96.6387 L274.1406,96.6387 L274.1406,82.0605 L283.2188,82.0605 L283.2188,84.5918 L277.0156,84.5918 L277.0156,87.748 L282.6406,87.748 L282.6406,90.2793 L277.0156,90.2793 L277.0156,94.0918 L283.2188,94.0918 L283.2188,96.6387 Z " fill="#000000"/><text fill="#000000" font-family="sans-serif" font-size="20" font-style="italic" lengthAdjust="spacing" textLength="83" x="304.5" y="72.7813">«entity»</text><text fill="#000000" font-family="sans-serif" font-size="20" font-style="italic" lengthAdjust="spacing" textLength="64" x="314" y="96.0625">«root»</text><text fill="#000000" font-family="sans-serif" font-size="20" lengthAdjust="spacing" textLength="105" x="293.5" y="119.3438">Enrolment</text></g><!--class State--><g id="elem_State"><rect codeLine="35" fill="#F5F5DC" height="56.5625" id="State" rx="2.5" ry="2.5" style="stroke:#181818;stroke-width:0.5;" width="177" x="230.5" y="255.7168"/><ellipse cx="246.5" cy="283.998" fill="#FF8B40" rx="12" ry="12" style="stroke:#181818;stroke-width:1.0;"/><path d="M246.5156,289.8418 L249.0781,277.6699 L251.9844,277.6699 L248.5156,292.248 L244.5313,292.248 L241.0625,277.6699 L243.9531,277.6699 L246.5156,289.8418 Z " fill="#000000"/><text fill="#000000" font-family="sans-serif" font-size="20" font-style="italic" lengthAdjust="spacing" textLength="147" x="259.5" y="279.2813">«value object»</text><text fill="#000000" font-family="sans-serif" font-size="20" lengthAdjust="spacing" textLength="53" x="306.5" y="302.5625">State</text></g><!--class Student--><g id="elem_Student"><rect codeLine="24" fill="#F5F5DC" height="79.8438" id="Student" rx="2.5" ry="2.5" style="stroke:#181818;stroke-width:0.5;" width="114" x="475" y="244.2168"/><ellipse cx="491" cy="284.1387" fill="#ADD1B2" rx="12" ry="12" style="stroke:#181818;stroke-width:1.0;"/><path d="M495.7188,291.6387 L486.6406,291.6387 L486.6406,277.0605 L495.7188,277.0605 L495.7188,279.5918 L489.5156,279.5918 L489.5156,282.748 L495.1406,282.748 L495.1406,285.2793 L489.5156,285.2793 L489.5156,289.0918 L495.7188,289.0918 L495.7188,291.6387 Z " fill="#000000"/><text fill="#000000" font-family="sans-serif" font-size="20" font-style="italic" lengthAdjust="spacing" textLength="83" x="504.5" y="267.7813">«entity»</text><text fill="#000000" font-family="sans-serif" font-size="20" font-style="italic" lengthAdjust="spacing" textLength="64" x="514" y="291.0625">«root»</text><text fill="#000000" font-family="sans-serif" font-size="20" lengthAdjust="spacing" textLength="80" x="506" y="314.3438">Student</text></g><!--class Course--><g id="elem_Course"><rect codeLine="32" fill="#F5F5DC" height="79.8438" id="Course" rx="2.5" ry="2.5" style="stroke:#181818;stroke-width:0.5;" width="113" x="487.5" y="49.2168"/><ellipse cx="503.5" cy="89.1387" fill="#ADD1B2" rx="12" ry="12" style="stroke:#181818;stroke-width:1.0;"/><path d="M508.2188,96.6387 L499.1406,96.6387 L499.1406,82.0605 L508.2188,82.0605 L508.2188,84.5918 L502.0156,84.5918 L502.0156,87.748 L507.6406,87.748 L507.6406,90.2793 L502.0156,90.2793 L502.0156,94.0918 L508.2188,94.0918 L508.2188,96.6387 Z " fill="#000000"/><text fill="#000000" font-family="sans-serif" font-size="20" font-style="italic" lengthAdjust="spacing" textLength="83" x="516.5" y="72.7813">«entity»</text><text fill="#000000" font-family="sans-serif" font-size="20" font-style="italic" lengthAdjust="spacing" textLength="64" x="526" y="96.0625">«root»</text><text fill="#000000" font-family="sans-serif" font-size="20" lengthAdjust="spacing" textLength="69" x="523.5" y="119.3438">Course</text></g><g id="elem_GMN9"><path d="M6,244.2168 L6,324.0605 A0,0 0 0 0 6,324.0605 L134,324.0605 A0,0 0 0 0 134,324.0605 L134,288.2168 L230.21,284.2168 L134,280.2168 L134,254.2168 L124,244.2168 L6,244.2168 A0,0 0 0 0 6,244.2168 " fill="#FEFFDD" style="stroke:#181818;stroke-width:0.5;"/><path d="M124,244.2168 L124,254.2168 L134,254.2168 L124,244.2168 " fill="#FEFFDD" style="stroke:#181818;stroke-width:0.5;"/><text fill="#000000" font-family="sans-serif" font-size="20" lengthAdjust="spacing" textLength="92" x="12" y="267.7813">PENDING</text><text fill="#000000" font-family="sans-serif" font-size="20" lengthAdjust="spacing" textLength="107" x="12" y="291.0625">ACCEPTED</text><text fill="#000000" font-family="sans-serif" font-size="20" lengthAdjust="spacing" textLength="100" x="12" y="314.3438">REJECTED</text></g><!--link Enrolment to State--><g id="link_Enrolment_State"><path codeLine="42" d="M329.37,129.2768 C326.97,164.8168 323.48,216.7168 321.22,250.2368 " fill="none" id="Enrolment-to-State" style="stroke:#222222;stroke-width:1.0;"/><polygon fill="#222222" points="320.87,255.4468,325.4532,246.7293,321.1988,250.4576,317.4705,246.2032,320.87,255.4468" style="stroke:#222222;stroke-width:1.0;"/><text fill="#000000" font-family="sans-serif" font-size="20" lengthAdjust="spacing" textLength="35" x="328" y="180.7813">has</text><text fill="#000000" font-family="sans-serif" font-size="20" lengthAdjust="spacing" textLength="13" x="306.9151" y="242.7797">1</text></g><!--link Enrolment to Student--><g id="link_Enrolment_Student"><path codeLine="44" d="M372.47,129.2768 C405.84,161.4768 453.12,207.0968 487.53,240.3068 " fill="none" id="Enrolment-to-Student" style="stroke:#222222;stroke-width:1.0;"/><polygon fill="#222222" points="491.24,243.8868,487.5379,234.7602,487.6408,240.4161,481.9849,240.519,491.24,243.8868" style="stroke:#222222;stroke-width:1.0;"/><text fill="#000000" font-family="sans-serif" font-size="20" lengthAdjust="spacing" textLength="35" x="427" y="180.7813">has</text><text fill="#000000" font-family="sans-serif" font-size="20" lengthAdjust="spacing" textLength="13" x="471.0033" y="231.5483">1</text></g><!--link Enrolment to Course--><g id="link_Enrolment_Course"><path codeLine="45" d="M401.71,89.2168 C427.62,89.2168 456.83,89.2168 482.01,89.2168 " fill="none" id="Enrolment-to-Course" style="stroke:#222222;stroke-width:1.0;"/><polygon fill="#222222" points="487.32,89.2168,478.32,85.2168,482.32,89.2168,478.32,93.2168,487.32,89.2168" style="stroke:#222222;stroke-width:1.0;"/><text fill="#000000" font-family="sans-serif" font-size="20" lengthAdjust="spacing" textLength="49" x="420" y="80.7813">is for</text><text fill="#000000" font-family="sans-serif" font-size="20" lengthAdjust="spacing" textLength="13" x="466.6199" y="83.4063">1</text></g><!--SRC=[bL31Ji904BtlLqpWe2OYI3mOqf10AGOFn8ZnldIdxSfsfzdTQfJmxovjmKhau9nUtdlpNcRiHkg26vuhYZSeG632I-NcfDrAVY4C1-mYSwwmetw_K5oxCbStCUNzM75hUqBor2ypPWyvK0aJvunSbmuNCUagQC0oAH0mBzmdy8DissoEBYDXJxEcFDwaXaejGb9aO8qonPPfOWnzr59tM0rZXT_XAK8d27YQ6aovm_4O8cr8vQXT1xOC_7WeVVEHPnLRrSBA-IMsOuoTkY08Qif71e4XSXvizzOplIjNYcDhazPmxOA6-dTyIAMn-2kzfjhXDNC-ktMqLovVhxlp-VtqRd05xroL2BH-mxXoxvWcRrAOEA2a-HF0KxISBPOF7at2C7fwYMOUFaUFKRY7g0NirnZxUMElDuRERQSf7K76xTzo_PRQqD9hkJbi1D92GePz0m00]--></g></svg>